<svg width="89" height="20" viewBox="0 0 89 20" fill="none" xmlns="http://www.w3.org/2000/svg">
<g clip-path="url(#clip0_2619_61301)">
<path d="M9.71893 0C4.35129 0 0 4.24447 0 9.4804C0 14.7163 4.35129 18.9608 9.71893 18.9608C15.0867 18.9608 19.4379 14.7163 19.4379 9.4804C19.4379 4.24447 15.0867 0 9.71893 0ZM10.5908 15.7167C10.5874 15.7167 10.5851 15.7167 10.5817 15.7167C10.5647 15.7167 10.5487 15.7111 10.5362 15.7C10.5214 15.6878 10.5134 15.6689 10.5134 15.65V13.0165C10.5134 12.9854 10.5351 12.9588 10.5658 12.9521C11.8917 12.6479 12.9491 11.6154 13.2621 10.3209C13.269 10.2909 13.2963 10.2698 13.3281 10.2698H16.0268C16.0461 10.2698 16.0655 10.2775 16.078 10.292C16.0905 10.3064 16.0973 10.3253 16.0939 10.3453C15.7138 13.1364 13.4499 15.3447 10.5908 15.7167ZM16.0302 8.75093H16.0268H13.327C13.2951 8.75093 13.2678 8.72987 13.261 8.69987C12.8729 7.09 11.4217 5.96646 9.7326 5.96646C7.72827 5.96646 6.0984 7.55633 6.0984 9.51147C6.0984 11.1591 7.25027 12.5747 8.9006 12.9532C8.93133 12.9599 8.953 12.9865 8.953 13.0176V15.6511C8.953 15.67 8.945 15.6878 8.9302 15.7011C8.91767 15.7122 8.90173 15.7177 8.88467 15.7177C8.88127 15.7177 8.879 15.7177 8.8756 15.7177C5.70117 15.3036 3.30757 12.6357 3.30757 9.5126C3.30757 6.05639 6.19059 3.24414 9.7326 3.24414C12.9287 3.24414 15.658 5.5701 16.0917 8.6566C16.0962 8.66547 16.0985 8.67547 16.0985 8.68547C16.0985 8.721 16.0677 8.75093 16.0302 8.75093Z" fill="#202654"/>
<path d="M25.0391 9.49464C25.0391 8.61537 25.2098 7.77711 25.5524 6.97997C25.895 6.18281 26.3605 5.49445 26.9512 4.91491C27.5419 4.33535 28.2522 3.87349 29.0842 3.52932C29.9151 3.18625 30.7983 3.01416 31.7339 3.01416C32.6695 3.01416 33.547 3.18736 34.3665 3.53376C35.186 3.88015 35.9065 4.36422 36.5257 4.98485L35.1052 6.54363C34.2265 5.5433 33.102 5.04258 31.7327 5.04258C30.9155 5.04258 30.1666 5.24575 29.4848 5.65321C28.8031 6.06067 28.2693 6.60581 27.8834 7.28971C27.4975 7.97364 27.3041 8.71524 27.3041 9.51131C27.3041 10.314 27.5033 11.0534 27.9005 11.7296C28.2977 12.4057 28.8372 12.9408 29.519 13.3328C30.2007 13.7258 30.9451 13.9223 31.7509 13.9223C32.3428 13.9223 32.9301 13.7946 33.5129 13.5393C34.0956 13.2839 34.593 12.9498 35.005 12.5378L36.3401 14.0878C35.7198 14.6706 35.0198 15.1269 34.239 15.4567C33.4582 15.7864 32.6285 15.9518 31.7498 15.9518C30.5388 15.9518 29.4199 15.6698 28.3933 15.107C27.3667 14.544 26.5517 13.7658 25.9462 12.7732C25.3418 11.7806 25.0391 10.6882 25.0391 9.49464ZM37.8197 15.7287V3.22844H39.9493V8.30224C40.1576 8.14791 40.334 8.02804 40.4774 7.94257C40.6209 7.85704 40.8428 7.77157 41.141 7.68611C41.4392 7.60057 41.7636 7.55731 42.113 7.55731C42.5751 7.55731 43.0031 7.62611 43.398 7.76377C43.7929 7.90144 44.1469 8.10684 44.4633 8.38217C44.7786 8.65757 45.0256 9.02724 45.2032 9.49131C45.3807 9.95544 45.4695 10.4928 45.4695 11.1034V15.7287H43.3388V11.4465C43.3388 10.1841 42.772 9.55237 41.6395 9.55237C40.5127 9.55237 39.9493 10.173 39.9493 11.4132V15.7276H37.8197V15.7287ZM47.3213 5.99073C47.0618 5.73759 46.9321 5.42783 46.9321 5.05923C46.9321 4.69063 47.0618 4.38199 47.3213 4.13107C47.5809 3.88127 47.9018 3.75581 48.2854 3.75581C48.6633 3.75581 48.9785 3.87905 49.2323 4.12663C49.4861 4.37421 49.6125 4.68508 49.6125 5.05813C49.6125 5.43228 49.4861 5.74425 49.2323 5.99406C48.9785 6.24387 48.6633 6.36933 48.2854 6.36933C47.9018 6.37043 47.5797 6.24387 47.3213 5.99073ZM47.2109 15.7287V7.70604H49.3405V15.7287H47.2109ZM51.2606 19.9998V7.70604H53.3901V8.30224C54.0161 7.80597 54.7765 7.55731 55.6722 7.55731C56.8809 7.55731 57.9087 7.96477 58.7555 8.77857C59.6023 9.59237 60.0257 10.5827 60.0257 11.7496C60.0257 12.5078 59.8334 13.2096 59.4476 13.8546C59.0617 14.4996 58.5347 15.0104 57.8655 15.3867C57.1963 15.7631 56.4655 15.9508 55.6722 15.9508C54.7765 15.9508 54.015 15.7032 53.3901 15.2091V19.9998H51.2606ZM53.3913 11.8484C53.4197 12.4246 53.6542 12.9198 54.0969 13.3339C54.5397 13.748 55.0644 13.9556 55.6733 13.9556C56.2937 13.9556 56.8252 13.738 57.2713 13.3017C57.7164 12.8654 57.9395 12.348 57.9395 11.7507C57.9395 11.1578 57.7164 10.6438 57.2713 10.2074C56.8263 9.77111 56.2937 9.55351 55.6733 9.55351C55.0644 9.55351 54.5397 9.76224 54.0969 10.1786C53.6542 10.596 53.4197 11.089 53.3913 11.6596V11.8484ZM61.2436 19.9998V7.70604H63.3732V8.30224C63.9992 7.80597 64.7595 7.55731 65.6552 7.55731C66.8637 7.55731 67.8917 7.96477 68.7384 8.77857C69.5851 9.59237 70.0091 10.5827 70.0091 11.7496C70.0091 12.5078 69.8164 13.2096 69.4304 13.8546C69.0451 14.4996 68.5177 15.0104 67.8484 15.3867C67.1791 15.7631 66.4485 15.9508 65.6552 15.9508C64.7595 15.9508 63.9981 15.7032 63.3732 15.2091V19.9998H61.2436ZM63.3743 11.8484C63.4027 12.4246 63.6372 12.9198 64.08 13.3339C64.5227 13.748 65.0475 13.9556 65.6564 13.9556C66.2767 13.9556 66.8084 13.738 67.2544 13.3017C67.6997 12.8654 67.9224 12.348 67.9224 11.7507C67.9224 11.1578 67.6997 10.6438 67.2544 10.2074C66.8091 9.77111 66.2767 9.55351 65.6564 9.55351C65.0475 9.55351 64.5227 9.76224 64.08 10.1786C63.6372 10.596 63.4027 11.089 63.3743 11.6596V11.8484ZM70.8304 11.7951C70.8304 11.2288 70.9304 10.6893 71.1311 10.1752C71.3311 9.66117 71.6111 9.21044 71.9724 8.82297C72.3331 8.43551 72.7824 8.12797 73.3197 7.89924C73.8584 7.67164 74.4457 7.55731 75.0817 7.55731C75.8704 7.55731 76.5831 7.74937 77.2204 8.13464C77.8564 8.51984 78.3504 9.02944 78.6997 9.66451C79.0491 10.2996 79.2237 10.9935 79.2237 11.7462C79.2237 11.9827 79.2064 12.2026 79.1724 12.4057H72.9011C73.0251 12.9086 73.2877 13.3106 73.6911 13.6114C74.0937 13.9123 74.5937 14.0622 75.1911 14.0622C75.5851 14.0622 75.9624 13.9889 76.3237 13.8413C76.6844 13.6936 76.9804 13.4716 77.2111 13.1762L78.6644 14.302C78.2924 14.816 77.7997 15.218 77.1851 15.5111C76.5704 15.8031 75.9117 15.9496 75.2071 15.9496C74.3951 15.9496 73.6544 15.7686 72.9837 15.4056C72.3137 15.0426 71.7864 14.543 71.4031 13.9046C71.0231 13.2684 70.8304 12.5645 70.8304 11.7951ZM72.9784 10.8802H77.0777C77.0164 10.4739 76.7937 10.133 76.4097 9.85771C76.0264 9.58351 75.5791 9.44584 75.0657 9.44584C74.5751 9.44584 74.1451 9.57684 73.7731 9.83771C73.4004 10.0986 73.1351 10.4462 72.9784 10.8802ZM80.5484 15.7287V7.70604H82.6777V8.30224C83.0717 8.01584 83.4964 7.81931 83.9504 7.71497C84.4044 7.61057 85.0337 7.55731 85.8397 7.55731V9.55237C85.3051 9.55237 84.8464 9.58237 84.4657 9.64344C84.0857 9.70337 83.7797 9.78777 83.5484 9.89437C83.3177 10.0009 83.1377 10.1486 83.0077 10.3351C82.8784 10.5216 82.7904 10.7182 82.7464 10.9236C82.7004 11.129 82.6791 11.381 82.6791 11.6774V15.7287H80.5484ZM85.8397 4.36644C85.8397 4.21323 85.8704 4.06667 85.9317 3.92789C85.9937 3.78911 86.0757 3.66921 86.1791 3.56929C86.2824 3.46937 86.4057 3.38943 86.5477 3.33058C86.6911 3.27174 86.8404 3.24177 86.9964 3.24177C87.1524 3.24177 87.3011 3.27174 87.4437 3.33058C87.5857 3.39053 87.7077 3.47047 87.8097 3.57039C87.9124 3.67032 87.9944 3.79133 88.0544 3.93011C88.1151 4.06889 88.1457 4.21323 88.1457 4.36422C88.1457 4.51521 88.1151 4.65955 88.0544 4.79944C87.9931 4.93933 87.9124 5.05923 87.8091 5.16027C87.7064 5.2613 87.5837 5.34124 87.4411 5.4023C87.2991 5.46225 87.1497 5.49223 86.9931 5.49223C86.7844 5.49223 86.5924 5.44227 86.4144 5.34235C86.2384 5.24243 86.0971 5.10587 85.9937 4.93267C85.8911 4.75947 85.8397 4.57073 85.8397 4.36644ZM86.0571 4.36644C86.0571 4.48857 86.0811 4.60403 86.1297 4.71506C86.1791 4.82609 86.2451 4.92157 86.3284 5.00261C86.4111 5.08366 86.5104 5.14805 86.6264 5.19691C86.7424 5.24465 86.8644 5.26907 86.9937 5.26907C87.1644 5.26907 87.3231 5.22799 87.4664 5.14695C87.6097 5.0659 87.7237 4.95598 87.8057 4.8172C87.8884 4.67953 87.9297 4.52854 87.9297 4.36533C87.9297 4.19991 87.8884 4.04558 87.8057 3.90458C87.7237 3.76358 87.6097 3.65033 87.4637 3.56707C87.3197 3.48379 87.1611 3.44161 86.9904 3.44161C86.8197 3.44161 86.6624 3.48379 86.5191 3.56707C86.3757 3.65033 86.2631 3.76247 86.1811 3.90458C86.0984 4.04558 86.0571 4.19991 86.0571 4.36644ZM86.5411 5.00372V3.7225H86.9417C86.9917 3.7225 87.0351 3.72361 87.0704 3.72472C87.1057 3.72583 87.1451 3.73027 87.1897 3.73582C87.2344 3.74137 87.2717 3.74915 87.3011 3.75914C87.3317 3.76913 87.3624 3.78245 87.3937 3.80133C87.4244 3.81909 87.4491 3.84129 87.4684 3.86572C87.4877 3.89015 87.5024 3.92123 87.5151 3.95898C87.5264 3.99673 87.5337 4.03892 87.5337 4.08555C87.5337 4.29205 87.4251 4.41863 87.2077 4.46747L87.5337 5.00705H87.2704L86.9564 4.48524H86.7604V5.00483H86.5411V5.00372ZM86.7604 4.29317H86.9997C87.0464 4.29317 87.0871 4.29095 87.1204 4.28651C87.1531 4.28207 87.1851 4.27429 87.2151 4.26097C87.2457 4.24875 87.2684 4.22877 87.2844 4.20213C87.3004 4.17548 87.3084 4.14217 87.3084 4.10109C87.3084 4.02782 87.2831 3.97785 87.2317 3.95343C87.1804 3.92901 87.1031 3.91568 86.9997 3.91568H86.7604V4.29317Z" fill="#202654"/>
</g>
<defs>
<clipPath id="clip0_2619_61301">
<rect width="88.6667" height="20" fill="white"/>
</clipPath>
</defs>
</svg>
