<svg width="60" height="30" viewBox="0 0 60 30" fill="none" xmlns="http://www.w3.org/2000/svg">
<path d="M30 0C13.4315 0 0 6.71629 0 15C0 23.2837 13.4315 30 30 30C46.5685 30 60.0011 23.2837 60.0011 15C60.0011 6.71629 46.5674 0 30 0ZM30 27.6325C14.7396 27.6325 2.36859 21.9766 2.36859 15C2.36859 8.02335 14.7396 2.36859 30 2.36859C45.2604 2.36859 57.6325 8.02335 57.6325 15C57.6325 21.9766 45.2614 27.6325 30 27.6325ZM26.2175 12.3689V10.0004H34.6843V12.3689H31.6362V20.0028H29.2644V12.3689H26.2175ZM44.8973 10.0004V20.0028H42.5288L38.2329 14.0496V20.0028H35.8654V10.0004H38.2329L42.5288 15.9536V10.0004H44.8973ZM15.0339 20.0028V10.0004H17.4025L20.0335 14.0475L22.6646 10.0004H25.0332V20.0028H22.6646V14.3438L20.8654 17.1051H19.1985L17.3993 14.3438V20.0028H15.0339Z" fill="#1D1D1B"/>
</svg>
