<svg width="81" height="47" viewBox="0 0 81 47" fill="none" xmlns="http://www.w3.org/2000/svg">
<g clip-path="url(#clip0_5327_18473)">
<path d="M76.0365 47H4.96353C2.22293 47 0 44.7886 0 42.0622V4.9378C0 2.21141 2.22293 0 4.96353 0H76.0365C78.7771 0 81 2.21141 81 4.9378V42.0773C81 44.7886 78.7771 47 76.0365 47Z" fill="white"/>
<path d="M67.0439 37.5029H57.1016V37.9725H67.0439V37.5029Z" fill="#001689"/>
<path d="M22.872 37.5029H12.9297V37.9725H22.872V37.5029Z" fill="#001689"/>
<path d="M18.5169 33.4131V28.5056L16.3853 31.7167H16.3396L14.2385 28.5359V33.4131H12.6094V25.8853H14.406L16.4005 29.066L18.3951 25.8853H20.1917V33.4131H18.5169Z" fill="#001689"/>
<path d="M27.8948 33.4437H26.4179L25.3064 29.8994L24.1645 33.4437H22.6876L20.9062 27.6426H22.5658L23.4946 31.1415L24.5908 27.6274H26.0068L27.1031 31.1566L28.047 27.6577H29.6762L27.8948 33.4437Z" fill="#001689"/>
<path d="M33.4408 33.4135V32.7925C33.0449 33.2317 32.4968 33.5195 31.6899 33.5195C30.5936 33.5195 29.6953 32.8985 29.6953 31.7625V31.7473C29.6953 30.4902 30.6545 29.9146 32.0248 29.9146C32.6034 29.9146 33.0297 30.0055 33.4408 30.1569V30.0661C33.4408 29.3845 33.0145 29.0058 32.1923 29.0058C31.5681 29.0058 31.1265 29.127 30.5936 29.3239L30.1825 28.0818C30.822 27.8092 31.4463 27.6123 32.4359 27.6123C34.2325 27.6123 35.0243 28.5362 35.0243 30.0964V33.4438H33.4408V33.4135ZM33.4713 31.0809C33.1972 30.9446 32.8166 30.8688 32.4207 30.8688C31.7203 30.8688 31.2788 31.1415 31.2788 31.6716V31.6867C31.2788 32.126 31.6442 32.3835 32.1771 32.3835C32.9384 32.3835 33.456 31.9594 33.456 31.3687V31.0809H33.4713Z" fill="#001689"/>
<path d="M39.6776 33.4135V30.2024C39.6776 29.4299 39.3122 29.0361 38.6879 29.0361C38.0637 29.0361 37.6678 29.4299 37.6678 30.2024V33.4135H36.0234V27.6426H37.6678V28.4606C38.0484 27.9759 38.5357 27.5366 39.3578 27.5366C40.6063 27.5366 41.3219 28.3545 41.3219 29.6723V33.3984H39.6776V33.4135Z" fill="#001689"/>
<path d="M45.7064 33.4135V32.7925C45.3106 33.2317 44.7624 33.5195 43.9555 33.5195C42.8592 33.5195 41.9609 32.8985 41.9609 31.7625V31.7473C41.9609 30.4902 42.9201 29.9146 44.2904 29.9146C44.869 29.9146 45.2953 30.0055 45.7064 30.1569V30.0661C45.7064 29.3845 45.2801 29.0058 44.4579 29.0058C43.8337 29.0058 43.3921 29.127 42.8592 29.3239L42.4482 28.0818C43.0876 27.8092 43.7119 27.6123 44.7015 27.6123C46.4982 27.6123 47.2899 28.5362 47.2899 30.0964V33.4438H45.7064V33.4135ZM45.7369 31.0809C45.4628 30.9446 45.0822 30.8688 44.6863 30.8688C43.9859 30.8688 43.5444 31.1415 43.5444 31.6716V31.6867C43.5444 32.126 43.9098 32.3835 44.4427 32.3835C45.204 32.3835 45.7216 31.9594 45.7216 31.3687V31.0809H45.7369Z" fill="#001689"/>
<path d="M51.951 33.4135V30.2024C51.951 29.4299 51.5856 29.0361 50.9613 29.0361C50.3371 29.0361 49.9412 29.4299 49.9412 30.2024V33.4135H48.2969V27.6426H49.9412V28.4606C50.3219 27.9759 50.8091 27.5366 51.6313 27.5366C52.8798 27.5366 53.5954 28.3545 53.5954 29.6723V33.3984H51.951V33.4135Z" fill="#001689"/>
<path d="M57.3272 33.5347C55.5914 33.5347 54.3125 32.2018 54.3125 30.5508V30.5357C54.3125 28.8847 55.5762 27.5366 57.3576 27.5366C58.4539 27.5366 59.1238 27.9001 59.6719 28.506L58.667 29.5814C58.3016 29.1876 57.9362 28.9453 57.3424 28.9453C56.5202 28.9453 55.9416 29.6723 55.9416 30.5205V30.5357C55.9416 31.4142 56.5202 32.1261 57.4185 32.1261C57.9666 32.1261 58.3473 31.8837 58.7431 31.5202L59.7023 32.4896C59.1238 33.0954 58.4843 33.5347 57.3272 33.5347Z" fill="#001689"/>
<path d="M63.9979 33.4133V30.2023C63.9979 29.4298 63.6325 29.036 63.0082 29.036C62.384 29.036 61.9881 29.4298 61.9881 30.2023V33.4133H60.3438V25.5522H61.9881V28.4604C62.3688 27.9757 62.856 27.5365 63.6782 27.5365C64.9266 27.5365 65.6422 28.3544 65.6422 29.6721V33.3982L63.9979 33.4133Z" fill="#001689"/>
<path d="M66.6562 27.0063V25.5522H68.392V27.0063H66.6562ZM66.7019 33.4133V27.6425H68.3463V33.4133H66.7019Z" fill="#001689"/>
<path d="M28.3257 39.7446C27.0772 39.7446 26.1484 38.7903 26.1484 37.5635V37.5483C26.1484 36.3517 27.062 35.3521 28.3714 35.3521C29.1783 35.3521 29.6503 35.6247 30.0462 36.0034L29.4524 36.685C29.1174 36.382 28.7825 36.2003 28.3714 36.2003C27.6558 36.2003 27.1381 36.791 27.1381 37.518V37.5332C27.1381 38.2602 27.6405 38.8661 28.3714 38.8661C28.8586 38.8661 29.1479 38.6692 29.4828 38.3662L30.0766 38.9721C29.6351 39.4568 29.1479 39.7446 28.3257 39.7446Z" fill="#FF9012"/>
<path d="M34.245 39.6688L33.3315 38.3207H32.6006V39.6688H31.6719V35.4429H33.6207C34.6256 35.4429 35.2194 35.973 35.2194 36.8364V36.8515C35.2194 37.5331 34.854 37.9572 34.3059 38.1693L35.3412 39.6839L34.245 39.6688ZM34.2602 36.8818C34.2602 36.488 33.9862 36.2759 33.5294 36.2759H32.6006V37.4877H33.5446C34.0014 37.4877 34.2602 37.2453 34.2602 36.8818Z" fill="#FF9012"/>
<path d="M36.9141 39.6688V35.4429H40.1267V36.2759H37.8428V37.1393H39.8526V37.9724H37.8428V38.866H40.1571V39.6991H36.9141V39.6688Z" fill="#FF9012"/>
<path d="M43.4877 39.6688H41.8281V35.4429H43.4877C44.8276 35.4429 45.7411 36.3517 45.7411 37.5483V37.5634C45.7563 38.7448 44.8276 39.6688 43.4877 39.6688ZM44.7667 37.5483C44.7667 36.7909 44.249 36.2759 43.4877 36.2759H42.7569V38.8206H43.4877C44.249 38.8357 44.7667 38.3207 44.7667 37.5483Z" fill="#FF9012"/>
<path d="M47.4766 39.6688V35.4429H48.4053V39.6688H47.4766Z" fill="#FF9012"/>
<path d="M52.262 36.2911V39.6688H51.3332V36.2911H50.0391V35.4277H53.5714V36.2911H52.262Z" fill="#FF9012"/>
<path d="M34.3379 3.28662L40.2302 4.61952C40.2302 4.61952 33.6223 14.4951 42.6054 26.3549C42.6054 26.3701 26.8317 18.8422 34.3379 3.28662Z" fill="#FF9012"/>
<path d="M42.0851 7.75488L45.7393 9.54219C45.7393 9.54219 39.5272 13.9347 45.0998 25.2341C45.0998 25.219 35.6752 16.6762 42.0851 7.75488Z" fill="#001689"/>
<path d="M31.1832 13.9346C31.1832 13.9346 32.1119 20.5082 37.4409 25.2188L30.4219 21.8411L31.1832 13.9346Z" fill="#001689"/>
<path d="M17.2812 41.9712H17.5096V43.6828H17.2812V41.9712Z" fill="#001689"/>
<path d="M19.234 41.9712H19.5385L20.4825 43.3798V41.9712H20.7109V43.6828H20.4063L19.4471 42.2741V43.6828H19.2188L19.234 41.9712Z" fill="#001689"/>
<path d="M22.1953 41.9712H22.4694L22.9718 43.3647L23.5047 41.9712H23.7635L23.0784 43.6828H22.8652L22.1953 41.9712Z" fill="#001689"/>
<path d="M25.2422 41.9712H26.3537V42.1832H25.4706V42.6982H26.2928V42.9103H25.4706V43.4556H26.3993V43.6676H25.2422V41.9712Z" fill="#001689"/>
<path d="M28.0421 43.3193C28.0878 43.3799 28.1334 43.4253 28.2096 43.4556C28.2705 43.4859 28.3466 43.501 28.4075 43.501C28.4532 43.501 28.4836 43.501 28.5293 43.4859C28.575 43.4707 28.6054 43.4556 28.6359 43.4253C28.6663 43.395 28.6968 43.3647 28.712 43.3344C28.7272 43.3041 28.7425 43.2587 28.7425 43.2133C28.7425 43.1527 28.7272 43.0921 28.6816 43.0618C28.6359 43.0315 28.5902 43.0012 28.5293 42.9709C28.4684 42.9406 28.3923 42.9255 28.3314 42.9103C28.2705 42.8952 28.1943 42.8649 28.1334 42.8194C28.0725 42.774 28.0116 42.7286 27.9812 42.668C27.9355 42.6074 27.9203 42.5165 27.9203 42.3953C27.9203 42.3499 27.9355 42.2893 27.9507 42.2287C27.966 42.1681 28.0116 42.1227 28.0573 42.0773C28.103 42.0318 28.1639 41.9864 28.24 41.9561C28.3161 41.9258 28.4075 41.9106 28.5141 41.9106C28.6054 41.9106 28.6968 41.9258 28.7881 41.9561C28.8795 41.9864 28.9556 42.0318 29.0165 42.1075L28.8338 42.2742C28.8034 42.2287 28.7577 42.1984 28.712 42.1681C28.6511 42.1378 28.5902 42.1227 28.5293 42.1227C28.4684 42.1227 28.4075 42.1378 28.3618 42.153C28.3161 42.1681 28.2857 42.1984 28.2552 42.2136C28.2248 42.2439 28.2096 42.2742 28.1943 42.3045C28.1791 42.3347 28.1791 42.365 28.1791 42.3953C28.1791 42.4711 28.1943 42.5165 28.24 42.5619C28.2857 42.6074 28.3314 42.6377 28.3923 42.6528C28.4532 42.6831 28.5293 42.6983 28.5902 42.7134C28.6511 42.7286 28.7272 42.7589 28.7881 42.7891C28.849 42.8194 28.9099 42.8649 28.9404 42.9255C28.9861 42.9861 29.0013 43.0618 29.0013 43.1678C29.0013 43.2435 28.9861 43.3193 28.9556 43.395C28.9252 43.4556 28.8795 43.5162 28.8338 43.5616C28.7729 43.6071 28.712 43.6374 28.6511 43.6677C28.575 43.6979 28.4988 43.6979 28.4227 43.6979C28.3161 43.6979 28.2096 43.6828 28.103 43.6374C27.9964 43.5919 27.9203 43.5313 27.8594 43.4556L28.0421 43.3193Z" fill="#001689"/>
<path d="M30.97 42.1832H30.4219V41.9712H31.7617V42.1832H31.2136V43.6828H30.9852V42.1832H30.97Z" fill="#001689"/>
<path d="M34.078 43.7283C33.941 43.7283 33.8192 43.698 33.7126 43.6525C33.606 43.6071 33.5147 43.5465 33.4233 43.4556C33.3472 43.3799 33.2863 43.2739 33.2406 43.1678C33.1949 43.0618 33.1797 42.9406 33.1797 42.8043C33.1797 42.6831 33.1949 42.562 33.2406 42.4408C33.2863 42.3348 33.3472 42.2287 33.4233 42.153C33.4994 42.0773 33.5908 42.0015 33.7126 41.9561C33.8192 41.9107 33.941 41.8804 34.078 41.8804C34.215 41.8804 34.3368 41.9107 34.4434 41.9561C34.55 42.0015 34.6413 42.0621 34.7327 42.153C34.8088 42.2287 34.8697 42.3348 34.9154 42.4408C34.9611 42.5468 34.9763 42.668 34.9763 42.8043C34.9763 42.9255 34.9611 43.0467 34.9154 43.1678C34.8697 43.2739 34.8088 43.3799 34.7327 43.4556C34.6566 43.5314 34.5652 43.6071 34.4434 43.6525C34.3216 43.698 34.1998 43.7283 34.078 43.7283ZM34.078 43.5011C34.1846 43.5011 34.2607 43.4859 34.3521 43.4405C34.4282 43.4102 34.5043 43.3496 34.55 43.289C34.5957 43.2284 34.6566 43.1527 34.687 43.077C34.7175 43.0012 34.7327 42.9103 34.7327 42.8043C34.7327 42.6983 34.7175 42.6226 34.687 42.5317C34.6566 42.4559 34.6109 42.3802 34.55 42.3196C34.4891 42.259 34.4282 42.2136 34.3521 42.1682C34.2759 42.1379 34.1846 42.1076 34.078 42.1076C33.9714 42.1076 33.8953 42.1227 33.8039 42.1682C33.7278 42.1984 33.6517 42.259 33.606 42.3196C33.5451 42.3802 33.4994 42.4559 33.469 42.5317C33.4385 42.6074 33.4233 42.6983 33.4233 42.8043C33.4233 42.9103 33.4385 42.9861 33.469 43.077C33.4994 43.1527 33.5451 43.2284 33.606 43.289C33.6669 43.3496 33.7278 43.395 33.8039 43.4405C33.8801 43.4859 33.9714 43.5011 34.078 43.5011Z" fill="#001689"/>
<path d="M36.5703 41.9712H37.1793C37.2859 41.9712 37.3773 41.9863 37.4534 42.0166C37.5295 42.0469 37.5752 42.0772 37.6209 42.1378C37.6666 42.1832 37.697 42.2287 37.7122 42.2893C37.7275 42.3499 37.7427 42.3953 37.7427 42.4559C37.7427 42.5165 37.7275 42.5619 37.7122 42.6073C37.697 42.6528 37.6666 42.6982 37.6209 42.7437C37.5752 42.7891 37.5447 42.8194 37.4838 42.8497C37.4382 42.88 37.3773 42.8951 37.3011 42.8951L37.7884 43.6828H37.4991L37.0575 42.9254H36.8139V43.6828H36.5855L36.5703 41.9712ZM36.8139 42.7285H37.1184C37.1641 42.7285 37.2098 42.7285 37.2555 42.7134C37.3011 42.7134 37.3468 42.6982 37.3773 42.6679C37.4077 42.6376 37.4382 42.6225 37.4686 42.5771C37.4838 42.5468 37.4991 42.4862 37.4991 42.4407C37.4991 42.3802 37.4838 42.3347 37.4686 42.3044C37.4534 42.2741 37.4229 42.2438 37.3773 42.2135C37.3316 42.1832 37.3011 42.1832 37.2555 42.1681C37.2098 42.1681 37.1641 42.1529 37.1184 42.1529H36.8139V42.7285Z" fill="#001689"/>
<path d="M41.2734 41.9712H41.5018V43.6828H41.2734V41.9712Z" fill="#001689"/>
<path d="M43.2109 41.9712H43.5154L44.4594 43.3798V41.9712H44.6878V43.6828H44.3833L43.4241 42.2741V43.6828H43.2109V41.9712Z" fill="#001689"/>
<path d="M48.375 41.9712H48.984C49.0906 41.9712 49.182 41.9863 49.2581 42.0166C49.3342 42.0469 49.3799 42.0772 49.4256 42.1378C49.4712 42.1832 49.5017 42.2287 49.5169 42.2893C49.5321 42.3499 49.5474 42.3953 49.5474 42.4559C49.5474 42.5165 49.5321 42.5619 49.5169 42.6225C49.5017 42.6831 49.4712 42.7285 49.4256 42.774C49.3799 42.8194 49.3342 42.8648 49.2581 42.8951C49.182 42.9254 49.0906 42.9406 48.984 42.9406H48.6186V43.6979H48.3902L48.375 41.9712ZM48.6034 42.7285H48.9079C48.9536 42.7285 48.9992 42.7285 49.0449 42.7134C49.0906 42.7134 49.1363 42.6982 49.1667 42.6679C49.1972 42.6376 49.2276 42.6225 49.2581 42.5771C49.2733 42.5468 49.2885 42.4862 49.2885 42.4407C49.2885 42.3802 49.2733 42.3347 49.2581 42.3044C49.2429 42.2741 49.2124 42.2438 49.1667 42.2135C49.121 42.1832 49.0906 42.1832 49.0449 42.1681C48.9992 42.1681 48.9536 42.1529 48.9079 42.1529H48.6034V42.7285Z" fill="#001689"/>
<path d="M51.0781 41.9712H52.1896V42.1832H51.3065V42.6982H52.1287V42.9103H51.3065V43.4556H52.2353V43.6676H51.0781V41.9712Z" fill="#001689"/>
<path d="M54.6327 43.7283C54.4957 43.7283 54.3738 43.698 54.2673 43.6525C54.1607 43.6071 54.0693 43.5465 53.978 43.4556C53.9019 43.3799 53.841 43.2739 53.7953 43.1678C53.7496 43.0618 53.7344 42.9406 53.7344 42.8043C53.7344 42.6831 53.7496 42.562 53.7953 42.4408C53.841 42.3348 53.9019 42.2287 53.978 42.153C54.0541 42.0773 54.1455 42.0015 54.2673 41.9561C54.3738 41.9107 54.4957 41.8804 54.6327 41.8804C54.7697 41.8804 54.8915 41.9107 54.9981 41.9561C55.1047 42.0015 55.196 42.0621 55.2874 42.153C55.3635 42.2287 55.4244 42.3348 55.4701 42.4408C55.5158 42.5468 55.531 42.668 55.531 42.8043C55.531 42.9255 55.5158 43.0467 55.4701 43.1678C55.4244 43.2739 55.3635 43.3799 55.2874 43.4556C55.2113 43.5314 55.1199 43.6071 54.9981 43.6525C54.8763 43.698 54.7545 43.7283 54.6327 43.7283ZM54.6327 43.5011C54.7393 43.5011 54.8154 43.4859 54.9067 43.4405C54.9829 43.4102 55.059 43.3496 55.1047 43.289C55.1504 43.2284 55.2113 43.1527 55.2417 43.077C55.2722 43.0012 55.2874 42.9103 55.2874 42.8043C55.2874 42.6983 55.2722 42.6226 55.2417 42.5317C55.2113 42.4559 55.1656 42.3802 55.1047 42.3196C55.0438 42.259 54.9829 42.2136 54.9067 42.1682C54.8306 42.1379 54.7393 42.1076 54.6327 42.1076C54.5261 42.1076 54.45 42.1227 54.3586 42.1682C54.2825 42.1984 54.2064 42.259 54.1607 42.3196C54.0998 42.3802 54.0541 42.4559 54.0237 42.5317C53.9932 42.6074 53.978 42.6983 53.978 42.8043C53.978 42.9103 53.9932 42.9861 54.0237 43.077C54.0541 43.1527 54.0998 43.2284 54.1607 43.289C54.2216 43.3496 54.2825 43.395 54.3586 43.4405C54.4348 43.4859 54.5261 43.5011 54.6327 43.5011Z" fill="#001689"/>
<path d="M57.125 41.9712H57.734C57.8406 41.9712 57.932 41.9863 58.0081 42.0166C58.0842 42.0469 58.1299 42.0772 58.1756 42.1378C58.2212 42.1832 58.2517 42.2287 58.2669 42.2893C58.2821 42.3499 58.2974 42.3953 58.2974 42.4559C58.2974 42.5165 58.2821 42.5619 58.2669 42.6225C58.2517 42.6831 58.2212 42.7285 58.1756 42.774C58.1299 42.8194 58.0842 42.8648 58.0081 42.8951C57.932 42.9254 57.8406 42.9406 57.734 42.9406H57.3686V43.6979H57.1402L57.125 41.9712ZM57.3534 42.7285H57.6579C57.7036 42.7285 57.7492 42.7285 57.7949 42.7134C57.8406 42.7134 57.8863 42.6982 57.9167 42.6679C57.9472 42.6376 57.9776 42.6225 58.0081 42.5771C58.0233 42.5468 58.0385 42.4862 58.0385 42.4407C58.0385 42.3802 58.0233 42.3347 58.0081 42.3044C57.9929 42.2741 57.9624 42.2438 57.9167 42.2135C57.871 42.1832 57.8406 42.1832 57.7949 42.1681C57.7492 42.1681 57.7036 42.1529 57.6579 42.1529H57.3534V42.7285Z" fill="#001689"/>
<path d="M59.8359 41.9712H60.0643V43.4707H60.8561V43.6828H59.8359V41.9712Z" fill="#001689"/>
<path d="M62.3672 41.9712H63.4787V42.1832H62.5956V42.6982H63.4178V42.9103H62.5956V43.4556H63.5243V43.6676H62.3672V41.9712Z" fill="#001689"/>
</g>
<defs>
<clipPath id="clip0_5327_18473">
<rect width="81" height="47" fill="white"/>
</clipPath>
</defs>
</svg>
