<svg width="100" height="30" viewBox="0 0 100 30" fill="none" xmlns="http://www.w3.org/2000/svg">
<mask id="mask0_2619_61290" style="mask-type:luminance" maskUnits="userSpaceOnUse" x="0" y="0" width="100" height="30">
<path d="M99.7151 0H0.484375V30H99.7151V0Z" fill="white"/>
</mask>
<g mask="url(#mask0_2619_61290)">
<path d="M9.84516 22.8472L9.06162 29.8228C9.05762 29.8508 9.04786 29.8777 9.03286 29.9016C9.01801 29.9256 8.99816 29.9464 8.9747 29.9626C8.95116 29.9787 8.92455 29.9899 8.89655 29.9957C8.86847 30.0013 8.83955 30.001 8.81147 29.9952L2.7096 28.5261C2.02399 28.3629 1.42199 27.96 1.01564 27.3922C0.609279 26.8246 0.42624 26.131 0.500585 25.4405L0.550601 24.9891C0.691989 24.3812 1.0385 23.8386 1.53356 23.4496C2.02863 23.0604 2.64302 22.8482 3.27644 22.8472H9.84516Z" fill="#95B3EF"/>
<path d="M21.719 12.4577C21.3889 15.3646 19.9822 18.0497 17.7676 19.9997C15.5532 21.9498 12.6864 23.0278 9.71532 23.0279H3.28834C2.65567 23.0269 2.04141 23.2376 1.5462 23.6252C1.05097 24.0129 0.704144 24.5546 0.5625 25.1617L1.64617 15.5188H9.14847C9.71471 15.5199 10.2756 15.4109 10.799 15.1981C11.3224 14.9852 11.7979 14.6727 12.1983 14.2785C12.5987 13.8843 12.9162 13.4162 13.1324 12.9009C13.3485 12.3856 13.4592 11.8335 13.4581 11.2759C13.4581 10.7192 13.3466 10.1678 13.1299 9.65354C12.9132 9.13923 12.5956 8.672 12.1954 8.27869C11.7951 7.88538 11.3199 7.57365 10.7971 7.36131C10.2742 7.14898 9.71401 7.04026 9.14847 7.04133H2.62147L3.37171 0.221583C3.37791 0.160642 3.407 0.104174 3.45324 0.063201C3.49946 0.0222288 3.55957 -0.000303833 3.62177 3.09481e-06H10.4072C12.0091 0.00059979 13.5929 0.333936 15.055 0.978231C16.5171 1.62253 17.8246 2.56329 18.8922 3.73903C19.9599 4.91479 20.7635 6.29908 21.2506 7.80146C21.7376 9.30385 21.8973 10.8905 21.719 12.4577Z" fill="#1E5AE8"/>
<path d="M8.58865 13.2539C9.71203 13.2539 10.6226 12.3573 10.6226 11.2514C10.6226 10.1456 9.71203 9.24902 8.58865 9.24902C7.46533 9.24902 6.55469 10.1456 6.55469 11.2514C6.55469 12.3573 7.46533 13.2539 8.58865 13.2539Z" fill="#1E5AE8"/>
<path d="M13.4651 12.1131C13.3873 13.1459 12.9483 14.1203 12.2231 14.8706C11.82 15.2695 11.3407 15.5858 10.8127 15.8014C10.2848 16.0169 9.71865 16.1272 9.14711 16.1261H1.57812L1.64482 15.5189H9.14711C10.2133 15.5182 11.2413 15.1287 12.0326 14.4254C12.824 13.7221 13.3225 12.755 13.4318 11.7109C13.4515 11.8442 13.4626 11.9785 13.4651 12.1131Z" fill="#234C9E"/>
<path d="M30.8906 17.1128H32.7815V13.0974C33.219 13.882 34.1567 14.5128 35.4536 14.5128C37.5633 14.5128 39.0791 12.9436 39.0791 10.3589V10.2358C39.0791 7.63588 37.5008 6.14355 35.4536 6.14355C34.2504 6.14355 33.2346 6.83586 32.7815 7.60513V6.31279H30.8906V17.1128ZM34.9849 13.0359C33.6097 13.0359 32.719 12.1897 32.719 10.3897V10.2666C32.719 8.48202 33.6566 7.60513 34.9692 7.60513C36.2038 7.60513 37.1414 8.48202 37.1414 10.2666V10.3897C37.1414 12.1128 36.3757 13.0359 34.9849 13.0359ZM44.3738 14.5128C46.4679 14.5128 47.8585 13.5897 48.1242 11.8974H46.2959C46.1552 12.682 45.5615 13.1282 44.4206 13.1282C43.0142 13.1282 42.2329 12.2666 42.1704 10.7436H48.1555V10.2051C48.1555 7.32817 46.3272 6.14355 44.2956 6.14355C41.9672 6.14355 40.2327 7.8051 40.2327 10.2974V10.4205C40.2327 12.9589 41.9672 14.5128 44.3738 14.5128ZM42.2016 9.49741C42.3892 8.25125 43.1549 7.4974 44.2956 7.4974C45.4677 7.4974 46.1865 8.11279 46.2802 9.49741H42.2016ZM52.7178 14.5128C54.8118 14.5128 55.9838 13.5743 55.9838 11.9436C55.9838 10.2358 54.843 9.77433 52.9209 9.48202C51.6239 9.26664 51.2332 9.03579 51.2332 8.45125C51.2332 7.88202 51.7176 7.4974 52.5302 7.4974C53.4053 7.4974 53.8273 7.83579 53.9836 8.57433H55.7337C55.5306 6.75894 54.2023 6.14355 52.5302 6.14355C50.9989 6.14355 49.4674 6.94355 49.4674 8.55887C49.4674 10.0666 50.2644 10.6666 52.4209 11.0051C53.6241 11.2051 54.1711 11.4513 54.1711 12.1128C54.1711 12.7897 53.7179 13.1436 52.7022 13.1436C51.5926 13.1436 51.1707 12.6666 51.0769 11.8513H49.2955C49.3736 13.5589 50.6082 14.5128 52.7178 14.5128ZM59.7835 14.5128C61.0336 14.5128 61.7525 14.0666 62.2838 13.3743V14.3589H64.1434V9.08202C64.1434 6.88202 62.7056 6.14355 60.8773 6.14355C59.049 6.14355 57.5332 6.92817 57.3769 8.8051H59.2053C59.299 8.0051 59.7835 7.54355 60.7679 7.54355C61.8775 7.54355 62.2525 8.08202 62.2525 9.15887V9.57433H61.2367C58.8927 9.57433 57.0488 10.2513 57.0488 12.1282C57.0488 13.8051 58.2832 14.5128 59.7835 14.5128ZM60.2366 13.1743C59.299 13.1743 58.924 12.7282 58.924 12.0513C58.924 11.0666 59.846 10.7436 61.2836 10.7436H62.2525V11.5436C62.2525 12.5743 61.393 13.1743 60.2366 13.1743ZM66.3106 17.1128H68.2014V13.0974C68.639 13.882 69.5766 14.5128 70.8736 14.5128C72.9832 14.5128 74.4991 12.9436 74.4991 10.3589V10.2358C74.4991 7.63588 72.9207 6.14355 70.8736 6.14355C69.6704 6.14355 68.6546 6.83586 68.2014 7.60513V6.31279H66.3106V17.1128ZM70.4049 13.0359C69.0297 13.0359 68.1389 12.1897 68.1389 10.3897V10.2666C68.1389 8.48202 69.0765 7.60513 70.3892 7.60513C71.6237 7.60513 72.5613 8.48202 72.5613 10.2666V10.3897C72.5613 12.1128 71.7955 13.0359 70.4049 13.0359ZM79.7934 14.5128C81.888 14.5128 83.2788 13.5897 83.5442 11.8974H81.7157C81.5749 12.682 80.9811 13.1282 79.8411 13.1282C78.4342 13.1282 77.6526 12.2666 77.5903 10.7436H83.5757V10.2051C83.5757 7.32817 81.7472 6.14355 79.7157 6.14355C77.3872 6.14355 75.6525 7.8051 75.6525 10.2974V10.4205C75.6525 12.9589 77.3872 14.5128 79.7934 14.5128ZM77.6219 9.49741C77.8088 8.25125 78.5749 7.4974 79.7157 7.4974C80.8872 7.4974 81.6065 8.11279 81.7003 9.49741H77.6219ZM88.8588 14.5128C90.9526 14.5128 92.3434 13.5897 92.6096 11.8974H90.7803C90.6396 12.682 90.0457 13.1282 88.9057 13.1282C87.4988 13.1282 86.718 12.2666 86.6557 10.7436H92.6403V10.2051C92.6403 7.32817 90.8119 6.14355 88.7811 6.14355C86.4519 6.14355 84.7172 7.8051 84.7172 10.2974V10.4205C84.7172 12.9589 86.4519 14.5128 88.8588 14.5128ZM86.6865 9.49741C86.8742 8.25125 87.6395 7.4974 88.7811 7.4974C89.9526 7.4974 90.6711 8.11279 90.7657 9.49741H86.6865ZM94.3296 14.3589H96.2203V10.1743C96.2203 8.46664 97.2196 7.94356 98.8765 7.92818V6.18972C97.5011 6.20509 96.7357 6.80509 96.2203 7.82049V6.31279H94.3296V14.3589Z" fill="#1E5AE8"/>
</g>
</svg>
