<svg width="111" height="20" viewBox="0 0 111 20" fill="none" xmlns="http://www.w3.org/2000/svg">
<g clip-path="url(#clip0_2654_63785)">
<path d="M39.4295 5.50169L41.938 11.791L44.4471 5.50169C44.4627 5.46565 44.4883 5.43489 44.5209 5.41308C44.5534 5.39127 44.5915 5.37933 44.6306 5.37867H46.3033C46.3188 5.37952 46.334 5.38393 46.3476 5.39157C46.3612 5.39921 46.3727 5.40986 46.3816 5.42273C46.3905 5.4356 46.3964 5.45033 46.3987 5.46581C46.401 5.48128 46.3998 5.49709 46.3951 5.51201L42.7031 14.644C42.6892 14.6792 42.6654 14.7097 42.6346 14.7315C42.6039 14.7533 42.5674 14.7657 42.5297 14.7671H41.5099C41.4722 14.7657 41.4357 14.7533 41.405 14.7315C41.3742 14.7097 41.3504 14.6792 41.3366 14.644L38.746 8.18064L36.1657 14.6443C36.1545 14.6812 36.1313 14.7133 36.0999 14.7356C36.0685 14.7579 36.0308 14.7691 35.9924 14.7673H34.9727C34.9348 14.7674 34.8977 14.7556 34.8667 14.7336C34.8356 14.7115 34.8121 14.6803 34.7994 14.6443L31.0564 5.51287C31.0495 5.49885 31.0463 5.48329 31.047 5.46766C31.0477 5.45202 31.0523 5.43682 31.0605 5.42349C31.0687 5.41016 31.08 5.39913 31.0936 5.39144C31.1071 5.38375 31.1224 5.37965 31.1379 5.37953H32.8197C32.8574 5.38087 32.8939 5.39323 32.9246 5.41507C32.9554 5.43692 32.9792 5.46732 32.9931 5.50255L35.5015 11.7919L38.022 5.50169C38.0347 5.46566 38.0581 5.43448 38.0892 5.41245C38.1202 5.39041 38.1573 5.37861 38.1953 5.37867H39.2152C39.2593 5.37289 39.3041 5.38178 39.3428 5.40399C39.3814 5.4262 39.4121 5.46051 39.4295 5.50169Z" fill="#49A747"/>
<path d="M52.2673 5.18472C52.9089 5.16789 53.5471 5.2828 54.143 5.52242C54.7389 5.76204 55.28 6.12134 55.7332 6.57838C56.1865 7.03541 56.5423 7.5806 56.7792 8.18064C57.0159 8.78069 57.1286 9.42302 57.1104 10.0684C57.1104 11.3554 56.6021 12.5898 55.6975 13.4999C54.7928 14.4099 53.5659 14.9212 52.2865 14.9212C51.0071 14.9212 49.7801 14.4099 48.8755 13.4999C47.9707 12.5898 47.4625 11.3554 47.4625 10.0684C47.446 9.42669 47.5585 8.78827 47.7935 8.19149C48.0284 7.59471 48.3809 7.05191 48.8297 6.59571C49.2785 6.13951 49.8145 5.77934 50.4053 5.53687C50.996 5.29439 51.6294 5.1746 52.2673 5.18472ZM52.2673 13.1668C52.6635 13.1672 53.0557 13.0869 53.4202 12.9307C53.7847 12.7746 54.114 12.5459 54.3884 12.2583C54.6627 11.9707 54.8763 11.6303 55.0163 11.2574C55.1564 10.8846 55.2201 10.4872 55.2034 10.0889C55.2034 9.30527 54.894 8.55369 54.3431 7.99959C53.7923 7.44545 53.0453 7.13414 52.2663 7.13414C51.4873 7.13414 50.7402 7.44545 50.1893 7.99959C49.6385 8.55369 49.3291 9.30527 49.3291 10.0889C49.3124 10.4874 49.3761 10.885 49.5163 11.258C49.6565 11.6309 49.8703 11.9715 50.1449 12.2591C50.4194 12.5467 50.749 12.7754 51.1139 12.9314C51.4786 13.0874 51.871 13.1674 52.2673 13.1668Z" fill="#49A747"/>
<path d="M64.8349 6.84712C64.8312 6.87284 64.8224 6.89755 64.809 6.9198C64.7956 6.94204 64.778 6.96137 64.7571 6.97665C64.7362 6.99194 64.7125 7.00286 64.6873 7.00879C64.6621 7.01471 64.636 7.01551 64.6106 7.01114C64.4302 6.99939 64.2493 6.99939 64.069 7.01114C63.5514 7.04247 63.05 7.20342 62.61 7.47937C62.1701 7.75532 61.8057 8.13752 61.55 8.59124V14.6032C61.5514 14.6292 61.5475 14.6552 61.5383 14.6796C61.529 14.7039 61.5148 14.726 61.4965 14.7444C61.4782 14.7628 61.4563 14.7772 61.432 14.7864C61.4078 14.7957 61.382 14.7997 61.3561 14.7982H59.8582C59.8324 14.7997 59.8065 14.7957 59.7822 14.7864C59.7581 14.7772 59.7361 14.7628 59.7178 14.7444C59.6995 14.726 59.6852 14.7039 59.676 14.6796C59.6669 14.6552 59.6629 14.6292 59.6644 14.6032V5.57474C59.6629 5.54874 59.6669 5.52272 59.676 5.49839C59.6852 5.47404 59.6995 5.45194 59.7178 5.43353C59.7361 5.41511 59.7581 5.4008 59.7822 5.39154C59.8065 5.38226 59.8324 5.37824 59.8582 5.37974H61.3063C61.3313 5.3797 61.356 5.3848 61.379 5.39472C61.4019 5.40464 61.4226 5.41918 61.4398 5.43744C61.457 5.45569 61.4703 5.47729 61.4789 5.50089C61.4875 5.52451 61.4912 5.54964 61.4898 5.57474V6.45712C61.8207 6.0463 62.2411 5.71779 62.7188 5.49716C63.1963 5.27653 63.7181 5.16972 64.2435 5.18504H64.7941C64.8189 5.1861 64.8431 5.19249 64.8651 5.20377C64.8872 5.21504 64.9066 5.23095 64.922 5.2504C64.9375 5.26985 64.9486 5.29241 64.9547 5.31655C64.9608 5.34069 64.9616 5.36586 64.9572 5.39035L64.8349 6.84712Z" fill="#49A747"/>
<path d="M76.1074 14.7674H73.935C73.8621 14.767 73.7925 14.7375 73.7411 14.6854L69.1929 10.1709V14.5724C69.1943 14.5976 69.1905 14.6227 69.1819 14.6463C69.1734 14.6699 69.16 14.6915 69.1429 14.7097C69.1257 14.728 69.105 14.7426 69.082 14.7525C69.059 14.7624 69.0343 14.7675 69.0093 14.7674H67.4985C67.4471 14.7674 67.3978 14.7469 67.3614 14.7103C67.3251 14.6737 67.3047 14.6242 67.3047 14.5724V0.773062C67.3073 0.722906 67.3291 0.67571 67.3655 0.641306C67.4019 0.606903 67.45 0.587946 67.4999 0.588386H69.0107C69.0594 0.588386 69.1061 0.607843 69.1405 0.642476C69.175 0.67711 69.1943 0.724083 69.1943 0.773062V8.98083L73.0071 5.46166C73.0584 5.41737 73.1232 5.39207 73.1908 5.38997H75.4648C75.485 5.38662 75.5057 5.39012 75.5237 5.39992C75.5416 5.40972 75.5557 5.42527 75.5639 5.44409C75.5721 5.46291 75.5738 5.48394 75.5688 5.50384C75.5638 5.52375 75.5522 5.5414 75.5362 5.554L71.0489 9.65792L76.1482 14.6442C76.1588 14.6659 76.1605 14.691 76.1528 14.7141C76.1452 14.7371 76.1289 14.7564 76.1074 14.7674Z" fill="#49A747"/>
<path d="M79.9212 19.5585H78.4104C78.3855 19.5585 78.3607 19.5534 78.3377 19.5435C78.3148 19.5336 78.294 19.5191 78.2769 19.5008C78.2596 19.4826 78.2464 19.4609 78.2378 19.4373C78.2292 19.4138 78.2255 19.3886 78.2268 19.3635V5.57444C78.2255 5.54933 78.2292 5.52421 78.2378 5.50059C78.2464 5.47698 78.2596 5.45538 78.2769 5.43713C78.294 5.41887 78.3148 5.40434 78.3377 5.39442C78.3607 5.3845 78.3855 5.3794 78.4104 5.37944H79.8585C79.9099 5.37944 79.9592 5.39998 79.9955 5.43656C80.0319 5.47313 80.0524 5.52273 80.0524 5.57444V6.24146C80.8676 5.55196 81.9057 5.18693 82.9708 5.21542C83.771 5.20468 84.5595 5.41016 85.2545 5.81045C85.9934 6.24444 86.6081 6.86413 87.0372 7.60877C87.4663 8.35342 87.6949 9.19742 87.7023 10.0582C87.7098 10.9188 87.4944 11.7666 87.0778 12.5184C86.6611 13.2702 86.0572 13.9002 85.3258 14.3466C84.6092 14.7498 83.8016 14.9615 82.9807 14.9614C81.9488 14.9797 80.9465 14.6144 80.1658 13.9353V19.3635C80.1668 19.3941 80.1608 19.4244 80.148 19.4522C80.1353 19.48 80.1162 19.5043 80.0924 19.5233C80.0685 19.5423 80.0406 19.5553 80.0109 19.5615C79.981 19.5676 79.9506 19.5666 79.9212 19.5585ZM80.1151 11.8733C80.4106 12.279 80.7955 12.6106 81.2395 12.8419C81.6836 13.0733 82.1748 13.1983 82.6748 13.207C83.486 13.207 84.2647 12.8827 84.8379 12.3055C85.4119 11.7282 85.7342 10.9454 85.7342 10.1291C85.7441 9.7275 85.6729 9.32808 85.5262 8.95442C85.3796 8.58083 85.1601 8.24048 84.881 7.95362C84.601 7.66676 84.2671 7.43916 83.8993 7.28428C83.5307 7.12939 83.1348 7.05036 82.7358 7.05185C82.2217 7.05354 81.7148 7.17481 81.255 7.40618C80.7951 7.63754 80.3946 7.97274 80.0848 8.38558L80.1151 11.8733Z" fill="#49A747"/>
<path d="M97.0436 13.9261C96.2426 14.6117 95.2187 14.9769 94.1675 14.9522C93.3458 14.9535 92.5382 14.7414 91.8216 14.3365C91.0894 13.8906 90.4838 13.262 90.063 12.5116C89.6422 11.7613 89.4219 10.9145 89.4219 10.0531C89.4219 9.19172 89.6422 8.34489 90.063 7.59456C90.4838 6.8442 91.0894 6.21566 91.8216 5.76971C92.5158 5.36704 93.3052 5.16139 94.1062 5.17466C95.1699 5.14842 96.207 5.51321 97.0229 6.20071V5.57471C97.0212 5.5496 97.0254 5.52447 97.0337 5.50085C97.0419 5.47725 97.056 5.45565 97.0726 5.43739C97.09 5.41914 97.1107 5.4046 97.1339 5.39468C97.1563 5.38476 97.1811 5.37966 97.2068 5.37971H98.6548C98.7061 5.37971 98.755 5.40025 98.7914 5.43682C98.8279 5.47339 98.8486 5.52299 98.8486 5.57471V14.5725C98.8486 14.6242 98.8279 14.6738 98.7914 14.7104C98.755 14.747 98.7061 14.7675 98.6548 14.7675H97.2267C97.2018 14.7676 97.177 14.7625 97.1538 14.7526C97.1306 14.7426 97.1099 14.7281 97.0933 14.7098C97.0759 14.6916 97.0626 14.67 97.0544 14.6464C97.0453 14.6227 97.0419 14.5976 97.0428 14.5725L97.0436 13.9261ZM96.9823 8.31416C96.6692 7.90159 96.2674 7.56676 95.8052 7.33551C95.3438 7.10425 94.836 6.98277 94.32 6.98042C93.9207 6.97893 93.5256 7.05795 93.1569 7.2128C92.7883 7.36765 92.4545 7.59519 92.1753 7.882C91.8962 8.1688 91.6767 8.50905 91.53 8.88264C91.3834 9.25622 91.3122 9.65555 91.3221 10.0571C91.3221 10.8734 91.6444 11.6563 92.2176 12.2335C92.7916 12.8107 93.5695 13.135 94.3813 13.135C94.8816 13.1402 95.3769 13.0291 95.8284 12.8102C96.279 12.5913 96.6742 12.2706 96.9815 11.8732L96.9823 8.31416Z" fill="#49A747"/>
<path d="M102.273 19.4252L104.741 13.7823L100.815 5.51287C100.807 5.49884 100.805 5.48329 100.805 5.46765C100.806 5.45202 100.81 5.43682 100.819 5.42349C100.827 5.41015 100.838 5.39913 100.852 5.39144C100.865 5.38374 100.88 5.37965 100.896 5.37953H102.599C102.653 5.38005 102.705 5.39572 102.75 5.42472C102.795 5.45373 102.831 5.49491 102.854 5.54355L105.69 11.5656L108.32 5.49194C108.334 5.45779 108.359 5.42875 108.39 5.4086C108.421 5.38845 108.457 5.37812 108.494 5.37895H110.217C110.233 5.37908 110.248 5.38317 110.261 5.39086C110.275 5.39855 110.287 5.40958 110.294 5.42291C110.303 5.43624 110.308 5.45144 110.308 5.46708C110.309 5.48271 110.306 5.49828 110.299 5.51229L104.272 19.4456C104.257 19.4797 104.233 19.5088 104.203 19.529C104.172 19.549 104.136 19.5594 104.098 19.5585H102.364C102.35 19.5578 102.334 19.5534 102.321 19.5458C102.307 19.5381 102.295 19.5275 102.287 19.5146C102.278 19.5018 102.272 19.487 102.269 19.4715C102.267 19.456 102.268 19.4402 102.273 19.4252Z" fill="#49A747"/>
<path d="M24.7882 6.87763L22.1372 4.21072C21.8831 3.95232 21.5805 3.74719 21.2471 3.60719C20.9136 3.46719 20.5558 3.39511 20.1945 3.39511C19.8331 3.39511 19.4754 3.46719 19.1419 3.60719C18.8084 3.74719 18.5059 3.95232 18.2517 4.21072L12.7949 9.6888L7.33874 4.21015C7.08458 3.95175 6.78201 3.74661 6.44854 3.60661C6.11506 3.46661 5.7573 3.39453 5.39596 3.39453C5.03462 3.39453 4.67686 3.46661 4.34338 3.60661C4.00991 3.74661 3.70734 3.95175 3.45319 4.21015L0.802203 6.87706C0.288438 7.39621 0 8.09894 0 8.83146C0 9.56405 0.288438 10.2668 0.802203 10.786L5.90093 15.9161C6.41698 16.433 7.11551 16.7232 7.84371 16.7232C8.57193 16.7232 9.2704 16.433 9.78647 15.9161L12.2342 13.4537L12.7545 12.9304L14.365 11.3099L19.8218 5.83123C19.9098 5.74286 20.029 5.69324 20.1533 5.69324C20.2775 5.69324 20.3968 5.74286 20.4848 5.83123L23.1358 8.49813C23.2236 8.58663 23.273 8.70655 23.273 8.83163C23.273 8.95671 23.2236 9.07663 23.1358 9.16513L18.037 14.2956C17.949 14.384 17.8298 14.4336 17.7055 14.4336C17.5812 14.4336 17.462 14.384 17.374 14.2956L14.3858 11.2895V14.5314L15.7825 15.9781C16.2986 16.495 16.9972 16.7851 17.7253 16.7851C18.4535 16.7851 19.1521 16.495 19.6681 15.9781L24.768 10.8481C25.033 10.5914 25.2441 10.2839 25.389 9.94363C25.5339 9.60338 25.6095 9.23738 25.6114 8.8673C25.6133 8.49713 25.5415 8.13037 25.4002 7.78864C25.2588 7.44691 25.0505 7.13714 24.7882 6.87763ZM8.15456 14.316C8.06659 14.4044 7.94735 14.454 7.82304 14.454C7.69873 14.454 7.57949 14.4044 7.49152 14.316L2.3928 9.18605C2.30496 9.09755 2.25563 8.97763 2.25563 8.85255C2.25563 8.72755 2.30496 8.60755 2.3928 8.51905L5.09537 5.83094C5.18334 5.74258 5.30258 5.69295 5.42689 5.69295C5.5512 5.69295 5.67043 5.74258 5.75841 5.83094L11.2143 11.3099L8.15456 14.316Z" fill="#FCB319"/>
</g>
<defs>
<clipPath id="clip0_2654_63785">
<rect width="111" height="20" fill="white"/>
</clipPath>
</defs>
</svg>
