<svg width="410" height="401" viewBox="0 0 410 401" fill="none" xmlns="http://www.w3.org/2000/svg">
<g clip-path="url(#clip0)">
<path d="M409.084 26.6483V284.179C409.084 289.118 406.966 293.826 403.271 297.1L392.356 306.78L362.827 332.948L352.99 341.661L352.393 342.197L345.294 348.482L340.202 353.001L337.237 355.632L336.104 356.631L332.89 359.48L329.398 362.579L326.526 365.127C326.517 365.127 326.517 365.127 326.517 365.127L326.198 365.409C326.198 365.414 326.189 365.414 326.189 365.414L325.402 366.117L302.648 386.281L293.375 394.5C290.226 397.265 286.184 398.782 281.993 398.782H64.163C54.6266 398.782 46.8984 391.054 46.8984 381.518V26.6483C46.8984 17.1119 54.6266 9.37915 64.163 9.37915H391.815C401.356 9.37915 409.084 17.1119 409.084 26.6483Z" fill="#075865"/>
<path d="M398.468 120.108V260.792C398.468 262.369 397.191 263.645 395.614 263.645H289.391C287.814 263.645 286.537 262.369 286.537 260.792V97.909C286.537 96.2302 287.906 94.8751 289.576 94.8982C303.783 95.0509 363.291 95.6521 372.606 95.0601C373.457 95.0046 374.284 95.3098 374.895 95.9065C379.057 99.9486 393.741 114.244 397.557 117.953C398.139 118.517 398.468 119.294 398.468 120.108Z" fill="#01828A"/>
<path d="M367.318 114.753H301.959C300.466 114.753 299.254 113.541 299.254 112.047V110.262C299.254 108.768 300.466 107.557 301.959 107.557H367.318C368.812 107.557 370.023 108.768 370.023 110.262V112.047C370.023 113.541 368.812 114.753 367.318 114.753Z" fill="#C1E2E8"/>
<path d="M351.686 114.752H325.602C324.108 114.752 322.896 113.54 322.896 112.046V110.261C322.896 108.767 324.108 107.555 325.602 107.555H351.686C353.18 107.555 354.392 108.767 354.392 110.261V112.046C354.392 113.54 353.18 114.752 351.686 114.752Z" fill="#045865"/>
<path d="M327.461 114.753H301.959C300.466 114.753 299.254 113.541 299.254 112.047V110.262C299.254 108.768 300.466 107.557 301.959 107.557H327.461C328.955 107.557 330.166 108.768 330.166 110.262V112.047C330.166 113.541 328.955 114.753 327.461 114.753Z" fill="#013B57"/>
<path d="M326.143 172.301C318.04 172.301 311.69 178.378 311.69 186.371C311.69 194.146 317.548 199.621 324.829 199.621H325.432L317.657 211.063H327.238L335.889 198.143C339.338 193.051 340.488 189.766 340.488 186.317C340.488 178.214 334.082 172.301 326.143 172.301ZM326.089 192.832C322.53 192.832 319.792 190.094 319.792 186.262C319.792 182.429 322.53 179.692 326.089 179.692C329.702 179.692 332.385 182.429 332.385 186.262C332.385 190.094 329.702 192.832 326.089 192.832ZM361.057 197.212C368.668 192.558 371.131 188.78 371.131 183.853C371.131 176.79 366.094 172.301 358.484 172.301C350.381 172.301 344.797 177.393 344.687 186.098H352.845C353.119 181.663 355.309 179.692 358.484 179.692C361.331 179.692 363.028 181.334 363.028 183.908C363.028 186.317 361.66 188.342 355.473 192.175C346.877 197.486 344.742 200.935 344.742 207.122V211.063H370.967V203.672H353.611C354.597 201.647 356.732 199.84 361.057 197.212Z" fill="#C1E2E8"/>
<path d="M318.658 82.138V324.929C318.658 327.648 316.452 329.85 313.737 329.85H130.408C127.688 329.85 125.482 327.648 125.482 324.929V43.8257C125.482 40.9306 127.846 38.5904 130.732 38.6274C155.248 38.8956 257.957 39.9316 274.023 38.9095C275.494 38.817 276.923 39.3396 277.978 40.3663C285.16 47.3452 310.504 72.0142 317.085 78.4104C318.094 79.3908 318.658 80.732 318.658 82.138Z" fill="#3AB3C6"/>
<path opacity="0.24" d="M268.574 270.915L243.595 275.655L245.903 290.344C245.903 290.344 233.49 310.194 220.998 329.849H152.264L152.833 315.845C153.203 306.656 157.138 297.97 163.798 291.63L197.347 259.686C203.452 253.877 211.739 250.931 220.143 251.592L275.151 256.943L268.574 270.915Z" fill="#3C2F4B"/>
<path d="M192.965 154.531C178.438 154.531 167.052 165.426 167.052 179.757C167.052 193.695 177.554 203.511 190.609 203.511H191.689L177.751 224.026H194.928L210.437 200.861C216.621 191.732 218.682 185.843 218.682 179.659C218.682 165.132 207.198 154.531 192.965 154.531ZM192.867 191.34C186.487 191.34 181.579 186.432 181.579 179.561C181.579 172.69 186.487 167.782 192.867 167.782C199.345 167.782 204.155 172.69 204.155 179.561C204.155 186.432 199.345 191.34 192.867 191.34ZM266.058 188.493C272.144 184.959 275.089 179.463 275.089 173.475C275.089 162.678 265.764 154.531 251.335 154.531C237.004 154.531 227.581 162.678 227.581 173.475C227.581 179.463 230.526 184.959 236.611 188.493C230.035 191.929 226.501 198.014 226.501 204.983C226.501 216.566 235.826 224.811 251.335 224.811C266.844 224.811 276.267 216.566 276.267 204.983C276.267 198.014 272.635 191.929 266.058 188.493ZM251.335 166.702C257.224 166.702 260.758 170.138 260.758 174.947C260.758 179.757 257.224 183.193 251.335 183.193C245.544 183.193 241.912 179.757 241.912 174.947C241.912 170.138 245.544 166.702 251.335 166.702ZM251.335 212.64C245.445 212.64 240.93 209.008 240.93 203.707C240.93 198.603 245.347 194.677 251.335 194.677C257.421 194.677 261.739 198.603 261.739 203.707C261.739 209.008 257.224 212.64 251.335 212.64Z" fill="#045865"/>
<path d="M262.142 65.9462H144.36C142.571 65.9462 141.123 64.4986 141.123 62.7088V58.3614C141.123 56.5716 142.571 55.124 144.36 55.124H262.137C263.927 55.124 265.374 56.5716 265.374 58.3614V62.7088C265.379 64.494 263.927 65.9462 262.142 65.9462Z" fill="#C1E2E8"/>
<path d="M234.697 65.9457H185.872C184.082 65.9457 182.635 64.4981 182.635 62.7083V58.3609C182.635 56.5711 184.082 55.1235 185.872 55.1235H234.697C236.487 55.1235 237.934 56.5711 237.934 58.3609V62.7083C237.934 64.4935 236.487 65.9457 234.697 65.9457Z" fill="#045865"/>
<path d="M192.163 65.9462H144.36C142.571 65.9462 141.123 64.4986 141.123 62.7088V58.3614C141.123 56.5716 142.571 55.124 144.36 55.124H192.163C193.953 55.124 195.4 56.5716 195.4 58.3614V62.7088C195.4 64.494 193.953 65.9462 192.163 65.9462Z" fill="#013B57"/>
<path d="M156.999 100.558V287.425C156.999 289.515 155.302 291.213 153.212 291.213H12.112C10.0215 291.213 8.32422 289.515 8.32422 287.425V71.0745C8.32422 68.8454 10.1418 67.0463 12.3617 67.074C18.0225 67.1342 29.099 67.2498 42.1689 67.3562C72.6605 67.6152 113.988 67.8418 122.651 67.2914C123.779 67.2174 124.88 67.6198 125.689 68.4106C131.216 73.7847 150.728 92.7697 155.792 97.6952C156.565 98.449 156.999 99.4757 156.999 100.558Z" fill="#C1E2E8"/>
<path d="M119.924 87.3735H21.2485C19.7547 87.3735 18.543 86.1618 18.543 84.668V82.8828C18.543 81.389 19.7547 80.1772 21.2485 80.1772H119.924C121.418 80.1772 122.63 81.389 122.63 82.8828V84.668C122.63 86.1618 121.418 87.3735 119.924 87.3735Z" fill="#C1E2E8"/>
<path d="M96.9295 87.3735H56.018C54.5242 87.3735 53.3125 86.1618 53.3125 84.668V82.8828C53.3125 81.389 54.5242 80.1772 56.018 80.1772H96.9295C98.4233 80.1772 99.635 81.389 99.635 82.8828V84.668C99.635 86.1618 98.4233 87.3735 96.9295 87.3735Z" fill="#045865"/>
<path d="M61.3043 87.3735H21.2485C19.7547 87.3735 18.543 86.1618 18.543 84.668V82.8828C18.543 81.389 19.7547 80.1772 21.2485 80.1772H61.3043C62.7982 80.1772 64.0099 81.389 64.0099 82.8828V84.668C64.0099 86.1618 62.7982 87.3735 61.3043 87.3735Z" fill="#013B57"/>
<path d="M72.1813 190.042C76.5289 187.517 78.6325 183.59 78.6325 179.313C78.6325 171.599 71.9709 165.779 61.6629 165.779C51.425 165.779 44.6932 171.599 44.6932 179.313C44.6932 183.59 46.7969 187.517 51.1445 190.042C46.4463 192.496 43.9219 196.844 43.9219 201.822C43.9219 210.097 50.5835 215.987 61.6629 215.987C72.7422 215.987 79.474 210.097 79.474 201.822C79.474 196.844 76.8795 192.496 72.1813 190.042ZM61.6629 174.474C65.8702 174.474 68.3947 176.929 68.3947 180.365C68.3947 183.801 65.8702 186.255 61.6629 186.255C57.5257 186.255 54.9311 183.801 54.9311 180.365C54.9311 176.929 57.5257 174.474 61.6629 174.474ZM61.6629 207.292C57.4555 207.292 54.2299 204.697 54.2299 200.911C54.2299 197.264 57.3854 194.459 61.6629 194.459C66.0105 194.459 69.0959 197.264 69.0959 200.911C69.0959 204.697 65.8702 207.292 61.6629 207.292ZM83.8972 175.807H104.794L87.4033 215.426H99.3943L116.294 175.667V166.34H83.8972V175.807Z" fill="#013B57"/>
<path opacity="0.24" d="M114.576 173.922C76.4344 154.225 64.9231 149.332 61.0753 147.274C57.2228 145.216 33.3354 110.575 33.2198 103.467C33.0995 95.9932 32.7851 83.9548 22.6243 85.5041C18.9614 86.0591 13.689 82.6783 8.32422 78.3124V71.0745C8.32422 68.8454 10.1418 67.0463 12.3617 67.074C18.0225 67.1342 29.099 67.2498 42.1689 67.3562C47.7603 76.592 79.866 128.7 103.323 147.274C129.098 167.688 114.576 173.922 114.576 173.922Z" fill="#3C2F4B"/>
<path d="M266.572 274.462C260.712 276.955 243.61 277.519 243.61 277.519L267.275 297.105L275.003 321.594C273.172 323.573 269.148 323.957 266.568 323.989V332.263C266.202 332.346 264.912 332.268 263.765 332.175L263.057 344.917C263.057 344.917 260.754 348.483 258.072 352.386C255.426 356.238 252.402 360.424 250.852 361.821C250.686 361.973 250.538 362.089 250.408 362.172C247.828 363.8 243.143 363.333 242.911 362.639C242.676 361.936 242.911 378.96 240.1 389.218C239.327 392.026 237.63 395.365 235.475 398.782H166.12C169.691 390.018 171.42 379.825 170.995 372.897C170.445 364.004 168.479 357.94 166.971 352.386C166.541 350.804 166.148 349.264 165.838 347.71C165.76 347.326 165.695 346.855 165.63 346.304C165.626 346.226 165.616 346.142 165.607 346.059C165.496 344.954 165.413 343.557 165.353 341.957C165.339 341.684 165.33 341.402 165.32 341.115C165.311 340.754 165.302 340.389 165.288 340.019C165.279 339.575 165.269 339.127 165.26 338.664C165.256 338.4 165.251 338.132 165.246 337.864C165.246 337.61 165.242 337.351 165.237 337.092C165.232 336.555 165.228 336.009 165.223 335.454C165.223 335.084 165.219 334.714 165.219 334.335C165.205 329.752 165.274 324.66 165.371 319.961C165.468 315.364 165.589 311.142 165.686 308.145C165.778 305.263 167.022 302.544 169.14 300.583L210.944 261.896C212.938 260.055 215.523 258.982 218.238 258.876L275.151 256.638C276.682 256.578 277.875 257.951 277.584 259.445C276.631 264.264 273.2 271.636 266.572 274.462Z" fill="#D76E6D"/>
<path d="M186.451 296.408C186.451 296.408 215.315 275.651 219.718 275.651C220.888 275.651 243.614 277.515 243.614 277.515" stroke="#3C2F4B" stroke-width="3.2374" stroke-miterlimit="10" stroke-linecap="round" stroke-linejoin="round"/>
<path d="M194.414 305.037L227.681 290.344H243.609L265.396 312.497L265.863 318.99" stroke="#3C2F4B" stroke-width="3.2374" stroke-miterlimit="10" stroke-linecap="round" stroke-linejoin="round"/>
<path d="M212.002 317.982C212.002 317.982 248.737 311.78 249.167 312.423C249.597 313.066 264.254 323.841 264.254 323.841L263.107 344.075" stroke="#3C2F4B" stroke-width="3.2374" stroke-miterlimit="10" stroke-linecap="round" stroke-linejoin="round"/>
<path d="M242.904 362.635C242.904 362.635 233.233 354.231 241.244 344.168C241.244 344.168 247.27 338.414 256.469 344.288" stroke="#3C2F4B" stroke-width="3.2374" stroke-miterlimit="10" stroke-linecap="round" stroke-linejoin="round"/>
<path d="M235.336 331.228C235.336 331.228 243.61 345.213 254.247 331.228" stroke="#3C2F4B" stroke-width="3.2374" stroke-miterlimit="10" stroke-linecap="round" stroke-linejoin="round"/>
<path d="M246.366 337.443C246.366 337.443 245.182 340.121 246.366 341.818" stroke="#3C2F4B" stroke-width="3.2374" stroke-miterlimit="10" stroke-linecap="round" stroke-linejoin="round"/>
<path d="M241.773 337.443C241.773 337.443 242.166 345.347 231.529 350.702" stroke="#3C2F4B" stroke-width="3.2374" stroke-miterlimit="10" stroke-linecap="round" stroke-linejoin="round"/>
<path d="M173.367 309.583C173.367 309.583 171.073 314.551 171.531 318.204" stroke="#3C2F4B" stroke-width="3.2374" stroke-miterlimit="10" stroke-linecap="round" stroke-linejoin="round"/>
<path d="M183.231 313.894C183.231 313.894 178.87 320.036 180.248 331.228" stroke="#3C2F4B" stroke-width="3.2374" stroke-miterlimit="10" stroke-linecap="round" stroke-linejoin="round"/>
<path d="M197.685 322.561C197.685 322.561 192.177 327.398 191.719 334.335C191.261 341.273 191.719 341.818 191.719 341.818" stroke="#3C2F4B" stroke-width="3.2374" stroke-miterlimit="10" stroke-linecap="round" stroke-linejoin="round"/>
<path d="M216.273 357.719C216.273 357.719 223.155 353.608 229.579 357.719" stroke="#3C2F4B" stroke-width="3.2374" stroke-miterlimit="10" stroke-linecap="round" stroke-linejoin="round"/>
<path d="M271.434 265.378C271.434 265.378 275.212 263.829 275.143 256.633L255.645 257.401C255.645 257.405 259.321 264.749 271.434 265.378Z" fill="white"/>
<path d="M234.346 258.242L264.564 257.054" stroke="#3C2F4B" stroke-width="3.2374" stroke-miterlimit="10" stroke-linecap="round" stroke-linejoin="round"/>
<path d="M255.645 257.406C255.645 257.406 259.418 263.094 265.856 264.519" stroke="#3C2F4B" stroke-width="3.2374" stroke-miterlimit="10" stroke-linecap="round" stroke-linejoin="round"/>
<path d="M258.07 352.387C255.425 356.239 252.4 360.425 250.851 361.821C249.26 359.967 248.529 357.719 248.529 357.719C251.096 354.116 255.406 352.84 258.07 352.387Z" fill="white"/>
<path d="M32.0658 9.12542C30.7894 10.0735 29.6655 11.2945 28.7776 12.7975L28.6111 13.0797L13.7376 38.3082C11.0968 42.7805 11.5407 48.4274 14.8383 52.4418C16.6558 54.6525 18.8018 57.2562 21.0911 59.9988C24.125 63.6478 27.404 67.5373 30.4656 71.0799C31.3999 72.1668 32.3202 73.2166 33.1989 74.2202C33.7447 74.8353 34.2719 75.4319 34.7853 76.01C34.8269 76.0516 34.8639 76.1025 34.9055 76.1441C44.6177 87.068 46.2318 95.2309 47.2169 101.243C48.2066 107.279 56.4064 117.282 57.854 118.993C59.2923 120.709 71.7286 138.191 72.6258 138.908C73.5276 139.629 82.8976 142.871 85.6031 143.954C88.3087 145.036 98.7608 152.968 99.9309 153.869C100.366 154.202 101.735 155.187 103.326 156.339C106.003 158.291 109.301 160.723 109.754 161.348C110.147 161.884 111.905 164.076 113.99 165.556C115.766 166.81 117.778 167.545 119.397 166.301C122.912 163.6 121.742 157.828 119.846 152.875C117.959 147.922 113.449 142.243 111.285 140.531C109.12 138.82 96.6889 129.631 95.6067 129.177C94.5245 128.729 94.2562 127.466 94.7927 127.198C95.3338 126.925 102.632 129.27 103.894 129.718C105.157 130.167 110.836 130.893 112.487 131.795C114.143 132.697 130.566 140.897 132.462 142.608C134.354 144.324 150.661 154.595 151.475 155.137C152.284 155.673 159.314 160.719 167.694 164.053C174.155 166.625 177.559 165.871 179.196 165.145C179.682 164.927 180.01 164.715 180.214 164.59C181.12 164.053 183.275 160.09 179.044 157.657C178.812 157.523 178.581 157.384 178.359 157.236C178.156 157.107 177.957 156.977 177.758 156.839C177.749 156.839 177.744 156.834 177.744 156.829C177.545 156.691 177.346 156.547 177.152 156.404C177.147 156.404 177.143 156.399 177.138 156.395C176.944 156.247 176.754 156.103 176.565 155.951C176.389 155.821 176.222 155.682 176.056 155.544C175.843 155.368 175.635 155.187 175.422 155.007C175.284 154.887 175.145 154.767 175.006 154.642C173.508 153.314 172.079 151.885 170.576 150.581C170.478 150.498 170.381 150.415 170.289 150.327C170.136 150.197 169.979 150.068 169.817 149.938C169.725 149.855 169.623 149.776 169.526 149.698C169.188 149.434 168.85 149.171 168.504 148.925C168.369 148.828 168.235 148.731 168.101 148.639C167.967 148.546 167.833 148.458 167.694 148.37C163.638 145.753 158.773 140.258 156.969 137.373C155.166 134.491 148.765 130.44 148.765 130.44C150.929 129.358 153.181 126.833 153.991 122.601C154.8 118.364 150.296 113.587 149.394 112.87C148.492 112.149 148.404 110.345 148.404 110.345C148.594 110.391 148.797 110.405 148.991 110.396C150.379 110.326 151.826 109.082 151.826 109.082C155.526 106.021 155.434 101.604 153.815 98.3111C152.192 95.0135 140.31 84.9499 140.31 84.9499V80.8569C137.499 72.6755 124.965 61.4232 122.153 59.1201C119.341 56.8215 89.4186 53.7506 82.2594 50.1663C75.1001 46.5867 73.5646 40.4495 73.5646 40.4495C72.4732 36.745 69.7029 33.0313 67.8113 31.2045C67.4182 30.8252 67.0667 30.5246 66.7707 30.3211C66.5349 30.1592 66.1047 29.8078 65.5359 29.3036C62.8257 26.9311 56.9105 21.2287 52.9563 16.5576C51.7446 15.1192 50.7132 13.778 50.0149 12.6634C49.9779 12.6079 49.9455 12.5524 49.9085 12.4969C47.7626 9.08842 44.3818 7.19223 40.8577 6.78987C37.7914 6.44763 34.628 7.22923 32.0658 9.12542Z" fill="#D76E6D"/>
<path d="M35.9453 77.3425C44.7325 87.6698 46.268 95.4534 47.2161 101.244C48.2058 107.279 56.4057 117.283 57.8532 118.994" stroke="#3C2F4B" stroke-width="3.2374" stroke-miterlimit="10" stroke-linecap="round" stroke-linejoin="round"/>
<path opacity="0.24" d="M21.0879 59.9983C24.1218 63.6473 27.4008 67.5368 30.4625 71.0794C31.3967 72.1663 32.317 73.2161 33.1957 74.2197C33.7415 74.8348 34.2687 75.4314 34.7821 76.0095C44.6006 87.0028 46.224 95.2073 47.2137 101.243C48.2034 107.278 56.4032 117.282 57.8508 118.993C59.2892 120.709 71.7254 138.191 72.6226 138.908C73.5244 139.629 82.8944 142.871 85.5999 143.953C88.3055 145.035 98.7576 152.967 99.9277 153.869C100.362 154.202 101.731 155.187 103.322 156.339C106 158.29 109.298 160.723 109.751 161.347C110.144 161.884 111.901 164.076 113.987 165.556C115.763 166.809 117.775 167.545 119.394 166.3C122.909 163.6 121.739 157.828 119.842 152.875C117.955 147.921 113.446 142.242 111.282 140.531C109.117 138.82 96.6857 129.63 95.6035 129.177C94.5213 128.728 94.253 127.466 94.7895 127.197C95.3306 126.925 102.629 129.269 103.891 129.718C105.154 130.167 110.833 130.893 112.484 131.794C114.14 132.696 130.563 140.896 132.459 142.607C134.35 144.323 150.658 154.595 151.472 155.136C152.281 155.673 159.311 160.718 167.691 164.053C174.152 166.624 177.556 165.87 179.193 165.144C174.212 164.543 166.156 161.352 153.391 151.529C128.639 132.488 121.91 120.505 106.25 117.952C96.436 116.352 59.5389 94.8974 57.948 76.5645C56.3616 58.2362 72.0676 40.5231 66.7675 30.3253C66.4993 29.8119 66.0784 29.4743 65.5327 29.3078C59.5944 27.481 38.186 44.8935 21.0879 59.9983Z" fill="#3C2F4B"/>
<path d="M104.115 155.705C103.819 155.914 103.56 156.122 103.324 156.334C106.002 158.286 109.3 160.719 109.753 161.343C110.141 161.88 111.899 164.072 113.989 165.552C115.312 164.104 116.746 162.116 117.698 159.613C117.694 159.613 110.372 151.312 104.115 155.705Z" fill="white"/>
<path d="M173.335 153.504C171.901 154.036 170.809 154.998 171.166 156.737C172.054 161.084 175.712 162.661 175.712 162.661C179.069 159.997 178.366 157.583 178.366 157.583V157.578C176.549 156.422 174.926 154.984 173.335 153.504Z" fill="white"/>
<path d="M155.899 136.036L126.346 112.837" stroke="#3C2F4B" stroke-width="3.2374" stroke-miterlimit="10" stroke-linecap="round" stroke-linejoin="round"/>
<path d="M148.993 110.391C148.993 110.391 132.63 98.3113 134.425 93.1545" stroke="#3C2F4B" stroke-width="3.2374" stroke-miterlimit="10" stroke-linecap="round" stroke-linejoin="round"/>
<path d="M110.356 63.2596C110.356 63.2596 95.3116 61.0767 92.4766 57.8069" stroke="#3C2F4B" stroke-width="3.2374" stroke-miterlimit="10" stroke-linecap="round" stroke-linejoin="round"/>
<path d="M74.8139 128.678C74.8139 128.678 69.3612 124.317 68.7091 118.429C68.057 112.542 64.1305 102.173 61.0781 98.3066" stroke="#3C2F4B" stroke-width="3.2374" stroke-miterlimit="10" stroke-linecap="round" stroke-linejoin="round"/>
<path d="M133.468 78.5259C133.468 78.5259 130.85 75.9082 128.889 75.6908C126.928 75.4735 121.91 74.5994 121.91 74.5994" stroke="#3C2F4B" stroke-width="3.2374" stroke-miterlimit="10" stroke-linecap="round" stroke-linejoin="round"/>
<path d="M113.114 155.933C113.114 155.933 106.944 152.27 103.318 156.335" stroke="#3C2F4B" stroke-width="3.2374" stroke-miterlimit="10" stroke-linecap="round" stroke-linejoin="round"/>
<path d="M137.816 146.336C133.95 143.81 115.806 133.497 114.118 132.637C112.435 131.777 94.791 127.193 94.791 127.193C94.791 127.193 102.593 134.057 108.217 138.205C113.841 142.354 116.893 147.274 116.893 147.274" stroke="#3C2F4B" stroke-width="3.2374" stroke-miterlimit="10" stroke-linecap="round" stroke-linejoin="round"/>
<path d="M111.446 163.322C111.446 163.322 103.889 156.982 96.7852 151.524" stroke="#3C2F4B" stroke-width="3.2374" stroke-miterlimit="10" stroke-linecap="round" stroke-linejoin="round"/>
<path d="M41.2072 0.369988C39.8983 0.786224 38.6774 1.55395 37.7015 2.67316L32.0638 9.12483L28.6091 13.0745L1.93294 43.5938C-0.809599 46.7295 -0.606105 51.47 2.38617 54.3651L19.6184 71.0377C22.6523 73.9745 27.4482 73.956 30.459 71.0747C30.5608 70.9776 30.6625 70.8758 30.7596 70.7741L37.609 63.4853L67.0462 32.152C67.3283 31.8513 67.5827 31.5369 67.8047 31.2039C69.8443 28.2255 69.5945 24.1602 67.0601 21.4501L57.9491 11.7147L49.3053 2.47892C47.1594 0.180369 43.9775 -0.513359 41.2072 0.369988Z" fill="#F1F2F2"/>
<path opacity="0.24" d="M41.2072 0.370361C39.8983 0.786598 38.6774 1.55432 37.7015 2.67354L32.0638 9.1252C30.7874 10.0733 29.6635 11.2943 28.7756 12.7973L28.6091 13.0795L1.93294 43.5942C-0.809599 46.7299 -0.606105 51.4703 2.38617 54.3655L19.6184 71.0381C22.6523 73.9749 27.4482 73.9564 30.459 71.0751C30.5608 70.978 30.6625 70.8762 30.7596 70.7745L37.609 63.4857C37.609 63.4857 15.456 53.3018 18.6841 41.7582C21.3666 32.1662 37.8727 20.9324 40.8511 6.79428C41.295 4.7131 41.4384 2.57642 41.2072 0.370361Z" fill="#3C2F4B"/>
<path opacity="0.24" d="M181.816 398.783H166.119C169.69 390.019 171.419 379.826 170.994 372.898C170.443 364.004 168.478 357.941 166.97 352.387C166.97 352.387 184.17 373.643 181.816 398.783Z" fill="#3C2F4B"/>
<path d="M166.121 398.783C169.691 390.018 171.421 379.825 170.995 372.897C170.445 364.004 168.479 357.94 166.972 352.386C166.541 350.804 166.148 349.264 165.838 347.71C165.76 347.326 165.695 346.855 165.63 346.304C165.626 346.226 165.616 346.142 165.607 346.059C165.496 344.954 165.413 343.557 165.353 341.957C165.339 341.684 165.33 341.402 165.32 341.115C165.311 340.755 165.302 340.389 165.288 340.019C165.279 339.575 165.27 339.127 165.26 338.664C165.256 338.4 165.251 338.132 165.246 337.864C165.246 337.61 165.242 337.351 165.237 337.092C165.233 336.555 165.228 336.009 165.223 335.454C165.223 335.084 165.219 334.714 165.219 334.335" stroke="#3C2F4B" stroke-width="3.2374" stroke-miterlimit="10" stroke-linecap="round" stroke-linejoin="round"/>
</g>
<defs>
<clipPath id="clip0">
<rect width="409.087" height="400.401" fill="white"/>
</clipPath>
</defs>
</svg>
