<svg width="355" height="378" viewBox="0 0 355 378" fill="none" xmlns="http://www.w3.org/2000/svg">
<path d="M354.038 55.2828V278.615C354.038 279.858 353.864 281.084 353.524 282.268C352.703 285.163 350.916 287.803 348.355 289.82L340.404 296.079L337.688 298.213L327.855 305.945L322.044 310.509L322.04 310.513L308.825 320.906L299.209 328.462L298.625 328.927L291.687 334.378L286.707 338.294L283.807 340.575L282.698 341.445L279.558 343.918L276.143 346.604L273.337 348.813C273.332 348.813 273.332 348.813 273.332 348.813L273.016 349.06C273.016 349.064 273.012 349.064 273.012 349.064L272.238 349.671L252.143 365.473L249.997 367.159L246.984 369.527L240.933 374.284C237.854 376.682 233.906 378 229.808 378H16.8834C16.1006 378 15.3319 377.954 14.582 377.862C6.34779 376.866 0 370.603 0 363.026V55.2828C0 47.0112 7.55981 40.3086 16.8834 40.3086H337.159C346.483 40.3086 354.038 47.0112 354.038 55.2828Z" fill="#075865"/>
<mask id="mask0" mask-type="alpha" maskUnits="userSpaceOnUse" x="0" y="0" width="355" height="338">
<path d="M354.038 14.9742V238.307C354.038 239.549 353.864 240.775 353.524 241.959C352.703 244.855 350.916 247.495 348.355 249.511L340.404 255.77L337.688 257.904L327.855 265.636L322.044 270.201L322.04 270.205L308.825 280.598L299.209 288.154L298.625 288.618L291.687 294.07L286.707 297.986L283.807 300.266L282.698 301.136L279.558 303.609L276.143 306.295L273.337 308.504C273.332 308.504 273.332 308.504 273.332 308.504L273.016 308.751C273.016 308.755 273.012 308.755 273.012 308.755L272.238 309.362L252.143 325.165L249.997 326.851L246.984 329.219L240.933 333.976C237.854 336.373 233.906 337.691 229.808 337.691H16.8834C16.1006 337.691 15.3319 337.645 14.582 337.553C6.34779 336.557 0 330.294 0 322.717V14.9742C0 6.70261 7.55981 0 16.8834 0H337.159C346.483 0 354.038 6.70261 354.038 14.9742Z" fill="#075865"/>
</mask>
<g mask="url(#mask0)">
<path d="M274.75 264.191C274.75 264.191 282.088 256.467 283.809 254.631C285.526 252.794 283.04 241.393 269.364 246.543L259.418 251.689C259.418 251.689 256.102 244.334 241.596 248.012L227.089 256.467C227.089 256.467 222.114 254.631 214.653 256.467C207.192 258.304 207.192 258.304 207.192 258.304C207.192 258.304 202.217 253.304 195.171 254.702C188.125 256.099 154.967 266.396 154.967 266.396L166.747 285.516L203.457 296.913L259.823 276.32L274.75 264.191Z" fill="#D86E6C"/>
<path opacity="0.24" d="M274.75 264.191C274.75 264.191 282.088 256.467 283.809 254.631C285.526 252.794 283.04 241.393 269.364 246.543L259.418 251.689C259.418 251.689 256.102 244.334 241.596 248.012L227.089 256.467C227.089 256.467 222.114 254.631 214.653 256.467C207.192 258.304 207.192 258.304 207.192 258.304C207.192 258.304 202.217 253.304 195.171 254.702C188.125 256.099 154.967 266.396 154.967 266.396L166.747 285.516L203.457 296.913L259.823 276.32L274.75 264.191Z" fill="#3C2F4B"/>
<path d="M281.625 266.002C278.998 268.492 275.032 272.219 271.174 275.767C271.103 275.83 271.032 275.893 270.966 275.956C270.717 276.19 270.471 276.416 270.226 276.633C265.529 280.926 261.176 284.767 259.832 285.516C256.512 287.357 251.598 286.984 251.598 286.984C251.598 286.984 200.976 309.787 191.03 312.724C181.079 315.665 160.404 320.443 141.936 321.179C128.608 321.715 86.4466 316.682 64.036 313.845C55.4056 312.753 49.6992 311.987 49.6992 311.987V269.709C49.6992 269.709 71.2515 260.885 82.4427 249.484C93.6339 238.087 113.526 225.581 151.245 229.631C151.245 229.631 169.482 228.159 175.287 226.322C180.796 224.573 187.422 218.527 214.294 225.142C219.151 226.335 222.236 230.728 221.019 235.066C220.981 235.217 220.929 235.368 220.877 235.514C219.222 240.296 199.735 246.915 196.005 248.384C192.279 249.852 163.431 250.589 163.431 250.589L150.415 260.885C150.415 260.885 184.814 260.513 193.935 269.709C193.935 269.709 224.608 264.931 237.454 269.709C237.454 269.709 260.355 256.844 280.153 256.777C281.639 256.772 282.969 257.626 283.417 258.885L283.44 258.956C284.308 261.421 283.62 264.119 281.625 266.002Z" fill="#D86E6C"/>
<path opacity="0.24" d="M270.255 276.637C265.558 280.93 261.205 284.771 259.861 285.52C256.541 287.361 251.627 286.988 251.627 286.988C251.627 286.988 201.005 309.79 191.059 312.728C181.108 315.669 160.433 320.447 141.965 321.183C128.637 321.719 86.4756 316.686 64.065 313.849C69.9836 305.427 62.1738 288.356 62.1738 288.356C62.1738 288.356 75.407 280.231 143.101 298C164.328 303.573 186.984 303.063 207.923 296.691C227.509 290.733 245.222 284.101 248.274 284.068C253.244 284.022 260.012 285.825 270.255 276.637Z" fill="#3C2F4B"/>
<path d="M237.451 269.709C237.451 269.709 239.937 275.224 239.111 278.165" stroke="#3C2F4B" stroke-width="3.30123" stroke-miterlimit="10" stroke-linecap="round" stroke-linejoin="round"/>
<path d="M193.932 269.709C193.932 269.709 198.907 279.27 200.147 282.211" stroke="#3C2F4B" stroke-width="3.30123" stroke-miterlimit="10" stroke-linecap="round" stroke-linejoin="round"/>
<path d="M158.701 313.832C159.116 314.937 168.647 315.669 181.914 308.318C195.18 300.967 213.827 299.862 212.587 300.23" stroke="#3C2F4B" stroke-width="3.30123" stroke-miterlimit="10" stroke-linecap="round" stroke-linejoin="round"/>
<path d="M207.195 258.309C207.195 258.309 189.487 266.71 189.567 266.748" stroke="#3C2F4B" stroke-width="3.30123" stroke-miterlimit="10" stroke-linecap="round" stroke-linejoin="round"/>
<path d="M212.641 267.809C212.641 267.809 234.297 254.299 244.083 258.307L259.419 251.688" stroke="#3C2F4B" stroke-width="3.30123" stroke-miterlimit="10" stroke-linecap="round" stroke-linejoin="round"/>
<path d="M227.084 256.471C227.084 256.471 232.847 256.471 234.111 258.307" stroke="#3C2F4B" stroke-width="3.30123" stroke-miterlimit="10" stroke-linecap="round" stroke-linejoin="round"/>
<path d="M244.084 258.308C244.084 258.308 251.021 256.965 255.634 261.68" stroke="#3C2F4B" stroke-width="3.30123" stroke-miterlimit="10" stroke-linecap="round" stroke-linejoin="round"/>
<path d="M209.184 225.95C209.184 225.95 221.036 232.347 211.67 239.556C211.67 239.556 196.748 239.556 194.263 236.983C191.777 234.41 194.678 230.364 195.923 228.896C197.163 227.423 209.184 225.95 209.184 225.95Z" fill="white"/>
<path d="M209.184 225.95C209.184 225.95 221.036 232.347 211.67 239.556C211.67 239.556 196.748 239.556 194.263 236.983C191.777 234.41 194.678 230.364 195.923 228.896C197.163 227.423 209.184 225.95 209.184 225.95Z" stroke="#3C2F4B" stroke-width="3.30123" stroke-miterlimit="10" stroke-linecap="round" stroke-linejoin="round"/>
<path d="M78.774 251.999V320.251C78.774 323.334 76.0198 325.865 72.5393 325.966C60.5842 326.309 34.5941 326.966 23.0681 326.526C19.5452 326.388 17.3711 326.154 17.3711 325.777V267.768C17.3711 255.555 17.3711 246.275 17.3711 246.275H72.3318C75.8877 246.279 78.774 248.84 78.774 251.999Z" fill="#23BBAE"/>
<path d="M23.2867 252.199V324.694C23.2867 325.322 23.2112 325.932 23.0697 326.526C22.1218 330.48 18.1651 333.442 13.4301 333.442H-33.1172V243.455H13.4254C16.2975 243.455 18.8772 244.547 20.6787 246.279C22.2963 247.836 23.2867 249.915 23.2867 252.199Z" fill="#23BBAE"/>
<path d="M-33.1172 243.452H13.4254C18.8677 243.452 23.282 247.368 23.282 252.197V324.695" stroke="#3C2F4B" stroke-width="3.30123" stroke-miterlimit="10" stroke-linecap="round" stroke-linejoin="round"/>
<path d="M158.701 232.752C158.701 232.752 165.511 240.321 163.427 246.279C163.427 246.279 168.628 240.296 166.751 234.25" stroke="#3C2F4B" stroke-width="3.30123" stroke-miterlimit="10" stroke-linecap="round" stroke-linejoin="round"/>
<path d="M189.566 229.101C189.566 229.101 190.637 238.469 193.287 241.28" stroke="#3C2F4B" stroke-width="3.30123" stroke-miterlimit="10" stroke-linecap="round" stroke-linejoin="round"/>
<path d="M163.428 250.588L143.408 266.751" stroke="#3C2F4B" stroke-width="3.30123" stroke-miterlimit="10" stroke-linecap="round" stroke-linejoin="round"/>
<path d="M78.7734 256.471V320.246" stroke="#3C2F4B" stroke-width="3.30123" stroke-miterlimit="10" stroke-linecap="round" stroke-linejoin="round"/>
<path d="M162.928 261.328C163.928 261.404 188.677 262.525 195.299 269.508C195.299 269.508 232.4 264.742 237.446 269.709C237.446 269.709 257.961 257.943 274.891 256.471" stroke="#3C2F4B" stroke-width="3.30123" stroke-miterlimit="10" stroke-linecap="round" stroke-linejoin="round"/>
<path opacity="0.24" d="M78.7756 286.553V320.246C78.7756 323.33 76.0215 325.861 72.541 325.961C60.5859 326.304 34.5958 326.961 23.0697 326.522C22.1218 330.476 18.1651 333.438 13.4302 333.438H-33.1172V267.621C-19.5774 267.546 5.86562 267.692 17.3728 267.772C21.0371 267.793 23.2867 267.809 23.2867 267.809V288.448L78.7756 286.553Z" fill="#3C2F4B"/>
<path d="M309.577 90.4201L286.945 135.489L253.692 127.293C189.488 149.831 159.465 94.5161 159.465 94.5161C158.546 97.3821 152.075 99.428 152.075 99.428C156.235 99.8422 162.238 113.327 162.238 113.327C162.238 113.327 173.326 126.063 183.951 129.749C185.432 130.263 186.63 130.941 187.582 131.719C188.026 132.075 188.422 132.456 188.761 132.857C193.048 137.79 190.412 145.321 190.412 145.321C160.852 147.781 124.364 135.485 124.364 135.485L104.717 108.256C103.175 106.118 103.161 103.386 104.679 101.231L106.815 98.198L98.6331 87.9809C96.2044 84.9475 96.7797 80.7762 99.9583 78.3495L102.34 76.5379C104.335 75.0191 106.877 74.1823 109.508 74.1823H114.21V67.0362C114.21 59.4843 117.978 52.3256 124.524 47.4974C138.521 37.1799 161.894 22.963 172.463 16.637C176.122 14.4446 180.721 13.909 184.908 15.1517C232.894 29.4481 309.577 90.4201 309.577 90.4201Z" fill="#D86E6C"/>
<path opacity="0.24" d="M146.533 74.187V95.3366L152.075 99.4326C152.075 99.4326 158.036 99.5832 159.465 94.5165C159.465 94.5165 167.081 107.792 170.698 109.156L204.866 96.9558L212.534 89.7092C212.534 89.7092 199.966 75.7392 197.532 66.2543C197.382 65.6602 197.268 65.0828 197.198 64.5263L197.231 59.1333C197.231 59.1333 185.087 57.7066 187.638 44.9331C187.638 44.9331 179.918 56.8949 170.736 58.4555C170.736 58.4555 153.952 73.5594 146.533 74.187Z" fill="#3C2F4B"/>
<path d="M385.017 92.4669V207.198L282.415 167.191C279.293 165.978 277.86 162.761 279.194 159.974L282.797 152.468L302.279 111.918V111.914L321.106 72.7273C322.379 70.0663 325.874 68.8571 328.845 70.0412L385.017 92.4669Z" fill="#003B58"/>
<path d="M317.653 79.906L302.279 111.913V111.917L282.797 152.467L269.045 147.016C266.673 146.074 265.598 143.627 266.616 141.51L280.255 113.335C280.255 113.331 280.26 113.331 280.26 113.327L297.969 76.7305C299.016 74.5674 301.859 73.5884 304.279 74.5548L317.653 79.906Z" fill="white"/>
<path d="M212.542 89.7092C212.542 89.7092 195.499 76.4839 197.347 57.6354L201.964 44.9331" stroke="#3C2F4B" stroke-width="3.30123" stroke-miterlimit="10" stroke-linecap="round" stroke-linejoin="round"/>
<path d="M177.02 55.1753C177.02 55.1753 185.334 51.8951 187.645 44.9331C187.645 44.9331 185.334 55.9953 194.573 58.4555" stroke="#3C2F4B" stroke-width="3.30123" stroke-miterlimit="10" stroke-linecap="round" stroke-linejoin="round"/>
<path opacity="0.24" d="M190.412 145.326C160.852 147.786 124.364 135.49 124.364 135.49L104.717 108.261C103.175 106.123 103.161 103.391 104.679 101.236L106.815 98.2026L98.6331 87.9855C96.2044 84.9522 96.7797 80.7808 99.9583 78.3542L102.887 76.1242C104.528 74.8732 106.622 74.187 108.782 74.187H114.206L118.365 104.349C128.835 117.511 173.331 133.151 173.331 133.151L187.587 131.724L188.766 132.862C193.048 137.795 190.412 145.326 190.412 145.326Z" fill="#3C2F4B"/>
<path d="M173.325 34.6865V49.1419C173.325 55.3676 170.066 61.2292 164.515 65.0407C159.05 68.7979 152.046 72.986 146.533 74.1784C146.533 74.1784 148.844 90.8178 146.533 95.328L152.075 99.424" stroke="#3C2F4B" stroke-width="3.30123" stroke-miterlimit="10" stroke-linecap="round" stroke-linejoin="round"/>
<path d="M128.525 58.4546C128.525 58.4546 145.513 60.4085 146.541 74.1861" stroke="#3C2F4B" stroke-width="3.30123" stroke-miterlimit="10" stroke-linecap="round" stroke-linejoin="round"/>
<path d="M146.535 95.3324C146.535 95.3324 139.607 93.6924 133.604 95.3324" stroke="#3C2F4B" stroke-width="3.30123" stroke-miterlimit="10" stroke-linecap="round" stroke-linejoin="round"/>
<path d="M114.209 74.187C114.209 74.187 116.058 99.8427 118.364 104.349C120.675 108.855 143.307 120.741 151.621 124.837" stroke="#3C2F4B" stroke-width="3.30123" stroke-miterlimit="10" stroke-linecap="round" stroke-linejoin="round"/>
<path d="M106.816 98.2021C106.816 98.2021 117.442 118.176 125.294 122.737C133.146 127.297 151.619 132.644 151.619 132.644" stroke="#3C2F4B" stroke-width="3.30123" stroke-miterlimit="10" stroke-linecap="round" stroke-linejoin="round"/>
<path d="M159.465 94.513C159.465 94.513 162.7 84.5929 162.238 79.5137" stroke="#3C2F4B" stroke-width="3.30123" stroke-miterlimit="10" stroke-linecap="round" stroke-linejoin="round"/>
<path d="M179.929 201.143C179.934 201.716 179.632 202.268 179.085 202.67L165.814 212.561L159.853 217.004C159.315 217.406 158.58 217.636 157.811 217.636H124.176C122.577 217.636 121.285 216.674 121.285 215.481V83.2155C121.285 82.0272 122.577 81.0649 124.176 81.0649H176.491C178.08 81.0649 179.373 82.0231 179.377 83.2113L179.929 201.143Z" fill="#3AB3C6"/>
<path d="M212.538 56.8149C209.26 66.2413 215.995 84.1735 215.995 84.1735C215.995 84.1735 214.429 70.8436 219.051 62.3921" stroke="#3C2F4B" stroke-width="3.30123" stroke-miterlimit="10" stroke-linecap="round" stroke-linejoin="round"/>
<path d="M224.131 64.6017C222.749 64.6687 222.282 74.1871 222.282 74.1871C222.282 74.1871 210.737 92.4665 209.351 94.9267C207.964 97.3868 160.337 109.939 155.258 116.938C150.179 123.938 149.768 133.352 151.617 135.402C153.466 137.452 162.898 141.017 170.147 141.577C177.395 142.138 204.871 127.578 204.871 127.578L224.475 111.319L234.752 109.269C234.752 109.269 242.75 124.432 266.231 120.331C266.236 120.331 273.55 62.1416 224.131 64.6017Z" fill="#D86E6C"/>
<path d="M209.351 94.9219C207.964 97.382 160.337 109.934 155.258 116.933C150.179 123.933 149.768 133.347 151.617 135.397C153.466 137.447 162.092 141.012 169.34 141.572" stroke="#3C2F4B" stroke-width="3.30123" stroke-miterlimit="10" stroke-linecap="round" stroke-linejoin="round"/>
<path d="M224.13 64.6016C222.748 64.6685 222.281 74.1869 222.281 74.1869C222.281 74.1869 210.736 92.4664 209.35 94.9265" stroke="#3C2F4B" stroke-width="3.30123" stroke-miterlimit="10" stroke-linecap="round" stroke-linejoin="round"/>
<path d="M224.477 111.315L234.753 109.265C234.753 109.265 242.751 124.428 266.232 120.327" stroke="#3C2F4B" stroke-width="3.30123" stroke-miterlimit="10" stroke-linecap="round" stroke-linejoin="round"/>
<path d="M235.986 111.914C238.929 115.763 247.819 124.482 266.315 121.256" stroke="#3C2F4B" stroke-width="3.30123" stroke-miterlimit="10" stroke-linecap="round" stroke-linejoin="round"/>
<path d="M194.572 131.949L204.872 127.573L212.54 121.029" stroke="#3C2F4B" stroke-width="3.30123" stroke-miterlimit="10" stroke-linecap="round" stroke-linejoin="round"/>
<path d="M234.76 131.951C234.76 131.951 212.538 136.908 203.352 128.223" stroke="#3C2F4B" stroke-width="3.30123" stroke-miterlimit="10" stroke-linecap="round" stroke-linejoin="round"/>
<path opacity="0.24" d="M385.017 140.431V207.198L282.415 167.191C279.293 165.978 277.859 162.76 279.194 159.974L282.797 152.468L269.045 147.016C266.673 146.075 265.598 143.627 266.616 141.51L280.255 113.336C279.675 114.65 286.452 116.934 297.573 120.373C299.61 119.449 300.44 114.227 302.279 111.913V111.909L385.017 140.431Z" fill="#3C2F4B"/>
<path d="M160.844 121.796C161.344 120.574 175.766 119.189 177.935 120.754C180.105 122.319 181.392 128.665 180.454 129.527C179.515 130.393 171.852 135.343 166.141 136.385C166.141 136.385 156.567 132.213 160.844 121.796Z" fill="white" stroke="#3C2F4B" stroke-width="3.30123" stroke-miterlimit="10" stroke-linecap="round" stroke-linejoin="round"/>
<path d="M160.844 121.796C161.344 120.574 175.766 119.189 177.935 120.754C180.105 122.319 181.392 128.665 180.454 129.527C179.515 130.393 171.852 135.343 166.141 136.385C166.141 136.385 156.567 132.213 160.844 121.796Z" stroke="#3C2F4B" stroke-width="3.30123" stroke-miterlimit="10" stroke-linecap="round" stroke-linejoin="round"/>
<path d="M191.213 109.917C191.213 109.917 197.207 113.402 197.042 121.958" stroke="#3C2F4B" stroke-width="3.30123" stroke-miterlimit="10" stroke-linecap="round" stroke-linejoin="round"/>
</g>
<path d="M141.155 131.287C141.155 131.287 124.998 127.857 111.543 124.058" stroke="#3C2F4B" stroke-width="3.30123" stroke-miterlimit="10" stroke-linecap="round" stroke-linejoin="round"/>
<path d="M143.433 144.554C143.433 144.554 121.772 147.173 110.973 153.633" stroke="#3C2F4B" stroke-width="3.30123" stroke-miterlimit="10" stroke-linecap="round" stroke-linejoin="round"/>
<path d="M155.927 151.028C155.927 151.028 150.239 170.45 141.713 173.479C139.581 174.236 137.558 176.002 135.719 178.224" stroke="#3C2F4B" stroke-width="3.30123" stroke-miterlimit="10" stroke-linecap="round" stroke-linejoin="round"/>
<path d="M167.881 151.91C167.881 151.91 177.049 161.244 177.016 168.432C177.011 169.331 177.176 170.294 177.469 171.29" stroke="#3C2F4B" stroke-width="3.30123" stroke-miterlimit="10" stroke-linecap="round" stroke-linejoin="round"/>
</svg>
