<svg width="353" height="379" viewBox="0 0 353 379" fill="none" xmlns="http://www.w3.org/2000/svg">
<path d="M352.439 17.0519V267.061C352.439 268.452 352.266 269.824 351.928 271.15C351.113 274.391 349.338 277.346 346.795 279.604L338.898 286.61L336.201 288.999L326.435 297.654L320.665 302.764L320.66 302.769L307.537 314.403L297.987 322.862L297.406 323.382L290.516 329.485L285.57 333.869L282.69 336.421L281.589 337.395L278.47 340.163L275.079 343.17L272.292 345.643C272.287 345.643 272.287 345.643 272.287 345.643L271.974 345.92C271.974 345.924 271.969 345.924 271.969 345.924L271.201 346.603L251.244 364.294L249.113 366.181L246.12 368.832L240.111 374.157C237.052 376.841 233.132 378.316 229.062 378.316H17.5995C16.822 378.316 16.0586 378.265 15.3139 378.162C7.13623 377.047 0.832031 370.036 0.832031 361.554V17.0519C0.832031 7.79229 8.33993 0.289062 17.5995 0.289062H335.676C344.936 0.289062 352.439 7.79229 352.439 17.0519Z" fill="#075865"/>
<mask id="mask0" mask-type="alpha" maskUnits="userSpaceOnUse" x="0" y="0" width="353" height="379">
<path d="M352.439 17.0519V267.061C352.439 268.452 352.266 269.824 351.928 271.15C351.113 274.391 349.338 277.346 346.795 279.604L338.898 286.61L336.201 288.999L326.435 297.654L320.665 302.764L320.66 302.769L307.537 314.403L297.987 322.862L297.406 323.382L290.516 329.485L285.57 333.868L282.69 336.421L281.589 337.395L278.47 340.163L275.079 343.17L272.292 345.643C272.287 345.643 272.287 345.643 272.287 345.643L271.974 345.92C271.974 345.924 271.969 345.924 271.969 345.924L271.201 346.603L251.244 364.294L249.113 366.181L246.12 368.832L240.111 374.157C237.052 376.841 233.132 378.316 229.062 378.316H17.5995C16.822 378.316 16.0586 378.265 15.3139 378.162C7.13623 377.047 0.832031 370.036 0.832031 361.554V17.0519C0.832031 7.79229 8.33993 0.289062 17.5995 0.289062H335.676C344.936 0.289062 352.439 7.79229 352.439 17.0519Z" fill="#3AB3C6"/>
</mask>
<g mask="url(#mask0)">
<path d="M307.736 216.211C278.041 232.515 267.564 197.584 267.564 197.584L255.916 199.326L254.174 216.211C254.174 216.211 276.875 224.365 286.191 236.009C295.507 247.657 298.415 273.272 298.415 273.272C271.053 292.484 253.583 259.881 253.583 259.881L230.282 253.146L227.383 252.308L220.4 269.192L215.739 269.778V276.766C215.309 278.817 214.831 280.77 214.325 282.625C205.281 315.617 185.399 319.265 185.399 319.265C185.399 319.265 187.787 327.42 182.837 335.569C177.877 343.719 151.69 350.126 151.69 350.126C161.592 355.362 150.524 379.235 150.524 379.235H38.1914C47.5447 334.984 43.9851 323.921 42.2334 311.697C40.4911 299.472 34.0885 263.371 42.2334 226.107C46.4815 206.712 52.2986 195.523 56.9026 189.083C57.4225 188.357 57.9237 187.687 58.4154 187.078C61.8907 182.704 64.3637 181.186 64.3637 180.69C64.3637 180.287 64.0171 178.372 63.5675 176.03C62.2748 169.337 64.0077 162.414 68.3214 157.131L68.3261 157.122L104.901 112.28L130.319 81.1248C130.319 81.1248 185.492 82.7593 229.135 86.3611C245.087 87.6819 259.953 93.424 269.306 94.5153C304.242 98.5948 303.076 113.152 303.076 113.152C296.57 127.207 277.695 135.385 258.876 133.638C232.629 131.202 212.25 131.202 212.25 131.202L212.831 156.817C212.831 156.817 269.306 159.145 276.294 159.145C283.283 159.145 301.909 180.104 311.23 193.86C320.546 207.621 307.736 216.211 307.736 216.211Z" fill="#D86E6C"/>
<path d="M303.365 182.955C303.365 182.955 291.661 179.443 288.809 186.515L293.464 206.313C293.464 206.313 306.503 195.896 315.037 206.702C315.042 206.702 316.26 197.006 303.365 182.955Z" fill="white"/>
<path opacity="0.24" d="M116.769 114.373L103.434 154.133C103.434 154.133 112.02 146.662 89.6832 163.064C73.5714 174.891 70.6207 182.628 68.6067 177.912C72.082 173.537 64.3633 181.19 64.3633 180.698C64.3633 180.296 64.0167 178.38 63.5671 176.038C62.2744 169.345 64.0074 162.423 68.321 157.14L68.3257 157.13L104.9 112.289C111.153 113.404 116.769 114.373 116.769 114.373Z" fill="#3C2F4B"/>
<path opacity="0.24" d="M230.635 251.487C230.635 251.487 230.626 252.096 230.574 253.145L227.675 252.306L220.692 269.191L216.031 269.776V276.764C215.601 278.816 215.123 280.769 214.617 282.624C202.983 284.525 183.761 280.961 170.647 279.43C155.851 277.697 154.877 292.605 154.868 296.338C154.868 296.928 154.802 297.522 154.643 298.094C149.285 317.297 124.016 330.172 124.602 329.395C148.399 297.682 128.405 253.248 128.405 253.248L230.635 251.487Z" fill="#3C2F4B"/>
<path d="M303.571 112.96C303.669 113.484 297.234 100.824 282.991 106.754L269.596 94.5249C269.596 94.5249 300.419 96.3468 303.571 112.96Z" fill="white"/>
<path d="M228.155 251.492L220.689 269.196" stroke="#3C2F4B" stroke-width="3.27856" stroke-miterlimit="10" stroke-linecap="round" stroke-linejoin="round"/>
<path d="M276.583 233.441C257.952 234.949 253.877 259.88 253.877 259.88C253.877 259.88 265.984 281.355 282.991 279.289" stroke="#3C2F4B" stroke-width="3.27856" stroke-miterlimit="10" stroke-linecap="round" stroke-linejoin="round"/>
<path d="M265.406 -76.2327V232.378C265.406 247.09 253.481 259.014 238.77 259.014H123.482C117.833 259.014 112.602 257.258 108.288 254.26C101.37 249.445 96.8457 241.441 96.8457 232.373V-76.2327C96.8457 -90.9441 108.77 -102.869 123.482 -102.869H238.77C253.481 -102.869 265.406 -90.9441 265.406 -76.2327Z" fill="#C1E2E8"/>
<path opacity="0.24" d="M205.552 163.809C205.552 163.809 199.829 200.885 157.938 199.527C157.938 199.527 157.25 214.847 138.201 216.828C138.201 216.828 152.552 241.975 154.439 259.014H123.485C117.837 259.014 112.605 257.258 108.291 254.26C105.294 230.814 101.43 203.681 99.7015 204.637C96.6758 206.318 138.524 170.142 137.503 171.383C136.487 172.624 174.289 171.383 174.289 171.383L205.552 163.809Z" fill="#3C2F4B"/>
<path d="M219.661 162.513H123.464C122.115 162.513 121.023 161.422 121.023 160.073V121.255C121.023 119.906 122.115 118.814 123.464 118.814H238.237C239.586 118.814 240.677 119.906 240.677 121.255V142.959C240.677 143.643 240.391 144.289 239.89 144.753L221.315 161.867C220.865 162.283 220.275 162.513 219.661 162.513Z" fill="#3AB3C6"/>
<path d="M239.757 259.694H122.15C108.08 259.694 96.6758 248.289 96.6758 234.219V-76.7146C96.6758 -90.7843 108.08 -102.189 122.15 -102.189H239.757C253.827 -102.189 265.231 -90.7843 265.231 -76.7146V234.219C265.231 248.284 253.827 259.694 239.757 259.694Z" stroke="#3C2F4B" stroke-width="6.55712" stroke-miterlimit="10" stroke-linecap="round" stroke-linejoin="round"/>
<path d="M205.552 163.814C194.007 193.869 145.582 177.786 145.582 177.786C143.255 184.193 134.52 182.446 134.52 182.446C135.686 191.181 118.801 207.485 118.801 207.485L119.968 217.967C119.968 217.967 118.801 223.203 133.939 266.869C149.076 310.539 118.801 335.578 118.801 335.578C118.801 335.578 98.3525 338.646 80.8403 340.903C68.8079 342.454 58.1573 343.62 56.4993 343.147C52.4245 341.981 64.6535 180.703 64.6535 180.703L134.487 131.502C138.772 128.485 144.416 128.195 148.983 130.776C149.498 131.066 150.027 131.366 150.58 131.675C157.334 135.478 167.024 140.93 176.705 146.353C188.644 153.032 205.552 163.814 205.552 163.814Z" fill="#D86E6C"/>
<path d="M201.179 160.344C193.311 170.849 183.128 171.383 183.128 171.383C167.691 157.993 170.979 143.899 170.979 143.899L201.179 160.344Z" fill="white"/>
<path d="M118.802 335.568C118.802 335.568 149.077 310.534 133.94 266.863C118.802 223.193 119.968 217.957 119.968 217.957L118.802 207.475C118.802 207.475 135.687 191.171 134.52 182.441C134.52 182.441 143.255 184.188 145.583 177.785C145.583 177.785 192.682 194.108 205.553 163.814C205.553 163.814 188.64 153.037 176.701 146.348C167.016 140.925 157.33 135.473 150.576 131.67C145.035 128.546 138.192 128.892 132.989 132.555L64.6543 180.698C64.6543 180.698 35.9997 205.597 38.6787 275.346" stroke="#3C2F4B" stroke-width="3.27856" stroke-miterlimit="10" stroke-linecap="round" stroke-linejoin="round"/>
<path d="M269.596 94.5249L282.986 106.754C282.986 106.754 294.049 99.1851 303.365 113.156" stroke="#3C2F4B" stroke-width="3.27856" stroke-miterlimit="10" stroke-linecap="round" stroke-linejoin="round"/>
<path d="M303.365 113.156C294.049 99.1851 282.986 106.754 282.986 106.754L269.596 94.5249" stroke="#3C2F4B" stroke-width="3.27856" stroke-miterlimit="10" stroke-linecap="round" stroke-linejoin="round"/>
<path d="M303.365 182.957C303.365 182.957 291.722 178.947 288.809 186.516L293.464 206.314C293.464 206.314 304.911 196.998 314.911 206.314" stroke="#3C2F4B" stroke-width="3.27856" stroke-miterlimit="10" stroke-linecap="round" stroke-linejoin="round"/>
<path d="M298.711 273.271C296.383 263.955 282.992 260.461 282.992 260.461C284.739 247.651 292.069 246.11 292.069 246.11C292.069 246.11 297.09 255.712 298.711 269.191V273.271Z" fill="#C1E2E8"/>
<path d="M292.069 246.11C292.069 246.11 284.739 247.651 282.992 260.461C282.992 260.461 296.383 263.955 298.711 273.271" stroke="#3C2F4B" stroke-width="3.27856" stroke-miterlimit="10" stroke-linecap="round" stroke-linejoin="round"/>
<path d="M170.979 143.899C170.979 143.899 167.691 157.988 183.128 171.383C183.128 171.383 193.315 170.849 201.179 160.344" stroke="#3C2F4B" stroke-width="3.27856" stroke-miterlimit="10" stroke-linecap="round" stroke-linejoin="round"/>
<path d="M145.583 177.786C145.583 177.786 143.255 162.068 149.077 155.08" stroke="#3C2F4B" stroke-width="3.27856" stroke-miterlimit="10" stroke-linecap="round" stroke-linejoin="round"/>
<path d="M134.52 182.442C134.52 182.442 124.038 173.707 123.457 166.428" stroke="#3C2F4B" stroke-width="3.27856" stroke-miterlimit="10" stroke-linecap="round" stroke-linejoin="round"/>
<path d="M118.801 207.479C118.801 207.479 104.245 210.973 96.6758 206.313" stroke="#3C2F4B" stroke-width="3.27856" stroke-miterlimit="10" stroke-linecap="round" stroke-linejoin="round"/>
<path d="M279.498 171.377C265.527 178.946 267.854 197.578 267.854 197.578C267.854 197.578 272.969 219.394 293.23 220.542" stroke="#3C2F4B" stroke-width="3.27856" stroke-miterlimit="10" stroke-linecap="round" stroke-linejoin="round"/>
<path d="M190.996 267.45C192.162 269.197 216.03 269.777 216.03 269.777C216.03 269.777 214.246 307.739 190.996 317.195" stroke="#3C2F4B" stroke-width="3.27856" stroke-miterlimit="10" stroke-linecap="round" stroke-linejoin="round"/>
<path d="M185.693 319.265L167.127 314.028" stroke="#3C2F4B" stroke-width="3.27856" stroke-miterlimit="10" stroke-linecap="round" stroke-linejoin="round"/>
<path d="M123.457 343.245L151.985 350.125C151.985 350.125 162.523 358.335 150.819 379.239" stroke="#3C2F4B" stroke-width="3.27856" stroke-miterlimit="10" stroke-linecap="round" stroke-linejoin="round"/>
<path d="M79.9609 154.026C92.3398 153.749 95.6793 157.637 95.6793 157.637C98.6159 157.904 95.0985 146.574 84.6165 141.333" stroke="#3C2F4B" stroke-width="3.27856" stroke-miterlimit="10" stroke-linecap="round" stroke-linejoin="round"/>
<path d="M43.2925 316.646C43.2925 316.646 49.845 341.722 38.4824 379.234" stroke="#3C2F4B" stroke-width="3.27856" stroke-miterlimit="10" stroke-linecap="round" stroke-linejoin="round"/>
<path d="M96.6766 122.733L68.6074 157.14" stroke="#3C2F4B" stroke-width="3.27856" stroke-miterlimit="10" stroke-linecap="round" stroke-linejoin="round"/>
<path d="M265.23 133.866C265.23 133.866 283.764 132.124 290.564 126.85" stroke="#3C2F4B" stroke-width="3.27856" stroke-miterlimit="10" stroke-linecap="round" stroke-linejoin="round"/>
<path opacity="0.24" d="M150.576 131.666C150.576 131.666 136.516 133.834 130.61 139.942C124.713 146.044 75.6988 180.071 71.2352 215.681C68.692 235.975 77.4739 301.031 79.9656 317.195C80.8555 322.979 81.2067 331.438 80.8461 340.894C80.3824 353.24 78.7057 367.277 75.4177 379.234H38.4824C47.8357 334.983 44.2761 323.92 42.5244 311.696C40.7821 299.472 34.3749 263.37 42.5244 226.107C46.7725 206.712 52.5896 195.523 57.1936 189.083C61.4417 183.148 64.6547 181.252 64.6547 180.689L134.488 131.488C138.774 128.471 144.417 128.181 148.984 130.762C149.494 131.057 150.024 131.357 150.576 131.666Z" fill="#3C2F4B"/>
<path opacity="0.24" d="M88.3145 109.146C88.3145 109.146 88.3051 109.155 88.2911 109.183C88.2255 109.16 88.2302 109.146 88.3145 109.146Z" fill="#3C2F4B"/>
<path d="M125.172 92.225V106.398H128.229V101.599H131.003C134.04 101.599 136.105 99.7164 136.105 96.9223C136.105 94.108 134.04 92.225 131.003 92.225H125.172ZM128.229 98.866V94.9583H130.841C132.279 94.9583 133.008 95.7075 133.008 96.9223C133.008 98.1169 132.279 98.866 130.841 98.866H128.229Z" fill="#46B2C8"/>
<path d="M149.654 106.398L144.572 92.225H140.623L135.541 106.398H138.659L139.733 103.28H145.402L146.475 106.398H149.654ZM142.567 94.9786L144.531 100.729H140.603L142.567 94.9786Z" fill="#46B2C8"/>
<path d="M156.033 106.56C159.495 106.56 161.581 104.657 161.581 102.025C161.581 99.9594 160.285 98.6028 157.693 98.1371L155.648 97.7524C154.008 97.469 153.502 96.983 153.502 96.2744C153.502 95.3228 154.332 94.6749 155.81 94.6749C157.369 94.6749 158.26 95.3835 158.402 96.5579H161.399C161.297 93.8447 159.111 92.063 155.891 92.063C152.652 92.063 150.485 93.8852 150.485 96.4364C150.485 98.4206 151.801 99.7164 154.272 100.162L156.296 100.547C157.997 100.85 158.564 101.377 158.564 102.207C158.564 103.199 157.774 103.928 156.195 103.928C154.555 103.928 153.462 103.138 153.361 101.802H150.384C150.404 104.677 152.611 106.56 156.033 106.56Z" fill="#46B2C8"/>
<path d="M168.648 106.56C172.11 106.56 174.196 104.657 174.196 102.025C174.196 99.9594 172.9 98.6028 170.308 98.1371L168.263 97.7524C166.623 97.469 166.117 96.983 166.117 96.2744C166.117 95.3228 166.947 94.6749 168.425 94.6749C169.984 94.6749 170.875 95.3835 171.017 96.5579H174.014C173.912 93.8447 171.726 92.063 168.506 92.063C165.267 92.063 163.1 93.8852 163.1 96.4364C163.1 98.4206 164.416 99.7164 166.887 100.162L168.911 100.547C170.612 100.85 171.179 101.377 171.179 102.207C171.179 103.199 170.389 103.928 168.81 103.928C167.17 103.928 166.077 103.138 165.975 101.802H162.999C163.019 104.677 165.226 106.56 168.648 106.56Z" fill="#46B2C8"/>
<path d="M189.425 101.68L186.571 92.225H183.655L180.8 101.62L178.31 92.225H175.09L179.12 106.398H182.136L185.052 96.6996L187.988 106.398H191.065L195.095 92.225H191.936L189.425 101.68Z" fill="#46B2C8"/>
<path d="M202.911 106.56C206.96 106.56 210.079 103.604 210.079 99.3115C210.079 95.0191 206.96 92.063 202.911 92.063C198.882 92.063 195.744 95.0191 195.744 99.3115C195.744 103.604 198.882 106.56 202.911 106.56ZM202.911 103.746C200.583 103.746 198.882 101.984 198.882 99.3115C198.882 96.6388 200.583 94.8773 202.911 94.8773C205.239 94.8773 206.96 96.6388 206.96 99.3115C206.96 101.984 205.239 103.746 202.911 103.746Z" fill="#46B2C8"/>
<path d="M223.749 106.398L220.348 101.053C222.211 100.425 223.365 98.9065 223.365 96.8616C223.365 94.108 221.3 92.225 218.323 92.225H212.31V106.398H215.367V101.458H217.23L220.287 106.398H223.749ZM218.161 94.9583C219.538 94.9583 220.287 95.7075 220.287 96.8616C220.287 98.0157 219.538 98.7648 218.161 98.7648H215.367V94.9583H218.161Z" fill="#46B2C8"/>
<path d="M225.854 92.225V106.398H230.43C234.803 106.398 237.84 103.746 237.84 99.3115C237.84 94.8773 234.803 92.225 230.43 92.225H225.854ZM228.911 103.584V95.0393H230.47C233.143 95.0393 234.702 96.5376 234.702 99.3115C234.702 102.085 233.143 103.584 230.47 103.584H228.911Z" fill="#46B2C8"/>
<path d="M158.722 259.009C158.722 259.009 137.144 269.192 146.385 303.57" stroke="#3C2F4B" stroke-width="3.27856" stroke-miterlimit="10" stroke-linecap="round" stroke-linejoin="round"/>
</g>
</svg>
