<svg width="430" height="469" viewBox="0 0 430 469" fill="none" xmlns="http://www.w3.org/2000/svg">
<g clip-path="url(#clip0)">
<path d="M429.909 100.457V354.511C429.909 355.044 429.885 355.577 429.833 356.101C429.833 356.125 429.828 356.153 429.824 356.177C429.824 356.21 429.819 356.244 429.814 356.277C429.733 357.086 429.59 357.886 429.39 358.666C428.562 361.96 426.758 364.963 424.174 367.257L416.15 374.377L413.408 376.804L403.485 385.6L397.892 390.554L397.621 390.792L397.616 390.797L384.28 402.619L374.576 411.215L373.986 411.743L366.985 417.945L363.986 420.601L361.959 422.4L359.032 424.994L357.913 425.984L354.743 428.796L354.248 429.234L351.298 431.852L348.68 434.175L348.466 434.365C348.461 434.365 348.461 434.365 348.461 434.365L348.142 434.646C348.142 434.65 348.137 434.65 348.137 434.65L347.357 435.341L345.077 437.363L337.643 443.95L327.077 453.317L324.911 455.235L321.87 457.929L316.354 462.817L315.764 463.34C314.655 464.311 313.436 465.125 312.142 465.772C309.8 466.943 307.201 467.567 304.536 467.567H89.6521C88.862 467.567 88.0862 467.514 87.3295 467.41C79.0195 466.277 72.6133 459.152 72.6133 450.533V100.457C72.6133 91.0475 80.2427 83.4229 89.6521 83.4229H412.875C422.285 83.4229 429.909 91.0475 429.909 100.457Z" fill="#075865"/>
<path d="M267.629 256.881C228.73 266.296 207.702 256.425 196.337 242.989C195.009 241.423 193.814 239.809 192.739 238.167C189.697 233.532 187.599 228.71 186.161 224.284C182.968 214.451 182.963 206.46 182.963 206.417L196.913 200.33C201.32 198.407 204.28 194.176 204.571 189.374L206.051 165.086L207.436 142.312L262.051 123.879L266.72 164.015L267.191 168.085C267.514 170.878 268.904 173.377 270.993 175.119C271.931 175.904 273.011 176.533 274.197 176.966L295.4 184.728C302.525 236.659 267.629 256.881 267.629 256.881Z" fill="#D86E6C"/>
<path opacity="0.24" d="M286.366 231.456L274.987 247.214L239.324 259.227L196.337 242.988L194.738 242.384L192.739 238.167L186.161 224.283C182.968 214.45 182.963 206.459 182.963 206.417L196.913 200.329C201.32 198.406 204.28 194.175 204.571 189.373L206.051 165.086L232.861 175.533L255.087 168.522L266.715 164.015H266.72L267.191 168.084C267.514 170.878 268.904 173.376 270.993 175.118C264.911 183.371 249.49 198.049 217.326 196.802C217.326 196.802 206.974 248.333 286.366 231.456Z" fill="#3C2F4B"/>
<path d="M182.963 206.413L196.913 200.325C201.32 198.402 204.28 194.171 204.571 189.369L206.508 157.49" stroke="#3C2F4B" stroke-width="3.33161" stroke-miterlimit="10" stroke-linecap="round" stroke-linejoin="round"/>
<path d="M206.506 157.489L207.429 142.312" stroke="#3C2F4B" stroke-width="3.33161" stroke-miterlimit="10" stroke-linecap="round" stroke-linejoin="round"/>
<path d="M226.791 164.358C226.791 164.358 234.887 200.835 220.775 216.346" stroke="#3C2F4B" stroke-width="3.33161" stroke-miterlimit="10" stroke-linecap="round" stroke-linejoin="round"/>
<path opacity="0.24" d="M319.553 6.98231C319.657 6.89664 319.686 6.96803 319.643 7.19649C319.381 7.2298 319.339 7.15841 319.553 6.98231Z" fill="#3C2F4B"/>
<path d="M178.849 91.0577V91.0672C178.235 96.669 177.145 101.847 177.145 101.847C176.798 101.5 176.346 100.91 175.827 100.148C173.88 97.3258 170.953 92.0905 168.659 87.5309C168.526 87.2549 168.388 86.9836 168.255 86.7123C167.75 85.6938 167.289 84.7276 166.879 83.8376C166.722 83.4854 166.57 83.1427 166.427 82.8191C166.375 82.7048 166.327 82.5906 166.28 82.4811C166.18 82.2575 166.094 82.0433 166.008 81.8386C166.008 81.8339 166.008 81.8339 166.008 81.8339C165.942 81.6768 165.885 81.5293 165.827 81.3865C165.77 81.2437 165.718 81.1057 165.67 80.9724C165.618 80.8439 165.57 80.7106 165.528 80.5917C165.513 80.5536 165.504 80.5155 165.485 80.4774C165.375 80.1585 165.299 79.8873 165.247 79.6636C164.561 76.6604 169.606 72.3959 172.691 70.8062C172.786 70.7539 172.871 70.7111 172.962 70.673C173.447 70.435 173.88 70.2779 174.214 70.2065C175.561 69.9353 176.75 70.3589 177.555 70.792C178.221 71.1442 178.616 71.5106 178.616 71.5106C178.616 71.5106 178.568 71.9818 178.559 72.9718C178.535 74.5234 178.607 77.3457 179.106 81.6197C179.406 84.2421 179.211 87.7213 178.849 91.0577Z" fill="#D86E6C"/>
<path d="M168.655 87.5359C168.513 87.2599 168.379 86.9838 168.251 86.7173C167.746 85.6988 167.285 84.7326 166.875 83.8426C166.718 83.4904 166.566 83.1477 166.423 82.8241C166.371 82.7098 166.323 82.5956 166.276 82.4862C166.176 82.2625 166.09 82.0483 166.004 81.8436C166.004 81.8389 166.004 81.8389 166.004 81.8389C165.938 81.6818 165.881 81.5343 165.824 81.3915C165.766 81.2487 165.714 81.1107 165.667 80.9774C165.614 80.8489 165.567 80.7156 165.524 80.5967C165.509 80.5586 165.5 80.5205 165.481 80.4824C165.376 80.1683 165.295 79.8923 165.243 79.6686C164.558 76.6654 169.603 72.4009 172.687 70.8112C172.782 70.7589 172.868 70.7161 172.958 70.678C173.443 70.44 173.877 70.2829 174.21 70.2163C175.557 69.945 176.751 70.3686 177.551 70.8017C178.217 71.1539 178.612 71.5204 178.612 71.5204" stroke="#3C2F4B" stroke-width="3.33161" stroke-miterlimit="10" stroke-linecap="round" stroke-linejoin="round"/>
<path d="M286.74 71.3536C287.23 71.5155 291.851 68.8454 293.588 70.3732C296.33 72.7862 300.214 77.4552 300.275 81.1343C300.323 84.1423 287.882 104.456 287.882 104.456L284.455 81.1343L286.74 71.3536Z" fill="#D86E6C"/>
<path opacity="0.24" d="M285.834 91.4435L291.769 79.464L294.111 78.2646L296.719 83.2145C296.719 83.2145 290.098 95.4272 287.914 98.7207L285.834 91.4435Z" fill="#3C2F4B"/>
<path d="M293.586 70.3779C296.327 72.791 300.211 77.46 300.273 81.139C300.292 82.2813 298.507 85.927 296.285 90.0059" stroke="#3C2F4B" stroke-width="3.33161" stroke-miterlimit="10" stroke-linecap="round" stroke-linejoin="round"/>
<path d="M200.021 13.4937L173.973 30.5516L178.789 84.7188L179.246 132.261L188.551 153.041L210.563 164.511L237.545 177.847L262.041 164.82L278.785 144.045L289.327 107.455L284.368 67.4515L289.018 33.0313L280.337 20.9375L230.719 7.60156L200.021 13.4937Z" fill="#D86E6C"/>
<path opacity="0.24" d="M214.918 120.433C214.918 120.433 206.313 135.734 208.906 150.688C208.906 150.688 221.7 159.646 225.593 160.602C229.486 161.559 241.747 160.974 247.667 160.155C253.588 159.336 244.502 169.717 244.502 169.717L209.644 165.509L196.518 155.624L202.41 142.274L206.489 126.515L213.904 118.286L214.918 120.433Z" fill="#3C2F4B"/>
<path opacity="0.24" d="M289.329 30.7695C289.329 30.7695 289.029 33.035 289.019 33.0302C287.806 32.421 228.156 0.0520429 187.096 33.5109V67.8598C187.096 67.8598 188.647 67.3029 190.789 66.6604C193.669 65.799 197.628 64.79 200.341 64.79C200.341 64.79 199.489 65.2945 198.295 66.0512C197.714 66.4224 199.494 66.827 198.814 67.2887C196.296 68.9925 193.835 69.616 193.835 70.6726C193.835 71.0772 190.946 73.2237 190.737 73.9995C190.532 74.7848 190.242 75.7414 189.923 76.7933C189.085 79.5775 191.256 82.2523 190.965 85.1984L195.439 94.0034L208.823 98.8628L208.832 97.8205L219.117 92.7231C219.117 92.7231 219.117 92.7279 219.113 92.7326C219.113 92.7374 219.108 92.7422 219.098 92.7564C218.679 93.4989 211.188 106.14 192.607 104.455C192.607 104.455 189.923 122.213 196.639 134.359C196.639 134.359 200.527 126.463 208.98 121.265C212.012 119.405 215.629 117.886 219.865 117.21C219.865 117.21 201.155 136.591 202.007 155.524C202.079 157.042 201.879 158.18 201.446 158.984C198.799 163.996 187.477 156.462 177.601 148.447C176.492 141.131 173.241 117.491 175.383 105.155C175.697 103.356 175.992 101.685 176.273 100.148C174.245 97.3255 171.19 92.0901 168.796 87.5306C168.653 87.2545 168.515 86.9832 168.372 86.7119C167.844 85.6934 167.368 84.7272 166.935 83.8372C166.773 83.485 166.616 83.1424 166.464 82.8187C166.411 82.7045 166.359 82.5903 166.311 82.4808C166.207 82.2571 166.116 82.0429 166.031 81.8383C166.031 81.8335 166.031 81.8335 166.031 81.8335C165.959 81.6765 165.902 81.5289 165.84 81.3861C165.778 81.2433 165.726 81.1053 165.678 80.9721C165.626 80.8436 165.574 80.7103 165.531 80.5913C165.517 80.5532 165.502 80.5151 165.488 80.4771C165.374 80.1582 165.293 79.8869 165.236 79.6632C164.522 76.66 169.781 72.3955 172.998 70.8059L170.823 70.0349L171.823 67.2839L172.132 67.3934C167.663 54.0812 164.293 36.3856 173.103 26.6811C188.448 9.78986 208.052 2.15572 229.931 0.251939C248.098 -1.33295 267.792 9.05214 284.069 22.2739L288.32 25.0296L289.329 30.7695Z" fill="#3C2F4B"/>
<path d="M290.774 26.6911C289.913 25.5774 289.004 24.4923 288.061 23.4547C286.196 21.3748 284.178 19.4425 282.055 17.6387C268.567 6.21127 250.504 0.371441 234.608 0.0192425C234.551 0.0192425 234.494 0.0144831 234.446 0.0192425C231.995 -0.0378707 229.606 0.0477992 227.288 0.257215C206.308 2.16099 187.509 9.79513 172.792 26.6911C166.596 33.8017 166.676 45.2101 168.856 56.0379C169.637 59.9454 170.693 63.7767 171.826 67.2987C171.826 67.3034 171.831 67.3034 171.831 67.3082C171.836 67.3225 171.84 67.3368 171.845 67.351C171.845 67.3701 171.855 67.3796 171.859 67.3986C172.221 68.5266 172.592 69.6261 172.959 70.6779C172.978 70.7302 172.997 70.7731 173.011 70.8159C173.016 70.8349 173.026 70.8492 173.026 70.8587C173.035 70.8921 173.049 70.9159 173.054 70.9492C175.101 76.7224 177.162 81.2962 178.166 83.4237C178.532 84.2042 178.761 84.6564 178.789 84.7182C178.789 84.723 178.789 84.723 178.789 84.723C178.789 84.723 177.775 88.9922 175.915 99.6296V99.6343C175.891 99.8009 175.857 99.977 175.829 100.153C175.558 101.695 175.277 103.356 174.972 105.16C172.916 117.496 176.034 141.137 177.1 148.447C177.204 149.213 177.29 149.794 177.347 150.17C177.404 150.503 177.523 150.813 177.704 151.098C179.432 153.754 189.222 168.013 205.333 176.842C205.542 176.961 205.756 177.075 205.97 177.189C212.648 180.754 220.382 183.367 229.063 183.848C230.534 183.929 232.033 183.953 233.556 183.905C245.179 183.558 254.521 180.388 261.851 176.257C264.25 174.905 266.434 173.448 268.41 171.959C277.909 164.782 282.612 156.729 283.521 155.058C283.635 154.858 283.711 154.653 283.759 154.425C284.544 150.741 291.788 116.359 290.498 107.34C290.251 105.579 289.941 103.623 289.613 101.595V101.586C289.375 100.139 289.123 98.6634 288.866 97.1975V97.1927C288.328 94.061 287.776 91.0007 287.309 88.4734V88.4687C286.909 86.2936 286.567 84.5041 286.362 83.4237C286.353 83.3666 286.343 83.3142 286.334 83.2618C286.334 83.2523 286.329 83.2523 286.329 83.2428C286.329 83.2428 286.324 83.2333 286.324 83.2285C286.324 83.2095 286.319 83.2 286.319 83.1857C286.205 82.5955 286.143 82.2719 286.143 82.2719C286.143 82.2719 286.162 82.2386 286.196 82.1767V82.1672C286.61 81.4152 289.146 76.6319 291.607 69.9307V69.9259C291.617 69.9069 291.626 69.8831 291.626 69.8593V69.8545C291.759 69.5071 291.883 69.1644 292.007 68.8122C293.358 64.9904 294.648 60.6164 295.5 56.0379C297.39 45.9478 297.152 34.8917 290.774 26.6911ZM253.86 156.762L247.677 160.155H247.673L241.171 163.72C240.824 163.915 240.434 164.015 240.038 164.015H223.604C223.166 164.015 222.733 163.892 222.357 163.658L206.727 153.954L204.419 152.521C203.586 152.017 203.338 151.198 203.31 150.327C203.291 149.804 203.353 149.266 203.419 148.761C203.714 146.424 203.99 144.111 204.352 141.827C204.847 138.695 205.513 135.616 206.637 132.589C208.245 128.258 210.701 125.078 213.714 122.841C214.599 122.185 215.527 121.609 216.494 121.114C220.32 119.134 224.77 118.315 229.411 118.31C239.596 118.301 246.135 122.242 250.124 127.905C255.502 135.53 256.263 146.277 255.088 154.706C254.969 155.558 254.612 156.348 253.86 156.762ZM270.646 147.552L265.154 150.565L264.631 150.851C263.06 151.717 260.899 150.56 261.137 148.785C262.336 139.885 260.528 131.941 256.544 125.735C249.81 115.236 236.859 109.71 221.715 112.966C215.061 114.389 208.293 118.291 204.295 123.788C203.705 124.602 203.167 125.44 202.686 126.301C199.602 131.78 198.546 138.191 197.784 144.483C197.58 146.191 195.671 147.095 194.205 146.191C193.753 145.906 193.401 145.482 193.229 144.973L179.494 106.169C179.389 105.86 179.346 105.536 179.365 105.217L180.926 83.4237L180.96 82.9287C180.964 82.8525 180.964 82.7764 180.964 82.7098L180.779 73.7953L180.774 73.4479L180.717 70.6779L180.707 70.3352V70.3305L180.407 56.0379L179.908 32.0788C179.889 31.265 180.288 30.4939 180.974 30.0513C218.059 5.9733 253.317 15.6017 271.484 23.7926C271.494 23.7926 271.494 23.7974 271.498 23.7974C271.513 23.7974 271.517 23.8069 271.522 23.8069C278.228 26.8339 282.597 29.6563 283.859 30.5082C284.059 30.6462 284.178 30.7319 284.22 30.7605C284.23 30.7652 284.235 30.77 284.235 30.77L283.968 56.0379C283.968 56.0379 283.825 69.488 283.821 69.7879C283.821 69.7926 283.821 69.7926 283.821 69.7926L283.792 72.8958V72.9005L283.692 81.8435C283.692 81.9435 283.697 82.0482 283.711 82.1481L283.863 83.4237L286.353 104.608C286.395 104.974 286.353 105.336 286.234 105.679L271.732 146.277C271.536 146.819 271.156 147.272 270.646 147.552Z" fill="#3C2F4B"/>
<path d="M217.697 99.877H245.611C245.611 99.877 244.488 107.754 231.88 107.754C219.273 107.754 217.697 99.877 217.697 99.877Z" fill="#B85052"/>
<path d="M223.209 80.6913V80.6866C222.776 75.0181 219.601 70.1206 215.008 67.3173C215.003 67.3173 215.003 67.3125 214.999 67.3125C212.386 65.7134 209.311 64.79 206.032 64.79C203.738 64.79 201.544 65.2422 199.545 66.0513C199.174 66.2036 198.817 66.3654 198.46 66.5415C197.984 66.7795 197.513 67.0317 197.065 67.3125C197.056 67.3125 197.056 67.3173 197.051 67.3173C194.571 68.826 192.51 70.9583 191.068 73.4808C191.059 73.4903 191.054 73.4998 191.049 73.5093C191.049 73.5141 191.044 73.5284 191.035 73.5331C190.992 73.6093 190.949 73.6807 190.911 73.7616V73.7663C190.835 73.8853 190.773 74.0138 190.707 74.1423L190.697 74.1519C190.369 74.8039 190.074 75.4797 189.831 76.1746C189.797 76.2698 189.764 76.3555 189.736 76.4507C189.126 78.1974 188.803 80.0678 188.803 82.0192C188.803 82.4904 188.822 82.9616 188.86 83.4232C189.574 92.2758 196.989 99.2436 206.032 99.2436C207.274 99.2436 208.483 99.1151 209.644 98.8629H209.659C212.828 98.1823 215.679 96.6259 217.94 94.4604C217.945 94.4604 217.954 94.4509 217.959 94.4461L217.964 94.4366C218.516 93.913 219.02 93.3562 219.496 92.7613C219.511 92.7422 219.515 92.7375 219.515 92.7375C221.586 90.1388 222.918 86.9262 223.194 83.4232C223.237 82.9568 223.256 82.4904 223.256 82.0192C223.256 81.5718 223.247 81.134 223.209 80.6913ZM220.063 84.2704C220.044 84.3989 220.02 84.5274 219.996 84.6559C219.982 84.7178 219.972 84.7749 219.958 84.8368C218.644 91.3287 212.905 96.2166 206.032 96.2166C199.592 96.2166 194.162 91.9331 192.415 86.0647C192.363 85.8886 192.32 85.7125 192.268 85.5364C192.258 85.5174 192.253 85.4936 192.249 85.4698C192.244 85.465 192.244 85.4603 192.244 85.4555C192.239 85.4365 192.234 85.4127 192.234 85.3889C192.187 85.1985 192.144 85.0177 192.106 84.8225C192.096 84.7892 192.087 84.7511 192.087 84.7178C192.063 84.6083 192.044 84.4941 192.025 84.3751C191.992 84.1848 191.963 83.9944 191.944 83.7992C191.93 83.6898 191.915 83.5755 191.906 83.4661C191.901 83.4518 191.901 83.4375 191.901 83.4232C191.892 83.3376 191.882 83.2519 191.882 83.1662C191.863 83.0139 191.854 82.8569 191.854 82.6998C191.839 82.5142 191.834 82.3286 191.834 82.143C191.83 82.1144 191.83 82.0906 191.83 82.062C191.83 81.8621 191.834 81.6623 191.849 81.4624C191.854 81.4195 191.854 81.3814 191.858 81.3386C191.877 80.8817 191.925 80.4296 191.987 79.9822C191.992 79.9298 192.001 79.8727 192.011 79.8204C192.044 79.6157 192.077 79.4158 192.12 79.2111C193.415 72.7097 199.15 67.817 206.032 67.817C212.643 67.817 218.207 72.3385 219.772 78.4544C219.834 78.6781 219.891 78.9018 219.934 79.135C220.034 79.5919 220.106 80.0631 220.153 80.539V80.5438C220.172 80.6866 220.186 80.8198 220.191 80.9626C220.196 81.0578 220.206 81.1435 220.21 81.2387V81.2625C220.225 81.5004 220.234 81.7432 220.234 81.9907V82.1477C220.234 82.3095 220.229 82.4714 220.22 82.6332C220.22 82.6713 220.22 82.7093 220.215 82.7474C220.21 82.8426 220.206 82.9378 220.196 83.033C220.191 83.1282 220.182 83.2234 220.172 83.3233C220.167 83.3566 220.167 83.3899 220.163 83.4232C220.158 83.5089 220.148 83.5946 220.139 83.6803C220.12 83.8754 220.096 84.0753 220.063 84.2704Z" fill="#3C2F4B"/>
<path d="M272.18 78.4068C272.118 78.0974 272.042 77.7976 271.957 77.4882C271.785 76.8505 271.576 76.2222 271.328 75.6178C271.209 75.3227 271.09 75.0419 270.952 74.7563V74.7515C269.558 71.7436 267.316 69.2163 264.537 67.4506C264.532 67.4506 264.532 67.4506 264.532 67.4458C264.532 67.441 264.532 67.441 264.527 67.441C261.867 65.761 258.716 64.79 255.337 64.79C251.962 64.79 248.816 65.761 246.156 67.441C246.156 67.441 246.156 67.441 246.156 67.4458C246.156 67.4458 246.151 67.4458 246.151 67.4506C241.667 70.2777 238.574 75.118 238.165 80.7008V80.7104C238.126 81.1435 238.107 81.5766 238.107 82.0192C238.107 82.4904 238.126 82.9616 238.165 83.4232C238.878 92.2758 246.294 99.2436 255.337 99.2436C264.38 99.2436 271.79 92.2758 272.504 83.4232C272.542 82.9616 272.561 82.4904 272.561 82.0192C272.561 80.7818 272.433 79.5729 272.18 78.4068ZM264.494 92.866C264.318 93.0135 264.146 93.1563 263.965 93.2848C261.571 95.1267 258.587 96.2166 255.337 96.2166C247.969 96.2166 241.91 90.6052 241.201 83.4232C241.158 82.9616 241.134 82.4952 241.134 82.0192C241.134 78.0594 242.757 74.4898 245.361 71.9197H245.366C245.523 71.7483 245.684 71.6008 245.851 71.4485C245.851 71.4485 245.851 71.4533 245.856 71.4485C245.975 71.3343 246.094 71.2296 246.222 71.1249C246.27 71.0868 246.317 71.0439 246.37 71.0059C248.816 69.0164 251.934 67.817 255.337 67.817C260.972 67.817 265.836 71.0915 268.13 75.851C268.549 76.7172 268.882 77.631 269.12 78.5924C269.396 79.6871 269.539 80.8389 269.539 82.0192C269.539 82.4904 269.515 82.9616 269.467 83.4232C269.12 87.0071 267.43 90.2007 264.913 92.4995C264.779 92.628 264.637 92.747 264.494 92.866Z" fill="#3C2F4B"/>
<path d="M168.342 80.815C168.342 80.815 169.646 78.045 171.278 78.697C172.911 79.3491 177.965 87.8304 177.965 87.8304" stroke="#3C2F4B" stroke-width="3.33161" stroke-miterlimit="10" stroke-linecap="round" stroke-linejoin="round"/>
<path d="M296.194 82.4426C296.194 82.4426 294.238 78.0401 292.116 79.1824C289.993 80.3247 287.385 88.4776 287.385 88.4776" stroke="#3C2F4B" stroke-width="3.33161" stroke-miterlimit="10" stroke-linecap="round" stroke-linejoin="round"/>
<path d="M221.98 81.5007C221.98 81.5007 230.476 74.7471 239.148 81.4055" stroke="#3C2F4B" stroke-width="3.33161" stroke-miterlimit="10" stroke-linecap="round" stroke-linejoin="round"/>
<path d="M269.537 78.4215L292.073 69.6831L291.835 66.6895L268.471 75.7086L269.537 78.4215Z" fill="#3C2F4B"/>
<path d="M191.971 74.1179L191.705 77.1116L190.758 76.7927L188.897 76.174L181.81 73.7942L179.364 72.9756L178.436 72.6615L173.3 70.9481L172.896 70.8101L170.602 70.039L171.658 67.2881L171.982 67.3976L178.121 69.4631L181.734 70.6768L190.229 73.5325L191.619 73.9989L191.971 74.1179Z" fill="#3C2F4B"/>
<path d="M191.973 67.3116H220.525C220.525 67.3116 215.146 59.9868 205.137 60.2676C195.128 60.5484 191.973 67.3116 191.973 67.3116Z" fill="#3C2F4B"/>
<path d="M240.27 67.4464H268.821C268.821 67.4464 263.443 60.1216 253.434 60.4024C243.42 60.6785 240.27 67.4464 240.27 67.4464Z" fill="#3C2F4B"/>
<path d="M206.184 84.2321C208.768 84.2321 210.863 82.1374 210.863 79.5535C210.863 76.9696 208.768 74.875 206.184 74.875C203.601 74.875 201.506 76.9696 201.506 79.5535C201.506 82.1374 203.601 84.2321 206.184 84.2321Z" fill="#3C2F4B"/>
<path opacity="0.44" d="M220.234 81.9855C220.277 89.8291 213.951 96.2163 206.108 96.2591C198.264 96.3019 191.877 89.9814 191.834 82.1378C191.791 74.2895 198.112 67.9024 205.955 67.8548C213.799 67.8072 220.191 74.142 220.234 81.9855Z" fill="#F89521"/>
<path d="M255.944 84.2321C258.528 84.2321 260.623 82.1374 260.623 79.5535C260.623 76.9696 258.528 74.875 255.944 74.875C253.36 74.875 251.266 76.9696 251.266 79.5535C251.266 82.1374 253.36 84.2321 255.944 84.2321Z" fill="#3C2F4B"/>
<path opacity="0.44" d="M269.632 81.8576C269.675 89.7012 263.35 96.0883 255.506 96.1312C247.663 96.174 241.275 89.8535 241.233 82.0099C241.19 74.1616 247.51 67.7744 255.354 67.7268C263.197 67.6792 269.589 74.0093 269.632 81.8576Z" fill="#F89521"/>
<path d="M429.909 314.571V354.512C429.909 355.045 429.885 355.578 429.833 356.101C429.833 356.125 429.828 356.154 429.824 356.178C427.848 356.13 425.012 356.082 421.509 356.082C420.59 356.082 419.629 356.087 418.625 356.101C418.52 356.101 418.41 356.101 418.306 356.106C418.301 356.101 418.301 356.106 418.301 356.106C418.282 356.101 418.272 356.101 418.253 356.106C418.177 356.106 418.096 356.111 418.015 356.111C415.974 356.14 413.765 356.201 411.419 356.301C411.11 356.316 410.795 356.33 410.477 356.344C410.158 356.358 409.839 356.373 409.52 356.392C409.196 356.406 408.873 356.425 408.544 356.444C408.054 356.468 407.559 356.496 407.059 356.53C406.812 356.544 406.56 356.558 406.307 356.577C406.055 356.592 405.803 356.611 405.546 356.625C405.103 356.658 404.66 356.687 404.208 356.72C402.247 356.868 400.22 357.039 398.145 357.253C397.783 357.287 397.417 357.325 397.05 357.367C396.312 357.444 395.575 357.525 394.827 357.615C394.456 357.658 394.08 357.701 393.704 357.748C393.285 357.801 392.871 357.848 392.448 357.901C391.31 358.048 390.158 358.205 388.997 358.381C388.659 358.429 388.321 358.476 387.979 358.529C387.593 358.586 387.208 358.648 386.817 358.71C383.7 359.2 380.521 359.776 377.322 360.452C376.937 360.537 376.551 360.623 376.161 360.709C374.571 361.056 372.982 361.432 371.387 361.832L371.311 361.851C370.702 362.003 370.116 362.213 369.56 362.474C369.331 362.579 369.107 362.693 368.889 362.822C365.914 364.497 363.986 367.681 363.986 371.227V420.601L361.959 422.4L359.032 424.994L357.913 425.984L354.743 428.797L354.248 429.235L351.298 431.853L348.68 434.175H185.069C180.162 434.175 145.457 431.753 144.757 426.893L144.614 415.047L144.552 410.107L144.452 401.873L144.3 389.28L144.119 374.235L143.862 353.265L143.819 349.638V349.633L143.686 338.706L143.505 323.566L84.5738 324.965L80.9805 325.051C80.9995 324.27 81.0233 323.499 81.0519 322.728V322.681C81.0757 322.091 81.0995 321.505 81.1233 320.924C81.128 320.863 81.128 320.796 81.1328 320.734C81.1471 320.42 81.1613 320.111 81.1804 319.801C81.2042 319.273 81.2327 318.749 81.266 318.226C81.2803 317.931 81.2994 317.636 81.3184 317.341C81.3898 316.208 81.4707 315.085 81.5611 313.976C81.5802 313.728 81.604 313.481 81.623 313.238C81.6849 312.519 81.7515 311.805 81.8229 311.096C81.8705 310.587 81.9181 310.082 81.9752 309.578C81.9895 309.416 82.0085 309.25 82.0276 309.088C82.0989 308.431 82.1703 307.774 82.2512 307.127C82.3179 306.551 82.3893 305.975 82.4654 305.404C82.494 305.171 82.5225 304.937 82.5558 304.709C82.6177 304.243 82.6843 303.776 82.751 303.315C82.7748 303.11 82.8081 302.91 82.8367 302.71C82.9223 302.11 83.0128 301.515 83.1079 300.921C83.1793 300.459 83.2507 299.997 83.3316 299.54C83.3364 299.493 83.3459 299.44 83.3554 299.388C83.4173 298.998 83.4839 298.607 83.5553 298.217C83.622 297.832 83.6886 297.441 83.76 297.061C83.8314 296.675 83.898 296.29 83.9742 295.909C84.0456 295.528 84.1169 295.147 84.1931 294.767C84.2692 294.372 84.3454 293.976 84.4263 293.586C84.5025 293.229 84.5738 292.872 84.65 292.52C84.769 291.944 84.8927 291.368 85.0212 290.802C85.1212 290.35 85.2211 289.902 85.3306 289.46C85.5162 288.655 85.7066 287.865 85.9017 287.08C86.016 286.618 86.1349 286.157 86.2539 285.7C86.3824 285.2 86.5109 284.705 86.649 284.215C86.6918 284.039 86.7394 283.867 86.7917 283.696C86.925 283.201 87.063 282.706 87.2011 282.221C87.5342 281.059 87.8769 279.912 88.2291 278.789C88.3766 278.313 88.5289 277.847 88.6765 277.38C89.3571 275.286 90.071 273.263 90.8135 271.303C90.9229 271.012 91.0324 270.722 91.1419 270.436C91.4179 269.722 91.6987 269.013 91.9843 268.318C92.1176 267.976 92.2603 267.633 92.4031 267.295C92.4412 267.195 92.4793 267.1 92.5269 267C92.6506 266.691 92.7839 266.381 92.9171 266.072C93.0837 265.682 93.2503 265.296 93.4169 264.911C93.4216 264.901 93.4264 264.892 93.4312 264.882C93.6929 264.292 93.9547 263.706 94.2165 263.131C94.4021 262.731 94.5829 262.336 94.7686 261.941C96.2488 258.795 97.7861 255.858 99.3614 253.126C99.6184 252.679 99.8754 252.236 100.132 251.803C100.389 251.365 100.651 250.927 100.918 250.499C101.084 250.213 101.26 249.933 101.437 249.652C102.331 248.21 103.231 246.83 104.135 245.511C104.311 245.249 104.492 244.988 104.673 244.731C105.144 244.055 105.615 243.393 106.082 242.751C106.282 242.479 106.477 242.213 106.672 241.951C107 241.508 107.324 241.075 107.652 240.652C107.9 240.328 108.147 240.004 108.4 239.69C108.666 239.348 108.933 239.014 109.199 238.681C109.466 238.353 109.732 238.025 109.994 237.706C110.256 237.387 110.522 237.068 110.784 236.759C111.569 235.83 112.34 234.945 113.102 234.108C113.321 233.865 113.535 233.627 113.754 233.394C113.811 233.332 113.863 233.27 113.921 233.213C114.387 232.703 114.853 232.218 115.306 231.747C116.005 231.019 116.691 230.333 117.352 229.691C118.742 228.334 120.032 227.159 121.193 226.15C121.35 226.016 121.512 225.878 121.678 225.745C122.859 224.789 124.329 223.837 126.029 222.885C126.248 222.761 126.466 222.642 126.69 222.523C128.099 221.762 129.655 221.005 131.316 220.258C131.492 220.177 131.673 220.096 131.854 220.015C132.221 219.853 132.587 219.696 132.958 219.534C133.33 219.377 133.706 219.215 134.086 219.058C134.272 218.982 134.458 218.906 134.643 218.825C136.637 218.011 138.741 217.207 140.907 216.421C141.259 216.293 141.611 216.164 141.968 216.041C143.658 215.441 145.38 214.856 147.118 214.284C147.541 214.142 147.965 214.004 148.388 213.866C151.235 212.947 154.095 212.067 156.889 211.248C157.531 211.058 158.169 210.872 158.802 210.691C159.226 210.567 159.644 210.448 160.063 210.329C160.482 210.21 160.896 210.091 161.31 209.977C162.134 209.744 162.948 209.515 163.747 209.297C164.347 209.13 164.937 208.968 165.522 208.811C165.718 208.759 165.913 208.706 166.103 208.654C166.489 208.549 166.869 208.449 167.245 208.349C168.235 208.083 169.192 207.831 170.111 207.593C170.401 207.517 170.686 207.445 170.967 207.369C173.785 206.641 176.226 206.041 178.106 205.584C178.43 205.508 178.735 205.432 179.025 205.365C179.172 205.327 179.311 205.294 179.449 205.265C180.181 205.089 180.786 204.946 181.238 204.842C181.338 204.818 181.428 204.799 181.509 204.78C181.823 204.704 182.042 204.656 182.147 204.632C182.166 204.628 182.18 204.623 182.195 204.623C182.214 204.618 182.228 204.613 182.228 204.613L182.961 206.56L195.526 239.843C196.088 241.323 196.987 242.632 198.139 243.669C198.848 244.312 199.648 244.854 200.523 245.268L200.59 245.302H200.595L228.975 258.799C230.584 259.566 232.369 259.885 234.144 259.713C235.496 259.585 237.28 259.418 239.322 259.228C239.322 259.228 239.322 259.228 239.327 259.228C248.941 258.333 264.262 256.958 267.175 256.986C267.408 256.991 267.56 257.005 267.627 257.024C267.779 257.077 268.26 256.696 268.993 255.996C272.391 252.736 281.177 242.47 287.302 235.216C288.901 233.322 290.32 231.633 291.414 230.329C292.904 228.548 293.718 226.307 293.718 223.989V198.079C293.718 195.918 294.422 193.819 295.731 192.101L296.117 191.596L301.228 184.871C301.228 184.871 301.233 184.871 301.247 184.881C302.194 185.19 340.256 197.769 368.831 207.959C387.898 214.76 402.704 230.057 408.906 249.323L429.909 314.571Z" fill="#F79653"/>
<path opacity="0.24" d="M181.267 230.661C181.267 229.652 181.252 228.643 181.219 227.639C181 220.186 179.972 212.937 178.206 205.979C178.173 205.846 178.14 205.717 178.106 205.584C176.226 206.041 173.785 206.641 170.967 207.369C170.686 207.445 170.401 207.516 170.111 207.592C169.192 207.83 168.235 208.083 167.245 208.349C166.869 208.449 166.489 208.549 166.103 208.654C165.913 208.706 165.718 208.759 165.522 208.811C164.937 208.968 164.347 209.13 163.747 209.296C162.948 209.515 162.134 209.744 161.31 209.977C160.896 210.091 160.482 210.21 160.063 210.329C159.645 210.448 159.226 210.567 158.802 210.691C158.169 210.872 157.531 211.057 156.889 211.248C154.095 212.066 151.235 212.947 148.388 213.865C147.965 214.003 147.541 214.141 147.118 214.284C145.38 214.855 143.658 215.441 141.968 216.04C141.611 216.164 141.259 216.293 140.907 216.421C138.741 217.207 136.637 218.011 134.643 218.825C134.458 218.906 134.272 218.982 134.086 219.058C133.706 219.215 133.33 219.377 132.958 219.534C132.587 219.696 132.221 219.853 131.854 220.015C131.673 220.096 131.492 220.176 131.316 220.257C129.655 221.005 128.099 221.761 126.69 222.523C126.466 222.642 126.248 222.761 126.029 222.885C124.329 223.836 122.859 224.788 121.678 225.745C121.512 225.878 121.35 226.016 121.193 226.15C120.032 227.159 118.742 228.334 117.352 229.691C117.357 230.009 117.362 230.338 117.362 230.661C117.362 246.391 107.395 259.784 93.4312 264.882C93.4264 264.891 93.4216 264.901 93.4169 264.91C93.2503 265.296 93.0837 265.681 92.9171 266.072C92.7839 266.381 92.6506 266.69 92.5269 267C92.4793 267.1 92.4412 267.195 92.4031 267.295C92.2603 267.633 92.1176 267.975 91.9843 268.318C91.6987 269.013 91.4179 269.722 91.1419 270.436C91.0324 270.722 90.9229 271.012 90.8135 271.302C90.071 273.263 89.3571 275.286 88.6765 277.38C88.5289 277.847 88.3766 278.313 88.2291 278.789C87.8769 279.912 87.5342 281.059 87.2011 282.22C87.063 282.706 86.925 283.201 86.7917 283.696C86.7394 283.867 86.6918 284.039 86.649 284.215C86.5109 284.705 86.3824 285.2 86.2539 285.7C86.1349 286.157 86.016 286.618 85.9017 287.08C85.7066 287.865 85.5162 288.655 85.3306 289.46C85.2211 289.902 85.1212 290.35 85.0212 290.802C84.8927 291.368 84.769 291.944 84.65 292.52C84.5738 292.872 84.5025 293.229 84.4263 293.586C84.3454 293.976 84.2692 294.371 84.1931 294.766C84.1169 295.147 84.0456 295.528 83.9742 295.909C83.898 296.289 83.8314 296.675 83.76 297.06C83.6886 297.441 83.622 297.831 83.5553 298.217C83.4839 298.607 83.4173 298.998 83.3554 299.388C83.3459 299.44 83.3364 299.492 83.3316 299.54C83.2507 299.997 83.1793 300.459 83.1079 300.92C83.0128 301.515 82.9223 302.11 82.8367 302.71C82.8081 302.91 82.7748 303.11 82.751 303.314C82.6843 303.776 82.6177 304.242 82.5558 304.709C82.5225 304.937 82.494 305.171 82.4654 305.404C82.3893 305.975 82.3179 306.551 82.2512 307.127C82.1703 307.774 82.0989 308.431 82.0276 309.088C82.0085 309.249 81.9895 309.416 81.9752 309.578C81.9181 310.082 81.8705 310.587 81.8229 311.096C81.7515 311.805 81.6849 312.519 81.623 313.238C81.604 313.48 81.5802 313.728 81.5611 313.975C81.4707 315.084 81.3898 316.208 81.3184 317.34C81.2994 317.635 81.2803 317.931 81.266 318.226C81.2327 318.749 81.2042 319.273 81.1804 319.801C81.1613 320.11 81.1471 320.42 81.1328 320.734C81.128 320.796 81.128 320.862 81.1233 320.924C81.0995 321.505 81.0757 322.09 81.0519 322.68V322.728C81.0233 323.499 80.9995 324.27 80.9805 325.051L84.5738 324.965L143.505 323.566L143.686 338.706C156.346 315.479 166.56 296.194 168.987 290.126C176.426 271.521 182.794 248.181 181.267 230.661Z" fill="#3C2F4B"/>
<path opacity="0.24" d="M429.909 352.293V354.511C429.909 355.044 429.885 355.577 429.833 356.1C429.833 356.124 429.828 356.153 429.823 356.177C429.823 356.21 429.819 356.243 429.814 356.277C423.531 356.319 408.701 356.643 392.666 358.533C388.159 359.061 383.557 359.718 379.021 360.522C378.931 360.536 378.835 360.555 378.745 360.574C375.628 361.136 372.553 361.759 369.559 362.473C364.671 363.635 360.012 365.015 355.814 366.652C355.781 366.662 355.747 366.676 355.714 366.685C353.001 367.752 350.493 368.918 348.237 370.207C348.218 370.217 348.199 370.226 348.185 370.236C347.975 370.355 347.766 370.474 347.561 370.598C345.134 372.04 343.025 373.625 341.321 375.371C341.207 375.486 341.098 375.6 340.993 375.719C340.945 375.766 340.903 375.809 340.86 375.857L341.012 376.323L341.341 377.332L345.838 391.139L345.933 391.43L345.957 391.506L354.248 429.234L351.297 431.852L348.68 434.174H327.053L345.077 437.363L337.642 443.95L327.076 453.317L324.911 455.235L321.87 457.929L316.353 462.817L315.763 463.34C314.654 464.311 313.436 465.125 312.141 465.772V285.666C312.141 285.666 306.045 211.528 367.584 225.568C367.584 225.568 348.837 235.058 344.153 260.602C344.153 260.602 358.579 253.749 374.709 260.598C374.709 260.598 365.68 266.652 359.631 282.443L376.099 345.125C376.099 345.125 417.087 341.532 429.909 352.293Z" fill="#3C2F4B"/>
<path d="M84.5699 324.965L80.9766 325.051C82.4282 265.639 109.053 236.706 121.189 226.15C133.283 215.631 182.224 204.608 182.224 204.608" stroke="#3C2F4B" stroke-width="3.33161" stroke-miterlimit="10" stroke-linecap="round" stroke-linejoin="round"/>
<path d="M301.231 184.728C304.667 212.076 300.47 260.551 249.434 265.853C179.256 273.14 176.52 206.607 176.52 206.607L191.102 201.139C191.102 201.139 193.382 256.258 245.788 251.26C294.211 246.644 287.058 189.873 285.692 181.268C285.611 180.759 286.087 180.345 286.577 180.488L301.231 184.728Z" fill="#F8EB92"/>
<path d="M347.367 369.466L340.861 371.593L341.485 391.14H351.051L347.367 369.466Z" fill="#3C2F4B"/>
<path d="M345.079 437.365L337.645 443.953L327.079 453.319L324.913 455.237L321.872 457.931L316.356 462.819L315.766 463.343C314.657 464.313 313.438 465.127 312.144 465.775C309.802 466.945 307.203 467.569 304.538 467.569H123.441V398.157L130.166 399.347L140.566 401.189L144.454 401.874L167.533 405.958L178.261 407.857L227.902 416.638L312.144 431.54L327.055 434.177L345.079 437.365Z" fill="#F79653"/>
<path opacity="0.24" d="M345.079 437.365L337.645 443.953L327.079 453.319L324.913 455.237L321.872 457.931L316.356 462.819L315.766 463.343C314.657 464.313 313.438 465.127 312.144 465.775C309.802 466.945 307.203 467.569 304.538 467.569H239.043C215.422 457.917 201.701 447.051 190.278 442.139C174.724 435.443 143.897 440.859 124.712 445.319C124.284 445.418 123.86 445.518 123.441 445.618V398.157L130.166 399.347L140.566 401.189L144.454 401.874L167.533 405.958L178.261 407.857L227.902 416.638L312.144 431.54L327.055 434.177L345.079 437.365Z" fill="#3C2F4B"/>
<path d="M124.865 467.335C124.494 408.089 124.242 406.614 124.865 410.459" stroke="#3C2F4B" stroke-width="3.33161" stroke-miterlimit="10" stroke-linecap="round" stroke-linejoin="round"/>
<path d="M176.52 206.607L191.102 201.139C191.102 201.139 192.968 246.287 232.172 251.156" stroke="#3C2F4B" stroke-width="3.33161" stroke-miterlimit="10" stroke-linecap="round" stroke-linejoin="round"/>
<path d="M301.231 184.729C304.667 212.076 300.47 260.551 249.434 265.853C179.256 273.14 176.52 206.608 176.52 206.608L191.102 201.139" stroke="#3C2F4B" stroke-width="3.33161" stroke-miterlimit="10" stroke-linecap="round" stroke-linejoin="round"/>
<path d="M200.801 231.485V231.456C200.801 231.023 200.796 230.59 200.791 230.162C200.782 229.448 200.768 228.739 200.744 228.029C200.734 227.787 200.725 227.539 200.715 227.296C200.649 225.593 200.534 223.903 200.382 222.223C200.349 221.88 200.316 221.538 200.282 221.2C200.254 220.914 200.225 220.633 200.192 220.352C200.168 220.11 200.139 219.862 200.111 219.619C199.916 217.982 199.687 216.359 199.416 214.751C199.359 214.408 199.302 214.07 199.24 213.737C198.873 211.662 198.44 209.61 197.945 207.578C197.755 206.802 197.555 206.031 197.346 205.265C197.331 205.208 197.317 205.151 197.303 205.094C197.203 204.722 197.098 204.356 196.993 203.989C196.884 203.594 196.77 203.199 196.651 202.804C196.532 202.409 196.413 202.014 196.289 201.624C196.246 201.467 196.199 201.315 196.146 201.162C196.099 201.015 196.056 200.867 196.004 200.724C195.975 200.629 195.946 200.539 195.918 200.448C195.789 200.058 195.661 199.668 195.532 199.278C195.523 199.249 195.513 199.221 195.504 199.192C195.38 198.835 195.256 198.473 195.128 198.116C194.985 197.712 194.842 197.312 194.695 196.912C194.561 196.546 194.423 196.179 194.285 195.813C194.138 195.427 193.99 195.046 193.843 194.67C193.695 194.29 193.543 193.909 193.386 193.533C193.076 192.776 192.758 192.024 192.434 191.282C192.272 190.911 192.106 190.539 191.939 190.168C191.772 189.797 191.601 189.43 191.43 189.059C191.334 188.854 191.239 188.655 191.144 188.455C191.039 188.226 190.93 188.003 190.82 187.779C190.673 187.469 190.521 187.165 190.368 186.86C190.192 186.499 190.011 186.142 189.826 185.785C189.388 184.928 188.94 184.081 188.474 183.238C188.312 182.938 188.146 182.643 187.979 182.348C187.432 181.368 186.861 180.397 186.275 179.436C186.066 179.088 185.856 178.745 185.642 178.403C185.428 178.06 185.214 177.722 184.995 177.379C183.291 174.724 181.468 172.154 179.531 169.679C161.169 146.215 132.584 131.137 100.482 131.137C93.4138 131.137 86.5173 131.87 79.8636 133.259C77.4125 133.773 74.9947 134.373 72.615 135.058C30.77 147.133 0.162029 185.718 0.162029 231.456C0.162029 231.456 -1.78934 250.684 7.9342 279.679C8.01035 279.917 8.09126 280.155 8.17217 280.393C10.9755 288.627 14.7116 297.631 19.6995 307.198C20.5658 308.854 21.4796 310.596 22.441 312.414C22.4553 312.438 22.4695 312.462 22.4838 312.49C24.6541 316.593 27.0576 321.076 29.6372 325.836C32.2978 330.757 35.1487 335.974 38.1186 341.375C40.5316 345.768 43.0256 350.285 45.5623 354.864C47.7707 358.852 50.0172 362.888 52.2731 366.938C53.8342 369.737 55.4001 372.545 56.966 375.344C57.0231 375.453 57.0849 375.563 57.1468 375.672C57.9369 377.076 58.7174 378.475 59.498 379.87C60.4118 381.507 61.3304 383.14 62.2394 384.763C62.7296 385.624 63.2103 386.485 63.691 387.347C64.0147 387.923 64.3383 388.494 64.6572 389.07H64.662V389.075C64.8904 389.484 65.1236 389.893 65.3521 390.303C66.6609 392.625 67.9555 394.929 69.2263 397.194C69.2977 397.323 69.3691 397.451 69.4452 397.58C70.5161 399.474 71.5727 401.349 72.615 403.196C72.7768 403.481 72.9339 403.767 73.0909 404.048C74.7758 407.032 76.4178 409.945 78.017 412.762C78.4643 413.552 78.907 414.333 79.3448 415.109C81.1677 418.336 82.9192 421.425 84.5755 424.347C94.0277 441.01 100.482 452.294 100.482 452.294C100.482 452.294 110.005 435.422 122.808 412.524C123.017 412.148 123.227 411.768 123.441 411.387C123.808 410.735 124.179 410.073 124.55 409.407V409.402C124.579 409.35 124.607 409.302 124.636 409.25C124.983 408.631 125.331 408.012 125.678 407.384C127.144 404.766 128.638 402.077 130.166 399.345C131.223 397.442 132.298 395.519 133.379 393.572C136.891 387.271 140.504 380.769 144.121 374.235C144.654 373.268 145.192 372.302 145.725 371.336C146.581 369.785 147.443 368.233 148.3 366.681C150.408 362.864 152.502 359.057 154.573 355.297C154.62 355.202 154.673 355.111 154.725 355.016C171.102 325.222 185.571 298.303 188.522 290.921C191.063 284.567 193.476 277.661 195.494 270.626C195.913 269.165 196.313 267.699 196.698 266.233C196.965 265.21 197.222 264.182 197.469 263.154C197.65 262.397 197.826 261.645 197.998 260.889C198.079 260.527 198.16 260.17 198.236 259.808C198.398 259.085 198.55 258.366 198.693 257.647C198.764 257.29 198.835 256.929 198.907 256.572C199.035 255.929 199.154 255.291 199.268 254.654C199.321 254.368 199.373 254.083 199.421 253.797C199.511 253.293 199.592 252.793 199.673 252.293C199.73 251.936 199.787 251.584 199.84 251.232C200.049 249.88 200.23 248.543 200.387 247.215V247.21C200.415 246.972 200.444 246.734 200.468 246.496C200.515 246.096 200.558 245.696 200.592 245.301C200.606 245.206 200.615 245.116 200.62 245.025C200.634 244.887 200.649 244.754 200.658 244.621C200.687 244.316 200.711 244.016 200.734 243.717C200.758 243.483 200.777 243.25 200.791 243.022C200.801 242.888 200.811 242.76 200.82 242.631C200.863 242.07 200.896 241.513 200.92 240.956C200.939 240.647 200.953 240.342 200.963 240.037C201.006 238.995 201.029 237.962 201.029 236.944C201.029 235.073 200.958 233.251 200.801 231.485ZM72.615 254.896C67.2797 248.566 64.067 240.385 64.067 231.456C64.067 222.527 67.2797 214.351 72.615 208.016C77.8218 201.829 85.0514 197.402 93.29 195.751C95.6126 195.284 98.0209 195.042 100.482 195.042C116.154 195.042 129.509 204.937 134.645 218.825C136.101 222.761 136.896 227.016 136.896 231.456C136.896 251.57 120.595 267.871 100.482 267.871C97.7496 267.871 95.0843 267.571 92.5285 267C92.5237 267 92.5237 267 92.5237 267C91.0293 266.667 89.5729 266.243 88.1593 265.734C82.0577 263.54 76.7129 259.761 72.615 254.896Z" fill="#38B3C6"/>
<path d="M179.531 169.679C181.468 172.154 183.291 174.724 184.995 177.379C185.214 177.717 185.428 178.06 185.642 178.403C185.857 178.745 186.071 179.088 186.275 179.436C186.861 180.397 187.432 181.368 187.979 182.348C188.146 182.643 188.312 182.939 188.474 183.238C188.941 184.081 189.388 184.928 189.826 185.785C190.012 186.142 190.192 186.499 190.369 186.86C190.521 187.165 190.673 187.469 190.821 187.779C190.93 188.003 191.04 188.226 191.144 188.455C191.239 188.655 191.335 188.854 191.43 189.059C191.601 189.426 191.773 189.797 191.939 190.168C192.106 190.539 192.272 190.911 192.434 191.282C192.758 192.024 193.077 192.776 193.386 193.533C193.543 193.909 193.695 194.29 193.843 194.671C193.99 195.047 194.138 195.427 194.286 195.813C194.424 196.175 194.562 196.541 194.695 196.912C194.842 197.312 194.985 197.712 195.128 198.116C195.256 198.473 195.38 198.83 195.504 199.192C195.513 199.221 195.523 199.249 195.532 199.278C195.666 199.668 195.794 200.058 195.918 200.448C195.951 200.539 195.98 200.629 196.008 200.725C196.056 200.867 196.104 201.015 196.146 201.162C196.199 201.315 196.246 201.467 196.289 201.624C196.418 202.014 196.537 202.409 196.651 202.804C196.77 203.199 196.884 203.594 196.994 203.99C197.103 204.356 197.203 204.727 197.303 205.094C197.317 205.151 197.332 205.208 197.346 205.265C197.555 206.031 197.755 206.802 197.946 207.578C198.441 209.61 198.874 211.662 199.24 213.737C199.302 214.075 199.359 214.413 199.416 214.751C199.687 216.359 199.916 217.982 200.111 219.62C200.14 219.862 200.168 220.11 200.192 220.352C200.225 220.633 200.254 220.914 200.282 221.2C200.32 221.538 200.349 221.88 200.382 222.223C200.535 223.903 200.649 225.593 200.716 227.296C200.725 227.539 200.735 227.787 200.744 228.029C200.768 228.739 200.782 229.448 200.792 230.162C200.796 230.59 200.801 231.023 200.801 231.456C200.801 231.466 200.801 231.471 200.801 231.48V231.485C200.958 233.251 201.03 235.073 201.03 236.944C201.03 237.962 201.006 238.995 200.963 240.038C200.953 240.342 200.939 240.647 200.92 240.956C200.896 241.513 200.858 242.07 200.82 242.631C200.811 242.76 200.801 242.888 200.792 243.022C200.777 243.25 200.758 243.483 200.735 243.717C200.711 244.016 200.687 244.316 200.658 244.621C200.649 244.754 200.635 244.892 200.62 245.025C200.611 245.116 200.601 245.211 200.597 245.301C200.554 245.696 200.516 246.096 200.468 246.496C200.444 246.734 200.416 246.972 200.387 247.21V247.215C200.23 248.543 200.049 249.88 199.84 251.232C199.787 251.584 199.73 251.936 199.673 252.293C199.592 252.793 199.511 253.293 199.421 253.797C199.373 254.083 199.321 254.368 199.269 254.654C199.154 255.292 199.031 255.934 198.907 256.572C198.836 256.929 198.764 257.29 198.693 257.647C198.55 258.366 198.398 259.085 198.236 259.808C198.16 260.17 198.079 260.527 197.998 260.889C197.827 261.645 197.65 262.397 197.47 263.154C197.222 264.182 196.965 265.21 196.699 266.233C196.313 267.699 195.913 269.165 195.494 270.626" stroke="#3C2F4B" stroke-width="3.33161" stroke-miterlimit="10" stroke-linecap="round" stroke-linejoin="round"/>
<path d="M429.834 356.102C429.834 356.126 429.829 356.154 429.824 356.178C429.824 356.211 429.819 356.245 429.815 356.278C429.734 357.087 429.591 357.887 429.391 358.667C428.563 361.961 426.759 364.964 424.175 367.258L416.15 374.378L413.409 376.805L403.485 385.601L397.893 390.555L397.622 390.793L397.617 390.798L384.281 402.62L374.576 411.216L373.986 411.744L366.985 417.946L363.987 420.602L361.959 422.401L359.032 424.995L357.914 425.985L354.744 428.797L354.249 429.235L351.298 431.853L348.68 434.176L348.466 434.366C348.461 434.366 348.461 434.366 348.461 434.366L348.143 434.647C348.143 434.652 348.138 434.652 348.138 434.652L347.357 435.342L345.077 437.364L337.643 443.951L327.077 453.318L324.912 455.236L321.87 457.93L316.354 462.818C314.936 462.475 313.532 462.128 312.142 461.785C294.194 457.321 278.55 452.913 270.05 449.672C259.098 445.498 245.158 439.697 232.241 434.176C220.447 429.135 209.505 424.328 202.47 421.216C202.313 421.149 202.161 421.078 202.013 421.011C201.975 420.997 201.937 420.978 201.904 420.963C201.756 420.901 201.609 420.835 201.461 420.768C199.862 420.059 198.496 419.455 197.411 418.969C197.23 418.888 197.054 418.812 196.888 418.736C195.341 418.046 194.489 417.665 194.489 417.665C194.489 417.665 194.484 417.665 194.479 417.67C194.47 417.67 194.455 417.675 194.441 417.679C194.355 417.703 194.151 417.76 193.837 417.841C193.765 417.86 193.689 417.879 193.608 417.903C193.332 417.97 192.994 418.051 192.599 418.141C192.471 418.17 192.337 418.203 192.199 418.231C190.91 418.517 189.12 418.864 186.945 419.169C186.636 419.212 186.322 419.255 186.003 419.298C185.879 419.312 185.75 419.326 185.627 419.345C185.374 419.374 185.117 419.407 184.86 419.436C184.637 419.459 184.413 419.483 184.185 419.507C175.265 420.43 161.882 420.23 149.469 413.834L144.615 415.047L135.933 417.218C134.558 417.56 133.106 417.484 131.778 416.989L125.953 414.833C125.434 414.638 124.944 414.386 124.487 414.086C124.111 413.839 123.759 413.553 123.44 413.239C123.211 413.015 123.002 412.777 122.807 412.525C122.497 412.13 122.231 411.697 122.012 411.24L121.636 410.455H121.631L119.161 405.31C118.166 403.239 120.551 398.613 120.551 398.613H120.546C115.196 399.808 113.007 393.901 113.007 393.901C112.07 391.184 112.493 388.185 114.14 385.829L114.249 385.667L114.254 385.663C114.254 385.663 105.649 384.882 107.995 375.492C107.995 375.492 102.546 370.404 105.83 364.455C105.83 364.455 105.835 364.455 105.844 364.45C105.849 364.445 105.849 364.445 105.854 364.445C105.868 364.435 105.887 364.426 105.916 364.416C105.93 364.407 105.949 364.397 105.968 364.393C105.987 364.383 106.011 364.374 106.035 364.359C106.058 364.35 106.087 364.336 106.115 364.321C106.173 364.297 106.239 364.264 106.315 364.231C109.333 362.889 125.986 355.526 137.723 351.514C137.732 351.509 137.747 351.509 137.756 351.504C138.227 351.342 138.694 351.185 139.151 351.038C139.327 350.976 139.498 350.919 139.67 350.866C139.746 350.838 139.822 350.814 139.898 350.79C140.184 350.7 140.469 350.609 140.745 350.524C141.283 350.352 141.807 350.195 142.306 350.052C142.739 349.929 143.163 349.81 143.567 349.7C143.601 349.691 143.634 349.681 143.663 349.676C143.715 349.662 143.767 349.648 143.82 349.638C144.538 349.453 145.205 349.296 145.809 349.177C145.976 349.143 146.142 349.115 146.299 349.086C146.342 349.077 146.38 349.067 146.423 349.062C148.175 349.434 150.94 351.704 154.724 355.017C159.764 359.429 166.613 365.687 175.289 371.765C187.74 380.48 203.946 388.813 223.964 390.75C248.18 393.097 284.29 393.002 312.142 392.426C326.539 392.135 338.733 391.712 345.934 391.431C346.586 391.407 347.205 391.383 347.771 391.36C347.776 391.36 347.776 391.36 347.781 391.36C351.07 391.226 352.916 391.141 352.916 391.141C352.907 391.117 352.897 391.093 352.888 391.069C352.873 391.022 352.85 390.965 352.821 390.884C352.231 389.237 349.023 379.913 348.238 370.209C348.214 369.952 348.19 369.69 348.176 369.428V369.423C348.152 369.109 348.133 368.795 348.119 368.476C348.933 368.614 349.785 368.624 350.632 368.486C351.241 368.386 351.85 368.214 352.455 367.957C353.202 367.639 353.954 367.334 354.711 367.029C354.72 367.025 354.73 367.02 354.744 367.015C360.165 364.85 365.771 363.108 371.388 361.689C372.982 361.29 374.572 360.914 376.161 360.566C376.552 360.48 376.937 360.395 377.323 360.309C380.521 359.633 383.7 359.057 386.818 358.567C387.208 358.505 387.594 358.443 387.979 358.386C388.322 358.334 388.66 358.286 388.998 358.239C390.145 358.067 391.277 357.91 392.401 357.768C392.838 357.71 393.272 357.658 393.705 357.606C394.081 357.558 394.452 357.515 394.828 357.472C395.575 357.382 396.313 357.301 397.051 357.225C397.417 357.182 397.783 357.144 398.145 357.111C400.22 356.897 402.248 356.725 404.209 356.578C404.661 356.544 405.104 356.516 405.546 356.482C405.803 356.468 406.055 356.449 406.308 356.435C406.56 356.416 406.812 356.402 407.06 356.387C407.559 356.354 408.054 356.325 408.545 356.302C408.873 356.283 409.197 356.264 409.52 356.249C409.839 356.23 410.158 356.216 410.477 356.202C410.796 356.187 411.11 356.173 411.419 356.159C413.766 356.059 415.974 355.997 418.016 355.968C418.221 355.964 418.425 355.959 418.625 355.959C419.629 355.945 420.591 355.94 421.509 355.94C423.17 355.94 424.679 355.959 426.021 355.988C427.516 356.016 428.796 356.064 429.834 356.102Z" fill="#D86E6C"/>
<path opacity="0.24" d="M312.142 440.277C320.566 441.809 329.105 443.066 337.643 443.951L327.077 453.318L324.912 455.236L321.87 457.93L316.354 462.818C314.936 462.475 313.532 462.127 312.142 461.785C294.194 457.32 278.55 452.913 270.05 449.672C259.098 445.498 245.158 439.696 232.241 434.175C220.447 429.135 209.505 424.328 202.47 421.215C202.313 421.149 202.161 421.077 202.013 421.011C201.975 420.996 201.937 420.977 201.904 420.963C201.756 420.901 201.609 420.835 201.461 420.768C199.862 420.059 198.496 419.454 197.411 418.969C197.23 418.888 197.054 418.812 196.888 418.736C195.341 418.046 194.489 417.665 194.489 417.665C194.489 417.665 194.484 417.665 194.479 417.67C194.47 417.67 194.455 417.674 194.441 417.679C194.356 417.703 194.151 417.76 193.837 417.841C193.765 417.86 193.689 417.879 193.608 417.903C193.332 417.969 192.994 418.05 192.599 418.141C192.471 418.169 192.337 418.203 192.199 418.231C190.91 418.517 189.12 418.864 186.945 419.169C186.636 419.212 186.322 419.254 186.003 419.297C185.879 419.312 185.75 419.326 185.627 419.345C185.374 419.373 185.117 419.407 184.86 419.435C184.637 419.459 184.413 419.483 184.185 419.507C175.265 420.43 161.882 420.23 149.469 413.833L144.615 415.047L135.933 417.217C134.558 417.56 133.106 417.484 131.778 416.989L125.953 414.833C125.434 414.638 124.944 414.386 124.487 414.086C124.111 413.838 123.759 413.553 123.44 413.239C123.211 413.015 123.002 412.777 122.807 412.525C122.497 412.13 122.231 411.696 122.012 411.24L121.636 410.454H121.631L119.161 405.309C118.166 403.239 120.551 398.613 120.551 398.613H120.546C115.196 399.807 113.007 393.901 113.007 393.901C112.07 391.183 112.493 388.185 114.14 385.829L114.249 385.667L114.254 385.662C114.254 385.662 105.649 384.882 107.995 375.491C107.995 375.491 102.546 370.404 105.83 364.454C105.83 364.454 105.835 364.454 105.844 364.449C105.849 364.445 105.849 364.445 105.854 364.445C105.868 364.435 105.887 364.426 105.916 364.416C105.93 364.407 105.949 364.397 105.968 364.392C107.705 363.578 125.639 355.226 137.723 351.513C137.732 351.509 137.747 351.509 137.756 351.504C139.455 350.985 142.116 351.846 143.863 353.265C144.829 354.05 145.514 355.007 145.6 355.987L148.298 366.682L156.551 399.374C156.551 399.374 160.873 403.453 167.531 405.957C170.658 407.132 174.304 407.965 178.259 407.856C182.961 407.727 188.102 406.275 193.327 402.506C193.327 402.506 206.792 408.836 227.9 416.637C243.316 422.334 262.811 428.811 284.109 434.175C293.185 436.46 302.585 438.544 312.142 440.277Z" fill="#3C2F4B"/>
<path opacity="0.24" d="M429.833 356.101C429.833 356.125 429.829 356.154 429.824 356.177C429.824 356.211 429.819 356.244 429.814 356.277C429.733 357.086 429.591 357.886 429.391 358.667C428.563 361.96 426.759 364.963 424.174 367.257L416.15 374.378L413.409 376.805L403.485 385.6L397.893 390.555C397.445 379.456 395.965 368.19 392.667 358.533C392.634 358.433 392.6 358.333 392.562 358.234C392.524 358.119 392.486 358.01 392.448 357.9C392.434 357.858 392.415 357.81 392.4 357.767C392.838 357.71 393.271 357.658 393.705 357.605C394.08 357.558 394.452 357.515 394.828 357.472C395.575 357.382 396.313 357.301 397.05 357.225C397.417 357.182 397.783 357.144 398.145 357.11C400.22 356.896 402.248 356.725 404.209 356.577C404.661 356.544 405.103 356.515 405.546 356.482C405.803 356.468 406.055 356.449 406.307 356.434C406.56 356.415 406.812 356.401 407.059 356.387C407.559 356.354 408.054 356.325 408.544 356.301C408.873 356.282 409.196 356.263 409.52 356.249C409.839 356.23 410.158 356.215 410.477 356.201C410.796 356.187 411.11 356.173 411.419 356.158C413.766 356.058 415.974 355.997 418.016 355.968C418.22 355.963 418.425 355.959 418.625 355.959C419.629 355.944 420.591 355.939 421.509 355.939C423.17 355.939 424.679 355.959 426.021 355.987C427.516 356.016 428.796 356.063 429.833 356.101Z" fill="#3C2F4B"/>
<path d="M137.758 351.499C141.246 350.309 144.297 349.41 146.425 349.058C149.033 349.605 165.082 365.444 175.353 371.798" stroke="#3C2F4B" stroke-width="3.33161" stroke-miterlimit="10" stroke-linecap="round" stroke-linejoin="round"/>
<path d="M202.47 421.211C197.506 419.012 194.489 417.66 194.489 417.66C194.489 417.66 190.429 418.855 184.18 419.502" stroke="#3C2F4B" stroke-width="3.33161" stroke-miterlimit="10" stroke-linecap="round" stroke-linejoin="round"/>
<path d="M366.444 226.955C352.456 235.232 344.712 250.552 342.218 271.818C341.238 280.185 340.733 290.494 340.533 301.293L341.49 391.146" stroke="#3C2F4B" stroke-width="3.33161" stroke-miterlimit="10" stroke-linecap="round" stroke-linejoin="round"/>
<path d="M107.996 375.492L138.885 363.979" stroke="#3C2F4B" stroke-width="3.33161" stroke-miterlimit="10" stroke-linecap="round" stroke-linejoin="round"/>
<path d="M112.584 386.324L140.041 375.491" stroke="#3C2F4B" stroke-width="3.33161" stroke-miterlimit="10" stroke-linecap="round" stroke-linejoin="round"/>
<path d="M118.605 399.373L145.601 388.765" stroke="#3C2F4B" stroke-width="3.33161" stroke-miterlimit="10" stroke-linecap="round" stroke-linejoin="round"/>
<path d="M124.676 406.87C124.676 406.87 132.258 411.739 140.044 404.295C140.044 404.295 141.305 396.942 141.215 396.575" stroke="#3C2F4B" stroke-width="3.33161" stroke-miterlimit="10" stroke-linecap="round" stroke-linejoin="round"/>
<path d="M140.043 404.295C140.043 404.295 144.66 411.786 149.467 413.828" stroke="#3C2F4B" stroke-width="3.33161" stroke-miterlimit="10" stroke-linecap="round" stroke-linejoin="round"/>
<path d="M133.283 407.96C133.283 407.96 136.762 410.663 135.715 413.919" stroke="#3C2F4B" stroke-width="3.33161" stroke-miterlimit="10" stroke-linecap="round" stroke-linejoin="round"/>
<path d="M56.2576 323.565C57.7377 322.333 62.6971 313.909 54.2776 312.547C45.8582 311.186 19.6099 312.547 19.6099 312.547C19.6099 312.547 13.7891 322.081 21.3423 326.535C21.3423 326.535 18.4962 332.48 18.9911 336.564C19.4861 340.647 26.1731 344.735 26.1731 344.735C26.1731 344.735 23.5745 347.705 23.6982 350.061C23.822 352.412 26.4206 360.337 36.82 359.347C36.82 359.347 36.0775 363.183 36.82 366.034C37.5625 368.88 36.82 375.567 38.0574 376.557C39.2949 377.547 65.172 389.308 65.172 389.308L52.9164 366.967C52.9164 366.967 75.0764 354.288 76.1948 350.628C77.3086 346.968 73.1012 339.043 65.548 344.616C65.548 344.616 69.2603 336.692 61.8356 334.712C61.8356 334.712 66.2333 331.837 64.0059 326.883C61.7737 321.928 56.2576 323.565 56.2576 323.565Z" fill="#D86E6C"/>
<path d="M54.0781 370.175C64.9868 389.717 76.0096 409.24 84.5766 424.342" stroke="#3C2F4B" stroke-width="3.33161" stroke-miterlimit="10" stroke-linecap="round" stroke-linejoin="round"/>
<path d="M42.5879 367.657C42.9068 367.657 47.8233 369.023 52.1734 367.391L52.9159 368.642C52.9159 368.642 50.6123 373.992 44.0681 376.21" stroke="#3C2F4B" stroke-width="3.33161" stroke-miterlimit="10" stroke-linecap="round" stroke-linejoin="round"/>
<path d="M36.8184 359.347L65.5416 344.611" stroke="#3C2F4B" stroke-width="3.33161" stroke-miterlimit="10" stroke-linecap="round" stroke-linejoin="round"/>
<path d="M26.1738 344.735L61.8316 334.707" stroke="#3C2F4B" stroke-width="3.33161" stroke-miterlimit="10" stroke-linecap="round" stroke-linejoin="round"/>
<path d="M21.3477 326.536L56.2582 323.566" stroke="#3C2F4B" stroke-width="3.33161" stroke-miterlimit="10" stroke-linecap="round" stroke-linejoin="round"/>
<path d="M312.143 392.911C338.824 392.602 378.751 390.57 387.313 381.394" stroke="#3C2F4B" stroke-width="3.33161" stroke-miterlimit="10" stroke-linecap="round" stroke-linejoin="round"/>
<path d="M341.5 279.312V234.383" stroke="#3C2F4B" stroke-width="3.33161" stroke-miterlimit="10" stroke-linecap="round" stroke-linejoin="round"/>
<path d="M348.125 369.466C348.125 369.466 348.929 381.693 352.918 391.14" stroke="#3C2F4B" stroke-width="3.33161" stroke-miterlimit="10" stroke-linecap="round" stroke-linejoin="round"/>
<path d="M341.5 275.495C341.5 275.495 351.714 260.679 373.341 260.603" stroke="#3C2F4B" stroke-width="3.33161" stroke-miterlimit="10" stroke-linecap="round" stroke-linejoin="round"/>
<path d="M341.285 372.307C342.432 372.088 373.116 355.987 426.017 355.987" stroke="#3C2F4B" stroke-width="3.33161" stroke-miterlimit="10" stroke-linecap="round" stroke-linejoin="round"/>
<path d="M45.5156 380.242L65.1721 389.309" stroke="#3C2F4B" stroke-width="3.33161" stroke-miterlimit="10" stroke-linecap="round" stroke-linejoin="round"/>
<path d="M19.6094 312.549L46.919 312.011" stroke="#3C2F4B" stroke-width="3.33161" stroke-miterlimit="10" stroke-linecap="round" stroke-linejoin="round"/>
<path d="M51.1836 367.391C51.1836 367.391 64.8384 362.042 73.9956 353.18" stroke="#3C2F4B" stroke-width="3.33161" stroke-miterlimit="10" stroke-linecap="round" stroke-linejoin="round"/>
<path d="M250.291 132.213C249.919 133.184 249.391 134.426 248.706 135.811C247.316 138.629 245.274 142.013 242.523 144.783C239.177 148.148 234.775 150.608 229.216 150.023C224.271 149.504 220.42 147.215 217.455 144.373C214.4 141.442 212.277 137.91 210.873 135.102C210.354 134.069 209.935 133.136 209.598 132.365C208.998 130.999 209.74 129.419 211.178 129.019C216.699 127.492 230.691 124.717 248.787 129.286C250.057 129.61 250.767 130.98 250.291 132.213Z" fill="#C42F4D"/>
<path d="M250.29 132.212C250.052 132.835 249.747 133.573 249.381 134.387C249.014 135.196 248.11 135.62 247.253 135.377C232.251 131.089 218.006 133.454 212.257 134.768C211.429 134.958 210.582 134.539 210.225 133.768C209.987 133.259 209.777 132.788 209.592 132.364C208.992 130.998 209.734 129.418 211.172 129.018C216.693 127.491 230.685 124.716 248.781 129.285C250.056 129.609 250.766 130.979 250.29 132.212Z" fill="white"/>
<path d="M242.521 144.783C239.175 148.148 234.773 150.608 229.214 150.023C224.269 149.504 220.418 147.215 217.453 144.373C219.861 141.77 223.341 139.19 227.986 138.829C234.23 138.348 239.323 141.008 242.521 144.783Z" fill="#F0565C"/>
</g>
<defs>
<clipPath id="clip0">
<rect width="429.911" height="469" fill="white"/>
</clipPath>
</defs>
</svg>
