<svg width="28" height="30" viewBox="0 0 28 30" fill="none" xmlns="http://www.w3.org/2000/svg">
<path d="M13.8213 15.2031C6.7567 15.2031 0.930068 20.5034 0.101081 27.3443C-0.0107517 28.2672 0.753598 29.0244 1.68321 29.0244H25.9594C26.889 29.0244 27.6533 28.2672 27.5415 27.3443C26.7125 20.5034 20.8859 15.2031 13.8213 15.2031Z" fill="#115766"/>
<path d="M7.75225 12.4388H15.2832C15.748 12.4388 16.1248 12.062 16.1248 11.5972V5.86615C16.1248 5.64344 16.0366 5.42981 15.8793 5.27206L14.0855 3.47212C13.9276 3.31367 13.7131 3.22461 13.4894 3.22461H7.75225C7.28744 3.22461 6.91064 3.60141 6.91064 4.06621V11.5972C6.91064 12.062 7.28744 12.4388 7.75225 12.4388Z" fill="#46B2C8"/>
<path fill-rule="evenodd" clip-rule="evenodd" d="M11.5178 2.09757H14.0575C14.2812 2.09757 14.4957 2.18663 14.6536 2.34508L17.0069 4.70636C17.1641 4.8641 17.2523 5.07774 17.2523 5.30045V9.21419H19.8904C20.3552 9.21419 20.732 8.83739 20.732 8.37259V2.64155C20.732 2.41883 20.6437 2.2052 20.4865 2.04745L18.6927 0.247511C18.5348 0.0890614 18.3203 0 18.0966 0H12.3594C11.8946 0 11.5178 0.376798 11.5178 0.841603V2.09757Z" fill="#C2E2E9"/>
</svg>
