<svg width="135" height="40" viewBox="0 0 135 40" fill="none" xmlns="http://www.w3.org/2000/svg">
<path d="M130 0H5C2.23858 0 0 2.23858 0 5V35C0 37.7614 2.23858 40 5 40H130C132.761 40 135 37.7614 135 35V5C135 2.23858 132.761 0 130 0Z" fill="black"/>
<path d="M130 0.7998C131.114 0.801086 132.181 1.24403 132.968 2.03145C133.756 2.81887 134.199 3.88646 134.2 5V35C134.199 36.1135 133.756 37.1811 132.968 37.9685C132.181 38.7559 131.114 39.1989 130 39.2002H5C3.88645 39.1989 2.81888 38.756 2.0315 37.9686C1.24412 37.1811 0.801231 36.1135 0.8 35V5C0.801212 3.88644 1.24409 2.81884 2.03148 2.03142C2.81886 1.244 3.88644 0.801065 5 0.7998H130ZM130 0H5C3.67511 0.0038781 2.40559 0.531908 1.46875 1.46875C0.531908 2.40559 0.0038781 3.67511 0 5L0 35C0.0038781 36.3249 0.531908 37.5944 1.46875 38.5312C2.40559 39.4681 3.67511 39.9961 5 40H130C131.325 39.9961 132.594 39.4681 133.531 38.5312C134.468 37.5944 134.996 36.3249 135 35V5C134.996 3.67511 134.468 2.40559 133.531 1.46875C132.594 0.531908 131.325 0.0038781 130 0Z" fill="#A6A6A6"/>
<path d="M47.4183 10.2429C47.4365 10.6098 47.3798 10.9766 47.2516 11.3209C47.1235 11.6653 46.9267 11.9799 46.6731 12.2458C46.3889 12.5405 46.0456 12.772 45.6658 12.9249C45.286 13.0779 44.8782 13.149 44.469 13.1335C44.0572 13.1371 43.6488 13.0585 43.2679 12.9021C42.8869 12.7457 42.5411 12.5147 42.2507 12.2228C41.9603 11.9308 41.7312 11.5837 41.5768 11.202C41.4225 10.8202 41.346 10.4114 41.3519 9.99965C41.346 9.58788 41.4225 9.1791 41.5769 8.79732C41.7313 8.41554 41.9604 8.06846 42.2508 7.77647C42.5412 7.48447 42.887 7.25346 43.2679 7.097C43.6488 6.94053 44.0572 6.86178 44.469 6.86535C44.8924 6.86407 45.3115 6.94967 45.7005 7.11685C46.0617 7.26329 46.3833 7.493 46.639 7.78725L46.1116 8.31505C45.9106 8.0785 45.658 7.89129 45.3732 7.76786C45.0884 7.64442 44.779 7.58807 44.469 7.60315C44.1569 7.60154 43.8477 7.66292 43.5599 7.78363C43.2721 7.90435 43.0116 8.0819 42.7941 8.30566C42.5765 8.52942 42.4064 8.79478 42.2938 9.08586C42.1812 9.37694 42.1286 9.68774 42.139 9.99965C42.1315 10.4668 42.263 10.9257 42.5167 11.3181C42.7704 11.7105 43.1349 12.0187 43.564 12.2037C43.9931 12.3886 44.4674 12.442 44.9269 12.357C45.3864 12.272 45.8102 12.0525 46.1448 11.7263C46.4527 11.3945 46.6311 10.9632 46.6477 10.5109H44.469V9.79015H47.3763C47.4038 9.93949 47.4178 10.091 47.4183 10.2429Z" fill="white" stroke="white" stroke-width="0.2" stroke-miterlimit="10"/>
<path d="M52.0273 7.7373H49.2949V9.6396H51.7588V10.3604H49.2949V12.2627H52.0273V13H48.5244V7H52.0273V7.7373Z" fill="white" stroke="white" stroke-width="0.2" stroke-miterlimit="10"/>
<path d="M55.2784 13H54.5069V7.7373H52.8311V7H56.9542V7.7373H55.2784V13Z" fill="white" stroke="white" stroke-width="0.2" stroke-miterlimit="10"/>
<path d="M59.9375 13V7H60.708V13H59.9375Z" fill="white" stroke="white" stroke-width="0.2" stroke-miterlimit="10"/>
<path d="M64.1279 13H63.3564V7.7373H61.6807V7H65.8037V7.7373H64.1279V13Z" fill="white" stroke="white" stroke-width="0.2" stroke-miterlimit="10"/>
<path d="M73.6092 12.2251C73.0252 12.8074 72.2341 13.1343 71.4095 13.1343C70.5848 13.1343 69.7938 12.8074 69.2098 12.2251C68.9209 11.9325 68.6937 11.5847 68.5419 11.2026C68.3901 10.8204 68.3167 10.4116 68.326 10.0005C68.3167 9.5894 68.3901 9.1806 68.5419 8.79844C68.6937 8.41627 68.9209 8.06854 69.2098 7.77591C69.4984 7.48718 69.8412 7.25821 70.2185 7.10211C70.5957 6.94601 71.0001 6.86585 71.4083 6.86621C71.8166 6.86657 72.2208 6.94745 72.5978 7.10422C72.9748 7.26099 73.3171 7.49057 73.6053 7.77981C73.8944 8.07167 74.122 8.41862 74.2744 8.80009C74.4269 9.18156 74.5013 9.58978 74.493 10.0005C74.5021 10.4116 74.4285 10.8203 74.2767 11.2024C74.1249 11.5846 73.8979 11.9323 73.6092 12.2251ZM69.7791 11.7227C70.2116 12.1545 70.7978 12.397 71.409 12.397C72.0202 12.397 72.6064 12.1545 73.0389 11.7227C73.2607 11.4956 73.4341 11.2259 73.5488 10.9299C73.6634 10.6339 73.7169 10.3178 73.7059 10.0005C73.7169 9.68327 73.6634 9.3671 73.5488 9.07109C73.4341 8.77508 73.2607 8.50539 73.0389 8.27831C72.6064 7.84652 72.0202 7.604 71.409 7.604C70.7978 7.604 70.2116 7.84652 69.7791 8.27831C69.5576 8.50557 69.3844 8.77532 69.2699 9.0713C69.1555 9.36727 69.1021 9.68336 69.1131 10.0005C69.1021 10.3177 69.1555 10.6337 69.2699 10.9297C69.3844 11.2257 69.5576 11.4954 69.7791 11.7227Z" fill="white" stroke="white" stroke-width="0.2" stroke-miterlimit="10"/>
<path d="M75.5752 13V7H76.5137L79.4297 11.6675H79.4629L79.4297 10.5112V7H80.2012V13H79.3965L76.3457 8.1064H76.3125L76.3457 9.2627V13H75.5752Z" fill="white" stroke="white" stroke-width="0.2" stroke-miterlimit="10"/>
<path d="M68.1354 21.7519C67.2949 21.7551 66.4741 22.0073 65.7768 22.4766C65.0795 22.9458 64.5369 23.6112 64.2175 24.3887C63.898 25.1661 63.8161 26.0208 63.982 26.8448C64.148 27.6687 64.5543 28.4251 65.1498 29.0183C65.7452 29.6115 66.5031 30.0149 67.3277 30.1777C68.1523 30.3405 69.0066 30.2554 69.7829 29.933C70.5591 29.6106 71.2224 29.0654 71.689 28.3663C72.1557 27.6672 72.4047 26.8456 72.4047 26.0051C72.4129 25.4429 72.308 24.8848 72.0962 24.364C71.8844 23.8432 71.5699 23.3703 71.1716 22.9735C70.7733 22.5767 70.2992 22.264 69.7776 22.0542C69.256 21.8443 68.6975 21.7416 68.1354 21.7519ZM68.1354 28.5828C67.6178 28.6197 67.101 28.4999 66.6524 28.239C66.2038 27.9781 65.8442 27.5882 65.6203 27.12C65.3964 26.6519 65.3186 26.1272 65.3971 25.6142C65.4756 25.1012 65.7068 24.6238 66.0604 24.244C66.4141 23.8642 66.8739 23.5997 67.3799 23.4849C67.886 23.3701 68.4149 23.4104 68.8978 23.6004C69.3807 23.7904 69.7952 24.1214 70.0874 24.5503C70.3795 24.9792 70.5358 25.4861 70.5358 26.0051C70.5515 26.3329 70.5015 26.6606 70.3886 26.9688C70.2758 27.277 70.1024 27.5595 69.8787 27.7997C69.6551 28.0399 69.3856 28.2329 69.0862 28.3674C68.7868 28.5019 68.4635 28.5751 68.1354 28.5828ZM58.822 21.7519C57.9815 21.7551 57.1607 22.0073 56.4634 22.4765C55.7661 22.9458 55.2234 23.6112 54.904 24.3886C54.5845 25.166 54.5026 26.0207 54.6685 26.8447C54.8344 27.6687 55.2408 28.425 55.8362 29.0182C56.4317 29.6114 57.1896 30.0149 58.0142 30.1777C58.8388 30.3405 59.6931 30.2554 60.4694 29.933C61.2456 29.6106 61.9089 29.0654 62.3755 28.3663C62.8422 27.6672 63.0912 26.8456 63.0912 26.0051C63.0994 25.4429 62.9945 24.8848 62.7827 24.364C62.5709 23.8432 62.2565 23.3703 61.8582 22.9735C61.4598 22.5767 60.9858 22.2641 60.4642 22.0542C59.9426 21.8444 59.3841 21.7416 58.822 21.7519ZM58.822 28.5828C58.3044 28.6197 57.7876 28.4999 57.339 28.239C56.8904 27.9781 56.5308 27.5882 56.3069 27.12C56.083 26.6519 56.0052 26.1272 56.0837 25.6142C56.1622 25.1012 56.3934 24.6238 56.747 24.244C57.1007 23.8642 57.5605 23.5997 58.0665 23.4849C58.5726 23.3701 59.1015 23.4104 59.5844 23.6004C60.0673 23.7904 60.4818 24.1214 60.774 24.5503C61.0661 24.9792 61.2224 25.4861 61.2224 26.0051C61.2381 26.3329 61.1881 26.6606 61.0752 26.9688C60.9624 27.277 60.789 27.5595 60.5654 27.7997C60.3417 28.0399 60.0722 28.2329 59.7728 28.3674C59.4734 28.5019 59.1501 28.5751 58.822 28.5828ZM47.7432 23.0569V24.8612H52.0609C51.9986 25.7076 51.6523 26.508 51.0781 27.1329C50.6454 27.5739 50.1251 27.9193 49.5507 28.1468C48.9762 28.3744 48.3605 28.479 47.7432 28.4538C46.4812 28.4368 45.2766 27.9234 44.3902 27.025C43.5038 26.1265 43.0068 24.9151 43.0068 23.653C43.0068 22.3908 43.5038 21.1794 44.3902 20.2809C45.2766 19.3825 46.4812 18.8691 47.7432 18.8521C48.9554 18.8362 50.1249 19.2994 50.9976 20.1409L52.2703 18.8682C51.6748 18.2787 50.9677 17.814 50.1903 17.5014C49.4129 17.1888 48.581 17.0345 47.7432 17.0476C46.8677 17.0349 45.9984 17.1963 45.1858 17.5226C44.3732 17.8488 43.6336 18.3333 43.01 18.9479C42.3864 19.5625 41.8911 20.295 41.5531 21.1027C41.2151 21.9105 41.041 22.7773 41.041 23.653C41.041 24.5286 41.2151 25.3954 41.5531 26.2032C41.8911 27.0109 42.3864 27.7434 43.01 28.358C43.6336 28.9726 44.3732 29.4571 45.1858 29.7833C45.9984 30.1096 46.8677 30.271 47.7432 30.2582C48.5986 30.2937 49.4519 30.1469 50.2462 29.8275C51.0406 29.508 51.758 29.0234 52.3508 28.4056C53.4032 27.2568 53.9641 25.7418 53.9136 24.1847C53.9177 23.8065 53.8853 23.4289 53.8168 23.0569H47.7432ZM93.0515 24.4585C92.7959 23.6881 92.3093 23.0151 91.6579 22.5309C91.0065 22.0466 90.2218 21.7747 89.4105 21.7519C88.864 21.7553 88.3239 21.8695 87.8228 22.0875C87.3217 22.3056 86.8701 22.623 86.4951 23.0205C86.1201 23.4181 85.8297 23.8875 85.6413 24.4005C85.4529 24.9135 85.3705 25.4593 85.3991 26.0051C85.3868 26.5642 85.4873 27.1202 85.6946 27.6396C85.902 28.1591 86.2119 28.6314 86.6059 29.0284C86.9999 29.4254 87.4698 29.7389 87.9877 29.9502C88.5056 30.1615 89.0607 30.2663 89.62 30.2582C90.3206 30.2621 91.0113 30.0919 91.6299 29.7629C92.2485 29.4339 92.7757 28.9565 93.1642 28.3734L91.7143 27.4067C91.4971 27.7675 91.1898 28.0656 90.8227 28.2717C90.4555 28.4779 90.0411 28.5851 89.62 28.5828C89.1867 28.5993 88.7584 28.4853 88.3907 28.2555C88.023 28.0257 87.7328 27.6907 87.5578 27.2939L93.2449 24.9419L93.0515 24.4585ZM87.2518 25.8762C87.2317 25.5667 87.2737 25.2562 87.3751 24.9631C87.4765 24.6699 87.6353 24.3999 87.8423 24.1689C88.0493 23.9379 88.3003 23.7505 88.5807 23.6176C88.861 23.4848 89.165 23.4092 89.4749 23.3953C89.7976 23.374 90.1194 23.4483 90.4001 23.6087C90.6809 23.7691 90.9082 24.0087 91.0538 24.2974L87.2518 25.8762ZM82.628 30.0005H84.4968V17.4988H82.628V30.0005ZM79.567 22.7024H79.5026C79.2185 22.3938 78.8717 22.1493 78.4855 21.9854C78.0993 21.8215 77.6826 21.7419 77.2632 21.7519C76.1665 21.7986 75.1302 22.2671 74.3707 23.0596C73.6112 23.8521 73.1872 24.9074 73.1872 26.0051C73.1872 27.1028 73.6112 28.158 74.3707 28.9506C75.1302 29.7431 76.1665 30.2116 77.2632 30.2582C77.6843 30.2695 78.1027 30.1888 78.4895 30.0219C78.8762 29.8549 79.2219 29.6057 79.5026 29.2917H79.567V29.9039C79.567 31.5311 78.6971 32.4009 77.2954 32.4009C76.8282 32.3898 76.375 32.2398 75.9934 31.9701C75.6119 31.7004 75.3192 31.3232 75.1528 30.8865L73.5256 31.5632C73.8323 32.3099 74.3549 32.948 75.0265 33.3958C75.6982 33.8435 76.4882 34.0805 77.2954 34.0764C79.4865 34.0764 81.3392 32.7876 81.3392 29.646V22.0096H79.567V22.7024ZM77.4244 28.5828C76.7784 28.528 76.1766 28.2327 75.738 27.7553C75.2994 27.278 75.056 26.6534 75.056 26.0051C75.056 25.3568 75.2994 24.7322 75.738 24.2549C76.1766 23.7775 76.7784 23.4822 77.4244 23.4275C77.7457 23.4431 78.0606 23.5234 78.3503 23.6634C78.64 23.8034 78.8986 24.0002 79.1105 24.2423C79.3225 24.4843 79.4836 24.7666 79.5841 25.0722C79.6847 25.3778 79.7227 25.7005 79.6959 26.0212C79.721 26.3398 79.6816 26.6602 79.58 26.9633C79.4785 27.2663 79.3168 27.5458 79.1048 27.7849C78.8927 28.0241 78.6346 28.218 78.3459 28.3551C78.0571 28.4921 77.7437 28.5696 77.4244 28.5828ZM101.805 17.4991H97.3342V30.0005H99.1999V25.264H101.805C102.333 25.293 102.861 25.214 103.357 25.032C103.854 24.8499 104.308 24.5686 104.691 24.2053C105.075 23.8419 105.381 23.4041 105.59 22.9186C105.799 22.4331 105.907 21.9101 105.907 21.3815C105.907 20.853 105.799 20.33 105.59 19.8445C105.381 19.359 105.075 18.9212 104.691 18.5578C104.308 18.1945 103.854 17.9132 103.357 17.7311C102.861 17.5491 102.333 17.4701 101.805 17.4991ZM101.854 23.5243H99.1999V19.239H101.854C102.139 19.233 102.422 19.2841 102.687 19.3891C102.952 19.4941 103.194 19.651 103.398 19.8506C103.601 20.0501 103.763 20.2883 103.874 20.5512C103.984 20.8141 104.041 21.0964 104.041 21.3816C104.041 21.6668 103.984 21.9491 103.874 22.212C103.763 22.4749 103.601 22.7131 103.398 22.9126C103.194 23.1122 102.952 23.2691 102.687 23.3741C102.422 23.4791 102.139 23.5302 101.854 23.5243ZM113.385 21.729C112.704 21.6892 112.026 21.8491 111.435 22.1891C110.844 22.5291 110.364 23.0343 110.056 23.6428L111.713 24.3344C111.877 24.0324 112.126 23.7848 112.428 23.622C112.731 23.4592 113.075 23.3882 113.417 23.4177C113.891 23.3714 114.363 23.5148 114.731 23.8163C115.099 24.1177 115.332 24.5528 115.38 25.0259V25.1546C114.78 24.8363 114.112 24.6706 113.433 24.6721C111.648 24.6721 109.831 25.6532 109.831 27.4867C109.848 27.8732 109.943 28.2521 110.11 28.6012C110.276 28.9503 110.511 29.2623 110.801 29.5189C111.09 29.7754 111.428 29.9711 111.795 30.0945C112.162 30.2178 112.549 30.2663 112.935 30.2369C113.405 30.2646 113.873 30.1658 114.292 29.9508C114.711 29.7359 115.064 29.4126 115.315 29.0147H115.38V29.9797H117.181V25.1868C117.181 22.9673 115.524 21.729 113.385 21.729ZM113.16 28.5803C112.549 28.5803 111.696 28.2748 111.696 27.5189C111.696 26.554 112.758 26.184 113.675 26.184C114.27 26.1681 114.859 26.3125 115.38 26.6021C115.311 27.1444 115.049 27.6435 114.64 28.0071C114.232 28.3708 113.707 28.5744 113.16 28.5803ZM123.743 22.0023L121.604 27.4223H121.539L119.32 22.0023H117.31L120.639 29.5775L118.741 33.7913H120.687L125.818 22.0023H123.743ZM106.936 30.0005H108.801V17.4991H106.936V30.0005Z" fill="white"/>
<path d="M10.4352 7.53842C10.1073 7.93049 9.9417 8.43312 9.97238 8.94332V31.0594C9.94161 31.5696 10.1072 32.0723 10.4352 32.4643L10.5092 32.5364L22.8982 20.1475V19.8552L10.5092 7.46582L10.4352 7.53842Z" fill="url(#paint0_linear_1159_910)"/>
<path d="M27.0278 24.2787L22.8984 20.1473V19.855L27.0288 15.7246L27.1219 15.7777L32.0147 18.5578C33.4123 19.3518 33.4123 20.651 32.0147 21.4455L27.1219 24.2256L27.0278 24.2787Z" fill="url(#paint1_linear_1159_910)"/>
<path d="M27.122 24.2249L22.8985 20.001L10.4355 32.4639C10.7203 32.715 11.084 32.8587 11.4635 32.8699C11.843 32.8811 12.2145 32.7592 12.5136 32.5253L27.122 24.2249Z" fill="url(#paint2_linear_1159_910)"/>
<path d="M27.122 15.7775L12.5136 7.47715C12.2145 7.24324 11.843 7.12133 11.4635 7.13255C11.084 7.14376 10.7203 7.28739 10.4355 7.53855L22.8985 20.0015L27.122 15.7775Z" fill="url(#paint3_linear_1159_910)"/>
<path opacity="0.2" d="M27.0289 24.1318L12.5136 32.3791C12.2261 32.5981 11.8751 32.7175 11.5136 32.7194C11.1522 32.7214 10.8 32.6057 10.51 32.3898L10.4355 32.4643L10.5095 32.5364L10.51 32.5359C10.7999 32.7519 11.1522 32.8677 11.5136 32.8657C11.8751 32.8638 12.2261 32.7443 12.5136 32.5252L27.122 24.2248L27.0289 24.1318Z" fill="black"/>
<path opacity="0.12" d="M10.4352 32.318C10.1073 31.9259 9.94171 31.4233 9.97236 30.9131V31.0592C9.94169 31.5694 10.1073 32.072 10.4352 32.4641L10.5097 32.3896L10.4352 32.318Z" fill="black"/>
<path opacity="0.12" d="M32.0142 21.2993L27.0283 24.1325L27.1214 24.2255L32.0142 21.4454C32.302 21.3204 32.5511 21.1207 32.7355 20.8668C32.9198 20.6129 33.0328 20.3143 33.0625 20.002C33.0007 20.2848 32.8737 20.5493 32.6917 20.7745C32.5098 20.9997 32.2778 21.1794 32.0142 21.2993Z" fill="black"/>
<path opacity="0.25" d="M12.5136 7.62334L32.0148 18.7033C32.2784 18.8232 32.5105 19.0029 32.6925 19.2282C32.8744 19.4535 33.0013 19.7182 33.0631 20.0011C33.0335 19.6887 32.9207 19.3899 32.7363 19.1359C32.5519 18.8819 32.3027 18.6821 32.0148 18.5572L12.5136 7.47724C11.116 6.68314 9.97266 7.34274 9.97266 8.94354V9.08964C9.97266 7.48894 11.116 6.82934 12.5136 7.62334Z" fill="white"/>
<defs>
<linearGradient id="paint0_linear_1159_910" x1="21.7995" y1="8.71013" x2="5.01711" y2="25.4925" gradientUnits="userSpaceOnUse">
<stop stop-color="#00A0FF"/>
<stop offset="0.00657" stop-color="#00A1FF"/>
<stop offset="0.2601" stop-color="#00BEFF"/>
<stop offset="0.5122" stop-color="#00D2FF"/>
<stop offset="0.7604" stop-color="#00DFFF"/>
<stop offset="1" stop-color="#00E3FF"/>
</linearGradient>
<linearGradient id="paint1_linear_1159_910" x1="33.8344" y1="20.0017" x2="9.63752" y2="20.0017" gradientUnits="userSpaceOnUse">
<stop stop-color="#FFE000"/>
<stop offset="0.4087" stop-color="#FFBD00"/>
<stop offset="0.7754" stop-color="#FFA500"/>
<stop offset="1" stop-color="#FF9C00"/>
</linearGradient>
<linearGradient id="paint2_linear_1159_910" x1="24.8271" y1="22.2961" x2="2.06882" y2="45.0544" gradientUnits="userSpaceOnUse">
<stop stop-color="#FF3A44"/>
<stop offset="1" stop-color="#C31162"/>
</linearGradient>
<linearGradient id="paint3_linear_1159_910" x1="7.29748" y1="0.176725" x2="17.46" y2="10.3392" gradientUnits="userSpaceOnUse">
<stop stop-color="#32A071"/>
<stop offset="0.0685" stop-color="#2DA771"/>
<stop offset="0.4762" stop-color="#15CF74"/>
<stop offset="0.8009" stop-color="#06E775"/>
<stop offset="1" stop-color="#00F076"/>
</linearGradient>
</defs>
</svg>
