<svg width="29" height="28" viewBox="0 0 29 28" fill="none" xmlns="http://www.w3.org/2000/svg">
<mask id="mask0" mask-type="alpha" maskUnits="userSpaceOnUse" x="0" y="0" width="29" height="28">
<path d="M3.6849 28H24.3949C26.43 28 28.0798 26.3555 28.0798 24.3203V6.75837C28.0798 5.98605 27.8372 5.23613 27.3861 4.6092L25.1728 1.53286C24.4804 0.570458 23.368 0 22.1824 0H3.68473C1.64961 0 0 1.64979 0 3.6849V24.3151C0 26.3502 1.64978 28 3.6849 28Z" fill="#115766"/>
</mask>
<g mask="url(#mask0)">
<path d="M18.4416 4.3811L19.4565 -2.64794L15.7866 -3.17938L-6.5308 -6.40723L-8.01392 3.86014L14.3767 7.09848L18.4416 4.3811Z" fill="#46B2C8"/>
<path d="M33.9124 2.82522L32.237 -4.07397L28.6326 -3.19864L17.0417 -0.383789L19.4901 9.69789L31.1521 6.86575L33.9124 2.82522Z" fill="#46B2C8"/>
<path d="M49.2341 7.21626L48.0622 0.213379L44.4055 0.825974L25.771 3.94913L27.4843 14.1799L46.1894 11.0462L49.2341 7.21626Z" fill="#115766"/>
<path d="M41.4601 18.9262L41.6197 11.8265L37.9132 11.7427L15.7396 11.2427L15.5068 21.6148L37.7536 22.1174L41.4601 18.9262Z" fill="#46B2C8"/>
<path d="M17.7774 9.98879L16.2132 3.06445L12.5983 3.88124L-13.8677 9.86836L-11.5841 19.9865L14.9524 13.9837L17.7774 9.98879Z" fill="#115766"/>
<path d="M13.7101 21.2142V14.1118H10.001H-1.92676V24.4865H10.0742L13.7101 21.2142Z" fill="#46B2C8"/>
<path d="M15.313 29.3169L13.7488 22.3926L10.1312 23.2094L-16.3347 29.1965L-14.0486 39.3146L12.488 33.3118L15.313 29.3169Z" fill="#115766"/>
<path d="M40.8872 32.983L41.9021 25.9566L38.2349 25.4251L15.9175 22.1973L14.4343 32.4647L36.8224 35.703L40.8872 32.983Z" fill="#46B2C8"/>
</g>
</svg>
