<svg width="39" height="28" viewBox="0 0 39 28" fill="none" xmlns="http://www.w3.org/2000/svg">
<path d="M9.82935 28H36.041C37.4696 28 38.6277 26.8482 38.6277 25.4196V6.48347C38.6277 5.89387 38.4263 5.32293 38.0568 4.86346L34.9224 0.965702C34.4314 0.355126 33.6927 0 32.9092 0H9.82358C8.395 0 7.24268 1.1581 7.24268 2.58668V25.4133C7.24268 26.8419 8.40077 28 9.82935 28Z" fill="#115766"/>
<path d="M25.7897 7.8623C25.606 7.8623 25.457 8.00797 25.457 8.18757C25.457 8.36716 25.606 8.51283 25.7897 8.51283H34.1448C34.3285 8.51283 34.4775 8.36716 34.4775 8.18757C34.4775 8.00797 34.3285 7.8623 34.1448 7.8623L25.7897 7.8623Z" fill="#46B2C8"/>
<path d="M25.7897 13.2993C25.606 13.2993 25.457 13.445 25.457 13.6246C25.457 13.8042 25.606 13.9498 25.7897 13.9498H34.1448C34.3285 13.9498 34.4775 13.8042 34.4775 13.6246C34.4775 13.445 34.3285 13.2993 34.1448 13.2993L25.7897 13.2993Z" fill="#46B2C8"/>
<path d="M25.7897 19.748C25.606 19.748 25.457 19.8937 25.457 20.0733C25.457 20.2529 25.606 20.3986 25.7897 20.3986H34.1448C34.3285 20.3986 34.4775 20.2529 34.4775 20.0733C34.4775 19.8937 34.3285 19.748 34.1448 19.748L25.7897 19.748Z" fill="#46B2C8"/>
<path d="M20.8267 9.30024C20.8924 9.36404 20.9794 9.39657 21.0667 9.39657C21.1408 9.39657 21.2152 9.37315 21.2772 9.32566L23.5848 7.55478C23.7307 7.44283 23.7547 7.23819 23.6385 7.09767C23.5223 6.95722 23.3098 6.93401 23.1638 7.04601L21.0932 8.63497L20.4864 8.04516C20.3551 7.91755 20.1412 7.91663 20.0087 8.04305C19.8762 8.16952 19.8752 8.37541 20.0065 8.50302L20.8267 9.30024Z" fill="#C2E2E9"/>
<path d="M23.6377 12.5894C23.5216 12.4489 23.3091 12.4257 23.1631 12.5377L21.0924 14.1267L20.4856 13.5369C20.3543 13.4093 20.1405 13.4084 20.008 13.5348C19.8755 13.6613 19.8745 13.8672 20.0058 13.9948L20.826 14.7919C20.8917 14.8557 20.9786 14.8882 21.066 14.8882C21.1401 14.8882 21.2145 14.8648 21.2764 14.8173L23.5841 13.0465C23.7299 12.9345 23.754 12.7299 23.6377 12.5894Z" fill="#C2E2E9"/>
<path d="M23.1633 18.9345L21.0926 20.5209L20.4856 19.931C20.3543 19.8034 20.1405 19.8025 20.008 19.9289C19.8755 20.0553 19.8745 20.2612 20.0058 20.3888L20.826 21.1859C20.8917 21.2498 20.9786 21.2822 21.066 21.2822C21.14 21.2822 21.2143 21.2589 21.2762 21.2115L23.5839 19.4435C23.7298 19.3317 23.754 19.1271 23.6379 18.9865C23.5217 18.8459 23.3093 18.8227 23.1633 18.9345Z" fill="#C2E2E9"/>
<path d="M14.3063 21.4964H1.29329C0.578995 21.4964 -5.34058e-05 20.9198 -5.34058e-05 20.2055V9.83365C-5.34058e-05 9.55624 0.0891418 9.28653 0.254365 9.06369L1.83981 6.92538C2.08376 6.59636 2.46765 6.40234 2.87724 6.40234H14.3089C15.0232 6.40234 15.5996 6.98139 15.5996 7.69568V20.2031C15.5996 20.9174 15.0206 21.4964 14.3063 21.4964Z" fill="#46B2C8"/>
<path fill-rule="evenodd" clip-rule="evenodd" d="M12.0158 11.0904C12.2776 11.3425 12.2776 11.7512 12.0158 12.0033L7.02626 16.8083C6.76448 17.0604 6.34007 17.0604 6.0783 16.8083L3.58354 14.4058C3.32176 14.1538 3.32176 13.745 3.58354 13.4929C3.84531 13.2409 4.26972 13.2409 4.53149 13.4929L6.55228 15.439L11.0678 11.0904C11.3296 10.8383 11.754 10.8383 12.0158 11.0904Z" fill="#C2E2E9"/>
</svg>
