<svg width="29" height="28" viewBox="0 0 29 28" fill="none" xmlns="http://www.w3.org/2000/svg">
<path d="M28.0892 18.1119V2.36365C28.0892 1.05874 27.0505 0 25.7703 0H18.2645H2.31886C1.03868 0 0 1.05874 0 2.36365V25.6363C0 26.9413 1.03868 28 2.31886 28H17.5699C18.1427 28 18.6962 27.7843 19.1215 27.3922L27.3219 19.8677C27.8092 19.4211 28.0892 18.7829 28.0892 18.1119Z" fill="#46B2C8"/>
<path d="M14.394 6.01025H12.7676C11.9769 6.01025 11.3357 6.64949 11.3357 7.43788V20.4506C11.3357 21.1729 11.8764 21.7716 12.5774 21.8611C12.6372 21.8697 12.7035 21.8761 12.7655 21.8761H14.3919C14.4966 21.8761 14.5992 21.8718 14.7018 21.8611C16.6894 21.7035 18.2623 20.0393 18.2623 18.0172V9.8691C18.2645 7.74258 16.5269 6.01025 14.394 6.01025ZM16.7257 18.0172C16.7257 19.2978 15.6806 20.3419 14.394 20.3419H12.8745V7.54442H14.394C15.6806 7.54442 16.7257 8.5885 16.7257 9.8691V18.0172Z" fill="#C2E2E9"/>
<path d="M9.24123 6.20215H7.70459V22.053H9.24123V6.20215Z" fill="#C2E2E9"/>
</svg>
