<svg width="94" height="94" viewBox="0 0 94 94" fill="none" xmlns="http://www.w3.org/2000/svg">
<path d="M86.6562 69.7656H7.34375V31.5781C7.34375 28.3335 9.9741 25.7031 13.2188 25.7031H80.7812C84.0259 25.7031 86.6562 28.3335 86.6562 31.5781V69.7656Z" fill="#463C4B"/>
<path d="M80.7812 69.7656H7.34375V31.5781C7.34375 28.3335 9.9741 25.7031 13.2188 25.7031H74.9062C78.1509 25.7031 80.7812 28.3335 80.7812 31.5781V69.7656Z" fill="#555A6E"/>
<path d="M13.2188 77.1094H80.7812C84.0259 77.1094 86.6562 74.479 86.6562 71.2344V69.7656H7.34375V71.2344C7.34375 74.479 9.9741 77.1094 13.2188 77.1094Z" fill="#A5C3DC"/>
<path d="M74.9062 77.1094H13.2188C9.9741 77.1094 7.34375 74.479 7.34375 71.2344V69.7656H80.7812V71.2344C80.7812 74.479 78.1509 77.1094 74.9062 77.1094Z" fill="#D7E6F0"/>
<path d="M38.1875 77.1094H51.4062V82.9844H38.1875V77.1094Z" fill="#A5C3DC"/>
<path d="M38.1875 80.0469H47V82.9844H38.1875V80.0469Z" fill="#D7E6F0"/>
<path d="M58.75 87.3906H29.375V85.9219C29.375 84.2995 30.6901 82.9844 32.3125 82.9844H55.8125C57.4349 82.9844 58.75 84.2995 58.75 85.9219V87.3906Z" fill="#D7E6F0"/>
<path d="M58.75 87.3906H49.9375V85.9219C49.9375 84.2995 51.2526 82.9844 52.875 82.9844H55.8125C57.4349 82.9844 58.75 84.2995 58.75 85.9219V87.3906Z" fill="#A5C3DC"/>
<path d="M71.9688 69.7656H16.1562V12.4844C16.1562 9.23972 18.7866 6.60938 22.0312 6.60938H57.2812L71.9688 19.8281V69.7656Z" fill="#5AD7FF"/>
<path d="M44.0625 38.9219H29.375C26.9415 38.9219 24.9688 36.9492 24.9688 34.5156C24.9688 32.0821 26.9415 30.1094 29.375 30.1094H44.0625C46.496 30.1094 48.4688 32.0821 48.4688 34.5156C48.4688 36.9492 46.496 38.9219 44.0625 38.9219Z" fill="#2387C3"/>
<path d="M44.0625 56.5469H29.375C26.9415 56.5469 24.9688 54.5742 24.9688 52.1406C24.9688 49.7071 26.9415 47.7344 29.375 47.7344H44.0625C46.496 47.7344 48.4688 49.7071 48.4688 52.1406C48.4688 54.5742 46.496 56.5469 44.0625 56.5469Z" fill="#2387C3"/>
<path d="M48.4688 69.7656H24.9688C24.9688 67.3321 26.9415 65.3594 29.375 65.3594H44.0625C46.496 65.3594 48.4688 67.3321 48.4688 69.7656Z" fill="#2387C3"/>
<path d="M57.2812 6.60938V13.9531C57.2812 17.1978 59.9116 19.8281 63.1562 19.8281H71.9688L57.2812 6.60938Z" fill="#2387C3"/>
<path d="M24.9688 63.8906C34.7028 63.8906 42.5938 55.9996 42.5938 46.2656C42.5938 36.5316 34.7028 28.6406 24.9688 28.6406C15.2347 28.6406 7.34375 36.5316 7.34375 46.2656C7.34375 55.9996 15.2347 63.8906 24.9688 63.8906Z" fill="#FFCD05"/>
<path d="M35.9093 46.2648C35.9093 45.8977 35.8904 45.5349 35.854 45.1772C35.7964 44.6081 36.0821 44.0595 36.5776 43.7737L36.5789 43.7729C37.2785 43.369 37.5183 42.4742 37.1144 41.7745L34.9309 37.9925C34.527 37.2928 33.6322 37.053 32.9325 37.4569L32.9303 37.4582C32.4351 37.7441 31.8172 37.7174 31.3532 37.3833C30.7652 36.9598 30.1334 36.5931 29.4659 36.2917C28.9461 36.057 28.6164 35.5353 28.6164 34.965C28.6164 34.157 27.9613 33.502 27.1533 33.502H22.7862C21.9782 33.502 21.3231 34.157 21.3231 34.965C21.3231 35.5353 20.9932 36.0568 20.4736 36.2917C19.8061 36.5931 19.1744 36.9598 18.5863 37.3833C18.1224 37.7174 17.5044 37.7443 17.0092 37.4582L17.007 37.4569C16.3074 37.053 15.4125 37.2926 15.0086 37.9925L12.8251 41.7745C12.4212 42.4742 12.6608 43.369 13.3607 43.7729L13.362 43.7737C13.8573 44.0597 14.1431 44.6081 14.0855 45.1772C14.0493 45.5349 14.0302 45.8977 14.0302 46.2648C14.0302 46.632 14.0491 46.9948 14.0855 47.3525C14.1431 47.9216 13.8575 48.4702 13.362 48.756L13.3607 48.7568C12.661 49.1607 12.4212 50.0555 12.8251 50.7552L15.0086 54.5372C15.4125 55.2369 16.3074 55.4767 17.007 55.0728L17.0092 55.0715C17.5044 54.7856 18.1224 54.8122 18.5863 55.1464C19.1744 55.5699 19.8061 55.9366 20.4736 56.238C20.9934 56.4727 21.3231 56.9944 21.3231 57.5647C21.3231 58.3727 21.9782 59.0277 22.7862 59.0277H27.1533C27.9613 59.0277 28.6164 58.3727 28.6164 57.5647C28.6164 56.9944 28.9463 56.4728 29.4659 56.238C30.1334 55.9366 30.7652 55.5699 31.3532 55.1464C31.8172 54.8122 32.4351 54.7854 32.9303 55.0715L32.9325 55.0728C33.6322 55.4767 34.527 55.2371 34.9309 54.5372L37.1144 50.7552C37.5183 50.0555 37.2787 49.1607 36.5789 48.7568L36.5776 48.756C36.0822 48.47 35.7964 47.9216 35.854 47.3525C35.8904 46.9948 35.9093 46.632 35.9093 46.2648Z" fill="#FAA019"/>
<path d="M24.9688 49.9122C26.9827 49.9122 28.6153 48.2796 28.6153 46.2657C28.6153 44.2518 26.9827 42.6191 24.9688 42.6191C22.9549 42.6191 21.3223 44.2518 21.3223 46.2657C21.3223 48.2796 22.9549 49.9122 24.9688 49.9122Z" fill="#FFCD05"/>
<path d="M57.2812 40.3906C60.5259 40.3906 63.1562 37.7603 63.1562 34.5156C63.1562 31.271 60.5259 28.6406 57.2812 28.6406C54.0366 28.6406 51.4062 31.271 51.4062 34.5156C51.4062 37.7603 54.0366 40.3906 57.2812 40.3906Z" fill="#2387C3"/>
<path d="M57.2812 58.0156C60.5259 58.0156 63.1562 55.3853 63.1562 52.1406C63.1562 48.896 60.5259 46.2656 57.2812 46.2656C54.0366 46.2656 51.4062 48.896 51.4062 52.1406C51.4062 55.3853 54.0366 58.0156 57.2812 58.0156Z" fill="#2387C3"/>
<path d="M57.2812 63.8906C54.0366 63.8906 51.4062 66.521 51.4062 69.7656H63.1562C63.1562 66.521 60.5259 63.8906 57.2812 63.8906Z" fill="#2387C3"/>
<path d="M57.2814 37.4533C56.9056 37.4533 56.5296 37.3099 56.2428 37.0231L53.3053 34.0856C52.7316 33.5121 52.7316 32.5822 53.3053 32.0086C53.8788 31.4349 54.8088 31.4349 55.3823 32.0086L57.2814 33.9073L63.5865 27.6022C64.1601 27.0284 65.09 27.0284 65.6635 27.6022C66.2373 28.1757 66.2373 29.1056 65.6635 29.6792L58.3198 37.0229C58.0332 37.3099 57.6572 37.4533 57.2814 37.4533Z" fill="#D7E6F0"/>
<path d="M57.2814 55.0783C56.9056 55.0783 56.5296 54.9349 56.2428 54.6481L53.3053 51.7106C52.7316 51.1371 52.7316 50.2072 53.3053 49.6336C53.8788 49.0599 54.8088 49.0599 55.3823 49.6336L57.2814 51.5323L63.5865 45.2272C64.1601 44.6534 65.09 44.6534 65.6635 45.2272C66.2373 45.8007 66.2373 46.7306 65.6635 47.3042L58.3198 54.6479C58.0332 54.9349 57.6572 55.0783 57.2814 55.0783Z" fill="#D7E6F0"/>
</svg>
