<svg width="77" height="77" viewBox="0 0 77 77" fill="none" xmlns="http://www.w3.org/2000/svg">
<path d="M65.482 41.405C60.5661 45.0918 54.5649 47.6515 48.0334 48.9143C47.3738 53.5862 43.3512 57.1923 38.5 57.1923C33.6488 57.1923 29.6262 53.5862 28.9666 48.9143C22.4351 47.6515 16.4339 45.0918 11.518 41.405C4.09047 35.8344 0 28.3672 0 20.3789V61.3604C0 67.4865 4.9841 72.4705 11.1101 72.4705H65.8899C72.0159 72.4705 77 67.4865 77 61.3604V20.3789C77 28.3672 72.9095 35.8344 65.482 41.405Z" fill="#023A59"/>
<path d="M28.8697 44.2852V40.1875C28.8697 38.9417 29.8798 37.9317 31.1256 37.9317H45.8744C47.1202 37.9317 48.1303 38.9417 48.1303 40.1875V44.2852C62.1958 41.2321 72.4883 31.6712 72.4883 20.3787V18.1228H54.3474V13.64C54.3474 8.61736 50.2612 4.53125 45.2387 4.53125H31.7614C26.739 4.53125 22.6527 8.61736 22.6527 13.64V18.1228H4.51172V20.3787C4.51172 31.6712 14.8042 41.2321 28.8697 44.2852ZM27.1643 13.64C27.1643 11.1051 29.2266 9.04297 31.7613 9.04297H45.2386C47.7732 9.04297 49.8355 11.1051 49.8355 13.64V18.1228H27.1642V13.64H27.1643Z" fill="#023A59"/>
<path d="M43.618 42.4414H33.3809V47.56C33.3809 50.3823 35.6772 52.6785 38.4994 52.6785C41.3216 52.6785 43.618 50.3823 43.618 47.56V42.4414Z" fill="#023A59"/>
</svg>
