<svg width="100" height="100" viewBox="0 0 100 100" fill="none" xmlns="http://www.w3.org/2000/svg">
<g clip-path="url(#clip0_345_4890)">
<path d="M89.5508 79.0881C94.7877 71.4145 97.8516 62.1397 97.8516 52.1484C97.8516 25.7207 76.4277 4.29688 50 4.29688C23.5723 4.29688 2.14844 25.7207 2.14844 52.1484C2.14844 62.1397 5.2123 71.4145 10.4492 79.0881H89.5508Z" fill="#47477F"/>
<path d="M34.8633 97.5541L77.832 48.834V23.4375L39.3848 5.47852H39.3828L32.623 2.32227C29.3496 0.792969 25.7812 0 22.168 0C15.6953 0 10.4492 5.24609 10.4492 11.7188V79.0899C16.2914 87.65 24.8404 94.2149 34.8635 97.5549L34.8633 97.5541Z" fill="#E9EFFF"/>
<path d="M77.832 23.4375C77.832 26.6738 75.209 29.2969 71.9727 29.2969H28.7227C25.4863 29.2969 22.8633 31.9199 22.8633 35.1562V91.5645C17.9961 88.209 13.7812 83.9746 10.4492 79.0898V11.7188C10.4492 8.48242 11.7617 5.55273 13.8809 3.43164C16.002 1.3125 18.9316 0 22.168 0C25.7812 0 29.3496 0.792969 32.623 2.32227L39.3828 5.47852L77.832 23.4375Z" fill="#D3DCFB"/>
<path d="M89.5508 11.7188C89.5508 18.1908 84.3041 23.4375 77.832 23.4375H24.2094C23.0818 23.4375 22.168 22.5234 22.168 21.3961C22.168 20.4135 22.8654 19.5562 23.8338 19.3898C28.4336 18.5992 31.9336 14.5912 31.9336 9.76562C31.9336 4.37227 27.5613 0 22.168 0H77.832C84.3041 0 89.5508 5.24668 89.5508 11.7188Z" fill="#E9EFFF"/>
<path d="M83.6914 35.5469H40.7227C37.4865 35.5469 34.8633 38.1701 34.8633 41.4062V97.5547C36.7658 98.1887 38.7223 98.7047 40.7227 99.098H44.9951L49.2676 99.9908L49.2668 99.9926C49.5109 99.9963 49.7551 100 50 100C50.7367 100 51.4693 99.9826 52.1978 99.9498L52.1973 99.9479L56.4697 98.7887H60.7387C61.7285 98.5617 62.7064 98.3039 63.6719 98.0166V98.0146L67.5781 94.5371H72.2168V94.5389C73.2145 94.0148 74.1918 93.457 75.1465 92.866V92.8643L79.4189 86.1262H83.6904C85.859 83.9756 87.8234 81.6193 89.5508 79.0883V41.4062C89.5508 38.1701 86.9275 35.5469 83.6914 35.5469Z" fill="#8F8FF9"/>
<path d="M58.0566 35.5469H40.7227C37.4865 35.5469 34.8633 38.1701 34.8633 41.4062V97.5541C36.7668 98.1883 38.724 98.7045 40.7252 99.0979H44.9951L49.2676 99.9906L49.2668 99.9924C49.5109 99.9961 49.7551 99.9998 50 99.9998C50.7367 99.9998 51.4688 99.9805 52.1973 99.9477V41.4062C52.1973 38.1701 54.8205 35.5469 58.0566 35.5469Z" fill="#746BF9"/>
<path d="M40.7227 51.1719V43.3594C40.7227 42.2807 41.5971 41.4062 42.6758 41.4062H81.7383C82.817 41.4062 83.6914 42.2807 83.6914 43.3594V51.1719C83.6914 52.2506 82.817 53.125 81.7383 53.125H42.6758C41.5971 53.125 40.7227 52.2506 40.7227 51.1719Z" fill="#B8F0FF"/>
<path d="M50.0977 51.1719V43.3594C50.0977 42.2807 50.9721 41.4062 52.0508 41.4062H42.6758C41.5971 41.4062 40.7227 42.2807 40.7227 43.3594V51.1719C40.7227 52.2506 41.5971 53.125 42.6758 53.125H52.0508C50.9721 53.125 50.0977 52.2506 50.0977 51.1719Z" fill="#8AE1FF"/>
<path d="M42.6758 58.9844H47.3145C48.3932 58.9844 49.2676 59.8588 49.2676 60.9375V65.5762C49.2676 66.6549 48.3932 67.5293 47.3145 67.5293H42.6758C41.5971 67.5293 40.7227 66.6549 40.7227 65.5762V60.9375C40.7227 59.8588 41.5971 58.9844 42.6758 58.9844Z" fill="#5F5F9B"/>
<path d="M44.6289 65.5762V60.9375C44.6289 59.8588 45.5033 58.9844 46.582 58.9844H42.6758C41.5971 58.9844 40.7227 59.8588 40.7227 60.9375V65.5762C40.7227 66.6549 41.5971 67.5293 42.6758 67.5293H46.582C45.5033 67.5293 44.6289 66.6549 44.6289 65.5762Z" fill="#47477F"/>
<path d="M54.1504 58.9844H58.7891C59.8678 58.9844 60.7422 59.8588 60.7422 60.9375V65.5762C60.7422 66.6549 59.8678 67.5293 58.7891 67.5293H54.1504C53.0717 67.5293 52.1973 66.6549 52.1973 65.5762V60.9375C52.1973 59.8588 53.0717 58.9844 54.1504 58.9844Z" fill="#7373AD"/>
<path d="M56.1035 65.5762V60.9375C56.1035 59.8588 56.9779 58.9844 58.0566 58.9844H54.1504C53.0717 58.9844 52.1973 59.8588 52.1973 60.9375V65.5762C52.1973 66.6549 53.0717 67.5293 54.1504 67.5293H58.0566C56.9779 67.5293 56.1035 66.6549 56.1035 65.5762Z" fill="#5F5F9B"/>
<path d="M65.625 58.9844H70.2637C71.3424 58.9844 72.2168 59.8588 72.2168 60.9375V65.5762C72.2168 66.6549 71.3424 67.5293 70.2637 67.5293H65.625C64.5463 67.5293 63.6719 66.6549 63.6719 65.5762V60.9375C63.6719 59.8588 64.5463 58.9844 65.625 58.9844Z" fill="#7373AD"/>
<path d="M77.0996 58.9844H81.7383C82.817 58.9844 83.6914 59.8588 83.6914 60.9375V65.5762C83.6914 66.6549 82.817 67.5293 81.7383 67.5293H77.0996C76.0209 67.5293 75.1465 66.6549 75.1465 65.5762V60.9375C75.1465 59.8588 76.0209 58.9844 77.0996 58.9844Z" fill="#7373AD"/>
<path d="M42.6758 70.459H47.3145C48.3932 70.459 49.2676 71.3334 49.2676 72.4121V77.0508C49.2676 78.1295 48.3932 79.0039 47.3145 79.0039H42.6758C41.5971 79.0039 40.7227 78.1295 40.7227 77.0508V72.4121C40.7227 71.3334 41.5971 70.459 42.6758 70.459Z" fill="#5F5F9B"/>
<path d="M54.1504 70.459H58.7891C59.8678 70.459 60.7422 71.3334 60.7422 72.4121V77.0508C60.7422 78.1295 59.8678 79.0039 58.7891 79.0039H54.1504C53.0717 79.0039 52.1973 78.1295 52.1973 77.0508V72.4121C52.1973 71.3334 53.0717 70.459 54.1504 70.459Z" fill="#7373AD"/>
<path d="M65.625 70.459H70.2637C71.3424 70.459 72.2168 71.3334 72.2168 72.4121V77.0508C72.2168 78.1295 71.3424 79.0039 70.2637 79.0039H65.625C64.5463 79.0039 63.6719 78.1295 63.6719 77.0508V72.4121C63.6719 71.3334 64.5463 70.459 65.625 70.459Z" fill="#7373AD"/>
<path d="M77.0996 70.459H81.7383C82.817 70.459 83.6914 71.3334 83.6914 72.4121V77.0508C83.6914 78.1295 82.817 79.0039 81.7383 79.0039H77.0996C76.0209 79.0039 75.1465 78.1295 75.1465 77.0508V72.4121C75.1465 71.3334 76.0209 70.459 77.0996 70.459Z" fill="#7373AD"/>
<path d="M42.6758 81.9336H47.3145C48.3932 81.9336 49.2676 82.808 49.2676 83.8867V88.5254C49.2676 89.6041 48.3932 90.4785 47.3145 90.4785H42.6758C41.5971 90.4785 40.7227 89.6041 40.7227 88.5254V83.8867C40.7227 82.808 41.5971 81.9336 42.6758 81.9336Z" fill="#D3DCFB"/>
<path d="M54.1504 81.9336H58.7891C59.8678 81.9336 60.7422 82.808 60.7422 83.8867V88.5254C60.7422 89.6041 59.8678 90.4785 58.7891 90.4785H54.1504C53.0717 90.4785 52.1973 89.6041 52.1973 88.5254V83.8867C52.1973 82.808 53.0717 81.9336 54.1504 81.9336Z" fill="#E9EFFF"/>
<path d="M47.3145 93.4082H42.6758C41.5971 93.4082 40.7227 94.2826 40.7227 95.3613V99.098C43.4928 99.6424 46.3484 99.9469 49.2676 99.9908V95.3613C49.2676 94.2826 48.3932 93.4082 47.3145 93.4082Z" fill="#D3DCFB"/>
<path d="M58.7891 93.4082H54.1504C53.0717 93.4082 52.1973 94.2826 52.1973 95.3613V99.9479C55.1215 99.8156 57.9777 99.4229 60.7422 98.7887V95.3613C60.7422 94.2826 59.8678 93.4082 58.7891 93.4082Z" fill="#E9EFFF"/>
<path d="M81.7383 81.9336H77.0996C76.0209 81.9336 75.1465 82.808 75.1465 83.8867V92.8641C78.2482 90.9443 81.1145 88.6812 83.6914 86.126V83.8867C83.6914 82.808 82.817 81.9336 81.7383 81.9336Z" fill="#FF7186"/>
<path d="M75.1465 83.8867V92.8641C76.4947 92.0297 77.798 91.1301 79.0527 90.1697V83.8867C79.0527 82.808 79.9271 81.9336 81.0059 81.9336H77.0996C76.0209 81.9336 75.1465 82.808 75.1465 83.8867Z" fill="#FF4155"/>
<path d="M67.5781 65.5762V60.9375C67.5781 59.8588 68.4525 58.9844 69.5312 58.9844H65.625C64.5463 58.9844 63.6719 59.8588 63.6719 60.9375V65.5762C63.6719 66.6549 64.5463 67.5293 65.625 67.5293H69.5312C68.4525 67.5293 67.5781 66.6549 67.5781 65.5762Z" fill="#5F5F9B"/>
<path d="M79.0527 65.5762V60.9375C79.0527 59.8588 79.9271 58.9844 81.0059 58.9844H77.0996C76.0209 58.9844 75.1465 59.8588 75.1465 60.9375V65.5762C75.1465 66.6549 76.0209 67.5293 77.0996 67.5293H81.0059C79.9271 67.5293 79.0527 66.6549 79.0527 65.5762Z" fill="#5F5F9B"/>
<path d="M44.6289 77.0508V72.4121C44.6289 71.3334 45.5033 70.459 46.582 70.459H42.6758C41.5971 70.459 40.7227 71.3334 40.7227 72.4121V77.0508C40.7227 78.1295 41.5971 79.0039 42.6758 79.0039H46.582C45.5033 79.0039 44.6289 78.1295 44.6289 77.0508Z" fill="#47477F"/>
<path d="M56.1035 77.0508V72.4121C56.1035 71.3334 56.9779 70.459 58.0566 70.459H54.1504C53.0717 70.459 52.1973 71.3334 52.1973 72.4121V77.0508C52.1973 78.1295 53.0717 79.0039 54.1504 79.0039H58.0566C56.9779 79.0039 56.1035 78.1295 56.1035 77.0508Z" fill="#5F5F9B"/>
<path d="M67.5781 77.0508V72.4121C67.5781 71.3334 68.4525 70.459 69.5312 70.459H65.625C64.5463 70.459 63.6719 71.3334 63.6719 72.4121V77.0508C63.6719 78.1295 64.5463 79.0039 65.625 79.0039H69.5312C68.4525 79.0039 67.5781 78.1295 67.5781 77.0508Z" fill="#5F5F9B"/>
<path d="M79.0527 77.0508V72.4121C79.0527 71.3334 79.9271 70.459 81.0059 70.459H77.0996C76.0209 70.459 75.1465 71.3334 75.1465 72.4121V77.0508C75.1465 78.1295 76.0209 79.0039 77.0996 79.0039H81.0059C79.9271 79.0039 79.0527 78.1295 79.0527 77.0508Z" fill="#5F5F9B"/>
<path d="M44.6289 88.5254V83.8867C44.6289 82.808 45.5033 81.9336 46.582 81.9336H42.6758C41.5971 81.9336 40.7227 82.808 40.7227 83.8867V88.5254C40.7227 89.6041 41.5971 90.4785 42.6758 90.4785H46.582C45.5033 90.4785 44.6289 89.6041 44.6289 88.5254Z" fill="#BEC8F7"/>
<path d="M56.1035 88.5254V83.8867C56.1035 82.808 56.9779 81.9336 58.0566 81.9336H54.1504C53.0717 81.9336 52.1973 82.808 52.1973 83.8867V88.5254C52.1973 89.6041 53.0717 90.4785 54.1504 90.4785H58.0566C56.9779 90.4785 56.1035 89.6041 56.1035 88.5254Z" fill="#D3DCFB"/>
<path d="M40.7227 95.3613V99.098C42.007 99.3504 43.31 99.551 44.6289 99.6982V95.3613C44.6289 94.2826 45.5033 93.4082 46.582 93.4082H42.6758C41.5971 93.4082 40.7227 94.2826 40.7227 95.3613Z" fill="#BEC8F7"/>
<path d="M52.1973 95.3613V99.9479C53.5137 99.8883 54.817 99.7781 56.1035 99.6143V95.3613C56.1035 94.2826 56.9779 93.4082 58.0566 93.4082H54.1504C53.0717 93.4082 52.1973 94.2826 52.1973 95.3613Z" fill="#D3DCFB"/>
<path d="M70.2637 81.9336H65.625C64.5463 81.9336 63.6719 82.808 63.6719 83.8867V98.0146C66.6523 97.1275 69.5107 95.9582 72.2168 94.5371V83.8867C72.2168 82.808 71.3424 81.9336 70.2637 81.9336Z" fill="#FFDD40"/>
<path d="M63.6719 83.8867V98.0146C64.9986 97.6197 66.3023 97.1719 67.5781 96.6678V83.8867C67.5781 82.808 68.4525 81.9336 69.5312 81.9336H65.625C64.5463 81.9336 63.6719 82.808 63.6719 83.8867Z" fill="#FFC839"/>
</g>
<defs>
<clipPath id="clip0_345_4890">
<rect width="100" height="100" fill="white"/>
</clipPath>
</defs>
</svg>
