<svg width="100" height="100" viewBox="0 0 100 100" fill="none" xmlns="http://www.w3.org/2000/svg">
<g clip-path="url(#clip0_344_3723)">
<path d="M48.3887 100C74.8164 100 96.2402 78.5761 96.2402 52.1484C96.2402 25.7207 74.8164 4.29688 48.3887 4.29688C21.961 4.29688 0.537109 25.7207 0.537109 52.1484C0.537109 78.5761 21.961 100 48.3887 100Z" fill="#E2DEE2"/>
<path d="M15.5137 86.9141C18.0133 89.2789 20.7666 91.3781 23.7307 93.1641H66.5525C67.0918 93.1641 67.5291 92.7268 67.5291 92.1875V86.9141H15.5137Z" fill="#CBC4CC"/>
<path d="M11.2793 12.1094H6.00586C5.4666 12.1094 5.0293 12.5467 5.0293 13.0859V72.409C6.70469 75.9881 8.81074 79.3246 11.2793 82.3543V12.1094Z" fill="#CBC4CC"/>
<path d="M18.1152 80.8594C17.6844 80.8594 17.334 80.509 17.334 80.0781V6.05469H12.0605C11.5213 6.05469 11.084 6.49199 11.084 7.03125V82.1144C12.5102 83.8877 14.0598 85.5568 15.7205 87.1094H72.6074C73.1467 87.1094 73.584 86.6721 73.584 86.1328V80.8594H18.1152Z" fill="#B5ADB6"/>
<path d="M68.4297 62.0818C65.1268 59.3545 63.2324 55.3334 63.2324 51.05V30.2451C63.2324 29.0062 64.2404 27.9984 65.4791 27.9984H79.6387V0.976562C79.6387 0.437305 79.2014 0 78.6621 0H18.1152C17.576 0 17.1387 0.437305 17.1387 0.976562V80.0781C17.1387 80.6174 17.576 81.0547 18.1152 81.0547H78.6621C79.2014 81.0547 79.6387 80.6174 79.6387 80.0781V71.3379L68.4297 62.0818Z" fill="#F2FBFF"/>
<path d="M28.1738 80.0781V0.976562C28.1738 0.437305 28.6111 0 29.1504 0H18.1152C17.576 0 17.1387 0.437305 17.1387 0.976562V80.0781C17.1387 80.6174 17.576 81.0547 18.1152 81.0547H29.1504C28.6111 81.0547 28.1738 80.6174 28.1738 80.0781Z" fill="#DFF6FD"/>
<path d="M70.8496 11.3281H25.9277C25.3885 11.3281 24.9512 10.8908 24.9512 10.3516V6.05469C24.9512 5.51543 25.3885 5.07812 25.9277 5.07812H70.8496C71.3889 5.07812 71.8262 5.51543 71.8262 6.05469V10.3516C71.8262 10.8908 71.3889 11.3281 70.8496 11.3281Z" fill="#99E6FC"/>
<path d="M34.4238 10.3516V6.05469C34.4238 5.51543 34.8611 5.07812 35.4004 5.07812H25.9277C25.3885 5.07812 24.9512 5.51543 24.9512 6.05469V10.3516C24.9512 10.8908 25.3885 11.3281 25.9277 11.3281H35.4004C34.8611 11.3281 34.4238 10.8908 34.4238 10.3516Z" fill="#62DBFB"/>
<path d="M32.8783 62.6322H27.3555C26.7084 62.6322 26.1836 62.1074 26.1836 61.4603V55.9375C26.1836 55.2904 26.7084 54.7656 27.3555 54.7656H32.8783C33.5254 54.7656 34.0502 55.2904 34.0502 55.9375V61.4603C34.0502 62.1074 33.5256 62.6322 32.8783 62.6322ZM28.5273 60.2885H31.7064V57.1094H28.5273V60.2885Z" fill="#7A6D79"/>
<path d="M63.9082 55.4092H39.5059C38.8588 55.4092 38.334 55.934 38.334 56.5811C38.334 57.2281 38.8588 57.7529 39.5059 57.7529H64.8945C64.4969 57.0035 64.1668 56.2193 63.9082 55.4092Z" fill="#7A6D79"/>
<path d="M66.0977 59.6436H39.5059C38.8588 59.6436 38.334 60.1684 38.334 60.8154C38.334 61.4625 38.8588 61.9873 39.5059 61.9873H67.857C67.9914 61.9873 68.1201 61.9635 68.2402 61.9219C67.4369 61.2352 66.7203 60.4705 66.0977 59.6436Z" fill="#7A6D79"/>
<path d="M32.8783 74.4145H27.3555C26.7084 74.4145 26.1836 73.8896 26.1836 73.2426V67.7197C26.1836 67.0727 26.7084 66.5479 27.3555 66.5479H32.8783C33.5254 66.5479 34.0502 67.0727 34.0502 67.7197V73.2426C34.0502 73.8896 33.5256 74.4145 32.8783 74.4145ZM28.5273 72.0707H31.7064V68.8916H28.5273V72.0707Z" fill="#7A6D79"/>
<path d="M67.857 69.5352H39.5059C38.8588 69.5352 38.334 69.0104 38.334 68.3633C38.334 67.7162 38.8588 67.1914 39.5059 67.1914H67.857C68.5041 67.1914 69.0289 67.7162 69.0289 68.3633C69.0289 69.0104 68.5043 69.5352 67.857 69.5352Z" fill="#7A6D79"/>
<path d="M67.857 73.7695H39.5059C38.8588 73.7695 38.334 73.2447 38.334 72.5977C38.334 71.9506 38.8588 71.4258 39.5059 71.4258H67.857C68.5041 71.4258 69.0289 71.9506 69.0289 72.5977C69.0289 73.2447 68.5043 73.7695 67.857 73.7695Z" fill="#7A6D79"/>
<path d="M67.857 18.6318H39.5059C38.8588 18.6318 38.334 18.107 38.334 17.46C38.334 16.8129 38.8588 16.2881 39.5059 16.2881H67.857C68.5041 16.2881 69.0289 16.8129 69.0289 17.46C69.0289 18.107 68.5043 18.6318 67.857 18.6318Z" fill="#0ED290"/>
<path d="M67.8564 22.8662H51.8398C51.1928 22.8662 50.668 22.3414 50.668 21.6943C50.668 21.0473 51.1928 20.5225 51.8398 20.5225H67.8564C68.5035 20.5225 69.0283 21.0473 69.0283 21.6943C69.0283 22.3414 68.5037 22.8662 67.8564 22.8662Z" fill="#0ED290"/>
<path d="M48.3426 22.8662H39.5059C38.8588 22.8662 38.334 22.3414 38.334 21.6943C38.334 21.0473 38.8588 20.5225 39.5059 20.5225H48.3426C48.9896 20.5225 49.5145 21.0473 49.5145 21.6943C49.5145 22.3414 48.9896 22.8662 48.3426 22.8662Z" fill="#0ED290"/>
<path d="M30.1168 23.1428C29.7715 23.1428 29.4414 22.9902 29.2176 22.7225L26.4563 19.4182C26.0412 18.9215 26.1075 18.1826 26.6039 17.7676C27.1006 17.3523 27.8397 17.4189 28.2547 17.9152L29.9231 19.9115L32.6832 14.9574C32.9981 14.3918 33.7117 14.1887 34.2774 14.5041C34.8428 14.8189 35.0457 15.5328 34.7307 16.098L31.1409 22.5414C30.9532 22.8787 30.6114 23.1016 30.227 23.1379C30.1901 23.141 30.1533 23.1428 30.1168 23.1428Z" fill="#0ED290"/>
<path d="M63.2313 30.2447C63.2313 29.965 63.285 29.6982 63.3787 29.4512H39.5059C38.8588 29.4512 38.334 29.976 38.334 30.623C38.334 31.2701 38.8588 31.7949 39.5059 31.7949H63.2313V30.2447Z" fill="#00C285"/>
<path d="M63.2307 33.6855H51.8398C51.1928 33.6855 50.668 34.2104 50.668 34.8574C50.668 35.5045 51.1928 36.0293 51.8398 36.0293H63.2307V33.6855Z" fill="#00C285"/>
<path d="M48.3426 36.0293H39.5059C38.8588 36.0293 38.334 35.5045 38.334 34.8574C38.334 34.2104 38.8588 33.6855 39.5059 33.6855H48.3426C48.9896 33.6855 49.5145 34.2104 49.5145 34.8574C49.5145 35.5045 48.9896 36.0293 48.3426 36.0293Z" fill="#00C285"/>
<path d="M30.117 36.3059C29.7717 36.3059 29.4416 36.1533 29.2178 35.8855L26.4563 32.5812C26.0412 32.0846 26.1075 31.3457 26.6039 30.9307C27.1006 30.5156 27.8397 30.5818 28.2547 31.0783L29.9231 33.0746L32.6832 28.1205C32.9981 27.5549 33.7118 27.3518 34.2774 27.6672C34.8428 27.982 35.0457 28.6959 34.7307 29.2611L31.1409 35.7045C30.9532 36.0418 30.6114 36.2646 30.227 36.301C30.1903 36.3041 30.1535 36.3059 30.117 36.3059Z" fill="#00C285"/>
<path d="M63.2313 42.6152H39.5059C38.8588 42.6152 38.334 43.14 38.334 43.7871C38.334 44.4342 38.8588 44.959 39.5059 44.959H63.2313V42.6152Z" fill="#00C285"/>
<path d="M63.2307 46.8496H51.8398C51.1928 46.8496 50.668 47.3744 50.668 48.0215C50.668 48.6686 51.1928 49.1934 51.8398 49.1934H63.2307V46.8496Z" fill="#00C285"/>
<path d="M48.3426 49.1934H39.5059C38.8588 49.1934 38.334 48.6686 38.334 48.0215C38.334 47.3744 38.8588 46.8496 39.5059 46.8496H48.3426C48.9896 46.8496 49.5145 47.3744 49.5145 48.0215C49.5145 48.6686 48.9896 49.1934 48.3426 49.1934Z" fill="#00C285"/>
<path d="M30.117 49.4691C29.7717 49.4691 29.4416 49.3166 29.2178 49.0488L26.4563 45.7443C26.0412 45.2477 26.1075 44.5086 26.6039 44.0935C27.1006 43.6787 27.8397 43.7449 28.2547 44.2414L29.9231 46.2379L32.6832 41.2836C32.9981 40.718 33.7121 40.5148 34.2772 40.8303C34.8426 41.1451 35.0455 41.859 34.7305 42.4242L31.1407 48.8678C30.953 49.2051 30.6112 49.4279 30.2268 49.4643C30.1903 49.4674 30.1535 49.4691 30.117 49.4691Z" fill="#00C285"/>
<path d="M99.4629 51.0506V30.2459C99.4629 28.8971 98.3695 27.8037 97.0207 27.8037H65.4793C64.1305 27.8037 63.0371 28.8971 63.0371 30.2459V51.0506C63.0371 55.3773 64.9691 59.4781 68.3053 62.2332L79.6949 71.6383C80.5977 72.3836 81.9021 72.3836 82.8049 71.6383L94.1945 62.2332C97.5309 59.4781 99.4629 55.3773 99.4629 51.0506Z" fill="#FED402"/>
<path d="M76.6061 62.2332C73.2697 59.4781 71.3379 55.3773 71.3379 51.0506V30.2459C71.3379 28.8971 72.4312 27.8037 73.7801 27.8037H65.4793C64.1305 27.8037 63.0371 28.8971 63.0371 30.2459V51.0506C63.0371 55.3773 64.9691 59.4781 68.3055 62.2332L79.6951 71.6385C80.5979 72.3838 81.9023 72.3838 82.8051 71.6385L85.4006 69.4953L76.6061 62.2332Z" fill="#FAC600"/>
<path d="M81.2504 62.2371C87.6472 62.2371 92.8328 57.0515 92.8328 50.6547C92.8328 44.2579 87.6472 39.0723 81.2504 39.0723C74.8536 39.0723 69.668 44.2579 69.668 50.6547C69.668 57.0515 74.8536 62.2371 81.2504 62.2371Z" fill="#0ED290"/>
<path d="M76.9711 50.6547C76.9711 45.5344 80.2951 41.193 84.902 39.6631C83.7535 39.2816 82.5268 39.0723 81.2504 39.0723C74.8535 39.0723 69.668 44.2578 69.668 50.6547C69.668 57.0516 74.8535 62.2371 81.2504 62.2371C82.5268 62.2371 83.7537 62.0275 84.902 61.6463C80.2951 60.1164 76.9711 55.7752 76.9711 50.6547Z" fill="#00C285"/>
<path d="M79.6345 57.2992C79.6271 57.2992 79.6197 57.2992 79.6123 57.299C79.19 57.2928 78.791 57.1043 78.5177 56.7822L73.2679 50.5963C72.7445 49.9795 72.8201 49.0551 73.4369 48.5316C74.0537 48.0084 74.9781 48.0838 75.5015 48.7008L79.6681 53.6103L86.6619 45.8584C87.2039 45.258 88.1303 45.2103 88.7308 45.7521C89.3316 46.2939 89.3791 47.2203 88.8373 47.8211L80.7222 56.816C80.4441 57.1238 80.0488 57.2992 79.6345 57.2992Z" fill="white"/>
<path d="M88.9418 35.1299H73.5566C72.7477 35.1299 72.0918 34.4742 72.0918 33.665C72.0918 32.8559 72.7477 32.2002 73.5566 32.2002H88.9418C89.7508 32.2002 90.4066 32.8559 90.4066 33.665C90.4066 34.4742 89.7508 35.1299 88.9418 35.1299Z" fill="white"/>
</g>
<defs>
<clipPath id="clip0_344_3723">
<rect width="100" height="100" fill="white"/>
</clipPath>
</defs>
</svg>
