<svg width="204" height="204" viewBox="0 0 204 204" fill="none" xmlns="http://www.w3.org/2000/svg">
<g clip-path="url(#clip0_2173_14853)">
<path d="M29.9414 5.98826H54.7212V0H23.9531V29.3425H29.9414V5.98826Z" fill="#46B2C8"/>
<path d="M60.709 5.98826H167.671V112.608H173.659V0H60.709V5.98826Z" fill="#46B2C8"/>
<path d="M167.671 185.037C167.671 192.191 161.851 198.012 154.697 198.012C147.543 198.012 141.722 192.191 141.722 185.037V166.074H51.7557V172.062H135.734V185.037C135.734 190.052 137.69 194.617 140.879 198.012H18.9628C11.8088 198.012 5.98826 192.191 5.98826 185.037V172.062H45.7675V166.074H29.9413V143.918H23.953V166.074H0V185.037C0 195.493 8.50692 204 18.9628 204H154.697C165.153 204 173.659 195.493 173.659 185.037V118.596H167.671V185.037Z" fill="#46B2C8"/>
<path d="M46.1447 144.418L46.908 144.62L47.6713 144.418C74.8405 137.256 93.816 112.629 93.816 84.5315V51.9183L79.3816 44.0449L76.514 49.3018L87.8278 55.4729V84.5315C87.8278 109.649 71.0427 131.695 46.908 138.421C22.7733 131.695 5.98826 109.649 5.98826 84.5315V55.4729L46.908 33.1531L60.7433 40.6995L63.6109 35.4426L46.908 26.332L0 51.9183V84.5315C0 112.629 18.9756 137.256 46.1447 144.418V144.418Z" fill="#115766"/>
<path d="M66.0137 43.5645L68.882 38.3068L74.1397 41.1751L71.2714 46.4328L66.0137 43.5645Z" fill="#46B2C8"/>
<path d="M13.9727 85.6327C13.9727 103.793 28.7473 118.568 46.9081 118.568C65.0689 118.568 79.8435 103.793 79.8435 85.6327C79.8435 67.4723 65.0689 52.6973 46.9081 52.6973C28.7473 52.6973 13.9727 67.4723 13.9727 85.6327ZM73.8552 85.6327C73.8552 100.492 61.7669 112.58 46.9081 112.58C32.0492 112.58 19.9609 100.492 19.9609 85.6327C19.9609 70.7738 32.0492 58.6855 46.9081 58.6855C61.7669 58.6855 73.8552 70.7738 73.8552 85.6327Z" fill="#46B2C8"/>
<path d="M29.0642 85.1124L24.8301 89.3473L38.9236 103.441L66.5906 75.774L62.3565 71.5391L38.9236 94.9723L29.0642 85.1124Z" fill="#81DD6A"/>
<path d="M193.021 75.8418L182.043 92.3095V193.02C182.043 199.074 186.968 203.999 193.021 203.999C199.075 203.999 204 199.074 204 193.02V92.3095L193.021 75.8418ZM193.021 86.6374L198.012 94.1227V178.05H188.031V94.1227L193.021 86.6374ZM193.021 198.011C190.27 198.011 188.031 195.772 188.031 193.02V184.038H198.012V193.02C198.012 195.772 195.773 198.011 193.021 198.011Z" fill="#115766"/>
<path d="M147.111 11.9766H161.084V17.9648H147.111V11.9766Z" fill="#46B2C8"/>
<path d="M135.135 11.9766H141.123V17.9648H135.135V11.9766Z" fill="#46B2C8"/>
<path d="M102.799 84.6328H116.771V90.6211H102.799V84.6328Z" fill="#46B2C8"/>
<path d="M134.736 84.6328H154.697V90.6211H134.736V84.6328Z" fill="#46B2C8"/>
<path d="M122.76 84.6328H128.748V90.6211H122.76V84.6328Z" fill="#46B2C8"/>
<path d="M102.799 68.666H122.76V74.6543H102.799V68.666Z" fill="#46B2C8"/>
<path d="M102.799 52.6973H120.764V58.6855H102.799V52.6973Z" fill="#46B2C8"/>
<path d="M126.752 52.6973H154.697V58.6855H126.752V52.6973Z" fill="#46B2C8"/>
<path d="M102.799 100.604H130.744V106.592H102.799V100.604Z" fill="#46B2C8"/>
<path d="M136.732 100.604H142.721V106.592H136.732V100.604Z" fill="#46B2C8"/>
<path d="M128.748 68.666H134.736V74.6543H128.748V68.666Z" fill="#46B2C8"/>
<path d="M90.8223 134.936H154.697V140.924H90.8223V134.936Z" fill="#46B2C8"/>
<path d="M102.799 146.912H142.721V152.9H102.799V146.912Z" fill="#46B2C8"/>
</g>
<defs>
<clipPath id="clip0_2173_14853">
<rect width="204" height="204" fill="white"/>
</clipPath>
</defs>
</svg>
