<svg width="100" height="100" viewBox="0 0 100 100" fill="none" xmlns="http://www.w3.org/2000/svg">
<g clip-path="url(#clip0_2543_38380)">
<path d="M50 4.29688C23.5723 4.29688 2.14844 25.7207 2.14844 52.1484C2.14844 73.2672 15.8301 91.1889 34.8127 97.5377H65.1873C84.1699 91.1889 97.8516 73.2672 97.8516 52.1484C97.8516 25.7207 76.4277 4.29688 50 4.29688Z" fill="#FFDD40"/>
<path d="M50 96.0938C71.5736 96.0938 89.0625 78.6049 89.0625 57.0312C89.0625 35.4576 71.5736 17.9688 50 17.9688C28.4264 17.9688 10.9375 35.4576 10.9375 57.0312C10.9375 78.6049 28.4264 96.0938 50 96.0938Z" fill="#FFC839"/>
<path d="M57.5877 90.265L54.1932 74.6094H45.8064L42.4119 90.265C41.5889 94.0615 38.5393 96.9018 34.8125 97.5377C39.5846 99.1338 44.6908 100 49.9998 100C55.3088 100 60.415 99.1338 65.1871 97.5377C61.4604 96.9018 58.4105 94.0617 57.5877 90.265Z" fill="#BB7067"/>
<path d="M45.8064 74.6094L42.4119 90.265C41.5889 94.0615 38.5393 96.9018 34.8125 97.5377C37.9779 98.5963 41.291 99.3316 44.7125 99.7078C46.4783 98.3877 47.777 96.4523 48.2715 94.1713L52.9148 74.6094H45.8064Z" fill="#9F5E54"/>
<path d="M81.7654 7.29883C99.3086 24.842 99.3086 53.285 81.7654 70.8279C64.2223 88.3709 35.7793 88.3711 18.2363 70.8279L81.7654 7.29883Z" fill="#D6837B"/>
<path d="M47.0693 81.0547C47.0693 79.4367 48.3811 78.125 49.999 78.125V39.0625L18.2344 70.8272C27.0061 79.5986 38.5025 83.9844 49.999 83.9844C48.3811 83.9844 47.0693 82.6727 47.0693 81.0547Z" fill="#BB7067"/>
<path d="M16.1647 72.8995C15.0206 71.7554 15.0206 69.9005 16.1647 68.7563L79.6938 5.22725C80.838 4.08311 82.6929 4.08311 83.837 5.22725C84.9812 6.37139 84.9812 8.22627 83.837 9.37041L20.3079 72.8995C19.1638 74.0437 17.3089 74.0437 16.1647 72.8995Z" fill="#9F5E54"/>
<path d="M83.6395 47.5607L84.0484 19.9076C82.425 17.0283 80.4482 14.375 78.1748 12.008L67.2152 3.99121C62.0215 1.43691 56.1789 0 50 0C44.4928 0 39.2531 1.14199 34.5012 3.19824L13.7619 24.458C11.9418 28.9699 10.9375 33.8986 10.9375 39.0625C10.9375 60.6361 28.4264 78.125 50 78.125C56.9926 78.125 63.5549 76.2857 69.2326 73.0676L83.6395 47.5607Z" fill="#01D0FB"/>
<path d="M63.1648 2.27656C59.0514 0.804297 54.6199 0 50 0C44.4928 0 39.2531 1.14199 34.5012 3.19824L13.7619 24.458C11.9418 28.9699 10.9375 33.8986 10.9375 39.0625C10.9375 60.6361 28.4264 78.125 50 78.125C54.6199 78.125 59.0514 77.3207 63.1648 75.8484C48.0689 70.4451 37.2674 56.0162 37.2674 39.0625C37.2674 22.1088 48.0689 7.67969 63.1648 2.27656Z" fill="#26A6FE"/>
<path d="M13.7617 24.4588L15.6811 30.2416C15.8018 30.6053 16.0549 30.9104 16.3902 31.0959L20.6434 33.4504C21.2564 33.7896 22.0217 33.668 22.4992 33.1551L23.5172 32.0617C24.0652 31.473 24.0623 30.56 23.5104 29.9748L22.3104 28.7029C22.0432 28.4197 21.8943 28.0451 21.8943 27.6559V24.9311C21.8943 24.0883 22.5775 23.4053 23.4201 23.4053H30.0412C30.3186 23.4053 30.5906 23.3297 30.8283 23.1865L37.2879 19.2969C37.5633 19.1311 37.7791 18.8826 37.9049 18.5869L40.2861 12.9879C40.4795 12.5332 40.8811 12.2004 41.3637 12.0945L45.3449 11.2219C45.918 11.0963 46.3682 10.6533 46.5031 10.0824L46.957 8.16172C47.1457 7.36309 46.6691 6.5582 45.8781 6.33984L34.5008 3.19922C25.0938 7.27012 17.6047 14.9324 13.7617 24.4588Z" fill="#0ED290"/>
<path d="M28.7664 34.4688H26.5162C26.1025 34.4688 25.7066 34.6367 25.4191 34.934L21.8566 38.6189C21.5816 38.9035 21.4277 39.2838 21.4277 39.6795V43.9334C21.4277 44.3109 21.5678 44.6752 21.8207 44.9557L25.1377 48.6318C25.3754 48.8951 25.6973 49.0676 26.0482 49.1191L30.0197 49.7043C30.7686 49.8146 31.3232 50.457 31.3232 51.2139V62.5625C31.3232 62.7398 31.3541 62.916 31.4146 63.0826L33.627 69.1834C33.7949 69.6463 34.1758 69.9998 34.65 70.1326L35.8529 70.4695C36.826 70.742 37.7902 70.0105 37.7902 69.0002V65.3857C37.7902 64.9055 38.0164 64.4531 38.4006 64.165L42.7898 60.873C43.174 60.585 43.4002 60.1326 43.4002 59.6523V55.9172C43.4002 55.5051 43.5668 55.1105 43.8621 54.8234L48.6795 50.1381C48.943 49.8818 49.1051 49.5391 49.1361 49.1727L49.432 45.6717C49.5012 44.8547 48.9121 44.1291 48.0982 44.0287L44.641 43.6025C44.1553 43.5426 43.7277 43.2533 43.4914 42.8248L40.9521 38.2189C40.6838 37.732 40.1719 37.4297 39.6158 37.4297H32.3736C31.8635 37.4297 31.3871 37.1748 31.1041 36.7502L30.0361 35.1482C29.7529 34.7238 29.2766 34.4688 28.7664 34.4688Z" fill="#0ED290"/>
<path d="M67.215 3.99219L62.6504 6.29707C62.2883 6.47988 61.8883 6.5752 61.4826 6.5752H58.5053C57.5109 6.5752 56.6045 7.14414 56.1721 8.03965L55.2654 9.91777C54.9082 10.6578 54.9232 11.5236 55.3059 12.2508C55.8631 13.3096 57.0728 13.849 58.2328 13.5561L63.3004 12.2764C63.7389 12.1656 64.1986 12.1717 64.634 12.2937L73.0131 14.6424C73.7949 14.8615 74.6344 14.7014 75.2807 14.21L78.1744 12.0092C75.0332 8.73848 71.3277 6.01484 67.215 3.99219Z" fill="#0ED290"/>
<path d="M84.0483 19.9067L76.1628 22.6298C75.7274 22.7802 75.264 22.83 74.8065 22.7757L68.6032 22.0386C67.9714 21.9636 67.3788 21.6929 66.9085 21.2644L64.2017 18.7993C63.604 18.255 62.8149 17.97 62.0073 18.0071L56.7589 18.2472C55.8483 18.2888 55.004 18.7354 54.4569 19.4647L53.0909 21.2862C52.5308 22.0331 52.3433 22.995 52.5819 23.8976L54.2944 30.3729C54.5472 31.3288 55.2474 32.103 56.1731 32.4501L63.0225 35.0186C63.685 35.2671 64.4134 35.2776 65.0829 35.0483L68.0589 34.0292C69.0954 33.6741 70.2429 33.9022 71.0649 34.6265L71.9733 35.4267C72.6309 36.006 73.0077 36.8401 73.0077 37.7165V41.2933C73.0077 41.8243 73.1464 42.3462 73.4099 42.8073L75.722 46.8534C76.2966 47.8591 76.2524 49.1032 75.6081 50.0655L67.37 62.3675C66.8755 63.106 66.7274 64.0235 66.9647 64.8802L69.2321 73.0667C81.0722 66.356 89.0624 53.6427 89.0624 39.0616C89.0624 32.1009 87.2395 25.5667 84.0483 19.9067Z" fill="#0ED290"/>
<path d="M21.8566 38.6184C21.5816 38.9029 21.4277 39.2832 21.4277 39.6789V43.9328C21.4277 44.3103 21.5678 44.6746 21.8207 44.9551L25.1377 48.6312C25.3754 48.8945 25.6973 49.067 26.0482 49.1186L30.0197 49.7037C30.7686 49.8141 31.3232 50.4564 31.3232 51.2133V62.5619C31.3232 62.7393 31.3541 62.9154 31.4146 63.0822L33.627 69.183C33.7949 69.6459 34.1758 69.9994 34.65 70.1322L35.8529 70.4691C36.826 70.7416 37.7902 70.0102 37.7902 68.9998L36.3064 68.0603C35.76 67.7143 35.4201 67.1201 35.399 66.4736L34.8521 49.6541C34.8283 48.9201 34.3947 48.2615 33.7301 47.9496L28.1916 45.3498C27.8012 45.1666 27.4824 44.8592 27.2852 44.4758L24.8217 39.6912C24.6125 39.2848 24.5523 38.8178 24.652 38.3717L25.4191 34.9336L21.8566 38.6184Z" fill="#0BB494"/>
<path d="M20.6604 19.4305L26.6375 17.126C27.391 16.8355 27.8881 16.1111 27.8881 15.3035V12.2791C27.8881 11.5852 28.2563 10.9434 28.8553 10.593L35.6727 6.60684C35.9717 6.43203 36.3121 6.33984 36.6586 6.33984H45.8785L34.5012 3.19922C25.0938 7.27012 17.6047 14.9324 13.7617 24.4588L15.6811 30.2416C15.8018 30.6053 16.0549 30.9104 16.3902 31.0959L20.6434 33.4504L18.5051 29.0658C18.3293 28.7055 18.2688 28.3 18.3314 27.9041L19.4338 20.9473C19.543 20.259 20.0102 19.6811 20.6604 19.4305Z" fill="#0BB494"/>
<path d="M52.5819 23.8977L54.2944 30.373C54.5472 31.3289 55.2474 32.1031 56.1731 32.4502L63.0226 35.0187C63.6851 35.2672 64.4134 35.2777 65.0829 35.0484L68.0589 34.0293C69.0954 33.6742 70.2429 33.9023 71.0649 34.6266L71.9733 35.4268C72.631 36.0061 73.0077 36.8402 73.0077 37.7166V41.2934C73.0077 41.8244 73.1464 42.3463 73.4099 42.8074L75.722 46.8535C76.2966 47.8592 76.2524 49.1033 75.6081 50.0656L67.37 62.3676C66.8755 63.1061 66.7274 64.0236 66.9647 64.8803L69.2321 73.0668C70.4724 72.3639 71.6696 71.5941 72.8206 70.7643L71.9602 63.9775C71.9022 63.5193 72.0083 63.0555 72.2599 62.6682L80.6968 49.6781C81.0683 49.1061 81.1145 48.3816 80.8186 47.767L77.7165 41.3242C77.5157 40.9072 77.4696 40.4326 77.5862 39.9848L78.6552 35.8795C78.8103 35.284 78.6755 34.6502 78.2917 34.1691L75.1386 30.2176C74.6917 29.6576 73.9743 29.3871 73.269 29.5129L65.7231 30.8586C65.3722 30.9211 65.0108 30.8865 64.6782 30.7584L58.6145 28.4227C58.1009 28.2248 57.6944 27.8191 57.4954 27.3059L54.4567 19.4648L53.0907 21.2863C52.5308 22.0332 52.3433 22.9953 52.5819 23.8977Z" fill="#0BB494"/>
<path d="M65.4982 10.0123C65.0082 9.84668 64.4902 9.77988 63.9742 9.81602L59.6641 10.1178C58.9445 10.1682 58.4205 9.44805 58.69 8.77891L59.5777 6.57422H58.5053C57.5109 6.57422 56.6045 7.14316 56.1721 8.03867L55.2654 9.9168C54.9082 10.6568 54.9232 11.5225 55.3059 12.2498C55.8631 13.3086 57.0728 13.848 58.2328 13.5551L63.3002 12.2752C63.7387 12.1645 64.1984 12.1705 64.6338 12.2926L73.0129 14.6412C73.7947 14.8604 74.6342 14.7002 75.2805 14.2088L76.0889 13.5939L65.4982 10.0123Z" fill="#0BB494"/>
</g>
<defs>
<clipPath id="clip0_2543_38380">
<rect width="100" height="100" fill="white"/>
</clipPath>
</defs>
</svg>
