<svg width="77" height="77" viewBox="0 0 77 77" fill="none" xmlns="http://www.w3.org/2000/svg">
<g clip-path="url(#clip0_2543_30641)">
<path d="M21.6054 36.1599C24.4465 36.1599 26.7498 33.8567 26.7498 31.0155C26.7498 28.1743 24.4465 25.8711 21.6054 25.8711C18.7642 25.8711 16.4609 28.1743 16.4609 31.0155C16.4609 33.8567 18.7642 36.1599 21.6054 36.1599Z" fill="#023A59"/>
<path d="M21.6057 40.7539C18.6646 40.7539 16.1557 42.6397 15.2246 45.2656H27.9866C27.0555 42.6397 24.5467 40.7539 21.6057 40.7539Z" fill="#023A59"/>
<path d="M43.6625 52.2372C43.6625 50.462 43.9062 48.7243 44.3761 47.0618H38.5V42.55H46.3212C47.1163 41.2203 48.0812 39.9796 49.2054 38.8556C49.5659 38.4951 49.939 38.1517 50.3227 37.8242H38.5V33.3125H62.5872C67.6421 33.3125 72.3944 35.2811 75.9689 38.8556C76.3294 39.216 76.6727 39.589 77.0001 39.9725V20.123C77.0001 14.7329 72.6149 10.3477 67.2248 10.3477H9.77539C4.38524 10.3477 0 14.7329 0 20.123V51.0131C0 56.4033 4.38524 60.7885 9.77539 60.7885H45.6948C44.3661 58.1705 43.6625 55.2581 43.6625 52.2372ZM11.9499 31.0149C11.9499 25.6905 16.2816 21.3588 21.606 21.3588C26.9304 21.3588 31.2621 25.6905 31.2621 31.0149C31.2621 33.8871 30.0002 36.4689 28.0033 38.2393C30.9499 40.2763 32.8853 43.6765 32.8853 47.5218V49.7777H10.3267V47.5218C10.3267 43.6766 12.2622 40.2763 15.2087 38.2393C13.212 36.4689 11.9499 33.8871 11.9499 31.0149ZM46.7619 28.5863H38.5V24.0746H46.7619V28.5863ZM64.5905 28.5863H51.5452V24.0746H64.5905V28.5863Z" fill="#023A59"/>
<path d="M62.5867 37.8242C54.6266 37.8242 48.1738 44.277 48.1738 52.2371C48.1738 60.1971 54.6266 66.6499 62.5867 66.6499C70.5467 66.6499 76.9995 60.1971 76.9995 52.2371C76.9995 44.2772 70.5465 37.8242 62.5867 37.8242ZM55.5491 52.6998L58.675 49.4464L61.2225 51.8942L66.4547 46.5866L69.6677 49.754L61.3085 58.2337L55.5491 52.6998Z" fill="#023A59"/>
</g>
<defs>
<clipPath id="clip0_2543_30641">
<rect width="77" height="77" fill="white"/>
</clipPath>
</defs>
</svg>
