<svg width="100" height="100" viewBox="0 0 100 100" fill="none" xmlns="http://www.w3.org/2000/svg">
<g clip-path="url(#clip0_344_3793)">
<path d="M100 50C100 77.6146 77.6146 100 50 100C22.3854 100 0 77.6146 0 50C0 22.3854 22.3854 0 50 0C77.6146 0 100 22.3854 100 50Z" fill="#FFB456"/>
<path d="M18.2832 88.6533C26.9136 95.7433 37.9602 100.001 50.0009 100.001C62.0416 100.001 73.0882 95.7433 81.7186 88.6533H18.2832Z" fill="#AD3825"/>
<path d="M47.3855 88.6533H18.2832C26.1697 95.1322 36.0742 99.2437 46.9117 99.9044C39.7599 99.3818 40.1498 88.6533 47.3855 88.6533V88.6533Z" fill="#9B3126"/>
<path d="M48.2918 21.4188C41.0523 16.932 31.8345 16.932 24.5949 21.4188C20.871 23.7267 17.7109 27.16 17.7109 32.1633C17.7109 38.659 20.6559 43.5456 24.2104 47.0811H48.6771C52.2309 43.5464 55.1766 38.659 55.1766 32.1633C55.1766 27.16 52.0165 23.7267 48.2918 21.4188V21.4188Z" fill="#EAB883"/>
<path d="M36.0825 18.0596C27.6803 18.1931 17.7109 23.584 17.7109 32.1633C17.7109 38.6589 20.6559 43.5456 24.2104 47.081H34.2477C30.6931 43.2076 27.7474 37.8525 27.7474 30.7358C27.7474 25.0969 31.1432 20.8786 36.0825 18.0596Z" fill="#DDA36F"/>
<path d="M55.1697 32.5531C55.2598 27.5596 52.5025 24.0287 48.2903 21.4187C35.9276 13.7558 20.6887 20.4559 18.1504 29.0527C27.3247 33.8127 38.8573 31.5124 45.4568 22.9995C45.8909 22.4403 46.7637 22.5448 47.0582 23.1887C48.8183 27.0378 51.6503 30.2864 55.1697 32.5531Z" fill="#BF462E"/>
<path d="M36.081 18.0596H36.0802C26.8403 18.2068 19.7144 23.7542 18.1504 29.0528C21.0381 30.5512 24.3004 31.4202 27.7581 31.4858C27.5788 25.3922 30.8068 21.0701 36.081 18.0596Z" fill="#AD3825"/>
<path d="M72.9134 87.4517C72.9134 87.2068 72.6616 87.0084 72.3511 87.0084H69.0903C69.2345 86.7071 69.3299 86.3767 69.3619 86.0258L71.8293 58.7949L89.3494 78.3018C94.7525 84.3183 90.4824 93.8932 82.396 93.8932H66.4727C70.0295 93.8932 72.9134 91.0093 72.9134 87.4517Z" fill="#6D6D7C"/>
<path d="M80.1789 78.3009L70.9893 68.0684L69.3619 86.0249C69.3299 86.3759 69.2345 86.7062 69.0903 87.0076H72.3511C72.6616 87.0076 72.9134 87.2059 72.9134 87.4508C72.9134 91.0084 70.0295 93.8923 66.4727 93.8923H73.2254C81.3126 93.8923 85.5828 84.3174 80.1789 78.3009V78.3009Z" fill="#58596C"/>
<path d="M39.9222 0.558472C37.6624 -0.186157 35.2225 -0.186157 32.9627 0.558472C26.1794 2.79236 11.8438 9.58557 11.8438 27.0981C11.8438 36.5715 16.0392 42.9062 20.9647 47.081H24.4055C20.909 43.6028 18.0106 38.7939 18.0106 32.4028C18.0106 27.4796 21.1203 24.102 24.7847 21.8307C31.9075 17.4164 40.9774 17.4164 48.1009 21.8307C51.7653 24.102 54.8743 27.4796 54.8743 32.4028C54.8743 38.7939 51.9767 43.6028 48.4793 47.081H51.921C56.8465 42.9062 61.0419 36.5715 61.0419 27.0981C61.0419 9.58557 46.7063 2.79236 39.9222 0.558472Z" fill="#6D6D7C"/>
<path d="M35.1989 18.5576C31.6207 16.9043 29.1358 13.2849 29.1358 9.08417C29.1358 5.3801 31.0683 2.12921 33.9774 0.27832C33.6364 0.35614 33.2976 0.447693 32.9627 0.557556C26.1794 2.79221 11.8438 9.58542 11.8438 27.0979C11.8438 36.5714 16.0392 42.906 20.9647 47.0808H24.4055C20.909 43.6026 18.0106 38.7938 18.0106 32.4026C18.0106 24.3094 27.1407 19.0077 35.1989 18.5576Z" fill="#58596C"/>
<path d="M72.9134 87.4515C72.9134 87.2066 72.6616 87.0083 72.3511 87.0083H69.0903C69.2345 86.7069 69.3299 86.3766 69.3619 86.0256L70.0074 78.8975H78.064C82.2052 78.8975 85.5622 82.2544 85.5622 86.3949C85.5622 90.5361 82.2052 93.893 78.064 93.893H66.4727C70.0295 93.893 72.9134 91.0091 72.9134 87.4515Z" fill="#EAB883"/>
<path d="M78.064 86.3622H69.3077C69.2597 86.5888 69.1872 86.8047 69.0903 87.0076H72.3511C72.6616 87.0076 72.9134 87.206 72.9134 87.4509C72.9134 91.0085 70.0295 93.8924 66.4727 93.8924H78.064C82.2052 93.8924 85.5622 90.5355 85.5622 86.3942C85.5622 85.0217 85.1914 83.7361 84.5475 82.6299C83.2482 84.8607 80.8327 86.3622 78.064 86.3622V86.3622Z" fill="#DDA36F"/>
<path d="M54.8522 31.743C55.0437 26.5641 53.25 22.1101 48.1002 18.3946C40.9766 13.2539 31.9068 13.2539 24.7832 18.3946C19.6471 22.1009 17.8397 26.5466 18.0312 31.743C18.2959 27.1768 21.2851 23.9991 24.7832 21.8309C31.9068 17.4165 40.9766 17.4165 48.1002 21.8309C51.5982 23.9991 54.5882 27.176 54.8522 31.743Z" fill="#58596C"/>
<path d="M18.0313 31.7427V31.7419C18.486 23.9035 27.4925 18.9871 35.1982 18.5576C33.5953 17.8167 32.2128 16.6807 31.1737 15.2754C28.9474 15.9079 26.7883 16.947 24.7833 18.3935C19.6472 22.0999 17.839 26.5463 18.0313 31.7427Z" fill="#484A5E"/>
<path d="M73.1279 87.0078H16.3789C19.3025 89.6659 22.5442 91.9807 26.037 93.8918H67.2487C70.8062 93.8918 73.6902 91.0087 73.6902 87.4511C73.6902 87.2062 73.4384 87.0078 73.1279 87.0078V87.0078Z" fill="#D4D1DA"/>
<path d="M26.5199 87.4511C26.5199 87.2062 26.7717 87.0078 27.0829 87.0078H16.3789C19.3025 89.6659 22.5442 91.9807 26.0377 93.8918H32.9614C29.4038 93.8926 26.5199 91.0087 26.5199 87.4511V87.4511Z" fill="#BCB7C6"/>
<path d="M70.5276 46.832H2.35596C1.40457 46.832 0.56839 47.2906 0.0434875 47.9909C0.0175476 48.6577 0 49.3276 0 50.0005C0 65.5736 7.12051 79.4828 18.2823 88.6533H67.2615C68.7553 88.6533 70.0027 87.5135 70.1378 86.0258L73.4039 49.9814C73.5573 48.29 72.226 46.832 70.5276 46.832V46.832Z" fill="#ECEBED"/>
<path d="M11.8454 49.9814C11.692 48.29 13.0241 46.832 14.7217 46.832H2.35672C1.40457 46.832 0.56839 47.2906 0.0434875 47.9909C0.0175476 48.6577 0 49.3276 0 50.0005C0 64.0317 5.78232 76.7103 15.0902 85.7908L11.8454 49.9814Z" fill="#D4D1DA"/>
<path d="M47.001 83.6937C46.8622 83.6937 46.721 83.6747 46.5814 83.6358L23.2835 77.0623C22.4641 76.8311 21.9873 75.9797 22.2185 75.1595C22.4496 74.3401 23.3011 73.8633 24.1205 74.0944L47.4184 80.6679C48.2378 80.8991 48.7146 81.7505 48.4834 82.5707C48.2919 83.2497 47.6739 83.6937 47.001 83.6937Z" fill="#FF5856"/>
<path d="M41.6658 81.0975C41.6658 80.2598 42.2822 79.5685 43.0849 79.4457L24.1212 74.0944C23.3018 73.8633 22.4496 74.3401 22.2185 75.1595C21.9873 75.9797 22.4641 76.8311 23.2835 77.0623L42.344 82.4402C41.9336 82.1351 41.6658 81.6475 41.6658 81.0975Z" fill="#DB4040"/>
<path d="M25.8852 83.6937C25.2123 83.6937 24.5936 83.2497 24.4021 82.5707C24.1709 81.7505 24.6477 80.8991 25.4671 80.6679L48.765 74.0944C49.5836 73.8633 50.4358 74.3401 50.667 75.1595C50.8982 75.9797 50.4213 76.8311 49.6019 77.0623L26.3048 83.6358C26.1644 83.6747 26.0233 83.6937 25.8852 83.6937V83.6937Z" fill="#FF8080"/>
<path d="M42.3838 77.0688C42.3838 76.4959 42.6722 75.9908 43.1109 75.6895L25.4671 80.6676C24.6477 80.8988 24.1709 81.7502 24.4021 82.5696C24.5936 83.2494 25.2123 83.6935 25.8852 83.6935C26.0233 83.6935 26.1644 83.6744 26.3048 83.6355L43.7494 78.713C42.9728 78.5688 42.3838 77.8882 42.3838 77.0688V77.0688Z" fill="#FF5856"/>
<path d="M45.8324 68.8063C45.4853 68.4096 45.3975 67.8458 45.6134 67.3651C46.1315 66.2131 46.4183 64.9436 46.4183 63.61C46.4183 58.3464 41.9513 54.0801 36.4414 54.0801C30.9314 54.0801 26.4644 58.3464 26.4644 63.6092C26.4644 64.9428 26.7513 66.2123 27.2693 67.3651C27.4852 67.8458 27.3975 68.4088 27.0504 68.8056C26.276 69.6906 26.189 70.983 26.8367 71.9641L27.3784 72.7843C27.9354 73.6273 28.8036 74.2156 29.7939 74.42L30.9665 74.6619C31.4067 74.7527 31.7226 75.1403 31.7226 75.5896V76.7234C31.7226 77.1041 31.8965 77.4626 32.1949 77.6984C34.6843 79.6645 38.1977 79.6645 40.6871 77.6984C40.9854 77.4626 41.1594 77.1041 41.1594 76.7234V75.5896C41.1594 75.1403 41.4752 74.7527 41.9155 74.6619L43.0889 74.42C44.0784 74.2156 44.9474 73.6273 45.5043 72.7843L46.046 71.9641C46.6938 70.983 46.6068 69.6906 45.8324 68.8063V68.8063Z" fill="#FF5856"/>
<path d="M36.2778 77.6992C36.0649 77.4634 35.9406 77.1048 35.9406 76.7249V75.5904C35.9406 75.141 35.7147 74.7534 35.4004 74.6627L34.5627 74.4208C33.8562 74.2163 33.2352 73.6281 32.8377 72.7851L32.4509 71.9649C31.9885 70.9838 32.0511 69.6913 32.6035 68.8063C32.8514 68.4096 32.9147 67.8466 32.7599 67.3651C32.3898 66.2131 32.1854 64.9436 32.1854 63.61C32.1854 58.8919 34.7496 54.9773 38.1149 54.2166C37.5702 54.1289 37.0125 54.0801 36.4418 54.0801C30.9311 54.0801 26.4649 58.3472 26.4649 63.61C26.4649 64.9436 26.7517 66.2131 27.269 67.3651C27.4857 67.8466 27.3979 68.4096 27.0508 68.8063C26.2764 69.6913 26.1887 70.9838 26.8364 71.9649L27.3781 72.7851C27.935 73.6281 28.804 74.2163 29.7936 74.4208L30.967 74.6627C31.4072 74.7534 31.723 75.141 31.723 75.5904V76.7249C31.723 77.1048 31.897 77.4642 32.1953 77.6992C33.9066 79.0503 36.1015 79.473 38.1149 78.9664C37.4611 78.736 36.834 78.3141 36.2778 77.6992V77.6992Z" fill="#DB4040"/>
<path d="M38.2641 72.9564L36.8892 71.1635C36.655 70.8583 36.2278 70.8583 35.9935 71.1635L34.6187 72.9564C34.2022 73.4996 34.6286 74.3213 35.2634 74.1977L36.0157 73.891C36.2903 73.7788 36.5925 73.7788 36.8671 73.891L37.6201 74.1977C38.2541 74.3213 38.6814 73.4996 38.2641 72.9564Z" fill="#CC3636"/>
<path d="M35.9317 73.191L36.5505 71.0182C36.5574 70.9945 36.568 70.9747 36.5772 70.9533C36.3712 70.8992 36.1431 70.9686 35.9935 71.1639L34.6187 72.956C34.2022 73.4993 34.6286 74.3209 35.2634 74.1973L36.0157 73.8906C36.0279 73.8861 36.0408 73.8838 36.0531 73.88C35.9203 73.6923 35.8593 73.4459 35.9317 73.191V73.191Z" fill="#DB4040"/>
<path d="M38.5468 68.1945C37.9059 68.7164 37.7678 69.6456 38.2027 70.3483C38.633 71.0433 39.6141 71.8803 41.8473 71.8803C45.6627 71.8803 44.7487 66.8006 42.0891 67.0562C40.4602 67.2134 39.2449 67.6261 38.5468 68.1945Z" fill="#DB4040"/>
<path d="M42.5064 67.0638C42.3728 67.0478 42.2348 67.0432 42.0906 67.057C40.4617 67.2141 39.2463 67.6269 38.5482 68.1953C37.9074 68.7171 37.77 69.6464 38.2049 70.349C38.6344 71.0433 39.6163 71.881 41.8487 71.881C42.086 71.881 42.3049 71.8612 42.5064 71.8246C39.6438 71.302 40.3305 67.3209 42.5064 67.0638Z" fill="#CC3636"/>
<path d="M34.3373 68.1945C34.9781 68.7164 35.1155 69.6456 34.6806 70.3483C34.2503 71.0433 33.2692 71.8803 31.036 71.8803C27.2206 71.8803 28.1346 66.8006 30.7942 67.0562C32.4231 67.2134 33.6392 67.6261 34.3373 68.1945Z" fill="#DB4040"/>
<path d="M32.7916 67.4331C32.2224 67.2584 31.5541 67.1294 30.7942 67.0562C28.1346 66.8006 27.2206 71.8803 31.036 71.8803C31.5503 71.8803 31.995 71.8337 32.3849 71.7574C30.7293 70.7557 31.2237 68.0572 32.7916 67.4331Z" fill="#CC3636"/>
<path d="M99.0604 46.8091H66.122C65.604 46.8091 65.1836 46.3887 65.1836 45.8707V25.5361C65.1836 25.018 65.604 24.5977 66.122 24.5977H99.0596C99.5784 24.5977 99.9988 25.018 99.9988 25.5361V45.8707C99.9988 46.3887 99.5784 46.8091 99.0604 46.8091Z" fill="#ECEBED"/>
<path d="M95.2587 29.1396H65.1836V45.8701C65.1836 46.3882 65.604 46.8086 66.122 46.8086H96.1971V30.0788C96.1971 29.56 95.7775 29.1396 95.2587 29.1396Z" fill="#D4D1DA"/>
<path d="M71.1666 45.8707V25.5361C71.1666 25.0173 71.5869 24.5977 72.105 24.5977H66.122C65.604 24.5977 65.1836 25.018 65.1836 25.5361V45.8707C65.1836 46.3895 65.604 46.8091 66.122 46.8091H72.105C71.5869 46.8091 71.1666 46.3895 71.1666 45.8707Z" fill="#D4D1DA"/>
<path d="M65.1836 29.1396H99.9988V33.683H65.1836V29.1396Z" fill="#58596C"/>
<path d="M65.1836 33.683H96.1971V30.0788C96.1971 29.56 95.7775 29.1396 95.2587 29.1396H65.1836V33.683Z" fill="#484A5E"/>
<path d="M91.1991 51.3519H58.2607C57.7419 51.3519 57.3223 50.9315 57.3223 50.4127V30.0788C57.3223 29.56 57.7426 29.1396 58.2607 29.1396H91.1991C91.7171 29.1396 92.1375 29.56 92.1375 30.0788V50.4127C92.1375 50.9315 91.7171 51.3519 91.1991 51.3519V51.3519Z" fill="#5085FE"/>
<path d="M63.3052 50.4127V30.0788C63.3052 29.56 63.7256 29.1396 64.2437 29.1396H58.2607C57.7419 29.1396 57.3223 29.56 57.3223 30.0788V50.4127C57.3223 50.9315 57.7426 51.3519 58.2607 51.3519H64.2437C63.7256 51.3519 63.3052 50.9315 63.3052 50.4127Z" fill="#3C78EF"/>
<path d="M86.8282 35.6312H82.5939C81.8974 35.6312 81.332 35.0667 81.332 34.3693C81.332 33.672 81.8974 33.1074 82.5939 33.1074H86.8282C87.5248 33.1074 88.0901 33.672 88.0901 34.3693C88.0901 35.0667 87.5248 35.6312 86.8282 35.6312Z" fill="#A4C7FF"/>
<path d="M78.3615 35.6312H74.1271C73.4306 35.6312 72.8652 35.0667 72.8652 34.3693C72.8652 33.672 73.4306 33.1074 74.1271 33.1074H78.3615C79.058 33.1074 79.6234 33.672 79.6234 34.3693C79.6234 35.0667 79.058 35.6312 78.3615 35.6312Z" fill="#A4C7FF"/>
<path d="M84.7138 34.3693C84.7138 33.672 85.2784 33.1074 85.9757 33.1074H82.5959C81.8993 33.1074 81.334 33.672 81.334 34.3693C81.334 35.0667 81.8993 35.6312 82.5959 35.6312H85.9757C85.2784 35.6312 84.7138 35.0667 84.7138 34.3693Z" fill="#7DA8FF"/>
<path d="M76.2451 34.3693C76.2451 33.672 76.8096 33.1074 77.507 33.1074H74.1271C73.4306 33.1074 72.8652 33.672 72.8652 34.3693C72.8652 35.0667 73.4306 35.6312 74.1271 35.6312H77.507C76.8096 35.6312 76.2451 35.0667 76.2451 34.3693Z" fill="#7DA8FF"/>
<path d="M74.1271 39.9502C73.4481 39.9502 72.8652 39.4009 72.8652 38.6883C72.8652 37.8972 73.5969 37.2914 74.3743 37.4516C74.9519 37.5592 75.389 38.081 75.389 38.6883C75.389 39.3803 74.8306 39.9502 74.1271 39.9502Z" fill="#7DA8FF"/>
<path d="M78.36 39.9499C77.6573 39.9499 77.0996 39.3762 77.0996 38.688C77.0996 37.8709 77.8519 37.2956 78.6072 37.4513C79.1832 37.5588 79.6219 38.0799 79.6219 38.688C79.6219 39.3838 79.0581 39.9499 78.36 39.9499Z" fill="#7DA8FF"/>
<path d="M82.3487 39.9255C81.778 39.8187 81.334 39.3006 81.334 38.6887C81.334 37.8854 82.0748 37.2918 82.8416 37.452C83.4 37.5558 83.8578 38.0608 83.8578 38.6887C83.8578 39.4738 83.133 40.0849 82.3487 39.9255Z" fill="#7DA8FF"/>
<path d="M86.8303 39.9506C86.136 39.9506 85.5684 39.3875 85.5684 38.6887C85.5684 37.8868 86.3092 37.2917 87.0759 37.452C87.7466 37.5771 88.2089 38.2508 88.067 38.9344C87.9617 39.4951 87.4543 39.9506 86.8303 39.9506V39.9506Z" fill="#7DA8FF"/>
<path d="M68.1714 32.8301H62.1968C61.8008 32.8301 61.4766 33.1543 61.4766 33.5511V39.5256C61.4766 39.9216 61.8008 40.2458 62.1968 40.2458H68.1714C68.5681 40.2458 68.8923 39.9216 68.8923 39.5256V33.5511C68.8923 33.1543 68.5681 32.8301 68.1714 32.8301Z" fill="#FC974D"/>
<path d="M63.3053 39.5256V33.5511C63.3053 33.1543 63.6296 32.8301 64.0255 32.8301H62.1968C61.8008 32.8301 61.4766 33.1543 61.4766 33.5511V39.5256C61.4766 39.9216 61.8008 40.2458 62.1968 40.2458H64.0255C63.6296 40.2458 63.3053 39.9216 63.3053 39.5256Z" fill="#F47F31"/>
<path d="M66.6677 37.0278C66.4526 36.734 66.4526 36.3427 66.6677 36.0489C66.9149 35.7117 67.0629 35.2875 67.0629 34.8267C67.0629 33.7242 66.2214 32.8301 65.1838 32.8301C64.1462 32.8301 63.3047 33.7242 63.3047 34.8267C63.3047 35.2875 63.4519 35.7109 63.6991 36.0489C63.915 36.3427 63.915 36.734 63.6991 37.0278C63.4519 37.365 63.3047 37.7884 63.3047 38.25C63.3047 39.3524 64.1454 40.2458 65.1838 40.2458C66.2214 40.2458 67.0629 39.3524 67.0629 38.25C67.0629 37.7884 66.9149 37.365 66.6677 37.0278V37.0278Z" fill="#FFB456"/>
</g>
<defs>
<clipPath id="clip0_344_3793">
<rect width="100" height="100" fill="white"/>
</clipPath>
</defs>
</svg>
