<svg width="100" height="100" viewBox="0 0 100 100" fill="none" xmlns="http://www.w3.org/2000/svg">
<g clip-path="url(#clip0_344_3692)">
<path d="M1.29688 47.5363L14.6502 85.5338C15.5164 86.423 16.4164 87.2789 17.3492 88.0986L26.5959 94.4768C32.7957 97.7543 39.8016 99.7092 47.2395 99.967L81.5484 87.1523C82.7926 85.9924 83.9768 84.7693 85.0914 83.484L92.6068 71.7139C95.2865 65.7406 96.7785 59.1188 96.7785 52.1479C96.7785 25.7199 75.3545 4.2959 48.9266 4.2959C24.0549 4.29609 3.61758 23.2725 1.29688 47.5363Z" fill="#47354F"/>
<path d="M67.8139 87.1523C64.9637 88.0822 62.8887 90.7699 62.8887 93.9203V97.927C69.9361 95.7793 76.2947 92.0512 81.5488 87.1525H67.8139V87.1523Z" fill="#D3DCFB"/>
<path d="M63.2539 93.9025C63.2539 90.1898 66.2914 87.1523 70.0041 87.1523H53.9885C50.2758 87.1523 47.2383 90.1898 47.2383 93.9025V99.967C47.7984 99.9865 48.3604 99.9998 48.9254 99.9998C53.9178 99.9998 58.7299 99.2322 63.2539 97.8135V93.9025Z" fill="#BEC8F7"/>
<path d="M49.1057 42.4418C47.999 40.4123 48.7541 37.8465 50.7834 36.7398L56.6873 33.5205C58.7252 32.4094 61.2779 33.1605 62.3893 35.1982C63.5006 37.2361 62.7492 39.7889 60.7113 40.9002L54.8074 44.1195C52.7781 45.2264 50.2123 44.4713 49.1057 42.4418Z" fill="#FFC7AB"/>
<path d="M73.4275 23.1143L79.9487 29.7467L61.6011 40.7582C59.6386 42.1898 56.8718 41.9393 55.287 40.0982C53.5085 38.0322 53.904 34.9031 56.064 33.3273C59.7987 30.6027 69.0663 26.2957 73.4275 23.1143Z" fill="#BEC8F7"/>
<path d="M90.4361 11.9362C91.576 7.20107 88.6616 2.43837 83.9264 1.29843C79.1913 0.158493 74.4286 3.07298 73.2887 7.80812C72.1487 12.5433 75.0632 17.3059 79.7983 18.4459C84.5335 19.5858 89.2962 16.6713 90.4361 11.9362Z" fill="#FFC7AB"/>
<path d="M81.5777 48.6715L81.6414 48.96C81.6414 48.96 77.5 51.7336 81.6414 55.875V55.9127C82.2461 55.7576 82.9771 56.0799 83.0422 56.8895L84.217 82.4016C84.2412 82.9254 84.6055 83.3551 85.0902 83.484C88.1363 79.9717 90.6781 76.0105 92.6057 71.7139L92.849 48.3574L81.5777 48.6715Z" fill="#4F71B6"/>
<path d="M71.2826 82.3602C71.2893 83.0055 71.8145 83.5252 72.4598 83.5252H78.4324C79.059 83.5252 79.5758 83.0363 79.608 82.4105C79.8449 77.801 80.5691 60.3137 80.8336 56.8949C80.8895 56.1728 81.4766 55.8367 82.032 55.8795V55.8756C77.8906 51.7342 82.032 48.9605 82.032 48.9605L81.966 48.6611L71.2148 48.9605L71.2826 82.3602Z" fill="#3C58A0"/>
<path d="M92.934 48.9602H71.2148V26.3656C71.2148 23.8234 73.2756 21.7627 75.818 21.7627H92.934V48.9602Z" fill="#D3DCFB"/>
<path d="M75.1041 79.5557C72.5775 79.5557 70.5293 81.6039 70.5293 84.1305V86.3791C70.5293 87.0219 71.0504 87.5432 71.6934 87.5432H78.5148C79.1578 87.5432 79.6789 87.0221 79.6789 86.3791V84.1305C79.6789 81.6039 77.6307 79.5557 75.1041 79.5557Z" fill="#E58B6C"/>
<path d="M92.9271 56.46C90.6353 56.1578 89.0074 54.0357 89.3095 51.7439L90.1883 45.0769C90.4916 42.7758 92.6029 41.156 94.9043 41.4594C97.2056 41.7627 98.8252 43.874 98.5218 46.1754L97.6431 52.8424C97.341 55.1342 95.2189 56.7621 92.9271 56.46Z" fill="#FFC7AB"/>
<path d="M94.2934 21.7627H89.6602V45.4674C89.6602 48.0156 91.7451 50.1008 94.2934 50.1008C96.8416 50.1008 98.9268 48.0158 98.9268 45.4674C98.9268 43.2566 98.9268 28.5607 98.9268 26.3961C98.9268 23.8477 96.8418 21.7627 94.2934 21.7627Z" fill="#DEEEFF"/>
<path d="M50.5466 40.7611C49.4085 38.7492 46.831 38.0344 44.8191 39.1725L38.9662 42.4834C36.9458 43.6264 36.2347 46.1906 37.3775 48.2109C38.5205 50.2312 41.0847 50.9426 43.1048 49.7996L48.9578 46.4887C50.9699 45.3504 51.6849 42.773 50.5466 40.7611Z" fill="#FFC7AB"/>
<path d="M21.4766 47.803L23.4922 57.2036L42.5131 50.4805C44.7656 49.571 46.015 47.0895 45.2895 44.7713C44.4752 42.1698 41.6098 40.8518 39.1307 41.853C34.8439 43.5836 21.4766 47.803 21.4766 47.803Z" fill="#DEEEFF"/>
<path d="M22.197 41.2733C25.6412 37.8292 25.6412 32.2451 22.197 28.8009C18.7528 25.3567 13.1687 25.3567 9.72452 28.8009C6.28034 32.2451 6.28034 37.8292 9.72452 41.2733C13.1687 44.7175 18.7528 44.7175 22.197 41.2733Z" fill="#FFC7AB"/>
<path d="M15.3047 73.8232C14.4197 74.6639 12.041 77.4969 15.5974 81.0533C15.6088 81.0646 15.6181 81.0766 15.6291 81.0879C16.2322 80.9416 16.9547 81.2682 17.0168 82.0732C17.0949 83.084 17.2135 85.3252 17.3474 88.0992C20.1572 90.5693 23.259 92.7143 26.5941 94.4773L26.6351 74.1387L15.3047 73.8232Z" fill="#4F71B6"/>
<path d="M15.6865 73.8334L6.12891 73.5674C8.34766 77.992 11.232 82.0242 14.651 85.5342L14.8105 82.0682C14.868 81.3545 15.4436 81.0201 15.9934 81.0564C15.9922 81.0555 15.9914 81.0543 15.9904 81.0531C12.4488 77.5115 14.7928 74.6873 15.6865 73.8334Z" fill="#3C58A0"/>
<path d="M22.7424 46.9404H7.80254V70.6451C7.80254 71.9584 7.24687 73.1463 6.36133 73.9912C6.38926 74.0633 6.39023 74.0658 6.41816 74.1379H26.6371V50.835C26.6369 48.684 24.8934 46.9404 22.7424 46.9404Z" fill="#D3DCFB"/>
<path d="M6.47188 74.241C7.51973 73.3896 8.19258 72.0924 8.19258 70.6451C8.19258 65.992 8.19258 52.2816 8.19258 46.9404H3.55938C2.73867 46.9404 1.9666 47.1576 1.29629 47.5359C1.15117 49.0537 1.07422 50.5918 1.07422 52.1477C1.07402 60.118 3.0252 67.6314 6.47188 74.241Z" fill="#BEC8F7"/>
<path d="M57.1273 0C55.5109 0 48.2015 0 42.0952 0C42.0952 0 37.9122 1.78652 40.9396 5.78906C40.9396 5.78906 40.8144 5.85996 40.6157 5.99473H51.8226C53.9032 5.99473 55.6056 7.69688 55.6056 9.77773V22.5018C56.0265 22.1512 56.5601 21.9473 57.1271 21.9473C59.2077 21.9473 60.9101 20.2447 60.9101 18.1641V3.7832C60.9103 1.70234 59.2079 0 57.1273 0V0Z" fill="#DEEEFF"/>
<path d="M42.6813 0C38.5441 0 34.8484 0 33.6678 0C31.5871 0 29.8848 1.70234 29.8848 3.78301V5.99473H41.2018C41.4004 5.85996 41.5256 5.78906 41.5256 5.78906C38.4982 1.78652 42.6813 0 42.6813 0V0Z" fill="#BEC8F7"/>
<path d="M52.029 5.78906C50.6536 5.78906 45.8644 5.78906 40.9404 5.78906C40.9404 5.78906 35.031 9.1291 39.7134 13.8117C44.3958 18.4941 39.7134 19.4105 39.7134 19.4105C39.7134 19.4105 34.9034 23.5768 39.8761 27.7361H52.029C54.1097 27.7361 55.812 26.0338 55.812 23.9531V9.57227C55.812 7.49121 54.1097 5.78906 52.029 5.78906Z" fill="#49B1F7"/>
<path d="M41.5268 5.78906C35.9385 5.78906 30.0064 5.78906 28.5701 5.78906C26.4895 5.78906 24.7871 7.49141 24.7871 9.57227V23.9531C24.7871 26.0338 26.4895 27.7361 28.5701 27.7361C29.4531 27.7361 30.2586 28.2262 30.6764 29.0041C31.458 30.4596 32.901 32.275 35.5139 33.477C36.1375 33.7639 36.8234 33.2193 36.6877 32.5467L36.0986 29.6254C35.9016 28.6486 36.6484 27.7361 37.6447 27.7361H40.4625C35.4898 23.577 40.2998 19.4105 40.2998 19.4105C40.2998 19.4105 44.9822 18.4941 40.2998 13.8117C35.6174 9.1291 41.5268 5.78906 41.5268 5.78906Z" fill="#1E9EF4"/>
<path d="M32.2994 19.4113C30.7598 19.4113 29.5 18.1516 29.5 16.6119C29.5 15.0723 30.7598 13.8125 32.2994 13.8125C33.8391 13.8125 35.0988 15.0723 35.0988 16.6119C35.0988 18.1516 33.8391 19.4113 32.2994 19.4113Z" fill="#D3DCFB"/>
<path d="M40.2994 19.4113C38.7598 19.4113 37.5 18.1516 37.5 16.6119C37.5 15.0723 38.7598 13.8125 40.2994 13.8125C41.8391 13.8125 43.0988 15.0723 43.0988 16.6119C43.099 18.1516 41.8393 19.4113 40.2994 19.4113Z" fill="#D3DCFB"/>
<path d="M48.2994 19.4113C46.7598 19.4113 45.5 18.1516 45.5 16.6119C45.5 15.0723 46.7598 13.8125 48.2994 13.8125C49.8391 13.8125 51.0988 15.0723 51.0988 16.6119C51.0988 18.1516 49.8391 19.4113 48.2994 19.4113Z" fill="#D3DCFB"/>
<path d="M52.7182 81.1293H49.1633C42.0793 81.1293 36.2832 75.3332 36.2832 68.2492C36.2832 61.1652 42.0793 55.3691 49.1633 55.3691H52.7182C59.8021 55.3691 65.5982 61.1652 65.5982 68.2492C65.5981 75.3332 59.8021 81.1293 52.7182 81.1293Z" fill="#56415E"/>
</g>
<defs>
<clipPath id="clip0_344_3692">
<rect width="100" height="100" fill="white"/>
</clipPath>
</defs>
</svg>
