<svg width="77" height="77" viewBox="0 0 77 77" fill="none" xmlns="http://www.w3.org/2000/svg">
<path d="M62.5625 44.5156C59.945 44.5156 57.3863 45.2918 55.2099 46.746C53.0335 48.2002 51.3372 50.2672 50.3355 52.6854C49.3339 55.1037 49.0718 57.7647 49.5824 60.3319C50.0931 62.8991 51.3535 65.2573 53.2044 67.1081C55.0552 68.959 57.4134 70.2194 59.9806 70.7301C62.5478 71.2407 65.2088 70.9786 67.6271 69.977C70.0453 68.9753 72.1123 67.279 73.5665 65.1026C75.0207 62.9262 75.7969 60.3675 75.7969 57.75C75.7929 54.2412 74.3973 50.8773 71.9162 48.3963C69.4352 45.9152 66.0713 44.5196 62.5625 44.5156ZM68.2256 54.9912L61.0069 62.21C60.8952 62.3217 60.7626 62.4104 60.6166 62.4709C60.4706 62.5313 60.3142 62.5625 60.1562 62.5625C59.9982 62.5625 59.8418 62.5313 59.6958 62.4709C59.5499 62.4104 59.4173 62.3217 59.3056 62.21L56.8993 59.8037C56.6761 59.5776 56.5513 59.2724 56.5523 58.9547C56.5533 58.6369 56.68 58.3325 56.9047 58.1078C57.1294 57.8831 57.4338 57.7565 57.7516 57.7555C58.0693 57.7545 58.3745 57.8792 58.6006 58.1025L60.1562 59.6581L66.5244 53.2899C66.7505 53.0667 67.0557 52.942 67.3735 52.943C67.6912 52.944 67.9956 53.0706 68.2203 53.2953C68.445 53.52 68.5716 53.8244 68.5726 54.1422C68.5736 54.4599 68.4489 54.7652 68.2256 54.9912ZM30.0781 36.0938V31.2812C30.079 30.6433 30.3327 30.0318 30.7838 29.5807C31.2349 29.1296 31.8465 28.8758 32.4844 28.875H39.7031V24.0625H13.2344V43.3125H39.7031V38.5H32.4844C31.8465 38.4992 31.2349 38.2454 30.7838 37.7943C30.3327 37.3432 30.079 36.7317 30.0781 36.0938ZM22.8594 32.4844C23.4973 32.4852 24.1089 32.739 24.5599 33.1901C25.011 33.6411 25.2648 34.2527 25.2656 34.8906V36.0938C25.2648 36.7317 25.011 37.3432 24.5599 37.7943C24.1089 38.2454 23.4973 38.4992 22.8594 38.5C22.8594 38.8191 22.7326 39.1251 22.507 39.3507C22.2814 39.5764 21.9753 39.7031 21.6562 39.7031C21.3372 39.7031 21.0311 39.5764 20.8055 39.3507C20.5799 39.1251 20.4531 38.8191 20.4531 38.5H19.25C18.9309 38.5 18.6249 38.3732 18.3993 38.1476C18.1736 37.922 18.0469 37.616 18.0469 37.2969C18.0469 36.9778 18.1736 36.6718 18.3993 36.4461C18.6249 36.2205 18.9309 36.0938 19.25 36.0938H22.8594V34.8906H20.4531C19.8152 34.8898 19.2036 34.636 18.7526 34.1849C18.3015 33.7339 18.0477 33.1223 18.0469 32.4844V31.2812C18.0477 30.6433 18.3015 30.0318 18.7526 29.5807C19.2036 29.1296 19.8152 28.8758 20.4531 28.875C20.4531 28.5559 20.5799 28.2499 20.8055 28.0243C21.0311 27.7986 21.3372 27.6719 21.6562 27.6719C21.9753 27.6719 22.2814 27.7986 22.507 28.0243C22.7326 28.2499 22.8594 28.5559 22.8594 28.875H24.0625C24.3816 28.875 24.6876 29.0018 24.9132 29.2274C25.1389 29.453 25.2656 29.759 25.2656 30.0781C25.2656 30.3972 25.1389 30.7032 24.9132 30.9289C24.6876 31.1545 24.3816 31.2812 24.0625 31.2812H20.4531V32.4844H22.8594ZM18.0469 51.7344H34.8906V54.1406H18.0469V51.7344ZM66.1719 9.625C66.1708 8.66805 65.7902 7.7506 65.1136 7.07394C64.4369 6.39728 63.5194 6.01667 62.5625 6.01562H4.8125C3.85555 6.01667 2.9381 6.39728 2.26144 7.07394C1.58478 7.7506 1.20417 8.66805 1.20312 9.625V15.6406H66.1719V9.625ZM24.0625 12.0312H7.21875C6.89966 12.0312 6.59364 11.9045 6.36801 11.6789C6.14238 11.4532 6.01562 11.1472 6.01562 10.8281C6.01562 10.509 6.14238 10.203 6.36801 9.97739C6.59364 9.75176 6.89966 9.625 7.21875 9.625H24.0625C24.3816 9.625 24.6876 9.75176 24.9132 9.97739C25.1389 10.203 25.2656 10.509 25.2656 10.8281C25.2656 11.1472 25.1389 11.4532 24.9132 11.6789C24.6876 11.9045 24.3816 12.0312 24.0625 12.0312ZM60.1562 12.0312C59.9183 12.0312 59.6857 11.9607 59.4878 11.8285C59.29 11.6963 59.1358 11.5084 59.0447 11.2885C58.9536 11.0687 58.9298 10.8268 58.9762 10.5934C59.0227 10.36 59.1373 10.1456 59.3055 9.97739C59.4738 9.80913 59.6881 9.69454 59.9215 9.64812C60.1549 9.60169 60.3968 9.62552 60.6167 9.71658C60.8365 9.80764 61.0244 9.96185 61.1566 10.1597C61.2888 10.3576 61.3594 10.5902 61.3594 10.8281C61.3594 11.1472 61.2326 11.4532 61.007 11.6789C60.7814 11.9045 60.4753 12.0312 60.1562 12.0312ZM62.5625 42.1094C63.7786 42.1138 64.9899 42.2605 66.1719 42.5466V18.0469H1.20312V61.3594C1.20417 62.3163 1.58478 63.2338 2.26144 63.9104C2.9381 64.5871 3.85555 64.9677 4.8125 64.9688H48.7013C47.4551 62.5866 46.8448 59.923 46.9296 57.2359C47.0144 54.5487 47.7914 51.929 49.1854 49.6301C50.5793 47.3312 52.5431 45.4311 54.8866 44.1135C57.2301 42.796 59.874 42.1057 62.5625 42.1094ZM37.2969 55.3438C37.297 55.5018 37.2659 55.6583 37.2055 55.8043C37.1451 55.9503 37.0564 56.083 36.9447 56.1947C36.833 56.3064 36.7003 56.3951 36.5543 56.4555C36.4083 56.5159 36.2518 56.547 36.0938 56.5469H16.8438C16.6857 56.547 16.5292 56.5159 16.3832 56.4555C16.2372 56.3951 16.1045 56.3064 15.9928 56.1947C15.8811 56.083 15.7925 55.9503 15.732 55.8043C15.6716 55.6583 15.6405 55.5018 15.6406 55.3438V50.5312C15.6405 50.3732 15.6716 50.2167 15.732 50.0707C15.7925 49.9247 15.8811 49.792 15.9928 49.6803C16.1045 49.5686 16.2372 49.4799 16.3832 49.4195C16.5292 49.3591 16.6857 49.328 16.8438 49.3281H36.0938C36.2518 49.328 36.4083 49.3591 36.5543 49.4195C36.7003 49.4799 36.833 49.5686 36.9447 49.6803C37.0564 49.792 37.1451 49.9247 37.2055 50.0707C37.2659 50.2167 37.297 50.3732 37.2969 50.5312V55.3438ZM44.5156 36.0938C44.5148 36.7317 44.261 37.3432 43.8099 37.7943C43.3589 38.2454 42.7473 38.4992 42.1094 38.5V43.3125C42.1085 43.9504 41.8548 44.562 41.4037 45.0131C40.9526 45.4641 40.341 45.7179 39.7031 45.7188H13.2344C12.5965 45.7179 11.9849 45.4641 11.5338 45.0131C11.0827 44.562 10.829 43.9504 10.8281 43.3125V24.0625C10.829 23.4246 11.0827 22.813 11.5338 22.3619C11.9849 21.9109 12.5965 21.6571 13.2344 21.6562H39.7031C40.341 21.6571 40.9526 21.9109 41.4037 22.3619C41.8548 22.813 42.1085 23.4246 42.1094 24.0625V28.875C42.7473 28.8758 43.3589 29.1296 43.8099 29.5807C44.261 30.0318 44.5148 30.6433 44.5156 31.2812V36.0938ZM32.4844 31.2812V36.0938H42.1118L42.1094 31.2812H32.4844ZM34.8906 34.8906C34.6527 34.8906 34.4201 34.8201 34.2222 34.6879C34.0244 34.5557 33.8701 34.3678 33.7791 34.1479C33.688 33.9281 33.6642 33.6862 33.7106 33.4528C33.757 33.2194 33.8716 33.005 34.0399 32.8368C34.2081 32.6685 34.4225 32.5539 34.6559 32.5075C34.8893 32.4611 35.1312 32.4849 35.351 32.576C35.5709 32.667 35.7588 32.8212 35.891 33.0191C36.0232 33.2169 36.0938 33.4495 36.0938 33.6875C36.0938 34.0066 35.967 34.3126 35.7414 34.5382C35.5157 34.7639 35.2097 34.8906 34.8906 34.8906Z" fill="#023A59"/>
</svg>
