<svg width="93" height="93" viewBox="0 0 93 93" fill="none" xmlns="http://www.w3.org/2000/svg">
<g clip-path="url(#clip0_546_10669)">
<path d="M46.5 25.4297C34.8819 25.4297 25.4297 34.8819 25.4297 46.5C25.4297 58.1181 34.8819 67.5703 46.5 67.5703C58.1181 67.5703 67.5703 58.1181 67.5703 46.5C67.5703 34.8819 58.1181 25.4297 46.5 25.4297ZM35.5562 36.3054H51.2926L50.461 35.389C49.45 34.2747 49.5336 32.5515 50.6479 31.5404C51.7625 30.5292 53.4854 30.613 54.4965 31.7274L59.4613 37.1993C60.4037 38.2379 60.4037 39.8223 59.4613 40.861L54.4965 46.3329C53.9589 46.9256 53.2198 47.2266 52.478 47.2266C51.8248 47.2266 51.1696 46.9932 50.6479 46.5198C49.5336 45.5086 49.4498 43.7856 50.461 42.6712L51.2926 41.7548H35.5562C34.0514 41.7548 32.8315 40.5349 32.8315 39.0302C32.8315 37.5255 34.0514 36.3054 35.5562 36.3054ZM57.4438 56.6946H41.7074L42.539 57.611C43.55 58.7253 43.4664 60.4485 42.3521 61.4596C41.8302 61.9329 41.175 62.1663 40.522 62.1663C39.7802 62.1663 39.0413 61.8652 38.5035 61.2727L33.5387 55.8007C32.5963 54.7621 32.5963 53.1777 33.5387 52.139L38.5035 46.6671C39.5146 45.5527 41.2379 45.469 42.3521 46.4802C43.4664 47.4914 43.5502 49.2144 42.539 50.3288L41.7074 51.2452H57.4438C58.9486 51.2452 60.1685 52.4651 60.1685 53.9698C60.1685 55.4745 58.9486 56.6946 57.4438 56.6946Z" fill="#115766"/>
<path d="M90.2754 36.3136H84.1942C83.3211 33.0702 82.0351 29.9687 80.354 27.0516L84.6567 22.7489C85.7207 21.6848 85.7207 19.9598 84.6567 18.8957L74.1043 8.3433C73.0404 7.27925 71.3152 7.27925 70.2511 8.3433L65.9483 12.646C63.0311 10.9649 59.9296 9.6789 56.6862 8.80576V2.72461C56.6862 1.2199 55.4663 0 53.9616 0H39.0382C37.5335 0 36.3136 1.2199 36.3136 2.72461V8.80576C33.0704 9.6789 29.9687 10.9649 27.0516 12.646L22.7489 8.3433C21.685 7.27925 19.9598 7.27925 18.8957 8.3433L8.3433 18.8957C7.27925 19.9598 7.27925 21.6848 8.3433 22.7489L12.646 27.0516C10.9649 29.9687 9.6789 33.0702 8.80576 36.3136H2.72461C1.2199 36.3136 0 37.5335 0 39.0382V53.9616C0 55.4663 1.2199 56.6862 2.72461 56.6862H8.80576C9.6789 59.9294 10.9649 63.0311 12.646 65.9483L8.3433 70.251C7.27925 71.315 7.27925 73.0401 8.3433 74.1041L18.8957 84.6565C19.9596 85.7206 21.6848 85.7206 22.7489 84.6565L27.0516 80.3538C29.9689 82.0351 33.0699 83.3209 36.3136 84.1942V90.2754C36.3136 91.7801 37.5335 93 39.0382 93H53.9616C55.4663 93 56.6862 91.7801 56.6862 90.2754V84.1942C59.9298 83.3211 63.0309 82.0353 65.9483 80.3538L70.251 84.6565C71.3148 85.7206 73.0401 85.7206 74.1041 84.6565L84.6565 74.1041C85.7206 73.0401 85.7206 71.315 84.6565 70.251L80.3538 65.9483C82.0349 63.0311 83.3209 59.9296 84.1941 56.6862H90.2754C91.7801 56.6862 93 55.4663 93 53.9616V39.0382C93 37.5335 91.7801 36.3136 90.2754 36.3136ZM46.5 73.0195C31.877 73.0195 19.9805 61.123 19.9805 46.5C19.9805 31.877 31.877 19.9805 46.5 19.9805C61.123 19.9805 73.0195 31.877 73.0195 46.5C73.0195 61.123 61.123 73.0195 46.5 73.0195Z" fill="#115766"/>
</g>
<defs>
<clipPath id="clip0_546_10669">
<rect width="93" height="93" fill="white"/>
</clipPath>
</defs>
</svg>
