<svg width="93" height="93" viewBox="0 0 93 93" fill="none" xmlns="http://www.w3.org/2000/svg">
<g clip-path="url(#clip0_546_10694)">
<path d="M88.8835 41.4905L53.2469 59.3087C49.0731 61.4234 43.9267 61.4234 39.753 59.3087L4.11634 41.4905C1.57737 40.2212 0 37.6689 0 34.8301V64.0137C0 68.6536 2.57784 72.8242 6.72688 74.8978L39.7535 91.412C43.9294 93.5254 49.0713 93.5254 53.2476 91.4115L86.2724 74.8982C90.4222 72.8242 93 68.6536 93 64.0136V34.8301C93 37.6689 91.4226 40.2212 88.8835 41.4905Z" fill="#115766"/>
<path d="M6.55169 36.6171L10.2128 38.4477V31.2139L6.55187 33.0443C5.09202 33.7407 5.09221 35.9213 6.55169 36.6171Z" fill="#115766"/>
<path d="M87.5503 34.8307C87.5503 34.0693 87.1273 33.3848 86.4463 33.0444L82.7852 31.2139V38.4477L86.4461 36.6173C87.1273 36.2767 87.5503 35.5921 87.5503 34.8307Z" fill="#115766"/>
<path d="M46.5005 55.4526C47.9888 55.4526 49.4792 55.1008 50.8106 54.4351L77.337 41.1718V8.56517C77.337 3.7873 73.4588 0.00390625 68.7758 0.00390625H24.2253C19.4475 0.00390625 15.6641 3.88212 15.6641 8.56517V41.172L42.1905 54.4352C43.5217 55.1008 45.0121 55.4526 46.5005 55.4526ZM58.3676 14.4018C58.5016 10.7906 63.684 10.7934 63.8168 14.4018V17.9013L67.6676 12.7671C68.5705 11.5635 70.2781 11.3192 71.482 12.2221C72.6858 13.1251 72.9299 14.8329 72.027 16.0366L65.7498 24.4061L72.0644 33.2463C72.939 34.4708 72.6554 36.1726 71.431 37.0471C70.2066 37.9217 68.5048 37.6382 67.6302 36.4138L63.8168 31.0752V34.8304C63.6828 38.4416 58.5004 38.4389 58.3676 34.8304V14.4018ZM28.2607 37.555H26.0719C22.4607 37.421 22.4634 32.2386 26.0719 32.1058H28.2607C31.4172 31.9852 31.4163 27.4607 28.2607 27.3408C23.9423 27.3408 20.4289 23.8275 20.4289 19.509C20.4289 15.1905 23.9422 11.6772 28.2607 11.6772H30.4494C34.0606 11.8113 34.0579 16.9937 30.4494 17.1264H28.2607C25.1041 17.2471 25.105 21.7715 28.2607 21.8914C32.579 21.8914 36.0925 25.4047 36.0925 29.7232C36.0925 34.0417 32.5792 37.555 28.2607 37.555ZM39.3983 34.8304V14.4018C39.3983 12.8971 40.6182 11.6772 42.1229 11.6772C49.2589 11.6772 55.0617 17.4803 55.0617 24.6131V24.616C55.0617 31.7505 49.2574 37.5548 42.1229 37.5548C40.6182 37.555 39.3983 36.3351 39.3983 34.8304Z" fill="#115766"/>
<path d="M44.8477 17.6387V31.5932C47.634 30.5012 49.6126 27.7855 49.6126 24.6164V24.6135C49.6126 21.4451 47.634 18.73 44.8477 17.6387Z" fill="#115766"/>
</g>
<defs>
<clipPath id="clip0_546_10694">
<rect width="93" height="93" fill="white"/>
</clipPath>
</defs>
</svg>
