<svg width="613" height="613" viewBox="0 0 613 613" fill="none" xmlns="http://www.w3.org/2000/svg">
<path d="M481.818 241.927V252.556H525.133" stroke="#263238" stroke-linecap="round" stroke-linejoin="round"/>
<path d="M503.066 255.008V267.268H476.094" stroke="#263238" stroke-linecap="round" stroke-linejoin="round"/>
<path d="M482.641 271.351V281.159H517.778" stroke="#263238" stroke-linecap="round" stroke-linejoin="round"/>
<path d="M514.516 268.09H534.132" stroke="#263238" stroke-linecap="round" stroke-linejoin="round"/>
<path d="M503.064 286.062V299.965" stroke="#263238" stroke-linecap="round" stroke-linejoin="round"/>
<path d="M530.037 250.925V240.296" stroke="#263238" stroke-linecap="round" stroke-linejoin="round"/>
<path d="M504.707 237.023V225.584" stroke="#263238" stroke-linecap="round" stroke-linejoin="round"/>
<path d="M519.42 238.665H544.749" stroke="#263238" stroke-linecap="round" stroke-linejoin="round"/>
<path d="M436.053 125.873V136.49H479.367" stroke="#263238" stroke-linecap="round" stroke-linejoin="round"/>
<path d="M457.298 138.942V151.202H430.326" stroke="#263238" stroke-linecap="round" stroke-linejoin="round"/>
<path d="M436.861 155.298V165.106H472.011" stroke="#263238" stroke-linecap="round" stroke-linejoin="round"/>
<path d="M468.736 152.024H488.352" stroke="#263238" stroke-linecap="round" stroke-linejoin="round"/>
<path d="M457.299 170.01V183.9" stroke="#263238" stroke-linecap="round" stroke-linejoin="round"/>
<path d="M484.271 134.86V124.23" stroke="#263238" stroke-linecap="round" stroke-linejoin="round"/>
<path d="M458.93 120.969V109.519" stroke="#263238" stroke-linecap="round" stroke-linejoin="round"/>
<path d="M473.641 122.6H498.982" stroke="#263238" stroke-linecap="round" stroke-linejoin="round"/>
<path d="M308.549 394.771V405.401H351.863" stroke="#263238" stroke-linecap="round" stroke-linejoin="round"/>
<path d="M329.794 407.854V420.114H302.822" stroke="#263238" stroke-linecap="round" stroke-linejoin="round"/>
<path d="M309.357 424.196V434.004H344.507" stroke="#263238" stroke-linecap="round" stroke-linejoin="round"/>
<path d="M341.232 420.923H360.848" stroke="#263238" stroke-linecap="round" stroke-linejoin="round"/>
<path d="M329.795 438.908V452.799" stroke="#263238" stroke-linecap="round" stroke-linejoin="round"/>
<path d="M356.766 403.759V393.142" stroke="#263238" stroke-linecap="round" stroke-linejoin="round"/>
<path d="M331.426 389.868V378.43" stroke="#263238" stroke-linecap="round" stroke-linejoin="round"/>
<path d="M346.137 391.498H371.478" stroke="#263238" stroke-linecap="round" stroke-linejoin="round"/>
<path d="M117.293 349.006V359.623H160.608" stroke="#263238" stroke-linecap="round" stroke-linejoin="round"/>
<path d="M138.538 362.074V374.334H111.566" stroke="#263238" stroke-linecap="round" stroke-linejoin="round"/>
<path d="M118.102 378.43V388.238H153.251" stroke="#263238" stroke-linecap="round" stroke-linejoin="round"/>
<path d="M149.977 375.156H169.593" stroke="#263238" stroke-linecap="round" stroke-linejoin="round"/>
<path d="M138.539 393.142V407.032" stroke="#263238" stroke-linecap="round" stroke-linejoin="round"/>
<path d="M165.51 357.992V347.362" stroke="#263238" stroke-linecap="round" stroke-linejoin="round"/>
<path d="M140.17 344.101V332.65" stroke="#263238" stroke-linecap="round" stroke-linejoin="round"/>
<path d="M154.881 345.732H180.222" stroke="#263238" stroke-linecap="round" stroke-linejoin="round"/>
<path d="M359.219 424.196V434.826H402.533" stroke="#263238" stroke-linecap="round" stroke-linejoin="round"/>
<path d="M380.464 437.277V449.537H353.492" stroke="#263238" stroke-linecap="round" stroke-linejoin="round"/>
<path d="M360.039 453.62V463.428H395.176" stroke="#263238" stroke-linecap="round" stroke-linejoin="round"/>
<path d="M391.916 450.347H411.532" stroke="#263238" stroke-linecap="round" stroke-linejoin="round"/>
<path d="M380.465 468.332V482.223" stroke="#263238" stroke-linecap="round" stroke-linejoin="round"/>
<path d="M407.438 433.183V422.565" stroke="#263238" stroke-linecap="round" stroke-linejoin="round"/>
<path d="M382.107 419.292V407.854" stroke="#263238" stroke-linecap="round" stroke-linejoin="round"/>
<path d="M396.82 420.923H422.149" stroke="#263238" stroke-linecap="round" stroke-linejoin="round"/>
<path d="M200.66 424.196V434.826H243.975" stroke="#263238" stroke-linecap="round" stroke-linejoin="round"/>
<path d="M221.908 437.277V449.537H194.936" stroke="#263238" stroke-linecap="round" stroke-linejoin="round"/>
<path d="M201.469 453.62V463.428H236.618" stroke="#263238" stroke-linecap="round" stroke-linejoin="round"/>
<path d="M233.346 450.347H252.962" stroke="#263238" stroke-linecap="round" stroke-linejoin="round"/>
<path d="M221.906 468.332V482.223" stroke="#263238" stroke-linecap="round" stroke-linejoin="round"/>
<path d="M248.879 433.183V422.565" stroke="#263238" stroke-linecap="round" stroke-linejoin="round"/>
<path d="M223.537 419.292V407.854" stroke="#263238" stroke-linecap="round" stroke-linejoin="round"/>
<path d="M238.25 420.923H263.591" stroke="#263238" stroke-linecap="round" stroke-linejoin="round"/>
<path d="M87.8672 241.927V252.556H131.182" stroke="#263238" stroke-linecap="round" stroke-linejoin="round"/>
<path d="M109.115 255.008V267.268H82.1426" stroke="#263238" stroke-linecap="round" stroke-linejoin="round"/>
<path d="M88.6777 271.351V281.159H123.827" stroke="#263238" stroke-linecap="round" stroke-linejoin="round"/>
<path d="M120.553 268.09H140.169" stroke="#263238" stroke-linecap="round" stroke-linejoin="round"/>
<path d="M109.115 286.062V299.965" stroke="#263238" stroke-linecap="round" stroke-linejoin="round"/>
<path d="M136.086 250.925V240.296" stroke="#263238" stroke-linecap="round" stroke-linejoin="round"/>
<path d="M110.746 237.023V225.584" stroke="#263238" stroke-linecap="round" stroke-linejoin="round"/>
<path d="M125.457 238.665H150.798" stroke="#263238" stroke-linecap="round" stroke-linejoin="round"/>
<path d="M158.977 144.668V155.297H202.291" stroke="#263238" stroke-linecap="round" stroke-linejoin="round"/>
<path d="M180.222 157.749V170.009H153.25" stroke="#263238" stroke-linecap="round" stroke-linejoin="round"/>
<path d="M159.785 174.092V183.9H194.935" stroke="#263238" stroke-linecap="round" stroke-linejoin="round"/>
<path d="M191.662 170.818H211.278" stroke="#263238" stroke-linecap="round" stroke-linejoin="round"/>
<path d="M180.223 188.804V202.694" stroke="#263238" stroke-linecap="round" stroke-linejoin="round"/>
<path d="M207.195 153.654V143.037" stroke="#263238" stroke-linecap="round" stroke-linejoin="round"/>
<path d="M181.854 139.764V128.325" stroke="#263238" stroke-linecap="round" stroke-linejoin="round"/>
<path d="M196.564 141.395H221.906" stroke="#263238" stroke-linecap="round" stroke-linejoin="round"/>
<path d="M430.326 324.485V335.102H473.641" stroke="#263238" stroke-linecap="round" stroke-linejoin="round"/>
<path d="M451.574 337.555V349.815H424.602" stroke="#263238" stroke-linecap="round" stroke-linejoin="round"/>
<path d="M431.148 353.909V363.717H466.286" stroke="#263238" stroke-linecap="round" stroke-linejoin="round"/>
<path d="M463.023 350.636H482.639" stroke="#263238" stroke-linecap="round" stroke-linejoin="round"/>
<path d="M451.572 368.621V382.512" stroke="#263238" stroke-linecap="round" stroke-linejoin="round"/>
<path d="M478.545 333.472V322.843" stroke="#263238" stroke-linecap="round" stroke-linejoin="round"/>
<path d="M453.217 319.582V308.131" stroke="#263238" stroke-linecap="round" stroke-linejoin="round"/>
<path d="M467.928 321.212H493.257" stroke="#263238" stroke-linecap="round" stroke-linejoin="round"/>
<path d="M107.889 490.4H524.729" stroke="#263238" stroke-linecap="round" stroke-linejoin="round"/>
<path d="M190.435 532.084C227.222 532.084 257.043 522.753 257.043 511.242C257.043 499.732 227.222 490.4 190.435 490.4C153.648 490.4 123.826 499.732 123.826 511.242C123.826 522.753 153.648 532.084 190.435 532.084Z" fill="#46B2C8"/>
<path opacity="0.5" d="M190.435 532.084C227.222 532.084 257.043 522.753 257.043 511.242C257.043 499.732 227.222 490.4 190.435 490.4C153.648 490.4 123.826 499.732 123.826 511.242C123.826 522.753 153.648 532.084 190.435 532.084Z" fill="white"/>
<path d="M205.92 109.519V384.143H446.216V100.532H261.494L205.92 109.519Z" fill="#46B2C8" stroke="#263238" stroke-miterlimit="10"/>
<path d="M418.348 278.302C418.343 275.825 417.379 273.446 415.658 271.665C413.936 269.884 411.592 268.84 409.116 268.751C408.91 268.815 408.695 268.848 408.479 268.849C408.245 268.846 408.013 268.805 407.792 268.726H407.621C407.248 268.563 406.932 268.294 406.71 267.953C406.487 267.612 406.369 267.215 406.369 266.808C406.369 266.401 406.487 266.003 406.71 265.662C406.932 265.322 407.248 265.053 407.621 264.889H407.719C407.962 264.797 408.219 264.747 408.479 264.742C408.696 264.746 408.911 264.783 409.116 264.852C411.6 264.671 413.923 263.56 415.625 261.743C417.326 259.926 418.281 257.534 418.299 255.044V252.556C418.299 251.254 418.043 249.964 417.544 248.762C417.045 247.559 416.315 246.467 415.393 245.547C414.472 244.626 413.379 243.897 412.176 243.4C410.972 242.903 409.683 242.648 408.381 242.649C407.851 242.609 407.356 242.37 406.995 241.98C406.633 241.59 406.433 241.078 406.433 240.547C406.433 240.015 406.633 239.504 406.995 239.114C407.356 238.724 407.851 238.485 408.381 238.444H408.503C410.92 238.415 413.227 237.435 414.925 235.716C416.624 233.997 417.576 231.678 417.576 229.262V225.044C417.576 222.605 416.607 220.267 414.883 218.542C413.158 216.818 410.82 215.849 408.381 215.849H351.311C351.969 211.083 352.865 206.353 353.995 201.677C355.528 195.939 362.418 187.504 363.571 177.157C364.723 166.809 357.06 146.887 347.865 144.974C338.67 143.061 336.758 150.332 337.138 160.679C337.518 171.027 323.345 189.404 313.77 198.992C304.195 208.579 292.426 224.088 292.426 224.088L293.088 297.439L304.956 303.177C316.835 308.927 330.628 309.307 330.628 309.307H402.128C404.16 309.307 406.109 308.5 407.546 307.063C408.983 305.626 409.791 303.677 409.791 301.645V299.732C409.791 295.502 408.332 293.148 405.316 292.069C404.802 292.014 404.327 291.77 403.982 291.385C403.637 291.001 403.446 290.502 403.446 289.985C403.446 289.468 403.637 288.97 403.982 288.585C404.327 288.201 404.802 287.957 405.316 287.901H408.773C410.033 287.901 411.28 287.653 412.443 287.17C413.606 286.687 414.663 285.98 415.552 285.088C416.442 284.196 417.147 283.138 417.626 281.973C418.106 280.809 418.351 279.561 418.348 278.302Z" fill="white" stroke="#263238" stroke-width="5" stroke-linecap="round" stroke-linejoin="round"/>
<path d="M286.737 214.942H250.387C246.04 214.942 242.516 218.466 242.516 222.813V304.759C242.516 309.106 246.04 312.63 250.387 312.63H286.737C291.084 312.63 294.608 309.106 294.608 304.759V222.813C294.608 218.466 291.084 214.942 286.737 214.942Z" fill="#263238"/>
<path d="M246.427 235.392L233.345 196.565C232.784 194.418 232.375 192.234 232.119 190.03C232.119 188.4 238.629 178.996 238.629 178.996C238.629 178.996 237.109 174.607 239.585 173.847C242.062 173.087 247.787 178.616 248.364 179.572C248.94 180.529 248.744 182.429 247.984 184.145C247.223 185.862 242.062 196.552 241.302 197.116C240.542 197.68 250.264 214.096 256.749 223.255C263.235 232.413 269.009 240.799 267.624 244.428C266.239 248.057 260.195 245.188 255.609 243.091C252.219 241.292 249.129 238.976 246.451 236.226L246.427 235.392Z" fill="#FFD5BF" stroke="#263238" stroke-linecap="round" stroke-linejoin="round"/>
<path d="M240.676 178.248L243.312 180.222" stroke="#263238" stroke-linecap="round" stroke-linejoin="round"/>
<path d="M147.549 322.279C147.549 322.279 150.001 329.635 156.879 331.302C163.757 332.969 182.221 310.178 182.221 310.178L183.03 303.227L155.249 306.5C155.249 306.5 146.323 311.649 147.549 322.279Z" fill="#FFD5BF" stroke="#263238" stroke-linecap="round" stroke-linejoin="round"/>
<path d="M251.686 103.806C251.686 103.806 245.973 116.47 245.973 117.696C245.973 118.922 246.12 119.633 248.535 120.148C250.95 120.663 273.582 124.979 277.849 123.826C280.963 123.029 283.562 107.484 283.562 107.484C281.018 106.838 278.42 106.428 275.801 106.258C272.945 106.258 265.172 105.436 265.172 105.436L261.911 108.293L263.137 104.615L258.233 103.806L257.007 106.662L256.234 103.389L251.686 103.806Z" fill="white" stroke="#263238" stroke-miterlimit="10"/>
<path d="M277.849 123.826C279.075 123.507 280.301 120.724 281.257 117.537L247.444 113.564C246.826 114.893 246.334 116.276 245.973 117.696C245.973 118.922 246.12 119.633 248.535 120.148C250.95 120.663 273.582 124.917 277.849 123.826Z" fill="#263238" stroke="#263238" stroke-miterlimit="10"/>
<path d="M153.912 380.575C153.609 380.572 153.311 380.494 153.045 380.35C152.778 380.205 152.552 379.997 152.385 379.743C152.217 379.49 152.115 379.2 152.086 378.898C152.058 378.596 152.104 378.292 152.22 378.012L261.334 119.326C261.524 118.876 261.886 118.52 262.339 118.336C262.792 118.152 263.299 118.155 263.749 118.345C264.2 118.536 264.556 118.897 264.74 119.35C264.924 119.803 264.92 120.31 264.73 120.761L155.616 379.447C155.473 379.78 155.235 380.065 154.933 380.265C154.63 380.465 154.275 380.573 153.912 380.575Z" fill="#263238" stroke="#263238" stroke-miterlimit="10"/>
<path d="M234.425 199.837C234.425 199.837 231.973 194.014 233.052 184.733C233.37 181.975 236.301 178.248 236.484 176.911C236.668 175.575 235.528 174.055 237.245 174.055C238.961 174.055 240.677 176.335 240.677 178.248C240.677 180.16 239.353 183.152 239.537 183.973C239.596 185.182 239.534 186.393 239.353 187.59" fill="#FFD5BF"/>
<path d="M234.425 199.837C234.425 199.837 231.973 194.014 233.052 184.733C233.37 181.975 236.301 178.248 236.484 176.911C236.668 175.575 235.528 174.055 237.245 174.055C238.961 174.055 240.677 176.335 240.677 178.248C240.677 180.16 239.353 183.152 239.537 183.973C239.596 185.182 239.534 186.393 239.353 187.59" stroke="#263238" stroke-linecap="round" stroke-linejoin="round"/>
<path d="M205.367 195.191C205.367 195.191 210.884 201.15 211.497 202.694C212.11 204.239 211.939 207.598 211.939 208.211C211.939 208.824 213.704 209.756 214.146 211.08C214.587 212.404 217.677 221.44 217.677 222.764C217.677 224.088 215.69 225.854 213.704 226.736L209.291 228.722L208.629 235.784L191.465 238.432L189.479 230.929C189.479 230.929 194.996 229.384 195.609 224.529C196.222 219.675 188.767 212.846 190.533 205.122C192.298 197.398 200.292 193.426 205.367 195.191Z" fill="#FFD5BF" stroke="#263238" stroke-linecap="round" stroke-linejoin="round"/>
<path d="M204.044 195.633C203.292 197.702 202.774 199.849 202.499 202.033C202.499 204.019 207.133 203.577 207.133 206.005C206.922 208.014 206.323 209.963 205.368 211.743C205.368 211.743 207.82 214.195 207.354 215.421C206.888 216.647 204.902 218.069 204.264 216.524C203.627 214.979 200.733 215.641 201.812 218.731C202.556 220.697 203.681 222.497 205.122 224.027C204.243 226.458 202.807 228.65 200.93 230.427C197.619 233.737 192.544 234.84 191.22 233.958C189.896 233.075 182.638 227.337 178.874 222.041C175.11 216.745 171.812 208.555 175.122 200.206C176.249 197.42 178.045 194.955 180.353 193.03C182.661 191.106 185.408 189.78 188.351 189.172C190.558 188.73 184.599 188.068 186.806 184.979C189.013 181.889 195.192 179.683 198.723 181.448C202.254 183.213 201.175 185.42 203.136 186.082C205.098 186.744 207.109 183.434 209.095 186.303C211.081 189.172 213.324 198.281 204.044 195.633Z" fill="#263238" stroke="#263238" stroke-linecap="round" stroke-linejoin="round"/>
<path d="M202.5 202.032C202.5 202.032 201.678 211.644 196.492 217.492C191.306 223.34 182.197 224.64 182.197 224.64" stroke="white" stroke-linecap="round" stroke-linejoin="round"/>
<path d="M189.479 230.929C189.479 230.929 194.542 231.125 200.378 225.927" stroke="white" stroke-linecap="round" stroke-linejoin="round"/>
<path d="M206.692 218.35C206.692 218.35 203.381 213.066 201.616 215.04C199.851 217.014 202.057 222.985 205.147 224.088C208.236 225.191 209.34 223.205 209.34 223.205" fill="#FFD5BF"/>
<path d="M206.692 218.35C206.692 218.35 203.381 213.066 201.616 215.04C199.851 217.014 202.057 222.985 205.147 224.088C208.236 225.191 209.34 223.205 209.34 223.205" stroke="#263238" stroke-linecap="round" stroke-linejoin="round"/>
<path d="M181.988 243.067C181.988 243.067 183.079 238.163 185.286 236.667C187.493 235.172 203.823 233.357 208.237 232.916C212.651 232.474 217.285 235.123 217.285 235.123L219.492 238.874L181.988 243.067Z" fill="white" stroke="#263238" stroke-linecap="round" stroke-linejoin="round"/>
<path d="M149.573 304.869C149.573 304.869 145.073 309.773 144.264 312.225C143.455 314.677 143.038 319.986 147.525 323.259C152.012 326.532 158.976 327.342 162.237 325.711C165.498 324.08 167.558 320.807 167.558 315.486C167.628 312.541 167.068 309.615 165.915 306.904C165.915 306.904 155.249 300.37 149.573 304.869Z" fill="white" stroke="#263238" stroke-linecap="round" stroke-linejoin="round"/>
<path d="M241.068 238.666C241.068 238.666 244.33 232.94 250.46 232.536C256.59 232.131 259.863 232.94 264.362 237.023C268.862 241.105 272.172 247.248 269.72 251.33C267.268 255.413 264.816 257.46 259.912 257.865C255.008 258.269 250.104 252.556 250.104 252.556L241.068 238.666Z" fill="white" stroke="#263238" stroke-linecap="round" stroke-linejoin="round"/>
<path d="M211.227 495.708C211.227 495.708 224.309 494.899 226.761 498.16C229.213 501.421 227.778 506.252 219.013 511.119C211.362 515.373 193.892 519.701 188.019 518.475C181.154 517.151 185.077 504.658 185.077 504.658C185.077 504.658 203.871 505.516 211.227 495.708Z" fill="white" stroke="#263238" stroke-linecap="round" stroke-linejoin="round"/>
<path d="M226.615 498.001C225.583 501.312 223.697 504.293 221.147 506.644C215.691 511.548 203.027 514.626 195.033 515.802C191.411 516.396 187.695 515.998 184.281 514.65C184.429 515.603 184.867 516.487 185.537 517.18C186.206 517.874 187.074 518.343 188.021 518.524C193.893 519.664 211.315 515.373 219.014 511.168C227.78 506.264 229.214 501.483 226.762 498.209L226.615 498.001Z" fill="#263238" stroke="#263238" stroke-linecap="round" stroke-linejoin="round"/>
<path d="M148.701 499.386C148.701 499.386 147.071 506.742 149.118 510.016C151.166 513.289 162.187 514.92 166.282 512.872C170.377 510.825 171.591 505.516 171.591 500.612C171.591 495.708 164.639 505.933 148.701 499.386Z" fill="white" stroke="#263238" stroke-linecap="round" stroke-linejoin="round"/>
<path d="M148.15 506.559C148.203 507.77 148.534 508.953 149.119 510.016C151.154 513.289 162.188 514.92 166.283 512.872C167.98 511.974 169.317 510.52 170.071 508.753C158.155 512.946 151.019 508.913 148.15 506.559Z" fill="#263238" stroke="#263238" stroke-linecap="round" stroke-linejoin="round"/>
<path d="M171.997 325.712C171.997 325.712 169.14 340.828 169.545 343.685C169.949 346.541 171.188 353.493 171.188 353.493C171.188 353.493 161.38 411.936 160.558 426.244C159.737 440.551 154.024 465.88 152.381 475.284C150.738 484.687 149.929 493.674 147.477 497.352C145.025 501.03 150.75 503.886 153.607 505.517C156.463 507.147 167.914 505.112 169.545 504.291C171.175 503.469 172.414 498.578 172.818 494.9C173.223 491.222 182.222 468.332 183.901 453.62C185.581 438.908 195.757 384.964 196.566 380.882C197.375 376.799 199.435 364.944 199.435 364.944C199.435 364.944 196.566 414.388 196.161 427.47C195.757 440.551 188.805 457.298 187.579 468.737C186.353 480.175 184.723 490.4 184.723 494.9C184.723 499.399 183.497 507.564 185.949 509.195C188.401 510.825 192.888 509.612 199.839 507.564C206.791 505.517 211.278 501.03 211.695 497.756C212.111 494.483 212.921 492.852 212.921 490.805C212.921 488.757 220.681 445.86 225.585 423.375C230.489 400.89 233.763 371.074 230.894 353.91C229.184 343.778 228.229 333.533 228.037 323.26C228.037 323.26 190.387 333.472 171.997 325.712Z" fill="#263238" stroke="#263238" stroke-linecap="round" stroke-linejoin="round"/>
<path d="M199.385 364.944L187.529 357.171" stroke="white" stroke-linecap="round" stroke-linejoin="round"/>
<path d="M183.9 241.926C183.9 241.926 157.75 249.282 156.928 256.234C156.107 263.185 150.798 291.383 149.572 299.548C148.346 307.713 145.073 314.677 150.394 318.76C155.715 322.842 163.058 319.986 164.689 316.712C166.32 313.439 169.593 305.678 169.593 305.678C169.593 305.678 170.414 321.616 170.414 324.068C170.414 326.52 170.819 330.198 178.996 331.02C187.174 331.841 203.516 332.65 211.277 330.615C219.038 328.58 227.215 328.163 228.036 323.259C228.858 318.355 226.406 302 228.036 292.609C229.667 283.218 230.893 268.089 230.893 268.089C230.893 268.089 259.912 256.234 264.412 254.603C268.911 252.973 263.995 241.522 259.091 238.665C254.187 235.809 248.878 235.796 242.344 237.022C235.809 238.248 227.632 236.618 223.537 236.618C219.442 236.618 183.9 241.926 183.9 241.926Z" fill="white" stroke="#263238" stroke-linecap="round" stroke-linejoin="round"/>
<path d="M233.296 248.057L230.844 268.089L238.617 250.509" stroke="#263238" stroke-linecap="round" stroke-linejoin="round"/>
<path d="M169.543 305.679L165.865 269.315" stroke="#263238" stroke-linecap="round" stroke-linejoin="round"/>
<path d="M166.283 279.528L159.736 263.994" stroke="#263238" stroke-linecap="round" stroke-linejoin="round"/>
<path d="M226.81 289.74C226.81 289.74 221.085 309.773 208.42 317.534" stroke="#263238" stroke-linecap="round" stroke-linejoin="round"/>
<path d="M214.55 307.726C214.55 307.726 208.824 313.856 196.564 319.986" stroke="#263238" stroke-linecap="round" stroke-linejoin="round"/>
<path d="M205.969 109.519L210.873 133.229C210.873 133.229 235.393 116.065 264.817 107.067C294.241 98.0677 323.371 100.434 323.371 100.434C323.371 100.434 267.269 93.1759 242.749 98.9014C218.229 104.627 205.969 109.519 205.969 109.519Z" fill="white" stroke="#263238" stroke-miterlimit="10"/>
<path d="M415.908 325.748C415.742 325.15 415.703 324.524 415.795 323.91C415.887 323.296 416.107 322.708 416.441 322.185C416.776 321.662 417.217 321.216 417.735 320.875C418.254 320.534 418.839 320.306 419.451 320.206C423.129 319.704 427.715 324.681 429.161 327.697C429.284 327.955 430.755 332.246 430.694 332.246C430.632 332.246 424.122 332.393 421.437 331.228C419.157 330.223 416.521 328.323 415.908 325.748ZM511.132 314.334C510.592 316.909 508.005 318.895 505.749 319.949C503.494 321.003 498.148 321.175 496.836 321.175C496.113 322.021 495.365 322.928 494.556 323.946C493.134 325.76 491.565 327.832 489.995 330.186C489.579 330.811 489.149 331.498 488.769 332.16C489.713 331.191 491.025 329.88 491.221 329.708C493.833 327.624 500.098 325.147 503.224 327.256C503.731 327.615 504.157 328.077 504.474 328.611C504.792 329.145 504.993 329.74 505.066 330.358C505.139 330.975 505.081 331.6 504.897 332.194C504.713 332.787 504.406 333.335 503.996 333.803C502.317 335.838 499.092 336.414 496.64 336.255C494.188 336.095 489.162 333.803 488.058 333.251C487.139 334.735 486.232 336.279 485.386 337.947C483.798 340.949 482.485 344.088 481.462 347.326L481.646 347.424C482.406 346.418 484.098 344.359 484.221 344.212C486.587 341.845 492.545 338.695 495.868 340.399C496.414 340.698 496.891 341.109 497.267 341.605C497.643 342.101 497.911 342.67 498.052 343.277C498.193 343.883 498.205 344.512 498.086 345.123C497.967 345.734 497.721 346.313 497.364 346.823C495.917 349.03 492.791 349.949 490.302 350.121C487.445 350.329 481.511 348.086 481.291 348C480.354 351.242 479.633 354.544 479.133 357.881C478.741 360.333 478.459 362.859 478.189 365.385C478.704 364.674 480.874 361.964 481.046 361.78C483.412 359.426 489.37 356.263 492.705 357.98C493.248 358.281 493.722 358.694 494.096 359.19C494.47 359.687 494.736 360.256 494.876 360.862C495.016 361.467 495.027 362.096 494.908 362.706C494.79 363.316 494.545 363.894 494.188 364.404C492.742 366.611 489.628 367.53 487.139 367.702C484.331 367.898 478.643 365.777 478.164 365.593C478.042 366.745 477.919 367.886 477.809 369.038C477.441 372.802 477.086 376.566 476.583 380.28C476.424 381.506 476.215 382.818 476.019 384.081C476.828 383.039 478.336 381.151 478.471 381.004C480.837 378.65 486.796 375.487 490.118 377.203C490.683 377.498 491.177 377.912 491.567 378.416C491.957 378.92 492.233 379.503 492.376 380.123C492.519 380.744 492.527 381.389 492.397 382.013C492.268 382.637 492.005 383.225 491.626 383.738C490.179 385.957 487.065 386.864 484.576 387.048C482.088 387.232 477.22 385.54 475.896 385.05C475.553 387.146 475.161 389.218 474.67 391.253C474.437 392.111 474.266 393.019 473.996 393.84L473.26 396.292C472.697 397.959 472.169 399.516 471.605 401.061C471.323 401.846 471.041 402.569 470.759 403.329C471.421 402.103 472.5 400.277 472.623 400.117C474.597 397.432 479.979 393.411 483.559 394.6C484.145 394.813 484.679 395.147 485.127 395.581C485.574 396.014 485.926 396.538 486.157 397.116C486.388 397.695 486.495 398.316 486.47 398.939C486.445 399.562 486.288 400.172 486.011 400.73C484.92 403.182 481.977 404.506 479.538 405.058C476.865 405.671 471.103 404.494 470.404 404.347C469.705 406.198 469.006 408.025 468.32 409.655C466.162 414.927 464.164 419.231 462.729 422.234C462.643 422.394 462.57 422.553 462.496 422.712H472.979L469.362 493.33C469.23 495.914 468.11 498.348 466.235 500.13C464.359 501.912 461.871 502.905 459.284 502.905C456.696 502.905 454.206 501.912 452.329 500.131C450.451 498.349 449.329 495.915 449.194 493.33L445.577 422.712H456.832C456.832 422.222 456.722 421.707 456.66 421.119C456.28 417.857 455.68 413.199 454.699 407.633C454.417 406.026 454.098 404.335 453.755 402.594C453.019 402.692 447.208 403.427 444.584 402.594C442.194 401.858 439.362 400.264 438.454 397.788C438.223 397.211 438.114 396.593 438.137 395.972C438.159 395.351 438.312 394.742 438.584 394.184C438.857 393.626 439.244 393.131 439.72 392.732C440.196 392.332 440.751 392.038 441.348 391.866C444.964 390.947 450.065 395.36 451.842 398.192C451.953 398.376 453.068 400.644 453.595 401.87C453.387 400.816 453.179 399.774 452.933 398.683C452.602 397.126 452.198 395.471 451.805 393.877C451.585 393.055 451.352 392.222 451.119 391.425C450.886 390.628 450.592 389.794 450.322 388.973C449.905 387.747 449.427 386.521 448.937 385.295C447.367 385.736 442.721 386.938 440.355 386.582C437.988 386.227 434.838 385.086 433.563 382.769C433.247 382.235 433.046 381.64 432.974 381.023C432.903 380.406 432.961 379.781 433.146 379.189C433.331 378.596 433.638 378.049 434.048 377.582C434.457 377.115 434.96 376.74 435.524 376.48C438.969 375.021 444.67 378.613 446.865 381.139C446.926 381.225 447.343 381.801 447.809 382.5C447.306 381.274 446.803 380.133 446.252 378.956C444.67 375.597 442.966 372.238 441.274 368.866C440.919 368.155 440.575 367.444 440.22 366.745C438.896 367.113 433.869 368.462 431.368 368.106C428.867 367.751 425.851 366.598 424.588 364.281C424.27 363.748 424.067 363.154 423.994 362.537C423.92 361.92 423.977 361.295 424.161 360.702C424.345 360.109 424.651 359.561 425.061 359.094C425.47 358.627 425.973 358.252 426.538 357.992C429.983 356.533 435.696 360.125 437.878 362.651C437.952 362.749 438.442 363.435 438.969 364.22C438.074 362.381 437.204 360.542 436.407 358.654C434.998 355.47 433.81 352.193 432.852 348.846C432.386 348.981 426.525 350.685 423.742 350.28C421.29 349.912 418.225 348.772 416.963 346.455C416.643 345.923 416.439 345.328 416.366 344.712C416.292 344.095 416.35 343.469 416.535 342.876C416.72 342.283 417.029 341.737 417.441 341.271C417.852 340.806 418.358 340.434 418.924 340.178C422.357 338.707 428.07 342.311 430.252 344.837C430.412 345.008 432.14 347.546 432.704 348.515V348.392C431.837 345.078 431.266 341.693 431 338.278C430.748 335.228 430.674 332.166 430.78 329.107C430.853 326.263 431.086 323.676 431.319 321.383C431.454 320.157 431.589 319.005 431.736 317.951H431.675C431.613 317.951 430.363 313.623 430.314 313.329C429.762 310.043 430.632 303.349 433.992 301.633C434.55 301.355 435.16 301.199 435.783 301.174C436.406 301.148 437.027 301.255 437.606 301.486C438.184 301.718 438.708 302.069 439.141 302.517C439.575 302.965 439.909 303.499 440.122 304.085C441.102 306.537 440.036 309.614 438.736 311.747C437.437 313.88 433.084 316.982 431.993 317.73C431.871 318.821 431.736 319.998 431.626 321.31C431.454 323.602 431.27 326.214 431.27 329.021C431.27 329.769 431.27 330.578 431.27 331.363C431.527 330.039 431.895 328.212 431.957 328.041C432.986 324.865 436.861 319.336 440.539 319.336C441.159 319.358 441.769 319.51 442.327 319.781C442.886 320.053 443.382 320.438 443.782 320.913C444.183 321.387 444.48 321.941 444.654 322.537C444.828 323.133 444.875 323.759 444.793 324.375C444.511 326.999 442.157 329.279 440.024 330.505C437.89 331.731 432.422 332.565 431.245 332.712C431.245 334.453 431.393 336.243 431.601 338.094C431.935 341.474 432.571 344.818 433.501 348.086H433.71C433.796 346.86 434.041 344.199 434.078 343.979C434.752 340.717 437.988 334.784 441.703 334.379C442.323 334.331 442.945 334.413 443.531 334.621C444.116 334.828 444.652 335.157 445.103 335.584C445.553 336.012 445.909 336.529 446.147 337.103C446.385 337.677 446.5 338.294 446.485 338.915C446.485 341.551 444.4 344.04 442.427 345.56C440.146 347.313 433.955 348.711 433.734 348.772C434.756 351.991 435.985 355.14 437.412 358.2C438.454 360.468 439.607 362.724 440.771 364.98C440.771 364.097 441.127 360.64 441.176 360.395C441.85 357.121 445.075 351.2 448.79 350.795C449.409 350.745 450.033 350.826 450.619 351.033C451.206 351.24 451.742 351.568 452.193 351.996C452.644 352.424 453 352.942 453.237 353.517C453.475 354.092 453.588 354.71 453.571 355.331C453.571 357.967 451.487 360.456 449.513 361.964C447.282 363.68 441.372 365.054 440.931 365.164C441.458 366.194 441.985 367.211 442.537 368.229C444.302 371.576 446.092 374.911 447.747 378.258C448.324 379.41 448.851 380.575 449.378 381.739C449.476 380.415 449.697 378.061 449.734 377.816C450.408 374.543 453.644 368.621 457.359 368.217C457.978 368.167 458.6 368.247 459.186 368.453C459.771 368.66 460.307 368.987 460.758 369.413C461.209 369.84 461.565 370.357 461.803 370.93C462.042 371.503 462.156 372.12 462.141 372.741C462.141 375.389 460.056 377.865 458.083 379.386C456.109 380.906 451.143 382.181 449.746 382.512C450.616 384.449 451.425 386.398 452.198 388.36C452.48 389.206 452.835 390.052 453.068 390.885C453.301 391.719 453.571 392.54 453.816 393.337C454.27 395.054 454.687 396.635 455.042 398.241C455.238 399.051 455.41 399.823 455.594 400.608C455.496 399.247 455.361 397.101 455.373 396.93C455.545 393.595 457.825 387.256 461.503 386.288C462.107 386.145 462.734 386.132 463.344 386.247C463.954 386.363 464.532 386.606 465.042 386.959C465.552 387.313 465.982 387.77 466.303 388.301C466.625 388.831 466.832 389.424 466.91 390.039C466.961 390.364 466.981 390.692 466.971 391.02C468.443 393.564 469.236 396.443 469.276 399.382C469.276 399.602 468.933 402.116 468.724 403.403C469.129 402.41 469.521 401.417 469.95 400.375C470.539 398.891 471.103 397.285 471.667 395.74C471.936 394.931 472.194 394.11 472.464 393.288C472.733 392.467 472.917 391.633 473.162 390.836C473.481 389.61 473.751 388.311 474.033 387.023C472.476 386.521 467.903 384.952 466.125 383.345C464.347 381.739 462.361 379.054 462.57 376.419C462.602 375.798 462.764 375.192 463.045 374.638C463.326 374.085 463.721 373.596 464.202 373.204C464.684 372.813 465.243 372.526 465.842 372.364C466.442 372.202 467.069 372.167 467.682 372.262C471.36 372.937 474.131 379.091 474.56 382.401C474.56 382.5 474.56 383.211 474.56 384.057C474.793 382.831 475.026 381.531 475.21 380.231C475.749 376.553 476.178 372.875 476.62 369.075C476.718 368.29 476.828 367.506 476.914 366.721C475.602 366.304 470.674 364.661 468.786 362.969C466.898 361.277 465.022 358.678 465.23 356.042C465.26 355.422 465.421 354.814 465.702 354.26C465.982 353.705 466.377 353.216 466.859 352.824C467.341 352.432 467.901 352.145 468.501 351.984C469.101 351.822 469.729 351.789 470.343 351.886C474.021 352.561 476.791 358.715 477.22 362.025C477.22 362.148 477.22 362.994 477.22 363.938C477.49 361.903 477.797 359.88 478.152 357.869C478.742 354.435 479.561 351.043 480.604 347.718C480.151 347.571 474.315 345.756 472.218 343.881C470.367 342.225 468.455 339.59 468.675 336.954C468.704 336.333 468.863 335.726 469.142 335.171C469.421 334.617 469.815 334.127 470.296 333.735C470.777 333.343 471.336 333.057 471.936 332.895C472.535 332.734 473.162 332.7 473.775 332.798C477.453 333.472 480.224 339.614 480.653 342.937C480.653 343.169 480.739 346.234 480.715 347.326V347.203C481.821 343.959 483.216 340.82 484.883 337.824C486.361 335.141 487.998 332.55 489.787 330.064C491.405 327.734 493.036 325.699 494.483 323.934C495.279 322.977 496.027 322.107 496.726 321.31H496.53C496.456 321.31 497.817 316.97 497.94 316.712C499.301 313.66 503.714 308.559 507.441 308.964C508.048 309.05 508.629 309.262 509.15 309.584C509.67 309.907 510.118 310.334 510.465 310.839C510.812 311.344 511.05 311.915 511.165 312.517C511.28 313.118 511.268 313.737 511.132 314.334ZM468.222 404.065C467.584 403.758 462.68 401.331 460.768 399.259C459.113 400.175 457.406 400.994 455.655 401.711C456.084 403.636 456.489 405.524 456.881 407.289C457.985 412.868 458.696 417.563 459.149 420.861C459.247 421.56 459.333 422.185 459.407 422.761H459.652C459.909 422.283 460.167 421.756 460.473 421.168C461.957 418.237 464.029 414.008 466.272 408.834C466.91 407.302 467.584 405.708 468.246 404.065H468.222ZM487.838 332.675C487.838 332.675 489.064 328.31 489.064 328.016C489.53 324.718 488.475 318.049 485.104 316.418C484.537 316.164 483.923 316.032 483.301 316.031C482.68 316.03 482.066 316.16 481.498 316.412C480.93 316.664 480.422 317.033 480.006 317.494C479.59 317.956 479.276 318.5 479.084 319.091C478.177 321.543 479.317 324.62 480.678 326.704C482.284 329.169 487.838 332.663 487.838 332.675Z" fill="#3B802A"/>
</svg>
