<svg width="521" height="521" viewBox="0 0 521 521" fill="none" xmlns="http://www.w3.org/2000/svg">
<path d="M244.766 450.915L120.664 224.353L34.918 253.372L62.729 307.452L60.968 304.43L55.758 306.16C55.2392 306.334 54.7642 306.617 54.3655 306.992C53.9667 307.366 53.6536 307.822 53.4478 308.329C53.2419 308.836 53.148 309.381 53.1727 309.928C53.1974 310.474 53.3399 311.009 53.5906 311.495L67.3033 338.16C68.1774 339.865 69.5715 341.247 71.2838 342.107C72.9961 342.967 74.9376 343.26 76.8272 342.943L80.6305 342.307L147.423 472.192L244.766 450.915Z" fill="#2E353A"/>
<path d="M324.938 126.53C323.604 127.258 322.035 127.429 320.576 127.003C319.117 126.577 317.886 125.59 317.154 124.258L313.976 118.454L120.664 224.353L244.766 450.915L438.089 345.027L370.525 221.685C369.797 220.353 369.627 218.786 370.053 217.328C370.479 215.871 371.466 214.642 372.797 213.912C373.457 213.55 374.04 213.062 374.512 212.475C374.983 211.888 375.335 211.213 375.546 210.491C375.757 209.768 375.823 209.01 375.741 208.262C375.659 207.513 375.431 206.788 375.068 206.128L332.711 128.801C331.981 127.47 330.752 126.483 329.294 126.057C327.837 125.631 326.27 125.801 324.938 126.53Z" fill="#46B2C8" stroke="#2E353A" stroke-linecap="round" stroke-linejoin="round"/>
<path d="M334.554 134.889L177.553 190.856L252.515 401.143L409.516 345.176L334.554 134.889Z" fill="white" stroke="#2E353A" stroke-linecap="round" stroke-linejoin="round"/>
<path d="M334.564 134.897L177.562 190.864L205.179 268.334L362.18 212.367L334.564 134.897Z" fill="white" stroke="#2E353A" stroke-linecap="round" stroke-linejoin="round"/>
<path d="M322.41 214.487C334.133 207.044 337.603 191.507 330.161 179.783C322.718 168.06 307.181 164.59 295.457 172.033C283.734 179.475 280.264 195.012 287.707 206.736C295.149 218.459 310.687 221.929 322.41 214.487Z" fill="#2E353A" stroke="#2E353A" stroke-linecap="round" stroke-linejoin="round"/>
<path d="M317.373 216.975C320.859 215.736 324.027 213.742 326.652 211.135C329.276 208.529 331.292 205.374 332.555 201.897C328.189 192.123 317.519 187.028 307.912 190.435C298.304 193.842 293.272 204.565 296.075 214.891C299.252 216.786 302.809 217.956 306.491 218.316C310.173 218.677 313.889 218.218 317.373 216.975Z" fill="white" stroke="#2E353A" stroke-linecap="round" stroke-linejoin="round"/>
<path d="M315.689 198.141C320.964 193.481 321.462 185.427 316.802 180.153C312.142 174.878 304.088 174.38 298.814 179.04C293.539 183.7 293.041 191.753 297.701 197.028C302.361 202.302 310.415 202.801 315.689 198.141Z" fill="white" stroke="#2E353A" stroke-linecap="round" stroke-linejoin="round"/>
<path d="M256.142 193.929L201.197 213.516L203.447 219.827L258.391 200.24L256.142 193.929Z" fill="white" stroke="#2E353A" stroke-linecap="round" stroke-linejoin="round"/>
<path d="M261.554 209.093L206.609 228.68L208.859 234.991L263.804 215.404L261.554 209.093Z" fill="white" stroke="#2E353A" stroke-linecap="round" stroke-linejoin="round"/>
<path d="M266.044 221.714L211.1 241.301L212.226 244.461L267.171 224.875L266.044 221.714Z" fill="#2E353A"/>
<path d="M268.747 229.297L213.803 248.884L214.929 252.044L269.874 232.458L268.747 229.297Z" fill="#2E353A"/>
<path d="M282.482 267.821L227.537 287.407L228.664 290.568L283.608 270.981L282.482 267.821Z" fill="#2E353A"/>
<path d="M284.952 274.775L230.008 294.361L231.134 297.522L286.079 277.935L284.952 274.775Z" fill="#2E353A"/>
<path d="M287.433 281.718L232.488 301.305L233.615 304.465L288.559 284.879L287.433 281.718Z" fill="#2E353A"/>
<path d="M357.003 241.251L302.059 260.838L303.185 263.998L358.13 244.412L357.003 241.251Z" fill="#2E353A"/>
<path d="M359.484 248.206L304.539 267.792L305.666 270.952L360.61 251.366L359.484 248.206Z" fill="#2E353A"/>
<path d="M361.956 255.153L307.012 274.739L308.138 277.9L363.083 258.313L361.956 255.153Z" fill="#2E353A"/>
<path d="M224.01 281.569L356.646 234.304" stroke="#2E353A" stroke-linecap="round" stroke-linejoin="round"/>
<path d="M295.314 303.82L240.369 323.406L241.496 326.567L296.44 306.98L295.314 303.82Z" fill="#2E353A"/>
<path d="M297.786 310.777L242.842 330.363L243.968 333.524L298.913 313.937L297.786 310.777Z" fill="#2E353A"/>
<path d="M300.267 317.72L245.322 337.307L246.449 340.467L301.393 320.881L300.267 317.72Z" fill="#2E353A"/>
<path d="M369.837 277.253L314.893 296.84L316.019 300L370.964 280.414L369.837 277.253Z" fill="#2E353A"/>
<path d="M372.317 284.207L317.373 303.794L318.5 306.954L373.444 287.368L372.317 284.207Z" fill="#2E353A"/>
<path d="M374.79 291.155L319.846 310.741L320.972 313.902L375.917 294.315L374.79 291.155Z" fill="#2E353A"/>
<path d="M236.836 317.57L369.472 270.305" stroke="#2E353A" stroke-linecap="round" stroke-linejoin="round"/>
<path d="M379.741 305.037L249.633 351.418L260.889 382.993L390.996 336.612L379.741 305.037Z" fill="#2E353A" stroke="#2E353A" stroke-linecap="round" stroke-linejoin="round"/>
<path d="M314.005 147.904L160.816 213.593L248.799 418.773L401.988 353.085L314.005 147.904Z" fill="white" stroke="#2E353A" stroke-linecap="round" stroke-linejoin="round"/>
<path d="M314.011 147.907L160.822 213.596L193.235 289.184L346.424 223.496L314.011 147.907Z" fill="white" stroke="#2E353A" stroke-linecap="round" stroke-linejoin="round"/>
<path d="M313.341 221.209C320.753 209.466 317.243 193.938 305.5 186.526C293.757 179.114 278.229 182.625 270.817 194.368C263.405 206.11 266.916 221.639 278.659 229.051C290.401 236.463 305.929 232.952 313.341 221.209Z" fill="#2E353A" stroke="#2E353A" stroke-linecap="round" stroke-linejoin="round"/>
<path d="M301.993 230.907C305.394 229.451 308.43 227.261 310.886 224.494C313.341 221.727 315.154 218.451 316.195 214.902C311.235 205.43 300.263 201.001 290.896 205.023C281.528 209.046 277.172 220.039 280.611 230.167C283.901 231.857 287.523 232.8 291.219 232.928C294.915 233.056 298.594 232.366 301.993 230.907Z" fill="white" stroke="#2E353A" stroke-linecap="round" stroke-linejoin="round"/>
<path d="M298.8 212.503C303.946 207.702 304.227 199.638 299.426 194.492C294.625 189.345 286.561 189.065 281.414 193.866C276.268 198.667 275.988 206.731 280.788 211.877C285.589 217.024 293.653 217.304 298.8 212.503Z" fill="white" stroke="#2E353A" stroke-linecap="round" stroke-linejoin="round"/>
<path d="M239.436 211.747L185.826 234.735L188.467 240.893L242.077 217.905L239.436 211.747Z" fill="white" stroke="#2E353A" stroke-linecap="round" stroke-linejoin="round"/>
<path d="M245.782 226.534L192.172 249.522L194.812 255.68L248.423 232.692L245.782 226.534Z" fill="white" stroke="#2E353A" stroke-linecap="round" stroke-linejoin="round"/>
<path d="M251.069 238.853L197.459 261.842L198.781 264.925L252.392 241.937L251.069 238.853Z" fill="#2E353A"/>
<path d="M254.239 246.248L200.629 269.236L201.951 272.32L255.561 249.332L254.239 246.248Z" fill="#2E353A"/>
<path d="M270.362 283.838L216.752 306.826L218.074 309.91L271.684 286.921L270.362 283.838Z" fill="#2E353A"/>
<path d="M273.268 290.614L219.658 313.603L220.981 316.686L274.591 293.698L273.268 290.614Z" fill="#2E353A"/>
<path d="M276.167 297.405L222.557 320.394L223.879 323.477L277.489 300.489L276.167 297.405Z" fill="#2E353A"/>
<path d="M343.067 252.672L289.457 275.66L290.779 278.744L344.39 255.755L343.067 252.672Z" fill="#2E353A"/>
<path d="M345.97 259.438L292.359 282.427L293.682 285.51L347.292 262.522L345.97 259.438Z" fill="#2E353A"/>
<path d="M348.888 266.225L295.277 289.214L296.6 292.298L350.21 269.309L348.888 266.225Z" fill="#2E353A"/>
<path d="M212.859 301.221L342.276 245.734" stroke="#2E353A" stroke-linecap="round" stroke-linejoin="round"/>
<path d="M285.419 318.97L231.809 341.958L233.131 345.042L286.741 322.053L285.419 318.97Z" fill="#2E353A"/>
<path d="M288.333 325.737L234.723 348.726L236.045 351.809L289.655 328.821L288.333 325.737Z" fill="#2E353A"/>
<path d="M291.239 332.524L237.629 355.513L238.951 358.596L292.561 335.608L291.239 332.524Z" fill="#2E353A"/>
<path d="M358.14 287.79L304.529 310.778L305.852 313.862L359.462 290.874L358.14 287.79Z" fill="#2E353A"/>
<path d="M361.044 294.557L307.434 317.546L308.756 320.63L362.366 297.641L361.044 294.557Z" fill="#2E353A"/>
<path d="M363.94 301.348L310.33 324.337L311.652 327.421L365.263 304.432L363.94 301.348Z" fill="#2E353A"/>
<path d="M227.918 336.347L357.334 280.86" stroke="#2E353A" stroke-linecap="round" stroke-linejoin="round"/>
<path d="M369.759 314.895L242.811 369.331L256.021 400.139L382.97 345.703L369.759 314.895Z" fill="#2E353A" stroke="#2E353A" stroke-linecap="round" stroke-linejoin="round"/>
<path d="M278.974 146.547L139.17 237.302L260.727 424.555L400.531 333.8L278.974 146.547Z" fill="white" stroke="#2E353A" stroke-linecap="round" stroke-linejoin="round"/>
<path d="M278.98 146.555L139.176 237.311L183.958 306.295L323.762 215.54L278.98 146.555Z" fill="white" stroke="#2E353A" stroke-linecap="round" stroke-linejoin="round"/>
<path d="M271.56 234.078C285.266 231.851 294.572 218.934 292.345 205.228C290.117 191.521 277.2 182.215 263.494 184.443C249.787 186.67 240.481 199.587 242.709 213.294C244.936 227 257.853 236.306 271.56 234.078Z" fill="#2E353A" stroke="#2E353A" stroke-linecap="round" stroke-linejoin="round"/>
<path d="M281.237 230.281C284.342 228.269 286.963 225.596 288.914 222.453C290.865 219.309 292.097 215.773 292.522 212.098C286.02 203.596 274.453 201.116 265.909 206.659C257.365 212.203 254.926 223.79 260.043 233.188C263.571 234.297 267.301 234.612 270.965 234.109C274.63 233.606 278.137 232.299 281.237 230.281Z" fill="#FF993C" stroke="#2E353A" stroke-linecap="round" stroke-linejoin="round"/>
<path d="M273.075 214.736C278.433 210.172 279.075 202.128 274.511 196.771C269.947 191.414 261.904 190.771 256.546 195.335C251.189 199.899 250.546 207.943 255.11 213.3C259.675 218.657 267.718 219.3 273.075 214.736Z" fill="white" stroke="#2E353A" stroke-linecap="round" stroke-linejoin="round"/>
<path d="M216.329 222.126L167.402 253.887L171.05 259.507L219.977 227.746L216.329 222.126Z" fill="white" stroke="#2E353A" stroke-linecap="round" stroke-linejoin="round"/>
<path d="M225.086 235.623L176.16 267.384L179.808 273.004L228.734 241.243L225.086 235.623Z" fill="white" stroke="#2E353A" stroke-linecap="round" stroke-linejoin="round"/>
<path d="M231.514 248.254L182.516 279.753L184.327 282.571L233.326 251.073L231.514 248.254Z" fill="#2E353A"/>
<path d="M236.776 253.612L187.85 285.373L189.677 288.187L238.603 256.426L236.776 253.612Z" fill="#2E353A"/>
<path d="M259.051 287.915L210.125 319.676L211.952 322.49L260.878 290.729L259.051 287.915Z" fill="#2E353A"/>
<path d="M263.067 294.111L214.141 325.872L215.968 328.686L264.894 296.925L263.067 294.111Z" fill="#2E353A"/>
<path d="M267.082 300.306L218.156 332.067L219.983 334.882L268.909 303.121L267.082 300.306Z" fill="#2E353A"/>
<path d="M325.414 244.833L276.488 276.594L278.315 279.408L327.241 247.647L325.414 244.833Z" fill="#2E353A"/>
<path d="M329.438 251.022L280.512 282.783L282.339 285.597L331.265 253.837L329.438 251.022Z" fill="#2E353A"/>
<path d="M333.453 257.219L284.527 288.979L286.354 291.794L335.28 260.033L333.453 257.219Z" fill="#2E353A"/>
<path d="M205.357 314.767L323.458 238.086" stroke="#2E353A" stroke-linecap="round" stroke-linejoin="round"/>
<path d="M279.864 319.983L230.938 351.744L232.764 354.558L281.691 322.798L279.864 319.983Z" fill="#2E353A"/>
<path d="M283.873 326.17L234.947 357.931L236.774 360.745L285.7 328.984L283.873 326.17Z" fill="#2E353A"/>
<path d="M287.899 332.349L238.973 364.11L240.8 366.925L289.726 335.164L287.899 332.349Z" fill="#2E353A"/>
<path d="M346.227 276.9L297.301 308.661L299.128 311.475L348.054 279.714L346.227 276.9Z" fill="#2E353A"/>
<path d="M350.246 283.082L301.32 314.843L303.147 317.657L352.073 285.896L350.246 283.082Z" fill="#2E353A"/>
<path d="M354.25 289.277L305.324 321.038L307.151 323.852L356.077 292.091L354.25 289.277Z" fill="#2E353A"/>
<path d="M226.166 346.819L344.266 270.148" stroke="#2E353A" stroke-linecap="round" stroke-linejoin="round"/>
<path d="M362.3 301.647L246.443 376.856L264.695 404.973L380.552 329.763L362.3 301.647Z" fill="#2E353A" stroke="#2E353A" stroke-linecap="round" stroke-linejoin="round"/>
<path d="M120.664 224.353L46.5566 166.98L90.6541 249.705C91.6961 251.705 88.9348 252.081 86.1214 250.309C83.2767 248.527 80.4737 248.923 81.5887 250.945L104.461 292.521C104.824 293.113 105.302 293.627 105.867 294.032L117.038 302.451C117.619 302.861 118.105 303.39 118.465 304.003L164.74 391.896L244.776 450.915L120.664 224.353Z" fill="#46B2C8" stroke="#2E353A" stroke-linecap="round" stroke-linejoin="round"/>
<path opacity="0.25" d="M120.664 224.353L46.5566 166.98L90.6541 249.705C91.6961 251.705 88.9348 252.081 86.1214 250.309C83.2767 248.527 80.4737 248.923 81.5887 250.945L104.461 292.521C104.824 293.113 105.302 293.627 105.867 294.032L117.038 302.451C117.619 302.861 118.105 303.39 118.465 304.003L164.74 391.896L244.776 450.915L120.664 224.353Z" fill="#2E353A" stroke="#2E353A" stroke-linecap="round" stroke-linejoin="round"/>
<path d="M436.317 350.653C436.301 350.616 436.271 350.586 436.234 350.57C435.015 350.038 424.772 350.132 424.501 350.737C424.501 350.809 424.553 350.903 424.709 351.007C424.928 351.145 425.158 351.264 425.397 351.362C425.689 351.487 426.043 351.622 426.439 351.758C426.835 351.893 427.21 352.029 427.616 352.154L429.357 352.696L430.273 352.966L430.878 353.133L420.27 363.397C418.061 365.414 415.74 367.306 413.32 369.065L412.841 368.586C412.147 367.916 411.413 367.29 410.642 366.71V366.439C409.744 367.011 408.808 367.519 407.839 367.961C404.213 369.784 394.043 374.348 390.417 381.663C388.599 385.375 386.582 388.986 384.373 392.479V392.958H384.082C380.57 392.656 373.88 394.99 368.962 397.418C364.762 399.741 360.718 402.334 356.854 405.181L353.04 406.525C351.655 406.723 349.112 407.046 348.758 407.473C348.404 407.901 345.934 407.473 344.84 407.744C343.746 408.015 344.058 408.786 344.058 408.786L346.142 408.984L332.398 413.767L343.454 422.541L358.448 416.976L359.251 417.174C360.85 417.666 362.577 417.512 364.065 416.747C364.594 416.549 365.112 416.323 365.617 416.07C368.389 415.705 376.819 413.85 379.747 413.204C381.946 416.185 388.218 421.197 389.292 423.364C389.342 423.479 389.384 423.597 389.417 423.718C389.417 423.718 389.417 423.77 389.417 423.802C389.438 423.891 389.438 423.983 389.417 424.073C388.92 425.285 388.273 426.43 387.489 427.48C386.061 426.89 384.587 426.42 383.081 426.073C377.382 424.76 374.266 430.679 373.276 430.971C372.286 431.262 371.077 432.138 372.234 432.971C373.391 433.805 371.64 434.576 370.932 435.701C370.491 436.591 370.192 437.543 370.046 438.525C366.284 438.848 363.065 440.401 362.231 442.693C361.189 445.621 370.682 447.768 370.682 447.768C370.682 447.768 383.821 452.905 393.845 449.685C403.869 446.465 403.484 441.099 404.265 438.223C405.047 435.347 413.226 428.272 422.406 423.343C431.586 418.414 435.577 413.965 426.845 407.286C421.114 402.899 416.071 400.794 411.913 400.627C412.018 400.377 412.132 400.127 412.247 399.888L412.455 399.429C412.58 399.169 412.726 398.919 412.862 398.658L413.07 398.283C413.289 397.908 413.518 397.543 413.768 397.178C414.203 396.56 414.583 395.904 414.904 395.22C415.917 393.102 416.185 390.704 415.665 388.415C415.487 387.756 415.389 387.077 415.373 386.394C415.581 385.029 417.853 379.662 418.436 377.276C418.458 377.11 418.458 376.942 418.436 376.776C418.353 376.103 418.141 375.452 417.811 374.859C420.156 373.463 424.876 370.92 427.043 368.513C429.211 366.106 433.952 357.53 435.723 353.133C435.796 352.956 435.859 352.779 435.921 352.612C435.984 352.456 436.036 352.289 436.088 352.143C436.13 351.997 436.171 351.862 436.213 351.737V351.685C436.213 351.581 436.275 351.466 436.296 351.372C436.291 351.355 436.291 351.337 436.296 351.32C436.296 351.226 436.296 351.143 436.296 351.07V350.997C436.301 350.942 436.301 350.886 436.296 350.83V350.747C436.296 350.747 436.328 350.684 436.317 350.653ZM380.956 409.307C377.736 410.203 370.317 412.548 366.368 413.861L359.074 407.182C360.845 406.265 364.773 404.556 369.233 402.639C373.369 401.09 377.659 399.989 382.029 399.356C382.391 400.027 382.628 400.758 382.727 401.513C383.144 402.805 383.666 404.059 384.29 405.264C383.452 406.816 382.32 408.19 380.956 409.307Z" fill="#2E353A"/>
<path d="M423.834 300.491C426.017 307.134 427.843 313.889 429.304 320.727C430.774 328.781 433.848 345.547 433.848 345.547C433.848 345.547 426.116 345.985 425.981 347.246C425.845 348.506 436.182 353.498 437.724 353.008C439.266 352.518 440.152 321.06 439.224 313.912C438.297 306.764 433.358 297.24 432.972 295.094C432.587 292.947 431.743 288.769 431.743 288.769L423.834 300.491Z" fill="#FFBF9D" stroke="#2E353A" stroke-linecap="round" stroke-linejoin="round"/>
<path d="M437.724 353.008C438.109 352.894 438.453 350.924 438.766 347.798C435.734 350.028 433.556 347.798 433.556 347.798L433.837 345.568C433.837 345.568 426.106 346.006 425.97 347.267C425.835 348.528 436.182 353.488 437.724 353.008Z" fill="#FF5454" stroke="#2E353A" stroke-linecap="round" stroke-linejoin="round"/>
<path d="M419.239 206.243C419.239 206.243 406.965 193.593 405.141 192.697C403.318 191.801 402.682 193.739 403.203 194.833C403.724 195.927 416.207 212.474 418.322 214.631C420.438 216.788 419.239 206.243 419.239 206.243Z" fill="#FFBF9D" stroke="#2E353A" stroke-linecap="round" stroke-linejoin="round"/>
<path d="M387.395 170.408L370.941 182.266L390.406 210.348L405.452 197.688L387.395 170.408Z" fill="#2E353A" stroke="#2E353A" stroke-linecap="round" stroke-linejoin="round"/>
<path d="M387.509 173.461L373.588 183.495L390.062 207.263L402.795 196.552L387.509 173.461Z" fill="#46B2C8" stroke="#2E353A" stroke-linecap="round" stroke-linejoin="round"/>
<path d="M406.61 194.937C406.076 193.621 405.42 192.358 404.651 191.165C403.296 189.081 402.431 187.966 400.045 188.101C398.272 188.153 396.499 188.024 394.752 187.716C393.387 187.57 393.366 189.539 394.085 190.217C394.804 190.894 398.774 190.727 398.774 190.727C398.368 190.196 398.67 191.061 401.296 194.676C402.035 195.718 404.63 195.895 405.213 195.958" fill="#FFBF9D"/>
<path d="M406.61 194.937C406.076 193.621 405.42 192.358 404.651 191.165C403.296 189.081 402.431 187.966 400.045 188.101C398.272 188.153 396.499 188.024 394.752 187.716C393.387 187.57 393.366 189.539 394.085 190.217C394.804 190.894 398.774 190.727 398.774 190.727C398.368 190.196 398.67 191.061 401.296 194.676C402.035 195.718 404.63 195.895 405.213 195.958" stroke="#2E353A" stroke-linecap="round" stroke-linejoin="round"/>
<path d="M424.22 149.787C423.597 152.36 423.189 154.981 423.001 157.623C423.001 160.123 424.356 162.457 422.668 163.52C420.98 164.583 421.688 166.855 422.511 167.876C423.334 168.897 422.907 181.828 429.461 181.922C436.016 182.016 442.32 178.64 443.653 175.034C444.987 171.429 448.29 161.165 444.133 156.33C439.975 151.496 428.055 143.326 424.22 149.787Z" fill="#FFBF9D" stroke="#2E353A" stroke-linecap="round" stroke-linejoin="round"/>
<path d="M424.469 161.76L425.5 163.656L424.25 163.698" stroke="#2E353A" stroke-linecap="round" stroke-linejoin="round"/>
<path d="M424.262 158.717C424.262 158.717 426.221 158.717 426.346 161.968" stroke="#2E353A" stroke-linecap="round" stroke-linejoin="round"/>
<path d="M434.671 179.984C434.92 182.896 434.92 185.824 434.671 188.737C434.593 189.211 434.404 189.661 434.119 190.049C437.374 187.815 440.869 185.952 444.539 184.496L445.581 184.1C445.048 179.677 444.784 175.227 444.789 170.772L434.671 179.984Z" fill="white" stroke="#2E353A" stroke-linecap="round" stroke-linejoin="round"/>
<path d="M406.922 304.784C406.922 304.784 406.36 318.903 407.548 323.728C408.736 328.552 413.122 368.461 412.935 372.066C412.747 375.671 412.601 377.151 412.601 377.151C412.601 377.151 401.754 378.735 400.65 379.047C399.545 379.36 399.18 380.808 405.182 382.528C411.184 384.247 415.8 386.883 417.082 384.893C418.364 382.903 420.104 375.515 420.614 370.128C421.813 357.624 423.865 343.578 422.636 337.263C421.406 330.949 418.207 323.092 418.645 321.008C419.083 318.924 425.856 296 425.856 296L406.922 304.784Z" fill="#FFBF9D" stroke="#2E353A" stroke-linecap="round" stroke-linejoin="round"/>
<path d="M416.873 384.82C417.535 383.447 417.988 381.982 418.217 380.475C415.039 382.153 411.132 379.777 411.132 379.777L412.392 377.078C412.392 377.078 401.545 378.662 400.441 378.975C399.336 379.287 398.971 380.736 404.973 382.455C410.975 384.174 415.591 386.81 416.873 384.82Z" fill="#FF5454" stroke="#2E353A" stroke-linecap="round" stroke-linejoin="round"/>
<path d="M434.67 179.984C434.919 182.896 434.919 185.824 434.67 188.737C434.232 192.748 416.07 204.512 416.529 208.941C416.987 213.369 419.123 219.538 417.925 224.717C416.727 229.896 410.079 247.922 408.755 254.341C407.432 260.76 402.399 309.567 404.671 311.713C406.942 313.86 416.133 312.953 420.759 310.338C425.386 307.723 434.941 297.834 435.785 292.926C436.629 288.018 437.577 276.556 438.192 273.805C438.807 271.055 443.589 264.427 443.058 252.153C442.527 239.878 446.955 225.061 447.997 215.506C449.039 205.95 447.997 192.998 446.34 187.82C444.684 182.641 444.767 170.772 444.767 170.772L434.67 179.984Z" fill="#46B2C8" stroke="#2E353A" stroke-linecap="round" stroke-linejoin="round"/>
<path d="M435.764 292.927C436.619 288.019 437.556 276.557 438.171 273.806C438.786 271.055 443.569 264.428 443.037 252.153C442.735 245.422 443.944 237.92 445.267 230.928C441.797 234.22 432.763 241.89 423.125 242.786C416.154 243.442 413.882 241.41 413.226 239.514C411.298 245.328 409.381 251.215 408.735 254.341C407.401 260.76 402.379 309.567 404.65 311.714C406.922 313.861 416.112 312.954 420.739 310.339C425.365 307.723 434.92 297.835 435.764 292.927Z" fill="#2E353A" stroke="#2E353A" stroke-linecap="round" stroke-linejoin="round"/>
<path d="M433.796 278.692L419.729 303.2" stroke="white" stroke-width="0.5" stroke-linecap="round" stroke-linejoin="round"/>
<path d="M427.367 294.364L420.938 307.223" stroke="white" stroke-width="0.5" stroke-linecap="round" stroke-linejoin="round"/>
<path d="M479.998 197.365C477.279 185.58 469.578 181.505 462.785 177.431C459.659 175.566 458.617 172.378 458.471 169.46L458.127 172.586C457.956 171.108 457.956 169.615 458.127 168.137C458.242 167.449 458.387 166.709 458.554 165.907C458.407 167.071 458.372 168.247 458.45 169.418L459.148 162.895V162.968C460.19 157.123 460.659 149.339 454.532 141.18C446.352 130.281 429.993 134.126 429.993 134.126C429.993 134.126 419.083 133.865 418.406 140.044C417.729 146.223 421.792 151.975 427.284 153.205C427.284 153.205 428.399 155.581 429.67 159.134C429.093 159.676 428.648 160.342 428.367 161.082C428.367 161.082 430.18 161.989 431.087 167.876C431.994 173.763 422.928 184.642 423.793 191.842C424.658 199.042 432.4 199.136 431.941 203.169C431.483 207.201 426.054 206.295 426.513 211.317C426.836 214.891 432.994 219.403 436.933 222.675C436.689 226.143 436.665 229.623 436.86 233.095C434.43 237.036 433.189 241.595 433.286 246.224C433.557 252.935 439.756 255.321 445.644 253.747C447.263 253.305 448.839 252.72 450.354 251.997C455.897 254.227 469.38 252.507 475.862 241.702C482.656 230.375 476.31 226.749 475.862 218.601C475.414 210.452 482.718 209.139 479.998 197.365Z" fill="#2E353A" stroke="#2E353A" stroke-linecap="round" stroke-linejoin="round"/>
<path d="M426.48 144.015C429.772 148.399 433.777 152.2 438.328 155.258C446.935 160.697 441.048 177.004 434.254 184.246C427.46 191.488 428.815 198.292 436.515 201.908C444.215 205.524 457.803 209.609 450.061 222.748C442.319 235.888 441.454 246.297 452.781 249.475" stroke="white" stroke-width="0.5" stroke-linecap="round" stroke-linejoin="round"/>
<path d="M423.834 140.294C423.834 140.294 424.459 141.336 425.605 142.847" stroke="white" stroke-width="0.5" stroke-linecap="round" stroke-linejoin="round"/>
<path d="M462.461 247.922C463.208 248.101 463.983 248.127 464.74 248C465.497 247.873 466.221 247.595 466.869 247.183" stroke="white" stroke-width="0.5" stroke-linecap="round" stroke-linejoin="round"/>
<path d="M454.146 198.209C461.17 200.731 468.734 202.856 469.579 210.046C470.944 221.821 455.084 227.26 455.084 236.763C455.084 241.233 456.783 244.401 459.002 246.224" stroke="white" stroke-width="0.5" stroke-linecap="round" stroke-linejoin="round"/>
<path d="M438.328 155.258C438.328 155.258 449.196 159.332 451.874 166.126C454.552 172.92 437.838 182.892 443.267 191.499C444.945 194.145 447.946 195.802 451.353 197.177" stroke="white" stroke-width="0.5" stroke-linecap="round" stroke-linejoin="round"/>
<path d="M453.479 145.692C453.479 145.692 462.856 155.268 458.574 165.949C454.291 176.629 452.322 181.454 455.448 184.267C458.574 187.081 475.152 188.289 479.195 201.106" stroke="white" stroke-width="0.5" stroke-linecap="round" stroke-linejoin="round"/>
<path d="M415.384 235.69C415.384 235.69 405.902 228.688 401.421 220.935C396.94 213.183 393.168 206.597 393.262 205.753C393.356 204.909 393.814 200.689 392.501 199.053C391.189 197.417 386.708 195.427 386.124 194.937C385.541 194.447 384.322 195.812 385.676 197.021C387.031 198.23 388.375 199.668 388.375 199.668L379.664 197.438C379.448 197.802 379.348 198.224 379.378 198.647C379.408 199.069 379.566 199.473 379.831 199.803C380.789 200.762 383.53 201.054 383.624 202.137C383.717 203.221 386.489 205.263 387.667 206.201C388.167 206.698 388.788 207.057 389.469 207.243C389.469 207.243 394.46 224.009 397.972 231.011C401.484 238.013 406.829 245.599 410.549 246.641C414.269 247.683 418.833 241.139 418.833 241.139L415.384 235.69Z" fill="#FFBF9D" stroke="#2E353A" stroke-linecap="round" stroke-linejoin="round"/>
<path d="M431.857 202.075C431.857 202.075 426.782 205.576 425.198 210.306C423.614 215.037 415.528 226.53 414.361 229.396C413.831 230.824 413.109 232.174 412.215 233.408C412.215 233.408 413.257 239.66 417.571 242.952C421.885 246.245 423.218 245.922 423.218 245.922C423.218 245.922 438.848 220.518 441.37 214.61C443.892 208.702 438.577 199.178 431.857 202.075Z" fill="#46B2C8" stroke="#2E353A" stroke-linecap="round" stroke-linejoin="round"/>
</svg>
