<svg width="574" height="574" viewBox="0 0 574 574" fill="none" xmlns="http://www.w3.org/2000/svg">
<path d="M378.507 93.0684H194.77C185.564 93.0684 178.101 100.531 178.101 109.737V500.011C178.101 509.217 185.564 516.68 194.77 516.68H378.507C387.713 516.68 395.176 509.217 395.176 500.011V109.737C395.176 100.531 387.713 93.0684 378.507 93.0684Z" fill="#263238"/>
<path opacity="0.2" d="M196.802 93.0684C194.345 93.0684 191.912 93.5525 189.642 94.493C187.373 95.4335 185.311 96.812 183.574 98.5498C181.837 100.288 180.46 102.35 179.521 104.621C178.582 106.891 178.099 109.324 178.101 111.781V497.968C178.097 500.705 178.696 503.41 179.854 505.89C181.013 508.37 182.703 510.564 184.805 512.318L311.452 93.0684H196.802Z" fill="white"/>
<path d="M294.003 504.431C294.003 502.971 293.569 501.543 292.758 500.329C291.946 499.115 290.793 498.169 289.443 497.611C288.094 497.052 286.609 496.907 285.177 497.192C283.744 497.478 282.429 498.182 281.397 499.216C280.365 500.249 279.663 501.566 279.38 502.998C279.096 504.431 279.244 505.916 279.804 507.264C280.365 508.613 281.313 509.765 282.528 510.575C283.744 511.384 285.172 511.815 286.632 511.813C287.602 511.815 288.562 511.625 289.457 511.254C290.353 510.883 291.166 510.34 291.851 509.654C292.536 508.968 293.079 508.153 293.448 507.257C293.817 506.361 294.006 505.401 294.003 504.431V504.431Z" stroke="white" stroke-linecap="round" stroke-linejoin="round"/>
<path d="M378.507 93.0684H194.77C185.564 93.0684 178.101 100.531 178.101 109.737V500.011C178.101 509.217 185.564 516.68 194.77 516.68H378.507C387.713 516.68 395.176 509.217 395.176 500.011V109.737C395.176 100.531 387.713 93.0684 378.507 93.0684Z" stroke="#263238" stroke-linecap="round" stroke-linejoin="round"/>
<path d="M385.51 121.837H187.744V491.539H385.51V121.837Z" fill="white" stroke="#263238" stroke-linecap="round" stroke-linejoin="round"/>
<path d="M378.782 125.672H362.389V134.661H378.782V125.672Z" stroke="#263238" stroke-width="0.821067" stroke-linecap="round" stroke-linejoin="round"/>
<path d="M375.177 125.672H362.389V134.661H375.177V125.672Z" fill="#263238" stroke="#263238" stroke-width="0.725073" stroke-linecap="round" stroke-linejoin="round"/>
<path d="M381.056 128.186H378.748V132.146H381.056V128.186Z" fill="#263238" stroke="#263238" stroke-width="0.725073" stroke-linecap="round" stroke-linejoin="round"/>
<path d="M195.206 128.461H192.198V133.615H195.206V128.461Z" fill="#263238" stroke="#263238" stroke-width="0.883086" stroke-linecap="round" stroke-linejoin="round"/>
<path d="M199.936 126.647H196.928V133.616H199.936V126.647Z" fill="#263238" stroke="#263238" stroke-width="0.883086" stroke-linecap="round" stroke-linejoin="round"/>
<path d="M204.654 124.512H201.646V133.615H204.654V124.512Z" fill="#263238" stroke="#263238" stroke-width="0.883086" stroke-linecap="round" stroke-linejoin="round"/>
<path d="M380.838 139.666H190.936V153.947H380.838V139.666Z" fill="#46B2C8"/>
<path d="M369.472 342.919H311.108C309.196 342.919 307.362 343.679 306.01 345.031C304.658 346.383 303.898 348.217 303.898 350.129V357.292L289.479 363.778L303.898 367.647V372.124C303.898 374.036 304.658 375.87 306.01 377.222C307.362 378.574 309.196 379.334 311.108 379.334H369.53C371.442 379.334 373.275 378.574 374.627 377.222C375.979 375.87 376.739 374.036 376.739 372.124V350.14C376.741 349.188 376.553 348.244 376.188 347.364C375.823 346.485 375.287 345.686 374.611 345.014C373.935 344.343 373.133 343.812 372.251 343.452C371.369 343.093 370.425 342.912 369.472 342.919Z" fill="white" stroke="#263238" stroke-miterlimit="10"/>
<path d="M330.073 361.712C330.073 362.314 329.894 362.903 329.559 363.403C329.224 363.904 328.749 364.294 328.192 364.524C327.635 364.754 327.023 364.813 326.433 364.695C325.842 364.577 325.3 364.286 324.875 363.859C324.45 363.433 324.161 362.889 324.045 362.299C323.929 361.708 323.991 361.096 324.223 360.54C324.455 359.984 324.847 359.51 325.349 359.177C325.85 358.844 326.44 358.668 327.042 358.67C327.441 358.67 327.836 358.749 328.204 358.902C328.573 359.055 328.907 359.279 329.189 359.562C329.471 359.844 329.694 360.18 329.845 360.549C329.997 360.918 330.074 361.313 330.073 361.712Z" fill="#263238"/>
<path d="M343.344 361.712C343.341 362.311 343.162 362.896 342.827 363.393C342.493 363.89 342.019 364.276 341.465 364.504C340.911 364.732 340.302 364.79 339.715 364.672C339.128 364.553 338.589 364.264 338.166 363.84C337.743 363.415 337.456 362.875 337.34 362.288C337.224 361.7 337.284 361.091 337.514 360.538C337.744 359.985 338.132 359.512 338.63 359.18C339.129 358.847 339.714 358.67 340.313 358.67C340.712 358.67 341.107 358.749 341.475 358.902C341.844 359.055 342.178 359.279 342.46 359.562C342.742 359.844 342.965 360.18 343.116 360.549C343.268 360.918 343.345 361.313 343.344 361.712Z" fill="#263238"/>
<path d="M356.626 361.712C356.626 362.314 356.448 362.902 356.114 363.402C355.779 363.903 355.304 364.293 354.748 364.523C354.192 364.753 353.581 364.813 352.991 364.696C352.401 364.578 351.858 364.289 351.433 363.863C351.008 363.438 350.718 362.896 350.6 362.306C350.483 361.715 350.543 361.104 350.774 360.548C351.004 359.992 351.394 359.517 351.894 359.183C352.394 358.848 352.983 358.67 353.584 358.67C354.391 358.67 355.165 358.99 355.735 359.561C356.306 360.132 356.626 360.905 356.626 361.712Z" fill="#263238"/>
<path d="M369.472 170.719H311.108C309.198 170.719 307.366 171.477 306.014 172.827C304.662 174.176 303.901 176.007 303.898 177.917V185.092L289.479 191.578L303.898 195.447V199.924C303.898 201.836 304.658 203.67 306.01 205.022C307.362 206.374 309.196 207.134 311.108 207.134H369.53C371.442 207.134 373.275 206.374 374.627 205.022C375.979 203.67 376.739 201.836 376.739 199.924V177.94C376.741 176.987 376.553 176.044 376.188 175.164C375.823 174.284 375.287 173.486 374.611 172.814C373.935 172.143 373.133 171.612 372.251 171.252C371.369 170.893 370.425 170.711 369.472 170.719Z" fill="white" stroke="#263238" stroke-miterlimit="10"/>
<path d="M330.073 189.512C330.073 190.114 329.894 190.703 329.559 191.203C329.224 191.704 328.749 192.094 328.192 192.324C327.635 192.554 327.023 192.613 326.433 192.495C325.842 192.377 325.3 192.086 324.875 191.659C324.45 191.232 324.161 190.689 324.045 190.098C323.929 189.508 323.991 188.895 324.223 188.34C324.455 187.784 324.847 187.31 325.349 186.977C325.85 186.644 326.44 186.467 327.042 186.47C327.441 186.47 327.836 186.549 328.204 186.702C328.573 186.855 328.907 187.079 329.189 187.361C329.471 187.644 329.694 187.98 329.845 188.349C329.997 188.718 330.074 189.113 330.073 189.512Z" fill="#263238"/>
<path d="M343.344 189.512C343.341 190.111 343.162 190.696 342.827 191.193C342.493 191.689 342.019 192.076 341.465 192.304C340.911 192.531 340.302 192.59 339.715 192.472C339.128 192.353 338.589 192.064 338.166 191.639C337.743 191.215 337.456 190.675 337.34 190.088C337.224 189.5 337.284 188.891 337.514 188.338C337.744 187.785 338.132 187.312 338.63 186.98C339.129 186.647 339.714 186.47 340.313 186.47C340.712 186.47 341.107 186.549 341.475 186.702C341.844 186.855 342.178 187.079 342.46 187.361C342.742 187.644 342.965 187.98 343.116 188.349C343.268 188.718 343.345 189.113 343.344 189.512Z" fill="#263238"/>
<path d="M356.626 189.512C356.626 190.114 356.448 190.702 356.114 191.202C355.779 191.702 355.304 192.092 354.748 192.323C354.192 192.553 353.581 192.613 352.991 192.496C352.401 192.378 351.858 192.089 351.433 191.663C351.008 191.238 350.718 190.696 350.6 190.105C350.483 189.515 350.543 188.904 350.774 188.348C351.004 187.792 351.394 187.317 351.894 186.982C352.394 186.648 352.983 186.47 353.584 186.47C354.391 186.47 355.165 186.79 355.735 187.361C356.306 187.931 356.626 188.705 356.626 189.512Z" fill="#263238"/>
<path d="M204.792 436.24H263.213C265.125 436.24 266.959 437 268.311 438.352C269.663 439.704 270.423 441.538 270.423 443.45V450.613L284.842 457.099L270.423 460.968V465.445C270.423 467.357 269.663 469.191 268.311 470.543C266.959 471.895 265.125 472.655 263.213 472.655H204.792C202.88 472.655 201.046 471.895 199.694 470.543C198.342 469.191 197.582 467.357 197.582 465.445V443.496C197.576 442.545 197.758 441.603 198.118 440.723C198.477 439.843 199.007 439.042 199.677 438.368C200.348 437.694 201.144 437.159 202.022 436.793C202.9 436.428 203.841 436.24 204.792 436.24Z" fill="white" stroke="#263238" stroke-miterlimit="10"/>
<path d="M244.191 455.079C244.189 455.681 244.366 456.271 244.699 456.773C245.033 457.275 245.508 457.667 246.064 457.898C246.62 458.13 247.233 458.191 247.824 458.074C248.415 457.957 248.959 457.667 249.385 457.241C249.811 456.815 250.101 456.272 250.218 455.681C250.335 455.09 250.274 454.477 250.042 453.921C249.81 453.364 249.419 452.889 248.917 452.556C248.415 452.222 247.825 452.046 247.222 452.048C246.418 452.048 245.647 452.367 245.079 452.936C244.511 453.504 244.191 454.275 244.191 455.079Z" fill="#263238"/>
<path d="M230.92 455.079C230.92 455.678 231.098 456.264 231.431 456.762C231.764 457.261 232.237 457.649 232.791 457.879C233.345 458.108 233.954 458.168 234.542 458.051C235.13 457.934 235.67 457.645 236.094 457.222C236.518 456.798 236.806 456.258 236.923 455.67C237.04 455.082 236.98 454.473 236.751 453.919C236.521 453.365 236.133 452.892 235.634 452.559C235.136 452.226 234.55 452.048 233.951 452.048C233.147 452.048 232.376 452.367 231.808 452.936C231.239 453.504 230.92 454.275 230.92 455.079Z" fill="#263238"/>
<path d="M217.638 455.079C217.635 455.681 217.812 456.27 218.145 456.772C218.478 457.274 218.952 457.665 219.508 457.897C220.063 458.129 220.675 458.191 221.266 458.075C221.857 457.959 222.4 457.67 222.827 457.245C223.254 456.82 223.544 456.278 223.663 455.688C223.781 455.097 223.722 454.485 223.492 453.929C223.262 453.372 222.872 452.896 222.371 452.561C221.871 452.227 221.282 452.048 220.68 452.048C219.875 452.048 219.103 452.367 218.533 452.935C217.963 453.503 217.641 454.274 217.638 455.079Z" fill="#263238"/>
<path d="M204.791 261.744H263.213C265.125 261.744 266.959 262.504 268.311 263.856C269.663 265.208 270.423 267.042 270.423 268.954V276.117L284.842 282.603L270.423 286.472V290.949C270.423 292.861 269.663 294.695 268.311 296.047C266.959 297.399 265.125 298.159 263.213 298.159H204.791C202.879 298.159 201.046 297.399 199.694 296.047C198.342 294.695 197.582 292.861 197.582 290.949V268.942C197.585 267.032 198.346 265.201 199.698 263.852C201.049 262.502 202.881 261.744 204.791 261.744Z" fill="white" stroke="#263238" stroke-miterlimit="10"/>
<path d="M244.191 280.526C244.191 281.128 244.37 281.716 244.705 282.217C245.04 282.717 245.516 283.107 246.072 283.337C246.629 283.567 247.241 283.627 247.831 283.508C248.422 283.39 248.964 283.099 249.389 282.673C249.814 282.246 250.103 281.703 250.219 281.112C250.335 280.521 250.273 279.909 250.041 279.353C249.809 278.798 249.417 278.323 248.915 277.991C248.414 277.658 247.824 277.481 247.222 277.483C246.823 277.483 246.428 277.562 246.06 277.715C245.691 277.868 245.357 278.092 245.075 278.375C244.793 278.658 244.57 278.993 244.419 279.362C244.267 279.731 244.19 280.127 244.191 280.526Z" fill="#263238"/>
<path d="M230.92 280.526C230.922 281.125 231.102 281.709 231.436 282.206C231.771 282.703 232.245 283.09 232.799 283.317C233.353 283.545 233.962 283.603 234.549 283.485C235.136 283.367 235.675 283.077 236.098 282.653C236.52 282.229 236.808 281.689 236.924 281.101C237.04 280.514 236.979 279.905 236.75 279.352C236.52 278.799 236.131 278.326 235.633 277.993C235.135 277.661 234.55 277.483 233.951 277.483C233.552 277.483 233.157 277.562 232.788 277.715C232.42 277.868 232.085 278.092 231.804 278.375C231.522 278.658 231.299 278.993 231.147 279.362C230.996 279.731 230.918 280.127 230.92 280.526Z" fill="#263238"/>
<path d="M217.638 280.526C217.638 281.127 217.816 281.715 218.15 282.216C218.485 282.716 218.96 283.106 219.516 283.336C220.072 283.566 220.683 283.627 221.273 283.509C221.864 283.392 222.406 283.102 222.831 282.677C223.257 282.251 223.546 281.709 223.664 281.119C223.781 280.529 223.721 279.917 223.491 279.361C223.26 278.805 222.87 278.33 222.37 277.996C221.87 277.662 221.282 277.483 220.68 277.483C219.873 277.483 219.099 277.804 218.529 278.374C217.958 278.945 217.638 279.719 217.638 280.526Z" fill="#263238"/>
<path d="M289.824 257.026C288.469 251.045 283.234 228.567 279.962 224.159C276.185 219.062 254.328 207.226 251.205 205.09C248.082 202.955 243.318 201.313 241.837 201.313C241.837 201.313 229.841 205.423 218.016 208.546C206.192 211.668 199.648 213.804 198.294 217.73C197.146 221.174 191.899 250.126 190.671 257.003L289.824 257.026Z" fill="#616161" stroke="#263238" stroke-linecap="round" stroke-linejoin="round"/>
<path d="M218.12 254.971C217.623 246.392 217.137 237.82 216.662 229.256" stroke="#263238" stroke-linecap="round" stroke-linejoin="round"/>
<path d="M250.711 227.603C256.302 226.788 259.425 216.593 260.251 212.323C260.366 211.703 260.481 211.175 260.584 210.658C256.13 208.029 252.365 205.894 251.205 205.09C248.083 202.955 243.318 201.313 241.837 201.313C241.837 201.313 237.464 202.817 231.391 204.689C232.206 206.548 234.284 211.14 237.406 217.259C241.516 225.307 245.132 228.452 250.711 227.603Z" fill="white" stroke="#263238" stroke-linecap="round" stroke-linejoin="round"/>
<path d="M238.221 186.354C238.221 186.354 236.58 203.287 236.419 204.275C236.258 205.262 238.554 211.829 242.503 217.913C246.453 223.997 251.687 223.504 254.328 218.234C256.302 213.832 257.895 209.27 259.092 204.596C256.538 204.048 254.137 202.939 252.063 201.351C249.988 199.763 248.292 197.735 247.095 195.412C243.158 187.514 239.863 184.058 238.221 186.354Z" fill="#B2B2B2" stroke="#263238" stroke-linecap="round" stroke-linejoin="round"/>
<path d="M249.563 146.095C249.563 146.095 239.048 149.217 235.271 157.437C232.194 164.118 233.95 174.531 235.271 177.975C236.591 181.419 237.073 188.169 239.541 194.253C242.009 200.338 248.576 208.029 254.167 209.177C259.757 210.325 270.767 201.451 273.683 197.353C276.599 193.255 275.657 186.172 275.979 185.024C276.3 183.876 280.571 175.656 280.089 165.508C279.606 155.359 265.509 143.305 249.563 146.095Z" fill="#B2B2B2" stroke="#263238" stroke-linecap="round" stroke-linejoin="round"/>
<path d="M269.779 183.898C269.779 183.898 271.26 193.427 268.953 194.414C266.645 195.401 262.214 193.92 261.56 192.6" stroke="#263238" stroke-linecap="round" stroke-linejoin="round"/>
<path d="M260.252 197.697C257.706 196.509 255.5 194.701 253.834 192.439C253.834 192.439 250.218 197.858 254.167 199.327C255.218 199.773 256.387 199.854 257.49 199.559C258.592 199.263 259.564 198.608 260.252 197.697Z" fill="#263238" stroke="#263238" stroke-linecap="round" stroke-linejoin="round"/>
<path d="M262.168 183.599C261.767 184.897 260.917 185.792 260.263 185.597C259.608 185.402 259.413 184.185 259.804 182.876C260.194 181.567 261.055 180.683 261.698 180.879C262.341 181.074 262.559 182.291 262.168 183.599Z" fill="#263238"/>
<path d="M273.671 185.402C273.27 186.711 272.42 187.607 271.766 187.4C271.111 187.193 270.916 185.988 271.307 184.691C271.697 183.393 272.558 182.487 273.212 182.682C273.867 182.877 274.062 184.105 273.671 185.402Z" fill="#263238"/>
<path d="M265.509 177.745C265.236 177.748 264.973 177.645 264.774 177.458C261.709 174.519 258.276 177.229 258.127 177.343C258.019 177.431 257.895 177.496 257.762 177.536C257.629 177.575 257.49 177.588 257.352 177.574C257.214 177.559 257.08 177.518 256.958 177.452C256.836 177.386 256.728 177.296 256.64 177.188C256.553 177.081 256.488 176.957 256.448 176.824C256.409 176.691 256.396 176.551 256.41 176.413C256.424 176.275 256.466 176.141 256.532 176.019C256.598 175.897 256.688 175.789 256.795 175.702C258.121 174.569 259.818 173.965 261.561 174.005C263.304 174.045 264.972 174.727 266.243 175.92C266.442 176.12 266.553 176.39 266.553 176.672C266.553 176.954 266.442 177.224 266.243 177.424C266.148 177.523 266.034 177.603 265.908 177.658C265.782 177.713 265.646 177.743 265.509 177.745Z" fill="#263238"/>
<path d="M277.666 181.384C277.489 181.383 277.314 181.339 277.158 181.255C277.002 181.171 276.869 181.049 276.771 180.902C276.561 180.484 276.262 180.117 275.895 179.827C275.528 179.538 275.102 179.332 274.647 179.225C273.851 179.192 273.07 179.454 272.454 179.96C272.351 180.053 272.23 180.124 272.1 180.171C271.969 180.217 271.83 180.237 271.691 180.229C271.553 180.222 271.417 180.187 271.292 180.127C271.167 180.067 271.055 179.983 270.962 179.88C270.869 179.777 270.798 179.656 270.752 179.525C270.705 179.394 270.685 179.256 270.693 179.117C270.7 178.978 270.735 178.843 270.795 178.717C270.855 178.592 270.939 178.48 271.042 178.387C271.573 177.926 272.191 177.577 272.86 177.36C273.528 177.143 274.234 177.063 274.934 177.125C275.697 177.262 276.42 177.569 277.048 178.024C277.676 178.48 278.194 179.071 278.562 179.754C278.665 179.914 278.724 180.099 278.731 180.289C278.737 180.48 278.693 180.669 278.601 180.836C278.509 181.003 278.374 181.142 278.209 181.239C278.044 181.335 277.857 181.385 277.666 181.384Z" fill="#263238"/>
<path d="M235.546 178.813C235.615 179.019 235.672 179.226 235.73 179.444V179.582C235.799 179.811 235.856 180.052 235.913 180.293V180.362C235.913 180.638 236.04 180.913 236.097 181.2L241.286 180.052C241.286 180.052 246.05 181.04 246.716 179.398C247.382 177.756 244.248 175.288 246.544 172.831C248.84 170.375 255.257 172.005 255.911 168.882C256.566 165.76 258.207 154.59 271.524 158.034C274.239 158.918 276.843 160.112 279.285 161.593C276.047 152.5 263.465 143.592 249.506 146.037C249.506 146.037 238.99 149.16 235.213 157.379C232.136 164.061 233.893 174.473 235.213 177.917C235.293 178.135 235.374 178.376 235.454 178.617L235.546 178.813Z" fill="#263238" stroke="#263238" stroke-linecap="round" stroke-linejoin="round"/>
<path d="M243.651 182.911C243.651 182.911 242.17 176.505 238.221 175.839C234.272 175.173 232.803 179.949 233.629 184.219C234.456 188.49 238.715 192.439 242.503 191.291" fill="#B2B2B2"/>
<path d="M243.651 182.911C243.651 182.911 242.17 176.505 238.221 175.839C234.272 175.173 232.803 179.949 233.629 184.219C234.456 188.49 238.715 192.439 242.503 191.291" stroke="#263238" stroke-linecap="round" stroke-linejoin="round"/>
<path d="M256.669 257.026C259.665 253.766 266.634 246.2 267.15 245.684C267.667 245.167 268.792 245.03 272.569 244.042C276.346 243.055 282.591 240.92 283.578 240.093C285.059 239.148 286.39 237.987 287.527 236.649C288.329 235.328 289.043 233.955 289.663 232.539C290.156 231.713 294.094 229.91 295.081 229.095C296.068 228.28 297.056 226.639 296.723 225.812C296.39 224.985 290.65 226.639 285.392 227.787C282.578 228.436 279.719 228.874 276.839 229.095C276.839 229.095 279.801 224.825 281.604 222.85C283.406 220.876 282.752 216.605 281.443 218.258C280.134 219.911 271.754 228.452 269.963 229.107C268.172 229.761 264.051 235.846 261.25 238.647C258.954 240.943 240.287 253.031 234.042 257.015L256.669 257.026Z" fill="#B2B2B2" stroke="#263238" stroke-linecap="round" stroke-linejoin="round"/>
<path d="M289.663 232.539L284.072 234.514" stroke="#263238" stroke-linecap="round" stroke-linejoin="round"/>
<path d="M382.215 257.025H193.908" stroke="#263238" stroke-linecap="round" stroke-linejoin="round"/>
<path d="M381.926 340.732C381.352 336.358 378.906 319.219 375.302 311.344C373.57 307.512 371.044 304.092 367.891 301.309C364.739 298.526 361.031 296.445 357.014 295.203C350.413 293.205 341.803 291.518 337.498 292.126C337.498 292.126 323.205 297.051 317.064 298.429C310.922 299.806 304.55 304.111 301.933 307.808C299.637 311.091 287.606 335.417 285 340.732H381.926Z" fill="#FFE6CE" stroke="#263238" stroke-linecap="round" stroke-linejoin="round"/>
<path d="M381.767 340.692C381.193 336.318 378.748 319.179 375.143 311.304C373.411 307.472 370.886 304.051 367.733 301.269C364.58 298.486 360.873 296.405 356.856 295.163C350.255 293.165 341.645 291.478 337.34 292.086C337.34 292.086 327.547 295.461 320.682 297.401C318.535 300.753 313.714 308.192 309.202 314.529C303.462 322.565 301.166 334.183 304.277 340.692H381.767Z" fill="#46B2C8" stroke="#263238" stroke-linecap="round" stroke-linejoin="round"/>
<path d="M328.121 283.178C329.525 288.541 330.044 294.098 329.659 299.629C329.039 309.008 324.126 315 325.974 319.764C327.822 324.529 335.158 326.365 341.644 321.303C348.13 316.24 349.324 303.784 349.485 298.251C349.646 292.718 352.252 275.521 352.252 275.521C352.252 275.521 345.364 283.66 337.328 283.97C329.292 284.28 328.121 283.178 328.121 283.178Z" fill="#FFE6CE" stroke="#263238" stroke-linecap="round" stroke-linejoin="round"/>
<path d="M329.808 239.232C329.808 239.232 319.476 241.069 314.758 250.138C310.166 258.829 312.347 273.443 316.882 282.099C322.622 293.027 322.278 296.77 322.335 306.425C322.39 307.077 322.31 307.733 322.101 308.353C321.892 308.974 321.557 309.544 321.118 310.029C318.753 312.325 318.443 308.881 317.823 310.833C317.203 312.785 323.563 317.101 330.118 311.396C334.366 307.687 335.342 297.321 333.344 291.317C331.347 285.313 321.359 272.88 323.517 263.202C325.676 253.525 333.195 245.535 333.849 241.838C334.504 238.142 329.808 239.232 329.808 239.232Z" fill="#263238"/>
<path d="M330.245 244.857C330.245 244.857 312.382 255.568 315.172 272.145C317.961 288.723 335.836 293.567 334.148 310.649" stroke="#636363" stroke-linecap="round" stroke-linejoin="round"/>
<path d="M329.808 239.232C329.808 239.232 319.476 241.069 314.758 250.138C310.166 258.829 312.347 273.443 316.882 282.099C322.622 293.027 322.278 296.77 322.335 306.425C322.39 307.077 322.31 307.733 322.101 308.353C321.892 308.974 321.557 309.544 321.118 310.029C318.753 312.325 318.443 308.881 317.823 310.833C317.203 312.785 323.563 317.101 330.118 311.395C334.366 307.687 335.342 297.321 333.344 291.317C331.347 285.313 321.359 272.88 323.517 263.202C325.676 253.525 333.195 245.535 333.849 241.838C334.504 238.142 329.808 239.232 329.808 239.232Z" stroke="#263238" stroke-linecap="round" stroke-linejoin="round"/>
<path d="M358.417 340.692H381.767V340.474V340.301V340.049V339.808V339.705V339.475V339.406V339.108V338.798V338.717V338.442V338.315C381.773 338.212 381.773 338.109 381.767 338.005V337.925C381.767 337.81 381.767 337.696 381.767 337.581V337.5C381.767 337.386 381.767 337.282 381.767 337.179V337.03C381.767 336.926 381.767 336.823 381.767 336.708V336.593L381.698 336.18L381.63 335.767V335.675L381.561 335.227C381.561 335.055 381.503 334.883 381.48 334.711C381.4 334.183 381.308 333.632 381.216 333.069C381.216 332.897 381.216 332.725 381.124 332.552V332.495C381.124 332.323 381.067 332.151 381.033 331.978V331.898C381.033 331.737 380.975 331.577 380.941 331.404V331.278C380.941 331.129 380.941 330.98 380.86 330.83V330.647L380.792 330.245V330.038L380.723 329.648V329.453C380.723 329.315 380.665 329.177 380.642 329.04V328.844C380.642 328.707 380.585 328.569 380.562 328.431V328.225C380.562 328.087 380.562 327.96 380.482 327.823V327.616C380.482 327.478 380.482 327.341 380.401 327.203V326.985C380.401 326.858 380.344 326.721 380.321 326.583V326.365C380.321 326.227 380.263 326.101 380.229 325.963V325.745C380.229 325.607 380.229 325.469 380.137 325.332C380.143 325.263 380.143 325.194 380.137 325.125C380.137 324.987 380.08 324.838 380.057 324.7V324.494L378.84 323.736V323.564C378.84 323.403 378.771 323.231 378.725 323.059V322.944L378.587 322.347C378.496 321.934 378.392 321.52 378.289 321.107V321.015C378.289 320.843 378.209 320.671 378.174 320.498V320.315L378.071 319.902C378.048 319.83 378.029 319.757 378.013 319.683L377.91 319.293C377.91 319.224 377.91 319.144 377.853 319.075C377.795 319.006 377.795 318.834 377.761 318.708L377.692 318.467C377.692 318.352 377.635 318.237 377.6 318.122L377.531 317.881L377.439 317.548L377.371 317.296C377.371 317.192 377.313 317.089 377.279 316.974L377.21 316.733C377.174 316.631 377.143 316.528 377.118 316.423C377.118 316.331 377.061 316.251 377.038 316.171C377.015 316.09 377.038 315.964 376.946 315.872C376.854 315.78 376.946 315.711 376.865 315.619C376.84 315.522 376.809 315.426 376.774 315.332C376.752 315.25 376.725 315.17 376.693 315.091C376.668 314.99 376.637 314.891 376.601 314.793C376.601 314.724 376.601 314.644 376.521 314.563C376.441 314.483 376.464 314.368 376.429 314.276C376.395 314.185 376.372 314.127 376.349 314.047L376.245 313.771C376.224 313.697 376.197 313.624 376.165 313.553C376.14 313.46 376.109 313.368 376.073 313.278C376.042 313.211 376.015 313.142 375.993 313.071L375.89 312.795C375.89 312.727 375.89 312.658 375.809 312.6L375.694 312.325L375.626 312.141C375.626 312.038 375.545 311.946 375.499 311.854C375.475 311.802 375.456 311.749 375.442 311.693L375.247 311.28C373.592 307.658 371.229 304.403 368.298 301.708C365.366 299.013 361.924 296.932 358.176 295.587C357.154 299.157 354.583 309.145 355.203 317.399C355.754 325.251 357.567 335.951 358.417 340.692Z" fill="#FFE6CE" stroke="#263238" stroke-linecap="round" stroke-linejoin="round"/>
<path d="M331.198 239.84C331.198 239.84 325.355 244.294 323.518 249.219C321.681 254.144 320.131 266.577 320.441 271.502C320.751 276.427 327.042 285.025 329.625 287.172C332.208 289.319 343.401 286.862 348.682 281.949C352.333 278.505 355.444 266.738 352.987 255.212C350.53 243.686 338.729 237.073 331.198 239.84Z" fill="#FFE6CE" stroke="#263238" stroke-linecap="round" stroke-linejoin="round"/>
<path d="M336.271 262.283C336.271 262.283 339.647 258.748 345.329 261.663" stroke="#263238" stroke-linecap="round" stroke-linejoin="round"/>
<path d="M327.972 260.286C327.709 259.192 327.157 258.188 326.373 257.381C325.59 256.573 324.603 255.99 323.518 255.694" stroke="#263238" stroke-linecap="round" stroke-linejoin="round"/>
<path d="M330.739 258.748C330.739 258.748 330.429 261.664 329.35 262.743C328.27 263.822 325.974 264.89 326.893 267.048C327.811 269.206 330.578 269.654 331.806 268.426" stroke="#263238" stroke-linecap="round" stroke-linejoin="round"/>
<path d="M323.815 252.755C323.815 252.755 326.433 249.529 330.703 252.755" stroke="#263238" stroke-linecap="round" stroke-linejoin="round"/>
<path d="M335.503 254.293C335.503 254.293 340.566 251.217 344.561 256.899" stroke="#263238" stroke-linecap="round" stroke-linejoin="round"/>
<path d="M326.583 271.961C326.583 271.961 328.741 274.877 334.619 274.108C340.497 273.339 341.84 270.882 341.84 270.882" stroke="#263238" stroke-linecap="round" stroke-linejoin="round"/>
<path d="M340.565 262.203C340.565 262.491 340.48 262.773 340.32 263.013C340.159 263.253 339.932 263.44 339.665 263.55C339.399 263.66 339.106 263.689 338.823 263.633C338.54 263.577 338.28 263.438 338.076 263.234C337.873 263.03 337.734 262.77 337.677 262.488C337.621 262.205 337.65 261.912 337.76 261.645C337.871 261.379 338.058 261.151 338.297 260.991C338.537 260.831 338.819 260.745 339.107 260.745C339.494 260.745 339.865 260.899 340.138 261.172C340.412 261.446 340.565 261.816 340.565 262.203Z" fill="#263238"/>
<path d="M327.042 258.816C327.042 259.105 326.956 259.387 326.796 259.626C326.636 259.866 326.408 260.053 326.142 260.163C325.875 260.274 325.582 260.303 325.3 260.246C325.017 260.19 324.757 260.051 324.553 259.847C324.349 259.643 324.21 259.384 324.154 259.101C324.098 258.818 324.127 258.525 324.237 258.258C324.347 257.992 324.534 257.764 324.774 257.604C325.014 257.444 325.296 257.358 325.584 257.358C325.971 257.358 326.341 257.512 326.615 257.785C326.888 258.059 327.042 258.43 327.042 258.816Z" fill="#263238"/>
<path d="M329.969 273.959C329.969 273.959 332.425 279.033 336.73 278.551C341.035 278.069 340.726 272.076 340.726 272.076C337.482 273.973 333.664 274.641 329.969 273.959Z" fill="#263238" stroke="#263238" stroke-linecap="round" stroke-linejoin="round"/>
<path d="M343.941 226.638H343.596C338.086 227.27 330.853 228.429 326.434 231.977C321.049 236.27 322.898 237.349 327.811 239.806C332.725 242.263 347.327 250.413 348.716 262.089C350.105 273.764 345.33 292.051 343.034 300.351C340.738 308.651 343.791 314.334 348.257 318.329C349.263 319.264 350.458 319.971 351.762 320.402C353.065 320.834 354.446 320.981 355.811 320.832C358.314 320.579 361.459 319.913 363.445 318.283C363.663 318.111 366.177 315.459 365.741 315.103C363.537 313.232 360.885 315.918 359.542 313.347C356.798 308.066 361.057 301.741 363.939 297.401C366.292 293.854 370.207 291.661 372.595 288.217C374.918 284.501 376.326 280.288 376.705 275.922C377.795 266.577 376.039 256.67 372.755 247.911C368.496 236.546 359.68 226.443 346.696 226.478C345.8 226.489 344.859 226.535 343.941 226.638Z" fill="#263238"/>
<path d="M319.614 231.46C319.614 231.46 335.686 233.193 345.926 247.096C356.167 260.998 359.083 270.435 358.83 283.338C358.577 296.242 369.013 302.211 376.704 298.48" stroke="#636363" stroke-linecap="round" stroke-linejoin="round"/>
<path d="M333.758 227.488C333.758 227.488 354.617 231.46 361.31 252.308C368.003 273.156 365.293 285.853 374.248 287.563" stroke="#636363" stroke-linecap="round" stroke-linejoin="round"/>
<path d="M344.182 266.463C344.182 266.463 351.885 285.083 349.922 302.705C347.959 320.327 355.662 323.564 368.049 320.327" stroke="#636363" stroke-linecap="round" stroke-linejoin="round"/>
<path d="M343.941 226.638H343.596C338.086 227.27 330.853 228.429 326.434 231.977C321.049 236.27 322.898 237.349 327.811 239.806C332.725 242.263 347.327 250.413 348.716 262.089C350.105 273.764 345.33 292.051 343.034 300.351C340.738 308.651 343.791 314.334 348.257 318.329C349.263 319.264 350.458 319.971 351.762 320.402C353.065 320.834 354.446 320.981 355.811 320.832C358.314 320.579 361.459 319.913 363.445 318.283C363.663 318.111 366.177 315.459 365.741 315.103C363.537 313.232 360.885 315.918 359.542 313.347C356.798 308.066 361.057 301.741 363.939 297.401C366.292 293.854 370.207 291.661 372.595 288.217C374.918 284.501 376.326 280.288 376.705 275.922C377.795 266.577 376.039 256.67 372.755 247.911C368.496 236.546 359.68 226.443 346.696 226.478C345.8 226.489 344.859 226.535 343.941 226.638Z" stroke="#263238" stroke-linecap="round" stroke-linejoin="round"/>
<path d="M269.114 312.532C270.353 313.655 271.822 314.493 273.419 314.989C273.419 314.989 275.876 322.52 275.715 328.512C275.702 332.588 275.986 336.658 276.565 340.693H295.392C291.941 334.744 289.007 328.51 286.621 322.061C283.705 313.301 284.933 308.376 282.936 302.694C280.938 297.011 280.009 294.244 276.633 289.79C273.258 285.336 270.182 286.714 270.182 288.252C270.182 289.79 272.018 290.399 273.408 292.557C274.357 294.155 275.127 295.853 275.704 297.62C275.704 297.62 269.24 300.547 267.404 303.773C265.567 306.999 267.117 310.684 269.114 312.532Z" fill="#FFE6CE" stroke="#263238" stroke-linecap="round" stroke-linejoin="round"/>
<path d="M264.66 301.315C264.66 301.315 262.203 303.611 262.203 305.907C262.203 308.203 264.04 311.441 264.97 311.441C265.9 311.441 266.347 309.753 265.888 308.066C265.429 306.378 264.66 301.315 264.66 301.315Z" fill="#FFE6CE" stroke="#263238" stroke-linecap="round" stroke-linejoin="round"/>
<path d="M267.575 298.078C267.575 298.078 264.659 299.926 263.89 302.234C263.635 303.237 263.613 304.285 263.826 305.298C264.038 306.311 264.481 307.262 265.118 308.077C266.037 309.455 268.803 309.765 269.573 308.995C270.342 308.226 269.722 306.539 269.573 305.551C269.423 304.564 267.885 301.556 268.034 300.179C268.125 299.463 268.179 298.742 268.195 298.021L267.575 298.078Z" fill="#FFE6CE" stroke="#263238" stroke-linecap="round" stroke-linejoin="round"/>
<path d="M275.726 297.619C275.726 297.619 271.72 295.162 268.655 296.85C265.589 298.537 265.727 301.924 266.806 304.381C267.885 306.837 270.652 308.226 271.88 307.147C273.109 306.068 271.72 304.381 272.03 302.085C272.34 299.789 275.726 297.619 275.726 297.619Z" fill="#FFE6CE" stroke="#263238" stroke-linecap="round" stroke-linejoin="round"/>
<path d="M279.721 301.924C279.721 301.924 276.484 297.619 273.568 297.929C270.652 298.239 265.888 303.669 266.806 305.001C267.724 306.332 273.223 304.22 273.223 304.22C273.223 304.22 271.685 309.294 275.519 310.362" fill="#FFE6CE"/>
<path d="M279.721 301.924C279.721 301.924 276.484 297.619 273.568 297.929C270.652 298.239 265.888 303.669 266.806 305.001C267.724 306.332 273.223 304.22 273.223 304.22C273.223 304.22 271.685 309.294 275.519 310.362" stroke="#263238" stroke-linecap="round" stroke-linejoin="round"/>
<path d="M382.215 340.692H193.908" stroke="#263238" stroke-linecap="round" stroke-linejoin="round"/>
<path d="M382.215 431.486H193.908" stroke="#263238" stroke-linecap="round" stroke-linejoin="round"/>
<path d="M295.185 431.119C295.185 431.119 296.861 416.264 291.098 412.361C285.335 408.458 260.286 390.457 250.631 388.253C240.977 386.049 235.041 383.982 231.115 386.209C227.189 388.437 211.094 402.947 204.413 407.539C197.731 412.131 194.391 417.01 193.461 420.535C192.884 423.656 192.695 426.838 192.898 430.006V431.487C192.898 431.487 295.564 430.74 295.185 431.119Z" fill="#263238" stroke="#263238" stroke-linecap="round" stroke-linejoin="round"/>
<path d="M231.139 386.187C229.601 387.183 228.125 388.272 226.719 389.447C226.761 393.264 227.54 397.038 229.015 400.56C233.813 412.223 244.616 418.836 253.123 415.334C260.378 412.35 263.673 403.028 261.572 393.143C258.137 391.062 254.459 389.411 250.62 388.23C240.977 386.003 235.042 383.959 231.139 386.187Z" fill="white" stroke="#263238" stroke-linecap="round" stroke-linejoin="round"/>
<path d="M233.365 368.737C233.365 368.737 232.998 380.068 232.068 384.89C231.138 389.711 231.138 396.22 235.787 404.406C240.437 412.591 251.745 412.2 255.303 408.998C258.862 405.795 258.082 396.932 258.082 393.591C258.082 390.251 260.045 382.398 260.045 382.398C260.045 382.398 249.173 378.185 243.605 374.477C238.038 370.769 235.225 367.624 233.365 368.737Z" fill="#DAD2CB" stroke="#263238" stroke-linecap="round" stroke-linejoin="round"/>
<path d="M262.892 338.487C262.892 338.487 267.346 346.099 268.459 348.326C268.897 349.309 269.075 350.387 268.976 351.459C268.878 352.53 268.506 353.558 267.897 354.445C266.887 355.857 275.933 360.265 275.772 362.584C275.612 364.903 274.796 366.177 272.971 368.806C270.974 371.676 271.72 376.486 270.836 379.861C270.09 382.731 269.171 383.443 266.244 384.522C260.665 386.566 250.275 385.819 245.075 383.225C239.874 380.63 238.026 375.981 236.166 372.64C234.306 369.3 234.123 363.169 235.236 356.672C236.35 350.174 245.075 341.449 250.643 339.038C256.21 336.628 262.892 338.487 262.892 338.487Z" fill="#DAD2CB" stroke="#263238" stroke-linecap="round" stroke-linejoin="round"/>
<path d="M268.265 372.824C266.74 373.229 265.149 373.323 263.587 373.1C262.025 372.877 260.524 372.342 259.173 371.526C259.173 371.526 259.173 377.094 261.963 377.266C264.752 377.439 268.265 372.824 268.265 372.824Z" fill="#263238"/>
<path d="M262.892 357.797C263.179 359.048 262.892 360.185 262.226 360.334C261.56 360.483 260.826 359.588 260.539 358.337C260.252 357.085 260.539 355.949 261.204 355.799C261.87 355.65 262.571 356.546 262.892 357.797Z" fill="#263238"/>
<path d="M255.648 354.077C256.289 353.115 257.181 352.347 258.227 351.855C259.273 351.363 260.434 351.167 261.584 351.287" stroke="#263238" stroke-linecap="round" stroke-linejoin="round"/>
<path d="M273.465 367.061C273.465 367.061 270.595 370.161 268.815 370.39C267.036 370.62 265.05 368.175 265.934 366.625" stroke="#263238" stroke-linecap="round" stroke-linejoin="round"/>
<path d="M240.609 368.737C241.493 368.45 245.81 369.116 245.201 366.694C244.593 364.271 243.353 363.916 244.271 362.102C245.19 360.288 254.672 355.788 252.629 352.08C251.27 349.683 249.653 347.443 247.807 345.398C247.807 345.398 263.397 342.425 266.738 337.787C270.078 333.149 266.37 325.905 262.467 325.905C258.564 325.905 260.424 327.203 250.034 330.497C239.645 333.792 234.433 329.763 226.638 337.925C218.843 346.087 221.254 362.033 224.227 367.073C227.201 372.112 233.136 376.165 236.109 375.051C239.082 373.938 238.382 369.483 240.609 368.737Z" fill="#263238" stroke="#263238" stroke-linecap="round" stroke-linejoin="round"/>
<path d="M243.376 370.414C243.376 370.414 236.488 361.689 231.896 364.467C227.304 367.245 234.123 375.614 237.096 376.544C240.07 377.474 243.594 375.235 243.594 375.235" fill="#DAD2CB"/>
<path d="M243.376 370.414C243.376 370.414 236.488 361.689 231.896 364.467C227.304 367.245 234.123 375.614 237.096 376.544C240.07 377.474 243.594 375.235 243.594 375.235" stroke="#263238" stroke-linecap="round" stroke-linejoin="round"/>
<path d="M380.975 484.376H192.485" stroke="#263238" stroke-linecap="round" stroke-linejoin="round"/>
<path d="M282.109 479.439C282.109 479.439 281.937 469.222 283.464 467.684C284.991 466.145 322.634 445.55 333.195 445.711C343.757 445.872 358.187 460.256 365.89 464.079C378.151 470.209 378.151 473.607 379.173 477.017C380.194 480.426 381.044 484.341 381.044 484.341H282.109V479.439Z" fill="white"/>
<path d="M380.562 482.286C377.715 482.091 374.65 481.919 371.378 481.781L372.687 473.585L378.082 473.814C377.399 472.369 376.422 471.083 375.212 470.037L373.261 469.957L373.479 468.625C373.215 468.43 372.939 468.223 372.641 468.028L372.342 469.922L370.586 469.854L371.045 466.984C370.058 466.375 368.933 465.732 367.659 465.055L367.521 465.87C363.767 465.663 359.99 465.514 356.224 465.399L356.856 459.659L359.152 459.717C356.936 458.11 354.56 456.273 352.046 454.528L351.839 455.928C347.695 455.871 343.562 455.848 339.498 455.837L340.267 447.456L339.383 447.089L338.58 455.837H336.72L337.42 446.4C336.247 446.041 335.038 445.814 333.816 445.723L333.058 455.848C330.865 455.848 328.695 455.848 326.549 455.848L327.237 446.664L326.296 446.951L325.63 455.814H322.542L322.783 448.11C321.635 448.535 320.361 449.017 319.098 449.523L318.903 455.859C315.712 455.859 312.623 455.963 309.662 456.032L309.776 453.598L308.847 454.034L308.743 456.055H306.367V455.148C303.015 456.766 299.743 458.408 296.758 459.969L302.498 459.797L302.268 465.652L296.184 466.088L296.391 460.348L295.461 460.83L295.277 466.111L293.67 466.191L293.911 461.599C292.556 462.323 291.294 463 290.146 463.631L290.008 466.352L284.865 466.662C284.393 466.927 283.944 467.231 283.522 467.569L283.441 467.672L289.962 467.271L289.813 470.083L282.615 470.359C282.443 471.507 282.339 472.77 282.27 474.021C284.36 473.94 286.862 473.837 289.618 473.745L289.216 481.334L282.167 481.471V482.378L289.17 482.241L289.066 484.261H292.717L292.82 482.172H294.715L294.634 484.284H295.553L295.622 482.149L301.786 482.057L301.694 484.284H305.345L305.437 481.988H307.618L307.515 484.284H308.433L308.537 481.988L318.168 481.908L318.099 484.295H321.739L321.819 481.896H323.736L323.564 484.307H324.471L324.654 481.896H331.152L330.968 484.318H334.619L334.803 481.908H336.238L336.02 484.307H336.938L337.156 481.908C340.818 481.908 344.48 481.908 348.097 481.999L347.764 484.295H351.437L351.77 481.999H353.538L353.297 484.215H354.215L354.457 482.011C358.038 482.08 361.54 482.172 364.926 482.286L364.616 484.215H368.301L368.588 482.413L370.391 482.482L370.115 484.215H371.034L371.298 482.528C374.673 482.677 377.853 482.849 380.803 483.044C380.723 482.941 380.642 482.631 380.562 482.286ZM294.692 481.345H292.809L293.211 473.699L294.956 473.642L294.692 481.345ZM295.082 470.026L293.406 470.083L293.567 467.179L295.185 467.098L295.082 470.026ZM301.763 481.242L295.599 481.334L295.863 473.642L302.073 473.47L301.763 481.242ZM302.211 469.819L295.989 469.991L296.092 467.052C298.044 466.949 300.133 466.857 302.337 466.765L302.211 469.819ZM307.607 481.173H305.414L305.724 473.344H308.02L307.607 481.173ZM308.146 469.693L305.85 469.75L305.977 466.639L308.273 466.547L308.146 469.693ZM308.33 465.64L306.034 465.721L306.264 459.923H308.617L308.33 465.64ZM318.145 481.104L308.525 481.184L308.881 473.321L318.386 473.137L318.145 481.104ZM318.501 469.498C315.241 469.498 312.084 469.601 309.053 469.67L309.202 466.513C312.187 466.41 315.333 466.318 318.605 466.249L318.501 469.498ZM318.627 465.33C315.367 465.411 312.233 465.503 309.248 465.606L309.512 459.866C312.497 459.797 315.608 459.74 318.811 459.694L318.627 465.33ZM322.45 459.59H325.389L324.964 465.204H322.278L322.45 459.59ZM323.736 481.012H321.784L322.037 472.976H324.333L323.736 481.012ZM322.106 469.371L322.209 466.1H324.85L324.609 469.394L322.106 469.371ZM331.198 481.012H324.7L325.297 472.976H331.807L331.198 481.012ZM332.071 469.303H325.573L325.814 466.008C327.949 466.008 330.119 465.985 332.323 465.939L332.071 469.303ZM332.392 465.078L325.883 465.135L326.296 459.533H332.805L332.392 465.078ZM336.467 459.476H338.27L337.765 465.066H336.043L336.467 459.476ZM336.295 481.012H334.849L335.457 472.919H337.041L336.295 481.012ZM335.733 469.268L335.974 465.962H337.673L337.374 469.268H335.733ZM348.2 481.115C344.572 481.115 340.899 481.035 337.214 481.024L337.96 472.919C341.725 472.919 345.537 472.919 349.382 472.976L348.2 481.115ZM349.91 469.337C346.007 469.337 342.116 469.268 338.293 469.268L338.591 465.962C342.46 465.962 346.409 466.019 350.381 466.1L349.91 469.337ZM350.519 465.193C346.524 465.112 342.563 465.066 338.672 465.055L339.188 459.464C343.195 459.464 347.224 459.464 351.334 459.556L350.519 465.193ZM355.019 459.613H355.995L355.363 465.353H354.215L355.019 459.613ZM354.055 466.191H355.272L354.916 469.371H353.596L354.055 466.191ZM353.584 481.253H351.839L352.987 473.102H354.434L353.584 481.253ZM365.064 481.54C361.62 481.425 358.176 481.334 354.56 481.265L355.455 473.102C359.106 473.16 362.757 473.252 366.396 473.355L365.064 481.54ZM366.981 469.727C363.285 469.613 359.565 469.532 355.857 469.463L356.202 466.306C359.955 466.421 363.709 466.57 367.463 466.777L366.981 469.727ZM370.529 481.747L368.738 481.667L370.069 473.481L371.837 473.539L370.529 481.747Z" fill="#ADADAD"/>
<path d="M282.109 479.439C282.109 479.439 281.937 469.222 283.464 467.684C284.991 466.145 322.634 445.55 333.195 445.711C343.757 445.872 358.187 460.256 365.89 464.079C378.151 470.209 378.151 473.607 379.173 477.017C380.194 480.426 381.044 484.341 381.044 484.341H282.109V479.439Z" stroke="#263238" stroke-linecap="round" stroke-linejoin="round"/>
<path d="M327.57 441.624C327.57 441.624 322.462 441.968 321.107 444.528C319.752 447.088 320.418 448.615 317.663 456.273C314.908 463.93 313.404 466.157 314.942 466.157C316.481 466.157 320.682 461.725 322.255 461.048C323.828 460.371 327.375 466.318 327.375 466.318C327.375 466.318 334.183 462.747 336.398 462.575C338.614 462.403 343.378 471.598 344.228 470.071C345.077 468.545 347.293 462.919 349.681 457.811C352.069 452.702 352.574 448.443 350.53 445.034C348.487 441.624 329.281 440.602 327.57 441.624Z" fill="#263238" stroke="#263238" stroke-linecap="round" stroke-linejoin="round"/>
<path d="M324.506 439.926C323.721 445.174 323.663 450.505 324.333 455.768C325.481 463.425 327.238 467.857 328.593 466.835C329.947 465.813 338.305 460.705 342.564 455.424C346.823 450.143 347.5 449.466 348.694 446.573C349.888 443.68 351.243 440.442 351.243 440.442C351.243 440.442 335.412 446.401 324.506 439.926Z" fill="#FFE6CE" stroke="#263238" stroke-linecap="round" stroke-linejoin="round"/>
<path d="M324.678 411.822C324.678 411.822 321.613 407.058 319.914 412.683C318.215 418.308 322.29 421.362 322.807 421.018C323.323 420.673 324.678 411.822 324.678 411.822Z" fill="white" stroke="#263238" stroke-linecap="round" stroke-linejoin="round"/>
<path d="M326.216 399.906C326.216 399.906 320.591 424.255 319.397 431.247C318.203 438.238 325.871 444.69 334.39 445.884C342.908 447.077 351.07 442.991 353.286 438.732C355.501 434.472 362.47 407.23 363.503 405.359C364.536 403.488 368.095 395.314 365.386 392.582C362.676 389.85 358.233 391.905 358.233 391.905C358.233 391.905 355.157 384.064 349.888 383.869C344.618 383.673 343.918 386.073 343.918 386.073C343.918 386.073 339.326 380.459 335.067 381.653C330.808 382.847 330.808 385.568 330.808 385.568C330.808 385.568 322.978 383.696 320.085 389.31C317.192 394.924 325.194 396.634 325.194 396.634C325.194 396.634 323.484 399.057 326.216 399.906Z" fill="#FFE6CE" stroke="#263238" stroke-linecap="round" stroke-linejoin="round"/>
<path d="M357.372 419.835C357.889 419.663 361.298 414.21 364.524 416.391C367.75 418.572 364.019 426.953 361.298 428.307C360.834 428.558 360.322 428.709 359.796 428.75C359.269 428.79 358.74 428.72 358.243 428.544C357.745 428.368 357.29 428.089 356.907 427.726C356.523 427.363 356.221 426.923 356.018 426.436" fill="#FFE6CE"/>
<path d="M357.372 419.835C357.889 419.663 361.298 414.21 364.524 416.391C367.75 418.572 364.019 426.953 361.298 428.307C360.834 428.558 360.322 428.709 359.796 428.75C359.269 428.79 358.74 428.72 358.243 428.544C357.745 428.368 357.29 428.089 356.907 427.726C356.523 427.363 356.221 426.923 356.018 426.436" stroke="#263238" stroke-linecap="round" stroke-linejoin="round"/>
<path d="M365.385 392.616C362.653 389.895 358.233 391.939 358.233 391.939C358.233 391.939 355.157 384.098 349.887 383.903C344.618 383.708 343.918 386.107 343.918 386.107C343.918 386.107 339.326 380.493 335.067 381.687C330.808 382.881 330.808 385.602 330.808 385.602C330.808 385.602 322.978 383.731 320.085 389.344C317.192 394.958 325.194 396.669 325.194 396.669C325.194 396.669 323.483 399.056 326.216 399.906C327.237 398.884 329.281 394.292 339.67 394.166C350.06 394.04 358.394 401.49 358.394 401.49C358.394 401.49 354.652 405.91 355.846 407.781C357.039 409.652 358.394 409.492 358.233 411.019C358.073 412.545 354.789 426.517 353.458 428.732C352.724 429.807 351.677 430.63 350.459 431.088C349.24 431.547 347.91 431.618 346.65 431.292C344.262 430.603 342.896 428.904 338.614 426.7C334.332 424.496 330.773 423.635 327.708 424.829C324.643 426.023 324.471 427.045 322.772 427.55C321.302 427.997 320.843 427.033 320.418 425.897C319.959 428.112 319.592 430.006 319.362 431.304C318.214 438.284 325.837 444.747 334.355 445.941C342.873 447.135 351.035 443.048 353.251 438.789C355.467 434.53 362.435 407.288 363.468 405.416C364.501 403.545 368.106 395.314 365.385 392.616Z" fill="#46B2C8" stroke="#263238" stroke-linecap="round" stroke-linejoin="round"/>
<path d="M328.432 428.009C328.432 428.009 334.723 431.923 338.982 429.536C338.982 429.536 334.723 434.644 332.519 434.644C330.314 434.644 328.432 428.009 328.432 428.009Z" fill="#263238" stroke="#263238" stroke-linecap="round" stroke-linejoin="round"/>
<path d="M333.196 413.613C333.196 414.748 332.859 415.858 332.228 416.802C331.598 417.746 330.701 418.482 329.652 418.916C328.604 419.351 327.449 419.464 326.336 419.243C325.223 419.021 324.2 418.475 323.397 417.672C322.594 416.869 322.048 415.846 321.826 414.733C321.605 413.619 321.718 412.465 322.153 411.416C322.587 410.368 323.323 409.471 324.267 408.84C325.211 408.21 326.321 407.873 327.456 407.873C328.978 407.873 330.438 408.478 331.515 409.554C332.591 410.631 333.196 412.091 333.196 413.613Z" stroke="#263238" stroke-linecap="round" stroke-linejoin="round"/>
<path d="M349.715 416.507C349.715 417.642 349.379 418.752 348.748 419.696C348.117 420.64 347.221 421.375 346.172 421.81C345.123 422.244 343.969 422.358 342.856 422.136C341.742 421.915 340.719 421.368 339.917 420.565C339.114 419.763 338.567 418.74 338.346 417.626C338.124 416.513 338.238 415.359 338.672 414.31C339.107 413.261 339.842 412.365 340.786 411.734C341.73 411.103 342.84 410.767 343.975 410.767C345.498 410.767 346.958 411.371 348.034 412.448C349.111 413.524 349.715 414.984 349.715 416.507Z" stroke="#263238" stroke-linecap="round" stroke-linejoin="round"/>
<path d="M333.368 413.016C333.368 413.016 335.744 411.868 338.649 414.164" stroke="#263238" stroke-linecap="round" stroke-linejoin="round"/>
<path d="M349.716 416.506L360.783 416.931" stroke="#263238" stroke-linecap="round" stroke-linejoin="round"/>
<path d="M334.217 413.705C332.815 416.356 331.565 419.085 330.475 421.879C330.13 423.406 332.001 424.255 334.389 424.255C336.777 424.255 337.833 423.233 337.833 422.212" stroke="#263238" stroke-linecap="round" stroke-linejoin="round"/>
<path d="M333.701 407.23C333.468 407.228 333.24 407.169 333.035 407.058C332.143 406.473 331.108 406.143 330.042 406.103C328.976 406.062 327.919 406.313 326.985 406.829C326.834 406.93 326.665 407 326.487 407.036C326.309 407.071 326.126 407.071 325.948 407.036C325.588 406.965 325.272 406.754 325.068 406.45C324.864 406.145 324.789 405.772 324.86 405.413C324.931 405.053 325.142 404.737 325.447 404.533C326.802 403.731 328.352 403.317 329.927 403.336C331.502 403.354 333.041 403.804 334.378 404.636C334.644 404.784 334.852 405.015 334.971 405.295C335.09 405.574 335.113 405.886 335.035 406.179C334.957 406.473 334.784 406.732 334.542 406.917C334.301 407.101 334.005 407.199 333.701 407.196V407.23Z" fill="#46B2C8"/>
<path d="M350.393 412.855C350.169 412.86 349.948 412.81 349.748 412.71C349.548 412.61 349.375 412.463 349.245 412.281C348.442 411.039 347.272 410.077 345.899 409.528C344.525 408.979 343.014 408.87 341.576 409.216C341.235 409.31 340.871 409.267 340.56 409.097C340.25 408.928 340.018 408.644 339.912 408.306C339.806 407.969 339.836 407.603 339.994 407.287C340.153 406.971 340.427 406.728 340.761 406.61C342.75 406.087 344.852 406.2 346.773 406.933C348.694 407.666 350.338 408.982 351.472 410.697C351.619 410.904 351.706 411.148 351.722 411.401C351.739 411.654 351.685 411.907 351.565 412.131C351.446 412.355 351.267 412.542 351.048 412.67C350.828 412.798 350.578 412.862 350.324 412.855H350.393Z" fill="#46B2C8"/>
<path d="M328.167 415.909C328.776 415.909 329.27 414.994 329.27 413.866C329.27 412.737 328.776 411.822 328.167 411.822C327.559 411.822 327.065 412.737 327.065 413.866C327.065 414.994 327.559 415.909 328.167 415.909Z" fill="#263238" stroke="#263238" stroke-linecap="round" stroke-linejoin="round"/>
<path d="M344.263 416.426C344.263 417.574 343.769 418.47 343.115 418.47C342.46 418.47 341.967 417.551 341.967 416.426C341.967 415.301 342.46 414.383 343.115 414.383C343.769 414.383 344.263 415.301 344.263 416.426Z" fill="#263238" stroke="#263238" stroke-linecap="round" stroke-linejoin="round"/>
<path d="M131.37 259.291C142.305 245.371 139.884 225.221 125.964 214.286C112.043 203.352 91.8934 205.772 80.9585 219.693C70.0236 233.613 72.4442 253.763 86.3649 264.698C100.286 275.633 120.435 273.212 131.37 259.291Z" stroke="#263238" stroke-miterlimit="10"/>
<path d="M93.8604 247.968C93.8604 247.968 115.5 249.116 122.951 229.232" stroke="#263238" stroke-width="2" stroke-linecap="round" stroke-linejoin="round"/>
<path d="M111.356 223.791C112.504 225.41 112.768 227.166 111.987 227.717C111.207 228.268 109.691 227.396 108.543 225.777C107.395 224.159 107.131 222.414 107.912 221.863C108.693 221.312 110.208 222.184 111.356 223.791Z" fill="#263238"/>
<path d="M97.3278 232.768C98.4758 234.376 98.7513 236.132 97.9592 236.683C97.1671 237.234 95.6632 236.373 94.5152 234.754C93.3672 233.136 93.1031 231.379 93.8838 230.84C94.6644 230.3 96.1912 231.15 97.3278 232.768Z" fill="#263238"/>
<path d="M471.346 230.266C471.535 234.747 473.05 239.072 475.697 242.693C478.344 246.314 482.005 249.069 486.217 250.61C490.43 252.15 495.004 252.408 499.363 251.349C503.722 250.291 507.669 247.964 510.705 244.663C513.742 241.361 515.732 237.234 516.423 232.802C517.114 228.371 516.477 223.833 514.59 219.764C512.703 215.695 509.653 212.276 505.824 209.94C501.994 207.604 497.559 206.456 493.077 206.64C490.098 206.763 487.173 207.471 484.468 208.725C481.763 209.979 479.332 211.754 477.314 213.948C475.296 216.143 473.73 218.713 472.706 221.513C471.681 224.313 471.219 227.287 471.346 230.266V230.266Z" stroke="#263238" stroke-miterlimit="10"/>
<path d="M504.581 229.221C504.581 229.221 492.504 238.68 480.094 230.197" stroke="#263238" stroke-width="2" stroke-linecap="round" stroke-linejoin="round"/>
<path d="M485.868 224.859C486.546 224.859 487.096 223.728 487.096 222.333C487.096 220.938 486.546 219.808 485.868 219.808C485.19 219.808 484.64 220.938 484.64 222.333C484.64 223.728 485.19 224.859 485.868 224.859Z" fill="#263238"/>
<path d="M496.396 221.839C496.396 223.24 496.947 224.365 497.624 224.365C498.301 224.365 498.852 223.217 498.852 221.839C498.852 220.461 498.301 219.313 497.624 219.313C496.947 219.313 496.396 220.416 496.396 221.839Z" fill="#263238"/>
<path d="M147.97 495.794C159.648 483.785 159.38 464.583 147.371 452.905C135.362 441.227 116.16 441.495 104.482 453.504C92.8039 465.513 93.072 484.715 105.081 496.393C117.09 508.071 136.292 507.803 147.97 495.794Z" stroke="#263238" stroke-miterlimit="10"/>
<path d="M109.141 484.537C109.141 484.537 128.657 473.413 147.449 470.761C147.449 470.761 152.845 488.532 134.821 495.42C119.3 501.332 109.141 484.537 109.141 484.537Z" stroke="#263238" stroke-miterlimit="10"/>
<path d="M112.987 475.973C112.66 475.971 112.34 475.88 112.061 475.71C111.782 475.54 111.554 475.298 111.402 475.008L106.983 466.456C106.797 466.041 106.778 465.571 106.928 465.142C107.079 464.713 107.387 464.358 107.791 464.15C108.195 463.941 108.663 463.895 109.1 464.021C109.536 464.146 109.908 464.434 110.14 464.826L114.559 473.378C114.777 473.797 114.819 474.285 114.677 474.735C114.535 475.185 114.22 475.56 113.802 475.777C113.548 475.903 113.269 475.969 112.987 475.973Z" fill="#263238"/>
<path d="M136.612 467.42C136.204 467.419 135.808 467.278 135.491 467.021C135.174 466.765 134.954 466.407 134.867 466.008L132.812 456.285C132.781 455.857 132.905 455.432 133.162 455.089C133.419 454.745 133.791 454.506 134.21 454.415C134.629 454.325 135.067 454.388 135.443 454.594C135.819 454.801 136.108 455.136 136.256 455.538L138.311 465.273C138.41 465.735 138.322 466.216 138.066 466.612C137.809 467.008 137.406 467.287 136.945 467.386L136.612 467.42Z" fill="#263238"/>
<path d="M140.056 492.744C138.415 488.715 132.709 487.073 127.13 489.082C124.304 490.037 121.898 491.945 120.322 494.478" stroke="#263238" stroke-miterlimit="10"/>
<path d="M478.716 340.015C477.528 343.306 477.343 346.875 478.183 350.271C479.023 353.668 480.852 356.739 483.437 359.096C486.023 361.453 489.249 362.991 492.708 363.514C496.168 364.038 499.705 363.524 502.872 362.037C506.039 360.551 508.695 358.159 510.502 355.163C512.31 352.167 513.189 348.703 513.028 345.208C512.866 341.713 511.673 338.344 509.597 335.528C507.521 332.711 504.657 330.573 501.366 329.384C499.181 328.595 496.862 328.244 494.541 328.351C492.22 328.458 489.943 329.021 487.84 330.008C485.736 330.995 483.848 332.387 482.283 334.104C480.717 335.821 479.505 337.83 478.716 340.015V340.015Z" stroke="#263238" stroke-miterlimit="10"/>
<path d="M505.338 351.816C505.338 351.816 493.962 345.319 482.998 343.78C482.998 343.78 479.853 354.112 490.334 358.165C499.38 361.62 505.338 351.816 505.338 351.816Z" stroke="#263238" stroke-miterlimit="10"/>
<path d="M503.088 346.811C503.279 346.814 503.467 346.764 503.631 346.667C503.795 346.57 503.929 346.429 504.018 346.26L506.59 341.266C506.715 341.023 506.74 340.739 506.659 340.477C506.577 340.215 506.396 339.995 506.153 339.866C505.908 339.744 505.624 339.722 505.362 339.806C505.101 339.89 504.882 340.072 504.753 340.314L502.17 345.307C502.045 345.551 502.023 345.834 502.106 346.095C502.19 346.355 502.374 346.571 502.618 346.697C502.762 346.773 502.924 346.813 503.088 346.811Z" fill="#263238"/>
<path d="M489.335 341.829C489.573 341.828 489.803 341.746 489.987 341.595C490.172 341.445 490.298 341.235 490.346 341.002L491.551 335.331C491.585 335.196 491.592 335.056 491.57 334.918C491.549 334.78 491.5 334.649 491.426 334.53C491.353 334.412 491.256 334.31 491.142 334.23C491.027 334.151 490.898 334.095 490.762 334.066C490.626 334.037 490.485 334.037 490.348 334.064C490.212 334.091 490.082 334.145 489.967 334.224C489.852 334.302 489.754 334.403 489.679 334.52C489.604 334.638 489.554 334.769 489.531 334.906L488.325 340.578C488.296 340.71 488.294 340.847 488.318 340.981C488.343 341.114 488.393 341.242 488.467 341.356C488.54 341.47 488.636 341.568 488.747 341.646C488.859 341.723 488.985 341.777 489.117 341.806L489.335 341.829Z" fill="#263238"/>
<path d="M487.28 356.592C488.233 354.296 491.574 353.286 494.823 354.468C496.473 355.017 497.875 356.131 498.783 357.614" stroke="#263238" stroke-miterlimit="10"/>
<path d="M458.883 330.05C462.969 315.208 454.249 299.865 439.407 295.779C424.565 291.694 409.221 300.414 405.136 315.256C401.05 330.098 409.77 345.442 424.612 349.527C439.454 353.613 454.798 344.893 458.883 330.05Z" stroke="#263238" stroke-miterlimit="10"/>
<path d="M410.434 317.915C410.18 317.978 409.913 317.947 409.681 317.828C409.449 317.709 409.268 317.51 409.172 317.268C409.075 317.026 409.069 316.757 409.156 316.511C409.242 316.264 409.415 316.058 409.641 315.929L416.587 312.187L411.937 312.026C411.651 312.015 411.381 311.892 411.186 311.682C410.991 311.472 410.888 311.193 410.898 310.907C410.909 310.621 411.033 310.35 411.243 310.156C411.453 309.961 411.732 309.857 412.018 309.868L420.639 310.166C420.873 310.186 421.095 310.277 421.276 310.427C421.457 310.577 421.587 310.778 421.65 311.004C421.682 311.228 421.649 311.456 421.553 311.66C421.457 311.864 421.303 312.035 421.11 312.152L410.663 317.778L410.434 317.915Z" fill="#263238"/>
<path d="M447.594 307.664C447.51 307.675 447.425 307.675 447.342 307.664L435.999 308.031C435.761 308.04 435.526 307.971 435.331 307.832C435.137 307.694 434.993 307.495 434.924 307.267C434.854 307.039 434.862 306.794 434.947 306.571C435.031 306.347 435.188 306.158 435.391 306.033L443.048 301.258C443.296 301.121 443.585 301.081 443.86 301.145C444.135 301.208 444.378 301.371 444.54 301.602C444.69 301.844 444.738 302.136 444.673 302.414C444.609 302.691 444.437 302.932 444.196 303.083L439.925 305.746L447.273 305.517C447.532 305.514 447.784 305.606 447.982 305.774C448.18 305.943 448.311 306.177 448.35 306.433C448.389 306.69 448.334 306.953 448.195 307.172C448.056 307.392 447.843 307.554 447.594 307.629V307.664Z" fill="#263238"/>
<path d="M409.974 322.76C415.886 333.655 426.379 339.865 436.033 337.202C445.688 334.539 451.531 323.851 451.038 311.464L447.307 311.854C435.373 313.079 423.73 316.304 412.867 321.394L409.974 322.76Z" stroke="#263238" stroke-miterlimit="10"/>
<path d="M422.866 335.733C422.774 335.19 422.728 334.641 422.729 334.091C422.729 327.777 428.331 322.611 435.242 322.611C437.53 322.565 439.788 323.143 441.774 324.281C443.759 325.42 445.398 327.076 446.515 329.074" stroke="#263238" stroke-miterlimit="10"/>
<path d="M152.618 342.871C163.295 338.877 168.713 326.983 164.719 316.306C160.724 305.629 148.831 300.211 138.154 304.205C127.477 308.2 122.059 320.093 126.053 330.77C130.047 341.447 141.941 346.865 152.618 342.871Z" stroke="#263238" stroke-miterlimit="10"/>
<path d="M161.397 320.017C161.57 320.064 161.754 320.051 161.919 319.98C162.084 319.909 162.219 319.784 162.304 319.626C162.356 319.535 162.389 319.434 162.401 319.329C162.413 319.225 162.403 319.119 162.373 319.018C162.343 318.917 162.293 318.824 162.226 318.743C162.159 318.662 162.076 318.595 161.983 318.547L156.839 315.769L160.283 315.654C160.494 315.642 160.691 315.55 160.834 315.396C160.978 315.242 161.056 315.038 161.053 314.828C161.05 314.722 161.026 314.619 160.983 314.523C160.939 314.428 160.877 314.341 160.8 314.27C160.724 314.198 160.633 314.143 160.535 314.106C160.436 314.07 160.331 314.054 160.226 314.058L153.843 314.277C153.67 314.287 153.504 314.353 153.371 314.465C153.239 314.578 153.146 314.73 153.107 314.899C153.068 315.069 153.086 315.246 153.156 315.405C153.227 315.564 153.347 315.696 153.499 315.78L161.225 319.948L161.397 320.017Z" fill="#263238"/>
<path d="M133.891 312.451H134.075L142.466 312.715C142.643 312.724 142.817 312.673 142.961 312.572C143.105 312.47 143.211 312.323 143.263 312.155C143.314 311.986 143.308 311.805 143.245 311.64C143.182 311.476 143.065 311.337 142.914 311.246L137.243 307.71C137.153 307.645 137.05 307.601 136.942 307.579C136.833 307.556 136.721 307.557 136.613 307.581C136.505 307.605 136.403 307.651 136.314 307.717C136.224 307.782 136.15 307.866 136.095 307.962C136.031 308.052 135.986 308.155 135.964 308.264C135.942 308.372 135.943 308.484 135.966 308.592C135.99 308.701 136.036 308.802 136.102 308.892C136.168 308.981 136.251 309.055 136.348 309.11L139.505 311.073L134.063 310.901C133.959 310.898 133.855 310.916 133.758 310.953C133.661 310.99 133.572 311.045 133.496 311.117C133.42 311.188 133.36 311.274 133.317 311.369C133.274 311.464 133.251 311.566 133.248 311.67C133.25 311.854 133.314 312.032 133.431 312.174C133.548 312.316 133.711 312.414 133.891 312.451Z" fill="#263238"/>
<path d="M161.742 323.61C157.368 331.646 149.596 336.238 142.444 334.298C135.292 332.358 130.964 324.414 131.331 315.241L134.098 315.528C142.925 316.438 151.536 318.825 159.572 322.588L161.742 323.61Z" stroke="#263238" stroke-miterlimit="10"/>
<path d="M152.202 333.207C152.262 332.805 152.292 332.398 152.294 331.991C152.294 327.318 148.15 323.53 143.03 323.53C141.337 323.5 139.668 323.928 138.199 324.768C136.73 325.609 135.515 326.831 134.684 328.305" stroke="#263238" stroke-miterlimit="10"/>
<path d="M482.596 125.088C484.968 107.545 472.67 91.4018 455.128 89.03C437.585 86.6582 421.442 98.9562 419.07 116.499C416.698 134.041 428.996 150.184 446.539 152.556C464.081 154.928 480.224 142.63 482.596 125.088Z" stroke="#263238" stroke-miterlimit="10"/>
<path d="M437.629 110.908C437.629 112.883 438.398 114.49 439.362 114.49C440.327 114.49 441.084 112.883 441.084 110.908C441.084 108.934 440.315 107.338 439.362 107.338C438.41 107.338 437.629 108.934 437.629 110.908Z" fill="#263238"/>
<path d="M454.229 110.208C454.229 112.183 454.999 113.778 455.951 113.778C456.904 113.778 457.685 112.183 457.685 110.208C457.685 108.233 456.904 106.638 455.951 106.638C454.999 106.638 454.229 108.245 454.229 110.208Z" fill="#263238"/>
<path d="M435.987 100.76L443.828 109.243" stroke="#263238" stroke-width="2" stroke-linecap="round" stroke-linejoin="round"/>
<path d="M456.962 100.129L449.764 109.026" stroke="#263238" stroke-width="2" stroke-linecap="round" stroke-linejoin="round"/>
<path d="M435.356 128.312C435.356 128.312 445.688 116.017 459.935 126.016" stroke="#263238" stroke-width="2" stroke-linecap="round" stroke-linejoin="round"/>
<path d="M79.2838 397.113C91.7233 396.989 101.707 386.804 101.582 374.364C101.458 361.925 91.2729 351.941 78.8333 352.066C66.3938 352.19 56.4104 362.375 56.5348 374.815C56.6592 387.254 66.8443 397.238 79.2838 397.113Z" stroke="#263238" stroke-miterlimit="10"/>
<path d="M79.2928 363.537C80.2457 364.559 80.613 365.753 80.1194 366.212C79.6257 366.671 78.4662 366.212 77.5134 365.19C76.5606 364.169 76.2047 362.986 76.6983 362.527C77.192 362.068 78.3515 362.527 79.2928 363.537Z" fill="#263238"/>
<path d="M70.4188 371.125C71.3716 372.147 71.739 373.341 71.2453 373.8C70.7517 374.259 69.5922 373.8 68.6394 372.79C67.6865 371.78 67.3307 370.574 67.8243 370.115C68.3179 369.656 69.4774 370.115 70.4188 371.125Z" fill="#263238"/>
<path d="M75.2861 357.533L75.2976 365.65" stroke="#263238" stroke-width="2" stroke-linecap="round" stroke-linejoin="round"/>
<path d="M64.1846 367.245L72.1517 368.382" stroke="#263238" stroke-width="2" stroke-linecap="round" stroke-linejoin="round"/>
<path d="M88.7975 371.401C88.7975 371.401 77.57 370.046 75.0215 381.974" stroke="#263238" stroke-width="2" stroke-linecap="round" stroke-linejoin="round"/>
<path d="M169.663 57.6982C173.767 61.0235 176.93 65.3625 178.842 70.286C180.753 75.2095 181.346 80.5468 180.561 85.7697C179.776 90.9925 177.641 95.9199 174.367 100.064C171.093 104.208 166.793 107.426 161.894 109.398C156.995 111.371 151.665 112.029 146.433 111.309C141.201 110.59 136.247 108.516 132.063 105.293C127.878 102.071 124.607 97.812 122.574 92.9374C120.541 88.0629 119.816 82.742 120.471 77.5012" stroke="#263238" stroke-miterlimit="10"/>
<path d="M140.757 52.5904C142.255 52.0886 143.791 51.7048 145.349 51.4424" stroke="#263238" stroke-miterlimit="10"/>
<path d="M133.489 91.2203C133.489 91.2203 153.005 80.0847 171.787 77.4443C171.787 77.4443 177.182 95.2269 159.216 102.103C143.638 108.004 133.489 91.2203 133.489 91.2203Z" stroke="#263238" stroke-miterlimit="10"/>
<path d="M164.439 99.4171C162.809 95.3877 157.092 93.746 151.513 95.755C148.689 96.7155 146.287 98.6267 144.717 101.162" stroke="#263238" stroke-miterlimit="10"/>
<path d="M143.064 55.425C142.039 53.724 140.491 52.4008 138.651 51.6539C136.811 50.907 134.778 50.7766 132.858 51.2822C130.938 51.7878 129.233 52.9022 127.999 54.4584C126.766 56.0146 126.07 57.9287 126.016 59.9137C124.241 59.0247 122.226 58.7346 120.272 59.0871C118.319 59.4395 116.532 60.4154 115.18 61.8686C113.827 63.3218 112.982 65.174 112.771 67.1478C112.56 69.1216 112.994 71.1108 114.008 72.8172C118.313 80.0037 138.69 81.2435 138.69 81.2435C138.69 81.2435 148.563 64.5975 143.064 55.425Z" stroke="#263238" stroke-miterlimit="10"/>
<path d="M172.453 51.947C172.629 50.3513 172.282 48.7416 171.465 47.3598C170.648 45.9779 169.404 44.8986 167.921 44.2839C166.438 43.6692 164.796 43.5523 163.241 43.9509C161.685 44.3494 160.302 45.2418 159.297 46.494C158.598 45.0464 157.447 43.8655 156.018 43.1298C154.589 42.394 152.959 42.1433 151.375 42.4156C149.791 42.6878 148.338 43.4682 147.236 44.6389C146.135 45.8096 145.444 47.307 145.269 48.9048C144.522 55.6206 157.001 66.3889 157.001 66.3889C157.001 66.3889 171.489 60.5341 172.453 51.947Z" stroke="#263238" stroke-miterlimit="10"/>
<path d="M427.481 432.636C424.35 435.167 421.936 438.473 420.476 442.224C419.015 445.976 418.561 450.044 419.157 454.026C419.753 458.008 421.379 461.764 423.873 464.924C426.368 468.084 429.645 470.538 433.379 472.041C437.114 473.545 441.176 474.047 445.165 473.498C449.153 472.949 452.928 471.367 456.117 468.91C459.306 466.452 461.798 463.205 463.345 459.488C464.893 455.771 465.443 451.715 464.94 447.72" stroke="#263238" stroke-miterlimit="10"/>
<path d="M449.488 428.744C448.343 428.349 447.169 428.046 445.976 427.837" stroke="#263238" stroke-miterlimit="10"/>
<path d="M455.033 458.167C455.033 458.167 440.178 449.683 425.851 447.64C425.851 447.64 421.741 461.175 435.436 466.409C447.295 470.956 455.033 458.167 455.033 458.167Z" stroke="#263238" stroke-miterlimit="10"/>
<path d="M431.453 464.412C432.693 461.347 437.044 460.096 441.291 461.623C443.446 462.349 445.28 463.802 446.48 465.732" stroke="#263238" stroke-miterlimit="10"/>
<path d="M447.72 430.902C448.5 429.602 449.681 428.592 451.085 428.022C452.49 427.452 454.041 427.354 455.506 427.742C456.971 428.131 458.27 428.985 459.208 430.176C460.145 431.367 460.67 432.831 460.704 434.346C462.056 433.65 463.599 433.415 465.098 433.676C466.596 433.937 467.969 434.679 469.008 435.79C470.046 436.901 470.694 438.321 470.853 439.834C471.012 441.347 470.673 442.87 469.888 444.173C466.604 449.649 451.083 450.59 451.083 450.59C451.083 450.59 443.552 437.893 447.72 430.902Z" stroke="#263238" stroke-miterlimit="10"/>
<path d="M425.358 428.262C425.217 427.045 425.477 425.816 426.097 424.76C426.717 423.704 427.665 422.879 428.796 422.409C429.927 421.94 431.18 421.851 432.366 422.157C433.552 422.463 434.606 423.147 435.368 424.106C435.904 423.008 436.782 422.113 437.87 421.556C438.957 420.998 440.196 420.809 441.401 421.016C442.605 421.223 443.71 421.815 444.55 422.704C445.389 423.592 445.917 424.728 446.056 425.943C446.63 431.063 437.113 439.259 437.113 439.259C437.113 439.259 426.081 434.794 425.358 428.262Z" stroke="#263238" stroke-miterlimit="10"/>
</svg>
