<svg width="607" height="631" viewBox="0 0 607 631" fill="none" xmlns="http://www.w3.org/2000/svg">
<path d="M163.827 135.21C163.379 135.211 162.949 135.037 162.627 134.726C162.305 134.416 162.116 133.992 162.1 133.545V112.79C162.1 112.332 162.282 111.892 162.605 111.568C162.929 111.244 163.369 111.062 163.827 111.062C164.285 111.062 164.724 111.244 165.048 111.568C165.372 111.892 165.554 112.332 165.554 112.79V133.545C165.538 133.992 165.349 134.416 165.027 134.726C164.704 135.037 164.274 135.211 163.827 135.21Z" fill="white"/>
<path d="M174.172 124.862H153.478C153.238 124.885 152.997 124.858 152.769 124.781C152.541 124.705 152.331 124.582 152.153 124.421C151.975 124.259 151.833 124.061 151.735 123.841C151.638 123.621 151.588 123.384 151.588 123.143C151.588 122.903 151.638 122.665 151.735 122.445C151.833 122.225 151.975 122.027 152.153 121.866C152.331 121.704 152.541 121.581 152.769 121.505C152.997 121.429 153.238 121.401 153.478 121.424H174.172C174.411 121.401 174.653 121.429 174.881 121.505C175.109 121.581 175.319 121.704 175.497 121.866C175.675 122.027 175.817 122.225 175.914 122.445C176.011 122.665 176.062 122.903 176.062 123.143C176.062 123.384 176.011 123.621 175.914 123.841C175.817 124.061 175.675 124.259 175.497 124.421C175.319 124.582 175.109 124.705 174.881 124.781C174.653 124.858 174.411 124.885 174.172 124.862Z" fill="white"/>
<path d="M533.967 382.361C533.509 382.361 533.07 382.179 532.746 381.855C532.422 381.531 532.24 381.092 532.24 380.634V364.536C532.24 364.078 532.422 363.638 532.746 363.314C533.07 362.991 533.509 362.809 533.967 362.809C534.425 362.809 534.865 362.991 535.188 363.314C535.512 363.638 535.694 364.078 535.694 364.536V380.634C535.694 381.092 535.512 381.531 535.188 381.855C534.865 382.179 534.425 382.361 533.967 382.361Z" fill="white"/>
<path d="M542.017 374.312H525.918C525.46 374.312 525.021 374.13 524.697 373.806C524.373 373.482 524.191 373.042 524.191 372.584C524.191 372.126 524.373 371.687 524.697 371.363C525.021 371.039 525.46 370.857 525.918 370.857H542.017C542.475 370.857 542.914 371.039 543.238 371.363C543.562 371.687 543.744 372.126 543.744 372.584C543.744 373.042 543.562 373.482 543.238 373.806C542.914 374.13 542.475 374.312 542.017 374.312Z" fill="white"/>
<path d="M59.8638 399.602C59.4057 399.602 58.9664 399.42 58.6426 399.096C58.3187 398.772 58.1367 398.333 58.1367 397.875V387.528C58.1367 387.07 58.3187 386.63 58.6426 386.307C58.9664 385.983 59.4057 385.801 59.8638 385.801C60.3218 385.801 60.7611 385.983 61.085 386.307C61.4089 386.63 61.5908 387.07 61.5908 387.528V397.875C61.5908 398.333 61.4089 398.772 61.085 399.096C60.7611 399.42 60.3218 399.602 59.8638 399.602Z" fill="white"/>
<path d="M64.9683 394.419H54.6215C54.382 394.442 54.1404 394.414 53.9123 394.338C53.6841 394.262 53.4743 394.139 53.2963 393.977C53.1184 393.815 52.9762 393.618 52.879 393.398C52.7817 393.178 52.7314 392.94 52.7314 392.7C52.7314 392.459 52.7817 392.221 52.879 392.001C52.9762 391.781 53.1184 391.584 53.2963 391.422C53.4743 391.26 53.6841 391.137 53.9123 391.061C54.1404 390.985 54.382 390.958 54.6215 390.98H64.9683C65.2078 390.958 65.4493 390.985 65.6775 391.061C65.9057 391.137 66.1155 391.26 66.2935 391.422C66.4714 391.584 66.6136 391.781 66.7108 392.001C66.8081 392.221 66.8584 392.459 66.8584 392.7C66.8584 392.94 66.8081 393.178 66.7108 393.398C66.6136 393.618 66.4714 393.815 66.2935 393.977C66.1155 394.139 65.9057 394.262 65.6775 394.338C65.4493 394.414 65.2078 394.442 64.9683 394.419Z" fill="white"/>
<path d="M101.174 153.034C100.719 153.03 100.284 152.846 99.9632 152.523C99.6426 152.2 99.4628 151.763 99.4628 151.307V140.96C99.4401 140.721 99.4677 140.479 99.5437 140.251C99.6198 140.023 99.7427 139.813 99.9046 139.635C100.066 139.457 100.264 139.315 100.484 139.218C100.704 139.121 100.942 139.07 101.182 139.07C101.423 139.07 101.661 139.121 101.881 139.218C102.101 139.315 102.298 139.457 102.46 139.635C102.622 139.813 102.744 140.023 102.821 140.251C102.897 140.479 102.924 140.721 102.901 140.96V151.307C102.901 151.765 102.719 152.205 102.396 152.528C102.072 152.852 101.632 153.034 101.174 153.034Z" fill="white"/>
<path d="M106.355 147.854H96.0083C95.5503 147.854 95.111 147.673 94.7871 147.349C94.4632 147.025 94.2812 146.585 94.2812 146.127C94.2812 145.669 94.4632 145.23 94.7871 144.906C95.111 144.582 95.5503 144.4 96.0083 144.4H106.355C106.813 144.4 107.252 144.582 107.576 144.906C107.9 145.23 108.082 145.669 108.082 146.127C108.082 146.585 107.9 147.025 107.576 147.349C107.252 147.673 106.813 147.854 106.355 147.854Z" fill="white"/>
<path d="M366.135 436.378C365.68 436.374 365.245 436.19 364.924 435.867C364.604 435.543 364.424 435.106 364.424 434.651V424.304C364.464 423.876 364.663 423.479 364.981 423.19C365.299 422.901 365.713 422.74 366.143 422.74C366.573 422.74 366.987 422.901 367.305 423.19C367.623 423.479 367.822 423.876 367.862 424.304V434.651C367.862 435.109 367.681 435.548 367.357 435.872C367.033 436.196 366.593 436.378 366.135 436.378Z" fill="white"/>
<path d="M371.347 431.149H361C360.542 431.149 360.103 430.967 359.779 430.644C359.455 430.32 359.273 429.88 359.273 429.422C359.273 428.964 359.455 428.525 359.779 428.201C360.103 427.877 360.542 427.695 361 427.695H371.347C371.805 427.695 372.245 427.877 372.568 428.201C372.892 428.525 373.074 428.964 373.074 429.422C373.074 429.88 372.892 430.32 372.568 430.644C372.245 430.967 371.805 431.149 371.347 431.149Z" fill="white"/>
<path d="M523.621 209.935C522.371 209.935 521.148 209.565 520.109 208.87C519.069 208.175 518.259 207.188 517.78 206.033C517.302 204.877 517.176 203.606 517.42 202.38C517.664 201.153 518.266 200.027 519.151 199.143C520.035 198.259 521.161 197.656 522.388 197.412C523.614 197.169 524.885 197.294 526.04 197.772C527.196 198.251 528.183 199.061 528.878 200.101C529.572 201.14 529.943 202.363 529.943 203.613C529.939 205.289 529.272 206.894 528.087 208.079C526.902 209.264 525.297 209.931 523.621 209.935ZM523.621 200.683C523.051 200.683 522.493 200.853 522.019 201.169C521.545 201.486 521.175 201.937 520.957 202.463C520.739 202.99 520.682 203.57 520.793 204.13C520.904 204.689 521.179 205.203 521.582 205.606C521.985 206.009 522.499 206.284 523.058 206.395C523.618 206.506 524.198 206.449 524.724 206.231C525.251 206.013 525.702 205.643 526.019 205.169C526.335 204.695 526.505 204.137 526.505 203.567C526.492 202.81 526.183 202.089 525.644 201.558C525.104 201.027 524.378 200.73 523.621 200.73V200.683Z" fill="white"/>
<path d="M389.128 129.458C387.423 129.458 385.756 128.953 384.339 128.006C382.921 127.058 381.816 125.712 381.164 124.137C380.512 122.562 380.341 120.829 380.673 119.157C381.006 117.485 381.827 115.949 383.032 114.743C384.238 113.538 385.774 112.717 387.446 112.384C389.118 112.052 390.851 112.222 392.426 112.875C394.001 113.527 395.348 114.632 396.295 116.05C397.242 117.467 397.747 119.134 397.747 120.839C397.747 123.125 396.839 125.317 395.223 126.934C393.606 128.55 391.414 129.458 389.128 129.458ZM389.128 115.673C388.102 115.673 387.1 115.977 386.248 116.547C385.395 117.117 384.731 117.927 384.339 118.875C383.948 119.822 383.846 120.865 384.047 121.87C384.248 122.876 384.743 123.799 385.469 124.523C386.196 125.247 387.12 125.739 388.126 125.937C389.132 126.136 390.175 126.031 391.121 125.636C392.067 125.242 392.876 124.575 393.443 123.721C394.01 122.867 394.312 121.864 394.309 120.839C394.309 120.159 394.175 119.486 393.914 118.858C393.653 118.23 393.272 117.66 392.79 117.18C392.309 116.7 391.738 116.32 391.109 116.062C390.481 115.803 389.807 115.671 389.128 115.673Z" fill="white"/>
<path d="M239.692 412.245C237.987 412.245 236.321 411.74 234.903 410.793C233.486 409.846 232.381 408.499 231.728 406.924C231.076 405.349 230.905 403.616 231.238 401.944C231.57 400.272 232.391 398.736 233.597 397.531C234.802 396.325 236.338 395.504 238.01 395.171C239.682 394.839 241.416 395.01 242.991 395.662C244.566 396.314 245.912 397.419 246.859 398.837C247.806 400.254 248.312 401.921 248.312 403.626C248.308 405.91 247.398 408.101 245.783 409.716C244.167 411.332 241.977 412.241 239.692 412.245ZM239.692 398.445C238.667 398.445 237.666 398.748 236.814 399.318C235.962 399.887 235.297 400.696 234.905 401.643C234.513 402.59 234.411 403.631 234.61 404.636C234.81 405.641 235.304 406.565 236.028 407.289C236.753 408.014 237.676 408.507 238.681 408.707C239.686 408.907 240.728 408.805 241.675 408.412C242.622 408.02 243.431 407.356 244 406.504C244.569 405.652 244.873 404.65 244.873 403.626C244.873 402.945 244.739 402.272 244.479 401.643C244.218 401.014 243.837 400.443 243.356 399.962C242.875 399.481 242.303 399.099 241.675 398.839C241.046 398.579 240.372 398.445 239.692 398.445Z" fill="white"/>
<g opacity="0.5">
<path d="M163.827 135.21C163.379 135.211 162.949 135.037 162.627 134.726C162.305 134.416 162.116 133.992 162.1 133.545V112.79C162.1 112.332 162.282 111.892 162.605 111.568C162.929 111.244 163.369 111.062 163.827 111.062C164.285 111.062 164.724 111.244 165.048 111.568C165.372 111.892 165.554 112.332 165.554 112.79V133.545C165.538 133.992 165.349 134.416 165.027 134.726C164.704 135.037 164.274 135.211 163.827 135.21Z" fill="white"/>
<path d="M174.174 124.864H153.48C153.24 124.887 152.999 124.859 152.771 124.783C152.542 124.707 152.333 124.584 152.155 124.423C151.977 124.261 151.835 124.063 151.737 123.843C151.64 123.623 151.59 123.386 151.59 123.145C151.59 122.904 151.64 122.667 151.737 122.447C151.835 122.227 151.977 122.029 152.155 121.867C152.333 121.706 152.542 121.583 152.771 121.507C152.999 121.431 153.24 121.403 153.48 121.426H174.174C174.413 121.403 174.655 121.431 174.883 121.507C175.111 121.583 175.321 121.706 175.499 121.867C175.677 122.029 175.819 122.227 175.916 122.447C176.013 122.667 176.064 122.904 176.064 123.145C176.064 123.386 176.013 123.623 175.916 123.843C175.819 124.063 175.677 124.261 175.499 124.423C175.321 124.584 175.111 124.707 174.883 124.783C174.655 124.859 174.413 124.887 174.174 124.864Z" fill="white"/>
<path d="M533.967 382.361C533.509 382.361 533.07 382.179 532.746 381.855C532.422 381.531 532.24 381.092 532.24 380.634V364.536C532.24 364.078 532.422 363.638 532.746 363.314C533.07 362.991 533.509 362.809 533.967 362.809C534.425 362.809 534.865 362.991 535.188 363.314C535.512 363.638 535.694 364.078 535.694 364.536V380.634C535.694 381.092 535.512 381.531 535.188 381.855C534.865 382.179 534.425 382.361 533.967 382.361Z" fill="white"/>
<path d="M542.017 374.313H525.918C525.46 374.313 525.021 374.131 524.697 373.808C524.373 373.484 524.191 373.044 524.191 372.586C524.191 372.128 524.373 371.689 524.697 371.365C525.021 371.041 525.46 370.859 525.918 370.859H542.017C542.475 370.859 542.914 371.041 543.238 371.365C543.562 371.689 543.744 372.128 543.744 372.586C543.744 373.044 543.562 373.484 543.238 373.808C542.914 374.131 542.475 374.313 542.017 374.313Z" fill="white"/>
<path d="M59.8647 399.602C59.4067 399.602 58.9674 399.42 58.6435 399.096C58.3197 398.772 58.1377 398.333 58.1377 397.875V387.528C58.1377 387.07 58.3197 386.63 58.6435 386.307C58.9674 385.983 59.4067 385.801 59.8647 385.801C60.3228 385.801 60.7621 385.983 61.0859 386.307C61.4098 386.63 61.5918 387.07 61.5918 387.528V397.875C61.5918 398.333 61.4098 398.772 61.0859 399.096C60.7621 399.42 60.3228 399.602 59.8647 399.602Z" fill="white"/>
<path d="M64.9683 394.421H54.6215C54.382 394.444 54.1404 394.416 53.9123 394.34C53.6841 394.264 53.4743 394.141 53.2963 393.979C53.1184 393.817 52.9762 393.62 52.879 393.4C52.7817 393.18 52.7314 392.942 52.7314 392.702C52.7314 392.461 52.7817 392.223 52.879 392.003C52.9762 391.783 53.1184 391.586 53.2963 391.424C53.4743 391.262 53.6841 391.139 53.9123 391.063C54.1404 390.987 54.382 390.96 54.6215 390.982H64.9683C65.2078 390.96 65.4493 390.987 65.6775 391.063C65.9057 391.139 66.1155 391.262 66.2935 391.424C66.4714 391.586 66.6136 391.783 66.7108 392.003C66.8081 392.223 66.8584 392.461 66.8584 392.702C66.8584 392.942 66.8081 393.18 66.7108 393.4C66.6136 393.62 66.4714 393.817 66.2935 393.979C66.1155 394.141 65.9057 394.264 65.6775 394.34C65.4493 394.416 65.2078 394.444 64.9683 394.421Z" fill="white"/>
<path d="M101.174 153.036C100.719 153.032 100.284 152.848 99.9632 152.525C99.6426 152.201 99.4628 151.765 99.4628 151.309V140.962C99.4401 140.723 99.4677 140.481 99.5437 140.253C99.6198 140.025 99.7427 139.815 99.9046 139.637C100.066 139.459 100.264 139.317 100.484 139.22C100.704 139.123 100.942 139.072 101.182 139.072C101.423 139.072 101.661 139.123 101.881 139.22C102.101 139.317 102.298 139.459 102.46 139.637C102.622 139.815 102.744 140.025 102.821 140.253C102.897 140.481 102.924 140.723 102.901 140.962V151.309C102.901 151.767 102.719 152.206 102.396 152.53C102.072 152.854 101.632 153.036 101.174 153.036Z" fill="white"/>
<path d="M106.355 147.854H96.0083C95.5503 147.854 95.111 147.673 94.7871 147.349C94.4632 147.025 94.2812 146.585 94.2812 146.127C94.2812 145.669 94.4632 145.23 94.7871 144.906C95.111 144.582 95.5503 144.4 96.0083 144.4H106.355C106.813 144.4 107.252 144.582 107.576 144.906C107.9 145.23 108.082 145.669 108.082 146.127C108.082 146.585 107.9 147.025 107.576 147.349C107.252 147.673 106.813 147.854 106.355 147.854Z" fill="white"/>
<path d="M366.135 436.378C365.68 436.374 365.245 436.19 364.924 435.867C364.604 435.543 364.424 435.106 364.424 434.651V424.304C364.464 423.876 364.663 423.479 364.981 423.19C365.299 422.901 365.713 422.74 366.143 422.74C366.573 422.74 366.987 422.901 367.305 423.19C367.623 423.479 367.822 423.876 367.862 424.304V434.651C367.862 435.109 367.681 435.548 367.357 435.872C367.033 436.196 366.593 436.378 366.135 436.378Z" fill="white"/>
<path d="M371.349 431.151H361.002C360.544 431.151 360.105 430.969 359.781 430.646C359.457 430.322 359.275 429.882 359.275 429.424C359.275 428.966 359.457 428.527 359.781 428.203C360.105 427.879 360.544 427.697 361.002 427.697H371.349C371.807 427.697 372.247 427.879 372.57 428.203C372.894 428.527 373.076 428.966 373.076 429.424C373.076 429.882 372.894 430.322 372.57 430.646C372.247 430.969 371.807 431.151 371.349 431.151Z" fill="white"/>
<path d="M523.621 209.935C522.371 209.935 521.148 209.565 520.109 208.87C519.069 208.175 518.259 207.188 517.78 206.033C517.302 204.877 517.176 203.606 517.42 202.38C517.664 201.153 518.266 200.027 519.151 199.143C520.035 198.259 521.161 197.656 522.388 197.412C523.614 197.169 524.885 197.294 526.04 197.772C527.196 198.251 528.183 199.061 528.878 200.101C529.572 201.14 529.943 202.363 529.943 203.613C529.939 205.289 529.272 206.894 528.087 208.079C526.902 209.264 525.297 209.931 523.621 209.935ZM523.621 200.683C523.051 200.683 522.493 200.853 522.019 201.169C521.545 201.486 521.175 201.937 520.957 202.463C520.739 202.99 520.682 203.57 520.793 204.13C520.904 204.689 521.179 205.203 521.582 205.606C521.985 206.009 522.499 206.284 523.058 206.395C523.618 206.506 524.198 206.449 524.724 206.231C525.251 206.013 525.702 205.643 526.019 205.169C526.335 204.695 526.505 204.137 526.505 203.567C526.492 202.81 526.183 202.089 525.644 201.558C525.104 201.027 524.378 200.73 523.621 200.73V200.683Z" fill="white"/>
<path d="M389.128 129.458C387.423 129.458 385.756 128.953 384.339 128.006C382.921 127.058 381.816 125.712 381.164 124.137C380.512 122.562 380.341 120.829 380.673 119.157C381.006 117.485 381.827 115.949 383.032 114.743C384.238 113.538 385.774 112.717 387.446 112.384C389.118 112.052 390.851 112.222 392.426 112.875C394.001 113.527 395.348 114.632 396.295 116.05C397.242 117.467 397.747 119.134 397.747 120.839C397.747 123.125 396.839 125.317 395.223 126.934C393.606 128.55 391.414 129.458 389.128 129.458ZM389.128 115.673C388.102 115.673 387.1 115.977 386.248 116.547C385.395 117.117 384.731 117.927 384.339 118.875C383.948 119.822 383.846 120.865 384.047 121.87C384.248 122.876 384.743 123.799 385.469 124.523C386.196 125.247 387.12 125.739 388.126 125.937C389.132 126.136 390.175 126.031 391.121 125.636C392.067 125.242 392.876 124.575 393.443 123.721C394.01 122.867 394.312 121.864 394.309 120.839C394.309 120.159 394.175 119.486 393.914 118.858C393.653 118.23 393.272 117.66 392.79 117.18C392.309 116.7 391.738 116.32 391.109 116.062C390.481 115.803 389.807 115.671 389.128 115.673Z" fill="white"/>
<path d="M239.692 412.245C237.987 412.245 236.321 411.74 234.903 410.793C233.486 409.846 232.381 408.499 231.728 406.924C231.076 405.349 230.905 403.616 231.238 401.944C231.57 400.272 232.391 398.736 233.597 397.531C234.802 396.325 236.338 395.504 238.01 395.171C239.682 394.839 241.416 395.01 242.991 395.662C244.566 396.314 245.912 397.419 246.859 398.837C247.806 400.254 248.312 401.921 248.312 403.626C248.308 405.91 247.398 408.101 245.783 409.716C244.167 411.332 241.977 412.241 239.692 412.245ZM239.692 398.445C238.667 398.445 237.666 398.748 236.814 399.318C235.962 399.887 235.297 400.696 234.905 401.643C234.513 402.59 234.411 403.631 234.61 404.636C234.81 405.641 235.304 406.565 236.028 407.289C236.753 408.014 237.676 408.507 238.681 408.707C239.686 408.907 240.728 408.805 241.675 408.412C242.622 408.02 243.431 407.356 244 406.504C244.569 405.652 244.873 404.65 244.873 403.626C244.873 402.945 244.739 402.272 244.479 401.643C244.218 401.014 243.837 400.443 243.356 399.962C242.875 399.481 242.303 399.099 241.675 398.839C241.046 398.579 240.372 398.445 239.692 398.445Z" fill="white"/>
</g>
<path d="M246.847 108.178L244.426 100.73L242.005 108.178H234.156L240.494 112.789L238.073 120.252L244.426 115.642L250.764 120.252L248.343 112.789L254.696 108.178H246.847Z" fill="white"/>
<path d="M273.03 108.178L270.594 100.73L268.173 108.178H260.324L266.677 112.789L264.256 120.252L270.594 115.642L276.947 120.252L274.526 112.789L280.864 108.178H273.03Z" fill="white"/>
<path d="M299.198 108.178L296.778 100.73L294.357 108.178H286.508L292.845 112.789L290.425 120.252L296.778 115.642L303.115 120.252L300.694 112.789L307.047 108.178H299.198Z" fill="white"/>
<path d="M325.38 108.178L322.959 100.73L320.523 108.178H312.689L319.027 112.789L316.606 120.252L322.959 115.642L329.297 120.252L326.876 112.789L333.213 108.178H325.38Z" fill="white"/>
<path d="M359.397 108.178H351.548L349.127 100.73L346.706 108.178H338.857L345.21 112.789L342.79 120.252L349.127 115.642L355.48 120.252L353.044 112.789L359.397 108.178Z" fill="white"/>
<g opacity="0.5">
<path d="M246.847 108.178L244.426 100.73L242.005 108.178H234.156L240.494 112.789L238.073 120.252L244.426 115.642L250.764 120.252L248.343 112.789L254.696 108.178H246.847Z" fill="white"/>
<path d="M273.03 108.178L270.594 100.73L268.173 108.178H260.324L266.677 112.789L264.256 120.252L270.594 115.642L276.947 120.252L274.526 112.789L280.864 108.178H273.03Z" fill="white"/>
<path d="M299.198 108.178L296.778 100.73L294.357 108.178H286.508L292.845 112.789L290.425 120.252L296.778 115.642L303.115 120.252L300.694 112.789L307.047 108.178H299.198Z" fill="white"/>
<path d="M325.38 108.178L322.959 100.73L320.523 108.178H312.689L319.027 112.789L316.606 120.252L322.959 115.642L329.297 120.252L326.876 112.789L333.213 108.178H325.38Z" fill="white"/>
<path d="M359.397 108.178H351.548L349.127 100.73L346.706 108.178H338.857L345.21 112.789L342.79 120.252L349.127 115.642L355.48 120.252L353.044 112.789L359.397 108.178Z" fill="white"/>
</g>
<path d="M584.144 417.873C577.56 413.355 567.706 412.599 567.706 412.599C577.183 411.374 586.811 412.147 595.971 414.866C595.971 414.866 586.719 408.081 580.196 408.081C573.674 408.081 563.111 407.325 563.111 407.325C567.058 402.807 581.507 397.534 581.507 397.534C576.46 397.509 571.415 397.761 566.395 398.289C561.769 399.045 560.49 404.319 560.49 404.319C560.49 404.319 559.163 401.235 549.31 399.045C539.457 396.855 536.835 404.319 536.835 404.319H546.087C549.372 404.319 553.967 408.837 553.967 408.837C553.967 408.837 543.466 408.837 539.518 411.103C536.126 413.046 531.808 421.111 530.621 423.331C533.322 409.44 537.159 395.794 542.094 382.53L542.356 382.33C545.616 380.086 548.709 377.607 551.608 374.913L562.71 393.417L561.785 377.673C561.785 377.673 571.037 380.464 573.828 383.239C576.619 386.015 584.946 395.267 584.946 395.267C584.946 395.267 581.245 381.389 576.603 376.763C572.552 373.038 568.216 369.636 563.635 366.586C563.635 366.586 573.828 366.586 577.513 368.436C581.199 370.287 592.332 377.688 592.332 377.688C592.332 377.688 584.93 364.735 579.364 361.944C573.797 359.153 558.994 359.169 558.994 359.169C558.994 359.169 565.486 353.618 570.112 353.618H583.08C583.08 353.618 579.364 344.366 565.486 347.141C551.608 349.917 549.742 353.618 549.742 353.618C549.742 353.618 547.876 347.141 541.4 346.201C534.923 345.26 520.105 345.275 520.105 345.275C520.105 345.275 540.474 351.767 546.026 357.318C546.026 357.318 531.207 358.244 521.955 358.244C512.703 358.244 499.735 366.586 499.735 366.586C499.735 366.586 519.179 361.019 539.549 363.81C539.549 363.81 525.671 364.735 516.419 370.287C507.167 375.838 497.915 388.791 497.915 388.791C503.423 383.586 510.095 379.774 517.375 377.673C528.478 374.897 544.221 371.196 544.221 371.196C544.221 371.196 528.478 384.165 526.627 390.641C524.565 396.668 522.092 402.547 519.226 408.235C519.226 408.235 532.502 391.273 539.966 384.334C531.043 408.771 525.991 434.452 524.993 460.447C522.248 449.206 514.199 425.953 493.289 414.311C497.252 415.39 502.973 416.963 507.584 418.289C515.479 420.556 521.384 427.325 521.384 427.325C521.384 427.325 514.816 416.778 508.247 412.26C501.678 407.742 491.824 406.986 491.824 406.986C501.296 405.754 510.92 406.526 520.074 409.253C520.074 409.253 510.822 402.468 504.299 402.468C497.776 402.468 487.214 401.713 487.214 401.713C491.161 397.195 505.625 391.921 505.625 391.921C500.573 391.896 495.524 392.144 490.498 392.661C485.872 393.417 484.592 398.69 484.592 398.69C484.592 398.69 483.282 395.683 473.428 393.417C463.575 391.15 460.938 398.69 460.938 398.69H470.19C473.49 398.69 478.085 403.224 478.085 403.224C478.085 403.224 467.569 403.224 463.621 405.475C459.674 407.726 454.369 418.289 454.369 418.289C454.369 418.289 462.249 412.26 464.886 410.749C467.522 409.238 474.739 409.207 474.739 409.207C471.438 411.715 468.345 414.484 465.487 417.487C462.202 421.25 459.581 432.568 459.581 432.568C459.581 432.568 465.487 425.028 467.461 422.761C469.434 420.494 476.003 418.243 476.003 418.243L475.34 431.057L483.235 415.976C485.271 418.147 487.467 420.163 489.804 422.005C494.43 425.783 506.227 443.115 506.227 443.115C504.179 438.454 502.423 433.669 500.968 428.79C499.889 424.442 492.133 416.454 489.434 413.879C516.219 426.446 523.358 458.088 524.592 465.397H513.489L515.941 486.985H535.494L537.93 465.397H526.442C528.051 455.181 531.29 445.289 536.033 436.099C535.71 437.348 535.509 438.165 535.509 438.165C535.509 438.165 541.43 430.625 543.404 428.374C545.378 426.122 551.947 423.84 551.947 423.84L551.284 436.654L559.163 421.589C561.204 423.755 563.4 425.77 565.732 427.618C570.358 431.381 582.17 448.713 582.17 448.713C580.122 444.057 578.366 439.278 576.912 434.403C575.601 429.114 564.422 418.567 564.422 418.567C564.422 418.567 575.601 421.651 583.481 423.84C591.36 426.03 597.282 432.892 597.282 432.892C597.282 432.892 590.759 422.406 584.144 417.873ZM526.396 458.504C526.886 446.828 528.252 435.205 530.482 423.732C531.716 422.792 538.393 417.734 540.767 416.377C543.404 414.835 550.621 414.835 550.621 414.835C547.321 417.345 544.228 420.114 541.369 423.116C539.713 425.426 538.452 427.995 537.637 430.718C532.327 439.263 528.539 448.665 526.442 458.504H526.396Z" fill="white"/>
<path opacity="0.4" d="M584.144 417.873C577.56 413.355 567.706 412.599 567.706 412.599C577.183 411.374 586.811 412.147 595.971 414.866C595.971 414.866 586.719 408.081 580.196 408.081C573.674 408.081 563.111 407.325 563.111 407.325C567.058 402.807 581.507 397.534 581.507 397.534C576.46 397.509 571.415 397.761 566.395 398.289C561.769 399.045 560.49 404.319 560.49 404.319C560.49 404.319 559.163 401.235 549.31 399.045C539.457 396.855 536.835 404.319 536.835 404.319H546.087C549.372 404.319 553.967 408.837 553.967 408.837C553.967 408.837 543.466 408.837 539.518 411.103C536.126 413.046 531.808 421.111 530.621 423.331C533.322 409.44 537.159 395.794 542.094 382.53L542.356 382.33C545.616 380.086 548.709 377.607 551.608 374.913L562.71 393.417L561.785 377.673C561.785 377.673 571.037 380.464 573.828 383.239C576.619 386.015 584.946 395.267 584.946 395.267C584.946 395.267 581.245 381.389 576.603 376.763C572.552 373.038 568.216 369.636 563.635 366.586C563.635 366.586 573.828 366.586 577.513 368.436C581.199 370.287 592.332 377.688 592.332 377.688C592.332 377.688 584.93 364.735 579.364 361.944C573.797 359.153 558.994 359.169 558.994 359.169C558.994 359.169 565.486 353.618 570.112 353.618H583.08C583.08 353.618 579.364 344.366 565.486 347.141C551.608 349.917 549.742 353.618 549.742 353.618C549.742 353.618 547.876 347.141 541.4 346.201C534.923 345.26 520.105 345.275 520.105 345.275C520.105 345.275 540.474 351.767 546.026 357.318C546.026 357.318 531.207 358.244 521.955 358.244C512.703 358.244 499.735 366.586 499.735 366.586C499.735 366.586 519.179 361.019 539.549 363.81C539.549 363.81 525.671 364.735 516.419 370.287C507.167 375.838 497.915 388.791 497.915 388.791C503.423 383.586 510.095 379.774 517.375 377.673C528.478 374.897 544.221 371.196 544.221 371.196C544.221 371.196 528.478 384.165 526.627 390.641C524.565 396.668 522.092 402.547 519.226 408.235C519.226 408.235 532.502 391.273 539.966 384.334C531.043 408.771 525.991 434.452 524.993 460.447C522.248 449.206 514.199 425.953 493.289 414.311C497.252 415.39 502.973 416.963 507.584 418.289C515.479 420.556 521.384 427.325 521.384 427.325C521.384 427.325 514.816 416.778 508.247 412.26C501.678 407.742 491.824 406.986 491.824 406.986C501.296 405.754 510.92 406.526 520.074 409.253C520.074 409.253 510.822 402.468 504.299 402.468C497.776 402.468 487.214 401.713 487.214 401.713C491.161 397.195 505.625 391.921 505.625 391.921C500.573 391.896 495.524 392.144 490.498 392.661C485.872 393.417 484.592 398.69 484.592 398.69C484.592 398.69 483.282 395.683 473.428 393.417C463.575 391.15 460.938 398.69 460.938 398.69H470.19C473.49 398.69 478.085 403.224 478.085 403.224C478.085 403.224 467.569 403.224 463.621 405.475C459.674 407.726 454.369 418.289 454.369 418.289C454.369 418.289 462.249 412.26 464.886 410.749C467.522 409.238 474.739 409.207 474.739 409.207C471.438 411.715 468.345 414.484 465.487 417.487C462.202 421.25 459.581 432.568 459.581 432.568C459.581 432.568 465.487 425.028 467.461 422.761C469.434 420.494 476.003 418.243 476.003 418.243L475.34 431.057L483.235 415.976C485.271 418.147 487.467 420.163 489.804 422.005C494.43 425.783 506.227 443.115 506.227 443.115C504.179 438.454 502.423 433.669 500.968 428.79C499.889 424.442 492.133 416.454 489.434 413.879C516.219 426.446 523.358 458.088 524.592 465.397H513.489L515.941 486.985H535.494L537.93 465.397H526.442C528.051 455.181 531.29 445.289 536.033 436.099C535.71 437.348 535.509 438.165 535.509 438.165C535.509 438.165 541.43 430.625 543.404 428.374C545.378 426.122 551.947 423.84 551.947 423.84L551.284 436.654L559.163 421.589C561.204 423.755 563.4 425.77 565.732 427.618C570.358 431.381 582.17 448.713 582.17 448.713C580.122 444.057 578.366 439.278 576.912 434.403C575.601 429.114 564.422 418.567 564.422 418.567C564.422 418.567 575.601 421.651 583.481 423.84C591.36 426.03 597.282 432.892 597.282 432.892C597.282 432.892 590.759 422.406 584.144 417.873ZM526.396 458.504C526.886 446.828 528.252 435.205 530.482 423.732C531.716 422.792 538.393 417.734 540.767 416.377C543.404 414.835 550.621 414.835 550.621 414.835C547.321 417.345 544.228 420.114 541.369 423.116C539.713 425.426 538.452 427.995 537.637 430.718C532.327 439.263 528.539 448.665 526.442 458.504H526.396Z" fill="white"/>
<path d="M154.851 417.873C148.267 413.355 138.414 412.599 138.414 412.599C147.89 411.374 157.518 412.147 166.678 414.866C166.678 414.866 157.426 408.081 150.904 408.081C144.381 408.081 133.818 407.325 133.818 407.325C137.766 402.807 152.214 397.534 152.214 397.534C147.167 397.509 142.122 397.761 137.103 398.289C132.477 399.045 131.197 404.319 131.197 404.319C131.197 404.319 129.871 401.235 120.017 399.045C110.164 396.855 107.527 404.319 107.527 404.319H116.779C120.064 404.319 124.659 408.837 124.659 408.837C124.659 408.837 114.158 408.837 110.21 411.103C106.818 413.046 102.5 421.111 101.313 423.331C104.007 409.438 107.844 395.791 112.785 382.53L113.048 382.33C116.304 380.081 119.396 377.602 122.3 374.913L133.402 393.417L132.477 377.673C132.477 377.673 141.729 380.464 144.52 383.239C147.311 386.015 155.638 395.267 155.638 395.267C155.638 395.267 151.921 381.389 147.295 376.763C143.244 373.038 138.908 369.636 134.327 366.586C134.327 366.586 144.52 366.586 148.205 368.436C151.891 370.287 163.024 377.688 163.024 377.688C163.024 377.688 155.622 364.735 150.056 361.944C144.489 359.153 129.686 359.169 129.686 359.169C129.686 359.169 136.162 353.618 140.804 353.618H153.772C153.772 353.618 150.056 344.366 136.162 347.141C122.269 349.917 120.434 353.618 120.434 353.618C120.434 353.618 118.568 347.141 112.092 346.201C105.615 345.26 90.7966 345.275 90.7966 345.275C90.7966 345.275 111.166 351.767 116.718 357.318C116.718 357.318 101.899 358.244 92.647 358.244C83.395 358.244 70.4113 366.586 70.4113 366.586C70.4113 366.586 89.8714 361.019 110.241 363.81C110.241 363.81 96.3632 364.735 87.1112 370.287C77.8592 375.838 68.6072 388.791 68.6072 388.791C74.1148 383.586 80.787 379.774 88.0672 377.673C99.1696 374.897 114.913 371.196 114.913 371.196C114.913 371.196 99.1696 384.165 97.3192 390.641C95.2568 396.668 92.7838 402.547 89.9176 408.235C89.9176 408.235 103.194 391.273 110.658 384.334C101.724 408.77 96.6622 434.45 95.6539 460.447C92.9091 449.206 84.8599 425.953 63.9504 414.311C67.9133 415.39 73.6341 416.963 78.2447 418.289C86.1397 420.556 92.1227 427.325 92.1227 427.325C92.1227 427.325 85.5538 416.778 78.9849 412.26C72.4159 407.742 62.5625 406.986 62.5625 406.986C72.0027 405.789 81.589 406.582 90.704 409.315C90.704 409.315 81.452 402.53 74.9294 402.53C68.4067 402.53 57.8749 401.851 57.8749 401.851C61.8224 397.333 76.2709 392.06 76.2709 392.06C71.2241 392.035 66.1796 392.282 61.1593 392.8C56.5642 393.478 55.238 398.767 55.238 398.767C55.238 398.767 53.9273 395.76 44.0585 393.494C34.1897 391.227 31.5992 398.767 31.5992 398.767H40.8512C44.1356 398.767 48.7462 403.301 48.7462 403.301C48.7462 403.301 38.2298 403.301 34.2823 405.552C30.3348 407.804 25.0303 418.366 25.0303 418.366C25.0303 418.366 32.9099 412.337 35.5467 410.826C38.1835 409.315 45.4001 409.284 45.4001 409.284C42.0996 411.792 39.0057 414.561 36.1481 417.564C32.8636 421.327 30.2422 432.645 30.2422 432.645C30.2422 432.645 36.1481 425.105 38.1219 422.838C40.0956 420.571 46.6645 418.32 46.6645 418.32L45.986 431.149L53.8811 416.069C55.9117 418.245 58.1079 420.261 60.45 422.098C65.076 425.876 76.8723 443.208 76.8723 443.208C74.825 438.546 73.0689 433.762 71.6141 428.883C70.5347 424.534 62.7784 416.547 60.0645 413.971C86.8645 426.539 93.9885 458.181 95.2375 465.49H84.1351L86.5869 487.078H106.139L108.576 465.49H97.0879C98.6972 455.274 101.935 445.382 106.679 436.192C106.355 437.441 106.155 438.258 106.155 438.258C106.155 438.258 112.076 430.718 114.05 428.466C116.024 426.215 122.593 423.933 122.593 423.933L121.93 436.747L129.809 421.681C131.85 423.848 134.045 425.863 136.378 427.711C141.004 431.473 152.816 448.805 152.816 448.805C150.768 444.149 149.011 439.37 147.558 434.496C146.247 429.206 135.067 418.659 135.067 418.659C135.067 418.659 146.247 421.743 154.127 423.933C162.006 426.122 168.005 432.984 168.005 432.984C168.005 432.984 161.42 422.406 154.851 417.873ZM97.1034 458.504C97.5935 446.828 98.9594 435.205 101.19 423.732C102.423 422.792 109.1 417.734 111.475 416.377C114.112 414.835 121.328 414.835 121.328 414.835C118.029 417.345 114.935 420.114 112.076 423.116C110.42 425.426 109.159 427.995 108.345 430.718C103.018 439.26 99.2146 448.662 97.1034 458.504Z" fill="white"/>
<path opacity="0.4" d="M154.851 417.873C148.267 413.355 138.414 412.599 138.414 412.599C147.89 411.374 157.518 412.147 166.678 414.866C166.678 414.866 157.426 408.081 150.904 408.081C144.381 408.081 133.818 407.325 133.818 407.325C137.766 402.807 152.214 397.534 152.214 397.534C147.167 397.509 142.122 397.761 137.103 398.289C132.477 399.045 131.197 404.319 131.197 404.319C131.197 404.319 129.871 401.235 120.017 399.045C110.164 396.855 107.527 404.319 107.527 404.319H116.779C120.064 404.319 124.659 408.837 124.659 408.837C124.659 408.837 114.158 408.837 110.21 411.103C106.818 413.046 102.5 421.111 101.313 423.331C104.007 409.438 107.844 395.791 112.785 382.53L113.048 382.33C116.304 380.081 119.396 377.602 122.3 374.913L133.402 393.417L132.477 377.673C132.477 377.673 141.729 380.464 144.52 383.239C147.311 386.015 155.638 395.267 155.638 395.267C155.638 395.267 151.921 381.389 147.295 376.763C143.244 373.038 138.908 369.636 134.327 366.586C134.327 366.586 144.52 366.586 148.205 368.436C151.891 370.287 163.024 377.688 163.024 377.688C163.024 377.688 155.622 364.735 150.056 361.944C144.489 359.153 129.686 359.169 129.686 359.169C129.686 359.169 136.162 353.618 140.804 353.618H153.772C153.772 353.618 150.056 344.366 136.162 347.141C122.269 349.917 120.434 353.618 120.434 353.618C120.434 353.618 118.568 347.141 112.092 346.201C105.615 345.26 90.7966 345.275 90.7966 345.275C90.7966 345.275 111.166 351.767 116.718 357.318C116.718 357.318 101.899 358.244 92.647 358.244C83.395 358.244 70.4113 366.586 70.4113 366.586C70.4113 366.586 89.8714 361.019 110.241 363.81C110.241 363.81 96.3632 364.735 87.1112 370.287C77.8592 375.838 68.6072 388.791 68.6072 388.791C74.1148 383.586 80.787 379.774 88.0672 377.673C99.1696 374.897 114.913 371.196 114.913 371.196C114.913 371.196 99.1696 384.165 97.3192 390.641C95.2568 396.668 92.7838 402.547 89.9176 408.235C89.9176 408.235 103.194 391.273 110.658 384.334C101.724 408.77 96.6622 434.45 95.6539 460.447C92.9091 449.206 84.8599 425.953 63.9504 414.311C67.9133 415.39 73.6341 416.963 78.2447 418.289C86.1397 420.556 92.1227 427.325 92.1227 427.325C92.1227 427.325 85.5538 416.778 78.9849 412.26C72.4159 407.742 62.5625 406.986 62.5625 406.986C72.0027 405.789 81.589 406.582 90.704 409.315C90.704 409.315 81.452 402.53 74.9294 402.53C68.4067 402.53 57.8749 401.851 57.8749 401.851C61.8224 397.333 76.2709 392.06 76.2709 392.06C71.2241 392.035 66.1796 392.282 61.1593 392.8C56.5642 393.478 55.238 398.767 55.238 398.767C55.238 398.767 53.9273 395.76 44.0585 393.494C34.1897 391.227 31.5992 398.767 31.5992 398.767H40.8512C44.1356 398.767 48.7462 403.301 48.7462 403.301C48.7462 403.301 38.2298 403.301 34.2823 405.552C30.3348 407.804 25.0303 418.366 25.0303 418.366C25.0303 418.366 32.9099 412.337 35.5467 410.826C38.1835 409.315 45.4001 409.284 45.4001 409.284C42.0996 411.792 39.0057 414.561 36.1481 417.564C32.8636 421.327 30.2422 432.645 30.2422 432.645C30.2422 432.645 36.1481 425.105 38.1219 422.838C40.0956 420.571 46.6645 418.32 46.6645 418.32L45.986 431.149L53.8811 416.069C55.9117 418.245 58.1079 420.261 60.45 422.098C65.076 425.876 76.8723 443.208 76.8723 443.208C74.825 438.546 73.0689 433.762 71.6141 428.883C70.5347 424.534 62.7784 416.547 60.0645 413.971C86.8645 426.539 93.9885 458.181 95.2375 465.49H84.1351L86.5869 487.078H106.139L108.576 465.49H97.0879C98.6972 455.274 101.935 445.382 106.679 436.192C106.355 437.441 106.155 438.258 106.155 438.258C106.155 438.258 112.076 430.718 114.05 428.466C116.024 426.215 122.593 423.933 122.593 423.933L121.93 436.747L129.809 421.681C131.85 423.848 134.045 425.863 136.378 427.711C141.004 431.473 152.816 448.805 152.816 448.805C150.768 444.149 149.011 439.37 147.558 434.496C146.247 429.206 135.067 418.659 135.067 418.659C135.067 418.659 146.247 421.743 154.127 423.933C162.006 426.122 168.005 432.984 168.005 432.984C168.005 432.984 161.42 422.406 154.851 417.873ZM97.1034 458.504C97.5935 446.828 98.9594 435.205 101.19 423.732C102.423 422.792 109.1 417.734 111.475 416.377C114.112 414.835 121.328 414.835 121.328 414.835C118.029 417.345 114.935 420.114 112.076 423.116C110.42 425.426 109.159 427.995 108.345 430.718C103.018 439.26 99.2146 448.662 97.1034 458.504Z" fill="white"/>
<path d="M123.595 530.069C147.722 530.069 167.28 522.351 167.28 512.829C167.28 503.308 147.722 495.59 123.595 495.59C99.4685 495.59 79.9102 503.308 79.9102 512.829C79.9102 522.351 99.4685 530.069 123.595 530.069Z" fill="white"/>
<path opacity="0.5" d="M123.595 530.069C147.722 530.069 167.28 522.351 167.28 512.829C167.28 503.308 147.722 495.59 123.595 495.59C99.4685 495.59 79.9102 503.308 79.9102 512.829C79.9102 522.351 99.4685 530.069 123.595 530.069Z" fill="white"/>
<path d="M92.339 234.082C90.2982 235.331 88.5853 237.049 87.3429 239.094C85.6775 242.178 75.9475 270.196 72.8944 276.58C69.8412 282.963 68.4534 285.184 72.3392 287.374C76.2251 289.563 81.2366 286.263 84.5673 280.157C87.898 274.051 94.0043 257.104 95.1146 253.218C96.2248 249.332 100.111 234.637 92.339 234.082Z" fill="#BF92F3" stroke="#263238" stroke-linecap="round" stroke-linejoin="round"/>
<path d="M152.461 486.123L154.758 502.576L153.216 503.332L148.637 494.542L152.461 486.123Z" fill="#263238" stroke="#263238" stroke-linecap="round" stroke-linejoin="round"/>
<path d="M105.029 386.695C105.029 386.695 110.01 410.396 114.975 425.692C119.94 440.989 136.008 476.578 137.165 482.746C138.321 488.914 136.779 488.914 136.779 493.833C136.779 498.752 129.902 504.165 129.516 506.832C129.131 509.5 134.481 509.916 139.462 508.374C144.443 506.832 147.866 502.638 147.866 499.122C147.866 495.607 152.492 489.562 152.492 486.123C152.492 482.685 146.756 482.299 146.324 475.792C145.892 469.285 143.641 445.97 139.817 432.2C135.993 418.43 132.107 411.167 129.115 407.343C126.124 403.519 122.238 394.714 122.947 391.661C123.657 388.607 105.029 386.695 105.029 386.695Z" fill="#FFBE9D" stroke="#263238" stroke-linecap="round" stroke-linejoin="round"/>
<path d="M147.866 499.122C147.866 495.683 152.492 489.561 152.492 486.123C152.492 484.673 151.474 483.763 150.256 482.715C148.56 487.264 145.106 495.143 139.863 499.507C136.609 502.237 134.466 502.19 133.109 501.404C131.413 503.578 129.732 505.49 129.547 506.77C129.162 509.453 134.512 509.854 139.493 508.312C144.474 506.77 147.866 502.576 147.866 499.122Z" fill="#263238" stroke="#263238" stroke-linecap="round" stroke-linejoin="round"/>
<path d="M113.834 392.045C113.834 392.045 112.292 404.658 112.292 412.692C112.292 420.726 107.666 473.694 106.124 483.825C104.69 493.663 101.914 497.98 100.388 503.331C98.8613 508.682 97.3038 514.433 94.6516 515.96C91.9994 517.487 94.6516 519.044 99.2776 518.628C103.904 518.211 108.53 515.96 108.838 511.75C109.146 507.541 112.863 503.84 115.345 502.19C119.971 499.106 114.204 489.946 120.696 470.055C123.564 461.327 130.642 449.793 132.168 436.408C133.695 423.024 131.027 410.78 131.027 407.727C131.027 404.674 133.71 393.186 133.71 393.186L113.834 392.045Z" fill="#FFBE9D" stroke="#263238" stroke-linecap="round" stroke-linejoin="round"/>
<path d="M116.533 502.839C121.498 500.942 117.89 496.671 117.474 492.045C113.48 495.915 108.145 505.923 105.03 509.007C104.147 509.863 103.04 510.451 101.837 510.705C100.633 510.959 99.383 510.867 98.2295 510.441C97.2735 513.001 96.1633 515.067 94.7138 515.9C92.0307 517.442 94.7138 518.984 99.3398 518.567C103.966 518.151 108.592 515.9 108.9 511.69C109.209 507.48 113.742 503.903 116.533 502.839Z" fill="#263238" stroke="#263238" stroke-linecap="round" stroke-linejoin="round"/>
<path d="M117.273 499.123L118.46 515.961H115.376L112.693 504.489C112.693 504.489 115.376 498.753 117.273 499.123Z" fill="#263238" stroke="#263238" stroke-linecap="round" stroke-linejoin="round"/>
<path d="M110.38 231.308L98.7228 235.749C98.7228 235.749 92.3389 251.03 90.1184 262.133C87.8979 273.235 90.9511 284.63 93.2024 291.569C95.4537 298.508 98.1985 338.508 99.3704 353.774C100.542 369.039 102.609 391.059 102.609 391.059C102.609 391.059 107.605 394.96 117.612 396.903C127.62 398.846 141.775 395.793 141.775 395.793C141.775 395.793 150.102 371.63 151.768 357.459C153.433 343.288 139.54 320.251 135.099 310.258C130.658 300.266 128.931 284.152 129.825 279.418C130.719 274.684 141.205 238.879 137.535 237.198C133.865 235.518 120.943 230.691 110.38 231.308Z" fill="#263238" stroke="#263238" stroke-linecap="round" stroke-linejoin="round"/>
<path d="M110.38 221.592C110.38 221.592 109.27 229.302 108.437 232.694C107.605 236.087 101.221 247.698 103.719 252.74C106.217 257.783 114.513 257.736 118.167 249.132C120.414 243.192 121.462 236.867 121.251 230.52L122.639 222.193C122.639 222.193 113.726 225.2 110.38 221.592Z" fill="#FFBE9D" stroke="#263238" stroke-linecap="round" stroke-linejoin="round"/>
<path d="M144.274 209.38C143.618 208.269 142.609 207.409 141.406 206.94C140.204 206.47 138.879 206.417 137.644 206.79C142.671 202.642 145.847 195.918 140.928 186.327C134.76 174.377 120.389 177.168 120.389 177.168C117.682 177.045 114.991 177.65 112.597 178.919C110.202 180.188 108.191 182.075 106.773 184.384C101.777 192.433 104.552 203.536 108.716 206.604C112.571 209.411 124.66 212.449 131.969 210.074C127.698 214.5 124.938 220.868 128.885 226.419C129.664 227.645 130.721 228.67 131.969 229.411C133.217 230.152 134.623 230.59 136.072 230.687C137.52 230.785 138.972 230.54 140.308 229.973C141.645 229.405 142.829 228.531 143.765 227.421C148.715 221.593 147.328 214.654 144.274 209.38Z" fill="#263238" stroke="#263238" stroke-linecap="round" stroke-linejoin="round"/>
<path d="M109.702 207.222C109.702 207.222 106.356 201.701 105.508 205.51C104.66 209.319 106.263 212.187 107.374 212.896C108.022 213.314 108.803 213.473 109.563 213.343" fill="#FFBE9D"/>
<path d="M109.702 207.222C109.702 207.222 106.356 201.701 105.508 205.51C104.66 209.319 106.263 212.187 107.374 212.896C108.022 213.314 108.803 213.473 109.563 213.343" stroke="#263238" stroke-linecap="round" stroke-linejoin="round"/>
<path d="M109.532 197.399C109.532 197.399 104.52 217.954 111.475 225.155C118.429 232.356 126.185 220.714 132.569 211.832L134.512 206.003C132.939 203.11 131.177 200.323 129.239 197.661C127.236 195.051 125.644 192.149 124.52 189.057C124.52 189.057 117.304 198.309 109.532 197.399Z" fill="#FFBE9D" stroke="#263238" stroke-linecap="round" stroke-linejoin="round"/>
<path d="M130.89 211.956C130.89 211.956 136.672 209.072 135.346 212.742C134.02 216.412 131.152 218 129.841 218C129.065 218.003 128.314 217.723 127.729 217.214" fill="#FFBE9D"/>
<path d="M130.89 211.956C130.89 211.956 136.672 209.072 135.346 212.742C134.02 216.412 131.152 218 129.841 218C129.065 218.003 128.314 217.723 127.729 217.214" stroke="#263238" stroke-linecap="round" stroke-linejoin="round"/>
<path d="M121.174 204.862C122.249 204.009 123.568 203.524 124.939 203.476C126.31 203.429 127.66 203.823 128.791 204.599" stroke="#263238" stroke-width="0.5" stroke-miterlimit="10"/>
<path d="M117.226 201.978C117.226 201.978 114.343 198.894 111.197 200.143" stroke="#263238" stroke-width="0.5" stroke-miterlimit="10"/>
<path d="M116.178 215.102L118.013 215.903" stroke="#263238" stroke-width="0.5" stroke-miterlimit="10"/>
<path d="M113.295 218C114.307 218.619 115.432 219.031 116.605 219.211C117.778 219.391 118.975 219.336 120.126 219.049" stroke="#263238" stroke-width="0.5" stroke-miterlimit="10"/>
<path d="M117.412 207.915C117.14 208.807 116.604 209.597 115.875 210.18C115.146 210.762 114.257 211.111 113.326 211.179C112.395 211.247 111.466 211.033 110.659 210.563C109.852 210.093 109.207 209.39 108.807 208.547C108.407 207.703 108.272 206.759 108.419 205.837C108.566 204.915 108.988 204.059 109.631 203.382C110.273 202.705 111.105 202.238 112.018 202.042C112.931 201.847 113.881 201.932 114.745 202.286C115.844 202.68 116.742 203.494 117.242 204.549C117.742 205.604 117.803 206.814 117.412 207.915V207.915Z" stroke="#263238" stroke-width="0.5" stroke-miterlimit="10"/>
<path d="M128.174 210.815C127.901 211.708 127.363 212.497 126.633 213.078C125.903 213.66 125.013 214.007 124.082 214.074C123.15 214.141 122.221 213.924 121.415 213.453C120.609 212.981 119.964 212.277 119.566 211.432C119.168 210.587 119.035 209.642 119.185 208.72C119.334 207.798 119.759 206.943 120.403 206.268C121.048 205.592 121.881 205.127 122.795 204.934C123.709 204.741 124.659 204.829 125.522 205.186C126.618 205.583 127.513 206.398 128.01 207.453C128.507 208.508 128.566 209.716 128.174 210.815V210.815Z" stroke="#263238" stroke-width="0.5" stroke-miterlimit="10"/>
<path d="M117.488 206.697L119.678 207.329" stroke="#263238" stroke-width="0.5" stroke-miterlimit="10"/>
<path d="M128.268 209.857L132.724 210.382" stroke="#263238" stroke-width="0.5" stroke-miterlimit="10"/>
<path d="M108.438 232.695C104.034 241.727 100.671 251.23 98.4148 261.022C95.6392 274.9 95.9167 300.744 96.4719 310.736C97.027 320.728 96.4719 349.286 96.4719 349.286L83.7041 343.735C83.7041 343.735 84.2592 325.678 86.4797 314.02C88.3001 303.198 89.0439 292.222 88.7002 281.253C88.4226 274.869 85.6162 265.694 87.3124 257.09C89.0086 248.485 91.4758 234.87 92.3085 233.96C93.1411 233.05 108.438 232.695 108.438 232.695Z" fill="#BF92F3" stroke="#263238" stroke-linecap="round" stroke-linejoin="round"/>
<path d="M121.22 232.141C121.22 232.141 116.224 251.863 113.171 269.92C110.118 287.976 117.612 348.562 117.612 348.562C123.014 348.258 128.391 347.609 133.71 346.619C145.938 344.676 151.767 341.067 151.767 341.067C151.767 341.067 144.55 322.733 139.817 313.312C135.083 303.89 131.49 296.35 131.49 296.35C130.581 289.131 131.052 281.805 132.878 274.762C135.962 263.366 144.273 240.051 140.927 237.26C137.581 234.469 121.22 232.141 121.22 232.141Z" fill="#BF92F3" stroke="#263238" stroke-linecap="round" stroke-linejoin="round"/>
<path d="M132.878 246.312C132.878 246.312 129.794 260.19 128.714 266.574C127.635 272.958 125.384 282.41 125.384 282.41C125.384 282.41 105.939 283.243 101.22 282.965C96.5019 282.688 91.5059 282.688 91.5059 282.688L93.1712 291.57C93.1712 291.57 108.715 297.121 118.445 298.786C128.175 300.451 133.433 302.965 135.098 299.912C136.764 296.859 142.33 265.463 144.35 253.528C146.37 241.593 147.681 238.818 139.339 236.566" stroke="#263238" stroke-linecap="round" stroke-linejoin="round"/>
<path d="M113.727 275.193C113.727 275.193 124.274 273.805 125.107 273.527C125.939 273.25 136.764 277.968 136.764 277.968C136.764 277.968 136.209 279.356 135.376 279.634C134.544 279.911 127.882 276.55 127.882 276.55L126.772 276.827L135.099 282.378C135.099 282.378 136.209 283.766 135.099 284.321C133.988 284.877 125.107 279.048 125.107 279.048L132.817 286.542C132.362 286.853 131.825 287.019 131.275 287.019C130.724 287.019 130.187 286.853 129.733 286.542C128.345 285.432 125.292 282.378 125.292 282.378C125.292 282.378 128.622 286.264 126.957 286.542C125.292 286.819 122.238 282.101 122.238 282.101L117.242 281.268L111.969 280.713L113.727 275.193Z" fill="#FFBE9D" stroke="#263238" stroke-linecap="round" stroke-linejoin="round"/>
<path d="M97.6278 275.409C97.6278 275.409 90.6271 267.391 90.1954 266.635C89.7636 265.88 78.507 262.256 78.507 262.256C78.2564 262.959 78.2564 263.727 78.507 264.43C78.9542 265.186 86.217 267.098 86.217 267.098L86.8647 268.038L76.9342 266.697C76.9342 266.697 75.1917 267.005 75.6543 268.146C76.1169 269.287 86.6488 270.799 86.6488 270.799L75.8548 271.292C75.9921 271.82 76.2844 272.294 76.6939 272.654C77.1035 273.014 77.6114 273.243 78.1524 273.312C79.9257 273.389 84.2278 273.127 84.2278 273.127C84.2278 273.127 79.1547 273.836 80.2341 275.147C81.3135 276.458 86.7105 274.931 86.7105 274.931L91.0126 277.614L95.3302 280.698L97.6278 275.409Z" fill="#FFBE9D" stroke="#263238" stroke-linecap="round" stroke-linejoin="round"/>
<path d="M77.8906 274.082C77.8906 274.082 105.107 274.915 108.731 274.915C110.406 274.866 112.082 274.959 113.742 275.192L111.799 288.793C104.971 289.487 98.1065 289.765 91.2443 289.625C76.5182 289.625 69.8567 290.458 70.4119 284.907C70.967 279.356 77.8906 274.082 77.8906 274.082Z" fill="#BF92F3" stroke="#263238" stroke-linecap="round" stroke-linejoin="round"/>
<path d="M201.759 541.557C225.886 541.557 245.444 533.839 245.444 524.318C245.444 514.797 225.886 507.078 201.759 507.078C177.633 507.078 158.074 514.797 158.074 524.318C158.074 533.839 177.633 541.557 201.759 541.557Z" fill="white"/>
<path opacity="0.5" d="M201.759 541.557C225.886 541.557 245.444 533.839 245.444 524.318C245.444 514.797 225.886 507.078 201.759 507.078C177.633 507.078 158.074 514.797 158.074 524.318C158.074 533.839 177.633 541.557 201.759 541.557Z" fill="white"/>
<path d="M191.627 172.095C191.627 172.095 182.56 172.665 176.731 183.66C170.902 194.654 173.647 214.5 175.744 220.668C177.841 226.836 187.417 256.057 192.922 276.488C198.427 296.92 208.342 315.115 226.091 314.468C243.839 313.82 267.725 305.57 260.015 275.656C252.305 245.741 235.559 233.436 232.259 225.803C228.959 218.17 228.249 210.275 226.785 193.667C225.32 177.06 213.955 167.885 202.575 164.57C191.195 161.255 191.627 172.095 191.627 172.095Z" fill="#263238" stroke="#263238" stroke-linecap="round" stroke-linejoin="round"/>
<path d="M225.027 220.066C227.926 222.749 229.067 222.827 229.067 222.827" stroke="white" stroke-width="0.5" stroke-linecap="round" stroke-linejoin="round"/>
<path d="M199.385 174.176C199.385 174.176 199.631 186.095 212.276 204.337C215.446 209.037 218.934 213.514 222.715 217.737" stroke="white" stroke-width="0.5" stroke-linecap="round" stroke-linejoin="round"/>
<path d="M202.299 182.195C202.299 182.195 213.74 208.949 226.878 216.489" stroke="white" stroke-width="0.5" stroke-linecap="round" stroke-linejoin="round"/>
<path d="M236.361 250.059C236.361 250.059 255.081 271.647 255.328 287.067C255.575 302.487 245.845 308.963 244.873 308.963" stroke="white" stroke-width="0.5" stroke-linecap="round" stroke-linejoin="round"/>
<path d="M245.768 253.266C250.964 263.319 256.716 277.167 255.328 287.035" stroke="white" stroke-width="0.5" stroke-linecap="round" stroke-linejoin="round"/>
<path d="M238.305 240.328C238.305 240.328 240.155 243.135 242.653 247.514" stroke="white" stroke-width="0.5" stroke-linecap="round" stroke-linejoin="round"/>
<path d="M182.114 195.826C182.114 195.826 174.975 210.367 175.746 220.606" stroke="white" stroke-width="0.5" stroke-linecap="round" stroke-linejoin="round"/>
<path d="M178.706 204.338C178.706 204.338 178.475 213.328 181.143 218.216" stroke="white" stroke-width="0.5" stroke-linecap="round" stroke-linejoin="round"/>
<path d="M243.145 341.976C243.145 341.976 239.691 349.686 239.691 351.892C239.691 354.097 240.123 363.534 241.418 361.807C242.714 360.08 241.418 353.619 243.145 353.187C244.873 352.755 246.229 354.05 244.441 359.216C242.652 364.382 241.357 369.563 244.873 366.926C248.388 364.289 248.311 360.881 249.606 353.125C250.394 348.543 250.247 343.848 249.175 339.324L243.145 341.976Z" fill="#BD896E" stroke="#263238" stroke-linecap="round" stroke-linejoin="round"/>
<path d="M231.935 228.178L238.828 291.539L251.334 339.819L240.54 344.568C240.54 344.568 226.323 304.908 222.869 297.583C219.414 290.259 218.119 284.214 218.119 281.192C218.119 278.169 231.935 228.178 231.935 228.178Z" fill="#FFC3C3" stroke="#263238" stroke-linecap="round" stroke-linejoin="round"/>
<path d="M169.438 404.937C169.438 404.937 171.149 413.557 171.581 417.859C172.013 422.162 170.717 437.69 172.876 452.354C175.035 467.018 186.307 510.102 186.307 510.102C186.307 510.102 175.097 520.001 175.097 524.751C175.097 529.5 178.551 528.637 184.148 525.183C189.746 521.729 195.359 513.972 195.79 508.807C196.222 503.641 191.473 473.448 193.2 460.095C194.927 446.741 192.336 423.457 192.336 413.974V404.49L169.438 404.937Z" fill="#BD896E" stroke="#263238" stroke-linecap="round" stroke-linejoin="round"/>
<path d="M181.928 520.001C180.386 519.261 181.265 516.3 182.221 513.972C179.014 517.272 175.035 521.929 175.035 524.766C175.035 529.5 178.489 528.652 184.087 525.198C188.703 522.113 192.362 517.797 194.649 512.738C189.823 517.997 183.902 520.988 181.928 520.001Z" fill="#263238" stroke="#263238" stroke-linecap="round" stroke-linejoin="round"/>
<path d="M190.548 407.928C190.548 407.928 190.116 423.456 191.843 429.917C193.57 436.378 204.349 469.577 206.076 479.492C207.915 489.891 209.064 500.399 209.515 510.949C209.515 517.857 215.991 533.37 220.309 534.233C224.626 535.097 227.217 535.097 225.921 528.204C224.626 521.311 216.438 510.517 216.438 510.517C216.438 510.517 220.725 466.617 218.998 452.739C217.271 438.861 212.521 425.168 212.521 423.888C212.521 422.608 214.68 406.633 214.68 406.633L190.548 407.928Z" fill="#BD896E" stroke="#263238" stroke-linecap="round" stroke-linejoin="round"/>
<path d="M222.714 520.279C222.19 522.453 221.172 524.319 219.429 524.319C215.127 524.319 210.81 516.994 210.81 516.994L210.594 517.364C212.614 524.689 217.055 533.586 220.293 534.234C224.611 535.097 227.201 535.097 225.906 528.204C225.233 525.421 224.158 522.751 222.714 520.279Z" fill="#263238" stroke="#263238" stroke-linecap="round" stroke-linejoin="round"/>
<path d="M188.406 220.421C188.406 220.421 157.797 226.882 157.365 228.609C156.933 230.336 167.28 284.214 167.28 286.373C167.28 288.531 155.206 316.55 154.343 333.789C153.479 351.029 159.956 408.36 159.956 408.36C159.956 408.36 172.878 413.973 185.383 413.973C197.889 413.973 218.999 410.889 218.999 410.889C218.999 410.889 229.346 377.69 230.209 349.672C231.073 321.654 218.567 286.743 218.567 286.743C218.567 286.743 231.936 230.275 231.936 228.147C231.936 226.019 203.486 218.694 188.406 220.421Z" fill="#263238" stroke="#263238" stroke-linecap="round" stroke-linejoin="round"/>
<path d="M218.567 286.804C218.567 286.804 231.936 230.336 231.936 228.208C231.936 226.08 203.486 218.725 188.405 220.498C188.405 220.498 157.796 226.959 157.365 228.686C156.933 230.413 167.28 284.29 167.28 286.449C167.28 287.991 161.112 302.656 157.318 317.197C162.968 320.18 168.904 322.587 175.036 324.382C188.405 328.268 193.54 322.655 193.54 322.655C193.54 322.655 192.245 325.739 200.001 326.541C206.878 327.297 218.505 327.035 227.634 321.576C225.46 309.78 222.429 298.159 218.567 286.804Z" fill="#FFC4C4" stroke="#263238" stroke-linecap="round" stroke-linejoin="round"/>
<path d="M194.281 309.209C193.664 313.434 193.201 316.241 193.201 316.241" stroke="#263238" stroke-linecap="round" stroke-linejoin="round"/>
<path d="M196.656 252.279C197.725 262.523 198.003 272.833 197.488 283.119C197.072 288.3 196.332 294.453 195.576 300.081" stroke="#263238" stroke-linecap="round" stroke-linejoin="round"/>
<path d="M192.028 217.089C192.028 217.089 183.716 219.865 180.016 223.103C176.315 226.341 170.316 231.877 170.316 231.877L185.567 232.802L196.654 252.278L204.503 233.342H213.755C216.333 233.37 218.868 234.004 221.156 235.193C221.156 235.193 210.532 220.867 204.518 218.092C200.569 216.432 196.191 216.08 192.028 217.089Z" fill="white" stroke="#263238" stroke-linecap="round" stroke-linejoin="round"/>
<path d="M186.955 211.554C186.955 211.554 188.343 230.952 192.028 236.041C195.714 241.13 200.802 227.73 200.802 221.716C200.802 215.702 201.265 207.391 201.265 207.391L186.955 211.554Z" fill="#BD896E" stroke="#263238" stroke-linecap="round" stroke-linejoin="round"/>
<path d="M157.365 228.609C157.365 228.609 138.861 290.289 138.861 294.561C138.861 298.832 144.027 303.612 149.208 300.59C154.389 297.568 164.721 268.701 164.721 268.701L157.365 228.609Z" fill="#FFC3C3" stroke="#263238" stroke-linecap="round" stroke-linejoin="round"/>
<path d="M133.217 267.838L153.91 307.93L182.36 310.937L165.553 262.24L133.217 267.838Z" fill="white" stroke="#263238" stroke-linecap="round" stroke-linejoin="round"/>
<path d="M158.229 293.266L165.939 279.049L174.99 275.965L176.285 277.692L171.104 280.776C171.104 280.776 177.581 281.192 179.308 281.192C181.035 281.192 180.588 283.783 180.588 283.783L179.739 285.51C179.739 285.51 180.588 291.107 180.588 292.834C180.588 294.561 161.621 300.159 161.621 300.159L158.229 293.266Z" fill="#BD896E" stroke="#263238" stroke-linecap="round" stroke-linejoin="round"/>
<path d="M158.999 289.01L164.843 304.8C164.843 304.8 153.864 309.935 145.969 309.935C138.074 309.935 133.972 299.65 137.056 294.515C140.14 289.38 158.999 289.01 158.999 289.01Z" fill="#FFC3C3" stroke="#263238" stroke-linecap="round" stroke-linejoin="round"/>
<path d="M194.759 176.875L180.372 194.238C180.372 194.238 179.878 207.515 186.447 217.723C195.468 231.786 207.218 203.845 207.218 203.845L194.759 176.875Z" fill="#BD896E" stroke="#263238" stroke-linecap="round" stroke-linejoin="round"/>
<path d="M188.898 198.463C189.052 199.712 188.666 200.791 188.049 200.868C187.433 200.945 186.8 199.989 186.646 198.756C186.492 197.522 186.862 196.427 187.494 196.35C188.127 196.273 188.743 197.229 188.898 198.463Z" fill="#263238"/>
<path d="M197.103 199.126C197.103 200.375 196.578 201.393 195.946 201.393C195.314 201.393 194.836 200.36 194.836 199.11C194.836 197.861 195.36 196.844 195.977 196.844C196.594 196.844 197.103 197.877 197.103 199.126Z" fill="#263238"/>
<path d="M188.389 210.121C190.682 210.849 193.153 210.784 195.405 209.936" stroke="#263238" stroke-width="0.5" stroke-linecap="round" stroke-linejoin="round"/>
<path d="M193.432 193.682C194.255 193.043 195.279 192.72 196.32 192.771C197.361 192.822 198.349 193.243 199.106 193.96" stroke="#263238" stroke-width="0.5" stroke-linecap="round" stroke-linejoin="round"/>
<path d="M189.176 194.316C188.91 193.937 188.562 193.623 188.157 193.397C187.753 193.172 187.303 193.04 186.841 193.012C186.379 192.983 185.917 193.06 185.488 193.235C185.059 193.41 184.676 193.679 184.365 194.023" stroke="#263238" stroke-width="0.5" stroke-linecap="round" stroke-linejoin="round"/>
<path d="M190.594 197.168C190.945 198.488 190.847 199.888 190.317 201.146C189.469 203.721 188.328 205.14 189.176 205.772C189.974 206.155 190.85 206.35 191.735 206.343" stroke="#263238" stroke-width="0.5" stroke-linecap="round" stroke-linejoin="round"/>
<path d="M467.291 527.756C500.3 527.756 527.059 520.038 527.059 510.517C527.059 500.996 500.3 493.277 467.291 493.277C434.282 493.277 407.523 500.996 407.523 510.517C407.523 520.038 434.282 527.756 467.291 527.756Z" fill="white"/>
<path opacity="0.5" d="M467.291 527.756C500.3 527.756 527.059 520.038 527.059 510.517C527.059 500.996 500.3 493.277 467.291 493.277C434.282 493.277 407.523 500.996 407.523 510.517C407.523 520.038 434.282 527.756 467.291 527.756Z" fill="white"/>
<path d="M460.137 200.883C460.137 200.883 457.177 197.074 455.758 198.708C454.339 200.343 458.842 210.458 460.77 209.595C462.697 208.731 460.137 200.883 460.137 200.883Z" fill="#FFD5BF" stroke="#263238" stroke-linecap="round" stroke-linejoin="round"/>
<path d="M483.807 201.391C483.807 201.391 486.613 197.69 488.093 199.386C489.574 201.082 485.549 211.028 483.545 210.088C481.54 209.147 483.807 201.391 483.807 201.391Z" fill="#FFD5BF" stroke="#263238" stroke-linecap="round" stroke-linejoin="round"/>
<path d="M463.59 225.617C463.59 225.617 458.547 227.806 457.977 231.661C457.406 235.516 459.519 318.013 459.519 318.013L494.106 319.879L492.564 230.597C488.422 227.671 483.682 225.701 478.686 224.83C473.649 224.13 468.526 224.397 463.59 225.617Z" fill="white" stroke="#263238" stroke-linecap="round" stroke-linejoin="round"/>
<path d="M446.121 314.76L499.088 316.656C499.088 316.656 503.884 355.962 506.166 381.667C508.448 407.372 511.871 431.134 511.517 449.006C511.162 466.878 511.594 493.632 511.686 494.572C511.779 495.513 517.299 499.414 520.8 502.421C524.3 505.428 531.702 508.281 529.25 509.992C526.798 511.704 523.622 512.167 518.024 511.164C512.427 510.162 505.935 506.338 504.239 505.459L502.527 504.58L502.434 507.14L496.051 504.58C496.051 504.58 494.971 503.362 494.108 497.333C493.244 491.303 491.903 472.583 491.209 464.642C490.515 456.701 483.159 399.678 480.415 386.432C477.67 373.186 472.011 350.164 472.011 350.164C472.011 350.164 450.423 424.859 447.74 434.234C445.057 443.609 433.646 494.202 433.461 495.806C433.276 497.41 430.377 501.064 430.454 501.974C430.531 502.884 427.586 506.261 425.257 509.237C422.929 512.213 413.137 514.927 410.547 515.05C407.956 515.174 406.846 509.807 411.996 505.798C415.474 502.976 418.775 499.943 421.88 496.716C421.88 496.716 424.317 458.659 424.209 446.554C424.101 434.45 431.256 394.574 432.582 391.32C433.908 388.066 441.279 343.395 441.279 343.395L446.121 314.76Z" fill="#263238" stroke="#263238" stroke-linecap="round" stroke-linejoin="round"/>
<path d="M463.267 235.024C463.267 235.024 468.88 269.287 469.527 272.911C470.175 276.534 461.478 348.206 461.478 348.206C457.004 348.856 452.437 348.369 448.201 346.788C440.491 344.151 433.521 341.267 433.521 341.267L448.232 295.871L434.94 235.085C438.431 233.103 442.148 231.549 446.012 230.459C451.711 228.811 457.525 227.589 463.405 226.805L463.267 235.024Z" fill="#023A59" stroke="#263238" stroke-linecap="round" stroke-linejoin="round"/>
<path d="M468.88 241.854L472.658 247.251L467.678 312.215L475.496 321.128L479.32 312.508L475.619 248.207L479.505 241.191L473.985 232.926L468.88 241.854Z" fill="#263238" stroke="#263238" stroke-linecap="round" stroke-linejoin="round"/>
<path d="M483.421 225.816C483.421 225.816 479.704 253.341 479.797 255.5C479.89 257.659 478.949 275.777 479.026 277.473C479.103 279.17 486.736 348.159 486.736 348.159C491.587 349.057 496.556 349.13 501.431 348.375C509.943 347.141 519.01 341.574 519.01 341.574L501.894 296.24L508.447 232.601C508.447 232.601 488.371 226.772 483.421 225.816Z" fill="#023A59" stroke="#263238" stroke-linecap="round" stroke-linejoin="round"/>
<path d="M473.674 238.137L466.612 244.922C466.612 244.922 461.986 229.24 461.986 226.819C461.904 225.434 462.198 224.052 462.836 222.82C463.473 221.588 464.432 220.551 465.61 219.818C468.247 218.369 478.809 219.556 481.323 220.759C483.836 221.962 485.779 227.744 485.779 227.744L480.135 246.109L473.674 238.137Z" fill="white" stroke="#263238" stroke-linecap="round" stroke-linejoin="round"/>
<path d="M464.84 214.514C464.84 214.514 465.688 223.195 467.831 227.544C469.975 231.892 472.966 238.631 473.675 238.137C474.385 237.644 480.121 228.484 480.275 226.541C480.429 224.598 480.846 216.888 480.846 216.888L464.84 214.514Z" fill="#FFD5BF" stroke="#263238" stroke-linecap="round" stroke-linejoin="round"/>
<path d="M465.302 185.586C465.302 185.586 460.507 188.439 459.828 191.122C459.15 193.805 459.612 207.575 462.496 213.558C465.379 219.541 470.745 224.46 473.382 224.491C476.019 224.522 482.11 220.405 482.958 214.329C483.91 208.856 484.359 203.308 484.3 197.753C483.991 193.682 487.306 195.501 482.264 190.166C477.222 184.831 468.247 182.98 465.302 185.586Z" fill="#FFD5BF" stroke="#263238" stroke-linecap="round" stroke-linejoin="round"/>
<path d="M468.973 204.569C468.973 205.525 468.572 206.311 468.094 206.311C467.616 206.311 467.23 205.525 467.23 204.569C467.23 203.613 467.616 202.842 468.094 202.842C468.572 202.842 468.973 203.613 468.973 204.569Z" fill="#263238"/>
<path d="M477.192 204.569C477.192 205.525 476.806 206.311 476.328 206.311C475.85 206.311 475.465 205.525 475.465 204.569C475.465 203.613 475.85 202.842 476.328 202.842C476.806 202.842 477.192 203.613 477.192 204.569Z" fill="#263238"/>
<path d="M465.07 201.763C465.273 201.451 465.539 201.185 465.85 200.982C466.162 200.779 466.512 200.642 466.879 200.581C467.245 200.52 467.621 200.536 467.981 200.628C468.341 200.72 468.679 200.886 468.972 201.115" stroke="#263238" stroke-width="0.5" stroke-linecap="round" stroke-linejoin="round"/>
<path d="M474.385 201.391C474.385 201.391 476.112 198.569 479.15 201.823" stroke="#263238" stroke-width="0.5" stroke-linecap="round" stroke-linejoin="round"/>
<path d="M473.737 204.352L474.169 211.938L470.699 211.506" stroke="#263238" stroke-width="0.5" stroke-linecap="round" stroke-linejoin="round"/>
<path d="M469.619 214.329C472.126 215.227 474.88 215.144 477.329 214.098" stroke="#263238" stroke-width="0.5" stroke-linecap="round" stroke-linejoin="round"/>
<path d="M461.88 185.325C461.88 185.325 457.161 183.644 456.375 188.409C455.588 193.173 459.644 201.917 459.644 201.917C459.644 201.917 460.291 199.742 461.402 197.09C462.512 194.438 464.902 192.973 463.992 189.118C463.082 185.263 461.88 185.325 461.88 185.325Z" fill="#263238" stroke="#263238" stroke-linecap="round" stroke-linejoin="round"/>
<path d="M462.728 188.208C462.728 188.208 465.103 192.078 471.749 193.019C478.395 193.959 481.787 193.019 482.543 194.206C483.298 195.393 483.375 202.163 483.375 202.163C483.375 202.163 485.596 202.887 485.735 200.235C485.985 198.134 486.936 196.179 488.433 194.684C489.142 193.959 492.72 191.77 488.788 185.74C484.856 179.711 479.89 177.799 471.317 177.815C462.743 177.83 457.578 182.194 462.728 188.208Z" fill="#263238" stroke="#263238" stroke-linecap="round" stroke-linejoin="round"/>
<path d="M508.402 232.602C508.402 232.602 520.738 275.176 521.524 279.633C522.311 284.089 517.299 286.649 512.056 284.752C506.814 282.855 503.375 255.454 503.375 255.454L508.402 232.602Z" fill="#023A59" stroke="#263238" stroke-linecap="round" stroke-linejoin="round"/>
<path d="M516.296 270.411C516.296 270.411 496.45 266.942 491.285 266.957C486.119 266.973 461.324 269.239 461.324 269.239L460.398 277.844C460.398 277.844 498.239 286.371 505.702 287.311C513.166 288.252 520.583 287.913 521.354 283.133C522.125 278.352 520.398 276.132 520.398 276.132" fill="#023A59"/>
<path d="M516.296 270.411C516.296 270.411 496.45 266.942 491.285 266.957C486.119 266.973 461.324 269.239 461.324 269.239L460.398 277.844C460.398 277.844 498.239 286.371 505.702 287.311C513.166 288.252 520.583 287.913 521.354 283.133C522.125 278.352 520.398 276.132 520.398 276.132" stroke="#263238" stroke-linecap="round" stroke-linejoin="round"/>
<path d="M434.939 235.084C434.939 235.084 435.448 259.756 436.019 273.063C436.589 286.371 440.306 291.259 447.09 291.244C453.875 291.228 448.37 253.002 448.37 253.002" fill="#023A59"/>
<path d="M434.939 235.084C434.939 235.084 435.448 259.756 436.019 273.063C436.589 286.371 440.306 291.259 447.09 291.244C453.875 291.228 448.37 253.002 448.37 253.002" stroke="#263238" stroke-linecap="round" stroke-linejoin="round"/>
<path d="M461.325 269.24C461.325 269.24 456.375 266.711 453.476 266.711C450.577 266.711 442.081 272.154 442.111 273.11C442.142 274.066 446.737 275.331 452.52 274.652C455.627 274.252 458.773 274.252 461.88 274.652L461.325 269.24Z" fill="#FFD5BF" stroke="#263238" stroke-linecap="round" stroke-linejoin="round"/>
<path d="M494.709 262.809C497.135 262.253 499.608 261.927 502.095 261.838C505.318 261.838 509.142 268.191 509.142 268.191L496.59 269.178L494.709 262.809Z" fill="#FFD5BF" stroke="#263238" stroke-linecap="round" stroke-linejoin="round"/>
<path d="M443.19 275.654L492.01 261.529C492.01 261.529 492.935 260.573 494.647 262.793C495.795 264.726 496.442 266.915 496.528 269.162C496.528 269.162 467.708 282.593 458.826 286.432C449.944 290.272 446.984 296.332 442.219 290.611C437.454 284.89 440.476 280.095 440.476 280.095" fill="#023A59"/>
<path d="M443.19 275.654L492.01 261.529C492.01 261.529 492.935 260.573 494.647 262.793C495.795 264.726 496.442 266.915 496.528 269.162C496.528 269.162 467.708 282.593 458.826 286.432C449.944 290.272 446.984 296.332 442.219 290.611C437.454 284.89 440.476 280.095 440.476 280.095" stroke="#263238" stroke-linecap="round" stroke-linejoin="round"/>
<path d="M405.226 542.714C429.352 542.714 448.911 534.995 448.911 525.474C448.911 515.953 429.352 508.234 405.226 508.234C381.099 508.234 361.541 515.953 361.541 525.474C361.541 534.995 381.099 542.714 405.226 542.714Z" fill="white"/>
<path opacity="0.5" d="M405.226 542.714C429.352 542.714 448.911 534.995 448.911 525.474C448.911 515.953 429.352 508.234 405.226 508.234C381.099 508.234 361.541 515.953 361.541 525.474C361.541 534.995 381.099 542.714 405.226 542.714Z" fill="white"/>
<path d="M422.312 191.646C425.692 188.07 427.879 183.534 428.572 178.662C429.266 171.23 420.693 167.298 414.895 167.529C411.276 167.745 407.802 169.033 404.918 171.23C404.918 171.23 391.395 170.552 381.264 178.262C371.133 185.972 372.444 208.886 373.137 217.459C373.484 224.035 373.329 230.629 372.675 237.181C379.837 240.05 387.31 242.073 394.941 243.211C406.768 244.83 422.774 242.054 424.394 241.669C426.013 241.283 419.768 239.803 418.827 230.767C417.886 221.73 420.215 211.276 421.155 206.403C422.096 201.53 420.461 192.032 420.461 192.032L422.312 191.646Z" fill="#263238" stroke="#263238" stroke-linecap="round" stroke-linejoin="round"/>
<path d="M421.078 171.246C421.078 171.246 418.719 179.388 417.408 182.549" stroke="white" stroke-width="0.5" stroke-linecap="round" stroke-linejoin="round"/>
<path d="M411.441 174.668C411.441 174.668 413.538 181.484 406.183 193.311C398.827 205.138 383.87 217.736 383.346 226.402" stroke="white" stroke-width="0.5" stroke-linecap="round" stroke-linejoin="round"/>
<path d="M386.676 206.695C386.676 206.695 377.424 222.192 381.433 231.645" stroke="white" stroke-width="0.5" stroke-linecap="round" stroke-linejoin="round"/>
<path d="M409.559 233.389C409.559 233.389 422.08 239.88 423.93 240.574C425.78 241.268 427.415 242.903 428.803 247.066C430.191 251.23 437.854 281.391 438.548 284.645C439.242 287.898 432.75 291.137 428.571 291.368C424.393 291.599 419.057 287.898 419.057 285.107C419.057 282.316 409.559 233.389 409.559 233.389Z" fill="#00C285" stroke="#263238" stroke-linecap="round" stroke-linejoin="round"/>
<path d="M414.662 282.562C417.214 279.196 420.001 276.017 423.004 273.048C425.78 270.735 431.578 268.869 435.063 270.735C438.548 272.6 437.854 275.823 436.451 276.301C435.047 276.779 431.578 276.764 429.265 278.152C426.952 279.539 423.236 282.099 420.691 282.778C418.69 283.145 416.632 283.071 414.662 282.562Z" fill="#FFBE9D" stroke="#263238" stroke-linecap="round" stroke-linejoin="round"/>
<path d="M376.976 510.764L376.76 523.254H378.225L380.09 514.711L376.976 510.764Z" fill="#263238" stroke="#263238" stroke-linecap="round" stroke-linejoin="round"/>
<path d="M424.764 404.766C424.764 404.766 422.466 435.806 416.437 455.929C410.408 476.052 398.334 507.355 398.041 512.243C398.041 512.243 405.52 519.429 408.095 520.863C410.67 522.297 412.721 522.019 410.978 523.453C409.236 524.888 404.363 525.751 400.632 524.317C396.9 522.883 394.016 518.565 392.012 517.424C390.007 516.283 387.386 514.834 387.124 512.243C386.862 509.653 390.855 505.921 390.855 505.921C390.855 505.921 400.339 484.657 399.198 471.149C398.056 457.641 400.909 442.421 403.824 436.947C405.677 433.352 407.224 429.607 408.45 425.752L400.339 406.477C400.339 406.477 416.715 401.605 424.764 404.766Z" fill="#FFBE9D" stroke="#263238" stroke-linecap="round" stroke-linejoin="round"/>
<path d="M408.094 520.863C407.679 520.617 407.278 520.349 406.891 520.061C405.349 520.77 401.556 522.219 398.611 519.721C395.311 516.915 391.78 511.873 388.418 508.758C387.605 509.74 387.149 510.968 387.123 512.243C387.401 514.833 389.991 516.267 392.011 517.424C394.031 518.58 396.884 522.883 400.631 524.317C404.378 525.751 409.251 524.887 410.978 523.453C412.705 522.019 410.685 522.312 408.094 520.863Z" fill="#263238" stroke="#263238" stroke-linecap="round" stroke-linejoin="round"/>
<path d="M420.693 401.852C420.693 401.852 426.306 418.66 426.306 422.977C426.306 427.295 399.151 488.497 396.56 494.526C393.97 500.555 390.084 511.765 390.084 511.765C390.915 515.078 392.907 517.983 395.697 519.953C400.431 523.408 402.158 526.43 399.999 527.293C397.84 528.157 387.941 529.02 385.35 525.566C382.759 522.112 380.184 514.772 377.64 512.629C375.096 510.486 377.64 505.736 379.367 504.441C381.092 502.86 382.676 501.132 384.101 499.275C384.101 499.275 390.562 485.474 390.562 473.4C390.562 461.327 392.721 449.7 399.197 439.785C402.756 434.561 405.651 428.915 407.817 422.977L400.909 408.744C400.909 408.744 412.119 401.034 420.693 401.852Z" fill="#FFBE9D" stroke="#263238" stroke-linecap="round" stroke-linejoin="round"/>
<path d="M396.019 520.215C393.506 521.433 391.733 522.343 386.258 516.129C383.356 512.854 380.637 509.421 378.117 505.844C376.729 507.818 375.634 511.009 377.639 512.675C380.229 514.834 382.804 522.158 385.349 525.612C387.893 529.066 397.854 528.203 399.998 527.339C402.141 526.476 400.537 523.577 396.019 520.215Z" fill="#263238" stroke="#263238" stroke-linecap="round" stroke-linejoin="round"/>
<path d="M397.562 230.689C397.562 230.689 369.035 235.084 368.095 236.719C367.154 238.353 376.915 291.907 377.84 296.086C378.765 300.265 372.273 311.166 368.588 332.261C364.903 353.356 369.313 358.475 375.573 373.525C381.834 388.575 399.351 411.103 399.351 411.103L426.721 406.231C426.721 406.231 432.982 357.303 429.96 333.649C428.23 319.617 424.154 305.975 417.901 293.295L418.595 280.758C418.595 280.758 426.305 276.009 426.598 269.964C426.891 263.92 422.543 255.238 418.595 247.358C414.648 239.479 403.73 230.689 397.562 230.689Z" fill="#00C285" stroke="#263238" stroke-linecap="round" stroke-linejoin="round"/>
<path d="M399.583 227.127C399.583 227.127 393.553 227.821 392.628 228.977C391.703 230.134 388.912 246.109 388.912 246.109C388.912 246.109 399.814 242.871 400.971 242.871C402.127 242.871 411.641 254.004 411.641 254.004V244.259L419.983 250.519C418.369 245.87 416.351 241.371 413.954 237.073C410.253 230.689 404.687 227.358 399.583 227.127Z" fill="white" stroke="#263238" stroke-linecap="round" stroke-linejoin="round"/>
<path d="M400.045 213.219C400.045 213.219 398.194 231.075 399.351 233.157C400.507 235.239 408.387 247.312 408.387 247.312C408.387 247.312 407.462 238.06 407.462 232.232C407.785 227.205 408.644 222.227 410.022 217.382L400.045 213.219Z" fill="#FFBE9D" stroke="#263238" stroke-linecap="round" stroke-linejoin="round"/>
<path d="M416.282 183.752C416.282 183.752 411.872 194.654 407.462 198.601C405.002 200.854 402.279 202.801 399.351 204.399C399.351 204.399 398.889 212.109 400.045 213.22C401.202 214.33 410.716 224.106 413.923 222.718C417.13 221.33 422.049 212.279 422.512 205.093C422.581 199.61 421.881 194.144 420.43 188.856L416.282 183.752Z" fill="#FFBE9D" stroke="#263238" stroke-linecap="round" stroke-linejoin="round"/>
<path d="M419.506 197.244C418.903 197.507 418.4 197.955 418.069 198.524C417.739 199.092 417.6 199.752 417.671 200.405C417.671 203.027 420.03 205.124 420.03 206.434C420.03 207.745 417.146 208.547 417.146 208.547" stroke="#263238" stroke-width="0.5" stroke-linecap="round" stroke-linejoin="round"/>
<path d="M415.311 198.554C415.311 198.554 413.985 195.47 409.791 196.457" stroke="#263238" stroke-width="0.5" stroke-linecap="round" stroke-linejoin="round"/>
<path d="M416.36 212.74C415.442 212.946 414.488 212.935 413.576 212.707C412.663 212.48 411.816 212.042 411.102 211.43" stroke="#263238" stroke-width="0.5" stroke-linecap="round" stroke-linejoin="round"/>
<path d="M412.674 200.528C412.674 201.623 412.381 202.502 412.026 202.502C411.672 202.502 411.363 201.623 411.363 200.528C411.363 199.434 411.656 198.555 412.026 198.555C412.396 198.555 412.674 199.449 412.674 200.528Z" fill="#263238"/>
<path d="M419.504 201.392C419.504 202.471 419.211 203.365 418.841 203.365C418.471 203.365 418.193 202.471 418.193 201.392C418.193 200.312 418.486 199.418 418.841 199.418C419.196 199.418 419.504 200.359 419.504 201.392Z" fill="#263238"/>
<path d="M373.368 236.18C370.648 236.088 367.963 236.813 365.658 238.261C362.404 240.574 363.114 249.626 364.733 259.371C366.352 269.117 375.172 296.24 377.254 300.882C378.248 303.093 379.837 304.985 381.844 306.347C383.851 307.708 386.196 308.485 388.618 308.592C393.028 308.592 422.018 293.049 422.018 293.049L419.458 285.863C419.458 285.863 394.709 292.062 392.936 292.37C391.163 292.678 382.959 251.091 382.959 251.091" fill="#00C285"/>
<path d="M373.368 236.18C370.648 236.088 367.963 236.813 365.658 238.261C362.404 240.574 363.114 249.626 364.733 259.371C366.352 269.117 375.172 296.24 377.254 300.882C378.248 303.093 379.837 304.985 381.844 306.347C383.851 307.708 386.196 308.485 388.618 308.592C393.028 308.592 422.018 293.049 422.018 293.049L419.458 285.863C419.458 285.863 394.709 292.062 392.936 292.37C391.163 292.678 382.959 251.091 382.959 251.091" stroke="#263238" stroke-linecap="round" stroke-linejoin="round"/>
<path d="M399.813 287.434C399.813 287.434 390.299 287.188 388.911 287.188C387.523 287.188 381.031 294.62 379.397 296.44C377.762 298.259 379.628 298.753 380.337 298.999C381.047 299.246 385.426 297.365 385.426 297.365C385.426 297.365 381.494 305.075 382.419 306.416C383.344 307.758 385.657 308.729 386.598 307.804C387.858 306.742 389.372 306.025 390.992 305.722C391.874 305.762 392.753 305.593 393.557 305.229C394.361 304.864 395.067 304.315 395.618 303.625C397.484 301.544 400.491 293.201 400.491 293.201L405.117 291.798V288.359L399.813 287.434Z" fill="#FFBE9D" stroke="#263238" stroke-linecap="round" stroke-linejoin="round"/>
<path d="M398.889 287.188L401.433 302.731C401.433 302.731 433.214 293.926 437.146 292.06C441.078 290.195 438.78 280.233 435.758 277.689C432.736 275.145 398.889 287.188 398.889 287.188Z" fill="#00C285" stroke="#263238" stroke-linecap="round" stroke-linejoin="round"/>
<path d="M399.352 411.104L426.722 406.231C426.722 406.231 432.983 357.303 429.96 333.649C429.333 328.796 428.432 323.983 427.262 319.231C420.495 321.974 413.361 323.705 406.09 324.366C388.126 326.355 376.114 321.19 371.534 318.707C370.455 322.67 369.406 327.157 368.45 332.246C364.749 353.356 369.175 358.46 375.435 373.51C381.696 388.56 399.352 411.104 399.352 411.104Z" fill="#263238" stroke="#263238" stroke-linecap="round" stroke-linejoin="round"/>
<path d="M404.146 353.818C408.789 361.733 412.249 370.284 414.416 379.2" stroke="white" stroke-width="0.75" stroke-linecap="round" stroke-linejoin="round"/>
<path d="M395.742 342.115C397.678 344.262 399.452 346.551 401.047 348.962" stroke="white" stroke-width="0.75" stroke-linecap="round" stroke-linejoin="round"/>
<path d="M307.802 550.749C346.687 550.749 378.21 543.03 378.21 533.509C378.21 523.988 346.687 516.27 307.802 516.27C268.917 516.27 237.395 523.988 237.395 533.509C237.395 543.03 268.917 550.749 307.802 550.749Z" fill="white"/>
<path opacity="0.5" d="M307.802 550.749C346.687 550.749 378.21 543.03 378.21 533.509C378.21 523.988 346.687 516.27 307.802 516.27C268.917 516.27 237.395 523.988 237.395 533.509C237.395 543.03 268.917 550.749 307.802 550.749Z" fill="white"/>
<path d="M302.467 181.115C302.467 181.115 299.877 176.381 297.98 178.031C296.083 179.681 299.167 191.755 301.527 191.045C303.886 190.336 302.467 181.115 302.467 181.115Z" fill="#FFD5BF" stroke="#263238" stroke-linecap="round" stroke-linejoin="round"/>
<path d="M254.48 345C268.95 351.084 284.226 355.036 299.831 356.734C324.888 359.263 354.078 341.191 354.078 341.191C354.078 341.191 324.888 296.149 324.58 295.193C324.271 294.237 289.376 292.973 289.376 292.973L254.48 345Z" fill="#263238" stroke="#263238" stroke-linecap="round" stroke-linejoin="round"/>
<path d="M275.745 307.498C275.745 307.498 264.102 357.073 264.102 374.745C264.102 392.416 264.102 406.633 263.239 420.866C262.375 435.099 257.642 462.67 259.369 476.902C261.096 491.135 263.239 519.153 263.239 519.153C263.239 519.153 248.158 531.211 248.158 535.529C248.158 539.847 257.21 538.613 264.966 533.802C272.722 528.991 274.881 525.614 274.881 525.614L276.608 527.341L279.199 524.75L280.062 515.267L288.682 437.674L300.756 360.574L321.866 453.248L340.37 517.488L344.687 519.215L345.551 523.085L349.853 525.676L354.171 526.107L358.473 529.978C358.473 529.978 372.274 534.295 374.864 533.432C377.455 532.568 377.439 529.13 370.547 523.949C363.654 518.767 352.043 515.761 352.043 515.761C352.043 515.761 350.747 472.215 347.741 446.787C344.734 421.359 340.832 399.802 340.832 381.699C340.832 363.596 334.819 310.875 334.819 310.875L275.745 307.498Z" fill="#263238" stroke="#263238" stroke-linecap="round" stroke-linejoin="round"/>
<path d="M305.504 210.506L273.322 222.842L275.897 311.353C275.897 311.353 286.83 316.812 306.074 316.534C325.319 316.257 338.456 315.455 338.456 315.455L346.089 218.818L315.049 211.632C315.049 211.632 309.235 209.643 305.504 210.506Z" fill="#A2EFFF" stroke="#263238" stroke-linecap="round" stroke-linejoin="round"/>
<path d="M305.797 226.018L309.235 234.931L299.475 304.182L304.64 315.686L313.26 302.471L312.119 235.502L316.144 226.589L311.533 217.398L305.797 226.018Z" fill="#45A0CE" stroke="#263238" stroke-linecap="round" stroke-linejoin="round"/>
<path d="M305.552 206.45L300.34 212.618L301.296 231.801L312.182 223.042L320.941 235.826C320.941 235.826 324.488 219.018 323.069 213.806C321.65 208.594 316.685 205.279 314.079 205.757C311.473 206.235 305.552 206.45 305.552 206.45Z" fill="#A1EFFF" stroke="#263238" stroke-linecap="round" stroke-linejoin="round"/>
<path d="M304.133 197.461C304.133 197.461 304.133 197.831 304.225 198.463C304.518 201.624 305.428 211.339 306.029 214.5C306.739 218.293 311.704 222.549 313.601 221.84C315.497 221.131 320 215.441 320.463 213.559C320.925 211.678 322.837 202.904 322.837 202.904C322.837 202.904 316.669 205.741 314.079 205.741C311.488 205.741 304.133 197.461 304.133 197.461Z" fill="#FFD5BF" stroke="#263238" stroke-linecap="round" stroke-linejoin="round"/>
<path d="M328.912 185.093C328.912 185.093 332.767 181.299 334.093 183.427C335.419 185.555 329.035 196.241 326.969 194.884C324.902 193.528 328.912 185.093 328.912 185.093Z" fill="#FFD5BF" stroke="#263238" stroke-linecap="round" stroke-linejoin="round"/>
<path d="M311.21 164.554C311.21 164.554 305.304 167.083 304.025 170.043C302.745 173.004 300.648 188.547 302.76 195.795C304.873 203.042 309.946 209.302 312.891 209.673C315.836 210.043 323.454 206.296 325.566 199.542C327.679 192.788 329.776 185.664 330.192 181.038C330.609 176.412 333.986 178.925 329.344 172.171C324.703 165.417 314.957 162.025 311.21 164.554Z" fill="#FFD5BF" stroke="#263238" stroke-linecap="round" stroke-linejoin="round"/>
<path d="M313.06 184.43C313.06 185.586 312.643 186.527 312.073 186.542C311.502 186.558 310.993 185.633 310.962 184.476C310.932 183.32 311.379 182.379 311.965 182.363C312.551 182.348 313.029 183.227 313.06 184.43Z" fill="#263238"/>
<path d="M321.28 184.94C321.28 186.096 320.864 187.052 320.293 187.067C319.723 187.083 319.214 186.158 319.183 185.001C319.152 183.845 319.599 182.889 320.17 182.873C320.741 182.858 321.249 183.783 321.28 184.94Z" fill="#263238"/>
<path d="M308.836 179.157C309.379 178.357 310.187 177.774 311.118 177.511C312.049 177.249 313.043 177.324 313.925 177.723" stroke="#263238" stroke-width="0.5" stroke-linecap="round" stroke-linejoin="round"/>
<path d="M318.457 178.54C318.457 178.54 321.14 177.245 324.132 180.73" stroke="#263238" stroke-width="0.5" stroke-linecap="round" stroke-linejoin="round"/>
<path d="M311.41 195.811C313.422 196.767 315.697 197.022 317.871 196.535" stroke="#263238" stroke-width="0.5" stroke-linecap="round" stroke-linejoin="round"/>
<path d="M317.516 181.455C317.516 181.455 318.95 191.463 317.871 192.002C316.792 192.542 314.479 191.278 314.479 191.278" stroke="#263238" stroke-width="0.5" stroke-linecap="round" stroke-linejoin="round"/>
<path d="M304.842 159.759C304.842 159.759 296.793 161.409 297.024 165.665C297.256 169.921 300.108 177.508 300.108 177.508C300.108 177.508 302.946 179.158 302.468 181.054C301.99 182.951 302.236 186.976 303.902 185.557C305.567 184.138 304.611 178.926 305.32 178.217C306.133 177.708 306.814 177.014 307.308 176.191C307.801 175.368 308.092 174.44 308.158 173.483C308.158 170.646 306.492 168.04 306.97 167.315C307.448 166.59 315.729 167.546 319.754 169.443C323.778 171.34 329.221 174.408 327.803 177.492C327.354 178.225 327.158 179.085 327.244 179.94C327.331 180.795 327.695 181.598 328.281 182.226C328.281 182.226 326.615 186.729 327.803 187.916C328.99 189.104 330.409 183.892 330.409 183.892C331.205 183.731 331.93 183.324 332.483 182.73C333.037 182.135 333.39 181.382 333.493 180.576C334.538 176.8 334.857 172.86 334.433 168.965C333.724 165.187 325.906 158.788 317.394 158.556C308.882 158.325 304.842 159.759 304.842 159.759Z" fill="#263238" stroke="#263238" stroke-linecap="round" stroke-linejoin="round"/>
<path d="M305.782 163.845C305.782 163.845 315.496 172.357 323.777 175.672C332.057 178.987 342.712 172.835 343.191 168.101C343.669 163.367 335.619 156.505 333.491 156.258C331.363 156.011 334.663 153.174 326.861 150.815C319.058 148.456 301.757 149.874 300.816 154.608C299.876 159.342 305.782 163.845 305.782 163.845Z" fill="#263238" stroke="#263238" stroke-linecap="round" stroke-linejoin="round"/>
<path d="M301.48 211.939C301.48 211.939 300.338 266.541 293.77 285.215C287.201 303.889 278.828 322.578 271.642 329.193C264.456 335.808 251.812 356.779 251.812 356.779C251.812 356.779 247.494 348.437 247.494 345.862C247.494 343.287 267.54 324.875 269.344 323.148C271.148 321.421 271.935 312.524 271.935 299.309C271.935 286.094 268.774 224.013 268.774 222.856C268.774 221.7 296.021 210.505 301.48 211.939Z" fill="white" stroke="#263238" stroke-linecap="round" stroke-linejoin="round"/>
<path d="M268.728 222.857L268.096 223.813C264.166 231.085 260.68 238.588 257.656 246.28C252.321 259.264 238.258 280.775 241.28 285.077C244.303 289.379 252.074 291.97 256.793 286.804C261.511 281.638 273.169 259.65 273.169 259.65C273.169 259.65 271.596 227.453 268.728 222.857Z" fill="white" stroke="#263238" stroke-linecap="round" stroke-linejoin="round"/>
<path d="M322.467 212.51C322.467 212.51 323.037 250.165 324.178 276.025C325.32 301.884 328.804 311.66 331.657 316.548C334.51 321.437 355.512 353.911 355.512 353.911C355.512 353.911 360.4 343.842 359.814 339.817C359.228 335.793 344.009 310.226 344.009 308.792C344.009 307.358 350.624 222.579 349.467 220.281C348.311 217.984 322.467 212.51 322.467 212.51Z" fill="white" stroke="#263238" stroke-linecap="round" stroke-linejoin="round"/>
<path d="M295.45 215.395L287.108 236.088L293.723 242.688L286.537 250.737L290.562 281.485" stroke="#263238" stroke-linecap="round" stroke-linejoin="round"/>
<path d="M326.475 215.672L334.247 234.068L325.627 239.234L334.247 252.757L325.905 274.592" stroke="#263238" stroke-linecap="round" stroke-linejoin="round"/>
<path d="M275.76 325.168L277.21 328.93L266.971 336.825L263.748 329.516L275.76 325.168Z" fill="#A1EFFF" stroke="#263238" stroke-linecap="round" stroke-linejoin="round"/>
<path d="M255.498 279.048L275.744 325.17L260.664 336.812C260.664 336.812 238.736 290.675 238.736 286.805C238.736 282.934 243.486 275.162 245.629 273.867" fill="white"/>
<path d="M255.498 279.048L275.744 325.17L260.664 336.812C260.664 336.812 238.736 290.675 238.736 286.805C238.736 282.934 243.486 275.162 245.629 273.867" stroke="#263238" stroke-linecap="round" stroke-linejoin="round"/>
<path d="M277.21 328.932L280.725 330.69L271.057 343.858L266.971 336.827L277.21 328.932Z" fill="#FFD5BF" stroke="#263238" stroke-linecap="round" stroke-linejoin="round"/>
<path d="M330.855 325.832L329.035 329.44L338.441 338.322L342.373 331.368L330.855 325.832Z" fill="#A1EFFF" stroke="#263238" stroke-linecap="round" stroke-linejoin="round"/>
<path d="M349.468 220.281C349.468 220.281 353.908 225.015 354.494 229.394C355.08 233.774 370.593 285.307 371.179 287.651C371.765 289.995 365.905 293.819 360.046 294.683C354.186 295.546 346.877 272.725 346.877 272.725L349.468 220.281Z" fill="white" stroke="#263238" stroke-linecap="round" stroke-linejoin="round"/>
<path d="M355.62 281.962L330.855 325.832L344.733 338.924C344.733 338.924 371.21 295.224 371.595 291.369C371.981 287.514 368.049 279.31 366.028 277.814" fill="white"/>
<path d="M355.62 281.962L330.855 325.832L344.733 338.924C344.733 338.924 371.21 295.224 371.595 291.369C371.981 287.514 368.049 279.31 366.028 277.814" stroke="#263238" stroke-linecap="round" stroke-linejoin="round"/>
<path d="M329.035 329.439L325.365 330.827L333.661 344.906L338.441 338.321L329.035 329.439Z" fill="#FFD5BF" stroke="#263238" stroke-linecap="round" stroke-linejoin="round"/>
</svg>
