<svg width="724" height="483" viewBox="0 0 724 483" fill="none" xmlns="http://www.w3.org/2000/svg">
<path d="M447.432 145.122C427.16 128.169 399.348 104.792 375.437 84.5445C351.47 64.1351 320.564 53.7556 289.146 55.5645C254.211 57.7091 210.684 69.929 179.88 111.312C120.135 191.558 146.817 379.329 261.933 414.762C377.049 450.195 480.736 423.205 542.044 364.433C603.352 305.662 595.842 194.06 566.592 180.642C551.437 173.658 527.545 170.702 508.026 169.466C485.753 168.015 464.524 159.486 447.432 145.122Z" fill="#46B2C8"/>
<path opacity="0.7" d="M447.432 144.157C427.16 127.203 399.348 103.826 375.437 83.5787C351.47 63.1693 320.564 52.7898 289.146 54.5987C254.211 56.7432 210.684 68.9632 179.88 110.347C120.135 190.592 146.817 378.363 261.933 413.796C377.049 449.229 480.736 422.239 542.044 363.468C603.352 304.696 595.842 193.094 566.592 179.676C551.437 172.692 527.545 169.736 508.026 168.5C485.753 167.049 464.524 158.521 447.432 144.157Z" fill="white"/>
<path d="M388.063 208.733C379.217 202.793 368.616 200.039 358 200.922C347.383 201.806 337.382 206.274 329.637 213.594C321.893 220.913 316.864 230.65 315.378 241.206C313.891 251.762 316.034 262.511 321.455 271.687" stroke="#263238" stroke-width="0.969642" stroke-linecap="round" stroke-linejoin="round"/>
<path d="M404.764 228.671C403.849 226.613 402.791 224.621 401.598 222.711" stroke="#263238" stroke-width="0.969642" stroke-linecap="round" stroke-linejoin="round"/>
<path d="M400.758 273.977C404.259 268.763 406.684 262.902 407.891 256.738C409.098 250.574 409.062 244.23 407.785 238.08" stroke="#263238" stroke-width="0.969642" stroke-linecap="round" stroke-linejoin="round"/>
<path d="M315.191 201.044C311.997 204.251 309.135 207.772 306.647 211.554" stroke="#263238" stroke-width="0.969642" stroke-linecap="round" stroke-linejoin="round"/>
<path d="M413.954 288.09C423.406 275.864 428.268 260.707 427.695 245.261C427.121 229.815 421.147 215.06 410.814 203.571C400.482 192.082 386.447 184.587 371.157 182.393C355.868 180.199 340.294 183.446 327.151 191.567" stroke="#263238" stroke-width="0.969642" stroke-linecap="round" stroke-linejoin="round"/>
<path d="M309.563 288.09C303.043 279.645 298.661 269.748 296.792 259.241C294.923 248.735 295.621 237.932 298.828 227.754" stroke="#263238" stroke-width="0.969642" stroke-linecap="round" stroke-linejoin="round"/>
<path d="M288.896 304.772C292.998 310.016 297.652 314.802 302.777 319.05" stroke="#263238" stroke-width="0.969642" stroke-linecap="round" stroke-linejoin="round"/>
<path d="M414.186 171.3C397.66 159.975 377.91 154.318 357.899 155.176C337.888 156.034 318.694 163.361 303.196 176.059C287.699 188.757 276.733 206.141 271.945 225.603C267.156 245.065 268.802 265.557 276.636 284.003" stroke="#263238" stroke-width="0.969642" stroke-linecap="round" stroke-linejoin="round"/>
<path d="M448.166 214.239C445.678 207.821 442.482 201.7 438.638 195.991" stroke="#263238" stroke-width="0.969642" stroke-linecap="round" stroke-linejoin="round"/>
<path d="M425.809 314.635C434.856 305.998 442.055 295.611 446.968 284.105C451.882 272.599 454.408 260.214 454.392 247.701" stroke="#263238" stroke-width="0.969642" stroke-linecap="round" stroke-linejoin="round"/>
<path d="M232.452 247.701C232.452 278.441 243.329 308.188 263.155 331.668C282.981 355.148 310.475 370.845 340.763 375.976" stroke="#263238" stroke-width="0.969642" stroke-linecap="round" stroke-linejoin="round"/>
<path d="M466.256 325.107C482.093 303.664 490.964 277.87 491.671 251.216C492.377 224.562 484.884 198.334 470.206 176.081C455.528 153.828 434.373 136.624 409.604 126.796C384.834 116.969 357.646 114.993 331.718 121.136" stroke="#263238" stroke-width="0.969642" stroke-linecap="round" stroke-linejoin="round"/>
<path d="M232.452 247.702C232.453 218.541 242.243 190.225 260.251 167.298C278.259 144.371 303.44 128.162 331.756 121.271" stroke="#263238" stroke-width="0.969642" stroke-linecap="round" stroke-linejoin="round"/>
<path d="M438.638 352.589C441.939 350.161 445.115 347.585 448.166 344.861" stroke="#263238" stroke-width="0.969642" stroke-linecap="round" stroke-linejoin="round"/>
<path d="M383.439 375.977C398.222 373.5 412.461 368.466 425.518 361.101" stroke="#263238" stroke-width="0.969642" stroke-linecap="round" stroke-linejoin="round"/>
<path d="M361.817 364.326C348.652 364.311 336.03 359.071 326.721 349.755C317.412 340.44 312.175 327.809 312.16 314.635V297.904C312.16 297.187 312.445 296.499 312.952 295.991C313.459 295.484 314.146 295.199 314.863 295.199H321.62C322.337 295.199 323.025 295.484 323.532 295.991C324.039 296.499 324.323 297.187 324.323 297.904C324.323 298.621 324.039 299.309 323.532 299.817C323.025 300.324 322.337 300.609 321.62 300.609H317.595V314.635C317.595 326.379 322.257 337.642 330.556 345.947C338.854 354.251 350.11 358.917 361.846 358.917C373.582 358.917 384.837 354.251 393.136 345.947C401.435 337.642 406.097 326.379 406.097 314.635V300.609H402.042C401.325 300.609 400.638 300.324 400.131 299.817C399.624 299.309 399.339 298.621 399.339 297.904C399.339 297.187 399.624 296.499 400.131 295.991C400.638 295.484 401.325 295.199 402.042 295.199H408.8C409.517 295.199 410.204 295.484 410.711 295.991C411.218 296.499 411.503 297.187 411.503 297.904V314.635C411.487 327.814 406.247 340.449 396.931 349.765C387.616 359.082 374.987 364.319 361.817 364.326Z" fill="#263238"/>
<path d="M414.176 405.903V400.494C414.178 399.783 414.039 399.079 413.767 398.422C413.496 397.765 413.098 397.168 412.596 396.666C412.094 396.163 411.497 395.765 410.841 395.493C410.184 395.222 409.481 395.083 408.771 395.084H314.863C314.153 395.083 313.449 395.222 312.793 395.493C312.136 395.765 311.54 396.163 311.038 396.666C310.535 397.168 310.137 397.765 309.866 398.422C309.595 399.079 309.456 399.783 309.457 400.494V405.903H414.176Z" fill="#263238"/>
<path d="M367.087 401.672C367.176 401.286 367.222 400.891 367.222 400.494V361.622H356.41V400.494C356.411 400.891 356.456 401.286 356.545 401.672H367.087Z" fill="#263238"/>
<path d="M395.256 247.702C395.331 243.259 394.522 238.845 392.875 234.719C391.228 230.592 388.777 226.835 385.664 223.667C382.551 220.498 378.839 217.982 374.744 216.264C370.648 214.546 366.252 213.661 361.812 213.661C357.372 213.661 352.976 214.546 348.881 216.264C344.786 217.982 341.073 220.498 337.96 223.667C334.847 226.835 332.396 230.592 330.749 234.719C329.102 238.845 328.293 243.259 328.368 247.702V314.636C328.517 323.413 332.106 331.781 338.362 337.936C344.618 344.09 353.039 347.539 361.812 347.539C370.585 347.539 379.006 344.09 385.262 337.936C391.518 331.781 395.107 323.413 395.256 314.636V247.702Z" stroke="#263238" stroke-width="0.969642" stroke-linecap="round" stroke-linejoin="round"/>
<path d="M395.256 247.702C395.331 243.259 394.522 238.845 392.875 234.719C391.228 230.592 388.777 226.835 385.664 223.667C382.551 220.498 378.839 217.982 374.744 216.264C370.648 214.546 366.252 213.661 361.812 213.661C357.372 213.661 352.976 214.546 348.881 216.264C344.786 217.982 341.073 220.498 337.96 223.667C334.847 226.835 332.396 230.592 330.749 234.719C329.102 238.845 328.293 243.259 328.368 247.702V314.636C328.517 323.413 332.106 331.781 338.362 337.936C344.618 344.09 353.039 347.539 361.812 347.539C370.585 347.539 379.006 344.09 385.262 337.936C391.518 331.781 395.107 323.413 395.256 314.636V247.702Z" fill="#B78CE8"/>
<path d="M347.963 251.228H328.367V259.342H347.963C349.039 259.342 350.07 258.914 350.83 258.154C351.591 257.393 352.018 256.361 352.018 255.285C352.018 254.209 351.591 253.177 350.83 252.416C350.07 251.655 349.039 251.228 347.963 251.228Z" fill="white"/>
<path d="M395.255 251.228H375.669C374.593 251.228 373.562 251.655 372.802 252.416C372.041 253.177 371.614 254.209 371.614 255.285C371.614 256.361 372.041 257.393 372.802 258.154C373.562 258.914 374.593 259.342 375.669 259.342H395.255V251.228Z" fill="white"/>
<path d="M361.816 251.228C361.014 251.228 360.23 251.465 359.564 251.911C358.897 252.357 358.377 252.991 358.07 253.732C357.763 254.473 357.683 255.289 357.84 256.076C357.996 256.863 358.382 257.586 358.949 258.154C359.516 258.721 360.239 259.107 361.025 259.264C361.812 259.421 362.627 259.34 363.368 259.033C364.109 258.726 364.742 258.206 365.187 257.539C365.633 256.872 365.871 256.087 365.871 255.285C365.871 254.209 365.443 253.177 364.683 252.416C363.923 251.655 362.891 251.228 361.816 251.228Z" fill="white"/>
<path d="M361.816 267.63C361.014 267.63 360.23 267.868 359.564 268.314C358.897 268.759 358.377 269.393 358.07 270.134C357.763 270.876 357.683 271.692 357.84 272.479C357.996 273.266 358.382 273.989 358.949 274.556C359.516 275.123 360.239 275.51 361.025 275.666C361.812 275.823 362.627 275.743 363.368 275.435C364.109 275.128 364.742 274.608 365.187 273.941C365.633 273.274 365.871 272.49 365.871 271.687C365.871 270.611 365.443 269.579 364.683 268.818C363.923 268.057 362.891 267.63 361.816 267.63Z" fill="white"/>
<path d="M361.816 284.004C361.014 284.004 360.23 284.242 359.564 284.688C358.897 285.133 358.377 285.767 358.07 286.508C357.763 287.25 357.683 288.066 357.84 288.853C357.996 289.64 358.382 290.363 358.949 290.93C359.516 291.497 360.239 291.884 361.025 292.04C361.812 292.197 362.627 292.117 363.368 291.809C364.109 291.502 364.742 290.982 365.187 290.315C365.633 289.648 365.871 288.864 365.871 288.061C365.871 286.985 365.443 285.953 364.683 285.192C363.923 284.431 362.891 284.004 361.816 284.004Z" fill="white"/>
<path d="M347.963 267.63H328.367V275.744H347.963C349.039 275.744 350.07 275.317 350.83 274.556C351.591 273.795 352.018 272.763 352.018 271.687C352.018 270.611 351.591 269.579 350.83 268.818C350.07 268.057 349.039 267.63 347.963 267.63Z" fill="white"/>
<path d="M395.255 267.63H375.669C374.593 267.63 373.562 268.057 372.802 268.818C372.041 269.579 371.614 270.611 371.614 271.687C371.614 272.763 372.041 273.795 372.802 274.556C373.562 275.317 374.593 275.744 375.669 275.744H395.255V267.63Z" fill="white"/>
<path d="M347.963 284.004H328.367V292.118H347.963C349.039 292.118 350.07 291.691 350.83 290.93C351.591 290.169 352.018 289.137 352.018 288.061C352.018 286.985 351.591 285.953 350.83 285.192C350.07 284.431 349.039 284.004 347.963 284.004Z" fill="white"/>
<path d="M395.255 284.004H375.669C374.593 284.004 373.562 284.431 372.802 285.192C372.041 285.953 371.614 286.985 371.614 288.061C371.614 289.137 372.041 290.169 372.802 290.93C373.562 291.691 374.593 292.118 375.669 292.118H395.255V284.004Z" fill="white"/>
<path d="M395.256 247.702C395.331 243.259 394.522 238.845 392.875 234.719C391.228 230.592 388.777 226.835 385.664 223.667C382.551 220.498 378.839 217.982 374.744 216.264C370.648 214.546 366.252 213.661 361.812 213.661C357.372 213.661 352.976 214.546 348.881 216.264C344.786 217.982 341.073 220.498 337.96 223.667C334.847 226.835 332.396 230.592 330.749 234.719C329.102 238.845 328.293 243.259 328.368 247.702V314.636C328.517 323.413 332.106 331.781 338.362 337.936C344.618 344.09 353.039 347.539 361.812 347.539C370.585 347.539 379.006 344.09 385.262 337.936C391.518 331.781 395.107 323.413 395.256 314.636V247.702Z" stroke="#263238" stroke-width="0.969642" stroke-miterlimit="10"/>
<path d="M328.367 314.636C328.516 323.413 332.105 331.781 338.361 337.936C344.617 344.09 353.038 347.539 361.811 347.539C370.584 347.539 379.006 344.09 385.261 337.936C391.517 331.781 395.106 323.413 395.255 314.636H328.367Z" fill="#263238" stroke="#263238" stroke-width="0.969642" stroke-miterlimit="10"/>
<path d="M645.498 297.777C687.26 255.986 687.26 188.229 645.498 146.437C603.735 104.646 536.025 104.646 494.262 146.437C452.5 188.229 452.5 255.986 494.262 297.777C536.025 339.569 603.735 339.569 645.498 297.777Z" fill="#46B2C8"/>
<path d="M554.545 177.831H479.838C476.074 177.831 473.022 180.884 473.022 184.651V259.41C473.022 263.176 476.074 266.23 479.838 266.23H554.545C558.309 266.23 561.36 263.176 561.36 259.41V184.651C561.36 180.884 558.309 177.831 554.545 177.831Z" fill="white"/>
<g opacity="0.1">
<path d="M481.354 266.239H510.835L529.62 177.831H498.942L480.186 266.143C480.572 266.204 480.962 266.236 481.354 266.239Z" fill="black"/>
<path d="M542.112 177.831H534.737L515.961 266.239H523.336L542.112 177.831Z" fill="black"/>
</g>
<path d="M553.03 268.442H481.354C478.566 268.437 475.893 267.328 473.919 265.357C471.946 263.385 470.832 260.713 470.822 257.922V186.168C470.827 183.374 471.939 180.697 473.913 178.721C475.887 176.746 478.562 175.634 481.354 175.629H553.03C555.823 175.631 558.502 176.742 560.478 178.718C562.454 180.694 563.566 183.373 563.571 186.168V257.922C563.561 260.714 562.446 263.389 560.471 265.36C558.495 267.331 555.82 268.44 553.03 268.442ZM481.354 180.044C479.73 180.044 478.172 180.688 477.023 181.837C475.874 182.985 475.227 184.543 475.224 186.168V257.922C475.224 259.55 475.87 261.111 477.019 262.263C478.168 263.415 479.727 264.064 481.354 264.066H553.03C553.836 264.066 554.634 263.907 555.378 263.598C556.122 263.289 556.799 262.837 557.368 262.266C557.937 261.696 558.389 261.018 558.696 260.273C559.004 259.527 559.161 258.729 559.16 257.922V186.168C559.16 185.363 559.001 184.566 558.693 183.822C558.385 183.078 557.933 182.403 557.364 181.834C556.795 181.265 556.119 180.814 555.375 180.507C554.631 180.2 553.835 180.042 553.03 180.044H481.354Z" fill="white" stroke="#263238" stroke-width="0.932567" stroke-miterlimit="10"/>
<path d="M658.444 177.831H583.737C579.973 177.831 576.922 180.884 576.922 184.651V259.41C576.922 263.176 579.973 266.23 583.737 266.23H658.444C662.208 266.23 665.26 263.176 665.26 259.41V184.651C665.26 180.884 662.208 177.831 658.444 177.831Z" fill="white"/>
<g opacity="0.1">
<path d="M592.965 266.239H622.447L641.222 177.831H610.554L591.749 266.143C592.151 266.206 592.558 266.238 592.965 266.239Z" fill="black"/>
<path d="M653.723 177.831H646.348L627.562 266.239H634.947L653.723 177.831Z" fill="black"/>
</g>
<path d="M656.929 268.442H585.253C582.464 268.437 579.791 267.328 577.818 265.357C575.844 263.385 574.731 260.713 574.721 257.922V186.168C574.726 183.374 575.837 180.697 577.811 178.721C579.785 176.746 582.461 175.634 585.253 175.629H656.929C659.722 175.631 662.4 176.742 664.376 178.718C666.352 180.694 667.465 183.373 667.47 186.168V257.922C667.46 260.714 666.345 263.389 664.369 265.36C662.394 267.331 659.718 268.44 656.929 268.442ZM585.253 180.044C583.628 180.044 582.071 180.688 580.921 181.837C579.772 182.985 579.125 184.543 579.123 186.168V257.922C579.123 259.55 579.768 261.111 580.917 262.263C582.067 263.415 583.626 264.064 585.253 264.066H656.929C657.734 264.066 658.532 263.907 659.277 263.598C660.021 263.289 660.697 262.837 661.266 262.266C661.836 261.696 662.287 261.018 662.595 260.273C662.902 259.527 663.06 258.729 663.058 257.922V186.168C663.058 185.363 662.9 184.566 662.592 183.822C662.283 183.078 661.832 182.403 661.262 181.834C660.693 181.265 660.017 180.814 659.274 180.507C658.53 180.2 657.733 180.042 656.929 180.044H585.253Z" fill="white" stroke="#263238" stroke-width="0.932567" stroke-miterlimit="10"/>
<path d="M572.771 428.392C599.337 428.392 620.873 425.222 620.873 421.311C620.873 417.401 599.337 414.23 572.771 414.23C546.204 414.23 524.668 417.401 524.668 421.311C524.668 425.222 546.204 428.392 572.771 428.392Z" fill="#46B2C8"/>
<path d="M594.027 380.063C594.027 380.063 593.902 399.895 591.807 403.161C589.307 407.025 587.531 412.424 594.153 413.893C600.775 415.361 604.714 422.674 612.6 423.157C620.487 423.64 621.288 420.259 617.852 417.544C614.415 414.83 605.689 407.305 604.54 403.644C603.391 399.982 605.621 380.063 605.621 380.063H594.027Z" fill="#E1B8A8"/>
<path opacity="0.1" d="M604.569 391.578C604.994 385.734 605.621 380.063 605.621 380.063H594.037C594.037 380.063 594.037 385.135 593.699 390.574C597.288 391.209 600.924 391.545 604.569 391.578Z" fill="black"/>
<path d="M594.027 380.063C594.027 380.063 593.902 399.895 591.807 403.161C589.307 407.025 587.531 412.424 594.153 413.893C600.775 415.361 604.714 422.674 612.6 423.157C620.487 423.64 621.288 420.259 617.852 417.544C614.415 414.83 605.689 407.305 604.54 403.644C603.391 399.982 605.621 380.063 605.621 380.063H594.027Z" stroke="#263238" stroke-width="0.932567" stroke-linecap="round" stroke-linejoin="round"/>
<path d="M617.813 417.544C614.593 414.991 611.537 412.239 608.661 409.304C605.91 411.39 597.85 409.42 595.475 407.546C592.579 405.266 593.187 404.097 591.816 403.073L591.768 403.16C589.268 407.024 587.492 412.424 594.114 413.892C600.736 415.361 604.674 422.673 612.561 423.156C620.448 423.639 621.269 420.21 617.813 417.544Z" fill="#BFBFBF" stroke="#263238" stroke-width="0.932567" stroke-miterlimit="10"/>
<path d="M549.496 372.876C549.496 372.876 540.808 391.017 537.526 393.23C533.559 395.876 529.62 400.136 535.055 403.933C540.49 407.729 540.973 415.902 547.991 419.273C555.009 422.644 557.2 419.795 555.221 416.076C553.242 412.356 548.464 402.175 548.995 398.388C549.525 394.601 560.212 376.74 560.212 376.74L549.496 372.876Z" fill="#E1B8A8"/>
<path opacity="0.1" d="M549.496 372.876C549.496 372.876 546.388 379.387 543.192 385.077C545.772 387.636 548.744 389.765 551.996 391.385C555.327 384.932 560.211 376.769 560.211 376.769L549.496 372.876Z" fill="black"/>
<path d="M549.496 372.876C549.496 372.876 540.808 391.017 537.526 393.23C533.559 395.876 529.62 400.136 535.055 403.933C540.49 407.729 540.973 415.902 547.991 419.273C555.009 422.644 557.2 419.795 555.221 416.075C553.242 412.356 548.464 402.175 548.995 398.388C549.525 394.601 560.212 376.74 560.212 376.74L549.496 372.876Z" stroke="#263238" stroke-width="0.932567" stroke-linecap="round" stroke-linejoin="round"/>
<path d="M555.221 416.028C553.371 412.488 551.759 408.828 550.394 405.073C546.968 405.972 539.843 401.383 539.061 398.582C537.546 393.182 538.444 394.573 537.623 393.124L537.546 393.182C533.578 395.829 529.64 400.089 535.075 403.885C540.509 407.682 540.992 415.854 548.01 419.225C555.028 422.597 557.2 419.747 555.221 416.028Z" fill="#BFBFBF" stroke="#263238" stroke-width="0.932567" stroke-miterlimit="10"/>
<path d="M595.427 244.505C595.427 244.505 608.72 308.261 609.608 329.059C610.496 349.857 607.04 386.951 607.04 386.951L592.28 385.985C592.28 385.985 592.183 375.021 590.706 359.758C589.828 350.688 587.067 340.1 587.376 329.397C587.376 329.397 573.35 287.772 573.861 269.505C574.373 251.238 573.861 245.983 573.861 245.983L595.427 244.505Z" fill="#263238" stroke="#263238" stroke-width="0.932567" stroke-linecap="round" stroke-linejoin="round"/>
<path d="M559.893 244.505C559.893 244.505 546.108 255.904 554.101 278.885C557.248 288.004 569.392 329.716 569.392 329.716C566.056 333.534 563.232 337.772 560.994 342.322C555.453 353.276 551.418 370.336 544.583 380.122L554.7 386.951C554.7 386.951 587.367 345.974 589.452 332.961C591.537 319.949 581.729 267.921 581.729 267.921L578.592 246.775L559.893 244.505Z" fill="#263238" stroke="#263238" stroke-width="0.932567" stroke-linecap="round" stroke-linejoin="round"/>
<path d="M621.027 201.295C620.845 199.136 620.118 197.058 618.913 195.257C619.925 193.925 620.801 192.494 621.529 190.988C622.263 189.22 621.288 186.718 619.251 189.713C617.214 192.707 614.975 194.89 615.785 198.629C616.211 201.042 615.774 203.529 614.55 205.652L619.251 209.332L628.624 201.894L621.027 201.295Z" fill="#E1B8A8" stroke="#263238" stroke-width="0.932567" stroke-linecap="round" stroke-linejoin="round"/>
<path d="M625.443 182.187L617.562 184.331C616.837 184.528 616.409 185.277 616.606 186.003L621.096 202.53C621.294 203.256 622.042 203.684 622.767 203.487L630.648 201.343C631.373 201.146 631.801 200.397 631.604 199.671L627.114 183.144C626.916 182.418 626.168 181.99 625.443 182.187Z" fill="#263238" stroke="#263238" stroke-width="0.932567" stroke-linecap="round" stroke-linejoin="round"/>
<path d="M627.17 183.349L616.662 186.208L621.044 202.334L631.551 199.476L627.17 183.349Z" fill="#76F59B" stroke="#263238" stroke-width="0.932567" stroke-linecap="round" stroke-linejoin="round"/>
<path d="M625.063 188.931C624.935 188.434 624.614 188.008 624.173 187.747C623.731 187.486 623.204 187.412 622.707 187.54C622.21 187.668 621.785 187.988 621.524 188.43C621.264 188.872 621.189 189.4 621.317 189.897C621.443 190.38 622.07 192.65 622.282 193.452L626.028 192.437C625.816 191.694 625.178 189.337 625.063 188.931Z" fill="#263238"/>
<path d="M624.715 195.055C625.18 194.93 625.58 194.635 625.839 194.23C626.098 193.824 626.196 193.337 626.115 192.862L622.398 193.828C622.56 194.287 622.888 194.668 623.317 194.895C623.746 195.123 624.246 195.18 624.715 195.055Z" fill="#263238"/>
<path d="M628.209 197.064L625.777 197.731L625.275 195.895C625.967 195.625 626.535 195.109 626.87 194.446C627.205 193.783 627.283 193.019 627.089 192.302L626.819 191.336C626.815 191.315 626.806 191.296 626.794 191.278C626.781 191.261 626.766 191.247 626.748 191.236C626.73 191.225 626.709 191.218 626.689 191.215C626.668 191.212 626.646 191.214 626.626 191.22L626.221 191.326C626.2 191.331 626.18 191.341 626.163 191.355C626.147 191.368 626.133 191.385 626.123 191.404C626.113 191.423 626.107 191.444 626.105 191.465C626.104 191.487 626.107 191.509 626.114 191.529C626.119 191.549 626.128 191.569 626.14 191.586C626.152 191.603 626.168 191.618 626.186 191.629C626.204 191.639 626.224 191.646 626.245 191.649C626.266 191.652 626.287 191.651 626.308 191.645L626.549 191.577L626.771 192.398C626.863 192.739 626.888 193.094 626.843 193.444C626.799 193.795 626.685 194.132 626.51 194.439C626.335 194.745 626.101 195.014 625.822 195.23C625.543 195.446 625.224 195.605 624.884 195.697C624.543 195.79 624.188 195.814 623.838 195.77C623.488 195.725 623.151 195.611 622.845 195.436C622.538 195.261 622.27 195.027 622.054 194.748C621.838 194.468 621.68 194.149 621.587 193.809L621.355 192.988L621.597 192.93C621.638 192.916 621.672 192.888 621.694 192.85C621.715 192.813 621.722 192.769 621.713 192.727C621.707 192.706 621.697 192.686 621.684 192.669C621.671 192.652 621.654 192.637 621.635 192.626C621.617 192.616 621.596 192.609 621.574 192.606C621.553 192.603 621.531 192.605 621.51 192.611L621.114 192.717C621.093 192.723 621.073 192.732 621.056 192.746C621.039 192.759 621.025 192.775 621.014 192.794C621.003 192.813 620.996 192.834 620.993 192.856C620.991 192.877 620.992 192.899 620.998 192.92L621.269 193.886C621.464 194.602 621.917 195.222 622.54 195.624C623.164 196.027 623.914 196.186 624.647 196.069L625.14 197.904L622.707 198.561C622.665 198.573 622.626 198.592 622.591 198.618C622.557 198.645 622.528 198.678 622.506 198.716C622.485 198.754 622.471 198.795 622.466 198.838C622.46 198.881 622.464 198.925 622.475 198.967L622.562 199.286L628.702 197.615L628.615 197.296C628.604 197.254 628.584 197.214 628.558 197.18C628.531 197.146 628.498 197.117 628.46 197.095C628.423 197.074 628.381 197.06 628.338 197.054C628.295 197.049 628.251 197.052 628.209 197.064Z" fill="#263238"/>
<path d="M629.204 187.114C628.238 187.221 627.437 188.737 627.736 190.872C628.036 193.007 629.995 190.689 630.111 190.012C630.227 189.336 631.048 186.931 629.204 187.114Z" fill="#E1B8A8" stroke="#263238" stroke-width="0.932567" stroke-linecap="round" stroke-linejoin="round"/>
<path d="M631.328 190.302C631.071 190.298 630.816 190.352 630.582 190.46C630.349 190.568 630.142 190.727 629.978 190.925C629.814 191.124 629.697 191.356 629.635 191.606C629.573 191.856 629.567 192.117 629.62 192.369C629.803 194.446 630.208 193.963 630.208 193.963C630.218 194.819 630.392 195.665 630.72 196.455C631.203 197.373 632.477 195.982 632.477 195.151C632.477 194.32 632.342 189.954 631.328 190.302Z" fill="#E1B8A8" stroke="#263238" stroke-width="0.932567" stroke-linecap="round" stroke-linejoin="round"/>
<path d="M630.218 193.925C630.218 193.925 631.888 193.432 632.284 192.215L630.218 193.925Z" fill="#E1B8A8"/>
<path d="M630.218 193.925C630.218 193.925 631.888 193.432 632.284 192.215" stroke="#263238" stroke-width="0.932567" stroke-linecap="round" stroke-linejoin="round"/>
<path d="M615.709 202.706C616.033 201.369 616.059 199.977 615.786 198.629C614.975 194.891 617.205 192.698 619.252 189.713C621.298 186.728 622.263 189.221 621.53 190.988C620.802 192.495 619.925 193.925 618.914 195.258C620.219 197.007 620.956 199.114 621.028 201.296C621.028 202.001 621.028 204.107 621.028 204.107" fill="#E1B8A8"/>
<path d="M615.709 202.706C616.033 201.369 616.059 199.977 615.786 198.629C614.975 194.891 617.205 192.698 619.252 189.713C621.298 186.728 622.263 189.221 621.53 190.988C620.802 192.495 619.925 193.925 618.914 195.258C620.219 197.007 620.956 199.114 621.028 201.296C621.028 202.001 621.028 204.107 621.028 204.107" stroke="#263238" stroke-width="0.932567" stroke-linecap="round" stroke-linejoin="round"/>
<path d="M589.819 179.358C593.178 178.653 594.211 177.793 594.211 177.793C591.691 167.64 600.727 133.492 572.25 131.917C543.772 130.343 559.7 178.73 559.7 178.73L562.799 179.126L561.206 169.398L564.913 179.367C575.879 180.556 582.907 180.333 587.328 179.773C586.728 175.386 586.666 170.941 587.145 166.539C587.702 170.875 588.596 175.161 589.819 179.358Z" fill="#263238"/>
<path d="M572.24 132.526C571.134 131.427 569.689 130.734 568.141 130.559C566.592 130.383 565.029 130.736 563.706 131.56" stroke="#263238" stroke-width="0.932567" stroke-linecap="round" stroke-linejoin="round"/>
<path d="M593.931 185.549V185.24C593.873 185.375 593.815 185.472 593.931 185.549Z" fill="white" stroke="#263238" stroke-width="0.932567" stroke-linecap="round" stroke-linejoin="round"/>
<path d="M614.871 205.624L601.356 218.182L601.607 199.364C601.652 196.523 600.978 193.715 599.648 191.204C598.318 188.693 596.375 186.558 594 185L594.512 234.527C607.785 235.367 619.61 209.305 619.61 209.305C619.129 208.388 618.456 207.586 617.639 206.951C616.821 206.316 615.877 205.864 614.871 205.624Z" fill="#823838"/>
<path opacity="0.1" d="M598.96 228.479C596.953 228.663 596.499 224.818 596.528 221.079C595.966 222.486 595.593 223.961 595.418 225.465C595.244 229.725 595.244 233.947 595.311 237.559C610.429 230.701 610.612 224.586 614.493 218.346C612.021 221.485 602.831 228.122 598.96 228.479Z" fill="black"/>
<path d="M614.55 205.652L601.036 218.21L601.287 199.393C601.332 196.551 600.658 193.744 599.328 191.232C597.998 188.721 596.055 186.587 593.68 185.028L594.191 234.555C607.465 235.396 619.29 209.333 619.29 209.333C618.808 208.416 618.136 207.614 617.318 206.979C616.501 206.344 615.557 205.892 614.55 205.652V205.652Z" stroke="#263238" stroke-width="0.932567" stroke-linecap="round" stroke-linejoin="round"/>
<path d="M611.684 207.275L614.647 204.464L621.144 208.927L619.252 212.076L611.684 207.275Z" fill="#FF993B" stroke="#263238" stroke-width="0.932567" stroke-linecap="round" stroke-linejoin="round"/>
<path d="M599.018 208.657C593.574 232.807 596.276 248.678 596.276 248.678C596.276 248.678 583.138 258 555.52 250.098C555.52 250.098 560.54 237.608 559.188 228.083C558.368 222.219 552.865 201.141 552.865 201.141C552.865 201.141 550.259 191.925 551.456 184.487C553.763 182.99 558.706 181.184 567.442 180.546C567.587 180.057 567.687 179.556 567.741 179.049C568.019 176.592 568.08 174.116 567.925 171.649C567.799 168.751 567.558 166.442 567.558 166.442H578.099C578.099 166.442 578.234 169.109 578.572 172.238C578.756 174.083 579.016 176.102 579.345 177.841C579.507 178.712 579.717 179.573 579.972 180.42C590.494 182.005 594.452 184.748 595.215 187.134C598.796 197.895 600.176 203.498 599.018 208.657Z" fill="white" stroke="#263238" stroke-width="0.932567" stroke-linecap="round" stroke-linejoin="round"/>
<path d="M578.601 173.938C577.742 175.87 576.67 177.396 572.954 177.377C570.193 177.377 567.702 174.933 567.422 173.996C567.722 171.88 567.422 171.098 567.297 168.702C570.848 168.602 574.4 168.809 577.916 169.321C578.065 170.87 578.294 172.412 578.601 173.938Z" fill="#263238"/>
<path d="M585.609 153.257C585.609 151.827 585.609 150.948 585.609 150.948C584.827 147.2 580.194 147.007 578.06 147.016C575.81 147.089 573.569 146.698 571.477 145.867C572.162 147.507 573.297 148.92 574.749 149.943C566.814 148.176 566.197 143.983 566.496 141.723C563.677 151.586 560.018 152.001 560.018 152.001C560.018 152.001 560.018 152.88 560.182 154.3C559.235 154.518 558.397 155.07 557.824 155.857C557.252 156.643 556.982 157.61 557.064 158.579C557.054 159.624 557.452 160.631 558.173 161.385C558.895 162.14 559.883 162.582 560.926 162.617C561.134 162.608 561.341 162.579 561.544 162.53C563.223 169.06 566.67 176.161 573.726 175.88C580.783 175.6 583.659 168.239 584.798 161.593C585.007 161.612 585.217 161.612 585.426 161.593C586.472 161.488 587.434 160.973 588.101 160.16C588.769 159.347 589.088 158.303 588.988 157.256C588.992 156.296 588.654 155.367 588.034 154.634C587.415 153.901 586.556 153.413 585.609 153.257Z" fill="#E1B8A8" stroke="#263238" stroke-width="0.932567" stroke-linecap="round" stroke-linejoin="round"/>
<path d="M571.478 164.317L572.694 165.196C572.847 165.311 573.033 165.373 573.225 165.373C573.416 165.373 573.602 165.311 573.756 165.196L574.876 164.337" stroke="#263238" stroke-width="0.932567" stroke-linecap="round" stroke-linejoin="round"/>
<path d="M576.11 158.82C576.11 158.82 577.616 156.83 580.618 158.231" stroke="#263238" stroke-width="0.932567" stroke-linecap="round" stroke-linejoin="round"/>
<path d="M569.546 158.82C569.546 158.82 568.05 156.83 565.038 158.231" stroke="#263238" stroke-width="0.932567" stroke-linecap="round" stroke-linejoin="round"/>
<path d="M576.168 167.823C575.331 168.486 574.306 168.867 573.239 168.91C572.172 168.954 571.119 168.658 570.231 168.065" stroke="#263238" stroke-width="0.932567" stroke-linecap="round" stroke-linejoin="round"/>
<path d="M588.921 335.077C588.576 336.137 588.177 337.179 587.724 338.197" stroke="white" stroke-width="0.932567" stroke-linecap="round" stroke-linejoin="round"/>
<path d="M574.827 264.685L577.974 267.505C580.783 270.021 582.629 273.436 583.197 277.165C585.89 294.312 590.215 311.941 589.684 330.566" stroke="white" stroke-width="0.932567" stroke-linecap="round" stroke-linejoin="round"/>
<path d="M586.739 265.187L581.748 272.325L582.375 271.446" stroke="white" stroke-width="0.932567" stroke-linecap="round" stroke-linejoin="round"/>
<path d="M567.018 236.545L568.446 238.013" stroke="#263238" stroke-width="0.932567" stroke-linecap="round" stroke-linejoin="round"/>
<path d="M556.679 216.307C558.182 222.469 560.856 228.284 564.556 233.434" stroke="#263238" stroke-width="0.932567" stroke-linecap="round" stroke-linejoin="round"/>
<path d="M556.955 150.982L555.885 151.025L556.038 154.838L557.108 154.795L556.955 150.982Z" fill="white" stroke="#263238" stroke-width="0.932567" stroke-linecap="round" stroke-linejoin="round"/>
<path d="M589.633 149.606L588.562 149.649L588.716 153.462L589.787 153.419L589.633 149.606Z" fill="white" stroke="#263238" stroke-width="0.932567" stroke-linecap="round" stroke-linejoin="round"/>
<path d="M572.085 133.676C567.539 133.86 563.241 135.801 560.094 139.091C556.947 142.38 555.197 146.761 555.211 151.315C555.212 151.4 555.231 151.484 555.265 151.563C555.299 151.641 555.349 151.711 555.411 151.77C555.473 151.828 555.547 151.874 555.627 151.903C555.707 151.933 555.792 151.946 555.877 151.943H557.007C557.172 151.935 557.328 151.863 557.442 151.742C557.555 151.622 557.617 151.461 557.615 151.295C557.642 147.389 559.171 143.643 561.885 140.835C564.599 138.028 568.29 136.374 572.19 136.217C576.091 136.06 579.902 137.413 582.832 139.994C585.762 142.575 587.587 146.187 587.926 150.078C587.936 150.243 588.011 150.397 588.133 150.508C588.256 150.618 588.418 150.675 588.583 150.667H589.712C589.797 150.665 589.881 150.645 589.958 150.61C590.035 150.574 590.104 150.523 590.161 150.46C590.218 150.397 590.261 150.322 590.289 150.242C590.316 150.161 590.327 150.076 590.32 149.991C589.995 145.434 587.91 141.182 584.506 138.136C581.102 135.091 576.647 133.491 572.085 133.676Z" fill="#FFBFBF" stroke="#263238" stroke-width="0.932567" stroke-linecap="round" stroke-linejoin="round"/>
<path d="M558.928 153.314H558.677C557.95 153.344 557.235 153.517 556.574 153.823C555.913 154.13 555.319 154.563 554.826 155.099C553.829 156.181 553.303 157.616 553.363 159.086C553.423 160.557 554.065 161.943 555.146 162.941C556.228 163.938 557.661 164.464 559.131 164.404H559.372L558.928 153.314Z" fill="#FFBFBF" stroke="#263238" stroke-width="0.932567" stroke-linecap="round" stroke-linejoin="round"/>
<path d="M560.424 158.792C560.588 162.907 560.878 165.554 559.459 165.641C558.04 165.728 557.441 163.042 557.277 158.879C557.113 154.715 557.489 152.117 558.908 152.02C560.327 151.923 560.26 154.677 560.424 158.792Z" fill="white" stroke="#263238" stroke-width="0.932567" stroke-linecap="round" stroke-linejoin="round"/>
<path d="M586.826 152.194H587.077C587.805 152.165 588.531 152.279 589.214 152.531C589.898 152.783 590.525 153.167 591.06 153.661C591.595 154.155 592.028 154.75 592.333 155.412C592.639 156.073 592.811 156.788 592.84 157.517C592.869 158.245 592.755 158.971 592.503 159.655C592.252 160.339 591.868 160.967 591.374 161.502C590.88 162.038 590.286 162.471 589.625 162.776C588.964 163.082 588.249 163.254 587.521 163.284H587.27L586.826 152.194Z" fill="#FFBFBF" stroke="#263238" stroke-width="0.932567" stroke-linecap="round" stroke-linejoin="round"/>
<path d="M585.725 157.777C585.889 161.892 585.822 164.539 587.241 164.539C588.66 164.539 589.036 161.786 588.872 157.67C588.708 153.555 588.11 150.908 586.7 150.957C585.291 151.005 585.561 153.662 585.725 157.777Z" fill="white" stroke="#263238" stroke-width="0.932567" stroke-linecap="round" stroke-linejoin="round"/>
<path d="M562.953 155.169C562.953 155.169 566.631 152.126 570.116 154.879" stroke="#263238" stroke-width="0.932567" stroke-linecap="round" stroke-linejoin="round"/>
<path d="M583.138 154.56C583.138 154.56 579.277 151.826 575.976 154.85" stroke="#263238" stroke-width="0.932567" stroke-linecap="round" stroke-linejoin="round"/>
<path d="M566.051 179.203C566.051 179.203 568.252 184.729 576.419 185.965C576.419 185.965 573.156 192.727 568.696 190.071C563.358 186.902 562.335 180.324 562.335 180.324L566.051 179.203Z" fill="#FF993C" stroke="#263238" stroke-width="0.932567" stroke-linecap="round" stroke-linejoin="round"/>
<path d="M581.015 179.889C581.045 181.36 580.556 182.794 579.635 183.941C578.713 185.087 577.418 185.872 575.976 186.158C575.976 186.158 579.943 192.669 583.196 189.056C586.449 185.443 583.92 180.526 583.92 180.526L581.015 179.889Z" fill="#FF993C" stroke="#263238" stroke-width="0.932567" stroke-linecap="round" stroke-linejoin="round"/>
<path d="M579.2 199.064C579.2 199.255 579.144 199.441 579.038 199.6C578.931 199.759 578.781 199.883 578.604 199.956C578.428 200.029 578.234 200.048 578.047 200.011C577.859 199.974 577.687 199.882 577.552 199.747C577.417 199.612 577.325 199.439 577.288 199.252C577.251 199.065 577.27 198.87 577.343 198.694C577.416 198.517 577.54 198.367 577.699 198.26C577.857 198.154 578.044 198.098 578.235 198.098C578.491 198.098 578.736 198.199 578.917 198.381C579.098 198.562 579.2 198.807 579.2 199.064Z" fill="#FF993B" stroke="#263238" stroke-width="0.932567" stroke-linecap="round" stroke-linejoin="round"/>
<path d="M580.513 218.084C580.513 218.275 580.456 218.462 580.35 218.621C580.244 218.78 580.093 218.904 579.917 218.977C579.74 219.05 579.546 219.069 579.359 219.032C579.172 218.994 579 218.902 578.865 218.767C578.73 218.632 578.638 218.46 578.601 218.273C578.563 218.085 578.582 217.891 578.655 217.714C578.729 217.538 578.852 217.387 579.011 217.281C579.17 217.175 579.356 217.118 579.547 217.118C579.803 217.118 580.049 217.22 580.23 217.401C580.411 217.582 580.513 217.828 580.513 218.084Z" fill="#FF993B" stroke="#263238" stroke-width="0.932567" stroke-linecap="round" stroke-linejoin="round"/>
<path d="M581.748 237.559C581.748 237.75 581.691 237.937 581.585 238.095C581.479 238.254 581.329 238.378 581.152 238.451C580.976 238.524 580.782 238.543 580.594 238.506C580.407 238.469 580.235 238.377 580.1 238.242C579.965 238.107 579.873 237.935 579.836 237.747C579.799 237.56 579.818 237.366 579.891 237.189C579.964 237.013 580.088 236.862 580.246 236.756C580.405 236.649 580.592 236.593 580.783 236.593C581.039 236.593 581.284 236.695 581.465 236.876C581.646 237.057 581.748 237.303 581.748 237.559Z" fill="#FF993B" stroke="#263238" stroke-width="0.932567" stroke-linecap="round" stroke-linejoin="round"/>
<path d="M666.813 108.048H471.217C470.311 108.048 469.576 108.783 469.576 109.69V113.216C469.576 114.123 470.311 114.858 471.217 114.858H666.813C667.719 114.858 668.454 114.123 668.454 113.216V109.69C668.454 108.783 667.719 108.048 666.813 108.048Z" fill="white"/>
<path d="M666.485 114.857H471.546" stroke="#263238" stroke-width="0.932567" stroke-linecap="round" stroke-linejoin="round"/>
<path d="M471.546 108.048H666.485" stroke="#263238" stroke-width="0.932567" stroke-linecap="round" stroke-linejoin="round"/>
<path d="M532.227 153.875C532.227 153.875 524.166 152.744 523.732 154.908C523.298 157.072 523.539 160.54 524.929 161.67C527.555 163.815 527.072 167.824 527.072 167.824L533.829 167.167L534.003 163.786C534.351 162.683 534.972 161.686 535.808 160.888C538.241 158.598 537.276 156.058 536.861 152.996C536.446 149.933 534.428 151.295 534.264 152.88C534.216 154.292 534.332 155.706 534.611 157.091L532.227 153.875Z" fill="#E1B8A8" stroke="#263238" stroke-width="0.932567" stroke-linecap="round" stroke-linejoin="round"/>
<path d="M534.119 156.85C534.119 156.85 532.188 157.246 530.663 159.979L534.119 156.85Z" fill="white"/>
<path d="M534.119 156.85C534.119 156.85 532.188 157.246 530.663 159.979" stroke="#263238" stroke-width="0.932567" stroke-linecap="round" stroke-linejoin="round"/>
<path d="M534.119 157.565H524.35C523.672 157.585 523 157.444 522.389 157.151C521.777 156.859 521.245 156.424 520.836 155.884C520.486 155.393 520.299 154.806 520.299 154.203C520.299 153.601 520.486 153.013 520.836 152.522L525.72 145.345C526.142 144.812 526.679 144.381 527.291 144.085C527.903 143.789 528.574 143.636 529.253 143.636C529.933 143.636 530.604 143.789 531.216 144.085C531.827 144.381 532.364 144.812 532.787 145.345L537.681 152.522C538.03 153.013 538.218 153.601 538.218 154.203C538.218 154.806 538.03 155.393 537.681 155.884C537.268 156.432 536.728 156.872 536.107 157.165C535.487 157.458 534.804 157.595 534.119 157.565ZM522.535 153.315C522.351 153.571 522.252 153.878 522.252 154.194C522.252 154.509 522.351 154.816 522.535 155.073C522.748 155.352 523.025 155.577 523.342 155.728C523.659 155.879 524.008 155.953 524.359 155.942H534.119C534.47 155.953 534.819 155.881 535.137 155.729C535.454 155.578 535.731 155.353 535.943 155.073C536.128 154.817 536.228 154.509 536.228 154.194C536.228 153.878 536.128 153.57 535.943 153.315L531.059 146.147C530.846 145.86 530.567 145.63 530.246 145.475C529.925 145.32 529.571 145.246 529.215 145.258C528.86 145.245 528.507 145.319 528.187 145.474C527.867 145.629 527.59 145.86 527.381 146.147L522.486 153.324L522.535 153.315Z" fill="#263238"/>
<path d="M526.309 153.971C526.811 156.521 526.502 157.429 525.344 157.294C524.185 157.159 523.017 154.029 524.62 153.314C526.222 152.599 527.516 152.049 527.516 152.049C528.029 151.771 528.6 151.617 529.183 151.599C529.766 151.58 530.345 151.698 530.875 151.943C533.172 151.141 533.578 152.812 533.578 152.812C533.578 152.812 535.238 157.642 533.858 157.806C532.477 157.97 531.338 153.778 531.338 153.778C531.338 153.778 533.066 158.376 531.483 158.453C529.9 158.531 528.983 153.99 528.983 153.99C528.983 153.99 530.016 157.98 528.519 158.115C527.023 158.25 526.309 153.971 526.309 153.971Z" fill="#E1B8A8" stroke="#263238" stroke-width="0.932567" stroke-linecap="round" stroke-linejoin="round"/>
<path d="M529.958 113.032H528.375V144.746H529.958V113.032Z" fill="white" stroke="#263238" stroke-width="0.932567" stroke-linecap="round" stroke-linejoin="round"/>
<path d="M530.837 144.253L529.804 145.77C529.736 145.856 529.65 145.926 529.551 145.974C529.452 146.022 529.344 146.047 529.234 146.047C529.125 146.047 529.016 146.022 528.918 145.974C528.819 145.926 528.732 145.856 528.665 145.77L527.641 144.253C527.39 143.896 527.709 143.451 528.201 143.451H530.267C530.769 143.451 531.078 143.934 530.837 144.253Z" fill="white" stroke="#263238" stroke-width="0.932567" stroke-linecap="round" stroke-linejoin="round"/>
<path d="M530.084 133.607H528.395C527.931 133.607 527.555 133.984 527.555 134.448V141.48C527.555 141.944 527.931 142.321 528.395 142.321H530.084C530.548 142.321 530.924 141.944 530.924 141.48V134.448C530.924 133.984 530.548 133.607 530.084 133.607Z" fill="white" stroke="#263238" stroke-width="0.932567" stroke-linecap="round" stroke-linejoin="round"/>
<path d="M530.084 106.956H528.395C527.931 106.956 527.555 107.332 527.555 107.796V114.829C527.555 115.293 527.931 115.669 528.395 115.669H530.084C530.548 115.669 530.924 115.293 530.924 114.829V107.796C530.924 107.332 530.548 106.956 530.084 106.956Z" fill="white" stroke="#263238" stroke-width="0.932567" stroke-linecap="round" stroke-linejoin="round"/>
<path d="M511.154 157.564H501.385C500.707 157.585 500.035 157.443 499.424 157.15C498.813 156.858 498.28 156.424 497.871 155.883C497.522 155.392 497.334 154.805 497.334 154.202C497.334 153.6 497.522 153.012 497.871 152.522L502.755 145.344C503.178 144.811 503.716 144.381 504.329 144.085C504.942 143.789 505.613 143.635 506.293 143.635C506.974 143.635 507.645 143.789 508.258 144.085C508.87 144.381 509.408 144.811 509.831 145.344L514.716 152.522C515.065 153.012 515.253 153.6 515.253 154.202C515.253 154.805 515.065 155.392 514.716 155.883C514.303 156.432 513.763 156.871 513.142 157.164C512.522 157.457 511.839 157.594 511.154 157.564ZM499.57 153.314C499.386 153.57 499.287 153.877 499.287 154.193C499.287 154.508 499.386 154.816 499.57 155.072C499.783 155.351 500.06 155.576 500.377 155.727C500.694 155.879 501.043 155.952 501.394 155.941H511.164C511.516 155.952 511.866 155.879 512.185 155.727C512.504 155.576 512.782 155.352 512.998 155.072C513.181 154.816 513.28 154.508 513.28 154.193C513.28 153.877 513.181 153.57 512.998 153.314L508.113 146.146C507.901 145.86 507.622 145.629 507.301 145.474C506.979 145.319 506.626 145.245 506.269 145.257C505.914 145.244 505.561 145.318 505.242 145.473C504.922 145.628 504.645 145.859 504.435 146.146L499.541 153.323L499.57 153.314Z" fill="#263238"/>
<path d="M506.993 113.032H505.41V144.746H506.993V113.032Z" fill="white" stroke="#263238" stroke-width="0.932567" stroke-linecap="round" stroke-linejoin="round"/>
<path d="M507.871 144.253L506.8 145.77C506.732 145.856 506.646 145.926 506.547 145.974C506.448 146.022 506.34 146.047 506.23 146.047C506.121 146.047 506.012 146.022 505.914 145.974C505.815 145.926 505.729 145.856 505.661 145.77L504.638 144.253C504.387 143.896 504.705 143.451 505.197 143.451H507.263C507.765 143.451 508.113 143.934 507.871 144.253Z" fill="white" stroke="#263238" stroke-width="0.932567" stroke-linecap="round" stroke-linejoin="round"/>
<path d="M507.118 133.607H505.429C504.965 133.607 504.589 133.984 504.589 134.448V141.48C504.589 141.944 504.965 142.321 505.429 142.321H507.118C507.582 142.321 507.958 141.944 507.958 141.48V134.448C507.958 133.984 507.582 133.607 507.118 133.607Z" fill="white" stroke="#263238" stroke-width="0.932567" stroke-linecap="round" stroke-linejoin="round"/>
<path d="M507.118 106.956H505.429C504.965 106.956 504.589 107.332 504.589 107.796V114.829C504.589 115.293 504.965 115.669 505.429 115.669H507.118C507.582 115.669 507.958 115.293 507.958 114.829V107.796C507.958 107.332 507.582 106.956 507.118 106.956Z" fill="white" stroke="#263238" stroke-width="0.932567" stroke-linecap="round" stroke-linejoin="round"/>
<path d="M610.679 157.565H600.91C600.233 157.587 599.56 157.446 598.948 157.153C598.337 156.861 597.804 156.426 597.396 155.884C597.047 155.393 596.859 154.806 596.859 154.203C596.859 153.601 597.047 153.013 597.396 152.522L602.281 145.345C602.703 144.812 603.24 144.381 603.852 144.085C604.464 143.789 605.134 143.636 605.814 143.636C606.494 143.636 607.164 143.789 607.776 144.085C608.388 144.381 608.925 144.812 609.347 145.345L614.232 152.522C614.581 153.013 614.769 153.601 614.769 154.203C614.769 154.806 614.581 155.393 614.232 155.884C613.82 156.431 613.281 156.87 612.662 157.163C612.044 157.455 611.363 157.593 610.679 157.565ZM599.095 153.315C598.91 153.57 598.81 153.878 598.81 154.194C598.81 154.509 598.91 154.817 599.095 155.073C599.308 155.353 599.584 155.578 599.902 155.729C600.219 155.881 600.568 155.953 600.92 155.942H610.689C611.04 155.953 611.389 155.881 611.707 155.729C612.024 155.578 612.301 155.353 612.513 155.073C612.699 154.817 612.798 154.509 612.798 154.194C612.798 153.878 612.699 153.57 612.513 153.315L607.629 146.147C607.408 145.869 607.128 145.645 606.809 145.491C606.489 145.337 606.139 145.257 605.785 145.257C605.431 145.257 605.081 145.337 604.761 145.491C604.442 145.645 604.162 145.869 603.941 146.147L599.057 153.324L599.095 153.315Z" fill="#263238"/>
<path d="M606.509 113.032H604.926V144.746H606.509V113.032Z" fill="white" stroke="#263238" stroke-width="0.932567" stroke-linecap="round" stroke-linejoin="round"/>
<path d="M607.388 144.253L606.364 145.77C606.297 145.856 606.21 145.926 606.111 145.974C606.013 146.022 605.905 146.047 605.795 146.047C605.685 146.047 605.577 146.022 605.478 145.974C605.379 145.926 605.293 145.856 605.225 145.77L604.202 144.253C603.951 143.896 604.27 143.451 604.762 143.451H606.828C607.32 143.451 607.639 143.934 607.388 144.253Z" fill="white" stroke="#263238" stroke-width="0.932567" stroke-linecap="round" stroke-linejoin="round"/>
<path d="M606.644 133.607H604.955C604.491 133.607 604.115 133.984 604.115 134.448V141.48C604.115 141.944 604.491 142.321 604.955 142.321H606.644C607.108 142.321 607.484 141.944 607.484 141.48V134.448C607.484 133.984 607.108 133.607 606.644 133.607Z" fill="white" stroke="#263238" stroke-width="0.932567" stroke-linecap="round" stroke-linejoin="round"/>
<path d="M606.644 106.956H604.955C604.491 106.956 604.115 107.332 604.115 107.796V114.829C604.115 115.293 604.491 115.669 604.955 115.669H606.644C607.108 115.669 607.484 115.293 607.484 114.829V107.796C607.484 107.332 607.108 106.956 606.644 106.956Z" fill="white" stroke="#263238" stroke-width="0.932567" stroke-linecap="round" stroke-linejoin="round"/>
<path d="M632.563 157.564H622.794C622.117 157.585 621.444 157.443 620.833 157.15C620.222 156.858 619.689 156.424 619.28 155.883C618.931 155.392 618.743 154.805 618.743 154.202C618.743 153.6 618.931 153.012 619.28 152.522L624.165 145.344C624.588 144.811 625.126 144.381 625.738 144.085C626.351 143.789 627.022 143.635 627.703 143.635C628.383 143.635 629.054 143.789 629.667 144.085C630.28 144.381 630.817 144.811 631.24 145.344L636.125 152.522C636.474 153.012 636.662 153.6 636.662 154.202C636.662 154.805 636.474 155.392 636.125 155.883C635.712 156.432 635.172 156.871 634.552 157.164C633.931 157.457 633.248 157.594 632.563 157.564ZM620.979 153.314C620.795 153.57 620.696 153.877 620.696 154.193C620.696 154.508 620.795 154.816 620.979 155.072C621.192 155.351 621.469 155.576 621.786 155.727C622.103 155.879 622.452 155.952 622.803 155.941H632.573C632.925 155.952 633.275 155.879 633.594 155.727C633.913 155.576 634.192 155.352 634.407 155.072C634.591 154.816 634.69 154.508 634.69 154.193C634.69 153.877 634.591 153.57 634.407 153.314L629.522 146.146C629.31 145.86 629.031 145.629 628.71 145.474C628.389 145.319 628.035 145.245 627.678 145.257C627.323 145.244 626.97 145.318 626.651 145.473C626.331 145.628 626.054 145.859 625.844 146.146L620.95 153.323L620.979 153.314Z" fill="#263238"/>
<path d="M628.402 113.032H626.819V144.746H628.402V113.032Z" fill="white" stroke="#263238" stroke-width="0.932567" stroke-linecap="round" stroke-linejoin="round"/>
<path d="M629.281 144.253L628.248 145.77C628.18 145.856 628.094 145.926 627.995 145.974C627.897 146.022 627.788 146.047 627.679 146.047C627.569 146.047 627.461 146.022 627.362 145.974C627.263 145.926 627.177 145.856 627.109 145.77L626.086 144.253C625.835 143.896 626.153 143.451 626.646 143.451H628.711C629.213 143.451 629.522 143.934 629.281 144.253Z" fill="white" stroke="#263238" stroke-width="0.932567" stroke-linecap="round" stroke-linejoin="round"/>
<path d="M628.528 133.607H626.839C626.375 133.607 625.999 133.984 625.999 134.448V141.48C625.999 141.944 626.375 142.321 626.839 142.321H628.528C628.992 142.321 629.368 141.944 629.368 141.48V134.448C629.368 133.984 628.992 133.607 628.528 133.607Z" fill="white" stroke="#263238" stroke-width="0.932567" stroke-linecap="round" stroke-linejoin="round"/>
<path d="M628.528 106.956H626.839C626.375 106.956 625.999 107.332 625.999 107.796V114.829C625.999 115.293 626.375 115.669 626.839 115.669H628.528C628.992 115.669 629.368 115.293 629.368 114.829V107.796C629.368 107.332 628.992 106.956 628.528 106.956Z" fill="white" stroke="#263238" stroke-width="0.932567" stroke-linecap="round" stroke-linejoin="round"/>
<path d="M534.872 165.641L535.384 169.765L524.881 170.258L525.759 166.124L534.872 165.641Z" fill="#FF993B" stroke="#263238" stroke-width="0.932567" stroke-linecap="round" stroke-linejoin="round"/>
<path d="M552.682 200.31C552.682 200.31 534.447 217.09 530.238 217.351C529.205 217.418 528.308 218.065 527.439 217.476C525.508 216.162 522.718 213.38 523.124 202.078C523.336 195.896 527.072 170.132 527.072 170.132L533.829 169.833L535.47 198.813C541.262 192.804 551.331 184.478 551.34 184.478C554.487 194.543 552.682 200.31 552.682 200.31Z" fill="#823838" stroke="#263238" stroke-width="0.932567" stroke-linecap="round" stroke-linejoin="round"/>
<path d="M598.671 223.639C599.126 221.635 599.99 219.747 601.21 218.094L598.671 223.639Z" fill="white"/>
<path d="M598.671 223.639C599.126 221.635 599.99 219.747 601.21 218.094" stroke="#263238" stroke-width="0.932567" stroke-linecap="round" stroke-linejoin="round"/>
<path d="M533.404 205.633C534.109 205.314 535.789 202.175 535.441 196.813" stroke="#263238" stroke-width="0.932567" stroke-linecap="round" stroke-linejoin="round"/>
<path d="M539.882 136.815V125.271C539.884 124.713 540.107 124.179 540.501 123.785C540.895 123.39 541.429 123.168 541.986 123.165H560.096C560.653 123.168 561.187 123.39 561.581 123.785C561.975 124.179 562.198 124.713 562.2 125.271V136.815C562.2 137.373 561.979 137.909 561.584 138.304C561.189 138.699 560.654 138.92 560.096 138.92H553.792L554.294 143.316H551.041V147.47L547.18 140.708H550.336L550.008 138.93H541.977C541.7 138.929 541.427 138.873 541.172 138.766C540.917 138.659 540.686 138.503 540.491 138.307C540.297 138.11 540.143 137.877 540.038 137.621C539.934 137.365 539.881 137.091 539.882 136.815Z" fill="white" stroke="#263238" stroke-width="0.932567" stroke-linecap="round" stroke-linejoin="round"/>
<path d="M555.578 127.116H543.338" stroke="#263238" stroke-width="0.932567" stroke-linecap="round" stroke-linejoin="round"/>
<path d="M558.745 130.391H543.338" stroke="#263238" stroke-width="0.932567" stroke-linecap="round" stroke-linejoin="round"/>
<path d="M556.37 133.656H543.338" stroke="#263238" stroke-width="0.932567" stroke-linecap="round" stroke-linejoin="round"/>
<path d="M137.116 422.529C162.009 422.529 182.188 419.557 182.188 415.892C182.188 412.227 162.009 409.256 137.116 409.256C112.224 409.256 92.0449 412.227 92.0449 415.892C92.0449 419.557 112.224 422.529 137.116 422.529Z" fill="#46B2C8"/>
<path d="M133.168 310.135C176.518 310.135 211.659 274.969 211.659 231.589C211.659 188.21 176.518 153.044 133.168 153.044C89.8185 153.044 54.6768 188.21 54.6768 231.589C54.6768 274.969 89.8185 310.135 133.168 310.135Z" fill="#46B2C8"/>
<path d="M96.9672 282.951C96.9672 282.951 98.9655 294.543 92.2178 307.575H176.598C176.598 307.575 172.736 301.498 168.691 282.951H96.9672Z" fill="white" stroke="#263238" stroke-width="0.87381" stroke-linecap="round" stroke-linejoin="round"/>
<path d="M116.207 285.627C111.588 285.997 107.161 287.636 103.414 290.363C99.6663 293.09 96.7442 296.8 94.9692 301.083C94.0618 303.285 93.1158 305.516 92.218 307.603C87.0824 319.494 91.938 336.796 105.067 336.796H165.265C177.167 336.796 180.42 321.716 177.573 310.356C175.739 303.053 172.041 295.721 165.728 290.582C157.291 283.675 132.636 284.313 116.207 285.627Z" fill="#263238" stroke="#263238" stroke-width="0.87381" stroke-linecap="round" stroke-linejoin="round"/>
<path d="M58.7307 272.866C58.7307 272.866 47.9382 279.396 47.5811 282.951H60.8158L66.0768 279.174L64.3006 282.97H68.3261C68.3261 282.97 72.6025 279.647 72.8342 275.967L72.3998 272.866L64.6771 269.427L58.7307 272.866Z" fill="white" stroke="#263238" stroke-width="0.87381" stroke-linecap="round" stroke-linejoin="round"/>
<path d="M206.438 253.797C206.438 253.797 204.71 242.427 200.916 226.053C197.122 209.68 189.708 208.395 189.708 208.395H189.641C179.987 204.241 154.889 202 154.889 202H153.73C153.73 202 128.574 204.241 118.978 208.395H118.911C118.911 208.395 111.429 209.709 107.636 226.053C103.842 242.398 102.104 253.797 102.104 253.797C102.104 253.797 95.2505 255.652 82.9135 271.185C80.9766 273.648 79.328 276.325 78 279.164C78 279.164 87.4796 276.044 94.1211 280.826C94.1211 280.826 115.88 271.591 116.971 261.853C116.971 261.506 117.057 261.119 117.106 260.704C117.723 275.484 118.254 287.829 118.254 287.829H190.288C190.288 287.829 190.828 275.484 191.446 260.704C191.446 261.119 191.533 261.506 191.571 261.853C192.672 271.591 216.757 282.506 216.757 282.506C223.36 272.344 232.946 277.957 232.946 277.957L206.438 253.797Z" fill="white"/>
<path opacity="0.3" d="M95.6834 256.956C95.6834 256.666 95.7607 256.338 95.7993 255.99L94.2258 221.784C94.2258 221.784 89.8818 222.673 91.1271 233.173C92.3723 243.674 94.9884 241.867 93.5307 245.915C92.0731 249.962 86.4162 245.326 84.5435 248.813C82.6707 252.3 95.0077 251.556 89.9107 260.54C84.8138 269.524 72.834 275.996 72.834 275.996C72.834 275.996 94.6023 266.713 95.6834 256.956Z" fill="black"/>
<g opacity="0.3">
<path d="M170.622 256.956C170.622 256.666 173.46 257.169 170.622 256.956L171.481 227.677C171.481 227.677 171.269 241.838 172.784 245.915C174.3 249.991 179.899 245.326 181.762 248.813C183.625 252.3 171.298 251.556 176.404 260.54C181.511 269.524 193.472 275.996 193.472 275.996C193.472 275.996 171.723 266.713 170.622 256.956Z" fill="black"/>
</g>
<path opacity="0.3" d="M169.522 263.622C169.049 274.702 168.692 282.942 168.692 282.942H103.928C147.368 282.942 169.57 263.622 169.57 263.622H169.522Z" fill="black"/>
<path d="M185.15 248.88C185.15 248.88 183.423 237.51 179.629 221.136C175.835 204.763 168.421 203.478 168.421 203.478H168.354C158.7 199.324 133.602 197.083 133.602 197.083H132.443C132.443 197.083 107.287 199.324 97.6913 203.478H97.6237C97.6237 203.478 90.1424 204.792 86.3486 221.136C82.5549 237.481 80.8173 248.88 80.8173 248.88C80.8173 248.88 73.9634 250.735 61.6264 266.268C59.6895 268.731 58.0409 271.408 56.7129 274.247V274.247C56.7129 274.247 66.1925 271.127 72.834 275.909C72.834 275.909 94.5926 266.674 95.6834 256.936C95.6834 256.589 95.7703 256.202 95.8185 255.787C96.4364 270.567 96.9673 282.912 96.9673 282.912H169C169 282.912 169.541 270.567 170.159 255.787C170.159 256.202 170.246 256.589 170.284 256.936C171.385 266.674 195.47 277.589 195.47 277.589C202.073 267.427 211.659 273.04 211.659 273.04L185.15 248.88Z" stroke="#263238" stroke-width="0.87381" stroke-linecap="round" stroke-linejoin="round"/>
<path d="M83.125 248.813C86.5986 248.638 90.0032 249.827 92.6142 252.126" stroke="#263238" stroke-width="0.87381" stroke-linecap="round" stroke-linejoin="round"/>
<path d="M89.9111 222.807C89.9111 222.807 94.371 223.774 95.3942 245.47L94.0524 216.992" stroke="#263238" stroke-width="0.87381" stroke-linecap="round" stroke-linejoin="round"/>
<path d="M95.4521 248.484L95.6549 252.88" stroke="#263238" stroke-width="0.87381" stroke-linecap="round" stroke-linejoin="round"/>
<path d="M182.853 248.813C179.386 248.625 175.983 249.796 173.364 252.078" stroke="#263238" stroke-width="0.87381" stroke-linecap="round" stroke-linejoin="round"/>
<path d="M171.655 222.808C171.739 220.876 171.829 218.944 171.926 217.012" stroke="#263238" stroke-width="0.87381" stroke-linecap="round" stroke-linejoin="round"/>
<path d="M146.509 198.648C145.341 204.502 139.684 206.618 132.869 206.618C126.053 206.618 120.416 204.512 119.229 198.677H119.499C120.205 198.581 120.865 198.273 121.392 197.793C121.92 197.314 122.289 196.686 122.453 195.992C122.547 195.715 122.596 195.424 122.598 195.132V188.264H143.449V195.132C143.446 195.561 143.525 195.987 143.68 196.388C143.905 196.984 144.287 197.509 144.784 197.907C145.282 198.305 145.878 198.561 146.509 198.648Z" fill="#FFBE9D"/>
<path d="M143.275 193.403C139.819 196.803 135.967 198.919 132.251 199.083C128.39 199.257 123.91 196.088 122.086 192.978C122.161 192.707 122.197 192.428 122.192 192.147V190.041L143.043 190.263V192.147C143.043 192.591 143.574 193.113 143.275 193.403Z" fill="#263238"/>
<path d="M146.509 198.648C145.341 204.502 139.684 206.618 132.869 206.618C126.053 206.618 120.416 204.512 119.229 198.677H119.499C120.205 198.581 120.865 198.273 121.392 197.793C121.92 197.314 122.289 196.686 122.453 195.992C122.547 195.715 122.596 195.424 122.598 195.132V188.264H143.449V195.132C143.446 195.561 143.525 195.987 143.68 196.388C143.905 196.984 144.287 197.509 144.784 197.907C145.282 198.305 145.878 198.561 146.509 198.648V198.648Z" stroke="#263238" stroke-width="0.87381" stroke-linecap="round" stroke-linejoin="round"/>
<path d="M117.635 173.513C117.635 173.513 110.405 165.331 111.351 154.058C112.297 142.785 121.545 142.785 121.545 142.785C121.545 142.785 132.695 132.941 145.138 139.104C157.581 145.267 156.722 166.635 147.512 171.948L117.635 173.513Z" fill="#263238"/>
<path d="M149.51 168.007C149.607 166.133 149.597 164.973 149.597 164.973C148.767 159.989 142.676 159.487 139.876 159.4C128.148 159.004 125.059 151.807 125.059 151.807C117.944 149.672 115.926 164.973 115.926 164.973C115.926 164.973 115.926 166.133 116.023 168.007C114.766 168.247 113.638 168.931 112.844 169.935C112.05 170.939 111.643 172.195 111.698 173.474C111.698 176.527 113.899 178.99 116.622 178.99C116.897 178.989 117.171 178.963 117.442 178.913L118.716 186.1C118.958 187.713 120.473 191.529 121.834 192.437C124.73 194.369 129.316 197.122 132.762 197.122C135.735 197.122 139.905 194.668 142.985 192.997C144.703 192.031 146.595 188.331 146.759 186.39L147.56 179.125C148.013 179.104 148.464 179.059 148.912 178.99C151.624 178.99 153.835 176.527 153.835 173.474C153.89 172.195 153.484 170.939 152.69 169.935C151.896 168.931 150.767 168.247 149.51 168.007Z" fill="#FFBE9D" stroke="#263238" stroke-width="0.87381" stroke-linecap="round" stroke-linejoin="round"/>
<path d="M113.591 163.37H112.316V167.91H113.591V163.37Z" fill="white" stroke="#263238" stroke-width="0.87381" stroke-linecap="round" stroke-linejoin="round"/>
<path d="M152.522 163.37H151.248V167.91H152.522V163.37Z" fill="white" stroke="#263238" stroke-width="0.87381" stroke-linecap="round" stroke-linejoin="round"/>
<path d="M132.414 143.538C126.995 143.537 121.787 145.64 117.885 149.403C113.984 153.167 111.693 158.298 111.496 163.718C111.492 163.819 111.508 163.919 111.545 164.014C111.581 164.108 111.636 164.194 111.706 164.266C111.777 164.338 111.861 164.396 111.954 164.434C112.048 164.473 112.148 164.492 112.249 164.491H113.6C113.797 164.491 113.985 164.414 114.126 164.277C114.266 164.14 114.348 163.953 114.353 163.756C114.568 159.108 116.565 154.72 119.928 151.506C123.292 148.292 127.764 146.499 132.414 146.499C137.065 146.499 141.537 148.292 144.901 151.506C148.264 154.72 150.261 159.108 150.476 163.756C150.483 163.954 150.567 164.141 150.709 164.277C150.851 164.414 151.041 164.491 151.238 164.491H152.58C152.682 164.492 152.782 164.473 152.876 164.434C152.97 164.396 153.055 164.339 153.126 164.267C153.197 164.194 153.253 164.109 153.29 164.014C153.328 163.92 153.345 163.819 153.343 163.718C153.143 158.298 150.85 153.166 146.947 149.403C143.044 145.639 137.835 143.537 132.414 143.538Z" fill="#BEC8F7" stroke="#263238" stroke-width="0.87381" stroke-linecap="round" stroke-linejoin="round"/>
<path d="M115.763 166.277H115.473C113.764 166.343 112.147 167.068 110.962 168.301C109.776 169.534 109.113 171.178 109.113 172.89C109.113 174.601 109.776 176.245 110.962 177.478C112.147 178.711 113.764 179.437 115.473 179.502H115.763V166.277Z" fill="#263238" stroke="#263238" stroke-width="0.87381" stroke-miterlimit="10"/>
<path d="M117.336 172.914C117.336 177.812 117.549 181 115.859 181C114.17 181 113.591 177.812 113.591 172.914C113.591 168.017 114.17 164.819 115.859 164.819C117.549 164.819 117.336 167.969 117.336 172.914Z" fill="#BEC8F7" stroke="#263238" stroke-width="0.87381" stroke-linecap="round" stroke-linejoin="round"/>
<path d="M149.076 166.277H149.366C151.075 166.343 152.692 167.068 153.877 168.301C155.063 169.534 155.726 171.178 155.726 172.89C155.726 174.601 155.063 176.245 153.877 177.478C152.692 178.711 151.075 179.437 149.366 179.502H149.076V166.277Z" fill="#263238" stroke="#263238" stroke-width="0.87381" stroke-miterlimit="10"/>
<path d="M147.493 172.914C147.493 177.812 147.29 181 148.98 181C150.669 181 151.248 177.812 151.248 172.914C151.248 168.017 150.669 164.819 148.98 164.819C147.29 164.819 147.493 167.969 147.493 172.914Z" fill="#BEC8F7" stroke="#263238" stroke-width="0.87381" stroke-linecap="round" stroke-linejoin="round"/>
<path d="M121.12 174.103C121.12 174.103 123.871 177.493 129.026 174.817" stroke="#263238" stroke-width="0.87381" stroke-linecap="round" stroke-linejoin="round"/>
<path d="M129.026 187.288C130.164 188.115 131.534 188.561 132.941 188.561C134.347 188.561 135.717 188.115 136.855 187.288" stroke="#263238" stroke-width="0.75" stroke-linecap="round" stroke-linejoin="round"/>
<path d="M120.357 169.553C120.357 169.553 125.348 165.747 129.789 169.553" stroke="#263238" stroke-width="0.87381" stroke-linecap="round" stroke-linejoin="round"/>
<path d="M144.868 169.678C144.868 169.678 139.877 165.814 135.437 169.678" stroke="#263238" stroke-width="0.87381" stroke-linecap="round" stroke-linejoin="round"/>
<path d="M136.566 181.956C136.566 181.956 137.01 184.429 132.482 184.371C131.372 184.371 129.355 183.579 129.287 181.956" stroke="#263238" stroke-width="0.75" stroke-linecap="round" stroke-linejoin="round"/>
<path d="M122.201 175.001C122.616 175.822 123.553 176.769 125.647 176.817C127.742 176.865 128.109 176.035 128.148 175.223C127.214 175.676 126.184 175.893 125.147 175.855C124.11 175.816 123.098 175.523 122.201 175.001Z" fill="#263238"/>
<path d="M144.143 174.103C144.143 174.103 141.392 177.493 136.237 174.817" stroke="#263238" stroke-width="0.87381" stroke-linecap="round" stroke-linejoin="round"/>
<path d="M143.063 175.001C142.648 175.822 141.711 176.769 139.616 176.817C137.522 176.865 137.155 176.035 137.116 175.223C138.049 175.677 139.08 175.895 140.117 175.856C141.154 175.817 142.166 175.523 143.063 175.001Z" fill="#263238"/>
<path d="M123.92 138.08C123.92 138.08 121.381 139.5 121.661 143.538C121.661 143.538 120.773 140.814 117.51 142.002" stroke="#263238" stroke-width="0.87381" stroke-linecap="round" stroke-linejoin="round"/>
<path d="M132.984 209.622C136.312 209.621 139.557 208.592 142.277 206.674C144.997 204.756 147.058 202.044 148.179 198.909C147.3 198.774 146.432 198.658 145.592 198.542C144.269 200.698 142.416 202.478 140.209 203.713C138.003 204.948 135.517 205.597 132.989 205.597C130.461 205.597 127.975 204.948 125.769 203.713C123.563 202.478 121.71 200.698 120.387 198.542C119.547 198.658 118.678 198.774 117.8 198.909C118.92 202.043 120.979 204.754 123.697 206.671C126.415 208.589 129.659 209.619 132.984 209.622Z" fill="#263238" stroke="#263238" stroke-width="0.87381" stroke-linecap="round" stroke-linejoin="round"/>
<path d="M170.159 255.826C170.584 246.411 171.012 236.992 171.443 227.57" stroke="#263238" stroke-width="0.87381" stroke-linecap="round" stroke-linejoin="round"/>
<path d="M170.478 159.593V149.189C170.478 148.676 170.274 148.185 169.912 147.823C169.55 147.46 169.059 147.257 168.547 147.257H152.271C151.759 147.257 151.268 147.46 150.906 147.823C150.544 148.185 150.341 148.676 150.341 149.189V159.593C150.341 160.105 150.544 160.596 150.906 160.959C151.268 161.321 151.759 161.525 152.271 161.525H157.948L157.494 165.485H160.39V169.224L163.855 163.128H161.008L161.307 161.525H168.537C168.792 161.526 169.044 161.477 169.279 161.38C169.515 161.284 169.728 161.142 169.909 160.962C170.089 160.783 170.232 160.569 170.33 160.334C170.427 160.099 170.478 159.847 170.478 159.593Z" fill="white" stroke="#263238" stroke-width="0.87381" stroke-linecap="round" stroke-linejoin="round"/>
<path d="M153.488 150.86H164.522" stroke="#263238" stroke-width="0.87381" stroke-linecap="round" stroke-linejoin="round"/>
<path d="M153.488 153.807H167.36" stroke="#263238" stroke-width="0.87381" stroke-linecap="round" stroke-linejoin="round"/>
<path d="M153.488 156.753H165.227" stroke="#263238" stroke-width="0.87381" stroke-linecap="round" stroke-linejoin="round"/>
<path d="M220.482 277.919C220.482 280.99 215.656 282.913 209.728 282.913C203.801 282.913 198.975 280.981 198.975 277.919C198.975 274.856 203.801 272.345 209.728 272.345C215.656 272.345 220.482 274.837 220.482 277.919Z" fill="#115766" stroke="#263238" stroke-width="0.87381" stroke-linecap="round" stroke-linejoin="round"/>
<path d="M202.769 281.802C203.058 281.734 203.29 280.111 200.674 278.904C198.859 278.073 198.811 277.194 199.853 276.112C200.896 275.03 202.672 274.122 204.043 274.518C206.273 275.156 207.75 279.802 208.744 278.797C210.24 278.411 208.435 274.151 205.761 272.75C210.588 273.948 210.82 279.512 213.04 279.068C214.739 278.739 211.804 273.214 209.265 271.581C210.892 272.34 212.315 273.476 213.416 274.895C215.028 277.242 215.212 278.034 216.312 277.696C217.741 277.242 214.333 272.084 213.909 271.523C216.052 272.373 216.457 274.17 217.114 274.895C217.77 275.619 218.079 276.827 218.986 276.353C219.894 275.88 219.054 274.199 218.446 273.214C215.55 268.529 210.723 267.746 206.128 268.326C202.498 268.79 198.328 270.316 196.118 273.214C195.555 273.936 195.225 274.812 195.169 275.726C195.114 276.64 195.337 277.549 195.809 278.334C196.581 279.966 199.342 282.574 202.769 281.802Z" fill="#FFBE9D" stroke="#263238" stroke-width="0.87381" stroke-linecap="round" stroke-linejoin="round"/>
<path d="M223.301 282.951H45.651C45.1232 282.951 44.6953 283.379 44.6953 283.908V285.443C44.6953 285.972 45.1232 286.4 45.651 286.4H223.301C223.829 286.4 224.257 285.972 224.257 285.443V283.908C224.257 283.379 223.829 282.951 223.301 282.951Z" fill="#BFBFBF" stroke="#263238" stroke-width="0.87381" stroke-miterlimit="10"/>
<path d="M50.8634 282.951L37.7928 243.2C37.7435 243.045 37.7307 242.881 37.7554 242.72C37.7801 242.56 37.8416 242.407 37.9351 242.274C38.0286 242.141 38.1515 242.032 38.2943 241.955C38.4371 241.877 38.5958 241.834 38.7581 241.828H80.0454L94.7474 282.951H50.8634Z" fill="#263238"/>
<path d="M81.1748 241.828L94.6895 280.642H130.889V282.004C130.889 282.26 130.788 282.506 130.607 282.687C130.426 282.868 130.18 282.97 129.924 282.97H92.3727L79.3696 243.432C79.312 243.254 79.297 243.065 79.3258 242.881C79.3546 242.697 79.4265 242.521 79.5355 242.37C79.6446 242.219 79.7878 242.095 79.9535 242.009C80.1192 241.923 80.3028 241.878 80.4894 241.876L81.1748 241.828Z" fill="white" stroke="#263238" stroke-width="0.87381" stroke-linecap="round" stroke-linejoin="round"/>
<path d="M62.0031 262.395C61.8756 261.72 61.5612 261.094 61.0957 260.589C61.2978 260.35 61.5512 260.16 61.8371 260.033C62.1229 259.905 62.4338 259.845 62.7464 259.855C63.4761 259.886 64.1756 260.154 64.7385 260.62C65.3013 261.086 65.6967 261.723 65.8645 262.434C65.9537 262.742 65.9683 263.067 65.9071 263.382C65.8459 263.696 65.7107 263.992 65.5125 264.244C65.3144 264.496 65.0591 264.698 64.7678 264.831C64.4764 264.965 64.1574 265.027 63.8372 265.013C63.097 264.996 62.3862 264.719 61.8294 264.231C62.1078 263.66 62.1695 263.008 62.0031 262.395Z" fill="white"/>
<path d="M145.65 282.951H158.846C160.604 281.663 162.028 279.973 163 278.022C163.973 276.071 164.465 273.916 164.435 271.736V265.524C164.435 265.288 164.389 265.055 164.298 264.837C164.208 264.619 164.076 264.421 163.909 264.254C163.742 264.087 163.544 263.955 163.327 263.864C163.109 263.774 162.875 263.728 162.639 263.728H141.904C141.669 263.728 141.436 263.774 141.218 263.864C141.001 263.955 140.804 264.087 140.638 264.254C140.472 264.421 140.341 264.619 140.251 264.837C140.162 265.055 140.117 265.289 140.118 265.524V271.736C140.081 273.911 140.564 276.063 141.526 278.014C142.488 279.965 143.902 281.657 145.65 282.951Z" fill="#CF6868" stroke="#263238" stroke-width="0.87381" stroke-linecap="round" stroke-linejoin="round"/>
<path d="M168.265 266.585C167.709 266.235 167.072 266.035 166.415 266.004C165.759 265.974 165.106 266.114 164.52 266.411V268.652C165.091 268.556 165.679 268.673 166.17 268.981C168.033 270.063 167.638 272.275 166.334 274.526C165.738 275.801 164.713 276.827 163.438 277.424C163.057 278.353 162.575 279.237 162 280.061C164.481 280.602 166.749 278.496 168.526 275.424C170.611 271.811 171.238 268.304 168.265 266.585Z" fill="#CF6868" stroke="#263238" stroke-width="0.87381" stroke-linecap="round" stroke-linejoin="round"/>
<path d="M152.522 253.942C153.002 252.378 153.24 250.749 153.227 249.112C153.227 240.032 144.693 238.959 144.693 228.643" stroke="#263238" stroke-width="0.87381" stroke-linecap="round" stroke-linejoin="round"/>
<path d="M146.47 261.951C148.015 260.987 149.352 259.722 150.399 258.231" stroke="#263238" stroke-width="0.87381" stroke-linecap="round" stroke-linejoin="round"/>
<path d="M151.779 237.298C151.302 236.412 151.104 235.402 151.209 234.4" stroke="#263238" stroke-width="0.87381" stroke-linecap="round" stroke-linejoin="round"/>
<path d="M158.431 250.049C157.996 247.209 156.365 244.543 154.753 242.118" stroke="#263238" stroke-width="0.87381" stroke-linecap="round" stroke-linejoin="round"/>
<path d="M153.488 262.056C153.488 262.056 156.307 260.868 157.852 255.507" stroke="#263238" stroke-width="0.87381" stroke-linecap="round" stroke-linejoin="round"/>
<path d="M170.729 336.767H98.4445C93.1664 336.767 88.8877 341.048 88.8877 346.33V394.147C88.8877 399.429 93.1664 403.71 98.4445 403.71H170.729C176.007 403.71 180.285 399.429 180.285 394.147V346.33C180.285 341.048 176.007 336.767 170.729 336.767Z" fill="white" stroke="#263238" stroke-width="0.87381" stroke-miterlimit="10"/>
<path d="M112 383L113.091 402.098L113.216 402.262C114.08 403.422 115.206 404.362 116.501 405.004C117.797 405.645 119.226 405.972 120.672 405.956C122.118 405.94 123.539 405.582 124.82 404.911C126.101 404.241 127.206 403.277 128.044 402.098L128.449 383H112Z" fill="#FFBE9D" stroke="#263238" stroke-width="0.87381" stroke-linecap="round" stroke-linejoin="round"/>
<path d="M131.797 420.587C124.475 421.872 116.985 421.872 109.662 420.587C108.979 419.91 108.391 419.143 107.915 418.307C107.175 416.989 106.757 415.514 106.695 414.003C106.633 412.492 106.928 410.988 107.558 409.613L111.969 401.74L129.452 401.933L133.39 409.12C134.335 410.826 134.742 412.778 134.558 414.719C134.374 416.661 133.606 418.501 132.357 419.998C132.181 420.204 131.994 420.4 131.797 420.587Z" fill="#BFBFBF" stroke="#263238" stroke-width="0.87381" stroke-miterlimit="10"/>
<path d="M127.501 410.676C128.582 411.152 129.614 411.734 130.58 412.415L127.501 410.676Z" fill="#BFBFBF"/>
<path d="M127.501 410.676C128.582 411.152 129.614 411.734 130.58 412.415" stroke="#263238" stroke-width="0.87381" stroke-miterlimit="10"/>
<path d="M111.014 412.414C112.932 411.1 115.093 410.18 117.37 409.707C119.647 409.235 121.994 409.219 124.277 409.661" fill="#BFBFBF"/>
<path d="M111.014 412.414C112.932 411.1 115.093 410.18 117.37 409.707C119.647 409.235 121.994 409.219 124.277 409.661" stroke="#263238" stroke-width="0.87381" stroke-miterlimit="10"/>
<path d="M102.325 304.01L110.048 392.573H130.021C130.021 392.573 132 338.477 133.255 303.353C133.337 301.269 132.997 299.19 132.255 297.242C131.513 295.293 130.385 293.515 128.938 292.014C127.492 290.513 125.756 289.321 123.837 288.509C121.918 287.697 119.854 287.281 117.771 287.288C115.631 287.281 113.514 287.719 111.553 288.573C109.591 289.428 107.829 290.681 106.377 292.253C104.924 293.825 103.815 295.682 103.117 297.706C102.42 299.729 102.15 301.876 102.325 304.01Z" fill="#263238"/>
<path d="M122.202 287.916C120.747 287.489 119.238 287.278 117.722 287.288V287.288C115.587 287.288 113.475 287.731 111.519 288.588C109.564 289.446 107.807 290.7 106.36 292.271C104.913 293.842 103.808 295.697 103.113 297.717C102.419 299.738 102.15 301.88 102.325 304.01L105.067 336.767" stroke="white" stroke-width="0.87381" stroke-linecap="round" stroke-linejoin="round"/>
<path d="M130.542 293.954C129.751 292.829 128.82 291.81 127.772 290.921C127.772 290.921 126.565 289.955 126.024 289.646" stroke="white" stroke-width="0.87381" stroke-linecap="round" stroke-linejoin="round"/>
<path d="M131.932 336.767C132.327 325.803 132.945 312.974 133.283 303.353C133.375 300.964 132.913 298.587 131.932 296.407" stroke="white" stroke-width="0.87381" stroke-linecap="round" stroke-linejoin="round"/>
<path d="M144.23 382.826L145.321 401.924L145.447 402.088C146.311 403.248 147.436 404.188 148.732 404.83C150.028 405.472 151.457 405.798 152.902 405.782C154.348 405.766 155.769 405.408 157.051 404.738C158.332 404.067 159.436 403.103 160.274 401.924L160.68 382.826H144.23Z" fill="#FFBE9D" stroke="#263238" stroke-width="0.87381" stroke-linecap="round" stroke-linejoin="round"/>
<path d="M164.29 420.587C156.967 421.872 149.477 421.872 142.155 420.587C141.473 419.911 140.888 419.144 140.417 418.307C139.673 416.99 139.252 415.516 139.188 414.004C139.124 412.493 139.42 410.988 140.05 409.613L144.471 401.74L161.944 401.933L165.882 409.12C166.828 410.826 167.235 412.778 167.05 414.719C166.866 416.661 166.099 418.501 164.85 419.998C164.673 420.204 164.486 420.4 164.29 420.587Z" fill="#BFBFBF" stroke="#263238" stroke-width="0.87381" stroke-miterlimit="10"/>
<path d="M159.994 410.676C161.077 411.15 162.108 411.732 163.074 412.415L159.994 410.676Z" fill="#BFBFBF"/>
<path d="M159.994 410.676C161.077 411.15 162.108 411.732 163.074 412.415" stroke="#263238" stroke-width="0.87381" stroke-miterlimit="10"/>
<path d="M143.525 412.415C145.444 411.101 147.605 410.181 149.882 409.708C152.158 409.236 154.506 409.22 156.789 409.662" fill="#BFBFBF"/>
<path d="M143.525 412.415C145.444 411.101 147.605 410.181 149.882 409.708C152.158 409.236 154.506 409.22 156.789 409.662" stroke="#263238" stroke-width="0.87381" stroke-miterlimit="10"/>
<path d="M134.848 304.01L142.57 392.573H162.543C162.543 392.573 164.522 338.477 165.787 303.353C165.862 301.264 165.515 299.182 164.766 297.232C164.017 295.281 162.882 293.502 161.428 292.001C159.975 290.501 158.233 289.31 156.308 288.5C154.383 287.69 152.314 287.278 150.226 287.288C148.092 287.29 145.982 287.735 144.029 288.594C142.075 289.453 140.321 290.707 138.876 292.278C137.431 293.849 136.327 295.703 135.634 297.722C134.941 299.741 134.673 301.882 134.848 304.01Z" fill="#263238"/>
<path d="M156.597 288.621C154.592 287.729 152.42 287.275 150.226 287.288C148.092 287.291 145.982 287.735 144.029 288.594C142.075 289.453 140.321 290.707 138.876 292.278C137.431 293.849 136.327 295.703 135.634 297.722C134.941 299.741 134.673 301.882 134.848 304.01L137.744 336.767" stroke="white" stroke-width="0.87381" stroke-linecap="round" stroke-linejoin="round"/>
<path d="M163.035 293.954C162.249 292.825 161.318 291.805 160.265 290.921" stroke="white" stroke-width="0.87381" stroke-linecap="round" stroke-linejoin="round"/>
<path d="M165.265 336.767C165.661 325.803 165.439 312.975 165.787 303.353C165.865 301.24 165.51 299.132 164.744 297.161" stroke="white" stroke-width="0.87381" stroke-linecap="round" stroke-linejoin="round"/>
<path d="M401.82 153.275V112.056C401.82 110.062 401.028 108.151 399.62 106.741C398.212 105.332 396.301 104.54 394.309 104.54H329.69C327.698 104.54 325.788 105.332 324.379 106.741C322.971 108.151 322.18 110.062 322.18 112.056V153.275C322.18 155.268 322.971 157.18 324.379 158.589C325.788 159.998 327.698 160.79 329.69 160.79H352.192L350.416 176.478H362V191.268L375.746 167.118H364.471L365.658 160.781H394.309C396.3 160.781 398.208 159.99 399.617 158.583C401.025 157.175 401.817 155.266 401.82 153.275Z" fill="white" stroke="#263238" stroke-width="1.02547" stroke-linecap="round" stroke-linejoin="round"/>
<path d="M334.517 118.644H378.208" stroke="#263238" stroke-width="1.02547" stroke-linecap="round" stroke-linejoin="round"/>
<path d="M334.517 130.322H389.483" stroke="#263238" stroke-width="1.02547" stroke-linecap="round" stroke-linejoin="round"/>
<path d="M334.517 142.002H381.026" stroke="#263238" stroke-width="1.02547" stroke-linecap="round" stroke-linejoin="round"/>
<path d="M451.178 329.772L490.216 342.794L480.534 352.493L498.605 370.576L459.566 357.555L469.249 347.856L451.178 329.772Z" fill="#FF993C" stroke="#263238" stroke-width="1.02547" stroke-linecap="round" stroke-linejoin="round"/>
<path d="M272.822 329.772L233.784 342.794L243.467 352.493L225.396 370.576L264.434 357.555L254.751 347.856L272.822 329.772Z" fill="#FF993C" stroke="#263238" stroke-width="1.02547" stroke-linecap="round" stroke-linejoin="round"/>
<path d="M360.909 31.0469L342.5 67.8901H356.208V93.4698L374.607 56.6266H360.909V31.0469Z" fill="#FF993C" stroke="#263238" stroke-width="1.02547" stroke-linecap="round" stroke-linejoin="round"/>
</svg>
