<svg width="629" height="629" viewBox="0 0 629 629" fill="none" xmlns="http://www.w3.org/2000/svg">
<path d="M548.048 381.161H542.727H301.845H296.523V391.829H301.845V500.256H542.727V391.829H548.048V381.161Z" fill="#46B2C8"/>
<path opacity="0.5" d="M548.048 381.161H542.727H301.845H296.523V391.829H301.845V500.256H542.727V391.829H548.048V381.161Z" fill="white"/>
<path d="M308.298 437.784H373.991V402.711H308.298V437.784ZM309.631 404.007H372.657V436.526H309.631V404.007Z" fill="white"/>
<path d="M389.88 437.784H455.585V402.711H389.88V437.784ZM391.239 404.044H454.277V436.526H391.239V404.044Z" fill="white"/>
<path d="M471.474 402.711V437.784H537.166V402.711H471.474ZM535.833 436.526H472.807V404.044H535.833V436.526Z" fill="white"/>
<path d="M308.298 484.934H373.991V449.823H308.298V484.934ZM309.631 451.157H372.657V483.601H309.631V451.157Z" fill="white"/>
<path d="M389.88 484.934H455.585V449.823H389.88V484.934ZM391.239 451.157H454.277V483.601H391.239V451.157Z" fill="white"/>
<path d="M471.474 484.934H537.166V449.823H471.474V484.934ZM472.807 451.157H535.833V483.601H472.807V451.157Z" fill="white"/>
<path d="M341.849 424.713C347.741 424.713 352.517 422.922 352.517 420.712C352.517 418.503 347.741 416.712 341.849 416.712C335.958 416.712 331.182 418.503 331.182 420.712C331.182 422.922 335.958 424.713 341.849 424.713Z" fill="white"/>
<path d="M423.041 424.713C428.933 424.713 433.709 422.922 433.709 420.712C433.709 418.503 428.933 416.712 423.041 416.712C417.149 416.712 412.373 418.503 412.373 420.712C412.373 422.922 417.149 424.713 423.041 424.713Z" fill="white"/>
<path d="M506.584 424.713C512.476 424.713 517.252 422.922 517.252 420.712C517.252 418.503 512.476 416.712 506.584 416.712C500.692 416.712 495.916 418.503 495.916 420.712C495.916 422.922 500.692 424.713 506.584 424.713Z" fill="white"/>
<path d="M341.849 463.824C335.962 463.824 331.182 465.611 331.182 467.825C331.182 470.039 335.962 471.812 341.849 471.812C347.737 471.812 352.517 470.026 352.517 467.825C352.517 465.623 347.737 463.824 341.849 463.824Z" fill="white"/>
<path d="M423.041 463.824C417.153 463.824 412.373 465.611 412.373 467.825C412.373 470.039 417.153 471.812 423.041 471.812C428.928 471.812 433.709 470.026 433.709 467.825C433.709 465.623 428.979 463.824 423.041 463.824Z" fill="white"/>
<path d="M506.584 463.824C500.697 463.824 495.929 465.611 495.929 467.825C495.929 470.039 500.697 471.812 506.584 471.812C512.471 471.812 517.252 470.026 517.252 467.825C517.252 465.623 512.484 463.824 506.584 463.824Z" fill="white"/>
<path d="M266.923 371.839C262.067 379.048 255.299 388.42 251.688 395.943C253.06 390.986 254.406 386.294 255.626 382.105C257.475 378.469 262.432 369.298 268.206 363.235C275.465 355.46 278.572 350.466 274.659 350.038C271.955 349.736 264.029 360.291 259.06 370.77C260.142 367.185 260.998 364.48 261.576 362.857C261.815 362.128 262.042 361.335 262.268 360.492C267.408 353.301 272.089 345.793 276.282 338.012C283.616 324.312 285.981 311.38 281.088 316.94C276.584 322.06 268.747 347.522 262.52 359.498C263.048 357.435 263.551 355.158 263.992 352.906C264.872 350.73 266.03 348.516 266.684 346.503C267.703 343.408 268.596 340.289 269.313 337.106C270.496 332.161 271.095 327.094 271.099 322.01C271.226 316.038 269.599 310.16 266.42 305.102C265.577 303.844 260.419 296.133 258.872 300.07C258.67 300.726 258.631 301.421 258.758 302.096C259.513 308.65 261.891 314.676 263.363 321.054C265.564 330.602 264.105 346.629 263.363 353.447C263.086 354.529 262.734 355.863 262.319 357.41C263.337 345.534 258.192 331.457 253.424 328.992C247.524 325.947 253.311 337.898 257.865 348.34C260.022 352.909 261.037 357.935 260.821 362.983C259.891 366.405 258.821 370.267 257.714 374.167C257.488 374.695 257.287 375.236 257.085 375.764C257.597 373.219 257.804 370.622 257.702 368.028C257.274 361.209 249.55 347.56 244.417 349.485C239.285 351.409 247.977 358.605 252.619 366.983C255.055 371.616 255.991 376.891 255.299 382.079C255.299 382.394 255.198 382.696 255.16 382.985C254.62 384.772 254.091 386.482 253.588 388.118C252.33 391.892 251.261 395.515 250.191 399.012C251.505 393.938 252.081 388.701 251.902 383.463C251.261 373.475 245.411 364.04 240.58 362.744C235.75 361.448 244.971 377.752 248.065 386.91C249.748 392.259 250.034 397.95 248.896 403.44C247.399 408.397 245.99 413.29 244.543 418.461C244.947 411.688 244.8 404.893 244.103 398.144C243.159 387.023 236.555 379.928 232.001 380.218C227.447 380.507 232.202 386.822 238.769 400.346C242.236 407.446 243.78 415.332 243.247 423.216C242.656 425.392 241.989 427.632 241.436 429.971C240.731 432.638 240.178 435.544 239.675 438.513C239.02 435.859 238.039 431.984 236.894 427.707C235.561 422.979 234.594 418.155 234.001 413.278C233.384 407.604 231.887 400.522 226.327 397.578C225.949 397.315 225.518 397.137 225.065 397.058C224.611 396.979 224.145 397 223.701 397.12C223.256 397.24 222.843 397.456 222.49 397.752C222.138 398.049 221.854 398.418 221.66 398.836C221.15 400.053 221.035 401.4 221.333 402.685C222.071 406.545 223.341 410.283 225.107 413.794C224.014 415.888 223.518 418.242 223.673 420.599C223.673 421.48 223.748 422.361 223.811 423.241C223.321 422.335 222.855 421.505 222.415 420.725C221.615 419.391 220.633 418.176 219.496 417.115C219.781 415.03 219.924 412.929 219.924 410.825C219.924 408.07 216.691 401.037 213.772 406.246C212.602 408.334 212.829 412.422 212.716 415.14C211.923 415.894 211.684 417.429 212.351 419.845C211.898 426.135 211.81 432.576 213.332 438.715L212.326 436.966C210.908 429.689 210.066 422.31 209.81 414.901C209.445 402.66 211.395 392.621 208.061 388.847C204.727 385.073 202.865 398.345 204.287 412.812C204.957 419.414 206.717 425.858 209.495 431.884C206.224 426.009 202.991 420.021 199.934 414.272C198.676 411.19 195.556 402.849 196.324 394.395C197.292 383.74 197.997 375.009 193.946 369.009C189.895 363.008 189.053 366.908 191.04 379.412C192.399 387.992 193.846 399.465 196.336 407.428C193.971 402.862 191.745 398.521 189.757 394.597C188.625 390.672 185.983 380.595 185.983 372.229C185.983 361.587 184.851 355.875 181.706 358.177C179.517 359.8 180.926 372.934 184.448 383.979C182.8 380.62 181.555 378.041 180.838 376.519C180.511 375.827 180.146 375.085 179.731 374.318C178.58 365.556 176.878 356.875 174.636 348.327C170.648 333.307 163.54 322.236 163.767 329.646C163.968 336.464 175.617 360.417 179.253 373.424C178.221 371.55 177.026 369.55 175.818 367.6C174.976 365.398 174.309 362.996 173.416 361.083C172.044 358.127 170.573 355.234 168.925 352.416C166.408 347.985 163.381 343.864 159.905 340.138C155.878 335.553 150.573 332.276 144.67 330.728C143.186 330.376 134.179 328.212 135.713 332.237C136 332.852 136.432 333.387 136.971 333.797C142.003 338.075 147.84 340.855 153.325 344.516C161.452 350 171.327 362.706 175.403 368.229L177.341 371.839C169.981 362.455 156.609 355.687 151.451 357.146C145.06 358.945 157.439 363.725 167.893 368.241C172.59 370.108 176.762 373.092 180.045 376.934C181.706 380.079 183.555 383.614 185.404 387.225C185.618 387.766 185.82 388.294 186.033 388.822C184.674 386.613 183.057 384.573 181.215 382.746C176.246 378.066 161.276 373.349 158.848 378.255C156.42 383.161 167.654 382.507 176.787 385.451C181.706 387.177 185.972 390.38 189.002 394.622C189.178 394.873 189.342 395.137 189.518 395.376C190.348 397.037 191.128 398.66 191.871 400.195C193.581 403.805 195.217 407.189 196.814 410.472C194.321 405.851 191.173 401.614 187.468 397.892C180.171 391.024 169.453 388.13 165.012 390.521C160.571 392.911 178.46 398.484 186.977 403.101C191.859 405.864 195.951 409.831 198.865 414.624C201.155 419.266 203.457 423.807 205.935 428.575C201.608 423.35 196.867 418.483 191.757 414.02C183.467 406.535 173.793 405.856 170.661 409.177C167.528 412.498 175.315 413.869 189.329 419.241C196.704 422.063 203.21 426.769 208.199 432.89C209.256 434.89 210.338 436.941 211.495 439.079C212.753 441.495 214.351 444.011 216.037 446.514C213.747 445.03 210.376 442.866 206.627 440.526C202.42 437.98 198.42 435.107 194.663 431.934C190.336 428.223 184.411 424.059 178.309 425.707C177.855 425.773 177.421 425.938 177.038 426.191C176.654 426.443 176.331 426.777 176.091 427.168C175.851 427.56 175.7 427.999 175.649 428.455C175.597 428.911 175.647 429.373 175.793 429.808C176.238 431.052 177.071 432.12 178.171 432.852C183.907 437.293 191.619 439.432 198.299 442.061C204.42 444.47 210.695 446.47 217.081 448.049C218.666 450.326 220.314 452.578 221.974 454.716L218.98 454.804C215.433 454.918 199.431 447.659 191.304 445.332C183.178 443.004 175.579 447.407 184.096 451.986C192.613 456.566 215.773 455.547 215.773 455.547L222.452 455.345C224.025 457.358 225.56 459.27 227.019 461.019H195.28V469.825H201.57L206.602 501.137H248.782L253.877 469.825H260.167V461.019H239.146C238.976 457.213 239.077 453.4 239.448 449.609C240.851 448.183 242.408 446.917 244.09 445.835C253.324 439.457 268.973 438.928 273.137 426.638C274.144 423.681 272.999 419.882 269.464 420.046C266.948 420.159 264.218 422.398 262.633 424.222C257.349 430.324 253.374 436.651 246.505 441.281C244.146 443.095 241.878 445.026 239.712 447.068C239.951 445.067 240.253 442.929 240.643 440.639C242.303 437.696 244.196 434.89 246.304 432.248C251.927 425.267 260.482 421.178 266.558 414.523C268.42 412.485 270.873 405.164 265.187 406.975C262.671 407.78 259.677 411.617 257.639 413.366C252.041 418.398 246.317 423.757 242.669 430.374C242.819 429.72 242.983 429.116 243.134 428.412C247.059 422.119 251.48 416.149 256.356 410.561C264.432 401.377 272.71 395.364 272.848 390.332C272.986 385.3 262.57 393.729 253.726 405.252C249.715 410.538 246.603 416.451 244.518 422.751C246.141 416.234 247.864 409.642 249.55 403.327C250.707 400.182 254.142 392.005 260.469 386.331C268.458 379.199 274.924 373.311 276.068 366.203C277.213 359.096 274.005 361.348 266.923 371.839ZM222.251 452.754C221.056 451.131 219.811 449.37 218.477 447.42C217.683 444.113 217.153 440.747 216.892 437.356C216.731 434.469 216.866 431.573 217.295 428.713C219.442 431.372 221.722 433.921 224.126 436.35C224.068 438.865 223.761 441.368 223.207 443.822C222.736 446.781 222.417 449.762 222.251 452.754ZM229.095 461.044C227.472 459.321 225.698 457.27 223.773 454.754C223.822 452.759 224.096 450.775 224.591 448.841C225.359 445.793 226.465 442.839 227.887 440.035C230.868 442.866 233.057 444.74 233.057 444.74L238.089 449.156C237.699 453.546 237.473 457.673 237.335 461.019L229.095 461.044ZM238.152 448.389L235.901 446.414C234.643 445.281 232.378 440.904 229.912 435.859C230.964 433.736 231.897 431.557 232.705 429.33C235.372 434.274 237.737 438.136 239.134 440.186C238.731 442.916 238.417 445.696 238.152 448.389Z" fill="#46B2C8"/>
<path opacity="0.5" d="M266.923 371.839C262.067 379.048 255.299 388.42 251.688 395.943C253.06 390.986 254.406 386.294 255.626 382.105C257.475 378.469 262.432 369.298 268.206 363.235C275.465 355.46 278.572 350.466 274.659 350.038C271.955 349.736 264.029 360.291 259.06 370.77C260.142 367.185 260.998 364.48 261.576 362.857C261.815 362.128 262.042 361.335 262.268 360.492C267.408 353.301 272.089 345.793 276.282 338.012C283.616 324.312 285.981 311.38 281.088 316.94C276.584 322.06 268.747 347.522 262.52 359.498C263.048 357.435 263.551 355.158 263.992 352.906C264.872 350.73 266.03 348.516 266.684 346.503C267.703 343.408 268.596 340.289 269.313 337.106C270.496 332.161 271.095 327.094 271.099 322.01C271.226 316.038 269.599 310.16 266.42 305.102C265.577 303.844 260.419 296.133 258.872 300.07C258.67 300.726 258.631 301.421 258.758 302.096C259.513 308.65 261.891 314.676 263.363 321.054C265.564 330.602 264.105 346.629 263.363 353.447C263.086 354.529 262.734 355.863 262.319 357.41C263.337 345.534 258.192 331.457 253.424 328.992C247.524 325.947 253.311 337.898 257.865 348.34C260.022 352.909 261.037 357.935 260.821 362.983C259.891 366.405 258.821 370.267 257.714 374.167C257.488 374.695 257.287 375.236 257.085 375.764C257.597 373.219 257.804 370.622 257.702 368.028C257.274 361.209 249.55 347.56 244.417 349.485C239.285 351.409 247.977 358.605 252.619 366.983C255.055 371.616 255.991 376.891 255.299 382.079C255.299 382.394 255.198 382.696 255.16 382.985C254.62 384.772 254.091 386.482 253.588 388.118C252.33 391.892 251.261 395.515 250.191 399.012C251.505 393.938 252.081 388.701 251.902 383.463C251.261 373.475 245.411 364.04 240.58 362.744C235.75 361.448 244.971 377.752 248.065 386.91C249.748 392.259 250.034 397.95 248.896 403.44C247.399 408.397 245.99 413.29 244.543 418.461C244.947 411.688 244.8 404.893 244.103 398.144C243.159 387.023 236.555 379.928 232.001 380.218C227.447 380.507 232.202 386.822 238.769 400.346C242.236 407.446 243.78 415.332 243.247 423.216C242.656 425.392 241.989 427.632 241.436 429.971C240.731 432.638 240.178 435.544 239.675 438.513C239.02 435.859 238.039 431.984 236.894 427.707C235.561 422.979 234.594 418.155 234.001 413.278C233.384 407.604 231.887 400.522 226.327 397.578C225.949 397.315 225.518 397.137 225.065 397.058C224.611 396.979 224.145 397 223.701 397.12C223.256 397.24 222.843 397.456 222.49 397.752C222.138 398.049 221.854 398.418 221.66 398.836C221.15 400.053 221.035 401.4 221.333 402.685C222.071 406.545 223.341 410.283 225.107 413.794C224.014 415.888 223.518 418.242 223.673 420.599C223.673 421.48 223.748 422.361 223.811 423.241C223.321 422.335 222.855 421.505 222.415 420.725C221.615 419.391 220.633 418.176 219.496 417.115C219.781 415.03 219.924 412.929 219.924 410.825C219.924 408.07 216.691 401.037 213.772 406.246C212.602 408.334 212.829 412.422 212.716 415.14C211.923 415.894 211.684 417.429 212.351 419.845C211.898 426.135 211.81 432.576 213.332 438.715L212.326 436.966C210.908 429.689 210.066 422.31 209.81 414.901C209.445 402.66 211.395 392.621 208.061 388.847C204.727 385.073 202.865 398.345 204.287 412.812C204.957 419.414 206.717 425.858 209.495 431.884C206.224 426.009 202.991 420.021 199.934 414.272C198.676 411.19 195.556 402.849 196.324 394.395C197.292 383.74 197.997 375.009 193.946 369.009C189.895 363.008 189.053 366.908 191.04 379.412C192.399 387.992 193.846 399.465 196.336 407.428C193.971 402.862 191.745 398.521 189.757 394.597C188.625 390.672 185.983 380.595 185.983 372.229C185.983 361.587 184.851 355.875 181.706 358.177C179.517 359.8 180.926 372.934 184.448 383.979C182.8 380.62 181.555 378.041 180.838 376.519C180.511 375.827 180.146 375.085 179.731 374.318C178.58 365.556 176.878 356.875 174.636 348.327C170.648 333.307 163.54 322.236 163.767 329.646C163.968 336.464 175.617 360.417 179.253 373.424C178.221 371.55 177.026 369.55 175.818 367.6C174.976 365.398 174.309 362.996 173.416 361.083C172.044 358.127 170.573 355.234 168.925 352.416C166.408 347.985 163.381 343.864 159.905 340.138C155.878 335.553 150.573 332.276 144.67 330.728C143.186 330.376 134.179 328.212 135.713 332.237C136 332.852 136.432 333.387 136.971 333.797C142.003 338.075 147.84 340.855 153.325 344.516C161.452 350 171.327 362.706 175.403 368.229L177.341 371.839C169.981 362.455 156.609 355.687 151.451 357.146C145.06 358.945 157.439 363.725 167.893 368.241C172.59 370.108 176.762 373.092 180.045 376.934C181.706 380.079 183.555 383.614 185.404 387.225C185.618 387.766 185.82 388.294 186.033 388.822C184.674 386.613 183.057 384.573 181.215 382.746C176.246 378.066 161.276 373.349 158.848 378.255C156.42 383.161 167.654 382.507 176.787 385.451C181.706 387.177 185.972 390.38 189.002 394.622C189.178 394.873 189.342 395.137 189.518 395.376C190.348 397.037 191.128 398.66 191.871 400.195C193.581 403.805 195.217 407.189 196.814 410.472C194.321 405.851 191.173 401.614 187.468 397.892C180.171 391.024 169.453 388.13 165.012 390.521C160.571 392.911 178.46 398.484 186.977 403.101C191.859 405.864 195.951 409.831 198.865 414.624C201.155 419.266 203.457 423.807 205.935 428.575C201.608 423.35 196.867 418.483 191.757 414.02C183.467 406.535 173.793 405.856 170.661 409.177C167.528 412.498 175.315 413.869 189.329 419.241C196.704 422.063 203.21 426.769 208.199 432.89C209.256 434.89 210.338 436.941 211.495 439.079C212.753 441.495 214.351 444.011 216.037 446.514C213.747 445.03 210.376 442.866 206.627 440.526C202.42 437.98 198.42 435.107 194.663 431.934C190.336 428.223 184.411 424.059 178.309 425.707C177.855 425.773 177.421 425.938 177.038 426.191C176.654 426.443 176.331 426.777 176.091 427.168C175.851 427.56 175.7 427.999 175.649 428.455C175.597 428.911 175.647 429.373 175.793 429.808C176.238 431.052 177.071 432.12 178.171 432.852C183.907 437.293 191.619 439.432 198.299 442.061C204.42 444.47 210.695 446.47 217.081 448.049C218.666 450.326 220.314 452.578 221.974 454.716L218.98 454.804C215.433 454.918 199.431 447.659 191.304 445.332C183.178 443.004 175.579 447.407 184.096 451.986C192.613 456.566 215.773 455.547 215.773 455.547L222.452 455.345C224.025 457.358 225.56 459.27 227.019 461.019H195.28V469.825H201.57L206.602 501.137H248.782L253.877 469.825H260.167V461.019H239.146C238.976 457.213 239.077 453.4 239.448 449.609C240.851 448.183 242.408 446.917 244.09 445.835C253.324 439.457 268.973 438.928 273.137 426.638C274.144 423.681 272.999 419.882 269.464 420.046C266.948 420.159 264.218 422.398 262.633 424.222C257.349 430.324 253.374 436.651 246.505 441.281C244.146 443.095 241.878 445.026 239.712 447.068C239.951 445.067 240.253 442.929 240.643 440.639C242.303 437.696 244.196 434.89 246.304 432.248C251.927 425.267 260.482 421.178 266.558 414.523C268.42 412.485 270.873 405.164 265.187 406.975C262.671 407.78 259.677 411.617 257.639 413.366C252.041 418.398 246.317 423.757 242.669 430.374C242.819 429.72 242.983 429.116 243.134 428.412C247.059 422.119 251.48 416.149 256.356 410.561C264.432 401.377 272.71 395.364 272.848 390.332C272.986 385.3 262.57 393.729 253.726 405.252C249.715 410.538 246.603 416.451 244.518 422.751C246.141 416.234 247.864 409.642 249.55 403.327C250.707 400.182 254.142 392.005 260.469 386.331C268.458 379.199 274.924 373.311 276.068 366.203C277.213 359.096 274.005 361.348 266.923 371.839ZM222.251 452.754C221.056 451.131 219.811 449.37 218.477 447.42C217.683 444.113 217.153 440.747 216.892 437.356C216.731 434.469 216.866 431.573 217.295 428.713C219.442 431.372 221.722 433.921 224.126 436.35C224.068 438.865 223.761 441.368 223.207 443.822C222.736 446.781 222.417 449.762 222.251 452.754ZM229.095 461.044C227.472 459.321 225.698 457.27 223.773 454.754C223.822 452.759 224.096 450.775 224.591 448.841C225.359 445.793 226.465 442.839 227.887 440.035C230.868 442.866 233.057 444.74 233.057 444.74L238.089 449.156C237.699 453.546 237.473 457.673 237.335 461.019L229.095 461.044ZM238.152 448.389L235.901 446.414C234.643 445.281 232.378 440.904 229.912 435.859C230.964 433.736 231.897 431.557 232.705 429.33C235.372 434.274 237.737 438.136 239.134 440.186C238.731 442.916 238.417 445.696 238.152 448.389Z" fill="white"/>
<path d="M142.846 134.933V262.494H239.712V134.933H142.846ZM232.994 253.6H149.614V143.839H232.994V253.6Z" fill="#46B2C8"/>
<path opacity="0.5" d="M142.846 134.933V262.494H239.712V134.933H142.846ZM232.994 253.6H149.614V143.839H232.994V253.6Z" fill="white"/>
<path d="M481.813 197.166V291.365H553.369V197.166H481.813ZM548.374 284.786H486.845V203.796H548.412L548.374 284.786Z" fill="#46B2C8"/>
<path opacity="0.5" d="M481.813 197.166V291.365H553.369V197.166H481.813ZM548.374 284.786H486.845V203.796H548.412L548.374 284.786Z" fill="white"/>
<path d="M72.6875 514.296C76.298 502.068 113.698 374.96 113.573 374.004C113.447 373.048 116.629 355.977 124.077 341.749C131.524 327.521 141.865 311.67 143.161 309.733C145.133 306.576 146.45 303.055 147.035 299.379C148.004 294.209 158.357 279.968 161.59 276.094C164.823 272.219 174.523 251.84 175.177 248.606C175.831 245.373 179.693 242.782 184.876 241.813C190.059 240.845 197.167 239.876 197.167 239.876C198.482 241.424 199.275 243.348 199.431 245.373C199.431 248.279 187.782 317.809 187.14 329.458C186.499 341.107 188.109 347.561 182.939 359.537C177.768 371.513 162.559 378.935 155.124 383.791C147.689 388.647 148.256 389.653 148.256 389.653C148.256 389.653 152.457 506.056 152.357 515.202" fill="#FFE6CE"/>
<g style="mix-blend-mode:multiply" opacity="0.7">
<path d="M204.161 316.148C202.815 310.122 194.097 313.469 194.097 313.469C188.16 319.911 180.851 324.937 172.711 328.175C159.085 333.327 145.917 339.618 133.348 346.982C134.782 344.101 136.342 341.195 138.028 338.176C146.72 322.803 162.093 302.084 170.736 299.404C176.07 297.769 181.391 301.153 184.712 304.021L185.089 241.75H184.876C179.693 242.719 175.818 245.31 175.176 248.543C174.535 251.776 164.823 272.143 161.59 276.031C158.357 279.918 148.004 294.146 147.035 299.316C146.45 302.992 145.132 306.513 143.16 309.669C141.902 311.607 131.511 327.445 124.076 341.686C116.642 355.926 113.446 372.972 113.572 373.941C113.66 374.645 99.2687 426.777 90.123 459.585C97.671 444.741 109.408 420.726 116.541 402.975C119.346 402.699 124.781 395.1 129.285 388.911C134.631 381.564 142.645 379.551 158.697 367.525C174.749 355.498 192.776 338.78 195.455 332.1C198.135 325.42 205.494 322.161 204.161 316.148Z" fill="#46B2C8"/>
</g>
<path d="M72.6875 514.296C76.298 502.068 113.698 374.96 113.573 374.004C113.447 373.048 116.629 355.977 124.077 341.749C131.524 327.521 141.865 311.67 143.161 309.733C145.133 306.576 146.45 303.055 147.035 299.379C148.004 294.209 158.357 279.968 161.59 276.094C164.823 272.219 174.523 251.84 175.177 248.606C175.831 245.373 179.693 242.782 184.876 241.813C190.059 240.845 197.167 239.876 197.167 239.876C198.482 241.424 199.275 243.348 199.431 245.373C199.431 248.279 187.782 317.809 187.14 329.458C186.499 341.107 188.109 347.561 182.939 359.537C177.768 371.513 162.559 378.935 155.124 383.791C147.689 388.647 148.256 389.653 148.256 389.653C148.256 389.653 152.457 506.056 152.357 515.202" stroke="#2E353A" stroke-linecap="round" stroke-linejoin="round"/>
<path d="M184.222 319.105C184.222 319.105 180.674 318.778 177.114 312.312" stroke="#2E353A" stroke-linecap="round" stroke-linejoin="round"/>
<path d="M180.347 277.39C180.347 277.39 190.411 279.327 191.669 287.73" stroke="#2E353A" stroke-linecap="round" stroke-linejoin="round"/>
<path d="M183.58 251.186C185.806 252.879 187.649 255.025 188.986 257.482C190.324 259.938 191.127 262.65 191.342 265.439" stroke="#2E353A" stroke-linecap="round" stroke-linejoin="round"/>
<path d="M509.679 319.13L508.886 184.813C508.883 180.898 507.325 177.145 504.556 174.378C501.787 171.611 498.032 170.057 494.117 170.057H200.186C196.272 170.057 192.519 171.611 189.751 174.379C186.984 177.146 185.429 180.899 185.429 184.813L184.624 319.13C184.622 321.088 185.007 323.027 185.755 324.836C186.504 326.646 187.602 328.29 188.987 329.674C190.371 331.059 192.015 332.157 193.825 332.906C195.634 333.654 197.573 334.039 199.531 334.037H494.771C496.729 334.039 498.669 333.654 500.478 332.906C502.287 332.157 503.932 331.059 505.316 329.674C506.701 328.29 507.799 326.646 508.547 324.836C509.296 323.027 509.68 321.088 509.679 319.13Z" fill="#2E353A" stroke="#363636" stroke-width="0.868674" stroke-linecap="round" stroke-linejoin="round"/>
<path d="M493.161 326.74L492.52 177.277H201.783L201.154 326.74H493.161Z" fill="white" stroke="#363636" stroke-width="0.651505" stroke-linecap="round" stroke-linejoin="round"/>
<path d="M492.519 177.277H201.783L201.758 184.737H229.685L236.831 194.952H492.595L492.519 177.277Z" fill="#46B2C8" stroke="#2E353A" stroke-linecap="round" stroke-linejoin="round"/>
<g style="mix-blend-mode:multiply" opacity="0.5">
<path d="M492.519 207.017L288.157 326.74H493.161L492.519 207.017Z" fill="#46B2C8"/>
</g>
<path d="M502.902 251.969C502.919 250.725 501.923 249.704 500.68 249.688C499.436 249.672 498.415 250.667 498.399 251.911C498.383 253.154 499.378 254.175 500.622 254.191C501.865 254.207 502.886 253.212 502.902 251.969Z" fill="white"/>
<path d="M224.176 231.888C230.825 231.888 236.215 226.498 236.215 219.849C236.215 213.2 230.825 207.81 224.176 207.81C217.527 207.81 212.137 213.2 212.137 219.849C212.137 226.498 217.527 231.888 224.176 231.888Z" fill="#FF5454" stroke="#2E353A" stroke-linecap="round" stroke-linejoin="round"/>
<path d="M224.176 281.39C230.825 281.39 236.215 276 236.215 269.351C236.215 262.702 230.825 257.312 224.176 257.312C217.527 257.312 212.137 262.702 212.137 269.351C212.137 276 217.527 281.39 224.176 281.39Z" fill="white" stroke="#2E353A" stroke-linecap="round" stroke-linejoin="round"/>
<path d="M306.449 231.888C313.098 231.888 318.488 226.498 318.488 219.849C318.488 213.2 313.098 207.81 306.449 207.81C299.8 207.81 294.41 213.2 294.41 219.849C294.41 226.498 299.8 231.888 306.449 231.888Z" fill="white" stroke="#2E353A" stroke-linecap="round" stroke-linejoin="round"/>
<path d="M306.449 281.39C313.098 281.39 318.488 276 318.488 269.351C318.488 262.702 313.098 257.312 306.449 257.312C299.8 257.312 294.41 262.702 294.41 269.351C294.41 276 299.8 281.39 306.449 281.39Z" fill="#81DD6A" stroke="#2E353A" stroke-linecap="round" stroke-linejoin="round"/>
<path d="M388.734 231.888C395.383 231.888 400.773 226.498 400.773 219.849C400.773 213.2 395.383 207.81 388.734 207.81C382.085 207.81 376.695 213.2 376.695 219.849C376.695 226.498 382.085 231.888 388.734 231.888Z" fill="#FF993C" stroke="#2E353A" stroke-linecap="round" stroke-linejoin="round"/>
<path d="M388.734 281.39C395.383 281.39 400.773 276 400.773 269.351C400.773 262.702 395.383 257.312 388.734 257.312C382.085 257.312 376.695 262.702 376.695 269.351C376.695 276 382.085 281.39 388.734 281.39Z" fill="#46B2C8" stroke="#2E353A" stroke-width="2" stroke-linecap="round" stroke-linejoin="round"/>
<path d="M471.008 231.888C477.657 231.888 483.047 226.498 483.047 219.849C483.047 213.2 477.657 207.81 471.008 207.81C464.359 207.81 458.969 213.2 458.969 219.849C458.969 226.498 464.359 231.888 471.008 231.888Z" fill="#46B2C8" stroke="#2E353A" stroke-linecap="round" stroke-linejoin="round"/>
<path d="M471.008 281.39C477.657 281.39 483.047 276 483.047 269.351C483.047 262.702 477.657 257.312 471.008 257.312C464.359 257.312 458.969 262.702 458.969 269.351C458.969 276 464.359 281.39 471.008 281.39Z" fill="white" stroke="#2E353A" stroke-linecap="round" stroke-linejoin="round"/>
<path d="M245.097 236.152H284.535" stroke="#2E353A" stroke-linecap="round" stroke-linejoin="round"/>
<path d="M245.097 245.247H284.535" stroke="#2E353A" stroke-linecap="round" stroke-linejoin="round"/>
<path d="M245.097 254.355H284.535" stroke="#2E353A" stroke-linecap="round" stroke-linejoin="round"/>
<path d="M326.25 236.152H365.688" stroke="#2E353A" stroke-linecap="round" stroke-linejoin="round"/>
<path d="M326.25 245.247H365.688" stroke="#2E353A" stroke-linecap="round" stroke-linejoin="round"/>
<path d="M326.25 254.355H365.688" stroke="#2E353A" stroke-linecap="round" stroke-linejoin="round"/>
<path d="M412.712 236.152H452.15" stroke="#2E353A" stroke-linecap="round" stroke-linejoin="round"/>
<path d="M412.712 245.247H452.15" stroke="#2E353A" stroke-linecap="round" stroke-linejoin="round"/>
<path d="M412.712 254.355H452.15" stroke="#2E353A" stroke-linecap="round" stroke-linejoin="round"/>
<path d="M245.097 287.654H284.535" stroke="#2E353A" stroke-linecap="round" stroke-linejoin="round"/>
<path d="M245.097 296.763H284.535" stroke="#2E353A" stroke-linecap="round" stroke-linejoin="round"/>
<path d="M245.097 305.857H284.535" stroke="#2E353A" stroke-linecap="round" stroke-linejoin="round"/>
<path d="M326.25 287.654H365.688" stroke="#2E353A" stroke-linecap="round" stroke-linejoin="round"/>
<path d="M326.25 296.763H365.688" stroke="#2E353A" stroke-linecap="round" stroke-linejoin="round"/>
<path d="M326.25 305.857H365.688" stroke="#2E353A" stroke-linecap="round" stroke-linejoin="round"/>
<path d="M412.712 287.654H452.15" stroke="#2E353A" stroke-linecap="round" stroke-linejoin="round"/>
<path d="M412.712 296.763H452.15" stroke="#2E353A" stroke-linecap="round" stroke-linejoin="round"/>
<path d="M412.712 305.857H452.15" stroke="#2E353A" stroke-linecap="round" stroke-linejoin="round"/>
<path d="M364.983 269.967H372.456" stroke="#2E353A" stroke-linecap="round" stroke-linejoin="round"/>
<path d="M389.527 255.035V245.7" stroke="#2E353A" stroke-linecap="round" stroke-linejoin="round"/>
<path d="M372.984 256.104L377.79 259.84" stroke="#2E353A" stroke-linecap="round" stroke-linejoin="round"/>
<path d="M378.859 279.565L372.984 282.773" stroke="#2E353A" stroke-linecap="round" stroke-linejoin="round"/>
<path d="M414.599 269.967H407.127" stroke="#2E353A" stroke-linecap="round" stroke-linejoin="round"/>
<path d="M406.586 256.104L401.793 259.84" stroke="#2E353A" stroke-linecap="round" stroke-linejoin="round"/>
<path d="M383.715 294.699L390.005 317.167" stroke="#2E353A" stroke-linecap="round" stroke-linejoin="round"/>
<path d="M377.413 291.994L381.011 303.681" stroke="#2E353A" stroke-linecap="round" stroke-linejoin="round"/>
<path d="M532.436 505.968C532.436 505.968 502.558 450.867 498.306 441.206C494.054 431.544 490.846 416.323 489.802 412.146C488.292 407.245 488.153 402.024 489.4 397.05C490.972 390.005 490.041 369.902 490.746 365.285C491.45 360.669 488.594 346.227 486.972 338.138C485.349 330.049 481.675 324.3 476.719 323.671C475.277 323.498 473.816 323.685 472.464 324.214C471.112 324.743 469.911 325.598 468.97 326.703C468.97 326.703 466.907 309.481 464.906 305.908C462.906 302.335 456.39 302.851 452.905 303.706C449.42 304.562 447.747 315.708 447.747 315.708C447.747 315.708 444.728 305.002 444.64 300.222C444.552 295.441 438.74 291.328 434.211 292.46C429.682 293.592 427.242 295.668 426.009 305.581C424.776 315.494 427.103 330.829 427.103 330.829L424.751 331.785C424.751 331.785 416.272 302.096 413.58 294.259C410.888 286.421 408.296 277.452 406.485 271.615C404.673 265.778 401.981 256.519 394.572 257.94C387.162 259.362 388.986 275.552 388.986 275.552C388.986 275.552 400.572 325.168 401.176 329.08C401.78 332.993 403.692 346.579 403.315 351.108C402.937 355.637 402.95 367.462 402.95 367.462L391.917 354.303C390.558 350.743 388.842 347.329 386.797 344.113C383.023 338.025 374.632 332.351 369.185 334.049C363.738 335.748 368.04 341.358 370.292 344.491C372.544 347.623 374.368 356.417 374.368 360.845C374.368 365.273 378.142 368.393 382.696 376.519C387.25 384.646 410.108 412.725 413.567 417.782C416.129 421.18 419.351 424.025 423.04 426.148C423.04 426.148 436.249 437.658 442.413 452.025C448.577 466.391 467.485 507.641 467.485 507.641" fill="#FFE6CE"/>
<g style="mix-blend-mode:multiply" opacity="0.7">
<path d="M487.199 492.86C493.375 487.199 494.91 441.47 494.13 424.45C494.13 424.311 494.13 424.148 494.13 423.997C491.929 418.311 490.218 413.694 489.828 412.146C488.318 407.246 488.178 402.025 489.425 397.05C490.998 390.006 490.067 369.903 490.771 365.286C491.186 362.556 490.344 356.342 489.262 350.052C484.783 349.662 476.581 353.7 476.581 353.7C476.581 353.7 470.115 344.29 465.901 343.963C461.686 343.636 454.377 350.253 454.377 350.253C454.377 350.253 450.188 336.138 441.583 337.585C432.979 339.032 430.563 337.585 427.167 337.736C423.77 337.887 421.015 329.622 417.619 321.508C414.222 313.393 409.354 283.051 406.473 276.761C406.473 276.761 401.956 264.105 396.107 268.319C390.257 272.534 395.755 286.309 398.497 294.574C401.239 302.839 402.711 318.539 404.938 326.024C407.454 334.364 406.196 346.756 408.498 355.838C410.8 364.921 416.713 367.865 413.455 379.74C410.196 391.616 403.076 387.829 395.138 380.847C387.2 373.866 383.275 357.876 378.784 359.461C377.228 359.855 375.724 360.434 374.306 361.185C374.406 365.538 378.08 368.733 382.634 376.683C387.188 384.634 410.108 412.725 413.568 417.782C416.13 421.181 419.352 424.026 423.041 426.148C423.041 426.148 436.25 437.659 442.414 452.025C443.521 454.604 445.282 458.416 447.446 462.945C449.962 464.957 444.628 455.397 445.936 456.982C454.654 467.209 481.034 498.533 487.199 492.86Z" fill="#FFE6CE"/>
</g>
<path d="M532.436 505.968C532.436 505.968 502.558 450.867 498.306 441.206C494.054 431.544 490.846 416.323 489.802 412.146C488.292 407.245 488.153 402.024 489.4 397.05C490.972 390.005 490.041 369.902 490.746 365.285C491.45 360.669 488.594 346.227 486.972 338.138C485.349 330.049 481.675 324.3 476.719 323.671C475.277 323.498 473.816 323.685 472.464 324.214C471.112 324.743 469.911 325.598 468.97 326.703C468.97 326.703 466.907 309.481 464.906 305.908C462.906 302.335 456.39 302.851 452.905 303.706C449.42 304.562 447.747 315.708 447.747 315.708C447.747 315.708 444.728 305.002 444.64 300.222C444.552 295.441 438.74 291.328 434.211 292.46C429.682 293.592 427.242 295.668 426.009 305.581C424.776 315.494 427.103 330.829 427.103 330.829L424.751 331.785C424.751 331.785 416.272 302.096 413.58 294.259C410.888 286.421 408.296 277.452 406.485 271.615C404.673 265.778 401.981 256.519 394.572 257.94C387.162 259.362 388.986 275.552 388.986 275.552C388.986 275.552 400.572 325.168 401.176 329.08C401.78 332.993 403.692 346.579 403.315 351.108C402.937 355.637 402.95 367.462 402.95 367.462L391.917 354.303C390.558 350.743 388.842 347.329 386.797 344.113C383.023 338.025 374.632 332.351 369.185 334.049C363.738 335.748 368.04 341.358 370.292 344.491C372.544 347.623 374.368 356.417 374.368 360.845C374.368 365.273 378.142 368.393 382.696 376.519C387.25 384.646 410.108 412.725 413.567 417.782C416.129 421.18 419.351 424.025 423.04 426.148C423.04 426.148 436.249 437.658 442.413 452.025C448.577 466.391 467.485 507.641 467.485 507.641" stroke="#2E353A" stroke-linecap="round" stroke-linejoin="round"/>
<path d="M390.646 261.538C390.646 261.538 392.018 270.042 392.282 271.111C392.873 273.514 402.811 272.369 403.604 270.52C404.308 268.872 403.793 265.3 403.793 265.3" stroke="#2E353A" stroke-linecap="round" stroke-linejoin="round"/>
<path d="M373.627 344.881C374.453 344.042 374.965 342.943 375.077 341.77C375.19 340.597 374.895 339.422 374.243 338.44C371.903 334.956 370.595 334.176 370.595 334.176" stroke="#2E353A" stroke-linecap="round" stroke-linejoin="round"/>
<path d="M402.146 310.814C402.146 310.814 406.586 312.298 410.763 306.826" stroke="#2E353A" stroke-width="0.75" stroke-linecap="round" stroke-linejoin="round"/>
<path d="M402.674 306.953C402.674 306.953 408.599 302.512 413.128 302.877" stroke="#2E353A" stroke-width="0.75" stroke-linecap="round" stroke-linejoin="round"/>
<path d="M396.534 283.742C396.534 283.742 400.975 279.314 404.535 280.27" stroke="#2E353A" stroke-width="0.75" stroke-linecap="round" stroke-linejoin="round"/>
<path d="M400.711 282.698C402.536 283.005 404.406 282.919 406.196 282.446" stroke="#2E353A" stroke-width="0.75" stroke-linecap="round" stroke-linejoin="round"/>
<path d="M447.735 315.746L450.075 329.597" stroke="#2E353A" stroke-linecap="round" stroke-linejoin="round"/>
<path d="M468.957 326.74L471.46 341.283" stroke="#2E353A" stroke-linecap="round" stroke-linejoin="round"/>
<path d="M402.938 367.55C402.938 367.55 402.309 378.432 403.353 382.646" stroke="#2E353A" stroke-linecap="round" stroke-linejoin="round"/>
<path d="M450.088 336.968C450.088 336.968 452.667 343.799 452.038 348.29" stroke="#2E353A" stroke-width="0.75" stroke-linecap="round" stroke-linejoin="round"/>
<path d="M471.184 344.025C471.184 344.025 472.932 347.548 471.888 353.964" stroke="#2E353A" stroke-width="0.75" stroke-linecap="round" stroke-linejoin="round"/>
<path d="M172.259 324.274C172.259 324.274 182.939 322.337 188.751 315.229C194.563 308.122 208.476 299.052 213.005 297.441C217.534 295.831 224.654 295.491 227.246 297.756C229.837 300.02 231.12 305.518 227.246 311.996C223.371 318.475 207.571 324.564 204.275 327.507C200.979 330.451 198.136 332.363 194.211 341.094C190.39 349.551 184.89 357.144 178.045 363.411C171.894 368.908 160.584 378.293 154.76 381.84" fill="#FFE6CE"/>
<g style="mix-blend-mode:multiply" opacity="0.7">
<path d="M204.161 316.148C202.815 310.122 194.097 313.469 194.097 313.469C188.16 319.911 180.851 324.937 172.711 328.175C159.085 333.327 145.917 339.618 133.348 346.982C134.782 344.101 136.342 341.195 138.028 338.176C146.72 322.803 162.093 302.084 170.736 299.404C176.07 297.769 181.391 301.153 184.712 304.021L185.089 241.75H184.876C179.693 242.719 175.818 245.31 175.176 248.543C174.535 251.776 164.823 272.143 161.59 276.031C158.357 279.918 148.004 294.146 147.035 299.316C146.45 302.992 145.132 306.513 143.16 309.669C141.902 311.607 131.511 327.445 124.076 341.686C116.642 355.926 113.446 372.972 113.572 373.941C113.66 374.645 99.2687 426.777 90.123 459.585C97.671 444.741 109.408 420.726 116.541 402.975C119.346 402.699 124.781 395.1 129.285 388.911C134.631 381.564 142.645 379.551 158.697 367.525C174.749 355.498 192.776 338.78 195.455 332.1C198.135 325.42 205.494 322.161 204.161 316.148Z" fill="#FFE6CE"/>
</g>
<path d="M172.259 324.274C172.259 324.274 182.939 322.337 188.751 315.229C194.563 308.122 208.476 299.052 213.005 297.441C217.534 295.831 224.654 295.491 227.246 297.756C229.837 300.02 231.12 305.518 227.246 311.996C223.371 318.475 207.571 324.564 204.275 327.507C200.979 330.451 198.136 332.363 194.211 341.094C190.39 349.551 184.89 357.144 178.045 363.411C171.894 368.908 160.584 378.293 154.76 381.84" stroke="#2E353A" stroke-linecap="round" stroke-linejoin="round"/>
<path d="M227.56 309.468C225.623 312.374 220.767 312.702 220.767 312.702C220.767 312.702 218.829 308.5 217.534 305.908C216.525 304.165 215.076 302.716 213.332 301.707C213.332 301.707 214.955 297.505 218.188 297.505" stroke="#2E353A" stroke-linecap="round" stroke-linejoin="round"/>
<path d="M100.955 389.88C112.89 387.294 125.115 386.3 137.311 386.923C157.954 387.917 162.861 399.705 162.861 399.705L161.879 426.236C161.879 426.236 151.073 418.373 128.467 415.43C105.861 412.486 94.0732 414.448 94.0732 414.448L100.955 389.88Z" fill="white" stroke="#2E353A" stroke-linecap="round" stroke-linejoin="round"/>
<path d="M163.062 513.679L168.383 428.525C133.99 407.881 94.0734 414.448 94.0734 414.448L60.1074 513.679H163.062Z" fill="#2E353A" stroke="#2E353A" stroke-linecap="round" stroke-linejoin="round"/>
<path d="M431.494 448.263C431.494 448.263 434.853 434.853 453.295 423.946C471.738 413.039 499.426 417.241 499.426 417.241L503.615 428.135C503.615 428.135 480.971 427.305 464.202 436.526C447.433 445.747 439.042 456.654 439.042 456.654L431.494 448.263Z" fill="white" stroke="#2E353A" stroke-linecap="round" stroke-linejoin="round"/>
<path d="M556.351 513.679L506.584 424.713C506.584 424.713 487.714 419.757 465.07 428.978C442.426 438.199 433.192 455.811 433.192 455.811L442.715 513.679H556.351Z" fill="#2E353A" stroke="#2E353A" stroke-linecap="round" stroke-linejoin="round"/>
<path d="M443.998 458.503C444.627 461.208 443.873 463.699 442.287 464.064C440.702 464.429 438.916 462.542 438.287 459.837C437.658 457.132 438.413 454.641 439.985 454.277C441.558 453.912 443.357 455.799 443.998 458.503Z" fill="white"/>
</svg>
