<svg width="112" height="115" viewBox="0 0 112 115" fill="none" xmlns="http://www.w3.org/2000/svg">
<path d="M101.349 51.0063L93.984 29.3005L82.6443 33.1485L11.226 57.3765L21.9876 89.0878L93.6267 64.784L101.349 51.0063Z" fill="#46B2C8"/>
<path d="M61.3542 47.8082L58.2182 48.8733C56.9098 49.3161 56.2066 50.7424 56.6495 52.0508L61.1791 65.4002C61.5928 66.6175 62.8569 67.3102 64.0852 67.0399C64.174 67.0209 64.2657 66.9983 64.3531 66.9661L67.489 65.9011C67.5801 65.8719 67.6638 65.8366 67.7469 65.7948C68.8852 65.2615 69.4648 63.9416 69.0511 62.7242L64.5215 49.3749C64.0859 48.0725 62.6596 47.3691 61.3542 47.8082ZM67.308 63.3179C67.423 63.6622 67.2388 64.0364 66.9012 64.1507L63.7653 65.2157C63.421 65.3307 63.0468 65.1465 62.9318 64.8022L58.4022 51.4528C58.2872 51.1085 58.4714 50.7343 58.8157 50.6194L61.9516 49.5544C62.2922 49.4364 62.6664 49.6206 62.7851 49.9678L67.308 63.3179Z" fill="white"/>
<path d="M29.5149 61.8936L29.3205 61.3256C29.2056 60.9813 28.8284 60.8009 28.4871 60.9122L25.3511 61.9772C25.0105 62.0951 24.8227 62.4664 24.9377 62.8107L29.4672 76.1601C29.5822 76.5044 29.9594 76.6849 30.3007 76.5736L33.4366 75.5086C33.7773 75.3906 33.9651 75.0194 33.8501 74.6751L33.3656 73.2534L35.1154 72.659L35.5998 74.0808C36.0135 75.2982 35.4272 76.6187 34.2926 77.155C34.2095 77.1968 34.1221 77.2291 34.0347 77.2613L30.8988 78.3264C30.8077 78.3556 30.7196 78.3812 30.6309 78.4001C29.4026 78.6705 28.1385 77.9778 27.7278 76.7568L23.1982 63.4073C22.7553 62.0989 23.4556 60.6763 24.764 60.2334L27.8999 59.1684C29.2083 58.7255 30.6347 59.4289 31.0776 60.7373L31.272 61.3053L29.5149 61.8936Z" fill="white"/>
<path d="M85.5015 41.5699L84.907 39.8202L77.9044 42.1945L84.0458 60.2868L91.0485 57.9124L90.454 56.1627L85.2011 57.9427L83.7165 53.5664L86.9272 52.4771L86.3328 50.7273L83.1221 51.8166L80.2486 43.3499L85.5015 41.5699Z" fill="white"/>
<path d="M37.9925 55.7404L41.4598 65.9502L37.0806 67.4382L33.6163 57.2247L31.8665 57.819L38.0007 75.9053L39.7504 75.311L37.6714 69.185L42.0542 67.7L44.1332 73.826L45.88 73.2353L39.7423 55.146L37.9925 55.7404Z" fill="white"/>
<path d="M42.1128 54.3278L48.2461 72.403L49.995 71.8096L43.8617 53.7345L42.1128 54.3278Z" fill="white"/>
<path d="M73.6446 43.6321L79.7778 61.7074L81.5267 61.1141L75.3935 43.0388L73.6446 43.6321Z" fill="white"/>
<path d="M53.1978 53.8589L53.0034 53.291C52.8884 52.9467 52.5142 52.7625 52.1699 52.8775L49.034 53.9426C48.6933 54.0605 48.5055 54.4317 48.6272 54.7753L53.1567 68.1248C53.2716 68.4691 53.6458 68.6533 53.9901 68.5383L57.1261 67.4732C57.4704 67.3583 57.6545 66.9841 57.5395 66.6398L56.268 62.8833L54.3686 63.5262L53.7742 61.7764L57.4233 60.5392L59.2893 66.0455C59.703 67.2628 59.1167 68.5834 57.9821 69.1197C57.899 69.1616 57.8116 69.1938 57.7242 69.226L54.5882 70.2911C54.4972 70.3203 54.4091 70.3459 54.3204 70.3648C53.0921 70.6352 51.8279 69.9425 51.4172 68.7215L46.8877 55.372C46.4448 54.0636 47.1451 52.6409 48.4535 52.1981L51.5894 51.133C52.8979 50.6902 54.3242 51.3935 54.7671 52.702L54.9615 53.2699L53.1978 53.8589Z" fill="white"/>
<path d="M71.5316 60.4523L72.1789 62.3613L77.4318 60.5812L78.0263 62.331L72.6504 64.1568C72.5793 64.1841 72.5038 64.2017 72.4314 64.2156C71.5989 64.3827 70.7528 63.9101 70.4727 63.0888L69.636 60.6282L71.4569 48.7221L70.7338 46.5925L65.4779 48.3761L64.8835 46.6264L70.2631 44.8035C71.159 44.4992 72.137 44.9822 72.4414 45.8782L73.3502 48.5565L71.5316 60.4523Z" fill="white"/>
</svg>
