<svg width="81" height="78" viewBox="0 0 81 78" fill="none" xmlns="http://www.w3.org/2000/svg">
<path d="M66.4034 61.159L77.2293 43.226L20.1077 8.74688L4.29129 34.9451L52.23 63.8799L66.4034 61.159Z" fill="#E0F1F4"/>
<path d="M43.3613 33.6678L43.6522 33.1893C43.826 32.9005 43.733 32.525 43.4441 32.3512L40.8125 30.7651C40.5236 30.5913 40.1481 30.6844 39.9743 30.9732L33.2152 42.1689C33.0414 42.4577 33.1345 42.8332 33.4233 43.007L36.055 44.5931C36.3438 44.7669 36.7194 44.6739 36.8932 44.385L37.616 43.1908L39.0859 44.0762L38.363 45.2703C37.7465 46.2941 36.4588 46.6683 35.4051 46.1797C35.3259 46.146 35.2492 46.1029 35.1752 46.0565L32.5435 44.4704C32.4696 44.424 32.3984 44.3744 32.3301 44.3215C31.4033 43.6119 31.1406 42.3003 31.7604 41.2793L38.5194 30.0836C39.1823 28.9859 40.6123 28.6314 41.71 29.2942L44.3417 30.8803C45.4394 31.5432 45.791 32.9764 45.1309 34.0709L44.8401 34.5493L43.3613 33.6678Z" fill="#46B2C8"/>
<path d="M29.9117 24.0483L22.775 35.8699C22.1585 36.8937 20.8769 37.2675 19.8171 36.7793C19.738 36.7456 19.6612 36.7024 19.5872 36.6561L16.9556 35.07C16.8816 35.0236 16.8104 34.974 16.7421 34.921C15.8153 34.2114 15.5526 32.8999 16.1724 31.879L18.0739 28.727L19.5438 29.6124L17.6423 32.7643C17.4685 33.0531 17.5615 33.4286 17.8471 33.5996L20.4788 35.1857C20.7676 35.3595 21.1431 35.2664 21.3169 34.9776L28.3908 23.2557L23.2491 20.1538L24.1345 18.6839L29.3759 21.8486C30.1248 22.3146 30.368 23.2909 29.9117 24.0483Z" fill="#46B2C8"/>
<path d="M63.6425 44.5453L64.5312 43.0783L58.6546 39.5337L49.4941 54.7094L55.3679 58.2572L56.2533 56.7873L51.8466 54.1281L54.0634 50.4561L56.7592 52.0801L57.6451 50.6163L54.9521 48.989L59.2358 41.8861L63.6425 44.5453Z" fill="#46B2C8"/>
<path d="M56.9331 38.5143L55.4697 37.631L46.3163 52.7945L47.7797 53.6778L56.9331 38.5143Z" fill="#46B2C8"/>
<path d="M43.6909 51.1993L45.4562 52.264L45.0849 44.177C47.5784 44.3594 50.0861 43.1662 51.4662 40.8808L53.9762 36.7211L52.5096 35.8385L49.9996 39.9983C48.6818 42.1779 45.9954 43.0358 43.7034 42.1278L48.8379 33.622L47.3713 32.7394L38.2221 47.902L39.6919 48.7873L42.8162 43.6132C42.9969 43.6942 43.1799 43.7659 43.3624 43.8315L43.6909 51.1993Z" fill="#46B2C8"/>
<path d="M27.9317 41.6864L29.4114 42.5802L36.005 27.9042L36.0256 27.8537C36.3785 26.9052 36.0216 25.8825 35.1613 25.3607C34.2948 24.8393 33.2235 25.001 32.5495 25.7537L22.6103 38.4758L24.09 39.3695L27.8035 34.6155L30.4034 36.1857L27.9317 41.6864ZM33.8418 26.8792C34.001 26.72 34.1635 26.7627 34.2725 26.8278C34.3816 26.8929 34.4953 27.0189 34.426 27.2324L31.1123 34.6099L28.8687 33.2543L33.8418 26.8792Z" fill="#46B2C8"/>
</svg>
