<svg width="108" height="53" viewBox="0 0 108 53" fill="none" xmlns="http://www.w3.org/2000/svg">
<path d="M103.128 42.0138L107.083 14.643L92.7775 12.5739L5.77937 0L0 39.9903L87.2831 52.6099L103.128 42.0138Z" fill="#E0F1F4"/>
<path d="M43.0078 13.9601L38.9953 13.3787C37.3197 13.1336 35.758 14.3021 35.5186 15.9778L33.0507 33.0718C32.8228 34.6335 33.8202 36.0927 35.3134 36.4803C35.4217 36.5088 35.5357 36.5316 35.6497 36.5487L39.6622 37.1301C39.7762 37.1472 39.8902 37.1586 40.0042 37.1586C41.543 37.2099 42.9109 36.0927 43.1332 34.5309L45.6012 17.437C45.8405 15.7612 44.6778 14.1995 43.0078 13.9601ZM40.8876 34.206C40.8249 34.6449 40.4146 34.9527 39.9757 34.89L35.9632 34.3087C35.5243 34.246 35.2165 33.8356 35.2792 33.3967L37.7472 16.3027C37.8099 15.8638 38.2202 15.556 38.6591 15.6187L42.6716 16.2001C43.1104 16.2628 43.4125 16.6732 43.3498 17.1121L40.8876 34.206Z" fill="#46B2C8"/>
<path d="M66.5933 17.3675L62.5808 16.7861C60.9051 16.541 59.3435 17.7095 59.1041 19.3852L56.6362 36.4792C56.4082 38.041 57.4056 39.5001 58.8989 39.8877C59.0072 39.9162 59.1212 39.939 59.2352 39.9561L63.2477 40.5375C63.3617 40.5546 63.4757 40.566 63.5897 40.566C65.1285 40.6173 66.4964 39.5001 66.7187 37.9384L69.1867 20.8444C69.4318 19.1743 68.269 17.6126 66.5933 17.3675ZM64.4788 37.6135C64.4161 38.0524 64.0057 38.3602 63.5668 38.2975L59.5544 37.7161C59.1155 37.6534 58.8077 37.243 58.8704 36.8041L61.3383 19.7101C61.401 19.2712 61.8114 18.9634 62.2503 19.0261L66.2628 19.6075C66.7017 19.6702 67.0037 20.0806 66.941 20.5195L64.4788 37.6135Z" fill="#46B2C8"/>
<path d="M31.0111 12.238L30.9484 12.2266C28.338 11.8504 25.8473 12.8934 24.2514 14.7687C23.254 12.5173 21.1566 10.813 18.5462 10.4311L18.4835 10.4197C16.9959 10.2031 15.6053 11.2405 15.3944 12.7282L12.4363 33.1736L14.6705 33.4985L17.6286 13.0531C17.6628 12.7966 17.9079 12.6199 18.1587 12.6598L18.2213 12.6712C21.0255 13.0758 22.9748 15.6864 22.5701 18.4907L20.2846 34.3136L22.5245 34.6385L24.81 18.8156C25.2146 16.0113 27.8194 14.0619 30.6236 14.4666L30.6863 14.478C30.9427 14.5122 31.1194 14.7516 31.0795 15.0081L28.1215 35.4536L30.3613 35.7785L33.3194 15.333C33.5417 13.8396 32.5044 12.4489 31.0111 12.238Z" fill="#46B2C8"/>
<path d="M91.5114 23.2563L91.8363 21.0162L82.8709 19.7224L79.5195 42.8867L88.4907 44.1862L88.8098 41.9462L82.0843 40.9715L82.8937 35.3628L87.0088 35.9613L87.3337 33.7213L83.2186 33.1285L84.786 22.2873L91.5114 23.2563Z" fill="#46B2C8"/>
<path d="M78.5678 19.1007L73.5978 18.3825C72.4522 18.2172 71.3807 19.0152 71.2154 20.1666L68.1719 41.2447L70.4118 41.5696L71.5574 33.6582C76.0543 33.7437 80.0326 30.4606 80.688 25.895L81.1668 22.5776C81.4062 20.9019 80.2435 19.3458 78.5678 19.1007ZM78.4424 25.5701C77.9637 28.8988 75.131 31.3155 71.8766 31.3953L73.4325 20.6454L78.2429 21.3408C78.6818 21.4035 78.9896 21.8138 78.9269 22.2527L78.4424 25.5701Z" fill="#46B2C8"/>
<path d="M54.7669 20.2349L54.9778 18.7871C55.0404 18.3482 54.7327 17.9379 54.2938 17.8752L50.2813 17.2938C49.8425 17.2311 49.4321 17.5332 49.3694 17.9777L48.5886 23.3698C48.2181 25.9348 50.0078 28.323 52.5669 28.6935L52.7208 28.7163C54.3964 28.9614 55.5648 30.5232 55.3254 32.199L54.7441 36.206C54.5161 37.7677 53.1482 38.8849 51.6093 38.8336C51.4953 38.8336 51.3813 38.8222 51.2673 38.8051L47.2548 38.2237C47.1408 38.2066 47.0269 38.1838 46.9186 38.1553C45.431 37.7678 44.4336 36.3086 44.6616 34.7468L44.8725 33.299L47.1066 33.6239L46.8958 35.0717C46.8331 35.5106 47.1409 35.921 47.5797 35.9837L51.5922 36.5651C52.031 36.6278 52.4415 36.3257 52.5042 35.8811L53.0855 31.8741C53.1482 31.4295 52.8404 31.0191 52.3958 30.9507L52.2419 30.9279C48.446 30.3807 45.8015 26.8411 46.3486 23.0392L47.1295 17.6472C47.3745 15.9714 48.9305 14.8086 50.6005 15.048L54.613 15.6294C56.2886 15.8688 57.4514 17.4306 57.212 19.1063L57.0011 20.5541L54.7669 20.2349Z" fill="#46B2C8"/>
</svg>
