<svg width="40" height="46" viewBox="0 0 40 46" fill="none" xmlns="http://www.w3.org/2000/svg">
<path d="M30.526 45.5886H1.2304C0.550901 45.5886 6.10352e-05 45.0377 6.10352e-05 44.3582V9.92591C6.10352e-05 9.53687 0.184067 9.17075 0.49626 8.93861L7.55183 3.69225C7.76406 3.53444 8.02149 3.44922 8.28596 3.44922H30.526C31.2055 3.44922 31.7563 4.00006 31.7563 4.67955V44.3582C31.7563 45.0377 31.2055 45.5886 30.526 45.5886Z" fill="#C2E2E9"/>
<path d="M4.67955 42.1394H33.9752C34.6547 42.1394 35.2055 41.5885 35.2055 40.909V6.47669C35.2055 6.08765 35.0215 5.72153 34.7093 5.48939L27.6537 0.243031C27.4415 0.0852217 27.1841 0 26.9196 0H4.67955C4.00006 0 3.44922 0.550839 3.44922 1.23033V40.909C3.44922 41.5885 4.00006 42.1394 4.67955 42.1394Z" fill="#115766"/>
<path d="M30.6246 18.1791H38.5386C39.1508 18.1791 39.6471 17.6848 39.6471 17.0726V10.3807C39.6471 10.1497 39.575 9.92511 39.4408 9.73713L38.532 8.46436C38.3239 8.17295 37.9887 8 37.6307 8H30.6242C30.0119 8 29.5161 8.4963 29.5161 9.10852V17.0706C29.5161 17.6828 30.0124 18.1791 30.6246 18.1791Z" fill="#C2E2E9"/>
<path fill-rule="evenodd" clip-rule="evenodd" d="M37.7222 10.8787C37.9172 11.0737 37.9172 11.3898 37.7222 11.5848L34.0055 15.3016C33.8105 15.4966 33.4943 15.4966 33.2993 15.3016L31.4409 13.4432C31.2459 13.2482 31.2459 12.9321 31.4409 12.7371C31.6359 12.5421 31.9521 12.5421 32.1471 12.7371L33.6524 14.2424L37.0161 10.8787C37.2111 10.6837 37.5272 10.6837 37.7222 10.8787Z" fill="#46B2C8"/>
<path fill-rule="evenodd" clip-rule="evenodd" d="M8.34155 10.4522C8.34155 9.97593 8.72763 9.58984 9.20389 9.58984H23.283C23.7593 9.58984 24.1454 9.97593 24.1454 10.4522C24.1454 10.9284 23.7593 11.3145 23.283 11.3145H9.20389C8.72763 11.3145 8.34155 10.9284 8.34155 10.4522Z" fill="#46B2C8"/>
<path fill-rule="evenodd" clip-rule="evenodd" d="M8.34155 17.5996C8.34155 17.1234 8.72763 16.7373 9.20389 16.7373H23.283C23.7593 16.7373 24.1454 17.1234 24.1454 17.5996C24.1454 18.0759 23.7593 18.462 23.283 18.462H9.20389C8.72763 18.462 8.34155 18.0759 8.34155 17.5996Z" fill="#46B2C8"/>
<path fill-rule="evenodd" clip-rule="evenodd" d="M8.34155 24.7461C8.34155 24.2699 8.72763 23.8838 9.20389 23.8838H28.6537C29.13 23.8838 29.5161 24.2699 29.5161 24.7461C29.5161 25.2224 29.13 25.6085 28.6537 25.6085H9.20389C8.72763 25.6085 8.34155 25.2224 8.34155 24.7461Z" fill="#46B2C8"/>
<path fill-rule="evenodd" clip-rule="evenodd" d="M8.34155 31.8936C8.34155 31.4173 8.72763 31.0312 9.20389 31.0312H28.6537C29.13 31.0312 29.5161 31.4173 29.5161 31.8936C29.5161 32.3698 29.13 32.7559 28.6537 32.7559H9.20389C8.72763 32.7559 8.34155 32.3698 8.34155 31.8936Z" fill="#46B2C8"/>
</svg>
