<svg width="51" height="40" viewBox="0 0 51 40" fill="none" xmlns="http://www.w3.org/2000/svg">
<path d="M11.6228 39.6472H46.7365C48.8582 39.6472 50.5781 37.9332 50.5781 35.8115V9.20372C50.5781 8.35221 50.2952 7.52647 49.7738 6.85323L45.6201 1.48947C44.8925 0.549934 43.7756 0 42.5873 0H11.6179C9.49623 0 7.78125 1.71994 7.78125 3.84159V35.8056C7.78125 37.9272 9.50119 39.6472 11.6228 39.6472Z" fill="#115766"/>
<path d="M21.423 31.5512H1.9208C0.859978 31.5512 5.72205e-06 30.692 5.72205e-06 29.6312V13.3795C5.72205e-06 12.9793 0.125025 12.5902 0.357595 12.2645L2.75902 8.90131C3.11955 8.39637 3.69948 8.09668 4.31992 8.09668H21.4273C22.4882 8.09668 23.3438 8.95665 23.3438 10.0175V29.6304C23.3438 30.6912 22.4838 31.5512 21.423 31.5512Z" fill="#46B2C8"/>
<path fill-rule="evenodd" clip-rule="evenodd" d="M17.9777 15.3054C18.3693 15.6969 18.3693 16.3317 17.9777 16.7233L10.5148 24.1862C10.1233 24.5778 9.48845 24.5778 9.09691 24.1862L5.36543 20.4547C4.97389 20.0632 4.97389 19.4284 5.36543 19.0369C5.75697 18.6453 6.39178 18.6453 6.78332 19.0369L9.80585 22.0594L16.5599 15.3054C16.9514 14.9138 17.5862 14.9138 17.9777 15.3054Z" fill="#C2E2E9"/>
<path fill-rule="evenodd" clip-rule="evenodd" d="M32.3315 14.7144C31.6249 14.7144 31.0904 15.2656 31.0904 15.8991C31.0904 16.5326 31.6249 17.0838 32.3315 17.0838C33.0381 17.0838 33.5726 16.5326 33.5726 15.8991C33.5726 15.2656 33.0381 14.7144 32.3315 14.7144ZM29.5107 15.8991C29.5107 14.3516 30.7948 13.1348 32.3315 13.1348C33.8682 13.1348 35.1523 14.3516 35.1523 15.8991C35.1523 17.4466 33.8682 18.6635 32.3315 18.6635C30.7948 18.6635 29.5107 17.4466 29.5107 15.8991Z" fill="#C2E2E9"/>
<path fill-rule="evenodd" clip-rule="evenodd" d="M40.4553 22.6119C39.7487 22.6119 39.2141 23.1631 39.2141 23.7966C39.2141 24.4301 39.7487 24.9813 40.4553 24.9813C41.1619 24.9813 41.6964 24.4301 41.6964 23.7966C41.6964 23.1631 41.1619 22.6119 40.4553 22.6119ZM37.6345 23.7966C37.6345 22.249 38.9185 21.0322 40.4553 21.0322C41.9921 21.0322 43.276 22.249 43.276 23.7966C43.276 25.3441 41.9921 26.5609 40.4553 26.5609C38.9185 26.5609 37.6345 25.3441 37.6345 23.7966Z" fill="#C2E2E9"/>
<path fill-rule="evenodd" clip-rule="evenodd" d="M42.3756 14.0322C42.6796 14.345 42.6726 14.845 42.3599 15.1491L31.5281 25.6799C31.2154 25.984 30.7153 25.9769 30.4113 25.6642C30.1072 25.3514 30.1142 24.8514 30.427 24.5473L41.2587 14.0165C41.5715 13.7124 42.0715 13.7195 42.3756 14.0322Z" fill="#C2E2E9"/>
</svg>
