<svg width="46" height="40" viewBox="0 0 46 40" fill="none" xmlns="http://www.w3.org/2000/svg">
<rect x="5.68286" y="16.9062" width="33.9641" height="22.7413" rx="3.07347" fill="#115766"/>
<path d="M22.6554 0L45.3109 19.8235H0L22.6554 0Z" fill="#46B2C8"/>
<path d="M17.9332 29.5033H27.3973C28.246 29.5033 28.934 28.8156 28.934 27.9669V19.9049C28.934 19.5847 28.834 19.2736 28.6479 19.013L27.6033 17.55C27.3148 17.146 26.8493 16.9062 26.3529 16.9062H17.9305C17.0818 16.9062 16.3965 17.5943 16.3965 18.443V27.9665C16.3965 28.8152 17.0845 29.5033 17.9332 29.5033Z" fill="#C2E2E9"/>
<path fill-rule="evenodd" clip-rule="evenodd" d="M26.5515 20.4681C26.7928 20.7094 26.7928 21.1007 26.5515 21.342L21.9519 25.9416C21.7105 26.1829 21.3193 26.1829 21.078 25.9416L18.7782 23.6418C18.5368 23.4005 18.5368 23.0092 18.7782 22.7679C19.0195 22.5266 19.4107 22.5266 19.652 22.7679L21.5149 24.6308L25.6776 20.4681C25.9189 20.2268 26.3102 20.2268 26.5515 20.4681Z" fill="#46B2C8"/>
</svg>
