<svg width="120" height="120" viewBox="0 0 120 120" fill="none" xmlns="http://www.w3.org/2000/svg">
<path d="M20 78H12C9.79086 78 8 79.7909 8 82V86C8 88.2091 9.79086 90 12 90H20C22.2091 90 24 88.2091 24 86V82C24 79.7909 22.2091 78 20 78ZM12 86V82H20V86H12Z" fill="#46B2C8"/>
<path d="M62 78H34C31.7909 78 30 79.7909 30 82V86C30 88.2091 31.7909 90 34 90H62C64.2091 90 66 88.2091 66 86V82C66 79.7909 64.2091 78 62 78ZM50 82H54V86H50V82ZM46 86H42V82H46V86ZM34 82H38V86H34V82ZM58 86V82H62V86H58Z" fill="#46B2C8"/>
<path d="M72 82V86C72 88.2091 73.7909 90 76 90H84C86.2091 90 88 88.2091 88 86V82C88 79.7909 86.2091 78 84 78H76C73.7909 78 72 79.7909 72 82ZM84 86H76V82H84V86Z" fill="#46B2C8"/>
<path d="M110 0H46C40.4799 0.00661224 36.0066 4.47989 36 10V42H29.494C25.3641 42.0156 21.6631 44.5533 20.16 48.4L15.702 60H10C6.69315 60.0164 4.01645 62.6931 4.00004 66C4.00735 68.2156 5.23863 70.2456 7.20004 71.276L3.75004 74.036C1.37309 75.9293 -0.00813346 78.8052 3.6037e-05 81.844V100C0.0136657 103.637 2.47867 106.807 6.00004 107.716V114C6.00004 117.314 8.68633 120 12 120H20C23.3137 120 26 117.314 26 114V108H70V114C70 117.314 72.6863 120 76 120H84C87.3138 120 90 117.314 90 114V107.716C93.5214 106.807 95.9864 103.637 96.0001 100V81.844C96.0041 78.8079 94.6226 75.9359 92.248 74.044L88.8 71.276C90.7615 70.2456 91.9927 68.2156 92 66C91.9836 62.6931 89.3069 60.0164 86 60H80.296L78.758 56H110C115.52 55.9934 119.993 51.5201 120 46V10C119.993 4.47989 115.52 0.00661224 110 0ZM23.894 49.846C24.7941 47.5359 27.0148 46.0107 29.494 46H66.506C68.9853 46.0107 71.206 47.5359 72.106 49.846L79.088 68H16.912L23.894 49.846ZM8.61204 64.576C8.97683 64.2028 9.47819 63.9947 10 64H14.164L12.626 68H10C8.89547 68 8.00004 67.1046 8.00004 66C7.99829 65.4611 8.21985 64.9456 8.61204 64.576ZM4.00004 100V98H32V104H8.00004C5.7909 104 4.00004 102.209 4.00004 100ZM22 114C22 115.105 21.1046 116 20 116H12C10.8955 116 10 115.105 10 114V108H22V114ZM36 104V98H60V104H36ZM86 114C86 115.105 85.1046 116 84 116H76C74.8955 116 74 115.105 74 114V108H86V114ZM92 100C92 102.209 90.2092 104 88 104H64V98H92V100ZM92 81.844L92.0001 94H4.00002L4.00004 81.844C3.99634 80.0208 4.82572 78.2957 6.25204 77.16L12.154 72.438C12.5078 72.1551 12.9471 72.0007 13.4 72H82.6C83.0544 71.9998 83.4952 72.1543 83.85 72.438L89.752 77.16C91.1776 78.2959 92.0056 80.0212 92 81.844ZM86 64C86.5389 63.9983 87.0545 64.2198 87.424 64.612C87.7972 64.9768 88.0053 65.4782 88 66C88 67.1046 87.1046 68 86 68H83.374L81.836 64L86 64ZM116 46C116 49.3137 113.314 52 110 52H77.22L75.838 48.4C74.3362 44.5532 70.6356 42.0153 66.506 42H40V10C40 6.68629 42.6863 4 46 4H110C113.314 4 116 6.68629 116 10V46Z" fill="#46B2C8"/>
<path d="M102.574 39.9581H100.046C99.1865 39.1654 98.88 37.9378 99.2662 36.8341C101.945 35.6396 104.126 33.5511 105.434 30.9261C107.961 30.6352 109.883 28.5208 109.932 25.9781C109.915 24.1375 108.882 22.457 107.248 21.6101C108.158 17.8901 108.048 12.7661 103.55 10.2501C100.804 8.71605 96.8342 8.87405 92.6322 9.05005C88.1702 9.22805 83.1042 9.43205 81.8322 7.05005C81.4177 6.27605 80.5468 5.86291 79.6851 6.03148C78.8234 6.20005 78.1725 6.9109 78.0802 7.78405C78.0382 8.16805 77.3002 15.6361 81.2802 19.7321V21.3601C79.3628 22.0922 78.0876 23.9218 78.0642 25.9741C78.1137 28.5175 80.0369 30.6321 82.5642 30.9221C83.8702 33.5488 86.0504 35.6386 88.7302 36.8321C89.1155 37.9352 88.8091 39.1618 87.9502 39.9541H85.4262C84.3216 39.9541 83.4262 40.8495 83.4262 41.9541C83.4262 43.0586 84.3216 43.9541 85.4262 43.9541H86.9482C88.0002 46.9468 90.8269 48.9493 93.9992 48.9493C97.1714 48.9493 99.9981 46.9468 101.05 43.9541H102.574C105.208 43.8586 107.519 45.695 108.02 48.2821C108.178 49.3756 109.193 50.134 110.286 49.9761C111.38 49.8181 112.138 48.8036 111.98 47.7101C111.185 43.1603 107.192 39.8694 102.574 39.9581ZM85.7742 28.2461C85.4201 27.4293 84.6062 26.9088 83.7162 26.9301C83.573 26.9295 83.4302 26.9443 83.2902 26.9741C82.8902 27.0459 82.486 26.8725 82.2623 26.5333C82.0387 26.194 82.0387 25.7541 82.2623 25.4149C82.486 25.0756 82.8902 24.9022 83.2902 24.9741C84.3947 24.9741 85.2902 24.0786 85.2902 22.9741V21.9741C86.3022 22.0446 87.2067 21.3463 87.3946 20.3494C87.5826 19.3525 86.9944 18.3728 86.0262 18.0701C83.4942 17.2821 82.5302 14.5781 82.1862 12.1981C85.6401 13.138 89.2396 13.4222 92.7982 13.0361C96.2582 12.8941 99.8442 12.7521 101.598 13.7341C105.346 15.8301 102.884 22.1701 102.862 22.2301C102.615 22.8461 102.689 23.5449 103.06 24.0952C103.432 24.6455 104.052 24.9755 104.716 24.9761C105.326 24.9224 105.867 25.3671 105.932 25.9761C105.932 26.5241 105.368 27.0041 104.532 26.9541C103.553 26.7536 102.575 27.3021 102.236 28.2421C100.956 31.6807 97.6734 33.9613 94.0042 33.9613C90.335 33.9613 87.0524 31.6807 85.7722 28.2421L85.7742 28.2461ZM94.0002 44.9521C92.5726 44.9946 91.278 44.1189 90.7862 42.7781C92.1279 41.5064 92.8782 39.7325 92.8562 37.8841C93.2362 37.9181 93.6142 37.9641 94.0002 37.9641C94.3862 37.9641 94.7642 37.9181 95.1442 37.8841C95.1214 39.7327 95.8718 41.5068 97.2142 42.7781C96.7219 44.1185 95.4276 44.994 94.0002 44.9521Z" fill="#46B2C8"/>
<path d="M48 12H46C44.8954 12 44 12.8954 44 14C44 15.1046 44.8954 16 46 16H48C49.1046 16 50 15.1046 50 14C50 12.8954 49.1046 12 48 12Z" fill="#46B2C8"/>
<path d="M72 12H56C54.8954 12 54 12.8954 54 14C54 15.1046 54.8954 16 56 16H72C73.1046 16 74 15.1046 74 14C74 12.8954 73.1046 12 72 12Z" fill="#46B2C8"/>
<path d="M48 20H46C44.8954 20 44 20.8954 44 22C44 23.1046 44.8954 24 46 24H48C49.1046 24 50 23.1046 50 22C50 20.8954 49.1046 20 48 20Z" fill="#46B2C8"/>
<path d="M72 20H56C54.8954 20 54 20.8954 54 22C54 23.1046 54.8954 24 56 24H72C73.1046 24 74 23.1046 74 22C74 20.8954 73.1046 20 72 20Z" fill="#46B2C8"/>
<path d="M48 28H46C44.8954 28 44 28.8954 44 30C44 31.1046 44.8954 32 46 32H48C49.1046 32 50 31.1046 50 30C50 28.8954 49.1046 28 48 28Z" fill="#46B2C8"/>
<path d="M72 28H56C54.8954 28 54 28.8954 54 30C54 31.1046 54.8954 32 56 32H72C73.1046 32 74 31.1046 74 30C74 28.8954 73.1046 28 72 28Z" fill="#46B2C8"/>
</svg>
