<svg width="120" height="86" viewBox="0 0 120 86" fill="none" xmlns="http://www.w3.org/2000/svg">
<path d="M46.5925 25.4761C45.6693 25.5473 44.822 24.9649 44.6442 24.0537C44.345 22.5187 43.5873 20.9955 40.6269 20.9955H30.3563C26.5867 20.9955 23.5312 24.0598 23.5312 27.8395V35.3508C23.5312 36.9424 24.8179 38.2324 26.4049 38.2324H38.0617C40.669 38.2324 42.9333 36.7657 44.0823 34.6109C44.1716 34.4437 44.4242 34.5089 44.4242 34.6983C44.4242 36.6422 46.0103 38.2324 47.9486 38.2324C48.9646 38.2324 49.796 37.3988 49.796 36.3799V28.5417C49.796 26.6951 48.1893 25.353 46.5925 25.4761Z" stroke="#46B2C8" stroke-width="5" stroke-miterlimit="10" stroke-linecap="round" stroke-linejoin="round"/>
<path d="M47.2134 45.4493C49.6285 45.6439 51.7614 43.8596 51.7614 41.6853C51.7614 40.0299 50.6982 38.3215 49.1404 37.79" stroke="#46B2C8" stroke-width="5" stroke-miterlimit="10" stroke-linecap="round" stroke-linejoin="round"/>
<path d="M25.33 38.0212C24.0431 38.6714 23.0708 40.1873 23.0708 41.6855C23.0708 43.8567 25.1998 45.6443 27.6186 45.4493" stroke="#46B2C8" stroke-width="5" stroke-miterlimit="10" stroke-linecap="round" stroke-linejoin="round"/>
<path d="M27.6123 38.2324V45.1823C27.6123 50.2472 31.57 54.873 37.5562 54.873C42.8849 54.873 47.2203 50.5259 47.2203 45.1823V38.1558" stroke="#46B2C8" stroke-width="5" stroke-miterlimit="10" stroke-linecap="round" stroke-linejoin="round"/>
<path d="M61.491 66.9531C60.5271 65.0153 58.9354 63.4912 57.1547 62.7562L43.4616 57.4382C43.2994 57.3756 43.1503 57.2648 43.0372 57.1152C42.911 56.9488 42.8362 56.7437 42.8355 56.5244L42.8327 53.2949C41.3146 54.291 39.5025 54.8725 37.5568 54.8725C35.4109 54.8725 33.528 54.276 31.9925 53.2802V56.5185C31.9925 56.7791 31.9114 56.9697 31.7945 57.1143C31.5741 57.3866 31.2251 57.49 31.0384 57.5627L17.6791 62.7562C16.2113 63.362 14.4217 64.8109 13.3428 66.9433" stroke="#46B2C8" stroke-width="5" stroke-miterlimit="10" stroke-linecap="round" stroke-linejoin="round"/>
<path d="M46.2327 58.5155C44.6574 61.7284 41.3605 63.9453 37.5556 63.9453C33.3343 63.9453 30.1246 61.644 28.5972 58.5116" stroke="#46B2C8" stroke-width="5" stroke-miterlimit="10" stroke-linecap="round" stroke-linejoin="round"/>
<path d="M82.7524 37.1748H107.196" stroke="#46B2C8" stroke-width="5" stroke-miterlimit="10" stroke-linecap="round" stroke-linejoin="round"/>
<path d="M82.7524 44.6943H107.196" stroke="#46B2C8" stroke-width="5" stroke-miterlimit="10" stroke-linecap="round" stroke-linejoin="round"/>
<path d="M105.477 14.8479H72.7342C71.7845 14.8479 71.0146 15.6199 71.0146 16.5721V20.4112C71.0146 21.3637 71.7845 22.1357 72.7342 22.1357H105.477C106.426 22.1357 107.196 21.3637 107.196 20.4112V16.5721C107.196 15.6199 106.426 14.8479 105.477 14.8479Z" stroke="#46B2C8" stroke-width="5" stroke-miterlimit="10" stroke-linecap="round" stroke-linejoin="round"/>
<path d="M82.752 29.6553H107.196" stroke="#46B2C8" stroke-width="5" stroke-miterlimit="10" stroke-linecap="round" stroke-linejoin="round"/>
<path d="M82.7524 52.2129H107.196" stroke="#46B2C8" stroke-width="5" stroke-miterlimit="10" stroke-linecap="round" stroke-linejoin="round"/>
<path d="M82.7524 59.7324H107.196" stroke="#46B2C8" stroke-width="5" stroke-miterlimit="10" stroke-linecap="round" stroke-linejoin="round"/>
<path d="M82.752 67.2529H107.196" stroke="#46B2C8" stroke-width="5" stroke-miterlimit="10" stroke-linecap="round" stroke-linejoin="round"/>
<path d="M71.0146 44.6943H75.8551" stroke="#46B2C8" stroke-width="5" stroke-miterlimit="10" stroke-linecap="round" stroke-linejoin="round"/>
<path d="M71.0151 29.6553H75.8556" stroke="#46B2C8" stroke-width="5" stroke-miterlimit="10" stroke-linecap="round" stroke-linejoin="round"/>
<path d="M71.0146 59.7324H75.8551" stroke="#46B2C8" stroke-width="5" stroke-miterlimit="10" stroke-linecap="round" stroke-linejoin="round"/>
<path d="M33.3261 14.8475H16.2466C14.6493 14.8475 13.3423 16.1581 13.3423 17.7598V68.2393C13.3423 69.841 14.6493 71.1514 16.2466 71.1514H58.5862C60.1835 71.1514 61.4903 69.841 61.4903 68.2393V17.7598C61.4903 16.1581 60.1835 14.8475 58.5862 14.8475H41.5065" stroke="#46B2C8" stroke-width="5" stroke-miterlimit="10" stroke-linecap="round" stroke-linejoin="round"/>
<path d="M117.914 38.8985V7.55975C117.914 4.93054 115.769 2.77944 113.147 2.77944H6.51926C3.89709 2.77944 1.75195 4.93054 1.75195 7.55975V78.4404C1.75195 81.0696 3.89709 83.2207 6.51926 83.2207H113.147C115.769 83.2207 117.914 81.0696 117.914 78.4404V47.1016" stroke="#46B2C8" stroke-width="5" stroke-miterlimit="10" stroke-linecap="round" stroke-linejoin="round"/>
</svg>
