<svg width="120" height="120" viewBox="0 0 120 120" fill="none" xmlns="http://www.w3.org/2000/svg">
<g clip-path="url(#clip0_1440_45504)">
<path d="M32.0006 97.8506H14.0004C12.8954 97.8506 12 98.746 12 99.8501C12 100.955 12.8954 101.851 14.0004 101.851H32.0006C33.1047 101.851 34.0001 100.955 34.0001 99.8501C34.0001 98.746 33.1047 97.8506 32.0006 97.8506Z" fill="#46B2C8"/>
<path d="M114 57.8503H79.9997V17.85C79.996 14.5385 77.3126 11.8542 74.0002 11.8505H71.9998V4.23426C71.9989 3.05049 71.4743 1.92713 70.5661 1.16725C69.6588 0.407359 68.4604 0.0887555 67.2949 0.29658L3.64288 11.8826L3.62915 11.8881C1.57837 12.0748 0.0064087 13.7915 0 15.8505V115.851C0.00274659 118.058 1.79169 119.848 3.99994 119.851H114C117.312 119.847 119.996 117.163 120 113.85V63.8507C119.996 60.5383 117.312 57.854 114 57.8503ZM67.9999 4.23426V11.8505H26.1566L67.9999 4.23426ZM3.99994 15.8505H74.0002C75.1044 15.8514 75.9988 16.7459 75.9998 17.85V57.8503H64.7388C67.3242 49.877 65.885 41.1447 60.8789 34.4229C60.8615 34.389 60.8624 34.3524 60.8432 34.3194C60.7672 34.2141 60.6812 34.118 60.585 34.0301C55.6842 27.6141 48.0716 23.8494 39.9976 23.8504C31.9235 23.8513 24.3118 27.6159 19.4119 34.0329C19.3167 34.1198 19.2307 34.215 19.1556 34.3194C19.1354 34.3524 19.1373 34.389 19.1199 34.4229C13.4784 42.008 12.4146 52.0642 16.344 60.6619C20.2734 69.2605 28.5727 75.0366 37.9999 75.736V89.8507H14.0002C12.8952 89.8507 11.9998 90.7461 11.9998 91.8502C11.9998 92.9553 12.8952 93.8507 14.0002 93.8507H37.9999V113.85C38.0072 114.533 38.1317 115.21 38.3688 115.851H3.99994V15.8505ZM53.3459 57.8503C53.6765 55.8654 53.877 53.8613 53.9474 51.8499H61.8942C61.7038 53.9071 61.2268 55.9259 60.477 57.8503H53.3459ZM53.9474 47.85C53.8522 45.2325 53.5355 42.6269 52.999 40.0625C54.8804 39.515 56.7105 38.8046 58.4683 37.9376C60.4001 40.914 61.5775 44.317 61.8988 47.85H53.9474ZM37.9999 71.3131C35.6287 70.1532 33.4332 67.0294 31.9363 62.5808C33.9395 62.2146 35.9656 61.9894 37.9999 61.9061V71.3131ZM37.9999 57.9061C35.6168 57.9968 33.2428 58.2659 30.9 58.7127C30.4367 56.4514 30.1556 54.1561 30.0604 51.8499H37.9999V57.9061ZM30.0504 47.85C30.141 45.5465 30.4211 43.254 30.8871 40.9954C33.2355 41.4404 35.6122 41.7077 37.9999 41.7956V47.85H30.0504ZM37.9999 28.384V37.7948C35.9683 37.7087 33.945 37.4826 31.9446 37.1163C33.4653 32.6467 35.7001 29.555 37.9999 28.384ZM41.9998 41.7956C44.3875 41.7068 46.7651 41.4395 49.1125 40.9954C49.5795 43.2531 49.8596 45.5465 49.9493 47.85H41.9998V41.7956ZM41.9998 37.7948V28.384C44.2996 29.555 46.5344 32.6467 48.0551 37.1163C46.0547 37.4826 44.0314 37.7087 41.9998 37.7948ZM51.9562 36.1953C51.2494 33.945 50.257 31.7953 49.0018 29.7985C51.6074 30.975 53.9594 32.6458 55.9277 34.7186C54.6396 35.3018 53.313 35.7952 51.9562 36.1935V36.1953ZM28.0435 36.1953C26.6876 35.7962 25.3601 35.3027 24.0729 34.7195C26.0403 32.6458 28.3923 30.975 30.9979 29.7995C29.7427 31.7953 28.7503 33.944 28.0435 36.1935V36.1953ZM21.5314 37.9394C23.2892 38.8055 25.1193 39.5169 27.0016 40.0634C26.4651 42.6278 26.1475 45.2325 26.0532 47.85H18.1018C18.4222 44.317 19.5996 40.914 21.5314 37.9376V37.9394ZM26.0614 51.8499C26.1612 54.4711 26.4798 57.0785 27.0126 59.6466C25.1166 60.1886 23.2736 60.8999 21.5048 61.7706C19.5776 58.7905 18.4076 55.3857 18.0954 51.8499H26.0614ZM28.0243 63.5156C28.7311 65.765 29.7272 67.9138 30.9879 69.9078C28.3713 68.7423 26.0101 67.0724 24.0399 64.9942C25.3317 64.4091 26.6629 63.9148 28.0243 63.5156ZM44.0002 57.8503C43.6798 57.8567 43.3603 57.8888 43.0453 57.9464C42.7029 57.9272 42.3468 57.9272 41.9998 57.9135V51.8499H49.9475C49.8669 53.8641 49.639 55.87 49.2654 57.8503H44.0002ZM116 113.85C115.999 114.954 115.104 115.849 114 115.851H44.0002C42.8961 115.849 42.0007 114.954 41.9998 113.85V63.8507C42.0007 62.7465 42.8961 61.8512 44.0002 61.8502H114C115.104 61.8512 115.999 62.7465 116 63.8507V113.85Z" fill="#46B2C8"/>
<path d="M109.999 65.8506H47.9999C46.8949 65.8506 45.9995 66.746 45.9995 67.851C45.9995 68.9551 46.8949 69.8505 47.9999 69.8505H109.999C111.104 69.8505 112 68.9551 112 67.851C112 66.746 111.104 65.8506 109.999 65.8506Z" fill="#46B2C8"/>
<path d="M70.0001 73.8506H49.9995C47.7921 73.8533 46.0023 75.6432 45.9995 77.8505V101.851C46.0023 104.059 47.7921 105.848 49.9995 105.851H70.0001C72.2074 105.848 73.9973 104.059 74 101.851V77.8505C73.9973 75.6432 72.2074 73.8533 70.0001 73.8506ZM70.0001 77.8505L70.001 94.7933C68.7247 93.8906 67.3121 93.1957 65.8179 92.7333C67.7717 89.8128 67.2571 85.8971 64.6158 83.5799C61.9745 81.2627 58.025 81.2627 55.3837 83.5799C52.7424 85.8971 52.2278 89.8128 54.1816 92.7333C52.6874 93.1948 51.2766 93.8896 49.9995 94.7924V77.8505H70.0001ZM56.9996 88.8506C56.9996 87.1944 58.3427 85.8513 59.9998 85.8513C61.6569 85.8513 62.9999 87.1944 62.9999 88.8506C62.9999 90.5077 61.6569 91.8508 59.9998 91.8508C58.3436 91.8489 57.0014 90.5068 56.9996 88.8506ZM49.9995 101.851C49.9995 98.5991 54.5798 95.8507 59.9998 95.8507C65.4197 95.8507 70.0001 98.5991 70.0001 101.851H49.9995Z" fill="#46B2C8"/>
<path d="M108 73.8506H81.9999C80.8949 73.8506 79.9995 74.746 79.9995 75.851C79.9995 76.9551 80.8949 77.8505 81.9999 77.8505H108C109.104 77.8505 110 76.9551 110 75.851C110 74.746 109.104 73.8506 108 73.8506Z" fill="#46B2C8"/>
<path d="M83.9995 81.8496H81.9999C80.8949 81.8496 79.9995 82.7459 79.9995 83.85C79.9995 84.9542 80.8949 85.8505 81.9999 85.8505H83.9995C85.1045 85.8505 85.9999 84.9542 85.9999 83.85C85.9999 82.7459 85.1045 81.8496 83.9995 81.8496Z" fill="#46B2C8"/>
<path d="M108 81.8496H92.0004C90.8954 81.8496 90 82.7459 90 83.85C90 84.9542 90.8954 85.8505 92.0004 85.8505H108C109.104 85.8505 110 84.9542 110 83.85C110 82.7459 109.104 81.8496 108 81.8496Z" fill="#46B2C8"/>
<path d="M83.9995 89.8506H81.9999C80.8949 89.8506 79.9995 90.746 79.9995 91.8501C79.9995 92.9551 80.8949 93.8505 81.9999 93.8505H83.9995C85.1045 93.8505 85.9999 92.9551 85.9999 91.8501C85.9999 90.746 85.1045 89.8506 83.9995 89.8506Z" fill="#46B2C8"/>
<path d="M108 89.8506H92.0004C90.8954 89.8506 90 90.746 90 91.8501C90 92.9551 90.8954 93.8505 92.0004 93.8505H108C109.104 93.8505 110 92.9551 110 91.8501C110 90.746 109.104 89.8506 108 89.8506Z" fill="#46B2C8"/>
<path d="M83.9995 97.8506H81.9999C80.8949 97.8506 79.9995 98.746 79.9995 99.8501C79.9995 100.955 80.8949 101.851 81.9999 101.851H83.9995C85.1045 101.851 85.9999 100.955 85.9999 99.8501C85.9999 98.746 85.1045 97.8506 83.9995 97.8506Z" fill="#46B2C8"/>
<path d="M108 97.8506H92.0004C90.8954 97.8506 90 98.746 90 99.8501C90 100.955 90.8954 101.851 92.0004 101.851H108C109.104 101.851 110 100.955 110 99.8501C110 98.746 109.104 97.8506 108 97.8506Z" fill="#46B2C8"/>
<path d="M83.9995 105.851H81.9999C80.8949 105.851 79.9995 106.746 79.9995 107.85C79.9995 108.955 80.8949 109.851 81.9999 109.851H83.9995C85.1045 109.851 85.9999 108.955 85.9999 107.85C85.9999 106.746 85.1045 105.851 83.9995 105.851Z" fill="#46B2C8"/>
<path d="M108 105.851H92.0004C90.8954 105.851 90 106.746 90 107.85C90 108.955 90.8954 109.851 92.0004 109.851H108C109.104 109.851 110 108.955 110 107.85C110 106.746 109.104 105.851 108 105.851Z" fill="#46B2C8"/>
</g>
<defs>
<clipPath id="clip0_1440_45504">
<rect width="120" height="120" fill="white"/>
</clipPath>
</defs>
</svg>
