<svg width="118" height="118" viewBox="0 0 118 118" fill="none" xmlns="http://www.w3.org/2000/svg">
<path d="M53.375 47.75C53.375 42.5806 49.1694 38.375 44 38.375C39.4737 38.375 35.6862 41.6019 34.8144 45.875H27.125V49.625H34.625V53.375H15.875V56.6C15.875 62.7481 18.6838 68.4444 23.4388 72.215C21.0369 75.9894 19.625 80.4537 19.625 85.25C19.625 98.69 30.56 109.625 44 109.625C57.44 109.625 68.375 98.69 68.375 85.25C68.375 80.4537 66.9631 75.9894 64.5612 72.2131C69.3162 68.4425 72.125 62.7462 72.125 56.6V53.375H53.375V47.75ZM64.625 85.25C64.625 87.2019 64.3344 89.0844 63.8262 90.875H56.6675C56.9525 89.1369 57.125 87.2731 57.125 85.25C57.125 83.2269 56.9525 81.3631 56.6675 79.625H63.8262C64.3344 81.4156 64.625 83.2981 64.625 85.25ZM44.0056 105.517C42.2506 104.259 38.3187 100.871 36.1419 94.625H51.8787C49.7112 100.908 45.7756 104.264 44.0056 105.517ZM35.15 90.875C34.8256 89.1612 34.625 87.2994 34.625 85.25C34.625 83.1987 34.8237 81.3369 35.1444 79.625H52.85C53.1744 81.3387 53.375 83.2006 53.375 85.25C53.375 87.3012 53.1762 89.1631 52.8556 90.875H35.15ZM23.375 85.25C23.375 83.2981 23.6656 81.4156 24.1737 79.625H31.3325C31.0475 81.3631 30.875 83.2269 30.875 85.25C30.875 87.2731 31.0475 89.1369 31.3325 90.875H24.1737C23.6656 89.0844 23.375 87.2019 23.375 85.25ZM43.9944 64.985C45.7494 66.2431 49.6812 69.6312 51.8562 75.875H36.1194C38.2869 69.5975 42.2187 66.2394 43.9944 64.985ZM55.8031 75.875C54.4475 71.3094 52.2537 67.925 50.1725 65.57C55.475 67.2369 59.8475 71 62.3487 75.875H55.8031ZM32.1969 75.875H25.6512C28.1525 71 32.525 67.2369 37.8275 65.57C35.7462 67.925 33.5544 71.3094 32.1969 75.875ZM25.6512 94.625H32.1969C33.5525 99.1906 35.7462 102.575 37.8275 104.93C32.525 103.263 28.1525 99.5 25.6512 94.625ZM50.1725 104.93C52.2537 102.575 54.4456 99.1906 55.8031 94.625H62.3487C59.8475 99.5 55.475 103.263 50.1725 104.93ZM68.3656 57.125C68.3037 59.0581 67.895 60.9275 67.1937 62.6675L64.0756 59.5494L61.4244 62.2006L65.3112 66.0875C64.4694 67.2537 63.4625 68.3037 62.3187 69.2225C57.8469 64.1187 51.3031 60.875 44 60.875C36.6969 60.875 30.1512 64.1187 25.6812 69.2244C24.5375 68.3056 23.5306 67.2556 22.6887 66.0894L26.5775 62.2006L23.9262 59.5494L20.8063 62.6694C20.105 60.9275 19.6962 59.0581 19.6344 57.1269H38.375V47.7519C38.375 44.6506 40.8987 42.1269 44 42.1269C47.1012 42.1269 49.625 44.6506 49.625 47.7519V57.1269L68.3656 57.125Z" fill="#46B2C8"/>
<path d="M97.2763 0.875H60.875C58.8069 0.875 57.125 2.55687 57.125 4.625V19.625H6.5C3.39875 19.625 0.875 22.1488 0.875 25.25V111.5C0.875 114.601 3.39875 117.125 6.5 117.125H70.25C73.3006 117.125 75.9894 115.638 77.7012 113.375H113.375C115.443 113.375 117.125 111.693 117.125 109.625V20.7238L97.2763 0.875ZM98.375 7.27625L110.724 19.625H98.375V7.27625ZM70.25 30.875H60.875V27.125H72.125V31.0644C71.5194 30.9406 70.8913 30.875 70.25 30.875ZM72.125 23.375H60.875V19.625H72.125V23.375ZM72.125 15.875H60.875V12.125H72.125V15.875ZM4.625 25.25C4.625 24.215 5.465 23.375 6.5 23.375H57.125V30.875H6.5C5.465 30.875 4.625 30.035 4.625 29V25.25ZM4.625 111.5V34.3044C5.21187 34.5106 5.84188 34.625 6.5 34.625H8.375V113.375H6.5C5.465 113.375 4.625 112.535 4.625 111.5ZM75.875 107.75C75.875 110.851 73.3512 113.375 70.25 113.375H12.125V34.625H70.25C73.3512 34.625 75.875 37.1488 75.875 40.25V107.75ZM79.4356 109.625C79.5594 109.019 79.625 108.391 79.625 107.75V40.25C79.625 37.1994 78.1381 34.5106 75.875 32.7987V8.375H60.875V4.625H94.625V19.625C94.625 21.6931 96.3069 23.375 98.375 23.375H113.375V109.625H79.4356Z" fill="#46B2C8"/>
<path d="M98.375 27.125H102.125V102.125H98.375V27.125Z" fill="#46B2C8"/>
<path d="M105.875 27.125H109.625V30.875H105.875V27.125Z" fill="#46B2C8"/>
<path d="M105.875 34.625H109.625V38.375H105.875V34.625Z" fill="#46B2C8"/>
<path d="M105.875 42.125H109.625V45.875H105.875V42.125Z" fill="#46B2C8"/>
<path d="M105.875 49.625H109.625V53.375H105.875V49.625Z" fill="#46B2C8"/>
<path d="M105.875 57.125H109.625V60.875H105.875V57.125Z" fill="#46B2C8"/>
<path d="M105.875 64.625H109.625V68.375H105.875V64.625Z" fill="#46B2C8"/>
<path d="M105.875 72.125H109.625V75.875H105.875V72.125Z" fill="#46B2C8"/>
<path d="M105.875 79.625H109.625V83.375H105.875V79.625Z" fill="#46B2C8"/>
<path d="M105.875 87.125H109.625V90.875H105.875V87.125Z" fill="#46B2C8"/>
<path d="M105.875 94.625H109.625V98.375H105.875V94.625Z" fill="#46B2C8"/>
<path d="M79.625 12.125H83.375V19.625H79.625V12.125Z" fill="#46B2C8"/>
<path d="M79.625 23.375H83.375V30.875H79.625V23.375Z" fill="#46B2C8"/>
<path d="M87.125 19.625H90.875V53.375H87.125V19.625Z" fill="#46B2C8"/>
<path d="M87.125 57.125H90.875V68.375H87.125V57.125Z" fill="#46B2C8"/>
<path d="M87.125 72.125H90.875V102.125H87.125V72.125Z" fill="#46B2C8"/>
</svg>
