<svg width="120" height="120" viewBox="0 0 120 120" fill="none" xmlns="http://www.w3.org/2000/svg">
<g clip-path="url(#clip0_1236_7248)">
<path d="M114.22 19.6875H5.77972C2.59277 19.6875 0 22.2803 0 25.4672V88.0234C0 91.0565 2.34924 93.5495 5.32379 93.783V94.4504C5.32379 97.6373 7.91656 100.229 11.1035 100.229H109.173C112.359 100.229 114.952 97.6373 114.952 94.4504V93.7546C117.794 93.3939 120 90.9622 120 88.0234V25.4672C120 22.2803 117.407 19.6875 114.22 19.6875ZM116.372 88.0234C116.372 89.2099 115.407 90.174 114.22 90.174H23.6838C22.6813 90.174 21.8692 90.9869 21.8692 91.9885C21.8692 92.991 22.6813 93.8031 23.6838 93.8031H111.324V94.4504C111.324 95.6369 110.359 96.601 109.173 96.601H11.1035C9.91699 96.601 8.95203 95.6369 8.95203 94.4504V93.8031H15.3781C16.3806 93.8031 17.1927 92.991 17.1927 91.9885C17.1927 90.9869 16.3806 90.174 15.3781 90.174H5.77972C4.5932 90.174 3.62823 89.2099 3.62823 88.0234V25.4672C3.62823 24.2807 4.5932 23.3157 5.77972 23.3157H114.22C115.407 23.3157 116.372 24.2807 116.372 25.4672V88.0234Z" fill="#46B2C8"/>
<path d="M41.7855 47.9619H13.622C11.1299 47.9619 9.10205 49.9898 9.10205 52.4819V80.6453C9.10205 83.1374 11.1299 85.1653 13.622 85.1653H41.7855C44.2775 85.1653 46.3054 83.1374 46.3054 80.6453V52.4819C46.3054 49.9889 44.2775 47.9619 41.7855 47.9619ZM20.7833 81.537V77.3036C20.7833 76.3735 21.5404 75.6163 22.4706 75.6163H32.3967C33.3269 75.6163 34.084 76.3726 34.084 77.3036V81.537H20.7833ZM42.6772 80.6453C42.6772 81.137 42.2771 81.537 41.7855 81.537H37.7123V77.3036C37.7123 74.3721 35.3282 71.9881 32.3967 71.9881H22.4706C19.54 71.9881 17.155 74.3721 17.155 77.3036V81.537H13.622C13.1304 81.537 12.7303 81.137 12.7303 80.6453V52.4819C12.7303 51.9902 13.1304 51.5901 13.622 51.5901H41.7855C42.2771 51.5901 42.6772 51.9902 42.6772 52.4819V80.6453Z" fill="#46B2C8"/>
<path d="M27.4338 54.7383C23.6737 54.7383 20.614 57.7971 20.614 61.558C20.614 65.3181 23.6737 68.3778 27.4338 68.3778C31.1948 68.3778 34.2535 65.3181 34.2535 61.558C34.2535 57.7971 31.1938 54.7383 27.4338 54.7383ZM27.4338 64.7487C25.6741 64.7487 24.2432 63.3168 24.2432 61.5571C24.2432 59.7975 25.6741 58.3665 27.4338 58.3665C29.1934 58.3665 30.6253 59.7975 30.6253 61.5571C30.6253 63.3168 29.1934 64.7487 27.4338 64.7487Z" fill="#46B2C8"/>
<path d="M109.017 49.3906H53.639C52.6365 49.3906 51.8245 50.2027 51.8245 51.2043C51.8245 52.2068 52.6365 53.0189 53.639 53.0189H109.017C110.019 53.0189 110.831 52.2068 110.831 51.2043C110.831 50.2027 110.019 49.3906 109.017 49.3906Z" fill="#46B2C8"/>
<path d="M53.6388 61.2043H89.5055C90.5071 61.2043 91.3201 60.3923 91.3201 59.3898C91.3201 58.3873 90.5071 57.5752 89.5055 57.5752H53.6388C52.6363 57.5752 51.8242 58.3873 51.8242 59.3898C51.8242 60.3923 52.6363 61.2043 53.6388 61.2043Z" fill="#46B2C8"/>
<path d="M68.0208 65.6318H53.6388C52.6363 65.6318 51.8242 66.4439 51.8242 67.4455C51.8242 68.448 52.6363 69.2601 53.6388 69.2601H68.0208C69.0224 69.2601 69.8354 68.448 69.8354 67.4455C69.8354 66.4439 69.0224 65.6318 68.0208 65.6318Z" fill="#46B2C8"/>
<path d="M105.845 28.7031H99.6807C98.6782 28.7031 97.8661 29.5152 97.8661 30.5177C97.8661 31.5202 98.6782 32.3323 99.6807 32.3323H105.845C106.594 32.3323 107.203 32.9411 107.203 33.6891V34.0864C107.203 34.8344 106.594 35.4432 105.845 35.4432H12.8842C12.1362 35.4432 11.5273 34.8344 11.5273 34.0864V33.6891C11.5273 32.9411 12.1362 32.3323 12.8842 32.3323H90.7699C91.7724 32.3323 92.5845 31.5202 92.5845 30.5177C92.5845 29.5152 91.7724 28.7031 90.7699 28.7031H12.8842C10.1348 28.7031 7.89819 30.9398 7.89819 33.6891V34.0864C7.89819 36.8348 10.1348 39.0724 12.8842 39.0724H105.845C108.594 39.0724 110.831 36.8348 110.831 34.0864V33.6891C110.831 30.9398 108.594 28.7031 105.845 28.7031Z" fill="#46B2C8"/>
<path d="M108.101 74.4897C106.331 75.8264 103.976 77.717 101.627 76.8719C100.463 76.4526 99.4108 76.1276 98.2307 76.774C97.9405 76.9342 97.6594 77.1246 97.3847 77.3315C97.1925 76.0196 95.9464 75.159 94.6684 75.8474C93.783 76.3244 92.8721 76.7145 91.9227 77.0147C92.5398 75.3174 92.7567 73.2721 92.049 71.5811C91.1775 69.4992 88.8419 68.7677 86.8479 69.7601C85.091 70.6326 83.6106 72.774 82.9112 74.5602C82.1751 76.4416 82.5569 78.4686 84.0922 79.8355C84.2588 79.9838 84.4328 80.1156 84.6104 80.2401C83.3589 81.0348 81.9837 81.6583 80.6434 82.2452C79.7389 82.6407 79.5484 83.9471 79.9925 84.7271C80.5235 85.6592 81.5827 85.769 82.4754 85.3781C84.8411 84.3426 87.1903 83.0856 89.0351 81.3296C90.7325 81.2417 92.4958 80.7455 94.0705 80.1166C94.1044 80.4187 94.1374 80.7217 94.1712 81.0238C94.347 82.5995 96.0188 83.3996 97.2685 82.3065C97.8132 81.8304 98.3579 81.3543 98.9027 80.8783C99.1444 80.6668 99.3842 80.4516 99.6287 80.2429C99.929 79.9865 99.549 79.9591 100.015 80.1028C101.158 80.458 102.147 80.8197 103.377 80.6997C105.854 80.458 107.992 79.0875 109.933 77.6227C110.72 77.0276 111.108 76.0635 110.583 75.1407C110.143 74.3661 108.882 73.901 108.101 74.4897ZM86.4057 75.592C86.8031 74.768 87.6417 73.3133 88.5481 72.9672C88.5993 72.9471 88.6625 72.9361 88.7238 72.937C88.6332 72.9635 88.7843 73.1979 88.8117 73.3655C88.9015 73.9193 88.8511 74.5016 88.733 75.0464C88.5334 75.9646 88.1095 76.839 87.5529 77.6016C87.421 77.5732 87.2929 77.5393 87.1674 77.4945C86.2071 77.153 85.9599 76.5176 86.4057 75.592Z" fill="#46B2C8"/>
</g>
<defs>
<clipPath id="clip0_1236_7248">
<rect width="120" height="120" fill="white"/>
</clipPath>
</defs>
</svg>
