<svg width="19" height="19" viewBox="0 0 19 19" fill="none" xmlns="http://www.w3.org/2000/svg">
<path d="M13.6817 1.58984H5.73075C3.53514 1.58984 1.75525 3.36973 1.75525 5.56534V13.5163C1.75525 15.7119 3.53514 17.4918 5.73075 17.4918H13.6817C15.8773 17.4918 17.6572 15.7119 17.6572 13.5163V5.56534C17.6572 3.36973 15.8773 1.58984 13.6817 1.58984Z" stroke="#0B4B58" stroke-width="1.8" stroke-linecap="round" stroke-linejoin="round"/>
<path d="M12.8865 9.04006C12.9846 9.70178 12.8716 10.3776 12.5635 10.9714C12.2554 11.5652 11.7679 12.0467 11.1703 12.3474C10.5728 12.6482 9.89565 12.7529 9.23519 12.6466C8.57473 12.5403 7.9646 12.2285 7.49158 11.7555C7.01856 11.2824 6.70673 10.6723 6.60045 10.0118C6.49418 9.35139 6.59886 8.67423 6.89962 8.0767C7.20037 7.47917 7.68188 6.99168 8.27566 6.68358C8.86944 6.37548 9.54525 6.26245 10.207 6.36058C10.882 6.46067 11.5068 6.77519 11.9893 7.25769C12.4718 7.74019 12.7864 8.36508 12.8865 9.04006Z" stroke="#0B4B58" stroke-width="1.8" stroke-linecap="round" stroke-linejoin="round"/>
<path d="M14.0793 5.16797H14.0873" stroke="#0B4B58" stroke-width="1.8" stroke-linecap="round" stroke-linejoin="round"/>
</svg>
