<svg width="17" height="16" viewBox="0 0 17 16" fill="none" xmlns="http://www.w3.org/2000/svg">
<path d="M11.8042 5.36133C13.0694 5.36133 14.2828 5.86394 15.1775 6.7586C16.0722 7.65326 16.5748 8.86668 16.5748 10.1319V15.6976H13.3944V10.1319C13.3944 9.71018 13.2268 9.30571 12.9286 9.00749C12.6304 8.70927 12.2259 8.54173 11.8042 8.54173C11.3824 8.54173 10.9779 8.70927 10.6797 9.00749C10.3815 9.30571 10.214 9.71018 10.214 10.1319V15.6976H7.03357V10.1319C7.03357 8.86668 7.53618 7.65326 8.43085 6.7586C9.32551 5.86394 10.5389 5.36133 11.8042 5.36133V5.36133Z" fill="#0B4B58"/>
<path d="M3.85313 6.15625H0.672729V15.6974H3.85313V6.15625Z" fill="#0B4B58"/>
<path d="M2.26293 3.77024C3.14117 3.77024 3.85313 3.05829 3.85313 2.18004C3.85313 1.3018 3.14117 0.589844 2.26293 0.589844C1.38469 0.589844 0.672729 1.3018 0.672729 2.18004C0.672729 3.05829 1.38469 3.77024 2.26293 3.77024Z" fill="#0B4B58"/>
</svg>
