<svg width="18" height="15" viewBox="0 0 18 15" fill="none" xmlns="http://www.w3.org/2000/svg">
<path d="M17.5342 0.384948C16.7728 0.92202 15.9298 1.33279 15.0376 1.60145C14.5587 1.05085 13.9223 0.660603 13.2144 0.483482C12.5066 0.306361 11.7614 0.350915 11.0796 0.611117C10.3979 0.87132 9.81253 1.33462 9.40269 1.93835C8.99284 2.54208 8.77831 3.25712 8.78809 3.98675V4.78185C7.39081 4.81808 6.00625 4.50819 4.75774 3.87977C3.50922 3.25135 2.43549 2.32391 1.63219 1.18005C1.63219 1.18005 -1.54821 8.33595 5.60769 11.5163C3.9702 12.6279 2.01953 13.1852 0.0419922 13.1065C7.19789 17.082 15.944 13.1065 15.944 3.9629C15.9433 3.74142 15.922 3.5205 15.8804 3.30296C16.6919 2.50269 17.2645 1.49229 17.5342 0.384948V0.384948Z" fill="#0B4B58"/>
</svg>
