<svg width="35" height="35" viewBox="0 0 35 35" fill="none" xmlns="http://www.w3.org/2000/svg">
<g clip-path="url(#clip0_3216_21138)">
<path d="M15.4492 0H1.02539C0.459375 0 0 0.459375 0 1.02539V15.4492C0 16.0152 0.459375 16.4746 1.02539 16.4746H15.4492C16.0152 16.4746 16.4746 16.0152 16.4746 15.4492V1.02539C16.4746 0.459375 16.0152 0 15.4492 0Z" fill="#46B2C8"/>
<path d="M16.4766 1.02539V15.4492C16.4766 16.0152 16.0172 16.4746 15.4512 16.4746H8.27344V0H15.4512C16.0172 0 16.4766 0.459375 16.4766 1.02539Z" fill="#3FA3B7"/>
<path d="M33.9727 0H19.5488C18.9828 0 18.5234 0.459375 18.5234 1.02539V15.4492C18.5234 16.0152 18.9828 16.4746 19.5488 16.4746H33.9727C34.5387 16.4746 34.998 16.0152 34.998 15.4492V1.02539C34.998 0.459375 34.5387 0 33.9727 0Z" fill="#196F82"/>
<path d="M34.998 1.02539V15.4492C34.998 16.0152 34.5387 16.4746 33.9727 16.4746H26.7266V0H33.9727C34.5387 0 34.998 0.459375 34.998 1.02539Z" fill="#115766"/>
<path d="M15.4492 18.5254H1.02539C0.459375 18.5254 0 18.9848 0 19.5508V33.9746C0 34.5406 0.459375 35 1.02539 35H15.4492C16.0152 35 16.4746 34.5406 16.4746 33.9746V19.5508C16.4746 18.9848 16.0152 18.5254 15.4492 18.5254Z" fill="#196F82"/>
<path d="M16.4766 19.5508V33.9746C16.4766 34.5406 16.0172 35 15.4512 35H8.27344V18.5254H15.4512C16.0172 18.5254 16.4766 18.9848 16.4766 19.5508Z" fill="#115766"/>
<path d="M33.9727 18.5254H19.5488C18.9828 18.5254 18.5234 18.9848 18.5234 19.5508V33.9746C18.5234 34.5406 18.9828 35 19.5488 35H33.9727C34.5387 35 34.998 34.5406 34.998 33.9746V19.5508C34.998 18.9848 34.5387 18.5254 33.9727 18.5254Z" fill="#46B2C8"/>
<path d="M34.998 19.5508V33.9746C34.998 34.5406 34.5387 35 33.9727 35H26.7266V18.5254H33.9727C34.5387 18.5254 34.998 18.9848 34.998 19.5508Z" fill="#3FA3B7"/>
<path d="M30.5318 10.6224C30.9317 11.023 30.9317 11.6724 30.5318 12.073C30.1312 12.4729 29.4818 12.4729 29.0812 12.073L26.7303 9.72146L24.3794 12.073C23.9788 12.4729 23.3294 12.4729 22.9288 12.073C22.5289 11.6724 22.5289 11.023 22.9288 10.6224L25.2804 8.27156L22.9288 5.92068C22.5289 5.52009 22.5289 4.87068 22.9288 4.47009C23.3294 4.07019 23.9788 4.07019 24.3794 4.47009L26.7303 6.82166L29.0812 4.47009C29.4818 4.07019 30.1312 4.07019 30.5318 4.47009C30.9317 4.87068 30.9317 5.52009 30.5318 5.92068L28.1802 8.27156L30.5318 10.6224Z" fill="#FFF5F5"/>
<path d="M30.528 10.6224C30.9279 11.023 30.9279 11.6724 30.528 12.073C30.1274 12.4729 29.478 12.4729 29.0774 12.073L26.7266 9.72146V6.82166L29.0774 4.47009C29.478 4.07019 30.1274 4.07019 30.528 4.47009C30.9279 4.87068 30.9279 5.52009 30.528 5.92068L28.1765 8.27156L30.528 10.6224Z" fill="#EFE2DD"/>
<path d="M12.0747 29.1478C12.4746 29.5484 12.4746 30.1978 12.0747 30.5984C11.6741 30.9983 11.0247 30.9983 10.6241 30.5984L8.27327 28.2468L5.92239 30.5984C5.5218 30.9983 4.87239 30.9983 4.4718 30.5984C4.0719 30.1978 4.0719 29.5484 4.4718 29.1478L6.82336 26.7969L4.4718 24.4461C4.0719 24.0455 4.0719 23.3961 4.4718 22.9955C4.87239 22.5956 5.5218 22.5956 5.92239 22.9955L8.27327 25.347L10.6241 22.9955C11.0247 22.5956 11.6741 22.5956 12.0747 22.9955C12.4746 23.3961 12.4746 24.0455 12.0747 24.4461L9.72317 26.7969L12.0747 29.1478Z" fill="#FFF5F5"/>
<path d="M12.0749 29.1478C12.4748 29.5484 12.4748 30.1978 12.0749 30.5984C11.6743 30.9983 11.0249 30.9983 10.6243 30.5984L8.27344 28.2468V25.347L10.6243 22.9955C11.0249 22.5956 11.6743 22.5956 12.0749 22.9955C12.4748 23.3961 12.4748 24.0455 12.0749 24.4461L9.72334 26.7969L12.0749 29.1478Z" fill="#EFE2DD"/>
<path d="M12.0747 6.94607L7.97317 11.0476C7.57258 11.4475 6.92317 11.4475 6.52258 11.0476L4.4718 8.99685C4.0719 8.59626 4.0719 7.94685 4.4718 7.54626C4.87239 7.14636 5.5218 7.14636 5.92239 7.54626L7.24788 8.87244L8.27327 7.84705L10.6241 5.49548C11.0247 5.09558 11.6741 5.09558 12.0747 5.49548C12.4746 5.89607 12.4746 6.54548 12.0747 6.94607Z" fill="#FFF5F5"/>
<path d="M12.0749 6.94607L8.27344 10.7475V7.84705L10.6243 5.49548C11.0249 5.09558 11.6743 5.09558 12.0749 5.49548C12.4748 5.89607 12.4748 6.54548 12.0749 6.94607Z" fill="#EFE2DD"/>
<path d="M30.5318 25.4715L26.4302 29.573C26.0296 29.9729 25.3802 29.9729 24.9796 29.573L22.9288 27.5222C22.5289 27.1217 22.5289 26.4722 22.9288 26.0717C23.3294 25.6718 23.9788 25.6718 24.3794 26.0717L25.7049 27.3978L26.7303 26.3724L29.0812 24.0209C29.4818 23.621 30.1312 23.621 30.5318 24.0209C30.9317 24.4215 30.9317 25.0709 30.5318 25.4715Z" fill="#FFF5F5"/>
<path d="M30.528 25.4715L26.7266 29.2729V26.3724L29.0774 24.0209C29.478 23.621 30.1274 23.621 30.528 24.0209C30.9279 24.4215 30.9279 25.0709 30.528 25.4715Z" fill="#EFE2DD"/>
</g>
<defs>
<clipPath id="clip0_3216_21138">
<rect width="35" height="35" fill="white"/>
</clipPath>
</defs>
</svg>
