<svg width="34" height="33" viewBox="0 0 34 33" fill="none" xmlns="http://www.w3.org/2000/svg">
<path d="M18.0184 30.1475C18.8102 30.1475 19.4521 29.5056 19.4521 28.7138V1.43369C19.4521 0.641887 18.8102 4.89909e-09 18.0184 4.89909e-09H1.43369C0.641887 -6.47537e-05 0 0.641887 0 1.43369V28.7138C0 29.5056 0.641887 30.1475 1.43369 30.1475H21.8197H21.8203H18.0184Z" fill="#C9EAF1"/>
<path d="M21.817 0H17.582C18.3738 0 19.0157 0.641887 19.0157 1.43369V28.7138C19.0157 29.5056 18.3738 30.1475 17.582 30.1475H21.817C22.6088 30.1475 23.2507 29.5056 23.2507 28.7138V1.43369C23.2507 0.641887 22.6088 0 21.817 0Z" fill="#C7E8F0"/>
<path d="M22.4624 31.5663V4.28611C22.4624 3.4943 21.8205 2.85242 21.0287 2.85242H10.5647C10.0191 2.85242 9.49601 3.0691 9.11024 3.45487L3.45792 9.10719C3.07222 9.49289 2.85547 10.0161 2.85547 10.5616V31.5663C2.85547 32.3581 3.49736 33 4.28916 33H21.0286C21.8205 33 22.4624 32.3581 22.4624 31.5663Z" fill="#F4FBFF"/>
<path d="M24.6739 2.85242H20.4492C21.241 2.85242 21.8829 3.4943 21.8829 4.28611V31.5663C21.8829 32.3581 21.241 32.9999 20.4492 32.9999H24.6739C25.4657 32.9999 26.1076 32.3581 26.1076 31.5663V4.28611C26.1076 3.4943 25.4657 2.85242 24.6739 2.85242Z" fill="#E4F6FF"/>
<path d="M33.1649 25.0528V23.989C33.1649 23.4519 32.7295 23.0166 32.1926 23.0166C31.7717 23.0166 31.4002 22.7453 31.2683 22.3456C31.1602 22.0181 31.0284 21.7015 30.8749 21.3977C30.6863 21.0246 30.762 20.5723 31.0575 20.2768L31.0577 20.2766C31.4374 19.8969 31.4374 19.2812 31.0577 18.9015L30.3054 18.1492C29.9257 17.7695 29.31 17.7695 28.9303 18.1492L28.9302 18.1494C28.6346 18.4449 28.1823 18.5206 27.8092 18.332C27.5055 18.1785 27.1888 18.0467 26.8613 17.9386C26.4616 17.8067 26.1903 17.4352 26.1903 17.0143C26.1903 16.4773 25.7549 16.042 25.2179 16.042H24.1541C23.617 16.042 23.1817 16.4774 23.1817 17.0143C23.1817 17.4352 22.9103 17.8067 22.5106 17.9386C22.1831 18.0467 21.8665 18.1785 21.5627 18.332C21.1897 18.5206 20.7373 18.4449 20.4418 18.1494L20.4417 18.1492C20.0619 17.7695 19.4463 17.7695 19.0665 18.1492L18.3143 18.9015C17.9345 19.2812 17.9345 19.8969 18.3143 20.2766L18.3144 20.2768C18.61 20.5723 18.6857 21.0246 18.4971 21.3977C18.3435 21.7014 18.2117 22.0181 18.1036 22.3456C17.9717 22.7453 17.6002 23.0166 17.1794 23.0166C16.6423 23.0166 16.207 23.452 16.207 23.989V25.0528C16.207 25.5899 16.6424 26.0252 17.1794 26.0252C17.6002 26.0252 17.9717 26.2966 18.1036 26.6963C18.2117 27.0238 18.3435 27.3404 18.4971 27.6442C18.6856 28.0172 18.6099 28.4696 18.3144 28.7651L18.3143 28.7652C17.9345 29.145 17.9345 29.7606 18.3143 30.1404L19.0665 30.8926C19.4463 31.2724 20.0619 31.2724 20.4417 30.8926L20.4418 30.8925C20.7373 30.5969 21.1897 30.5212 21.5627 30.7098C21.8665 30.8634 22.1831 30.9952 22.5106 31.1033C22.9103 31.2352 23.1817 31.6067 23.1817 32.0275C23.1817 32.5646 23.617 32.9999 24.1541 32.9999H25.2179C25.755 32.9999 26.1903 32.5645 26.1903 32.0275C26.1903 31.6067 26.4616 31.2352 26.8613 31.1033C27.1888 30.9952 27.5054 30.8634 27.8092 30.7098C28.1823 30.5213 28.6346 30.597 28.9302 30.8925L28.9303 30.8926C29.31 31.2724 29.9257 31.2724 30.3054 30.8926L31.0577 30.1404C31.4374 29.7606 31.4374 29.145 31.0577 28.7652L31.0575 28.7651C30.762 28.4696 30.6863 28.0172 30.8749 27.6442C31.0284 27.3404 31.1602 27.0238 31.2683 26.6963C31.4002 26.2966 31.7717 26.0252 32.1926 26.0252C32.7295 26.0252 33.1649 25.5899 33.1649 25.0528Z" fill="#B9CBEA"/>
<path d="M24.6889 29.3739C27.3691 29.3739 29.5418 27.2011 29.5418 24.5209C29.5418 21.8407 27.3691 19.668 24.6889 19.668C22.0087 19.668 19.8359 21.8407 19.8359 24.5209C19.8359 27.2011 22.0087 29.3739 24.6889 29.3739Z" fill="#CBE2FF"/>
<path d="M24.6859 29.3738C26.1869 29.3738 27.5285 28.6921 28.4186 27.6216C27.7197 26.2716 26.311 25.3485 24.6859 25.3485C23.0608 25.3485 21.6521 26.2716 20.9531 27.6216C21.8433 28.6921 23.1848 29.3738 24.6859 29.3738Z" fill="#4A80AA"/>
<path d="M24.6879 25.771C25.6783 25.771 26.4813 24.9681 26.4813 23.9777C26.4813 22.9872 25.6783 22.1843 24.6879 22.1843C23.6974 22.1843 22.8945 22.9872 22.8945 23.9777C22.8945 24.9681 23.6974 25.771 24.6879 25.771Z" fill="#115766"/>
<path d="M8.28116 9.70961C9.07297 9.70961 9.71485 9.06772 9.71485 8.27591V3.03772C9.4928 3.13881 9.28822 3.27901 9.1124 3.45483L3.46008 9.10722C3.28426 9.28304 3.14399 9.48761 3.04297 9.70967L8.28116 9.70961Z" fill="#46B2C8"/>
<path d="M22.5521 6.71509H14.2925C13.9109 6.71509 13.6016 7.02444 13.6016 7.40606V8.75939C13.6016 9.14101 13.9109 9.45036 14.2925 9.45036H22.5522C22.9338 9.45036 23.2431 9.14101 23.2431 8.75939V7.40606C23.2431 7.02444 22.9337 6.71509 22.5521 6.71509Z" fill="#CBE2FF"/>
<path d="M22.5578 9.45024C22.9394 9.45024 23.2488 9.14089 23.2488 8.75927V7.40594C23.2488 7.02432 22.9394 6.71497 22.5578 6.71497H21.8867V9.45018H22.5578V9.45024Z" fill="#BED8FB"/>
<path d="M13.6095 18.4916H5.72298C5.44659 18.4916 5.22266 18.2676 5.22266 17.9913C5.22266 17.715 5.44666 17.491 5.72298 17.491H13.6096C13.886 17.491 14.1099 17.715 14.1099 17.9913C14.1099 18.2676 13.8859 18.4916 13.6095 18.4916Z" fill="#115766"/>
<path d="M13.6095 21.845H5.72298C5.44659 21.845 5.22266 21.621 5.22266 21.3447C5.22266 21.0684 5.44666 20.8444 5.72298 20.8444H13.6096C13.886 20.8444 14.1099 21.0684 14.1099 21.3447C14.1099 21.621 13.8859 21.845 13.6095 21.845Z" fill="#115766"/>
<path d="M13.6095 25.1983H5.72298C5.44659 25.1983 5.22266 24.9743 5.22266 24.698C5.22266 24.4216 5.44666 24.1976 5.72298 24.1976H13.6096C13.886 24.1976 14.1099 24.4216 14.1099 24.698C14.1099 24.9743 13.8859 25.1983 13.6095 25.1983Z" fill="#115766"/>
<path d="M9.71749 28.5518H5.72298C5.44659 28.5518 5.22266 28.3278 5.22266 28.0515C5.22266 27.7751 5.44666 27.5511 5.72298 27.5511H9.71749C9.99388 27.5511 10.2178 27.7751 10.2178 28.0515C10.2178 28.3278 9.99381 28.5518 9.71749 28.5518Z" fill="#115766"/>
</svg>
