<svg width="36" height="35" viewBox="0 0 36 35" fill="none" xmlns="http://www.w3.org/2000/svg">
<path d="M11.3366 20.5884L6.08594 25.839V28.9201H9.16706L14.4176 23.6694L11.3366 20.5884Z" fill="#46B2C8"/>
<path d="M0 31.9194L6.08241 25.837L9.16303 28.9176L3.08062 35L0 31.9194Z" fill="#115766"/>
<path d="M35.0069 14.2338C35.0069 22.0948 28.6342 28.4675 20.7731 28.4675L13.6562 14.2338L20.7731 0C28.6342 0 35.0069 6.37268 35.0069 14.2338Z" fill="#62C7DC"/>
<path d="M20.7728 0V28.4675C12.9117 28.4675 6.53906 22.0948 6.53906 14.2338C6.53906 6.37268 12.9117 0 20.7728 0Z" fill="#46B2C8"/>
<path d="M30.6507 14.2337C30.6507 19.6884 26.2288 24.1103 20.7742 24.1103L15.8359 14.2337L20.7742 4.3573C26.2288 4.3573 30.6507 8.77908 30.6507 14.2337Z" fill="#C7E8F0"/>
<path d="M20.771 4.3573V24.1103C15.3163 24.1103 10.8945 19.6884 10.8945 14.2337C10.8945 8.77908 15.3163 4.3573 20.771 4.3573Z" fill="white"/>
<path d="M24.5077 10.588L20.7716 14.324L19.7461 17.2246H20.7716L25.9579 12.0382L24.5077 10.588Z" fill="#115766"/>
<path d="M18.771 16.3559L16.415 14L14.9648 15.4503L18.771 19.2565L20.4719 17.5555V14.6549L18.771 16.3559Z" fill="#21606D"/>
</svg>
