<svg width="257" height="257" viewBox="0 0 257 257" fill="none" xmlns="http://www.w3.org/2000/svg">
<path d="M238.142 153.076C248.167 137.815 254 119.555 254 99.9305C254 46.3973 210.603 3 157.069 3C103.536 3 60.1388 46.3973 60.1388 99.9305C60.1388 153.464 103.536 196.861 157.069 196.861C173.022 196.861 188.072 193.006 201.344 186.18M121.436 32.1981C132.079 26.5873 144.202 23.4065 157.07 23.4065C199.332 23.4065 233.594 57.6678 233.594 99.9306C233.594 116.423 228.376 131.696 219.503 144.19M161.75 176.313C159.919 176.444 158.934 176.455 157.07 176.455C114.806 176.455 80.5454 142.194 80.5454 99.9306C80.5454 87.0643 83.7252 74.9409 89.336 64.2999M99.6583 178.591L32.1773 249.011C25.5253 255.663 14.641 255.663 7.98899 249.011C1.337 242.36 1.337 231.475 7.98899 224.823L77.9428 157.784M59.3217 178.49L78.5099 197.679M131.56 99.9306H131.563M157.068 99.9306H157.071M182.575 99.9306H182.579M86.7531 32.4058C84.0191 27.7236 78.941 24.5769 73.1272 24.5769C71.6717 24.5769 70.2631 24.7749 68.9255 25.1442C64.6565 18.0367 56.8734 13.2809 47.9793 13.2809C34.4942 13.2809 23.563 24.2122 23.563 37.6972H20.93C14.2148 37.6972 8.72138 43.1906 8.72138 49.9054C8.72138 56.541 14.1903 62.1135 20.8494 62.1135H66.9338M102.955 45.82H102.958M174.519 186.168H242.521C248.835 186.168 254 181.003 254 174.69C254 168.377 248.835 163.211 242.521 163.211C241.913 155.058 235.106 148.632 226.797 148.632C225.342 148.632 223.933 148.83 222.595 149.199C218.327 142.092 210.543 137.336 201.649 137.336C188.164 137.336 177.233 148.267 177.233 161.752H174.6C167.885 161.752 162.391 167.246 162.391 173.96C162.391 180.596 167.86 186.168 174.519 186.168Z" stroke="#C2E2E9" stroke-width="5" stroke-miterlimit="2.613" stroke-linecap="round" stroke-linejoin="round"/>
</svg>
