<svg width="63" height="55" viewBox="0 0 63 55" fill="none" xmlns="http://www.w3.org/2000/svg">
<path d="M14.2188 4.0625H34.5312V6.09375H14.2188V4.0625Z" fill="#46B2C8"/>
<path d="M37.5781 18.2812H49.7656C50.035 18.2812 50.2933 18.1742 50.4838 17.9838C50.6742 17.7933 50.7812 17.535 50.7812 17.2656V5.07812C50.7812 4.80876 50.6742 4.55044 50.4838 4.35997C50.2933 4.1695 50.035 4.0625 49.7656 4.0625H37.5781C37.3088 4.0625 37.0504 4.1695 36.86 4.35997C36.6695 4.55044 36.5625 4.80876 36.5625 5.07812V17.2656C36.5625 17.535 36.6695 17.7933 36.86 17.9838C37.0504 18.1742 37.3088 18.2812 37.5781 18.2812ZM38.5938 6.09375H48.75V16.25H38.5938V6.09375Z" fill="#46B2C8"/>
<path d="M10.1562 8.125H34.5312V10.1562H10.1562V8.125Z" fill="#46B2C8"/>
<path d="M10.1562 12.1875H34.5312V14.2188H10.1562V12.1875Z" fill="#46B2C8"/>
<path d="M10.1562 16.25H34.5312V18.2812H10.1562V16.25Z" fill="#46B2C8"/>
<path d="M10.1562 20.3125H40.625V22.3438H10.1562V20.3125Z" fill="#46B2C8"/>
<path d="M27.4219 32.5H20.3125V25.3906C20.3125 25.1213 20.2055 24.8629 20.015 24.6725C19.8246 24.482 19.5662 24.375 19.2969 24.375H11.1719C10.9025 24.375 10.6442 24.482 10.4537 24.6725C10.2633 24.8629 10.1562 25.1213 10.1562 25.3906V39.6094C10.1562 39.8787 10.2633 40.1371 10.4537 40.3275C10.6442 40.518 10.9025 40.625 11.1719 40.625H27.4219C27.6912 40.625 27.9496 40.518 28.14 40.3275C28.3305 40.1371 28.4375 39.8787 28.4375 39.6094V33.5156C28.4375 33.2463 28.3305 32.9879 28.14 32.7975C27.9496 32.607 27.6912 32.5 27.4219 32.5ZM26.4062 38.5938H12.1875V26.4062H18.2812V33.5156C18.2812 33.785 18.3883 34.0433 18.5787 34.2338C18.7692 34.4242 19.0275 34.5312 19.2969 34.5312H26.4062V38.5938Z" fill="#46B2C8"/>
<path d="M22.3438 24.375H31.4844V26.4062H22.3438V24.375Z" fill="#46B2C8"/>
<path d="M22.3438 28.4375H28.4375V30.4688H22.3438V28.4375Z" fill="#46B2C8"/>
<path d="M54.8438 24.5426V1.01562C54.8438 0.746264 54.7367 0.487936 54.5463 0.29747C54.3558 0.107003 54.0975 0 53.8281 0H7.10938C6.84001 0 6.58169 0.107003 6.39122 0.29747C6.20075 0.487936 6.09375 0.746264 6.09375 1.01562V7.10938H1.01562C0.746264 7.10938 0.487936 7.21638 0.29747 7.40685C0.107003 7.59731 0 7.85564 0 8.125V40.625C0 41.7024 0.428012 42.7358 1.18988 43.4976C1.95175 44.2595 2.98506 44.6875 4.0625 44.6875H31.6652C32.6332 47.0873 34.1607 49.221 36.1203 50.911C38.08 52.601 40.415 53.7983 42.931 54.4031C45.447 55.008 48.0712 55.003 50.5848 54.3884C53.0985 53.7739 55.4289 52.5676 57.382 50.8701C59.3352 49.1727 60.8544 47.0331 61.8133 44.6296C62.7721 42.2261 63.1428 39.6283 62.8945 37.0525C62.6462 34.4768 61.786 31.9976 60.3856 29.8216C58.9852 27.6456 57.0852 25.8357 54.8438 24.5426ZM2.03125 40.625V9.14062H6.09375V40.625C6.09375 41.1637 5.87974 41.6804 5.49881 42.0613C5.11788 42.4422 4.60122 42.6562 4.0625 42.6562C3.52378 42.6562 3.00712 42.4422 2.62619 42.0613C2.24526 41.6804 2.03125 41.1637 2.03125 40.625ZM7.56031 42.6562C7.92586 42.0414 8.12079 41.3403 8.125 40.625V2.03125H52.8125V23.5402C50.0249 22.3971 46.9738 22.0542 44.002 22.5499C41.0302 23.0456 38.2556 24.3603 35.9899 26.3463C33.7242 28.3322 32.0573 30.9107 31.1766 33.7919C30.2958 36.6732 30.236 39.7429 31.004 42.6562H7.56031ZM46.7188 52.8125C43.9065 52.8125 41.1575 51.9786 38.8192 50.4162C36.481 48.8538 34.6585 46.6332 33.5823 44.035C32.5062 41.4369 32.2246 38.578 32.7732 35.8198C33.3218 33.0616 34.676 30.5281 36.6646 28.5396C38.6531 26.551 41.1866 25.1968 43.9448 24.6482C46.703 24.0996 49.5619 24.3812 52.16 25.4573C54.7582 26.5335 56.9788 28.356 58.5412 30.6942C60.1036 33.0325 60.9375 35.7815 60.9375 38.5938C60.9335 42.3636 59.4341 45.9778 56.7685 48.6435C54.1028 51.3091 50.4886 52.8085 46.7188 52.8125Z" fill="#46B2C8"/>
<path d="M50.4898 31.527L40.4767 34.5313H37.5781C36.77 34.5313 35.9951 34.8523 35.4237 35.4237C34.8523 35.9951 34.5312 36.77 34.5312 37.5781V39.6094C34.5312 40.4175 34.8523 41.1924 35.4237 41.7638C35.9951 42.3352 36.77 42.6563 37.5781 42.6563V44.6875C37.5781 45.4956 37.8991 46.2706 38.4705 46.842C39.0419 47.4134 39.8169 47.7344 40.625 47.7344C41.4331 47.7344 42.2081 47.4134 42.7795 46.842C43.3509 46.2706 43.6719 45.4956 43.6719 44.6875V43.615L50.4898 45.6605C50.6414 45.7059 50.8016 45.7153 50.9575 45.6878C51.1134 45.6603 51.2607 45.5968 51.3877 45.5023C51.5147 45.4077 51.6178 45.2848 51.6888 45.1434C51.7599 45.0019 51.7969 44.8458 51.7969 44.6875V32.5C51.7969 32.3417 51.7599 32.1856 51.6888 32.0441C51.6178 31.9027 51.5147 31.7798 51.3877 31.6852C51.2607 31.5907 51.1134 31.5272 50.9575 31.4997C50.8016 31.4722 50.6414 31.4816 50.4898 31.527ZM36.5625 39.6094V37.5781C36.5625 37.3088 36.6695 37.0504 36.86 36.86C37.0504 36.6695 37.3088 36.5625 37.5781 36.5625H39.6094V40.625H37.5781C37.3088 40.625 37.0504 40.518 36.86 40.3275C36.6695 40.1371 36.5625 39.8787 36.5625 39.6094ZM41.6406 44.6875C41.6406 44.9569 41.5336 45.2152 41.3432 45.4057C41.1527 45.5961 40.8944 45.7031 40.625 45.7031C40.3556 45.7031 40.0973 45.5961 39.9068 45.4057C39.7164 45.2152 39.6094 44.9569 39.6094 44.6875V42.6563H40.4767L41.6406 43.0056V44.6875ZM49.7656 43.3225L41.6406 40.885V36.3025L49.7656 33.865V43.3225Z" fill="#46B2C8"/>
<path d="M53.8281 37.5781H58.9062V39.6094H53.8281V37.5781Z" fill="#46B2C8"/>
<path d="M53.1004 33.8148L56.1475 30.7676L57.5838 32.2039L54.5367 35.2511L53.1004 33.8148Z" fill="#46B2C8"/>
<path d="M53.0994 43.3758L54.5357 41.9395L57.5828 44.9866L56.1465 46.4229L53.0994 43.3758Z" fill="#46B2C8"/>
</svg>
