<svg width="66" height="66" viewBox="0 0 66 66" fill="none" xmlns="http://www.w3.org/2000/svg">
<path d="M47.4315 47.4316L50.866 50.8661M52.9013 54.9367L54.9366 52.9014M45.6616 42.7832C46.3772 41.5715 46.7951 40.163 46.7951 38.6539C46.7951 34.1575 43.1502 30.5126 38.6538 30.5126C37.1447 30.5126 35.7363 30.9305 34.5245 31.6461M31.6461 34.5246C30.9305 35.7363 30.5124 37.1448 30.5124 38.6539C30.5124 43.1503 34.1575 46.7952 38.6538 46.7952C40.163 46.7952 41.5714 46.3773 42.7832 45.6617M23.3887 45.7776H4.05297C2.36678 45.7776 1 44.4107 1 42.7246V10.1591C1 8.47293 2.36678 7.10603 4.05297 7.10603H52.9012C54.5874 7.10603 55.9543 8.47293 55.9543 10.1591V42.7246C55.9543 44.0538 55.1047 45.1847 53.9191 45.6038M19.3181 7.10606L20.8895 2.39179C21.1665 1.56063 21.9443 1 22.8203 1H34.1339C35.0098 1 35.7877 1.56063 36.0647 2.39179L37.6361 7.10606M24.8516 29.4949H14.2297C9.17126 29.4949 5.07067 25.3943 5.07067 20.3358V7.10606M51.8836 7.10606V20.3358C51.8836 22.5168 51.1214 24.5197 49.8487 26.0927M50.8659 38.6539C50.8659 45.3984 45.3984 50.866 38.6538 50.866C31.9093 50.866 26.4418 45.3984 26.4418 38.6539C26.4418 31.9094 31.9093 26.4419 38.6538 26.4419C45.3984 26.4419 50.8659 31.9094 50.8659 38.6539ZM63.4995 63.4996C62.7046 64.2944 61.4159 64.2944 60.6211 63.4996L50.9682 53.8467C50.1734 53.0519 50.1734 51.7632 50.9682 50.9683C51.7631 50.1735 53.0518 50.1735 53.8466 50.9683L63.4995 60.6212C64.2943 61.416 64.2943 62.7047 63.4995 63.4996ZM32.5478 23.3889H24.4064C23.8444 23.3889 23.3888 22.9332 23.3888 22.3712V20.3359C23.3888 19.7737 23.8444 19.3182 24.4064 19.3182H32.5478C33.1098 19.3182 33.5654 19.7737 33.5654 20.3359V22.3712C33.5654 22.9332 33.1098 23.3889 32.5478 23.3889Z" stroke="#46B2C8" stroke-width="2" stroke-miterlimit="10" stroke-linecap="round" stroke-linejoin="round"/>
</svg>
