<svg width="199" height="200" viewBox="0 0 199 200" fill="none" xmlns="http://www.w3.org/2000/svg">
<g clip-path="url(#clip0_2317_18406)">
<path d="M165.431 165.607C201.707 129.331 201.707 70.5151 165.431 34.2389C129.155 -2.0374 70.3392 -2.03741 34.0629 34.2389C-2.21337 70.5151 -2.21337 129.331 34.0629 165.607C70.3392 201.883 129.155 201.883 165.431 165.607Z" fill="#C9EAF1"/>
<path fill-rule="evenodd" clip-rule="evenodd" d="M191.336 115.684C184.725 154.363 154.207 184.88 115.528 191.491L65.514 141.476C53.5459 131.599 45.918 116.652 45.918 99.923C45.918 70.1821 70.0269 46.0732 99.7678 46.0732C116.497 46.0732 131.444 53.7015 141.321 65.6693L191.336 115.684Z" fill="#C2E2E9"/>
<path fill-rule="evenodd" clip-rule="evenodd" d="M74.5618 103.121L89.8981 117.204C92.1352 119.264 95.5979 119.154 97.7018 116.985L125.062 90.7889C127.287 88.649 127.355 85.1085 125.214 82.8819C123.073 80.6588 119.535 80.5891 117.309 82.729L93.6101 105.42L82.1382 94.8856C79.8655 92.7945 76.3247 92.9412 74.2324 95.2162C72.1405 97.4889 72.288 101.027 74.5618 103.121ZM99.7678 46.0732C129.509 46.0732 153.618 70.1821 153.618 99.923C153.618 129.664 129.509 153.773 99.7678 153.773C70.0269 153.773 45.918 129.664 45.918 99.923C45.918 70.1821 70.0269 46.0732 99.7678 46.0732Z" fill="#46B2C8"/>
</g>
<defs>
<clipPath id="clip0_2317_18406">
<rect width="198.198" height="198.198" fill="white" transform="translate(0.669922 0.824219)"/>
</clipPath>
</defs>
</svg>
