<svg width="108" height="100" viewBox="0 0 108 100" fill="none" xmlns="http://www.w3.org/2000/svg">
<path d="M76.1491 99.3247H6.62164C2.9646 99.3247 -1.52588e-05 96.3607 -1.52588e-05 92.7036V36.2469C-1.52588e-05 34.8448 0.445084 33.4826 1.27116 32.3496L9.83623 20.6024C11.0827 18.8928 13.0636 17.8818 15.1793 17.8818H76.1688C79.8259 17.8818 82.7708 20.8465 82.7708 24.5035V92.7031C82.7708 96.3601 79.8061 99.3247 76.1491 99.3247Z" fill="#115766"/>
<path d="M60.4226 53.801H100.98C104.637 53.801 107.602 50.8369 107.602 47.1799V12.8337C107.602 11.4489 107.168 10.104 106.361 8.97878L101.9 2.76175C100.657 1.02811 98.6549 0 96.5212 0H60.4114C56.7543 0 53.801 2.96462 53.801 6.62166V47.1793C53.801 50.8364 56.7656 53.801 60.4226 53.801Z" fill="#C2E2E9"/>
<path fill-rule="evenodd" clip-rule="evenodd" d="M95.2409 16.6624C96.1436 17.5651 96.1436 19.0287 95.2409 19.9315L78.0344 37.138C77.1317 38.0407 75.6681 38.0407 74.7653 37.138L66.1621 28.5347C65.2594 27.632 65.2594 26.1684 66.1621 25.2656C67.0648 24.3629 68.5284 24.3629 69.4311 25.2656L76.3999 32.2344L91.9718 16.6624C92.8746 15.7597 94.3382 15.7597 95.2409 16.6624Z" fill="#46B2C8"/>
<path fill-rule="evenodd" clip-rule="evenodd" d="M17.3297 34.5475C17.8721 34.005 18.6572 33.7828 19.4035 33.9605L60.4788 43.7403C61.3338 43.9439 61.9868 44.635 62.1417 45.5002C62.2966 46.3654 61.9239 47.2401 61.1925 47.7276L51.6988 54.0567L65.4411 67.7988C65.8554 68.2131 66.0882 68.775 66.0882 69.3609C66.0882 69.9468 65.8554 70.5087 65.4411 70.923L53.7052 82.659C53.2909 83.0733 52.729 83.306 52.1431 83.306C51.5571 83.306 50.9952 83.0733 50.5809 82.6589L36.8389 68.9167L30.5098 78.4104C30.0222 79.1417 29.1475 79.5144 28.2823 79.3596C27.4172 79.2047 26.7261 78.5517 26.5225 77.6966L16.7427 36.6213C16.565 35.875 16.7872 35.09 17.3297 34.5475ZM21.8724 39.0902L29.6462 71.7403L34.6574 64.2236C35.0245 63.6729 35.6192 63.3158 36.2779 63.2506C36.9365 63.1854 37.5897 63.4189 38.0577 63.8869L52.1431 77.9725L60.7547 69.3609L46.6691 55.2755C46.2011 54.8075 45.9675 54.1543 46.0327 53.4957C46.098 52.837 46.455 52.2423 47.0058 51.8752L54.5225 46.8641L21.8724 39.0902Z" fill="#46B2C8"/>
</svg>
