<svg width="72" height="72" viewBox="0 0 72 72" fill="none" xmlns="http://www.w3.org/2000/svg">
<g clip-path="url(#clip0_3557_18735)">
<path d="M36 72C55.8823 72 72 55.8823 72 36C72 16.1177 55.8823 0 36 0C16.1177 0 0 16.1177 0 36C0 55.8823 16.1177 72 36 72Z" fill="#D5A150"/>
<path d="M58.3926 7.8125C63.2823 13.9592 66.2052 21.7404 66.2052 30.2051C66.2052 50.0873 50.0875 66.2051 30.2052 66.2051C21.7406 66.2051 13.9592 63.2822 7.8125 58.3925C14.4078 66.6833 24.5823 71.9998 35.9999 71.9998C55.8822 71.9998 71.9999 55.8821 71.9999 35.9998C71.9999 24.5823 66.6835 14.4077 58.3926 7.8125Z" fill="#AD712C"/>
<path d="M19.6248 20.4301C18.8833 20.4301 18.1417 20.1472 17.576 19.5814C14.4695 16.4749 14.4695 11.42 17.576 8.31316C19.081 6.8082 21.0816 5.97949 23.2101 5.97949C25.3385 5.97949 27.3393 6.80834 28.8443 8.31316C29.9758 9.44477 29.9758 11.2792 28.8443 12.4108C27.7125 13.5422 25.8781 13.5423 24.7466 12.4108C24.3361 12.0004 23.7905 11.7742 23.2101 11.7742C22.6298 11.7742 22.084 12.0004 21.6737 12.4108C20.8263 13.2582 20.8263 14.6368 21.6737 15.4839C22.8053 16.6155 22.8053 18.45 21.6737 19.5814C21.1078 20.1473 20.3663 20.4301 19.6248 20.4301Z" fill="#C98A2E"/>
<path d="M23.209 19.0182C26.0093 19.0182 28.2794 16.7481 28.2794 13.9478C28.2794 11.1475 26.0093 8.87744 23.209 8.87744C20.4088 8.87744 18.1387 11.1475 18.1387 13.9478C18.1387 16.7481 20.4088 19.0182 23.209 19.0182Z" fill="#674230"/>
<path d="M18.1622 13.4623C18.1604 13.4819 18.1587 13.5013 18.157 13.5208C18.0188 15.1983 19.3969 16.6124 21.0791 16.5514C21.1905 16.5473 21.3028 16.5397 21.4156 16.5284C23.8024 16.2876 25.7162 14.3578 25.9398 11.9693C25.9416 11.9497 25.9433 11.9303 25.9448 11.9109C26.0831 10.2336 24.705 8.81929 23.0228 8.88032C22.9114 8.8844 22.7991 8.89199 22.6863 8.90338C20.2996 9.14399 18.3858 11.0738 18.1622 13.4623Z" fill="#7A5436"/>
<path d="M8.03493 43.6092C7.29341 43.6092 6.55189 43.3262 5.98616 42.7605C2.87961 39.654 2.87961 34.5991 5.98616 31.4922C7.49113 29.9874 9.49194 29.1587 11.6203 29.1587C13.7487 29.1587 15.7495 29.9875 17.2544 31.4924C18.3859 32.624 18.3859 34.4584 17.2544 35.59C16.1227 36.7214 14.2882 36.7215 13.1568 35.59C12.7463 35.1795 12.2007 34.9534 11.6203 34.9534C11.0399 34.9534 10.4942 35.1795 10.0838 35.59C9.23643 36.4374 9.23643 37.816 10.0838 38.6631C11.2154 39.7947 11.2154 41.6292 10.0838 42.7606C9.51796 43.3264 8.7763 43.6092 8.03493 43.6092Z" fill="#C98A2E"/>
<path d="M11.6202 42.1974C14.4205 42.1974 16.6906 39.9273 16.6906 37.127C16.6906 34.3267 14.4205 32.0566 11.6202 32.0566C8.81989 32.0566 6.5498 34.3267 6.5498 37.127C6.5498 39.9273 8.81989 42.1974 11.6202 42.1974Z" fill="#674230"/>
<path d="M6.57239 36.6415C6.57056 36.6611 6.56887 36.6805 6.56719 36.7C6.42895 38.3777 7.80708 39.7916 9.48923 39.7306C9.60061 39.7265 9.71297 39.7189 9.82575 39.7076C12.2126 39.4668 14.1263 37.537 14.3499 35.1485C14.3518 35.1289 14.3535 35.1095 14.355 35.0901C14.4932 33.4128 13.1151 31.9985 11.433 32.0595C11.3216 32.0636 11.2092 32.0712 11.0964 32.0826C8.70989 32.3232 6.79612 34.253 6.57239 36.6415Z" fill="#7A5436"/>
<path d="M18.1765 58.0961C17.435 58.0961 16.6935 57.8132 16.1278 57.2475C13.0212 54.1409 13.0212 49.086 16.1278 45.9792C17.6327 44.4742 19.6334 43.6455 21.7619 43.6455C23.8904 43.6455 25.8911 44.4744 27.396 45.9792C28.5275 47.1108 28.5275 48.9452 27.396 50.0769C26.2643 51.2082 24.4298 51.2083 23.2984 50.0769C22.888 49.6664 22.3423 49.4402 21.7619 49.4402C21.1815 49.4402 20.6358 49.6664 20.2254 50.0769C19.378 50.9243 19.378 52.3028 20.2254 53.1499C21.357 54.2815 21.357 56.116 20.2254 57.2475C19.6596 57.8133 18.9179 58.0961 18.1765 58.0961Z" fill="#C98A2E"/>
<path d="M21.7608 56.6842C24.5611 56.6842 26.8312 54.4141 26.8312 51.6138C26.8312 48.8135 24.5611 46.5435 21.7608 46.5435C18.9605 46.5435 16.6904 48.8135 16.6904 51.6138C16.6904 54.4141 18.9605 56.6842 21.7608 56.6842Z" fill="#674230"/>
<path d="M16.714 51.1283C16.7122 51.1479 16.7105 51.1673 16.7088 51.1868C16.5706 52.8643 17.9487 54.2785 19.6308 54.2174C19.7422 54.2133 19.8546 54.2057 19.9674 54.1944C22.3542 53.9536 24.2679 52.0238 24.4915 49.6353C24.4934 49.6158 24.4951 49.5963 24.4966 49.5769C24.6348 47.8996 23.2567 46.4854 21.5746 46.5463C21.4632 46.5504 21.3508 46.558 21.238 46.5694C18.8513 46.81 16.9377 48.7398 16.714 51.1283Z" fill="#7A5436"/>
<path d="M34.1121 68.2368C33.3706 68.2368 32.629 67.9538 32.0633 67.3881C28.9568 64.2815 28.9568 59.2266 32.0633 56.1198C33.5683 54.6148 35.5689 53.7861 37.6974 53.7861C39.8258 53.7861 41.8266 54.615 43.3316 56.1198C44.4631 57.2514 44.4631 59.0859 43.3316 60.2175C42.1998 61.3488 40.3654 61.3489 39.2339 60.2175C38.8234 59.807 38.2778 59.5809 37.6974 59.5809C37.1171 59.5809 36.5713 59.807 36.161 60.2175C35.3136 61.0649 35.3136 62.4434 36.161 63.2906C37.2926 64.4222 37.2926 66.2566 36.161 67.3881C35.5951 67.954 34.8534 68.2368 34.1121 68.2368Z" fill="#C98A2E"/>
<path d="M37.6963 66.8253C40.4966 66.8253 42.7667 64.5552 42.7667 61.7549C42.7667 58.9547 40.4966 56.6846 37.6963 56.6846C34.8961 56.6846 32.626 58.9547 32.626 61.7549C32.626 64.5552 34.8961 66.8253 37.6963 66.8253Z" fill="#674230"/>
<path d="M32.6495 61.2694C32.6477 61.289 32.646 61.3084 32.6443 61.3279C32.5061 63.0054 33.8842 64.4196 35.5664 64.3585C35.6778 64.3545 35.7901 64.3469 35.9029 64.3355C38.2897 64.0947 40.2035 62.1649 40.4271 59.7764C40.4289 59.7569 40.4306 59.7375 40.4322 59.7181C40.5704 58.0407 39.1923 56.6266 37.5101 56.6874C37.3987 56.6915 37.2864 56.6991 37.1736 56.7105C34.7869 56.9513 32.8731 58.881 32.6495 61.2694Z" fill="#7A5436"/>
<path d="M37.0086 27.6933C36.267 27.6933 35.5255 27.4104 34.9598 26.8446C31.8532 23.7381 31.8532 18.6832 34.9598 15.5763C36.4648 14.0714 38.4654 13.2427 40.5939 13.2427C42.7224 13.2427 44.7231 14.0715 46.2281 15.5763C47.3595 16.708 47.3595 18.5424 46.2281 19.674C45.0963 20.8053 43.2619 20.8055 42.1304 19.674C41.7199 19.2635 41.1743 19.0374 40.5939 19.0374C40.0136 19.0374 39.4678 19.2635 39.0575 19.674C38.2101 20.5214 38.2101 21.9 39.0575 22.7471C40.1891 23.8787 40.1891 25.7132 39.0575 26.8446C38.4916 27.4105 37.7501 27.6933 37.0086 27.6933Z" fill="#C98A2E"/>
<path d="M40.5938 26.2809C43.3941 26.2809 45.6642 24.0108 45.6642 21.2105C45.6642 18.4102 43.3941 16.1401 40.5938 16.1401C37.7935 16.1401 35.5234 18.4102 35.5234 21.2105C35.5234 24.0108 37.7935 26.2809 40.5938 26.2809Z" fill="#674230"/>
<path d="M35.547 20.7255C35.5452 20.745 35.5435 20.7644 35.5418 20.784C35.4036 22.4615 36.7817 23.8756 38.4638 23.8146C38.5752 23.8105 38.6876 23.8029 38.8004 23.7915C41.1872 23.5508 43.101 21.621 43.3245 19.2325C43.3264 19.2129 43.3281 19.1935 43.3296 19.1741C43.4678 17.4967 42.0897 16.0825 40.4076 16.1435C40.2962 16.1476 40.1838 16.1552 40.071 16.1666C37.6844 16.4072 35.7706 18.337 35.547 20.7255Z" fill="#7A5436"/>
<path d="M54.3933 53.7499C53.6518 53.7499 52.9103 53.467 52.3446 52.9013C49.238 49.7947 49.238 44.7398 52.3446 41.633C53.8495 40.128 55.8502 39.2993 57.9787 39.2993C60.1072 39.2993 62.1079 40.1282 63.6128 41.633C64.7443 42.7646 64.7443 44.5991 63.6128 45.7307C62.4811 46.862 60.6466 46.8621 59.5152 45.7307C59.1047 45.3202 58.5591 45.0941 57.9787 45.0941C57.3983 45.0941 56.8526 45.3202 56.4422 45.7307C55.5948 46.5781 55.5948 47.9566 56.4422 48.8037C57.5738 49.9353 57.5738 51.7698 56.4422 52.9013C55.8764 53.4671 55.1347 53.7499 54.3933 53.7499Z" fill="#C98A2E"/>
<path d="M57.9786 52.338C60.7789 52.338 63.049 50.0679 63.049 47.2676C63.049 44.4674 60.7789 42.1973 57.9786 42.1973C55.1783 42.1973 52.9082 44.4674 52.9082 47.2676C52.9082 50.0679 55.1783 52.338 57.9786 52.338Z" fill="#674230"/>
<path d="M52.9306 46.7821C52.9288 46.8017 52.9271 46.8211 52.9256 46.8406C52.7874 48.5181 54.1655 49.9323 55.8476 49.8712C55.959 49.8672 56.0714 49.8596 56.1841 49.8482C58.571 49.6074 60.4847 47.6776 60.7083 45.2891C60.7102 45.2696 60.7119 45.2502 60.7134 45.2307C60.8516 43.5534 59.4735 42.1392 57.7914 42.2001C57.68 42.2042 57.5676 42.2118 57.4548 42.2232C55.0681 42.464 53.1544 44.3937 52.9306 46.7821Z" fill="#7A5436"/>
<path d="M52.9451 26.225C52.2036 26.225 51.4621 25.9421 50.8963 25.3764C47.7898 22.2698 47.7898 17.2149 50.8963 14.1081C52.4013 12.6031 54.402 11.7744 56.5305 11.7744C58.659 11.7744 60.6596 12.6033 62.1646 14.1081C63.2961 15.2397 63.2961 17.0742 62.1646 18.2058C61.0328 19.3371 59.1984 19.3372 58.0669 18.2058C57.6564 17.7954 57.1108 17.5691 56.5305 17.5691C55.9501 17.5691 55.4043 17.7953 54.994 18.2058C54.1466 19.0532 54.1466 20.4317 54.994 21.2788C56.1256 22.4104 56.1256 24.2449 54.994 25.3764C54.4281 25.9422 53.6866 26.225 52.9451 26.225Z" fill="#C98A2E"/>
<path d="M56.5294 24.8131C59.3297 24.8131 61.5997 22.543 61.5997 19.7427C61.5997 16.9424 59.3297 14.6724 56.5294 14.6724C53.7291 14.6724 51.459 16.9424 51.459 19.7427C51.459 22.543 53.7291 24.8131 56.5294 24.8131Z" fill="#674230"/>
<path d="M51.4824 19.2572C51.4806 19.2768 51.4789 19.2962 51.4773 19.3157C51.3391 20.9934 52.7172 22.4074 54.3994 22.3463C54.5108 22.3423 54.6231 22.3347 54.7359 22.3233C57.1227 22.0825 59.0365 20.1527 59.2601 17.7642C59.2619 17.7447 59.2636 17.7253 59.2652 17.7059C59.4034 16.0285 58.0253 14.6142 56.3431 14.6752C56.2317 14.6793 56.1194 14.6869 56.0066 14.6983C53.6199 14.9389 51.7061 16.8687 51.4824 19.2572Z" fill="#7A5436"/>
<path d="M31.2146 43.6093C30.4731 43.6093 29.7316 43.3264 29.1658 42.7606C26.0593 39.6541 26.0593 34.5992 29.1658 31.4924C30.6708 29.9874 32.6715 29.1587 34.8 29.1587C36.9285 29.1587 38.9292 29.9875 40.4341 31.4924C41.5656 32.624 41.5656 34.4584 40.4341 35.59C39.3024 36.7214 37.4679 36.7215 36.3365 35.59C35.9261 35.1796 35.3803 34.9534 34.8 34.9534C34.2196 34.9534 33.6739 35.1796 33.2635 35.59C32.4161 36.4374 32.4161 37.816 33.2635 38.6631C34.3951 39.7947 34.3951 41.6292 33.2635 42.7606C32.6976 43.3265 31.956 43.6093 31.2146 43.6093Z" fill="#C98A2E"/>
<path d="M34.7989 42.1974C37.5992 42.1974 39.8693 39.9273 39.8693 37.127C39.8693 34.3267 37.5992 32.0566 34.7989 32.0566C31.9986 32.0566 29.7285 34.3267 29.7285 37.127C29.7285 39.9273 31.9986 42.1974 34.7989 42.1974Z" fill="#674230"/>
<path d="M29.7521 36.6415C29.7502 36.6611 29.7486 36.6805 29.7469 36.7C29.6086 38.3777 30.9868 39.7916 32.6689 39.7306C32.7803 39.7265 32.8927 39.7189 33.0054 39.7076C35.3923 39.4668 37.306 37.537 37.5296 35.1485C37.5315 35.1289 37.5331 35.1095 37.5347 35.0901C37.6729 33.4128 36.2948 31.9985 34.6126 32.0595C34.5013 32.0636 34.3889 32.0712 34.2761 32.0826C31.8896 32.3232 29.9758 34.253 29.7521 36.6415Z" fill="#7A5436"/>
<path d="M18.2544 42.5186C18.8545 42.5186 19.3409 42.0322 19.3409 41.4322C19.3409 40.8321 18.8545 40.3457 18.2544 40.3457C17.6544 40.3457 17.168 40.8321 17.168 41.4322C17.168 42.0322 17.6544 42.5186 18.2544 42.5186Z" fill="#AD712C"/>
<path d="M25.4976 42.5186C26.0976 42.5186 26.5841 42.0322 26.5841 41.4322C26.5841 40.8321 26.0976 40.3457 25.4976 40.3457C24.8976 40.3457 24.4111 40.8321 24.4111 41.4322C24.4111 42.0322 24.8976 42.5186 25.4976 42.5186Z" fill="#AD712C"/>
<path d="M21.8755 35.9996C22.4756 35.9996 22.962 35.5132 22.962 34.9131C22.962 34.3131 22.4756 33.8267 21.8755 33.8267C21.2755 33.8267 20.7891 34.3131 20.7891 34.9131C20.7891 35.5132 21.2755 35.9996 21.8755 35.9996Z" fill="#AD712C"/>
<path d="M8.83745 49.0382C9.43749 49.0382 9.92391 48.5517 9.92391 47.9517C9.92391 47.3517 9.43749 46.8652 8.83745 46.8652C8.2374 46.8652 7.75098 47.3517 7.75098 47.9517C7.75098 48.5517 8.2374 49.0382 8.83745 49.0382Z" fill="#AD712C"/>
<path d="M23.3247 64.9737C23.9248 64.9737 24.4112 64.4873 24.4112 63.8872C24.4112 63.2872 23.9248 62.8008 23.3247 62.8008C22.7247 62.8008 22.2383 63.2872 22.2383 63.8872C22.2383 64.4873 22.7247 64.9737 23.3247 64.9737Z" fill="#AD712C"/>
<path d="M27.6705 59.1788C28.2705 59.1788 28.7569 58.6924 28.7569 58.0923C28.7569 57.4923 28.2705 57.0059 27.6705 57.0059C27.0704 57.0059 26.584 57.4923 26.584 58.0923C26.584 58.6924 27.0704 59.1788 27.6705 59.1788Z" fill="#AD712C"/>
<path d="M34.9136 50.4869C35.5137 50.4869 36.0001 50.0005 36.0001 49.4004C36.0001 48.8004 35.5137 48.314 34.9136 48.314C34.3136 48.314 33.8271 48.8004 33.8271 49.4004C33.8271 50.0005 34.3136 50.4869 34.9136 50.4869Z" fill="#AD712C"/>
<path d="M46.5035 46.1407C47.1035 46.1407 47.5899 45.6543 47.5899 45.0542C47.5899 44.4542 47.1035 43.9678 46.5035 43.9678C45.9034 43.9678 45.417 44.4542 45.417 45.0542C45.417 45.6543 45.9034 46.1407 46.5035 46.1407Z" fill="#AD712C"/>
<path d="M43.606 49.0382C44.206 49.0382 44.6925 48.5517 44.6925 47.9517C44.6925 47.3517 44.206 46.8652 43.606 46.8652C43.006 46.8652 42.5195 47.3517 42.5195 47.9517C42.5195 48.5517 43.006 49.0382 43.606 49.0382Z" fill="#AD712C"/>
<path d="M47.9517 53.3839C48.5517 53.3839 49.0382 52.8974 49.0382 52.2974C49.0382 51.6974 48.5517 51.2109 47.9517 51.2109C47.3517 51.2109 46.8652 51.6974 46.8652 52.2974C46.8652 52.8974 47.3517 53.3839 47.9517 53.3839Z" fill="#AD712C"/>
<path d="M47.9517 62.0763C48.5517 62.0763 49.0382 61.5898 49.0382 60.9898C49.0382 60.3897 48.5517 59.9033 47.9517 59.9033C47.3517 59.9033 46.8652 60.3897 46.8652 60.9898C46.8652 61.5898 47.3517 62.0763 47.9517 62.0763Z" fill="#AD712C"/>
<path d="M63.8882 31.6534C64.4883 31.6534 64.9747 31.167 64.9747 30.5669C64.9747 29.9669 64.4883 29.4805 63.8882 29.4805C63.2882 29.4805 62.8018 29.9669 62.8018 30.5669C62.8018 31.167 63.2882 31.6534 63.8882 31.6534Z" fill="#AD712C"/>
<path d="M59.5415 60.6275C60.1416 60.6275 60.628 60.1411 60.628 59.5411C60.628 58.941 60.1416 58.4546 59.5415 58.4546C58.9415 58.4546 58.4551 58.941 58.4551 59.5411C58.4551 60.1411 58.9415 60.6275 59.5415 60.6275Z" fill="#AD712C"/>
<path d="M37.8111 5.57723C38.4111 5.57723 38.8975 5.09081 38.8975 4.49077C38.8975 3.89073 38.4111 3.4043 37.8111 3.4043C37.211 3.4043 36.7246 3.89073 36.7246 4.49077C36.7246 5.09081 37.211 5.57723 37.8111 5.57723Z" fill="#AD712C"/>
<path d="M11.7349 18.6153C12.3349 18.6153 12.8214 18.1289 12.8214 17.5289C12.8214 16.9288 12.3349 16.4424 11.7349 16.4424C11.1349 16.4424 10.6484 16.9288 10.6484 17.5289C10.6484 18.1289 11.1349 18.6153 11.7349 18.6153Z" fill="#AD712C"/>
<path d="M5.93998 27.3077C6.54002 27.3077 7.02645 26.8213 7.02645 26.2212C7.02645 25.6212 6.54002 25.1348 5.93998 25.1348C5.33994 25.1348 4.85352 25.6212 4.85352 26.2212C4.85352 26.8213 5.33994 27.3077 5.93998 27.3077Z" fill="#AD712C"/>
<path d="M22.6001 29.4806C23.2002 29.4806 23.6866 28.9941 23.6866 28.3941C23.6866 27.794 23.2002 27.3076 22.6001 27.3076C22.0001 27.3076 21.5137 27.794 21.5137 28.3941C21.5137 28.9941 22.0001 29.4806 22.6001 29.4806Z" fill="#AD712C"/>
<path d="M26.9458 27.3077C27.5459 27.3077 28.0323 26.8213 28.0323 26.2212C28.0323 25.6212 27.5459 25.1348 26.9458 25.1348C26.3458 25.1348 25.8594 25.6212 25.8594 26.2212C25.8594 26.8213 26.3458 27.3077 26.9458 27.3077Z" fill="#AD712C"/>
<path d="M22.6001 25.1344C23.2002 25.1344 23.6866 24.6479 23.6866 24.0479C23.6866 23.4479 23.2002 22.9614 22.6001 22.9614C22.0001 22.9614 21.5137 23.4479 21.5137 24.0479C21.5137 24.6479 22.0001 25.1344 22.6001 25.1344Z" fill="#AD712C"/>
<path d="M42.8814 35.9996C43.4814 35.9996 43.9679 35.5132 43.9679 34.9131C43.9679 34.3131 43.4814 33.8267 42.8814 33.8267C42.2813 33.8267 41.7949 34.3131 41.7949 34.9131C41.7949 35.5132 42.2813 35.9996 42.8814 35.9996Z" fill="#AD712C"/>
<path d="M33.4654 14.2691C34.0654 14.2691 34.5518 13.7827 34.5518 13.1827C34.5518 12.5826 34.0654 12.0962 33.4654 12.0962C32.8653 12.0962 32.3789 12.5826 32.3789 13.1827C32.3789 13.7827 32.8653 14.2691 33.4654 14.2691Z" fill="#AD712C"/>
<path d="M47.2281 27.3077C47.8281 27.3077 48.3145 26.8213 48.3145 26.2212C48.3145 25.6212 47.8281 25.1348 47.2281 25.1348C46.628 25.1348 46.1416 25.6212 46.1416 26.2212C46.1416 26.8213 46.628 27.3077 47.2281 27.3077Z" fill="#AD712C"/>
<path d="M49.4009 33.8267C50.001 33.8267 50.4874 33.3403 50.4874 32.7403C50.4874 32.1402 50.001 31.6538 49.4009 31.6538C48.8009 31.6538 48.3145 32.1402 48.3145 32.7403C48.3145 33.3403 48.8009 33.8267 49.4009 33.8267Z" fill="#AD712C"/>
<path d="M53.7466 33.8267C54.3467 33.8267 54.8331 33.3403 54.8331 32.7403C54.8331 32.1402 54.3467 31.6538 53.7466 31.6538C53.1466 31.6538 52.6602 32.1402 52.6602 32.7403C52.6602 33.3403 53.1466 33.8267 53.7466 33.8267Z" fill="#AD712C"/>
<path d="M53.7466 38.1729C54.3467 38.1729 54.8331 37.6865 54.8331 37.0865C54.8331 36.4864 54.3467 36 53.7466 36C53.1466 36 52.6602 36.4864 52.6602 37.0865C52.6602 37.6865 53.1466 38.1729 53.7466 38.1729Z" fill="#AD712C"/>
<path d="M45.7788 12.0963C46.3789 12.0963 46.8653 11.6098 46.8653 11.0098C46.8653 10.4098 46.3789 9.92334 45.7788 9.92334C45.1788 9.92334 44.6924 10.4098 44.6924 11.0098C44.6924 11.6098 45.1788 12.0963 45.7788 12.0963Z" fill="#AD712C"/>
<path d="M50.1255 9.92343C50.7256 9.92343 51.212 9.437 51.212 8.83696C51.212 8.23692 50.7256 7.75049 50.1255 7.75049C49.5255 7.75049 49.0391 8.23692 49.0391 8.83696C49.0391 9.437 49.5255 9.92343 50.1255 9.92343Z" fill="#AD712C"/>
</g>
<defs>
<clipPath id="clip0_3557_18735">
<rect width="72" height="72" fill="white"/>
</clipPath>
</defs>
</svg>
