<svg width="30" height="30" viewBox="0 0 30 30" fill="none" xmlns="http://www.w3.org/2000/svg">
<path fill-rule="evenodd" clip-rule="evenodd" d="M21.8498 0C26.4963 0 30 4.18 30 9.72308V20.2892C30 23.1262 29.0902 25.6892 27.4367 27.5077C25.9535 29.1369 24.0293 30 21.8721 30H8.12372C5.9707 30 4.04791 29.1385 2.56326 27.5077C0.909768 25.6892 0 23.1262 0 20.2892V9.72308C0 4.18 3.50372 0 8.15023 0H21.8498ZM21.8498 2.30769H8.15023C4.64093 2.30769 2.09302 5.42615 2.09302 9.72308V20.2892C2.09302 22.5092 2.78512 24.4923 4.04093 25.8723C5.12372 27.0646 6.53721 27.6923 8.12791 27.6923H21.8498C21.8526 27.6892 21.8637 27.6923 21.8721 27.6923C23.4642 27.6923 24.8763 27.0646 25.9591 25.8723C27.2163 24.4923 27.907 22.5092 27.907 20.2892V9.72308C27.907 5.42615 25.3591 2.30769 21.8498 2.30769ZM24.0488 9.42892C24.413 9.92277 24.3447 10.6489 23.8967 11.052L17.6958 16.6089C16.9116 17.2951 15.974 17.6382 15.0377 17.6382C14.1042 17.6382 13.1735 17.2982 12.3949 16.6182L6.13674 11.0551C5.68605 10.6551 5.61628 9.92738 5.97767 9.432C6.34186 8.93815 7.00047 8.85969 7.44977 9.25815L13.7023 14.8151C14.4879 15.5012 15.5944 15.5012 16.3856 14.8089L22.5753 9.26123C23.0246 8.85662 23.6833 8.93354 24.0488 9.42892Z" fill="white"/>
</svg>
