<svg width="80" height="80" viewBox="0 0 80 80" fill="none" xmlns="http://www.w3.org/2000/svg">
<g clip-path="url(#clip0_1236_6019)">
<path fill-rule="evenodd" clip-rule="evenodd" d="M40.0423 0.15918C62.0211 0.15918 80.0032 18.1413 80.0032 40.1202C80.0032 62.099 62.0211 80.0811 40.0423 80.0811C18.0634 80.0811 0.0812988 62.099 0.0812988 40.1202C0.0812988 18.1413 18.0634 0.15918 40.0423 0.15918Z" fill="#FFB300"/>
<path fill-rule="evenodd" clip-rule="evenodd" d="M52.7706 19.5869V22.465H27.3137V19.5869C27.3137 18.8585 27.9056 18.2666 28.634 18.2666H51.4487C52.1771 18.2666 52.7706 18.8585 52.7706 19.5869Z" fill="#FFFFFE"/>
<path fill-rule="evenodd" clip-rule="evenodd" d="M40.7593 40.2145C40.7593 39.8194 40.4373 39.499 40.0438 39.499C39.6487 39.499 39.3284 39.821 39.3284 40.2145C39.3284 40.6096 39.6503 40.9299 40.0438 40.9299C40.4373 40.9315 40.7593 40.6096 40.7593 40.2145Z" fill="#FFFFFE"/>
<path fill-rule="evenodd" clip-rule="evenodd" d="M42.6308 35.0339V36.5266H37.4519V35.0339C37.4519 34.6843 37.5202 34.3461 37.6552 34.0258C37.7852 33.7169 37.9722 33.4404 38.2096 33.203C38.447 32.9656 38.7251 32.7786 39.0324 32.6486C39.3511 32.5136 39.6909 32.4453 40.0405 32.4453C40.3901 32.4453 40.7283 32.5136 41.0487 32.6486C41.3576 32.7786 41.634 32.9656 41.8714 33.203C42.1088 33.4404 42.2958 33.7185 42.4259 34.0258C42.5625 34.3445 42.6308 34.6843 42.6308 35.0339Z" fill="#FFFFFE"/>
<path fill-rule="evenodd" clip-rule="evenodd" d="M44.7446 37.6067V44.3254C44.7446 44.392 44.691 44.4457 44.6243 44.4457H35.4585C35.3918 44.4457 35.3381 44.392 35.3381 44.3254V37.6067C35.3381 37.54 35.3918 37.4863 35.4585 37.4863H36.9723H43.1105H44.6243C44.691 37.4863 44.7446 37.5416 44.7446 37.6067ZM41.7186 40.2148C41.7186 39.2896 40.9658 38.5384 40.0422 38.5384C39.117 38.5384 38.3658 39.2912 38.3658 40.2148C38.3658 40.9725 38.8715 41.6148 39.5625 41.8213V42.914C39.5625 43.179 39.7772 43.3936 40.0422 43.3936C40.3072 43.3936 40.5219 43.179 40.5219 42.914V41.8213C41.2129 41.6148 41.7186 40.9725 41.7186 40.2148Z" fill="#FFFFFE"/>
<path fill-rule="evenodd" clip-rule="evenodd" d="M49.7007 32.0731L49.7088 41.3544C49.6991 41.6731 49.6763 41.9495 49.6422 42.2015C49.46 43.5528 48.847 44.8666 47.917 45.9023C47.2584 46.6357 46.4145 47.2584 45.3348 47.808C44.8405 48.0601 44.3251 48.2893 43.8275 48.5137L43.8226 48.5154C43.4584 48.678 43.0812 48.8471 42.7105 49.0259C41.7592 49.4828 40.9852 49.9967 40.3446 50.5999C40.2454 50.6926 40.1478 50.7885 40.0438 50.8942C39.9397 50.7885 39.8405 50.6926 39.7413 50.5999C39.1007 49.9983 38.3267 49.4828 37.3755 49.0276C37.0031 48.8487 36.6259 48.6796 36.2617 48.517L36.2552 48.5137C35.7576 48.291 35.2438 48.0601 34.7495 47.8097C33.6698 47.2601 32.8243 46.6373 32.1674 45.904C31.2373 44.8682 30.6243 43.5544 30.4422 42.2032C30.408 41.9511 30.3869 41.6731 30.3755 41.3544L30.3836 32.0731C32.2422 31.7723 34.0389 31.2422 35.7267 30.4942C37.2926 29.8015 38.743 28.9332 40.0422 27.9121C41.3413 28.9332 42.7901 29.8015 44.3576 30.4942C46.047 31.2406 47.8422 31.7723 49.7007 32.0731ZM45.7056 44.3267V37.608C45.7056 37.0129 45.221 36.5267 44.6243 36.5267H43.5917V35.0341C43.5917 34.556 43.4974 34.091 43.3121 33.6519C43.1332 33.2292 42.8779 32.8503 42.5511 32.5235C42.2259 32.1983 41.8454 31.9414 41.4243 31.7625C40.9852 31.5771 40.5218 31.4828 40.0422 31.4828C39.5625 31.4828 39.0991 31.5771 38.66 31.7625C38.2373 31.9414 37.8584 32.1967 37.5332 32.5235C37.208 32.8487 36.9511 33.2292 36.7722 33.6519C36.5869 34.091 36.4926 34.5544 36.4926 35.0341V36.5267H35.46C34.8649 36.5267 34.3787 37.0113 34.3787 37.608V44.3267C34.3787 44.9219 34.8633 45.408 35.46 45.408H44.6259C45.221 45.4064 45.7056 44.9219 45.7056 44.3267Z" fill="#FFFFFE"/>
<path fill-rule="evenodd" clip-rule="evenodd" d="M52.7706 23.4258V55.4599H27.3137V23.4258H52.7706ZM50.6682 41.3607L50.6601 31.6599C50.6601 31.4209 50.4845 31.2193 50.2471 31.1851C48.3284 30.9103 46.478 30.3835 44.7462 29.616C43.1365 28.9038 41.6568 27.9981 40.3479 26.9266C40.1706 26.7819 39.917 26.7819 39.7397 26.9266C38.4308 27.9998 36.9495 28.9055 35.3397 29.6176C33.6064 30.3835 31.756 30.912 29.8373 31.1868C29.6015 31.2209 29.4259 31.4225 29.4243 31.6616L29.4162 41.3624V41.3786C29.4275 41.7331 29.4519 42.0453 29.491 42.3315C29.6991 43.8713 30.395 45.3672 31.4536 46.5461C32.1918 47.3689 33.1284 48.0632 34.3153 48.6664C34.8308 48.9282 35.356 49.164 35.8649 49.3916L35.8698 49.3949C36.2292 49.5559 36.5983 49.7217 36.9593 49.8941C37.8194 50.3071 38.5153 50.7672 39.0828 51.3022C39.2666 51.4762 39.4552 51.6648 39.691 51.9185C39.782 52.016 39.9088 52.0713 40.0422 52.0713C40.1755 52.0713 40.3023 52.016 40.3934 51.9185C40.6292 51.6664 40.8162 51.4762 41.0015 51.3022C41.5706 50.7689 42.2649 50.3071 43.1267 49.8941C43.4861 49.7217 43.8568 49.5559 44.2162 49.3949L44.221 49.3916C44.7284 49.164 45.2536 48.9282 45.7706 48.6664C46.9576 48.0616 47.8942 47.3689 48.6324 46.5461C49.6893 45.3689 50.3869 43.8713 50.595 42.3315C50.634 42.0437 50.6584 41.7331 50.6698 41.3786C50.6682 41.3705 50.6682 41.3656 50.6682 41.3607Z" fill="#FFFFFE"/>
<path fill-rule="evenodd" clip-rule="evenodd" d="M52.7707 56.4209V60.6534C52.7707 61.3819 52.1788 61.9737 51.4504 61.9737H28.6358C27.9073 61.9737 27.3154 61.3819 27.3154 60.6534V56.4209H52.7707ZM43.3528 59.1965C43.3528 58.9315 43.1382 58.7168 42.8732 58.7168H37.2146C36.9496 58.7168 36.7349 58.9315 36.7349 59.1965C36.7349 59.4615 36.9496 59.6762 37.2146 59.6762H42.8732C43.1366 59.6778 43.3528 59.4615 43.3528 59.1965Z" fill="#FFFFFE"/>
</g>
<defs>
<clipPath id="clip0_1236_6019">
<rect width="80" height="80" fill="white"/>
</clipPath>
</defs>
</svg>
