<svg width="81" height="80" viewBox="0 0 81 80" fill="none" xmlns="http://www.w3.org/2000/svg">
<g clip-path="url(#clip0_1236_6038)">
<path fill-rule="evenodd" clip-rule="evenodd" d="M40.3482 0.15918C62.327 0.15918 80.3092 18.1413 80.3092 40.1202C80.3092 62.099 62.327 80.0811 40.3482 80.0811C18.3693 80.0811 0.387207 62.099 0.387207 40.1202C0.387207 18.1413 18.3693 0.15918 40.3482 0.15918Z" fill="#46B2C8"/>
<path fill-rule="evenodd" clip-rule="evenodd" d="M40.3482 32.0684C44.4652 32.0684 47.8165 35.418 47.8165 39.5366C47.8165 43.6537 44.4669 47.0049 40.3482 47.0049C36.2295 47.0049 32.8799 43.6553 32.8799 39.5366C32.8815 35.418 36.2311 32.0684 40.3482 32.0684ZM44.4978 37.2212C44.6864 37.0326 44.6864 36.7253 44.4978 36.5367C44.3091 36.348 44.0018 36.348 43.8132 36.5367L38.8409 41.509L36.8831 39.5513C36.6945 39.3627 36.3872 39.3627 36.1986 39.5513C36.01 39.7399 36.01 40.0472 36.1986 40.2358L38.4978 42.535C38.5921 42.6293 38.7157 42.6765 38.8409 42.6765C38.9644 42.6765 39.0896 42.6293 39.1839 42.535L44.4978 37.2212Z" fill="#FFFFFE"/>
<path fill-rule="evenodd" clip-rule="evenodd" d="M54.8735 28.8429L54.8849 42.7811C54.8686 43.2607 54.8361 43.6803 54.7857 44.064C54.5109 46.1079 53.584 48.0965 52.1759 49.664C51.1824 50.7713 49.9092 51.7095 48.2865 52.5355C47.5483 52.9111 46.784 53.2526 46.0442 53.5843L46.0344 53.5892C45.4962 53.8298 44.9401 54.0803 44.3938 54.342C43.0068 55.0071 41.88 55.7567 40.9483 56.6331C40.7548 56.8136 40.5613 57.0055 40.3466 57.2282C40.132 57.0055 39.9385 56.8152 39.745 56.6331C38.8133 55.7583 37.6865 55.0087 36.2995 54.3437C35.7531 54.0802 35.197 53.8315 34.6572 53.5892L34.6475 53.5843C33.9092 53.2526 33.145 52.9111 32.4084 52.5355C30.784 51.7095 29.5125 50.7697 28.519 49.664C27.1125 48.0965 26.1857 46.1079 25.9092 44.064C25.8572 43.6819 25.8247 43.2624 25.8101 42.7811L25.8214 28.8445C28.6231 28.4087 31.3271 27.6185 33.867 26.4949C36.2247 25.451 38.4036 24.1388 40.3483 22.5908C42.2914 24.1388 44.4702 25.451 46.8279 26.4949C49.3694 27.6168 52.0735 28.4055 54.8735 28.8429ZM48.7857 39.5355C48.7857 37.2819 47.9076 35.1632 46.3141 33.5697C44.7206 31.9762 42.6019 31.0981 40.3483 31.0981C38.0946 31.0981 35.9759 31.9762 34.3824 33.5697C32.7889 35.1632 31.9109 37.2819 31.9109 39.5355C31.9109 41.7892 32.7889 43.9079 34.3824 45.5014C35.9759 47.0949 38.0946 47.9729 40.3483 47.9729C42.6019 47.9729 44.7206 47.0949 46.3141 45.5014C47.9076 43.9079 48.7857 41.7892 48.7857 39.5355Z" fill="#FFFFFE"/>
<path fill-rule="evenodd" clip-rule="evenodd" d="M58.127 25.9433L58.1417 42.8295V42.8474C58.1222 43.4539 58.0815 43.9938 58.0132 44.4962C57.8311 45.849 57.4409 47.1726 56.8555 48.4263C56.275 49.6686 55.5173 50.8149 54.6002 51.836C53.3335 53.2458 51.7531 54.423 49.7644 55.4344C48.9547 55.8458 48.1531 56.2051 47.3791 56.5531L47.3709 56.5564L47.3677 56.558C46.8246 56.8019 46.3124 57.0312 45.8067 57.2734C44.7238 57.7938 43.8653 58.3596 43.1791 59.0035C42.7547 59.4019 42.3547 59.8393 41.9303 60.3027C41.6848 60.571 41.4327 60.8458 41.1726 61.1173L40.3482 61.9742L39.5238 61.1173C39.2636 60.8458 39.01 60.5694 38.7644 60.3011C38.3417 59.8393 37.9417 59.4019 37.5173 59.0035C36.8311 58.3596 35.9726 57.7938 34.8896 57.2734C34.3807 57.0295 33.8685 56.7986 33.327 56.5564L33.3173 56.5515C32.5417 56.2035 31.7417 55.8442 30.9319 55.4328C28.9449 54.4214 27.3628 53.2442 26.0962 51.8344C25.1791 50.8133 24.4197 49.6653 23.8409 48.4246C23.2555 47.171 22.8653 45.849 22.6831 44.4946C22.6165 43.9921 22.5742 43.4523 22.5547 42.8458V42.8279L22.5693 25.9417L23.6002 25.8409C29.6978 25.2458 35.3709 22.8051 39.5791 18.9661L40.3498 18.2637L41.1205 18.9661C45.327 22.8035 51.0002 25.2458 57.0961 25.8409L58.127 25.9433ZM55.8555 42.7873L55.8425 28.4246C55.8425 28.184 55.6653 27.9791 55.4262 27.945C52.5661 27.5368 49.8051 26.7482 47.2214 25.6051C44.8197 24.5417 42.61 23.1905 40.6571 21.5905C40.4783 21.4442 40.2214 21.4442 40.0425 21.5905C38.088 23.1921 35.8799 24.5433 33.4766 25.6068C30.8929 26.7499 28.1319 27.5368 25.2701 27.9466C25.0311 27.9807 24.8539 28.184 24.8539 28.4263L24.8425 42.7889V42.8051C24.8588 43.3222 24.8945 43.7759 24.9514 44.1938C25.2522 46.4279 26.2653 48.6003 27.8002 50.3108C28.875 51.5076 30.2392 52.5173 31.9709 53.3986C32.7287 53.784 33.5043 54.132 34.2555 54.4686L34.2636 54.4718C34.7953 54.7108 35.3466 54.958 35.8815 55.2149C37.1775 55.8377 38.2246 56.532 39.0831 57.3385C39.3596 57.5986 39.6409 57.8832 39.9937 58.262C40.0848 58.3596 40.2132 58.4165 40.3482 58.4165C40.4831 58.4165 40.6116 58.3612 40.7027 58.262C41.0555 57.8848 41.3368 57.5986 41.6132 57.3385C42.4718 56.532 43.5205 55.8377 44.8165 55.2149C45.3498 54.958 45.901 54.7108 46.4344 54.4718L46.4425 54.4686C47.1921 54.132 47.9677 53.7856 48.727 53.3986C50.4588 52.5173 51.823 51.5076 52.8978 50.3108C54.4327 48.6003 55.4441 46.4279 55.7466 44.1921C55.8035 43.7742 55.8376 43.3206 55.8555 42.8035C55.8555 42.7986 55.8555 42.7921 55.8555 42.7873Z" fill="#FFFFFE"/>
</g>
<defs>
<clipPath id="clip0_1236_6038">
<rect width="80" height="80" fill="white" transform="translate(0.305664)"/>
</clipPath>
</defs>
</svg>
