<svg width="81" height="80" viewBox="0 0 81 80" fill="none" xmlns="http://www.w3.org/2000/svg">
<g clip-path="url(#clip0_1236_6051)">
<path d="M40.6144 80.0072C62.7078 80.0072 80.618 62.097 80.618 40.0036C80.618 17.9102 62.7078 0 40.6144 0C18.5211 0 0.61084 17.9102 0.61084 40.0036C0.61084 62.097 18.5211 80.0072 40.6144 80.0072Z" fill="#FF1100"/>
<path fill-rule="evenodd" clip-rule="evenodd" d="M40.6142 63.3323C37.187 63.3323 33.7885 62.4898 30.7861 60.913C27.8701 59.3794 25.3212 57.1546 23.406 54.469C23.1252 54.0802 23.2116 53.5402 23.6076 53.2593C23.9964 52.9785 24.5364 53.0721 24.8172 53.461C28.4605 58.5514 34.3645 61.5898 40.6142 61.5898C50.7231 61.5898 59.0536 53.8138 59.932 43.9209H61.6816C61.2784 48.9177 59.14 53.5546 55.5616 57.1402C51.5655 61.129 46.2591 63.3323 40.6142 63.3323ZM23.73 24.7183H15.882C15.3995 24.7183 15.0107 24.3295 15.0107 23.8471C15.0107 23.3718 15.3995 22.983 15.882 22.983H23.73C24.2124 22.983 24.6012 23.3718 24.6012 23.8471C24.6012 24.3295 24.2124 24.7183 23.73 24.7183ZM28.0645 21.5646H15.882C15.3995 21.5646 15.0107 21.1758 15.0107 20.6934C15.0107 20.2182 15.3995 19.8294 15.882 19.8294H28.0645C28.5469 19.8294 28.9357 20.2182 28.9357 20.6934C28.9357 21.1758 28.5469 21.5646 28.0645 21.5646ZM28.0645 18.411H15.882C15.3995 18.411 15.0107 18.0222 15.0107 17.5398C15.0107 17.0646 15.3995 16.6758 15.882 16.6758H28.0645C28.5469 16.6758 28.9357 17.0646 28.9357 17.5398C28.9357 18.0222 28.5469 18.411 28.0645 18.411ZM40.6142 55.4698C33.2845 55.4698 27.3301 49.5153 27.3301 42.1856C27.3301 34.8632 33.2845 28.9015 40.6142 28.9015C47.9367 28.9015 53.8983 34.8632 53.8983 42.1856C53.8983 49.5153 47.9367 55.4698 40.6142 55.4698ZM37.7414 47.2113C37.8638 47.2113 37.9718 47.1681 38.051 47.0817L47.2239 37.916C47.3895 37.7432 47.3895 37.4696 47.2239 37.2968C47.0511 37.124 46.7703 37.124 46.6047 37.2968L37.7414 46.1529L34.6165 43.028C34.4509 42.8552 34.1701 42.8552 33.9973 43.028C33.8317 43.2008 33.8317 43.4745 34.0045 43.6473L37.4318 47.0817C37.5182 47.1609 37.6262 47.2113 37.7414 47.2113ZM65.3392 43.0568H56.4256C56.0944 43.0568 55.792 42.8696 55.648 42.5744C55.4967 42.2792 55.5327 41.9264 55.7272 41.6672L60.1408 35.8208C60.3064 35.5976 60.5584 35.4752 60.832 35.4752C61.0984 35.468 61.3576 35.5976 61.5232 35.8136L66.0305 41.66C66.2321 41.9192 66.2681 42.272 66.1241 42.5744C65.9729 42.8696 65.6705 43.0568 65.3392 43.0568ZM20.2884 48.9033C20.0148 48.9033 19.7628 48.7737 19.5972 48.5577L15.1907 42.7112C14.9891 42.452 14.9531 42.0992 15.1043 41.804C15.2483 41.5088 15.5507 41.3216 15.882 41.3216H24.7956C25.1268 41.3216 25.4292 41.5088 25.5804 41.804C25.7245 42.0992 25.6884 42.4592 25.4868 42.7184L20.9796 48.5649C20.814 48.7809 20.562 48.9033 20.2884 48.9033ZM19.5396 40.4576C19.9428 35.4608 22.0812 30.8239 25.6596 27.2383C29.6557 23.2494 34.9621 21.0462 40.6142 21.0462C44.0342 21.0462 47.4327 21.8814 50.4351 23.4654C53.3511 24.9991 55.9 27.2239 57.8152 29.9023C58.096 30.2983 58.0096 30.8383 57.6136 31.1191C57.2248 31.3999 56.6848 31.3063 56.404 30.9175C52.7607 25.8271 46.8567 22.7886 40.6142 22.7886C30.4981 22.7886 22.1676 30.5647 21.2892 40.4576H19.5396Z" fill="white"/>
</g>
<defs>
<clipPath id="clip0_1236_6051">
<rect width="80" height="80" fill="white" transform="translate(0.61084)"/>
</clipPath>
</defs>
</svg>
