<svg width="27" height="25" viewBox="0 0 27 25" fill="none" xmlns="http://www.w3.org/2000/svg">
<path d="M8.26304 0.000203503C9.09198 0.0254132 9.89459 0.170148 10.6722 0.434617H10.7498C10.8025 0.459617 10.8419 0.487248 10.8683 0.512247C11.159 0.605667 11.434 0.710928 11.6972 0.855663L12.1972 1.07934C12.3946 1.1846 12.6314 1.38065 12.763 1.46092C12.8945 1.53855 13.0393 1.61881 13.1577 1.7096C14.6195 0.592509 16.3945 -0.0127441 18.2234 0.000203503C19.0537 0.000203503 19.8826 0.117517 20.6707 0.381986C25.5272 1.96091 27.2772 7.28977 25.8154 11.9476C24.9864 14.3278 23.6312 16.5001 21.8562 18.2751C19.3155 20.7356 16.5274 22.9198 13.5261 24.8013L13.1972 25L12.8551 24.7882C9.84328 22.9198 7.03938 20.7356 4.47495 18.262C2.71182 16.487 1.35526 14.3278 0.513171 11.9476C-0.973646 7.28977 0.776325 1.96091 5.68545 0.354355C6.06703 0.222778 6.46044 0.130675 6.85517 0.0793597H7.01306C7.38279 0.0254132 7.74989 0.000203503 8.11831 0.000203503H8.26304ZM19.9865 4.15824C19.4471 3.97272 18.855 4.2635 18.6576 4.81612C18.4734 5.36875 18.7629 5.974 19.3155 6.17005C20.1589 6.48583 20.7234 7.31608 20.7234 8.2358V8.27659C20.6984 8.5779 20.7892 8.86869 20.9734 9.09237C21.1576 9.31605 21.4339 9.44631 21.7233 9.47394C22.2628 9.45947 22.7233 9.02658 22.7628 8.47264V8.31606C22.8023 6.47267 21.6852 4.80297 19.9865 4.15824Z" fill="#C2E2E9"/>
</svg>
