<svg width="18" height="17" viewBox="0 0 18 17" fill="none" xmlns="http://www.w3.org/2000/svg">
<path d="M5.39802 9.63933L1.85075 13.9963L5.74504 16.7724L8.82963 12.0684L11.8757 16.811L15.7699 14.0349L12.2612 9.63933L17.6978 8.21271L16.1941 3.62439L10.9503 5.62937L11.2202 0H6.43907L6.70897 5.62937L1.50374 3.58583L0 8.17415L5.39802 9.63933Z" fill="#46B2C8"/>
<path d="M9.47646 6.76968L9.60913 2.13672H8.08862L8.22128 6.76968H9.47646ZM8.84377 9.35149C9.41524 9.35149 9.81322 8.9535 9.81322 8.39224C9.81322 7.82077 9.41524 7.41258 8.84377 7.41258C8.28251 7.41258 7.88452 7.82077 7.88452 8.39224C7.88452 8.9535 8.28251 9.35149 8.84377 9.35149Z" fill="#EFF8F9"/>
</svg>
