<svg width="62" height="62" viewBox="0 0 62 62" fill="none" xmlns="http://www.w3.org/2000/svg">
<circle cx="31" cy="31" r="31" fill="#E0F1F4"/>
<path d="M16.8545 41.4978H43.9974C45.0625 41.4978 45.9259 40.6386 45.9259 39.5735V24.5623C45.9259 24.0493 45.7216 23.5591 45.3581 23.1972L42.0634 19.9169C41.702 19.557 41.2152 19.355 40.7052 19.355H16.8472C15.782 19.355 14.9259 20.2184 14.9259 21.2836V39.5693C14.9259 40.6344 15.7894 41.4978 16.8545 41.4978Z" fill="#115766"/>
<rect x="20.6831" y="24.6987" width="11.0714" height="3.83713" fill="#46B2C8"/>
<rect x="20.6831" y="34.1475" width="11.0714" height="3.83713" fill="#46B2C8"/>
<rect x="20.6831" y="29.4229" width="6.64286" height="3.83713" fill="#C2E2E9"/>
<rect x="32.7312" y="24.6987" width="5.66609" height="3.83713" fill="#C2E2E9"/>
<rect x="32.7312" y="34.1475" width="5.66609" height="3.83713" fill="#C2E2E9"/>
<rect x="28.3741" y="29.4229" width="10.0233" height="3.83713" fill="#46B2C8"/>
</svg>
