<svg width="46" height="45" viewBox="0 0 46 45" fill="none" xmlns="http://www.w3.org/2000/svg">
<path d="M23.0616 0.0898438C10.7892 0.0898438 0.804688 10.0744 0.804688 22.3468C0.804688 34.6192 10.7892 44.6037 23.0616 44.6037C35.3341 44.6037 45.3186 34.6192 45.3186 22.3468C45.3186 10.0744 35.3342 0.0898438 23.0616 0.0898438ZM19.6104 31.6253C18.3106 32.8483 16.6827 33.4595 14.7268 33.4595C12.9843 33.4595 11.4402 32.6648 10.0954 31.075C8.78073 29.5775 8.12368 27.9569 8.12368 26.2142C8.12368 21.1074 11.6439 16.1718 18.6852 11.4064C18.9357 11.2368 19.5645 11.0876 19.9323 11.4962L20.611 12.3498C20.9393 12.9049 20.5417 13.4196 20.2844 13.6331C19.0608 14.6481 18.171 15.4332 17.6158 15.9886C16.5271 17.1335 15.7223 18.2796 15.1909 19.4223C15.0694 19.6836 15.3795 19.8494 15.5407 19.9021C19.5528 21.217 21.5596 23.5352 21.5596 26.8562C21.5592 28.813 20.9094 30.4029 19.6104 31.6253ZM34.8803 31.6253C33.5805 32.8483 31.9527 33.4595 29.9967 33.4595C28.2542 33.4595 26.7102 32.6648 25.3653 31.075C24.0507 29.5775 23.3936 27.9569 23.3936 26.2142C23.3936 21.1074 26.9139 16.1718 33.9551 11.4064C34.2056 11.2368 34.8344 11.0876 35.2022 11.4962L35.8809 12.3498C36.2092 12.9049 35.8117 13.4196 35.5543 13.6331C34.3307 14.6481 33.4409 15.4332 32.8857 15.9886C31.797 17.1335 30.9922 18.2796 30.4608 19.4223C30.3393 19.6836 30.6495 19.8494 30.8106 19.9021C34.8228 21.217 36.8295 23.5352 36.8295 26.8562C36.8291 28.813 36.1793 30.4029 34.8803 31.6253Z" fill="#115766"/>
</svg>
