<svg width="109" height="109" viewBox="0 0 109 109" fill="none" xmlns="http://www.w3.org/2000/svg">
<path d="M54.5 0C24.4488 0 0 24.4488 0 54.5C0 84.5512 24.4488 109 54.5 109C84.5512 109 109 84.5512 109 54.5C109 24.4488 84.5516 0 54.5 0ZM46.049 77.2201C42.8663 80.2149 38.8802 81.7114 34.0907 81.7114C29.8239 81.7114 26.043 79.7656 22.75 75.8726C19.5307 72.2058 17.9218 68.2372 17.9218 63.9701C17.9218 51.4652 26.5418 39.3794 43.7835 27.7105C44.3969 27.2953 45.9366 26.93 46.8373 27.9305L48.4992 30.0206C49.303 31.3798 48.3296 32.6402 47.6994 33.1629C44.7032 35.6483 42.5245 37.5709 41.165 38.9308C38.499 41.7344 36.5283 44.5409 35.2271 47.3389C34.9296 47.9786 35.6891 48.3847 36.0836 48.5136C45.9081 51.7336 50.822 57.4101 50.822 65.5421C50.8209 70.3337 49.2299 74.2268 46.049 77.2201ZM83.4401 77.2201C80.2574 80.2149 76.2713 81.7114 71.4818 81.7114C67.215 81.7114 63.434 79.7656 60.141 75.8726C56.9218 72.2058 55.3129 68.2372 55.3129 63.9701C55.3129 51.4652 63.9329 39.3794 81.1746 27.7105C81.7879 27.2953 83.3277 26.93 84.2284 27.9305L85.8903 30.0206C86.6941 31.3798 85.7206 32.6402 85.0904 33.1629C82.0943 35.6483 79.9156 37.5709 78.5561 38.9308C75.8901 41.7344 73.9194 44.5409 72.6182 47.3389C72.3206 47.9786 73.0801 48.3847 73.4746 48.5136C83.2992 51.7336 88.2131 57.4101 88.2131 65.5421C88.212 70.3337 86.621 74.2268 83.4401 77.2201Z" fill="#46B2C8"/>
</svg>
