<svg width="82" height="58" viewBox="0 0 82 58" fill="none" xmlns="http://www.w3.org/2000/svg">
<path d="M15.7374 37.707C13.9637 42.1682 11.1688 46.5757 7.43315 50.8221C6.25065 52.1658 6.0894 54.1007 7.05687 55.6057C7.80946 56.7882 9.0456 57.4332 10.3893 57.4332C10.7656 57.4332 11.1419 57.4065 11.5182 57.2719C19.4193 54.9607 37.8826 46.7639 38.3932 20.4801C38.5812 10.3483 31.1638 1.64082 21.5156 0.64645C16.1675 0.108923 10.8463 1.85569 6.89562 5.40322C2.94508 8.97765 0.6875 14.0839 0.6875 19.4051C0.6875 28.2739 6.97633 36.0408 15.7374 37.707Z" fill="#46B2C8"/>
<path d="M64.4069 0.64645C59.0855 0.108923 53.7643 1.85569 49.8138 5.40322C45.863 8.97765 43.6055 14.0839 43.6055 19.4051C43.6055 28.2739 49.8943 36.0408 58.6556 37.707C56.8817 42.1682 54.0868 46.5757 50.3511 50.822C49.1686 52.1658 49.0074 54.1007 49.975 55.6057C50.7274 56.7882 51.9637 57.4332 53.3075 57.4332C53.6836 57.4332 54.0599 57.4064 54.4362 57.2719C62.3374 54.9607 80.8005 46.7639 81.3112 20.48V20.1039C81.3112 10.1332 73.9744 1.64082 64.4069 0.64645Z" fill="#46B2C8"/>
</svg>
