<svg width="50" height="50" viewBox="0 0 50 50" fill="none" xmlns="http://www.w3.org/2000/svg">
<circle cx="24.7024" cy="24.7024" r="24.7024" fill="#E0F1F4"/>
<path d="M13.4303 33.0676H35.0592C35.9079 33.0676 36.596 32.3829 36.596 31.5342V19.5724C36.596 19.1637 36.4332 18.773 36.1435 18.4846L33.5181 15.8707C33.2301 15.584 32.8422 15.423 32.4358 15.423H13.4245C12.5757 15.423 11.8936 16.111 11.8936 16.9598V31.5308C11.8936 32.3795 12.5816 33.0676 13.4303 33.0676Z" fill="#115766"/>
<rect x="16.4814" y="19.681" width="8.8223" height="3.05763" fill="#46B2C8"/>
<rect x="16.4814" y="27.2103" width="8.8223" height="3.05763" fill="#46B2C8"/>
<rect x="16.4814" y="23.4457" width="5.29338" height="3.05763" fill="#C2E2E9"/>
<rect x="26.082" y="19.681" width="4.51504" height="3.05763" fill="#C2E2E9"/>
<rect x="26.082" y="27.2103" width="4.51504" height="3.05763" fill="#C2E2E9"/>
<rect x="22.6104" y="23.4457" width="7.98713" height="3.05763" fill="#46B2C8"/>
</svg>
