<svg width="1133" height="429" viewBox="0 0 1133 429" fill="none" xmlns="http://www.w3.org/2000/svg">
<path d="M1127.35 428.484H6.36619C2.81453 428.484 0 425.825 0 422.609V303.331C0 300.054 2.88154 297.457 6.36619 297.457H1127.35C1130.17 297.457 1132.44 299.559 1132.44 302.156V423.846C1132.44 426.381 1130.17 428.484 1127.35 428.484Z" fill="#115766"/>
<path d="M566.836 169.791C480.069 169.791 409.73 235.914 409.73 317.48H723.942C723.942 235.914 653.603 169.791 566.836 169.791Z" fill="#46B2C8"/>
<line x1="296.574" y1="348.763" x2="296.573" y2="392.993" stroke="#C7E8EF" stroke-width="0.777377"/>
<line x1="569.939" y1="348.763" x2="569.939" y2="392.993" stroke="#C7E8EF" stroke-width="0.777377"/>
<line x1="849.638" y1="348.763" x2="849.638" y2="392.993" stroke="#C7E8EF" stroke-width="0.777377"/>
<path d="M137.346 282.605L346.143 75.6271C347.662 74.1621 350.091 74.1621 351.559 75.6271L413.363 137.311C414.882 138.827 414.882 141.252 413.363 142.717L267.787 288.01C267.079 288.718 266.066 289.122 265.054 289.122H140.079C136.587 289.172 134.916 285.03 137.346 282.605Z" fill="#115766"/>
<path d="M3.81673 282.654L164.224 122.003C165.742 120.487 168.172 120.487 169.64 122.003L226.078 178.332C227.597 179.847 227.597 182.272 226.078 183.788L120.743 288.11C120.035 288.818 119.073 289.222 118.06 289.222H6.55008C3.15871 289.171 1.4377 285.029 3.81673 282.654Z" fill="#C7E8EF"/>
<path d="M234.582 175.655L340.575 70.1205C342.094 68.6049 342.094 66.18 340.575 64.7149L283.985 8.23434C282.466 6.71876 280.037 6.71876 278.569 8.23434L172.576 113.769C171.057 115.285 171.057 117.71 172.576 119.175L229.115 175.605C230.634 177.171 233.064 177.171 234.582 175.655Z" fill="#C7E8EF"/>
<path d="M290.706 0H476.978C479.104 0 480.825 1.71766 480.825 3.83947V58.7034C480.825 60.8252 479.104 62.5429 476.978 62.5429H350.333C349.321 62.5429 348.359 62.1387 347.6 61.4315L289.39 3.23324C288.175 2.07129 289.035 0 290.706 0Z" fill="#C7E8EF"/>
<path d="M651.811 3.83947V58.7034C651.811 60.8252 650.09 62.5429 647.964 62.5429H488.772C486.646 62.5429 484.925 60.8252 484.925 58.7034V3.83947C484.925 1.71766 486.646 0 488.772 0H647.964C650.09 0 651.811 1.71766 651.811 3.83947Z" fill="#C7E8EF"/>
<path d="M842.588 3.23323L784.277 61.3809C783.568 62.0882 782.556 62.4924 781.544 62.4924H659.758C657.632 62.4924 655.911 60.7747 655.911 58.6529V3.83947C655.911 1.71766 657.632 0 659.758 0H841.272C842.943 0 843.803 2.07129 842.588 3.23323Z" fill="#C7E8EF"/>
<path d="M773.532 73.1511L710.564 135.896C709.855 136.603 708.843 137.008 707.83 137.008H425.739C424.726 137.008 423.765 136.603 423.005 135.896L360.138 73.1511C358.924 71.9387 359.784 69.9179 361.505 69.9179H772.216C773.886 69.8674 774.747 71.9387 773.532 73.1511Z" fill="#115766"/>
<path d="M995.099 282.605L786.302 75.6271C784.783 74.1621 782.354 74.1621 780.886 75.6271L719.082 137.311C717.563 138.827 717.563 141.252 719.082 142.717L864.658 288.01C865.366 288.718 866.379 289.122 867.391 289.122H992.366C995.858 289.172 997.529 285.03 995.099 282.605Z" fill="#115766"/>
<path d="M1128.63 282.654L968.221 122.003C966.703 120.487 964.273 120.487 962.805 122.003L906.367 178.332C904.848 179.847 904.848 182.272 906.367 183.788L1011.7 288.11C1012.41 288.818 1013.37 289.222 1014.38 289.222H1125.89C1129.29 289.171 1131.01 285.029 1128.63 282.654Z" fill="#C7E8EF"/>
<path d="M897.863 175.655L791.87 70.1205C790.351 68.6049 790.351 66.18 791.87 64.7149L848.46 8.23434C849.979 6.71876 852.408 6.71876 853.876 8.23434L959.869 113.769C961.388 115.285 961.388 117.71 959.869 119.175L903.329 175.605C901.811 177.171 899.381 177.171 897.863 175.655Z" fill="#C7E8EF"/>
<path d="M498.396 259.858L491.903 241.75H486.858L480.365 259.858H484.349L485.72 255.875H492.963L494.334 259.858H498.396ZM489.341 245.268L491.851 252.615H486.832L489.341 245.268ZM506.997 260.065C511.55 260.065 514.37 257.323 514.37 252.641V241.75H510.464V252.511C510.464 255.073 509.093 256.418 506.997 256.418C504.902 256.418 503.531 255.073 503.531 252.511V241.75H499.625V252.641C499.625 257.323 502.418 260.065 506.997 260.065ZM516.576 241.75V245.346H521.672V259.858H525.578V245.346H530.675V241.75H516.576ZM540.749 260.065C545.923 260.065 549.907 256.288 549.907 250.804C549.907 245.32 545.923 241.543 540.749 241.543C535.601 241.543 531.591 245.32 531.591 250.804C531.591 256.288 535.601 260.065 540.749 260.065ZM540.749 256.47C537.774 256.47 535.601 254.219 535.601 250.804C535.601 247.389 537.774 245.139 540.749 245.139C543.724 245.139 545.923 247.389 545.923 250.804C545.923 254.219 543.724 256.47 540.749 256.47ZM562.898 254.271L557.906 241.75H552.758V259.858H556.483V247.415L561.45 259.858H564.192L569.159 247.338V259.858H572.987V241.75H567.917L562.898 254.271ZM593.031 259.858L586.538 241.75H581.493L575 259.858H578.984L580.355 255.875H587.599L588.97 259.858H593.031ZM583.977 245.268L586.486 252.615H581.468L583.977 245.268ZM591.733 241.75V245.346H596.83V259.858H600.736V245.346H605.832V241.75H591.733ZM612.167 259.858V241.75H608.261V259.858H612.167ZM624.117 260.065C629.291 260.065 633.275 256.288 633.275 250.804C633.275 245.32 629.291 241.543 624.117 241.543C618.969 241.543 614.959 245.32 614.959 250.804C614.959 256.288 618.969 260.065 624.117 260.065ZM624.117 256.47C621.142 256.47 618.969 254.219 618.969 250.804C618.969 247.389 621.142 245.139 624.117 245.139C627.092 245.139 629.291 247.389 629.291 250.804C629.291 254.219 627.092 256.47 624.117 256.47ZM647.767 253.365L640.213 241.75H636.126V259.858H639.98V248.243L647.534 259.858H651.647V241.75H647.767V253.365Z" fill="#C7E8EF"/>
<path d="M393.434 28.3027L390.397 20.6844H389.276L386.24 28.3027H387.198L388.036 26.1914H391.616L392.443 28.3027H393.434ZM389.821 21.6422L391.29 25.3643H388.362L389.821 21.6422ZM394.527 20.6844V28.3027H396.617C398.989 28.3027 400.665 26.8661 400.665 24.4936C400.665 22.121 398.989 20.6844 396.617 20.6844H394.527ZM395.485 27.4538V21.5333H396.66C398.51 21.5333 399.686 22.6217 399.686 24.4936C399.686 26.3655 398.51 27.4538 396.66 27.4538H395.485ZM402.126 20.6844V28.3027H404.216C406.588 28.3027 408.264 26.8661 408.264 24.4936C408.264 22.121 406.588 20.6844 404.216 20.6844H402.126ZM403.084 27.4538V21.5333H404.259C406.11 21.5333 407.285 22.6217 407.285 24.4936C407.285 26.3655 406.11 27.4538 404.259 27.4538H403.084ZM415.461 28.3027L413.404 25.2337C414.536 24.9833 415.254 24.1344 415.254 23.0135C415.254 21.6748 414.231 20.6844 412.686 20.6844H409.725V28.3027H410.683V25.3425H412.348L414.34 28.3027H415.461ZM412.642 21.5333C413.73 21.5333 414.296 22.1102 414.296 23.0135C414.296 23.9168 413.73 24.4936 412.642 24.4936H410.683V21.5333H412.642ZM417.857 24.831H421.253V23.993H417.857V21.5225H421.917V20.6844H416.899V28.3027H421.993V27.4647H417.857V24.831ZM426.109 28.3898C427.829 28.3898 428.928 27.4212 428.928 26.1152C428.928 25.0595 428.231 24.3521 426.795 24.0909L425.848 23.9168C424.651 23.6991 424.248 23.3291 424.248 22.7305C424.248 21.9796 424.879 21.4463 425.968 21.4463C427.045 21.4463 427.72 21.9469 427.85 22.8502H428.819C428.699 21.5007 427.622 20.5974 426 20.5974C424.346 20.5974 423.279 21.5442 423.279 22.7849C423.279 23.7971 423.954 24.4501 425.336 24.7004L426.283 24.8854C427.535 25.1139 427.959 25.5384 427.959 26.1805C427.959 26.9314 427.328 27.5409 426.163 27.5409C425.01 27.5409 424.215 26.9423 424.117 25.9193H423.149C423.214 27.3994 424.379 28.3898 426.109 28.3898ZM432.869 28.3898C434.588 28.3898 435.687 27.4212 435.687 26.1152C435.687 25.0595 434.991 24.3521 433.554 24.0909L432.607 23.9168C431.41 23.6991 431.008 23.3291 431.008 22.7305C431.008 21.9796 431.639 21.4463 432.727 21.4463C433.805 21.4463 434.479 21.9469 434.61 22.8502H435.578C435.459 21.5007 434.381 20.5974 432.76 20.5974C431.105 20.5974 430.039 21.5442 430.039 22.7849C430.039 23.7971 430.714 24.4501 432.096 24.7004L433.043 24.8854C434.294 25.1139 434.719 25.5384 434.719 26.1805C434.719 26.9314 434.087 27.5409 432.923 27.5409C431.769 27.5409 430.975 26.9423 430.877 25.9193H429.908C429.974 27.3994 431.138 28.3898 432.869 28.3898ZM437.245 29.304L441.272 20.2273H440.358L436.331 29.304H437.245ZM389.712 41.2579L387.241 34.6844H386.24L389.146 42.3027H390.256L393.162 34.6844H392.182L389.712 41.2579ZM395.209 38.831H398.604V37.993H395.209V35.5225H399.268V34.6844H394.251V42.3027H399.344V41.4647H395.209V38.831ZM406.65 42.3027L404.593 39.2337C405.725 38.9833 406.443 38.1344 406.443 37.0135C406.443 35.6748 405.42 34.6844 403.875 34.6844H400.915V42.3027H401.872V39.3425H403.538L405.529 42.3027H406.65ZM403.831 35.5333C404.92 35.5333 405.486 36.1102 405.486 37.0135C405.486 37.9168 404.92 38.4936 403.831 38.4936H401.872V35.5333H403.831ZM409.046 42.3027V34.6844H408.089V42.3027H409.046ZM415.944 34.6844H410.926V42.3027H411.884V38.9507H415.487V38.1018H411.884V35.5333H415.944V34.6844ZM418.346 42.3027V34.6844H417.388V42.3027H418.346ZM423.535 42.3898C425.385 42.3898 426.8 41.2144 426.995 39.5057H426.06C425.831 40.79 424.862 41.5409 423.6 41.5409C422.033 41.5409 420.781 40.3873 420.781 38.4936C420.781 36.6434 421.989 35.4463 423.6 35.4463C424.841 35.4463 425.798 36.1537 426.038 37.4814H426.985C426.8 35.7728 425.374 34.5974 423.567 34.5974C421.467 34.5974 419.813 36.1863 419.813 38.5154C419.813 40.79 421.38 42.3898 423.535 42.3898ZM434.756 42.3027L431.72 34.6844H430.599L427.562 42.3027H428.52L429.358 40.1914H432.939L433.766 42.3027H434.756ZM431.143 35.6422L432.612 39.3643H429.685L431.143 35.6422ZM434.304 34.6844V35.5551H436.709V42.3027H437.666V35.5551H440.072V34.6844H434.304ZM442.238 42.3027V34.6844H441.281V42.3027H442.238ZM447.481 42.3898C449.593 42.3898 451.269 40.7791 451.269 38.4936C451.269 36.2081 449.593 34.5974 447.481 34.5974C445.381 34.5974 443.705 36.2081 443.705 38.4936C443.705 40.7791 445.381 42.3898 447.481 42.3898ZM447.481 41.5409C445.87 41.5409 444.673 40.322 444.673 38.4936C444.673 36.6652 445.87 35.4463 447.481 35.4463C449.092 35.4463 450.289 36.6652 450.289 38.4936C450.289 40.322 449.092 41.5409 447.481 41.5409ZM457.875 40.8008L453.75 34.6844H452.727V42.3027H453.674V36.1863L457.799 42.3027H458.822V34.6844H457.875V40.8008Z" fill="#115766"/>
<path d="M234.988 103.923C234.58 104.331 234.318 104.839 234.249 105.401L232.764 103.53L235.026 101.268L234.441 100.683L231.609 103.515L234.287 106.84L234.864 106.262C234.764 105.639 234.995 105.039 235.449 104.585C236.15 103.884 237.035 103.877 237.766 104.608C238.505 105.347 238.535 106.316 237.804 107.047C237.204 107.648 236.419 107.725 235.665 107.14L235.003 107.802C236.088 108.764 237.412 108.61 238.366 107.655C239.482 106.539 239.497 105.016 238.435 103.954C237.404 102.923 235.95 102.961 234.988 103.923ZM242.956 103.065C244.134 101.888 243.934 100.087 242.179 98.3323C240.424 96.5777 238.624 96.3776 237.446 97.555C236.269 98.7324 236.469 100.533 238.223 102.288C239.978 104.042 241.779 104.243 242.956 103.065ZM242.371 102.48C241.579 103.273 240.371 103.096 238.893 101.618C237.415 100.141 237.238 98.9325 238.031 98.1399C238.824 97.3472 240.032 97.5242 241.51 99.0018C242.987 100.479 243.164 101.688 242.371 102.48ZM247.744 98.2779C248.921 97.1004 248.721 95.2997 246.966 93.545C245.212 91.7904 243.411 91.5904 242.233 92.7678C241.056 93.9452 241.256 95.746 243.011 97.5006C244.765 99.2552 246.566 99.4553 247.744 98.2779ZM247.159 97.693C246.366 98.4856 245.158 98.3086 243.68 96.8311C242.203 95.3535 242.026 94.1453 242.818 93.3527C243.611 92.56 244.819 92.737 246.297 94.2146C247.774 95.6921 247.951 96.9003 247.159 97.693ZM252.531 93.4906C253.708 92.3132 253.508 90.5124 251.753 88.7578C249.999 87.0032 248.198 86.8031 247.021 87.9806C245.843 89.158 246.043 90.9588 247.798 92.7134C249.553 94.468 251.353 94.6681 252.531 93.4906ZM251.946 92.9058C251.153 93.6984 249.945 93.5214 248.467 92.0439C246.99 90.5663 246.813 89.3581 247.606 88.5654C248.398 87.7728 249.606 87.9498 251.084 89.4273C252.562 90.9049 252.739 92.1131 251.946 92.9058ZM254.786 85.6636L253.309 84.1861L252.708 84.7863L254.186 86.2639L252.801 87.6491L253.37 88.2186L254.755 86.8334L256.233 88.3109L256.833 87.7107L255.356 86.2331L256.741 84.8479L256.171 84.2784L254.786 85.6636ZM241.339 113.584L246.726 118.971L248.204 117.493C249.882 115.816 250.051 113.615 248.373 111.937C246.696 110.259 244.495 110.429 242.817 112.106L241.339 113.584ZM246.803 117.693L242.617 113.507L243.448 112.676C244.756 111.368 246.357 111.306 247.681 112.63C249.004 113.953 248.943 115.554 247.634 116.862L246.803 117.693ZM256.542 109.155L249.008 105.915L248.216 106.708L251.456 114.242L252.133 113.564L251.232 111.479L253.764 108.947L255.842 109.855L256.542 109.155ZM249.278 107L252.948 108.593L250.878 110.663L249.278 107ZM250.835 104.088L251.451 104.704L253.152 103.003L257.923 107.774L258.6 107.097L253.829 102.326L255.53 100.625L254.914 100.009L250.835 104.088ZM265.065 100.633L257.531 97.3927L256.738 98.1854L259.978 105.719L260.655 105.042L259.755 102.957L262.287 100.425L264.364 101.333L265.065 100.633ZM257.8 98.4778L261.471 100.071L259.401 102.141L257.8 98.4778ZM266.115 94.0108C266.392 93.3028 266.238 92.641 265.699 92.1023C264.822 91.225 263.567 91.3558 262.521 92.4024L260.451 94.4726L265.838 99.8595L268.046 97.6509C269.239 96.458 269.324 95.2498 268.4 94.3264C267.715 93.6414 266.915 93.5491 266.115 94.0108ZM265.068 92.8103C265.615 93.3567 265.607 94.0416 264.876 94.7727L263.491 96.1579L261.721 94.3879L263.106 93.0027C263.837 92.2716 264.522 92.2639 265.068 92.8103ZM265.922 98.5897L264.075 96.7428L265.607 95.2114C266.384 94.4341 267.077 94.3879 267.677 94.9882C268.277 95.5884 268.231 96.281 267.454 97.0583L265.922 98.5897ZM275.436 90.2615L267.902 87.0216L267.109 87.8143L270.349 95.3483L271.026 94.6711L270.126 92.5856L272.658 90.0537L274.735 90.9618L275.436 90.2615ZM268.171 88.1067L271.842 89.6997L269.772 91.7698L268.171 88.1067ZM278.055 87.765C279.271 86.5491 279.364 85.0869 278.44 84.1634C277.694 83.417 276.701 83.4093 275.5 84.2404L274.708 84.7868C273.707 85.4794 273.161 85.5025 272.738 85.0792C272.207 84.5482 272.276 83.7248 273.046 82.9552C273.807 82.1933 274.639 82.0702 275.37 82.6166L276.055 81.9317C275.016 81.0621 273.615 81.1852 272.468 82.3319C271.299 83.5016 271.214 84.9253 272.091 85.8026C272.807 86.5183 273.746 86.5029 274.9 85.7026L275.701 85.1639C276.747 84.4405 277.347 84.4405 277.801 84.8945C278.332 85.4255 278.317 86.3028 277.494 87.1262C276.678 87.942 275.693 88.0805 274.9 87.4264L274.215 88.1113C275.308 89.1117 276.832 88.9886 278.055 87.765ZM279.211 81.5766L281.612 79.1756L281.019 78.583L278.618 80.984L276.871 79.2371L279.742 76.3667L279.149 75.7741L275.602 79.3218L280.988 84.7087L284.59 81.1072L283.997 80.5146L281.073 83.439L279.211 81.5766ZM287.562 78.2582C288.778 77.0423 288.87 75.5801 287.947 74.6566C287.2 73.9101 286.208 73.9024 285.007 74.7336L284.215 75.28C283.214 75.9726 282.668 75.9957 282.245 75.5724C281.714 75.0414 281.783 74.218 282.552 73.4484C283.314 72.6865 284.145 72.5634 284.876 73.1098L285.561 72.4249C284.522 71.5553 283.122 71.6784 281.975 72.8251C280.805 73.9948 280.721 75.4185 281.598 76.2958C282.314 77.0115 283.253 76.9961 284.407 76.1957L285.207 75.657C286.254 74.9337 286.854 74.9337 287.308 75.3877C287.839 75.9187 287.824 76.796 287 77.6194C286.185 78.4352 285.2 78.5737 284.407 77.9196L283.722 78.6045C284.815 79.6049 286.339 79.4818 287.562 78.2582Z" fill="#115766"/>
<path d="M108.27 226.391L110.048 224.613C111.149 225.775 111.087 227.238 110.056 228.269C108.925 229.4 107.239 229.392 105.939 228.092C104.615 226.768 104.638 225.067 105.8 223.905C106.57 223.136 107.547 222.897 108.432 223.336L109.163 222.605C107.893 221.874 106.354 222.151 105.184 223.32C103.622 224.883 103.63 227.153 105.269 228.792C106.87 230.393 109.078 230.447 110.594 228.931C111.418 228.107 111.764 227.084 111.518 226.114L112.465 226.937L113.026 226.376L110.056 223.405L107.67 225.791L108.27 226.391ZM109.512 219.116L108.835 219.793L114.222 225.18L117.508 221.894L116.907 221.294L114.299 223.903L109.512 219.116ZM120.592 218.933C122.085 217.44 122.131 215.116 120.515 213.5C118.899 211.884 116.574 211.93 115.082 213.423C113.596 214.909 113.55 217.233 115.166 218.849C116.782 220.465 119.106 220.419 120.592 218.933ZM119.991 218.333C118.852 219.472 117.144 219.457 115.851 218.164C114.558 216.871 114.543 215.163 115.682 214.024C116.821 212.885 118.529 212.9 119.822 214.193C121.115 215.486 121.13 217.194 119.991 218.333ZM124.516 209.314C124.794 208.606 124.64 207.944 124.101 207.405C123.224 206.528 121.969 206.659 120.923 207.705L118.852 209.776L124.239 215.162L126.448 212.954C127.641 211.761 127.726 210.553 126.802 209.629C126.117 208.944 125.317 208.852 124.516 209.314ZM123.47 208.113C124.016 208.66 124.009 209.345 123.277 210.076L121.892 211.461L120.122 209.691L121.507 208.306C122.239 207.575 122.923 207.567 123.47 208.113ZM124.324 213.893L122.477 212.046L124.009 210.514C124.786 209.737 125.478 209.691 126.079 210.291C126.679 210.891 126.633 211.584 125.856 212.361L124.324 213.893ZM133.837 205.564L126.303 202.325L125.511 203.117L128.751 210.651L129.428 209.974L128.527 207.889L131.059 205.357L133.137 206.265L133.837 205.564ZM126.573 203.41L130.244 205.003L128.173 207.073L126.573 203.41ZM129.901 198.727L129.224 199.404L134.611 204.791L137.897 201.505L137.296 200.905L134.687 203.514L129.901 198.727ZM120.532 238.792C121.841 237.483 122.01 235.652 120.94 234.305L120.278 234.967C121.025 236.037 120.871 237.252 119.978 238.145C118.87 239.253 117.169 239.323 115.83 237.984C114.522 236.675 114.53 234.975 115.669 233.836C116.546 232.958 117.724 232.781 118.832 233.551L119.501 232.881C118.162 231.804 116.323 231.981 115.045 233.258C113.56 234.744 113.514 237.037 115.161 238.684C116.769 240.292 119.009 240.315 120.532 238.792ZM126.403 232.921C127.896 231.428 127.942 229.104 126.326 227.488C124.71 225.872 122.386 225.918 120.893 227.411C119.407 228.896 119.361 231.221 120.977 232.837C122.593 234.453 124.918 234.407 126.403 232.921ZM125.803 232.321C124.664 233.46 122.955 233.445 121.662 232.152C120.369 230.859 120.354 229.15 121.493 228.011C122.632 226.872 124.34 226.888 125.633 228.181C126.926 229.474 126.941 231.182 125.803 232.321ZM131.062 226.661L124.667 223.76L123.959 224.468L131.401 227.8L132.186 227.015L128.854 219.573L128.161 220.266L131.062 226.661ZM133.233 221.058L135.634 218.657L135.041 218.064L132.64 220.465L130.894 218.719L133.764 215.848L133.171 215.256L129.624 218.803L135.011 224.19L138.612 220.589L138.02 219.996L135.095 222.92L133.233 221.058ZM143.778 215.423L140.154 214.707C140.777 213.729 140.685 212.621 139.892 211.829C138.946 210.882 137.522 210.905 136.429 211.998L134.336 214.091L139.723 219.478L140.4 218.801L138.307 216.708L139.484 215.53L142.986 216.215L143.778 215.423ZM136.999 212.629C137.768 211.859 138.576 211.867 139.215 212.506C139.854 213.145 139.861 213.953 139.092 214.722L137.707 216.107L135.613 214.014L136.999 212.629ZM149.328 209.873L141.794 206.633L141.002 207.425L144.241 214.959L144.919 214.282L144.018 212.197L146.55 209.665L148.628 210.573L149.328 209.873ZM142.064 207.718L145.734 209.311L143.664 211.381L142.064 207.718ZM150.05 204.411L151.827 202.633C152.928 203.795 152.866 205.257 151.835 206.288C150.704 207.42 149.018 207.412 147.718 206.111C146.394 204.788 146.417 203.087 147.579 201.925C148.349 201.155 149.326 200.917 150.211 201.356L150.942 200.624C149.673 199.893 148.133 200.17 146.964 201.34C145.401 202.902 145.409 205.173 147.048 206.812C148.649 208.412 150.858 208.466 152.374 206.95C153.197 206.127 153.543 205.103 153.297 204.134L154.244 204.957L154.806 204.395L151.835 201.425L149.449 203.81L150.05 204.411ZM154.223 200.068L156.624 197.667L156.032 197.074L153.631 199.475L151.884 197.728L154.754 194.858L154.162 194.265L150.614 197.813L156.001 203.2L159.602 199.598L159.01 199.006L156.086 201.93L154.223 200.068Z" fill="#115766"/>
<path d="M275.318 204.076L266.866 200.215L265.433 201.648L269.294 210.1L270.446 208.948L269.505 206.934L272.126 204.313L274.14 205.254L275.318 204.076ZM267.183 201.991L270.824 203.698L268.889 205.633L267.183 201.991ZM277.878 198.385L271.405 195.676L269.928 197.153L276.084 203.31L277.175 202.219L272.724 197.769L278.995 200.399L279.831 199.563L277.192 193.266L281.66 197.734L282.777 196.617L276.621 190.46L275.161 191.92L277.878 198.385ZM279.11 187.971L277.975 189.106L284.132 195.262L288.002 191.392L286.964 190.355L284.229 193.09L279.11 187.971ZM281.239 216.681C282.699 215.221 282.796 213.506 281.679 212.389C280.799 211.509 279.656 211.492 278.31 212.415L277.307 213.101C276.358 213.77 275.865 213.787 275.487 213.409C275.012 212.934 275.091 212.186 275.821 211.456C276.56 210.718 277.343 210.621 278.011 211.131L279.128 210.014C277.923 208.915 276.243 209.082 274.871 210.454C273.482 211.843 273.359 213.532 274.432 214.605C275.276 215.449 276.393 215.441 277.668 214.552L278.671 213.866C279.656 213.198 280.201 213.18 280.614 213.594C281.107 214.086 281.098 214.851 280.315 215.634C279.524 216.426 278.6 216.558 277.879 215.942L276.753 217.068C278.011 218.273 279.779 218.141 281.239 216.681ZM287.438 210.481C288.995 208.924 289.171 206.743 287.834 205.16L286.7 206.295C287.438 207.333 287.306 208.537 286.418 209.426C285.354 210.49 283.709 210.552 282.39 209.232C281.106 207.948 281.097 206.304 282.196 205.204C283.05 204.351 284.211 204.175 285.31 204.94L286.453 203.797C284.861 202.434 282.671 202.654 281.159 204.166C279.417 205.908 279.356 208.537 281.229 210.411C283.085 212.267 285.679 212.24 287.438 210.481ZM296.135 201.644L292.212 200.817C292.819 199.718 292.678 198.522 291.781 197.625C290.629 196.472 288.941 196.525 287.657 197.809L285.124 200.342L291.28 206.499L292.415 205.364L290.189 203.139L291.192 202.136L294.833 202.946L296.135 201.644ZM288.615 198.873C289.31 198.179 290.058 198.187 290.638 198.768C291.218 199.348 291.218 200.087 290.524 200.782L289.178 202.128L287.27 200.219L288.615 198.873ZM295.643 196.877L298.14 194.379L297.138 193.376L294.64 195.874L293.127 194.361L296.126 191.362L295.115 190.351L290.981 194.485L297.138 200.641L301.333 196.446L300.321 195.434L297.261 198.495L295.643 196.877ZM300.942 191.577L303.44 189.08L302.437 188.077L299.939 190.575L298.426 189.062L301.426 186.063L300.414 185.052L296.281 189.185L302.437 195.342L306.632 191.147L305.621 190.135L302.56 193.196L300.942 191.577ZM309.909 184.159L302.776 182.69L301.58 183.886L307.736 190.042L308.862 188.917L304.561 184.616L311.694 186.085L312.89 184.889L306.734 178.732L305.608 179.858L309.909 184.159ZM315.381 182.397L309.225 176.241L308.09 177.376L314.247 183.532L315.381 182.397ZM318.91 175.157L311.777 173.689L310.581 174.885L316.738 181.041L317.863 179.916L313.563 175.615L320.695 177.084L321.891 175.887L315.735 169.731L314.609 170.857L318.91 175.157ZM323.582 169.166L325.315 167.433C326.185 168.462 326.08 169.799 325.104 170.775C323.978 171.901 322.342 171.919 321.032 170.608C319.712 169.289 319.739 167.644 320.873 166.51C321.612 165.771 322.544 165.525 323.38 165.938L324.594 164.724C323.151 163.775 321.251 164.074 319.835 165.49C318.032 167.293 317.997 169.914 319.879 171.796C321.735 173.651 324.277 173.643 325.983 171.936C326.854 171.066 327.241 170.028 327.056 169.016L327.997 169.782L328.859 168.92L325.394 165.454L322.632 168.216L323.582 169.166Z" fill="#C7E8EF"/>
<path d="M519.204 107.749C521.406 107.749 523.073 106.331 523.247 104.266H521.642C521.431 105.523 520.485 106.281 519.229 106.281C517.724 106.281 516.518 105.162 516.518 103.296C516.518 101.48 517.674 100.311 519.229 100.311C520.436 100.311 521.381 101.008 521.617 102.326H523.234C523.073 100.236 521.369 98.8433 519.229 98.8433C516.766 98.8433 514.863 100.659 514.863 103.309C514.863 105.933 516.717 107.749 519.204 107.749ZM528.133 107.749C530.284 107.749 531.628 106.43 531.628 104.167V98.9428H530.023V104.105C530.023 105.535 529.277 106.256 528.133 106.256C526.976 106.256 526.242 105.535 526.242 104.105V98.9428H524.637V104.167C524.637 106.43 525.981 107.749 528.133 107.749ZM536.431 107.749C538.495 107.749 539.776 106.605 539.776 105.025C539.776 103.781 538.98 102.96 537.376 102.662L536.182 102.438C535.037 102.239 534.677 101.903 534.677 101.368C534.677 100.697 535.261 100.224 536.294 100.224C537.339 100.224 537.96 100.709 538.072 101.542H539.652C539.577 99.913 538.271 98.8433 536.331 98.8433C534.366 98.8433 533.085 99.9503 533.085 101.468C533.085 102.662 533.881 103.445 535.411 103.719L536.605 103.943C537.774 104.167 538.172 104.54 538.172 105.124C538.172 105.821 537.625 106.356 536.518 106.356C535.398 106.356 534.652 105.796 534.577 104.851H532.985C533.023 106.592 534.366 107.749 536.431 107.749ZM540.512 98.9428V100.423H543.049V107.649H544.666V100.423H547.216V98.9428H540.512ZM552.049 107.749C554.5 107.749 556.428 105.921 556.428 103.296C556.428 100.672 554.5 98.8433 552.049 98.8433C549.599 98.8433 547.671 100.672 547.671 103.296C547.671 105.921 549.599 107.749 552.049 107.749ZM552.049 106.281C550.482 106.281 549.325 105.087 549.325 103.296C549.325 101.505 550.482 100.311 552.049 100.311C553.629 100.311 554.786 101.505 554.786 103.296C554.786 105.087 553.629 106.281 552.049 106.281ZM562.648 105.435L559.986 98.9428H557.897V107.649H559.439V101.356L562.014 107.649H563.196L565.783 101.331V107.649H567.362V98.9428H565.298L562.648 105.435ZM570.883 103.93H574.415V102.513H570.883V100.373H575.124V98.9428H569.278V107.649H575.211V106.219H570.883V103.93ZM583.638 107.649L581.449 104.291C582.656 103.943 583.402 102.998 583.402 101.729C583.402 100.1 582.171 98.9428 580.355 98.9428H576.773V107.649H578.377V104.503H579.795L581.798 107.649H583.638ZM580.28 100.373C581.263 100.373 581.785 100.908 581.785 101.729C581.785 102.55 581.263 103.072 580.28 103.072H578.377V100.373H580.28ZM589.491 107.649V98.9428H587.887V107.649H589.491ZM591.409 98.9428V107.649H594.083C596.77 107.649 598.648 106.02 598.648 103.296C598.648 100.572 596.77 98.9428 594.083 98.9428H591.409ZM593.014 106.182V100.41H594.108C595.912 100.41 597.006 101.443 597.006 103.296C597.006 105.149 595.912 106.182 594.108 106.182H593.014ZM601.735 103.93H605.267V102.513H601.735V100.373H605.976V98.9428H600.13V107.649H606.063V106.219H601.735V103.93ZM613.321 105.025L609.316 98.9428H607.625V107.649H609.217V101.567L613.222 107.649H614.913V98.9428H613.321V105.025ZM616.173 98.9428V100.423H618.71V107.649H620.327V100.423H622.877V98.9428H616.173ZM625.724 107.649V98.9428H624.12V107.649H625.724ZM633.488 98.9428H627.642V107.649H629.247V104.08H633.003V102.649H629.247V100.398H633.488V98.9428ZM636.571 107.649V98.9428H634.967V107.649H636.571ZM642.382 107.749C644.584 107.749 646.25 106.331 646.424 104.266H644.82C644.609 105.523 643.663 106.281 642.407 106.281C640.902 106.281 639.695 105.162 639.695 103.296C639.695 101.48 640.852 100.311 642.407 100.311C643.613 100.311 644.559 101.008 644.795 102.326H646.412C646.25 100.236 644.546 98.8433 642.407 98.8433C639.944 98.8433 638.041 100.659 638.041 103.309C638.041 105.933 639.894 107.749 642.382 107.749ZM655.407 107.649L652.161 98.9428H650.133L646.887 107.649H648.516L649.275 105.56H652.982L653.74 107.649H655.407ZM651.128 100.423L652.497 104.204H649.76L651.128 100.423ZM654.847 98.9428V100.423H657.384V107.649H659.001V100.423H661.551V98.9428H654.847ZM664.399 107.649V98.9428H662.794V107.649H664.399ZM670.247 107.749C672.697 107.749 674.625 105.921 674.625 103.296C674.625 100.672 672.697 98.8433 670.247 98.8433C667.797 98.8433 665.869 100.672 665.869 103.296C665.869 105.921 667.797 107.749 670.247 107.749ZM670.247 106.281C668.68 106.281 667.523 105.087 667.523 103.296C667.523 101.505 668.68 100.311 670.247 100.311C671.827 100.311 672.983 101.505 672.983 103.296C672.983 105.087 671.827 106.281 670.247 106.281ZM681.791 105.025L677.786 98.9428H676.095V107.649H677.687V101.567L681.692 107.649H683.383V98.9428H681.791V105.025Z" fill="#C7E8EF"/>
<path d="M838.19 173.477L837.143 174.524L838.937 176.318L833.827 181.428L834.971 182.571L840.08 177.461L841.883 179.264L842.93 178.218L838.19 173.477ZM842.507 190.108L843.334 186.186C844.433 186.792 845.63 186.652 846.527 185.755C847.679 184.602 847.626 182.914 846.342 181.63L843.809 179.097L837.652 185.253L838.787 186.388L841.012 184.163L842.015 185.165L841.206 188.806L842.507 190.108ZM845.278 182.588C845.973 183.283 845.964 184.031 845.383 184.611C844.803 185.192 844.064 185.192 843.369 184.497L842.024 183.151L843.932 181.243L845.278 182.588ZM848.963 196.563L852.824 188.111L851.39 186.678L842.938 190.539L844.09 191.691L846.104 190.75L848.725 193.371L847.784 195.385L848.963 196.563ZM851.047 188.428L849.341 192.069L847.406 190.134L851.047 188.428ZM855.612 199.502L857.081 192.369L855.885 191.173L849.728 197.329L850.854 198.455L855.155 194.154L853.686 201.287L854.882 202.483L861.039 196.327L859.913 195.201L855.612 199.502ZM858.262 206.003C859.722 207.463 861.437 207.56 862.554 206.443C863.433 205.563 863.451 204.42 862.527 203.074L861.841 202.072C861.173 201.122 861.155 200.629 861.533 200.251C862.008 199.776 862.756 199.855 863.486 200.585C864.225 201.324 864.321 202.107 863.811 202.775L864.928 203.892C866.028 202.687 865.861 201.008 864.489 199.636C863.099 198.246 861.41 198.123 860.337 199.196C859.493 200.04 859.502 201.157 860.39 202.432L861.076 203.435C861.744 204.42 861.762 204.965 861.349 205.379C860.856 205.871 860.091 205.862 859.308 205.08C858.517 204.288 858.385 203.365 859 202.643L857.875 201.518C856.67 202.775 856.802 204.543 858.262 206.003ZM867.128 214.729L870.989 206.277L869.555 204.843L861.103 208.704L862.256 209.856L864.27 208.915L866.891 211.536L865.95 213.55L867.128 214.729ZM869.212 206.593L867.506 210.235L865.571 208.3L869.212 206.593ZM870.439 218.18C871.996 219.737 874.177 219.913 875.76 218.576L874.625 217.442C873.588 218.18 872.383 218.049 871.494 217.16C870.43 216.096 870.369 214.451 871.688 213.132C872.972 211.848 874.617 211.839 875.716 212.939C876.569 213.792 876.745 214.953 875.98 216.052L877.123 217.195C878.486 215.604 878.267 213.414 876.754 211.901C875.012 210.159 872.383 210.098 870.509 211.971C868.654 213.827 868.68 216.421 870.439 218.18ZM879.871 215.159L878.825 216.206L880.619 218L875.509 223.11L876.652 224.253L881.762 219.143L883.565 220.946L884.612 219.9L879.871 215.159ZM880.469 228.07L886.625 221.913L885.491 220.779L879.334 226.935L880.469 228.07ZM884.534 232.275C886.267 234.008 888.923 234.078 890.778 232.223C892.634 230.367 892.564 227.711 890.831 225.978C889.099 224.246 886.442 224.175 884.587 226.031C882.731 227.887 882.801 230.543 884.534 232.275ZM885.572 231.238C884.464 230.129 884.49 228.467 885.756 227.201C887.023 225.934 888.685 225.908 889.793 227.016C890.91 228.133 890.884 229.795 889.617 231.062C888.351 232.328 886.689 232.355 885.572 231.238ZM894.623 238.512L896.092 231.38L894.896 230.183L888.739 236.34L889.865 237.466L894.166 233.165L892.697 240.298L893.893 241.494L900.05 235.337L898.924 234.212L894.623 238.512ZM828.232 191.086L830.941 184.613L829.463 183.136L823.307 189.292L824.397 190.383L828.848 185.933L826.218 192.203L827.053 193.039L833.351 190.4L828.883 194.868L830 195.985L836.156 189.829L834.696 188.369L828.232 191.086ZM834.063 200.19C835.796 201.922 838.452 201.993 840.308 200.137C842.164 198.281 842.093 195.625 840.361 193.892C838.628 192.16 835.972 192.089 834.116 193.945C832.26 195.801 832.331 198.457 834.063 200.19ZM835.101 199.152C833.993 198.044 834.019 196.381 835.286 195.115C836.552 193.848 838.215 193.822 839.323 194.93C840.44 196.047 840.413 197.709 839.147 198.976C837.88 200.242 836.218 200.269 835.101 199.152ZM844.152 206.427L845.621 199.294L844.425 198.098L838.269 204.254L839.394 205.38L843.695 201.079L842.226 208.212L843.422 209.408L849.579 203.252L848.453 202.126L844.152 206.427ZM845.914 211.899L852.07 205.743L850.935 204.608L844.779 210.765L845.914 211.899ZM852.96 206.633L851.913 207.679L853.708 209.473L848.598 214.583L849.741 215.727L854.851 210.617L856.654 212.42L857.701 211.373L852.96 206.633ZM854.891 221.018C856.624 222.75 859.28 222.821 861.136 220.965C862.992 219.109 862.921 216.453 861.189 214.72C859.456 212.988 856.8 212.917 854.944 214.773C853.088 216.629 853.159 219.285 854.891 221.018ZM855.929 219.98C854.821 218.872 854.847 217.209 856.114 215.943C857.38 214.676 859.043 214.65 860.151 215.758C861.268 216.875 861.241 218.538 859.975 219.804C858.708 221.07 857.046 221.097 855.929 219.98ZM863.951 229.937L864.778 226.014C865.878 226.621 867.074 226.481 867.971 225.583C869.123 224.431 869.07 222.743 867.786 221.459L865.253 218.926L859.097 225.082L860.231 226.217L862.456 223.992L863.459 224.994L862.65 228.635L863.951 229.937ZM866.722 222.417C867.417 223.112 867.408 223.86 866.827 224.44C866.247 225.021 865.508 225.021 864.813 224.326L863.468 222.98L865.376 221.072L866.722 222.417ZM866.089 232.074L872.245 225.918L871.111 224.783L864.954 230.94L866.089 232.074ZM873.329 235.603L874.798 228.47L873.602 227.274L867.445 233.431L868.571 234.556L872.872 230.256L871.403 237.388L872.599 238.584L878.755 232.428L877.63 231.302L873.329 235.603ZM879.32 240.275L881.053 242.008C880.024 242.878 878.687 242.773 877.711 241.797C876.585 240.671 876.567 239.035 877.878 237.725C879.197 236.405 880.842 236.432 881.976 237.566C882.715 238.305 882.961 239.237 882.548 240.073L883.762 241.287C884.712 239.844 884.413 237.944 882.997 236.528C881.194 234.725 878.573 234.69 876.691 236.572C874.835 238.428 874.844 240.97 876.55 242.676C877.421 243.547 878.458 243.934 879.47 243.749L878.705 244.69L879.567 245.552L883.032 242.087L880.27 239.325L879.32 240.275Z" fill="#C7E8EF"/>
<path d="M546.77 28.4512V20.8329H545.812V28.4512H546.77ZM548.65 20.8329V28.4512H550.739C553.112 28.4512 554.788 27.0146 554.788 24.642C554.788 22.2695 553.112 20.8329 550.739 20.8329H548.65ZM549.607 27.6023V21.6818H550.783C552.633 21.6818 553.808 22.7701 553.808 24.642C553.808 26.5139 552.633 27.6023 550.783 27.6023H549.607ZM557.206 24.9794H560.602V24.1414H557.206V21.6709H561.266V20.8329H556.249V28.4512H561.342V27.6132H557.206V24.9794ZM568.06 26.9493L563.936 20.8329H562.913V28.4512H563.859V22.3348L567.984 28.4512H569.007V20.8329H568.06V26.9493ZM570.22 20.8329V21.7035H572.625V28.4512H573.583V21.7035H575.988V20.8329H570.22ZM578.155 28.4512V20.8329H577.197V28.4512H578.155ZM579.371 20.8329V21.7035H581.776V28.4512H582.734V21.7035H585.139V20.8329H579.371ZM589.104 24.5332L586.862 20.8329H585.807L588.614 25.4256V28.4512H589.572V25.4256L592.391 20.8329H591.346L589.104 24.5332ZM548.5 41.4064L546.029 34.8329H545.028L547.934 42.4512H549.044L551.95 34.8329H550.97L548.5 41.4064ZM553.997 38.9794H557.392V38.1414H553.997V35.6709H558.056V34.8329H553.039V42.4512H558.132V41.6132H553.997V38.9794ZM565.438 42.4512L563.381 39.3821C564.513 39.1318 565.232 38.2829 565.232 37.1619C565.232 35.8233 564.209 34.8329 562.663 34.8329H559.703V42.4512H560.661V39.4909H562.326L564.317 42.4512H565.438ZM562.62 35.6818C563.708 35.6818 564.274 36.2586 564.274 37.1619C564.274 38.0652 563.708 38.642 562.62 38.642H560.661V35.6818H562.62ZM567.835 42.4512V34.8329H566.877V42.4512H567.835ZM574.732 34.8329H569.715V42.4512H570.672V39.0991H574.275V38.2502H570.672V35.6818H574.732V34.8329ZM577.134 42.4512V34.8329H576.177V42.4512H577.134ZM582.323 42.5382C584.173 42.5382 585.588 41.3628 585.784 39.6542H584.848C584.619 40.9384 583.651 41.6893 582.388 41.6893C580.821 41.6893 579.569 40.5357 579.569 38.642C579.569 36.7919 580.777 35.5947 582.388 35.5947C583.629 35.5947 584.587 36.3021 584.826 37.6299H585.773C585.588 35.9212 584.162 34.7458 582.355 34.7458C580.255 34.7458 578.601 36.3348 578.601 38.6638C578.601 40.9384 580.168 42.5382 582.323 42.5382ZM593.544 42.4512L590.508 34.8329H589.387L586.351 42.4512H587.308L588.146 40.3398H591.727L592.554 42.4512H593.544ZM589.931 35.7906L591.4 39.5127H588.473L589.931 35.7906ZM593.092 34.8329V35.7035H595.497V42.4512H596.455V35.7035H598.86V34.8329H593.092ZM601.026 42.4512V34.8329H600.069V42.4512H601.026ZM606.269 42.5382C608.381 42.5382 610.057 40.9275 610.057 38.642C610.057 36.3565 608.381 34.7458 606.269 34.7458C604.169 34.7458 602.493 36.3565 602.493 38.642C602.493 40.9275 604.169 42.5382 606.269 42.5382ZM606.269 41.6893C604.659 41.6893 603.462 40.4704 603.462 38.642C603.462 36.8136 604.659 35.5947 606.269 35.5947C607.88 35.5947 609.077 36.8136 609.077 38.642C609.077 40.4704 607.88 41.6893 606.269 41.6893ZM616.663 40.9493L612.538 34.8329H611.515V42.4512H612.462V36.3348L616.587 42.4512H617.61V34.8329H616.663V40.9493Z" fill="#115766"/>
<path d="M870.76 88.3996C871.468 88.6766 872.13 88.5227 872.669 87.984C873.546 87.1067 873.415 85.8523 872.369 84.8057L870.298 82.7356L864.911 88.1225L867.12 90.3312C868.313 91.524 869.521 91.6087 870.445 90.6852C871.13 90.0003 871.222 89.1999 870.76 88.3996ZM871.961 87.353C871.414 87.8994 870.729 87.8917 869.998 87.1606L868.613 85.7754L870.383 84.0054L871.768 85.3906C872.499 86.1217 872.507 86.8066 871.961 87.353ZM866.181 88.2072L868.028 86.3602L869.56 87.8917C870.337 88.6689 870.383 89.3615 869.783 89.9618C869.183 90.5621 868.49 90.5159 867.713 89.7386L866.181 88.2072ZM870.654 93.865L876.041 88.4781L875.364 87.8009L869.977 93.1878L870.654 93.865ZM874.3 97.6339C875.793 99.1269 878.117 99.1731 879.733 97.557C881.349 95.9409 881.303 93.6168 879.81 92.1239C878.325 90.6386 876 90.5924 874.384 92.2085C872.768 93.8246 872.814 96.1487 874.3 97.6339ZM874.9 97.0337C873.761 95.8947 873.776 94.1863 875.069 92.8934C876.362 91.6005 878.071 91.5852 879.21 92.7241C880.348 93.8631 880.333 95.5715 879.04 96.8644C877.747 98.1572 876.039 98.1726 874.9 97.0337ZM881.711 103.213L884.304 96.7414L883.458 95.8948L878.071 101.282L878.725 101.936L883.011 97.6494L880.556 103.767L881.134 104.345L887.305 101.867L882.98 106.192L883.635 106.846L889.022 101.459L888.183 100.62L881.711 103.213ZM888.102 106.403L890.503 108.804L891.095 108.212L888.694 105.811L890.441 104.064L893.312 106.934L893.904 106.342L890.357 102.794L884.97 108.181L888.571 111.782L889.164 111.19L886.239 108.265L888.102 106.403ZM894.599 107.036L893.984 107.652L895.684 109.353L890.913 114.124L891.59 114.801L896.362 110.03L898.062 111.731L898.678 111.115L894.599 107.036ZM898.201 121.413L898.917 117.788C899.894 118.411 901.003 118.319 901.795 117.526C902.742 116.58 902.719 115.156 901.626 114.063L899.533 111.97L894.146 117.357L894.823 118.034L896.916 115.941L898.094 117.118L897.409 120.62L898.201 121.413ZM900.995 114.633C901.765 115.402 901.757 116.21 901.118 116.849C900.479 117.488 899.671 117.495 898.902 116.726L897.517 115.341L899.61 113.247L900.995 114.633ZM899.896 123.107L905.283 117.72L904.606 117.043L899.219 122.43L899.896 123.107ZM903.503 126.837C904.811 128.146 906.643 128.315 907.99 127.245L907.328 126.583C906.258 127.33 905.042 127.176 904.15 126.283C903.041 125.175 902.972 123.474 904.311 122.135C905.619 120.827 907.32 120.835 908.459 121.974C909.336 122.851 909.513 124.028 908.744 125.137L909.413 125.806C910.491 124.467 910.314 122.628 909.036 121.35C907.551 119.865 905.258 119.819 903.611 121.466C902.002 123.074 901.979 125.314 903.503 126.837ZM908.841 132.175C910.057 133.391 911.519 133.483 912.442 132.56C913.189 131.813 913.196 130.82 912.365 129.62L911.819 128.827C911.126 127.827 911.103 127.28 911.526 126.857C912.057 126.326 912.881 126.395 913.65 127.165C914.412 127.927 914.535 128.758 913.989 129.489L914.674 130.174C915.544 129.135 915.42 127.735 914.274 126.588C913.104 125.418 911.68 125.333 910.803 126.211C910.087 126.926 910.103 127.865 910.903 129.02L911.442 129.82C912.165 130.867 912.165 131.467 911.711 131.921C911.18 132.452 910.303 132.437 909.479 131.613C908.664 130.797 908.525 129.812 909.179 129.02L908.494 128.335C907.494 129.428 907.617 130.951 908.841 132.175Z" fill="#115766"/>
<path d="M990.515 198.457L995.902 193.07L995.225 192.393L989.838 197.78L990.515 198.457ZM997.231 194.399L991.844 199.786L993.322 201.264C994.999 202.942 997.2 203.111 998.878 201.433C1000.56 199.756 1000.39 197.555 998.709 195.877L997.231 194.399ZM993.122 199.863L997.308 195.677L998.139 196.508C999.448 197.816 999.509 199.417 998.185 200.741C996.862 202.064 995.261 202.003 993.953 200.694L993.122 199.863ZM1000.35 203.382L1002.75 205.783L1003.34 205.191L1000.94 202.79L1002.69 201.043L1005.56 203.913L1006.15 203.321L1002.6 199.773L997.218 205.16L1000.82 208.761L1001.41 208.169L998.487 205.244L1000.35 203.382ZM1006.63 212.45L1008.04 205.208L1007.32 204.485L1001.93 209.872L1002.6 210.541L1006.92 206.216L1005.52 213.458L1006.24 214.181L1011.63 208.794L1010.96 208.125L1006.63 212.45ZM1012.48 209.652L1011.87 210.268L1013.57 211.968L1008.8 216.74L1009.47 217.417L1014.25 212.646L1015.95 214.346L1016.56 213.731L1012.48 209.652ZM1012.71 220.65L1018.09 215.263L1017.42 214.585L1012.03 219.972L1012.71 220.65ZM1018.95 216.123L1018.34 216.738L1020.04 218.439L1015.27 223.21L1015.95 223.887L1020.72 219.116L1022.42 220.817L1023.03 220.201L1018.95 216.123ZM1023.22 225.622L1024.25 221.42L1023.51 220.673L1022.24 225.906L1020.1 228.046L1020.78 228.723L1022.92 226.584L1028.16 225.329L1027.42 224.59L1023.22 225.622ZM985.325 202.292L979.938 207.679L980.615 208.356L982.647 206.325L983.986 207.664C985.117 208.795 986.549 208.826 987.526 207.849C988.503 206.871 988.473 205.44 987.341 204.309L985.325 202.292ZM983.247 205.725L985.402 203.57L986.71 204.878C987.526 205.694 987.518 206.502 986.849 207.171C986.179 207.841 985.371 207.849 984.556 207.033L983.247 205.725ZM988.841 216.582L989.557 212.958C990.534 213.581 991.642 213.489 992.435 212.696C993.382 211.749 993.358 210.326 992.266 209.233L990.173 207.14L984.786 212.527L985.463 213.204L987.556 211.111L988.733 212.288L988.049 215.79L988.841 216.582ZM991.635 209.802C992.404 210.572 992.397 211.38 991.758 212.019C991.119 212.657 990.311 212.665 989.541 211.896L988.156 210.51L990.249 208.417L991.635 209.802ZM992.182 220.046C993.675 221.539 995.999 221.586 997.615 219.969C999.231 218.353 999.185 216.029 997.692 214.536C996.207 213.051 993.883 213.005 992.267 214.621C990.651 216.237 990.697 218.561 992.182 220.046ZM992.783 219.446C991.644 218.307 991.659 216.599 992.952 215.306C994.245 214.013 995.953 213.998 997.092 215.137C998.231 216.276 998.216 217.984 996.923 219.277C995.63 220.57 993.921 220.585 992.783 219.446ZM1004.89 221.855L1001.34 218.307L995.953 223.694L996.63 224.372L999.001 222.001L1001.55 224.549L1002.15 223.948L999.601 221.401L1001.42 219.585L1004.29 222.455L1004.89 221.855ZM1001.2 228.941L1006.59 223.554L1005.91 222.877L1000.52 228.264L1001.2 228.941ZM1008.59 225.56L1007.92 224.883L1002.53 230.27L1005.82 233.556L1006.42 232.956L1003.81 230.347L1008.59 225.56ZM1007.45 235.194L1012.84 229.807L1012.16 229.129L1006.78 234.516L1007.45 235.194ZM1013.48 239.101L1014.89 231.859L1014.17 231.136L1008.78 236.523L1009.45 237.192L1013.78 232.867L1012.37 240.109L1013.09 240.832L1018.48 235.445L1017.81 234.776L1013.48 239.101ZM1019.2 242.198L1020.97 243.975C1019.81 245.076 1018.35 245.014 1017.32 243.983C1016.19 242.852 1016.2 241.167 1017.5 239.866C1018.82 238.542 1020.52 238.565 1021.68 239.727C1022.45 240.497 1022.69 241.474 1022.25 242.359L1022.98 243.09C1023.71 241.821 1023.44 240.282 1022.27 239.112C1020.71 237.55 1018.44 237.557 1016.8 239.196C1015.2 240.797 1015.14 243.006 1016.66 244.522C1017.48 245.345 1018.5 245.692 1019.47 245.445L1018.65 246.392L1019.21 246.954L1022.18 243.983L1019.8 241.598L1019.2 242.198Z" fill="#115766"/>
<path d="M713.794 24.5114C714.49 24.2067 714.85 23.6299 714.85 22.8681C714.85 21.6274 713.87 20.8329 712.39 20.8329H709.462V28.4512H712.586C714.273 28.4512 715.187 27.6567 715.187 26.3507C715.187 25.3821 714.686 24.7509 713.794 24.5114ZM713.903 22.9225C713.903 23.6952 713.413 24.174 712.379 24.174H710.42V21.6709H712.379C713.413 21.6709 713.903 22.1498 713.903 22.9225ZM710.42 27.6132V25.0012H712.586C713.685 25.0012 714.207 25.4583 714.207 26.3072C714.207 27.1561 713.685 27.6132 712.586 27.6132H710.42ZM719.51 28.5382C721.327 28.5382 722.481 27.3955 722.481 25.4039V20.8329H721.523V25.3494C721.523 26.8949 720.75 27.6676 719.51 27.6676C718.269 27.6676 717.496 26.8949 717.496 25.3494V20.8329H716.539V25.4039C716.539 27.3955 717.692 28.5382 719.51 28.5382ZM726.771 28.5382C728.49 28.5382 729.589 27.5696 729.589 26.2636C729.589 25.208 728.893 24.5005 727.456 24.2393L726.509 24.0652C725.312 23.8475 724.91 23.4775 724.91 22.8789C724.91 22.128 725.541 21.5947 726.629 21.5947C727.707 21.5947 728.381 22.0953 728.512 22.9987H729.48C729.361 21.6491 728.283 20.7458 726.662 20.7458C725.007 20.7458 723.941 21.6927 723.941 22.9334C723.941 23.9455 724.616 24.5985 725.998 24.8488L726.945 25.0338C728.196 25.2624 728.621 25.6868 728.621 26.3289C728.621 27.0799 727.989 27.6893 726.825 27.6893C725.671 27.6893 724.877 27.0908 724.779 26.0677H723.81C723.876 27.5479 725.04 28.5382 726.771 28.5382ZM731.963 28.4512V20.8329H731.006V28.4512H731.963ZM738.991 26.9493L734.866 20.8329H733.843V28.4512H734.79V22.3348L738.915 28.4512H739.938V20.8329H738.991V26.9493ZM742.772 24.9794H746.168V24.1414H742.772V21.6709H746.832V20.8329H741.815V28.4512H746.908V27.6132H742.772V24.9794ZM751.024 28.5382C752.744 28.5382 753.843 27.5696 753.843 26.2636C753.843 25.208 753.146 24.5005 751.71 24.2393L750.763 24.0652C749.566 23.8475 749.163 23.4775 749.163 22.8789C749.163 22.128 749.794 21.5947 750.883 21.5947C751.96 21.5947 752.635 22.0953 752.765 22.9987H753.734C753.614 21.6491 752.537 20.7458 750.915 20.7458C749.261 20.7458 748.194 21.6927 748.194 22.9334C748.194 23.9455 748.869 24.5985 750.251 24.8488L751.198 25.0338C752.45 25.2624 752.874 25.6868 752.874 26.3289C752.874 27.0799 752.243 27.6893 751.079 27.6893C749.925 27.6893 749.13 27.0908 749.032 26.0677H748.064C748.129 27.5479 749.294 28.5382 751.024 28.5382ZM757.784 28.5382C759.503 28.5382 760.602 27.5696 760.602 26.2636C760.602 25.208 759.906 24.5005 758.469 24.2393L757.522 24.0652C756.325 23.8475 755.923 23.4775 755.923 22.8789C755.923 22.128 756.554 21.5947 757.642 21.5947C758.72 21.5947 759.394 22.0953 759.525 22.9987H760.494C760.374 21.6491 759.296 20.7458 757.675 20.7458C756.021 20.7458 754.954 21.6927 754.954 22.9334C754.954 23.9455 755.629 24.5985 757.011 24.8488L757.958 25.0338C759.209 25.2624 759.634 25.6868 759.634 26.3289C759.634 27.0799 759.003 27.6893 757.838 27.6893C756.684 27.6893 755.89 27.0908 755.792 26.0677H754.823C754.889 27.5479 756.053 28.5382 757.784 28.5382ZM712.15 41.4064L709.68 34.8329H708.679L711.585 42.4512H712.695L715.6 34.8329H714.621L712.15 41.4064ZM717.647 38.9794H721.043V38.1414H717.647V35.6709H721.707V34.8329H716.69V42.4512H721.783V41.6132H717.647V38.9794ZM729.089 42.4512L727.032 39.3821C728.164 39.1318 728.882 38.2829 728.882 37.1619C728.882 35.8233 727.859 34.8329 726.314 34.8329H723.353V42.4512H724.311V39.4909H725.976L727.968 42.4512H729.089ZM726.27 35.6818C727.358 35.6818 727.924 36.2586 727.924 37.1619C727.924 38.0652 727.358 38.642 726.27 38.642H724.311V35.6818H726.27ZM731.485 42.4512V34.8329H730.527V42.4512H731.485ZM738.382 34.8329H733.365V42.4512H734.323V39.0991H737.925V38.2502H734.323V35.6818H738.382V34.8329ZM740.785 42.4512V34.8329H739.827V42.4512H740.785ZM745.973 42.5382C747.823 42.5382 749.238 41.3628 749.434 39.6542H748.498C748.27 40.9384 747.301 41.6893 746.039 41.6893C744.471 41.6893 743.22 40.5357 743.22 38.642C743.22 36.7919 744.428 35.5947 746.039 35.5947C747.279 35.5947 748.237 36.3021 748.476 37.6299H749.423C749.238 35.9212 747.813 34.7458 746.006 34.7458C743.906 34.7458 742.251 36.3348 742.251 38.6638C742.251 40.9384 743.818 42.5382 745.973 42.5382ZM757.195 42.4512L754.159 34.8329H753.038L750.001 42.4512H750.959L751.797 40.3398H755.377L756.205 42.4512H757.195ZM753.582 35.7906L755.051 39.5127H752.123L753.582 35.7906ZM756.742 34.8329V35.7035H759.147V42.4512H760.105V35.7035H762.51V34.8329H756.742ZM764.677 42.4512V34.8329H763.719V42.4512H764.677ZM769.92 42.5382C772.031 42.5382 773.707 40.9275 773.707 38.642C773.707 36.3565 772.031 34.7458 769.92 34.7458C767.819 34.7458 766.143 36.3565 766.143 38.642C766.143 40.9275 767.819 42.5382 769.92 42.5382ZM769.92 41.6893C768.309 41.6893 767.112 40.4704 767.112 38.642C767.112 36.8136 768.309 35.5947 769.92 35.5947C771.531 35.5947 772.728 36.8136 772.728 38.642C772.728 40.4704 771.531 41.6893 769.92 41.6893ZM780.314 40.9493L776.189 34.8329H775.166V42.4512H776.113V36.3348L780.237 42.4512H781.26V34.8329H780.314V40.9493Z" fill="#115766"/>
<rect x="353.906" y="29.2793" width="16.5536" height="11.0838" rx="1.74471" fill="#115766"/>
<path d="M362.178 21.04L373.22 30.7017H351.136L362.178 21.04Z" fill="#46B2C8"/>
<path d="M360 35.4189H364.366C364.848 35.4189 365.238 35.029 365.238 34.5472V30.7802C365.238 30.5985 365.182 30.4219 365.076 30.2739L364.627 29.6447C364.463 29.4154 364.199 29.2793 363.917 29.2793H359.999C359.517 29.2793 359.128 29.6699 359.128 30.1517V34.5466C359.128 35.0283 359.518 35.4189 360 35.4189Z" fill="#C2E2E9"/>
<path fill-rule="evenodd" clip-rule="evenodd" d="M364.077 31.015C364.195 31.1326 364.195 31.3233 364.077 31.4409L361.835 33.6827C361.718 33.8003 361.527 33.8003 361.41 33.6827L360.289 32.5618C360.171 32.4442 360.171 32.2535 360.289 32.1359C360.406 32.0183 360.597 32.0183 360.715 32.1359L361.623 33.0438L363.651 31.015C363.769 30.8974 363.96 30.8974 364.077 31.015Z" fill="#46B2C8"/>
<path d="M519.717 30.7021C514.987 30.7021 511.053 34.1099 510.235 38.6043C510.063 39.5523 510.86 40.3403 511.824 40.3403H527.611C528.574 40.3403 529.372 39.5523 529.2 38.6043C528.382 34.1099 524.448 30.7021 519.717 30.7021Z" fill="#115766"/>
<path d="M516.459 29.3248H522.976C523.457 29.3248 523.848 28.9342 523.848 28.4524V23.4805C523.848 23.2497 523.757 23.0282 523.594 22.8647L522.054 21.32C521.89 21.1558 521.668 21.0635 521.436 21.0635H516.459C515.977 21.0635 515.587 21.454 515.587 21.9358V28.4524C515.587 28.9342 515.977 29.3248 516.459 29.3248Z" fill="#46B2C8"/>
<path fill-rule="evenodd" clip-rule="evenodd" d="M522.122 23.5006C522.271 23.6499 522.271 23.892 522.122 24.0413L519.276 26.8869C519.127 27.0362 518.885 27.0362 518.736 26.8869L517.313 25.4641C517.164 25.3148 517.164 25.0727 517.313 24.9235C517.462 24.7742 517.704 24.7742 517.853 24.9235L519.006 26.0759L521.581 23.5006C521.731 23.3513 521.973 23.3513 522.122 23.5006Z" fill="#C2E2E9"/>
<path d="M687.513 31.2451C682.542 31.2451 678.417 34.8735 677.644 39.6268C677.5 40.5121 678.241 41.2443 679.138 41.2443H695.888C696.785 41.2443 697.526 40.5121 697.382 39.6268C696.609 34.8735 692.485 31.2451 687.513 31.2451Z" fill="#115766"/>
<path d="M684.04 29.8169H690.987C691.435 29.8169 691.799 29.4533 691.799 29.0048V23.7152C691.799 23.5004 691.714 23.2942 691.562 23.142L689.91 21.4849C689.758 21.332 689.551 21.2461 689.335 21.2461H684.04C683.591 21.2461 683.228 21.6097 683.228 22.0581V29.0048C683.228 29.4533 683.591 29.8169 684.04 29.8169Z" fill="#46B2C8"/>
<path fill-rule="evenodd" clip-rule="evenodd" d="M690.008 34.4882C690.163 34.6431 690.163 34.8942 690.008 35.0491L687.056 38.0013C686.901 38.1562 686.65 38.1562 686.495 38.0013L685.019 36.5252C684.864 36.3703 684.864 36.1192 685.019 35.9643C685.173 35.8095 685.425 35.8095 685.579 35.9643L686.775 37.16L689.447 34.4882C689.602 34.3333 689.853 34.3333 690.008 34.4882Z" fill="#C2E2E9"/>
<path fill-rule="evenodd" clip-rule="evenodd" d="M686.097 23.7413C685.85 23.7413 685.664 23.9335 685.664 24.1544C685.664 24.3753 685.85 24.5675 686.097 24.5675C686.343 24.5675 686.53 24.3753 686.53 24.1544C686.53 23.9335 686.343 23.7413 686.097 23.7413ZM685.113 24.1544C685.113 23.6148 685.561 23.1904 686.097 23.1904C686.633 23.1904 687.08 23.6148 687.08 24.1544C687.08 24.6941 686.633 25.1184 686.097 25.1184C685.561 25.1184 685.113 24.6941 685.113 24.1544Z" fill="#C2E2E9"/>
<path fill-rule="evenodd" clip-rule="evenodd" d="M688.929 26.4952C688.683 26.4952 688.497 26.6874 688.497 26.9083C688.497 27.1292 688.683 27.3215 688.929 27.3215C689.176 27.3215 689.362 27.1292 689.362 26.9083C689.362 26.6874 689.176 26.4952 688.929 26.4952ZM687.946 26.9083C687.946 26.3687 688.394 25.9443 688.929 25.9443C689.465 25.9443 689.913 26.3687 689.913 26.9083C689.913 27.448 689.465 27.8723 688.929 27.8723C688.394 27.8723 687.946 27.448 687.946 26.9083Z" fill="#C2E2E9"/>
<path fill-rule="evenodd" clip-rule="evenodd" d="M689.599 23.5034C689.705 23.6124 689.703 23.7868 689.594 23.8928L685.817 27.5651C685.707 27.6712 685.533 27.6687 685.427 27.5597C685.321 27.4506 685.324 27.2762 685.433 27.1702L689.21 23.4979C689.319 23.3918 689.493 23.3943 689.599 23.5034Z" fill="#C2E2E9"/>
<path fill-rule="evenodd" clip-rule="evenodd" d="M228.273 118.394L225.9 116.022C225.576 115.698 225.05 115.698 224.725 116.022L222.343 118.404L222.265 118.327C222.109 118.17 222.022 117.959 222.022 117.738L222.024 116.257C222.025 116.037 222.112 115.826 222.268 115.671L224.716 113.223C225.04 112.898 225.566 112.898 225.89 113.223L229.08 116.412C229.404 116.737 229.404 117.263 229.08 117.587L228.273 118.394Z" fill="#46B2C8"/>
<path fill-rule="evenodd" clip-rule="evenodd" d="M220.828 127.168L219.577 125.917C219.421 125.761 219.333 125.549 219.334 125.328L219.339 122.057C219.34 121.837 219.427 121.626 219.583 121.471L220.616 120.438L219.01 118.833C218.686 118.508 218.16 118.508 217.836 118.833L214.412 122.257C214.256 122.412 214.169 122.623 214.168 122.843L214.165 124.97C214.164 125.19 214.252 125.402 214.408 125.558L217.836 128.986C218.16 129.31 218.686 129.31 219.01 128.986L220.828 127.168Z" fill="#115766"/>
<path d="M230.888 128.32L227.29 124.721C226.965 124.397 226.439 124.397 226.115 124.721L223.36 127.476C223.204 127.632 223.117 127.842 223.117 128.062L223.114 129.747C223.113 129.967 223.201 130.179 223.357 130.335L226.115 133.093C226.439 133.418 226.965 133.418 227.29 133.093L230.888 129.495C231.213 129.17 231.213 128.644 230.888 128.32Z" fill="#115766"/>
<path fill-rule="evenodd" clip-rule="evenodd" d="M229.539 125.942L227.12 123.523C226.795 123.198 226.269 123.198 225.945 123.523L222.306 127.162L220.529 125.385C220.372 125.229 220.285 125.017 220.285 124.796L220.29 122.161C220.29 121.941 220.378 121.73 220.533 121.575L224.725 117.383C225.05 117.058 225.576 117.058 225.9 117.383L231.412 122.895C231.736 123.219 231.736 123.745 231.412 124.069L229.539 125.942Z" fill="#46B2C8"/>
<mask id="mask0" mask-type="alpha" maskUnits="userSpaceOnUse" x="845" y="63" width="20" height="21">
<path d="M845.776 74.0529L854.361 82.6382C854.915 83.1915 855.81 83.1936 856.363 82.6403L863.497 75.5058C863.707 75.2958 863.846 75.0253 863.894 74.7322L864.293 72.2857C864.366 71.8357 864.22 71.3792 863.898 71.0568L856.332 63.4916C855.779 62.9383 854.884 62.9407 854.331 63.4941L845.776 72.0492C845.223 72.6025 845.223 73.4996 845.776 74.0529Z" fill="#115766"/>
</mask>
<g mask="url(#mask0)">
<path d="M862.71 65.9736C858.094 61.3576 850.61 61.3573 845.993 65.9736C841.377 70.59 841.377 78.0744 845.993 82.6904C850.61 87.3067 858.094 87.3067 862.71 82.6904C867.326 78.074 867.326 70.59 862.71 65.9736ZM854.86 65.2971C856.42 65.4032 857.96 65.828 859.517 66.9181C859.789 67.1089 860.056 67.3283 860.316 67.5555C860.984 68.1433 861.762 69.0584 862.175 69.7924C862.295 70.0039 862.473 70.3071 862.278 70.5401C861.91 70.9796 861.566 70.4861 861.372 70.1704C859.736 67.5086 857.03 66.317 854.816 66.1665C854.596 66.1513 854.239 66.1839 854.068 66.0099C853.934 65.872 853.902 65.6038 854.071 65.4216C854.255 65.2239 854.618 65.2812 854.86 65.2971ZM858.397 69.0754C858.123 69.2581 857.567 68.8218 857.263 68.6672C855.408 67.7222 853.509 67.6481 851.584 68.4681C851.217 68.6239 850.864 68.8146 850.444 69.1022C850.135 69.3131 849.65 69.8337 849.319 69.5614C849.161 69.4313 849.101 69.1692 849.189 69.001C849.29 68.8054 849.593 68.6344 849.753 68.5172C851.814 66.9967 854.013 66.754 856.08 67.2697C856.442 67.3599 856.856 67.4987 857.228 67.6649C857.631 67.8449 858.069 68.0401 858.4 68.3273C858.644 68.5383 858.726 68.8559 858.397 69.0754ZM846.913 70.1829C846.829 70.2369 846.734 70.2638 846.627 70.2464C846.553 70.2349 846.487 70.1974 846.416 70.1241C845.998 69.6903 846.941 68.7941 847.401 68.2881C848.88 66.6623 850.423 65.9407 851.972 65.5524C852.28 65.4755 852.717 65.3031 852.948 65.5341C853.078 65.6644 853.119 65.9405 852.999 66.0951C852.839 66.2996 852.443 66.3444 852.208 66.4067C850.919 66.7473 849.536 67.3762 848.254 68.6578C847.804 69.1087 847.454 69.6027 847.051 70.0602C847.01 70.1075 846.964 70.1501 846.913 70.1829ZM845.562 72.6538C845.631 72.3586 845.709 72.0771 845.78 71.7976C846.358 71.6459 847.068 71.0436 847.685 70.4781C847.823 70.3514 847.948 70.1719 848.087 70.1022C848.363 69.9647 848.791 70.2625 848.726 70.5803C848.662 70.8999 847.862 71.4893 847.584 71.722C846.867 72.325 846.248 72.7618 845.562 72.6538ZM845.572 76.272C845.511 75.9764 845.465 75.6777 845.434 75.3775C845.556 75.349 845.79 75.3352 845.87 75.3253C846.254 75.2788 846.506 75.287 846.886 75.1867C847.054 75.1421 847.251 75.0603 847.381 75.0906C847.718 75.169 847.777 75.5926 847.618 75.7842C847.387 76.064 846.84 76.1143 846.561 76.1501C846.198 76.1969 845.913 76.161 845.572 76.272ZM846.102 77.9564C845.986 77.6866 845.884 77.4117 845.796 77.1334C846.24 77.013 846.58 77.0495 846.998 76.9637C847.586 76.8424 848.208 76.569 848.84 76.1951C848.55 76.0886 848.279 75.9218 848.047 75.6899C847.585 75.2282 847.375 74.6108 847.411 74.0055C847.008 74.2319 846.603 74.3828 846.196 74.4144C845.961 74.4325 845.592 74.4398 845.461 74.2979C845.34 74.1667 845.303 73.8967 845.464 73.7098C845.703 73.4323 846.152 73.5675 846.481 73.4642C847.097 73.2698 847.802 72.7006 848.532 72.0505C849.452 71.2337 850.211 70.2753 851.097 69.6996C851.353 69.5328 851.624 69.3497 851.9 69.5348C852.011 69.6105 852.18 69.8939 852.044 70.1088C851.894 70.3461 851.651 70.3735 851.44 70.5264C850.898 70.9204 850.448 71.4828 849.936 71.9504C849.93 71.9555 849.925 71.9609 849.918 71.9667C850.225 72.0112 850.524 72.119 850.793 72.2931C851.301 71.7849 851.814 71.3011 852.266 71.0569C853.265 70.5179 854.604 70.3855 855.653 70.8277C855.724 70.8584 855.798 70.897 855.863 70.9447C855.964 71.0197 856.046 71.1177 856.079 71.2421C856.123 71.4148 856.032 71.5953 855.885 71.6939C855.68 71.8307 855.289 71.6451 855.044 71.5781C854.238 71.3581 853.419 71.3651 852.543 71.9246C852.193 72.1473 851.823 72.538 851.437 72.9328C851.996 73.7844 851.902 74.9417 851.153 75.6901C850.953 75.8903 850.723 76.0423 850.477 76.1489C849.205 77.1195 847.956 77.8039 846.659 77.9144C846.54 77.9241 846.261 77.9697 846.102 77.9564ZM855.346 75.105C855.594 74.5734 855.517 73.676 854.673 73.3038C854.314 73.1454 853.926 73.1871 853.658 73.3091C853.312 73.4664 852.969 73.9366 852.706 73.8887C852.485 73.8472 852.299 73.5306 852.348 73.3425C852.416 73.0797 852.829 72.7773 853.047 72.6443C853.771 72.1999 854.818 72.214 855.558 72.8457C856.406 73.5694 856.539 74.5239 856.173 75.3952C856.004 75.7979 855.393 76.4425 854.91 76.9253C854.614 77.2213 854.299 77.496 854 77.1966C853.467 76.6637 855.074 75.6912 855.346 75.105ZM847.064 79.6511C846.872 79.387 846.696 79.114 846.537 78.8343C847.135 78.7314 847.737 78.6344 848.354 78.4004C848.977 78.1642 849.622 77.8281 850.256 77.4022C851.52 76.5537 852.767 75.2964 854.068 74.0955C854.406 74.0396 854.675 74.3658 854.587 74.6414C854.496 74.9229 854.04 75.2946 853.713 75.621C851.769 77.5654 849.855 78.9156 847.881 79.4854C847.695 79.5386 847.297 79.6514 847.064 79.6511ZM847.97 80.7133C847.883 80.6265 847.799 80.5379 847.716 80.4488C848.107 80.3211 848.496 80.215 848.907 80.0547C849.975 79.6391 851.096 78.998 852.231 78.114C852.579 77.8422 852.949 77.4615 853.262 77.6947C853.453 77.8368 853.468 78.0941 853.433 78.1882C853.305 78.5346 852.452 79.0568 852.184 79.2501C850.909 80.173 849.686 80.7777 848.441 81.1519C848.28 81.0122 848.123 80.8662 847.97 80.7133ZM850.888 82.0901C850.662 82.1984 850.447 82.2837 850.24 82.3549C849.928 82.1979 849.624 82.0205 849.329 81.8246C849.655 81.6869 849.975 81.5389 850.331 81.3714C850.678 81.2069 851.141 80.8684 851.429 80.9383C851.696 81.0032 851.823 81.381 851.692 81.578C851.516 81.8443 851.132 81.9731 850.888 82.0901ZM851.358 82.8226C851.735 82.5113 852.421 82.4916 852.369 83.1018C852.028 83.0294 851.691 82.9358 851.358 82.8226ZM854.779 81.7101C854.328 82.0613 853.532 82.7995 853.145 82.4125C852.762 82.0289 853.305 81.6845 853.725 81.381C854.506 80.8176 855.103 80.3241 855.912 79.5924C856.737 78.847 857.353 78.2616 857.995 77.4572C858.113 77.3089 858.225 77.1242 858.345 76.9721C858.19 76.8803 858.043 76.7706 857.91 76.6376C857.817 76.5446 857.736 76.4445 857.663 76.3407C857.65 76.3658 857.639 76.3918 857.625 76.4167C857.255 77.0894 856.404 77.8778 855.663 78.6185C855.17 79.1125 854.562 79.6641 854.012 80.0834C853.876 80.1862 853.616 80.3661 853.476 80.3529C853.239 80.3303 853.013 80.0361 853.091 79.8067C853.185 79.5339 853.709 79.1944 854.031 78.9203C854.39 78.615 854.754 78.2643 855.011 78.0196C855.628 77.4315 856.505 76.6301 856.825 76.0461C857.182 75.3944 857.303 74.6603 857.222 74.0797C857.182 73.7899 857.104 73.5202 856.893 73.1057C856.748 72.8211 856.424 72.4086 856.67 72.1314C856.811 71.9726 857.076 71.9574 857.219 72.0346C857.263 72.0579 857.294 72.0859 857.326 72.1235C857.672 72.5291 857.883 72.9886 857.997 73.4517C858.227 73.2442 858.49 73.0945 858.77 73.0023C858.751 72.9438 858.732 72.8848 858.713 72.8295C858.443 72.0747 857.99 71.4512 857.225 70.7516C856.601 70.1804 855.796 69.9021 855.145 69.7735C854.7 69.6849 854.095 69.6714 853.582 69.7142C853.385 69.7307 853.217 69.7753 853.075 69.6628C852.892 69.5189 852.828 69.2728 852.944 69.1025C853.082 68.8994 853.388 68.8532 853.586 68.8322C854.17 68.7693 855.034 68.84 855.497 68.943C855.909 69.034 856.319 69.1842 856.778 69.4179C857.231 69.6481 857.636 69.9173 858.07 70.3069C858.903 71.054 859.413 72.0007 859.676 72.8992C860.016 72.9318 860.35 73.0448 860.647 73.2357C860.493 72.4763 860.204 71.7188 859.777 70.9667C859.643 70.7312 859.481 70.5072 859.714 70.2585C859.842 70.121 860.033 70.0647 860.208 70.1622C860.219 70.1682 860.307 70.2267 860.368 70.2951C860.86 70.8404 861.091 71.5637 861.295 72.1886C861.59 73.093 861.708 73.9995 861.65 74.9169C861.672 75.2004 861.638 75.4865 861.551 75.7594C861.48 76.1436 861.38 76.5304 861.245 76.9203C861.108 77.3149 860.772 78.3382 860.239 77.7937C860.074 77.6265 860.138 77.3786 860.23 77.1408C859.884 77.2691 859.512 77.3072 859.151 77.2554C859.019 77.7421 858.383 78.3783 858.055 78.7267C856.97 79.8825 855.866 80.8627 854.779 81.7101ZM859.01 80.2452C858.065 81.1899 857.221 82.0135 856.27 82.7716C856.114 82.897 855.953 83.0576 855.811 83.1546C855.233 83.2583 854.649 83.3057 854.064 83.2952C855.631 82.2815 857.308 80.7467 858.922 79.0836C859.261 78.7342 859.658 78.2141 859.993 78.7576C860.239 79.156 859.482 79.7733 859.01 80.2452ZM860.046 81.6095C859.51 82.0695 858.684 82.7482 858.344 82.4271C858.171 82.2629 858.166 82.0267 858.266 81.8661C858.365 81.7103 858.663 81.5742 858.843 81.4493C859.08 81.2848 859.269 81.1274 859.461 80.9647C862.103 78.7308 862.73 75.9599 862.503 73.6391C862.479 73.3781 862.265 72.6508 862.537 72.4094C862.674 72.2875 862.947 72.276 863.098 72.4064C863.346 72.6195 863.341 73.1037 863.374 73.4336C863.559 75.2765 863.227 76.9977 862.288 78.795C861.803 79.7238 861.211 80.5165 860.45 81.2389C860.263 81.4179 860.111 81.5541 860.046 81.6095Z" fill="#115766"/>
<path d="M858.416 76.1306C858.994 76.7084 859.931 76.7084 860.509 76.1306C861.086 75.5528 861.086 74.6161 860.509 74.0383C859.931 73.4606 858.994 73.4606 858.416 74.0383C857.839 74.6161 857.839 75.5528 858.416 76.1306Z" fill="#46B2C8"/>
<path d="M848.611 75.1256C849.157 75.6719 850.043 75.6719 850.589 75.1256C851.135 74.5793 851.135 73.6936 850.589 73.1473C850.043 72.6011 849.157 72.6011 848.611 73.1473C848.064 73.6936 848.064 74.5793 848.611 75.1256Z" fill="#46B2C8"/>
</g>
<path d="M981.174 182.618L967.508 168.953C966.834 168.279 965.741 168.279 965.067 168.953L955.428 178.592C954.754 179.266 954.754 180.359 955.428 181.033L967.483 193.088C967.817 193.421 968.272 193.603 968.743 193.593L972.04 193.517C972.484 193.507 972.907 193.326 973.221 193.012L981.174 185.059C981.848 184.385 981.848 183.292 981.174 182.618Z" fill="#115766"/>
<circle cx="965.569" cy="176.505" r="2.44048" transform="rotate(45 965.569 176.505)" fill="#C2E2E9"/>
<rect x="970.065" y="177.761" width="9.76193" height="0.82013" transform="rotate(45 970.065 177.761)" fill="#C2E2E9"/>
<rect x="968.344" y="179.481" width="9.76193" height="0.82013" transform="rotate(45 968.344 179.481)" fill="#C2E2E9"/>
<rect x="966.623" y="181.202" width="9.76193" height="0.82013" transform="rotate(45 966.623 181.202)" fill="#46B2C8"/>
<rect x="960.301" y="178.321" width="16.2699" height="0.82013" transform="rotate(45 960.301 178.321)" fill="#46B2C8"/>
<line x1="99.4869" y1="244.191" x2="100.159" y2="234.703" stroke="#115766" stroke-width="0.737263"/>
<line x1="99.8439" y1="244.51" x2="101.468" y2="252.013" stroke="#115766" stroke-width="0.737263"/>
<path d="M101.459 241.027L103.911 238.575C104.441 238.045 104.441 237.186 103.911 236.656L101.984 234.729C101.73 234.475 101.385 234.332 101.026 234.331L99.9779 234.329C99.6172 234.329 99.271 234.472 99.016 234.727L97.0873 236.656C96.5573 237.186 96.5573 238.045 97.0873 238.575L99.5393 241.027C100.069 241.557 100.929 241.557 101.459 241.027Z" fill="#115766"/>
<line x1="99.2903" y1="244.647" x2="93.2352" y2="244.59" stroke="#115766" stroke-width="0.737263"/>
<line x1="100.12" y1="243.972" x2="104.363" y2="243.727" stroke="#115766" stroke-width="0.737263"/>
<circle cx="93.4172" cy="244.399" r="2.61983" transform="rotate(-45 93.4172 244.399)" fill="#46B2C8"/>
<rect x="98.2989" y="250.898" width="3.506" height="3.506" transform="rotate(-45 98.2989 250.898)" fill="#46B2C8"/>
<circle cx="99.3233" cy="244.749" r="1.56748" transform="rotate(-45 99.3233 244.749)" fill="#46B2C8"/>
<path d="M107.535 244.191L106.116 245.609C105.81 245.916 105.313 245.916 105.006 245.609L103.891 244.495C103.745 244.348 103.662 244.149 103.662 243.941L103.661 243.335C103.66 243.126 103.743 242.926 103.89 242.778L105.006 241.663C105.313 241.356 105.81 241.356 106.116 241.663L107.535 243.081C107.841 243.387 107.841 243.885 107.535 244.191Z" fill="#46B2C8"/>
<path d="M490.11 102.997C484.732 102.997 480.27 106.921 479.432 112.063C479.276 113.022 480.079 113.816 481.051 113.816H499.168C500.141 113.816 500.944 113.022 500.788 112.063C499.95 106.921 495.488 102.997 490.11 102.997Z" fill="#46B2C8"/>
<path d="M485.581 100.834H491.033C491.519 100.834 491.913 100.44 491.913 99.9535V95.7804C491.913 95.5474 491.821 95.324 491.656 95.159L490.382 93.88C490.216 93.7142 489.992 93.6211 489.758 93.6211H485.581C485.094 93.6211 484.7 94.0152 484.7 94.5014V99.9535C484.7 100.44 485.094 100.834 485.581 100.834Z" fill="#C7E8EF"/>
<path fill-rule="evenodd" clip-rule="evenodd" d="M488.307 92.7379H490.203C490.437 92.7379 490.661 92.831 490.826 92.9968L492.539 94.7152C492.703 94.8802 492.796 95.1036 492.796 95.3366V98.3094H494.639C495.125 98.3094 495.519 97.9153 495.519 97.4291V93.256C495.519 93.023 495.427 92.7996 495.263 92.6346L493.988 91.3556C493.823 91.1898 493.598 91.0967 493.364 91.0967H489.187C488.701 91.0967 488.307 91.4908 488.307 91.9769V92.7379Z" fill="#46B2C8"/>
<path d="M253.818 239.123L264.971 227.97C265.587 227.354 265.589 226.358 264.974 225.742L258.588 219.356C258.299 219.067 257.909 218.902 257.5 218.896L254.92 218.853C254.493 218.846 254.081 219.012 253.779 219.314L243.892 229.201C243.276 229.817 243.278 230.814 243.894 231.43L251.588 239.123C252.204 239.739 253.202 239.739 253.818 239.123Z" fill="#C2E2E9"/>
<path d="M260.861 228.764L253.995 235.63C253.769 235.857 253.401 235.857 253.174 235.63L245.009 227.465C244.879 227.335 244.818 227.151 244.845 226.97L245.263 224.123C245.282 224 245.339 223.886 245.427 223.797L250.661 218.564C250.888 218.337 251.255 218.337 251.482 218.564L260.861 227.943C261.088 228.17 261.088 228.538 260.861 228.764Z" fill="#46B2C8"/>
<line x1="247.739" y1="231.876" x2="257.725" y2="221.89" stroke="#115766" stroke-width="1.41955"/>
<line x1="249.969" y1="234.107" x2="259.955" y2="224.121" stroke="#115766" stroke-width="1.41955"/>
<line x1="809.881" y1="160.125" x2="815.839" y2="166.083" stroke="#C2E2E9" stroke-width="1.53833"/>
<line x1="807.464" y1="162.543" x2="813.422" y2="168.501" stroke="#C2E2E9" stroke-width="1.53833"/>
<line x1="796.416" y1="164.192" x2="803.164" y2="164.45" stroke="#46B2C8" stroke-width="2.39296" stroke-linecap="round" stroke-linejoin="bevel"/>
<path d="M823.5 163.749L812.215 152.465C811.79 152.039 811.1 152.039 810.674 152.465L802.13 161.009C801.926 161.213 801.811 161.489 801.811 161.777L801.802 167.249C801.801 167.539 801.916 167.817 802.121 168.022L810.674 176.575C811.1 177.001 811.79 177.001 812.215 176.575L823.5 165.291C823.925 164.865 823.925 164.175 823.5 163.749Z" stroke="#46B2C8" stroke-width="2.39296"/>
<path d="M140.269 357.732V366.438H142.944C145.63 366.438 147.508 364.809 147.508 362.085C147.508 359.361 145.63 357.732 142.944 357.732H140.269ZM141.874 364.971V359.2H142.968C144.772 359.2 145.866 360.232 145.866 362.085C145.866 363.938 144.772 364.971 142.968 364.971H141.874ZM151.49 361.426L149.375 357.732H147.597L150.669 362.943V366.438H152.273V362.943L155.346 357.732H153.604L151.49 361.426ZM162.048 363.814L158.043 357.732H156.351V366.438H157.943V360.356L161.948 366.438H163.64V357.732H162.048V363.814ZM173.245 366.438L169.999 357.732H167.971L164.725 366.438H166.354L167.113 364.349H170.82L171.578 366.438H173.245ZM168.966 359.212L170.335 362.993H167.598L168.966 359.212ZM179.08 364.225L176.418 357.732H174.328V366.438H175.87V360.145L178.445 366.438H179.627L182.214 360.12V366.438H183.794V357.732H181.729L179.08 364.225ZM187.314 366.438V357.732H185.709V366.438H187.314ZM193.125 366.538C195.327 366.538 196.993 365.12 197.167 363.055H195.563C195.351 364.312 194.406 365.07 193.15 365.07C191.645 365.07 190.438 363.951 190.438 362.085C190.438 360.269 191.595 359.1 193.15 359.1C194.356 359.1 195.302 359.797 195.538 361.115H197.155C196.993 359.025 195.289 357.632 193.15 357.632C190.687 357.632 188.784 359.448 188.784 362.098C188.784 364.722 190.637 366.538 193.125 366.538ZM148.292 380.025L146.376 373.732H144.834L142.931 380.001L141.215 373.732H139.536L142.036 382.438H143.653L145.58 376.07L147.521 382.438H149.163L151.65 373.732H150.008L148.292 380.025ZM156.516 382.538C158.967 382.538 160.895 380.71 160.895 378.085C160.895 375.461 158.967 373.632 156.516 373.632C154.066 373.632 152.138 375.461 152.138 378.085C152.138 380.71 154.066 382.538 156.516 382.538ZM156.516 381.07C154.949 381.07 153.792 379.876 153.792 378.085C153.792 376.294 154.949 375.1 156.516 375.1C158.096 375.1 159.253 376.294 159.253 378.085C159.253 379.876 158.096 381.07 156.516 381.07ZM169.23 382.438L167.041 379.08C168.247 378.732 168.993 377.787 168.993 376.518C168.993 374.889 167.762 373.732 165.946 373.732H162.364V382.438H163.968V379.292H165.386L167.389 382.438H169.23ZM165.871 375.162C166.854 375.162 167.376 375.697 167.376 376.518C167.376 377.339 166.854 377.861 165.871 377.861H163.968V375.162H165.871ZM178.011 382.438L174.815 377.973L177.849 373.732H176.021L173.459 377.264H172.252V373.732H170.648V382.438H172.252V378.72H173.409L176.108 382.438H178.011ZM184.996 373.732H179.15V382.438H180.755V378.869H184.511V377.438H180.755V375.187H184.996V373.732ZM188.079 373.732H186.475V382.438H191.947V380.971H188.079V373.732ZM196.867 382.538C199.317 382.538 201.245 380.71 201.245 378.085C201.245 375.461 199.317 373.632 196.867 373.632C194.417 373.632 192.489 375.461 192.489 378.085C192.489 380.71 194.417 382.538 196.867 382.538ZM196.867 381.07C195.3 381.07 194.143 379.876 194.143 378.085C194.143 376.294 195.3 375.1 196.867 375.1C198.447 375.1 199.603 376.294 199.603 378.085C199.603 379.876 198.447 381.07 196.867 381.07ZM210.494 380.025L208.579 373.732H207.036L205.133 380.001L203.417 373.732H201.738L204.238 382.438H205.855L207.783 376.07L209.723 382.438H211.365L213.852 373.732H212.211L210.494 380.025ZM217.955 382.538C220.02 382.538 221.301 381.394 221.301 379.814C221.301 378.57 220.505 377.749 218.9 377.451L217.706 377.227C216.562 377.028 216.201 376.692 216.201 376.157C216.201 375.486 216.786 375.013 217.818 375.013C218.863 375.013 219.485 375.498 219.597 376.331H221.176C221.102 374.702 219.796 373.632 217.855 373.632C215.89 373.632 214.609 374.739 214.609 376.257C214.609 377.451 215.405 378.234 216.935 378.508L218.129 378.732C219.298 378.956 219.696 379.329 219.696 379.914C219.696 380.61 219.149 381.145 218.042 381.145C216.923 381.145 216.176 380.585 216.102 379.64H214.51C214.547 381.381 215.89 382.538 217.955 382.538Z" fill="#C7E8EF"/>
<path d="M90.5824 381.145H113.795C115.008 381.145 115.99 380.164 115.99 378.952V359.877C115.99 359.416 115.845 358.968 115.575 358.594L112.706 354.618C112.293 354.047 111.633 353.708 110.928 353.708H90.5756C89.3633 353.708 88.3874 354.691 88.3874 355.903V378.95C88.3874 380.162 89.3701 381.145 90.5824 381.145Z" fill="#46B2C8"/>
<path d="M90.5411 362.064L90.0261 362.551C89.7685 362.808 89.7399 363.209 89.9974 363.467C90.1119 363.61 90.3122 363.667 90.4839 363.667C90.6556 363.667 90.7987 363.61 90.9131 363.495L92.6587 361.893C92.8018 361.778 92.859 361.607 92.859 361.406C92.859 361.235 92.7731 361.063 92.6587 360.92L90.9131 359.317C90.6556 359.06 90.2264 359.088 89.9974 359.346C89.7399 359.603 89.7685 360.033 90.0261 360.262L90.5411 360.748H82.9867C82.7005 359.546 81.6131 358.659 80.3254 358.659C78.8088 358.659 77.5784 359.89 77.5784 361.406C77.5784 362.923 78.8088 364.153 80.3254 364.153C81.6131 364.153 82.7005 363.266 82.9867 362.064H90.5411V362.064ZM80.3254 362.866C79.5242 362.866 78.8661 362.207 78.8661 361.406C78.8661 360.605 79.5242 359.947 80.3254 359.947C81.1267 359.947 81.7848 360.605 81.7848 361.406C81.7848 362.207 81.1267 362.866 80.3254 362.866Z" fill="#C2E2E9"/>
<path d="M97.0655 358.659C95.5489 358.659 94.3184 359.89 94.3184 361.406C94.3184 361.921 94.4615 362.408 94.719 362.837L89.3965 368.159L89.4252 367.444C89.4538 367.072 89.1676 366.786 88.7956 366.757C88.4236 366.757 88.1375 367.015 88.1089 367.387L88.023 369.791C88.023 369.962 88.0802 370.163 88.2233 370.277C88.3378 370.391 88.5095 370.477 88.6812 370.477H88.7098L91.0849 370.391C91.4569 370.363 91.7144 370.077 91.7144 369.705C91.6858 369.333 91.3996 369.075 91.0276 369.075L90.3122 369.104L95.6633 363.753C96.0925 364.01 96.5504 364.153 97.0941 364.153C98.6107 364.153 99.8412 362.923 99.8412 361.406C99.8412 359.89 98.5821 358.659 97.0655 358.659ZM97.0655 362.866C96.2642 362.866 95.6061 362.207 95.6061 361.406C95.6061 360.605 96.2642 359.947 97.0655 359.947C97.8667 359.947 98.5249 360.605 98.5249 361.406C98.5249 362.207 97.8667 362.866 97.0655 362.866Z" fill="#C2E2E9"/>
<path d="M95.8351 371.164C95.5775 370.906 95.1483 370.935 94.9194 371.193C94.6619 371.45 94.6905 371.879 94.948 372.108L95.4631 372.595H87.9372C87.6511 371.393 86.5637 370.506 85.276 370.506C83.7594 370.506 82.5289 371.736 82.5289 373.253C82.5289 374.77 83.7594 376 85.276 376C86.5637 376 87.6511 375.113 87.9372 373.911H95.4917L94.9766 374.398C94.7191 374.655 94.6905 375.056 94.948 375.313C95.0625 375.456 95.2628 375.514 95.4345 375.514C95.6062 375.514 95.7492 375.456 95.8637 375.342L97.6092 373.739C97.7523 373.625 97.8095 373.453 97.8095 373.253C97.8095 373.053 97.7237 372.91 97.6092 372.766L95.8351 371.164ZM85.276 374.712C84.4748 374.712 83.8166 374.054 83.8166 373.253C83.8166 372.452 84.4748 371.794 85.276 371.794C86.0772 371.794 86.7354 372.452 86.7354 373.253C86.7068 374.054 86.0772 374.712 85.276 374.712Z" fill="#C2E2E9"/>
<path d="M102.016 370.506C100.499 370.506 99.2689 371.736 99.2689 373.253C99.2689 374.77 100.499 376 102.016 376C103.533 376 104.763 374.77 104.763 373.253C104.763 371.736 103.533 370.506 102.016 370.506ZM102.016 374.712C101.215 374.712 100.557 374.054 100.557 373.253C100.557 372.452 101.215 371.794 102.016 371.794C102.817 371.794 103.475 372.452 103.475 373.253C103.447 374.054 102.817 374.712 102.016 374.712Z" fill="#C2E2E9"/>
<path d="M423.013 362.72H426.546V361.303H423.013V359.163H427.255V357.733H421.409V366.439H427.342V365.009H423.013V362.72ZM434.6 363.815L430.595 357.733H428.903V366.439H430.495V360.357L434.5 366.439H436.192V357.733H434.6V363.815ZM437.451 357.733V359.213H439.988V366.439H441.605V359.213H444.155V357.733H437.451ZM447.003 362.72H450.535V361.303H447.003V359.163H451.244V357.733H445.398V366.439H451.331V365.009H447.003V362.72ZM459.758 366.439L457.569 363.081C458.776 362.733 459.522 361.788 459.522 360.519C459.522 358.89 458.291 357.733 456.475 357.733H452.893V366.439H454.497V363.293H455.915L457.917 366.439H459.758ZM456.4 359.163C457.383 359.163 457.905 359.698 457.905 360.519C457.905 361.34 457.383 361.862 456.4 361.862H454.497V359.163H456.4ZM461.176 357.733V366.439H462.781V363.38H464.647C466.5 363.38 467.731 362.223 467.731 360.556C467.731 358.89 466.5 357.733 464.647 357.733H461.176ZM462.781 361.949V359.163H464.572C465.592 359.163 466.114 359.698 466.114 360.556C466.114 361.414 465.592 361.949 464.572 361.949H462.781ZM475.986 366.439L473.797 363.081C475.003 362.733 475.75 361.788 475.75 360.519C475.75 358.89 474.518 357.733 472.702 357.733H469.12V366.439H470.725V363.293H472.143L474.145 366.439H475.986ZM472.628 359.163C473.61 359.163 474.133 359.698 474.133 360.519C474.133 361.34 473.61 361.862 472.628 361.862H470.725V359.163H472.628ZM479.009 366.439V357.733H477.404V366.439H479.009ZM483.887 366.539C485.952 366.539 487.233 365.395 487.233 363.815C487.233 362.571 486.437 361.75 484.832 361.452L483.638 361.228C482.494 361.029 482.133 360.693 482.133 360.158C482.133 359.487 482.718 359.014 483.75 359.014C484.795 359.014 485.417 359.499 485.529 360.332H487.108C487.034 358.703 485.728 357.633 483.787 357.633C481.822 357.633 480.541 358.74 480.541 360.258C480.541 361.452 481.337 362.235 482.867 362.509L484.061 362.733C485.23 362.957 485.628 363.33 485.628 363.915C485.628 364.611 485.081 365.146 483.974 365.146C482.855 365.146 482.108 364.586 482.034 363.641H480.442C480.479 365.382 481.822 366.539 483.887 366.539ZM490.232 362.72H493.764V361.303H490.232V359.163H494.473V357.733H488.628V366.439H494.56V365.009H490.232V362.72ZM424.369 382.539C426.434 382.539 427.715 381.395 427.715 379.815C427.715 378.571 426.919 377.75 425.314 377.452L424.12 377.228C422.976 377.029 422.615 376.693 422.615 376.158C422.615 375.487 423.2 375.014 424.232 375.014C425.277 375.014 425.899 375.499 426.011 376.332H427.59C427.516 374.703 426.21 373.633 424.269 373.633C422.304 373.633 421.023 374.74 421.023 376.258C421.023 377.452 421.819 378.235 423.349 378.509L424.543 378.733C425.712 378.957 426.11 379.33 426.11 379.915C426.11 380.611 425.563 381.146 424.456 381.146C423.337 381.146 422.59 380.586 422.516 379.641H420.924C420.961 381.382 422.304 382.539 424.369 382.539ZM430.714 378.72H434.247V377.303H430.714V375.163H434.956V373.733H429.11V382.439H435.043V381.009H430.714V378.72ZM440.449 382.539C442.65 382.539 444.317 381.121 444.491 379.056H442.886C442.675 380.313 441.73 381.071 440.473 381.071C438.968 381.071 437.762 379.952 437.762 378.086C437.762 376.27 438.919 375.101 440.473 375.101C441.68 375.101 442.625 375.798 442.862 377.116H444.478C444.317 375.026 442.613 373.633 440.473 373.633C438.011 373.633 436.108 375.449 436.108 378.099C436.108 380.723 437.961 382.539 440.449 382.539ZM449.377 382.539C451.528 382.539 452.872 381.221 452.872 378.957V373.733H451.267V378.895C451.267 380.325 450.521 381.046 449.377 381.046C448.22 381.046 447.486 380.325 447.486 378.895V373.733H445.882V378.957C445.882 381.221 447.225 382.539 449.377 382.539ZM461.556 382.439L459.367 379.081C460.573 378.733 461.32 377.788 461.32 376.519C461.32 374.89 460.088 373.733 458.272 373.733H454.69V382.439H456.295V379.293H457.713L459.715 382.439H461.556ZM458.198 375.163C459.18 375.163 459.703 375.698 459.703 376.519C459.703 377.34 459.18 377.862 458.198 377.862H456.295V375.163H458.198ZM464.579 382.439V373.733H462.974V382.439H464.579ZM465.837 373.733V375.213H468.375V382.439H469.992V375.213H472.541V373.733H465.837ZM477.146 377.427L475.032 373.733H473.253L476.325 378.944V382.439H477.93V378.944L481.002 373.733H479.261L477.146 377.427Z" fill="#C7E8EF"/>
<path fill-rule="evenodd" clip-rule="evenodd" d="M381.173 352.813C376.183 352.813 372.138 356.859 372.138 361.849V367.744H390.208V361.849C390.208 356.859 386.163 352.813 381.173 352.813ZM381.173 356.131C378.401 356.131 376.153 358.378 376.153 361.15V364.426H386.192V361.15C386.192 358.378 383.945 356.131 381.173 356.131Z" fill="#C2E2E9"/>
<path d="M372.138 382.041H394.871C396.118 382.041 397.13 381.032 397.13 379.784V368.723C397.13 368.088 396.863 367.484 396.395 367.056L393.885 364.762C393.469 364.382 392.926 364.171 392.362 364.171H372.133C370.886 364.171 369.879 365.182 369.879 366.43V379.782C369.879 381.03 370.89 382.041 372.138 382.041Z" fill="#46B2C8"/>
<rect x="379.065" y="370.998" width="4.21563" height="4.21563" fill="#C2E2E9"/>
<path d="M706.462 366.439L703.216 357.733H701.189L697.942 366.439H699.572L700.33 364.35H704.037L704.796 366.439H706.462ZM702.184 359.213L703.552 362.994H700.815L702.184 359.213ZM709.15 366.439V357.733H707.545V366.439H709.15ZM711.764 367.584L716.366 357.21H714.849L710.247 367.584H711.764ZM722.208 364.225L719.547 357.733H717.457V366.439H718.999V360.146L721.574 366.439H722.756L725.343 360.121V366.439H726.922V357.733H724.858L722.208 364.225ZM736.525 366.439L733.279 357.733H731.251L728.005 366.439H729.634L730.393 364.35H734.099L734.858 366.439H736.525ZM732.246 359.213L733.614 362.994H730.878L732.246 359.213ZM741.307 366.539C743.508 366.539 745.175 365.121 745.349 363.056H743.745C743.533 364.313 742.588 365.071 741.332 365.071C739.827 365.071 738.62 363.952 738.62 362.086C738.62 360.27 739.777 359.101 741.332 359.101C742.538 359.101 743.483 359.798 743.72 361.116H745.337C745.175 359.026 743.471 357.633 741.332 357.633C738.869 357.633 736.966 359.449 736.966 362.099C736.966 364.723 738.819 366.539 741.307 366.539ZM752.325 361.215H748.444V357.733H746.839V366.439H748.444V362.683H752.325V366.439H753.929V357.733H752.325V361.215ZM757.444 366.439V357.733H755.84V366.439H757.444ZM765.059 363.815L761.054 357.733H759.362V366.439H760.954V360.357L764.959 366.439H766.651V357.733H765.059V363.815ZM770.174 362.72H773.706V361.303H770.174V359.163H774.415V357.733H768.569V366.439H774.502V365.009H770.174V362.72ZM700.38 373.733H698.776V382.439H704.248V380.972H700.38V373.733ZM707.255 378.72H710.787V377.303H707.255V375.163H711.496V373.733H705.651V382.439H711.583V381.009H707.255V378.72ZM720.99 382.439L717.743 373.733H715.716L712.469 382.439H714.099L714.858 380.35H718.564L719.323 382.439H720.99ZM716.711 375.213L718.079 378.994H715.343L716.711 375.213ZM728.938 382.439L726.749 379.081C727.956 378.733 728.702 377.788 728.702 376.519C728.702 374.89 727.471 373.733 725.655 373.733H722.073V382.439H723.677V379.293H725.095L727.098 382.439H728.938ZM725.58 375.163C726.563 375.163 727.085 375.698 727.085 376.519C727.085 377.34 726.563 377.862 725.58 377.862H723.677V375.163H725.58ZM736.053 379.815L732.048 373.733H730.357V382.439H731.949V376.357L735.954 382.439H737.645V373.733H736.053V379.815ZM741.168 382.439V373.733H739.564V382.439H741.168ZM748.783 379.815L744.778 373.733H743.086V382.439H744.678V376.357L748.683 382.439H750.375V373.733H748.783V379.815ZM756.323 378.882H758.773C758.661 380.225 757.641 381.096 756.261 381.096C754.669 381.096 753.5 379.952 753.5 378.099C753.5 376.233 754.681 375.089 756.286 375.089C757.331 375.089 758.164 375.574 758.462 376.457H760.179C759.831 374.765 758.276 373.633 756.273 373.633C753.723 373.633 751.845 375.462 751.845 378.123C751.845 380.748 753.649 382.539 756.062 382.539C757.293 382.539 758.301 382.079 758.885 381.233L759.01 382.439H760.229V377.539H756.323V378.882Z" fill="#C7E8EF"/>
<rect x="647.751" y="357.513" width="22.239" height="21.9578" rx="1.71056" stroke="#46B2C8" stroke-width="0.977464"/>
<circle cx="647.871" cy="364.304" r="2.6064" fill="#C2E2E9"/>
<circle cx="669.99" cy="372.748" r="2.6064" fill="#C2E2E9"/>
<circle cx="663.576" cy="357.485" r="2.6064" fill="#C2E2E9"/>
<circle cx="654.127" cy="379.472" r="2.6064" fill="#C2E2E9"/>
<rect x="643.245" y="368.592" width="22.239" height="21.9578" rx="1.71056" transform="rotate(-45 643.245 368.592)" stroke="#46B2C8" stroke-width="0.977464"/>
<circle cx="663.201" cy="379.472" r="2.6064" fill="#46B2C8"/>
<circle cx="647.871" cy="373.211" r="2.6064" fill="#46B2C8"/>
<circle cx="654.127" cy="357.485" r="2.6064" fill="#46B2C8"/>
<circle cx="669.99" cy="372.077" r="2.6064" fill="#46B2C8"/>
<path d="M655.432 372.748H662.43C662.855 372.748 663.201 372.402 663.201 371.977V366.652C663.201 366.448 663.12 366.253 662.976 366.108L661.308 364.435C661.163 364.29 660.967 364.208 660.762 364.208H655.432C655.006 364.208 654.661 364.553 654.661 364.979V371.977C654.661 372.402 655.006 372.748 655.432 372.748Z" fill="#C7E8EF"/>
<path d="M973.222 366.438V357.732H971.618V366.438H973.222ZM980.837 363.814L976.832 357.732H975.14V366.438H976.732V360.356L980.737 366.438H982.429V357.732H980.837V363.814ZM983.688 357.732V359.212H986.225V366.438H987.842V359.212H990.392V357.732H983.688ZM995.031 366.538C997.183 366.538 998.526 365.22 998.526 362.956V357.732H996.921V362.894C996.921 364.324 996.175 365.045 995.031 365.045C993.874 365.045 993.14 364.324 993.14 362.894V357.732H991.536V362.956C991.536 365.22 992.879 366.538 995.031 366.538ZM1001.95 366.438V357.732H1000.34V366.438H1001.95ZM1003.21 357.732V359.212H1005.74V366.438H1007.36V359.212H1009.91V357.732H1003.21ZM1012.76 366.438V357.732H1011.15V366.438H1012.76ZM1017.97 364.685L1015.55 357.732H1013.84L1016.97 366.438H1018.94L1022.07 357.732H1020.39L1017.97 364.685ZM1024.74 362.72H1028.27V361.302H1024.74V359.162H1028.98V357.732H1023.13V366.438H1029.06V365.008H1024.74V362.72ZM973.222 382.438V373.732H971.618V382.438H973.222ZM980.837 379.814L976.832 373.732H975.14V382.438H976.732V376.356L980.737 382.438H982.429V373.732H980.837V379.814ZM983.688 373.732V375.212H986.225V382.438H987.842V375.212H990.392V373.732H983.688ZM993.24 378.72H996.772V377.302H993.24V375.162H997.481V373.732H991.635V382.438H997.568V381.008H993.24V378.72ZM1006 382.438L1003.81 379.08C1005.01 378.732 1005.76 377.787 1005.76 376.518C1005.76 374.889 1004.53 373.732 1002.71 373.732H999.13V382.438H1000.73V379.292H1002.15L1004.15 382.438H1006ZM1002.64 375.162C1003.62 375.162 1004.14 375.697 1004.14 376.518C1004.14 377.339 1003.62 377.861 1002.64 377.861H1000.73V375.162H1002.64ZM1013.26 373.732H1007.41V382.438H1009.02V378.869H1012.77V377.438H1009.02V375.187H1013.26V373.732ZM1021.68 382.438L1018.44 373.732H1016.41L1013.16 382.438H1014.79L1015.55 380.349H1019.26L1020.02 382.438H1021.68ZM1017.41 375.212L1018.77 378.993H1016.04L1017.41 375.212ZM1026.47 382.538C1028.67 382.538 1030.33 381.12 1030.51 379.055H1028.9C1028.69 380.312 1027.75 381.07 1026.49 381.07C1024.99 381.07 1023.78 379.951 1023.78 378.085C1023.78 376.269 1024.94 375.1 1026.49 375.1C1027.7 375.1 1028.64 375.797 1028.88 377.115H1030.5C1030.33 375.025 1028.63 373.632 1026.49 373.632C1024.03 373.632 1022.12 375.448 1022.12 378.098C1022.12 380.722 1023.98 382.538 1026.47 382.538ZM1033.6 378.72H1037.14V377.302H1033.6V375.162H1037.84V373.732H1032V382.438H1037.93V381.008H1033.6V378.72Z" fill="#C7E8EF"/>
<path d="M935.6 367.258H946.067C946.77 367.258 947.339 366.688 947.339 365.986V358.011C947.339 357.675 947.205 357.352 946.968 357.114L944.484 354.621C944.245 354.382 943.921 354.247 943.583 354.247H935.6C934.897 354.247 934.328 354.816 934.328 355.519V365.986C934.328 366.688 934.897 367.258 935.6 367.258Z" fill="#46B2C8"/>
<path d="M934.683 368.74H924.215C923.513 368.74 922.944 369.31 922.944 370.012V377.987C922.944 378.323 923.077 378.646 923.315 378.884L925.799 381.377C926.038 381.616 926.362 381.751 926.7 381.751H934.683C935.385 381.751 935.955 381.182 935.955 380.479V370.012C935.955 369.31 935.385 368.74 934.683 368.74Z" fill="#C7E8EF"/>
<path d="M931.748 367.257H923.897C923.371 367.257 922.944 366.83 922.944 366.303V360.322C922.944 360.07 923.044 359.828 923.222 359.649L925.085 357.779C925.264 357.6 925.507 357.499 925.761 357.499H931.748C932.275 357.499 932.702 357.926 932.702 358.453V366.303C932.702 366.83 932.275 367.257 931.748 367.257Z" fill="#C7E8EF"/>
<path d="M938.535 368.74H946.385C946.912 368.74 947.339 369.167 947.339 369.694V375.675C947.339 375.927 947.239 376.169 947.061 376.348L945.198 378.218C945.019 378.397 944.776 378.498 944.522 378.498H938.535C938.008 378.498 937.581 378.071 937.581 377.544V369.694C937.581 369.167 938.008 368.74 938.535 368.74Z" fill="#C7E8EF"/>
</svg>
