<svg width="27" height="26" viewBox="0 0 27 26" fill="none" xmlns="http://www.w3.org/2000/svg">
<g clip-path="url(#clip0_3182_17827)">
<path d="M0.5 25.9969L6.72649 7.50635L19.0242 19.7581L0.5 25.9969Z" fill="#FFEA84"/>
<path d="M0.5 25.997L19.0242 19.7581L12.87 13.627L0.5 25.997Z" fill="#FFDC40"/>
<path d="M17.8715 19.9514C17.2022 19.9514 16.4406 19.79 15.6116 19.4655C13.9515 18.816 12.1498 17.5707 10.5382 15.959C8.92663 14.3474 7.68137 12.5457 7.03178 10.8857C6.30231 9.02159 6.39681 7.49881 7.29782 6.59785C8.19878 5.69684 9.72156 5.60239 11.5856 6.33181C13.2457 6.98135 15.0474 8.22666 16.659 9.8383C18.2707 11.4499 19.5159 13.2517 20.1655 14.9117C20.895 16.7757 20.8005 18.2985 19.8994 19.1995C19.3992 19.6998 18.7072 19.9514 17.8715 19.9514Z" fill="#FFDC40"/>
<path d="M16.6589 9.83838L10.5381 15.9591C12.1496 17.5707 13.9514 18.816 15.6114 19.4656C16.4405 19.79 17.202 19.9515 17.8714 19.9515C18.707 19.9515 19.3991 19.6999 19.8993 19.1996C20.8002 18.2987 20.8948 16.7759 20.1653 14.9118C19.5158 13.2517 18.2704 11.4499 16.6589 9.83838Z" fill="#FFAB15"/>
<path d="M9.32749 7.3728C8.90921 7.3728 8.58142 7.47421 8.37753 7.6781C7.94503 8.1106 7.97357 9.10165 8.45385 10.3291C9.02834 11.7972 10.1521 13.413 11.6179 14.879C13.0839 16.3449 14.6997 17.4686 16.1678 18.043C17.3954 18.5234 18.3863 18.5519 18.8188 18.1193C19.2513 17.6868 19.2228 16.6958 18.7425 15.4683C18.168 14.0002 17.0443 12.3844 15.5784 10.9185C14.1125 9.45255 12.4967 8.32886 11.0285 7.75442C10.3796 7.50047 9.79666 7.3728 9.32749 7.3728Z" fill="#FFAB15"/>
<path d="M18.7428 15.4684C18.1683 14.0002 17.0445 12.3844 15.5787 10.9185L11.6182 14.8789C13.0841 16.3448 14.6999 17.4685 16.1681 18.043C17.3956 18.5233 18.3865 18.5518 18.819 18.1193C19.2517 17.6869 19.2231 16.6958 18.7428 15.4684Z" fill="#FF9400"/>
<path d="M14.2041 13.3728L13.124 12.2927C14.1057 11.311 15.0982 11.2789 15.8958 11.2532C16.5845 11.231 17.0822 11.2149 17.6367 10.6603C18.1913 10.1058 18.2073 9.60819 18.2295 8.91955C18.2552 8.12203 18.2873 7.12946 19.2689 6.14781C20.2505 5.16615 21.243 5.13411 22.0407 5.10842C22.7293 5.08623 23.2269 5.07018 23.7814 4.5157C24.336 3.96117 24.352 3.46356 24.3742 2.77487C24.3999 1.97735 24.4319 0.984826 25.4136 0.00317383L26.4937 1.08329C25.9392 1.63777 25.9232 2.13543 25.9009 2.82407C25.8752 3.62159 25.8432 4.61416 24.8616 5.59581C23.8799 6.57747 22.8874 6.60951 22.0898 6.63521C21.4012 6.6574 20.9036 6.67344 20.349 7.22792C19.7945 7.78246 19.7785 8.28006 19.7563 8.96876C19.7306 9.76628 19.6985 10.7588 18.7169 11.7405C17.7352 12.7222 16.7426 12.7542 15.945 12.78C15.2563 12.8022 14.7587 12.8182 14.2041 13.3728Z" fill="#115766"/>
<path d="M11.66 10.4039C11.4687 9.74189 11.3304 9.26363 11.6869 8.56509C12.0433 7.86659 12.5117 7.69784 13.1599 7.46425C13.9106 7.19379 14.8449 6.85716 15.4758 5.62059C16.1067 4.38406 15.8311 3.42998 15.6095 2.66339C15.4182 2.00146 15.2799 1.52315 15.6363 0.824652L14.2757 0.130371C13.6447 1.36695 13.9204 2.32097 14.142 3.08757C14.3333 3.7495 14.4716 4.22781 14.1152 4.9263C13.7588 5.6248 13.2904 5.79355 12.6421 6.02714C11.8914 6.2976 10.9572 6.63423 10.3262 7.8708C9.69523 9.10743 9.97092 10.0615 10.1925 10.828C10.3838 11.49 10.522 11.9682 10.1657 12.6667C10.1059 12.7839 10.0418 12.8873 9.97255 12.9809C10.2725 13.3848 10.6017 13.787 10.9569 14.1821C11.1774 13.9471 11.3662 13.6748 11.5263 13.3611C12.1572 12.1244 11.8815 11.1704 11.66 10.4039Z" fill="white"/>
<path d="M19.5499 16.4496C20.1747 16.9458 20.9528 17.5635 22.3359 17.4498C23.7196 17.3361 24.386 16.5998 24.9215 16.0083C25.3838 15.4974 25.718 15.1283 26.4995 15.0642L26.3744 13.5417C24.9908 13.6554 24.3244 14.3916 23.7889 14.9832C23.3266 15.4941 22.9924 15.8632 22.2108 15.9274C21.4293 15.9916 21.0394 15.682 20.4998 15.2534C19.875 14.7572 19.0976 14.1394 17.7138 14.2532C16.3302 14.3669 15.6637 15.1031 15.1282 15.6947C14.6874 16.1819 14.3621 16.5394 13.6553 16.6273C14.1949 17.0185 14.7365 17.3563 15.2673 17.6319C15.6832 17.3573 15.9889 17.02 16.2607 16.7198C16.7231 16.2089 17.0573 15.8398 17.8389 15.7756C18.6206 15.7113 19.0103 16.021 19.5499 16.4496Z" fill="#FF5454"/>
<path d="M10.6785 4.48083C11.241 4.48083 11.6969 4.02489 11.6969 3.46246C11.6969 2.90003 11.241 2.44409 10.6785 2.44409C10.1161 2.44409 9.66016 2.90003 9.66016 3.46246C9.66016 4.02489 10.1161 4.48083 10.6785 4.48083Z" fill="#115766"/>
<path d="M24.6629 20.2833C25.2253 20.2833 25.6813 19.8274 25.6813 19.2649C25.6813 18.7025 25.2253 18.2466 24.6629 18.2466C24.1005 18.2466 23.6445 18.7025 23.6445 19.2649C23.6445 19.8274 24.1005 20.2833 24.6629 20.2833Z" fill="white"/>
<path d="M22.5926 12.3741C23.155 12.3741 23.611 11.9182 23.611 11.3558C23.611 10.7933 23.155 10.3374 22.5926 10.3374C22.0302 10.3374 21.5742 10.7933 21.5742 11.3558C21.5742 11.9182 22.0302 12.3741 22.5926 12.3741Z" fill="#FF5454"/>
<path d="M20.3016 3.46252C20.864 3.46252 21.3199 3.00658 21.3199 2.44415C21.3199 1.88172 20.864 1.42578 20.3016 1.42578C19.7391 1.42578 19.2832 1.88172 19.2832 2.44415C19.2832 3.00658 19.7391 3.46252 20.3016 3.46252Z" fill="#FF5454"/>
</g>
<defs>
<clipPath id="clip0_3182_17827">
<rect width="26" height="26" fill="white" transform="translate(0.5)"/>
</clipPath>
</defs>
</svg>
