<svg width="26" height="26" viewBox="0 0 26 26" fill="none" xmlns="http://www.w3.org/2000/svg">
<path d="M12.9922 8L18.6087 13.6165L12.0789 20.1463C11.1735 21.0517 10.0116 21.6568 8.75064 21.8794L4.6662 22.6001C4.27837 22.6686 3.94037 22.3306 4.00889 21.9428L4.72958 17.8583C4.9522 16.5973 5.55697 15.4355 6.46264 14.5301L12.9922 8Z" fill="white"/>
<path d="M19.6087 23.2918H2.71218C2.41101 23.2918 2.16699 23.0513 2.16699 22.7502C2.16699 22.449 2.41101 22.2085 2.71218 22.2085H19.6087C19.9096 22.2085 20.1538 22.449 20.1538 22.7502C20.1538 23.0513 19.9098 23.2918 19.6087 23.2918Z" fill="#C7E8F0"/>
<path d="M8.66608 21.5499C8.59647 21.5499 8.5266 21.5234 8.47352 21.47L5.30639 18.3029C5.19995 18.1964 5.19995 18.0239 5.30639 17.9175C5.41283 17.811 5.58535 17.811 5.69179 17.9175L8.85864 21.0846C8.96508 21.191 8.96508 21.3636 8.85864 21.47C8.80556 21.5234 8.73568 21.5499 8.66608 21.5499Z" fill="#115766"/>
<path d="M19.4796 7.57581C19.3401 7.57581 19.2007 7.52245 19.0942 7.41602C18.8814 7.20314 18.8814 6.8581 19.0942 6.64522L22.9035 2.83568C23.1161 2.62281 23.4614 2.62281 23.6743 2.83568C23.8872 3.04856 23.8872 3.3936 23.6743 3.60647L19.865 7.41629C19.7586 7.52272 19.6191 7.57581 19.4796 7.57581Z" fill="white"/>
<path d="M21.3019 9.03051C21.1624 9.03051 21.0229 8.97715 20.9165 8.87072C20.7036 8.65784 20.7036 8.3128 20.9165 8.09993L22.4378 6.57811C22.6506 6.36524 22.9957 6.36524 23.2086 6.57811C23.4214 6.79099 23.4214 7.13603 23.2086 7.34891L21.6873 8.87072C21.5808 8.97743 21.4414 9.03051 21.3019 9.03051Z" fill="white"/>
<path d="M18.0245 5.75341C17.8851 5.75341 17.7456 5.70006 17.6391 5.59362C17.4263 5.38074 17.4263 5.0357 17.6391 4.82283L19.1604 3.30101C19.3733 3.08814 19.7183 3.08814 19.9312 3.30101C20.1441 3.51389 20.1441 3.85893 19.9312 4.07181L18.4099 5.59362C18.3038 5.70006 18.164 5.75341 18.0245 5.75341Z" fill="white"/>
<path d="M13.8633 8.75471L15.225 6.68934C15.3239 6.53929 15.5354 6.5179 15.6624 6.64492L19.9852 10.9677C20.1119 11.0944 20.0908 11.3057 19.9413 11.4048L17.8491 12.792" fill="#46B2C8"/>
<path d="M15.2162 17.0297C15.051 17.1949 15.1452 17.478 15.3768 17.5113L17.4831 17.8122C17.5713 17.8249 17.6607 17.7951 17.7238 17.732L21.005 14.4509C21.1702 14.2856 21.0759 14.0026 20.8444 13.9693L18.7381 13.6684C18.6498 13.6557 18.5604 13.6855 18.4973 13.7486" fill="#46B2C8"/>
<path d="M9.59978 11.4132C9.43457 11.5784 9.15155 11.4841 9.11824 11.2526L8.81734 9.14629C8.80461 9.058 8.83441 8.96863 8.89751 8.90552L12.1787 5.62438C12.3439 5.45917 12.6269 5.55342 12.6602 5.78498L12.9611 7.89125C12.9738 7.97954 12.944 8.06892 12.8809 8.13202" fill="#46B2C8"/>
<path d="M10.338 18.156C11.31 18.156 12.0979 17.3681 12.0979 16.3961C12.0979 15.4242 11.31 14.6362 10.338 14.6362C9.36605 14.6362 8.57812 15.4242 8.57812 16.3961C8.57812 17.3681 9.36605 18.156 10.338 18.156Z" fill="#C7E8F0"/>
<path d="M10.3378 18.4283C9.79507 18.4283 9.28482 18.2171 8.90078 17.8333C8.10859 17.0409 8.10859 15.7511 8.90078 14.959C9.66859 14.1914 11.0073 14.1914 11.7749 14.959C12.5671 15.7509 12.5671 17.0406 11.7749 17.8333C11.3911 18.2171 10.8808 18.4283 10.3378 18.4283ZM10.3378 14.9091C9.94051 14.9091 9.56703 15.0635 9.28618 15.3446C8.70632 15.9242 8.70632 16.8681 9.28618 17.4482C9.84789 18.0107 10.8278 18.0096 11.3895 17.4482C11.9693 16.8681 11.9693 15.9242 11.3895 15.3446C11.1086 15.0635 10.7351 14.9091 10.3378 14.9091Z" fill="#46B2C8"/>
</svg>
