<svg width="63" height="63" viewBox="0 0 63 63" fill="none" xmlns="http://www.w3.org/2000/svg">
<path d="M56.5504 17.0573C57.75 21.735 57.75 31.5 57.75 31.5C57.75 31.5 57.75 41.265 56.5504 45.9428C55.8836 48.5284 53.9333 50.5628 51.4631 51.2505C46.977 52.5 31.5 52.5 31.5 52.5C31.5 52.5 16.0309 52.5 11.5369 51.2505C9.05625 50.5522 7.1085 48.5205 6.44963 45.9428C5.25 41.265 5.25 31.5 5.25 31.5C5.25 31.5 5.25 21.735 6.44963 17.0573C7.11638 14.4716 9.06675 12.4372 11.5369 11.7495C16.0309 10.5 31.5 10.5 31.5 10.5C31.5 10.5 46.977 10.5 51.4631 11.7495C53.9437 12.4477 55.8915 14.4795 56.5504 17.0573ZM26.25 40.6875L42 31.5L26.25 22.3125V40.6875Z" fill="#115766"/>
</svg>
