<svg width="40" height="41" viewBox="0 0 40 41" fill="none" xmlns="http://www.w3.org/2000/svg">
<path d="M22.9206 19.0199H37.9528C38.7973 19.0199 39.4818 18.3354 39.4818 17.4909V6.06486C39.4818 5.66025 39.3214 5.27214 39.0358 4.98555L35.4418 1.37935C35.155 1.09149 34.7653 0.929688 34.3589 0.929688H22.9206C22.0761 0.929688 21.3916 1.61423 21.3916 2.45866V17.4909C21.3916 18.3354 22.0761 19.0199 22.9206 19.0199Z" fill="#46B2C8"/>
<rect width="18.0902" height="18.0902" rx="1.52897" transform="matrix(-1 0 0 1 18.3765 0.929688)" fill="#46B2C8"/>
<rect width="18.0902" height="18.0902" rx="1.52897" transform="matrix(-1 0 0 1 18.3765 22.0361)" fill="#46B2C8"/>
<rect width="18.0902" height="18.0902" rx="1.52897" transform="matrix(-1 0 0 1 39.4817 22.0361)" fill="#46B2C8"/>
<path d="M11.7218 29.473H26.7541C27.5985 29.473 28.2831 28.7885 28.2831 27.9441V16.518C28.2831 16.1134 28.1227 15.7253 27.8371 15.4387L24.2431 11.8325C23.9562 11.5446 23.5665 11.3828 23.1601 11.3828H11.7218C10.8774 11.3828 10.1929 12.0674 10.1929 12.9118V27.9441C10.1929 28.7885 10.8774 29.473 11.7218 29.473Z" fill="#C2E2E9"/>
<path fill-rule="evenodd" clip-rule="evenodd" d="M23.7209 17.2722C23.9992 17.5506 23.9992 18.0018 23.7209 18.2801L18.4157 23.5853C18.1374 23.8636 17.6861 23.8636 17.4078 23.5853L14.7552 20.9327C14.4769 20.6544 14.4769 20.2031 14.7552 19.9248C15.0335 19.6465 15.4848 19.6465 15.7631 19.9248L17.9117 22.0734L22.7129 17.2722C22.9913 16.9939 23.4425 16.9939 23.7209 17.2722Z" fill="#46B2C8"/>
</svg>
