<svg width="38" height="41" viewBox="0 0 38 41" fill="none" xmlns="http://www.w3.org/2000/svg">
<path d="M11.0769 33.2473H30.5827C31.3715 33.2473 32.011 32.6078 32.011 31.8189V17.0419C32.011 16.6639 31.8612 16.3014 31.5944 16.0336L26.8816 11.3048C26.6136 11.0359 26.2496 10.8848 25.8699 10.8848H11.0769C10.288 10.8848 9.64848 11.5243 9.64848 12.3131V31.8189C9.64848 32.6078 10.288 33.2473 11.0769 33.2473Z" fill="#C2E2E9"/>
<path d="M23.0645 22.7004H35.6728C36.4616 22.7004 37.1011 22.0609 37.1011 21.272V11.6755C37.1011 11.2975 36.9513 10.9349 36.6845 10.6672L33.683 7.65543C33.415 7.38651 33.0509 7.23535 32.6713 7.23535H23.0645C22.2756 7.23535 21.6361 7.87486 21.6361 8.66373V21.272C21.6361 22.0609 22.2756 22.7004 23.0645 22.7004Z" fill="#46B2C8"/>
<path d="M4.56106 40.1262H17.1694C17.9582 40.1262 18.5977 39.4867 18.5977 38.6978V29.1012C18.5977 28.7232 18.4479 28.3607 18.1811 28.0929L15.1796 25.0812C14.9116 24.8123 14.5475 24.6611 14.1678 24.6611H4.56105C3.77218 24.6611 3.13268 25.3006 3.13268 26.0895V38.6978C3.13268 39.4867 3.77218 40.1262 4.56106 40.1262Z" fill="#46B2C8"/>
<path fill-rule="evenodd" clip-rule="evenodd" d="M33.531 12.0366C33.7894 12.295 33.7894 12.714 33.531 12.9725L28.6051 17.8984C28.3467 18.1568 27.9277 18.1568 27.6692 17.8984L25.2063 15.4354C24.9478 15.177 24.9478 14.758 25.2063 14.4996C25.4647 14.2411 25.8837 14.2411 26.1421 14.4996L28.1372 16.4946L32.5951 12.0366C32.8536 11.7782 33.2726 11.7782 33.531 12.0366Z" fill="#C2E2E9"/>
<path fill-rule="evenodd" clip-rule="evenodd" d="M15.0276 29.4624C15.286 29.7208 15.286 30.1398 15.0276 30.3983L10.1017 35.3242C9.84325 35.5826 9.42425 35.5826 9.16581 35.3242L6.70286 32.8612C6.44442 32.6028 6.44442 32.1838 6.70286 31.9253C6.96129 31.6669 7.3803 31.6669 7.63873 31.9253L9.63375 33.9204L14.0917 29.4624C14.3502 29.2039 14.7692 29.2039 15.0276 29.4624Z" fill="#C2E2E9"/>
<path d="M2.13376 16.3957H14.7421C15.5309 16.3957 16.1705 15.7562 16.1705 14.9674V5.37077C16.1705 4.99278 16.0206 4.6302 15.7538 4.36247L12.7523 1.35074C12.4843 1.08182 12.1202 0.930664 11.7406 0.930664H2.13376C1.34489 0.930664 0.705383 1.57017 0.705383 2.35904V14.9674C0.705383 15.7562 1.34489 16.3957 2.13376 16.3957Z" fill="#C2E2E9"/>
<path fill-rule="evenodd" clip-rule="evenodd" d="M12.6003 5.73191C12.8587 5.99035 12.8587 6.40935 12.6003 6.66778L7.67439 11.5937C7.41596 11.8521 6.99696 11.8521 6.73852 11.5937L4.27557 9.13074C4.01713 8.87231 4.01713 8.4533 4.27557 8.19487C4.534 7.93643 4.953 7.93643 5.21144 8.19487L7.20646 10.1899L11.6644 5.73191C11.9229 5.47348 12.3419 5.47348 12.6003 5.73191Z" fill="#115766"/>
</svg>
