<svg width="639" height="605" viewBox="0 0 639 605" fill="none" xmlns="http://www.w3.org/2000/svg">
<path d="M549.152 127.933V455.122C549.152 460.111 547.448 464.917 544.393 468.766C543.606 469.759 542.73 470.687 541.766 471.539L527.9 483.837L524.791 486.593H524.785L524.768 486.611L499.09 509.362L490.382 517.083L477.885 528.153L477.127 528.834L468.107 536.819L461.638 542.56L459.599 544.37L459.335 544.605L457.872 545.903L456.432 547.173L452.348 550.792L447.912 554.729L444.263 557.966C444.251 557.966 444.251 557.966 444.251 557.966L443.846 558.325C443.846 558.331 443.834 558.331 443.834 558.331L442.835 559.224L419.855 579.589L413.926 584.842L404.126 593.533L403.462 594.12L402.145 595.284C398.144 598.797 393.009 600.725 387.685 600.725H110.934C98.8185 600.725 89 590.906 89 578.79V127.933C89 115.818 98.8185 105.993 110.934 105.993H527.212C539.334 105.993 549.152 115.818 549.152 127.933Z" fill="#AED9D6"/>
<path d="M387.415 602H367.654C359.252 559.124 342.482 536.22 333.363 530.885C330.737 529.351 326.712 527.171 322.029 524.697C305.412 515.925 280.504 503.503 280.504 503.503C280.504 503.503 279.946 502.886 277.613 500.971C274.634 498.521 268.753 493.949 257.43 485.829C255.767 484.636 253.993 483.367 252.089 482.021C236.741 471.151 222.463 454.211 213.726 442.747C213.708 442.718 213.696 442.706 213.696 442.706C208.214 435.514 204.918 430.485 204.918 430.485C195.481 420.584 173.735 392.298 170.397 387.938C170.251 387.756 170.104 387.568 169.963 387.374L171.578 384.354L177.066 374.106C177.066 374.106 175.962 365.416 174.469 353.47C174.058 350.168 173.617 346.619 173.159 342.935C172.501 337.57 171.808 331.918 171.132 326.342C170.174 318.409 169.252 310.63 168.5 304.02C168.317 302.41 168.141 300.876 167.982 299.419C167.977 299.384 167.977 299.348 167.971 299.313C167.313 293.337 166.86 288.795 166.749 286.721C166.461 281.268 171.755 272.331 177.037 264.846C178.03 263.441 179.023 262.084 179.975 260.815C181.655 258.582 183.218 256.614 184.464 255.08C186.021 253.153 187.091 251.919 187.261 251.713C187.284 251.695 187.29 251.684 187.29 251.684C187.296 251.684 187.296 251.684 187.296 251.684L197.397 250.849L209.889 249.821L254.045 246.19L311.199 241.483L314.543 246.813L328.892 269.693L329.385 270.48L336.36 273.777C336.395 273.794 336.424 273.806 336.46 273.824L344.033 277.396L344.997 277.855L345.279 277.984C344.927 277.631 338.31 270.98 340.579 262.824C340.579 262.824 337.082 261.726 337.541 257.977C337.541 257.977 331.242 256.214 329.849 249.827C329.849 249.827 325.431 241.419 321.635 229.814C318.956 221.623 316.582 211.846 316.306 202.303C316.241 200.265 316.276 198.226 316.423 196.222C316.423 196.204 316.429 196.187 316.429 196.169V196.146C316.464 195.676 316.505 195.205 316.552 194.741C316.552 194.741 318.462 176.556 333.98 176.808C337.247 176.855 341.119 177.725 345.708 179.758C345.708 179.758 345.732 179.899 345.784 180.157C346.466 183.524 351.255 207.298 351.737 208.173C351.748 208.197 351.766 208.203 351.772 208.185C352.007 207.521 384.43 238.369 384.43 237.488C384.43 237.488 413.11 283.084 429.797 298.872C432.558 301.487 434.556 304.813 435.502 308.497C435.514 308.538 435.526 308.585 435.538 308.626C436.489 312.357 437.476 317.552 437.829 324.021C437.835 324.085 437.835 324.15 437.841 324.215C438.593 338.387 446.09 395.418 446.466 399.672C446.843 403.92 452.842 436.507 471.968 467.684C477.185 476.187 486.992 491.94 498.82 510.637L490.112 518.357L477.614 529.427L476.856 530.109L467.837 538.094L461.368 543.835L459.329 545.645L459.064 545.88L457.601 547.178L456.162 548.447L452.078 552.067L447.642 556.004L443.993 559.241C443.981 559.241 443.981 559.241 443.981 559.241L443.576 559.6C443.576 559.606 443.564 559.606 443.564 559.606L442.565 560.499L419.585 580.864L413.656 586.117L403.855 594.808L403.191 595.395L401.875 596.559C397.874 600.072 392.738 602 387.415 602Z" fill="#D86E6C"/>
<path d="M334.086 176.796C334.086 176.796 318.398 177.072 316.435 196.163C314.473 215.253 328.956 251.301 328.956 251.301" stroke="#3C2F4B" stroke-width="4.11307" stroke-miterlimit="10" stroke-linecap="round" stroke-linejoin="round"/>
<path opacity="0.24" d="M315.777 264.169C315.777 264.169 316.958 264.727 318.838 265.62C326.224 269.105 344.41 277.642 344.41 277.137C344.41 276.502 356.614 296.057 356.614 296.057C356.614 296.057 361.814 298.125 358.612 305.752C355.403 313.379 359.082 313.696 359.082 313.696L353.999 333.65L352.636 357.876C352.636 357.876 360.997 377.196 342.741 378.148C324.485 379.1 306.81 271.155 306.07 272.424C305.324 273.694 315.777 264.169 315.777 264.169Z" fill="#3C2F4B"/>
<path opacity="0.24" d="M498.82 510.637L490.112 518.358L477.614 529.428L476.856 530.109L467.837 538.094L461.368 543.835L459.329 545.645L459.064 545.88L457.601 547.178L456.162 548.448L452.078 552.067L447.642 556.004L443.993 559.241C443.981 559.241 443.981 559.241 443.981 559.241L443.576 559.6C443.576 559.606 443.564 559.606 443.564 559.606L442.565 560.499L419.585 580.864L413.656 586.117L403.855 594.808L403.191 595.395L401.875 596.559C397.874 600.072 392.738 602 387.415 602H367.654C359.252 559.124 342.482 536.22 333.363 530.885C330.737 529.351 326.712 527.171 322.029 524.698C305.412 515.925 280.504 503.504 280.504 503.504C280.504 503.504 279.946 502.887 277.613 500.971C274.634 498.521 268.753 493.949 257.43 485.829C255.767 484.636 253.993 483.367 252.089 482.022C236.741 471.151 222.463 454.211 213.726 442.748C213.708 442.718 213.696 442.707 213.696 442.707C208.214 435.515 204.918 430.485 204.918 430.485C195.481 420.584 173.735 392.298 170.397 387.938C170.251 387.756 170.104 387.568 169.963 387.374L171.578 384.354C178.154 385.482 183.23 386.504 183.23 386.504C183.23 386.504 190.775 389.172 198.995 387.539C198.995 387.539 199.019 387.533 199.066 387.521L207.192 385.829L233.104 380.429L263.059 374.183L268.159 373.119L298.22 366.856L323.169 392.104L327.458 396.446L328.562 397.563L337.705 406.817L357.254 426.601C357.254 426.601 358.106 426.654 359.616 426.636C361.661 426.613 364.916 426.442 368.9 425.808C387.603 422.835 422.305 409.549 422.84 351.984C422.957 339.657 424.573 330.073 427.229 322.675C429.151 317.311 437.518 318.368 437.829 324.021C437.835 324.086 437.835 324.15 437.841 324.215C438.593 338.387 446.09 395.418 446.467 399.672C446.843 403.92 452.842 436.508 471.968 467.685C477.185 476.187 486.992 491.94 498.82 510.637Z" fill="#3C2F4B"/>
<path d="M213.696 442.706C213.696 442.706 254.709 502.598 322.029 524.691" stroke="#3C2F4B" stroke-width="4.11307" stroke-miterlimit="10" stroke-linecap="round" stroke-linejoin="round"/>
<path d="M342.283 522.429C342.236 520.966 360.451 467.513 415.871 447.741" stroke="#3C2F4B" stroke-width="4.11307" stroke-miterlimit="10" stroke-linecap="round" stroke-linejoin="round"/>
<path d="M352.177 519.503C352.7 518.405 397.268 475.206 422.846 463.119" stroke="#3C2F4B" stroke-width="4.11307" stroke-miterlimit="10" stroke-linecap="round" stroke-linejoin="round"/>
<path d="M396.881 501.012C396.881 501.012 423.745 475.546 447.26 470.628" stroke="#3C2F4B" stroke-width="4.11307" stroke-miterlimit="10" stroke-linecap="round" stroke-linejoin="round"/>
<path d="M343.951 277.354C344.04 276.549 353.887 298.507 360.404 299.388C360.404 299.388 357.795 320.494 357.425 324.19C357.054 327.886 350.72 338.615 350.538 345.119C350.35 351.63 354.263 375.903 354.263 375.903" stroke="#3C2F4B" stroke-width="4.11307" stroke-miterlimit="10" stroke-linecap="round" stroke-linejoin="round"/>
<path d="M180.445 200.458C179.587 200.458 155.332 194.8 147.347 194.259C139.361 193.718 128.797 199.917 130.225 214.748C131.652 229.578 151.342 238.198 153.91 240.084C156.478 241.971 187.296 251.683 187.296 251.683L180.445 200.458Z" fill="#D86E6C"/>
<path opacity="0.24" d="M130.407 210.812C130.407 210.812 167.63 238.522 189.817 221.059L187.296 251.684C187.296 251.684 125.953 235.296 130.407 210.812Z" fill="#3C2F4B"/>
<path d="M181.52 249.838C181.52 249.838 160.15 245.813 141.7 232.31C123.25 218.808 131.899 203.437 131.899 203.437" stroke="#3C2F4B" stroke-width="4.11307" stroke-miterlimit="10" stroke-linecap="round" stroke-linejoin="round"/>
<path opacity="0.24" d="M286.621 122.392C286.68 122.292 286.727 122.345 286.757 122.539C286.551 122.639 286.498 122.592 286.621 122.392Z" fill="#3C2F4B"/>
<path d="M224.59 69.686L210.759 74.6275L208.855 68.6577L192.179 16.363C191.157 13.4956 192.649 10.3462 195.517 9.32377C196.95 8.81257 198.455 8.92421 199.73 9.5353C201.005 10.1346 202.051 11.2275 202.562 12.6612L221.964 62.8877L222.34 63.8689L224.59 69.686Z" fill="#045865"/>
<path d="M239.444 94.7982L215.183 103.465L214.56 101.22L207.357 75.1906C206.704 72.8227 207.339 70.3901 208.861 68.6567C209.625 67.7812 210.618 67.0879 211.781 66.6707L218.773 64.1735C218.885 64.1323 218.997 64.0971 219.108 64.0677C219.185 64.0442 219.261 64.0207 219.343 63.9972C219.478 63.9619 219.614 63.9267 219.749 63.9032C219.866 63.8797 219.996 63.8562 220.113 63.8386C220.189 63.8268 220.266 63.815 220.342 63.8092C220.413 63.8033 220.477 63.7974 220.542 63.7857C221.153 63.7328 221.758 63.7622 222.346 63.8621C224.596 64.2557 226.606 65.7306 227.587 67.9575L239.339 94.5514L239.444 94.7982Z" fill="#045865"/>
<path opacity="0.24" d="M239.333 94.5577L214.554 101.221L207.351 75.1911C206.698 72.8231 207.333 70.3905 208.855 68.6572L192.179 16.3625C191.157 13.4951 192.649 10.3456 195.517 9.32324L212.298 55.4366C214.484 61.1068 216.153 62.8284 220.912 62.1585C221.206 62.1174 221.67 62.9048 221.964 62.8871L222.34 63.8684C224.59 64.2621 226.6 65.7369 227.581 67.9638L239.333 94.5577Z" fill="#3C2F4B"/>
<path d="M220.718 63.7744C220.659 63.7803 220.6 63.7862 220.536 63.792C220.471 63.7979 220.407 63.8038 220.336 63.8155C220.26 63.8273 220.183 63.839 220.107 63.8449C219.983 63.8625 219.86 63.8861 219.743 63.9096C219.607 63.9331 219.472 63.9683 219.337 64.0036C219.261 64.0271 219.178 64.0447 219.102 64.0741C218.99 64.1093 218.879 64.1446 218.767 64.1798L211.775 66.6771C210.612 67.0942 209.619 67.7876 208.855 68.6631C207.333 70.3906 206.704 72.829 207.35 75.197L214.554 101.227L215.177 103.471L239.438 94.8046" stroke="#3C2F4B" stroke-width="4.11307" stroke-miterlimit="10" stroke-linecap="round" stroke-linejoin="round"/>
<path d="M248.387 91.544C256.249 93.4125 262.871 98.6772 266.467 105.916C281.233 135.66 318.932 217.139 335.061 266.044C351.643 316.305 371.961 392.967 377.931 418.239C378.566 420.924 378.736 423.668 378.454 426.371C378.166 429.074 377.426 431.718 376.251 434.21C373.495 440.027 368.542 444.51 362.478 446.678L279.541 476.292C274.117 478.231 268.177 478.172 262.795 476.139L262.436 475.998C256.537 473.771 251.742 469.329 249.057 463.624C238.951 442.118 212.092 384.259 184.353 318.532C157.594 255.127 141.982 182.813 136.048 151.871C134.232 142.405 137.464 132.686 144.573 126.182C145.132 125.677 145.707 125.201 146.295 124.742C146.46 124.613 146.583 124.513 146.665 124.454C146.706 124.425 146.747 124.39 146.789 124.36C147.4 123.908 148.034 123.473 148.681 123.074C172.319 108.366 204.806 98.9005 224.725 94.0647C228.069 93.2539 231.059 92.5723 233.598 92.0141C233.615 92.0082 233.633 92.0082 233.657 92.0023C234.462 91.826 235.22 91.6674 235.925 91.5146C236.13 91.4735 236.33 91.4324 236.524 91.3912C238.481 90.9799 240.478 90.786 242.464 90.8154C244.45 90.833 246.436 91.0739 248.387 91.544Z" fill="#38B3C6"/>
<path d="M208.59 67.8118L192.179 16.3632C191.157 13.4958 192.649 10.3464 195.517 9.32399C198.384 8.3016 201.533 9.79406 202.556 12.6615" stroke="#3C2F4B" stroke-width="4.11307" stroke-miterlimit="10" stroke-linecap="round" stroke-linejoin="round"/>
<path d="M158.975 246.473C147.282 206.934 139.761 171.268 136.036 151.866" stroke="#3C2F4B" stroke-width="4.11307" stroke-miterlimit="10" stroke-linecap="round" stroke-linejoin="round"/>
<path d="M279.541 476.292C274.118 478.231 268.177 478.172 262.795 476.139L262.436 475.998C256.537 473.771 251.742 469.329 249.057 463.624C241.977 448.558 226.676 415.648 208.608 374.693" stroke="#3C2F4B" stroke-width="4.11307" stroke-miterlimit="10" stroke-linecap="round" stroke-linejoin="round"/>
<path d="M178.242 234.737C182.825 248.099 190.087 267.824 197.25 281.262C200.881 288.072 208.855 291.321 216.229 289.036C234.808 283.272 271.32 271.626 291.962 262.906C299.054 259.909 303.038 252.335 301.493 244.797C299.119 233.233 294.477 214.93 286.104 195.616C282.778 187.948 274.117 184.123 266.197 186.785C246.824 193.295 210.999 205.505 187.708 214.448C179.605 217.562 175.427 226.523 178.242 234.737Z" fill="#045865"/>
<path d="M191.597 269.505C193.454 273.706 195.358 277.702 197.256 281.262C200.887 288.072 208.861 291.322 216.235 289.036C226.065 285.987 240.925 281.286 255.797 276.25" stroke="#3C2F4B" stroke-width="4.11307" stroke-miterlimit="10" stroke-linecap="round" stroke-linejoin="round"/>
<path d="M274.858 130.513C262.325 107.015 256.496 87.7779 235.913 91.5091C235.172 91.6384 234.42 91.8029 233.645 91.9968C233.627 92.0027 233.609 92.0027 233.586 92.0085C230.912 92.6725 227.933 93.3482 224.714 94.0592C204.795 98.895 172.313 108.361 148.669 123.068C148.022 123.473 147.388 123.902 146.777 124.355C146.771 124.361 146.759 124.372 146.753 124.378C146.753 124.378 146.718 124.402 146.653 124.449C145.713 125.148 138.198 131.094 138.938 142.564C139.738 154.803 157.9 237.734 171.156 269.846C177.883 286.139 191.333 308.879 209.812 324.873C218.532 332.417 228.362 338.464 239.15 341.625C239.15 341.625 239.156 341.625 239.156 341.631C250.544 344.962 262.989 345.08 276.268 340.332C280.581 338.793 284.494 336.895 288.049 334.691C305.541 323.839 314.255 305.577 317.81 286.527C322.328 262.29 318.509 236.771 313.791 223.562C304.63 197.855 287.837 154.85 274.858 130.513ZM304.466 235.09C308.473 266.555 297.926 282.044 296.298 284.218C296.169 284.394 295.975 284.494 295.764 284.512C294.318 284.618 292.902 284.741 291.498 284.882C260.057 288.078 238.733 300.147 229.649 306.311C227.217 307.962 225.665 309.184 225.025 309.713C224.819 309.884 224.531 309.925 224.279 309.825L218.144 307.404C192.984 295.999 175.921 252.171 168.417 229.191C160.914 206.205 148.534 155.79 147.999 145.431L147.987 145.12C147.705 138.245 151.348 131.817 157.33 128.415C204.894 101.375 237.217 100.599 238.134 100.587C238.151 100.587 238.169 100.587 238.181 100.581C246.895 99.7117 251.695 106.998 251.695 106.998C251.695 106.998 259.774 117.316 287.685 178.53C292.955 190.111 302.21 217.328 304.466 235.09Z" fill="#C1E2E8"/>
<path d="M316.482 292.672C312.804 307.344 305.741 321.1 293.584 330.795C290.787 333.022 286.662 332.246 284.888 329.144L278.283 317.592C276.644 314.73 277.696 311.046 280.634 309.548C293.249 303.114 300.347 293.166 303.408 287.925C304.631 285.833 307.01 284.711 309.396 285.11L311.793 285.51C315.148 286.074 317.311 289.376 316.482 292.672Z" fill="#013B57"/>
<path d="M239.55 320.748C242.371 320.971 244.286 323.709 243.51 326.43L240.637 336.454C239.797 339.392 236.753 340.943 233.903 339.832C226.6 336.988 219.778 332.858 213.485 327.904C211.458 326.306 211.223 323.321 212.956 321.406L216.317 317.698C217.522 316.364 219.414 315.882 221.112 316.482C225.002 317.863 232.429 320.189 239.55 320.748Z" fill="#013B57"/>
<path d="M171.161 269.845C174.117 277.007 178.377 285.421 183.788 293.953" stroke="#3C2F4B" stroke-width="4.11307" stroke-miterlimit="10" stroke-linecap="round" stroke-linejoin="round"/>
<path d="M317.927 285.933C319.42 277.695 319.955 269.322 319.825 261.349" stroke="#3C2F4B" stroke-width="4.11307" stroke-miterlimit="10" stroke-linecap="round" stroke-linejoin="round"/>
<path d="M183.789 293.954C190.687 304.83 199.465 315.912 209.818 324.873C218.538 332.417 228.368 338.463 239.156 341.625C239.156 341.625 239.162 341.624 239.162 341.63C250.55 344.962 262.994 345.079 276.274 340.332C280.587 338.792 284.5 336.894 288.055 334.691C305.547 323.838 314.261 305.576 317.816 286.527C317.851 286.333 317.886 286.133 317.922 285.939" stroke="#3C2F4B" stroke-width="4.11307" stroke-miterlimit="10" stroke-linecap="round" stroke-linejoin="round"/>
<path d="M184.87 269.281C177.425 254.973 171.896 239.837 168.417 229.185" stroke="#3C2F4B" stroke-width="4.11307" stroke-miterlimit="10" stroke-linecap="round" stroke-linejoin="round"/>
<path d="M291.498 284.876C290.294 290.434 285.428 301.64 265.962 308.961C239.198 319.032 229.649 306.305 229.649 306.305C238.733 300.141 260.057 288.072 291.498 284.876Z" fill="#013B57"/>
<path d="M247.782 312.833C234.708 313.045 229.649 306.305 229.649 306.305C238.733 300.141 260.051 288.072 291.498 284.876" stroke="#3C2F4B" stroke-width="4.11307" stroke-miterlimit="10" stroke-linecap="round" stroke-linejoin="round"/>
<path d="M291.927 360.591L278.06 365.544C273.236 367.266 267.924 364.751 266.197 359.927C264.475 355.103 266.99 349.791 271.814 348.064L285.681 343.11C290.505 341.389 295.817 343.904 297.544 348.728C299.266 353.558 296.751 358.864 291.927 360.591Z" fill="#013B57"/>
<path d="M271.473 365.416C269.094 364.458 267.125 362.531 266.197 359.928" stroke="#3C2F4B" stroke-width="4.11307" stroke-miterlimit="10" stroke-linecap="round" stroke-linejoin="round"/>
<path d="M301.064 386.193L287.197 391.146C282.373 392.868 277.061 390.353 275.334 385.529C273.612 380.705 276.127 375.393 280.951 373.665L294.818 368.712C299.642 366.99 304.954 369.505 306.681 374.329C308.409 379.153 305.894 384.465 301.064 386.193Z" fill="#013B57"/>
<path d="M287.197 391.14C282.373 392.861 277.061 390.347 275.334 385.522" stroke="#3C2F4B" stroke-width="4.11307" stroke-miterlimit="10" stroke-linecap="round" stroke-linejoin="round"/>
<path d="M310.206 411.793L296.339 416.746C291.515 418.468 286.204 415.953 284.476 411.129C282.755 406.305 285.269 400.993 290.093 399.266L303.96 394.313C308.784 392.591 314.096 395.106 315.824 399.93C317.551 404.754 315.036 410.066 310.206 411.793Z" fill="#013B57"/>
<path d="M296.34 416.741C291.516 418.462 286.204 415.947 284.476 411.123C283.889 409.472 283.795 407.762 284.118 406.158" stroke="#3C2F4B" stroke-width="4.11307" stroke-miterlimit="10" stroke-linecap="round" stroke-linejoin="round"/>
<path d="M319.349 437.389L305.482 442.342C300.658 444.064 295.347 441.549 293.619 436.725C291.897 431.901 294.412 426.589 299.236 424.862L313.103 419.908C317.927 418.187 323.239 420.702 324.966 425.526C326.694 430.356 324.179 435.667 319.349 437.389Z" fill="#013B57"/>
<path d="M319.349 437.388L305.482 442.341C300.658 444.062 295.347 441.548 293.619 436.724C291.897 431.9 294.412 426.588 299.236 424.86" stroke="#3C2F4B" stroke-width="4.11307" stroke-miterlimit="10" stroke-linecap="round" stroke-linejoin="round"/>
<path d="M332.599 339.927L318.732 344.88C313.908 346.602 308.597 344.087 306.869 339.263C305.147 334.439 307.662 329.127 312.486 327.4L326.353 322.446C331.177 320.725 336.489 323.24 338.216 328.064C339.944 332.894 337.429 338.205 332.599 339.927Z" fill="#013B57"/>
<path d="M341.742 365.527L327.875 370.48C323.051 372.201 317.739 369.687 316.012 364.863C314.29 360.039 316.805 354.727 321.629 352.999L335.496 348.046C340.32 346.324 345.632 348.839 347.359 353.663C349.087 358.493 346.572 363.805 341.742 365.527Z" fill="#013B57"/>
<path d="M350.885 391.128L337.018 396.081C332.194 397.803 326.882 395.288 325.155 390.464C323.433 385.64 325.948 380.328 330.772 378.601L344.639 373.648C349.463 371.926 354.775 374.441 356.502 379.265C358.23 384.095 355.715 389.401 350.885 391.128Z" fill="#013B57"/>
<path d="M360.028 416.728L346.161 421.681C341.337 423.403 336.025 420.888 334.297 416.064C332.576 411.24 335.091 405.928 339.915 404.201L353.782 399.247C358.606 397.526 363.917 400.04 365.645 404.864C367.372 409.694 364.858 415 360.028 416.728Z" fill="#013B57"/>
<path d="M346.161 421.682C341.337 423.403 336.025 420.888 334.297 416.064" stroke="#3C2F4B" stroke-width="4.11307" stroke-miterlimit="10" stroke-linecap="round" stroke-linejoin="round"/>
<path d="M246.16 370.793L232.293 375.746C227.469 377.468 222.158 374.953 220.43 370.129C218.708 365.305 221.223 359.993 226.047 358.266" fill="#013B57"/>
<path d="M226.053 358.264L239.92 353.311C244.744 351.589 250.056 354.104 251.784 358.928C253.505 363.752 250.99 369.064 246.166 370.791" fill="#013B57"/>
<path d="M235.496 374.605L232.293 375.751C227.469 377.473 222.158 374.958 220.43 370.134" stroke="#3C2F4B" stroke-width="4.11307" stroke-miterlimit="10" stroke-linecap="round" stroke-linejoin="round"/>
<path d="M255.303 396.392L241.436 401.345C236.612 403.067 231.3 400.552 229.573 395.728C227.851 390.904 230.366 385.592 235.19 383.865L249.057 378.911C253.881 377.19 259.193 379.705 260.92 384.529C262.648 389.358 260.133 394.67 255.303 396.392Z" fill="#013B57"/>
<path d="M255.303 396.393L241.436 401.346C236.612 403.068 231.3 400.553 229.573 395.729C229.009 394.154 228.897 392.533 229.173 390.999" stroke="#3C2F4B" stroke-width="4.11307" stroke-miterlimit="10" stroke-linecap="round" stroke-linejoin="round"/>
<path d="M264.446 421.994L250.579 426.948C245.755 428.669 240.443 426.154 238.716 421.33C236.994 416.506 239.509 411.195 244.333 409.467L258.2 404.514C263.024 402.792 268.336 405.307 270.063 410.131C271.791 414.961 269.276 420.273 264.446 421.994Z" fill="#013B57"/>
<path d="M264.446 421.993L250.579 426.946C245.755 428.668 240.443 426.153 238.716 421.329C238.046 419.455 238.016 417.51 238.51 415.724" stroke="#3C2F4B" stroke-width="4.11307" stroke-miterlimit="10" stroke-linecap="round" stroke-linejoin="round"/>
<path d="M273.589 447.595L259.722 452.548C254.898 454.27 249.586 451.755 247.859 446.931C246.137 442.107 248.652 436.795 253.476 435.068L267.343 430.114C272.167 428.393 277.478 430.908 279.206 435.732C280.933 440.562 278.413 445.873 273.589 447.595Z" fill="#013B57"/>
<path d="M279.206 435.737C280.928 440.561 278.413 445.873 273.589 447.6L259.722 452.554C254.898 454.275 249.586 451.761 247.859 446.937C246.137 442.112 248.652 436.801 253.476 435.073" stroke="#3C2F4B" stroke-width="4.11307" stroke-miterlimit="10" stroke-linecap="round" stroke-linejoin="round"/>
<path opacity="0.24" d="M198.19 125.358C198.666 133.185 201.122 147.922 211.869 163.633C212.939 165.196 215.395 164.239 215.113 162.364C213.82 153.803 210.388 138.35 201.492 124.312C200.494 122.755 198.079 123.513 198.19 125.358Z" fill="#3C2F4B"/>
<path opacity="0.24" d="M239.873 176.273L200.535 190.322C197.996 191.226 195.2 189.904 194.295 187.366C193.39 184.828 194.712 182.031 197.25 181.126L236.589 167.077C239.127 166.172 241.924 167.494 242.829 170.032C243.734 172.571 242.412 175.368 239.873 176.273Z" fill="#3C2F4B"/>
<path d="M239.873 176.273L200.535 190.323C197.996 191.227 195.2 189.905 194.295 187.367C193.39 184.829 194.712 182.032 197.25 181.127" stroke="#3C2F4B" stroke-width="4.11307" stroke-miterlimit="10" stroke-linecap="round" stroke-linejoin="round"/>
<path d="M226.106 370.55C223.82 381.332 198.995 387.537 198.995 387.537C191.856 394.547 179.875 395.352 174.111 391.532C168.353 387.713 163.611 375.903 163.611 375.903C161.613 366.161 172.46 356.806 172.46 356.806C172.46 356.806 171.608 356.06 170.315 354.944C166.995 352.1 160.796 346.835 158.699 345.478C155.778 343.592 150.49 341.165 150.202 329.848C150.185 329.061 150.232 328.273 150.343 327.462C151.859 316.645 164.751 304.359 172.46 302.355C180.739 300.199 193.842 301.638 196.433 302.355C198.002 302.784 202.003 303.689 205.923 304.564C210.682 305.616 215.318 306.609 215.318 306.609C215.318 306.609 223.668 316.445 217.457 328.367C209.636 343.351 185.304 343.592 185.304 343.592C184.864 347.57 183.213 348.78 182.502 349.127C184.341 348.498 189.006 347.928 194.441 347.646C194.447 347.646 194.453 347.646 194.453 347.646C202.544 347.223 212.321 347.417 216.969 348.986C224.966 351.683 228.392 359.768 226.106 370.55Z" fill="#D86E6C"/>
<path opacity="0.24" d="M217.451 328.368C209.63 343.352 185.299 343.593 185.299 343.593C184.858 347.57 183.207 348.781 182.496 349.128C184.335 348.499 189 347.929 194.435 347.647C187.044 349.604 176.937 352.436 170.309 354.945C166.99 352.101 160.791 346.836 158.693 345.479C155.773 343.593 150.484 341.166 150.196 329.849C150.179 329.062 150.226 328.274 150.337 327.463C150.443 327.469 150.508 327.475 150.508 327.475C150.508 327.475 150.89 327.499 151.595 327.534C158.376 327.845 195.17 328.374 205.917 304.565C210.676 305.617 215.312 306.61 215.312 306.61C215.312 306.61 223.662 316.446 217.451 328.368Z" fill="#3C2F4B"/>
<path d="M150.514 333.592C151.736 341.753 156.137 343.827 158.699 345.484C161.619 347.371 172.46 356.813 172.46 356.813" stroke="#3C2F4B" stroke-width="4.11307" stroke-miterlimit="10" stroke-linecap="round" stroke-linejoin="round"/>
<path d="M167.995 341.954C167.995 341.954 205.612 351.35 217.451 328.364C223.603 316.412 215.318 306.605 215.318 306.605" stroke="#3C2F4B" stroke-width="4.11307" stroke-miterlimit="10" stroke-linecap="round" stroke-linejoin="round"/>
<path d="M198.995 387.538C198.995 387.538 223.82 381.339 226.106 370.557C228.392 359.775 224.966 351.69 216.975 348.993C208.984 346.296 185.874 347.647 182.161 349.263" stroke="#3C2F4B" stroke-width="4.11307" stroke-miterlimit="10" stroke-linecap="round" stroke-linejoin="round"/>
<path d="M172.46 356.808C172.46 356.808 161.619 366.156 163.617 375.904C163.617 375.904 166.243 382.456 169.969 387.374" stroke="#3C2F4B" stroke-width="4.11307" stroke-miterlimit="10" stroke-linecap="round" stroke-linejoin="round"/>
<path d="M191.286 285.639C183.295 298.848 167.318 299.653 164.745 299.383C162.177 299.118 143.345 287.525 143.057 277.331C143.057 277.149 143.057 276.955 143.057 276.773C143.028 266.778 149.673 257.03 151.912 255.502C154.198 253.933 172.513 246.906 185.116 255.502C186.615 256.531 187.849 257.735 188.853 259.075C196.274 268.929 191.286 285.639 191.286 285.639Z" fill="#D86E6C"/>
<path opacity="0.24" d="M191.286 285.64C183.295 298.849 167.319 299.654 164.745 299.383C162.177 299.119 143.345 287.526 143.057 277.331C143.057 277.149 143.057 276.955 143.057 276.773C149.386 282.085 161.654 289.312 169.528 274.194C174.281 265.063 181.732 260.844 188.853 259.069C196.275 268.929 191.286 285.64 191.286 285.64Z" fill="#3C2F4B"/>
<path d="M213.561 358.818C212.198 363.477 209.613 370.575 205.917 373.46C205.917 373.46 192.749 370.646 194.236 361.956C195.241 356.115 204.137 354.734 209.86 354.452C212.351 354.329 214.225 356.55 213.561 358.818Z" fill="white"/>
<path d="M205.923 373.453C205.923 373.453 192.755 370.639 194.242 361.948" stroke="#3C2F4B" stroke-width="4.11307" stroke-miterlimit="10" stroke-linecap="round" stroke-linejoin="round"/>
<path d="M203.661 312.428C202.597 317.164 200.165 324.82 194.982 329.744C194.982 329.744 185.293 330.026 182.314 322.517C179.335 315.007 185.487 311.012 188.495 309.607C190.346 308.744 195.94 308.409 199.971 308.279C202.339 308.203 204.154 310.236 203.661 312.428Z" fill="white"/>
<path d="M203.661 312.427C202.597 317.163 200.164 324.819 194.982 329.743C194.982 329.743 185.293 330.025 182.314 322.516" stroke="#3C2F4B" stroke-width="4.11307" stroke-miterlimit="10" stroke-linecap="round" stroke-linejoin="round"/>
<path d="M351.743 208.166C344.704 204.77 338.111 189.922 338.111 189.922C340.173 184.399 343.111 181.608 345.791 180.15C346.466 183.523 351.255 207.297 351.743 208.166Z" fill="white"/>
<path d="M337.547 257.977L347.647 251.701" stroke="#3C2F4B" stroke-width="4.11307" stroke-miterlimit="10" stroke-linecap="round" stroke-linejoin="round"/>
<path d="M340.579 262.825C340.579 262.825 353.664 260.727 356.155 257.978" stroke="#3C2F4B" stroke-width="4.11307" stroke-miterlimit="10" stroke-linecap="round" stroke-linejoin="round"/>
<path d="M360.404 299.388C360.404 299.388 371.926 299.141 375.452 294.435" stroke="#3C2F4B" stroke-width="4.11307" stroke-miterlimit="10" stroke-linecap="round" stroke-linejoin="round"/>
<path d="M357.26 325.084C357.26 325.084 389.13 336.389 393.085 334.233" stroke="#3C2F4B" stroke-width="4.11307" stroke-miterlimit="10" stroke-linecap="round" stroke-linejoin="round"/>
<path d="M143.057 279.624C143.057 279.624 152.623 299.026 167.912 299.425C167.912 299.425 184.435 297.199 189.817 287.821" stroke="#3C2F4B" stroke-width="4.11307" stroke-miterlimit="10" stroke-linecap="round" stroke-linejoin="round"/>
<path d="M174.111 259.163C174.111 259.163 168.376 282.502 162.677 286.58C162.677 286.58 150.931 282.655 153.181 272.871C155.426 263.088 164.821 257.201 174.111 259.163Z" fill="white"/>
<path d="M174.111 259.164C174.111 259.164 168.376 282.503 162.677 286.581C162.677 286.581 150.931 282.656 153.181 272.872" stroke="#3C2F4B" stroke-width="4.11307" stroke-miterlimit="10" stroke-linecap="round" stroke-linejoin="round"/>
<path d="M342.283 539.311C342.283 539.311 362.372 565.887 367.654 601.994" stroke="#3C2F4B" stroke-width="4.11307" stroke-miterlimit="10" stroke-linecap="round" stroke-linejoin="round"/>
<path d="M338.111 189.922C338.111 189.922 344.251 205.158 351.743 208.166" stroke="#3C2F4B" stroke-width="4.11307" stroke-miterlimit="10" stroke-linecap="round" stroke-linejoin="round"/>
</svg>
