<svg width="106" height="106" viewBox="0 0 106 106" fill="none" xmlns="http://www.w3.org/2000/svg">
<g clip-path="url(#clip0_566_16836)">
<path d="M61.1709 5.3V37.9834C61.1709 40.8543 58.7418 43.2834 55.8709 43.2834H27.825L7.0666 54.1041V43.2832H5.3C2.4291 43.2832 0 40.8541 0 37.9832V5.3C0 2.4291 2.4291 0 5.3 0H56.0916C58.9625 0 61.1709 2.4291 61.1709 5.3Z" fill="#F3705A"/>
<path d="M14.3539 27.3836C17.5249 27.3836 20.0955 24.813 20.0955 21.642C20.0955 18.471 17.5249 15.9004 14.3539 15.9004C11.1829 15.9004 8.6123 18.471 8.6123 21.642C8.6123 24.813 11.1829 27.3836 14.3539 27.3836Z" fill="white"/>
<path d="M30.6957 27.3836C33.8667 27.3836 36.4373 24.813 36.4373 21.642C36.4373 18.471 33.8667 15.9004 30.6957 15.9004C27.5247 15.9004 24.9541 18.471 24.9541 21.642C24.9541 24.813 27.5247 27.3836 30.6957 27.3836Z" fill="white"/>
<path d="M47.0375 27.3836C50.2085 27.3836 52.7791 24.813 52.7791 21.642C52.7791 18.471 50.2085 15.9004 47.0375 15.9004C43.8665 15.9004 41.2959 18.471 41.2959 21.642C41.2959 24.813 43.8665 27.3836 47.0375 27.3836Z" fill="white"/>
<path d="M44.8291 18.3293V50.7918C44.8291 53.6627 47.2582 56.0918 50.1291 56.0918H78.3957L99.1541 66.9127V56.0918H100.7C103.571 56.0918 106 53.6627 106 50.7918V18.3293C106 15.4584 103.571 13.0293 100.7 13.0293H49.9084C47.0375 13.0293 44.8291 15.4586 44.8291 18.3293Z" fill="#FFD15C"/>
<path d="M91.6459 40.4129C94.8169 40.4129 97.3875 37.8423 97.3875 34.6713C97.3875 31.5003 94.8169 28.9297 91.6459 28.9297C88.4749 28.9297 85.9043 31.5003 85.9043 34.6713C85.9043 37.8423 88.4749 40.4129 91.6459 40.4129Z" fill="white"/>
<path d="M75.3041 40.4129C78.4751 40.4129 81.0457 37.8423 81.0457 34.6713C81.0457 31.5003 78.4751 28.9297 75.3041 28.9297C72.1331 28.9297 69.5625 31.5003 69.5625 34.6713C69.5625 37.8423 72.1331 40.4129 75.3041 40.4129Z" fill="white"/>
<path d="M58.9623 40.4129C62.1333 40.4129 64.7039 37.8423 64.7039 34.6713C64.7039 31.5003 62.1333 28.9297 58.9623 28.9297C55.7913 28.9297 53.2207 31.5003 53.2207 34.6713C53.2207 37.8423 55.7913 40.4129 58.9623 40.4129Z" fill="white"/>
<path d="M76.8501 57.4172V90.1006C76.8501 92.9715 74.421 95.4006 71.5501 95.4006H54.1042L46.1542 106.001L38.2042 95.1797H20.9792C18.1083 95.1797 15.6792 92.7506 15.6792 89.8797V57.4172C15.6792 54.5463 18.1083 52.1172 20.9792 52.1172H71.7708C74.6417 52.1172 76.8501 54.5465 76.8501 57.4172Z" fill="#66C6B9"/>
<path d="M62.496 79.5008C65.667 79.5008 68.2376 76.9302 68.2376 73.7592C68.2376 70.5882 65.667 68.0176 62.496 68.0176C59.325 68.0176 56.7544 70.5882 56.7544 73.7592C56.7544 76.9302 59.325 79.5008 62.496 79.5008Z" fill="white"/>
<path d="M46.3754 79.5008C49.5464 79.5008 52.117 76.9302 52.117 73.7592C52.117 70.5882 49.5464 68.0176 46.3754 68.0176C43.2044 68.0176 40.6338 70.5882 40.6338 73.7592C40.6338 76.9302 43.2044 79.5008 46.3754 79.5008Z" fill="white"/>
<path d="M30.0336 79.5008C33.2046 79.5008 35.7752 76.9302 35.7752 73.7592C35.7752 70.5882 33.2046 68.0176 30.0336 68.0176C26.8626 68.0176 24.292 70.5882 24.292 73.7592C24.292 76.9302 26.8626 79.5008 30.0336 79.5008Z" fill="white"/>
</g>
<defs>
<clipPath id="clip0_566_16836">
<rect width="106" height="106" fill="white"/>
</clipPath>
</defs>
</svg>
