<svg width="106" height="106" viewBox="0 0 106 106" fill="none" xmlns="http://www.w3.org/2000/svg">
<g clip-path="url(#clip0_566_16790)">
<path d="M0.788086 16.697C0.788086 7.39327 8.39731 -0.13335 17.7319 0.00101089C26.774 0.131027 34.1263 7.54647 34.1837 16.5892C34.2156 21.6532 31.9925 26.1983 28.4601 29.2812C28.0872 29.6065 28.1411 30.2002 28.5669 30.4522L31.7132 32.3138C32.2218 32.6149 32.0084 33.3945 31.4173 33.3945L17.1698 33.391C8.0938 33.2223 0.788086 25.8133 0.788086 16.697Z" fill="#7ACAA6"/>
<path d="M31.7131 32.3138L28.5668 30.4522C28.1432 30.2017 28.0844 29.6088 28.4552 29.2854C32.028 26.1696 34.2627 21.5586 34.1817 16.4271C34.0413 7.55103 26.8574 0.26498 17.984 0.00640106C16.7255 -0.0302429 15.4978 0.0726509 14.314 0.300385C21.9841 1.77051 27.8292 8.53132 27.8801 16.5892C27.9047 20.4915 26.5905 24.0856 24.3697 26.9399C23.0287 28.6637 23.4645 31.1627 25.344 32.2749L25.4098 32.3138C25.9129 32.6113 25.7088 33.3763 25.1326 33.3929L31.4172 33.3945C32.0083 33.3945 32.2218 32.6149 31.7131 32.3138Z" fill="#57BE92"/>
<path d="M82.1485 60.6094H44.2688C34.8079 60.6094 29.6307 49.5837 35.6733 42.3039L36.0093 41.8989C38.6713 38.6916 40.1284 34.6549 40.1284 30.4867V23.1821C40.1284 10.3788 50.5073 -5.34058e-05 63.3105 -5.34058e-05C76.1137 -5.34058e-05 86.4926 10.3788 86.4926 23.1821V30.7333C86.4926 34.945 87.9803 39.0214 90.6931 42.2428C96.8113 49.5079 91.6467 60.6094 82.1485 60.6094Z" fill="#C59191"/>
<path d="M102.06 79.3813V104.424H24.3574V79.5697C24.3574 73.9426 27.7298 68.8641 32.914 66.682L45.458 61.2288L49.6813 59.3925C52.8861 57.9991 54.9585 54.8378 54.9585 51.3431V49.722H71.457V51.2603C71.457 54.7695 73.5499 57.9432 76.7775 59.3262L93.7437 66.5992C98.7994 68.8393 102.06 73.8495 102.06 79.3813Z" fill="white"/>
<path d="M45.4571 67.2003C49.7383 68.4796 56.0397 69.8439 63.7208 69.7096C70.9278 69.5837 76.8439 68.1823 80.9603 66.8676L83.0058 61.9968L76.7768 59.3272C73.55 57.9442 71.458 54.771 71.458 51.2604V49.7234H54.9594V51.344C54.9594 54.8381 52.8871 57.9995 49.6824 59.3926L44.6377 61.5861L45.4571 67.2003Z" fill="#FFCEBF"/>
<path d="M93.743 66.5986L80.9627 61.1208L80.9604 61.121V104.424H102.061V79.3817C102.061 73.8507 98.7999 68.8393 93.743 66.5986Z" fill="#8795DE"/>
<path d="M45.458 61.2288V104.424H24.3574V79.5697C24.3574 73.9426 27.7298 68.8641 32.914 66.682L45.458 61.2288Z" fill="#8795DE"/>
<path d="M68.9274 58.7793C70.8255 58.7793 72.6341 58.3982 74.2829 57.7104C72.5144 56.078 71.4577 53.7551 71.4577 51.261V49.724H54.9592V51.3446C54.9592 52.6069 54.6876 53.825 54.1909 54.9329C56.6892 57.3143 60.0689 58.7793 63.7928 58.7793H68.9274Z" fill="#FFB09E"/>
<path d="M79.6978 24.9038V38.5524C79.6978 46.2413 73.4647 52.4746 65.7756 52.4746H60.641C52.952 52.4746 46.7188 46.2413 46.7188 38.5524V24.9038C46.7188 19.9018 50.7737 15.8466 55.7757 15.8466H70.6406C75.6427 15.8466 79.6978 19.9018 79.6978 24.9038Z" fill="#FFCEBF"/>
<path d="M79.6979 32.0065C79.6917 32.0253 79.6843 32.0435 79.6785 32.0628C79.1752 33.8008 77.8545 37.0839 74.6625 39.5453C73.176 40.6914 71.4809 41.5198 69.6236 42.0071C68.7816 42.228 68.2785 43.0895 68.4992 43.9313C68.6851 44.6389 69.3236 45.1074 70.0225 45.1074C70.1548 45.1074 70.2896 45.0907 70.4233 45.0555C72.691 44.4604 74.7646 43.4462 76.5871 42.0411C77.8456 41.0707 78.8642 39.9987 79.6886 38.9207C79.6919 38.7986 79.6979 38.677 79.6979 38.5541V32.0065Z" fill="#7A6D79"/>
<path d="M67.8956 46.3633H64.2027C62.5219 46.3633 61.1592 45.0006 61.1592 43.3197C61.1592 41.639 62.5219 40.2764 64.2027 40.2764H67.8956C69.5764 40.2764 70.9391 41.639 70.9391 43.3197C70.9391 45.0006 69.5764 46.3633 67.8956 46.3633Z" fill="#685E68"/>
<path d="M66.4988 12.2356C66.8524 7.77617 71.1218 4.81666 75.2077 3.2838C81.9673 7.33416 86.4926 14.7295 86.4926 23.1828V24.7765C86.1189 24.855 85.7471 24.9237 85.3794 24.9784C83.1283 25.3146 81.2112 25.1693 79.9017 24.9784C71.4627 23.8542 66.0716 17.6215 66.4988 12.2356Z" fill="#B98080"/>
<path d="M63.31 0.000816345C68.5455 0.000816345 73.3751 1.73698 77.2557 4.66419C75.3199 8.0328 70.8746 14.693 62.5386 19.6237C56.3507 23.2842 50.5157 24.5141 46.9223 24.9785H40.1279V23.1829C40.1279 10.3797 50.5068 0.000816345 63.31 0.000816345Z" fill="#C59191"/>
<path d="M89.2248 104.424H38.7807L35.9984 78.1772C35.8011 76.3156 37.2604 74.6933 39.1324 74.6933H88.8731C90.7451 74.6933 92.2047 76.3156 92.0069 78.1772L89.2248 104.424Z" fill="#EFEDEF"/>
<path d="M88.8726 74.6933H82.5693C84.4415 74.6933 85.9009 76.3156 85.7034 78.1772L82.9211 104.424H89.2244L92.0066 78.1772C92.2039 76.3156 90.7446 74.6933 88.8726 74.6933Z" fill="#E5E1E5"/>
<path d="M104.447 106H1.55273C0.695004 106 0 105.305 0 104.447C0 103.59 0.695004 102.895 1.55273 102.895H104.447C105.305 102.895 106 103.59 106 104.447C106 105.305 105.305 106 104.447 106Z" fill="#C9BFC8"/>
<path d="M68.4148 89.5585C68.4148 91.9954 66.4393 93.9707 64.0026 93.9707C61.5658 93.9707 59.5903 91.9954 59.5903 89.5585C59.5903 87.1215 61.5658 85.1462 64.0026 85.1462C66.4393 85.1462 68.4148 87.1215 68.4148 89.5585Z" fill="#C9BFC8"/>
<path d="M12.7581 16.6977C12.7581 17.5681 12.0527 18.2734 11.1824 18.2734C10.312 18.2734 9.60645 17.5681 9.60645 16.6977C9.60645 15.8274 10.312 15.1218 11.1824 15.1218C12.0527 15.1218 12.7581 15.8274 12.7581 16.6977Z" fill="white"/>
<path d="M19.0618 16.6977C19.0618 17.5681 18.3562 18.2734 17.4861 18.2734C16.6157 18.2734 15.9102 17.5681 15.9102 16.6977C15.9102 15.8274 16.6157 15.1218 17.4861 15.1218C18.3562 15.1218 19.0618 15.8274 19.0618 16.6977Z" fill="white"/>
<path d="M25.3647 16.6977C25.3647 17.5681 24.6592 18.2734 23.7888 18.2734C22.9187 18.2734 22.2129 17.5681 22.2129 16.6977C22.2129 15.8274 22.9187 15.1218 23.7888 15.1218C24.6592 15.1218 25.3647 15.8274 25.3647 16.6977Z" fill="white"/>
</g>
<defs>
<clipPath id="clip0_566_16790">
<rect width="106" height="106" fill="white"/>
</clipPath>
</defs>
</svg>
