<svg width="106" height="106" viewBox="0 0 106 106" fill="none" xmlns="http://www.w3.org/2000/svg">
<path d="M86.592 51.5712L83.8994 29.6978L78.8536 30.3189L78.8557 30.3154L69.0735 24.8102C68.0301 24.2231 66.8326 23.9676 65.6403 24.0777L50.1946 25.5062C48.2959 25.6818 46.5993 26.7652 45.6414 28.414L34.7549 47.1519C33.951 48.5355 34.582 50.3099 36.0791 50.8753L36.5244 51.0434C37.3811 51.367 38.2616 51.5544 39.1417 51.6277L37.7622 52.8291L35.0025 55.2335L27.1534 61.9289C25.7561 63.146 25.611 65.264 26.8281 66.6612L27.6244 67.5732C29.1875 69.3656 31.908 69.5518 33.7038 67.9883L36.7037 71.4291C37.679 72.5491 39.1079 73.0446 40.4808 72.8756C41.3058 72.7742 42.1107 72.4322 42.7829 71.8442L45.7795 75.2853C46.7583 76.4082 48.187 76.9003 49.5599 76.7314C50.3849 76.6297 51.19 76.291 51.8625 75.7033L53.491 77.1106C55.0545 78.9062 57.7782 79.0919 59.5739 77.5284L61.7877 75.5971L80.3989 61.1024L80.419 61.084L87.762 61.0768L86.592 51.5712Z" fill="#F29F5C"/>
<path d="M78.6158 55.4497L78.5957 55.4681L59.9845 69.9627L57.7707 71.8941C55.9751 73.4576 53.2512 73.2719 51.6877 71.4763L50.0592 70.0689C49.3868 70.6567 48.5814 70.9956 47.7566 71.0971C46.3838 71.266 44.9553 70.7739 43.9763 69.651L40.9797 66.2099C40.3073 66.7977 39.5023 67.1397 38.6775 67.2413C37.3047 67.4103 35.8758 66.915 34.9005 65.7948L31.9006 62.354C30.3632 63.6926 28.1496 63.7448 26.5631 62.608C25.7495 63.8348 25.8145 65.4977 26.8288 66.662L27.625 67.574C29.1881 69.3665 31.9087 69.5526 33.7044 67.9891L36.7043 71.43C37.6796 72.55 39.1086 73.0454 40.4814 72.8765C41.3064 72.775 42.1111 72.433 42.7836 71.8451L45.7801 75.2863C46.759 76.4093 48.1877 76.9014 49.5605 76.7324C50.3855 76.6308 51.1906 76.2921 51.8631 75.7043L53.4916 77.1117C55.0551 78.9073 57.7788 79.093 59.5746 77.5295L61.7883 75.5981L80.3995 61.1035L80.4196 61.0851L87.7626 61.0778L86.9502 54.4785L78.6158 55.4497Z" fill="#D37D42"/>
<path d="M82.0049 64.9103L72.0333 56.3123L69.2603 53.9232L67.2761 52.2144L58.745 44.8607L59.7303 36.4739C60.0636 33.6373 58.278 30.9817 55.5253 30.2201L36.9288 25.0743C34.9612 24.5298 32.8815 25.4429 31.9507 27.26L29.6121 31.825L19.5736 31.1436L17.0023 53.0317L15.8848 62.5437L25.6562 63.1936L25.6765 63.212L46.0901 80.8082L48.3146 82.7273C50.1189 84.2809 52.8416 84.0801 54.3951 82.2758L57.3722 78.8213C58.0478 79.4053 58.855 79.7397 59.6806 79.8368C61.0543 79.9983 62.4803 79.4981 63.4529 78.3698L66.4304 74.9122C67.106 75.4962 67.9128 75.8339 68.7384 75.9307C70.112 76.0922 71.5383 75.5889 72.5074 74.4633L75.488 71.0059C77.2923 72.5595 80.0118 72.3582 81.565 70.5571L82.3562 69.6405C83.5657 68.2369 83.4088 66.1198 82.0049 64.9103Z" fill="#F9C295"/>
<path d="M82.0053 64.9099L78.9679 62.291C79.9551 63.6001 79.9348 65.4623 78.8207 66.7554L77.9808 67.7283C76.332 69.6402 73.4452 69.8538 71.5298 68.2046L68.3655 71.8749C67.3368 73.0696 65.8227 73.6038 64.3644 73.4326C63.4881 73.3297 62.6316 72.9713 61.9144 72.3512L58.7535 76.0219C57.721 77.2196 56.2074 77.7504 54.7491 77.5792C53.8727 77.4763 53.0158 77.1212 52.2987 76.5012L49.1382 80.1685C48.5427 80.8602 47.7844 81.3262 46.9697 81.5664L48.3152 82.7272C50.1195 84.2808 52.8421 84.0799 54.3957 82.2757L57.3728 78.8212C58.0483 79.4052 58.8556 79.7395 59.6812 79.8366C61.0548 79.9979 62.4809 79.4979 63.4535 78.3696L66.431 74.912C67.1065 75.496 67.9133 75.8337 68.739 75.9306C70.1126 76.0921 71.5389 75.5888 72.508 74.4632L75.4886 71.0058C77.2929 72.5593 80.0124 72.3581 81.5655 70.5569L82.3568 69.6404C83.5661 68.2365 83.4092 66.1194 82.0053 64.9099Z" fill="#E59F6A"/>
<path d="M76.498 69.8535L71.034 65.1423C70.385 64.5825 69.4043 64.655 68.8441 65.3044C68.284 65.9539 68.3567 66.9344 69.0062 67.4944L74.4604 72.1973L75.4885 71.0048C75.8988 71.3582 76.3578 71.6159 76.8383 71.7896C77.193 71.1584 77.0673 70.3444 76.498 69.8535Z" fill="#E59F6A"/>
<path d="M67.7623 75.6943C68.1364 75.0597 68.0165 74.2298 67.4389 73.7316L62.5306 69.4997C61.8811 68.9399 60.9009 69.0124 60.3406 69.6618C59.7806 70.3113 59.8533 71.2918 60.5027 71.8518L65.411 76.0837C65.4131 76.0854 65.4152 76.0868 65.4172 76.0885L66.4313 74.9109C66.8356 75.2606 67.2877 75.52 67.7623 75.6943Z" fill="#E59F6A"/>
<path d="M26.1656 63.1716L24.9828 64.7334C23.6949 66.4342 24.0294 68.8571 25.7302 70.1452C27.431 71.4332 29.8538 71.0986 31.142 69.3978L32.3247 67.836C33.6127 66.1352 33.2781 63.7124 31.5774 62.4242C29.8766 61.1363 27.4535 61.4709 26.1656 63.1716Z" fill="#F29F5C"/>
<path d="M33.3694 66.4568L31.142 69.398C29.8541 71.0988 30.1886 73.5217 31.8894 74.8098C33.5901 76.0978 36.013 75.7632 37.3012 74.0624L39.5286 71.1212C40.8165 69.4204 40.482 66.9975 38.7812 65.7094C37.0803 64.4214 34.6574 64.756 33.3694 66.4568Z" fill="#F29F5C"/>
<path d="M40.3369 70.0545L37.3012 74.063C36.0132 75.7638 36.3478 78.1867 38.0486 79.4748C39.7493 80.7627 42.1722 80.4282 43.4603 78.7274L46.496 74.7189C47.784 73.0181 47.4494 70.5953 45.7486 69.3071C44.0479 68.019 41.625 68.3538 40.3369 70.0545Z" fill="#F29F5C"/>
<path d="M46.6722 74.4861L43.4604 78.7271C42.1724 80.4278 42.507 82.8507 44.2077 84.1389C45.9085 85.4268 48.3314 85.0922 49.6195 83.3915L52.8314 79.1505C54.1193 77.4497 53.7848 75.0268 52.084 73.7387C50.383 72.4507 47.9602 72.7853 46.6722 74.4861Z" fill="#F29F5C"/>
<path d="M78.8561 30.3154L69.0739 24.8102C68.0304 24.2231 66.833 23.9676 65.6407 24.0777L50.195 25.5062C48.2963 25.6818 46.5997 26.7652 45.6418 28.414L34.7553 47.1519C33.9514 48.5357 34.5824 50.3099 36.0794 50.8753L36.5248 51.0434C40.5153 52.5506 45.0219 51.2681 47.6208 47.8858L51.7918 42.4575C51.7918 42.4575 61.8181 54.0663 72.8569 40.5093" fill="#F29F5C"/>
<path d="M105.988 64.0025L100.872 22.441C100.822 22.0323 100.611 21.6603 100.286 21.4069C99.9618 21.1535 99.55 21.0396 99.1411 21.0897L87.1772 22.5625C84.0699 22.9451 81.8532 25.7843 82.2358 28.8914L86.3441 62.2647C86.6977 65.1377 89.1513 67.2492 91.9754 67.2492C92.2056 67.2492 92.4389 67.2351 92.673 67.2063L104.637 65.7335C105.488 65.6286 106.093 64.8536 105.988 64.0025Z" fill="#5C9CEE"/>
<path d="M105.988 64.0016L105.427 59.4395C105.172 59.8131 104.765 60.0802 104.281 60.1398L91.7399 61.6837C91.4944 61.7139 91.2499 61.7286 91.0085 61.7286C88.8968 61.7286 86.9836 60.6019 85.9253 58.8633L86.3439 62.2636C86.6975 65.1365 89.151 67.248 91.9751 67.248C92.2054 67.248 92.4387 67.2339 92.6728 67.2052L104.637 65.7323C105.488 65.6276 106.093 64.8527 105.988 64.0016Z" fill="#3580D3"/>
<path d="M18.8228 22.5626L6.8589 21.0898C6.44961 21.0395 6.03824 21.1535 5.71361 21.4069C5.38899 21.6603 5.17844 22.0324 5.12813 22.4411L0.0117874 64.0028C-0.09297 64.8539 0.51218 65.6288 1.36308 65.7336L13.327 67.2064C13.5613 67.2352 13.7942 67.2493 14.0246 67.2493C16.8485 67.2493 19.3023 65.1376 19.6559 62.2648L23.7642 28.8915C24.1468 25.7844 21.9301 22.9452 18.8228 22.5626Z" fill="#ED5575"/>
<path d="M0.0117906 64.0016L0.573464 59.4395C0.828112 59.8131 1.23472 60.0802 1.71876 60.1398L14.26 61.6837C14.5056 61.7139 14.7501 61.7286 14.9915 61.7286C17.1032 61.7286 19.0164 60.6019 20.0747 58.8633L19.6561 62.2636C19.3025 65.1365 16.849 67.248 14.0249 67.248C13.7946 67.248 13.5613 67.2339 13.3272 67.2052L1.36329 65.7323C0.511976 65.6276 -0.0929668 64.8527 0.0117906 64.0016Z" fill="#CC3A60"/>
<path d="M96.0626 60.3488C97.7203 60.3488 99.0641 59.0049 99.0641 57.3472C99.0641 55.6895 97.7203 54.3457 96.0626 54.3457C94.4049 54.3457 93.061 55.6895 93.061 57.3472C93.061 59.0049 94.4049 60.3488 96.0626 60.3488Z" fill="#EBEEF2"/>
<path d="M9.77008 60.3488C11.4278 60.3488 12.7716 59.0049 12.7716 57.3472C12.7716 55.6895 11.4278 54.3457 9.77008 54.3457C8.11238 54.3457 6.76855 55.6895 6.76855 57.3472C6.76855 59.0049 8.11238 60.3488 9.77008 60.3488Z" fill="#EBEEF2"/>
</svg>
