<svg width="106" height="103" viewBox="0 0 106 103" fill="none" xmlns="http://www.w3.org/2000/svg">
<path d="M76.273 37.7242V7.31274C76.273 6.65686 75.7411 6.125 75.0852 6.125H69.9409V35.5485C72.0572 36.2087 74.0728 37.1544 75.9446 38.3616C76.0574 38.1577 76.1668 37.9455 76.273 37.7242Z" fill="#FE9738"/>
<path d="M69.9411 83.0288V92.8868C69.9411 93.4275 69.5012 93.8675 68.9604 93.8675H6.125V99.0118C6.125 99.6677 6.65686 100.2 7.31274 100.2H75.0855C75.7413 100.2 76.2732 99.6679 76.2732 99.0118V80.0049C74.3105 81.3154 72.181 82.33 69.9411 83.0288Z" fill="#FE9738"/>
<path d="M62.504 84.1561C55.8616 84.1561 49.6169 81.5695 44.9198 76.8728C35.2241 67.1769 35.2241 51.4007 44.9198 41.705C49.6169 37.0081 55.8616 34.4214 62.504 34.4214C65.1387 34.4214 67.7102 34.8299 70.1482 35.6141V1.18774C70.1482 0.531863 69.6163 0 68.9605 0H1.18774C0.531656 0 0 0.531656 0 1.18774V92.8871C0 93.5429 0.531656 94.0748 1.18774 94.0748H68.9605C69.6163 94.0748 70.1482 93.5431 70.1482 92.8871V82.9636C67.7104 83.7477 65.1387 84.1561 62.504 84.1561Z" fill="#FFF3DE"/>
<path d="M11.1973 92.8871V1.18774C11.1973 0.531863 11.7289 0 12.385 0H1.18774C0.531656 0 0 0.531656 0 1.18774V92.8871C0 93.5429 0.531656 94.0748 1.18774 94.0748H12.385C11.7289 94.0746 11.1973 93.5429 11.1973 92.8871Z" fill="#FFE5C2"/>
<path d="M49.3628 14.9834H20.7856C19.9279 14.9834 19.2329 14.2882 19.2329 13.4307C19.2329 12.5731 19.9279 11.8779 20.7856 11.8779H49.3626C50.2203 11.8779 50.9153 12.5731 50.9153 13.4307C50.9153 14.2882 50.2203 14.9834 49.3628 14.9834Z" fill="#FE9738"/>
<path d="M58.687 27.249H30.1821C29.3244 27.249 28.6294 26.5538 28.6294 25.6963C28.6294 24.8388 29.3244 24.1436 30.1821 24.1436H58.687C59.5448 24.1436 60.2398 24.8388 60.2398 25.6963C60.2398 26.5538 59.5445 27.249 58.687 27.249Z" fill="#FFBD86"/>
<path d="M24.7185 27.249H11.4619C10.6042 27.249 9.90918 26.5538 9.90918 25.6963C9.90918 24.8388 10.6042 24.1436 11.4619 24.1436H24.7183C25.5761 24.1436 26.2711 24.8388 26.2711 25.6963C26.2713 26.5538 25.5761 27.249 24.7185 27.249Z" fill="#FFBD86"/>
<path d="M47.2852 35.0186H57.0502C57.946 34.8192 58.8563 34.6703 59.7776 34.5703C60.0627 34.2888 60.2397 33.8981 60.2397 33.4658C60.2397 32.6083 59.5447 31.9131 58.687 31.9131H47.2852C46.4274 31.9131 45.7324 32.6083 45.7324 33.4658C45.7324 34.3233 46.4274 35.0186 47.2852 35.0186Z" fill="#FFBD86"/>
<path d="M41.5837 35.0186H11.4619C10.6042 35.0186 9.90918 34.3233 9.90918 33.4658C9.90918 32.6083 10.6042 31.9131 11.4619 31.9131H41.5837C42.4415 31.9131 43.1365 32.6083 43.1365 33.4658C43.1365 34.3233 42.4415 35.0186 41.5837 35.0186Z" fill="#FFBD86"/>
<path d="M44.9202 41.7061C45.6455 40.9811 46.4078 40.3066 47.2023 39.6836H11.4619C10.6042 39.6836 9.90918 40.3788 9.90918 41.2363C9.90918 42.0939 10.6042 42.7891 11.4619 42.7891H43.9016C44.229 42.4208 44.5672 42.0589 44.9202 41.7061Z" fill="#FFBD86"/>
<path d="M39.4362 50.0039H11.4619C10.6042 50.0039 9.90918 50.6991 9.90918 51.5566C9.90918 52.4142 10.6042 53.1094 11.4619 53.1094H38.424C38.6921 52.0574 39.029 51.0198 39.4362 50.0039Z" fill="#FE9738"/>
<path d="M37.6959 57.7744H11.4619C10.6042 57.7744 9.90918 58.4696 9.90918 59.3271C9.90918 60.1847 10.6042 60.8799 11.4619 60.8799H37.7004C37.6348 59.8458 37.6334 58.8085 37.6959 57.7744Z" fill="#FE9738"/>
<path d="M38.4435 65.5439H11.4619C10.6042 65.5439 9.90918 66.2392 9.90918 67.0967C9.90918 67.9542 10.6042 68.6494 11.4619 68.6494H39.4656C39.0546 67.6337 38.7151 66.5959 38.4435 65.5439Z" fill="#FFBD86"/>
<path d="M41.9675 73.3135H36.1201C35.2624 73.3135 34.5674 74.0087 34.5674 74.8662C34.5674 75.7237 35.2624 76.4189 36.1201 76.4189H44.4776C43.5449 75.438 42.7091 74.3985 41.9675 73.3135Z" fill="#FE9738"/>
<path d="M30.6568 76.4189H11.4619C10.6042 76.4189 9.90918 75.7237 9.90918 74.8662C9.90918 74.0087 10.6042 73.3135 11.4619 73.3135H30.6568C31.5145 73.3135 32.2096 74.0087 32.2096 74.8662C32.2096 75.7237 31.5145 76.4189 30.6568 76.4189Z" fill="#FE9738"/>
<path d="M50.5099 81.084H11.4619C10.6042 81.084 9.90918 81.7792 9.90918 82.6367C9.90918 83.4942 10.6042 84.1895 11.4619 84.1895H58.6866C58.9735 84.1895 59.2414 84.1102 59.472 83.9746C56.303 83.5915 53.2715 82.609 50.5099 81.084Z" fill="#FE9738"/>
<path d="M82.2878 74.3447C81.6187 75.2227 80.885 76.0666 80.0834 76.8682C79.2859 77.6657 78.4426 78.4009 77.5615 79.0744L84.2689 85.7817L88.9971 81.0536L82.2878 74.3447Z" fill="#E5E1E5"/>
<path d="M100.071 102.438L105.652 96.8562C106.116 96.3925 106.116 95.6403 105.652 95.1766L90.9521 80.4767C90.4883 80.013 89.7362 80.013 89.2724 80.4767L83.6911 86.0581C83.2273 86.5218 83.2273 87.274 83.6911 87.7377L98.3909 102.438C98.8547 102.901 99.6068 102.901 100.071 102.438Z" fill="#BAAFB9"/>
<path d="M90.4094 87.7377C89.9457 87.274 89.9457 86.5218 90.4094 86.0581L93.4714 82.9961L90.9521 80.4767C90.4883 80.013 89.7362 80.013 89.2724 80.4767L83.6911 86.0581C83.2273 86.5218 83.2273 87.274 83.6911 87.7377L98.3909 102.438C98.8547 102.901 99.6068 102.901 100.071 102.438L102.59 99.9182L90.4094 87.7377Z" fill="#AA9EA9"/>
<path d="M83.236 45.181C80.5661 46.5565 79.2732 48.439 78.0915 52.0989C78.0227 52.3118 77.8403 52.3875 77.6925 52.3875C77.5447 52.3875 77.3623 52.3118 77.2936 52.0989C75.7411 47.2906 73.9995 45.5491 69.1912 43.9963C68.9784 43.9276 68.9024 43.7452 68.9024 43.5976C68.9024 43.45 68.9782 43.2676 69.1912 43.1989C72.7933 42.0355 74.6742 40.7662 76.0439 38.181C66.3365 31.9407 53.2666 33.0655 44.7733 41.559C34.9812 51.3511 34.9812 67.2273 44.7733 77.0195C54.5655 86.8116 70.4417 86.8116 80.2338 77.0195C88.8942 68.3594 89.8937 54.9415 83.236 45.181Z" fill="#AA9EA9"/>
<path d="M78.0913 52.0989C78.0226 52.3117 77.8402 52.3875 77.6923 52.3875C77.5445 52.3875 77.3621 52.3117 77.2934 52.0989C75.7409 47.2906 73.9993 45.549 69.191 43.9963C68.9782 43.9276 68.9022 43.7452 68.9022 43.5976C68.9022 43.45 68.978 43.2676 69.191 43.1988C69.8949 42.9715 70.5313 42.7398 71.1129 42.4953C64.0179 38.8563 55.1015 40.0041 49.1599 45.9457C41.7904 53.3152 41.7904 65.2634 49.1599 72.6329C56.5294 80.0023 68.4776 80.0023 75.8471 72.6329C81.9969 66.483 83.0102 57.1465 78.896 49.9412C78.6138 50.5847 78.3499 51.2985 78.0913 52.0989Z" fill="#D8ECFE"/>
<path d="M58.1095 72.6329C50.74 65.2634 50.74 53.3152 58.1095 45.9457C60.6475 43.4077 63.7283 41.7444 66.9783 40.9544C60.7911 39.4507 53.9916 41.114 49.1599 45.9457C41.7904 53.3152 41.7904 65.2634 49.1599 72.6329C53.9914 77.4643 60.7909 79.1278 66.9783 77.6242C63.7283 76.8341 60.6475 75.1706 58.1095 72.6329Z" fill="#C4E2FF"/>
<path d="M78.1602 51.8912C81.1885 58.3158 80.0531 66.2312 74.7492 71.5351C67.9971 78.2874 57.0099 78.2872 50.2582 71.5351C43.5059 64.7828 43.5059 53.7961 50.2582 47.0439C53.6343 43.6679 58.0691 41.9798 62.5037 41.9798C64.7359 41.9798 66.9679 42.4085 69.0652 43.264C69.1006 43.2377 69.1418 43.2151 69.191 43.1992C70.6539 42.7267 71.8315 42.2363 72.8077 41.6479C69.7146 39.8343 66.1837 38.8662 62.5033 38.8662C57.048 38.8662 51.9194 40.9906 48.0618 44.8482C44.2044 48.7056 42.0801 53.8344 42.0801 59.2896C42.0801 64.7449 44.2044 69.8737 48.0618 73.7311C51.9194 77.5885 57.048 79.7131 62.5033 79.7131C67.9588 79.7131 73.0874 77.5887 76.945 73.7311C80.8024 69.8737 82.9269 64.7449 82.9269 59.2896C82.9269 55.344 81.815 51.5699 79.7405 48.3234C79.1372 49.2836 78.6377 50.4461 78.1602 51.8912Z" fill="#9B8E99"/>
<path d="M70.0669 52.5684H54.9087C54.051 52.5684 53.356 51.8731 53.356 51.0156C53.356 50.1581 54.051 49.4629 54.9087 49.4629H70.0669C70.9246 49.4629 71.6196 50.1581 71.6196 51.0156C71.6196 51.8731 70.9244 52.5684 70.0669 52.5684Z" fill="#8AC9FE"/>
<path d="M72.1031 58.5264H52.8726C52.0148 58.5264 51.3198 57.8312 51.3198 56.9736C51.3198 56.1161 52.0148 55.4209 52.8726 55.4209H72.1031C72.9608 55.4209 73.6558 56.1161 73.6558 56.9736C73.6558 57.8312 72.9608 58.5264 72.1031 58.5264Z" fill="#8AC9FE"/>
<path d="M72.1031 64.4834H52.8726C52.0148 64.4834 51.3198 63.7882 51.3198 62.9307C51.3198 62.0731 52.0148 61.3779 52.8726 61.3779H72.1031C72.9608 61.3779 73.6558 62.0731 73.6558 62.9307C73.6558 63.7882 72.9608 64.4834 72.1031 64.4834Z" fill="#8AC9FE"/>
<path d="M67.3522 70.4414H57.624C56.7663 70.4414 56.0713 69.7462 56.0713 68.8887C56.0713 68.0311 56.7663 67.3359 57.624 67.3359H67.3522C68.2099 67.3359 68.905 68.0311 68.905 68.8887C68.905 69.7462 68.2099 70.4414 67.3522 70.4414Z" fill="#8AC9FE"/>
<path d="M77.0965 35.0326C75.5618 39.7854 73.8803 41.4669 69.1274 43.0016C68.5513 43.1877 68.5513 44.0072 69.1274 44.1933C73.8803 45.728 75.5618 47.4095 77.0965 52.1623C77.2826 52.7385 78.102 52.7385 78.2882 52.1623C79.8229 47.4095 81.5044 45.728 86.2572 44.1933C86.8334 44.0072 86.8334 43.1877 86.2572 43.0016C81.5044 41.4669 79.8229 39.7854 78.2882 35.0326C78.1022 34.4566 77.2826 34.4566 77.0965 35.0326Z" fill="#FED402"/>
<path d="M73.6544 40.8145C72.5325 41.7063 71.0932 42.367 69.1274 43.0017C68.5513 43.1879 68.5513 44.0075 69.1274 44.1934C73.8803 45.7281 75.5618 47.4096 77.0965 52.1625C77.2826 52.7386 78.1022 52.7386 78.2882 52.1625C78.9179 50.2124 79.5728 48.78 80.4537 47.662C79.0865 43.815 77.4727 42.185 73.6544 40.8145Z" fill="#FAC600"/>
<path d="M91.5888 31.2365H90.0534V29.7012C90.0534 28.8436 89.3584 28.1484 88.5007 28.1484C87.6429 28.1484 86.9479 28.8436 86.9479 29.7012V31.2365H85.4126C84.5549 31.2365 83.8599 31.9317 83.8599 32.7892C83.8599 33.6468 84.5549 34.342 85.4126 34.342H86.9479V35.8773C86.9479 36.7349 87.6429 37.4301 88.5007 37.4301C89.3584 37.4301 90.0534 36.7349 90.0534 35.8773V34.342H91.5888C92.4465 34.342 93.1415 33.6468 93.1415 32.7892C93.1415 31.9317 92.4463 31.2365 91.5888 31.2365Z" fill="#FAC600"/>
</svg>
