<svg width="418" height="833" viewBox="0 0 418 833" fill="none" xmlns="http://www.w3.org/2000/svg">
<mask id="mask0" mask-type="alpha" maskUnits="userSpaceOnUse" x="0" y="0" width="418" height="833">
<rect width="418" height="833" fill="#C4C4C4"/>
</mask>
<g mask="url(#mask0)">
<mask id="mask1" mask-type="alpha" maskUnits="userSpaceOnUse" x="0" y="0" width="790" height="834">
<rect width="789.088" height="833.102" fill="#C4C4C4"/>
</mask>
<g mask="url(#mask1)">
<path d="M81.2318 795.922V779.165H72.4856H44.3398V803.642H72.6584L81.2318 795.922Z" stroke="#46B2C8" stroke-width="0.680618" stroke-miterlimit="10"/>
<path d="M115.098 803.691L112.333 787.169L103.704 788.614L59.7324 795.977L63.7753 820.121L107.914 812.722L115.098 803.691Z" stroke="#115766" stroke-width="0.680618" stroke-miterlimit="10"/>
<path d="M193.771 800.856L190.08 784.519L181.543 786.446L119.092 800.572L124.486 824.445L187.105 810.282L193.771 800.856Z" stroke="#115766" stroke-width="0.680618" stroke-miterlimit="10"/>
<path d="M145.368 828.416L147.763 811.838L139.103 810.585L86.4411 802.969L82.9414 827.193L135.776 834.834L145.368 828.416Z" stroke="#46B2C8" stroke-width="0.680618" stroke-miterlimit="10"/>
<path d="M96.7554 830.373L97.1319 813.622L88.3858 813.425L36.063 812.245L35.5137 836.717L88.0093 837.897L96.7554 830.373Z" stroke="#46B2C8" stroke-width="0.680618" stroke-miterlimit="10"/>
<path d="M184.167 827.341V810.584H175.421H147.275V835.062H175.594L184.167 827.341Z" stroke="#46B2C8" stroke-width="0.680618" stroke-miterlimit="10"/>
<path d="M218.027 835.111L215.268 818.589L206.64 820.034L162.668 827.397L166.705 851.541L210.849 844.142L218.027 835.111Z" stroke="#115766" stroke-width="0.680618" stroke-miterlimit="10"/>
<path d="M244.834 842.425L253.691 828.206L246.272 823.574L199.535 794.389L186.586 815.155L233.471 844.432L244.834 842.425Z" stroke="#46B2C8" stroke-width="0.680618" stroke-miterlimit="10"/>
<path d="M296.7 832.277L293.015 815.94L284.479 817.867L222.027 831.993L227.422 855.866L290.04 841.703L296.7 832.277Z" stroke="#115766" stroke-width="0.680618" stroke-miterlimit="10"/>
<path d="M146.213 764.087V747.336H137.46H109.314V771.814H137.639L146.213 764.087Z" stroke="#46B2C8" stroke-width="0.680618" stroke-miterlimit="10"/>
<path d="M180.074 771.863L177.309 755.334L168.68 756.78L124.715 764.149L128.752 788.287L172.89 780.893L180.074 771.863Z" stroke="#115766" stroke-width="0.680618" stroke-miterlimit="10"/>
<path d="M206.875 779.17L215.738 764.958L208.319 760.325L161.582 731.141L148.633 751.906L195.512 781.184L206.875 779.17Z" stroke="#46B2C8" stroke-width="0.680618" stroke-miterlimit="10"/>
<path d="M258.747 769.029L255.056 752.686L246.526 754.619L184.074 768.739L189.463 792.617L252.087 778.454L258.747 769.029Z" stroke="#115766" stroke-width="0.680618" stroke-miterlimit="10"/>
<path d="M249.148 795.507V778.756H240.396H212.25V803.234H240.569L249.148 795.507Z" stroke="#46B2C8" stroke-width="0.680618" stroke-miterlimit="10"/>
<path d="M283.01 803.284L280.245 786.755L271.616 788.201L227.65 795.569L231.687 819.708L275.825 812.314L283.01 803.284Z" stroke="#115766" stroke-width="0.680618" stroke-miterlimit="10"/>
<path d="M309.81 810.59L318.674 796.378L311.249 791.745L264.518 762.561L251.568 783.326L298.447 812.603L309.81 810.59Z" stroke="#46B2C8" stroke-width="0.680618" stroke-miterlimit="10"/>
<path d="M361.682 800.448L357.991 784.105L349.461 786.038L287.01 800.158L292.398 824.037L355.016 809.874L361.682 800.448Z" stroke="#115766" stroke-width="0.680618" stroke-miterlimit="10"/>
<path d="M313.286 828.009L315.681 811.425L307.021 810.177L254.359 802.555L250.859 826.78L303.694 834.427L313.286 828.009Z" stroke="#46B2C8" stroke-width="0.680618" stroke-miterlimit="10"/>
<path d="M31.267 836.711V819.96H22.5208H-5.625V844.438H22.6936L31.267 836.711Z" stroke="#46B2C8" stroke-width="0.680618" stroke-miterlimit="10"/>
<path d="M65.1333 844.481L62.3681 827.958L53.7392 829.404L9.76758 836.773L13.8104 860.911L57.9487 853.517L65.1333 844.481Z" stroke="#115766" stroke-width="0.680618" stroke-miterlimit="10"/>
<path d="M143.806 841.653L140.115 825.31L131.578 827.243L69.127 841.363L74.5216 865.235L137.14 851.078L143.806 841.653Z" stroke="#115766" stroke-width="0.680618" stroke-miterlimit="10"/>
<path d="M346.523 828.318V811.567H337.771H309.625V836.045H337.944L346.523 828.318Z" stroke="#46B2C8" stroke-width="0.680618" stroke-miterlimit="10"/>
<path d="M380.385 836.087L377.62 819.565L368.991 821.01L325.02 828.379L329.062 852.517L373.201 845.124L380.385 836.087Z" stroke="#115766" stroke-width="0.680618" stroke-miterlimit="10"/>
<path d="M407.185 843.401L416.049 829.189L408.624 824.55L361.887 795.372L348.943 816.131L395.822 845.408L407.185 843.401Z" stroke="#46B2C8" stroke-width="0.680618" stroke-miterlimit="10"/>
<path d="M459.058 833.258L455.367 816.915L446.83 818.848L384.379 832.968L389.774 856.84L452.392 842.683L459.058 833.258Z" stroke="#115766" stroke-width="0.680618" stroke-miterlimit="10"/>
<path d="M141.899 811.004L150.762 796.786L143.337 792.153L96.5999 762.969L83.6504 783.735L130.535 813.012L141.899 811.004Z" stroke="#46B2C8" stroke-width="0.680618" stroke-miterlimit="10"/>
<path d="M342.203 875.229L351.066 861.017L343.647 856.384L296.91 827.2L283.961 847.965L330.846 877.236L342.203 875.229Z" stroke="#46B2C8" stroke-width="0.680618" stroke-miterlimit="10"/>
<path d="M7.16256 768.945L4.3973 752.422L-4.23158 753.868L-48.2031 761.23L-44.1602 785.375L-0.0220221 777.981L7.16256 768.945Z" stroke="#115766" stroke-width="0.680618" stroke-miterlimit="10"/>
<path d="M33.9631 776.258L42.8265 762.039L35.4013 757.407L-11.3356 728.222L-24.2852 748.988L22.5998 778.265L33.9631 776.258Z" stroke="#46B2C8" stroke-width="0.680618" stroke-miterlimit="10"/>
<path d="M85.8351 766.111L82.1441 749.773L73.6077 751.701L11.1562 765.826L16.5509 789.699L79.169 775.536L85.8351 766.111Z" stroke="#115766" stroke-width="0.680618" stroke-miterlimit="10"/>
<path d="M37.4308 793.67L39.8257 777.092L31.1659 775.838L-21.4964 768.222L-24.9961 792.447L27.8391 800.087L37.4308 793.67Z" stroke="#46B2C8" stroke-width="0.680618" stroke-miterlimit="10"/>
<path d="M-3.99825 713.003L4.86519 698.791L-2.55395 694.159L-49.2907 664.974L-62.2402 685.74L-15.3553 715.017L-3.99825 713.003Z" stroke="#46B2C8" stroke-width="0.680618" stroke-miterlimit="10"/>
<path d="M47.8739 702.861L44.1829 686.524L35.6527 688.451L-26.7988 702.571L-21.4104 726.45L41.2139 712.287L47.8739 702.861Z" stroke="#115766" stroke-width="0.680618" stroke-miterlimit="10"/>
<path d="M38.277 729.346V712.589H29.5247H1.37891V737.067H29.7036L38.277 729.346Z" stroke="#46B2C8" stroke-width="0.680618" stroke-miterlimit="10"/>
<path d="M72.1387 737.117L69.3736 720.589L60.7447 722.034L16.7793 729.403L20.816 753.541L64.9542 746.148L72.1387 737.117Z" stroke="#115766" stroke-width="0.680618" stroke-miterlimit="10"/>
<path d="M98.9373 744.425L107.801 730.213L100.382 725.58L53.6448 696.396L40.6953 717.161L87.574 746.438L98.9373 744.425Z" stroke="#46B2C8" stroke-width="0.680618" stroke-miterlimit="10"/>
<path d="M150.811 734.282L147.12 717.945L138.59 719.872L76.1387 733.992L81.5271 757.871L144.145 743.708L150.811 734.282Z" stroke="#115766" stroke-width="0.680618" stroke-miterlimit="10"/>
<path d="M102.413 761.843L104.808 745.258L96.1483 744.011L43.4861 736.389L39.9863 760.613L92.8214 768.26L102.413 761.843Z" stroke="#46B2C8" stroke-width="0.680618" stroke-miterlimit="10"/>
<path d="M35.8703 806.906L32.1793 790.563L23.643 792.496L-38.8086 806.616L-33.414 830.489L29.2042 816.332L35.8703 806.906Z" stroke="#115766" stroke-width="0.680618" stroke-miterlimit="10"/>
<path d="M4.65508 521.196L0.964043 504.852L-7.56614 506.779L-70.0176 520.905L-64.6292 544.778L-2.00488 530.615L4.65508 521.196Z" stroke="#115766" stroke-width="0.680618" stroke-miterlimit="10"/>
<path d="M28.9201 555.445L26.1548 538.922L17.5259 540.368L-26.4395 547.73L-22.4027 571.875L21.7355 564.481L28.9201 555.445Z" stroke="#115766" stroke-width="0.680618" stroke-miterlimit="10"/>
<path d="M55.7205 562.758L64.5839 548.546L57.1648 543.907L10.428 514.722L-2.52148 535.488L44.3634 564.765L55.7205 562.758Z" stroke="#46B2C8" stroke-width="0.680618" stroke-miterlimit="10"/>
<path d="M107.593 552.616L103.902 536.272L95.3714 538.199L32.9199 552.325L38.3083 576.198L100.933 562.035L107.593 552.616Z" stroke="#115766" stroke-width="0.680618" stroke-miterlimit="10"/>
<path d="M77.157 583.591L79.558 567.013L70.8983 565.76L18.2361 558.144L14.7363 582.368L67.5714 590.009L77.157 583.591Z" stroke="#46B2C8" stroke-width="0.680618" stroke-miterlimit="10"/>
<path d="M10.5758 582.127L10.9523 565.376L2.20613 565.179L-50.1105 563.999L-50.666 588.471L1.82962 589.651L10.5758 582.127Z" stroke="#46B2C8" stroke-width="0.680618" stroke-miterlimit="10"/>
<path d="M17.7654 499.503L26.6289 485.29L19.2035 480.658L-27.5271 451.473L-40.4766 472.239L6.40216 501.516L17.7654 499.503Z" stroke="#46B2C8" stroke-width="0.680618" stroke-miterlimit="10"/>
<path d="M69.6379 489.361L65.9468 473.024L57.4105 474.951L-5.04102 489.071L0.353586 512.95L62.9717 498.787L69.6379 489.361Z" stroke="#115766" stroke-width="0.680618" stroke-miterlimit="10"/>
<path d="M60.0345 515.847V499.089H51.2884H23.1426V523.567H51.4612L60.0345 515.847Z" stroke="#46B2C8" stroke-width="0.680618" stroke-miterlimit="10"/>
<path d="M93.9008 523.616L91.1357 507.087L82.5068 508.539L38.5352 515.901L42.5781 540.04L86.7162 532.646L93.9008 523.616Z" stroke="#115766" stroke-width="0.680618" stroke-miterlimit="10"/>
<path d="M120.701 530.924L129.565 516.711L122.139 512.079L75.4026 482.894L62.4531 503.66L109.338 532.937L120.701 530.924Z" stroke="#46B2C8" stroke-width="0.680618" stroke-miterlimit="10"/>
<path d="M172.573 520.781L168.882 504.444L160.346 506.371L97.8945 520.491L103.289 544.369L165.907 530.207L172.573 520.781Z" stroke="#115766" stroke-width="0.680618" stroke-miterlimit="10"/>
<path d="M124.171 548.341L126.566 531.763L117.912 530.509L65.2439 522.887L61.7441 547.112L114.579 554.759L124.171 548.341Z" stroke="#46B2C8" stroke-width="0.680618" stroke-miterlimit="10"/>
<path d="M57.6277 593.406L53.9367 577.063L45.4066 578.996L-17.0449 593.116L-11.6565 616.989L50.9679 602.832L57.6277 593.406Z" stroke="#115766" stroke-width="0.680618" stroke-miterlimit="10"/>
<path d="M9.22959 620.966L11.6245 604.381L2.96467 603.134L-49.6975 595.512L-53.1973 619.736L-0.362219 627.383L9.22959 620.966Z" stroke="#46B2C8" stroke-width="0.680618" stroke-miterlimit="10"/>
<path d="M126.293 588.254L123.528 571.726L114.899 573.171L70.9336 580.54L74.9703 604.678L119.108 597.284L126.293 588.254Z" stroke="#115766" stroke-width="0.680618" stroke-miterlimit="10"/>
<path d="M204.966 585.42L201.275 569.077L192.744 571.01L130.293 585.13L135.681 609.009L198.299 594.846L204.966 585.42Z" stroke="#115766" stroke-width="0.680618" stroke-miterlimit="10"/>
<path d="M156.569 612.979L158.964 596.395L150.305 595.147L97.6423 587.525L94.1426 611.75L146.978 619.397L156.569 612.979Z" stroke="#46B2C8" stroke-width="0.680618" stroke-miterlimit="10"/>
<path d="M107.951 614.932L108.327 598.187L99.5811 597.989L47.2645 596.81L46.709 621.275L99.2046 622.461L107.951 614.932Z" stroke="#46B2C8" stroke-width="0.680618" stroke-miterlimit="10"/>
<path d="M195.369 611.898V595.147H186.617H158.471V619.625H186.789L195.369 611.898Z" stroke="#46B2C8" stroke-width="0.680618" stroke-miterlimit="10"/>
<path d="M229.231 619.675L226.465 603.146L217.837 604.592L173.871 611.961L177.908 636.099L222.046 628.705L229.231 619.675Z" stroke="#115766" stroke-width="0.680618" stroke-miterlimit="10"/>
<path d="M256.031 626.982L264.894 612.77L257.469 608.138L210.739 578.953L197.789 599.719L244.668 628.996L256.031 626.982Z" stroke="#46B2C8" stroke-width="0.680618" stroke-miterlimit="10"/>
<path d="M307.901 616.84L304.21 600.497L295.674 602.43L233.229 616.55L238.617 640.428L301.235 626.265L307.901 616.84Z" stroke="#115766" stroke-width="0.680618" stroke-miterlimit="10"/>
<path d="M259.505 644.4L261.9 627.816L253.24 626.568L200.578 618.947L197.078 643.171L249.913 650.818L259.505 644.4Z" stroke="#46B2C8" stroke-width="0.680618" stroke-miterlimit="10"/>
<path d="M210.886 646.352L211.263 629.607L202.517 629.409L150.194 628.23L149.645 652.695L202.14 653.881L210.886 646.352Z" stroke="#46B2C8" stroke-width="0.680618" stroke-miterlimit="10"/>
<path d="M157.41 548.65V531.899H148.663H120.518V556.377H148.836L157.41 548.65Z" stroke="#46B2C8" stroke-width="0.680618" stroke-miterlimit="10"/>
<path d="M191.276 556.421L188.511 539.898L179.882 541.344L135.91 548.712L139.953 572.851L184.091 565.457L191.276 556.421Z" stroke="#115766" stroke-width="0.680618" stroke-miterlimit="10"/>
<path d="M218.076 563.733L226.934 549.521L219.514 544.888L172.778 515.704L159.828 536.47L206.713 565.741L218.076 563.733Z" stroke="#46B2C8" stroke-width="0.680618" stroke-miterlimit="10"/>
<path d="M269.948 553.591L266.257 537.248L257.721 539.181L195.27 553.301L200.664 577.174L263.282 563.017L269.948 553.591Z" stroke="#115766" stroke-width="0.680618" stroke-miterlimit="10"/>
<path d="M260.345 580.071V563.32H251.599H223.453V587.798H251.772L260.345 580.071Z" stroke="#46B2C8" stroke-width="0.680618" stroke-miterlimit="10"/>
<path d="M294.205 587.841L291.446 571.318L282.817 572.763L238.846 580.132L242.882 604.27L287.027 596.877L294.205 587.841Z" stroke="#115766" stroke-width="0.680618" stroke-miterlimit="10"/>
<path d="M321.006 595.154L329.869 580.941L322.45 576.309L275.713 547.125L262.764 567.89L309.649 597.161L321.006 595.154Z" stroke="#46B2C8" stroke-width="0.680618" stroke-miterlimit="10"/>
<path d="M372.878 585.012L369.193 568.668L360.657 570.602L298.205 584.721L303.594 608.594L366.218 594.437L372.878 585.012Z" stroke="#115766" stroke-width="0.680618" stroke-miterlimit="10"/>
<path d="M324.481 612.572L326.876 595.988L318.217 594.734L265.554 587.118L262.055 611.343L314.89 618.983L324.481 612.572Z" stroke="#46B2C8" stroke-width="0.680618" stroke-miterlimit="10"/>
<path d="M11.354 660.874L8.58878 644.351L-0.0401153 645.796L-44.0117 653.165L-39.9689 677.303L4.16937 669.91L11.354 660.874Z" stroke="#115766" stroke-width="0.680618" stroke-miterlimit="10"/>
<path d="M38.1524 668.186L47.0159 653.973L39.5906 649.341L-7.1462 620.156L-20.0957 640.922L26.7892 670.193L38.1524 668.186Z" stroke="#46B2C8" stroke-width="0.680618" stroke-miterlimit="10"/>
<path d="M41.6222 685.605L44.017 669.021L35.3572 667.767L-17.305 660.151L-20.8047 684.376L32.0304 692.022L41.6222 685.605Z" stroke="#46B2C8" stroke-width="0.680618" stroke-miterlimit="10"/>
<path d="M98.9325 665.326L102.303 648.915L93.7354 647.154L42.4743 636.599L37.5488 660.576L88.9766 671.163L98.9325 665.326Z" stroke="#46B2C8" stroke-width="0.680618" stroke-miterlimit="10"/>
<path d="M80.4212 684.524V667.773H71.675H43.5293V692.251H71.8479L80.4212 684.524Z" stroke="#46B2C8" stroke-width="0.680618" stroke-miterlimit="10"/>
<path d="M114.283 692.294L111.524 675.771L102.895 677.217L58.9238 684.586L62.9605 708.724L107.105 701.33L114.283 692.294Z" stroke="#115766" stroke-width="0.680618" stroke-miterlimit="10"/>
<path d="M141.084 699.607L149.947 685.395L142.528 680.762L95.7913 651.578L82.8418 672.343L129.727 701.614L141.084 699.607Z" stroke="#46B2C8" stroke-width="0.680618" stroke-miterlimit="10"/>
<path d="M192.956 689.464L189.271 673.121L180.735 675.054L118.283 689.174L123.678 713.047L186.296 698.89L192.956 689.464Z" stroke="#115766" stroke-width="0.680618" stroke-miterlimit="10"/>
<path d="M144.558 717.025L146.952 700.44L138.293 699.187L85.6306 691.571L82.1309 715.795L134.966 723.436L144.558 717.025Z" stroke="#46B2C8" stroke-width="0.680618" stroke-miterlimit="10"/>
<path d="M42.4684 621.274V604.523H33.716H5.57031V628.995H33.8951L42.4684 621.274Z" stroke="#46B2C8" stroke-width="0.680618" stroke-miterlimit="10"/>
<path d="M76.3282 629.045L73.563 612.523L64.9341 613.968L20.9688 621.337L25.0054 645.475L69.1436 638.082L76.3282 629.045Z" stroke="#115766" stroke-width="0.680618" stroke-miterlimit="10"/>
<path d="M155.001 626.216L151.31 609.873L142.78 611.8L80.3281 625.926L85.7165 649.798L148.335 635.641L155.001 626.216Z" stroke="#115766" stroke-width="0.680618" stroke-miterlimit="10"/>
<path d="M145.404 652.695V635.944H136.652H108.506V660.416H136.824L145.404 652.695Z" stroke="#46B2C8" stroke-width="0.680618" stroke-miterlimit="10"/>
<path d="M179.264 660.465L176.499 643.943L167.87 645.388L123.904 652.75L127.941 676.895L172.079 669.501L179.264 660.465Z" stroke="#115766" stroke-width="0.680618" stroke-miterlimit="10"/>
<path d="M257.938 657.637L254.247 641.294L245.711 643.221L183.266 657.347L188.654 681.219L251.272 667.063L257.938 657.637Z" stroke="#115766" stroke-width="0.680618" stroke-miterlimit="10"/>
<path d="M209.54 685.19L211.935 668.612L203.275 667.358L150.613 659.743L147.113 683.967L199.948 691.608L209.54 685.19Z" stroke="#46B2C8" stroke-width="0.680618" stroke-miterlimit="10"/>
<path d="M153.094 595.561L161.957 581.349L154.538 576.716L107.801 547.532L94.8516 568.298L141.73 597.575L153.094 595.561Z" stroke="#46B2C8" stroke-width="0.680618" stroke-miterlimit="10"/>
<path d="M298.228 640.705V623.954H289.482H261.336V648.426H289.655L298.228 640.705Z" stroke="#46B2C8" stroke-width="0.680618" stroke-miterlimit="10"/>
<path d="M332.09 648.476L329.325 631.954L320.696 633.399L276.73 640.768L280.767 664.906L324.905 657.513L332.09 648.476Z" stroke="#115766" stroke-width="0.680618" stroke-miterlimit="10"/>
<path d="M410.761 645.647L407.07 629.303L398.539 631.231L336.088 645.356L341.476 669.229L404.101 655.072L410.761 645.647Z" stroke="#115766" stroke-width="0.680618" stroke-miterlimit="10"/>
<path d="M362.364 673.201L364.759 656.623L356.099 655.369L303.437 647.753L299.938 671.978L352.773 679.619L362.364 673.201Z" stroke="#46B2C8" stroke-width="0.680618" stroke-miterlimit="10"/>
<path d="M313.745 675.158L314.122 658.407L305.376 658.21L253.059 657.03L252.51 681.502L304.999 682.687L313.745 675.158Z" stroke="#46B2C8" stroke-width="0.680618" stroke-miterlimit="10"/>
<path d="M401.164 672.126V655.375H392.418H364.266V679.847H392.59L401.164 672.126Z" stroke="#46B2C8" stroke-width="0.680618" stroke-miterlimit="10"/>
<path d="M435.026 679.896L432.26 663.374L423.631 664.819L379.666 672.188L383.703 696.326L427.841 688.932L435.026 679.896Z" stroke="#115766" stroke-width="0.680618" stroke-miterlimit="10"/>
<path d="M461.826 687.209L470.689 672.997L463.27 668.358L416.534 639.174L403.584 659.939L450.469 689.217L461.826 687.209Z" stroke="#46B2C8" stroke-width="0.680618" stroke-miterlimit="10"/>
<path d="M416.681 706.58L417.058 689.829L408.312 689.631L355.995 688.451L355.439 712.923L407.935 714.109L416.681 706.58Z" stroke="#46B2C8" stroke-width="0.680618" stroke-miterlimit="10"/>
<path d="M363.211 608.878V592.121H354.458H326.312V616.599H354.631L363.211 608.878Z" stroke="#46B2C8" stroke-width="0.680618" stroke-miterlimit="10"/>
<path d="M397.071 616.647L394.306 600.125L385.677 601.57L341.705 608.933L345.748 633.077L389.886 625.678L397.071 616.647Z" stroke="#115766" stroke-width="0.680618" stroke-miterlimit="10"/>
<path d="M423.871 623.961L432.734 609.742L425.309 605.11L378.572 575.925L365.629 596.691L412.508 625.968L423.871 623.961Z" stroke="#46B2C8" stroke-width="0.680618" stroke-miterlimit="10"/>
<path d="M475.743 613.813L472.052 597.475L463.516 599.402L401.064 613.528L406.459 637.401L469.077 623.238L475.743 613.813Z" stroke="#115766" stroke-width="0.680618" stroke-miterlimit="10"/>
<path d="M183.287 713.331V696.574H174.534H146.389V721.052H174.707L183.287 713.331Z" stroke="#46B2C8" stroke-width="0.680618" stroke-miterlimit="10"/>
<path d="M217.149 721.101L214.383 704.578L205.754 706.023L161.789 713.386L165.826 737.53L209.964 730.137L217.149 721.101Z" stroke="#115766" stroke-width="0.680618" stroke-miterlimit="10"/>
<path d="M243.949 728.414L252.812 714.202L245.387 709.563L198.657 680.378L185.707 701.144L232.586 730.421L243.949 728.414Z" stroke="#46B2C8" stroke-width="0.680618" stroke-miterlimit="10"/>
<path d="M247.417 745.826L249.818 729.248L241.158 727.994L188.496 720.378L184.996 744.603L237.831 752.243L247.417 745.826Z" stroke="#46B2C8" stroke-width="0.680618" stroke-miterlimit="10"/>
<path d="M198.804 747.783L199.181 731.032L190.435 730.835L138.112 729.655L137.562 754.127L190.058 755.306L198.804 747.783Z" stroke="#46B2C8" stroke-width="0.680618" stroke-miterlimit="10"/>
<path d="M286.216 744.751V727.994H277.47H249.324V752.472H277.643L286.216 744.751Z" stroke="#46B2C8" stroke-width="0.680618" stroke-miterlimit="10"/>
<path d="M320.084 752.521L317.319 735.998L308.69 737.443L264.719 744.806L268.762 768.95L312.9 761.557L320.084 752.521Z" stroke="#115766" stroke-width="0.680618" stroke-miterlimit="10"/>
<path d="M346.885 759.833L355.748 745.615L348.323 740.982L301.586 711.798L288.643 732.564L335.521 761.841L346.885 759.833Z" stroke="#46B2C8" stroke-width="0.680618" stroke-miterlimit="10"/>
<path d="M398.757 749.686L395.066 733.349L386.53 735.276L324.078 749.402L329.473 773.275L392.091 759.112L398.757 749.686Z" stroke="#115766" stroke-width="0.680618" stroke-miterlimit="10"/>
<path d="M350.352 777.246L352.747 760.668L344.094 759.414L291.425 751.798L287.932 776.023L340.76 783.663L350.352 777.246Z" stroke="#46B2C8" stroke-width="0.680618" stroke-miterlimit="10"/>
<path d="M301.74 779.204L302.116 762.453L293.37 762.255L241.047 761.075L240.498 785.547L292.994 786.727L301.74 779.204Z" stroke="#46B2C8" stroke-width="0.680618" stroke-miterlimit="10"/>
<path d="M248.263 681.502V664.745H239.517H211.371V689.223H239.69L248.263 681.502Z" stroke="#46B2C8" stroke-width="0.680618" stroke-miterlimit="10"/>
<path d="M282.125 689.272L279.36 672.743L270.731 674.195L226.766 681.557L230.802 705.695L274.941 698.302L282.125 689.272Z" stroke="#115766" stroke-width="0.680618" stroke-miterlimit="10"/>
<path d="M360.796 686.437L357.105 670.1L348.575 672.027L286.123 686.146L291.511 710.025L354.136 695.862L360.796 686.437Z" stroke="#115766" stroke-width="0.680618" stroke-miterlimit="10"/>
<path d="M351.199 712.922V696.165H342.453H314.301V720.643H342.626L351.199 712.922Z" stroke="#46B2C8" stroke-width="0.680618" stroke-miterlimit="10"/>
<path d="M385.061 720.693L382.296 704.165L373.667 705.61L329.701 712.979L333.738 737.117L377.876 729.723L385.061 720.693Z" stroke="#115766" stroke-width="0.680618" stroke-miterlimit="10"/>
<path d="M463.733 717.858L460.042 701.521L451.512 703.448L389.061 717.568L394.449 741.447L457.073 727.284L463.733 717.858Z" stroke="#115766" stroke-width="0.680618" stroke-miterlimit="10"/>
<path d="M415.335 745.418L417.73 728.833L409.07 727.586L356.408 719.964L352.908 744.189L405.743 751.835L415.335 745.418Z" stroke="#46B2C8" stroke-width="0.680618" stroke-miterlimit="10"/>
<path d="M383.591 777.554V760.803H374.845H346.699V785.281H375.018L383.591 777.554Z" stroke="#46B2C8" stroke-width="0.680618" stroke-miterlimit="10"/>
<path d="M417.459 785.331L414.694 768.803L406.065 770.248L362.094 777.617L366.137 801.755L410.275 794.362L417.459 785.331Z" stroke="#115766" stroke-width="0.680618" stroke-miterlimit="10"/>
<path d="M444.258 792.638L453.121 778.426L445.696 773.793L398.959 744.609L386.01 765.375L432.895 794.652L444.258 792.638Z" stroke="#46B2C8" stroke-width="0.680618" stroke-miterlimit="10"/>
<path d="M447.728 810.056L450.122 793.472L441.463 792.224L388.8 784.602L385.301 808.827L438.136 816.473L447.728 810.056Z" stroke="#46B2C8" stroke-width="0.680618" stroke-miterlimit="10"/>
<path d="M399.115 812.007L399.491 795.262L390.745 795.065L338.422 793.885L337.873 818.35L390.362 819.536L399.115 812.007Z" stroke="#46B2C8" stroke-width="0.680618" stroke-miterlimit="10"/>
<path d="M299.036 723.355L302.412 706.949L293.839 705.183L242.584 694.633L237.652 718.605L289.08 729.191L299.036 723.355Z" stroke="#46B2C8" stroke-width="0.680618" stroke-miterlimit="10"/>
<path d="M448.574 745.727V728.976H439.822H411.676V753.454H439.994L448.574 745.727Z" stroke="#46B2C8" stroke-width="0.680618" stroke-miterlimit="10"/>
<path d="M358.888 655.789L367.752 641.577L360.333 636.938L313.596 607.754L300.646 628.52L347.531 657.797L358.888 655.789Z" stroke="#46B2C8" stroke-width="0.680618" stroke-miterlimit="10"/>
<path d="M405.355 564.06V547.303H396.609H368.457V571.781H396.782L405.355 564.06Z" stroke="#46B2C8" stroke-width="0.680618" stroke-miterlimit="10"/>
<path d="M439.215 571.83L436.45 555.301L427.821 556.746L383.855 564.115L387.892 588.253L432.03 580.86L439.215 571.83Z" stroke="#115766" stroke-width="0.680618" stroke-miterlimit="10"/>
<path d="M466.015 579.137L474.879 564.925L467.46 560.292L420.723 531.108L407.773 551.873L454.658 581.151L466.015 579.137Z" stroke="#46B2C8" stroke-width="0.680618" stroke-miterlimit="10"/>
<path d="M469.491 596.555L471.886 579.971L463.226 578.723L410.564 571.101L407.064 595.326L459.899 602.972L469.491 596.555Z" stroke="#46B2C8" stroke-width="0.680618" stroke-miterlimit="10"/>
<path d="M109.119 361.039V344.288H100.367H72.2207V368.766H100.539L109.119 361.039Z" stroke="#46B2C8" stroke-width="0.680618" stroke-miterlimit="10"/>
<path d="M142.981 368.809L140.215 352.286L131.586 353.732L87.6211 361.1L91.6578 385.239L135.796 377.845L142.981 368.809Z" stroke="#115766" stroke-width="0.680618" stroke-miterlimit="10"/>
<path d="M221.653 365.98L217.962 349.636L209.432 351.57L146.98 365.689L152.369 389.562L214.987 375.405L221.653 365.98Z" stroke="#115766" stroke-width="0.680618" stroke-miterlimit="10"/>
<path d="M173.255 393.54L175.65 376.956L166.99 375.702L114.328 368.086L110.828 392.311L163.663 399.952L173.255 393.54Z" stroke="#46B2C8" stroke-width="0.680618" stroke-miterlimit="10"/>
<path d="M124.636 395.493L125.013 378.742L116.267 378.544L63.9501 377.364L63.3945 401.836L115.89 403.022L124.636 395.493Z" stroke="#46B2C8" stroke-width="0.680618" stroke-miterlimit="10"/>
<path d="M212.054 392.459V375.708H203.302H175.156V400.186H203.475L212.054 392.459Z" stroke="#46B2C8" stroke-width="0.680618" stroke-miterlimit="10"/>
<path d="M245.916 400.229L243.151 383.707L234.522 385.152L190.557 392.521L194.593 416.659L238.732 409.265L245.916 400.229Z" stroke="#115766" stroke-width="0.680618" stroke-miterlimit="10"/>
<path d="M272.717 407.542L281.58 393.33L274.155 388.691L227.424 359.513L214.475 380.273L261.353 409.55L272.717 407.542Z" stroke="#46B2C8" stroke-width="0.680618" stroke-miterlimit="10"/>
<path d="M324.589 397.401L320.898 381.058L312.361 382.991L249.916 397.111L255.304 420.983L317.923 406.826L324.589 397.401Z" stroke="#115766" stroke-width="0.680618" stroke-miterlimit="10"/>
<path d="M294.153 428.383L296.548 411.799L287.888 410.545L235.226 402.929L231.727 427.154L284.562 434.795L294.153 428.383Z" stroke="#46B2C8" stroke-width="0.680618" stroke-miterlimit="10"/>
<path d="M227.572 426.913L227.948 410.162L219.202 409.964L166.879 408.784L166.33 433.256L218.826 434.442L227.572 426.913Z" stroke="#46B2C8" stroke-width="0.680618" stroke-miterlimit="10"/>
<path d="M174.095 329.211V312.454H165.349H137.203V336.932H165.522L174.095 329.211Z" stroke="#46B2C8" stroke-width="0.680618" stroke-miterlimit="10"/>
<path d="M207.963 336.98L205.198 320.458L196.569 321.903L152.598 329.266L156.641 353.41L200.779 346.017L207.963 336.98Z" stroke="#115766" stroke-width="0.680618" stroke-miterlimit="10"/>
<path d="M234.764 344.294L243.621 330.081L236.202 325.443L189.465 296.258L176.516 317.024L223.401 346.301L234.764 344.294Z" stroke="#46B2C8" stroke-width="0.680618" stroke-miterlimit="10"/>
<path d="M286.63 334.152L282.945 317.809L274.409 319.736L211.957 333.862L217.352 357.735L279.97 343.572L286.63 334.152Z" stroke="#115766" stroke-width="0.680618" stroke-miterlimit="10"/>
<path d="M277.031 360.632V343.875H268.284H240.139V368.353H268.457L277.031 360.632Z" stroke="#46B2C8" stroke-width="0.680618" stroke-miterlimit="10"/>
<path d="M310.893 368.402L308.134 351.879L299.505 353.325L255.533 360.687L259.57 384.832L303.714 377.438L310.893 368.402Z" stroke="#115766" stroke-width="0.680618" stroke-miterlimit="10"/>
<path d="M337.693 375.715L346.557 361.503L339.138 356.864L292.401 327.679L279.451 348.445L326.336 377.722L337.693 375.715Z" stroke="#46B2C8" stroke-width="0.680618" stroke-miterlimit="10"/>
<path d="M389.565 365.572L385.874 349.229L377.344 351.156L314.893 365.282L320.281 389.155L382.905 374.992L389.565 365.572Z" stroke="#115766" stroke-width="0.680618" stroke-miterlimit="10"/>
<path d="M341.167 393.127L343.562 376.549L334.902 375.295L282.24 367.679L278.74 391.904L331.575 399.544L341.167 393.127Z" stroke="#46B2C8" stroke-width="0.680618" stroke-miterlimit="10"/>
<path d="M28.0395 441.433L25.2743 424.911L16.6454 426.356L-27.3262 433.719L-23.2833 457.863L20.855 450.469L28.0395 441.433Z" stroke="#115766" stroke-width="0.680618" stroke-miterlimit="10"/>
<path d="M54.8399 448.746L63.7034 434.534L56.2781 429.895L9.5413 400.711L-3.4082 421.476L43.4767 450.754L54.8399 448.746Z" stroke="#46B2C8" stroke-width="0.680618" stroke-miterlimit="10"/>
<path d="M58.3077 466.158L60.7026 449.58L52.0428 448.326L-0.619446 440.711L-4.11914 464.935L48.7159 472.576L58.3077 466.158Z" stroke="#46B2C8" stroke-width="0.680618" stroke-miterlimit="10"/>
<path d="M9.69485 468.117L10.0714 451.366L1.3252 451.169L-50.9975 449.989L-51.5469 474.461L0.942515 475.646L9.69485 468.117Z" stroke="#46B2C8" stroke-width="0.680618" stroke-miterlimit="10"/>
<path d="M97.1087 465.084V448.333H88.3626H60.2168V472.805H88.5354L97.1087 465.084Z" stroke="#46B2C8" stroke-width="0.680618" stroke-miterlimit="10"/>
<path d="M130.969 472.854L128.21 456.332L119.581 457.777L75.6094 465.14L79.6461 489.284L123.79 481.891L130.969 472.854Z" stroke="#115766" stroke-width="0.680618" stroke-miterlimit="10"/>
<path d="M157.769 480.167L166.633 465.955L159.214 461.316L112.477 432.132L99.5273 452.898L146.412 482.175L157.769 480.167Z" stroke="#46B2C8" stroke-width="0.680618" stroke-miterlimit="10"/>
<path d="M209.641 470.025L205.957 453.682L197.42 455.609L134.969 469.735L140.363 493.608L202.981 479.445L209.641 470.025Z" stroke="#115766" stroke-width="0.680618" stroke-miterlimit="10"/>
<path d="M161.245 497.579L163.64 481.001L154.98 479.748L102.318 472.132L98.8184 496.357L151.653 503.997L161.245 497.579Z" stroke="#46B2C8" stroke-width="0.680618" stroke-miterlimit="10"/>
<path d="M112.624 499.537L113.007 482.786L104.261 482.588L51.938 481.408L51.3887 505.88L103.878 507.066L112.624 499.537Z" stroke="#46B2C8" stroke-width="0.680618" stroke-miterlimit="10"/>
<path d="M59.154 401.835V385.078H50.4016H22.2559V409.556H50.5744L59.154 401.835Z" stroke="#46B2C8" stroke-width="0.680618" stroke-miterlimit="10"/>
<path d="M93.0158 409.605L90.2506 393.083L81.6217 394.528L37.6562 401.89L41.693 426.035L85.8312 418.635L93.0158 409.605Z" stroke="#115766" stroke-width="0.680618" stroke-miterlimit="10"/>
<path d="M171.688 406.771L167.997 390.434L159.467 392.361L97.0156 406.48L102.404 430.359L165.022 416.196L171.688 406.771Z" stroke="#115766" stroke-width="0.680618" stroke-miterlimit="10"/>
<path d="M162.09 433.256V416.499H153.337H125.191V440.977H153.51L162.09 433.256Z" stroke="#46B2C8" stroke-width="0.680618" stroke-miterlimit="10"/>
<path d="M195.951 441.026L193.186 424.504L184.557 425.949L140.592 433.312L144.628 457.456L188.767 450.056L195.951 441.026Z" stroke="#115766" stroke-width="0.680618" stroke-miterlimit="10"/>
<path d="M274.624 438.19L270.933 421.853L262.396 423.78L199.951 437.9L205.34 461.779L267.958 447.616L274.624 438.19Z" stroke="#115766" stroke-width="0.680618" stroke-miterlimit="10"/>
<path d="M226.228 465.751L228.623 449.173L219.963 447.919L167.301 440.297L163.801 464.528L216.636 472.168L226.228 465.751Z" stroke="#46B2C8" stroke-width="0.680618" stroke-miterlimit="10"/>
<path d="M343.292 433.04L340.526 416.517L331.897 417.962L287.926 425.325L291.969 449.469L336.107 442.076L343.292 433.04Z" stroke="#115766" stroke-width="0.680618" stroke-miterlimit="10"/>
<path d="M421.964 430.204L418.273 413.867L409.737 415.794L347.285 429.92L352.68 453.793L415.298 439.63L421.964 430.204Z" stroke="#115766" stroke-width="0.680618" stroke-miterlimit="10"/>
<path d="M373.559 457.765L375.954 441.187L367.301 439.933L314.632 432.317L311.139 456.542L363.968 464.182L373.559 457.765Z" stroke="#46B2C8" stroke-width="0.680618" stroke-miterlimit="10"/>
<path d="M324.947 459.724L325.323 442.973L316.577 442.775L264.254 441.595L263.705 466.067L316.201 467.247L324.947 459.724Z" stroke="#46B2C8" stroke-width="0.680618" stroke-miterlimit="10"/>
<path d="M412.359 456.69V439.932H403.613H375.467V464.41H403.785L412.359 456.69Z" stroke="#46B2C8" stroke-width="0.680618" stroke-miterlimit="10"/>
<path d="M446.227 464.459L443.462 447.937L434.833 449.382L390.861 456.745L394.904 480.889L439.042 473.496L446.227 464.459Z" stroke="#115766" stroke-width="0.680618" stroke-miterlimit="10"/>
<path d="M473.028 471.772L481.891 457.554L474.466 452.921L427.729 423.737L414.779 444.503L461.664 473.78L473.028 471.772Z" stroke="#46B2C8" stroke-width="0.680618" stroke-miterlimit="10"/>
<path d="M476.495 489.184L478.89 472.606L470.23 471.353L417.568 463.737L414.068 487.961L466.904 495.602L476.495 489.184Z" stroke="#46B2C8" stroke-width="0.680618" stroke-miterlimit="10"/>
<path d="M427.882 491.143L428.259 474.392L419.513 474.195L367.19 473.015L366.641 497.487L419.13 498.666L427.882 491.143Z" stroke="#46B2C8" stroke-width="0.680618" stroke-miterlimit="10"/>
<path d="M374.406 393.441V376.684H365.66H337.508V401.162H365.833L374.406 393.441Z" stroke="#46B2C8" stroke-width="0.680618" stroke-miterlimit="10"/>
<path d="M408.266 401.211L405.501 384.683L396.872 386.128L352.906 393.497L356.943 417.635L401.081 410.241L408.266 401.211Z" stroke="#115766" stroke-width="0.680618" stroke-miterlimit="10"/>
<path d="M435.066 408.518L443.93 394.306L436.511 389.674L389.774 360.489L376.824 381.255L423.709 410.532L435.066 408.518Z" stroke="#46B2C8" stroke-width="0.680618" stroke-miterlimit="10"/>
<path d="M486.938 398.376L483.247 382.039L474.717 383.966L412.266 398.085L417.654 421.964L480.278 407.801L486.938 398.376Z" stroke="#115766" stroke-width="0.680618" stroke-miterlimit="10"/>
<path d="M194.482 497.894V481.137H185.736H157.59V505.615H185.908L194.482 497.894Z" stroke="#46B2C8" stroke-width="0.680618" stroke-miterlimit="10"/>
<path d="M228.344 505.664L225.579 489.141L216.95 490.587L172.984 497.949L177.021 522.087L221.159 514.694L228.344 505.664Z" stroke="#115766" stroke-width="0.680618" stroke-miterlimit="10"/>
<path d="M255.144 512.971L264.008 498.758L256.589 494.126L209.852 464.941L196.902 485.707L243.787 514.984L255.144 512.971Z" stroke="#46B2C8" stroke-width="0.680618" stroke-miterlimit="10"/>
<path d="M258.618 530.388L261.013 513.81L252.353 512.556L199.691 504.935L196.191 529.159L249.026 536.806L258.618 530.388Z" stroke="#46B2C8" stroke-width="0.680618" stroke-miterlimit="10"/>
<path d="M209.999 532.342L210.376 515.597L201.63 515.399L149.313 514.219L148.764 538.691L201.253 539.871L209.999 532.342Z" stroke="#46B2C8" stroke-width="0.680618" stroke-miterlimit="10"/>
<path d="M315.923 510.112L319.299 493.707L310.726 491.94L259.471 481.391L254.539 505.362L305.973 515.949L315.923 510.112Z" stroke="#46B2C8" stroke-width="0.680618" stroke-miterlimit="10"/>
<path d="M109.929 443.695L113.299 427.283L104.732 425.517L53.4704 414.967L48.5449 438.939L99.9727 449.525L109.929 443.695Z" stroke="#46B2C8" stroke-width="0.680618" stroke-miterlimit="10"/>
<path d="M297.418 529.314V512.557H288.671H260.52V537.035H288.844L297.418 529.314Z" stroke="#46B2C8" stroke-width="0.680618" stroke-miterlimit="10"/>
<path d="M331.279 537.085L328.514 520.556L319.885 522.008L275.92 529.37L279.957 553.509L324.095 546.115L331.279 537.085Z" stroke="#115766" stroke-width="0.680618" stroke-miterlimit="10"/>
<path d="M358.08 544.392L366.943 530.18L359.524 525.547L312.787 496.363L299.838 517.129L346.723 546.406L358.08 544.392Z" stroke="#46B2C8" stroke-width="0.680618" stroke-miterlimit="10"/>
<path d="M409.952 534.25L406.261 517.913L397.731 519.84L335.279 533.96L340.668 557.838L403.292 543.676L409.952 534.25Z" stroke="#115766" stroke-width="0.680618" stroke-miterlimit="10"/>
<path d="M361.554 561.81L363.949 545.232L355.289 543.978L302.627 536.356L299.127 560.581L351.962 568.228L361.554 561.81Z" stroke="#46B2C8" stroke-width="0.680618" stroke-miterlimit="10"/>
<path d="M312.935 563.761L313.312 547.017L304.565 546.819L252.249 545.639L251.693 570.111L304.189 571.291L312.935 563.761Z" stroke="#46B2C8" stroke-width="0.680618" stroke-miterlimit="10"/>
<path d="M259.465 466.06V449.309H250.712H222.566V473.787H250.885L259.465 466.06Z" stroke="#46B2C8" stroke-width="0.680618" stroke-miterlimit="10"/>
<path d="M293.327 473.83L290.561 457.308L281.933 458.753L237.961 466.122L242.004 490.26L286.142 482.867L293.327 473.83Z" stroke="#115766" stroke-width="0.680618" stroke-miterlimit="10"/>
<path d="M371.999 471.001L368.308 454.658L359.772 456.591L297.32 470.711L302.715 494.584L365.333 480.427L371.999 471.001Z" stroke="#115766" stroke-width="0.680618" stroke-miterlimit="10"/>
<path d="M362.394 497.481V480.73H353.648H325.502V505.208H353.821L362.394 497.481Z" stroke="#46B2C8" stroke-width="0.680618" stroke-miterlimit="10"/>
<path d="M396.262 505.25L393.497 488.728L384.868 490.173L340.896 497.542L344.939 521.68L389.078 514.287L396.262 505.25Z" stroke="#115766" stroke-width="0.680618" stroke-miterlimit="10"/>
<path d="M474.935 502.421L471.244 486.078L462.707 488.011L400.256 502.131L405.65 526.004L468.269 511.847L474.935 502.421Z" stroke="#115766" stroke-width="0.680618" stroke-miterlimit="10"/>
<path d="M426.53 529.982L428.925 513.397L420.265 512.144L367.603 504.528L364.104 528.753L416.939 536.399L426.53 529.982Z" stroke="#46B2C8" stroke-width="0.680618" stroke-miterlimit="10"/>
<path d="M169.781 376.122L178.645 361.91L171.225 357.271L124.489 328.093L111.539 348.853L158.418 378.13L169.781 376.122Z" stroke="#46B2C8" stroke-width="0.680618" stroke-miterlimit="10"/>
<path d="M370.092 440.353L378.955 426.134L371.53 421.502L324.793 392.317L311.85 413.083L358.728 442.36L370.092 440.353Z" stroke="#46B2C8" stroke-width="0.680618" stroke-miterlimit="10"/>
<path d="M331.187 211.769V195.011H322.441H294.295V219.489H322.614L331.187 211.769Z" stroke="#46B2C8" stroke-width="0.680618" stroke-miterlimit="10"/>
<path d="M365.049 219.538L362.29 203.016L353.661 204.461L309.689 211.824L313.726 235.968L357.871 228.575L365.049 219.538Z" stroke="#115766" stroke-width="0.680618" stroke-miterlimit="10"/>
<path d="M443.72 216.71L440.028 200.366L431.498 202.294L369.047 216.419L374.435 240.292L437.06 226.129L443.72 216.71Z" stroke="#115766" stroke-width="0.680618" stroke-miterlimit="10"/>
<path d="M395.323 244.264L397.718 227.686L389.058 226.432L336.396 218.816L332.896 243.041L385.732 250.682L395.323 244.264Z" stroke="#46B2C8" stroke-width="0.680618" stroke-miterlimit="10"/>
<path d="M346.704 246.221L347.087 229.47L338.335 229.273L286.018 228.093L285.469 252.565L337.958 253.745L346.704 246.221Z" stroke="#46B2C8" stroke-width="0.680618" stroke-miterlimit="10"/>
<path d="M434.122 243.189V226.432H425.376H397.23V250.91H425.549L434.122 243.189Z" stroke="#46B2C8" stroke-width="0.680618" stroke-miterlimit="10"/>
<path d="M467.985 250.959L465.219 234.437L456.59 235.882L412.625 243.244L416.662 267.389L460.8 259.995L467.985 250.959Z" stroke="#115766" stroke-width="0.680618" stroke-miterlimit="10"/>
<path d="M449.64 277.642L450.017 260.891L441.271 260.693L388.954 259.514L388.398 283.985L440.894 285.165L449.64 277.642Z" stroke="#46B2C8" stroke-width="0.680618" stroke-miterlimit="10"/>
<path d="M396.17 179.94V163.183H387.417H359.271V187.661H387.59L396.17 179.94Z" stroke="#46B2C8" stroke-width="0.680618" stroke-miterlimit="10"/>
<path d="M430.031 187.71L427.266 171.188L418.637 172.633L374.672 179.996L378.709 204.134L422.847 196.741L430.031 187.71Z" stroke="#115766" stroke-width="0.680618" stroke-miterlimit="10"/>
<path d="M456.83 195.018L465.693 180.805L458.268 176.173L411.537 146.988L398.588 167.754L445.467 197.031L456.83 195.018Z" stroke="#46B2C8" stroke-width="0.680618" stroke-miterlimit="10"/>
<path d="M216.246 284.393V267.636H207.493H179.348V292.114H207.666L216.246 284.393Z" stroke="#46B2C8" stroke-width="0.680618" stroke-miterlimit="10"/>
<path d="M250.107 292.164L247.342 275.641L238.713 277.086L194.748 284.449L198.785 308.593L242.923 301.194L250.107 292.164Z" stroke="#115766" stroke-width="0.680618" stroke-miterlimit="10"/>
<path d="M276.908 299.471L285.771 285.258L278.346 280.626L231.616 251.441L218.666 272.207L265.545 301.484L276.908 299.471Z" stroke="#46B2C8" stroke-width="0.680618" stroke-miterlimit="10"/>
<path d="M280.382 316.888L282.777 300.31L274.117 299.057L221.455 291.435L217.955 315.659L270.79 323.306L280.382 316.888Z" stroke="#46B2C8" stroke-width="0.680618" stroke-miterlimit="10"/>
<path d="M319.181 315.813V299.056H310.429H282.283V323.534H310.602L319.181 315.813Z" stroke="#46B2C8" stroke-width="0.680618" stroke-miterlimit="10"/>
<path d="M353.043 323.584L350.278 307.062L341.649 308.507L297.678 315.869L301.721 340.014L345.859 332.614L353.043 323.584Z" stroke="#115766" stroke-width="0.680618" stroke-miterlimit="10"/>
<path d="M379.844 330.891L388.707 316.679L381.282 312.046L334.545 282.862L321.602 303.627L368.48 332.905L379.844 330.891Z" stroke="#46B2C8" stroke-width="0.680618" stroke-miterlimit="10"/>
<path d="M431.716 320.749L428.025 304.412L419.489 306.339L357.037 320.458L362.432 344.337L425.05 330.174L431.716 320.749Z" stroke="#115766" stroke-width="0.680618" stroke-miterlimit="10"/>
<path d="M383.313 348.309L385.708 331.731L377.054 330.477L324.392 322.855L320.893 347.079L373.721 354.726L383.313 348.309Z" stroke="#46B2C8" stroke-width="0.680618" stroke-miterlimit="10"/>
<path d="M281.222 252.559V235.808H272.476H244.33V260.286H272.649L281.222 252.559Z" stroke="#46B2C8" stroke-width="0.680618" stroke-miterlimit="10"/>
<path d="M315.084 260.329L312.325 243.807L303.696 245.252L259.725 252.621L263.761 276.759L307.906 269.365L315.084 260.329Z" stroke="#115766" stroke-width="0.680618" stroke-miterlimit="10"/>
<path d="M393.757 257.5L390.066 241.157L381.536 243.09L319.084 257.21L324.472 281.089L387.097 266.926L393.757 257.5Z" stroke="#115766" stroke-width="0.680618" stroke-miterlimit="10"/>
<path d="M384.158 283.979V267.228H375.412H347.26V291.706H375.585L384.158 283.979Z" stroke="#46B2C8" stroke-width="0.680618" stroke-miterlimit="10"/>
<path d="M418.02 291.75L415.254 275.228L406.626 276.673L362.66 284.042L366.697 308.18L410.835 300.786L418.02 291.75Z" stroke="#115766" stroke-width="0.680618" stroke-miterlimit="10"/>
<path d="M448.294 316.481L450.689 299.896L442.029 298.649L389.367 291.027L385.867 315.252L438.702 322.898L448.294 316.481Z" stroke="#46B2C8" stroke-width="0.680618" stroke-miterlimit="10"/>
<path d="M416.55 348.617V331.866H407.804H379.658V356.344H407.977L416.55 348.617Z" stroke="#46B2C8" stroke-width="0.680618" stroke-miterlimit="10"/>
<path d="M450.416 356.388L447.651 339.866L439.022 341.311L395.051 348.68L399.094 372.818L443.232 365.425L450.416 356.388Z" stroke="#115766" stroke-width="0.680618" stroke-miterlimit="10"/>
<path d="M480.687 381.12L483.081 364.535L474.422 363.282L421.759 355.666L418.26 379.89L471.095 387.537L480.687 381.12Z" stroke="#46B2C8" stroke-width="0.680618" stroke-miterlimit="10"/>
<path d="M331.995 294.418L335.371 278.013L326.798 276.246L275.543 265.697L270.611 289.668L322.039 300.255L331.995 294.418Z" stroke="#46B2C8" stroke-width="0.680618" stroke-miterlimit="10"/>
<path d="M391.847 226.852L400.711 212.64L393.292 208.001L346.555 178.816L333.605 199.582L380.49 228.859L391.847 226.852Z" stroke="#46B2C8" stroke-width="0.680618" stroke-miterlimit="10"/>
<path d="M15.3856 297.142L11.6946 280.805L3.16443 282.732L-59.2871 296.852L-53.8987 320.73L8.71952 306.567L15.3856 297.142Z" stroke="#115766" stroke-width="0.680618" stroke-miterlimit="10"/>
<path d="M5.78873 323.627V306.87H-2.96362H-31.1094V331.348H-2.79077L5.78873 323.627Z" stroke="#46B2C8" stroke-width="0.680618" stroke-miterlimit="10"/>
<path d="M39.6505 331.397L36.8853 314.875L28.2564 316.32L-15.709 323.683L-11.6723 347.827L32.466 340.428L39.6505 331.397Z" stroke="#115766" stroke-width="0.680618" stroke-miterlimit="10"/>
<path d="M66.449 338.704L75.3125 324.492L67.8871 319.86L21.1565 290.675L8.20703 311.441L55.0858 340.718L66.449 338.704Z" stroke="#46B2C8" stroke-width="0.680618" stroke-miterlimit="10"/>
<path d="M118.321 328.562L114.63 312.225L106.094 314.152L43.6426 328.271L49.0372 352.15L111.655 337.987L118.321 328.562Z" stroke="#115766" stroke-width="0.680618" stroke-miterlimit="10"/>
<path d="M69.9249 356.122L72.3197 339.544L63.6599 338.29L10.9977 330.675L7.49805 354.899L60.3331 362.54L69.9249 356.122Z" stroke="#46B2C8" stroke-width="0.680618" stroke-miterlimit="10"/>
<path d="M21.3062 358.073L21.6827 341.328L12.9365 341.131L-39.3862 339.951L-39.9355 364.423L12.56 365.602L21.3062 358.073Z" stroke="#46B2C8" stroke-width="0.680618" stroke-miterlimit="10"/>
<path d="M1.68957 268.149L-1.06944 251.62L-9.69833 253.065L-53.6699 260.434L-49.6332 284.572L-5.48881 277.179L1.68957 268.149Z" stroke="#115766" stroke-width="0.680618" stroke-miterlimit="10"/>
<path d="M28.4901 275.455L37.3535 261.243L29.9344 256.611L-16.8024 227.426L-29.752 248.192L17.133 277.469L28.4901 275.455Z" stroke="#46B2C8" stroke-width="0.680618" stroke-miterlimit="10"/>
<path d="M80.3621 265.313L76.6773 248.97L68.141 250.903L5.68945 265.023L11.0841 288.902L73.7022 274.739L80.3621 265.313Z" stroke="#115766" stroke-width="0.680618" stroke-miterlimit="10"/>
<path d="M70.765 291.793V275.042H62.0188H33.873V299.52H62.1916L70.765 291.793Z" stroke="#46B2C8" stroke-width="0.680618" stroke-miterlimit="10"/>
<path d="M104.625 299.563L101.86 283.041L93.2372 284.486L49.2656 291.855L53.3023 315.993L97.4468 308.599L104.625 299.563Z" stroke="#115766" stroke-width="0.680618" stroke-miterlimit="10"/>
<path d="M131.426 306.876L140.289 292.663L132.87 288.031L86.1332 258.846L73.1836 279.612L120.069 308.883L131.426 306.876Z" stroke="#46B2C8" stroke-width="0.680618" stroke-miterlimit="10"/>
<path d="M183.298 296.734L179.607 280.391L171.077 282.324L108.625 296.444L114.013 320.322L176.638 306.159L183.298 296.734Z" stroke="#115766" stroke-width="0.680618" stroke-miterlimit="10"/>
<path d="M134.901 324.294L137.296 307.71L128.637 306.462L75.9743 298.84L72.4746 323.065L125.31 330.712L134.901 324.294Z" stroke="#46B2C8" stroke-width="0.680618" stroke-miterlimit="10"/>
<path d="M3.37585 401.188L-0.309041 384.844L-8.84533 386.778L-71.2969 400.897L-65.9084 424.776L-3.2841 410.613L3.37585 401.188Z" stroke="#115766" stroke-width="0.680618" stroke-miterlimit="10"/>
<path d="M68.3566 369.359L64.6655 353.015L56.1292 354.949L-6.32227 369.068L-0.927668 392.941L61.6905 378.784L68.3566 369.359Z" stroke="#115766" stroke-width="0.680618" stroke-miterlimit="10"/>
<path d="M19.9539 396.919L22.355 380.335L13.6952 379.081L-38.9671 371.465L-42.4668 395.69L10.3683 403.33L19.9539 396.919Z" stroke="#46B2C8" stroke-width="0.680618" stroke-miterlimit="10"/>
<path d="M37.1496 83.6409L33.4586 67.3037L24.9222 69.2308L-37.5293 83.3567L-32.1347 107.229L30.4835 93.0664L37.1496 83.6409Z" stroke="#115766" stroke-width="0.680618" stroke-miterlimit="10"/>
<path d="M27.5462 110.126V93.3687H18.8H-9.3457V117.847H18.9729L27.5462 110.126Z" stroke="#46B2C8" stroke-width="0.680618" stroke-miterlimit="10"/>
<path d="M61.4064 117.897L58.6474 101.374L50.0185 102.82L6.04688 110.182L10.0836 134.327L54.228 126.927L61.4064 117.897Z" stroke="#115766" stroke-width="0.680618" stroke-miterlimit="10"/>
<path d="M88.213 125.21L97.0703 110.991L89.6511 106.359L42.9144 77.1743L29.9648 97.9401L76.8497 127.217L88.213 125.21Z" stroke="#46B2C8" stroke-width="0.680618" stroke-miterlimit="10"/>
<path d="M140.079 115.061L136.394 98.7241L127.858 100.651L65.4062 114.777L70.8009 138.65L133.419 124.487L140.079 115.061Z" stroke="#115766" stroke-width="0.680618" stroke-miterlimit="10"/>
<path d="M109.65 146.043L112.044 129.465L103.385 128.211L50.7224 120.596L47.2227 144.82L100.058 152.461L109.65 146.043Z" stroke="#46B2C8" stroke-width="0.680618" stroke-miterlimit="10"/>
<path d="M43.0699 144.58L43.4464 127.829L34.7003 127.631L-17.6225 126.451L-18.1719 150.923L34.3176 152.103L43.0699 144.58Z" stroke="#46B2C8" stroke-width="0.680618" stroke-miterlimit="10"/>
<path d="M23.4533 54.6473L20.6881 38.1187L12.0592 39.564L-31.9062 46.9327L-27.8695 71.0709L16.2688 63.6775L23.4533 54.6473Z" stroke="#115766" stroke-width="0.680618" stroke-miterlimit="10"/>
<path d="M50.2538 61.9547L59.1172 47.7423L51.6981 43.1098L4.96128 13.9253L-7.98828 34.6911L38.8905 63.9682L50.2538 61.9547Z" stroke="#46B2C8" stroke-width="0.680618" stroke-miterlimit="10"/>
<path d="M102.126 51.8128L98.4348 35.4695L89.9046 37.4028L27.4531 51.5225L32.8415 75.4013L95.4659 61.2383L102.126 51.8128Z" stroke="#115766" stroke-width="0.680618" stroke-miterlimit="10"/>
<path d="M92.529 78.2922V61.5413H83.7767H55.6309V86.0192H83.9495L92.529 78.2922Z" stroke="#46B2C8" stroke-width="0.680618" stroke-miterlimit="10"/>
<path d="M126.389 86.0679L123.624 69.5393L114.995 70.9846L71.0293 78.3533L75.066 102.492L119.204 95.0981L126.389 86.0679Z" stroke="#115766" stroke-width="0.680618" stroke-miterlimit="10"/>
<path d="M153.189 93.3751L162.053 79.1627L154.627 74.5302L107.897 45.3457L94.9473 66.1115L141.826 95.3887L153.189 93.3751Z" stroke="#46B2C8" stroke-width="0.680618" stroke-miterlimit="10"/>
<path d="M205.061 83.2332L201.37 66.8899L192.84 68.8232L130.389 82.9429L135.777 106.822L198.395 92.6587L205.061 83.2332Z" stroke="#115766" stroke-width="0.680618" stroke-miterlimit="10"/>
<path d="M156.665 110.793L159.06 94.2087L150.4 92.9611L97.738 85.3391L94.2383 109.564L147.073 117.21L156.665 110.793Z" stroke="#46B2C8" stroke-width="0.680618" stroke-miterlimit="10"/>
<path d="M25.1395 187.686L21.4485 171.349L12.9183 173.276L-49.5332 187.395L-44.1447 211.274L18.4734 197.111L25.1395 187.686Z" stroke="#115766" stroke-width="0.680618" stroke-miterlimit="10"/>
<path d="M11.4416 158.687L8.68252 142.165L0.0536262 143.61L-43.918 150.979L-39.8813 175.117L4.26315 167.723L11.4416 158.687Z" stroke="#115766" stroke-width="0.680618" stroke-miterlimit="10"/>
<path d="M90.1141 155.857L86.4292 139.514L77.8929 141.447L15.4414 155.567L20.836 179.44L83.4542 165.283L90.1141 155.857Z" stroke="#115766" stroke-width="0.680618" stroke-miterlimit="10"/>
<path d="M41.7178 183.418L44.1127 166.834L35.4529 165.58L-17.2093 157.964L-20.709 182.189L32.1261 189.829L41.7178 183.418Z" stroke="#46B2C8" stroke-width="0.680618" stroke-miterlimit="10"/>
<path d="M158.781 150.7L156.016 134.178L147.394 135.623L103.422 142.992L107.459 167.13L151.603 159.737L158.781 150.7Z" stroke="#115766" stroke-width="0.680618" stroke-miterlimit="10"/>
<path d="M237.454 147.872L233.763 131.529L225.233 133.462L162.781 147.582L168.17 171.46L230.794 157.297L237.454 147.872Z" stroke="#115766" stroke-width="0.680618" stroke-miterlimit="10"/>
<path d="M189.058 175.431L191.453 158.847L182.793 157.599L130.131 149.978L126.631 174.202L179.466 181.849L189.058 175.431Z" stroke="#46B2C8" stroke-width="0.680618" stroke-miterlimit="10"/>
<path d="M140.437 177.383L140.813 160.632L132.067 160.44L79.7505 159.261L79.2012 183.726L131.691 184.912L140.437 177.383Z" stroke="#46B2C8" stroke-width="0.680618" stroke-miterlimit="10"/>
<path d="M227.857 174.351V157.6H219.111H190.959V182.078H219.284L227.857 174.351Z" stroke="#46B2C8" stroke-width="0.680618" stroke-miterlimit="10"/>
<path d="M261.717 182.121L258.952 165.598L250.323 167.043L206.357 174.412L210.394 198.55L254.532 191.157L261.717 182.121Z" stroke="#115766" stroke-width="0.680618" stroke-miterlimit="10"/>
<path d="M288.517 189.433L297.381 175.221L289.962 170.589L243.225 141.404L230.275 162.17L277.16 191.441L288.517 189.433Z" stroke="#46B2C8" stroke-width="0.680618" stroke-miterlimit="10"/>
<path d="M340.389 179.292L336.698 162.948L328.168 164.882L265.717 179.001L271.105 202.88L333.73 188.717L340.389 179.292Z" stroke="#115766" stroke-width="0.680618" stroke-miterlimit="10"/>
<path d="M291.993 206.852L294.388 190.268L285.728 189.02L233.066 181.398L229.566 205.623L282.401 213.27L291.993 206.852Z" stroke="#46B2C8" stroke-width="0.680618" stroke-miterlimit="10"/>
<path d="M243.373 208.803L243.749 192.052L235.003 191.861L182.686 190.681L182.131 215.147L234.626 216.333L243.373 208.803Z" stroke="#46B2C8" stroke-width="0.680618" stroke-miterlimit="10"/>
<path d="M189.902 111.102V94.3508H181.15H153.004V118.829H181.323L189.902 111.102Z" stroke="#46B2C8" stroke-width="0.680618" stroke-miterlimit="10"/>
<path d="M223.764 118.872L220.999 102.349L212.37 103.795L168.398 111.163L172.441 135.302L216.58 127.908L223.764 118.872Z" stroke="#115766" stroke-width="0.680618" stroke-miterlimit="10"/>
<path d="M250.564 126.185L259.428 111.973L252.002 107.334L205.266 78.156L192.322 98.9156L239.201 128.193L250.564 126.185Z" stroke="#46B2C8" stroke-width="0.680618" stroke-miterlimit="10"/>
<path d="M302.437 116.044L298.746 99.7002L290.209 101.633L227.758 115.753L233.152 139.626L295.771 125.469L302.437 116.044Z" stroke="#115766" stroke-width="0.680618" stroke-miterlimit="10"/>
<path d="M292.831 142.522V125.771H284.085H255.939V150.249H284.258L292.831 142.522Z" stroke="#46B2C8" stroke-width="0.680618" stroke-miterlimit="10"/>
<path d="M326.7 150.292L323.934 133.77L315.306 135.215L271.334 142.584L275.377 166.722L319.515 159.329L326.7 150.292Z" stroke="#115766" stroke-width="0.680618" stroke-miterlimit="10"/>
<path d="M353.5 157.606L362.364 143.394L354.938 138.755L308.202 109.577L295.252 130.336L342.137 159.613L353.5 157.606Z" stroke="#46B2C8" stroke-width="0.680618" stroke-miterlimit="10"/>
<path d="M405.372 147.464L401.681 131.121L393.145 133.054L330.693 147.174L336.088 171.046L398.706 156.889L405.372 147.464Z" stroke="#115766" stroke-width="0.680618" stroke-miterlimit="10"/>
<path d="M356.968 175.024L359.363 158.44L350.703 157.186L298.041 149.57L294.541 173.795L347.376 181.435L356.968 175.024Z" stroke="#46B2C8" stroke-width="0.680618" stroke-miterlimit="10"/>
<path d="M9.98022 215.555V198.804H1.22782H-26.918V223.282H1.40067L9.98022 215.555Z" stroke="#46B2C8" stroke-width="0.680618" stroke-miterlimit="10"/>
<path d="M43.84 223.325L41.0748 206.802L32.4459 208.248L-11.5195 215.616L-7.48285 239.754L36.6554 232.361L43.84 223.325Z" stroke="#115766" stroke-width="0.680618" stroke-miterlimit="10"/>
<path d="M70.6404 230.638L79.5039 216.426L72.0786 211.787L25.3479 182.609L12.3984 203.374L59.2772 232.645L70.6404 230.638Z" stroke="#46B2C8" stroke-width="0.680618" stroke-miterlimit="10"/>
<path d="M74.1163 248.056L76.5112 231.472L67.8514 230.218L15.1892 222.602L11.6895 246.827L64.5245 254.467L74.1163 248.056Z" stroke="#46B2C8" stroke-width="0.680618" stroke-miterlimit="10"/>
<path d="M131.419 227.778L134.789 211.367L126.222 209.607L74.9607 199.051L70.0352 223.029L121.463 233.615L131.419 227.778Z" stroke="#46B2C8" stroke-width="0.680618" stroke-miterlimit="10"/>
<path d="M112.916 246.975V230.224H104.163H76.0176V254.702H104.336L112.916 246.975Z" stroke="#46B2C8" stroke-width="0.680618" stroke-miterlimit="10"/>
<path d="M146.776 254.745L144.011 238.223L135.382 239.668L91.4102 247.037L95.453 271.175L139.591 263.782L146.776 254.745Z" stroke="#115766" stroke-width="0.680618" stroke-miterlimit="10"/>
<path d="M173.576 262.059L182.439 247.846L175.014 243.208L128.277 214.029L115.334 234.795L162.213 264.066L173.576 262.059Z" stroke="#46B2C8" stroke-width="0.680618" stroke-miterlimit="10"/>
<path d="M225.448 251.917L221.757 235.573L213.221 237.507L150.77 251.626L156.164 275.499L218.782 261.342L225.448 251.917Z" stroke="#115766" stroke-width="0.680618" stroke-miterlimit="10"/>
<path d="M177.046 279.476L179.441 262.892L170.787 261.638L118.119 254.022L114.625 278.247L167.454 285.888L177.046 279.476Z" stroke="#46B2C8" stroke-width="0.680618" stroke-miterlimit="10"/>
<path d="M74.9544 183.727V166.976H66.2082H38.0625V191.448H66.3811L74.9544 183.727Z" stroke="#46B2C8" stroke-width="0.680618" stroke-miterlimit="10"/>
<path d="M108.817 191.497L106.051 174.975L97.4286 176.42L53.457 183.782L57.4937 207.927L101.638 200.533L108.817 191.497Z" stroke="#115766" stroke-width="0.680618" stroke-miterlimit="10"/>
<path d="M187.489 188.668L183.798 172.325L175.268 174.252L112.816 188.378L118.205 212.25L180.829 198.087L187.489 188.668Z" stroke="#115766" stroke-width="0.680618" stroke-miterlimit="10"/>
<path d="M177.89 215.147V198.396H169.144H140.992V222.868H169.317L177.89 215.147Z" stroke="#46B2C8" stroke-width="0.680618" stroke-miterlimit="10"/>
<path d="M211.752 222.918L208.987 206.395L200.358 207.841L156.393 215.203L160.429 239.348L204.568 231.954L211.752 222.918Z" stroke="#115766" stroke-width="0.680618" stroke-miterlimit="10"/>
<path d="M290.425 220.088L286.734 203.745L278.203 205.672L215.752 219.798L221.14 243.671L283.765 229.508L290.425 220.088Z" stroke="#115766" stroke-width="0.680618" stroke-miterlimit="10"/>
<path d="M242.028 247.642L244.423 231.064L235.764 229.811L183.101 222.195L179.602 246.42L232.437 254.06L242.028 247.642Z" stroke="#46B2C8" stroke-width="0.680618" stroke-miterlimit="10"/>
<path d="M185.582 158.013L194.445 143.801L187.026 139.168L140.289 109.984L127.34 130.75L174.225 160.021L185.582 158.013Z" stroke="#46B2C8" stroke-width="0.680618" stroke-miterlimit="10"/>
<path d="M471.507 171.552L471.884 154.801L463.138 154.604L410.815 153.424L410.266 177.896L462.755 179.081L471.507 171.552Z" stroke="#46B2C8" stroke-width="0.680618" stroke-miterlimit="10"/>
<path d="M349.389 -1.25106L351.784 -17.8291L343.131 -19.083L290.468 -26.6987L286.969 -2.47404L339.798 5.16644L349.389 -1.25106Z" stroke="#46B2C8" stroke-width="0.680618" stroke-miterlimit="10"/>
<path d="M282.808 -2.71514L283.185 -19.4661L274.438 -19.6638L222.122 -20.8435L221.566 3.62824L274.062 4.81414L282.808 -2.71514Z" stroke="#46B2C8" stroke-width="0.680618" stroke-miterlimit="10"/>
<path d="M49.4137 4.03598V-12.7212H40.6614H12.5156V11.7568H40.8342L49.4137 4.03598Z" stroke="#46B2C8" stroke-width="0.680618" stroke-miterlimit="10"/>
<path d="M83.2755 11.8066L80.5104 -4.71582L71.8814 -3.2705L27.916 4.09203L31.9527 28.2364L76.091 20.843L83.2755 11.8066Z" stroke="#115766" stroke-width="0.680618" stroke-miterlimit="10"/>
<path d="M110.076 19.1195L118.939 4.90714L111.514 0.268492L64.7835 -28.916L51.834 -8.15024L98.7128 21.1269L110.076 19.1195Z" stroke="#46B2C8" stroke-width="0.680618" stroke-miterlimit="10"/>
<path d="M113.544 36.5314L115.945 19.9533L107.285 18.6995L54.6228 11.0837L51.123 35.3084L103.958 42.9489L113.544 36.5314Z" stroke="#46B2C8" stroke-width="0.680618" stroke-miterlimit="10"/>
<path d="M64.9312 38.4892L65.3077 21.7382L56.5615 21.5406L4.23879 20.3608L3.68945 44.8326L56.185 46.0124L64.9312 38.4892Z" stroke="#46B2C8" stroke-width="0.680618" stroke-miterlimit="10"/>
<path d="M152.343 35.4564V18.6992H143.597H115.451V43.1772H143.77L152.343 35.4564Z" stroke="#46B2C8" stroke-width="0.680618" stroke-miterlimit="10"/>
<path d="M186.211 43.2263L183.446 26.7039L174.817 28.1492L130.846 35.5117L134.889 59.6561L179.027 52.2627L186.211 43.2263Z" stroke="#115766" stroke-width="0.680618" stroke-miterlimit="10"/>
<path d="M213.012 50.5395L221.875 36.3209L214.45 31.6884L167.713 2.50391L154.77 23.2697L201.648 52.5469L213.012 50.5395Z" stroke="#46B2C8" stroke-width="0.680618" stroke-miterlimit="10"/>
<path d="M264.884 40.3913L261.193 24.0542L252.657 25.9813L190.205 40.1072L195.6 63.9798L258.218 49.8168L264.884 40.3913Z" stroke="#115766" stroke-width="0.680618" stroke-miterlimit="10"/>
<path d="M216.479 67.9514L218.874 51.3733L210.22 50.1194L157.552 42.5037L154.059 66.7284L206.887 74.3689L216.479 67.9514Z" stroke="#46B2C8" stroke-width="0.680618" stroke-miterlimit="10"/>
<path d="M167.867 69.9094L168.243 53.1584L159.497 52.9608L107.174 51.781L106.625 76.2528L159.121 77.4325L167.867 69.9094Z" stroke="#46B2C8" stroke-width="0.680618" stroke-miterlimit="10"/>
<path d="M226.923 -22.8564L223.232 -39.1936L214.702 -37.2665L152.25 -23.1467L157.638 0.732051L220.263 -13.4309L226.923 -22.8564Z" stroke="#115766" stroke-width="0.680618" stroke-miterlimit="10"/>
<path d="M217.326 3.62826V-13.1289H208.58H180.428V11.349H208.752L217.326 3.62826Z" stroke="#46B2C8" stroke-width="0.680618" stroke-miterlimit="10"/>
<path d="M251.188 11.3982L248.422 -5.13037L239.794 -3.68505L195.828 3.68365L199.865 27.8219L244.003 20.4284L251.188 11.3982Z" stroke="#115766" stroke-width="0.680618" stroke-miterlimit="10"/>
<path d="M329.86 8.56322L326.169 -7.77393L317.639 -5.84682L255.188 8.27292L260.576 32.1517L323.2 17.9887L329.86 8.56322Z" stroke="#115766" stroke-width="0.680618" stroke-miterlimit="10"/>
<path d="M281.462 36.1233L283.857 19.5391L275.197 18.2914L222.535 10.6694L219.035 34.8941L271.87 42.5407L281.462 36.1233Z" stroke="#46B2C8" stroke-width="0.680618" stroke-miterlimit="10"/>
<path d="M398.527 3.41208L395.762 -13.1104L387.133 -11.665L343.168 -4.3025L347.205 19.8419L391.343 12.4423L398.527 3.41208Z" stroke="#115766" stroke-width="0.680618" stroke-miterlimit="10"/>
<path d="M477.198 0.577391L473.507 -15.7598L464.977 -13.8326L402.525 0.287089L407.914 24.1659L470.532 10.0029L477.198 0.577391Z" stroke="#115766" stroke-width="0.680618" stroke-miterlimit="10"/>
<path d="M428.802 28.1371L431.197 11.5591L422.537 10.3052L369.875 2.68945L366.375 26.9141L419.21 34.5546L428.802 28.1371Z" stroke="#46B2C8" stroke-width="0.680618" stroke-miterlimit="10"/>
<path d="M380.183 30.0887L380.56 13.3439L371.813 13.1463L319.497 11.9666L318.941 36.4383L371.437 37.618L380.183 30.0887Z" stroke="#46B2C8" stroke-width="0.680618" stroke-miterlimit="10"/>
<path d="M249.718 68.2605V51.5095H240.972H212.826V75.9874H241.145L249.718 68.2605Z" stroke="#46B2C8" stroke-width="0.680618" stroke-miterlimit="10"/>
<path d="M283.586 76.0369L280.821 59.5083L272.192 60.9536L228.221 68.3223L232.264 92.4605L276.402 85.0671L283.586 76.0369Z" stroke="#115766" stroke-width="0.680618" stroke-miterlimit="10"/>
<path d="M310.385 83.3436L319.248 69.1312L311.823 64.4987L265.086 35.3142L252.137 56.08L299.022 85.3571L310.385 83.3436Z" stroke="#46B2C8" stroke-width="0.680618" stroke-miterlimit="10"/>
<path d="M313.855 100.762L316.249 84.1775L307.59 82.9298L254.927 75.3079L251.428 99.5326L304.263 107.179L313.855 100.762Z" stroke="#46B2C8" stroke-width="0.680618" stroke-miterlimit="10"/>
<path d="M265.242 102.714L265.618 85.9687L256.872 85.7711L204.549 84.5913L204 109.057L256.489 110.243L265.242 102.714Z" stroke="#46B2C8" stroke-width="0.680618" stroke-miterlimit="10"/>
<path d="M371.165 80.4842L374.535 64.0729L365.968 62.3126L314.707 51.7629L309.775 75.7344L361.209 86.3211L371.165 80.4842Z" stroke="#46B2C8" stroke-width="0.680618" stroke-miterlimit="10"/>
<path d="M165.163 14.0609L168.539 -2.34423L159.966 -4.11073L108.711 -14.6604L103.779 9.31104L155.207 19.8978L165.163 14.0609Z" stroke="#46B2C8" stroke-width="0.680618" stroke-miterlimit="10"/>
<path d="M352.654 99.6809V82.9299H343.907H315.762V107.408H344.08L352.654 99.6809Z" stroke="#46B2C8" stroke-width="0.680618" stroke-miterlimit="10"/>
<path d="M386.516 107.457L383.757 90.9287L375.128 92.3741L331.156 99.7428L335.193 123.881L379.337 116.488L386.516 107.457Z" stroke="#115766" stroke-width="0.680618" stroke-miterlimit="10"/>
<path d="M413.316 114.764L422.18 100.552L414.761 95.9191L368.024 66.7346L355.074 87.5004L401.959 116.778L413.316 114.764Z" stroke="#46B2C8" stroke-width="0.680618" stroke-miterlimit="10"/>
<path d="M465.188 104.622L461.503 88.2788L452.967 90.2121L390.516 104.332L395.904 128.211L458.528 114.048L465.188 104.622Z" stroke="#115766" stroke-width="0.680618" stroke-miterlimit="10"/>
<path d="M416.79 132.183L419.185 115.598L410.525 114.351L357.863 106.729L354.363 130.953L407.198 138.6L416.79 132.183Z" stroke="#46B2C8" stroke-width="0.680618" stroke-miterlimit="10"/>
<path d="M368.171 134.134L368.554 117.389L359.801 117.191L307.485 116.011L306.936 140.477L359.425 141.663L368.171 134.134Z" stroke="#46B2C8" stroke-width="0.680618" stroke-miterlimit="10"/>
<path d="M314.701 36.4319V19.6809H305.949H277.803V44.1589H306.121L314.701 36.4319Z" stroke="#46B2C8" stroke-width="0.680618" stroke-miterlimit="10"/>
<path d="M348.561 44.2024L345.795 27.6799L337.167 29.1253L293.201 36.494L297.238 60.6322L341.376 53.2388L348.561 44.2024Z" stroke="#115766" stroke-width="0.680618" stroke-miterlimit="10"/>
<path d="M427.233 41.3736L423.542 25.0303L415.012 26.9636L352.561 41.0833L357.949 64.9559L420.567 50.7991L427.233 41.3736Z" stroke="#115766" stroke-width="0.680618" stroke-miterlimit="10"/>
<path d="M417.636 67.8528V51.1018H408.884H380.738V75.5797H409.057L417.636 67.8528Z" stroke="#46B2C8" stroke-width="0.680618" stroke-miterlimit="10"/>
<path d="M451.498 75.6228L448.733 59.1003L440.104 60.5457L396.139 67.9144L400.175 92.0526L444.314 84.6592L451.498 75.6228Z" stroke="#115766" stroke-width="0.680618" stroke-miterlimit="10"/>
<path d="M425.326 10.7191L434.189 -3.49332L426.764 -8.12578L380.033 -37.3103L367.084 -16.5445L413.963 12.7326L425.326 10.7191Z" stroke="#46B2C8" stroke-width="0.680618" stroke-miterlimit="10"/>
</g>
</g>
</svg>
