<svg width="573" height="382" viewBox="0 0 573 382" fill="none" xmlns="http://www.w3.org/2000/svg">
<g filter="url(#filter0_d_2847_20892)">
<path d="M16 14.7576C16 11.0255 19.107 8 22.9397 8H549.487C553.319 8 556.426 11.0255 556.426 14.7576V351.242C556.426 354.975 553.319 358 549.487 358H22.9396C19.107 358 16 354.975 16 351.242V14.7576Z" fill="#EEEFEF"/>
</g>
<path d="M16 14.7675C16 11.0299 19.1068 8 22.9392 8H549.487C553.32 8 556.426 11.0299 556.426 14.7675V46.4393H16V14.7675Z" fill="#C9EAF1"/>
<path d="M56.0039 27.1401C56.0039 30.2467 53.4855 32.7651 50.3789 32.7651C47.2723 32.7651 44.7539 30.2467 44.7539 27.1401C44.7539 24.0335 47.2723 21.5151 50.3789 21.5151C53.4855 21.5151 56.0039 24.0335 56.0039 27.1401Z" fill="white"/>
<path d="M77.25 27.1401C77.25 30.2467 74.7316 32.7651 71.625 32.7651C68.5184 32.7651 66 30.2467 66 27.1401C66 24.0335 68.5184 21.5151 71.625 21.5151C74.7316 21.5151 77.25 24.0335 77.25 27.1401Z" fill="white"/>
<path d="M98.5117 27.1401C98.5117 30.2467 95.9933 32.7651 92.8867 32.7651C89.7801 32.7651 87.2617 30.2467 87.2617 27.1401C87.2617 24.0335 89.7801 21.5151 92.8867 21.5151C95.9933 21.5151 98.5117 24.0335 98.5117 27.1401Z" fill="white"/>
<g filter="url(#filter1_d_2847_20892)">
<path d="M16 46.4392H44.8295V358H16V46.4392Z" fill="#115766"/>
</g>
<path opacity="0.4" d="M30.25 188.785V189.079V190.927V191.221H30.8368V190.927V189.079V188.785H30.25Z" fill="#C2E2E9"/>
<path opacity="0.4" fill-rule="evenodd" clip-rule="evenodd" d="M30.0312 188.569H31.0507V191.437H30.0312V188.569ZM30.4639 189.002V191.005H30.6181V189.002H30.4639Z" fill="#C2E2E9"/>
<path opacity="0.4" d="M27.4205 190.838L27.2383 191.396L27.5179 191.487L29.2761 192.057L29.5546 192.149L29.7368 191.591L29.4571 191.499L27.699 190.928L27.4205 190.838Z" fill="#C2E2E9"/>
<path opacity="0.4" fill-rule="evenodd" clip-rule="evenodd" d="M27.2853 190.565L29.5279 191.294L30.0129 191.453L29.6963 192.422L29.2127 192.263L29.2118 192.263L26.9688 191.535L27.2853 190.565ZM27.5625 191.11L27.5146 191.257L29.3471 191.852L29.4196 191.876L29.4675 191.729L29.3938 191.705L29.3932 191.705L27.5625 191.11Z" fill="#C2E2E9"/>
<path opacity="0.4" d="M29.7479 192.747L29.576 192.984L28.4883 194.48L28.3164 194.717L28.7909 195.062L28.964 194.825L30.0505 193.329L30.2224 193.091L29.7479 192.747Z" fill="#C2E2E9"/>
<path opacity="0.4" fill-rule="evenodd" clip-rule="evenodd" d="M29.7008 192.445L30.5252 193.042L30.227 193.456L30.2266 193.457L29.1401 194.952L28.8395 195.364L28.0156 194.765L28.3143 194.353L29.7008 192.445ZM29.7972 193.049L28.6646 194.607L28.6194 194.669L28.7445 194.76L28.7901 194.698L29.8761 193.203L29.8766 193.202L29.9218 193.14L29.7972 193.049Z" fill="#C2E2E9"/>
<path opacity="0.4" d="M31.3378 192.747L30.8633 193.091L31.0352 193.329L32.1217 194.825L32.2948 195.062L32.7693 194.717L32.5973 194.48L31.5097 192.984L31.3378 192.747Z" fill="#C2E2E9"/>
<path opacity="0.4" fill-rule="evenodd" clip-rule="evenodd" d="M31.3869 192.445L32.7732 194.353L33.0721 194.765L32.2482 195.364L31.9479 194.953L30.8607 193.456L30.5625 193.042L31.3869 192.445ZM31.1659 193.14L31.2113 193.203L32.2974 194.698L32.3432 194.76L32.4683 194.669L32.4233 194.607L31.2904 193.049L31.1659 193.14Z" fill="#C2E2E9"/>
<path opacity="0.4" d="M33.6561 190.838L33.3776 190.928L31.6195 191.499L31.3398 191.591L31.5221 192.149L31.8006 192.057L33.5587 191.487L33.8384 191.396L33.6561 190.838Z" fill="#C2E2E9"/>
<path opacity="0.4" fill-rule="evenodd" clip-rule="evenodd" d="M33.7979 190.565L34.1144 191.535L31.8714 192.263L31.3869 192.422L31.0703 191.453L31.5559 191.293L33.7979 190.565ZM33.5207 191.11L31.69 191.705L31.6894 191.705L31.6157 191.729L31.6636 191.876L31.7369 191.852L33.5686 191.257L33.5207 191.11Z" fill="#C2E2E9"/>
<path d="M30.5383 190.634C29.6989 190.634 29.0117 191.32 29.0117 192.159C29.0117 192.999 29.6989 193.686 30.5383 193.686C31.3778 193.686 32.0649 192.999 32.0649 192.159C32.0649 191.32 31.3778 190.634 30.5383 190.634ZM30.5383 191.221C31.0607 191.221 31.4781 191.637 31.4781 192.159C31.4781 192.682 31.0607 193.099 30.5383 193.099C30.016 193.099 29.5985 192.682 29.5985 192.159C29.5985 191.637 30.016 191.221 30.5383 191.221Z" fill="#C2E2E9"/>
<path fill-rule="evenodd" clip-rule="evenodd" d="M28.7969 192.159C28.7969 191.2 29.5811 190.417 30.5398 190.417C31.4985 190.417 32.2827 191.2 32.2827 192.159C32.2827 193.118 31.4987 193.902 30.5398 193.902C29.5809 193.902 28.7969 193.118 28.7969 192.159ZM30.5398 190.85C29.8196 190.85 29.2295 191.439 29.2295 192.159C29.2295 192.879 29.8198 193.469 30.5398 193.469C31.2598 193.469 31.8501 192.879 31.8501 192.159C31.8501 191.439 31.26 190.85 30.5398 190.85ZM30.5398 191.437C30.1366 191.437 29.8163 191.756 29.8163 192.159C29.8163 192.562 30.1369 192.883 30.5398 192.883C30.9427 192.883 31.2633 192.562 31.2633 192.159C31.2633 191.756 30.943 191.437 30.5398 191.437ZM29.3837 192.159C29.3837 191.517 29.8983 191.004 30.5398 191.004C31.1813 191.004 31.6959 191.517 31.6959 192.159C31.6959 192.801 31.1816 193.315 30.5398 193.315C29.898 193.315 29.3837 192.801 29.3837 192.159Z" fill="#C2E2E9"/>
<path opacity="0.4" d="M30.5389 187.552C30.0401 187.552 29.6289 187.963 29.6289 188.462C29.6289 188.961 30.0401 189.371 30.5389 189.371C31.0378 189.371 31.4489 188.961 31.4489 188.462C31.4489 187.963 31.0378 187.552 30.5389 187.552ZM30.5389 188.139C30.7206 188.139 30.8621 188.28 30.8621 188.462C30.8621 188.644 30.7206 188.784 30.5389 188.784C30.3572 188.784 30.2157 188.644 30.2157 188.462C30.2157 188.28 30.3572 188.139 30.5389 188.139Z" fill="#C2E2E9"/>
<path opacity="0.4" fill-rule="evenodd" clip-rule="evenodd" d="M29.4102 188.462C29.4102 187.844 29.9182 187.336 30.5365 187.336C31.1548 187.336 31.6628 187.844 31.6628 188.462C31.6628 189.081 31.1544 189.587 30.5365 189.587C29.9185 189.587 29.4102 189.081 29.4102 188.462ZM30.5365 187.768C30.1571 187.768 29.8428 188.083 29.8428 188.462C29.8428 188.841 30.1567 189.155 30.5365 189.155C30.9162 189.155 31.2302 188.841 31.2302 188.462C31.2302 188.083 30.9159 187.768 30.5365 187.768ZM30.5365 188.355C30.4742 188.355 30.4296 188.4 30.4296 188.462C30.4296 188.523 30.4732 188.568 30.5365 188.568C30.5997 188.568 30.6434 188.523 30.6434 188.462C30.6434 188.4 30.5987 188.355 30.5365 188.355ZM29.997 188.462C29.997 188.161 30.2353 187.922 30.5365 187.922C30.8377 187.922 31.076 188.161 31.076 188.462C31.076 188.764 30.8367 189 30.5365 189C30.2363 189 29.997 188.764 29.997 188.462Z" fill="#C2E2E9"/>
<path opacity="0.4" d="M27.3023 190.152C26.8283 189.998 26.3114 190.262 26.1574 190.736C26.0033 191.21 26.2663 191.728 26.7407 191.882C27.2154 192.036 27.7339 191.772 27.888 191.298C28.042 190.824 27.7778 190.306 27.3035 190.152H27.3023ZM27.1213 190.71H27.1224C27.2953 190.766 27.3858 190.944 27.3298 191.117C27.2739 191.289 27.095 191.38 26.9218 191.324C26.7496 191.268 26.6596 191.089 26.7155 190.917C26.7715 190.745 26.949 190.654 27.1213 190.71Z" fill="#C2E2E9"/>
<path opacity="0.4" fill-rule="evenodd" clip-rule="evenodd" d="M27.3361 189.935C26.7581 189.769 26.1403 190.093 25.9532 190.669C25.7622 191.257 26.0871 191.897 26.6754 192.088L26.6755 192.088C27.2637 192.279 27.9042 191.953 28.0953 191.365C28.2863 190.777 27.9596 190.137 27.3719 189.946L27.3393 189.935H27.3361ZM27.2373 190.357C26.8768 190.241 26.4818 190.442 26.3646 190.803C26.2473 191.164 26.4485 191.559 26.8091 191.677C27.1703 191.794 27.5666 191.592 27.6838 191.231C27.7987 190.877 27.6064 190.489 27.2578 190.364L27.2373 190.357ZM27.0559 190.916C26.9981 190.897 26.9421 190.925 26.9228 190.984C26.9034 191.044 26.9327 191.1 26.9902 191.118L26.9234 191.324L26.9901 191.118C27.0499 191.138 27.1067 191.108 27.1256 191.05C27.1438 190.994 27.119 190.941 27.0661 190.919L27.0559 190.916ZM26.9234 191.324L26.9233 191.324L26.9234 191.324ZM27.1528 190.493C26.8778 190.424 26.6 190.578 26.5113 190.85C26.4188 191.135 26.5696 191.437 26.8565 191.53L26.8566 191.53C27.1432 191.623 27.4442 191.469 27.5371 191.183C27.6299 190.898 27.4776 190.597 27.1906 190.504L27.1581 190.493H27.1528Z" fill="#C2E2E9"/>
<path opacity="0.4" d="M28.2226 194.254C27.9921 194.291 27.7756 194.415 27.6289 194.617C27.3358 195.02 27.4269 195.594 27.8307 195.888C28.2343 196.18 28.8083 196.089 29.1017 195.686C29.3943 195.282 29.3035 194.708 28.9 194.415C28.6981 194.268 28.4532 194.218 28.2226 194.254ZM28.555 194.889C28.7019 194.996 28.7324 195.194 28.626 195.341C28.519 195.487 28.322 195.518 28.1756 195.412C28.0299 195.305 27.9978 195.107 28.1034 194.962C28.2104 194.814 28.4084 194.783 28.555 194.889Z" fill="#C2E2E9"/>
<path opacity="0.4" fill-rule="evenodd" clip-rule="evenodd" d="M28.1901 194.041C28.474 193.996 28.7776 194.057 29.0287 194.24L29.0287 194.24C29.5288 194.604 29.6409 195.313 29.2783 195.813L29.2781 195.813C28.9145 196.313 28.2054 196.425 27.7052 196.063L27.7049 196.063C27.2048 195.699 27.092 194.99 27.4554 194.489L27.4555 194.489C27.6375 194.239 27.906 194.086 28.1901 194.041ZM28.2241 194.254L28.1901 194.041L28.2241 194.254ZM28.9281 195.559C29.1506 195.252 29.0811 194.813 28.7743 194.59C28.6215 194.479 28.4353 194.44 28.2581 194.468L28.2241 194.254L28.2581 194.468C28.0812 194.496 27.9166 194.591 27.8054 194.744L27.6304 194.617L27.8054 194.744C27.5827 195.05 27.6521 195.489 27.9592 195.713C28.2663 195.935 28.705 195.866 28.9281 195.559ZM28.9281 195.559C28.9282 195.559 28.9282 195.559 28.9282 195.559L29.1032 195.686L28.928 195.559C28.9281 195.559 28.9281 195.559 28.9281 195.559ZM28.4293 195.064C28.3799 195.028 28.317 195.038 28.2799 195.089C28.2455 195.136 28.2538 195.2 28.3045 195.237C28.354 195.273 28.4159 195.263 28.4527 195.213C28.4892 195.163 28.4788 195.1 28.4293 195.064ZM28.6837 194.714L28.5565 194.889L28.6837 194.714C28.9279 194.892 28.9786 195.225 28.8027 195.468L28.802 195.469L28.802 195.469C28.6249 195.71 28.2933 195.763 28.0502 195.587L28.0492 195.586L28.0492 195.586C27.8089 195.41 27.7532 195.078 27.9299 194.834L27.93 194.834C28.1067 194.591 28.4398 194.537 28.6837 194.714Z" fill="#C2E2E9"/>
<path opacity="0.4" d="M32.8515 194.254C32.6209 194.218 32.376 194.268 32.1741 194.415C31.7706 194.708 31.6798 195.282 31.9724 195.686C32.2658 196.089 32.8398 196.18 33.2434 195.888C33.6472 195.594 33.7383 195.02 33.4452 194.617C33.2985 194.415 33.082 194.291 32.8515 194.254ZM32.5191 194.889C32.6657 194.783 32.8637 194.814 32.9707 194.962C33.0763 195.107 33.0442 195.305 32.8985 195.412C32.7521 195.518 32.5551 195.487 32.4481 195.341C32.3417 195.194 32.3722 194.996 32.5191 194.889Z" fill="#C2E2E9"/>
<path opacity="0.4" fill-rule="evenodd" clip-rule="evenodd" d="M32.0445 194.24C32.2956 194.057 32.5991 193.996 32.883 194.041L32.849 194.255L32.883 194.041C33.1672 194.086 33.4356 194.239 33.6177 194.489L33.6178 194.489C33.9812 194.99 33.8684 195.699 33.3682 196.063L33.368 196.063C32.8678 196.425 32.1586 196.313 31.795 195.813L31.7949 195.813C31.4322 195.313 31.5444 194.604 32.0445 194.24L32.0445 194.24ZM32.8151 194.468C32.6379 194.44 32.4517 194.479 32.2989 194.59C31.992 194.813 31.9225 195.252 32.1451 195.559C32.3682 195.866 32.8069 195.935 33.114 195.713C33.4211 195.489 33.4905 195.05 33.2678 194.744M32.8151 194.468C32.992 194.496 33.1565 194.591 33.2677 194.744L32.8151 194.468ZM32.7932 195.089C32.7561 195.038 32.6932 195.028 32.6439 195.064C32.5944 195.1 32.5839 195.163 32.6204 195.213C32.6573 195.263 32.7192 195.273 32.7686 195.237C32.8194 195.2 32.8277 195.136 32.7933 195.089M32.3895 194.714C32.6334 194.537 32.9665 194.591 33.1432 194.834L33.1433 194.834C33.32 195.078 33.2643 195.41 33.0239 195.586L33.023 195.587L33.023 195.587C32.7799 195.763 32.4483 195.71 32.2712 195.469L32.2705 195.468L32.2705 195.468C32.0946 195.225 32.1453 194.892 32.3895 194.714L32.3895 194.714Z" fill="#C2E2E9"/>
<path opacity="0.4" d="M33.773 190.152C33.2986 190.306 33.0345 190.824 33.1885 191.298C33.3426 191.772 33.861 192.036 34.3357 191.882C34.8102 191.728 35.0732 191.21 34.9191 190.736C34.7651 190.262 34.2482 189.998 33.7741 190.152H33.773ZM33.9541 190.71H33.9552C34.1275 190.654 34.305 190.745 34.361 190.917C34.4169 191.089 34.3269 191.268 34.1547 191.324C33.9815 191.38 33.8026 191.289 33.7467 191.117C33.6907 190.944 33.7812 190.766 33.9541 190.71H33.9541Z" fill="#C2E2E9"/>
<path opacity="0.4" fill-rule="evenodd" clip-rule="evenodd" d="M33.7434 189.935C34.3214 189.769 34.9392 190.093 35.1264 190.669C35.3173 191.257 34.9924 191.897 34.4041 192.088L34.404 192.088C33.8159 192.279 33.1754 191.953 32.9843 191.365C32.7933 190.777 33.1199 190.137 33.7076 189.946L33.7402 189.935H33.7434ZM34.7149 190.803C34.5978 190.442 34.2027 190.241 33.8422 190.357L33.8218 190.364C33.4731 190.489 33.2809 190.877 33.3957 191.231C33.5129 191.592 33.9092 191.794 34.2704 191.677M34.1568 190.984C34.1375 190.925 34.0815 190.897 34.0236 190.916L34.0134 190.919C33.9606 190.941 33.9358 190.994 33.9539 191.05C33.9729 191.108 34.0296 191.138 34.0894 191.118C34.1469 191.1 34.1762 191.044 34.1568 190.984L34.3491 190.922L34.1568 190.984ZM34.1562 191.324L34.1562 191.324L34.1562 191.324L33.9556 190.71V190.706C34.4756 190.565 34.1766 190.411 33.8899 190.504C34.5099 191.437 34.6608 191.135 34.5682 190.85L34.223 191.53C33.6354 191.469 33.9364 191.623 34.2229 191.53C33.602 190.597 33.4497 190.898 33.5425 191.183L33.8889 190.504M34.7149 190.803C34.8322 191.164 34.631 191.559 34.2705 191.676L34.7149 190.803Z" fill="#C2E2E9"/>
<path opacity="0.4" d="M32.3461 78.0505H33.8446C34.4652 78.0505 34.968 78.6301 34.968 79.3453V81.0723C34.968 81.7876 34.4652 82.3671 33.8446 82.3671H32.3461C31.7255 82.3671 31.2227 81.7876 31.2227 81.0723V79.3453C31.2227 78.6301 31.7255 78.0505 32.3461 78.0505Z" fill="white"/>
<path d="M28.743 83.8496C29.3636 83.8496 29.8665 84.4291 29.8665 85.1443V86.8714C29.8665 87.5861 29.3636 88.1661 28.743 88.1661H27.2445C26.624 88.1661 26.1211 87.5861 26.1211 86.8714V85.1443C26.1211 84.4291 26.624 83.8496 27.2445 83.8496H28.743ZM33.8488 83.8496C34.4694 83.8496 34.9722 84.4291 34.9722 85.1443V86.8714C34.9722 87.5861 34.4694 88.1661 33.8488 88.1661H32.3503C31.7297 88.1661 31.2269 87.5861 31.2269 86.8714V85.1443C31.2269 84.4291 31.7297 83.8496 32.3503 83.8496H33.8488ZM28.743 78.0505C29.3636 78.0505 29.8665 78.6301 29.8665 79.3453V81.0723C29.8665 81.7876 29.3636 82.3671 28.743 82.3671H27.2445C26.624 82.3671 26.1211 81.7876 26.1211 81.0723V79.3453C26.1211 78.6301 26.624 78.0505 27.2445 78.0505H28.743Z" fill="#C7E8EF"/>
<path opacity="0.4" d="M32.6075 104.604H28.4863C26.9915 104.604 26.1211 105.48 26.1211 106.98V112.059C26.1211 113.583 26.9915 114.439 28.4863 114.439H32.6075C34.1265 114.439 34.9722 113.583 34.9722 112.059V106.98C34.9722 105.48 34.1265 104.604 32.6075 104.604Z" fill="white"/>
<path d="M28.6192 111.361H32.4744C32.6706 111.381 32.8186 111.548 32.8186 111.749C32.8186 111.946 32.6706 112.113 32.4744 112.133H28.6192C28.4717 112.153 28.3291 112.079 28.2504 111.956C28.1717 111.828 28.1717 111.666 28.2504 111.543C28.3291 111.415 28.4717 111.346 28.6192 111.361ZM32.4744 109.118C32.6858 109.118 32.8579 109.291 32.8579 109.502C32.8579 109.714 32.6858 109.886 32.4744 109.886H28.6192C28.4073 109.886 28.2357 109.714 28.2357 109.502C28.2357 109.291 28.4073 109.118 28.6192 109.118H32.4744ZM30.089 106.891C30.3009 106.891 30.473 107.063 30.473 107.274C30.473 107.491 30.3009 107.663 30.089 107.663H28.6192C28.4073 107.663 28.2357 107.491 28.2357 107.28C28.2357 107.068 28.4073 106.896 28.6192 106.896V106.891H30.089Z" fill="white"/>
<path opacity="0.4" d="M30.5917 142.582C30.5273 142.582 30.4628 142.567 30.4046 142.537L28.5297 141.567C27.9976 141.291 27.5815 140.981 27.2565 140.621C26.5452 139.833 26.1494 138.821 26.1431 137.771L26.1211 134.316C26.1185 133.918 26.3759 133.56 26.7606 133.425L30.2033 132.225C30.4077 132.152 30.6358 132.151 30.8438 132.221L34.2997 133.38C34.6865 133.51 34.948 133.865 34.9501 134.263L34.9722 137.721C34.979 138.769 34.5969 139.785 33.8966 140.582C33.5753 140.947 33.1627 141.261 32.636 141.542L30.7778 142.535C30.7201 142.566 30.6562 142.582 30.5917 142.582Z" fill="#C2E2E9"/>
<path d="M30.1942 138.584C30.0936 138.584 29.9929 138.548 29.9154 138.473L28.9173 137.514C28.7632 137.365 28.7617 137.123 28.9142 136.972C29.0667 136.822 29.3157 136.82 29.4703 136.969L30.1884 137.659L31.9418 135.93C32.0948 135.78 32.3438 135.778 32.4979 135.927C32.6525 136.076 32.6541 136.318 32.5016 136.468L30.4715 138.47C30.395 138.545 30.2949 138.583 30.1942 138.584Z" fill="#C2E2E9"/>
<path opacity="0.4" d="M28.203 218.602C27.9746 218.602 27.7897 218.816 27.7897 219.081L27.6758 221.397C27.6758 221.735 27.912 222.008 28.203 222.008C28.4941 222.008 28.7298 221.735 28.7298 221.397L28.6164 219.081C28.6164 218.816 28.4315 218.602 28.203 218.602Z" fill="#C7E8EF"/>
<path d="M28.7678 213.94C28.7678 213.94 28.6491 213.801 28.5756 213.74C28.4689 213.646 28.3373 213.599 28.2063 213.599C28.0592 213.599 27.9225 213.652 27.8111 213.752C27.7909 213.775 27.7049 213.864 27.634 213.946C27.1886 214.427 26.4598 215.683 26.2371 216.341C26.2019 216.441 26.1258 216.693 26.1211 216.828C26.1211 216.957 26.146 217.081 26.1967 217.198C26.2677 217.344 26.379 217.462 26.5106 217.526C26.6017 217.568 26.8747 217.632 26.8799 217.632C27.1787 217.697 27.6645 217.732 28.2011 217.732C28.7123 217.732 29.178 217.697 29.4815 217.644C29.4866 217.638 29.8254 217.574 29.9419 217.503C30.1543 217.374 30.2863 217.121 30.2863 216.852V216.828C30.2812 216.652 30.1491 216.282 30.1444 216.282C29.9217 215.66 29.2282 214.433 28.7678 213.94Z" fill="#C7E8EF"/>
<path opacity="0.4" d="M32.8944 217.701C33.1229 217.701 33.3078 217.487 33.3078 217.222L33.4212 214.906C33.4212 214.569 33.1855 214.295 32.8944 214.295C32.6034 214.295 32.3672 214.569 32.3672 214.906L32.4811 217.222C32.4811 217.487 32.666 217.701 32.8944 217.701Z" fill="#C7E8EF"/>
<path d="M34.9021 219.105C34.8312 218.958 34.7198 218.841 34.5883 218.776C34.4971 218.735 34.2236 218.671 34.219 218.671C33.9201 218.606 33.4343 218.571 32.8977 218.571C32.3865 218.571 31.9209 218.606 31.6174 218.659C31.6122 218.665 31.2735 218.729 31.1569 218.8C30.9441 218.929 30.8125 219.181 30.8125 219.451V219.475C30.8177 219.651 30.9492 220.02 30.9544 220.02C31.1771 220.643 31.8701 221.87 32.3311 222.363C32.3311 222.363 32.4497 222.502 32.5232 222.562C32.6294 222.656 32.761 222.703 32.8931 222.703C33.0396 222.703 33.1758 222.65 33.2877 222.551C33.3079 222.527 33.3939 222.439 33.4649 222.357C33.9098 221.876 34.639 220.619 34.8612 219.962C34.897 219.862 34.9731 219.609 34.9778 219.475C34.9778 219.346 34.9529 219.222 34.9021 219.105Z" fill="#C7E8EF"/>
<path d="M30.5279 243.382C29.1399 243.382 27.9688 243.609 27.9688 244.484C27.9688 245.36 29.1475 245.579 30.5279 245.579C31.9159 245.579 33.0871 245.352 33.0871 244.476C33.0871 243.601 31.9084 243.382 30.5279 243.382Z" fill="#C7E8EF"/>
<path opacity="0.4" d="M30.5294 242.548C31.4693 242.548 32.2229 241.79 32.2229 240.845C32.2229 239.899 31.4693 239.141 30.5294 239.141C29.5896 239.141 28.8359 239.899 28.8359 240.845C28.8359 241.79 29.5896 242.548 30.5294 242.548Z" fill="#C7E8EF"/>
<path opacity="0.4" d="M34.2038 241.241C34.447 240.285 33.7341 239.426 32.8263 239.426C32.7276 239.426 32.6332 239.436 32.541 239.455C32.5287 239.458 32.515 239.464 32.5078 239.475C32.4995 239.489 32.5057 239.507 32.5147 239.519C32.7874 239.904 32.9441 240.372 32.9441 240.875C32.9441 241.357 32.8003 241.806 32.5482 242.179C32.5222 242.218 32.5453 242.269 32.591 242.277C32.6544 242.289 32.7193 242.294 32.7856 242.296C33.4466 242.314 34.0399 241.886 34.2038 241.241Z" fill="#C7E8EF"/>
<path d="M34.8981 243.494C34.777 243.234 34.4849 243.056 34.0407 242.969C33.831 242.918 33.2636 242.845 32.7359 242.855C32.728 242.856 32.7236 242.861 32.7229 242.865C32.7218 242.87 32.724 242.879 32.7344 242.884C32.9783 243.006 33.9211 243.534 33.8026 244.647C33.7975 244.695 33.8361 244.737 33.884 244.73C34.116 244.696 34.7129 244.567 34.8981 244.165C35.0004 243.953 35.0004 243.706 34.8981 243.494Z" fill="#C7E8EF"/>
<path opacity="0.4" d="M28.5623 239.455C28.4704 239.436 28.3757 239.426 28.277 239.426C27.3692 239.426 26.6562 240.285 26.8998 241.241C27.0633 241.886 27.6566 242.314 28.3177 242.296C28.384 242.295 28.4492 242.288 28.5122 242.278C28.558 242.27 28.581 242.218 28.5551 242.179C28.3029 241.806 28.1592 241.357 28.1592 240.875C28.1592 240.372 28.3162 239.904 28.589 239.519C28.5976 239.507 28.6041 239.489 28.5954 239.475C28.5882 239.464 28.5749 239.458 28.5623 239.455Z" fill="#C7E8EF"/>
<path d="M27.0551 242.969C26.6109 243.056 26.3191 243.234 26.1981 243.493C26.0954 243.706 26.0954 243.953 26.1981 244.165C26.3833 244.567 26.9802 244.696 27.2122 244.729C27.2601 244.736 27.2983 244.695 27.2932 244.647C27.1747 243.534 28.1175 243.006 28.3617 242.884C28.3718 242.879 28.374 242.87 28.3729 242.865C28.3722 242.861 28.3682 242.856 28.3603 242.855C27.8322 242.845 27.2651 242.917 27.0551 242.969Z" fill="#C7E8EF"/>
<path d="M27.0609 169.777C27.1034 169.777 27.1374 169.743 27.1374 169.701C27.1374 169.658 27.1034 169.624 27.0609 169.624C27.0184 169.624 26.9844 169.658 26.9844 169.701C26.9844 169.743 27.0184 169.777 27.0609 169.777Z" fill="#C2E2E9"/>
<path d="M34.3254 169.279H31.1907C31.038 169.279 30.9141 169.155 30.9141 169.002V164.023C30.9141 163.94 30.9517 163.861 31.0162 163.809C31.0808 163.756 31.1652 163.735 31.2471 163.753L34.4618 164.426C34.7628 164.493 34.9708 164.752 34.9708 165.057V168.633C34.9708 168.989 34.6813 169.279 34.3254 169.279Z" fill="#C2E2E9" fill-opacity="0.4"/>
<path opacity="0.4" d="M30.9225 161.117L26.8695 160.501C26.6814 160.472 26.4897 160.523 26.3458 160.645C26.202 160.77 26.1172 160.951 26.1172 161.139V168.909C26.1172 169.112 26.2831 169.278 26.486 169.278H27.6846V167.342C27.6846 166.984 27.9722 166.697 28.3299 166.697H29.2519C29.6096 166.697 29.8973 166.984 29.8973 167.342V169.278H31.4647V161.755C31.4647 161.438 31.236 161.169 30.9225 161.117Z" fill="#C2E2E9"/>
<path d="M28.154 163.654H27.6008C27.4481 163.654 27.3242 163.53 27.3242 163.377C27.3242 163.225 27.4481 163.101 27.6008 163.101H28.154C28.3067 163.101 28.4306 163.225 28.4306 163.377C28.4306 163.53 28.3067 163.654 28.154 163.654Z" fill="#C2E2E9"/>
<path d="M30.0017 163.654H29.4485C29.2958 163.654 29.1719 163.53 29.1719 163.377C29.1719 163.225 29.2958 163.101 29.4485 163.101H30.0017C30.1543 163.101 30.2782 163.225 30.2782 163.377C30.2782 163.53 30.1543 163.654 30.0017 163.654Z" fill="#C2E2E9"/>
<path d="M28.154 164.76H27.6008C27.4481 164.76 27.3242 164.636 27.3242 164.483C27.3242 164.331 27.4481 164.207 27.6008 164.207H28.154C28.3067 164.207 28.4306 164.331 28.4306 164.483C28.4306 164.636 28.3067 164.76 28.154 164.76Z" fill="#C2E2E9"/>
<path d="M30.0017 164.76H29.4485C29.2958 164.76 29.1719 164.636 29.1719 164.483C29.1719 164.331 29.2958 164.207 29.4485 164.207H30.0017C30.1543 164.207 30.2782 164.331 30.2782 164.483C30.2782 164.636 30.1543 164.76 30.0017 164.76Z" fill="#C2E2E9"/>
<path d="M28.154 165.867H27.6008C27.4481 165.867 27.3242 165.743 27.3242 165.59C27.3242 165.437 27.4481 165.313 27.6008 165.313H28.154C28.3067 165.313 28.4306 165.437 28.4306 165.59C28.4306 165.743 28.3067 165.867 28.154 165.867Z" fill="#C2E2E9"/>
<path d="M30.0017 165.867H29.4485C29.2958 165.867 29.1719 165.743 29.1719 165.59C29.1719 165.437 29.2958 165.313 29.4485 165.313H30.0017C30.1543 165.313 30.2782 165.437 30.2782 165.59C30.2782 165.743 30.1543 165.867 30.0017 165.867Z" fill="#C2E2E9"/>
<path d="M33.404 167.065H32.8508C32.6981 167.065 32.5742 166.941 32.5742 166.789C32.5742 166.636 32.6981 166.512 32.8508 166.512H33.404C33.5567 166.512 33.6806 166.636 33.6806 166.789C33.6806 166.941 33.5567 167.065 33.404 167.065Z" fill="#C2E2E9"/>
<path d="M33.404 168.171H32.8508C32.6981 168.171 32.5742 168.047 32.5742 167.895C32.5742 167.742 32.6981 167.618 32.8508 167.618H33.404C33.5567 167.618 33.6806 167.742 33.6806 167.895C33.6806 168.047 33.5567 168.171 33.404 168.171Z" fill="#C2E2E9"/>
<path d="M28.154 162.548H27.6008C27.4481 162.548 27.3242 162.424 27.3242 162.271C27.3242 162.119 27.4481 161.995 27.6008 161.995H28.154C28.3067 161.995 28.4306 162.119 28.4306 162.271C28.4306 162.424 28.3067 162.548 28.154 162.548Z" fill="#C2E2E9"/>
<path d="M30.0017 162.548H29.4485C29.2958 162.548 29.1719 162.424 29.1719 162.271C29.1719 162.118 29.2958 161.994 29.4485 161.994H30.0017C30.1543 161.994 30.2782 162.118 30.2782 162.271C30.2782 162.424 30.1543 162.548 30.0017 162.548Z" fill="#C2E2E9"/>
<path d="M33.404 165.958H32.8508C32.6981 165.958 32.5742 165.835 32.5742 165.682C32.5742 165.529 32.6981 165.405 32.8508 165.405H33.404C33.5567 165.405 33.6806 165.529 33.6806 165.682C33.6806 165.835 33.5567 165.958 33.404 165.958Z" fill="#C2E2E9"/>
<path d="M28.4189 162.271H27.3125C27.3125 162.424 27.4364 162.548 27.5891 162.548H28.1423C28.295 162.548 28.4189 162.424 28.4189 162.271Z" fill="#C2E2E9"/>
<path d="M30.2626 162.271H29.1562C29.1562 162.424 29.2802 162.548 29.4328 162.548H29.986C30.1387 162.548 30.2626 162.424 30.2626 162.271Z" fill="#C2E2E9"/>
<path d="M28.4189 163.378H27.3125C27.3125 163.53 27.4364 163.654 27.5891 163.654H28.1423C28.295 163.654 28.4189 163.53 28.4189 163.378Z" fill="#C2E2E9"/>
<path d="M30.2626 163.378H29.1562C29.1562 163.53 29.2802 163.654 29.4328 163.654H29.986C30.1387 163.654 30.2626 163.53 30.2626 163.378Z" fill="#C2E2E9"/>
<path d="M28.4189 164.484H27.3125C27.3125 164.637 27.4364 164.76 27.5891 164.76H28.1423C28.295 164.76 28.4189 164.637 28.4189 164.484Z" fill="#C2E2E9"/>
<path d="M30.2626 164.484H29.1562C29.1562 164.637 29.2802 164.76 29.4328 164.76H29.986C30.1387 164.76 30.2626 164.637 30.2626 164.484Z" fill="#C2E2E9"/>
<path d="M28.4189 165.59H27.3125C27.3125 165.743 27.4364 165.867 27.5891 165.867H28.1423C28.295 165.867 28.4189 165.743 28.4189 165.59Z" fill="#C2E2E9"/>
<path d="M30.2626 165.59H29.1562C29.1562 165.743 29.2802 165.867 29.4328 165.867H29.986C30.1387 165.867 30.2626 165.743 30.2626 165.59Z" fill="#C2E2E9"/>
<path d="M33.6767 165.683H32.5703C32.5703 165.835 32.6942 165.959 32.8469 165.959H33.4001C33.5528 165.959 33.6767 165.835 33.6767 165.683Z" fill="#C2E2E9"/>
<path d="M33.6767 166.789H32.5703C32.5703 166.942 32.6942 167.066 32.8469 167.066H33.4001C33.5528 167.066 33.6767 166.942 33.6767 166.789Z" fill="#C2E2E9"/>
<path d="M33.6767 167.896H32.5703C32.5703 168.048 32.6942 168.172 32.8469 168.172H33.4001C33.5528 168.172 33.6767 168.048 33.6767 167.896Z" fill="#C2E2E9"/>
<path d="M30.5474 268.89C29.7999 268.89 29.1953 268.308 29.1953 267.576C29.1953 266.845 29.7999 266.258 30.5474 266.258C31.2948 266.258 31.8852 266.845 31.8852 267.576C31.8852 268.308 31.2948 268.89 30.5474 268.89Z" fill="#C7E8EF"/>
<path opacity="0.4" d="M34.8465 268.676C34.7561 268.536 34.6275 268.396 34.4609 268.308C34.3276 268.242 34.2419 268.135 34.1657 268.009C33.9229 267.609 34.0658 267.082 34.4704 266.845C34.9465 266.579 35.0989 265.988 34.8227 265.527L34.5038 264.977C34.2324 264.516 33.6373 264.353 33.166 264.623C32.747 264.846 32.2091 264.697 31.9663 264.301C31.8901 264.171 31.8472 264.031 31.8568 263.891C31.871 263.71 31.8139 263.537 31.7282 263.398C31.5521 263.109 31.2331 262.913 30.8808 262.913H30.2095C29.862 262.922 29.543 263.109 29.3669 263.398C29.2764 263.537 29.224 263.71 29.2336 263.891C29.2431 264.031 29.2002 264.171 29.1241 264.301C28.8813 264.697 28.3433 264.846 27.9291 264.623C27.453 264.353 26.8627 264.516 26.5866 264.977L26.2676 265.527C25.9962 265.988 26.1486 266.579 26.6199 266.845C27.0246 267.082 27.1674 267.609 26.9293 268.009C26.8484 268.135 26.7627 268.242 26.6294 268.308C26.4675 268.396 26.3247 268.536 26.2485 268.676C26.0724 268.964 26.0819 269.328 26.2581 269.631L26.5866 270.19C26.7627 270.488 27.0912 270.674 27.434 270.674C27.5958 270.674 27.7863 270.628 27.9386 270.534C28.0576 270.455 28.2005 270.427 28.3576 270.427C28.8289 270.427 29.224 270.814 29.2336 271.275C29.2336 271.811 29.6716 272.23 30.2238 272.23H30.8713C31.4188 272.23 31.8568 271.811 31.8568 271.275C31.871 270.814 32.2662 270.427 32.7375 270.427C32.8898 270.427 33.0327 270.455 33.1564 270.534C33.3088 270.628 33.4945 270.674 33.6611 270.674C33.9991 270.674 34.3276 270.488 34.5038 270.19L34.837 269.631C35.0084 269.319 35.0227 268.964 34.8465 268.676Z" fill="#C7E8EF"/>
<g filter="url(#filter2_d_2847_20892)">
<path d="M65.3203 69.2531C65.3203 68.1583 66.4099 67.2708 67.7539 67.2708H335.445C336.789 67.2708 337.879 68.1583 337.879 69.2531V188.589C337.879 189.684 336.789 190.571 335.445 190.571H67.7539C66.4099 190.571 65.3203 189.684 65.3203 188.589V69.2531Z" fill="white"/>
</g>
<g filter="url(#filter3_d_2847_20892)">
<path d="M65.3203 207.154C65.3203 206.597 67.1967 206.146 69.5114 206.146H530.536C532.851 206.146 534.727 206.597 534.727 207.154V267.869C534.727 268.426 532.851 268.878 530.536 268.878H69.5115C67.1968 268.878 65.3203 268.426 65.3203 267.869V207.154Z" fill="white"/>
</g>
<path d="M440.075 237.112C440.075 236.219 439.546 235.617 438.3 235.347L437.957 235.274V233.54C438.466 233.623 438.736 233.935 438.767 234.433H440.003C439.94 233.249 439.162 232.554 437.957 232.45V231.754H437.365V232.45C436.088 232.554 435.278 233.353 435.278 234.423C435.278 235.316 435.849 235.939 437.064 236.198L437.313 236.25V238.078C436.784 237.974 436.452 237.621 436.4 237.029H435.164C435.206 238.296 436.067 239.074 437.313 239.189V239.895H437.905V239.199C439.224 239.105 440.075 238.275 440.075 237.112ZM436.503 234.381C436.503 233.924 436.815 233.602 437.365 233.53V235.139C436.701 234.963 436.503 234.745 436.503 234.381ZM437.905 236.375C438.611 236.562 438.85 236.8 438.85 237.205C438.85 237.693 438.497 238.036 437.905 238.109V236.375Z" fill="#6E7E82"/>
<path d="M443.542 232.107C442.026 232.107 440.863 233.249 440.863 234.713C440.863 236.157 441.963 237.205 443.334 237.205C443.438 237.205 443.542 237.195 443.645 237.185L442.109 239.458H443.635L445.317 236.956C445.961 235.99 446.2 235.357 446.2 234.682C446.2 233.208 445.026 232.107 443.542 232.107ZM443.531 236.094C442.763 236.094 442.171 235.523 442.171 234.703C442.171 233.872 442.763 233.301 443.531 233.301C444.299 233.301 444.881 233.872 444.881 234.703C444.881 235.523 444.299 236.094 443.531 236.094Z" fill="#6E7E82"/>
<path d="M449.863 239.542C451.514 239.542 452.646 238.202 452.646 235.824C452.646 233.447 451.514 232.107 449.863 232.107C448.223 232.107 447.091 233.447 447.091 235.824C447.091 238.202 448.223 239.542 449.863 239.542ZM449.863 238.347C449.002 238.347 448.431 237.579 448.431 235.824C448.431 234.07 449.002 233.301 449.863 233.301C450.736 233.301 451.307 234.07 451.307 235.824C451.307 237.579 450.736 238.347 449.863 238.347Z" fill="#6E7E82"/>
<path d="M453.344 233.384H456.625L453.915 239.458H455.4L458.068 233.332V232.19H453.344V233.384Z" fill="#6E7E82"/>
<path d="M459.174 240.912L459.756 237.922H458.427L458.126 240.912H459.174Z" fill="#6E7E82"/>
<path d="M463.522 234.682C463.055 234.682 462.608 234.807 462.235 235.056L462.442 233.384H465.329V232.19H461.321L460.843 236.354H462.068C462.338 235.959 462.795 235.752 463.283 235.752C464.02 235.752 464.508 236.229 464.508 237.018C464.508 237.818 464.01 238.347 463.231 238.347C462.577 238.347 462.11 237.963 462.037 237.288H460.719C460.771 238.69 461.809 239.542 463.2 239.542C464.758 239.542 465.817 238.534 465.817 237.06C465.817 235.617 464.83 234.682 463.522 234.682Z" fill="#6E7E82"/>
<path d="M466.394 233.384H469.675L466.965 239.458H468.45L471.118 233.332V232.19H466.394V233.384Z" fill="#6E7E82"/>
<path d="M474.666 234.682C474.199 234.682 473.752 234.807 473.378 235.056L473.586 233.384H476.472V232.19H472.465L471.987 236.354H473.212C473.482 235.959 473.939 235.752 474.427 235.752C475.164 235.752 475.652 236.229 475.652 237.018C475.652 237.818 475.154 238.347 474.375 238.347C473.721 238.347 473.254 237.963 473.181 237.288H471.862C471.914 238.69 472.953 239.542 474.344 239.542C475.901 239.542 476.96 238.534 476.96 237.06C476.96 235.617 475.974 234.682 474.666 234.682Z" fill="#6E7E82"/>
<path d="M478.759 239.531C479.257 239.531 479.621 239.168 479.621 238.669C479.621 238.161 479.257 237.808 478.759 237.808C478.261 237.808 477.897 238.161 477.897 238.669C477.897 239.168 478.261 239.531 478.759 239.531Z" fill="#6E7E82"/>
<path d="M483.274 239.542C484.925 239.542 486.057 238.202 486.057 235.824C486.057 233.447 484.925 232.107 483.274 232.107C481.634 232.107 480.502 233.447 480.502 235.824C480.502 238.202 481.634 239.542 483.274 239.542ZM483.274 238.347C482.412 238.347 481.841 237.579 481.841 235.824C481.841 234.07 482.412 233.301 483.274 233.301C484.146 233.301 484.718 234.07 484.718 235.824C484.718 237.579 484.146 238.347 483.274 238.347Z" fill="#6E7E82"/>
<path d="M486.755 233.384H490.036L487.326 239.458H488.81L491.479 233.332V232.19H486.755V233.384Z" fill="#6E7E82"/>
<path d="M454.152 250.915C454.213 250.335 454.55 249.946 455.632 249.28C456.904 248.501 457.284 247.938 457.284 247.186C457.284 246.113 456.523 245.447 455.433 245.447C454.256 245.447 453.434 246.208 453.399 247.54H454.143C454.178 246.563 454.663 246.104 455.415 246.104C456.134 246.104 456.54 246.502 456.54 247.151C456.54 247.67 456.281 248.112 455.138 248.821C453.771 249.669 453.391 250.266 453.391 251.218V251.573H457.319V250.915H454.152Z" fill="#C9EAF1"/>
<path d="M458.974 251.625C459.268 251.625 459.502 251.4 459.502 251.097C459.502 250.794 459.268 250.569 458.974 250.569C458.671 250.569 458.446 250.794 458.446 251.097C458.446 251.4 458.671 251.625 458.974 251.625Z" fill="#C9EAF1"/>
<path d="M462.643 247.54C462.427 247.54 462.219 247.575 462.029 247.644L463.474 245.516H462.626L461.164 247.705C460.636 248.492 460.42 249.046 460.42 249.617C460.42 250.759 461.346 251.642 462.531 251.642C463.76 251.642 464.677 250.707 464.677 249.565C464.677 248.406 463.76 247.54 462.643 247.54ZM462.548 250.984C461.77 250.984 461.164 250.396 461.164 249.574C461.164 248.743 461.77 248.163 462.548 248.163C463.336 248.163 463.933 248.743 463.933 249.574C463.933 250.396 463.336 250.984 462.548 250.984Z" fill="#C9EAF1"/>
<path d="M467.629 247.644C467.17 247.644 466.738 247.783 466.383 248.06L466.599 246.173H469.143V245.516H465.959L465.595 248.89H466.244C466.539 248.484 467.006 248.276 467.516 248.276C468.304 248.276 468.806 248.769 468.806 249.591C468.806 250.422 468.278 250.984 467.456 250.984C466.781 250.984 466.296 250.586 466.201 249.833H465.457C465.526 250.984 466.357 251.642 467.43 251.642C468.684 251.642 469.55 250.794 469.55 249.6C469.55 248.44 468.71 247.644 467.629 247.644Z" fill="#C9EAF1"/>
<path d="M476.175 248.44C476.729 248.198 477.014 247.739 477.014 247.134C477.014 246.147 476.236 245.516 475.059 245.516H472.731V251.573H475.215C476.556 251.573 477.283 250.941 477.283 249.903C477.283 249.133 476.884 248.631 476.175 248.44ZM476.261 247.177C476.261 247.791 475.872 248.172 475.05 248.172H473.493V246.182H475.05C475.872 246.182 476.261 246.563 476.261 247.177ZM473.493 250.906V248.83H475.215C476.088 248.83 476.504 249.193 476.504 249.868C476.504 250.543 476.088 250.906 475.215 250.906H473.493Z" fill="#C9EAF1"/>
<path d="M477.747 245.516V246.208H479.659V251.573H480.42V246.208H482.332V245.516H477.747Z" fill="#C9EAF1"/>
<path d="M485.62 251.642C487.091 251.642 488.216 250.707 488.371 249.349H487.627C487.445 250.37 486.675 250.967 485.672 250.967C484.426 250.967 483.431 250.05 483.431 248.544C483.431 247.073 484.391 246.121 485.672 246.121C486.658 246.121 487.42 246.684 487.61 247.739H488.363C488.216 246.381 487.082 245.447 485.646 245.447C483.976 245.447 482.661 246.71 482.661 248.561C482.661 250.37 483.907 251.642 485.62 251.642Z" fill="#C9EAF1"/>
<g filter="url(#filter4_d_2847_20892)">
<path d="M65.3203 278.539C65.3203 277.982 67.1967 277.53 69.5114 277.53H530.536C532.851 277.53 534.727 277.982 534.727 278.539V339.253C534.727 339.81 532.851 340.262 530.536 340.262H69.5115C67.1968 340.262 65.3203 339.81 65.3203 339.253V278.539Z" fill="white"/>
</g>
<g filter="url(#filter5_d_2847_20892)">
<path d="M346.531 69.2531C346.531 68.1583 347.284 67.2708 348.212 67.2708H533.046C533.974 67.2708 534.727 68.1583 534.727 69.2531V188.589C534.727 189.684 533.974 190.571 533.046 190.571H348.212C347.284 190.571 346.531 189.684 346.531 188.589V69.2531Z" fill="white"/>
</g>
<path d="M77.4336 219.557C77.4336 217.646 78.9832 216.096 80.8947 216.096H118.101C120.013 216.096 121.562 217.646 121.562 219.557V254.168C121.562 256.079 120.013 257.629 118.101 257.629H80.8947C78.9832 257.629 77.4336 256.079 77.4336 254.168V219.557Z" fill="#FDE8E8"/>
<path d="M77.4336 291.374C77.4336 289.463 78.9832 287.913 80.8947 287.913H118.101C120.013 287.913 121.562 289.463 121.562 291.374V325.985C121.562 327.897 120.013 329.446 118.101 329.446H80.8947C78.9832 329.446 77.4336 327.897 77.4336 325.985V291.374Z" fill="#E8EDFD"/>
<path d="M140.568 230.086C141.253 229.795 141.606 229.235 141.606 228.518C141.606 227.345 140.672 226.566 139.229 226.566H136.207V233.834H139.436C141.014 233.834 141.876 233.076 141.876 231.82C141.876 230.886 141.409 230.304 140.568 230.086ZM140.288 228.653C140.288 229.235 139.924 229.598 139.177 229.598H137.536V227.708H139.177C139.924 227.708 140.288 228.072 140.288 228.653ZM137.536 232.692V230.73H139.312C140.121 230.73 140.506 231.073 140.506 231.716C140.506 232.36 140.121 232.692 139.312 232.692H137.536Z" fill="#023A59"/>
<path d="M142.39 226.566V227.802H144.508V233.834H145.858V227.802H147.986V226.566H142.39Z" fill="#023A59"/>
<path d="M151.99 233.918C153.828 233.918 155.219 232.734 155.364 231.01H154.025C153.848 232.059 153.059 232.692 152.011 232.692C150.754 232.692 149.747 231.758 149.747 230.2C149.747 228.684 150.713 227.708 152.011 227.708C153.018 227.708 153.807 228.29 154.004 229.39H155.354C155.219 227.646 153.796 226.483 152.011 226.483C149.955 226.483 148.366 227.999 148.366 230.211C148.366 232.402 149.913 233.918 151.99 233.918Z" fill="#023A59"/>
<path d="M137.546 302.98H140.495V301.796H137.546V300.01H141.087V298.816H136.207V306.084H141.16V304.89H137.546V302.98Z" fill="#023A59"/>
<path d="M141.933 298.816V300.052H144.051V306.084H145.401V300.052H147.53V298.816H141.933Z" fill="#023A59"/>
<path d="M153.146 301.723H149.907V298.816H148.567V306.084H149.907V302.948H153.146V306.084H154.486V298.816H153.146V301.723Z" fill="#023A59"/>
<path d="M99.7196 225.614C93.6268 225.614 88.6875 230.554 88.6875 236.646C88.6875 242.739 93.6268 247.679 99.7196 247.679C105.813 247.679 110.752 242.739 110.752 236.646C110.752 230.554 105.813 225.614 99.7196 225.614ZM99.7196 246.3C94.3884 246.3 90.0665 241.978 90.0665 236.646C90.0665 231.315 94.3884 226.993 99.7196 226.993C105.051 226.993 109.373 231.315 109.373 236.646C109.373 241.978 105.051 246.3 99.7196 246.3Z" fill="#E9A8AB"/>
<path d="M99.7204 228.027C94.9604 228.027 91.1016 231.886 91.1016 236.646C91.1016 241.406 94.9604 245.265 99.7204 245.265C104.48 245.265 108.339 241.406 108.339 236.646C108.339 231.886 104.481 228.027 99.7204 228.027ZM99.7204 243.886C95.722 243.886 92.4806 240.645 92.4806 236.646C92.4806 232.648 95.722 229.406 99.7204 229.406C103.719 229.406 106.96 232.648 106.96 236.646C106.96 240.645 103.719 243.886 99.7204 243.886Z" fill="#E9A8AB"/>
<path d="M102.863 236.202C103.697 235.162 103.531 233.643 102.491 232.809C102.063 232.466 101.532 232.279 100.984 232.278H100.409V232.051C100.409 231.67 100.1 231.361 99.7191 231.361C99.3383 231.361 99.0296 231.67 99.0296 232.051V232.278H96.2716C95.8907 232.278 95.582 232.587 95.582 232.968C95.582 233.349 95.8907 233.657 96.2716 233.657V239.635C95.8907 239.635 95.582 239.944 95.582 240.325C95.582 240.706 95.8907 241.014 96.2716 241.014H99.0296V241.242C99.0296 241.623 99.3383 241.932 99.7191 241.932C100.1 241.932 100.409 241.623 100.409 241.242V241.014H101.443C102.779 241.003 103.856 239.917 103.856 238.581V238.16C103.855 237.386 103.487 236.66 102.863 236.202ZM100.984 233.657C101.556 233.657 102.019 234.12 102.019 234.692C102.019 235.263 101.556 235.726 100.984 235.726H97.6506V233.657H100.984ZM102.477 238.581C102.477 239.155 102.017 239.624 101.443 239.635H97.6506V237.105H101.443C102.017 237.116 102.477 237.585 102.477 238.16V238.581Z" fill="#E9A8AB"/>
<path d="M107.717 310.511C107.682 310.509 99.5993 315.313 99.4934 315.354C99.4695 315.34 91.3161 310.5 91.2773 310.505C91.2971 310.534 99.4879 322.133 99.4934 322.133C99.4989 322.133 107.717 310.511 107.717 310.511Z" fill="#A5C2FF"/>
<path d="M99.4974 295.268L91.2773 309.037L99.4974 313.913L107.717 309.037L99.4974 295.268Z" fill="#A5C2FF"/>
<path d="M431.521 131.371C431.522 137.733 429.651 143.955 426.141 149.261C422.631 154.567 417.637 158.723 411.782 161.212L399.113 131.371H431.521Z" fill="#46B2C8"/>
<path d="M394.962 129.157L407.631 158.985C407.631 158.985 407.631 158.985 407.57 158.985C406.572 159.387 405.587 159.764 404.589 160.068C398.319 162.015 391.606 162.015 385.336 160.068C378.737 158.013 372.969 153.901 368.872 148.335C364.776 142.768 362.566 136.038 362.566 129.127C362.566 122.215 364.776 115.485 368.872 109.918C372.969 104.352 378.737 100.24 385.336 98.185C391.606 96.2378 398.319 96.2378 404.589 98.185C409.605 99.7421 414.168 102.495 417.885 106.207C421.601 109.92 424.359 114.479 425.922 119.494C426.882 122.613 427.374 125.857 427.383 129.12L394.962 129.157Z" fill="#46B2C8"/>
<path d="M394.963 129.157L407.632 158.985C407.632 158.985 407.632 158.985 407.571 158.985C406.573 159.387 405.587 159.764 404.589 160.068C398.068 162.096 391.073 162.012 384.602 159.83C378.131 157.647 372.514 153.477 368.553 147.913C364.592 142.35 362.489 135.678 362.544 128.849C362.599 122.02 364.809 115.382 368.859 109.884C372.909 104.385 378.592 100.305 385.098 98.2271C391.603 96.149 398.599 96.1783 405.087 98.3108C411.575 100.443 417.223 104.57 421.227 110.103C425.231 115.635 427.386 122.291 427.383 129.12L394.963 129.157Z" fill="#DBDBDB"/>
<path d="M394.973 129.157L373.858 153.728C369.747 150.184 366.592 145.664 364.683 140.583C362.774 135.503 362.172 130.024 362.933 124.65C363.694 119.275 365.792 114.179 369.036 109.827C372.28 105.476 376.565 102.009 381.498 99.7453C386.431 97.4817 391.854 96.4938 397.269 96.8723C402.683 97.2509 407.915 98.9837 412.485 101.912C417.056 104.84 420.817 108.869 423.424 113.629C426.031 118.39 427.4 123.729 427.405 129.157H394.973Z" fill="#455A64"/>
<path d="M448.289 172.091H423.803L393.488 141.776L393.939 141.338L424.059 171.471H448.289V172.091Z" fill="#263238"/>
<path d="M395.411 139.854H392.004V143.262H395.411V139.854Z" fill="#263238"/>
<path d="M448.293 148.64H420.704L407.609 135.546L408.047 135.108L420.96 148.02H448.293V148.64Z" fill="#263238"/>
<path d="M409.525 133.623H406.117V137.031H409.525V133.623Z" fill="#263238"/>
<path d="M448.276 125.433H406.57V126.054H448.276V125.433Z" fill="#263238"/>
<path d="M407.826 124.045H404.418V127.453H407.826V124.045Z" fill="#263238"/>
<path d="M488.072 122.33H457.77V125.153H488.072V122.33Z" fill="#EBEBEB"/>
<path d="M497.09 128.207H457.77V131.031H497.09V128.207Z" fill="#EBEBEB"/>
<path d="M478.787 134.098H457.77V136.921H478.787V134.098Z" fill="#EBEBEB"/>
<path d="M451.703 122.33H444.863V129.169H451.703V122.33Z" fill="#455A64"/>
<path d="M491.76 145.099H457.77V147.923H491.76V145.099Z" fill="#EBEBEB"/>
<path d="M486.113 150.989H457.77V153.813H486.113V150.989Z" fill="#EBEBEB"/>
<path d="M497.09 156.867H457.77V159.691H497.09V156.867Z" fill="#EBEBEB"/>
<path d="M451.703 145.099H444.863V151.939H451.703V145.099Z" fill="#46B2C8"/>
<path d="M491.76 167.869H457.77V170.692H491.76V167.869Z" fill="#EBEBEB"/>
<path d="M486.113 173.759H457.77V176.582H486.113V173.759Z" fill="#EBEBEB"/>
<path d="M497.09 179.649H457.77V182.472H497.09V179.649Z" fill="#EBEBEB"/>
<path d="M451.703 167.869H444.863V174.708H451.703V167.869Z" fill="#DBDBDB"/>
<path d="M260.173 246.228H254.734V258.756H260.173V246.228Z" fill="#EBEBEB"/>
<path d="M278.615 246.228H273.176V258.756H278.615V246.228Z" fill="#EBEBEB"/>
<path d="M269.392 234.821H263.953V258.756H269.392V234.821Z" fill="#F5F5F5"/>
<path d="M287.841 234.821H282.402V258.756H287.841V234.821Z" fill="#F5F5F5"/>
<path d="M297.064 235.507H291.625V258.756H297.064V235.507Z" fill="#EBEBEB"/>
<path d="M315.513 235.507H310.074V258.756H315.513V235.507Z" fill="#EBEBEB"/>
<path d="M333.962 235.507H328.523V258.756H333.962V235.507Z" fill="#EBEBEB"/>
<path d="M306.286 223.304H300.848V258.756H306.286V223.304Z" fill="#F5F5F5"/>
<path d="M324.74 226.773H319.301V258.756H324.74V226.773Z" fill="#F5F5F5"/>
<path d="M343.189 231.672H337.75V258.755H343.189V231.672Z" fill="#EBEBEB"/>
<path d="M343.938 234.114L343.802 233.867C343.707 233.7 343.582 233.448 343.403 233.129C342.88 232.194 342.31 231.287 341.695 230.409C341.297 229.838 340.826 229.22 340.27 228.57C339.676 227.868 339.033 227.208 338.347 226.595C337.563 225.886 336.708 225.259 335.795 224.724C335.549 224.588 335.303 224.447 335.041 224.321C334.779 224.195 334.517 224.08 334.244 223.959C333.681 223.735 333.099 223.56 332.505 223.435C331.883 223.3 331.25 223.227 330.613 223.215C329.251 223.207 327.905 223.504 326.673 224.085C326.039 224.389 325.421 224.766 324.766 225.101C323.435 225.833 322.03 226.422 320.574 226.857C319.011 227.268 317.395 227.445 315.78 227.381C315.576 227.381 315.366 227.381 315.162 227.355C314.957 227.328 314.742 227.355 314.533 227.307C314.428 227.307 314.323 227.307 314.218 227.265L313.909 227.203C313.702 227.159 313.498 227.105 313.296 227.04C312.481 226.774 311.688 226.447 310.923 226.06L308.581 224.881C307.791 224.477 306.965 224.149 306.113 223.902C304.355 223.409 302.525 223.232 300.705 223.378C299.78 223.466 298.876 223.712 298.033 224.106C297.185 224.52 296.41 225.069 295.738 225.73C294.435 227.082 293.286 228.574 292.311 230.179C291.263 231.751 290.299 233.27 289.241 234.727C288.218 236.168 287.058 237.507 285.778 238.725C285.148 239.309 284.476 239.845 283.766 240.328C283.07 240.796 282.338 241.206 281.575 241.554C280.832 241.898 280.056 242.167 279.259 242.356C278.869 242.451 278.474 242.526 278.075 242.581C277.682 242.629 277.287 242.654 276.891 242.654C275.361 242.665 273.851 242.305 272.49 241.606C271.164 240.962 269.969 240.187 268.749 239.589C267.586 238.994 266.329 238.605 265.034 238.442C262.532 238.123 259.995 238.643 257.82 239.921C255.646 241.2 253.957 243.163 253.019 245.505L252.851 245.955C252.804 246.086 252.768 246.202 252.741 246.291L252.652 246.558C252.652 246.558 252.652 246.469 252.731 246.285C252.757 246.196 252.789 246.081 252.836 245.95L252.998 245.494C254.03 242.887 255.976 240.744 258.474 239.469C260.077 238.672 261.845 238.262 263.635 238.27C265.425 238.278 267.189 238.705 268.785 239.516C270.011 240.113 271.206 240.889 272.526 241.528C273.876 242.223 275.373 242.583 276.891 242.576C277.283 242.575 277.675 242.55 278.065 242.502C278.452 242.44 278.851 242.382 279.238 242.282C280.028 242.091 280.796 241.822 281.533 241.481C282.291 241.135 283.019 240.727 283.708 240.26C284.413 239.788 285.08 239.263 285.704 238.688C286.981 237.452 288.136 236.096 289.152 234.638C290.2 233.186 291.19 231.646 292.217 230.095C293.199 228.484 294.353 226.986 295.66 225.625C296.341 224.957 297.125 224.402 297.981 223.98C298.837 223.586 299.752 223.336 300.69 223.241C302.521 223.097 304.363 223.275 306.134 223.765C306.992 224.017 307.823 224.35 308.617 224.761L310.959 225.935C311.719 226.321 312.507 226.649 313.317 226.914C313.522 226.967 313.721 227.035 313.925 227.072L314.234 227.14L314.538 227.176C314.745 227.203 314.953 227.218 315.162 227.224C315.366 227.224 315.576 227.25 315.78 227.25C317.385 227.314 318.99 227.138 320.543 226.726C321.997 226.293 323.402 225.708 324.735 224.981C325.389 224.646 326.008 224.274 326.647 223.964C327.891 223.382 329.25 223.085 330.624 223.095C331.267 223.107 331.908 223.183 332.536 223.32C333.132 223.454 333.716 223.638 334.281 223.87C334.554 223.985 334.805 224.101 335.083 224.237C335.361 224.373 335.607 224.499 335.837 224.64C336.755 225.178 337.614 225.81 338.4 226.527C339.086 227.143 339.728 227.807 340.323 228.513C340.846 229.162 341.339 229.781 341.737 230.357C342.351 231.237 342.916 232.15 343.43 233.092C343.608 233.417 343.734 233.668 343.823 233.836L343.938 234.114Z" fill="#263238"/>
<path d="M304.482 222.806C304.482 223.083 304.4 223.353 304.246 223.583C304.092 223.814 303.874 223.993 303.618 224.099C303.362 224.205 303.081 224.232 302.81 224.178C302.538 224.124 302.289 223.991 302.093 223.795C301.898 223.6 301.764 223.351 301.71 223.079C301.656 222.808 301.684 222.526 301.79 222.271C301.896 222.015 302.075 221.797 302.305 221.643C302.535 221.489 302.806 221.407 303.083 221.407C303.454 221.407 303.809 221.555 304.072 221.817C304.334 222.079 304.482 222.435 304.482 222.806Z" fill="#C9252D"/>
<path d="M303.155 225.206C302.652 225.206 302.161 225.057 301.743 224.778C301.325 224.499 300.999 224.102 300.807 223.637C300.614 223.173 300.564 222.662 300.662 222.169C300.76 221.676 301.002 221.223 301.358 220.868C301.713 220.512 302.166 220.27 302.659 220.172C303.152 220.074 303.663 220.125 304.127 220.317C304.591 220.509 304.988 220.835 305.267 221.253C305.547 221.671 305.696 222.162 305.696 222.665C305.696 223.339 305.428 223.985 304.951 224.462C304.475 224.938 303.828 225.206 303.155 225.206ZM303.155 220.333C302.692 220.333 302.24 220.47 301.856 220.727C301.471 220.984 301.172 221.35 300.995 221.777C300.818 222.204 300.772 222.674 300.863 223.128C300.954 223.581 301.177 223.998 301.504 224.324C301.831 224.651 302.248 224.873 302.702 224.963C303.155 225.052 303.626 225.005 304.052 224.828C304.479 224.65 304.844 224.35 305.1 223.965C305.356 223.58 305.492 223.127 305.491 222.665C305.494 222.357 305.435 222.052 305.318 221.766C305.201 221.481 305.03 221.222 304.812 221.004C304.595 220.786 304.337 220.613 304.052 220.495C303.768 220.377 303.462 220.317 303.155 220.317V220.333Z" fill="#C9252D"/>
<path d="M303.754 217.981L303.681 215.12L304.394 215.13L303.063 213.501L301.727 215.146L302.465 215.151L302.539 217.975L303.754 217.981Z" fill="#EBEBEB"/>
<path d="M301.058 219.516V220.04H300.586V219.516C300.169 219.503 299.764 219.372 299.418 219.139L299.675 218.568C299.945 218.754 300.259 218.868 300.586 218.898V218.133C300.062 218.007 299.486 217.834 299.486 217.163C299.486 216.639 299.848 216.236 300.586 216.152V215.628H301.058V216.152C301.392 216.174 301.717 216.272 302.006 216.44L301.776 217.017C301.554 216.89 301.311 216.806 301.058 216.77V217.572C301.582 217.693 302.148 217.866 302.148 218.526C302.148 219.003 301.792 219.443 301.058 219.516ZM300.586 217.42V216.755C300.34 216.812 300.241 216.949 300.241 217.101C300.241 217.252 300.382 217.378 300.586 217.441V217.42ZM301.393 218.552C301.393 218.389 301.257 218.3 301.058 218.227V218.919C301.289 218.845 301.393 218.725 301.393 218.573V218.552Z" fill="#E0E0E0"/>
<path d="M258.997 240.501C258.997 240.777 258.915 241.048 258.761 241.278C258.608 241.508 258.389 241.687 258.134 241.793C257.878 241.899 257.597 241.927 257.325 241.873C257.054 241.819 256.805 241.685 256.609 241.49C256.413 241.294 256.28 241.045 256.226 240.773C256.172 240.502 256.2 240.221 256.306 239.965C256.412 239.71 256.591 239.491 256.821 239.337C257.051 239.184 257.322 239.102 257.598 239.102C257.969 239.103 258.324 239.251 258.586 239.513C258.848 239.775 258.996 240.13 258.997 240.501Z" fill="#C9252D"/>
<path d="M257.596 243.094C257.093 243.094 256.602 242.945 256.184 242.666C255.766 242.387 255.44 241.99 255.248 241.525C255.056 241.061 255.005 240.55 255.104 240.057C255.202 239.564 255.444 239.111 255.799 238.756C256.154 238.401 256.607 238.159 257.1 238.061C257.593 237.962 258.104 238.013 258.568 238.205C259.033 238.398 259.43 238.723 259.709 239.141C259.988 239.559 260.137 240.05 260.137 240.553C260.136 241.227 259.868 241.872 259.391 242.348C258.915 242.825 258.269 243.093 257.596 243.094ZM257.596 238.216C257.134 238.216 256.682 238.353 256.298 238.61C255.913 238.867 255.614 239.232 255.437 239.659C255.26 240.086 255.214 240.556 255.304 241.009C255.394 241.462 255.617 241.879 255.944 242.205C256.27 242.532 256.687 242.755 257.14 242.845C257.593 242.935 258.063 242.889 258.49 242.712C258.917 242.535 259.282 242.236 259.539 241.851C259.796 241.467 259.933 241.015 259.933 240.553C259.933 239.933 259.687 239.339 259.248 238.901C258.81 238.462 258.216 238.216 257.596 238.216Z" fill="#C9252D"/>
<path d="M256.901 232.369L256.98 235.23L256.262 235.219L257.598 236.849L258.934 235.203L258.19 235.198L258.117 232.374L256.901 232.369Z" fill="#EBEBEB"/>
<path d="M255.257 237.572V238.096H254.786V237.572C254.368 237.559 253.963 237.428 253.617 237.194L253.879 236.623C254.148 236.81 254.46 236.926 254.786 236.959V236.209C254.262 236.084 253.685 235.911 253.685 235.24C253.685 234.716 254.047 234.318 254.786 234.229V233.705H255.257V234.229C255.593 234.247 255.92 234.344 256.211 234.512L255.975 235.088C255.755 234.96 255.51 234.878 255.257 234.847V235.644C255.781 235.764 256.352 235.937 256.352 236.602C256.352 237.063 255.991 237.483 255.257 237.572ZM254.786 235.502V234.831C254.539 234.889 254.44 235.025 254.44 235.182C254.44 235.34 254.581 235.434 254.786 235.502ZM255.593 236.629C255.593 236.466 255.456 236.377 255.257 236.309V236.953C255.493 236.901 255.593 236.781 255.593 236.629Z" fill="#E0E0E0"/>
<path d="M337.531 222.397V222.921H337.059V222.397C336.642 222.386 336.237 222.257 335.891 222.025L336.147 221.449C336.417 221.637 336.731 221.753 337.059 221.784V221.014C336.535 220.888 335.959 220.716 335.959 220.045C335.959 219.547 336.32 219.123 337.059 219.039V218.515H337.531V219.039C337.865 219.056 338.19 219.153 338.479 219.322L338.248 219.903C338.028 219.774 337.784 219.691 337.531 219.657V220.454C338.055 220.574 338.621 220.752 338.621 221.412C338.621 221.884 338.264 222.308 337.531 222.397ZM337.059 220.302V219.636C336.813 219.689 336.713 219.825 336.713 219.982C336.713 220.139 336.855 220.254 337.059 220.323V220.302ZM337.866 221.433C337.866 221.266 337.73 221.177 337.531 221.109V221.753C337.761 221.722 337.866 221.601 337.866 221.454V221.433Z" fill="#E0E0E0"/>
<path d="M340.446 222.822C340.66 222.728 340.842 222.573 340.968 222.376C341.095 222.18 341.161 221.95 341.159 221.716C341.169 221.563 341.148 221.409 341.097 221.264C341.045 221.12 340.965 220.987 340.86 220.875C340.755 220.762 340.628 220.673 340.487 220.611C340.346 220.55 340.194 220.519 340.04 220.519C339.886 220.519 339.734 220.55 339.593 220.611C339.452 220.673 339.326 220.762 339.221 220.875C339.116 220.987 339.035 221.12 338.984 221.264C338.932 221.409 338.911 221.563 338.922 221.716C338.916 221.952 338.98 222.185 339.107 222.383C339.234 222.582 339.418 222.739 339.634 222.832C337.91 223.089 337.989 224.965 337.989 224.965H342.065C342.065 224.965 342.144 223.079 340.446 222.822Z" fill="#EBEBEB"/>
<path d="M340.02 229.56C340.793 229.56 341.419 228.934 341.419 228.161C341.419 227.389 340.793 226.762 340.02 226.762C339.247 226.762 338.621 227.389 338.621 228.161C338.621 228.934 339.247 229.56 340.02 229.56Z" fill="#C9252D"/>
<path d="M340.019 230.755C339.516 230.756 339.024 230.608 338.606 230.329C338.187 230.051 337.861 229.654 337.668 229.19C337.474 228.725 337.423 228.214 337.521 227.721C337.618 227.228 337.86 226.774 338.215 226.419C338.57 226.063 339.023 225.82 339.516 225.722C340.009 225.623 340.521 225.673 340.985 225.865C341.45 226.057 341.847 226.383 342.126 226.801C342.406 227.219 342.555 227.711 342.555 228.214C342.555 228.887 342.288 229.532 341.813 230.009C341.337 230.485 340.692 230.753 340.019 230.755ZM340.019 225.877C339.557 225.876 339.104 226.012 338.719 226.268C338.334 226.524 338.034 226.889 337.856 227.316C337.679 227.743 337.632 228.213 337.721 228.666C337.811 229.12 338.033 229.537 338.36 229.864C338.686 230.192 339.103 230.415 339.556 230.505C340.01 230.596 340.48 230.55 340.907 230.373C341.334 230.196 341.7 229.897 341.957 229.512C342.214 229.128 342.351 228.676 342.351 228.214C342.351 227.595 342.105 227.001 341.668 226.563C341.231 226.125 340.638 225.878 340.019 225.877Z" fill="#C9252D"/>
<path d="M260.173 317.18H254.734V329.708H260.173V317.18Z" fill="#EBEBEB"/>
<path d="M278.615 317.18H273.176V329.708H278.615V317.18Z" fill="#EBEBEB"/>
<path d="M269.392 305.773H263.953V329.708H269.392V305.773Z" fill="#F5F5F5"/>
<path d="M287.841 305.773H282.402V329.708H287.841V305.773Z" fill="#F5F5F5"/>
<path d="M297.064 306.459H291.625V329.708H297.064V306.459Z" fill="#EBEBEB"/>
<path d="M315.513 306.459H310.074V329.708H315.513V306.459Z" fill="#EBEBEB"/>
<path d="M333.962 306.459H328.523V329.708H333.962V306.459Z" fill="#EBEBEB"/>
<path d="M306.286 294.256H300.848V329.708H306.286V294.256Z" fill="#F5F5F5"/>
<path d="M324.74 297.725H319.301V329.708H324.74V297.725Z" fill="#F5F5F5"/>
<path d="M343.189 302.624H337.75V329.708H343.189V302.624Z" fill="#EBEBEB"/>
<path d="M343.938 305.066L343.802 304.82C343.707 304.652 343.582 304.4 343.403 304.081C342.88 303.146 342.31 302.239 341.695 301.361C341.297 300.79 340.826 300.172 340.27 299.522C339.676 298.82 339.033 298.16 338.347 297.547C337.563 296.838 336.708 296.211 335.795 295.676C335.549 295.54 335.303 295.399 335.041 295.273C334.779 295.147 334.517 295.032 334.244 294.911C333.681 294.688 333.099 294.512 332.505 294.387C331.883 294.252 331.25 294.179 330.613 294.167C329.251 294.159 327.905 294.456 326.673 295.037C326.039 295.341 325.421 295.718 324.766 296.054C323.435 296.786 322.03 297.374 320.574 297.809C319.011 298.221 317.395 298.397 315.78 298.333C315.576 298.333 315.366 298.333 315.162 298.307C314.957 298.281 314.742 298.307 314.533 298.26C314.428 298.26 314.323 298.26 314.218 298.218L313.909 298.155C313.702 298.111 313.498 298.057 313.296 297.992C312.481 297.726 311.688 297.399 310.923 297.013L308.581 295.834C307.791 295.429 306.965 295.101 306.113 294.854C304.355 294.361 302.525 294.184 300.705 294.33C299.78 294.418 298.876 294.665 298.033 295.058C297.185 295.472 296.41 296.021 295.738 296.682C294.435 298.034 293.286 299.526 292.311 301.131C291.263 302.703 290.299 304.222 289.241 305.679C288.218 307.12 287.058 308.459 285.778 309.677C285.148 310.261 284.476 310.797 283.766 311.28C283.07 311.748 282.338 312.158 281.575 312.506C280.832 312.85 280.056 313.119 279.259 313.308C278.869 313.403 278.474 313.478 278.075 313.533C277.682 313.581 277.287 313.606 276.891 313.607C275.361 313.617 273.851 313.257 272.49 312.559C271.164 311.914 269.969 311.139 268.749 310.541C267.586 309.946 266.329 309.558 265.034 309.394C262.532 309.075 259.995 309.595 257.82 310.874C255.646 312.152 253.957 314.116 253.019 316.457L252.851 316.908C252.804 317.039 252.768 317.154 252.741 317.243L252.652 317.51C252.652 317.51 252.652 317.421 252.731 317.238C252.757 317.149 252.789 317.033 252.836 316.902L252.998 316.446C254.03 313.839 255.976 311.696 258.474 310.421C260.077 309.624 261.845 309.214 263.635 309.222C265.425 309.23 267.189 309.657 268.785 310.468C270.011 311.065 271.206 311.841 272.526 312.48C273.876 313.175 275.373 313.535 276.891 313.528C277.283 313.527 277.675 313.503 278.065 313.455C278.452 313.392 278.851 313.334 279.238 313.235C280.028 313.043 280.796 312.774 281.533 312.433C282.291 312.088 283.019 311.679 283.708 311.212C284.413 310.74 285.08 310.215 285.704 309.64C286.981 308.404 288.136 307.048 289.152 305.59C290.2 304.138 291.19 302.598 292.217 301.047C293.199 299.437 294.353 297.938 295.66 296.578C296.341 295.909 297.125 295.354 297.981 294.932C298.837 294.538 299.752 294.288 300.69 294.194C302.521 294.05 304.363 294.227 306.134 294.718C306.992 294.969 307.823 295.302 308.617 295.713L310.959 296.887C311.719 297.273 312.507 297.601 313.317 297.867C313.522 297.919 313.721 297.987 313.925 298.024L314.234 298.092L314.538 298.129C314.745 298.155 314.953 298.171 315.162 298.176C315.366 298.176 315.576 298.202 315.78 298.202C317.385 298.266 318.99 298.09 320.543 297.678C321.997 297.245 323.402 296.66 324.735 295.933C325.389 295.598 326.008 295.226 326.647 294.917C327.891 294.335 329.25 294.037 330.624 294.047C331.267 294.06 331.908 294.135 332.536 294.272C333.132 294.406 333.716 294.59 334.281 294.822C334.554 294.938 334.805 295.053 335.083 295.189C335.361 295.325 335.607 295.451 335.837 295.593C336.755 296.13 337.614 296.762 338.4 297.479C339.086 298.095 339.728 298.759 340.323 299.465C340.846 300.114 341.339 300.733 341.737 301.309C342.351 302.189 342.916 303.102 343.43 304.044C343.608 304.369 343.734 304.621 343.823 304.788L343.938 305.066Z" fill="#263238"/>
<path d="M304.482 293.758C304.482 294.035 304.4 294.306 304.246 294.536C304.092 294.766 303.874 294.945 303.618 295.051C303.362 295.157 303.081 295.184 302.81 295.13C302.538 295.076 302.289 294.943 302.093 294.748C301.898 294.552 301.764 294.303 301.71 294.031C301.656 293.76 301.684 293.479 301.79 293.223C301.896 292.967 302.075 292.749 302.305 292.595C302.535 292.441 302.806 292.359 303.083 292.359C303.454 292.359 303.809 292.507 304.072 292.769C304.334 293.031 304.482 293.387 304.482 293.758Z" fill="#1D66FF"/>
<path d="M303.155 296.158C302.652 296.158 302.161 296.009 301.743 295.73C301.325 295.451 300.999 295.054 300.807 294.589C300.614 294.125 300.564 293.614 300.662 293.121C300.76 292.628 301.002 292.175 301.358 291.82C301.713 291.465 302.166 291.223 302.659 291.125C303.152 291.026 303.663 291.077 304.127 291.269C304.591 291.461 304.988 291.787 305.267 292.205C305.547 292.623 305.696 293.114 305.696 293.617C305.696 294.291 305.428 294.937 304.951 295.414C304.475 295.89 303.828 296.158 303.155 296.158ZM303.155 291.285C302.692 291.285 302.24 291.422 301.856 291.679C301.471 291.936 301.172 292.302 300.995 292.729C300.818 293.156 300.772 293.627 300.863 294.08C300.954 294.533 301.177 294.95 301.504 295.276C301.831 295.603 302.248 295.825 302.702 295.915C303.155 296.004 303.626 295.957 304.052 295.78C304.479 295.602 304.844 295.302 305.1 294.917C305.356 294.532 305.492 294.079 305.491 293.617C305.494 293.309 305.435 293.004 305.318 292.719C305.201 292.434 305.03 292.174 304.812 291.956C304.595 291.738 304.337 291.565 304.052 291.447C303.768 291.329 303.462 291.269 303.155 291.27V291.285Z" fill="#1D66FF"/>
<path d="M303.754 288.933L303.681 286.072L304.394 286.082L303.063 284.453L301.727 286.098L302.465 286.103L302.539 288.928L303.754 288.933Z" fill="#EBEBEB"/>
<path d="M301.058 290.468V290.992H300.586V290.468C300.169 290.455 299.764 290.324 299.418 290.091L299.675 289.52C299.945 289.707 300.259 289.82 300.586 289.85V289.085C300.062 288.959 299.486 288.786 299.486 288.116C299.486 287.592 299.848 287.188 300.586 287.104V286.58H301.058V287.104C301.392 287.126 301.717 287.225 302.006 287.392L301.776 287.969C301.554 287.842 301.311 287.759 301.058 287.723V288.524C301.582 288.645 302.148 288.818 302.148 289.478C302.148 289.955 301.792 290.395 301.058 290.468ZM300.586 288.372V287.707C300.34 287.764 300.241 287.901 300.241 288.053C300.241 288.205 300.382 288.33 300.586 288.393V288.372ZM301.393 289.504C301.393 289.342 301.257 289.253 301.058 289.179V289.871C301.289 289.797 301.393 289.677 301.393 289.525V289.504Z" fill="#E0E0E0"/>
<path d="M258.997 311.453C258.997 311.729 258.915 312 258.761 312.23C258.608 312.46 258.389 312.639 258.134 312.745C257.878 312.851 257.597 312.879 257.325 312.825C257.054 312.771 256.805 312.638 256.609 312.442C256.413 312.246 256.28 311.997 256.226 311.726C256.172 311.454 256.2 311.173 256.306 310.917C256.412 310.662 256.591 310.443 256.821 310.289C257.051 310.136 257.322 310.054 257.598 310.054C257.969 310.055 258.324 310.203 258.586 310.465C258.848 310.727 258.996 311.082 258.997 311.453Z" fill="#1D66FF"/>
<path d="M257.596 314.046C257.093 314.046 256.602 313.897 256.184 313.618C255.766 313.339 255.44 312.942 255.248 312.478C255.056 312.013 255.005 311.502 255.104 311.009C255.202 310.516 255.444 310.064 255.799 309.708C256.154 309.353 256.607 309.111 257.1 309.013C257.593 308.915 258.104 308.965 258.568 309.157C259.033 309.35 259.43 309.675 259.709 310.093C259.988 310.511 260.137 311.002 260.137 311.505C260.136 312.179 259.868 312.824 259.391 313.301C258.915 313.777 258.269 314.045 257.596 314.046ZM257.596 309.168C257.134 309.168 256.682 309.305 256.298 309.562C255.913 309.819 255.614 310.184 255.437 310.611C255.26 311.038 255.214 311.508 255.304 311.961C255.394 312.414 255.617 312.831 255.944 313.158C256.27 313.484 256.687 313.707 257.14 313.797C257.593 313.887 258.063 313.841 258.49 313.664C258.917 313.487 259.282 313.188 259.539 312.803C259.796 312.419 259.933 311.967 259.933 311.505C259.933 310.885 259.687 310.291 259.248 309.853C258.81 309.414 258.216 309.168 257.596 309.168Z" fill="#1D66FF"/>
<path d="M256.901 303.321L256.98 306.182L256.262 306.171L257.598 307.801L258.934 306.155L258.19 306.15L258.117 303.326L256.901 303.321Z" fill="#EBEBEB"/>
<path d="M255.257 308.524V309.048H254.786V308.524C254.368 308.511 253.963 308.38 253.617 308.147L253.879 307.575C254.148 307.763 254.46 307.878 254.786 307.911V307.162C254.262 307.036 253.685 306.863 253.685 306.192C253.685 305.668 254.047 305.27 254.786 305.181V304.657H255.257V305.181C255.593 305.199 255.92 305.296 256.211 305.464L255.975 306.04C255.755 305.912 255.51 305.83 255.257 305.799V306.596C255.781 306.716 256.352 306.889 256.352 307.555C256.352 308.016 255.991 308.435 255.257 308.524ZM254.786 306.454V305.784C254.539 305.841 254.44 305.977 254.44 306.135C254.44 306.292 254.581 306.386 254.786 306.454ZM255.593 307.581C255.593 307.418 255.456 307.329 255.257 307.261V307.906C255.493 307.853 255.593 307.733 255.593 307.581Z" fill="#E0E0E0"/>
<path d="M337.531 293.35V293.874H337.059V293.35C336.642 293.338 336.237 293.209 335.891 292.978L336.147 292.401C336.417 292.59 336.731 292.705 337.059 292.737V291.966C336.535 291.841 335.959 291.668 335.959 290.997C335.959 290.499 336.32 290.075 337.059 289.991V289.467H337.531V289.991C337.865 290.008 338.19 290.105 338.479 290.274L338.248 290.856C338.028 290.727 337.784 290.643 337.531 290.609V291.406C338.055 291.526 338.621 291.704 338.621 292.365C338.621 292.836 338.264 293.261 337.531 293.35ZM337.059 291.254V290.588C336.813 290.641 336.713 290.777 336.713 290.934C336.713 291.091 336.855 291.207 337.059 291.275V291.254ZM337.866 292.386C337.866 292.218 337.73 292.129 337.531 292.061V292.705C337.761 292.674 337.866 292.553 337.866 292.406V292.386Z" fill="#E0E0E0"/>
<path d="M340.446 293.774C340.66 293.68 340.842 293.525 340.968 293.328C341.095 293.132 341.161 292.902 341.159 292.669C341.169 292.515 341.148 292.361 341.097 292.217C341.045 292.072 340.965 291.939 340.86 291.827C340.755 291.714 340.628 291.625 340.487 291.564C340.346 291.502 340.194 291.471 340.04 291.471C339.886 291.471 339.734 291.502 339.593 291.564C339.452 291.625 339.326 291.714 339.221 291.827C339.116 291.939 339.035 292.072 338.984 292.217C338.932 292.361 338.911 292.515 338.922 292.669C338.916 292.904 338.98 293.137 339.107 293.336C339.234 293.534 339.418 293.691 339.634 293.785C337.91 294.041 337.989 295.917 337.989 295.917H342.065C342.065 295.917 342.144 294.031 340.446 293.774Z" fill="#EBEBEB"/>
<path d="M340.02 300.513C340.793 300.513 341.419 299.886 341.419 299.114C341.419 298.341 340.793 297.715 340.02 297.715C339.247 297.715 338.621 298.341 338.621 299.114C338.621 299.886 339.247 300.513 340.02 300.513Z" fill="#1D66FF"/>
<path d="M340.019 301.707C339.516 301.708 339.024 301.56 338.606 301.281C338.187 301.003 337.861 300.606 337.668 300.142C337.474 299.678 337.423 299.166 337.521 298.673C337.618 298.18 337.86 297.727 338.215 297.371C338.57 297.015 339.023 296.772 339.516 296.674C340.009 296.575 340.521 296.625 340.985 296.817C341.45 297.01 341.847 297.335 342.126 297.753C342.406 298.171 342.555 298.663 342.555 299.166C342.555 299.839 342.288 300.484 341.813 300.961C341.337 301.437 340.692 301.706 340.019 301.707ZM340.019 296.829C339.557 296.828 339.104 296.964 338.719 297.22C338.334 297.476 338.034 297.841 337.856 298.268C337.679 298.695 337.632 299.165 337.721 299.618C337.811 300.072 338.033 300.489 338.36 300.816C338.686 301.144 339.103 301.367 339.556 301.457C340.01 301.548 340.48 301.502 340.907 301.325C341.334 301.149 341.7 300.849 341.957 300.465C342.214 300.08 342.351 299.628 342.351 299.166C342.351 298.547 342.105 297.953 341.668 297.515C341.231 297.077 340.638 296.83 340.019 296.829Z" fill="#1D66FF"/>
<path d="M77.4375 94.5264C77.4375 93.3318 78.406 92.3633 79.6007 92.3633H298.08C299.275 92.3633 300.243 93.3318 300.243 94.5264C300.243 95.7211 299.275 96.6896 298.08 96.6896H79.6007C78.406 96.6896 77.4375 95.7211 77.4375 94.5264Z" fill="#D9D9D9"/>
<path d="M77.4375 94.5264C77.4375 93.3318 78.406 92.3633 79.6007 92.3633H275.583C276.778 92.3633 277.747 93.3318 277.747 94.5264C277.747 95.7211 276.778 96.6896 275.583 96.6896H79.6007C78.406 96.6896 77.4375 95.7211 77.4375 94.5264Z" fill="#81DD6A"/>
<path d="M77.4375 126.541C77.4375 125.347 78.406 124.378 79.6007 124.378H298.08C299.275 124.378 300.243 125.347 300.243 126.541C300.243 127.736 299.275 128.705 298.08 128.705H79.6007C78.406 128.705 77.4375 127.736 77.4375 126.541Z" fill="#D9D9D9"/>
<path d="M77.4375 126.541C77.4375 125.347 78.406 124.378 79.6007 124.378H197.709C198.904 124.378 199.873 125.347 199.873 126.541C199.873 127.736 198.904 128.705 197.709 128.705H79.6007C78.406 128.705 77.4375 127.736 77.4375 126.541Z" fill="#FF993C"/>
<path d="M77.4375 158.124C77.4375 156.929 78.406 155.961 79.6007 155.961H298.08C299.275 155.961 300.243 156.929 300.243 158.124C300.243 159.319 299.275 160.287 298.08 160.287H79.6007C78.406 160.287 77.4375 159.319 77.4375 158.124Z" fill="#D9D9D9"/>
<path d="M77.4375 158.124C77.4375 156.929 78.406 155.961 79.6007 155.961H119.403C120.598 155.961 121.566 156.929 121.566 158.124C121.566 159.319 120.598 160.287 119.403 160.287H79.6007C78.406 160.287 77.4375 159.319 77.4375 158.124Z" fill="#FF5454"/>
<path d="M440.075 309.362C440.075 308.469 439.546 307.866 438.3 307.596L437.957 307.524V305.79C438.466 305.873 438.736 306.184 438.767 306.683H440.003C439.94 305.499 439.162 304.803 437.957 304.7V304.004H437.365V304.7C436.088 304.803 435.278 305.603 435.278 306.672C435.278 307.565 435.849 308.188 437.064 308.448L437.313 308.5V310.327C436.784 310.223 436.452 309.87 436.4 309.279H435.164C435.206 310.545 436.067 311.324 437.313 311.438V312.144H437.905V311.449C439.224 311.355 440.075 310.525 440.075 309.362ZM436.503 306.631C436.503 306.174 436.815 305.852 437.365 305.779V307.389C436.701 307.212 436.503 306.994 436.503 306.631ZM437.905 308.624C438.611 308.811 438.85 309.05 438.85 309.455C438.85 309.943 438.497 310.286 437.905 310.358V308.624Z" fill="#6E7E82"/>
<path d="M444.799 307.97C445.463 307.638 445.775 307.077 445.775 306.392C445.775 305.188 444.83 304.357 443.438 304.357C442.006 304.357 440.998 305.24 440.967 306.662H442.275C442.317 305.904 442.732 305.541 443.407 305.541C444.082 305.541 444.466 305.914 444.466 306.496C444.466 307.057 444.124 307.441 443.355 307.441H442.68V308.541H443.366C444.196 308.541 444.643 308.915 444.643 309.528C444.643 310.151 444.176 310.608 443.438 310.608C442.732 310.608 442.255 310.203 442.224 309.476H440.915C440.926 310.929 441.922 311.791 443.407 311.791C444.934 311.791 445.951 310.878 445.951 309.663C445.951 308.894 445.546 308.282 444.799 307.97Z" fill="#6E7E82"/>
<path d="M449.691 306.932C449.224 306.932 448.778 307.057 448.404 307.306L448.612 305.634H451.498V304.44H447.49L447.012 308.604H448.238C448.508 308.209 448.965 308.001 449.453 308.001C450.19 308.001 450.678 308.479 450.678 309.268C450.678 310.068 450.179 310.597 449.401 310.597C448.746 310.597 448.279 310.213 448.207 309.538H446.888C446.94 310.94 447.978 311.791 449.369 311.791C450.927 311.791 451.986 310.784 451.986 309.31C451.986 307.866 451 306.932 449.691 306.932Z" fill="#6E7E82"/>
<path d="M454.023 313.162L454.605 310.172H453.276L452.975 313.162H454.023Z" fill="#6E7E82"/>
<path d="M458.371 306.932C457.904 306.932 457.457 307.057 457.084 307.306L457.291 305.634H460.178V304.44H456.17L455.692 308.604H456.917C457.187 308.209 457.644 308.001 458.132 308.001C458.869 308.001 459.357 308.479 459.357 309.268C459.357 310.068 458.859 310.597 458.08 310.597C457.426 310.597 456.959 310.213 456.886 309.538H455.568C455.62 310.94 456.658 311.791 458.049 311.791C459.607 311.791 460.666 310.784 460.666 309.31C460.666 307.866 459.679 306.932 458.371 306.932Z" fill="#6E7E82"/>
<path d="M465.507 307.95C466.193 307.596 466.514 306.994 466.514 306.34C466.514 305.208 465.538 304.357 464.064 304.357C462.59 304.357 461.624 305.208 461.624 306.34C461.624 306.994 461.935 307.596 462.621 307.95C461.904 308.292 461.489 308.957 461.489 309.715C461.489 310.929 462.486 311.791 464.064 311.791C465.653 311.791 466.639 310.929 466.639 309.715C466.639 308.957 466.234 308.292 465.507 307.95ZM464.064 305.468C464.801 305.468 465.227 305.883 465.227 306.465C465.227 307.046 464.791 307.451 464.064 307.451C463.348 307.451 462.912 307.046 462.912 306.465C462.912 305.883 463.337 305.468 464.064 305.468ZM464.064 310.68C463.327 310.68 462.797 310.255 462.797 309.611C462.797 308.977 463.316 308.51 464.064 308.51C464.812 308.51 465.341 308.977 465.341 309.611C465.341 310.255 464.812 310.68 464.064 310.68Z" fill="#6E7E82"/>
<path d="M470.387 306.693C470.283 306.693 470.179 306.704 470.075 306.714L471.612 304.44H470.086L468.404 306.942C467.76 307.908 467.521 308.541 467.521 309.216C467.521 310.691 468.694 311.791 470.179 311.791C471.695 311.791 472.858 310.649 472.858 309.185C472.858 307.742 471.757 306.693 470.387 306.693ZM470.189 310.597C469.421 310.597 468.84 310.026 468.84 309.196C468.84 308.375 469.421 307.804 470.189 307.804C470.958 307.804 471.539 308.375 471.539 309.196C471.539 310.026 470.958 310.597 470.189 310.597Z" fill="#6E7E82"/>
<path d="M474.592 311.781C475.09 311.781 475.453 311.418 475.453 310.919C475.453 310.41 475.09 310.057 474.592 310.057C474.093 310.057 473.73 310.41 473.73 310.919C473.73 311.418 474.093 311.781 474.592 311.781Z" fill="#6E7E82"/>
<path d="M479.107 311.791C480.758 311.791 481.889 310.452 481.889 308.074C481.889 305.696 480.758 304.357 479.107 304.357C477.466 304.357 476.334 305.696 476.334 308.074C476.334 310.452 477.466 311.791 479.107 311.791ZM479.107 310.597C478.245 310.597 477.674 309.829 477.674 308.074C477.674 306.319 478.245 305.551 479.107 305.551C479.979 305.551 480.55 306.319 480.55 308.074C480.55 309.829 479.979 310.597 479.107 310.597Z" fill="#6E7E82"/>
<path d="M485.637 311.791C487.288 311.791 488.42 310.452 488.42 308.074C488.42 305.696 487.288 304.357 485.637 304.357C483.996 304.357 482.865 305.696 482.865 308.074C482.865 310.452 483.996 311.791 485.637 311.791ZM485.637 310.597C484.775 310.597 484.204 309.829 484.204 308.074C484.204 306.319 484.775 305.551 485.637 305.551C486.509 305.551 487.08 306.319 487.08 308.074C487.08 309.829 486.509 310.597 485.637 310.597Z" fill="#6E7E82"/>
<path d="M362.237 87.6738C363.673 87.6738 364.564 86.8778 364.564 85.7789C364.564 84.9136 364.01 84.3426 362.894 84.1349L362.064 83.9791C361.268 83.8407 361.017 83.6071 361.017 83.235C361.017 82.7678 361.423 82.439 362.141 82.439C362.868 82.439 363.301 82.7764 363.379 83.3562H364.478C364.426 82.2227 363.517 81.4785 362.167 81.4785C360.8 81.4785 359.909 82.2486 359.909 83.3042C359.909 84.1349 360.463 84.68 361.527 84.8704L362.358 85.0261C363.171 85.1819 363.448 85.4414 363.448 85.8481C363.448 86.3327 363.067 86.7047 362.297 86.7047C361.518 86.7047 360.999 86.3154 360.947 85.6578H359.84C359.866 86.8691 360.8 87.6738 362.237 87.6738Z" fill="#6E7E82"/>
<path d="M367.609 87.6738C368.942 87.6738 369.954 86.6961 369.954 85.3117C369.954 83.9272 368.942 82.9495 367.609 82.9495C366.277 82.9495 365.264 83.9272 365.264 85.3117C365.264 86.6961 366.277 87.6738 367.609 87.6738ZM367.609 86.7393C366.865 86.7393 366.337 86.1769 366.337 85.3117C366.337 84.4464 366.865 83.884 367.609 83.884C368.353 83.884 368.881 84.4464 368.881 85.3117C368.881 86.1769 368.353 86.7393 367.609 86.7393Z" fill="#6E7E82"/>
<path d="M373.919 85.4674C373.919 86.2807 373.426 86.7047 372.794 86.7047C372.223 86.7047 371.86 86.3673 371.86 85.6231V83.0187H370.804V85.9087C370.804 87.0249 371.47 87.6738 372.431 87.6738C373.054 87.6738 373.608 87.4056 373.928 86.9384V87.6046H374.975V83.0187H373.919V85.4674Z" fill="#6E7E82"/>
<path d="M378.56 83.0187C377.971 83.0187 377.452 83.2956 377.184 83.8061V83.0187H376.146V87.6046H377.201V85.4068C377.201 84.4464 377.669 83.9791 378.542 83.9791H378.923V83.0187H378.56Z" fill="#6E7E82"/>
<path d="M381.661 87.6738C382.838 87.6738 383.764 86.947 383.894 85.8308H382.838C382.743 86.3586 382.267 86.7393 381.67 86.7393C380.952 86.7393 380.389 86.1942 380.389 85.3117C380.389 84.4291 380.952 83.884 381.67 83.884C382.25 83.884 382.717 84.2387 382.812 84.7838H383.894C383.772 83.6676 382.855 82.9495 381.687 82.9495C380.329 82.9495 379.316 83.9099 379.316 85.3117C379.316 86.7047 380.303 87.6738 381.661 87.6738Z" fill="#6E7E82"/>
<path d="M389.125 85.1905C389.125 83.8234 388.156 82.9495 386.893 82.9495C385.551 82.9495 384.513 83.9186 384.513 85.3463C384.513 86.7393 385.491 87.6738 386.884 87.6738C387.965 87.6738 388.813 87.1114 389.064 86.1769H388.043C387.862 86.5576 387.438 86.7913 386.91 86.7913C386.2 86.7913 385.647 86.3759 385.551 85.5539H389.108C389.116 85.4414 389.125 85.3203 389.125 85.1905ZM386.893 83.8234C387.507 83.8234 387.957 84.1435 388.069 84.8011H385.603C385.776 84.1695 386.27 83.8234 386.893 83.8234Z" fill="#6E7E82"/>
<path d="M394.083 87.6738C395.415 87.6738 396.427 86.6961 396.427 85.3117C396.427 83.9272 395.415 82.9495 394.083 82.9495C392.75 82.9495 391.738 83.9272 391.738 85.3117C391.738 86.6961 392.75 87.6738 394.083 87.6738ZM394.083 86.7393C393.338 86.7393 392.811 86.1769 392.811 85.3117C392.811 84.4464 393.338 83.884 394.083 83.884C394.827 83.884 395.354 84.4464 395.354 85.3117C395.354 86.1769 394.827 86.7393 394.083 86.7393Z" fill="#6E7E82"/>
<path d="M399.918 82.1534V81.2622H398.949C398.066 81.2622 397.608 81.7208 397.608 82.6034V83.0447H396.846V83.9532H397.608V87.6046H398.663V83.9532H399.918V83.0447H398.663V82.7505C398.663 82.3092 398.819 82.1534 399.269 82.1534H399.918Z" fill="#6E7E82"/>
<path d="M406.696 81.5477H402.629V87.6046H403.746V85.1213H406.359V84.1262H403.746V82.5601H406.696V81.5477Z" fill="#6E7E82"/>
<path d="M410.676 85.4674C410.676 86.2807 410.183 86.7047 409.551 86.7047C408.98 86.7047 408.617 86.3673 408.617 85.6231V83.0187H407.561V85.9087C407.561 87.0249 408.227 87.6738 409.188 87.6738C409.811 87.6738 410.365 87.4056 410.685 86.9384V87.6046H411.732V83.0187H410.676V85.4674Z" fill="#6E7E82"/>
<path d="M415.464 82.9495C414.823 82.9495 414.261 83.2264 413.941 83.685V83.0187H412.903V87.6046H413.958V85.1732C413.958 84.3512 414.443 83.9099 415.1 83.9099C415.689 83.9099 416.061 84.282 416.061 85.0348V87.6046H417.116V84.7319C417.116 83.5984 416.45 82.9495 415.464 82.9495Z" fill="#6E7E82"/>
<path d="M421.591 83.659C421.297 83.2264 420.744 82.9495 420.112 82.9495C418.926 82.9495 417.983 83.9013 417.983 85.3117C417.983 86.722 418.926 87.6738 420.112 87.6738C420.752 87.6738 421.306 87.3969 421.6 86.947V87.6046H422.647V81.2882H421.591V83.659ZM420.337 86.7393C419.584 86.7393 419.056 86.1769 419.056 85.3117C419.056 84.4464 419.584 83.884 420.337 83.884C421.081 83.884 421.609 84.4464 421.609 85.3117C421.609 86.1769 421.081 86.7393 420.337 86.7393Z" fill="#6E7E82"/>
<path d="M425.507 87.6738C426.71 87.6738 427.419 87.0508 427.419 86.1683C427.419 85.4847 426.987 85.078 426.087 84.9136L425.351 84.7838C424.746 84.6714 424.581 84.5329 424.581 84.2993C424.581 83.9964 424.858 83.7801 425.403 83.7801C425.974 83.7801 426.303 84.0224 426.364 84.4291H427.376C427.307 83.4946 426.615 82.9495 425.472 82.9495C424.278 82.9495 423.569 83.5379 423.569 84.3685C423.569 85.0002 423.967 85.4241 424.893 85.5885L425.628 85.727C426.217 85.8395 426.407 85.9866 426.407 86.2548C426.407 86.6009 426.104 86.8345 425.55 86.8345C424.971 86.8345 424.599 86.5663 424.547 86.1337H423.526C423.569 87.0854 424.33 87.6738 425.507 87.6738Z" fill="#6E7E82"/>
<path d="M82.8739 81.1148L81.3511 78.7786C82.1904 78.5363 82.7095 77.8787 82.7095 76.9961C82.7095 75.8626 81.8529 75.0579 80.5896 75.0579H78.0977V81.1148H79.2138V78.9257H80.2003L81.5933 81.1148H82.8739ZM80.5377 76.053C81.2213 76.053 81.5847 76.4251 81.5847 76.9961C81.5847 77.5672 81.2213 77.9306 80.5377 77.9306H79.2138V76.053H80.5377Z" fill="#6E7E82"/>
<path d="M84.3104 75.88C84.6911 75.88 85.0113 75.5944 85.0113 75.205C85.0113 74.8157 84.6911 74.5215 84.3104 74.5215C83.9297 74.5215 83.6095 74.8157 83.6095 75.205C83.6095 75.5944 83.9297 75.88 84.3104 75.88ZM84.8382 81.1148V76.5289H83.7826V81.1148H84.8382Z" fill="#6E7E82"/>
<path d="M87.6922 81.184C88.8949 81.184 89.6044 80.561 89.6044 79.6785C89.6044 78.9949 89.1718 78.5882 88.2719 78.4238L87.5364 78.294C86.9307 78.1816 86.7663 78.0431 86.7663 77.8095C86.7663 77.5067 87.0432 77.2903 87.5883 77.2903C88.1594 77.2903 88.4882 77.5326 88.5488 77.9393H89.5611C89.4919 77.0048 88.7997 76.4597 87.6576 76.4597C86.4635 76.4597 85.754 77.0481 85.754 77.8787C85.754 78.5104 86.152 78.9343 87.0778 79.0987L87.8133 79.2372C88.4017 79.3497 88.592 79.4968 88.592 79.765C88.592 80.1111 88.2892 80.3447 87.7354 80.3447C87.1557 80.3447 86.7836 80.0765 86.7317 79.6439H85.7107C85.754 80.5957 86.5154 81.184 87.6922 81.184Z" fill="#6E7E82"/>
<path d="M94.862 81.1148L93.019 78.6921L94.7754 76.5289H93.5381L92.1537 78.2421H91.522V74.7984H90.4664V81.1148H91.522V79.1593H92.1104L93.5987 81.1148H94.862Z" fill="#6E7E82"/>
<path d="M102.922 81.1148L100.664 75.0579H99.2532L96.9949 81.1148H98.1284L98.6562 79.6612H101.235L101.762 81.1148H102.922ZM99.9454 76.0876L100.897 78.718H98.9936L99.9454 76.0876Z" fill="#6E7E82"/>
<path d="M105.327 81.184C106.53 81.184 107.239 80.561 107.239 79.6785C107.239 78.9949 106.807 78.5882 105.907 78.4238L105.171 78.294C104.566 78.1816 104.401 78.0431 104.401 77.8095C104.401 77.5067 104.678 77.2903 105.223 77.2903C105.794 77.2903 106.123 77.5326 106.184 77.9393H107.196C107.127 77.0048 106.435 76.4597 105.292 76.4597C104.098 76.4597 103.389 77.0481 103.389 77.8787C103.389 78.5104 103.787 78.9343 104.713 79.0987L105.448 79.2372C106.037 79.3497 106.227 79.4968 106.227 79.765C106.227 80.1111 105.924 80.3447 105.37 80.3447C104.791 80.3447 104.418 80.0765 104.367 79.6439H103.346C103.389 80.5957 104.15 81.184 105.327 81.184Z" fill="#6E7E82"/>
<path d="M109.814 81.184C111.017 81.184 111.726 80.561 111.726 79.6785C111.726 78.9949 111.294 78.5882 110.394 78.4238L109.658 78.294C109.052 78.1816 108.888 78.0431 108.888 77.8095C108.888 77.5067 109.165 77.2903 109.71 77.2903C110.281 77.2903 110.61 77.5326 110.671 77.9393H111.683C111.614 77.0048 110.921 76.4597 109.779 76.4597C108.585 76.4597 107.876 77.0481 107.876 77.8787C107.876 78.5104 108.274 78.9343 109.2 79.0987L109.935 79.2372C110.523 79.3497 110.714 79.4968 110.714 79.765C110.714 80.1111 110.411 80.3447 109.857 80.3447C109.277 80.3447 108.905 80.0765 108.853 79.6439H107.832C107.876 80.5957 108.637 81.184 109.814 81.184Z" fill="#6E7E82"/>
<path d="M116.982 78.7007C116.982 77.3336 116.013 76.4597 114.75 76.4597C113.409 76.4597 112.37 77.4288 112.37 78.8565C112.37 80.2495 113.348 81.184 114.741 81.184C115.823 81.184 116.671 80.6216 116.922 79.6871H115.901C115.719 80.0678 115.295 80.3015 114.767 80.3015C114.058 80.3015 113.504 79.8861 113.409 79.0641H116.965C116.974 78.9516 116.982 78.8305 116.982 78.7007ZM114.75 77.3336C115.364 77.3336 115.814 77.6537 115.927 78.3113H113.461C113.634 77.6797 114.127 77.3336 114.75 77.3336Z" fill="#6E7E82"/>
<path d="M119.624 81.184C120.827 81.184 121.536 80.561 121.536 79.6785C121.536 78.9949 121.104 78.5882 120.204 78.4238L119.468 78.294C118.863 78.1816 118.698 78.0431 118.698 77.8095C118.698 77.5067 118.975 77.2903 119.52 77.2903C120.091 77.2903 120.42 77.5326 120.481 77.9393H121.493C121.424 77.0048 120.732 76.4597 119.59 76.4597C118.396 76.4597 117.686 77.0481 117.686 77.8787C117.686 78.5104 118.084 78.9343 119.01 79.0987L119.745 79.2372C120.334 79.3497 120.524 79.4968 120.524 79.765C120.524 80.1111 120.221 80.3447 119.667 80.3447C119.088 80.3447 118.716 80.0765 118.664 79.6439H117.643C117.686 80.5957 118.447 81.184 119.624 81.184Z" fill="#6E7E82"/>
<path d="M124.111 81.184C125.314 81.184 126.023 80.561 126.023 79.6785C126.023 78.9949 125.591 78.5882 124.691 78.4238L123.955 78.294C123.35 78.1816 123.185 78.0431 123.185 77.8095C123.185 77.5067 123.462 77.2903 124.007 77.2903C124.578 77.2903 124.907 77.5326 124.968 77.9393H125.98C125.911 77.0048 125.219 76.4597 124.076 76.4597C122.882 76.4597 122.173 77.0481 122.173 77.8787C122.173 78.5104 122.571 78.9343 123.497 79.0987L124.232 79.2372C124.821 79.3497 125.011 79.4968 125.011 79.765C125.011 80.1111 124.708 80.3447 124.154 80.3447C123.575 80.3447 123.203 80.0765 123.151 79.6439H122.13C122.173 80.5957 122.934 81.184 124.111 81.184Z" fill="#6E7E82"/>
<path d="M132.293 76.4597C131.644 76.4597 131.03 76.7798 130.727 77.3249C130.476 76.7625 129.974 76.4597 129.343 76.4597C128.763 76.4597 128.235 76.7193 127.924 77.1779V76.5289H126.885V81.1148H127.941V78.6661C127.941 77.8528 128.4 77.4201 128.979 77.4201C129.498 77.4201 129.845 77.7749 129.845 78.5363V81.1148H130.9V78.6661C130.9 77.8528 131.359 77.4201 131.938 77.4201C132.458 77.4201 132.804 77.7749 132.804 78.5363V81.1148H133.859V78.2335C133.859 77.1 133.21 76.4597 132.293 76.4597Z" fill="#6E7E82"/>
<path d="M139.315 78.7007C139.315 77.3336 138.346 76.4597 137.083 76.4597C135.742 76.4597 134.703 77.4288 134.703 78.8565C134.703 80.2495 135.681 81.184 137.074 81.184C138.156 81.184 139.004 80.6216 139.255 79.6871H138.234C138.052 80.0678 137.628 80.3015 137.1 80.3015C136.391 80.3015 135.837 79.8861 135.742 79.0641H139.298C139.307 78.9516 139.315 78.8305 139.315 78.7007ZM137.083 77.3336C137.697 77.3336 138.147 77.6537 138.26 78.3113H135.794C135.967 77.6797 136.46 77.3336 137.083 77.3336Z" fill="#6E7E82"/>
<path d="M142.797 76.4597C142.157 76.4597 141.595 76.7366 141.274 77.1952V76.5289H140.236V81.1148H141.292V78.6834C141.292 77.8614 141.776 77.4201 142.434 77.4201C143.022 77.4201 143.394 77.7922 143.394 78.545V81.1148H144.45V78.2421C144.45 77.1086 143.784 76.4597 142.797 76.4597Z" fill="#6E7E82"/>
<path d="M148.122 76.5289H146.867V75.4041H145.812V76.1914C145.812 76.4337 145.717 76.5289 145.474 76.5289H145.05V77.4461H145.812V79.7736C145.812 80.6562 146.262 81.1148 147.153 81.1148H148.122V80.189H147.465C147.023 80.189 146.867 80.0332 146.867 79.5833V77.4461H148.122V76.5289Z" fill="#6E7E82"/>
<path d="M454.776 317.765C454.646 318.302 454.421 318.457 453.703 318.457H453.426V319.046H454.611V323.822H455.355V317.765H454.776Z" fill="#C9EAF1"/>
<path d="M457.217 323.874C457.511 323.874 457.745 323.649 457.745 323.346C457.745 323.043 457.511 322.818 457.217 322.818C456.914 322.818 456.689 323.043 456.689 323.346C456.689 323.649 456.914 323.874 457.217 323.874Z" fill="#C9EAF1"/>
<path d="M460.802 319.894C460.343 319.894 459.911 320.032 459.556 320.309L459.772 318.423H462.316V317.765H459.132L458.769 321.14H459.417C459.712 320.733 460.179 320.525 460.689 320.525C461.477 320.525 461.979 321.019 461.979 321.841C461.979 322.671 461.451 323.234 460.629 323.234C459.954 323.234 459.469 322.836 459.374 322.083H458.63C458.699 323.234 459.53 323.891 460.603 323.891C461.858 323.891 462.723 323.043 462.723 321.849C462.723 320.69 461.883 319.894 460.802 319.894Z" fill="#C9EAF1"/>
<path d="M465.677 319.894C465.219 319.894 464.786 320.032 464.431 320.309L464.648 318.423H467.192V317.765H464.008L463.644 321.14H464.293C464.587 320.733 465.054 320.525 465.565 320.525C466.352 320.525 466.854 321.019 466.854 321.841C466.854 322.671 466.326 323.234 465.504 323.234C464.83 323.234 464.345 322.836 464.25 322.083H463.506C463.575 323.234 464.406 323.891 465.478 323.891C466.733 323.891 467.598 323.043 467.598 321.849C467.598 320.69 466.759 319.894 465.677 319.894Z" fill="#C9EAF1"/>
<path d="M471.541 321.062H474.241V320.396H471.541V318.431H474.769V317.765H470.78V323.822H474.829V323.156H471.541V321.062Z" fill="#C9EAF1"/>
<path d="M475.55 317.765V318.457H477.462V323.822H478.224V318.457H480.136V317.765H475.55Z" fill="#C9EAF1"/>
<path d="M485.043 320.344H481.859V317.765H481.097V323.822H481.859V321.019H485.043V323.822H485.804V317.765H485.043V320.344Z" fill="#C9EAF1"/>
<defs>
<filter id="filter0_d_2847_20892" x="0" y="0" width="572.426" height="382" filterUnits="userSpaceOnUse" color-interpolation-filters="sRGB">
<feFlood flood-opacity="0" result="BackgroundImageFix"/>
<feColorMatrix in="SourceAlpha" type="matrix" values="0 0 0 0 0 0 0 0 0 0 0 0 0 0 0 0 0 0 127 0" result="hardAlpha"/>
<feOffset dy="8"/>
<feGaussianBlur stdDeviation="8"/>
<feComposite in2="hardAlpha" operator="out"/>
<feColorMatrix type="matrix" values="0 0 0 0 0 0 0 0 0 0 0 0 0 0 0 0 0 0 0.08 0"/>
<feBlend mode="normal" in2="BackgroundImageFix" result="effect1_dropShadow_2847_20892"/>
<feBlend mode="normal" in="SourceGraphic" in2="effect1_dropShadow_2847_20892" result="shape"/>
</filter>
<filter id="filter1_d_2847_20892" x="0" y="38.4392" width="60.8281" height="343.561" filterUnits="userSpaceOnUse" color-interpolation-filters="sRGB">
<feFlood flood-opacity="0" result="BackgroundImageFix"/>
<feColorMatrix in="SourceAlpha" type="matrix" values="0 0 0 0 0 0 0 0 0 0 0 0 0 0 0 0 0 0 127 0" result="hardAlpha"/>
<feOffset dy="8"/>
<feGaussianBlur stdDeviation="8"/>
<feComposite in2="hardAlpha" operator="out"/>
<feColorMatrix type="matrix" values="0 0 0 0 0 0 0 0 0 0 0 0 0 0 0 0 0 0 0.08 0"/>
<feBlend mode="normal" in2="BackgroundImageFix" result="effect1_dropShadow_2847_20892"/>
<feBlend mode="normal" in="SourceGraphic" in2="effect1_dropShadow_2847_20892" result="shape"/>
</filter>
<filter id="filter2_d_2847_20892" x="49.3203" y="59.2708" width="304.559" height="155.3" filterUnits="userSpaceOnUse" color-interpolation-filters="sRGB">
<feFlood flood-opacity="0" result="BackgroundImageFix"/>
<feColorMatrix in="SourceAlpha" type="matrix" values="0 0 0 0 0 0 0 0 0 0 0 0 0 0 0 0 0 0 127 0" result="hardAlpha"/>
<feOffset dy="8"/>
<feGaussianBlur stdDeviation="8"/>
<feComposite in2="hardAlpha" operator="out"/>
<feColorMatrix type="matrix" values="0 0 0 0 0 0 0 0 0 0 0 0 0 0 0 0 0 0 0.08 0"/>
<feBlend mode="normal" in2="BackgroundImageFix" result="effect1_dropShadow_2847_20892"/>
<feBlend mode="normal" in="SourceGraphic" in2="effect1_dropShadow_2847_20892" result="shape"/>
</filter>
<filter id="filter3_d_2847_20892" x="49.3203" y="198.146" width="501.406" height="94.7317" filterUnits="userSpaceOnUse" color-interpolation-filters="sRGB">
<feFlood flood-opacity="0" result="BackgroundImageFix"/>
<feColorMatrix in="SourceAlpha" type="matrix" values="0 0 0 0 0 0 0 0 0 0 0 0 0 0 0 0 0 0 127 0" result="hardAlpha"/>
<feOffset dy="8"/>
<feGaussianBlur stdDeviation="8"/>
<feComposite in2="hardAlpha" operator="out"/>
<feColorMatrix type="matrix" values="0 0 0 0 0 0 0 0 0 0 0 0 0 0 0 0 0 0 0.08 0"/>
<feBlend mode="normal" in2="BackgroundImageFix" result="effect1_dropShadow_2847_20892"/>
<feBlend mode="normal" in="SourceGraphic" in2="effect1_dropShadow_2847_20892" result="shape"/>
</filter>
<filter id="filter4_d_2847_20892" x="49.3203" y="269.53" width="501.406" height="94.7317" filterUnits="userSpaceOnUse" color-interpolation-filters="sRGB">
<feFlood flood-opacity="0" result="BackgroundImageFix"/>
<feColorMatrix in="SourceAlpha" type="matrix" values="0 0 0 0 0 0 0 0 0 0 0 0 0 0 0 0 0 0 127 0" result="hardAlpha"/>
<feOffset dy="8"/>
<feGaussianBlur stdDeviation="8"/>
<feComposite in2="hardAlpha" operator="out"/>
<feColorMatrix type="matrix" values="0 0 0 0 0 0 0 0 0 0 0 0 0 0 0 0 0 0 0.08 0"/>
<feBlend mode="normal" in2="BackgroundImageFix" result="effect1_dropShadow_2847_20892"/>
<feBlend mode="normal" in="SourceGraphic" in2="effect1_dropShadow_2847_20892" result="shape"/>
</filter>
<filter id="filter5_d_2847_20892" x="330.531" y="59.2708" width="220.195" height="155.3" filterUnits="userSpaceOnUse" color-interpolation-filters="sRGB">
<feFlood flood-opacity="0" result="BackgroundImageFix"/>
<feColorMatrix in="SourceAlpha" type="matrix" values="0 0 0 0 0 0 0 0 0 0 0 0 0 0 0 0 0 0 127 0" result="hardAlpha"/>
<feOffset dy="8"/>
<feGaussianBlur stdDeviation="8"/>
<feComposite in2="hardAlpha" operator="out"/>
<feColorMatrix type="matrix" values="0 0 0 0 0 0 0 0 0 0 0 0 0 0 0 0 0 0 0.08 0"/>
<feBlend mode="normal" in2="BackgroundImageFix" result="effect1_dropShadow_2847_20892"/>
<feBlend mode="normal" in="SourceGraphic" in2="effect1_dropShadow_2847_20892" result="shape"/>
</filter>
</defs>
</svg>
