<svg width="629" height="560" viewBox="0 0 629 560" fill="none" xmlns="http://www.w3.org/2000/svg">
<path d="M436.37 547.36L597.23 440.11C606.822 433.717 614.688 425.054 620.127 414.891C625.567 404.727 628.412 393.378 628.41 381.85V70C628.41 51.4348 621.035 33.6301 607.907 20.5025C594.78 7.37499 576.975 0 558.41 0H70C51.4348 0 33.6301 7.37499 20.5025 20.5025C7.37499 33.6301 0 51.4348 0 70V489.1C0 507.665 7.37499 525.47 20.5025 538.597C33.6301 551.725 51.4348 559.1 70 559.1H397.53C411.352 559.107 424.866 555.022 436.37 547.36V547.36Z" fill="#46B2C8"/>
<path d="M262.66 139.74L208.86 313.23V419.32H181.81V313.23L131.51 139.74H159.66L195.74 264.2L234.32 139.74H262.66Z" fill="white"/>
<path d="M371.369 392.471C369.974 399.928 366.014 406.663 360.177 411.509C354.339 416.356 346.991 419.008 339.404 419.008C331.817 419.008 324.469 416.356 318.632 411.509C312.794 406.663 308.835 399.928 307.439 392.471L307.269 391.611L276.949 140.051H304.169L334.029 387.851C334.328 389.045 335.017 390.105 335.987 390.862C336.958 391.62 338.153 392.031 339.384 392.031C340.615 392.031 341.811 391.62 342.781 390.862C343.751 390.105 344.441 389.045 344.739 387.851L374.799 140.051H402.049L371.369 392.471Z" fill="white"/>
</svg>
