<svg width="1003" height="365" viewBox="0 0 1003 365" fill="none" xmlns="http://www.w3.org/2000/svg">
<path d="M877.39 356.9L982.27 286.98C988.526 282.811 993.656 277.16 997.203 270.531C1000.75 263.901 1002.6 256.498 1002.6 248.98V45.65C1002.6 33.5429 997.791 21.9316 989.229 13.3706C980.668 4.80954 969.057 1.09539e-06 956.95 1.09539e-06H45.66C39.6643 -0.00131231 33.7271 1.17849 28.1874 3.47203C22.6478 5.76557 17.6142 9.12791 13.3741 13.367C9.13406 17.6062 5.77061 22.639 3.47586 28.1782C1.18111 33.7174 -1.43856e-07 39.6543 0 45.65V318.92C-1.43856e-07 324.916 1.18111 330.853 3.47586 336.392C5.77061 341.931 9.13406 346.964 13.3741 351.203C17.6142 355.442 22.6478 358.804 28.1874 361.098C33.7271 363.392 39.6643 364.571 45.66 364.57H852.03C861.056 364.576 869.881 361.907 877.39 356.9Z" fill="#46B2C8"/>
<path d="M171.26 91.1406L136.19 204.251V273.481H118.56V204.251L85.7598 91.1406H104.12L127.64 172.291L152.79 91.1406H171.26Z" fill="#C7E8F0"/>
<path d="M263.711 115.051V249.531C263.697 255.398 261.53 261.056 257.62 265.431C253.71 269.805 248.33 272.592 242.501 273.261C241.618 273.373 240.73 273.43 239.841 273.431H208.261C207.361 273.429 206.463 273.373 205.571 273.261C199.752 272.572 194.387 269.779 190.485 265.408C186.584 261.037 184.416 255.39 184.391 249.531V115.051C184.414 108.718 186.94 102.652 191.416 98.1734C195.893 93.6948 201.958 91.167 208.291 91.1406H239.891C246.214 91.1723 252.268 93.7044 256.731 98.1841C261.194 102.664 263.703 108.727 263.711 115.051V115.051ZM246.081 115.051C246.081 113.394 245.424 111.805 244.254 110.631C243.085 109.458 241.497 108.796 239.841 108.791H208.231C206.569 108.793 204.977 109.455 203.804 110.631C202.63 111.806 201.971 113.399 201.971 115.061V115.061V249.531C201.971 251.192 202.63 252.785 203.804 253.961C204.977 255.136 206.569 255.798 208.231 255.801H239.841C241.497 255.795 243.085 255.133 244.254 253.96C245.424 252.787 246.081 251.197 246.081 249.541V249.541V115.051Z" fill="#C7E8F0"/>
<path d="M361.391 252.07C361.38 257.248 359.481 262.245 356.049 266.124C352.618 270.003 347.89 272.497 342.751 273.14C341.885 273.252 341.014 273.308 340.141 273.31H303.331C302.475 273.309 301.62 273.252 300.771 273.14C295.63 272.501 290.9 270.008 287.468 266.128C284.035 262.249 282.138 257.249 282.131 252.07V91.2695H299.701V252.07C299.706 253.034 300.093 253.957 300.777 254.638C301.461 255.318 302.386 255.7 303.351 255.7H340.131C341.095 255.7 342.021 255.318 342.705 254.638C343.389 253.957 343.776 253.034 343.781 252.07V91.2695H361.391V252.07Z" fill="#C7E8F0"/>
<path d="M437.71 255.92C436.802 260.783 434.222 265.176 430.416 268.338C426.61 271.499 421.818 273.229 416.87 273.229C411.923 273.229 407.131 271.499 403.325 268.338C399.519 265.176 396.938 260.783 396.03 255.92L395.92 255.35L376.15 91.3496H393.9L413.39 252.9C413.58 253.685 414.028 254.385 414.663 254.885C415.297 255.385 416.082 255.657 416.89 255.657C417.699 255.657 418.483 255.385 419.118 254.885C419.753 254.385 420.201 253.685 420.39 252.9L439.99 91.3496H457.75L437.71 255.92Z" fill="white"/>
<path d="M490.72 108.771V194.061H523.07V211.681H490.72V255.801H543.64V273.481H473.09V91.1406H543.64V108.771H490.72Z" fill="white"/>
<path d="M649.391 273.481H628.181L585.981 210.271C583.981 210.691 582.051 211.041 579.981 211.271V273.481H562.391V115.071C562.409 108.735 564.932 102.663 569.409 98.1805C573.887 93.6976 579.955 91.167 586.291 91.1406H617.931C624.266 91.167 630.335 93.6976 634.812 98.1805C639.289 102.663 641.812 108.735 641.831 115.071V141.191C641.831 154.242 638.214 167.038 631.383 178.159C624.551 189.28 614.772 198.29 603.131 204.191L649.391 273.481ZM580.031 193.481C592.373 191.393 603.577 185.004 611.66 175.446C619.743 165.888 624.182 153.778 624.191 141.261V115.051C624.191 113.392 623.532 111.801 622.361 110.628C621.189 109.454 619.599 108.793 617.941 108.791H586.271C584.613 108.796 583.025 109.457 581.854 110.631C580.682 111.804 580.023 113.393 580.021 115.051V193.401L580.031 193.481Z" fill="white"/>
<path d="M666.93 91.1406H684.53V273.261H666.93V91.1406Z" fill="white"/>
<path d="M723.001 108.8V194.09H755.391V211.71H723.001V273.48H705.391V91.1699H775.941V108.8H723.001Z" fill="white"/>
<path d="M871.24 91.1406L836.17 204.251V273.481H818.54V204.251L785.74 91.1406H804.1L827.62 172.291L852.77 91.1406H871.24Z" fill="white"/>
</svg>
