<svg width="454" height="1107" viewBox="0 0 454 1107" fill="none" xmlns="http://www.w3.org/2000/svg">
<mask id="mask0" mask-type="alpha" maskUnits="userSpaceOnUse" x="0" y="0" width="454" height="1107">
<rect width="454" height="1107" fill="#C4C4C4"/>
</mask>
<g mask="url(#mask0)">
<mask id="mask1" mask-type="alpha" maskUnits="userSpaceOnUse" x="0" y="0" width="790" height="1107">
<rect width="789.088" height="1107" fill="#C4C4C4"/>
</mask>
<g mask="url(#mask1)">
<path d="M265.74 1078.25V1061.5H256.988H228.842V1085.98H257.16L265.74 1078.25Z" stroke="#46B2C8" stroke-width="0.680618" stroke-miterlimit="10"/>
<path d="M299.601 1086.02L296.836 1069.5L288.207 1070.95L244.242 1078.32L248.278 1102.45L292.417 1095.06L299.601 1086.02Z" stroke="#115766" stroke-width="0.680618" stroke-miterlimit="10"/>
<path d="M378.273 1083.19L374.582 1066.85L366.052 1068.78L303.601 1082.9L308.989 1106.78L371.607 1092.62L378.273 1083.19Z" stroke="#115766" stroke-width="0.680618" stroke-miterlimit="10"/>
<path d="M329.876 1110.76L332.271 1094.17L323.611 1092.92L270.949 1085.3L267.449 1109.53L320.284 1117.17L329.876 1110.76Z" stroke="#46B2C8" stroke-width="0.680618" stroke-miterlimit="10"/>
<path d="M281.257 1112.71L281.633 1095.96L272.887 1095.76L220.571 1094.58L220.015 1119.05L272.511 1120.24L281.257 1112.71Z" stroke="#46B2C8" stroke-width="0.680618" stroke-miterlimit="10"/>
<path d="M368.676 1109.67V1092.92H359.923H331.777V1117.4H360.096L368.676 1109.67Z" stroke="#46B2C8" stroke-width="0.680618" stroke-miterlimit="10"/>
<path d="M402.537 1117.44L399.772 1100.92L391.143 1102.37L347.177 1109.74L351.214 1133.87L395.352 1126.48L402.537 1117.44Z" stroke="#115766" stroke-width="0.680618" stroke-miterlimit="10"/>
<path d="M429.337 1124.76L438.201 1110.55L430.775 1105.91L384.045 1076.73L371.095 1097.49L417.974 1126.77L429.337 1124.76Z" stroke="#46B2C8" stroke-width="0.680618" stroke-miterlimit="10"/>
<path d="M481.209 1114.62L477.518 1098.27L468.982 1100.21L406.537 1114.33L411.925 1138.2L474.543 1124.04L481.209 1114.62Z" stroke="#115766" stroke-width="0.680618" stroke-miterlimit="10"/>
<path d="M330.716 1046.43V1029.67H321.969H293.824V1054.15H322.142L330.716 1046.43Z" stroke="#46B2C8" stroke-width="0.680618" stroke-miterlimit="10"/>
<path d="M364.583 1054.2L361.818 1037.67L353.189 1039.12L309.218 1046.48L313.261 1070.63L357.399 1063.23L364.583 1054.2Z" stroke="#115766" stroke-width="0.680618" stroke-miterlimit="10"/>
<path d="M391.383 1061.51L400.241 1047.3L392.822 1042.66L346.085 1013.47L333.135 1034.24L380.02 1063.52L391.383 1061.51Z" stroke="#46B2C8" stroke-width="0.680618" stroke-miterlimit="10"/>
<path d="M443.249 1051.37L439.564 1035.02L431.028 1036.95L368.577 1051.08L373.971 1074.95L436.589 1060.79L443.249 1051.37Z" stroke="#115766" stroke-width="0.680618" stroke-miterlimit="10"/>
<path d="M433.652 1077.85V1061.09H424.906H396.76V1085.57H425.078L433.652 1077.85Z" stroke="#46B2C8" stroke-width="0.680618" stroke-miterlimit="10"/>
<path d="M467.513 1085.62L464.754 1069.09L456.125 1070.54L412.153 1077.9L416.19 1102.05L460.335 1094.65L467.513 1085.62Z" stroke="#115766" stroke-width="0.680618" stroke-miterlimit="10"/>
<path d="M494.313 1092.93L503.177 1078.72L495.758 1074.08L449.021 1044.89L436.071 1065.66L482.956 1094.94L494.313 1092.93Z" stroke="#46B2C8" stroke-width="0.680618" stroke-miterlimit="10"/>
<path d="M497.788 1110.34L500.183 1093.76L491.523 1092.51L438.861 1084.89L435.361 1109.12L488.196 1116.76L497.788 1110.34Z" stroke="#46B2C8" stroke-width="0.680618" stroke-miterlimit="10"/>
<path d="M215.775 1119.05V1102.29H207.023H178.877V1126.77H207.196L215.775 1119.05Z" stroke="#46B2C8" stroke-width="0.680618" stroke-miterlimit="10"/>
<path d="M326.401 1093.34L335.265 1079.13L327.846 1074.49L281.109 1045.31L268.159 1066.07L315.038 1095.35L326.401 1093.34Z" stroke="#46B2C8" stroke-width="0.680618" stroke-miterlimit="10"/>
<path d="M487.807 928.984V912.227H479.061H450.916V936.705H479.234L487.807 928.984Z" stroke="#46B2C8" stroke-width="0.680618" stroke-miterlimit="10"/>
<path d="M503.324 963.437L503.707 946.686L494.955 946.488L442.638 945.309L442.089 969.78L494.578 970.96L503.324 963.437Z" stroke="#46B2C8" stroke-width="0.680618" stroke-miterlimit="10"/>
<path d="M372.866 1001.61V984.852H364.114H335.968V1009.33H364.287L372.866 1001.61Z" stroke="#46B2C8" stroke-width="0.680618" stroke-miterlimit="10"/>
<path d="M406.728 1009.38L403.962 992.855L395.334 994.301L351.368 1001.66L355.405 1025.81L399.543 1018.41L406.728 1009.38Z" stroke="#115766" stroke-width="0.680618" stroke-miterlimit="10"/>
<path d="M433.528 1016.68L442.392 1002.47L434.966 997.84L388.236 968.655L375.286 989.421L422.165 1018.7L433.528 1016.68Z" stroke="#46B2C8" stroke-width="0.680618" stroke-miterlimit="10"/>
<path d="M437.003 1034.1L439.398 1017.53L430.738 1016.27L378.076 1008.65L374.576 1032.88L427.411 1040.52L437.003 1034.1Z" stroke="#46B2C8" stroke-width="0.680618" stroke-miterlimit="10"/>
<path d="M475.802 1033.03V1016.27H467.05H438.904V1040.75H467.223L475.802 1033.03Z" stroke="#46B2C8" stroke-width="0.680618" stroke-miterlimit="10"/>
<path d="M509.664 1040.8L506.898 1024.28L498.269 1025.72L454.298 1033.08L458.341 1057.23L502.479 1049.83L509.664 1040.8Z" stroke="#115766" stroke-width="0.680618" stroke-miterlimit="10"/>
<path d="M437.843 969.773V953.022H429.097H400.951V977.5H429.269L437.843 969.773Z" stroke="#46B2C8" stroke-width="0.680618" stroke-miterlimit="10"/>
<path d="M471.704 977.545L468.945 961.022L460.316 962.468L416.344 969.837L420.381 993.975L464.525 986.581L471.704 977.545Z" stroke="#115766" stroke-width="0.680618" stroke-miterlimit="10"/>
<path d="M488.616 1011.63L491.992 995.228L483.419 993.462L432.164 982.912L427.232 1006.88L478.66 1017.47L488.616 1011.63Z" stroke="#46B2C8" stroke-width="0.680618" stroke-miterlimit="10"/>
<path d="M22.7603 991.695L31.6237 977.482L24.2046 972.844L-22.5322 943.659L-35.4817 964.425L11.4032 993.702L22.7603 991.695Z" stroke="#46B2C8" stroke-width="0.680618" stroke-miterlimit="10"/>
<path d="M74.6324 981.552L70.9414 965.209L62.4112 967.136L-0.0402832 981.262L5.34814 1005.13L67.9725 990.978L74.6324 981.552Z" stroke="#115766" stroke-width="0.680618" stroke-miterlimit="10"/>
<path d="M44.1968 1012.53L46.5916 995.951L37.9381 994.697L-14.7242 987.081L-18.2239 1011.31L34.605 1018.95L44.1968 1012.53Z" stroke="#46B2C8" stroke-width="0.680618" stroke-miterlimit="10"/>
<path d="M36.6789 918.298L32.9878 901.961L24.4515 903.888L-38 918.014L-32.6054 941.887L30.0128 927.724L36.6789 918.298Z" stroke="#115766" stroke-width="0.680618" stroke-miterlimit="10"/>
<path d="M27.0748 944.784V928.026H18.3286H-9.81714V952.504H18.5015L27.0748 944.784Z" stroke="#46B2C8" stroke-width="0.680618" stroke-miterlimit="10"/>
<path d="M60.9423 952.553L58.1772 936.03L49.5483 937.476L5.57666 944.838L9.61954 968.983L53.7578 961.583L60.9423 952.553Z" stroke="#115766" stroke-width="0.680618" stroke-miterlimit="10"/>
<path d="M87.7426 959.867L96.606 945.648L89.1807 941.016L42.4439 911.831L29.4944 932.597L76.3793 961.874L87.7426 959.867Z" stroke="#46B2C8" stroke-width="0.680618" stroke-miterlimit="10"/>
<path d="M139.615 949.72L135.924 933.383L127.387 935.31L64.9358 949.436L70.3304 973.308L132.949 959.145L139.615 949.72Z" stroke="#115766" stroke-width="0.680618" stroke-miterlimit="10"/>
<path d="M91.2113 977.279L93.6061 960.701L84.9463 959.447L32.2841 951.831L28.7844 976.056L81.6194 983.696L91.2113 977.279Z" stroke="#46B2C8" stroke-width="0.680618" stroke-miterlimit="10"/>
<path d="M24.6676 1022.34L20.9765 1006.01L12.4464 1007.93L-50.0051 1022.05L-44.6167 1045.93L18.0076 1031.77L24.6676 1022.34Z" stroke="#115766" stroke-width="0.680618" stroke-miterlimit="10"/>
<path d="M93.3346 1017.19L90.5694 1000.67L81.9405 1002.12L37.9751 1009.48L42.0118 1033.62L86.15 1026.22L93.3346 1017.19Z" stroke="#115766" stroke-width="0.680618" stroke-miterlimit="10"/>
<path d="M172.007 1014.36L168.316 998.021L159.786 999.948L97.334 1014.07L102.722 1037.95L165.341 1023.78L172.007 1014.36Z" stroke="#115766" stroke-width="0.680618" stroke-miterlimit="10"/>
<path d="M123.61 1041.92L126.005 1025.34L117.345 1024.09L64.6826 1016.47L61.1829 1040.69L114.018 1048.33L123.61 1041.92Z" stroke="#46B2C8" stroke-width="0.680618" stroke-miterlimit="10"/>
<path d="M74.9905 1043.87L75.367 1027.12L66.6208 1026.93L14.3043 1025.75L13.7488 1050.22L66.2443 1051.4L74.9905 1043.87Z" stroke="#46B2C8" stroke-width="0.680618" stroke-miterlimit="10"/>
<path d="M162.409 1040.84V1024.08H153.656H125.511V1048.56H153.829L162.409 1040.84Z" stroke="#46B2C8" stroke-width="0.680618" stroke-miterlimit="10"/>
<path d="M196.271 1048.61L193.505 1032.09L184.877 1033.54L140.911 1040.9L144.948 1065.04L189.086 1057.64L196.271 1048.61Z" stroke="#115766" stroke-width="0.680618" stroke-miterlimit="10"/>
<path d="M223.071 1055.92L231.934 1041.71L224.509 1037.08L177.778 1007.89L164.829 1028.66L211.707 1057.93L223.071 1055.92Z" stroke="#46B2C8" stroke-width="0.680618" stroke-miterlimit="10"/>
<path d="M274.943 1045.78L271.252 1029.44L262.715 1031.37L200.264 1045.49L205.658 1069.37L268.276 1055.2L274.943 1045.78Z" stroke="#115766" stroke-width="0.680618" stroke-miterlimit="10"/>
<path d="M226.545 1073.34L228.94 1056.76L220.281 1055.51L167.618 1047.89L164.119 1072.11L216.954 1079.75L226.545 1073.34Z" stroke="#46B2C8" stroke-width="0.680618" stroke-miterlimit="10"/>
<path d="M177.926 1075.29L178.303 1058.54L169.557 1058.35L117.234 1057.17L116.685 1081.64L169.18 1082.82L177.926 1075.29Z" stroke="#46B2C8" stroke-width="0.680618" stroke-miterlimit="10"/>
<path d="M124.449 977.588V960.837H115.703H87.5571V985.315H115.876L124.449 977.588Z" stroke="#46B2C8" stroke-width="0.680618" stroke-miterlimit="10"/>
<path d="M158.311 985.365L155.552 968.836L146.923 970.281L102.951 977.65L106.988 1001.79L151.132 994.395L158.311 985.365Z" stroke="#115766" stroke-width="0.680618" stroke-miterlimit="10"/>
<path d="M185.111 992.671L193.974 978.459L186.555 973.826L139.818 944.642L126.869 965.407L173.754 994.685L185.111 992.671Z" stroke="#46B2C8" stroke-width="0.680618" stroke-miterlimit="10"/>
<path d="M236.983 982.529L233.298 966.186L224.762 968.119L162.31 982.239L167.705 1006.12L230.323 991.954L236.983 982.529Z" stroke="#115766" stroke-width="0.680618" stroke-miterlimit="10"/>
<path d="M227.385 1009.01V992.257H218.639H190.493V1016.73H218.812L227.385 1009.01Z" stroke="#46B2C8" stroke-width="0.680618" stroke-miterlimit="10"/>
<path d="M261.246 1016.78L258.481 1000.25L249.858 1001.7L205.887 1009.07L209.923 1033.21L254.068 1025.81L261.246 1016.78Z" stroke="#115766" stroke-width="0.680618" stroke-miterlimit="10"/>
<path d="M288.047 1024.09L296.91 1009.88L289.491 1005.25L242.754 976.062L229.805 996.827L276.69 1026.1L288.047 1024.09Z" stroke="#46B2C8" stroke-width="0.680618" stroke-miterlimit="10"/>
<path d="M339.919 1013.95L336.228 997.606L327.698 999.54L265.246 1013.66L270.635 1037.54L333.259 1023.38L339.919 1013.95Z" stroke="#115766" stroke-width="0.680618" stroke-miterlimit="10"/>
<path d="M291.522 1041.51L293.916 1024.92L285.257 1023.68L232.594 1016.05L229.095 1040.28L281.93 1047.93L291.522 1041.51Z" stroke="#46B2C8" stroke-width="0.680618" stroke-miterlimit="10"/>
<path d="M5.19396 1097.12L14.0574 1082.91L6.63212 1078.28L-40.1047 1049.09L-53.0542 1069.86L-6.16928 1099.14L5.19396 1097.12Z" stroke="#46B2C8" stroke-width="0.680618" stroke-miterlimit="10"/>
<path d="M8.66267 1114.54L11.0575 1097.96L2.39777 1096.71L-50.2645 1089.09L-53.7642 1113.31L-0.9291 1120.96L8.66267 1114.54Z" stroke="#46B2C8" stroke-width="0.680618" stroke-miterlimit="10"/>
<path d="M65.9729 1094.26L69.343 1077.85L60.7758 1076.09L9.51468 1065.54L4.58301 1089.51L56.0169 1100.1L65.9729 1094.26Z" stroke="#46B2C8" stroke-width="0.680618" stroke-miterlimit="10"/>
<path d="M47.462 1113.46V1096.71H38.7158H10.5701V1121.19H38.8886L47.462 1113.46Z" stroke="#46B2C8" stroke-width="0.680618" stroke-miterlimit="10"/>
<path d="M81.3234 1121.24L78.5644 1104.71L69.9354 1106.15L25.9639 1113.52L30.0006 1137.66L74.145 1130.27L81.3234 1121.24Z" stroke="#115766" stroke-width="0.680618" stroke-miterlimit="10"/>
<path d="M108.124 1128.54L116.987 1114.33L109.568 1109.7L62.8311 1080.51L49.8816 1101.28L96.7666 1130.56L108.124 1128.54Z" stroke="#46B2C8" stroke-width="0.680618" stroke-miterlimit="10"/>
<path d="M159.996 1118.4L156.311 1102.06L147.775 1103.99L85.323 1118.11L90.7115 1141.99L153.336 1127.83L159.996 1118.4Z" stroke="#115766" stroke-width="0.680618" stroke-miterlimit="10"/>
<path d="M9.50851 1050.21V1033.46H0.756147H-27.3896V1057.94H0.928971L9.50851 1050.21Z" stroke="#46B2C8" stroke-width="0.680618" stroke-miterlimit="10"/>
<path d="M43.3698 1057.98L40.6046 1041.46L31.9757 1042.91L-11.9897 1050.27L-7.95305 1074.41L36.1852 1067.02L43.3698 1057.98Z" stroke="#115766" stroke-width="0.680618" stroke-miterlimit="10"/>
<path d="M122.042 1055.15L118.351 1038.81L109.821 1040.74L47.3694 1054.86L52.7578 1078.74L115.376 1064.58L122.042 1055.15Z" stroke="#115766" stroke-width="0.680618" stroke-miterlimit="10"/>
<path d="M112.444 1081.63V1064.88H103.692H75.5459V1089.36H103.864L112.444 1081.63Z" stroke="#46B2C8" stroke-width="0.680618" stroke-miterlimit="10"/>
<path d="M146.305 1089.4L143.54 1072.88L134.911 1074.33L90.9458 1081.69L94.9825 1105.83L139.121 1098.44L146.305 1089.4Z" stroke="#115766" stroke-width="0.680618" stroke-miterlimit="10"/>
<path d="M224.978 1086.57L221.287 1070.23L212.75 1072.16L150.299 1086.28L155.693 1110.16L218.312 1096L224.978 1086.57Z" stroke="#115766" stroke-width="0.680618" stroke-miterlimit="10"/>
<path d="M176.575 1114.13L178.976 1097.55L170.316 1096.3L117.654 1088.68L114.154 1112.91L166.989 1120.55L176.575 1114.13Z" stroke="#46B2C8" stroke-width="0.680618" stroke-miterlimit="10"/>
<path d="M120.135 1024.5L128.998 1010.29L121.573 1005.65L74.8423 976.47L61.8928 997.236L108.772 1026.51L120.135 1024.5Z" stroke="#46B2C8" stroke-width="0.680618" stroke-miterlimit="10"/>
<path d="M81.2308 795.921V779.164H72.4846H44.3389V803.642H72.6575L81.2308 795.921Z" stroke="#46B2C8" stroke-width="0.680618" stroke-miterlimit="10"/>
<path d="M115.098 803.691L112.333 787.169L103.704 788.614L59.7324 795.977L63.7753 820.121L107.914 812.722L115.098 803.691Z" stroke="#115766" stroke-width="0.680618" stroke-miterlimit="10"/>
<path d="M193.771 800.856L190.08 784.519L181.543 786.446L119.092 800.572L124.486 824.444L187.105 810.281L193.771 800.856Z" stroke="#115766" stroke-width="0.680618" stroke-miterlimit="10"/>
<path d="M145.367 828.416L147.762 811.838L139.102 810.585L86.4402 802.969L82.9404 827.193L135.776 834.834L145.367 828.416Z" stroke="#46B2C8" stroke-width="0.680618" stroke-miterlimit="10"/>
<path d="M96.754 830.373L97.1305 813.622L88.3843 813.425L36.0615 812.245L35.5122 836.717L88.0078 837.897L96.754 830.373Z" stroke="#46B2C8" stroke-width="0.680618" stroke-miterlimit="10"/>
<path d="M184.166 827.341V810.584H175.42H147.274V835.062H175.593L184.166 827.341Z" stroke="#46B2C8" stroke-width="0.680618" stroke-miterlimit="10"/>
<path d="M218.028 835.111L215.269 818.589L206.64 820.034L162.668 827.397L166.705 851.541L210.85 844.142L218.028 835.111Z" stroke="#115766" stroke-width="0.680618" stroke-miterlimit="10"/>
<path d="M244.834 842.424L253.691 828.206L246.272 823.573L199.535 794.389L186.586 815.154L233.471 844.432L244.834 842.424Z" stroke="#46B2C8" stroke-width="0.680618" stroke-miterlimit="10"/>
<path d="M296.7 832.278L293.015 815.94L284.479 817.868L222.027 831.993L227.422 855.866L290.04 841.703L296.7 832.278Z" stroke="#115766" stroke-width="0.680618" stroke-miterlimit="10"/>
<path d="M266.271 863.258L268.665 846.68L260.006 845.426L207.343 837.811L203.844 862.035L256.679 869.676L266.271 863.258Z" stroke="#46B2C8" stroke-width="0.680618" stroke-miterlimit="10"/>
<path d="M199.69 861.795L200.066 845.044L191.32 844.847L138.997 843.667L138.448 868.139L190.937 869.318L199.69 861.795Z" stroke="#46B2C8" stroke-width="0.680618" stroke-miterlimit="10"/>
<path d="M146.213 764.087V747.336H137.461H109.315V771.814H137.64L146.213 764.087Z" stroke="#46B2C8" stroke-width="0.680618" stroke-miterlimit="10"/>
<path d="M180.074 771.863L177.309 755.334L168.68 756.779L124.715 764.148L128.752 788.286L172.89 780.893L180.074 771.863Z" stroke="#115766" stroke-width="0.680618" stroke-miterlimit="10"/>
<path d="M206.874 779.17L215.738 764.958L208.319 760.325L161.582 731.141L148.632 751.906L195.511 781.184L206.874 779.17Z" stroke="#46B2C8" stroke-width="0.680618" stroke-miterlimit="10"/>
<path d="M258.746 769.029L255.055 752.686L246.525 754.619L184.074 768.739L189.462 792.617L252.087 778.454L258.746 769.029Z" stroke="#115766" stroke-width="0.680618" stroke-miterlimit="10"/>
<path d="M249.149 795.507V778.756H240.396H212.25V803.234H240.569L249.149 795.507Z" stroke="#46B2C8" stroke-width="0.680618" stroke-miterlimit="10"/>
<path d="M283.01 803.284L280.245 786.756L271.616 788.201L227.65 795.57L231.687 819.708L275.825 812.315L283.01 803.284Z" stroke="#115766" stroke-width="0.680618" stroke-miterlimit="10"/>
<path d="M309.81 810.59L318.674 796.378L311.249 791.745L264.518 762.561L251.568 783.326L298.447 812.603L309.81 810.59Z" stroke="#46B2C8" stroke-width="0.680618" stroke-miterlimit="10"/>
<path d="M361.682 800.449L357.991 784.105L349.461 786.039L287.01 800.158L292.398 824.037L355.016 809.874L361.682 800.449Z" stroke="#115766" stroke-width="0.680618" stroke-miterlimit="10"/>
<path d="M313.285 828.009L315.68 811.424L307.02 810.177L254.358 802.555L250.858 826.779L303.693 834.426L313.285 828.009Z" stroke="#46B2C8" stroke-width="0.680618" stroke-miterlimit="10"/>
<path d="M0.151014 876.316L-2.61419 859.787L-11.2431 861.232L-55.2085 868.601L-51.1718 892.739L-7.03357 885.346L0.151014 876.316Z" stroke="#115766" stroke-width="0.680618" stroke-miterlimit="10"/>
<path d="M26.9515 883.622L35.8149 869.41L28.3958 864.777L-18.341 835.593L-31.2905 856.359L15.5944 885.636L26.9515 883.622Z" stroke="#46B2C8" stroke-width="0.680618" stroke-miterlimit="10"/>
<path d="M30.4264 901.041L32.8212 884.457L24.1614 883.209L-28.5008 875.587L-32.0005 899.812L20.8345 907.458L30.4264 901.041Z" stroke="#46B2C8" stroke-width="0.680618" stroke-miterlimit="10"/>
<path d="M69.2255 899.965V883.208H60.4732H32.3274V907.686H60.646L69.2255 899.965Z" stroke="#46B2C8" stroke-width="0.680618" stroke-miterlimit="10"/>
<path d="M103.087 907.737L100.322 891.208L91.6927 892.653L47.7273 900.022L51.764 924.16L95.9023 916.767L103.087 907.737Z" stroke="#115766" stroke-width="0.680618" stroke-miterlimit="10"/>
<path d="M129.887 915.043L138.751 900.831L131.325 896.198L84.5945 867.014L71.645 887.779L118.524 917.057L129.887 915.043Z" stroke="#46B2C8" stroke-width="0.680618" stroke-miterlimit="10"/>
<path d="M181.759 904.902L178.068 888.564L169.538 890.492L107.086 904.611L112.475 928.49L175.093 914.327L181.759 904.902Z" stroke="#115766" stroke-width="0.680618" stroke-miterlimit="10"/>
<path d="M133.362 932.462L135.757 915.877L127.097 914.63L74.435 907.008L70.9353 931.232L123.77 938.879L133.362 932.462Z" stroke="#46B2C8" stroke-width="0.680618" stroke-miterlimit="10"/>
<path d="M31.2657 836.712V819.961H22.5195H-5.62622V844.439H22.6924L31.2657 836.712Z" stroke="#46B2C8" stroke-width="0.680618" stroke-miterlimit="10"/>
<path d="M65.1333 844.481L62.3681 827.959L53.7392 829.404L9.76758 836.773L13.8104 860.911L57.9487 853.518L65.1333 844.481Z" stroke="#115766" stroke-width="0.680618" stroke-miterlimit="10"/>
<path d="M143.806 841.653L140.115 825.31L131.578 827.243L69.1267 841.363L74.5213 865.235L137.139 851.078L143.806 841.653Z" stroke="#115766" stroke-width="0.680618" stroke-miterlimit="10"/>
<path d="M134.202 868.131V851.38H125.455H97.3096V875.858H125.628L134.202 868.131Z" stroke="#46B2C8" stroke-width="0.680618" stroke-miterlimit="10"/>
<path d="M168.063 875.902L165.304 859.38L156.675 860.825L112.703 868.194L116.74 892.332L160.884 884.939L168.063 875.902Z" stroke="#115766" stroke-width="0.680618" stroke-miterlimit="10"/>
<path d="M246.735 873.073L243.05 856.729L234.514 858.663L172.062 872.783L177.457 896.655L240.075 882.498L246.735 873.073Z" stroke="#115766" stroke-width="0.680618" stroke-miterlimit="10"/>
<path d="M198.338 900.634L200.733 884.049L192.073 882.795L139.411 875.18L135.911 899.404L188.746 907.045L198.338 900.634Z" stroke="#46B2C8" stroke-width="0.680618" stroke-miterlimit="10"/>
<path d="M315.402 867.916L312.637 851.394L304.015 852.839L260.043 860.208L264.08 884.346L308.224 876.952L315.402 867.916Z" stroke="#115766" stroke-width="0.680618" stroke-miterlimit="10"/>
<path d="M394.075 865.086L390.384 848.743L381.853 850.676L319.402 864.796L324.79 888.675L387.415 874.512L394.075 865.086Z" stroke="#115766" stroke-width="0.680618" stroke-miterlimit="10"/>
<path d="M345.677 892.646L348.072 876.062L339.412 874.814L286.75 867.192L283.25 891.417L336.086 899.064L345.677 892.646Z" stroke="#46B2C8" stroke-width="0.680618" stroke-miterlimit="10"/>
<path d="M297.058 894.599L297.435 877.848L288.689 877.656L236.372 876.477L235.823 900.942L288.312 902.128L297.058 894.599Z" stroke="#46B2C8" stroke-width="0.680618" stroke-miterlimit="10"/>
<path d="M384.477 891.565V874.814H375.731H347.579V899.292H375.903L384.477 891.565Z" stroke="#46B2C8" stroke-width="0.680618" stroke-miterlimit="10"/>
<path d="M418.338 899.336L415.573 882.813L406.944 884.259L362.979 891.628L367.015 915.766L411.153 908.372L418.338 899.336Z" stroke="#115766" stroke-width="0.680618" stroke-miterlimit="10"/>
<path d="M445.138 906.648L454.002 892.436L446.583 887.804L399.846 858.619L386.896 879.385L433.781 908.656L445.138 906.648Z" stroke="#46B2C8" stroke-width="0.680618" stroke-miterlimit="10"/>
<path d="M497.011 896.507L493.32 880.164L484.789 882.097L422.338 896.217L427.726 920.096L490.351 905.933L497.011 896.507Z" stroke="#115766" stroke-width="0.680618" stroke-miterlimit="10"/>
<path d="M448.613 924.067L451.008 907.483L442.348 906.235L389.686 898.613L386.187 922.838L439.022 930.485L448.613 924.067Z" stroke="#46B2C8" stroke-width="0.680618" stroke-miterlimit="10"/>
<path d="M399.994 926.02L400.37 909.269L391.624 909.077L339.307 907.897L338.752 932.363L391.247 933.549L399.994 926.02Z" stroke="#46B2C8" stroke-width="0.680618" stroke-miterlimit="10"/>
<path d="M346.523 828.317V811.566H337.771H309.625V836.044H337.944L346.523 828.317Z" stroke="#46B2C8" stroke-width="0.680618" stroke-miterlimit="10"/>
<path d="M380.384 836.088L377.619 819.565L368.99 821.011L325.019 828.379L329.061 852.518L373.2 845.124L380.384 836.088Z" stroke="#115766" stroke-width="0.680618" stroke-miterlimit="10"/>
<path d="M407.184 843.4L416.048 829.188L408.623 824.549L361.886 795.371L348.942 816.131L395.821 845.408L407.184 843.4Z" stroke="#46B2C8" stroke-width="0.680618" stroke-miterlimit="10"/>
<path d="M459.057 833.258L455.366 816.915L446.83 818.848L384.378 832.968L389.773 856.841L452.391 842.684L459.057 833.258Z" stroke="#115766" stroke-width="0.680618" stroke-miterlimit="10"/>
<path d="M449.452 859.737V842.986H440.706H412.561V867.464H440.879L449.452 859.737Z" stroke="#46B2C8" stroke-width="0.680618" stroke-miterlimit="10"/>
<path d="M483.32 867.508L480.555 850.985L471.926 852.431L427.955 859.799L431.997 883.938L476.136 876.544L483.32 867.508Z" stroke="#115766" stroke-width="0.680618" stroke-miterlimit="10"/>
<path d="M510.12 874.82L518.984 860.608L511.558 855.969L464.822 826.791L451.872 847.551L498.757 876.828L510.12 874.82Z" stroke="#46B2C8" stroke-width="0.680618" stroke-miterlimit="10"/>
<path d="M513.589 892.24L515.984 875.656L507.325 874.402L454.662 866.786L451.163 891.011L503.998 898.651L513.589 892.24Z" stroke="#46B2C8" stroke-width="0.680618" stroke-miterlimit="10"/>
<path d="M166.6 932.771V916.02H157.847H129.702V940.497H158.02L166.6 932.771Z" stroke="#46B2C8" stroke-width="0.680618" stroke-miterlimit="10"/>
<path d="M200.462 940.54L197.696 924.018L189.067 925.463L145.102 932.832L149.139 956.97L193.277 949.576L200.462 940.54Z" stroke="#115766" stroke-width="0.680618" stroke-miterlimit="10"/>
<path d="M227.262 947.854L236.125 933.641L228.7 929.003L181.969 899.824L169.02 920.59L215.898 949.861L227.262 947.854Z" stroke="#46B2C8" stroke-width="0.680618" stroke-miterlimit="10"/>
<path d="M230.736 965.271L233.131 948.687L224.472 947.433L171.809 939.817L168.31 964.042L221.145 971.683L230.736 965.271Z" stroke="#46B2C8" stroke-width="0.680618" stroke-miterlimit="10"/>
<path d="M288.04 944.994L291.41 928.583L282.843 926.822L231.582 916.267L226.657 940.244L278.084 950.831L288.04 944.994Z" stroke="#46B2C8" stroke-width="0.680618" stroke-miterlimit="10"/>
<path d="M82.0392 878.57L85.4155 862.159L76.8483 860.398L25.5872 849.849L20.6555 873.82L72.0895 884.407L82.0392 878.57Z" stroke="#46B2C8" stroke-width="0.680618" stroke-miterlimit="10"/>
<path d="M269.536 964.19V947.439H260.783H232.638V971.917H260.956L269.536 964.19Z" stroke="#46B2C8" stroke-width="0.680618" stroke-miterlimit="10"/>
<path d="M303.397 971.961L300.632 955.438L292.003 956.884L248.031 964.253L252.074 988.391L296.212 980.997L303.397 971.961Z" stroke="#115766" stroke-width="0.680618" stroke-miterlimit="10"/>
<path d="M330.198 979.274L339.061 965.061L331.636 960.422L284.899 931.244L271.956 952.01L318.834 981.281L330.198 979.274Z" stroke="#46B2C8" stroke-width="0.680618" stroke-miterlimit="10"/>
<path d="M382.069 969.131L378.378 952.788L369.842 954.721L307.391 968.841L312.785 992.714L375.403 978.557L382.069 969.131Z" stroke="#115766" stroke-width="0.680618" stroke-miterlimit="10"/>
<path d="M333.666 996.692L336.061 980.108L327.408 978.854L274.739 971.238L271.246 995.463L324.075 1003.1L333.666 996.692Z" stroke="#46B2C8" stroke-width="0.680618" stroke-miterlimit="10"/>
<path d="M231.576 900.942V884.191H222.83H194.684V908.663H223.003L231.576 900.942Z" stroke="#46B2C8" stroke-width="0.680618" stroke-miterlimit="10"/>
<path d="M265.438 908.712L262.672 892.189L254.05 893.635L210.078 900.997L214.115 925.142L258.259 917.748L265.438 908.712Z" stroke="#115766" stroke-width="0.680618" stroke-miterlimit="10"/>
<path d="M344.11 905.884L340.419 889.541L331.889 891.468L269.437 905.594L274.825 929.467L337.45 915.304L344.11 905.884Z" stroke="#115766" stroke-width="0.680618" stroke-miterlimit="10"/>
<path d="M334.512 932.362V915.611H325.766H297.614V940.083H325.939L334.512 932.362Z" stroke="#46B2C8" stroke-width="0.680618" stroke-miterlimit="10"/>
<path d="M368.373 940.133L365.608 923.61L356.979 925.056L313.014 932.418L317.05 956.563L361.189 949.169L368.373 940.133Z" stroke="#115766" stroke-width="0.680618" stroke-miterlimit="10"/>
<path d="M447.045 937.303L443.354 920.96L434.824 922.887L372.373 937.013L377.761 960.886L440.385 946.723L447.045 937.303Z" stroke="#115766" stroke-width="0.680618" stroke-miterlimit="10"/>
<path d="M398.649 964.858L401.043 948.28L392.384 947.026L339.721 939.41L336.222 963.635L389.057 971.275L398.649 964.858Z" stroke="#46B2C8" stroke-width="0.680618" stroke-miterlimit="10"/>
<path d="M141.899 811.004L150.762 796.786L143.337 792.153L96.5999 762.969L83.6504 783.735L130.535 813.012L141.899 811.004Z" stroke="#46B2C8" stroke-width="0.680618" stroke-miterlimit="10"/>
<path d="M342.203 875.229L351.066 861.016L343.647 856.384L296.91 827.199L283.96 847.965L330.845 877.236L342.203 875.229Z" stroke="#46B2C8" stroke-width="0.680618" stroke-miterlimit="10"/>
<path d="M7.16207 768.944L4.39681 752.422L-4.23207 753.867L-48.2036 761.23L-44.1607 785.374L-0.0225104 777.981L7.16207 768.944Z" stroke="#115766" stroke-width="0.680618" stroke-miterlimit="10"/>
<path d="M33.9623 776.257L42.8258 762.039L35.4005 757.406L-11.3364 728.222L-24.2859 748.987L22.5991 778.265L33.9623 776.257Z" stroke="#46B2C8" stroke-width="0.680618" stroke-miterlimit="10"/>
<path d="M85.8347 766.11L82.1436 749.772L73.6072 751.7L11.1558 765.825L16.5504 789.698L79.1685 775.535L85.8347 766.11Z" stroke="#115766" stroke-width="0.680618" stroke-miterlimit="10"/>
<path d="M37.4311 793.669L39.826 777.091L31.1662 775.837L-21.4961 768.222L-24.9958 792.446L27.8393 800.087L37.4311 793.669Z" stroke="#46B2C8" stroke-width="0.680618" stroke-miterlimit="10"/>
<path d="M-3.99752 713.003L4.86592 698.791L-2.55322 694.158L-49.29 664.974L-62.2395 685.739L-15.3546 715.017L-3.99752 713.003Z" stroke="#46B2C8" stroke-width="0.680618" stroke-miterlimit="10"/>
<path d="M47.8746 702.861L44.1836 686.523L35.6534 688.451L-26.7981 702.57L-21.4097 726.449L41.2147 712.286L47.8746 702.861Z" stroke="#115766" stroke-width="0.680618" stroke-miterlimit="10"/>
<path d="M38.2768 729.346V712.589H29.5244H1.37866V737.067H29.7034L38.2768 729.346Z" stroke="#46B2C8" stroke-width="0.680618" stroke-miterlimit="10"/>
<path d="M72.138 737.117L69.3728 720.588L60.7439 722.033L16.7786 729.402L20.8153 753.54L64.9535 746.147L72.138 737.117Z" stroke="#115766" stroke-width="0.680618" stroke-miterlimit="10"/>
<path d="M98.9383 744.424L107.802 730.212L100.383 725.579L53.6458 696.395L40.6963 717.16L87.575 746.437L98.9383 744.424Z" stroke="#46B2C8" stroke-width="0.680618" stroke-miterlimit="10"/>
<path d="M150.81 734.281L147.119 717.944L138.589 719.871L76.1377 733.991L81.5261 757.87L144.144 743.707L150.81 734.281Z" stroke="#115766" stroke-width="0.680618" stroke-miterlimit="10"/>
<path d="M102.413 761.843L104.808 745.258L96.1483 744.011L43.4861 736.389L39.9863 760.613L92.8214 768.26L102.413 761.843Z" stroke="#46B2C8" stroke-width="0.680618" stroke-miterlimit="10"/>
<path d="M35.8693 806.906L32.1783 790.562L23.642 792.496L-38.8096 806.616L-33.415 830.488L29.2033 816.331L35.8693 806.906Z" stroke="#115766" stroke-width="0.680618" stroke-miterlimit="10"/>
<path d="M4.65605 521.195L0.96502 504.852L-7.56516 506.779L-70.0166 520.905L-64.6282 544.777L-2.0039 530.614L4.65605 521.195Z" stroke="#115766" stroke-width="0.680618" stroke-miterlimit="10"/>
<path d="M28.9196 555.444L26.1543 538.922L17.5254 540.367L-26.4399 547.73L-22.4032 571.874L21.735 564.481L28.9196 555.444Z" stroke="#115766" stroke-width="0.680618" stroke-miterlimit="10"/>
<path d="M55.7198 562.757L64.5832 548.545L57.1641 543.906L10.4273 514.722L-2.52222 535.487L44.3627 564.765L55.7198 562.757Z" stroke="#46B2C8" stroke-width="0.680618" stroke-miterlimit="10"/>
<path d="M107.592 552.615L103.901 536.271L95.3707 538.199L32.9192 552.325L38.3076 576.197L100.932 562.034L107.592 552.615Z" stroke="#115766" stroke-width="0.680618" stroke-miterlimit="10"/>
<path d="M77.1563 583.591L79.5573 567.013L70.8975 565.759L18.2353 558.144L14.7356 582.368L67.5707 590.009L77.1563 583.591Z" stroke="#46B2C8" stroke-width="0.680618" stroke-miterlimit="10"/>
<path d="M10.5753 582.126L10.9518 565.375L2.20564 565.178L-50.111 563.998L-50.6665 588.47L1.82914 589.65L10.5753 582.126Z" stroke="#46B2C8" stroke-width="0.680618" stroke-miterlimit="10"/>
<path d="M17.7659 499.502L26.6293 485.29L19.204 480.657L-27.5266 451.473L-40.4761 472.238L6.40265 501.516L17.7659 499.502Z" stroke="#46B2C8" stroke-width="0.680618" stroke-miterlimit="10"/>
<path d="M69.6381 489.361L65.9471 473.023L57.4107 474.951L-5.04077 489.07L0.35383 512.949L62.972 498.786L69.6381 489.361Z" stroke="#115766" stroke-width="0.680618" stroke-miterlimit="10"/>
<path d="M60.034 515.846V499.089H51.2879H23.1421V523.567H51.4607L60.034 515.846Z" stroke="#46B2C8" stroke-width="0.680618" stroke-miterlimit="10"/>
<path d="M93.9018 523.616L91.1366 507.087L82.5077 508.538L38.5361 515.901L42.579 540.039L86.7172 532.646L93.9018 523.616Z" stroke="#115766" stroke-width="0.680618" stroke-miterlimit="10"/>
<path d="M120.702 530.923L129.565 516.711L122.14 512.078L75.4031 482.894L62.4536 503.659L109.339 532.937L120.702 530.923Z" stroke="#46B2C8" stroke-width="0.680618" stroke-miterlimit="10"/>
<path d="M172.574 520.78L168.883 504.443L160.347 506.37L97.8955 520.49L103.29 544.369L165.908 530.206L172.574 520.78Z" stroke="#115766" stroke-width="0.680618" stroke-miterlimit="10"/>
<path d="M124.171 548.341L126.566 531.763L117.912 530.509L65.2436 522.887L61.7439 547.111L114.579 554.758L124.171 548.341Z" stroke="#46B2C8" stroke-width="0.680618" stroke-miterlimit="10"/>
<path d="M57.627 593.406L53.936 577.062L45.4059 578.996L-17.0457 593.116L-11.6572 616.988L50.9671 602.831L57.627 593.406Z" stroke="#115766" stroke-width="0.680618" stroke-miterlimit="10"/>
<path d="M9.22983 620.966L11.6247 604.381L2.96491 603.134L-49.6973 595.512L-53.197 619.736L-0.361975 627.383L9.22983 620.966Z" stroke="#46B2C8" stroke-width="0.680618" stroke-miterlimit="10"/>
<path d="M126.294 588.254L123.529 571.726L114.9 573.171L70.9346 580.54L74.9713 604.678L119.109 597.284L126.294 588.254Z" stroke="#115766" stroke-width="0.680618" stroke-miterlimit="10"/>
<path d="M204.967 585.42L201.276 569.076L192.745 571.009L130.294 585.129L135.682 609.008L198.3 594.845L204.967 585.42Z" stroke="#115766" stroke-width="0.680618" stroke-miterlimit="10"/>
<path d="M156.569 612.978L158.964 596.394L150.305 595.146L97.6423 587.524L94.1426 611.749L146.978 619.396L156.569 612.978Z" stroke="#46B2C8" stroke-width="0.680618" stroke-miterlimit="10"/>
<path d="M107.95 614.931L108.326 598.186L99.5801 597.988L47.2635 596.809L46.708 621.274L99.2036 622.46L107.95 614.931Z" stroke="#46B2C8" stroke-width="0.680618" stroke-miterlimit="10"/>
<path d="M195.368 611.897V595.146H186.616H158.47V619.624H186.789L195.368 611.897Z" stroke="#46B2C8" stroke-width="0.680618" stroke-miterlimit="10"/>
<path d="M229.23 619.674L226.464 603.146L217.836 604.591L173.87 611.96L177.907 636.098L222.045 628.704L229.23 619.674Z" stroke="#115766" stroke-width="0.680618" stroke-miterlimit="10"/>
<path d="M256.03 626.982L264.894 612.77L257.468 608.138L210.738 578.953L197.788 599.719L244.667 628.996L256.03 626.982Z" stroke="#46B2C8" stroke-width="0.680618" stroke-miterlimit="10"/>
<path d="M307.902 616.839L304.211 600.496L295.675 602.429L233.229 616.549L238.618 640.428L301.236 626.265L307.902 616.839Z" stroke="#115766" stroke-width="0.680618" stroke-miterlimit="10"/>
<path d="M259.505 644.4L261.9 627.816L253.24 626.568L200.578 618.946L197.078 643.171L249.913 650.818L259.505 644.4Z" stroke="#46B2C8" stroke-width="0.680618" stroke-miterlimit="10"/>
<path d="M210.886 646.352L211.262 629.607L202.516 629.409L150.193 628.229L149.644 652.695L202.14 653.881L210.886 646.352Z" stroke="#46B2C8" stroke-width="0.680618" stroke-miterlimit="10"/>
<path d="M157.409 548.649V531.898H148.662H120.517V556.376H148.835L157.409 548.649Z" stroke="#46B2C8" stroke-width="0.680618" stroke-miterlimit="10"/>
<path d="M191.276 556.42L188.511 539.897L179.882 541.343L135.911 548.711L139.953 572.85L184.092 565.456L191.276 556.42Z" stroke="#115766" stroke-width="0.680618" stroke-miterlimit="10"/>
<path d="M218.076 563.733L226.934 549.52L219.514 544.888L172.778 515.703L159.828 536.469L206.713 565.74L218.076 563.733Z" stroke="#46B2C8" stroke-width="0.680618" stroke-miterlimit="10"/>
<path d="M269.948 553.591L266.257 537.248L257.721 539.181L195.27 553.301L200.664 577.174L263.282 563.017L269.948 553.591Z" stroke="#115766" stroke-width="0.680618" stroke-miterlimit="10"/>
<path d="M260.344 580.07V563.319H251.598H223.452V587.797H251.771L260.344 580.07Z" stroke="#46B2C8" stroke-width="0.680618" stroke-miterlimit="10"/>
<path d="M294.206 587.84L291.447 571.317L282.818 572.763L238.846 580.131L242.883 604.27L287.027 596.876L294.206 587.84Z" stroke="#115766" stroke-width="0.680618" stroke-miterlimit="10"/>
<path d="M321.006 595.153L329.87 580.941L322.45 576.309L275.714 547.124L262.764 567.89L309.649 597.161L321.006 595.153Z" stroke="#46B2C8" stroke-width="0.680618" stroke-miterlimit="10"/>
<path d="M372.878 585.011L369.193 568.668L360.657 570.601L298.206 584.721L303.594 608.594L366.218 594.437L372.878 585.011Z" stroke="#115766" stroke-width="0.680618" stroke-miterlimit="10"/>
<path d="M324.481 612.572L326.876 595.988L318.216 594.734L265.554 587.118L262.054 611.343L314.889 618.983L324.481 612.572Z" stroke="#46B2C8" stroke-width="0.680618" stroke-miterlimit="10"/>
<path d="M11.353 660.873L8.5878 644.351L-0.0410919 645.796L-44.0127 653.165L-39.9699 677.303L4.1684 669.909L11.353 660.873Z" stroke="#115766" stroke-width="0.680618" stroke-miterlimit="10"/>
<path d="M38.1534 668.186L47.0168 653.973L39.5915 649.341L-7.14522 620.156L-20.0947 640.922L26.7902 670.193L38.1534 668.186Z" stroke="#46B2C8" stroke-width="0.680618" stroke-miterlimit="10"/>
<path d="M41.6222 685.604L44.017 669.02L35.3572 667.766L-17.305 660.15L-20.8047 684.375L32.0304 692.022L41.6222 685.604Z" stroke="#46B2C8" stroke-width="0.680618" stroke-miterlimit="10"/>
<path d="M98.932 665.326L102.302 648.915L93.7349 647.154L42.4738 636.599L37.5483 660.576L88.9761 671.163L98.932 665.326Z" stroke="#46B2C8" stroke-width="0.680618" stroke-miterlimit="10"/>
<path d="M80.4212 684.523V667.772H71.675H43.5293V692.25H71.8479L80.4212 684.523Z" stroke="#46B2C8" stroke-width="0.680618" stroke-miterlimit="10"/>
<path d="M114.283 692.293L111.524 675.771L102.895 677.216L58.9231 684.585L62.9597 708.723L107.104 701.329L114.283 692.293Z" stroke="#115766" stroke-width="0.680618" stroke-miterlimit="10"/>
<path d="M141.083 699.606L149.946 685.394L142.527 680.762L95.7903 651.577L82.8408 672.343L129.726 701.614L141.083 699.606Z" stroke="#46B2C8" stroke-width="0.680618" stroke-miterlimit="10"/>
<path d="M192.955 689.463L189.27 673.12L180.734 675.053L118.282 689.173L123.677 713.046L186.295 698.889L192.955 689.463Z" stroke="#115766" stroke-width="0.680618" stroke-miterlimit="10"/>
<path d="M144.558 717.024L146.953 700.44L138.293 699.186L85.6311 691.57L82.1313 715.795L134.966 723.435L144.558 717.024Z" stroke="#46B2C8" stroke-width="0.680618" stroke-miterlimit="10"/>
<path d="M42.4679 621.273V604.522H33.7156H5.56982V628.994H33.8946L42.4679 621.273Z" stroke="#46B2C8" stroke-width="0.680618" stroke-miterlimit="10"/>
<path d="M76.3292 629.045L73.564 612.522L64.9351 613.968L20.9697 621.337L25.0064 645.475L69.1446 638.081L76.3292 629.045Z" stroke="#115766" stroke-width="0.680618" stroke-miterlimit="10"/>
<path d="M155.002 626.215L151.31 609.872L142.78 611.799L80.3289 625.925L85.7173 649.798L148.335 635.641L155.002 626.215Z" stroke="#115766" stroke-width="0.680618" stroke-miterlimit="10"/>
<path d="M145.403 652.695V635.944H136.651H108.505V660.416H136.824L145.403 652.695Z" stroke="#46B2C8" stroke-width="0.680618" stroke-miterlimit="10"/>
<path d="M179.265 660.465L176.5 643.942L167.871 645.388L123.905 652.75L127.942 676.895L172.08 669.501L179.265 660.465Z" stroke="#115766" stroke-width="0.680618" stroke-miterlimit="10"/>
<path d="M257.937 657.636L254.246 641.293L245.71 643.22L183.265 657.346L188.653 681.219L251.271 667.062L257.937 657.636Z" stroke="#115766" stroke-width="0.680618" stroke-miterlimit="10"/>
<path d="M209.54 685.19L211.935 668.612L203.275 667.358L150.613 659.742L147.113 683.967L199.948 691.607L209.54 685.19Z" stroke="#46B2C8" stroke-width="0.680618" stroke-miterlimit="10"/>
<path d="M153.095 595.561L161.958 581.348L154.539 576.716L107.802 547.531L94.8525 568.297L141.731 597.574L153.095 595.561Z" stroke="#46B2C8" stroke-width="0.680618" stroke-miterlimit="10"/>
<path d="M298.228 640.705V623.954H289.482H261.336V648.426H289.655L298.228 640.705Z" stroke="#46B2C8" stroke-width="0.680618" stroke-miterlimit="10"/>
<path d="M332.089 648.476L329.324 631.953L320.695 633.398L276.729 640.767L280.766 664.905L324.904 657.512L332.089 648.476Z" stroke="#115766" stroke-width="0.680618" stroke-miterlimit="10"/>
<path d="M410.762 645.646L407.071 629.303L398.54 631.23L336.089 645.356L341.477 669.228L404.102 655.072L410.762 645.646Z" stroke="#115766" stroke-width="0.680618" stroke-miterlimit="10"/>
<path d="M362.364 673.201L364.759 656.623L356.099 655.369L303.437 647.753L299.938 671.978L352.773 679.618L362.364 673.201Z" stroke="#46B2C8" stroke-width="0.680618" stroke-miterlimit="10"/>
<path d="M313.745 675.158L314.121 658.407L305.375 658.209L253.059 657.029L252.509 681.501L304.999 682.687L313.745 675.158Z" stroke="#46B2C8" stroke-width="0.680618" stroke-miterlimit="10"/>
<path d="M401.164 672.126V655.375H392.418H364.266V679.847H392.59L401.164 672.126Z" stroke="#46B2C8" stroke-width="0.680618" stroke-miterlimit="10"/>
<path d="M435.025 679.895L432.26 663.373L423.631 664.818L379.666 672.187L383.702 696.325L427.84 688.932L435.025 679.895Z" stroke="#115766" stroke-width="0.680618" stroke-miterlimit="10"/>
<path d="M461.825 687.208L470.688 672.996L463.269 668.357L416.533 639.173L403.583 659.939L450.468 689.216L461.825 687.208Z" stroke="#46B2C8" stroke-width="0.680618" stroke-miterlimit="10"/>
<path d="M513.697 677.066L510.006 660.723L501.476 662.65L439.024 676.776L444.413 700.648L507.037 686.492L513.697 677.066Z" stroke="#115766" stroke-width="0.680618" stroke-miterlimit="10"/>
<path d="M483.262 708.042L485.656 691.464L477.003 690.211L424.341 682.595L420.841 706.819L473.67 714.46L483.262 708.042Z" stroke="#46B2C8" stroke-width="0.680618" stroke-miterlimit="10"/>
<path d="M416.681 706.579L417.057 689.828L408.311 689.63L355.994 688.45L355.439 712.922L407.935 714.108L416.681 706.579Z" stroke="#46B2C8" stroke-width="0.680618" stroke-miterlimit="10"/>
<path d="M363.21 608.877V592.12H354.458H326.312V616.598H354.631L363.21 608.877Z" stroke="#46B2C8" stroke-width="0.680618" stroke-miterlimit="10"/>
<path d="M397.071 616.647L394.306 600.125L385.677 601.57L341.706 608.933L345.748 633.077L389.887 625.678L397.071 616.647Z" stroke="#115766" stroke-width="0.680618" stroke-miterlimit="10"/>
<path d="M423.871 623.96L432.735 609.742L425.31 605.109L378.573 575.925L365.629 596.691L412.508 625.968L423.871 623.96Z" stroke="#46B2C8" stroke-width="0.680618" stroke-miterlimit="10"/>
<path d="M475.744 613.812L472.053 597.475L463.516 599.402L401.065 613.528L406.46 637.4L469.078 623.237L475.744 613.812Z" stroke="#115766" stroke-width="0.680618" stroke-miterlimit="10"/>
<path d="M466.14 640.297V623.54H457.393H429.248V648.018H457.566L466.14 640.297Z" stroke="#46B2C8" stroke-width="0.680618" stroke-miterlimit="10"/>
<path d="M500.007 648.067L497.242 631.545L488.613 632.99L444.642 640.353L448.684 664.497L492.823 657.098L500.007 648.067Z" stroke="#115766" stroke-width="0.680618" stroke-miterlimit="10"/>
<path d="M183.287 713.33V696.573H174.534H146.389V721.051H174.707L183.287 713.33Z" stroke="#46B2C8" stroke-width="0.680618" stroke-miterlimit="10"/>
<path d="M217.148 721.101L214.383 704.578L205.754 706.023L161.789 713.386L165.825 737.53L209.964 730.137L217.148 721.101Z" stroke="#115766" stroke-width="0.680618" stroke-miterlimit="10"/>
<path d="M243.949 728.413L252.812 714.201L245.387 709.562L198.656 680.378L185.707 701.144L232.585 730.421L243.949 728.413Z" stroke="#46B2C8" stroke-width="0.680618" stroke-miterlimit="10"/>
<path d="M247.417 745.825L249.818 729.247L241.159 727.993L188.496 720.377L184.997 744.602L237.832 752.242L247.417 745.825Z" stroke="#46B2C8" stroke-width="0.680618" stroke-miterlimit="10"/>
<path d="M198.804 747.783L199.181 731.032L190.435 730.834L138.112 729.654L137.562 754.126L190.058 755.306L198.804 747.783Z" stroke="#46B2C8" stroke-width="0.680618" stroke-miterlimit="10"/>
<path d="M286.217 744.75V727.993H277.47H249.325V752.471H277.643L286.217 744.75Z" stroke="#46B2C8" stroke-width="0.680618" stroke-miterlimit="10"/>
<path d="M320.084 752.52L317.319 735.997L308.69 737.442L264.718 744.805L268.761 768.949L312.899 761.556L320.084 752.52Z" stroke="#115766" stroke-width="0.680618" stroke-miterlimit="10"/>
<path d="M346.884 759.833L355.748 745.615L348.322 740.982L301.585 711.798L288.642 732.564L335.521 761.841L346.884 759.833Z" stroke="#46B2C8" stroke-width="0.680618" stroke-miterlimit="10"/>
<path d="M398.757 749.686L395.065 733.349L386.529 735.276L324.078 749.402L329.472 773.274L392.09 759.111L398.757 749.686Z" stroke="#115766" stroke-width="0.680618" stroke-miterlimit="10"/>
<path d="M350.353 777.246L352.748 760.668L344.095 759.414L291.426 751.798L287.933 776.023L340.761 783.663L350.353 777.246Z" stroke="#46B2C8" stroke-width="0.680618" stroke-miterlimit="10"/>
<path d="M301.74 779.204L302.116 762.453L293.37 762.255L241.047 761.075L240.498 785.547L292.994 786.727L301.74 779.204Z" stroke="#46B2C8" stroke-width="0.680618" stroke-miterlimit="10"/>
<path d="M248.263 681.501V664.744H239.517H211.371V689.222H239.69L248.263 681.501Z" stroke="#46B2C8" stroke-width="0.680618" stroke-miterlimit="10"/>
<path d="M282.124 689.271L279.359 672.742L270.73 674.194L226.765 681.556L230.801 705.694L274.94 698.301L282.124 689.271Z" stroke="#115766" stroke-width="0.680618" stroke-miterlimit="10"/>
<path d="M360.797 686.436L357.106 670.099L348.576 672.026L286.124 686.145L291.512 710.024L354.137 695.861L360.797 686.436Z" stroke="#115766" stroke-width="0.680618" stroke-miterlimit="10"/>
<path d="M351.199 712.922V696.165H342.453H314.301V720.643H342.626L351.199 712.922Z" stroke="#46B2C8" stroke-width="0.680618" stroke-miterlimit="10"/>
<path d="M385.06 720.693L382.295 704.164L373.666 705.609L329.701 712.978L333.737 737.116L377.876 729.723L385.06 720.693Z" stroke="#115766" stroke-width="0.680618" stroke-miterlimit="10"/>
<path d="M463.732 717.858L460.041 701.521L451.511 703.448L389.06 717.567L394.448 741.446L457.072 727.283L463.732 717.858Z" stroke="#115766" stroke-width="0.680618" stroke-miterlimit="10"/>
<path d="M415.335 745.418L417.73 728.833L409.07 727.586L356.408 719.964L352.908 744.189L405.743 751.835L415.335 745.418Z" stroke="#46B2C8" stroke-width="0.680618" stroke-miterlimit="10"/>
<path d="M514.055 739.382L514.432 722.637L505.686 722.44L453.369 721.26L452.813 745.732L505.309 746.911L514.055 739.382Z" stroke="#46B2C8" stroke-width="0.680618" stroke-miterlimit="10"/>
<path d="M383.591 777.554V760.803H374.845H346.699V785.281H375.018L383.591 777.554Z" stroke="#46B2C8" stroke-width="0.680618" stroke-miterlimit="10"/>
<path d="M417.458 785.33L414.693 768.802L406.064 770.247L362.093 777.616L366.136 801.754L410.274 794.361L417.458 785.33Z" stroke="#115766" stroke-width="0.680618" stroke-miterlimit="10"/>
<path d="M444.259 792.638L453.122 778.425L445.697 773.793L398.96 744.608L386.011 765.374L432.896 794.651L444.259 792.638Z" stroke="#46B2C8" stroke-width="0.680618" stroke-miterlimit="10"/>
<path d="M447.728 810.055L450.122 793.471L441.463 792.223L388.8 784.602L385.301 808.826L438.136 816.473L447.728 810.055Z" stroke="#46B2C8" stroke-width="0.680618" stroke-miterlimit="10"/>
<path d="M399.114 812.007L399.491 795.262L390.745 795.065L338.422 793.885L337.873 818.35L390.362 819.536L399.114 812.007Z" stroke="#46B2C8" stroke-width="0.680618" stroke-miterlimit="10"/>
<path d="M505.038 789.777L508.408 773.366L499.841 771.605L448.58 761.056L443.648 785.027L495.082 795.614L505.038 789.777Z" stroke="#46B2C8" stroke-width="0.680618" stroke-miterlimit="10"/>
<path d="M299.037 723.354L302.413 706.949L293.839 705.182L242.585 694.633L237.653 718.604L289.081 729.191L299.037 723.354Z" stroke="#46B2C8" stroke-width="0.680618" stroke-miterlimit="10"/>
<path d="M486.527 808.975V792.224H477.781H449.635V816.702H477.953L486.527 808.975Z" stroke="#46B2C8" stroke-width="0.680618" stroke-miterlimit="10"/>
<path d="M502.044 843.428L502.427 826.683L493.674 826.485L441.358 825.306L440.809 849.771L493.298 850.957L502.044 843.428Z" stroke="#46B2C8" stroke-width="0.680618" stroke-miterlimit="10"/>
<path d="M448.573 745.727V728.976H439.821H411.675V753.454H439.993L448.573 745.727Z" stroke="#46B2C8" stroke-width="0.680618" stroke-miterlimit="10"/>
<path d="M482.435 753.496L479.67 736.974L471.041 738.419L427.075 745.788L431.112 769.926L475.25 762.532L482.435 753.496Z" stroke="#115766" stroke-width="0.680618" stroke-miterlimit="10"/>
<path d="M358.889 655.788L367.753 641.576L360.334 636.937L313.597 607.753L300.647 628.519L347.532 657.796L358.889 655.788Z" stroke="#46B2C8" stroke-width="0.680618" stroke-miterlimit="10"/>
<path d="M405.355 564.06V547.303H396.608H368.457V571.781H396.781L405.355 564.06Z" stroke="#46B2C8" stroke-width="0.680618" stroke-miterlimit="10"/>
<path d="M439.216 571.829L436.451 555.301L427.822 556.746L383.856 564.115L387.893 588.253L432.031 580.86L439.216 571.829Z" stroke="#115766" stroke-width="0.680618" stroke-miterlimit="10"/>
<path d="M466.016 579.137L474.88 564.924L467.461 560.292L420.724 531.107L407.774 551.873L454.659 581.15L466.016 579.137Z" stroke="#46B2C8" stroke-width="0.680618" stroke-miterlimit="10"/>
<path d="M469.491 596.554L471.886 579.97L463.226 578.723L410.564 571.101L407.064 595.325L459.899 602.972L469.491 596.554Z" stroke="#46B2C8" stroke-width="0.680618" stroke-miterlimit="10"/>
<path d="M470.33 532.225V515.474H461.584H433.438V539.952H461.757L470.33 532.225Z" stroke="#46B2C8" stroke-width="0.680618" stroke-miterlimit="10"/>
<path d="M504.198 539.995L501.433 523.473L492.804 524.918L448.833 532.287L452.875 556.425L497.014 549.031L504.198 539.995Z" stroke="#115766" stroke-width="0.680618" stroke-miterlimit="10"/>
<path d="M109.12 361.039V344.288H100.367H72.2214V368.766H100.54L109.12 361.039Z" stroke="#46B2C8" stroke-width="0.680618" stroke-miterlimit="10"/>
<path d="M142.981 368.809L140.215 352.286L131.586 353.731L87.6211 361.1L91.6578 385.238L135.796 377.845L142.981 368.809Z" stroke="#115766" stroke-width="0.680618" stroke-miterlimit="10"/>
<path d="M221.653 365.979L217.962 349.636L209.432 351.569L146.98 365.689L152.369 389.561L214.987 375.405L221.653 365.979Z" stroke="#115766" stroke-width="0.680618" stroke-miterlimit="10"/>
<path d="M173.256 393.54L175.651 376.956L166.991 375.702L114.329 368.086L110.829 392.311L163.664 399.951L173.256 393.54Z" stroke="#46B2C8" stroke-width="0.680618" stroke-miterlimit="10"/>
<path d="M124.637 395.493L125.013 378.742L116.267 378.544L63.9505 377.364L63.395 401.836L115.891 403.022L124.637 395.493Z" stroke="#46B2C8" stroke-width="0.680618" stroke-miterlimit="10"/>
<path d="M212.055 392.459V375.708H203.303H175.157V400.186H203.476L212.055 392.459Z" stroke="#46B2C8" stroke-width="0.680618" stroke-miterlimit="10"/>
<path d="M245.916 400.229L243.151 383.706L234.522 385.151L190.557 392.52L194.593 416.658L238.732 409.265L245.916 400.229Z" stroke="#115766" stroke-width="0.680618" stroke-miterlimit="10"/>
<path d="M272.717 407.542L281.58 393.33L274.155 388.691L227.424 359.513L214.475 380.272L261.353 409.549L272.717 407.542Z" stroke="#46B2C8" stroke-width="0.680618" stroke-miterlimit="10"/>
<path d="M324.589 397.401L320.898 381.058L312.361 382.991L249.916 397.111L255.304 420.983L317.923 406.826L324.589 397.401Z" stroke="#115766" stroke-width="0.680618" stroke-miterlimit="10"/>
<path d="M294.153 428.383L296.548 411.798L287.888 410.544L235.226 402.929L231.727 427.153L284.562 434.794L294.153 428.383Z" stroke="#46B2C8" stroke-width="0.680618" stroke-miterlimit="10"/>
<path d="M227.572 426.912L227.949 410.161L219.203 409.963L166.88 408.783L166.331 433.255L218.826 434.441L227.572 426.912Z" stroke="#46B2C8" stroke-width="0.680618" stroke-miterlimit="10"/>
<path d="M174.096 329.21V312.453H165.349H137.204V336.931H165.522L174.096 329.21Z" stroke="#46B2C8" stroke-width="0.680618" stroke-miterlimit="10"/>
<path d="M207.963 336.98L205.198 320.458L196.569 321.903L152.597 329.266L156.64 353.41L200.778 346.017L207.963 336.98Z" stroke="#115766" stroke-width="0.680618" stroke-miterlimit="10"/>
<path d="M234.763 344.293L243.62 330.081L236.201 325.442L189.464 296.258L176.515 317.024L223.4 346.301L234.763 344.293Z" stroke="#46B2C8" stroke-width="0.680618" stroke-miterlimit="10"/>
<path d="M286.629 334.152L282.944 317.809L274.408 319.736L211.957 333.862L217.351 357.734L279.969 343.571L286.629 334.152Z" stroke="#115766" stroke-width="0.680618" stroke-miterlimit="10"/>
<path d="M277.031 360.631V343.874H268.285H240.139V368.352H268.458L277.031 360.631Z" stroke="#46B2C8" stroke-width="0.680618" stroke-miterlimit="10"/>
<path d="M310.892 368.401L308.133 351.879L299.504 353.324L255.533 360.687L259.569 384.831L303.714 377.438L310.892 368.401Z" stroke="#115766" stroke-width="0.680618" stroke-miterlimit="10"/>
<path d="M337.693 375.714L346.557 361.502L339.138 356.863L292.401 327.679L279.451 348.445L326.336 377.722L337.693 375.714Z" stroke="#46B2C8" stroke-width="0.680618" stroke-miterlimit="10"/>
<path d="M389.565 365.572L385.874 349.229L377.344 351.156L314.893 365.282L320.281 389.154L382.905 374.991L389.565 365.572Z" stroke="#115766" stroke-width="0.680618" stroke-miterlimit="10"/>
<path d="M341.168 393.126L343.563 376.548L334.903 375.294L282.241 367.679L278.741 391.903L331.576 399.544L341.168 393.126Z" stroke="#46B2C8" stroke-width="0.680618" stroke-miterlimit="10"/>
<path d="M28.04 441.433L25.2748 424.91L16.6459 426.355L-27.3257 433.718L-23.2828 457.862L20.8554 450.469L28.04 441.433Z" stroke="#115766" stroke-width="0.680618" stroke-miterlimit="10"/>
<path d="M54.8399 448.746L63.7034 434.533L56.2781 429.894L9.5413 400.71L-3.4082 421.476L43.4767 450.753L54.8399 448.746Z" stroke="#46B2C8" stroke-width="0.680618" stroke-miterlimit="10"/>
<path d="M58.3089 466.158L60.7038 449.58L52.044 448.326L-0.618225 440.71L-4.11792 464.935L48.7171 472.575L58.3089 466.158Z" stroke="#46B2C8" stroke-width="0.680618" stroke-miterlimit="10"/>
<path d="M9.69559 468.117L10.0721 451.366L1.32593 451.168L-50.9968 449.988L-51.5461 474.46L0.943247 475.646L9.69559 468.117Z" stroke="#46B2C8" stroke-width="0.680618" stroke-miterlimit="10"/>
<path d="M97.1083 465.083V448.332H88.3621H60.2163V472.804H88.5349L97.1083 465.083Z" stroke="#46B2C8" stroke-width="0.680618" stroke-miterlimit="10"/>
<path d="M130.969 472.854L128.21 456.331L119.581 457.776L75.6099 465.139L79.6466 489.283L123.791 481.89L130.969 472.854Z" stroke="#115766" stroke-width="0.680618" stroke-miterlimit="10"/>
<path d="M157.77 480.167L166.633 465.955L159.214 461.316L112.477 432.132L99.5278 452.898L146.413 482.175L157.77 480.167Z" stroke="#46B2C8" stroke-width="0.680618" stroke-miterlimit="10"/>
<path d="M209.642 470.025L205.957 453.682L197.421 455.609L134.969 469.735L140.364 493.607L202.982 479.444L209.642 470.025Z" stroke="#115766" stroke-width="0.680618" stroke-miterlimit="10"/>
<path d="M161.245 497.579L163.64 481.001L154.98 479.748L102.318 472.132L98.8179 496.357L151.653 503.997L161.245 497.579Z" stroke="#46B2C8" stroke-width="0.680618" stroke-miterlimit="10"/>
<path d="M112.625 499.537L113.008 482.786L104.262 482.588L51.939 481.408L51.3896 505.88L103.879 507.066L112.625 499.537Z" stroke="#46B2C8" stroke-width="0.680618" stroke-miterlimit="10"/>
<path d="M59.1544 401.834V385.077H50.4021H22.2563V409.555H50.5749L59.1544 401.834Z" stroke="#46B2C8" stroke-width="0.680618" stroke-miterlimit="10"/>
<path d="M93.0158 409.604L90.2506 393.082L81.6217 394.527L37.6562 401.89L41.693 426.034L85.8312 418.635L93.0158 409.604Z" stroke="#115766" stroke-width="0.680618" stroke-miterlimit="10"/>
<path d="M171.688 406.77L167.997 390.433L159.467 392.36L97.0156 406.479L102.404 430.358L165.022 416.195L171.688 406.77Z" stroke="#115766" stroke-width="0.680618" stroke-miterlimit="10"/>
<path d="M162.091 433.256V416.499H153.338H125.192V440.977H153.511L162.091 433.256Z" stroke="#46B2C8" stroke-width="0.680618" stroke-miterlimit="10"/>
<path d="M195.952 441.025L193.187 424.503L184.558 425.948L140.592 433.311L144.629 457.455L188.767 450.056L195.952 441.025Z" stroke="#115766" stroke-width="0.680618" stroke-miterlimit="10"/>
<path d="M274.624 438.19L270.933 421.853L262.396 423.78L199.951 437.899L205.34 461.778L267.958 447.615L274.624 438.19Z" stroke="#115766" stroke-width="0.680618" stroke-miterlimit="10"/>
<path d="M226.227 465.751L228.622 449.173L219.962 447.919L167.3 440.297L163.8 464.528L216.635 472.168L226.227 465.751Z" stroke="#46B2C8" stroke-width="0.680618" stroke-miterlimit="10"/>
<path d="M343.291 433.039L340.526 416.517L331.897 417.962L287.925 425.324L291.968 449.469L336.106 442.075L343.291 433.039Z" stroke="#115766" stroke-width="0.680618" stroke-miterlimit="10"/>
<path d="M421.963 430.204L418.272 413.867L409.736 415.794L347.285 429.92L352.679 453.793L415.297 439.63L421.963 430.204Z" stroke="#115766" stroke-width="0.680618" stroke-miterlimit="10"/>
<path d="M373.56 457.764L375.955 441.186L367.302 439.932L314.633 432.316L311.14 456.541L363.969 464.182L373.56 457.764Z" stroke="#46B2C8" stroke-width="0.680618" stroke-miterlimit="10"/>
<path d="M324.947 459.723L325.323 442.972L316.577 442.774L264.254 441.595L263.705 466.066L316.201 467.246L324.947 459.723Z" stroke="#46B2C8" stroke-width="0.680618" stroke-miterlimit="10"/>
<path d="M412.359 456.689V439.932H403.613H375.467V464.41H403.786L412.359 456.689Z" stroke="#46B2C8" stroke-width="0.680618" stroke-miterlimit="10"/>
<path d="M446.227 464.459L443.462 447.937L434.833 449.382L390.861 456.744L394.904 480.889L439.042 473.495L446.227 464.459Z" stroke="#115766" stroke-width="0.680618" stroke-miterlimit="10"/>
<path d="M473.027 471.772L481.89 457.553L474.465 452.921L427.728 423.736L414.779 444.502L461.664 473.779L473.027 471.772Z" stroke="#46B2C8" stroke-width="0.680618" stroke-miterlimit="10"/>
<path d="M524.899 461.625L521.208 445.288L512.672 447.215L450.22 461.341L455.615 485.214L518.233 471.051L524.899 461.625Z" stroke="#115766" stroke-width="0.680618" stroke-miterlimit="10"/>
<path d="M476.496 489.184L478.891 472.606L470.231 471.352L417.569 463.736L414.069 487.961L466.904 495.601L476.496 489.184Z" stroke="#46B2C8" stroke-width="0.680618" stroke-miterlimit="10"/>
<path d="M427.883 491.143L428.259 474.392L419.513 474.194L367.19 473.015L366.641 497.486L419.131 498.666L427.883 491.143Z" stroke="#46B2C8" stroke-width="0.680618" stroke-miterlimit="10"/>
<path d="M374.406 393.441V376.684H365.66H337.508V401.162H365.833L374.406 393.441Z" stroke="#46B2C8" stroke-width="0.680618" stroke-miterlimit="10"/>
<path d="M408.267 401.21L405.502 384.682L396.873 386.127L352.907 393.496L356.944 417.634L401.082 410.241L408.267 401.21Z" stroke="#115766" stroke-width="0.680618" stroke-miterlimit="10"/>
<path d="M435.067 408.518L443.931 394.305L436.511 389.673L389.775 360.488L376.825 381.254L423.71 410.531L435.067 408.518Z" stroke="#46B2C8" stroke-width="0.680618" stroke-miterlimit="10"/>
<path d="M486.939 398.375L483.248 382.038L474.718 383.965L412.267 398.085L417.655 421.964L480.279 407.801L486.939 398.375Z" stroke="#115766" stroke-width="0.680618" stroke-miterlimit="10"/>
<path d="M477.341 424.861V408.104H468.589H440.443V432.581H468.768L477.341 424.861Z" stroke="#46B2C8" stroke-width="0.680618" stroke-miterlimit="10"/>
<path d="M194.483 497.894V481.137H185.737H157.591V505.615H185.909L194.483 497.894Z" stroke="#46B2C8" stroke-width="0.680618" stroke-miterlimit="10"/>
<path d="M228.344 505.663L225.579 489.141L216.95 490.586L172.984 497.948L177.021 522.087L221.159 514.693L228.344 505.663Z" stroke="#115766" stroke-width="0.680618" stroke-miterlimit="10"/>
<path d="M255.144 512.971L264.008 498.758L256.589 494.126L209.852 464.941L196.902 485.707L243.787 514.984L255.144 512.971Z" stroke="#46B2C8" stroke-width="0.680618" stroke-miterlimit="10"/>
<path d="M258.619 530.388L261.014 513.81L252.354 512.556L199.692 504.935L196.192 529.159L249.027 536.806L258.619 530.388Z" stroke="#46B2C8" stroke-width="0.680618" stroke-miterlimit="10"/>
<path d="M210 532.341L210.376 515.596L201.63 515.399L149.314 514.219L148.764 538.69L201.254 539.87L210 532.341Z" stroke="#46B2C8" stroke-width="0.680618" stroke-miterlimit="10"/>
<path d="M315.923 510.111L319.3 493.706L310.726 491.939L259.471 481.39L254.54 505.361L305.973 515.948L315.923 510.111Z" stroke="#46B2C8" stroke-width="0.680618" stroke-miterlimit="10"/>
<path d="M109.928 443.694L113.298 427.283L104.731 425.516L53.4699 414.967L48.5444 438.938L99.9722 449.525L109.928 443.694Z" stroke="#46B2C8" stroke-width="0.680618" stroke-miterlimit="10"/>
<path d="M297.419 529.314V512.557H288.672H260.521V537.035H288.845L297.419 529.314Z" stroke="#46B2C8" stroke-width="0.680618" stroke-miterlimit="10"/>
<path d="M331.28 537.084L328.515 520.556L319.886 522.007L275.92 529.37L279.957 553.508L324.095 546.115L331.28 537.084Z" stroke="#115766" stroke-width="0.680618" stroke-miterlimit="10"/>
<path d="M358.08 544.392L366.943 530.179L359.524 525.547L312.787 496.362L299.838 517.128L346.723 546.405L358.08 544.392Z" stroke="#46B2C8" stroke-width="0.680618" stroke-miterlimit="10"/>
<path d="M409.952 534.249L406.261 517.912L397.731 519.839L335.279 533.959L340.668 557.838L403.292 543.675L409.952 534.249Z" stroke="#115766" stroke-width="0.680618" stroke-miterlimit="10"/>
<path d="M361.555 561.809L363.95 545.231L355.29 543.977L302.628 536.355L299.128 560.58L351.963 568.227L361.555 561.809Z" stroke="#46B2C8" stroke-width="0.680618" stroke-miterlimit="10"/>
<path d="M312.936 563.761L313.312 547.016L304.566 546.818L252.249 545.639L251.694 570.11L304.189 571.29L312.936 563.761Z" stroke="#46B2C8" stroke-width="0.680618" stroke-miterlimit="10"/>
<path d="M259.465 466.06V449.309H250.712H222.566V473.787H250.885L259.465 466.06Z" stroke="#46B2C8" stroke-width="0.680618" stroke-miterlimit="10"/>
<path d="M293.326 473.83L290.561 457.308L281.932 458.753L237.96 466.122L242.003 490.26L286.142 482.866L293.326 473.83Z" stroke="#115766" stroke-width="0.680618" stroke-miterlimit="10"/>
<path d="M371.999 471.001L368.308 454.657L359.771 456.591L297.32 470.71L302.714 494.583L365.333 480.426L371.999 471.001Z" stroke="#115766" stroke-width="0.680618" stroke-miterlimit="10"/>
<path d="M362.394 497.48V480.729H353.648H325.502V505.207H353.821L362.394 497.48Z" stroke="#46B2C8" stroke-width="0.680618" stroke-miterlimit="10"/>
<path d="M396.262 505.25L393.497 488.728L384.868 490.173L340.896 497.542L344.939 521.68L389.078 514.286L396.262 505.25Z" stroke="#115766" stroke-width="0.680618" stroke-miterlimit="10"/>
<path d="M474.934 502.42L471.243 486.077L462.707 488.01L400.255 502.13L405.65 526.003L468.268 511.846L474.934 502.42Z" stroke="#115766" stroke-width="0.680618" stroke-miterlimit="10"/>
<path d="M426.531 529.981L428.926 513.397L420.266 512.143L367.604 504.527L364.104 528.752L416.939 536.399L426.531 529.981Z" stroke="#46B2C8" stroke-width="0.680618" stroke-miterlimit="10"/>
<path d="M169.781 376.122L178.645 361.91L171.225 357.271L124.489 328.093L111.539 348.852L158.418 378.13L169.781 376.122Z" stroke="#46B2C8" stroke-width="0.680618" stroke-miterlimit="10"/>
<path d="M370.091 440.352L378.955 426.133L371.529 421.501L324.792 392.316L311.849 413.082L358.728 442.359L370.091 440.352Z" stroke="#46B2C8" stroke-width="0.680618" stroke-miterlimit="10"/>
<path d="M331.187 211.768V195.011H322.441H294.295V219.489H322.614L331.187 211.768Z" stroke="#46B2C8" stroke-width="0.680618" stroke-miterlimit="10"/>
<path d="M365.048 219.538L362.289 203.016L353.661 204.461L309.689 211.823L313.726 235.968L357.87 228.574L365.048 219.538Z" stroke="#115766" stroke-width="0.680618" stroke-miterlimit="10"/>
<path d="M443.721 216.71L440.029 200.366L431.499 202.293L369.048 216.419L374.436 240.292L437.061 226.129L443.721 216.71Z" stroke="#115766" stroke-width="0.680618" stroke-miterlimit="10"/>
<path d="M395.324 244.263L397.719 227.685L389.059 226.431L336.397 218.815L332.897 243.04L385.732 250.681L395.324 244.263Z" stroke="#46B2C8" stroke-width="0.680618" stroke-miterlimit="10"/>
<path d="M346.704 246.221L347.087 229.47L338.335 229.273L286.018 228.093L285.469 252.565L337.958 253.744L346.704 246.221Z" stroke="#46B2C8" stroke-width="0.680618" stroke-miterlimit="10"/>
<path d="M434.123 243.189V226.432H425.377H397.231V250.91H425.55L434.123 243.189Z" stroke="#46B2C8" stroke-width="0.680618" stroke-miterlimit="10"/>
<path d="M467.985 250.959L465.219 234.437L456.59 235.882L412.625 243.244L416.662 267.389L460.8 259.995L467.985 250.959Z" stroke="#115766" stroke-width="0.680618" stroke-miterlimit="10"/>
<path d="M494.784 258.272L503.648 244.059L496.229 239.421L449.492 210.236L436.542 231.002L483.427 260.279L494.784 258.272Z" stroke="#46B2C8" stroke-width="0.680618" stroke-miterlimit="10"/>
<path d="M516.221 279.105L518.622 262.527L509.962 261.273L457.3 253.657L453.8 277.882L506.635 285.522L516.221 279.105Z" stroke="#46B2C8" stroke-width="0.680618" stroke-miterlimit="10"/>
<path d="M449.64 277.642L450.017 260.891L441.271 260.693L388.954 259.514L388.398 283.985L440.894 285.165L449.64 277.642Z" stroke="#46B2C8" stroke-width="0.680618" stroke-miterlimit="10"/>
<path d="M396.169 179.94V163.183H387.417H359.271V187.661H387.59L396.169 179.94Z" stroke="#46B2C8" stroke-width="0.680618" stroke-miterlimit="10"/>
<path d="M430.031 187.71L427.266 171.188L418.637 172.633L374.671 179.995L378.708 204.134L422.846 196.74L430.031 187.71Z" stroke="#115766" stroke-width="0.680618" stroke-miterlimit="10"/>
<path d="M456.831 195.017L465.694 180.804L458.269 176.172L411.538 146.987L398.589 167.753L445.468 197.03L456.831 195.017Z" stroke="#46B2C8" stroke-width="0.680618" stroke-miterlimit="10"/>
<path d="M508.703 184.875L505.012 168.538L496.475 170.465L434.024 184.585L439.419 208.464L502.037 194.301L508.703 184.875Z" stroke="#115766" stroke-width="0.680618" stroke-miterlimit="10"/>
<path d="M216.246 284.393V267.636H207.494H179.348V292.114H207.667L216.246 284.393Z" stroke="#46B2C8" stroke-width="0.680618" stroke-miterlimit="10"/>
<path d="M250.107 292.163L247.342 275.641L238.713 277.086L194.748 284.448L198.785 308.593L242.923 301.193L250.107 292.163Z" stroke="#115766" stroke-width="0.680618" stroke-miterlimit="10"/>
<path d="M276.908 299.47L285.771 285.257L278.346 280.625L231.616 251.44L218.666 272.206L265.545 301.483L276.908 299.47Z" stroke="#46B2C8" stroke-width="0.680618" stroke-miterlimit="10"/>
<path d="M280.383 316.887L282.778 300.309L274.118 299.056L221.456 291.434L217.956 315.658L270.791 323.305L280.383 316.887Z" stroke="#46B2C8" stroke-width="0.680618" stroke-miterlimit="10"/>
<path d="M319.182 315.813V299.056H310.429H282.284V323.534H310.602L319.182 315.813Z" stroke="#46B2C8" stroke-width="0.680618" stroke-miterlimit="10"/>
<path d="M353.043 323.583L350.278 307.061L341.649 308.506L297.678 315.868L301.721 340.013L345.859 332.613L353.043 323.583Z" stroke="#115766" stroke-width="0.680618" stroke-miterlimit="10"/>
<path d="M379.844 330.891L388.707 316.678L381.282 312.046L334.545 282.861L321.602 303.627L368.48 332.904L379.844 330.891Z" stroke="#46B2C8" stroke-width="0.680618" stroke-miterlimit="10"/>
<path d="M431.716 320.748L428.025 304.411L419.489 306.338L357.037 320.458L362.432 344.337L425.05 330.174L431.716 320.748Z" stroke="#115766" stroke-width="0.680618" stroke-miterlimit="10"/>
<path d="M383.313 348.308L385.708 331.73L377.054 330.476L324.392 322.854L320.892 347.079L373.721 354.726L383.313 348.308Z" stroke="#46B2C8" stroke-width="0.680618" stroke-miterlimit="10"/>
<path d="M281.222 252.559V235.808H272.476H244.33V260.286H272.649L281.222 252.559Z" stroke="#46B2C8" stroke-width="0.680618" stroke-miterlimit="10"/>
<path d="M315.084 260.329L312.325 243.807L303.696 245.252L259.724 252.621L263.761 276.759L307.905 269.365L315.084 260.329Z" stroke="#115766" stroke-width="0.680618" stroke-miterlimit="10"/>
<path d="M393.756 257.5L390.065 241.156L381.535 243.09L319.083 257.209L324.472 281.088L387.096 266.925L393.756 257.5Z" stroke="#115766" stroke-width="0.680618" stroke-miterlimit="10"/>
<path d="M384.158 283.979V267.228H375.412H347.26V291.705H375.585L384.158 283.979Z" stroke="#46B2C8" stroke-width="0.680618" stroke-miterlimit="10"/>
<path d="M418.019 291.749L415.254 275.227L406.625 276.672L362.66 284.041L366.696 308.179L410.835 300.785L418.019 291.749Z" stroke="#115766" stroke-width="0.680618" stroke-miterlimit="10"/>
<path d="M496.692 288.919L493.001 272.576L484.471 274.509L422.019 288.629L427.407 312.502L490.032 298.345L496.692 288.919Z" stroke="#115766" stroke-width="0.680618" stroke-miterlimit="10"/>
<path d="M448.295 316.48L450.689 299.896L442.03 298.648L389.367 291.026L385.868 315.251L438.703 322.898L448.295 316.48Z" stroke="#46B2C8" stroke-width="0.680618" stroke-miterlimit="10"/>
<path d="M416.55 348.617V331.866H407.804H379.658V356.344H407.977L416.55 348.617Z" stroke="#46B2C8" stroke-width="0.680618" stroke-miterlimit="10"/>
<path d="M450.417 356.388L447.652 339.865L439.023 341.311L395.052 348.679L399.095 372.817L443.233 365.424L450.417 356.388Z" stroke="#115766" stroke-width="0.680618" stroke-miterlimit="10"/>
<path d="M477.218 363.7L486.081 349.488L478.656 344.855L431.919 315.671L418.97 336.437L465.855 365.708L477.218 363.7Z" stroke="#46B2C8" stroke-width="0.680618" stroke-miterlimit="10"/>
<path d="M480.687 381.119L483.082 364.535L474.422 363.281L421.76 355.665L418.26 379.89L471.095 387.536L480.687 381.119Z" stroke="#46B2C8" stroke-width="0.680618" stroke-miterlimit="10"/>
<path d="M331.995 294.418L335.372 278.012L326.798 276.246L275.543 265.696L270.612 289.668L322.04 300.254L331.995 294.418Z" stroke="#46B2C8" stroke-width="0.680618" stroke-miterlimit="10"/>
<path d="M481.532 316.788V300.037H472.78H444.634V324.509H472.959L481.532 316.788Z" stroke="#46B2C8" stroke-width="0.680618" stroke-miterlimit="10"/>
<path d="M391.848 226.852L400.712 212.64L393.293 208.001L346.556 178.816L333.606 199.582L380.491 228.859L391.848 226.852Z" stroke="#46B2C8" stroke-width="0.680618" stroke-miterlimit="10"/>
<path d="M15.3866 297.142L11.6956 280.805L3.16541 282.732L-59.2861 296.852L-53.8977 320.73L8.7205 306.567L15.3866 297.142Z" stroke="#115766" stroke-width="0.680618" stroke-miterlimit="10"/>
<path d="M5.78873 323.626V306.869H-2.96362H-31.1094V331.347H-2.79077L5.78873 323.626Z" stroke="#46B2C8" stroke-width="0.680618" stroke-miterlimit="10"/>
<path d="M39.65 331.396L36.8848 314.874L28.2559 316.319L-15.7095 323.682L-11.6728 347.826L32.4655 340.427L39.65 331.396Z" stroke="#115766" stroke-width="0.680618" stroke-miterlimit="10"/>
<path d="M66.4502 338.704L75.3137 324.492L67.8884 319.859L21.1578 290.675L8.20825 311.441L55.087 340.718L66.4502 338.704Z" stroke="#46B2C8" stroke-width="0.680618" stroke-miterlimit="10"/>
<path d="M118.322 328.561L114.631 312.224L106.095 314.151L43.6436 328.27L49.0382 352.149L111.656 337.986L118.322 328.561Z" stroke="#115766" stroke-width="0.680618" stroke-miterlimit="10"/>
<path d="M69.9251 356.121L72.32 339.543L63.6602 338.29L10.998 330.674L7.49829 354.898L60.3333 362.539L69.9251 356.121Z" stroke="#46B2C8" stroke-width="0.680618" stroke-miterlimit="10"/>
<path d="M21.3057 358.072L21.6822 341.328L12.936 341.13L-39.3867 339.95L-39.936 364.422L12.5595 365.602L21.3057 358.072Z" stroke="#46B2C8" stroke-width="0.680618" stroke-miterlimit="10"/>
<path d="M1.6903 268.149L-1.06871 251.62L-9.6976 253.065L-53.6692 260.434L-49.6325 284.572L-5.48807 277.179L1.6903 268.149Z" stroke="#115766" stroke-width="0.680618" stroke-miterlimit="10"/>
<path d="M28.4903 275.455L37.3538 261.243L29.9346 256.61L-16.8022 227.426L-29.7517 248.192L17.1332 277.469L28.4903 275.455Z" stroke="#46B2C8" stroke-width="0.680618" stroke-miterlimit="10"/>
<path d="M80.3626 265.313L76.6778 248.97L68.1414 250.903L5.68994 265.023L11.0845 288.902L73.7027 274.739L80.3626 265.313Z" stroke="#115766" stroke-width="0.680618" stroke-miterlimit="10"/>
<path d="M70.7645 291.792V275.041H62.0183H33.8726V299.519H62.1912L70.7645 291.792Z" stroke="#46B2C8" stroke-width="0.680618" stroke-miterlimit="10"/>
<path d="M104.626 299.562L101.861 283.04L93.238 284.485L49.2664 291.854L53.3031 315.992L97.4475 308.599L104.626 299.562Z" stroke="#115766" stroke-width="0.680618" stroke-miterlimit="10"/>
<path d="M131.426 306.875L140.29 292.663L132.871 288.03L86.1339 258.846L73.1843 279.611L120.069 308.882L131.426 306.875Z" stroke="#46B2C8" stroke-width="0.680618" stroke-miterlimit="10"/>
<path d="M183.298 296.733L179.607 280.39L171.077 282.323L108.625 296.443L114.014 320.321L176.638 306.158L183.298 296.733Z" stroke="#115766" stroke-width="0.680618" stroke-miterlimit="10"/>
<path d="M134.901 324.294L137.296 307.709L128.637 306.462L75.9743 298.84L72.4746 323.065L125.31 330.711L134.901 324.294Z" stroke="#46B2C8" stroke-width="0.680618" stroke-miterlimit="10"/>
<path d="M3.37536 401.187L-0.30953 384.844L-8.84582 386.777L-71.2974 400.897L-65.9089 424.776L-3.28459 410.613L3.37536 401.187Z" stroke="#115766" stroke-width="0.680618" stroke-miterlimit="10"/>
<path d="M68.3573 369.358L64.6663 353.015L56.13 354.948L-6.32153 369.068L-0.926936 392.94L61.6912 378.784L68.3573 369.358Z" stroke="#115766" stroke-width="0.680618" stroke-miterlimit="10"/>
<path d="M19.9542 396.919L22.3552 380.334L13.6954 379.081L-38.9669 371.465L-42.4666 395.69L10.3686 403.33L19.9542 396.919Z" stroke="#46B2C8" stroke-width="0.680618" stroke-miterlimit="10"/>
<path d="M37.1501 83.6399L33.459 67.3027L24.9227 69.2298L-37.5288 83.3558L-32.1342 107.228L30.484 93.0654L37.1501 83.6399Z" stroke="#115766" stroke-width="0.680618" stroke-miterlimit="10"/>
<path d="M27.5462 110.125V93.3682H18.8H-9.3457V117.846H18.9729L27.5462 110.125Z" stroke="#46B2C8" stroke-width="0.680618" stroke-miterlimit="10"/>
<path d="M61.4073 117.896L58.6483 101.374L50.0194 102.819L6.04785 110.182L10.0845 134.326L54.229 126.927L61.4073 117.896Z" stroke="#115766" stroke-width="0.680618" stroke-miterlimit="10"/>
<path d="M88.2137 125.209L97.071 110.991L89.6519 106.358L42.9151 77.1738L29.9656 97.9396L76.8505 127.217L88.2137 125.209Z" stroke="#46B2C8" stroke-width="0.680618" stroke-miterlimit="10"/>
<path d="M140.08 115.061L136.395 98.7236L127.859 100.651L65.4072 114.777L70.8018 138.649L133.42 124.486L140.08 115.061Z" stroke="#115766" stroke-width="0.680618" stroke-miterlimit="10"/>
<path d="M109.65 146.042L112.045 129.464L103.385 128.21L50.7231 120.595L47.2234 144.819L100.058 152.46L109.65 146.042Z" stroke="#46B2C8" stroke-width="0.680618" stroke-miterlimit="10"/>
<path d="M43.0695 144.58L43.446 127.829L34.6998 127.631L-17.623 126.451L-18.1724 150.923L34.3171 152.103L43.0695 144.58Z" stroke="#46B2C8" stroke-width="0.680618" stroke-miterlimit="10"/>
<path d="M23.4538 54.6468L20.6886 38.1182L12.0597 39.5635L-31.9058 46.9322L-27.869 71.0704L16.2693 63.677L23.4538 54.6468Z" stroke="#115766" stroke-width="0.680618" stroke-miterlimit="10"/>
<path d="M50.254 61.9542L59.1175 47.7418L51.6983 43.1093L4.96152 13.9248L-7.98804 34.6906L38.8908 63.9677L50.254 61.9542Z" stroke="#46B2C8" stroke-width="0.680618" stroke-miterlimit="10"/>
<path d="M102.126 51.8121L98.435 35.4688L89.9049 37.402L27.4534 51.5218L32.8418 75.4006L95.4661 61.2376L102.126 51.8121Z" stroke="#115766" stroke-width="0.680618" stroke-miterlimit="10"/>
<path d="M92.5283 78.292V61.541H83.7759H55.6301V86.019H83.9487L92.5283 78.292Z" stroke="#46B2C8" stroke-width="0.680618" stroke-miterlimit="10"/>
<path d="M126.39 86.0677L123.624 69.5391L114.995 70.9844L71.03 78.3531L75.0667 102.491L119.205 95.0979L126.39 86.0677Z" stroke="#115766" stroke-width="0.680618" stroke-miterlimit="10"/>
<path d="M153.19 93.3751L162.053 79.1627L154.628 74.5302L107.897 45.3457L94.9478 66.1115L141.827 95.3887L153.19 93.3751Z" stroke="#46B2C8" stroke-width="0.680618" stroke-miterlimit="10"/>
<path d="M205.062 83.233L201.371 66.8896L192.841 68.8229L130.389 82.9427L135.778 106.821L198.396 92.6585L205.062 83.233Z" stroke="#115766" stroke-width="0.680618" stroke-miterlimit="10"/>
<path d="M156.665 110.793L159.06 94.2085L150.4 92.9608L97.738 85.3389L94.2383 109.564L147.073 117.21L156.665 110.793Z" stroke="#46B2C8" stroke-width="0.680618" stroke-miterlimit="10"/>
<path d="M25.139 187.686L21.448 171.349L12.9178 173.276L-49.5337 187.395L-44.1452 211.274L18.4729 197.111L25.139 187.686Z" stroke="#115766" stroke-width="0.680618" stroke-miterlimit="10"/>
<path d="M11.4425 158.687L8.68349 142.164L0.0546027 143.609L-43.917 150.978L-39.8803 175.116L4.26413 167.723L11.4425 158.687Z" stroke="#115766" stroke-width="0.680618" stroke-miterlimit="10"/>
<path d="M90.1148 155.857L86.43 139.514L77.8936 141.447L15.4421 155.567L20.8367 179.439L83.4549 165.283L90.1148 155.857Z" stroke="#115766" stroke-width="0.680618" stroke-miterlimit="10"/>
<path d="M41.7178 183.418L44.1127 166.833L35.4529 165.58L-17.2093 157.964L-20.709 182.189L32.1261 189.829L41.7178 183.418Z" stroke="#46B2C8" stroke-width="0.680618" stroke-miterlimit="10"/>
<path d="M158.782 150.7L156.017 134.178L147.394 135.623L103.422 142.992L107.459 167.13L151.603 159.737L158.782 150.7Z" stroke="#115766" stroke-width="0.680618" stroke-miterlimit="10"/>
<path d="M237.454 147.872L233.763 131.528L225.233 133.462L162.782 147.581L168.17 171.46L230.795 157.297L237.454 147.872Z" stroke="#115766" stroke-width="0.680618" stroke-miterlimit="10"/>
<path d="M189.057 175.43L191.452 158.846L182.792 157.599L130.13 149.977L126.63 174.201L179.465 181.848L189.057 175.43Z" stroke="#46B2C8" stroke-width="0.680618" stroke-miterlimit="10"/>
<path d="M140.438 177.383L140.814 160.632L132.068 160.44L79.7515 159.261L79.2021 183.726L131.692 184.912L140.438 177.383Z" stroke="#46B2C8" stroke-width="0.680618" stroke-miterlimit="10"/>
<path d="M227.857 174.35V157.599H219.11H190.958V182.077H219.283L227.857 174.35Z" stroke="#46B2C8" stroke-width="0.680618" stroke-miterlimit="10"/>
<path d="M261.718 182.12L258.953 165.598L250.324 167.043L206.358 174.412L210.395 198.55L254.533 191.157L261.718 182.12Z" stroke="#115766" stroke-width="0.680618" stroke-miterlimit="10"/>
<path d="M288.518 189.433L297.381 175.22L289.962 170.588L243.225 141.403L230.276 162.169L277.161 191.44L288.518 189.433Z" stroke="#46B2C8" stroke-width="0.680618" stroke-miterlimit="10"/>
<path d="M340.39 179.292L336.699 162.948L328.169 164.882L265.717 179.001L271.106 202.88L333.73 188.717L340.39 179.292Z" stroke="#115766" stroke-width="0.680618" stroke-miterlimit="10"/>
<path d="M291.993 206.851L294.388 190.267L285.728 189.019L233.066 181.397L229.566 205.622L282.401 213.269L291.993 206.851Z" stroke="#46B2C8" stroke-width="0.680618" stroke-miterlimit="10"/>
<path d="M243.374 208.803L243.75 192.052L235.004 191.86L182.687 190.681L182.132 215.146L234.627 216.332L243.374 208.803Z" stroke="#46B2C8" stroke-width="0.680618" stroke-miterlimit="10"/>
<path d="M189.903 111.102V94.3506H181.151H153.005V118.829H181.323L189.903 111.102Z" stroke="#46B2C8" stroke-width="0.680618" stroke-miterlimit="10"/>
<path d="M223.764 118.871L220.999 102.349L212.37 103.794L168.398 111.163L172.441 135.301L216.58 127.907L223.764 118.871Z" stroke="#115766" stroke-width="0.680618" stroke-miterlimit="10"/>
<path d="M250.564 126.185L259.428 111.972L252.002 107.334L205.266 78.1553L192.322 98.9149L239.201 128.192L250.564 126.185Z" stroke="#46B2C8" stroke-width="0.680618" stroke-miterlimit="10"/>
<path d="M302.437 116.043L298.746 99.6992L290.209 101.633L227.758 115.752L233.152 139.625L295.771 125.468L302.437 116.043Z" stroke="#115766" stroke-width="0.680618" stroke-miterlimit="10"/>
<path d="M292.832 142.521V125.771H284.086H255.94V150.248H284.259L292.832 142.521Z" stroke="#46B2C8" stroke-width="0.680618" stroke-miterlimit="10"/>
<path d="M326.7 150.292L323.934 133.77L315.306 135.215L271.334 142.584L275.377 166.722L319.515 159.328L326.7 150.292Z" stroke="#115766" stroke-width="0.680618" stroke-miterlimit="10"/>
<path d="M353.5 157.606L362.364 143.393L354.938 138.755L308.202 109.576L295.252 130.336L342.137 159.613L353.5 157.606Z" stroke="#46B2C8" stroke-width="0.680618" stroke-miterlimit="10"/>
<path d="M405.372 147.463L401.681 131.12L393.145 133.053L330.693 147.173L336.088 171.046L398.706 156.889L405.372 147.463Z" stroke="#115766" stroke-width="0.680618" stroke-miterlimit="10"/>
<path d="M356.969 175.023L359.364 158.439L350.704 157.185L298.042 149.569L294.542 173.794L347.377 181.435L356.969 175.023Z" stroke="#46B2C8" stroke-width="0.680618" stroke-miterlimit="10"/>
<path d="M9.97973 215.554V198.803H1.22734H-26.9185V223.281H1.40018L9.97973 215.554Z" stroke="#46B2C8" stroke-width="0.680618" stroke-miterlimit="10"/>
<path d="M43.841 223.324L41.0758 206.802L32.4469 208.247L-11.5186 215.616L-7.48187 239.754L36.6564 232.361L43.841 223.324Z" stroke="#115766" stroke-width="0.680618" stroke-miterlimit="10"/>
<path d="M70.6412 230.638L79.5046 216.425L72.0793 211.787L25.3487 182.608L12.3992 203.374L59.2779 232.645L70.6412 230.638Z" stroke="#46B2C8" stroke-width="0.680618" stroke-miterlimit="10"/>
<path d="M74.1163 248.055L76.5112 231.471L67.8514 230.217L15.1892 222.602L11.6895 246.826L64.5245 254.467L74.1163 248.055Z" stroke="#46B2C8" stroke-width="0.680618" stroke-miterlimit="10"/>
<path d="M131.42 227.778L134.79 211.367L126.223 209.607L74.9619 199.051L70.0364 223.028L121.464 233.615L131.42 227.778Z" stroke="#46B2C8" stroke-width="0.680618" stroke-miterlimit="10"/>
<path d="M112.915 246.975V230.224H104.163H76.0173V254.702H104.336L112.915 246.975Z" stroke="#46B2C8" stroke-width="0.680618" stroke-miterlimit="10"/>
<path d="M146.777 254.745L144.012 238.223L135.383 239.668L91.4111 247.037L95.454 271.175L139.592 263.781L146.777 254.745Z" stroke="#115766" stroke-width="0.680618" stroke-miterlimit="10"/>
<path d="M173.577 262.059L182.44 247.846L175.015 243.208L128.278 214.029L115.335 234.795L162.214 264.066L173.577 262.059Z" stroke="#46B2C8" stroke-width="0.680618" stroke-miterlimit="10"/>
<path d="M225.449 251.916L221.758 235.572L213.222 237.506L150.771 251.625L156.165 275.498L218.783 261.341L225.449 251.916Z" stroke="#115766" stroke-width="0.680618" stroke-miterlimit="10"/>
<path d="M177.046 279.476L179.441 262.892L170.787 261.638L118.119 254.022L114.625 278.247L167.454 285.888L177.046 279.476Z" stroke="#46B2C8" stroke-width="0.680618" stroke-miterlimit="10"/>
<path d="M74.9556 183.727V166.976H66.2095H38.0637V191.447H66.3823L74.9556 183.727Z" stroke="#46B2C8" stroke-width="0.680618" stroke-miterlimit="10"/>
<path d="M108.817 191.496L106.052 174.974L97.4291 176.419L53.4575 183.781L57.4942 207.926L101.639 200.532L108.817 191.496Z" stroke="#115766" stroke-width="0.680618" stroke-miterlimit="10"/>
<path d="M187.489 188.668L183.798 172.324L175.268 174.251L112.816 188.377L118.205 212.25L180.829 198.087L187.489 188.668Z" stroke="#115766" stroke-width="0.680618" stroke-miterlimit="10"/>
<path d="M177.891 215.146V198.396H169.145H140.993V222.867H169.318L177.891 215.146Z" stroke="#46B2C8" stroke-width="0.680618" stroke-miterlimit="10"/>
<path d="M211.753 222.917L208.987 206.395L200.358 207.84L156.393 215.202L160.43 239.347L204.568 231.953L211.753 222.917Z" stroke="#115766" stroke-width="0.680618" stroke-miterlimit="10"/>
<path d="M290.425 220.087L286.734 203.744L278.204 205.671L215.752 219.797L221.141 243.67L283.765 229.507L290.425 220.087Z" stroke="#115766" stroke-width="0.680618" stroke-miterlimit="10"/>
<path d="M242.028 247.642L244.423 231.064L235.763 229.81L183.101 222.194L179.601 246.419L232.436 254.06L242.028 247.642Z" stroke="#46B2C8" stroke-width="0.680618" stroke-miterlimit="10"/>
<path d="M185.582 158.013L194.446 143.8L187.027 139.168L140.29 109.983L127.34 130.749L174.225 160.02L185.582 158.013Z" stroke="#46B2C8" stroke-width="0.680618" stroke-miterlimit="10"/>
<path d="M455.985 137.099V120.348H447.239H419.093V144.819H447.412L455.985 137.099Z" stroke="#46B2C8" stroke-width="0.680618" stroke-miterlimit="10"/>
<path d="M489.852 144.869L487.087 128.347L478.458 129.792L434.487 137.155L438.53 161.299L482.668 153.906L489.852 144.869Z" stroke="#115766" stroke-width="0.680618" stroke-miterlimit="10"/>
<path d="M471.508 171.552L471.885 154.801L463.139 154.604L410.816 153.424L410.267 177.896L462.756 179.081L471.508 171.552Z" stroke="#46B2C8" stroke-width="0.680618" stroke-miterlimit="10"/>
<path d="M349.389 -1.25155L351.784 -17.8296L343.131 -19.0834L290.468 -26.6992L286.969 -2.47453L339.798 5.16595L349.389 -1.25155Z" stroke="#46B2C8" stroke-width="0.680618" stroke-miterlimit="10"/>
<path d="M282.808 -2.71538L283.185 -19.4664L274.438 -19.664L222.122 -20.8438L221.566 3.62799L274.062 4.81389L282.808 -2.71538Z" stroke="#46B2C8" stroke-width="0.680618" stroke-miterlimit="10"/>
<path d="M49.4145 4.03549V-12.7217H40.6621H12.5164V11.7563H40.835L49.4145 4.03549Z" stroke="#46B2C8" stroke-width="0.680618" stroke-miterlimit="10"/>
<path d="M83.2758 11.8066L80.5106 -4.71582L71.8817 -3.2705L27.9163 4.09203L31.953 28.2364L76.0912 20.843L83.2758 11.8066Z" stroke="#115766" stroke-width="0.680618" stroke-miterlimit="10"/>
<path d="M110.076 19.1195L118.939 4.90714L111.514 0.268492L64.7835 -28.916L51.834 -8.15024L98.7128 21.1269L110.076 19.1195Z" stroke="#46B2C8" stroke-width="0.680618" stroke-miterlimit="10"/>
<path d="M113.545 36.5306L115.946 19.9526L107.286 18.6988L54.624 11.083L51.1243 35.3077L103.959 42.9482L113.545 36.5306Z" stroke="#46B2C8" stroke-width="0.680618" stroke-miterlimit="10"/>
<path d="M64.9317 38.4887L65.3082 21.7377L56.562 21.5401L4.23928 20.3604L3.68994 44.8321L56.1855 46.0119L64.9317 38.4887Z" stroke="#46B2C8" stroke-width="0.680618" stroke-miterlimit="10"/>
<path d="M152.344 35.4564V18.6992H143.598H115.452V43.1772H143.771L152.344 35.4564Z" stroke="#46B2C8" stroke-width="0.680618" stroke-miterlimit="10"/>
<path d="M186.211 43.2256L183.446 26.7031L174.817 28.1485L130.846 35.511L134.889 59.6554L179.027 52.262L186.211 43.2256Z" stroke="#115766" stroke-width="0.680618" stroke-miterlimit="10"/>
<path d="M213.012 50.5395L221.875 36.3209L214.45 31.6884L167.713 2.50391L154.77 23.2697L201.648 52.5469L213.012 50.5395Z" stroke="#46B2C8" stroke-width="0.680618" stroke-miterlimit="10"/>
<path d="M264.884 40.3908L261.193 24.0537L252.657 25.9808L190.205 40.1067L195.6 63.9793L258.218 49.8164L264.884 40.3908Z" stroke="#115766" stroke-width="0.680618" stroke-miterlimit="10"/>
<path d="M216.481 67.9516L218.876 51.3736L210.222 50.1197L157.554 42.5039L154.06 66.7286L206.889 74.3691L216.481 67.9516Z" stroke="#46B2C8" stroke-width="0.680618" stroke-miterlimit="10"/>
<path d="M167.867 69.9086L168.244 53.1576L159.498 52.96L107.175 51.7803L106.625 76.2521L159.121 77.4318L167.867 69.9086Z" stroke="#46B2C8" stroke-width="0.680618" stroke-miterlimit="10"/>
<path d="M226.924 -22.8572L223.233 -39.1943L214.703 -37.2672L152.251 -23.1475L157.64 0.731319L220.264 -13.4317L226.924 -22.8572Z" stroke="#115766" stroke-width="0.680618" stroke-miterlimit="10"/>
<path d="M217.326 3.62826V-13.1289H208.58H180.428V11.349H208.753L217.326 3.62826Z" stroke="#46B2C8" stroke-width="0.680618" stroke-miterlimit="10"/>
<path d="M251.188 11.3978L248.422 -5.13086L239.794 -3.68553L195.828 3.68316L199.865 27.8214L244.003 20.428L251.188 11.3978Z" stroke="#115766" stroke-width="0.680618" stroke-miterlimit="10"/>
<path d="M329.86 8.56273L326.169 -7.77441L317.639 -5.84731L255.187 8.27243L260.575 32.1512L323.2 17.9883L329.86 8.56273Z" stroke="#115766" stroke-width="0.680618" stroke-miterlimit="10"/>
<path d="M281.463 36.1228L283.858 19.5386L275.198 18.2909L222.536 10.6689L219.036 34.8936L271.871 42.5403L281.463 36.1228Z" stroke="#46B2C8" stroke-width="0.680618" stroke-miterlimit="10"/>
<path d="M398.527 3.41208L395.762 -13.1104L387.133 -11.665L343.167 -4.3025L347.204 19.8419L391.342 12.4423L398.527 3.41208Z" stroke="#115766" stroke-width="0.680618" stroke-miterlimit="10"/>
<path d="M477.199 0.577391L473.508 -15.7598L464.978 -13.8326L402.526 0.287089L407.915 24.1659L470.533 10.0029L477.199 0.577391Z" stroke="#115766" stroke-width="0.680618" stroke-miterlimit="10"/>
<path d="M428.802 28.1371L431.197 11.5591L422.537 10.3052L369.875 2.68945L366.375 26.9141L419.211 34.5546L428.802 28.1371Z" stroke="#46B2C8" stroke-width="0.680618" stroke-miterlimit="10"/>
<path d="M380.183 30.089L380.56 13.3442L371.813 13.1465L319.497 11.9668L318.941 36.4386L371.437 37.6183L380.183 30.089Z" stroke="#46B2C8" stroke-width="0.680618" stroke-miterlimit="10"/>
<path d="M467.601 27.0628V10.3057H458.849H430.703V34.7836H459.022L467.601 27.0628Z" stroke="#46B2C8" stroke-width="0.680618" stroke-miterlimit="10"/>
<path d="M501.463 34.832L498.698 18.3096L490.069 19.7549L446.104 27.1174L450.14 51.2618L494.278 43.8622L501.463 34.832Z" stroke="#115766" stroke-width="0.680618" stroke-miterlimit="10"/>
<path d="M483.119 61.5089L483.495 44.7641L474.749 44.5664L422.426 43.3867L421.877 67.8585L474.373 69.0382L483.119 61.5089Z" stroke="#46B2C8" stroke-width="0.680618" stroke-miterlimit="10"/>
<path d="M249.719 68.2598V51.5088H240.972H212.827V75.9867H241.145L249.719 68.2598Z" stroke="#46B2C8" stroke-width="0.680618" stroke-miterlimit="10"/>
<path d="M283.586 76.0364L280.821 59.5078L272.192 60.9531L228.22 68.3218L232.263 92.46L276.401 85.0666L283.586 76.0364Z" stroke="#115766" stroke-width="0.680618" stroke-miterlimit="10"/>
<path d="M310.386 83.3438L319.25 69.1314L311.825 64.499L265.088 35.3145L252.138 56.0802L299.023 85.3574L310.386 83.3438Z" stroke="#46B2C8" stroke-width="0.680618" stroke-miterlimit="10"/>
<path d="M313.855 100.761L316.25 84.1772L307.59 82.9295L254.928 75.3076L251.428 99.5323L304.263 107.179L313.855 100.761Z" stroke="#46B2C8" stroke-width="0.680618" stroke-miterlimit="10"/>
<path d="M265.242 102.713L265.618 85.9682L256.872 85.7706L204.549 84.5908L204 109.056L256.489 110.242L265.242 102.713Z" stroke="#46B2C8" stroke-width="0.680618" stroke-miterlimit="10"/>
<path d="M371.165 80.4839L374.535 64.0727L365.968 62.3123L314.707 51.7627L309.775 75.7341L361.209 86.3208L371.165 80.4839Z" stroke="#46B2C8" stroke-width="0.680618" stroke-miterlimit="10"/>
<path d="M165.164 14.0611L168.54 -2.34398L159.967 -4.11049L108.712 -14.6602L103.78 9.31128L155.208 19.898L165.164 14.0611Z" stroke="#46B2C8" stroke-width="0.680618" stroke-miterlimit="10"/>
<path d="M352.654 99.6807V82.9297H343.908H315.762V107.408H344.081L352.654 99.6807Z" stroke="#46B2C8" stroke-width="0.680618" stroke-miterlimit="10"/>
<path d="M386.516 107.457L383.757 90.9287L375.128 92.3741L331.156 99.7428L335.193 123.881L379.337 116.488L386.516 107.457Z" stroke="#115766" stroke-width="0.680618" stroke-miterlimit="10"/>
<path d="M413.316 114.764L422.179 100.551L414.76 95.9189L368.023 66.7344L355.074 87.5002L401.959 116.777L413.316 114.764Z" stroke="#46B2C8" stroke-width="0.680618" stroke-miterlimit="10"/>
<path d="M465.188 104.622L461.503 88.2783L452.967 90.2116L390.515 104.331L395.904 128.21L458.528 114.047L465.188 104.622Z" stroke="#115766" stroke-width="0.680618" stroke-miterlimit="10"/>
<path d="M416.791 132.182L419.186 115.598L410.526 114.35L357.864 106.729L354.364 130.953L407.199 138.6L416.791 132.182Z" stroke="#46B2C8" stroke-width="0.680618" stroke-miterlimit="10"/>
<path d="M368.172 134.134L368.554 117.389L359.802 117.191L307.485 116.012L306.936 140.477L359.425 141.663L368.172 134.134Z" stroke="#46B2C8" stroke-width="0.680618" stroke-miterlimit="10"/>
<path d="M314.701 36.4317V19.6807H305.949H277.803V44.1586H306.121L314.701 36.4317Z" stroke="#46B2C8" stroke-width="0.680618" stroke-miterlimit="10"/>
<path d="M348.562 44.2021L345.797 27.6797L337.168 29.125L293.203 36.4937L297.239 60.6319L341.378 53.2385L348.562 44.2021Z" stroke="#115766" stroke-width="0.680618" stroke-miterlimit="10"/>
<path d="M427.234 41.3736L423.543 25.0303L415.013 26.9636L352.562 41.0833L357.95 64.9559L420.568 50.7991L427.234 41.3736Z" stroke="#115766" stroke-width="0.680618" stroke-miterlimit="10"/>
<path d="M417.636 67.8525V51.1016H408.884H380.738V75.5795H409.057L417.636 67.8525Z" stroke="#46B2C8" stroke-width="0.680618" stroke-miterlimit="10"/>
<path d="M451.498 75.623L448.732 59.1006L440.104 60.5459L396.138 67.9146L400.175 92.0529L444.313 84.6594L451.498 75.623Z" stroke="#115766" stroke-width="0.680618" stroke-miterlimit="10"/>
<path d="M481.767 100.354L484.168 83.77L475.508 82.5162L422.846 74.9004L419.346 99.1251L472.181 106.766L481.767 100.354Z" stroke="#46B2C8" stroke-width="0.680618" stroke-miterlimit="10"/>
<path d="M425.327 10.7188L434.19 -3.49356L426.765 -8.12603L380.034 -37.3105L367.085 -16.5448L413.964 12.7324L425.327 10.7188Z" stroke="#46B2C8" stroke-width="0.680618" stroke-miterlimit="10"/>
</g>
</g>
</svg>
