<svg width="639" height="555" viewBox="0 0 639 555" fill="none" xmlns="http://www.w3.org/2000/svg">
<path d="M598.637 63.3113V401.422C598.637 406.577 596.876 411.544 593.719 415.521C592.905 416.547 592.001 417.506 591.005 418.387L576.675 431.095L573.463 433.943H573.457L573.439 433.961L537.906 465.45L524.991 476.89L524.207 477.594L514.887 485.846L508.202 491.778L504.31 495.233L502.822 496.545L498.602 500.285L494.018 504.353L490.247 507.699C490.235 507.699 490.235 507.699 490.235 507.699L489.816 508.069C489.816 508.075 489.804 508.075 489.804 508.075L488.772 508.998L458.898 535.472L446.723 546.262C442.588 549.893 437.281 551.884 431.78 551.884H145.792C133.271 551.884 123.125 541.738 123.125 529.218V63.3113C123.125 50.791 133.271 40.6387 145.792 40.6387H575.965C588.491 40.6387 598.637 50.791 598.637 63.3113Z" fill="#AED9D6"/>
<path d="M322.449 314.312C322.436 314.337 322.424 314.361 322.412 314.385L322.4 314.397C322.418 314.373 322.436 314.343 322.449 314.312Z" fill="#3AB3C6"/>
<path d="M314.701 230.18C313.456 232.621 313.833 235.76 314.968 238.42C315.46 239.58 316.104 240.654 316.814 241.529C320.573 246.125 321.356 252.95 318.727 258.123C316.498 262.507 312.351 264.924 307.051 264.924H306.559C301.258 264.924 297.105 262.507 294.882 258.123C292.247 252.95 293.036 246.125 296.789 241.529C297.505 240.654 298.143 239.58 298.641 238.42C299.776 235.76 300.147 232.621 298.908 230.18C297.961 228.334 295.684 226.124 290.116 226.124C287.894 226.124 285.641 226.458 283.425 226.968C282.684 227.144 281.943 227.339 281.214 227.551C281.208 227.557 281.208 227.557 281.202 227.557C281.202 227.557 281.202 227.557 281.196 227.557C276.326 228.978 271.779 231.194 268.336 232.882C267.783 233.149 267.176 233.435 266.636 233.69L266.107 233.981L266.344 234.546C266.593 235.032 266.86 235.566 267.134 236.082C267.522 236.811 267.935 237.588 268.36 238.42C271.001 243.502 274.104 250.248 274.104 256.69C274.104 260.668 272.768 263.388 270.23 264.578C266.8 266.175 261.912 264.76 259.046 262.611C257.582 261.512 255.906 260.674 254.127 260.097L254.109 260.085C254.109 260.085 254.103 260.085 254.091 260.085C250.114 258.803 245.627 258.864 241.832 260.394C241.82 260.394 241.814 260.4 241.807 260.4C241.807 260.4 241.807 260.4 241.801 260.406C241.558 260.504 241.322 260.607 241.085 260.716C239.245 261.572 237.709 262.744 236.525 264.159C236.519 264.165 236.513 264.171 236.513 264.171L236.507 264.177C235.086 265.883 234.157 267.948 233.799 270.255V270.267C233.689 270.972 233.635 271.7 233.635 272.447V272.915C233.635 274.53 233.89 276.054 234.388 277.444V277.456L234.394 277.469C235.147 279.6 236.446 281.434 238.225 282.873C239.075 283.559 240.028 284.154 241.085 284.646C242.378 285.253 243.775 285.678 245.208 285.927H245.22C247.503 286.321 249.901 286.267 252.197 285.781C254.486 285.307 256.678 284.403 258.56 283.103L258.572 283.097L258.584 283.085C258.742 282.976 258.894 282.867 259.046 282.751C260.485 281.676 262.434 280.784 264.456 280.365C264.674 280.316 264.899 280.274 265.118 280.243L265.263 280.219C267.006 279.97 268.755 280.098 270.23 280.79C272.768 281.974 274.104 284.706 274.104 288.671C274.104 296.158 269.908 304.064 267.134 309.28C266.866 309.796 266.605 310.281 266.356 310.755L266.326 310.816L266.083 311.38L266.593 311.642C267.14 311.903 267.716 312.182 268.336 312.492C271.214 313.894 274.863 315.673 278.834 317.052H278.84C278.84 317.052 278.865 317.058 278.913 317.076C280.383 317.586 281.894 318.035 283.425 318.394C285.641 318.91 287.894 319.238 290.116 319.238C295.684 319.238 297.961 317.027 298.908 315.188C300.687 311.672 299.145 306.711 296.789 303.839C293.036 299.243 292.247 292.424 294.882 287.244C297.105 282.86 301.258 280.438 306.553 280.438H307.051C312.351 280.438 316.498 282.86 318.727 287.244C321.356 292.424 320.573 299.243 316.814 303.839C316.401 304.337 316.019 304.902 315.673 305.515L315.667 305.521C315.667 305.521 315.661 305.533 315.648 305.563C314.015 308.442 313.238 312.303 314.701 315.188C315.642 317.027 317.931 319.238 323.487 319.238C331.448 319.238 339.766 315.175 345.267 312.492C345.887 312.182 347.969 311.18 348.158 311.089V457.708C348.158 462.05 344.636 465.559 340.307 465.559H47.8573C43.522 465.559 40.0002 462.05 40.0002 457.708V9.28894C40.0002 4.67426 43.7709 0.940011 48.3735 1.00073C87.4829 1.42577 251.328 3.07734 276.958 1.45005C279.302 1.30433 281.585 2.13618 283.267 3.77561C294.724 14.9055 335.151 54.2578 345.65 64.4647C347.259 66.0252 348.158 68.1625 348.158 70.4092V234.279C347.945 234.182 345.862 233.168 345.267 232.882C339.766 230.192 331.448 226.124 323.487 226.124C317.931 226.124 315.642 228.334 314.701 230.18Z" fill="#3AB3C6"/>
<g opacity="0.24">
<path opacity="0.24" d="M274.104 288.671C274.104 284.706 272.768 281.974 270.23 280.79C268.755 280.098 267.006 279.97 265.263 280.219L265.117 280.243C264.899 280.274 264.674 280.316 264.456 280.365C262.434 280.784 260.485 281.676 259.045 282.751C258.894 282.866 258.742 282.976 258.584 283.085L258.572 283.097L258.56 283.103C256.677 284.403 254.485 285.307 252.196 285.781C249.901 286.267 247.503 286.321 245.22 285.927H245.208C243.775 285.678 242.378 285.253 241.085 284.645C240.229 284.245 239.445 283.777 238.729 283.255C239.682 284.123 240.775 284.87 242.002 285.477C247.642 288.252 255.087 287.426 260.102 283.48C262.737 281.403 267.218 280.019 270.327 281.543C272.568 282.642 273.758 285.234 273.758 289.041C273.758 293.893 272.07 298.933 270.151 303.323C272.228 298.866 274.104 293.68 274.104 288.671Z" fill="#3C2F4B"/>
<path opacity="0.24" d="M313.274 316.36C314.264 318.407 316.644 320.841 322.357 320.841C330.245 320.841 338.406 316.658 343.81 313.883C344.411 313.573 346.427 312.547 346.615 312.456L346.949 312.286V311.673C346.311 311.982 345.595 312.329 345.273 312.486C339.772 315.17 331.453 319.232 323.493 319.232C321.744 319.232 320.317 319.014 319.158 318.656C317.117 318.152 315.678 317.107 314.925 315.571C314.846 315.443 314.774 315.31 314.707 315.182C313.243 312.298 314.021 308.436 315.654 305.558C315.666 305.528 315.672 305.516 315.672 305.516L315.678 305.51C316.024 304.896 316.407 304.332 316.82 303.834C320.578 299.237 321.362 292.419 318.732 287.239C316.504 282.855 312.357 280.433 307.056 280.433H306.558C301.264 280.433 297.11 282.855 294.888 287.239C292.568 291.793 292.902 297.622 295.574 302.085C293.242 297.744 293 292.194 295.107 287.84C297.165 283.584 301.002 281.234 305.909 281.234H306.388C311.294 281.234 315.132 283.578 317.19 287.84C319.649 292.923 318.915 299.626 315.399 304.137C312.988 307.222 311.434 312.553 313.274 316.36Z" fill="#3C2F4B"/>
<path opacity="0.24" d="M346.603 232.987C346.482 232.926 345.71 232.537 344.988 232.167L343.804 231.566C338.412 228.797 330.257 224.607 322.358 224.607C316.644 224.607 314.264 227.042 313.274 229.089C312.108 231.493 312.193 234.735 313.511 237.99C314.003 239.21 314.652 240.358 315.393 241.311C318.903 245.823 319.638 252.526 317.184 257.608C315.126 261.859 311.289 264.203 306.382 264.203H305.909C301.003 264.203 297.165 261.859 295.107 257.608C292.885 253.024 293.279 247.116 295.957 242.69C292.945 247.225 292.466 253.376 294.888 258.131C297.111 262.515 301.264 264.931 306.565 264.931H307.056C312.357 264.931 316.504 262.515 318.733 258.131C321.362 252.957 320.579 246.132 316.82 241.536C316.11 240.662 315.466 239.587 314.974 238.427C313.839 235.768 313.462 232.628 314.707 230.188C314.829 229.951 314.968 229.714 315.132 229.471C315.733 228.475 316.656 227.716 317.871 227.206C319.219 226.563 321.034 226.131 323.487 226.131C331.447 226.131 339.766 230.2 345.267 232.89C345.577 233.041 346.299 233.387 346.943 233.703V233.157L346.603 232.987Z" fill="#3C2F4B"/>
<path opacity="0.24" d="M242.001 259.964C240.921 260.492 239.949 261.142 239.087 261.877C239.712 261.452 240.368 261.057 241.085 260.723C241.321 260.614 241.558 260.511 241.801 260.414C241.807 260.407 241.807 260.407 241.807 260.407C241.813 260.407 241.819 260.401 241.831 260.401C245.626 258.871 250.114 258.811 254.091 260.092C254.103 260.092 254.109 260.092 254.109 260.092L254.127 260.104C255.906 260.681 257.582 261.519 259.045 262.618C261.911 264.767 266.799 266.182 270.23 264.585C272.768 263.395 274.104 260.675 274.104 256.697C274.104 251.275 271.906 245.64 269.635 240.959C271.772 245.64 273.758 251.154 273.758 256.4C273.758 260.207 272.574 262.8 270.327 263.905C267.218 265.429 262.737 264.045 260.102 261.968C255.099 258.021 247.654 257.195 242.001 259.964Z" fill="#3C2F4B"/>
<path opacity="0.24" d="M55.7142 285.471C60.5293 283.115 63.292 278.549 63.292 272.951V272.477C63.292 266.885 60.5293 262.319 55.7142 259.963C50.9052 257.607 44.7968 257.868 40 260.425V262.525C44.4022 259.775 50.3223 259.356 54.9188 261.603C59.1509 263.679 61.4765 267.541 61.4765 272.483V272.957C61.4765 277.9 59.1448 281.767 54.9188 283.838C50.3223 286.085 44.4022 285.666 40 282.915V285.016C44.809 287.578 50.9113 287.833 55.7142 285.471Z" fill="#3C2F4B"/>
<path opacity="0.24" d="M343.788 74.2659C338.39 71.5032 330.235 67.3257 322.36 67.3257C316.64 67.3257 314.266 69.7606 313.276 71.8007C312.105 74.2052 312.196 77.4537 313.513 80.6961C314.011 81.9287 314.661 83.0763 315.396 84.0175C318.905 88.5289 319.646 95.2263 317.187 100.315C315.128 104.571 311.291 106.915 306.385 106.915H305.911C300.999 106.915 297.162 104.571 295.109 100.315C292.65 95.2324 293.385 88.535 296.894 84.0236C297.623 83.0945 298.273 81.9469 298.783 80.7022C300.1 77.4598 300.191 74.2174 299.026 71.8007C298.036 69.7606 295.656 67.3257 289.942 67.3257C287.878 67.3257 285.704 67.6111 283.293 68.2001C277.652 69.5845 272.358 72.2986 268.496 74.2781C268.144 74.4602 267.767 74.6485 267.397 74.8306C267.233 74.4967 267.057 74.1566 266.875 73.8045C264.203 68.528 260.165 60.5555 260.165 53.0566C260.165 49.2495 261.355 46.6568 263.602 45.5517C266.717 44.0277 271.192 45.406 273.821 47.4826C276.444 49.5471 279.844 50.8222 283.403 51.0711C286.445 51.2776 289.396 50.7311 291.928 49.4863C296.743 47.1243 299.505 42.5643 299.505 36.9721V36.4984C299.505 30.9001 296.743 26.3401 291.928 23.9781C289.396 22.7394 286.445 22.1869 283.403 22.3994C279.856 22.6423 276.45 23.9174 273.827 25.9879C271.192 28.0645 266.717 29.4489 263.608 27.9248C261.361 26.8258 260.171 24.2331 260.171 20.4199C260.171 13.8926 263.232 7.00092 265.788 1.85191C265.126 1.86406 264.446 1.8762 263.742 1.88835C261.203 7.10415 258.356 13.8562 258.356 20.4199C258.356 26.1701 260.778 28.5624 262.813 29.5582C266.583 31.4101 271.884 29.8375 274.956 27.4209C277.288 25.5811 280.318 24.4456 283.494 24.221C286.232 24.0327 288.873 24.5185 291.138 25.6236C295.364 27.7002 297.696 31.568 297.696 36.5106V36.9842C297.696 41.9268 295.37 45.7946 291.138 47.8651C288.873 48.9702 286.226 49.456 283.494 49.2617C280.33 49.0431 277.294 47.9076 274.956 46.0678C271.884 43.6451 266.583 42.0725 262.813 43.9244C260.778 44.9142 258.356 47.3065 258.356 53.0688C258.356 60.9927 262.509 69.2019 265.266 74.6485C265.454 75.0067 265.612 75.3467 265.77 75.6746C265.636 75.7475 265.502 75.8204 265.363 75.8993C265.053 76.0693 264.731 76.2454 264.397 76.4215C262.363 77.4598 259.831 78.7531 257.081 79.925C251.944 82.1109 247.59 83.1674 243.777 83.1674C240.261 83.1674 237.772 82.1291 236.588 80.1922L236.327 79.7185C234.809 76.5794 236.181 72.0679 238.252 69.4145C242.174 64.3869 242.988 56.8941 240.243 51.2047C237.893 46.3593 233.358 43.5783 227.796 43.5783H227.322C221.766 43.5783 217.23 46.3593 214.881 51.2047C212.13 56.9002 212.944 64.3869 216.872 69.4145C218.937 72.0679 220.309 76.5854 218.809 79.6882L218.548 80.1679C217.346 82.1352 214.856 83.1735 211.347 83.1735C207.527 83.1735 203.18 82.1109 198.043 79.9311C195.28 78.7531 192.754 77.4659 190.732 76.4276C190.222 76.1604 189.737 75.9114 189.269 75.6746L189.785 74.6485C192.536 69.2202 196.695 61.0109 196.695 53.0749C196.695 47.3186 194.272 44.9263 192.244 43.9305C188.468 42.0786 183.167 43.6512 180.1 46.0739C175.619 49.6017 168.971 50.3364 163.919 47.8712C159.693 45.8007 157.367 41.9328 157.367 36.9903V36.5167C157.367 31.5741 159.693 27.7063 163.919 25.6297C168.971 23.1584 175.625 23.8991 180.1 27.433C183.173 29.8497 188.474 31.4223 192.244 29.5703C194.278 28.5745 196.695 26.1761 196.695 20.4321C196.695 13.9533 193.926 7.30452 191.419 2.12515C190.745 2.12515 190.065 2.11908 189.391 2.11908C191.923 7.2438 194.88 14.008 194.88 20.4321C194.88 24.2392 193.696 26.8319 191.449 27.937C188.334 29.4611 183.859 28.0766 181.224 26C176.214 22.0533 168.776 21.2275 163.123 23.9963C158.308 26.3583 155.546 30.9244 155.546 36.5167V36.9903C155.546 42.5825 158.308 47.1426 163.123 49.5045C168.77 52.2734 176.214 51.4476 181.224 47.5008C183.853 45.4242 188.334 44.0459 191.449 45.5699C193.696 46.6689 194.88 49.2677 194.88 53.0749C194.88 60.5737 190.836 68.5462 188.164 73.8227C187.982 74.1809 187.812 74.527 187.642 74.8549C187.29 74.6788 186.913 74.4845 186.512 74.272C181.115 71.5093 172.96 67.3379 165.097 67.3379C159.383 67.3379 157.003 69.7727 156.013 71.8129C154.847 74.2234 154.932 77.4659 156.256 80.7083C156.76 81.947 157.41 83.0946 158.138 84.0296C161.648 88.5411 162.383 95.2384 159.923 100.327C157.865 104.583 154.028 106.927 149.121 106.927H148.648C143.736 106.927 139.898 104.583 137.846 100.327C135.387 95.2445 136.121 88.5411 139.631 84.0357C140.36 83.1128 141.009 81.9591 141.519 80.7143C142.837 77.4659 142.922 74.2234 141.756 71.8189C140.766 69.7788 138.386 67.3439 132.666 67.3439C130.608 67.3439 128.434 67.6293 126.024 68.2183C120.389 69.5966 115.088 72.3108 111.22 74.2963C110.868 74.4785 110.486 74.6667 110.121 74.8489C109.957 74.5149 109.787 74.1749 109.605 73.8227C106.934 68.5462 102.896 60.5737 102.896 53.0749C102.896 49.2677 104.08 46.6689 106.326 45.5699C109.441 44.0398 113.922 45.4242 116.552 47.5008C119.175 49.5653 122.575 50.8404 126.133 51.0893C129.175 51.2958 132.12 50.7493 134.658 49.5045C139.473 47.1426 142.236 42.5825 142.236 36.9903V36.5167C142.236 30.9183 139.473 26.3583 134.658 23.9963C132.12 22.7576 129.181 22.2111 126.133 22.4176C122.587 22.6605 119.187 23.9295 116.552 26.0061C113.916 28.0827 109.435 29.4671 106.326 27.9431C104.08 26.844 102.896 24.2513 102.896 20.4381C102.896 13.7954 106.059 6.79448 108.64 1.60904C107.966 1.60296 107.292 1.59689 106.618 1.59082C104.037 6.84305 101.074 13.7347 101.074 20.4321C101.074 26.1822 103.497 28.5745 105.525 29.5703C109.302 31.4223 114.602 29.8497 117.675 27.433C120.006 25.5932 123.036 24.4578 126.206 24.2331C128.944 24.0449 131.586 24.5306 133.844 25.6357C138.07 27.7123 140.402 31.5802 140.402 36.5227V36.9963C140.402 41.9389 138.077 45.8067 133.85 47.8773C131.586 48.9824 128.944 49.4681 126.212 49.2738C123.042 49.0552 120.013 47.9198 117.675 46.08C114.602 43.6573 109.302 42.0786 105.525 43.9366C103.491 44.9263 101.068 47.3186 101.068 53.0809C101.068 60.9987 105.221 69.208 107.978 74.6545C108.16 75.0128 108.324 75.3589 108.482 75.6868C108.36 75.7536 108.239 75.8204 108.118 75.8872C107.796 76.0632 107.462 76.2454 107.104 76.4276C105.191 77.4112 102.568 78.7531 99.7929 79.9311C94.6561 82.117 90.3085 83.1735 86.4893 83.1735C82.9736 83.1735 80.4841 82.1352 79.3001 80.1982L79.039 79.7246C77.521 76.5854 78.8933 72.074 80.9638 69.4205C84.8863 64.3808 85.6999 56.8941 82.9494 51.2108C80.5874 46.3471 76.0577 43.5662 70.4897 43.5662H70.0161C64.4542 43.5662 59.9185 46.3471 57.5747 51.1925C54.8241 56.888 55.6438 64.3747 59.5663 69.4023C61.6307 72.0558 63.003 76.5672 61.5032 79.676L61.2421 80.1557C60.0399 82.123 57.5504 83.1613 54.0408 83.1613C50.2216 83.1613 45.874 82.0988 40.7433 79.9189C40.4943 79.8157 40.2514 79.7064 40.0085 79.5971V81.5766C45.3761 83.8596 49.9848 84.989 54.0469 84.989C59.5906 84.989 61.9768 82.6938 63.003 80.7629L63.1305 80.514C64.9703 76.7069 63.4098 71.3818 61.0053 68.2972C57.4958 63.7858 56.761 57.0823 59.2202 52.0001C61.2786 47.7437 65.116 45.3999 70.0222 45.3999H70.4958C75.4019 45.3999 79.2394 47.7437 81.3039 52.0001C83.763 57.0823 83.0283 63.7797 79.5126 68.2972C77.1081 71.3818 75.5476 76.7129 77.3996 80.5322L77.521 80.769C78.5472 82.6938 80.9395 84.9951 86.4772 84.9951C90.855 84.9951 95.8644 83.7018 101.778 81.0422C104.025 80.0343 106.047 79.0081 107.917 78.0427L108.725 77.6298C108.907 77.5387 109.089 77.4476 109.265 77.3566C109.429 77.6905 109.599 78.0366 109.769 78.3706L109.848 78.5224C110.2 79.2206 110.577 79.9675 110.959 80.7508C113.528 85.9544 116.479 92.7429 116.479 99.1306C116.479 102.938 115.295 105.536 113.048 106.635C109.933 108.16 105.458 106.781 102.823 104.705C97.8135 100.752 90.3753 99.926 84.7224 102.701C79.9073 105.057 77.1446 109.623 77.1446 115.221V115.689C77.1446 121.281 79.9073 125.847 84.7224 128.215C90.3693 130.984 97.8135 130.152 102.823 126.211C105.452 124.135 109.933 122.75 113.048 124.274C115.289 125.374 116.479 127.972 116.479 131.779C116.479 139.272 112.441 147.257 109.763 152.533L109.247 153.553C108.822 153.335 108.379 153.11 107.905 152.867C102.507 150.098 94.3464 145.915 86.4711 145.915C80.7513 145.915 78.3711 148.35 77.3874 150.39C75.5476 154.191 77.1081 159.528 79.5126 162.613C83.0222 167.118 83.7569 173.822 81.3039 178.91C79.2394 183.166 75.4019 185.51 70.4958 185.51H70.0222C65.116 185.51 61.2786 183.166 59.2202 178.916C56.761 173.828 57.4958 167.124 61.0053 162.619C63.4038 159.534 64.9642 154.203 63.1305 150.396C62.1408 148.356 59.7667 145.921 54.0469 145.921C49.244 145.921 44.3378 147.475 40.0085 149.321V151.307C44.3318 149.406 49.2865 147.743 54.0469 147.743C56.6821 147.743 60.1188 148.344 61.4972 151.191C63.0091 154.331 61.6368 158.842 59.5784 161.496C55.6499 166.523 54.8302 174.01 57.5868 179.699C59.9306 184.551 64.4663 187.332 70.0283 187.332H70.5019C76.0638 187.332 80.5995 184.551 82.9372 179.699C85.6939 174.016 84.8742 166.535 80.9517 161.496C78.8872 158.842 77.5089 154.325 79.0329 151.191C80.4052 148.338 83.8419 147.743 86.4832 147.743C93.9274 147.743 101.851 151.805 107.097 154.495L108.452 155.187C108.3 155.496 108.136 155.812 107.96 156.152C105.209 161.587 101.056 169.796 101.056 177.708C101.056 183.458 103.479 185.856 105.507 186.852C109.289 188.71 114.59 187.137 117.657 184.715C119.988 182.875 123.018 181.739 126.194 181.515C128.92 181.32 131.561 181.8 133.832 182.911C138.058 184.988 140.39 188.85 140.39 193.792V194.266C140.39 199.208 138.064 203.076 133.838 205.147C131.567 206.252 128.92 206.738 126.2 206.543C123.024 206.325 119.994 205.189 117.663 203.343C114.59 200.927 109.283 199.354 105.513 201.206C103.479 202.196 101.056 204.588 101.056 210.344C101.056 218.262 105.209 226.465 107.966 231.918C108.148 232.282 108.312 232.628 108.47 232.956C108.403 232.993 108.336 233.029 108.269 233.066C107.899 233.272 107.51 233.485 107.091 233.697C104.729 234.911 102.392 236.095 99.7808 237.207C94.6318 239.393 90.2782 240.449 86.4772 240.449C82.9676 240.449 80.4781 239.411 79.288 237.474L79.0208 236.988C77.5089 233.855 78.8872 229.35 80.9517 226.696C84.8742 221.656 85.6878 214.17 82.9372 208.486C80.5934 203.635 76.0638 200.854 70.5019 200.854H70.0283C64.4663 200.854 59.9367 203.635 57.5868 208.486C54.8362 214.176 55.656 221.669 59.5784 226.696C61.6429 229.35 63.0152 233.861 61.5154 236.97L61.2543 237.449C60.052 239.417 57.5625 240.455 54.0469 240.455C50.2398 240.455 45.8923 239.393 40.7493 237.213C40.5004 237.103 40.2575 236.994 40.0146 236.885V238.87C45.4004 241.159 50.009 242.283 54.053 242.283C59.5966 242.283 61.9829 239.982 63.0091 238.045L63.1366 237.796C64.9764 233.988 63.4159 228.663 61.0114 225.579C57.5018 221.067 56.7671 214.364 59.2263 209.288C61.2846 205.031 65.1221 202.688 70.0283 202.688H70.5019C75.408 202.688 79.2455 205.031 81.3099 209.288C83.7691 214.364 83.0344 221.067 79.5187 225.579C77.1142 228.663 75.5537 233.995 77.3996 237.808L77.5271 238.057C78.5593 239.988 80.9517 242.283 86.4832 242.283C90.8429 242.283 95.8522 240.989 101.791 238.324C104.037 237.316 106.059 236.29 107.929 235.324L108.476 235.045C108.749 234.905 109.016 234.772 109.277 234.638C109.441 234.972 109.611 235.318 109.781 235.658L110.018 236.12C110.322 236.727 110.65 237.364 110.977 238.032C113.546 243.23 116.497 250.018 116.497 256.412C116.497 260.219 115.313 262.812 113.066 263.917C109.951 265.441 105.47 264.057 102.841 261.98C97.8378 258.033 90.3936 257.208 84.7406 259.976C79.9255 262.338 77.1628 266.898 77.1628 272.491V272.964C77.1628 278.563 79.9255 283.129 84.7406 285.485C90.3814 288.26 97.8256 287.434 102.841 283.487C105.47 281.41 109.951 280.026 113.066 281.55C115.307 282.649 116.497 285.242 116.497 289.049C116.497 296.566 112.459 304.532 109.781 309.803L109.271 310.823L107.935 310.143C102.537 307.374 94.3707 303.19 86.4893 303.19C80.7695 303.19 78.3893 305.625 77.4057 307.665C75.5659 311.46 77.1264 316.792 79.5308 319.882C83.0404 324.394 83.7751 331.097 81.3221 336.179C79.2576 340.436 75.4201 342.78 70.514 342.78H70.0404C65.1343 342.78 61.2968 340.436 59.2384 336.185C56.7793 331.103 57.514 324.406 61.0236 319.888C63.428 316.804 64.9885 311.473 63.1487 307.672C62.159 305.631 59.7849 303.197 54.0651 303.197C49.2561 303.197 44.35 304.751 40.0268 306.591V308.576C44.35 306.676 49.3047 305.012 54.0651 305.012C56.7003 305.012 60.137 305.613 61.5154 308.467C63.0273 311.606 61.655 316.118 59.5966 318.765C55.6681 323.793 54.8484 331.279 57.605 336.969C59.9549 341.82 64.4906 344.601 70.0465 344.601H70.5201C76.082 344.601 80.6116 341.82 82.9554 336.969C85.7121 331.285 84.8924 323.805 80.9699 318.765C78.9054 316.112 77.5271 311.6 79.0512 308.461C80.4234 305.607 83.8601 305.006 86.5014 305.006C93.9578 305.006 101.876 309.074 107.116 311.764L107.972 312.195C108.142 312.28 108.306 312.365 108.47 312.45C108.318 312.76 108.154 313.082 107.978 313.428C105.233 318.856 101.08 327.059 101.08 334.983C101.08 340.739 103.503 343.126 105.531 344.115C109.308 345.973 114.608 344.401 117.687 341.978C120.025 340.132 123.055 338.997 126.224 338.778C128.956 338.584 131.604 339.07 133.863 340.169C138.089 342.245 140.42 346.113 140.42 351.056V351.523C140.42 356.466 138.095 360.334 133.863 362.41C131.604 363.515 128.956 364.001 126.224 363.813C123.048 363.582 120.019 362.447 117.687 360.613C114.621 358.19 109.314 356.618 105.537 358.476C103.503 359.465 101.08 361.858 101.08 367.614C101.08 375.538 105.239 383.753 107.99 389.194C108.172 389.552 108.336 389.898 108.494 390.226C108.373 390.293 108.257 390.353 108.136 390.42C107.814 390.596 107.48 390.778 107.122 390.967C105.082 392.011 102.537 393.316 99.8111 394.476C94.6621 396.662 90.3146 397.719 86.5075 397.719C82.9919 397.719 80.5024 396.68 79.3183 394.743L79.0572 394.27C77.5332 391.13 78.9115 386.619 80.982 383.966C84.9045 378.926 85.7182 371.439 82.9676 365.756C80.6238 360.91 76.0941 358.129 70.5322 358.129H70.0586C64.4967 358.129 59.961 360.91 57.6172 365.756C54.8666 371.445 55.6863 378.932 59.6088 383.966C61.6733 386.619 63.0455 391.13 61.5457 394.239L61.2846 394.719C60.0824 396.686 57.5929 397.725 54.0833 397.725C50.2762 397.725 45.9226 396.662 40.7858 394.482C40.5368 394.379 40.2939 394.27 40.051 394.16V396.14C45.4308 398.423 50.0394 399.552 54.0894 399.552C59.6331 399.552 62.0194 397.257 63.0455 395.32L63.173 395.071C65.0128 391.27 63.4523 385.939 61.0478 382.848C57.5383 378.343 56.8035 371.646 59.2627 366.563C61.3211 362.307 65.1585 359.963 70.0647 359.963H70.5383C75.4444 359.963 79.2819 362.307 81.3464 366.563C83.8055 371.646 83.0708 378.343 79.5551 382.848C77.1567 385.939 75.5962 391.27 77.436 395.083L77.5635 395.332C78.5958 397.257 80.982 399.558 86.5197 399.558C90.8854 399.558 95.8947 398.265 101.821 395.599C104.068 394.591 106.09 393.565 107.96 392.6L108.591 392.278C108.834 392.151 109.071 392.029 109.308 391.914C109.472 392.248 109.642 392.594 109.812 392.934L109.97 393.256C110.297 393.905 110.643 394.591 111.002 395.32C113.57 400.518 116.521 407.306 116.521 413.7C116.521 417.507 115.337 420.1 113.09 421.205C109.97 422.729 105.494 421.344 102.865 419.268C97.856 415.321 90.4178 414.495 84.7649 417.264C79.9498 419.626 77.1871 424.186 77.1871 429.778V430.258C77.1871 435.85 79.9498 440.416 84.7649 442.778C90.4178 445.547 97.8621 444.721 102.865 440.775C105.501 438.698 109.982 437.314 113.09 438.844C115.331 439.943 116.521 442.536 116.521 446.343C116.521 453.161 113.182 460.375 110.571 465.585H112.599C115.112 460.515 118.337 453.253 118.337 446.343C118.337 440.593 115.92 438.2 113.892 437.21C110.115 435.352 104.808 436.925 101.736 439.348C97.2549 442.882 90.6061 443.622 85.5542 441.151C81.3281 439.075 78.9965 435.213 78.9965 430.27V429.791C78.9965 424.854 81.3221 420.986 85.5542 418.91C90.6 416.438 97.2549 417.179 101.736 420.707C104.802 423.13 110.103 424.702 113.892 422.844C115.92 421.848 118.343 419.462 118.343 413.706C118.343 407.003 115.361 400.074 112.763 394.792C112.319 393.887 111.882 393.019 111.481 392.217L110.911 391.082C111.287 390.894 111.67 390.693 112.076 390.487C115.817 388.568 120.942 385.939 126.339 384.591C128.665 384.014 130.742 383.735 132.691 383.735C136.474 383.735 139.048 384.925 140.141 387.178C141.1 389.175 140.961 392.029 139.765 394.816C139.34 395.8 138.805 396.723 138.216 397.482C134.294 402.521 133.474 410.008 136.225 415.691C138.574 420.537 143.11 423.318 148.672 423.318H149.146C154.708 423.318 159.237 420.537 161.587 415.691C164.338 410.002 163.518 402.515 159.596 397.482C159 396.717 158.466 395.794 158.053 394.81C156.857 392.017 156.711 389.163 157.671 387.172C158.764 384.919 161.338 383.723 165.121 383.723C172.547 383.723 180.465 387.773 185.741 390.475C186.142 390.681 186.531 390.881 186.901 391.07L186.373 392.108C186.009 392.837 185.614 393.62 185.207 394.44L185.037 394.78C182.438 400.068 179.463 406.996 179.463 413.694C179.463 419.45 181.886 421.842 183.914 422.832C187.697 424.684 192.997 423.111 196.064 420.695C200.545 417.161 207.2 416.42 212.245 418.891C216.471 420.968 218.803 424.83 218.803 429.772V430.252C218.803 435.195 216.471 439.062 212.245 441.133C207.2 443.604 200.545 442.863 196.064 439.33C192.991 436.913 187.684 435.34 183.914 437.192C181.886 438.182 179.463 440.574 179.463 446.331C179.463 453.246 182.687 460.502 185.201 465.573H187.235C184.618 460.351 181.285 453.143 181.285 446.331C181.285 442.523 182.469 439.931 184.715 438.832C187.824 437.308 192.305 438.686 194.94 440.763C199.944 444.709 207.388 445.535 213.041 442.766C217.856 440.404 220.619 435.844 220.619 430.252V429.772C220.619 424.18 217.856 419.614 213.041 417.252C207.394 414.489 199.95 415.309 194.94 419.256C192.311 421.332 187.83 422.711 184.715 421.193C182.469 420.094 181.285 417.495 181.285 413.688C181.285 407.3 184.235 400.512 186.81 395.308C187.15 394.61 187.49 393.948 187.806 393.316L188 392.928C188.182 392.569 188.358 392.223 188.528 391.883C188.972 392.108 189.433 392.345 189.919 392.594C191.795 393.559 193.817 394.585 196.058 395.593C201.99 398.253 206.999 399.552 211.365 399.552C216.903 399.552 219.295 397.257 220.327 395.314L220.449 395.071C222.282 391.276 220.722 385.939 218.323 382.848C214.814 378.343 214.079 371.64 216.538 366.563C218.603 362.307 222.44 359.963 227.34 359.963H227.814C232.72 359.963 236.557 362.307 238.622 366.563C241.081 371.646 240.346 378.343 236.831 382.848C234.432 385.939 232.872 391.27 234.718 395.089L234.845 395.326C235.877 397.251 238.264 399.552 243.795 399.552C248.161 399.552 253.17 398.259 259.103 395.593C261.343 394.585 263.365 393.559 265.241 392.594L265.527 392.448C265.891 392.26 266.249 392.078 266.589 391.908C266.753 392.242 266.923 392.588 267.093 392.928L267.379 393.492C267.67 394.069 267.974 394.676 268.283 395.308C270.852 400.506 273.803 407.3 273.803 413.688C273.803 417.495 272.619 420.088 270.372 421.193C267.257 422.717 262.776 421.332 260.147 419.256C255.138 415.309 247.693 414.489 242.046 417.252C237.231 419.614 234.469 424.174 234.469 429.766V430.246C234.469 435.838 237.231 440.404 242.053 442.766C247.706 445.535 255.15 444.709 260.153 440.763C262.794 438.686 267.275 437.308 270.378 438.832C272.619 439.931 273.809 442.523 273.809 446.331C273.809 453.143 270.469 460.363 267.864 465.573H269.892C272.485 460.332 275.63 453.265 275.63 446.331C275.63 440.58 273.214 438.188 271.186 437.198C267.409 435.346 262.108 436.913 259.03 439.336C254.555 442.87 247.9 443.604 242.848 441.139C238.622 439.062 236.29 435.201 236.29 430.258V429.778C236.29 424.842 238.616 420.974 242.848 418.897C247.9 416.426 254.549 417.167 259.03 420.695C262.102 423.117 267.403 424.69 271.186 422.832C273.214 421.836 275.63 419.444 275.63 413.694C275.63 406.984 272.649 400.062 270.05 394.78C269.589 393.839 269.14 392.94 268.721 392.114L268.642 391.956C268.49 391.653 268.344 391.355 268.198 391.07C268.569 390.881 268.957 390.681 269.358 390.475C273.105 388.556 278.235 385.921 283.615 384.579C285.941 384.002 288.023 383.723 289.972 383.723C293.749 383.723 296.324 384.913 297.417 387.165C298.382 389.169 298.242 392.023 297.04 394.81C296.615 395.806 296.081 396.729 295.498 397.476C291.575 402.509 290.756 409.996 293.506 415.685C295.856 420.531 300.392 423.312 305.948 423.312H306.421C311.983 423.312 316.513 420.531 318.863 415.685C321.613 410.002 320.8 402.515 316.877 397.476C316.282 396.711 315.748 395.788 315.335 394.804C314.139 392.011 313.993 389.157 314.952 387.165C316.045 384.913 318.62 383.717 322.403 383.717C329.841 383.717 337.759 387.779 343.017 390.469C343.369 390.651 344.274 391.106 345.015 391.489C345.543 391.756 345.986 391.981 346.101 392.041L346.988 392.503V390.444L346.648 390.28C346.441 390.177 344.426 389.151 343.849 388.853C338.451 386.085 330.29 381.895 322.403 381.895C316.683 381.895 314.309 384.33 313.319 386.376C312.153 388.781 312.238 392.023 313.556 395.272C314.048 396.492 314.697 397.64 315.438 398.593C318.948 403.104 319.688 409.802 317.229 414.89C315.171 419.146 311.333 421.484 306.427 421.484H305.954C301.042 421.484 297.21 419.14 295.152 414.89C292.693 409.808 293.427 403.11 296.937 398.593C297.666 397.658 298.315 396.51 298.825 395.272C300.143 392.029 300.234 388.781 299.068 386.376C298.078 384.33 295.698 381.895 289.985 381.895C287.932 381.895 285.758 382.18 283.336 382.775C277.616 384.178 272.151 386.989 268.538 388.853C268.18 389.036 267.804 389.224 267.439 389.406C267.275 389.078 267.105 388.738 266.923 388.38C264.252 383.097 260.214 375.119 260.214 367.626C260.214 363.819 261.404 361.226 263.65 360.121C266.759 358.597 271.24 359.981 273.87 362.058C276.499 364.129 279.905 365.398 283.445 365.634C286.487 365.847 289.438 365.3 291.97 364.062C296.785 361.7 299.548 357.134 299.548 351.541V351.074C299.548 345.475 296.785 340.909 291.97 338.553C289.438 337.315 286.493 336.768 283.445 336.969C279.899 337.212 276.493 338.487 273.87 340.557C271.234 342.634 266.753 344.024 263.65 342.494C261.404 341.395 260.214 338.802 260.214 334.995C260.214 327.503 264.252 319.518 266.923 314.241C267.087 313.92 267.245 313.616 267.397 313.312C267.707 313.47 268.022 313.634 268.356 313.804L268.581 313.92C272.455 315.899 277.756 318.613 283.348 319.979C285.771 320.568 287.944 320.86 289.997 320.86C295.704 320.86 298.091 318.425 299.08 316.379C300.021 314.436 300.07 312.098 299.578 309.864C299.906 311.722 299.785 313.616 298.977 315.213C298.03 317.053 295.753 319.263 290.185 319.263C287.963 319.263 285.71 318.935 283.494 318.419C281.963 318.061 280.452 317.611 278.982 317.101C278.934 317.083 278.909 317.077 278.909 317.077H278.903C274.932 315.699 271.283 313.92 268.405 312.517C267.785 312.207 267.209 311.928 266.662 311.667L266.152 311.406L266.395 310.841L266.425 310.78C266.431 310.774 266.431 310.762 266.438 310.756C266.061 310.562 265.672 310.367 265.266 310.161C259.868 307.392 251.713 303.209 243.82 303.209C238.094 303.209 235.72 305.644 234.736 307.684C232.896 311.479 234.457 316.81 236.861 319.9C240.371 324.418 241.111 331.115 238.652 336.198C236.588 340.454 232.744 342.798 227.844 342.798H227.371C222.464 342.798 218.627 340.454 216.569 336.204C214.116 331.121 214.85 324.424 218.354 319.907C220.758 316.816 222.319 311.485 220.479 307.69C219.495 305.65 217.115 303.215 211.395 303.215C203.508 303.215 195.347 307.398 189.949 310.167L189.33 310.483C189.069 310.616 188.808 310.75 188.559 310.871C188.492 310.732 188.419 310.592 188.346 310.453L188.03 309.821C185.359 304.551 181.315 296.59 181.315 289.067C181.315 285.26 182.499 282.667 184.746 281.568C187.86 280.044 192.342 281.429 194.971 283.505C199.986 287.452 207.43 288.278 213.071 285.503C217.886 283.147 220.649 278.581 220.649 272.983V272.509C220.649 266.917 217.886 262.351 213.071 259.989C207.418 257.22 199.98 258.046 194.971 261.992C192.335 264.069 187.854 265.453 184.746 263.929C182.499 262.824 181.315 260.231 181.315 256.424C181.315 250.037 184.266 243.248 186.84 238.045C187.156 237.395 187.472 236.776 187.769 236.193L188.559 234.626C188.723 234.711 188.887 234.79 189.051 234.881C189.342 235.033 189.646 235.185 189.949 235.336C191.825 236.302 193.847 237.328 196.088 238.336C202.026 241.002 207.036 242.295 211.395 242.295C216.933 242.295 219.325 239.994 220.357 238.057L220.479 237.814C222.319 234.013 220.758 228.682 218.354 225.597C214.844 221.086 214.109 214.382 216.569 209.306C218.627 205.05 222.464 202.706 227.371 202.706H227.844C232.75 202.706 236.588 205.05 238.652 209.306C241.111 214.382 240.371 221.08 236.861 225.597C234.457 228.682 232.896 234.013 234.748 237.838L234.876 238.075C235.908 240.006 238.294 242.301 243.826 242.301C248.185 242.301 253.195 241.008 259.133 238.342C261.374 237.334 263.395 236.308 265.272 235.343L265.679 235.136C265.958 234.99 266.225 234.857 266.492 234.723C266.468 234.681 266.444 234.632 266.419 234.584L266.182 234.019L266.711 233.727C267.251 233.472 267.858 233.187 268.411 232.92C271.854 231.232 276.402 229.016 281.271 227.595C281.277 227.595 281.277 227.595 281.277 227.595C281.283 227.595 281.283 227.595 281.289 227.589C282.018 227.376 282.759 227.182 283.5 227.006C285.716 226.496 287.969 226.162 290.191 226.162C295.759 226.162 298.036 228.372 298.983 230.218C299.851 231.924 299.924 233.976 299.505 235.962C300.131 233.436 300.003 231.013 299.086 229.113C298.097 227.066 295.71 224.632 290.003 224.632C287.95 224.632 285.777 224.917 283.354 225.512C277.646 226.909 272.175 229.732 268.557 231.59C268.198 231.772 267.822 231.96 267.452 232.143C267.288 231.809 267.111 231.469 266.929 231.11C264.258 225.828 260.22 217.849 260.22 210.363C260.22 206.555 261.41 203.963 263.657 202.864C266.765 201.334 271.24 202.718 273.876 204.795C276.499 206.865 279.899 208.134 283.451 208.377C286.493 208.59 289.438 208.043 291.976 206.798C296.791 204.436 299.554 199.87 299.554 194.278V193.804C299.554 188.212 296.791 183.646 291.976 181.29C289.444 180.051 286.499 179.499 283.451 179.705C279.905 179.948 276.499 181.223 273.876 183.294C271.246 185.37 266.765 186.755 263.657 185.231C261.41 184.132 260.22 181.533 260.22 177.726C260.22 170.227 264.258 162.255 266.929 156.978C267.093 156.656 267.251 156.347 267.403 156.049C267.713 156.207 268.028 156.371 268.362 156.541L268.551 156.638C272.418 158.623 277.713 161.338 283.348 162.716C285.752 163.305 287.926 163.596 289.997 163.596C295.71 163.596 298.091 161.162 299.08 159.115C300.914 155.314 299.354 149.983 296.955 146.899C293.446 142.387 292.711 135.684 295.17 130.601C297.228 126.345 301.066 124.001 305.972 124.001H306.452C311.358 124.001 315.195 126.345 317.254 130.601C319.713 135.69 318.978 142.387 315.462 146.899C313.058 149.983 311.503 155.314 313.343 159.115C314.333 161.162 316.707 163.596 322.427 163.596C330.314 163.596 338.475 159.413 343.879 156.638C344.231 156.456 345.081 156.025 345.755 155.679C346.229 155.442 346.611 155.241 346.69 155.205L347.018 155.035V152.989L346.132 153.444C346.029 153.499 345.652 153.693 345.185 153.924C344.42 154.312 343.418 154.822 343.041 155.017C337.795 157.707 329.871 161.769 322.433 161.769C318.656 161.769 316.082 160.573 314.989 158.314C313.471 155.181 314.849 150.669 316.914 148.016C320.836 142.976 321.656 135.489 318.899 129.806C316.555 124.961 312.026 122.18 306.458 122.18H305.978C300.422 122.18 295.886 124.961 293.537 129.806C290.786 135.489 291.6 142.976 295.528 148.016C297.593 150.675 298.965 155.187 297.447 158.32C296.354 160.579 293.779 161.775 290.003 161.775C288.048 161.775 285.965 161.496 283.645 160.913C278.296 159.577 273.153 156.948 269.388 155.017C268.982 154.81 268.599 154.61 268.223 154.422C268.302 154.264 268.387 154.1 268.466 153.936L268.745 153.377C271.495 147.943 275.655 139.734 275.655 131.804C275.655 126.047 273.238 123.655 271.21 122.665C267.433 120.813 262.126 122.386 259.054 124.803C254.585 128.337 247.93 129.071 242.872 126.606C238.646 124.53 236.315 120.668 236.315 115.719V115.252C236.315 110.309 238.64 106.447 242.872 104.371C247.924 101.899 254.579 102.64 259.054 106.168C262.126 108.591 267.433 110.163 271.21 108.305C273.238 107.309 275.655 104.917 275.655 99.167C275.655 92.4575 272.673 85.5355 270.075 80.2529C269.613 79.3117 269.164 78.4131 268.745 77.5934C268.563 77.2291 268.393 76.883 268.223 76.5429C268.599 76.3547 268.982 76.1604 269.382 75.9479C273.135 74.0231 278.278 71.3939 283.645 70.052C285.922 69.4812 288.06 69.1959 290.003 69.1959C293.779 69.1959 296.36 70.386 297.447 72.6447C298.412 74.6424 298.273 77.4962 297.07 80.2772C296.645 81.273 296.111 82.1959 295.528 82.9488C291.606 87.9825 290.786 95.4692 293.537 101.153C295.886 106.004 300.422 108.785 305.978 108.785H306.452C312.014 108.785 316.549 106.004 318.893 101.153C321.644 95.4692 320.83 87.9825 316.908 82.9488C316.312 82.1777 315.778 81.2548 315.365 80.2711C314.163 77.4841 314.023 74.6303 314.983 72.6387C316.076 70.3799 318.65 69.1898 322.427 69.1898C329.877 69.1898 337.801 73.2519 343.041 75.9357C343.442 76.1482 344.559 76.7129 345.342 77.1076C345.731 77.3019 346.041 77.4598 346.132 77.5084L347.018 77.9638V75.9114L346.356 75.5775C345.64 75.2132 344.268 74.5149 343.788 74.2659ZM111.415 153.286C114.159 147.864 118.3 139.661 118.3 131.755C118.3 125.999 115.884 123.607 113.849 122.617C110.067 120.759 104.766 122.338 101.693 124.754C97.2245 128.288 90.5696 129.029 85.5117 126.558C81.2856 124.481 78.954 120.619 78.954 115.671V115.203C78.954 110.26 81.2796 106.399 85.5117 104.322C90.5636 101.851 97.2184 102.585 101.693 106.119C104.766 108.542 110.067 110.121 113.849 108.257C115.878 107.261 118.3 104.875 118.3 99.1184C118.3 92.415 115.319 85.493 112.72 80.2043C112.259 79.2571 111.809 78.3645 111.39 77.5387L110.868 76.4943C111.245 76.3061 111.633 76.1057 112.04 75.8932C115.793 73.9745 120.923 71.3453 126.297 69.9974C128.604 69.4205 130.681 69.1412 132.648 69.1412C136.431 69.1412 139.006 70.3313 140.099 72.5901C141.064 74.5817 140.924 77.4355 139.722 80.2225C139.297 81.2062 138.763 82.1291 138.174 82.8942C134.251 87.9339 133.432 95.4206 136.182 101.098C138.532 105.949 143.062 108.73 148.63 108.73H149.103C154.665 108.73 159.195 105.949 161.545 101.098C164.295 95.4145 163.476 87.9278 159.559 82.8942C158.964 82.123 158.43 81.2001 158.017 80.2165C156.815 77.4294 156.675 74.5756 157.634 72.584C158.727 70.3252 161.302 69.1351 165.085 69.1351C172.523 69.1351 180.441 73.1912 185.699 75.8811C186.106 76.0936 186.488 76.2879 186.865 76.4822C186.695 76.8162 186.525 77.1623 186.336 77.5266C185.972 78.2552 185.577 79.0324 185.171 79.8521L185.001 80.1922C182.402 85.4808 179.427 92.4089 179.427 99.1063C179.427 104.862 181.849 107.255 183.877 108.245C187.654 110.096 192.955 108.524 196.027 106.107C200.508 102.573 207.157 101.839 212.209 104.31C216.435 106.38 218.767 110.248 218.767 115.191V115.658C218.767 120.607 216.435 124.469 212.209 126.545C207.157 129.017 200.502 128.276 196.027 124.742C192.955 122.325 187.654 120.753 183.877 122.605C181.849 123.594 179.427 125.987 179.427 131.743C179.427 139.685 183.586 147.888 186.336 153.323C186.506 153.657 186.67 153.978 186.828 154.294L186.865 154.367C186.488 154.561 186.094 154.762 185.668 154.98C180.428 157.664 172.511 161.714 165.085 161.714C161.302 161.714 158.727 160.518 157.634 158.259C156.116 155.12 157.495 150.609 159.559 147.961C163.482 142.928 164.301 135.441 161.551 129.751C159.207 124.906 154.671 122.125 149.109 122.125H148.636C143.074 122.125 138.538 124.906 136.194 129.751C133.444 135.435 134.263 142.921 138.186 147.961C140.25 150.615 141.629 155.126 140.111 158.259C139.018 160.518 136.443 161.714 132.66 161.714C130.711 161.714 128.629 161.435 126.309 160.852C120.948 159.516 115.805 156.881 112.046 154.956C111.639 154.744 111.251 154.549 110.88 154.355L111.415 153.286ZM190.131 312.049L190.708 311.752C195.954 309.062 203.878 305 211.322 305C213.964 305 217.394 305.601 218.773 308.455C220.291 311.588 218.912 316.099 216.848 318.753C212.919 323.78 212.106 331.267 214.856 336.957C217.206 341.808 221.736 344.589 227.298 344.589H227.771C233.333 344.589 237.869 341.808 240.219 336.957C242.969 331.267 242.15 323.78 238.227 318.753C236.157 316.099 234.784 311.588 236.302 308.449C237.675 305.595 241.111 304.994 243.753 304.994C251.197 304.994 259.127 309.062 264.367 311.746C264.701 311.916 265.029 312.08 265.338 312.238C265.466 312.304 265.594 312.365 265.715 312.426C265.563 312.736 265.405 313.051 265.235 313.379L265.223 313.397C262.473 318.826 258.319 327.029 258.319 334.959C258.319 340.715 260.742 343.101 262.77 344.091C266.541 345.949 271.842 344.376 274.914 341.954C277.252 340.108 280.282 338.972 283.451 338.754C286.19 338.566 288.831 339.045 291.09 340.144C295.316 342.221 297.647 346.089 297.647 351.031V351.499C297.647 356.441 295.316 360.309 291.09 362.386C288.831 363.491 286.19 363.977 283.451 363.788C280.282 363.558 277.246 362.422 274.914 360.589C271.848 358.166 266.547 356.593 262.77 358.451C260.736 359.441 258.313 361.833 258.313 367.59C258.313 375.519 262.473 383.735 265.223 389.175C265.411 389.534 265.569 389.874 265.721 390.201C265.587 390.274 265.454 390.347 265.314 390.426C265.005 390.596 264.683 390.772 264.3 390.967C262.266 392.005 259.734 393.304 257.032 394.452C251.883 396.638 247.529 397.694 243.728 397.694C240.213 397.694 237.723 396.656 236.539 394.719L236.278 394.245C234.754 391.106 236.132 386.595 238.203 383.941C242.125 378.908 242.939 371.421 240.195 365.732C237.845 360.886 233.309 358.105 227.747 358.105H227.273C221.718 358.105 217.182 360.886 214.832 365.732C212.075 371.421 212.895 378.914 216.824 383.941C218.888 386.595 220.266 391.106 218.761 394.215L218.499 394.695C217.297 396.662 214.808 397.7 211.298 397.7C207.491 397.7 203.144 396.638 197.995 394.458C195.28 393.304 192.742 392.005 190.684 390.948C190.174 390.687 189.688 390.438 189.221 390.201C189.263 390.116 189.306 390.031 189.348 389.946L189.737 389.169C192.487 383.741 196.647 375.532 196.647 367.59C196.647 361.833 194.224 359.441 192.196 358.451C188.419 356.599 183.118 358.172 180.046 360.589C175.571 364.116 168.916 364.857 163.864 362.392C159.638 360.315 157.312 356.448 157.312 351.505V351.037C157.312 346.089 159.638 342.227 163.864 340.15C168.922 337.685 175.577 338.426 180.046 341.954C183.118 344.37 188.419 345.943 192.19 344.091C194.224 343.095 196.64 340.709 196.64 334.953C196.64 327.011 192.481 318.801 189.731 313.379L189.269 312.45C189.567 312.341 189.846 312.195 190.131 312.049ZM187.879 313.701L188.14 314.223C190.811 319.506 194.855 327.484 194.855 334.977C194.855 338.784 193.671 341.377 191.425 342.476C188.316 344.006 183.835 342.622 181.2 340.539C176.19 336.592 168.746 335.766 163.099 338.535C158.284 340.891 155.515 345.457 155.515 351.056V351.523C155.515 357.115 158.278 361.682 163.093 364.044C168.746 366.812 176.184 365.987 181.193 362.04C183.823 359.963 188.304 358.585 191.419 360.103C193.665 361.202 194.849 363.801 194.849 367.608C194.849 375.101 190.805 383.079 188.134 388.362C187.952 388.72 187.782 389.06 187.612 389.394C187.259 389.218 186.895 389.03 186.506 388.829C181.108 386.06 172.942 381.877 165.066 381.877C159.353 381.877 156.972 384.312 155.983 386.358C154.817 388.768 154.908 392.011 156.226 395.253C156.724 396.48 157.373 397.634 158.108 398.575C161.617 403.086 162.352 409.783 159.893 414.872C157.835 419.128 153.997 421.466 149.091 421.466H148.617C143.711 421.466 139.874 419.122 137.815 414.872C135.356 409.79 136.091 403.086 139.601 398.581C140.329 397.646 140.985 396.498 141.489 395.259C142.807 392.011 142.892 388.768 141.726 386.364C140.736 384.318 138.362 381.883 132.636 381.883C130.584 381.883 128.416 382.168 125.993 382.763C120.28 384.16 114.809 386.977 111.19 388.841C110.838 389.023 110.455 389.212 110.091 389.394C109.927 389.066 109.757 388.726 109.575 388.368C106.903 383.085 102.859 375.107 102.859 367.614C102.859 363.807 104.043 361.208 106.29 360.109C109.405 358.585 113.88 359.969 116.515 362.046C119.15 364.116 122.551 365.385 126.091 365.622C129.133 365.835 132.084 365.288 134.616 364.05C139.431 361.688 142.193 357.128 142.193 351.529V351.062C142.193 345.463 139.431 340.897 134.616 338.541C132.084 337.303 129.139 336.756 126.091 336.957C122.545 337.199 119.144 338.475 116.515 340.545C113.88 342.622 109.399 344.006 106.29 342.482C104.043 341.383 102.859 338.79 102.859 334.983C102.859 327.484 106.897 319.506 109.569 314.229C109.733 313.907 109.885 313.604 110.036 313.3C110.407 313.488 110.801 313.689 111.232 313.914C115.1 315.893 120.401 318.601 125.987 319.967C128.41 320.556 130.578 320.848 132.63 320.848C138.344 320.848 140.724 318.413 141.72 316.367C143.56 312.566 141.993 307.234 139.595 304.15C136.085 299.638 135.35 292.941 137.809 287.853C139.868 283.596 143.705 281.246 148.611 281.246H149.085C153.991 281.246 157.823 283.59 159.887 287.853C162.346 292.935 161.611 299.638 158.102 304.15C155.697 307.234 154.137 312.566 155.977 316.373C156.972 318.419 159.353 320.854 165.06 320.854C172.936 320.854 181.096 316.67 186.512 313.895C186.907 313.689 187.29 313.495 187.654 313.306C187.739 313.428 187.806 313.561 187.879 313.701ZM186.33 234.814C185.96 235.543 185.571 236.326 185.165 237.146L184.994 237.486C182.396 242.775 179.42 249.697 179.42 256.4C179.42 262.156 181.843 264.549 183.871 265.538C187.654 267.39 192.955 265.818 196.021 263.401C200.496 259.873 207.151 259.132 212.203 261.604C216.429 263.674 218.761 267.542 218.761 272.485V272.958C218.761 277.907 216.429 281.769 212.203 283.839C207.151 286.31 200.496 285.576 196.021 282.042C192.949 279.619 187.648 278.047 183.871 279.898C181.843 280.888 179.42 283.274 179.42 289.037C179.42 296.967 183.574 305.17 186.33 310.623C186.512 310.981 186.689 311.327 186.859 311.661C186.482 311.849 186.1 312.049 185.699 312.262L185.638 312.292C180.404 314.97 172.492 319.014 165.079 319.014C161.302 319.014 158.727 317.818 157.628 315.553C156.11 312.42 157.489 307.908 159.553 305.255C163.476 300.215 164.295 292.728 161.545 287.045C159.195 282.194 154.665 279.413 149.103 279.413H148.63C143.068 279.413 138.532 282.194 136.188 287.045C133.444 292.722 134.257 300.215 138.18 305.255C140.244 307.908 141.623 312.42 140.105 315.553C139.012 317.818 136.437 319.014 132.654 319.014C130.699 319.014 128.623 318.735 126.303 318.152C120.948 316.81 115.799 314.181 112.046 312.262C111.639 312.049 111.251 311.849 110.88 311.661L111.451 310.531C114.183 305.115 118.312 296.93 118.312 289.037C118.312 283.274 115.896 280.888 113.868 279.905C110.085 278.047 104.784 279.619 101.712 282.042C97.2366 285.57 90.5818 286.31 85.5299 283.839C81.3039 281.763 78.9722 277.901 78.9722 272.952V272.479C78.9722 267.536 81.2978 263.674 85.5299 261.598C90.5818 259.126 97.2366 259.867 101.712 263.395C104.778 265.818 110.085 267.39 113.868 265.532C115.896 264.543 118.318 262.15 118.318 256.394C118.318 249.691 115.337 242.762 112.738 237.48C112.277 236.533 111.828 235.634 111.402 234.808C111.22 234.45 111.05 234.104 110.88 233.77C111.257 233.582 111.639 233.381 112.046 233.175C115.786 231.256 120.911 228.627 126.309 227.279C128.629 226.702 130.705 226.417 132.66 226.417C136.443 226.417 139.018 227.607 140.111 229.866C141.07 231.857 140.93 234.711 139.734 237.504C139.309 238.488 138.775 239.411 138.186 240.17C134.263 245.209 133.444 252.696 136.194 258.379C138.544 263.225 143.08 266.006 148.642 266.006H149.115C154.677 266.006 159.207 263.225 161.557 258.379C164.307 252.69 163.488 245.203 159.565 240.17C158.97 239.405 158.436 238.482 158.023 237.498C156.827 234.705 156.681 231.851 157.64 229.86C158.733 227.601 161.308 226.411 165.091 226.411C172.541 226.411 180.465 230.479 185.711 233.163C186.118 233.369 186.5 233.57 186.877 233.758C186.689 234.11 186.519 234.456 186.33 234.814ZM188.14 231.086C187.958 231.444 187.788 231.79 187.618 232.118C187.338 231.973 187.047 231.827 186.749 231.675L186.525 231.56C181.121 228.791 172.96 224.601 165.072 224.601C159.365 224.601 156.979 227.036 155.989 229.082C154.823 231.493 154.914 234.735 156.232 237.984C156.73 239.21 157.379 240.358 158.114 241.305C161.624 245.817 162.358 252.52 159.899 257.602C157.841 261.859 154.003 264.196 149.097 264.196H148.624C143.717 264.196 139.88 261.853 137.822 257.602C135.362 252.52 136.097 245.817 139.607 241.305C140.335 240.37 140.991 239.223 141.495 237.984C142.813 234.735 142.898 231.493 141.732 229.082C140.742 227.036 138.362 224.601 132.642 224.601C130.59 224.601 128.416 224.887 125.999 225.482C120.298 226.878 114.821 229.696 111.202 231.56C110.844 231.742 110.467 231.93 110.097 232.112C109.933 231.778 109.757 231.438 109.581 231.086C106.909 225.803 102.865 217.825 102.865 210.332C102.865 206.519 104.049 203.926 106.296 202.833C109.411 201.303 113.886 202.688 116.521 204.764C119.15 206.835 122.551 208.104 126.097 208.347C129.133 208.553 132.084 208.013 134.622 206.768C139.437 204.406 142.199 199.846 142.199 194.248V193.774C142.199 188.182 139.437 183.616 134.622 181.254C132.09 180.015 129.139 179.468 126.097 179.675C122.551 179.918 119.15 181.193 116.515 183.263C113.886 185.34 109.405 186.724 106.29 185.2C104.043 184.101 102.859 181.509 102.859 177.695C102.859 170.197 106.897 162.224 109.569 156.948C109.733 156.632 109.885 156.316 110.036 156.019C110.407 156.207 110.789 156.401 111.184 156.608C115.058 158.593 120.359 161.313 125.987 162.686C128.386 163.275 130.559 163.566 132.63 163.566C138.344 163.566 140.73 161.131 141.72 159.085C143.553 155.284 141.993 149.953 139.595 146.868C136.085 142.357 135.35 135.659 137.809 130.571C139.868 126.315 143.705 123.971 148.611 123.971H149.085C153.991 123.971 157.829 126.315 159.887 130.571C162.346 135.653 161.611 142.357 158.102 146.868C155.697 149.953 154.137 155.284 155.977 159.085C156.966 161.131 159.353 163.566 165.06 163.566C172.936 163.566 181.096 159.382 186.512 156.608C186.907 156.401 187.29 156.207 187.654 156.019L188.122 156.948C190.793 162.224 194.837 170.197 194.837 177.695C194.837 181.509 193.653 184.101 191.406 185.2C188.285 186.724 183.81 185.34 181.181 183.263C176.172 179.317 168.734 178.491 163.081 181.26C158.266 183.622 155.503 188.188 155.503 193.774V194.248C155.503 199.84 158.266 204.406 163.081 206.768C168.728 209.531 176.178 208.711 181.181 204.764C183.81 202.688 188.292 201.303 191.406 202.833C193.653 203.926 194.837 206.525 194.837 210.332C194.855 217.819 190.811 225.803 188.14 231.086ZM265.241 156.11L265.235 156.122C262.485 161.556 258.331 169.772 258.331 177.689C258.331 183.44 260.754 185.838 262.788 186.834C266.565 188.686 271.866 187.113 274.932 184.696C277.264 182.857 280.3 181.721 283.469 181.497C286.196 181.302 288.837 181.782 291.108 182.893C295.334 184.97 297.666 188.831 297.666 193.774V194.248C297.666 199.19 295.334 203.058 291.108 205.129C288.837 206.234 286.19 206.719 283.463 206.525C280.294 206.306 277.264 205.171 274.926 203.325C271.854 200.909 266.553 199.336 262.782 201.188C260.748 202.178 258.325 204.57 258.325 210.326C258.325 218.25 262.479 226.453 265.235 231.906C265.423 232.27 265.581 232.61 265.739 232.938C265.666 232.981 265.587 233.023 265.509 233.066C265.144 233.266 264.768 233.472 264.361 233.679C262.46 234.656 259.856 235.992 257.044 237.188C251.895 239.374 247.542 240.431 243.741 240.431C240.231 240.431 237.735 239.393 236.551 237.456L236.29 236.982C234.772 233.843 236.145 229.331 238.215 226.678C242.138 221.644 242.951 214.158 240.207 208.468C237.857 203.617 233.321 200.836 227.759 200.836H227.286C221.73 200.836 217.194 203.617 214.844 208.468C212.094 214.164 212.907 221.65 216.836 226.678C218.9 229.331 220.272 233.849 218.773 236.952L218.512 237.431C217.309 239.399 214.82 240.437 211.31 240.437C207.509 240.437 203.156 239.374 198.007 237.194C195.189 235.992 192.59 234.662 190.696 233.685C190.186 233.424 189.7 233.175 189.233 232.938C189.306 232.792 189.378 232.641 189.457 232.489L189.749 231.906C192.499 226.477 196.659 218.268 196.659 210.332C196.659 204.576 194.236 202.184 192.208 201.194C188.437 199.342 183.136 200.915 180.058 203.331C175.583 206.865 168.928 207.606 163.876 205.135C159.65 203.058 157.325 199.19 157.325 194.248V193.774C157.325 188.831 159.65 184.97 163.876 182.893C168.928 180.422 175.583 181.163 180.058 184.696C183.124 187.119 188.425 188.692 192.208 186.834C194.236 185.838 196.659 183.44 196.659 177.689C196.659 169.753 192.499 161.544 189.749 156.11L189.287 155.193C189.712 154.98 190.15 154.75 190.611 154.513L190.702 154.464C195.948 151.78 203.872 147.718 211.31 147.718C213.946 147.718 217.382 148.319 218.761 151.167C220.279 154.306 218.9 158.818 216.836 161.471C212.913 166.499 212.094 173.986 214.844 179.675C217.194 184.526 221.724 187.307 227.286 187.307H227.759C233.321 187.307 237.857 184.526 240.207 179.675C242.957 173.986 242.138 166.499 238.215 161.471C236.145 158.818 234.772 154.306 236.29 151.167C237.669 148.313 241.099 147.718 243.741 147.718C251.173 147.718 259.097 151.774 264.355 154.47C264.822 154.713 265.272 154.944 265.703 155.162C265.569 155.466 265.405 155.782 265.241 156.11ZM268.241 80.7386C270.809 85.9423 273.76 92.7368 273.76 99.1184C273.76 102.926 272.576 105.524 270.33 106.623C267.221 108.147 262.74 106.763 260.104 104.692C255.101 100.74 247.657 99.9138 242.004 102.689C237.189 105.045 234.42 109.611 234.42 115.209V115.677C234.42 121.269 237.183 125.835 242.004 128.203C247.651 130.966 255.095 130.146 260.104 126.199C262.74 124.123 267.221 122.738 270.33 124.262C272.57 125.361 273.76 127.96 273.76 131.767C273.76 139.248 269.728 147.226 267.051 152.521C266.875 152.873 266.705 153.213 266.535 153.541C266.11 153.329 265.666 153.098 265.199 152.861C259.801 150.092 251.64 145.903 243.753 145.903C238.027 145.903 235.653 148.338 234.663 150.378C232.823 154.179 234.384 159.516 236.788 162.601C240.298 167.106 241.039 173.809 238.579 178.892C236.509 183.148 232.671 185.492 227.771 185.492H227.298C222.392 185.492 218.56 183.148 216.496 178.898C214.037 173.809 214.771 167.106 218.281 162.601C220.679 159.51 222.24 154.179 220.406 150.378C219.422 148.338 217.042 145.903 211.322 145.903C203.441 145.903 195.28 150.086 189.876 152.861L189.749 152.928C189.312 153.153 188.893 153.371 188.486 153.572C188.413 153.432 188.346 153.292 188.273 153.147L187.958 152.521C185.286 147.245 181.242 139.266 181.242 131.767C181.242 127.96 182.426 125.367 184.673 124.262C187.788 122.738 192.269 124.123 194.898 126.199C199.907 130.146 207.351 130.972 212.998 128.203C217.813 125.841 220.576 121.275 220.576 115.677V115.209C220.576 109.611 217.813 105.045 212.998 102.695C207.345 99.9199 199.901 100.746 194.898 104.699C192.263 106.775 187.782 108.153 184.673 106.629C182.426 105.53 181.242 102.932 181.242 99.1245C181.242 92.7489 184.193 85.9544 186.768 80.7447C187.132 79.9979 187.496 79.2874 187.83 78.6195L188.486 77.3262C188.747 77.4598 189.014 77.5934 189.287 77.733L189.876 78.0305C191.753 78.996 193.775 80.0221 196.015 81.0301C201.935 83.6896 206.945 84.9829 211.322 84.9829C216.86 84.9829 219.252 82.6877 220.285 80.7508L220.412 80.5079C222.252 76.7069 220.691 71.3757 218.287 68.2911C214.777 63.7797 214.043 57.0763 216.502 51.994C218.566 47.7376 222.404 45.3938 227.304 45.3938H227.777C232.684 45.3938 236.521 47.7376 238.585 51.994C241.045 57.0763 240.304 63.7736 236.794 68.2911C234.39 71.3757 232.829 76.7069 234.681 80.5322L234.803 80.7629C235.829 82.6877 238.215 84.989 243.753 84.989C248.131 84.989 253.14 83.6957 259.06 81.0362C261.301 80.0282 263.323 79.0021 265.193 78.0366L265.94 77.6602C266.146 77.5569 266.346 77.4537 266.541 77.3566C266.705 77.6905 266.875 78.0366 267.045 78.3766L267.306 78.8928C267.609 79.4696 267.919 80.0889 268.241 80.7386Z" fill="#3C2F4B"/>
<path opacity="0.24" d="M55.7142 442.759C60.5293 440.397 63.292 435.837 63.292 430.244V429.765C63.292 424.172 60.5293 419.606 55.7142 417.244C50.9052 414.888 44.8029 415.15 40 417.706V419.807C44.4082 417.05 50.3284 416.637 54.9188 418.884C59.1509 420.96 61.4765 424.828 61.4765 429.765V430.244C61.4765 435.187 59.1448 439.049 54.9188 441.125C50.3284 443.372 44.4082 442.953 40 440.202V442.303C44.7968 444.853 50.9052 445.115 55.7142 442.759Z" fill="#3C2F4B"/>
<path opacity="0.24" d="M55.7142 128.197C60.5293 125.835 63.292 121.269 63.292 115.671V115.203C63.292 109.605 60.5293 105.045 55.7142 102.689C50.9052 100.327 44.8029 100.582 40 103.144V105.239C44.4022 102.489 50.3284 102.07 54.9188 104.316C59.1509 106.393 61.4765 110.255 61.4765 115.197V115.665C61.4765 120.607 59.1448 124.475 54.9188 126.552C50.3223 128.798 44.4022 128.386 40 125.629V127.73C44.8029 130.292 50.9052 130.547 55.7142 128.197Z" fill="#3C2F4B"/>
</g>
<path opacity="0.24" d="M278.154 384.123L245.353 390.346L248.383 409.631C248.383 409.631 241.959 440.033 231.224 465.559H124.546L126.191 443.111C126.677 431.047 131.844 419.643 140.588 411.319L184.634 369.38C192.649 361.753 203.53 357.886 214.562 358.754L286.782 365.779L278.154 384.123Z" fill="#3C2F4B"/>
<path d="M275.519 388.78C267.826 392.053 245.372 392.793 245.372 392.793L276.442 418.508L286.588 450.659C284.183 453.258 278.901 453.762 275.513 453.804V464.667C275.033 464.776 273.339 464.673 271.833 464.552L270.904 481.28C270.904 481.28 267.88 485.961 264.359 491.086C260.885 496.144 256.914 501.639 254.88 503.473C254.662 503.673 254.467 503.825 254.297 503.934C250.909 506.072 244.758 505.458 244.455 504.548C244.145 503.625 244.455 525.975 240.763 539.443C239.749 543.129 237.521 547.513 234.691 552H143.636C148.324 540.493 150.595 527.111 150.036 518.015C149.313 506.339 146.733 498.378 144.753 491.086C144.189 489.009 143.672 486.987 143.266 484.947C143.162 484.443 143.077 483.824 142.992 483.101C142.986 482.998 142.974 482.889 142.962 482.78C142.816 481.328 142.707 479.495 142.628 477.394C142.61 477.036 142.598 476.665 142.586 476.289C142.573 475.815 142.561 475.335 142.543 474.85C142.531 474.267 142.519 473.678 142.507 473.071C142.501 472.724 142.495 472.372 142.488 472.02C142.488 471.686 142.482 471.346 142.476 471.006C142.47 470.302 142.464 469.585 142.458 468.857C142.458 468.371 142.452 467.885 142.452 467.387C142.434 461.37 142.525 454.685 142.652 448.516C142.78 442.48 142.938 436.936 143.065 433.002C143.187 429.219 144.82 425.649 147.601 423.074L202.485 372.282C205.102 369.866 208.497 368.457 212.061 368.317L286.782 365.378C288.792 365.3 290.359 367.103 289.976 369.064C288.725 375.391 284.22 385.07 275.519 388.78Z" fill="#D76E6D"/>
<path d="M170.334 417.591C170.334 417.591 208.229 390.34 214.01 390.34C215.546 390.34 245.383 392.787 245.383 392.787" stroke="#3C2F4B" stroke-width="4.25036" stroke-miterlimit="10" stroke-linecap="round" stroke-linejoin="round"/>
<path d="M180.791 428.921L224.466 409.631H245.378L273.983 438.715L274.59 447.24" stroke="#3C2F4B" stroke-width="4.25036" stroke-miterlimit="10" stroke-linecap="round" stroke-linejoin="round"/>
<path d="M203.882 445.916C203.882 445.916 252.111 437.774 252.676 438.618C253.24 439.462 272.482 453.61 272.482 453.61L270.977 480.174" stroke="#3C2F4B" stroke-width="4.25036" stroke-miterlimit="10" stroke-linecap="round" stroke-linejoin="round"/>
<path d="M244.455 504.541C244.455 504.541 231.758 493.509 242.275 480.296C242.275 480.296 250.187 472.743 262.264 480.454" stroke="#3C2F4B" stroke-width="4.25036" stroke-miterlimit="10" stroke-linecap="round" stroke-linejoin="round"/>
<path d="M234.515 463.307C234.515 463.307 245.378 481.668 259.343 463.307" stroke="#3C2F4B" stroke-width="4.25036" stroke-miterlimit="10" stroke-linecap="round" stroke-linejoin="round"/>
<path d="M248.996 471.467C248.996 471.467 247.442 474.982 248.996 477.211" stroke="#3C2F4B" stroke-width="4.25036" stroke-miterlimit="10" stroke-linecap="round" stroke-linejoin="round"/>
<path d="M242.961 471.467C242.961 471.467 243.477 481.844 229.511 488.875" stroke="#3C2F4B" stroke-width="4.25036" stroke-miterlimit="10" stroke-linecap="round" stroke-linejoin="round"/>
<path d="M153.151 434.891C153.151 434.891 150.139 441.412 150.74 446.209" stroke="#3C2F4B" stroke-width="4.25036" stroke-miterlimit="10" stroke-linecap="round" stroke-linejoin="round"/>
<path d="M166.108 440.549C166.108 440.549 160.382 448.612 162.192 463.306" stroke="#3C2F4B" stroke-width="4.25036" stroke-miterlimit="10" stroke-linecap="round" stroke-linejoin="round"/>
<path d="M185.083 451.928C185.083 451.928 177.851 458.279 177.25 467.387C176.649 476.495 177.25 477.211 177.25 477.211" stroke="#3C2F4B" stroke-width="4.25036" stroke-miterlimit="10" stroke-linecap="round" stroke-linejoin="round"/>
<path d="M209.48 498.087C209.48 498.087 218.515 492.689 226.949 498.087" stroke="#3C2F4B" stroke-width="4.25036" stroke-miterlimit="10" stroke-linecap="round" stroke-linejoin="round"/>
<path d="M281.912 376.861C281.912 376.861 286.873 374.827 286.782 365.379L261.183 366.387C261.183 366.387 266.01 376.035 281.912 376.861Z" fill="white"/>
<path d="M233.209 367.484L272.884 365.924" stroke="#3C2F4B" stroke-width="4.25036" stroke-miterlimit="10" stroke-linecap="round" stroke-linejoin="round"/>
<path d="M261.183 366.387C261.183 366.387 266.138 373.855 274.59 375.725" stroke="#3C2F4B" stroke-width="4.25036" stroke-miterlimit="10" stroke-linecap="round" stroke-linejoin="round"/>
<path d="M264.358 491.086C260.885 496.144 256.914 501.639 254.88 503.473C252.791 501.038 251.832 498.087 251.832 498.087C255.202 493.357 260.861 491.681 264.358 491.086Z" fill="white"/>
<path opacity="0.24" d="M164.244 552H143.636C148.323 540.493 150.594 527.111 150.036 518.015C149.313 506.339 146.732 498.378 144.753 491.086C144.753 491.086 167.335 518.993 164.244 552Z" fill="#3C2F4B"/>
<path d="M143.636 551.999C148.323 540.493 150.594 527.11 150.036 518.015C149.313 506.338 146.733 498.378 144.753 491.086C144.188 489.009 143.672 486.987 143.266 484.947C143.162 484.443 143.077 483.823 142.992 483.101C142.986 482.998 142.974 482.888 142.962 482.779C142.816 481.328 142.707 479.494 142.628 477.393C142.61 477.035 142.598 476.665 142.585 476.288C142.573 475.815 142.561 475.335 142.543 474.849C142.531 474.266 142.519 473.677 142.507 473.07C142.5 472.724 142.494 472.372 142.488 472.02C142.488 471.686 142.482 471.346 142.476 471.006C142.47 470.301 142.464 469.585 142.458 468.856C142.458 468.37 142.452 467.885 142.452 467.387" stroke="#3C2F4B" stroke-width="4.25036" stroke-miterlimit="10" stroke-linecap="round" stroke-linejoin="round"/>
<path d="M503.599 237.977C503.599 237.977 470.823 240.709 466.141 244.413C461.46 248.117 459.705 255.142 460.288 262.362C460.871 269.581 457.167 321.278 459.116 326.742C461.065 332.207 506.131 345.863 506.131 345.863L536.564 319.329L526.612 317.962C526.612 317.962 528.172 310.16 525.051 307.622C525.051 307.622 533.242 306.45 534.22 303.135C534.22 303.135 537.729 308.01 541.634 307.427C545.538 306.845 553.729 273.874 553.729 273.874L503.599 237.977Z" fill="#D76E6D"/>
<path opacity="0.24" d="M459.699 283.607C459.699 283.607 470.865 297.798 470.701 309.249C470.701 309.249 487.381 305.843 494.315 310.749L514.371 335.644L500.654 338.808L458.539 323.282L459.699 283.607Z" fill="#3C2F4B"/>
<path opacity="0.24" d="M550.845 296.413C550.845 296.413 530.419 298.745 525.057 278.556C525.057 278.556 512.798 286.941 497.023 283.201C497.023 283.201 496.167 310.063 493.247 311.52L514.371 335.644C514.371 335.644 541.974 323.027 550.845 296.413Z" fill="#3C2F4B"/>
<path d="M459.025 299.267C458.509 312.291 458.236 324.271 459.116 326.742C461.065 332.207 506.131 345.863 506.131 345.863L536.564 319.329L526.612 317.962C526.612 317.962 528.173 310.16 525.052 307.622C525.052 307.622 533.243 306.45 534.22 303.135C534.22 303.135 537.73 308.01 541.634 307.427C545.538 306.845 553.729 273.874 553.729 273.874L503.593 237.977C503.593 237.977 470.817 240.709 466.136 244.413C461.764 247.874 459.942 254.219 460.197 260.922" stroke="#3C2F4B" stroke-width="4.25036" stroke-miterlimit="10" stroke-linecap="round" stroke-linejoin="round"/>
<path d="M596.542 237.442C597.174 238.031 597.872 238.936 598.637 240.114V401.421C598.637 406.577 596.876 411.543 593.719 415.521C592.905 416.547 592 417.506 591.005 418.386L576.675 431.095L573.463 433.943H573.457C572.692 433.694 571.872 433.415 571.004 433.117C570.712 433.014 570.415 432.911 570.117 432.807C569.546 432.607 568.963 432.401 568.362 432.182C567.057 431.702 565.666 431.18 564.203 430.597C563.547 430.336 562.873 430.063 562.187 429.777C561.817 429.626 561.446 429.468 561.07 429.31C557.239 427.683 553.013 425.709 548.537 423.305C547.76 422.88 546.971 422.449 546.182 422.005C543.413 420.451 540.553 418.733 537.638 416.832C537.165 416.522 536.691 416.213 536.211 415.891C530.012 411.744 523.588 406.765 517.231 400.79L503.071 390.091C503.071 390.091 502.464 389.824 501.352 389.332C501.213 389.271 501.061 389.205 500.903 389.132C499.106 388.342 496.264 387.086 492.67 385.501C479.846 379.848 457.422 369.975 438.587 361.766C438.064 361.541 437.548 361.31 437.032 361.086C435.636 360.472 434.257 359.877 432.909 359.288C432.66 359.185 432.411 359.076 432.169 358.966C431.282 358.584 430.408 358.201 429.552 357.831C427.159 356.793 424.876 355.809 422.739 354.88C421.458 354.327 420.231 353.793 419.059 353.295C418.804 353.186 418.549 353.077 418.3 352.967C418.094 352.882 417.887 352.797 417.687 352.706C417.28 352.53 416.886 352.36 416.497 352.196C415.72 351.862 414.979 351.546 414.275 351.249C414.256 351.243 414.244 351.237 414.226 351.231C413.255 350.812 412.35 350.429 411.53 350.089C410.978 349.852 410.467 349.64 409.994 349.446C409.52 349.245 409.083 349.063 408.688 348.905H408.682C408.482 348.82 408.294 348.741 408.118 348.674C408.099 348.668 408.087 348.662 408.075 348.656C407.82 348.553 407.589 348.462 407.377 348.377C407.268 348.334 407.164 348.292 407.067 348.255C406.636 348.092 406.32 347.976 406.132 347.915C401.092 346.343 378.748 340.993 378.116 338.789C378.086 338.674 378.055 338.516 378.025 338.304V338.297C378.019 338.261 378.013 338.231 378.007 338.194V338.17C378.001 338.134 378.001 338.091 377.989 338.049C377.989 337.994 377.983 337.933 377.976 337.872C377.97 337.83 377.97 337.781 377.958 337.733C377.928 337.235 377.904 336.603 377.916 335.869C377.916 335.729 377.922 335.577 377.928 335.425C377.928 335.383 377.928 335.34 377.934 335.298C377.934 335.255 377.934 335.213 377.94 335.17C377.94 335.122 377.94 335.067 377.946 335.019V334.958C377.952 334.909 377.952 334.861 377.958 334.806C377.964 334.727 377.97 334.648 377.97 334.569C377.976 334.545 377.976 334.521 377.976 334.496C377.983 334.466 377.983 334.436 377.983 334.405L378.001 334.205C378.007 334.132 378.013 334.059 378.019 333.986V333.962C378.025 333.95 378.025 333.944 378.025 333.932C378.031 333.889 378.031 333.841 378.037 333.798C378.043 333.719 378.055 333.64 378.062 333.561C378.068 333.507 378.074 333.452 378.08 333.397C378.08 333.385 378.086 333.367 378.086 333.349C378.098 333.252 378.11 333.148 378.122 333.045L378.14 332.918C378.147 332.875 378.153 332.833 378.159 332.784C378.171 332.681 378.183 332.584 378.201 332.481C378.207 332.45 378.213 332.414 378.213 332.377C378.219 332.371 378.219 332.371 378.219 332.365V332.341C378.25 332.153 378.286 331.964 378.317 331.77C378.347 331.606 378.377 331.442 378.414 331.272C378.426 331.181 378.444 331.09 378.468 330.999C378.535 330.671 378.608 330.337 378.693 330.009C378.742 329.809 378.79 329.615 378.845 329.414C378.93 329.117 379.015 328.825 379.112 328.534C379.154 328.388 379.203 328.242 379.258 328.091C379.355 327.793 379.464 327.495 379.579 327.204C379.622 327.089 379.664 326.979 379.713 326.87C379.762 326.736 379.816 326.609 379.877 326.475C379.944 326.318 380.011 326.166 380.09 326.008C380.308 325.516 380.557 325.03 380.83 324.557C380.909 324.411 380.994 324.271 381.079 324.132C381.249 323.846 381.431 323.561 381.62 323.282C384.656 318.825 390.054 315.291 399.52 315.813C400.072 315.843 400.607 315.868 401.129 315.892C417.323 316.56 420.079 313.05 430.839 314.392C433.426 314.72 436.474 315.321 440.287 316.335C441.137 316.56 442.023 316.803 442.952 317.07C447.294 318.321 451.994 319.881 456.815 321.594C457.398 321.8 457.987 322.013 458.576 322.225C458.582 322.225 458.594 322.231 458.606 322.231C458.606 322.231 458.606 322.237 458.612 322.237C462.164 323.512 465.765 324.854 469.323 326.196C470.045 326.469 470.768 326.743 471.484 327.016C472.14 327.265 472.802 327.514 473.452 327.763C475.322 328.473 477.168 329.177 478.977 329.864C486.203 332.602 492.821 335.061 497.922 336.585C498.171 336.658 498.414 336.731 498.65 336.798C500.174 337.241 501.553 337.593 502.749 337.83C502.949 337.872 503.144 337.909 503.338 337.939C503.441 337.957 503.55 337.976 503.654 337.994C503.757 338.012 503.86 338.03 503.957 338.042C503.963 338.042 503.969 338.042 503.969 338.042C504.012 338.055 504.054 338.061 504.091 338.061C504.206 338.079 504.309 338.091 504.419 338.103C504.649 338.134 504.874 338.158 505.087 338.17C505.184 338.182 505.281 338.188 505.372 338.188C505.803 338.212 506.192 338.2 506.532 338.158C508.426 337.921 510.515 337.132 512.61 336.051C513.083 335.802 513.563 335.541 514.037 335.268C514.043 335.262 514.049 335.255 514.055 335.255C519.811 331.922 525.27 326.779 526.357 325.255C526.806 324.623 528.974 322.146 531.773 318.673C534.305 315.522 537.359 311.551 540.11 307.391C542.544 303.718 544.749 299.892 546.151 296.365C547.19 293.772 547.791 291.337 547.736 289.23C547.724 288.501 547.633 287.809 547.445 287.172C544.299 276.157 533.91 273.012 533.91 273.012C533.91 273.012 500.235 262.307 486.069 239.962C486.069 239.962 485.954 239.95 485.729 239.926C482.159 239.501 451.38 235.615 445.157 226.428C445.157 226.428 429.801 228.845 419.776 229.087C417.802 229.136 416.029 229.106 414.627 228.948C412.696 228.735 410.504 228.225 408.276 227.569C408.269 227.569 408.269 227.569 408.269 227.569C400.68 225.335 392.598 221.394 392.598 221.394C392.598 221.394 392.391 218.061 392.215 215.122C392.203 214.928 392.209 214.733 392.215 214.539C392.215 214.515 392.215 214.497 392.215 214.472C392.258 213.823 392.416 213.203 392.677 212.639C392.737 212.511 392.804 212.377 392.877 212.256C393.217 211.643 393.691 211.108 394.255 210.677C394.741 210.313 395.3 210.028 395.913 209.845C401.42 208.23 411.749 205.213 420.759 202.632C420.766 202.632 420.772 202.632 420.772 202.632C428.647 200.379 435.508 198.461 437.287 198.102C442.011 197.161 497.09 204.557 497.09 204.557L554.367 235.238C554.367 235.238 586.785 228.316 596.542 237.442Z" fill="#D76E6D"/>
<path opacity="0.24" d="M512.962 337.544C502.367 339.954 489.318 335.801 475.492 327.956C489.719 333.366 502.239 338.114 506.532 337.574C514.086 336.633 524.784 326.875 526.357 324.671C527.93 322.467 550.59 297.602 547.445 286.588C544.3 275.573 533.911 272.428 533.911 272.428C533.911 272.428 500.236 261.723 486.07 239.378C486.07 239.378 451.769 235.602 445.157 225.844C445.157 225.844 423.128 229.305 414.627 228.364C406.133 227.417 392.598 220.81 392.598 220.81C392.598 220.81 392.392 217.477 392.216 214.538C392.161 213.658 392.331 212.808 392.677 212.055L394.013 213.378C394.013 213.378 416.139 228.892 443.378 214.745C443.378 214.745 471.078 229.481 490.63 226.888C490.63 226.888 513.333 257.789 545.314 262.385C577.301 266.982 559.407 326.966 512.962 337.544Z" fill="#3C2F4B"/>
<path opacity="0.24" d="M573.542 433.974C574.034 434.132 574.507 434.283 574.963 434.429C574.513 434.289 574.034 434.138 573.542 433.974Z" fill="#3C2F4B"/>
<path opacity="0.24" d="M593.719 415.521C592.905 416.547 592 417.506 591.005 418.386L576.675 431.095L573.463 433.943C573.469 433.943 573.469 433.943 573.475 433.949C573.469 433.949 573.463 433.949 573.457 433.943L573.439 433.961C561.78 430.136 539.12 421.374 517.231 400.814L503.071 390.116C503.071 390.116 444.476 364.231 418.3 352.992C411.694 350.156 407.146 348.256 406.132 347.94C401.092 346.367 378.748 341.018 378.116 338.814C378.08 338.698 378.049 338.522 378.025 338.304C378.013 338.267 378.013 338.231 378.007 338.194V338.17C378.001 338.134 378.001 338.091 377.989 338.049C377.989 337.994 377.983 337.933 377.976 337.872C377.97 337.83 377.97 337.781 377.958 337.733C377.928 337.235 377.904 336.603 377.916 335.869C377.916 335.729 377.922 335.577 377.928 335.425C377.928 335.383 377.928 335.34 377.934 335.298C377.934 335.255 377.934 335.213 377.94 335.17C377.94 335.122 377.94 335.067 377.946 335.019V334.958C377.952 334.909 377.952 334.861 377.958 334.806C377.964 334.727 377.97 334.648 377.97 334.569C377.976 334.545 377.976 334.521 377.976 334.496C377.983 334.466 377.983 334.436 377.983 334.405L378.001 334.205C378.007 334.132 378.013 334.059 378.019 333.986V333.962C378.025 333.956 378.025 333.95 378.025 333.938C378.025 333.938 378.025 333.938 378.025 333.932C378.031 333.889 378.031 333.841 378.037 333.798C378.043 333.719 378.055 333.64 378.062 333.561C378.068 333.507 378.074 333.452 378.08 333.397C378.08 333.385 378.086 333.367 378.086 333.349C378.098 333.252 378.11 333.148 378.122 333.045L378.14 332.918C378.147 332.875 378.153 332.833 378.159 332.784C378.171 332.681 378.183 332.584 378.201 332.481C378.207 332.444 378.213 332.402 378.219 332.365C378.274 332.007 378.341 331.643 378.414 331.272C378.432 331.181 378.45 331.09 378.468 330.999C378.657 330.094 378.905 329.153 379.221 328.206C379.294 327.999 379.367 327.799 379.44 327.593L383.708 327.289C383.708 327.289 396.065 333.731 414.408 341.23C414.56 341.297 414.718 341.358 414.876 341.425C454.951 357.758 523.017 378.895 553.735 349.67C553.735 349.67 557.7 346.446 562.424 340.957C570.579 331.479 586.123 337.575 585.704 350.071C585.431 358.177 584.198 366.969 581.435 376.065C577.659 388.5 582.996 402.879 593.719 415.521Z" fill="#3C2F4B"/>
<path d="M418.301 352.968C411.694 350.132 407.146 348.232 406.132 347.916C401.093 346.343 378.748 340.994 378.117 338.79C377.752 337.509 377.388 329.5 381.62 323.282C381.62 323.282 415.222 324.181 418.301 352.968Z" fill="white"/>
<path d="M439.729 235.627C439.516 235.53 437.433 234.516 436.838 234.231C433.553 232.622 429.279 230.521 424.658 229.088H424.634C423.972 228.887 423.322 228.693 422.648 228.523H422.624C420.134 227.879 417.578 227.473 415.058 227.473H414.9C414.263 227.479 413.68 227.509 413.133 227.57C413.127 227.57 413.127 227.57 413.127 227.57C408.95 228.019 407.098 229.914 406.272 231.529C405.027 233.97 405.404 237.109 406.539 239.768C407.031 240.928 407.675 242.003 408.385 242.877C412.144 247.474 412.927 254.299 410.298 259.472C408.069 263.856 403.922 266.272 398.621 266.272H398.13C392.829 266.272 388.676 263.856 386.453 259.472C383.818 254.299 384.607 247.474 388.36 242.877C389.076 242.003 389.714 240.928 390.212 239.768C391.347 237.109 391.718 233.97 390.479 231.529C389.532 229.683 387.255 227.473 381.687 227.473C379.464 227.473 377.212 227.807 374.996 228.317C374.255 228.493 373.514 228.687 372.785 228.9C372.779 228.906 372.779 228.906 372.773 228.906C372.773 228.906 372.773 228.906 372.767 228.906C367.897 230.326 363.35 232.543 359.907 234.231C359.354 234.498 358.747 234.783 358.207 235.038L357.678 235.33L357.915 235.894C358.164 236.38 358.431 236.915 358.705 237.431C359.093 238.159 359.506 238.936 359.931 239.768C362.572 244.851 365.675 251.596 365.675 258.039C365.675 262.016 364.339 264.736 361.801 265.926C358.371 267.523 353.483 266.108 350.617 263.959C349.153 262.86 347.477 262.022 345.698 261.445L345.68 261.433C345.68 261.433 345.674 261.433 345.662 261.433C341.685 260.152 337.198 260.213 333.403 261.743C333.391 261.743 333.384 261.749 333.378 261.749C333.378 261.749 333.378 261.749 333.372 261.755C333.129 261.852 332.893 261.955 332.656 262.065C330.816 262.921 329.28 264.093 328.096 265.507C328.09 265.513 328.084 265.519 328.084 265.519L328.078 265.526C326.657 267.232 325.728 269.296 325.37 271.604V271.616C325.26 272.32 325.206 273.049 325.206 273.796V274.263C325.206 275.878 325.461 277.402 325.959 278.793V278.805L325.965 278.817C326.717 280.948 328.017 282.782 329.796 284.221C330.646 284.907 331.599 285.502 332.656 285.994C333.949 286.601 335.346 287.026 336.779 287.275H336.791C339.074 287.67 341.472 287.615 343.768 287.13C346.057 286.656 348.249 285.751 350.131 284.452L350.143 284.446L350.155 284.434C350.313 284.324 350.465 284.215 350.617 284.1C352.056 283.025 354.005 282.132 356.027 281.713C356.245 281.665 356.47 281.622 356.689 281.592L356.834 281.568C358.577 281.319 360.326 281.446 361.801 282.138C364.339 283.322 365.675 286.055 365.675 290.02C365.675 297.506 361.479 305.412 358.705 310.628C358.437 311.144 358.176 311.63 357.927 312.103L357.897 312.164L357.654 312.729L358.164 312.99C358.711 313.251 359.287 313.53 359.907 313.84C362.785 315.243 366.434 317.022 370.405 318.4H370.411C370.411 318.4 370.436 318.406 370.484 318.424C371.954 318.934 373.465 319.384 374.996 319.742C377.212 320.258 379.464 320.586 381.687 320.586C387.255 320.586 389.532 318.376 390.479 316.536C392.258 313.02 390.716 308.06 388.36 305.187C384.607 300.591 383.818 293.772 386.453 288.593C388.676 284.209 392.829 281.786 398.124 281.786H398.621C403.922 281.786 408.069 284.209 410.298 288.593C412.927 293.772 412.144 300.591 408.385 305.187C407.972 305.685 407.59 306.25 407.244 306.863L407.238 306.869C407.238 306.869 407.232 306.882 407.219 306.912C405.701 309.584 404.924 313.099 405.987 315.892C406.072 316.111 406.163 316.33 406.272 316.536C407.213 318.376 409.502 320.586 415.058 320.586C422.484 320.586 430.226 317.052 435.697 314.393C436.091 314.204 436.468 314.022 436.838 313.84C437.458 313.53 439.54 312.528 439.729 312.437L440.336 312.14V235.888L439.729 235.627ZM410.274 303.518C410.261 303.542 410.249 303.566 410.237 303.591L410.225 303.603C410.243 303.578 410.261 303.548 410.274 303.518Z" fill="#3AB3C6"/>
<path d="M438.587 361.765C421.883 354.479 408.002 348.498 406.126 347.915C401.092 346.343 378.742 340.993 378.116 338.789" stroke="#3C2F4B" stroke-width="4.25036" stroke-miterlimit="10" stroke-linecap="round" stroke-linejoin="round"/>
<path d="M561.07 429.31C548.932 424.167 532.884 415.496 517.23 400.79L503.065 390.091C503.065 390.091 499.057 388.318 492.669 385.507" stroke="#3C2F4B" stroke-width="4.25036" stroke-miterlimit="10" stroke-linecap="round" stroke-linejoin="round"/>
<path d="M506.532 338.157C514.086 337.21 524.784 327.459 526.363 325.254C527.936 323.05 550.596 298.186 547.451 287.171C544.306 276.157 533.917 273.005 533.917 273.005C533.917 273.005 500.242 262.307 486.076 239.956C486.076 239.956 451.769 236.179 445.163 226.421C445.163 226.421 423.134 229.882 414.633 228.941C406.133 228 392.604 221.388 392.604 221.388" stroke="#3C2F4B" stroke-width="4.25036" stroke-miterlimit="10" stroke-linecap="round" stroke-linejoin="round"/>
<path d="M440.287 316.335C441.137 316.56 442.024 316.809 442.953 317.076C465.929 323.688 498.972 339.105 506.526 338.164" stroke="#3C2F4B" stroke-width="4.25036" stroke-miterlimit="10" stroke-linecap="round" stroke-linejoin="round"/>
<path d="M378.117 338.79C377.946 338.189 377.77 336.094 378.08 333.398" stroke="#3C2F4B" stroke-width="4.25036" stroke-miterlimit="10" stroke-linecap="round" stroke-linejoin="round"/>
<path d="M513.545 333.378C513.545 333.378 492.475 311.137 492.67 310.748C492.864 310.359 499.501 298.07 495.791 284.803C495.791 284.803 497.546 283.242 497.157 282.07C497.157 282.07 513.934 290.067 525.058 278.561C525.058 278.561 527.25 293.042 543.255 296.88" stroke="#3C2F4B" stroke-width="4.25036" stroke-miterlimit="10" stroke-linecap="round" stroke-linejoin="round"/>
<path d="M495.797 284.804C495.797 284.804 490.727 271.343 482.335 269.782" stroke="#3C2F4B" stroke-width="4.25036" stroke-miterlimit="10" stroke-linecap="round" stroke-linejoin="round"/>
<path d="M492.67 310.748C492.67 310.748 476.488 312.278 471.6 318.745" stroke="#3C2F4B" stroke-width="4.25036" stroke-miterlimit="10" stroke-linecap="round" stroke-linejoin="round"/>
<path d="M525.058 278.556C525.058 278.556 523.734 273.309 525.058 271.725" stroke="#3C2F4B" stroke-width="4.25036" stroke-miterlimit="10" stroke-linecap="round" stroke-linejoin="round"/>
<path d="M524.766 336.198C525.786 336.993 558.362 318.747 565.873 291.921" stroke="#3C2F4B" stroke-width="4.25036" stroke-miterlimit="10" stroke-linecap="round" stroke-linejoin="round"/>
<path d="M544.968 230.374L565.63 241.686C565.63 241.686 587.265 247.102 595.328 252.172" stroke="#3C2F4B" stroke-width="4.25036" stroke-miterlimit="10" stroke-linecap="round" stroke-linejoin="round"/>
<path d="M394.085 207.587C394.085 207.587 393.375 211.697 396.35 213.962C396.35 213.962 410.182 211.558 420.766 202.626C420.772 202.632 401.032 203.761 394.085 207.587Z" fill="white"/>
<path d="M401.256 328.491C401.256 328.491 417.134 337.229 418.3 352.967" stroke="#3C2F4B" stroke-width="4.25036" stroke-miterlimit="10" stroke-linecap="round" stroke-linejoin="round"/>
<path d="M402.865 212.238C402.865 212.238 418.221 207.289 420.772 202.626" stroke="#3C2F4B" stroke-width="4.25036" stroke-miterlimit="10" stroke-linecap="round" stroke-linejoin="round"/>
<path d="M437.287 198.103L435.982 208.297" stroke="#3C2F4B" stroke-width="4.25036" stroke-miterlimit="10" stroke-linecap="round" stroke-linejoin="round"/>
<path d="M497.09 207.436C497.09 207.436 494.066 213.404 492.669 223.223" stroke="#3C2F4B" stroke-width="4.25036" stroke-miterlimit="10" stroke-linecap="round" stroke-linejoin="round"/>
<path d="M62.0774 464.57H141.942" stroke="#3C2F4B" stroke-width="4.25036" stroke-miterlimit="10" stroke-linecap="round" stroke-linejoin="round"/>
<path d="M272.55 465.128H321.544" stroke="#3C2F4B" stroke-width="4.25036" stroke-miterlimit="10" stroke-linecap="round" stroke-linejoin="round"/>
<path d="M297.784 17.8926L336.511 55.5751" stroke="#3C2F4B" stroke-width="4.25036" stroke-miterlimit="10" stroke-linecap="round" stroke-linejoin="round"/>
</svg>
