<svg width="639" height="679" viewBox="0 0 639 679" fill="none" xmlns="http://www.w3.org/2000/svg">
<path d="M560 23.9316V365.945C560 367.848 559.763 369.725 559.302 371.539C558.187 375.973 555.758 380.016 552.279 383.104L541.477 392.689L537.786 395.957L534.076 399.244L524.427 407.797L516.533 414.788L516.527 414.794L516.411 414.897L498.574 430.71L485.509 442.281L484.715 442.993L475.29 451.341L468.523 457.338L464.583 460.83L463.077 462.163L458.81 465.95L454.171 470.063L450.359 473.446C450.352 473.446 450.352 473.446 450.352 473.446L449.923 473.824C449.923 473.831 449.917 473.831 449.917 473.831L448.866 474.76L421.565 498.96L418.649 501.542L414.555 505.169L406.335 512.454C402.151 516.125 396.788 518.143 391.22 518.143H101.938C100.874 518.143 99.83 518.073 98.8113 517.932C87.6242 516.407 79 506.815 79 495.212V23.9316C79 11.2644 89.2708 1 101.938 1H537.068C549.736 1 560 11.2644 560 23.9316Z" fill="#AED9D6"/>
<path d="M488.681 73.6256C487.374 69.4545 483.472 66.4238 478.878 66.4238C474.22 66.4238 470.273 69.5442 469.023 73.805C468.754 74.7212 468.607 75.6887 468.607 76.6947C468.607 81.6411 472.125 85.7866 476.789 86.7477C477.462 86.8886 478.16 86.9655 478.871 86.9655C479.929 86.9655 480.947 86.8053 481.902 86.5106C486.086 85.2163 489.142 81.3079 489.142 76.7011C489.149 75.6247 488.982 74.5931 488.681 73.6256ZM481.043 83.3518C480.364 83.5697 479.634 83.6914 478.878 83.6914C478.391 83.6914 477.917 83.6402 477.455 83.544C474.277 82.8841 471.881 80.0649 471.881 76.6947C471.881 75.7016 472.092 74.7533 472.47 73.8947C473.547 71.4215 476.014 69.6979 478.878 69.6979C481.742 69.6979 484.215 71.4279 485.291 73.8947C485.669 74.7469 485.881 75.6951 485.881 76.6947C485.875 79.7958 483.843 82.4356 481.043 83.3518Z" fill="#3C2F4B"/>
<path d="M485.797 191.782C485.919 191.417 470.984 238.766 470.984 238.766L459.329 221.409L439.665 228.816C439.665 228.816 451.442 188.995 454.235 183.049C457.753 184.74 485.797 191.782 485.797 191.782Z" fill="#013B57"/>
<path opacity="0.24" d="M485.797 191.782C485.919 191.417 470.984 238.766 470.984 238.766L459.329 221.409L439.665 228.816C439.665 228.816 451.442 188.995 454.235 183.049C457.753 184.74 485.797 191.782 485.797 191.782Z" fill="#3C2F4B"/>
<path d="M468.607 192.826C468.485 192.461 483.42 239.81 483.42 239.81L495.075 222.453L514.739 229.86C514.739 229.86 502.962 190.039 500.169 184.093C496.651 185.784 468.607 192.826 468.607 192.826Z" fill="#013B57"/>
<path d="M479.345 108.667C477.936 108.667 476.789 107.52 476.789 106.111V85.2616C476.789 83.852 477.936 82.7051 479.345 82.7051C480.755 82.7051 481.902 83.852 481.902 85.2616V106.111C481.908 107.52 480.761 108.667 479.345 108.667Z" fill="#3C2F4B"/>
<path d="M481.908 105.233C481.139 104.829 480.274 104.599 479.352 104.599C478.429 104.599 477.558 104.829 476.795 105.227C475.065 106.149 473.88 107.969 473.88 110.064C473.88 110.474 473.925 110.878 474.014 111.262C474.559 113.703 476.744 115.529 479.352 115.529C481.876 115.529 484.016 113.806 484.638 111.467C484.759 111.019 484.824 110.545 484.824 110.058C484.824 107.975 483.638 106.156 481.908 105.233ZM479.345 112.268C478.493 112.268 477.75 111.781 477.391 111.07C477.237 110.769 477.148 110.423 477.148 110.064C477.148 109.34 477.5 108.693 478.038 108.302C478.403 108.027 478.858 107.86 479.345 107.86C479.832 107.86 480.294 108.02 480.659 108.302C481.203 108.699 481.549 109.34 481.549 110.064C481.549 110.455 481.447 110.826 481.267 111.14C480.889 111.813 480.172 112.268 479.345 112.268Z" fill="#3C2F4B"/>
<path d="M478.416 203.501C503.944 203.501 524.638 182.806 524.638 157.279C524.638 131.751 503.944 111.057 478.416 111.057C452.889 111.057 432.194 131.751 432.194 157.279C432.194 182.806 452.889 203.501 478.416 203.501Z" fill="#013B57"/>
<g opacity="0.24">
<path opacity="0.24" d="M478.41 122.75C473.182 122.75 468.229 123.916 463.782 126.005C452.038 131.515 443.881 143.465 443.881 157.279C443.881 167.889 448.687 177.398 456.241 183.734L456.337 183.818C459.476 186.432 463.084 188.495 467.011 189.879C469.183 190.641 471.452 191.192 473.803 191.506C475.309 191.711 476.847 191.814 478.41 191.814C480.332 191.814 482.222 191.654 484.061 191.346C490.084 190.353 495.594 187.797 500.137 184.1C503.783 181.146 506.813 177.462 509.005 173.278C511.523 168.498 512.945 163.045 512.945 157.279C512.945 138.236 497.459 122.75 478.41 122.75ZM478.41 187.137C474.418 187.137 470.606 186.349 467.127 184.92C464.327 183.773 461.745 182.216 459.451 180.326C452.8 174.847 448.552 166.544 448.552 157.272C448.552 145.316 455.613 134.981 465.781 130.221C469.619 128.42 473.893 127.421 478.41 127.421C494.877 127.421 508.274 140.812 508.274 157.279C508.274 162.219 507.07 166.89 504.93 170.997C499.958 180.576 489.937 187.137 478.41 187.137Z" fill="#3C2F4B"/>
</g>
<path d="M233.601 74.5107C233.601 74.5107 189.449 178.168 188.917 253.613H242.283C242.283 253.613 301.685 113.569 300.115 114.639C298.545 115.716 264.766 78.0988 264.766 78.0988L233.601 74.5107Z" fill="#38B3C6"/>
<path opacity="0.24" d="M233.601 74.5107C233.601 74.5107 189.449 178.168 188.917 253.613H242.283C242.283 253.613 301.685 113.569 300.115 114.639C298.545 115.716 264.766 78.0988 264.766 78.0988L233.601 74.5107Z" fill="#3C2F4B"/>
<path d="M198.335 183.696C192.941 207.224 189.077 231.616 188.917 253.613H242.283C242.283 253.613 301.685 113.569 300.115 114.639" stroke="#3C2F4B" stroke-width="4.53171" stroke-miterlimit="10" stroke-linecap="round" stroke-linejoin="round"/>
<path d="M560 264.954V365.946C560 367.849 559.763 369.726 559.301 371.539C558.187 375.973 555.758 380.016 552.279 383.104L541.476 392.69L537.786 395.957L534.076 399.244L524.427 407.798L516.533 414.788L516.527 414.795L516.411 414.897C514.137 412.892 511.728 410.777 509.216 408.58C508.447 407.913 507.672 407.234 506.884 406.548C504.987 404.895 503.033 403.204 501.034 401.474C500.56 401.07 500.086 400.66 499.605 400.25C495.293 396.534 490.782 392.689 486.163 388.8C480.082 383.681 473.816 378.491 467.562 373.442C467.562 373.442 467.562 373.442 467.556 373.442C461.129 368.252 454.722 363.203 448.545 358.526L448.513 358.5C430.394 344.77 414.299 334.23 405.783 332.57C405.399 332.493 405.034 332.436 404.681 332.397C404.681 332.397 397.089 333.333 384.633 332.929C373.625 332.577 358.825 331.173 342.102 327.162C342.044 327.15 341.993 327.137 341.935 327.124C341.621 327.047 341.307 326.97 340.993 326.887C337.86 326.124 334.663 325.266 331.414 324.298C330.934 324.157 330.607 324.061 330.466 324.016C330.056 323.895 329.646 323.767 329.236 323.638C329.172 323.626 329.101 323.6 329.031 323.581C328.326 323.363 327.621 323.139 326.916 322.914C326.91 322.914 326.903 322.908 326.897 322.908C326.244 322.697 325.59 322.485 324.93 322.261C324.116 321.992 323.296 321.716 322.47 321.428C321.733 321.172 320.996 320.915 320.259 320.653C320.227 320.64 320.189 320.621 320.144 320.608C319.586 320.403 319.023 320.198 318.459 319.986C317.632 319.685 316.806 319.378 315.979 319.057C315.761 318.974 315.537 318.884 315.306 318.794C314.691 318.557 314.076 318.314 313.461 318.064C312.705 317.763 311.955 317.455 311.199 317.141C311.186 317.141 311.167 317.135 311.148 317.122C310.469 316.84 309.79 316.552 309.104 316.264C308.271 315.905 307.438 315.546 306.599 315.168C305.856 314.841 305.112 314.502 304.369 314.162C304.305 314.136 304.241 314.104 304.177 314.072C303.619 313.816 303.056 313.553 302.498 313.291C302.242 313.169 301.979 313.047 301.717 312.919C301.037 312.599 300.358 312.265 299.679 311.932C299.013 311.606 298.34 311.272 297.667 310.933C296.693 310.439 295.713 309.933 294.733 309.421C293.919 308.991 293.105 308.556 292.298 308.101C290.959 307.383 289.626 306.633 288.287 305.865C287.313 305.301 286.345 304.737 285.378 304.147C284.737 303.769 284.097 303.379 283.456 302.981C283.411 302.956 283.36 302.93 283.315 302.898C282.591 302.45 281.86 301.995 281.136 301.533C281.085 301.501 281.034 301.469 280.976 301.431C280.38 301.053 279.784 300.668 279.182 300.277C278.798 300.028 278.42 299.778 278.035 299.515C277.439 299.131 276.85 298.733 276.254 298.323C275.633 297.907 275.005 297.478 274.383 297.042C274.217 296.926 274.056 296.818 273.89 296.696C273.39 296.343 272.89 295.991 272.39 295.632C271.378 294.915 270.372 294.178 269.366 293.428C268.649 292.896 267.937 292.358 267.22 291.807C267.213 291.801 267.201 291.794 267.194 291.788C266.835 291.519 266.477 291.237 266.118 290.955C264.945 290.051 263.779 289.122 262.619 288.174C262.619 288.174 254.77 282.658 245.826 275.135C243.981 273.578 242.084 271.938 240.2 270.247C239.316 269.459 238.432 268.645 237.554 267.825C237.086 267.383 236.619 266.947 236.157 266.498C234.171 264.602 232.255 262.66 230.481 260.725C228.276 258.329 226.297 255.933 224.676 253.613C223.657 252.159 222.785 250.736 222.093 249.365C221.728 248.654 221.414 247.956 221.158 247.27L224.772 232.944L230.935 208.493L237.125 183.96L237.189 183.697L235.222 181.006L233.434 178.559L221.555 162.316C221.555 162.316 221.562 161.804 221.6 160.919C221.671 159.266 221.863 156.325 222.337 153.064C222.337 153.051 222.337 153.038 222.343 153.026C222.92 149.143 223.9 144.818 225.585 141.691L240.508 132.292C240.508 132.292 237.983 130.889 235.087 128.236C235.081 128.23 235.075 128.223 235.068 128.223C234.588 127.781 234.094 127.307 233.601 126.794C233.601 126.794 233.601 126.794 233.601 126.788C230.75 123.834 227.892 119.746 226.957 114.653C226.957 114.653 226.95 114.653 226.957 114.646C226.957 114.646 226.95 114.646 226.957 114.64C226.957 114.64 226.95 114.64 226.95 114.633C226.655 113.057 226.553 111.391 226.687 109.629C226.687 109.629 226.085 94.0083 238.195 89.6642C239.745 89.1004 241.507 88.7287 243.507 88.6006C238.515 86.153 234.447 83.2441 231.429 79.8034C227.873 75.754 225.778 70.9678 225.374 65.3294C225.368 65.2461 225.361 65.1564 225.348 65.0731C225.323 64.8424 225.316 64.6887 225.316 64.6246C225.124 60.6969 225.746 56.3592 227.238 51.5858C227.238 51.5858 227.52 51.6819 228.11 51.8293C230.545 52.4508 238.195 54.0206 252.63 53.8668C252.957 53.8668 253.297 53.8604 253.636 53.854C254.309 53.8476 255.001 53.8283 255.706 53.8091C256.77 53.7835 257.859 53.7515 258.986 53.7002C260.114 53.6554 261.267 53.5977 262.466 53.5272C262.517 53.5272 262.575 53.5272 262.632 53.5208C264.567 53.4055 266.592 53.2709 268.713 53.0979H268.719C279.214 52.2458 291.945 50.6055 307.176 47.7158C307.176 47.7158 353.436 73.6653 387.548 83.6478C387.548 83.6478 420.975 120.4 443.125 158.337C445.886 163.053 448.469 167.788 450.782 172.472C451.749 174.413 452.659 176.342 453.524 178.257C454.415 180.231 455.254 182.185 456.029 184.127H456.036C458.195 189.521 459.893 194.763 460.976 199.741C460.976 199.741 478.967 220.949 495.549 228.138C497.894 229.15 501.963 231.278 507.217 234.187C508.96 235.141 510.824 236.192 512.81 237.313C517.014 239.684 521.723 242.394 526.74 245.31C528.098 246.098 529.482 246.905 530.885 247.725C530.892 247.731 530.892 247.738 530.898 247.738C540.105 253.114 550.152 259.072 560 264.954Z" fill="#D76E6D"/>
<path opacity="0.24" d="M222.343 153.025C222.343 153.025 238.406 166.987 264.766 136.392C264.766 136.392 238.253 133.163 233.607 126.788C228.962 120.412 226.95 114.633 226.95 114.633C226.95 114.633 256.814 129.863 279.65 104.9C279.65 104.9 285.769 122.238 285.897 123.417C286.032 124.59 258.781 166.109 258.897 168.851C259.012 171.594 240.514 189.22 240.514 189.22L225.38 165.718C225.374 165.718 219.101 164.36 222.343 153.025Z" fill="#3C2F4B"/>
<path opacity="0.24" d="M363.181 225.62C355.768 245.938 299.98 290.462 288.171 282.594C276.363 274.725 285.897 241.19 285.897 241.19L275.267 238.845L318.83 157.453C318.83 157.453 314.48 120.509 312.936 120.97C311.398 121.425 285.89 104.914 285.89 104.914C285.89 104.914 256.026 102.402 238.188 89.6707C239.739 89.1069 241.501 88.7353 243.5 88.6071C232.633 83.2827 226.117 75.7606 225.367 65.3359C225.797 68.9048 229.359 84.2886 258.884 86.1531C281.463 87.582 294.431 79.5537 300.48 74.1844C302.421 72.4608 305.484 73.3258 306.24 75.8118C308.297 82.5779 312.57 92.6757 320.022 94.1686C331.382 96.4432 354.999 120.97 364.995 156.857C374.99 192.732 370.595 205.309 363.181 225.62Z" fill="#3C2F4B"/>
<path opacity="0.24" d="M534.076 399.243L524.427 407.797L516.533 414.787L516.527 414.794L516.411 414.896C514.137 412.891 511.728 410.776 509.216 408.579C508.447 407.912 507.672 407.233 506.884 406.548C504.987 404.895 503.033 403.203 501.034 401.473C500.56 401.069 500.086 400.659 499.605 400.249C495.293 396.533 490.782 392.689 486.163 388.8C480.082 383.68 473.816 378.49 467.562 373.441C467.562 373.441 467.562 373.441 467.556 373.441C461.129 368.251 454.722 363.203 448.546 358.525L448.514 358.5C430.394 344.769 414.299 334.229 405.783 332.569C405.399 332.492 405.034 332.435 404.681 332.396C404.681 332.396 397.089 333.332 384.633 332.928C373.625 332.576 358.825 331.173 342.102 327.162C342.044 327.149 341.993 327.136 341.935 327.123C341.621 327.046 341.307 326.969 340.993 326.886C337.86 326.124 334.663 325.265 331.414 324.298C330.934 324.157 330.607 324.061 330.466 324.016C330.056 323.894 329.646 323.766 329.236 323.638C329.172 323.625 329.101 323.599 329.031 323.58C328.326 323.362 327.621 323.138 326.916 322.914C326.91 322.914 326.904 322.907 326.897 322.907C326.244 322.696 325.59 322.484 324.93 322.26C324.116 321.991 323.296 321.715 322.47 321.427C321.733 321.171 320.996 320.915 320.259 320.652C320.227 320.639 320.189 320.62 320.144 320.607C319.586 320.402 319.023 320.197 318.459 319.985C317.632 319.684 316.806 319.377 315.979 319.056C315.761 318.973 315.537 318.883 315.306 318.794C314.691 318.557 314.076 318.313 313.461 318.063C312.705 317.762 311.955 317.455 311.199 317.141C311.187 317.141 311.167 317.134 311.148 317.121C310.469 316.84 309.79 316.551 309.104 316.263C308.271 315.904 307.438 315.545 306.599 315.167C305.856 314.84 305.112 314.501 304.369 314.161C304.305 314.136 304.241 314.104 304.177 314.072C303.62 313.815 303.056 313.553 302.498 313.29C302.242 313.168 301.979 313.046 301.717 312.918C301.037 312.598 300.358 312.265 299.679 311.932C299.013 311.605 298.34 311.272 297.667 310.932C296.693 310.439 295.713 309.932 294.733 309.42C293.919 308.991 293.105 308.555 292.298 308.1C290.959 307.382 289.626 306.633 288.287 305.864C287.313 305.3 286.346 304.736 285.378 304.147C284.737 303.769 284.097 303.378 283.456 302.981C283.411 302.955 283.36 302.929 283.315 302.897C282.591 302.449 281.86 301.994 281.136 301.533C281.085 301.501 281.034 301.468 280.976 301.43C280.38 301.052 279.785 300.668 279.182 300.277C278.798 300.027 278.42 299.777 278.035 299.514C277.439 299.13 276.85 298.733 276.254 298.323C275.633 297.906 275.005 297.477 274.383 297.041C274.217 296.926 274.056 296.817 273.89 296.695C273.39 296.343 272.89 295.99 272.391 295.631C271.378 294.914 270.372 294.177 269.366 293.427C268.649 292.896 267.938 292.357 267.22 291.806C267.213 291.8 267.201 291.794 267.194 291.787C266.835 291.518 266.477 291.236 266.118 290.954C264.945 290.051 263.779 289.122 262.619 288.173C262.619 288.173 254.771 282.657 245.826 275.135C243.981 273.578 242.084 271.937 240.2 270.246C239.316 269.458 238.432 268.644 237.554 267.824C237.087 267.382 236.619 266.946 236.157 266.498C234.171 264.601 232.255 262.66 230.481 260.725C228.277 258.328 226.297 255.932 224.676 253.613C223.657 252.158 222.785 250.736 222.094 249.365L224.772 238.735L229.372 231.411L252.848 228.643L255.431 228.336L258.66 234.519L258.666 234.525L260.704 238.421L273.563 263.031L279.093 273.616C279.093 273.616 280.252 274.436 282.386 275.788C282.841 276.076 283.334 276.39 283.879 276.724C286.634 278.422 290.491 280.671 295.213 283.086C301.813 286.463 310.097 290.179 319.413 293.184C337.213 298.938 358.773 302.128 379.526 295.535C399.844 289.083 416.778 276.205 429.561 263.486C431.464 261.59 433.277 259.7 434.988 257.835C436.91 255.753 438.71 253.702 440.383 251.71C440.402 251.697 440.415 251.678 440.434 251.658C441.28 250.646 442.106 249.647 442.894 248.673C443.471 247.955 444.131 247.398 444.836 246.988C449.257 244.386 455.504 247.519 455.363 253.292V253.331C455.337 254.208 455.312 255.099 455.292 256.009C455.26 257.335 455.228 258.7 455.209 260.084C455.132 265.389 455.145 271.06 455.312 276.845C455.363 278.53 455.421 280.228 455.497 281.926C456.055 294.376 457.4 306.998 460.13 317.275C460.13 317.275 460.835 318.954 462.308 321.888C468.895 334.985 490.833 373.14 534.076 399.243Z" fill="#3C2F4B"/>
<path d="M516.411 414.898C514.137 412.892 511.728 410.778 509.216 408.58C508.447 407.907 507.672 407.228 506.884 406.549C504.987 404.896 503.033 403.204 501.034 401.475C500.56 401.071 500.086 400.661 499.605 400.251C495.293 396.534 490.782 392.69 486.162 388.801L448.545 358.527L448.513 358.501" stroke="#3C2F4B" stroke-width="4.53171" stroke-miterlimit="10" stroke-linecap="round" stroke-linejoin="round"/>
<path d="M240.2 270.246C251.189 280.139 262.619 288.174 262.619 288.174C285.135 306.53 308.88 317.5 330.376 323.99C330.376 323.99 366.116 334.774 384.627 332.928" stroke="#3C2F4B" stroke-width="4.53171" stroke-miterlimit="10" stroke-linecap="round" stroke-linejoin="round"/>
<path d="M240.508 132.291C240.508 132.291 225.585 124 226.687 109.629" stroke="#3C2F4B" stroke-width="4.53171" stroke-miterlimit="10" stroke-linecap="round" stroke-linejoin="round"/>
<path d="M237.189 183.696L221.555 162.315" stroke="#3C2F4B" stroke-width="4.53171" stroke-miterlimit="10" stroke-linecap="round" stroke-linejoin="round"/>
<path d="M245.621 130.645C245.621 130.645 317.632 148.713 320.375 148.713C323.111 148.713 332.42 150.084 332.42 150.084" stroke="#3C2F4B" stroke-width="4.53171" stroke-miterlimit="10" stroke-linecap="round" stroke-linejoin="round"/>
<path d="M304.76 450.157C302.767 444.8 297.603 440.981 291.567 440.981C286.345 440.981 281.783 443.833 279.355 448.061C278.157 450.125 277.478 452.521 277.478 455.071C277.478 461.856 282.302 467.54 288.703 468.859C289.626 469.052 290.587 469.154 291.567 469.154C293.009 469.154 294.406 468.936 295.719 468.526C301.467 466.751 305.651 461.395 305.651 455.071C305.651 453.341 305.337 451.688 304.76 450.157ZM294.534 464.201C293.598 464.503 292.605 464.669 291.567 464.669C290.901 464.669 290.247 464.599 289.613 464.47C285.25 463.567 281.963 459.697 281.963 455.071C281.963 453.399 282.392 451.823 283.148 450.458V450.451C284.782 447.478 287.941 445.467 291.567 445.467C294.918 445.467 297.872 447.19 299.589 449.804C300.589 451.316 301.165 453.123 301.165 455.071C301.165 459.325 298.378 462.946 294.534 464.201Z" fill="#3C2F4B"/>
<path d="M301.057 612.933C301.223 612.433 280.739 677.377 280.739 677.377L264.753 653.561L237.779 663.717C237.779 663.717 253.931 609.095 257.763 600.938C262.594 603.277 301.057 612.933 301.057 612.933Z" fill="#F0545B"/>
<path opacity="0.24" d="M301.057 612.933C301.223 612.433 280.739 677.377 280.739 677.377L264.753 653.561L237.779 663.717C237.779 663.717 253.931 609.095 257.763 600.938C262.594 603.277 301.057 612.933 301.057 612.933Z" fill="#3C2F4B"/>
<path d="M277.478 614.368C277.311 613.869 297.796 678.813 297.796 678.813L313.782 654.997L340.756 665.152C340.756 665.152 324.604 610.53 320.772 602.374C315.941 604.713 277.478 614.368 277.478 614.368Z" fill="#F0545B"/>
<path d="M292.214 498.928C290.279 498.928 288.71 497.359 288.71 495.424V466.828C288.71 464.893 290.279 463.323 292.214 463.323C294.149 463.323 295.719 464.893 295.719 466.828V495.424C295.719 497.359 294.149 498.928 292.214 498.928Z" fill="#3C2F4B"/>
<path d="M295.719 494.22C294.669 493.656 293.477 493.342 292.208 493.342C290.94 493.342 289.748 493.656 288.703 494.22C286.326 495.475 284.705 497.981 284.705 500.851C284.705 501.415 284.769 501.966 284.891 502.498C285.641 505.849 288.639 508.354 292.208 508.354C295.681 508.354 298.609 505.99 299.461 502.78C299.628 502.165 299.718 501.517 299.718 500.851C299.718 497.981 298.097 495.475 295.719 494.22ZM292.208 503.869C291.042 503.869 290.03 503.203 289.524 502.229C289.312 501.812 289.19 501.344 289.19 500.851C289.19 499.858 289.671 498.974 290.414 498.429C290.914 498.051 291.542 497.827 292.208 497.827C292.881 497.827 293.509 498.051 294.009 498.429C294.752 498.98 295.232 499.858 295.232 500.851C295.232 501.389 295.092 501.889 294.835 502.331C294.323 503.247 293.336 503.869 292.208 503.869Z" fill="#3C2F4B"/>
<path d="M290.933 629.009C325.948 629.009 354.333 600.624 354.333 565.609C354.333 530.594 325.948 502.209 290.933 502.209C255.918 502.209 227.533 530.594 227.533 565.609C227.533 600.624 255.918 629.009 290.933 629.009Z" fill="#F79652"/>
<g opacity="0.24">
<path opacity="0.24" d="M290.927 518.241C264.811 518.241 243.564 539.494 243.564 565.61C243.564 580.225 250.215 593.315 260.652 602.016C267.342 607.584 275.575 611.352 284.616 612.556C286.679 612.838 288.787 612.979 290.927 612.979C293.573 612.979 296.168 612.761 298.699 612.338C306.958 610.974 314.499 607.462 320.733 602.401C331.44 593.706 338.296 580.443 338.296 565.61C338.296 539.494 317.049 518.241 290.927 518.241ZM290.927 606.572C268.348 606.572 249.971 588.196 249.971 565.61C249.971 543.025 268.348 524.648 290.927 524.648C313.512 524.648 331.888 543.025 331.888 565.61C331.888 588.196 313.512 606.572 290.927 606.572Z" fill="#3C2F4B"/>
</g>
<path d="M250.279 181.025C251.099 180.48 305.587 192.308 309.969 191.732C314.352 191.155 332.42 191.732 332.42 191.732" stroke="#3C2F4B" stroke-width="4.53171" stroke-miterlimit="10" stroke-linecap="round" stroke-linejoin="round"/>
<path d="M242.34 228.939C240.149 228.394 302.389 226.203 307.176 227.843C311.962 229.483 312.949 228.939 312.949 228.939" stroke="#3C2F4B" stroke-width="4.53171" stroke-miterlimit="10" stroke-linecap="round" stroke-linejoin="round"/>
<path d="M263.926 57.1664C254.751 63.7979 245.499 64.5924 245.499 64.5924C234.844 60.9915 230.109 55.3339 228.11 51.8291C231.057 52.5788 241.636 54.7252 262.632 53.5206C264.644 53.4053 265.554 55.9874 263.926 57.1664Z" fill="white"/>
<path d="M243.507 88.6006C243.507 88.6006 279.028 100.576 299.186 100.134L330.376 118.542L340.814 136.95C340.814 136.95 337.745 169.377 345.632 191.732" stroke="#3C2F4B" stroke-width="4.53171" stroke-miterlimit="10" stroke-linecap="round" stroke-linejoin="round"/>
<path d="M319.266 296.215C318.042 322.991 318.081 349.396 318.081 349.396C319.381 394.176 315.915 419.581 311.994 433.869C307.81 449.131 303.101 451.726 303.101 451.726C290.683 443.595 281.258 451.726 281.258 451.726C276.651 443.506 273.166 432.761 270.545 420.837C262.434 383.989 262.536 335.87 263.004 316.033C263.106 311.888 263.222 308.979 263.279 307.665C263.709 298.048 272.698 263.333 272.698 263.333L325.09 245.092C321.957 254.011 320.227 275.232 319.266 296.215Z" fill="#38B3C6"/>
<path opacity="0.24" d="M311.994 433.868C307.81 449.13 303.1 451.725 303.1 451.725C290.683 443.595 281.258 451.725 281.258 451.725C276.651 443.505 273.166 432.76 270.545 420.836C270.545 420.836 285.231 434.266 301.165 432.484C305.157 432.042 308.797 432.664 311.994 433.868Z" fill="#3C2F4B"/>
<path opacity="0.24" d="M325.09 245.092C321.957 254.011 320.227 275.232 319.266 296.215C300.794 307.121 275.479 313.406 263.004 316.033C263.106 311.888 263.222 308.979 263.279 307.665C263.709 298.048 272.698 263.333 272.698 263.333L325.09 245.092Z" fill="#3C2F4B"/>
<path d="M320.804 272.002C321.81 260.38 323.194 250.487 325.09 245.092L272.698 263.327C272.698 263.327 263.709 298.041 263.279 307.659C263.158 310.459 262.773 320.544 262.844 334.396" stroke="#3C2F4B" stroke-width="4.53171" stroke-miterlimit="10" stroke-linecap="round" stroke-linejoin="round"/>
<path d="M269.738 416.992C272.442 430.441 276.165 442.628 281.265 451.726C281.265 451.726 283.392 449.894 286.954 448.836" stroke="#3C2F4B" stroke-width="4.53171" stroke-miterlimit="10" stroke-linecap="round" stroke-linejoin="round"/>
<path d="M342.8 207.128C342.621 211.306 338.001 224.863 329.223 238.908C319.337 254.721 304.177 271.137 284.148 275.43C246.326 283.535 228.962 266.555 228.962 266.555C228.962 266.555 230.513 260.475 232.409 253.581C234.921 244.438 238.054 233.859 238.996 234.141C241.091 234.775 243.167 235.339 245.205 235.833C253.989 237.953 262.209 238.806 269.546 238.908C289.882 239.196 303.44 233.757 303.44 233.757C332.382 220.378 340.871 206.744 335.086 187.06C330.556 171.664 340.558 163.136 340.558 163.136L341.006 168.915C341.006 168.915 336.239 178.962 337.783 182.434C339.327 185.907 343.185 198.254 342.8 207.128Z" fill="#38B3C6"/>
<path opacity="0.24" d="M329.223 238.908C319.337 254.721 304.177 271.136 284.148 275.429C246.326 283.534 228.962 266.555 228.962 266.555C228.962 266.555 230.513 260.474 232.409 253.58C236.843 247.237 241.681 240.605 245.205 235.832C253.989 237.953 262.209 238.805 269.546 238.908C269.546 238.908 295.873 273.744 329.223 238.908Z" fill="#3C2F4B"/>
<path d="M275.267 238.838C264.997 239.229 252.547 238.255 238.996 234.142C237.343 233.642 228.962 266.556 228.962 266.556C228.962 266.556 246.326 283.535 284.142 275.43C321.957 267.325 342.409 216.003 342.8 207.129C343.185 198.255 339.327 185.908 337.783 182.429C336.239 178.956 341.006 168.909 341.006 168.909L340.558 163.13" stroke="#3C2F4B" stroke-width="4.53171" stroke-miterlimit="10" stroke-linecap="round" stroke-linejoin="round"/>
<path d="M326.654 116.344C326.327 130.523 306.528 161.982 301.512 171.625C300.211 174.137 295.066 181.89 288.172 191.994C268.559 220.737 234.754 268.484 234.754 268.484C233.979 282.381 221.158 288.936 221.158 288.936L184.201 256.849C185.649 250.108 195.516 234.026 208.241 215.035H208.247C232.794 178.411 268.014 130.959 274.114 118.759C283.373 100.236 277.997 97.7881 277.997 97.7881L299.186 100.14L326.654 116.344Z" fill="#38B3C6"/>
<path opacity="0.24" d="M288.172 191.994C268.559 220.737 234.754 268.484 234.754 268.484C233.979 282.381 221.158 288.936 221.158 288.936L184.201 256.849C185.649 250.108 195.516 234.026 208.241 215.035H208.247L288.172 191.994Z" fill="#3C2F4B"/>
<path d="M221.158 288.936C221.158 288.936 233.979 282.375 234.748 268.484C234.748 268.484 247.934 249.864 262.613 228.874" stroke="#3C2F4B" stroke-width="4.53171" stroke-miterlimit="10" stroke-linecap="round" stroke-linejoin="round"/>
<path d="M221.555 195.563C202.923 222.429 186.13 247.892 184.201 256.849" stroke="#3C2F4B" stroke-width="4.53171" stroke-miterlimit="10" stroke-linecap="round" stroke-linejoin="round"/>
<path d="M304.491 74.5107C304.491 74.5107 306.131 89.2987 300.108 97.7819" stroke="#3C2F4B" stroke-width="4.53171" stroke-miterlimit="10" stroke-linecap="round" stroke-linejoin="round"/>
<path d="M307.176 47.7158C307.176 47.7158 308.214 54.5203 307.176 60.2741" stroke="#3C2F4B" stroke-width="4.53171" stroke-miterlimit="10" stroke-linecap="round" stroke-linejoin="round"/>
<path d="M330.383 118.548C330.383 118.548 340.641 112.301 342.832 104.907" stroke="#3C2F4B" stroke-width="4.53171" stroke-miterlimit="10" stroke-linecap="round" stroke-linejoin="round"/>
<path d="M342.826 136.392C342.826 136.392 362.816 135.847 369.108 130.645" stroke="#3C2F4B" stroke-width="4.53171" stroke-miterlimit="10" stroke-linecap="round" stroke-linejoin="round"/>
<path d="M336.482 225.62C336.482 225.62 364.463 259.335 404.713 252.768" stroke="#3C2F4B" stroke-width="4.53171" stroke-miterlimit="10" stroke-linecap="round" stroke-linejoin="round"/>
<path d="M392.117 267.825L377.149 251.313" stroke="#3C2F4B" stroke-width="4.53171" stroke-miterlimit="10" stroke-linecap="round" stroke-linejoin="round"/>
<path d="M405.783 332.57C405.783 332.57 426.889 316.833 429.356 299.585C431.823 282.337 439.21 263.672 444.144 256.849" stroke="#3C2F4B" stroke-width="4.53171" stroke-miterlimit="10" stroke-linecap="round" stroke-linejoin="round"/>
<path d="M426.889 336.273C426.344 334.633 443.593 327.239 446.329 311.631C449.065 296.023 456.734 279.05 456.734 279.05" stroke="#3C2F4B" stroke-width="4.53171" stroke-miterlimit="10" stroke-linecap="round" stroke-linejoin="round"/>
<path d="M149.884 266.524C149.134 262.372 145.488 259.213 141.125 259.213C136.761 259.213 133.116 262.372 132.366 266.524C132.276 267.036 132.225 267.568 132.225 268.113C132.225 272.405 135.275 275.994 139.318 276.833C139.901 276.948 140.51 277.012 141.125 277.012C142.041 277.012 142.919 276.871 143.752 276.615C147.378 275.494 150.024 272.104 150.024 268.113C150.024 267.568 149.973 267.036 149.884 266.524ZM142.996 273.879C142.406 274.078 141.778 274.18 141.125 274.18C140.702 274.18 140.292 274.135 139.895 274.059C137.139 273.488 135.057 271.034 135.057 268.113C135.057 267.562 135.128 267.03 135.269 266.524C135.973 263.948 138.331 262.051 141.125 262.051C143.918 262.051 146.276 263.948 146.981 266.524C147.122 267.03 147.192 267.562 147.192 268.113C147.192 270.804 145.43 273.091 142.996 273.879Z" fill="#3C2F4B"/>
<path d="M147.122 367.861C147.224 367.547 134.288 408.579 134.288 408.579L124.19 393.534L107.147 399.954C107.147 399.954 117.354 365.445 119.776 360.287C122.819 361.761 147.122 367.861 147.122 367.861Z" fill="#013B57"/>
<path opacity="0.24" d="M147.122 367.861C147.224 367.547 134.288 408.579 134.288 408.579L124.19 393.534L107.147 399.954C107.147 399.954 117.354 365.445 119.776 360.287C122.819 361.761 147.122 367.861 147.122 367.861Z" fill="#3C2F4B"/>
<path d="M132.225 368.771C132.122 368.457 145.059 409.489 145.059 409.489L155.157 394.445L172.2 400.865C172.2 400.865 161.993 366.355 159.571 361.197C156.528 362.665 132.225 368.771 132.225 368.771Z" fill="#013B57"/>
<path d="M141.535 295.83C140.311 295.83 139.318 294.837 139.318 293.614V275.545C139.318 274.321 140.311 273.328 141.535 273.328C142.759 273.328 143.752 274.321 143.752 275.545V293.614C143.752 294.837 142.759 295.83 141.535 295.83Z" fill="#3C2F4B"/>
<path d="M143.752 292.851C143.092 292.498 142.336 292.3 141.535 292.3C140.734 292.3 139.978 292.498 139.318 292.851C137.819 293.645 136.793 295.228 136.793 297.041C136.793 297.4 136.832 297.746 136.909 298.079C137.383 300.194 139.279 301.783 141.535 301.783C143.726 301.783 145.578 300.283 146.116 298.259C146.219 297.868 146.276 297.464 146.276 297.041C146.276 295.228 145.251 293.645 143.752 292.851ZM141.535 298.951C140.798 298.951 140.157 298.528 139.837 297.913C139.702 297.656 139.625 297.355 139.625 297.041C139.625 296.413 139.927 295.856 140.394 295.51C140.715 295.273 141.112 295.132 141.535 295.132C141.958 295.132 142.355 295.273 142.675 295.51C143.143 295.856 143.444 296.413 143.444 297.041C143.444 297.381 143.355 297.701 143.194 297.977C142.868 298.56 142.246 298.951 141.535 298.951Z" fill="#3C2F4B"/>
<path d="M140.721 378.016C162.845 378.016 180.779 360.081 180.779 337.958C180.779 315.834 162.845 297.899 140.721 297.899C118.598 297.899 100.663 315.834 100.663 337.958C100.663 360.081 118.598 378.016 140.721 378.016Z" fill="#013B57"/>
<g opacity="0.24">
<path opacity="0.24" d="M140.721 308.03C124.223 308.03 110.793 321.46 110.793 337.959C110.793 347.198 115.003 355.47 121.602 360.967C125.831 364.485 131.034 366.862 136.749 367.618C138.049 367.797 139.376 367.887 140.721 367.887C142.387 367.887 144.027 367.752 145.623 367.483C150.845 366.625 155.618 364.401 159.559 361.198C166.325 355.713 170.656 347.332 170.656 337.959C170.656 321.46 157.226 308.03 140.721 308.03ZM140.721 363.844C126.452 363.844 114.842 352.234 114.842 337.959C114.842 323.69 126.452 312.08 140.721 312.08C154.997 312.08 166.607 323.69 166.607 337.959C166.607 352.234 154.997 363.844 140.721 363.844Z" fill="#3C2F4B"/>
</g>
<path d="M233.601 58.2109C233.601 58.2109 240.373 63.9518 245.499 64.5926C245.499 64.5926 253.861 63.3752 258.89 60.2741" stroke="#3C2F4B" stroke-width="4.53171" stroke-miterlimit="10" stroke-linecap="round" stroke-linejoin="round"/>
<path d="M277.997 97.7822C277.997 97.7822 283.174 103.03 275.178 116.556C267.182 130.075 258.891 142.287 258.891 142.287" stroke="#3C2F4B" stroke-width="4.53171" stroke-miterlimit="10" stroke-linecap="round" stroke-linejoin="round"/>
<path opacity="0.24" d="M225.316 64.624C225.329 64.8611 225.355 65.0918 225.374 65.3288C225.329 64.9508 225.316 64.7073 225.316 64.624Z" fill="#3C2F4B"/>
<path d="M387.548 83.6475L370.819 109.629" stroke="#3C2F4B" stroke-width="4.53171" stroke-miterlimit="10" stroke-linecap="round" stroke-linejoin="round"/>
<path d="M164.415 1V255.202C164.415 261.455 159.347 266.524 153.1 266.524H130.662C124.415 266.524 119.346 261.455 119.346 255.202V1H164.415Z" fill="#013B57"/>
<path d="M494.845 1V65.6429C494.845 70.2049 491.148 73.8955 486.592 73.8955H470.241C465.679 73.8955 461.988 70.1985 461.988 65.6429V1H494.845Z" fill="#013B57"/>
</svg>
