<svg width="639" height="587" viewBox="0 0 639 587" fill="none" xmlns="http://www.w3.org/2000/svg">
<path d="M577.595 97.3068V433.734C577.595 438.863 575.843 443.805 572.701 447.763C571.891 448.784 570.991 449.738 570 450.614L555.742 463.26L552.546 466.093H552.54L552.522 466.111L517.166 497.444L504.315 508.826L503.535 509.527L494.261 517.738L487.609 523.64L483.737 527.078L482.257 528.383L478.058 532.105L473.496 536.153L469.744 539.482C469.732 539.482 469.732 539.482 469.732 539.482L469.315 539.85C469.315 539.856 469.303 539.856 469.303 539.856L468.276 540.775L444.647 561.715L438.551 567.117L428.473 576.052L427.79 576.656L426.437 577.853C422.323 581.466 417.042 583.447 411.568 583.447H127.004C114.546 583.447 104.45 573.352 104.45 560.894V97.3068C104.45 84.8488 114.546 74.7471 127.004 74.7471H555.035C567.499 74.7471 577.595 84.8488 577.595 97.3068Z" fill="#AED9D6"/>
<path d="M592.784 137.949C592.827 137.731 592.797 137.664 592.7 137.743C592.487 137.913 592.53 137.979 592.784 137.949Z" fill="#AED9D6"/>
<path d="M577.595 330.069V433.733C577.595 438.862 575.843 443.804 572.701 447.761C571.891 448.782 570.991 449.737 570 450.613L555.742 463.258L552.546 466.092H552.54L552.522 466.11L517.166 497.442L504.315 508.825L503.535 509.526L494.261 517.737L487.609 523.639L483.737 527.077L482.257 528.382L478.058 532.104L473.496 536.152L469.744 539.481C469.732 539.481 469.732 539.481 469.732 539.481L469.315 539.849C469.315 539.855 469.303 539.855 469.303 539.855L468.276 540.774L444.647 561.714L438.551 567.115L428.473 576.051C427.174 575.139 426.008 574.057 424.999 572.837C422.498 569.81 421 565.925 421 561.69V406.756C420.565 406.17 420.124 405.578 419.67 404.98C419.139 404.291 419.272 403.3 419.966 402.769C420.275 402.533 420.637 402.436 421 402.455V343.614C420.51 343.614 420.027 343.391 419.719 342.962C419.211 342.255 419.374 341.27 420.081 340.757C435.753 329.489 452.139 323.006 463.128 319.55C463.962 319.29 464.844 319.749 465.104 320.583C465.11 320.589 465.11 320.589 465.11 320.595C466.445 320.191 467.775 319.798 469.08 319.441C470.421 319.079 471.738 318.734 473.037 318.402C472.85 317.562 473.369 316.723 474.209 316.523C482.25 314.59 483.362 306.645 483.459 305.781V298.205C468.765 289.807 459.842 276.811 458.241 274.346C458.065 274.08 457.957 273.784 457.902 273.47C457.848 273.114 457.763 272.558 457.667 271.839C456.658 264.909 453.703 242.5 455.649 230.803C455.939 229.094 456.205 227.517 456.458 226.061C455.637 224.864 454.628 223.215 453.57 221.366C452.507 219.523 451.401 217.481 450.38 215.506C450.151 215.621 449.909 215.675 449.667 215.675C449.094 215.675 448.538 215.361 448.26 214.817C448.121 214.545 447.988 214.279 447.861 214.019C447.329 212.944 446.852 211.929 446.544 211.264C446.387 210.908 446.242 210.588 446.109 210.286C446.067 210.201 446.03 210.11 445.994 210.026L445.958 209.935C445.861 209.724 445.771 209.512 445.692 209.307C445.68 209.289 445.674 209.271 445.668 209.259C445.614 209.12 445.559 208.987 445.505 208.854C445.456 208.727 445.402 208.582 445.354 208.449C445.305 208.322 445.257 208.195 445.215 208.074C445.203 208.044 445.191 208.014 445.179 207.984C445.172 207.96 445.166 207.935 445.16 207.917C445.033 207.549 444.949 207.253 444.889 207.005C444.472 205.162 445.342 203.096 447.474 200.861C448.628 199.64 450.121 198.444 451.565 197.538L451.51 197.52L452.507 194.91L452.658 194.958L452.67 194.922C452.67 194.922 452.67 194.922 452.67 194.916C451.595 191.581 450.592 187.949 449.849 184.246C447.789 173.981 447.71 163.166 453.583 156.424C467.533 140.413 485.35 133.175 505.239 131.375C507.432 131.169 509.698 131.097 512.018 131.145C512.066 131.139 512.121 131.145 512.175 131.145C527.243 131.478 544.365 137.012 557.15 147.851C559.162 149.554 561.071 151.391 562.841 153.361C563.735 154.345 564.593 155.373 565.415 156.424C571.462 164.199 571.686 174.682 569.892 184.246C569.088 188.584 567.868 192.728 566.581 196.353C566.581 196.353 566.581 196.354 566.581 196.36L566.647 197.181L566.224 197.344C566.224 197.369 566.212 197.393 566.206 197.411C566.333 197.399 566.448 197.393 566.569 197.393C566.593 197.32 566.617 197.248 566.647 197.181C566.708 197.042 566.792 196.909 566.895 196.795C567.475 196.142 568.472 196.076 569.124 196.65C571.644 198.873 575.927 203.761 575.994 208.014C576.012 208.963 575.541 210.739 572.024 217.197C571.734 217.723 571.191 218.019 570.635 218.019C570.381 218.019 570.121 217.959 569.879 217.826C569.879 217.826 569.88 217.826 569.873 217.826C567.916 221.348 565.753 225.015 564.309 227.426C564.623 229.347 564.919 231.202 565.155 232.87C566.375 241.419 559.506 274.008 558.763 277.5C558.714 277.717 558.648 277.911 558.539 278.098C557.494 280.013 551.211 290.749 538.003 298.193V305.866C538.444 313.496 542.613 316.668 545.513 317.967C545.519 317.967 545.519 317.967 545.519 317.967C548.008 318.668 550.437 319.399 552.812 320.136C553.065 319.314 553.935 318.843 554.763 319.085C556.666 319.647 560.273 320.916 562.019 321.574C562.448 321.737 562.787 322.082 562.944 322.511C563.07 322.867 563.064 323.254 562.932 323.604C568.158 325.586 573.039 327.773 577.595 330.069Z" fill="#3C2F4B"/>
<path opacity="0.24" d="M516.592 80.2697C516.695 80.1849 516.726 80.2576 516.683 80.4819C516.423 80.5123 516.38 80.4456 516.592 80.2697Z" fill="#3C2F4B"/>
<path d="M260.616 378.62V583.446H127.004C114.546 583.446 104.45 573.351 104.45 560.893V343.004C110.631 341.343 115.573 340.05 117.397 339.579L123.288 326.238L124.448 313.503C115.53 307.382 108.486 297.498 104.45 282.503V150.799C116.944 143.616 137.063 135.284 161.671 136.722C174.697 137.483 184.188 140.782 191.07 145.198C197.958 149.615 202.235 155.149 204.833 160.381C208.047 166.864 208.7 172.882 208.543 175.764C208.247 181.219 207.395 198.148 207.395 198.148L207.733 210.999C207.739 210.999 207.739 210.999 207.739 210.999C208.621 210.957 209.37 211.682 209.388 212.57L210.15 246.524C210.174 247.376 209.527 248.077 208.694 248.155C208.7 257.435 207.951 274.685 202.869 287.402C197.873 299.921 190.121 310.977 178.243 317.025V321.913C178.34 323.641 178.636 325.133 179.065 326.42C179.669 326.184 180.376 326.323 180.841 326.825C181.446 327.477 181.403 328.498 180.751 329.102C180.606 329.229 180.461 329.362 180.322 329.489C181.512 332.238 182.708 334.655 184.793 340.279C185.046 340.183 185.33 340.147 185.62 340.201C186.496 340.352 187.082 341.186 186.931 342.062C186.913 342.14 186.901 342.225 186.883 342.303C197.994 345.947 216.355 349.922 229.918 352.907C231.03 353.148 231.821 354.121 232.734 354.725C240.987 360.157 247.457 365.552 252.091 369.829C254.889 372.427 257.009 374.608 258.441 376.149C258.755 376.493 259.033 376.802 259.281 377.073C260.157 378.064 260.616 378.62 260.616 378.62Z" fill="#3C2F4B"/>
<path d="M438.962 135.877V233.197L378.526 229.523L350.239 227.802L348.741 227.711L338.44 227.089L288.39 224.05L277.116 223.367L262.755 222.491L248.666 221.639L246.533 221.512L240.286 221.361C236.135 219.21 232.486 216.624 229.362 213.712C228.027 212.48 226.789 211.181 225.653 209.834V209.827C220.113 203.272 216.886 195.539 216.167 187.636C216.095 186.923 216.053 186.216 216.034 185.504C215.666 174.991 219.726 164.339 228.619 155.869C249.463 136.028 233.966 112.308 233.966 112.308C224.088 86.4194 221.103 35.1977 261.649 10.2998C261.885 10.1488 262.127 10.0038 262.368 9.85878C262.586 9.72586 262.803 9.59899 263.021 9.47211C264.006 8.88607 265.015 8.32419 266.054 7.78043C292.154 -5.99468 312.297 1.06204 324.646 9.47211C324.834 9.59899 325.021 9.72586 325.208 9.85878C325.42 10.0098 325.631 10.1488 325.831 10.2998C334.071 16.1905 338.512 22.4316 338.512 22.4316C338.512 22.4316 364.31 8.53565 383.16 24.9147C402.017 41.2817 389.323 76.227 400.228 90.1169C405.454 96.7568 425.597 113.323 438.962 135.877Z" fill="#3C2F4B"/>
<path d="M290.662 188.066L286.215 172.375C286.426 183.583 288.112 200.173 276.5 205.931L309.022 490.224H324.489C324.489 490.224 376.647 279.845 373.916 282.31C371.179 284.775 373.916 210.329 373.916 210.329C353.145 204.451 352.057 185.77 352.148 167.935L290.662 188.066Z" fill="#D86E6C"/>
<path opacity="0.24" d="M284.408 275.833C284.632 277.537 299.905 297.831 327.486 299.287C355.066 300.743 362.032 295.91 361.289 296.876C360.546 297.843 358.117 318.131 358.117 318.131C358.117 318.131 310.974 327.834 305.814 329.103C300.654 330.366 282.463 324.088 280.928 319.66C279.4 315.231 274.893 296.876 274.893 296.876L284.408 275.833Z" fill="#3C2F4B"/>
<path d="M276.5 204.444L304.823 216.202" stroke="#3C2F4B" stroke-width="4.2292" stroke-miterlimit="10" stroke-linecap="round" stroke-linejoin="round"/>
<path d="M351.895 204.709C323.462 223.039 297.7 211.693 288.91 206.702C286.843 205.524 285.714 204.709 285.714 204.709L290.064 172.198H347.248L351.895 204.709Z" fill="#D86E6C"/>
<path d="M376.267 92.478C376.799 92.6532 381.807 89.7592 383.692 91.4146C386.665 94.0307 391.136 99.0936 390.942 103.081C390.362 114.85 370.147 138.486 370.147 138.486L373.796 103.081L376.267 92.478Z" fill="#D86E6C"/>
<path opacity="0.24" d="M375.288 114.252L381.722 101.269L384.26 99.9697L387.088 105.335C387.088 105.335 379.91 118.572 377.542 122.149L375.288 114.252Z" fill="#3C2F4B"/>
<path d="M383.692 91.4209C386.665 94.037 390.876 99.0939 390.942 103.087C390.961 104.326 389.027 108.277 386.617 112.7" stroke="#3C2F4B" stroke-width="4.2292" stroke-miterlimit="10" stroke-linecap="round" stroke-linejoin="round"/>
<path d="M386.52 104.501C386.52 104.501 384.399 99.7284 382.103 100.967C379.807 102.205 376.974 111.044 376.974 111.044" stroke="#3C2F4B" stroke-width="4.2292" stroke-miterlimit="10" stroke-linecap="round" stroke-linejoin="round"/>
<path d="M277.207 98.4467C277.739 98.6219 282.747 95.728 284.632 97.3834C287.605 99.9994 292.076 105.062 291.882 109.05C291.302 120.819 271.087 144.454 271.087 144.454L274.736 109.05L277.207 98.4467Z" fill="#D86E6C"/>
<path opacity="0.24" d="M276.228 120.221L282.663 107.237L285.2 105.938L288.028 111.304C288.028 111.304 280.85 124.541 278.482 128.118L276.228 120.221Z" fill="#3C2F4B"/>
<path d="M284.632 97.3838C287.605 99.9999 291.816 105.057 291.882 109.05C291.901 110.289 289.967 114.24 287.557 118.663" stroke="#3C2F4B" stroke-width="4.2292" stroke-miterlimit="10" stroke-linecap="round" stroke-linejoin="round"/>
<path d="M287.459 110.471C287.459 110.471 285.339 105.698 283.043 106.937C280.747 108.175 277.914 117.014 277.914 117.014" stroke="#3C2F4B" stroke-width="4.2292" stroke-miterlimit="10" stroke-linecap="round" stroke-linejoin="round"/>
<path d="M263.208 93.1557C262.677 93.3309 257.668 90.4369 255.783 92.0924C252.81 94.7084 248.34 99.7714 248.533 103.759C249.113 115.528 269.329 139.163 269.329 139.163L265.679 103.759L263.208 93.1557Z" fill="#D86E6C"/>
<path opacity="0.24" d="M263.208 93.1557C262.677 93.3309 257.668 90.4369 255.783 92.0924C252.81 94.7084 248.34 99.7714 248.533 103.759C249.113 115.528 269.329 139.163 269.329 139.163L265.679 103.759L263.208 93.1557Z" fill="#3C2F4B"/>
<path opacity="0.24" d="M264.193 114.938L257.759 101.954L255.221 100.655L252.394 106.02C252.394 106.02 259.571 119.258 261.939 122.834L264.193 114.938Z" fill="#3C2F4B"/>
<path d="M255.106 92.0986C252.134 94.7147 247.923 99.7716 247.856 103.765C247.838 105.004 249.772 108.955 252.182 113.378" stroke="#3C2F4B" stroke-width="4.2292" stroke-miterlimit="10" stroke-linecap="round" stroke-linejoin="round"/>
<path d="M252.956 105.179C252.956 105.179 255.076 100.406 257.372 101.645C259.668 102.883 262.501 111.722 262.501 111.722" stroke="#3C2F4B" stroke-width="4.2292" stroke-miterlimit="10" stroke-linecap="round" stroke-linejoin="round"/>
<path d="M332.579 187.713C328.417 189.695 323.94 190.777 319.414 190.958C315.076 191.133 310.702 190.475 306.546 188.982C263.655 173.558 261.74 119.146 260.955 95.7284C260.786 90.5144 264.507 85.9468 269.667 85.1916C301.271 80.5999 309.923 55.273 312.291 41.4798C313.167 36.3745 317.668 32.7133 322.84 32.9247L343.805 33.7826C352.082 34.121 359.58 37.3835 365.307 42.5552C372.273 48.8326 376.617 57.9253 376.599 68.0029L376.563 85.9045C378.52 154.955 350.282 179.273 332.579 187.713Z" fill="#D86E6C"/>
<path d="M376.472 101.676C375.65 121.039 372.213 136.271 367.391 148.251" stroke="#3C2F4B" stroke-width="4.2292" stroke-miterlimit="10" stroke-linecap="round" stroke-linejoin="round"/>
<path opacity="0.24" d="M275.582 98.1694C274.373 122.373 275.684 183.944 319.414 190.952C315.076 191.127 310.702 190.469 306.546 188.976C263.655 173.552 261.74 119.14 260.955 95.7225C260.786 90.5085 264.507 85.941 269.667 85.1857C301.271 80.594 309.923 55.2672 312.291 41.4739C313.167 36.3687 317.668 32.7074 322.84 32.9189L343.805 33.7768C352.082 34.1151 359.58 37.3777 365.307 42.5494C361.948 41.9029 345.194 36.6406 332.875 38.8156C326.894 39.8729 322.852 42.8454 320.919 48.5971C316.81 60.8014 311.01 81.1922 284.813 87.1191C279.599 88.2972 275.848 92.8406 275.582 98.1694Z" fill="#3C2F4B"/>
<path d="M332.579 188.391C328.416 190.373 323.939 191.454 319.414 191.635C315.076 191.81 310.702 191.152 306.545 189.66C297.561 186.427 290.372 181.485 284.62 175.474" stroke="#3C2F4B" stroke-width="4.2292" stroke-miterlimit="10" stroke-linecap="round" stroke-linejoin="round"/>
<path d="M278.814 84.2563H302.589C303.803 84.2563 304.268 82.6854 303.259 82.0088C298.982 79.151 290.028 75.3327 278.228 81.9604C277.123 82.5767 277.552 84.2563 278.814 84.2563Z" fill="#3C2F4B"/>
<path d="M330.924 91.5063H353.145C354.589 91.5063 355.127 89.6152 353.9 88.8539C349.508 86.1352 341.14 83.0418 330.265 88.7996C328.942 89.5004 329.419 91.5063 330.924 91.5063Z" fill="#3C2F4B"/>
<path d="M302.546 124.443H332.887C332.887 124.443 329.099 132.437 318.798 133.307C306.038 134.376 302.546 124.443 302.546 124.443Z" fill="#B85052"/>
<path d="M287.514 107.07C290.627 107.07 293.151 104.546 293.151 101.433C293.151 98.3196 290.627 95.7959 287.514 95.7959C284.401 95.7959 281.877 98.3196 281.877 101.433C281.877 104.546 284.401 107.07 287.514 107.07Z" fill="#3C2F4B"/>
<path d="M261.184 104.616C261.184 104.616 263.806 142.395 270.138 153.318" stroke="#3C2F4B" stroke-width="4.2292" stroke-miterlimit="10" stroke-linecap="round" stroke-linejoin="round"/>
<path d="M331.794 159.971C329.335 162.931 326.193 165.324 322.181 166.26C317.62 167.323 313.463 166.991 309.796 165.91C304.268 164.272 299.863 160.925 296.885 158.055C295.755 156.962 294.824 155.947 294.124 155.113C293.29 154.128 293.67 152.606 294.885 152.153C300.715 149.953 316.834 144.329 337.249 141.018C338.56 140.806 339.672 141.99 339.37 143.277C339.134 144.304 338.808 145.579 338.367 146.987C337.159 150.932 335.105 155.977 331.794 159.971Z" fill="#C42F4D"/>
<path d="M337.388 147.434C318.949 155.554 304.364 157.511 298.039 157.983C297.289 158.037 296.564 157.753 296.039 157.221C295.284 156.448 294.643 155.735 294.124 155.119C293.29 154.134 293.67 152.612 294.885 152.159C300.715 149.959 316.834 144.335 337.249 141.024C338.56 140.812 339.672 141.996 339.37 143.283C339.195 144.051 338.965 144.957 338.681 145.948C338.494 146.612 338.017 147.156 337.388 147.434Z" fill="white"/>
<path d="M331.794 159.969C329.335 162.929 326.193 165.322 322.181 166.258C317.62 167.322 313.463 166.989 309.796 165.908C311.101 163.244 313.481 159.582 317.269 157.927C323.033 155.401 328.048 157.027 331.794 159.969Z" fill="#F0565C"/>
<path d="M310.418 583.447H215.992L228.879 568.79L305.295 521.187L305.385 521.133V521.127L334.676 502.881L334.718 502.856C334.718 502.856 395.467 545.626 427.791 576.656L426.437 577.852C422.323 581.465 417.042 583.447 411.569 583.447H310.563C310.69 584.704 310.811 585.888 310.932 586.999C310.75 585.821 310.581 584.637 310.418 583.447Z" fill="#3C2F4B"/>
<path d="M247.584 303.963C250.593 301.704 398.615 303.963 398.615 303.963C398.615 303.963 335.274 447.78 333.981 445.194C332.688 442.609 295.845 436.144 295.845 433.558C295.845 430.978 247.584 303.963 247.584 303.963Z" fill="#0B4B58"/>
<path d="M334.676 502.882C334.398 528.619 332.712 557.607 329.123 583.448H310.563C310.69 584.705 310.811 585.889 310.932 587C310.75 585.822 310.581 584.638 310.418 583.448H191.294C200.501 553.263 212.621 514.754 220.475 494.453C224.432 484.237 225.913 470.069 225.925 454.62C225.931 445.975 225.472 436.924 224.735 427.946C221.611 390.095 213.43 353.512 213.43 353.512L206.772 323.425C181.017 332.445 146.706 348.407 137.275 352.854C137.154 352.914 137.039 352.981 136.93 353.053C135.891 353.772 135.571 355.204 136.26 356.31C136.266 356.316 136.266 356.316 136.266 356.322C136.272 356.334 136.278 356.352 136.29 356.364C147.92 374.133 164.384 392.397 183.065 410.884C186.424 414.213 186.919 419.482 184.243 423.385L182.841 425.433C176.298 434.991 175.47 439.716 167.816 448.899C166.529 450.446 165.042 452.125 163.296 453.98L148.349 475.809C145.697 479.681 140.199 480.268 136.797 477.035C124.515 465.357 113.827 454.512 104.45 444.428C75.5525 413.374 59.0949 389.545 46.8241 371.015C41.8458 363.493 39.9608 354.352 41.5497 345.471C42.0935 342.438 42.5889 339.544 43.1568 336.553C44.77 328.107 48.8058 319.612 56.2492 315.311C73.0754 305.583 197.305 221.271 204.966 218.208C216.312 213.671 249.626 207.774 249.626 207.774C258.943 202.264 266.241 197.86 271.54 194.621C275.811 192.011 281.237 195.292 280.922 200.288C280.016 214.819 279.714 242.115 285.109 281.145C291.55 327.69 307.844 380.682 319.765 411.066C323.408 420.346 326.64 427.517 329.063 431.753C332.766 438.223 335.056 467.477 334.676 502.882Z" fill="#38B3C6"/>
<path opacity="0.24" d="M244.074 332.722C244.074 332.722 271.455 421.354 307.288 445.23L312.484 427.377C312.478 427.383 255.336 367.359 244.074 332.722Z" fill="#3C2F4B"/>
<path opacity="0.24" d="M163.296 453.979L143.31 483.16C88.6993 432.283 63.7651 396.601 46.8241 371.014C41.8458 363.492 39.9608 354.351 41.5497 345.47C42.0935 342.437 42.5889 339.543 43.1568 336.552C44.77 328.106 48.8058 319.611 56.2492 315.31C56.2492 315.31 51.1863 334.697 70.1754 356.363C89.1584 378.035 163.296 453.979 163.296 453.979Z" fill="#3C2F4B"/>
<path d="M224.148 250.76L236.631 221.028" stroke="#3C2F4B" stroke-width="4.2292" stroke-miterlimit="10" stroke-linecap="round" stroke-linejoin="round"/>
<path d="M332.301 447.266L322.725 436.923C243.983 366.464 226.94 286.962 226.94 285.022C226.94 283.083 246.334 257.23 246.334 257.23L224.155 250.766" stroke="#3C2F4B" stroke-width="4.2292" stroke-miterlimit="10" stroke-linecap="round" stroke-linejoin="round"/>
<path d="M252.707 462.775L225.067 465.361" stroke="#3C2F4B" stroke-width="4.2292" stroke-miterlimit="10" stroke-linecap="round" stroke-linejoin="round"/>
<path d="M204.966 218.201C216.312 213.664 249.62 207.773 249.62 207.773C271.37 194.91 280.596 193.702 280.596 193.702C280.596 193.702 278.88 227.85 280.922 237.686" stroke="#3C2F4B" stroke-width="4.2292" stroke-miterlimit="10" stroke-linecap="round" stroke-linejoin="round"/>
<path d="M221.738 400.988C226.082 432.762 228.921 472.625 220.475 494.454C216.838 503.855 212.289 517.152 207.534 531.731" stroke="#3C2F4B" stroke-width="4.2292" stroke-miterlimit="10" stroke-linecap="round" stroke-linejoin="round"/>
<path d="M137.275 352.845C146.7 348.399 181.017 332.436 206.767 323.416L213.431 353.504" stroke="#3C2F4B" stroke-width="4.2292" stroke-miterlimit="10" stroke-linecap="round" stroke-linejoin="round"/>
<path opacity="0.24" d="M252.714 476.43C245.192 518.088 222.088 555.752 203.057 583.447H191.294C200.501 553.262 212.621 514.753 220.475 494.452C224.433 484.236 225.913 470.068 225.925 454.619C225.931 445.974 225.472 436.923 224.735 427.945C221.611 390.094 213.431 353.511 213.431 353.511L206.773 323.424C181.017 332.444 146.706 348.406 137.275 352.853C137.154 352.913 137.039 352.98 136.93 353.052C141.377 336.48 169.779 289.644 194.393 293.855C222.04 298.586 267.993 391.755 252.714 476.43Z" fill="#3C2F4B"/>
<path d="M276.838 450.989C278.065 452.547 282.674 467.67 282.674 467.67C282.674 467.67 274.862 469.537 270.959 465.012L273.89 473.053C273.89 473.053 267.02 477.022 262.453 471.373L259.861 467.96L261.051 473.706C261.051 473.706 255.922 475.929 252.544 471.597C249.3 467.434 230.595 455.103 225.925 454.62C225.731 454.602 225.562 454.602 225.423 454.62C223.961 454.837 215.11 463.574 195.505 465.477C186.418 466.359 174.123 460.619 163.296 453.979L182.841 425.432C187.052 428.242 190.115 430.296 190.115 430.296C190.115 430.296 193.148 435.262 224.734 427.946C224.952 427.897 225.169 427.843 225.387 427.795L258.296 421.433L288.203 435.383C288.203 435.383 281.128 439.66 276.5 438.609C271.866 437.552 257.372 431.994 257.372 431.994C257.372 431.994 275.618 449.43 276.838 450.989Z" fill="#D86E6C"/>
<path d="M592.717 371.015C586.15 380.935 583.334 386.79 577.595 395.78C568.901 409.404 553.494 430.23 508.187 483.3C505.197 486.81 499.693 486.551 497.047 482.774L487.525 469.193L477.798 455.327L456.591 425.076L454.531 422.14C452.296 418.95 452.7 414.618 455.467 411.881C474.565 393.055 491.41 374.453 503.251 356.364C504.055 355.137 503.596 353.482 502.267 352.853C492.841 348.407 458.525 332.444 432.775 323.424L427.108 349.017L426.111 353.512C426.111 353.512 419.108 397.188 419.169 438.06C419.181 445.817 419.441 453.478 420.063 460.722C420.486 465.791 421.096 470.649 421.9 475.198C422.643 479.385 423.561 483.306 424.673 486.877C425.102 488.242 425.555 489.559 426.044 490.816C432.213 506.754 438.665 535.144 444.647 561.715L438.551 567.117L427.79 576.657L426.437 577.853C422.323 581.466 417.042 583.448 411.568 583.448H310.418C307.663 563.588 306.026 541.862 305.295 521.188C305.204 518.856 305.137 516.536 305.077 514.234C305.071 513.938 305.059 513.642 305.053 513.358C304.05 473.374 306.418 438.851 310.472 431.752C312.895 427.517 316.127 420.345 319.771 411.065C331.691 380.682 347.991 327.69 354.426 281.144C359.519 244.302 360.033 219.241 359.646 205.218C359.471 198.929 366.11 194.76 371.705 197.642C376.387 200.052 382.423 203.339 389.921 207.774C389.921 207.774 423.229 213.67 434.575 218.208C444.194 222.05 502.248 266.33 577.595 311.879C579.486 313.02 581.383 314.168 583.298 315.31C590.675 319.727 594.777 328.107 596.384 336.553C596.952 339.544 597.454 342.437 597.991 345.47C599.58 354.352 597.701 363.493 592.717 371.015Z" fill="#38B3C6"/>
<path d="M380.731 202.487L389.921 207.774L407.732 231.3" stroke="#3C2F4B" stroke-width="4.2292" stroke-miterlimit="10" stroke-linecap="round" stroke-linejoin="round"/>
<path opacity="0.24" d="M424.673 486.877C414.982 480.95 400.815 473.845 393.268 477.452C381.088 483.27 371.953 476.431 371.953 476.431C367.984 478.014 363.229 477.506 359.465 476.606C356.493 475.893 355.604 472.093 357.912 470.099L357.973 470.051L352.088 464.625L354.704 458.698L420.07 460.728C420.492 465.797 421.103 470.655 421.906 475.204C422.643 479.385 423.562 483.306 424.673 486.877Z" fill="#3C2F4B"/>
<path d="M305.077 514.232C305.15 516.317 305.252 518.631 305.385 521.126V521.132C306.352 539.348 307.814 563.569 309.482 579.882" stroke="#3C2F4B" stroke-width="4.2292" stroke-miterlimit="10" stroke-linecap="round" stroke-linejoin="round"/>
<path d="M408.499 283.566C408.499 283.566 398.494 341.265 368.763 377.461C339.032 413.657 309.022 435.715 309.022 435.715" stroke="#3C2F4B" stroke-width="4.2292" stroke-miterlimit="10" stroke-linecap="round" stroke-linejoin="round"/>
<path d="M407.732 252.85L377.354 267.851" stroke="#3C2F4B" stroke-width="4.2292" stroke-miterlimit="10" stroke-linecap="round" stroke-linejoin="round"/>
<path d="M217.382 502.748C217.587 503.394 280.584 497.679 280.584 497.679" stroke="#3C2F4B" stroke-width="4.2292" stroke-miterlimit="10" stroke-linecap="round" stroke-linejoin="round"/>
<path d="M363.972 497.685L431.561 507.817" stroke="#3C2F4B" stroke-width="4.2292" stroke-miterlimit="10" stroke-linecap="round" stroke-linejoin="round"/>
<path d="M382.719 465.361L410.838 467.826" stroke="#3C2F4B" stroke-width="4.2292" stroke-miterlimit="10" stroke-linecap="round" stroke-linejoin="round"/>
<path d="M232.673 444.845L251.56 458.209L260.006 466.631" stroke="#3C2F4B" stroke-width="4.2292" stroke-miterlimit="10" stroke-linecap="round" stroke-linejoin="round"/>
<path d="M239.658 436.597C239.658 436.597 263.661 452.643 270.96 465.005" stroke="#3C2F4B" stroke-width="4.2292" stroke-miterlimit="10" stroke-linecap="round" stroke-linejoin="round"/>
<path d="M240.54 429.522L257.372 431.987" stroke="#3C2F4B" stroke-width="4.2292" stroke-miterlimit="10" stroke-linecap="round" stroke-linejoin="round"/>
<path d="M477.798 455.327L449.402 465.87C437.379 478.128 429.742 476.34 429.742 476.34C426.951 476.225 424.323 475.802 421.9 475.198C411.043 472.491 404.192 466.027 404.192 466.027C397.129 463.193 389.577 473.458 381.952 473.458C377.276 473.458 371.983 470.208 371.983 470.208C371.983 470.208 371.276 471.785 367.077 473.265C362.878 474.745 357.966 470.039 357.966 470.039L361.181 465.362C348.982 468.589 350.632 459.586 350.632 459.586L369.216 439.963L358.003 443.135C349.707 445.406 347.218 440.12 347.218 440.12L374.013 420.484L399.521 422.665C402.832 422.949 405.871 424.653 407.768 427.378C411.254 432.393 415.357 435.776 419.169 438.054C425.803 442.029 431.542 442.645 431.542 442.645L456.591 425.07L477.798 455.327Z" fill="#D86E6C"/>
<path d="M394.682 428.496L369.216 441.172" stroke="#3C2F4B" stroke-width="4.2292" stroke-miterlimit="10" stroke-linecap="round" stroke-linejoin="round"/>
<path d="M398.947 434.857C398.947 434.857 366.467 459.604 360.546 466.015" stroke="#3C2F4B" stroke-width="4.2292" stroke-miterlimit="10" stroke-linecap="round" stroke-linejoin="round"/>
<path d="M405.684 444.62L373.475 469.192" stroke="#3C2F4B" stroke-width="4.2292" stroke-miterlimit="10" stroke-linecap="round" stroke-linejoin="round"/>
<path d="M358.111 204.444C358.141 204.644 330.519 216.202 330.519 216.202" stroke="#3C2F4B" stroke-width="4.2292" stroke-miterlimit="10" stroke-linecap="round" stroke-linejoin="round"/>
<path d="M298.842 229.427C298.842 229.427 333.286 230.484 334.718 229.427" stroke="#3C2F4B" stroke-width="4.2292" stroke-miterlimit="10" stroke-linecap="round" stroke-linejoin="round"/>
<path d="M304.823 271.664C305.53 271.314 324.9 280.467 327.885 301.583C327.885 301.583 332.277 288.913 341.781 285.04" stroke="#3C2F4B" stroke-width="4.2292" stroke-miterlimit="10" stroke-linecap="round" stroke-linejoin="round"/>
<path d="M188.895 258.33C188.895 258.33 203.812 310.059 206.773 323.424C206.773 323.424 175.416 311.382 162.155 306.706" stroke="#3C2F4B" stroke-width="4.2292" stroke-miterlimit="10" stroke-linecap="round" stroke-linejoin="round"/>
<path d="M423.706 371.014C423.706 371.014 439.886 288.877 446.127 271.658" stroke="#3C2F4B" stroke-width="4.2292" stroke-miterlimit="10" stroke-linecap="round" stroke-linejoin="round"/>
<path d="M432.775 323.425C432.775 323.425 447.692 311.462 475.78 317.667" stroke="#3C2F4B" stroke-width="4.2292" stroke-miterlimit="10" stroke-linecap="round" stroke-linejoin="round"/>
<path d="M465.455 336.316L502.267 352.853C502.267 352.853 491.718 371.745 475.78 390.897" stroke="#3C2F4B" stroke-width="4.2292" stroke-miterlimit="10" stroke-linecap="round" stroke-linejoin="round"/>
<path d="M361.187 200.167C361.187 200.167 364.002 252.851 339.962 349.252C329.685 390.457 306.781 431.305 305.814 461.133" stroke="#3C2F4B" stroke-width="4.2292" stroke-miterlimit="10" stroke-linecap="round" stroke-linejoin="round"/>
<path d="M43.0964 363.607C43.0964 363.607 75.3411 415.548 107.102 447.267" stroke="#3C2F4B" stroke-width="4.2292" stroke-miterlimit="10" stroke-linecap="round" stroke-linejoin="round"/>
<path d="M184.358 423.221L145.328 480.206" stroke="#3C2F4B" stroke-width="4.2292" stroke-miterlimit="10" stroke-linecap="round" stroke-linejoin="round"/>
<path d="M163.296 453.979C163.296 453.979 185.125 472.92 208.965 462.782" stroke="#3C2F4B" stroke-width="4.2292" stroke-miterlimit="10" stroke-linecap="round" stroke-linejoin="round"/>
<path d="M405.684 467.374C405.684 467.374 420.251 480.406 437.059 474.95" stroke="#3C2F4B" stroke-width="4.2292" stroke-miterlimit="10" stroke-linecap="round" stroke-linejoin="round"/>
<path d="M464.047 435.709L489.368 471.826" stroke="#3C2F4B" stroke-width="4.2292" stroke-miterlimit="10" stroke-linecap="round" stroke-linejoin="round"/>
<path opacity="0.24" d="M502.267 352.852C492.884 348.424 458.833 332.588 433.125 323.544L440.847 290.895C440.847 290.895 513.975 329.096 502.267 352.852Z" fill="#3C2F4B"/>
<path d="M321.891 470.298C326.045 470.298 329.413 466.93 329.413 462.776C329.413 458.622 326.045 455.254 321.891 455.254C317.737 455.254 314.369 458.622 314.369 462.776C314.369 466.93 317.737 470.298 321.891 470.298Z" fill="#3C2F4B"/>
<path d="M326.078 550.248C330.232 550.248 333.6 546.88 333.6 542.726C333.6 538.572 330.232 535.204 326.078 535.204C321.924 535.204 318.556 538.572 318.556 542.726C318.556 546.88 321.924 550.248 326.078 550.248Z" fill="#3C2F4B"/>
<path d="M321.891 510.269C326.045 510.269 329.413 506.902 329.413 502.748C329.413 498.593 326.045 495.226 321.891 495.226C317.737 495.226 314.369 498.593 314.369 502.748C314.369 506.902 317.737 510.269 321.891 510.269Z" fill="#3C2F4B"/>
<path d="M335.28 102.388H345.937" stroke="#3C2F4B" stroke-width="4.2292" stroke-miterlimit="10" stroke-linecap="round" stroke-linejoin="round"/>
<path opacity="0.24" d="M592.717 371.014C586.15 380.934 583.334 386.789 577.595 395.779C568.901 409.403 553.494 430.229 508.188 483.299C505.197 486.809 499.693 486.549 497.047 482.773L487.525 469.192C487.525 469.192 594.741 368.573 596.385 336.552C596.952 339.542 597.454 342.436 597.992 345.469C599.581 354.351 597.702 363.492 592.717 371.014Z" fill="#3C2F4B"/>
</svg>
