<svg width="161" height="80" viewBox="0 0 161 80" fill="none" xmlns="http://www.w3.org/2000/svg">
<path d="M80 0C35.8174 0 0 17.9101 0 40C0 62.0899 35.8174 80 80 80C124.183 80 160.003 62.0899 160.003 40C160.003 17.9101 124.18 0 80 0ZM80 73.6866C39.3057 73.6866 6.31624 58.6044 6.31624 40C6.31624 21.3956 39.3057 6.31624 80 6.31624C120.694 6.31624 153.687 21.3956 153.687 40C153.687 58.6044 120.697 73.6866 80 73.6866ZM69.9132 32.9838V26.6676H92.4914V32.9838H84.3632V53.3409H78.0385V32.9838H69.9132ZM119.726 26.6676V53.3409H113.41L101.954 37.4656V53.3409H95.641V26.6676H101.954L113.41 42.5429V26.6676H119.726ZM40.0903 53.3409V26.6676H46.4065L53.4227 37.46L60.4389 26.6676H66.7551V53.3409H60.4389V38.2502L55.641 45.6135H51.1959L46.3981 38.2502V53.3409H40.0903Z" fill="#1D1D1B"/>
</svg>
