<svg width="322" height="80" viewBox="0 0 322 80" fill="none" xmlns="http://www.w3.org/2000/svg">
<path d="M115.84 45.3571C121.043 45.3571 124.078 42.0126 124.078 37.1506C124.078 32.2268 121.043 29.099 115.84 29.099H100.016V51.6126H103.918V33.0319H115.84C118.596 33.0319 120.238 34.6732 120.238 37.2745C120.238 39.8139 118.596 41.5481 115.84 41.5481H106.798V45.3571H115.84ZM147 51.6126V47.6797H130.773V33.0319H146.969V29.099H126.87V51.6126H147ZM146.133 41.8268V38.5132H133.653V41.8268H146.133ZM176.845 51.6126L170.063 44.7687C172.974 43.6539 174.709 41.0216 174.709 37.3055C174.709 32.2887 171.674 29.099 166.533 29.099H150.368V51.6126H154.27V33.0319H166.533C169.227 33.0319 170.838 34.4564 170.838 37.3674C170.838 40.2784 169.351 41.8887 166.533 41.8887H157.15V45.3571H165.573L171.271 51.6126H176.845ZM183.036 51.6126V29.099H179.103V51.6126H183.036ZM209.625 51.6126V47.6797H197.423C193.367 47.6797 190.425 44.5519 190.425 40.3093C190.425 36.0358 193.398 33.0319 197.423 33.0319H209.625V29.099H197.423C191.137 29.099 186.492 33.4964 186.492 40.1235C186.492 46.6577 191.137 51.6126 197.423 51.6126H209.625ZM232.947 41.6719C232.947 46.1932 230.934 48.0513 224.741 48.0513C218.547 48.0513 216.534 46.1932 216.534 41.6719V29.099H212.478V41.6719C212.478 48.6397 215.946 51.9222 224.617 51.9222C233.35 51.9222 236.787 48.6397 236.787 41.6719V29.099H232.947V41.6719ZM259.414 51.6126V47.6797H244.271V29.099H240.338V51.6126H259.414ZM282.363 41.6719C282.363 46.1932 280.35 48.0513 274.156 48.0513C267.963 48.0513 265.95 46.1932 265.95 41.6719V29.099H261.893V41.6719C261.893 48.6397 265.361 51.9222 274.032 51.9222C282.765 51.9222 286.203 48.6397 286.203 41.6719V29.099H282.363V41.6719ZM320.441 51.6126L314.681 30.4306C314.372 29.3468 313.752 28.8203 312.792 28.8203C311.956 28.8203 311.275 29.2848 310.903 30.1519L303.967 46.0693L297.03 30.1519C296.658 29.2848 295.884 28.8203 295.048 28.8203C293.995 28.8203 293.376 29.3468 293.097 30.4306L287.306 51.6126H291.177L295.481 35.7881L301.83 50.4358C302.232 51.3958 302.914 51.9222 303.843 51.9222C304.803 51.9222 305.422 51.3958 305.856 50.4358L312.235 35.7881L316.539 51.6126H320.441Z" fill="#2A38A4"/>
<mask id="mask0_3182_18244" style="mask-type:luminance" maskUnits="userSpaceOnUse" x="0" y="0" width="83" height="80">
<path d="M82.963 0H0V80H82.963V0Z" fill="white"/>
</mask>
<g mask="url(#mask0_3182_18244)">
<path d="M62.8247 23.7851L47.1191 11.0438C39.6006 4.94444 28.7763 6.37213 22.9424 14.2326L10.5442 30.9376C4.71027 38.7981 6.07583 50.1148 13.5943 56.2141L29.3001 68.9554C36.8185 75.0548 47.6428 73.627 53.4767 65.7666L65.8749 49.0616C71.7089 41.2011 70.3432 29.8845 62.8247 23.7851Z" fill="#407BFF"/>
<path d="M43.6783 9.88941L26.3472 18.6309C17.7756 22.9542 14.1791 33.7238 18.3143 42.6855L27.1024 61.7305C31.2376 70.6922 41.5387 74.4523 50.1103 70.129L67.4414 61.3875C76.0131 57.0642 79.6095 46.2945 75.4743 37.3328L66.6863 18.2878C62.5511 9.32614 52.25 5.56606 43.6783 9.88941Z" fill="#C4A2FC"/>
<path d="M27.103 61.7317L18.3146 42.6866C17.3313 40.5558 16.759 38.2431 16.6304 35.8811C16.5018 33.5189 16.8195 31.1533 17.5655 28.9195C18.3114 26.6859 19.4709 24.6274 20.9777 22.8621C22.4845 21.097 24.3091 19.6591 26.3473 18.6311L43.6784 9.89008C44.0251 9.71525 44.3749 9.55332 44.7276 9.4043C45.5683 9.87845 46.37 10.4244 47.1247 11.0364L62.838 23.7705C64.6265 25.2198 66.1247 27.0234 67.2466 29.078C68.3685 31.1327 69.0923 33.3982 69.3768 35.7455C69.6612 38.0926 69.5008 40.4753 68.9045 42.7576C68.3082 45.0399 67.2878 47.177 65.9015 49.047L53.5102 65.7599C51.5645 68.3919 48.9569 70.4065 45.9791 71.5784C44.878 71.8078 43.7577 71.9234 42.6349 71.9234C39.3909 71.9253 36.2122 70.9699 33.4645 69.1669C30.7169 67.3639 28.5119 64.7866 27.103 61.7317Z" fill="#2A38A4"/>
<path d="M34.3169 64.2045C33.5956 64.2467 32.8829 64.0241 32.3019 63.5753C32.0611 63.3549 31.8699 63.0816 31.7423 62.7748C31.6145 62.4679 31.5535 62.1354 31.5636 61.801V25.4452C31.5841 25.0845 31.6751 24.7319 31.8309 24.4094C31.9868 24.0868 32.2042 23.801 32.4698 23.5696C33.0019 23.1787 33.6329 22.9611 34.2831 22.9443H49.9967C54.9659 22.9443 59.1189 24.3223 61.8492 26.3828C64.5796 28.4433 66.013 31.6394 66.013 35.4169C66.0805 37.1329 65.7347 38.8392 65.0072 40.379C64.2796 41.919 63.1938 43.2432 61.8492 44.23C59.0627 46.6989 54.9212 47.95 49.9967 47.95H37.0702V61.8003C37.0801 62.1348 37.0191 62.4673 36.8914 62.7741C36.7637 63.081 36.5726 63.3543 36.3317 63.5745C35.7508 64.0237 35.0382 64.2465 34.3169 64.2045ZM49.7619 42.6366C56.97 42.6366 60.5734 40.7963 60.5734 35.4162C60.5734 30.1127 56.9694 27.9428 49.7619 27.9428H34.2831C33.6418 27.8774 33.0224 27.6638 32.4698 27.3176C32.2027 27.0883 31.9842 26.8036 31.8281 26.4811C31.6721 26.1588 31.582 25.806 31.5636 25.4452V42.6366H49.7619Z" fill="#2A38A4"/>
</g>
</svg>
