<svg width="76" height="76" viewBox="0 0 76 76" fill="none" xmlns="http://www.w3.org/2000/svg">
<g clip-path="url(#clip0_2461_19965)">
<path d="M68.2149 55.3598V59.1594C68.2149 60.4394 67.7531 61.6745 66.9225 62.6484C65.5159 64.2974 63.9706 65.8245 62.3049 67.212C61.4368 67.935 60.1187 67.3193 60.1187 66.1895C60.1187 61.6184 56.4131 57.9128 51.8419 57.9128H17.3151C8.7308 57.9128 1.4633 51.5612 0.332945 43.0516C0.113258 41.3988 0 39.7126 0 37.9999C0 17.0389 16.9713 0.0417879 37.9224 7.69871e-05C58.8331 -0.0417824 75.9472 16.9916 75.9998 37.9021C76.0101 41.9914 75.3745 45.9309 74.1891 49.6241C74.0645 50.0122 73.7053 50.2769 73.2977 50.2769C70.4906 50.2769 68.2149 52.5526 68.2149 55.3598Z" fill="#60C8DD"/>
<path d="M69.7864 37.9997C69.7864 55.5555 55.5545 69.7874 37.9987 69.7874C20.4428 69.7874 6.21094 55.5555 6.21094 37.9997C6.21094 20.4438 20.4428 6.21191 37.9987 6.21191C55.5545 6.21191 69.7864 20.4438 69.7864 37.9997Z" fill="#7CD2E3"/>
<path d="M62.3438 21.5234V67.1797C60.5396 68.6865 58.5935 70.0291 56.5286 71.1845C55.8091 71.5871 54.9219 71.0601 54.9219 70.2357V21.5234C54.9219 20.7036 55.5864 20.0391 56.4062 20.0391H60.8594C61.6792 20.0391 62.3438 20.7036 62.3438 21.5234Z" fill="#3D4EC6"/>
<path d="M13.3594 59.375H8.90625C8.08643 59.375 7.42188 58.7104 7.42188 57.8906V20.7813C7.42188 19.9614 8.08643 19.2969 8.90625 19.2969H13.3594C14.1792 19.2969 14.8438 19.9614 14.8438 20.7813V57.8906C14.8438 58.7104 14.1792 59.375 13.3594 59.375ZM74.2188 49.5315V38.5938C74.2188 37.7739 73.5542 37.1094 72.7344 37.1094H68.2812C67.4614 37.1094 66.7969 37.7739 66.7969 38.5938V62.7949C70.0987 58.9635 72.649 54.4662 74.2188 49.5315ZM38.5938 46.0156V8.90625C38.5938 8.08643 37.9292 7.42188 37.1094 7.42188H32.6562C31.8364 7.42188 31.1719 8.08643 31.1719 8.90625V46.0156C31.1719 46.8354 31.8364 47.5 32.6562 47.5H37.1094C37.9292 47.5 38.5938 46.8354 38.5938 46.0156Z" fill="#FFB52D"/>
<path d="M37.1063 22.2656H35.625C34.8052 22.2656 34.1406 21.6011 34.1406 20.7813V8.90625C34.1406 8.08643 34.8052 7.42188 35.625 7.42188H37.1063C37.9261 7.42188 38.5906 8.08643 38.5906 8.90625V20.7813C38.5906 21.6011 37.9261 22.2656 37.1063 22.2656ZM74.2156 47.1179V38.5938C74.2156 37.7739 73.5511 37.1094 72.7313 37.1094H71.25C70.4302 37.1094 69.7656 37.7739 69.7656 38.5938V47.1179C69.7656 47.9377 70.4302 48.6023 71.25 48.6023H72.7313C73.5511 48.6023 74.2156 47.9376 74.2156 47.1179ZM14.8406 30.6065V20.7813C14.8406 19.9614 14.1761 19.2969 13.3563 19.2969H11.875C11.0552 19.2969 10.3906 19.9614 10.3906 20.7813V30.6065C10.3906 31.4263 11.0552 32.0909 11.875 32.0909H13.3563C14.1761 32.0909 14.8406 31.4263 14.8406 30.6065Z" fill="#FFC14F"/>
<path d="M48.9844 59.375H44.5312C43.7114 59.375 43.0469 58.7104 43.0469 57.8906V24.3438C43.0469 23.5239 43.7114 22.8594 44.5312 22.8594H48.9844C49.8042 22.8594 50.4688 23.5239 50.4688 24.3438V57.8906C50.4688 58.7104 49.8042 59.375 48.9844 59.375ZM26.7188 51.9531V14.8438C26.7188 14.0239 26.0542 13.3594 25.2344 13.3594H20.7812C19.9614 13.3594 19.2969 14.0239 19.2969 14.8438V51.9531C19.2969 52.7729 19.9614 53.4375 20.7812 53.4375H25.2344C26.0542 53.4375 26.7188 52.7729 26.7188 51.9531ZM60.8594 62.7949H59.3781C58.5583 62.7949 57.8937 62.1303 57.8937 61.3105V21.5234C57.8937 20.7036 58.5583 20.0391 59.3781 20.0391H60.8594C61.6792 20.0391 62.3438 20.7036 62.3438 21.5234V61.3105C62.3438 62.1303 61.6792 62.7949 60.8594 62.7949Z" fill="#5766CE"/>
<path d="M25.2313 22.8594H23.75C22.9302 22.8594 22.2656 22.1948 22.2656 21.375V14.8438C22.2656 14.0239 22.9302 13.3594 23.75 13.3594H25.2313C26.0511 13.3594 26.7156 14.0239 26.7156 14.8438V21.375C26.7156 22.1948 26.0511 22.8594 25.2313 22.8594ZM50.4656 30.875V24.3438C50.4656 23.5239 49.8011 22.8594 48.9813 22.8594H47.5C46.6802 22.8594 46.0156 23.5239 46.0156 24.3438V30.875C46.0156 31.6948 46.6802 32.3594 47.5 32.3594H48.9813C49.8011 32.3594 50.4656 31.6948 50.4656 30.875Z" fill="#717ED6"/>
<path d="M59.0812 9.31167V14.7552C59.0812 15.165 58.7488 15.4974 58.339 15.4974C57.9292 15.4974 57.5968 15.165 57.5968 14.7552V11.1746L43.44 25.3313C43.1501 25.6211 42.6803 25.6211 42.3904 25.3313L37.8203 20.7612L20.6627 36.7472C20.5196 36.8808 20.3378 36.9469 20.1564 36.9469C19.9579 36.9469 19.7599 36.8678 19.6137 36.7112C19.3341 36.4115 19.3501 35.9418 19.6498 35.6621L37.3315 19.1869C37.6239 18.9138 38.0799 18.9218 38.3629 19.2046L42.9151 23.7569L56.6183 10.0537H52.8953C52.4855 10.0537 52.1532 9.72136 52.1532 9.31152C52.1532 8.90169 52.4855 8.56934 52.8953 8.56934H58.3388C58.7488 8.56948 59.0812 8.90169 59.0812 9.31167Z" fill="#FFF5F5"/>
<path d="M42.9155 30.1481C38.9899 28.0103 34.0561 26.833 29.0231 26.833C23.99 26.833 19.0561 28.0104 15.1305 30.1482C14.1438 30.6857 13.5547 31.6182 13.5547 32.6427V36.1025C13.5547 38.0791 15.443 39.6871 17.7639 39.6871H40.2819C42.6029 39.6871 44.4911 38.0791 44.4911 36.1025V32.6427C44.4914 31.618 43.9023 30.6856 42.9155 30.1481ZM43.0071 36.1023C43.0071 37.2604 41.7847 38.2026 40.2822 38.2026H17.7642C16.2616 38.2026 15.0394 37.2604 15.0394 36.1023V32.6426C15.0394 32.1701 15.3391 31.7249 15.8406 31.4516C19.5522 29.4304 24.2339 28.3172 29.0232 28.3172C33.8125 28.3172 38.4943 29.4304 42.2058 31.4516C42.7077 31.7249 43.0072 32.1701 43.0072 32.6426V36.1023H43.0071Z" fill="#7C3F2C"/>
<path d="M52.2178 40.5422V57.0161C52.2178 67.401 43.7339 75.8281 33.3502 75.6638C33.0317 75.6588 32.7888 75.6454 32.6353 75.6237C17.7576 73.5201 5.65015 62.8004 1.52344 48.6754V40.5422C1.52344 37.4894 3.99819 35.0146 7.05095 35.0146H46.6901C49.7429 35.0146 52.2178 37.4894 52.2178 40.5422Z" fill="#954C35"/>
<path d="M56.5222 40.5422V71.1899C51.0429 74.2537 44.7269 76 38.0031 76C36.1809 76 34.3886 75.8718 32.6348 75.6237C28.1137 69.6815 25.4297 62.2657 25.4297 54.2228C25.4297 47.1414 27.5103 40.546 31.0936 35.0146H50.9945C54.0473 35.0146 56.5222 37.4894 56.5222 40.5422Z" fill="#AE583E"/>
<path d="M58.0391 40.7801V45.9138C58.0391 47.2659 57.3815 48.5354 56.2731 49.3098C48.8303 54.5101 39.3471 57.6258 29.0195 57.6258C18.692 57.6258 9.20877 54.5101 1.76596 49.3098C0.657578 48.5354 0 47.2661 0 45.914V40.7803C0 37.5587 2.61161 34.9473 5.833 34.9473H52.2059C55.4275 34.9471 58.0391 37.5586 58.0391 40.7801Z" fill="#C0694E"/>
<path d="M58.0421 40.7882V45.9219C58.0421 47.2741 57.3846 48.5435 56.2762 49.3179C48.8334 54.5182 39.3502 57.634 29.0226 57.634C27.8463 57.634 26.6809 57.5934 25.5283 57.514C25.4629 56.636 25.4297 55.7489 25.4297 54.8542C25.4297 47.4755 27.6888 40.6245 31.5529 34.9551H52.2092C55.4305 34.9552 58.0421 37.5667 58.0421 40.7882Z" fill="#C97E67"/>
<path d="M35.2408 59.9857H22.8038C22.0406 59.9857 21.4219 59.367 21.4219 58.6037V57.2218C21.4219 56.4585 22.0406 55.8398 22.8038 55.8398H35.2408C36.0041 55.8398 36.6228 56.4585 36.6228 57.2218V58.6037C36.6226 59.367 36.0039 59.9857 35.2408 59.9857Z" fill="#FF9F22"/>
<path d="M35.2403 59.9857H25.4288C24.6656 59.9857 24.0469 59.367 24.0469 58.6037V57.2218C24.0469 56.4585 24.6656 55.8398 25.4288 55.8398H35.2403C36.0035 55.8398 36.6222 56.4585 36.6222 57.2218V58.6037C36.6221 59.367 36.0034 59.9857 35.2403 59.9857Z" fill="#FFC14F"/>
<path d="M34.5507 58.6036H23.4957C23.114 58.6036 22.8047 58.2943 22.8047 57.9127C22.8047 57.531 23.114 57.2217 23.4957 57.2217H34.5507C34.9323 57.2217 35.2417 57.531 35.2417 57.9127C35.2417 58.2943 34.9323 58.6036 34.5507 58.6036Z" fill="#FF9100"/>
<path d="M27.5032 58.6036H23.4957C23.114 58.6036 22.8047 58.2943 22.8047 57.9127C22.8047 57.531 23.114 57.2217 23.4957 57.2217H27.5032C27.1215 57.2217 26.8122 57.531 26.8122 57.9127C26.8122 58.2943 27.1215 58.6036 27.5032 58.6036Z" fill="#DD7D00"/>
<path d="M28.1714 28.8688C28.1714 30.3984 26.9313 31.6385 25.4017 31.6385H18.4009C16.9283 31.6385 15.7344 30.876 15.7344 29.9353V29.3229C15.7344 28.928 16.035 28.5575 16.5417 28.3313C18.9838 27.2415 21.9064 26.4653 25.1073 26.1139C26.7434 25.9342 28.1714 27.2228 28.1714 28.8688Z" fill="#AE583E"/>
<path d="M42.2713 29.323V29.9355C42.2713 30.8761 41.0774 31.6386 39.6047 31.6386H25.419C23.8889 31.6386 22.6484 30.3983 22.6484 28.8681C22.6484 27.46 23.7035 26.2689 25.1031 26.115C26.3647 25.9762 27.6695 25.9033 29.0051 25.9033C33.7263 25.9033 38.0614 26.8131 41.4639 28.3315C41.9707 28.5575 42.2713 28.9282 42.2713 29.323Z" fill="#C0694E"/>
<path d="M48.5753 10.168C48.5753 10.5778 48.243 10.9102 47.8332 10.9102H44.0547C43.6449 10.9102 43.3125 10.5778 43.3125 10.168C43.3125 9.75813 43.6449 9.42578 44.0547 9.42578H47.8332C48.2431 9.42578 48.5753 9.75813 48.5753 10.168Z" fill="#ECECF1"/>
<path d="M48.1337 13.582C48.1337 13.9919 47.8014 14.3242 47.3915 14.3242H44.4844C44.0745 14.3242 43.7422 13.9919 43.7422 13.582C43.7422 13.1722 44.0745 12.8398 44.4844 12.8398H47.3915C47.8015 12.8398 48.1337 13.1722 48.1337 13.582ZM44.4845 7.49609H47.3917C47.8015 7.49609 48.1339 7.16374 48.1339 6.75391C48.1339 6.34407 47.8015 6.01172 47.3917 6.01172H44.4845C44.0747 6.01172 43.7423 6.34407 43.7423 6.75391C43.7423 7.16374 44.0745 7.49609 44.4845 7.49609Z" fill="#C2EAF2"/>
</g>
<defs>
<clipPath id="clip0_2461_19965">
<rect width="76" height="76" fill="white"/>
</clipPath>
</defs>
</svg>
