<svg width="77" height="76" viewBox="0 0 77 76" fill="none" xmlns="http://www.w3.org/2000/svg">
<g clip-path="url(#clip0_2461_20068)">
<path d="M77 38C77 58.9868 59.763 76 38.5 76C17.237 76 0 58.9868 0 38C0 17.0132 17.237 0 38.5 0C59.763 0 77 17.0132 77 38Z" fill="#3D4EC6"/>
<path d="M68.5549 37.9999C68.5549 54.3853 55.0972 67.6682 38.4962 67.6682C21.8952 67.6682 8.4375 54.3853 8.4375 37.9999C8.4375 21.6145 21.8952 8.33154 38.4962 8.33154C55.0972 8.33154 68.5549 21.6145 68.5549 37.9999Z" fill="#5766CE"/>
<path d="M63.1617 18.019V35.1796C63.1617 37.2258 61.475 38.8905 59.4019 38.8905H40.0899C39.9687 38.9729 17.2988 39.0213 17.2988 39.0213C16.0549 39.0213 15.043 40.0202 15.043 41.2479V58.4084C15.043 58.8183 14.7062 59.1506 14.291 59.1506C13.8758 59.1506 13.5391 58.8183 13.5391 58.4084V41.2479C13.5391 39.2017 15.2257 37.5369 17.2988 37.5369L59.4019 37.4062C60.6458 37.4062 61.6577 36.4073 61.6577 35.1796V18.019C61.6577 17.6092 61.9945 17.2769 62.4097 17.2769C62.8249 17.2769 63.1617 17.6091 63.1617 18.019Z" fill="#8C96DD"/>
<path d="M68.3467 22.5907C68.0543 22.7963 67.6675 22.8055 67.3532 22.6342C65.8872 21.8353 64.2018 21.3805 62.4087 21.3805C60.6223 21.3805 58.9428 21.8319 57.4805 22.6251C57.1554 22.8015 56.7558 22.792 56.454 22.579C53.8569 20.7447 52.1641 17.7426 52.1641 14.3502C52.1641 8.71385 56.8362 4.15474 62.5664 4.23994C67.9832 4.32055 72.4498 8.63087 72.6461 13.9743C72.7766 17.5275 71.0489 20.6904 68.3467 22.5907Z" fill="#7CD2E3"/>
<path d="M65.7084 21.917C64.673 21.5695 63.5631 21.381 62.4087 21.381C60.6223 21.381 58.9428 21.8324 57.4805 22.6256C57.1554 22.8019 56.7558 22.7924 56.454 22.5794C53.8569 20.7452 52.1641 17.7431 52.1641 14.3507C52.1641 8.71434 56.8362 4.15523 62.5664 4.24043C64.3317 4.26671 65.9962 4.7423 67.4448 5.55633C64.3481 7.29557 62.2596 10.5824 62.2596 14.3507C62.2598 17.3613 63.593 20.0646 65.7084 21.917Z" fill="#2CB3CD"/>
<path d="M62.2227 16.9883C60.7739 16.9883 59.5995 18.1476 59.5995 19.5775V23.0068C59.5995 23.5461 59.0459 23.9191 58.5401 23.7153C57.7817 23.4097 57.0689 23.0169 56.4141 22.5496V19.5775C56.4141 18.1474 57.5886 16.9883 59.0373 16.9883H62.2227Z" fill="#FCF2B6"/>
<path d="M68.4082 19.5773V22.5495C66.7225 23.7526 64.6512 24.4617 62.412 24.4617C61.0146 24.4617 59.6824 24.1854 58.4688 23.6855V19.5775C58.4688 18.1474 59.6433 16.9883 61.092 16.9883H65.7848C67.2337 16.988 68.4082 18.1473 68.4082 19.5773Z" fill="#FFF5F5"/>
<path d="M63.1133 20.0732V24.6969C63.1133 24.8609 62.9787 24.9938 62.8125 24.9938H61.9102C61.7441 24.9938 61.6094 24.8609 61.6094 24.6969V20.0732C61.6094 19.9092 61.7441 19.7764 61.9102 19.7764H62.8125C62.9787 19.7764 63.1133 19.9092 63.1133 20.0732Z" fill="#3342AE"/>
<path d="M63.1133 17.853V19.5838C63.1133 19.7478 62.9787 19.8807 62.8125 19.8807H61.9102C61.7441 19.8807 61.6094 19.7478 61.6094 19.5838V17.853C61.6094 17.689 61.7441 17.5562 61.9102 17.5562H62.8125C62.9787 17.5562 63.1133 17.6892 63.1133 17.853Z" fill="#232E7A"/>
<path d="M63.9395 8.50607V9.24825C63.9395 10.7187 62.7318 11.9106 61.242 11.9106H58.0742C57.9082 11.9106 57.7734 11.7778 57.7734 11.6138V9.37784C57.7734 8.31993 58.6422 7.4624 59.7141 7.4624H62.8819C63.466 7.46225 63.9395 7.92968 63.9395 8.50607Z" fill="#FF9F22"/>
<path d="M67.1035 11.6139C67.1035 11.7779 66.9689 11.9108 66.8027 11.9108H63.6349C62.1451 11.9108 60.9375 10.7188 60.9375 9.2484V8.50621C60.9375 7.92968 61.4109 7.4624 61.995 7.4624H65.1629C66.2347 7.4624 67.1035 8.31993 67.1035 9.37784V11.6139Z" fill="#FFB52D"/>
<path d="M65.0543 16.9805L63.7143 18.9283C63.5951 19.1018 63.3359 19.1018 63.2167 18.9283L62.4127 17.7596L61.6089 18.9281C61.4896 19.1016 61.2305 19.1016 61.1112 18.9281L59.7712 16.9803C59.6356 16.7832 59.7786 16.5166 60.0201 16.5166H64.8056C65.0468 16.5167 65.1898 16.7833 65.0543 16.9805Z" fill="#FFDE91"/>
<path d="M67.4701 12.3647V12.7347C67.4701 13.2454 67.0507 13.6594 66.5332 13.6594C66.4407 13.6594 66.3514 13.6461 66.267 13.6214C65.8079 14.8174 64.7938 15.7441 63.5352 16.0954V17.3583C63.5352 17.9712 63.0318 18.4681 62.4109 18.4681C61.7899 18.4681 61.2865 17.9712 61.2865 17.3583V16.0954C60.0279 15.7441 59.0138 14.8174 58.5547 13.6214C58.4703 13.6461 58.381 13.6594 58.2885 13.6594C57.771 13.6594 57.3516 13.2454 57.3516 12.7347V12.3647C57.3516 11.854 57.771 11.44 58.2885 11.44V10.7002C58.2885 8.45297 60.1341 6.63135 62.4109 6.63135C64.6876 6.63135 66.5332 8.45297 66.5332 10.7002V11.44C67.0507 11.44 67.4701 11.854 67.4701 12.3647Z" fill="#FAA68E"/>
<path d="M66.535 10.7001V12.1797C66.535 14.0112 65.309 15.56 63.623 16.0703C61.9369 15.5598 60.7109 14.0112 60.7109 12.1797V10.7001C60.7109 8.8687 61.9369 7.3199 63.623 6.80957C65.3091 7.32005 66.535 8.8687 66.535 10.7001Z" fill="#FFBEAA"/>
<path d="M61.5164 11.9695C61.5164 12.2493 61.2866 12.4761 61.0031 12.4761H60.4898C60.2064 12.4761 59.9766 12.2493 59.9766 11.9695C59.9766 11.6897 60.2064 11.4629 60.4898 11.4629H61.0031C61.2866 11.4629 61.5164 11.6897 61.5164 11.9695ZM64.3392 11.4629H63.826C63.5425 11.4629 63.3127 11.6897 63.3127 11.9695C63.3127 12.2493 63.5425 12.4761 63.826 12.4761H64.3392C64.6227 12.4761 64.8525 12.2493 64.8525 11.9695C64.8525 11.6897 64.6226 11.4629 64.3392 11.4629Z" fill="#3342AE"/>
<path d="M63.1803 13.7934V13.8441C63.1803 14.2637 62.8356 14.6039 62.4105 14.6039C61.9853 14.6039 61.6406 14.2637 61.6406 13.8441V13.7934C61.6406 13.6815 61.7325 13.5908 61.8459 13.5908H62.975C63.0884 13.5907 63.1803 13.6815 63.1803 13.7934Z" fill="#FFF5F5"/>
<path d="M63.4883 7.02184C63.4883 8.49226 62.2806 9.68421 60.7909 9.68421H58.0742C57.9082 9.68421 57.7734 9.55136 57.7734 9.38734C57.7734 7.50441 59.3199 5.97803 61.2276 5.97803H62.4307C63.0148 5.97803 63.4883 6.44546 63.4883 7.02184Z" fill="#FF9F22"/>
<path d="M67.1035 9.2389V9.38734C67.1035 9.55136 66.9689 9.68421 66.8027 9.68421H65.4396C63.9498 9.68421 62.7422 8.49226 62.7422 7.02184C62.7422 6.44531 63.2156 5.97803 63.7997 5.97803C65.6244 5.97803 67.1035 7.43806 67.1035 9.2389Z" fill="#FFB52D"/>
<path d="M53.7904 48.7504C53.9489 49.0056 53.9671 49.3248 53.8296 49.5917C53.4357 50.3565 52.9354 51.0458 52.3247 51.6486C51.684 52.281 50.9469 52.7934 50.1262 53.1903C49.8515 53.3232 49.5251 53.2997 49.2678 53.1364L46.6479 51.4732C45.3279 52.252 43.884 52.8474 42.3523 53.2234L41.6113 56.2704C41.5404 56.5615 41.3246 56.7999 41.0363 56.8926C40.2099 57.1586 39.3623 57.2968 38.4985 57.2968C37.5924 57.2968 36.7042 57.1448 35.8394 56.8527C35.5499 56.7549 35.3361 56.5106 35.2711 56.2155L34.6104 53.2123C33.0801 52.8318 31.6378 52.2324 30.3201 51.4496L27.612 53.0879C27.3535 53.2443 27.0299 53.2621 26.7596 53.1266C25.9848 52.7379 25.2864 52.244 24.6756 51.6412C24.035 51.0089 23.5158 50.2814 23.1137 49.4714C22.9791 49.2002 23.0028 48.878 23.1683 48.6241L24.8534 46.0381C24.0643 44.7353 23.4611 43.3102 23.0801 41.7983L19.9931 41.067C19.6982 40.9971 19.4566 40.784 19.3626 40.4995C19.0931 39.6838 18.9531 38.8472 18.9531 37.9948C18.9531 37.1004 19.1071 36.2236 19.4031 35.3702C19.5022 35.0845 19.7497 34.8734 20.0487 34.8093L23.0914 34.1572C23.4769 32.6467 24.0842 31.2232 24.8773 29.9226L23.2175 27.2497C23.0589 26.9945 23.0407 26.6752 23.1782 26.4083C23.5721 25.6436 24.0724 24.9542 24.6832 24.3514C25.3238 23.7191 26.0609 23.2067 26.8816 22.8098C27.1563 22.6769 27.4827 22.7004 27.74 22.8636L30.36 24.5269C31.5501 23.8245 32.8412 23.2714 34.2065 22.8938C35.5734 22.5157 37.0147 22.7547 38.5039 22.7547C47.2813 22.7547 54.0006 29.3367 54.0006 38.0001C54.0006 39.5001 54.1836 40.9507 53.7852 42.3244C53.399 43.6565 52.8388 44.916 52.1305 46.0776L53.7904 48.7504Z" fill="#FFB52D"/>
<path d="M58.0492 38.0054C58.0492 38.8997 57.8952 39.7764 57.5992 40.6299C57.5001 40.9157 57.2526 41.1267 56.9536 41.1909L53.9107 41.8429C53.8919 41.9164 53.8728 41.9897 53.853 42.0628C53.345 43.938 50.9518 44.5409 49.5923 43.1385C48.9778 42.5045 48.7561 41.6008 48.9839 40.7528C49.2307 39.8344 49.357 38.8677 49.345 37.87C49.2754 32.0927 44.4915 27.3673 38.6383 27.2946C37.6278 27.282 36.6487 27.4058 35.7186 27.6485C34.8612 27.8722 33.9477 27.6538 33.3062 27.0494C31.8824 25.7079 32.4928 23.3421 34.3947 22.8419C34.4795 22.8196 34.5646 22.798 34.6499 22.777L35.3909 19.7301C35.4617 19.439 35.6775 19.2006 35.9658 19.1078C36.7922 18.8418 37.6398 18.7036 38.5037 18.7036C39.4098 18.7036 40.298 18.8556 41.1627 19.1477C41.4522 19.2456 41.6661 19.4899 41.731 19.785L42.3929 22.7932C43.9161 23.1754 45.3532 23.7762 46.6679 24.5595L49.3904 22.9126C49.649 22.7561 49.9726 22.7383 50.2428 22.8738C51.0177 23.2626 51.7161 23.7564 52.3268 24.3592C52.9675 24.9916 53.4866 25.7191 53.8888 26.5291C54.0234 26.8003 53.9996 27.1224 53.8342 27.3764L52.14 29.9761C52.9299 31.2758 53.5344 32.6962 53.9173 34.2009L57.0095 34.9335C57.3044 35.0034 57.546 35.2164 57.64 35.5009C57.9092 36.3162 58.0492 37.1529 58.0492 38.0054Z" fill="#FFC14F"/>
<path d="M44.4404 46.2406C44.1481 46.4462 43.7613 46.4554 43.447 46.2841C41.981 45.4852 40.2955 45.0304 38.5024 45.0304C36.7161 45.0304 35.0365 45.4818 33.5743 46.275C33.2491 46.4514 32.8495 46.4419 32.5477 46.2289C29.9506 44.3946 28.2578 41.3925 28.2578 38.0001C28.2578 32.3638 32.93 27.8046 38.6602 27.8898C44.077 27.9704 48.5436 32.2808 48.7398 37.6242C48.8703 41.1774 47.1427 44.3401 44.4404 46.2406Z" fill="#7CD2E3"/>
<path d="M40.8972 45.3082C40.1289 45.1266 39.3272 45.0304 38.5024 45.0304C36.7161 45.0304 35.0365 45.4818 33.5743 46.275C33.2491 46.4514 32.8495 46.4419 32.5477 46.2289C29.9506 44.3946 28.2578 41.3925 28.2578 38.0001C28.2578 32.3638 32.93 27.8046 38.6602 27.8898C40.3008 27.9142 41.8542 28.3267 43.2281 29.0383C39.9612 30.7281 37.7323 34.1072 37.7323 38.0001C37.7326 40.8737 38.9471 43.4673 40.8972 45.3082Z" fill="#2CB3CD"/>
<path d="M40.0332 32.1556V36.6855C40.0332 38.1559 38.8256 39.3479 37.3358 39.3479H34.168C34.0019 39.3479 33.8672 39.215 33.8672 39.051V33.0273C33.8672 31.9693 34.736 31.1118 35.8078 31.1118H38.9757C39.5598 31.1118 40.0332 31.5791 40.0332 32.1556Z" fill="#232E7A"/>
<path d="M43.1895 39.051C43.1895 39.215 43.0549 39.3479 42.8887 39.3479H39.7208C38.2311 39.3479 37.0234 38.1559 37.0234 36.6855V32.1556C37.0234 31.5791 37.4969 31.1118 38.081 31.1118H41.2488C42.3206 31.1118 43.1895 31.9693 43.1895 33.0273V39.051Z" fill="#2B3894"/>
<path d="M38.3098 40.6377C37.3885 40.6377 36.5781 41.1065 36.1102 41.8155C35.669 41.4606 35.0429 40.6377 35.1244 40.6377H38.3098Z" fill="#E09380"/>
<path d="M44.493 43.2269V46.199C42.8073 47.4021 40.736 48.1112 38.4968 48.1112C37.0994 48.1112 35.7672 47.835 34.5535 47.335V43.227C34.5535 41.797 35.7281 40.6378 37.1768 40.6378H37.3725V39.7448C36.1139 39.3935 35.0998 38.4668 34.6406 37.2708C34.5563 37.2955 34.4669 37.3088 34.3744 37.3088C33.8569 37.3088 33.4375 36.8948 33.4375 36.3841V36.0142C33.4375 35.5034 33.8569 35.0894 34.3744 35.0894V34.3496C34.3744 32.1024 36.22 30.2808 38.4968 30.2808C40.7736 30.2808 42.6192 32.1024 42.6192 34.3496V35.0894C43.1366 35.0894 43.5561 35.5034 43.5561 36.0142V36.3841C43.5561 36.8948 43.1366 37.3088 42.6192 37.3088C42.5267 37.3088 42.4373 37.2955 42.353 37.2708C41.8938 38.4668 40.8797 39.3935 39.6211 39.7448V40.6378H41.8698C43.3185 40.6377 44.493 41.7968 44.493 43.2269Z" fill="#FAA68E"/>
<path d="M42.6209 34.3495V35.8292C42.6209 37.6606 41.3949 39.2094 39.7089 39.7197C38.0229 39.2092 36.7969 37.6606 36.7969 35.8292V34.3495C36.7969 32.5181 38.0229 30.9693 39.7089 30.459C41.3951 30.9693 42.6209 32.5181 42.6209 34.3495Z" fill="#FFBEAA"/>
<path d="M37.6023 35.6189C37.6023 35.8987 37.3726 36.1255 37.0891 36.1255H36.5758C36.2923 36.1255 36.0625 35.8987 36.0625 35.6189C36.0625 35.3391 36.2923 35.1123 36.5758 35.1123H37.0891C37.3726 35.1125 37.6023 35.3393 37.6023 35.6189ZM40.4252 35.1125H39.9119C39.6284 35.1125 39.3986 35.3393 39.3986 35.6191C39.3986 35.8989 39.6284 36.1257 39.9119 36.1257H40.4252C40.7087 36.1257 40.9385 35.8989 40.9385 35.6191C40.9385 35.3393 40.7085 35.1125 40.4252 35.1125Z" fill="#3342AE"/>
<path d="M39.2663 37.4429V37.4935C39.2663 37.9131 38.9216 38.2533 38.4964 38.2533C38.0713 38.2533 37.7266 37.9131 37.7266 37.4935V37.4429C37.7266 37.3309 37.8185 37.2402 37.9318 37.2402H39.061C39.1744 37.2402 39.2663 37.3309 39.2663 37.4429Z" fill="#FFF5F5"/>
<path d="M39.582 30.6713C39.582 32.1417 38.3744 33.3336 36.8846 33.3336H34.168C34.0019 33.3336 33.8672 33.2008 33.8672 33.0368C33.8672 31.1538 35.4137 29.6274 37.3214 29.6274H38.5245C39.1086 29.6274 39.582 30.0947 39.582 30.6713Z" fill="#232E7A"/>
<path d="M43.1895 32.8883V33.0368C43.1895 33.2008 43.0549 33.3336 42.8887 33.3336H41.5255C40.0358 33.3336 38.8281 32.1417 38.8281 30.6713C38.8281 30.0947 39.3016 29.6274 39.8857 29.6274C41.7104 29.6274 43.1895 31.0873 43.1895 32.8883Z" fill="#2B3894"/>
<path d="M40.4834 42.9399V47.9221C39.8415 48.0465 39.1783 48.1116 38.4994 48.1116C37.8206 48.1116 37.1573 48.0465 36.5156 47.9222V42.9399H40.4834Z" fill="#FFCD71"/>
<path d="M44.5001 43.2269V46.1991C43.0887 47.2065 41.4067 47.8673 39.5822 48.0557V41.8751C40.4397 41.6735 41.2049 41.2368 41.8039 40.6377H41.8767C43.3256 40.6377 44.5001 41.7968 44.5001 43.2269ZM35.2039 40.6377H35.1311C33.6822 40.6377 32.5078 41.797 32.5078 43.2269V46.1991C33.1414 46.6513 33.8296 47.0337 34.5606 47.3349C35.4443 47.699 36.3909 47.9444 37.3797 48.0508V41.8639C36.5407 41.6578 35.792 41.226 35.2039 40.6377Z" fill="#FCF2B6"/>
<path d="M35.6767 41.0563C34.9586 41.5182 34.484 42.3179 34.484 43.2269V47.3061C33.7785 47.0095 33.1137 46.6369 32.5 46.1991V43.2269C32.5 41.7968 33.6746 40.6377 35.1233 40.6377H35.1961C35.3463 40.7878 35.5068 40.9277 35.6767 41.0563Z" fill="#FFDE91"/>
<path d="M20.3778 69.9906C20.0854 70.1962 19.6986 70.2054 19.3843 70.0341C17.9183 69.2352 16.2329 68.7804 14.4398 68.7804C12.6534 68.7804 10.9739 69.2318 9.51162 70.025C9.18648 70.2014 8.78689 70.1919 8.48505 69.9789C5.88796 68.1446 4.19531 65.1425 4.19531 61.7501C4.19531 56.1138 8.8675 51.5546 14.5977 51.6398C20.0145 51.7204 24.4811 56.0308 24.6773 61.3742C24.8077 64.9274 23.08 68.0901 20.3778 69.9906Z" fill="#7CD2E3"/>
<path d="M13.5416 61.7501C13.5416 64.6038 14.7395 67.1813 16.6659 69.0198C15.9492 68.8631 15.2042 68.7804 14.4398 68.7804C12.6534 68.7804 10.9739 69.2318 9.51162 70.025C9.18648 70.2014 8.78689 70.1919 8.48505 69.9789C5.88796 68.1446 4.19531 65.1425 4.19531 61.7501C4.19531 56.1138 8.8675 51.5546 14.5977 51.6398C16.2127 51.6639 17.7434 52.0639 19.1016 52.7554C15.7998 54.434 13.5416 57.8318 13.5416 61.7501Z" fill="#2CB3CD"/>
<path d="M14.254 64.3877C12.8051 64.3877 11.6307 65.547 11.6307 66.9769V70.4062C11.6307 70.9455 11.0771 71.3185 10.5714 71.1147C9.81296 70.8091 9.10011 70.4163 8.44531 69.9491V66.9769C8.44531 65.5468 9.61986 64.3877 11.0686 64.3877H14.254Z" fill="#232E7A"/>
<path d="M20.4317 66.9772V69.9494C18.7459 71.1525 16.6746 71.8616 14.4354 71.8616C13.038 71.8616 11.7058 71.5853 10.4922 71.0854V66.9774C10.4922 65.5473 11.6667 64.3882 13.1155 64.3882H17.8082C19.2571 64.388 20.4317 65.5472 20.4317 66.9772Z" fill="#2B3894"/>
<path d="M15.9707 55.9056V57.6032C15.9707 59.0736 14.7631 60.2655 13.2733 60.2655H10.1055C9.93944 60.2655 9.80469 60.1327 9.80469 59.9687V56.7773C9.80469 55.7193 10.6735 54.8618 11.7453 54.8618H14.9132C15.4973 54.8618 15.9707 55.3291 15.9707 55.9056Z" fill="#7C3F2C"/>
<path d="M19.127 59.9687C19.127 60.1327 18.9924 60.2655 18.8262 60.2655H15.6583C14.1686 60.2655 12.9609 59.0736 12.9609 57.6032V55.9056C12.9609 55.3291 13.4344 54.8618 14.0185 54.8618H17.1863C18.2581 54.8618 19.127 55.7193 19.127 56.7773V59.9687Z" fill="#954C35"/>
<path d="M19.4936 59.7642V60.1341C19.4936 60.6448 19.0741 61.0588 18.5566 61.0588C18.4642 61.0588 18.3748 61.0455 18.2905 61.0208C17.8313 62.2168 16.8172 63.1435 15.5586 63.4948V64.7577C15.5586 65.3706 15.0553 65.8675 14.4343 65.8675C13.8133 65.8675 13.31 65.3706 13.31 64.7577V63.4948C12.0514 63.1435 11.0373 62.2168 10.5781 61.0208C10.4938 61.0455 10.4044 61.0588 10.3119 61.0588C9.79444 61.0588 9.375 60.6448 9.375 60.1341V59.7642C9.375 59.2534 9.79444 58.8394 10.3119 58.8394V58.0996C10.3119 55.8524 12.1575 54.0308 14.4343 54.0308C16.7111 54.0308 18.5566 55.8524 18.5566 58.0996V58.8394C19.0741 58.8394 19.4936 59.2534 19.4936 59.7642Z" fill="#FAA68E"/>
<path d="M18.5584 58.0995V59.5792C18.5584 61.4106 17.3324 62.9594 15.6464 63.4697C13.9604 62.9592 12.7344 61.4106 12.7344 59.5792V58.0995C12.7344 56.2681 13.9604 54.7193 15.6464 54.209C17.3326 54.7193 18.5584 56.2681 18.5584 58.0995Z" fill="#FFBEAA"/>
<path d="M13.5398 59.3689C13.5398 59.6487 13.3101 59.8755 13.0266 59.8755H12.5133C12.2298 59.8755 12 59.6487 12 59.3689C12 59.0891 12.2298 58.8623 12.5133 58.8623H13.0266C13.3101 58.8625 13.5398 59.0893 13.5398 59.3689ZM16.3627 58.8625H15.8494C15.5659 58.8625 15.3361 59.0893 15.3361 59.3691C15.3361 59.6489 15.5659 59.8757 15.8494 59.8757H16.3627C16.6462 59.8757 16.876 59.6489 16.876 59.3691C16.876 59.0893 16.646 58.8625 16.3627 58.8625Z" fill="#3342AE"/>
<path d="M15.2038 61.1929V61.2435C15.2038 61.6631 14.8591 62.0033 14.4339 62.0033C14.0088 62.0033 13.6641 61.6631 13.6641 61.2435V61.1929C13.6641 61.0809 13.756 60.9902 13.8693 60.9902H14.9985C15.1119 60.9902 15.2038 61.0809 15.2038 61.1929Z" fill="#FFF5F5"/>
<path d="M15.5195 54.4213C15.5195 55.8917 14.3119 57.0836 12.8221 57.0836H10.1055C9.93944 57.0836 9.80469 56.9508 9.80469 56.7868C9.80469 54.9038 11.3512 53.3774 13.2589 53.3774H14.462C15.0461 53.3774 15.5195 53.8447 15.5195 54.4213Z" fill="#7C3F2C"/>
<path d="M19.127 56.6383V56.7868C19.127 56.9508 18.9924 57.0836 18.8262 57.0836H17.463C15.9733 57.0836 14.7656 55.8917 14.7656 54.4213C14.7656 53.8447 15.2391 53.3774 15.8232 53.3774C17.6479 53.3774 19.127 54.8373 19.127 56.6383Z" fill="#954C35"/>
<path d="M38.4979 26.5513C32.102 26.5513 26.8984 31.6872 26.8984 38.0001C26.8984 44.313 32.102 49.4489 38.4979 49.4489C44.8939 49.4489 50.0974 44.313 50.0974 38.0001C50.0974 31.6872 44.8939 26.5513 38.4979 26.5513ZM38.4979 47.9646C32.9312 47.9646 28.4023 43.4945 28.4023 38.0001C28.4023 32.5057 32.9312 28.0356 38.4979 28.0356C44.0646 28.0356 48.5935 32.5057 48.5935 38.0001C48.5935 43.4945 44.0646 47.9646 38.4979 47.9646Z" fill="#FF9F22"/>
<path d="M62.41 2.94971C56.0141 2.94971 50.8105 8.08564 50.8105 14.3985C50.8105 20.7114 56.0141 25.8474 62.41 25.8474C68.806 25.8474 74.0095 20.7114 74.0095 14.3985C74.0095 8.08564 68.806 2.94971 62.41 2.94971ZM62.41 24.363C56.8433 24.363 52.3145 19.893 52.3145 14.3985C52.3145 8.90413 56.8433 4.43408 62.41 4.43408C67.9767 4.43408 72.5056 8.90413 72.5056 14.3985C72.5056 19.893 67.9767 24.363 62.41 24.363ZM14.4354 50.3013C8.03945 50.3013 2.83594 55.4372 2.83594 61.7501C2.83594 68.063 8.03945 73.1989 14.4354 73.1989C20.8314 73.1989 26.0349 68.063 26.0349 61.7501C26.0349 55.4372 20.8314 50.3013 14.4354 50.3013ZM14.4354 71.7146C8.86871 71.7146 4.33984 67.2445 4.33984 61.7501C4.33984 56.2557 8.86871 51.7856 14.4354 51.7856C20.0021 51.7856 24.531 56.2557 24.531 61.7501C24.531 67.2445 20.0021 71.7146 14.4354 71.7146Z" fill="#A6E0EC"/>
<path d="M68.3748 50.6096C68.2331 50.7289 68.0595 50.7874 67.8867 50.7874C67.6744 50.7874 67.4634 50.6991 67.3145 50.5272L64.8634 47.6944C64.202 57.9892 55.5061 66.1648 44.912 66.1648C44.4968 66.1648 44.1601 65.8325 44.1601 65.4226C44.1601 65.0128 44.4968 64.6804 44.912 64.6804C54.6814 64.6804 62.7053 57.1627 63.3571 47.6805L60.5991 50.0055C60.2833 50.2716 59.8088 50.2348 59.539 49.9231C59.2694 49.6114 59.3066 49.1429 59.6225 48.8767L63.8164 45.3416C63.968 45.2137 64.1646 45.1498 64.3638 45.1661C64.5627 45.1815 64.747 45.2743 64.8767 45.4239L68.4584 49.5634C68.728 49.8748 68.6906 50.3433 68.3748 50.6096ZM32.0935 9.83545C21.4993 9.83545 12.8035 18.0112 12.142 28.3058L9.69097 25.473C9.42132 25.1613 8.94669 25.1245 8.63087 25.3907C8.31504 25.6568 8.2776 26.1254 8.5474 26.437L12.1291 30.5765C12.2586 30.7261 12.4431 30.8189 12.6419 30.8343C12.6616 30.8359 12.6813 30.8367 12.701 30.8367C12.8794 30.8367 13.0528 30.774 13.1894 30.6589L17.3833 27.1237C17.6991 26.8575 17.7364 26.3889 17.4668 26.0773C17.1971 25.7656 16.7225 25.7288 16.4067 25.9949L13.6486 28.3199C14.3006 18.8377 22.3244 11.32 32.0938 11.32C32.509 11.32 32.8457 10.9876 32.8457 10.5778C32.8457 10.1679 32.5088 9.83545 32.0935 9.83545Z" fill="#FFF5F5"/>
<path d="M43.1954 13.582C43.1954 13.9919 42.8587 14.3242 42.4434 14.3242H38.6152C38.2 14.3242 37.8633 13.9919 37.8633 13.582C37.8633 13.1722 38.2 12.8398 38.6152 12.8398H42.4434C42.8588 12.8398 43.1954 13.1722 43.1954 13.582ZM34.9239 67.7617H31.0957C30.6805 67.7617 30.3438 68.0941 30.3438 68.5039C30.3438 68.9137 30.6805 69.2461 31.0957 69.2461H34.9239C35.3391 69.2461 35.6758 68.9137 35.6758 68.5039C35.6758 68.0941 35.3393 67.7617 34.9239 67.7617Z" fill="#8C96DD"/>
<path d="M48.124 10.5776C48.124 10.9875 47.7873 11.3198 47.372 11.3198H38.6152C38.2 11.3198 37.8633 10.9875 37.8633 10.5776C37.8633 10.1678 38.2 9.83545 38.6152 9.83545H47.372C47.7873 9.83545 48.124 10.1677 48.124 10.5776ZM39.8525 64.7573H31.0957C30.6805 64.7573 30.3438 65.0897 30.3438 65.4995C30.3438 65.9093 30.6805 66.2417 31.0957 66.2417H39.8525C40.2677 66.2417 40.6045 65.9093 40.6045 65.4995C40.6045 65.0895 40.2677 64.7573 39.8525 64.7573Z" fill="#A6AEE5"/>
</g>
<defs>
<clipPath id="clip0_2461_20068">
<rect width="77" height="76" fill="white"/>
</clipPath>
</defs>
</svg>
