<svg width="32" height="31" viewBox="0 0 32 31" fill="none" xmlns="http://www.w3.org/2000/svg">
<path d="M2.64601 30.7884H29.1061C30.5674 30.7884 31.7521 29.6089 31.7521 28.1476V7.0002C31.7521 6.43358 31.5702 5.88261 31.2332 5.42711L28.0111 1.07223C27.5122 0.397826 26.726 0 25.8871 0H2.64109C1.17974 0 0 1.18465 0 2.646V28.1424C0 29.6038 1.18466 30.7884 2.64601 30.7884Z" fill="#115766"/>
<path fill-rule="evenodd" clip-rule="evenodd" d="M6.73047 18.72C6.73047 18.3329 7.05319 18.019 7.45129 18.019H9.33845C9.66632 16.6117 10.9603 15.561 12.5067 15.561C14.0531 15.561 15.3472 16.6117 15.675 18.019H24.3028C24.7009 18.019 25.0236 18.3329 25.0236 18.72C25.0236 19.1071 24.7009 19.4209 24.3028 19.4209H15.675C15.3472 20.8282 14.0531 21.8789 12.5067 21.8789C10.9603 21.8789 9.66632 20.8282 9.33845 19.4209H7.45129C7.05319 19.4209 6.73047 19.1071 6.73047 18.72ZM6.73047 12.1653C6.73047 11.7782 7.05319 11.4644 7.45129 11.4644H16.079C16.4069 10.0571 17.7009 9.00638 19.2473 9.00638C20.7938 9.00638 22.0878 10.0571 22.4156 11.4644H24.3028C24.7009 11.4644 25.0236 11.7782 25.0236 12.1653C25.0236 12.5524 24.7009 12.8663 24.3028 12.8663H22.4156C22.0878 14.2736 20.7938 15.3242 19.2473 15.3242C17.7009 15.3242 16.4069 14.2736 16.079 12.8663H7.45129C7.05319 12.8663 6.73047 12.5524 6.73047 12.1653ZM10.6998 18.72C10.6998 19.6904 11.5088 20.477 12.5067 20.477C13.5047 20.477 14.3136 19.6904 14.3136 18.72C14.3136 17.7496 13.5047 16.9629 12.5067 16.9629C11.5088 16.9629 10.6998 17.7496 10.6998 18.72ZM17.4404 12.1653C17.4404 13.1357 18.2494 13.9224 19.2473 13.9224C20.2453 13.9224 21.0542 13.1357 21.0542 12.1653C21.0542 11.1949 20.2453 10.4083 19.2473 10.4083C18.2494 10.4083 17.4404 11.1949 17.4404 12.1653Z" fill="#C2E2E9"/>
</svg>
