<svg width="31" height="31" viewBox="0 0 31 31" fill="none" xmlns="http://www.w3.org/2000/svg">
<path fill-rule="evenodd" clip-rule="evenodd" d="M17.3027 27.1809H23.6886C24.3899 27.1809 24.9584 26.6124 24.9584 25.9112V19.501H25.2619C25.5994 19.501 25.923 19.6353 26.1613 19.8744L28.2189 21.939C28.4561 22.177 28.5893 22.4993 28.5893 22.8353V29.5177C28.5893 30.219 28.0208 30.7875 27.3195 30.7875H18.5725C17.8712 30.7875 17.3027 30.219 17.3027 29.5177V27.1809Z" fill="#C2E2E9"/>
<path fill-rule="evenodd" clip-rule="evenodd" d="M16.1406 6.2199H19.4795C19.817 6.2199 20.1406 6.35427 20.3789 6.59334L24.7471 10.9764C24.9843 11.2144 25.1175 11.5368 25.1175 11.8728V14.6473H29.5181C30.2194 14.6473 30.7879 14.0788 30.7879 13.3775V4.171C30.7879 3.83497 30.6547 3.51265 30.4175 3.27465L27.5262 0.373437C27.2879 0.134373 26.9643 0 26.6268 0H17.4104C16.7091 0 16.1406 0.568502 16.1406 1.26979V6.2199Z" fill="#115766"/>
<path d="M1.26978 17.1999H11.0747C11.7759 17.1999 12.3444 16.6314 12.3444 15.9301V8.45319C12.3444 8.11717 12.2112 7.79485 11.974 7.55684L9.654 5.22891C9.41575 4.98984 9.09212 4.85547 8.75461 4.85547H1.26979C0.568503 4.85547 0 5.42397 0 6.12525V15.9301C0 16.6314 0.568501 17.1999 1.26978 17.1999Z" fill="#115766"/>
<path fill-rule="evenodd" clip-rule="evenodd" d="M6.17188 18.8035H12.6783C13.3795 18.8035 13.9481 18.235 13.9481 17.5337V7.87402H18.647C18.9845 7.87402 19.3081 8.0084 19.5464 8.24746L23.094 11.8072C23.3312 12.0452 23.4644 12.3675 23.4644 12.7035V23.8968C23.4644 24.5981 22.8959 25.1666 22.1946 25.1666H7.44166C6.74038 25.1666 6.17188 24.5981 6.17188 23.8968V18.8035Z" fill="#46B2C8"/>
</svg>
