<svg width="38" height="31" viewBox="0 0 38 31" fill="none" xmlns="http://www.w3.org/2000/svg">
<path fill-rule="evenodd" clip-rule="evenodd" d="M17.8159 5.9082H1.83452C0.818597 5.9082 0 6.73177 0 7.7477V28.949C0 29.9649 0.823569 30.7885 1.8395 30.7885H36.0893C37.1053 30.7885 37.9288 29.9707 37.9288 28.9548V11.6703C37.9288 11.1539 37.7117 10.6622 37.3306 10.3137L34.0362 7.30145C33.7332 11.5211 30.214 14.8502 25.9172 14.8502C21.4214 14.8502 17.7769 11.2057 17.7769 6.70994C17.7769 6.43941 17.7901 6.17196 17.8159 5.9082Z" fill="#115766"/>
<path fill-rule="evenodd" clip-rule="evenodd" d="M25.9397 1.95271C28.5114 1.95271 30.5961 4.03746 30.5961 6.60912C30.5961 9.18078 28.5114 11.2655 25.9397 11.2655C23.368 11.2655 21.2833 9.18078 21.2833 6.60912C21.2833 4.03746 23.368 1.95271 25.9397 1.95271ZM32.5488 6.60912C32.5488 2.959 29.5898 0 25.9397 0C22.2896 0 19.3306 2.959 19.3306 6.60912C19.3306 8.08197 19.8124 9.4423 20.6269 10.5411L14.4865 16.6815C14.1052 17.0628 14.1052 17.681 14.4865 18.0623C14.8678 18.4436 15.486 18.4436 15.8673 18.0623L22.0077 11.9219C23.1065 12.7364 24.4669 13.2182 25.9397 13.2182C29.5898 13.2182 32.5488 10.2592 32.5488 6.60912Z" fill="#46B2C8"/>
</svg>
