<svg width="130" height="130" viewBox="0 0 130 130" fill="none" xmlns="http://www.w3.org/2000/svg">
<g clip-path="url(#clip0_1236_10126)">
<path d="M65 130C100.898 130 130 100.898 130 65C130 29.1015 100.898 0 65 0C29.1015 0 0 29.1015 0 65C0 100.898 29.1015 130 65 130Z" fill="#076E6D"/>
<path fill-rule="evenodd" clip-rule="evenodd" d="M65.1938 101.947C52.1161 101.947 41.4769 90.2065 41.4769 75.7769C41.4769 63.859 36.2455 58.086 37.4603 50.4079C37.5725 49.5528 39.4376 36.8032 50.9056 34.6187L55.3594 34.6016C67.0687 20.8955 87.2357 30.5563 92.6796 46.501C93.1291 47.8178 90.9412 58.8884 90.793 59.609C89.8248 64.3202 88.9112 68.7691 88.9112 75.7774C88.9112 90.2065 78.272 101.947 65.1938 101.947ZM51.1825 36.5516C40.809 38.5952 39.4074 50.6092 39.3826 50.7413C38.1736 57.1339 43.4264 63.8034 43.4264 75.7774C43.4264 89.1325 53.191 99.997 65.1938 99.997C77.1961 99.997 86.9603 89.132 86.9603 75.7774C86.9603 68.5702 87.8938 64.0272 88.8825 59.2165C89.6166 55.6451 90.3747 51.9528 90.7686 46.9413C87.3956 37.2712 78.1141 30.003 69.1021 30.003C64.2217 30.003 59.8878 32.1446 56.5699 36.1948C56.3851 36.421 56.1082 36.5511 55.8157 36.5511H51.183V36.5521L51.1825 36.5516Z" fill="#FEFEFE"/>
<path fill-rule="evenodd" clip-rule="evenodd" d="M41.8659 69.907C41.1102 69.907 40.6266 69.0631 41.0454 68.4069L52.859 49.8741C53.2193 49.3076 54.0368 49.2667 54.4512 49.799L59.431 56.1994C67.8209 41.5827 72.4961 45.2774 72.3025 46.68C72.2889 46.7765 71.0662 56.3598 77.9917 60.5162L88.8405 67.7473C89.9096 68.4596 88.8254 70.083 87.7587 69.3697L76.9489 62.164C70.1058 58.0587 70.1097 49.7815 70.294 47.1919C67.1886 46.8784 61.734 55.964 60.4285 58.421C60.097 59.045 59.2307 59.1176 58.7982 58.5623L53.7619 52.0883L42.6907 69.4555C42.5045 69.7471 42.1896 69.9065 41.8673 69.9065L41.8659 69.907Z" fill="#FEFEFE"/>
<path fill-rule="evenodd" clip-rule="evenodd" d="M56.7633 72.6346H52.7059C51.4223 72.6346 51.4223 70.6846 52.7059 70.6846H56.7633C58.0464 70.6846 58.0469 72.6346 56.7633 72.6346Z" fill="#FEFEFE"/>
<path fill-rule="evenodd" clip-rule="evenodd" d="M77.2763 72.6346H73.2184C71.9348 72.6346 71.9353 70.6846 73.2184 70.6846H77.2763C78.5594 70.6846 78.5594 72.6346 77.2763 72.6346Z" fill="#FEFEFE"/>
<path fill-rule="evenodd" clip-rule="evenodd" d="M65.0196 88.0218C63.483 88.0218 57.9753 86.7397 59.1531 84.895C59.4426 84.4411 60.0452 84.3071 60.5 84.5986C63.5557 86.552 66.4914 86.5549 69.4759 84.604C70.5484 83.9029 71.6185 85.5341 70.5416 86.2371C68.7188 87.4271 66.8746 88.0218 65.0201 88.0218H65.0196Z" fill="#FEFEFE"/>
<path fill-rule="evenodd" clip-rule="evenodd" d="M88.4949 76.2727C86.1198 76.2727 86.8944 74.1614 88.0474 74.2974C90.3747 74.5714 92.4695 72.7281 92.4695 70.3472C92.4695 68.2129 90.8003 66.4681 88.6704 66.377C87.3975 66.3224 87.458 64.3733 88.7547 64.4289C91.9308 64.5664 94.4195 67.1657 94.4195 70.3472C94.42 73.6154 91.7616 76.2727 88.4944 76.2727H88.4949Z" fill="#FEFEFE"/>
<path fill-rule="evenodd" clip-rule="evenodd" d="M41.4856 76.2732C38.2189 76.2732 35.5615 73.6149 35.5615 70.3481C35.5615 65.3225 41.9263 63.0034 42.0955 65.342C42.1345 65.8797 41.7309 66.3462 41.1936 66.3852C36.1758 66.7499 36.4254 74.3232 41.4871 74.3232C42.0687 74.3232 43.1909 73.9264 43.4059 75.0154C43.6341 76.1708 42.2817 76.2732 41.4856 76.2732Z" fill="#FEFEFE"/>
<path fill-rule="evenodd" clip-rule="evenodd" d="M104.253 40.6462C103.715 40.6462 103.278 40.2094 103.278 39.6712V27.2302C103.278 26.1943 102.436 25.3514 101.4 25.3514H89.4068C88.1233 25.3514 88.1237 23.4014 89.4068 23.4014H101.4C103.511 23.4014 105.229 25.1188 105.229 27.2302V39.6712C105.228 40.2104 104.791 40.6462 104.253 40.6462H104.253Z" fill="#FEFEFE"/>
<path fill-rule="evenodd" clip-rule="evenodd" d="M25.7279 40.6462C25.1897 40.6462 24.7529 40.2094 24.7529 39.6712V27.2302C24.7529 25.1188 26.4704 23.4014 28.5818 23.4014H40.5748C41.8584 23.4014 41.8584 25.3514 40.5748 25.3514H28.5813C27.5453 25.3514 26.7024 26.1943 26.7024 27.2302V39.6712C26.7029 40.2104 26.2666 40.6462 25.7279 40.6462Z" fill="#FEFEFE"/>
<path fill-rule="evenodd" clip-rule="evenodd" d="M101.399 106.599H89.4059C88.1223 106.599 88.1228 104.649 89.4059 104.649H101.399C102.435 104.649 103.277 103.807 103.277 102.771V90.3287C103.277 89.0451 105.227 89.0456 105.227 90.3287V102.771C105.228 104.882 103.51 106.599 101.399 106.599Z" fill="#FEFEFE"/>
<path fill-rule="evenodd" clip-rule="evenodd" d="M40.5748 106.6H28.5818C26.4704 106.6 24.7529 104.882 24.7529 102.771V90.3287C24.7529 89.0451 26.7029 89.0456 26.7029 90.3287V102.771C26.7029 103.807 27.5458 104.649 28.5818 104.649H40.5748C41.8584 104.649 41.8584 106.6 40.5748 106.6Z" fill="#FEFEFE"/>
<path fill-rule="evenodd" clip-rule="evenodd" d="M104.273 59.9109H25.7283C24.4447 59.9109 24.4447 57.9609 25.7283 57.9609H104.273C105.556 57.9609 105.556 59.9109 104.273 59.9109Z" fill="#FEFEFE"/>
</g>
<defs>
<clipPath id="clip0_1236_10126">
<rect width="130" height="130" fill="white"/>
</clipPath>
</defs>
</svg>
