<svg width="130" height="130" viewBox="0 0 130 130" fill="none" xmlns="http://www.w3.org/2000/svg">
<g clip-path="url(#clip0_1236_10142)">
<path d="M65 130C100.898 130 130 100.898 130 65C130 29.1015 100.898 0 65 0C29.1015 0 0 29.1015 0 65C0 100.898 29.1015 130 65 130Z" fill="#FFC727"/>
<path fill-rule="evenodd" clip-rule="evenodd" d="M26.9065 30.2761V50.7707C26.9065 53.079 23.4004 53.078 23.4004 50.7707V28.5231C23.4004 27.5554 24.1858 26.77 25.1534 26.77H45.3955C47.7043 26.77 47.7043 30.2766 45.3955 30.2766H26.9065V30.2761ZM103.094 30.2761H84.6052C82.2964 30.2761 82.2969 26.7695 84.6052 26.7695H104.847C105.815 26.7695 106.6 27.5549 106.6 28.5226V50.7702C106.6 53.0785 103.094 53.0775 103.094 50.7702V30.2756L103.094 30.2761ZM26.9065 99.7241H45.3964C47.7053 99.7241 47.7053 103.231 45.3964 103.231H25.1534C24.1858 103.231 23.4004 102.445 23.4004 101.478V79.229C23.4004 76.9202 26.9065 76.9207 26.9065 79.229V99.7246V99.7241ZM103.094 99.7241V79.2286C103.094 76.9198 106.601 76.9202 106.601 79.2286V101.477C106.601 102.445 105.815 103.23 104.848 103.23H84.6057C82.2969 103.23 82.2974 99.7236 84.6057 99.7236H103.095L103.094 99.7241ZM104.847 71.215H25.1534C22.8451 71.215 22.8451 67.7084 25.1534 67.7084H104.847C107.156 67.7084 107.156 71.215 104.847 71.215Z" fill="#FEFEFE"/>
<path fill-rule="evenodd" clip-rule="evenodd" d="M64.9999 79.4055C63.0011 79.4055 61.0823 78.959 59.1772 78.3901C56.9644 77.7295 57.9677 74.3687 60.1805 75.0297C64.0605 76.189 65.9398 76.19 69.8198 75.0297C72.0287 74.3691 73.0378 77.7285 70.8226 78.3896C68.9175 78.9585 66.9986 79.405 64.9994 79.405L64.9999 79.4055ZM58.0759 66.593C56.9464 66.593 56.8411 65.8471 54.5859 66.5194C52.3736 67.1785 51.3708 63.8206 53.5831 63.1591C55.9363 62.4556 60.5807 62.5594 59.7554 65.3396C59.5345 66.0831 58.8506 66.593 58.0764 66.593H58.0759ZM75.916 66.593C74.806 66.593 74.6631 65.8491 72.4265 66.5189C70.2157 67.1809 69.209 63.8206 71.4227 63.1591C73.7837 62.4536 78.4252 62.5643 77.595 65.3411C77.3727 66.0841 76.6897 66.593 75.916 66.593Z" fill="#FEFEFE"/>
<path fill-rule="evenodd" clip-rule="evenodd" d="M84.9093 64.0923C84.0844 64.0923 83.6403 63.1061 84.2043 62.4898C84.5519 62.1106 84.8708 61.7094 85.1637 61.2911C84.7489 59.1758 84.7279 54.6952 84.3399 54.7868L69.6563 58.2608C69.3843 58.3266 69.0957 58.2671 68.869 58.0994L62.764 53.5954C61.108 54.2496 48.1717 59.4581 45.547 60.3697C45.6503 60.5052 45.7517 60.6359 45.8497 60.7592C46.6287 61.742 45.1292 62.9301 44.3497 61.9468C42.2436 59.2889 38.8599 54.0195 39.7662 48.5098C39.7691 47.7673 39.9387 43.2799 43.4195 39.8542C46.1505 37.1666 50.1485 35.8737 55.3019 36.0039C56.6976 34.8515 62.6451 30.3538 69.6573 31.2064C70.7605 31.2474 86.3903 32.1093 90.3069 47.2925C90.4107 47.703 90.9918 57.9039 85.6147 63.7817C85.426 63.9879 85.1676 64.0923 84.9098 64.0923H84.9093Z" fill="#FEFEFE"/>
<path fill-rule="evenodd" clip-rule="evenodd" d="M43.6166 74.3141C38.084 72.738 37.5799 63.8752 43.3387 61.6775V59.5501C43.3387 57.2413 46.8453 57.2413 46.8453 59.5501V71.1633C46.8453 80.2572 55.0597 86.9277 64.138 86.9286H65.8623C74.941 86.9296 83.1554 80.2562 83.1554 71.1633V58.8374C83.1554 55.2454 81.2483 52.9357 83.579 52.1839C84.5009 51.887 85.4871 52.3897 85.7864 53.3106C86.8029 56.4413 86.663 58.5458 86.663 61.6741C92.1995 63.5871 92.1147 72.679 86.3851 74.3111C84.6662 83.9617 75.6094 90.4362 65.8627 90.4362H64.1385C54.3928 90.4362 45.3375 83.9627 43.6176 74.3136L43.6166 74.3141ZM43.3387 70.0431V65.8681C42.5748 67.0132 42.5573 68.8984 43.3387 70.0431ZM86.6625 65.87V70.0411C87.4425 68.8974 87.4254 67.0152 86.6625 65.87Z" fill="#FEFEFE"/>
</g>
<defs>
<clipPath id="clip0_1236_10142">
<rect width="130" height="130" fill="white"/>
</clipPath>
</defs>
</svg>
