<svg width="130" height="130" viewBox="0 0 130 130" fill="none" xmlns="http://www.w3.org/2000/svg">
<g clip-path="url(#clip0_1236_10115)">
<path d="M65 130C100.898 130 130 100.898 130 65C130 29.1015 100.898 0 65 0C29.1015 0 0 29.1015 0 65C0 100.898 29.1015 130 65 130Z" fill="#FF2E93"/>
<path fill-rule="evenodd" clip-rule="evenodd" d="M80.2833 77.0599C79.1557 77.0599 78.3172 76.002 78.5761 74.9046C79.2859 71.8982 79.1923 67.8968 79.7929 64.5716C81.5406 54.8937 76.3667 47.764 66.2857 47.8522C60.0389 47.9068 53.9222 50.4423 53.4951 57.4092C53.1773 62.5977 52.4051 68.436 49.6102 72.9376C48.3968 74.8929 45.408 73.0575 46.6311 71.0885C49.0754 67.1529 49.718 61.7231 49.9954 57.1957C50.5316 48.4475 57.9645 44.4173 66.256 44.3466C78.5361 44.2418 85.384 53.3498 83.2439 65.1946C82.6185 68.6549 82.8003 72.2794 81.9886 75.71C81.8014 76.5007 81.094 77.0599 80.2828 77.0599H80.2833Z" fill="#FEFEFE"/>
<path fill-rule="evenodd" clip-rule="evenodd" d="M71.4342 85.3236C70.1765 85.3236 69.3243 84.0205 69.8289 82.8676C72.6208 76.4906 79.4283 61.2021 73.4647 55.3374C68.9109 50.8597 58.4911 52.0156 58.045 60.4421C57.7452 66.1059 56.8131 74.1842 52.0253 77.9965C50.2304 79.4254 48.0459 76.6841 49.8409 75.2538C53.5722 72.2801 54.3132 64.6239 54.5443 60.2568C55.2414 47.0821 73.3525 45.9257 78.0667 55.8342C81.8863 63.8634 76.3253 76.7704 73.042 84.2726C72.7622 84.9122 72.1304 85.3236 71.4342 85.3236Z" fill="#FEFEFE"/>
<path fill-rule="evenodd" clip-rule="evenodd" d="M65.369 85.6557C63.9611 85.6557 63.1255 84.0577 63.9304 82.9009C67.239 78.1463 74.9976 61.7984 67.2142 59.0821C64.0971 57.9944 63.1157 62.2986 62.9973 64.5343C62.7959 68.3353 60.0333 75.4406 57.9663 78.7678C57.3111 79.8228 56.0099 81.764 54.5386 81.4925C53.1746 81.2404 52.5979 79.347 53.803 78.3876C55.9139 76.7077 59.321 67.6548 59.496 64.3485C60.1283 52.4364 71.0869 53.5962 73.4922 61.0121C75.6933 67.7991 70.6964 79.3202 66.8086 84.9035C66.48 85.3759 65.9428 85.6557 65.3685 85.6557H65.369Z" fill="#FEFEFE"/>
<path fill-rule="evenodd" clip-rule="evenodd" d="M59.5904 83.8556C58.0991 83.8556 57.2874 82.0957 58.258 80.9618C61.3961 77.2963 63.4251 72.9073 64.285 68.1688C64.6209 66.3163 64.8798 63.7808 64.6667 61.8834C64.404 59.5907 67.8706 59.1837 68.149 61.4666C68.4244 63.7242 68.1626 66.6 67.7624 68.8099C66.7918 74.1655 64.463 79.1005 60.9227 83.2418C60.5888 83.6323 60.1032 83.8556 59.5899 83.8556H59.5904Z" fill="#FEFEFE"/>
<path fill-rule="evenodd" clip-rule="evenodd" d="M65.0008 93.3122C52.1454 93.3122 41.6875 82.8544 41.6875 69.9989C41.6875 67.6901 45.1941 67.6906 45.1941 69.9989C45.1941 80.9199 54.0803 89.8051 65.0013 89.8051C75.9223 89.8051 84.8075 80.9195 84.8075 69.9989C84.8075 67.6901 88.3141 67.6906 88.3141 69.9989C88.3146 82.8544 77.8567 93.3122 65.0013 93.3122H65.0008ZM86.561 61.7558C85.5933 61.7558 84.808 60.9704 84.808 60.0027C84.808 49.0817 75.9228 40.1956 65.0018 40.1956C54.0808 40.1956 45.1946 49.0817 45.1946 60.0027C45.1946 62.312 41.688 62.312 41.688 60.0027C41.688 47.1473 52.1459 36.6895 65.0013 36.6895C77.8557 36.6895 88.3238 47.1454 88.3146 60.0037C88.3136 60.9719 87.5287 61.7563 86.5605 61.7563L86.561 61.7558Z" fill="#FEFEFE"/>
<path fill-rule="evenodd" clip-rule="evenodd" d="M98.8885 102.504H85.2009C82.8916 102.504 82.8926 98.9969 85.2009 98.9969H98.8885C101.207 98.9969 103.093 97.1103 103.093 94.7922V83.0707C103.093 80.7619 106.599 80.7624 106.599 83.0707V94.7922C106.599 99.0452 103.141 102.504 98.8885 102.504ZM45.2395 102.504H31.1117C26.8597 102.504 23.4004 99.0442 23.4004 94.7917V83.0673C23.4004 80.7585 26.907 80.759 26.907 83.0673V94.7917C26.907 97.1098 28.7941 98.9964 31.1122 98.9964H45.2395C47.5483 98.9964 47.5478 102.504 45.24 102.504H45.2395ZM104.847 49.7929C103.879 49.7929 103.094 49.0076 103.094 48.0399V35.2079C103.094 32.8898 101.207 31.0027 98.889 31.0027H85.2053C82.896 31.0027 82.897 27.4961 85.2053 27.4961H98.889C103.141 27.4961 106.6 30.9549 106.6 35.2079V48.0404C106.6 49.0085 105.814 49.7934 104.847 49.7934V49.7929ZM25.1539 49.6321C24.1862 49.6321 23.4009 48.8462 23.4009 47.879V35.2079C23.4009 30.9554 26.8602 27.4961 31.1122 27.4961H45.2648C47.5736 27.4961 47.5736 31.0027 45.2648 31.0027H31.1122C28.7941 31.0027 26.907 32.8898 26.907 35.2079V47.8795C26.907 48.8472 26.1216 49.6325 25.1539 49.6325V49.6321Z" fill="#FEFEFE"/>
<path fill-rule="evenodd" clip-rule="evenodd" d="M100.206 67.9431H29.7941C27.4853 67.9431 27.4853 64.4365 29.7941 64.4365H100.206C102.515 64.4365 102.515 67.9431 100.207 67.9431H100.206Z" fill="#FEFEFE"/>
</g>
<defs>
<clipPath id="clip0_1236_10115">
<rect width="130" height="130" fill="white"/>
</clipPath>
</defs>
</svg>
