<svg width="130" height="130" viewBox="0 0 130 130" fill="none" xmlns="http://www.w3.org/2000/svg">
<path d="M64.9937 128.464C100.047 128.464 128.464 100.047 128.464 64.9937C128.464 29.9401 100.047 1.52344 64.9937 1.52344C29.9401 1.52344 1.52344 29.9401 1.52344 64.9937C1.52344 100.047 29.9401 128.464 64.9937 128.464Z" fill="#99CC66"/>
<path fill-rule="evenodd" clip-rule="evenodd" d="M80.8875 75.2135C80.5616 75.2135 80.242 75.0531 80.0524 74.7599C77.1737 70.303 72.3148 67.6434 67.0561 67.6434L66.2407 67.6434C65.6921 67.6434 65.2467 67.1984 65.2467 66.6499C65.2473 66.1014 65.6918 65.6564 66.2401 65.6564L67.0565 65.6564C72.9934 65.6564 78.4741 68.6559 81.7218 73.6801C82.0191 74.1423 81.8873 74.7564 81.4268 75.0548C81.2601 75.1617 81.0733 75.2135 80.8875 75.2135V75.2135ZM70.8302 108.384H33.9374C33.3887 108.384 32.9434 107.939 32.9434 107.391L32.944 83.1059C32.944 73.4851 40.7705 65.6563 50.3929 65.6563L51.1556 65.6562C51.7043 65.6562 52.1487 66.1014 52.1487 66.6498C52.1491 67.1983 51.7038 67.6433 51.1554 67.6433L50.3933 67.6432C41.8659 67.6432 34.9303 74.5804 34.9303 83.1059L34.9309 106.397H70.8301C71.3789 106.397 71.8233 106.842 71.8233 107.391C71.8236 107.939 71.3783 108.384 70.8301 108.384L70.8302 108.384Z" fill="white"/>
<path fill-rule="evenodd" clip-rule="evenodd" d="M58.7244 64.0606C49.6364 64.0606 42.2422 56.3594 42.2422 46.8956C42.2428 45.9624 42.3146 45.0242 42.4578 44.1049C42.5447 43.5633 43.0511 43.1907 43.5944 43.2787C44.1365 43.3632 44.5068 43.8703 44.4222 44.4137C44.2934 45.2311 44.2291 46.066 44.2291 46.8956C44.2297 55.2641 50.7315 62.0736 58.7243 62.0736C66.7186 62.0736 73.2209 55.2642 73.2209 46.8956C73.2212 45.7848 73.1055 44.6741 72.8761 43.5944C72.7642 43.0579 73.1055 42.5302 73.6435 42.4163C74.1807 42.3025 74.7077 42.6458 74.8199 43.1838C75.077 44.398 75.208 45.6468 75.208 46.8956C75.2082 56.3594 67.8139 64.0606 58.7244 64.0606V64.0606Z" fill="white"/>
<path fill-rule="evenodd" clip-rule="evenodd" d="M57.5989 23.6042C51.6831 23.6042 46.8932 28.3872 44.3404 32.9648C42.1728 36.8575 41.4325 40.8987 42.5829 42.5752C42.7473 42.8148 43.247 43.5428 44.8838 43.31C53.9014 42.0336 62.1315 33.3614 62.2127 33.2734C62.4507 33.0199 62.8025 32.9095 63.1423 32.9803C63.4806 33.0526 63.7581 33.2942 63.8736 33.6202C63.9037 33.7011 65.8278 38.7358 73.6531 42.2561C74.3538 42.5718 74.9123 42.6459 75.1106 42.4493C75.5901 41.9732 75.5952 39.7741 74.0998 36.378C71.3632 30.1516 65.419 23.6044 58.7079 23.6044C58.5442 23.6042 58.3801 23.6095 58.218 23.6164C58.1857 23.6181 58.1543 23.6181 58.1232 23.6164C57.9474 23.6077 57.7732 23.6044 57.5989 23.6042V23.6042ZM44.2717 45.3433C42.4819 45.3433 41.4825 44.4827 40.9443 43.6997C39.3152 41.3246 39.9665 36.7316 42.6054 31.9988C45.5151 26.7779 51.1309 21.312 58.1698 21.6294C61.9098 21.4638 65.7002 23.0196 69.1446 26.1225C71.898 28.6026 74.3672 32.0488 75.9195 35.5777C76.7358 37.4336 78.4291 41.9577 76.5093 43.8601C75.9215 44.4447 74.8053 44.9536 72.8374 44.0688C66.6233 41.2711 63.796 37.5888 62.6612 35.6329C60.1066 38.0717 53.0507 44.1603 45.1632 45.2779C44.8461 45.3227 44.5492 45.3434 44.2717 45.3433L44.2717 45.3433Z" fill="white"/>
<path fill-rule="evenodd" clip-rule="evenodd" d="M44.0628 108.384C43.5148 108.384 43.0693 107.939 43.0693 107.391V83.5852C43.0693 83.0368 43.5142 82.5918 44.0628 82.5918C44.6115 82.5916 45.0563 83.0368 45.0563 83.5853V107.391C45.0563 107.939 44.6114 108.384 44.0628 108.384V108.384Z" fill="white"/>
<path fill-rule="evenodd" clip-rule="evenodd" d="M59.0245 76.058C52.4458 76.058 47.0938 71.9513 47.0938 66.9046C47.0942 66.3561 47.5387 65.9111 48.0873 65.9111C48.6356 65.9111 49.0807 66.3562 49.0807 66.9046C49.0811 70.8561 53.541 74.0711 59.0239 74.0711C64.5056 74.0711 68.9674 70.8561 68.9674 66.9046C68.9677 66.3561 69.4108 65.9111 69.9608 65.9111C70.5099 65.9111 70.9543 66.3562 70.9543 66.9046C70.9546 71.9513 65.6023 76.058 59.0245 76.058H59.0245Z" fill="white"/>
<path fill-rule="evenodd" clip-rule="evenodd" d="M51.149 67.6434C50.601 67.6434 50.1553 67.1985 50.1553 66.65L50.1554 60.9875C50.1554 60.4373 50.6002 59.9941 51.1488 59.9941C51.6993 59.9941 52.1422 60.4374 52.1422 60.9876L52.1424 66.65C52.1424 67.1985 51.699 67.6435 51.149 67.6434Z" fill="white"/>
<path fill-rule="evenodd" clip-rule="evenodd" d="M66.2992 67.6435C65.7512 67.6435 65.3057 67.1985 65.3057 66.65L65.3057 60.9876C65.3057 60.4374 65.7505 59.9942 66.299 59.9942L66.2992 59.9941C66.848 59.9941 67.2926 60.4375 67.2926 60.9877L67.2927 66.65C67.2927 67.1985 66.8476 67.6436 66.2992 67.6435Z" fill="white"/>
<path fill-rule="evenodd" clip-rule="evenodd" d="M70.9288 75.2137C70.1302 75.2137 69.4811 75.8622 69.4811 76.6608L69.4813 104.95C69.4813 105.749 70.1296 106.398 70.9282 106.398L93.6234 106.398C94.4221 106.398 95.0699 105.749 95.0699 104.951L95.0702 76.6607C95.0702 75.862 94.4213 75.2135 93.6228 75.2135H70.9287L70.9288 75.2137ZM93.6234 108.384H70.9288C69.035 108.384 67.4941 106.844 67.4941 104.951L67.4943 76.6607C67.4943 74.7669 69.0344 73.2266 70.9282 73.2266L93.6234 73.2266C95.5172 73.2266 97.0569 74.7669 97.0569 76.6607L97.0571 104.95C97.0571 106.844 95.5166 108.384 93.6234 108.384L93.6234 108.384Z" fill="white"/>
<path fill-rule="evenodd" clip-rule="evenodd" d="M82.2762 79.2184C77.6083 79.2184 73.8121 83.0164 73.8121 87.6819C73.8122 92.3491 77.6083 96.1454 82.2756 96.1454C86.9416 96.1454 90.7391 92.3491 90.7391 87.6819C90.7393 83.0163 86.9411 79.2184 82.2762 79.2184H82.2762ZM82.2762 98.1323C76.5133 98.1323 71.8252 93.4444 71.8252 87.6819C71.8253 81.9193 76.5131 77.2314 82.2756 77.2314C88.0384 77.2314 92.7261 81.9194 92.7261 87.6819C92.7262 93.4443 88.0381 98.1323 82.2762 98.1323Z" fill="white"/>
<path fill-rule="evenodd" clip-rule="evenodd" d="M82.2762 79.2235C81.7343 79.4339 80.3766 82.2678 80.3766 87.6819C80.3768 93.0976 81.734 95.9298 82.2756 96.1402C82.8155 95.9297 84.1745 93.0977 84.1745 87.6819C84.1745 82.2677 82.8154 79.434 82.2762 79.2235ZM82.2762 98.1323C79.6061 98.1323 78.3896 92.7148 78.3896 87.6819C78.3899 82.6489 79.6055 77.2314 82.2755 77.2314C84.946 77.2314 86.1614 82.6489 86.1614 87.6819C86.1614 92.7147 84.9454 98.1323 82.2761 98.1323H82.2762Z" fill="white"/>
<path fill-rule="evenodd" clip-rule="evenodd" d="M90.7742 87.835H90.7757H90.7742ZM73.9333 87.6814C74.6715 88.2282 77.5273 89.0751 82.2756 89.0751C87.0223 89.0751 89.8802 88.2283 90.6167 87.6815C89.8809 87.1365 87.0221 86.2896 82.2756 86.2896C77.5277 86.2896 74.6711 87.1365 73.9333 87.6814ZM82.2762 91.062C81.2066 91.062 71.8252 90.9673 71.8252 87.6815C71.8253 84.3975 81.2063 84.3027 82.2756 84.3027C83.3449 84.3027 92.7261 84.3975 92.7261 87.6815C92.7262 90.9671 83.3449 91.0621 82.2762 91.062Z" fill="white"/>
<path fill-rule="evenodd" clip-rule="evenodd" d="M88.3769 103.548H76.1757C75.6271 103.548 75.1816 103.104 75.1816 102.554C75.1822 102.006 75.6268 101.561 76.1751 101.561L88.3769 101.561C88.9248 101.561 89.3697 102.006 89.3697 102.554C89.3703 103.104 88.9248 103.548 88.3769 103.548H88.3769Z" fill="white"/>
</svg>
