<svg width="40" height="31" viewBox="0 0 40 31" fill="none" xmlns="http://www.w3.org/2000/svg">
<path d="M9.00827 30.7884H36.312C37.9497 30.7884 39.2773 29.4659 39.2773 27.8282V7.14118C39.2773 6.48391 39.0589 5.84646 38.6565 5.3268L35.4217 1.14971C34.8601 0.424489 33.998 0 33.0807 0H9.00504C7.36735 0 6.04297 1.32761 6.04297 2.9653V27.8231C6.04297 29.4608 7.37058 30.7884 9.00827 30.7884Z" fill="#115766"/>
<path d="M16.6443 24.501H1.48177C0.662928 24.501 -0.00087738 23.8374 -0.00087738 23.0185V10.3866C-0.00087738 10.0777 0.095623 9.77744 0.275143 9.52602L2.14434 6.90819C2.42264 6.51844 2.87029 6.28711 3.3492 6.28711H16.6479C17.4668 6.28711 18.127 6.95091 18.127 7.76976V23.0183C18.127 23.8372 17.4631 24.501 16.6443 24.501Z" fill="#46B2C8"/>
<path fill-rule="evenodd" clip-rule="evenodd" d="M9.06455 10.5024C6.36262 10.5024 4.17228 12.6927 4.17228 15.3946C4.17228 18.0966 6.36262 20.2869 9.06455 20.2869C11.7665 20.2869 13.9568 18.0966 13.9568 15.3946C13.9568 12.6927 11.7665 10.5024 9.06455 10.5024ZM2.76953 15.3946C2.76953 11.918 5.58791 9.09961 9.06455 9.09961C12.5412 9.09961 15.3596 11.918 15.3596 15.3946C15.3596 18.8713 12.5412 21.6896 9.06455 21.6896C5.58791 21.6896 2.76953 18.8713 2.76953 15.3946Z" fill="#C2E2E9"/>
<path fill-rule="evenodd" clip-rule="evenodd" d="M13.4757 10.9828C13.7496 11.2567 13.7496 11.7008 13.4757 11.9747L5.64459 19.8058C5.37068 20.0797 4.9266 20.0797 4.65269 19.8058C4.37879 19.5319 4.37879 19.0878 4.65269 18.8139L12.4838 10.9828C12.7577 10.7089 13.2018 10.7089 13.4757 10.9828Z" fill="#C2E2E9"/>
</svg>
