<svg width="45" height="31" viewBox="0 0 45 31" fill="none" xmlns="http://www.w3.org/2000/svg">
<path d="M9.9187 30.7884H34.8292C36.5037 30.7884 37.8612 29.4341 37.8612 27.7596V7.10753C37.8612 6.47049 37.6605 5.85045 37.2877 5.3339L34.3456 1.25754C33.7756 0.467838 32.8645 0 31.8905 0H9.91114C8.23662 0 6.88672 1.35746 6.88672 3.03198V27.7564C6.88672 29.431 8.24418 30.7884 9.9187 30.7884Z" fill="#115766"/>
<path fill-rule="evenodd" clip-rule="evenodd" d="M42.9918 4.81566C43.2903 5.11414 43.2903 5.59807 42.9918 5.89655L27.9348 20.9535C27.6364 21.252 27.1524 21.252 26.854 20.9535L17.3564 11.456L2.83991 25.9725C2.54143 26.271 2.0575 26.271 1.75902 25.9725C1.46054 25.674 1.46054 25.1901 1.75902 24.8916L16.816 9.83464C17.1145 9.53616 17.5984 9.53616 17.8969 9.83464L27.3944 19.3322L41.9109 4.81566C42.2094 4.51718 42.6933 4.51718 42.9918 4.81566Z" fill="#C2E2E9"/>
<circle cx="17.2072" cy="10.8088" r="2.299" fill="#46B2C8"/>
<circle cx="27.5431" cy="20.2814" r="2.299" fill="#46B2C8"/>
<circle cx="42.4513" cy="5.35661" r="2.299" fill="#46B2C8"/>
<circle cx="2.299" cy="25.4318" r="2.299" fill="#46B2C8"/>
</svg>
