<svg width="76" height="76" viewBox="0 0 76 76" fill="none" xmlns="http://www.w3.org/2000/svg">
<g clip-path="url(#clip0_3336_50568)">
<path d="M61.8825 66.1862C68.972 59.55 73.4041 50.1094 73.4041 39.6324C73.4041 19.5471 57.1218 3.26489 37.0366 3.26489C25.4494 3.26489 15.1285 8.68435 8.46875 17.1261L61.8825 66.1862Z" fill="#73C3F9"/>
<path d="M54.4218 35.7685C45.2255 35.7685 37.7439 28.2868 37.7439 19.0905C37.7439 18.3989 37.7869 17.7175 37.8691 17.0479H8.53818C7.59308 18.2391 6.7219 19.4913 5.92969 20.7968L12.1651 66.1574C13.6124 67.5153 15.1705 68.7564 16.825 69.8649H61.7848C63.7848 69.8649 65.412 68.2377 65.412 66.2377V31.624C62.475 34.2026 58.628 35.7685 54.4218 35.7685Z" fill="#3C58A0"/>
<path d="M28.7512 69.2639C28.396 68.7629 28.0556 67.9134 28.7123 66.9015C28.9409 66.5494 28.908 66.0857 28.6446 65.7588C28.0561 65.0283 27.3967 63.663 28.9142 62.1783C29.0966 61.9999 29.1947 61.752 29.1947 61.4969V39.0714C29.1947 38.8284 29.1032 38.5958 28.9394 38.4162C28.3697 37.7911 27.1588 36.0798 28.6703 34.0573C28.9336 33.7051 28.9133 33.2145 28.6319 32.8766C27.7656 31.8365 26.4512 29.5064 28.939 26.79C29.1027 26.6114 29.1947 26.3777 29.1947 26.1355V20.9806C29.1947 20.7563 29.119 20.5375 28.9746 20.3659C28.5611 19.8743 27.81 18.659 28.9773 17.2833C29.0373 17.2126 29.0818 17.1322 29.1171 17.0479H8.53818C7.59308 18.2391 6.7219 19.4913 5.92969 20.7968L12.1651 66.1574C13.6124 67.5153 15.1705 68.7564 16.825 69.8649H28.9344C28.9394 69.655 28.8787 69.4436 28.7512 69.2639Z" fill="#2A428C"/>
<path d="M2.99219 26.83H39.6488C38.6527 24.9369 38.0104 22.8303 37.8094 20.5979H6.04748C4.84009 22.5597 3.81438 24.6448 2.99219 26.83Z" fill="#6289CC"/>
<path d="M29.1917 26.1357V20.9807C29.1917 20.8479 29.162 20.7183 29.1104 20.5979H6.04748C4.84009 22.5597 3.81423 24.6449 2.99219 26.83H28.9009C28.9129 26.8167 28.9236 26.8035 28.9359 26.7901C29.0997 26.6114 29.1917 26.3779 29.1917 26.1357Z" fill="#3C58A0"/>
<path d="M8.47024 23.9517C8.60358 23.1292 8.04486 22.3542 7.22228 22.2209C6.39971 22.0876 5.62479 22.6463 5.49144 23.4689C5.3581 24.2914 5.91683 25.0663 6.7394 25.1997C7.56197 25.333 8.33689 24.7743 8.47024 23.9517Z" fill="#FFDD40"/>
<path d="M12.6665 23.7138C12.6665 24.5473 11.9908 25.2229 11.1575 25.2229C10.324 25.2229 9.64844 24.5472 9.64844 23.7138C9.64844 22.8805 10.3241 22.2048 11.1575 22.2048C11.9909 22.2048 12.6665 22.8804 12.6665 23.7138Z" fill="#50DD89"/>
<path d="M39.1847 24.865H17.6197C16.9841 24.865 16.4688 24.3496 16.4688 23.714C16.4688 23.0784 16.9841 22.563 17.6197 22.563H39.1847C39.8203 22.563 40.3357 23.0784 40.3357 23.714C40.3357 24.3496 39.8205 24.865 39.1847 24.865Z" fill="#76A3E5"/>
<path d="M54.421 35.7685C51.1921 35.7685 48.1754 34.8448 45.619 33.2495H15.3125V66.315H61.784C61.8223 66.315 61.8612 66.2761 61.8612 66.2378V34.0138C59.6201 35.1357 57.0932 35.7685 54.421 35.7685Z" fill="#E8F4FC"/>
<path d="M28.9135 62.1785C29.096 62.0001 29.1941 61.7522 29.1941 61.497V39.0715C29.1941 38.8285 29.1025 38.5959 28.9388 38.4163C28.3691 37.7913 27.1581 36.0799 28.6696 34.0575C28.8464 33.8208 28.8925 33.5226 28.8203 33.2495H15.3125V66.315H28.8614C28.8478 66.1162 28.7743 65.9208 28.644 65.759C28.0553 65.0285 27.3959 63.6632 28.9135 62.1785Z" fill="#D3DCFB"/>
<path d="M53.7751 60.773H21.3047V38.6699H53.0703C53.4597 38.6699 53.7752 38.9855 53.7752 39.3749V60.773H53.7751Z" fill="#FCBBCB"/>
<path d="M28.875 57.0828V42.3601C28.875 40.322 30.5271 38.6699 32.5652 38.6699H21.3047V60.773H32.5652C30.5271 60.773 28.875 59.1209 28.875 57.0828Z" fill="#FCA2B3"/>
<path d="M0.671875 39.6325C0.671875 50.1775 5.16166 59.6724 12.3318 66.3152H15.7552V33.2495H1.23089C0.863953 35.3218 0.671875 37.4547 0.671875 39.6325Z" fill="#BEC8F7"/>
<path d="M54.1418 61.924H20.8775C20.2419 61.924 19.7266 61.4087 19.7266 60.7731C19.7266 60.1374 20.2419 59.6221 20.8775 59.6221H54.1418C54.7774 59.6221 55.2928 60.1374 55.2928 60.7731C55.2928 61.4087 54.7774 61.924 54.1418 61.924Z" fill="#3C58A0"/>
<path d="M21.7269 46.0949H20.8775C20.2419 46.0949 19.7266 45.5796 19.7266 44.944C19.7266 44.3083 20.2419 43.793 20.8775 43.793H21.7269C22.3625 43.793 22.8779 44.3083 22.8779 44.944C22.8779 45.5797 22.3625 46.0949 21.7269 46.0949Z" fill="#3C58A0"/>
<path d="M21.7269 40.9719H20.8775C20.2419 40.9719 19.7266 40.4565 19.7266 39.8209C19.7266 39.1853 20.2419 38.6699 20.8775 38.6699H21.7269C22.3625 38.6699 22.8779 39.1851 22.8779 39.8209C22.8779 40.4567 22.3625 40.9719 21.7269 40.9719Z" fill="#3C58A0"/>
<path d="M21.7269 56.3408H20.8775C20.2419 56.3408 19.7266 55.8254 19.7266 55.1898C19.7266 54.5542 20.2419 54.0388 20.8775 54.0388H21.7269C22.3625 54.0388 22.8779 54.5542 22.8779 55.1898C22.8779 55.8256 22.3625 56.3408 21.7269 56.3408Z" fill="#3C58A0"/>
<path d="M21.7269 51.2177H20.8775C20.2419 51.2177 19.7266 50.7024 19.7266 50.0668C19.7266 49.4311 20.2419 48.9158 20.8775 48.9158H21.7269C22.3625 48.9158 22.8779 49.4311 22.8779 50.0668C22.8779 50.7024 22.3625 51.2177 21.7269 51.2177Z" fill="#3C58A0"/>
<path d="M10.8133 46.094H3.15098C2.51538 46.094 2 45.5786 2 44.943C2 44.3074 2.51538 43.792 3.15098 43.792H10.8133C11.4489 43.792 11.9643 44.3074 11.9643 44.943C11.9643 45.5787 11.4489 46.094 10.8133 46.094Z" fill="#E8F4FC"/>
<path d="M10.8133 40.9712H3.15098C2.51538 40.9712 2 40.4558 2 39.8202C2 39.1846 2.51538 38.6692 3.15098 38.6692H10.8133C11.4489 38.6692 11.9643 39.1846 11.9643 39.8202C11.9643 40.4558 11.4489 40.9712 10.8133 40.9712Z" fill="#E8F4FC"/>
<path d="M10.8149 54.0381H3.64062C3.97832 54.8199 4.34199 55.5878 4.73179 56.3401H10.8148C11.4504 56.3401 11.9657 55.8247 11.9657 55.1891C11.9659 54.5533 11.4505 54.0381 10.8149 54.0381Z" fill="#E8F4FC"/>
<path d="M10.8097 48.915H3.14738C2.65367 48.915 2.23374 49.2266 2.07031 49.6633C2.1996 50.1149 2.33884 50.5621 2.48505 51.0064C2.67238 51.1386 2.90052 51.217 3.14738 51.217H10.8097C11.4453 51.217 11.9607 50.7016 11.9607 50.066C11.9607 49.4303 11.4453 48.915 10.8097 48.915Z" fill="#E8F4FC"/>
<path d="M53.2661 56.2469L41.3772 51.124C41.1617 51.0312 40.9797 50.8748 40.8557 50.6756L38.002 46.0949H30.6619C30.2824 46.0949 29.9272 45.9078 29.7125 45.5946L26.2017 40.4717C25.8423 39.9472 25.9761 39.2309 26.5005 38.8717C27.0249 38.5122 27.7411 38.646 28.1005 39.1705L31.2685 43.7931H38.641C39.0386 43.7931 39.4077 43.9981 39.6179 44.3355L42.6189 49.1526L54.1768 54.133C54.7606 54.3846 55.0299 55.0617 54.7784 55.6454C54.5258 56.232 53.847 56.4973 53.2661 56.2469Z" fill="#FF4155"/>
<path d="M3.10734 26.5229C2.25115 28.7375 1.60589 31.0565 1.19531 33.456H45.9547C43.1886 31.8199 40.9328 29.4089 39.49 26.5229C26.2728 26.5229 10.7143 26.5229 3.10734 26.5229Z" fill="#73C3F9"/>
<path d="M28.9343 26.79C29.007 26.7106 29.0646 26.62 29.1074 26.5229C18.8646 26.5229 8.7772 26.5229 3.10734 26.5229C2.25115 28.7375 1.60589 31.0565 1.19531 33.456H28.8501C28.8416 33.2489 28.7667 33.0441 28.6273 32.8765C27.7609 31.8366 26.4463 29.5062 28.9343 26.79Z" fill="#4FABF7"/>
<path d="M49.2008 57.3832C48.9744 56.7892 49.2723 56.1242 49.8664 55.8978L52.7756 54.7888L51.6666 51.8796C51.4403 51.2857 51.7382 50.6206 52.3322 50.3942C52.9263 50.1677 53.5913 50.4657 53.8176 51.0596L55.3366 55.0443C55.563 55.6382 55.265 56.3033 54.671 56.5297L50.6863 58.0487C50.0935 58.2747 49.4277 57.9782 49.2008 57.3832Z" fill="#FF4155"/>
<path d="M66.3623 31.0484C72.9644 24.4463 72.9644 13.7422 66.3623 7.14013C59.7603 0.538054 49.0562 0.538055 42.4541 7.14013C35.852 13.7422 35.852 24.4463 42.4541 31.0483C49.0562 37.6504 59.7603 37.6504 66.3623 31.0484Z" fill="#FFDD40"/>
<path d="M61.639 3.8042L59.7969 5.97584C59.8583 6.08969 59.9328 6.20621 60.0246 6.32586L68.3573 17.9714C68.3573 17.9714 69.5102 19.7439 71.2827 17.9714C70.8727 11.6991 67.0423 6.36311 61.639 3.8042Z" fill="#FFE98D"/>
<path d="M65.2416 28.3689C65.2018 28.1317 64.9975 27.9569 64.7572 27.9638C63.8029 27.9916 63.4584 27.4096 63.3342 26.9975C63.2694 26.7824 63.0686 26.6353 62.8451 26.6554C59.4852 26.9559 58.8225 23.6152 58.8225 23.6152C57.8957 20.6297 54.4162 19.0907 54.4162 19.0907C50.3943 17.8756 51.3036 14.4303 51.3036 14.4303L50.9626 12.8303C48.5452 12.4444 48.4367 10.3946 48.5106 9.48975C48.5291 9.2619 48.3807 9.05008 48.1592 8.99323C47.2331 8.75603 47.123 8.02839 47.1567 7.55621C47.1732 7.32583 47.0289 7.11416 46.8059 7.05389C45.6263 6.73535 45.4923 5.71603 45.5214 5.11946C45.5276 4.9918 45.4817 4.8735 45.4026 4.78369C40.6591 7.77842 37.5078 13.0661 37.5078 19.0905C37.5078 28.4286 45.0778 35.9988 54.416 35.9988C59.6005 35.9988 64.239 33.6646 67.3405 29.9908C67.3313 29.9906 67.3222 29.9896 67.3129 29.99C65.7589 30.0733 65.3485 29.0054 65.2416 28.3689Z" fill="#FFC839"/>
<path d="M67.0877 20.6174C67.9478 13.617 62.9701 7.24483 55.9697 6.38476C48.9692 5.52469 42.5971 10.5024 41.737 17.5028C40.8769 24.5033 45.8546 30.8754 52.8551 31.7355C59.8555 32.5956 66.2277 27.6179 67.0877 20.6174Z" fill="#FFC839"/>
<path d="M41.6484 19.0904C41.6484 26.1288 47.3747 31.8551 54.4132 31.8551C58.1306 31.8551 61.481 30.2569 63.8159 27.7125C63.5397 27.5121 63.4008 27.2282 63.3311 26.9972C63.2664 26.7821 63.0656 26.635 62.842 26.6551C59.4822 26.9556 58.8195 23.6149 58.8195 23.6149C57.8927 20.6294 54.4132 19.0904 54.4132 19.0904C50.3913 17.8753 51.3006 14.43 51.3006 14.43L50.9596 12.83C48.5422 12.4441 48.4337 10.3943 48.5076 9.48944C48.5261 9.26159 48.3777 9.04977 48.1562 8.99292C47.751 8.88916 47.5021 8.69159 47.353 8.4624C43.9173 10.7525 41.6484 14.6609 41.6484 19.0904Z" fill="#FFB332"/>
<path d="M54.4137 33.0356C46.7245 33.0356 40.4688 26.7798 40.4688 19.0906C40.4688 11.4013 46.7245 5.14551 54.4137 5.14551C62.1031 5.14551 68.3588 11.4013 68.3588 19.0906C68.3588 26.7798 62.1031 33.0356 54.4137 33.0356ZM54.4137 7.50611C48.0261 7.50611 42.8294 12.7029 42.8294 19.0906C42.8294 25.4782 48.0261 30.675 54.4137 30.675C60.8014 30.675 65.9981 25.4782 65.9981 19.0906C65.9981 12.7029 60.8014 7.50611 54.4137 7.50611Z" fill="#FFB332"/>
<path d="M54.414 33.0357C58.6838 33.0357 62.511 31.106 65.0709 28.0737C64.9851 28.002 64.8745 27.9603 64.7551 27.9637C63.8008 27.9915 63.4562 27.4095 63.332 26.9974C63.2962 26.8788 63.2183 26.7822 63.1187 26.7216C60.9939 29.1423 57.8803 30.6749 54.4139 30.6749C48.0263 30.6749 42.8295 25.4781 42.8295 19.0906C42.8295 14.8938 45.073 11.2112 48.4235 9.17881C48.361 9.0896 48.2683 9.02191 48.1569 8.99326C47.2308 8.75606 47.1207 8.02842 47.1544 7.55624C47.1625 7.4412 47.1308 7.33091 47.069 7.2417C43.11 9.70472 40.4688 14.0946 40.4688 19.0906C40.469 26.7799 46.7248 33.0357 54.414 33.0357Z" fill="#FF9100"/>
<path d="M56.1561 18.4853C55.9552 18.4144 55.7706 18.3471 55.5941 18.2817V13.646C56.0673 13.7223 56.4385 13.8945 57.0149 14.2715C57.5601 14.6283 58.2919 14.4754 58.6488 13.9299C59.0056 13.3844 58.8527 12.6528 58.3071 12.2959C57.2797 11.624 56.5282 11.3618 55.5941 11.2714V10.75C55.5941 10.0982 55.0656 9.56958 54.4137 9.56958C53.7618 9.56958 53.2333 10.098 53.2333 10.75V11.3829C49.2071 12.4427 48.4404 18.2005 52.6711 19.696C52.872 19.7671 53.0568 19.8343 53.2333 19.8996V24.5353C52.7603 24.459 52.3886 24.2867 51.8125 23.9098C51.2671 23.553 50.5353 23.706 50.1786 24.2515C49.8218 24.797 49.9747 25.5285 50.5203 25.8854C51.548 26.5577 52.2991 26.8204 53.2333 26.9108V27.4314C53.2333 28.0833 53.7618 28.6117 54.4137 28.6117C55.0656 28.6117 55.5941 28.0833 55.5941 27.4314V26.7984C59.6071 25.7421 60.4012 19.9859 56.1561 18.4853ZM53.2333 13.9265V17.3792C51.6908 16.6714 52.0095 14.6991 53.2333 13.9265ZM55.5939 24.2548V20.8023C57.136 21.5099 56.8182 23.482 55.5939 24.2548Z" fill="#FF9100"/>
<path d="M73.0064 13.5173C76.097 10.4268 76.097 5.41602 73.0064 2.32549C69.9159 -0.765034 64.9052 -0.765035 61.8146 2.32549C58.7241 5.41602 58.7241 10.4268 61.8146 13.5173C64.9052 16.6078 69.9159 16.6078 73.0064 13.5173Z" fill="#FF4155"/>
<path d="M72.833 13.6895C69.0596 14.0779 69.2432 10.4176 69.2432 10.4176L63.99 5.48383C62.0318 4.71418 62.185 2.69231 62.3458 1.84399C60.6114 3.29586 59.5078 5.47626 59.5078 7.91494C59.5078 12.2863 63.0515 15.8299 67.4228 15.8299C69.5158 15.8299 71.4177 15.0162 72.833 13.6895Z" fill="#E80054"/>
<path d="M74.6918 4.7902C73.85 2.83349 72.2418 1.28559 70.2452 0.521729C69.3872 1.08742 68.8203 2.0585 68.8203 3.16288C68.8203 4.90969 70.2364 6.32578 71.9832 6.32578C73.1342 6.32578 74.1384 5.70917 74.6918 4.7902Z" fill="#FF7186"/>
<path d="M71.4794 5.81563C70.8517 5.26418 69.8898 5.33425 69.299 5.92503L67.5765 7.6475C67.4921 7.73196 67.3551 7.73196 67.2706 7.6475L65.5103 5.88703C64.873 5.24979 63.824 5.27532 63.2199 5.96347C62.6686 6.59122 62.7387 7.55294 63.3294 8.14372L66.3142 11.1285C66.927 11.7413 67.9203 11.7413 68.5331 11.1285L71.5558 8.10572C72.1929 7.46863 72.1674 6.41992 71.4794 5.81563Z" fill="#E8F4FC"/>
<path d="M68.7768 69.749H46.0545V71.0222C46.0545 71.9158 45.3276 72.6428 44.4338 72.6428H21.7656C26.4105 74.796 31.5851 75.9999 37.0413 75.9999H61.6457C62.2114 75.9999 62.7759 75.9254 63.3182 75.764C63.3211 75.7631 63.324 75.7622 63.3269 75.7613L67.0432 74.6535C68.7247 74.1523 69.8775 72.6063 69.8781 70.8516C69.8784 70.2433 69.3853 69.749 68.7768 69.749Z" fill="#E8F4FC"/>
<path d="M30.0962 75.3362C29.3653 73.9697 30.6002 72.8746 30.6002 72.8746L29.3598 72.6431H21.7656C24.3884 73.8588 27.1802 74.7715 30.0962 75.3362Z" fill="#D3DCFB"/>
<path d="M22.2721 72.8745H44.4318C45.4505 72.8745 46.284 72.041 46.284 71.0223V69.749H16.6484C18.4177 70.9493 20.2988 71.9965 22.2721 72.8745Z" fill="#D3DCFB"/>
<path d="M28.7461 71.0223V69.749H16.6484C18.4177 70.9493 20.2988 71.9965 22.272 72.8745H30.5981C29.5796 72.8745 28.7461 72.0409 28.7461 71.0223Z" fill="#BEC8F7"/>
</g>
<defs>
<clipPath id="clip0_3336_50568">
<rect width="76" height="76" fill="white"/>
</clipPath>
</defs>
</svg>
