<svg width="76" height="76" viewBox="0 0 76 76" fill="none" xmlns="http://www.w3.org/2000/svg">
<g clip-path="url(#clip0_2461_19937)">
<path d="M38 76C58.9868 76 76 58.9868 76 38C76 17.0132 58.9868 0 38 0C17.0132 0 0 17.0132 0 38C0 58.9868 17.0132 76 38 76Z" fill="#FDBF00"/>
<path d="M52.5365 24.2417L58.7044 30.4096L47.1851 41.9289L23.1538 17.8975L16.8559 24.1952L21.2936 28.6329L12.5234 37.403L49.3854 74.265C64.8116 69.4284 76.0036 55.0215 76.0036 37.9999C76.0036 36.9885 75.9632 35.9865 75.8856 34.9949L58.8344 17.9438L52.5365 24.2417Z" fill="#FF9100"/>
<path d="M20.0391 16.625C17.575 16.625 15.5859 18.6141 15.5859 21.0781C15.5859 23.5422 17.575 25.5312 20.0391 25.5312C22.5031 25.5312 24.4922 23.5422 24.4922 21.0781C24.4922 18.6141 22.5031 16.625 20.0391 16.625Z" fill="#00C0F1"/>
<path d="M20.0365 25.5312C15.9396 25.5312 12.5156 28.8563 12.5156 32.9531V37.4062H27.4584V32.9531C27.4584 28.8563 24.1334 25.5312 20.0365 25.5312Z" fill="#25D9F8"/>
<path d="M20.0391 25.5312V16.625C22.5031 16.625 24.4922 18.6141 24.4922 21.0781C24.4922 23.5422 22.5031 25.5312 20.0391 25.5312Z" fill="#00C0F1"/>
<path d="M27.4609 32.9531V37.4062H20.0391V25.5312C24.1359 25.5312 27.4609 28.8563 27.4609 32.9531Z" fill="#00C0F1"/>
<path d="M55.6641 16.625C53.2 16.625 51.2109 18.6141 51.2109 21.0781C51.2109 23.5422 53.2 25.5312 55.6641 25.5312C58.1281 25.5312 60.1172 23.5422 60.1172 21.0781C60.1172 18.6141 58.1281 16.625 55.6641 16.625Z" fill="#00C0F1"/>
<path d="M55.6641 25.5312C51.5672 25.5312 48.2422 28.8563 48.2422 32.9531V37.4062H63.1849V32.9531C63.1849 28.8563 59.7609 25.5312 55.6641 25.5312Z" fill="#25D9F8"/>
<path d="M55.6641 25.5312V16.625C58.1281 16.625 60.1172 18.6141 60.1172 21.0781C60.1172 23.5422 58.1281 25.5312 55.6641 25.5312Z" fill="#00C0F1"/>
<path d="M63.1849 32.9531V37.4062H55.6641V25.5312C59.7609 25.5312 63.1849 28.8563 63.1849 32.9531Z" fill="#00C0F1"/>
<path d="M49.3855 43.1589L45.1875 47.3569L58.9867 61.1561L63.1847 56.9582L49.3855 43.1589Z" fill="#009AE4"/>
<path d="M37.8472 19.606C28.8188 19.606 21.5312 26.8936 21.5312 35.9219C21.5312 44.9502 28.8189 52.2379 37.8472 52.2379C46.8755 52.2379 54.1632 44.9502 54.1632 35.9219C54.1632 26.8936 46.8756 19.606 37.8472 19.606Z" fill="#537983"/>
<path d="M54.1797 35.9219C54.1797 44.917 46.847 52.25 37.8516 52.25V19.5938C46.847 19.5938 54.1797 26.9264 54.1797 35.9219Z" fill="#3E5959"/>
<path d="M37.8502 22.5718C30.4629 22.5718 24.5 28.5348 24.5 35.9219C24.5 43.3091 30.463 49.2721 37.8502 49.2721C45.2373 49.2721 51.2003 43.3092 51.2003 35.9219C51.2003 28.5347 45.2375 22.5718 37.8502 22.5718Z" fill="#E0F4FF"/>
<path d="M51.2109 35.9219C51.2109 43.2844 45.2141 49.2812 37.8516 49.2812V22.5625C45.2141 22.5625 51.2109 28.5592 51.2109 35.9219Z" fill="#BBDCFF"/>
<path d="M37.8516 25.5312C35.3875 25.5312 33.3984 27.5203 33.3984 29.9844C33.3984 32.4484 35.3875 34.4375 37.8516 34.4375C40.3156 34.4375 42.3047 32.4484 42.3047 29.9844C42.3047 27.5203 40.3156 25.5312 37.8516 25.5312Z" fill="#00C0F1"/>
<path d="M37.8516 34.4375C33.7547 34.4375 30.4297 37.7625 30.4297 41.8594V46.3125H45.2734V41.8594C45.2734 37.7625 41.9484 34.4375 37.8516 34.4375Z" fill="#25D9F8"/>
<path d="M37.8516 34.4375V25.5312C40.3156 25.5312 42.3047 27.5203 42.3047 29.9844C42.3047 32.4484 40.3156 34.4375 37.8516 34.4375Z" fill="#00C0F1"/>
<path d="M45.2734 41.8594V46.3125H37.8516V34.4375C41.9484 34.4375 45.2734 37.7625 45.2734 41.8594Z" fill="#00C0F1"/>
</g>
<defs>
<clipPath id="clip0_2461_19937">
<rect width="76" height="76" fill="white"/>
</clipPath>
</defs>
</svg>
