<svg width="76" height="76" viewBox="0 0 76 76" fill="none" xmlns="http://www.w3.org/2000/svg">
<g clip-path="url(#clip0_2461_20005)">
<path d="M38 76C58.9868 76 76 58.9868 76 38C76 17.0132 58.9868 0 38 0C17.0132 0 0 17.0132 0 38C0 58.9868 17.0132 76 38 76Z" fill="#EE4B68"/>
<path d="M16.3781 27.9409H60.0905C61.9733 27.9409 63.4998 29.4674 63.4998 31.3502V64.3805H12.9688V31.3502C12.9688 29.4674 14.4947 27.9409 16.3781 27.9409Z" fill="#656D7A"/>
<path d="M60.5041 30.9346H15.9609V61.3821H60.5041V30.9346Z" fill="#70B1E1"/>
<path d="M7.17188 67.3364H69.2864L63.4944 64.3789H12.9639L7.17188 67.3364Z" fill="#D2D2D4"/>
<path d="M69.2841 67.3374H7.17188V69.9671H69.2841V67.3374Z" fill="#656D7A"/>
<path d="M9.80219 72.5965H66.6567C68.109 72.5965 69.2864 71.4191 69.2864 69.9668H7.17188C7.17188 71.4191 8.34928 72.5965 9.80219 72.5965Z" fill="#4D535F"/>
<path d="M42.6193 67.3374H33.8359V69.9671H42.6193V67.3374Z" fill="#353944"/>
<path d="M51.5755 45.756C54.7541 45.756 57.3308 43.1793 57.3308 40.0008C57.3308 36.8223 54.7541 34.2456 51.5755 34.2456C48.397 34.2456 45.8203 36.8223 45.8203 40.0008C45.8203 43.1793 48.397 45.756 51.5755 45.756Z" fill="#F5EA07"/>
<path d="M51.5723 44.9327C48.8535 44.9327 46.6406 42.7204 46.6406 40.001C46.6406 37.2817 48.8529 35.0693 51.5723 35.0693C54.2917 35.0693 56.504 37.2817 56.504 40.001C56.504 42.7204 54.2917 44.9327 51.5723 44.9327ZM51.5723 35.9392C49.3327 35.9392 47.5105 37.7614 47.5105 40.001C47.5105 42.2407 49.3327 44.0629 51.5723 44.0629C53.8119 44.0629 55.6342 42.2407 55.6342 40.001C55.6348 37.7614 53.8125 35.9392 51.5723 35.9392Z" fill="#E8BB20"/>
<path d="M51.4106 42.9827V42.4578C50.7533 42.3907 50.1637 42.1295 49.6406 41.674L50.1655 41.0482C50.5687 41.3985 50.9837 41.607 51.41 41.674V40.2781C50.8679 40.1487 50.4713 39.9783 50.2195 39.7675C49.9678 39.5567 49.8413 39.2432 49.8413 38.8288C49.8413 38.4138 49.9868 38.0747 50.2765 37.8105C50.5669 37.5469 50.9445 37.4032 51.41 37.3789V37.019H51.8708V37.386C52.398 37.4246 52.8973 37.6045 53.367 37.9257L52.8991 38.5877C52.5827 38.3621 52.2395 38.2232 51.8702 38.1703V39.5229H51.8915C52.4431 39.6523 52.8481 39.8275 53.1075 40.0478C53.3664 40.2686 53.4958 40.5887 53.4958 41.0085C53.4958 41.4282 53.3474 41.7702 53.0499 42.0339C52.7525 42.2981 52.3594 42.4418 51.8702 42.4655V42.9833H51.4106V42.9827ZM50.9035 38.3389C50.7812 38.4464 50.7201 38.5812 50.7201 38.7415C50.7201 38.9024 50.7676 39.0295 50.8638 39.1227C50.9599 39.2165 51.1416 39.3062 51.4106 39.3929V38.1484C51.1951 38.1674 51.0258 38.2309 50.9035 38.3389ZM52.4182 41.4935C52.5524 41.3837 52.6195 41.2442 52.6195 41.0761C52.6195 40.9081 52.5666 40.7751 52.4609 40.6771C52.3553 40.5792 52.1587 40.4865 51.8713 40.4004V41.6954C52.1011 41.6711 52.2834 41.604 52.4182 41.4935Z" fill="#E8BB20"/>
<path d="M60.888 36.0129C64.0666 36.0129 66.6432 33.4362 66.6432 30.2577C66.6432 27.0791 64.0666 24.5024 60.888 24.5024C57.7095 24.5024 55.1328 27.0791 55.1328 30.2577C55.1328 33.4362 57.7095 36.0129 60.888 36.0129Z" fill="#F5EA07"/>
<path d="M57.4029 33.7447C55.4803 31.8222 55.4803 28.6931 57.4029 26.7705C59.3254 24.848 62.4545 24.848 64.377 26.7705C66.2996 28.6931 66.2996 31.8222 64.377 33.7447C62.4539 35.6679 59.3254 35.6673 57.4029 33.7447ZM63.7619 27.3857C62.1784 25.8021 59.6015 25.8021 58.0174 27.3857C56.4333 28.9692 56.4339 31.5461 58.0174 33.1302C59.6009 34.7137 62.1778 34.7137 63.7619 33.1302C65.346 31.5461 65.3455 28.9692 63.7619 27.3857Z" fill="#E8BB20"/>
<path d="M58.6697 32.2544L59.0408 31.8833C58.6234 31.3715 58.3912 30.7695 58.3438 30.0777L59.1578 30.0065C59.1952 30.5391 59.3413 30.9796 59.5954 31.3294L60.5822 30.3426C60.2901 29.8676 60.1303 29.4668 60.1012 29.1396C60.0727 28.8125 60.2046 28.5019 60.4979 28.2086C60.7912 27.9153 61.1338 27.7781 61.5257 27.7966C61.9175 27.815 62.2863 27.9806 62.6318 28.2929L62.8859 28.0388L63.2113 28.3642L62.9518 28.6236C63.2974 29.0238 63.523 29.5036 63.6281 30.0635L62.8295 30.2006C62.7654 29.8177 62.6211 29.4769 62.3973 29.1782L61.4408 30.1347L61.4562 30.1502C61.7543 30.6317 61.9169 31.042 61.9443 31.381C61.9716 31.7201 61.8362 32.0383 61.5399 32.3346C61.243 32.6315 60.8963 32.768 60.4997 32.7443C60.1024 32.7205 59.723 32.5442 59.3602 32.2152L58.9939 32.5816L58.6697 32.2544ZM61.5945 28.6124C61.4318 28.6023 61.2935 28.6539 61.1801 28.7673C61.0667 28.8807 61.0103 29.0048 61.0121 29.1384C61.0138 29.2726 61.0792 29.465 61.208 29.7161L62.0879 28.8362C61.9223 28.6973 61.7578 28.6225 61.5945 28.6124ZM60.4349 31.9142C60.6077 31.9314 60.7538 31.8804 60.8725 31.7616C60.9913 31.6429 61.0477 31.5116 61.0429 31.3674C61.0382 31.2231 60.964 31.0188 60.8215 30.7546L59.9059 31.6702C60.0858 31.8156 60.2622 31.897 60.4349 31.9142Z" fill="#E8BB20"/>
<path d="M57.3021 22.3981C60.4806 22.3981 63.0573 19.8214 63.0573 16.6429C63.0573 13.4644 60.4806 10.8877 57.3021 10.8877C54.1236 10.8877 51.5469 13.4644 51.5469 16.6429C51.5469 19.8214 54.1236 22.3981 57.3021 22.3981Z" fill="#F5EA07"/>
<path d="M60.7911 20.1319C58.8685 22.0545 55.7395 22.0545 53.8169 20.1319C51.8944 18.2094 51.8944 15.0803 53.8169 13.1577C55.7395 11.2352 58.8685 11.2352 60.7911 13.1577C62.7137 15.0809 62.7137 18.2094 60.7911 20.1319ZM54.4315 13.7729C52.8479 15.3564 52.8479 17.9333 54.4315 19.5174C56.015 21.1009 58.5919 21.1009 60.176 19.5174C61.7595 17.9339 61.7595 15.357 60.176 13.7729C58.5925 12.1887 56.0156 12.1887 54.4315 13.7729Z" fill="#E8BB20"/>
<path d="M59.3033 18.8656L58.9322 18.4945C58.4198 18.9119 57.8183 19.1441 57.1266 19.1916L57.0553 18.3776C57.5879 18.3402 58.0285 18.1941 58.3782 17.94L57.3914 16.9532C56.9164 17.2453 56.5156 17.405 56.1884 17.4341C55.8613 17.4626 55.5508 17.3308 55.2574 17.0375C54.9641 16.7442 54.827 16.4016 54.8454 16.0097C54.8638 15.6178 55.0294 15.2491 55.3418 14.9035L55.0876 14.6494L55.413 14.324L55.6725 14.5835C56.0727 14.2379 56.5524 14.0123 57.1123 13.9072L57.2495 14.7058C56.8665 14.7699 56.5257 14.9142 56.227 15.1381L57.1836 16.0946L57.199 16.0792C57.6805 15.7811 58.0908 15.6184 58.4299 15.5911C58.7689 15.5638 59.0871 15.6992 59.3834 15.9954C59.6803 16.2923 59.8169 16.6391 59.7931 17.0357C59.7694 17.4329 59.593 17.8123 59.2641 18.1751L59.6304 18.5414L59.3033 18.8656ZM55.6606 15.9408C55.6505 16.1035 55.7022 16.2419 55.8156 16.3553C55.929 16.4687 56.0531 16.5251 56.1867 16.5233C56.3209 16.5215 56.5132 16.4562 56.7644 16.3274L55.8844 15.4474C55.7455 15.6131 55.6713 15.7775 55.6606 15.9408ZM58.9624 17.1004C58.9797 16.9276 58.9286 16.7816 58.8099 16.6628C58.6911 16.5441 58.5599 16.4877 58.4156 16.4924C58.2713 16.4972 58.0671 16.5714 57.8029 16.7139L58.7184 17.6294C58.8639 17.4495 58.9452 17.2732 58.9624 17.1004Z" fill="#E8BB20"/>
<path d="M7.92575 40.0459H30.0518C30.7228 40.0459 31.2667 40.5767 31.2667 41.2316V55.1123C31.2667 55.7672 30.7228 56.298 30.0518 56.298H7.92575C7.25481 56.298 6.71094 55.7672 6.71094 55.1123V41.2316C6.71094 40.5767 7.25481 40.0459 7.92575 40.0459Z" fill="#7EC359"/>
<path d="M21.8545 44.7201C21.9109 44.7736 21.9898 44.773 22.0189 44.849C22.0361 44.8941 22.0082 44.9559 22.0201 45.0028C22.1911 45.6784 22.9665 45.2783 22.5586 44.5248C22.5105 44.4357 22.4381 44.339 22.4423 44.2333C22.447 44.1127 22.5539 44.0332 22.577 43.9215C22.6044 43.7915 22.5135 43.6561 22.5474 43.5315C22.5919 43.367 22.6786 43.4394 22.7902 43.3979C22.8561 43.3735 22.9285 43.2672 22.9452 43.2037C22.9826 43.0636 22.8929 43.009 22.7789 42.987C22.6709 42.9662 22.5871 42.9092 22.4939 42.8504C22.4268 42.8077 22.4292 42.7625 22.3841 42.7139C22.333 42.6592 22.2713 42.6456 22.2065 42.6212C22.102 42.582 21.9946 42.534 21.8812 42.5334C21.7779 42.5322 21.6265 42.6925 21.5433 42.6456C21.4311 42.582 21.4899 42.3665 21.3035 42.3469C21.269 42.3434 20.8534 42.3802 20.8053 42.4205C20.7115 42.4989 20.7922 42.6812 20.7133 42.7376C20.658 42.7768 20.4223 42.7376 20.3499 42.74C20.3042 42.857 20.3808 43.0012 20.436 43.0998C20.4924 43.1995 20.6254 43.2536 20.658 43.329C20.6943 43.4127 20.6735 43.5297 20.6883 43.6199C20.702 43.7036 20.794 43.9257 20.8558 43.9762C20.9033 44.0154 20.9514 43.9857 20.9935 44.0498C21.0321 44.1098 21.0101 44.1638 21.019 44.2291C21.0665 44.5753 21.6395 44.482 21.8545 44.7201Z" fill="#6BBE49"/>
<path d="M23.8679 54.1517C24.1012 54.1517 24.1303 54.1802 24.2562 54.0181C24.3601 53.8839 24.3096 53.837 24.3506 53.6708C24.3898 53.5099 24.4812 53.4321 24.4509 53.2332C24.4313 53.1049 24.3969 53.0432 24.4094 52.9054C24.4349 52.6293 24.5145 52.3841 24.4943 52.0973C24.4782 51.877 24.2532 51.5463 24.3779 51.3154C24.5145 51.0624 24.98 50.9846 25.1516 50.7513C25.2483 50.6201 25.2768 50.2395 25.2466 50.0673C25.2192 49.9117 25.0512 49.7847 25.0417 49.6386C25.0298 49.4557 25.1581 49.4724 25.2875 49.3809C25.4122 49.293 25.4853 49.166 25.623 49.0947C25.7703 49.0187 25.9472 49.0401 26.1051 48.989C26.269 48.9356 26.4768 48.7931 26.608 48.6803C26.7755 48.5366 26.7565 48.4119 26.8111 48.2077C26.8693 47.988 27.0622 47.5908 27.2047 47.4204C27.2125 47.5842 27.203 47.7267 27.1673 47.8817C27.1394 48.0016 27.0195 48.2267 27.0527 48.3246C27.2724 48.2189 27.254 47.9529 27.3241 47.7552C27.4173 47.4916 27.7825 47.0736 27.7724 46.7809C27.7658 46.595 27.5901 46.5084 27.5206 46.351C27.4892 46.2792 27.4488 46.1141 27.4583 46.0369C27.4779 45.8772 27.5277 45.9223 27.6014 45.7994C27.697 45.6397 27.6952 45.461 27.6887 45.2763C27.6744 44.866 27.7457 44.5626 28.1856 44.4005C28.4071 44.3186 28.6499 44.4136 28.8376 44.5775C29.0792 44.7889 29.0234 44.9064 29.5115 44.9118C29.4717 44.6962 29.0014 44.739 29.0537 44.4552C29.3506 44.47 29.4432 43.9861 29.2657 43.821C29.1499 43.713 28.9474 43.751 28.9195 43.5764C28.9064 43.4963 29.0139 43.3894 29.0008 43.2647C28.8969 43.2445 28.6339 43.2879 28.5686 43.1881C28.4665 43.0314 28.7052 42.9162 28.4534 42.8218C28.3412 42.7796 28.1304 42.7713 28.0081 42.7576C27.8882 42.744 27.7397 42.7446 27.6198 42.7576C27.3947 42.782 27.3039 42.8716 27.1673 43.0284C27.0878 43.1198 27.013 43.2956 26.9162 43.3716C26.7179 43.5271 26.3705 43.3413 26.1538 43.4672C25.9982 43.558 26.0226 43.7308 25.9044 43.8466C25.8017 43.9469 25.661 43.9107 25.5197 43.9493C25.8807 43.9457 25.8623 43.8009 25.8504 43.5533C25.8367 43.2718 25.9389 43.3128 26.2072 43.2979C26.1497 43.1638 26.0184 43.2267 25.9181 43.1608C25.8635 43.1246 25.8023 42.9286 25.7881 42.9227C25.7317 42.8989 25.5072 43.0539 25.4502 43.1121C25.3837 43.1792 25.3712 43.3496 25.3113 43.3846C25.2264 43.4339 25.0922 43.3098 25.0346 43.3443C24.8992 43.4244 25.0156 43.5093 25.0257 43.5835C25.0471 43.7338 25.0768 43.7433 25.1326 43.8448C25.1813 43.9333 25.2798 43.903 25.2026 44.0716C25.0061 44.0752 25.0019 44.0912 24.9123 43.96C24.8487 43.8668 24.9711 43.7266 24.7484 43.7617C24.7466 43.84 24.7472 43.9184 24.7247 43.9843C24.5952 43.843 24.7353 43.7094 24.6884 43.5568C24.7929 43.7249 24.958 43.6109 24.8672 43.4523C24.7543 43.2558 24.0923 43.5283 24.3185 43.2362C24.4117 43.1157 24.632 43.2938 24.6433 43.0789C24.8672 43.1608 25.0607 43.0551 25.3196 43.0717C25.3481 42.988 25.3119 42.896 25.2952 42.8247C25.3932 42.8253 25.4882 42.7832 25.5583 42.7208C25.5054 42.7256 25.4597 42.7006 25.4128 42.6977C25.4128 42.6846 25.4122 42.6715 25.4116 42.6585C25.3249 42.6217 25.1961 42.5813 25.0999 42.6282C24.9681 42.6917 24.9895 42.8372 24.8957 42.9263C24.8761 42.7743 24.8873 42.4655 24.6617 42.5094C24.4171 42.5569 24.638 42.8016 24.6178 42.9643C24.5097 43.029 24.4248 42.9886 24.3078 42.9999C24.1891 43.0112 24.1357 43.0604 24.0163 43.0753C24.0401 43.2801 23.9439 43.3288 23.7462 43.3253C23.8637 43.3033 23.9688 43.2237 23.9237 43.0961C23.8222 43.1163 23.7426 43.0593 23.7669 42.9613C23.7188 42.9577 23.6696 42.9197 23.6268 42.9126C23.6992 42.8224 23.8091 42.8604 23.8495 42.7553C23.8904 42.6484 23.796 42.5356 23.7283 42.4661C23.5668 42.3016 23.3994 42.3123 23.191 42.2791C22.9927 42.2476 22.8074 42.1936 22.5996 42.1954C22.3716 42.1977 22.3081 42.3295 22.0938 42.383C22.165 42.4453 22.2398 42.5255 22.3194 42.5682C22.3746 42.5979 22.4411 42.6003 22.4922 42.6306C22.5343 42.6555 22.5551 42.7089 22.5925 42.7351C22.6685 42.7885 22.7694 42.795 22.8591 42.795C23.0057 42.7956 23.093 42.8111 23.2278 42.8562C23.1952 42.9257 22.985 42.8794 23.0907 43.0242C23.1221 43.067 23.2403 43.1234 23.2907 43.1566C23.6203 43.3734 23.3887 43.2006 23.5799 43.4862C23.6066 43.5265 23.6666 43.5438 23.5567 43.694C23.5098 43.7581 23.4101 43.7985 23.3602 43.8614C23.3151 43.9184 23.2848 44.1037 23.2682 44.1749C23.2516 44.2456 23.2219 44.258 23.188 44.3168C23.1613 44.3625 23.115 44.5674 23.175 44.622C23.2326 44.6737 23.4267 44.6327 23.4451 44.5591C23.5829 44.6523 23.3762 44.6939 23.3495 44.7366C23.2866 44.8369 23.454 44.945 23.5294 44.9599C23.7064 44.9931 23.8002 44.9848 23.8382 44.581C23.8964 44.5935 23.9623 44.5941 24.0193 44.5864C24.024 44.5686 24.024 44.5371 24.0187 44.5199C23.8061 44.4635 23.723 44.4575 23.723 44.4575C23.7093 44.4474 23.6428 44.3091 23.6387 44.2812C23.6054 44.0615 23.8762 44.3851 23.9195 44.2242C23.9421 44.1393 23.7022 43.9309 23.9795 44.0015C24.144 44.0437 24.1683 44.182 24.1653 44.3311C24.2627 44.3376 24.4587 44.3281 24.5103 44.4148C24.4687 44.4433 24.3274 44.4712 24.3007 44.5122C24.2235 44.6321 24.4741 44.7728 24.5839 44.7235C24.6979 44.6719 24.6142 44.5395 24.7923 44.5597C25.0007 44.5834 25.3439 44.9984 25.2103 45.3434C25.1076 45.6088 24.8523 45.493 24.7632 45.686C24.6973 45.8285 24.7157 46.12 24.4711 46.0571C24.2888 46.0096 24.4456 45.6783 24.3904 45.5494C24.3737 45.5109 24.3352 45.5162 24.3185 45.4764C24.3037 45.4396 24.3197 45.3589 24.3197 45.3203C24.3144 44.8464 23.8946 44.812 23.8032 45.0442C23.7788 45.1053 23.8269 45.2235 23.7937 45.2823C23.7568 45.3476 23.6713 45.3197 23.5888 45.325C23.5722 45.2728 23.514 45.1979 23.4594 45.1884C23.3192 45.1641 23.3697 45.3369 23.3608 45.4224C23.346 45.5631 23.3347 45.6082 23.2272 45.6729C23.1696 45.708 23.0633 45.7555 23.0426 45.822C23.0141 45.9116 23.0984 45.9378 23.1257 46.0114C23.2118 46.2435 22.8549 46.1854 22.9559 46.4496C23.0004 46.5659 23.2991 46.5844 23.3715 46.4882C23.4327 46.4068 23.365 46.2441 23.4754 46.177C23.5769 46.1153 23.8227 46.1788 23.9237 46.2174C23.8602 46.313 23.6684 46.3587 23.6369 46.4668C23.6066 46.5695 23.7087 46.7079 23.7984 46.7369C23.9837 46.7957 24.1333 46.5321 24.2467 46.7061C24.3803 46.9121 24.1832 46.7209 24.3844 46.9929C24.4486 47.0795 24.4984 47.1829 24.5774 47.2535C24.654 47.3218 24.7282 47.3758 24.7745 47.4684C24.8161 47.5522 24.8203 47.6614 24.8725 47.7398C24.9016 47.7831 24.9705 47.8211 25.0055 47.874C25.1272 48.0563 24.961 47.9915 25.0269 48.2225C25.2472 48.2659 25.1991 47.7873 25.4787 47.7362C25.6141 47.7113 25.7851 47.741 25.9187 47.7475C26.0161 47.7529 26.136 47.7523 26.1764 47.8591C26.2197 47.9725 26.1407 48.1026 26.1853 48.2243C26.2221 48.324 26.2815 48.3668 26.1805 48.4511C26.0564 48.555 25.639 48.6601 25.6693 48.4084C25.433 48.3062 25.6093 48.6536 25.6087 48.6993C25.6064 48.8347 25.3226 48.8614 25.2774 48.9855C25.2252 49.1292 25.2941 49.2283 25.1094 49.2895C24.9176 49.353 24.8345 49.3067 24.6997 49.1612C24.4569 49.0959 24.2087 49.0989 23.9837 49.2081C23.9468 49.2259 23.9005 49.2562 23.8518 49.2651C23.8156 49.2717 23.7794 49.2539 23.745 49.274C23.7099 49.2942 23.7325 49.3198 23.7028 49.3429C23.6393 49.391 23.4095 49.4344 23.4825 49.5656C23.3483 49.6962 23.2248 49.546 23.169 49.7639C23.1524 49.828 23.1298 49.8856 23.1447 49.961C23.1572 50.0222 23.1928 50.0714 23.1833 50.1397C23.02 50.192 22.8342 50.1688 22.6649 50.1854C22.5972 50.192 22.4922 50.1783 22.431 50.2134C22.3538 50.2573 22.3609 50.3244 22.3479 50.4117C22.314 50.6373 22.3253 50.8718 22.3936 51.0856C22.4452 51.2471 22.5634 51.3729 22.6157 51.5339C22.6762 51.5386 22.754 51.6259 22.8122 51.6609C22.8817 51.7031 22.9108 51.6841 22.9761 51.7084C23.0645 51.7423 23.061 51.8307 23.0693 51.9156C23.0812 52.0332 23.1025 52.1187 23.1744 52.2167C23.2611 52.3348 23.4053 52.3847 23.4902 52.5082C23.6494 52.7392 23.8774 52.9292 23.9457 53.1969C23.9712 53.2973 23.9492 53.3377 23.9302 53.4232C23.9041 53.5413 23.9932 53.6078 24.0074 53.7284C24.0169 53.8073 24.0181 53.9195 23.9979 53.9938C23.9688 54.1042 23.9819 54.1202 23.8679 54.1517Z" fill="#6BBE49"/>
<path d="M16.5813 49.3145C16.5558 49.308 16.5118 49.3139 16.4857 49.3169C16.383 49.6417 16.7398 49.7688 16.9696 49.9564C17.0343 50.0092 17.1596 50.0704 17.2059 50.1345C17.3021 50.2681 17.1501 50.4421 17.1305 50.584C17.1056 50.7645 17.1252 50.8951 17.2327 51.0501C17.3116 51.1641 17.4512 51.2086 17.5129 51.3297C17.5485 51.3992 17.5212 51.4621 17.545 51.5263C17.5836 51.629 17.6708 51.702 17.7225 51.7994C17.7724 51.8938 17.7985 52.0018 17.8424 52.0951C18.0087 52.446 18.4142 52.405 18.6885 52.2043C18.8382 52.0951 18.9041 51.8487 18.9878 51.6771C19.1226 51.401 19.0424 50.9319 19.0157 50.6344C18.9961 50.4189 19.0875 50.3435 19.1505 50.1612C19.2187 49.9635 19.0976 49.8204 19.363 49.761C19.4052 49.7515 19.5061 49.7575 19.5394 49.7313C19.6094 49.6767 19.5708 49.5752 19.6658 49.5247C19.8048 49.4511 20.0595 49.5871 20.2026 49.5966C21.0451 49.6548 21.2981 47.6603 19.7846 47.3486C19.5376 47.2976 19.2627 47.3813 19.0181 47.4009C19.002 47.7268 19.1226 47.7565 18.7817 47.7565C18.6131 47.7565 18.4587 47.7263 18.2937 47.7268C18.1268 47.7274 17.8407 47.7761 17.6928 47.7001C17.2742 47.4852 18.1939 47.3296 18.3228 47.3124C18.4409 47.297 18.5781 47.354 18.647 47.2222C18.6927 47.1349 18.6274 47.0832 18.7194 47.0102C18.8839 46.879 19.5032 46.8012 19.6617 46.93C19.7757 47.0227 19.8024 47.1479 19.9491 47.2275C20.1385 47.3302 20.4152 47.4371 20.5274 47.1966C20.6829 46.8629 20.3498 46.7584 20.0975 46.6854C20.0203 46.6628 19.8766 46.6385 19.8891 46.5162C19.8944 46.4663 19.9407 46.4616 19.9544 46.4295C19.9669 46.3998 20.0019 46.268 20.0203 46.2478C20.0939 46.1671 20.2632 46.2775 20.3481 46.2158C20.6218 46.0174 20.0251 45.0045 19.9134 45.5876C19.8814 45.755 19.9212 45.8405 19.61 45.872C19.1831 45.9153 19.518 45.5876 19.5364 45.3946C19.5524 45.2248 19.464 45.1541 19.3642 45.0271C19.065 44.6453 19.2092 44.5129 18.6927 44.2754C17.9214 43.9209 18.0443 44.4606 17.4393 44.4618C17.238 44.4624 17.1394 44.4262 16.9619 44.3116C16.8758 44.2558 16.7862 44.1608 16.6876 44.1353C16.5831 44.1079 16.481 44.1828 16.4204 44.0842C16.3587 43.9838 16.4786 43.8312 16.4649 43.7262C16.4044 43.7137 16.3028 43.6674 16.2417 43.6828C16.1722 43.7006 16.1888 43.763 16.1312 43.7897C15.9757 43.8609 15.5541 43.6365 15.4662 43.2025C15.3891 42.8189 15.031 42.6562 14.9022 42.7399C14.7781 42.8207 14.8333 42.8997 14.6605 42.9323C14.5198 42.959 14.4462 42.9026 14.4331 43.0564C14.4212 43.1924 14.5418 43.2933 14.594 43.4061C14.4889 43.4174 14.4456 43.339 14.3714 43.2892C14.1547 43.1449 13.7735 43.3135 13.7289 43.0273C13.4766 42.9679 13.441 43.2191 13.2533 43.2874C13.1192 43.3361 12.8146 43.2197 12.8282 43.0665C12.8377 42.959 12.8472 42.8896 12.865 42.7833C12.6073 42.6723 12.431 42.8058 12.2048 42.8599C12.1222 42.8795 12.035 42.8765 11.9501 42.8878C11.6734 42.9252 11.7915 42.6568 11.4656 42.7257C11.2993 42.7607 11.4109 42.8302 11.2874 42.9145C11.2079 42.9691 11.0392 42.8961 10.9757 42.8646C10.8504 42.8023 10.8457 42.7684 10.8576 42.6058C10.3493 42.4674 9.1434 42.6639 9.49194 43.1003C9.59228 43.2256 9.6469 43.155 9.78525 43.1983C10.0958 43.2963 9.93665 43.5504 9.66828 43.5445C9.61484 43.6876 9.70153 43.7885 9.7995 43.8954C9.91587 44.0224 10.0233 44.0141 10.1641 44.0907C10.262 44.1442 10.3849 44.292 10.3351 44.4339C10.2959 44.5443 10.1635 44.5467 10.1272 44.6999C10.0809 44.8958 9.99247 45.4926 10.205 45.5466C10.7299 45.6808 10.3398 44.3989 10.7323 44.1934C11.0012 44.0527 11.0292 44.444 10.9627 44.5942C11.0571 44.6382 11.1669 44.615 11.2702 44.6257C11.3741 44.6364 11.8687 44.8935 11.8871 44.9772C11.9198 45.1268 11.6936 45.1132 11.5997 45.1559C11.2862 45.2996 11.3231 45.4065 11.2975 46.0002C11.2708 46.0056 11.2245 46.0133 11.1954 46.0062C11.1384 46.1671 11.1901 46.4236 11.3427 46.515C11.478 46.5963 11.5873 46.6438 11.6187 46.8166C11.6478 46.9775 11.5119 47.0143 11.4483 47.1396C11.3628 47.3071 11.4774 47.5196 11.6716 47.3516C11.7601 47.275 11.7173 47.1402 11.7981 47.0696C11.8426 47.0304 11.9447 46.9888 12.0017 46.9508C12.2576 46.7786 12.3995 47.1717 12.1507 47.4193C12.0866 47.4828 11.9815 47.5475 11.9554 47.6413C11.8776 47.921 12.086 48.3942 12.4678 48.472C12.7902 48.5379 12.9018 48.716 12.7231 49.1542C12.6875 49.2415 12.5836 49.3009 12.7059 49.368C12.8858 49.4665 13.2171 49.2385 13.267 49.096C13.2741 49.0753 13.2462 49.0468 13.2563 49.0224C13.267 48.9963 13.3092 48.9951 13.324 48.9725C13.5508 48.6216 13.4873 48.8912 13.7622 48.4958C13.8269 48.4025 13.8625 48.3972 13.9718 48.4649C14.3642 48.7083 14.6795 48.9197 14.4794 49.3359C14.4604 49.3751 14.3779 49.4309 14.3714 49.4713C14.3524 49.5924 14.5685 49.5746 14.6516 49.5443C14.7787 49.498 14.828 49.3882 14.8683 49.2694C14.9063 49.1572 14.9829 49.0735 15.015 48.9648C15.0465 48.8568 15.015 48.7718 15.0892 48.6733C15.1842 48.5462 15.2804 48.4393 15.4253 48.3776C15.5227 48.336 15.6218 48.2577 15.7162 48.2369C15.9614 48.1834 16.2197 48.3325 16.4038 48.1306C16.4851 48.0415 16.5587 47.9703 16.6638 47.9281C16.6632 48.0035 16.5409 48.2381 16.4816 48.3004C16.3759 48.4108 16.2298 48.3734 16.0897 48.3812C15.9965 48.3865 15.9816 48.3568 15.943 48.4477C15.8332 48.7053 16.4133 48.8793 16.6769 49.0028C16.9292 49.121 16.9702 49.0533 17.0403 48.7867C17.1121 48.5124 17.4102 48.1377 17.691 48.0475C17.8163 48.5468 17.2321 48.8277 16.899 49.2005C16.8022 49.3056 16.7161 49.2575 16.5813 49.3145Z" fill="#6BBE49"/>
<path d="M11.7527 52.4381C11.8839 52.5022 12.0264 52.548 12.1719 52.5777C12.3251 52.6091 12.4486 52.6442 12.5335 52.5022C12.6219 52.355 12.7003 52.2 12.5863 52.067C12.5448 52.0183 12.5168 52.0207 12.4901 51.9548C12.4616 51.8842 12.4492 51.7844 12.442 51.7078C12.423 51.5119 12.3013 51.4341 12.1321 51.3646C11.9831 51.3029 11.8317 51.2405 11.6981 51.1271C11.5787 51.025 11.5158 50.9104 11.3656 50.8605C11.2777 50.8314 11.2011 50.8107 11.1025 50.813C10.9998 50.8148 10.9404 50.8172 10.8609 50.8884C10.7861 50.9555 10.7813 51.0962 10.7012 51.1402C10.5296 51.234 10.4185 50.9282 10.4067 50.8148C10.2054 50.7857 10.1413 50.99 10.0807 51.136C10.0088 51.3082 9.87407 51.4691 9.8515 51.6544C9.83666 51.7797 9.85032 51.9008 9.82597 52.0249C9.79628 52.1745 9.81766 52.2392 9.8705 52.3811C9.90969 52.4868 9.90613 52.6388 9.97263 52.7314C10.0035 52.7742 10.0664 52.7956 10.1033 52.8383C10.1531 52.8965 10.1608 52.9577 10.2244 53.0057C10.3936 53.134 10.5735 53.0906 10.7457 53.004C10.9458 52.903 11.0331 52.8662 11.1037 52.6311C11.1987 52.3117 11.536 52.317 11.7527 52.4381Z" fill="#6BBE49"/>
<path d="M24.9116 46.5677C24.9674 46.8806 25.24 47.1163 25.5689 47.1163H28.2396C28.5679 47.1163 28.841 46.8806 28.8969 46.5677C28.9046 46.5309 28.9075 46.4911 28.9075 46.4513V43.7777C28.9075 43.7302 28.9022 43.6821 28.8915 43.6346C28.828 43.3353 28.5602 43.1097 28.2396 43.1097C25.5665 43.1097 25.0612 42.9559 24.917 43.6346C24.8962 43.7272 24.8908 46.4703 24.9116 46.5677Z" fill="#F5EA07"/>
<path d="M24.8993 43.8306H26.0334C25.9194 44.2225 25.8558 44.419 25.8451 45.0044H24.8993V45.2004H25.8451C25.8582 45.5899 25.9591 45.9818 26.1284 46.3742H24.8987C24.8987 46.4395 24.8957 46.5054 24.9094 46.5678H28.8946C28.9024 46.531 28.9053 46.4912 28.9053 46.4514V46.3748H27.5967C27.7665 45.9829 27.8669 45.5905 27.8805 45.201H28.9059V45.005H27.8805C27.8698 44.4196 27.8063 44.2237 27.6923 43.8312H28.9059V43.7784C28.9059 43.7309 28.9006 43.6828 28.8899 43.6353H24.9153C24.8981 43.7118 24.8993 43.7558 24.8993 43.8306ZM26.0411 44.9914C26.0411 44.5912 26.1153 44.2231 26.2453 43.8306H27.4774C27.6098 44.2225 27.684 44.5912 27.684 44.9914C27.684 45.5056 27.5676 45.9823 27.3663 46.3742H26.3593C26.1581 45.9823 26.0411 45.5056 26.0411 44.9914Z" fill="#E8BB20"/>
<path d="M11.0258 47.3494C12.041 47.3494 12.864 46.5263 12.864 45.5111C12.864 44.4959 12.041 43.6729 11.0258 43.6729C10.0105 43.6729 9.1875 44.4959 9.1875 45.5111C9.1875 46.5263 10.0105 47.3494 11.0258 47.3494Z" fill="#FDFEFF"/>
<path d="M13.3381 47.3479C14.3534 47.3479 15.1763 46.5249 15.1763 45.5096C15.1763 44.4943 14.3534 43.6714 13.3381 43.6714C10.9096 43.6714 10.9067 47.3479 13.3381 47.3479Z" fill="#656D7A"/>
<path d="M28.6543 51.5157C28.7493 51.6363 28.7974 51.834 28.7974 52.1083C28.7974 52.3879 28.7541 52.5821 28.6674 52.6908C28.5807 52.8 28.4667 52.854 28.3248 52.854C28.1835 52.854 28.0736 52.8048 27.9947 52.705C27.8991 52.5845 27.8516 52.3862 27.8516 52.1107C27.8516 51.8346 27.8991 51.6369 27.9935 51.5175C28.073 51.4166 28.1835 51.3667 28.3242 51.3667C28.4649 51.3667 28.5753 51.416 28.6543 51.5157ZM28.2345 51.6303C28.2084 51.6517 28.1864 51.6944 28.1692 51.7586C28.152 51.8227 28.1431 51.9403 28.1431 52.1107C28.1431 52.2817 28.1526 52.4028 28.1722 52.474C28.187 52.5299 28.2072 52.5684 28.2339 52.5898C28.2607 52.6112 28.2909 52.6219 28.3242 52.6219C28.358 52.6219 28.3877 52.6112 28.4144 52.5898C28.4406 52.5684 28.4625 52.5263 28.4792 52.4622C28.4964 52.398 28.5053 52.2811 28.5053 52.1101C28.5053 51.9391 28.4958 51.8174 28.4762 51.7455C28.4613 51.6897 28.4412 51.6511 28.4144 51.6297C28.3877 51.6084 28.358 51.5977 28.3242 51.5977C28.2909 51.5983 28.2607 51.6089 28.2345 51.6303Z" fill="white"/>
<path d="M27.5215 51.5157C27.6165 51.6363 27.6646 51.834 27.6646 52.1083C27.6646 52.3879 27.6212 52.5821 27.5346 52.6908C27.4479 52.8 27.3339 52.854 27.192 52.854C27.0507 52.854 26.9408 52.8048 26.8618 52.705C26.7668 52.5845 26.7188 52.3862 26.7188 52.1107C26.7188 51.8346 26.7662 51.6369 26.8607 51.5175C26.9402 51.4166 27.0507 51.3667 27.1914 51.3667C27.3327 51.3667 27.4425 51.416 27.5215 51.5157ZM27.1017 51.6303C27.0756 51.6517 27.0536 51.6944 27.0364 51.7586C27.0192 51.8227 27.0103 51.9403 27.0103 52.1107C27.0103 52.2817 27.0198 52.4028 27.0388 52.474C27.0536 52.5299 27.0738 52.5684 27.1005 52.5898C27.1272 52.6112 27.1575 52.6219 27.1908 52.6219C27.2246 52.6219 27.2543 52.6112 27.281 52.5898C27.3072 52.5684 27.3291 52.5263 27.3463 52.4622C27.3636 52.398 27.3725 52.2811 27.3725 52.1101C27.3725 51.9391 27.363 51.8174 27.344 51.7455C27.3291 51.6897 27.3089 51.6511 27.2822 51.6297C27.2555 51.6084 27.2258 51.5977 27.192 51.5977C27.1581 51.5983 27.1278 51.6089 27.1017 51.6303Z" fill="white"/>
<path d="M26.3887 51.5157C26.4837 51.6363 26.5318 51.834 26.5318 52.1083C26.5318 52.3879 26.4884 52.5821 26.4018 52.6908C26.3151 52.8 26.2011 52.854 26.0592 52.854C25.9184 52.854 25.808 52.8048 25.729 52.705C25.634 52.5845 25.5859 52.3862 25.5859 52.1107C25.5859 51.8346 25.6334 51.6369 25.7278 51.5175C25.8074 51.4166 25.9178 51.3667 26.0586 51.3667C26.1999 51.3667 26.3103 51.416 26.3887 51.5157ZM25.9689 51.6303C25.9428 51.6517 25.9208 51.6944 25.9036 51.7586C25.8864 51.8227 25.8775 51.9403 25.8775 52.1107C25.8775 52.2817 25.887 52.4028 25.9066 52.474C25.9214 52.5299 25.9416 52.5684 25.9683 52.5898C25.995 52.6112 26.0253 52.6219 26.0586 52.6219C26.0924 52.6219 26.1221 52.6112 26.1488 52.5898C26.1749 52.5684 26.1969 52.5263 26.2141 52.4622C26.2313 52.398 26.2403 52.2811 26.2403 52.1101C26.2403 51.9391 26.2308 51.8174 26.2112 51.7455C26.1963 51.6897 26.1761 51.6511 26.1494 51.6297C26.1227 51.6084 26.093 51.5977 26.0592 51.5977C26.0253 51.5983 25.995 51.6089 25.9689 51.6303Z" fill="white"/>
<path d="M25.2559 51.5157C25.3509 51.6363 25.399 51.834 25.399 52.1083C25.399 52.3879 25.3556 52.5821 25.2689 52.6908C25.1823 52.8 25.0682 52.854 24.9263 52.854C24.785 52.854 24.6752 52.8048 24.5962 52.705C24.5012 52.5845 24.4531 52.3862 24.4531 52.1107C24.4531 51.8346 24.5006 51.6369 24.595 51.5175C24.6746 51.4166 24.785 51.3667 24.9257 51.3667C25.0671 51.3667 25.1775 51.416 25.2559 51.5157ZM24.8367 51.6303C24.8106 51.6517 24.7886 51.6944 24.7714 51.7586C24.7542 51.8227 24.7452 51.9403 24.7452 52.1107C24.7452 52.2817 24.7547 52.4028 24.7737 52.474C24.7886 52.5299 24.8088 52.5684 24.8355 52.5898C24.8622 52.6112 24.8925 52.6219 24.9257 52.6219C24.9596 52.6219 24.9893 52.6112 25.016 52.5898C25.0421 52.5684 25.0641 52.5263 25.0807 52.4622C25.0979 52.398 25.1068 52.2811 25.1068 52.1101C25.1068 51.9391 25.0973 51.8174 25.0783 51.7455C25.0635 51.6897 25.0433 51.6511 25.0166 51.6297C24.9899 51.6084 24.9602 51.5977 24.9263 51.5977C24.8925 51.5983 24.8622 51.6089 24.8367 51.6303Z" fill="white"/>
<path d="M23.5606 51.5157C23.6556 51.6362 23.7037 51.834 23.7037 52.1083C23.7037 52.3879 23.6603 52.5821 23.5736 52.6907C23.4869 52.8 23.3729 52.854 23.231 52.854C23.0897 52.854 22.9799 52.8047 22.9009 52.705C22.8059 52.5845 22.7578 52.3861 22.7578 52.1106C22.7578 51.8346 22.8053 51.6368 22.8997 51.5175C23.0594 51.315 23.4003 51.3132 23.5606 51.5157ZM23.1408 51.6303C23.1147 51.6517 23.0927 51.6944 23.0755 51.7586C23.0582 51.8227 23.0493 51.9402 23.0493 52.1106C23.0493 52.2816 23.0588 52.4028 23.0778 52.474C23.0927 52.5298 23.1129 52.5684 23.1396 52.5898C23.1663 52.6112 23.1966 52.6219 23.2298 52.6219C23.2637 52.6219 23.2934 52.6112 23.3201 52.5898C23.3462 52.5684 23.3682 52.5263 23.3854 52.4621C23.4026 52.398 23.4115 52.2811 23.4115 52.1101C23.4115 51.9391 23.402 51.8173 23.383 51.7455C23.3403 51.584 23.2174 51.5674 23.1408 51.6303Z" fill="white"/>
<path d="M22.4277 51.5157C22.5227 51.6363 22.5708 51.834 22.5708 52.1083C22.5708 52.3879 22.5275 52.5821 22.4408 52.6908C22.3541 52.8 22.2401 52.854 22.0982 52.854C21.9569 52.854 21.8471 52.8048 21.7681 52.705C21.6731 52.5845 21.625 52.3862 21.625 52.1107C21.625 51.8346 21.6725 51.6369 21.7669 51.5175C21.8465 51.4166 21.9569 51.3667 22.0976 51.3667C22.2389 51.3667 22.3494 51.416 22.4277 51.5157ZM22.0086 51.6303C21.9824 51.6517 21.9605 51.6944 21.9432 51.7586C21.926 51.8227 21.9171 51.9403 21.9171 52.1107C21.9171 52.2817 21.9266 52.4028 21.9462 52.474C21.9611 52.5299 21.9813 52.5684 22.008 52.5898C22.0347 52.6112 22.065 52.6219 22.0982 52.6219C22.1321 52.6219 22.1617 52.6112 22.1885 52.5898C22.2146 52.5684 22.2366 52.5263 22.2532 52.4622C22.2704 52.398 22.2793 52.2811 22.2793 52.1101C22.2793 51.9391 22.2698 51.8174 22.2502 51.7455C22.2354 51.6897 22.2152 51.6511 22.1885 51.6297C22.1617 51.6084 22.1321 51.5977 22.0982 51.5977C22.0644 51.5983 22.0341 51.6089 22.0086 51.6303Z" fill="white"/>
<path d="M21.2949 51.5157C21.3899 51.6363 21.438 51.834 21.438 52.1083C21.438 52.3879 21.3947 52.5821 21.308 52.6908C21.2213 52.8 21.1073 52.854 20.9654 52.854C20.8241 52.854 20.7143 52.8048 20.6353 52.705C20.5403 52.5845 20.4922 52.3862 20.4922 52.1107C20.4922 51.8346 20.5397 51.6369 20.6341 51.5175C20.7137 51.4166 20.8241 51.3667 20.9648 51.3667C21.1055 51.3667 21.216 51.416 21.2949 51.5157ZM20.8752 51.6303C20.849 51.6517 20.8271 51.6944 20.8098 51.7586C20.7926 51.8227 20.7837 51.9403 20.7837 52.1107C20.7837 52.2817 20.7932 52.4028 20.8122 52.474C20.8271 52.5299 20.8473 52.5684 20.874 52.5898C20.9007 52.6112 20.931 52.6219 20.9642 52.6219C20.9981 52.6219 21.0278 52.6112 21.0545 52.5898C21.0806 52.5684 21.1026 52.5263 21.1192 52.4622C21.1364 52.398 21.1453 52.2811 21.1453 52.1101C21.1453 51.9391 21.1358 51.8174 21.1168 51.7455C21.102 51.6897 21.0818 51.6511 21.0551 51.6297C21.0283 51.6084 20.9987 51.5977 20.9648 51.5977C20.931 51.5983 20.9013 51.6089 20.8752 51.6303Z" fill="white"/>
<path d="M20.1699 51.5157C20.2649 51.6363 20.313 51.834 20.313 52.1083C20.313 52.3879 20.2697 52.5821 20.183 52.6908C20.0963 52.8 19.9823 52.854 19.8404 52.854C19.6997 52.854 19.5893 52.8048 19.5103 52.705C19.4153 52.5845 19.3672 52.3862 19.3672 52.1107C19.3672 51.8346 19.4147 51.6369 19.5091 51.5175C19.5887 51.4166 19.6991 51.3667 19.8398 51.3667C19.9811 51.3667 20.091 51.416 20.1699 51.5157ZM19.7502 51.6303C19.724 51.6517 19.7021 51.6944 19.6848 51.7586C19.6676 51.8227 19.6587 51.9403 19.6587 52.1107C19.6587 52.2817 19.6682 52.4028 19.6878 52.474C19.7027 52.5299 19.7228 52.5684 19.7496 52.5898C19.7763 52.6112 19.8066 52.6219 19.8398 52.6219C19.8737 52.6219 19.9033 52.6112 19.9301 52.5898C19.9562 52.5684 19.9782 52.5263 19.9954 52.4622C20.0126 52.398 20.0215 52.2811 20.0215 52.1101C20.0215 51.9391 20.012 51.8174 19.9924 51.7455C19.9776 51.6897 19.9574 51.6511 19.9307 51.6297C19.9039 51.6084 19.8743 51.5977 19.8404 51.5977C19.806 51.5983 19.7763 51.6089 19.7502 51.6303Z" fill="white"/>
<path d="M18.4668 51.5157C18.5618 51.6363 18.6099 51.834 18.6099 52.1083C18.6099 52.3879 18.5666 52.5821 18.4799 52.6908C18.3932 52.8 18.2792 52.854 18.1373 52.854C17.996 52.854 17.8861 52.8048 17.8072 52.705C17.7122 52.5845 17.6641 52.3862 17.6641 52.1107C17.6641 51.8346 17.7116 51.6369 17.806 51.5175C17.8855 51.4166 17.996 51.3667 18.1367 51.3667C18.278 51.3667 18.3878 51.416 18.4668 51.5157ZM18.047 51.6303C18.0209 51.6517 17.9989 51.6944 17.9817 51.7586C17.9645 51.8227 17.9556 51.9403 17.9556 52.1107C17.9556 52.2817 17.9651 52.4028 17.9841 52.474C17.9989 52.5299 18.0191 52.5684 18.0458 52.5898C18.0726 52.6112 18.1028 52.6219 18.1361 52.6219C18.1699 52.6219 18.1996 52.6112 18.2263 52.5898C18.2525 52.5684 18.2744 52.5263 18.2911 52.4622C18.3083 52.398 18.3172 52.2811 18.3172 52.1101C18.3172 51.9391 18.3077 51.8174 18.2881 51.7455C18.2732 51.6897 18.2531 51.6511 18.2263 51.6297C18.1996 51.6084 18.1699 51.5977 18.1361 51.5977C18.1028 51.5983 18.0732 51.6089 18.047 51.6303Z" fill="white"/>
<path d="M17.334 51.5157C17.429 51.6363 17.4771 51.834 17.4771 52.1083C17.4771 52.3879 17.4337 52.5821 17.3471 52.6908C17.2604 52.8 17.1464 52.854 17.0045 52.854C16.8632 52.854 16.7533 52.8048 16.6743 52.705C16.5793 52.5845 16.5312 52.3862 16.5312 52.1107C16.5312 51.8346 16.5787 51.6369 16.6732 51.5175C16.7527 51.4166 16.8632 51.3667 17.0039 51.3667C17.1452 51.3667 17.255 51.416 17.334 51.5157ZM16.9142 51.6303C16.8881 51.6517 16.8661 51.6944 16.8489 51.7586C16.8317 51.8227 16.8228 51.9403 16.8228 52.1107C16.8228 52.2817 16.8323 52.4028 16.8513 52.474C16.8661 52.5299 16.8863 52.5684 16.913 52.5898C16.9397 52.6112 16.97 52.6219 17.0033 52.6219C17.0371 52.6219 17.0668 52.6112 17.0935 52.5898C17.1197 52.5684 17.1416 52.5263 17.1588 52.4622C17.1761 52.398 17.185 52.2811 17.185 52.1101C17.185 51.9391 17.1755 51.8174 17.1565 51.7455C17.1416 51.6897 17.1214 51.6511 17.0947 51.6297C17.068 51.6084 17.0383 51.5977 17.0045 51.5977C16.97 51.5983 16.9403 51.6089 16.9142 51.6303Z" fill="white"/>
<path d="M16.209 51.5157C16.304 51.6363 16.3521 51.834 16.3521 52.1083C16.3521 52.3879 16.3087 52.5821 16.2221 52.6908C16.1354 52.8 16.0214 52.854 15.8795 52.854C15.7387 52.854 15.6283 52.8048 15.5493 52.705C15.4543 52.5845 15.4062 52.3862 15.4062 52.1107C15.4062 51.8346 15.4532 51.6369 15.5482 51.5175C15.6277 51.4166 15.7382 51.3667 15.8789 51.3667C16.0202 51.3667 16.13 51.416 16.209 51.5157ZM15.7892 51.6303C15.7631 51.6517 15.7411 51.6944 15.7239 51.7586C15.7067 51.8227 15.6978 51.9403 15.6978 52.1107C15.6978 52.2817 15.7073 52.4028 15.7269 52.474C15.7417 52.5299 15.7619 52.5684 15.7886 52.5898C15.8153 52.6112 15.8456 52.6219 15.8789 52.6219C15.9127 52.6219 15.9424 52.6112 15.9691 52.5898C15.9953 52.5684 16.0172 52.5263 16.0338 52.4622C16.0511 52.398 16.06 52.2811 16.06 52.1101C16.06 51.9391 16.0505 51.8174 16.0309 51.7455C16.016 51.6897 15.9958 51.6511 15.9691 51.6297C15.9424 51.6084 15.9127 51.5977 15.8789 51.5977C15.8456 51.5983 15.8153 51.6089 15.7892 51.6303Z" fill="white"/>
<path d="M15.0762 51.5157C15.1712 51.6363 15.2193 51.834 15.2193 52.1083C15.2193 52.3879 15.1759 52.5821 15.0893 52.6908C15.0026 52.8 14.8886 52.854 14.7467 52.854C14.6053 52.854 14.4955 52.8048 14.4165 52.705C14.3215 52.5845 14.2734 52.3862 14.2734 52.1107C14.2734 51.8346 14.3209 51.6369 14.4153 51.5175C14.4949 51.4166 14.6053 51.3667 14.7461 51.3667C14.8874 51.3667 14.9972 51.416 15.0762 51.5157ZM14.6564 51.6303C14.6303 51.6517 14.6083 51.6944 14.5911 51.7586C14.5739 51.8227 14.565 51.9403 14.565 52.1107C14.565 52.2817 14.5745 52.4028 14.5935 52.474C14.6083 52.5299 14.6285 52.5684 14.6552 52.5898C14.6819 52.6112 14.7122 52.6219 14.7455 52.6219C14.7793 52.6219 14.809 52.6112 14.8357 52.5898C14.8618 52.5684 14.8838 52.5263 14.9004 52.4622C14.9177 52.398 14.9266 52.2811 14.9266 52.1101C14.9266 51.9391 14.9171 51.8174 14.8981 51.7455C14.8832 51.6897 14.863 51.6511 14.8363 51.6297C14.8096 51.6084 14.7799 51.5977 14.7461 51.5977C14.7128 51.5983 14.6825 51.6089 14.6564 51.6303Z" fill="white"/>
<path d="M13.3809 51.5157C13.4759 51.6363 13.524 51.834 13.524 52.1083C13.524 52.3879 13.4806 52.5821 13.3939 52.6908C13.3072 52.8 13.1932 52.854 13.0513 52.854C12.91 52.854 12.8002 52.8048 12.7212 52.705C12.6262 52.5845 12.5781 52.3862 12.5781 52.1107C12.5781 51.8346 12.6256 51.6369 12.72 51.5175C12.7996 51.4166 12.91 51.3667 13.0507 51.3667C13.1915 51.3667 13.3019 51.416 13.3809 51.5157ZM12.9611 51.6303C12.935 51.6517 12.913 51.6944 12.8958 51.7586C12.8786 51.8227 12.8697 51.9403 12.8697 52.1107C12.8697 52.2817 12.8792 52.4028 12.8982 52.474C12.913 52.5299 12.9332 52.5684 12.9599 52.5898C12.9866 52.6112 13.0169 52.6219 13.0502 52.6219C13.084 52.6219 13.1137 52.6112 13.1404 52.5898C13.1665 52.5684 13.1885 52.5263 13.2057 52.4622C13.2229 52.398 13.2318 52.2811 13.2318 52.1101C13.2318 51.9391 13.2223 51.8174 13.2033 51.7455C13.1885 51.6897 13.1683 51.6511 13.1416 51.6297C13.1149 51.6084 13.0852 51.5977 13.0513 51.5977C13.0175 51.5983 12.9872 51.6089 12.9611 51.6303Z" fill="white"/>
<path d="M12.2481 51.5157C12.3431 51.6363 12.3912 51.834 12.3912 52.1083C12.3912 52.3879 12.3478 52.5821 12.2611 52.6908C12.1744 52.8 12.0604 52.854 11.9185 52.854C11.7772 52.854 11.6674 52.8048 11.5884 52.705C11.4928 52.5845 11.4453 52.3862 11.4453 52.1107C11.4453 51.8346 11.4928 51.6369 11.5872 51.5175C11.6668 51.4166 11.7772 51.3667 11.9179 51.3667C12.0592 51.3667 12.1691 51.416 12.2481 51.5157ZM11.8283 51.6303C11.8022 51.6517 11.7802 51.6944 11.763 51.7586C11.7457 51.8227 11.7368 51.9403 11.7368 52.1107C11.7368 52.2817 11.7463 52.4028 11.7659 52.474C11.7808 52.5299 11.801 52.5684 11.8277 52.5898C11.8544 52.6112 11.8847 52.6219 11.9179 52.6219C11.9518 52.6219 11.9815 52.6112 12.0082 52.5898C12.0343 52.5684 12.0563 52.5263 12.0729 52.4622C12.0901 52.398 12.099 52.2811 12.099 52.1101C12.099 51.9391 12.0895 51.8174 12.0699 51.7455C12.0551 51.6897 12.0349 51.6511 12.0082 51.6297C11.9815 51.6084 11.9518 51.5977 11.9179 51.5977C11.8847 51.5983 11.8544 51.6089 11.8283 51.6303Z" fill="white"/>
<path d="M11.1152 51.5157C11.2102 51.6363 11.2583 51.834 11.2583 52.1083C11.2583 52.3879 11.215 52.5821 11.1283 52.6908C11.0416 52.8 10.9276 52.854 10.7857 52.854C10.6444 52.854 10.5346 52.8048 10.4556 52.705C10.3606 52.5845 10.3125 52.3862 10.3125 52.1107C10.3125 51.8346 10.36 51.6369 10.4544 51.5175C10.534 51.4166 10.6444 51.3667 10.7851 51.3667C10.9264 51.3667 11.0369 51.416 11.1152 51.5157ZM10.6955 51.6303C10.6693 51.6517 10.6474 51.6944 10.6302 51.7586C10.6129 51.8227 10.604 51.9403 10.604 52.1107C10.604 52.2817 10.6135 52.4028 10.6325 52.474C10.6474 52.5299 10.6676 52.5684 10.6943 52.5898C10.721 52.6112 10.7513 52.6219 10.7845 52.6219C10.8184 52.6219 10.8481 52.6112 10.8748 52.5898C10.9009 52.5684 10.9229 52.5263 10.9401 52.4622C10.9573 52.398 10.9662 52.2811 10.9662 52.1101C10.9662 51.9391 10.9567 51.8174 10.9377 51.7455C10.9229 51.6897 10.9027 51.6511 10.876 51.6297C10.8492 51.6084 10.8196 51.5977 10.7857 51.5977C10.7519 51.5983 10.7216 51.6089 10.6955 51.6303Z" fill="white"/>
<path d="M9.98244 51.5157C10.0774 51.6363 10.1255 51.834 10.1255 52.1083C10.1255 52.3879 10.0822 52.5821 9.9955 52.6908C9.90881 52.8 9.79481 52.854 9.65291 52.854C9.51219 52.854 9.40175 52.8048 9.32278 52.705C9.22778 52.5845 9.17969 52.3862 9.17969 52.1107C9.17969 51.8346 9.22719 51.6369 9.32159 51.5175C9.40116 51.4166 9.51159 51.3667 9.65231 51.3667C9.79362 51.3667 9.90406 51.416 9.98244 51.5157ZM9.56325 51.6303C9.53712 51.6517 9.51516 51.6944 9.49794 51.7586C9.48072 51.8227 9.47181 51.9403 9.47181 52.1107C9.47181 52.2817 9.48131 52.4028 9.50091 52.474C9.51575 52.5299 9.53594 52.5684 9.56266 52.5898C9.58938 52.6112 9.61966 52.6219 9.65291 52.6219C9.68675 52.6219 9.71644 52.6112 9.74316 52.5898C9.76928 52.5684 9.79125 52.5263 9.80788 52.4622C9.82509 52.398 9.834 52.2811 9.834 52.1101C9.834 51.9391 9.8245 51.8174 9.80491 51.7455C9.79006 51.6897 9.76987 51.6511 9.74316 51.6297C9.71644 51.6084 9.68675 51.5977 9.65291 51.5977C9.61906 51.5983 9.58878 51.6089 9.56325 51.6303Z" fill="white"/>
<path d="M49.9099 56.2129H34.5276C34.0894 56.2129 33.7344 56.568 33.7344 57.0061C33.7344 57.4443 34.0894 57.7994 34.5276 57.7994H49.9099C50.3481 57.7994 50.7032 57.4443 50.7032 57.0061C50.7032 56.568 50.3481 56.2129 49.9099 56.2129Z" fill="#4D5BA5"/>
<path d="M42.2034 9.00977V32.4647C42.2034 33.588 41.2908 34.5006 40.1675 34.5006H28.6297C27.5063 34.5006 26.5938 33.588 26.5938 32.4647V9.00977L27.6114 10.0275L28.5798 9.05311L29.5482 10.0275L30.5167 9.05311L31.491 10.0275L32.4594 9.05311L33.4278 10.0275L34.3962 9.05311L35.3706 10.0275L36.339 9.05311L37.3074 10.0275L38.2758 9.05311L39.2501 10.0275L40.2185 9.05311L41.1869 10.0275L42.2034 9.00977Z" fill="#E8E7E8"/>
<path d="M32.7059 16.8608C31.5808 16.8608 30.6694 17.7728 30.6694 18.8974V32.4622C30.6694 33.5868 29.7598 34.4988 28.6328 34.4988H45.623C46.7481 34.4988 47.6595 33.5868 47.6595 32.4622V16.8608H32.7059Z" fill="#D2D2D4"/>
<path d="M47.6561 16.8604H32.7031C33.8301 16.8604 34.7397 17.7729 34.7397 18.8969V57.0062H49.6927V18.8969C49.6927 17.7724 48.7807 16.8604 47.6561 16.8604Z" fill="#FDFEFF"/>
<path d="M48.1984 21.2646H36.2344V22.163H48.1984V21.2646Z" fill="#D2D2D4"/>
<path d="M48.1984 23.4243H36.2344V24.3227H48.1984V23.4243Z" fill="#D2D2D4"/>
<path d="M44.1212 25.585H36.2344V26.4833H44.1212V25.585Z" fill="#D2D2D4"/>
<path d="M41.4712 52.7905H36.2344V54.5896H41.4712V52.7905Z" fill="#D2D2D4"/>
<path d="M41.4712 49.0142H36.2344V50.8132H41.4712V49.0142Z" fill="#D2D2D4"/>
<path d="M48.1978 49.584H42.9609V54.5869H48.1978V49.584Z" fill="#D2D2D4"/>
<path d="M48.1984 29.6934H36.2344V30.5917H48.1984V29.6934Z" fill="#D2D2D4"/>
<path d="M48.1984 31.8726H36.2344V32.7709H48.1984V31.8726Z" fill="#D2D2D4"/>
<path d="M48.1984 34.0518H36.2344V34.9501H48.1984V34.0518Z" fill="#D2D2D4"/>
<path d="M48.1984 36.2305H36.2344V37.1288H48.1984V36.2305Z" fill="#D2D2D4"/>
<path d="M44.7832 38.4155H36.2344V39.3139H44.7832V38.4155Z" fill="#D2D2D4"/>
</g>
<defs>
<clipPath id="clip0_2461_20005">
<rect width="76" height="76" fill="white"/>
</clipPath>
</defs>
</svg>
