<svg width="232" height="37" viewBox="0 0 232 37" fill="none" xmlns="http://www.w3.org/2000/svg">
<path d="M0 0H18.2436V36.5324H0V0ZM58.7023 0H76.9458V36.5324H58.7023V0ZM35.9424 7.60261L38.5472 2.38647L41.1322 7.41266C41.4541 7.94353 41.7165 7.8997 42.2316 7.64644L44.4551 6.56522L43.009 13.5834C42.707 14.9617 43.5042 15.3659 44.3709 14.4308L47.5402 11.0995L48.3821 12.9843C48.6643 13.5542 49.0902 13.4714 49.6548 13.3691L52.9281 12.6921L51.8287 16.7589V16.8465C51.7 17.3774 51.4425 17.8206 52.0466 18.0787L53.2104 18.6485L46.4359 24.264C45.7476 24.9605 45.9853 25.1748 46.2428 25.9589L46.8667 27.8438L40.5726 26.7236C39.7951 26.5336 39.2553 26.5336 39.2355 27.1473L39.493 34.2483H37.6013L37.8588 27.1668C37.8588 26.4703 37.3191 26.4898 36.0464 26.7479L30.2078 27.8486L30.9606 25.9638C31.2181 25.243 31.2874 24.756 30.7031 24.2689L23.8246 18.7313L25.0973 17.9667C25.4637 17.6891 25.4835 17.3969 25.2904 16.7783L23.9979 12.6629L27.3158 13.3594C28.2419 13.5736 28.4994 13.3594 28.7371 12.8723L29.6631 11.007L32.9414 14.611C33.5208 15.288 34.3429 14.8448 34.0853 13.8707L32.5106 6.26326L34.947 7.64157C35.3333 7.87534 35.7443 7.93866 35.982 7.49546" fill="#FF0000"/>
<path d="M111.079 15.4537H109.365L108.959 13.6858C107.523 15.2882 106.221 15.8142 104.354 15.8142C99.773 15.8142 97.0296 12.2345 97.0296 7.93881C97.0296 3.64317 99.773 0.0585938 104.354 0.0585938C107.696 0.0585938 110.499 1.80705 110.905 5.19681H108.296C108.038 3.21945 106.285 2.20642 104.334 2.20642C101.056 2.20642 99.6888 5.0507 99.6888 7.93394C99.6888 10.8172 101.061 13.6615 104.334 13.6615C107.072 13.7004 108.573 12.0835 108.617 9.53141H104.552V7.53457H111.079V15.4537ZM118.72 13.8514C116.536 13.8514 115.57 11.9033 115.57 9.99897C115.57 8.09466 116.536 6.166 118.72 6.166C120.904 6.166 121.869 8.11414 121.869 9.99897C121.869 11.8838 120.904 13.8514 118.72 13.8514ZM118.72 15.746C122.275 15.746 124.311 13.3449 124.311 9.99897C124.311 6.65304 122.27 4.27144 118.72 4.27144C115.169 4.27144 113.129 6.67252 113.129 9.99897C113.129 13.3254 115.164 15.7508 118.72 15.7508V15.746ZM125.242 4.56853H127.896L130.689 12.926H130.734L133.432 4.56366H135.958L131.996 15.4489H129.258L125.242 4.56853ZM139.36 9.04925C139.355 8.67082 139.426 8.29516 139.571 7.94428C139.715 7.5934 139.929 7.27436 140.2 7.00584C140.471 6.73732 140.794 6.52472 141.15 6.38051C141.506 6.2363 141.887 6.16338 142.272 6.166C143.921 6.166 144.971 7.53457 145.055 9.04925H139.36ZM147.496 10.6321C147.903 7.36898 145.763 4.27144 142.272 4.27144C138.974 4.27144 136.919 6.92578 136.919 10.0184C136.919 13.3644 138.87 15.746 142.336 15.746C144.758 15.746 146.793 14.4212 147.348 12.0396H145.05C144.619 13.2426 143.768 13.8514 142.351 13.8514C140.316 13.8514 139.38 12.3367 139.38 10.6272L147.496 10.6321ZM149.358 4.56853H151.651V6.67252H151.696C151.924 5.99718 152.355 5.40595 152.933 4.97716C153.51 4.54837 154.207 4.30226 154.93 4.27144C155.238 4.26839 155.546 4.28956 155.851 4.33476V6.65304C155.503 6.5965 155.153 6.56072 154.801 6.54589C153.132 6.54589 151.805 7.87063 151.805 10.2717V15.4537H149.358V4.56853ZM156.896 4.56853H159.208V6.17088L159.253 6.21471C159.603 5.61724 160.109 5.12205 160.718 4.77978C161.327 4.4375 162.018 4.2604 162.719 4.26657C165.116 4.26657 166.636 5.52799 166.636 7.9729V15.4537H164.195V8.61092C164.15 6.9063 163.467 6.17575 162.031 6.17575C160.402 6.17575 159.352 7.43716 159.352 9.03951V15.4537H156.91V4.56853H156.896ZM169.187 4.56853H171.499V6.08321H171.564C171.906 5.50182 172.404 5.02483 173.005 4.70505C173.605 4.38527 174.284 4.2352 174.966 4.27144C176.313 4.27144 177.581 4.84127 178.071 6.08321C178.441 5.5134 178.955 5.04727 179.562 4.72988C180.169 4.41248 180.85 4.25458 181.537 4.27144C183.87 4.27144 185.241 5.28447 185.241 7.93394V15.4537H182.8V9.09308C182.8 7.36411 182.691 6.17088 180.789 6.17088C179.14 6.17088 178.432 7.24722 178.432 9.09308V15.4732H175.991V8.46481C175.991 6.96961 175.496 6.17088 174.045 6.17088C172.782 6.17088 171.623 7.18391 171.623 8.9908V15.4537H169.182V4.56853H169.187ZM189.723 9.04925C189.718 8.67082 189.789 8.29516 189.934 7.94428C190.078 7.5934 190.292 7.27436 190.563 7.00584C190.834 6.73732 191.157 6.52472 191.513 6.38051C191.869 6.2363 192.25 6.16338 192.635 6.166C194.284 6.166 195.334 7.53457 195.418 9.04925H189.723ZM197.859 10.6321C198.265 7.36898 196.126 4.27144 192.635 4.27144C189.337 4.27144 187.282 6.92578 187.282 10.0184C187.282 13.3644 189.228 15.746 192.699 15.746C195.121 15.746 197.156 14.4212 197.711 12.0396H195.398C194.972 13.2426 194.116 13.8514 192.699 13.8514C190.664 13.8514 189.728 12.3367 189.728 10.6272L197.859 10.6321ZM199.721 4.56853H202.034V6.17088L202.079 6.21471C202.429 5.61724 202.935 5.12205 203.544 4.77978C204.153 4.4375 204.844 4.2604 205.545 4.26657C207.942 4.26657 209.462 5.52799 209.462 7.9729V15.4537H207.001V8.61092C206.956 6.9063 206.273 6.17575 204.837 6.17575C203.208 6.17575 202.158 7.43716 202.158 9.03951V15.4537H199.721V4.56853ZM210.913 4.56853H212.75V1.30053H215.192V4.56366H217.395V6.35595H215.192V12.176C215.192 13.1501 215.276 13.6712 216.37 13.6712C216.716 13.685 217.062 13.6555 217.4 13.5835V15.4391C216.866 15.4781 216.351 15.5658 215.816 15.5658C213.265 15.5658 212.795 14.5917 212.75 12.7848V6.35595H210.913V4.56853ZM102.462 34.9108C100.278 34.9108 99.3125 32.9626 99.3125 31.0583C99.3125 29.154 100.283 27.2254 102.462 27.2254C104.641 27.2254 105.612 29.1735 105.612 31.0583C105.612 32.9432 104.656 34.9108 102.462 34.9108ZM102.462 36.8053C106.018 36.8053 108.048 34.4043 108.048 31.0583C108.048 27.7124 106.023 25.3259 102.462 25.3259C98.9015 25.3259 96.8711 27.727 96.8711 31.0535C96.8711 34.3799 98.9114 36.8053 102.462 36.8053ZM108.999 25.623H110.816V24.722C110.816 21.941 112.302 21.4784 113.877 21.4784C114.452 21.4564 115.027 21.5055 115.59 21.6245V23.4996C115.22 23.4058 114.838 23.3632 114.456 23.3729C113.792 23.3729 113.258 23.6067 113.258 24.5077V25.623H115.337V27.4153H113.258V36.5277H110.816V27.4153H108.999V25.623ZM133.452 26.2562C133.002 24.5272 131.868 23.2658 129.639 23.2658C126.361 23.2658 124.994 26.1101 124.994 28.9933C124.994 31.8766 126.366 34.7208 129.639 34.7208C132.016 34.7208 133.324 32.9724 133.536 30.7807H136.136C135.923 34.3799 133.333 36.8686 129.629 36.8686C125.049 36.8686 122.305 33.2889 122.305 28.9933C122.305 24.6977 125.049 21.118 129.629 21.118C133.096 21.118 135.795 23.0125 136.117 26.2562H133.442H133.452ZM145.08 32.8506C145.08 34.3653 143.411 34.9156 142.336 34.9156C141.48 34.9156 140.088 34.5991 140.088 33.5276C140.088 32.2662 141.029 31.8863 142.069 31.7158C143.109 31.5454 144.317 31.5454 145.065 31.0632L145.08 32.8506ZM147.521 28.4673C147.521 26.1734 145.253 25.3113 143.064 25.3113C140.623 25.3113 138.201 26.1344 138.033 28.9349H140.474C140.593 27.7611 141.584 27.2254 142.936 27.2254C143.926 27.2254 145.228 27.4591 145.228 28.6865C145.228 30.0989 143.664 29.9089 141.911 30.2255C139.855 30.4544 137.652 30.8976 137.652 33.6347C137.652 35.7631 139.449 36.8151 141.44 36.8151C142.84 36.8533 144.205 36.3816 145.273 35.4903C145.466 36.4644 146.174 36.8151 147.155 36.8151C147.678 36.7893 148.195 36.6977 148.695 36.5423V34.8718C148.497 34.9014 148.296 34.9144 148.096 34.9108C147.645 34.9108 147.516 34.6819 147.516 34.0877L147.521 28.4673ZM150.151 25.623H152.478V27.2254L152.523 27.2692C152.874 26.6717 153.379 26.1766 153.988 25.8343C154.597 25.492 155.288 25.3149 155.989 25.3211C158.386 25.3211 159.906 26.5825 159.906 29.0274V36.5277H157.43V29.6703C157.386 27.9657 156.702 27.2351 155.266 27.2351C153.637 27.2351 152.587 28.4965 152.587 30.0989V36.5277H150.151V25.623ZM169.271 32.8506C169.271 34.3653 167.602 34.9156 166.532 34.9156C165.676 34.9156 164.284 34.5991 164.284 33.5276C164.284 32.2662 165.225 31.8863 166.265 31.7158C167.305 31.5454 168.513 31.5454 169.261 31.0632L169.271 32.8506ZM171.712 28.4673C171.712 26.1734 169.444 25.3113 167.255 25.3113C164.814 25.3113 162.397 26.1344 162.224 28.9349H164.665C164.774 27.7562 165.735 27.2108 167.107 27.2108C168.097 27.2108 169.4 27.4445 169.4 28.6719C169.4 30.0843 167.835 29.8943 166.082 30.2109C164.027 30.4398 161.823 30.883 161.823 33.6201C161.823 35.7485 163.621 36.8005 165.611 36.8005C167.011 36.8387 168.376 36.367 169.444 35.4757C169.637 36.4498 170.345 36.8005 171.326 36.8005C171.849 36.7747 172.367 36.6831 172.866 36.5277V34.8718C172.668 34.9014 172.467 34.9144 172.267 34.9108C171.816 34.9108 171.688 34.6819 171.688 34.0877L171.712 28.4673ZM176.248 31.1704C176.248 29.2222 177.061 27.2108 179.353 27.2108C181.235 27.2108 182.414 28.6426 182.414 31.0437C182.414 32.9383 181.493 34.8962 179.309 34.8962C177.125 34.8962 176.248 33.06 176.248 31.1704ZM184.776 21.4784H182.335V27.0354H182.29C181.542 25.8373 179.997 25.3308 178.606 25.3308C176.184 25.3308 173.812 27.0549 173.812 30.995C173.812 34.2581 175.501 36.8053 178.992 36.8053C180.383 36.8053 181.775 36.2793 182.419 35.0374H182.463V36.4985H184.776V21.4784ZM194.259 32.8506C194.259 34.3653 192.59 34.9156 191.516 34.9156C190.659 34.9156 189.267 34.5991 189.267 33.5276C189.267 32.2662 190.208 31.8863 191.248 31.7158C192.288 31.5454 193.497 31.5454 194.244 31.0632L194.259 32.8506ZM196.701 28.4673C196.701 26.1734 194.433 25.3113 192.244 25.3113C189.802 25.3113 187.381 26.1344 187.212 28.9349H189.654C189.763 27.7562 190.723 27.2108 192.095 27.2108C193.086 27.2108 194.388 27.4445 194.388 28.6719C194.388 30.0843 192.823 29.8943 191.07 30.2109C189.015 30.4398 186.811 30.883 186.811 33.6201C186.811 35.7485 188.609 36.8005 190.6 36.8005C192 36.8392 193.365 36.3674 194.433 35.4757C194.626 36.4498 195.334 36.8005 196.314 36.8005C196.837 36.7748 197.355 36.6831 197.854 36.5277V34.8718C197.656 34.9014 197.456 34.9144 197.255 34.9108C196.805 34.9108 196.676 34.6819 196.676 34.0877L196.701 28.4673Z" fill="black"/>
</svg>
