<svg width="100" height="120" viewBox="0 0 100 120" fill="none" xmlns="http://www.w3.org/2000/svg">
<circle cx="49.7726" cy="49.7726" r="49.7726" fill="white"/>
<circle cx="49.7724" cy="49.7724" r="45.3408" fill="#115766"/>
<path fill-rule="evenodd" clip-rule="evenodd" d="M49.7736 73.3379C61.7999 73.3379 71.5491 83.0871 71.5491 95.1134C71.5491 107.14 61.7999 116.889 49.7736 116.889C37.7473 116.889 27.998 107.14 27.998 95.1134C27.998 83.0871 37.7473 73.3379 49.7736 73.3379Z" fill="#E92B2B"/>
<path fill-rule="evenodd" clip-rule="evenodd" d="M27.998 95.1133V95.1232C28.0034 107.145 37.7506 116.889 49.7736 116.889C61.7999 116.889 71.5491 107.14 71.5491 95.1133H27.998Z" fill="#2A2FAF"/>
<path fill-rule="evenodd" clip-rule="evenodd" d="M32.4567 108.317C29.6595 104.654 27.998 100.078 27.998 95.1129C27.998 90.1051 29.6885 85.4922 32.5299 81.8135L48.5847 95.0351L32.4567 108.317Z" fill="#1D1D1D"/>
<path fill-rule="evenodd" clip-rule="evenodd" d="M30.6601 84.6699C31.7657 82.6507 33.1819 80.826 34.8446 79.2598L50.0097 91.6446H71.2735C71.4544 92.7741 71.5483 93.9326 71.5483 95.113C71.5483 96.2394 71.4627 97.3458 71.2979 98.4261H50.0097L34.7565 110.883C33.1026 109.308 31.6962 107.475 30.6016 105.449L43.3524 95.0354L30.6601 84.6699Z" fill="#32AB45"/>
<path fill-rule="evenodd" clip-rule="evenodd" d="M30.1816 85.5976C30.4327 85.0817 30.7035 84.577 30.9932 84.085L44.0321 94.4C44.2309 94.5573 44.3458 94.7903 44.3458 95.0359C44.3458 95.2815 44.2309 95.5144 44.0321 95.6717L30.9307 106.036C30.6436 105.542 30.3753 105.035 30.127 104.517L42.1121 95.0359L30.1816 85.5976Z" fill="#FFE70E"/>
<path fill-rule="evenodd" clip-rule="evenodd" d="M34.3418 79.7509C34.7395 79.3515 35.1525 78.9674 35.5801 78.5996L50.4323 90.3702H71.0314C71.1512 90.9091 71.2509 91.4555 71.3298 92.0087H50.1204C49.9189 92.0087 49.7238 91.9414 49.5689 91.8187L34.3418 79.7509Z" fill="#FBFBFB"/>
<path fill-rule="evenodd" clip-rule="evenodd" d="M35.4885 111.547C35.0635 111.177 34.6529 110.791 34.2578 110.39L49.5713 98.2533C49.7262 98.1307 49.9213 98.0635 50.1228 98.0635H71.354C71.2791 98.6164 71.1835 99.1628 71.0679 99.7018H50.4347L35.4885 111.547Z" fill="#FBFBFB"/>
<path d="M18.3398 44.365V59.6377H21.6344V54.4668H24.6235C27.8962 54.4668 30.1216 52.4377 30.1216 49.4268C30.1216 46.3941 27.8962 44.365 24.6235 44.365H18.3398ZM21.6344 51.5213V47.3104H24.4489C25.998 47.3104 26.7835 48.1177 26.7835 49.4268C26.7835 50.7141 25.998 51.5213 24.4489 51.5213H21.6344Z" fill="white"/>
<path d="M39.4475 59.8122C43.8111 59.8122 47.1711 56.6268 47.1711 52.0013C47.1711 47.3759 43.8111 44.1904 39.4475 44.1904C35.1057 44.1904 31.7239 47.3759 31.7239 52.0013C31.7239 56.6268 35.1057 59.8122 39.4475 59.8122ZM39.4475 56.7795C36.9384 56.7795 35.1057 54.8813 35.1057 52.0013C35.1057 49.1213 36.9384 47.2231 39.4475 47.2231C41.9566 47.2231 43.8111 49.1213 43.8111 52.0013C43.8111 54.8813 41.9566 56.7795 39.4475 56.7795Z" fill="white"/>
<path d="M49.5756 44.365V59.6377H52.8701V54.4668H55.8592C59.1319 54.4668 61.3574 52.4377 61.3574 49.4268C61.3574 46.3941 59.1319 44.365 55.8592 44.365H49.5756ZM52.8701 51.5213V47.3104H55.6846C57.2337 47.3104 58.0192 48.1177 58.0192 49.4268C58.0192 50.7141 57.2337 51.5213 55.6846 51.5213H52.8701Z" fill="white"/>
<path d="M66.9113 59.6377V44.365H63.6167V59.6377H66.9113Z" fill="white"/>
<path d="M83.8191 59.6377L78.3428 44.365H74.0882L68.6119 59.6377H71.9719L73.1282 56.2777H79.2373L80.3937 59.6377H83.8191ZM76.1828 47.3322L78.2991 53.5286H74.0664L76.1828 47.3322Z" fill="white"/>
<path d="M52.744 19.0928C55.0554 19.0928 56.6031 20.7155 56.6031 23.1291V28.7003C56.6031 31.1064 55.0554 32.7291 52.744 32.7291H46.8327C44.5213 32.7291 42.9668 31.1064 42.9668 28.7003V23.1291C42.9668 20.7155 44.5213 19.0928 46.8327 19.0928H52.744ZM52.635 23.8655C52.4031 23.6337 52.0213 23.6337 51.7895 23.8655L48.9736 26.6814L47.7804 25.4882C47.5486 25.2564 47.1668 25.2564 46.935 25.4882C46.7032 25.72 46.7032 26.095 46.935 26.3337L48.5577 27.9496C48.6736 28.0655 48.8236 28.12 48.9736 28.12C49.1304 28.12 49.2804 28.0655 49.3963 27.9496L52.635 24.7109C52.8668 24.4791 52.8668 24.1041 52.635 23.8655Z" fill="white"/>
</svg>
