<svg width="500" height="502" viewBox="0 0 500 502" fill="none" xmlns="http://www.w3.org/2000/svg">
<path d="M265.311 79.1753H203.637V0H249.433L265.311 15.085V79.1753Z" fill="#EBEBEB"/>
<path d="M249.433 0L265.311 15.085H249.433V0Z" fill="#DBDBDB"/>
<path d="M209.658 15.3252L243.951 15.3252V13.2938L209.658 13.2938V15.3252Z" fill="#DBDBDB"/>
<path d="M209.658 20.457L243.951 20.457V18.4257L209.658 18.4257V20.457Z" fill="#DBDBDB"/>
<path d="M209.658 25.5908L243.951 25.5908V23.5594L209.658 23.5594V25.5908Z" fill="#DBDBDB"/>
<path d="M209.658 30.7236L259.901 30.7236V28.6923L209.658 28.6923V30.7236Z" fill="#DBDBDB"/>
<path d="M209.658 35.8555L259.901 35.8555V33.8241L209.658 33.8241V35.8555Z" fill="#DBDBDB"/>
<path d="M209.658 40.9756L259.901 40.9756V38.9442L209.658 38.9442V40.9756Z" fill="#DBDBDB"/>
<path d="M209.658 46.1084L259.901 46.1084V44.077L209.658 44.077V46.1084Z" fill="#DBDBDB"/>
<path d="M209.658 51.2412L259.901 51.2412V49.2098L209.658 49.2098V51.2412Z" fill="#DBDBDB"/>
<path d="M209.658 56.374L259.901 56.374V54.3427L209.658 54.3427V56.374Z" fill="#DBDBDB"/>
<path d="M209.658 61.5059L259.901 61.5059V59.4745L209.658 59.4745V61.5059Z" fill="#DBDBDB"/>
<path d="M209.658 66.6387H259.901V64.6073H209.658V66.6387Z" fill="#DBDBDB"/>
<path d="M209.658 71.7705H259.901V69.7391H209.658V71.7705Z" fill="#DBDBDB"/>
<path d="M269.48 86.3857C274.995 84.0868 277.601 77.7527 275.303 72.2382C273.004 66.7236 266.67 64.1167 261.155 66.4156C255.64 68.7145 253.034 75.0486 255.332 80.5632C257.631 86.0778 263.965 88.6846 269.48 86.3857Z" fill="#C7C7C7"/>
<path d="M270.672 73.6582H259.95V83.3943H270.672V73.6582Z" fill="white"/>
<path d="M269.602 76.6636H268.533V72.3604C268.559 71.9233 268.496 71.4853 268.348 71.0733C268.199 70.6614 267.967 70.2843 267.667 69.9653C267.367 69.6463 267.005 69.392 266.603 69.2182C266.201 69.0445 265.767 68.9548 265.329 68.9548C264.891 68.9548 264.458 69.0445 264.056 69.2182C263.654 69.392 263.292 69.6463 262.992 69.9653C262.692 70.2843 262.46 70.6614 262.311 71.0733C262.162 71.4853 262.099 71.9233 262.126 72.3604V76.6996H261.032V72.3604C261.032 71.2224 261.484 70.1309 262.289 69.3262C263.094 68.5214 264.185 68.0693 265.323 68.0693C266.461 68.0693 267.553 68.5214 268.358 69.3262C269.162 70.1309 269.614 71.2224 269.614 72.3604L269.602 76.6636Z" fill="white"/>
<path d="M265.768 78.6465L266.213 80.774H264.313L264.758 78.6465C264.623 78.5601 264.511 78.4412 264.433 78.3005C264.356 78.1598 264.314 78.0019 264.313 77.8412C264.313 77.5893 264.414 77.3478 264.592 77.1697C264.77 76.9917 265.011 76.8916 265.263 76.8916C265.515 76.8916 265.756 76.9917 265.935 77.1697C266.113 77.3478 266.213 77.5893 266.213 77.8412C266.212 78.0019 266.171 78.1598 266.093 78.3005C266.015 78.4412 265.903 78.5601 265.768 78.6465Z" fill="#C7C7C7"/>
<path d="M345.58 111.401L345.736 173.003C345.739 173.822 345.581 174.634 345.27 175.392C344.96 176.15 344.503 176.84 343.926 177.421C343.349 178.003 342.663 178.465 341.907 178.781C341.151 179.098 340.341 179.262 339.522 179.265L241.824 179.518C241.004 179.519 240.193 179.359 239.435 179.047C238.678 178.735 237.989 178.277 237.409 177.699C236.829 177.121 236.368 176.434 236.053 175.678C235.738 174.922 235.575 174.111 235.573 173.291L235.417 111.689C235.414 110.927 235.561 110.172 235.85 109.468C236.139 108.763 236.564 108.122 237.101 107.581C237.638 107.041 238.277 106.612 238.98 106.318C239.683 106.025 240.437 105.873 241.199 105.872L339.762 105.619C340.524 105.616 341.279 105.763 341.984 106.052C342.689 106.341 343.33 106.766 343.87 107.303C344.41 107.84 344.84 108.479 345.133 109.182C345.426 109.885 345.578 110.639 345.58 111.401Z" fill="#EBEBEB"/>
<path d="M329.834 164.372C329.837 165.506 329.503 166.615 328.875 167.559C328.247 168.503 327.353 169.24 326.306 169.676C325.259 170.113 324.107 170.228 322.994 170.01C321.881 169.791 320.859 169.247 320.055 168.447C319.251 167.646 318.703 166.626 318.48 165.514C318.256 164.403 318.367 163.249 318.799 162.201C319.231 161.152 319.964 160.255 320.905 159.623C321.847 158.991 322.955 158.653 324.089 158.65C324.842 158.649 325.587 158.796 326.284 159.082C326.98 159.369 327.613 159.79 328.146 160.321C328.68 160.852 329.104 161.484 329.393 162.179C329.683 162.874 329.833 163.619 329.834 164.372Z" fill="#DBDBDB"/>
<path d="M336.901 164.348C336.903 165.482 336.569 166.591 335.942 167.535C335.314 168.479 334.421 169.215 333.375 169.652C332.329 170.088 331.177 170.205 330.065 169.987C328.952 169.769 327.93 169.226 327.126 168.427C326.322 167.628 325.773 166.609 325.548 165.498C325.323 164.387 325.432 163.235 325.862 162.186C326.292 161.137 327.023 160.239 327.963 159.606C328.903 158.972 330.01 158.632 331.143 158.627C331.897 158.624 332.644 158.769 333.342 159.055C334.039 159.341 334.674 159.762 335.209 160.294C335.743 160.825 336.168 161.457 336.458 162.153C336.749 162.848 336.899 163.595 336.901 164.348Z" fill="#46B2C8"/>
<path d="M260.306 116.394L249.728 116.421C246.94 116.429 244.686 118.695 244.693 121.483L244.704 125.678C244.711 128.466 246.977 130.72 249.765 130.713L260.343 130.685C263.131 130.678 265.385 128.412 265.378 125.624L265.367 121.429C265.36 118.641 263.094 116.386 260.306 116.394Z" fill="#46B2C8"/>
<path d="M332.875 124.046H323.523C323.008 124.048 322.497 123.947 322.02 123.751C321.543 123.555 321.11 123.267 320.745 122.903C320.38 122.539 320.09 122.106 319.892 121.63C319.695 121.154 319.593 120.643 319.593 120.128C319.591 119.614 319.691 119.104 319.887 118.629C320.082 118.154 320.37 117.722 320.733 117.357C321.096 116.993 321.527 116.705 322.002 116.508C322.476 116.311 322.985 116.209 323.499 116.209H332.851C333.366 116.206 333.876 116.305 334.353 116.5C334.83 116.694 335.263 116.982 335.629 117.345C335.994 117.708 336.284 118.139 336.482 118.615C336.679 119.091 336.781 119.6 336.781 120.116C336.783 120.63 336.683 121.14 336.488 121.616C336.292 122.092 336.005 122.525 335.642 122.89C335.279 123.255 334.848 123.545 334.373 123.743C333.899 123.942 333.389 124.044 332.875 124.046Z" fill="white"/>
<path d="M297.104 159.292L244.793 159.429L244.8 162.001L297.11 161.864L297.104 159.292Z" fill="#DBDBDB"/>
<path d="M281.853 165.053L244.819 165.15L244.826 167.723L281.859 167.626L281.853 165.053Z" fill="#DBDBDB"/>
<path d="M315.995 116.248L289.899 116.316L289.906 118.889L316.001 118.82L315.995 116.248Z" fill="#DBDBDB"/>
<path d="M247.112 145.609H246.751V149.516H247.112V145.609Z" fill="#C7C7C7"/>
<path d="M248.879 147.388H244.973V147.748H248.879V147.388Z" fill="#C7C7C7"/>
<path d="M248.187 146.05L245.416 148.82L245.671 149.075L248.442 146.304L248.187 146.05Z" fill="#C7C7C7"/>
<path d="M245.683 146.061L245.428 146.316L248.199 149.087L248.453 148.832L245.683 146.061Z" fill="#C7C7C7"/>
<path d="M251.813 145.609H251.452V149.516H251.813V145.609Z" fill="#C7C7C7"/>
<path d="M253.59 147.388H249.684V147.748H253.59V147.388Z" fill="#C7C7C7"/>
<path d="M252.892 146.055L250.13 148.817L250.385 149.072L253.147 146.31L252.892 146.055Z" fill="#C7C7C7"/>
<path d="M250.375 146.046L250.12 146.301L252.882 149.064L253.137 148.809L250.375 146.046Z" fill="#C7C7C7"/>
<path d="M256.525 145.609H256.164V149.516H256.525V145.609Z" fill="#C7C7C7"/>
<path d="M258.29 147.388H254.384V147.748H258.29V147.388Z" fill="#C7C7C7"/>
<path d="M255.082 149.071L254.83 148.818L257.595 146.054L257.859 146.306L255.082 149.071Z" fill="#C7C7C7"/>
<path d="M257.595 149.071L254.83 146.306L255.082 146.054L257.859 148.818L257.595 149.071Z" fill="#C7C7C7"/>
<path d="M261.224 145.609H260.863V149.516H261.224V145.609Z" fill="#C7C7C7"/>
<path d="M263.002 147.388H259.096V147.748H263.002V147.388Z" fill="#C7C7C7"/>
<path d="M259.793 149.071L259.541 148.818L262.306 146.054L262.558 146.306L259.793 149.071Z" fill="#C7C7C7"/>
<path d="M262.306 149.071L259.541 146.306L259.793 146.054L262.558 148.818L262.306 149.071Z" fill="#C7C7C7"/>
<path d="M271.501 145.609H271.141V149.516H271.501V145.609Z" fill="#C7C7C7"/>
<path d="M273.268 147.388H269.361V147.748H273.268V147.388Z" fill="#C7C7C7"/>
<path d="M270.07 149.071L269.806 148.818L272.57 146.054L272.835 146.306L270.07 149.071Z" fill="#C7C7C7"/>
<path d="M272.57 149.071L269.806 146.306L270.07 146.054L272.835 148.818L272.57 149.071Z" fill="#C7C7C7"/>
<path d="M276.2 145.609H275.84V149.516H276.2V145.609Z" fill="#C7C7C7"/>
<path d="M277.979 147.388H274.072V147.748H277.979V147.388Z" fill="#C7C7C7"/>
<path d="M274.77 149.071L274.518 148.818L277.282 146.054L277.535 146.306L274.77 149.071Z" fill="#C7C7C7"/>
<path d="M277.282 149.071L274.518 146.306L274.77 146.054L277.535 148.818L277.282 149.071Z" fill="#C7C7C7"/>
<path d="M280.912 145.609H280.552V149.516H280.912V145.609Z" fill="#C7C7C7"/>
<path d="M282.679 147.388H278.772V147.748H282.679V147.388Z" fill="#C7C7C7"/>
<path d="M279.483 149.071L279.219 148.818L281.983 146.054L282.248 146.306L279.483 149.071Z" fill="#C7C7C7"/>
<path d="M281.983 149.071L279.219 146.306L279.483 146.054L282.248 148.818L281.983 149.071Z" fill="#C7C7C7"/>
<path d="M285.624 145.609H285.264V149.516H285.624V145.609Z" fill="#C7C7C7"/>
<path d="M287.391 147.388H283.484V147.748H287.391V147.388Z" fill="#C7C7C7"/>
<path d="M284.182 149.071L283.93 148.818L286.694 146.054L286.947 146.306L284.182 149.071Z" fill="#C7C7C7"/>
<path d="M286.694 149.071L283.93 146.306L284.182 146.054L286.947 148.818L286.694 149.071Z" fill="#C7C7C7"/>
<path d="M295.889 145.609H295.528V149.516H295.889V145.609Z" fill="#C7C7C7"/>
<path d="M297.668 147.388H293.762V147.748H297.668V147.388Z" fill="#C7C7C7"/>
<path d="M294.458 149.071L294.206 148.818L296.971 146.054L297.223 146.306L294.458 149.071Z" fill="#C7C7C7"/>
<path d="M296.971 149.071L294.206 146.306L294.458 146.054L297.223 148.818L296.971 149.071Z" fill="#C7C7C7"/>
<path d="M300.601 145.609H300.24V149.516H300.601V145.609Z" fill="#C7C7C7"/>
<path d="M302.367 147.388H298.461V147.748H302.367V147.388Z" fill="#C7C7C7"/>
<path d="M299.159 149.071L298.906 148.818L301.671 146.054L301.935 146.306L299.159 149.071Z" fill="#C7C7C7"/>
<path d="M301.671 149.071L298.906 146.306L299.159 146.054L301.935 148.818L301.671 149.071Z" fill="#C7C7C7"/>
<path d="M305.3 145.609H304.939V149.516H305.3V145.609Z" fill="#C7C7C7"/>
<path d="M307.079 147.388H303.173V147.748H307.079V147.388Z" fill="#C7C7C7"/>
<path d="M303.87 149.071L303.617 148.818L306.382 146.054L306.634 146.306L303.87 149.071Z" fill="#C7C7C7"/>
<path d="M306.382 149.071L303.617 146.306L303.87 146.054L306.634 148.818L306.382 149.071Z" fill="#C7C7C7"/>
<path d="M310.013 145.609H309.652V149.516H310.013V145.609Z" fill="#C7C7C7"/>
<path d="M311.78 147.388H307.873V147.748H311.78V147.388Z" fill="#C7C7C7"/>
<path d="M308.57 149.071L308.317 148.818L311.082 146.054L311.346 146.306L308.57 149.071Z" fill="#C7C7C7"/>
<path d="M311.082 149.071L308.317 146.306L308.57 146.054L311.346 148.818L311.082 149.071Z" fill="#C7C7C7"/>
<path d="M320.278 145.609H319.917V149.516H320.278V145.609Z" fill="#C7C7C7"/>
<path d="M322.056 147.388H318.149V147.748H322.056V147.388Z" fill="#C7C7C7"/>
<path d="M318.847 149.071L318.595 148.818L321.359 146.054L321.612 146.306L318.847 149.071Z" fill="#C7C7C7"/>
<path d="M321.359 149.071L318.595 146.306L318.847 146.054L321.612 148.818L321.359 149.071Z" fill="#C7C7C7"/>
<path d="M324.989 145.609H324.629V149.516H324.989V145.609Z" fill="#C7C7C7"/>
<path d="M326.756 147.388H322.85V147.748H326.756V147.388Z" fill="#C7C7C7"/>
<path d="M323.559 149.071L323.295 148.818L326.072 146.054L326.324 146.306L323.559 149.071Z" fill="#C7C7C7"/>
<path d="M326.072 149.071L323.295 146.306L323.559 146.054L326.324 148.818L326.072 149.071Z" fill="#C7C7C7"/>
<path d="M329.701 145.609H329.341V149.516H329.701V145.609Z" fill="#C7C7C7"/>
<path d="M331.468 147.388H327.562V147.748H331.468V147.388Z" fill="#C7C7C7"/>
<path d="M328.258 149.071L328.006 148.818L330.77 146.054L331.023 146.306L328.258 149.071Z" fill="#C7C7C7"/>
<path d="M330.77 149.071L328.006 146.306L328.258 146.054L331.023 148.818L330.77 149.071Z" fill="#C7C7C7"/>
<path d="M334.401 145.609H334.04V149.516H334.401V145.609Z" fill="#C7C7C7"/>
<path d="M336.168 147.388H332.262V147.748H336.168V147.388Z" fill="#C7C7C7"/>
<path d="M332.97 149.071L332.706 148.818L335.471 146.054L335.735 146.306L332.97 149.071Z" fill="#C7C7C7"/>
<path d="M335.471 149.071L332.706 146.306L332.97 146.054L335.735 148.818L335.471 149.071Z" fill="#C7C7C7"/>
<path d="M356.388 180.931C357.347 175.034 353.345 169.476 347.448 168.517C341.55 167.557 335.992 171.56 335.033 177.457C334.074 183.354 338.076 188.912 343.973 189.872C349.871 190.831 355.429 186.828 356.388 180.931Z" fill="#C7C7C7"/>
<path d="M351.097 176.477H340.375V186.213H351.097V176.477Z" fill="white"/>
<path d="M350.027 179.482H348.945V175.131C348.895 174.315 348.536 173.549 347.94 172.99C347.345 172.43 346.559 172.118 345.741 172.118C344.924 172.118 344.138 172.43 343.543 172.99C342.947 173.549 342.588 174.315 342.538 175.131V179.482H341.444V175.131C341.444 173.993 341.896 172.901 342.701 172.097C343.506 171.292 344.597 170.84 345.735 170.84C346.874 170.84 347.965 171.292 348.77 172.097C349.574 172.901 350.027 173.993 350.027 175.131V179.482Z" fill="white"/>
<path d="M346.193 181.465L346.637 183.592H344.738L345.183 181.465C345.047 181.378 344.936 181.26 344.858 181.119C344.78 180.978 344.739 180.82 344.738 180.66C344.738 180.408 344.838 180.166 345.016 179.988C345.194 179.81 345.436 179.71 345.688 179.71C345.94 179.71 346.181 179.81 346.359 179.988C346.537 180.166 346.637 180.408 346.637 180.66C346.637 180.82 346.595 180.978 346.518 181.119C346.44 181.26 346.328 181.378 346.193 181.465Z" fill="#C7C7C7"/>
<path d="M90.4363 75.428L163.404 87.6387L172.262 34.7057L99.2942 22.4951L90.4363 75.428Z" fill="#EBEBEB"/>
<path d="M93.9669 72.8998L160.877 84.0967L168.719 37.2335L101.809 26.0366L93.9669 72.8998Z" fill="white"/>
<path d="M107.464 40.664C107.282 41.7588 107.428 42.8829 107.885 43.8944C108.342 44.9059 109.088 45.7592 110.03 46.3467C110.971 46.9341 112.066 47.2292 113.175 47.1948C114.285 47.1603 115.359 46.7978 116.262 46.1531C117.165 45.5083 117.857 44.6103 118.25 43.5724C118.644 42.5345 118.72 41.4034 118.471 40.322C118.221 39.2406 117.657 38.2575 116.848 37.4968C116.04 36.7361 115.025 36.2321 113.93 36.0483C112.461 35.8049 110.955 36.1541 109.743 37.0193C108.531 37.8846 107.711 39.1953 107.464 40.664Z" fill="#DBDBDB"/>
<path d="M125.374 67.7804L162.588 74.0188L148.2 45.6758L125.374 67.7804Z" fill="#DBDBDB"/>
<path d="M110.794 65.3518L141.505 70.4964L128.896 51.5049L110.794 65.3518Z" fill="#EBEBEB"/>
<path d="M162.59 73.9899L95.6797 62.793L93.9894 72.8935L160.9 84.0904L162.59 73.9899Z" fill="#EBEBEB"/>
<path d="M69.4812 92.1563L143.464 92.1562V38.4873L69.4812 38.4873V92.1563Z" fill="#EBEBEB"/>
<path d="M72.5472 89.0674L140.388 89.0674V41.5526L72.5472 41.5526V89.0674Z" fill="white"/>
<path d="M80.4688 55.0635C80.4664 56.1766 80.7943 57.2654 81.4109 58.192C82.0276 59.1187 82.9053 59.8416 83.933 60.2692C84.9607 60.6968 86.0921 60.8099 87.1841 60.5942C88.2761 60.3785 89.2796 59.8437 90.0675 59.0575C90.8554 58.2712 91.3924 57.2689 91.6104 56.1774C91.8285 55.0859 91.7178 53.9542 91.2924 52.9256C90.8669 51.897 90.1459 51.0177 89.2206 50.3991C88.2953 49.7804 87.2072 49.4502 86.0941 49.4502C84.6042 49.4502 83.1752 50.0412 82.1206 51.0936C81.066 52.1459 80.4719 53.5737 80.4688 55.0635Z" fill="#DBDBDB"/>
<path d="M102.669 78.8509H140.399L121.528 53.2725L102.669 78.8509Z" fill="#DBDBDB"/>
<path d="M87.8721 78.8627H119.028L103.45 62.2031L87.8721 78.8627Z" fill="#EBEBEB"/>
<path d="M140.387 78.8379H72.5469V89.0789H140.387V78.8379Z" fill="#EBEBEB"/>
<path d="M184.091 293.058H78.0273V439.833H184.091V293.058Z" fill="#EBEBEB"/>
<path d="M189.236 287.612H72.8955V293.057H189.236V287.612Z" fill="#DBDBDB"/>
<path d="M225.813 287.612H189.225V293.057H225.813V287.612Z" fill="#EBEBEB"/>
<path d="M220.031 293.058H184.092V439.833H220.031V293.058Z" fill="#DBDBDB"/>
<path d="M172.685 361.007H89.4346V313.961H172.685V361.007ZM89.7471 360.706H172.372V314.237H89.7351L89.7471 360.706Z" fill="#C7C7C7"/>
<path d="M135.651 327.699H119.448V337.015H135.651V327.699Z" fill="#C7C7C7"/>
<path d="M140.592 336.463H124.089V328.253H140.592V336.463ZM124.389 336.162H140.292V328.553H124.389V336.162Z" fill="#C7C7C7"/>
<path d="M172.685 420.097H89.4346V373.027H172.685V420.097ZM89.7471 419.797H172.372V373.328H89.7351L89.7471 419.797Z" fill="#C7C7C7"/>
<path d="M135.651 386.789H119.448V396.105H135.651V386.789Z" fill="#C7C7C7"/>
<path d="M140.592 395.551H124.089V387.342H140.592V395.551ZM124.389 395.251H140.292V387.642H124.389V395.251Z" fill="#C7C7C7"/>
<path d="M11.9541 439.881L71.597 439.581L131.228 439.485L250.502 439.28L369.775 439.473L429.406 439.581L489.049 439.881L429.406 440.17L369.775 440.278L250.502 440.482L131.228 440.278L71.597 440.17L11.9541 439.881Z" fill="#023A59"/>
<path d="M74.1695 492.625C103.564 492.625 127.394 488.051 127.394 482.408C127.394 476.766 103.564 472.191 74.1695 472.191C44.7746 472.191 20.9453 476.766 20.9453 482.408C20.9453 488.051 44.7746 492.625 74.1695 492.625Z" fill="#EBEBEB"/>
<path d="M272.101 502.001C386.959 502.001 480.069 492.868 480.069 481.603C480.069 470.337 386.959 461.205 272.101 461.205C157.243 461.205 64.1318 470.337 64.1318 481.603C64.1318 492.868 157.243 502.001 272.101 502.001Z" fill="#EBEBEB"/>
<path d="M329.388 303.684L325.89 324.694L302.15 452.863H298.328L315.589 324.694L318.137 303.684H329.388Z" fill="#C7C7C7"/>
<path d="M318.136 303.684H329.387L325.889 324.694H315.588L318.136 303.684Z" fill="#A6A6A6"/>
<path d="M403.923 452.863H400.1L376.361 324.694L372.863 303.684H384.114L386.662 324.694L403.923 452.863Z" fill="#C7C7C7"/>
<path d="M384.114 303.684L386.662 324.694H376.361L372.863 303.684H384.114Z" fill="#A6A6A6"/>
<path d="M475.116 452.863H471.282L447.555 324.694L444.045 303.684H455.296L457.856 324.694L475.116 452.863Z" fill="#C7C7C7"/>
<path d="M457.856 324.694H447.555L444.045 303.684H455.296L457.856 324.694Z" fill="#A6A6A6"/>
<path d="M469.046 313.553H295.13V295.235H360.23L394.138 105.296H486.451L469.046 313.553Z" fill="#C7C7C7"/>
<path d="M468.301 295.233H295.13V313.552H468.95L468.301 295.233Z" fill="#DBDBDB"/>
<path d="M469.048 313.553H459.564L477.426 105.296H486.453L469.048 313.553Z" fill="#DBDBDB"/>
<path d="M471.197 78.707C468.517 75.7621 457.543 67.5284 448.059 63.081C443.468 60.8814 429.597 55.9893 427.625 59.3909C425.654 62.7926 429.609 64.5835 429.609 64.5835C429.609 64.5835 423.43 63.3815 421.784 66.9875C420.137 70.5935 426.327 73.1778 426.327 73.1778C426.327 73.1778 419.908 72.4205 418.514 76.1227C417.12 79.8248 423.791 81.3874 423.791 81.3874C423.791 81.3874 417.949 80.4258 418.093 83.9597C418.262 88.2147 429.224 88.7676 434.188 91.4721C435.318 92.0731 456.161 105.427 456.161 105.427L471.197 78.707Z" fill="#EB9481"/>
<path d="M423.875 81.4231C431.94 81.8558 435.402 83.4545 441.905 88.0581C442.037 88.1422 442.193 87.974 442.073 87.8658C436.135 82.7814 432.085 80.161 423.899 81.0264C423.478 81.0745 423.49 81.3991 423.875 81.4231Z" fill="#023A59"/>
<path d="M425.991 72.9974C434.333 74.1994 438.095 75.8702 445.223 80.2094C445.331 80.2094 445.439 80.1012 445.343 80.0291C438.684 75.2211 434.597 72.6849 426.111 72.6008C425.763 72.5767 425.643 72.9373 425.991 72.9974Z" fill="#023A59"/>
<path d="M430.294 64.6555C438.288 66.3864 442.495 68.0572 448.889 73.1416C449.046 73.2618 449.238 73.0575 449.094 72.9252C443.084 67.0956 437.843 64.968 430.379 64.4151C429.862 64.3791 429.79 64.5473 430.294 64.6555Z" fill="#023A59"/>
<path d="M459.647 109.947C459.647 109.947 449.599 108.661 445.308 107.122C441.017 105.584 427.194 93.9967 429.513 90.8475C432.53 86.7967 441.858 91.9172 446.101 95.0184C446.101 95.0184 453.072 85.6428 460.525 87.8665C467.977 90.0902 459.647 109.947 459.647 109.947Z" fill="#EB9481"/>
<path d="M430.703 90.005C436.124 88.2982 441.424 92.7336 445.764 95.4381C445.826 95.4811 445.898 95.5083 445.974 95.5172C446.049 95.5262 446.126 95.5166 446.197 95.4894C446.268 95.4622 446.331 95.4182 446.381 95.361C446.432 95.3039 446.467 95.2355 446.485 95.1616C449.67 91.4234 455.247 87.0842 460.404 87.589C460.436 87.589 460.466 87.5764 460.489 87.5538C460.511 87.5313 460.524 87.5007 460.524 87.4688C460.524 87.437 460.511 87.4064 460.489 87.3839C460.466 87.3613 460.436 87.3487 460.404 87.3487C454.947 86.0625 449.117 89.8849 445.884 94.2C441.485 91.3513 435.967 87.1443 430.643 89.957C430.655 89.969 430.679 90.0171 430.703 90.005Z" fill="#023A59"/>
<path d="M374.702 68.5375C378.308 66.9389 392.311 62.6838 402.805 62.4074C407.889 62.2752 422.554 63.4411 422.962 67.3476C423.371 71.254 419.044 71.2901 419.044 71.2901C419.044 71.2901 425.162 72.7085 425.21 76.663C425.258 80.6176 418.539 80.4733 418.539 80.4733C418.539 80.4733 424.717 82.3845 424.489 86.3391C424.26 90.2936 417.517 89.0075 417.517 89.0075C417.517 89.0075 423.251 90.4979 421.688 93.6712C419.801 97.4935 409.548 93.551 403.923 93.9837C402.649 94.0799 378.188 97.8061 378.188 97.8061L374.702 68.5375Z" fill="#EB9481"/>
<path d="M417.421 89.0558C409.872 86.183 406.062 86.2311 398.273 87.8538C398.117 87.8538 398.032 87.6735 398.189 87.6254C405.689 85.3897 410.449 84.6445 417.577 88.7673C417.925 88.8995 417.781 89.188 417.421 89.0558Z" fill="#023A59"/>
<path d="M418.876 80.4858C410.774 78.178 406.651 78.19 398.37 79.2838C398.25 79.2838 398.213 79.1035 398.37 79.0795C406.411 77.3726 411.171 76.6755 418.972 80.1132C419.284 80.2093 419.248 80.594 418.876 80.4858Z" fill="#023A59"/>
<path d="M418.371 71.158C410.365 69.4872 405.846 69.3069 397.937 71.3503C397.918 71.3566 397.899 71.3593 397.88 71.3581C397.861 71.357 397.842 71.3522 397.825 71.3438C397.807 71.3354 397.792 71.3237 397.779 71.3094C397.766 71.295 397.757 71.2783 397.75 71.2601C397.744 71.242 397.741 71.2228 397.742 71.2036C397.744 71.1844 397.748 71.1656 397.757 71.1483C397.765 71.131 397.777 71.1155 397.791 71.1027C397.806 71.09 397.822 71.0801 397.84 71.0738C405.713 68.2011 411.351 68.3814 418.407 70.9055C418.875 71.0498 418.875 71.2301 418.371 71.158Z" fill="#023A59"/>
<path d="M373.104 100.571C373.104 100.571 382.804 103.48 387.335 103.816C391.867 104.153 409.271 99.2004 408.418 95.4022C407.3 90.474 396.699 91.3635 391.59 92.4813C391.59 92.4813 389.03 81.0744 381.289 80.0647C373.548 79.0551 373.104 100.571 373.104 100.571Z" fill="#EB9481"/>
<path d="M407.685 94.1285C403.43 90.3543 396.783 92.2534 391.723 92.9266C391.648 92.9414 391.571 92.9378 391.498 92.916C391.425 92.8943 391.358 92.8551 391.304 92.8018C391.249 92.7486 391.209 92.6828 391.185 92.6103C391.162 92.5378 391.157 92.4607 391.17 92.3857C389.788 87.6859 386.458 81.4475 381.554 79.8128C381.41 79.8128 381.458 79.5484 381.554 79.5844C387.071 80.6181 390.845 86.4718 392.035 91.7366C397.216 90.9192 403.971 89.3326 407.661 94.0444C407.745 94.1165 407.721 94.1526 407.685 94.1285Z" fill="#023A59"/>
<path d="M402.348 142.329C374.847 134.901 331.539 110.031 335.518 98.0596C339.376 86.4243 355.615 74.2602 376.385 67.7935C379.414 66.8439 378.789 73.2024 380.196 84.2848C380.881 89.5255 390.076 103.649 385.641 103.613C383.322 103.683 381.038 104.193 378.91 105.115C377.287 105.74 396.795 118.77 407.697 126.944C422.386 137.906 414.092 145.49 402.348 142.329Z" fill="#EB9481"/>
<path d="M362.646 133.89L393.129 114.803C393.129 114.803 411.435 125.933 415.967 132.099C420.498 138.266 416.928 144.937 402.745 144.949C386.434 144.961 362.646 133.89 362.646 133.89Z" fill="#46B2C8"/>
<g opacity="0.1">
<path d="M400.929 119.827H385.123L387.936 118.072H398.297L400.929 119.827Z" fill="black"/>
<path d="M408.969 125.597H375.891L378.691 123.842H406.65L408.969 125.597Z" fill="black"/>
<path d="M415.352 131.355H366.695L369.496 129.6H413.681C414.318 130.213 414.883 130.802 415.352 131.355Z" fill="black"/>
<path d="M417.793 137.124H370.338C368.667 136.475 367.201 135.922 366.011 135.369H417.576C417.734 135.94 417.807 136.532 417.793 137.124Z" fill="black"/>
<path d="M416.062 141.139C415.362 141.848 414.55 142.437 413.658 142.882H388.128C385.988 142.353 383.873 141.764 381.817 141.139H416.062Z" fill="black"/>
</g>
<path d="M370.7 136.234C382.972 128.733 395.124 120.271 397.144 118.625C397.228 118.552 397.144 118.42 397.023 118.468C387.864 123.803 379.033 129.683 370.579 136.077C370.559 136.093 370.545 136.117 370.542 136.143C370.538 136.169 370.546 136.195 370.561 136.216C370.577 136.236 370.601 136.25 370.627 136.253C370.653 136.257 370.679 136.25 370.7 136.234Z" fill="#023A59"/>
<path d="M402.721 144.949C396.732 144.758 390.793 143.792 385.052 142.076C393.021 136.727 402.493 130.416 409.428 125.957C411.844 127.733 414.036 129.796 415.955 132.099C420.474 138.253 416.917 144.937 402.721 144.949Z" fill="#023A59"/>
<path d="M301.861 477.287C305.251 477.612 397.336 455.651 400.232 452.694C400.593 452.358 398.778 443.992 396.122 432.573V432.345C394.451 425.133 367.634 366.596 367.634 366.596L307.943 383.231L335.06 437.525C335.06 437.525 323.822 445.639 314.206 453.392C308.256 458.127 303.123 462.37 302.042 463.753C299.145 467.323 298.496 476.987 301.861 477.287Z" fill="#EB9481"/>
<path d="M301.873 477.276C305.239 477.601 397.324 455.641 400.244 452.696C400.593 452.359 398.778 443.993 396.122 432.574V432.358C395.521 429.666 391.386 419.821 386.506 408.559C376.685 411.191 341.467 420.711 328.678 424.665L335.108 437.539C335.108 437.539 323.822 445.652 314.206 453.393C308.256 458.117 303.123 462.372 302.042 463.742C299.145 467.324 298.484 477 301.873 477.276Z" fill="#EBEBEB"/>
<path d="M301.561 477.721C305.047 478.021 397.192 455.845 400.124 452.779C401.254 451.577 399.223 437.081 394.175 421.672L334.784 436.096C334.784 436.096 304.458 460.136 301.549 463.814C298.64 467.492 298.087 477.432 301.561 477.721Z" fill="#46B2C8"/>
<path d="M301.993 473.718C317.355 469.619 379.678 454.486 395.16 451.661C395.292 451.661 395.316 451.721 395.16 451.757C380.039 456.145 317.595 470.725 302.029 473.97C301.729 474.042 301.669 473.826 301.993 473.718Z" fill="#023A59"/>
<path d="M306.718 459.029C308.426 458.57 310.21 458.469 311.958 458.734C313.706 458.999 315.381 459.623 316.875 460.568C319.569 462.253 321.514 464.908 322.308 467.984C322.308 468.08 322.164 468.129 322.128 467.984C320.865 465.052 318.685 462.608 315.915 461.019C313.146 459.431 309.935 458.783 306.766 459.174C306.753 459.169 306.74 459.161 306.73 459.15C306.719 459.14 306.712 459.127 306.707 459.113C306.702 459.099 306.701 459.085 306.703 459.07C306.705 459.056 306.71 459.042 306.718 459.029Z" fill="#023A59"/>
<path d="M330.361 438.752C336.527 437.177 344.22 437.634 349.28 441.769C349.472 441.937 349.28 442.202 349.04 442.154C342.948 440.624 336.71 439.75 330.433 439.545C330.341 439.533 330.256 439.49 330.192 439.423C330.129 439.356 330.089 439.269 330.081 439.177C330.072 439.085 330.096 438.993 330.146 438.916C330.197 438.838 330.273 438.781 330.361 438.752Z" fill="#023A59"/>
<path d="M326.034 441.769C332.2 440.194 339.893 440.651 344.953 444.786C345.145 444.942 344.953 445.218 344.713 445.17C338.624 443.646 332.391 442.775 326.118 442.574C326.065 442.579 326.012 442.574 325.961 442.559C325.91 442.544 325.862 442.519 325.821 442.486C325.779 442.452 325.745 442.411 325.72 442.364C325.694 442.317 325.679 442.266 325.673 442.213C325.668 442.16 325.672 442.107 325.688 442.056C325.703 442.005 325.728 441.958 325.761 441.916C325.795 441.875 325.836 441.841 325.883 441.815C325.93 441.79 325.981 441.774 326.034 441.769Z" fill="#023A59"/>
<path d="M321.706 444.774C327.872 443.2 335.565 443.657 340.625 447.791C340.818 447.948 340.625 448.224 340.385 448.176C334.298 446.642 328.064 445.767 321.79 445.568C321.698 445.557 321.612 445.515 321.546 445.449C321.481 445.384 321.44 445.297 321.43 445.205C321.42 445.112 321.442 445.019 321.492 444.941C321.543 444.863 321.618 444.804 321.706 444.774Z" fill="#023A59"/>
<path d="M317.392 447.791C323.546 446.217 331.238 446.674 336.299 450.796C336.491 450.965 336.299 451.241 336.058 451.193C329.971 449.665 323.737 448.79 317.464 448.585C317.358 448.594 317.254 448.562 317.173 448.494C317.091 448.426 317.04 448.329 317.031 448.224C317.021 448.119 317.054 448.014 317.122 447.933C317.189 447.852 317.286 447.801 317.392 447.791Z" fill="#023A59"/>
<path d="M387.696 437.934C394.643 436.287 397.216 447.069 390.268 448.752C383.321 450.435 380.748 439.581 387.696 437.934Z" fill="#023A59"/>
<path d="M322.379 432.814C326.754 436.312 332.488 437.802 337.62 439.785C337.738 439.819 337.862 439.825 337.983 439.802C338.103 439.779 338.217 439.728 338.314 439.653C338.411 439.578 338.489 439.482 338.542 439.371C338.595 439.26 338.621 439.139 338.618 439.016C338.644 439.016 338.669 439.01 338.692 438.998C338.714 438.985 338.734 438.968 338.748 438.946C338.762 438.925 338.771 438.9 338.773 438.875C338.776 438.849 338.772 438.823 338.762 438.8C336.946 433.246 333.695 428.27 329.339 424.376C326.766 422.14 322.211 420.553 319.723 423.907C317.343 427.032 319.831 430.77 322.379 432.814ZM320.865 427.753C319.855 420.878 327.175 424.592 329.002 426.311C330.172 427.438 331.264 428.643 332.271 429.917C334.304 432.593 336.202 435.369 337.957 438.235C335.493 437.105 332.957 436.191 330.456 435.158C327.427 433.944 321.417 431.552 320.865 427.753Z" fill="#023A59"/>
<path d="M359.774 429.569C358.319 425.65 353.499 425.879 350.398 427.297C345.114 429.812 340.587 433.676 337.273 438.5C337.258 438.521 337.249 438.545 337.246 438.571C337.242 438.596 337.245 438.622 337.253 438.646C337.261 438.671 337.274 438.693 337.292 438.711C337.311 438.73 337.332 438.744 337.357 438.752C337.319 438.868 337.309 438.992 337.328 439.113C337.347 439.234 337.394 439.349 337.465 439.448C337.537 439.547 337.63 439.629 337.739 439.685C337.847 439.742 337.968 439.772 338.09 439.774C343.571 439.317 349.497 439.509 354.677 437.37C357.706 436.144 361.156 433.271 359.774 429.569ZM346.263 437.382C343.571 437.67 340.879 437.827 338.198 438.211C340.693 435.957 343.3 433.83 346.011 431.841C347.332 430.885 348.722 430.029 350.17 429.28C352.406 428.15 360.471 426.66 357.562 432.97C355.964 436.444 349.473 437.033 346.263 437.382Z" fill="#023A59"/>
<path d="M329.737 430.458L393.118 413.486C393.118 413.486 337.417 297.987 341.913 291.628C344.161 288.455 403.563 285.774 421.99 269.175C445.921 247.623 428.504 216.287 428.504 216.287H362.082C362.082 216.287 363.284 230.146 360.76 232.31C359.101 233.752 280.227 242.755 272.329 269.704C262.653 302.746 329.737 430.458 329.737 430.458Z" fill="#023A59"/>
<path d="M328.63 421.167C330.312 420.386 332.047 419.727 333.823 419.195C335.662 418.558 337.513 417.921 339.352 417.308C342.958 416.106 346.66 414.976 350.338 413.919C357.754 411.779 365.171 409.688 372.647 407.74C376.542 406.731 384.871 404.531 385.4 404.603C385.641 404.603 385.701 405.06 385.484 405.144C378.272 407.765 370.94 410.012 363.62 412.296C356.3 414.58 348.98 416.804 341.564 418.715C339.508 419.244 337.441 419.724 335.385 420.229C333.235 420.865 331.041 421.347 328.822 421.672C328.63 421.684 328.39 421.275 328.63 421.167Z" fill="#455A64"/>
<path d="M330.397 286.459C331.707 285.257 333.703 285.089 335.361 284.752L363.957 279.103C372.876 277.336 381.854 275.725 390.725 273.73C398.069 272.083 405.522 269.944 411.796 265.737C417.936 261.603 422.385 255.4 424.333 248.26C426.364 241.156 426.292 233.583 425.379 226.311C425.15 224.532 424.766 222.765 424.381 221.01C424.381 220.878 424.573 220.83 424.597 221.01C427.434 234.545 428.119 250.339 418.251 261.482C413.443 266.915 406.7 270.232 399.8 272.444C391.999 274.956 383.826 276.278 375.76 277.865L347.165 283.514C342.573 284.416 337.91 285.161 333.366 286.255C332.443 286.401 331.585 286.819 330.902 287.457C330.585 287.948 330.392 288.508 330.339 289.09C330.287 289.672 330.377 290.259 330.601 290.798C331.13 293.034 331.803 295.258 332.513 297.445C338.282 315.163 378.693 399.05 379.787 400.985C379.907 401.189 379.583 401.357 379.462 401.153C370.207 385.744 340.085 320.98 333.787 304.248C332.132 299.966 330.754 295.582 329.664 291.123C329.279 289.512 329.039 287.709 330.397 286.459Z" fill="#455A64"/>
<path d="M139.665 479.596C142.814 480.858 237.351 485.69 240.981 483.635C241.414 483.418 242.027 474.872 242.676 463.201L243.157 452.167C243.325 448.44 291.994 394.195 291.994 394.195L224.141 390.096L182.648 450.784C182.648 450.784 169.583 455.412 158.176 460.1C151.108 463.009 145.002 465.593 143.524 466.615C139.918 469.271 136.504 478.37 139.665 479.596Z" fill="#EB9481"/>
<path d="M255.561 435.856C248.493 444.27 243.216 450.917 243.168 452.143L242.675 463.177C242.026 474.872 241.413 483.419 240.981 483.611C237.375 485.666 142.814 480.834 139.653 479.584C136.491 478.334 139.845 469.247 143.571 466.591C145.001 465.581 151.12 462.985 158.151 460.064C169.546 455.388 182.612 450.76 182.612 450.76L194.632 433.235L255.561 435.856Z" fill="#EBEBEB"/>
<path d="M139.244 479.933C142.501 481.207 237.17 485.799 240.896 483.695C242.315 482.902 244.502 468.382 243.925 452.179L182.888 449.282C182.888 449.282 147.033 463.802 143.222 466.543C139.412 469.283 135.998 478.635 139.244 479.933Z" fill="#46B2C8"/>
<path d="M140.795 476.23C156.685 476.603 220.727 479.644 236.401 481.231C236.533 481.231 236.533 481.327 236.401 481.327C220.643 481.327 156.625 477.721 140.783 476.519C140.446 476.447 140.458 476.23 140.795 476.23Z" fill="#023A59"/>
<path d="M149.449 463.44C151.218 463.478 152.959 463.883 154.563 464.63C156.167 465.377 157.597 466.45 158.764 467.78C160.881 470.15 162 473.246 161.889 476.422C161.889 476.518 161.709 476.506 161.697 476.422C161.311 473.254 159.909 470.297 157.701 467.994C155.492 465.69 152.597 464.164 149.449 463.645C149.422 463.645 149.396 463.634 149.377 463.615C149.357 463.596 149.347 463.57 149.347 463.543C149.347 463.516 149.357 463.49 149.377 463.47C149.396 463.451 149.422 463.44 149.449 463.44Z" fill="#023A59"/>
<path d="M177.841 450.628C184.187 450.844 191.447 453.453 195.137 458.838C195.282 459.042 194.981 459.246 194.801 459.138C189.387 455.959 183.649 453.368 177.685 451.409C177.6 451.371 177.531 451.306 177.489 451.224C177.446 451.141 177.433 451.047 177.451 450.956C177.469 450.866 177.518 450.784 177.589 450.724C177.659 450.664 177.748 450.63 177.841 450.628Z" fill="#023A59"/>
<path d="M172.839 452.298C179.198 452.526 186.446 455.122 190.148 460.507C190.28 460.712 189.992 460.916 189.8 460.808C184.39 457.629 178.656 455.038 172.695 453.079C172.592 453.06 172.5 453 172.44 452.914C172.38 452.827 172.358 452.72 172.377 452.616C172.396 452.513 172.455 452.421 172.542 452.361C172.629 452.301 172.736 452.278 172.839 452.298Z" fill="#023A59"/>
<path d="M167.84 453.982C174.198 454.198 181.458 456.794 185.148 462.179C185.293 462.395 184.992 462.588 184.812 462.492C179.401 459.304 173.662 456.709 167.695 454.751C167.607 454.719 167.533 454.656 167.487 454.575C167.44 454.493 167.424 454.397 167.441 454.305C167.459 454.213 167.508 454.129 167.581 454.07C167.654 454.011 167.746 453.98 167.84 453.982Z" fill="#023A59"/>
<path d="M162.839 455.652C169.198 455.869 176.458 458.465 180.148 463.862C180.292 464.066 179.992 464.271 179.811 464.162C174.417 460.983 168.699 458.388 162.755 456.422C162.67 456.392 162.597 456.335 162.549 456.259C162.501 456.183 162.48 456.093 162.49 456.003C162.499 455.914 162.539 455.83 162.603 455.767C162.666 455.703 162.75 455.662 162.839 455.652Z" fill="#023A59"/>
<path d="M233.094 465.953C240.222 466.313 239.657 477.396 232.518 477.023C225.378 476.65 225.955 465.58 233.094 465.953Z" fill="#023A59"/>
<path d="M171.843 442.682C175.064 447.274 180.149 450.303 184.524 453.657C184.628 453.728 184.748 453.774 184.873 453.789C184.999 453.804 185.126 453.788 185.245 453.744C185.363 453.699 185.468 453.626 185.552 453.531C185.636 453.436 185.696 453.323 185.726 453.2C185.751 453.205 185.776 453.205 185.801 453.199C185.826 453.193 185.849 453.182 185.869 453.165C185.889 453.149 185.904 453.129 185.915 453.105C185.925 453.082 185.931 453.057 185.93 453.032C185.726 447.197 183.993 441.519 180.906 436.564C179.067 433.703 175.136 430.891 171.795 433.403C168.453 435.915 169.968 440.002 171.843 442.682ZM171.843 437.406C172.816 430.53 178.79 436.132 180.064 438.307C180.87 439.719 181.577 441.185 182.18 442.694C183.383 445.845 184.426 449.055 185.305 452.31C183.262 450.531 181.074 448.945 178.971 447.25C176.422 445.195 171.278 441.192 171.807 437.406H171.843Z" fill="#023A59"/>
<path d="M208.646 450.075C208.346 445.904 203.658 444.774 200.233 445.267C194.455 446.203 189.026 448.64 184.486 452.335C184.466 452.35 184.45 452.37 184.439 452.393C184.428 452.416 184.422 452.441 184.422 452.467C184.422 452.492 184.428 452.517 184.439 452.54C184.45 452.563 184.466 452.583 184.486 452.599C184.412 452.7 184.363 452.818 184.344 452.942C184.325 453.066 184.337 453.193 184.378 453.312C184.42 453.43 184.49 453.537 184.582 453.622C184.674 453.707 184.786 453.769 184.907 453.801C190.304 454.919 195.929 456.77 201.495 456.205C204.824 455.796 208.923 454.017 208.646 450.075ZM193.489 453.777C190.821 453.296 188.189 452.683 185.508 452.311C188.537 450.845 191.638 449.533 194.8 448.38C196.335 447.844 197.905 447.414 199.499 447.094C201.975 446.637 210.137 447.479 205.569 452.719C203.057 455.604 196.663 454.354 193.489 453.777Z" fill="#023A59"/>
<path d="M179.751 438.067L255.561 447.382C255.561 447.382 330.529 357.69 336.587 351.716C355.362 333.205 422.674 301.232 442.759 271.543C460.789 244.847 442.531 216.323 442.531 216.323H368.512C370.409 224.209 372.933 231.93 376.06 239.414C376.06 239.414 314.578 285.702 281.812 318.745C260.693 340.056 179.751 438.067 179.751 438.067Z" fill="#023A59"/>
<path d="M362.898 234.63C365.061 235.046 367.181 235.657 369.233 236.457C371.372 237.202 373.488 238.068 375.567 238.993C379.641 240.867 383.609 242.961 387.455 245.268C387.575 245.34 387.455 245.508 387.347 245.448C383.284 243.489 379.101 241.746 374.906 240.075L368.896 237.671C366.815 236.949 364.773 236.118 362.778 235.183C362.478 235.111 362.61 234.63 362.898 234.63Z" fill="#455A64"/>
<path d="M366.793 216.299C367.743 219.653 368.584 223.03 369.642 226.348C370.135 227.862 370.616 229.413 371.241 230.891C371.77 232.093 372.551 233.536 374.017 233.776C375.7 234.053 376.145 232.574 375.964 231.228C375.71 229.681 375.377 228.149 374.967 226.636C374.57 224.894 372.563 216.431 372.563 216.383C372.563 216.335 372.563 216.227 372.647 216.131C372.667 216.113 372.692 216.103 372.719 216.103C372.746 216.103 372.771 216.113 372.791 216.131C373.116 216.299 375.195 222.802 375.628 224.413C376.061 226.023 376.529 227.646 376.974 229.221C377.432 230.41 377.585 231.695 377.419 232.959C377.282 233.56 376.956 234.102 376.489 234.504C376.021 234.906 375.437 235.148 374.823 235.195C374.883 235.303 374.955 235.399 375.015 235.519C375.171 235.844 375.291 236.192 375.424 236.529C375.556 236.865 375.688 237.226 375.808 237.575C375.856 237.744 375.892 237.917 375.916 238.091C375.916 238.296 375.916 238.488 375.916 238.68C375.943 238.749 375.942 238.825 375.913 238.893C375.884 238.961 375.829 239.014 375.76 239.041C375.692 239.068 375.615 239.067 375.547 239.038C375.48 239.008 375.427 238.953 375.4 238.885C375.303 238.716 375.171 238.584 375.063 238.416C374.96 238.241 374.875 238.056 374.811 237.863C374.69 237.526 374.582 237.19 374.486 236.853C374.39 236.517 374.27 236.168 374.198 235.832C374.158 235.625 374.13 235.416 374.113 235.207C373.406 235.164 372.724 234.927 372.142 234.521C371.169 233.735 370.44 232.689 370.039 231.504C369.486 230.11 369.053 228.668 368.608 227.237C367.47 223.711 366.646 220.091 366.144 216.419C366.128 216.333 366.147 216.245 366.197 216.172C366.246 216.1 366.323 216.051 366.409 216.035C366.495 216.019 366.584 216.038 366.656 216.087C366.728 216.137 366.777 216.213 366.793 216.299Z" fill="#455A64"/>
<path d="M411.015 223.259C411.375 224.918 411.615 226.601 412.048 228.26C412.481 229.918 412.962 231.481 413.551 233.068C414.07 234.596 414.807 236.041 415.738 237.359C416.699 238.6 417.837 239.694 419.116 240.604C421.555 242.424 424.275 243.833 427.169 244.775C428.624 245.271 430.11 245.673 431.617 245.977C432.398 246.121 433.179 246.241 434.021 246.314C434.672 246.319 435.317 246.45 435.92 246.698C435.977 246.732 436.025 246.781 436.057 246.839C436.09 246.897 436.108 246.962 436.108 247.029C436.108 247.095 436.09 247.161 436.057 247.219C436.025 247.277 435.977 247.325 435.92 247.359C434.792 247.732 433.587 247.806 432.422 247.576C428.572 247.301 424.834 246.163 421.484 244.246C419.226 243.051 417.192 241.473 415.474 239.582C413.839 237.591 412.684 235.251 412.096 232.743C411.23 229.689 410.789 226.53 410.786 223.356C410.794 223.334 410.806 223.314 410.822 223.297C410.838 223.28 410.858 223.266 410.879 223.257C410.901 223.248 410.924 223.244 410.947 223.244C410.97 223.245 410.993 223.25 411.015 223.259Z" fill="#455A64"/>
<path d="M196.41 426.948C198.457 426.896 200.505 426.976 202.541 427.189C204.692 427.333 206.832 427.465 208.971 427.633C213.19 427.982 217.385 428.367 221.592 428.835C230.006 429.797 238.516 430.795 246.942 431.96C251.342 432.573 260.777 433.836 261.282 434.112C261.333 434.146 261.372 434.194 261.393 434.251C261.414 434.308 261.417 434.37 261.401 434.429C261.385 434.487 261.351 434.539 261.304 434.578C261.257 434.616 261.198 434.638 261.138 434.641C252.724 434.196 244.31 433.379 235.896 432.586C227.482 431.792 219.068 430.963 210.654 429.797C208.346 429.472 206.038 429.088 203.719 428.739C201.257 428.48 198.816 428.059 196.41 427.477C196.182 427.381 196.134 426.948 196.41 426.948Z" fill="#455A64"/>
<path d="M359.606 334.394C355.675 336.918 351.877 339.635 348.066 342.327C344.429 344.696 340.937 347.281 337.609 350.068C335.969 351.612 334.423 353.254 332.981 354.984L328.462 360.213C325.445 363.687 322.452 367.197 319.483 370.718C317.8 372.698 316.13 374.701 314.471 376.728C312.74 378.808 311.129 380.996 309.386 383.075C309.366 383.101 309.355 383.134 309.358 383.167C309.36 383.2 309.375 383.231 309.399 383.254C309.423 383.277 309.455 383.289 309.489 383.29C309.522 383.29 309.554 383.278 309.579 383.255C312.656 379.781 315.925 376.452 319.002 372.966C322.079 369.48 325.157 365.995 328.198 362.461C331.239 358.927 333.955 355.525 337.08 352.292C340.276 349.27 343.745 346.55 347.441 344.166C351.648 341.161 355.855 338.156 359.978 335.019C360.327 334.755 360.002 334.178 359.606 334.394Z" fill="#455A64"/>
<path d="M374.871 239.93C362.226 248.801 349.148 258.717 337.261 268.562C325.373 278.406 313.605 288.455 302.114 298.792C298.909 301.677 295.704 304.602 292.498 307.566C289.301 310.547 286.176 314.286 282.979 317.267C282.81 317.423 283.075 317.675 283.243 317.519C289.025 312.338 294.999 306.701 300.852 301.605C306.706 296.508 312.512 291.508 318.365 286.496C330.129 276.423 342.041 266.522 354.101 256.794C360.784 251.373 368.525 245.892 375.135 240.303C375.388 240.123 375.087 239.762 374.871 239.93Z" fill="#455A64"/>
<path d="M440.283 225.013C439.562 222.886 438.793 220.77 437.999 218.655C437.999 218.535 437.759 218.655 437.807 218.715C440.788 227.514 443.817 236.529 444.154 245.904C444.362 250.394 443.71 254.882 442.23 259.126C440.685 263.182 438.394 266.912 435.475 270.124C429.586 276.771 422.097 282.012 415.041 287.313C407.349 293.074 399.532 298.684 391.591 304.141C383.681 309.574 375.568 314.754 367.37 319.767C359.173 324.779 350.879 329.298 342.73 334.19C338.778 336.525 335.08 339.264 331.695 342.364C328.282 345.561 325.229 349.107 322.151 352.629C315.564 360.154 309.042 367.734 302.583 375.371C289.609 390.596 276.896 406.05 264.444 421.732C262.921 423.639 261.399 425.558 259.876 427.489C259.804 427.585 259.876 427.718 260.008 427.621C272.83 411.923 285.791 396.338 298.893 380.864C305.4 373.171 311.943 365.518 318.521 357.906C324.832 350.622 330.902 342.893 338.955 337.472C342.838 334.828 346.985 332.58 351.059 330.26C355.33 327.856 359.561 325.38 363.752 322.832C372.11 317.807 380.332 312.599 388.417 307.206C396.459 301.821 404.392 296.304 412.181 290.546C416.059 287.677 419.913 284.753 423.744 281.772C427.057 279.266 430.231 276.581 433.252 273.73C436.239 270.906 438.806 267.668 440.872 264.114C442.951 260.356 444.239 256.212 444.659 251.938C445.572 242.767 443.18 233.596 440.283 225.013Z" fill="#455A64"/>
<path d="M356.54 229.329C357.862 231.853 450.295 253.224 450.944 252.804C452.555 251.602 457.856 166.957 433.467 129.095C429.176 122.424 418.743 121.186 413.37 122.58C410.69 123.277 399.667 132.665 394.619 142.052C389.571 151.44 355.723 227.718 356.54 229.329Z" fill="#46B2C8"/>
<g opacity="0.1">
<path d="M430.041 125.597H408.754C409.595 124.9 410.377 124.311 411.062 123.842H426.868C427.991 124.3 429.056 124.889 430.041 125.597Z" fill="black"/>
<path d="M434.849 131.355H402.624C403.189 130.742 403.766 130.153 404.331 129.6H433.78C434.152 130.177 434.501 130.754 434.849 131.355Z" fill="black"/>
<path d="M437.903 137.123H397.78C398.213 136.522 398.67 135.921 399.126 135.368H437.037C437.338 135.945 437.614 136.534 437.903 137.123Z" fill="black"/>
<path d="M440.416 142.881H394.199L394.62 142.051C394.788 141.751 394.956 141.438 395.137 141.138H439.683C439.923 141.715 440.163 142.292 440.416 142.881Z" fill="black"/>
<path d="M442.482 148.651H391.397C391.698 148.026 391.974 147.449 392.227 146.896H441.881C442.085 147.473 442.29 148.086 442.482 148.651Z" fill="black"/>
<path d="M444.261 154.421H388.729L389.534 152.666H443.744C443.924 153.243 444.092 153.832 444.261 154.421Z" fill="black"/>
<path d="M445.777 160.178H386.098C386.362 159.577 386.627 158.976 386.891 158.423H445.344L445.777 160.178Z" fill="black"/>
<path d="M447.086 165.946H383.477C383.741 165.357 384.017 164.744 384.27 164.191H446.701C446.834 164.768 446.966 165.357 447.086 165.946Z" fill="black"/>
<path d="M448.191 171.717H380.88C381.144 171.128 381.397 170.515 381.661 169.962H447.867C447.987 170.539 448.095 171.128 448.191 171.717Z" fill="black"/>
<path d="M449.166 177.475H378.32C378.585 176.886 378.837 176.273 379.102 175.72H448.829L449.166 177.475Z" fill="black"/>
<path d="M450.03 183.244H375.759C376.011 182.667 376.276 182.042 376.528 181.489H449.741C449.826 182.078 449.898 182.655 450.03 183.244Z" fill="black"/>
<path d="M450.668 188.954H373.224C373.476 188.365 373.728 187.752 373.993 187.199H450.464C450.536 187.836 450.596 188.413 450.668 188.954Z" fill="black"/>
<path d="M451.233 194.772H370.699C370.94 194.195 371.204 193.57 371.456 193.017H451.064C451.125 193.606 451.233 194.183 451.233 194.772Z" fill="black"/>
<path d="M451.689 200.541H368.187C368.427 199.964 368.691 199.339 368.944 198.786H451.557C451.605 199.375 451.653 199.952 451.689 200.541Z" fill="black"/>
<path d="M452.05 206.298H365.699L366.444 204.543H451.954C451.99 205.132 452.014 205.781 452.05 206.298Z" fill="black"/>
<path d="M452.303 212.067H363.235L363.981 210.312H452.243C452.267 210.901 452.291 211.49 452.303 212.067Z" fill="black"/>
<path d="M452.436 217.802H360.82L361.554 216.047H452.436V217.802Z" fill="black"/>
<path d="M452.555 223.595H358.487C358.692 223.042 358.932 222.453 359.172 221.84H452.543C452.555 222.429 452.555 223.018 452.555 223.595Z" fill="black"/>
<path d="M452.556 227.609C452.556 228.198 452.556 228.811 452.556 229.364H356.564C356.601 228.769 356.748 228.187 356.997 227.645L452.556 227.609Z" fill="black"/>
<path d="M452.435 233.427C452.435 234.028 452.435 234.629 452.435 235.182H375.507C373.103 234.569 370.928 233.98 368.896 233.427H452.435Z" fill="black"/>
<path d="M452.291 239.137C452.291 239.738 452.291 240.339 452.219 240.892H398.706C396.302 240.303 393.898 239.69 391.494 239.137H452.291Z" fill="black"/>
<path d="M451.978 244.895C451.978 245.508 451.894 246.097 451.846 246.649H422.998L415.485 244.895H451.978Z" fill="black"/>
<path d="M451.425 250.664C451.367 251.256 451.262 251.843 451.112 252.419H448.708C446.905 252.058 444.105 251.445 440.583 250.664H451.425Z" fill="black"/>
</g>
<path d="M429.296 148.567C445.92 147.221 473.47 141.259 488.458 132.941C497.449 127.917 498.808 121.174 499.276 116.462C500.478 104.274 480.165 84.4888 469.491 77.1085C468.085 76.1349 466.041 83.2988 459.574 91.3401C454.105 98.1554 443.792 105.848 445.343 107.158C447.627 109.082 458.216 116.378 457.711 117.255C456.846 118.758 447.026 122.928 432.313 130.056C412.577 139.576 417.577 149.529 429.296 148.567Z" fill="#EB9481"/>
<path d="M473.025 143.867L444.514 121.942C444.514 121.942 425.222 131.27 420.138 136.967C415.053 142.665 417.95 149.648 432.086 151.031C448.288 152.605 473.025 143.867 473.025 143.867Z" fill="#46B2C8"/>
<path d="M465.848 144.553C455.031 135.021 443.431 125.886 441.256 124.42C441.16 124.359 441.063 124.504 441.136 124.576C448.925 131.776 457.141 138.499 465.74 144.709C465.824 144.769 465.933 144.625 465.848 144.553Z" fill="#023A59"/>
<path d="M448.576 148.807C446.425 149.174 444.377 149.994 442.566 151.211C441.706 151.853 440.935 152.604 440.271 153.447C439.927 153.851 439.621 154.285 439.357 154.745C439.088 155.18 438.859 155.639 438.672 156.115C438.672 156.223 438.792 156.283 438.852 156.211C439.201 155.863 439.489 155.454 439.85 155.105C440.21 154.757 440.535 154.384 440.908 154.048C441.664 153.334 442.467 152.672 443.312 152.064C444.902 150.76 446.714 149.75 448.66 149.083C448.679 149.078 448.695 149.069 448.71 149.057C448.725 149.045 448.737 149.03 448.746 149.013C448.755 148.997 448.76 148.978 448.762 148.959C448.764 148.94 448.762 148.921 448.757 148.903C448.751 148.885 448.742 148.868 448.73 148.853C448.718 148.839 448.703 148.827 448.686 148.818C448.67 148.809 448.651 148.803 448.632 148.801C448.614 148.8 448.594 148.802 448.576 148.807Z" fill="#023A59"/>
<g opacity="0.1">
<path d="M449.261 125.597H437.386C438.588 124.948 439.79 124.395 440.727 123.842H446.978L449.261 125.597Z" fill="black"/>
<path d="M456.749 131.356H427.433C428.346 130.767 429.308 130.154 430.269 129.601H454.465L456.749 131.356Z" fill="black"/>
<path d="M464.249 137.124H419.979L420.112 136.968C420.635 136.397 421.198 135.863 421.795 135.369H461.953L464.249 137.124Z" fill="black"/>
<path d="M471.738 142.882H417.841C417.775 142.3 417.799 141.712 417.913 141.139H469.478L471.738 142.882Z" fill="black"/>
<path d="M463.083 146.885C460.944 147.462 458.552 148.087 456.016 148.64H422.672C421.721 148.173 420.836 147.583 420.04 146.885H463.083Z" fill="black"/>
</g>
<path d="M410.894 138.218C415.702 140.213 425.426 134.059 429.814 128.482C430.102 128.097 431.172 110.981 431.737 107.603C431.845 106.918 409.728 109.214 409.728 109.214C410.232 113.629 410.192 118.09 409.608 122.496C409.524 122.989 406.291 136.283 410.894 138.218Z" fill="#EB9481"/>
<path d="M409.235 123.854C409.235 123.926 409.235 123.998 409.163 124.082H409.271C409.942 124.294 410.629 124.447 411.327 124.539C422.866 126.198 429.092 112.711 431.075 107.459C427.469 107.351 409.728 109.19 409.728 109.19C410.232 113.605 410.192 118.066 409.608 122.472C409.608 122.64 409.548 122.796 409.524 122.94C409.456 123.253 409.36 123.559 409.235 123.854Z" fill="#023A59"/>
<path d="M406.831 69.8008C406.831 69.8008 399.619 72.7096 398.225 79.9937C396.831 87.2778 398.417 94.9465 399.042 95.3311C399.667 95.7157 406.831 69.8008 406.831 69.8008Z" fill="#023A59"/>
<path d="M434.635 80.6904C436.93 88.299 432.88 110.247 427.423 115.14C419.574 122.219 406.748 122.868 400.738 113.433C394.909 104.298 400.738 75.7863 406.748 71.363C415.691 64.8121 431.221 69.4638 434.635 80.6904Z" fill="#EB9481"/>
<path d="M399.211 89.0563C398.751 91.071 398.47 93.1223 398.37 95.1865C398.226 97.314 398.202 99.4415 398.214 101.569C398.214 101.689 398.406 101.677 398.406 101.569C398.406 99.4776 398.55 97.3861 398.73 95.3066C398.911 93.2272 399.247 91.1598 399.356 89.0803C399.368 88.9842 399.235 88.9842 399.211 89.0563Z" fill="#023A59"/>
<path d="M412.769 93.9958C412.769 93.9357 412.877 94.0799 412.865 94.14C412.552 95.6185 412.444 97.3494 413.694 98.0826C413.694 98.0826 413.694 98.1787 413.694 98.1667C412.096 97.6018 412.264 95.294 412.769 93.9958Z" fill="#023A59"/>
<path d="M414.404 92.6392C416.808 92.8916 416.135 97.6876 413.899 97.4472C411.663 97.2068 412.373 92.4349 414.404 92.6392Z" fill="#023A59"/>
<path d="M404.548 93.0228C404.548 92.9627 404.416 93.0228 404.416 93.131C404.248 94.6335 403.815 96.3163 402.396 96.6288V96.7129C404.079 96.7009 404.632 94.4652 404.548 93.0228Z" fill="#023A59"/>
<path d="M403.429 91.2803C401.025 90.7634 400.208 95.5353 402.396 96.0161C404.583 96.4969 405.413 91.713 403.429 91.2803Z" fill="#023A59"/>
<path d="M416.604 90.7024C415.999 90.4316 415.409 90.1266 414.837 89.7889C414.169 89.5527 413.595 89.1055 413.203 88.5147C413.12 88.3051 413.108 88.0742 413.169 87.8572C413.23 87.6402 413.36 87.449 413.539 87.3128C413.94 87.098 414.39 86.9937 414.844 87.0106C415.299 87.0275 415.74 87.1649 416.124 87.4089C416.972 87.7819 417.65 88.4596 418.023 89.3081C418.094 89.505 418.107 89.7183 418.061 89.9226C418.015 90.1269 417.91 90.3136 417.761 90.4604C417.612 90.6073 417.423 90.7082 417.218 90.751C417.013 90.7939 416.8 90.777 416.604 90.7024Z" fill="#023A59"/>
<path d="M401.952 88.6004C402.613 88.5599 403.271 88.4836 403.923 88.372C404.634 88.3885 405.33 88.1733 405.907 87.759C406.047 87.5943 406.132 87.3904 406.152 87.1752C406.171 86.9599 406.123 86.7439 406.015 86.557C405.722 86.2203 405.346 85.9665 404.924 85.821C404.502 85.6754 404.049 85.6432 403.611 85.7276C402.68 85.7762 401.802 86.1706 401.147 86.8334C401.023 86.9912 400.945 87.1798 400.922 87.3787C400.898 87.5777 400.929 87.7793 401.013 87.9616C401.096 88.1439 401.227 88.2999 401.393 88.4125C401.559 88.5252 401.752 88.5901 401.952 88.6004Z" fill="#023A59"/>
<path d="M412.649 107.987C412.241 108.288 411.82 108.721 411.267 108.697C410.715 108.602 410.188 108.398 409.717 108.096C409.717 108.096 409.62 108.096 409.644 108.156C409.815 108.481 410.07 108.753 410.384 108.943C410.697 109.134 411.057 109.236 411.423 109.237C411.744 109.195 412.044 109.058 412.286 108.844C412.528 108.63 412.701 108.348 412.782 108.035C412.77 107.999 412.698 107.951 412.649 107.987Z" fill="#023A59"/>
<path d="M411.7 103.312C411.24 103.85 410.674 104.288 410.037 104.596C409.399 104.904 408.705 105.077 407.997 105.103C407.384 105.13 406.769 105.074 406.17 104.934L405.822 104.838C405.715 104.817 405.61 104.785 405.509 104.742C405.43 104.72 405.361 104.67 405.315 104.602C405.269 104.534 405.248 104.451 405.257 104.369C405.251 104.321 405.251 104.273 405.257 104.225V104.093C405.377 102.891 405.738 101.208 405.738 101.208C405.293 101.364 403.021 102.026 403.141 101.437C403.993 96.2861 405.366 91.2358 407.24 86.3635C407.3 86.2073 407.553 86.2794 407.517 86.4357C406.747 91.2436 405.113 95.7992 404.307 100.571C405.117 100.32 405.959 100.186 406.807 100.174C406.964 100.247 406.062 103.504 406.038 104.033C406.963 104.261 407.924 104.299 408.863 104.146C409.803 103.994 410.703 103.652 411.507 103.143C411.7 103.095 411.808 103.215 411.7 103.312Z" fill="#023A59"/>
<path d="M406.927 104.441C407.438 105.347 408.175 106.105 409.066 106.641C409.562 106.923 410.134 107.04 410.701 106.978C411.903 106.833 412.119 105.776 412.023 104.778C411.978 104.266 411.869 103.761 411.699 103.275C410.272 104.161 408.601 104.57 406.927 104.441Z" fill="#023A59"/>
<path d="M409.067 106.64C409.563 106.922 410.135 107.04 410.702 106.977C411.904 106.833 412.12 105.775 412.024 104.777C411.394 104.711 410.759 104.859 410.223 105.197C409.687 105.534 409.28 106.043 409.067 106.64Z" fill="#FF98B9"/>
<path d="M432.854 98.4908C430.342 98.8514 428.707 91.2067 428.359 88.2979C428.046 85.7497 428.467 77.8646 428.431 77.3117C428.395 76.7588 416.892 82.5524 411.11 79.8359C405.328 77.1194 402.143 71.0493 402.456 68.5011C402.768 65.9529 411.29 60.7001 417.841 61.3853C424.392 62.0704 431.904 71.7104 431.904 71.7104C431.031 70.3344 430.267 68.8915 429.621 67.3952C429.777 67.1188 433.707 69.4506 434.02 72.5638C434.02 72.5638 433.767 68.6814 434.104 68.6573C434.441 68.6333 437.193 72.3715 436.075 74.6673C436.075 74.6673 439.333 78.5257 439.128 82.1677C438.924 85.8098 435.811 98.0701 432.854 98.4908Z" fill="#023A59"/>
<path d="M407.011 77.9023C408.654 79.1438 410.473 80.1324 412.408 80.8352C414.606 81.3883 416.906 81.3883 419.103 80.8352C421.307 80.3471 423.418 79.5069 425.354 78.347C427.061 77.3374 428.635 76.0392 430.426 75.1858C430.871 74.9694 431.256 75.6185 430.943 75.9551C427.651 79.3401 423.356 81.5741 418.695 82.3256C416.532 82.6782 414.316 82.4612 412.263 81.6961C410.21 80.931 408.391 79.6441 406.987 77.9624C406.987 77.9624 406.987 77.8783 407.011 77.9023Z" fill="#023A59"/>
<path d="M413.707 101.089C412.062 100.641 410.661 99.5606 409.809 98.0832C408.958 96.6059 408.726 94.8517 409.164 93.2037C409.476 92.0417 410.109 90.9908 410.989 90.1704C411.869 89.3501 412.962 88.7932 414.143 88.563C415.325 88.3329 416.547 88.4388 417.67 88.8687C418.794 89.2985 419.775 90.0351 420.501 90.9947C421.227 91.9543 421.67 93.0984 421.778 94.2968C421.886 95.4953 421.656 96.7001 421.113 97.7742C420.571 98.8483 419.738 99.7486 418.709 100.373C417.68 100.997 416.497 101.32 415.294 101.305C414.758 101.304 414.224 101.231 413.707 101.089ZM409.993 93.4201C409.705 94.485 409.74 95.6112 410.093 96.6564C410.445 97.7015 411.1 98.6187 411.974 99.2919C412.847 99.965 413.901 100.364 415.002 100.438C416.102 100.513 417.2 100.259 418.156 99.7093C419.113 99.1597 419.885 98.3389 420.375 97.3506C420.864 96.3623 421.05 95.251 420.908 94.1571C420.767 93.0632 420.304 92.0359 419.578 91.2051C418.853 90.3743 417.897 89.7773 416.832 89.4896C416.38 89.3735 415.917 89.3089 415.45 89.2973C414.212 89.2832 413.005 89.6804 412.017 90.4266C411.03 91.1727 410.318 92.2256 409.993 93.4201Z" fill="#46B2C8"/>
<path d="M400.245 99.2853C397.624 98.9367 395.869 95.7995 396.326 92.2777C396.502 90.6825 397.18 89.1843 398.261 87.9986C398.691 87.4577 399.253 87.0373 399.893 86.778C400.533 86.5188 401.23 86.4296 401.915 86.5191C402.599 86.6087 403.249 86.8739 403.801 87.289C404.353 87.7041 404.789 88.255 405.065 88.8881C405.797 90.3169 406.062 91.94 405.822 93.5277C405.389 96.8573 403.129 99.3454 400.665 99.3093L400.245 99.2853ZM398.886 88.5876C397.932 89.6474 397.335 90.9803 397.18 92.3979C396.783 95.4389 398.201 98.1434 400.353 98.4078C402.504 98.6723 404.572 96.4366 404.981 93.3835C405.187 91.9766 404.951 90.5404 404.307 89.2727C404.074 88.7738 403.724 88.3385 403.287 88.0037C402.849 87.6689 402.338 87.4445 401.795 87.3495H401.471C400.977 87.364 400.493 87.4816 400.047 87.6948C399.602 87.9081 399.207 88.2122 398.886 88.5876Z" fill="#46B2C8"/>
<path d="M409.283 93.9962L409.92 93.4072C409.055 92.4697 406.964 91.0874 405.185 92.5538L405.725 93.2149C407.324 91.8687 409.163 93.888 409.283 93.9962Z" fill="#46B2C8"/>
<path d="M437.494 99.3335L438.311 99.0451C438.167 98.6604 436.917 95.3429 435.054 94.778C433.191 94.213 421.736 93.8404 421.243 93.8164V94.6818C424.561 94.802 433.491 95.1987 434.826 95.6074C436.16 96.016 437.17 98.42 437.494 99.3335Z" fill="#46B2C8"/>
<path d="M429.897 98.5761C429.897 98.5761 435.018 91.5925 438.203 93.4316C441.388 95.2706 437.422 105.451 433.611 106.81C433.134 107.013 432.62 107.118 432.1 107.117C431.581 107.117 431.067 107.011 430.59 106.807C430.113 106.602 429.682 106.303 429.323 105.928C428.964 105.552 428.685 105.108 428.503 104.622L429.897 98.5761Z" fill="#EB9481"/>
<path d="M437.002 96.3271V96.4233C434.333 97.445 432.879 99.873 431.845 102.433C432.005 102.171 432.219 101.947 432.474 101.776C432.729 101.605 433.018 101.492 433.321 101.444C433.624 101.396 433.934 101.414 434.229 101.498C434.524 101.582 434.798 101.729 435.031 101.928C435.103 101.928 435.031 102.085 434.958 102.061C434.495 101.908 433.996 101.9 433.528 102.037C433.06 102.174 432.645 102.451 432.338 102.83C431.84 103.48 431.405 104.176 431.04 104.909C430.92 105.15 430.487 105.006 430.583 104.741C430.631 101.207 433.36 96.5916 437.002 96.3271Z" fill="#023A59"/>
<path d="M438.768 93.5153C438.406 93.2492 437.984 93.077 437.539 93.0141C437.095 92.9512 436.641 92.9995 436.22 93.1547C436.1 93.1547 436.087 93.2629 436.22 93.2268C436.726 93.0769 437.264 93.0769 437.77 93.2268C438.191 93.3591 439.381 93.8519 439.369 96.34C439.186 98.3051 438.644 100.22 437.77 101.989C437.77 102.049 437.842 102.11 437.878 102.049C438.46 100.942 438.927 99.778 439.273 98.5757C439.609 97.2295 440.054 94.6091 438.768 93.5153Z" fill="#023A59"/>
<path d="M431.605 130.141C430.751 131.09 429.994 132.088 429.092 132.99C428.185 133.905 427.23 134.771 426.232 135.586C424.3 137.167 422.205 138.537 419.981 139.673C417.684 141.04 415.01 141.638 412.349 141.379C411.142 141.174 410.014 140.644 409.087 139.845C408.159 139.047 407.466 138.011 407.084 136.848C405.966 133.843 406.723 130.646 407.456 127.496C407.456 127.388 407.312 127.34 407.276 127.496C406.447 130.73 405.822 133.386 406.387 136.427C406.572 137.614 407.05 138.736 407.778 139.691C408.507 140.646 409.462 141.404 410.558 141.896C415.882 144.108 421.556 140.274 425.498 136.992C426.652 136.028 427.748 134.997 428.78 133.903C429.884 132.79 430.889 131.584 431.785 130.297C431.821 130.153 431.677 130.057 431.605 130.141Z" fill="#023A59"/>
<path d="M475.598 246.89H44.6357V262.215H475.598V246.89Z" fill="#115766"/>
<path d="M475.598 256.229H44.6357V262.215H475.598V256.229Z" fill="#455A64"/>
<path d="M60.0946 477.251H53.9043L71.9342 262.215H87.7404L60.0946 477.251Z" fill="#455A64"/>
<path d="M87.7387 262.215L85.8876 276.603H70.7305L71.9325 262.215H87.7387Z" fill="#023A59"/>
<path d="M460.141 477.251H466.331L448.301 262.215H432.495L460.141 477.251Z" fill="#455A64"/>
<path d="M432.495 262.215L434.346 276.603H449.503L448.301 262.215H432.495Z" fill="#023A59"/>
<path d="M310.997 246.879H377.575V241.698L310.997 239.547V246.879Z" fill="#455A64"/>
<path d="M258.661 246.782H302.594C306.344 246.782 300.911 236.108 287.233 232.021C273.554 227.935 254.358 242.779 258.661 246.782Z" fill="#115766"/>
<path d="M275.899 246.783C275.184 244.537 274.224 242.376 273.038 240.34C272.451 239.345 271.767 238.41 270.994 237.551C270.196 236.685 269.332 235.881 268.41 235.147C269.6 235.497 270.702 236.095 271.644 236.902C272.598 237.711 273.411 238.674 274.048 239.751C274.689 240.82 275.179 241.973 275.502 243.177C275.839 244.347 275.973 245.567 275.899 246.783Z" fill="#023A59"/>
<path d="M270.694 236.625C268.386 238.127 266.078 239.474 263.915 241.024C262.832 241.775 261.811 242.611 260.862 243.524C259.888 244.427 259.135 245.541 258.662 246.782C258.692 245.355 259.224 243.985 260.165 242.911C261.037 241.814 262.066 240.85 263.218 240.051C264.355 239.255 265.562 238.563 266.824 237.983C268.062 237.394 269.359 236.939 270.694 236.625Z" fill="#023A59"/>
<path d="M227.145 226.12H333.918L316.946 146.632H210.161L227.145 226.12Z" fill="#455A64"/>
<path d="M223.203 226.12H329.976L312.992 146.632H206.219L223.203 226.12Z" fill="#115766"/>
<path d="M280.79 197.62H283.29L279.491 179.795H276.991L280.79 197.62Z" fill="#023A59"/>
<path d="M275.849 197.62H278.35L274.551 179.795H272.039L275.849 197.62Z" fill="#023A59"/>
<path d="M270.909 197.62H273.409L269.611 179.795H267.099L270.909 197.62Z" fill="#023A59"/>
<path d="M265.969 197.62H268.47L264.671 179.795H262.159L265.969 197.62Z" fill="#023A59"/>
<path d="M261.017 197.62H263.529L259.731 179.795H257.219L261.017 197.62Z" fill="#023A59"/>
<path d="M256.077 197.62H258.589L254.778 179.795H252.278L256.077 197.62Z" fill="#023A59"/>
<path d="M251.137 197.62H253.649L249.839 179.795H247.339L251.137 197.62Z" fill="#023A59"/>
<path d="M253.397 246.89H305.913V242.803L253.397 241.108V246.89Z" fill="#455A64"/>
<path d="M239.118 246.878H267.317L284.301 202.332H256.102L239.118 246.878Z" fill="#455A64"/>
<path d="M234.478 246.878H262.676L279.648 202.332H251.462L234.478 246.878Z" fill="#023A59"/>
<path d="M229.345 82.7684C229.345 82.7684 222.855 135.163 212.037 146.955C199.127 161.09 189.764 158.975 184.547 166.319C179.342 159.011 169.967 161.09 157.045 146.943C146.227 135.151 139.761 82.7564 139.761 82.7564C168.104 69.0056 184.547 53.584 184.547 53.584C185.052 54.0768 201.435 69.2339 229.345 82.7684Z" fill="#46B2C8"/>
<path opacity="0.2" d="M184.547 53.608V166.319C179.342 159.011 169.967 161.09 157.045 146.943C146.227 135.151 139.761 82.7564 139.761 82.7564C168.104 69.0056 184.547 53.584 184.547 53.584V53.608Z" fill="black"/>
<path opacity="0.1" d="M229.345 82.7687C229.345 82.7687 222.854 135.164 212.036 146.955C199.127 161.091 189.764 158.975 184.547 166.319V53.6084C185.052 54.0772 201.435 69.2343 229.345 82.7687Z" fill="black"/>
<path d="M222.386 86.9875C222.386 86.9875 216.845 131.257 207.782 141.209C196.867 153.229 188.946 151.414 184.535 157.581C180.136 151.414 172.215 153.181 161.3 141.209C152.213 131.245 146.696 86.9875 146.696 86.9875C170.64 75.3643 184.535 62.3467 184.535 62.3467C184.535 62.3467 198.454 75.3643 222.386 86.9875Z" fill="#46B2C8"/>
<path d="M195.893 103.684H173.188V124.286H195.893V103.684Z" fill="white"/>
<path d="M193.623 110.03H191.315V100.835C191.242 99.0878 190.496 97.4368 189.234 96.2266C187.971 95.0165 186.291 94.3409 184.542 94.3409C182.793 94.3409 181.113 95.0165 179.85 96.2266C178.588 97.4368 177.842 99.0878 177.769 100.835V110.03H175.461V100.835C175.546 98.4835 176.541 96.2571 178.234 94.6239C179.928 92.9907 182.189 92.0781 184.542 92.0781C186.895 92.0781 189.156 92.9907 190.85 94.6239C192.543 96.2571 193.537 98.4835 193.623 100.835V110.03Z" fill="white"/>
<path d="M185.508 114.237L186.458 118.744H182.419L183.369 114.237C182.997 114.005 182.71 113.658 182.553 113.248C182.396 112.839 182.376 112.389 182.497 111.968C182.618 111.546 182.873 111.176 183.223 110.912C183.573 110.648 184 110.505 184.438 110.505C184.877 110.505 185.303 110.648 185.654 110.912C186.004 111.176 186.259 111.546 186.379 111.968C186.5 112.389 186.481 112.839 186.323 113.248C186.166 113.658 185.88 114.005 185.508 114.237Z" fill="#115766"/>
<path d="M110.385 227.285H44.6357V171.68L77.4982 150.802L110.385 171.68V227.285Z" fill="#46B2C8"/>
<path opacity="0.2" d="M110.385 227.285H44.6357V171.68L77.4982 150.802L110.385 171.68V227.285Z" fill="black"/>
<path d="M106.671 218.438H48.3379V143.565H91.6457L106.671 157.833V218.438Z" fill="#EBEBEB"/>
<path d="M91.6465 143.565L106.671 157.833H91.6465V143.565Z" fill="#DBDBDB"/>
<path d="M54.0361 158.05H86.4658V156.127H54.0361V158.05Z" fill="#DBDBDB"/>
<path d="M54.0361 162.905H86.4658V160.982H54.0361V162.905Z" fill="#DBDBDB"/>
<path d="M54.0361 167.749H86.4658V165.826H54.0361V167.749Z" fill="#DBDBDB"/>
<path d="M54.035 172.618H101.55V170.695H54.035V172.618Z" fill="#DBDBDB"/>
<path d="M54.035 177.462H101.55V175.539H54.035V177.462Z" fill="#DBDBDB"/>
<path d="M54.035 182.317H101.55V180.394H54.035V182.317Z" fill="#DBDBDB"/>
<path d="M54.035 187.162H101.55V185.239H54.035V187.162Z" fill="#DBDBDB"/>
<path d="M54.035 192.03H101.55V190.107H54.035V192.03Z" fill="#DBDBDB"/>
<path d="M54.035 196.874H101.55V194.951H54.035V196.874Z" fill="#DBDBDB"/>
<path d="M54.035 201.73H101.55V199.807H54.035V201.73Z" fill="#DBDBDB"/>
<path d="M54.035 206.573H101.55V204.65H54.035V206.573Z" fill="#DBDBDB"/>
<path d="M54.035 211.43H101.55V209.507H54.035V211.43Z" fill="#DBDBDB"/>
<path d="M110.385 185.6V227.285H44.6357V185.6C47.4604 187.198 50.237 188.869 53.0497 190.516C55.8624 192.162 58.6149 193.845 61.3795 195.552C64.4646 197.427 67.5417 199.326 70.6108 201.25H70.719L70.6348 201.322L77.5343 205.637C79.8301 204.194 82.1259 202.74 84.4337 201.322L84.3496 201.25H84.4457C87.5228 199.338 90.5879 197.439 93.677 195.552C96.4416 193.861 99.2182 192.187 102.007 190.528C104.783 188.869 107.56 187.198 110.385 185.6Z" fill="#46B2C8"/>
<path d="M110.385 185.6C107.728 187.463 105.024 189.206 102.343 191.081C99.663 192.956 96.9465 194.687 94.2299 196.454C91.5134 198.221 88.5445 200.144 85.7078 201.971L85.4554 202.151L77.8829 206.959L77.4982 207.187L77.1376 206.959C74.6134 205.356 72.0933 203.754 69.5771 202.151C69.4846 202.102 69.3962 202.046 69.3126 201.983C66.4519 200.156 63.6152 198.377 60.7785 196.454C57.9418 194.53 55.3695 192.848 52.6771 191.093C49.9846 189.338 47.2921 187.487 44.6357 185.612C47.4604 187.21 50.237 188.881 53.0497 190.528C55.8624 192.174 58.6149 193.857 61.3795 195.564C64.4646 197.439 67.5417 199.338 70.6108 201.262L77.5102 205.577C79.806 204.134 82.1018 202.68 84.4097 201.262C87.4868 199.35 90.5519 197.451 93.641 195.564C96.4056 193.873 99.1822 192.199 101.971 190.54C104.783 188.869 107.56 187.198 110.385 185.6Z" fill="white"/>
<path d="M70.6949 201.188L70.6108 201.261L69.5771 202.138C67.9304 203.532 66.2355 204.867 64.5167 206.165C62.4252 207.763 60.2857 209.29 58.1341 210.804C55.9825 212.319 53.7949 213.785 51.5712 215.204C49.3475 216.622 47.1118 218.016 44.792 219.291C46.7873 217.548 48.8667 215.913 50.9582 214.326C53.0497 212.74 55.2013 211.189 57.3408 209.675C59.4803 208.16 61.692 206.694 63.9037 205.275C65.6706 204.073 67.5097 203.016 69.3126 201.97L70.5868 201.249L70.6949 201.188Z" fill="white"/>
<path d="M110.216 219.291C107.896 218.016 105.649 216.622 103.437 215.204C101.225 213.785 99.0496 212.295 96.874 210.804C94.6984 209.314 92.5829 207.763 90.4794 206.165C88.7726 204.867 87.0898 203.544 85.4551 202.15C85.0945 201.85 84.7459 201.561 84.4093 201.261L84.3252 201.188H84.4214L85.7075 201.922C87.5465 202.967 89.3135 204.085 91.1044 205.227C93.3281 206.646 95.5037 208.124 97.6673 209.626C99.8309 211.129 101.958 212.68 104.05 214.278C106.141 215.877 108.221 217.548 110.216 219.291Z" fill="white"/>
<path d="M110.216 237.945C116.191 237.945 121.034 233.102 121.034 227.128C121.034 221.153 116.191 216.31 110.216 216.31C104.242 216.31 99.3984 221.153 99.3984 227.128C99.3984 233.102 104.242 237.945 110.216 237.945Z" fill="#115766"/>
<path d="M115.577 224.399H104.855V234.136H115.577V224.399Z" fill="white"/>
<path d="M114.508 227.416H113.474V223.065C113.424 222.249 113.065 221.484 112.469 220.924C111.874 220.364 111.088 220.052 110.271 220.052C109.453 220.052 108.667 220.364 108.072 220.924C107.477 221.484 107.117 222.249 107.067 223.065V227.416H105.986V223.065C105.955 222.483 106.043 221.901 106.244 221.354C106.445 220.808 106.756 220.308 107.157 219.885C107.558 219.462 108.041 219.126 108.576 218.896C109.111 218.666 109.688 218.547 110.271 218.547C110.853 218.547 111.43 218.666 111.965 218.896C112.5 219.126 112.983 219.462 113.384 219.885C113.785 220.308 114.096 220.808 114.297 221.354C114.499 221.901 114.587 222.483 114.556 223.065L114.508 227.416Z" fill="white"/>
<path d="M110.672 229.388L111.129 231.515H109.218L109.663 229.388C109.528 229.301 109.417 229.181 109.339 229.041C109.262 228.9 109.22 228.743 109.218 228.582C109.214 228.413 109.255 228.246 109.337 228.098C109.419 227.95 109.538 227.826 109.682 227.739C109.827 227.652 109.992 227.604 110.161 227.601C110.33 227.598 110.497 227.639 110.645 227.721C110.793 227.803 110.917 227.922 111.004 228.067C111.091 228.212 111.138 228.377 111.141 228.546C111.144 228.716 111.102 228.882 111.019 229.03C110.937 229.178 110.818 229.301 110.672 229.388Z" fill="#115766"/>
<path d="M159.342 117.712H48.9746V134.444H159.342V117.712Z" fill="white"/>
<path d="M159.931 135.043H48.374V117.109H159.931V135.043ZM49.576 133.841H158.729V118.311H49.576V133.841Z" fill="#EBEBEB"/>
<path d="M46.0298 136.895C52.0044 136.895 56.8478 132.051 56.8478 126.077C56.8478 120.102 52.0044 115.259 46.0298 115.259C40.0553 115.259 35.2119 120.102 35.2119 126.077C35.2119 132.051 40.0553 136.895 46.0298 136.895Z" fill="#115766"/>
<path d="M51.3907 123.336H40.6689V133.072H51.3907V123.336Z" fill="white"/>
<path d="M50.3205 126.342H49.2267V122.003C49.2267 121.155 48.8898 120.342 48.2902 119.742C47.6906 119.143 46.8774 118.806 46.0294 118.806C45.1814 118.806 44.3682 119.143 43.7686 119.742C43.169 120.342 42.8321 121.155 42.8321 122.003V126.342H41.7383V122.003C41.7383 120.865 42.1904 119.774 42.9951 118.969C43.7999 118.164 44.8913 117.712 46.0294 117.712C47.1675 117.712 48.2589 118.164 49.0637 118.969C49.8684 119.774 50.3205 120.865 50.3205 122.003V126.342Z" fill="white"/>
<path d="M46.486 128.325L46.9307 130.464H45.0196L45.4763 128.325C45.3362 128.242 45.2202 128.125 45.14 127.983C45.0598 127.842 45.0183 127.682 45.0196 127.519C45.046 127.284 45.158 127.067 45.3343 126.91C45.5105 126.752 45.7387 126.665 45.9751 126.665C46.2116 126.665 46.4397 126.752 46.616 126.91C46.7923 127.067 46.9043 127.284 46.9307 127.519C46.9309 127.68 46.8902 127.839 46.8124 127.979C46.7346 128.12 46.6223 128.239 46.486 128.325Z" fill="#115766"/>
<path d="M68.1102 122.519H66.9082V130.175H68.1102V122.519Z" fill="#115766"/>
<path d="M71.3315 125.74H63.6748V126.942H71.3315V125.74Z" fill="#115766"/>
<path d="M69.7871 123.21L64.373 128.624L65.223 129.474L70.6371 124.06L69.7871 123.21Z" fill="#115766"/>
<path d="M65.2327 123.209L64.3828 124.059L69.7969 129.473L70.6469 128.623L65.2327 123.209Z" fill="#115766"/>
<path d="M81.1043 122.519H79.9023V130.175H81.1043V122.519Z" fill="#115766"/>
<path d="M84.3374 125.74H76.6807V126.942H84.3374V125.74Z" fill="#115766"/>
<path d="M82.794 123.209L77.3799 128.623L78.2298 129.473L83.6439 124.059L82.794 123.209Z" fill="#115766"/>
<path d="M78.2298 123.217L77.3799 124.067L82.794 129.481L83.6439 128.632L78.2298 123.217Z" fill="#115766"/>
<path d="M94.1102 122.519H92.9082V130.175H94.1102V122.519Z" fill="#115766"/>
<path d="M97.3305 125.74H89.6738V126.942H97.3305V125.74Z" fill="#115766"/>
<path d="M95.7803 123.215L90.3662 128.629L91.2161 129.479L96.6303 124.065L95.7803 123.215Z" fill="#115766"/>
<path d="M91.224 123.215L90.374 124.065L95.7881 129.48L96.6381 128.63L91.224 123.215Z" fill="#115766"/>
<path d="M107.115 122.519H105.913V130.175H107.115V122.519Z" fill="#115766"/>
<path d="M110.336 125.74H102.68V126.942H110.336V125.74Z" fill="#115766"/>
<path d="M108.786 123.215L103.372 128.629L104.222 129.479L109.636 124.065L108.786 123.215Z" fill="#115766"/>
<path d="M104.231 123.215L103.381 124.064L108.795 129.479L109.645 128.629L104.231 123.215Z" fill="#115766"/>
<path d="M120.108 122.519H118.906V130.175H120.108V122.519Z" fill="#115766"/>
<path d="M123.341 125.74H115.685V126.942H123.341V125.74Z" fill="#115766"/>
<path d="M121.793 123.214L116.379 128.628L117.229 129.478L122.643 124.064L121.793 123.214Z" fill="#115766"/>
<path d="M117.229 123.222L116.379 124.072L121.793 129.486L122.643 128.636L117.229 123.222Z" fill="#115766"/>
<path d="M133.114 122.519H131.912V130.175H133.114V122.519Z" fill="#115766"/>
<path d="M136.334 125.74H128.678V126.942H136.334V125.74Z" fill="#115766"/>
<path d="M134.792 123.209L129.378 128.623L130.228 129.473L135.642 124.059L134.792 123.209Z" fill="#115766"/>
<path d="M130.236 123.209L129.386 124.059L134.8 129.473L135.65 128.623L130.236 123.209Z" fill="#115766"/>
<path d="M66.0549 383.567C66.0549 383.567 39.4068 377.557 24.8026 364.071C10.1983 350.585 2.04883 326.509 2.04883 326.509C12.1751 328.463 22.1583 331.097 31.9304 334.394C34.3344 336.942 38.8538 342.195 40.9694 347.171C41.2177 344.132 41.2418 341.079 41.0415 338.036C44.4497 339.515 47.6404 341.452 50.5252 343.793C62.6293 354.359 66.0549 383.567 66.0549 383.567Z" fill="#46B2C8"/>
<path d="M18.6845 338.229C15.0785 335.704 11.3524 333.288 7.73437 330.752C7.69983 330.718 7.67773 330.673 7.67164 330.625C7.66554 330.577 7.6758 330.528 7.70076 330.487C7.72572 330.445 7.76393 330.413 7.80927 330.396C7.8546 330.379 7.90442 330.377 7.95073 330.392C14.8141 334.49 21.5933 338.878 28.1322 343.469C30.416 345.068 32.6637 346.739 34.8754 348.434L34.4186 347.64C33.6133 346.306 32.7719 344.996 31.9305 343.686C30.2594 341.011 28.3655 338.482 26.2691 336.125C26.197 336.041 26.2691 335.921 26.4013 336.005C28.4808 338.409 30.5482 340.813 32.4113 343.301C33.3128 344.503 34.1422 345.705 34.9355 347.039C35.3562 347.7 35.7528 348.373 36.1375 349.047L36.5341 349.732C39.9838 352.436 43.3374 355.261 46.5347 358.242C48.518 360.093 50.4171 361.992 52.2562 363.963C51.2345 360.742 50.333 357.485 49.131 354.347C49.131 354.239 49.2752 354.203 49.3113 354.347C50.5133 357.677 51.7153 361.018 52.6408 364.444C54.6842 366.64 56.6274 368.928 58.4705 371.307C58.4705 371.163 58.4705 371.019 58.3743 370.875C58.0738 369.673 57.7613 368.363 57.4248 367.125C56.7757 364.721 56.0665 362.317 55.2491 359.913C53.7066 355 51.2608 350.418 48.0372 346.402C47.9651 346.306 48.0372 346.186 48.1694 346.27C53.374 352.436 56.4271 359.828 58.3743 367.581C58.6508 368.723 58.9272 369.853 59.1797 370.995C59.3239 371.596 59.4802 372.197 59.5883 372.834C60.3937 373.928 61.175 375.022 61.9923 376.152C66.5349 383.097 70.315 390.512 73.267 398.268C76.6021 406.975 79.4551 415.859 81.8132 424.88C81.8132 425.061 81.5968 425.121 81.5367 424.952C76.3201 409.327 71.0073 393.544 62.0765 379.613C60.1944 376.672 58.1644 373.827 55.9944 371.091C51.5809 370.807 47.2241 369.943 43.0369 368.519C38.4647 366.978 34.1036 364.87 30.0554 362.244C27.7643 360.687 25.5538 359.014 23.4324 357.232C23.4196 357.226 23.4085 357.216 23.3998 357.205C23.3911 357.193 23.3851 357.18 23.3823 357.166C23.3794 357.152 23.3797 357.137 23.3833 357.123C23.3868 357.109 23.3934 357.096 23.4026 357.085C23.4118 357.074 23.4234 357.065 23.4365 357.059C23.4496 357.053 23.4639 357.05 23.4783 357.051C23.4927 357.051 23.5068 357.054 23.5197 357.061C23.5325 357.067 23.5438 357.077 23.5526 357.088C27.2727 360.08 31.3807 362.554 35.7648 364.444C40.0721 366.418 44.5768 367.929 49.2031 368.952C51.1744 369.384 53.1697 369.697 55.2131 369.973C52.7476 366.928 50.1278 364.012 47.3641 361.235C46.4626 360.345 45.537 359.48 44.6115 358.614C41.5039 356.44 38.2048 354.553 34.7552 352.977C30.3919 350.862 26.1008 348.626 21.7736 346.426C19.3697 345.224 16.9657 343.914 14.4535 342.724C14.3574 342.664 14.4535 342.52 14.5497 342.568C18.9369 344.683 23.3843 346.655 27.7716 348.686C31.9425 350.585 36.1855 352.496 40.1401 354.696L40.6449 354.996C37.0309 351.855 33.3088 348.846 29.4784 345.969C25.9085 343.349 22.3266 340.741 18.6845 338.229Z" fill="#023A59"/>
<path d="M20.1988 351.954C22.3624 352.904 24.574 353.745 26.7136 354.755C28.8531 355.765 31.0047 356.991 33.1082 358.229C33.1923 358.289 33.1082 358.409 33.012 358.373C30.8965 357.351 28.7449 356.402 26.6415 355.344C24.538 354.286 22.3503 353.096 20.1387 352.135C20.0425 352.087 20.0906 351.906 20.1988 351.954Z" fill="#023A59"/>
<path d="M152.611 249.293C147.688 255.644 144.902 263.39 144.653 271.422C144.557 273.826 144.942 277.131 145.218 281.038C135.278 286.314 127.825 295.93 127.825 295.93C133.475 292.541 141.216 291.122 145.399 291.723C145.262 294.398 144.921 297.058 144.377 299.68C142.538 299.572 138.968 299.825 133.078 301.916C136.579 301.88 140.049 302.568 143.271 303.936C138.523 319.057 124.4 334.574 85.4192 341.197C81.2777 322.657 83.717 303.253 92.3186 286.314C104.002 263.32 152.611 249.293 152.611 249.293Z" fill="#46B2C8"/>
<path d="M71.9208 405.816C72.5939 399.357 73.4353 392.918 74.445 386.5C76.4207 373.658 79.0443 360.925 82.306 348.349C83.8343 342.444 85.7127 336.637 87.9313 330.956C87.8211 329.918 87.7769 328.874 87.7991 327.831C87.7991 326.629 87.7991 325.33 87.7991 324.092C87.7991 321.592 87.9193 319.096 88.1597 316.604C88.5579 311.674 89.3619 306.785 90.5637 301.988C91.2729 299.211 92.1023 296.483 92.9677 293.73C92.9677 293.622 93.172 293.67 93.136 293.73C91.8488 298.523 90.889 303.399 90.2632 308.322C89.5678 313.176 89.1304 318.063 88.953 322.962C88.953 324.297 88.8809 325.631 88.8809 326.977C88.8809 327.542 88.8809 328.119 88.8809 328.696C90.7901 324.055 92.9818 319.535 95.4438 315.162C99.4059 308.195 103.865 301.522 108.786 295.196C108.798 294.46 108.908 293.729 109.11 293.021C109.291 292.143 109.483 291.278 109.675 290.412C110.072 288.634 110.517 286.806 111.01 285.1C111.971 281.566 113.257 278.152 114.363 274.666C114.363 274.546 114.568 274.606 114.531 274.666C113.498 278.116 112.813 281.698 112.031 285.208C111.635 286.951 111.262 288.694 110.829 290.437C110.637 291.302 110.445 292.167 110.264 293.045V293.237C111.839 291.254 113.45 289.283 115.072 287.359C122.513 278.633 130.698 270.532 138.896 262.586C139.906 261.601 140.939 260.639 141.961 259.665C141.979 259.654 142.001 259.649 142.022 259.652C142.044 259.655 142.064 259.664 142.079 259.68C142.094 259.695 142.104 259.715 142.107 259.736C142.109 259.758 142.104 259.779 142.093 259.798C134.244 267.995 126.467 276.277 119.183 284.943C117.452 287.011 115.733 289.09 114.051 291.206C114.94 290.605 115.83 290.004 116.707 289.451C118.979 287.96 121.275 286.518 123.643 285.196C126.01 283.874 128.39 282.576 130.855 281.361C133.319 280.147 136.035 279.114 138.439 277.756C138.547 277.695 138.631 277.864 138.535 277.912C136.07 279.05 133.692 280.368 131.419 281.854C129.015 283.261 126.611 284.679 124.34 286.157C122.068 287.636 119.748 289.042 117.476 290.521C115.577 291.723 113.714 293.093 111.743 294.235C107.222 300.039 103.052 306.108 99.2541 312.409C96.8928 316.378 94.7383 320.466 92.7994 324.657L94.1937 324.056L97.7997 322.47C100.096 321.448 102.403 320.45 104.699 319.453C109.074 317.553 113.51 315.847 117.801 313.719C120.218 312.584 122.555 311.287 124.796 309.837C124.893 309.765 124.977 309.921 124.893 309.993C116.899 315.498 107.933 319.38 99.0858 323.299L95.2515 324.994C94.1937 325.463 93.136 325.979 92.0542 326.388C89.4387 332.238 87.2337 338.262 85.4552 344.418C81.9926 356.835 79.1841 369.425 77.0413 382.137C74.8056 394.866 73.2911 407.691 72.1251 420.6C71.9689 422.211 71.8246 423.81 71.6443 425.408C71.6443 425.542 71.5912 425.671 71.4965 425.765C71.4018 425.86 71.2734 425.913 71.1395 425.913C71.0056 425.913 70.8772 425.86 70.7825 425.765C70.6879 425.671 70.6347 425.542 70.6347 425.408C70.5746 418.857 71.2357 412.307 71.9208 405.816Z" fill="#023A59"/>
<path d="M95.6364 298.154C96.3576 294.187 97.4154 290.317 98.4851 286.435C98.4851 286.314 98.6775 286.375 98.6534 286.435C97.6678 290.245 96.9586 294.127 96.2494 297.998C95.5403 301.868 94.8671 305.895 94.3142 309.861C94.3142 309.922 94.2061 309.934 94.2061 309.861C94.4667 305.936 94.9443 302.027 95.6364 298.154Z" fill="#023A59"/>
<path d="M112.441 308.9C115.153 307.1 117.988 305.493 120.927 304.092C122.345 303.359 123.787 302.662 125.218 301.965C126.648 301.267 128.247 300.642 129.713 299.909C129.733 299.904 129.754 299.906 129.773 299.913C129.792 299.921 129.808 299.935 129.819 299.952C129.829 299.969 129.834 299.99 129.833 300.01C129.831 300.031 129.823 300.05 129.809 300.065C128.379 300.775 127.033 301.64 125.626 302.409C124.22 303.179 122.754 303.996 121.299 304.813C118.451 306.34 115.65 308.035 112.657 309.285C112.606 309.313 112.546 309.321 112.489 309.305C112.433 309.289 112.385 309.252 112.356 309.201C112.328 309.15 112.321 309.089 112.336 309.033C112.352 308.977 112.39 308.929 112.441 308.9Z" fill="#023A59"/>
<path opacity="0.1" d="M65.5737 337.411C65.5737 337.411 40.9088 331.522 29.598 314.982C18.7801 299.188 15.2823 272.263 15.0059 269.896C15.4506 272.059 20.547 295.594 37.3269 306.556C50.1762 314.958 62.5927 321.858 65.5737 337.411Z" fill="#023A59"/>
<path d="M65.5743 337.412C65.5743 337.412 40.9094 331.522 29.5986 314.983C18.7807 299.188 15.2829 272.264 15.0064 269.896C15.0018 269.84 15.0018 269.784 15.0064 269.728C15.0064 269.728 26.834 286.555 39.2627 290.822C51.6913 295.09 69.1322 309.934 65.5743 337.412Z" fill="#46B2C8"/>
<path d="M19.3573 278.994C21.5483 283.522 24.0798 287.878 26.9299 292.024C29.806 295.959 33.2164 299.475 37.0627 302.469C40.4163 305.125 43.9621 307.541 47.3517 310.138L47.2676 310.017C46.6306 309.08 45.9574 308.154 45.2483 307.265C43.8419 305.462 42.3034 303.755 40.7408 302.072C37.6877 298.743 34.5505 295.485 31.81 291.891C30.2797 289.907 28.9548 287.773 27.8554 285.521C27.8554 285.413 27.9756 285.352 28.0237 285.521C32.0263 293.851 40.0436 299.187 45.717 306.219C46.5263 307.222 47.2846 308.265 47.9888 309.344C48.5522 310.123 49.0278 310.961 49.4072 311.844C52.5286 314.345 55.3519 317.196 57.8211 320.342C57.6084 318.718 57.279 317.111 56.8355 315.535C56.2596 313.342 55.3774 311.242 54.2151 309.296C54.2151 309.2 54.3113 309.092 54.3714 309.188C55.565 311.142 56.529 313.227 57.2441 315.402C57.7739 317.12 58.0888 318.896 58.1817 320.691C59.3998 322.346 60.5119 324.076 61.5112 325.872C61.403 325.343 61.3069 324.814 61.1987 324.285C60.7179 321.881 60.177 319.381 59.54 316.965C58.3769 312.052 56.3764 307.376 53.6261 303.142C53.6211 303.122 53.6226 303.101 53.6303 303.082C53.638 303.063 53.6516 303.047 53.669 303.037C53.6864 303.026 53.7068 303.021 53.7272 303.023C53.7476 303.024 53.7669 303.032 53.7824 303.046C56.6078 307.236 58.8179 311.81 60.3453 316.628C61.1386 319.032 61.7636 321.508 62.3166 323.997C62.593 325.199 62.8334 326.401 63.0618 327.603C63.182 328.228 63.3262 328.877 63.4224 329.526C65.8722 334.891 67.777 340.488 69.1078 346.233C71.5341 356.502 73.2927 366.917 74.3725 377.413C75.6401 388.4 76.2062 399.457 76.0673 410.516C76.0673 411.898 75.9712 413.281 75.8871 414.675C75.8871 415.023 75.3341 415.084 75.3221 414.675C75.0817 409.206 74.9375 403.737 74.6129 398.268C74.2884 392.799 73.8076 387.342 73.2306 381.885C72.1058 371.176 70.3884 360.538 68.0861 350.02C66.0908 341.005 63.4945 331.93 58.5663 324.033C56.1164 320.104 53.1216 316.543 49.6716 313.455C46.2219 310.354 42.4596 307.637 38.8537 304.765C35.1608 301.96 31.8085 298.732 28.8651 295.149C25.8146 291.175 23.1539 286.916 20.9199 282.432C20.343 281.314 19.7179 280.208 19.153 279.09C19.141 278.994 19.2972 278.898 19.3573 278.994Z" fill="#023A59"/>
<path d="M23.6127 282.613C25.2217 285.94 27.0571 289.153 29.1058 292.229C29.1058 292.301 29.0336 292.373 28.9856 292.301C26.8717 289.255 25.0143 286.039 23.4324 282.685C23.3843 282.565 23.5526 282.505 23.6127 282.613Z" fill="#023A59"/>
<path d="M156.048 326.509C156.048 326.509 156.445 361.547 135.494 371.656C114.543 381.764 103.305 373.35 89.0732 376.74C89.6262 375.911 99.783 361.306 115.95 357.28C132.585 353.109 151.012 341.101 156.048 326.509Z" fill="#46B2C8"/>
<path opacity="0.1" d="M156.048 326.509C156.048 326.509 156.445 361.547 135.494 371.656C114.543 381.764 103.305 373.35 89.0732 376.74C96.5966 373.164 104.636 370.795 112.897 369.72C126.131 368.05 151.361 359.491 156.048 326.509Z" fill="black"/>
<path d="M87.6907 377.366C90.1826 375.094 92.9878 373.192 96.0205 371.717C96.4773 371.501 96.934 371.332 97.3908 371.14C97.6112 370.858 97.848 370.589 98.1 370.335C98.7214 369.673 99.3795 369.047 100.071 368.46C101.38 367.322 102.788 366.305 104.278 365.419C107.752 363.375 111.562 361.945 115.096 360.058C115.106 360.052 115.118 360.049 115.129 360.048C115.141 360.046 115.153 360.047 115.164 360.051C115.175 360.054 115.185 360.06 115.194 360.067C115.203 360.074 115.211 360.083 115.216 360.094C115.222 360.104 115.225 360.115 115.226 360.127C115.228 360.138 115.227 360.15 115.223 360.161C115.22 360.172 115.214 360.183 115.207 360.192C115.2 360.201 115.191 360.208 115.18 360.214C113.425 361.127 111.731 362.125 110.024 363.123C108.317 364.12 106.67 365.022 105.047 366.056C103.59 366.989 102.204 368.03 100.901 369.169C100.54 369.493 100.179 369.842 99.8308 370.203C102.146 369.416 104.511 368.786 106.911 368.315C110.745 367.546 114.615 366.993 118.45 366.176C120.327 365.778 122.181 365.277 124.003 364.673C125.746 363.279 127.477 361.885 129.123 360.37C131.122 358.548 132.938 356.536 134.544 354.36C134.616 354.264 134.773 354.36 134.701 354.456C132.159 357.896 129.28 361.073 126.106 363.94C127.008 363.592 127.909 363.231 128.787 362.822C135.982 359.594 142.159 354.461 146.648 347.978C146.721 347.881 146.877 347.978 146.805 348.062C143.002 353.628 138.091 358.35 132.381 361.933C129.514 363.721 126.448 365.169 123.246 366.248C119.535 367.406 115.747 368.301 111.911 368.928C108.151 369.545 104.439 370.429 100.804 371.573C97.4633 372.705 94.3231 374.36 91.501 376.477C86.151 380.631 81.8456 385.978 78.9282 392.091C74.9616 400.036 73.0745 408.919 72.0167 417.705C72.0167 418.078 71.3917 418.078 71.4157 417.705C72.4013 402.909 76.3439 387.595 87.6907 377.366Z" fill="#023A59"/>
<path d="M112.007 365.934C113.102 364.302 114.579 362.961 116.31 362.028C118.298 360.998 120.044 359.556 121.43 357.797C121.502 357.701 121.659 357.797 121.586 357.893C120.33 359.499 118.8 360.87 117.067 361.944C115.162 362.949 113.484 364.336 112.139 366.018C112.079 366.102 111.946 366.018 112.007 365.934Z" fill="#023A59"/>
<path d="M100.889 403.22L99.9395 422.488L97.0187 481.349H53.0618L50.141 422.488L49.1914 403.22H100.889Z" fill="#115766"/>
<path d="M100.889 403.22L99.9395 422.488H50.141L49.1914 403.22H100.889Z" fill="#023A59"/>
<path d="M103.966 395.179H46.1025V413.557H103.966V395.179Z" fill="#115766"/>
</svg>
