<svg width="132" height="132" viewBox="0 0 132 132" fill="none" xmlns="http://www.w3.org/2000/svg">
<path d="M101.315 24.8145L93.9693 32.124C93.818 32.2691 93.3389 32.4671 93.1299 32.4707H76.8281V36.3379H93.1299C94.3589 36.3379 95.8253 35.7326 96.6964 34.8658L104.366 27.234C103.112 26.7643 102.047 25.9094 101.315 24.8145Z" fill="#004777"/>
<path d="M95.9872 114.797L90.9872 109.822C90.116 108.955 88.6496 108.35 87.4206 108.35H76.8281V112.217H87.4198C87.6297 112.22 88.1087 112.418 88.2595 112.563L93.0564 117.336C93.7401 116.213 94.7652 115.319 95.9872 114.797Z" fill="#004777"/>
<path d="M93.9453 96.0801C93.9453 95.4059 94.0531 94.7562 94.2508 94.1465H76.8281V98.0137H94.2506C94.0528 97.4039 93.9453 96.7543 93.9453 96.0801Z" fill="#004777"/>
<path d="M97.2507 79.2598C97.2507 78.5856 97.3585 77.9359 97.5562 77.3262H76.8281V81.1934H97.556C97.3585 80.5834 97.2507 79.9339 97.2507 79.2598Z" fill="#004777"/>
<path d="M82.5 61.3193C82.5 60.6449 82.6078 59.9955 82.8055 59.3857H76.8281V63.2529H82.8055C82.6078 62.6429 82.5 61.9938 82.5 61.3193Z" fill="#004777"/>
<path d="M117.215 61.1671L101.805 45.8325C100.934 44.9657 99.4674 44.3604 98.2384 44.3604H76.8281V48.2275H98.2376C98.4473 48.2311 98.9265 48.4289 99.0773 48.5738L114.478 63.8984C115.082 62.7287 116.042 61.7709 117.215 61.1671Z" fill="#004777"/>
<path d="M81.625 17.7373C81.625 17.0629 81.733 16.4134 81.9305 15.8037H76.8281V19.6709H81.9305C81.7327 19.0612 81.625 18.4117 81.625 17.7373Z" fill="#004777"/>
<path d="M87.9582 24.3048C84.3238 24.3048 81.3672 21.3583 81.3672 17.7363C81.3672 14.1145 84.324 11.168 87.9582 11.168C91.5928 11.168 94.5494 14.1145 94.5494 17.7363C94.5494 21.3585 91.5928 24.3048 87.9582 24.3048Z" fill="#FFC502"/>
<path d="M48.719 11.0153C47.9383 10.8856 47.1378 10.815 46.3206 10.815C38.3165 10.815 31.8279 17.2716 31.8279 25.2362C31.8279 25.9375 31.8807 26.6261 31.9779 27.3005C30.5865 26.8586 29.1044 26.6176 27.5655 26.6176C19.5614 26.6176 13.0731 33.0742 13.0731 41.0389C13.0731 43.4053 13.6495 45.6364 14.6648 47.6066C7.88691 50.918 3.21973 57.8511 3.21973 65.8714C3.21973 73.9226 7.92248 80.8804 14.7432 84.1758C13.6781 86.1831 13.0728 88.4689 13.0728 90.8964C13.0728 98.861 19.5612 105.317 27.5652 105.317C29.0979 105.317 30.5739 105.079 31.9601 104.64C31.8758 105.272 31.8276 105.914 31.8276 106.568C31.8276 114.533 38.3163 120.99 46.3203 120.99C47.1445 120.99 47.952 120.918 48.7386 120.786C50.5835 126.111 55.6598 129.938 61.6375 129.938C69.1731 129.938 75.2817 123.859 75.2817 116.361V15.3816C75.2817 7.88313 69.1731 1.80469 61.6375 1.80469C55.6379 1.80469 50.5466 5.65976 48.719 11.0153Z" fill="#EF5050"/>
<g opacity="0.1">
<path d="M7.08685 70.5117C7.08685 63.1911 11.1954 56.6362 17.8085 53.4053C18.1202 53.2532 18.3571 52.982 18.4664 52.653C18.5755 52.3241 18.5474 51.9649 18.3886 51.6569C17.4275 49.7916 16.9402 47.7804 16.9402 45.6795C16.9402 38.4383 22.8632 32.5473 30.1435 32.5473C31.5115 32.5473 32.865 32.7569 34.1659 33.1699C34.2938 33.2104 34.4255 33.2302 34.5563 33.2302C34.8574 33.2302 35.1536 33.1248 35.3898 32.9245C35.7283 32.6378 35.8953 32.1967 35.8322 31.7576C35.7414 31.1273 35.6953 30.4946 35.6953 29.8771C35.6953 22.6359 41.6185 16.7447 48.8989 16.7447C49.619 16.7447 50.355 16.8063 51.0859 16.9277C51.1571 16.9396 51.228 16.9452 51.2978 16.9452C51.841 16.9452 52.3366 16.6008 52.5173 16.0723C54.2188 11.0852 58.9201 7.73438 64.2155 7.73438C68.9838 7.73438 73.1271 10.4362 75.186 14.3803C74.6082 7.41134 68.745 1.93359 61.5923 1.93359C55.5927 1.93359 50.5012 5.78866 48.6738 11.1442C47.8932 11.0145 47.0926 10.9439 46.2754 10.9439C38.2713 10.9439 31.7827 17.4005 31.7827 25.3651C31.7827 26.0664 31.8356 26.755 31.9328 27.4294C30.5413 26.9876 29.0592 26.7465 27.5203 26.7465C19.5163 26.7465 13.0279 33.2032 13.0279 41.1678C13.0279 43.5342 13.6044 45.7653 14.6196 47.7355C7.84173 51.0466 3.1748 57.98 3.1748 66C3.1748 72.4208 6.16775 78.1437 10.8388 81.8709C8.43908 78.6599 7.08685 74.7154 7.08685 70.5117Z" fill="#00003F"/>
</g>
<path d="M30.8197 72.7551C31.8878 72.7551 32.7533 71.8897 32.7533 70.8215C32.7533 69.7534 31.8878 68.8879 30.8197 68.8879H25.2737C21.7352 68.8879 18.8564 66.0275 18.8564 62.5117C18.8564 61.4436 17.991 60.5781 16.9229 60.5781C15.8547 60.5781 14.9893 61.4436 14.9893 62.5117C14.9893 68.1599 19.6028 72.7551 25.2737 72.7551H30.8197Z" fill="#FB8276"/>
<path d="M22.5762 93.0534C22.5762 94.1215 23.4416 94.987 24.5098 94.987C25.5779 94.987 26.4434 94.1215 26.4434 93.0534C26.4434 89.7516 29.147 87.0654 32.4708 87.0654H48.9893C50.0574 87.0654 50.9229 86.2 50.9229 85.1318C50.9229 84.0637 50.0574 83.1982 48.9893 83.1982H32.4708C27.0149 83.1982 22.5762 87.6189 22.5762 93.0534Z" fill="#FB8276"/>
<path d="M56.7236 87.0654H64.7439C65.812 87.0654 66.6775 86.2 66.6775 85.1318C66.6775 84.0637 65.8118 83.1982 64.7439 83.1982H56.7236C55.6555 83.1982 54.79 84.0637 54.79 85.1318C54.79 86.2 55.6555 87.0654 56.7236 87.0654Z" fill="#FB8276"/>
<path d="M39.1289 57.5876C38.0608 57.5876 37.1953 58.4531 37.1953 59.5212C37.1953 60.5894 38.0608 61.4548 39.1289 61.4548C46.8228 61.4548 53.0822 55.222 53.0822 47.5605C53.0822 46.4927 52.2168 45.627 51.1486 45.627C50.0805 45.627 49.215 46.4927 49.215 47.5605C49.215 53.0896 44.6904 57.5876 39.1289 57.5876Z" fill="#FB8276"/>
<path d="M47.5838 16.3964C42.9648 16.0999 38.96 19.6018 38.6604 24.2053C38.5911 25.2711 39.3988 26.191 40.4643 26.2606C40.5071 26.2634 40.5497 26.2647 40.5919 26.2647C41.6026 26.2647 42.4528 25.4794 42.5196 24.4567C42.6805 21.9796 44.8409 20.0984 47.3353 20.2556C48.4021 20.3268 49.3204 19.5162 49.3893 18.4504C49.4578 17.3846 48.6496 16.465 47.5838 16.3964Z" fill="#FB8276"/>
<path d="M41.0811 91.8076C40.0129 91.8076 39.1475 92.6731 39.1475 93.7412C39.1475 94.8093 40.0129 95.6748 41.0811 95.6748C44.2741 95.6748 46.8718 98.2553 46.8718 101.427C46.8718 104.599 44.2741 107.18 41.0811 107.18C40.0129 107.18 39.1475 108.045 39.1475 109.113C39.1475 110.181 40.0129 111.047 41.0811 111.047C46.4064 111.047 50.739 106.732 50.739 101.427C50.739 96.1231 46.4064 91.8076 41.0811 91.8076Z" fill="#FB8276"/>
<path d="M60.8701 59.3815C59.802 59.3815 58.9365 60.247 58.9365 61.3151C58.9365 62.3833 59.802 63.2487 60.8701 63.2487C65.5677 63.2487 69.3893 59.4414 69.3893 54.7618C69.3893 50.0825 65.5677 46.2754 60.8701 46.2754C59.802 46.2754 58.9365 47.1409 58.9365 48.209C58.9365 49.2771 59.802 50.1426 60.8701 50.1426C63.4351 50.1426 65.5221 52.2146 65.5221 54.7618C65.5221 57.3093 63.4351 59.3815 60.8701 59.3815Z" fill="#FB8276"/>
<path d="M26.8076 57.6017C33.3468 57.6017 38.667 52.3037 38.667 45.7913C38.667 39.2792 33.3468 33.9814 26.8076 33.9814C25.7395 33.9814 24.874 34.8469 24.874 35.915C24.874 36.9832 25.7395 37.8486 26.8076 37.8486C31.2147 37.8486 34.7998 41.4116 34.7998 45.7913C34.7998 50.171 31.2147 53.7345 26.8076 53.7345C25.7395 53.7345 24.874 54.6 24.874 55.6681C24.874 56.736 25.7398 57.6017 26.8076 57.6017Z" fill="#FB8276"/>
<path d="M61.5923 0C55.4517 0 49.9433 3.57895 47.4296 9.05154C47.0431 9.02395 46.6577 9.01003 46.2754 9.01003C37.3479 9.01003 30.0608 16.1375 29.8538 24.9779C29.0829 24.8681 28.3033 24.8126 27.5203 24.8126C18.4628 24.8126 11.0943 32.1495 11.0943 41.1675C11.0943 43.147 11.4416 45.0623 12.1284 46.8842C5.3675 50.8958 1.24121 58.062 1.24121 66C1.24121 73.8434 5.483 81.1674 12.1913 85.1503C11.4702 87.0176 11.0945 89.0172 11.0945 91.0251C11.0945 100.043 18.4631 107.38 27.5206 107.38C28.3051 107.38 29.0857 107.324 29.8574 107.214C30.1322 115.994 37.3917 123.052 46.2756 123.052C46.667 123.052 47.0617 123.037 47.4577 123.009C49.9848 128.445 55.4821 132 61.5923 132C70.1818 132 77.1701 125.042 77.1701 116.489V15.5105C77.1701 6.95784 70.1821 0 61.5923 0ZM73.3029 15.7253H69.584C68.5158 15.7253 67.6504 16.5907 67.6504 17.6589C67.6504 18.727 68.5158 19.5925 69.584 19.5925H73.3029V32.4699H57.664C54.1255 32.4699 51.2468 29.6098 51.2468 26.0942C51.2468 25.0261 50.3813 24.1606 49.3132 24.1606C48.2451 24.1606 47.3796 25.0261 47.3796 26.0942C47.3796 31.7421 51.9931 36.3371 57.664 36.3371H73.3029V68.8875H41.9379C40.8698 68.8875 40.0044 69.753 40.0044 70.8211C40.0044 71.8892 40.8698 72.7547 41.9379 72.7547H73.3029V99.3032H67.3278C61.872 99.3032 57.4335 103.724 57.4335 109.158C57.4335 110.226 58.299 111.092 59.3671 111.092C60.4352 111.092 61.3007 110.226 61.3007 109.158C61.3007 105.857 64.0044 103.17 67.3278 103.17H73.3029V116.489C73.3029 116.793 73.2874 117.093 73.2645 117.391H69.584C68.5158 117.391 67.6504 118.257 67.6504 119.325C67.6504 120.393 68.5158 121.258 69.584 121.258H72.2714C70.4355 125.306 66.3409 128.133 61.5923 128.133C57.327 128.133 53.4611 125.832 51.4092 122.236C53.7447 121.473 55.8941 120.191 57.705 118.444C58.4735 117.702 58.4954 116.478 57.754 115.71C57.0125 114.941 55.7884 114.919 55.0201 115.661C53.1974 117.419 50.9248 118.563 48.4691 118.992V119C48.4374 119.003 46.965 119.185 46.2754 119.185C39.3503 119.185 33.7163 113.583 33.7163 106.697C33.7163 106.521 33.7269 106.338 33.7354 106.157C35.2962 105.522 36.7624 104.653 38.07 103.561C38.8898 102.877 38.9994 101.658 38.3149 100.838C37.6304 100.018 36.4107 99.908 35.5914 100.593C34.0197 101.905 32.1509 102.805 30.1642 103.23V103.231C29.2977 103.417 28.4126 103.512 27.52 103.512C20.5952 103.512 14.9612 97.9105 14.9612 91.0251C14.9612 88.9737 15.4475 87.0174 16.406 85.2104C16.4289 85.1671 16.4772 85.0779 16.4772 85.0779C17.6144 82.9898 19.3466 81.2282 21.5231 80.0495C22.4623 79.5408 22.8111 78.3675 22.3024 77.4286C21.794 76.4891 20.6202 76.1398 19.6815 76.6492C17.3718 77.9004 15.4464 79.655 14.0063 81.7317C8.47775 78.4057 5.1084 72.5247 5.1084 66C5.1084 60.3168 7.67337 55.1126 11.9964 51.6669C12.3751 51.3753 12.7595 51.0948 13.1491 50.8282C16.1273 48.79 19.7326 47.5958 23.6131 47.5958C24.6813 47.5958 25.5467 46.7303 25.5467 45.6622C25.5467 44.5941 24.6813 43.7286 23.6131 43.7286C20.804 43.7286 18.115 44.2481 15.6359 45.1935C15.1914 43.9044 14.962 42.5574 14.962 41.1678C14.962 34.2818 20.5957 28.6801 27.5208 28.6801C28.8225 28.6801 30.1103 28.8794 31.3483 29.2725C31.9828 29.4739 32.676 29.3349 33.1837 28.9044C33.6916 28.4738 33.9419 27.8128 33.847 27.1538C33.7606 26.5537 33.7168 25.9519 33.7168 25.3651C33.7168 18.4795 39.3508 12.8775 46.2759 12.8775C46.956 12.8775 47.6511 12.9357 48.3428 13.0494C54.2874 14.0327 58.8347 19.1794 58.8347 25.3651C58.8347 26.4333 59.7002 27.2987 60.7683 27.2987C61.8364 27.2987 62.7019 26.4333 62.7019 25.3651C62.7019 18.1201 57.944 11.9643 51.3765 9.82291C53.4181 6.1924 57.2982 3.86719 61.5923 3.86719C68.0495 3.86719 73.3029 9.09047 73.3029 15.5105V15.7253Z" fill="#FB8276"/>
<path d="M117.707 47.0304C114.073 47.0304 111.116 44.0839 111.116 40.4618C111.116 36.8401 114.073 33.8936 117.707 33.8936C121.342 33.8936 124.299 36.8401 124.299 40.4618C124.299 44.0839 121.342 47.0304 117.707 47.0304Z" fill="#FFC502"/>
<path d="M124.168 96.5177C120.534 96.5177 117.577 93.5712 117.577 89.9494C117.577 86.3277 120.534 83.3809 124.168 83.3809C127.803 83.3809 130.759 86.3274 130.759 89.9494C130.759 93.5714 127.803 96.5177 124.168 96.5177Z" fill="#FFC502"/>
<path d="M88.8334 67.8868C85.1988 67.8868 82.2422 64.9403 82.2422 61.3185C82.2422 57.6965 85.199 54.75 88.8334 54.75C92.4681 54.75 95.4247 57.6965 95.4247 61.3185C95.4249 64.9406 92.4681 67.8868 88.8334 67.8868Z" fill="#FFC502"/>
<path d="M100.279 102.648C96.6441 102.648 93.6875 99.7013 93.6875 96.0793C93.6875 92.4573 96.6443 89.5107 100.279 89.5107C103.913 89.5107 106.87 92.4573 106.87 96.0793C106.87 99.7016 103.913 102.648 100.279 102.648Z" fill="#33C7CA"/>
<path d="M106.589 27.8934C102.955 27.8934 99.998 24.9469 99.998 21.3249C99.998 17.7031 102.955 14.7568 106.589 14.7568C110.224 14.7568 113.18 17.7034 113.18 21.3249C113.181 24.9471 110.224 27.8934 106.589 27.8934Z" fill="#33C7CA"/>
<path d="M120.112 73.3439C116.477 73.3439 113.521 70.3973 113.521 66.7753C113.521 63.1536 116.477 60.207 120.112 60.207C123.746 60.207 126.703 63.1536 126.703 66.7753C126.703 70.3976 123.746 73.3439 120.112 73.3439Z" fill="#33C7CA"/>
<path d="M115.754 116.702C112.12 116.702 109.163 113.755 109.163 110.133C109.163 106.511 112.12 103.564 115.754 103.564C119.389 103.564 122.346 106.511 122.346 110.133C122.346 113.755 119.389 116.702 115.754 116.702Z" fill="#33C7CA"/>
<path d="M103.584 85.8285C99.9498 85.8285 96.9932 82.882 96.9932 79.26C96.9932 75.6379 99.95 72.6914 103.584 72.6914C107.219 72.6914 110.176 75.6379 110.176 79.26C110.176 82.882 107.219 85.8285 103.584 85.8285Z" fill="#FFC502"/>
<path d="M98.476 127.167C94.8414 127.167 91.8848 124.221 91.8848 120.599C91.8848 116.977 94.8416 114.03 98.476 114.03C102.111 114.03 105.067 116.977 105.067 120.599C105.067 124.221 102.111 127.167 98.476 127.167Z" fill="#FFC502"/>
</svg>
