<svg width="435" height="315" viewBox="0 0 435 315" fill="none" xmlns="http://www.w3.org/2000/svg">
<path d="M150.949 45.7852L140.949 40.0117V51.5587L150.949 45.7852ZM83.4746 45.7852V44.7852H82.4746V45.7852H83.4746ZM84.4746 94.1421C84.4746 93.5898 84.0269 93.1421 83.4746 93.1421C82.9223 93.1421 82.4746 93.5898 82.4746 94.1421H84.4746ZM82.4746 84.0209C82.4746 84.5731 82.9223 85.0209 83.4746 85.0209C84.0269 85.0209 84.4746 84.5731 84.4746 84.0209H82.4746ZM84.4746 81.7717C84.4746 81.2194 84.0269 80.7717 83.4746 80.7717C82.9223 80.7717 82.4746 81.2194 82.4746 81.7717H84.4746ZM82.4746 71.6505C82.4746 72.2028 82.9223 72.6505 83.4746 72.6505C84.0269 72.6505 84.4746 72.2028 84.4746 71.6505H82.4746ZM84.4746 69.4013C84.4746 68.849 84.0269 68.4013 83.4746 68.4013C82.9223 68.4013 82.4746 68.849 82.4746 69.4013H84.4746ZM82.4746 59.2801C82.4746 59.8324 82.9223 60.2801 83.4746 60.2801C84.0269 60.2801 84.4746 59.8324 84.4746 59.2801H82.4746ZM84.4746 57.031C84.4746 56.4787 84.0269 56.031 83.4746 56.031C82.9223 56.031 82.4746 56.4787 82.4746 57.031H84.4746ZM82.4746 46.9097C82.4746 47.462 82.9223 47.9097 83.4746 47.9097C84.0269 47.9097 84.4746 47.462 84.4746 46.9097H82.4746ZM84.497 46.7852C85.0492 46.7852 85.497 46.3374 85.497 45.7852C85.497 45.2329 85.0492 44.7852 84.497 44.7852V46.7852ZM93.6981 44.7852C93.1458 44.7852 92.6981 45.2329 92.6981 45.7852C92.6981 46.3374 93.1458 46.7852 93.6981 46.7852V44.7852ZM95.7427 46.7852C96.295 46.7852 96.7427 46.3374 96.7427 45.7852C96.7427 45.2329 96.295 44.7852 95.7427 44.7852V46.7852ZM104.944 44.7852C104.392 44.7852 103.944 45.2329 103.944 45.7852C103.944 46.3374 104.392 46.7852 104.944 46.7852V44.7852ZM106.989 46.7852C107.541 46.7852 107.989 46.3374 107.989 45.7852C107.989 45.2329 107.541 44.7852 106.989 44.7852V46.7852ZM116.19 44.7852C115.637 44.7852 115.19 45.2329 115.19 45.7852C115.19 46.3374 115.637 46.7852 116.19 46.7852V44.7852ZM118.234 46.7852C118.787 46.7852 119.234 46.3374 119.234 45.7852C119.234 45.2329 118.787 44.7852 118.234 44.7852V46.7852ZM127.435 44.7852C126.883 44.7852 126.435 45.2329 126.435 45.7852C126.435 46.3374 126.883 46.7852 127.435 46.7852V44.7852ZM129.48 46.7852C130.032 46.7852 130.48 46.3374 130.48 45.7852C130.48 45.2329 130.032 44.7852 129.48 44.7852V46.7852ZM138.681 44.7852C138.129 44.7852 137.681 45.2329 137.681 45.7852C137.681 46.3374 138.129 46.7852 138.681 46.7852V44.7852ZM140.726 46.7852C141.278 46.7852 141.726 46.3374 141.726 45.7852C141.726 45.2329 141.278 44.7852 140.726 44.7852V46.7852ZM149.927 44.7852C149.375 44.7852 148.927 45.2329 148.927 45.7852C148.927 46.3374 149.375 46.7852 149.927 46.7852V44.7852ZM84.4746 95.2666V94.1421H82.4746V95.2666H84.4746ZM84.4746 84.0209V81.7717H82.4746V84.0209H84.4746ZM84.4746 71.6505V69.4013H82.4746V71.6505H84.4746ZM84.4746 59.2801V57.031H82.4746V59.2801H84.4746ZM84.4746 46.9097V45.7852H82.4746V46.9097H84.4746ZM83.4746 46.7852H84.497V44.7852H83.4746V46.7852ZM93.6981 46.7852H95.7427V44.7852H93.6981V46.7852ZM104.944 46.7852H106.989V44.7852H104.944V46.7852ZM116.19 46.7852H118.234V44.7852H116.19V46.7852ZM127.435 46.7852H129.48V44.7852H127.435V46.7852ZM138.681 46.7852H140.726V44.7852H138.681V46.7852Z" fill="#46B2C8"/>
<path d="M131.271 256.001L136.468 266.313L142.799 256.657L131.271 256.001ZM187.697 293L187.149 293.836L187.985 294.385L188.534 293.548L187.697 293ZM213.377 252.013C213.074 252.475 213.203 253.094 213.665 253.397C214.126 253.7 214.746 253.571 215.049 253.109L213.377 252.013ZM209.499 261.573C209.802 261.111 209.673 260.492 209.211 260.189C208.75 259.886 208.13 260.015 207.827 260.477L209.499 261.573ZM206.594 262.358C206.291 262.819 206.42 263.439 206.881 263.742C207.343 264.045 207.963 263.916 208.266 263.454L206.594 262.358ZM202.716 271.918C203.019 271.456 202.89 270.836 202.428 270.534C201.967 270.231 201.347 270.36 201.044 270.822L202.716 271.918ZM199.81 272.702C199.508 273.164 199.637 273.784 200.098 274.087C200.56 274.39 201.18 274.261 201.483 273.799L199.81 272.702ZM195.933 282.263C196.236 281.801 196.107 281.181 195.645 280.878C195.183 280.576 194.564 280.705 194.261 281.166L195.933 282.263ZM193.027 283.047C192.725 283.509 192.854 284.129 193.315 284.432C193.777 284.735 194.397 284.606 194.7 284.144L193.027 283.047ZM189.15 292.608C189.453 292.146 189.324 291.526 188.862 291.223C188.4 290.92 187.78 291.049 187.478 291.511L189.15 292.608ZM187.391 291.603C186.929 291.3 186.309 291.429 186.006 291.891C185.703 292.353 185.832 292.973 186.294 293.276L187.391 291.603ZM178.599 288.23C179.061 288.533 179.681 288.404 179.984 287.942C180.287 287.481 180.158 286.861 179.696 286.558L178.599 288.23ZM177.986 285.437C177.524 285.134 176.904 285.263 176.602 285.725C176.299 286.187 176.428 286.806 176.89 287.109L177.986 285.437ZM169.195 282.064C169.657 282.367 170.277 282.238 170.58 281.776C170.882 281.314 170.754 280.694 170.292 280.391L169.195 282.064ZM168.582 279.27C168.12 278.967 167.5 279.096 167.197 279.558C166.894 280.02 167.023 280.64 167.485 280.943L168.582 279.27ZM159.791 275.898C160.252 276.2 160.872 276.071 161.175 275.61C161.478 275.148 161.349 274.528 160.887 274.225L159.791 275.898ZM159.177 273.104C158.716 272.801 158.096 272.93 157.793 273.392C157.49 273.854 157.619 274.474 158.081 274.776L159.177 273.104ZM150.386 269.731C150.848 270.034 151.468 269.905 151.771 269.443C152.074 268.981 151.945 268.361 151.483 268.059L150.386 269.731ZM149.773 266.937C149.311 266.635 148.691 266.764 148.388 267.225C148.086 267.687 148.214 268.307 148.676 268.61L149.773 266.937ZM140.982 263.565C141.444 263.868 142.064 263.739 142.366 263.277C142.669 262.815 142.54 262.195 142.078 261.892L140.982 263.565ZM140.369 260.771C139.907 260.468 139.287 260.597 138.984 261.059C138.681 261.521 138.81 262.141 139.272 262.444L140.369 260.771ZM131.577 257.398C132.039 257.701 132.659 257.572 132.962 257.11C133.265 256.649 133.136 256.029 132.674 255.726L131.577 257.398ZM213.993 251.072L213.377 252.013L215.049 253.109L215.666 252.169L213.993 251.072ZM207.827 260.477L206.594 262.358L208.266 263.454L209.499 261.573L207.827 260.477ZM201.044 270.822L199.81 272.702L201.483 273.799L202.716 271.918L201.044 270.822ZM194.261 281.166L193.027 283.047L194.7 284.144L195.933 282.263L194.261 281.166ZM187.478 291.511L186.861 292.452L188.534 293.548L189.15 292.608L187.478 291.511ZM188.246 292.164L187.391 291.603L186.294 293.276L187.149 293.836L188.246 292.164ZM179.696 286.558L177.986 285.437L176.89 287.109L178.599 288.23L179.696 286.558ZM170.292 280.391L168.582 279.27L167.485 280.943L169.195 282.064L170.292 280.391ZM160.887 274.225L159.177 273.104L158.081 274.776L159.791 275.898L160.887 274.225ZM151.483 268.059L149.773 266.937L148.676 268.61L150.386 269.731L151.483 268.059ZM142.078 261.892L140.369 260.771L139.272 262.444L140.982 263.565L142.078 261.892Z" fill="#46B2C8"/>
<g filter="url(#filter0_d_1633_14702)">
<rect x="16" y="97.0674" width="114.517" height="193.428" rx="15" fill="#023A59"/>
</g>
<rect x="22.7363" y="103.322" width="101.044" height="180.917" rx="10" fill="white"/>
<rect x="38.1328" y="175.017" width="71.6933" height="8.66094" fill="#46B2C8"/>
<rect x="38.1328" y="200.518" width="71.6933" height="8.66094" fill="#46B2C8"/>
<rect x="38.1328" y="193.781" width="34.6437" height="2.88698" fill="#D9D9D9"/>
<rect x="38.1328" y="226.019" width="71.6933" height="8.66094" fill="#46B2C8"/>
<rect x="38.1328" y="247.671" width="71.6933" height="19.7277" fill="#455A64"/>
<rect x="38.1328" y="156.731" width="45.7105" height="5.2928" fill="#D9D9D9"/>
<rect x="38.1328" y="165.873" width="25.9828" height="5.2928" fill="#D9D9D9"/>
<circle cx="48.9613" cy="130.508" r="15.1566" fill="#D9D9D9"/>
<mask id="mask0_1633_14702" style="mask-type:alpha" maskUnits="userSpaceOnUse" x="33" y="115" width="32" height="31">
<circle cx="48.9594" cy="130.508" r="15.1566" fill="#D9D9D9"/>
</mask>
<g mask="url(#mask0_1633_14702)">
<path d="M48.9573 138.255C53.618 138.255 57.5512 139.012 57.5512 141.934C57.5512 144.857 53.5922 145.587 48.9573 145.587C44.2976 145.587 40.3633 144.83 40.3633 141.908C40.3633 138.985 44.3223 138.255 48.9573 138.255ZM48.9573 124.103C52.1146 124.103 54.6443 126.631 54.6443 129.786C54.6443 132.942 52.1146 135.471 48.9573 135.471C45.801 135.471 43.2702 132.942 43.2702 129.786C43.2702 126.631 45.801 124.103 48.9573 124.103Z" fill="black"/>
</g>
<g filter="url(#filter1_d_1633_14702)">
<rect x="150.951" y="8" width="207.062" height="208.361" rx="25" fill="white"/>
</g>
<path d="M150.951 31.3675C150.951 18.462 161.413 8 174.319 8H334.646C347.552 8 358.013 18.462 358.013 31.3675V31.3675H150.951V31.3675Z" fill="#C9EAF1"/>
<rect x="171.074" y="74.208" width="45.2051" height="3.01367" fill="#D9D9D9"/>
<rect x="228.195" y="74.208" width="45.2051" height="3.01367" fill="#D9D9D9"/>
<rect x="171.074" y="85.8906" width="66.208" height="3.24549" fill="#D9D9D9"/>
<rect x="171.074" y="95.6279" width="48.6824" height="3.24549" fill="#D9D9D9"/>
<rect x="171.074" y="119.646" width="45.2051" height="3.01367" fill="#D9D9D9"/>
<rect x="171.074" y="176.765" width="45.2051" height="3.01367" fill="#115766"/>
<rect x="299.596" y="176.765" width="40.2441" height="3.24549" fill="#115766"/>
<rect x="169.125" y="133.276" width="170.713" height="3.89459" fill="#D9D9D9"/>
<rect x="169.125" y="143.013" width="170.713" height="3.89459" fill="#D9D9D9"/>
<rect x="169.125" y="152.75" width="170.713" height="3.89459" fill="#D9D9D9"/>
<rect x="169.125" y="162.485" width="170.713" height="3.89459" fill="#D9D9D9"/>
<rect x="171.074" y="49.543" width="62.0816" height="10.2465" fill="#46B2C8"/>
<g filter="url(#filter2_d_1633_14702)">
<rect x="237.318" y="137.551" width="180.832" height="151.381" rx="25" fill="white"/>
</g>
<path d="M237.318 155.811C237.318 145.726 245.494 137.551 255.578 137.551H399.891C409.975 137.551 418.151 145.726 418.151 155.811V155.811H237.318V155.811Z" fill="#C9EAF1"/>
<path d="M282.424 173.229H267.417C266.985 173.229 266.571 173.058 266.266 172.752C265.961 172.447 265.789 172.033 265.789 171.601C265.789 171.169 265.961 170.755 266.266 170.45C266.571 170.144 266.985 169.973 267.417 169.973H282.424C282.856 169.973 283.27 170.144 283.575 170.45C283.88 170.755 284.052 171.169 284.052 171.601C284.052 172.033 283.88 172.447 283.575 172.752C283.27 173.058 282.856 173.229 282.424 173.229Z" fill="#263238"/>
<path d="M282.424 181.751H267.417C266.985 181.751 266.571 181.579 266.266 181.274C265.961 180.968 265.789 180.554 265.789 180.122C265.789 179.691 265.961 179.276 266.266 178.971C266.571 178.666 266.985 178.494 267.417 178.494H282.424C282.856 178.494 283.27 178.666 283.575 178.971C283.88 179.276 284.052 179.691 284.052 180.122C284.052 180.554 283.88 180.968 283.575 181.274C283.27 181.579 282.856 181.751 282.424 181.751Z" fill="#E0E0E0"/>
<path d="M282.424 190.556H267.417C266.985 190.556 266.571 190.385 266.266 190.079C265.961 189.774 265.789 189.36 265.789 188.928C265.789 188.496 265.961 188.082 266.266 187.777C266.571 187.471 266.985 187.3 267.417 187.3H282.424C282.856 187.3 283.27 187.471 283.575 187.777C283.88 188.082 284.052 188.496 284.052 188.928C284.052 189.36 283.88 189.774 283.575 190.079C283.27 190.385 282.856 190.556 282.424 190.556Z" fill="#46B2C8"/>
<path d="M276.023 207.585H267.417C266.985 207.585 266.571 207.413 266.266 207.108C265.961 206.802 265.789 206.388 265.789 205.956C265.789 205.525 265.961 205.11 266.266 204.805C266.571 204.5 266.985 204.328 267.417 204.328H276.023C276.455 204.328 276.869 204.5 277.174 204.805C277.48 205.11 277.651 205.525 277.651 205.956C277.651 206.388 277.48 206.802 277.174 207.108C276.869 207.413 276.455 207.585 276.023 207.585Z" fill="#263238"/>
<path d="M276.023 216.415H267.417C266.985 216.415 266.571 216.243 266.266 215.938C265.961 215.632 265.789 215.218 265.789 214.786C265.789 214.355 265.961 213.94 266.266 213.635C266.571 213.33 266.985 213.158 267.417 213.158H276.023C276.455 213.158 276.869 213.33 277.174 213.635C277.48 213.94 277.651 214.355 277.651 214.786C277.651 215.218 277.48 215.632 277.174 215.938C276.869 216.243 276.455 216.415 276.023 216.415Z" fill="#263238"/>
<path d="M301.595 216.415H285.833C285.401 216.415 284.987 216.243 284.682 215.938C284.377 215.632 284.205 215.218 284.205 214.786C284.205 214.355 284.377 213.94 284.682 213.635C284.987 213.33 285.401 213.158 285.833 213.158H301.61C302.042 213.158 302.456 213.33 302.762 213.635C303.067 213.94 303.239 214.355 303.239 214.786C303.239 215.002 303.196 215.215 303.113 215.413C303.031 215.612 302.909 215.792 302.756 215.943C302.604 216.095 302.422 216.214 302.223 216.295C302.024 216.376 301.81 216.417 301.595 216.415Z" fill="#E0E0E0"/>
<path d="M292.672 224.261H276.89C276.458 224.261 276.044 224.09 275.739 223.784C275.433 223.479 275.262 223.065 275.262 222.633C275.262 222.201 275.433 221.787 275.739 221.482C276.044 221.176 276.458 221.005 276.89 221.005H292.672C293.104 221.005 293.518 221.176 293.824 221.482C294.129 221.787 294.3 222.201 294.3 222.633C294.3 223.065 294.129 223.479 293.824 223.784C293.518 224.09 293.104 224.261 292.672 224.261Z" fill="#46B2C8"/>
<path d="M295.689 229.957H285.802C284.926 229.957 284.215 230.668 284.215 231.544V231.626C284.215 232.503 284.926 233.214 285.802 233.214H295.689C296.566 233.214 297.277 232.503 297.277 231.626V231.544C297.277 230.668 296.566 229.957 295.689 229.957Z" fill="#46B2C8"/>
<path d="M295.649 250.761H285.833C285.401 250.761 284.987 250.59 284.682 250.284C284.377 249.979 284.205 249.565 284.205 249.133C284.205 248.701 284.377 248.287 284.682 247.982C284.987 247.676 285.401 247.505 285.833 247.505H295.639C296.07 247.505 296.485 247.676 296.79 247.982C297.095 248.287 297.267 248.701 297.267 249.133C297.267 249.563 297.097 249.976 296.793 250.281C296.49 250.586 296.079 250.759 295.649 250.761Z" fill="#46B2C8"/>
<path d="M295.649 269.295H285.833C285.402 269.295 284.987 269.123 284.682 268.818C284.377 268.513 284.205 268.099 284.205 267.667C284.204 267.452 284.245 267.239 284.326 267.041C284.407 266.842 284.527 266.661 284.678 266.509C284.83 266.357 285.01 266.236 285.208 266.153C285.406 266.071 285.619 266.028 285.833 266.028H295.639C296.07 266.028 296.485 266.2 296.79 266.505C297.095 266.811 297.267 267.225 297.267 267.657C297.268 267.87 297.227 268.082 297.147 268.28C297.066 268.479 296.947 268.659 296.797 268.811C296.647 268.963 296.468 269.084 296.271 269.167C296.074 269.25 295.863 269.294 295.649 269.295Z" fill="#46B2C8"/>
<path d="M319.75 269.295H302.564C302.132 269.295 301.718 269.123 301.412 268.818C301.107 268.512 300.936 268.098 300.936 267.666C300.936 267.234 301.107 266.82 301.412 266.515C301.718 266.21 302.132 266.038 302.564 266.038H319.75C320.182 266.038 320.596 266.21 320.901 266.515C321.206 266.82 321.378 267.234 321.378 267.666C321.378 268.098 321.206 268.512 320.901 268.818C320.596 269.123 320.182 269.295 319.75 269.295Z" fill="#455A64"/>
<path d="M331.772 269.295H329.296C328.864 269.295 328.45 269.123 328.145 268.818C327.84 268.512 327.668 268.098 327.668 267.666C327.668 267.234 327.84 266.82 328.145 266.515C328.45 266.21 328.864 266.038 329.296 266.038H331.772C332.204 266.038 332.618 266.21 332.923 266.515C333.228 266.82 333.4 267.234 333.4 267.666C333.4 268.098 333.228 268.512 332.923 268.818C332.618 269.123 332.204 269.295 331.772 269.295Z" fill="#E0E0E0"/>
<path d="M318.72 250.761H304.208C303.776 250.761 303.362 250.59 303.057 250.284C302.752 249.979 302.58 249.565 302.58 249.133C302.58 248.701 302.752 248.287 303.057 247.982C303.362 247.676 303.776 247.505 304.208 247.505H318.73C319.162 247.505 319.576 247.676 319.881 247.982C320.187 248.287 320.358 248.701 320.358 249.133C320.358 249.348 320.316 249.56 320.233 249.759C320.151 249.957 320.03 250.137 319.878 250.288C319.725 250.439 319.545 250.559 319.346 250.64C319.147 250.722 318.934 250.763 318.72 250.761Z" fill="#E0E0E0"/>
<path d="M350.575 258.881H304.208C303.776 258.881 303.362 258.71 303.057 258.405C302.752 258.099 302.58 257.685 302.58 257.253C302.58 256.821 302.752 256.407 303.057 256.102C303.362 255.797 303.776 255.625 304.208 255.625H350.585C351.017 255.625 351.431 255.797 351.737 256.102C352.042 256.407 352.214 256.821 352.214 257.253C352.214 257.468 352.171 257.681 352.089 257.879C352.006 258.077 351.885 258.257 351.733 258.408C351.581 258.56 351.4 258.679 351.201 258.76C351.003 258.842 350.79 258.883 350.575 258.881Z" fill="#E0E0E0"/>
<path d="M355.928 250.761H326.324C325.892 250.761 325.478 250.59 325.172 250.284C324.867 249.979 324.695 249.565 324.695 249.133C324.695 248.701 324.867 248.287 325.172 247.982C325.478 247.676 325.892 247.505 326.324 247.505H355.928C356.36 247.505 356.774 247.676 357.079 247.982C357.385 248.287 357.556 248.701 357.556 249.133C357.556 249.565 357.385 249.979 357.079 250.284C356.774 250.59 356.36 250.761 355.928 250.761Z" fill="#455A64"/>
<path d="M315.479 229.957H303.132C302.256 229.957 301.545 230.668 301.545 231.544V231.626C301.545 232.503 302.256 233.214 303.132 233.214H315.479C316.356 233.214 317.067 232.503 317.067 231.626V231.544C317.067 230.668 316.356 229.957 315.479 229.957Z" fill="#455A64"/>
<path d="M326.095 229.957H322.966C322.09 229.957 321.379 230.668 321.379 231.544V231.626C321.379 232.503 322.09 233.214 322.966 233.214H326.095C326.972 233.214 327.683 232.503 327.683 231.626V231.544C327.683 230.668 326.972 229.957 326.095 229.957Z" fill="#E0E0E0"/>
<path d="M349.49 229.957H334.07C333.193 229.957 332.482 230.668 332.482 231.544V231.626C332.482 232.503 333.193 233.214 334.07 233.214H349.49C350.366 233.214 351.077 232.503 351.077 231.626V231.544C351.077 230.668 350.366 229.957 349.49 229.957Z" fill="#E0E0E0"/>
<path d="M303.362 224.261H299.845C299.413 224.261 298.999 224.09 298.694 223.784C298.388 223.479 298.217 223.065 298.217 222.633C298.217 222.201 298.388 221.787 298.694 221.482C298.999 221.176 299.413 221.005 299.845 221.005H303.362C303.575 221.005 303.787 221.047 303.984 221.129C304.181 221.211 304.361 221.331 304.511 221.482C304.662 221.633 304.782 221.813 304.863 222.01C304.944 222.208 304.986 222.42 304.985 222.633C304.986 222.847 304.944 223.058 304.863 223.256C304.782 223.453 304.662 223.633 304.511 223.784C304.361 223.935 304.181 224.055 303.984 224.137C303.787 224.219 303.575 224.261 303.362 224.261Z" fill="#263238"/>
<path d="M333.144 224.261H310.757C310.325 224.261 309.911 224.09 309.606 223.784C309.3 223.479 309.129 223.065 309.129 222.633C309.129 222.201 309.3 221.787 309.606 221.482C309.911 221.176 310.325 221.005 310.757 221.005H333.144C333.576 221.005 333.99 221.176 334.296 221.482C334.601 221.787 334.772 222.201 334.772 222.633C334.772 223.065 334.601 223.479 334.296 223.784C333.99 224.09 333.576 224.261 333.144 224.261Z" fill="#E0E0E0"/>
<path d="M306.467 173.229H291.451C291.019 173.229 290.605 173.058 290.299 172.752C289.994 172.447 289.822 172.033 289.822 171.601C289.822 171.169 289.994 170.755 290.299 170.45C290.605 170.144 291.019 169.973 291.451 169.973H306.457C306.889 169.973 307.303 170.144 307.608 170.45C307.914 170.755 308.085 171.169 308.085 171.601C308.085 172.031 307.915 172.444 307.612 172.749C307.309 173.054 306.897 173.226 306.467 173.229Z" fill="#455A64"/>
<path d="M325.802 181.751H291.451C291.019 181.751 290.605 181.579 290.299 181.274C289.994 180.968 289.822 180.554 289.822 180.122C289.822 179.691 289.994 179.276 290.299 178.971C290.605 178.666 291.019 178.494 291.451 178.494H325.802C326.234 178.494 326.648 178.666 326.953 178.971C327.259 179.276 327.43 179.691 327.43 180.122C327.43 180.554 327.259 180.968 326.953 181.274C326.648 181.579 326.234 181.751 325.802 181.751Z" fill="#263238"/>
<path d="M362.777 190.556H291.451C291.019 190.556 290.605 190.385 290.299 190.079C289.994 189.774 289.822 189.36 289.822 188.928C289.822 188.496 289.994 188.082 290.299 187.777C290.605 187.471 291.019 187.3 291.451 187.3H362.777C363.209 187.3 363.623 187.471 363.928 187.777C364.234 188.082 364.405 188.496 364.405 188.928C364.405 189.36 364.234 189.774 363.928 190.079C363.623 190.385 363.209 190.556 362.777 190.556Z" fill="#E0E0E0"/>
<path d="M325.087 196.763H291.451C291.019 196.763 290.605 196.592 290.299 196.286C289.994 195.981 289.822 195.567 289.822 195.135C289.822 194.703 289.994 194.289 290.299 193.984C290.605 193.678 291.019 193.507 291.451 193.507H325.087C325.519 193.507 325.933 193.678 326.239 193.984C326.544 194.289 326.716 194.703 326.716 195.135C326.716 195.567 326.544 195.981 326.239 196.286C325.933 196.592 325.519 196.763 325.087 196.763Z" fill="#E0E0E0"/>
<path d="M318.202 207.585H284.576C284.144 207.585 283.73 207.413 283.424 207.108C283.119 206.802 282.947 206.388 282.947 205.956C282.947 205.525 283.119 205.11 283.424 204.805C283.73 204.5 284.144 204.328 284.576 204.328H318.202C318.634 204.328 319.048 204.5 319.353 204.805C319.659 205.11 319.83 205.525 319.83 205.956C319.83 206.388 319.659 206.802 319.353 207.108C319.048 207.413 318.634 207.585 318.202 207.585Z" fill="#455A64"/>
<path d="M337.029 207.585H325.759C325.327 207.585 324.913 207.413 324.608 207.108C324.302 206.802 324.131 206.388 324.131 205.956C324.131 205.525 324.302 205.11 324.608 204.805C324.913 204.5 325.327 204.328 325.759 204.328H337.029C337.461 204.328 337.875 204.5 338.181 204.805C338.486 205.11 338.657 205.525 338.657 205.956C338.657 206.388 338.486 206.802 338.181 207.108C337.875 207.413 337.461 207.585 337.029 207.585Z" fill="#46B2C8"/>
<path d="M365.846 207.533H344.556C344.124 207.533 343.71 207.361 343.405 207.056C343.099 206.751 342.928 206.336 342.928 205.905C342.928 205.473 343.099 205.059 343.405 204.753C343.71 204.448 344.124 204.276 344.556 204.276H365.846C366.278 204.276 366.692 204.448 366.997 204.753C367.302 205.059 367.474 205.473 367.474 205.905C367.474 206.336 367.302 206.751 366.997 207.056C366.692 207.361 366.278 207.533 365.846 207.533Z" fill="#263238"/>
<path d="M394.818 207.533H373.529C373.097 207.533 372.683 207.361 372.377 207.056C372.072 206.751 371.9 206.336 371.9 205.905C371.9 205.473 372.072 205.059 372.377 204.753C372.683 204.448 373.097 204.276 373.529 204.276H394.818C395.25 204.276 395.664 204.448 395.97 204.753C396.275 205.059 396.447 205.473 396.447 205.905C396.447 206.336 396.275 206.751 395.97 207.056C395.664 207.361 395.25 207.533 394.818 207.533Z" fill="#E0E0E0"/>
<path d="M260.061 171.6C260.061 171.927 259.964 172.247 259.783 172.519C259.601 172.791 259.343 173.003 259.041 173.128C258.738 173.253 258.406 173.286 258.085 173.222C257.764 173.158 257.47 173.001 257.238 172.769C257.007 172.538 256.849 172.243 256.786 171.923C256.722 171.602 256.755 171.269 256.88 170.967C257.005 170.665 257.217 170.407 257.489 170.225C257.761 170.043 258.081 169.946 258.408 169.946C258.846 169.946 259.267 170.121 259.577 170.431C259.887 170.741 260.061 171.161 260.061 171.6Z" fill="#455A64"/>
<path d="M260.061 180.097C260.061 180.424 259.964 180.744 259.783 181.016C259.601 181.288 259.343 181.5 259.041 181.625C258.738 181.75 258.406 181.783 258.085 181.719C257.764 181.655 257.47 181.498 257.238 181.267C257.007 181.035 256.849 180.741 256.786 180.42C256.722 180.099 256.755 179.766 256.88 179.464C257.005 179.162 257.217 178.904 257.489 178.722C257.761 178.54 258.081 178.443 258.408 178.443C258.846 178.443 259.267 178.618 259.577 178.928C259.887 179.238 260.061 179.659 260.061 180.097Z" fill="#455A64"/>
<path d="M260.061 188.954C260.061 189.281 259.964 189.6 259.783 189.872C259.601 190.144 259.343 190.356 259.041 190.481C258.738 190.607 258.406 190.639 258.085 190.576C257.764 190.512 257.47 190.354 257.238 190.123C257.007 189.892 256.849 189.597 256.786 189.276C256.722 188.955 256.755 188.623 256.88 188.321C257.005 188.019 257.217 187.76 257.489 187.579C257.761 187.397 258.081 187.3 258.408 187.3C258.846 187.3 259.267 187.474 259.577 187.784C259.887 188.094 260.061 188.515 260.061 188.954Z" fill="#455A64"/>
<path d="M260.061 197.763C260.061 198.09 259.964 198.41 259.783 198.682C259.601 198.954 259.343 199.166 259.041 199.291C258.738 199.416 258.406 199.449 258.085 199.385C257.764 199.321 257.47 199.164 257.238 198.933C257.007 198.701 256.849 198.407 256.786 198.086C256.722 197.765 256.755 197.432 256.88 197.13C257.005 196.828 257.217 196.57 257.489 196.388C257.761 196.206 258.081 196.109 258.408 196.109C258.846 196.109 259.267 196.284 259.577 196.594C259.887 196.904 260.061 197.325 260.061 197.763Z" fill="#455A64"/>
<path d="M260.061 206.594C260.061 206.921 259.964 207.241 259.783 207.513C259.601 207.785 259.343 207.997 259.041 208.122C258.738 208.247 258.406 208.28 258.085 208.216C257.764 208.152 257.47 207.995 257.238 207.764C257.007 207.532 256.849 207.238 256.786 206.917C256.722 206.596 256.755 206.264 256.88 205.961C257.005 205.659 257.217 205.401 257.489 205.219C257.761 205.037 258.081 204.94 258.408 204.94C258.846 204.94 259.267 205.115 259.577 205.425C259.887 205.735 260.061 206.156 260.061 206.594Z" fill="#455A64"/>
<path d="M260.061 215.43C260.061 215.757 259.964 216.077 259.783 216.349C259.601 216.621 259.343 216.833 259.041 216.958C258.738 217.083 258.406 217.116 258.085 217.052C257.764 216.988 257.47 216.831 257.238 216.6C257.007 216.368 256.849 216.074 256.786 215.753C256.722 215.432 256.755 215.099 256.88 214.797C257.005 214.495 257.217 214.237 257.489 214.055C257.761 213.873 258.081 213.776 258.408 213.776C258.846 213.776 259.267 213.951 259.577 214.261C259.887 214.571 260.061 214.992 260.061 215.43Z" fill="#455A64"/>
<path d="M260.061 224.26C260.061 224.587 259.964 224.907 259.783 225.179C259.601 225.451 259.343 225.663 259.041 225.788C258.738 225.913 258.406 225.946 258.085 225.882C257.764 225.818 257.47 225.661 257.238 225.43C257.007 225.198 256.849 224.904 256.786 224.583C256.722 224.262 256.755 223.93 256.88 223.627C257.005 223.325 257.217 223.067 257.489 222.885C257.761 222.703 258.081 222.606 258.408 222.606C258.625 222.606 258.84 222.649 259.041 222.732C259.241 222.815 259.423 222.937 259.577 223.091C259.731 223.244 259.852 223.427 259.936 223.627C260.019 223.828 260.061 224.043 260.061 224.26Z" fill="#455A64"/>
<path d="M260.061 233.097C260.061 233.424 259.964 233.744 259.783 234.016C259.601 234.288 259.343 234.5 259.041 234.625C258.738 234.75 258.406 234.783 258.085 234.719C257.764 234.655 257.47 234.498 257.238 234.267C257.007 234.035 256.849 233.741 256.786 233.42C256.722 233.099 256.755 232.766 256.88 232.464C257.005 232.162 257.217 231.904 257.489 231.722C257.761 231.54 258.081 231.443 258.408 231.443C258.846 231.443 259.267 231.618 259.577 231.928C259.887 232.238 260.061 232.659 260.061 233.097Z" fill="#455A64"/>
<path d="M260.061 241.926C260.061 242.253 259.964 242.573 259.783 242.845C259.601 243.117 259.343 243.329 259.041 243.454C258.738 243.579 258.406 243.612 258.085 243.548C257.764 243.484 257.47 243.327 257.238 243.096C257.007 242.864 256.849 242.57 256.786 242.249C256.722 241.928 256.755 241.596 256.88 241.293C257.005 240.991 257.217 240.733 257.489 240.551C257.761 240.369 258.081 240.272 258.408 240.272C258.625 240.272 258.84 240.315 259.041 240.398C259.241 240.481 259.423 240.603 259.577 240.757C259.731 240.91 259.852 241.093 259.936 241.293C260.019 241.494 260.061 241.709 260.061 241.926Z" fill="#455A64"/>
<path d="M260.061 250.761C260.061 251.088 259.964 251.408 259.783 251.68C259.601 251.952 259.343 252.164 259.041 252.289C258.738 252.414 258.406 252.447 258.085 252.383C257.764 252.319 257.47 252.162 257.238 251.931C257.007 251.699 256.849 251.405 256.786 251.084C256.722 250.763 256.755 250.43 256.88 250.128C257.005 249.826 257.217 249.568 257.489 249.386C257.761 249.204 258.081 249.107 258.408 249.107C258.846 249.107 259.267 249.282 259.577 249.592C259.887 249.902 260.061 250.323 260.061 250.761Z" fill="#455A64"/>
<path d="M260.061 259.596C260.06 259.923 259.963 260.242 259.78 260.514C259.598 260.785 259.339 260.996 259.037 261.121C258.735 261.245 258.402 261.277 258.082 261.213C257.761 261.148 257.467 260.99 257.236 260.759C257.006 260.527 256.849 260.233 256.785 259.912C256.722 259.591 256.755 259.259 256.88 258.957C257.006 258.655 257.218 258.397 257.489 258.216C257.761 258.034 258.081 257.938 258.408 257.938C258.847 257.939 259.267 258.114 259.577 258.425C259.887 258.736 260.061 259.157 260.061 259.596Z" fill="#455A64"/>
<path d="M260.061 268.428C260.061 268.755 259.964 269.075 259.783 269.347C259.601 269.619 259.343 269.831 259.041 269.956C258.738 270.081 258.406 270.114 258.085 270.05C257.764 269.986 257.47 269.829 257.238 269.598C257.007 269.366 256.849 269.072 256.786 268.751C256.722 268.43 256.755 268.098 256.88 267.795C257.005 267.493 257.217 267.235 257.489 267.053C257.761 266.871 258.081 266.774 258.408 266.774C258.846 266.774 259.267 266.949 259.577 267.259C259.887 267.569 260.061 267.99 260.061 268.428Z" fill="#455A64"/>
<g clip-path="url(#clip0_1633_14702)">
<path d="M229.485 228.773C228.564 228.773 227.817 229.519 227.817 230.44C227.816 234.757 224.317 238.255 220 238.254C215.684 238.254 212.185 234.754 212.186 230.438C212.187 226.122 215.686 222.623 220.002 222.623C220.923 222.623 221.669 221.877 221.669 220.956C221.669 220.035 220.923 219.288 220.002 219.288C213.844 219.292 208.854 224.283 208.85 230.44C208.85 236.599 213.842 241.591 220.001 241.591C226.16 241.591 231.152 236.599 231.152 230.44C231.152 229.519 230.406 228.773 229.485 228.773Z" fill="#FF993C"/>
<path d="M242.733 234.275C242.573 233.368 241.709 232.761 240.802 232.92L237.312 233.532C236.673 233.644 236.158 234.116 235.989 234.742C235.617 236.123 235.066 237.45 234.351 238.689C234.025 239.252 234.056 239.953 234.431 240.485L236.468 243.387C236.753 243.792 236.705 244.342 236.355 244.692L234.261 246.785C233.913 247.135 233.363 247.183 232.958 246.899L230.055 244.863C229.524 244.488 228.822 244.457 228.26 244.783C227.021 245.498 225.694 246.049 224.313 246.421C223.687 246.589 223.215 247.105 223.103 247.744L222.483 251.23C222.399 251.717 221.976 252.072 221.482 252.071H218.52C218.026 252.072 217.603 251.717 217.518 251.23L216.906 247.741C216.794 247.103 216.323 246.587 215.697 246.418C214.315 246.046 212.988 245.496 211.748 244.78C211.186 244.454 210.484 244.485 209.953 244.86L207.055 246.896C206.651 247.181 206.1 247.133 205.75 246.783L203.657 244.689C203.308 244.34 203.259 243.791 203.543 243.386L205.58 240.483C205.954 239.951 205.985 239.25 205.659 238.687C204.944 237.449 204.393 236.122 204.021 234.741C203.853 234.115 203.337 233.643 202.699 233.531L199.21 232.919C198.724 232.834 198.369 232.413 198.368 231.92V228.958C198.368 228.464 198.723 228.041 199.21 227.956L202.699 227.344C203.337 227.233 203.853 226.761 204.021 226.135C204.393 224.752 204.943 223.424 205.659 222.184C205.985 221.621 205.954 220.92 205.58 220.388L203.544 217.494C203.259 217.09 203.307 216.539 203.657 216.19L205.752 214.095C206.101 213.746 206.651 213.698 207.055 213.982L209.958 216.019C210.49 216.394 211.191 216.425 211.754 216.099C212.993 215.383 214.32 214.833 215.702 214.461C216.328 214.292 216.799 213.777 216.911 213.138L217.523 209.649C217.682 208.742 217.076 207.878 216.169 207.719C215.261 207.56 214.397 208.166 214.238 209.073L213.805 211.549C212.854 211.863 211.928 212.249 211.035 212.703L208.976 211.259C207.247 210.042 204.892 210.247 203.399 211.745L201.298 213.832C199.801 215.326 199.597 217.68 200.813 219.409L202.258 221.468C201.803 222.361 201.417 223.287 201.103 224.239L198.627 224.672C196.547 225.038 195.031 226.846 195.033 228.958V231.92C195.031 234.034 196.55 235.844 198.633 236.207L201.108 236.642C201.422 237.593 201.808 238.518 202.263 239.411L200.813 241.47C199.597 243.2 199.802 245.554 201.299 247.047L203.394 249.14C204.887 250.637 207.242 250.842 208.971 249.625L211.024 248.181C211.916 248.635 212.842 249.021 213.793 249.335L214.227 251.811C214.592 253.895 216.404 255.413 218.52 255.406H221.482C223.596 255.409 225.406 253.889 225.769 251.806L226.203 249.33C227.154 249.016 228.08 248.63 228.973 248.176L231.033 249.62C232.763 250.837 235.117 250.631 236.61 249.134L238.705 247.039C240.202 245.546 240.407 243.192 239.191 241.462L237.748 239.41C238.202 238.517 238.588 237.591 238.902 236.64L241.378 236.205C242.285 236.046 242.892 235.182 242.733 234.275Z" fill="#FF993C"/>
<path d="M257.579 204.868L255.835 204.562C255.617 203.933 255.36 203.318 255.065 202.722L256.091 201.276C257.149 199.773 256.97 197.727 255.669 196.429L254.017 194.773C252.719 193.469 250.669 193.29 249.165 194.349L247.714 195.366C247.117 195.072 246.502 194.815 245.873 194.597L245.573 192.86C245.257 191.049 243.684 189.728 241.845 189.731H239.512C237.674 189.729 236.101 191.05 235.786 192.861L235.479 194.606C234.85 194.824 234.235 195.081 233.639 195.375L232.188 194.349C230.684 193.292 228.638 193.47 227.34 194.771L225.691 196.423C224.387 197.722 224.208 199.771 225.268 201.276L226.285 202.727C225.99 203.324 225.733 203.938 225.515 204.567L223.777 204.868C221.967 205.183 220.646 206.756 220.648 208.594V210.927C220.645 212.766 221.966 214.34 223.777 214.656L225.52 214.961C225.738 215.59 225.995 216.205 226.29 216.802L225.271 218.253C224.214 219.756 224.391 221.801 225.691 223.1L227.34 224.75C228.639 226.052 230.685 226.23 232.189 225.172L233.644 224.155C234.241 224.449 234.855 224.706 235.484 224.924L235.791 226.669C236.107 228.479 237.68 229.8 239.517 229.797H241.851C243.689 229.797 245.26 228.474 245.573 226.662L245.878 224.919C246.507 224.701 247.122 224.444 247.719 224.149L249.165 225.173C250.669 226.233 252.719 226.054 254.017 224.75L255.668 223.099C256.968 221.801 257.147 219.756 256.091 218.253L255.072 216.797C255.366 216.2 255.623 215.585 255.841 214.956L257.586 214.65C259.392 214.332 260.709 212.763 260.709 210.928V208.595C260.712 206.757 259.391 205.183 257.579 204.868ZM257.374 210.932C257.374 211.15 257.218 211.336 257.003 211.374L254.253 211.856C253.615 211.968 253.099 212.44 252.931 213.065C252.645 214.124 252.223 215.142 251.675 216.091C251.349 216.654 251.38 217.355 251.754 217.887L253.359 220.176C253.485 220.354 253.463 220.596 253.309 220.75L251.66 222.4C251.504 222.549 251.264 222.566 251.089 222.441L248.797 220.837C248.265 220.463 247.564 220.432 247.001 220.758C246.051 221.306 245.034 221.729 243.975 222.014C243.35 222.184 242.88 222.701 242.77 223.339L242.288 226.089C242.251 226.303 242.064 226.46 241.847 226.46H239.512C239.294 226.46 239.108 226.303 239.071 226.089L238.587 223.339C238.475 222.7 238.004 222.185 237.378 222.016C236.318 221.731 235.301 221.309 234.35 220.761C233.788 220.434 233.086 220.466 232.555 220.84L230.273 222.441C230.095 222.566 229.852 222.545 229.698 222.391L228.048 220.741C227.894 220.587 227.873 220.345 227.998 220.167L229.603 217.878C229.978 217.346 230.009 216.645 229.683 216.082C229.134 215.133 228.712 214.116 228.427 213.056C228.256 212.432 227.74 211.963 227.102 211.853L224.352 211.371C224.137 211.334 223.981 211.147 223.981 210.93L223.982 208.595C223.982 208.378 224.139 208.191 224.353 208.154L227.102 207.67C227.74 207.558 228.256 207.087 228.424 206.461C228.709 205.402 229.132 204.385 229.68 203.435C230.006 202.872 229.975 202.171 229.601 201.639L228 199.352C227.874 199.174 227.895 198.931 228.05 198.777L229.701 197.126C229.854 196.972 230.097 196.951 230.275 197.076L232.562 198.681C233.094 199.055 233.795 199.087 234.358 198.761C235.308 198.212 236.325 197.79 237.384 197.505C238.01 197.336 238.482 196.821 238.594 196.182L239.076 193.432C239.115 193.222 239.298 193.068 239.512 193.067H241.845C242.063 193.066 242.249 193.223 242.287 193.437L242.769 196.187C242.881 196.826 243.353 197.342 243.979 197.51C245.038 197.795 246.055 198.217 247.005 198.766C247.567 199.092 248.269 199.061 248.8 198.686L251.089 197.081C251.267 196.956 251.51 196.977 251.663 197.131L253.314 198.782C253.464 198.937 253.483 199.176 253.359 199.352L251.754 201.644C251.38 202.176 251.349 202.877 251.675 203.44C252.223 204.39 252.645 205.407 252.931 206.466C253.099 207.092 253.615 207.564 254.253 207.675L257.003 208.158C257.218 208.195 257.374 208.381 257.374 208.599V210.932Z" fill="#FF993C"/>
<path d="M240.678 201.796C236.278 201.796 232.711 205.363 232.711 209.763C232.716 214.161 236.28 217.725 240.678 217.73C245.078 217.73 248.645 214.163 248.645 209.763C248.645 205.363 245.078 201.796 240.678 201.796ZM240.678 214.395C238.12 214.395 236.046 212.321 236.046 209.763C236.045 207.203 238.119 205.127 240.678 205.125V205.131C243.236 205.131 245.31 207.205 245.31 209.763C245.31 212.321 243.236 214.395 240.678 214.395Z" fill="#FF993C"/>
</g>
<defs>
<filter id="filter0_d_1633_14702" x="0" y="89.0674" width="146.518" height="225.428" filterUnits="userSpaceOnUse" color-interpolation-filters="sRGB">
<feFlood flood-opacity="0" result="BackgroundImageFix"/>
<feColorMatrix in="SourceAlpha" type="matrix" values="0 0 0 0 0 0 0 0 0 0 0 0 0 0 0 0 0 0 127 0" result="hardAlpha"/>
<feOffset dy="8"/>
<feGaussianBlur stdDeviation="8"/>
<feComposite in2="hardAlpha" operator="out"/>
<feColorMatrix type="matrix" values="0 0 0 0 0 0 0 0 0 0 0 0 0 0 0 0 0 0 0.08 0"/>
<feBlend mode="normal" in2="BackgroundImageFix" result="effect1_dropShadow_1633_14702"/>
<feBlend mode="normal" in="SourceGraphic" in2="effect1_dropShadow_1633_14702" result="shape"/>
</filter>
<filter id="filter1_d_1633_14702" x="134.951" y="0" width="239.062" height="240.36" filterUnits="userSpaceOnUse" color-interpolation-filters="sRGB">
<feFlood flood-opacity="0" result="BackgroundImageFix"/>
<feColorMatrix in="SourceAlpha" type="matrix" values="0 0 0 0 0 0 0 0 0 0 0 0 0 0 0 0 0 0 127 0" result="hardAlpha"/>
<feOffset dy="8"/>
<feGaussianBlur stdDeviation="8"/>
<feComposite in2="hardAlpha" operator="out"/>
<feColorMatrix type="matrix" values="0 0 0 0 0 0 0 0 0 0 0 0 0 0 0 0 0 0 0.08 0"/>
<feBlend mode="normal" in2="BackgroundImageFix" result="effect1_dropShadow_1633_14702"/>
<feBlend mode="normal" in="SourceGraphic" in2="effect1_dropShadow_1633_14702" result="shape"/>
</filter>
<filter id="filter2_d_1633_14702" x="221.318" y="129.551" width="212.832" height="183.381" filterUnits="userSpaceOnUse" color-interpolation-filters="sRGB">
<feFlood flood-opacity="0" result="BackgroundImageFix"/>
<feColorMatrix in="SourceAlpha" type="matrix" values="0 0 0 0 0 0 0 0 0 0 0 0 0 0 0 0 0 0 127 0" result="hardAlpha"/>
<feOffset dy="8"/>
<feGaussianBlur stdDeviation="8"/>
<feComposite in2="hardAlpha" operator="out"/>
<feColorMatrix type="matrix" values="0 0 0 0 0 0 0 0 0 0 0 0 0 0 0 0 0 0 0.08 0"/>
<feBlend mode="normal" in2="BackgroundImageFix" result="effect1_dropShadow_1633_14702"/>
<feBlend mode="normal" in="SourceGraphic" in2="effect1_dropShadow_1633_14702" result="shape"/>
</filter>
<clipPath id="clip0_1633_14702">
<rect width="65.6754" height="65.6754" fill="white" transform="translate(195.033 189.731)"/>
</clipPath>
</defs>
</svg>
