<svg width="572" height="520" viewBox="0 0 572 520" fill="none" xmlns="http://www.w3.org/2000/svg">
<path d="M507.333 381.222L526.079 380.847L535.305 380.7C538.372 380.633 541.425 380.7 544.491 380.62L543.889 381.222L543.822 365.529L544.491 366.198L525.892 366.051C519.706 366.051 513.519 365.904 507.333 365.837L507.694 365.475C507.694 368.046 507.574 370.631 507.52 373.242L507.333 381.222ZM507.333 381.222L507.132 373.456C507.132 370.778 506.985 368.194 506.958 365.529V365.167H507.333C513.519 365.087 519.706 364.953 525.892 364.94L544.464 364.859H545.134V365.529L545.054 381.222V381.825H544.464C541.331 381.825 538.198 381.825 535.091 381.825L525.718 381.678L507.333 381.222Z" fill="#EBEBEB"/>
<path d="M528.048 401L546.794 400.639L556.02 400.478C559.087 400.478 562.14 400.478 565.206 400.478L564.603 401.067V385.387L565.273 386.043L546.7 385.963C540.514 385.963 534.328 385.816 528.142 385.749L528.503 385.387C528.503 387.945 528.383 390.529 528.329 393.154L528.048 401ZM528.048 401L527.847 393.234C527.847 390.623 527.7 387.972 527.673 385.32V384.959H528.048C534.234 384.892 540.42 384.744 546.607 384.744L565.179 384.664H565.849V385.347L565.782 401.027V401.63H565.193C562.059 401.63 558.926 401.63 555.819 401.549L546.446 401.402L528.048 401Z" fill="#EBEBEB"/>
<path d="M187.37 131.439L206.117 131.064L215.356 130.917C218.422 130.85 221.475 130.917 224.542 130.837L223.939 131.439L223.872 115.746L224.542 116.415L205.969 116.335C199.783 116.335 193.583 116.174 187.397 116.107L187.772 115.746C187.772 118.317 187.652 120.901 187.585 123.512L187.37 131.439ZM187.37 131.439L187.183 123.673C187.183 120.995 187.036 118.41 187.009 115.746V115.384H187.37C193.557 115.317 199.756 115.17 205.943 115.157L224.515 115.076H225.185V115.746L225.118 131.439V132.042H224.528C221.395 132.042 218.262 132.042 215.155 131.961L205.782 131.814L187.37 131.439Z" fill="#EBEBEB"/>
<path d="M208.085 151.23L226.832 150.856L236.071 150.708C239.137 150.641 242.19 150.708 245.257 150.628L244.654 151.23L244.587 135.537L245.257 136.207L226.684 136.113C220.498 136.113 214.298 135.965 208.112 135.899L208.487 135.537C208.487 138.108 208.366 140.692 208.299 143.303L208.085 151.23ZM208.085 151.23L207.898 143.464C207.898 140.786 207.75 138.188 207.724 135.537V135.175H208.085C214.272 135.175 220.471 134.975 226.658 134.961L245.23 134.881H245.899V135.55L245.833 151.244V151.806H245.243C242.11 151.806 238.977 151.806 235.87 151.806L226.497 151.659L208.085 151.23Z" fill="#EBEBEB"/>
<path d="M363.507 317.123L382.253 316.748L391.493 316.601C394.559 316.534 397.612 316.601 400.665 316.52L400.076 317.123L400.009 301.43L400.665 302.099L382.106 302.005C375.92 302.005 369.72 301.858 363.534 301.791L363.895 301.43C363.895 304 363.788 306.585 363.721 309.196L363.507 317.123ZM363.507 317.123L363.32 309.357C363.253 306.679 363.172 304.081 363.146 301.43V301.068H363.507C369.693 301.068 375.893 300.867 382.079 300.854L400.638 300.773H401.321V301.443L401.254 317.136V317.739H400.652C397.532 317.739 394.399 317.739 391.279 317.739L381.905 317.592L363.507 317.123Z" fill="#EBEBEB"/>
<path d="M384.57 336.9L403.316 336.539L412.542 336.378C415.622 336.378 418.675 336.378 421.728 336.378L421.139 336.967L421.058 321.274L421.728 321.943L403.142 321.863C396.942 321.863 390.756 321.716 384.57 321.649L384.931 321.274C384.931 323.845 384.824 326.429 384.757 329.054L384.57 336.9ZM384.57 336.9L384.382 329.134C384.382 326.523 384.221 323.872 384.208 321.207V320.845H384.583C390.769 320.778 396.956 320.631 403.155 320.631L421.714 320.551H422.384V321.22L422.317 336.914V337.516H421.714C418.594 337.516 415.448 337.516 412.341 337.436L402.968 337.289L384.57 336.9Z" fill="#EBEBEB"/>
<path d="M6.02463 401L24.7711 400.639L33.997 400.478C37.0768 400.478 40.1298 400.478 43.1828 400.478L42.5936 401.067L42.5133 385.387L43.1828 386.043L24.6238 385.963C18.4241 385.963 12.2377 385.816 6.05141 385.749L6.41295 385.387C6.41295 387.945 6.30582 390.529 6.23887 393.154L6.02463 401ZM6.02463 401L5.83716 393.234C5.83716 390.623 5.68987 387.972 5.66309 385.32V384.959H6.02463C12.211 384.892 18.3973 384.744 24.597 384.744L43.156 384.664H43.8389V385.347V401.027V401.63H43.2364C40.1164 401.63 36.9831 401.63 33.8631 401.549L24.4899 401.402L6.02463 401Z" fill="#EBEBEB"/>
<path d="M26.7395 16.363L45.4859 15.988L54.7119 15.8408C57.7916 15.7738 60.8446 15.8408 63.8976 15.7738L63.3085 16.363L63.2281 0.669516L63.8976 1.33903L45.3386 1.25869C39.1523 1.25869 32.9526 1.1114 26.7663 1.03106L27.1278 0.669516C27.1278 3.24046 27.0207 5.82479 26.9537 8.43591L26.7395 16.363ZM26.7395 16.363L26.552 8.59659C26.552 5.91852 26.4047 3.33419 26.3779 0.669516V0.307977H26.7395C32.9258 0.307977 39.1255 0.0937319 45.3119 0.0937319L63.8709 0H64.5538V0.669516V16.363V16.9655H63.9512C60.8312 16.9655 57.6979 16.9655 54.578 16.8852L45.2047 16.7379L26.7395 16.363Z" fill="#EBEBEB"/>
<path d="M6.02463 36.154L24.7711 35.7791L33.997 35.6318C37.0768 35.6318 40.1298 35.6318 43.1828 35.5514L42.5936 36.154L42.5133 20.4605L43.1828 21.13L24.6238 21.0497C18.4241 21.0497 12.2377 20.889 6.05141 20.8221L6.41295 20.4605C6.41295 23.0315 6.30582 25.6158 6.23887 28.2269L6.02463 36.154ZM6.02463 36.154L5.83716 28.3876C5.83716 25.7095 5.68987 23.1252 5.66309 20.4605V20.099H6.02463C12.211 20.0186 18.3973 19.8847 24.597 19.8714L43.156 19.791H43.8389V20.4605V36.154V36.7566H43.2364C40.1164 36.7566 36.9831 36.7566 33.8631 36.7566L24.4899 36.6093L6.02463 36.154Z" fill="#EBEBEB"/>
<path d="M528.048 16.363L546.794 15.988L556.02 15.8408C559.087 15.7738 562.14 15.8408 565.206 15.7738L564.603 16.363V0.669516L565.273 1.33903L546.7 1.25869C540.514 1.25869 534.328 1.1114 528.142 1.03106L528.503 0.669516C528.503 3.24046 528.383 5.82479 528.329 8.43591L528.048 16.363ZM528.048 16.363L527.847 8.59659C527.847 5.91852 527.7 3.33419 527.673 0.669516V0.307977H528.048C534.234 0.307977 540.42 0.0937319 546.607 0.0937319L565.179 0H565.849V0.669516L565.782 16.363V16.9655H565.193C562.059 16.9655 558.926 16.9655 555.819 16.8852L546.446 16.7379L528.048 16.363Z" fill="#EBEBEB"/>
<path d="M405.633 317.123L424.379 316.748L433.605 316.601C436.672 316.534 439.725 316.601 442.791 316.52L442.188 317.123L442.121 301.43L442.791 302.099L424.219 302.005C418.032 302.005 411.846 301.858 405.66 301.791L406.021 301.43C406.021 304 405.901 306.585 405.847 309.196L405.633 317.123ZM405.633 317.123L405.432 309.357C405.432 306.679 405.285 304.081 405.258 301.43V301.068H405.633C411.819 301.068 418.005 300.867 424.192 300.854L442.764 300.773H443.434V301.443L443.367 317.136V317.739H442.778C439.644 317.739 436.511 317.739 433.404 317.739L424.031 317.592L405.633 317.123Z" fill="#EBEBEB"/>
<path d="M86.6748 229.363V169.99H27.3021L27.3021 229.363H86.6748Z" fill="#DBDBDB"/>
<path d="M77.4629 220.149V179.188H36.5019V220.149H77.4629Z" fill="white"/>
<path d="M77.462 179.203H36.501V220.164L77.462 179.203Z" fill="#EBEBEB"/>
<path d="M21.5047 229.363H27.3027L27.3027 169.991H21.5047L21.5047 229.363Z" fill="#C7C7C7"/>
<path d="M160.174 229.376V170.003H100.801V229.376H160.174Z" fill="#DBDBDB"/>
<path d="M150.962 220.15V179.189H110.001V220.15H150.962Z" fill="white"/>
<path d="M138.938 179.203H110.002V208.126L138.938 179.203Z" fill="#EBEBEB"/>
<path d="M95.0037 229.363H100.802L100.802 169.991H95.0037V229.363Z" fill="#C7C7C7"/>
<path d="M160.161 321.181V243.584H27.2889V321.181H160.161Z" fill="#DBDBDB"/>
<path d="M150.466 311.58V253.171H36.9962V311.58H150.466Z" fill="white"/>
<path d="M111.38 253.171H36.9971V291.454L111.38 253.171Z" fill="#EBEBEB"/>
<path d="M21.5047 321.167H27.3027L27.3027 243.57H21.5047L21.5047 321.167Z" fill="#C7C7C7"/>
<path d="M160.174 156.158V23.2861L27.3016 23.2861V156.158H160.174Z" fill="#DBDBDB"/>
<path d="M150.48 32.9805H36.9971V146.437H150.48V32.9805Z" fill="white"/>
<path d="M36.9971 114.674C54.2438 97.5212 103.119 48.8875 118.825 32.9932H36.9971V114.674Z" fill="#EBEBEB"/>
<path d="M21.5047 156.158H27.3027L27.3027 23.286H21.5047L21.5047 156.158Z" fill="#C7C7C7"/>
<path d="M479.146 422.384H390.261V507.787H479.146V422.384Z" fill="#EBEBEB"/>
<path d="M512.93 422.384H479.146V507.787H512.93V422.384Z" fill="#C7C7C7"/>
<path d="M390.261 465.086H479.146L409.73 467.282L390.261 465.086Z" fill="#C7C7C7"/>
<path d="M479.146 497.479H390.261L459.676 499.675L479.146 497.479Z" fill="#C7C7C7"/>
<path d="M390.261 441.211H446.554L396.514 443.005L390.261 441.211Z" fill="#C7C7C7"/>
<path d="M479.146 484.904H422.84L472.893 486.699L479.146 484.904Z" fill="#C7C7C7"/>
<path d="M411.578 431.704H475.075L464.497 432.789L411.578 431.704Z" fill="#C7C7C7"/>
<path d="M398.896 474.245H462.407L451.815 475.316L398.896 474.245Z" fill="#C7C7C7"/>
<path d="M437.944 449.34H479.146L486.498 452.219L437.944 449.34Z" fill="#EBEBEB"/>
<path d="M378.919 449.34H420.108L427.459 452.219L378.919 449.34Z" fill="#DBDBDB"/>
<path d="M431.77 487.729H390.581L383.217 490.594L431.77 487.729Z" fill="#DBDBDB"/>
<path d="M479.146 477.98H512.221L519.585 480.859L479.146 477.98Z" fill="#C7C7C7"/>
<path d="M490.688 465.086H516.343L512.915 462.743L490.688 465.086Z" fill="#C7C7C7"/>
<path d="M530.082 391.493C523.293 391.493 509.528 386.136 511.858 381.664C514.188 377.192 521.231 382.936 521.539 383.11C521.339 382.775 516.746 373.804 520.843 372.251C524.941 370.697 529.065 375.023 530.082 379.99C531.113 375.023 535.144 370.617 539.335 372.251C543.526 373.884 538.826 382.775 538.639 383.11C538.933 382.936 546.057 377.259 548.32 381.664C550.583 386.07 536.885 391.493 530.082 391.493Z" fill="#115766"/>
<path d="M564.416 428.183C564.082 431.934 563.505 435.66 562.689 439.337C561.068 446.634 558.417 453.718 554.654 458.458C538.837 464.635 521.275 464.635 505.458 458.458C497.344 448.335 494.451 427.5 495.603 416.774C497.705 397.425 509.261 389.993 519.304 387.382C522.803 386.482 526.403 386.032 530.016 386.043C539.858 386.043 561.524 389.605 564.469 416.841C564.802 420.615 564.784 424.412 564.416 428.183Z" fill="#46B2C8"/>
<path d="M530.726 385.989C531.007 392.417 531.168 398.844 531.289 405.271C531.409 411.699 531.436 418.139 531.463 424.567C531.489 430.994 531.396 437.421 531.208 443.862C531.158 450.293 530.71 456.715 529.869 463.091L530.124 460.694L530.257 458.297C530.365 456.69 530.365 455.083 530.418 453.477C530.498 450.263 530.539 447.063 530.552 443.849C530.606 437.422 530.606 430.994 530.552 424.567V405.285C530.646 398.857 530.646 392.43 530.726 385.989Z" fill="white"/>
<path d="M526.548 386.137C525.6 389.214 524.831 392.344 524.245 395.51C523.616 398.657 523.147 401.83 522.745 405.004C521.958 411.362 521.511 417.759 521.406 424.165V428.972C521.406 430.566 521.473 432.173 521.487 433.766C521.487 436.98 521.781 440.167 521.929 443.367C521.929 444.974 522.143 446.567 522.29 448.161L522.719 452.954L523.803 462.529C523.281 459.355 522.759 456.182 522.29 453.008L521.741 448.214C521.567 446.621 521.366 445.027 521.259 443.421C521.005 440.22 520.764 437.007 520.697 433.793C520.697 432.186 520.563 430.579 520.576 428.972V424.138C520.707 417.697 521.207 411.268 522.076 404.883C522.924 398.498 524.422 392.217 526.548 386.137Z" fill="white"/>
<path d="M520.978 386.928C519.009 389.545 517.371 392.397 516.104 395.417C515.782 396.167 515.434 396.904 515.14 397.667L514.323 399.97L513.908 401.135C513.787 401.523 513.68 401.911 513.573 402.313L512.917 404.67C511.342 411.01 510.594 417.527 510.694 424.059L510.801 428.947L511.27 433.834L511.511 436.271C511.631 437.075 511.792 437.878 511.926 438.681L512.756 443.515C512.889 444.323 513.063 445.123 513.278 445.912L513.854 448.296L515.019 453.076L517.925 462.449C516.787 459.369 515.715 456.263 514.604 453.17L513.265 448.403L512.622 446.033C512.408 445.229 512.18 444.439 512.046 443.622L511.136 438.775C510.989 437.972 510.828 437.155 510.694 436.351L510.44 433.888L509.917 428.973L509.77 424.032C509.706 417.431 510.53 410.851 512.22 404.469L512.944 402.099C513.064 401.711 513.171 401.309 513.305 400.921L513.747 399.769L514.631 397.453C514.952 396.703 515.314 395.953 515.662 395.216C517.065 392.234 518.852 389.447 520.978 386.928Z" fill="white"/>
<path d="M516.879 388.038C514.315 390.174 512.061 392.657 510.184 395.416C508.271 398.13 506.676 401.055 505.43 404.133C502.936 410.278 501.667 416.851 501.694 423.482C501.694 425.143 501.775 426.79 501.828 428.437C501.882 430.084 502.096 431.744 502.377 433.378L502.752 435.842L503.261 438.265C503.422 439.082 503.596 439.899 503.81 440.702L504.413 443.112C504.841 444.719 505.363 446.299 505.832 447.893L507.506 452.579L509.354 457.226L511.389 461.792C508.254 455.897 505.732 449.696 503.864 443.287C503.435 441.68 502.926 440.073 502.618 438.426L502.096 435.975L501.694 433.498C501.387 431.851 501.293 430.164 501.092 428.504C500.891 426.843 500.878 425.156 500.931 423.469C500.937 416.731 502.304 410.063 504.948 403.865C506.277 400.785 507.957 397.869 509.956 395.175C510.956 393.832 512.038 392.553 513.197 391.345C514.322 390.134 515.554 389.027 516.879 388.038Z" fill="white"/>
<path d="M534.662 386.137C536.796 392.214 538.294 398.497 539.134 404.883C540.018 411.257 540.528 417.678 540.661 424.112V428.986C540.661 430.593 540.581 432.199 540.54 433.806C540.474 437.033 540.232 440.234 539.978 443.434C539.884 445.041 539.683 446.634 539.496 448.241L538.947 453.021C538.483 456.208 537.978 459.382 537.434 462.542L538.532 452.981L538.947 448.187C539.094 446.594 539.255 444.987 539.309 443.394C539.469 440.193 539.724 436.993 539.75 433.793C539.75 432.186 539.858 430.579 539.831 428.986V424.179C539.719 417.772 539.272 411.377 538.492 405.017C538.09 401.844 537.621 398.67 536.979 395.537C536.397 392.359 535.624 389.22 534.662 386.137Z" fill="white"/>
<path d="M540.22 386.967C542.33 389.496 544.1 392.292 545.482 395.282C545.83 396.032 546.192 396.769 546.513 397.532L547.397 399.835L547.839 400.986C547.973 401.375 548.08 401.777 548.2 402.165L548.923 404.535C550.615 410.921 551.439 417.506 551.374 424.112L551.227 429.053L550.718 433.967L550.45 436.417C550.329 437.234 550.155 438.038 550.008 438.854L549.098 443.702C548.947 444.51 548.755 445.31 548.522 446.098L547.879 448.482L546.54 453.236C545.442 456.342 544.357 459.435 543.233 462.515L546.125 453.142L547.29 448.375L547.879 445.991C548.066 445.188 548.281 444.398 548.388 443.595L549.218 438.761C549.352 437.944 549.513 437.14 549.633 436.337L549.874 433.9L550.343 429.026L550.45 424.125C550.549 417.593 549.802 411.076 548.227 404.736L547.571 402.379C547.464 401.991 547.357 401.589 547.236 401.201L546.835 400.049L546.004 397.733C545.71 396.983 545.362 396.246 545.04 395.483C543.791 392.456 542.172 389.596 540.22 386.967Z" fill="white"/>
<path d="M544.316 388.078C545.661 389.068 546.915 390.175 548.066 391.386C549.225 392.593 550.307 393.872 551.306 395.215C553.31 397.913 554.995 400.834 556.328 403.919C558.967 410.118 560.333 416.785 560.345 423.522C560.345 425.196 560.251 426.87 560.171 428.544C560.09 430.217 559.876 431.891 559.568 433.538L559.18 436.015L558.644 438.479C558.336 440.126 557.827 441.72 557.399 443.34C555.497 449.746 552.948 455.942 549.793 461.832L551.815 457.266L553.676 452.633L555.337 447.933C555.805 446.339 556.341 444.759 556.756 443.153L557.359 440.742C557.586 439.939 557.76 439.135 557.908 438.319L558.416 435.882L558.791 433.418C559.086 431.784 559.166 430.137 559.34 428.49C559.514 426.843 559.528 425.183 559.474 423.522C559.507 416.89 558.238 410.316 555.738 404.173C554.492 401.102 552.902 398.182 550.998 395.47C549.124 392.708 546.875 390.221 544.316 388.078Z" fill="white"/>
<path d="M528.437 408.967C529.464 410.344 530.412 411.779 531.275 413.265H530.753C531.248 412.395 531.757 411.538 532.28 410.708C532.547 410.279 532.815 409.864 533.096 409.449C533.378 409.034 533.659 408.632 533.967 408.23C533.793 408.699 533.565 409.154 533.364 409.57C533.163 409.985 532.936 410.467 532.708 410.909C532.253 411.792 531.771 412.663 531.275 413.587L531.007 414.042L530.753 413.587C529.89 412.094 529.116 410.552 528.437 408.967Z" fill="white"/>
<path d="M530.805 406.745C531.273 408.947 531.345 411.213 531.02 413.44C530.535 411.241 530.462 408.971 530.805 406.745Z" fill="white"/>
<path d="M550.731 386.137C550.831 387.854 550.831 389.575 550.731 391.292L550.289 391.011C551.173 390.542 552.057 390.1 552.967 389.672C553.405 389.458 553.851 389.257 554.306 389.069C554.762 388.882 555.217 388.681 555.645 388.52C555.23 388.815 554.815 389.069 554.387 389.35L553.115 390.114C552.244 390.596 551.374 391.078 550.436 391.52L549.968 391.761V391.238C550.129 389.525 550.384 387.822 550.731 386.137Z" fill="white"/>
<path d="M553.904 385.614C553.516 386.663 553.027 387.672 552.445 388.627C551.878 389.585 551.214 390.483 550.463 391.305C550.843 390.257 551.332 389.252 551.922 388.306C552.488 387.342 553.152 386.44 553.904 385.614Z" fill="white"/>
<path d="M545.375 401.575C546.242 403.059 547.02 404.593 547.705 406.168H547.183C547.772 405.365 548.374 404.575 548.99 403.798C549.312 403.41 549.62 403.021 549.955 402.647C550.289 402.272 550.611 401.897 550.959 401.535C550.718 401.977 550.45 402.406 550.196 402.874C549.941 403.343 549.66 403.718 549.392 404.133C548.83 404.95 548.267 405.766 547.665 406.557L547.357 406.972L547.156 406.503C546.464 404.898 545.869 403.252 545.375 401.575Z" fill="white"/>
<path d="M548.052 399.647C548.166 400.76 548.166 401.882 548.052 402.995C547.979 404.11 547.786 405.215 547.476 406.289C547.245 404.042 547.435 401.771 548.039 399.594L548.052 399.647Z" fill="white"/>
<path d="M535.706 452.379C536.738 453.753 537.686 455.189 538.545 456.677H538.036C538.518 455.807 539.027 454.95 539.549 454.12C539.817 453.691 540.085 453.276 540.366 452.861C540.647 452.446 540.942 452.044 541.25 451.643C541.062 452.111 540.848 452.567 540.647 452.982L539.978 454.321C539.522 455.204 539.054 456.075 538.545 456.932L538.29 457.387L538.036 456.932C537.171 455.461 536.393 453.941 535.706 452.379Z" fill="white"/>
<path d="M538.077 450.156C538.321 451.247 538.459 452.359 538.492 453.476C538.538 454.596 538.471 455.718 538.291 456.824C537.806 454.625 537.734 452.355 538.077 450.129V450.156Z" fill="white"/>
<path d="M513.091 393.782C513.677 395.395 514.168 397.04 514.564 398.71L514.068 398.563C514.791 397.866 515.514 397.224 516.264 396.541L517.416 395.59C517.804 395.282 518.193 394.961 518.594 394.666C518.286 395.068 517.951 395.429 517.63 395.818L516.612 396.902C515.916 397.607 515.206 398.304 514.483 398.991L514.095 399.339L513.988 398.844C513.582 397.177 513.282 395.487 513.091 393.782Z" fill="white"/>
<path d="M515.996 392.337C515.918 393.451 515.729 394.554 515.434 395.631C515.148 396.713 514.762 397.767 514.282 398.778C514.354 397.659 514.542 396.55 514.845 395.47C515.116 394.388 515.502 393.338 515.996 392.337Z" fill="white"/>
<path d="M565.929 412.302C565.847 414.016 565.664 415.724 565.38 417.417L564.992 417.082C565.916 416.721 566.853 416.386 567.79 416.078L569.21 415.636L570.669 415.248C570.227 415.502 569.772 415.703 569.33 415.931L567.991 416.546C567.081 416.935 566.157 417.296 565.219 417.644L564.737 417.819L564.831 417.323C565.091 415.628 565.457 413.951 565.929 412.302Z" fill="white"/>
<path d="M569.169 412.087C568.668 413.09 568.062 414.037 567.361 414.912C566.688 415.805 565.925 416.626 565.085 417.363C565.594 416.364 566.199 415.418 566.893 414.537C567.566 413.645 568.329 412.824 569.169 412.087Z" fill="white"/>
<path d="M518.594 431.209C519.634 432.572 520.595 433.994 521.473 435.467H520.964C521.432 434.596 521.928 433.739 522.45 432.882C522.718 432.467 522.972 432.039 523.254 431.624C523.535 431.209 523.803 430.807 524.111 430.405C523.936 430.874 523.722 431.316 523.521 431.744C523.321 432.173 523.106 432.641 522.879 433.083C522.437 433.98 521.968 434.851 521.54 435.761L521.272 436.203L521.017 435.761C520.117 434.295 519.308 432.774 518.594 431.209Z" fill="white"/>
<path d="M520.978 428.986C521.489 431.181 521.589 433.451 521.272 435.681C520.779 433.485 520.679 431.218 520.978 428.986Z" fill="white"/>
<path d="M500.879 442.59C502.379 443.455 503.823 444.412 505.204 445.456L504.722 445.657C504.842 444.666 504.976 443.688 505.15 442.697C505.231 442.215 505.325 441.72 505.418 441.238C505.512 440.756 505.619 440.26 505.753 439.778C505.753 440.274 505.753 440.783 505.753 441.278C505.753 441.773 505.753 442.269 505.659 442.764C505.579 443.755 505.472 444.746 505.338 445.724L505.271 446.246L504.869 445.924C503.474 444.893 502.142 443.779 500.879 442.59Z" fill="white"/>
<path d="M502.204 439.618C503.487 441.459 504.422 443.52 504.963 445.697C504.319 444.781 503.767 443.803 503.315 442.778C502.836 441.766 502.463 440.707 502.204 439.618Z" fill="white"/>
<path d="M496.473 397.438C498.085 398.038 499.659 398.735 501.186 399.527L500.758 399.808C500.691 398.817 500.637 397.827 500.624 396.836C500.624 396.34 500.624 395.845 500.624 395.336C500.624 394.827 500.624 394.345 500.624 393.85C500.731 394.332 500.798 394.827 500.878 395.323C500.958 395.818 501.012 396.3 501.066 396.795C501.173 397.786 501.266 398.777 501.32 399.768V400.29L500.865 400.063C499.349 399.277 497.882 398.401 496.473 397.438Z" fill="white"/>
<path d="M497.169 394.278C497.978 395.052 498.71 395.905 499.352 396.823C500.004 397.736 500.569 398.709 501.039 399.728C500.229 398.954 499.498 398.102 498.856 397.184C498.204 396.271 497.639 395.298 497.169 394.278Z" fill="white"/>
<path d="M557.104 430.071C557.999 431.536 558.808 433.052 559.528 434.61H559.019C559.582 433.793 560.157 432.99 560.773 432.213C561.068 431.812 561.376 431.423 561.697 431.035C562.019 430.647 562.34 430.272 562.688 429.91C562.461 430.365 562.206 430.781 561.952 431.249L561.175 432.521C560.64 433.351 560.077 434.182 559.501 434.985L559.193 435.414L558.993 434.932C558.264 433.352 557.633 431.728 557.104 430.071Z" fill="white"/>
<path d="M559.675 428.075C559.813 429.186 559.844 430.307 559.769 431.423C559.712 432.54 559.541 433.648 559.26 434.73C558.991 432.492 559.131 430.223 559.675 428.035V428.075Z" fill="white"/>
<path d="M501.106 458.94H559.528L553.65 507.788H506.985L501.106 458.94Z" fill="#115766"/>
<path d="M501.106 458.94L502.432 469.961L558.524 467.256L559.528 458.94H501.106Z" fill="#023A59"/>
<path d="M563.211 452.767H497.438V461.497H563.211V452.767Z" fill="#115766"/>
<path d="M0 507.789L71.3972 507.467L142.794 507.347L285.602 507.119L428.397 507.347L499.807 507.467L571.205 507.789L499.807 508.123L428.397 508.244L285.602 508.458L142.794 508.231L71.3972 508.123L0 507.789Z" fill="#023A59"/>
<path d="M535.707 41.0557H232.644V261.862H535.707V41.0557Z" fill="white"/>
<path d="M536.376 262.531H232.041V40.3857H536.376V262.531ZM233.313 261.192H535.037V41.7248H233.38L233.313 261.192Z" fill="#EBEBEB"/>
<path d="M535.707 41.0557H232.644V56.6018H535.707V41.0557Z" fill="#46B2C8"/>
<path d="M245.645 48.8354C245.645 49.5293 245.44 50.2076 245.054 50.7845C244.669 51.3614 244.121 51.8111 243.48 52.0766C242.839 52.3422 242.133 52.4116 241.453 52.2763C240.772 52.1409 240.147 51.8068 239.656 51.3161C239.166 50.8255 238.832 50.2004 238.696 49.5198C238.561 48.8393 238.63 48.1339 238.896 47.4929C239.161 46.8518 239.611 46.3039 240.188 45.9184C240.765 45.5329 241.443 45.3271 242.137 45.3271C242.598 45.3271 243.054 45.4179 243.48 45.5942C243.905 45.7705 244.292 46.0289 244.618 46.3547C244.944 46.6805 245.202 47.0672 245.378 47.4929C245.555 47.9185 245.645 48.3747 245.645 48.8354Z" fill="#A6A6A6"/>
<path d="M259.974 48.8354C259.974 49.5293 259.768 50.2076 259.382 50.7845C258.997 51.3614 258.449 51.8111 257.808 52.0766C257.167 52.3422 256.461 52.4116 255.781 52.2763C255.1 52.1409 254.475 51.8068 253.985 51.3161C253.494 50.8255 253.16 50.2004 253.024 49.5198C252.889 48.8393 252.959 48.1339 253.224 47.4929C253.49 46.8518 253.939 46.3039 254.516 45.9184C255.093 45.5329 255.771 45.3271 256.465 45.3271C257.396 45.3271 258.288 45.6968 258.946 46.3547C259.604 47.0126 259.974 47.905 259.974 48.8354Z" fill="#115766"/>
<path d="M274.301 48.8354C274.301 49.5293 274.095 50.2076 273.709 50.7845C273.324 51.3614 272.776 51.8111 272.135 52.0766C271.494 52.3422 270.789 52.4116 270.108 52.2763C269.427 52.1409 268.802 51.8068 268.312 51.3161C267.821 50.8255 267.487 50.2004 267.352 49.5198C267.216 48.8393 267.286 48.1339 267.551 47.4929C267.817 46.8518 268.266 46.3039 268.843 45.9184C269.42 45.5329 270.099 45.3271 270.792 45.3271C271.723 45.3271 272.615 45.6968 273.273 46.3547C273.931 47.0126 274.301 47.905 274.301 48.8354Z" fill="white"/>
<path d="M263.909 99.1963H253.505V102.999H263.909V99.1963Z" fill="#115766"/>
<path d="M392.524 99.1963H271.489V102.999H392.524V99.1963Z" fill="#115766"/>
<path d="M418.662 99.1963H398.911V102.999H418.662V99.1963Z" fill="#46B2C8"/>
<path d="M450.263 150.013H430.513V153.816H450.263V150.013Z" fill="#115766"/>
<path d="M489.536 99.1963H422.946V102.999H489.536V99.1963Z" fill="#A6A6A6"/>
<path d="M274.301 109.36H263.91V113.163H274.301V109.36Z" fill="#115766"/>
<path d="M359.906 109.359H281.626V113.162H359.906V109.359Z" fill="#A6A6A6"/>
<path d="M425.812 150.013H396.206V153.816H425.812V150.013Z" fill="#A6A6A6"/>
<path d="M346.247 139.849H271.489V143.651H346.247V139.849Z" fill="#A6A6A6"/>
<path d="M334.076 119.522H281.626V123.325H334.076V119.522Z" fill="#46B2C8"/>
<path d="M464.564 129.686H412.114V133.488H464.564V129.686Z" fill="#A6A6A6"/>
<path d="M425.411 119.522H339.9V123.325H425.411V119.522Z" fill="#A6A6A6"/>
<path d="M389.445 150.013H271.489V153.816H389.445V150.013Z" fill="#46B2C8"/>
<path d="M507.373 109.36H420.751V113.163H507.373V109.36Z" fill="#46B2C8"/>
<path d="M416.452 109.36H364.819V113.163H416.452V109.36Z" fill="#115766"/>
<path d="M495.455 119.522H461.792V123.325H495.455V119.522Z" fill="#115766"/>
<path d="M274.301 119.522H263.91V123.325H274.301V119.522Z" fill="#115766"/>
<path d="M263.909 129.686H253.505V133.488H263.909V129.686Z" fill="#A6A6A6"/>
<path d="M332.937 129.686H271.489V133.488H332.937V129.686Z" fill="#115766"/>
<path d="M343.074 160.188H281.626V163.991H343.074V160.188Z" fill="#115766"/>
<path d="M477.125 170.353H397.961V174.155H477.125V170.353Z" fill="#46B2C8"/>
<path d="M411.445 160.188H348.068V163.991H411.445V160.188Z" fill="#46B2C8"/>
<path d="M392.591 170.353H337.195V174.155H392.591V170.353Z" fill="#115766"/>
<path d="M299.422 170.353H281.626V174.155H299.422V170.353Z" fill="#A6A6A6"/>
<path d="M418.649 139.85H350.479V143.652H418.649V139.85Z" fill="#115766"/>
<path d="M497.651 139.85H422.946V143.652H497.651V139.85Z" fill="#46B2C8"/>
<path d="M407.281 129.686H339.191V133.488H407.281V129.686Z" fill="#46B2C8"/>
<path d="M263.909 139.849H253.505V143.651H263.909V139.849Z" fill="#115766"/>
<path d="M263.909 150.013H253.505V153.816H263.909V150.013Z" fill="#115766"/>
<path d="M274.301 160.188H263.91V163.991H274.301V160.188Z" fill="#A6A6A6"/>
<path d="M274.301 170.353H263.91V174.155H274.301V170.353Z" fill="#115766"/>
<path d="M263.909 178.868H253.505V182.671H263.909V178.868Z" fill="#115766"/>
<path d="M393.408 178.868H271.489V182.671H393.408V178.868Z" fill="#115766"/>
<path d="M274.301 189.032H263.91V192.835H274.301V189.032Z" fill="#115766"/>
<path d="M359.906 189.032H281.626V192.835H359.906V189.032Z" fill="#A6A6A6"/>
<path d="M346.247 219.521H271.489V223.324H346.247V219.521Z" fill="#A6A6A6"/>
<path d="M334.076 199.195H281.626V202.998H334.076V199.195Z" fill="#46B2C8"/>
<path d="M425.411 199.195H339.9V202.998H425.411V199.195Z" fill="#A6A6A6"/>
<path d="M389.445 229.685H271.489V233.487H389.445V229.685Z" fill="#46B2C8"/>
<path d="M507.373 189.032H420.751V192.835H507.373V189.032Z" fill="#46B2C8"/>
<path d="M416.452 189.032H364.819V192.835H416.452V189.032Z" fill="#115766"/>
<path d="M495.455 199.195H461.792V202.998H495.455V199.195Z" fill="#115766"/>
<path d="M274.301 199.195H263.91V202.998H274.301V199.195Z" fill="#115766"/>
<path d="M263.909 209.358H253.505V213.161H263.909V209.358Z" fill="#A6A6A6"/>
<path d="M332.937 209.358H271.489V213.161H332.937V209.358Z" fill="#115766"/>
<path d="M418.649 219.521H350.479V223.324H418.649V219.521Z" fill="#115766"/>
<path d="M407.281 209.358H339.191V213.161H407.281V209.358Z" fill="#46B2C8"/>
<path d="M263.909 219.521H253.505V223.324H263.909V219.521Z" fill="#115766"/>
<path d="M263.575 89.649L267.069 81.3202C267.11 81.2256 267.169 81.1401 267.243 81.0686C267.317 80.997 267.405 80.941 267.501 80.9036C267.597 80.8662 267.699 80.8483 267.802 80.8508C267.905 80.8534 268.007 80.8764 268.1 80.9185C268.194 80.9564 268.279 81.0129 268.35 81.0845C268.422 81.156 268.478 81.2413 268.515 81.3351C268.553 81.4289 268.571 81.5293 268.569 81.6303C268.566 81.7313 268.544 81.8308 268.502 81.9228L265.007 90.2114C264.945 90.3511 264.844 90.4698 264.715 90.553C264.587 90.6362 264.437 90.6803 264.284 90.6801C264.192 90.7004 264.096 90.7004 264.003 90.6801C263.906 90.6419 263.818 90.5847 263.743 90.5117C263.669 90.4388 263.61 90.3516 263.57 90.2554C263.53 90.1592 263.51 90.0559 263.511 89.9518C263.512 89.8476 263.533 89.7446 263.575 89.649Z" fill="#46B2C8"/>
<path d="M176.216 167.22C208.647 168.197 240.49 239.34 220.404 265.224C200.319 291.107 174.596 281.921 164.566 299.289C160.215 306.814 157.416 300.561 148.766 292.754C140.116 284.947 105.033 240.532 108.782 215.653C112.532 190.773 145.967 166.296 176.216 167.22Z" fill="#023A59"/>
<path d="M164.968 292.686C181.693 285.442 200.854 283.621 215.677 272.252C223.029 266.628 228.197 259.331 228.787 249.877C229.336 241.334 227.314 232.47 224.622 224.435C221.216 214.189 216.02 204.628 209.277 196.195C209.143 196.021 209.397 195.794 209.545 195.968C221.154 209.947 229.563 228.345 229.965 246.757C230.129 250.805 229.456 254.844 227.988 258.62C226.52 262.396 224.29 265.829 221.435 268.704C215.169 275.131 206.974 279.336 198.672 282.442C187.705 286.54 176.243 289.138 165.263 293.155C164.901 293.262 164.66 292.82 164.968 292.686Z" fill="#023A59"/>
<path d="M174.904 343.959C217.874 394.026 289.793 455.675 314.07 441.708C334.517 429.912 350.934 354.912 351.148 331.212C351.242 320.499 277.809 296.142 277.675 307.671C277.528 319.856 274.997 354.069 273.337 353.52C267.98 351.806 253.251 342.513 200.895 317.473C171.784 303.48 146.463 310.818 174.904 343.959Z" fill="#FFBE9D"/>
<path d="M288.199 400.13C283.78 393.154 273.094 373.256 273.643 352.661C273.643 352.434 273.911 352.407 273.938 352.661C275.424 369.453 284.65 392.832 288.426 399.956C288.52 400.13 288.279 400.304 288.199 400.13Z" fill="#023A59"/>
<path d="M229.617 409.692L253.385 338.63C253.385 338.63 204.336 312.867 176.15 305.074C160.349 300.695 156.747 312.907 163.563 326.043C187.424 372.052 229.617 409.692 229.617 409.692Z" fill="#46B2C8"/>
<path d="M229.617 409.692L253.385 338.63C253.385 338.63 204.336 312.867 176.15 305.074C160.349 300.695 156.747 312.907 163.563 326.043C187.424 372.052 229.617 409.692 229.617 409.692Z" fill="#46B2C8"/>
<g opacity="0.1">
<path d="M222.812 353.651C223.114 353.756 223.364 353.972 223.51 354.255C223.641 354.521 223.671 354.824 223.595 355.11C223.519 355.396 223.341 355.644 223.095 355.809L217.351 358.594L220.096 364.379C220.165 364.522 220.206 364.677 220.215 364.836C220.223 364.995 220.2 365.154 220.147 365.303C220.093 365.453 220.01 365.591 219.902 365.708C219.794 365.825 219.664 365.919 219.52 365.985C219.231 366.098 218.911 366.098 218.623 365.985C218.319 365.873 218.067 365.654 217.913 365.369L214.672 358.487V358.353C214.66 358.3 214.66 358.245 214.672 358.192C214.663 358.162 214.663 358.129 214.672 358.098V357.978V357.871C214.671 357.831 214.671 357.79 214.672 357.75V357.63V357.549V357.429V357.362L214.766 357.242C214.82 357.201 214.914 357.121 214.914 357.121C214.956 357.081 215.006 357.049 215.061 357.027L221.89 353.693C222.181 353.561 222.511 353.546 222.812 353.651Z" fill="#030402"/>
<path d="M233.507 357.413C233.635 357.467 233.75 357.545 233.847 357.643C234.028 357.824 234.134 358.067 234.144 358.322C234.154 358.578 234.067 358.828 233.901 359.022L225.867 367.954C225.725 368.102 225.544 368.208 225.345 368.257C225.146 368.307 224.937 368.299 224.742 368.235C224.618 368.191 224.504 368.123 224.407 368.034C224.302 367.943 224.216 367.832 224.154 367.708C224.093 367.583 224.058 367.447 224.05 367.308C224.043 367.169 224.063 367.03 224.111 366.9C224.158 366.769 224.232 366.649 224.327 366.548L232.361 357.643C232.458 357.545 232.574 357.467 232.702 357.413C232.829 357.36 232.966 357.333 233.104 357.333C233.243 357.333 233.379 357.36 233.507 357.413Z" fill="#030402"/>
</g>
<path opacity="0.1" d="M247.989 354.737L229.604 409.637C229.604 409.637 187.424 371.997 163.563 325.988C161.019 321.074 159.921 316.307 160.376 312.464L247.989 354.737Z" fill="black"/>
<path d="M241.413 337.357C236.847 347.989 225.345 377.18 220.283 397.132C220.283 397.252 220.685 397.426 220.738 397.306C227.434 381.345 238.44 348.592 242.069 337.612C242.096 337.411 241.413 337.157 241.413 337.357Z" fill="#023A59"/>
<path d="M328.531 353.251C320.497 357.269 277.768 323.485 277.501 314.312C277.313 307.925 278.518 280.622 272.412 263.617C267.324 249.316 258.111 228.668 265.717 225.642C276.764 221.196 291.547 245.901 299.193 260.604C304.121 253.065 309.075 247.053 313.239 244.602C327.098 236.474 371.26 293.678 365.462 308.943C359.784 323.659 336.485 349.234 328.531 353.251Z" fill="#FFBE9D"/>
<path d="M308.604 223.548L297.029 228.889L324.188 287.747L335.763 282.406L308.604 223.548Z" fill="#C7C7C7"/>
<path d="M357.507 321.731L339.993 329.805L315.917 277.623L333.432 269.549L357.507 321.731Z" fill="#023A59"/>
<path d="M294.386 261.394C295.859 269.615 304.697 263.161 304.697 263.161C304.697 263.161 294.225 275.507 299.019 283.381C303.679 290.959 314.07 282.791 314.82 282.216C314.271 282.872 304.951 294.481 310.588 301.886C316.453 309.599 325.478 299.61 326.067 298.953C325.746 299.744 321.649 310.175 327.219 314.834C336.793 322.869 347.987 296.449 357.508 293.048C357.508 293.048 365.1 308.528 365.408 308.929C365.408 308.929 376.576 284.023 371.287 271.436C370.548 269.592 369.201 268.056 367.469 267.082C365.738 266.108 363.726 265.755 361.766 266.08C361.766 266.08 366.252 258.448 361.994 252.476C359.798 249.409 352.942 250.186 352.942 250.186C352.942 250.186 356.289 243.933 352.165 238.844C348.885 234.827 342.524 236.166 342.524 236.166C342.524 236.166 342.939 228.681 338.239 225.601C328.786 219.455 291.212 243.799 294.386 261.394Z" fill="#FFBE9D"/>
<path d="M341.48 236.3C341.614 236.219 341.48 236.032 341.4 236.072C327.086 241.067 312.892 250.949 304.175 263.455C303.894 263.87 304.443 264.513 304.844 264.111C316.28 252.93 327.34 243.932 341.48 236.3Z" fill="#023A59"/>
<path d="M353.089 250.026C353.236 249.932 353.089 249.678 352.928 249.744C338.199 254.967 322.532 266.523 314.19 282.136C313.895 282.671 314.19 283.475 314.551 282.845C320.885 272.883 340.314 256.828 353.089 250.026Z" fill="#023A59"/>
<path d="M325.853 300.253C334.436 285.591 346.849 275.16 361.137 266.282C361.324 266.175 361.137 265.921 360.963 265.974C352.794 268.411 344.265 275.026 338.079 280.703C332.23 285.888 327.84 292.512 325.344 299.919C325.251 300.24 325.679 300.561 325.853 300.253Z" fill="#023A59"/>
<path d="M304.415 263.161C304.067 263.657 305.165 263.616 304.844 264.112C303.505 266.241 296.287 279.698 300.103 283.568C303.183 286.661 309.477 284.679 311.592 282.965L316.948 278.667L313.454 284.559C311.872 287.159 310.724 289.999 310.052 292.968C309.45 295.874 309.61 298.94 311.244 301.069C311.956 302.169 313.025 302.991 314.271 303.395C315.517 303.8 316.864 303.764 318.087 303.292C320.806 302.19 323.198 300.411 325.036 298.123L330.392 291.977L327.406 299.476C326.578 301.565 326.02 303.752 325.746 305.983C325.391 308.084 325.671 310.242 326.549 312.183C326.981 313.041 327.643 313.761 328.461 314.262C329.28 314.764 330.222 315.027 331.182 315.022C333.323 314.7 335.326 313.771 336.954 312.344C340.533 309.307 343.865 305.989 346.916 302.422C348.523 300.681 350.13 298.927 351.83 297.239C353.443 295.465 355.409 294.046 357.601 293.075C355.555 294.257 353.759 295.826 352.312 297.695C350.759 299.476 349.299 301.337 347.827 303.198C344.966 307.072 341.737 310.659 338.185 313.91C336.294 315.702 333.92 316.903 331.356 317.365C329.936 317.465 328.517 317.146 327.275 316.449C326.033 315.752 325.022 314.707 324.367 313.442C323.214 311.065 322.79 308.4 323.148 305.783C323.416 303.293 324.006 300.849 324.902 298.512L327.219 299.851C325.09 302.595 322.278 304.733 319.064 306.05C317.261 306.732 315.278 306.765 313.454 306.144C311.684 305.478 310.158 304.292 309.075 302.743C308.115 301.236 307.485 299.543 307.227 297.775C306.968 296.007 307.087 294.205 307.575 292.486C308.351 289.228 309.658 286.12 311.445 283.287L313.266 284.88C310.494 286.969 303.705 289.955 298.336 285.751C292.069 279.176 302.353 265.531 304.415 263.161Z" fill="#023A59"/>
<path d="M304.696 263.162C303.136 263.888 301.474 264.371 299.768 264.594C299.087 264.702 298.39 264.625 297.749 264.37C297.108 264.116 296.548 263.694 296.126 263.148C295.359 261.831 294.992 260.319 295.068 258.796C295.068 257.109 295.162 255.342 295.323 253.521C294.286 255.063 293.583 256.805 293.261 258.636C293.027 259.634 292.994 260.668 293.162 261.679C293.329 262.69 293.695 263.658 294.238 264.527C294.915 265.42 295.85 266.084 296.916 266.429C297.944 266.725 299.035 266.725 300.063 266.429C301.918 265.866 303.543 264.72 304.696 263.162Z" fill="#023A59"/>
<path d="M23.9277 507.053L225.599 506.652L214.445 437.303C214.445 437.303 230.393 417.954 227.38 396.958C224.073 373.954 182.59 315.652 179.108 312.358C165.062 299.182 150.199 296.825 135.924 301.579C70.0172 342.955 23.9277 507.053 23.9277 507.053Z" fill="#46B2C8"/>
<path d="M182.496 431.933C174.244 432.661 166.057 434.004 158.005 435.951C153.988 436.968 150.105 438.173 146.195 439.459C144.24 440.102 142.285 440.677 140.316 441.24C138.27 441.89 136.152 442.29 134.01 442.431C133.971 442.431 133.933 442.447 133.905 442.475C133.878 442.502 133.862 442.54 133.862 442.579C133.862 442.618 133.878 442.655 133.905 442.683C133.933 442.71 133.971 442.726 134.01 442.726C136.036 442.824 138.067 442.788 140.089 442.619C142.039 442.38 143.971 442.013 145.873 441.521C149.891 440.517 153.908 439.338 157.925 438.294C166.093 436.205 174.248 434.103 182.536 432.603C183.018 432.549 182.924 431.893 182.496 431.933Z" fill="#023A59"/>
<path d="M202.916 439.244C196.121 438.525 189.289 438.194 182.456 438.253C179.042 438.253 175.654 438.534 172.239 438.869C170.619 439.029 168.999 439.217 167.379 439.418C165.758 439.618 163.844 440.114 162.022 440.315C161.835 440.315 161.835 440.623 162.022 440.609C163.71 440.462 165.437 440.609 167.124 440.609L172.226 440.475C175.64 440.395 179.042 440.342 182.456 440.234C189.272 439.993 196.061 439.833 202.89 439.846C203.291 439.806 203.265 439.27 202.916 439.244Z" fill="#023A59"/>
<g opacity="0.1">
<path d="M144.629 414.623C144.931 414.73 145.18 414.949 145.324 415.235C145.45 415.486 145.484 415.774 145.421 416.048C145.357 416.322 145.2 416.565 144.976 416.735L139.231 419.533L141.909 425.305C141.979 425.449 142.02 425.605 142.029 425.765C142.038 425.925 142.015 426.085 141.961 426.236C141.908 426.386 141.825 426.525 141.717 426.643C141.609 426.762 141.479 426.857 141.334 426.925C141.192 426.984 141.039 427.015 140.885 427.015C140.731 427.015 140.579 426.984 140.436 426.925C140.132 426.822 139.878 426.606 139.727 426.322L136.486 419.44V419.292C136.473 419.24 136.473 419.184 136.486 419.132C136.475 419.101 136.475 419.068 136.486 419.038V418.917V418.824V418.69V418.583V418.502V418.368L136.58 418.235C136.634 418.194 136.727 418.101 136.727 418.101C136.763 418.052 136.816 418.019 136.875 418.007L143.704 414.659C143.996 414.529 144.327 414.515 144.629 414.623Z" fill="#030402"/>
<path d="M155.321 418.393C155.448 418.446 155.564 418.524 155.661 418.623H155.715C155.892 418.812 155.99 419.06 155.99 419.319C155.99 419.578 155.892 419.827 155.715 420.015L147.681 428.947C147.539 429.096 147.358 429.2 147.158 429.248C146.958 429.296 146.749 429.284 146.556 429.215C146.432 429.171 146.318 429.103 146.221 429.014C146.116 428.924 146.03 428.814 145.969 428.691C145.908 428.567 145.872 428.432 145.865 428.295C145.857 428.157 145.878 428.019 145.925 427.889C145.973 427.76 146.046 427.641 146.141 427.541L154.175 418.623C154.272 418.524 154.388 418.446 154.515 418.393C154.643 418.34 154.78 418.312 154.918 418.312C155.056 418.312 155.193 418.34 155.321 418.393Z" fill="#030402"/>
</g>
<path d="M111.715 319.668C60.3499 373.51 -3.52201 486.016 9.11846 508.472C23.1783 533.391 96.6778 457.2 94.3479 453.571C92.3661 450.451 118.544 382.268 137.197 332.723C155.85 283.179 124.409 306.358 111.715 319.668Z" fill="#FFBE9D"/>
<path d="M48.7803 384.224L122.534 397.493C122.534 397.493 140.946 345.271 144.588 316.227C146.637 299.972 137.089 299.302 125.065 307.939C82.9792 338.188 48.7803 384.224 48.7803 384.224Z" fill="#46B2C8"/>
<g opacity="0.1">
<path d="M108.596 337.174C108.898 337.281 109.147 337.5 109.291 337.786C109.445 338.051 109.491 338.365 109.422 338.664C109.352 338.962 109.171 339.223 108.916 339.393L103.172 342.191L105.85 347.963C105.92 348.107 105.961 348.263 105.97 348.423C105.978 348.583 105.955 348.743 105.902 348.894C105.848 349.044 105.765 349.183 105.657 349.301C105.55 349.42 105.419 349.515 105.274 349.583C105.132 349.642 104.98 349.673 104.826 349.673C104.672 349.673 104.519 349.642 104.377 349.583C104.072 349.48 103.818 349.265 103.667 348.98L100.427 342.098C100.415 342.077 100.409 342.054 100.409 342.031C100.409 342.007 100.415 341.984 100.427 341.964V341.897C100.414 341.844 100.414 341.789 100.427 341.736C100.416 341.706 100.416 341.673 100.427 341.642V341.535V341.428V341.294V341.187V341.107V340.973L100.521 340.839C100.574 340.799 100.668 340.705 100.668 340.705C100.703 340.657 100.756 340.623 100.815 340.611L107.671 337.21C107.963 337.08 108.295 337.066 108.596 337.174Z" fill="#030402"/>
<path d="M119.288 340.944C119.416 340.997 119.531 341.075 119.629 341.174C119.813 341.356 119.921 341.601 119.931 341.859C119.941 342.118 119.852 342.371 119.682 342.566L111.648 351.498C111.507 351.647 111.325 351.751 111.125 351.799C110.926 351.846 110.716 351.835 110.523 351.766C110.399 351.722 110.285 351.653 110.188 351.565C110.083 351.475 109.998 351.365 109.936 351.242C109.875 351.118 109.84 350.983 109.832 350.845C109.825 350.708 109.845 350.57 109.893 350.44C109.94 350.311 110.013 350.192 110.108 350.092L118.142 341.174C118.239 341.075 118.355 340.997 118.483 340.944C118.61 340.891 118.747 340.863 118.885 340.863C119.024 340.863 119.161 340.891 119.288 340.944Z" fill="#030402"/>
<path d="M126.913 349.878C126.918 349.94 126.918 350.003 126.913 350.065C126.913 350.092 126.699 350.252 126.699 350.306V350.48C126.697 350.52 126.697 350.56 126.699 350.601V350.694V350.775V350.922L126.591 351.069C126.548 351.12 126.499 351.165 126.444 351.203C126.39 351.238 126.332 351.265 126.27 351.283L119.441 354.631C119.143 354.741 118.815 354.741 118.517 354.631C118.366 354.58 118.227 354.499 118.107 354.393C117.988 354.287 117.89 354.159 117.821 354.015C117.751 353.872 117.711 353.717 117.702 353.558C117.693 353.399 117.716 353.24 117.77 353.09C117.824 352.941 117.907 352.803 118.014 352.686C118.122 352.569 118.252 352.474 118.397 352.408L124.141 349.61L121.396 343.838C121.326 343.695 121.284 343.54 121.274 343.38C121.264 343.221 121.286 343.062 121.339 342.911C121.391 342.76 121.473 342.621 121.579 342.502C121.685 342.383 121.814 342.287 121.958 342.218C122.251 342.088 122.582 342.074 122.884 342.182C123.186 342.289 123.434 342.508 123.579 342.794L126.833 349.703C126.87 349.756 126.897 349.815 126.913 349.878Z" fill="#030402"/>
<path d="M57.0287 373.86L59.7068 376.216C59.8317 376.316 59.9357 376.44 60.0127 376.581C60.0898 376.721 60.1384 376.875 60.1558 377.034C60.1732 377.194 60.1591 377.355 60.1142 377.508C60.0693 377.662 59.9946 377.805 59.8943 377.93C59.681 378.166 59.3851 378.31 59.0682 378.332C58.7513 378.355 58.438 378.254 58.1937 378.051L55.5156 375.721C55.9977 375.132 56.4931 374.502 57.0287 373.86Z" fill="#030402"/>
<path d="M68.9046 364.445C69.1555 364.322 69.4448 364.303 69.7094 364.393C69.9593 364.481 70.1649 364.663 70.2824 364.901C70.3999 365.138 70.4201 365.412 70.3387 365.665L66.5626 377.087C66.4921 377.281 66.3677 377.45 66.2041 377.576C66.0404 377.702 65.8443 377.778 65.6387 377.796C65.4726 377.802 65.3075 377.769 65.1566 377.699C65.0057 377.63 64.8734 377.525 64.7704 377.395C64.6674 377.265 64.5965 377.112 64.5636 376.949C64.5307 376.786 64.5366 376.617 64.5809 376.457L68.3703 365.049C68.4617 364.785 68.6537 364.568 68.9046 364.445Z" fill="#030402"/>
<path d="M80.1137 369.976C80.1154 370.008 80.1154 370.039 80.1137 370.07L80.0199 370.325V370.472C80.0128 370.53 80.0128 370.588 80.0199 370.646C79.9854 370.7 79.9584 370.759 79.9396 370.82C79.9032 370.868 79.8629 370.913 79.8191 370.954L74.9182 376.765C74.7024 376.899 74.4498 376.962 74.1965 376.944C73.9431 376.925 73.7019 376.828 73.5074 376.664C73.3129 376.501 73.1749 376.28 73.1133 376.034C73.0516 375.788 73.0694 375.528 73.1641 375.292L77.3017 370.418L72.4678 366.241C72.2234 366.031 72.0721 365.732 72.047 365.411C72.0219 365.09 72.1251 364.772 72.3339 364.527C72.5471 364.292 72.8417 364.148 73.1576 364.123C73.4736 364.098 73.7872 364.194 74.0345 364.393L79.7789 369.387C79.8362 369.416 79.8864 369.457 79.9262 369.508L80.0333 369.668C80.0514 369.73 80.0785 369.789 80.1137 369.842V369.976Z" fill="#030402"/>
<path d="M102.23 389.925C102.458 390.073 102.619 390.305 102.676 390.571L103.453 394.052L101.244 393.65L100.654 391.039C100.595 390.766 100.646 390.48 100.796 390.244C100.947 390.008 101.185 389.842 101.458 389.781C101.724 389.725 102.002 389.777 102.23 389.925Z" fill="#030402"/>
<path d="M113.523 389.727V389.794V389.807C113.593 389.921 113.684 390.021 113.79 390.102C113.796 390.164 113.796 390.227 113.79 390.29L112.893 395.793L110.523 395.364L111.219 391.08L104.926 389.995C104.619 389.945 104.343 389.778 104.158 389.527C103.973 389.277 103.893 388.964 103.935 388.656C103.994 388.353 104.164 388.083 104.412 387.9C104.66 387.716 104.967 387.633 105.274 387.665L112.759 389.004C112.822 388.996 112.884 388.996 112.947 389.004L113.121 389.084C113.165 389.126 113.215 389.162 113.268 389.191L113.348 389.299L113.429 389.366V389.446L113.523 389.566V389.727Z" fill="#030402"/>
</g>
<path d="M122.039 385.429C110.871 382.443 80.3145 375.226 59.8541 373.137C59.7202 373.137 59.6265 373.592 59.747 373.619C76.5117 377.93 110.496 384.103 121.891 386.112C122.106 386.139 122.24 385.483 122.039 385.429Z" fill="#023A59"/>
<path d="M113.536 395.886C116.576 396.181 119.615 396.529 122.628 396.944L121.999 397.319C124.195 389.285 126.632 381.331 129.243 373.431C131.854 365.53 134.666 357.697 137.84 349.971C135.911 358.085 133.581 366.039 131.144 374.073C128.707 382.107 126.003 389.914 123.11 397.721L122.923 398.189L122.467 398.096C119.468 397.399 116.491 396.663 113.536 395.886Z" fill="#023A59"/>
<path d="M132.952 365.865C133.608 364.224 134.453 362.665 135.47 361.219C136.468 359.753 137.583 358.369 138.804 357.081C138.631 357.961 138.338 358.812 137.933 359.612C137.544 360.411 137.097 361.181 136.594 361.915C135.594 363.414 134.365 364.747 132.952 365.865Z" fill="#023A59"/>
<path d="M145.339 313.134C146.343 316.509 164.018 338.121 179.819 336.594C184.947 336.085 183.354 307.939 183.354 307.939L183.715 305.837L188.696 276.378L153.333 256.292L148.244 253.614C148.244 253.614 147.414 261.769 146.477 271.919C146.477 272.401 146.383 272.87 146.343 273.365C146.303 273.86 146.209 274.49 146.169 275.025C146.008 276.538 145.847 278.092 145.727 279.632C145.633 280.81 145.526 281.948 145.473 283.193C145.419 284.439 145.312 285.644 145.231 286.876C144.562 299.101 145.004 311.675 145.339 313.134Z" fill="#FFBE9D"/>
<path d="M146.437 271.825C149.808 279.85 154.885 287.045 161.316 292.911C167.746 298.777 175.375 303.174 183.675 305.797L188.656 276.338L153.292 256.252L148.204 253.574C148.204 253.574 147.374 261.675 146.437 271.825Z" fill="#023A59"/>
<path d="M137.356 254.498C141.079 283.528 114.218 321.155 132.549 372.775C140.784 395.967 184.946 416.066 187.088 462.945C187.637 475.09 241.989 399.395 175.385 315.879C154.469 289.728 137.356 254.498 137.356 254.498Z" fill="#023A59"/>
<path d="M175.801 321.717C199.904 348.645 221.195 386.405 211.379 423.63C208.501 434.49 202.662 443.917 196.65 453.317C196.543 453.478 196.302 453.317 196.409 453.129C201.591 444.734 206.733 436.15 209.558 426.643C212.134 417.59 213.01 408.137 212.143 398.765C210.616 380.179 203.225 362.745 193.396 347.091C187.906 338.361 181.519 330.353 175.279 322.172C175.011 321.784 175.547 321.382 175.801 321.717Z" fill="#023A59"/>
<path d="M128.387 302.796C132.002 290.919 136.421 279.109 137.505 266.642C137.505 266.509 137.733 266.535 137.72 266.642C136.381 286.889 126.9 305.474 124.57 325.56C122.401 344.306 124.825 363.722 133.301 380.715C137.855 389.756 144.006 397.898 151.458 404.75C151.699 404.978 151.458 405.38 151.137 405.165C137.934 394.386 129.137 378.586 125.079 362.182C120.178 342.405 122.482 322.105 128.387 302.796Z" fill="#023A59"/>
<path d="M146.838 273.66C150.549 281.959 155.517 289.637 161.567 296.423C167.526 303.199 174.074 309.412 180.1 316.107C192.794 330.167 203.56 346.369 208.675 364.767C211.581 375.26 212.355 386.228 210.951 397.025H210.857C213.241 377.154 206.666 356.787 196.436 339.915C191.553 331.957 185.941 324.471 179.671 317.553C173.753 310.925 167.419 304.685 161.608 297.963C155.395 290.772 149.329 282.953 146.182 273.861C146.155 273.773 146.164 273.679 146.207 273.599C146.25 273.519 146.323 273.459 146.41 273.432C146.497 273.405 146.591 273.414 146.671 273.457C146.751 273.5 146.811 273.573 146.838 273.66Z" fill="#023A59"/>
<path d="M148.94 271.182H135.282C132.864 271.182 130.903 273.142 130.903 275.56V279.564C130.903 281.982 132.864 283.943 135.282 283.943H148.94C151.358 283.943 153.319 281.982 153.319 279.564V275.56C153.319 273.142 151.358 271.182 148.94 271.182Z" fill="#46B2C8"/>
<path d="M222.413 219.362C237.45 269.602 209.022 284.278 198.216 287.505C188.388 290.437 154.51 299.181 134.371 250.762C114.232 202.342 132.831 179.472 154.966 171.571C177.1 163.671 207.375 169.121 222.413 219.362Z" fill="#FFBE9D"/>
<path d="M211.165 209.988C210.007 210.335 208.831 210.621 207.643 210.845C206.45 211.324 205.132 211.394 203.894 211.046C203.525 210.862 203.228 210.561 203.049 210.19C202.87 209.82 202.818 209.4 202.903 208.997C203.2 208.219 203.699 207.535 204.348 207.015C204.998 206.494 205.775 206.157 206.599 206.038C208.211 205.531 209.954 205.646 211.486 206.359C211.823 206.547 212.098 206.828 212.278 207.168C212.458 207.508 212.536 207.894 212.502 208.278C212.468 208.661 212.324 209.027 212.086 209.33C211.849 209.634 211.529 209.862 211.165 209.988Z" fill="#023A59"/>
<path d="M179.818 230.516C181.037 230.302 182.135 229.913 183.327 229.592C184.602 229.436 185.792 228.867 186.714 227.972C186.952 227.633 187.069 227.225 187.047 226.813C187.025 226.4 186.866 226.007 186.594 225.695C185.972 225.156 185.217 224.792 184.407 224.642C183.598 224.491 182.762 224.559 181.988 224.838C180.323 225.184 178.847 226.139 177.85 227.516C177.659 227.838 177.562 228.207 177.57 228.581C177.578 228.955 177.691 229.319 177.896 229.632C178.102 229.944 178.391 230.193 178.731 230.349C179.07 230.506 179.447 230.563 179.818 230.516Z" fill="#023A59"/>
<path d="M206.72 226.111C206.72 225.963 207.028 226.218 207.054 226.365C207.657 229.873 208.943 233.81 212.411 234.319C212.504 234.319 212.531 234.507 212.411 234.52C208.394 234.828 206.733 229.539 206.72 226.111Z" fill="#023A59"/>
<path d="M209.089 221.813C214.619 220.233 217.391 231.414 212.263 232.887C207.134 234.359 204.443 223.138 209.089 221.813Z" fill="#023A59"/>
<path d="M211.607 221.972C212.638 222.347 213.776 223.204 214.847 223.017C215.918 222.829 216.695 221.356 217.19 220.004C217.19 219.87 217.364 219.937 217.405 220.084C217.98 222.213 217.833 224.61 215.878 225.534C213.923 226.458 212.263 224.878 211.232 222.856C211.031 222.495 211.191 221.825 211.607 221.972Z" fill="#023A59"/>
<path d="M194.548 261.607C195.526 262.29 196.557 263.281 197.855 263.174C199.164 262.937 200.406 262.421 201.498 261.661C201.52 261.644 201.548 261.636 201.576 261.637C201.604 261.639 201.631 261.65 201.651 261.669C201.672 261.688 201.685 261.714 201.689 261.742C201.693 261.77 201.687 261.798 201.672 261.822C201.288 262.603 200.699 263.265 199.968 263.737C199.236 264.208 198.391 264.472 197.521 264.5C196.77 264.429 196.057 264.136 195.473 263.66C194.889 263.183 194.46 262.543 194.24 261.822C194.079 261.674 194.334 261.607 194.548 261.607Z" fill="#023A59"/>
<path d="M206.198 245.781C206.198 245.781 208.086 250.816 208.648 253.266C208.648 253.507 208.126 253.748 207.309 253.976C207.309 253.976 207.309 253.976 207.216 253.976C205.196 254.838 202.977 255.127 200.804 254.811C198.63 254.494 196.586 253.585 194.896 252.182C194.669 251.981 194.896 251.66 195.191 251.767C198.805 253.192 202.781 253.418 206.533 252.409C206.533 251.686 202.998 243.88 203.372 243.773C205.318 243.504 207.292 243.504 209.237 243.773C205.595 233.154 200.279 223.218 196.811 212.6C196.691 212.212 197.226 211.971 197.414 212.292C203.721 222.321 208.126 234.44 212.223 245.299C212.746 246.678 207.269 245.969 206.198 245.781Z" fill="#023A59"/>
<path d="M177.314 235.899C178.246 235.221 179.269 234.68 180.354 234.292C181.46 233.887 182.619 233.643 183.795 233.569C185.036 233.518 186.275 233.695 187.451 234.091C188.659 234.541 189.749 235.26 190.638 236.194L192.245 237.868L189.928 238.256C188.288 238.535 186.682 238.984 185.134 239.595C183.515 240.182 182.069 241.168 180.93 242.46C181.427 240.598 182.621 238.997 184.264 237.988C185.888 236.931 187.711 236.216 189.62 235.886L188.91 237.935C187.503 236.628 185.696 235.835 183.782 235.685C181.625 235.497 179.454 235.569 177.314 235.899Z" fill="#023A59"/>
<path d="M186.165 243.116C187.753 242.253 189.224 241.191 190.544 239.956C190.825 239.635 191.883 238.269 191.776 238.001C191.372 237.205 190.858 236.471 190.249 235.818C191.055 236.329 191.744 237.005 192.271 237.8C192.285 238.305 192.188 238.806 191.987 239.269C191.785 239.732 191.485 240.145 191.106 240.478C189.722 241.78 188.017 242.691 186.165 243.116Z" fill="#023A59"/>
<path d="M141.174 254.738C151.578 251.029 143.852 226.953 143.852 226.953C143.852 226.953 160.375 217.58 163.562 203.118C163.562 203.118 162.223 215.17 156.787 221.865C155.876 222.99 190.49 207.135 184.465 178.44C184.465 178.44 199.033 203.748 217.298 203.694C218.168 203.694 206.438 179.819 199.181 175.829C194.999 173.475 190.53 171.674 185.884 170.473C172.369 166.14 157.696 167.27 145.003 173.619C124.088 184.332 117.593 212.451 119.187 222.521C122.24 242.325 136.246 256.492 141.174 254.738Z" fill="#023A59"/>
<path d="M158.153 222.013C177.408 214.461 188.696 196.571 183.474 176.111C183.456 176.002 183.477 175.89 183.533 175.795C183.588 175.7 183.676 175.628 183.78 175.591C183.884 175.555 183.998 175.556 184.101 175.594C184.204 175.633 184.29 175.707 184.345 175.803C193.945 195.165 177.114 217.527 158.086 222.428C157.631 222.548 157.698 222.2 158.153 222.013Z" fill="#023A59"/>
<path d="M140.839 253.574C149.57 244.496 147.601 233.274 144.696 222.187C144.615 221.866 145.151 221.665 145.271 222C149.074 232.538 151.592 246.196 141.535 254.337C141.432 254.407 141.306 254.438 141.182 254.423C141.057 254.408 140.942 254.349 140.858 254.256C140.774 254.164 140.725 254.044 140.722 253.919C140.718 253.794 140.76 253.671 140.839 253.574Z" fill="#023A59"/>
<path d="M183.232 174.196C183.232 174.075 183.38 174.022 183.447 174.129C189.66 184.52 196.623 203.24 211.941 201.164C211.982 201.156 212.023 201.156 212.064 201.164C212.104 201.173 212.143 201.189 212.177 201.212C212.211 201.235 212.24 201.264 212.263 201.298C212.286 201.333 212.302 201.371 212.31 201.412C212.317 201.452 212.317 201.494 212.309 201.534C212.301 201.575 212.285 201.613 212.262 201.647C212.239 201.681 212.209 201.711 212.175 201.733C212.141 201.756 212.102 201.772 212.062 201.78C197.533 205.087 185.696 186.301 183.232 174.196Z" fill="#023A59"/>
<path d="M120.995 221.316L118.611 226.378L135.376 238.188L140.491 226.78L120.995 221.316ZM134.144 233.02L122.548 225.829L123.07 224.637L136.005 229.029L134.144 233.02Z" fill="#46B2C8"/>
<path d="M121.516 212.426L121.222 218.01L141.2 222.629L141.642 210.149L121.516 212.426ZM138.107 218.318L124.717 216.014V214.675L138.348 213.872L138.107 218.318Z" fill="#46B2C8"/>
<path d="M143.503 252.235C143.503 252.235 128.975 238.523 122.534 244.027C116.093 249.53 129.323 271.021 138.522 272.427C139.693 272.694 140.905 272.721 142.086 272.506C143.267 272.292 144.392 271.839 145.394 271.177C146.395 270.515 147.252 269.657 147.912 268.654C148.572 267.652 149.022 266.525 149.234 265.344L143.503 252.235Z" fill="#FFBE9D"/>
<path d="M126.485 250.092C126.453 250.092 126.422 250.105 126.4 250.127C126.377 250.15 126.364 250.181 126.364 250.213C126.364 250.245 126.377 250.275 126.4 250.298C126.422 250.321 126.453 250.333 126.485 250.333C132.966 251.512 137.277 256.412 140.679 261.715C138.429 259.867 135.764 259.157 133.234 261.889C133.1 262.036 133.234 262.237 133.461 262.17C134.445 261.617 135.576 261.383 136.699 261.501C137.821 261.618 138.88 262.082 139.728 262.826C141.141 264.07 142.412 265.467 143.517 266.991C143.919 267.473 144.856 266.991 144.495 266.402L144.414 266.281C142.982 258.608 134.84 249.168 126.485 250.092Z" fill="#023A59"/>
<path d="M10.5508 510.441C25.8559 524.125 57.7517 519.934 139.098 516.908C150.346 516.493 168.757 436.285 156.72 436.111C141.548 435.897 82.6577 438.347 78.3728 439.07C42.2189 445.163 0.173265 501.148 10.5508 510.441Z" fill="#FFBE9D"/>
<path d="M131.479 436.74C131.479 436.74 161.085 421.596 179.108 418.463C203.211 414.245 225.814 420.552 235.106 423.819C254.509 430.514 296.796 460.16 290.382 473.832C284.584 486.204 242.886 453.746 242.886 453.746C242.886 453.746 290.864 479.844 281.142 493.449C271.421 507.053 225.157 466.668 225.157 466.668C225.157 466.668 273.845 494.587 261.592 507.04C252.34 516.413 208.379 482.174 208.379 482.174C208.379 482.174 250.063 506.451 240.958 516.547C230.902 527.688 188.334 498.59 188.334 498.59C160.884 520.336 138.91 519.466 123.364 516.975C119.561 516.252 131.479 436.74 131.479 436.74Z" fill="#FFBE9D"/>
<path d="M226.872 443.582C232.63 446.447 238.455 449.3 243.931 452.674C249.408 456.048 254.764 459.583 259.892 463.386C272.493 472.853 278.893 480.794 278.451 480.298C267.833 469.787 248.43 457.441 242.954 454.08C237.477 450.719 232.241 447.104 226.738 443.743C226.731 443.723 226.729 443.701 226.732 443.68C226.736 443.659 226.745 443.64 226.758 443.623C226.772 443.607 226.79 443.595 226.81 443.587C226.83 443.58 226.851 443.578 226.872 443.582Z" fill="#023A59"/>
<path d="M214.379 463.119C221.556 467.136 228.827 470.778 235.803 475.063C242.78 479.348 249.02 483.995 255.675 488.735C256.197 489.096 255.822 489.257 255.3 488.909C248.457 484.437 241.789 480.875 234.893 476.456C227.997 472.037 221.261 467.404 214.245 463.293C214.165 463.226 214.272 463.066 214.379 463.119Z" fill="#023A59"/>
<path d="M200.627 477.969C211.915 483.473 222.172 491.052 232.04 498.738C232.536 499.113 232.04 499.26 231.518 498.898C221.207 491.801 213.173 486.164 200.439 478.358C200.238 478.237 200.399 477.849 200.627 477.969Z" fill="#023A59"/>
<path d="M47.2539 454.428C53.226 449.755 70.4057 438.36 88.8978 438.105C89.112 438.105 89.1522 438.36 88.8978 438.387C73.9274 440.516 53.5741 450.532 47.3878 454.643C47.2539 454.776 47.0664 454.576 47.2539 454.428Z" fill="#023A59"/>
<path d="M315.329 187.734C315.307 190.207 315.119 192.677 314.766 195.125C314.565 196.638 314.284 198.111 313.949 199.544C313.38 202.076 312.592 204.554 311.593 206.949C310.97 208.464 310.255 209.94 309.45 211.367C307.939 214.063 306.079 216.548 303.92 218.759C302.8 219.915 301.587 220.977 300.291 221.932C299.461 222.133 298.591 222.294 297.707 222.428C290.538 223.335 283.261 222.057 276.831 218.759C272.828 216.791 269.1 214.306 265.744 211.367C265.49 211.153 265.222 210.926 264.967 210.685C261.274 207.369 257.984 203.629 255.166 199.544C254.175 198.124 253.224 196.652 252.327 195.125C249.14 189.704 246.67 183.894 244.976 177.838L244.654 176.633C244.547 176.245 244.454 175.87 244.373 175.481C242.611 168.536 242.032 161.343 242.659 154.204C242.793 152.704 242.994 151.232 243.262 149.785C244.476 141.941 247.92 134.611 253.184 128.669C254.023 127.774 254.917 126.933 255.862 126.151C256.384 125.696 256.933 125.268 257.482 124.812C258.329 124.597 259.187 124.432 260.053 124.317C265.586 123.573 271.216 124.189 276.456 126.111C279.626 127.24 282.658 128.722 285.495 130.53C288.875 132.656 292.017 135.139 294.868 137.935C296.274 139.274 297.64 140.787 298.885 142.34C300.861 144.681 302.673 147.155 304.308 149.745C305.219 151.178 306.076 152.651 306.893 154.164C308.179 156.56 309.328 159.028 310.334 161.555C310.91 163.002 311.445 164.475 311.927 165.974C312.409 167.474 312.784 168.652 313.146 170.125C314.276 174.429 314.984 178.833 315.262 183.275C315.302 184.814 315.342 186.274 315.329 187.734Z" fill="white"/>
<path d="M298.831 142.435H253.184V138.029H294.694C296.167 139.355 297.532 140.828 298.831 142.435Z" fill="#A6A6A6"/>
<path d="M306.839 154.204H253.184V149.785H304.254C305.165 151.218 306.022 152.691 306.839 154.204Z" fill="#46B2C8"/>
<path d="M285.441 130.57H253.184V128.669C254.022 127.774 254.917 126.933 255.862 126.151H276.456C279.607 127.284 282.621 128.766 285.441 130.57Z" fill="#115766"/>
<path d="M311.873 166.015H265.007V161.596H310.32C310.855 163.042 311.391 164.515 311.873 166.015Z" fill="#115766"/>
<path d="M285.655 173.42H264.967V177.839H285.655V173.42Z" fill="#A6A6A6"/>
<path d="M244.373 149.785V154.204H242.659C242.793 152.704 242.994 151.231 243.262 149.785H244.373Z" fill="#115766"/>
<path d="M256.465 161.597H244.373V166.015H256.465V161.597Z" fill="#A6A6A6"/>
<path d="M256.465 173.42V177.839H244.976L244.654 176.634C244.547 176.245 244.453 175.87 244.373 175.482V173.42H256.465Z" fill="#115766"/>
<path d="M315.328 187.733H253.184V183.314H315.208C315.301 184.814 315.342 186.274 315.328 187.733Z" fill="#115766"/>
<path d="M256.465 195.126V199.545H255.126C254.135 198.125 253.184 196.652 252.287 195.126H256.465Z" fill="#115766"/>
<path d="M314.765 195.126C314.565 196.639 314.283 198.112 313.949 199.545H264.967V195.126H314.765Z" fill="#A6A6A6"/>
<path d="M311.592 206.949C310.97 208.465 310.254 209.941 309.449 211.368H265.743C265.489 211.154 265.221 210.926 264.967 210.685V206.949H311.592Z" fill="#46B2C8"/>
<path d="M303.92 218.759C302.8 219.915 301.586 220.977 300.291 221.932C299.461 222.133 298.59 222.294 297.707 222.428C290.537 223.335 283.261 222.057 276.831 218.759H303.92Z" fill="#115766"/>
<path d="M289.283 236.367C291.361 236.061 293.408 235.577 295.403 234.921C296.856 234.429 298.275 233.838 299.648 233.153C299.697 233.142 299.743 233.119 299.781 233.086C300.344 232.805 300.906 232.511 301.455 232.189C302.004 231.868 302.111 231.814 302.433 231.6C307 228.755 310.897 224.954 313.855 220.459C314.538 219.455 315.194 218.397 315.783 217.326C316.711 215.674 317.534 213.966 318.247 212.211C318.501 211.608 318.742 210.992 318.956 210.39C319.412 209.171 319.827 207.913 320.188 206.641C320.55 205.368 320.898 203.962 321.179 202.623C321.46 201.284 321.715 199.945 321.902 198.526C323.214 188.675 322.554 178.661 319.961 169.067C311.217 135.712 283.338 111.623 257.669 115.345C256.611 115.493 255.567 115.707 254.536 115.934C253.505 116.162 252.54 116.47 251.55 116.791C251.014 116.979 250.465 117.166 249.929 117.381L249.554 117.528L248.215 118.09C228.773 126.968 219.399 153.508 226.992 182.525C235.722 216.081 263.614 240.09 289.283 236.367ZM233.874 181.641C231.848 174.056 231.226 166.164 232.04 158.355C232.107 157.752 232.174 157.163 232.267 156.561C233.955 144.777 239.324 135.002 247.425 129.338L247.907 129.017C248.175 128.816 248.456 128.642 248.738 128.468L249.26 128.16C249.627 127.925 250.007 127.71 250.398 127.517C250.853 127.258 251.3 127.031 251.737 126.834H251.831C252.807 126.375 253.808 125.973 254.83 125.629C255.708 125.336 256.602 125.095 257.508 124.906C258.355 124.691 259.213 124.525 260.079 124.41C281.959 121.25 305.74 141.818 313.172 170.219C318.903 192.152 313.279 212.398 300.371 221.986C298.563 223.345 296.598 224.483 294.519 225.374C294.171 225.521 293.823 225.682 293.448 225.815C293.073 225.949 292.658 226.123 292.243 226.257C290.541 226.818 288.794 227.231 287.021 227.489C265.06 230.609 241.306 210.095 233.874 181.641Z" fill="#115766"/>
<path opacity="0.4" d="M297.654 222.428C298.538 222.294 299.408 222.134 300.238 221.933C313.147 212.345 318.77 192.099 313.039 170.166C305.608 141.711 281.827 121.197 259.947 124.357C259.081 124.472 258.222 124.638 257.376 124.853C244.481 134.44 238.844 154.686 244.601 176.633C252.127 205.088 275.841 225.602 297.654 222.428Z" fill="white"/>
<g opacity="0.3">
<path d="M244.092 145.996L306.825 154.204C305.087 150.955 303.094 147.848 300.867 144.911L247.011 137.868C245.767 140.472 244.789 143.196 244.092 145.996Z" fill="#EBEBEB"/>
<path d="M253.371 128.482L289.177 133.168C280.192 126.352 269.908 122.938 259.999 124.357C259.133 124.472 258.275 124.638 257.428 124.853C255.964 125.932 254.606 127.147 253.371 128.482Z" fill="#EBEBEB"/>
<path d="M242.833 152.504L310.16 161.315C309.53 159.775 308.821 158.249 308.151 156.789L243.529 148.34C243.248 149.692 243.02 151.085 242.833 152.504Z" fill="#EBEBEB"/>
<path d="M262.009 207.832C263.723 209.611 265.552 211.275 267.485 212.813L304.898 217.714C306.001 216.5 307.012 215.207 307.924 213.844L262.009 207.832Z" fill="#EBEBEB"/>
<path d="M250.787 192.46L313.722 200.682C315.148 194.974 315.667 189.077 315.262 183.207L244.052 173.834C244.239 174.731 244.467 175.655 244.708 176.512C246.093 182.051 248.133 187.405 250.787 192.46Z" fill="#EBEBEB"/>
</g>
<path d="M286.941 227.436C288.714 227.177 290.461 226.765 292.163 226.204C292.578 226.07 292.98 225.909 293.368 225.762C293.757 225.614 294.091 225.467 294.44 225.32L295.176 225.012L305.888 219.991C304.911 220.447 303.91 220.85 302.889 221.196C302.01 221.489 301.116 221.735 300.211 221.932C299.381 222.133 298.51 222.294 297.626 222.428C275.76 225.601 251.992 205.02 244.574 176.633C238.816 154.686 244.453 134.44 257.348 124.852C258.944 123.647 260.663 122.615 262.477 121.772L251.765 126.78H251.671C251.216 126.977 250.769 127.204 250.332 127.463C249.941 127.656 249.561 127.871 249.194 128.106L248.671 128.414C248.39 128.588 248.109 128.762 247.841 128.963L247.359 129.284C239.258 134.949 233.888 144.723 232.201 156.507C232.108 157.11 232.041 157.699 231.974 158.301C231.182 166.114 231.826 174.006 233.875 181.587C241.307 210.095 265.061 230.609 286.941 227.436Z" fill="#37474F"/>
<path d="M330.713 164.167C338.265 193.09 328.972 219.522 309.677 228.507L298.991 233.488C318.287 224.53 327.553 198.084 320.014 169.215C311.284 135.859 283.392 111.784 257.736 115.479C255.657 115.785 253.609 116.274 251.616 116.939C250.419 117.346 249.243 117.815 248.095 118.345L258.807 113.337C259.962 112.831 261.142 112.384 262.342 111.998C264.33 111.333 266.373 110.848 268.448 110.552C294.104 106.722 321.983 130.798 330.713 164.167Z" fill="#37474F"/>
<path d="M343.81 512.14H168.45V520H343.81V512.14Z" fill="#115766"/>
<path d="M256.719 512.14H168.45V520H256.719V512.14Z" fill="#023A59"/>
<path d="M253.438 520H424.352L448.494 403.933H277.594L253.438 520Z" fill="#023A59"/>
<path d="M261.191 520H432.092L456.248 403.933H285.348L261.191 520Z" fill="#37474F"/>
<path d="M338.949 464.564C338.758 466.002 338.88 467.466 339.307 468.853C339.735 470.24 340.457 471.518 341.425 472.599C342.393 473.681 343.584 474.54 344.916 475.117C346.247 475.695 347.688 475.978 349.139 475.945C352.255 475.878 355.243 474.691 357.554 472.601C359.866 470.51 361.347 467.657 361.726 464.564C361.92 463.124 361.8 461.659 361.373 460.27C360.947 458.882 360.225 457.602 359.256 456.519C358.288 455.436 357.096 454.576 355.764 453.997C354.431 453.419 352.989 453.136 351.536 453.169C348.418 453.236 345.429 454.425 343.117 456.518C340.805 458.611 339.326 461.468 338.949 464.564Z" fill="#EBEBEB"/>
</svg>
