<svg width="365" height="365" viewBox="0 0 365 365" fill="none" xmlns="http://www.w3.org/2000/svg">
<path d="M51.8575 296.35H30.2422V338.522H51.8575V296.35Z" fill="#46B2C8"/>
<path d="M98.7833 313.607H77.168V338.53H98.7833V313.607Z" fill="#46B2C8"/>
<g opacity="0.79">
<path d="M98.7833 313.607H77.168V338.53H98.7833V313.607Z" fill="white"/>
</g>
<path d="M142.385 338.529L120.77 338.675V282.137H142.385V338.529Z" fill="#46B2C8"/>
<path d="M188.033 308.754H166.418V338.531H188.033V308.754Z" fill="#46B2C8"/>
<g opacity="0.79">
<path d="M188.033 308.754H166.418V338.531H188.033V308.754Z" fill="white"/>
</g>
<path d="M232.912 282.131H211.297V338.523H232.912V282.131Z" fill="#46B2C8"/>
<path d="M277.369 210.021H255.754V338.531H277.369V210.021Z" fill="#46B2C8"/>
<g opacity="0.79">
<path d="M277.369 210.021H255.754V338.531H277.369V210.021Z" fill="white"/>
</g>
<path d="M51.8295 316.432C51.9974 316.6 47.3181 321.696 41.3759 327.798C35.4337 333.901 30.477 338.748 30.3091 338.544C30.1412 338.34 34.8205 333.281 40.7627 327.171C46.7049 321.061 51.6835 316.257 51.8295 316.432Z" fill="white"/>
<path d="M98.6375 316.82C98.8054 316.995 94.1262 322.09 88.184 328.193C82.2418 334.296 77.2777 339.143 77.1098 338.939C76.9419 338.734 81.6213 333.676 87.5708 327.565C93.5203 321.455 98.4696 316.63 98.6375 316.82Z" fill="#46B2C8"/>
<path d="M187.989 316.411C188.157 316.586 183.477 321.674 177.535 327.784C171.593 333.894 166.629 338.72 166.439 338.53C166.249 338.34 170.951 333.259 176.9 327.156C182.85 321.054 187.821 316.236 187.989 316.411Z" fill="#46B2C8"/>
<path d="M51.5599 296.788C51.7278 296.956 47.0485 302.051 41.1063 308.154C35.1641 314.257 30.2074 319.104 30.0395 318.9C29.8716 318.695 34.5509 313.636 40.4931 307.526C46.4353 301.416 51.392 296.613 51.5599 296.788Z" fill="white"/>
<path d="M142.716 316.746C142.884 316.922 138.204 322.017 132.262 328.12C126.32 334.223 121.356 339.07 121.188 338.865C121.02 338.661 125.699 333.602 131.649 327.492C137.598 321.382 142.548 316.579 142.716 316.746Z" fill="white"/>
<path d="M142.423 297.11C142.591 297.285 137.911 302.381 131.969 308.483C126.027 314.586 121.063 319.433 120.895 319.229C120.727 319.025 125.406 313.966 131.356 307.856C137.305 301.746 142.255 296.935 142.423 297.11Z" fill="white"/>
<path d="M135.687 282.129C135.862 282.304 132.686 285.845 128.598 290.042C124.51 294.24 121.065 297.503 120.897 297.342C120.729 297.182 123.905 293.627 127.993 289.429C132.081 285.232 135.519 281.961 135.687 282.129Z" fill="white"/>
<path d="M277.255 316.411C277.423 316.586 272.736 321.674 266.794 327.784C260.852 333.894 255.895 338.734 255.727 338.53C255.559 338.325 260.238 333.259 266.188 327.156C272.137 321.054 277.087 316.236 277.255 316.411Z" fill="#46B2C8"/>
<path d="M276.962 296.766C277.13 296.942 272.45 302.03 266.501 308.14C260.551 314.25 255.602 319.053 255.434 318.885C255.266 318.717 259.945 313.615 265.895 307.512C271.844 301.409 276.794 296.591 276.962 296.766Z" fill="#46B2C8"/>
<path d="M276.962 274.874C277.13 275.049 272.45 280.137 266.501 286.247C260.551 292.357 255.602 297.161 255.434 296.993C255.266 296.825 259.945 291.729 265.895 285.619C271.844 279.509 276.794 274.699 276.962 274.874Z" fill="#46B2C8"/>
<path d="M233.438 316.411C233.606 316.586 228.927 321.674 222.985 327.784C217.043 333.894 212.079 338.734 211.911 338.53C211.743 338.325 216.422 333.259 222.372 327.156C228.321 321.054 233.27 316.236 233.438 316.411Z" fill="white"/>
<path d="M233.149 296.766C233.317 296.942 228.638 302.03 222.696 308.14C216.753 314.25 211.789 319.053 211.622 318.885C211.454 318.717 216.133 313.615 222.082 307.512C228.032 301.409 232.981 296.591 233.149 296.766Z" fill="white"/>
<path d="M226.298 281.939C226.466 282.115 223.32 285.589 219.276 289.78C215.231 293.97 211.815 297.16 211.647 296.992C211.479 296.824 214.625 293.342 218.67 289.152C222.714 284.962 226.094 281.779 226.298 281.939Z" fill="white"/>
<path d="M277.255 253.704C277.423 253.879 272.736 258.967 266.794 265.077C260.852 271.187 255.895 275.991 255.727 275.816C255.559 275.64 260.238 270.552 266.188 264.449C272.137 258.347 277.087 253.529 277.255 253.704Z" fill="#46B2C8"/>
<path d="M277.255 214.335C277.423 214.51 272.736 219.598 266.794 225.708C260.852 231.818 255.895 236.622 255.727 236.446C255.559 236.271 260.238 231.183 266.188 225.08C272.137 218.978 277.087 214.16 277.255 214.335Z" fill="#46B2C8"/>
<path d="M276.962 234.059C277.13 234.235 272.45 239.323 266.501 245.433C260.551 251.543 255.602 256.383 255.434 256.171C255.266 255.959 259.945 250.908 265.895 244.805C271.844 238.702 276.794 233.884 276.962 234.059Z" fill="#46B2C8"/>
<path d="M323.113 132.531H302.688V338.53H323.113V132.531Z" fill="#46B2C8"/>
<g opacity="0.6">
<path d="M323.209 317.629C323.37 317.79 318.946 322.601 313.332 328.375C307.719 334.149 303.032 338.719 302.871 338.529C302.711 338.34 307.135 333.551 312.748 327.784C318.362 322.017 323.049 317.462 323.209 317.629Z" fill="white"/>
</g>
<g opacity="0.6">
<path d="M322.932 299.065C323.092 299.226 318.669 304.036 313.055 309.811C307.441 315.585 302.755 320.126 302.594 319.965C302.433 319.804 306.857 314.986 312.478 309.219C318.099 303.452 322.779 298.897 322.932 299.065Z" fill="white"/>
</g>
<g opacity="0.6">
<path d="M322.932 278.377C323.092 278.545 318.669 283.356 313.055 289.123C307.441 294.89 302.755 299.438 302.594 299.299C302.433 299.16 306.857 294.32 312.478 288.553C318.099 282.786 322.779 278.217 322.932 278.377Z" fill="white"/>
</g>
<g opacity="0.6">
<path d="M323.209 258.369C323.37 258.537 318.946 263.348 313.332 269.115C307.719 274.882 303.032 279.437 302.871 279.269C302.711 279.101 307.135 274.298 312.748 268.524C318.362 262.749 323.049 258.209 323.209 258.369Z" fill="white"/>
</g>
<g opacity="0.6">
<path d="M322.932 239.805C323.092 239.973 318.669 244.784 313.055 250.551C307.441 256.318 302.755 260.873 302.594 260.705C302.433 260.537 306.857 255.734 312.478 249.959C318.099 244.185 322.779 239.644 322.932 239.805Z" fill="white"/>
</g>
<g opacity="0.6">
<path d="M322.932 219.124C323.092 219.284 318.669 224.095 313.055 229.869C307.441 235.644 302.755 240.184 302.594 240.016C302.433 239.848 306.857 235.045 312.478 229.271C318.099 223.496 322.779 218.956 322.932 219.124Z" fill="white"/>
</g>
<g opacity="0.6">
<path d="M322.932 194.836C323.092 194.997 318.669 199.807 313.055 205.582C307.441 211.356 302.755 215.897 302.594 215.736C302.433 215.575 306.857 210.757 312.478 204.99C318.099 199.223 322.779 194.676 322.932 194.836Z" fill="white"/>
</g>
<g opacity="0.6">
<path d="M323.209 169.41C323.37 169.578 318.946 174.389 313.332 180.156C307.719 185.923 303.032 190.478 302.871 190.31C302.711 190.142 307.135 185.339 312.748 179.565C318.362 173.79 323.049 169.25 323.209 169.41Z" fill="white"/>
</g>
<g opacity="0.6">
<path d="M322.939 144.444C323.092 144.605 318.669 149.415 313.055 155.19C307.441 160.964 302.755 165.504 302.594 165.344C302.433 165.183 306.857 160.365 312.478 154.598C318.099 148.831 322.779 144.276 322.939 144.444Z" fill="white"/>
</g>
<g opacity="0.6">
<path d="M314.755 132.13C314.915 132.291 312.324 135.225 308.966 138.7C305.608 142.175 302.754 144.818 302.593 144.657C302.432 144.496 305.031 141.562 308.389 138.087C311.747 134.612 314.631 131.992 314.755 132.13Z" fill="white"/>
</g>
<path d="M342.612 130.758L341.699 130.122L340.59 129.341L339.013 128.319C335.504 126.102 331.754 124.29 327.837 122.917C325.006 121.924 322.091 121.191 319.128 120.727C315.606 120.181 312.028 120.1 308.484 120.486C300.863 121.304 292.498 124.903 285.205 131.239C281.393 134.564 277.949 138.289 274.934 142.35C271.831 146.613 268.743 151.154 265.546 155.855C259.166 165.272 252.618 175.507 245.836 186.332C239.054 197.158 231.966 208.583 224.432 220.277C220.644 226.117 216.753 232.03 212.687 237.958C210.65 240.915 208.723 243.973 206.744 247.039C204.766 250.105 202.766 253.171 200.7 256.23C196.675 262.328 192.287 268.178 187.56 273.75C185.244 276.48 182.699 279.008 179.953 281.305C178.602 282.452 177.134 283.453 175.573 284.291C174.021 285.166 172.287 285.666 170.507 285.751C168.752 285.593 167.044 285.098 165.478 284.291C163.893 283.561 162.39 282.736 160.908 281.882C157.988 280.152 155.133 278.269 152.381 276.356C146.892 272.509 141.694 268.516 136.694 264.523C134.187 262.527 131.739 260.532 129.35 258.537C126.963 256.537 124.59 254.58 122.232 252.697C117.502 248.908 112.859 245.295 108.238 241.995C103.617 238.695 98.8577 235.87 93.7769 234.439C88.8938 233.111 83.7698 232.929 78.8046 233.907C74.3156 234.879 70.0202 236.594 66.0953 238.98C62.5943 241.105 59.3127 243.573 56.2987 246.346C50.6339 251.543 45.8597 256.12 41.9834 259.887C38.1071 263.654 35.136 266.632 33.1285 268.647L30.8436 270.947L30.0625 271.728C30.0625 271.728 30.3107 271.443 30.7925 270.918C31.2743 270.392 32.0627 269.611 33.0482 268.596C35.0411 266.559 37.9976 263.574 41.8593 259.785C45.721 255.996 50.4806 251.397 56.1308 246.185C59.1516 243.396 62.4403 240.911 65.9493 238.768C69.8968 236.367 74.2167 234.64 78.7316 233.658C83.7382 232.662 88.9075 232.837 93.8353 234.169C98.9453 235.629 103.807 238.403 108.399 241.747C112.991 245.09 117.684 248.667 122.415 252.449C124.78 254.339 127.16 256.296 129.547 258.289C131.934 260.281 134.387 262.274 136.891 264.267C141.891 268.246 147.111 272.239 152.571 276.071C155.316 277.977 158.126 279.86 161.076 281.576C162.536 282.43 164.047 283.262 165.609 283.97C167.129 284.748 168.785 285.229 170.485 285.386C172.207 285.286 173.881 284.786 175.376 283.926C176.917 283.103 178.37 282.125 179.713 281.006C182.439 278.721 184.967 276.208 187.268 273.494C191.987 267.94 196.375 262.111 200.408 256.04C202.474 252.989 204.474 249.915 206.445 246.849C208.416 243.783 210.351 240.732 212.395 237.768C216.461 231.841 220.352 225.928 224.14 220.095C231.689 208.415 238.74 196.99 245.559 186.165C252.377 175.339 258.939 165.111 265.327 155.702C268.532 151 271.627 146.467 274.744 142.197C277.776 138.127 281.239 134.397 285.073 131.071C292.41 124.72 300.841 121.114 308.506 120.311C312.068 119.928 315.664 120.022 319.201 120.589C322.17 121.046 325.091 121.779 327.924 122.779C331.849 124.166 335.599 126.003 339.101 128.254L340.67 129.29L341.765 130.093C342.313 130.524 342.612 130.758 342.612 130.758Z" fill="#46B2C8"/>
<path d="M89.2491 234.761C89.2233 235.595 88.9523 236.403 88.4701 237.084C87.9878 237.766 87.3156 238.29 86.5374 238.591C85.7591 238.893 84.9093 238.958 84.094 238.78C83.2787 238.601 82.534 238.187 81.9529 237.588C81.3718 236.989 80.98 236.232 80.8264 235.411C80.6729 234.591 80.7643 233.743 81.0894 232.975C81.4145 232.206 81.9588 231.55 82.6543 231.089C83.3499 230.627 84.1659 230.381 85.0005 230.381C85.5673 230.388 86.1271 230.508 86.6477 230.732C87.1683 230.957 87.6395 231.282 88.0342 231.689C88.429 232.096 88.7395 232.576 88.9479 233.104C89.1564 233.631 89.2587 234.194 89.2491 234.761Z" fill="#46B2C8"/>
<path d="M85.0023 242.557C83.4531 242.594 81.9282 242.168 80.6223 241.333C79.3164 240.499 78.2888 239.294 77.6706 237.873C77.0524 236.452 76.8718 234.879 77.1517 233.355C77.4316 231.831 78.1593 230.425 79.2421 229.316C80.3248 228.207 81.7133 227.446 83.2305 227.131C84.7476 226.815 86.3244 226.958 87.7597 227.542C89.195 228.127 90.4235 229.125 91.2886 230.411C92.1536 231.697 92.6158 233.211 92.6162 234.761C92.6377 236.804 91.8482 238.772 90.4209 240.233C88.9936 241.695 87.045 242.531 85.0023 242.557ZM85.0023 227.695C83.5975 227.658 82.2138 228.042 81.028 228.796C79.8422 229.55 78.9081 230.64 78.3452 231.928C77.7822 233.216 77.616 234.642 77.8677 236.024C78.1194 237.407 78.7776 238.683 79.7582 239.69C80.7388 240.696 81.9973 241.388 83.3727 241.675C84.7482 241.963 86.1783 241.834 87.4802 241.305C88.7821 240.776 89.8966 239.871 90.6815 238.705C91.4663 237.54 91.8858 236.166 91.8862 234.761C91.9077 232.912 91.1951 231.13 89.9047 229.805C88.6143 228.481 86.8514 227.722 85.0023 227.695Z" fill="#46B2C8"/>
<path d="M317.585 120.136C317.559 120.97 317.288 121.778 316.806 122.459C316.324 123.141 315.652 123.665 314.873 123.966C314.095 124.268 313.245 124.333 312.43 124.155C311.615 123.976 310.87 123.562 310.289 122.963C309.708 122.363 309.316 121.607 309.162 120.786C309.009 119.966 309.1 119.118 309.425 118.35C309.75 117.581 310.295 116.925 310.99 116.464C311.686 116.002 312.502 115.756 313.336 115.756C313.904 115.763 314.464 115.881 314.985 116.105C315.506 116.329 315.977 116.654 316.372 117.062C316.767 117.469 317.078 117.95 317.286 118.478C317.494 119.005 317.596 119.569 317.585 120.136Z" fill="#46B2C8"/>
<path d="M313.339 127.925C311.79 127.96 310.265 127.532 308.96 126.696C307.655 125.861 306.628 124.655 306.011 123.234C305.395 121.812 305.215 120.239 305.497 118.715C305.778 117.191 306.507 115.786 307.591 114.678C308.675 113.57 310.064 112.811 311.581 112.496C313.099 112.182 314.676 112.327 316.11 112.912C317.545 113.498 318.773 114.498 319.636 115.785C320.5 117.071 320.961 118.586 320.96 120.136C320.979 122.178 320.188 124.145 318.759 125.606C317.331 127.066 315.381 127.9 313.339 127.925ZM313.339 113.069C311.934 113.034 310.551 113.419 309.366 114.174C308.181 114.929 307.249 116.02 306.687 117.308C306.125 118.596 305.96 120.022 306.212 121.404C306.465 122.786 307.124 124.061 308.105 125.067C309.085 126.073 310.344 126.764 311.719 127.051C313.095 127.338 314.524 127.209 315.826 126.679C317.127 126.15 318.241 125.245 319.026 124.079C319.81 122.914 320.23 121.541 320.23 120.136C320.251 118.285 319.538 116.502 318.246 115.177C316.954 113.852 315.189 113.094 313.339 113.069Z" fill="#46B2C8"/>
<path d="M33.0547 169.164V207.095H79.8696L88.469 219.147V207.095H98.6452V169.164H33.0547Z" fill="#FAFAFA"/>
<path d="M33.0562 169.165H33.3555H34.2607H37.8085L51.2478 169.121L98.6467 169.033H98.8146V169.208C98.8146 180.83 98.8146 193.642 98.8146 207.168V207.322H88.4486L88.6384 207.132V219.732L88.2952 219.25L79.7178 207.205L79.8711 207.278L33.0562 207.234H32.9102V207.095C32.9467 195.415 32.9686 185.925 32.9905 179.319C32.9905 176.049 32.9905 173.479 33.027 171.778C33.027 170.924 33.027 170.274 33.027 169.822C33.027 169.369 33.027 169.165 33.027 169.165C33.027 169.165 33.027 169.405 33.027 169.851C33.027 170.296 33.027 170.968 33.027 171.829C33.027 173.574 33.027 176.121 33.027 179.406C33.027 185.976 33.0708 195.423 33.1 207.095L32.9613 206.949L79.7761 206.913H79.8638L79.9222 206.986L88.5289 219.038L88.1858 219.148V206.906H98.5518L98.362 207.095C98.362 193.598 98.362 180.815 98.362 169.135L98.5371 169.311L51.2478 169.223L37.772 169.179H34.195H33.2679L33.0562 169.165Z" fill="#263238"/>
<path d="M86.4919 184.311C86.4919 184.413 77.2501 184.501 65.8475 184.501C54.4449 184.501 45.2031 184.413 45.2031 184.311C45.2031 184.209 54.4449 184.121 65.8475 184.121C77.2501 184.121 86.4919 184.201 86.4919 184.311Z" fill="#263238"/>
<path d="M86.4919 192.67C86.4919 192.772 77.2501 192.86 65.8475 192.86C54.4449 192.86 45.2031 192.772 45.2031 192.67C45.2031 192.568 54.4449 192.48 65.8475 192.48C77.2501 192.48 86.4919 192.568 86.4919 192.67Z" fill="#263238"/>
<path d="M343.452 62.2559H283.234V96.4199H293.192L292.447 96.5586L300.973 107.428L300.419 96.4199H343.452V62.2559Z" fill="#FAFAFA"/>
<path d="M343.453 62.2479C343.453 62.2479 343.453 62.445 343.453 62.8392C343.453 63.2334 343.453 63.8393 343.453 64.6058C343.453 66.1753 343.453 68.4602 343.49 71.4021C343.49 77.337 343.534 85.8926 343.563 96.4192V96.5652H343.424L300.354 96.609L300.537 96.4119C300.712 99.9013 300.902 103.624 301.099 107.42V108.012L300.734 107.544L292.295 96.6747L292.105 96.4265L292.412 96.3681L293.142 96.2367L293.178 96.609H283.031V96.4192C283.031 84.2574 283.031 72.7234 283.031 62.2479V62.0508H283.243L326.766 62.1384L339.095 62.1822H342.351H343.461H343.161H342.315H339.022L326.649 62.226L283.243 62.4231L283.418 62.2479C283.418 72.7234 283.418 84.2574 283.418 96.4192L283.228 96.2294H293.186L293.222 96.609L292.492 96.7477L292.609 96.4411C295.529 100.164 298.405 103.829 301.135 107.311L300.799 107.435C300.61 103.646 300.427 99.9232 300.252 96.4338V96.2367H300.449L343.519 96.2805L343.373 96.4192C343.41 85.9291 343.431 77.4027 343.453 71.4897C343.453 68.5332 343.453 66.2337 343.49 64.6569C343.49 63.8831 343.49 63.2845 343.49 62.8684C343.49 62.4523 343.453 62.2479 343.453 62.2479Z" fill="#263238"/>
<path d="M294.57 76.0804C294.57 75.9782 302.973 75.8906 313.339 75.8906C323.705 75.8906 332.114 75.9782 332.114 76.0804C332.114 76.1826 323.712 76.2702 313.339 76.2702C302.965 76.2702 294.57 76.1899 294.57 76.0804Z" fill="#263238"/>
<path d="M294.57 83.4027C294.57 83.3005 302.973 83.2129 313.339 83.2129C323.705 83.2129 332.114 83.3005 332.114 83.4027C332.114 83.5049 323.712 83.5925 313.339 83.5925C302.965 83.5925 294.57 83.5122 294.57 83.4027Z" fill="#263238"/>
<path d="M129.892 113.362C134.163 106.435 135.688 98.1601 134.166 90.1653C132.644 82.1704 128.186 75.0344 121.668 70.1609C115.15 65.2874 107.045 63.0291 98.9457 63.8302C90.8469 64.6314 83.3409 68.434 77.9042 74.4901C72.4676 80.5461 69.4938 88.4173 69.5678 96.5554C69.6417 104.693 72.7582 112.509 78.304 118.466C83.8499 124.422 91.4237 128.087 99.5358 128.741C107.648 129.395 115.711 126.99 122.139 121.998L136.739 125.444L129.892 113.362Z" fill="white"/>
<path d="M122.357 121.91H122.058C117.573 125.36 112.257 127.565 106.648 128.305C104.969 128.534 103.274 128.615 101.582 128.546C100.713 128.488 99.8296 128.466 98.9317 128.393L96.238 127.969C88.2058 126.37 81.0833 121.774 76.3163 115.114C73.6653 111.438 71.8332 107.236 70.9435 102.792C70.0299 98.095 70.162 93.2548 71.3304 88.615C72.5361 83.767 74.8782 79.2754 78.1632 75.5115C81.5027 71.6583 85.7116 68.6555 90.4418 66.7515C94.9774 64.9618 99.857 64.2133 104.721 64.5615C109.331 64.8637 113.818 66.1798 117.861 68.4159C125.126 72.4451 130.568 79.1078 133.066 87.0309C134.077 90.402 134.569 93.9071 134.526 97.4261C134.389 103.054 132.77 108.545 129.833 113.347L129.796 113.413L129.833 113.479L136.797 125.495L130.088 113.413C133.067 108.602 134.724 103.09 134.891 97.4334C134.951 93.8588 134.461 90.2962 133.439 86.8703C130.94 78.8348 125.453 72.0645 118.109 67.956C114.01 65.6835 109.462 64.3402 104.786 64.0213C99.8457 63.6523 94.8855 64.4008 90.2739 66.2113C85.4655 68.1443 81.1883 71.1977 77.7982 75.1173C74.441 78.9436 72.0459 83.516 70.8121 88.4544C69.6279 93.1715 69.4983 98.0917 70.4325 102.865C71.3529 107.367 73.2245 111.62 75.9221 115.34C80.7686 122.085 88.0059 126.728 96.1577 128.32L98.8952 128.729C99.7931 128.809 100.691 128.831 101.574 128.875C103.282 128.939 104.992 128.851 106.684 128.612C112.319 127.845 117.651 125.601 122.138 122.107L136.738 125.414L122.357 121.91Z" fill="#263238"/>
<path d="M99.7704 85.1033L100.69 99.7033C100.732 100.27 100.977 100.803 101.379 101.205C101.78 101.607 102.313 101.851 102.88 101.893C103.485 101.927 104.08 101.728 104.543 101.337C105.006 100.946 105.301 100.393 105.369 99.7909L106.99 85.1252C107.019 84.8639 106.992 84.5993 106.911 84.3492C106.83 84.099 106.697 83.869 106.52 83.6743C106.343 83.4796 106.127 83.3247 105.886 83.22C105.645 83.1152 105.384 83.0629 105.121 83.0666L101.559 83.1177C101.309 83.1259 101.064 83.1843 100.838 83.2895C100.612 83.3947 100.409 83.5445 100.242 83.7299C100.075 83.9153 99.9473 84.1325 99.8662 84.3685C99.7851 84.6045 99.7525 84.8544 99.7704 85.1033Z" fill="#FF5454"/>
<path d="M106.778 110.113C106.555 110.78 106.139 111.365 105.584 111.795C105.029 112.225 104.358 112.481 103.658 112.531C102.957 112.581 102.257 112.421 101.647 112.074C101.036 111.726 100.543 111.205 100.228 110.577C99.9133 109.949 99.7919 109.241 99.879 108.544C99.9661 107.847 100.258 107.191 100.717 106.66C101.177 106.128 101.783 105.745 102.46 105.558C103.138 105.371 103.855 105.389 104.522 105.609C104.967 105.755 105.379 105.988 105.733 106.294C106.088 106.6 106.378 106.973 106.588 107.391C106.798 107.81 106.923 108.266 106.955 108.733C106.988 109.201 106.927 109.67 106.778 110.113Z" fill="#FF5454"/>
<path d="M225.016 233.703L227.936 241.879C227.936 241.879 241.302 254.15 243.266 270.583C245.23 287.015 245.237 290.599 245.237 290.599L241.098 338.531H152.038C152.038 338.531 149.118 299.783 150.176 288.825C151.235 277.868 157.637 265.465 157.637 265.465L164.426 249.033L164.63 240.762L225.016 233.703Z" fill="#263238"/>
<path d="M227.761 242.718C227.554 242.774 227.345 242.818 227.133 242.849L225.33 243.17L218.694 244.258C213.081 245.156 205.328 246.346 196.743 247.55C188.158 248.755 180.362 249.74 174.704 250.273C171.879 250.565 169.594 250.755 168.003 250.865L166.178 250.981C165.967 250.999 165.754 250.999 165.543 250.981C165.749 250.932 165.959 250.9 166.171 250.887L167.988 250.704C169.573 250.543 171.857 250.317 174.675 249.974C180.325 249.346 188.107 248.339 196.692 247.142C205.277 245.944 213.029 244.791 218.65 243.966L225.308 242.995L227.118 242.747C227.331 242.719 227.546 242.709 227.761 242.718Z" fill="#455A64"/>
<path d="M177.192 271.721C177.111 271.997 177.001 272.264 176.864 272.516C176.637 273.027 176.272 273.743 175.805 274.619C174.576 276.895 173.201 279.09 171.688 281.189C170.175 283.292 168.532 285.299 166.768 287.197C166.089 287.927 165.519 288.489 165.111 288.868C164.915 289.081 164.697 289.272 164.461 289.438C164.614 289.192 164.798 288.966 165.008 288.766L166.563 287.014C167.87 285.554 169.615 283.415 171.381 280.963C173.148 278.51 174.579 276.181 175.572 274.466L176.732 272.429C176.86 272.177 177.014 271.94 177.192 271.721Z" fill="#455A64"/>
<path d="M282.195 146.833C282.195 146.833 284.02 177.537 284.567 181.012C285.115 184.487 282.195 188.874 282.195 188.874C282.195 188.874 275.435 189.604 270.865 181.194L267.945 174.624C269.707 169.015 270.266 163.098 269.588 157.258C268.493 147.388 267.945 142.818 267.945 142.818L282.195 146.833Z" fill="#FFBE9D"/>
<path d="M273.999 104.034C274.795 111.443 274.729 117.853 271.079 119.167C270.772 119.276 268.319 119.371 267.998 119.408C263.793 119.86 259.684 113.714 258.815 105.684C257.946 97.6536 260.647 90.7697 264.852 90.3098C265.246 90.3098 267.487 89.9521 267.874 90.0178C271.604 90.6894 273.21 96.7557 273.999 104.034Z" fill="#455A64"/>
<path d="M285.67 130.56C285.67 130.56 288.751 131.59 288.189 134.561C287.524 137.361 286.683 140.116 285.67 142.81L281.838 147.051L267.968 142.81C267.305 141.528 266.979 140.099 267.019 138.656C267.114 136.327 267.019 130.56 267.019 130.56C268.231 128.996 269.09 127.188 269.537 125.261C270.005 122.859 270.34 120.063 270.435 119.209C270.44 119.173 270.451 119.139 270.469 119.109C270.487 119.078 270.511 119.051 270.54 119.03C270.569 119.009 270.601 118.994 270.636 118.985C270.671 118.977 270.707 118.976 270.742 118.983C271.371 119.116 271.954 119.414 272.429 119.848C272.903 120.282 273.254 120.835 273.443 121.45C274.173 123.779 274.005 124.428 274.005 124.428L285.67 130.56Z" fill="#FFBE9D"/>
<path d="M274.616 120.662L272.631 117.486L270.543 119.092L274.412 126.735L275.463 123.531L274.616 120.662Z" fill="#455A64"/>
<path d="M274.619 120.662C274.619 120.662 276.809 117.377 278.816 118.939C280.824 120.501 280.364 121.436 278.816 124.312C278.816 124.312 282.773 123.764 281.838 127.962C281.838 127.962 285.766 127.188 285.671 130.561C285.671 130.561 288.905 133.24 287.51 135.262C286.116 137.284 280.758 141.16 279.276 140.693C277.794 140.226 277.626 138.211 277.626 138.211C277.626 138.211 275.86 137.59 275.319 136.751C274.779 135.911 275.473 134.561 275.473 134.561C275.473 134.561 273.918 133.218 273.531 132.845C273.144 132.473 273.531 130.524 273.531 130.524L275.626 128.115C275.626 128.115 272.604 129.743 271.903 129.283C271.202 128.823 270.443 128.429 271.049 127.414C271.944 126.234 272.919 125.116 273.969 124.071L274.619 120.662Z" fill="#FFBE9D"/>
<path d="M277.961 138.416C278.231 137.947 278.539 137.5 278.881 137.08C279.609 135.966 280.517 134.979 281.567 134.16C282.647 133.441 283.677 132.649 284.648 131.788C285.011 131.393 285.352 130.979 285.67 130.547C285.541 131.103 285.255 131.61 284.845 132.007C283.916 132.941 282.893 133.778 281.793 134.503C280.776 135.301 279.87 136.232 279.1 137.27C278.781 137.708 278.397 138.094 277.961 138.416Z" fill="#EB996E"/>
<path d="M275.465 135.153C276.354 133.812 277.347 132.543 278.436 131.357C279.297 130.357 280.027 129.394 280.677 128.788C280.99 128.421 281.389 128.138 281.838 127.963C281.874 128.007 281.444 128.328 280.874 128.978C280.305 129.627 279.597 130.591 278.721 131.606C277.733 132.875 276.645 134.061 275.465 135.153Z" fill="#EB996E"/>
<path d="M275.625 128.115C276.13 127.427 276.694 126.785 277.311 126.195C277.836 125.537 278.324 124.85 278.771 124.137C278.665 125.017 278.255 125.833 277.611 126.444C277.072 127.133 276.396 127.702 275.625 128.115Z" fill="#EB996E"/>
<path d="M270.048 132.131C270.517 132.197 270.961 132.38 271.34 132.664C272.29 133.296 273.082 134.137 273.654 135.124C274.215 136.099 274.657 137.138 274.968 138.219C275.14 138.651 275.246 139.106 275.282 139.57C275.039 139.176 274.849 138.751 274.72 138.307C274.334 137.276 273.868 136.278 273.326 135.321C272.773 134.38 272.048 133.553 271.187 132.883C270.515 132.35 270.019 132.131 270.048 132.131Z" fill="#EB996E"/>
<path d="M270.739 119.106C274.326 118.717 276.529 111.891 275.66 103.858C274.79 95.8257 271.177 89.6289 267.589 90.0174C264.002 90.4058 261.799 97.2324 262.669 105.265C263.538 113.297 267.152 119.494 270.739 119.106Z" fill="#263238"/>
<path d="M269.412 118.933C272.77 117.254 274.777 111.071 274.011 103.997C273.244 96.9232 269.996 91.3752 266.375 90.4043C263.528 92.0249 261.908 98.1642 262.674 105.245C263.441 112.326 266.302 117.903 269.412 118.933Z" fill="#E0E0E0"/>
<path d="M269.565 113.151C269.241 110.869 269.041 108.571 268.967 106.267C268.768 103.971 268.693 101.666 268.74 99.3613C269.073 101.643 269.276 103.941 269.346 106.245C269.544 108.541 269.618 110.847 269.565 113.151Z" fill="white"/>
<path d="M268.31 108.509C268.104 107.883 267.969 107.237 267.908 106.582C267.74 105.384 267.565 103.735 267.463 101.895C267.361 100.055 267.361 98.3983 267.397 97.1938C267.378 96.5425 267.432 95.8912 267.558 95.252C267.651 95.8948 267.687 96.5445 267.667 97.1938C267.667 98.3983 267.74 100.048 267.843 101.88C267.945 103.713 268.076 105.355 268.178 106.552C268.276 107.2 268.32 107.854 268.31 108.509Z" fill="white"/>
<path d="M274.618 120.647C274.628 120.724 274.628 120.803 274.618 120.88L274.516 121.545L274.085 124.078C273.662 124.516 273.187 125.027 272.669 125.596C272.096 126.199 271.58 126.854 271.129 127.553C271.025 127.731 270.981 127.939 271.005 128.144C271.058 128.35 271.182 128.531 271.355 128.655C271.547 128.805 271.747 128.943 271.954 129.071C272.151 129.174 272.38 129.2 272.596 129.144C273.645 128.87 274.654 128.461 275.596 127.925L276.326 127.56L275.801 128.158L273.713 130.575L273.749 130.524C273.589 130.892 273.506 131.29 273.506 131.692C273.506 132.094 273.589 132.491 273.749 132.86C274.282 133.547 274.947 134.12 275.706 134.546L275.866 134.648L275.757 134.809C275.312 135.437 275.027 136.393 275.757 136.911C276.445 137.457 277.213 137.893 278.035 138.203L277.779 138.371V138.313C277.83 138.364 277.662 138.189 277.903 138.466C278.4 138.181 278.042 138.349 278.151 138.306V138.393V138.576C278.165 138.701 278.187 138.825 278.217 138.948C278.273 139.2 278.359 139.446 278.473 139.678C278.586 139.897 278.743 140.09 278.932 140.247C279.101 140.406 279.316 140.508 279.546 140.539C280.056 140.5 280.553 140.356 281.006 140.116C281.509 139.879 281.996 139.611 282.466 139.313C283.343 138.759 284.184 138.149 284.984 137.488C285.779 136.858 286.512 136.154 287.174 135.386C287.486 135.043 287.664 134.6 287.678 134.137C287.66 133.675 287.538 133.224 287.32 132.816C286.87 132.001 286.274 131.276 285.561 130.677L285.502 130.619V130.531C285.525 130.087 285.443 129.645 285.262 129.239C285.07 128.857 284.76 128.547 284.378 128.356C283.592 128.028 282.727 127.936 281.889 128.093H281.663L281.699 127.859C281.736 127.611 281.787 127.355 281.816 127.129C281.838 126.886 281.838 126.642 281.816 126.399C281.795 125.931 281.612 125.484 281.298 125.136C280.968 124.843 280.579 124.625 280.156 124.499C279.734 124.373 279.288 124.341 278.852 124.406H278.589L278.713 124.18C279.121 123.471 279.489 122.74 279.816 121.99C279.96 121.655 280.041 121.296 280.057 120.932C280.058 120.594 279.959 120.264 279.772 119.982C279.413 119.47 278.947 119.042 278.407 118.727C278.17 118.621 277.914 118.566 277.655 118.566C277.396 118.566 277.139 118.621 276.903 118.727C276.228 119.029 275.63 119.478 275.151 120.041C274.976 120.223 274.859 120.377 274.771 120.479C274.684 120.581 274.647 120.632 274.64 120.625C274.667 120.565 274.702 120.509 274.742 120.457C274.849 120.292 274.966 120.133 275.093 119.982C275.295 119.739 275.515 119.509 275.75 119.296C276.069 118.991 276.44 118.744 276.845 118.566C277.103 118.45 277.383 118.391 277.666 118.391C277.949 118.391 278.229 118.45 278.487 118.566L278.889 118.814L279.261 119.114C279.538 119.321 279.783 119.567 279.991 119.844C280.21 120.159 280.328 120.533 280.327 120.917C280.318 121.313 280.236 121.704 280.086 122.07C279.765 122.836 279.4 123.582 278.991 124.304L278.852 124.1C279.321 124.049 279.795 124.078 280.254 124.187C280.752 124.295 281.208 124.549 281.56 124.917C281.929 125.318 282.145 125.834 282.174 126.377C282.196 126.642 282.196 126.908 282.174 127.173C282.174 127.436 282.093 127.699 282.05 127.969L281.86 127.772C282.77 127.591 283.713 127.688 284.568 128.049C285.018 128.274 285.384 128.637 285.612 129.086C285.822 129.543 285.92 130.043 285.897 130.546L285.831 130.4C286.584 131.027 287.213 131.789 287.685 132.648C287.936 133.095 288.073 133.596 288.087 134.108C288.087 134.381 288.035 134.651 287.933 134.904C287.822 135.147 287.679 135.375 287.51 135.583C286.854 136.383 286.121 137.117 285.32 137.773C284.508 138.449 283.652 139.071 282.758 139.634C282.288 139.936 281.8 140.209 281.298 140.452C280.784 140.727 280.215 140.881 279.633 140.904C279.315 140.874 279.01 140.763 278.747 140.581C278.483 140.4 278.271 140.154 278.129 139.868C278.001 139.615 277.903 139.348 277.837 139.072C277.806 138.937 277.782 138.801 277.764 138.663V138.451V138.32C277.874 138.269 277.524 138.444 278.013 138.159C278.254 138.43 278.086 138.254 278.137 138.313V138.7L277.881 138.597C277.024 138.269 276.221 137.811 275.501 137.24C275.314 137.077 275.165 136.875 275.063 136.648C274.967 136.418 274.935 136.166 274.969 135.918C275.033 135.459 275.211 135.022 275.487 134.648L275.538 134.911C274.732 134.456 274.029 133.839 273.472 133.101C273.236 132.699 273.124 132.237 273.151 131.772C273.159 131.335 273.235 130.901 273.377 130.487L275.487 128.093L275.669 128.326C274.697 128.875 273.653 129.285 272.567 129.546C272.282 129.616 271.982 129.574 271.727 129.429C271.523 129.283 271.311 129.151 271.114 128.983C270.895 128.822 270.742 128.585 270.683 128.319C270.654 128.066 270.708 127.81 270.837 127.589C271.309 126.881 271.847 126.219 272.443 125.611C272.968 125.041 273.457 124.545 273.903 124.151C274.122 123.078 274.29 122.231 274.414 121.625L274.56 120.975C274.556 120.863 274.576 120.751 274.618 120.647Z" fill="#EB996E"/>
<path d="M153.505 256.23L125.933 222C125.933 222 111.274 234.344 110.888 234.731C110.501 235.118 133.817 257.807 148.796 266.588L153.505 263.471V256.23Z" fill="#FFBE9D"/>
<path d="M176.659 245.281C176.659 245.281 167.957 243.909 167.169 244.478C166.381 245.048 160.409 249.063 160.409 249.063C159.615 250.306 158.735 251.491 157.774 252.61C157.774 252.61 155.832 254.903 154.343 255.129C153.547 255.277 152.73 255.277 151.934 255.129L148.043 265.896C148.043 265.896 151.021 268.992 152.854 268.758C154.686 268.524 164.417 263.152 164.417 263.152L166.826 262.349C166.826 262.349 176.214 262.692 176.674 259.83V259.027L167.395 258.224L163.964 258.801L169.921 256.56C169.921 256.56 178.623 256.049 179.411 255.83C180.199 255.611 181.127 254.37 180.783 253.64L178.951 253.413C178.951 253.413 180.929 252.048 180.856 250.785L172.622 249.479C172.622 249.479 177.579 246.989 176.659 245.281Z" fill="#FFBE9D"/>
<path d="M179.9 253.311C179.654 253.304 179.409 253.269 179.17 253.209C178.695 253.121 177.995 253.004 177.133 252.88C175.403 252.625 173.009 252.318 170.359 252.026C170.042 251.979 169.723 251.952 169.402 251.946C169.102 251.951 168.804 252.003 168.519 252.099C167.957 252.325 167.395 252.588 166.877 252.829C165.833 253.318 164.906 253.793 164.146 254.223C163.548 254.556 162.968 254.922 162.409 255.318C162.212 255.479 162.002 255.623 161.781 255.749C161.923 255.535 162.104 255.349 162.314 255.201C162.847 254.755 163.413 254.35 164.008 253.99C164.738 253.53 165.679 253.026 166.723 252.53C167.249 252.274 167.782 252.019 168.395 251.8C168.714 251.687 169.049 251.626 169.388 251.617C169.727 251.625 170.066 251.651 170.403 251.697C173.06 251.997 175.454 252.34 177.177 252.668C178.038 252.829 178.732 252.982 179.206 253.114C179.446 253.146 179.679 253.212 179.9 253.311Z" fill="#EB996E"/>
<path d="M172.862 249.843C172.862 249.901 172.19 249.616 171.088 249.405C169.657 249.116 168.18 249.155 166.768 249.521C165.355 249.886 164.044 250.568 162.934 251.514C162.079 252.244 161.649 252.799 161.598 252.755C161.883 252.196 162.278 251.7 162.758 251.295C163.861 250.257 165.207 249.512 166.672 249.129C168.138 248.746 169.676 248.738 171.146 249.105C171.762 249.231 172.346 249.482 172.862 249.843Z" fill="#EB996E"/>
<path d="M284.633 182.202C285.605 184.006 286.178 185.997 286.312 188.042C286.312 190.896 284.64 195.89 284.64 195.89L282.56 197.853C282.56 197.853 283.925 204.095 275.99 205.883C268.054 207.672 223.824 182.224 223.824 182.224L222.648 148.469C222.648 148.469 229.072 151.148 233.708 155.769C238.343 160.39 264.755 179.859 264.755 179.859C264.755 179.859 265.828 172.968 267.011 173.42C268.193 173.873 284.633 182.202 284.633 182.202Z" fill="#E0E0E0"/>
<path d="M222.648 148.468L198.697 143.358L192.462 136.948L164.92 136.686L161.598 142.715L140.961 155.264C140.961 155.264 146.159 189.64 148.057 193.647C149.955 197.655 164.978 241.827 164.978 241.827L225.028 234.666L225.539 206.926L227.276 193.501C227.648 190.63 227.707 187.727 227.451 184.844C226.298 172.331 222.648 148.468 222.648 148.468Z" fill="#E0E0E0"/>
<path d="M133.823 230.278L114.113 243.776L107.236 233.972L109.076 232.337C109.076 232.337 98.9213 223.942 99.5345 218.022C100.148 212.101 110.85 196.852 110.85 196.852C110.85 196.852 133.793 159.3 140.904 155.242C141.896 154.68 150.532 175.521 150.532 183.712C150.532 191.902 148.919 191.902 148.919 191.902C148.919 191.902 141.977 198.64 138.699 204.772C135.421 210.904 129.895 217.54 126.223 220.015L133.823 230.278Z" fill="#E0E0E0"/>
<path d="M115.215 215.212C115.215 215.212 115.405 215.168 115.748 215.154C116.236 215.146 116.724 215.173 117.208 215.234C118.798 215.437 120.343 215.906 121.778 216.621C123.213 217.337 124.524 218.279 125.661 219.409C126.153 219.853 126.576 220.367 126.917 220.935C126.822 221.037 124.931 218.599 121.61 216.964C120.207 216.269 118.712 215.778 117.171 215.504C115.967 215.3 115.215 215.278 115.215 215.212Z" fill="#263238"/>
<path d="M121.217 208.562C121.769 208.895 122.262 209.317 122.677 209.811C123.742 210.949 124.601 212.263 125.217 213.694C125.833 215.126 126.203 216.651 126.312 218.206C126.391 218.846 126.364 219.495 126.232 220.126C126.173 220.126 126.188 219.396 126.049 218.228C125.861 216.72 125.463 215.245 124.867 213.848C124.26 212.451 123.453 211.15 122.472 209.986C121.728 209.095 121.18 208.614 121.217 208.562Z" fill="#263238"/>
<path d="M196.733 187.188C196.826 187.514 196.888 187.849 196.915 188.188C196.975 188.577 197.014 188.969 197.032 189.363C197.074 189.885 197.088 190.409 197.076 190.932C197.081 191.569 197.051 192.205 196.988 192.838C196.952 193.524 196.82 194.247 196.703 195.028C196.122 198.334 194.881 201.49 193.053 204.306C192.615 204.941 192.214 205.554 191.776 206.087C191.387 206.595 190.973 207.082 190.535 207.547C190.185 207.939 189.815 208.312 189.425 208.664C189.145 208.943 188.848 209.204 188.535 209.445C188.285 209.674 188.014 209.877 187.724 210.051C187.673 209.985 188.812 209.102 190.338 207.372C190.717 206.934 191.126 206.459 191.52 205.912C191.914 205.364 192.331 204.773 192.754 204.138C193.627 202.745 194.379 201.28 195.002 199.758C195.594 198.216 196.053 196.626 196.375 195.006C196.499 194.276 196.638 193.546 196.689 192.867C196.74 192.188 196.798 191.567 196.82 190.991C196.879 188.626 196.652 187.202 196.733 187.188Z" fill="#263238"/>
<path d="M195.253 174.106C195.085 174.005 194.929 173.887 194.785 173.755C194.479 173.522 194.055 173.149 193.479 172.711C192.34 171.806 190.646 170.521 188.493 169.061C186.339 167.601 183.74 165.864 180.857 163.951C177.679 161.873 174.631 159.6 171.732 157.148H172.017C171.71 157.586 171.396 158.067 171.104 158.564C169.89 160.623 169.038 162.874 168.586 165.221L168.476 165.798L168.243 165.265C165.968 160.132 164.162 154.803 162.848 149.344C162.359 147.307 162.023 145.694 161.833 144.533C161.724 143.971 161.665 143.533 161.621 143.234C161.593 143.084 161.576 142.933 161.57 142.781C161.627 142.922 161.666 143.069 161.687 143.219C161.753 143.548 161.84 143.949 161.957 144.511C162.191 145.636 162.556 147.263 163.074 149.286C164.461 154.706 166.302 160.001 168.578 165.112H168.228C168.681 162.722 169.543 160.428 170.776 158.33C171.075 157.827 171.396 157.337 171.703 156.87L171.827 156.695L171.987 156.841C174.87 159.285 177.893 161.559 181.039 163.652C183.908 165.608 186.507 167.346 188.639 168.864C190.77 170.383 192.449 171.66 193.559 172.602C194.128 173.054 194.537 173.449 194.822 173.704C194.975 173.827 195.119 173.962 195.253 174.106Z" fill="#263238"/>
<path d="M198.667 143.381C198.747 143.471 198.813 143.572 198.865 143.68C198.989 143.885 199.171 144.184 199.383 144.585C199.828 145.374 200.441 146.542 201.157 148.031C203.098 151.988 204.589 156.151 205.602 160.441L205.719 160.945L205.31 160.623C204.058 159.656 202.896 158.579 201.836 157.404C201.176 156.675 200.557 155.909 199.981 155.112L200.325 155.01C200.084 159.229 199.872 163.04 199.689 166.244C198.368 168.61 197.28 170.559 196.499 171.968L195.601 173.523C195.509 173.712 195.396 173.89 195.266 174.055C195.332 173.856 195.42 173.665 195.528 173.486C195.733 173.077 196.01 172.544 196.353 171.88C197.083 170.464 198.149 168.493 199.427 166.106V166.164C199.587 163.003 199.777 159.149 199.981 154.929V154.397L200.295 154.835C201.779 156.886 203.546 158.718 205.544 160.273L205.245 160.456C204.247 156.181 202.806 152.022 200.945 148.046C200.259 146.586 199.682 145.366 199.273 144.556C199.091 144.177 198.938 143.87 198.813 143.622C198.758 143.546 198.709 143.465 198.667 143.381Z" fill="#263238"/>
<path d="M227.76 186.29C227.65 186.29 227.03 180.508 226.336 173.361C225.643 166.215 225.198 160.404 225.3 160.396C225.402 160.389 226.03 166.171 226.716 173.325C227.402 180.479 227.855 186.275 227.76 186.29Z" fill="#263238"/>
<path d="M270.34 189.844C269.857 189.502 269.427 189.091 269.062 188.625C268.12 187.553 267.3 186.381 266.617 185.128C265.935 183.874 265.392 182.55 264.996 181.179C264.803 180.618 264.69 180.033 264.66 179.441C265.296 181.327 266.062 183.166 266.952 184.946C267.964 186.656 269.096 188.293 270.34 189.844Z" fill="#263238"/>
<path d="M266.755 190.683C266.755 190.683 266.609 190.552 266.397 190.267C266.099 189.867 265.836 189.442 265.609 188.997C264.083 186.039 263.728 182.613 264.616 179.405C264.746 178.925 264.914 178.456 265.12 178.003C265.183 177.829 265.274 177.667 265.39 177.521C265.448 177.521 265.156 178.251 264.879 179.471C264.519 181.04 264.418 182.657 264.579 184.259C264.752 185.858 265.181 187.418 265.85 188.88C266.368 190.004 266.806 190.64 266.755 190.683Z" fill="#263238"/>
<path d="M140.043 176.361C140.199 176.591 140.331 176.835 140.437 177.091L141.401 179.135L144.613 185.866C145.868 188.501 146.971 190.896 147.723 192.655C148.102 193.538 148.394 194.254 148.577 194.75C148.693 195.005 148.781 195.272 148.839 195.546C148.677 195.32 148.545 195.075 148.445 194.816L147.474 192.772C146.62 190.969 145.503 188.625 144.27 186.041C143.036 183.457 141.904 181.011 141.16 179.252C140.78 178.369 140.488 177.653 140.298 177.157C140.183 176.903 140.097 176.636 140.043 176.361Z" fill="#263238"/>
<path d="M210.773 216.408C210.739 216.713 210.668 217.012 210.561 217.299C210.401 217.861 210.145 218.671 209.831 219.671C209.16 221.657 208.152 224.38 206.911 227.314C205.67 230.249 204.349 232.855 203.356 234.702C202.86 235.629 202.444 236.366 202.137 236.892C201.997 237.151 201.83 237.396 201.641 237.622C201.734 237.332 201.859 237.053 202.013 236.79C202.305 236.191 202.677 235.447 203.115 234.563C204.042 232.694 205.305 230.081 206.561 227.154C207.816 224.227 208.868 221.525 209.598 219.562C209.941 218.635 210.225 217.861 210.459 217.24C210.537 216.954 210.642 216.675 210.773 216.408Z" fill="#263238"/>
<path d="M210.347 228.644C210.223 229.124 210.026 229.582 209.763 230.001C209.214 231.048 208.597 232.057 207.916 233.024C207.234 233.993 206.49 234.917 205.689 235.79C205.386 236.177 205.024 236.514 204.616 236.79C204.536 236.717 206.025 235.053 207.602 232.805C209.179 230.556 210.237 228.592 210.347 228.644Z" fill="#263238"/>
<path d="M206.079 228.644C206.036 228.46 206.009 228.272 205.999 228.082C205.955 227.681 205.904 227.141 205.839 226.462C205.707 225.053 205.503 223.016 205.24 220.505C204.692 215.475 203.838 208.533 202.371 200.963C201.141 194.485 199.562 188.078 197.641 181.771C197.283 180.559 196.911 179.471 196.619 178.515C196.327 177.559 196.042 176.734 195.808 176.07C195.575 175.405 195.421 174.909 195.29 174.522C195.218 174.346 195.166 174.162 195.137 173.975C195.223 174.145 195.298 174.321 195.363 174.5C195.509 174.88 195.699 175.384 195.947 176.019C196.195 176.654 196.495 177.479 196.816 178.45C197.137 179.42 197.546 180.479 197.896 181.691C199.9 187.979 201.518 194.383 202.743 200.868C204.203 208.46 205.028 215.417 205.51 220.454C205.736 222.972 205.904 225.016 205.985 226.432L206.072 228.053C206.097 228.249 206.1 228.448 206.079 228.644Z" fill="#263238"/>
<path d="M207.318 233.469C207.641 232.352 207.796 231.193 207.778 230.031C207.639 228.874 207.322 227.746 206.836 226.688C206.872 226.688 207.157 226.958 207.471 227.534C207.863 228.302 208.097 229.141 208.157 230.002C208.221 230.863 208.107 231.727 207.821 232.542C207.595 233.163 207.354 233.491 207.318 233.469Z" fill="#263238"/>
<path d="M206.189 236.995C206.08 236.995 206.021 236.521 206.058 235.951C206.094 235.382 206.204 234.915 206.306 234.922C206.408 234.929 206.474 235.396 206.437 235.973C206.401 236.55 206.291 237.002 206.189 236.995Z" fill="#263238"/>
<path d="M127.612 222.877C127.329 223.001 127.036 223.099 126.736 223.169C126.166 223.337 125.356 223.592 124.356 223.943C123.356 224.293 122.166 224.76 120.918 225.315C119.669 225.87 118.275 226.571 116.866 227.352C114.471 228.704 112.171 230.219 109.982 231.885C109.143 232.528 108.471 233.053 108.011 233.425C107.789 233.635 107.544 233.818 107.281 233.973C107.472 233.73 107.69 233.509 107.931 233.316C108.362 232.907 109.011 232.345 109.829 231.673C111.985 229.935 114.283 228.379 116.698 227.023C118.114 226.235 119.501 225.563 120.794 224.994C121.937 224.5 123.104 224.064 124.29 223.687C125.086 223.426 125.895 223.207 126.714 223.03C127.006 222.945 127.308 222.893 127.612 222.877Z" fill="#263238"/>
<path d="M126.844 222.899C126.844 222.964 125.844 222.899 124.245 223.074C122.17 223.261 120.125 223.689 118.149 224.351C116.178 225.029 114.274 225.889 112.463 226.921C111.068 227.717 110.273 228.272 110.207 228.22C110.362 228.045 110.542 227.892 110.74 227.768C111.25 227.384 111.778 227.025 112.324 226.695C114.115 225.575 116.031 224.668 118.033 223.994C120.035 223.318 122.12 222.918 124.23 222.804C124.867 222.766 125.506 222.766 126.143 222.804C126.38 222.799 126.616 222.831 126.844 222.899Z" fill="#263238"/>
<g opacity="0.3">
<path d="M141.416 178.975C141.002 181.897 141.426 184.877 142.638 187.569C143.85 190.26 145.8 192.553 148.263 194.181C146.54 189.801 143.562 183.479 141.416 178.975Z" fill="black"/>
</g>
<g opacity="0.3">
<path d="M169.316 161.922C170.241 163.802 171.511 165.491 173.061 166.901L172.988 162.908L191.238 171.033L171.645 156.951C170.572 158.754 170.39 160.105 169.316 161.908" fill="black"/>
</g>
<g opacity="0.3">
<path d="M203.078 158.812C202.297 157.586 200.158 154.994 200.158 154.994C200.085 156.907 199.917 159.527 199.852 161.447L199.574 166.039C199.859 164.44 200.071 161.352 200.355 159.746L203.757 162.973C203.968 162.274 204.016 161.535 203.899 160.814C203.781 160.093 203.5 159.408 203.078 158.812Z" fill="black"/>
</g>
<g opacity="0.3">
<path d="M225.395 163.521L227.76 184.575C228.738 177.72 230.607 173.997 225.395 163.521Z" fill="black"/>
</g>
<g opacity="0.3">
<path d="M277.399 193.874C276.523 193.144 274.581 192.692 273.581 192.151C269.048 189.684 266.646 185.173 264.879 180.325L264.719 179.785C264.901 186.282 269.026 193.232 274.939 195.904C275.536 196.224 276.212 196.366 276.888 196.312C277.222 196.273 277.53 196.112 277.754 195.86C277.977 195.609 278.1 195.284 278.1 194.947C278.009 194.514 277.759 194.131 277.399 193.874Z" fill="black"/>
</g>
<g opacity="0.3">
<path d="M183.367 211.927C190.872 209.438 194.492 202.371 196.42 196.195C196.528 198.874 196.205 201.554 195.463 204.13C194.702 206.722 193.135 209.003 190.988 210.642C189.909 211.441 188.656 211.974 187.332 212.198C186.007 212.421 184.649 212.328 183.367 211.927Z" fill="black"/>
</g>
<g opacity="0.3">
<path d="M126.15 223.38C120.651 223.03 115.223 224.775 110.958 228.264C110.652 228.519 110.316 228.884 110.447 229.264C110.515 229.396 110.62 229.504 110.751 229.575C110.881 229.645 111.03 229.674 111.177 229.658C111.476 229.604 111.76 229.487 112.009 229.315C116.464 226.736 121.208 224.692 126.142 223.227" fill="black"/>
</g>
<g opacity="0.3">
<path d="M216.202 208.7C215.924 208.438 215.558 208.288 215.176 208.281C214.794 208.275 214.423 208.411 214.136 208.664C213.578 209.192 213.165 209.856 212.939 210.591L204.025 232.717L202.66 235.995L212.004 220.329C213.866 217.205 215.764 213.993 216.384 210.408C216.476 210.127 216.508 209.829 216.476 209.535C216.445 209.24 216.351 208.956 216.202 208.7Z" fill="black"/>
</g>
<path d="M154.892 84.3594C160.418 76.6433 169.579 72.1319 178.916 70.4164C182.843 69.6864 185.42 70.2193 189.333 71.015C193.245 71.6931 196.794 73.7271 199.356 76.7601C202.327 80.4539 204.897 84.6441 205.714 89.3161C206.554 94.1195 207.393 98.9521 207.342 103.821C207.291 108.69 206.276 113.662 203.692 117.779L191.487 120.699C184.69 121.363 177.792 122.027 171.047 120.903C164.301 119.779 157.629 116.611 153.702 111.019C148.241 103.266 149.358 92.0755 154.892 84.3594Z" fill="#263238"/>
<path d="M200.383 124.97C200.383 124.97 200.602 125.262 201.164 125.569C201.961 126.005 202.847 126.255 203.755 126.299C205.125 126.364 206.48 125.999 207.632 125.255C209.031 124.289 210.001 122.819 210.339 121.152C210.677 119.486 210.355 117.754 209.442 116.32C208.671 115.191 207.569 114.329 206.289 113.852C205.44 113.528 204.529 113.401 203.624 113.48C202.989 113.546 202.66 113.692 202.675 113.728C202.69 113.765 204.099 113.473 206.091 114.334C207.227 114.834 208.194 115.653 208.873 116.692C209.653 117.992 209.918 119.537 209.617 121.023C209.315 122.509 208.469 123.828 207.245 124.722C206.215 125.416 205.005 125.794 203.763 125.81C201.602 125.759 200.441 124.831 200.383 124.97Z" fill="#E0E0E0"/>
<path d="M145.348 119.479C145.38 118.072 145.733 116.691 146.379 115.441C147.026 114.192 147.949 113.106 149.078 112.266C151.4 110.69 154.78 110.617 156.911 112.442L158.999 114.632C160.552 115.227 161.88 116.293 162.796 117.68C163.713 119.068 164.172 120.708 164.109 122.37C163.985 124.026 163.393 125.613 162.402 126.945C161.41 128.278 160.061 129.301 158.51 129.896C156.944 130.447 155.263 130.586 153.628 130.299C151.993 130.013 150.459 129.311 149.173 128.261C147.905 127.188 146.9 125.838 146.237 124.316C145.574 122.793 145.27 121.138 145.348 119.479Z" fill="#263238"/>
<path d="M148.328 127.641C147.811 126.943 147.523 126.101 147.503 125.232C147.503 123.641 148.525 121.502 149.978 119.502C151.254 117.791 152.844 116.339 154.664 115.224C156.066 114.355 157.037 114.005 157 113.91C156.096 114.049 155.23 114.37 154.453 114.852C151.411 116.486 149.022 119.114 147.685 122.298C147.266 123.213 147.059 124.211 147.08 125.218C147.109 125.912 147.343 126.583 147.751 127.145C148.058 127.547 148.306 127.671 148.328 127.641Z" fill="#455A64"/>
<path d="M154.524 130.904C154.729 130.904 153.648 127.203 154.524 122.72C155.4 118.238 157.744 115.216 157.568 115.121C156.949 115.666 156.436 116.322 156.057 117.056C153.993 120.504 153.203 124.567 153.823 128.538C153.91 129.363 154.147 130.165 154.524 130.904Z" fill="#455A64"/>
<path d="M192.757 140.73C192.4 136.408 192.071 132.868 192.071 132.89C192.071 132.912 202.058 131.138 204.014 118.063C204.992 111.566 204.569 100.923 203.941 92.2287C203.379 84.4031 196.028 74.1612 186.355 74.7087L182.026 74.4824L165.966 82.0744C164.824 82.2056 163.772 82.7606 163.02 83.6297C162.267 84.4989 161.867 85.6189 161.9 86.7683L165.412 142.686L195.225 174.076L196.933 165.221L192.757 140.73Z" fill="#FFBE9D"/>
<path d="M184.479 116.282C184.539 115.615 184.84 114.992 185.326 114.53C185.766 114.098 186.336 113.823 186.949 113.747C187.561 113.672 188.181 113.801 188.713 114.114C189.269 114.489 189.715 115.005 190.005 115.609C190.295 116.214 190.419 116.884 190.363 117.553C190.106 117.968 189.764 118.324 189.359 118.596C188.953 118.868 188.494 119.05 188.012 119.129C187.857 119.129 187.703 119.144 187.552 119.173C186.786 119.218 186.03 118.973 185.435 118.487C185.12 118.216 184.869 117.876 184.704 117.495C184.538 117.113 184.461 116.698 184.479 116.282Z" fill="#EB996E"/>
<path d="M200.493 101.098C200.501 101.535 200.338 101.957 200.04 102.276C199.741 102.595 199.33 102.785 198.894 102.806C198.681 102.825 198.467 102.801 198.263 102.735C198.059 102.67 197.871 102.564 197.709 102.425C197.547 102.285 197.415 102.115 197.32 101.923C197.225 101.732 197.17 101.523 197.157 101.309C197.147 100.874 197.308 100.452 197.605 100.134C197.903 99.8163 198.313 99.6275 198.748 99.6085C198.961 99.5886 199.176 99.6115 199.38 99.6761C199.584 99.7406 199.773 99.8454 199.935 99.9843C200.098 100.123 200.231 100.293 200.327 100.485C200.423 100.676 200.479 100.884 200.493 101.098Z" fill="#263238"/>
<path d="M201.047 97.2586C200.842 97.4776 199.587 96.5286 197.762 96.5724C195.937 96.6162 194.645 97.5068 194.448 97.3024C194.353 97.2075 194.564 96.8133 195.134 96.3899C195.909 95.8409 196.834 95.5451 197.784 95.5431C198.719 95.5349 199.633 95.8209 200.397 96.3607C200.952 96.7695 201.149 97.1637 201.047 97.2586Z" fill="#263238"/>
<path d="M190.632 111.581C190.632 111.478 191.742 111.274 193.552 111.026C194.012 110.975 194.45 110.88 194.523 110.566C194.562 110.091 194.45 109.615 194.202 109.208L192.815 105.711C190.88 100.74 189.472 96.6521 189.676 96.5791C189.88 96.5061 191.61 100.47 193.538 105.441L194.874 108.953C195.173 109.503 195.263 110.144 195.129 110.756C195.067 110.917 194.969 111.062 194.842 111.179C194.716 111.297 194.564 111.384 194.399 111.435C194.148 111.508 193.887 111.547 193.625 111.551C191.771 111.69 190.64 111.69 190.632 111.581Z" fill="#263238"/>
<path d="M192.071 132.862C185.927 133.007 179.863 131.448 174.551 128.357C174.551 128.357 179.288 137.358 192.348 136.022L192.071 132.862Z" fill="#EB996E"/>
<path d="M185.339 112.873C185.638 112.873 185.66 114.808 187.347 116.187C189.033 117.567 191.106 117.326 191.128 117.596C191.128 117.72 190.668 117.983 189.785 118.012C188.641 118.039 187.524 117.662 186.631 116.947C185.772 116.256 185.215 115.259 185.076 114.165C184.996 113.355 185.208 112.866 185.339 112.873Z" fill="#263238"/>
<path d="M200.201 89.8262C199.887 90.235 198.638 89.8262 197.149 89.8262C195.66 89.8262 194.39 90.1255 194.098 89.6948C193.966 89.4904 194.164 89.0816 194.711 88.6874C195.449 88.2154 196.312 87.9738 197.188 87.9933C198.064 88.0128 198.915 88.2925 199.631 88.7969C200.157 89.2057 200.339 89.6218 200.201 89.8262Z" fill="#263238"/>
<path d="M180.23 101.471C180.248 101.907 180.434 102.319 180.751 102.619C181.067 102.919 181.488 103.083 181.924 103.077C182.137 103.084 182.35 103.048 182.549 102.972C182.749 102.896 182.931 102.78 183.085 102.633C183.239 102.485 183.363 102.309 183.448 102.113C183.533 101.917 183.578 101.706 183.581 101.493C183.564 101.057 183.378 100.644 183.062 100.343C182.745 100.042 182.324 99.8756 181.888 99.8797C181.674 99.8729 181.46 99.9089 181.261 99.9857C181.061 100.062 180.878 100.178 180.724 100.327C180.57 100.475 180.446 100.652 180.362 100.849C180.277 101.046 180.232 101.257 180.23 101.471Z" fill="#263238"/>
<path d="M177.441 98.6025C177.66 98.8142 178.901 97.8141 180.682 97.7338C182.464 97.6535 183.843 98.5003 184.026 98.2667C184.121 98.1645 183.887 97.7849 183.296 97.3907C182.492 96.8843 181.55 96.6419 180.602 96.6972C179.668 96.7343 178.77 97.0694 178.04 97.6535C177.507 98.1061 177.332 98.5076 177.441 98.6025Z" fill="#263238"/>
<path d="M177.463 96.084C177.799 96.4782 179.018 95.9964 180.507 95.9088C181.996 95.8212 183.274 96.0548 183.544 95.6168C183.668 95.4051 183.449 95.0036 182.879 94.6386C182.116 94.2091 181.242 94.0159 180.369 94.0835C179.496 94.1511 178.662 94.4764 177.974 95.0182C177.47 95.4635 177.317 95.8942 177.463 96.084Z" fill="#263238"/>
<path d="M166.586 108.719C166.586 107.748 165.433 105.463 164.477 105.324C161.907 104.945 157.286 105.193 157.301 111.705C157.301 120.611 166.258 118.749 166.273 118.494C166.287 118.238 166.63 112.077 166.586 108.719Z" fill="#FFBE9D"/>
<path d="M162.79 115.049C162.79 115.049 162.637 115.159 162.374 115.283C162.002 115.433 161.585 115.433 161.213 115.283C160.271 114.94 159.476 113.45 159.432 111.844C159.415 111.092 159.562 110.344 159.863 109.654C159.944 109.376 160.093 109.122 160.295 108.915C160.497 108.708 160.747 108.553 161.023 108.464C161.202 108.416 161.392 108.432 161.56 108.509C161.728 108.586 161.864 108.721 161.943 108.888C162.06 109.136 162.002 109.311 162.053 109.326C162.104 109.34 162.242 109.18 162.169 108.808C162.121 108.587 161.997 108.391 161.819 108.253C161.697 108.16 161.559 108.093 161.411 108.054C161.263 108.015 161.109 108.006 160.958 108.026C160.593 108.101 160.254 108.268 159.971 108.511C159.689 108.754 159.473 109.064 159.344 109.413C158.966 110.185 158.783 111.037 158.811 111.895C158.87 113.691 159.797 115.363 161.082 115.735C161.321 115.804 161.572 115.819 161.817 115.777C162.063 115.735 162.295 115.639 162.498 115.494C162.79 115.268 162.79 115.064 162.79 115.049Z" fill="#EB996E"/>
<path d="M163.08 105.171L165.482 107.361C174.614 97.4258 192.142 72.8978 191.163 74.3578C186.624 72.9829 181.813 72.7671 177.169 73.73C170.015 75.4236 156.532 79.9204 157.284 88.4322C158.036 96.944 163.08 105.171 163.08 105.171Z" fill="#263238"/>
<path d="M164.703 127.246C164.703 127.246 164.52 127.56 163.973 127.94C163.229 128.461 162.379 128.81 161.484 128.962C160.135 129.197 158.747 129.006 157.512 128.414C156.759 128.036 156.088 127.512 155.538 126.873C154.988 126.234 154.57 125.492 154.308 124.691C153.746 123.085 153.84 121.322 154.57 119.785C155.193 118.566 156.177 117.569 157.388 116.931C158.19 116.499 159.077 116.249 159.987 116.201C160.622 116.201 160.965 116.289 160.958 116.333C160.951 116.376 159.498 116.26 157.644 117.362C156.58 118.005 155.725 118.944 155.184 120.063C154.586 121.447 154.525 123.004 155.01 124.431C155.496 125.858 156.494 127.054 157.812 127.786C158.924 128.344 160.175 128.565 161.411 128.421C163.593 128.18 164.63 127.115 164.703 127.246Z" fill="#E0E0E0"/>
<path d="M157.043 112.969C157.072 112.28 157.057 111.59 156.999 110.903C156.963 109.034 157.093 107.165 157.386 105.318C158.443 99.2274 160.966 93.485 164.737 88.5867C168.559 83.7297 173.104 79.4878 178.213 76.0088C180.155 74.6437 181.768 73.5998 182.892 72.8844C183.491 72.5452 184.065 72.1622 184.608 71.7383C184.434 71.7859 184.269 71.8597 184.118 71.9573C183.805 72.1179 183.345 72.3515 182.768 72.6873C181.607 73.337 179.95 74.3298 177.965 75.6511C172.736 79.0637 168.103 83.3102 164.248 88.2217C160.405 93.1878 157.893 99.0521 156.948 105.26C156.689 107.132 156.623 109.025 156.751 110.91C156.751 111.582 156.882 112.093 156.919 112.443C156.938 112.623 156.98 112.799 157.043 112.969Z" fill="#455A64"/>
<path d="M178.995 71.541C178.819 71.586 178.649 71.6548 178.492 71.7454C178.163 71.8914 177.696 72.1323 177.097 72.4754C175.9 73.1032 174.177 74.0668 172.148 75.3954C169.761 76.9348 167.463 78.6067 165.264 80.4032C162.512 82.5545 160.027 85.0273 157.862 87.7689C156.762 89.2261 155.863 90.8245 155.19 92.5212C154.588 94.1093 154.205 95.7719 154.051 97.4633C153.822 100.315 154.012 103.185 154.613 105.982C155.095 108.362 155.65 110.246 156.073 111.538C156.278 112.187 156.438 112.684 156.562 112.998C156.609 113.173 156.678 113.343 156.767 113.501C156.664 112.807 156.51 112.122 156.307 111.45C155.978 110.143 155.489 108.245 155.066 105.88C154.537 103.12 154.392 100.3 154.635 97.4998C154.803 95.8605 155.186 94.2504 155.774 92.711C156.434 91.0687 157.31 89.522 158.38 88.112C160.523 85.4047 162.973 82.955 165.68 80.812C167.846 78.9961 170.102 77.2906 172.44 75.702C174.44 74.3515 176.09 73.3368 177.265 72.6433C177.865 72.3134 178.443 71.9452 178.995 71.541Z" fill="#455A64"/>
<path d="M162.922 105.406C163.327 105.048 163.691 104.646 164.01 104.209L166.798 100.815C169.127 97.931 172.317 93.9233 175.806 89.4703C179.296 85.0173 182.435 80.9731 184.683 78.0166L187.318 74.5053C187.662 74.0889 187.963 73.6389 188.216 73.1621C187.817 73.5238 187.453 73.9222 187.129 74.352L184.347 77.7465C182.011 80.6665 178.821 84.645 175.332 89.098C171.842 93.551 168.703 97.6025 166.44 100.552L163.805 104.07C163.473 104.49 163.178 104.937 162.922 105.406Z" fill="#E0E0E0"/>
<path d="M185.976 112.304C185.425 112.277 184.874 112.294 184.326 112.356C183.8 112.527 183.29 112.742 182.8 112.998C182.705 112.947 183.216 112.202 184.26 111.983C184.55 111.888 184.859 111.867 185.159 111.924C185.459 111.98 185.74 112.111 185.976 112.304Z" fill="#EB996E"/>
<path d="M176.709 101.113C176.18 101.342 175.597 101.413 175.03 101.317C174.458 101.34 173.891 101.2 173.395 100.916C173.943 100.828 174.503 100.828 175.052 100.916C175.611 100.9 176.169 100.967 176.709 101.113Z" fill="#EB996E"/>
<path d="M176.303 101.726C176.303 101.836 175.799 101.989 175.179 102.186C174.558 102.383 174.047 102.551 173.996 102.449C173.945 102.347 174.405 102.025 175.069 101.821C175.733 101.617 176.296 101.624 176.303 101.726Z" fill="#EB996E"/>
<path d="M203.551 100.098C203.588 100.2 203.164 100.448 202.602 100.652C202.04 100.857 201.558 100.944 201.522 100.842C201.485 100.74 201.909 100.499 202.471 100.295C203.033 100.09 203.515 100.01 203.551 100.098Z" fill="#EB996E"/>
<path d="M203.419 101.85C203.383 101.952 202.915 101.85 202.375 101.697C201.835 101.544 201.419 101.273 201.455 101.179C201.492 101.084 201.959 101.179 202.499 101.332C203.039 101.485 203.448 101.755 203.419 101.85Z" fill="#EB996E"/>
<path d="M351.189 338.53C351.189 338.632 276.663 338.719 184.749 338.719C92.8343 338.719 18.3086 338.632 18.3086 338.53C18.3086 338.427 92.8124 338.34 184.749 338.34C276.685 338.34 351.189 338.42 351.189 338.53Z" fill="#263238"/>
</svg>
