<svg width="416" height="486" viewBox="0 0 416 486" fill="none" xmlns="http://www.w3.org/2000/svg">
<g clip-path="url(#clip0)">
<path d="M415.702 62.695V355.638C415.702 357.268 415.497 358.876 415.098 360.429C414.134 364.227 412.036 367.69 409.029 370.335L399.693 378.545L396.503 381.344L384.958 391.486L378.136 397.473L378.13 397.479L362.614 411.111L351.323 421.022L350.637 421.632L342.491 428.782L336.643 433.919L333.238 436.91L331.937 438.052L328.249 441.295L324.24 444.818L320.945 447.716C320.939 447.716 320.939 447.716 320.939 447.716L320.568 448.04C320.568 448.045 320.563 448.045 320.563 448.045L319.655 448.841L296.06 469.569L293.54 471.781L290.002 474.887L282.897 481.127C279.281 484.271 274.646 486 269.834 486H19.8241C18.9048 486 18.0022 485.94 17.1218 485.819C7.4534 484.513 0 476.297 0 466.359V62.695C0 51.8452 8.87652 43.0535 19.8241 43.0535H395.883C406.831 43.0535 415.702 51.8452 415.702 62.695Z" fill="#045764"/>
<path d="M415.099 360.429C414.135 364.227 412.036 367.69 409.03 370.335L399.693 378.545L396.504 381.344L384.958 391.486L378.136 397.473L378.131 397.479C358.318 400.689 337.94 403.938 335.841 404.037H335.836C335.747 404.042 335.692 404.042 335.675 404.031C335.658 404.026 335.658 403.971 335.669 403.872C335.669 403.867 335.669 403.867 335.669 403.861C335.78 402.835 337.17 397.204 339.33 388.676C340.31 384.813 341.445 380.351 342.696 375.45C342.901 374.654 343.106 373.848 343.317 373.024C345.532 364.375 348.057 354.519 350.659 344.267C350.659 344.262 350.659 344.262 350.659 344.262C350.914 343.246 351.174 342.231 351.435 341.21C351.529 340.837 351.623 340.464 351.717 340.091C352.531 336.875 353.351 333.632 354.165 330.383V330.377C354.497 329.076 354.823 327.77 355.145 326.47C355.294 325.877 355.444 325.279 355.593 324.686C355.61 324.604 355.632 324.521 355.649 324.445C355.781 323.929 355.909 323.413 356.036 322.903C356.651 320.449 357.254 318.007 357.852 315.587C358.052 314.78 358.251 313.979 358.45 313.178C358.467 313.101 358.489 313.019 358.506 312.936C358.993 310.977 359.469 309.029 359.935 307.108C360.084 306.51 360.228 305.912 360.372 305.319C361.064 302.471 361.74 299.677 362.388 296.95C362.526 296.39 362.659 295.836 362.786 295.281C363.036 294.233 363.285 293.202 363.523 292.181C363.645 291.676 363.761 291.176 363.877 290.677C364.149 289.514 364.42 288.367 364.68 287.236C364.763 286.857 364.852 286.484 364.94 286.111C365.023 285.743 365.112 285.37 365.195 285.002C366.042 281.304 366.818 277.83 367.499 274.658C367.565 274.356 367.626 274.059 367.692 273.769C367.742 273.554 367.787 273.34 367.831 273.132C367.864 272.956 367.903 272.781 367.942 272.605C368.246 271.167 368.529 269.801 368.783 268.511C368.894 267.962 368.999 267.43 369.099 266.914C369.143 266.684 369.188 266.459 369.232 266.239C369.287 265.954 369.337 265.679 369.387 265.405C369.398 265.361 369.404 265.312 369.415 265.268C369.437 265.152 369.453 265.032 369.476 264.916C369.492 264.84 369.509 264.757 369.525 264.68C369.536 264.604 369.553 264.521 369.564 264.444C369.57 264.428 369.57 264.411 369.575 264.401C369.597 264.258 369.625 264.115 369.647 263.978H369.653C369.68 263.824 369.708 263.671 369.73 263.522C369.957 262.238 370.151 261.08 370.295 260.054C370.317 259.889 370.345 259.73 370.362 259.571C370.373 259.522 370.378 259.472 370.384 259.423C370.4 259.291 370.417 259.165 370.434 259.039C370.461 258.869 370.478 258.709 370.494 258.556C370.5 258.534 370.5 258.517 370.506 258.495C370.506 258.473 370.511 258.446 370.511 258.424C370.594 257.7 370.649 257.069 370.672 256.547C370.672 256.454 370.677 256.361 370.677 256.278C370.688 255.96 370.683 255.691 370.661 255.466C370.638 255.23 370.611 254.994 370.577 254.753C370.572 254.709 370.566 254.665 370.561 254.621C370.555 254.61 370.555 254.599 370.555 254.588C370.522 254.368 370.483 254.143 370.445 253.918C370.445 253.902 370.439 253.88 370.434 253.864C370.428 253.825 370.422 253.781 370.411 253.737C370.334 253.32 370.24 252.903 370.134 252.475C370.096 252.305 370.051 252.135 370.002 251.965C369.747 251.004 369.426 250.022 369.055 249.029C368.905 248.623 368.745 248.216 368.578 247.805C368.434 247.454 368.285 247.097 368.13 246.74C368.108 246.691 368.091 246.647 368.063 246.597C368.069 246.592 368.063 246.592 368.063 246.592C367.969 246.383 367.875 246.169 367.781 245.961C367.626 245.615 367.465 245.275 367.299 244.929C367.205 244.732 367.106 244.528 367.006 244.331C366.873 244.057 366.735 243.782 366.591 243.508C366.491 243.305 366.38 243.102 366.275 242.899C366.17 242.696 366.064 242.492 365.954 242.295C365.527 241.488 365.079 240.692 364.625 239.919C364.459 239.628 364.287 239.337 364.115 239.051C364.06 238.953 364.005 238.854 363.944 238.761C363.778 238.481 363.606 238.206 363.44 237.932C363.152 237.454 362.858 236.988 362.565 236.533C362.41 236.28 362.249 236.033 362.089 235.792C361.978 235.621 361.867 235.446 361.756 235.281C361.424 234.771 361.097 234.277 360.771 233.805C360.638 233.607 360.505 233.41 360.372 233.218C359.835 232.433 359.314 231.698 358.838 231.034C358.65 230.781 358.473 230.534 358.301 230.298C358.246 230.216 358.185 230.134 358.124 230.057C358.041 229.941 357.958 229.821 357.875 229.711C357.742 229.53 357.609 229.354 357.481 229.19C357.398 229.08 357.315 228.97 357.238 228.866C357.122 228.707 357.005 228.558 356.9 228.416C356.795 228.279 356.695 228.147 356.601 228.026C356.341 227.691 356.13 227.422 355.975 227.225C355.931 227.165 355.892 227.115 355.853 227.071C355.787 226.989 355.737 226.929 355.715 226.896C355.704 226.885 355.698 226.879 355.693 226.874C355.687 226.863 355.687 226.863 355.687 226.863L348.101 202.979L339.33 183.058L336.256 176.077V176.071L333.582 169.996L330.625 163.29V163.284C330.625 163.284 330.165 162.532 329.506 161.473C328.172 159.322 326.04 155.892 325.381 154.915C324.401 153.455 327.341 143.978 328.321 143.248C329.301 142.518 353.09 138.144 353.09 138.144L356.357 138.89L378.596 143.978L384.975 145.437C400.197 181.982 405.818 213.807 405.818 213.807L415.099 360.429Z" fill="#A85856"/>
<path opacity="0.24" d="M399.693 378.545L396.503 381.344L384.958 391.486L378.136 397.473L378.13 397.479C358.317 400.689 337.939 403.938 335.841 404.037H335.835L335.674 404.032C335.674 404.032 335.674 403.977 335.669 403.872C335.669 403.867 335.669 403.867 335.669 403.861C335.78 402.835 337.17 397.204 339.329 388.676C340.309 384.813 341.445 380.351 342.696 375.45C342.901 374.654 343.106 373.848 343.316 373.024C345.531 364.375 348.056 354.519 350.659 344.267C350.659 344.262 350.659 344.262 350.659 344.262C350.914 343.247 351.174 342.231 351.434 341.21C351.528 340.837 351.622 340.464 351.716 340.091C352.53 336.875 353.35 333.632 354.164 330.383V330.377C354.496 329.077 354.823 327.77 355.144 326.47C355.31 325.795 355.482 325.12 355.648 324.445C355.781 323.929 355.908 323.413 356.036 322.903C356.65 320.449 357.254 318.007 357.852 315.587C357.979 315.071 358.107 314.561 358.228 314.05C358.3 313.76 358.372 313.469 358.45 313.178C358.467 313.101 358.489 313.019 358.505 312.936C358.993 310.977 359.469 309.029 359.934 307.108C360.084 306.51 360.228 305.912 360.371 305.319C361.064 302.471 361.739 299.677 362.387 296.95C362.526 296.39 362.658 295.836 362.786 295.282C363.035 294.233 363.284 293.202 363.522 292.181C363.644 291.676 363.76 291.176 363.877 290.677C364.148 289.514 364.419 288.367 364.68 287.236C364.763 286.857 364.851 286.484 364.94 286.111C365.023 285.743 365.112 285.37 365.195 285.003C366.042 281.304 366.817 277.83 367.498 274.658C367.565 274.356 367.626 274.059 367.692 273.769C367.742 273.555 367.786 273.341 367.83 273.132C367.864 272.956 367.902 272.781 367.941 272.605C368.246 271.167 368.528 269.801 368.783 268.511C368.894 267.962 368.999 267.43 369.099 266.914C369.143 266.684 369.187 266.459 369.231 266.239C369.287 265.954 369.337 265.679 369.386 265.405C369.398 265.361 369.403 265.312 369.414 265.268C369.453 265.07 369.486 264.873 369.525 264.68C369.542 264.587 369.558 264.494 369.575 264.401C369.597 264.258 369.625 264.115 369.652 263.978C369.68 263.824 369.708 263.671 369.73 263.523C369.957 262.238 370.151 261.08 370.295 260.054C370.317 259.889 370.344 259.73 370.361 259.571C370.372 259.522 370.378 259.472 370.383 259.423C370.4 259.291 370.416 259.165 370.433 259.039C370.461 258.869 370.477 258.71 370.494 258.556C370.499 258.534 370.5 258.517 370.505 258.496C370.505 258.474 370.511 258.446 370.511 258.424C370.594 257.7 370.649 257.069 370.671 256.547C370.671 256.454 370.677 256.361 370.677 256.278C370.688 255.96 370.682 255.691 370.66 255.466C370.638 255.23 370.61 254.994 370.577 254.753C370.571 254.709 370.566 254.665 370.56 254.621C370.555 254.61 370.555 254.599 370.555 254.588C370.522 254.369 370.483 254.144 370.444 253.919C370.444 253.902 370.439 253.88 370.433 253.864C370.433 253.847 370.428 253.825 370.428 253.809C370.422 253.787 370.416 253.759 370.411 253.737C370.333 253.32 370.239 252.903 370.134 252.475C370.095 252.305 370.051 252.135 370.001 251.965C369.746 251.004 369.425 250.022 369.054 249.029C368.905 248.623 368.744 248.217 368.578 247.805C368.434 247.454 368.285 247.097 368.129 246.74C368.107 246.691 368.091 246.647 368.063 246.598C368.069 246.592 368.063 246.592 368.063 246.592C367.969 246.384 367.875 246.169 367.781 245.961C367.626 245.615 367.465 245.275 367.299 244.929C367.205 244.732 367.105 244.529 367.005 244.331C366.872 244.057 366.734 243.782 366.59 243.508C366.49 243.305 366.38 243.102 366.274 242.899C366.169 242.696 366.064 242.493 365.953 242.295C365.527 241.488 365.078 240.692 364.624 239.919C364.458 239.628 364.286 239.337 364.115 239.052C364.059 238.953 364.004 238.854 363.943 238.761C363.777 238.481 363.605 238.206 363.439 237.932C363.151 237.455 362.858 236.988 362.564 236.533C365.195 225.436 366.917 217.989 366.917 217.989C366.917 217.989 369.514 222.209 372.587 228.652C375.821 235.435 379.57 244.677 381.375 254.067C384.52 270.437 355.631 358.992 399.693 378.545Z" fill="#3B2E4B"/>
<path d="M355.687 226.863C355.687 226.863 369.57 243.941 370.66 255.466C371.258 261.788 360.427 305.78 350.659 344.267" stroke="#3B2E4B" stroke-width="3.87471" stroke-miterlimit="10" stroke-linecap="round" stroke-linejoin="round"/>
<path d="M379.382 149.844L379.576 151.266L355.688 146.65L356.308 139.488L358.024 119.732L358.24 117.24C358.24 117.24 360.937 108.004 366.917 98.7675C372.898 89.5367 381.542 93.9106 381.542 93.9106L378.308 118.458L375.656 122.07L377.594 136.497L379.382 149.844Z" fill="#A85856"/>
<path d="M101.811 248.09V486H19.8234C18.9042 486 18.0015 485.94 17.1211 485.819C17.3647 479.854 17.9849 472.944 18.9097 465.47C19.0758 464.108 19.2585 462.731 19.4413 461.337C19.5354 460.624 19.6351 459.905 19.7348 459.186C19.8012 458.703 19.8677 458.22 19.9397 457.737C20.0227 457.128 20.1113 456.524 20.1999 455.909C20.211 455.86 20.2165 455.805 20.2221 455.75C20.4657 454.093 20.7204 452.414 20.9862 450.718C21.0361 450.378 21.0914 450.037 21.1468 449.697C21.5234 447.315 21.9221 444.906 22.3374 442.475C22.3429 442.447 22.3484 442.42 22.354 442.387C22.4703 441.723 22.5866 441.059 22.6973 440.389C22.7195 440.285 22.7361 440.186 22.7527 440.088C22.8191 439.703 22.8911 439.314 22.9576 438.93C23.0905 438.156 23.2289 437.387 23.3729 436.614C23.4449 436.224 23.5113 435.84 23.5833 435.45C23.6497 435.061 23.7217 434.676 23.7993 434.287C23.9377 433.518 24.0817 432.75 24.2256 431.976C24.2312 431.971 24.2312 431.965 24.2312 431.954C24.3751 431.175 24.5247 430.401 24.6742 429.622C24.8957 428.453 25.1227 427.284 25.3553 426.121C25.4328 425.731 25.5048 425.341 25.5878 424.952C25.7374 424.183 25.8924 423.415 26.0475 422.647C26.5181 420.303 27.0054 417.965 27.4983 415.644C27.5813 415.254 27.6644 414.87 27.7475 414.486C30.1396 403.302 32.7367 392.452 35.3282 382.82C35.4999 382.167 35.6771 381.525 35.8543 380.883C36.6572 377.947 37.4546 375.137 38.2465 372.476C38.4181 371.883 38.5953 371.301 38.7725 370.725C38.9497 370.149 39.1214 369.578 39.293 369.018C39.4481 368.519 39.6031 368.03 39.7526 367.547C39.8634 367.207 39.9686 366.878 40.0738 366.548C40.2455 366.016 40.4116 365.495 40.5833 364.979C41.0982 363.415 41.6021 361.933 42.1005 360.534C48.6181 342.226 53.8787 310.319 57.2288 285.963C57.5168 283.861 57.7936 281.819 58.0539 279.844C58.6298 275.475 59.1282 271.447 59.5601 267.907C59.693 266.771 59.8259 265.685 59.9477 264.653C60.806 257.326 61.2656 252.788 61.2656 252.788L74.5721 251.246L94.817 248.902L101.811 248.09Z" fill="#A85856"/>
<path d="M61.2659 252.788C61.2659 252.788 60.8063 257.326 59.948 264.653C59.8262 265.685 59.6932 266.771 59.5604 267.907C59.5604 267.913 59.5604 267.913 59.5604 267.913C59.1284 271.452 58.6301 275.475 58.0542 279.844C57.7939 281.819 57.517 283.861 57.2291 285.963C53.8789 310.318 48.6184 342.226 42.1008 360.534C41.6024 361.933 41.0985 363.415 40.5835 364.979C40.4119 365.495 40.2457 366.016 40.0741 366.548C39.9689 366.878 39.8637 367.207 39.7529 367.547C39.6034 368.03 39.4483 368.519 39.2933 369.018C39.1216 369.578 38.95 370.149 38.7728 370.725C38.5956 371.301 38.4239 371.883 38.2467 372.475C37.4549 375.137 36.6575 377.947 35.8545 380.883C35.6773 381.52 35.5001 382.167 35.3285 382.82C32.737 392.452 30.1399 403.301 27.7477 414.486C27.6647 414.87 27.5816 415.254 27.4985 415.644C27.0057 417.965 26.5184 420.303 26.0477 422.647C25.8927 423.415 25.7432 424.183 25.5881 424.952C25.5051 425.341 25.4331 425.731 25.3555 426.121C25.1285 427.289 24.9015 428.453 24.6744 429.622C24.5249 430.401 24.381 431.18 24.2314 431.954C24.2314 431.965 24.2314 431.971 24.2259 431.976C24.0819 432.75 23.938 433.518 23.7995 434.287C23.722 434.676 23.65 435.06 23.5836 435.45C23.5116 435.84 23.4451 436.224 23.3731 436.614C23.2292 437.387 23.0907 438.156 22.9578 438.929C22.8914 439.314 22.8194 439.703 22.7529 440.087C22.7363 440.186 22.7197 440.285 22.6976 440.389C22.5868 441.059 22.4705 441.723 22.3542 442.387C22.3487 442.42 22.3432 442.447 22.3376 442.475C21.9223 444.906 21.5236 447.315 21.1471 449.697C21.0917 450.037 21.0363 450.377 20.9865 450.718C20.7207 452.414 20.466 454.093 20.2223 455.75C20.2168 455.805 20.2113 455.86 20.2002 455.909C20.1116 456.524 20.023 457.133 19.9399 457.737C19.8679 458.22 19.8015 458.703 19.735 459.186C19.6354 459.905 19.5357 460.624 19.4416 461.337C19.2588 462.731 19.0761 464.108 18.91 465.469C17.9852 472.944 17.4536 477.993 17.21 483.958" stroke="#3B2E4B" stroke-width="3.87471" stroke-miterlimit="10" stroke-linecap="round" stroke-linejoin="round"/>
<path d="M61.2659 146.771L44.3047 155.409C44.3047 155.409 43.5295 154.246 42.3223 152.418C38.7341 146.985 31.336 135.696 29.4035 132.069C27.7146 128.907 24.9181 118.936 23.1849 112.405C22.5537 110.029 23.1406 107.57 24.6191 105.748C25.2892 104.919 26.1475 104.223 27.1553 103.723L28.6836 102.96C31.3194 101.66 34.4813 102.082 36.6741 104.03C41.1263 107.971 48.1643 114.968 50.0803 121.252C51.0549 124.446 52.6608 128.408 54.3552 132.261C55.8946 135.767 57.5116 139.181 58.7962 141.81C60.2471 144.79 61.2659 146.771 61.2659 146.771Z" fill="#A85856"/>
<path opacity="0.24" d="M58.7963 141.81L42.3223 152.418C38.7341 146.985 31.336 135.696 29.4035 132.069C27.7146 128.908 24.9181 118.936 23.1849 112.405C22.5537 110.029 23.1406 107.57 24.6191 105.748C24.6911 106.407 32.4214 147.907 54.3552 132.261C55.8946 135.768 57.5116 139.181 58.7963 141.81Z" fill="#3B2E4B"/>
<path d="M51.3095 245.209C51.4038 245.187 51.4926 245.182 51.5758 245.193C51.2207 245.248 51.1209 245.254 51.3095 245.209Z" fill="#D86E6C"/>
<path d="M142.91 276.529C142.91 276.529 140.003 297.548 135.429 308.678C134.26 311.509 132.987 313.891 131.735 315.861C128.081 321.635 124.614 323.923 124.614 323.923L115.882 361.84L72.2189 357.718C72.2189 357.718 73.8802 342.061 73.4649 338.763C73.0495 335.465 77.6235 326.81 77.6235 326.81C59.7431 302.904 51.8633 267.655 51.8633 267.655C51.8633 267.655 54.9809 245.692 52.1291 245.193C54.5822 244.808 69.273 242.108 85.5974 239.084C108.495 234.842 134.593 229.969 134.593 229.969L142.91 276.529Z" fill="#D86E6C"/>
<path opacity="0.24" d="M140.19 255.142L139.077 255.076L127.864 254.418L114.956 253.66L109.17 253.32L108.217 253.265L101.81 252.887L97.3085 252.623C96.4336 253.304 95.6029 254.034 94.8166 254.791C94.1743 255.417 93.5541 256.064 92.9671 256.728C92.9616 256.728 92.9616 256.734 92.9616 256.734C88.8583 261.399 86.3 266.93 85.5414 271.645V271.678C85.5359 271.727 85.5248 271.776 85.5193 271.826C85.4971 271.974 85.475 272.122 85.4583 272.27C85.4528 272.298 85.4528 272.32 85.4473 272.347L85.5968 303.53C85.5968 310.34 91.1675 315.861 98.0394 315.861H131.735C132.986 313.891 134.26 311.509 135.428 308.678C135.7 308.014 135.971 307.311 136.231 306.581C136.353 306.241 136.475 305.89 136.591 305.538C136.652 305.363 136.713 305.182 136.768 305.001C136.829 304.825 136.89 304.638 136.946 304.457C137.051 304.139 137.156 303.81 137.256 303.48C137.383 303.063 137.51 302.646 137.632 302.218C137.693 302.01 137.754 301.796 137.815 301.576C137.909 301.236 138.009 300.896 138.103 300.55C138.158 300.352 138.214 300.155 138.263 299.952C138.28 299.908 138.291 299.864 138.302 299.82C138.385 299.513 138.463 299.205 138.546 298.898C138.64 298.53 138.734 298.157 138.828 297.784C138.861 297.658 138.889 297.531 138.922 297.405C139.011 297.032 139.1 296.664 139.188 296.291C139.46 295.177 139.714 294.058 139.952 292.949C140.046 292.51 140.141 292.071 140.235 291.632C140.373 290.979 140.506 290.326 140.633 289.689C140.678 289.475 140.717 289.267 140.761 289.053C141.636 284.64 142.267 280.771 142.61 278.543C142.632 278.389 142.655 278.241 142.677 278.104C142.682 278.082 142.682 278.066 142.688 278.044C142.699 277.956 142.716 277.874 142.727 277.791C142.749 277.632 142.771 277.484 142.793 277.352C142.804 277.242 142.821 277.144 142.832 277.056C142.848 276.946 142.865 276.847 142.876 276.77C142.882 276.716 142.887 276.672 142.893 276.639C142.904 276.567 142.909 276.529 142.909 276.529L140.19 255.142ZM89.6668 251.268H89.6613C89.6114 251.295 89.5561 251.317 89.5062 251.339L89.4785 251.388C89.4785 251.388 89.5505 251.361 89.6779 251.301C89.8772 251.213 90.2205 251.048 90.6525 250.779C90.3258 250.955 90.0046 251.12 89.6668 251.268Z" fill="#3B2E4B"/>
<path d="M357.476 346.358C360.222 358.24 363.628 371.74 363.628 371.74C363.628 371.74 301.669 375.862 302.915 374.621C303.646 373.897 306.664 367.514 307.362 353.487C307.777 345.096 307.367 333.966 305.141 319.67C304.793 317.398 304.394 315.049 303.94 312.618C303.89 312.344 303.84 312.069 303.79 311.795C303.774 311.718 303.763 311.641 303.746 311.564C303.746 311.564 303.237 311.345 302.362 310.845C298.906 308.875 289.758 302.542 283.783 288.076C276.302 269.938 295.844 217.994 295.844 217.994C296.553 217.923 299.936 218.62 304.787 219.761C322.125 223.828 358.223 233.492 358.223 233.492L359.065 238.272L363.628 264.175C363.628 264.175 354.48 287.258 347.824 295.912C347.824 295.912 343.25 303.733 349.076 312.805C354.895 321.871 354.48 325.581 354.065 328.873C353.893 330.245 355.516 337.89 357.476 346.358Z" fill="#D86E6C"/>
<path d="M314.522 72.4965V297.307C314.522 304.117 308.951 309.638 302.079 309.638H107.671C100.804 309.638 95.2334 304.117 95.2334 297.307V12.7159C95.2334 5.92173 100.776 0.406302 107.637 0.389838L140.031 0.296542L241.333 0.000190979C244.645 -0.010785 247.823 1.28987 250.166 3.61129L310.873 63.7761C313.209 66.0866 314.522 69.2257 314.522 72.4965Z" fill="#3AB3C6"/>
<path opacity="0.24" d="M311.603 320.499C311.603 320.499 306.941 341.902 325.746 353.481H306.908C307.323 345.09 306.913 333.961 304.687 319.664C304.338 317.392 303.94 315.044 303.485 312.612C303.436 312.338 303.386 312.064 303.336 311.789L314.106 313.386L326.92 311.718C326.92 311.718 319.323 320.499 311.603 320.499Z" fill="#3B2E4B"/>
<path d="M27.6759 157.116C27.6759 157.116 54.9312 136.624 61.266 134.911C67.6009 133.199 71.621 139.752 71.621 139.752L73.3432 145.871H78.7976L87.0318 159.739L84.8279 166.511H91.434L101.811 182.169L91.722 205.992L51.2156 214.828L47.2065 212.501C47.2065 212.501 48.2918 202.375 44.2993 199.242C40.3123 196.108 36.2921 195.543 35.1404 191.558C33.9941 187.574 37.1505 182.734 36.2866 180.742C35.4228 178.75 29.9684 179.606 27.6703 174.727C26.1531 171.5 23.0355 160.557 27.6759 157.116Z" fill="#A85856"/>
<path d="M73.3435 145.876L46.0605 165.655" stroke="#3B2E4B" stroke-width="3.87471" stroke-miterlimit="10" stroke-linecap="round" stroke-linejoin="round"/>
<path d="M84.8336 166.511L57.2627 185.867" stroke="#3B2E4B" stroke-width="3.87471" stroke-miterlimit="10" stroke-linecap="round" stroke-linejoin="round"/>
<path opacity="0.24" d="M90.1007 250.779C89.3919 251.218 88.9268 251.388 88.9268 251.388L88.9544 251.339C89.3421 251.169 89.7242 250.982 90.1007 250.779Z" fill="#3B2E4B"/>
<path d="M141.543 213.944C141.338 214.438 140.856 214.806 140.258 214.817C135.69 214.91 124.942 214.345 120.733 207.293L94.4913 204.927L72.8399 202.973L63.5868 202.139L61.2666 201.931C61.6985 201.931 62.3132 200.921 63.692 199.061C63.692 199.061 63.692 199.061 63.692 199.055C65.3865 196.739 68.2438 193.112 73.3382 188.469C73.3438 188.469 73.3438 188.469 73.3438 188.469C73.3438 188.469 73.3493 188.469 73.3548 188.463C79.446 182.904 88.7268 175.912 103.024 167.988C105.328 166.709 108.191 167 110.184 168.717C116.94 174.557 131.83 187.47 132.794 188.743C133.907 190.214 139.001 206.475 141.56 212.874C141.704 213.242 141.687 213.62 141.543 213.944Z" fill="#D86E6C"/>
<path opacity="0.24" d="M141.541 213.944C141.337 214.438 140.855 214.805 140.257 214.816C135.688 214.91 124.94 214.344 120.732 207.292L94.4898 204.927C91.411 202.902 89.2957 201.503 88.9524 201.261C89.1074 201.629 80.1589 202.408 72.8384 202.973C67.7938 203.369 63.5244 203.665 63.5244 203.665C63.5244 203.665 63.5466 203.083 63.5853 202.139C63.613 201.332 63.6518 200.257 63.6905 199.06C63.6905 199.06 63.6905 199.06 63.6905 199.055C65.385 196.739 68.2423 193.111 73.3368 188.469C73.3423 188.469 73.3423 188.469 73.3423 188.469C73.3423 188.469 73.3478 188.469 73.3534 188.463C73.8573 188.342 90.0931 184.429 104.169 179.518C118.461 174.529 126.812 201.662 128.606 205.191C130.588 209.092 135.661 213.143 141.541 213.944Z" fill="#3B2E4B"/>
<path d="M355.687 184.457L297.887 179.512L288.324 192.041C288.324 192.041 285.195 197.261 279.01 201.349C274.995 204.011 269.696 206.189 263.128 206.162C261.617 206.157 260.57 204.664 261.118 203.264L261.661 201.898L274.181 170.199C274.181 170.199 312.024 152.061 313.691 152.89C314.688 153.384 328.537 161.462 340.099 169.749C344.191 172.685 347.995 175.643 350.842 178.305C353.367 180.67 355.139 182.794 355.687 184.457Z" fill="#D86E6C"/>
<path opacity="0.24" d="M350.842 178.305L333.648 175.671L295.39 171.813L279.01 201.349C274.995 204.011 269.696 206.189 263.128 206.162C261.617 206.156 260.57 204.664 261.118 203.264L261.661 201.898C261.661 201.898 272.409 205.728 281.624 186.059C290.838 166.39 286.369 167.598 302.422 167.4C315.784 167.23 331.117 171.11 340.099 169.749C344.191 172.685 347.995 175.643 350.842 178.305Z" fill="#3B2E4B"/>
<path d="M140.302 247.799C140.208 247.871 140.114 247.937 140.015 247.997C134.112 251.954 127.146 247.618 127.146 247.618C127.738 255.274 129.604 266.299 130.623 271.969C130.645 272.095 130.667 272.216 130.689 272.336C131.011 274.125 129.482 275.7 127.666 275.459C116.641 274.01 111.331 264.834 109.763 261.558C109.42 260.828 109.26 260.394 109.26 260.394C109.26 260.394 98.0352 269.461 94.2918 271.112C90.5485 272.759 85.5593 272.347 85.5593 272.347C84.7287 263.693 92.2098 257.096 92.2098 257.096L89.513 250.917L80.1548 252.151C78.488 261.635 58.5255 264.927 58.5255 264.927C63.5203 276.88 55.9727 282.045 55.9727 282.045C51.8695 268.401 50.7011 260.279 47.1848 253.024C43.6741 245.769 39.5708 241.993 38.9894 239.963C38.4024 237.932 38.9894 235.029 38.9894 231.259C38.9894 227.483 39.2773 224.871 43.3806 217.325C47.4783 209.779 50.7011 199.335 53.3369 198.753C55.9727 198.172 101.358 186.855 106.923 184.534C112.488 182.212 114.537 188.013 114.537 188.013C119.808 201.656 136.205 225.452 136.205 225.452C136.498 233.865 140.302 247.799 140.302 247.799Z" fill="#D86E6C"/>
<path opacity="0.24" d="M127.555 275.459C116.53 274.01 111.219 264.834 109.652 261.558L109.126 258.792L104.968 233.487C104.968 233.487 84.5676 229.14 69.3563 227.845C67.6064 227.697 67.5344 225.178 69.2732 224.953C78.3768 223.762 91.351 223.674 105.732 228.509C105.732 228.509 113.606 233.838 115.4 258.375C116.242 269.883 124.16 272.095 130.512 271.968C130.534 272.095 130.556 272.215 130.578 272.336C130.899 274.125 129.371 275.7 127.555 275.459Z" fill="#3B2E4B"/>
<path opacity="0.24" d="M139.577 248.271L139.428 248.469C133.525 252.426 126.559 248.09 126.559 248.09L125.889 234.952L106.341 206.788L63.5701 213.247L63.3486 212.501C63.3486 212.501 100.289 201.354 107.892 201.354C111.408 201.354 130.091 230.402 129.914 233.487C129.732 236.565 127.699 248.491 139.577 248.271Z" fill="#3B2E4B"/>
<path d="M135.617 225.924C135.617 225.924 119.22 202.128 113.949 188.485C113.949 188.485 111.9 182.679 106.335 185C102.78 186.482 82.9557 191.641 68.4199 195.323" stroke="#3B2E4B" stroke-width="3.87471" stroke-miterlimit="10" stroke-linecap="round" stroke-linejoin="round"/>
<path d="M61.2666 212.649C62.9278 211.414 84.3744 211.694 106.297 205.992C106.297 205.992 124.477 231.248 125.722 233.487C126.968 235.731 126.553 248.09 126.553 248.09" stroke="#3B2E4B" stroke-width="3.87471" stroke-miterlimit="10" stroke-linecap="round" stroke-linejoin="round"/>
<path d="M68.3379 227.038C68.3379 227.038 100.361 229.179 104.935 233.481C104.935 233.481 111.17 252.206 108.678 260.866" stroke="#3B2E4B" stroke-width="3.87471" stroke-miterlimit="10" stroke-linecap="round" stroke-linejoin="round"/>
<path d="M68.3379 242.169C68.3379 242.169 69.2626 251.707 79.5678 252.629" stroke="#3B2E4B" stroke-width="3.87471" stroke-miterlimit="10" stroke-linecap="round" stroke-linejoin="round"/>
<path d="M88.1162 257.573C88.1162 257.573 93.9416 252.629 101.81 257.573" stroke="#3B2E4B" stroke-width="3.87471" stroke-miterlimit="10" stroke-linecap="round" stroke-linejoin="round"/>
<path d="M133.137 354.343L129.466 391.102L52.9492 384.922L53.3479 379.116L55.5241 347.423C55.7069 344.706 58.1101 342.676 60.8456 342.917L68.1107 343.57L128.713 349.036C131.42 349.278 133.408 351.66 133.137 354.343Z" fill="white"/>
<path d="M124.06 323.923C124.06 323.923 110.338 328.045 101.811 326.398" stroke="#3B2E4B" stroke-width="3.87471" stroke-miterlimit="10" stroke-linecap="round" stroke-linejoin="round"/>
<path d="M371.908 229.969C370.662 232.845 366.918 255.104 363.175 264.17C363.175 264.17 343.212 252.59 337.393 243.952C337.393 243.952 326.163 240.692 325.747 229.969C325.747 229.969 320.343 231.626 316.6 229.969C316.6 229.969 317.43 235.314 314.108 236.137C314.108 236.137 321.173 240.259 320.343 251.388C320.343 251.388 312.358 250.829 301.477 243.118C300.978 242.767 300.474 242.399 299.965 242.015C299.965 242.015 299.965 258.078 281.215 263.627C280.263 263.907 279.333 263.122 279.476 262.145L283.331 236.549C283.331 236.549 283.015 236.993 282.35 237.668C280.551 239.518 276.187 243.085 268.839 243.831C267.97 243.925 267.261 243.145 267.416 242.295C268.296 237.493 270.965 223.531 273.352 216.77C276.265 208.527 291.648 176.379 294.145 172.669C296.643 168.959 351.53 178.442 354.442 179.265C357.355 180.088 367.334 196.163 366.918 197.809C366.503 199.461 376.897 209.636 378.148 214.235C379.394 218.828 373.159 227.093 371.908 229.969Z" fill="#D86E6C"/>
<path opacity="0.24" d="M320.342 251.389C320.342 251.389 321.388 241.022 314.106 236.138C314.106 236.138 317.434 235.902 316.598 229.969C316.598 229.969 320.591 231.835 326.449 229.898C326.449 229.898 337.225 238.272 346.932 235.775C346.932 235.775 338.1 241.088 324.982 237.01C323.814 236.648 322.695 237.746 323.099 238.893C324.207 242.026 324.832 247.02 320.342 251.389Z" fill="#3B2E4B"/>
<path opacity="0.24" d="M334.796 195.526L301.432 196.794L295.818 199.165L282.35 237.668C280.551 239.518 276.187 243.085 268.839 243.831C267.97 243.925 267.261 243.145 267.416 242.295C267.416 242.295 275.827 240.901 283.331 216.94C290.33 194.604 290.274 184.918 334.973 193.051C336.451 193.32 336.302 195.466 334.796 195.526Z" fill="#3B2E4B"/>
<path d="M280.488 200.306C285.937 188.518 292.577 175.001 294.144 172.674C295.921 170.029 324.323 174.085 341.544 176.933" stroke="#3B2E4B" stroke-width="3.87471" stroke-miterlimit="10" stroke-linecap="round" stroke-linejoin="round"/>
<path d="M283.329 236.554C283.329 236.554 294.232 199.461 296.73 197.815C299.227 196.168 328.659 194.516 336.561 195.34" stroke="#3B2E4B" stroke-width="3.87471" stroke-miterlimit="10" stroke-linecap="round" stroke-linejoin="round"/>
<path d="M320.34 251.389C320.34 251.389 321.076 239.353 311.973 236.088" stroke="#3B2E4B" stroke-width="3.87471" stroke-miterlimit="10" stroke-linecap="round" stroke-linejoin="round"/>
<path d="M295.39 233.959L299.964 211.002C299.964 211.002 319.926 206.272 341.55 206.167" stroke="#3B2E4B" stroke-width="3.87471" stroke-miterlimit="10" stroke-linecap="round" stroke-linejoin="round"/>
<path d="M316.598 229.969C316.598 229.969 317.429 221.688 314.101 217.989" stroke="#3B2E4B" stroke-width="3.87471" stroke-miterlimit="10" stroke-linecap="round" stroke-linejoin="round"/>
<path opacity="0.24" d="M122.056 385.806C122.056 385.806 71.1229 380.559 53.3477 379.116L55.5239 347.423C55.7066 344.706 58.1099 342.676 60.8454 342.917L68.1105 343.57C68.116 343.576 68.116 343.576 68.116 343.576C68.116 343.576 64.788 362.136 76.5053 365.862C88.2225 369.589 113.65 371.125 122.056 385.806Z" fill="#3B2E4B"/>
<path d="M261.899 426.621C261.899 426.621 276.485 452.826 290.002 474.515L282.897 480.755C279.281 483.899 274.646 485.628 269.834 485.628H229.522C229.499 485.568 229.477 485.507 229.455 485.447C229.361 485.189 229.261 484.931 229.162 484.668C229.012 484.262 228.857 483.855 228.702 483.438C228.608 483.175 228.508 482.912 228.409 482.648C227.882 481.238 227.34 479.772 226.792 478.291C226.576 477.703 226.354 477.111 226.138 476.523C225.784 475.563 225.429 474.597 225.075 473.642C224.782 472.83 224.488 472.023 224.195 471.222C224.073 470.882 223.945 470.547 223.824 470.212C223.53 469.4 223.242 468.593 222.96 467.809C222.461 466.42 221.985 465.087 221.542 463.835C221.37 463.347 221.204 462.869 221.044 462.408C220.545 460.982 220.113 459.697 219.754 458.605C219.665 458.32 219.576 458.04 219.488 457.782C219.416 457.546 219.344 457.321 219.283 457.112C219.205 456.855 219.133 456.613 219.067 456.394C219.028 456.267 218.995 456.152 218.967 456.042C218.923 455.9 218.89 455.762 218.856 455.642C218.729 455.115 218.679 454.797 218.729 454.72L218.22 454.829C215.357 455.45 212.378 455.307 209.581 454.412C201.242 451.751 183.428 445.939 181.041 444.133C177.918 441.763 160.586 419.394 158.487 414.169C157.402 411.458 159.401 407.556 161.583 404.422C163.604 401.519 165.775 399.28 165.775 399.28L181.872 388.337L197.067 378.003L212.66 367.406L219.676 362.637L219.92 362.472L228.957 356.38L240.314 363.087C240.314 363.087 237.091 346.162 240.314 337.222C243.537 328.287 253.521 320.939 259.966 319.347C259.966 319.347 262.868 317.75 268.666 319.347C268.666 319.347 260.609 340.608 259.966 344.982C259.324 349.356 266.733 369.793 268.666 378.091C270.598 386.394 270.598 419.597 261.899 426.621Z" fill="#A85856"/>
<path opacity="0.24" d="M244.29 343.301C243.637 350.716 245.475 355.122 246.799 360.918C248.072 366.51 243.487 371.707 237.723 371.224L221.36 369.847C221.36 369.847 220.767 366.966 219.92 362.85L228.957 356.758L240.314 363.464C240.314 363.464 237.092 346.539 240.314 337.599C243.537 328.665 253.521 321.316 259.967 319.725C259.967 319.725 262.868 318.128 268.666 319.725C268.666 319.719 245.697 327.243 244.29 343.301Z" fill="#3B2E4B"/>
<path d="M325.746 229.969C325.746 229.969 336.14 229.519 341.55 217.989" stroke="#3B2E4B" stroke-width="3.87471" stroke-miterlimit="10" stroke-linecap="round" stroke-linejoin="round"/>
<path d="M303.291 311.559C303.291 311.559 313.685 315.68 325.745 311.559" stroke="#3B2E4B" stroke-width="3.87471" stroke-miterlimit="10" stroke-linecap="round" stroke-linejoin="round"/>
<path d="M293.612 352.357C293.452 350.216 295.091 348.367 297.251 348.241C299.665 348.098 303.054 347.873 307.052 347.587C323.758 346.397 351.113 344.234 362.62 343.318C365.566 343.082 368.13 345.288 368.307 348.213L370.66 386.98C370.66 386.98 297.04 390.948 295.401 391.102C296.387 390.904 294.404 362.926 293.612 352.357Z" fill="white"/>
<path opacity="0.24" d="M293.612 352.356C293.452 350.216 295.091 348.367 297.251 348.24C299.665 348.098 303.054 347.873 307.052 347.587C307.002 348.07 304.66 371.855 322.85 369.841C341.223 367.805 365.965 374.045 370.66 386.98C370.66 386.98 297.04 390.948 295.401 391.102C296.387 390.904 294.404 362.926 293.612 352.356Z" fill="#3B2E4B"/>
<path d="M366.917 197.809L361.513 205.992" stroke="#3B2E4B" stroke-width="3.87471" stroke-miterlimit="10" stroke-linecap="round" stroke-linejoin="round"/>
<path d="M47.207 212.501C47.207 212.501 52.5341 210.997 55.8621 210.174" stroke="#3B2E4B" stroke-width="3.87471" stroke-miterlimit="10" stroke-linecap="round" stroke-linejoin="round"/>
<path d="M142.047 386.794L136.116 486H28.9609C29.3984 473.965 31.5469 421.955 37.5495 376.13C37.8707 373.677 40.0967 371.916 42.5831 372.152L53.7521 373.211L63.3485 374.122L101.812 377.777L116.126 379.132L130.523 380.499L137.152 381.13C140.059 381.404 142.224 383.907 142.047 386.794Z" fill="#3B2E4B"/>
<path d="M384.959 391.486L378.137 397.473L378.131 397.479L362.615 411.111L351.325 421.022L350.638 421.631L342.492 428.782L336.645 433.919L333.239 436.91L333.2 436.943L331.938 438.051L328.25 441.295L324.241 444.818L320.946 447.716C320.941 447.716 320.941 447.716 320.941 447.716L320.57 448.04C320.57 448.045 320.564 448.045 320.564 448.045L319.656 448.841L296.061 469.569L284.371 388.402C283.806 384.483 286.653 380.889 290.629 380.504L295.407 380.038L314.096 378.227H314.102L342.697 375.45L369.803 372.821L375.18 372.3C378.53 371.976 381.576 374.221 382.235 377.486C382.921 380.9 383.863 385.69 384.959 391.486Z" fill="#3B2E4B"/>
<path opacity="0.24" d="M241.554 391.102C241.554 391.14 241.549 403.615 234.694 406.391C227.827 409.174 223.458 406.391 223.458 406.391L214.222 411.649V412.598C214.222 416.286 211.857 419.563 208.335 420.754C208.967 423.651 207.316 426.576 204.481 427.526C199.365 429.243 191.197 431.043 184.724 428.118C182.68 427.196 180.609 429.32 181.501 431.362C182.586 433.842 184.22 436.499 186.645 438.551C192.88 443.809 209.443 454.357 225.501 452.639L218.967 456.414C218.923 456.272 218.89 456.135 218.856 456.014C218.729 455.487 218.679 455.169 218.729 455.092L218.22 455.202C215.357 455.822 212.378 455.679 209.581 454.785C201.242 452.123 183.428 446.311 181.041 444.506C177.918 442.135 160.586 419.766 158.487 414.541C157.402 411.83 159.401 407.928 161.583 404.794L241.554 391.102Z" fill="#3B2E4B"/>
<path d="M224.853 396.024L226.414 397.056L229.947 399.389C231.581 400.47 233.668 400.607 235.435 399.762L240.092 397.523C242.002 396.606 243.215 394.685 243.215 392.583V385.488L224.21 347.176L216.48 343.982L204.237 347.494L202.946 356.752L194.895 354.519L179.435 361.84V369.841L168.16 372.558L166.228 383.891L153.984 391.102C153.984 391.102 153.015 403.686 153.984 406.561C154.953 409.437 158.492 414.541 158.492 414.541C158.492 414.541 171.112 414.025 174.977 408.916C174.977 408.916 184.584 426.669 201.662 418.69L199.962 413.581C199.962 413.581 207.46 411.984 209.392 409.432V401.77C209.392 401.77 213.257 403.686 215.511 403.367C217.765 403.049 224.853 396.024 224.853 396.024Z" fill="#A85856"/>
<path d="M164.933 388.682C165.902 389 183.295 388.682 183.295 388.682L199.957 413.586" stroke="#3B2E4B" stroke-width="3.87471" stroke-miterlimit="10" stroke-linecap="round" stroke-linejoin="round"/>
<path opacity="0.24" d="M378.595 143.977L356.307 139.488L357.348 127.519C357.464 126.169 359.325 125.884 359.856 127.135C361.368 130.707 364.103 134.511 369.032 135.828C372.67 136.799 375.483 136.832 377.593 136.497L378.595 143.977Z" fill="#3B2E4B"/>
<path d="M179.43 369.841L192.636 371.735L207.776 394.427L209.387 401.77" stroke="#3B2E4B" stroke-width="3.87471" stroke-miterlimit="10" stroke-linecap="round" stroke-linejoin="round"/>
<path d="M202.946 356.752L209.386 361.84L225.495 391.102L224.852 396.024" stroke="#3B2E4B" stroke-width="3.87471" stroke-miterlimit="10" stroke-linecap="round" stroke-linejoin="round"/>
<path d="M218.729 455.092C218.729 455.092 229.229 452.161 232.269 448.149" stroke="#3B2E4B" stroke-width="3.87471" stroke-miterlimit="10" stroke-linecap="round" stroke-linejoin="round"/>
<path d="M261.898 426.993C261.898 426.993 253.708 435.022 248.005 435.933" stroke="#3B2E4B" stroke-width="3.87471" stroke-miterlimit="10" stroke-linecap="round" stroke-linejoin="round"/>
<path d="M329.506 161.473C329.506 161.473 347.259 156.858 366.922 161.473" stroke="#3B2E4B" stroke-width="3.87471" stroke-miterlimit="10" stroke-linecap="round" stroke-linejoin="round"/>
<path d="M354.441 179.265L368.612 178.793" stroke="#3B2E4B" stroke-width="3.87471" stroke-miterlimit="10" stroke-linecap="round" stroke-linejoin="round"/>
<path d="M353.091 138.144L384.975 145.437" stroke="#3B2E4B" stroke-width="3.87471" stroke-miterlimit="10" stroke-linecap="round" stroke-linejoin="round"/>
<path d="M58.5246 136.086L39.6641 148.374" stroke="#3B2E4B" stroke-width="3.87471" stroke-miterlimit="10" stroke-linecap="round" stroke-linejoin="round"/>
<path opacity="0.24" d="M63.7149 187.976C63.5151 187.888 63.4429 187.789 63.5262 187.668C63.6094 187.552 63.6705 187.673 63.7149 187.976Z" fill="#3B2E4B"/>
<path opacity="0.24" d="M249.069 486H229.522C229.499 485.94 229.477 485.879 229.455 485.819C229.361 485.561 229.261 485.303 229.162 485.04C229.012 484.634 228.857 484.227 228.702 483.81C228.608 483.547 228.508 483.283 228.409 483.02C227.882 481.61 227.34 480.144 226.792 478.663C226.576 478.075 226.354 477.483 226.138 476.895C225.784 475.935 225.429 474.969 225.075 474.014C224.781 473.202 224.488 472.395 224.195 471.594C224.073 471.254 223.945 470.919 223.824 470.584C223.53 469.772 223.242 468.965 222.96 468.18C222.461 466.792 221.985 465.458 221.542 464.207C221.37 463.719 221.204 463.241 221.044 462.78C220.545 461.353 220.113 460.069 219.754 458.977C219.659 458.686 219.571 458.412 219.488 458.154C219.416 457.918 219.344 457.693 219.283 457.484C219.2 457.226 219.128 456.985 219.067 456.765C219.028 456.639 218.995 456.524 218.967 456.414C218.923 456.272 218.89 456.134 218.856 456.014C219.731 455.668 220.734 455.251 221.813 454.768C227.816 452.09 236.25 447.315 238.642 440.922C238.642 440.922 255.276 436.175 261.899 429.15C261.899 429.15 256.024 452.194 239.6 460.475C239.6 460.475 238.913 473.91 249.069 486Z" fill="#3B2E4B"/>
<path opacity="0.24" d="M62.9562 332.101C62.9063 331.903 62.9229 331.826 63.0173 331.897C63.0839 331.947 63.0561 332.013 62.9562 332.101Z" fill="#3B2E4B"/>
<path d="M58.5254 264.927C58.5254 264.927 73.5319 266.168 79.5677 252.623L88.8041 256.838C88.8041 256.838 81.5888 263.632 85.5592 272.347" stroke="#3B2E4B" stroke-width="3.87471" stroke-miterlimit="10" stroke-linecap="round" stroke-linejoin="round"/>
<path d="M79.5605 252.623C79.5605 252.623 92.7895 250.198 94.9602 243.952" stroke="#3B2E4B" stroke-width="3.87471" stroke-miterlimit="10" stroke-linecap="round" stroke-linejoin="round"/>
<path d="M346.937 235.775C333.503 238.333 325.751 229.969 325.751 229.969H316.603L314.111 236.137" stroke="#3B2E4B" stroke-width="3.87471" stroke-miterlimit="10" stroke-linecap="round" stroke-linejoin="round"/>
<path opacity="0.24" d="M71.6436 486H28.9609C29.3984 473.965 31.5469 421.955 37.5495 376.13C37.8707 373.677 40.0967 371.916 42.5831 372.152L53.7521 373.211L63.3485 374.122C63.3485 374.122 56.626 455.602 71.6436 486Z" fill="#3B2E4B"/>
<path opacity="0.24" d="M333.2 436.943L331.938 438.052L328.25 441.295L324.241 444.818L320.946 447.716C320.941 447.716 320.941 447.716 320.941 447.716L320.57 448.04C320.57 448.045 320.564 448.045 320.564 448.045L319.656 448.841L296.061 469.569L284.371 388.402C283.806 384.483 286.653 380.889 290.629 380.505L295.407 380.038L314.096 378.227H314.102C314.102 378.227 317.253 418.838 333.2 436.943Z" fill="#3B2E4B"/>
<path d="M128.286 257.573C128.286 257.573 123.861 258.803 123.861 268.072C123.861 268.072 126.946 270.607 130.285 270.075L128.286 257.573Z" fill="white"/>
<path d="M282.248 243.738C282.248 243.738 286.822 246.647 286.407 256.865C286.407 256.865 284.807 258.792 279.934 259.116L282.248 243.738Z" fill="white"/>
<g clip-path="url(#clip1)">
<path d="M250.294 362.593L374.258 271.682C375.522 270.755 377.306 271.029 378.234 272.294L396.408 297.076C396.882 297.722 397.061 298.535 396.904 299.32L392.225 322.617C392.082 323.313 391.692 323.93 391.118 324.35L281.307 404.882C280.039 405.804 278.258 405.535 277.331 404.27L249.682 366.569C248.755 365.304 249.029 363.52 250.294 362.593Z" fill="#3AB3C6"/>
<path d="M279.056 359.122C278.695 358.63 278.007 358.529 277.521 358.885L273.056 362.16C272.564 362.52 272.463 363.209 272.819 363.695L286.762 382.707C287.122 383.199 287.811 383.3 288.297 382.943L292.762 379.669C293.254 379.308 293.355 378.62 292.999 378.133L291.512 376.106L294.005 374.277L295.492 376.305C296.76 378.044 296.497 380.434 294.951 381.859C294.84 381.964 294.715 382.063 294.587 382.157L290.122 385.432C289.994 385.526 289.868 385.611 289.728 385.689C287.905 386.735 285.543 386.263 284.273 384.532L270.331 365.52C268.964 363.656 269.372 361.034 271.227 359.666L275.692 356.392C277.559 355.03 280.178 355.433 281.55 357.293L282.143 358.102L279.649 359.931L279.056 359.122V359.122Z" fill="white"/>
<path d="M286 352.658L294.843 364.717L299.416 361.364L301.241 363.852L296.668 367.205L301.242 373.442L308.723 367.956L310.552 370.449L300.577 377.764L281.682 351.999L291.656 344.684L293.485 347.177L286.004 352.664L286 352.658Z" fill="white"/>
<path d="M325.502 359.493L322.507 361.69L309.985 357.125C309.754 357.389 309.511 357.638 309.245 357.888L315.693 366.679L313.199 368.508L296.782 346.122C295.415 344.258 295.819 341.631 297.679 340.259L302.154 336.977C304.018 335.61 306.645 336.014 308.016 337.883L310.723 341.575C313.57 345.456 313.817 350.464 311.78 354.493L325.502 359.493ZM307.398 355.368C310.5 352.18 310.94 347.109 308.225 343.407L305.517 339.716C305.161 339.229 304.473 339.119 303.982 339.48L299.507 342.761C299.02 343.118 298.914 343.81 299.27 344.297L307.398 355.368Z" fill="white"/>
<path d="M319.889 327.83L316.151 330.571L333.199 353.818L330.71 355.643L313.662 332.396L309.925 335.138L308.1 332.649L318.069 325.338L319.894 327.827L319.889 327.83Z" fill="white"/>
<path d="M320.06 323.854L322.548 322.029L341.432 347.78L338.944 349.605L320.06 323.854Z" fill="white"/>
<path d="M329.814 320.535L338.657 332.594L343.229 329.24L345.054 331.729L340.482 335.082L346.88 343.807L344.387 345.636L325.491 319.87L335.466 312.555L337.294 315.049L329.814 320.535Z" fill="white"/>
<path d="M337.767 310.869L340.255 309.044L359.139 334.795L356.651 336.62L337.767 310.869Z" fill="white"/>
<path d="M347.518 307.545L356.361 319.603L360.933 316.25L362.758 318.739L358.186 322.092L362.76 328.329L370.24 322.842L372.069 325.336L362.095 332.651L343.199 306.885L353.174 299.57L355.002 302.064L347.522 307.55L347.518 307.545Z" fill="white"/>
<path d="M371.65 295.658L381.357 308.894C383.768 312.181 383.202 316.746 380.169 319.364C380.016 319.499 379.851 319.628 379.682 319.752L377.045 321.686C376.943 321.761 376.833 321.826 376.723 321.891C375.482 322.572 373.892 322.25 373.032 321.078L357.531 299.941C356.592 298.661 356.87 296.859 358.15 295.92L360.781 293.99C364.238 291.456 369.115 292.201 371.65 295.658ZM369.156 297.486C367.628 295.402 364.694 294.956 362.615 296.48L360.152 298.286L375.398 319.075L377.861 317.269C379.945 315.74 380.392 312.806 378.867 310.728L369.156 297.486Z" fill="white"/>
</g>
</g>
<defs>
<clipPath id="clip0">
<rect width="415.702" height="486" fill="white"/>
</clipPath>
<clipPath id="clip1">
<rect width="159.415" height="52.4358" fill="white" transform="translate(248 364.275) rotate(-36.2549)"/>
</clipPath>
</defs>
</svg>
