<svg width="521" height="347" viewBox="0 0 521 347" fill="none" xmlns="http://www.w3.org/2000/svg">
<path d="M408.825 265.213C408.763 265.289 408.221 264.963 407.617 264.519C407.012 264.074 406.568 263.575 406.637 263.491C406.707 263.408 407.241 263.734 407.853 264.22C408.464 264.706 408.895 265.109 408.825 265.213Z" fill="#0AA06E"/>
<path d="M425.337 240.555C425.442 238.25 425.504 235.884 424.775 233.698C424.045 231.512 422.357 229.499 420.1 229.034C417.522 228.5 414.876 230.124 413.431 232.324C411.986 234.524 411.493 237.182 411.062 239.791C408.121 257.701 407.036 275.867 407.825 293.999L418.384 295.478C423.052 276.559 424.497 260.014 425.337 240.555Z" fill="#3B802A"/>
<path d="M418.634 228.951C418.634 228.951 418.634 229.006 418.585 229.117L418.412 229.596C418.238 230.04 418.009 230.651 417.717 231.414C417.571 231.817 417.37 232.247 417.217 232.733C417.064 233.219 416.884 233.76 416.703 234.329C416.522 234.898 416.321 235.516 416.112 236.168C415.904 236.821 415.758 237.556 415.564 238.25C414.688 241.679 414.008 245.154 413.528 248.66C412.959 252.623 412.584 256.988 412.285 261.631C411.75 270.868 411.667 279.259 411.423 285.324C411.312 288.357 411.208 290.807 411.09 292.5C411.034 293.326 410.993 293.978 410.958 294.45C410.958 294.659 410.958 294.825 410.916 294.957C410.924 295.015 410.924 295.073 410.916 295.13C410.911 295.073 410.911 295.015 410.916 294.957C410.916 294.818 410.916 294.652 410.916 294.45C410.916 293.988 410.937 293.335 410.979 292.493C411.055 290.8 411.118 288.329 411.194 285.317C411.361 279.252 411.403 270.861 411.944 261.61C412.243 256.988 412.639 252.588 413.216 248.612C413.714 245.086 414.424 241.594 415.341 238.153L415.918 236.071L416.536 234.239C416.731 233.67 416.911 233.135 417.085 232.643C417.259 232.15 417.453 231.727 417.613 231.338L418.384 229.541L418.592 229.076C418.599 229.02 418.627 228.944 418.634 228.951Z" fill="#0AA06E"/>
<path d="M419.613 228.958C420.163 229.606 420.598 230.343 420.898 231.137C421.709 233.315 422.039 235.642 421.864 237.959C421.586 243.789 421.058 251.839 420.371 260.681C419.683 269.522 418.898 277.559 418.287 283.354C417.974 286.255 417.703 288.593 417.508 290.21C417.404 290.995 417.328 291.598 417.265 292.07C417.265 292.265 417.217 292.424 417.196 292.556C417.202 292.612 417.202 292.667 417.196 292.723C417.189 292.665 417.189 292.607 417.196 292.549C417.196 292.417 417.196 292.258 417.196 292.063C417.238 291.605 417.3 290.981 417.37 290.197C417.529 288.538 417.752 286.206 418.064 283.326C418.62 277.531 419.349 269.515 420.044 260.653C420.739 251.791 421.308 243.761 421.656 237.952C421.848 235.666 421.565 233.364 420.822 231.193C420.486 230.414 420.081 229.666 419.613 228.958Z" fill="#0AA06E"/>
<path d="M426.928 256.245C426.236 256.195 425.558 256.021 424.928 255.732C424.257 255.557 423.623 255.261 423.059 254.857C424.422 255.083 425.733 255.554 426.928 256.245Z" fill="#0AA06E"/>
<path d="M428.199 245.503C427.629 245.96 426.986 246.317 426.296 246.558C425.648 246.91 424.942 247.145 424.212 247.252C424.782 246.793 425.425 246.434 426.115 246.19C426.765 245.842 427.47 245.61 428.199 245.503Z" fill="#0AA06E"/>
<path d="M427.539 236.73C426.497 236.905 425.429 236.831 424.42 236.515C424.933 236.367 425.472 236.338 425.997 236.432C426.528 236.408 427.056 236.511 427.539 236.73Z" fill="#0AA06E"/>
<path d="M416.647 231.102C416.564 231.157 416.098 230.581 415.619 229.818C415.28 229.38 415.043 228.873 414.924 228.333C415.015 228.277 415.473 228.853 415.959 229.617C416.446 230.38 416.737 231.053 416.647 231.102Z" fill="#0AA06E"/>
<path d="M413.049 236.411C412.571 236.584 412.059 236.639 411.555 236.571C411.047 236.618 410.534 236.541 410.062 236.349C410.541 236.175 411.056 236.12 411.562 236.189C412.389 236.21 413.056 236.307 413.049 236.411Z" fill="#0AA06E"/>
<path d="M410.464 247.022C409.913 246.999 409.374 246.852 408.888 246.592C408.054 246.259 407.415 245.898 407.45 245.808C408.002 245.83 408.542 245.98 409.027 246.245C409.853 246.578 410.506 246.925 410.464 247.022Z" fill="#0AA06E"/>
<path d="M410.194 255.947C410.194 256.051 409.61 256.266 408.846 256.426C408.399 256.575 407.921 256.611 407.457 256.53C407.457 256.426 408.033 256.218 408.797 256.058C409.246 255.905 409.726 255.867 410.194 255.947Z" fill="#0AA06E"/>
<path d="M408.971 270.549C408.971 270.653 408.353 270.855 407.547 270.994C406.741 271.132 406.075 271.174 406.054 271.07C406.033 270.966 406.679 270.771 407.485 270.626C408.291 270.48 408.957 270.445 408.971 270.549Z" fill="#0AA06E"/>
<path d="M408.165 278.607C408.214 278.697 407.686 279.079 406.977 279.447C406.269 279.815 405.665 280.05 405.588 279.96C405.512 279.87 406.067 279.488 406.776 279.114C407.485 278.739 408.117 278.517 408.165 278.607Z" fill="#0AA06E"/>
<path d="M414.751 287.753C414.66 287.809 414.202 287.163 413.716 286.324C413.374 285.839 413.137 285.288 413.021 284.707C413.111 284.658 413.577 285.297 414.056 286.136C414.4 286.62 414.637 287.171 414.751 287.753Z" fill="#0AA06E"/>
<path d="M416.654 272.554C416.731 272.631 416.21 273.248 415.501 273.942C414.793 274.636 414.154 275.143 414.112 275.067C414.07 274.99 414.556 274.373 415.265 273.679C415.974 272.985 416.585 272.478 416.654 272.554Z" fill="#0AA06E"/>
<path d="M416.23 264.581C416.154 264.651 415.675 264.255 415.161 263.7C414.647 263.145 414.292 262.638 414.369 262.569C414.445 262.499 414.924 262.888 415.439 263.443C415.953 263.998 416.307 264.512 416.23 264.581Z" fill="#0AA06E"/>
<path d="M417.543 254.386C417.62 254.455 417.189 255.08 416.578 255.774C415.967 256.468 415.411 256.946 415.334 256.877C415.258 256.808 415.689 256.183 416.3 255.489C416.911 254.795 417.495 254.316 417.543 254.386Z" fill="#0AA06E"/>
<path d="M418.273 246.995C418.203 247.064 417.578 246.592 416.932 245.94C416.286 245.288 415.786 244.691 415.855 244.614C415.925 244.538 416.55 245.017 417.196 245.669C417.842 246.322 418.349 246.919 418.273 246.995Z" fill="#0AA06E"/>
<path d="M419.718 236.994C419.808 237.05 419.509 237.688 419.023 238.493C418.537 239.298 418.12 239.881 418.03 239.798C417.939 239.715 418.238 239.104 418.724 238.299C419.211 237.494 419.634 236.939 419.718 236.994Z" fill="#0AA06E"/>
<path d="M422.441 227.729C422.359 228.268 422.155 228.781 421.843 229.228C421.42 230.006 421.01 230.616 420.913 230.547C420.998 230.009 421.202 229.497 421.51 229.048C421.934 228.271 422.358 227.681 422.441 227.729Z" fill="#0AA06E"/>
<path d="M425.525 231.942C425.566 232.032 425.15 232.33 424.58 232.636C424.01 232.941 423.517 233.045 423.476 232.955C423.434 232.865 423.851 232.566 424.42 232.296C424.99 232.025 425.476 231.844 425.525 231.942Z" fill="#0AA06E"/>
<path d="M425.601 265.212C424.876 265.223 424.159 265.051 423.517 264.712C422.835 264.488 422.221 264.094 421.732 263.567C423.031 264.083 424.316 264.632 425.587 265.212H425.601Z" fill="#0AA06E"/>
<path d="M424.337 272.256C424.337 272.36 423.719 272.569 422.948 272.721C422.177 272.874 421.475 272.923 421.454 272.818C421.433 272.714 422.072 272.506 422.843 272.354C423.327 272.204 423.838 272.171 424.337 272.256Z" fill="#0AA06E"/>
<path d="M422.788 284.339C421.548 283.594 420.62 282.426 420.176 281.05C420.657 281.558 421.092 282.109 421.475 282.695C421.96 283.204 422.399 283.754 422.788 284.339Z" fill="#0AA06E"/>
<path d="M405.824 289.87C405.755 289.787 406.185 289.308 406.776 288.801C407.366 288.295 407.915 287.941 407.985 288.024C408.054 288.107 407.623 288.579 407.026 289.086C406.429 289.592 405.887 289.946 405.824 289.87Z" fill="#0AA06E"/>
<path d="M400.941 263.498C400.246 261.353 398.968 258.855 396.717 258.82C396.047 258.856 395.4 259.072 394.842 259.444C394.285 259.817 393.838 260.332 393.549 260.937C392.932 262.134 392.638 263.471 392.695 264.816C392.981 274.361 394.618 283.817 397.558 292.903H405.803C405.699 282.91 404.059 272.993 400.941 263.498Z" fill="#3B802A"/>
<path d="M386.04 250.006C384.887 245.398 381.448 242.914 377.461 242.685C373.814 243.323 372.404 246.904 371.973 250.575C371.542 254.247 372.668 257.897 373.807 261.416C377.419 272.714 381.034 284.012 384.651 295.311L394.904 294.193C391.66 279.057 389.798 265.024 386.04 250.006Z" fill="#3B802A"/>
<path d="M396.717 258.82C396.454 259.189 396.221 259.579 396.022 259.986C395.604 261.15 395.472 262.398 395.64 263.623C395.8 265.191 395.974 267.093 396.238 269.14C396.502 271.187 396.884 273.478 397.342 275.837C398.273 280.57 399.329 284.818 399.989 287.906C400.329 289.453 400.586 290.682 400.746 291.577C400.815 291.98 400.871 292.313 400.92 292.583C400.937 292.701 400.937 292.82 400.92 292.937C400.92 292.937 400.864 292.826 400.809 292.597C400.753 292.368 400.663 292.007 400.565 291.612C400.35 290.696 400.051 289.46 399.697 287.968C399.002 284.894 397.877 280.66 396.918 275.914C396.453 273.54 396.092 271.264 395.842 269.182C395.71 268.141 395.619 267.155 395.536 266.225C395.453 265.295 395.362 264.442 395.314 263.644C395.169 262.38 395.348 261.1 395.835 259.924C396.044 259.496 396.345 259.119 396.717 258.82Z" fill="#0AA06E"/>
<path d="M377.607 242.394C377.154 242.915 376.741 243.469 376.371 244.052C375.424 245.688 374.888 247.529 374.808 249.417C374.763 252.217 375.192 255.005 376.079 257.662C376.975 260.708 377.968 264.053 379.003 267.565C381.046 274.588 382.9 280.938 384.248 285.609L385.797 291.078C385.964 291.702 386.103 292.195 386.2 292.577C386.258 292.748 386.297 292.925 386.318 293.104C386.241 292.941 386.178 292.772 386.131 292.598C386.012 292.223 385.853 291.737 385.658 291.119L383.991 285.685C382.602 281.042 380.726 274.699 378.642 267.697L375.745 257.78C374.862 255.083 374.455 252.253 374.544 249.417C374.647 247.496 375.232 245.632 376.245 243.997C376.605 243.389 377.066 242.847 377.607 242.394Z" fill="#0AA06E"/>
<path d="M392.667 293.097C392.578 292.942 392.501 292.779 392.438 292.611C392.306 292.278 392.084 291.806 391.855 291.168C391.368 289.912 390.736 288.059 390.09 285.727C389.444 283.395 388.798 280.598 388.18 277.468C387.562 274.338 386.93 270.889 386.235 267.28C385.54 263.671 384.727 260.264 383.81 257.217C383.013 254.515 382.012 251.878 380.816 249.326C380.006 247.606 379.078 245.943 378.038 244.35C377.69 243.774 377.343 243.358 377.176 243.06C377.067 242.917 376.971 242.763 376.892 242.602C377.018 242.731 377.134 242.87 377.239 243.018C377.447 243.303 377.788 243.712 378.163 244.267C379.251 245.837 380.215 247.489 381.046 249.208C382.291 251.756 383.329 254.399 384.151 257.113C385.148 260.427 385.971 263.791 386.617 267.19C387.312 270.806 387.937 274.248 388.52 277.385C389.104 280.522 389.736 283.319 390.347 285.643C390.959 287.968 391.549 289.807 391.994 291.105C392.202 291.744 392.397 292.23 392.508 292.57C392.579 292.739 392.632 292.916 392.667 293.097Z" fill="#0AA06E"/>
<path d="M373.987 259.722C373.987 259.826 373.453 260.049 372.744 260.222C372.035 260.396 371.431 260.451 371.41 260.347C371.389 260.243 371.938 260.028 372.654 259.854C373.369 259.681 373.967 259.625 373.987 259.722Z" fill="#0AA06E"/>
<path d="M372.904 252.734C372.342 252.893 371.757 252.956 371.174 252.922C370.594 253.003 370.004 252.985 369.431 252.866C369.972 252.619 370.566 252.507 371.16 252.54C371.749 252.458 372.348 252.525 372.904 252.734Z" fill="#0AA06E"/>
<path d="M374.057 246.37C373.988 246.446 373.432 246.085 372.814 245.558C372.195 245.03 371.744 244.545 371.813 244.468C371.883 244.392 372.438 244.746 373.057 245.273C373.675 245.801 374.126 246.266 374.057 246.37Z" fill="#0AA06E"/>
<path d="M377.204 240.436C377.308 240.436 377.28 240.957 377.266 241.56C377.252 242.164 377.266 242.664 377.141 242.678C377.016 242.692 376.87 242.192 376.891 241.547C376.912 240.901 377.086 240.415 377.204 240.436Z" fill="#0AA06E"/>
<path d="M383.574 243.22C383.664 243.282 383.414 243.789 383.018 244.351C382.622 244.913 382.233 245.323 382.15 245.26C382.066 245.198 382.317 244.698 382.706 244.136C383.095 243.574 383.491 243.164 383.574 243.22Z" fill="#0AA06E"/>
<path d="M387.721 250.423C387.763 250.521 387.235 250.826 386.54 251.117C385.845 251.409 385.248 251.548 385.206 251.45C385.165 251.353 385.7 251.048 386.394 250.756C387.089 250.465 387.686 250.326 387.721 250.423Z" fill="#0AA06E"/>
<path d="M390.243 257.828C389.247 258.507 388.03 258.782 386.839 258.598C387.383 258.383 387.953 258.238 388.534 258.168C389.086 257.981 389.661 257.866 390.243 257.828Z" fill="#0AA06E"/>
<path d="M378.691 255.725C378.587 255.69 378.691 255.184 378.851 254.58C379.01 253.976 379.267 253.518 379.372 253.553C379.476 253.587 379.372 254.094 379.205 254.691C379.038 255.288 378.788 255.753 378.691 255.725Z" fill="#0AA06E"/>
<path d="M380.302 265.024C380.334 264.482 380.491 263.955 380.761 263.484C381.115 262.672 381.455 262.054 381.573 262.096C381.54 262.636 381.381 263.162 381.108 263.629C380.754 264.414 380.393 265.066 380.302 265.024Z" fill="#0AA06E"/>
<path d="M376.315 267.565C375.807 267.561 375.306 267.452 374.842 267.246C374.057 266.996 373.418 266.774 373.453 266.67C373.488 266.566 374.148 266.635 374.96 266.885C375.773 267.135 376.357 267.475 376.315 267.565Z" fill="#0AA06E"/>
<path d="M378.593 275.15C378.656 275.234 378.211 275.65 377.614 276.08C377.017 276.511 376.475 276.774 376.412 276.705C376.35 276.636 376.787 276.205 377.392 275.775C377.996 275.345 378.552 275.067 378.593 275.15Z" fill="#0AA06E"/>
<path d="M380.455 282.708C380.455 282.812 379.934 283.027 379.24 283.194C378.545 283.36 377.961 283.423 377.941 283.319C377.92 283.215 378.455 283 379.149 282.833C379.844 282.666 380.427 282.604 380.455 282.708Z" fill="#0AA06E"/>
<path d="M390.444 264.143C390.493 264.226 390.028 264.601 389.354 264.837C388.68 265.073 388.083 265.122 388.069 265.025C388.055 264.927 388.576 264.726 389.222 264.483C389.868 264.24 390.403 264.053 390.444 264.143Z" fill="#0AA06E"/>
<path d="M391.868 275.9C391.827 275.997 391.271 275.831 390.632 275.526C389.993 275.22 389.514 274.908 389.555 274.832C389.597 274.755 390.153 274.901 390.792 275.199C391.431 275.498 391.917 275.81 391.868 275.9Z" fill="#0AA06E"/>
<path d="M394.39 284.318C393.821 284.291 393.264 284.142 392.758 283.881C391.896 283.541 391.222 283.187 391.264 283.09C391.833 283.118 392.39 283.267 392.897 283.527C393.446 283.68 393.955 283.95 394.39 284.318Z" fill="#0AA06E"/>
<path d="M380.858 290.911C380.809 290.814 381.476 290.363 382.247 289.752C383.018 289.141 383.637 288.593 383.706 288.669C383.776 288.746 383.289 289.412 382.483 290.057C382.031 290.486 381.468 290.781 380.858 290.911Z" fill="#0AA06E"/>
<path d="M387.52 286.622C387.408 286.622 387.263 286.067 387.006 285.415C386.749 284.763 386.485 284.235 386.568 284.173C386.651 284.11 387.089 284.568 387.36 285.276C387.631 285.984 387.624 286.622 387.52 286.622Z" fill="#0AA06E"/>
<path d="M385.749 276.51C385.693 276.593 385.262 276.385 384.79 276.052C384.318 275.719 383.991 275.358 384.054 275.289C384.116 275.219 384.54 275.407 385.012 275.747C385.485 276.087 385.811 276.427 385.749 276.51Z" fill="#0AA06E"/>
<path d="M401.274 260.645C401.337 260.736 400.92 261.145 400.344 261.575C399.767 262.006 399.246 262.269 399.183 262.193C399.121 262.117 399.538 261.693 400.114 261.27C400.691 260.847 401.212 260.562 401.274 260.645Z" fill="#0AA06E"/>
<path d="M403.602 267.037C403.602 267.141 402.956 267.28 402.143 267.19C401.33 267.1 400.753 266.829 400.753 266.732C400.753 266.635 401.448 266.732 402.184 266.815C402.921 266.899 403.602 266.933 403.602 267.037Z" fill="#0AA06E"/>
<path d="M393.556 268.474C393.556 268.571 392.973 268.786 392.167 268.842C391.361 268.897 390.778 268.758 390.778 268.654C390.778 268.55 391.403 268.515 392.167 268.467C392.931 268.418 393.536 268.37 393.556 268.474Z" fill="#0AA06E"/>
<path d="M394.425 262.429C394.425 262.533 393.799 262.547 393.133 262.235C392.466 261.922 392.07 261.45 392.139 261.381C392.209 261.312 392.674 261.617 393.285 261.895C393.897 262.172 394.439 262.332 394.425 262.429Z" fill="#0AA06E"/>
<path d="M404.477 273.901C404.421 273.985 403.782 273.693 403.087 273.242C402.393 272.791 401.83 272.347 401.886 272.263C401.941 272.18 402.58 272.465 403.275 272.923C403.97 273.381 404.532 273.811 404.477 273.901Z" fill="#0AA06E"/>
<path d="M429.019 291.834H375.363V301.335H429.019V291.834Z" fill="#023A59"/>
<path d="M379.372 299.447L385.895 327.839H417.877L425.011 299.447H379.372Z" fill="#023A59"/>
<path d="M428.991 301.342C428.991 301.446 416.89 301.536 401.962 301.536C387.033 301.536 374.925 301.446 374.925 301.342C374.925 301.238 387.026 301.154 401.962 301.154C416.897 301.154 428.991 301.245 428.991 301.342Z" fill="#0AA06E"/>
<path d="M399.149 268.682C399.058 268.737 398.697 268.307 398.329 267.724C397.961 267.141 397.746 266.628 397.829 266.572C397.912 266.517 398.287 266.947 398.649 267.523C399.01 268.099 399.239 268.626 399.149 268.682Z" fill="#0AA06E"/>
<path d="M399.17 276.323C399.142 275.826 399.238 275.331 399.447 274.88C399.705 274.116 399.989 273.526 400.087 273.561C400.184 273.596 400.087 274.255 399.809 274.998C399.531 275.74 399.267 276.358 399.17 276.323Z" fill="#0AA06E"/>
<path d="M401.788 284.353C401.691 284.395 401.295 283.756 400.892 282.916C400.592 282.431 400.403 281.887 400.336 281.32C400.434 281.279 400.83 281.917 401.233 282.757C401.536 283.24 401.726 283.786 401.788 284.353Z" fill="#0AA06E"/>
<path d="M396.12 290.786C396.043 290.717 396.363 290.217 396.814 289.676C397.266 289.135 397.738 288.746 397.815 288.808C397.891 288.871 397.572 289.377 397.12 289.919C396.668 290.46 396.203 290.876 396.12 290.786Z" fill="#0AA06E"/>
<path d="M394.932 279.085C394.932 279.182 394.397 279.182 393.779 279.085C393.161 278.988 392.674 278.808 392.688 278.703C392.702 278.599 393.223 278.606 393.841 278.703C394.46 278.801 394.953 278.988 394.932 279.085Z" fill="#0AA06E"/>
<path d="M276.762 135.164L239.944 121.978C242.355 150.667 244.696 180.072 237.062 207.832C236.235 210.837 235.506 214.599 237.895 216.598C239.326 217.791 241.369 217.833 243.237 217.777C247.053 217.662 250.862 217.382 254.664 216.938C258.707 216.473 263 215.681 265.897 212.808C268.308 210.393 269.28 206.937 270.065 203.627C275.566 181.243 277.821 158.187 276.762 135.164Z" fill="#263238"/>
<path d="M216.486 253.588L220.848 247.876L223.766 232.608L230.407 195.444C230.407 195.444 233.331 181.467 242.355 177.463L244.266 214.592L225.857 261.25L216.486 253.588Z" fill="#46B2C8"/>
<path d="M256.054 167.359L250.629 173.771L242.355 177.449C242.355 177.449 224.141 212.205 223.683 212.531C223.224 212.857 220.272 222.768 221.897 231.214C223.523 239.66 224.676 250.708 224.495 258.661C224.315 266.615 213.902 292.778 213.263 298.788C212.623 304.798 210.484 328.027 210.484 328.027L302.513 327.333C301.678 321.494 300.538 315.702 299.096 309.983C299.096 309.983 298.769 286.914 295.358 282.528C295.358 282.528 297.956 276.518 297.637 273.11C297.317 269.703 311.294 251.506 314.059 245.17C316.823 238.834 327.716 224.35 327.876 213.982C328.035 203.613 326.41 194.813 321.207 187.665C316.004 180.517 306.577 175.645 302.673 173.05L295.032 163.299L256.054 167.359Z" fill="#46B2C8"/>
<path d="M223.245 328.026C223.235 327.934 223.235 327.841 223.245 327.749C223.245 327.547 223.245 327.277 223.245 326.93C223.245 326.194 223.321 325.146 223.377 323.8C223.495 321.066 223.655 317.137 223.856 312.293C223.939 309.864 224.03 307.199 224.064 304.34C224.064 302.952 224.064 301.439 224.064 299.919C224.035 298.338 224.192 296.759 224.53 295.214C225.312 291.934 226.317 288.711 227.538 285.567C228.164 283.91 228.695 282.219 229.129 280.501C229.301 279.616 229.42 278.722 229.483 277.822L229.754 275.046C230.129 271.354 230.49 267.752 230.837 264.269C231.018 262.527 231.185 260.799 231.358 259.14C231.532 257.481 231.741 255.83 231.789 254.226C232.179 248.555 232.952 242.916 234.102 237.348C235.04 232.574 235.902 228.729 236.457 226.064C236.735 224.752 236.951 223.725 237.096 223.003L237.27 222.205C237.286 222.113 237.309 222.023 237.34 221.935C237.336 222.028 237.324 222.121 237.305 222.212C237.27 222.413 237.228 222.677 237.173 223.017C237.034 223.711 236.839 224.773 236.596 226.099C236.082 228.77 235.262 232.615 234.352 237.397C233.236 242.977 232.489 248.624 232.116 254.303C232.074 255.913 231.845 257.544 231.692 259.223C231.539 260.903 231.358 262.61 231.185 264.352L230.108 275.137L229.837 277.913C229.77 278.826 229.647 279.735 229.469 280.633C229.037 282.366 228.501 284.072 227.864 285.741C226.643 288.868 225.636 292.075 224.849 295.339C224.515 296.856 224.354 298.407 224.37 299.961C224.419 301.495 224.412 302.973 224.37 304.403C224.321 307.262 224.217 309.955 224.12 312.356C223.912 317.214 223.689 321.149 223.53 323.862C223.439 325.209 223.37 326.257 223.321 326.992C223.293 327.335 223.273 327.605 223.259 327.804C223.258 327.878 223.253 327.953 223.245 328.026Z" fill="#263238"/>
<path d="M237.576 221.608C237.576 220.866 240.841 208.27 247.662 197.742C254.484 187.214 255.998 178.025 255.998 178.025L256.109 164.437L256.693 166.185L291.287 161.175L292.336 166.172L269.183 187.068C269.183 187.068 258.485 189.15 258.068 189.441C257.652 189.733 237.576 221.608 237.576 221.608Z" fill="#EFBDA8"/>
<path d="M302.673 173.062C302.586 173.231 302.484 173.392 302.368 173.541C302.159 173.854 301.847 174.312 301.437 174.888C300.617 176.047 299.394 177.698 297.845 179.711C296.296 181.724 294.414 184.09 292.385 186.762C291.371 188.101 290.301 189.538 289.259 190.995C288.997 191.386 288.707 191.757 288.391 192.106C288.046 192.488 287.575 192.735 287.064 192.8C286.55 192.804 286.046 192.659 285.612 192.383C285.181 192.134 284.792 191.87 284.383 191.606L279.617 188.553C278.846 188.06 278.096 187.56 277.353 187.109C276.68 186.623 275.862 186.378 275.032 186.415C274.251 186.559 273.519 186.9 272.907 187.407C272.282 187.879 271.663 188.358 271.017 188.754C269.822 189.487 268.518 190.028 267.155 190.357C265.187 190.85 263.134 190.897 261.146 190.496C260.834 190.439 260.526 190.365 260.222 190.274C259.958 190.197 259.736 190.135 259.527 190.066C259.344 190.011 259.167 189.936 259 189.843C259.186 189.882 259.369 189.933 259.548 189.996C259.729 190.052 259.951 190.107 260.243 190.17C260.548 190.248 260.856 190.31 261.167 190.357C263.134 190.703 265.153 190.62 267.085 190.114C268.416 189.771 269.686 189.226 270.851 188.497C271.476 188.108 272.073 187.637 272.712 187.151C273.363 186.602 274.146 186.233 274.984 186.082C275.885 186.025 276.779 186.269 277.526 186.776C278.283 187.241 279.027 187.727 279.805 188.219L284.57 191.266C285.383 191.759 286.168 192.446 287.029 192.404C287.454 192.351 287.845 192.143 288.127 191.821C288.433 191.486 288.714 191.129 288.967 190.753C290.03 189.274 291.093 187.859 292.114 186.526C294.157 183.861 296.067 181.515 297.672 179.524C299.276 177.532 300.492 175.901 301.346 174.77L302.34 173.465C302.443 173.324 302.554 173.19 302.673 173.062Z" fill="#263238"/>
<path d="M250.629 212.711C250.767 212.367 250.939 212.037 251.143 211.726C251.49 211.108 252.025 210.22 252.699 209.137C254.088 206.972 256.02 204.036 258.374 200.927C260.729 197.818 263.015 195.132 264.738 193.245C265.599 192.301 266.308 191.551 266.822 191.045C267.068 190.768 267.338 190.512 267.627 190.281C267.422 190.586 267.189 190.872 266.933 191.135C266.426 191.725 265.752 192.488 264.946 193.411C263.286 195.341 261.028 198.047 258.694 201.149C256.36 204.251 254.352 207.152 252.949 209.276C252.254 210.303 251.72 211.15 251.296 211.802C251.099 212.123 250.876 212.427 250.629 212.711Z" fill="#263238"/>
<path d="M253.616 215.376H253.748L254.144 215.459L255.679 215.785C257.027 216.077 259 216.479 261.514 217.014C262.772 217.264 264.168 217.534 265.682 217.798C266.446 217.93 267.238 218.041 268.065 218.166C268.892 218.291 269.746 218.499 270.614 218.728C272.351 219.172 274.171 219.755 276.068 220.414C277.019 220.747 277.985 221.108 278.971 221.49C279.464 221.684 279.958 221.879 280.458 222.094L281.201 222.42L281.576 222.6L281.771 222.704L281.868 222.767L281.917 222.809C281.963 222.851 281.995 222.907 282.007 222.968V223.01L274.755 246.148C274.355 246.893 273.891 247.602 273.365 248.264C272.841 248.967 272.224 249.594 271.531 250.131C271.274 250.327 270.988 250.481 270.684 250.589L269.822 250.881L268.114 251.457L264.765 252.616L258.249 254.802L258.152 254.837L258.076 254.767L251.261 248.459L249.649 246.96C249.104 246.479 248.584 245.97 248.093 245.433C247.611 244.879 247.293 244.201 247.176 243.476C247.085 242.784 247.099 242.082 247.218 241.394C248.149 236.078 249.198 231.421 250.15 227.556C251.101 223.69 251.976 220.616 252.595 218.534L253.331 216.139L253.533 215.529C253.552 215.456 253.58 215.386 253.616 215.32C253.616 215.32 253.616 215.397 253.567 215.535C253.519 215.674 253.463 215.896 253.394 216.16L252.699 218.561C252.115 220.643 251.275 223.718 250.351 227.583C249.427 231.449 248.406 236.113 247.51 241.408C247.395 242.066 247.381 242.737 247.468 243.4C247.577 244.069 247.876 244.693 248.329 245.197C248.809 245.722 249.317 246.22 249.851 246.689L251.469 248.244L258.291 254.538H258.117L264.626 252.338L268.002 251.2L269.711 250.624L270.573 250.333C270.84 250.235 271.091 250.097 271.316 249.923C271.981 249.404 272.574 248.8 273.08 248.126C273.582 247.471 274.026 246.774 274.407 246.044L281.708 222.92L281.84 222.968C278.171 221.391 274.403 220.056 270.559 218.971C269.697 218.742 268.85 218.547 268.037 218.402C267.224 218.256 266.412 218.152 265.648 218.013C264.126 217.742 262.73 217.458 261.48 217.194C258.965 216.66 256.999 216.202 255.658 215.882L254.13 215.508L253.741 215.404C253.658 215.397 253.609 215.383 253.616 215.376Z" fill="#263238"/>
<g opacity="0.3">
<path d="M254.373 295.526C246.328 294.312 235.151 290.96 225.982 289.044C222.71 288.35 219.876 287.573 216.604 286.893L216.041 288.704C225.332 290.707 234.323 293.91 242.786 298.233C247.871 300.835 252.914 303.875 258.569 304.701C264.897 305.631 271.253 303.688 277.325 301.765C280.798 300.676 284.375 299.489 286.828 296.852C288.557 294.985 289.544 292.57 290.454 290.196C292.848 283.918 294.944 277.533 296.74 271.042C285.82 283.298 270.607 297.983 254.373 295.526Z" fill="black"/>
</g>
<path d="M292.302 216.431L269.183 258.903C269.183 258.903 263.821 259.979 263.821 265.649C263.821 265.649 261.952 264.157 259.236 265.774C257.492 266.808 252.581 268.189 249.865 269.64C249.215 269.984 248.703 270.54 248.412 271.215C248.122 271.89 248.07 272.644 248.267 273.353L255.443 299.398C255.443 299.398 264.161 299.398 264.932 297.24L276.887 293.499C276.887 293.499 284.605 291.48 287.592 286.33C290.579 281.181 308.376 254.698 308.376 254.698" fill="#46B2C8"/>
<path d="M308.376 254.698C308.376 254.698 308.327 254.796 308.216 254.969C308.105 255.143 307.932 255.399 307.723 255.732L305.778 258.682L298.498 269.675C296.949 272.035 295.24 274.63 293.399 277.448C291.558 280.265 289.578 283.291 287.592 286.574C286.506 288.261 285.056 289.684 283.347 290.738C281.584 291.87 279.684 292.772 277.693 293.424L264.987 297.407L265.098 297.296C264.909 297.7 264.588 298.028 264.188 298.226C263.817 298.424 263.426 298.582 263.021 298.698C262.217 298.939 261.395 299.113 260.562 299.218C258.865 299.448 257.155 299.569 255.443 299.579H255.304V299.448L251.254 284.749C250.522 282.107 249.802 279.49 249.093 276.899C248.746 275.595 248.399 274.346 248.051 273.027C247.943 272.338 248.048 271.633 248.352 271.005C248.656 270.377 249.145 269.858 249.753 269.515C252.08 268.429 254.464 267.47 256.894 266.642C257.478 266.413 258.054 266.184 258.61 265.948C259.154 265.64 259.718 265.369 260.298 265.136C260.898 264.914 261.542 264.835 262.177 264.906C262.813 264.977 263.423 265.196 263.959 265.546L263.681 265.677C263.652 264.04 264.203 262.444 265.237 261.173C266.27 259.978 267.653 259.138 269.19 258.772L269.079 258.855C275.984 246.225 281.784 235.62 285.855 228.16L290.613 219.513C291.169 218.52 291.593 217.764 291.885 217.229L292.218 216.653C292.252 216.586 292.292 216.521 292.336 216.459C292.336 216.459 292.336 216.528 292.239 216.66L291.926 217.257C291.649 217.791 291.232 218.562 290.704 219.561C289.613 221.581 288.029 224.523 286.029 228.25L269.357 259.008V259.071H269.28C267.817 259.426 266.5 260.229 265.515 261.368C264.533 262.578 264.013 264.099 264.049 265.657V265.983L263.779 265.789C263.288 265.476 262.731 265.282 262.152 265.221C261.574 265.161 260.989 265.237 260.444 265.442C259.878 265.671 259.328 265.937 258.798 266.24C258.228 266.51 257.645 266.746 257.054 266.975C254.64 267.799 252.272 268.753 249.962 269.835C249.418 270.142 248.981 270.607 248.709 271.169C248.438 271.731 248.344 272.362 248.44 272.978C248.739 274.221 249.135 275.525 249.475 276.809C250.184 279.396 250.904 282.014 251.636 284.665C253.025 289.697 254.38 294.631 255.679 299.357L255.512 299.225C257.208 299.219 258.902 299.103 260.583 298.878C261.398 298.772 262.204 298.602 262.994 298.372C263.372 298.262 263.737 298.114 264.084 297.928C264.412 297.771 264.678 297.51 264.841 297.185L264.876 297.109H264.952L277.658 293.153C279.615 292.51 281.482 291.621 283.215 290.509C284.887 289.482 286.311 288.098 287.383 286.456C289.384 283.173 291.378 280.154 293.218 277.337L298.359 269.585L305.653 258.585L307.64 255.663L308.161 254.914C308.307 254.747 308.376 254.698 308.376 254.698Z" fill="#263238"/>
<path d="M295.865 272.416C295.802 272.287 295.757 272.149 295.734 272.006C295.65 271.701 295.553 271.312 295.428 270.827C295.157 269.744 294.796 268.266 294.344 266.447C293.434 262.762 292.149 257.668 290.635 252.068C289.12 246.467 287.661 241.422 286.585 237.771L285.314 233.448L284.973 232.275C284.926 232.138 284.896 231.996 284.883 231.852C284.952 231.979 285.005 232.114 285.043 232.254L285.445 233.406C285.786 234.419 286.258 235.884 286.835 237.695C287.974 241.325 289.468 246.37 291.003 251.971C292.538 257.571 293.781 262.686 294.615 266.392C295.039 268.245 295.372 269.751 295.588 270.792L295.824 271.993C295.847 272.133 295.861 272.274 295.865 272.416Z" fill="white"/>
<path d="M287.432 285.692C287.335 285.692 285.404 275.65 283.125 263.228C280.847 250.805 279.068 240.707 279.165 240.687C279.263 240.666 281.194 250.729 283.479 263.158C285.765 275.588 287.529 285.679 287.432 285.692Z" fill="white"/>
<path d="M249.385 226.743C249.441 226.827 246.051 229.228 241.82 232.108C237.59 234.988 234.103 237.251 234.047 237.167C233.991 237.084 237.381 234.683 241.612 231.81C245.842 228.936 249.33 226.66 249.385 226.743Z" fill="white"/>
<path d="M247.135 235.808C246.99 236.003 246.822 236.181 246.634 236.335C246.294 236.661 245.801 237.112 245.176 237.661C243.925 238.764 242.175 240.249 240.181 241.825C238.187 243.4 236.346 244.781 234.992 245.746C234.297 246.232 233.762 246.613 233.373 246.87C233.177 247.013 232.968 247.136 232.748 247.238C232.907 247.053 233.089 246.89 233.29 246.752L234.839 245.537C236.159 244.524 237.972 243.122 239.959 241.54C241.945 239.958 243.724 238.514 245.009 237.459L246.544 236.224C246.722 236.06 246.92 235.92 247.135 235.808Z" fill="white"/>
<path d="M232.019 236.792C231.935 236.855 229.518 233.683 226.621 229.721C223.724 225.758 221.432 222.489 221.515 222.427C221.599 222.364 224.009 225.536 226.913 229.505C229.817 233.475 232.109 236.737 232.019 236.792Z" fill="white"/>
<path d="M230.817 248.959C230.365 248.654 229.952 248.295 229.587 247.89C228.893 247.196 227.906 246.183 226.913 245.01C225.92 243.837 225.086 242.727 224.516 241.894C224.18 241.468 223.897 241.002 223.676 240.506C224.068 240.879 224.42 241.293 224.725 241.741C225.343 242.532 226.204 243.608 227.191 244.774C228.177 245.94 229.101 246.974 229.768 247.717C230.158 248.095 230.509 248.511 230.817 248.959Z" fill="white"/>
<path d="M293.997 183.813C293.4 183.471 292.828 183.086 292.288 182.661L288.287 179.746C286.724 178.601 285.327 177.546 284.334 176.755C283.773 176.354 283.252 175.901 282.778 175.401C283.378 175.736 283.95 176.119 284.487 176.546L288.502 179.454C290.065 180.599 291.468 181.654 292.461 182.445C293.018 182.848 293.533 183.306 293.997 183.813Z" fill="white"/>
<path d="M297.164 179.427C295.419 178.216 293.745 176.906 292.149 175.505C290.474 174.193 288.874 172.789 287.355 171.3C289.104 172.511 290.781 173.822 292.378 175.228C294.052 176.536 295.65 177.937 297.164 179.427Z" fill="white"/>
<path d="M263.785 223.468C263.883 223.468 262.646 230.408 261.007 238.868C259.367 247.328 257.978 254.212 257.881 254.198C257.784 254.185 259.027 247.258 260.659 238.799C262.292 230.339 263.688 223.413 263.785 223.468Z" fill="white"/>
<path d="M281.375 275.116C281.165 275.046 280.964 274.951 280.777 274.832C280.395 274.63 279.867 274.311 279.221 273.895C277.559 272.788 276.01 271.521 274.595 270.112C273.181 268.702 271.913 267.154 270.809 265.49C270.392 264.852 270.073 264.324 269.871 263.943C269.749 263.756 269.655 263.553 269.593 263.339C269.642 263.339 270.135 264.116 271.024 265.345C272.178 266.95 273.458 268.461 274.852 269.862C276.256 271.251 277.766 272.53 279.367 273.686C280.604 274.568 281.41 275.061 281.375 275.116Z" fill="#263238"/>
<path d="M282.139 261.791C281.498 261.989 280.835 262.108 280.166 262.145C276.937 262.477 273.674 262.132 270.586 261.132C269.938 260.957 269.315 260.7 268.731 260.368C268.731 260.32 269.475 260.57 270.663 260.889C272.201 261.311 273.772 261.608 275.359 261.777C276.948 261.942 278.549 261.981 280.145 261.895C280.807 261.822 281.472 261.787 282.139 261.791Z" fill="#263238"/>
<path d="M232.463 195.812C232.455 195.87 232.438 195.926 232.415 195.979L232.227 196.451C232.074 196.867 231.81 197.471 231.456 198.235C230.761 199.768 229.559 201.906 228.017 204.481C226.137 207.461 224.537 210.609 223.238 213.884L222.988 214.578L222.78 215.272C222.648 215.758 222.509 216.258 222.377 216.757C222.229 217.26 222.119 217.772 222.05 218.291C221.967 218.812 221.876 219.339 221.786 219.873C221.661 220.942 221.592 222.039 221.529 223.149C221.529 223.704 221.529 224.267 221.529 224.836C221.529 225.405 221.529 225.967 221.578 226.536C221.915 230.866 222.513 235.172 223.37 239.43C224.05 242.902 224.528 246.411 224.801 249.938C224.94 251.437 224.87 252.811 224.891 254.011C224.794 255.205 224.739 256.239 224.634 257.079C224.53 257.919 224.377 258.529 224.294 258.994L224.197 259.487C224.187 259.544 224.171 259.6 224.148 259.654C224.141 259.596 224.141 259.538 224.148 259.48C224.148 259.351 224.169 259.184 224.211 258.98C224.273 258.515 224.363 257.87 224.481 257.065C224.6 256.26 224.6 255.198 224.676 254.004C224.634 252.811 224.676 251.45 224.53 249.951C224.219 246.441 223.718 242.95 223.03 239.493C222.157 235.248 221.549 230.953 221.21 226.633C221.161 226.057 221.154 225.488 221.161 224.912C221.168 224.336 221.161 223.781 221.161 223.212C221.23 222.094 221.3 220.984 221.425 219.901C221.522 219.367 221.613 218.832 221.703 218.305C221.772 217.779 221.881 217.26 222.029 216.75C222.175 216.244 222.314 215.744 222.453 215.251L222.661 214.516C222.745 214.273 222.835 214.037 222.918 213.822C224.234 210.535 225.863 207.381 227.781 204.404C229.344 201.829 230.56 199.72 231.31 198.207C231.678 197.45 231.963 196.867 232.144 196.458C232.227 196.271 232.296 196.125 232.359 196C232.382 195.932 232.417 195.868 232.463 195.812Z" fill="#263238"/>
<path d="M256.054 167.358L255.964 167.504L255.686 167.906C255.443 168.267 255.047 168.774 254.526 169.412C253.477 170.696 251.886 172.487 249.878 174.687C248.885 175.797 247.794 177.005 246.614 178.309C245.433 179.614 244.21 181.044 243.036 182.64C240.635 186.247 239.098 190.357 238.542 194.653L238.201 194.556C238.761 193.494 239.414 192.484 240.153 191.537C240.528 191.031 240.903 190.524 241.251 190.01C241.424 189.754 241.598 189.497 241.751 189.233L241.98 188.837L242.091 188.636L242.14 188.532V188.484L242.182 188.421C242.204 188.394 242.233 188.374 242.266 188.361C242.299 188.349 242.335 188.346 242.369 188.352C242.401 188.357 242.432 188.37 242.458 188.39C242.485 188.409 242.507 188.434 242.522 188.463V188.504V188.56L242.564 188.671L242.647 188.893C242.709 189.036 242.758 189.185 242.793 189.337C242.884 189.637 242.951 189.943 242.994 190.253C243.092 190.859 243.132 191.472 243.112 192.085C242.949 194.386 242.568 196.665 241.973 198.894C241.16 203.224 239.674 206.93 238.792 210.116C238.016 212.613 237.584 215.205 237.506 217.819C237.497 218.528 237.529 219.237 237.604 219.943C237.604 220.165 237.652 220.352 237.666 220.491C237.677 220.555 237.677 220.621 237.666 220.685C237.454 219.745 237.349 218.783 237.354 217.819C237.378 215.185 237.778 212.568 238.542 210.046C239.396 206.833 240.848 203.106 241.64 198.824C242.219 196.615 242.592 194.357 242.751 192.078C242.767 191.486 242.728 190.894 242.633 190.309C242.592 190.013 242.527 189.72 242.439 189.434C242.408 189.289 242.364 189.148 242.307 189.011L242.223 188.803L242.189 188.699V188.643C242.244 188.643 242.05 188.692 242.321 188.574C242.202 188.511 242.487 188.65 242.452 188.643V188.692L242.439 188.768L242.327 188.983L242.091 189.393C241.925 189.663 241.758 189.927 241.577 190.184C241.223 190.704 240.848 191.211 240.473 191.725C239.749 192.65 239.107 193.637 238.555 194.674L238.041 195.757L238.215 194.577C238.779 190.225 240.351 186.064 242.807 182.425C243.995 180.815 245.252 179.406 246.426 178.094C247.6 176.783 248.718 175.589 249.733 174.492C251.761 172.313 253.38 170.551 254.449 169.301C254.984 168.67 255.394 168.184 255.658 167.837L255.964 167.455C256.005 167.393 256.047 167.351 256.054 167.358Z" fill="#263238"/>
<path d="M257.492 266.406C257.583 266.474 257.665 266.553 257.735 266.642L258.381 267.371C258.727 267.749 259.049 268.148 259.347 268.565C259.701 269.05 260.139 269.585 260.535 270.223C260.931 270.862 261.403 271.556 261.82 272.34C262.237 273.124 262.674 273.964 263.112 274.866C264 276.848 264.716 278.903 265.252 281.008C265.75 283.122 266.069 285.274 266.203 287.441C266.203 288.441 266.28 289.392 266.203 290.28C266.191 291.106 266.135 291.93 266.037 292.75C265.988 293.507 265.849 294.18 265.759 294.77C265.685 295.277 265.583 295.78 265.453 296.276L265.217 297.22C265.198 297.333 265.163 297.443 265.113 297.546C265.107 297.432 265.119 297.317 265.147 297.206C265.196 296.942 265.252 296.63 265.314 296.248C265.377 295.867 265.495 295.332 265.557 294.735C265.62 294.138 265.752 293.479 265.786 292.723C265.821 291.966 265.912 291.161 265.905 290.273C265.898 289.385 265.905 288.455 265.849 287.462C265.698 285.318 265.372 283.19 264.876 281.098C264.351 279.013 263.654 276.975 262.792 275.005C262.369 274.11 261.987 273.249 261.542 272.486C261.097 271.722 260.708 271.001 260.306 270.369C259.903 269.737 259.507 269.175 259.173 268.69C258.84 268.204 258.52 267.787 258.256 267.461L257.666 266.691C257.597 266.603 257.539 266.507 257.492 266.406Z" fill="#263238"/>
<path d="M279.547 228.604C279.188 228.518 278.837 228.4 278.499 228.25L275.671 227.216C273.275 226.348 269.94 225.245 266.189 224.252C262.438 223.26 258.985 222.559 256.464 222.122L253.491 221.622C253.122 221.58 252.758 221.51 252.4 221.414C252.772 221.403 253.144 221.426 253.511 221.483C254.206 221.553 255.241 221.685 256.505 221.872C259.781 222.374 263.027 223.05 266.231 223.898C269.467 224.753 272.655 225.78 275.782 226.973C276.97 227.438 277.922 227.826 278.561 228.125C278.903 228.256 279.233 228.416 279.547 228.604Z" fill="#263238"/>
<g opacity="0.3">
<path d="M275.783 277.552C275.274 276.614 274.611 275.767 273.824 275.047L263.848 264.9V265.65C266.064 267.156 266.536 270.209 267.176 272.812C267.815 275.414 268.37 278.197 270.184 280.175C270.9 281.008 271.881 281.569 272.962 281.765C273.498 281.856 274.049 281.796 274.552 281.592C275.055 281.387 275.491 281.045 275.81 280.606C276.059 280.134 276.187 279.608 276.182 279.075C276.177 278.542 276.04 278.019 275.783 277.552Z" fill="black"/>
</g>
<g opacity="0.3">
<path d="M262.077 253.484C261.014 253.983 259.831 254.169 258.666 254.018C257.68 253.696 256.793 253.128 256.089 252.366L247.788 244.809C250.163 248.279 252.067 251.832 254.442 255.323C255.082 256.267 255.79 257.259 256.86 257.648C257.93 258.036 259.222 257.696 260.333 257.273C264.326 255.738 267.938 253.356 270.92 250.291L262.077 253.484Z" fill="black"/>
</g>
<g opacity="0.3">
<path d="M251.65 210.622C259.409 206.909 262.202 196.596 269.906 192.759C272.126 191.685 274.592 191.224 277.051 191.421C279.509 191.619 281.87 192.469 283.889 193.883C285.223 194.841 286.703 196.118 288.287 195.667C289.481 195.326 290.169 194.112 290.732 193.008C292.658 189.242 294.585 185.472 296.511 181.696L288.933 190.621C288.448 191.318 287.762 191.851 286.967 192.148C285.438 192.544 284.334 190.829 282.924 190.128C278.533 187.942 275.449 185.187 273.004 187.033C273.004 187.033 268.732 189.969 267.023 190.281L251.65 210.331" fill="black"/>
</g>
<g opacity="0.3">
<path d="M238.437 218.173C237.798 214.758 238.562 210.983 239.972 207.811C241.383 204.64 243.154 201.565 244.022 198.22C244.717 195.528 244.814 192.716 244.307 189.982C244.064 188.705 243.696 187.408 243.974 186.138C244.189 185.334 244.541 184.573 245.016 183.889C246.771 181.082 248.8 178.455 251.073 176.047L255.936 168.76C255.936 168.76 256.144 177.227 255.984 178.025C255.467 180.533 254.77 183 253.9 185.409C252.471 189.341 250.627 193.11 248.399 196.652C245.777 200.729 243.493 205.014 241.57 209.463L238.437 218.173Z" fill="black"/>
</g>
<path d="M269.183 187.068C259.34 184.75 256.318 179.858 256.2 171.21L256.054 160.203C256.054 160.203 245.155 159.641 242.612 143.423C241.348 135.358 240.25 122.325 240.959 111.499C241.591 101.783 251.705 84.6268 261.396 85.6748L288.029 98.6179C289.45 98.7721 290.761 99.4529 291.704 100.526C292.646 101.599 293.152 102.986 293.121 104.413L291.037 167.268" fill="#EFBDA8"/>
<path d="M245.12 123.442C245.12 123.98 245.328 124.498 245.701 124.886C246.074 125.274 246.583 125.503 247.121 125.524C247.386 125.546 247.652 125.515 247.905 125.431C248.157 125.348 248.39 125.216 248.591 125.041C248.791 124.866 248.954 124.653 249.07 124.414C249.186 124.175 249.253 123.916 249.267 123.651C249.268 123.114 249.061 122.597 248.689 122.209C248.318 121.821 247.81 121.592 247.274 121.569C247.009 121.548 246.742 121.58 246.49 121.663C246.237 121.747 246.004 121.88 245.803 122.054C245.603 122.228 245.439 122.441 245.322 122.68C245.204 122.918 245.136 123.177 245.12 123.442Z" fill="#263238"/>
<path d="M243.828 118.966C244.05 119.16 245.689 118.966 247.864 119.473C250.038 119.979 251.525 120.972 251.782 120.861C251.914 120.861 251.698 120.514 251.052 120.076C250.098 119.471 249.048 119.03 247.947 118.772C246.889 118.496 245.789 118.419 244.703 118.543C243.988 118.674 243.717 118.869 243.828 118.966Z" fill="#263238"/>
<path d="M265.96 124.066C265.96 124.606 266.169 125.124 266.543 125.512C266.918 125.901 267.428 126.129 267.968 126.148C268.232 126.169 268.498 126.137 268.751 126.053C269.003 125.97 269.235 125.837 269.435 125.663C269.635 125.488 269.798 125.275 269.915 125.037C270.031 124.799 270.099 124.539 270.114 124.275C270.115 123.737 269.906 123.219 269.533 122.831C269.16 122.443 268.652 122.214 268.113 122.193C267.848 122.172 267.582 122.204 267.329 122.287C267.077 122.371 266.844 122.504 266.643 122.678C266.443 122.853 266.279 123.065 266.162 123.304C266.044 123.542 265.976 123.801 265.96 124.066Z" fill="#263238"/>
<path d="M265.877 120.708C266.203 120.784 267.641 119.687 269.989 119.063C272.337 118.438 274.275 118.612 274.477 118.369C274.581 118.265 274.213 118.063 273.365 117.966C272.136 117.865 270.898 117.985 269.711 118.32C268.554 118.607 267.464 119.116 266.502 119.819C265.877 120.326 265.724 120.673 265.877 120.708Z" fill="#263238"/>
<path d="M257.658 135.441C257.658 135.316 256.269 135.073 254.018 134.782C253.449 134.719 252.907 134.608 252.81 134.213C252.765 133.624 252.901 133.036 253.199 132.526C253.741 131.138 254.303 129.695 254.901 128.175C257.263 121.991 258.971 116.904 258.721 116.807C258.471 116.71 256.352 121.665 253.991 127.842L252.365 132.214C252 132.901 251.892 133.696 252.059 134.455C252.138 134.663 252.264 134.85 252.426 135.002C252.589 135.153 252.784 135.266 252.997 135.33C253.314 135.416 253.641 135.46 253.97 135.462C256.241 135.559 257.645 135.573 257.658 135.441Z" fill="#263238"/>
<path d="M256.054 160.362C263.692 160.497 271.217 158.51 277.79 154.623C277.79 154.623 272.309 166.046 256.054 164.478V160.362Z" fill="#D1967C"/>
<path d="M258.013 140.882C259.125 139.223 260.792 138.106 262.32 138.044C262.831 137.995 263.345 138.102 263.795 138.349C264.245 138.597 264.61 138.974 264.842 139.432C265.085 140.035 265.179 140.688 265.116 141.336C265.053 141.983 264.835 142.606 264.48 143.151C264.137 143.726 263.633 144.187 263.031 144.478C262.429 144.769 261.754 144.877 261.091 144.789C260.004 144.47 259.036 143.834 258.312 142.964C258.062 142.746 257.867 142.473 257.742 142.166C257.684 141.969 257.669 141.762 257.701 141.559C257.732 141.357 257.808 141.163 257.923 140.993" fill="#D1967C"/>
<path d="M264.244 137.003C263.876 137.003 263.869 139.411 261.785 141.167C259.701 142.923 257.117 142.611 257.096 142.951C257.061 143.103 257.673 143.423 258.763 143.457C260.187 143.476 261.573 142.997 262.681 142.104C263.744 141.239 264.426 139.994 264.585 138.634C264.668 137.593 264.411 136.989 264.244 137.003Z" fill="#263238"/>
<path d="M264.057 110.929C264.334 111.512 266.53 111.005 269.176 111.061C271.823 111.116 274.004 111.623 274.303 111.061C274.428 110.783 274.004 110.249 273.094 109.749C271.887 109.142 270.556 108.818 269.205 108.801C267.853 108.785 266.516 109.075 265.293 109.652C264.369 110.124 263.932 110.644 264.057 110.929Z" fill="#263238"/>
<path d="M243.133 114.038C243.627 114.545 245.544 114.038 247.843 113.983C250.142 113.927 252.101 114.316 252.553 113.789C252.747 113.525 252.435 113.018 251.587 112.539C250.401 111.94 249.081 111.655 247.753 111.714C246.434 111.722 245.141 112.077 244.002 112.741C243.196 113.268 242.925 113.816 243.133 114.038Z" fill="#263238"/>
<path d="M316.428 172.008C312.892 166.297 310.002 152.063 308.786 144.852C307.571 137.641 303.729 114.503 297.574 102.344C291.42 90.1856 284.174 85.272 277.068 83.3566C274.372 82.5556 271.515 82.4617 268.773 83.0841C266.03 83.7064 263.495 85.024 261.41 86.9099C258.201 89.7761 257.103 98.1319 257.103 98.1319C257.103 98.1319 274.254 101.942 280.027 111.713C286.661 122.935 288.273 128.578 288.273 128.578L290.419 134.72C290.419 134.72 288.405 146.601 287.641 152.479C286.876 158.357 288.078 163.805 292.92 166.186L302.645 173.063C302.645 173.063 315.372 181.703 315.955 182.147C318.671 184.229 323.999 192.12 323.999 192.12C323.999 192.12 323.659 183.688 316.428 172.008Z" fill="#263238"/>
<path d="M256.61 98.2356C256.61 98.2356 246.801 97.1599 243.175 108.264C241.542 113.268 240.285 127.696 240.285 127.696C240.285 127.696 238.854 116.217 239.382 109.652C239.91 103.087 243.182 94.8142 248.211 90.2199C253.074 85.7575 257.242 83.6616 265.96 84.196C265.96 84.196 261.889 85.584 259.652 88.9082C258.534 90.5946 258.048 92.0035 256.61 98.2356Z" fill="#263238"/>
<path d="M288.147 129.431C288.321 125.843 292.232 123.455 295.344 125.267C297.053 126.259 298.366 128.244 298.206 132.047C297.789 142.207 287.668 139.681 287.661 139.397C287.661 139.195 287.932 133.636 288.147 129.431Z" fill="#EFBDA8"/>
<path d="M290.926 135.656C290.975 135.656 291.1 135.788 291.392 135.941C291.805 136.137 292.279 136.165 292.712 136.017C293.802 135.67 294.796 134.004 294.907 132.179C294.967 131.309 294.832 130.436 294.511 129.625C294.426 129.309 294.266 129.018 294.045 128.776C293.824 128.535 293.547 128.35 293.24 128.237C293.037 128.174 292.82 128.184 292.624 128.265C292.428 128.347 292.268 128.494 292.17 128.681C292.024 128.959 292.08 129.16 292.024 129.181C291.968 129.202 291.816 129.001 291.913 128.584C291.979 128.334 292.129 128.114 292.337 127.96C292.629 127.765 292.983 127.688 293.33 127.745C293.743 127.846 294.124 128.051 294.437 128.34C294.749 128.629 294.982 128.992 295.115 129.396C295.511 130.292 295.681 131.272 295.608 132.249C295.463 134.296 294.337 136.17 292.83 136.531C292.554 136.599 292.267 136.605 291.989 136.547C291.712 136.489 291.45 136.37 291.225 136.197C290.933 135.906 290.892 135.677 290.926 135.656Z" fill="#D1967C"/>
<path d="M273.004 82.718C273.004 82.7944 271.615 82.718 269.399 83.0442C268.112 83.2189 266.86 83.5935 265.689 84.1546C264.273 84.87 263.008 85.8527 261.966 87.0486C260.03 89.2129 258.62 91.7945 257.846 94.5924C257.256 96.7438 257.186 98.1387 257.11 98.1317C257.091 97.8052 257.103 97.4776 257.145 97.1532C257.232 96.2691 257.383 95.3924 257.596 94.5299C258.314 91.6629 259.721 89.0141 261.695 86.8126C263.626 84.5367 266.365 83.0966 269.336 82.7944C270.222 82.6958 271.113 82.6517 272.004 82.6625C272.338 82.647 272.673 82.6656 273.004 82.718Z" fill="#455A64"/>
<path d="M297.553 136.773C297.544 136.718 297.544 136.662 297.553 136.607L297.637 136.135C297.678 135.92 297.734 135.663 297.789 135.365C297.845 135.066 297.887 134.671 297.942 134.31C298.233 132.054 298.203 129.769 297.852 127.522C297.342 124.192 296.145 121.004 294.337 118.16C292.031 114.734 288.979 111.873 285.41 109.791C283.583 108.682 281.688 107.689 279.735 106.82C277.852 105.953 275.963 105.28 274.178 104.488C271.116 103.057 268.169 101.394 265.362 99.5125C262.952 97.9163 261.076 96.5144 259.805 95.522C259.173 95.0223 258.68 94.6337 258.36 94.3561L257.992 94.0438C257.909 93.9674 257.867 93.9327 257.874 93.9258L258.013 94.016L258.402 94.3005L259.895 95.4109C261.194 96.3687 263.091 97.7358 265.508 99.2973C268.335 101.135 271.296 102.759 274.365 104.155C276.095 104.933 277.998 105.606 279.923 106.466C281.889 107.34 283.799 108.337 285.64 109.451C289.259 111.56 292.347 114.468 294.67 117.952C296.489 120.84 297.673 124.081 298.144 127.46C298.482 129.726 298.482 132.03 298.144 134.296L297.956 135.358C297.887 135.649 297.824 135.906 297.775 136.121L297.65 136.593C297.581 136.718 297.56 136.78 297.553 136.773Z" fill="#455A64"/>
<path d="M299.909 132.943C299.904 132.887 299.904 132.832 299.909 132.776C299.909 132.644 299.909 132.485 299.909 132.29C299.909 131.86 299.957 131.236 299.909 130.424C299.854 124.74 298.552 119.137 296.095 114.01C294.297 110.275 291.899 106.859 288.995 103.899C286.036 100.991 282.689 98.506 279.048 96.5147C275.727 94.6131 272.594 93.1488 270.017 91.8788C267.44 90.6087 265.3 89.5816 263.862 88.8182C263.168 88.4504 262.598 88.1242 262.223 87.9299L261.799 87.687C261.749 87.6609 261.702 87.6282 261.66 87.5898C261.66 87.5898 261.716 87.5898 261.82 87.6523L262.258 87.8605L263.925 88.6933C265.377 89.3873 267.502 90.4214 270.128 91.6428C272.754 92.8642 275.894 94.3355 279.242 96.2232C282.919 98.2148 286.298 100.712 289.28 103.642C292.208 106.635 294.623 110.089 296.428 113.865C297.878 116.955 298.92 120.221 299.526 123.581C299.926 125.841 300.11 128.135 300.075 130.43C300.075 131.242 299.999 131.874 299.978 132.297C299.978 132.492 299.943 132.651 299.936 132.783C299.934 132.837 299.925 132.891 299.909 132.943Z" fill="#455A64"/>
<path d="M299.61 170.898C299.546 170.803 299.495 170.7 299.457 170.592L299.075 169.69C298.908 169.295 298.714 168.809 298.533 168.233C298.352 167.657 298.109 167.004 297.929 166.262C297.831 165.887 297.727 165.505 297.623 165.103C297.519 164.7 297.442 164.27 297.345 163.833C297.137 162.951 297.012 162.001 296.845 161.008C296.561 158.835 296.397 156.648 296.352 154.457C296.319 150.481 296.516 146.507 296.942 142.555C297.102 141.042 297.241 139.82 297.352 138.974C297.408 138.585 297.449 138.28 297.484 138.002C297.496 137.887 297.519 137.773 297.554 137.662C297.569 137.777 297.569 137.894 297.554 138.009L297.484 138.988C297.408 139.89 297.31 141.07 297.192 142.583C296.956 145.615 296.63 149.814 296.706 154.45C296.749 156.626 296.904 158.799 297.171 160.96C297.324 161.952 297.442 162.903 297.63 163.736C297.72 164.173 297.79 164.596 297.887 165.006L298.172 166.158C298.332 166.9 298.554 167.546 298.721 168.136C298.887 168.726 299.054 169.204 299.2 169.607C299.346 170.009 299.429 170.301 299.519 170.53C299.572 170.646 299.602 170.771 299.61 170.898Z" fill="#455A64"/>
<path d="M171.013 264.123C171.013 264.123 182.058 278.281 186.017 279.391C189.977 280.501 204.975 284.214 204.975 284.214L254.192 295.575L248.399 274.498L201.786 273.867L171.013 264.123Z" fill="#EFBDA8"/>
<path d="M107.729 192.03C111.417 201.17 130.007 242.984 134.314 252.665C134.594 253.295 135.005 253.859 135.52 254.319C136.035 254.778 136.642 255.123 137.301 255.33L195.806 273.887L253.852 278.218V276.309L206.927 262.103L192.103 260.368L169.971 205.542C169.472 204.306 168.669 203.217 167.635 202.375C166.601 201.532 165.371 200.965 164.059 200.726L108.889 190.621C108.706 190.589 108.518 190.606 108.344 190.671C108.169 190.735 108.016 190.844 107.898 190.988C107.78 191.131 107.702 191.303 107.672 191.486C107.642 191.669 107.662 191.857 107.729 192.03Z" fill="#455A64"/>
<path d="M253.852 276.309H253.664L253.129 276.268L251.045 276.08L243.439 275.317L232.164 274.13L218.347 272.742C213.443 272.257 208.768 271.889 204.51 271.646L198.459 271.271C197.992 271.242 197.528 271.182 197.07 271.091C196.829 271.047 196.596 270.973 196.375 270.869C196.151 270.759 195.966 270.582 195.847 270.362C195.483 269.589 195.163 268.797 194.888 267.988C193.756 264.997 192.804 262.561 192.186 260.847C191.88 260.021 191.644 259.369 191.491 258.897L191.311 258.383C191.288 258.328 191.272 258.269 191.262 258.21C191.262 258.21 191.262 258.259 191.346 258.377L191.554 258.869C191.748 259.334 192.006 259.98 192.339 260.799L195.152 267.905C195.427 268.692 195.744 269.464 196.104 270.216C196.199 270.39 196.344 270.53 196.521 270.619C196.717 270.704 196.922 270.767 197.132 270.806C197.591 270.893 198.055 270.946 198.521 270.966C200.411 271.056 202.446 271.195 204.572 271.32C208.837 271.542 213.526 271.896 218.431 272.381L232.248 273.769L243.522 275.026L251.122 275.9L253.206 276.157L253.741 276.226L253.852 276.309Z" fill="#263238"/>
<path d="M223.856 265.109C223.856 265.109 224.697 259.598 223.856 258.509C223.016 257.419 217.104 252.11 217.104 252.11L213.749 248.959L206.35 247.828C205.913 247.761 205.466 247.824 205.065 248.009C204.663 248.194 204.325 248.493 204.093 248.869L203.336 250.083L201.328 249.75L199.557 247.189H194.625L190.978 251.124V256.44C190.978 256.44 191.471 257.919 192.756 256.836C194.041 255.753 194.145 252.755 194.145 252.755L196.333 254.768L194.006 261.861C194.006 261.861 195.639 263.346 196.827 261.861C198.015 260.375 199.682 258.217 199.682 258.217C199.682 258.217 201.655 263.533 205.003 265.109C208.351 266.684 216.437 268.12 218.118 267.746C219.799 267.371 223.537 268.058 223.856 265.109Z" fill="#EFBDA8"/>
<path d="M212.151 253.019C212.151 253.019 212.151 253.102 212.019 253.22C211.857 253.388 211.657 253.514 211.436 253.588C211.09 253.707 210.724 253.759 210.359 253.741C209.935 253.741 209.47 253.637 208.969 253.588C208.438 253.496 207.891 253.581 207.413 253.831C206.92 254.233 206.483 254.7 206.114 255.219C205.63 255.819 205.031 256.317 204.352 256.685C203.674 257.053 202.93 257.284 202.162 257.363C201.526 257.411 200.89 257.294 200.312 257.026C199.734 256.757 199.235 256.346 198.862 255.83L198.786 255.719L198.883 255.621C200.18 254.257 201.375 252.801 202.46 251.263C203.259 250.118 203.69 249.417 203.732 249.438C203.672 249.627 203.585 249.807 203.475 249.972C203.294 250.305 203.016 250.791 202.634 251.36C201.612 252.952 200.449 254.45 199.161 255.837V255.621C199.503 256.088 199.957 256.459 200.482 256.702C201.007 256.945 201.585 257.051 202.162 257.009C203.615 256.851 204.949 256.131 205.878 255.004C206.274 254.466 206.741 253.985 207.268 253.574C207.807 253.299 208.424 253.214 209.018 253.331C209.539 253.401 209.998 253.512 210.407 253.539C210.75 253.569 211.095 253.541 211.429 253.456C211.697 253.361 211.943 253.212 212.151 253.019Z" fill="#D1967C"/>
<path d="M217.959 264.817C217.917 264.817 217.875 264.505 217.653 263.984C217.33 263.251 216.899 262.571 216.375 261.965C215.736 261.173 214.854 260.313 214.055 259.189C213.629 258.592 213.318 257.921 213.138 257.211C212.951 256.438 212.963 255.631 213.172 254.865C213.379 254.105 213.741 253.396 214.235 252.783C214.47 252.47 214.774 252.215 215.124 252.04C215.307 251.958 215.505 251.918 215.705 251.924C215.905 251.93 216.101 251.982 216.278 252.075C216.864 252.439 217.285 253.016 217.452 253.685C217.626 254.216 217.859 254.726 218.146 255.205C218.553 255.892 219.086 256.497 219.716 256.989C220.161 257.343 220.446 257.495 220.411 257.523C220.124 257.428 219.854 257.287 219.612 257.107C218.929 256.638 218.347 256.036 217.903 255.337C217.613 254.849 217.38 254.33 217.208 253.789C217.049 253.212 216.677 252.716 216.166 252.401C216.031 252.335 215.883 252.3 215.732 252.3C215.582 252.3 215.433 252.335 215.298 252.401C215 252.557 214.743 252.78 214.548 253.054C214.089 253.635 213.754 254.303 213.561 255.018C213.362 255.728 213.345 256.478 213.513 257.197C213.684 257.865 213.974 258.497 214.367 259.064C215.124 260.167 215.986 261.049 216.611 261.874C217.13 262.512 217.539 263.232 217.82 264.005C217.893 264.216 217.945 264.435 217.973 264.657C217.977 264.764 217.973 264.817 217.959 264.817Z" fill="#D1967C"/>
<path d="M199.161 251.228C198.761 251.232 198.379 251.388 198.091 251.665C197.475 252.437 197.025 253.328 196.771 254.282C196.368 255.392 196.021 256.405 195.736 257.127C195.614 257.533 195.424 257.916 195.173 258.258C195.231 257.842 195.338 257.434 195.493 257.044C195.715 256.301 196.028 255.274 196.431 254.157C196.7 253.155 197.213 252.234 197.924 251.478C198.171 251.257 198.489 251.131 198.82 251.124C199.057 251.096 199.168 251.173 199.161 251.228Z" fill="#D1967C"/>
<path d="M199.689 251.103C199.689 251.145 199.383 251.207 198.876 251.145C198.193 251.048 197.55 250.762 197.021 250.319H197.285L196.834 250.715C196.014 251.487 195.115 252.17 194.152 252.755C194.881 251.896 195.701 251.119 196.598 250.437L197.056 250.048L197.174 249.951L197.285 250.048C197.77 250.461 198.342 250.758 198.959 250.916C199.207 250.958 199.451 251.021 199.689 251.103Z" fill="#D1967C"/>
<path d="M207.518 263.796C207.624 263.352 207.802 262.927 208.046 262.54C208.565 261.574 209.195 260.67 209.921 259.847C210.647 259.021 211.462 258.279 212.352 257.633C212.705 257.339 213.104 257.104 213.533 256.939C212.365 257.923 211.25 258.968 210.192 260.069C209.232 261.261 208.339 262.505 207.518 263.796Z" fill="#D1967C"/>
<path d="M165.81 201.601C165.851 201.655 165.881 201.716 165.9 201.781L166.137 202.322L166.998 204.404L170.096 212.108C172.694 218.645 176.258 227.639 180.204 237.571C184.149 247.502 187.643 256.531 190.207 263.075C191.464 266.33 192.485 268.967 193.208 270.82L194 272.902C194.083 273.131 194.146 273.312 194.201 273.457C194.227 273.52 194.246 273.585 194.257 273.652C194.221 273.594 194.191 273.534 194.166 273.471C194.106 273.332 194.03 273.152 193.937 272.93C193.729 272.43 193.437 271.729 193.076 270.848L189.971 263.145C187.379 256.607 183.809 247.613 179.863 237.675C175.917 227.737 172.43 218.722 169.86 212.177L166.866 204.432C166.526 203.53 166.262 202.822 166.067 202.315L165.866 201.767C165.844 201.713 165.826 201.657 165.81 201.601Z" fill="#263238"/>
<path d="M153.277 233.116C154.772 232.036 154.789 229.508 153.314 227.471C151.84 225.433 149.432 224.657 147.937 225.737C146.441 226.818 146.424 229.345 147.899 231.383C149.374 233.42 151.782 234.196 153.277 233.116Z" fill="white"/>
<path d="M484.308 328.026C484.308 328.123 384.081 328.207 260.472 328.207C136.863 328.207 36.6157 328.123 36.6157 328.026C36.6157 327.929 136.849 327.846 260.5 327.846C384.151 327.846 484.308 327.922 484.308 328.026Z" fill="#263238"/>
<path d="M199.474 86.1182H62.8606C59.8412 86.1182 57.3936 88.5635 57.3936 91.58V172.015C57.3936 175.031 59.8412 177.476 62.8606 177.476H199.474C202.493 177.476 204.941 175.031 204.941 172.015V91.58C204.941 88.5635 202.493 86.1182 199.474 86.1182Z" fill="#263238"/>
<path d="M131.167 144.268C137.374 144.268 142.407 139.241 142.407 133.039C142.407 126.838 137.374 121.811 131.167 121.811C124.959 121.811 119.927 126.838 119.927 133.039C119.927 139.241 124.959 144.268 131.167 144.268Z" fill="#46B2C8"/>
<path d="M128.458 136.323V129.695C128.458 129.621 128.478 129.549 128.514 129.484C128.551 129.42 128.604 129.367 128.668 129.33C128.732 129.293 128.805 129.273 128.879 129.272C128.953 129.272 129.026 129.291 129.09 129.327L135.016 132.665C135.081 132.702 135.135 132.756 135.172 132.82C135.21 132.885 135.23 132.958 135.23 133.033C135.23 133.108 135.21 133.181 135.172 133.246C135.135 133.31 135.081 133.364 135.016 133.401L129.09 136.718C129.024 136.756 128.948 136.775 128.872 136.773C128.795 136.772 128.721 136.75 128.656 136.709C128.591 136.668 128.538 136.611 128.504 136.543C128.469 136.475 128.453 136.399 128.458 136.323Z" fill="white"/>
<path d="M65.8267 166.977V167.254H64.7152V167.067L65.3196 166.498C65.3694 166.462 65.4103 166.415 65.4392 166.361C65.4681 166.307 65.4842 166.247 65.4863 166.185C65.4863 166.047 65.396 165.97 65.2085 165.97C65.1417 165.967 65.075 165.979 65.0136 166.006C64.9521 166.032 64.8976 166.072 64.8542 166.123L64.6597 165.977C64.7286 165.894 64.816 165.828 64.9149 165.785C65.0138 165.742 65.1214 165.722 65.2293 165.727C65.5627 165.727 65.7711 165.887 65.7711 166.158C65.769 166.25 65.7453 166.341 65.7019 166.423C65.6585 166.505 65.5966 166.576 65.5211 166.63L65.1181 167.011L65.8267 166.977Z" fill="white"/>
<path d="M65.9933 166.234C65.9924 166.211 65.9962 166.187 66.0045 166.166C66.0128 166.144 66.0254 166.124 66.0416 166.107C66.0579 166.09 66.0773 166.077 66.0989 166.068C66.1204 166.058 66.1436 166.054 66.167 166.054C66.2149 166.054 66.2608 166.073 66.2947 166.107C66.3286 166.14 66.3476 166.186 66.3476 166.234C66.3476 166.282 66.3286 166.328 66.2947 166.362C66.2608 166.396 66.2149 166.415 66.167 166.415C66.1436 166.415 66.1204 166.41 66.0989 166.401C66.0773 166.392 66.0579 166.378 66.0416 166.361C66.0254 166.344 66.0128 166.325 66.0045 166.303C65.9962 166.281 65.9924 166.258 65.9933 166.234ZM65.9933 167.053C65.9924 167.03 65.9962 167.006 66.0045 166.985C66.0128 166.963 66.0254 166.943 66.0416 166.926C66.0579 166.909 66.0773 166.896 66.0989 166.886C66.1204 166.877 66.1436 166.873 66.167 166.873C66.2149 166.873 66.2608 166.892 66.2947 166.925C66.3286 166.959 66.3476 167.005 66.3476 167.053C66.3476 167.101 66.3286 167.147 66.2947 167.181C66.2608 167.214 66.2149 167.234 66.167 167.234C66.1436 167.234 66.1204 167.229 66.0989 167.22C66.0773 167.211 66.0579 167.197 66.0416 167.18C66.0254 167.163 66.0128 167.143 66.0045 167.122C65.9962 167.1 65.9924 167.076 65.9933 167.053Z" fill="white"/>
<path d="M67.0354 165.713V167.254H66.7506V165.984H66.438V165.748L67.0354 165.713Z" fill="white"/>
<path d="M68.675 166.872H68.4111V167.219H68.1401V166.872H67.3135V166.678L68.0776 165.713H68.3763L67.6816 166.636H68.1749V166.337H68.4388V166.636H68.7028L68.675 166.872Z" fill="white"/>
<path d="M185.407 166.275H71.1343V166.796H185.407V166.275Z" fill="white"/>
<path d="M106.764 165.713H71.0508V167.101H106.764V165.713Z" fill="#46B2C8"/>
<path d="M107.91 166.56C107.91 166.903 107.808 167.239 107.617 167.524C107.426 167.809 107.155 168.032 106.838 168.163C106.52 168.294 106.171 168.329 105.834 168.262C105.498 168.195 105.188 168.03 104.945 167.787C104.702 167.544 104.537 167.235 104.47 166.899C104.403 166.562 104.437 166.213 104.569 165.896C104.7 165.579 104.923 165.308 105.208 165.118C105.494 164.927 105.83 164.825 106.173 164.825C106.634 164.825 107.076 165.008 107.401 165.333C107.727 165.659 107.91 166.1 107.91 166.56Z" fill="#46B2C8"/>
<path d="M188.255 166.518C188.253 166.587 188.238 166.655 188.209 166.717C188.18 166.779 188.138 166.835 188.087 166.881C188.035 166.926 187.975 166.961 187.909 166.982C187.844 167.003 187.775 167.011 187.706 167.004C187.296 167.004 187.053 166.74 187.053 166.255C187.037 166.151 187.045 166.045 187.075 165.945C187.106 165.844 187.159 165.752 187.231 165.675C187.303 165.599 187.391 165.539 187.489 165.501C187.586 165.463 187.692 165.448 187.796 165.456C187.933 165.453 188.067 165.487 188.185 165.554L188.088 165.762C187.999 165.713 187.898 165.689 187.796 165.692C187.519 165.692 187.338 165.866 187.338 166.206C187.39 166.152 187.452 166.11 187.522 166.082C187.592 166.055 187.666 166.042 187.741 166.046C187.807 166.039 187.873 166.047 187.936 166.067C187.998 166.088 188.056 166.122 188.105 166.166C188.153 166.211 188.192 166.265 188.218 166.326C188.244 166.387 188.256 166.452 188.255 166.518ZM187.984 166.518C187.984 166.359 187.866 166.261 187.685 166.261C187.648 166.258 187.611 166.261 187.575 166.272C187.54 166.283 187.507 166.301 187.478 166.325C187.449 166.349 187.426 166.379 187.409 166.412C187.392 166.445 187.382 166.481 187.38 166.518C187.38 166.657 187.491 166.768 187.692 166.768C187.727 166.777 187.763 166.779 187.799 166.773C187.834 166.768 187.868 166.755 187.898 166.735C187.928 166.715 187.954 166.69 187.974 166.659C187.993 166.629 188.006 166.595 188.012 166.56L187.984 166.518Z" fill="white"/>
<path d="M188.422 165.998C188.421 165.975 188.424 165.952 188.433 165.93C188.441 165.909 188.454 165.889 188.47 165.873C188.487 165.857 188.506 165.844 188.528 165.836C188.549 165.827 188.572 165.823 188.595 165.824C188.619 165.823 188.642 165.827 188.664 165.836C188.686 165.844 188.706 165.856 188.723 165.873C188.739 165.889 188.753 165.908 188.762 165.93C188.771 165.951 188.776 165.974 188.776 165.998C188.776 166.046 188.757 166.092 188.723 166.125C188.689 166.159 188.643 166.178 188.595 166.178C188.572 166.178 188.549 166.174 188.527 166.164C188.506 166.155 188.486 166.142 188.47 166.125C188.454 166.108 188.441 166.088 188.433 166.066C188.424 166.045 188.421 166.021 188.422 165.998ZM188.422 166.817C188.421 166.794 188.424 166.771 188.433 166.749C188.441 166.728 188.454 166.708 188.47 166.692C188.487 166.676 188.506 166.663 188.528 166.654C188.549 166.646 188.572 166.642 188.595 166.643C188.619 166.642 188.642 166.646 188.664 166.654C188.686 166.663 188.706 166.675 188.723 166.692C188.739 166.708 188.753 166.727 188.762 166.749C188.771 166.77 188.776 166.793 188.776 166.817C188.776 166.865 188.757 166.911 188.723 166.944C188.689 166.978 188.643 166.997 188.595 166.997C188.572 166.997 188.549 166.993 188.527 166.983C188.506 166.974 188.486 166.961 188.47 166.944C188.454 166.927 188.441 166.907 188.433 166.885C188.424 166.863 188.421 166.84 188.422 166.817Z" fill="white"/>
<path d="M188.95 166.233C188.95 165.734 189.221 165.456 189.575 165.456C189.929 165.456 190.207 165.734 190.207 166.233C190.207 166.733 189.936 167.004 189.575 167.004C189.214 167.004 188.95 166.726 188.95 166.233ZM189.922 166.233C189.922 165.866 189.783 165.699 189.575 165.699C189.367 165.699 189.228 165.866 189.228 166.233C189.228 166.601 189.373 166.761 189.575 166.761C189.776 166.761 189.929 166.594 189.929 166.233H189.922Z" fill="white"/>
<path d="M190.401 166.233C190.401 165.734 190.672 165.456 191.027 165.456C191.381 165.456 191.659 165.734 191.659 166.233C191.659 166.733 191.388 167.004 191.027 167.004C190.665 167.004 190.401 166.726 190.401 166.233ZM191.381 166.233C191.381 165.866 191.235 165.699 191.027 165.699C190.818 165.699 190.679 165.866 190.679 166.233C190.679 166.601 190.825 166.761 191.027 166.761C191.228 166.761 191.381 166.594 191.381 166.233Z" fill="white"/>
<path d="M194.09 166.137H193.569V164.638H195.069V165.158H194.09V166.137Z" fill="white"/>
<path d="M195.069 168.094H193.569V166.602H194.09V167.573H195.069V168.094Z" fill="white"/>
<path d="M197.466 168.094H195.966V167.573H196.945V166.595H197.466V168.094Z" fill="white"/>
<path d="M197.466 166.137H196.945V165.158H195.966V164.638H197.466V166.137Z" fill="white"/>
<path d="M178.022 94.9944C178.285 94.9433 178.553 94.92 178.821 94.925C179.356 94.925 180.155 94.8695 181.127 94.8486H181.308V94.9944C181.308 96.1603 181.308 97.4928 181.343 98.9432V99.3805L181.03 99.0682L180.613 98.6517L179.557 97.5969H179.801L178.154 99.0543L177.883 99.2902V98.9363C177.883 97.7218 177.932 96.7086 177.96 96.0284C177.954 95.6796 177.982 95.331 178.043 94.9874C178.043 94.9874 178.085 95.4316 178.119 96.1256C178.154 96.8196 178.182 97.7912 178.196 98.9016L177.932 98.7836L179.557 97.2985L179.682 97.1874L179.801 97.3054L180.863 98.3603L181.273 98.7697L180.968 98.9016C180.968 97.4511 180.968 96.1256 180.968 94.9527L181.113 95.0985C180.203 95.0985 179.446 95.0499 178.898 95.0221C178.605 95.0333 178.313 95.0241 178.022 94.9944Z" fill="white"/>
<path d="M189.449 95.4874C189.209 95.822 188.952 96.1439 188.678 96.452C188.164 97.0766 187.4 98.0135 186.469 99.0545L186.171 99.3946V98.9435C186.171 98.3259 186.171 97.6666 186.171 96.9864V96.7921L186.226 96.924L184.837 95.5845L184.531 95.2861H184.955C186.344 95.2861 187.484 95.3625 188.262 95.4041C189.04 95.4458 189.484 95.4666 189.449 95.4805C189.415 95.4943 188.908 95.4804 188.102 95.5429C187.296 95.6054 186.219 95.6262 184.955 95.6262L185.073 95.3347L186.462 96.6533L186.518 96.7088V96.9795C186.518 97.6735 186.518 98.3189 186.518 98.9366L186.219 98.8186C187.095 97.8609 187.886 97.0628 188.47 96.4659C189.054 95.8691 189.415 95.5082 189.449 95.4874Z" fill="white"/>
<path d="M189.45 95.4873C189.492 95.5845 188.825 95.9454 187.963 96.3062C187.463 96.5787 186.912 96.7442 186.345 96.792C187.274 96.1387 188.333 95.6937 189.45 95.4873Z" fill="white"/>
<path d="M195.021 94.9947C195.203 94.9448 195.395 94.9448 195.577 94.9947C196.086 95.092 196.544 95.3676 196.869 95.772C197.115 96.0784 197.279 96.4426 197.344 96.8301C197.41 97.2176 197.375 97.6155 197.244 97.9858C197.083 98.4464 196.782 98.8455 196.384 99.1278C195.986 99.4102 195.509 99.5619 195.021 99.5619C194.532 99.5619 194.056 99.4102 193.658 99.1278C193.26 98.8455 192.959 98.4464 192.798 97.9858C192.667 97.6158 192.632 97.2186 192.696 96.8314C192.76 96.4442 192.922 96.0796 193.166 95.772C193.492 95.3633 193.952 95.0831 194.465 94.9808C194.647 94.9309 194.839 94.9309 195.021 94.9808C195.021 95.0155 194.826 95.0224 194.5 95.1196C194.046 95.2597 193.65 95.545 193.374 95.9316C193.151 96.2356 193.016 96.5955 192.985 96.9714C192.954 97.3473 193.028 97.7243 193.199 98.0608C193.369 98.3972 193.63 98.6799 193.952 98.8773C194.273 99.0748 194.643 99.1793 195.021 99.1793C195.398 99.1793 195.768 99.0748 196.09 98.8773C196.412 98.6799 196.672 98.3972 196.843 98.0608C197.013 97.7243 197.087 97.3473 197.056 96.9714C197.025 96.5955 196.891 96.2356 196.667 95.9316C196.391 95.545 195.996 95.2597 195.542 95.1196C195.201 95.0363 195.021 95.0294 195.021 94.9947Z" fill="white"/>
<path d="M195.771 98.1312C195.702 98.2006 195.222 97.8398 194.701 97.3262L194.653 97.2707V97.1596C194.653 96.424 194.729 95.8271 194.833 95.8271C194.938 95.8271 195.014 96.424 195.014 97.1596L194.958 97.0347C195.479 97.583 195.841 98.0618 195.771 98.1312Z" fill="white"/>
<path d="M141.58 97.9861C141.58 98.0902 126.416 98.1665 107.715 98.1665C89.0148 98.1665 73.8433 98.0902 73.8433 97.9861C73.8433 97.882 89.0078 97.8057 107.715 97.8057C126.423 97.8057 141.58 97.889 141.58 97.9861Z" fill="white"/>
<path d="M67.9733 100.657C69.4504 100.657 70.6478 99.461 70.6478 97.9854C70.6478 96.5097 69.4504 95.3135 67.9733 95.3135C66.4962 95.3135 65.2988 96.5097 65.2988 97.9854C65.2988 99.461 66.4962 100.657 67.9733 100.657Z" fill="white"/>
<path d="M421.462 43.0557H320.137C317.118 43.0557 314.67 45.501 314.67 48.5174V107.105C314.67 110.121 317.118 112.567 320.137 112.567H421.462C424.481 112.567 426.929 110.121 426.929 107.105V48.5174C426.929 45.501 424.481 43.0557 421.462 43.0557Z" fill="#F5F5F5"/>
<path d="M409.11 73.4595C406.429 71.8216 403.428 70.4267 400.281 70.5447C395.814 70.7112 392.091 73.8412 388.742 76.7907L373.112 90.6707C372.515 91.205 371.8 91.7741 371.028 91.6561C370.408 91.4879 369.866 91.1102 369.493 90.5874L355.649 75.25C352.78 72.0645 349.501 68.6709 345.229 68.2545C341.755 67.9213 338.463 69.6425 335.552 71.5579C327.219 77.0018 320.158 84.1765 314.851 92.593L314.684 107.098C315.601 110.228 318.401 112.566 321.367 112.566H420.273C421.949 112.551 423.559 111.917 424.793 110.785C426.028 109.653 426.798 108.105 426.956 106.438V92.7665C422.957 84.7726 416.769 78.0772 409.11 73.4595Z" fill="#455A64"/>
<path d="M321.082 104.579V104.794H320.241V104.648L320.693 104.218C320.804 104.114 320.825 104.051 320.825 103.982C320.825 103.912 320.755 103.822 320.617 103.822C320.565 103.819 320.514 103.827 320.467 103.848C320.419 103.869 320.378 103.9 320.346 103.94L320.2 103.822C320.251 103.759 320.317 103.709 320.392 103.676C320.467 103.644 320.549 103.63 320.63 103.635C320.88 103.635 321.04 103.76 321.04 103.961C321.038 104.031 321.02 104.1 320.987 104.163C320.955 104.225 320.909 104.28 320.853 104.322L320.547 104.613L321.082 104.579Z" fill="#263238"/>
<path d="M321.2 104.017C321.199 103.999 321.202 103.981 321.208 103.964C321.214 103.948 321.224 103.932 321.236 103.919C321.249 103.906 321.264 103.896 321.28 103.889C321.297 103.882 321.314 103.878 321.332 103.878C321.351 103.877 321.369 103.88 321.387 103.887C321.404 103.893 321.42 103.903 321.433 103.917C321.446 103.93 321.456 103.945 321.463 103.963C321.469 103.98 321.472 103.998 321.471 104.017C321.471 104.035 321.468 104.053 321.46 104.069C321.453 104.086 321.443 104.1 321.43 104.113C321.417 104.125 321.402 104.135 321.385 104.141C321.368 104.147 321.35 104.15 321.332 104.149C321.297 104.149 321.264 104.135 321.239 104.11C321.214 104.085 321.2 104.052 321.2 104.017ZM321.2 104.635C321.199 104.617 321.202 104.599 321.208 104.583C321.215 104.567 321.224 104.552 321.237 104.539C321.249 104.527 321.264 104.517 321.281 104.511C321.297 104.504 321.315 104.502 321.332 104.503C321.35 104.502 321.368 104.504 321.385 104.511C321.402 104.517 321.417 104.526 321.43 104.539C321.443 104.551 321.453 104.566 321.46 104.582C321.468 104.599 321.471 104.617 321.471 104.635C321.476 104.655 321.476 104.676 321.471 104.696C321.467 104.717 321.457 104.736 321.444 104.752C321.431 104.768 321.415 104.781 321.396 104.79C321.377 104.8 321.357 104.804 321.336 104.804C321.315 104.804 321.294 104.8 321.275 104.79C321.257 104.781 321.24 104.768 321.227 104.752C321.214 104.736 321.205 104.717 321.2 104.696C321.196 104.676 321.196 104.655 321.2 104.635Z" fill="#263238"/>
<path d="M321.999 103.614V104.794H321.791V103.829H321.547V103.649L321.999 103.614Z" fill="#263238"/>
<path d="M323.249 104.502H323.02V104.794H322.812V104.537H322.187V104.384L322.749 103.648H323.02L322.485 104.342H322.86V104.1H323.02V104.329H323.222L323.249 104.502Z" fill="#263238"/>
<path d="M412.069 103.982H325.125V104.503H412.069V103.982Z" fill="#263238"/>
<path d="M352.224 103.447H325.056V104.835H352.224V103.447Z" fill="#FF993C"/>
<path d="M353.106 104.239C353.108 104.501 353.031 104.758 352.886 104.977C352.741 105.196 352.534 105.367 352.292 105.468C352.05 105.569 351.783 105.597 351.525 105.546C351.267 105.496 351.03 105.37 350.844 105.185C350.657 105 350.53 104.764 350.479 104.507C350.427 104.249 350.453 103.982 350.553 103.74C350.653 103.497 350.823 103.29 351.042 103.144C351.26 102.998 351.517 102.92 351.779 102.92C352.13 102.92 352.467 103.059 352.715 103.306C352.964 103.553 353.104 103.888 353.106 104.239Z" fill="#FF993C"/>
<path d="M414.251 104.225C414.25 104.277 414.238 104.329 414.216 104.377C414.195 104.425 414.163 104.468 414.124 104.503C414.085 104.538 414.039 104.565 413.989 104.581C413.939 104.598 413.886 104.604 413.834 104.599C413.521 104.599 413.341 104.398 413.341 104.03C413.332 103.953 413.339 103.875 413.363 103.8C413.387 103.726 413.427 103.658 413.48 103.601C413.533 103.544 413.597 103.499 413.669 103.468C413.741 103.438 413.818 103.424 413.896 103.426C414.003 103.421 414.108 103.445 414.202 103.496L414.119 103.655C414.055 103.614 413.979 103.595 413.903 103.6C413.688 103.6 413.556 103.732 413.556 103.996C413.595 103.954 413.642 103.922 413.695 103.901C413.748 103.881 413.805 103.873 413.862 103.878C413.91 103.873 413.96 103.878 414.006 103.893C414.053 103.908 414.096 103.933 414.132 103.966C414.169 103.998 414.198 104.038 414.219 104.083C414.239 104.127 414.25 104.176 414.251 104.225ZM414.049 104.225C414.049 104.107 413.959 104.03 413.82 104.03C413.791 104.026 413.762 104.028 413.735 104.036C413.707 104.044 413.681 104.058 413.659 104.076C413.637 104.094 413.619 104.117 413.606 104.142C413.593 104.168 413.585 104.196 413.584 104.225C413.584 104.336 413.674 104.419 413.82 104.419C413.87 104.419 413.918 104.401 413.955 104.367C413.993 104.334 414.016 104.288 414.021 104.238L414.049 104.225Z" fill="#263238"/>
<path d="M414.355 103.836C414.354 103.818 414.357 103.799 414.363 103.782C414.37 103.765 414.38 103.749 414.393 103.736C414.406 103.723 414.422 103.713 414.439 103.706C414.457 103.699 414.475 103.696 414.494 103.697C414.512 103.697 414.529 103.701 414.546 103.708C414.562 103.715 414.577 103.726 414.589 103.739C414.602 103.751 414.611 103.767 414.618 103.784C414.624 103.8 414.627 103.818 414.626 103.836C414.626 103.871 414.612 103.905 414.587 103.929C414.562 103.954 414.529 103.968 414.494 103.968C414.476 103.969 414.458 103.966 414.441 103.96C414.424 103.954 414.409 103.944 414.396 103.932C414.383 103.92 414.372 103.905 414.365 103.888C414.358 103.872 414.355 103.854 414.355 103.836ZM414.355 104.461C414.354 104.442 414.357 104.424 414.363 104.407C414.37 104.389 414.38 104.374 414.393 104.36C414.406 104.347 414.422 104.337 414.439 104.331C414.457 104.324 414.475 104.321 414.494 104.322C414.512 104.322 414.529 104.326 414.546 104.333C414.562 104.34 414.577 104.35 414.589 104.363C414.602 104.376 414.611 104.391 414.618 104.408C414.624 104.425 414.627 104.443 414.626 104.461C414.626 104.496 414.612 104.529 414.587 104.554C414.562 104.579 414.529 104.593 414.494 104.593C414.476 104.594 414.458 104.591 414.441 104.585C414.424 104.579 414.409 104.569 414.396 104.557C414.383 104.544 414.372 104.529 414.365 104.513C414.358 104.497 414.355 104.479 414.355 104.461Z" fill="#263238"/>
<path d="M414.765 104.01C414.765 103.635 414.966 103.427 415.237 103.427C415.508 103.427 415.716 103.635 415.716 104.01C415.716 104.384 415.515 104.6 415.237 104.6C414.959 104.6 414.765 104.384 414.765 104.01ZM415.508 104.01C415.508 103.732 415.397 103.607 415.237 103.607C415.077 103.607 414.98 103.732 414.98 104.01C414.98 104.287 415.084 104.412 415.237 104.412C415.39 104.412 415.508 104.287 415.508 104.01Z" fill="#263238"/>
<path d="M415.862 104.01C415.862 103.635 416.071 103.427 416.342 103.427C416.613 103.427 416.821 103.635 416.821 104.01C416.821 104.384 416.613 104.6 416.342 104.6C416.071 104.6 415.862 104.384 415.862 104.01ZM416.606 104.01C416.606 103.732 416.501 103.607 416.342 103.607C416.182 103.607 416.078 103.732 416.078 104.01C416.078 104.287 416.189 104.412 416.342 104.412C416.494 104.412 416.606 104.287 416.606 104.01Z" fill="#263238"/>
<path d="M418.738 103.94H418.217V102.732H419.419V103.253H418.738V103.94Z" fill="#263238"/>
<path d="M419.419 105.488H418.217V104.287H418.738V104.967H419.419V105.488Z" fill="#263238"/>
<path d="M421.301 105.488H420.1V104.967H420.78V104.287H421.301V105.488Z" fill="#263238"/>
<path d="M421.301 103.933H420.78V103.253H420.1V102.732H421.301V103.933Z" fill="#263238"/>
<path d="M406.443 49.8088C407.228 49.7077 408.019 49.6613 408.811 49.67H408.95V49.8227C408.95 50.6693 408.95 51.7034 408.95 52.8207V53.2579L408.638 52.9457L408.325 52.6333L407.526 51.8283H407.769L406.512 52.9318L406.241 53.1677V52.8138C406.229 51.8099 406.28 50.8062 406.394 49.8088C406.504 50.8066 406.558 51.8099 406.554 52.8138L406.29 52.6958L407.526 51.5646L407.651 51.4535L407.769 51.5715L408.575 52.3696L408.888 52.6889L408.582 52.8138C408.582 51.6964 408.582 50.6624 408.582 49.8157L408.728 49.9545C407.964 49.9512 407.201 49.9025 406.443 49.8088Z" fill="#263238"/>
<path d="M415.14 50.1905C414.972 50.4458 414.786 50.6893 414.584 50.9192C414.195 51.3981 413.619 52.1268 412.903 52.9318L412.605 53.2649V52.8138C412.605 52.3419 412.605 51.8422 412.605 51.3217V51.176L412.66 51.3079L411.611 50.2877L411.306 49.9893H411.729C412.778 49.9893 413.674 50.0656 414.265 50.1072C414.561 50.1092 414.856 50.1347 415.147 50.1836C415.112 50.1836 414.723 50.1836 414.105 50.246C413.487 50.3085 412.674 50.3293 411.729 50.3293L411.847 50.0378L412.91 51.0441L412.966 51.0927V51.3564C412.966 51.8769 412.966 52.3766 412.966 52.8485L412.66 52.7306C413.355 52.0366 413.925 51.4258 414.383 50.9747C414.842 50.5236 415.105 50.2044 415.14 50.1905Z" fill="#263238"/>
<path d="M415.14 50.1901C415.182 50.2803 414.681 50.5787 414.028 50.8841C413.375 51.1894 412.813 51.3074 412.778 51.2102C412.743 51.1131 413.237 50.8216 413.89 50.5509C414.543 50.2803 415.105 50.0929 415.14 50.1901Z" fill="#263238"/>
<path d="M419.377 49.8086C419.518 49.7669 419.668 49.7669 419.808 49.8086C420.207 49.8799 420.565 50.0947 420.815 50.4124C421.007 50.6492 421.134 50.9312 421.186 51.2314C421.237 51.5315 421.21 51.8398 421.107 52.1265C420.988 52.4925 420.755 52.8112 420.443 53.0373C420.131 53.2633 419.756 53.385 419.37 53.385C418.985 53.385 418.61 53.2633 418.298 53.0373C417.986 52.8112 417.753 52.4925 417.634 52.1265C417.531 51.8398 417.504 51.5315 417.555 51.2314C417.607 50.9312 417.734 50.6492 417.926 50.4124C418.176 50.0947 418.534 49.8799 418.933 49.8086C419.211 49.7669 419.364 49.8086 419.357 49.8086C419.35 49.8086 419.211 49.8502 418.968 49.9335C418.63 50.0442 418.338 50.2609 418.134 50.5512C417.97 50.777 417.872 51.0436 417.85 51.3216C417.829 51.5997 417.884 51.8783 418.011 52.1267C418.138 52.3751 418.331 52.5837 418.569 52.7293C418.807 52.875 419.081 52.9521 419.36 52.9521C419.639 52.9521 419.913 52.875 420.151 52.7293C420.389 52.5837 420.582 52.3751 420.709 52.1267C420.836 51.8783 420.892 51.5997 420.87 51.3216C420.848 51.0436 420.75 50.777 420.586 50.5512C420.382 50.2609 420.09 50.0442 419.753 49.9335C419.53 49.8502 419.377 49.8433 419.377 49.8086Z" fill="#263238"/>
<path d="M419.954 52.1959C419.877 52.2653 419.502 52.0086 419.106 51.613L419.058 51.5575V51.4742C419.058 50.912 419.134 50.4609 419.238 50.4609C419.342 50.4609 419.419 50.912 419.419 51.4742L419.363 51.3423C419.759 51.7518 420.023 52.1265 419.954 52.1959Z" fill="#263238"/>
<path d="M378.718 52.0847C378.718 52.1888 367.18 52.2652 352.953 52.2652C338.726 52.2652 327.188 52.1888 327.188 52.0847C327.188 51.9806 338.726 51.9043 352.96 51.9043C367.194 51.9043 378.718 51.9876 378.718 52.0847Z" fill="#263238"/>
<path d="M324.75 52.0851C324.751 52.4878 324.633 52.8819 324.41 53.2174C324.187 53.5529 323.869 53.8146 323.497 53.9693C323.124 54.1241 322.715 54.1649 322.319 54.0867C321.924 54.0085 321.56 53.8147 321.275 53.5299C320.99 53.2451 320.796 52.8821 320.718 52.487C320.64 52.0919 320.681 51.6825 320.835 51.3107C320.99 50.9388 321.252 50.6213 321.588 50.3984C321.924 50.1755 322.318 50.0572 322.722 50.0586C323.259 50.0604 323.774 50.2745 324.154 50.6542C324.534 51.0338 324.748 51.5482 324.75 52.0851Z" fill="#263238"/>
<path d="M421.462 112.567C421.462 112.567 421.781 112.567 422.372 112.463C423.253 112.312 424.082 111.942 424.782 111.387C425.358 110.946 425.839 110.394 426.197 109.763C426.555 109.132 426.782 108.436 426.866 107.716C426.936 106.009 426.866 104.01 426.866 101.768C426.866 92.8089 426.831 79.852 426.81 63.8414C426.81 59.8439 426.81 55.6452 426.81 51.28C426.81 50.1904 426.81 49.0661 426.81 47.9835C426.693 46.8758 426.232 45.8324 425.492 44.9988C424.753 44.1653 423.771 43.5832 422.684 43.3337C422.124 43.2264 421.553 43.1821 420.982 43.2018H419.225H389.132H320.193C319.453 43.1999 318.721 43.3541 318.045 43.6543C317.368 43.9544 316.763 44.3938 316.268 44.9438C315.773 45.4911 315.395 46.1332 315.156 46.8311C314.917 47.529 314.823 48.2682 314.879 49.0037V58.0257C314.879 63.9709 314.879 69.8283 314.879 75.5977V92.5591C314.879 95.3351 314.879 98.0764 314.879 100.783V106.828C314.858 107.477 314.947 108.124 315.143 108.743C315.541 109.968 316.374 111.004 317.484 111.658C318.032 111.977 318.631 112.197 319.255 112.31C319.888 112.394 320.528 112.422 321.166 112.394H343.395L369.563 112.428L407.527 112.491H417.842H420.531H421.441C421.441 112.491 421.135 112.491 420.531 112.491H417.842L407.527 112.525L369.563 112.581H343.346H328.758H321.117C320.46 112.613 319.802 112.583 319.151 112.491C318.145 112.318 317.206 111.873 316.434 111.205C315.663 110.537 315.089 109.672 314.775 108.702C314.572 108.051 314.478 107.371 314.497 106.689V104.69C314.497 103.344 314.497 101.998 314.497 100.644V92.5661C314.497 87.0141 314.497 81.3603 314.497 75.6047V49.0384C314.454 48.2641 314.55 47.4884 314.782 46.7482C315.156 45.6207 315.876 44.6396 316.84 43.9444C317.804 43.2492 318.962 42.8752 320.151 42.8756H389.09H419.183H420.968C421.56 42.8551 422.152 42.904 422.733 43.0214C423.891 43.2838 424.937 43.9057 425.72 44.798C426.493 45.6744 426.978 46.767 427.109 47.928C427.165 49.0661 427.109 50.1488 427.109 51.2522C427.109 55.6175 427.109 59.8162 427.109 63.8136C427.109 79.8242 427.061 92.7812 427.047 101.741C427.047 103.982 427.047 105.967 426.998 107.702C426.909 108.431 426.676 109.136 426.312 109.774C425.948 110.413 425.461 110.973 424.879 111.422C424.162 111.971 423.319 112.334 422.427 112.477C422.198 112.515 421.965 112.533 421.732 112.532L421.462 112.567Z" fill="#263238"/>
<path d="M372.682 74.8475C376.802 74.8475 380.143 71.5105 380.143 67.394C380.143 63.2775 376.802 59.9404 372.682 59.9404C368.561 59.9404 365.221 63.2775 365.221 67.394C365.221 71.5105 368.561 74.8475 372.682 74.8475Z" fill="#455A64"/>
<path d="M257.527 69.9968C258.16 69.9371 258.767 69.7173 259.291 69.3583C259.91 68.905 260.354 68.2533 260.549 67.5123C260.649 67.0334 260.684 66.5432 260.653 66.0549C260.653 65.5274 260.653 64.9584 260.653 64.3615C260.653 59.5382 260.702 52.619 260.743 44.0759C260.743 41.9384 260.743 39.6898 260.785 37.358C260.785 36.1851 260.785 34.9984 260.785 33.7839C260.817 33.1887 260.796 32.5918 260.722 32.0003C260.614 31.4491 260.348 30.9407 259.958 30.536C259.548 30.0967 259.007 29.8 258.416 29.6893C257.79 29.6388 257.161 29.6272 256.534 29.6546H252.567L244.287 29.7032L207.414 29.9044C206.671 29.9248 205.961 30.22 205.424 30.7328C204.886 31.2457 204.558 31.9397 204.503 32.6804C204.503 34.2813 204.482 35.8751 204.441 37.4621C204.413 40.6406 204.383 43.7729 204.35 46.8588C204.281 53.0216 204.218 58.9622 204.163 64.6252C204.163 65.3192 204.163 66.0132 204.163 66.7072C204.127 67.3524 204.286 67.9935 204.621 68.5463C204.947 69.0752 205.434 69.4861 206.01 69.7192C206.627 69.9014 207.274 69.9627 207.914 69.8996H215.729H229.747H250.08H255.603H257.034C257.198 69.8846 257.363 69.8846 257.527 69.8996C257.363 69.9118 257.198 69.9118 257.034 69.8996L255.637 70.094L250.115 70.1772L229.817 70.3785L215.791 70.4826L207.983 70.5381C207.281 70.5991 206.574 70.5261 205.899 70.323C205.197 70.0565 204.599 69.5694 204.197 68.935C203.805 68.2933 203.614 67.5488 203.649 66.7975C203.649 66.1035 203.649 65.4095 203.649 64.7155C203.697 59.0524 203.753 53.1048 203.801 46.9421C203.829 43.8608 203.857 40.7285 203.885 37.5454C203.885 35.9492 203.906 34.3298 203.947 32.6874C204.017 31.7926 204.417 30.9555 205.069 30.3377C205.72 29.7199 206.578 29.3653 207.476 29.3423L244.307 29.148H252.588H256.561C257.222 29.1245 257.883 29.1454 258.541 29.2104C259.223 29.3386 259.848 29.6729 260.333 30.1681C260.802 30.6547 261.125 31.2631 261.264 31.924C261.341 32.5502 261.359 33.1821 261.32 33.8116C261.32 35.0261 261.32 36.2198 261.278 37.3857C261.25 39.7268 261.223 41.9685 261.195 44.1106C261.07 52.6468 260.973 59.5729 260.903 64.3893C260.903 64.9931 260.903 65.5552 260.868 66.0896C260.892 66.5937 260.843 67.0985 260.722 67.5886C260.504 68.3597 260.026 69.0316 259.368 69.4902C258.965 69.7658 258.504 69.944 258.02 70.0107C257.856 70.0276 257.69 70.023 257.527 69.9968Z" fill="#FF5454"/>
<path d="M234.603 46.3449L241.452 50.4534L234.492 54.5827L227.531 58.7051L227.635 50.4673L227.747 42.2295L234.603 46.3449Z" fill="#FF5454"/>
</svg>
