<svg width="380" height="301" viewBox="0 0 380 301" fill="none" xmlns="http://www.w3.org/2000/svg">
<g filter="url(#filter0_d_1714_15587)">
<rect x="128.832" y="8.83984" width="234.891" height="196.849" rx="10" fill="white"/>
</g>
<path d="M128.832 18.8398C128.832 13.317 133.309 8.83984 138.832 8.83984H353.999C359.522 8.83984 363.999 13.317 363.999 18.8398V26.8718H128.832V18.8398Z" fill="#C9EAF1"/>
<path d="M180.817 173.024H173.82V189.139H180.817V173.024Z" fill="#EBEBEB"/>
<path d="M204.551 173.024H197.555V189.139H204.551V173.024Z" fill="#EBEBEB"/>
<path d="M192.688 158.348H185.691V189.138H192.688V158.348Z" fill="#F5F5F5"/>
<path d="M216.422 158.348H209.426V189.138H216.422V158.348Z" fill="#F5F5F5"/>
<path d="M228.283 159.227H221.287V189.137H228.283V159.227Z" fill="#EBEBEB"/>
<path d="M252.012 159.227H245.016V189.137H252.012V159.227Z" fill="#EBEBEB"/>
<path d="M275.746 159.227H268.75V189.137H275.746V159.227Z" fill="#EBEBEB"/>
<path d="M240.155 143.538H233.158V189.149H240.155V143.538Z" fill="#F5F5F5"/>
<path d="M263.883 147.999H256.887V189.139H263.883V147.999Z" fill="#F5F5F5"/>
<path d="M310.797 159.227H303.801V189.137H310.797V159.227Z" fill="#EBEBEB"/>
<path d="M298.938 164.972H291.941V189.138H298.938V164.972Z" fill="#F5F5F5"/>
<path d="M335.615 143.268H328.619V189.137H335.615V143.268Z" fill="#EBEBEB"/>
<path d="M323.758 164.972H316.762V189.138H323.758V164.972Z" fill="#F5F5F5"/>
<path d="M347.496 164.972H340.5V189.138H347.496V164.972Z" fill="#F5F5F5"/>
<path d="M287.619 154.302H280.623V189.139H287.619V154.302Z" fill="#EBEBEB"/>
<path d="M236.074 145.34C237.069 145.34 237.875 144.534 237.875 143.539C237.875 142.545 237.069 141.738 236.074 141.738C235.08 141.738 234.273 142.545 234.273 143.539C234.273 144.534 235.08 145.34 236.074 145.34Z" fill="#46B2C8"/>
<path d="M236.075 146.798C235.428 146.798 234.795 146.606 234.257 146.246C233.719 145.886 233.3 145.375 233.053 144.776C232.805 144.178 232.741 143.52 232.868 142.885C232.995 142.251 233.308 141.668 233.766 141.211C234.225 140.754 234.808 140.443 235.443 140.318C236.079 140.193 236.736 140.26 237.334 140.509C237.931 140.758 238.441 141.179 238.799 141.718C239.158 142.257 239.348 142.89 239.346 143.538C239.343 144.403 238.997 145.232 238.384 145.844C237.771 146.455 236.941 146.798 236.075 146.798ZM236.075 140.526C235.479 140.524 234.896 140.699 234.399 141.028C233.902 141.358 233.515 141.828 233.285 142.378C233.056 142.928 232.995 143.534 233.11 144.119C233.225 144.704 233.511 145.241 233.932 145.664C234.352 146.086 234.889 146.374 235.473 146.491C236.058 146.608 236.664 146.549 237.215 146.321C237.766 146.093 238.237 145.707 238.568 145.212C238.9 144.716 239.077 144.134 239.077 143.538C239.077 142.741 238.761 141.976 238.198 141.412C237.636 140.847 236.872 140.529 236.075 140.526Z" fill="#46B2C8"/>
<path d="M237.515 138.943L237.422 135.404L238.302 135.424L236.656 133.406L235 135.435L235.911 135.445L236.004 138.943H237.515Z" fill="#EBEBEB"/>
<path d="M179.307 165.656C179.307 166.012 179.201 166.361 179.003 166.657C178.805 166.953 178.524 167.184 178.195 167.32C177.866 167.456 177.504 167.492 177.155 167.423C176.805 167.353 176.484 167.182 176.233 166.93C175.981 166.678 175.809 166.357 175.74 166.008C175.67 165.658 175.706 165.296 175.842 164.967C175.978 164.638 176.209 164.357 176.505 164.159C176.802 163.961 177.15 163.855 177.506 163.855C177.984 163.855 178.442 164.045 178.779 164.383C179.117 164.721 179.307 165.179 179.307 165.656Z" fill="#46B2C8"/>
<path d="M177.507 168.988C176.86 168.988 176.227 168.796 175.689 168.436C175.151 168.077 174.732 167.565 174.484 166.967C174.237 166.369 174.173 165.711 174.3 165.076C174.427 164.441 174.739 163.858 175.198 163.402C175.656 162.945 176.24 162.634 176.875 162.509C177.51 162.384 178.168 162.45 178.766 162.699C179.363 162.948 179.873 163.369 180.231 163.908C180.589 164.447 180.779 165.081 180.777 165.728C180.777 166.157 180.693 166.582 180.528 166.978C180.364 167.374 180.123 167.734 179.819 168.037C179.515 168.34 179.154 168.58 178.758 168.743C178.361 168.906 177.936 168.99 177.507 168.988ZM177.507 162.716C176.911 162.716 176.329 162.893 175.834 163.224C175.338 163.555 174.952 164.025 174.724 164.576C174.496 165.126 174.437 165.731 174.553 166.316C174.669 166.9 174.956 167.437 175.377 167.858C175.798 168.279 176.335 168.566 176.919 168.682C177.503 168.798 178.109 168.739 178.659 168.511C179.21 168.283 179.68 167.897 180.011 167.401C180.342 166.906 180.519 166.324 180.519 165.728C180.52 165.332 180.443 164.94 180.292 164.574C180.141 164.208 179.919 163.875 179.639 163.595C179.36 163.315 179.027 163.094 178.661 162.943C178.295 162.792 177.903 162.715 177.507 162.716Z" fill="#46B2C8"/>
<path d="M176.428 154.499L176.521 158.183L175.6 158.173L177.318 160.264L179.036 158.152L178.084 158.142L177.99 154.509L176.428 154.499Z" fill="#EBEBEB"/>
<path d="M271.615 146.798L271.708 150.482L270.787 150.472L272.505 152.563L274.223 150.451L273.271 150.441L273.178 146.808L271.615 146.798Z" fill="#EBEBEB"/>
<path d="M293.277 179.421L272.216 159.664C258.865 153.216 238.259 143.726 235.858 143.85C233.167 144.015 182.04 164.156 162.613 171.908L162.23 170.945C165.097 169.807 232.38 143.001 235.796 142.825H235.868C239.604 142.825 269.328 157.139 272.733 158.774L272.858 158.867L293.443 178.169C297.355 176.099 319.741 164.29 320.124 164.125C320.259 164.063 320.611 163.918 351.401 163.918V164.953C339.581 164.953 321.832 164.953 320.486 165.098C319.317 165.688 302.52 174.547 293.577 179.256L293.277 179.421Z" fill="#46B2C8"/>
<path d="M274.307 158.792C274.307 159.148 274.201 159.496 274.003 159.793C273.805 160.089 273.524 160.319 273.195 160.456C272.866 160.592 272.504 160.628 272.155 160.558C271.805 160.489 271.484 160.317 271.233 160.065C270.981 159.814 270.809 159.493 270.74 159.143C270.67 158.794 270.706 158.432 270.842 158.103C270.978 157.774 271.209 157.493 271.505 157.295C271.802 157.097 272.15 156.991 272.506 156.991C272.742 156.991 272.977 157.038 273.195 157.128C273.414 157.219 273.612 157.351 273.779 157.519C273.947 157.686 274.079 157.884 274.17 158.103C274.26 158.321 274.307 158.556 274.307 158.792Z" fill="#46B2C8"/>
<path d="M272.503 162.126C271.856 162.126 271.224 161.934 270.686 161.575C270.148 161.215 269.729 160.705 269.481 160.107C269.234 159.509 269.169 158.852 269.295 158.217C269.421 157.583 269.733 157 270.19 156.543C270.648 156.085 271.23 155.774 271.865 155.648C272.499 155.522 273.157 155.586 273.754 155.834C274.352 156.081 274.863 156.501 275.222 157.038C275.582 157.576 275.773 158.209 275.773 158.855C275.771 159.722 275.425 160.552 274.812 161.165C274.2 161.778 273.369 162.123 272.503 162.126ZM272.503 155.854C271.909 155.854 271.329 156.03 270.835 156.36C270.342 156.69 269.957 157.158 269.73 157.707C269.503 158.255 269.443 158.859 269.559 159.441C269.675 160.023 269.961 160.558 270.381 160.978C270.8 161.398 271.335 161.683 271.917 161.799C272.5 161.915 273.103 161.856 273.651 161.628C274.2 161.401 274.669 161.016 274.998 160.523C275.328 160.029 275.504 159.449 275.504 158.855C275.51 158.458 275.436 158.063 275.288 157.694C275.139 157.325 274.919 156.989 274.64 156.706C274.361 156.423 274.028 156.198 273.661 156.045C273.294 155.892 272.901 155.813 272.503 155.813V155.854Z" fill="#46B2C8"/>
<path d="M322.133 164.155C322.133 164.511 322.027 164.86 321.829 165.156C321.632 165.452 321.35 165.683 321.021 165.819C320.692 165.955 320.33 165.991 319.981 165.922C319.631 165.852 319.311 165.681 319.059 165.429C318.807 165.177 318.635 164.856 318.566 164.507C318.496 164.157 318.532 163.795 318.668 163.466C318.805 163.137 319.035 162.856 319.332 162.658C319.628 162.46 319.976 162.354 320.332 162.354C320.569 162.354 320.803 162.401 321.021 162.492C321.24 162.582 321.438 162.715 321.605 162.882C321.773 163.049 321.905 163.248 321.996 163.466C322.086 163.685 322.133 163.919 322.133 164.155Z" fill="#46B2C8"/>
<path d="M320.331 167.486C319.684 167.486 319.052 167.294 318.514 166.935C317.976 166.576 317.557 166.065 317.309 165.467C317.062 164.87 316.997 164.212 317.123 163.578C317.25 162.943 317.561 162.361 318.018 161.903C318.476 161.446 319.059 161.134 319.693 161.008C320.327 160.882 320.985 160.947 321.583 161.194C322.18 161.442 322.691 161.861 323.05 162.399C323.41 162.937 323.602 163.569 323.602 164.216C323.599 165.082 323.253 165.913 322.641 166.525C322.028 167.138 321.198 167.484 320.331 167.486ZM320.331 161.214C319.734 161.212 319.151 161.388 318.654 161.718C318.157 162.048 317.769 162.518 317.54 163.069C317.311 163.62 317.25 164.226 317.366 164.811C317.482 165.396 317.769 165.934 318.191 166.356C318.613 166.778 319.15 167.065 319.736 167.18C320.321 167.296 320.927 167.236 321.478 167.007C322.029 166.777 322.499 166.39 322.829 165.893C323.159 165.396 323.334 164.812 323.332 164.216C323.332 163.42 323.016 162.656 322.453 162.093C321.89 161.531 321.127 161.214 320.331 161.214Z" fill="#46B2C8"/>
<path d="M319.359 153.462L319.462 157.146L318.541 157.126L320.259 159.227L321.977 157.105H321.025L320.921 153.472L319.359 153.462Z" fill="#EBEBEB"/>
<path d="M316.1 79.7266L339.83 80.0606C339.65 92.6978 328.999 103.015 316.1 103.015H315.955L316.1 79.7266Z" fill="#455A64"/>
<path d="M312.345 76.3499L312.011 99.6386C299.121 99.458 288.605 89.0052 288.605 76.3499C288.605 63.6946 299.32 53.0703 312.345 53.0703C325.371 53.0703 336.085 63.5773 336.085 76.3499H312.345Z" fill="#FF993C"/>
<path d="M265.134 54.875H145.982V104.521H265.134V54.875Z" fill="#E0E0E0"/>
<path d="M171.258 70.6581C171.261 71.8191 170.919 72.9547 170.275 73.9213C169.632 74.8878 168.717 75.6419 167.645 76.0879C166.573 76.534 165.393 76.6521 164.254 76.4271C163.115 76.2022 162.068 75.6444 161.247 74.8244C160.425 74.0043 159.865 72.9589 159.637 71.8204C159.41 70.6819 159.525 69.5015 159.969 68.4287C160.413 67.3558 161.165 66.4387 162.13 65.7934C163.095 65.1482 164.23 64.8037 165.391 64.8037C166.945 64.8037 168.435 65.4201 169.535 66.5176C170.635 67.6152 171.255 69.1042 171.258 70.6581Z" fill="#263238"/>
<path d="M215.486 66.6104H176.672V68.4157H215.486V66.6104Z" fill="#263238"/>
<path d="M251.593 72.0254H176.672V73.8307H251.593V72.0254Z" fill="white"/>
<path d="M171.258 87.8094C171.261 88.9704 170.919 90.1061 170.275 91.0726C169.632 92.0392 168.717 92.7933 167.645 93.2393C166.573 93.6854 165.393 93.8034 164.254 93.5785C163.115 93.3536 162.068 92.7958 161.247 91.9757C160.425 91.1557 159.865 90.1103 159.637 88.9718C159.41 87.8333 159.525 86.6529 159.969 85.5801C160.413 84.5072 161.165 83.5901 162.13 82.9448C163.095 82.2995 164.23 81.9551 165.391 81.9551C166.161 81.9534 166.923 82.1036 167.635 82.397C168.347 82.6905 168.994 83.1214 169.539 83.6652C170.084 84.209 170.516 84.855 170.811 85.5661C171.106 86.2772 171.258 87.0396 171.258 87.8094Z" fill="#46B2C8"/>
<path d="M196.53 83.7598H176.672V85.5651H196.53V83.7598Z" fill="#46B2C8"/>
<path d="M251.593 89.1758H176.672V90.9811H251.593V89.1758Z" fill="white"/>
<g filter="url(#filter1_d_1714_15587)">
<rect x="16" y="132.504" width="173.311" height="144.323" rx="15" fill="white"/>
</g>
<path d="M16 147.504C16 139.22 22.7157 132.504 31 132.504H174.311C182.595 132.504 189.311 139.22 189.311 147.504V148.69H16V147.504Z" fill="#C2E2E9"/>
<circle cx="31.4182" cy="140.526" r="2.46706" fill="#115766"/>
<circle cx="38.8206" cy="140.526" r="2.46706" fill="#115766"/>
<circle cx="46.221" cy="140.526" r="2.46706" fill="#115766"/>
<rect x="39.5664" y="237.217" width="33.9627" height="2.19114" fill="#023A59"/>
<rect x="39.5664" y="244.334" width="33.9627" height="2.19114" fill="#023A59"/>
<path d="M34.2229 236.121C35.031 236.121 35.5721 236.688 35.5721 237.532V239.48C35.5721 240.321 35.031 240.889 34.2229 240.889H32.1563C31.3482 240.889 30.8047 240.321 30.8047 239.48V237.532C30.8047 236.688 31.3482 236.121 32.1563 236.121H34.2229ZM34.1848 237.79C34.1038 237.709 33.9703 237.709 33.8892 237.79L32.9047 238.774L32.4876 238.357C32.4066 238.276 32.2731 238.276 32.192 238.357C32.111 238.438 32.111 238.569 32.192 238.653L32.7593 239.218C32.7999 239.258 32.8523 239.277 32.9047 239.277C32.9596 239.277 33.012 239.258 33.0525 239.218L34.1848 238.085C34.2659 238.004 34.2659 237.873 34.1848 237.79Z" fill="#C9EAF1"/>
<path d="M34.2229 243.242C35.031 243.242 35.5721 243.81 35.5721 244.653V246.601C35.5721 247.442 35.031 248.01 34.2229 248.01H32.1563C31.3482 248.01 30.8047 247.442 30.8047 246.601V244.653C30.8047 243.81 31.3482 243.242 32.1563 243.242H34.2229ZM34.1848 244.911C34.1038 244.83 33.9703 244.83 33.8892 244.911L32.9047 245.895L32.4876 245.478C32.4066 245.397 32.2731 245.397 32.192 245.478C32.111 245.559 32.111 245.69 32.192 245.774L32.7593 246.339C32.7999 246.379 32.8523 246.398 32.9047 246.398C32.9596 246.398 33.012 246.379 33.0525 246.339L34.1848 245.206C34.2659 245.125 34.2659 244.994 34.1848 244.911Z" fill="#C9EAF1"/>
<rect x="84.4609" y="231.804" width="88.814" height="22.2035" fill="#EEEEEE"/>
<rect x="91.2441" y="237.971" width="27.7544" height="2.46706" fill="#D9D9D9"/>
<rect x="91.2441" y="245.372" width="74.6285" height="2.46706" fill="#D9D9D9"/>
<path d="M35.653 162.292H31.5098V208.607H35.653V162.292Z" fill="#46B2C8"/>
<path d="M43.6569 178.017H39.5137V208.599H43.6569V178.017Z" fill="#46B2C8"/>
<path d="M51.6666 168.041H47.5234V208.832H51.6666V168.041Z" fill="#46B2C8"/>
<path d="M59.6725 164.079H55.5293V208.607H59.6725V164.079Z" fill="#46B2C8"/>
<path d="M67.6705 178.956H63.5273V208.599H67.6705V178.956Z" fill="#46B2C8"/>
<path d="M75.6764 184.769H71.5332V208.599H75.6764V184.769Z" fill="#46B2C8"/>
<path d="M83.6803 167.04H79.5371V208.599H83.6803V167.04Z" fill="#46B2C8"/>
<path d="M91.6901 174.532H87.5469V208.599H91.6901V174.532Z" fill="#46B2C8"/>
<path d="M99.694 168.547H95.5508V208.598H99.694V168.547Z" fill="#46B2C8"/>
<path d="M107.702 181.312H103.559V208.599H107.702V181.312Z" fill="#46B2C8"/>
<path d="M115.708 176.121H111.564V208.599H115.708V176.121Z" fill="#46B2C8"/>
<path d="M117.406 211.829C117.406 211.919 97.737 212 73.4735 212C49.21 212 29.541 211.919 29.541 211.829C29.541 211.738 49.21 211.657 73.4735 211.657C97.737 211.657 117.406 211.729 117.406 211.829Z" fill="#263238"/>
<path d="M37.4198 215.504C35.3735 215.721 33.31 215.721 31.2637 215.504C33.3094 215.276 35.3741 215.276 37.4198 215.504Z" fill="#263238"/>
<path d="M47.6301 215.657C45.1832 215.886 42.7203 215.886 40.2734 215.657C42.7203 215.428 45.1832 215.428 47.6301 215.657Z" fill="#263238"/>
<path d="M56.341 215.657C53.8942 215.886 51.4313 215.886 48.9844 215.657C51.4313 215.428 53.8942 215.428 56.341 215.657Z" fill="#263238"/>
<path d="M65.0422 215.657C62.5953 215.886 60.1324 215.886 57.6855 215.657C60.1324 215.428 62.5953 215.428 65.0422 215.657Z" fill="#263238"/>
<path d="M73.7532 215.657C71.3063 215.886 68.8434 215.886 66.3965 215.657C68.8434 215.428 71.3063 215.428 73.7532 215.657Z" fill="#263238"/>
<path d="M82.4524 215.657C80.0055 215.886 77.5426 215.886 75.0957 215.657C77.5426 215.428 80.0055 215.428 82.4524 215.657Z" fill="#263238"/>
<path d="M91.1653 215.657C88.7184 215.886 86.2555 215.886 83.8086 215.657C86.2555 215.428 88.7184 215.428 91.1653 215.657Z" fill="#263238"/>
<path d="M99.8489 215.657C97.402 215.886 94.9391 215.886 92.4922 215.657C94.9391 215.428 97.402 215.428 99.8489 215.657Z" fill="#263238"/>
<path d="M108.577 215.657C106.131 215.886 103.668 215.886 101.221 215.657C103.668 215.428 106.131 215.428 108.577 215.657Z" fill="#263238"/>
<path d="M117.288 215.657C114.841 215.886 112.379 215.886 109.932 215.657C112.379 215.428 114.841 215.428 117.288 215.657Z" fill="#263238"/>
<g opacity="0.3">
<path d="M43.6569 178.017H39.5137V208.599H43.6569V178.017Z" fill="white"/>
</g>
<g opacity="0.3">
<path d="M59.6725 164.08H55.5293V208.608H59.6725V164.08Z" fill="white"/>
</g>
<g opacity="0.3">
<path d="M75.6764 184.769H71.5332V208.599H75.6764V184.769Z" fill="white"/>
</g>
<g opacity="0.3">
<path d="M91.6901 174.532H87.5469V208.599H91.6901V174.532Z" fill="white"/>
</g>
<g opacity="0.3">
<path d="M107.704 181.311H103.561V208.598H107.704V181.311Z" fill="white"/>
</g>
<path d="M151.251 187.566L151.16 173.123C146.752 173.203 142.517 174.855 139.218 177.781C137.11 179.62 135.484 181.947 134.482 184.559C133.48 187.171 133.132 189.988 133.468 192.765C133.545 193.472 133.659 194.174 133.811 194.868C133.807 194.886 133.807 194.904 133.811 194.922L151.242 190.996L151.251 187.566Z" fill="#FF993C"/>
<g opacity="0.3">
<path d="M151.251 187.566L151.16 173.123C146.752 173.203 142.517 174.855 139.218 177.781C137.11 179.62 135.484 181.947 134.482 184.559C133.48 187.171 133.132 189.988 133.468 192.765C133.545 193.472 133.659 194.174 133.811 194.868C133.807 194.886 133.807 194.904 133.811 194.922L151.242 190.996L151.251 187.566Z" fill="white"/>
</g>
<path d="M169.223 183.115C167.95 180.381 165.979 178.031 163.508 176.302C161.038 174.573 158.155 173.526 155.151 173.267L154.6 173.213H154.248C153.905 173.213 153.553 173.213 153.201 173.213H153.102L153.201 187.655V191.049L170.703 194.832C170.973 193.601 171.103 192.345 171.092 191.086C171.065 188.323 170.427 185.601 169.223 183.115Z" fill="#FF993C"/>
<g opacity="0.3">
<path d="M169.221 183.116C167.948 180.382 165.977 178.032 163.507 176.303C161.036 174.574 158.153 173.527 155.149 173.268L154.598 173.214H154.246C153.903 173.214 153.551 173.214 153.199 173.214H153.1L153.199 187.656V191.05L170.701 194.833C170.971 193.602 171.101 192.346 171.09 191.087C171.063 188.324 170.425 185.602 169.221 183.116Z" fill="black"/>
</g>
<path d="M152.191 192.774L134.752 196.701C135.646 200.669 137.867 204.213 141.048 206.749C144.229 209.284 148.18 210.658 152.247 210.644C156.315 210.631 160.256 209.23 163.42 206.673C166.584 204.117 168.781 200.558 169.649 196.584L152.209 192.774" fill="#FF993C"/>
<defs>
<filter id="filter0_d_1714_15587" x="112.832" y="0.839844" width="266.891" height="228.849" filterUnits="userSpaceOnUse" color-interpolation-filters="sRGB">
<feFlood flood-opacity="0" result="BackgroundImageFix"/>
<feColorMatrix in="SourceAlpha" type="matrix" values="0 0 0 0 0 0 0 0 0 0 0 0 0 0 0 0 0 0 127 0" result="hardAlpha"/>
<feOffset dy="8"/>
<feGaussianBlur stdDeviation="8"/>
<feComposite in2="hardAlpha" operator="out"/>
<feColorMatrix type="matrix" values="0 0 0 0 0 0 0 0 0 0 0 0 0 0 0 0 0 0 0.08 0"/>
<feBlend mode="normal" in2="BackgroundImageFix" result="effect1_dropShadow_1714_15587"/>
<feBlend mode="normal" in="SourceGraphic" in2="effect1_dropShadow_1714_15587" result="shape"/>
</filter>
<filter id="filter1_d_1714_15587" x="0" y="124.504" width="205.311" height="176.323" filterUnits="userSpaceOnUse" color-interpolation-filters="sRGB">
<feFlood flood-opacity="0" result="BackgroundImageFix"/>
<feColorMatrix in="SourceAlpha" type="matrix" values="0 0 0 0 0 0 0 0 0 0 0 0 0 0 0 0 0 0 127 0" result="hardAlpha"/>
<feOffset dy="8"/>
<feGaussianBlur stdDeviation="8"/>
<feComposite in2="hardAlpha" operator="out"/>
<feColorMatrix type="matrix" values="0 0 0 0 0 0 0 0 0 0 0 0 0 0 0 0 0 0 0.08 0"/>
<feBlend mode="normal" in2="BackgroundImageFix" result="effect1_dropShadow_1714_15587"/>
<feBlend mode="normal" in="SourceGraphic" in2="effect1_dropShadow_1714_15587" result="shape"/>
</filter>
</defs>
</svg>
