<svg width="1920" height="290" viewBox="0 0 1920 290" fill="none" xmlns="http://www.w3.org/2000/svg">
<g opacity="0.25">
<path d="M548.673 289.827C539.202 289.827 529.983 289.591 521.124 289.118C502.543 288.127 485.378 286.091 470.102 283.068C453.684 279.82 439.284 275.393 427.299 269.913C403.212 258.896 391.161 245.703 379.506 232.944C377.216 230.439 374.849 227.848 372.445 225.335C356.045 208.203 335.255 193.196 308.892 179.458C256.303 152.051 182.344 128.662 95.0088 111.818C-5.99362 92.3397 -114.588 82.6366 -210.772 84.497C-267.304 85.591 -341.999 95.994 -375.382 113.76C-395.193 124.304 -396.791 136.005 -379.999 147.597L-380.332 147.646C-389.137 141.567 -392.973 135.472 -391.731 129.532C-390.591 124.083 -385.198 118.756 -375.697 113.7C-360.587 105.657 -335.668 98.5297 -303.633 93.0862C-274.032 88.0568 -241.063 84.9647 -210.794 84.3792C-160.458 83.4064 -106.923 85.5654 -51.6767 90.7978C-1.5968 95.5414 47.8199 102.579 95.1993 111.717C182.586 128.57 256.589 151.972 309.208 179.395C335.585 193.143 356.386 208.158 372.797 225.299C375.204 227.812 377.571 230.404 379.857 232.909C391.502 245.659 403.545 258.842 427.6 269.843C450.862 280.482 482.351 286.928 521.186 288.999C574.966 291.868 640.274 285.867 695.879 272.945C776.011 254.324 831.624 227.22 885.408 201.009C894.836 196.414 904.582 191.664 914.233 187.076C939.288 175.164 973.22 159.728 1013.55 145.977C1054.77 131.921 1096.65 121.594 1141.6 114.404C1169.12 110.003 1198.28 107.038 1228.27 105.592C1255.97 104.255 1285.3 104.173 1315.43 105.344C1367.11 107.353 1422.78 113.03 1485.64 122.697C1609.42 141.733 1733.05 164.839 1853.12 191.374C1967.25 216.595 2079.18 245.134 2185.8 276.196L2185.55 276.282C1964.53 211.892 1728.99 160.254 1485.48 122.802C1347.91 101.643 1238.69 99.0067 1141.77 114.508C1043.17 130.277 974.286 158.736 914.537 187.141C904.89 191.727 895.143 196.477 885.716 201.072C831.917 227.292 776.286 254.404 696.099 273.038C670.187 279.06 641.036 283.757 611.801 286.621C596.357 288.134 581.005 289.123 566.166 289.561C560.252 289.74 554.415 289.827 548.673 289.827Z" fill="#115766"/>
<path d="M557.934 283.293C533.781 283.293 511.408 281.83 491.414 278.941C469.118 275.719 449.878 270.727 434.226 264.104C432.841 263.518 431.466 262.911 430.14 262.3C406.309 251.331 393.723 238.31 381.555 225.716C379.093 223.171 376.55 220.539 373.971 217.984C358.607 202.775 340.108 189.37 317.409 177.005C314.613 175.483 311.719 173.957 308.799 172.471C255.436 145.301 180.877 122.207 93.1819 105.688C-8.54965 86.5419 -117.452 77.24 -213.464 79.497C-269.586 80.8302 -343.936 91.4034 -377.462 109.033C-397.537 119.59 -399.809 131.314 -384.039 142.94L-384.376 142.986C-392.642 136.893 -396.038 130.787 -394.466 124.84C-393.023 119.378 -387.41 114.039 -377.777 108.973C-362.513 100.944 -337.667 93.8084 -305.933 88.337C-276.602 83.2795 -243.776 80.0988 -213.497 79.3803C-163.223 78.1988 -109.629 80.1513 -54.207 85.1831C-4.00626 89.7413 45.6449 96.6066 93.3651 105.588C181.111 122.116 255.711 145.224 309.107 172.409C312.027 173.897 314.925 175.423 317.721 176.947C340.434 189.32 358.945 202.732 374.315 217.949C376.898 220.504 379.441 223.136 381.903 225.683C394.068 238.268 406.643 251.28 430.441 262.233C431.763 262.842 433.137 263.449 434.519 264.034C466.865 277.724 511.309 283.293 558.047 283.293C558.304 283.293 558.557 283.293 558.813 283.293C558.52 283.292 558.227 283.293 557.934 283.293ZM567.904 283.212C611.355 282.501 656.192 277.186 694.657 269.279C777.629 252.154 837.261 225.702 894.932 200.123C897.307 199.068 899.681 198.016 902.055 196.964C907.269 194.655 913.45 191.921 919.76 189.164C948.064 176.804 982.319 162.423 1021.77 149.478C1063.74 135.705 1105.68 125.484 1149.97 118.23C1177.18 113.778 1205.94 110.642 1235.44 108.908C1262.78 107.302 1291.67 106.849 1321.3 107.559C1372.49 108.787 1427.53 113.443 1489.57 121.795C1550.06 129.924 1599.78 137.577 1646.05 145.878C1711.59 157.649 1774.02 171.212 1826.45 182.926C1948.34 210.237 2067.93 241.25 2181.91 275.103L2181.66 275.188C2067.69 241.34 1948.11 210.33 1826.24 183.021C1773.82 171.308 1711.4 157.748 1645.87 145.981C1599.62 137.682 1549.91 130.031 1489.43 121.904C1354.29 103.711 1246.47 102.576 1150.14 118.335C1050.15 134.709 978.948 163.517 920.057 189.234C913.744 191.991 907.566 194.723 902.352 197.034C899.978 198.085 897.604 199.138 895.229 200.193C837.539 225.781 777.885 252.241 694.855 269.38C674.267 273.611 652.359 276.973 629.738 279.37C608.681 281.599 587.924 282.888 567.904 283.212Z" fill="#115766"/>
<path d="M568.145 276.911C565.24 276.911 562.352 276.891 559.487 276.851C535.356 276.511 513.024 274.749 493.113 271.61C471.338 268.177 452.472 263.093 437.043 256.497C435.672 255.909 434.306 255.302 432.987 254.691C409.423 243.776 396.314 230.928 383.64 218.505C380.998 215.916 378.265 213.238 375.495 210.639C359.373 195.481 340.386 182.183 317.442 169.985C314.602 168.477 311.664 166.964 308.699 165.49C254.563 138.556 179.403 115.759 91.3496 99.5636C-11.1074 80.7499 -120.317 71.8481 -216.161 74.5016C-270.124 76.0191 -344.259 85.9893 -379.507 104.292C-399.871 114.866 -402.835 126.622 -388.08 138.288L-388.421 138.332C-396.152 132.22 -399.102 126.1 -397.196 120.142C-395.445 114.662 -389.597 109.31 -379.818 104.231C-364.392 96.2219 -339.627 89.0837 -308.197 83.5865C-279.142 78.5046 -246.466 75.2376 -216.194 74.3862C-165.978 72.997 -112.326 74.7419 -56.7318 79.573C-6.40649 83.9469 43.4755 90.6384 91.5328 99.4633C179.638 115.669 254.838 138.479 309.007 165.428C311.971 166.903 314.914 168.416 317.753 169.926C340.708 182.131 359.706 195.437 375.835 210.604C378.605 213.204 381.339 215.882 383.98 218.471C396.651 230.887 409.75 243.725 433.284 254.628C434.603 255.239 435.962 255.845 437.332 256.431C500.027 283.232 611.135 280.354 693.433 265.615C779.867 249.998 844.101 224.043 906.221 198.942L906.858 198.685C912.875 196.252 919.096 193.737 925.288 191.254C990.629 165.057 1062.45 138.135 1158.33 122.056C1185.25 117.551 1213.62 114.244 1242.63 112.225C1269.61 110.347 1298.07 109.522 1327.19 109.774C1377.97 110.213 1432.37 113.849 1493.51 120.892C1557.76 128.267 1606.12 135.046 1650.29 142.874C1713.23 154.049 1774.19 168.17 1827.98 180.629C1947.74 208.518 2065.51 239.936 2178.03 274.007L2177.77 274.091C2065.27 240.023 1947.51 208.609 1827.76 180.722C1773.98 168.266 1713.03 154.147 1650.11 142.975C1605.95 135.15 1557.62 128.373 1493.39 121C1360.86 105.735 1254.45 106.102 1158.5 122.157C1062.68 138.225 990.889 165.136 925.574 191.324C919.382 193.807 913.161 196.323 907.144 198.755L906.507 199.012C875.549 211.521 843.541 224.455 808.974 236.008C770.128 248.991 732.392 258.708 693.609 265.714C653.033 272.981 608.834 276.911 568.145 276.911Z" fill="#115766"/>
<path d="M2173.89 272.99C2062.85 238.704 1946.91 206.886 1829.29 178.422C1824.31 177.225 1819.32 176.022 1814.31 174.816C1763.37 162.544 1710.69 149.854 1654.36 139.967C1599.71 130.403 1544.32 124.555 1497.35 120.096C1367.69 107.711 1262.69 109.581 1166.88 125.978C1068.54 142.86 992.332 170.889 931.103 193.412C927.428 194.764 923.76 196.118 920.085 197.473C917.374 198.474 914.659 199.475 911.944 200.474C877.081 213.311 845.368 224.789 810.329 235.262C770.3 247.225 731.718 255.987 692.37 262.049C655.495 267.73 616.103 270.736 579.463 270.737C572.787 270.737 566.21 270.638 559.747 270.436C536.151 269.7 514.306 267.632 494.82 264.289C473.558 260.642 455.066 255.461 439.849 248.889C438.49 248.3 437.134 247.692 435.822 247.079C412.537 236.221 398.918 223.555 385.75 211.305C382.914 208.667 379.979 205.938 377.011 203.289C360.12 188.178 340.642 174.987 317.471 162.959C314.587 161.462 311.601 159.964 308.596 158.502C253.684 131.805 177.926 109.304 89.5173 93.4324C-13.6653 74.9511 -123.179 66.4517 -218.854 69.4983C-284.261 71.6223 -351.144 83.9695 -381.504 99.5232C-402.187 110.12 -405.855 121.913 -392.118 133.628L-392.463 133.669C-399.655 127.535 -402.162 121.396 -399.912 115.423C-397.842 109.924 -391.752 104.554 -381.815 99.4614C-366.229 91.4752 -341.544 84.3369 -310.429 78.82C-281.652 73.7171 -249.145 70.3649 -218.891 69.3828C-168.734 67.7849 -115.027 69.3233 -59.2604 73.9538C-8.81412 78.1435 41.3061 84.6624 89.7005 93.3297C178.165 109.211 253.962 131.725 308.908 158.438C311.916 159.901 314.902 161.401 317.786 162.897C340.972 174.932 360.457 188.131 377.359 203.248C380.327 205.898 383.262 208.626 386.098 211.266C399.259 223.508 412.871 236.167 436.126 247.012C437.438 247.623 438.79 248.231 440.146 248.818C505.596 277.084 616.84 273.554 692.212 261.942C782.138 248.088 850.953 222.752 911.669 200.397C914.384 199.397 917.095 198.396 919.81 197.396C923.482 196.041 927.153 194.687 930.828 193.335C965.779 180.479 1000.29 167.986 1038.24 156.474C1081.87 143.234 1123.9 133.226 1166.71 125.875C1193.35 121.316 1221.31 117.836 1249.82 115.535C1276.47 113.383 1304.48 112.189 1333.09 111.984C1383.54 111.622 1437.31 114.239 1497.46 119.984C1544.45 124.445 1599.86 130.296 1654.54 139.866C1710.89 149.756 1763.58 162.449 1814.54 174.724C1819.54 175.93 1824.54 177.133 1829.52 178.329C1947.14 206.796 2063.1 238.617 2174.15 272.908L2173.89 272.99Z" fill="#115766"/>
<path d="M2170.01 271.892C2058.33 236.73 1944.22 204.508 1830.82 176.122C1824.04 174.423 1817.1 172.673 1810.38 170.98C1762.31 158.859 1712.6 146.325 1658.61 136.96C1604.69 127.642 1548.84 122.748 1501.31 119.191C1374.81 109.63 1271.2 113.001 1175.26 129.799C1083.75 145.88 1012.05 170.061 942.718 193.446L935.105 196.013C929.092 198.041 922.874 200.137 916.744 202.194C847.34 225.444 777.863 247.236 691.132 258.382C670.086 261.086 648.475 262.961 626.894 263.956C603.719 265.023 581.208 265.038 559.982 264C536.928 262.872 515.578 260.503 496.525 256.959C475.79 253.101 457.668 247.826 442.667 241.28C441.315 240.688 439.971 240.078 438.67 239.466C415.671 228.673 401.561 216.193 387.916 204.123C384.871 201.43 381.72 198.644 378.54 195.94C360.864 180.876 340.903 167.79 317.512 155.935C314.588 154.454 311.558 152.967 308.505 151.517C252.82 125.056 176.465 102.852 87.6931 87.3031C-16.2186 69.1566 -126.04 61.0573 -221.55 64.4993C-286.36 66.8845 -352.939 79.3181 -383.453 94.7364C-404.48 105.36 -408.874 117.199 -396.159 128.973L-396.508 129.012C-403.161 122.851 -405.217 116.689 -402.619 110.698C-400.223 105.176 -393.88 99.7845 -383.768 94.6758C-368.012 86.7164 -343.416 79.5852 -312.631 74.0519C-284.139 68.9303 -251.808 65.4977 -221.594 64.3849C-171.496 62.5794 -117.734 63.9102 -61.7917 68.3401C-11.2209 72.3455 39.1301 78.6906 87.8653 87.2016C176.689 102.759 253.087 124.977 308.806 151.453C311.858 152.904 314.892 154.392 317.816 155.873C341.221 167.734 361.194 180.827 378.877 195.899C382.057 198.604 385.208 201.39 388.253 204.083C401.89 216.146 415.993 228.62 438.967 239.401C440.264 240.01 441.608 240.619 442.957 241.211C506.832 269.084 612.964 268.302 690.989 258.274C777.651 247.138 847.098 225.354 916.473 202.114C922.603 200.058 928.821 197.962 934.833 195.934L942.447 193.367C976.482 181.888 1011.67 170.018 1049.89 158.976C1093.18 146.47 1134.13 136.893 1175.08 129.696C1201.44 125.08 1229.01 121.429 1257 118.847C1283.32 116.418 1310.9 114.853 1338.97 114.194C1389.21 113.015 1442.33 114.613 1501.39 119.076C1548.94 122.636 1604.82 127.531 1658.77 136.858C1712.8 146.226 1762.52 158.764 1810.61 170.888C1817.32 172.58 1824.26 174.33 1831.05 176.029C1944.45 204.418 2058.58 236.643 2170.26 271.808L2170.01 271.892Z" fill="#115766"/>
<path d="M2166.12 270.793C2055.41 235.24 1943.11 202.614 1832.35 173.822C1824.03 171.659 1815.49 169.409 1807.24 167.234C1761.76 155.243 1714.73 142.845 1662.85 133.956C1609.19 124.797 1553.08 120.896 1505.27 118.288C1382.28 111.475 1280.07 116.348 1183.63 133.622C1099.47 148.76 1030.37 170.215 963.541 190.962C956.51 193.146 949.236 195.403 942.15 197.59C933.829 200.158 927.472 202.109 921.54 203.915C889.769 213.58 851.942 224.708 812.246 233.964C770.179 243.772 730.157 250.561 689.89 254.718C668.715 256.903 647.196 258.282 625.927 258.814C603.089 259.386 580.977 258.966 560.209 257.565C537.708 256.047 516.856 253.378 498.225 249.63C478.021 245.566 460.276 240.196 445.481 233.672C444.147 233.08 442.81 232.469 441.513 231.855C418.818 221.134 404.235 208.846 390.129 196.963C386.857 194.207 383.475 191.358 380.063 188.59C361.593 173.568 341.144 160.59 317.544 148.911C314.576 147.442 311.502 145.969 308.406 144.531C251.947 118.307 174.992 96.3994 85.8607 81.1735C-18.7728 63.3606 -128.902 55.6637 -224.244 59.4987C-278.493 61.7288 -349.348 72.0023 -385.351 89.9248C-406.756 100.581 -411.893 112.473 -400.201 124.315L-400.549 124.35C-406.665 118.158 -408.262 111.969 -405.302 105.956C-402.568 100.405 -395.962 94.9904 -385.659 89.8619C-369.735 81.9352 -345.23 74.8156 -314.786 69.2706C-286.58 64.1339 -254.443 60.6231 -224.288 59.3832C-174.248 57.3701 -120.427 58.4933 -64.3166 62.7226C-13.6248 66.5436 36.9607 72.7161 86.033 81.0709C175.215 96.3049 252.215 118.226 308.707 144.465C311.803 145.903 314.88 147.378 317.848 148.848C341.459 160.533 361.919 173.518 380.401 188.547C383.815 191.316 387.197 194.165 390.469 196.921C404.565 208.799 419.144 221.079 441.813 231.789C443.11 232.401 444.444 233.011 445.778 233.602C498.917 257.039 590.133 264.891 689.776 254.605C780.014 245.29 853.624 224.413 921.287 203.829C927.219 202.023 933.573 200.072 941.894 197.503C948.98 195.316 956.253 193.059 963.284 190.876C996.184 180.662 1030.2 170.1 1066.49 160.211C1107.52 149.026 1145.78 140.295 1183.46 133.518C1209.57 128.841 1236.73 125.019 1264.19 122.159C1290.2 119.449 1317.35 117.514 1344.87 116.405C1394.98 114.387 1447.47 114.965 1505.34 118.17C1553.17 120.78 1609.31 124.683 1663.02 133.849C1714.93 142.744 1761.98 155.146 1807.47 167.14C1815.72 169.315 1824.26 171.565 1832.58 173.729C1943.35 202.525 2055.66 235.153 2166.38 270.708L2166.12 270.793Z" fill="#115766"/>
<path d="M2162.24 269.695C2052.48 233.749 1942.01 200.719 1833.87 171.523C1824.67 169.04 1815.23 166.433 1806.09 163.912C1762.56 151.906 1717.56 139.491 1667.09 130.949C1613.39 121.901 1557.16 119.014 1509.23 117.383C1391.81 113.281 1288.04 119.843 1192 137.444C1115.53 151.522 1049.98 170.355 986.583 188.57C973.777 192.248 960.539 196.053 947.667 199.679C939.793 201.899 932.817 203.848 926.331 205.637C896.173 213.949 856.055 224.606 813.186 233.315C770.112 242.065 729.372 247.868 688.639 251.054C644.213 254.528 599.874 254.554 560.42 251.129C538.484 249.225 518.126 246.255 499.912 242.302C480.248 238.034 462.88 232.571 448.286 226.066C446.964 225.474 445.637 224.861 444.348 224.248C421.975 213.608 406.938 201.522 392.399 189.835C388.882 187.008 385.247 184.085 381.579 181.245C362.299 166.263 341.363 153.389 317.572 141.891C314.561 140.435 311.442 138.975 308.302 137.55C251.07 111.563 173.518 89.95 84.0276 75.0495C-21.3277 57.5714 -131.765 50.2757 -226.942 54.5038C-291.443 57.4314 -355.846 69.725 -387.195 85.0932C-409.011 95.7877 -414.906 107.742 -404.244 119.663L-404.595 119.695C-410.168 113.465 -411.304 107.244 -407.974 101.204C-404.896 95.6221 -398.007 90.1798 -387.503 85.029C-371.41 77.1397 -347.001 70.0364 -316.912 64.4868C-289.003 59.3396 -257.067 55.7518 -226.993 54.3871C-177.012 52.1664 -123.133 53.0831 -66.8495 57.1106C-16.0332 60.7474 34.7868 66.7472 84.1961 74.9445C173.737 89.8543 251.334 111.479 308.603 137.482C311.743 138.908 314.861 140.369 317.876 141.826C341.678 153.331 362.625 166.21 381.916 181.199C385.584 184.039 389.219 186.963 392.736 189.791C407.268 201.472 422.297 213.552 444.648 224.181C445.938 224.795 447.26 225.405 448.583 225.997C500.81 249.283 590.516 258.607 688.551 250.94C777.924 243.95 855.535 224.993 926.09 205.55C932.571 203.76 939.551 201.813 947.422 199.593C960.29 195.967 973.531 192.163 986.333 188.484C1049.74 170.267 1115.31 151.429 1191.82 137.345C1217.7 132.601 1244.46 128.608 1271.37 125.476C1297.1 122.48 1323.81 120.174 1350.75 118.622C1400.84 115.735 1452.7 115.293 1509.27 117.269C1557.22 118.901 1613.5 121.789 1667.26 130.848C1717.76 139.395 1762.78 151.815 1806.33 163.826C1815.47 166.347 1824.91 168.952 1834.11 171.435C1942.25 200.633 2052.74 233.666 2162.5 269.614L2162.24 269.695Z" fill="#115766"/>
<path d="M2158.35 268.596C2049.58 232.254 1940.92 198.821 1835.4 169.224C1825.71 166.504 1815.73 163.625 1806.09 160.839C1764.15 148.731 1720.78 136.21 1671.33 127.944C1617.41 118.972 1561.13 117.114 1513.19 116.48C1400.21 114.875 1297.88 122.982 1200.38 141.266C1131.99 154.15 1071.04 170.456 1012.08 186.224C991.812 191.647 972.664 196.768 953.189 201.769C945.268 203.804 938.053 205.633 931.128 207.358C886.446 218.479 849.271 226.52 814.133 232.663C770.051 240.369 728.596 245.186 687.398 247.388C671.415 248.242 655.491 248.668 639.857 248.668C612.142 248.668 585.325 247.333 560.637 244.69C515.958 239.907 479.105 231.081 451.101 218.457C449.782 217.859 448.467 217.247 447.192 216.635C425.16 206.088 409.701 194.216 394.752 182.735C390.964 179.826 387.05 176.819 383.104 173.895C363 158.948 341.572 146.182 317.61 134.867C314.554 133.424 311.392 131.976 308.208 130.564C250.203 104.814 172.049 83.4969 82.1999 68.9195C-23.8773 51.7773 -134.619 44.8816 -229.63 49.5028C-294.399 52.7185 -356.944 64.7789 -388.964 80.2287C-411.223 90.9675 -417.899 102.993 -408.277 115.005L-408.633 115.035C-413.656 108.762 -414.323 102.503 -410.611 96.432C-407.174 90.8124 -399.997 85.3398 -389.268 80.1646C-373.007 72.3183 -348.704 65.2384 -318.981 59.6888C-291.373 54.5334 -259.661 50.8757 -229.685 49.3874C-179.763 46.959 -125.825 47.6681 -69.3734 51.495C-18.4325 54.9486 32.6183 60.7759 82.3684 68.8145C172.269 83.4013 250.466 104.73 308.508 130.495C311.692 131.909 314.854 133.356 317.914 134.8C341.891 146.121 363.329 158.894 383.441 173.847C387.387 176.771 391.304 179.779 395.089 182.688C410.031 194.164 425.482 206.031 447.496 216.569C448.771 217.179 450.082 217.791 451.401 218.388C503.694 241.963 589.689 252.491 687.335 247.271C780.288 242.303 862.619 224.26 930.901 207.265C937.823 205.54 945.037 203.712 952.959 201.677C972.429 196.676 991.577 191.556 1011.85 186.133C1070.81 170.362 1131.78 154.053 1200.19 141.165C1225.88 136.348 1252.24 132.184 1278.56 128.787C1304.05 125.498 1330.32 122.821 1356.64 120.833C1406.84 117.041 1458.06 115.578 1513.21 116.362C1561.19 116.996 1617.51 118.857 1671.5 127.839C1720.99 136.111 1764.37 148.638 1806.33 160.751C1815.98 163.536 1825.95 166.416 1835.64 169.135C1941.16 198.734 2049.83 232.17 2158.61 268.515L2158.35 268.596Z" fill="#115766"/>
<path d="M2154.47 267.497C2045.15 230.238 1941.28 197.341 1836.93 166.924C1826.97 164.022 1817.17 161.058 1806.79 157.921C1766.22 145.655 1724.26 132.973 1675.58 124.938C1620.98 115.97 1562.23 115.223 1517.15 115.575C1409.31 116.308 1308.43 125.962 1208.75 145.089C1148.94 156.621 1093.72 170.47 1040.32 183.863C1012.25 190.902 985.741 197.549 958.708 203.858C950.683 205.733 943.227 207.44 935.921 209.079C890.63 219.222 852.231 226.507 815.071 232.008C769.967 238.684 727.797 242.516 686.152 243.722C664.754 244.341 643.503 244.224 622.988 243.375C601.268 242.476 580.361 240.751 560.85 238.249C517.603 232.703 481.626 223.485 453.915 210.85C452.607 210.25 451.303 209.637 450.035 209.025C428.373 198.586 412.526 186.941 397.2 175.68C393.111 172.675 388.883 169.568 384.629 166.547C363.681 151.633 341.771 138.973 317.643 127.844C314.539 126.414 311.333 124.98 308.113 123.58C249.335 98.0668 170.584 77.0463 80.3755 62.792C-2.88574 49.6901 -88.7485 42.854 -167.485 42.854C-189.744 42.854 -211.416 43.3998 -232.32 44.5044C-296.308 47.9522 -358.461 60.0557 -390.668 75.3399C-413.399 86.1289 -420.885 98.2359 -412.315 110.351L-412.674 110.377C-417.148 104.055 -417.334 97.753 -413.231 91.647C-409.427 85.9866 -401.938 80.4778 -390.975 75.2746C-374.546 67.4774 -350.356 60.4266 -321.015 54.8828C-293.318 49.6493 -262.669 46.0207 -232.385 44.3901C-182.522 41.7541 -128.525 42.2568 -71.9013 45.8819C-20.8395 49.1501 30.4495 54.8035 80.5367 62.6859C170.796 76.9484 249.595 97.9805 308.41 123.509C311.634 124.909 314.844 126.344 317.947 127.776C342.086 138.91 364.008 151.576 384.966 166.497C389.22 169.518 393.452 172.625 397.541 175.631C412.86 186.888 428.699 198.528 450.343 208.959C451.611 209.569 452.915 210.183 454.219 210.781C506.04 234.408 590.561 246.371 686.123 243.604C782.82 240.803 870.302 223.63 935.716 208.981C943.022 207.342 950.475 205.635 958.499 203.762C985.528 197.455 1012.03 190.807 1040.1 183.769C1093.51 170.374 1148.73 156.522 1208.56 144.987C1259.89 135.139 1310.25 127.962 1362.53 123.045C1412.96 118.302 1463.54 115.82 1517.15 115.456C1547.74 115.217 1572.7 115.632 1595.69 116.761C1625.38 118.219 1651.57 120.859 1675.75 124.832C1724.48 132.874 1766.46 145.563 1807.05 157.834C1817.43 160.972 1827.23 163.934 1837.18 166.836C1941.54 197.254 2045.42 230.154 2154.74 267.415L2154.47 267.497Z" fill="#115766"/>
<path d="M2150.58 266.398C2042.27 228.731 1940.17 195.441 1838.45 164.623C1828.39 161.574 1818.47 158.433 1807.97 155.108C1768.61 142.649 1727.91 129.764 1679.82 121.93C1624.77 113.004 1566.09 113.361 1521.11 114.668C1419.35 117.525 1319.91 128.726 1217.12 148.909C1166.48 158.901 1118.26 170.336 1071.63 181.396C1034.76 190.138 999.947 198.396 964.23 205.943C956.158 207.651 948.244 209.284 940.714 210.795C895.335 219.898 854.544 226.62 816.009 231.346C769.868 237.005 726.984 239.853 684.907 240.052C663.498 240.152 642.331 239.536 622.006 238.219C600.7 236.838 580.196 234.679 561.063 231.801C519.3 225.517 484.195 215.908 456.726 203.237C455.436 202.639 454.139 202.024 452.875 201.41C431.62 191.098 415.429 179.699 399.769 168.675C395.339 165.556 390.755 162.33 386.15 159.194C364.345 144.307 341.947 131.755 317.676 120.816C314.529 119.399 311.279 117.977 308.014 116.591C248.463 91.314 169.111 70.5898 78.5439 56.6586C-28.9732 40.1894 -140.334 34.0962 -235.016 39.5012C-298.176 43.1695 -359.915 55.3044 -392.301 70.4149C-415.546 81.261 -423.863 93.459 -416.359 105.692L-416.718 105.714C-420.632 99.3375 -420.331 92.9866 -415.821 86.8386C-411.633 81.1315 -403.825 75.5831 -392.605 70.3484C-376.015 62.6071 -351.946 55.5914 -323 50.0593C-295.622 44.8269 -265.222 41.1365 -235.082 39.3857C-185.273 36.5433 -131.221 36.8372 -74.429 40.2617C-23.2426 43.3479 28.2772 48.8287 78.7015 56.5525C169.324 70.4907 248.719 91.2277 308.304 116.519C311.572 117.906 314.826 119.329 317.973 120.748C342.258 131.692 364.664 144.25 386.479 159.142C391.089 162.279 395.669 165.505 400.102 168.625C415.755 179.644 431.939 191.038 453.179 201.343C454.443 201.957 455.74 202.571 457.026 203.168C509.393 227.322 590.32 240.381 684.899 239.933C761.642 239.571 842.866 230.28 940.516 210.694C948.042 209.182 955.953 207.551 964.025 205.843C999.73 198.297 1034.55 190.041 1071.4 181.299C1118.04 170.238 1166.27 158.801 1216.93 148.806C1268.75 138.629 1318.3 130.927 1368.42 125.254C1419.18 119.509 1469.12 116.006 1521.08 114.548C1566.1 113.238 1624.85 112.883 1679.99 121.823C1728.13 129.666 1768.85 142.557 1808.23 155.022C1818.73 158.347 1828.65 161.487 1838.71 164.535C1940.43 195.354 2042.53 228.646 2150.85 266.315L2150.58 266.398Z" fill="#115766"/>
<path d="M2146.7 265.299C2039.39 227.223 1939.07 193.539 1839.98 162.324C1829.93 159.155 1819.99 155.863 1809.48 152.376C1771.24 139.694 1731.69 126.581 1684.07 118.925C1628.5 110.031 1569.91 111.495 1525.08 113.763C1429.32 118.516 1334.13 130.899 1225.5 152.731C1184.75 160.956 1144.93 169.979 1106.43 178.705C1059.66 189.303 1015.49 199.314 969.75 208.032C961.51 209.605 953.354 211.114 945.509 212.516C899.317 220.767 857.265 226.711 816.949 230.686C794.368 232.912 772.076 234.526 750.693 235.481C727.884 236.499 705.332 236.803 683.663 236.386C639.698 235.538 598.522 231.827 561.281 225.355C521.061 218.367 486.832 208.366 459.546 195.629C458.263 195.026 456.977 194.41 455.721 193.799C434.92 183.639 418.439 172.51 402.504 161.749C397.679 158.492 392.692 155.123 387.676 151.846C364.992 136.984 342.107 124.537 317.712 113.794C314.52 112.388 311.223 110.979 307.918 109.606C247.593 84.5655 167.644 64.1376 76.7178 50.5318C-31.5175 34.3996 -143.182 28.7077 -237.707 34.5034C-338.918 40.8054 -437.542 68.0345 -420.395 101.037L-420.758 101.056C-425.048 92.8002 -422.535 84.667 -413.29 76.8803C-404.848 69.7689 -390.995 63.0762 -372.114 56.99C-354.56 51.3308 -333.499 46.4448 -309.522 42.4675C-286.717 38.6849 -261.908 35.8903 -237.78 34.388C-188.03 31.3379 -133.92 31.4254 -76.955 34.6492C-25.644 37.5524 26.1103 42.8605 76.8716 50.4268C167.849 64.042 247.846 84.4816 308.207 109.537C311.516 110.91 314.813 112.319 318.008 113.726C342.414 124.474 365.311 136.928 388.006 151.796C393.022 155.073 398.009 158.442 402.834 161.7C418.765 172.458 435.239 183.582 456.028 193.736C457.281 194.347 458.564 194.963 459.846 195.565C512.289 220.043 591.784 234.498 683.685 236.27C761.487 237.769 847.071 229.967 945.329 212.416C953.17 211.014 961.323 209.506 969.563 207.933C1015.29 199.217 1059.46 189.207 1106.22 178.611C1144.73 169.884 1184.55 160.859 1225.3 152.633C1333.98 130.791 1429.21 118.404 1525.02 113.648C1555.14 112.124 1580.08 111.636 1603.52 112.115C1633.47 112.728 1659.87 114.921 1684.23 118.82C1731.9 126.484 1771.47 139.606 1809.74 152.295C1820.25 155.78 1830.18 159.073 1840.24 162.24C1939.33 193.457 2039.66 227.142 2146.96 265.221L2146.7 265.299Z" fill="#115766"/>
<path d="M2142.81 264.201C2036.53 225.709 1937.97 191.633 1841.51 160.025C1831.53 156.754 1821.67 153.328 1811.23 149.7C1774.02 136.775 1735.54 123.41 1688.31 115.918C1631.53 106.95 1570.22 109.876 1529.04 112.857C1417.27 120.849 1317.11 139.43 1233.87 156.553C1203.96 162.733 1174.12 169.279 1145.25 175.609C1087.36 188.307 1032.68 200.301 975.276 210.122C966.834 211.567 958.437 212.951 950.31 214.238C903.216 221.678 859.904 226.843 817.899 230.025C770.282 233.632 724.705 234.54 682.426 232.72C638.992 230.85 598.307 226.204 561.506 218.908C522.905 211.257 489.552 200.865 462.365 188.022C461.097 187.419 459.818 186.802 458.569 186.189C438.285 176.215 421.599 165.392 405.459 154.925C400.171 151.495 394.701 147.949 389.205 144.498C365.297 129.449 342.591 117.462 317.753 106.771C314.518 105.379 311.18 103.984 307.827 102.622C246.722 77.8194 166.172 57.6877 74.8868 44.4038C-34.0665 28.6099 -146.039 23.3181 -240.402 29.5045C-341.976 36.252 -438.586 63.1114 -424.435 96.3823L-424.798 96.3975C-428.308 88.143 -425.271 80.018 -415.773 72.2488C-407.068 65.1304 -393.133 58.4307 -374.352 52.3375C-356.838 46.655 -335.887 41.7328 -312.078 37.7053C-289.409 33.8703 -264.647 30.9952 -240.476 29.3891C-190.78 26.1314 -136.615 26.0124 -79.4821 29.0345C-28.0465 31.7545 23.9423 36.89 75.0407 44.2977C166.381 57.5886 246.975 77.7319 308.109 102.55C311.462 103.912 314.803 105.309 318.042 106.701C342.895 117.397 365.609 129.391 389.527 144.445C395.023 147.897 400.494 151.443 405.781 154.874C421.917 165.337 438.6 176.157 458.869 186.126C460.119 186.739 461.394 187.355 462.661 187.958C515.511 212.923 593.573 228.779 682.47 232.605C762.199 236.036 849.754 229.993 950.145 214.133C958.268 212.847 966.666 211.464 975.101 210.019C1032.49 200.2 1087.16 188.209 1145.05 175.512C1173.91 169.182 1203.75 162.635 1233.67 156.454C1289.64 144.941 1336.2 136.435 1380.19 129.685C1431.98 121.739 1480.64 116.198 1528.95 112.743C1558.41 110.611 1584.08 109.645 1607.43 109.792C1637.51 109.981 1664.02 111.95 1688.47 115.813C1735.77 123.314 1774.26 136.688 1811.49 149.62C1821.94 153.248 1831.8 156.674 1841.77 159.942C1938.24 191.552 2036.8 225.63 2143.09 264.123L2142.81 264.201Z" fill="#115766"/>
<path d="M2138.93 263.1C2033.67 224.192 1936.88 189.723 1843.04 157.723C1833.2 154.367 1823.46 150.822 1813.15 147.069C1776.92 133.884 1739.47 120.25 1692.56 112.91C1635.16 103.963 1574.01 108.077 1533 111.951C1431.74 121.434 1341.41 139.492 1242.25 160.374C1224.36 164.154 1206.27 168.056 1188.78 171.83C1121.49 186.344 1051.92 201.352 980.798 212.209C972.158 213.529 963.511 214.79 955.102 215.956C907.69 222.525 861.846 227.035 818.841 229.359C770.124 231.993 723.811 231.889 681.176 229.053C638.351 226.203 598.161 220.62 561.718 212.457C524.84 204.197 492.354 193.416 465.167 180.415C463.911 179.81 462.643 179.192 461.401 178.579C441.729 168.838 424.937 158.368 408.698 148.242C402.846 144.594 396.797 140.822 390.718 137.151C365.876 122.118 342.698 110.234 317.775 99.7503C314.503 98.3739 311.117 96.9906 307.717 95.6399C245.85 71.0702 164.707 51.2348 73.0548 38.2752C-36.6131 22.8195 -148.89 17.9289 -243.099 24.5049C-341.449 31.4448 -439.842 57.3618 -428.48 91.7256L-428.843 91.7372C-431.573 83.4828 -428.011 75.3671 -418.261 67.6154C-409.296 60.4888 -395.277 53.7833 -376.598 47.6832C-342.134 36.4299 -293.505 27.9399 -243.18 24.3894C-193.543 20.9253 -139.319 20.5987 -82.014 23.419C-30.4539 25.957 21.7658 30.9188 73.2014 38.1679C164.904 51.1345 246.096 70.9827 308.003 95.5641C311.407 96.916 314.792 98.2993 318.068 99.6768C343.002 110.166 366.191 122.055 391.041 137.094C397.119 140.766 403.172 144.538 409.024 148.186C425.259 158.309 442.047 168.778 461.709 178.513C462.947 179.127 464.215 179.744 465.472 180.348C519.864 206.361 594.478 223.162 681.246 228.937C761.591 234.284 853.675 229.881 954.948 215.849C963.354 214.683 971.993 213.423 980.63 212.104C1051.73 201.251 1121.29 186.245 1188.56 171.733C1206.06 167.959 1224.15 164.057 1242.04 160.277C1285.44 151.136 1335.95 140.652 1386.08 131.898C1438.52 122.742 1486.54 116.181 1532.89 111.84C1562.07 109.084 1587.74 107.654 1611.35 107.469C1641.12 107.236 1668.49 109.032 1692.71 112.807C1713.72 116.095 1734.87 121.002 1757.37 127.809C1777.23 133.819 1795.63 140.516 1813.42 146.992C1823.72 150.744 1833.46 154.289 1843.3 157.643C1937.15 189.645 2033.94 224.115 2139.2 263.024L2138.93 263.1Z" fill="#115766"/>
<path d="M2135.04 262.002C2030.82 222.674 1935.8 187.812 1844.57 155.424C1834.9 151.995 1825.33 148.343 1815.2 144.478C1779.92 131.019 1743.44 117.102 1696.8 109.906C1653.22 103.203 1600.93 103.577 1536.96 111.047C1447.51 121.434 1367.56 138.807 1282.9 157.202C1272.36 159.493 1261.47 161.86 1250.62 164.199C1246.37 165.117 1242.12 166.037 1237.88 166.956C1157.22 184.416 1073.81 202.47 986.319 214.3C977.474 215.496 968.586 216.634 959.898 217.679C911.445 223.502 864.307 227.209 819.797 228.695C769.955 230.358 722.898 229.246 679.941 225.387C637.783 221.6 598.087 215.08 561.956 206.008C526.935 197.215 495.322 186.045 467.992 172.808C466.746 172.203 465.49 171.583 464.255 170.969C445.33 161.534 428.593 151.486 412.401 141.768C405.847 137.833 399.064 133.764 392.253 129.803C366.451 114.78 342.803 102.998 317.822 92.7269C314.502 91.3622 311.077 89.9929 307.632 88.6551C244.981 64.3233 163.237 44.783 71.226 32.1476C-39.1527 17.0313 -151.741 12.5408 -245.793 19.5064C-342.336 26.7158 -440.59 52.845 -432.519 87.0711L-432.885 87.0805C-434.831 78.8249 -430.749 70.7185 -420.746 62.9866C-411.516 55.8519 -397.417 49.1382 -378.837 43.0334C-344.52 31.7568 -296.059 23.1408 -245.877 19.3932C-196.295 15.7215 -142.016 15.1873 -84.5426 17.807C-32.8579 20.1607 19.5999 24.9499 71.3726 32.0403C163.435 44.6838 245.23 64.2346 307.907 88.5793C311.351 89.9171 314.785 91.2888 318.104 92.6534C343.096 102.93 366.759 114.715 392.568 129.744C399.383 133.705 406.162 137.776 412.72 141.711C428.904 151.426 445.642 161.472 464.559 170.903C465.794 171.518 467.047 172.136 468.293 172.742C523.865 199.657 597.083 217.821 680.036 225.272C761.924 232.627 856.038 230.034 959.766 217.567C968.446 216.522 977.332 215.385 986.173 214.19C1073.64 202.365 1157.03 184.314 1237.67 166.857C1241.92 165.937 1246.16 165.018 1250.41 164.1C1261.26 161.761 1272.15 159.394 1282.69 157.104C1367.37 138.706 1447.35 121.328 1536.83 110.936C1565.73 107.561 1591.39 105.668 1615.27 105.146C1645.16 104.494 1672.64 106.061 1696.96 109.8C1717.85 113.023 1738.73 117.952 1760.81 124.87C1780.28 130.974 1798.18 137.8 1815.48 144.402C1825.62 148.266 1835.18 151.917 1844.84 155.345C1936.08 187.734 2031.1 222.597 2135.32 261.926L2135.04 262.002Z" fill="#115766"/>
<path d="M2131.16 260.903C2036.03 224.256 1940.12 187.993 1846.09 153.124C1836.52 149.595 1827.03 145.803 1816.99 141.789C1784.33 128.733 1747.3 113.935 1701.05 106.901C1656.95 100.209 1604.58 101.269 1540.92 110.141C1465.23 120.655 1398.24 136.114 1327.33 152.48C1305.12 157.605 1282.15 162.907 1258.99 168.02C1218.56 176.965 1174.82 186.43 1128.97 195.051C1079.87 204.284 1035.01 211.262 991.83 216.387C982.758 217.464 973.627 218.478 964.684 219.398C915.205 224.487 866.785 227.383 820.768 228.006C769.827 228.694 722.026 226.58 678.688 221.719C598.659 212.63 528.713 193.615 470.795 165.2C469.561 164.593 468.315 163.973 467.087 163.358C449.123 154.34 432.678 144.825 416.777 135.624C409.291 131.293 401.553 126.814 393.767 122.455C366.983 107.436 342.859 95.7582 317.848 85.7052C314.481 84.3522 311.011 82.9957 307.526 81.6719C244.113 57.5745 161.768 38.3316 69.3979 26.0193C-41.6953 11.2413 -154.588 7.15317 -248.485 14.5072C-345.615 22.1574 -441.407 47.9402 -436.56 82.416L-436.926 82.4207C-438.088 74.1627 -433.478 66.0658 -423.23 58.3537C-413.733 51.2096 -399.553 44.4889 -381.079 38.3794C-363.675 32.6234 -343.047 27.5904 -319.769 23.4195C-297.169 19.371 -273.218 16.3337 -248.577 14.3929C-199.05 10.5147 -144.713 9.77285 -87.0705 12.1907C-35.2613 14.3637 17.4274 18.9791 69.5371 25.9109C161.962 38.2301 244.355 57.4847 307.805 81.5937C311.289 82.9187 314.766 84.2764 318.134 85.6294C343.155 95.6882 367.29 107.371 394.085 122.395C401.871 126.755 409.61 131.234 417.095 135.566C432.997 144.766 449.438 154.279 467.395 163.294C468.619 163.91 469.868 164.529 471.099 165.136C528.973 193.529 598.857 212.529 678.809 221.608C761.165 230.846 859.98 230.043 964.57 219.286C973.507 218.366 982.637 217.353 991.702 216.278C1088.25 204.82 1176.58 186.108 1258.78 167.923C1281.94 162.81 1304.9 157.51 1327.11 152.385C1398.04 136.015 1465.04 120.552 1540.77 110.034C1604.52 101.148 1657 100.088 1701.2 106.794C1721.92 109.945 1742.49 114.883 1764.09 121.89C1783.13 128.068 1800.49 135.007 1817.28 141.716C1827.32 145.729 1836.8 149.52 1846.37 153.047C1940.4 187.917 2036.31 224.18 2131.44 260.829L2131.16 260.903Z" fill="#115766"/>
<path d="M2127.27 259.805C2033.6 222.955 1939.51 186.288 1847.62 150.825C1838.35 147.257 1829.15 143.398 1819.4 139.314C1787.54 125.953 1751.43 110.809 1705.29 103.893C1660.67 97.2133 1608.2 98.9606 1544.87 109.233C1478.53 119.98 1417.57 135.154 1358.63 149.831C1329.07 157.19 1298.5 164.799 1267.36 171.841C1218.2 182.965 1176.84 191.452 1137.2 198.549C1088.31 207.301 1042.56 213.818 997.351 218.475C988.07 219.431 978.691 220.32 969.476 221.116C921.462 225.265 874.314 227.365 829.209 227.366C826.703 227.366 824.212 227.359 821.72 227.346C769.574 227.076 721.033 223.947 677.446 218.05C656.407 215.188 635.804 211.555 616.213 207.251C597.797 203.206 579.701 198.441 562.425 193.09C531.343 183.462 502.287 171.85 473.605 157.591C472.374 156.977 471.146 156.363 469.926 155.746C453.284 147.333 437.54 138.538 422.316 130.033C413.526 125.124 404.439 120.046 395.287 115.104C367.107 99.8785 343.235 88.644 317.877 78.6796C314.466 77.3394 310.952 75.9958 307.423 74.6848C243.241 50.8265 160.298 31.8799 67.5691 19.8907C-44.2349 5.4521 -157.435 1.76518 -251.179 9.5076C-346.487 17.4016 -442.155 43.3804 -440.598 77.7593L-440.964 77.7605C-441.69 61.7473 -421.754 46.5203 -383.315 33.7263C-365.94 27.9434 -345.421 22.8743 -322.323 18.6567C-299.848 14.5533 -275.944 11.4368 -251.271 9.39329C-201.803 5.30747 -147.406 4.35921 -89.5955 6.57532C-37.6617 8.56633 15.2615 13.0091 67.7047 19.781C160.492 31.7784 243.482 50.7367 307.705 74.609C311.234 75.9211 314.755 77.266 318.166 78.6061C343.536 88.5763 367.418 99.8144 395.605 115.046C404.758 119.989 413.849 125.066 422.635 129.976C437.859 138.48 453.599 147.273 470.238 155.684C471.458 156.301 472.682 156.916 473.913 157.528C534.86 187.828 601.483 207.59 677.589 217.943C782.999 232.205 894.447 227.48 969.38 221.004C978.588 220.208 987.961 219.32 997.238 218.364C1101.22 207.654 1196.1 187.825 1267.15 171.746C1298.29 164.707 1328.85 157.098 1358.4 149.74C1417.37 135.061 1478.33 119.882 1544.71 109.13C1573.04 104.534 1598.69 101.711 1623.1 100.503C1653.22 99.0119 1680.92 100.118 1705.44 103.789C1726.1 106.886 1746.48 111.864 1767.72 119.007C1786.44 125.301 1803.35 132.389 1819.7 139.245C1829.44 143.328 1838.63 147.186 1847.9 150.751C1939.79 186.215 2033.88 222.881 2127.56 259.732L2127.27 259.805Z" fill="#115766"/>
<path d="M2123.39 258.706L1849.15 148.525C1840.19 144.927 1831.3 141.011 1821.88 136.867C1790.81 123.19 1755.58 107.689 1709.53 100.888C1665 94.3121 1610.94 96.8151 1548.83 108.328C1489.13 119.396 1434.68 134.115 1382.02 148.349C1347.7 157.628 1312.2 167.221 1275.74 175.665C1166.13 201.043 1070.33 216.032 974.275 222.838C934.425 225.66 895.114 227.081 856.99 227.081C845.434 227.081 833.995 226.95 822.676 226.689C769.299 225.457 720.018 221.317 676.207 214.384C635.602 207.957 598.457 198.885 562.659 186.647C534.072 176.875 506.669 165.225 476.423 149.984C460.458 141.941 445 133.584 430.051 125.502C396.217 107.213 361.233 88.3017 317.921 71.6575C251.485 46.129 164.281 26.1093 65.7369 13.762C-46.7743 -0.336004 -160.282 -3.62286 -253.872 4.50796C-344.483 12.3798 -442.829 37.2027 -444.639 73.1038L-445.006 73.1015C-444.196 57.0545 -423.637 41.8297 -385.553 29.073C-351.119 17.5387 -304.388 8.77457 -253.967 4.39482C-204.554 0.102555 -150.1 -1.05333 -92.1238 0.961009C-40.0654 2.76889 13.0923 7.04017 65.8725 13.6535C114.633 19.763 160.943 27.8052 203.519 37.5573C246.45 47.391 285.036 58.8378 318.199 71.5805C361.53 88.2306 396.525 107.147 430.366 125.44C445.315 133.521 460.773 141.877 476.734 149.919C520.863 172.157 583.438 199.568 676.372 214.276C782.951 231.143 897.155 228.178 974.195 222.721C1070.21 215.92 1165.95 200.936 1275.52 175.568C1311.97 167.128 1347.46 157.534 1381.78 148.258C1434.45 134.021 1488.92 119.299 1548.65 108.226C1610.86 96.6926 1665.04 94.1873 1709.69 100.781C1730.31 103.826 1750.49 108.847 1771.4 116.134C1789.8 122.548 1806.26 129.792 1822.18 136.797C1831.59 140.942 1840.49 144.855 1849.44 148.452L2123.68 258.633L2123.39 258.706Z" fill="#115766"/>
<path d="M2121.18 250.236C2051.35 219.557 1991.43 194.663 1932.62 171.895C1904.08 160.834 1874.92 149.947 1845.97 139.536C1837.21 136.387 1828.54 133.037 1819.35 129.49C1796.27 120.575 1772.4 111.357 1744.93 104.516C1730.18 100.837 1715.98 98.2017 1701.52 96.4615C1657.14 91.067 1605.07 94.6338 1546.75 107.064C1516.57 113.487 1489.09 120.797 1466.19 127.1C1441.95 133.773 1418.03 141.131 1394.9 148.247C1361.66 158.477 1327.28 169.053 1290.33 178.137C1267.84 183.681 1245.05 188.634 1222.58 192.861C1177.62 201.318 1129.36 208.286 1079.15 213.572C1048.13 216.801 1016.95 219.243 986.502 220.826C960.257 222.186 933.964 222.971 908.349 223.159C870.012 223.441 832.661 222.365 797.333 219.956C759.769 217.395 724.221 213.307 691.677 207.804C662.658 202.897 635.247 196.719 607.881 188.914C556.885 174.384 516.21 157.582 486.473 144.568C471.865 138.144 457.601 131.594 443.806 125.259C404.084 107.016 366.564 89.7851 319.614 74.4368C281.321 62.0008 237.631 51.269 189.746 42.5375C152.948 35.8273 112.926 30.3395 70.7935 26.2257C60.7577 25.2471 50.5315 24.335 40.4078 23.5174C-3.17944 20.0031 -52.248 17.7146 -105.431 16.7151C-159.051 15.684 -205.441 16.5763 -247.244 19.4455C-270.877 21.0551 -293.773 23.5804 -315.307 26.95C-391.328 38.8471 -440.143 58.819 -445.889 80.3759L-446.347 80.3631C-444.815 74.6164 -440.319 68.9559 -432.988 63.537C-426.022 58.3897 -416.456 53.4256 -404.555 48.7823C-382.069 40.0111 -351.276 32.4157 -315.508 26.8182C-293.942 23.4427 -271.009 20.914 -247.339 19.3021C-205.492 16.4305 -159.065 15.537 -105.402 16.5693C-52.1894 17.5688 -3.09518 19.8596 40.5213 23.3762C50.656 24.195 60.886 25.1071 70.9291 26.0869C113.095 30.203 153.15 35.6955 189.977 42.4115C237.895 51.1489 281.621 61.89 319.932 74.3341C366.913 89.6918 404.439 106.927 444.176 125.175C457.967 131.51 472.231 138.059 486.836 144.481C516.558 157.49 557.214 174.283 608.181 188.805C635.518 196.601 662.9 202.773 691.886 207.674C755.577 218.444 828.4 223.605 908.334 223.013C933.927 222.826 960.202 222.041 986.425 220.682C1016.86 219.098 1048.01 216.659 1079 213.432C1129.19 208.149 1177.41 201.186 1222.34 192.734C1244.8 188.511 1267.58 183.56 1290.04 178.02C1326.98 168.941 1361.35 158.367 1394.58 148.141C1417.71 141.024 1441.63 133.663 1465.89 126.988C1488.8 120.681 1516.29 113.369 1546.5 106.941C1572.46 101.407 1597.6 97.5835 1621.22 95.5762C1650.24 93.1105 1677.31 93.3624 1701.68 96.325C1716.19 98.0711 1730.42 100.713 1745.21 104.401C1772.72 111.252 1796.6 120.476 1819.7 129.396C1828.89 132.942 1837.56 136.292 1846.31 139.439C1875.27 149.851 1904.43 160.739 1932.98 171.802C1991.79 194.574 2051.71 219.47 2121.55 250.15L2121.18 250.236Z" fill="#115766"/>
<path d="M2118.97 241.763C2054.22 210.566 1993.46 184.46 1933.19 161.955C1903.81 150.962 1873.39 140.395 1842.79 130.547C1834.67 127.934 1826.66 125.219 1818.17 122.345C1792.76 113.738 1766.48 104.839 1737.05 98.6815C1722.19 95.5591 1707.95 93.385 1693.51 92.0343C1638.22 86.8603 1582.06 96.6625 1544.67 105.796C1518.19 112.249 1494 119.545 1469.49 127.076C1448.05 133.668 1427.87 140.76 1406.51 148.267C1374.8 159.41 1342.02 170.933 1304.92 180.608C1282.9 186.38 1259.92 191.371 1236.62 195.442C1193.22 203.026 1145.7 208.915 1091.33 213.447C1060.9 215.983 1029.75 217.79 998.719 218.815C972.539 219.67 946.407 219.976 921.045 219.72C883.313 219.344 846.431 217.656 811.417 214.701C774.645 211.597 739.559 207.063 707.136 201.222C678.728 196.107 651.3 189.759 623.281 181.819C572.395 167.417 528.804 151.452 496.517 139.151C484.565 134.598 472.803 130.016 461.426 125.584C416.121 107.934 373.328 91.2622 321.307 77.2167C282.428 66.7193 238.778 57.8431 191.578 50.8355C155.865 45.5332 118.012 41.5605 75.861 38.6901C66.1331 38.0287 56.2366 37.4327 46.45 36.9183C3.46365 34.6707 -42.4136 33.8204 -97.9199 32.941C-137.931 32.275 -190.308 31.8364 -240.626 34.3815C-264.457 35.5642 -287.493 37.6182 -309.1 40.4839C-385.172 50.5766 -436.776 68.2076 -447.145 87.6488L-447.688 87.6196C-444.939 82.4642 -439.37 77.408 -431.144 72.5897C-423.303 67.9988 -413 63.5969 -400.524 59.5029C-376.814 51.7255 -345.274 45.0923 -309.312 40.3218C-287.665 37.4502 -264.585 35.3927 -240.714 34.2077C-190.349 31.6591 -137.931 32.0989 -97.8943 32.7649C-42.3697 33.6443 3.52228 34.4946 46.5379 36.7434C56.3318 37.2589 66.2357 37.8549 75.9747 38.5163C118.166 41.3902 156.056 45.3664 191.809 50.6746C239.057 57.6892 282.743 66.5723 321.662 77.0802C373.721 91.1362 416.531 107.813 461.851 125.47C473.224 129.901 484.986 134.482 496.938 139.035C529.218 151.331 572.791 167.29 623.647 181.684C651.633 189.617 679.032 195.957 707.407 201.067C771.161 212.55 843.049 218.766 921.063 219.543C946.404 219.797 972.51 219.493 998.664 218.638C1029.66 217.614 1060.79 215.809 1091.19 213.275C1145.51 208.747 1193 202.862 1236.36 195.286C1259.63 191.22 1282.58 186.236 1304.57 180.469C1341.64 170.802 1374.41 159.284 1406.11 148.146C1427.48 140.636 1447.66 133.543 1469.12 126.948C1493.63 119.412 1517.83 112.114 1544.34 105.654C1568.58 99.7324 1592.48 95.4728 1615.39 92.9908C1643.17 89.9815 1669.51 89.6025 1693.67 91.8629C1708.16 93.2194 1722.45 95.4005 1737.36 98.5322C1766.84 104.701 1793.14 113.609 1818.58 122.223C1827.06 125.095 1835.08 127.809 1843.19 130.421C1873.8 140.272 1904.22 150.843 1933.62 161.84C1993.89 184.351 2054.68 210.461 2119.43 241.665L2118.97 241.763Z" fill="#115766"/>
<path d="M2116.76 233.291C2056.16 201.152 1996.31 174.566 1933.77 152.017C1903.53 141.091 1871.85 130.845 1839.62 121.559C1832.73 119.574 1825.63 117.468 1818.77 115.431C1790.45 107.017 1761.16 98.3168 1729.18 92.8477C1714.17 90.263 1699.88 88.5484 1685.51 87.6072C1630.33 83.9925 1577.34 94.8142 1542.59 104.528C1519.05 111.085 1497.52 118.517 1476.7 125.706L1472.8 127.052C1453.9 133.573 1436.17 140.725 1417.4 148.298C1387.5 160.358 1356.59 172.826 1319.51 183.079C1297.93 189.088 1274.77 194.116 1250.67 198.023C1208.65 204.836 1161.88 209.698 1103.5 213.323C1073.31 215.197 1042.17 216.368 1010.93 216.802C984.813 217.151 958.843 216.976 933.73 216.28C857.701 214.181 786.663 206.901 722.587 194.641C694.887 189.341 667.44 182.827 638.681 174.723C590.011 161.038 546.725 146.971 506.563 133.736C501.177 131.962 495.85 130.2 490.563 128.451C435.709 110.315 383.899 93.1848 323.011 80C283.26 71.3922 239.654 64.3729 193.41 59.1359C159.46 55.2915 122.665 52.6811 80.9322 51.1555C71.5267 50.8138 61.9599 50.5327 52.4958 50.3204C28.6869 49.7955 3.43448 49.7104 -23.3019 49.6206C-44.7767 49.5482 -66.9807 49.4736 -90.4121 49.1692C-135.666 48.5312 -186.955 47.8092 -234.016 49.3208C-258.298 50.1011 -281.473 51.6827 -302.9 54.0225C-378.943 62.3271 -433.339 77.6195 -448.409 94.9297L-449.028 94.8749C-445.057 90.3108 -438.417 85.8588 -429.298 81.6423C-420.577 77.6101 -409.541 73.7681 -396.497 70.2235C-371.549 63.4445 -339.254 57.7759 -303.112 53.8289C-281.637 51.4833 -258.415 49.8982 -234.086 49.1167C-186.977 47.6039 -135.663 48.3271 -90.3901 48.9651C-66.9734 49.2683 -44.7694 49.3441 -23.3019 49.4164C3.4455 49.5063 28.7052 49.5914 52.536 50.1174C62.0075 50.3309 71.5853 50.612 80.9982 50.9537C122.783 52.4805 159.621 55.0944 193.619 58.9446C239.918 64.1875 283.571 71.2149 323.366 79.8321C384.31 93.0285 436.145 110.167 491.021 128.311C496.308 130.06 501.639 131.821 507.021 133.596C547.175 146.829 590.448 160.892 639.102 174.572C667.832 182.667 695.25 189.175 722.917 194.468C786.909 206.713 857.855 213.983 933.785 216.079C958.869 216.774 984.813 216.949 1010.9 216.6C1042.1 216.167 1073.22 214.997 1103.37 213.125C1161.69 209.503 1208.41 204.647 1250.37 197.844C1274.43 193.945 1297.54 188.926 1319.08 182.927C1356.12 172.687 1387.01 160.226 1416.89 148.174C1435.67 140.597 1453.41 133.441 1472.33 126.915L1476.22 125.569C1497.05 118.377 1518.59 110.941 1542.17 104.376C1577.02 94.6311 1630.2 83.7779 1685.63 87.4089C1700.07 88.3548 1714.41 90.0752 1729.48 92.6704C1761.53 98.1512 1790.85 106.861 1819.21 115.284C1826.06 117.321 1833.16 119.427 1840.04 121.411C1872.29 130.701 1903.98 140.954 1934.24 151.885C1996.81 174.444 2056.68 201.039 2117.3 233.189L2116.76 233.291Z" fill="#115766"/>
<path d="M2114.55 224.817C2058.91 192.192 1998.28 164.354 1934.34 142.079C1903.26 131.222 1870.32 121.295 1836.45 112.573C1831.56 111.313 1826.55 110.006 1821.7 108.741C1789.69 100.389 1756.59 91.7507 1721.33 87.0152C1706.19 84.9612 1691.86 83.7073 1677.52 83.1801C1622.5 81.16 1572.65 92.9835 1540.53 103.258C1520.57 109.606 1502.57 116.664 1485.15 123.491C1482.14 124.673 1479.13 125.852 1476.11 127.027C1459.55 133.479 1444.06 140.687 1427.66 148.318C1399.79 161.29 1370.96 174.703 1334.1 185.551C1312.45 191.92 1289.76 196.845 1264.71 200.608C1212.32 208.477 1159.97 211.39 1115.67 213.202C1085.7 214.427 1054.57 214.963 1023.14 214.793C997.103 214.636 971.29 213.979 946.418 212.843C872.673 209.482 802.565 201.145 738.045 188.062C711.199 182.62 683.737 175.936 654.084 167.631C624.131 159.261 596.219 151.207 569.222 143.418C550.876 138.124 533.545 133.123 516.621 128.326C452.647 110.191 394.049 94.2467 324.729 82.7859C284.124 76.0734 240.563 70.9087 195.253 67.4364C162.779 64.9473 128.066 63.7354 86.0143 63.62C76.9421 63.599 67.7015 63.6328 58.5524 63.7214C44.6548 63.8649 30.2771 64.1647 15.0605 64.4831C-14.1418 65.0931 -47.2462 65.7848 -82.9045 65.3975C-96.4834 65.2494 -110.337 65.0406 -123.736 64.8377C-158.2 64.3163 -193.836 63.7774 -227.41 64.2592C-252.065 64.6137 -275.383 65.7241 -296.708 67.56C-372.622 74.0975 -429.807 87.0525 -449.681 102.214L-450.358 102.124C-445.155 98.1541 -437.446 94.3074 -427.447 90.6904C-417.844 87.217 -406.075 83.9359 -392.474 80.9395C-366.265 75.166 -333.22 70.4619 -296.905 67.3349C-275.53 65.4943 -252.16 64.3805 -227.45 64.0259C-193.84 63.543 -158.189 64.083 -123.707 64.6044C-110.311 64.8073 -96.4578 65.0161 -82.8825 65.1643C-47.2572 65.5515 -14.1785 64.861 15.0092 64.251C30.2332 63.9326 44.6145 63.6328 58.5268 63.4893C67.6868 63.4007 76.9348 63.3669 86.0179 63.3879C128.129 63.5022 162.893 64.7175 195.422 67.2101C240.786 70.6871 284.406 75.8576 325.062 82.5794C356.375 87.7558 388.106 94.3144 422.068 102.628C452.472 110.071 482.047 118.215 517.105 128.152C534.029 132.951 551.36 137.951 569.709 143.245C596.702 151.033 624.615 159.087 654.561 167.456C684.184 175.753 711.617 182.43 738.43 187.866C802.862 200.932 872.87 209.257 946.514 212.613C971.356 213.748 997.136 214.403 1023.14 214.561C1054.54 214.731 1085.64 214.196 1115.56 212.971C1159.81 211.162 1212.1 208.253 1264.39 200.398C1289.37 196.645 1312.01 191.734 1333.6 185.38C1370.39 174.552 1399.2 161.149 1427.05 148.187C1443.46 140.552 1458.95 133.34 1475.54 126.881C1478.55 125.706 1481.56 124.527 1484.57 123.347C1502 116.515 1520.02 109.452 1539.99 103.096C1560.9 96.4115 1582.34 91.269 1603.73 87.8118C1629.07 83.7167 1653.92 82.0814 1677.59 82.9515C1692 83.4811 1706.4 84.7407 1721.6 86.8029C1756.95 91.5512 1790.1 100.2 1822.15 108.563C1827 109.827 1832.01 111.135 1836.89 112.393C1870.79 121.122 1903.75 131.059 1934.86 141.924C1968.81 153.752 2002.06 167.228 2033.68 181.978C2061.63 195.015 2089.05 209.391 2115.17 224.707L2114.55 224.817Z" fill="#115766"/>
<path d="M2112.33 216.34C2060.84 182.779 2001.15 154.45 1934.92 132.139C1902.98 121.351 1868.79 111.745 1833.29 103.585C1831.6 103.196 1829.91 102.808 1828.22 102.418C1791.3 93.9224 1753.13 85.1373 1713.49 81.1821C1698.13 79.6495 1683.75 78.8552 1669.55 78.7525C1614.75 78.3583 1568.02 91.1698 1538.47 101.986C1521.08 108.313 1505.64 115.248 1490.71 121.955C1487.02 123.614 1483.2 125.328 1479.44 126.999C1465.09 133.36 1451.75 140.593 1437.62 148.251C1411.94 162.181 1385.38 176.585 1348.71 188.02C1327.49 194.636 1304.61 199.597 1278.76 203.19C1227.84 210.266 1176.13 212.124 1127.84 213.078C1098.06 213.666 1066.94 213.566 1035.34 212.781C1009.4 212.116 983.747 210.979 959.107 209.402C887.871 204.853 818.694 195.459 753.507 181.48C727.401 175.883 700.705 169.227 669.499 160.535C610.189 144.061 566.148 132.458 526.701 122.914C448.243 103.931 388.362 92.763 326.48 85.5712C285.051 80.7563 241.534 77.4473 197.129 75.7351C166.322 74.5477 133.628 74.6539 91.1255 76.0827C82.4161 76.3789 73.5052 76.7277 64.6383 77.1207C56.2623 77.4975 47.7545 77.9291 38.7446 78.3851C5.47897 80.0705 -32.2275 81.981 -75.3824 81.6241C-98.1286 81.4363 -121.362 80.922 -143.83 80.4251C-169.365 79.8606 -195.767 79.2762 -220.8 79.1969C-245.899 79.1176 -269.359 79.7568 -290.512 81.0981C-366.174 85.8931 -426.154 96.5129 -450.956 109.505L-451.659 109.369C-445.218 105.993 -436.439 102.752 -425.568 99.7345C-415.074 96.8209 -402.58 94.102 -388.429 91.6515C-360.942 86.8903 -327.137 83.1509 -290.673 80.8403C-269.462 79.4967 -245.95 78.8552 -220.793 78.9345C-195.738 79.0138 -169.321 79.5981 -143.775 80.1638C-121.315 80.6607 -98.092 81.1751 -75.364 81.3629C-32.2861 81.7186 5.38004 79.8104 38.6091 78.1273C47.6226 77.6701 56.1377 77.2397 64.5173 76.8618C73.3953 76.4687 82.3135 76.12 91.0302 75.8226C133.599 74.3926 166.348 74.2853 197.221 75.4762C241.688 77.1907 285.267 80.5044 326.755 85.3262C388.721 92.5274 448.664 103.707 527.192 122.706C566.653 132.254 610.71 143.861 670.034 160.339C701.218 169.024 727.885 175.673 753.962 181.264C819.061 195.223 888.135 204.605 959.264 209.147C983.872 210.721 1009.49 211.856 1035.4 212.521C1066.96 213.305 1098.04 213.405 1127.78 212.818C1176 211.865 1227.62 210.012 1278.43 202.952C1304.18 199.373 1326.98 194.428 1348.12 187.836C1384.71 176.425 1411.25 162.037 1436.91 148.122C1451.04 140.459 1464.39 133.22 1478.76 126.849C1482.53 125.18 1486.35 123.466 1490.03 121.807C1504.97 115.095 1520.42 108.155 1537.84 101.816C1557.12 94.7575 1577.34 89.1741 1597.93 85.2201C1622.05 80.5884 1646.15 78.3268 1669.56 78.4936C1683.85 78.5962 1698.29 79.3952 1713.73 80.9348C1753.5 84.904 1791.73 93.7008 1828.7 102.21C1830.39 102.599 1832.08 102.989 1833.77 103.376C1869.31 111.545 1903.54 121.163 1935.51 131.963C2001.8 154.294 2061.54 182.645 2113.07 216.229L2112.33 216.34Z" fill="#115766"/>
<path d="M1146.07 212.958C1144.01 212.958 1141.99 212.957 1139.99 212.954C1110.37 212.914 1079.26 212.179 1047.54 210.768C1021.69 209.596 996.201 207.978 971.788 205.961C936.906 203.085 901.9 198.951 867.733 193.676C834.739 188.581 801.51 182.264 768.966 174.898C737.078 167.682 707.293 159.641 684.906 153.442C632.525 138.976 582.687 126.886 536.777 117.504C462.419 102.311 396.155 93.049 328.235 88.3567C287.261 85.5259 243.3 84.0329 200.973 84.0329C200.317 84.0329 199.665 84.0329 199.009 84.0341C162.647 84.0737 128.125 86.2245 96.2404 88.5433C87.9414 89.151 79.3566 89.8146 70.7242 90.518C65.9939 90.9075 61.2563 91.3088 56.244 91.7333C20.8898 94.7321 -19.1836 98.1297 -67.8675 97.851C-97.5168 97.6807 -127.8 96.7032 -157.086 95.7573C-175.996 95.1461 -195.548 94.5151 -214.198 94.1337C-239.835 93.61 -263.427 93.778 -284.327 94.6353C-359.586 97.7192 -422.362 106.005 -452.256 116.801L-452.945 116.609C-437.611 111.072 -414.546 106.278 -384.391 102.359C-355.592 98.6173 -321.029 95.846 -284.444 94.3472C-263.49 93.4887 -239.835 93.3184 -214.139 93.8445C-195.471 94.2259 -175.909 94.858 -156.991 95.4692C-127.723 96.4152 -97.4582 97.3926 -67.8492 97.5617C-19.2899 97.8405 20.7139 94.4475 56.0094 91.4546C61.0255 91.0288 65.7631 90.6276 70.497 90.238C79.1368 89.5347 87.7289 88.8699 96.0352 88.2622C127.974 85.9399 162.556 83.7856 199.005 83.7448C242.006 83.697 286.755 85.1946 328.43 88.0744C363.483 90.497 397.467 94.0626 432.316 98.9754C465.878 103.707 500.21 109.689 537.268 117.262C583.215 126.65 633.089 138.75 685.503 153.225C707.872 159.421 737.635 167.456 769.49 174.664C835.527 189.61 903.666 200.045 972.015 205.683C996.396 207.697 1021.85 209.312 1047.67 210.483C1079.35 211.892 1110.41 212.627 1139.99 212.666C1186.28 212.726 1240.03 212.229 1292.46 205.505C1318.99 202.102 1341.95 197.125 1362.64 190.291C1398.98 178.289 1423.06 162.885 1446.36 147.987C1458.35 140.323 1469.67 133.085 1481.97 126.819C1485.92 124.812 1489.9 122.744 1493.74 120.743C1506.74 113.985 1520.18 106.999 1535.67 100.541C1553.36 93.1108 1572.35 87.0841 1592.11 82.6286C1615.01 77.4627 1638.36 74.5724 1661.5 74.0382C1675.79 73.7081 1690.29 74.0452 1705.83 75.0693C1747.38 77.8056 1788.57 85.7556 1830.62 94.36C1867.28 101.862 1903.77 111.421 1936.14 122.003C1972.1 133.724 2005.89 147.474 2036.56 162.872C2063.88 176.59 2088.91 191.69 2110.95 207.753L2110.11 207.87C2062.78 173.373 2004.03 144.552 1935.49 122.207C1903.16 111.64 1866.73 102.095 1830.13 94.6061C1788.15 86.0169 1747.04 78.082 1705.64 75.355C1690.19 74.3368 1675.77 74.002 1661.57 74.3298C1619.04 75.3131 1574.59 84.6837 1536.4 100.718C1520.94 107.164 1507.51 114.145 1494.52 120.896C1490.68 122.898 1486.69 124.967 1482.75 126.974C1470.47 133.228 1459.15 140.461 1447.18 148.117C1435.75 155.427 1423.93 162.986 1410.37 170.253C1394.99 178.491 1379.6 185.111 1363.3 190.494C1342.52 197.358 1319.46 202.357 1292.8 205.777C1269.29 208.793 1244.02 210.787 1215.55 211.874C1191.43 212.789 1167.22 212.958 1146.07 212.958Z" fill="#115766"/>
<path d="M1204.82 213.543C1186.14 213.543 1168.19 213.188 1152.14 212.829C1122.62 212.169 1091.52 210.798 1059.73 208.755C1033.98 207.076 1008.66 204.979 984.455 202.519C918.176 195.797 852.74 184.608 784.41 168.315C754.61 161.211 726.518 153.566 700.306 146.346C648.555 132.134 596.929 120.61 546.853 112.093C473.206 99.5677 404.301 92.9089 330.002 91.1383C287.667 90.1294 243.025 90.5412 200.896 92.328C165.633 93.8233 132.39 97.4321 101.356 100.999C93.5915 101.896 85.3328 102.876 76.814 103.91C74.6851 104.17 72.538 104.435 70.3616 104.702C34.619 109.102 -5.82446 114.08 -57.729 114.08C-58.6047 114.08 -59.4767 114.079 -60.3597 114.075C-95.4757 113.962 -131.328 112.366 -166.005 110.822C-179.752 110.21 -193.968 109.578 -207.609 109.066C-234.254 108.067 -257.33 107.772 -278.16 108.166C-353.921 109.601 -417.869 115.405 -453.601 124.093L-454.213 123.838C-436.549 119.543 -411.007 115.814 -380.357 113.055C-350.21 110.34 -314.892 108.54 -278.223 107.846C-257.334 107.45 -234.199 107.745 -207.496 108.746C-193.84 109.258 -179.62 109.891 -165.869 110.503C-131.226 112.044 -95.4061 113.639 -60.3561 113.752C-7.37064 113.925 33.7324 108.864 69.9915 104.4C72.1643 104.133 74.3151 103.868 76.4438 103.607C84.97 102.571 93.2324 101.591 101.004 100.694C132.089 97.1207 165.395 93.5072 200.753 92.0073C242.948 90.2181 287.664 89.8052 330.068 90.8152C366.887 91.6924 401.992 93.7638 437.387 97.1463C473.84 100.63 509.799 105.425 547.318 111.808C597.457 120.336 649.149 131.874 700.954 146.1C727.156 153.318 755.23 160.958 785.004 168.055C853.242 184.326 918.579 195.499 984.751 202.21C1008.92 204.665 1034.21 206.76 1059.92 208.436C1091.67 210.477 1122.72 211.847 1152.2 212.505C1201.8 213.613 1254.57 214.182 1306.48 208.05C1333.8 204.823 1356.91 199.814 1377.15 192.738C1413.19 180.133 1435.63 162.939 1455.42 147.769C1465.38 140.137 1474.79 132.927 1485.17 126.782C1488.92 124.564 1492.69 122.272 1496.33 120.056C1507.74 113.122 1519.53 105.952 1533.48 99.2563C1549.63 91.4556 1567.39 84.9857 1586.28 80.0263C1607.97 74.3308 1630.56 70.813 1653.43 69.5732C1667.73 68.7975 1682.28 68.6739 1697.92 69.1918C1741.61 70.6416 1786 77.8055 1827.46 85.3321C1865.75 92.2814 1903.54 101.514 1936.77 112.033C1973.73 123.699 2007.78 137.587 2037.98 153.309C2064.98 167.368 2088.82 182.83 2108.83 199.266L2107.89 199.382C2065.36 164.444 2005.94 134.318 1936.06 112.259C1902.9 101.761 1865.18 92.545 1826.97 85.6097C1785.6 78.1006 1741.33 70.9542 1697.82 69.5102C1682.27 68.9946 1667.81 69.1183 1653.61 69.8881C1611.38 72.1777 1569.02 82.6693 1534.33 99.4313C1520.4 106.113 1508.62 113.276 1497.23 120.203C1493.59 122.421 1489.82 124.713 1486.07 126.932C1475.71 133.064 1466.31 140.266 1456.36 147.891C1436.53 163.084 1414.06 180.306 1377.89 192.953C1357.55 200.068 1334.3 205.104 1306.83 208.35C1283 211.166 1257.28 212.796 1228.21 213.332C1220.36 213.483 1212.53 213.543 1204.82 213.543Z" fill="#115766"/>
<path d="M1241.7 214.806C1241.43 214.806 1241.17 214.806 1240.9 214.806C1214.5 214.785 1188.58 213.756 1164.28 212.704C1134.81 211.428 1103.73 209.421 1071.92 206.741C1046.29 204.558 1021.13 201.979 997.128 199.077C933.499 191.394 870.818 179.529 799.865 161.733C774.312 155.327 749.166 148.427 724.844 141.757C721.803 140.922 718.758 140.088 715.713 139.254C663.695 125.045 610.277 114.087 556.947 106.685C483.92 96.5505 410.269 92.3748 331.786 93.9203C288.752 94.7682 244.15 97.0858 202.801 100.622C170.177 103.413 141.106 107.891 106.489 113.455C99.4719 114.587 91.9791 115.81 82.9142 117.303L82.4086 117.387C64.9202 120.286 45.0979 123.572 22.8646 126.07C-2.67001 128.94 -27.4425 130.321 -52.8452 130.304C-92.4569 130.273 -132.882 127.926 -171.974 125.655C-181.551 125.099 -191.459 124.524 -201.022 124.004C-228.447 122.514 -251.662 121.762 -271.994 121.705C-346.857 121.495 -413.55 125.026 -454.968 131.393L-455.444 131.078C-435.157 127.959 -407.79 125.428 -376.305 123.757C-344.762 122.084 -308.686 121.253 -271.983 121.356C-251.593 121.413 -228.319 122.166 -200.835 123.659C-191.265 124.18 -181.357 124.755 -171.776 125.311C-132.732 127.578 -92.358 129.923 -52.8415 129.954C-52.6656 129.954 -52.4861 129.954 -52.3102 129.954C4.21469 129.954 47.278 122.816 81.903 117.076L82.4122 116.992C91.4807 115.498 98.9736 114.276 105.994 113.143C140.67 107.57 169.792 103.085 202.519 100.285C243.937 96.7418 288.612 94.4207 331.72 93.5715C370.126 92.8157 406.352 93.3919 442.476 95.3351C481.402 97.4287 518.992 101.036 557.387 106.366C610.819 113.781 664.329 124.757 716.431 138.989C719.476 139.823 722.521 140.658 725.562 141.493C749.873 148.162 775.012 155.058 800.542 161.461C871.405 179.234 933.994 191.083 997.517 198.753C1021.48 201.652 1046.61 204.226 1072.2 206.406C1103.97 209.083 1135 211.086 1164.43 212.36C1217.15 214.644 1268.75 216.228 1320.53 210.611C1348.62 207.562 1371.9 202.522 1391.67 195.202C1427.39 181.978 1446.91 163.656 1464.13 147.489C1472.19 139.92 1479.8 132.77 1488.39 126.762C1491.7 124.45 1495.01 122.059 1498.22 119.746C1508.24 112.515 1518.61 105.038 1531.32 97.9886C1545.95 89.8135 1562.49 82.8992 1580.46 77.4382C1600.96 71.2144 1622.79 67.0714 1645.37 65.1259C1659.37 63.9199 1673.66 63.332 1689.01 63.332C1689.34 63.332 1689.68 63.332 1690.01 63.3332C1737.74 63.4125 1786.86 70.3151 1824.32 76.3196C1864.22 82.7172 1903.33 91.6237 1937.41 102.077C1975.37 113.689 2009.7 127.714 2039.42 143.762C2066.09 158.163 2088.74 173.987 2106.72 190.797L2105.68 190.91C2078.92 165.899 2027.86 130.228 1936.65 102.33C1902.65 91.9001 1863.63 83.0147 1823.82 76.6322C1786.47 70.644 1737.51 63.7613 1690.01 63.6831C1674.37 63.654 1659.87 64.2395 1645.66 65.4642C1603.83 69.0694 1563.56 80.6819 1532.27 98.1624C1519.59 105.196 1509.24 112.664 1499.22 119.887C1496.02 122.201 1492.7 124.594 1489.39 126.907C1480.83 132.899 1473.22 140.04 1465.17 147.6C1447.92 163.797 1428.37 182.154 1392.51 195.429C1372.6 202.798 1349.17 207.872 1320.88 210.941C1296.91 213.54 1271 214.806 1241.7 214.806Z" fill="#115766"/>
<path d="M1271.03 216.448C1265.34 216.448 1259.53 216.39 1253.58 216.273C1227.53 215.764 1202.22 214.234 1176.43 212.578C1146.53 210.658 1116.33 208.09 1084.11 204.726C1058.61 202.041 1033.61 198.983 1009.8 195.634C949.39 187.152 889.41 174.666 815.32 155.15C796.919 150.304 778.526 145.221 760.737 140.305C751.053 137.629 741.043 134.861 731.124 132.159C678.487 117.854 623.285 107.464 567.049 101.275C492.746 93.0979 416.381 91.6003 333.581 96.6973C289.837 99.3905 245.275 103.614 204.718 108.91C172.137 113.165 143.756 119.141 113.707 125.467L111.63 125.905C106.936 126.896 102.191 127.901 97.3875 128.919C94.6212 129.505 91.8365 130.095 89.0262 130.69C71.5048 134.419 52.5801 138.309 30.8781 141.303C5.68066 144.779 -19.2421 146.489 -45.3226 146.531C-88.7412 146.598 -133.028 143.386 -175.853 140.277C-181.965 139.832 -188.289 139.374 -194.426 138.939C-223.2 136.898 -245.884 135.723 -265.823 135.24C-339.404 133.459 -408.845 134.714 -456.345 138.685L-456.649 138.318C-409.024 134.338 -339.441 133.078 -265.732 134.862C-245.737 135.346 -222.995 136.524 -194.166 138.569C-188.025 139.005 -181.701 139.464 -175.586 139.908C-133.285 142.979 -89.5583 146.153 -46.7149 146.153C-46.2532 146.153 -45.7915 146.153 -45.3262 146.152C10.0885 146.063 49.5353 138.638 88.3703 130.375C91.1806 129.78 93.9653 129.19 96.7316 128.604C101.535 127.585 106.276 126.581 110.974 125.589L113.051 125.151C143.151 118.814 171.58 112.828 204.267 108.559C244.897 103.252 289.536 99.0219 333.358 96.3241C416.366 91.2142 492.937 92.7165 567.441 100.916C623.816 107.121 679.146 117.535 731.901 131.871C741.819 134.574 751.833 137.341 761.517 140.018C779.299 144.933 797.688 150.015 816.078 154.858C890.08 174.351 949.976 186.82 1010.28 195.288C1034.06 198.631 1059.02 201.685 1084.48 204.366C1116.65 207.725 1146.81 210.29 1176.67 212.206C1221.99 215.116 1278.4 218.739 1334.57 213.159C1363.45 210.291 1386.88 205.219 1406.19 197.654C1441.57 183.798 1457.97 164.309 1472.45 147.115C1478.74 139.646 1484.68 132.59 1491.61 126.735C1494.31 124.454 1497.02 122.094 1499.63 119.811C1508.41 112.157 1517.49 104.241 1529.15 96.7137C1542.3 88.1583 1557.61 80.7996 1574.64 74.8418C1593.94 68.0908 1615.03 63.3238 1637.3 60.6726C1651.6 58.9709 1666.25 57.9223 1682.1 57.4662C1703.32 56.8551 1725.91 57.5082 1751.16 59.4584C1772.52 61.11 1795.42 63.6737 1821.17 67.2976C1862.7 73.1424 1903.11 81.7234 1938.04 92.1123C1977.02 103.67 2011.61 117.833 2040.85 134.207C2067.18 148.951 2088.64 165.138 2104.61 182.32L2103.47 182.427C2069.74 146.153 2010.7 114.177 1937.23 92.3899C1902.39 82.029 1862.09 73.4724 1820.68 67.6452C1765.2 59.8375 1721.21 56.7221 1682.21 57.8441C1666.46 58.2967 1651.92 59.3383 1637.72 61.0272C1584.72 67.3338 1550 84.006 1530.22 96.8805C1518.59 104.39 1509.52 112.295 1500.75 119.941C1498.13 122.225 1495.42 124.585 1492.72 126.868C1485.81 132.706 1479.88 139.753 1473.6 147.213C1459.1 164.444 1442.66 183.974 1407.11 197.893C1387.65 205.518 1364.03 210.63 1334.92 213.522C1315.19 215.481 1294.15 216.448 1271.03 216.448Z" fill="#115766"/>
<path d="M1296.43 218.33C1257.68 218.33 1220.43 215.161 1188.56 212.451C1158.58 209.901 1128.4 206.714 1096.28 202.71C1070.93 199.526 1046.09 195.987 1022.46 192.191C951.617 180.823 888.461 164.507 830.767 148.567C818.987 145.313 807.086 141.958 795.581 138.715C779.606 134.21 763.085 129.553 746.531 125.065C693.106 110.619 636.119 100.795 577.158 95.8643C500.884 89.4877 421.796 90.667 335.376 99.4708C290.88 104.003 246.363 110.133 206.634 117.196C175.991 122.643 150.065 129.52 122.618 136.801C120.672 137.316 118.723 137.834 116.762 138.352L115.7 138.634C109.028 140.406 102.128 142.237 95.1337 144.075C78.3745 148.499 59.9188 153.075 38.5722 156.571C13.7924 160.629 -11.1889 162.652 -37.808 162.757C-84.5316 162.943 -132.153 158.761 -178.202 154.717C-181.43 154.434 -184.644 154.152 -187.842 153.873C-218.21 151.221 -240.363 149.648 -259.665 148.774C-331.399 145.524 -403.595 144.502 -457.742 145.971L-457.852 145.564C-403.617 144.092 -331.315 145.115 -259.485 148.369C-240.128 149.246 -217.928 150.822 -187.505 153.479C-184.307 153.757 -181.093 154.04 -177.862 154.324C-131.9 158.36 -84.3704 162.531 -37.8263 162.349C19.981 162.12 60.6919 152.634 94.313 143.76C101.308 141.922 108.207 140.091 114.879 138.32L115.942 138.038C117.902 137.519 119.851 137.002 121.797 136.487C149.292 129.194 175.262 122.305 206.007 116.839C245.809 109.763 290.411 103.623 334.984 99.0824C375.955 94.9091 414.439 92.4993 452.629 91.7155C495.23 90.8419 537.235 92.1051 577.48 95.4701C636.629 100.416 693.784 110.268 747.359 124.753C763.924 129.244 780.449 133.902 796.428 138.408C807.933 141.652 819.826 145.005 831.602 148.258C889.237 164.18 952.317 180.479 1023.03 191.826C1046.63 195.616 1071.43 199.151 1096.75 202.33C1128.81 206.328 1158.95 209.51 1188.89 212.056C1234.86 215.966 1292.07 220.832 1348.6 215.712C1378.26 213.025 1401.84 207.922 1420.69 200.112C1455.71 185.603 1468.81 164.915 1480.37 146.661C1485.01 139.327 1489.4 132.4 1494.81 126.712C1496.81 124.607 1498.82 122.433 1500.76 120.33C1508.36 112.105 1516.22 103.599 1526.96 95.4421C1538.66 86.4995 1552.73 78.6941 1568.79 72.2452C1586.91 64.9682 1607.24 59.5772 1629.21 56.2215C1643.48 54.0427 1658.18 52.5322 1674.16 51.6026C1695.69 50.3511 1719.58 50.3931 1745.17 51.7274C1767.57 52.8962 1792.07 55.0994 1817.99 58.2778C1861.14 63.5697 1902.86 71.8241 1938.66 82.1489C1978.65 93.6529 2013.51 107.953 2042.27 124.653C2068.25 139.74 2088.52 156.291 2102.49 173.845L2101.24 173.945C2071.64 136.749 2013.6 104.256 1937.8 82.4522C1902.12 72.1612 1860.53 63.9336 1817.53 58.6592C1761.79 51.8231 1714.97 49.6455 1674.39 52.005C1658.53 52.9276 1643.93 54.4276 1629.77 56.5901C1577.49 64.5739 1545.65 82.2095 1528.15 95.5996C1517.43 103.735 1509.58 112.23 1501.99 120.445C1500.05 122.548 1498.04 124.723 1496.04 126.829C1490.65 132.499 1486.26 139.417 1481.63 146.742C1476.06 155.523 1469.76 165.476 1460.61 174.807C1450.13 185.498 1437.4 193.856 1421.71 200.36C1412.64 204.12 1402.21 207.321 1390.71 209.873C1378.35 212.618 1364.3 214.715 1348.95 216.105C1331.38 217.697 1313.75 218.33 1296.43 218.33Z" fill="#115766"/>
<path d="M1319.33 220.396C1306.52 220.396 1293.1 220 1278.92 219.208C1251 217.648 1224.28 214.819 1200.7 212.324C1170.98 209.178 1139.94 205.265 1108.46 200.694C1083.27 197.015 1058.6 192.996 1035.12 188.746C967.754 176.56 909.712 160.358 846.214 141.983C840.572 140.35 834.841 138.685 829.301 137.073C807.482 130.729 784.923 124.169 761.938 117.971C707.626 103.356 648.859 94.0987 587.267 90.4549C509.575 85.8582 425.427 89.8239 337.172 102.244C291.884 108.617 247.407 116.651 208.55 125.479C179.293 132.126 155.209 139.963 129.711 148.261C127.121 149.104 124.519 149.95 121.903 150.799C115.392 152.914 108.379 155.185 101.245 157.459C86.2851 162.242 68.053 167.692 46.2703 171.837C21.8863 176.476 -3.15735 178.815 -30.2858 178.984C-79.948 179.296 -130.5 174.061 -179.39 168.999L-181.251 168.806C-205.188 166.329 -230.51 163.826 -253.498 162.306C-323.569 157.674 -396.596 154.459 -459.123 153.252L-459.039 152.815C-396.446 154.024 -323.353 157.242 -253.22 161.878C-230.166 163.403 -204.8 165.909 -180.826 168.39L-178.965 168.582C-130.182 173.633 -79.7318 178.855 -30.3114 178.546C26.7631 178.189 66.1806 168.051 100.274 157.147C107.408 154.875 114.414 152.604 120.925 150.49C123.541 149.642 126.142 148.795 128.733 147.953C154.275 139.641 178.402 131.79 207.755 125.121C246.685 116.275 291.247 108.226 336.618 101.841C378.026 96.015 418.773 92.0004 457.722 89.9102C502.225 87.5227 545.896 87.56 587.523 90.0222C649.35 93.68 708.334 102.97 762.829 117.635C785.831 123.839 808.402 130.401 830.232 136.748C835.772 138.359 841.503 140.025 847.145 141.658C910.58 160.015 968.56 176.2 1035.81 188.364C1059.25 192.607 1083.89 196.621 1109.04 200.295C1140.48 204.859 1171.46 208.766 1201.14 211.907C1247.66 216.832 1305.56 222.959 1362.65 218.264C1393.1 215.76 1416.84 210.627 1435.22 202.569C1469.85 187.389 1479.87 164.508 1487.92 146.123C1491.06 138.961 1494.02 132.197 1498.03 126.692C1499.3 124.956 1500.58 123.168 1501.81 121.439C1508.22 112.453 1514.86 103.16 1524.81 94.1745C1540.17 80.1908 1569.35 61.4844 1621.14 51.7767C1635.45 49.0964 1650.2 47.1228 1666.25 45.7442C1708.24 42.0853 1758.23 43.2691 1814.84 49.2608C1859.61 53.9998 1902.64 61.9277 1939.3 72.1883C1980.3 83.6375 2015.43 98.0749 2043.71 115.103C2056.69 122.913 2068.15 131.255 2077.8 139.897C2087.01 148.151 2094.61 156.723 2100.38 165.374L2099.04 165.465C2073.59 127.345 2016.53 94.3355 1938.39 72.516C1901.87 62.2939 1859 54.3964 1814.4 49.6749C1758.06 43.71 1708.33 42.5296 1666.61 46.1652C1650.68 47.5334 1636.03 49.4917 1621.84 52.1523C1570.41 61.7924 1541.39 80.4031 1526.1 94.318C1516.18 103.28 1509.56 112.56 1503.15 121.534C1501.91 123.264 1500.64 125.053 1499.37 126.79C1495.37 132.277 1492.41 139.031 1489.28 146.182C1485.23 155.434 1480.64 165.92 1472.79 175.816C1463.77 187.188 1451.84 196.024 1436.33 202.826C1427.48 206.707 1417.12 209.979 1405.56 212.552C1393.1 215.325 1378.78 217.389 1362.99 218.686C1349.14 219.827 1334.67 220.396 1319.33 220.396Z" fill="#115766"/>
<path d="M1340.44 222.578C1325.08 222.578 1308.89 221.945 1291.6 220.675C1263.58 218.619 1236.62 215.206 1212.83 212.194C1182.88 208.403 1151.87 203.856 1120.64 198.676C1095.62 194.506 1071.1 190.006 1047.79 185.3C983.622 172.359 928.589 155.68 870.323 138.023C867.44 137.149 864.556 136.275 861.665 135.4C834.57 127.198 806.555 118.716 777.349 110.878C722.092 96.0777 661.544 87.3859 597.387 85.0438C516.8 82.101 429.857 88.8206 338.967 105.013C293.504 113.113 247.868 123.322 210.466 133.76C182.224 141.641 159.573 150.509 135.592 159.898C132.752 161.01 129.905 162.125 127.036 163.242C121.305 165.478 114.487 168.13 107.349 170.841C94.1295 175.877 76.1171 182.275 53.9645 187.089C29.9688 192.304 4.87021 194.962 -22.7675 195.213C-45.4845 195.394 -70.5537 194.277 -99.4116 191.799C-124.188 189.671 -148.154 186.891 -174.674 183.742C-198.882 180.831 -224.432 177.826 -247.354 175.84C-315.252 169.96 -386.971 164.81 -460.516 160.532L-460.252 160.073C-386.664 164.353 -314.904 169.507 -246.969 175.39C-223.985 177.381 -198.399 180.392 -174.161 183.304C-129.709 188.584 -74.3863 195.158 -22.8078 194.746C36.161 194.21 74.058 182.796 106.224 170.54C113.358 167.831 120.173 165.181 125.9 162.946C128.769 161.829 131.616 160.714 134.452 159.603C158.473 150.199 181.165 141.316 209.499 133.409C246.978 122.95 292.701 112.721 338.252 104.606C429.417 88.3645 516.661 81.6275 597.555 84.5808C628.571 85.7133 659.037 88.3435 688.101 92.3978C719.285 96.7473 749.63 102.846 778.294 110.522C807.533 118.368 835.567 126.855 862.677 135.063C865.568 135.939 868.455 136.812 871.338 137.686C929.549 155.327 984.535 171.99 1048.57 184.907C1071.86 189.606 1096.33 194.1 1121.32 198.263C1152.5 203.435 1183.47 207.977 1213.37 211.761C1260.37 217.71 1318.86 225.113 1376.69 220.82C1408.02 218.494 1431.91 213.329 1449.73 205.031C1484.05 189.183 1490.16 164.972 1495.07 145.519C1496.83 138.562 1498.49 131.991 1501.24 126.676C1501.81 125.58 1502.38 124.478 1502.95 123.37C1508.08 113.361 1513.4 103.011 1522.63 92.9099C1535.82 78.3815 1562.2 58.6814 1613.06 47.3348C1627.25 44.1693 1642.05 41.7339 1658.32 39.8887C1680.93 37.3005 1706.13 36.084 1733.21 36.2706C1757.93 36.4409 1784.33 37.7787 1811.67 40.2456C1858.05 44.4294 1902.4 52.0307 1939.92 62.2271C1981.93 73.6203 2017.33 88.1977 2045.14 105.552C2057.9 113.515 2068.94 122.028 2077.97 130.856C2086.62 139.31 2093.45 148.074 2098.26 156.904L2096.82 156.984C2075.84 118.504 2018.3 84.0956 1938.97 62.5817C1901.61 52.4296 1857.45 44.8598 1811.27 40.6923C1754.32 35.5533 1701.61 35.4273 1658.81 40.3261C1642.66 42.1573 1627.97 44.574 1613.9 47.7151C1563.39 58.9834 1537.15 78.5821 1524.04 93.0382C1514.83 103.112 1509.52 113.447 1504.39 123.443C1503.82 124.551 1503.25 125.655 1502.69 126.751C1499.94 132.045 1498.29 138.609 1496.53 145.555C1491.6 165.064 1485.47 189.345 1450.93 205.295C1442.34 209.295 1432.07 212.642 1420.41 215.242C1407.86 218.039 1393.26 220.068 1377.02 221.274C1365.3 222.142 1353.16 222.578 1340.44 222.578Z" fill="#115766"/>
<path d="M1360.27 224.849C1342.77 224.849 1324.24 223.949 1304.27 222.141C1276.01 219.583 1248.88 215.588 1224.95 212.065C1194.71 207.612 1163.71 202.427 1132.81 196.658C1107.97 192.004 1083.62 187.023 1060.44 181.854C1003.36 169.132 954.586 153.545 902.941 137.043C894.499 134.346 885.768 131.557 877.106 128.815C846.658 119.18 820.658 111.236 792.749 103.784C736.507 88.788 674.182 80.6618 607.5 79.6308C523.711 78.3349 433.961 87.8059 340.748 107.78C294.442 117.704 248.847 129.869 212.365 142.037C184.881 151.203 163.395 161.182 140.649 171.745C137.831 173.054 135.002 174.367 132.155 175.682C127.084 178.028 120.372 181.118 113.443 184.217C84.285 197.29 46.1901 210.749 -15.2592 211.437C-17.1755 211.457 -19.0991 211.466 -21.019 211.466C-69.0031 211.466 -117.991 205.421 -168.108 198.671L-171.237 198.247C-196.06 194.874 -219.51 191.688 -241.216 189.369C-323.015 180.631 -402.125 173.255 -461.907 167.805L-461.479 167.328C-401.682 172.78 -322.55 180.157 -240.721 188.899C-218.957 191.224 -195.481 194.414 -170.625 197.791L-167.499 198.215C-115.547 205.212 -64.8114 211.454 -15.3141 210.943C45.4536 210.262 83.2297 196.907 112.172 183.932C119.097 180.835 125.802 177.746 130.873 175.402C133.72 174.086 136.545 172.774 139.363 171.465C162.145 160.885 183.664 150.891 211.236 141.695C247.792 129.502 293.479 117.312 339.876 107.368C382.939 98.14 426.017 91.0543 467.912 86.3059C515.98 80.8578 562.971 78.4457 607.573 79.135C674.599 80.1708 737.24 88.3366 793.746 103.403C821.695 110.866 847.721 118.819 878.198 128.461C886.864 131.203 895.595 133.993 904.04 136.691C955.634 153.177 1004.37 168.748 1061.33 181.445C1084.48 186.607 1108.79 191.581 1133.59 196.228C1164.45 201.99 1195.4 207.166 1225.6 211.612C1273.01 218.593 1332.01 227.28 1390.73 223.369C1422.82 221.231 1446.87 216.036 1464.23 207.488C1498.11 190.917 1500.15 165.344 1501.79 144.796C1502.32 138.092 1502.83 131.759 1504.45 126.656L1504.48 126.539C1508.11 115.112 1511.85 103.297 1520.45 91.6386C1527.89 81.4701 1538.25 72.3281 1551.25 64.4643C1565.91 55.5987 1583.98 48.3392 1604.96 42.8864C1619 39.2379 1633.86 36.3395 1650.37 34.0266C1694.99 27.7409 1749.66 26.7705 1808.49 31.2226C1832.16 33.0141 1855.51 35.7283 1877.9 39.2881C1900.41 42.8689 1921.49 47.2346 1940.54 52.2617C1983.57 63.6001 2019.24 78.3151 2046.56 95.9985C2071.12 111.893 2088.26 130.024 2096.14 148.431L2094.6 148.497C2077.74 109.102 2021.23 74.1639 1939.54 52.6431C1901.35 42.5633 1855.9 35.3224 1808.13 31.7078C1749.64 27.2814 1695.31 28.2413 1651.01 34.4838C1634.62 36.7792 1619.89 39.6543 1605.95 43.2736C1566.77 53.4549 1537.73 70.2193 1521.97 91.7541C1513.4 103.382 1509.66 115.181 1506.04 126.591L1506 126.708C1504.39 131.792 1503.88 138.116 1503.35 144.811C1501.7 165.423 1499.66 191.072 1465.53 207.76C1457.16 211.882 1446.96 215.301 1435.23 217.923C1422.58 220.751 1407.72 222.746 1391.04 223.858C1381.11 224.518 1370.88 224.849 1360.27 224.849Z" fill="#115766"/>
<path d="M-14.1202 227.705C-35.5767 227.705 -58.9422 226.374 -85.3121 223.656C-111.514 220.956 -137.426 217.228 -161.527 213.603C-165.891 212.943 -170.222 212.284 -174.524 211.63C-195.936 208.372 -216.162 205.295 -235.064 202.898C-310.437 193.344 -382.281 184.757 -451.762 176.455L-463.274 175.079L-462.696 174.588L-451.183 175.964C-381.699 184.269 -309.843 192.856 -234.456 202.412C-215.502 204.814 -195.251 207.895 -173.813 211.157C-169.515 211.812 -165.184 212.471 -160.824 213.13C-111.349 220.571 -58.7846 227.783 -7.80344 227.14C54.866 226.31 92.4223 210.769 118.136 197.324C124.724 193.885 131.07 190.459 135.863 187.858C138.508 186.424 141.135 184.992 143.755 183.563C165.483 171.718 186.005 160.531 212.994 149.982C248.62 136.06 294.262 121.907 341.521 110.133C385.365 99.2082 429.608 90.5771 473.026 84.4792C522.828 77.4845 571.471 73.8547 617.605 73.6902C687.024 73.3613 751.499 80.9638 809.215 96.2841C841.209 104.787 869.895 113.985 893.74 121.862C906.715 126.148 919.689 130.542 932.238 134.791C976.657 149.834 1022.59 165.387 1074.1 177.985C1097.11 183.614 1121.27 189.068 1145.88 194.195C1176.35 200.524 1207.29 206.335 1237.85 211.465C1285.61 219.483 1345.05 229.461 1404.77 225.92C1437.64 223.971 1461.84 218.746 1478.74 209.945C1512.18 192.623 1509.92 165.65 1508.1 143.976C1507.57 137.567 1507.06 131.512 1507.67 126.638C1509.04 115.65 1511.11 102.879 1518.28 90.3706C1524.33 79.7717 1533.45 70.1829 1545.4 61.8713C1558.92 52.4692 1576.25 44.5868 1596.89 38.4423C1610.57 34.3705 1625.9 30.9145 1642.45 28.1688C1666.06 24.2381 1692.57 21.7666 1721.22 20.8242C1748.06 19.9412 1776.35 20.4054 1805.32 22.2028C1829.74 23.7191 1853.82 26.2128 1876.88 29.6163C1900.08 33.0408 1921.71 37.3074 1941.17 42.2972C1963.6 48.0428 1984.22 54.8276 2002.47 62.4639C2019.75 69.6989 2035.07 77.7679 2048 86.4457C2072.19 102.681 2088.11 121.186 2094.03 139.959L2092.39 140.012C2079.67 99.6981 2024.18 64.2321 1940.13 42.7066C1901.64 32.8367 1853.66 25.7381 1805 22.7184C1744.84 18.9848 1688.9 21.0306 1643.21 28.6342C1626.79 31.3577 1611.58 34.7869 1598.01 38.826C1559.12 50.4035 1532.83 67.7767 1519.9 90.4651C1512.75 102.939 1510.68 115.688 1509.31 126.659C1508.71 131.516 1509.21 137.561 1509.75 143.962C1510.64 154.654 1511.66 166.774 1508.26 178.49C1504.31 192.086 1495.12 202.464 1480.15 210.219C1472 214.463 1461.88 217.956 1450.07 220.601C1437.32 223.459 1422.18 225.422 1405.08 226.436C1396.45 226.948 1387.83 227.18 1379.26 227.18C1327.93 227.18 1278.2 218.831 1237.08 211.928C1206.48 206.79 1175.49 200.971 1144.99 194.632C1120.33 189.499 1096.14 184.037 1073.1 178.399C1021.48 165.776 975.503 150.206 931.04 135.149C918.495 130.901 905.524 126.508 892.557 122.224C868.744 114.357 840.099 105.172 808.163 96.6854C750.759 81.4467 686.661 73.8885 617.631 74.2128C509.223 74.6 408.199 94.1823 342.539 110.543C295.376 122.294 249.825 136.417 214.277 150.311C187.368 160.828 166.875 171.998 145.181 183.824C142.561 185.253 139.93 186.685 137.285 188.12C132.488 190.722 126.139 194.151 119.547 197.593C108.753 203.237 91.8067 211.453 69.3609 217.612C58.4604 220.603 46.8601 222.953 34.8824 224.599C21.5271 226.433 7.1861 227.464 -7.7338 227.661C-9.84793 227.691 -11.9767 227.705 -14.1202 227.705Z" fill="#115766"/>
<path d="M-7.23111 243.944C-28.7133 243.944 -52.0311 242.51 -78.2619 239.585C-105.42 236.557 -132.27 232.3 -154.95 228.534C-161.919 227.374 -168.873 226.199 -175.6 225.061C-194.404 221.883 -212.167 218.88 -228.915 216.428C-289.06 207.622 -348.813 199.024 -406.602 190.709C-425.717 187.959 -445.481 185.115 -464.637 182.353L-463.919 181.848C-444.763 184.61 -424.999 187.454 -405.884 190.204C-348.095 198.519 -288.335 207.118 -228.186 215.925C-211.394 218.384 -193.609 221.39 -174.783 224.573C-168.06 225.71 -161.105 226.884 -154.144 228.044C-107.105 235.852 -52.5441 244.117 -0.298828 243.339C63.8472 242.361 99.8755 225.391 124.102 210.717C130.313 206.958 136.318 203.184 140.854 200.316C143.184 198.844 145.5 197.373 147.812 195.905C168.594 182.708 188.222 170.243 214.757 158.272C249.269 142.703 294.875 126.59 343.167 112.9C410.42 93.9174 514.364 70.7625 627.634 68.2512C699.669 66.6113 765.969 73.6492 824.685 89.1714C851.066 96.1487 877.154 104.197 909.28 115.269C925.516 120.864 941.626 126.663 957.206 132.27C997.741 146.858 1039.65 161.943 1086.88 174.534C1109.75 180.635 1133.74 186.569 1158.17 192.17C1187.76 198.945 1218.68 205.39 1250.09 211.327C1298.34 220.391 1358.38 231.674 1418.82 228.48C1451.95 226.765 1476.99 221.359 1493.25 212.413C1526.22 194.307 1519.15 164.686 1513.98 143.058C1512.53 136.988 1511.16 131.255 1510.89 126.631C1510.29 116.353 1510.34 102.801 1516.12 89.1131C1526.09 65.3948 1550.55 46.854 1588.81 34.0087C1602.22 29.4832 1617.61 25.5513 1634.52 22.3216C1658.59 17.7214 1685.74 14.627 1715.23 13.1259C1743.02 11.7123 1772.26 11.7344 1802.14 13.1924C1827.36 14.4497 1852.16 16.7288 1875.85 19.9644C1899.78 23.2326 1921.96 27.3965 1941.8 32.3408C1964.73 38.0537 1985.68 44.8619 2004.06 52.5775C2021.49 59.8895 2036.75 68.0728 2049.44 76.9023C2073.26 93.4788 2087.95 112.358 2091.92 131.498L2090.18 131.534C2081.62 90.3005 2027.15 54.3049 1940.73 32.7782C1901.55 23.0121 1852.23 16.2506 1801.88 13.7406C1739.81 10.7138 1682.25 13.8456 1635.42 22.7975C1618.64 26.0004 1603.39 29.9007 1590.08 34.3901C1552.07 47.1503 1527.77 65.5861 1517.85 89.1877C1512.09 102.838 1512.04 116.363 1512.63 126.621C1512.91 131.23 1514.27 136.956 1515.72 143.017C1518.39 154.197 1521.42 166.87 1519.69 179.241C1517.67 193.647 1509.52 204.589 1494.76 212.692C1486.82 217.062 1476.78 220.631 1464.91 223.3C1452.05 226.194 1436.64 228.121 1419.11 229.028C1391.92 230.464 1362.66 229.174 1329.65 225.084C1300.96 221.527 1273.47 216.363 1249.21 211.807C1217.76 205.862 1186.79 199.407 1157.16 192.622C1132.69 187.013 1108.67 181.071 1085.76 174.962C1038.44 162.345 996.48 147.244 955.905 132.641C940.333 127.036 924.226 121.24 908.005 115.649C875.934 104.597 849.894 96.5639 823.575 89.603C765.207 74.1694 699.328 67.1735 627.751 68.8029C514.969 71.3048 411.369 94.3886 344.317 113.314C296.121 126.976 250.61 143.056 216.172 158.592C189.71 170.529 170.111 182.976 149.362 196.154C147.05 197.622 144.734 199.093 142.404 200.565C137.864 203.436 131.855 207.213 125.637 210.976C101.198 225.781 64.8073 242.902 -0.221832 243.893C-2.53384 243.926 -4.87515 243.944 -7.23111 243.944Z" fill="#115766"/>
<path d="M-0.203766 260.183C-58.9014 260.183 -120.49 248.707 -175.088 238.532C-191.865 235.407 -207.712 232.453 -222.771 229.956L-466 189.626L-465.154 189.11L-221.925 229.439C-206.825 231.942 -190.96 234.899 -174.161 238.03C-117.452 248.597 -53.1746 260.575 7.20486 259.537C72.7652 258.411 107.302 240.013 130.067 224.111C137.512 218.91 144.701 213.619 151.655 208.501C170.675 194.504 190.34 180.03 216.512 166.56C237.294 155.864 263.111 144.647 291.17 134.123C321.952 122.577 354.91 111.984 389.121 102.639C426.842 92.3363 465.197 83.8136 503.116 77.3087C545.058 70.1145 586.377 65.4175 625.934 63.3472C705.176 59.2007 777.247 65.4933 840.14 82.0524C892.407 95.8122 936.83 112.827 979.79 129.283C1017.19 143.606 1055.85 158.415 1099.64 171.075C1150.21 185.697 1204.95 199.191 1262.33 211.18C1310.68 221.282 1370.85 233.855 1432.86 231.029C1485.24 228.643 1515.52 217.488 1525.43 196.924C1533.87 179.433 1525.84 158.685 1519.4 142.014C1517.2 136.332 1515.13 130.966 1514.11 126.614C1508.49 102.624 1512.07 82.8199 1525.06 66.0719C1533.16 55.6223 1545.12 46.3076 1560.6 38.3867C1577.89 29.5386 1600.09 22.1624 1626.59 16.4635C1649.5 11.5332 1675.33 7.95243 1703.36 5.82029C1730.04 3.7908 1758.12 3.1108 1786.84 3.79896C1843.32 5.15196 1898.57 11.749 1942.41 22.3735C1965.84 28.0526 1987.12 34.8853 2005.65 42.6802C2023.21 50.068 2038.42 58.3668 2050.86 67.3479C2074.3 84.2662 2087.76 103.52 2089.79 123.025L2087.96 123.045C2083.64 81.5077 2028.81 44.0472 1941.3 22.8389C1848.36 0.316156 1716.43 -2.16239 1627.6 16.9475C1539.61 35.8778 1503.08 71.7358 1515.93 126.571C1516.94 130.908 1519.02 136.268 1521.21 141.942C1527.67 158.65 1535.71 179.443 1527.24 197.013C1522.62 206.583 1513.35 214.274 1499.67 219.874C1491.97 223.022 1482.7 225.595 1472.1 227.52C1460.82 229.568 1447.7 230.943 1433.12 231.608C1427.16 231.879 1421.09 232.016 1414.93 232.016C1392.45 232.016 1368.52 230.207 1342.29 226.542C1312.74 222.413 1284.23 216.455 1261.32 211.668C1203.86 199.662 1149.05 186.15 1098.4 171.508C1054.51 158.821 1015.81 143.994 978.372 129.656C935.467 113.222 891.099 96.2274 838.964 82.5026C776.492 66.0567 704.915 59.8049 626.22 63.9234C467.032 72.2537 303.053 123.126 218.058 166.868C191.956 180.301 172.317 194.755 153.322 208.733C146.364 213.853 139.172 219.148 131.719 224.354C116.605 234.911 101.678 242.47 84.743 248.141C74.1722 251.68 62.7039 254.47 50.6566 256.433C37.2609 258.615 22.6707 259.856 7.28918 260.121C4.80496 260.162 2.3024 260.183 -0.203766 260.183Z" fill="#115766"/>
</g>
</svg>
