<svg width="1920" height="462" viewBox="0 0 1920 462" fill="none" xmlns="http://www.w3.org/2000/svg">
<g opacity="0.3">
<path d="M707.46 461.717C699.783 461.717 692.31 461.34 685.129 460.587C670.068 459.008 656.154 455.765 643.773 450.949C630.464 445.774 618.793 438.722 609.078 429.991C589.554 412.441 579.786 391.424 570.338 371.098C568.482 367.106 566.563 362.979 564.615 358.975C551.322 331.683 534.47 307.776 513.102 285.889C470.474 242.229 410.526 204.968 339.735 178.134C257.866 147.104 169.843 131.646 91.8794 134.61C46.0564 136.353 -14.4887 152.925 -41.5477 181.228C-57.6061 198.026 -58.901 216.667 -45.2898 235.133L-45.5601 235.211C-52.6968 225.526 -55.8063 215.817 -54.7995 206.354C-53.8759 197.673 -49.5041 189.187 -41.8031 181.132C-29.5551 168.32 -9.35661 156.965 16.6095 148.293C40.6036 140.281 67.327 135.355 91.8616 134.422C132.662 132.872 176.056 136.312 220.837 144.647C261.43 152.204 301.485 163.416 339.889 177.973C410.722 204.821 470.706 242.102 513.357 285.789C534.738 307.691 551.598 331.61 564.9 358.918C566.851 362.922 568.77 367.051 570.623 371.042C580.062 391.353 589.824 412.356 609.321 429.88C628.178 446.829 653.701 457.098 685.179 460.398C728.772 464.969 781.708 455.408 826.78 434.822C891.732 405.157 936.81 361.978 980.405 320.222C988.047 312.903 995.947 305.335 1003.77 298.027C1024.08 279.05 1051.58 254.459 1084.27 232.552C1117.68 210.159 1151.63 193.707 1188.07 182.254C1210.37 175.243 1234 170.52 1258.32 168.216C1280.77 166.086 1304.54 165.954 1328.96 167.82C1370.85 171.022 1415.98 180.065 1466.94 195.465C1567.26 225.792 1667.48 262.601 1764.8 304.874C1857.31 345.052 1948.03 390.517 2034.46 440.001L2034.26 440.138C1855.1 337.56 1664.19 255.297 1466.81 195.632C1355.29 161.924 1266.76 157.725 1188.2 182.419C1108.28 207.541 1052.45 252.878 1004.02 298.129C996.196 305.435 988.296 313.003 980.655 320.322C937.047 362.093 891.955 405.285 826.958 434.971C805.955 444.564 782.326 452.047 758.629 456.609C746.111 459.019 733.667 460.595 721.638 461.293C716.845 461.577 712.114 461.717 707.46 461.717Z" fill="#46B2C8"/>
<path d="M714.965 451.31C695.387 451.31 677.253 448.978 661.046 444.376C642.974 439.243 627.379 431.291 614.691 420.74C613.569 419.806 612.455 418.839 611.38 417.866C592.064 400.392 581.862 379.648 571.999 359.585C570.003 355.531 567.942 351.337 565.851 347.268C553.398 323.038 538.403 301.682 520.004 281.984C517.738 279.559 515.392 277.129 513.025 274.762C469.771 231.477 409.336 194.687 338.253 168.371C255.793 137.869 167.521 123.051 89.6969 126.646C44.2065 128.77 -16.0594 145.614 -43.2343 173.7C-59.5065 190.518 -61.3478 209.196 -48.5653 227.716L-48.8385 227.79C-55.5387 218.083 -58.2918 208.356 -57.0177 198.881C-55.8475 190.18 -51.2976 181.675 -43.4897 173.603C-31.1169 160.814 -10.9778 149.446 14.7447 140.729C38.519 132.672 65.1266 127.605 89.6702 126.461C130.421 124.578 173.862 127.689 218.785 135.705C259.476 142.966 299.721 153.903 338.402 168.211C409.526 194.542 469.994 231.354 513.274 274.663C515.641 277.032 517.991 279.465 520.257 281.891C538.667 301.602 553.671 322.969 566.13 347.212C568.224 351.281 570.285 355.475 572.281 359.532C582.141 379.581 592.334 400.31 611.624 417.76C612.696 418.73 613.809 419.696 614.929 420.629C641.148 442.438 677.173 451.31 715.057 451.31C715.265 451.31 715.47 451.31 715.678 451.31C715.44 451.308 715.203 451.31 714.965 451.31ZM723.046 451.18C758.267 450.049 794.61 441.581 825.788 428.985C893.042 401.702 941.378 359.563 988.125 318.812C990.049 317.133 991.974 315.457 993.898 313.781C998.124 310.102 1003.13 305.746 1008.25 301.355C1031.19 281.665 1058.96 258.754 1090.93 238.132C1124.96 216.19 1158.95 199.907 1194.85 188.351C1216.9 181.259 1240.22 176.262 1264.13 173.501C1286.29 170.942 1309.71 170.22 1333.73 171.351C1375.22 173.308 1419.83 180.725 1470.12 194.03C1519.15 206.981 1559.45 219.172 1596.95 232.396C1650.08 251.149 1700.68 272.755 1743.18 291.416C1841.98 334.926 1938.92 384.332 2031.3 438.262L2031.1 438.398C1938.72 384.475 1841.8 335.073 1743.01 291.569C1700.52 272.909 1649.92 251.307 1596.81 232.56C1559.32 219.339 1519.03 207.152 1470.01 194.204C1360.46 165.221 1273.07 163.413 1194.98 188.518C1113.94 214.603 1056.23 260.497 1008.49 301.467C1003.37 305.858 998.365 310.211 994.139 313.892C992.214 315.566 990.29 317.244 988.365 318.924C941.604 359.688 893.25 401.841 825.949 429.145C809.26 435.886 791.503 441.241 773.167 445.059C756.099 448.61 739.274 450.664 723.046 451.18Z" fill="#46B2C8"/>
<path d="M723.24 441.141C720.885 441.141 718.545 441.109 716.222 441.044C696.662 440.503 678.561 437.696 662.422 432.695C644.772 427.227 629.479 419.127 616.973 408.62C615.862 407.683 614.755 406.715 613.685 405.741C594.586 388.353 583.959 367.886 573.686 348.095C571.545 343.97 569.329 339.703 567.084 335.563C554.017 311.415 538.626 290.231 520.029 270.798C517.727 268.396 515.345 265.986 512.942 263.637C469.062 220.729 408.139 184.412 336.766 158.612C253.718 128.64 165.196 114.459 87.5088 118.686C43.7677 121.104 -16.3229 136.987 -44.8937 166.145C-61.4005 182.99 -63.8032 201.719 -51.8433 220.304L-52.1195 220.372C-58.386 210.636 -60.7768 200.886 -59.2325 191.395C-57.8129 182.665 -53.0728 174.138 -45.1461 166.048C-32.6427 153.288 -12.5689 141.916 12.9071 133.159C36.4587 125.063 62.9445 119.859 87.4821 118.502C128.185 116.289 171.674 119.069 216.736 126.765C257.528 133.733 297.961 144.393 336.915 158.452C408.33 184.269 469.284 220.606 513.192 263.539C515.595 265.889 517.979 268.299 520.281 270.705C538.888 290.149 554.287 311.346 567.36 335.508C569.606 339.649 571.821 343.916 573.963 348.041C584.233 367.821 594.85 388.273 613.926 405.641C614.995 406.615 616.097 407.581 617.208 408.514C668.026 451.21 758.086 446.626 824.794 423.145C894.855 398.266 946.92 356.917 997.273 316.93L997.789 316.519C1002.67 312.643 1007.71 308.637 1012.73 304.681C1065.69 262.948 1123.9 220.058 1201.63 194.444C1223.45 187.268 1246.44 181.998 1269.95 178.782C1291.83 175.79 1314.89 174.476 1338.5 174.878C1379.66 175.576 1423.75 181.37 1473.31 192.59C1525.39 204.339 1564.58 215.138 1600.39 227.608C1651.4 245.411 1700.82 267.907 1744.42 287.756C1841.49 332.185 1936.95 382.236 2028.15 436.514L2027.95 436.648C1936.76 382.375 1841.3 332.33 1744.24 287.904C1700.65 268.059 1651.24 245.567 1600.24 227.77C1564.45 215.303 1525.27 204.508 1473.21 192.762C1365.79 168.443 1279.54 169.028 1201.76 194.606C1124.09 220.203 1065.9 263.074 1012.96 304.793C1007.94 308.749 1002.9 312.757 998.021 316.631L997.504 317.042C972.411 336.968 946.466 357.573 918.448 375.978C886.961 396.661 856.373 412.141 824.937 423.302C792.047 434.879 756.221 441.141 723.24 441.141Z" fill="#46B2C8"/>
<path d="M2024.81 434.895C1934.8 380.274 1840.82 329.586 1745.49 284.24C1741.45 282.333 1737.4 280.418 1733.34 278.496C1692.05 258.945 1649.35 238.729 1603.69 222.979C1559.39 207.742 1514.5 198.426 1476.43 191.322C1371.33 171.593 1286.21 174.571 1208.56 200.693C1128.84 227.587 1067.07 272.24 1017.44 308.121C1014.47 310.274 1011.49 312.431 1008.51 314.591C1006.32 316.185 1004.12 317.779 1001.91 319.372C973.656 339.822 947.951 358.106 919.549 374.79C887.103 393.849 855.83 407.807 823.935 417.464C794.046 426.515 762.116 431.303 732.417 431.305C727.006 431.305 721.675 431.147 716.436 430.826C697.31 429.653 679.603 426.359 663.809 421.034C646.574 415.223 631.585 406.969 619.251 396.501C618.149 395.562 617.05 394.592 615.987 393.617C597.113 376.32 586.074 356.14 575.4 336.626C573.101 332.423 570.722 328.075 568.317 323.855C554.625 299.783 538.837 278.768 520.055 259.607C517.718 257.223 515.297 254.835 512.862 252.507C468.352 209.976 406.945 174.131 335.284 148.845C251.648 119.403 162.88 105.863 85.3287 110.716C32.3125 114.1 -21.9006 133.77 -46.5095 158.548C-63.2747 175.43 -66.2477 194.217 -55.1134 212.88L-55.3925 212.945C-61.2225 203.173 -63.254 193.394 -61.4304 183.878C-59.7524 175.117 -54.8164 166.563 -46.7619 158.45C-34.1279 145.727 -14.1194 134.356 11.1012 125.567C34.427 117.437 60.7763 112.097 85.299 110.532C125.954 107.987 169.488 110.438 214.69 117.814C255.58 124.489 296.206 134.874 335.432 148.682C407.138 173.982 468.577 209.848 513.114 252.404C515.553 254.735 517.973 257.124 520.311 259.508C539.104 278.68 554.898 299.707 568.599 323.79C571.004 328.012 573.383 332.358 575.682 336.563C586.35 356.066 597.383 376.232 616.233 393.509C617.297 394.483 618.393 395.451 619.491 396.387C672.543 441.417 762.713 435.793 823.808 417.295C896.699 395.224 952.477 354.862 1001.69 319.249C1003.89 317.655 1006.09 316.06 1008.29 314.468C1011.27 312.309 1014.24 310.152 1017.22 307.998C1045.55 287.518 1073.53 267.615 1104.29 249.275C1139.65 228.184 1173.72 212.239 1208.42 200.529C1230.01 193.266 1252.68 187.723 1275.79 184.057C1297.38 180.629 1320.09 178.726 1343.28 178.399C1384.18 177.823 1427.76 181.992 1476.52 191.144C1514.6 198.251 1559.52 207.572 1603.84 222.817C1649.52 238.573 1692.22 258.795 1733.53 278.35C1737.58 280.271 1741.63 282.187 1745.67 284.093C1841.01 329.443 1935 380.136 2025.02 434.763L2024.81 434.895Z" fill="#46B2C8"/>
<path d="M2021.66 433.145C1931.14 377.13 1838.64 325.797 1746.72 280.576C1741.22 277.87 1735.6 275.081 1730.16 272.385C1691.19 253.075 1650.9 233.108 1607.13 218.189C1563.43 203.344 1518.16 195.548 1479.64 189.88C1377.1 174.649 1293.12 180.019 1215.35 206.78C1141.17 232.398 1083.06 270.921 1026.86 308.175L1020.69 312.264C1015.81 315.496 1010.77 318.835 1005.8 322.111C949.548 359.15 893.232 393.866 822.931 411.622C805.871 415.931 788.355 418.917 770.862 420.502C752.077 422.202 733.83 422.227 716.625 420.573C697.938 418.776 680.632 415.002 665.189 409.355C648.382 403.21 633.693 394.806 621.534 384.378C620.438 383.434 619.348 382.463 618.294 381.489C599.651 364.294 588.214 344.412 577.154 325.184C574.686 320.893 572.132 316.456 569.554 312.147C555.227 288.149 539.047 267.303 520.087 248.417C517.717 246.057 515.261 243.688 512.787 241.378C467.65 199.225 405.759 163.852 333.804 139.081C249.577 110.172 160.559 97.2692 83.1418 102.753C30.6097 106.552 -23.3569 126.36 -48.0905 150.923C-65.1349 167.847 -68.6958 186.707 -58.3902 205.464L-58.6723 205.526C-64.0657 195.711 -65.7318 185.895 -63.6262 176.351C-61.6838 167.553 -56.5429 158.965 -48.3459 150.826C-35.5752 138.146 -15.638 126.786 9.31532 117.971C32.4095 109.812 58.6161 104.343 83.1062 102.57C123.714 99.6941 167.292 101.814 212.637 108.871C253.628 115.252 294.44 125.36 333.944 138.919C405.941 163.703 467.867 199.099 513.03 241.276C515.504 243.588 517.963 245.959 520.333 248.319C539.305 267.214 555.494 288.071 569.827 312.082C572.405 316.391 574.959 320.83 577.427 325.121C588.481 344.337 599.913 364.21 618.534 381.385C619.585 382.355 620.675 383.325 621.768 384.269C673.543 428.672 759.57 427.426 822.815 411.451C893.06 393.71 949.352 359.007 1005.58 321.984C1010.55 318.708 1015.59 315.369 1020.47 312.138L1026.64 308.048C1054.23 289.762 1082.75 270.852 1113.73 253.261C1148.82 233.338 1182.01 218.081 1215.2 206.617C1236.57 199.262 1258.91 193.446 1281.6 189.332C1302.94 185.464 1325.29 182.97 1348.05 181.92C1388.76 180.042 1431.83 182.587 1479.7 189.698C1518.24 195.369 1563.54 203.168 1607.27 218.025C1651.06 232.95 1691.36 252.923 1730.34 272.238C1735.78 274.934 1741.41 277.722 1746.91 280.429C1838.83 325.654 1931.34 376.99 2021.86 433.011L2021.66 433.145Z" fill="#46B2C8"/>
<path d="M2018.51 431.394C1928.77 374.756 1837.74 322.781 1747.96 276.913C1741.21 273.466 1734.3 269.882 1727.61 266.416C1690.74 247.315 1652.62 227.563 1610.57 213.402C1567.07 198.812 1521.6 192.596 1482.85 188.442C1383.15 177.588 1300.3 185.351 1222.13 212.87C1153.91 236.987 1097.9 271.165 1043.74 304.218C1038.04 307.696 1032.14 311.292 1026.4 314.776C1019.65 318.867 1014.5 321.976 1009.69 324.852C983.939 340.249 953.278 357.977 921.101 372.723C887.004 388.349 854.563 399.163 821.923 405.785C804.76 409.267 787.318 411.464 770.077 412.311C751.566 413.221 733.642 412.553 716.809 410.321C698.57 407.903 681.668 403.65 666.566 397.68C650.19 391.206 635.807 382.651 623.814 372.257C622.733 371.315 621.649 370.341 620.598 369.364C602.202 352.284 590.382 332.709 578.948 313.778C576.295 309.387 573.554 304.848 570.789 300.438C555.818 276.508 539.242 255.832 520.113 237.227C517.708 234.887 515.216 232.541 512.706 230.249C466.943 188.473 404.565 153.572 332.319 129.316C247.506 100.938 158.239 88.6766 80.9585 94.7861C36.9857 98.3389 -20.4468 114.705 -49.6293 143.257C-66.9796 160.233 -71.1435 179.179 -61.6664 198.044L-61.9486 198.1C-66.9054 188.235 -68.2003 178.376 -65.8006 168.795C-63.585 159.953 -58.2302 151.327 -49.8788 143.157C-36.9715 130.529 -17.1086 119.187 7.56857 110.354C30.4311 102.17 56.4803 96.5774 80.9229 94.6022C121.483 91.395 165.109 93.1844 210.59 99.922C251.679 106.009 292.682 115.842 332.458 129.152C404.746 153.421 467.159 188.343 512.95 230.144C515.459 232.435 517.954 234.785 520.36 237.126C539.498 255.741 556.082 276.428 571.062 300.37C573.83 304.781 576.572 309.32 579.224 313.711C590.649 332.632 602.466 352.197 620.841 369.258C621.893 370.234 622.974 371.205 624.055 372.146C667.128 409.483 741.064 421.992 821.831 405.605C894.975 390.766 954.641 357.507 1009.49 324.715C1014.29 321.839 1019.44 318.73 1026.19 314.638C1031.93 311.154 1037.83 307.559 1043.53 304.08C1070.19 287.809 1097.77 270.983 1127.18 255.228C1160.44 237.411 1191.45 223.501 1221.99 212.705C1243.16 205.254 1265.17 199.165 1287.43 194.609C1308.52 190.292 1330.52 187.21 1352.83 185.442C1393.44 182.228 1435.99 183.148 1482.9 188.254C1521.67 192.412 1567.18 198.63 1610.71 213.233C1652.79 227.403 1690.92 247.16 1727.8 266.267C1734.48 269.733 1741.4 273.317 1748.15 276.764C1837.93 322.638 1928.97 374.617 2018.72 431.258L2018.51 431.394Z" fill="#46B2C8"/>
<path d="M2015.36 429.644C1926.4 372.38 1836.85 319.76 1749.2 273.249C1741.74 269.293 1734.08 265.14 1726.68 261.125C1691.39 241.997 1654.91 222.219 1614.01 208.612C1570.48 194.197 1524.9 189.598 1486.06 187C1390.88 180.465 1306.77 190.919 1228.92 218.958C1166.93 241.386 1113.8 271.389 1062.41 300.406C1052.03 306.266 1041.3 312.328 1030.87 318.104C1024.49 321.641 1018.83 324.745 1013.58 327.596C989.131 340.837 956.613 357.815 921.865 371.689C886.95 385.629 853.927 394.873 820.911 399.948C784.9 405.483 748.961 405.524 716.981 400.068C699.2 397.034 682.699 392.303 667.936 386.006C651.996 379.207 637.919 370.504 626.089 360.141C625.017 359.197 623.942 358.221 622.897 357.244C604.762 340.294 592.574 321.04 580.789 302.422C577.938 297.918 574.992 293.261 572.019 288.737C556.391 264.869 539.421 244.361 520.137 226.043C517.696 223.724 515.168 221.398 512.623 219.127C466.233 177.728 403.371 143.297 330.834 119.559C245.436 91.7154 155.92 80.0928 78.7728 86.8285C26.4902 91.4924 -25.7123 111.077 -51.123 135.56C-68.806 152.597 -73.5846 171.641 -64.9421 190.633L-65.2272 190.683C-69.7445 180.759 -70.6652 170.848 -67.9655 161.226C-65.4708 152.333 -59.8873 143.663 -51.3725 135.458C-38.3285 122.889 -18.5429 111.573 5.84618 102.732C28.4681 94.5323 54.3541 88.8167 78.7312 86.6427C119.244 83.1048 162.917 84.5653 208.538 90.9814C249.728 96.7751 290.921 106.333 330.97 119.392C403.549 143.145 466.447 177.594 512.867 219.02C515.412 221.29 517.939 223.619 520.384 225.939C539.676 244.268 556.655 264.785 572.292 288.664C575.265 293.189 578.211 297.847 581.062 302.351C592.841 320.96 605.024 340.205 623.14 357.138C624.186 358.116 625.258 359.087 626.33 360.031C668.663 397.127 741.376 411.981 820.839 399.767C893.282 388.632 956.191 358.431 1013.38 327.456C1018.63 324.606 1024.29 321.503 1030.67 317.967C1041.1 312.19 1051.83 306.131 1062.21 300.27C1113.61 271.248 1166.75 241.237 1228.77 218.8C1249.75 211.243 1271.44 204.883 1293.25 199.892C1314.11 195.12 1335.76 191.447 1357.59 188.974C1398.2 184.375 1440.23 183.671 1486.08 186.818C1524.96 189.418 1570.57 194.019 1614.15 208.451C1655.08 222.067 1691.58 241.852 1726.87 260.987C1734.28 265.003 1741.93 269.154 1749.39 273.11C1837.05 319.624 1926.6 372.249 2015.57 429.516L2015.36 429.644Z" fill="#46B2C8"/>
<path d="M2012.21 427.894C1924.04 369.999 1835.96 316.737 1750.44 269.587C1742.58 265.254 1734.49 260.666 1726.67 256.229C1692.68 236.94 1657.53 216.993 1617.45 203.824C1573.74 189.531 1528.12 186.571 1489.26 185.561C1397.68 183.004 1314.74 195.92 1235.71 225.048C1180.28 245.573 1130.87 271.549 1083.08 296.669C1066.65 305.308 1051.13 313.467 1035.35 321.433C1028.92 324.675 1023.08 327.589 1017.46 330.337C981.245 348.054 951.112 360.864 922.63 370.649C886.899 382.926 853.297 390.6 819.904 394.108C806.949 395.468 794.041 396.146 781.369 396.146C758.904 396.146 737.167 394.021 717.156 389.81C680.94 382.19 651.069 368.129 628.37 348.019C627.301 347.066 626.234 346.09 625.201 345.116C607.343 328.313 594.813 309.401 582.695 291.11C579.624 286.476 576.452 281.685 573.254 277.027C556.958 253.215 539.59 232.878 520.166 214.852C517.689 212.554 515.126 210.248 512.545 207.998C465.529 166.976 402.18 133.016 329.351 109.793C243.369 82.4845 153.606 71.4992 76.5923 78.8611C24.0928 83.984 -26.6039 103.197 -52.5581 127.81C-70.6004 144.918 -76.0116 164.075 -68.2126 183.212L-68.5007 183.258C-72.5725 173.265 -73.113 163.295 -70.1044 153.623C-67.3187 144.671 -61.5006 135.952 -52.8046 127.708C-39.6241 115.208 -19.9245 103.929 4.16757 95.0882C26.546 86.8753 52.2508 81.0482 76.5478 78.6772C117.013 74.8086 160.733 75.9383 206.491 82.0348C247.782 87.5368 289.162 96.82 329.488 109.626C402.358 132.864 465.742 166.842 512.789 207.888C515.37 210.14 517.933 212.446 520.413 214.746C539.848 232.781 557.225 253.13 573.527 276.951C576.726 281.609 579.901 286.401 582.968 291.036C595.08 309.318 607.604 328.222 625.447 345.011C626.481 345.982 627.544 346.958 628.613 347.909C671 385.466 740.704 402.237 819.853 393.922C895.197 386.007 961.932 357.263 1017.28 330.188C1022.89 327.44 1028.74 324.528 1035.16 321.286C1050.94 313.32 1066.46 305.163 1082.89 296.524C1130.68 271.399 1180.11 245.418 1235.55 224.886C1256.38 217.212 1277.75 210.578 1299.08 205.168C1319.74 199.928 1341.03 195.663 1362.37 192.495C1403.06 186.454 1444.57 184.124 1489.28 185.373C1528.17 186.384 1573.82 189.347 1617.59 203.657C1657.7 216.835 1692.86 236.791 1726.87 256.088C1734.69 260.525 1742.77 265.113 1750.63 269.444C1836.16 316.598 1924.24 369.865 2012.42 427.764L2012.21 427.894Z" fill="#46B2C8"/>
<path d="M2009.06 426.143C1920.45 366.787 1836.26 314.379 1751.68 265.922C1743.6 261.299 1735.66 256.578 1727.25 251.579C1694.36 232.039 1660.35 211.836 1620.89 199.035C1576.63 184.748 1529.01 183.559 1492.47 184.12C1405.06 185.287 1323.29 200.667 1242.49 231.138C1194.01 249.509 1149.26 271.571 1105.97 292.908C1083.22 304.122 1061.73 314.711 1039.82 324.762C1033.31 327.748 1027.27 330.468 1021.35 333.079C984.638 349.237 953.513 360.843 923.392 369.606C886.832 380.242 852.651 386.346 818.895 388.267C801.55 389.254 784.325 389.068 767.696 387.715C750.09 386.283 733.144 383.535 717.329 379.549C682.275 370.713 653.113 356.029 630.652 335.9C629.591 334.944 628.534 333.967 627.507 332.993C609.948 316.363 597.103 297.812 584.68 279.871C581.366 275.085 577.938 270.135 574.49 265.322C557.511 241.562 539.751 221.394 520.194 203.666C517.679 201.388 515.08 199.102 512.469 196.872C464.826 156.228 400.993 122.74 327.873 100.032C260.385 79.1597 190.787 68.2692 126.966 68.2692C108.924 68.2692 91.3569 69.1388 74.4135 70.8985C22.5466 76.3911 -27.8323 95.6729 -53.938 120.022C-72.3635 137.21 -78.4311 156.497 -71.4844 175.797L-71.7754 175.838C-75.4017 165.767 -75.5532 155.728 -72.2269 146C-69.1441 136.983 -63.0735 128.207 -54.1875 119.918C-40.8703 107.496 -21.2628 96.2638 2.52036 87.4321C24.9701 79.0947 49.8135 73.314 74.36 70.7164C114.778 66.517 158.546 67.3178 204.443 73.0929C245.832 78.2994 287.405 87.3058 328.004 99.863C401.165 122.584 465.037 156.09 512.71 196.759C515.323 198.989 517.925 201.276 520.441 203.556C540.007 221.294 557.776 241.471 574.764 265.242C578.212 270.055 581.642 275.005 584.956 279.793C597.374 297.726 610.213 316.27 627.756 332.887C628.784 333.859 629.841 334.837 630.898 335.79C672.902 373.43 741.412 392.487 818.871 388.079C897.251 383.618 968.161 356.259 1021.18 332.923C1027.1 330.312 1033.15 327.592 1039.65 324.608C1061.56 314.561 1083.04 303.969 1105.79 292.757C1149.08 271.419 1193.85 249.351 1242.34 230.975C1283.94 215.286 1324.77 203.853 1367.15 196.019C1408.02 188.464 1449.02 184.51 1492.47 183.93C1517.27 183.549 1537.5 184.211 1556.14 186.01C1580.2 188.332 1601.43 192.537 1621.03 198.866C1660.53 211.678 1694.55 231.892 1727.46 251.442C1735.87 256.44 1743.81 261.16 1751.88 265.783C1836.47 314.241 1920.67 366.653 2009.28 426.013L2009.06 426.143Z" fill="#46B2C8"/>
<path d="M2005.91 424.393C1918.11 364.386 1835.36 311.353 1752.91 262.258C1744.76 257.401 1736.71 252.397 1728.2 247.099C1696.3 227.251 1663.31 206.724 1624.33 194.245C1579.7 180.024 1532.14 180.593 1495.69 182.676C1413.2 187.227 1332.59 205.07 1249.28 237.223C1208.23 253.142 1169.14 271.359 1131.35 288.978C1101.47 302.905 1073.25 316.06 1044.29 328.084C1037.75 330.804 1031.34 333.406 1025.23 335.814C988.451 350.315 955.387 361.023 924.152 368.552C886.752 377.568 851.992 382.106 817.885 382.421C800.532 382.581 783.374 381.6 766.9 379.502C749.63 377.302 733.01 373.863 717.501 369.277C683.65 359.267 655.195 343.958 632.93 323.773C631.884 322.82 630.833 321.841 629.808 320.862C612.58 304.434 599.456 286.274 586.762 268.713C583.171 263.744 579.456 258.605 575.723 253.608C558.049 229.893 539.894 209.896 520.221 192.47C517.67 190.213 515.035 187.948 512.389 185.738C464.119 145.471 399.799 112.455 326.388 90.2619C239.239 64.0251 148.974 54.3182 72.2277 62.9288C21.032 68.7726 -29.0113 88.1046 -55.2625 112.177C-74.1037 129.455 -80.8454 148.888 -74.763 168.376L-75.0541 168.411C-78.226 158.253 -77.9824 148.135 -74.3264 138.341C-70.9318 129.249 -64.6029 120.41 -55.509 112.071C-42.0611 99.7383 -22.5517 88.5617 0.910767 79.7486C23.1021 71.413 47.7436 65.5339 72.1742 62.7448C112.547 58.2165 156.36 58.6848 202.394 64.1403C243.884 69.0569 285.644 77.7882 326.516 90.0928C399.971 112.297 464.327 145.333 512.624 185.625C515.273 187.834 517.91 190.101 520.461 192.361C540.146 209.795 558.307 229.802 575.99 253.527C579.726 258.523 583.439 263.663 587.032 268.633C599.72 286.187 612.838 304.339 630.055 320.756C631.079 321.733 632.131 322.712 633.173 323.664C675.619 362.142 741.216 382.945 817.879 382.232C880.084 381.656 945.922 366.854 1025.07 335.652C1031.17 333.244 1037.59 330.645 1044.13 327.924C1073.07 315.902 1101.29 302.75 1131.17 288.824C1168.97 271.203 1208.06 252.982 1249.12 237.06C1291.13 220.848 1331.29 208.577 1371.91 199.54C1413.06 190.387 1453.54 184.807 1495.66 182.485C1532.15 180.398 1579.77 179.831 1624.46 194.074C1663.49 206.568 1696.49 227.104 1728.41 246.962C1736.92 252.259 1744.96 257.261 1753.12 262.117C1835.57 311.214 1918.33 364.251 2006.13 424.261L2005.91 424.393Z" fill="#46B2C8"/>
<path d="M2002.76 422.643C1915.78 361.984 1834.46 308.323 1754.15 258.596C1746 253.547 1737.95 248.302 1729.43 242.748C1698.43 222.544 1666.37 201.653 1627.77 189.457C1582.73 175.288 1535.24 177.62 1498.9 181.234C1421.28 188.806 1344.13 208.532 1256.07 243.313C1223.04 256.416 1190.77 270.791 1159.56 284.691C1121.65 301.574 1085.84 317.523 1048.77 331.412C1042.09 333.917 1035.48 336.322 1029.12 338.555C991.678 351.699 957.593 361.168 924.914 367.501C906.611 371.048 888.542 373.618 871.209 375.14C852.721 376.762 834.441 377.247 816.877 376.582C781.241 375.231 747.865 369.318 717.679 359.009C685.078 347.875 657.333 331.944 635.216 311.653C634.176 310.692 633.134 309.711 632.115 308.738C615.255 292.551 601.896 274.823 588.98 257.68C585.068 252.49 581.026 247.124 576.96 241.902C558.574 218.226 540.023 198.398 520.25 181.283C517.663 179.044 514.99 176.799 512.311 174.612C463.414 134.72 398.61 102.177 324.908 80.5015C237.177 54.8017 146.665 45.734 70.0468 54.9671C-11.9916 65.0065 -91.9332 108.385 -78.0339 160.96L-78.328 160.99C-81.8057 147.838 -79.7684 134.882 -72.2752 122.477C-65.4325 111.148 -54.2032 100.486 -38.8992 90.79C-24.6702 81.7743 -7.59908 73.9906 11.8361 67.6544C30.321 61.6285 50.4304 57.1764 69.9874 54.7831C110.313 49.9241 154.173 50.0634 200.347 55.1993C241.937 59.8242 283.888 68.2806 325.033 80.3343C398.776 102.024 463.619 134.586 512.546 174.501C515.227 176.689 517.9 178.934 520.49 181.175C540.273 198.298 558.832 218.137 577.228 241.823C581.293 247.044 585.336 252.41 589.247 257.602C602.16 274.739 615.513 292.46 632.364 308.637C633.38 309.611 634.42 310.592 635.459 311.551C677.968 350.546 742.403 373.573 816.895 376.398C879.959 378.785 949.33 366.356 1028.97 338.395C1035.33 336.162 1041.94 333.759 1048.62 331.254C1085.68 317.369 1121.48 301.422 1159.38 284.541C1190.6 270.638 1222.88 256.262 1255.91 243.157C1344 208.361 1421.2 188.628 1498.85 181.051C1523.27 178.622 1543.49 177.845 1562.48 178.609C1586.76 179.584 1608.16 183.078 1627.9 189.289C1666.54 201.499 1698.62 222.403 1729.64 242.618C1738.16 248.17 1746.21 253.415 1754.36 258.462C1834.68 308.193 1916 361.856 2002.98 422.518L2002.76 422.643Z" fill="#46B2C8"/>
<path d="M1999.61 420.893C1913.46 359.573 1833.57 305.287 1755.39 254.932C1747.3 249.722 1739.31 244.265 1730.84 238.484C1700.68 217.894 1669.49 196.602 1631.21 184.667C1585.19 170.38 1535.49 175.042 1502.11 179.791C1411.52 192.523 1330.33 222.123 1262.86 249.402C1238.61 259.247 1214.42 269.675 1191.03 279.759C1144.1 299.988 1099.78 319.095 1053.25 334.741C1046.41 337.043 1039.6 339.249 1033.01 341.298C994.84 353.151 959.732 361.379 925.685 366.448C887.088 372.195 850.145 373.641 815.875 370.742C780.669 367.763 747.691 360.361 717.861 348.738C686.573 336.549 659.538 319.995 637.501 299.535C636.473 298.574 635.436 297.591 634.424 296.614C617.982 280.725 604.457 263.483 591.375 246.808C587.089 241.344 582.655 235.695 578.2 230.197C558.821 206.223 540.417 187.127 520.283 170.095C517.661 167.877 514.955 165.655 512.238 163.486C462.708 123.973 397.417 91.9016 323.425 70.7393C235.111 45.5784 144.35 37.148 67.862 47.0036C-14.4704 57.7528 -92.7786 100.542 -81.3087 153.545L-81.6027 153.569C-84.4479 140.419 -81.9858 127.476 -74.2878 115.098C-67.2312 103.758 -55.9366 93.0852 -40.7127 83.3783C-26.5164 74.3255 -9.53439 66.4842 9.76423 60.0681C28.1392 53.9585 48.21 49.3783 67.8026 46.8196C108.084 41.6298 151.988 41.4403 198.298 46.2547C239.99 50.5879 282.131 58.7692 323.549 70.5702C397.587 91.7436 462.913 123.834 512.467 163.371C515.184 165.541 517.893 167.765 520.518 169.984C540.663 187.023 559.074 206.13 578.461 230.113C582.916 235.611 587.35 241.262 591.636 246.727C604.716 263.396 618.238 280.632 634.667 296.513C635.68 297.491 636.714 298.472 637.741 299.433C680.579 339.204 743.854 364.463 815.91 370.558C880.536 376.025 951.505 366.398 1032.88 341.131C1039.46 339.083 1046.27 336.879 1053.11 334.577C1099.62 318.935 1143.94 299.832 1190.86 279.604C1214.25 269.52 1238.44 259.091 1262.69 249.244C1308.06 230.903 1345.81 217.351 1381.46 206.598C1423.44 193.941 1462.88 185.113 1502.04 179.609C1525.91 176.212 1546.72 174.674 1565.65 174.908C1590.03 175.209 1611.52 178.346 1631.34 184.5C1669.68 196.449 1700.88 217.755 1731.06 238.358C1739.52 244.136 1747.52 249.594 1755.6 254.8C1833.79 305.157 1913.68 359.446 1999.84 420.768L1999.61 420.893Z" fill="#46B2C8"/>
<path d="M1996.47 419.139C1911.15 357.156 1832.7 302.244 1756.63 251.265C1748.65 245.919 1740.76 240.272 1732.4 234.293C1703.04 213.288 1672.68 191.569 1634.65 179.875C1588.12 165.622 1538.56 172.175 1505.32 178.346C1423.24 193.455 1350.03 222.222 1269.65 255.488C1255.15 261.511 1240.49 267.726 1226.31 273.739C1171.77 296.861 1115.37 320.77 1057.72 338.066C1050.72 340.169 1043.71 342.178 1036.9 344.036C998.466 354.501 961.306 361.684 926.448 365.387C886.96 369.583 849.42 369.418 814.862 364.899C780.149 360.359 747.572 351.465 718.033 338.461C688.141 325.302 661.809 308.127 639.772 287.415C638.754 286.452 637.726 285.467 636.719 284.49C620.774 268.973 607.163 252.292 594 236.162C589.257 230.35 584.354 224.34 579.426 218.493C559.29 194.543 540.503 175.611 520.301 158.91C517.649 156.718 514.905 154.514 512.149 152.362C462.001 113.221 396.229 81.6212 321.939 60.9755C233.046 36.3534 142.039 28.5622 65.676 39.0384C-14.0429 50.0943 -93.7974 91.3819 -84.5876 146.126L-84.8817 146.145C-87.0943 132.995 -84.2075 120.066 -76.3045 107.717C-69.0371 96.3636 -57.6741 85.6812 -42.5334 75.9631C-14.5983 58.0359 24.8187 44.5106 65.6107 38.8544C105.844 33.3358 149.796 32.8155 196.246 37.3085C238.039 41.3517 280.366 49.2562 322.058 60.8045C396.39 81.4614 462.2 113.081 512.38 152.241C515.139 154.395 517.883 156.599 520.539 158.793C540.749 175.503 559.546 194.443 579.688 218.402C584.615 224.251 589.521 230.26 594.264 236.073C607.424 252.199 621.032 268.876 636.969 284.386C637.973 285.363 639 286.346 640.019 287.309C684.108 328.749 744.587 355.515 814.918 364.715C880.043 373.232 954.683 366.218 1036.77 343.865C1043.58 342.007 1050.59 340 1057.59 337.898C1115.22 320.608 1171.6 296.704 1226.13 273.585C1240.31 267.572 1254.98 261.356 1269.47 255.334C1304.66 240.772 1345.6 224.069 1386.23 210.124C1428.73 195.538 1467.66 185.086 1505.23 178.17C1528.88 173.779 1549.69 171.501 1568.83 171.207C1592.96 170.836 1615.15 173.697 1634.78 179.71C1651.81 184.948 1668.95 192.765 1687.18 203.609C1703.28 213.184 1718.2 223.854 1732.62 234.17C1740.97 240.148 1748.87 245.794 1756.84 251.138C1832.91 302.12 1911.36 357.033 1996.69 419.019L1996.47 419.139Z" fill="#46B2C8"/>
<path d="M1993.32 417.389C1908.83 354.737 1831.82 299.199 1757.87 247.603C1750.03 242.14 1742.28 236.322 1734.06 230.164C1705.47 208.723 1675.9 186.552 1638.09 175.089C1602.77 164.41 1560.39 165.005 1508.53 176.906C1436.03 193.453 1371.22 221.13 1302.6 250.434C1294.06 254.084 1285.22 257.856 1276.43 261.581C1272.99 263.044 1269.55 264.51 1266.1 265.974C1200.72 293.788 1133.12 322.55 1062.2 341.395C1055.03 343.302 1047.83 345.114 1040.79 346.779C1001.51 356.056 963.302 361.961 927.224 364.329C886.824 366.978 848.681 365.206 813.861 359.059C779.689 353.026 747.513 342.639 718.227 328.186C689.84 314.178 664.216 296.384 642.063 275.296C641.053 274.332 640.034 273.345 639.034 272.366C623.694 257.336 610.127 241.328 597.003 225.848C591.69 219.578 586.193 213.095 580.671 206.785C559.757 182.852 540.589 164.083 520.34 147.721C517.649 145.547 514.873 143.365 512.081 141.234C461.298 102.471 395.039 71.3422 320.458 51.2131C230.989 27.1317 139.729 19.9779 63.4937 31.0746C-14.761 42.5598 -94.4027 84.1856 -87.8599 138.711L-88.1569 138.725C-89.7339 125.574 -86.4254 112.66 -78.3175 100.342C-70.8363 88.9759 -59.408 78.2805 -44.3475 68.555C-16.5311 50.5906 22.7492 36.8646 63.4254 30.8944C103.615 25.045 147.611 24.194 194.197 28.3674C236.091 32.1171 278.612 39.7465 320.577 51.0421C395.199 71.1843 461.5 102.33 512.304 141.113C515.095 143.244 517.878 145.43 520.569 147.604C540.827 163.976 560.007 182.75 580.927 206.692C586.451 213.002 591.945 219.487 597.262 225.757C610.38 241.233 623.946 257.237 639.28 272.262C640.281 273.241 641.297 274.226 642.306 275.19C687.351 318.069 746.699 347.005 813.939 358.875C880.314 370.592 956.599 366.462 1040.68 346.6C1047.71 344.935 1054.92 343.125 1062.08 341.221C1132.98 322.383 1200.57 293.627 1265.94 265.816C1269.38 264.35 1272.82 262.886 1276.26 261.423C1285.06 257.698 1293.89 253.926 1302.43 250.278C1371.06 220.968 1435.89 193.284 1508.43 176.73C1531.85 171.352 1552.65 168.337 1572.01 167.506C1596.23 166.467 1618.51 168.963 1638.22 174.92C1655.15 180.054 1672.08 187.906 1689.98 198.927C1705.76 208.651 1720.27 219.526 1734.29 230.043C1742.51 236.199 1750.26 242.015 1758.09 247.476C1832.04 299.075 1909.06 354.614 1993.54 417.269L1993.32 417.389Z" fill="#46B2C8"/>
<path d="M1990.17 415.639C1913.06 357.257 1835.32 299.488 1759.1 243.939C1751.34 238.316 1743.66 232.275 1735.51 225.881C1709.04 205.082 1679.03 181.507 1641.53 170.301C1605.79 159.641 1563.34 161.33 1511.74 175.463C1450.39 192.212 1396.09 216.84 1338.61 242.913C1320.61 251.078 1301.99 259.523 1283.22 267.669C1250.45 281.919 1214.99 296.998 1177.83 310.731C1138.03 325.44 1101.67 336.557 1066.67 344.722C1059.32 346.437 1051.91 348.052 1044.66 349.518C1004.56 357.625 965.311 362.238 928.011 363.231C886.721 364.327 847.975 360.96 812.846 353.215C747.977 338.737 691.281 308.444 644.336 263.176C643.335 262.21 642.325 261.221 641.33 260.242C626.768 245.875 613.439 230.718 600.55 216.059C594.482 209.16 588.21 202.025 581.899 195.081C560.189 171.154 540.635 152.55 520.362 136.535C517.632 134.38 514.82 132.219 511.996 130.11C460.595 91.7207 393.849 61.0652 318.977 41.4508C228.928 17.9083 137.422 11.3955 61.3115 23.111C-17.4184 35.2985 -95.0642 76.3725 -91.135 131.295L-91.432 131.303C-92.3735 118.147 -88.6373 105.248 -80.3304 92.9619C-72.6323 81.5808 -61.1387 70.8743 -46.1643 61.1414C-32.0572 51.9715 -15.3365 43.9537 3.53152 37.309C21.85 30.8594 41.2645 26.0209 61.2373 22.9289C101.382 16.7506 145.426 15.5689 192.149 19.4208C234.144 22.8825 276.851 30.2351 319.09 41.278C394.006 60.9036 460.791 91.5776 512.221 129.985C515.046 132.096 517.864 134.259 520.593 136.414C540.875 152.439 560.438 171.05 582.157 194.984C588.468 201.93 594.741 209.065 600.808 215.966C613.698 230.623 627.024 245.778 641.58 260.14C642.571 261.121 643.584 262.108 644.582 263.074C691.492 308.306 748.138 338.575 812.945 353.039C879.7 367.755 959.796 366.477 1044.57 349.339C1051.82 347.873 1059.22 346.26 1066.56 344.547C1144.82 326.295 1216.42 296.485 1283.05 267.515C1301.82 259.369 1320.43 250.925 1338.44 242.761C1395.93 216.682 1450.24 192.049 1511.62 175.292C1563.3 161.137 1605.84 159.448 1641.66 170.132C1658.45 175.151 1675.12 183.018 1692.63 194.18C1708.07 204.022 1722.14 215.076 1735.75 225.764C1743.89 232.158 1751.57 238.197 1759.33 243.816C1835.55 299.367 1913.29 357.136 1990.4 415.52L1990.17 415.639Z" fill="#46B2C8"/>
<path d="M1987.02 413.889C1911.09 355.184 1834.82 296.771 1760.34 240.275C1752.83 234.591 1745.37 228.444 1737.47 221.937C1711.64 200.652 1682.37 176.526 1644.97 165.509C1608.8 154.868 1566.27 157.651 1514.95 174.016C1461.17 191.137 1411.76 215.311 1363.98 238.692C1340.02 250.415 1315.25 262.537 1290 273.755C1250.16 291.478 1216.63 304.997 1184.5 316.304C1144.87 330.246 1107.79 340.629 1071.14 348.047C1063.62 349.57 1056.02 350.986 1048.55 352.255C1009.63 358.865 971.413 362.209 934.853 362.211C932.821 362.211 930.802 362.2 928.782 362.18C886.514 361.748 847.169 356.765 811.838 347.37C794.785 342.81 778.085 337.022 762.205 330.166C747.278 323.722 732.609 316.131 718.606 307.606C693.412 292.269 669.861 273.77 646.612 251.054C645.614 250.077 644.619 249.097 643.63 248.114C630.141 234.712 617.379 220.701 605.039 207.152C597.914 199.331 590.549 191.243 583.13 183.37C560.288 159.114 540.939 141.216 520.384 125.342C517.619 123.207 514.771 121.067 511.911 118.978C459.887 80.97 392.656 50.7865 317.493 31.6868C226.869 8.68499 135.113 2.81144 59.1273 15.1457C-18.1265 27.7215 -95.6714 69.1077 -94.4092 123.876L-94.7062 123.878C-95.2942 98.3677 -79.1349 74.1098 -47.9773 53.7279C-33.8939 44.5153 -17.2623 36.4399 1.46015 29.7209C19.6777 23.184 39.0535 18.2191 59.053 14.9636C99.1501 8.45458 143.242 6.94392 190.101 10.4744C232.197 13.6462 275.095 20.7238 317.603 31.5121C392.814 50.6249 460.083 80.8269 512.14 118.857C515 120.948 517.854 123.09 520.619 125.225C541.183 141.108 560.541 159.011 583.388 183.277C590.807 191.152 598.176 199.24 605.297 207.061C617.638 220.609 630.396 234.617 643.883 248.016C644.872 248.999 645.864 249.978 646.862 250.954C696.263 299.224 750.266 330.706 811.954 347.199C897.396 369.92 987.732 362.393 1048.47 352.077C1055.93 350.808 1063.53 349.394 1071.05 347.87C1155.33 330.809 1232.24 299.219 1289.83 273.604C1315.07 262.39 1339.84 250.268 1363.8 238.547C1411.59 215.162 1461.01 190.981 1514.81 173.852C1537.78 166.529 1558.56 162.033 1578.36 160.108C1602.76 157.733 1625.22 159.495 1645.1 165.344C1661.84 170.277 1678.36 178.208 1695.58 189.587C1710.75 199.614 1724.46 210.905 1737.71 221.827C1745.6 228.333 1753.06 234.478 1760.57 240.158C1835.05 296.654 1911.32 355.067 1987.25 413.772L1987.02 413.889Z" fill="#46B2C8"/>
<path d="M1983.87 412.139L1761.58 236.612C1754.32 230.88 1747.11 224.642 1739.48 218.04C1714.29 196.252 1685.74 171.557 1648.41 160.723C1612.32 150.246 1568.49 154.234 1518.16 172.576C1469.76 190.207 1425.63 213.655 1382.94 236.332C1355.12 251.113 1326.35 266.396 1296.79 279.847C1207.95 320.277 1130.3 344.155 1052.44 354.998C1020.14 359.494 988.274 361.757 957.371 361.757C948.004 361.757 938.732 361.549 929.558 361.133C886.292 359.171 846.347 352.575 810.835 341.53C777.922 331.292 747.813 316.839 718.797 297.344C695.626 281.776 673.413 263.217 648.897 238.937C635.957 226.123 623.427 212.81 611.309 199.935C583.885 170.799 555.528 140.672 520.42 114.156C466.57 73.4871 395.885 41.5941 316.009 21.9239C224.811 -0.53528 132.806 -5.77149 56.945 7.18154C-16.5014 19.7221 -96.2173 59.2668 -97.6845 116.46L-97.9814 116.456C-97.3251 90.8922 -80.6608 66.638 -49.7914 46.3156C-21.8799 27.9406 15.9986 13.9786 56.8678 7.0013C96.9202 0.163378 141.059 -1.67803 188.053 1.53096C230.249 4.41106 273.337 11.2155 316.119 21.7511C355.643 31.484 393.18 44.2958 427.69 59.8317C462.489 75.4976 493.765 93.7333 520.646 114.033C555.769 140.558 584.134 170.693 611.565 199.836C623.682 212.709 636.212 226.021 649.149 238.833C684.919 274.26 735.639 317.928 810.969 341.359C897.358 368.229 989.928 363.506 1052.37 354.812C1130.2 343.977 1207.81 320.107 1296.62 279.693C1326.17 266.248 1354.93 250.965 1382.75 236.187C1425.44 213.507 1469.59 190.053 1518.01 172.412C1568.43 154.039 1612.35 150.048 1648.54 160.552C1665.25 165.403 1681.61 173.402 1698.56 185.01C1713.47 195.228 1726.82 206.769 1739.72 217.929C1747.35 224.531 1754.56 230.765 1761.82 236.495L1984.11 412.022L1983.87 412.139Z" fill="#46B2C8"/>
<path d="M1982.08 398.645C1925.48 349.773 1876.91 310.115 1829.24 273.842C1806.1 256.222 1782.47 238.878 1759 222.292C1751.9 217.275 1744.87 211.939 1737.43 206.288C1718.72 192.086 1699.37 177.402 1677.1 166.504C1665.15 160.641 1653.64 156.444 1641.92 153.671C1605.94 145.077 1563.74 150.76 1516.47 170.562C1492.01 180.794 1469.73 192.439 1451.17 202.481C1431.52 213.111 1412.13 224.834 1393.38 236.171C1366.44 252.466 1338.57 269.316 1308.62 283.787C1290.39 292.619 1271.92 300.51 1253.7 307.244C1217.26 320.715 1178.15 331.816 1137.45 340.237C1112.3 345.382 1087.03 349.271 1062.35 351.795C1041.08 353.961 1019.76 355.212 999 355.511C967.926 355.961 937.65 354.245 909.014 350.408C878.566 346.328 849.752 339.815 823.373 331.049C799.851 323.231 777.633 313.389 755.451 300.956C714.115 277.808 681.146 251.041 657.042 230.308C645.201 220.075 633.639 209.64 622.457 199.549C590.26 170.486 559.848 143.035 521.792 118.584C490.753 98.7729 455.339 81.6762 416.525 67.7662C386.698 57.0764 354.258 48.3339 320.107 41.7803C311.972 40.2213 303.683 38.7683 295.477 37.4657C260.147 31.8672 220.373 28.2215 177.265 26.6291C133.803 24.9865 96.2006 26.408 62.3167 30.979C43.1606 33.5432 24.6015 37.566 7.14726 42.9342C-54.4729 61.8871 -94.0412 93.7039 -98.6981 128.046L-99.0693 128.025C-97.8279 118.87 -94.1838 109.853 -88.2409 101.22C-82.5951 93.0201 -74.8406 85.1119 -65.1943 77.7147C-46.9678 63.7415 -22.0085 51.6414 6.98392 42.7242C24.4649 37.3468 43.0537 33.3184 62.2395 30.7504C96.159 26.1757 133.791 24.7524 177.289 26.3968C220.421 27.9892 260.215 31.6386 295.569 37.2409C303.784 38.5453 312.076 39.9983 320.217 41.5592C354.395 48.1165 386.862 56.8665 416.713 67.5656C455.553 81.4848 490.996 98.5964 522.05 118.421C560.13 142.887 590.549 170.344 622.757 199.415C633.936 209.506 645.498 219.94 657.336 230.171C681.428 250.894 714.383 277.648 755.695 300.781C777.853 313.201 800.047 323.034 823.543 330.842C875.169 347.998 934.196 356.221 998.988 355.279C1019.73 354.979 1041.03 353.729 1062.29 351.564C1086.95 349.041 1112.2 345.155 1137.33 340.014C1178 331.599 1217.09 320.505 1253.51 307.041C1271.71 300.313 1290.18 292.425 1308.39 283.601C1338.33 269.137 1366.18 252.292 1393.12 236.001C1411.87 224.663 1431.26 212.936 1450.92 202.302C1469.49 192.255 1491.78 180.607 1516.26 170.367C1537.31 161.55 1557.68 155.459 1576.83 152.261C1600.35 148.333 1622.29 148.734 1642.05 153.454C1653.8 156.236 1665.35 160.444 1677.33 166.32C1699.63 177.234 1718.99 191.928 1737.71 206.139C1745.16 211.788 1752.19 217.125 1759.28 222.138C1782.76 238.725 1806.39 256.071 1829.53 273.695C1877.2 309.972 1925.77 349.634 1982.38 398.51L1982.08 398.645Z" fill="#46B2C8"/>
<path d="M1980.29 385.148C1927.81 335.449 1878.55 293.86 1829.7 258.007C1805.88 240.495 1781.23 223.66 1756.43 207.972C1749.85 203.809 1743.35 199.484 1736.47 194.905C1715.87 181.194 1694.57 167.017 1670.72 157.208C1658.67 152.233 1647.13 148.77 1635.42 146.618C1590.61 138.375 1545.08 153.991 1514.78 168.542C1493.31 178.821 1473.71 190.444 1453.85 202.442C1436.46 212.944 1420.11 224.242 1402.79 236.2C1377.09 253.953 1350.52 272.31 1320.44 287.723C1302.6 296.919 1283.97 304.87 1265.09 311.354C1229.91 323.436 1191.39 332.818 1147.32 340.038C1122.66 344.078 1097.4 346.956 1072.25 348.59C1051.03 349.952 1029.85 350.438 1009.29 350.031C978.707 349.433 948.811 346.743 920.431 342.036C890.625 337.091 862.185 329.867 835.904 320.563C812.878 312.414 790.645 302.302 767.934 289.651C726.687 266.709 691.354 241.275 665.183 221.679C655.495 214.425 645.962 207.126 636.74 200.065C600.017 171.948 565.331 145.388 523.164 123.012C491.65 106.289 456.269 92.1488 418.011 80.9852C389.063 72.5381 358.38 66.2093 324.214 61.6365C316.329 60.5829 308.307 59.6334 300.375 58.814C265.531 55.2333 228.345 53.8788 183.353 52.4777C150.922 51.4167 108.467 50.7181 67.6805 54.7725C48.364 56.6567 29.6921 59.9288 12.1784 64.4943C-49.4833 80.5727 -91.3118 108.66 -99.7167 139.632L-100.156 139.585C-97.9288 131.372 -93.4145 123.317 -86.747 115.641C-80.3914 108.328 -72.0399 101.315 -61.9273 94.7929C-42.7089 82.4029 -17.1437 71.8357 12.0061 64.236C29.5525 59.6613 48.2601 56.3835 67.6092 54.4957C108.434 50.4356 150.922 51.1362 183.374 52.1972C228.38 53.5982 265.579 54.9528 300.446 58.5352C308.384 59.3565 316.412 60.306 324.306 61.3596C358.505 65.938 389.217 72.2724 418.198 80.7288C456.495 91.9036 491.905 106.055 523.452 122.795C565.649 145.187 600.349 171.755 637.085 199.883C646.303 206.942 655.837 214.241 665.525 221.493C691.69 241.082 727.008 266.507 768.231 289.438C790.915 302.075 813.124 312.176 836.123 320.316C887.8 338.609 946.07 348.511 1009.31 349.749C1029.85 350.154 1051.01 349.669 1072.21 348.307C1097.33 346.676 1122.57 343.801 1147.21 339.763C1191.24 332.55 1229.73 323.176 1264.88 311.105C1283.74 304.628 1302.34 296.688 1320.17 287.502C1350.21 272.101 1376.78 253.752 1402.47 236.009C1419.79 224.045 1436.14 212.745 1453.54 202.238C1473.41 190.232 1493.02 178.606 1514.51 168.315C1534.16 158.882 1553.53 152.096 1572.1 148.142C1594.62 143.348 1615.97 142.744 1635.55 146.345C1647.3 148.506 1658.88 151.981 1670.96 156.97C1694.86 166.797 1716.18 180.988 1736.8 194.71C1743.67 199.287 1750.17 203.611 1756.75 207.771C1781.56 223.465 1806.22 240.305 1830.05 257.824C1878.9 293.685 1928.17 335.282 1980.66 384.992L1980.29 385.148Z" fill="#46B2C8"/>
<path d="M1978.49 371.65C1929.38 320.449 1880.86 278.097 1830.17 242.174C1805.66 224.769 1779.98 208.445 1753.85 193.652C1748.27 190.49 1742.52 187.134 1736.96 183.89C1714 170.485 1690.26 156.625 1664.34 147.913C1652.17 143.795 1640.59 141.064 1628.94 139.564C1584.22 133.806 1541.26 151.045 1513.1 166.52C1494.01 176.966 1476.56 188.806 1459.69 200.258L1456.53 202.402C1441.2 212.791 1426.83 224.185 1411.62 236.25C1387.38 255.461 1362.33 275.325 1332.27 291.658C1314.78 301.231 1296.01 309.241 1276.47 315.466C1242.41 326.319 1204.5 334.064 1157.18 339.839C1132.71 342.825 1107.47 344.691 1082.15 345.382C1060.98 345.937 1039.93 345.659 1019.57 344.549C957.947 341.207 900.366 329.608 848.428 310.077C825.975 301.634 803.727 291.256 780.416 278.346C740.967 256.545 705.88 234.136 673.327 213.051C668.961 210.225 664.642 207.417 660.357 204.632C615.894 175.74 573.899 148.45 524.545 127.445C492.324 113.732 456.979 102.55 419.495 94.2071C391.976 88.0827 362.152 83.9242 328.325 81.4937C320.701 80.9493 312.946 80.5015 305.275 80.1633C285.976 79.3272 265.508 79.1915 243.836 79.0484C226.429 78.9332 208.431 78.8143 189.439 78.3294C152.757 77.313 111.184 76.1628 73.0383 78.5709C53.3566 79.814 34.5717 82.3336 17.2036 86.061C-44.4343 99.2909 -88.5259 123.653 -100.741 151.229L-101.243 151.142C-98.0238 143.871 -92.6423 136.779 -85.2501 130.062C-78.1817 123.638 -69.2362 117.517 -58.6633 111.87C-38.441 101.071 -12.2641 92.0405 17.0313 85.7526C34.4381 82.0159 53.2615 79.4907 72.9819 78.2457C111.166 75.8357 152.76 76.9878 189.457 78.0042C208.437 78.4873 226.435 78.6081 243.836 78.7233C265.516 78.8664 285.991 79.002 305.308 79.84C312.985 80.1801 320.748 80.6279 328.378 81.1723C362.247 83.6046 392.107 87.7687 419.665 93.9024C457.193 102.255 492.577 113.45 524.833 127.178C574.232 148.201 616.247 175.504 660.728 204.409C665.014 207.194 669.335 210 673.698 212.828C706.245 233.909 741.32 256.312 780.758 278.106C804.045 291.002 826.269 301.37 848.695 309.802C900.565 329.309 958.071 340.891 1019.62 344.23C1039.95 345.337 1060.98 345.616 1082.12 345.06C1107.42 344.369 1132.64 342.505 1157.08 339.523C1204.35 333.754 1242.22 326.018 1276.23 315.18C1295.73 308.968 1314.47 300.973 1331.93 291.416C1361.95 275.104 1386.99 255.251 1411.2 236.051C1426.43 223.981 1440.81 212.581 1456.14 202.185L1459.3 200.041C1476.18 188.583 1493.64 176.736 1512.75 166.278C1541 150.754 1584.11 133.464 1629.04 139.248C1640.74 140.755 1652.37 143.496 1664.58 147.63C1690.56 156.362 1714.33 170.236 1737.31 183.656C1742.87 186.9 1748.62 190.256 1754.2 193.416C1780.34 208.216 1806.03 224.549 1830.55 241.964C1881.27 277.902 1929.8 320.269 1978.93 371.487L1978.49 371.65Z" fill="#46B2C8"/>
<path d="M1976.7 358.15C1931.61 306.177 1882.46 261.829 1830.63 226.342C1805.44 209.046 1778.74 193.232 1751.29 179.337C1747.32 177.33 1743.26 175.247 1739.33 173.233C1713.38 159.927 1686.55 146.165 1657.97 138.621C1645.7 135.349 1634.09 133.352 1622.46 132.512C1577.87 129.294 1537.46 148.13 1511.42 164.498C1495.25 174.61 1480.65 185.855 1466.54 196.731C1464.09 198.613 1461.65 200.492 1459.21 202.363C1445.78 212.642 1433.23 224.125 1419.94 236.281C1397.34 256.947 1373.98 278.316 1344.1 295.596C1326.55 305.744 1308.16 313.589 1287.86 319.583C1245.39 332.12 1202.95 336.76 1167.04 339.647C1142.76 341.598 1117.52 342.453 1092.04 342.182C1070.94 341.931 1050.02 340.885 1029.86 339.075C970.082 333.721 913.255 320.44 860.958 299.597C839.197 290.927 816.938 280.28 792.902 267.048C768.623 253.714 745.998 240.884 724.115 228.475C709.245 220.041 695.197 212.075 681.479 204.433C629.624 175.543 582.126 150.142 525.938 131.884C493.025 121.19 457.716 112.963 420.989 107.431C394.667 103.466 366.53 101.535 332.444 101.351C325.09 101.318 317.6 101.371 310.184 101.513C298.919 101.741 287.265 102.219 274.931 102.726C251.261 103.698 224.427 104.8 195.524 104.183C184.518 103.947 173.288 103.614 162.427 103.291C134.492 102.46 105.607 101.602 78.393 102.369C58.4084 102.934 39.5077 104.703 22.2227 107.628C-39.3113 118.043 -85.663 138.681 -101.772 162.835L-102.321 162.692C-98.104 156.367 -91.8552 150.238 -83.7503 144.476C-75.9661 138.943 -66.4267 133.716 -55.4023 128.942C-34.1584 119.745 -7.37261 112.251 22.0624 107.269C39.3889 104.337 58.3312 102.563 78.3604 101.998C105.604 101.228 134.501 102.089 162.451 102.919C173.309 103.243 184.538 103.575 195.542 103.811C224.419 104.428 251.231 103.328 274.89 102.356C287.23 101.849 298.887 101.371 310.163 101.143C317.588 101.002 325.084 100.948 332.447 100.981C366.58 101.163 394.759 103.1 421.126 107.07C457.897 112.609 493.254 120.847 526.208 131.555C551.589 139.801 577.309 150.25 604.837 163.494C629.482 175.351 653.455 188.325 681.871 204.156C695.589 211.8 709.637 219.766 724.51 228.2C746.39 240.607 769.015 253.437 793.288 266.769C817.3 279.988 839.536 290.624 861.27 299.285C913.496 320.1 970.242 333.363 1029.93 338.709C1050.07 340.517 1070.97 341.561 1092.05 341.812C1117.5 342.083 1142.7 341.23 1166.96 339.279C1202.83 336.397 1245.21 331.763 1287.6 319.248C1307.84 313.271 1326.19 305.446 1343.69 295.325C1373.52 278.074 1396.86 256.722 1419.44 236.073C1432.74 223.91 1445.3 212.421 1458.74 202.131C1461.19 200.259 1463.62 198.381 1466.07 196.5C1480.19 185.617 1494.8 174.364 1510.99 164.239C1527.93 153.591 1545.32 145.398 1562.65 139.891C1583.19 133.367 1603.33 130.762 1622.52 132.148C1634.2 132.991 1645.87 134.998 1658.19 138.283C1686.85 145.848 1713.71 159.626 1739.69 172.949C1743.62 174.963 1747.68 177.046 1751.65 179.051C1779.12 192.957 1805.84 208.786 1831.06 226.095C1858.58 244.938 1885.53 266.407 1911.16 289.905C1933.81 310.673 1956.03 333.577 1977.21 357.976L1976.7 358.15Z" fill="#46B2C8"/>
<path d="M1974.91 344.647C1933.17 291.183 1884.79 246.053 1831.1 210.509C1805.22 193.323 1777.5 178.02 1748.72 165.02C1747.35 164.401 1745.99 163.783 1744.61 163.162C1714.69 149.627 1683.75 135.632 1651.62 129.331C1639.17 126.889 1627.52 125.624 1616 125.46C1571.58 124.832 1533.7 145.242 1509.75 162.473C1495.66 172.553 1483.14 183.601 1471.04 194.286C1468.05 196.928 1464.96 199.659 1461.91 202.32C1450.27 212.454 1439.46 223.977 1428.01 236.177C1407.19 258.369 1385.66 281.315 1355.94 299.532C1338.74 310.071 1320.2 317.976 1299.25 323.699C1257.97 334.972 1216.05 337.932 1176.91 339.452C1152.77 340.389 1127.55 340.229 1101.94 338.978C1080.91 337.919 1060.12 336.107 1040.14 333.595C982.402 326.349 926.33 311.383 873.492 289.113C852.331 280.196 830.692 269.594 805.397 255.747C757.323 229.503 721.624 211.018 689.65 195.813C626.055 165.572 577.517 147.78 527.358 136.323C493.777 128.653 458.503 123.381 422.511 120.653C397.539 118.762 371.039 118.931 336.588 121.207C329.528 121.679 322.305 122.235 315.118 122.861C308.329 123.461 301.432 124.149 294.129 124.875C267.165 127.56 236.602 130.604 201.622 130.035C183.185 129.736 164.352 128.917 146.141 128.125C125.443 127.226 104.042 126.295 83.7514 126.168C63.4074 126.042 44.3909 127.06 27.2455 129.197C-34.0835 136.836 -82.7013 153.754 -102.805 174.452L-103.375 174.235C-98.1539 168.857 -91.0379 163.693 -82.2261 158.886C-73.7202 154.245 -63.5928 149.913 -52.1229 146.01C-29.8425 138.425 -2.44189 132.467 27.1149 128.787C44.3078 126.646 63.3658 125.624 83.7574 125.75C104.066 125.877 125.479 126.808 146.185 127.709C164.391 128.5 183.214 129.32 201.637 129.619C236.554 130.186 267.085 127.146 294.02 124.464C301.326 123.736 308.228 123.05 315.02 122.448C322.216 121.822 329.445 121.267 336.51 120.793C371.015 118.515 397.56 118.344 422.585 120.241C458.628 122.972 493.952 128.251 527.581 135.933C577.808 147.405 626.396 165.215 690.048 195.482C722.034 210.693 757.745 229.183 805.831 255.435C831.108 269.271 852.723 279.862 873.86 288.77C926.627 311.008 982.616 325.953 1040.27 333.188C1060.22 335.697 1080.98 337.505 1101.99 338.564C1127.57 339.813 1152.76 339.972 1176.86 339.038C1215.95 337.52 1257.79 334.567 1298.98 323.32C1319.85 317.619 1338.33 309.741 1355.47 299.238C1385.12 281.06 1406.63 258.138 1427.43 235.971C1438.89 223.763 1449.71 212.231 1461.36 202.082C1464.41 199.423 1467.5 196.692 1470.5 194.05C1482.6 183.356 1495.12 172.3 1509.24 162.203C1524.87 150.958 1541.26 142.063 1557.95 135.764C1577.5 128.385 1597.04 124.782 1616.01 125.048C1627.59 125.211 1639.3 126.484 1651.81 128.937C1684.05 135.26 1715.04 149.274 1745 162.829C1746.38 163.45 1747.75 164.071 1749.11 164.687C1777.92 177.702 1805.67 193.024 1831.59 210.228C1885.32 245.804 1933.74 290.97 1975.51 344.471L1974.91 344.647Z" fill="#46B2C8"/>
<path d="M1191.69 339.259C1190.02 339.259 1188.38 339.258 1186.76 339.252C1162.75 339.189 1137.54 338.018 1111.82 335.77C1090.87 333.902 1070.21 331.325 1050.42 328.112C1022.15 323.53 993.773 316.945 966.078 308.541C939.334 300.424 912.4 290.361 886.021 278.627C860.174 267.13 836.031 254.32 817.885 244.445C775.427 221.4 735.03 202.139 697.817 187.194C637.545 162.99 583.834 148.234 528.78 140.759C495.567 136.249 459.934 133.871 425.625 133.871C425.094 133.871 424.565 133.871 424.034 133.873C394.56 133.936 366.577 137.362 340.733 141.056C334.006 142.024 327.048 143.082 320.05 144.202C316.216 144.823 312.376 145.462 308.313 146.138C279.656 150.916 247.174 156.328 207.713 155.884C183.68 155.613 159.134 154.056 135.395 152.549C120.067 151.575 104.22 150.57 89.1027 149.962C68.3221 149.128 49.1987 149.396 32.2582 150.761C-28.7441 155.674 -79.628 168.874 -103.86 186.073L-104.418 185.767C-91.9888 176.946 -73.2931 169.309 -48.8506 163.066C-25.5069 157.105 2.50844 152.69 32.1632 150.302C49.1482 148.935 68.3221 148.663 89.1502 149.501C104.282 150.109 120.138 151.116 135.472 152.09C159.196 153.597 183.728 155.154 207.728 155.423C247.088 155.867 279.514 150.462 308.123 145.694C312.189 145.016 316.029 144.377 319.866 143.756C326.869 142.636 333.834 141.577 340.567 140.608C366.456 136.909 394.486 133.477 424.031 133.412C458.886 133.336 495.157 135.722 528.937 140.309C557.351 144.169 584.897 149.849 613.144 157.675C640.348 165.214 668.177 174.742 698.214 186.807C735.457 201.763 775.884 221.04 818.369 244.099C836.5 253.969 860.625 266.77 886.446 278.253C939.973 302.063 995.204 318.688 1050.61 327.668C1070.37 330.877 1091 333.451 1111.93 335.316C1137.6 337.561 1162.78 338.732 1186.76 338.793C1224.28 338.89 1267.85 338.098 1310.35 327.386C1331.85 321.964 1350.46 314.035 1367.23 303.148C1396.69 284.028 1416.21 259.488 1435.1 235.754C1444.81 223.546 1453.98 212.015 1463.96 202.033C1467.16 198.835 1470.38 195.54 1473.5 192.354C1484.04 181.588 1494.93 170.457 1507.48 160.169C1521.83 148.333 1537.22 138.732 1553.23 131.634C1571.8 123.404 1590.72 118.8 1609.48 117.949C1621.06 117.423 1632.81 117.96 1645.41 119.591C1679.09 123.95 1712.48 136.615 1746.56 150.323C1776.28 162.274 1805.86 177.502 1832.1 194.36C1861.24 213.033 1888.62 234.938 1913.49 259.468C1935.64 281.321 1955.92 305.376 1973.79 330.967L1973.11 331.152C1934.74 276.196 1887.12 230.282 1831.56 194.686C1805.36 177.851 1775.83 162.646 1746.16 150.715C1712.14 137.032 1678.82 124.391 1645.26 120.046C1632.73 118.424 1621.04 117.891 1609.53 118.413C1575.06 119.979 1539.03 134.908 1508.07 160.451C1495.55 170.721 1484.66 181.842 1474.13 192.597C1471.01 195.786 1467.79 199.082 1464.59 202.28C1454.63 212.243 1445.46 223.765 1435.76 235.962C1426.49 247.607 1416.91 259.65 1405.92 271.226C1393.45 284.35 1380.98 294.897 1367.77 303.472C1350.92 314.407 1332.24 322.371 1310.63 327.819C1291.57 332.624 1271.08 335.8 1248 337.531C1228.46 338.99 1208.83 339.259 1191.69 339.259Z" fill="#46B2C8"/>
<path d="M1239.31 340.19C1224.17 340.19 1209.62 339.625 1196.61 339.053C1172.68 338.001 1147.48 335.818 1121.7 332.563C1100.84 329.889 1080.31 326.548 1060.69 322.629C1006.97 311.921 953.926 294.096 898.54 268.139C874.385 256.821 851.615 244.643 830.368 233.141C788.421 210.5 746.574 192.142 705.984 178.574C646.289 158.619 590.436 148.011 530.212 145.19C495.897 143.583 459.712 144.239 425.563 147.086C396.981 149.468 370.035 155.217 344.879 160.899C338.586 162.328 331.892 163.889 324.987 165.537C323.261 165.951 321.521 166.373 319.757 166.799C290.785 173.808 258.003 181.738 215.931 181.738C215.221 181.738 214.514 181.736 213.798 181.731C185.335 181.55 156.274 179.008 128.166 176.548C117.023 175.573 105.5 174.566 94.4429 173.75C72.8456 172.159 54.1409 171.689 37.2569 172.317C-24.1524 174.603 -75.9866 183.849 -104.949 197.69L-105.445 197.283C-91.1273 190.442 -70.4239 184.501 -45.5804 180.105C-21.1438 175.781 7.48332 172.912 37.2064 171.806C54.138 171.176 72.8901 171.647 94.535 173.241C105.604 174.057 117.13 175.066 128.276 176.039C156.357 178.496 185.391 181.036 213.801 181.216C256.75 181.491 290.066 173.429 319.457 166.317C321.218 165.892 322.961 165.47 324.687 165.054C331.598 163.404 338.295 161.843 344.594 160.414C369.791 154.721 396.788 148.964 425.448 146.575C459.649 143.724 495.894 143.067 530.265 144.676C560.11 146.073 588.565 149.373 617.255 154.762C646.802 160.312 675.949 167.951 706.361 178.118C747.002 191.705 788.902 210.086 830.894 232.749C852.132 244.247 874.887 256.418 899.021 267.725C954.333 293.646 1007.29 311.445 1060.93 322.137C1080.52 326.048 1101.02 329.385 1121.86 332.055C1147.59 335.307 1172.76 337.488 1196.66 338.536C1236.86 340.302 1279.64 341.208 1321.71 331.44C1343.85 326.299 1362.59 318.32 1378.99 307.047C1408.21 286.966 1426.39 259.575 1442.44 235.408C1450.51 223.249 1458.14 211.764 1466.55 201.973C1469.59 198.441 1472.65 194.79 1475.6 191.259C1484.84 180.213 1494.4 168.791 1505.71 158.123C1518.8 145.696 1533.2 135.389 1548.51 127.488C1566.09 118.415 1584.4 112.811 1602.94 110.836C1614.52 109.6 1626.32 109.403 1639 110.228C1674.41 112.538 1710.39 123.95 1744 135.941C1775.03 147.011 1805.67 161.72 1832.6 178.477C1862.56 197.062 1890.16 219.187 1914.64 244.233C1936.53 266.631 1955.85 291.262 1972.07 317.447L1971.31 317.631C1936.83 261.972 1888.67 213.979 1832.03 178.838C1805.15 162.113 1774.57 147.431 1743.6 136.383C1710.07 124.42 1674.18 113.036 1638.92 110.735C1626.32 109.914 1614.59 110.111 1603.08 111.337C1568.86 114.985 1534.52 131.699 1506.4 158.402C1495.11 169.047 1485.56 180.458 1476.33 191.493C1473.37 195.026 1470.32 198.677 1467.28 202.213C1458.88 211.981 1451.26 223.455 1443.2 235.602C1427.12 259.806 1408.91 287.241 1379.6 307.389C1363.11 318.723 1344.26 326.747 1322 331.918C1302.68 336.403 1281.83 339.001 1258.27 339.854C1251.9 340.095 1245.56 340.19 1239.31 340.19Z" fill="#46B2C8"/>
<path d="M1269.2 342.202C1268.99 342.202 1268.77 342.202 1268.56 342.202C1247.16 342.169 1226.14 340.53 1206.45 338.854C1182.56 336.821 1157.37 333.623 1131.58 329.354C1110.81 325.877 1090.41 321.769 1070.96 317.146C1019.39 304.906 968.579 286.003 911.067 257.654C890.354 247.447 869.972 236.456 850.257 225.83C847.792 224.499 845.324 223.171 842.856 221.842C800.692 199.206 757.393 181.749 714.166 169.957C654.973 153.812 595.274 147.16 531.658 149.622C496.776 150.973 460.623 154.665 427.108 160.299C400.663 164.745 377.1 171.879 349.04 180.742C343.353 182.546 337.279 184.494 329.931 186.872L329.522 187.006C315.346 191.625 299.279 196.859 281.257 200.84C260.56 205.411 240.48 207.611 219.89 207.585C187.782 207.534 155.014 203.796 123.328 200.178C115.565 199.292 107.534 198.376 99.7827 197.547C77.5527 195.174 58.7352 193.976 42.2551 193.885C-18.4265 193.55 -72.4852 199.177 -106.057 209.318L-106.443 208.817C-89.9989 203.848 -67.8165 199.816 -42.2958 197.155C-16.7277 194.488 12.5142 193.166 42.264 193.329C58.7917 193.42 77.6567 194.62 99.9341 196.999C107.692 197.828 115.722 198.744 123.489 199.63C155.136 203.242 187.862 206.977 219.893 207.027C220.035 207.027 220.181 207.027 220.323 207.027C266.14 207.027 301.046 195.655 329.112 186.512L329.525 186.378C336.875 183.997 342.949 182.05 348.639 180.246C376.746 171.368 400.351 164.221 426.879 159.762C460.451 154.117 496.663 150.419 531.604 149.066C562.735 147.862 592.099 148.78 621.38 151.876C652.932 155.211 683.401 160.959 714.523 169.448C757.833 181.262 801.206 198.747 843.438 221.42C845.906 222.749 848.374 224.079 850.839 225.41C870.545 236.033 890.922 247.02 911.616 257.219C969.055 285.533 1019.79 304.41 1071.28 316.629C1090.7 321.246 1111.07 325.347 1131.81 328.82C1157.56 333.085 1182.72 336.277 1206.57 338.306C1249.3 341.944 1291.13 344.468 1333.1 335.519C1355.87 330.662 1374.74 322.633 1390.76 310.971C1419.72 289.905 1435.54 260.716 1449.5 234.96C1456.03 222.903 1462.2 211.513 1469.16 201.941C1471.84 198.259 1474.53 194.449 1477.13 190.765C1485.26 179.244 1493.66 167.334 1503.96 156.103C1515.82 143.08 1529.22 132.065 1543.79 123.365C1560.4 113.45 1578.1 106.85 1596.4 103.75C1607.75 101.829 1619.33 100.893 1631.78 100.893C1632.05 100.893 1632.32 100.893 1632.59 100.894C1671.28 101.021 1711.09 112.017 1741.45 121.583C1773.8 131.775 1805.5 145.963 1833.12 162.616C1863.89 181.116 1891.71 203.458 1915.81 229.024C1937.42 251.966 1955.78 277.175 1970.36 303.955L1969.52 304.135C1947.82 264.289 1906.44 207.464 1832.5 163.019C1804.94 146.404 1773.32 132.249 1741.05 122.081C1710.78 112.541 1671.09 101.576 1632.59 101.452C1619.91 101.405 1608.16 102.338 1596.64 104.289C1562.73 110.033 1530.09 128.532 1504.73 156.38C1494.45 167.585 1486.06 179.482 1477.94 190.99C1475.34 194.676 1472.65 198.487 1469.97 202.172C1463.03 211.719 1456.87 223.094 1450.34 235.139C1436.36 260.941 1420.51 290.186 1391.44 311.333C1375.31 323.073 1356.31 331.156 1333.38 336.045C1313.95 340.186 1292.95 342.202 1269.2 342.202Z" fill="#46B2C8"/>
<path d="M1292.97 344.819C1288.36 344.819 1283.65 344.726 1278.83 344.541C1257.72 343.729 1237.2 341.292 1216.29 338.654C1192.06 335.595 1167.58 331.504 1141.46 326.145C1120.8 321.868 1100.53 316.996 1081.23 311.661C1032.27 298.149 983.648 278.257 923.594 247.167C908.679 239.446 893.769 231.349 879.35 223.517C871.501 219.254 863.387 214.845 855.347 210.54C812.681 187.751 767.936 171.199 722.354 161.34C662.127 148.313 600.227 145.927 533.113 154.047C497.655 158.337 461.535 165.065 428.66 173.503C402.252 180.282 379.247 189.801 354.89 199.879L353.206 200.576C349.402 202.156 345.556 203.757 341.662 205.378C339.42 206.312 337.163 207.253 334.885 208.2C320.683 214.141 305.343 220.337 287.752 225.107C267.328 230.645 247.126 233.369 225.986 233.435C190.793 233.543 154.895 228.426 120.183 223.472C115.229 222.764 110.103 222.034 105.128 221.341C81.8053 218.089 63.4184 216.218 47.2561 215.449C-12.3861 212.611 -68.6722 214.611 -107.174 220.936L-107.421 220.352C-68.8177 214.011 -12.4158 212.004 47.3303 214.847C63.5372 215.618 81.9716 217.495 105.339 220.752C110.317 221.447 115.443 222.177 120.4 222.885C154.687 227.777 190.131 232.833 224.858 232.833C225.232 232.833 225.606 232.833 225.984 232.832C270.901 232.69 302.875 220.861 334.353 207.698C336.631 206.751 338.888 205.811 341.131 204.876C345.024 203.254 348.867 201.654 352.675 200.073L354.359 199.376C378.757 189.281 401.8 179.745 428.295 172.944C461.229 164.489 497.411 157.75 532.932 153.452C600.216 145.312 662.281 147.705 722.672 160.768C768.367 170.653 813.216 187.242 855.977 210.081C864.017 214.388 872.133 218.795 879.983 223.06C894.396 230.89 909.302 238.986 924.208 246.701C984.192 277.756 1032.74 297.619 1081.62 311.109C1100.9 316.434 1121.13 321.301 1141.76 325.571C1167.84 330.922 1192.29 335.008 1216.49 338.061C1253.23 342.697 1298.95 348.469 1344.48 339.579C1367.89 335.01 1386.88 326.931 1402.53 314.879C1431.21 292.805 1444.51 261.757 1456.24 234.366C1461.34 222.467 1466.15 211.227 1471.77 201.899C1473.96 198.265 1476.15 194.506 1478.28 190.869C1485.39 178.674 1492.75 166.065 1502.2 154.073C1512.86 140.443 1525.27 128.72 1539.07 119.229C1554.72 108.474 1571.81 100.88 1589.86 96.6566C1601.45 93.9455 1613.33 92.2751 1626.18 91.5486C1643.38 90.5749 1661.69 91.6154 1682.15 94.7222C1699.46 97.3533 1718.03 101.438 1738.9 107.211C1772.56 116.522 1805.32 130.192 1833.63 146.742C1865.23 165.155 1893.26 187.718 1916.97 213.802C1938.31 237.291 1955.7 263.078 1968.65 290.45L1967.72 290.621C1940.38 232.833 1892.53 181.893 1832.97 147.185C1804.74 130.679 1772.07 117.048 1738.51 107.764C1693.54 95.3261 1657.87 90.3631 1626.26 92.1506C1613.5 92.8715 1601.71 94.5309 1590.2 97.2214C1547.24 107.268 1519.1 133.828 1503.07 154.339C1493.64 166.301 1486.29 178.896 1479.18 191.076C1477.06 194.714 1474.86 198.475 1472.67 202.111C1467.07 211.411 1462.26 222.638 1457.17 234.522C1445.42 261.973 1432.09 293.085 1403.28 315.26C1387.5 327.407 1368.36 335.551 1344.77 340.157C1328.77 343.279 1311.72 344.819 1292.97 344.819Z" fill="#46B2C8"/>
<path d="M1313.57 347.817C1282.16 347.817 1251.97 342.769 1226.13 338.45C1201.83 334.389 1177.36 329.312 1151.34 322.933C1130.79 317.86 1110.65 312.223 1091.5 306.175C1034.07 288.065 982.881 262.072 936.116 236.679C926.568 231.495 916.922 226.151 907.596 220.983C894.647 213.807 881.256 206.387 867.837 199.237C824.533 176.224 778.342 160.573 730.549 152.719C668.724 142.561 604.618 144.439 534.57 158.464C498.503 165.685 462.418 175.45 430.215 186.702C405.378 195.38 384.362 206.335 362.115 217.934C360.538 218.755 358.958 219.58 357.369 220.405L356.507 220.855C351.099 223.677 345.507 226.595 339.837 229.523C326.253 236.571 311.293 243.86 293.99 249.429C273.905 255.894 253.656 259.118 232.079 259.285C194.207 259.58 155.607 252.919 118.28 246.477C115.664 246.025 113.059 245.575 110.467 245.131C85.8518 240.906 67.8956 238.401 52.25 237.008C-5.89532 231.831 -64.4148 230.203 -108.304 232.543L-108.394 231.894C-64.4326 229.549 -5.82702 231.179 52.3955 236.363C68.0856 237.76 86.0805 240.271 110.74 244.503C113.333 244.947 115.937 245.397 118.557 245.85C155.811 252.28 194.337 258.924 232.064 258.634C278.921 258.27 311.92 243.158 339.172 229.021C344.842 226.093 350.434 223.176 355.842 220.355L356.703 219.905C358.292 219.079 359.872 218.255 361.449 217.434C383.736 205.815 404.787 194.841 429.707 186.134C461.97 174.861 498.123 165.079 534.252 157.846C567.462 151.197 598.655 147.358 629.61 146.11C664.142 144.718 698.189 146.73 730.811 152.091C778.754 159.97 825.082 175.665 868.509 198.741C881.936 205.895 895.33 213.316 908.282 220.494C917.608 225.662 927.248 231.004 936.793 236.186C983.51 261.552 1034.64 287.517 1091.96 305.593C1111.09 311.632 1131.19 317.262 1151.71 322.327C1177.7 328.697 1202.13 333.766 1226.4 337.822C1263.66 344.051 1310.03 351.803 1355.85 343.646C1379.9 339.365 1399.01 331.235 1414.29 318.793C1442.67 295.68 1453.29 262.722 1462.66 233.643C1466.43 221.959 1469.98 210.923 1474.37 201.861C1475.99 198.509 1477.61 195.045 1479.19 191.695C1485.35 178.592 1491.72 165.04 1500.43 152.046C1509.91 137.8 1521.31 125.366 1534.33 115.092C1549.02 103.499 1565.5 94.9108 1583.31 89.565C1594.87 86.094 1606.79 83.6877 1619.74 82.2068C1637.19 80.213 1656.56 80.2799 1677.3 82.4056C1695.46 84.2674 1715.32 87.7774 1736.33 92.8408C1771.3 101.271 1805.12 114.421 1834.13 130.869C1866.55 149.196 1894.8 171.977 1918.12 198.582C1939.18 222.616 1955.6 248.983 1966.93 276.948L1965.92 277.108C1941.93 217.852 1894.88 166.088 1833.44 131.352C1804.52 114.958 1770.81 101.851 1735.95 93.4485C1690.77 82.558 1652.82 79.0888 1619.93 82.8478C1607.07 84.3176 1595.24 86.7072 1583.76 90.1521C1541.39 102.871 1515.58 130.966 1501.39 152.297C1492.7 165.258 1486.34 178.791 1480.19 191.877C1478.61 195.228 1476.98 198.693 1475.36 202.049C1470.99 211.081 1467.44 222.102 1463.68 233.771C1459.17 247.761 1454.06 263.616 1446.65 278.481C1438.15 295.513 1427.84 308.828 1415.12 319.189C1407.76 325.18 1399.31 330.278 1389.99 334.344C1379.97 338.716 1368.58 342.057 1356.14 344.272C1341.9 346.808 1327.61 347.817 1313.57 347.817Z" fill="#46B2C8"/>
<path d="M1332.13 351.108C1321.75 351.108 1310.87 350.476 1299.38 349.215C1276.75 346.73 1255.08 342.222 1235.97 338.248C1211.88 333.237 1186.72 327.003 1161.21 319.72C1140.79 313.86 1120.79 307.457 1101.76 300.686C1047.15 281.274 1000.11 255.463 948.637 226.19C944.063 223.588 939.418 220.935 934.927 218.367C917.241 208.261 898.956 197.81 880.325 187.936C836.302 164.654 788.667 149.906 738.743 144.101C675.768 136.778 607.561 143.096 536.024 162.881C499.316 173.034 463.264 185.833 431.768 199.897C408.053 210.487 388.532 222.971 367.864 236.19C365.764 237.534 363.655 238.881 361.535 240.233C356.257 243.604 350.573 247.222 344.79 250.843C332.664 258.464 317.886 267.147 300.23 273.748C280.465 281.14 260.165 284.866 238.176 285.135C197.921 285.631 156.945 277.292 117.317 269.228L115.809 268.921C96.4062 264.974 75.881 260.987 57.2477 258.566C0.450737 251.187 -58.7429 246.064 -109.425 244.141L-109.357 243.446C-58.6212 245.371 0.625961 250.498 57.4734 257.884C76.1602 260.312 96.721 264.305 116.153 268.258L117.662 268.564C157.204 276.61 198.097 284.929 238.155 284.436C284.418 283.868 316.368 267.717 344.003 250.347C349.786 246.728 355.464 243.11 360.742 239.741C362.862 238.39 364.971 237.041 367.071 235.7C387.774 222.458 407.331 209.951 431.123 199.327C462.679 185.235 498.799 172.412 535.576 162.24C569.139 152.959 602.167 146.563 633.738 143.233C669.811 139.43 705.209 139.489 738.951 143.412C789.065 149.239 836.875 164.039 881.047 187.401C899.692 197.285 917.987 207.738 935.682 217.85C940.172 220.416 944.817 223.07 949.391 225.671C1000.81 254.916 1047.81 280.7 1102.32 300.078C1121.31 306.838 1141.29 313.232 1161.68 319.085C1187.15 326.356 1212.27 332.581 1236.32 337.585C1274.03 345.43 1320.96 355.19 1367.24 347.711C1391.93 343.722 1411.16 335.544 1426.06 322.708C1454.13 298.525 1462.25 262.074 1468.78 232.784C1471.32 221.375 1473.72 210.6 1476.98 201.83C1478 199.065 1479.04 196.216 1480.04 193.461C1485.24 179.145 1490.62 164.342 1498.68 150.027C1511.13 127.75 1534.79 97.9489 1576.77 82.4836C1588.36 78.2137 1600.32 75.0697 1613.33 72.8734C1647.36 67.0444 1687.89 68.9304 1733.77 78.4757C1770.06 86.0252 1804.94 98.655 1834.65 115.001C1867.89 133.24 1896.36 156.24 1919.29 183.367C1929.8 195.809 1939.1 209.099 1946.91 222.865C1954.38 236.015 1960.54 249.671 1965.22 263.453L1964.13 263.598C1943.5 202.87 1897.26 150.283 1833.92 115.523C1804.32 99.2384 1769.56 86.657 1733.42 79.1353C1687.75 69.6328 1647.44 67.7524 1613.62 73.5442C1600.71 75.7238 1588.84 78.8436 1577.33 83.082C1535.64 98.4394 1512.12 128.088 1499.73 150.255C1491.69 164.533 1486.32 179.316 1481.12 193.613C1480.12 196.368 1479.09 199.219 1478.06 201.986C1474.82 210.726 1472.42 221.487 1469.88 232.879C1466.6 247.618 1462.88 264.322 1456.52 280.088C1449.21 298.205 1439.54 312.281 1426.96 323.117C1419.79 329.299 1411.39 334.513 1402.02 338.612C1391.92 343.029 1380.31 346.318 1367.52 348.384C1356.29 350.201 1344.56 351.108 1332.13 351.108Z" fill="#46B2C8"/>
<path d="M1349.23 354.584C1336.79 354.584 1323.67 353.575 1309.65 351.551C1286.93 348.275 1265.08 342.838 1245.8 338.041C1221.53 332.002 1196.39 324.757 1171.08 316.505C1150.79 309.862 1130.92 302.693 1112.02 295.196C1060.01 274.58 1015.41 248.009 968.177 219.88C965.84 218.489 963.503 217.095 961.159 215.701C939.197 202.635 916.489 189.123 892.815 176.636C848.026 153.058 798.948 139.211 746.944 135.48C681.624 130.792 611.15 141.497 537.478 167.293C500.627 180.196 463.637 196.46 433.32 213.089C410.427 225.644 392.067 239.772 372.629 254.73C370.327 256.5 368.02 258.277 365.694 260.057C361.049 263.619 355.522 267.842 349.737 272.163C339.021 280.184 324.421 290.378 306.465 298.046C287.015 306.354 266.671 310.589 244.269 310.988C225.855 311.276 205.535 309.498 182.144 305.549C162.061 302.16 142.635 297.73 121.138 292.713C101.516 288.077 80.8068 283.289 62.2269 280.126C7.19115 270.758 -50.9422 262.554 -110.555 255.739L-110.341 255.008C-50.6928 261.826 7.47329 270.037 62.5388 279.409C81.1691 282.581 101.908 287.377 121.554 292.017C157.585 300.428 202.428 310.901 244.236 310.245C292.034 309.39 322.752 291.206 348.825 271.683C354.608 267.367 360.132 263.145 364.774 259.585C367.099 257.805 369.407 256.028 371.706 254.259C391.176 239.277 409.569 225.126 432.536 212.53C462.915 195.868 499.977 179.572 536.899 166.645C610.794 140.77 681.511 130.038 747.081 134.743C772.221 136.547 796.916 140.737 820.474 147.196C845.751 154.125 870.348 163.841 893.582 176.069C917.282 188.569 940.005 202.089 961.979 215.164C964.323 216.56 966.663 217.952 969 219.343C1016.18 247.448 1060.75 273.993 1112.66 294.57C1131.54 302.056 1151.37 309.216 1171.63 315.847C1196.9 324.086 1222.01 331.322 1246.24 337.351C1284.34 346.828 1331.74 358.621 1378.62 351.782C1404.01 348.076 1423.38 339.849 1437.82 326.63C1465.64 301.382 1470.59 262.812 1474.58 231.822C1476 220.739 1477.35 210.27 1479.58 201.804C1480.04 200.058 1480.5 198.302 1480.96 196.537C1485.12 180.592 1489.43 164.103 1496.92 148.011C1507.6 124.867 1528.99 93.4828 1570.21 75.4069C1581.71 70.3639 1593.71 66.4841 1606.9 63.5446C1625.23 59.4214 1645.65 57.4833 1667.6 57.7806C1687.64 58.0519 1709.04 60.1832 1731.2 64.1132C1768.79 70.7783 1804.74 82.8877 1835.15 99.1315C1869.21 117.282 1897.91 140.505 1920.44 168.152C1930.78 180.837 1939.74 194.4 1947.05 208.462C1954.06 221.93 1959.6 235.892 1963.5 249.96L1962.33 250.086C1945.33 188.784 1898.69 133.97 1834.38 99.6964C1804.1 83.5232 1768.31 71.4639 1730.87 64.8248C1684.72 56.6379 1641.99 56.4372 1607.29 64.2414C1594.21 67.1586 1582.3 71.0087 1570.89 76.0126C1529.95 93.964 1508.69 125.186 1498.05 148.216C1490.59 164.265 1486.29 180.729 1482.13 196.654C1481.67 198.419 1481.21 200.177 1480.75 201.923C1478.52 210.357 1477.18 220.813 1475.76 231.88C1471.76 262.959 1466.8 301.64 1438.8 327.05C1431.84 333.421 1423.51 338.754 1414.06 342.896C1403.89 347.352 1392.05 350.585 1378.89 352.506C1369.39 353.889 1359.55 354.584 1349.23 354.584Z" fill="#46B2C8"/>
<path d="M1365.31 358.201C1351.13 358.201 1336.11 356.767 1319.92 353.887C1297.01 349.812 1275.03 343.448 1255.63 337.834C1231.11 330.74 1205.99 322.481 1180.94 313.29C1160.8 305.876 1141.07 297.94 1122.28 289.707C1076.02 269.439 1036.48 244.608 994.616 218.319C987.774 214.022 980.696 209.579 973.675 205.21C948.995 189.862 927.921 177.206 905.299 165.335C859.71 141.445 809.192 128.499 755.142 126.857C687.226 124.792 614.477 139.88 538.922 171.701C501.388 187.51 464.43 206.89 434.859 226.274C412.581 240.877 395.166 256.773 376.728 273.603C374.444 275.687 372.152 277.78 369.844 279.874C365.734 283.61 360.293 288.535 354.677 293.472C331.042 314.298 300.164 335.738 250.355 336.835C248.802 336.866 247.242 336.881 245.686 336.881C206.792 336.881 167.084 327.251 126.461 316.498L123.925 315.821C103.804 310.447 84.7961 305.373 67.2022 301.679C0.898529 287.758 -63.2252 276.007 -111.683 267.326L-111.335 266.566C-62.8659 275.251 1.2757 287.003 67.6031 300.93C85.2445 304.633 104.273 309.715 124.421 315.095L126.954 315.771C169.065 326.918 210.19 336.861 250.31 336.047C299.567 334.962 330.187 313.686 353.646 293.016C359.259 288.083 364.694 283.163 368.805 279.428C371.112 277.332 373.402 275.241 375.686 273.157C394.153 256.302 411.595 240.379 433.944 225.73C463.575 206.305 500.607 186.885 538.215 171.045C573.121 156.343 608.038 145.055 641.997 137.491C680.959 128.811 719.048 124.969 755.201 126.067C809.53 127.717 860.304 140.726 906.107 164.727C928.761 176.617 949.857 189.286 974.56 204.647C981.584 209.016 988.662 213.46 995.507 217.758C1037.33 244.021 1076.83 268.827 1123 289.055C1141.76 297.279 1161.47 305.202 1181.58 312.605C1206.59 321.784 1231.68 330.03 1256.15 337.114C1294.58 348.234 1342.4 362.074 1390 355.843C1416.01 352.437 1435.5 344.161 1449.57 330.543C1477.04 304.145 1478.69 263.405 1480.02 230.67C1480.46 219.99 1480.87 209.9 1482.17 201.771L1482.2 201.585C1485.14 183.381 1488.18 164.558 1495.14 145.986C1501.18 129.787 1509.58 115.223 1520.11 102.695C1531.99 88.5718 1546.64 77.0067 1563.65 68.32C1575.03 62.5077 1587.07 57.8903 1600.46 54.2056C1636.62 44.1921 1680.94 42.6462 1728.62 49.7387C1747.81 52.5928 1766.74 56.9166 1784.88 62.5876C1803.13 68.2921 1820.22 75.2471 1835.66 83.2556C1870.54 101.319 1899.45 124.761 1921.6 152.932C1941.5 178.253 1955.4 207.137 1961.78 236.46L1960.53 236.566C1946.87 173.806 1901.06 118.148 1834.85 83.8632C1803.89 67.8053 1767.05 56.27 1728.33 50.5116C1680.92 43.46 1636.88 44.9893 1600.97 54.934C1587.69 58.5908 1575.75 63.1711 1564.45 68.9369C1532.69 85.1565 1509.15 111.863 1496.38 146.17C1489.43 164.694 1486.4 183.491 1483.46 201.669L1483.43 201.855C1482.13 209.954 1481.72 220.029 1481.28 230.695C1479.95 263.53 1478.29 304.392 1450.63 330.976C1443.85 337.543 1435.58 342.991 1426.07 347.168C1415.82 351.672 1403.77 354.851 1390.26 356.622C1382.21 357.674 1373.91 358.201 1365.31 358.201Z" fill="#46B2C8"/>
<path d="M251.279 362.751C233.887 362.751 214.948 360.631 193.573 356.302C172.335 352 151.332 346.062 131.796 340.287C128.258 339.235 124.748 338.185 121.261 337.143C103.905 331.953 87.511 327.051 72.1891 323.233C11.0946 308.013 -47.1397 294.333 -103.459 281.107L-112.79 278.914L-112.321 278.132L-102.989 280.325C-46.6675 293.555 11.5758 307.234 72.6821 322.458C88.0455 326.286 104.46 331.193 121.837 336.39C125.321 337.432 128.832 338.482 132.366 339.532C172.469 351.387 215.075 362.876 256.399 361.852C307.197 360.529 337.638 335.771 358.481 314.353C363.821 308.875 368.965 303.416 372.85 299.272C374.994 296.988 377.124 294.707 379.247 292.43C396.859 273.561 413.493 255.738 435.37 238.933C464.247 216.754 501.243 194.208 539.549 175.45C575.087 158.047 610.949 144.296 646.143 134.582C686.51 123.439 725.939 117.656 763.333 117.394C819.602 116.87 871.864 128.982 918.646 153.388C944.579 166.934 967.831 181.587 987.159 194.135C997.676 200.964 1008.19 207.963 1018.36 214.733C1054.37 238.697 1091.6 263.475 1133.35 283.545C1152.01 292.512 1171.58 301.201 1191.54 309.367C1216.23 319.451 1241.31 328.709 1266.08 336.881C1304.8 349.653 1352.98 365.55 1401.38 359.908C1428.03 356.803 1447.64 348.479 1461.34 334.459C1488.44 306.864 1486.61 263.893 1485.14 229.365C1484.71 219.155 1484.29 209.509 1484.79 201.744C1485.9 184.239 1487.58 163.894 1493.39 143.968C1498.29 127.083 1505.69 111.807 1515.37 98.566C1526.33 83.5876 1540.37 71.0303 1557.11 61.2417C1568.19 54.755 1580.62 49.2493 1594.03 44.8753C1613.18 38.6134 1634.66 34.676 1657.89 33.1746C1679.64 31.768 1702.57 32.5076 1726.05 35.3709C1745.85 37.7865 1765.37 41.7592 1784.06 47.1812C1802.86 52.6367 1820.4 59.4337 1836.17 67.3828C1854.35 76.536 1871.07 87.3447 1885.85 99.5099C1899.87 111.036 1912.28 123.89 1922.76 137.715C1942.37 163.578 1955.27 193.059 1960.07 222.966L1958.74 223.05C1948.43 158.827 1903.45 102.327 1835.33 68.035C1804.13 52.3115 1765.23 41.0029 1725.8 36.1922C1677.03 30.2444 1631.68 33.5035 1594.65 45.6167C1581.34 49.9554 1569.02 55.4183 1558.02 61.853C1526.49 80.2968 1505.19 107.974 1494.71 144.118C1488.91 163.991 1487.23 184.3 1486.12 201.778C1485.63 209.515 1486.04 219.146 1486.48 229.343C1487.2 246.377 1488.02 265.684 1485.27 284.349C1482.07 306.008 1474.61 322.541 1462.48 334.896C1455.87 341.656 1447.67 347.221 1438.1 351.435C1427.77 355.988 1415.49 359.115 1401.63 360.73C1394.64 361.545 1387.65 361.915 1380.7 361.915C1339.1 361.915 1298.79 348.615 1265.46 337.618C1240.65 329.433 1215.54 320.163 1190.81 310.064C1170.83 301.886 1151.22 293.185 1132.54 284.204C1090.7 264.094 1053.43 239.29 1017.39 215.303C1007.22 208.536 996.71 201.538 986.2 194.713C966.898 182.18 943.679 167.547 917.794 154.027C871.264 129.751 819.308 117.71 763.354 118.227C675.483 118.844 593.596 150.04 540.375 176.104C502.146 194.825 465.224 217.323 436.409 239.457C414.598 256.212 397.987 274.007 380.402 292.847C378.279 295.123 376.147 297.405 374.002 299.69C370.115 303.836 364.968 309.298 359.625 314.782C350.875 323.773 337.14 336.862 318.946 346.673C310.11 351.437 300.707 355.181 290.999 357.803C280.173 360.726 268.549 362.369 256.455 362.683C254.742 362.729 253.016 362.751 251.279 362.751Z" fill="#46B2C8"/>
<path d="M256.863 388.62C239.45 388.62 220.549 386.337 199.288 381.676C177.274 376.853 155.511 370.07 137.127 364.071C131.478 362.224 125.841 360.351 120.388 358.539C105.147 353.475 90.7485 348.691 77.173 344.785C28.4216 330.756 -20.0121 317.06 -66.8538 303.813C-82.3479 299.432 -98.3677 294.902 -113.895 290.502L-113.312 289.697C-97.7856 294.097 -81.7658 298.627 -66.2717 303.009C-19.43 316.255 29.0096 329.953 77.764 343.984C91.3752 347.901 105.791 352.69 121.051 357.76C126.501 359.572 132.137 361.443 137.78 363.29C175.908 375.728 220.134 388.895 262.482 387.656C314.476 386.099 343.68 359.065 363.317 335.688C368.351 329.699 373.219 323.686 376.895 319.117C378.784 316.772 380.661 314.429 382.535 312.091C399.381 291.066 415.291 271.209 436.799 252.139C464.773 227.336 501.739 201.666 540.883 179.857C595.396 149.616 679.65 112.729 771.462 108.728C829.851 106.116 883.592 117.327 931.185 142.055C952.569 153.171 973.715 165.992 999.755 183.631C1012.91 192.545 1025.97 201.783 1038.6 210.715C1071.46 233.955 1105.43 257.986 1143.71 278.045C1162.25 287.765 1181.7 297.217 1201.5 306.14C1225.48 316.934 1250.55 327.202 1276.01 336.659C1315.11 351.099 1363.78 369.073 1412.77 363.985C1439.63 361.254 1459.93 352.641 1473.1 338.389C1499.83 309.546 1494.09 262.356 1489.9 227.901C1488.73 218.231 1487.62 209.099 1487.4 201.731C1486.91 185.357 1486.95 163.768 1491.64 141.963C1499.72 104.177 1519.55 74.6406 1550.56 54.177C1561.43 46.9675 1573.9 40.7037 1587.61 35.5586C1607.12 28.2301 1629.13 23.3005 1653.03 20.9091C1675.55 18.657 1699.25 18.6923 1723.48 21.015C1743.92 23.018 1764.02 26.6488 1783.23 31.8033C1802.62 37.0098 1820.6 43.6433 1836.68 51.5199C1855.27 60.621 1872.25 71.4669 1887.15 83.7585C1901.27 95.4071 1913.64 108.444 1923.93 122.51C1943.23 148.918 1955.14 178.993 1958.36 209.485L1956.95 209.543C1950.02 143.854 1905.86 86.5104 1835.81 52.2167C1804.05 36.6586 1764.08 25.887 1723.27 21.8883C1672.95 17.0665 1626.3 22.0555 1588.34 36.3167C1574.74 41.4191 1562.38 47.6327 1551.59 54.7846C1520.78 75.1126 1501.08 104.482 1493.04 142.082C1488.37 163.827 1488.33 185.374 1488.81 201.716C1489.03 209.058 1490.14 218.179 1491.31 227.836C1493.48 245.646 1495.93 265.835 1494.53 285.544C1492.89 308.494 1486.29 325.925 1474.32 338.833C1467.89 345.796 1459.75 351.482 1450.13 355.733C1439.7 360.343 1427.21 363.413 1413 364.858C1390.97 367.146 1367.25 365.091 1340.49 358.574C1317.23 352.909 1294.95 344.681 1275.29 337.423C1249.8 327.952 1224.69 317.669 1200.68 306.861C1180.85 297.925 1161.38 288.46 1142.8 278.727C1104.45 258.627 1070.44 234.57 1037.55 211.306C1024.93 202.376 1011.87 193.143 998.722 184.237C972.726 166.629 951.618 153.832 930.285 142.743C882.974 118.156 829.575 107.011 771.558 109.607C680.14 113.593 596.165 150.367 541.816 180.517C502.749 202.281 465.86 227.897 437.945 252.648C416.496 271.664 400.61 291.494 383.792 312.487C381.918 314.826 380.041 317.169 378.152 319.514C374.472 324.087 369.601 330.106 364.561 336.1C344.752 359.685 315.254 386.961 262.544 388.538C260.67 388.592 258.772 388.62 256.863 388.62Z" fill="#46B2C8"/>
<path d="M262.558 414.491C214.98 414.491 165.058 396.209 120.804 380.001C107.204 375.021 94.3593 370.316 82.1529 366.338L-115 302.089L-114.314 301.266L82.8389 365.515C95.078 369.502 107.938 374.212 121.555 379.2C167.521 396.034 219.622 415.116 268.564 413.462C321.704 411.669 349.699 382.358 368.151 357.027C374.186 348.741 380.013 340.311 385.65 332.157C401.067 309.86 417.007 286.802 438.221 265.343C455.066 248.304 475.992 230.434 498.736 213.668C523.686 195.274 550.401 178.399 578.131 163.512C608.707 147.099 639.796 133.521 670.532 123.159C704.529 111.698 738.02 104.215 770.084 100.917C834.314 94.3111 892.733 104.336 943.712 130.716C986.078 152.636 1022.09 179.742 1056.91 205.957C1087.22 228.775 1118.56 252.367 1154.05 272.536C1195.05 295.829 1239.41 317.326 1285.93 336.426C1325.11 352.519 1373.89 372.549 1424.15 368.047C1466.6 364.245 1491.15 346.474 1499.19 313.715C1506.02 285.851 1499.52 252.797 1494.3 226.238C1492.51 217.187 1490.83 208.638 1490.01 201.705C1485.45 163.487 1488.36 131.938 1498.88 105.257C1505.45 88.6103 1515.15 73.7713 1527.7 61.1527C1541.71 47.057 1559.71 35.3061 1581.18 26.2273C1599.75 18.373 1620.69 12.6685 1643.41 9.27187C1665.03 6.03873 1687.8 4.95544 1711.08 6.05173C1756.86 8.20717 1801.64 18.7168 1837.17 35.6425C1856.17 44.6897 1873.42 55.5746 1888.43 67.9925C1902.66 79.7619 1914.99 92.9825 1925.08 107.29C1944.08 134.242 1954.99 164.914 1956.63 195.988L1955.15 196.02C1951.65 129.848 1907.21 70.1702 1836.27 36.3839C1760.94 0.503353 1654.01 -3.44517 1582 26.9984C1510.68 57.1559 1481.07 114.28 1491.48 201.637C1492.31 208.547 1493.99 217.085 1495.77 226.125C1501 252.741 1507.52 285.866 1500.65 313.857C1496.91 329.103 1489.39 341.355 1478.3 350.276C1472.07 355.291 1464.55 359.39 1455.96 362.456C1446.81 365.719 1436.18 367.91 1424.36 368.969C1419.53 369.402 1414.61 369.619 1409.61 369.619C1391.4 369.619 1372 366.737 1350.74 360.899C1326.79 354.321 1303.68 344.83 1285.11 337.204C1238.53 318.076 1194.1 296.552 1153.05 273.225C1117.48 253.014 1086.1 229.393 1055.76 206.551C1020.98 180.37 985.018 153.297 942.758 131.433C892.121 105.233 834.104 95.2736 770.315 101.835C641.284 115.105 508.368 196.15 439.474 265.833C418.316 287.233 402.397 310.259 387.001 332.527C381.361 340.684 375.531 349.12 369.491 357.413C357.24 374.231 345.14 386.274 331.413 395.308C322.845 400.945 313.549 405.39 303.784 408.517C292.926 411.994 281.1 413.971 268.632 414.393C266.618 414.458 264.59 414.491 262.558 414.491Z" fill="#46B2C8"/>
</g>
</svg>
