<svg width="395" height="395" viewBox="0 0 395 395" fill="none" xmlns="http://www.w3.org/2000/svg">
<path d="M371.93 368.859C371.93 368.859 372.301 368.859 373.06 368.859H376.496V368.93C358.721 369.017 286.334 369.088 199.789 369.088L71.588 369.025L32.7437 368.93H22.1814L32.7437 368.891L71.588 368.827L199.789 368.764C286.334 368.764 358.721 368.835 376.496 368.922V368.93H373.06C372.301 368.875 371.93 368.859 371.93 368.859Z" fill="#263238"/>
<path d="M342.379 61.9124H165.316V311.75H342.379V61.9124Z" fill="white"/>
<path d="M342.377 311.75C342.377 310.083 342.298 209.5 342.188 61.9123L342.377 62.094H165.331L165.536 61.8886C165.536 155.511 165.536 242.088 165.496 311.726L165.331 311.56L342.393 311.726L165.331 311.892H165.109V311.726C165.109 242.088 165.109 155.511 165.109 61.8886V61.699H165.331H342.377H342.567V61.8886C342.456 209.5 342.377 310.083 342.377 311.75Z" fill="#263238"/>
<path d="M247.536 227.789H182.519C179.601 227.789 177.234 230.155 177.234 233.074V239.836C177.234 242.755 179.601 245.121 182.519 245.121H247.536C250.455 245.121 252.822 242.755 252.822 239.836V233.074C252.822 230.155 250.455 227.789 247.536 227.789Z" fill="#F5F5F5"/>
<path d="M326.412 227.789H263.07C260.151 227.789 257.785 230.155 257.785 233.074V239.836C257.785 242.755 260.151 245.121 263.07 245.121H326.412C329.331 245.121 331.698 242.755 331.698 239.836V233.074C331.698 230.155 329.331 227.789 326.412 227.789Z" fill="#F5F5F5"/>
<path d="M327.453 263.307H182.164C179.245 263.307 176.879 265.673 176.879 268.592V275.354C176.879 278.273 179.245 280.639 182.164 280.639H327.453C330.372 280.639 332.738 278.273 332.738 275.354V268.592C332.738 265.673 330.372 263.307 327.453 263.307Z" fill="#F5F5F5"/>
<path d="M211.94 220.813C211.94 220.923 204.64 221.018 195.626 221.018C186.612 221.018 179.312 220.923 179.312 220.813C179.312 220.702 186.612 220.607 195.626 220.607C204.64 220.607 211.94 220.702 211.94 220.813Z" fill="#263238"/>
<path d="M289.14 220.813C289.14 220.923 283.389 221.018 276.295 221.018C269.2 221.018 263.441 220.923 263.441 220.813C263.441 220.702 269.193 220.607 276.295 220.607C283.397 220.607 289.14 220.702 289.14 220.813Z" fill="#263238"/>
<path d="M232.653 256.158C232.653 256.268 220.803 256.363 206.188 256.363C191.573 256.363 179.723 256.268 179.723 256.158C179.723 256.047 191.573 255.952 206.188 255.952C220.803 255.952 232.653 256.047 232.653 256.158Z" fill="#263238"/>
<path d="M327.595 188.439H179.241C176.4 188.439 174.098 190.741 174.098 193.582V202.24C174.098 205.08 176.4 207.383 179.241 207.383H327.595C330.435 207.383 332.738 205.08 332.738 202.24V193.582C332.738 190.741 330.435 188.439 327.595 188.439Z" fill="#E0E0E0"/>
<path d="M287.212 197.911C287.212 198.029 273.134 198.116 255.778 198.116C238.422 198.116 224.336 198.029 224.336 197.911C224.336 197.792 238.414 197.705 255.778 197.705C273.142 197.705 287.212 197.8 287.212 197.911Z" fill="#263238"/>
<path d="M327.595 73.2566H179.241C176.4 73.2566 174.098 75.5591 174.098 78.3995V87.0579C174.098 89.8982 176.4 92.2008 179.241 92.2008H327.595C330.435 92.2008 332.738 89.8982 332.738 87.0579V78.3995C332.738 75.5591 330.435 73.2566 327.595 73.2566Z" fill="#E0E0E0"/>
<path d="M287.212 82.7288C287.212 82.8394 273.134 82.9342 255.778 82.9342C238.422 82.9342 224.336 82.8394 224.336 82.7288C224.336 82.6182 238.414 82.5234 255.778 82.5234C273.142 82.5234 287.212 82.6103 287.212 82.7288Z" fill="#263238"/>
<path d="M342.377 96.7828C342.377 96.9013 302.703 96.9961 253.771 96.9961C204.838 96.9961 165.148 96.9013 165.148 96.7828C165.148 96.6643 204.822 96.5774 253.771 96.5774C302.719 96.5774 342.377 96.6722 342.377 96.7828Z" fill="#EBEBEB"/>
<path d="M342.377 180.594C342.377 180.713 302.703 180.799 253.771 180.799C204.838 180.799 165.148 180.713 165.148 180.594C165.148 180.476 204.822 180.389 253.771 180.389C302.719 180.389 342.377 180.483 342.377 180.594Z" fill="#EBEBEB"/>
<path d="M247.536 115.782H182.519C179.601 115.782 177.234 118.149 177.234 121.068V127.83C177.234 130.749 179.601 133.115 182.519 133.115H247.536C250.455 133.115 252.822 130.749 252.822 127.83V121.068C252.822 118.149 250.455 115.782 247.536 115.782Z" fill="#F5F5F5"/>
<path d="M326.412 115.782H263.07C260.151 115.782 257.785 118.149 257.785 121.068V127.83C257.785 130.749 260.151 133.115 263.07 133.115H326.412C329.331 133.115 331.698 130.749 331.698 127.83V121.068C331.698 118.149 329.331 115.782 326.412 115.782Z" fill="#F5F5F5"/>
<path d="M327.453 151.301H182.164C179.245 151.301 176.879 153.667 176.879 156.586V163.348C176.879 166.267 179.245 168.633 182.164 168.633H327.453C330.372 168.633 332.738 166.267 332.738 163.348V156.586C332.738 153.667 330.372 151.301 327.453 151.301Z" fill="#F5F5F5"/>
<path d="M211.94 108.807C211.94 108.917 204.64 109.012 195.626 109.012C186.612 109.012 179.312 108.917 179.312 108.807C179.312 108.696 186.612 108.601 195.626 108.601C204.64 108.601 211.94 108.696 211.94 108.807Z" fill="#263238"/>
<path d="M289.14 108.807C289.14 108.917 283.389 109.012 276.295 109.012C269.2 109.012 263.441 108.917 263.441 108.807C263.441 108.696 269.193 108.601 276.295 108.601C283.397 108.601 289.14 108.696 289.14 108.807Z" fill="#263238"/>
<path d="M232.653 144.151C232.653 144.262 220.803 144.357 206.188 144.357C191.573 144.357 179.723 144.262 179.723 144.151C179.723 144.041 191.573 143.946 206.188 143.946C220.803 143.946 232.653 144.041 232.653 144.151Z" fill="#263238"/>
<path d="M327.271 291.17C327.271 291.289 315.713 291.376 301.454 291.376C287.194 291.376 275.645 291.289 275.645 291.17C275.645 291.052 287.194 290.965 301.454 290.965C315.713 290.965 327.271 291.06 327.271 291.17Z" fill="#263238"/>
<path d="M241.218 126.266C240.818 126.397 240.409 126.5 239.994 126.574C236.892 127.145 233.688 126.687 230.869 125.27C230.345 124.998 229.872 124.637 229.471 124.204C229.031 123.737 228.737 123.152 228.626 122.521C228.553 122.184 228.552 121.836 228.621 121.499C228.69 121.162 228.829 120.842 229.029 120.562C229.263 120.272 229.577 120.057 229.933 119.944C230.288 119.832 230.669 119.827 231.027 119.93C231.216 119.985 231.392 120.079 231.543 120.205C231.694 120.332 231.817 120.488 231.904 120.664C232.079 121.022 232.131 121.427 232.054 121.818C231.89 122.584 231.512 123.288 230.964 123.848C229.886 125.058 228.531 125.988 227.014 126.558C225.381 127.175 223.611 127.333 221.895 127.016C220.983 126.861 220.123 126.484 219.391 125.918C218.996 125.629 218.678 125.247 218.466 124.806C218.254 124.365 218.154 123.879 218.174 123.39C218.225 122.888 218.414 122.41 218.719 122.007C219.018 121.578 219.461 121.27 219.967 121.138C220.235 121.086 220.512 121.103 220.77 121.189C221.029 121.275 221.262 121.426 221.445 121.628C221.791 122.036 221.979 122.555 221.974 123.09C221.983 123.613 221.858 124.13 221.61 124.591C221.344 125.045 220.976 125.432 220.536 125.72C219.659 126.245 218.705 126.627 217.708 126.85C215.788 127.395 213.695 127.988 211.562 127.506C210.493 127.274 209.512 126.742 208.733 125.973C208.33 125.581 208.012 125.11 207.8 124.59C207.588 124.069 207.486 123.51 207.501 122.948C207.509 122.586 207.59 122.23 207.738 121.901C207.886 121.571 208.098 121.274 208.362 121.028C208.654 120.798 209.004 120.655 209.373 120.616C209.742 120.577 210.115 120.643 210.448 120.807C210.791 120.961 211.068 121.233 211.229 121.573C211.39 121.913 211.424 122.3 211.325 122.663C211.112 123.333 210.678 123.91 210.092 124.298C207.972 125.753 205.534 126.679 202.982 127C201.74 127.214 200.463 127.103 199.277 126.676C198.693 126.44 198.178 126.06 197.78 125.571C197.382 125.082 197.115 124.5 197.002 123.88C196.908 123.258 197.048 122.624 197.396 122.1C197.743 121.575 198.273 121.199 198.882 121.044C199.192 120.984 199.512 121.008 199.809 121.114C200.106 121.219 200.37 121.402 200.573 121.644C200.945 122.112 201.153 122.689 201.165 123.287C201.192 123.865 201.067 124.44 200.802 124.954C200.521 125.438 200.138 125.856 199.68 126.179C198.796 126.757 197.813 127.169 196.781 127.395C194.845 127.909 192.831 128.272 190.998 127.601C190.133 127.288 189.373 126.741 188.802 126.021C188.249 125.331 187.968 124.462 188.012 123.58C188.095 122.762 188.471 122.002 189.07 121.439C189.342 121.166 189.677 120.966 190.045 120.856C190.413 120.745 190.803 120.729 191.18 120.807H191.259V120.886C191.283 122.436 190.719 123.938 189.679 125.088C188.94 125.954 187.982 126.606 186.906 126.977C186.241 127.206 185.537 127.298 184.836 127.245C184.362 127.174 184.125 127.111 184.125 127.111C185.045 127.261 185.989 127.174 186.866 126.858C187.909 126.477 188.832 125.829 189.544 124.978C190.521 123.848 191.039 122.394 190.998 120.901L191.085 121.004C190.746 120.942 190.396 120.963 190.067 121.066C189.738 121.17 189.439 121.352 189.197 121.597C188.651 122.122 188.312 122.825 188.241 123.58C188.122 125.16 189.394 126.74 191.053 127.308C192.712 127.877 194.727 127.585 196.646 127.063C197.637 126.843 198.579 126.444 199.427 125.886C199.839 125.594 200.184 125.217 200.438 124.78C200.674 124.322 200.783 123.81 200.754 123.295C200.744 122.781 200.566 122.285 200.249 121.881C200.089 121.688 199.88 121.541 199.643 121.456C199.407 121.371 199.152 121.352 198.906 121.399C198.391 121.539 197.945 121.863 197.653 122.31C197.362 122.758 197.245 123.297 197.326 123.824C197.431 124.376 197.674 124.893 198.032 125.326C198.389 125.76 198.85 126.096 199.372 126.305C200.496 126.704 201.705 126.805 202.88 126.597C205.361 126.282 207.732 125.377 209.792 123.959C210.297 123.625 210.678 123.133 210.874 122.56C210.949 122.288 210.924 121.997 210.802 121.742C210.68 121.486 210.47 121.283 210.211 121.17C209.949 121.045 209.658 120.994 209.37 121.024C209.081 121.053 208.807 121.161 208.575 121.336C208.353 121.546 208.175 121.798 208.052 122.077C207.928 122.357 207.862 122.658 207.857 122.963C207.845 123.467 207.939 123.968 208.13 124.435C208.322 124.901 208.608 125.323 208.97 125.673C209.692 126.386 210.602 126.879 211.593 127.095C213.584 127.553 215.63 127 217.542 126.455C218.495 126.24 219.41 125.877 220.252 125.381C220.642 125.13 220.97 124.792 221.208 124.393C221.421 123.992 221.53 123.544 221.524 123.09C221.532 122.649 221.38 122.219 221.097 121.881C220.961 121.728 220.788 121.613 220.594 121.548C220.4 121.482 220.192 121.469 219.991 121.51C219.583 121.649 219.225 121.904 218.96 122.244C218.695 122.583 218.534 122.992 218.498 123.422C218.491 123.85 218.59 124.274 218.786 124.656C218.981 125.037 219.268 125.365 219.62 125.61C220.314 126.142 221.127 126.497 221.99 126.645C223.642 126.949 225.346 126.799 226.919 126.21C228.396 125.673 229.717 124.781 230.767 123.611C231.276 123.098 231.632 122.452 231.794 121.747C231.886 121.432 231.856 121.094 231.71 120.801C231.563 120.508 231.311 120.281 231.004 120.167C230.701 120.076 230.378 120.078 230.077 120.172C229.776 120.267 229.51 120.449 229.313 120.696C229.135 120.945 229.01 121.227 228.947 121.526C228.883 121.825 228.881 122.134 228.942 122.434C229.07 122.998 229.326 123.525 229.691 123.974C230.055 124.424 230.518 124.783 231.043 125.025C232.725 125.903 234.564 126.44 236.455 126.605C237.651 126.702 238.855 126.659 240.041 126.479L240.965 126.305C241.049 126.287 241.133 126.274 241.218 126.266Z" fill="#46B2C8"/>
<path d="M318.504 125.326C318.19 125.523 317.857 125.688 317.509 125.815C316.519 126.22 315.465 126.442 314.396 126.471C312.696 126.532 311.011 126.14 309.514 125.334C308.553 124.858 307.735 124.135 307.144 123.24C306.817 122.731 306.668 122.129 306.717 121.526C306.752 121.207 306.851 120.898 307.008 120.618C307.166 120.338 307.379 120.093 307.634 119.898C307.908 119.684 308.249 119.573 308.597 119.582C308.955 119.595 309.295 119.738 309.553 119.985C309.799 120.242 309.985 120.55 310.096 120.888C310.206 121.226 310.24 121.584 310.193 121.937C310.066 122.65 309.718 123.305 309.198 123.809C308.686 124.324 308.107 124.768 307.476 125.128C306.156 125.905 304.68 126.378 303.154 126.511C301.522 126.698 299.871 126.393 298.414 125.634C297.652 125.224 297.018 124.612 296.582 123.864C296.364 123.473 296.222 123.044 296.163 122.6C296.119 121.91 296.297 121.225 296.671 120.643C297.045 120.062 297.595 119.616 298.241 119.369C298.475 119.296 298.722 119.271 298.966 119.295C299.21 119.32 299.447 119.393 299.663 119.511C300.087 119.75 300.42 120.122 300.611 120.57C300.797 121.011 300.885 121.489 300.867 121.968C300.849 122.447 300.727 122.916 300.508 123.343C300.06 124.177 299.415 124.887 298.628 125.413C297.06 126.497 295.225 127.131 293.323 127.245C291.42 127.36 289.522 126.95 287.836 126.06C287.005 125.638 286.251 125.077 285.608 124.401C284.931 123.727 284.535 122.821 284.502 121.865C284.512 121.384 284.66 120.916 284.929 120.516C285.198 120.117 285.577 119.804 286.019 119.614C286.252 119.522 286.503 119.49 286.751 119.519C286.999 119.548 287.236 119.637 287.441 119.78C287.831 120.06 288.111 120.468 288.231 120.933C288.342 121.372 288.352 121.831 288.261 122.274C288.169 122.717 287.978 123.134 287.702 123.493C287.191 124.171 286.575 124.763 285.877 125.247C284.614 126.181 283.168 126.837 281.634 127.172C280.099 127.507 278.511 127.513 276.974 127.19C275.545 126.932 274.259 126.162 273.356 125.025C272.937 124.471 272.702 123.8 272.684 123.106C272.665 122.442 272.829 121.786 273.158 121.21C273.31 120.927 273.518 120.679 273.77 120.479C274.021 120.28 274.31 120.133 274.62 120.048C274.917 119.981 275.226 119.981 275.524 120.048C275.822 120.115 276.101 120.248 276.342 120.436C276.771 120.776 277.105 121.222 277.31 121.731C277.515 122.239 277.584 122.792 277.511 123.335C277.349 124.269 276.852 125.111 276.113 125.705C275.513 126.204 274.808 126.561 274.051 126.748C273.015 126.981 271.948 127.047 270.891 126.945L270.101 126.874C270.009 126.886 269.916 126.886 269.824 126.874C269.916 126.864 270.009 126.864 270.101 126.874H270.93C271.991 126.942 273.056 126.852 274.09 126.605C274.817 126.408 275.492 126.052 276.065 125.563C276.744 124.965 277.18 124.138 277.29 123.24C277.349 122.741 277.28 122.236 277.09 121.771C276.899 121.307 276.592 120.899 276.2 120.586C275.987 120.425 275.741 120.313 275.481 120.257C275.22 120.201 274.951 120.203 274.691 120.262C274.42 120.343 274.169 120.477 273.951 120.656C273.732 120.835 273.552 121.055 273.419 121.305C273.108 121.84 272.96 122.454 272.996 123.072C273.031 123.69 273.247 124.284 273.616 124.781C274.482 125.845 275.702 126.563 277.053 126.803C278.542 127.117 280.081 127.111 281.568 126.787C283.054 126.463 284.456 125.828 285.68 124.923C286.338 124.456 286.919 123.888 287.402 123.24C287.644 122.929 287.812 122.566 287.892 122.18C287.973 121.794 287.965 121.395 287.868 121.012C287.776 120.638 287.555 120.308 287.244 120.08C287.092 119.973 286.915 119.905 286.73 119.883C286.546 119.861 286.358 119.885 286.185 119.954C285.818 120.116 285.504 120.38 285.282 120.715C285.059 121.049 284.937 121.44 284.929 121.842C284.969 122.692 285.327 123.495 285.932 124.093C286.548 124.735 287.266 125.269 288.057 125.673C289.681 126.515 291.501 126.906 293.327 126.803C295.153 126.697 296.914 126.087 298.414 125.041C299.155 124.571 299.768 123.925 300.2 123.161C300.391 122.788 300.499 122.378 300.517 121.96C300.535 121.541 300.462 121.123 300.302 120.736C300.168 120.364 299.898 120.056 299.547 119.873C299.196 119.69 298.789 119.645 298.406 119.748C297.849 119.968 297.374 120.358 297.051 120.863C296.728 121.368 296.572 121.962 296.605 122.561C296.657 122.952 296.783 123.33 296.977 123.675C297.375 124.363 297.958 124.927 298.659 125.302C300.04 126.026 301.604 126.323 303.154 126.155C304.621 126.023 306.04 125.567 307.31 124.82C307.916 124.48 308.474 124.061 308.969 123.572C309.442 123.117 309.763 122.526 309.885 121.881C309.928 121.577 309.901 121.268 309.808 120.975C309.715 120.682 309.558 120.414 309.348 120.191C309.143 119.994 308.874 119.878 308.591 119.865C308.308 119.852 308.029 119.942 307.807 120.12C307.589 120.293 307.407 120.508 307.271 120.752C307.135 120.996 307.049 121.264 307.017 121.542C306.973 122.095 307.106 122.649 307.397 123.122C307.965 123.978 308.746 124.672 309.664 125.136C311.112 125.942 312.747 126.35 314.404 126.321C315.455 126.302 316.496 126.11 317.485 125.752C318.164 125.499 318.488 125.302 318.504 125.326Z" fill="#FF5454"/>
<path d="M245.059 160.22C244.964 160.28 244.864 160.331 244.758 160.37L243.85 160.781C243.06 161.136 241.867 161.658 240.311 162.242C238.418 162.973 236.453 163.503 234.449 163.822C233.194 164.006 231.925 164.083 230.657 164.051C229.225 164.079 227.799 163.865 226.438 163.419C225.675 163.16 224.985 162.721 224.427 162.14C223.869 161.558 223.459 160.851 223.231 160.078C223.114 159.658 223.082 159.219 223.136 158.786C223.191 158.353 223.33 157.936 223.547 157.558C223.765 157.155 224.078 156.812 224.457 156.556C224.837 156.3 225.272 156.14 225.727 156.088C226.207 156.08 226.679 156.215 227.083 156.475C227.487 156.735 227.804 157.109 227.995 157.55C228.426 158.425 228.497 159.435 228.192 160.362C227.861 161.284 227.292 162.102 226.541 162.732C225.79 163.369 224.955 163.901 224.06 164.312C222.215 165.272 220.082 165.522 218.064 165.015C217.021 164.693 216.083 164.097 215.349 163.288C214.615 162.479 214.112 161.487 213.893 160.417C213.798 159.866 213.798 159.302 213.893 158.751C213.969 158.171 214.204 157.624 214.573 157.171C214.748 156.924 214.974 156.718 215.236 156.567C215.497 156.416 215.788 156.323 216.089 156.294C216.409 156.288 216.723 156.383 216.985 156.566C217.248 156.749 217.446 157.01 217.551 157.313C217.702 157.881 217.728 158.476 217.627 159.056C217.526 159.635 217.301 160.186 216.966 160.67C216.383 161.663 215.635 162.55 214.754 163.293C213.022 164.776 210.808 165.574 208.529 165.54C206.249 165.505 204.061 164.638 202.375 163.103C201.564 162.35 201.012 161.361 200.795 160.275C200.687 159.728 200.722 159.162 200.898 158.632C201.09 158.113 201.407 157.649 201.822 157.281C202.232 156.905 202.748 156.665 203.299 156.594C203.582 156.553 203.87 156.575 204.143 156.659C204.416 156.742 204.667 156.884 204.879 157.076C205.249 157.462 205.509 157.941 205.633 158.462C205.757 158.982 205.739 159.527 205.582 160.038C205.274 160.999 204.708 161.857 203.947 162.519C203.245 163.172 202.475 163.747 201.648 164.233C200.068 165.167 198.312 165.764 196.489 165.987C194.786 166.212 193.055 166.058 191.418 165.537C190.639 165.276 189.927 164.847 189.332 164.281C188.756 163.732 188.362 163.021 188.202 162.242C188.031 161.499 188.103 160.721 188.408 160.022C188.553 159.685 188.782 159.391 189.072 159.166C189.362 158.941 189.704 158.792 190.067 158.735C190.407 158.683 190.755 158.703 191.087 158.794C191.419 158.886 191.728 159.046 191.994 159.264C192.245 159.474 192.435 159.748 192.542 160.057C192.649 160.366 192.67 160.698 192.603 161.018C192.471 161.601 192.152 162.126 191.694 162.511C191.29 162.864 190.841 163.162 190.359 163.396C189.526 163.808 188.656 164.142 187.76 164.391C186.526 164.745 185.251 164.933 183.968 164.952C183.522 164.968 183.076 164.949 182.633 164.897H182.973C183.202 164.897 183.533 164.897 183.968 164.897C185.237 164.839 186.495 164.627 187.713 164.265C188.594 164 189.45 163.659 190.272 163.246C190.736 163.015 191.167 162.723 191.552 162.377C191.955 162.014 192.231 161.533 192.342 161.002C192.399 160.721 192.378 160.43 192.282 160.16C192.186 159.89 192.018 159.651 191.797 159.469C191.555 159.279 191.277 159.141 190.979 159.062C190.682 158.983 190.371 158.966 190.067 159.011C189.748 159.066 189.448 159.2 189.195 159.401C188.942 159.603 188.745 159.866 188.621 160.165C188.346 160.808 188.285 161.522 188.447 162.203C188.64 162.934 189.022 163.601 189.554 164.138C190.087 164.675 190.751 165.062 191.481 165.26C193.071 165.761 194.752 165.901 196.403 165.671C199.115 165.331 201.651 164.142 203.647 162.274C204.361 161.658 204.891 160.857 205.179 159.959C205.316 159.515 205.332 159.043 205.226 158.591C205.121 158.138 204.898 157.722 204.579 157.384C204.208 157.101 203.745 156.967 203.28 157.008C202.815 157.049 202.383 157.262 202.067 157.605C201.713 157.928 201.442 158.332 201.277 158.782C201.125 159.249 201.095 159.746 201.19 160.228C201.403 161.231 201.925 162.143 202.683 162.835C204.299 164.301 206.395 165.127 208.577 165.157C210.758 165.188 212.876 164.421 214.533 163.001C215.382 162.291 216.102 161.438 216.658 160.481C216.947 160.028 217.153 159.528 217.266 159.003C217.394 158.501 217.377 157.972 217.219 157.479C217.146 157.252 217.004 157.054 216.813 156.912C216.622 156.77 216.391 156.692 216.153 156.689C215.91 156.718 215.677 156.798 215.467 156.923C215.258 157.048 215.077 157.216 214.936 157.415C214.64 157.832 214.434 158.306 214.332 158.806C214.23 159.307 214.234 159.824 214.343 160.323C214.55 161.319 215.019 162.243 215.702 162.997C216.386 163.752 217.259 164.309 218.23 164.612C220.154 165.096 222.188 164.86 223.95 163.949C225.672 163.119 227.323 161.918 227.9 160.204C228.177 159.366 228.115 158.453 227.726 157.66C227.569 157.279 227.301 156.954 226.958 156.726C226.614 156.498 226.211 156.378 225.798 156.381C225.398 156.427 225.015 156.569 224.681 156.795C224.347 157.02 224.072 157.322 223.879 157.676C223.68 158.017 223.552 158.393 223.502 158.784C223.452 159.175 223.481 159.572 223.586 159.951C223.797 160.68 224.18 161.347 224.703 161.897C225.225 162.447 225.872 162.863 226.588 163.111C227.917 163.558 229.311 163.777 230.712 163.759C231.966 163.8 233.222 163.734 234.465 163.562C236.456 163.271 238.413 162.776 240.303 162.084C241.883 161.523 243.052 161.026 243.866 160.702L244.79 160.323L245.059 160.22Z" fill="#FF993C"/>
<path d="M319.95 334.036C319.95 334.036 301.78 313.116 294.907 292.166C288.034 271.215 291.313 273.648 291.313 273.648C291.313 273.648 300.572 293.967 307.603 303.786C314.634 313.606 327.155 328.008 327.155 328.008L319.95 334.036Z" fill="#0AA06E"/>
<path d="M323.598 276.927C323.476 276.713 323.283 276.549 323.053 276.462C322.823 276.376 322.57 276.372 322.338 276.451C322.105 276.53 321.907 276.688 321.778 276.898C321.649 277.107 321.597 277.355 321.631 277.598C322.737 284.953 325.131 302.199 325.044 313.385C324.918 327.913 325.044 333.53 325.044 333.53H332.588C332.588 333.53 331.245 303.51 329.531 294.33C328.362 287.915 325.818 280.782 323.598 276.927Z" fill="#0AA06E"/>
<path d="M327.73 331.089C330.899 323.905 332.996 316.295 333.956 308.503C334.58 303.146 333.466 295.918 331.815 286.272C331.171 282.746 330.851 279.168 330.859 275.583C330.86 275.182 330.995 274.793 331.242 274.478C331.489 274.162 331.835 273.938 332.224 273.841C332.613 273.744 333.024 273.779 333.39 273.942C333.757 274.104 334.059 274.385 334.248 274.738C335.156 276.365 337.803 281.927 338.474 285.419C340.307 294.946 342.377 299.71 340.797 308.74C339.217 317.769 333.379 331.697 333.379 331.697L327.73 331.089Z" fill="#0AA06E"/>
<path d="M334.543 331.697C334.543 331.697 354.507 288.808 355.873 282.441C357.24 276.073 361.956 261.419 362.509 262.248C363.062 263.078 363.9 270.82 360.297 279.676C356.695 288.532 341.337 333.009 341.337 333.009H334.52" fill="#0AA06E"/>
<path d="M325.545 329.778C325.347 329.668 325.16 329.541 324.984 329.398C324.629 329.13 324.092 328.751 323.404 328.213C321.538 326.724 319.748 325.142 318.04 323.473C312.423 317.936 307.555 311.686 303.559 304.885C299.582 298.084 296.272 290.914 293.677 283.476C292.673 280.624 291.946 278.293 291.465 276.674C291.228 275.884 291.054 275.236 290.935 274.801C290.867 274.587 290.817 274.368 290.785 274.146C290.883 274.349 290.963 274.56 291.022 274.778L291.623 276.626C292.152 278.206 292.926 280.576 293.993 283.373C296.662 290.771 299.999 297.91 303.962 304.703C307.942 311.473 312.754 317.717 318.285 323.292C320.426 325.417 322.235 327.028 323.546 328.111C324.178 328.664 324.7 329.059 325.04 329.351C325.218 329.481 325.387 329.624 325.545 329.778Z" fill="#3B802A"/>
<path d="M327.725 309.206C327.636 308.789 327.578 308.367 327.551 307.942L327.179 304.505C326.863 301.606 326.389 297.601 325.663 293.208C324.936 288.816 324.17 284.85 323.561 281.998L322.834 278.617C322.72 278.209 322.646 277.791 322.613 277.369C322.769 277.762 322.896 278.166 322.992 278.578C323.222 279.368 323.514 280.513 323.854 281.935C324.541 284.779 325.378 288.729 326.089 293.137C326.8 297.545 327.243 301.567 327.48 304.474C327.598 305.935 327.677 307.112 327.717 307.934C327.757 308.357 327.76 308.783 327.725 309.206Z" fill="#3B802A"/>
<path d="M332.401 274.398C332.499 274.571 332.579 274.754 332.638 274.944C332.788 275.346 332.986 275.876 333.238 276.524C333.491 277.171 333.807 278.064 334.092 279.075C334.376 280.086 334.771 281.216 335.063 282.512L335.561 284.526C335.727 285.229 335.845 285.972 335.996 286.73C336.319 288.255 336.525 289.89 336.786 291.644C337.698 299.197 337.431 306.846 335.996 314.317C335.624 316.024 335.308 317.659 334.874 319.152C334.668 319.902 334.495 320.637 334.281 321.324C334.068 322.012 333.847 322.675 333.641 323.299C333.262 324.571 332.796 325.669 332.425 326.657C332.053 327.644 331.706 328.474 331.39 329.145L330.679 330.725C330.607 330.909 330.514 331.084 330.402 331.247C330.455 331.055 330.521 330.868 330.6 330.686C330.766 330.291 330.971 329.762 331.24 329.106C331.508 328.45 331.864 327.589 332.204 326.602C332.543 325.614 332.994 324.5 333.357 323.236C333.547 322.604 333.752 321.941 333.965 321.261C334.179 320.582 334.337 319.839 334.534 319.089C334.953 317.596 335.253 315.968 335.608 314.27C336.997 306.831 337.264 299.225 336.398 291.707C336.169 289.985 335.98 288.342 335.672 286.825C335.529 286.035 335.419 285.324 335.261 284.621C335.103 283.918 334.945 283.246 334.795 282.607C334.526 281.311 334.163 280.173 333.886 279.17C333.61 278.167 333.341 277.298 333.096 276.595L332.575 275.015C332.493 274.817 332.435 274.61 332.401 274.398Z" fill="#3B802A"/>
<path d="M362.302 263.109C362.306 263.173 362.306 263.236 362.302 263.299C362.302 263.449 362.247 263.631 362.207 263.86C362.121 264.342 362.01 265.069 361.812 265.993C361.433 267.841 360.785 270.496 359.79 273.711C358.795 276.926 357.42 280.718 355.84 284.866C354.26 289.013 352.356 293.556 350.587 298.359C348.817 303.162 347.427 307.839 346.099 312.121C344.772 316.403 343.579 320.203 342.402 323.363C341.483 325.865 340.428 328.315 339.242 330.702C338.831 331.547 338.452 332.179 338.223 332.621L337.947 333.111C337.917 333.169 337.88 333.222 337.836 333.269L337.907 333.088C337.978 332.953 338.057 332.779 338.152 332.574C338.365 332.132 338.705 331.484 339.092 330.623C339.882 328.924 340.972 326.428 342.11 323.26C343.247 320.092 344.48 316.268 345.712 312.002C346.945 307.736 348.375 303.036 350.176 298.209C351.977 293.382 353.833 288.863 355.469 284.724C357.104 280.584 358.494 276.824 359.521 273.624C360.548 270.425 361.236 267.786 361.67 265.953C361.891 265.045 362.026 264.326 362.144 263.844C362.192 263.623 362.239 263.441 362.271 263.291C362.271 263.229 362.282 263.168 362.302 263.109Z" fill="#3B802A"/>
<path d="M300.754 253.629C300.477 253.369 300.123 253.208 299.745 253.17C299.368 253.132 298.989 253.22 298.666 253.42C298.344 253.62 298.096 253.921 297.962 254.276C297.829 254.631 297.816 255.02 297.926 255.383C298.606 257.591 299.443 259.748 300.43 261.837C303.171 267.668 311.237 288.587 315.005 300.081C318.774 311.576 324.098 333.009 324.098 333.009L332.156 331.697C332.156 331.697 324.786 296.479 317.581 283.784C311.79 273.593 306.007 258.851 300.754 253.629Z" fill="#0AA06E"/>
<path d="M317.207 307.262C317.384 307.569 317.525 307.895 317.626 308.234C317.863 308.866 318.187 309.814 318.558 310.936C319.301 313.235 320.201 316.466 321.118 320.013C322.034 323.56 322.792 326.823 323.322 329.177C323.567 330.291 323.764 331.223 323.93 331.966C324.024 332.306 324.08 332.656 324.096 333.009C323.949 332.687 323.838 332.351 323.764 332.005C323.574 331.271 323.322 330.346 323.029 329.248C322.413 326.823 321.599 323.639 320.707 320.116C319.814 316.592 318.929 313.338 318.266 311.023L317.476 308.282C317.354 307.951 317.264 307.61 317.207 307.262Z" fill="#3B802A"/>
<path d="M328.142 332.353C328.116 332.284 328.1 332.213 328.094 332.14C328.094 331.974 328.047 331.76 328.007 331.5C327.921 330.947 327.849 330.117 327.676 329.067C327.383 326.949 326.886 323.9 325.985 320.179C324.957 315.823 323.699 311.525 322.217 307.302C320.566 302.562 318.488 297.372 316.142 292.039C311.402 281.374 306.662 271.918 303.557 264.919C301.977 261.435 300.768 258.599 299.962 256.6C299.552 255.612 299.259 254.838 299.054 254.309C298.967 254.064 298.896 253.866 298.833 253.708C298.802 253.641 298.78 253.569 298.77 253.495C298.811 253.557 298.846 253.623 298.872 253.693L299.133 254.277C299.37 254.822 299.702 255.581 300.113 256.537C300.966 258.504 302.222 261.324 303.826 264.8C306.986 271.752 311.781 281.185 316.529 291.865C318.899 297.214 320.953 302.38 322.588 307.176C324.052 311.416 325.281 315.733 326.269 320.108C326.946 323.058 327.473 326.04 327.849 329.043C327.992 330.101 328.047 330.931 328.102 331.492C328.102 331.755 328.118 331.968 328.15 332.132C328.157 332.205 328.155 332.28 328.142 332.353Z" fill="#3B802A"/>
<path d="M332.156 331.697C332.025 331.256 331.932 330.804 331.88 330.346C331.722 329.398 331.509 328.15 331.256 326.641C330.703 323.481 329.85 319.223 328.633 314.538C327.416 309.854 326.065 305.69 325.023 302.688L323.759 299.149C323.583 298.724 323.441 298.285 323.332 297.838C323.564 298.238 323.759 298.659 323.917 299.094C324.264 299.884 324.746 301.101 325.307 302.586C326.763 306.466 328.01 310.422 329.044 314.436C330.085 318.444 330.924 322.501 331.556 326.594C331.785 328.174 331.959 329.438 332.046 330.323C332.113 330.778 332.15 331.237 332.156 331.697Z" fill="#3B802A"/>
<path d="M348.692 330.544H317.242V368.859H348.692V330.544Z" fill="#115766"/>
<g opacity="0.3">
<path d="M348.692 330.544H317.242V368.859H348.692V330.544Z" fill="black"/>
</g>
<path d="M338.657 330.544H310.754V368.859H338.657V330.544Z" fill="#115766"/>
<path d="M83.0907 127.395L82.198 199.38C82.0479 211.617 84.3231 229.629 103.686 228.989C120.45 227.164 124.897 211.301 125.016 199.878C125.079 194.458 125.142 189.94 125.182 189.387C125.182 189.387 143.526 187.886 145.074 169.763C145.825 161.01 145.864 142.848 145.777 126.416C145.708 117.905 142.437 109.732 136.615 103.524C130.794 97.3157 122.848 93.527 114.359 92.9118L112.605 92.7775C93.6609 92.5089 82.8458 108.443 83.0907 127.395Z" fill="#FFBE9D"/>
<path d="M125.193 189.387C125.193 189.387 113.715 189.221 102.094 180.697C102.094 180.697 106.881 194.364 125.099 194.048L125.193 189.387Z" fill="#EB996E"/>
<path d="M114.803 133.842C114.447 134.213 112.354 132.522 109.312 132.443C106.271 132.364 104.011 133.85 103.695 133.462C103.537 133.289 103.909 132.617 104.904 131.922C106.235 131.03 107.814 130.582 109.415 130.642C110.999 130.682 112.527 131.237 113.768 132.222C114.684 132.988 114.984 133.684 114.803 133.842Z" fill="#263238"/>
<path d="M114.715 140.122C114.672 140.761 114.383 141.357 113.908 141.786C113.433 142.215 112.81 142.443 112.171 142.421C111.542 142.421 110.939 142.171 110.495 141.727C110.05 141.282 109.801 140.68 109.801 140.051C109.842 139.413 110.129 138.817 110.603 138.387C111.076 137.958 111.698 137.73 112.337 137.752C112.649 137.751 112.958 137.812 113.246 137.93C113.535 138.049 113.797 138.223 114.018 138.444C114.239 138.664 114.414 138.925 114.533 139.213C114.653 139.501 114.715 139.81 114.715 140.122Z" fill="#263238"/>
<path d="M122.449 154.958C122.449 154.8 124.203 154.627 127.031 154.477C127.75 154.477 128.437 154.358 128.611 153.884C128.727 153.155 128.616 152.408 128.295 151.743L126.518 146.15C124.148 138.25 122.512 131.725 122.828 131.63C123.144 131.535 125.325 137.894 127.679 145.85C128.248 147.809 128.785 149.665 129.259 151.451C129.472 152.28 129.867 153.228 129.425 154.271C129.304 154.515 129.129 154.729 128.912 154.895C128.696 155.06 128.444 155.174 128.177 155.227C127.776 155.305 127.367 155.331 126.96 155.306C124.164 155.235 122.449 155.124 122.449 154.958Z" fill="#263238"/>
<path d="M113.516 122.45C113.224 123.129 110.791 122.616 107.884 122.766C104.977 122.916 102.575 123.556 102.243 122.916C102.093 122.6 102.543 121.984 103.531 121.383C104.833 120.641 106.298 120.228 107.797 120.183C109.286 120.104 110.771 120.397 112.118 121.036C113.145 121.526 113.643 122.11 113.516 122.45Z" fill="#263238"/>
<path d="M142.342 128.051C142.026 128.604 139.656 127.996 136.812 127.909C133.968 127.822 131.558 128.185 131.282 127.608C131.155 127.34 131.629 126.818 132.625 126.408C133.975 125.872 135.424 125.632 136.875 125.705C138.339 125.75 139.777 126.105 141.094 126.747C142.026 127.261 142.484 127.79 142.342 128.051Z" fill="#263238"/>
<path d="M83.597 140.936C83.2968 140.778 71.3994 136.338 70.8938 148.765C70.3882 161.191 82.9492 159.145 83.0045 158.79C83.0598 158.434 83.597 140.936 83.597 140.936Z" fill="#FFBE9D"/>
<path d="M79.4031 153.924C79.3478 153.884 79.174 154.066 78.8027 154.216C78.295 154.416 77.7304 154.416 77.2227 154.216C75.9271 153.679 74.908 151.554 74.9396 149.31C74.9527 148.244 75.2038 147.194 75.6743 146.237C75.8072 145.855 76.0314 145.511 76.3274 145.236C76.6235 144.961 76.9823 144.762 77.3728 144.657C77.6229 144.6 77.8851 144.632 78.1134 144.749C78.3418 144.866 78.5215 145.06 78.621 145.297C78.779 145.652 78.6842 145.897 78.7553 145.921C78.8264 145.945 79.0318 145.723 78.9449 145.21C78.89 144.903 78.7309 144.624 78.4946 144.42C78.1625 144.147 77.7377 144.014 77.3096 144.049C76.7899 144.126 76.2989 144.337 75.8839 144.659C75.4689 144.981 75.1437 145.405 74.9396 145.889C74.3715 146.944 74.0653 148.12 74.0469 149.318C74.0469 151.83 75.2161 154.224 76.9857 154.848C77.3164 154.956 77.6669 154.991 78.0123 154.948C78.3578 154.906 78.6896 154.788 78.9844 154.603C79.3636 154.224 79.4426 153.947 79.4031 153.924Z" fill="#EB996E"/>
<path d="M119.48 163.569C119.615 163.253 117.182 162.527 115.467 160.236C114.754 159.236 114.175 158.147 113.745 156.997C113.382 156.088 113.105 155.527 112.955 155.567C112.805 155.606 112.852 156.214 113.058 157.202C113.316 158.513 113.855 159.753 114.638 160.836C115.449 161.918 116.542 162.757 117.798 163.261C118.801 163.648 119.441 163.672 119.48 163.569Z" fill="#263238"/>
<path d="M142.486 134.987C142.123 135.351 140.029 133.668 136.956 133.589C133.883 133.51 131.655 134.995 131.332 134.608C131.174 134.434 131.553 133.763 132.54 133.067C133.871 132.175 135.45 131.727 137.051 131.788C138.637 131.828 140.168 132.382 141.412 133.368C142.36 134.134 142.66 134.821 142.486 134.987Z" fill="#263238"/>
<path d="M141.988 141.007C141.945 141.645 141.656 142.242 141.181 142.671C140.707 143.1 140.084 143.328 139.444 143.306C138.816 143.306 138.213 143.056 137.768 142.612C137.324 142.167 137.074 141.564 137.074 140.936C137.117 140.297 137.406 139.701 137.881 139.272C138.356 138.843 138.979 138.615 139.618 138.637C140.247 138.637 140.849 138.887 141.294 139.331C141.738 139.776 141.988 140.378 141.988 141.007Z" fill="#263238"/>
<path d="M158.427 102.352C157.193 100.347 155.278 98.8524 153.033 98.1417C150.788 97.431 148.362 97.5515 146.198 98.4813C146.754 95.605 146.354 92.626 145.059 89.9982C143.764 87.3704 141.645 85.2381 139.026 83.9262C136.407 82.6144 133.43 82.1949 130.551 82.7317C127.671 83.2686 125.045 84.7324 123.075 86.8999C122.918 86.1313 122.598 85.4054 122.136 84.7716C121.674 84.1377 121.08 83.6107 120.397 83.2264C119.026 82.4625 117.506 82.0069 115.941 81.8913C112.233 81.4799 108.482 82.0484 105.062 83.54C101.642 85.0316 98.6731 87.3941 96.4518 90.3917C92.8383 89.9629 89.1747 90.3894 85.7564 91.6368C82.3381 92.8841 79.2609 94.9175 76.7729 97.5728C70.9348 104.043 69.8288 119.029 76.2278 131.977L77.7288 140.091C79.7354 140.091 81.5682 140.233 82.8085 141.339C84.4912 142.848 85.2417 145.692 88.0304 144.617C89.4524 144.064 90.748 141.086 91.1904 139.64C94.3452 129.995 95.3905 119.784 94.2556 109.699C96.2476 107.577 98.6293 105.858 101.271 104.635L101.057 104.833C106.121 103.071 111.849 101.341 116.652 103.719C120.381 105.56 122.577 109.431 125.342 112.512C127.915 115.361 131.038 117.661 134.523 119.271C138.009 120.881 141.784 121.769 145.621 121.881C145.89 126.984 145.463 134.197 145.732 139.261L150.101 131.14C150.44 130.556 150.748 129.955 151.025 129.339L151.12 129.149C151.91 128.509 152.494 127.34 153.822 125.823C155.089 124.333 155.924 122.523 156.235 120.591C156.545 118.659 156.32 116.679 155.583 114.866C157.482 113.47 158.815 111.437 159.337 109.139C159.859 106.841 159.536 104.432 158.427 102.352Z" fill="#263238"/>
<path d="M150.993 102.542C150.993 102.542 151.04 102.629 151.087 102.811C151.152 103.069 151.189 103.334 151.198 103.601C151.238 104.618 150.989 105.626 150.479 106.508C150.118 107.116 149.646 107.652 149.089 108.088C148.426 108.595 147.646 108.926 146.821 109.052C145.863 109.203 144.881 109.102 143.973 108.76C143.064 108.418 142.26 107.846 141.639 107.1L141.947 106.84C142.247 107.167 142.478 107.551 142.629 107.969C142.779 108.386 142.846 108.829 142.824 109.273C142.815 109.866 142.687 110.451 142.448 110.993C142.209 111.536 141.864 112.025 141.434 112.433C140.616 113.159 139.585 113.6 138.495 113.689C136.683 113.821 134.88 113.324 133.391 112.283C132.399 111.609 131.483 110.83 130.658 109.96C130.342 109.658 130.051 109.331 129.789 108.98C130.137 109.245 130.464 109.536 130.769 109.849C131.628 110.661 132.558 111.394 133.549 112.038C134.994 113.004 136.723 113.452 138.455 113.31C139.46 113.218 140.409 112.809 141.165 112.14C141.938 111.393 142.386 110.371 142.413 109.296C142.442 108.504 142.159 107.732 141.623 107.148L141.931 106.879C142.507 107.572 143.251 108.106 144.092 108.43C144.933 108.753 145.843 108.856 146.735 108.728C147.455 108.619 148.141 108.349 148.743 107.939C149.345 107.529 149.846 106.988 150.211 106.358C150.714 105.52 150.987 104.563 151.001 103.585C151.064 102.921 150.961 102.55 150.993 102.542Z" fill="#455A64"/>
<path d="M135.447 88.9224C135.447 88.9224 135.541 88.9224 135.715 89.0409C135.955 89.1799 136.185 89.3357 136.403 89.507C137.228 90.1434 137.875 90.9813 138.283 91.9402C138.584 92.6646 138.703 93.452 138.628 94.2331C138.554 95.0141 138.289 95.765 137.856 96.4195C137.333 97.2194 136.52 97.7857 135.589 97.9995C135.093 98.1069 134.58 98.1126 134.082 98.0162C133.583 97.9198 133.11 97.7233 132.69 97.4386C132.43 97.2422 132.199 97.0109 132.002 96.7513L132.358 96.5459C132.537 96.993 132.621 97.4726 132.605 97.9541C132.589 98.4356 132.472 98.9085 132.263 99.3425C131.899 100.151 131.261 100.806 130.462 101.191C129.798 101.499 129.076 101.659 128.345 101.659C127.613 101.659 126.891 101.499 126.227 101.191C125.354 100.788 124.575 100.203 123.944 99.4768C123.698 99.2258 123.493 98.9379 123.336 98.6236C123.336 98.6236 123.589 98.9001 124.055 99.3662C124.707 100.035 125.482 100.571 126.338 100.946C126.964 101.215 127.64 101.347 128.321 101.335C129.002 101.323 129.672 101.166 130.288 100.875C130.991 100.51 131.548 99.9165 131.868 99.1924C132.049 98.8087 132.149 98.3921 132.163 97.9681C132.176 97.5442 132.103 97.122 131.947 96.7276L131.283 95.2029L132.302 96.5301C132.469 96.7536 132.669 96.9507 132.895 97.1147C133.268 97.3688 133.688 97.5447 134.131 97.6316C134.573 97.7185 135.029 97.7146 135.47 97.6203C136.299 97.4404 137.026 96.948 137.501 96.2457C137.909 95.6424 138.164 94.9491 138.245 94.2253C138.326 93.5016 138.231 92.769 137.967 92.0903C137.599 91.1599 137.014 90.3311 136.26 89.6729C135.771 89.1515 135.423 88.954 135.447 88.9224Z" fill="#455A64"/>
<path d="M240.952 179.535L212.235 201.45C211.833 201.759 211.499 202.147 211.252 202.59C211.005 203.033 210.851 203.522 210.8 204.026C210.749 204.531 210.802 205.04 210.955 205.524C211.108 206.007 211.358 206.455 211.69 206.838C212.312 207.556 213.186 208.008 214.131 208.101C215.076 208.193 216.021 207.919 216.77 207.335L245.21 185.215L249.057 177.624L240.952 179.535Z" fill="#FF993C"/>
<path opacity="0.5" d="M245.375 178.485L247.405 180.855L245.209 185.215C244.945 185.243 244.678 185.211 244.428 185.12C244.179 185.029 243.953 184.882 243.769 184.691C243.584 184.5 243.446 184.269 243.364 184.016C243.283 183.764 243.26 183.495 243.297 183.233C243.038 183.268 242.773 183.239 242.527 183.147C242.282 183.056 242.063 182.904 241.891 182.707C241.718 182.509 241.598 182.272 241.54 182.016C241.482 181.76 241.489 181.494 241.559 181.242C241.559 181.242 240.066 181.107 240.912 179.535L245.375 178.485Z" fill="white"/>
<path d="M212.234 201.426L216.943 207.177L218.523 205.953L214.012 200.075L212.234 201.426Z" fill="#263238"/>
<path d="M210.14 256.323L209.105 256.134L230.23 219.209L226.88 208.56C226.88 208.56 223.009 193.4 226.233 189.529C226.233 189.529 233.287 181.218 235.578 181.336C237.869 181.455 239.694 181.905 240.152 183.627C240.152 183.627 244.047 183.169 245.074 184.417C245.761 185.281 246.374 186.201 246.907 187.167C246.907 187.167 251.141 186.819 252.287 190.485C252.287 190.485 256.292 192.547 256.64 195.517C256.987 198.487 255.85 212.344 254.578 215.891C253.306 219.438 248.621 226.88 247.255 237.869C245.888 248.858 241.037 255.991 236.732 272.044L225.048 276.666L210.14 256.323Z" fill="#FFBE9D"/>
<path d="M239.954 183.391C240.041 183.509 238.587 184.473 237.489 186.25C236.391 188.028 236.131 189.734 235.98 189.711C235.995 188.396 236.371 187.111 237.068 185.996C237.765 184.881 238.755 183.98 239.93 183.391H239.954Z" fill="#EB996E"/>
<path d="M246.676 187.167C246.755 187.293 245.365 188.131 244.267 189.726C243.169 191.322 242.821 192.886 242.687 192.886C242.552 192.886 242.687 191.156 243.879 189.474C244.526 188.412 245.511 187.6 246.676 187.167Z" fill="#EB996E"/>
<path d="M252.067 190.39C252.154 190.5 251.103 191.425 250.139 192.815C249.175 194.206 248.654 195.509 248.52 195.462C248.64 194.393 249.065 193.381 249.744 192.547C250.291 191.616 251.099 190.867 252.067 190.39Z" fill="#EB996E"/>
<path d="M232.261 191.591C231.495 191.341 230.696 191.205 229.891 191.188C229.1 191.311 228.333 191.553 227.615 191.907C227.576 191.907 227.726 191.607 228.113 191.322C228.628 190.965 229.229 190.755 229.854 190.713C230.479 190.672 231.103 190.8 231.66 191.085C232.071 191.314 232.261 191.543 232.261 191.591Z" fill="#EB996E"/>
<path d="M240.648 196.86C240.17 196.085 239.582 195.382 238.903 194.774C237.71 193.842 236.414 193.787 236.43 193.645C236.446 193.503 236.754 193.51 237.283 193.574C237.978 193.68 238.635 193.96 239.194 194.386C239.753 194.813 240.196 195.373 240.483 196.015C240.688 196.512 240.704 196.844 240.648 196.86Z" fill="#EB996E"/>
<path d="M249.018 198.645C248.915 198.748 247.991 197.705 246.419 197.295C245.456 197.109 244.472 197.061 243.496 197.152C243.496 197.097 243.773 196.907 244.333 196.773C245.066 196.619 245.824 196.64 246.546 196.835C247.268 197.03 247.934 197.393 248.489 197.895C248.9 198.29 249.058 198.614 249.018 198.645Z" fill="#EB996E"/>
<path d="M35.8743 238.927C35.8743 238.927 22.9104 312.461 23.5503 319.342C24.1902 326.222 27.6188 337.156 35.4003 339.028C40.3426 340.133 45.4679 340.133 50.4103 339.028L41.0804 248.708L35.8743 238.927Z" fill="#46B2C8"/>
<path d="M73.7851 200.992C73.7851 200.992 58.2853 212.052 54.8251 215.251C40.4945 228.8 37.5004 234.345 35.8651 238.951C34.2298 243.557 45.8191 349.97 45.8191 349.97L48.1891 368.574L156.948 368.851V273.822L140.619 206.932L130.562 204.073L128.532 196.102C128.532 196.102 116.042 186.874 95.439 186.622C89.119 186.535 80.1288 189.031 75.1202 192.942L73.7851 200.992Z" fill="#46B2C8"/>
<path d="M128.423 207.209C128.423 207.209 139.602 206.711 140.589 206.932C144.034 207.722 153.49 216.412 164.289 227.093C174.559 237.284 194.799 258.496 194.799 258.496C194.799 258.496 198.433 254.83 202.581 259.728L218.547 236.502C218.547 236.502 242.531 239.441 246.26 257.54C246.26 257.54 238.913 271.57 232.893 281.595C232.893 281.595 210.623 318.559 193.03 311.86C176.961 305.73 156.808 289.393 153.972 285.901L130.272 269.018C130.272 269.018 114.061 238.114 121.226 222.661L128.423 207.209Z" fill="#46B2C8"/>
<path d="M130.53 204.073C130.337 204.055 130.146 204.016 129.962 203.954L128.382 203.528C126.983 203.172 124.945 202.682 122.401 202.2C115.766 200.974 109.062 200.148 102.327 199.728C95.5964 199.25 88.8392 199.271 82.1113 199.791C79.528 200.012 77.4582 200.336 76.0362 200.581L74.4009 200.905C74.2135 200.959 74.0193 200.986 73.8242 200.984C74.0019 200.907 74.1872 200.848 74.3772 200.81L75.9967 200.399C78.0047 199.966 80.0356 199.647 82.0797 199.443C88.8228 198.825 95.6052 198.759 102.359 199.246C109.107 199.662 115.82 200.539 122.449 201.869C124.993 202.398 127.023 202.935 128.421 203.354L130.001 203.867C130.185 203.915 130.362 203.984 130.53 204.073Z" fill="#263238"/>
<path d="M88.1728 198.543C88.0385 198.543 87.683 196.742 87.3828 194.474C87.0826 192.207 86.9167 190.366 87.051 190.343C87.4654 191.665 87.7304 193.03 87.841 194.411C88.157 196.71 88.3071 198.527 88.1728 198.543Z" fill="#263238"/>
<path d="M92.2329 198.195C91.153 195.586 90.9533 192.696 91.6641 189.963C91.8063 189.963 91.593 191.828 91.751 194.095C91.909 196.362 92.3672 198.156 92.2329 198.195Z" fill="#263238"/>
<g opacity="0.3">
<path d="M74.1406 200.905C91.1572 203.915 108.411 200.905 126.423 203.061C109.043 199.459 90.9202 197.753 74.1406 200.905Z" fill="black"/>
</g>
<g opacity="0.3">
<path d="M44.2423 339.171C34.6675 316.742 35.8051 291.399 37.1323 267.059L44.2423 339.171Z" fill="black"/>
</g>
<path d="M35.8728 254.957C35.8987 255.049 35.9146 255.145 35.9202 255.241C35.9202 255.454 35.9834 255.731 36.0229 256.07C36.1019 256.86 36.2204 257.911 36.3626 259.286C36.6391 262.106 37.042 266.135 37.5318 271.136C38.5035 281.106 39.8307 294.891 41.4186 310.099C43.0065 325.306 44.5786 339.06 45.8584 348.998C46.4825 353.967 47.0197 357.988 47.4384 360.761C47.6201 362.128 47.7623 363.202 47.8571 363.961C47.9045 364.308 47.9361 364.585 47.9598 364.798C47.9683 364.893 47.9683 364.988 47.9598 365.083C47.9277 364.993 47.9065 364.9 47.8966 364.806L47.7465 363.977C47.628 363.187 47.4542 362.152 47.2409 360.817C46.8064 358.044 46.2139 354.03 45.5424 349.069C44.1915 339.139 42.5483 325.369 40.9604 310.17C39.3725 294.97 38.1006 281.169 37.2158 271.191C36.7892 266.222 36.4258 262.185 36.1967 259.341C36.094 257.966 36.0071 256.892 35.9518 256.126C35.9518 255.778 35.9518 255.502 35.8965 255.28C35.8753 255.174 35.8673 255.065 35.8728 254.957Z" fill="#263238"/>
<path d="M109.502 242.925C109.272 242.96 109.039 242.974 108.806 242.964H106.792C105.054 242.964 102.526 242.964 99.4134 243.051C93.1803 243.194 84.5772 243.652 75.1367 244.766C65.6962 245.88 57.2195 247.491 51.1286 248.85C48.0792 249.506 45.5986 250.074 43.9317 250.493L41.9725 250.951C41.7473 251.013 41.5174 251.055 41.2852 251.078C41.4992 250.984 41.7213 250.91 41.9488 250.857L43.8843 250.311C45.567 249.837 48.016 249.221 51.0575 248.518C66.9206 244.872 83.1297 242.941 99.4055 242.759C102.565 242.759 105.054 242.759 106.8 242.822L108.806 242.901C109.038 242.89 109.271 242.898 109.502 242.925Z" fill="#263238"/>
<path d="M67.7431 266.736C67.6088 266.736 67.8616 256.552 68.2961 243.999C68.7306 231.446 69.2046 221.263 69.3389 221.271C69.4732 221.279 69.2204 231.454 68.778 244.015C68.3356 256.576 67.8695 266.743 67.7431 266.736Z" fill="#263238"/>
<path d="M123.321 265.479C123.173 265.275 123.039 265.061 122.918 264.839C122.639 264.371 122.276 263.747 121.828 262.967L117.815 256.07C115.784 252.674 114.098 249.082 112.782 245.35C112.053 243.121 111.55 240.823 111.281 238.493C111.052 235.986 111.052 233.463 111.281 230.956C111.615 226.098 112.83 221.341 114.868 216.918C115.804 215.003 116.998 213.225 118.415 211.633C119.662 210.261 121.092 209.067 122.665 208.086C124.931 206.629 127.524 205.76 130.21 205.558C131.187 205.476 132.171 205.532 133.133 205.724C132.164 205.672 131.194 205.672 130.226 205.724C127.59 205.989 125.059 206.889 122.847 208.347C121.313 209.33 119.921 210.518 118.707 211.878C117.331 213.453 116.175 215.206 115.271 217.092C113.276 221.473 112.085 226.177 111.755 230.98C111.534 233.453 111.534 235.941 111.755 238.414C112.017 240.713 112.504 242.981 113.209 245.184C114.5 248.898 116.143 252.48 118.115 255.881L121.994 262.849L123.013 264.768C123.137 264.996 123.24 265.234 123.321 265.479Z" fill="#263238"/>
<g opacity="0.3">
<path d="M43.0473 250.991C49.9202 250.635 56.7541 249.734 63.4846 248.297C62.6541 251.27 62.2681 254.351 62.3391 257.437C64.4733 255.033 66.0273 252.171 66.8816 249.071C67.1262 250.757 67.7092 252.377 68.5957 253.832C69.4823 255.288 70.6539 256.549 72.0403 257.54C72.7174 254.483 72.8723 251.334 72.4985 248.226C82.6684 247.004 92.7699 245.332 102.803 243.209C82.4957 242.717 62.2279 245.238 42.6602 250.691" fill="black"/>
</g>
<path d="M173.8 301.677C173.633 301.605 173.477 301.512 173.334 301.401L172.03 300.532C170.908 299.742 169.297 298.659 167.29 297.261C163.34 294.48 157.881 290.57 151.948 286.146C146.016 281.722 140.715 277.614 136.938 274.604C135.042 273.103 133.51 271.87 132.459 271.009L131.258 270.014C131.111 269.905 130.976 269.78 130.855 269.643C131.017 269.732 131.17 269.835 131.314 269.951L132.562 270.883L137.12 274.375C140.967 277.329 146.292 281.39 152.225 285.814C158.158 290.238 163.53 294.18 167.48 297.04L172.125 300.421L173.381 301.345C173.529 301.444 173.67 301.555 173.8 301.677Z" fill="#263238"/>
<path d="M200.337 277.44C200.266 277.44 200.337 276.239 200.171 274.335C199.813 269.344 198.31 264.503 195.779 260.186C194.807 258.535 194.096 257.579 194.151 257.532C194.365 257.717 194.554 257.93 194.712 258.164C195.182 258.765 195.619 259.39 196.024 260.036C198.732 264.325 200.263 269.251 200.464 274.319C200.506 275.08 200.506 275.842 200.464 276.603C200.459 276.886 200.416 277.168 200.337 277.44Z" fill="#263238"/>
<path d="M205.236 275.647C205.259 274.833 205.325 274.02 205.434 273.213C205.581 271.266 205.544 269.308 205.323 267.367C205.099 265.426 204.689 263.511 204.099 261.648C203.648 260.21 203.309 259.349 203.356 259.317C203.492 259.492 203.602 259.687 203.68 259.894C203.941 260.434 204.173 260.988 204.375 261.553C205.733 265.291 206.193 269.296 205.718 273.245C205.623 273.996 205.521 274.604 205.426 275.015C205.392 275.233 205.329 275.446 205.236 275.647Z" fill="#263238"/>
<path d="M242.334 265.479C242.334 265.479 242.334 265.329 242.153 265.179C242.017 265.093 241.905 264.973 241.829 264.832C241.742 264.666 241.679 264.468 241.568 264.279C241.355 263.876 240.826 263.575 240.446 262.991C240.036 262.343 239.717 261.641 239.498 260.905C238.959 259.028 238.033 257.285 236.781 255.786C236.029 254.915 235.213 254.101 234.34 253.353C233.412 252.533 232.427 251.781 231.393 251.101C230.391 250.371 229.335 249.719 228.233 249.15L225.073 247.617C224.078 247.143 223.145 246.654 222.237 246.267L219.709 245.184C219.333 245.041 218.966 244.874 218.611 244.687C218.271 244.489 217.995 244.268 217.71 244.11L216.92 243.675C216.667 243.541 216.454 243.359 216.264 243.241C215.877 242.996 215.538 242.862 215.316 242.743C215.095 242.625 214.985 242.561 214.993 242.546C215.116 242.573 215.235 242.616 215.348 242.672C215.693 242.792 216.028 242.937 216.351 243.107C216.831 243.408 217.332 243.672 217.852 243.897C218.16 244.047 218.453 244.268 218.769 244.442C219.085 244.615 219.48 244.742 219.859 244.908L222.403 245.935C223.311 246.306 224.259 246.796 225.27 247.262L228.43 248.771C229.547 249.344 230.617 250.005 231.63 250.746C232.683 251.432 233.681 252.198 234.616 253.037C235.502 253.8 236.326 254.632 237.081 255.525C238.349 257.068 239.271 258.865 239.783 260.795C239.981 261.513 240.27 262.204 240.644 262.849C240.976 263.402 241.489 263.726 241.71 264.184C241.829 264.405 241.876 264.61 241.947 264.76C242.011 264.894 242.103 265.013 242.216 265.108C242.413 265.313 242.342 265.495 242.334 265.479Z" fill="#263238"/>
<path d="M140.983 367.018C140.872 367.018 140.777 347.031 140.777 322.375C140.777 297.719 140.872 277.732 140.983 277.732C141.093 277.732 141.188 297.719 141.188 322.375C141.188 347.031 141.101 367.018 140.983 367.018Z" fill="#263238"/>
</svg>
