<svg width="510" height="340" viewBox="0 0 510 340" fill="none" xmlns="http://www.w3.org/2000/svg">
<path d="M496.081 291.04C496.081 291.135 388.097 291.217 254.926 291.217C121.754 291.217 13.75 291.135 13.75 291.04C13.75 290.945 121.707 290.863 254.926 290.863C388.144 290.863 496.081 290.938 496.081 291.04Z" fill="#263238"/>
<path d="M385.179 81.709H148.431C146.473 81.7072 144.595 82.4826 143.209 83.8647C141.823 85.2469 141.043 87.1228 141.039 89.0802V256.319C141.038 257.29 141.229 258.252 141.6 259.149C141.971 260.046 142.515 260.861 143.202 261.548C143.889 262.235 144.704 262.779 145.601 263.15C146.498 263.521 147.46 263.712 148.431 263.711H239.292C239.292 263.711 245.072 281.588 227.154 290.836H312.12C312.12 290.836 291.89 283.9 297.092 263.711H385.179C387.133 263.711 389.007 262.938 390.392 261.56C391.777 260.183 392.56 258.313 392.571 256.36V89.0802C392.566 87.1233 391.785 85.2485 390.399 83.8667C389.013 82.4849 387.136 81.709 385.179 81.709Z" fill="#455A64"/>
<path d="M269.959 246.16C273.176 250.764 268.137 255.803 263.533 252.586C263.379 252.477 263.245 252.341 263.139 252.185C259.929 247.588 264.961 242.549 269.565 245.766C269.718 245.874 269.851 246.008 269.959 246.16Z" fill="#263238"/>
<path d="M151.709 84.7686H381.903C382.769 84.7686 383.627 84.9392 384.427 85.2706C385.227 85.6021 385.954 86.088 386.567 86.7005C387.179 87.313 387.665 88.0401 387.997 88.8404C388.328 89.6406 388.499 90.4984 388.499 91.3646V233.117H145.113V91.3646C145.113 90.4984 145.284 89.6406 145.615 88.8404C145.947 88.0401 146.433 87.313 147.045 86.7005C147.658 86.088 148.385 85.6021 149.185 85.2706C149.985 84.9392 150.843 84.7686 151.709 84.7686Z" fill="white"/>
<path d="M151.342 84.7686H383.385C384.741 84.7686 386.042 85.3073 387.001 86.2663C387.96 87.2253 388.499 88.5259 388.499 89.8822V97.097H145.113V90.977C145.117 89.328 145.775 87.7478 146.943 86.5837C148.111 85.4196 149.693 84.7668 151.342 84.7686Z" fill="#EBEBEB"/>
<path d="M152.863 92.9019C153.806 92.9019 154.57 92.1377 154.57 91.1951C154.57 90.2524 153.806 89.4883 152.863 89.4883C151.92 89.4883 151.156 90.2524 151.156 91.1951C151.156 92.1377 151.92 92.9019 152.863 92.9019Z" fill="#E0E0E0"/>
<path d="M157.965 92.9019C158.907 92.9019 159.671 92.1377 159.671 91.1951C159.671 90.2524 158.907 89.4883 157.965 89.4883C157.022 89.4883 156.258 90.2524 156.258 91.1951C156.258 92.1377 157.022 92.9019 157.965 92.9019Z" fill="#E0E0E0"/>
<path d="M162.804 92.9019C163.747 92.9019 164.511 92.1377 164.511 91.1951C164.511 90.2524 163.747 89.4883 162.804 89.4883C161.862 89.4883 161.098 90.2524 161.098 91.1951C161.098 92.1377 161.862 92.9019 162.804 92.9019Z" fill="#E0E0E0"/>
<path d="M342.858 263.738C342.858 263.813 309.164 263.881 267.616 263.881C226.068 263.881 192.367 263.813 192.367 263.738C192.367 263.664 226.054 263.596 267.616 263.596C309.178 263.596 342.858 263.657 342.858 263.738Z" fill="#263238"/>
<path d="M387.942 117.049H145.195V171.238H387.942V117.049Z" fill="#F5F5F5"/>
<path d="M186.19 102.775H151.156V111.942H186.19V102.775Z" fill="#F5F5F5"/>
<path d="M382.179 102.775H362.996V111.942H382.179V102.775Z" fill="#F5F5F5"/>
<path d="M357.233 102.775H325.844V111.942H357.233V102.775Z" fill="#F5F5F5"/>
<path d="M319.315 102.775H287.926V111.942H319.315V102.775Z" fill="#F5F5F5"/>
<path d="M370.953 186.504H157.012V196.106H370.953V186.504Z" fill="#F5F5F5"/>
<path d="M370.953 204.374H157.012V213.976H370.953V204.374Z" fill="#F5F5F5"/>
<path d="M241.258 149.635L247.153 143.739L257.435 153.109L275.564 135.008L281.038 140.903L256.592 164.486L241.258 149.635Z" fill="#81DD6A"/>
<path d="M249.736 135.803C248.247 134.423 246.929 132.868 245.812 131.172C246.593 131.824 247.295 132.563 247.907 133.375C248.604 134.115 249.217 134.929 249.736 135.803Z" fill="#263238"/>
<path d="M257.645 134.946C257.365 132.76 257.204 130.56 257.162 128.357C257.006 126.159 256.966 123.955 257.04 121.754C257.316 123.94 257.475 126.14 257.516 128.343C257.676 130.54 257.719 132.744 257.645 134.946Z" fill="#263238"/>
<path d="M269.865 130.907C268.691 132.769 267.323 134.501 265.785 136.075C266.318 135.102 266.957 134.189 267.689 133.355C268.328 132.466 269.057 131.645 269.865 130.907Z" fill="#263238"/>
<path d="M432.595 132.076H331.772C329.041 132.076 326.828 134.289 326.828 137.02V286.008C326.828 288.738 329.041 290.951 331.772 290.951H432.595C435.326 290.951 437.539 288.738 437.539 286.008V137.02C437.539 134.289 435.326 132.076 432.595 132.076Z" fill="#E0E0E0"/>
<path d="M432.594 290.951H432.941C433.28 290.929 433.615 290.867 433.94 290.768C434.582 290.582 435.18 290.267 435.697 289.842C436.213 289.418 436.638 288.893 436.946 288.299C437.157 287.885 437.311 287.443 437.401 286.987C437.483 286.477 437.513 285.96 437.49 285.443C437.49 284.349 437.49 283.159 437.49 281.867C437.49 279.283 437.49 276.297 437.49 272.945C437.49 259.515 437.456 240.087 437.429 216.077C437.429 204.075 437.429 190.917 437.429 176.813C437.429 169.755 437.429 162.463 437.429 154.938C437.429 151.175 437.429 147.36 437.429 143.493V137.632C437.449 137.15 437.423 136.667 437.354 136.19C437.274 135.716 437.121 135.257 436.898 134.83C436.461 133.967 435.774 133.256 434.926 132.79C434.499 132.564 434.041 132.401 433.566 132.307C433.083 132.227 432.593 132.195 432.104 132.212H331.784C330.671 132.218 329.594 132.604 328.731 133.307C327.879 134.019 327.3 135.004 327.092 136.095C327.007 136.646 326.977 137.204 327.003 137.761V182.689C327.003 199.961 327.003 216.627 327.003 232.499C327.003 248.37 327.003 263.459 327.003 277.576C327.003 279.337 327.003 281.085 327.003 282.819V285.409C326.948 286.246 327.08 287.085 327.391 287.864C327.718 288.62 328.234 289.279 328.889 289.779C329.544 290.279 330.316 290.603 331.131 290.72C331.539 290.769 331.951 290.787 332.362 290.775H336.075H354.917L411.779 290.829L427.235 290.863L411.779 290.897L354.917 290.951H336.075H332.362C331.939 290.967 331.516 290.949 331.097 290.897C330.234 290.776 329.416 290.436 328.722 289.908C328.027 289.381 327.48 288.684 327.133 287.885C326.807 287.069 326.665 286.191 326.718 285.314V277.617C326.718 263.5 326.718 248.411 326.718 232.539C326.718 216.668 326.718 200.001 326.718 182.729C326.718 174.093 326.718 165.31 326.718 156.379V137.802C326.689 137.222 326.721 136.641 326.813 136.068C327.034 134.894 327.659 133.834 328.579 133.073C329.499 132.311 330.657 131.896 331.852 131.899H432.063C432.573 131.884 433.083 131.916 433.587 131.995C434.089 132.102 434.574 132.279 435.028 132.518C435.93 133.013 436.664 133.766 437.136 134.681C437.368 135.134 437.529 135.62 437.612 136.122C437.686 136.617 437.714 137.118 437.694 137.618V154.897C437.694 162.413 437.694 169.705 437.694 176.773C437.694 190.883 437.694 204.034 437.694 216.036C437.694 240.047 437.653 259.474 437.639 272.904C437.639 276.257 437.639 279.242 437.639 281.826C437.639 283.118 437.639 284.308 437.639 285.403C437.658 285.924 437.624 286.445 437.537 286.96C437.36 287.858 436.937 288.688 436.315 289.36C435.693 290.031 434.897 290.516 434.015 290.761C433.684 290.854 433.345 290.911 433.002 290.931L432.594 290.951Z" fill="#263238"/>
<path d="M432.592 290.952H432.939C433.055 290.952 433.191 290.952 433.361 290.897C433.556 290.869 433.75 290.826 433.939 290.768C434.583 290.585 435.183 290.271 435.701 289.847C436.22 289.422 436.645 288.896 436.951 288.3C437.167 287.886 437.323 287.445 437.414 286.987C437.495 286.475 437.526 285.956 437.509 285.437C437.509 284.349 437.509 283.152 437.509 281.86C437.509 279.276 437.509 276.302 437.509 272.939C437.509 259.509 437.509 240.081 437.509 216.07C437.509 204.068 437.509 190.91 437.509 176.807C437.509 169.749 437.509 162.457 437.509 154.931V137.632C437.527 137.148 437.499 136.663 437.427 136.184C437.348 135.709 437.194 135.25 436.972 134.824C436.522 133.963 435.829 133.254 434.979 132.784C434.55 132.561 434.092 132.396 433.619 132.294C433.134 132.214 432.642 132.182 432.15 132.199H331.782C330.655 132.198 329.562 132.591 328.693 133.31C327.824 134.029 327.233 135.028 327.022 136.136C326.941 136.692 326.912 137.254 326.934 137.816V182.743C326.934 200.015 326.934 216.682 326.934 232.553C326.934 248.425 326.934 263.514 326.934 277.631C326.934 279.394 326.934 281.142 326.934 282.873V285.464C326.923 285.889 326.944 286.314 326.995 286.736C327.055 287.149 327.167 287.554 327.328 287.939C327.659 288.703 328.18 289.37 328.842 289.875C329.504 290.38 330.285 290.706 331.109 290.823C331.52 290.872 331.934 290.89 332.347 290.877H354.902L411.764 290.918L354.902 290.959H332.326C331.906 290.971 331.486 290.953 331.068 290.904C330.214 290.783 329.405 290.445 328.718 289.923C328.031 289.4 327.489 288.71 327.145 287.919C326.975 287.519 326.858 287.098 326.798 286.668C326.74 286.237 326.72 285.803 326.737 285.369V277.617C326.737 263.5 326.737 248.418 326.737 232.54C326.737 216.662 326.737 200.002 326.737 182.73V137.802C326.709 137.227 326.738 136.651 326.825 136.082C327.044 134.923 327.662 133.877 328.571 133.126C329.48 132.374 330.623 131.965 331.803 131.968H432.062C432.567 131.952 433.073 131.984 433.572 132.063C434.069 132.17 434.549 132.344 435 132.58C435.89 133.069 436.614 133.813 437.08 134.715C437.31 135.162 437.47 135.641 437.556 136.136C437.631 136.629 437.658 137.128 437.638 137.625C437.638 139.584 437.638 141.529 437.638 143.46V154.904C437.638 162.42 437.638 169.712 437.638 176.78C437.638 190.89 437.638 204.041 437.638 216.043C437.638 240.054 437.638 259.481 437.638 272.911C437.638 276.271 437.638 279.244 437.638 281.833C437.638 283.125 437.638 284.322 437.638 285.41C437.657 285.931 437.623 286.453 437.536 286.967C437.287 288.208 436.574 289.307 435.544 290.041C435.081 290.366 434.566 290.61 434.02 290.761C433.829 290.82 433.634 290.863 433.436 290.891C433.296 290.915 433.155 290.929 433.014 290.931L432.592 290.952Z" fill="#263238"/>
<path d="M386.43 282.968C386.43 283.808 386.18 284.63 385.713 285.329C385.246 286.028 384.583 286.573 383.806 286.894C383.03 287.216 382.175 287.3 381.351 287.136C380.526 286.972 379.769 286.567 379.175 285.973C378.58 285.379 378.175 284.621 378.011 283.797C377.847 282.972 377.932 282.118 378.253 281.341C378.575 280.565 379.12 279.901 379.819 279.434C380.517 278.967 381.339 278.718 382.18 278.718C383.307 278.718 384.388 279.166 385.185 279.963C385.982 280.76 386.43 281.841 386.43 282.968Z" fill="white"/>
<path d="M396.009 139.713H373.399C373.192 139.713 372.987 139.672 372.796 139.593C372.605 139.513 372.432 139.397 372.286 139.25C372.14 139.104 372.024 138.93 371.946 138.738C371.867 138.547 371.827 138.342 371.828 138.135C371.827 137.928 371.867 137.723 371.946 137.532C372.024 137.341 372.14 137.167 372.286 137.02C372.432 136.874 372.605 136.757 372.796 136.678C372.987 136.598 373.192 136.558 373.399 136.558H396.009C396.216 136.558 396.421 136.598 396.613 136.678C396.804 136.757 396.978 136.873 397.124 137.02C397.271 137.166 397.387 137.34 397.466 137.531C397.546 137.723 397.587 137.928 397.587 138.135C397.587 138.342 397.546 138.548 397.466 138.739C397.387 138.93 397.271 139.104 397.124 139.251C396.978 139.397 396.804 139.513 396.613 139.593C396.421 139.672 396.216 139.713 396.009 139.713Z" fill="#EBEBEB"/>
<path d="M432.294 143.412H331.871C330.959 143.412 330.219 144.152 330.219 145.065V274.441C330.219 275.354 330.959 276.094 331.871 276.094H432.294C433.206 276.094 433.946 275.354 433.946 274.441V145.065C433.946 144.152 433.206 143.412 432.294 143.412Z" fill="white"/>
<path d="M432.295 276.079C432.295 276.079 432.397 276.079 432.594 276.039C432.89 275.978 433.165 275.839 433.389 275.637C433.571 275.47 433.713 275.264 433.805 275.034C433.896 274.805 433.936 274.558 433.92 274.311C433.92 273.72 433.92 273.026 433.92 272.271C433.92 269.137 433.92 264.519 433.886 258.583C433.886 246.683 433.886 229.479 433.831 208.222C433.831 197.587 433.831 185.945 433.831 173.447C433.831 167.191 433.831 160.733 433.831 154.074V145.234C433.859 144.839 433.737 144.449 433.491 144.139C433.241 143.837 432.882 143.647 432.492 143.609C432.091 143.609 431.642 143.609 431.213 143.609H423.346H331.886C331.659 143.607 331.435 143.658 331.231 143.757C331.027 143.856 330.849 144.001 330.709 144.18C330.572 144.36 330.477 144.569 330.431 144.792C330.398 145.031 330.387 145.272 330.397 145.513V189.842C330.397 205.142 330.397 219.898 330.397 233.953C330.397 248.009 330.397 261.371 330.397 273.876V274.461C330.399 274.728 330.471 274.989 330.606 275.219C330.741 275.45 330.934 275.641 331.165 275.773C331.49 275.938 331.857 276.004 332.219 275.964H363.499L413.86 276.018H427.548H431.111H432.322L431.118 276.079H427.555L413.867 276.113L363.506 276.168H346.819H332.192C331.779 276.204 331.364 276.124 330.995 275.937C330.623 275.728 330.338 275.393 330.193 274.991C330.117 274.794 330.078 274.584 330.077 274.373V273.788C330.077 261.283 330.077 247.948 330.077 233.865C330.077 219.782 330.077 205.053 330.077 189.753V166.484C330.077 162.531 330.077 158.553 330.077 154.55V145.519C330.068 145.256 330.081 144.992 330.118 144.731C330.173 144.455 330.291 144.197 330.465 143.976C330.636 143.753 330.856 143.573 331.109 143.449C331.361 143.325 331.639 143.261 331.92 143.262H423.38H431.207C431.649 143.262 432.057 143.262 432.519 143.262C432.756 143.29 432.984 143.364 433.192 143.481C433.4 143.598 433.582 143.754 433.729 143.942C434.023 144.306 434.171 144.767 434.144 145.234V154.074C434.144 160.733 434.144 167.191 434.144 173.447C434.144 185.945 434.144 197.587 434.144 208.222C434.144 229.479 434.097 246.683 434.083 258.583C434.083 264.519 434.083 269.137 434.083 272.271C434.083 273.053 434.083 273.747 434.083 274.311C434.097 274.566 434.054 274.82 433.956 275.056C433.859 275.291 433.709 275.502 433.519 275.671C433.292 275.877 433.011 276.014 432.709 276.066C432.573 276.095 432.433 276.1 432.295 276.079Z" fill="#263238"/>
<path d="M433.524 162.309H330.844V199.899H433.524V162.309Z" fill="#F5F5F5"/>
<path d="M357.432 149.586H333.129V155.944H357.432V149.586Z" fill="#F5F5F5"/>
<path d="M431.492 149.586H409.719V155.944H431.492V149.586Z" fill="#F5F5F5"/>
<path d="M405.578 149.586H383.805V155.944H405.578V149.586Z" fill="#F5F5F5"/>
<path d="M424.888 219.259H337.223V225.923H424.888V219.259Z" fill="#F5F5F5"/>
<path d="M424.888 206.658H337.223V213.322H424.888V206.658Z" fill="#F5F5F5"/>
<path d="M424.888 245.064H337.223V251.728H424.888V245.064Z" fill="#F5F5F5"/>
<path d="M424.888 232.465H337.223V239.129H424.888V232.465Z" fill="#F5F5F5"/>
<path d="M362.289 195.397L368.191 189.502L378.473 198.872L396.595 180.771L402.069 186.666L377.63 210.249L362.289 195.397Z" fill="#FF993C"/>
<path d="M465.985 291.142H423.09C420.617 291.144 418.244 290.164 416.494 288.417C414.743 286.67 413.758 284.299 413.754 281.826V174.611C413.749 173.379 413.989 172.158 414.458 171.019C414.927 169.881 415.617 168.846 416.488 167.975C417.359 167.104 418.394 166.414 419.533 165.944C420.672 165.475 421.893 165.236 423.124 165.24H466.019C467.244 165.239 468.457 165.478 469.589 165.945C470.721 166.413 471.75 167.099 472.617 167.964C473.484 168.829 474.172 169.856 474.642 170.988C475.112 172.119 475.354 173.331 475.355 174.556V281.772C475.36 283.004 475.12 284.224 474.651 285.363C474.182 286.502 473.492 287.537 472.621 288.408C471.75 289.279 470.715 289.969 469.576 290.438C468.437 290.907 467.217 291.147 465.985 291.142Z" fill="#263238"/>
<path d="M466.283 168.491L457.939 168.45C457.665 168.45 457.394 168.505 457.142 168.612C456.89 168.719 456.662 168.875 456.472 169.072C456.282 169.268 456.133 169.501 456.034 169.757C455.936 170.012 455.89 170.285 455.899 170.558V172.075C455.904 172.347 455.854 172.618 455.754 172.871C455.654 173.124 455.505 173.355 455.316 173.551C455.126 173.747 454.9 173.904 454.65 174.012C454.4 174.12 454.131 174.178 453.859 174.183L437.594 174.081C437.319 174.076 437.049 174.018 436.798 173.908C436.546 173.798 436.319 173.64 436.129 173.442C435.94 173.244 435.791 173.011 435.692 172.755C435.593 172.499 435.546 172.226 435.554 171.952V170.436C435.56 170.162 435.512 169.89 435.413 169.634C435.314 169.379 435.165 169.146 434.975 168.948C434.786 168.75 434.559 168.592 434.308 168.482C434.057 168.372 433.787 168.313 433.514 168.307H430.576L423.273 168.273C421.531 168.268 419.858 168.954 418.622 170.18C417.385 171.407 416.686 173.073 416.677 174.815L416.289 280.161C416.286 281.022 416.452 281.876 416.778 282.674C417.105 283.471 417.585 284.197 418.192 284.809C418.799 285.421 419.52 285.907 420.315 286.24C421.11 286.573 421.962 286.746 422.824 286.75L465.8 286.961C467.541 286.968 469.214 286.284 470.45 285.058C471.687 283.833 472.387 282.167 472.396 280.426L472.838 175.107C472.845 174.242 472.681 173.383 472.355 172.581C472.029 171.779 471.547 171.05 470.938 170.435C470.328 169.82 469.603 169.331 468.804 168.998C468.006 168.664 467.148 168.492 466.283 168.491Z" fill="white"/>
<path d="M472.505 187.238H416.609V207.699H472.505V187.238Z" fill="#F5F5F5"/>
<path d="M431.081 180.31H417.855V183.771H431.081V180.31Z" fill="#F5F5F5"/>
<path d="M471.399 180.31H459.547V183.771H471.399V180.31Z" fill="#F5F5F5"/>
<path d="M457.294 180.31H445.441V183.771H457.294V180.31Z" fill="#F5F5F5"/>
<path d="M467.801 218.239H420.078V221.864H467.801V218.239Z" fill="#F5F5F5"/>
<path d="M467.801 211.378H420.078V215.002H467.801V211.378Z" fill="#F5F5F5"/>
<path d="M467.801 232.288H420.078V235.912H467.801V232.288Z" fill="#F5F5F5"/>
<path d="M467.801 238.701H420.078V242.326H467.801V238.701Z" fill="#F5F5F5"/>
<path d="M467.801 246.038H420.078V249.662H467.801V246.038Z" fill="#F5F5F5"/>
<path d="M467.801 253.368H420.078V256.993H467.801V253.368Z" fill="#F5F5F5"/>
<path d="M467.801 260.705H420.078V264.329H467.801V260.705Z" fill="#F5F5F5"/>
<path d="M467.801 225.427H420.078V229.051H467.801V225.427Z" fill="#F5F5F5"/>
<path d="M429.422 231.894L434.032 227.284L442.933 235.192L460.409 218.376L464.693 222.993L442.274 244.094L429.422 231.894Z" fill="#FF993C"/>
<path d="M202.365 165.39H36.431C30.9592 165.39 26.5234 169.825 26.5234 175.297V278.317C26.5234 283.789 30.9592 288.225 36.431 288.225H202.365C207.836 288.225 212.272 283.789 212.272 278.317V175.297C212.272 169.825 207.836 165.39 202.365 165.39Z" fill="#263238"/>
<path d="M19.2695 280.289H220.509V280.765C220.509 283.488 219.427 286.1 217.501 288.026C215.576 289.951 212.964 291.033 210.241 291.033H29.5375C26.8143 291.033 24.2026 289.951 22.277 288.026C20.3513 286.1 19.2695 283.488 19.2695 280.765V280.289Z" fill="#263238"/>
<path d="M206.772 170.272H31.5156V274.006H206.772V170.272Z" fill="#263238"/>
<path d="M101.086 279.14L103.588 283.111H138.724L141.043 279.14H101.086Z" fill="#455A64"/>
<path d="M201.293 173.781H37.3447C36.1166 173.781 35.1211 174.777 35.1211 176.005V271.443C35.1211 272.671 36.1166 273.666 37.3447 273.666H201.293C202.521 273.666 203.516 272.671 203.516 271.443V176.005C203.516 174.777 202.521 173.781 201.293 173.781Z" fill="#EBEBEB"/>
<path d="M203.341 273.815H34.9453L35.1221 181.247H203.341V273.815Z" fill="white"/>
<path d="M48.9583 177.643C48.9583 177.912 48.8785 178.175 48.7291 178.399C48.5796 178.622 48.3672 178.797 48.1187 178.9C47.8702 179.003 47.5968 179.03 47.333 178.977C47.0691 178.925 46.8268 178.795 46.6366 178.605C46.4464 178.415 46.3169 178.172 46.2644 177.909C46.2119 177.645 46.2389 177.371 46.3418 177.123C46.4447 176.874 46.6191 176.662 46.8427 176.512C47.0664 176.363 47.3293 176.283 47.5983 176.283C47.959 176.283 48.3049 176.426 48.5599 176.682C48.815 176.937 48.9583 177.283 48.9583 177.643Z" fill="#263238"/>
<path d="M40.7981 177.643C40.7981 177.912 40.7184 178.175 40.5689 178.399C40.4195 178.622 40.2071 178.797 39.9586 178.9C39.7101 179.003 39.4366 179.03 39.1728 178.977C38.909 178.925 38.6667 178.795 38.4765 178.605C38.2863 178.415 38.1567 178.172 38.1043 177.909C38.0518 177.645 38.0787 177.371 38.1816 177.123C38.2846 176.874 38.4589 176.662 38.6825 176.512C38.9062 176.363 39.1691 176.283 39.4381 176.283C39.7988 176.283 40.1447 176.426 40.3998 176.682C40.6548 176.937 40.7981 177.283 40.7981 177.643Z" fill="#263238"/>
<path d="M44.6966 177.643C44.6966 177.912 44.6168 178.175 44.4674 178.399C44.3179 178.622 44.1055 178.797 43.857 178.9C43.6085 179.003 43.3351 179.03 43.0712 178.977C42.8074 178.925 42.5651 178.795 42.3749 178.605C42.1847 178.415 42.0552 178.172 42.0027 177.909C41.9502 177.645 41.9772 177.371 42.0801 177.123C42.183 176.874 42.3573 176.662 42.581 176.512C42.8046 176.363 43.0676 176.283 43.3366 176.283C43.6973 176.283 44.0432 176.426 44.2982 176.682C44.5533 176.937 44.6966 177.283 44.6966 177.643Z" fill="#263238"/>
<path d="M210.677 279.14C210.677 279.208 169.456 279.262 118.612 279.262C67.7683 279.262 26.5195 279.208 26.5195 279.14C26.5195 279.072 67.7411 279.018 118.605 279.018C169.469 279.018 210.677 279.072 210.677 279.14Z" fill="#455A64"/>
<path d="M203.516 196.173H35.1211V233.763H203.516V196.173Z" fill="#F5F5F5"/>
<path d="M63.5571 186.272H39.2539V192.63H63.5571V186.272Z" fill="#F5F5F5"/>
<path d="M199.522 186.272H186.215V192.63H199.522V186.272Z" fill="#F5F5F5"/>
<path d="M182.219 186.272H160.445V192.63H182.219V186.272Z" fill="#F5F5F5"/>
<path d="M155.914 186.272H134.141V192.63H155.914V186.272Z" fill="#F5F5F5"/>
<path d="M191.764 255.945H43.3477V262.609H191.764V255.945Z" fill="#F5F5F5"/>
<path d="M191.764 243.338H43.3477V250.002H191.764V243.338Z" fill="#F5F5F5"/>
<path d="M97.9727 221.184L103.875 215.289L115.245 225.393L137.569 203.912L143.043 209.808L114.401 236.77L97.9727 221.184Z" fill="#81DD6A"/>
<path d="M166.926 141.671C193.106 141.671 214.329 120.448 214.329 94.268C214.329 68.0882 193.106 46.8652 166.926 46.8652C140.746 46.8652 119.523 68.0882 119.523 94.268C119.523 120.448 140.746 141.671 166.926 141.671Z" fill="#FF5454"/>
<path opacity="0.3" d="M166.926 141.671C193.106 141.671 214.329 120.448 214.329 94.268C214.329 68.0882 193.106 46.8652 166.926 46.8652C140.746 46.8652 119.523 68.0882 119.523 94.268C119.523 120.448 140.746 141.671 166.926 141.671Z" fill="black"/>
<path d="M165.649 138.638C191.829 138.638 213.052 117.415 213.052 91.2348C213.052 65.055 191.829 43.832 165.649 43.832C139.469 43.832 118.246 65.055 118.246 91.2348C118.246 117.415 139.469 138.638 165.649 138.638Z" fill="#FF5454"/>
<path d="M180.008 125.212C198.766 117.281 207.543 95.6442 199.612 76.8859C191.68 58.1275 170.044 49.3507 151.285 57.2822C132.527 65.2138 123.75 86.8502 131.682 105.609C139.613 124.367 161.25 133.144 180.008 125.212Z" fill="white"/>
<path d="M183.991 109.585C194.125 99.4513 194.125 83.0214 183.991 72.8877C173.857 62.7541 157.428 62.7541 147.294 72.8878C137.16 83.0214 137.16 99.4513 147.294 109.585C157.428 119.719 173.857 119.719 183.991 109.585Z" fill="#FF5454"/>
<path d="M171.09 103.798C178.026 100.791 181.211 92.7306 178.203 85.7946C175.196 78.8586 167.135 75.6736 160.199 78.6809C153.263 81.6881 150.078 89.7487 153.086 96.6848C156.093 103.621 164.154 106.806 171.09 103.798Z" fill="white"/>
<path d="M202.327 52.8424L201.035 42.7308L211.33 31.708L212.072 42.6288L202.327 52.8424Z" fill="#455A64"/>
<path d="M224.418 44.7982L213.973 43.9482L203.508 54.019L213.98 55.1342L224.418 44.7982Z" fill="#455A64"/>
<path opacity="0.3" d="M165.648 92.0312L204.565 64.1512C203.075 61.9905 201.425 59.9448 199.628 58.0312L166.308 90.2633L165.648 92.0312Z" fill="black"/>
<path d="M213.613 40.5141L208.758 45.4645L197 57.3509L182.877 71.6309C178.797 75.7789 174.705 79.9247 170.603 84.0681C168.617 86.1081 166.523 88.0393 164.626 90.1201L164.537 90.2085C163.388 91.3781 165.217 93.1801 166.346 92.0105L171.228 87.0601L182.958 75.1805L197.082 60.9005C201.162 56.7525 205.253 52.6068 209.356 48.4633C211.342 46.4233 213.436 44.4921 215.333 42.4045L215.415 42.3229C216.571 41.1533 214.735 39.3445 213.613 40.5141Z" fill="#263238"/>
<path d="M297.75 164.05C296.942 164.096 296.145 163.843 295.513 163.338C294.881 162.833 294.457 162.113 294.323 161.315C294.189 160.517 294.354 159.698 294.787 159.014C295.22 158.33 295.89 157.831 296.668 157.61C296.181 157.077 295.877 156.401 295.8 155.683C295.723 154.964 295.876 154.24 296.239 153.615C296.601 152.99 297.153 152.496 297.815 152.206C298.476 151.915 299.213 151.844 299.919 152C299.98 151.296 300.224 150.619 300.626 150.037C301.028 149.456 301.574 148.988 302.211 148.681C302.848 148.374 303.554 148.237 304.26 148.285C304.965 148.333 305.646 148.564 306.236 148.954C307.059 148.344 308.064 148.027 309.088 148.055C310.113 148.084 311.099 148.455 311.887 149.11C312.58 149.014 313.286 149.144 313.9 149.48C314.515 149.816 315.005 150.34 315.298 150.976C315.592 151.611 315.673 152.324 315.53 153.01C315.387 153.695 315.028 154.316 314.505 154.782" fill="#263238"/>
<path d="M297.257 164.492C297.694 161.015 299.426 157.832 302.107 155.576C304.788 153.32 308.22 152.157 311.72 152.32L312.441 152.354C320.186 153.17 323.824 160.201 322.791 167.926L320.458 193.766L319.846 199.852L302.241 197.771L302.574 191.182C302.574 191.182 295.162 189.672 295.421 182.199C295.543 178.595 296.4 171.183 297.257 164.492Z" fill="#99655C"/>
<path d="M302.511 191.169C305.979 191.333 309.42 190.497 312.426 188.762C312.426 188.762 309.876 194.025 302.457 193.005L302.511 191.169Z" fill="#744A45"/>
<path d="M298.9 171.36C298.885 171.637 298.978 171.909 299.159 172.118C299.341 172.328 299.596 172.458 299.872 172.482C300.008 172.499 300.145 172.489 300.277 172.453C300.409 172.416 300.531 172.353 300.638 172.268C300.745 172.183 300.834 172.078 300.9 171.958C300.966 171.839 301.007 171.707 301.022 171.571C301.037 171.294 300.943 171.021 300.76 170.811C300.577 170.602 300.32 170.472 300.042 170.449C299.907 170.431 299.77 170.441 299.638 170.477C299.507 170.514 299.384 170.576 299.277 170.662C299.17 170.747 299.082 170.852 299.017 170.973C298.952 171.093 298.913 171.225 298.9 171.36Z" fill="#263238"/>
<path d="M298.69 168.219C298.82 168.362 299.649 167.804 300.798 167.858C301.948 167.913 302.764 168.538 302.893 168.396C303.022 168.253 302.832 168.076 302.478 167.797C301.998 167.428 301.416 167.217 300.812 167.192C300.215 167.162 299.624 167.324 299.126 167.654C298.758 167.906 298.629 168.151 298.69 168.219Z" fill="#263238"/>
<path d="M309.345 171.898C309.332 172.175 309.426 172.447 309.609 172.656C309.791 172.865 310.048 172.995 310.324 173.02C310.46 173.037 310.597 173.027 310.729 172.99C310.86 172.953 310.983 172.89 311.09 172.806C311.197 172.721 311.286 172.615 311.352 172.496C311.418 172.376 311.459 172.244 311.473 172.109C311.487 171.831 311.392 171.56 311.21 171.35C311.027 171.141 310.771 171.011 310.494 170.987C310.359 170.969 310.221 170.98 310.09 171.016C309.958 171.053 309.835 171.116 309.728 171.201C309.621 171.286 309.532 171.391 309.466 171.511C309.401 171.63 309.359 171.762 309.345 171.898Z" fill="#263238"/>
<path d="M309.956 168.96C310.085 169.103 310.922 168.545 312.064 168.6C313.206 168.654 314.029 169.28 314.158 169.137C314.288 168.994 314.097 168.817 313.744 168.532C313.262 168.168 312.681 167.959 312.078 167.933C311.48 167.903 310.889 168.065 310.391 168.396C310.024 168.64 309.895 168.892 309.956 168.96Z" fill="#263238"/>
<path d="M305.394 177.269C304.799 177.054 304.18 176.913 303.551 176.847C303.259 176.806 302.98 176.732 302.939 176.534C302.932 176.229 303.014 175.929 303.177 175.671C303.49 174.991 303.809 174.25 304.149 173.481C305.509 170.36 306.495 167.79 306.366 167.735C306.237 167.681 305.006 170.17 303.694 173.291L302.755 175.494C302.557 175.84 302.485 176.244 302.551 176.636C302.588 176.742 302.649 176.838 302.73 176.915C302.81 176.993 302.907 177.051 303.014 177.085C303.174 177.14 303.341 177.172 303.51 177.18C304.132 177.292 304.765 177.322 305.394 177.269Z" fill="#263238"/>
<path d="M309.714 165.329C309.85 165.628 310.85 165.329 312.06 165.376C313.271 165.424 314.284 165.642 314.413 165.376C314.468 165.234 314.264 164.968 313.835 164.696C313.287 164.389 312.668 164.229 312.04 164.234C311.416 164.223 310.8 164.38 310.258 164.69C309.844 164.921 309.653 165.186 309.714 165.329Z" fill="#263238"/>
<path d="M298.853 163.486C299.084 163.758 300.043 163.527 301.185 163.568C302.327 163.608 303.279 163.846 303.511 163.568C303.619 163.438 303.511 163.173 303.069 162.888C302.503 162.55 301.857 162.372 301.199 162.371C300.543 162.346 299.893 162.496 299.315 162.806C298.9 163.092 298.757 163.35 298.853 163.486Z" fill="#263238"/>
<path d="M298.133 161.099C298.133 161.099 300.323 156.516 302.628 155.53C305.423 154.34 306.456 157.386 309.088 156.781C311.719 156.176 314.392 155.033 316.955 157.168C319.757 159.501 318.315 160.983 318.349 164.302C318.451 177.766 320.723 181.682 321.749 175.386C321.858 174.706 323.789 174.236 324.225 171.306C324.775 167.525 325.136 162.921 324.415 160.188C323.803 157.882 322.586 156.257 320.335 154.414C316.799 151.518 311.767 151.218 308.326 151.409C304.885 151.599 298.099 155.23 298.133 161.099Z" fill="#263238"/>
<path d="M321.251 175.161C321.275 174.889 321.353 174.623 321.481 174.381C321.61 174.139 321.785 173.926 321.998 173.753C322.21 173.581 322.456 173.453 322.719 173.377C322.982 173.301 323.257 173.279 323.529 173.312C324.889 173.509 326.426 174.373 326.202 177.242C325.801 182.342 320.762 180.887 320.762 180.737C320.762 180.588 321.061 177.29 321.251 175.161Z" fill="#99655C"/>
<path d="M322.035 178.908C322.035 178.908 322.116 178.976 322.259 179.058C322.362 179.115 322.475 179.15 322.592 179.161C322.709 179.173 322.827 179.161 322.939 179.126C323.284 178.943 323.574 178.671 323.78 178.339C323.985 178.007 324.099 177.626 324.109 177.236C324.155 176.799 324.104 176.358 323.959 175.944C323.924 175.781 323.85 175.629 323.744 175.501C323.637 175.373 323.501 175.273 323.347 175.209C323.247 175.175 323.138 175.176 323.038 175.213C322.939 175.25 322.856 175.321 322.803 175.413C322.721 175.549 322.749 175.651 322.721 175.658C322.694 175.665 322.619 175.563 322.674 175.359C322.712 175.234 322.791 175.127 322.898 175.053C323.048 174.959 323.229 174.927 323.401 174.964C323.607 175.024 323.793 175.134 323.944 175.285C324.095 175.436 324.206 175.623 324.265 175.828C324.447 176.285 324.514 176.78 324.462 177.27C324.347 178.296 323.748 179.214 322.993 179.371C322.853 179.4 322.709 179.397 322.57 179.363C322.431 179.329 322.302 179.264 322.191 179.174C322.028 179.031 322.014 178.915 322.035 178.908Z" fill="#744A45"/>
<path d="M321.64 165.24C320.99 165.72 320.23 166.028 319.43 166.138C319.03 166.179 318.629 166.075 318.301 165.843C317.972 165.612 317.738 165.27 317.642 164.88C317.594 164.52 317.703 164.112 317.485 163.826C317.268 163.54 316.703 163.568 316.268 163.595C315.519 163.617 314.785 163.382 314.19 162.927C313.594 162.473 313.173 161.827 312.997 161.099C312.757 161.343 312.435 161.487 312.093 161.504C311.752 161.52 311.416 161.407 311.154 161.188C310.645 160.734 310.202 160.212 309.835 159.637C309.65 159.349 309.397 159.111 309.098 158.944C308.799 158.776 308.464 158.685 308.122 158.678C307.755 158.781 307.379 158.845 307 158.869C306.32 158.78 306.041 157.978 305.973 157.305C305.905 156.632 305.864 155.856 305.293 155.469C304.722 155.081 304.089 155.272 303.464 155.333C302.838 155.394 302.056 155.21 301.927 154.605C301.907 154.442 301.921 154.276 301.968 154.118C302.014 153.96 302.093 153.813 302.199 153.687C302.643 153.091 303.275 152.661 303.993 152.467C304.71 152.274 305.473 152.327 306.156 152.62C306.448 151.782 306.982 151.05 307.69 150.515C308.397 149.981 309.248 149.668 310.133 149.616C311.018 149.564 311.899 149.776 312.665 150.225C313.43 150.674 314.045 151.339 314.432 152.137C314.998 151.666 315.67 151.341 316.39 151.187C317.11 151.034 317.857 151.057 318.566 151.256C319.275 151.455 319.925 151.822 320.46 152.327C320.996 152.833 321.4 153.46 321.64 154.156C322.27 154.03 322.923 154.091 323.519 154.33C324.116 154.57 324.629 154.978 324.997 155.504C325.365 156.031 325.572 156.654 325.591 157.296C325.611 157.938 325.443 158.572 325.108 159.12C325.571 159.378 325.962 159.749 326.242 160.198C326.523 160.648 326.685 161.161 326.713 161.691C326.713 162.752 325.604 163.731 324.598 163.432C324.781 163.857 324.796 164.336 324.64 164.772C324.484 165.208 324.168 165.568 323.756 165.781C323.345 165.993 322.868 166.041 322.422 165.916C321.976 165.79 321.595 165.5 321.354 165.104" fill="#263238"/>
<path d="M305.702 154.129C305.697 154.16 305.697 154.193 305.702 154.224C305.693 154.315 305.693 154.406 305.702 154.496C305.75 154.845 305.858 155.183 306.021 155.496C306.281 155.994 306.651 156.426 307.102 156.761C307.691 157.202 308.407 157.441 309.142 157.441L309.061 157.318C308.885 157.776 308.897 158.284 309.095 158.732C309.3 159.204 309.575 159.642 309.911 160.031C310.071 160.253 310.253 160.458 310.455 160.643C310.82 160.911 311.269 161.041 311.721 161.008C312.174 160.976 312.6 160.784 312.923 160.467L312.733 160.405C312.78 160.938 312.937 161.456 313.196 161.924C313.455 162.393 313.809 162.802 314.236 163.125C314.702 163.506 315.279 163.726 315.881 163.751C316.451 163.751 317.017 163.655 317.554 163.465L317.418 163.397C317.651 164.029 318.042 164.591 318.554 165.029C318.786 165.248 319.063 165.413 319.367 165.511C319.67 165.61 319.991 165.641 320.308 165.601C320.85 165.51 321.354 165.262 321.757 164.889C322.161 164.516 322.446 164.033 322.579 163.499L322.457 163.547C322.98 163.858 323.595 163.978 324.198 163.887C324.648 163.828 325.078 163.66 325.449 163.397C325.683 163.238 325.885 163.038 326.047 162.806C326.102 162.724 326.15 162.638 326.19 162.547C325.972 162.849 325.705 163.114 325.401 163.329C325.034 163.566 324.618 163.715 324.184 163.765C323.612 163.837 323.032 163.715 322.538 163.418L322.45 163.357V163.465C322.318 163.961 322.046 164.409 321.666 164.754C321.286 165.099 320.814 165.327 320.308 165.41C320.019 165.446 319.727 165.416 319.451 165.323C319.176 165.23 318.925 165.076 318.717 164.873C318.238 164.455 317.871 163.925 317.649 163.329V163.227L317.547 163.261C317.036 163.44 316.498 163.532 315.956 163.533C315.396 163.509 314.859 163.304 314.426 162.949C314.024 162.642 313.691 162.255 313.448 161.813C313.204 161.37 313.056 160.881 313.012 160.378V160.133L312.842 160.317C312.65 160.505 312.416 160.644 312.159 160.722C311.902 160.8 311.63 160.815 311.366 160.766C311.118 160.727 310.885 160.626 310.686 160.473C310.495 160.301 310.322 160.11 310.169 159.902C309.846 159.527 309.578 159.108 309.374 158.658C309.187 158.255 309.168 157.796 309.319 157.379L309.367 157.257H309.238C308.526 157.262 307.832 157.038 307.259 156.618C306.819 156.305 306.454 155.899 306.191 155.428C305.956 155.025 305.791 154.586 305.702 154.129Z" fill="#455A64"/>
<path d="M304.09 181.029C304.09 181.077 304.355 181.254 304.872 181.369C305.553 181.499 306.256 181.464 306.921 181.266C307.586 181.069 308.194 180.715 308.693 180.234C309.067 179.86 309.203 179.554 309.163 179.554C309.122 179.554 308.251 180.472 306.796 180.914C305.341 181.356 304.124 180.88 304.09 181.029Z" fill="#263238"/>
<path d="M287.264 264.588L332.477 265.207C332.477 265.207 345.125 259.917 348.6 259.767C352.075 259.617 358.97 260.066 362.159 265.207C365.457 270.518 365.92 279.875 355.754 286.681C345.86 293.305 300.612 299.431 294.411 298.867L282.973 283.519C282.973 283.519 282.858 270.939 282.973 270.341C283.089 269.743 285.013 264.35 285.013 264.35L287.264 264.588Z" fill="#263238"/>
<path d="M312.364 284.92L339.367 294.95L327.08 328.603C323.938 327.243 323.85 307.462 323.85 307.462L306.285 301.75L312.364 284.92Z" fill="#46B2C8"/>
<g opacity="0.6">
<path d="M326.174 296.527C326.39 296.239 326.706 296.04 327.06 295.969C327.414 295.899 327.781 295.962 328.092 296.147C328.385 296.354 328.589 296.666 328.661 297.019C328.733 297.371 328.668 297.738 328.479 298.044C328.247 298.349 327.91 298.558 327.534 298.63C327.157 298.701 326.767 298.631 326.439 298.431C326.146 298.184 325.962 297.831 325.928 297.449C325.893 297.067 326.011 296.687 326.256 296.391" fill="white"/>
</g>
<path d="M339.369 294.957L336.649 293.943L325.844 326.651C325.844 326.651 325.953 328.392 327.068 328.603L339.369 294.957Z" fill="#263238"/>
<path d="M323.454 307.945C323.624 307.999 323.998 307.21 324.814 306.585C325.63 305.959 326.486 305.789 326.479 305.619C326.473 305.449 325.425 305.34 324.439 306.102C323.453 306.863 323.29 307.924 323.454 307.945Z" fill="#263238"/>
<path d="M323.625 312.012C323.775 312.107 324.305 311.495 325.21 311.196C326.114 310.896 326.903 310.998 326.957 310.828C327.012 310.658 326.121 310.216 325.006 310.618C323.89 311.019 323.469 311.95 323.625 312.012Z" fill="#263238"/>
<path d="M327.122 315.561C327.21 315.425 326.442 314.881 325.415 314.99C324.388 315.099 323.722 315.717 323.837 315.84C323.953 315.962 324.606 315.656 325.469 315.595C326.333 315.534 327.081 315.717 327.122 315.561Z" fill="#263238"/>
<path d="M319.601 306.197C319.777 306.197 319.825 305.347 320.226 304.442C320.627 303.538 321.185 302.919 321.076 302.783C320.967 302.647 320.131 303.13 319.669 304.204C319.206 305.279 319.444 306.231 319.601 306.197Z" fill="#263238"/>
<path d="M315.899 303.96C316.252 303.464 316.462 302.881 316.505 302.274C316.621 301.625 316.657 300.965 316.613 300.308C316.583 299.92 316.529 299.534 316.45 299.152C316.419 298.915 316.347 298.686 316.239 298.472C316.163 298.322 316.039 298.201 315.886 298.13C315.733 298.058 315.561 298.04 315.396 298.078C315.25 298.117 315.116 298.19 315.005 298.292C314.894 298.394 314.809 298.521 314.757 298.663C314.675 298.881 314.624 299.11 314.607 299.343C314.574 299.736 314.574 300.132 314.607 300.526C314.656 301.187 314.807 301.836 315.056 302.45C315.498 303.498 316.015 303.987 316.062 303.94C316.11 303.892 315.77 303.321 315.464 302.308C315.29 301.717 315.189 301.107 315.165 300.492C315.156 300.133 315.176 299.773 315.226 299.418C315.226 299.03 315.369 298.738 315.559 298.69C315.634 298.69 315.661 298.69 315.736 298.799C315.81 298.949 315.86 299.109 315.886 299.275C315.972 299.628 316.033 299.987 316.069 300.349C316.141 300.968 316.152 301.592 316.103 302.212C315.993 302.789 315.925 303.373 315.899 303.96Z" fill="#263238"/>
<path d="M316.2 303.811C316.248 303.763 315.779 303.219 314.738 302.77C313.755 302.36 312.678 302.226 311.624 302.383C311.368 302.392 311.119 302.466 310.901 302.6C310.683 302.733 310.504 302.921 310.379 303.144C310.329 303.296 310.322 303.459 310.361 303.615C310.399 303.77 310.481 303.911 310.597 304.022C310.761 304.18 310.947 304.315 311.148 304.423C311.503 304.617 311.886 304.757 312.283 304.838C312.949 304.976 313.638 304.948 314.289 304.756C315.405 304.416 315.847 303.804 315.799 303.77C315.272 303.986 314.734 304.174 314.187 304.334C313.597 304.45 312.989 304.434 312.406 304.287C312.069 304.204 311.746 304.074 311.447 303.899C311.107 303.722 310.869 303.478 310.951 303.362C311.042 303.245 311.159 303.149 311.292 303.082C311.424 303.015 311.57 302.979 311.719 302.974C312.071 302.912 312.429 302.883 312.787 302.886C313.398 302.899 314.005 302.997 314.589 303.178C315.609 303.491 316.159 303.892 316.2 303.811Z" fill="#263238"/>
<path d="M297.465 284.24L273.277 295.46L287.081 325.632C289.883 324.136 288.53 305.878 288.53 305.878L304.319 299.329L297.465 284.24Z" fill="#46B2C8"/>
<g opacity="0.6">
<path d="M285.6 295.936C285.378 295.688 285.072 295.531 284.741 295.493C284.41 295.455 284.077 295.541 283.805 295.732C283.547 295.943 283.38 296.245 283.338 296.575C283.297 296.905 283.383 297.239 283.58 297.507C283.816 297.771 284.141 297.938 284.492 297.977C284.844 298.016 285.197 297.923 285.484 297.718C285.726 297.465 285.86 297.129 285.86 296.779C285.86 296.43 285.726 296.094 285.484 295.841" fill="white"/>
</g>
<path d="M273.277 295.446L275.719 294.317L288.067 323.727C288.067 323.727 288.067 325.339 287.081 325.618L273.277 295.446Z" fill="#263238"/>
<path d="M288.906 306.286C288.757 306.347 288.355 305.64 287.546 305.137C286.737 304.634 285.948 304.525 285.941 304.362C285.935 304.199 286.893 304.029 287.852 304.661C288.811 305.293 289.056 306.252 288.906 306.286Z" fill="#263238"/>
<path d="M289.048 310.08C288.919 310.182 288.368 309.659 287.525 309.441C286.682 309.224 285.947 309.387 285.886 309.237C285.825 309.088 286.614 308.612 287.668 308.897C288.722 309.183 289.184 309.978 289.048 310.08Z" fill="#263238"/>
<path d="M286.084 313.582C285.988 313.46 286.628 312.902 287.607 312.902C288.586 312.902 289.225 313.453 289.13 313.582C289.035 313.712 288.409 313.48 287.641 313.48C286.872 313.48 286.165 313.718 286.084 313.582Z" fill="#263238"/>
<path d="M292.34 304.395C292.176 304.395 292.074 303.62 291.66 302.818C291.245 302.015 290.667 301.458 290.755 301.349C290.844 301.24 291.66 301.594 292.156 302.553C292.652 303.511 292.489 304.409 292.34 304.395Z" fill="#263238"/>
<path d="M295.587 302.036C295.227 301.601 294.992 301.077 294.907 300.519C294.752 299.931 294.672 299.326 294.669 298.717C294.663 298.356 294.683 297.995 294.73 297.636C294.748 297.424 294.797 297.216 294.873 297.017C294.93 296.871 295.037 296.748 295.175 296.671C295.312 296.594 295.473 296.568 295.628 296.596C295.765 296.621 295.894 296.679 296.004 296.764C296.114 296.849 296.202 296.959 296.26 297.085C296.351 297.277 296.413 297.481 296.444 297.691C296.509 298.048 296.545 298.409 296.553 298.772C296.556 299.388 296.462 300.001 296.274 300.587C295.947 301.58 295.505 302.077 295.451 302.036C295.397 301.995 295.675 301.444 295.886 300.485C296.005 299.927 296.053 299.356 296.029 298.785C296.014 298.454 295.971 298.124 295.9 297.799C295.839 297.439 295.716 297.167 295.539 297.153C295.471 297.153 295.444 297.153 295.383 297.262C295.326 297.408 295.29 297.562 295.274 297.718C295.227 298.065 295.199 298.398 295.186 298.724C295.169 299.298 295.206 299.871 295.295 300.438C295.431 300.963 295.529 301.497 295.587 302.036Z" fill="#263238"/>
<path d="M295.289 301.92C295.241 301.879 295.636 301.342 296.567 300.853C297.115 300.573 297.706 300.387 298.315 300.302C298.679 300.264 299.046 300.264 299.41 300.302C299.646 300.29 299.882 300.341 300.093 300.448C300.304 300.555 300.483 300.716 300.613 300.914C300.673 301.051 300.692 301.202 300.668 301.349C300.643 301.496 300.577 301.633 300.477 301.743C300.337 301.902 300.175 302.04 299.995 302.151C299.146 302.701 298.114 302.892 297.125 302.682C296.071 302.451 295.615 301.92 295.656 301.886C295.697 301.852 296.227 302.185 297.186 302.294C297.739 302.352 298.297 302.291 298.825 302.117C299.132 302.018 299.423 301.873 299.689 301.689C299.988 301.499 300.192 301.261 300.103 301.152C300.008 301.052 299.893 300.974 299.765 300.923C299.637 300.871 299.5 300.847 299.362 300.853C299.034 300.822 298.704 300.822 298.376 300.853C297.812 300.908 297.259 301.041 296.731 301.247C295.799 301.601 295.35 302.009 295.289 301.92Z" fill="#263238"/>
<path d="M285.015 264.35C285.015 264.35 265.485 257.06 258.298 258.005C254.279 258.529 247.996 261.596 247.52 266.75C247.044 271.905 248.295 278.786 255.244 282.145C262.194 285.505 289.924 297.942 296.514 299.859C303.103 301.777 319.532 306.265 319.532 306.265L325.767 288.476C325.767 288.476 291.72 276.692 289.924 275.4C288.129 274.108 283.573 272.285 283.573 272.285L285.015 264.35Z" fill="#263238"/>
<path d="M352.921 266.77L352.785 266.736L352.398 266.614C352.051 266.512 351.541 266.362 350.875 266.206C350.069 266.008 349.251 265.865 348.427 265.778C347.334 265.676 346.235 265.676 345.142 265.778C343.817 265.888 342.506 266.136 341.232 266.519C340.532 266.733 339.849 267.004 339.192 267.328L337.071 268.362C334.147 269.722 330.883 271.19 327.408 272.564C320.451 275.352 313.774 276.644 309.014 277.752C306.62 278.283 304.689 278.718 303.356 279.031L301.826 279.398L301.425 279.486H301.289L301.418 279.439L301.813 279.33C302.166 279.235 302.676 279.092 303.343 278.929C304.703 278.589 306.593 278.126 308.98 277.569C313.74 276.447 320.397 275.107 327.34 272.326C330.808 270.966 334.072 269.531 336.989 268.144L339.117 267.117C339.792 266.791 340.492 266.523 341.212 266.315C342.497 265.933 343.819 265.689 345.156 265.587C346.257 265.484 347.366 265.484 348.467 265.587C349.296 265.68 350.117 265.835 350.922 266.05C351.602 266.22 352.092 266.383 352.432 266.498L352.819 266.641L352.921 266.77Z" fill="#455A64"/>
<path d="M351.864 264.193C351.864 264.227 351.273 264.125 350.314 264.023C349.07 263.887 347.817 263.851 346.567 263.915C345.316 263.979 344.072 264.143 342.847 264.404C341.909 264.601 341.331 264.771 341.324 264.737C341.446 264.669 341.576 264.616 341.712 264.581C341.97 264.493 342.344 264.377 342.813 264.261C344.039 263.952 345.291 263.766 346.553 263.704C347.816 263.639 349.082 263.696 350.334 263.874C350.81 263.942 351.198 264.017 351.463 264.078C351.601 264.099 351.736 264.138 351.864 264.193Z" fill="#455A64"/>
<path d="M276.8 269.519C276.8 269.519 276.235 269.124 275.297 268.546C274.078 267.794 272.784 267.174 271.434 266.697C270.081 266.222 268.682 265.892 267.259 265.711C266.171 265.575 265.484 265.561 265.484 265.527C265.645 265.507 265.807 265.507 265.967 265.527C266.405 265.525 266.843 265.546 267.28 265.588C268.719 265.731 270.136 266.044 271.502 266.52C272.868 267.003 274.17 267.652 275.378 268.451C275.747 268.688 276.101 268.947 276.439 269.226C276.57 269.31 276.691 269.408 276.8 269.519Z" fill="#455A64"/>
<path d="M286.599 296.045L286.749 296.099L287.198 296.29C287.585 296.446 288.157 296.718 288.918 297.011C290.441 297.609 292.685 298.439 295.569 299.384C301.342 301.274 309.631 303.675 319.552 306.184L319.437 306.245L325.475 289.49L325.536 289.619L318.056 286.552L276.692 269.552C275.012 267.771 273.462 266.2 272.013 264.935C270.783 263.845 269.469 262.854 268.083 261.97C267.203 261.423 266.295 260.922 265.363 260.467L264.635 260.134L264.391 260.012C264.476 260.041 264.56 260.075 264.642 260.114L265.377 260.433C266.312 260.87 267.22 261.363 268.097 261.909C269.491 262.783 270.814 263.765 272.054 264.847C273.516 266.111 275.08 267.675 276.773 269.457L318.165 286.416L325.645 289.49L325.74 289.531L325.706 289.619C323.551 295.576 321.504 301.24 319.654 306.374V306.456H319.573C309.651 303.94 301.362 301.512 295.603 299.595C292.726 298.636 290.482 297.786 288.966 297.167C288.204 296.861 287.606 296.582 287.252 296.419L286.81 296.215L286.599 296.045Z" fill="#455A64"/>
<path d="M334.859 202.123C334.859 202.123 340.483 205.36 341.625 209.168C342.305 211.473 347.562 241.033 348.425 246.86C349.289 252.688 347.5 257.006 345.025 258.944C342.55 260.882 335.002 263.452 335.002 263.452L324.36 266.886L321.32 259.155L331.412 244.657L330.432 234.892L334.859 202.123Z" fill="#46B2C8"/>
<path d="M323.808 197.016L319.599 194.602C319.599 194.602 315.75 199.104 310.5 198.553C307.246 198.12 304.269 196.491 302.15 193.983L286.51 197.166C285.463 197.377 283.545 198.043 281.716 200.661C279.676 203.578 269.993 216.519 269.993 216.519H263.159C262.241 216.518 261.34 216.767 260.554 217.241C259.768 217.714 259.126 218.393 258.698 219.205C257.542 221.408 256.155 224.359 256.291 225.583C256.515 227.623 256.121 233.315 258.888 235.103C259.765 235.667 262.907 237.347 265.348 237.231C268.945 237.061 273.121 235.191 275.548 233.505C277.588 232.084 282.348 227.154 284.157 225.229V225.263L285.327 266.315L326.358 265.145L334.858 202.143C334.858 202.143 324.223 197.016 323.808 197.016Z" fill="#46B2C8"/>
<path d="M284.016 208.012C284.077 208.012 284.179 213.098 284.254 219.375C284.329 225.651 284.343 230.744 284.288 230.744C284.234 230.744 284.118 225.658 284.043 219.381C283.969 213.105 283.962 208.012 284.016 208.012Z" fill="#263238"/>
<path d="M339.829 241.196C339.829 241.196 339.482 241.251 338.863 241.373C337.988 241.548 337.135 241.819 336.32 242.182C335.108 242.722 333.966 243.407 332.92 244.222C331.643 245.221 330.451 246.324 329.357 247.52C328.18 248.785 327.106 250.043 326.1 251.151C325.217 252.148 324.285 253.099 323.305 254.001C322.645 254.609 321.942 255.17 321.204 255.68C320.952 255.864 320.734 255.986 320.592 256.081C320.521 256.129 320.446 256.17 320.367 256.204L320.571 256.041C320.7 255.939 320.911 255.809 321.156 255.612C321.868 255.078 322.549 254.504 323.196 253.892C324.026 253.123 324.957 252.144 325.95 251.022C326.943 249.9 327.99 248.649 329.194 247.377C330.294 246.173 331.498 245.067 332.791 244.073C333.847 243.25 335.003 242.565 336.232 242.033C337.06 241.674 337.931 241.42 338.822 241.278C339.063 241.238 339.306 241.211 339.55 241.196H339.829Z" fill="#263238"/>
<path d="M340.76 238.415C340.76 238.456 340.134 238.544 339.155 238.816C336.6 239.528 334.281 240.909 332.437 242.815C331.757 243.549 331.362 244.059 331.328 244.032C331.391 243.898 331.471 243.772 331.566 243.658C331.801 243.328 332.055 243.012 332.328 242.713C334.141 240.717 336.509 239.308 339.128 238.667C339.52 238.57 339.917 238.497 340.318 238.449C340.463 238.422 340.612 238.41 340.76 238.415Z" fill="#263238"/>
<g opacity="0.3">
<path d="M264.398 231.2C266.567 231.791 269.158 228.663 271.151 226.712C272.177 225.692 273.245 224.604 273.619 223.21C273.888 222.039 273.769 220.812 273.279 219.715C272.914 218.724 272.43 217.781 271.838 216.906C272.021 218.593 272.436 221.177 271.838 223.291C271.282 224.994 270.328 226.539 269.056 227.8C267.798 229.214 266.336 230.697 264.371 231.2" fill="black"/>
</g>
<path d="M273.68 229.426C273.639 229.426 273.891 228.712 274.095 227.528C274.213 226.841 274.281 226.145 274.299 225.448C274.331 223.734 274.061 222.029 273.503 220.409C273.279 219.747 273.004 219.104 272.68 218.484C272.123 217.43 271.667 216.839 271.701 216.812C271.829 216.932 271.943 217.067 272.041 217.213C272.166 217.374 272.281 217.542 272.388 217.716C272.517 217.92 272.673 218.144 272.816 218.396C273.159 219.013 273.452 219.657 273.693 220.32C273.996 221.137 274.224 221.979 274.373 222.836C274.5 223.696 274.552 224.565 274.53 225.434C274.504 226.14 274.422 226.842 274.285 227.535C274.236 227.804 274.172 228.069 274.095 228.331C274.046 228.529 273.987 228.724 273.918 228.916C273.857 229.094 273.777 229.265 273.68 229.426Z" fill="#263238"/>
<path d="M303.846 195.568C303.846 195.623 303.39 195.902 302.887 196.357C302.384 196.813 302.05 197.248 301.996 197.214C302.173 196.826 302.429 196.48 302.748 196.197C303.066 195.913 303.44 195.699 303.846 195.568Z" fill="#263238"/>
<path d="M308.114 198.05C308.155 198.091 307.747 198.539 307.434 199.192C307.121 199.845 306.971 200.437 306.91 200.423C306.918 199.96 307.033 199.505 307.245 199.093C307.457 198.682 307.761 198.325 308.134 198.05H308.114Z" fill="#263238"/>
<path d="M315.426 200.6C315.227 200.21 315.07 199.8 314.957 199.376C314.774 198.979 314.633 198.565 314.535 198.139C314.823 198.48 315.034 198.879 315.154 199.308C315.337 199.714 315.43 200.155 315.426 200.6Z" fill="#263238"/>
<path d="M320.132 198.397C320.064 198.397 319.907 197.717 319.452 196.941C318.996 196.166 318.432 195.704 318.479 195.656C318.97 195.926 319.37 196.336 319.629 196.833C319.944 197.294 320.119 197.838 320.132 198.397Z" fill="#263238"/>
<path d="M333.636 211.69C333.697 211.69 332.996 217.307 332.085 224.216C331.174 231.125 330.385 236.721 330.324 236.708C330.263 236.694 330.963 231.098 331.874 224.189C332.786 217.28 333.581 211.684 333.636 211.69Z" fill="#263238"/>
<path d="M272.149 220.769C272.173 220.963 272.173 221.159 272.149 221.353C272.135 221.582 272.105 221.809 272.061 222.033C272.061 222.163 272.013 222.305 271.993 222.455L271.877 222.917C271.673 223.674 271.402 224.411 271.068 225.121C270.641 225.981 270.136 226.801 269.558 227.569C268.968 228.321 268.295 229.005 267.552 229.609C266.932 230.107 266.246 230.517 265.512 230.826C265.363 230.887 265.213 230.955 265.07 231.003L264.662 231.118L264.302 231.22L263.996 231.261C263.805 231.292 263.612 231.308 263.418 231.309C264.116 231.169 264.8 230.961 265.458 230.69C266.156 230.364 266.81 229.951 267.403 229.459C268.126 228.85 268.782 228.166 269.361 227.419C269.933 226.663 270.436 225.858 270.864 225.012C271.206 224.319 271.486 223.598 271.7 222.856C271.89 222.17 272.04 221.473 272.149 220.769Z" fill="#263238"/>
<g opacity="0.3">
<path d="M332.317 267.696C334.058 266.853 334.452 264.602 334.629 262.678C335.15 257.034 335.672 251.394 336.193 245.759C336.438 243.107 336.553 240.081 334.683 238.184C332.976 236.457 330.263 236.348 327.829 236.355C312.814 236.402 299.561 236.838 284.547 236.878L285.308 263.16L332.317 267.696Z" fill="black"/>
</g>
<path d="M278.072 240.952L279.67 271.409C279.704 271.978 279.954 272.513 280.371 272.903C280.787 273.293 281.337 273.508 281.908 273.503L330.426 273.592C330.997 273.594 331.547 273.377 331.963 272.984C332.378 272.592 332.626 272.054 332.656 271.484L334.512 241.564C334.574 240.319 333.69 238.667 332.425 238.64H280.35C280.046 238.631 279.743 238.685 279.46 238.799C279.178 238.912 278.922 239.083 278.708 239.3C278.494 239.517 278.328 239.775 278.218 240.059C278.109 240.344 278.059 240.647 278.072 240.952Z" fill="#E0E0E0"/>
<path d="M278.072 240.951C278.072 240.951 278.072 240.91 278.072 240.836C278.072 240.761 278.072 240.645 278.072 240.496C278.137 240.051 278.339 239.637 278.65 239.312C278.875 239.068 279.151 238.877 279.46 238.755C279.835 238.622 280.232 238.566 280.629 238.592H283.58L302.382 238.558H330.262H332.241C332.595 238.541 332.946 238.631 333.248 238.816C333.541 239.004 333.793 239.249 333.989 239.537C334.381 240.117 334.592 240.801 334.594 241.502C334.553 242.182 334.519 242.862 334.478 243.542C334.311 246.262 334.138 249.057 333.962 251.926C333.608 257.625 333.241 263.527 332.867 269.572L332.799 270.701C332.787 271.083 332.755 271.465 332.704 271.844C332.627 272.231 332.452 272.593 332.196 272.894C331.94 273.195 331.612 273.426 331.242 273.564C330.877 273.69 330.491 273.741 330.106 273.714H326.767H318.056H301.587L286.688 273.673H282.411C282.132 273.673 281.853 273.673 281.568 273.673C281.007 273.593 280.494 273.312 280.126 272.881C279.758 272.45 279.56 271.9 279.568 271.334C279.541 270.803 279.514 270.28 279.487 269.763C279.432 268.722 279.385 267.723 279.33 266.716C278.929 258.794 278.603 252.382 278.378 247.942C278.27 245.732 278.188 244.011 278.134 242.842C278.134 242.257 278.086 241.815 278.072 241.482C278.059 241.148 278.072 241.033 278.072 241.033C278.072 241.033 278.072 241.182 278.106 241.482C278.14 241.781 278.154 242.23 278.188 242.808C278.256 243.984 278.351 245.698 278.474 247.914C278.718 252.348 279.065 258.794 279.494 266.682C279.548 267.675 279.602 268.688 279.657 269.729C279.684 270.246 279.711 270.769 279.738 271.3C279.733 271.823 279.914 272.332 280.248 272.734C280.594 273.143 281.078 273.41 281.608 273.482C281.883 273.496 282.157 273.496 282.431 273.482H286.708H301.607H318.077H326.788H330.126C330.476 273.511 330.827 273.47 331.16 273.36C331.502 273.238 331.807 273.03 332.045 272.756C332.283 272.482 332.447 272.152 332.52 271.796C332.581 271.449 332.581 271.055 332.608 270.688L332.683 269.552C333.057 263.514 333.418 257.611 333.771 251.913C333.948 249.061 334.123 246.264 334.295 243.522L334.417 241.482C334.415 240.822 334.216 240.178 333.846 239.632C333.685 239.355 333.454 239.126 333.176 238.968C332.897 238.811 332.582 238.73 332.262 238.734H330.276H302.396H283.594H280.643C280.253 238.701 279.862 238.752 279.494 238.884C279.19 238.998 278.915 239.179 278.691 239.414C278.383 239.734 278.179 240.139 278.106 240.577C278.066 240.795 278.12 240.951 278.072 240.951Z" fill="#263238"/>
<path d="M309.507 255.809C309.509 256.378 309.343 256.934 309.029 257.407C308.714 257.88 308.266 258.249 307.741 258.467C307.216 258.685 306.638 258.741 306.081 258.63C305.524 258.518 305.013 258.243 304.612 257.84C304.212 257.437 303.941 256.923 303.833 256.365C303.725 255.807 303.786 255.23 304.008 254.707C304.229 254.184 304.601 253.738 305.077 253.427C305.553 253.116 306.11 252.953 306.678 252.96C307.43 252.967 308.148 253.27 308.678 253.804C309.207 254.337 309.505 255.058 309.507 255.809Z" fill="white"/>
<path d="M309.509 255.81C309.509 255.81 309.509 255.551 309.379 255.13C309.279 254.754 309.101 254.403 308.857 254.1C308.613 253.797 308.308 253.547 307.963 253.368C307.618 253.189 307.239 253.084 306.85 253.059C306.462 253.035 306.073 253.092 305.707 253.226C305.196 253.413 304.753 253.749 304.436 254.191C304.084 254.661 303.894 255.233 303.894 255.82C303.894 256.407 304.084 256.978 304.436 257.448C304.753 257.89 305.196 258.227 305.707 258.414C306.073 258.546 306.462 258.601 306.849 258.576C307.237 258.55 307.615 258.444 307.96 258.266C308.305 258.087 308.609 257.839 308.853 257.536C309.098 257.234 309.277 256.885 309.379 256.51C309.495 256.075 309.488 255.83 309.509 255.83C309.519 255.891 309.519 255.953 309.509 256.014C309.506 256.19 309.485 256.365 309.447 256.537C309.3 257.18 308.935 257.752 308.414 258.156C308.055 258.441 307.633 258.635 307.183 258.72C306.665 258.819 306.13 258.78 305.633 258.604C305.087 258.406 304.613 258.048 304.273 257.578C303.898 257.071 303.695 256.457 303.695 255.827C303.695 255.196 303.898 254.583 304.273 254.076C304.613 253.605 305.087 253.248 305.633 253.049C306.13 252.874 306.665 252.834 307.183 252.933C307.731 253.041 308.237 253.305 308.639 253.693C309.041 254.082 309.321 254.578 309.447 255.123C309.486 255.295 309.506 255.47 309.509 255.646C309.516 255.701 309.516 255.756 309.509 255.81Z" fill="#263238"/>
<path d="M279.709 244.324C279.764 244.324 280.002 249.438 280.24 255.755C280.478 262.072 280.621 267.193 280.566 267.193C280.512 267.193 280.267 262.079 280.029 255.762C279.791 249.445 279.648 244.324 279.709 244.324Z" fill="#263238"/>
<path d="M265.123 204.578C264.837 204.34 266.082 199.553 266.082 199.553C266.082 199.553 262.791 194.181 262.682 192.453C262.573 190.726 263.981 187.17 263.981 187.17L273.426 184.742C273.426 184.742 276.459 190.373 277.064 192.365C277.669 194.357 276.078 201.117 276.078 201.117L274.48 204.578C274.48 204.578 269.618 208.393 265.123 204.578Z" fill="#99655C"/>
<path d="M262.724 193.488C262.35 192.81 262.016 192.11 261.724 191.393C261.133 189.972 260.398 188.585 261.724 187.789C261.933 187.653 262.168 187.563 262.414 187.524C262.66 187.486 262.912 187.499 263.152 187.565C263.152 187.565 262.948 186.375 263.655 185.926C263.862 185.796 264.097 185.716 264.341 185.695C264.585 185.674 264.83 185.711 265.056 185.804C265.056 185.804 264.832 184.117 265.859 183.403C266.246 183.151 266.695 183.01 267.157 182.997C267.619 182.984 268.076 183.098 268.477 183.328C268.477 183.328 267.661 175.964 267.593 175.57C267.334 174.142 267.865 172.85 269.286 173.224C269.809 173.353 270.102 173.904 270.714 176.304C271.326 178.704 272.312 182.798 272.312 182.798C272.312 182.798 273.971 185.681 274.753 187.245C275.535 188.809 277.085 192.366 277.215 193.311C277.548 195.745 276.12 198.975 276.12 198.975L266.083 199.553C266.083 199.553 263.105 194.188 262.724 193.488Z" fill="#99655C"/>
<path d="M263.35 187.884C263.634 188.225 263.893 188.586 264.125 188.965L264.921 190.175C265.084 190.415 265.228 190.667 265.349 190.93C265.49 191.229 265.533 191.564 265.472 191.889C265.44 192.058 265.364 192.216 265.252 192.346C265.14 192.476 264.995 192.574 264.832 192.63C264.53 192.707 264.21 192.668 263.935 192.521C263.696 192.404 263.468 192.265 263.255 192.107L262.711 191.699C262.385 191.447 262.133 191.229 261.963 191.073C261.793 190.917 261.705 190.821 261.711 190.808C261.718 190.794 262.133 191.107 262.799 191.583C263.18 191.867 263.583 192.122 264.003 192.345C264.236 192.464 264.504 192.495 264.758 192.433C264.885 192.388 264.998 192.309 265.084 192.205C265.17 192.101 265.227 191.975 265.247 191.841C265.301 191.561 265.266 191.271 265.145 191.012C265.032 190.756 264.898 190.511 264.744 190.277L264.003 189.04C263.754 188.673 263.536 188.286 263.35 187.884Z" fill="#744A45"/>
<path d="M271.578 188.761C271.49 188.234 271.527 187.694 271.687 187.184C271.778 186.656 271.992 186.158 272.312 185.729C272.367 185.729 272.088 186.409 271.891 187.231C271.693 188.054 271.639 188.761 271.578 188.761Z" fill="#744A45"/>
<path d="M275.555 190.91C274.63 190.015 273.466 189.408 272.202 189.163C270.941 188.919 269.65 188.869 268.374 189.013C267.354 189.108 266.191 189.367 265.722 190.285C265.529 190.783 265.525 191.334 265.71 191.835C265.896 192.336 266.258 192.752 266.728 193.005C267.679 193.477 268.754 193.641 269.802 193.474C270.844 193.302 271.904 193.259 272.957 193.345" fill="#99655C"/>
<path d="M272.958 193.318C272.958 193.318 272.673 193.318 272.17 193.318C271.448 193.346 270.728 193.414 270.014 193.522C269.515 193.581 269.013 193.602 268.511 193.583C267.923 193.562 267.346 193.415 266.818 193.154C266.228 192.848 265.778 192.327 265.56 191.699C265.446 191.362 265.423 191.001 265.492 190.652C265.573 190.293 265.766 189.969 266.043 189.727C266.599 189.292 267.27 189.029 267.974 188.972C268.606 188.902 269.242 188.863 269.878 188.857C270.963 188.839 272.044 189.005 273.074 189.346C273.765 189.577 274.411 189.924 274.985 190.373C275.14 190.498 275.287 190.632 275.427 190.774C275.474 190.823 275.517 190.875 275.556 190.931C275.556 190.931 275.352 190.74 274.937 190.441C274.355 190.022 273.71 189.698 273.026 189.482C272.008 189.174 270.948 189.029 269.885 189.054C269.255 189.062 268.626 189.103 268.001 189.176C267.343 189.222 266.712 189.458 266.186 189.856C265.94 190.07 265.769 190.356 265.696 190.672C265.634 190.983 265.656 191.304 265.757 191.604C265.952 192.188 266.363 192.675 266.906 192.964C267.407 193.218 267.957 193.361 268.518 193.386C269.012 193.416 269.508 193.405 270 193.352C270.72 193.258 271.444 193.211 272.17 193.209C272.365 193.219 272.561 193.239 272.754 193.27C272.824 193.274 272.893 193.291 272.958 193.318Z" fill="#744A45"/>
<path d="M263.426 188C264.48 189.605 265.411 191.366 266.302 193.066C266.514 193.586 266.861 194.039 267.309 194.378C267.689 194.61 268.635 194.188 269.056 194.038L266.159 187.442" fill="#99655C"/>
<path d="M266.159 187.442C266.26 187.597 266.347 187.761 266.418 187.932L267.057 189.292C267.594 190.468 268.329 192.107 269.151 193.97L269.199 194.072L269.09 194.113C268.777 194.222 268.41 194.365 268.077 194.46C267.933 194.498 267.784 194.518 267.635 194.521C267.556 194.531 267.476 194.531 267.397 194.521C267.319 194.496 267.246 194.459 267.179 194.412C266.947 194.242 266.749 194.03 266.595 193.787C266.295 193.318 266.085 192.848 265.853 192.427C265.398 191.55 264.976 190.761 264.616 190.108C264.255 189.455 263.936 188.932 263.739 188.571C263.62 188.391 263.516 188.203 263.426 188.007C263.566 188.171 263.694 188.346 263.807 188.53C264.045 188.877 264.371 189.387 264.745 190.033C265.119 190.679 265.561 191.461 266.023 192.338C266.261 192.767 266.486 193.25 266.765 193.698C266.906 193.919 267.088 194.111 267.302 194.263C267.479 194.412 267.764 194.358 268.029 194.297C268.366 194.203 268.697 194.092 269.022 193.964L268.961 194.106C268.145 192.236 267.431 190.584 266.921 189.394C266.683 188.823 266.493 188.347 266.336 187.986C266.26 187.811 266.201 187.629 266.159 187.442Z" fill="#744A45"/>
<path d="M265.375 185.483L268.17 192.494C268.339 193.003 268.594 193.479 268.925 193.902C269.09 194.112 269.306 194.279 269.551 194.385C269.797 194.492 270.065 194.536 270.332 194.514C270.689 194.42 271.005 194.21 271.229 193.917C271.453 193.624 271.573 193.264 271.57 192.895C271.55 192.157 271.372 191.431 271.046 190.767C270.199 188.635 269.517 186.441 269.006 184.205" fill="#99655C"/>
<path d="M269.04 184.205C269.074 184.274 269.099 184.347 269.115 184.423C269.156 184.586 269.21 184.79 269.278 185.041C269.421 185.579 269.632 186.354 269.958 187.306C270.285 188.258 270.638 189.38 271.114 190.604C271.411 191.238 271.609 191.915 271.699 192.61C271.73 192.992 271.658 193.375 271.488 193.718C271.318 194.091 271.015 194.387 270.638 194.548C270.448 194.618 270.245 194.645 270.043 194.629C269.841 194.612 269.645 194.552 269.469 194.453C269.129 194.268 268.843 193.999 268.639 193.671C268.307 193.06 268.025 192.423 267.796 191.767L266.517 188.509L265.654 186.32C265.565 186.075 265.497 185.878 265.436 185.721C265.407 185.652 265.386 185.579 265.375 185.504C265.417 185.565 265.451 185.631 265.477 185.701L265.735 186.293L266.64 188.469C267.014 189.4 267.463 190.509 267.959 191.712C268.185 192.358 268.465 192.983 268.795 193.582C268.981 193.871 269.239 194.105 269.543 194.262C269.694 194.348 269.861 194.4 270.034 194.416C270.206 194.431 270.38 194.409 270.543 194.351C270.867 194.209 271.126 193.952 271.271 193.63C271.422 193.315 271.49 192.966 271.468 192.617C271.379 191.944 271.188 191.288 270.903 190.672C270.434 189.441 270.067 188.305 269.788 187.347C269.509 186.388 269.319 185.606 269.197 185.062C269.142 184.79 269.095 184.572 269.074 184.429C269.055 184.356 269.043 184.281 269.04 184.205Z" fill="#744A45"/>
<path d="M265.602 201.96C265.602 201.96 259.197 220.83 258.945 221.755C258.693 222.68 260.21 229.425 262.991 231.023C265.772 232.621 271.151 225.971 271.831 223.543C272.511 221.116 271.831 216.975 271.831 216.975L276.149 200.716" fill="#99655C"/>
<path d="M271.838 198.988C271.633 199.016 271.425 198.99 271.233 198.913C270.76 198.764 270.326 198.513 269.961 198.178C269.596 197.844 269.308 197.433 269.118 196.975C269.027 196.789 268.982 196.584 268.989 196.377C269.227 197.005 269.608 197.568 270.103 198.021C270.598 198.475 271.192 198.806 271.838 198.988Z" fill="#744A45"/>
</svg>
