<svg width="389" height="389" viewBox="0 0 389 389" fill="none" xmlns="http://www.w3.org/2000/svg">
<path d="M81.1471 290.785L65.5871 291.019C60.3667 291.096 55.0996 291.135 49.8481 291.143H49.4902V290.785V282.079V281.69H49.887L65.5326 281.745L73.3593 281.815L81.1859 281.908H81.3571V282.072L81.1471 290.785ZM81.1471 290.785L80.9759 282.079L81.1471 282.251L73.3204 282.344L65.4937 282.414L49.8481 282.468L50.2293 282.079V290.785L49.8715 290.427C55.0529 290.427 60.2189 290.474 65.4315 290.552L81.1471 290.785Z" fill="#EBEBEB"/>
<path d="M63.6798 293.057H32.3809V301.762H63.6798V293.057Z" fill="#EBEBEB"/>
<path d="M232.686 324.426H201.387V333.132H232.686V324.426Z" fill="#EBEBEB"/>
<path d="M356.621 219.77H325.322V228.475H356.621V219.77Z" fill="#EBEBEB"/>
<path d="M271.219 42.9454L255.659 43.1788C250.439 43.2566 245.172 43.2955 239.913 43.3033H239.555V42.9454V34.2396V33.8506H239.944L255.597 33.905L263.416 33.9751L271.243 34.0684H271.414V34.2318L271.219 42.9454ZM271.219 42.9454L271.056 34.2318L271.219 34.403L263.393 34.4963L255.574 34.5663L239.92 34.6208L240.309 34.2318V42.9376L239.951 42.5797C245.125 42.5797 250.299 42.6264 255.511 42.7042L271.219 42.9454Z" fill="#EBEBEB"/>
<path d="M288.678 45.2168H257.379V53.9226H288.678V45.2168Z" fill="#EBEBEB"/>
<path d="M63.6802 42.9454L48.1202 43.1788C42.8998 43.2566 37.6328 43.2955 32.3735 43.3033H32.0156V42.9454V34.2396V33.8506H32.4046L48.058 33.905L55.8847 33.9751L63.6647 34.0684H63.8358V34.2318L63.6802 42.9454ZM63.6802 42.9454L63.5168 34.2318L63.6802 34.403L55.9002 34.4963L48.0735 34.5663L32.4202 34.6208L32.8092 34.2318V42.9376L32.4513 42.5797C37.625 42.5797 42.7987 42.6264 48.0113 42.7042L63.6802 42.9454Z" fill="#EBEBEB"/>
<path d="M205.035 161.101H173.736V169.806H205.035V161.101Z" fill="#EBEBEB"/>
<path d="M347.06 39.6543H294.475V103.443H347.06V39.6543Z" fill="#EBEBEB"/>
<path d="M341.053 45.4736H300.48V97.6152H341.053V45.4736Z" fill="white"/>
<path d="M302.06 45.4736H300.48V97.6152H302.06V45.4736Z" fill="#C7C7C7"/>
<path d="M348.638 39.6543H347.059V103.443H348.638V39.6543Z" fill="#C7C7C7"/>
<path d="M321.665 86.0312H331.234V57.5331H321.665V86.0312Z" fill="#EBEBEB"/>
<path d="M335.8 67.0164H309.512V52.2344H335.8V67.0164ZM310.29 66.2384H335.022V53.0124H310.29V66.2384Z" fill="#EBEBEB"/>
<path d="M347.06 196.85H294.475V260.638H347.06V196.85Z" fill="#EBEBEB"/>
<path d="M341.053 202.677H300.48V254.818H341.053V202.677Z" fill="white"/>
<path d="M302.06 202.677H300.48V254.818H302.06V202.677Z" fill="#C7C7C7"/>
<path d="M348.638 196.85H347.059V260.638H348.638V196.85Z" fill="#C7C7C7"/>
<path d="M323.649 214.735H314.08V243.233H323.649V214.735Z" fill="#EBEBEB"/>
<path d="M335.8 224.22H309.512V209.477H335.8V224.22ZM310.29 223.442H335.022V210.255H310.29V223.442Z" fill="#EBEBEB"/>
<path d="M347.06 118.544H294.475V182.332H347.06V118.544Z" fill="#EBEBEB"/>
<path d="M341.053 124.363H300.48V176.505H341.053V124.363Z" fill="white"/>
<path d="M302.06 124.363H300.48V176.505H302.06V124.363Z" fill="#C7C7C7"/>
<path d="M348.638 118.544H347.059V182.332H348.638V118.544Z" fill="#C7C7C7"/>
<path d="M325.026 137.838H316.834V158.556H325.026V137.838Z" fill="#EBEBEB"/>
<path d="M334.051 165.107H311.256V150.045H334.051V165.107ZM312.034 164.329H333.273V150.823H312.034V164.329Z" fill="#DBDBDB"/>
<path d="M143.153 165.652C142.402 163.043 141.238 160.572 139.707 158.331C138.116 156.114 136.264 154.098 134.191 152.325C125.921 145.128 114.523 142.343 103.748 143.082C98.8249 143.38 93.9989 144.579 89.5101 146.622C87.3228 147.642 85.2945 148.973 83.4884 150.574C81.8157 152.06 79.9329 153.888 79.1549 156.02C79.1301 156.097 79.1307 156.18 79.1567 156.256C79.1827 156.332 79.2327 156.398 79.2993 156.444C79.3658 156.489 79.4453 156.512 79.5259 156.508C79.6064 156.505 79.6837 156.476 79.7462 156.425C80.7343 155.647 81.5667 154.666 82.5081 153.811C83.4577 152.962 84.4665 152.182 85.5267 151.477C87.6095 150.106 89.825 148.949 92.1397 148.022C101.39 144.288 112.368 144.381 121.704 147.758C126.231 149.411 130.41 151.893 134.027 155.079C135.731 156.585 137.294 158.244 138.695 160.035C140.198 161.853 141.583 163.766 142.842 165.761C142.982 165.87 143.223 165.823 143.153 165.652Z" fill="#023A59"/>
<path d="M136.33 150.932C135.395 149.44 134.22 148.112 132.852 147.003C131.42 145.951 129.905 145.014 128.324 144.202C122.533 141.078 116.193 139.102 109.652 138.383C106.496 138.035 103.305 138.193 100.199 138.849C98.7274 139.179 97.2753 139.592 95.8504 140.087C94.3992 140.515 93.0199 141.158 91.7581 141.993C91.7284 142.021 91.7084 142.057 91.7007 142.097C91.6931 142.137 91.6982 142.179 91.7154 142.216C91.7326 142.253 91.761 142.284 91.7966 142.304C91.8322 142.323 91.8731 142.332 91.9137 142.327C93.5786 141.985 95.1735 141.37 96.8462 141.051C98.5189 140.732 100.083 140.67 101.716 140.514C120.832 138.741 134.657 150.558 136.011 151.266C136.056 151.299 136.112 151.314 136.169 151.309C136.225 151.304 136.277 151.278 136.316 151.238C136.354 151.197 136.377 151.144 136.38 151.087C136.382 151.031 136.365 150.976 136.33 150.932Z" fill="#023A59"/>
<path d="M70.1913 211.437C74.0813 213.95 78.6871 212.113 81.7369 209.165C84.9111 206.1 87.0739 202.085 88.7389 198.047C90.2949 194.36 91.3918 190.508 92.6289 186.704C93.8659 182.9 94.9629 178.924 96.9234 175.446C98.758 172.12 101.835 169.656 105.481 168.592C109.432 167.529 113.633 167.907 117.33 169.658C119.289 170.522 121.065 171.75 122.566 173.276C123.941 174.769 125.011 176.516 125.717 178.418C127.359 182.526 128.183 186.899 129.179 191.185C129.996 194.733 131.692 197.931 135.014 199.681C137.846 201.175 141.332 201.626 144.21 200.016C144.253 199.995 144.287 199.959 144.306 199.916C144.324 199.872 144.326 199.823 144.31 199.777C144.295 199.732 144.264 199.695 144.222 199.671C144.181 199.648 144.132 199.64 144.086 199.65C142.273 200.003 140.403 199.932 138.621 199.444C136.84 198.955 135.196 198.062 133.816 196.834C132.394 195.394 131.41 193.582 130.976 191.605C130.354 189.271 129.887 186.867 129.249 184.518C128.191 180.628 127.141 176.372 124.581 173.136C121.974 170.001 118.46 167.75 114.522 166.694C110.73 165.591 106.682 165.766 103 167.192C99.3388 168.706 96.3527 171.498 94.5972 175.05C90.925 182.052 89.7425 190.034 86.9106 197.363C85.6074 201.001 83.6628 204.376 81.1689 207.329C78.5782 210.223 74.4159 212.37 70.5414 210.76C70.4521 210.717 70.3497 210.711 70.2559 210.742C70.1621 210.774 70.0842 210.841 70.0387 210.929C69.9932 211.017 69.9837 211.119 70.0122 211.214C70.0407 211.308 70.1049 211.388 70.1913 211.437Z" fill="#023A59"/>
<path d="M69.3435 199.168C71.1329 199.409 72.7745 198.063 73.607 196.585C74.7386 194.458 75.6061 192.2 76.1899 189.863C77.4225 185.027 78.9821 180.281 80.8579 175.656C83.9699 168.413 88.8169 161.427 95.7955 157.412C99.2535 155.399 103.11 154.165 107.094 153.798C111.079 153.432 115.096 153.94 118.863 155.288C122.45 156.597 125.729 158.631 128.495 161.263C131.341 164.064 133.632 167.376 135.248 171.027C136.863 174.812 138.189 178.713 139.216 182.697C139.675 184.292 140.32 186.229 141.861 187.093C142.435 187.453 143.119 187.597 143.79 187.501C144.461 187.404 145.076 187.072 145.525 186.564C145.611 186.463 145.471 186.354 145.377 186.416C144.941 186.706 144.42 186.841 143.898 186.798C143.376 186.756 142.883 186.539 142.499 186.183C141.668 185.477 141.116 184.498 140.943 183.421C140.422 181.274 140.001 179.111 139.387 176.971C138.237 172.624 136.424 168.481 134.011 164.687C131.837 161.432 129.041 158.639 125.784 156.469C122.526 154.299 118.872 152.794 115.031 152.042C111.19 151.29 107.238 151.305 103.402 152.087C99.5671 152.868 95.9242 154.401 92.6835 156.595C85.9616 161.155 81.4103 168.18 78.3994 175.594C76.8433 179.658 75.5441 183.816 74.5094 188.042C73.996 190.18 73.3622 192.286 72.6111 194.352C72.2596 195.257 71.8436 196.136 71.3663 196.981C71.1945 197.37 70.9223 197.706 70.5778 197.955C70.2333 198.204 69.8288 198.356 69.4058 198.397C69.3036 198.389 69.2024 198.422 69.1243 198.488C69.0463 198.555 68.9978 198.649 68.9895 198.751C68.9813 198.854 69.0139 198.955 69.0803 199.033C69.1467 199.111 69.2414 199.159 69.3435 199.168Z" fill="#023A59"/>
<path d="M71.5148 214.798C71.5032 214.884 71.5249 214.971 71.5755 215.042C71.6261 215.113 71.7017 215.162 71.7871 215.179C72.4186 215.329 73.0613 215.428 73.7087 215.475C73.999 215.49 74.2898 215.49 74.5801 215.475C78.0111 215.303 81.5821 213.358 85.1764 209.694C88.2148 206.593 90.7177 203.01 92.583 199.09C94.0539 195.731 95.185 192.233 95.9595 188.649C96.2085 187.646 96.4652 186.634 96.7375 185.638C97.5855 182.449 99.126 177.858 102.604 174.964C103.777 173.986 105.156 173.284 106.637 172.91C108.118 172.535 109.664 172.498 111.162 172.801C113.486 173.273 115.689 174.217 117.634 175.575C119.579 176.934 121.223 178.677 122.466 180.698C124.415 183.946 125.117 187.792 124.442 191.52C123.615 195.549 121.659 199.259 118.802 202.218C115.826 205.28 112.3 207.753 108.408 209.507C106.758 210.285 104.572 211.32 102.331 212.145L101.048 212.619C99.4138 213.218 97.7334 213.825 96.1229 214.533C96.0186 214.584 95.9359 214.67 95.89 214.777C95.8441 214.883 95.8381 215.002 95.8731 215.113C95.908 215.223 95.9816 215.318 96.0803 215.378C96.1791 215.439 96.2964 215.462 96.4108 215.444C97.5389 215.202 98.6514 214.891 99.6861 214.588C107.194 212.433 116.545 208.947 122.248 201.082C124.825 197.673 126.321 193.57 126.543 189.303C126.644 185.388 125.428 181.552 123.088 178.411C120.144 174.364 115.736 171.629 110.804 170.786C109.181 170.519 107.52 170.588 105.924 170.99C104.329 171.391 102.833 172.117 101.53 173.12C98.6514 175.353 96.5352 178.909 95.0648 184.012C94.6603 185.397 94.2868 186.813 93.9523 188.182C93.2101 191.496 92.1685 194.735 90.8403 197.861C88.961 201.936 86.3654 205.641 83.177 208.799C80.5707 211.367 76.5095 214.424 71.9427 214.432C71.8378 214.426 71.7346 214.46 71.6547 214.528C71.5748 214.597 71.5247 214.693 71.5148 214.798Z" fill="#023A59"/>
<path d="M70.0212 203.657C70.992 203.875 72.0008 203.863 72.9658 203.619C73.9308 203.376 74.825 202.909 75.5761 202.256C77.2799 200.895 78.159 198.631 78.8592 196.623C80.4853 191.955 81.7456 187.132 83.3639 182.441C85.8768 175.127 89.5879 167.659 96.1775 163.255C99.141 161.307 102.486 160.015 105.99 159.465C109.493 158.915 113.073 159.12 116.491 160.065C120.274 161.136 123.704 163.196 126.426 166.032C128.923 168.8 130.902 171.994 132.269 175.462C132.992 177.205 133.615 178.978 134.167 180.783C134.672 182.693 135.275 184.576 135.972 186.424C137.248 189.489 140.461 193.169 144.165 191.652C144.225 191.623 144.273 191.575 144.303 191.515C144.334 191.456 144.343 191.388 144.331 191.322C144.318 191.257 144.285 191.197 144.235 191.153C144.185 191.108 144.122 191.081 144.056 191.076C143.024 190.98 142.026 190.661 141.13 190.142C140.234 189.622 139.462 188.913 138.866 188.065C137.552 186.214 137.046 183.926 136.447 181.771C135.399 177.746 133.851 173.867 131.841 170.226C130.049 167.004 127.609 164.188 124.676 161.956C121.5 159.66 117.836 158.132 113.97 157.49C110.433 156.913 106.816 157.048 103.331 157.888C99.8468 158.729 96.5655 160.257 93.6801 162.384C87.2772 167.168 83.6284 174.668 81.131 182.067C79.7228 186.222 78.6336 190.462 77.3421 194.647C76.3619 197.837 74.6269 203.205 70.2701 202.497C70.1265 202.488 69.9842 202.53 69.8693 202.617C69.7543 202.703 69.6744 202.829 69.6442 202.969C69.614 203.11 69.6355 203.257 69.7047 203.383C69.7739 203.509 69.8862 203.606 70.0212 203.657Z" fill="#023A59"/>
<path d="M69.7013 206.707C70.2131 207.283 70.8312 207.756 71.5218 208.099C72.9534 208.815 75.0462 208.582 76.4777 208.006C78.2369 207.201 79.714 205.886 80.7178 204.233C81.815 202.465 82.7424 200.597 83.4875 198.654C84.3822 196.499 85.1602 194.282 85.9226 192.072C87.4786 187.63 88.8712 183.149 90.5906 178.761C92.0844 174.871 93.9438 171.16 97.0714 168.328C99.8559 165.773 103.313 164.068 107.035 163.413C110.757 162.758 114.588 163.181 118.077 164.632C121.657 166.136 124.701 168.681 126.814 171.938C129.148 175.493 130.206 179.64 131.233 183.693C132.151 187.303 132.89 191.201 135.201 194.228C137.123 196.756 141.215 198.755 143.915 196.126C143.943 196.101 143.962 196.067 143.967 196.029C143.972 195.992 143.963 195.954 143.942 195.922C143.921 195.891 143.889 195.868 143.853 195.858C143.816 195.849 143.777 195.852 143.744 195.869C141.814 196.826 139.55 196.173 137.94 194.865C136.456 193.566 135.345 191.896 134.719 190.026C133.124 185.895 132.494 181.468 131.031 177.259C129.834 173.528 127.746 170.145 124.947 167.402C122.26 164.835 118.985 162.965 115.409 161.956C111.779 161.015 107.968 161.029 104.346 161.997C100.724 162.965 97.4136 164.854 94.7374 167.48C91.7732 170.46 89.9138 174.217 88.4122 178.1C86.7784 182.355 85.4558 186.728 83.9776 191.046C83.1996 193.255 82.4216 195.449 81.558 197.635C80.9014 199.518 80.0813 201.341 79.1073 203.081C78.2097 204.702 76.8049 205.984 75.1084 206.73C74.3182 207.08 73.4493 207.213 72.5907 207.116C71.7321 207.019 70.9148 206.695 70.2226 206.178C69.8647 205.905 69.4368 206.411 69.7013 206.707Z" fill="#023A59"/>
<path d="M144.833 184.254C144.891 183.243 144.891 182.23 144.833 181.219C144.024 172.879 140.466 165.044 134.719 158.945C129.395 153.177 122.303 149.345 114.561 148.053C106.953 146.893 99.1724 148.087 92.2632 151.477C85.3881 154.871 79.7285 160.305 76.0575 167.037C72.2816 173.672 70.5774 181.286 71.1639 188.898C71.1639 189.062 71.4284 189.031 71.4362 188.898C71.9288 180.683 74.5949 172.747 79.1617 165.901C83.2238 159.926 88.9392 155.265 95.6086 152.488C102.264 149.758 109.598 149.144 116.615 150.73C123.842 152.524 130.279 156.644 134.937 162.454C137.395 165.535 139.378 168.968 140.818 172.638C142.241 176.435 143.368 180.337 144.187 184.308C144.304 184.604 144.809 184.604 144.833 184.254Z" fill="#023A59"/>
<path d="M132.952 212.316C133.808 211.056 135.644 212.168 136.593 212.697C138.017 213.475 139.55 214.541 141.261 214.253C141.289 214.244 141.319 214.246 141.346 214.259C141.372 214.273 141.392 214.296 141.401 214.323C141.41 214.351 141.408 214.382 141.395 214.408C141.382 214.434 141.359 214.454 141.331 214.464C140.776 214.738 140.166 214.885 139.547 214.893C138.928 214.901 138.314 214.77 137.752 214.51C137.147 214.262 136.554 213.981 135.978 213.67C135.433 213.355 134.85 213.109 134.244 212.939C134.133 212.923 134.02 212.923 133.909 212.939C133.792 212.939 133.823 212.939 133.808 212.978C133.699 213.18 133.87 213.608 133.932 213.81C134.076 214.336 134.277 214.845 134.531 215.327C135.072 216.32 135.756 217.227 136.562 218.019C137.015 218.483 137.496 218.919 138.001 219.326C138.515 219.738 139.122 220.05 139.612 220.485C139.652 220.507 139.682 220.544 139.695 220.587C139.708 220.631 139.703 220.678 139.682 220.719C139.66 220.759 139.623 220.789 139.58 220.802C139.536 220.815 139.489 220.81 139.448 220.789C138.856 220.605 138.291 220.343 137.768 220.011C137.221 219.69 136.7 219.326 136.212 218.921C135.225 218.109 134.394 217.123 133.761 216.012C133.443 215.459 133.183 214.875 132.983 214.269C132.825 213.969 132.74 213.636 132.735 213.296C132.729 212.957 132.804 212.621 132.952 212.316Z" fill="#023A59"/>
<path d="M135.559 214.728C136.487 215.153 137.353 215.703 138.134 216.361C138.481 216.652 138.839 216.924 139.207 217.178C139.386 217.303 139.581 217.419 139.768 217.528C139.959 217.626 140.156 217.712 140.359 217.785C140.397 217.797 140.431 217.82 140.455 217.852C140.479 217.885 140.492 217.924 140.492 217.964C140.492 218.004 140.479 218.043 140.455 218.076C140.431 218.108 140.397 218.131 140.359 218.143C139.433 218.369 138.461 217.762 137.76 217.233C136.877 216.592 136.091 215.827 135.426 214.961C135.317 214.883 135.411 214.728 135.559 214.728Z" fill="#023A59"/>
<path d="M74.7431 217.583C74.7393 217.601 74.7393 217.62 74.7431 217.638C74.7484 217.701 74.774 217.761 74.816 217.809C74.858 217.856 74.9143 217.889 74.9765 217.902C75.2058 217.961 75.4403 217.998 75.6767 218.011C76.4991 218.024 77.3191 217.919 78.1118 217.7C79.2217 217.437 80.3012 217.059 81.3327 216.572C83.3492 215.597 85.2148 214.336 86.8721 212.83C92.5126 207.897 96.4804 200.872 98.6666 191.933C98.8066 191.341 98.9544 190.742 99.0945 190.151C99.8725 186.922 100.65 183.592 102.44 180.815C103.381 179.347 104.662 178.127 106.174 177.26C107.75 176.469 109.501 176.094 111.262 176.17C111.353 176.166 111.44 176.132 111.509 176.074C111.579 176.015 111.627 175.936 111.646 175.847C111.666 175.758 111.656 175.666 111.617 175.584C111.579 175.501 111.514 175.434 111.434 175.392C109.419 174.404 106.913 175.338 105.933 175.781C104.195 176.607 102.672 177.824 101.483 179.337C99.1489 182.223 98.2776 185.926 97.4373 189.505L97.2195 190.4C96.3219 194.443 94.9346 198.362 93.0883 202.07C91.1902 205.709 88.6463 208.973 85.5806 211.702C84.0966 213.064 82.4441 214.23 80.6636 215.171C79.7492 215.631 78.8028 216.023 77.8317 216.346C77.505 216.455 77.1704 216.541 76.8359 216.634C76.1783 216.788 75.5393 217.012 74.9298 217.303C74.8762 217.329 74.8305 217.368 74.7976 217.417C74.7647 217.467 74.7458 217.524 74.7431 217.583Z" fill="#023A59"/>
<path d="M94.263 213.172C94.2585 213.232 94.2706 213.292 94.2981 213.346C94.3255 213.399 94.3672 213.444 94.4186 213.476C94.464 213.509 94.5181 213.528 94.5742 213.53C94.6309 213.533 94.6872 213.52 94.7377 213.494C94.7882 213.468 94.831 213.43 94.862 213.382C95.5441 212.541 96.4424 211.901 97.4606 211.531C98.3786 211.103 99.3355 210.753 100.261 210.371L100.681 210.2C103.226 209.204 105.295 208.318 107.193 207.407C115.611 203.369 120.629 198.141 122.131 191.847C122.984 188.491 122.562 184.937 120.948 181.873C120.216 180.415 119.187 179.125 117.928 178.087C116.669 177.049 115.207 176.285 113.635 175.844C113.542 175.82 113.444 175.83 113.358 175.873C113.272 175.916 113.205 175.988 113.168 176.077C113.131 176.158 113.126 176.25 113.153 176.335C113.181 176.42 113.239 176.492 113.316 176.536C116.331 178.283 118.688 180.973 120.023 184.192C121.726 188.704 120.902 196.08 112.951 202.047C109.977 204.147 106.775 205.901 103.404 207.275C101.724 208.014 99.8257 208.831 98.0052 209.819C97.2513 210.198 96.5327 210.643 95.8579 211.149C95.2375 211.673 94.7113 212.3 94.3019 213.001C94.2709 213.052 94.2573 213.112 94.263 213.172Z" fill="#023A59"/>
<path d="M72.253 219.162C73.3965 219.85 74.6935 220.24 76.0263 220.298C78.4663 220.335 80.8757 219.752 83.0283 218.602C86.2304 216.91 89.1344 214.705 91.6252 212.075C91.8664 211.826 92.092 211.569 92.3254 211.297L92.5354 211.071C92.5912 211.045 92.6414 211.008 92.6833 210.962C94.6516 209.002 97.3513 207.913 99.942 206.855C100.844 206.489 101.786 206.077 102.665 205.703C107.014 203.68 109.978 201.673 112.266 199.183C114.585 196.78 116.048 193.679 116.428 190.361C116.7 187.482 116.023 183.468 113.246 181.601C110.468 179.733 106.952 181.064 104.89 183.312C102.494 185.934 101.272 189.637 100.284 192.648L99.942 193.699C99.0433 196.707 97.893 199.635 96.5032 202.451C94.9667 205.36 93.0431 208.048 90.7849 210.441C88.5389 212.821 85.9791 214.883 83.1761 216.572C79.4884 218.773 75.894 219.443 72.5097 218.587H72.4475C72.3771 218.584 72.3074 218.603 72.2477 218.64C72.1881 218.678 72.1411 218.732 72.1129 218.797C72.0909 218.865 72.0927 218.938 72.1182 219.004C72.1437 219.071 72.1913 219.127 72.253 219.162ZM95.8264 206.948C96.3865 206.17 96.8767 205.392 97.3124 204.614C98.9367 201.728 100.241 198.673 101.202 195.504C101.366 194.998 101.521 194.492 101.693 193.948C102.587 191.116 103.513 188.183 105.155 185.708C105.94 184.387 107.118 183.343 108.523 182.721C109.164 182.469 109.851 182.355 110.538 182.386C111.36 182.417 112.143 182.74 112.748 183.297C115.082 185.475 115.23 189.466 114.304 192.454C113.25 195.454 111.324 198.071 108.772 199.969C105.886 202.264 102.47 203.797 99.4363 205.151L99.1484 205.275C98.067 205.843 96.9078 206.364 95.8264 206.948Z" fill="#023A59"/>
<path d="M100.891 201.767C100.873 201.835 100.875 201.908 100.897 201.976C100.919 202.044 100.96 202.103 101.016 202.148C101.073 202.195 101.144 202.222 101.218 202.226C101.268 202.229 101.317 202.221 101.363 202.202C101.409 202.183 101.45 202.154 101.483 202.117C101.654 201.946 102.914 201.043 103.521 200.631C103.716 200.499 103.918 200.374 104.112 200.234C104.525 199.962 104.953 199.682 105.357 199.37C106.57 198.452 107.71 197.44 108.765 196.344C110.803 194.205 111.76 192.065 111.589 189.972C111.586 189.456 111.439 188.95 111.164 188.513C110.889 188.076 110.497 187.724 110.033 187.498C109.468 187.309 108.858 187.304 108.29 187.484C107.722 187.665 107.226 188.021 106.874 188.502C106.167 189.445 105.615 190.496 105.241 191.614C104.883 192.516 104.564 193.458 104.245 194.36L103.988 195.091C103.113 197.269 102.091 199.385 100.93 201.424C100.893 201.473 100.87 201.53 100.863 201.59C100.857 201.65 100.866 201.711 100.891 201.767ZM104.867 196.383C105.601 194.465 106.464 192.599 107.45 190.797L107.497 190.719C107.761 190.252 108.391 189.163 108.998 189.039H109.131C109.259 189.049 109.38 189.098 109.481 189.179C110.01 189.591 109.932 190.735 109.683 191.598C109.107 193.668 107.349 195.34 105.98 196.686L104.89 197.729C104.517 198.079 104.151 198.437 103.786 198.795C104.252 197.931 104.587 197.083 104.867 196.383Z" fill="#023A59"/>
<path d="M105.808 236.87C104.464 239.539 103.259 242.276 102.198 245.07C102.196 245.088 102.199 245.107 102.207 245.123C102.216 245.139 102.23 245.152 102.246 245.16C102.263 245.167 102.281 245.17 102.299 245.166C102.317 245.163 102.334 245.154 102.346 245.14C103.863 242.884 105.123 240.472 106.547 238.138C107.481 236.636 109.169 233.128 111.449 233.696C112.406 233.929 113.09 234.987 113.619 235.742C114.313 236.785 115.066 237.788 115.875 238.745C117.12 240.161 119.454 242.012 121.493 241.515C121.586 241.515 121.64 241.343 121.547 241.297C121.002 241.009 120.427 240.83 119.89 240.519C119.298 240.185 118.749 239.78 118.256 239.313C117.304 238.341 116.464 237.266 115.751 236.107C114.584 234.302 113.222 231.922 110.686 232.217C108.337 232.49 106.734 234.956 105.808 236.87Z" fill="#023A59"/>
<path d="M72.1438 221.178C74.61 224.422 79.0213 223.846 82.2111 222.119C84.0493 221.051 85.7839 219.814 87.3926 218.424C89.0942 216.989 90.9163 215.703 92.8386 214.58C92.8623 214.573 92.8822 214.557 92.8939 214.535C92.9055 214.513 92.908 214.487 92.9008 214.464C92.8936 214.44 92.8772 214.42 92.8553 214.408C92.8335 214.397 92.8078 214.394 92.7841 214.402C88.8396 215.032 85.9922 218.292 82.779 220.345C79.7604 222.29 75.3802 223.457 72.2682 220.999C72.1904 220.906 72.066 221.077 72.1438 221.178Z" fill="#023A59"/>
<path d="M136.375 227.323C136.624 227.323 136.725 226.95 136.469 226.888C132.485 225.9 129.342 222.912 127.413 219.357C125.668 216.116 124.661 212.529 124.464 208.854C124.284 206.089 124.693 203.318 125.662 200.723C125.918 199.858 126.365 199.06 126.969 198.389C127.106 198.216 127.279 198.073 127.475 197.972C127.671 197.87 127.887 197.811 128.108 197.799C128.329 197.788 128.55 197.823 128.756 197.903C128.962 197.984 129.149 198.107 129.303 198.265C129.729 198.856 130.111 199.478 130.447 200.124C131.363 201.498 132.582 202.642 134.01 203.47C135.431 204.296 137.035 204.759 138.678 204.816C140.423 204.861 142.145 204.416 143.65 203.532C143.751 203.47 143.704 203.275 143.58 203.314C141.506 203.947 139.291 203.953 137.215 203.33C135.138 202.707 133.292 201.483 131.91 199.813C130.96 198.592 130.447 196.701 128.634 196.561C126.821 196.421 125.561 197.868 124.845 199.37C123.252 202.968 122.728 206.949 123.336 210.837C124.293 217.692 128.416 226.958 136.375 227.323Z" fill="#023A59"/>
<path d="M107.589 242.487C107.339 243.196 107.226 243.945 107.254 244.696C107.26 244.719 107.272 244.739 107.289 244.755C107.305 244.771 107.326 244.782 107.349 244.787C107.371 244.792 107.395 244.79 107.417 244.782C107.439 244.775 107.458 244.761 107.472 244.743C107.833 244.177 108.108 243.561 108.289 242.915C108.53 242.246 108.779 241.576 109.067 240.923C109.351 240.266 109.684 239.631 110.063 239.025C110.188 238.758 110.356 238.513 110.561 238.301L110.615 238.262L110.74 238.387C110.857 238.498 110.966 238.618 111.067 238.745C111.857 239.83 112.709 240.869 113.618 241.857C114.396 242.58 115.633 243.366 116.73 243.117C116.745 243.11 116.758 243.099 116.767 243.085C116.776 243.072 116.78 243.056 116.78 243.039C116.78 243.023 116.776 243.007 116.767 242.993C116.758 242.979 116.745 242.968 116.73 242.961C116.106 242.641 115.527 242.238 115.011 241.763C114.53 241.264 114.095 240.723 113.712 240.145C113.268 239.538 112.871 238.892 112.389 238.309C111.907 237.725 111.37 236.971 110.6 236.971C109.83 236.971 109.464 237.663 109.16 238.216C108.791 238.875 108.479 239.565 108.227 240.277C108.017 241.009 107.783 241.74 107.589 242.487Z" fill="#023A59"/>
<path d="M138.235 223.13C138.265 223.14 138.297 223.138 138.326 223.126C138.355 223.113 138.378 223.091 138.392 223.063C138.406 223.035 138.41 223.003 138.402 222.973C138.395 222.942 138.377 222.915 138.352 222.897C137.396 222.09 136.511 221.202 135.707 220.244C134.941 219.246 134.229 218.207 133.575 217.132C132.272 215.281 131.157 213.306 130.245 211.235C129.774 210.229 129.53 209.132 129.529 208.022C129.677 206.466 131.241 207.601 131.918 208.185C132.671 208.922 133.477 209.604 134.329 210.223C136.023 211.313 138.034 211.804 140.04 211.616C141.005 211.444 141.933 211.11 142.786 210.628C142.981 210.542 142.841 210.278 142.646 210.34C141.883 210.527 141.097 210.6 140.312 210.558C139.667 210.57 139.022 210.531 138.383 210.441C137.054 210.234 135.79 209.725 134.687 208.955C133.365 208.014 130.937 204.855 129.086 206.38C127.483 207.695 128.72 210.752 129.366 212.246C130.434 214.513 131.738 216.662 133.256 218.657C134.501 220.368 136.15 222.415 138.235 223.13Z" fill="#023A59"/>
<path d="M77.1085 229.082C78.8041 229.42 80.5646 229.123 82.0565 228.25C82.3755 228.079 82.6712 227.884 82.9824 227.69C82.819 227.876 82.6634 228.055 82.5156 228.242C81.4469 229.547 80.777 231.133 80.5861 232.809C80.5856 232.832 80.5922 232.854 80.6051 232.873C80.6181 232.892 80.6366 232.906 80.6581 232.914C80.6796 232.922 80.7031 232.923 80.725 232.916C80.747 232.91 80.7665 232.897 80.7806 232.879C81.652 231.548 82.5467 230.21 83.5425 228.989C84.5384 227.767 85.6976 226.562 86.6545 225.278C86.6917 225.221 86.7114 225.154 86.7115 225.087C86.7115 225.019 86.6917 224.952 86.6546 224.895C86.6175 224.838 86.5646 224.793 86.5024 224.766C86.4403 224.739 86.3715 224.73 86.3044 224.741C84.6551 225.114 83.418 226.297 81.9554 227.075C80.4078 227.885 78.7742 228.52 77.0851 228.966C77.0229 228.966 77.0229 229.067 77.1085 229.082Z" fill="#023A59"/>
<path d="M95.1662 236.364C94.2814 238.012 93.5018 239.714 92.8322 241.46C92.8105 241.502 92.8066 241.552 92.8212 241.597C92.8357 241.642 92.8677 241.68 92.91 241.701C92.9523 241.723 93.0015 241.727 93.0467 241.712C93.0919 241.698 93.1295 241.666 93.1512 241.624C94.4738 239.842 95.5396 237.866 96.7689 236.014C97.9981 234.163 99.2196 232.482 100.558 230.794C102.685 228.046 105.263 225.678 108.182 223.792C108.93 223.314 109.71 222.888 110.516 222.516C111.347 222.046 112.278 221.779 113.231 221.738C114.959 221.831 116.079 223.488 116.849 224.772C118.708 227.884 120.296 231.167 123.174 233.54C124.435 234.638 125.957 235.393 127.593 235.734C128.29 235.936 129.033 235.914 129.717 235.672C129.927 235.54 130.06 235.345 129.849 235.158C129.779 235.104 129.671 235.158 129.717 235.267C129.764 235.376 128.714 235.166 128.667 235.151L127.998 234.964C127.528 234.819 127.072 234.632 126.636 234.404C125.805 233.97 125.022 233.448 124.302 232.848C122.766 231.475 121.477 229.848 120.49 228.04C119.595 226.523 118.802 224.928 117.806 223.473C117.031 222.159 115.848 221.135 114.437 220.555C112.663 219.98 110.866 220.618 109.264 221.333C107.718 222.033 106.254 222.902 104.899 223.924C102.136 226.02 99.7653 228.588 97.897 231.51C96.9026 233.079 95.9911 234.699 95.1662 236.364Z" fill="#023A59"/>
<path d="M99.6225 239.833C99.0757 241.133 98.689 242.494 98.4711 243.887C98.4691 243.91 98.4748 243.932 98.4872 243.951C98.4997 243.97 98.5183 243.985 98.5399 243.992C98.5615 243.999 98.5849 243.999 98.6063 243.991C98.6277 243.983 98.6458 243.968 98.6578 243.949C99.4358 242.595 99.9804 241.094 100.79 239.74C101.599 238.386 102.346 237.048 103.124 235.749C104.579 233.415 106.265 231.234 108.157 229.237C109.052 228.327 110.102 227.549 111.409 227.681C112.635 227.93 113.736 228.598 114.521 229.572C116.28 231.54 117.089 234.24 118.901 236.169C119.705 237.05 120.707 237.726 121.825 238.14C122.943 238.554 124.144 238.695 125.328 238.55C125.405 238.55 125.429 238.386 125.328 238.363C123.804 237.999 122.377 237.311 121.142 236.348C119.938 235.315 118.947 234.057 118.225 232.645C116.886 230.311 115.587 227.774 113.059 226.607C111.95 226.075 110.677 225.997 109.511 226.39C108.296 226.919 107.228 227.736 106.399 228.77C104.422 230.913 102.721 233.294 101.334 235.858C100.67 237.141 100.098 238.469 99.6225 239.833Z" fill="#023A59"/>
<path d="M88.3648 238.519C88.3461 238.581 88.3508 238.647 88.378 238.706C88.4053 238.765 88.4532 238.812 88.5126 238.838H88.6137C88.658 238.838 88.7017 238.828 88.741 238.807C88.7803 238.787 88.8141 238.757 88.8394 238.721C90.0164 236.88 91.2916 235.103 92.6593 233.399C94.0965 231.651 95.6316 229.986 97.2573 228.412C99.9511 225.661 102.829 223.095 105.87 220.734C107.37 219.59 109 218.627 110.725 217.863C112.366 217.147 114.615 216.174 116.171 217.559C117.074 218.496 117.789 219.598 118.279 220.804C118.497 221.255 118.715 221.69 118.94 222.103C119.886 223.86 120.998 225.522 122.262 227.066C123.489 228.573 124.959 229.864 126.611 230.886C128.191 231.882 129.992 232.47 131.855 232.598C131.919 232.605 131.983 232.587 132.033 232.548C132.084 232.508 132.118 232.451 132.127 232.388C132.144 232.327 132.137 232.262 132.106 232.207C132.075 232.152 132.024 232.11 131.964 232.092C126.79 230.28 123.468 226.32 121.601 223.317C121.08 222.476 120.605 221.566 120.162 220.695C119.718 219.823 119.259 218.944 118.73 218.104C117.602 216.276 116.155 215.342 114.459 215.288C112.421 215.233 110.304 216.12 108.694 216.882C106.924 217.737 105.252 218.78 103.707 219.994C100.581 222.536 97.6646 225.325 94.9856 228.335C92.2081 231.33 89.4695 234.644 88.3648 238.519Z" fill="#023A59"/>
<path d="M136.929 225.69C137.185 225.814 137.341 225.433 137.146 225.278C134.541 223.296 132.294 220.883 130.502 218.143C129.035 215.756 128.022 213.119 127.515 210.363C127.246 208.953 127.108 207.52 127.102 206.084C127.102 205.034 126.83 202.381 128.371 202.373C129.911 202.365 130.759 204.217 131.654 205.104C132.676 206.141 133.881 206.98 135.209 207.578C136.526 208.195 137.992 208.422 139.434 208.234C140.876 208.045 142.233 207.447 143.347 206.512C143.365 206.498 143.377 206.477 143.38 206.454C143.384 206.432 143.379 206.408 143.366 206.389C143.354 206.37 143.334 206.356 143.312 206.35C143.29 206.344 143.266 206.346 143.246 206.357C139.823 208.263 135.334 206.777 132.688 204.225C131.615 203.198 130.743 201.712 129.219 201.3C128.91 201.179 128.58 201.126 128.249 201.143C127.918 201.16 127.595 201.247 127.301 201.399C127.007 201.55 126.748 201.763 126.542 202.022C126.336 202.281 126.188 202.581 126.107 202.902C125.797 204.335 125.707 205.807 125.842 207.267C125.913 208.746 126.137 210.214 126.511 211.647C128.044 217.342 131.576 222.982 136.929 225.69Z" fill="#023A59"/>
<path d="M86.1722 232.988C85.55 234.061 85.0861 235.22 84.7952 236.426C84.7648 236.569 84.7845 236.719 84.8511 236.849C84.9177 236.979 85.027 237.083 85.1608 237.142C85.2188 237.162 85.2789 237.175 85.3398 237.181C85.4358 237.185 85.5312 237.164 85.616 237.119C85.7009 237.073 85.7721 237.006 85.8221 236.924C86.2811 236.216 86.7168 235.493 87.1525 234.777C88.0802 233.168 89.1201 231.626 90.2645 230.163C91.969 228.103 93.8203 226.168 95.8039 224.375C99.8112 221.027 104.006 217.91 108.369 215.039C114.593 210.9 118.864 208.714 119.844 209.165C120.513 209.476 120.544 210.589 120.575 211.499C120.575 211.759 120.588 212.019 120.614 212.277C120.774 213.552 121.002 214.816 121.299 216.066C121.821 218.46 122.722 220.756 123.967 222.866C125.113 224.786 126.667 226.43 128.519 227.682C129.53 228.343 132.152 229.829 134.564 229.37C134.627 229.345 134.681 229.303 134.72 229.248C134.76 229.193 134.782 229.128 134.786 229.061C134.789 228.994 134.773 228.927 134.739 228.868C134.705 228.81 134.655 228.762 134.595 228.732C134.198 228.576 133.817 228.436 133.42 228.296C132.586 228.013 131.772 227.672 130.985 227.277C129.848 226.663 128.801 225.896 127.873 224.997C125.987 223.098 124.567 220.786 123.726 218.244C122.942 215.767 122.421 213.214 122.17 210.628C122.164 210.076 122.032 209.534 121.785 209.041C121.539 208.547 121.184 208.117 120.747 207.78C119.828 207.181 118.249 207.594 117.471 207.928C113.005 209.842 98.6591 219.007 92.9408 224.313C91.162 226.003 89.5589 227.87 88.1561 229.883C87.4379 230.881 86.7756 231.917 86.1722 232.988Z" fill="#023A59"/>
<path d="M74.8121 225.666C77.8074 226.965 81.3551 225.666 84.0859 224.313C86.8166 222.959 89.0651 221.13 91.6247 219.645C92.286 219.271 92.9473 218.921 93.6319 218.602C93.9742 218.446 94.3243 218.299 94.6744 218.166C94.8534 218.096 95.0634 217.964 95.2502 218.026C95.4369 218.089 95.4758 218.026 95.328 218.174C95.1801 218.322 95.2346 218.306 95.1801 218.369C94.2932 219.473 92.9006 220.267 91.8347 221.185C89.6547 223.027 87.673 225.093 85.9219 227.347C84.2726 229.486 82.5532 231.945 82.0319 234.644C82.0319 234.777 82.1875 234.823 82.2576 234.73C83.3079 233.298 84.187 231.742 85.2295 230.303C86.2533 228.9 87.3848 227.578 88.6138 226.351C89.7108 225.246 90.8545 224.18 92.0137 223.146C93.1729 222.111 94.3944 221.224 95.4369 220.127C96.1604 219.349 97.4519 217.793 96.0359 217.015C94.8923 216.392 93.1962 217.458 92.1848 217.964C89.3218 219.396 86.7388 221.333 83.9536 222.873C82.5204 223.682 80.9983 224.321 79.4179 224.779C77.9107 225.165 76.3667 225.389 74.8121 225.448C74.6876 225.456 74.6876 225.62 74.8121 225.666Z" fill="#023A59"/>
<path d="M110.539 240.837C110.538 240.809 110.538 240.78 110.539 240.752C110.548 240.725 110.564 240.701 110.584 240.681C110.604 240.661 110.629 240.646 110.656 240.637C110.683 240.628 110.712 240.625 110.74 240.629C110.768 240.632 110.795 240.643 110.819 240.658L110.881 240.697C111.154 240.799 111.332 241.195 111.434 241.429C111.535 241.662 111.69 242.012 111.823 242.292C112.079 242.852 112.305 243.428 112.601 243.981C112.616 244.005 112.623 244.034 112.619 244.062C112.614 244.091 112.6 244.117 112.578 244.135C112.555 244.153 112.527 244.163 112.498 244.162C112.47 244.16 112.442 244.149 112.422 244.128C111.87 243.753 111.399 243.272 111.037 242.712C110.874 242.44 110.731 242.157 110.609 241.864C110.532 241.681 110.483 241.487 110.461 241.289C110.438 241.134 110.465 240.976 110.539 240.837Z" fill="#023A59"/>
<path d="M49.5977 156.907H47.2637V129.63H74.5403V131.964H49.5977V156.907Z" fill="#46B2C8"/>
<path d="M167.185 249.543H139.908V247.209H164.851V222.267H167.185V249.543Z" fill="#46B2C8"/>
<path d="M74.5403 249.543H47.2637V222.267H49.5977V247.209H74.5403V249.543Z" fill="#46B2C8"/>
<path d="M167.185 156.907H164.851V131.964H139.908V129.63H167.185V156.907Z" fill="#46B2C8"/>
<path d="M173.192 255.558H171.348V254.974H172.608V253.714H173.192V255.558Z" fill="#46B2C8"/>
<path d="M168.22 255.557H165.108V254.974H168.22V255.557ZM161.996 255.557H158.884V254.974H161.996V255.557ZM155.772 255.557H152.66V254.974H155.772V255.557ZM149.548 255.557H146.436V254.974H149.548V255.557ZM143.324 255.557H140.212V254.974H143.324V255.557ZM137.1 255.557H133.988V254.974H137.1V255.557ZM130.876 255.557H127.764V254.974H130.876V255.557ZM124.652 255.557H121.54V254.974H124.652V255.557ZM118.428 255.557H115.316V254.974H118.428V255.557ZM112.204 255.557H109.092V254.974H112.204V255.557ZM105.98 255.557H102.868V254.974H105.98V255.557ZM99.7556 255.557H96.6436V254.974H99.7556V255.557ZM93.5316 255.557H90.4196V254.974H93.5316V255.557ZM87.3076 255.557H84.1956V254.974H87.3076V255.557ZM81.0836 255.557H77.9716V254.974H81.0836V255.557ZM74.8596 255.557H71.7476V254.974H74.8596V255.557ZM68.6356 255.557H65.5236V254.974H68.6356V255.557ZM62.4116 255.557H59.2996V254.974H62.4116V255.557ZM56.1876 255.557H53.0756V254.974H56.1876V255.557ZM49.9636 255.557H46.8516V254.974H49.9636V255.557Z" fill="#46B2C8"/>
<path d="M43.1017 255.558H41.2578V253.714H41.8413V254.974H43.1017V255.558Z" fill="#46B2C8"/>
<path d="M41.8412 250.578H41.2344V247.466H41.8179L41.8412 250.578ZM41.8412 244.354H41.2344V241.242H41.8179L41.8412 244.354ZM41.8412 238.13H41.2344V235.018H41.8179L41.8412 238.13ZM41.8412 231.906H41.2344V228.794H41.8179L41.8412 231.906ZM41.8412 225.682H41.2344V222.57H41.8179L41.8412 225.682ZM41.8412 219.458H41.2344V216.346H41.8179L41.8412 219.458ZM41.8412 213.234H41.2344V210.122H41.8179L41.8412 213.234ZM41.8412 207.01H41.2344V203.898H41.8179L41.8412 207.01ZM41.8412 200.786H41.2344V197.674H41.8179L41.8412 200.786ZM41.8412 194.562H41.2344V191.45H41.8179L41.8412 194.562ZM41.8412 188.338H41.2344V185.226H41.8179L41.8412 188.338ZM41.8412 182.114H41.2344V179.002H41.8179L41.8412 182.114ZM41.8412 175.89H41.2344V172.778H41.8179L41.8412 175.89ZM41.8412 169.666H41.2344V166.554H41.8179L41.8412 169.666ZM41.8412 163.442H41.2344V160.33H41.8179L41.8412 163.442ZM41.8412 157.179H41.2344V154.067H41.8179L41.8412 157.179ZM41.8412 150.955H41.2344V147.843H41.8179L41.8412 150.955ZM41.8412 144.731H41.2344V141.619H41.8179L41.8412 144.731ZM41.8412 138.507H41.2344V135.395H41.8179L41.8412 138.507ZM41.8412 132.283H41.2344V129.171H41.8179L41.8412 132.283Z" fill="#46B2C8"/>
<path d="M41.8413 125.468H41.2578V123.624H43.1017V124.208H41.8413V125.468Z" fill="#46B2C8"/>
<path d="M168.22 124.208H165.108V123.624H168.22V124.208ZM161.996 124.208H158.884V123.624H161.996V124.208ZM155.772 124.208H152.66V123.624H155.772V124.208ZM149.548 124.208H146.436V123.624H149.548V124.208ZM143.324 124.208H140.212V123.624H143.324V124.208ZM137.1 124.208H133.988V123.624H137.1V124.208ZM130.876 124.208H127.764V123.624H130.876V124.208ZM124.652 124.208H121.54V123.624H124.652V124.208ZM118.428 124.208H115.316V123.624H118.428V124.208ZM112.204 124.208H109.092V123.624H112.204V124.208ZM105.98 124.208H102.868V123.624H105.98V124.208ZM99.7556 124.208H96.6436V123.624H99.7556V124.208ZM93.5316 124.208H90.4196V123.624H93.5316V124.208ZM87.3076 124.208H84.1956V123.624H87.3076V124.208ZM81.0836 124.208H77.9716V123.624H81.0836V124.208ZM74.8596 124.208H71.7476V123.624H74.8596V124.208ZM68.6356 124.208H65.5236V123.624H68.6356V124.208ZM62.4116 124.208H59.2996V123.624H62.4116V124.208ZM56.1876 124.208H53.0756V123.624H56.1876V124.208ZM49.9636 124.208H46.8516V123.624H49.9636V124.208Z" fill="#46B2C8"/>
<path d="M173.192 125.468H172.608V124.208H171.348V123.624H173.192V125.468Z" fill="#46B2C8"/>
<path d="M173.191 250.578H172.607V247.466H173.191V250.578ZM173.191 244.354H172.607V241.242H173.191V244.354ZM173.191 238.13H172.607V235.018H173.191V238.13ZM173.191 231.906H172.607V228.794H173.191V231.906ZM173.191 225.682H172.607V222.57H173.191V225.682ZM173.191 219.458H172.607V216.346H173.191V219.458ZM173.191 213.234H172.607V210.122H173.191V213.234ZM173.191 207.01H172.607V203.898H173.191V207.01ZM173.191 200.786H172.607V197.674H173.191V200.786ZM173.191 194.562H172.607V191.45H173.191V194.562ZM173.191 188.338H172.607V185.226H173.191V188.338ZM173.191 182.114H172.607V179.002H173.191V182.114ZM173.191 175.89H172.607V172.778H173.191V175.89ZM173.191 169.666H172.607V166.554H173.191V169.666ZM173.191 163.442H172.607V160.33H173.191V163.442ZM173.191 157.179H172.607V154.067H173.191V157.179ZM173.191 150.955H172.607V147.843H173.191V150.955ZM173.191 144.731H172.607V141.619H173.191V144.731ZM173.191 138.507H172.607V135.395H173.191V138.507ZM173.191 132.283H172.607V129.171H173.191V132.283Z" fill="#46B2C8"/>
<path d="M211.127 345.432H282.967C283.559 343.098 284.127 340.842 284.702 338.601C285.356 336.008 285.996 333.495 286.624 331.062C286.756 330.518 286.904 329.973 287.044 329.436C287.519 327.561 287.978 325.733 288.437 323.99C288.709 322.901 288.981 321.835 289.215 320.785C289.448 319.735 289.759 318.653 289.993 317.626C290.063 317.354 290.133 317.074 290.203 316.848C290.273 316.623 290.351 316.249 290.421 315.961L290.693 314.895C290.794 314.522 290.888 314.156 290.973 313.791C291.16 313.098 291.331 312.421 291.494 311.752C291.751 310.772 291.992 309.807 292.233 308.866C292.335 308.461 292.444 308.049 292.545 307.652C292.716 306.991 292.879 306.353 293.035 305.731C293.144 305.31 293.245 304.898 293.346 304.501C293.774 302.852 294.163 301.304 294.529 299.833C294.63 299.452 294.715 299.055 294.816 298.713C294.972 298.083 295.128 297.484 295.275 296.9C295.377 296.535 295.462 296.185 295.548 295.834C295.867 294.597 296.155 293.5 296.404 292.481C296.474 292.217 296.536 291.96 296.606 291.703L297.049 289.945C297.104 289.743 297.15 289.54 297.205 289.354C297.259 289.167 297.306 288.957 297.345 288.786C297.384 288.615 297.415 288.529 297.438 288.42C297.462 288.311 297.532 288.07 297.571 287.93C297.582 287.856 297.6 287.783 297.625 287.712L297.788 287.059H227.955C227.955 287.059 225.621 295.002 221.964 307.8C221.186 310.406 220.408 313.246 219.545 316.202C217.063 324.659 214.208 334.618 211.127 345.432Z" fill="#37474F"/>
<path d="M271.203 345.432H272.993C275.653 334.426 278.231 323.402 280.726 312.359C281.327 309.673 281.921 306.984 282.507 304.292L282.671 303.514C282.675 303.487 282.67 303.459 282.655 303.436C282.64 303.414 282.617 303.397 282.591 303.39C282.564 303.383 282.536 303.387 282.512 303.399C282.488 303.412 282.47 303.434 282.461 303.459L282.391 303.708C281.582 306.592 280.778 309.483 279.979 312.383C276.968 323.353 274.043 334.369 271.203 345.432Z" fill="#023A59"/>
<path d="M230.188 286.989L233.299 302.44L235.805 315.091L240.115 336.68L240.558 338.897L241.297 342.585L241.85 345.378H282.975C283.558 343.044 284.134 340.78 284.702 338.547C285.355 335.954 285.996 333.441 286.624 331.008C286.756 330.464 286.904 329.919 287.044 329.382C287.518 327.507 287.977 325.679 288.436 323.936C288.709 322.847 288.981 321.781 289.214 320.731C289.448 319.681 289.759 318.599 289.992 317.572C290.062 317.3 290.132 317.02 290.202 316.794C290.272 316.569 290.35 316.195 290.42 315.908L290.693 314.842C290.794 314.468 290.887 314.103 290.973 313.737C291.159 313.044 291.331 312.368 291.494 311.699C291.751 310.718 291.992 309.754 292.233 308.812C292.342 308.4 292.443 307.995 292.544 307.598C292.715 306.937 292.879 306.299 293.034 305.677C293.143 305.257 293.244 304.844 293.346 304.448C293.773 302.798 294.162 301.25 294.528 299.78C294.629 299.398 294.715 299.002 294.816 298.659C294.972 298.029 295.127 297.43 295.275 296.847C295.376 296.481 295.462 296.131 295.547 295.781C295.866 294.544 296.154 293.447 296.403 292.427C296.473 292.163 296.535 291.906 296.605 291.649L297.049 289.891C297.103 289.689 297.15 289.487 297.204 289.3C297.259 289.113 297.306 288.903 297.344 288.732C297.383 288.561 297.414 288.475 297.438 288.366C297.461 288.257 297.531 288.016 297.57 287.876C297.582 287.802 297.6 287.729 297.625 287.658L297.788 287.005L230.188 286.989Z" fill="#023A59"/>
<path d="M230.18 286.966C230.18 287.355 230.475 291.525 231.144 297.858C231.339 299.717 231.565 301.748 231.829 303.942C232.241 307.396 232.747 311.2 233.385 315.223C234.459 322.225 235.859 329.896 237.68 337.38C238.325 340.072 239.041 342.74 239.796 345.354H330.044C328.978 331.599 328.005 319.159 327.235 309.356C326.146 295.555 325.461 286.911 325.461 286.911H243.585L230.18 286.966Z" fill="#37474F"/>
<path d="M230.375 295.259C230.476 298.488 230.608 301.717 230.818 304.93C231.036 308.415 231.355 311.893 231.814 315.371C231.823 315.498 231.838 315.626 231.861 315.752C232.291 319.009 232.779 322.259 233.324 325.5C233.845 328.519 234.226 331.779 235.564 334.579C236.071 335.659 236.788 336.627 237.673 337.427C238.488 338.168 239.483 338.683 240.559 338.921C240.735 338.965 240.915 338.993 241.096 339.006C241.143 339.006 241.197 339.006 241.251 339.006C241.218 339.023 241.19 339.05 241.172 339.084C241.154 339.117 241.146 339.155 241.15 339.193C241.189 340.274 241.15 341.379 241.283 342.453C241.283 342.5 241.283 342.546 241.283 342.593C241.391 343.526 241.563 344.452 241.734 345.386H243.29C243.29 345.386 243.29 345.386 243.29 345.331C243.018 344.312 242.792 343.285 242.512 342.219C242.232 341.154 241.889 340.15 241.648 339.107C241.636 339.065 241.608 339.029 241.57 339.006C242.554 339.056 243.53 338.802 244.365 338.278C245.2 337.755 245.854 336.988 246.238 336.081C246.63 334.698 246.656 333.237 246.316 331.841L245.476 326.294C244.947 322.902 244.27 319.541 243.663 316.18C243.578 315.666 243.484 315.153 243.391 314.624C242.185 307.754 240.917 300.877 239.4 294.069C239.345 293.789 239.275 293.509 239.213 293.221C239.151 292.933 238.871 293.089 238.886 293.268C238.933 293.727 238.98 294.186 239.034 294.645C239.299 297.259 239.61 299.857 239.968 302.425C240.403 305.474 240.707 308.54 241.135 311.59L241.578 314.702C242.278 319.72 243.01 324.738 243.866 329.733C244.27 332.067 245.717 336.213 242.372 336.937C241.607 337.107 240.806 337.005 240.108 336.649C238.633 335.772 237.528 334.39 236.996 332.759C236.047 330.098 235.712 327.173 235.222 324.403C234.667 321.348 234.179 318.286 233.759 315.215C233.215 311.387 232.655 307.56 232.048 303.74C231.752 301.787 231.441 299.85 231.13 297.889C230.99 296.994 230.842 296.092 230.694 295.189C230.671 295.01 230.375 295.065 230.375 295.259Z" fill="#023A59"/>
<path d="M310.244 319.253C306.486 319.216 302.746 318.714 299.111 317.759C297.431 317.323 295.773 316.786 294.132 316.25C292.501 315.795 290.974 315.029 289.635 313.993C287.106 311.807 285.924 308.368 284.827 305.319C283.626 301.877 282.652 298.361 281.909 294.792C281.871 294.613 281.614 294.668 281.606 294.839C281.535 298.88 282.059 302.909 283.162 306.797C284.072 310.096 285.294 313.799 287.962 316.133C290.763 318.56 294.575 319.416 298.162 319.859C302.197 320.33 306.277 320.275 310.299 319.696C310.328 319.692 310.356 319.683 310.381 319.669C310.407 319.654 310.429 319.635 310.447 319.612C310.466 319.589 310.479 319.562 310.487 319.534C310.495 319.506 310.497 319.476 310.493 319.447C310.49 319.418 310.48 319.39 310.466 319.364C310.451 319.339 310.432 319.316 310.409 319.298C310.386 319.28 310.359 319.267 310.331 319.259C310.303 319.251 310.273 319.249 310.244 319.253Z" fill="#023A59"/>
<path d="M316.5 294.862C316.702 299.919 316.915 304.976 317.138 310.033C317.657 321.812 318.225 333.591 318.842 345.37H320.538C319.76 333.56 318.943 321.763 318.087 309.979C317.714 304.927 317.33 299.886 316.936 294.855C316.935 294.797 316.911 294.742 316.869 294.702C316.828 294.662 316.772 294.64 316.714 294.641C316.656 294.642 316.601 294.666 316.561 294.707C316.521 294.749 316.499 294.805 316.5 294.862Z" fill="#023A59"/>
<path d="M240.2 182.954C204.646 215 171.682 250.096 169.099 268.005C165.528 292.808 180.769 299.693 187.615 299.756C206.225 299.942 240.045 224.523 251.808 195.729C263.229 167.768 248.011 175.914 240.2 182.954Z" fill="#D3766A"/>
<path d="M186.533 234.24L226.071 255.729C226.071 255.729 250.648 210.325 256.312 189.28C261.976 168.235 253.519 168.826 234.956 185.211C216.393 201.595 186.533 234.24 186.533 234.24Z" fill="#C7C7C7"/>
<path d="M186.533 234.24L226.071 255.729C226.071 255.729 250.648 210.325 256.312 189.28C261.976 168.235 253.519 168.826 234.956 185.211C216.393 201.595 186.533 234.24 186.533 234.24Z" fill="#46B2C8"/>
<path opacity="0.1" d="M256.313 189.272C250.649 210.325 226.064 255.737 226.064 255.737L190.066 236.163L256.368 173.845C258.577 175.541 258.67 180.543 256.313 189.272Z" fill="black"/>
<path d="M194.672 228.18C209.913 238.496 224.687 245.194 227.652 246.898C227.792 246.984 227.908 246.75 227.761 246.673C224.765 245.156 208.544 235.057 194.789 227.931C194.633 227.845 194.501 228.078 194.672 228.18Z" fill="#023A59"/>
<path d="M217.156 315.02L332.93 315.355C332.93 315.355 322.816 228.219 280.322 176.785C270.488 164.874 254.648 171.339 247.965 177.672C231.004 193.722 216.829 314.6 217.156 315.02Z" fill="#46B2C8"/>
<path d="M256.982 172.047C259.76 174.077 262.428 176.318 265.097 178.395L272.877 184.425C275.211 186.253 277.545 188.315 280.198 189.754C282.586 191.061 285.364 191.645 287.923 190.478C288.549 190.187 289.137 189.822 289.674 189.388L289.938 189.801C288.635 190.885 287.024 191.533 285.333 191.652C282.773 191.8 280.385 190.633 278.331 189.233C275.732 187.475 273.312 185.444 270.831 183.522C266.015 179.796 261.261 175.906 256.313 172.343C256.508 172.241 256.741 172.14 256.982 172.047ZM303.157 241.359C307.253 241.334 311.343 241.696 315.371 242.44C315.278 242.168 315.177 241.888 315.068 241.616C311.528 240.968 307.938 240.632 304.339 240.612C293.859 240.418 279.84 241.071 273.507 230.801C271.01 226.756 270.2 221.38 272.947 217.233C275.366 213.577 279.887 211.997 284.127 212.036C286.338 212.05 288.526 212.483 290.576 213.312C292.997 214.416 295.231 215.891 297.197 217.684C300.963 220.89 304.471 224.647 309.186 226.429L308.813 225.527C307.409 224.924 306.078 224.164 304.845 223.263C300.465 220.096 296.925 215.708 292.055 213.234C288.326 211.354 284.054 210.844 279.988 211.795C276.098 212.736 272.636 215.265 271.196 219.116C269.594 223.41 270.846 228.327 273.406 231.992C279.988 241.382 292.941 241.227 303.157 241.359ZM285.387 201.323C288.45 199.855 291.618 198.614 294.863 197.612C294.723 197.386 294.583 197.145 294.435 196.92C286.966 199.012 280.066 203.735 272.363 205.057C263.017 206.539 253.451 204.567 245.452 199.51C243.261 198.14 241.217 196.547 239.353 194.757C239.259 195.006 239.174 195.255 239.088 195.535C240.869 197.209 242.802 198.715 244.861 200.032C252.585 204.98 261.778 207.117 270.893 206.084C276.004 205.392 280.704 203.439 285.387 201.323ZM292.389 283.986C298.098 286.049 303.932 287.748 309.855 289.074C316.421 290.63 324.544 291.937 329.85 296.379C329.78 295.998 329.702 295.601 329.624 295.235C324.326 291.198 316.725 289.906 310.4 288.428C304.459 287.091 298.605 285.391 292.871 283.34C287.947 281.527 283.076 279.092 279.474 275.163C277.921 273.501 276.722 271.54 275.949 269.4C275.176 267.261 274.845 264.986 274.977 262.715C275.281 258.125 277.895 253.947 282.415 252.515C287.262 250.959 292.669 252.788 296.715 255.55C301.336 258.716 304.658 263.47 308.214 267.702C311.582 271.74 315.317 275.482 320.241 277.52C322.089 278.304 324.058 278.764 326.061 278.882C326.006 278.656 325.96 278.415 325.898 278.182C321.969 277.933 318.118 276.003 315.068 273.638C310.579 270.168 307.358 265.337 303.662 261.089C300.278 257.199 296.404 253.745 291.409 252.126C287.083 250.726 282.112 250.866 278.455 253.846C275.265 256.46 273.997 260.692 274.215 264.699C274.48 269.08 276.346 273.212 279.459 276.307C283.022 279.909 287.674 282.227 292.381 283.97L292.389 283.986ZM278.315 303.801C277.49 307.559 277.879 311.402 277.654 315.199H278.369C278.642 310.531 277.903 305.653 279.84 301.257C280.302 300.133 281.003 299.122 281.893 298.295C282.784 297.468 283.843 296.843 284.998 296.465C287.585 295.798 290.326 296.106 292.7 297.328C297.726 299.787 300.41 305.108 302.853 309.838C303.802 311.651 304.775 313.526 305.895 315.284H306.735C303.966 311.083 302.2 306.291 299.212 302.214C296.326 298.324 291.985 295.103 286.889 295.445C282.166 295.764 279.256 299.437 278.307 303.801H278.315ZM232.927 315.09H233.845C234.88 313.265 235.621 311.288 236.039 309.232C237.159 304.066 236.817 298.721 236.459 293.493C235.603 281.379 233.51 269.009 236.163 256.973C237.177 252.044 239.098 247.346 241.827 243.117C244.69 238.838 248.829 234.816 253.831 233.182C255.147 232.693 256.549 232.475 257.951 232.541C259.353 232.606 260.728 232.954 261.993 233.563C264.124 234.762 265.81 236.618 266.801 238.854C269.329 244.238 267.765 250.329 265.354 255.448C260.631 265.438 252.968 273.856 249.163 284.328C247.481 289.004 246.777 293.977 247.096 298.936C247.414 303.896 248.748 308.738 251.015 313.161C251.357 313.822 251.715 314.475 252.096 315.121H252.944C251.073 312.047 249.678 308.708 248.805 305.217C247.53 300.249 247.366 295.061 248.323 290.023C249.381 284.577 251.801 279.574 254.547 274.844C257.293 270.114 260.569 265.508 263.362 260.677C266.155 255.845 268.862 250.423 268.808 244.658C268.753 240.207 266.684 235.493 262.747 233.167C258.079 230.397 252.485 232.28 248.401 235.189C240.364 240.923 236.287 250.547 234.794 260.039C232.849 272.424 235.284 284.935 235.867 297.336C236.109 302.284 236.093 307.396 234.358 312.118C233.991 313.158 233.511 314.155 232.927 315.09ZM244.534 210.527C242.036 208.41 238.899 207.194 235.626 207.072C235.572 207.275 235.517 207.493 235.455 207.695C236.239 207.733 237.019 207.829 237.789 207.983C242.566 208.932 247.405 212.651 247.46 217.902C247.53 223.62 242.675 227.868 237.976 230.233C235.222 231.618 232.335 232.692 229.511 233.882C229.464 234.131 229.41 234.372 229.363 234.66C231.153 233.882 232.973 233.213 234.809 232.466C239.672 230.475 244.573 227.798 246.993 222.897C248.062 220.862 248.402 218.521 247.954 216.266C247.507 214.01 246.3 211.976 244.534 210.503V210.527Z" fill="white"/>
<path d="M288.453 180.675C322.172 206.559 357.33 250.516 357.882 275.864C358.403 300.915 344.329 298.426 341.964 297.648C316.913 289.868 286.726 220.353 275.538 192.057C264.429 163.995 280.082 174.272 288.453 180.675Z" fill="#D3766A"/>
<path d="M342.624 231.168L303.475 253.364C303.475 253.364 278.081 208.403 272.044 187.46C266.006 166.516 274.479 166.975 293.369 183.009C312.258 199.044 342.624 231.168 342.624 231.168Z" fill="#46B2C8"/>
<path d="M334.377 225.255C319.315 235.836 304.666 242.806 301.701 244.557C301.561 244.643 301.445 244.409 301.585 244.331C304.549 242.775 320.591 232.373 334.214 225.006C334.409 224.92 334.541 225.154 334.377 225.255Z" fill="#023A59"/>
<path d="M305.987 251.831C305.191 252.139 304.412 252.489 303.653 252.882C299.896 245.405 300.58 247.117 296.745 239.656C294.872 236.025 292.995 232.376 291.112 228.709C289.167 224.913 287.424 220.929 285.277 217.273C285.266 217.25 285.246 217.233 285.222 217.225C285.198 217.217 285.171 217.218 285.149 217.23C285.126 217.241 285.109 217.261 285.101 217.285C285.093 217.309 285.094 217.336 285.106 217.358C286.351 220.953 288.039 224.438 289.634 227.908C289.284 227.371 288.949 226.819 288.56 226.297C287.697 225.138 286.849 223.963 286.086 222.75C285.962 222.563 285.65 222.711 285.767 222.905C286.545 224.072 287.152 225.278 287.798 226.507C288.443 227.737 289.151 228.896 289.875 230.079C290.598 231.261 291.353 232.288 292.131 233.369L292.411 233.774C293.438 235.945 294.434 238.123 295.523 240.27C299.289 247.794 303.163 253.714 303.303 253.675C304.293 253.203 305.242 252.651 306.143 252.026C306.205 251.964 306.096 251.824 305.987 251.831Z" fill="#023A59"/>
<path d="M189.335 298.877C200.943 297.181 207.517 275.623 220.401 241.305C222.657 235.283 192.696 200.795 188.627 206.342C183.5 213.344 169.955 252.08 168.57 262.614C165.902 283.372 175.829 300.861 189.335 298.877Z" fill="#D3766A"/>
<path d="M207.189 276.027C208.232 273.109 209.337 270.215 210.449 267.321L213.818 258.662C214.985 255.791 216.105 252.905 217.233 250.026C217.809 248.584 218.364 247.14 218.898 245.693C219.451 244.245 219.988 242.791 220.4 241.297C219.754 244.335 218.883 247.32 217.794 250.228C216.774 253.161 215.646 256.056 214.542 258.95C213.437 261.844 212.208 264.699 210.994 267.547C209.78 270.394 208.504 273.234 207.189 276.027Z" fill="#023A59"/>
<path d="M177.875 231.214C179.501 219.435 182.823 203.004 187.032 199.557C191.451 195.947 207.501 183.865 212.13 182.262C216.759 180.66 237.423 172.794 241.22 174.988C244.262 176.746 240.66 184.736 230.833 188.572C222.19 191.933 217.74 195.076 215.273 196.142C212.807 197.208 206.715 205.392 208.349 209.002C209.322 211.126 215.515 213.623 219.366 211.881C223.217 210.138 224.166 202.545 228.562 198.927C232.957 195.309 240.722 195.768 241.173 197.861C241.624 199.954 239.057 200.934 235.089 208.061C232.537 212.635 232.366 223.621 226.578 231.51C223.668 235.47 218.619 246.004 218.619 246.004L177.875 231.214Z" fill="#D3766A"/>
<path d="M232.669 195.675C234.09 195.47 235.423 194.865 236.513 193.932C236.952 193.51 237.257 192.969 237.392 192.376C237.442 192.051 237.442 191.72 237.392 191.396C237.381 191.048 237.249 190.715 237.018 190.454C236.941 190.4 237.057 190.306 237.096 190.384C237.202 190.548 237.319 190.704 237.446 190.851C237.537 190.991 237.612 191.139 237.672 191.294C237.788 191.602 237.844 191.93 237.835 192.259C237.804 192.979 237.53 193.668 237.057 194.212C236.49 194.793 235.796 195.236 235.029 195.506C234.263 195.776 233.445 195.865 232.638 195.768C232.623 195.791 232.623 195.69 232.669 195.675Z" fill="#023A59"/>
<path d="M187.031 199.557C190.773 193.683 200.351 183.071 209.842 179.43C216.253 176.964 238.333 187.7 237.695 191.917C237.057 196.134 233.283 196.157 227.697 195.496C225.667 195.254 214.907 191.396 213.071 193.652C210.441 196.904 207.096 207.99 207.096 207.99L187.031 199.557Z" fill="#D3766A"/>
<path d="M237.143 190.268C234.412 185.755 228.422 183.351 222.454 181.453C222.361 181.453 222.307 181.562 222.4 181.593C223.917 182.076 233.642 186.541 237.081 190.346C237.12 190.385 237.174 190.315 237.143 190.268Z" fill="#023A59"/>
<path d="M187.031 199.558C190.773 193.684 200.351 183.072 209.842 179.431C216.253 176.964 233.727 190.704 233.081 194.928C232.435 199.153 227.028 199.488 221.038 197.41C219.1 196.733 212.612 192.174 210.776 194.431C208.146 197.675 201.728 205.735 201.728 205.735L187.031 199.558Z" fill="#D3766A"/>
<path d="M205.393 200.724C206 199.798 206.171 199.471 206.817 198.553C207.463 197.635 208.062 196.733 208.746 195.869C209.279 195.064 209.947 194.358 210.723 193.784C211.524 193.327 212.452 193.141 213.368 193.255C215.445 193.449 217.32 194.764 219.086 195.776C221.054 196.904 225.131 198.732 228.259 198.398C229.118 198.347 229.958 198.12 230.725 197.728C231.306 197.463 231.811 197.056 232.195 196.546C233.549 194.212 231.853 191.629 230.126 189.769C226.897 186.307 222.556 183.802 218.347 181.741C217.312 181.235 216.27 180.76 215.235 180.278C214.063 179.652 212.772 179.283 211.446 179.196C209.276 179.196 205.72 181.39 204.623 182.06C204.538 182.106 204.475 181.974 204.553 181.919C205.891 181.087 209.221 178.38 212.691 178.551C213.97 178.744 215.205 179.16 216.34 179.78C217.561 180.301 218.767 180.869 219.957 181.46C222.28 182.602 224.512 183.921 226.633 185.405C228.624 186.829 230.748 188.517 232.079 190.563C232.699 191.469 233.063 192.526 233.131 193.621C233.2 194.717 232.97 195.811 232.468 196.787C231.511 198.343 229.465 198.763 228.531 198.888C227.614 199.008 226.686 199.008 225.769 198.888C223.728 198.447 221.721 197.862 219.763 197.137C217.865 196.359 216.153 195.099 214.2 194.508C213.739 194.35 213.251 194.285 212.765 194.319C212.278 194.352 211.804 194.482 211.368 194.702C210.57 195.236 209.857 195.886 209.252 196.631C207.946 197.916 206.764 199.32 205.72 200.825C205.463 201.261 205.175 201.128 205.393 200.724Z" fill="#023A59"/>
<path d="M184.262 204.692C185.631 201.891 187.942 190.361 190.167 186.798C192.392 183.235 202.537 171.028 207.283 171.557C213.25 172.218 207.042 182.962 203.922 187.389C200.802 191.816 201.339 199.339 201.339 199.339L184.262 204.692Z" fill="#D3766A"/>
<path d="M208.272 180.084C207.16 181.484 206.179 183.04 205.215 184.542C204.221 185.937 203.332 187.404 202.554 188.93C201.901 190.491 201.509 192.15 201.395 193.839C201.317 194.671 201.293 195.496 201.286 196.328C201.278 197.161 201.363 198.157 201.348 199.059C201.344 199.071 201.343 199.083 201.345 199.096C201.347 199.108 201.352 199.119 201.359 199.129C201.366 199.139 201.375 199.147 201.386 199.153C201.397 199.158 201.409 199.161 201.422 199.161C201.434 199.161 201.446 199.158 201.457 199.153C201.468 199.147 201.478 199.139 201.485 199.129C201.492 199.119 201.497 199.108 201.499 199.096C201.501 199.083 201.5 199.071 201.496 199.059C201.602 197.4 201.817 195.75 202.141 194.119C202.431 192.422 202.93 190.768 203.627 189.194C205.02 186.082 207.058 183.281 208.474 180.177C208.505 180.06 208.35 179.983 208.272 180.084Z" fill="#023A59"/>
<path d="M201.41 200.631C201.497 202.027 201.788 203.403 202.273 204.715C202.715 206.048 203.251 207.348 203.876 208.605C204.48 209.86 205.153 211.081 205.891 212.262C206.607 213.452 207.447 214.526 208.326 215.662C210.114 217.879 211.54 220.366 212.551 223.029C213.497 225.694 213.971 228.503 213.951 231.331C213.692 228.545 213.037 225.81 212.006 223.208C210.9 220.652 209.453 218.257 207.704 216.09C206.814 214.987 205.993 213.831 205.245 212.628C204.514 211.409 203.864 210.143 203.3 208.839C202.227 206.248 201.231 203.478 201.41 200.631Z" fill="#023A59"/>
<path d="M243.974 184.169C244.142 185.996 244.402 187.814 244.752 189.615C245.028 191.255 245.453 192.867 246.02 194.431C247.133 197.239 249.257 199.876 252.532 200.6C254.056 200.892 255.622 200.875 257.139 200.551C258.656 200.226 260.092 199.6 261.363 198.71C264.078 196.92 266.194 194.384 268.131 191.918C269.34 190.393 270.473 188.821 271.531 187.203C272.06 186.378 272.605 185.569 273.087 184.721C273.569 183.873 274.028 183.017 274.573 182.208C274.62 182.138 274.76 182.208 274.721 182.263C273.663 184.176 270.489 190.245 269.431 191.746C267.493 194.485 265.385 197.278 262.576 199.301C259.886 201.348 256.504 202.269 253.147 201.868C251.538 201.616 250.02 200.957 248.737 199.954C247.455 198.95 246.45 197.635 245.818 196.134C245.075 194.341 244.6 192.449 244.41 190.517C244.145 188.401 244.005 186.269 243.912 184.145C243.928 184.145 243.974 184.145 243.974 184.169Z" fill="#023A59"/>
<path d="M255.185 195.317C262.327 195.123 271.134 181.811 273.483 172.296C273.639 171.643 265.221 149.493 264.007 144.926C263.743 143.993 237.189 159.49 237.189 159.49C237.189 159.49 242.55 168.305 244.612 176.272C244.775 176.941 248.276 195.504 255.185 195.317Z" fill="#D3766A"/>
<path d="M237.189 159.49C237.189 159.49 242.55 168.305 244.612 176.279C244.612 176.435 244.876 177.594 245.288 179.274C258.569 174.396 265.019 163.714 267.975 156.533C266.162 151.508 264.489 146.785 264.007 144.941C263.743 143.992 237.189 159.49 237.189 159.49Z" fill="#023A59"/>
<path d="M221.941 107.87C220.238 108.158 214.519 121.742 215.352 127.686C216.184 133.63 220.067 145.144 221.84 145.09C223.614 145.035 223.287 107.645 221.941 107.87Z" fill="#023A59"/>
<path d="M262.802 113.137C268.668 122.418 271.321 153.134 265.914 161.629C258.048 173.945 241.173 179.523 229.698 169.184C218.565 159.148 215.811 119.057 222.245 110.927C231.705 98.9538 254.135 99.4284 262.802 113.137Z" fill="#D3766A"/>
<path d="M240.729 132.75C241.635 132.877 242.546 132.958 243.46 132.991C244.511 133.069 245.343 133.248 246.3 132.711C246.553 132.528 246.74 132.266 246.83 131.967C246.92 131.667 246.908 131.347 246.798 131.054C246.253 129.833 244.993 129.412 243.733 129.265C242.469 129.066 241.178 129.344 240.107 130.043C239.867 130.217 239.684 130.457 239.58 130.735C239.476 131.012 239.456 131.314 239.523 131.602C239.589 131.891 239.739 132.154 239.953 132.358C240.168 132.562 240.438 132.698 240.729 132.75Z" fill="#023A59"/>
<path d="M241.959 139.457C241.959 139.371 242.131 139.535 242.138 139.62C242.286 141.697 242.808 144.047 244.745 144.545C244.807 144.545 244.815 144.662 244.745 144.662C242.395 144.576 241.734 141.441 241.959 139.457Z" fill="#023A59"/>
<path d="M243.555 137.107C246.861 136.508 247.802 143.16 244.745 143.705C241.687 144.25 240.793 137.605 243.555 137.107Z" fill="#023A59"/>
<path d="M230.04 140.818C230.04 140.74 229.892 140.943 229.907 141.021C230.265 143.074 230.327 145.479 228.561 146.428C228.507 146.428 228.561 146.56 228.561 146.544C230.825 145.93 230.701 142.732 230.04 140.818Z" fill="#023A59"/>
<path d="M227.892 138.959C224.546 139.184 225.231 145.859 228.327 145.657C231.424 145.455 230.7 138.78 227.892 138.959Z" fill="#023A59"/>
<path d="M224.842 135.419C225.707 135.11 226.557 134.757 227.386 134.361C228.359 133.941 229.175 133.708 229.774 132.805C229.914 132.525 229.958 132.206 229.899 131.898C229.84 131.59 229.681 131.31 229.448 131.101C228.397 130.269 227.075 130.487 225.884 130.938C224.67 131.358 223.655 132.215 223.037 133.342C222.915 133.606 222.873 133.899 222.914 134.187C222.955 134.475 223.078 134.744 223.268 134.964C223.459 135.183 223.709 135.343 223.988 135.424C224.267 135.504 224.564 135.503 224.842 135.419Z" fill="#023A59"/>
<path d="M246.206 156.292C245.786 156.845 245.428 157.576 244.65 157.747C243.882 157.843 243.102 157.774 242.363 157.545C242.355 157.54 242.347 157.536 242.338 157.534C242.329 157.533 242.319 157.533 242.31 157.534C242.301 157.536 242.293 157.54 242.285 157.545C242.277 157.55 242.271 157.557 242.266 157.564C242.261 157.572 242.257 157.581 242.255 157.59C242.253 157.599 242.253 157.608 242.255 157.617C242.257 157.626 242.261 157.635 242.266 157.642C242.271 157.65 242.277 157.656 242.285 157.662C242.634 158.031 243.077 158.299 243.566 158.436C244.055 158.573 244.573 158.574 245.063 158.44C245.466 158.271 245.811 157.986 246.053 157.622C246.295 157.258 246.424 156.831 246.424 156.393C246.432 156.238 246.268 156.214 246.206 156.292Z" fill="#023A59"/>
<path d="M243.172 150.434C242.765 151.324 242.178 152.12 241.448 152.772C240.718 153.424 239.862 153.918 238.932 154.223C238.123 154.499 237.28 154.658 236.427 154.697C236.264 154.713 236.099 154.713 235.936 154.697C235.784 154.705 235.63 154.705 235.477 154.697C235.364 154.692 235.255 154.649 235.168 154.576C235.081 154.503 235.02 154.404 234.995 154.293C234.987 154.223 234.987 154.153 234.995 154.083V153.904C234.723 152.348 234.536 149.889 234.536 149.889C233.999 150.263 231.23 152.005 231.159 151.173C230.599 144.257 229.969 136.57 230.864 129.576C230.873 129.532 230.897 129.492 230.931 129.464C230.966 129.435 231.01 129.42 231.054 129.42C231.099 129.42 231.143 129.435 231.178 129.464C231.212 129.492 231.236 129.532 231.245 129.576C232.023 136.204 231.689 142.926 232.396 149.586C233.377 148.948 234.443 148.453 235.563 148.115C235.796 148.115 235.843 152.783 236.022 153.523C236.016 153.546 236.016 153.57 236.022 153.593C238.729 153.593 240.628 152.464 242.954 150.309C243.086 150.154 243.265 150.255 243.172 150.434Z" fill="#023A59"/>
<path d="M266.403 139.504C261.05 140.709 257.58 135.038 254.593 126.861C252.842 122.076 252.834 112.079 252.834 112.079C252.834 112.079 239.857 120.419 231.914 120.777C223.971 121.135 216.354 115.277 215.887 109.107C215.49 103.778 223.48 95.7177 235.135 93.6482C243.265 92.2089 257.954 96.9158 265.228 104.89C265.228 104.89 276.174 108.43 275.684 116.405C275.194 124.379 272.479 138.134 266.403 139.504Z" fill="#023A59"/>
<path d="M265.936 138.935C259.004 141.402 253.791 131.155 252.865 125.593C251.901 119.797 253.348 113.611 253.597 107.8H253.55C252.056 115.012 250.609 124.076 253.924 130.961C256.009 135.302 260.342 142.359 266.076 139.317C266.27 139.208 266.154 138.858 265.936 138.935Z" fill="#023A59"/>
<path d="M276.97 113.821C275.328 109.153 269.236 105.178 264.522 104.672C264.475 104.672 264.459 104.742 264.522 104.75C270.263 106.01 277.452 111.479 276.573 117.851C275.865 122.939 274.371 129.716 271.547 134.057C271.477 134.166 271.64 134.267 271.718 134.166C274.005 131.186 274.698 127.6 275.608 124.052C276.363 120.917 278.074 117.05 276.97 113.821Z" fill="#023A59"/>
<path d="M266.365 105.45C258.679 97.0479 243.329 88.3965 231.814 92.8311C231.814 92.8311 231.814 92.9011 231.814 92.8856C244.185 89.2679 257.022 98.4872 265.976 105.894C266.257 106.112 266.583 105.684 266.365 105.45Z" fill="#023A59"/>
<path d="M262.965 140.289C262.965 140.289 267.127 129.062 272.06 130.299C276.992 131.536 275.592 146.637 271.025 149.804C270.468 150.255 269.825 150.589 269.136 150.786C268.446 150.982 267.724 151.037 267.013 150.948C266.301 150.859 265.615 150.627 264.996 150.265C264.377 149.904 263.837 149.422 263.408 148.847L262.965 140.289Z" fill="#D3766A"/>
<path d="M271.577 134.594C271.662 134.594 271.701 134.672 271.639 134.726C268.473 137.06 267.461 140.864 267.049 144.614C267.757 143.058 269.009 141.93 271.094 142.724C271.203 142.763 271.157 142.934 271.048 142.934C270.372 142.899 269.702 143.074 269.13 143.435C268.558 143.796 268.111 144.325 267.85 144.949C267.429 145.998 267.119 147.088 266.924 148.201C266.839 148.567 266.224 148.543 266.248 148.147C266.244 148.118 266.244 148.089 266.248 148.061C264.979 143.58 266.854 136.336 271.577 134.594Z" fill="#023A59"/>
<path d="M248.736 190.104L265.074 238.815C265.712 240.231 265.074 241.468 263.642 241.577L237.999 243.514C237.217 243.518 236.449 243.302 235.784 242.889C235.119 242.476 234.585 241.884 234.242 241.18L217.904 192.469C217.266 191.046 217.904 189.809 219.335 189.7L244.962 187.731C245.751 187.729 246.525 187.951 247.193 188.371C247.861 188.791 248.396 189.392 248.736 190.104Z" fill="#37474F"/>
<path d="M245.686 190.307L262.024 239.017C262.662 240.433 262.024 241.678 260.593 241.787L234.958 243.755C234.171 243.754 233.401 243.531 232.736 243.111C232.072 242.691 231.539 242.092 231.2 241.382L214.862 192.672C214.216 191.256 214.862 190.019 216.294 189.91L241.96 187.941C242.74 187.946 243.504 188.17 244.163 188.588C244.822 189.006 245.35 189.602 245.686 190.307Z" fill="#115766"/>
<path d="M238.846 193.115C238.888 193.545 239.057 193.954 239.331 194.288C239.606 194.623 239.973 194.868 240.387 194.994C240.801 195.12 241.242 195.12 241.656 194.994C242.07 194.869 242.438 194.623 242.712 194.289C242.986 193.955 243.155 193.547 243.198 193.116C243.24 192.686 243.154 192.253 242.95 191.871C242.746 191.49 242.434 191.177 242.052 190.974C241.671 190.77 241.237 190.684 240.807 190.726C240.23 190.783 239.7 191.067 239.332 191.515C238.965 191.963 238.79 192.538 238.846 193.115Z" fill="#023A59"/>
<path d="M347.252 297.974C336.096 299.6 322.014 291.05 285.526 265.034C280.469 261.408 296.293 218.953 301.864 222.508C308.905 226.997 335.256 245.965 337.006 247.599C351.812 261.408 354.838 296.807 347.252 297.974Z" fill="#D3766A"/>
<path d="M314.958 235.166C314.958 235.166 304.486 220.819 296.652 214.977C286.157 207.197 273.88 204.738 268.644 204.03C257.752 202.552 230.522 206.496 230.249 214.557C230.032 221.854 257.728 216.408 257.728 216.408C257.728 216.408 228.577 217.295 229.93 226.125C231.284 234.956 263.089 226.818 263.089 226.818C263.089 226.818 233.151 228.374 235.991 237.29C238.138 244.004 267.352 238.247 267.352 238.247C267.352 238.247 241.632 239.803 243.538 246.805C245.654 254.538 272.946 250.92 272.946 250.92C280.858 267.881 291.517 272.759 299.53 275.318C301.468 275.933 314.958 235.166 314.958 235.166Z" fill="#D3766A"/>
<path d="M267.827 215.459C264.396 215.459 260.926 215.397 257.511 215.677C254.096 215.957 250.68 216.369 247.304 216.968C239.018 218.447 234.078 220.672 234.389 220.563C241.982 218.112 254.197 216.898 257.62 216.61C261.043 216.323 264.427 215.871 267.843 215.584C267.928 215.576 267.905 215.459 267.827 215.459Z" fill="#023A59"/>
<path d="M269.08 227.783C264.699 227.947 260.35 227.947 255.978 228.304C251.606 228.662 247.529 229.386 243.211 230.039C242.877 230.086 243.017 230.249 243.351 230.211C247.685 229.728 251.738 229.619 256.079 229.191C260.42 228.763 264.754 228.157 269.095 227.884C269.189 227.884 269.189 227.783 269.08 227.783Z" fill="#023A59"/>
<path d="M272.061 238.169C265.354 238.076 258.64 239.22 252.082 240.503C251.755 240.566 251.957 240.76 252.292 240.713C258.92 239.811 264.11 239.056 272.061 238.379C272.177 238.387 272.201 238.169 272.061 238.169Z" fill="#023A59"/>
<path d="M326.955 240.114C329.849 242.02 332.634 244.082 335.334 246.268C336.688 247.351 337.987 248.501 339.224 249.715C340.506 250.922 341.632 252.283 342.577 253.768C344.374 256.756 345.882 259.908 347.082 263.182C348.327 266.428 349.209 269.801 349.712 273.241C349.339 271.554 348.871 269.889 348.311 268.255C347.774 266.613 347.183 264.995 346.522 263.4C345.257 260.201 343.716 257.119 341.916 254.188C341.028 252.734 339.956 251.4 338.726 250.22C337.52 248.999 336.221 247.886 334.93 246.719C333.638 245.552 332.3 244.479 330.962 243.382C329.624 242.285 328.317 241.18 326.955 240.114Z" fill="#023A59"/>
<path d="M216.493 87.626C216.493 87.626 213.295 113.222 208.036 118.987C201.726 125.896 197.144 124.884 194.6 128.448C192.048 124.877 187.474 125.896 181.156 118.979C175.905 113.222 172.715 87.626 172.715 87.626C186.563 80.904 194.608 73.3652 194.608 73.3652C194.849 73.6064 202.855 81.0052 216.493 87.626Z" fill="#FF993C"/>
<path opacity="0.2" d="M194.6 73.373V128.448C192.048 124.877 187.474 125.896 181.156 118.979C175.905 113.222 172.715 87.626 172.715 87.626C186.563 80.904 194.608 73.3652 194.608 73.3652L194.6 73.373Z" fill="black"/>
<path opacity="0.1" d="M216.493 87.626C216.493 87.626 213.295 113.222 208.036 118.987C201.726 125.896 197.144 124.884 194.6 128.448V73.373C194.849 73.6064 202.854 81.0052 216.493 87.626Z" fill="black"/>
<path d="M213.094 89.688C213.094 89.688 210.394 111.316 205.952 116.179C200.622 122.029 196.748 121.166 194.6 124.177C192.445 121.166 188.579 122.029 183.242 116.179C178.799 111.316 176.107 89.688 176.107 89.688C187.777 84.0086 194.6 77.6445 194.6 77.6445C194.6 77.6445 201.392 84.0241 213.094 89.688Z" fill="#FF993C"/>
<path opacity="0.1" d="M194.601 77.6523V124.177C192.453 121.166 188.579 122.022 183.249 116.179C178.807 111.309 176.115 89.6802 176.115 89.6802C187.785 84.0008 194.601 77.6367 194.601 77.6367V77.6523Z" fill="black"/>
<path d="M202.886 96.791H186.314V111.822H202.886V96.791Z" fill="white"/>
<path d="M201.23 101.436H199.541V94.7221C199.541 93.4119 199.021 92.1553 198.094 91.2288C197.168 90.3023 195.911 89.7818 194.601 89.7818C193.291 89.7818 192.034 90.3023 191.108 91.2288C190.181 92.1553 189.661 93.4119 189.661 94.7221V101.436H187.973V94.7221C187.91 93.8155 188.035 92.9058 188.339 92.0495C188.644 91.1932 189.12 90.4086 189.741 89.7444C190.361 89.0802 191.111 88.5507 191.944 88.1886C192.778 87.8265 193.677 87.6396 194.586 87.6396C195.494 87.6396 196.393 87.8265 197.227 88.1886C198.06 88.5507 198.81 89.0802 199.431 89.7444C200.051 90.4086 200.528 91.1932 200.832 92.0495C201.136 92.9058 201.261 93.8155 201.199 94.7221L201.23 101.436Z" fill="white"/>
<path d="M195.122 104.564L195.658 107.1H193.387L193.924 104.564C193.714 104.434 193.552 104.239 193.463 104.008C193.374 103.778 193.363 103.525 193.43 103.287C193.498 103.05 193.641 102.841 193.838 102.692C194.035 102.543 194.276 102.463 194.523 102.463C194.77 102.463 195.01 102.543 195.207 102.692C195.404 102.841 195.547 103.05 195.615 103.287C195.683 103.525 195.671 103.778 195.582 104.008C195.493 104.239 195.331 104.434 195.122 104.564Z" fill="#37474F"/>
<path d="M194.889 188.868H191.574V188.277H194.601V188.479H194.889V188.868ZM188.462 188.868H185.35V188.277H188.462V188.868ZM182.238 188.868H179.126V188.277H182.238V188.868ZM176.014 188.868H172.902V188.277H176.014V188.868ZM194.889 185.375H194.305V182.263H194.889V185.375ZM194.889 179.151H194.305V176.039H194.889V179.151ZM194.889 172.927H194.305V169.815H194.889V172.927ZM194.889 166.703H194.305V163.591H194.889V166.703ZM194.889 160.479H194.305V157.367H194.889V160.479ZM194.889 154.255H194.305V151.143H194.889V154.255ZM194.889 148.031H194.305V144.919H194.889V148.031ZM194.889 141.807H194.305V138.695H194.889V141.807ZM194.889 135.583H194.305V132.471H194.889V135.583Z" fill="#46B2C8"/>
<path d="M195.915 131.832C195.915 131.572 195.838 131.318 195.693 131.102C195.549 130.886 195.343 130.717 195.103 130.618C194.863 130.518 194.599 130.492 194.343 130.543C194.088 130.594 193.854 130.719 193.67 130.903C193.486 131.087 193.361 131.321 193.31 131.576C193.26 131.831 193.286 132.095 193.385 132.336C193.485 132.576 193.653 132.781 193.87 132.926C194.086 133.07 194.34 133.147 194.6 133.147C194.949 133.147 195.283 133.009 195.53 132.762C195.776 132.516 195.915 132.181 195.915 131.832Z" fill="#46B2C8"/>
<path d="M81.3391 97.118H41.4199V45.8711H71.0617L81.3391 55.6428V97.118Z" fill="#EBEBEB"/>
<path d="M71.0625 45.8711L81.3399 55.6428H71.0625V45.8711Z" fill="#DBDBDB"/>
<path d="M45.3173 55.7832H67.5137V54.4684H45.3173V55.7832Z" fill="#DBDBDB"/>
<path d="M45.3173 59.1045H67.5137V57.7897H45.3173V59.1045Z" fill="#DBDBDB"/>
<path d="M45.3173 62.4346H67.5137V61.1198H45.3173V62.4346Z" fill="#DBDBDB"/>
<path d="M45.3175 65.7568H77.8379V64.442H45.3175V65.7568Z" fill="#DBDBDB"/>
<path d="M45.3175 69.0791H77.8379V67.7643H45.3175V69.0791Z" fill="#DBDBDB"/>
<path d="M45.3175 72.4014H77.8379V71.0865H45.3175V72.4014Z" fill="#DBDBDB"/>
<path d="M45.3175 75.7227H77.8379V74.4078H45.3175V75.7227Z" fill="#DBDBDB"/>
<path d="M45.3175 79.0371H77.8379V77.7223H45.3175V79.0371Z" fill="#DBDBDB"/>
<path d="M45.3175 82.3594H77.8379V81.0446H45.3175V82.3594Z" fill="#DBDBDB"/>
<path d="M45.3175 85.6816H77.8379V84.3668H45.3175V85.6816Z" fill="#DBDBDB"/>
<path d="M45.3175 89.0029H77.8379V87.6881H45.3175V89.0029Z" fill="#DBDBDB"/>
<path d="M45.3175 92.3252H77.8379V91.0104H45.3175V92.3252Z" fill="#DBDBDB"/>
<path d="M84.0369 101.782C87.6063 100.294 89.2936 96.1946 87.8056 92.6252C86.3176 89.0559 82.2178 87.3686 78.6485 88.8566C75.0791 90.3445 73.3918 94.4443 74.8798 98.0137C76.3677 101.583 80.4675 103.27 84.0369 101.782Z" fill="#023A59"/>
<path d="M84.8089 93.5547H77.8691V99.8565H84.8089V93.5547Z" fill="white"/>
<path d="M84.1175 95.4923H83.4095V92.6837C83.4095 92.1348 83.1915 91.6085 82.8034 91.2204C82.4153 90.8323 81.8889 90.6142 81.34 90.6142C80.7912 90.6142 80.2648 90.8323 79.8767 91.2204C79.4886 91.6085 79.2705 92.1348 79.2705 92.6837V95.4923H78.5781V92.6837C78.5781 91.9471 78.8708 91.2406 79.3916 90.7198C79.9125 90.1989 80.619 89.9063 81.3556 89.9062C82.0922 89.9063 82.7987 90.1989 83.3195 90.7198C83.8404 91.2406 84.133 91.9471 84.133 92.6837L84.1175 95.4923Z" fill="white"/>
<path d="M81.6347 96.7758L81.9226 98.1606H80.6934L80.9812 96.7758C80.8683 96.7049 80.7814 96.5992 80.7338 96.4746C80.6862 96.3501 80.6805 96.2134 80.7173 96.0852C80.7542 95.9571 80.8318 95.8444 80.9383 95.7642C81.0449 95.684 81.1746 95.6406 81.308 95.6406C81.4413 95.6406 81.5711 95.684 81.6776 95.7642C81.7842 95.8444 81.8617 95.9571 81.8986 96.0852C81.9355 96.2134 81.9297 96.3501 81.8821 96.4746C81.8345 96.5992 81.7477 96.7049 81.6347 96.7758Z" fill="#023A59"/>
<path d="M108.693 123.912H108.141V120.8H108.725L108.693 123.912ZM108.693 117.688H108.141V114.576H108.725L108.693 117.688ZM108.693 111.464H108.141V108.352H108.725L108.693 111.464ZM108.693 105.24H108.141V102.128H108.725L108.693 105.24ZM108.693 99.016H108.141V95.904H108.725L108.693 99.016ZM108.693 92.792H108.141V89.68H108.725L108.693 92.792ZM108.693 86.568H108.141V83.456H108.725L108.693 86.568ZM108.693 80.344H108.141V77.232H108.725L108.693 80.344ZM105.807 77.022H102.695V76.4385H105.807V77.022ZM99.583 77.022H96.471V76.4385H99.583V77.022ZM93.359 77.022H90.247V76.4385H93.359V77.022ZM87.135 77.022H85.7891V76.4385H87.135V77.022Z" fill="#46B2C8"/>
<path d="M85.8202 75.4658C85.557 75.4644 85.2994 75.5415 85.0802 75.6873C84.861 75.8331 84.6904 76.041 84.5901 76.2843C84.4897 76.5277 84.4643 76.7954 84.517 77.0533C84.5698 77.3112 84.6982 77.5475 84.886 77.732C85.0738 77.9164 85.3124 78.0407 85.5712 78.0888C85.83 78.1369 86.0972 78.1066 86.3387 78.002C86.5803 77.8973 86.7851 77.7229 86.9269 77.5012C87.0688 77.2795 87.1413 77.0205 87.1351 76.7573C87.127 76.4133 86.9851 76.086 86.7396 75.8449C86.4942 75.6037 86.1643 75.4678 85.8202 75.4658Z" fill="#46B2C8"/>
<path d="M131.061 296.97H129.232V296.418H131.061V296.97ZM126.12 296.97H123.008V296.418H126.12V296.97ZM119.896 296.97H116.784V296.418H119.896V296.97ZM113.672 296.97H110.56V296.418H113.672V296.97ZM108.693 295.726H108.141V292.614H108.724L108.693 295.726ZM108.693 289.502H108.141V286.39H108.724L108.693 289.502ZM108.693 283.278H108.141V280.166H108.724L108.693 283.278ZM108.693 277.054H108.141V273.942H108.724L108.693 277.054ZM108.693 270.83H108.141V267.718H108.724L108.693 270.83ZM108.693 264.606H108.141V261.494H108.724L108.693 264.606ZM108.693 258.382H108.141V255.27H108.724L108.693 258.382Z" fill="#46B2C8"/>
<path d="M130.991 297.998C131.717 297.998 132.305 297.409 132.305 296.683C132.305 295.957 131.717 295.368 130.991 295.368C130.264 295.368 129.676 295.957 129.676 296.683C129.676 297.409 130.264 297.998 130.991 297.998Z" fill="#46B2C8"/>
<path d="M185.302 288.148H135.588V318.148H185.302V288.148Z" fill="#115766"/>
<path d="M153.389 291.921H139.494V309.69H153.389V291.921Z" fill="white"/>
<path d="M146.441 302.323C148.259 302.323 149.732 300.85 149.732 299.032C149.732 297.215 148.259 295.741 146.441 295.741C144.624 295.741 143.15 297.215 143.15 299.032C143.15 300.85 144.624 302.323 146.441 302.323Z" fill="#115766"/>
<path d="M153.389 309.691H139.494C139.494 309.691 139.875 306.377 140.552 305.389C141.229 304.401 143.018 303.288 146.442 303.288C149.865 303.288 151.654 304.401 152.331 305.389C153.008 306.377 153.389 309.691 153.389 309.691Z" fill="#115766"/>
<path d="M179.858 291.921H156.984V292.784H179.858V291.921Z" fill="white"/>
<path d="M179.858 300.37H156.984V301.234H179.858V300.37Z" fill="white"/>
<path d="M179.858 302.86H156.984V303.724H179.858V302.86Z" fill="white"/>
<path d="M179.858 305.342H156.984V306.205H179.858V305.342Z" fill="white"/>
<path d="M179.858 307.831H156.984V308.695H179.858V307.831Z" fill="white"/>
<path d="M179.858 310.313H156.984V311.177H179.858V310.313Z" fill="white"/>
<path d="M175.509 294.411H156.984V295.275H175.509V294.411Z" fill="white"/>
<path d="M187.998 324.618C191.567 323.13 193.254 319.031 191.767 315.461C190.279 311.892 186.179 310.205 182.609 311.692C179.04 313.18 177.353 317.28 178.841 320.85C180.329 324.419 184.428 326.106 187.998 324.618Z" fill="#023A59"/>
<path d="M188.774 316.382H181.834V322.684H188.774V316.382Z" fill="white"/>
<path d="M188.08 318.318H187.372V315.51C187.372 314.961 187.154 314.435 186.766 314.047C186.378 313.658 185.852 313.44 185.303 313.44C184.754 313.44 184.228 313.658 183.84 314.047C183.451 314.435 183.233 314.961 183.233 315.51V318.318H182.525V315.51C182.525 314.773 182.818 314.067 183.339 313.546C183.86 313.025 184.566 312.732 185.303 312.732C186.039 312.732 186.746 313.025 187.267 313.546C187.788 314.067 188.08 314.773 188.08 315.51V318.318Z" fill="white"/>
<path d="M185.6 319.603L185.887 320.988H184.65L184.946 319.603C184.855 319.546 184.781 319.467 184.731 319.372C184.68 319.278 184.655 319.172 184.658 319.066C184.661 318.959 184.692 318.854 184.748 318.763C184.803 318.672 184.882 318.596 184.975 318.545C185.069 318.493 185.174 318.466 185.281 318.468C185.388 318.469 185.492 318.498 185.585 318.553C185.677 318.607 185.753 318.684 185.806 318.777C185.859 318.87 185.887 318.975 185.887 319.082C185.888 319.186 185.861 319.288 185.811 319.379C185.76 319.471 185.688 319.548 185.6 319.603Z" fill="#023A59"/>
<path d="M357.864 345.432L317.026 345.619L276.181 345.689L194.499 345.821L112.817 345.689L71.9798 345.619L31.1348 345.432L71.9798 345.237L112.817 345.175L194.499 345.043L276.181 345.175L317.026 345.245L357.864 345.432Z" fill="#023A59"/>
<path d="M60.5275 267.438C73.4034 280.081 75.5663 299.531 72.8511 316.647C72.781 317.036 72.182 316.927 72.182 316.569C72.182 312.679 72.2987 308.789 72.2831 304.984C72.2131 304.805 72.1586 304.642 72.0886 304.463C68.7277 302.02 65.6312 299.258 63.7173 295.477C61.5701 291.245 60.722 286.476 59.0493 282.057C58.8937 281.637 59.345 281.761 59.6406 281.979C67.4751 287.752 69.9725 293.968 72.2209 302.277C72.172 297.934 71.7162 293.605 70.8594 289.347C69.1633 281.458 65.8179 273.646 60.1541 267.796C60.1306 267.771 60.1122 267.743 60.0998 267.711C60.0875 267.679 60.0815 267.645 60.0823 267.612C60.083 267.578 60.0904 267.544 60.104 267.513C60.1177 267.482 60.1374 267.454 60.1619 267.43C60.1864 267.407 60.2153 267.388 60.247 267.376C60.2786 267.364 60.3124 267.358 60.3463 267.358C60.3803 267.359 60.4138 267.367 60.4448 267.38C60.4759 267.394 60.504 267.414 60.5275 267.438Z" fill="#023A59"/>
<path d="M58.1082 268.908C55.8909 268.986 54.4983 272.526 52.7712 273.576C52.5897 273.722 52.3796 273.829 52.1542 273.889C51.9289 273.949 51.6935 273.962 51.4631 273.925C51.2328 273.888 51.0128 273.804 50.8173 273.676C50.6218 273.549 50.4552 273.383 50.3282 273.187C48.6166 270.798 50.9662 267.858 53.1757 266.185C51.6197 266.831 50.2893 267.974 48.5855 268.293C48.3679 268.366 48.137 268.391 47.9088 268.367C47.6806 268.342 47.4604 268.269 47.2632 268.151C47.066 268.034 46.8964 267.875 46.7661 267.686C46.6359 267.497 46.5479 267.282 46.5083 267.056C45.7303 263.804 49.8459 262.388 52.6467 262.287C51.2852 261.338 47.3952 258.771 49.4647 257.51C51.5341 256.25 56.1243 259.914 57.6181 261.12C59.8043 262.902 62.4184 265.555 62.5195 268.332C62.644 271.584 59.8121 269.593 58.1082 268.908Z" fill="#FF5454"/>
<path opacity="0.1" d="M58.1082 268.908C55.8909 268.986 54.4983 272.526 52.7712 273.576C52.5897 273.722 52.3796 273.829 52.1542 273.889C51.9289 273.949 51.6935 273.962 51.4631 273.925C51.2328 273.888 51.0128 273.804 50.8173 273.676C50.6218 273.549 50.4552 273.383 50.3282 273.187C48.6166 270.798 50.9662 267.858 53.1757 266.185C51.6197 266.831 50.2893 267.974 48.5855 268.293C48.3679 268.366 48.137 268.391 47.9088 268.367C47.6806 268.342 47.4604 268.269 47.2632 268.151C47.066 268.034 46.8964 267.875 46.7661 267.686C46.6359 267.497 46.5479 267.282 46.5083 267.056C45.7303 263.804 49.8459 262.388 52.6467 262.287C51.2852 261.338 47.3952 258.771 49.4647 257.51C51.5341 256.25 56.1243 259.914 57.6181 261.12C59.8043 262.902 62.4184 265.555 62.5195 268.332C62.644 271.584 59.8121 269.593 58.1082 268.908Z" fill="black"/>
<path d="M58.7457 269.453C55.9138 268.169 50.4756 270.021 50.0088 268.947C49.0752 266.769 53.4164 265.267 55.766 264.98C53.6032 264.396 49.4642 263.462 49.5887 261.377C49.7443 258.833 55.9449 261.019 59.0803 263.424C63.0325 266.458 62.9703 269.383 62.3479 269.966C61.461 270.744 59.2125 269.671 58.7457 269.453Z" fill="#FF5454"/>
<path d="M89.8513 266.193C76.5008 278.299 73.5989 297.702 75.6606 314.88C75.7228 315.269 76.3219 315.184 76.3375 314.826C76.4853 310.936 76.5164 307.046 76.672 303.241C76.7498 303.07 76.812 302.907 76.8898 302.736C80.3442 300.402 83.534 297.78 85.5957 294.069C87.9297 289.922 88.9255 285.192 90.7382 280.843C90.9094 280.423 90.4504 280.531 90.147 280.734C82.1024 286.18 79.3717 292.326 76.812 300.542C77.0222 296.201 77.6422 291.89 78.6637 287.666C80.6554 279.886 84.2964 272.176 90.1781 266.543C90.3959 266.333 90.0847 265.975 89.8513 266.193Z" fill="#023A59"/>
<path d="M92.2163 267.749C94.4259 267.913 95.6784 271.499 97.3589 272.604C97.5341 272.759 97.7402 272.875 97.9635 272.945C98.1868 273.014 98.4223 273.036 98.6545 273.008C98.8867 272.98 99.1104 272.903 99.3108 272.783C99.5113 272.662 99.6839 272.5 99.8174 272.308C101.622 269.974 99.3895 266.956 97.2422 265.228C98.7982 265.936 100.059 267.127 101.747 267.508C101.962 267.589 102.192 267.623 102.421 267.607C102.65 267.591 102.873 267.526 103.075 267.416C103.277 267.306 103.452 267.154 103.59 266.969C103.727 266.785 103.823 266.574 103.871 266.349C104.742 263.128 100.759 261.525 97.9191 261.346C99.3117 260.459 103.303 258.04 101.28 256.678C99.2572 255.317 94.5348 258.826 92.9943 259.977C90.7381 261.665 88.0307 264.217 87.8284 266.979C87.5717 270.254 90.4814 268.364 92.2163 267.749Z" fill="#FF5454"/>
<path opacity="0.1" d="M92.2163 267.749C94.4259 267.913 95.6784 271.499 97.3589 272.604C97.5341 272.759 97.7402 272.875 97.9635 272.945C98.1868 273.014 98.4223 273.036 98.6545 273.008C98.8867 272.98 99.1104 272.903 99.3108 272.783C99.5113 272.662 99.6839 272.5 99.8174 272.308C101.622 269.974 99.3895 266.956 97.2422 265.228C98.7982 265.936 100.059 267.127 101.747 267.508C101.962 267.589 102.192 267.623 102.421 267.607C102.65 267.591 102.873 267.526 103.075 267.416C103.277 267.306 103.452 267.154 103.59 266.969C103.727 266.785 103.823 266.574 103.871 266.349C104.742 263.128 100.759 261.525 97.9191 261.346C99.3117 260.459 103.303 258.04 101.28 256.678C99.2572 255.317 94.5348 258.826 92.9943 259.977C90.7381 261.665 88.0307 264.217 87.8284 266.979C87.5717 270.254 90.4814 268.364 92.2163 267.749Z" fill="black"/>
<path d="M91.5539 268.271C94.4325 267.096 99.7929 269.15 100.299 268.099C101.318 265.952 97.031 264.295 94.697 263.914C96.8832 263.416 101.053 262.638 101.007 260.553C100.944 258.001 94.6737 259.954 91.445 262.233C87.3838 265.112 87.2983 268.037 87.9284 268.644C88.792 269.484 91.0716 268.465 91.5539 268.271Z" fill="#FF5454"/>
<path d="M76.244 298.169C75.3387 304.645 73.9526 311.045 72.0972 317.315C72.0714 317.439 71.9975 317.548 71.8917 317.617C71.7859 317.686 71.657 317.711 71.5332 317.685C71.4094 317.659 71.3009 317.585 71.2316 317.479C71.1623 317.374 71.1378 317.245 71.1636 317.121C72.0428 311.224 73.6377 305.451 74.5168 299.53C75.4728 293.562 75.817 287.511 75.5438 281.473C74.9758 271.538 72.2762 260.957 65.7954 253.185C65.6476 252.998 65.951 252.734 66.0988 252.905C79.0837 268.052 76.9908 286.616 76.9908 288.28C78.8347 282.01 80.7252 274.829 87.6806 268.441C87.984 268.169 88.2174 268.301 88.1629 268.768C86.9181 280.392 83.6894 286.468 76.9442 292.684C76.7341 294.52 76.4929 296.356 76.244 298.169Z" fill="#023A59"/>
<path d="M65.6309 254.92C63.2969 253.885 60.076 256.857 57.7654 257.067C56.5439 257.176 55.6336 256.694 55.4314 255.433C54.8556 252.096 58.7768 250.221 61.8965 249.622C59.9282 249.497 58.0065 250.026 56.0693 249.505C55.8045 249.473 55.5497 249.385 55.3225 249.245C55.0952 249.106 54.901 248.919 54.753 248.697C54.6051 248.475 54.5071 248.224 54.4657 247.96C54.4243 247.697 54.4406 247.427 54.5133 247.171C55.3691 243.421 60.3405 243.973 63.2814 245.311C62.3478 243.647 59.6014 239.025 62.3789 238.753C65.1564 238.481 68.0816 244.604 69.023 246.611C70.4001 249.552 71.7693 253.613 70.4779 256.554C68.9997 259.985 67.0625 256.484 65.6309 254.92Z" fill="#FF5454"/>
<path opacity="0.1" d="M65.6309 254.92C63.2969 253.885 60.076 256.857 57.7654 257.067C56.5439 257.176 55.6336 256.694 55.4314 255.433C54.8556 252.096 58.7768 250.221 61.8965 249.622C59.9282 249.497 58.0065 250.026 56.0693 249.505C55.8045 249.473 55.5497 249.385 55.3225 249.245C55.0952 249.106 54.901 248.919 54.753 248.697C54.6051 248.475 54.5071 248.224 54.4657 247.96C54.4243 247.697 54.4406 247.427 54.5133 247.171C55.3691 243.421 60.3405 243.973 63.2814 245.311C62.3478 243.647 59.6014 239.025 62.3789 238.753C65.1564 238.481 68.0816 244.604 69.023 246.611C70.4001 249.552 71.7693 253.613 70.4779 256.554C68.9997 259.985 67.0625 256.484 65.6309 254.92Z" fill="black"/>
<path d="M66.028 255.814C63.694 253.052 57.1588 252.235 57.2132 250.89C57.3377 248.151 62.6048 248.789 65.1877 249.668C63.2427 247.972 59.415 244.922 60.5897 242.822C62.0368 240.262 67.3661 245.654 69.4045 249.723C71.9797 254.857 70.4859 257.876 69.5134 258.156C68.1752 258.537 66.4014 256.265 66.028 255.814Z" fill="#FF5454"/>
<path d="M84.7475 301.67L90.4735 345.432H55.6191C56.3349 341.542 62.8234 301.615 62.8234 301.615L84.7475 301.67Z" fill="#115766"/>
</svg>
