<svg width="444" height="444" viewBox="0 0 444 444" fill="none" xmlns="http://www.w3.org/2000/svg">
<path d="M345.355 50.8418L79.1055 70.5342L104.24 410.367L370.49 390.675L345.355 50.8418Z" fill="white"/>
<path d="M103.896 410.833V410.389L78.6328 70.1521H79.0768L345.77 50.3408V50.7848L370.962 391.058H370.518L103.896 410.833ZM79.583 70.9335L104.678 409.883L370.039 390.241L344.944 51.291L79.583 70.9335Z" fill="#263238"/>
<path d="M321.861 65.6701L250.129 70.9756L250.47 75.5806L322.202 70.2752L321.861 65.6701Z" fill="#FF993C"/>
<path d="M321.005 101.019L320.57 101.099L319.3 101.232L314.647 101.658L299.258 102.937C293.246 103.425 287.812 103.825 283.869 104.073L279.198 104.349L277.928 104.402C277.781 104.418 277.632 104.418 277.484 104.402C277.625 104.354 277.771 104.327 277.919 104.322L279.189 104.18L283.842 103.763L299.258 102.475C305.261 101.978 310.696 101.587 314.638 101.329L319.309 101.054L320.579 101.001C320.721 100.984 320.865 100.99 321.005 101.019Z" fill="#FF993C"/>
<path d="M325.301 118.379C325.301 118.512 309.672 119.773 290.376 121.203C271.079 122.633 255.415 123.68 255.406 123.556C255.397 123.432 271.035 122.171 290.34 120.741C309.645 119.311 325.292 118.255 325.301 118.379Z" fill="#263238"/>
<path d="M326.483 140.517C326.483 140.65 310.854 141.911 291.558 143.341C272.262 144.77 256.633 145.827 256.633 145.694C256.633 145.561 272.262 144.309 291.567 142.879C310.872 141.449 326.474 140.392 326.483 140.517Z" fill="#263238"/>
<path d="M326.483 129.452C326.483 129.577 310.854 130.838 291.558 132.267C272.262 133.697 256.633 134.754 256.633 134.629C256.633 134.505 272.262 133.235 291.567 131.806C310.872 130.376 326.474 129.328 326.483 129.452Z" fill="#263238"/>
<path d="M179.776 284.462C179.776 284.586 171.677 285.296 161.669 286.033C151.661 286.77 143.536 287.277 143.527 287.143C143.518 287.01 151.626 286.318 161.634 285.572C171.641 284.826 179.767 284.337 179.776 284.462Z" fill="#FF993C"/>
<path d="M164.625 305.739C164.625 305.872 153.774 306.778 140.365 307.772C126.956 308.767 116.087 309.46 116.078 309.335C116.069 309.211 126.921 308.305 140.338 307.311C153.756 306.316 164.616 305.615 164.625 305.739Z" fill="#46B2C8"/>
<path d="M253.081 307.541C253.081 307.666 222.569 310.028 184.918 312.816C147.267 315.604 116.72 317.762 116.711 317.638C116.702 317.514 147.214 315.143 184.883 312.354C222.552 309.566 253.081 307.417 253.081 307.541Z" fill="#263238"/>
<path d="M166.152 326.384C166.152 326.509 155.301 327.414 141.901 328.409C128.501 329.404 117.614 330.105 117.605 329.972C117.597 329.839 128.457 328.942 141.866 327.947C155.274 326.953 166.144 326.251 166.152 326.384Z" fill="#46B2C8"/>
<path d="M254.589 328.178C254.589 328.311 224.077 330.673 186.426 333.462C148.775 336.25 118.228 338.399 118.219 338.275C118.21 338.15 148.722 335.788 186.391 333C224.059 330.211 254.58 328.054 254.589 328.178Z" fill="#263238"/>
<path d="M167.68 347.022C167.68 347.146 156.828 348.052 143.428 349.047C130.029 350.041 119.142 350.743 119.133 350.618C119.124 350.494 129.984 349.58 143.393 348.585C156.802 347.59 167.671 346.889 167.68 347.022Z" fill="#46B2C8"/>
<path d="M256.116 348.816C256.116 348.949 225.605 351.311 187.953 354.099C150.302 356.888 119.755 359.045 119.746 358.912C119.737 358.779 150.249 356.426 187.918 353.637C225.587 350.849 256.107 348.691 256.116 348.816Z" fill="#263238"/>
<path d="M171.054 367.917C171.054 368.041 160.194 368.947 146.794 369.941C133.394 370.936 122.543 371.637 122.543 371.504C122.543 371.371 133.394 370.474 146.803 369.479C160.212 368.485 171.037 367.783 171.054 367.917Z" fill="#46B2C8"/>
<path d="M259.492 369.71C259.492 369.843 228.972 372.205 191.321 375.038C153.669 377.871 123.122 379.984 123.113 379.851C123.104 379.718 153.625 377.365 191.285 374.576C228.945 371.788 259.475 369.586 259.492 369.71Z" fill="#263238"/>
<path d="M134.418 280.357L117.77 281.588L118.552 292.162L135.201 290.93L134.418 280.357Z" fill="#FF993C"/>
<path d="M130.213 291.306L123.527 291.801L123.772 295.113L130.458 294.618L130.213 291.306Z" fill="#FF993C"/>
<path d="M133.034 294.301C131.198 294.699 129.333 294.946 127.457 295.038C125.594 295.284 123.714 295.374 121.836 295.304C123.672 294.912 125.537 294.668 127.413 294.576C129.276 294.335 131.156 294.243 133.034 294.301Z" fill="#FF993C"/>
<path d="M268.949 268.336L279.357 262.626L289.604 266.515L280.005 272.554L268.949 268.336Z" fill="#FF993C"/>
<path d="M271.445 270.725L271.863 277.207L287.9 275.795L287.349 269.544L279.943 274.019L271.445 270.725Z" fill="#FF993C"/>
<path d="M334.776 269.596C334.776 269.73 326.677 270.431 316.669 271.168C306.661 271.905 298.536 272.411 298.527 272.287C298.518 272.163 306.626 271.452 316.634 270.706C326.641 269.961 334.776 269.472 334.776 269.596Z" fill="#FF993C"/>
<path d="M297.597 291.886C297.597 292.01 292.029 292.525 285.165 293.031C278.301 293.538 272.689 293.857 272.68 293.724C272.671 293.591 278.247 293.085 285.112 292.57C291.976 292.055 297.588 291.753 297.597 291.886Z" fill="#263238"/>
<path d="M343.337 297.48C343.337 297.613 327.682 298.874 308.359 300.304C289.036 301.733 273.345 302.79 273.336 302.666C273.327 302.542 288.991 301.272 308.323 299.842C327.655 298.412 343.328 297.391 343.337 297.48Z" fill="#263238"/>
<path d="M299.459 314.938C299.459 315.071 293.901 315.586 287.027 316.092C280.154 316.599 274.595 316.918 274.551 316.785C274.507 316.652 280.11 316.146 286.983 315.631C293.856 315.116 299.451 314.814 299.459 314.938Z" fill="#263238"/>
<path d="M345.2 320.568C345.2 320.701 329.545 321.962 310.222 323.392C290.899 324.822 275.217 325.878 275.199 325.754C275.181 325.63 290.855 324.36 310.186 322.93C329.518 321.501 345.191 320.453 345.2 320.568Z" fill="#263238"/>
<path d="M300.882 337.724C300.882 337.857 295.315 338.372 288.45 338.879C281.586 339.385 276.018 339.696 275.965 339.571C275.912 339.447 281.533 338.932 288.397 338.417C295.261 337.902 300.874 337.6 300.882 337.724Z" fill="#263238"/>
<path d="M346.622 343.363C346.622 343.497 330.967 344.758 311.644 346.187C292.321 347.617 276.63 348.674 276.621 348.549C276.612 348.425 292.277 347.155 311.608 345.726C330.94 344.296 346.613 343.239 346.622 343.363Z" fill="#263238"/>
<path d="M303.42 361.824C303.42 361.949 297.861 362.464 290.988 362.979C284.115 363.494 278.556 363.796 278.512 363.671C278.468 363.547 284.071 363.023 290.944 362.517C297.817 362.011 303.411 361.7 303.42 361.824Z" fill="#263238"/>
<path d="M349.16 367.463C349.16 367.588 333.505 368.849 314.182 370.287C294.859 371.726 279.177 372.774 279.168 372.64C279.159 372.507 294.815 371.255 314.146 369.825C333.478 368.396 349.151 367.33 349.16 367.463Z" fill="#263238"/>
<path d="M263.232 100.344C263.93 99.9703 264.505 99.4004 264.883 98.7046C265.262 98.0087 265.429 97.2171 265.363 96.4276C265.362 95.9056 265.254 95.3894 265.046 94.9109C264.837 94.4323 264.533 94.0018 264.151 93.6459C263.769 93.29 263.318 93.0163 262.826 92.8419C262.334 92.6676 261.812 92.5961 261.291 92.6321C260.77 92.6681 260.262 92.8107 259.799 93.0511C259.336 93.2915 258.927 93.6245 258.597 94.0295C258.268 94.4346 258.026 94.9029 257.885 95.4056C257.744 95.9082 257.708 96.4344 257.779 96.9515C257.829 97.7387 258.108 98.4942 258.581 99.1252C259.054 99.7562 259.702 100.235 260.443 100.504C254.68 101.809 255.417 108.131 255.417 108.131L269.208 107.172C269.208 107.172 269.066 100.797 263.232 100.344Z" fill="#FF993C"/>
<path d="M285.699 189.872C285.699 190.005 280.095 190.52 273.16 191.035C266.225 191.55 260.595 191.861 260.586 191.737C260.577 191.613 266.189 191.089 273.125 190.574C280.06 190.059 285.69 189.748 285.699 189.872Z" fill="#263238"/>
<path d="M286.648 200.963C286.648 201.088 281.045 201.612 274.109 202.127C267.174 202.642 261.544 202.953 261.535 202.819C261.526 202.686 267.138 202.171 274.074 201.665C281.009 201.159 286.639 200.839 286.648 200.963Z" fill="#263238"/>
<path d="M335.362 187.501L294.514 190.529C294.148 190.556 293.786 190.437 293.508 190.197C293.23 189.957 293.058 189.617 293.031 189.251C293.004 188.885 293.124 188.523 293.364 188.245C293.603 187.967 293.944 187.795 294.31 187.768L335.158 184.74C335.339 184.725 335.522 184.747 335.695 184.803C335.868 184.86 336.028 184.95 336.166 185.069C336.304 185.188 336.417 185.333 336.499 185.496C336.58 185.659 336.628 185.837 336.641 186.018C336.655 186.2 336.634 186.383 336.577 186.556C336.52 186.729 336.43 186.889 336.311 187.027C336.192 187.165 336.047 187.278 335.884 187.359C335.721 187.441 335.544 187.489 335.362 187.501Z" fill="#E0E0E0"/>
<path d="M329.394 187.945L294.487 190.529C294.121 190.556 293.759 190.437 293.481 190.197C293.203 189.957 293.031 189.617 293.004 189.25C292.977 188.884 293.096 188.522 293.336 188.244C293.576 187.966 293.916 187.795 294.282 187.767L329.19 185.183C329.556 185.157 329.918 185.276 330.196 185.516C330.474 185.756 330.645 186.096 330.673 186.462C330.697 186.828 330.577 187.188 330.338 187.466C330.098 187.743 329.759 187.916 329.394 187.945Z" fill="#FF993C"/>
<path d="M336.135 197.935L295.287 200.954C294.921 200.981 294.559 200.862 294.281 200.622C294.003 200.382 293.831 200.042 293.804 199.675C293.779 199.31 293.9 198.949 294.139 198.672C294.378 198.394 294.717 198.222 295.083 198.193L335.931 195.173C336.112 195.159 336.295 195.18 336.468 195.237C336.641 195.294 336.801 195.384 336.939 195.503C337.077 195.622 337.19 195.767 337.272 195.93C337.353 196.093 337.401 196.27 337.414 196.452C337.441 196.818 337.321 197.18 337.081 197.458C336.841 197.736 336.501 197.908 336.135 197.935Z" fill="#E0E0E0"/>
<path d="M323.942 198.832L295.26 200.954C294.893 200.981 294.531 200.861 294.253 200.622C293.975 200.382 293.804 200.042 293.777 199.675C293.752 199.31 293.872 198.949 294.112 198.672C294.351 198.394 294.69 198.222 295.055 198.192L323.738 196.07C324.104 196.043 324.466 196.163 324.744 196.403C325.022 196.642 325.193 196.983 325.221 197.349C325.248 197.715 325.128 198.077 324.888 198.355C324.648 198.633 324.308 198.805 323.942 198.832Z" fill="#FF993C"/>
<path d="M287.855 212.286C287.855 212.41 282.252 212.934 275.316 213.44C268.381 213.946 262.751 214.266 262.742 214.142C262.733 214.017 268.345 213.493 275.281 212.978C282.216 212.463 287.846 212.153 287.855 212.286Z" fill="#263238"/>
<path d="M288.804 223.367C288.804 223.5 283.201 224.015 276.265 224.53C269.33 225.046 263.7 225.356 263.691 225.232C263.683 225.108 269.295 224.584 276.23 224.069C283.165 223.554 288.795 223.243 288.804 223.367Z" fill="#263238"/>
<path d="M337.522 209.906L296.674 212.934C296.308 212.961 295.946 212.841 295.668 212.602C295.39 212.362 295.218 212.022 295.191 211.655C295.164 211.289 295.284 210.927 295.524 210.649C295.763 210.371 296.104 210.2 296.47 210.172L337.318 207.144C337.684 207.117 338.046 207.237 338.324 207.477C338.602 207.717 338.774 208.057 338.801 208.423C338.815 208.605 338.794 208.787 338.737 208.96C338.681 209.134 338.59 209.294 338.471 209.432C338.352 209.57 338.207 209.683 338.044 209.764C337.881 209.845 337.704 209.894 337.522 209.906Z" fill="#E0E0E0"/>
<path d="M331.545 210.349L296.647 212.933C296.281 212.96 295.919 212.841 295.641 212.601C295.363 212.361 295.191 212.021 295.164 211.655C295.137 211.289 295.257 210.927 295.496 210.649C295.736 210.371 296.076 210.199 296.443 210.172L331.341 207.588C331.707 207.561 332.069 207.68 332.347 207.92C332.625 208.16 332.797 208.5 332.824 208.866C332.838 209.048 332.817 209.231 332.76 209.404C332.704 209.577 332.613 209.737 332.494 209.875C332.375 210.013 332.23 210.126 332.067 210.207C331.904 210.289 331.727 210.337 331.545 210.349Z" fill="#FF993C"/>
<path d="M338.327 220.34L297.479 223.368C297.113 223.395 296.751 223.275 296.473 223.035C296.195 222.795 296.023 222.455 295.996 222.089C295.969 221.723 296.089 221.361 296.328 221.083C296.568 220.805 296.908 220.633 297.275 220.606L338.123 217.578C338.489 217.551 338.851 217.671 339.129 217.91C339.407 218.15 339.578 218.491 339.606 218.857C339.633 219.223 339.513 219.585 339.273 219.863C339.033 220.141 338.693 220.312 338.327 220.34Z" fill="#E0E0E0"/>
<path d="M326.099 221.245L297.416 223.368C297.05 223.394 296.688 223.275 296.41 223.035C296.132 222.795 295.961 222.455 295.933 222.089C295.907 221.723 296.026 221.361 296.266 221.083C296.506 220.805 296.846 220.633 297.212 220.606L325.895 218.448C326.261 218.421 326.623 218.541 326.901 218.781C327.179 219.02 327.35 219.361 327.377 219.727C327.396 219.911 327.377 220.097 327.322 220.274C327.267 220.45 327.178 220.614 327.059 220.756C326.939 220.897 326.793 221.014 326.628 221.098C326.463 221.182 326.283 221.232 326.099 221.245Z" fill="#FF993C"/>
<path d="M290.235 235.187C290.235 235.32 284.623 235.835 277.687 236.35C270.752 236.865 265.122 237.176 265.113 237.051C265.104 236.927 270.717 236.403 277.652 235.888C284.587 235.373 290.226 235.062 290.235 235.187Z" fill="#263238"/>
<path d="M339.9 232.816L299.052 235.835C298.686 235.862 298.324 235.743 298.046 235.503C297.768 235.263 297.596 234.923 297.569 234.557C297.547 234.192 297.668 233.832 297.907 233.555C298.146 233.278 298.483 233.105 298.848 233.074L339.696 230.055C340.063 230.028 340.426 230.147 340.705 230.386C340.985 230.626 341.158 230.966 341.188 231.333C341.212 231.7 341.09 232.062 340.849 232.34C340.608 232.618 340.267 232.789 339.9 232.816Z" fill="#E0E0E0"/>
<path d="M321.696 234.156L299.017 235.835C298.651 235.862 298.289 235.742 298.011 235.502C297.733 235.263 297.561 234.922 297.534 234.556C297.512 234.191 297.633 233.832 297.872 233.555C298.111 233.278 298.448 233.105 298.813 233.073L321.457 231.395C321.822 231.37 322.183 231.491 322.46 231.73C322.738 231.969 322.91 232.308 322.94 232.673C322.967 233.034 322.852 233.391 322.62 233.668C322.388 233.945 322.056 234.12 321.696 234.156Z" fill="#FF993C"/>
<path d="M272.102 178.577L270.663 176.046C271.572 174.607 271.909 172.88 271.609 171.205C271.308 169.53 270.391 168.029 269.039 166.996C267.686 165.963 265.996 165.474 264.301 165.624C262.606 165.775 261.029 166.555 259.88 167.811C258.731 169.066 258.094 170.706 258.094 172.408C258.094 174.11 258.731 175.75 259.879 177.006C261.028 178.261 262.605 179.042 264.3 179.193C265.995 179.344 267.685 178.855 269.038 177.822L272.102 178.577Z" fill="#FF993C"/>
<path d="M324.59 168.942C324.59 169.075 315.133 169.883 303.438 170.718C291.743 171.552 282.259 172.183 282.25 172.059C282.241 171.934 291.707 171.126 303.402 170.283C315.097 169.439 324.581 168.817 324.59 168.942Z" fill="#FF993C"/>
<path d="M84.4414 70.4897L101.402 271.133L251.057 259.998L234.895 58.999L84.4414 70.4897Z" fill="#EBEBEB"/>
<path d="M238.729 53.178L90.4062 63.5605L104.512 265.066L252.834 254.683L238.729 53.178Z" fill="#FAFAFA"/>
<path d="M104.787 264.455V264.011L89.8867 62.6129H90.3218L238.68 51.5928V52.0368L253.59 253.435H253.146L104.787 264.455ZM90.8369 63.4298L105.675 263.505L252.702 252.618L237.863 52.5518L90.8369 63.4298Z" fill="#263238"/>
<path d="M208.511 82.495C208.482 82.3844 208.461 82.2715 208.449 82.1576C208.449 81.9089 208.369 81.5804 208.307 81.163C208.192 80.275 208.023 78.9697 207.819 77.3269C207.615 75.6841 207.357 73.6061 207.064 71.2441C206.946 69.9846 206.753 68.7333 206.487 67.4967C206.333 66.8339 206.059 66.2049 205.679 65.6408C205.287 65.0551 204.712 64.6151 204.045 64.3887C203.314 64.1864 202.543 64.1783 201.808 64.3652C201.073 64.5521 200.399 64.9275 199.853 65.4543C198.683 66.6679 197.93 68.2233 197.704 69.8943C197.154 73.5871 197.262 77.3482 198.024 81.0032C198.37 82.9479 198.743 84.9548 199.187 86.9794C199.588 89.0413 200.323 91.0239 201.363 92.8491C202.454 94.7167 204.167 96.1408 206.203 96.8717C207.231 97.2356 208.338 97.3153 209.408 97.1026C210.49 96.8783 211.486 96.3554 212.285 95.593C213.88 94.0322 214.876 91.9612 215.1 89.7411C215.303 87.5694 215.246 85.3815 214.932 83.2232C214.452 78.9253 213.99 74.7872 213.546 70.7912C213.324 68.8198 213.111 66.8929 212.907 65.0281C212.703 63.1633 212.516 61.3429 212.179 59.6201C211.896 57.9536 211.385 56.3341 210.66 54.8072C209.991 53.4077 209.017 52.1758 207.81 51.2019C205.664 49.572 203.004 48.7683 200.315 48.9375C198.282 49.0024 196.326 49.7323 194.747 51.0154C193.778 51.8553 193.044 52.9323 192.616 54.1412C192.332 54.9759 192.27 55.4377 192.234 55.4377C192.283 54.9872 192.381 54.5434 192.527 54.1145C192.926 52.8696 193.649 51.7537 194.623 50.8822C196.22 49.5423 198.215 48.768 200.297 48.68C203.056 48.4779 205.794 49.2824 208.005 50.9444C209.264 51.9376 210.282 53.2038 210.98 54.6473C211.728 56.2013 212.26 57.8506 212.561 59.5491C212.898 61.3251 213.093 63.1011 213.315 64.9837C213.537 66.8662 213.742 68.7754 213.973 70.7468C214.417 74.6895 214.861 78.8365 215.376 83.1255C215.702 85.3214 215.762 87.5487 215.553 89.7589C215.318 92.0877 214.271 94.2596 212.596 95.8949C211.733 96.7103 210.66 97.2698 209.497 97.5111C208.35 97.7352 207.165 97.6525 206.061 97.2713C203.924 96.497 202.125 95.0023 200.972 93.0445C199.917 91.1722 199.171 89.1423 198.761 87.0327C198.317 84.9903 197.953 82.9923 197.607 81.0298C196.834 77.3159 196.729 73.4941 197.296 69.7433C197.557 68.0073 198.359 66.3977 199.587 65.1435C200.18 64.5772 200.911 64.1766 201.707 63.9818C202.504 63.787 203.337 63.8048 204.125 64.0335C204.851 64.2904 205.475 64.7766 205.901 65.4188C206.295 66.014 206.578 66.676 206.735 67.3724C206.995 68.6272 207.178 69.8963 207.286 71.173C207.543 73.5351 207.774 75.613 207.961 77.2558C208.147 78.8986 208.272 80.1951 208.369 81.1009C208.369 81.5271 208.44 81.8557 208.458 82.1043C208.489 82.2325 208.506 82.3634 208.511 82.495Z" fill="#263238"/>
<path d="M147.605 75.3644L135.866 70.4893C132.695 72.505 127.518 78.055 126.098 84.2533C125.28 87.6489 124.98 91.1488 125.21 94.634C125.405 98.3902 125.068 102.368 122.99 105.503C121.507 107.732 119.118 109.677 119.074 112.358C119.029 115.44 122.217 118.095 121.569 121.114C121.045 123.529 118.354 124.746 116.951 126.78C114.909 129.728 115.894 133.759 117.226 137.089C120.441 145.126 113.603 156.687 119.624 162.903C125.565 158.028 143.129 148.988 149.07 144.113C150.468 143.13 151.624 141.843 152.453 140.348C153.484 138.084 152.924 135.464 152.391 133.04C148.219 114.116 146.609 94.7172 147.605 75.3644Z" fill="#263238"/>
<path d="M217.81 213.955L212.02 208.094L150.126 225.552C150.126 225.552 146.725 252.76 147.072 254.501C147.418 256.241 147.072 261.214 147.072 261.214L232.488 254.554C232.488 254.554 233.456 231.386 217.81 213.955Z" fill="#263238"/>
<path d="M166.865 237.611C166.783 237.859 166.663 238.093 166.51 238.304C166.252 238.721 165.879 239.334 165.346 240.08C164.731 240.926 164.022 241.7 163.233 242.388C162.232 243.208 161.079 243.824 159.841 244.2C157.623 244.907 155.305 245.252 152.977 245.221C152.276 245.219 151.577 245.177 150.881 245.097C150.62 245.095 150.361 245.047 150.117 244.955C150.117 244.884 151.218 244.955 152.977 244.893C155.259 244.825 157.521 244.442 159.699 243.756C160.883 243.372 161.986 242.769 162.949 241.98C163.729 241.32 164.443 240.585 165.08 239.787C166.19 238.481 166.803 237.567 166.865 237.611Z" fill="#455A64"/>
<path d="M187.227 258.141C187.11 257.872 187.029 257.588 186.987 257.298C186.863 256.756 186.694 255.957 186.516 254.962C186.143 252.982 185.708 250.238 185.371 247.183C185.033 244.129 184.856 241.34 184.785 239.333C184.785 238.33 184.731 237.557 184.74 236.945C184.711 236.648 184.729 236.348 184.793 236.057C184.964 237.13 185.071 238.212 185.113 239.298C185.273 241.296 185.495 244.066 185.832 247.112C186.17 250.158 186.552 252.902 186.836 254.891C187.039 255.964 187.17 257.05 187.227 258.141Z" fill="#455A64"/>
<path d="M193.14 256.721C193.006 256.721 192.482 252.121 191.967 246.429C191.452 240.737 191.079 236.111 191.248 236.093C191.417 236.075 191.905 240.693 192.42 246.385C192.935 252.077 193.264 256.712 193.14 256.721Z" fill="#455A64"/>
<path d="M223.156 224.966C222.992 225.222 222.798 225.458 222.579 225.668C222.188 226.103 221.611 226.715 220.803 227.444C219.917 228.299 218.95 229.066 217.917 229.735C216.631 230.564 215.195 231.131 213.69 231.404C212.168 231.647 210.609 231.472 209.179 230.898C208.032 230.43 206.953 229.808 205.973 229.051C205.314 228.55 204.685 228.01 204.09 227.435C203.856 227.239 203.647 227.016 203.469 226.769C203.522 226.707 204.481 227.586 206.133 228.785C207.109 229.488 208.172 230.064 209.294 230.498C210.659 231.023 212.139 231.176 213.583 230.942C215.027 230.685 216.408 230.151 217.65 229.371C218.679 228.73 219.65 228.002 220.554 227.195C222.179 225.819 223.102 224.913 223.156 224.966Z" fill="#455A64"/>
<path d="M227.89 242.193C227.639 242.387 227.365 242.548 227.073 242.673L224.791 243.863C222.864 244.875 220.227 246.323 217.412 248.063C214.597 249.804 212.084 251.526 210.308 252.796L208.221 254.306C207.979 254.512 207.71 254.686 207.422 254.821C207.626 254.579 207.856 254.358 208.106 254.164C208.567 253.764 209.251 253.205 210.113 252.53C214.638 249.043 219.516 246.04 224.667 243.57C225.653 243.099 226.443 242.735 227.029 242.504C227.3 242.361 227.59 242.256 227.89 242.193Z" fill="#455A64"/>
<path d="M171.43 234.938C171.368 234.938 171.155 234.512 170.871 233.757C170.506 232.765 170.244 231.739 170.089 230.693C169.938 229.632 169.998 228.552 170.267 227.514C170.352 227.076 170.538 226.662 170.808 226.307C170.502 227.727 170.415 229.185 170.551 230.631C170.702 231.652 170.912 232.663 171.181 233.659C171.336 234.068 171.42 234.501 171.43 234.938Z" fill="#455A64"/>
<path d="M175.16 235.16C174.947 234.763 174.8 234.334 174.725 233.89C174.438 232.844 174.245 231.774 174.148 230.694C174.111 230.1 174.141 229.504 174.237 228.918C174.332 228.426 174.497 227.951 174.725 227.506C175.116 226.751 175.515 226.404 175.551 226.44C175.403 226.852 175.225 227.253 175.018 227.639C174.659 228.618 174.519 229.664 174.61 230.702C174.69 231.928 174.929 233.038 175.054 233.855C175.162 234.281 175.198 234.722 175.16 235.16Z" fill="#455A64"/>
<path d="M198.026 233.011C198.016 230.795 197.556 228.605 196.676 226.572C195.795 224.539 194.511 222.706 192.902 221.183C193.488 221.497 194.012 221.915 194.447 222.417C195.568 223.569 196.47 224.913 197.111 226.386C197.75 227.859 198.115 229.436 198.186 231.039C198.25 231.701 198.196 232.368 198.026 233.011Z" fill="#455A64"/>
<path d="M202.136 231.573C201.735 229.576 201.189 227.611 200.502 225.694C199.663 223.85 198.689 222.069 197.59 220.366C198.064 220.746 198.472 221.202 198.798 221.716C200.533 224.098 201.655 226.87 202.065 229.788C202.181 230.376 202.205 230.978 202.136 231.573Z" fill="#455A64"/>
<path d="M186.41 228.509C186.41 228.509 186.569 228.269 187.031 228.056C187.692 227.768 188.437 227.739 189.118 227.976C189.599 228.134 190.029 228.419 190.361 228.802C190.738 229.255 190.953 229.82 190.974 230.409C190.999 231.054 190.828 231.691 190.486 232.238C190.3 232.537 190.056 232.796 189.77 233C189.483 233.205 189.159 233.35 188.816 233.428C188.155 233.564 187.467 233.476 186.861 233.179C186.256 232.882 185.765 232.392 185.468 231.786C185.243 231.247 185.188 230.652 185.309 230.081C185.377 229.576 185.582 229.1 185.903 228.704C186.404 228.187 187.077 227.871 187.795 227.816C187.925 227.794 188.059 227.799 188.187 227.831C188.316 227.863 188.436 227.922 188.541 228.003C188.299 227.982 188.055 227.982 187.813 228.003C187.168 228.118 186.582 228.45 186.152 228.944C185.894 229.298 185.734 229.715 185.69 230.152C185.596 230.648 185.652 231.161 185.85 231.626C186.118 232.131 186.542 232.538 187.058 232.784C187.575 233.03 188.157 233.104 188.718 232.993C189.266 232.837 189.745 232.501 190.078 232.038C190.41 231.575 190.575 231.014 190.548 230.445C190.541 229.943 190.373 229.457 190.068 229.059C189.784 228.724 189.421 228.465 189.011 228.305C188.398 228.064 187.721 228.042 187.093 228.242C186.649 228.376 186.481 228.544 186.41 228.509Z" fill="#455A64"/>
<path d="M131.088 142.302C130.6 142.897 116.356 151.972 114.216 157.815C112.076 163.658 115.522 187.492 116.117 191.612C116.712 195.733 124.792 211.29 124.792 211.29C124.792 211.29 123.096 218.004 125.316 222.142C126.759 224.701 128.92 226.782 131.532 228.127L145.847 220.286L136.967 180.095L131.088 142.302Z" fill="#46B2C8"/>
<path d="M132.642 184.518C133.051 183.941 133.601 183.568 133.939 183.132C134.276 182.697 135.005 182.502 135.351 182.919C135.697 183.337 135.351 184.109 134.898 184.571C136.337 184.624 137.429 182.653 138.823 183.044C139.036 183.14 139.228 183.277 139.388 183.447C139.548 183.617 139.673 183.817 139.755 184.036C139.838 184.255 139.876 184.487 139.869 184.721C139.861 184.954 139.807 185.184 139.711 185.397C139.263 186.239 138.557 186.915 137.695 187.324C136.833 187.723 136.058 188.287 135.413 188.984C135.111 189.375 134.916 189.97 135.244 190.343C135.804 190.982 137.1 190.228 137.597 190.911C137.926 191.373 137.526 191.995 137.145 192.421C135.742 193.936 134.344 195.461 132.953 196.994C132.618 197.432 132.174 197.774 131.666 197.989C131.409 198.084 131.126 198.079 130.873 197.975C130.62 197.872 130.415 197.677 130.298 197.429C130.258 197.163 130.304 196.89 130.428 196.651C130.553 196.412 130.75 196.218 130.991 196.097C131.484 195.879 131.956 195.618 132.403 195.316C132.621 195.16 132.77 194.926 132.818 194.662C132.866 194.398 132.809 194.127 132.66 193.904C132.19 193.424 131.39 193.824 130.884 194.241L126 198.078C125.665 198.393 125.251 198.611 124.801 198.708C124.577 198.745 124.347 198.695 124.159 198.568C123.971 198.441 123.838 198.246 123.789 198.024C123.794 197.786 123.868 197.555 124.002 197.358C124.887 195.81 126.099 194.473 127.554 193.442C128.144 193.104 128.675 192.672 129.126 192.163C129.345 191.905 129.478 191.584 129.505 191.246C129.532 190.909 129.452 190.571 129.277 190.281C128.317 191.184 127.257 191.974 126.116 192.634C125.716 192.874 125.13 193.069 124.828 192.705C124.526 192.341 124.828 191.817 125.157 191.418L130.209 185.486C130.391 185.209 130.626 184.97 130.9 184.784C131.175 184.598 131.483 184.469 131.808 184.402L132.642 184.518Z" fill="white"/>
<path d="M139.683 129.301L138.529 136.326L128.015 144.744C128.015 144.744 125.529 160.603 127.9 176.712C127.9 176.712 143.306 218.448 143.679 220.224C144.381 223.607 150.597 226.44 150.597 226.44C150.597 226.44 174.067 226.662 182.13 225.499C190.193 224.335 209.658 212.036 211.523 210.403C213.387 208.769 215.492 200.919 215.492 200.919L201.142 160.728L200.334 132.454L178.889 126.948L171.607 121.318L139.683 129.301Z" fill="#46B2C8"/>
<path d="M202.927 158.623C203.335 158.046 203.886 157.673 204.214 157.238C204.543 156.803 205.289 156.607 205.635 157.025C205.982 157.442 205.635 158.215 205.174 158.676C206.621 158.73 207.713 156.758 209.107 157.149C209.32 157.245 209.512 157.382 209.672 157.552C209.832 157.723 209.957 157.923 210.04 158.141C210.122 158.36 210.161 158.593 210.153 158.826C210.145 159.06 210.092 159.29 209.995 159.502C209.548 160.344 208.841 161.02 207.98 161.429C207.118 161.828 206.342 162.392 205.697 163.09C205.396 163.489 205.2 164.076 205.529 164.448C206.079 165.088 207.385 164.333 207.882 165.017C208.21 165.479 207.811 166.1 207.429 166.526C206.026 168.048 204.629 169.572 203.238 171.1C202.902 171.537 202.458 171.88 201.95 172.094C201.694 172.191 201.41 172.188 201.156 172.084C200.902 171.98 200.697 171.784 200.583 171.535C200.542 171.269 200.587 170.998 200.712 170.76C200.837 170.522 201.034 170.33 201.275 170.212C201.767 169.987 202.239 169.723 202.687 169.421C202.903 169.264 203.051 169.03 203.099 168.767C203.147 168.504 203.092 168.233 202.945 168.009C202.474 167.53 201.675 167.929 201.169 168.347L196.249 172.183C195.919 172.499 195.507 172.718 195.059 172.813C194.835 172.851 194.605 172.801 194.417 172.673C194.228 172.546 194.096 172.352 194.047 172.13C194.052 171.892 194.126 171.661 194.26 171.464C195.144 169.915 196.357 168.579 197.812 167.548C198.402 167.209 198.933 166.777 199.384 166.269C199.603 166.011 199.736 165.69 199.763 165.352C199.79 165.014 199.71 164.676 199.535 164.386C198.575 165.29 197.514 166.08 196.373 166.74C195.965 166.979 195.388 167.175 195.086 166.811C194.784 166.447 195.086 165.923 195.414 165.523C197.102 163.54 198.786 161.562 200.467 159.591C200.649 159.314 200.884 159.076 201.158 158.89C201.432 158.704 201.741 158.574 202.066 158.508L202.927 158.623Z" fill="white"/>
<path d="M199.986 132.587C199.986 132.587 211.859 136.752 214.967 143.856C218.075 150.96 229.974 184.704 229.228 190.92C228.482 197.136 226.502 204.24 221.121 204.559C215.739 204.879 209.577 199.4 209.577 199.4L204.746 191.541L205.003 183.309L199.516 161.394L199.986 132.587Z" fill="#46B2C8"/>
<path d="M140.137 132.738C140.137 132.791 164.663 162.788 164.663 162.788L167.993 134.994L172.638 121.31L140.67 129.204L140.137 132.738Z" fill="#967262"/>
<g opacity="0.3">
<path d="M190.753 130.581C189.305 129.853 187.565 130.43 186.1 131.113C177.806 135.03 168.793 139.78 166.359 148.616L166.262 153.944C167.025 157.159 170.347 159.272 173.641 159.556C176.935 159.84 180.177 158.615 183.125 157.123C185.773 155.791 188.299 154.228 190.673 152.452C191.987 151.466 193.337 150.259 193.594 148.634C193.923 146.414 192.058 144.478 191.641 142.276C191.241 140.224 192.12 138.164 192.529 136.113C192.937 134.062 192.626 131.513 190.753 130.581Z" fill="black"/>
</g>
<path d="M127.875 176.756C127.977 176.916 128.058 177.09 128.115 177.271L128.719 178.78C129.225 180.104 129.953 182.013 130.823 184.384C132.599 189.126 134.81 195.741 137.323 203.032C138.593 206.673 139.827 210.136 140.964 213.27C141.532 214.842 142.056 216.343 142.607 217.71C143.116 218.98 143.743 220.199 144.481 221.351C145.564 223.01 146.99 224.418 148.663 225.48C149.862 226.217 150.599 226.502 150.572 226.546C150.388 226.5 150.209 226.435 150.039 226.351C149.533 226.149 149.043 225.908 148.574 225.631C146.828 224.612 145.337 223.209 144.214 221.529C143.442 220.374 142.784 219.145 142.252 217.861C141.675 216.476 141.142 214.984 140.556 213.421C139.401 210.287 138.149 206.832 136.888 203.183C134.402 195.919 132.155 189.339 130.512 184.535C129.695 182.182 129.029 180.272 128.55 178.878L128.026 177.333C127.957 177.146 127.906 176.953 127.875 176.756Z" fill="#263238"/>
<path d="M164.547 163.739C164.46 163.659 164.382 163.57 164.316 163.472L163.686 162.664C163.135 161.963 162.336 160.888 161.288 159.645C158.433 156.149 155.338 152.855 152.026 149.788L152.382 149.637C152.284 153.704 152.177 158.268 152.062 163.081C152.062 163.508 152.062 163.969 152.062 164.325V165.275L151.653 164.387C147.879 156.652 144.496 149.699 142.028 144.62C140.838 142.133 139.879 140.109 139.177 138.653C138.866 137.978 138.618 137.436 138.431 137.019C138.337 136.833 138.257 136.64 138.191 136.441C138.318 136.609 138.426 136.791 138.511 136.983C138.724 137.383 138.999 137.871 139.337 138.573L142.321 144.478C144.825 149.539 148.252 156.466 152.089 164.183L151.653 164.28C151.653 163.881 151.653 163.463 151.653 163.037C151.787 158.224 151.902 153.66 152.009 149.593V149.122L152.346 149.442C155.651 152.543 158.717 155.888 161.519 159.449C162.54 160.755 163.295 161.82 163.828 162.549L164.405 163.392C164.468 163.501 164.515 163.617 164.547 163.739Z" fill="#263238"/>
<path d="M199.463 185.432C199.56 185.521 192.359 193.185 183.479 202.544C174.598 211.904 167.246 219.416 167.157 219.336C167.068 219.256 174.217 211.593 183.141 202.224C192.065 192.856 199.374 185.344 199.463 185.432Z" fill="#263238"/>
<path d="M186.153 224.051C185.86 223.142 185.628 222.213 185.461 221.272C185.061 219.549 184.457 217.187 183.632 214.63C182.806 212.072 181.9 209.799 181.207 208.174C180.797 207.308 180.438 206.418 180.133 205.51C180.671 206.305 181.132 207.149 181.509 208.032C182.5 210.123 183.355 212.276 184.067 214.479C184.785 216.676 185.357 218.919 185.78 221.192C186.001 222.13 186.126 223.088 186.153 224.051Z" fill="#263238"/>
<path d="M126.036 175.282C123.969 174.16 121.978 172.902 120.077 171.517C118.085 170.265 116.177 168.883 114.367 167.379C116.437 168.497 118.431 169.752 120.335 171.135C122.324 172.39 124.229 173.776 126.036 175.282Z" fill="#263238"/>
<path d="M221.113 204.506C221.113 204.506 221.006 204.506 220.802 204.506H219.914C219.426 204.51 218.939 204.471 218.458 204.391C217.802 204.303 217.154 204.16 216.522 203.964C214.827 203.403 213.267 202.496 211.94 201.3C210.247 199.762 208.908 197.874 208.015 195.768C207.18 192.394 206.239 188.664 205.28 184.704C203.504 177.191 201.826 170.398 200.627 165.407L199.259 159.547L198.913 157.948C198.864 157.765 198.834 157.578 198.824 157.389C198.91 157.56 198.972 157.742 199.011 157.93C199.117 158.339 199.259 158.863 199.437 159.502C199.81 160.941 200.325 162.912 200.938 165.327C202.181 170.309 203.868 177.093 205.733 184.597C206.692 188.54 207.607 192.296 208.397 195.67C209.259 197.724 210.545 199.573 212.171 201.096C213.454 202.277 214.965 203.183 216.611 203.76C218.075 204.194 219.587 204.445 221.113 204.506Z" fill="#263238"/>
<path d="M134.382 205.056C133.797 205.22 133.204 205.35 132.606 205.447C129.808 206.142 127.351 207.814 125.679 210.162C125.37 210.677 125.036 211.174 124.676 211.654C124.802 211.054 125.05 210.486 125.404 209.985C126.187 208.722 127.228 207.638 128.459 206.806C129.681 205.961 131.071 205.388 132.535 205.127C133.138 204.97 133.768 204.946 134.382 205.056Z" fill="#263238"/>
<path d="M134.542 204.044C133.254 204.805 131.846 205.339 130.378 205.625C128.941 206.066 127.438 206.252 125.938 206.175C125.937 206.042 127.882 205.767 130.244 205.181C132.606 204.595 134.489 203.92 134.542 204.044Z" fill="#263238"/>
<path d="M131.762 154.716C132.18 154.139 132.73 153.766 133.059 153.331C133.387 152.896 134.125 152.691 134.48 153.118C134.835 153.544 134.48 154.299 134.018 154.76C135.465 154.823 136.558 152.851 137.952 153.242C138.165 153.338 138.357 153.475 138.517 153.645C138.677 153.815 138.802 154.016 138.884 154.234C138.967 154.453 139.005 154.686 138.998 154.919C138.99 155.153 138.936 155.382 138.84 155.595C138.392 156.437 137.685 157.113 136.824 157.522C135.966 157.924 135.194 158.487 134.551 159.183C134.249 159.573 134.053 160.168 134.382 160.541C134.933 161.181 136.238 160.426 136.726 161.11C137.064 161.571 136.664 162.193 136.273 162.61L132.091 167.192C131.755 167.63 131.312 167.973 130.803 168.187C130.547 168.282 130.264 168.277 130.011 168.174C129.757 168.07 129.552 167.875 129.436 167.627C129.396 167.361 129.442 167.088 129.566 166.849C129.691 166.61 129.887 166.416 130.129 166.295C130.619 166.072 131.091 165.811 131.54 165.514C131.757 165.357 131.904 165.122 131.951 164.858C131.997 164.595 131.939 164.324 131.789 164.102C131.327 163.614 130.528 164.022 130.013 164.431L125.12 168.276C124.79 168.592 124.378 168.81 123.93 168.906C123.706 168.943 123.476 168.893 123.288 168.766C123.1 168.639 122.967 168.444 122.918 168.222C122.922 167.984 122.996 167.753 123.131 167.556C124.026 166.002 125.254 164.664 126.727 163.64C127.312 163.299 127.84 162.867 128.29 162.362C128.511 162.104 128.645 161.784 128.674 161.446C128.703 161.108 128.624 160.77 128.45 160.479C127.487 161.378 126.426 162.167 125.289 162.832C124.88 163.072 124.303 163.259 124.001 162.903C123.699 162.548 124.001 162.015 124.321 161.607L129.383 155.684C129.75 155.123 130.325 154.73 130.981 154.592L131.762 154.716Z" fill="white"/>
<path d="M169.076 166.776C169.484 166.198 170.035 165.825 170.373 165.39C170.71 164.955 171.438 164.751 171.784 165.177C172.131 165.603 171.784 166.358 171.323 166.82C172.77 166.882 173.862 164.911 175.257 165.301C175.47 165.397 175.662 165.534 175.822 165.705C175.982 165.875 176.106 166.075 176.189 166.294C176.271 166.512 176.31 166.745 176.302 166.979C176.295 167.212 176.241 167.442 176.145 167.655C175.695 168.493 174.989 169.166 174.129 169.573C173.268 169.978 172.493 170.545 171.847 171.242C171.545 171.633 171.349 172.228 171.678 172.601C172.237 173.231 173.534 172.485 174.031 173.169C174.36 173.631 173.96 174.252 173.578 174.67L169.387 179.252C169.053 179.696 168.609 180.045 168.099 180.264C167.842 180.359 167.558 180.353 167.304 180.247C167.051 180.142 166.847 179.945 166.732 179.696C166.693 179.431 166.739 179.159 166.863 178.922C166.987 178.684 167.184 178.492 167.424 178.373C167.914 178.148 168.386 177.887 168.836 177.591C169.245 177.245 169.467 176.561 169.094 176.179C168.721 175.798 167.824 176.1 167.318 176.508L162.434 180.353C162.095 180.663 161.682 180.88 161.235 180.984C161.011 181.021 160.781 180.971 160.593 180.843C160.404 180.716 160.272 180.522 160.223 180.3C160.226 180.062 160.301 179.83 160.436 179.634C161.315 178.082 162.528 176.744 163.988 175.718C164.575 175.376 165.106 174.945 165.56 174.439C165.779 174.181 165.912 173.86 165.939 173.522C165.966 173.184 165.886 172.846 165.711 172.556C164.749 173.457 163.688 174.247 162.549 174.91C162.15 175.14 161.564 175.336 161.262 174.981C160.96 174.625 161.262 174.093 161.59 173.684C163.277 171.713 164.962 169.736 166.643 167.752C167.016 167.198 167.589 166.81 168.241 166.669L169.076 166.776Z" fill="white"/>
<path d="M154.86 202.126C155.277 201.549 155.828 201.176 156.157 200.741C156.485 200.306 157.222 200.11 157.577 200.528C157.933 200.945 157.577 201.718 157.116 202.171C158.563 202.233 159.655 200.261 161.049 200.652C161.263 200.748 161.455 200.885 161.615 201.055C161.774 201.226 161.899 201.426 161.982 201.644C162.064 201.863 162.103 202.096 162.095 202.329C162.088 202.563 162.034 202.792 161.937 203.005C161.49 203.847 160.783 204.523 159.922 204.932C159.064 205.334 158.292 205.898 157.648 206.593C157.347 206.983 157.151 207.578 157.48 207.951C158.03 208.591 159.336 207.836 159.824 208.52C160.161 208.982 159.762 209.603 159.371 210.02L155.189 214.603C154.853 215.04 154.409 215.383 153.901 215.597C153.644 215.692 153.362 215.687 153.108 215.584C152.855 215.48 152.65 215.285 152.534 215.038C152.494 214.771 152.539 214.499 152.664 214.259C152.788 214.02 152.985 213.826 153.226 213.706C153.719 213.488 154.192 213.226 154.638 212.924C154.855 212.767 155.002 212.532 155.048 212.269C155.095 212.005 155.037 211.734 154.887 211.512C154.425 211.024 153.626 211.432 153.111 211.841L148.218 215.686C147.887 216.002 147.475 216.221 147.028 216.316C146.804 216.354 146.574 216.303 146.386 216.176C146.197 216.049 146.065 215.854 146.016 215.633C146.019 215.394 146.094 215.163 146.229 214.967C147.113 213.418 148.326 212.081 149.781 211.051C150.369 210.714 150.898 210.282 151.344 209.772C151.564 209.514 151.699 209.194 151.727 208.856C151.756 208.518 151.678 208.18 151.503 207.889C150.542 208.791 149.482 209.58 148.342 210.242C147.934 210.482 147.357 210.678 147.055 210.314C146.753 209.949 147.055 209.426 147.374 209.026L152.436 203.094C152.804 202.533 153.378 202.141 154.034 202.002L154.86 202.126Z" fill="white"/>
<path d="M197.278 199.019C197.687 198.441 198.246 198.069 198.575 197.633C198.903 197.198 199.64 196.994 199.995 197.42C200.351 197.847 199.951 198.601 199.534 199.063C200.981 199.125 202.073 197.154 203.467 197.545C203.68 197.641 203.872 197.778 204.032 197.948C204.192 198.118 204.317 198.318 204.4 198.537C204.482 198.756 204.521 198.988 204.513 199.222C204.506 199.455 204.452 199.685 204.355 199.898C203.906 200.737 203.2 201.409 202.34 201.816C201.483 202.224 200.712 202.79 200.066 203.485C199.764 203.876 199.569 204.471 199.898 204.844C200.448 205.474 201.754 204.729 202.242 205.412C202.579 205.874 202.171 206.496 201.789 206.913L197.598 211.495C197.264 211.934 196.82 212.278 196.31 212.49C196.052 212.582 195.769 212.575 195.517 212.47C195.264 212.365 195.059 212.169 194.943 211.921C194.903 211.655 194.949 211.382 195.076 211.144C195.202 210.906 195.401 210.715 195.644 210.598C196.131 210.375 196.601 210.113 197.047 209.817C197.456 209.47 197.678 208.787 197.305 208.405C196.932 208.023 196.044 208.325 195.529 208.733L190.645 212.578C190.309 212.892 189.895 213.11 189.446 213.209C189.222 213.246 188.992 213.196 188.804 213.069C188.615 212.942 188.483 212.747 188.434 212.525C188.437 212.286 188.514 212.053 188.656 211.859C189.548 210.302 190.777 208.964 192.252 207.943C192.835 207.599 193.363 207.168 193.815 206.664C194.036 206.407 194.17 206.087 194.199 205.749C194.227 205.411 194.149 205.073 193.975 204.782C193.011 205.681 191.951 206.47 190.813 207.135C190.405 207.375 189.819 207.561 189.517 207.206C189.215 206.851 189.517 206.318 189.846 205.91L194.907 199.987C195.088 199.708 195.323 199.468 195.597 199.28C195.871 199.093 196.18 198.962 196.506 198.894L197.278 199.019Z" fill="white"/>
<path d="M181.082 203.77C180.986 203.66 180.905 203.537 180.842 203.406L180.221 202.313C179.688 201.372 178.942 199.978 178.063 198.246C176.287 194.783 173.969 189.917 171.687 184.438C169.405 178.959 167.593 173.88 166.359 170.177C165.755 168.321 165.293 166.82 164.992 165.737C164.858 165.257 164.752 164.849 164.663 164.529C164.613 164.389 164.583 164.242 164.574 164.094C164.65 164.222 164.71 164.359 164.752 164.502C164.858 164.822 165 165.213 165.169 165.683C165.542 166.776 166.057 168.25 166.67 170.034C167.949 173.702 169.805 178.746 172.078 184.242C174.351 189.739 176.615 194.588 178.294 198.078C179.12 199.782 179.803 201.177 180.318 202.216L180.86 203.343C180.955 203.474 181.03 203.617 181.082 203.77Z" fill="#263238"/>
<path d="M229.266 190.156C229.266 190.822 226.194 192.216 225.537 192.145L224.764 191.905C224.267 192.411 223.663 192.696 223.272 193.077C222.882 193.459 222.118 193.539 221.834 193.077C221.55 192.616 222.056 191.914 222.544 191.523C221.123 191.248 219.738 193.024 218.424 192.411C218.031 192.152 217.756 191.748 217.661 191.286C217.567 190.825 217.659 190.345 217.918 189.952C218.491 189.189 219.294 188.632 220.209 188.362C221.118 188.098 221.969 187.66 222.713 187.074C223.068 186.728 223.352 186.186 223.086 185.751C222.642 185.041 221.239 185.583 220.857 184.863C220.599 184.357 221.088 183.807 221.541 183.451C223.148 182.155 225.359 180.352 226.975 179.056C226.975 179.011 229.204 187.119 229.266 190.156Z" fill="white"/>
<g opacity="0.3">
<path d="M167.391 218.838C180.267 211.814 191.757 200.501 197.991 187.226L167.391 218.838Z" fill="black"/>
</g>
<g opacity="0.3">
<path d="M124.703 211.655C127.225 206.238 132.189 204.755 137.011 204.817C137.059 204.536 137.001 204.247 136.848 204.006C136.696 203.765 136.46 203.589 136.185 203.512C135.63 203.361 135.044 203.361 134.489 203.512C132.146 203.85 129.887 204.624 127.829 205.794C126.882 206.404 126.106 207.245 125.573 208.238C125.041 209.23 124.769 210.342 124.783 211.468" fill="black"/>
</g>
<g opacity="0.3">
<path d="M138.291 136.628C141.566 148.63 146.656 160.06 153.387 170.523C155.869 166.671 156.925 162.071 156.371 157.523C158.238 159.95 160.799 161.753 163.715 162.691C160.296 157.993 156.744 153.527 152.304 149.788C152.304 149.788 151.922 164.884 151.931 164.467C147.287 155.134 142.767 145.943 138.273 136.628" fill="black"/>
</g>
<path d="M177.414 94.714C176.091 99.0208 174.209 102.333 170.035 104.029C166.386 105.512 162.256 105.228 158.402 104.438C145.873 101.854 132.721 95.1758 126.07 84.2534L129.622 76.51C133.379 70.6048 142.56 63.6074 153.216 67.0706C156.099 66.2463 159.144 66.1674 162.066 66.8415C164.987 67.5156 167.69 68.9205 169.92 70.9245C178.089 77.8776 177.414 94.714 177.414 94.714Z" fill="#263238"/>
<path d="M147.311 72.9669C139.993 72.0789 130.545 80.9589 129.941 88.3204C129.266 96.49 128.769 106.489 129.613 112.607C131.327 124.915 140.704 126.655 140.704 126.655L140.251 132.916L168.276 127.535L169.484 83.6407L169.635 79.6802L147.311 72.9669Z" fill="#967262"/>
<path d="M134.497 97.1824C134.485 97.5919 134.633 97.99 134.91 98.2919C135.187 98.5938 135.571 98.7756 135.98 98.7985C136.18 98.8193 136.383 98.7997 136.576 98.7409C136.768 98.6821 136.947 98.5853 137.102 98.4562C137.257 98.327 137.384 98.1682 137.477 97.9891C137.569 97.81 137.625 97.6142 137.64 97.4132C137.653 97.0037 137.504 96.6056 137.227 96.3037C136.95 96.0018 136.566 95.8201 136.157 95.7971C135.957 95.7763 135.754 95.7959 135.561 95.8547C135.369 95.9135 135.19 96.0104 135.035 96.1395C134.88 96.2686 134.753 96.4274 134.66 96.6065C134.568 96.7856 134.512 96.9814 134.497 97.1824Z" fill="#263238"/>
<path d="M132.437 93.5857C132.623 93.79 133.831 92.9375 135.527 92.973C137.223 93.0085 138.449 93.861 138.635 93.6745C138.822 93.4881 138.537 93.2128 138.005 92.7865C137.278 92.2676 136.411 91.9826 135.518 91.9696C134.637 91.952 133.773 92.2131 133.05 92.7155C132.526 93.124 132.313 93.4881 132.437 93.5857Z" fill="#263238"/>
<path d="M150.305 97.7948C150.295 98.2037 150.444 98.6006 150.721 98.902C150.997 99.2033 151.38 99.3858 151.788 99.4109C151.988 99.4304 152.19 99.4099 152.381 99.3505C152.573 99.2912 152.751 99.1941 152.905 99.0651C153.059 98.9361 153.185 98.7778 153.277 98.5993C153.369 98.4208 153.424 98.2258 153.44 98.0257C153.452 97.6152 153.304 97.2161 153.027 96.9128C152.751 96.6095 152.367 96.4258 151.957 96.4006C151.756 96.3812 151.554 96.402 151.362 96.4619C151.169 96.5218 150.991 96.6197 150.837 96.7496C150.683 96.8795 150.557 97.0389 150.466 97.2184C150.374 97.3979 150.32 97.5939 150.305 97.7948Z" fill="#263238"/>
<path d="M149.071 94.2256C149.266 94.4298 150.474 93.5773 152.17 93.6128C153.866 93.6484 155.083 94.5008 155.269 94.3144C155.456 94.1279 155.171 93.8526 154.639 93.4264C153.916 92.9076 153.051 92.6225 152.161 92.6094C151.28 92.59 150.416 92.8512 149.693 93.3553C149.186 93.7638 148.982 94.1279 149.071 94.2256Z" fill="#263238"/>
<path d="M142.686 106.658C141.796 106.369 140.875 106.187 139.942 106.116C139.516 106.063 139.107 105.965 139.054 105.672C139.026 105.223 139.137 104.776 139.373 104.394C139.8 103.355 140.261 102.262 140.714 101.126C142.579 96.4726 143.938 92.6453 143.751 92.5742C143.565 92.5032 141.895 96.2062 140.031 100.859C139.578 102.005 139.143 103.106 138.743 104.154C138.456 104.667 138.365 105.266 138.485 105.841C138.543 105.997 138.637 106.136 138.759 106.249C138.881 106.361 139.027 106.444 139.187 106.489C139.424 106.558 139.669 106.596 139.915 106.605C140.833 106.741 141.764 106.759 142.686 106.658Z" fill="#263238"/>
<path d="M140.706 126.691C146.617 126.898 152.472 125.489 157.641 122.615C157.641 122.615 153.156 131.087 140.484 129.719L140.706 126.691Z" fill="#77574A"/>
<path d="M143.323 110.76C143.651 110.36 144.076 110.049 144.558 109.86C145.04 109.67 145.562 109.607 146.076 109.677C146.448 109.717 146.809 109.831 147.135 110.015C147.462 110.198 147.748 110.446 147.976 110.743C148.197 111.03 148.324 111.378 148.342 111.74C148.359 112.102 148.266 112.46 148.074 112.767C147.796 113.066 147.435 113.274 147.038 113.366C146.641 113.458 146.225 113.429 145.845 113.282C145.049 112.988 144.321 112.535 143.705 111.95C143.519 111.811 143.36 111.64 143.234 111.444C143.171 111.351 143.137 111.241 143.137 111.129C143.137 111.017 143.171 110.907 143.234 110.814" fill="#77574A"/>
<path d="M147.641 107.927C147.366 107.927 147.33 109.703 145.732 111.017C144.133 112.331 142.18 112.056 142.18 112.314C142.18 112.42 142.606 112.678 143.432 112.713C144.511 112.751 145.568 112.405 146.415 111.736C147.228 111.098 147.76 110.168 147.898 109.143C147.969 108.38 147.774 107.918 147.641 107.927Z" fill="#263238"/>
<path d="M148.766 87.5832C148.917 88.0449 150.613 87.8584 152.594 88.1337C154.574 88.409 156.146 89.0217 156.448 88.5777C156.572 88.3824 156.297 87.9472 155.657 87.4855C154.806 86.9157 153.833 86.5537 152.816 86.4288C151.803 86.2871 150.77 86.3907 149.805 86.7307C149.068 87.0237 148.695 87.3612 148.766 87.5832Z" fill="#263238"/>
<path d="M133.203 88.6929C133.487 89.0836 134.668 88.6929 136.063 88.6929C137.457 88.6929 138.655 89.0037 138.931 88.6041C139.055 88.4088 138.877 88.0269 138.362 87.6451C137.679 87.1839 136.869 86.9479 136.045 86.9702C135.222 86.973 134.419 87.2271 133.745 87.6984C133.203 88.1157 133.026 88.5064 133.203 88.6929Z" fill="#263238"/>
<path d="M168.501 78.4544C167.515 76.3854 165.091 75.5329 162.942 74.7515C159.905 73.6504 156.957 72.2917 153.858 71.386C150.776 70.3594 147.478 70.1604 144.294 70.8087C141.053 71.5902 138.247 73.606 135.769 75.8348C132.502 78.7741 129.553 82.3794 128.719 86.6951V88.178C135.761 86.18 142.767 78.8185 147.864 73.5704C152.26 79.6976 159.577 90.5756 166.059 93.2396C166.494 90.105 168.723 85.5584 168.972 82.406C169.148 81.0702 168.986 79.7116 168.501 78.4544Z" fill="#263238"/>
<path d="M192.182 128.005C191.703 125.554 189.278 124.071 187.156 122.757C185.034 121.443 182.76 119.56 182.885 117.065C183.009 114.57 185.789 112.421 185.549 109.819C185.309 107.217 182.086 105.832 180.372 103.692C177.885 100.601 177.406 98.6745 177.406 94.7141C177.406 86.9618 174.307 76.8386 167.478 73.1445L158.562 80.6304C161.155 87.8676 163.784 95.4333 162.878 103.079C162.337 107.608 160.561 112.012 160.818 116.568C161.093 121.461 163.677 125.918 164.557 130.731C165.391 135.296 164.672 139.993 164.903 144.629C165.134 149.264 166.679 154.272 170.604 156.732L185.425 149.628C187.032 148.855 188.843 147.852 189.074 146.076C189.305 144.3 187.733 142.737 187.298 140.961C186.233 136.317 193.088 132.676 192.182 128.005Z" fill="#263238"/>
<path d="M177.167 90.123C176.464 90.442 175.728 90.6861 174.974 90.8512C173.169 91.3591 171.319 91.6892 169.45 91.8369C167.571 91.9523 165.685 91.7481 163.874 91.233C163.114 91.059 162.384 90.7748 161.707 90.3894C161.751 90.203 165.09 91.6682 169.424 91.3751C171.266 91.2122 173.094 90.9154 174.894 90.4871C175.639 90.2953 176.4 90.1734 177.167 90.123Z" fill="#455A64"/>
<path d="M177.45 92.9736C176.843 93.4362 176.169 93.8044 175.452 94.0659C173.749 94.783 171.927 95.1746 170.08 95.2203C168.236 95.236 166.399 94.9848 164.627 94.4744C163.887 94.3068 163.171 94.0473 162.496 93.7018C163.243 93.7981 163.982 93.9495 164.707 94.1547C166.454 94.5631 168.242 94.7657 170.035 94.7585C171.832 94.7071 173.609 94.3714 175.301 93.764C176.003 93.4624 176.72 93.1986 177.45 92.9736Z" fill="#455A64"/>
<path d="M125.387 88.3828C126.167 88.2716 126.952 88.2064 127.74 88.1874C128.513 88.0174 129.296 87.8929 130.084 87.8145C129.398 88.2646 128.617 88.5501 127.802 88.6487C126.987 88.7473 126.161 88.6563 125.387 88.3828Z" fill="#455A64"/>
<path d="M124.941 89.7851C125.021 89.6785 125.963 90.3268 127.268 90.7708C128.573 91.2148 129.71 91.2947 129.71 91.4368C128.844 91.6487 127.932 91.5675 127.117 91.2059C126.253 90.9904 125.486 90.4899 124.941 89.7851Z" fill="#455A64"/>
<path d="M166.457 150.774C166.236 150.742 166.021 150.679 165.817 150.587C165.213 150.333 164.671 149.951 164.228 149.468C163.52 148.7 163.057 147.739 162.896 146.707C162.798 146.056 162.847 145.392 163.038 144.762C163.261 144.072 163.574 143.415 163.97 142.808C164.398 142.163 164.78 141.49 165.116 140.793C165.44 140.034 165.612 139.22 165.622 138.395C165.557 136.551 165.009 134.756 164.032 133.191C162.917 131.46 161.708 129.791 160.409 128.192C158.982 126.435 157.998 124.361 157.541 122.145C157.204 119.91 157.337 117.629 157.932 115.449C158.475 113.442 159.173 111.479 160.019 109.579C160.782 107.759 161.528 106.027 162.088 104.385C162.628 102.857 163.006 101.276 163.215 99.6692C163.58 97.3486 163.438 94.9766 162.798 92.7162C162.535 91.8971 162.168 91.1152 161.706 90.3896C161.865 90.5477 162.005 90.7235 162.123 90.9136C162.492 91.4663 162.79 92.063 163.011 92.6896C163.725 94.9679 163.919 97.3771 163.58 99.7403C163.387 101.373 163.02 102.98 162.487 104.535C161.937 106.214 161.2 107.945 160.445 109.775C159.617 111.658 158.937 113.602 158.411 115.591C157.834 117.708 157.704 119.922 158.03 122.091C158.475 124.239 159.428 126.248 160.809 127.952C162.113 129.567 163.325 131.254 164.441 133.005C165.442 134.641 165.994 136.513 166.039 138.43C166.021 139.303 165.831 140.163 165.48 140.961C165.125 141.656 164.724 142.326 164.281 142.968C163.895 143.549 163.582 144.175 163.349 144.833C163.172 145.407 163.118 146.012 163.189 146.609C163.322 147.596 163.742 148.522 164.397 149.273C164.952 149.932 165.659 150.447 166.457 150.774Z" fill="#263238"/>
<path d="M153.689 66.9369C152.37 67.5317 151.168 68.3555 150.137 69.3701C149.215 70.4802 148.494 71.7422 148.006 73.0997C147.954 72.6586 148.018 72.2118 148.192 71.8032C148.521 70.782 149.068 69.8444 149.795 69.0549C150.522 68.2654 151.411 67.6428 152.401 67.23C152.798 67.0232 153.241 66.9223 153.689 66.9369Z" fill="#455A64"/>
<path d="M200.742 150.409L194.695 140.881L194.277 131.513L196.648 125.101C196.648 125.101 198.54 124.648 198.851 126.877C198.963 128.571 198.724 130.27 198.149 131.868L199.446 136.414C199.446 136.414 199.872 136.903 200.271 135.011C200.671 133.12 199.978 119.098 199.969 118.139C199.961 117.18 200.04 114.88 201.47 115.093C202.9 115.307 203.353 117.216 203.353 118.184C203.353 119.152 204.401 128.564 204.401 128.564C204.401 128.564 204.738 129.408 205.075 129.284C205.413 129.159 204.774 119.187 204.711 117.615C204.649 116.044 204.294 112.545 206.141 112.545C207.988 112.545 207.988 114.321 208.095 116.221C208.201 118.122 209.4 128.946 209.4 128.946C209.4 128.946 209.684 129.621 209.951 128.715C210.217 127.81 210.546 116.07 210.75 115.52C210.954 114.969 212.037 114.241 212.872 115.573C213.707 116.905 213.511 120.013 213.396 125.474C213.289 130.403 213.138 132.445 213.698 132.836C214.257 133.226 216.362 130.172 216.362 130.172C216.362 130.172 218.884 123.672 221.024 123.902C223.164 124.133 221.725 125.794 221.361 127.303C221.051 128.582 217.312 136.183 217.232 136.281C217.152 136.379 213.476 149.921 213.476 149.921L221.592 165.434C223.029 168.132 223.579 171.215 223.164 174.243C222.676 177.555 220.98 181.249 216.122 182.759C212.57 183.878 209.906 182.28 208.13 180.397C206.626 178.728 205.631 176.663 205.262 174.447C204.223 168.462 200.724 150.391 200.724 150.391L200.742 150.409Z" fill="#967262"/>
<path d="M206.782 143.571C206.702 143.571 206.782 142.843 206.587 141.742C206.323 140.304 205.637 138.978 204.615 137.933C203.808 137.081 202.733 136.533 201.569 136.379C200.843 136.293 200.11 136.459 199.492 136.849L199.403 136.903V136.823C199.287 136.574 199.234 136.432 199.261 136.423C199.287 136.414 199.376 136.512 199.545 136.743H199.42C199.723 136.482 200.074 136.286 200.454 136.164C200.834 136.041 201.234 135.997 201.632 136.032C202.907 136.132 204.1 136.701 204.979 137.631C206.071 138.736 206.764 140.173 206.951 141.715C207.051 142.338 206.993 142.977 206.782 143.571Z" fill="#77574A"/>
<path d="M211.887 136.37C211.967 136.486 211.15 137.187 210.35 138.226C209.919 138.904 209.445 139.554 208.93 140.171C209.115 139.36 209.476 138.599 209.987 137.942C210.497 137.286 211.146 136.749 211.887 136.37Z" fill="#77574A"/>
<path d="M129.836 221.201C129.949 225.159 131.488 228.943 134.17 231.857C136.158 234.013 138.257 236.064 140.457 238.002L155.748 244.857C155.748 244.857 159.735 245.461 163.74 241.563C165.022 240.442 166.077 239.085 166.848 237.567C166.848 237.567 171.43 239.618 173.224 239.538C176.243 239.405 175.764 237.274 175.764 237.274C175.764 237.274 165.667 231.715 163.27 229.566C160.872 227.417 153.963 226.014 149.062 226.645L146.22 226.085L145.19 222.267C145.19 222.267 139.649 214.017 134.534 216.939C129.419 219.86 129.836 221.201 129.836 221.201Z" fill="#967262"/>
</svg>
