<svg width="393" height="303" viewBox="0 0 393 303" fill="none" xmlns="http://www.w3.org/2000/svg">
<g filter="url(#filter0_d_1633_14832)">
<rect x="16" y="55.2461" width="305.169" height="198.185" rx="10" fill="white"/>
</g>
<path d="M16 65.2461C16 59.7232 20.4772 55.2461 26 55.2461H311.169C316.692 55.2461 321.169 59.7232 321.169 65.2461V81.6707H16V65.2461Z" fill="#C9EAF1"/>
<rect x="172.969" y="144.174" width="127.731" height="31.9328" fill="#EEEEEE"/>
<rect x="172.969" y="105.23" width="127.731" height="31.9328" fill="#46B2C8"/>
<rect x="182.316" y="153.52" width="40.5931" height="3.38276" fill="#D9D9D9"/>
<rect x="182.316" y="164.423" width="107.481" height="3.1154" fill="#D9D9D9"/>
<rect x="182.316" y="124.523" width="107.481" height="3.1154" fill="#C2E2E9"/>
<rect x="182.316" y="113.798" width="40.5931" height="3.38276" fill="#C9EAF1"/>
<rect x="44.9375" y="200.815" width="68.4" height="2.63077" fill="#D9D9D9"/>
<rect x="42.3086" y="213.969" width="258.692" height="3.50769" fill="#D9D9D9"/>
<rect x="42.3086" y="223.615" width="258.692" height="3.50769" fill="#D9D9D9"/>
<rect x="42.3086" y="233.262" width="258.692" height="3.50769" fill="#D9D9D9"/>
<rect x="69.1914" y="111.369" width="38.9135" height="23.3481" fill="#D9D9D9"/>
<rect x="42.3066" y="150.282" width="38.9135" height="23.3481" fill="#D9D9D9"/>
<rect x="99.6152" y="150.282" width="38.9135" height="23.3481" fill="#D9D9D9"/>
<path d="M87.5972 134.717V141.274M87.5972 141.274H57.8711V148.867M87.5972 141.274H119.425V148.867" stroke="#46B2C8" stroke-linecap="round" stroke-dasharray="2 5"/>
<path d="M154.273 243.571C143.943 243.557 133.762 241.102 124.56 236.408C115.359 231.713 107.396 224.911 101.321 216.555C95.2464 208.2 91.2313 198.528 89.603 188.327C87.9747 178.126 88.7793 167.684 91.9512 157.853C95.1231 148.022 100.573 139.079 107.856 131.753C115.139 124.427 124.049 118.925 133.862 115.696C143.674 112.466 154.111 111.6 164.321 113.168C174.532 114.737 184.227 118.695 192.618 124.72C203.904 132.82 212.327 144.294 216.672 157.488C221.017 170.683 221.061 184.916 216.796 198.137C212.531 211.357 204.178 222.882 192.941 231.05C181.705 239.218 168.165 243.606 154.273 243.583V243.571ZM154.442 116.813C139.871 116.789 125.771 121.97 114.683 131.423C103.594 140.876 96.2476 153.979 93.9661 168.37C91.6846 182.761 94.6186 197.494 102.239 209.913C109.86 222.331 121.666 231.62 135.53 236.104C149.393 240.587 164.403 239.972 177.852 234.367C191.302 228.763 202.308 218.539 208.886 205.537C215.463 192.536 217.181 177.612 213.728 163.457C210.275 149.301 201.88 136.844 190.055 128.331C179.68 120.863 167.225 116.835 154.442 116.813Z" fill="#C2E2E9"/>
<path d="M285.029 260.722C283.852 262.535 282.003 263.807 279.889 264.258C277.774 264.71 275.567 264.303 273.752 263.129L205.15 218.826C204.995 218.726 204.862 218.597 204.757 218.445C204.653 218.293 204.58 218.122 204.542 217.942C204.504 217.762 204.502 217.576 204.536 217.396C204.57 217.215 204.639 217.042 204.74 216.888L210.565 207.862C210.763 207.556 211.072 207.339 211.427 207.256C211.781 207.173 212.154 207.23 212.467 207.416L282.381 249.288C283.32 249.852 284.136 250.599 284.78 251.484C285.425 252.37 285.884 253.376 286.131 254.443C286.378 255.51 286.408 256.616 286.219 257.694C286.029 258.773 285.625 259.803 285.029 260.722Z" fill="#C2E2E9"/>
<path d="M154.274 239.901C143.945 239.884 133.767 237.428 124.567 232.732C115.368 228.036 107.407 221.234 101.334 212.88C95.2614 204.525 91.2478 194.854 89.6202 184.654C87.9926 174.455 88.7971 164.015 91.9682 154.185C95.1393 144.355 100.587 135.413 107.869 128.088C115.15 120.762 124.058 115.26 133.869 112.029C143.679 108.798 154.114 107.93 164.323 109.496C174.532 111.062 184.228 115.017 192.619 121.039C203.905 129.138 212.328 140.612 216.673 153.806C221.018 167.001 221.061 181.234 216.797 194.455C212.532 207.675 204.179 219.2 192.942 227.368C181.705 235.536 168.165 239.924 154.274 239.901ZM154.442 113.155C139.871 113.151 125.777 118.352 114.702 127.822C103.626 137.291 96.2976 150.405 94.0369 164.8C91.7762 179.195 94.732 193.924 102.372 206.332C110.011 218.741 121.832 228.012 135.703 232.475C149.575 236.937 164.584 236.298 178.026 230.673C191.467 225.047 202.457 214.804 209.015 201.792C215.572 188.779 217.265 173.852 213.789 159.701C210.312 145.55 201.896 133.106 190.055 124.613C179.673 117.167 167.219 113.16 154.442 113.155Z" fill="#46B2C8"/>
<path d="M203.924 214.337L211.249 202.992L284.048 249.998C285.52 250.949 286.554 252.445 286.923 254.158C287.292 255.872 286.965 257.661 286.015 259.133L285.858 259.376C284.907 260.848 283.411 261.882 281.698 262.251C279.984 262.62 278.195 262.293 276.723 261.343L203.924 214.337Z" fill="#46B2C8"/>
<path d="M103.46 181.287C103.225 180.641 103.044 179.977 102.918 179.301C102.707 178.511 102.554 177.706 102.461 176.894C102.277 175.842 102.148 174.782 102.076 173.717C102.076 173.115 101.992 172.513 101.956 171.851C101.919 171.189 101.956 170.527 101.956 169.829C101.956 168.433 102.088 166.941 102.208 165.376C102.94 158.555 105.167 151.98 108.732 146.119C109.488 144.883 110.308 143.685 111.187 142.533C111.62 141.979 112.005 141.425 112.39 140.932L113.594 139.524C114.301 138.724 115.048 137.961 115.832 137.237C116.401 136.662 117.008 136.127 117.65 135.636C118.159 135.187 118.706 134.784 119.287 134.433C118.828 134.941 118.333 135.415 117.806 135.853C117.199 136.375 116.624 136.933 116.085 137.526C115.435 138.212 114.665 138.934 113.931 139.861L112.727 141.269C112.318 141.762 111.945 142.328 111.524 142.87C110.669 143.965 109.923 145.277 109.117 146.552C107.413 149.46 105.998 152.528 104.892 155.711C103.838 158.911 103.093 162.203 102.666 165.544C102.521 167.097 102.353 168.565 102.353 169.949C102.353 170.635 102.353 171.309 102.353 171.947C102.353 172.585 102.353 173.151 102.437 173.789C102.48 174.848 102.577 175.904 102.726 176.954C102.791 177.763 102.907 178.567 103.075 179.361C103.246 179.994 103.374 180.637 103.46 181.287Z" fill="#E0E0E0"/>
<g clip-path="url(#clip0_1633_14832)">
<path d="M126.313 208.76C125.237 208.76 124.16 208.348 123.341 207.528C121.696 205.885 121.696 203.227 123.341 201.584L179.822 145.102C181.465 143.458 184.123 143.458 185.766 145.102C187.411 146.745 187.411 149.403 185.766 151.047L129.285 207.528C128.461 208.352 127.389 208.76 126.313 208.76Z" fill="#F44336"/>
<path d="M182.794 208.76C181.718 208.76 180.642 208.348 179.822 207.528L123.341 151.047C121.696 149.403 121.696 146.745 123.341 145.102C124.984 143.458 127.641 143.458 129.285 145.102L185.766 201.584C187.411 203.227 187.411 205.885 185.766 207.528C184.947 208.352 183.87 208.76 182.794 208.76Z" fill="#F44336"/>
</g>
<g clip-path="url(#clip1_1633_14832)">
<g filter="url(#filter1_d_1633_14832)">
<path d="M331.964 134.055L325.812 137.289C324.827 137.806 323.651 137.806 322.667 137.289L316.514 134.055C282.731 116.299 261.928 83.5325 261.928 48.0786V26.4221C261.928 24.7095 263.206 23.2454 264.909 23.0657C276.554 21.8371 285.812 13.5007 287.287 2.95763C287.524 1.27082 288.937 0 290.641 0H357.838C359.541 0 360.955 1.27082 361.191 2.95763C362.667 13.5007 371.925 21.8371 383.569 23.0657C385.273 23.2454 386.551 24.7098 386.551 26.4221V48.0783C386.551 83.5325 365.747 116.299 331.964 134.055Z" fill="#E1E6E9"/>
</g>
<path d="M321.958 125.372C306.639 117.32 293.896 105.748 285.109 91.906C276.424 78.2279 271.834 62.6835 271.834 46.9537V34.6614C271.834 32.8827 272.914 31.2771 274.568 30.6226C283.679 27.0174 291.031 20.2503 295.052 11.7966C295.768 10.2902 297.3 9.3418 298.968 9.3418H349.509C351.177 9.3418 352.708 10.2902 353.425 11.7966C357.446 20.2503 364.797 27.0177 373.908 30.6228C375.562 31.2773 376.642 32.8829 376.642 34.6617V46.9539C376.642 62.6838 372.052 78.2281 363.368 91.9063C354.58 105.748 341.838 117.32 326.519 125.372L326.264 125.506C324.996 126.172 323.481 126.172 322.213 125.506L321.958 125.372Z" fill="#FF993C"/>
<path d="M373.908 30.6226C373.837 30.5943 373.766 30.5642 373.695 30.5354C373.577 30.4878 373.459 30.4394 373.342 30.3908C373.14 30.3077 372.94 30.2227 372.741 30.1367C372.626 30.0869 372.51 30.0372 372.396 29.9863C372.183 29.8917 371.972 29.7949 371.761 29.6967C371.665 29.6524 371.569 29.6091 371.474 29.5639C371.171 29.42 370.869 29.273 370.571 29.1218C370.548 29.1105 370.526 29.0984 370.504 29.0869C370.227 28.9462 369.953 28.8024 369.68 28.6558C369.583 28.6037 369.488 28.5501 369.392 28.4974C369.194 28.3888 368.996 28.2791 368.8 28.167C368.692 28.1048 368.584 28.0419 368.476 27.979C368.291 27.8712 368.107 27.7617 367.925 27.6509C367.818 27.5867 367.712 27.5221 367.607 27.4568C367.416 27.3385 367.226 27.218 367.038 27.0967C366.946 27.0376 366.853 26.9792 366.762 26.9195C366.504 26.7507 366.248 26.5791 365.995 26.4046C365.976 26.3917 365.957 26.379 365.938 26.3661C365.666 26.1779 365.397 25.9862 365.13 25.7915C365.047 25.7307 364.965 25.6686 364.883 25.6073C364.7 25.4715 364.517 25.3346 364.337 25.1959C364.24 25.1214 364.144 25.0458 364.048 24.9705C363.881 24.8396 363.716 24.7076 363.551 24.5742C363.456 24.4965 363.36 24.4188 363.265 24.3402C363.097 24.201 362.93 24.0598 362.764 23.9178C362.679 23.8449 362.594 23.7726 362.509 23.6989C362.304 23.5204 362.102 23.3391 361.901 23.1565C361.86 23.1186 361.817 23.0818 361.776 23.0439C361.535 22.8228 361.298 22.5988 361.064 22.3719C360.996 22.3066 360.93 22.2399 360.863 22.174C360.696 22.0105 360.531 21.8462 360.367 21.6797C360.284 21.5948 360.202 21.509 360.119 21.4232C359.973 21.2716 359.827 21.1188 359.684 20.9647C359.6 20.8747 359.516 20.7843 359.433 20.6934C359.29 20.5361 359.148 20.3775 359.007 20.218C358.93 20.1317 358.854 20.0456 358.778 19.9588C358.613 19.7684 358.451 19.5759 358.29 19.3823C358.243 19.3261 358.195 19.2707 358.148 19.2142C357.943 18.9636 357.74 18.71 357.541 18.4543C357.49 18.3889 357.44 18.3223 357.39 18.2564C357.243 18.0644 357.096 17.8716 356.953 17.6769C356.884 17.5836 356.817 17.4892 356.749 17.3954C356.625 17.2243 356.503 17.0525 356.382 16.8796C356.312 16.7788 356.243 16.6777 356.173 16.5763C356.055 16.4026 355.938 16.2275 355.823 16.0519C355.759 15.9543 355.695 15.857 355.632 15.7588C355.503 15.559 355.378 15.3576 355.253 15.1554C355.208 15.0812 355.16 15.0075 355.115 14.933C354.948 14.6566 354.784 14.3778 354.624 14.097C354.591 14.0376 354.558 13.9774 354.525 13.9179C354.4 13.695 354.277 13.471 354.156 13.2452C354.103 13.1454 354.052 13.0448 353.999 12.9448C353.901 12.7558 353.804 12.5659 353.708 12.375C353.654 12.2658 353.6 12.1561 353.547 12.0461C353.507 11.9628 353.464 11.8802 353.424 11.7966C352.708 10.2902 351.177 9.3418 349.509 9.3418H324.238V126.006C324.934 126.006 325.63 125.839 326.264 125.506L326.519 125.372C341.838 117.32 354.58 105.748 363.368 91.9063C372.053 78.2281 376.642 62.6838 376.642 46.9539V34.6614C376.642 32.8827 375.562 31.2771 373.908 30.6226Z" fill="#FF993C"/>
<path d="M310.041 53.4914V39.4696C310.041 31.5987 316.444 25.1956 324.315 25.1956C332.186 25.1956 338.589 31.5989 338.589 39.4696V53.4914H342.623V39.4696C342.623 29.3746 334.41 21.1621 324.315 21.1621C314.221 21.1621 306.008 29.3749 306.008 39.4696V53.4914H310.041Z" fill="#515A66"/>
<path d="M347.338 88.0064H301.294C298.865 88.0064 296.896 86.0378 296.896 83.6091V54.7333C296.896 52.3048 298.865 50.3359 301.294 50.3359H347.338C349.767 50.3359 351.736 52.3046 351.736 54.7333V83.6091C351.735 86.0378 349.767 88.0064 347.338 88.0064Z" fill="#636A75"/>
<path d="M329.039 66.9904C329.039 64.3815 326.924 62.2666 324.316 62.2666C321.707 62.2666 319.592 64.3815 319.592 66.9904C319.592 68.8767 320.7 70.5001 322.299 71.2573V76.9996C322.299 78.1134 323.202 79.0164 324.316 79.0164C325.43 79.0164 326.332 78.1134 326.332 76.9996V71.2575C327.931 70.5001 329.039 68.8767 329.039 66.9904Z" fill="#F1F1F1"/>
</g>
<g filter="url(#filter2_d_1633_14832)">
<path d="M132.769 253.431H203.8L212.569 285H124L132.769 253.431Z" fill="#D9D9D9"/>
</g>
<defs>
<filter id="filter0_d_1633_14832" x="0" y="47.2461" width="337.17" height="230.185" filterUnits="userSpaceOnUse" color-interpolation-filters="sRGB">
<feFlood flood-opacity="0" result="BackgroundImageFix"/>
<feColorMatrix in="SourceAlpha" type="matrix" values="0 0 0 0 0 0 0 0 0 0 0 0 0 0 0 0 0 0 127 0" result="hardAlpha"/>
<feOffset dy="8"/>
<feGaussianBlur stdDeviation="8"/>
<feComposite in2="hardAlpha" operator="out"/>
<feColorMatrix type="matrix" values="0 0 0 0 0 0 0 0 0 0 0 0 0 0 0 0 0 0 0.08 0"/>
<feBlend mode="normal" in2="BackgroundImageFix" result="effect1_dropShadow_1633_14832"/>
<feBlend mode="normal" in="SourceGraphic" in2="effect1_dropShadow_1633_14832" result="shape"/>
</filter>
<filter id="filter1_d_1633_14832" x="245.928" y="-8" width="156.623" height="169.677" filterUnits="userSpaceOnUse" color-interpolation-filters="sRGB">
<feFlood flood-opacity="0" result="BackgroundImageFix"/>
<feColorMatrix in="SourceAlpha" type="matrix" values="0 0 0 0 0 0 0 0 0 0 0 0 0 0 0 0 0 0 127 0" result="hardAlpha"/>
<feOffset dy="8"/>
<feGaussianBlur stdDeviation="8"/>
<feComposite in2="hardAlpha" operator="out"/>
<feColorMatrix type="matrix" values="0 0 0 0 0 0 0 0 0 0 0 0 0 0 0 0 0 0 0.08 0"/>
<feBlend mode="normal" in2="BackgroundImageFix" result="effect1_dropShadow_1633_14832"/>
<feBlend mode="normal" in="SourceGraphic" in2="effect1_dropShadow_1633_14832" result="shape"/>
</filter>
<filter id="filter2_d_1633_14832" x="112" y="247.431" width="112.568" height="55.5693" filterUnits="userSpaceOnUse" color-interpolation-filters="sRGB">
<feFlood flood-opacity="0" result="BackgroundImageFix"/>
<feColorMatrix in="SourceAlpha" type="matrix" values="0 0 0 0 0 0 0 0 0 0 0 0 0 0 0 0 0 0 127 0" result="hardAlpha"/>
<feOffset dy="6"/>
<feGaussianBlur stdDeviation="6"/>
<feComposite in2="hardAlpha" operator="out"/>
<feColorMatrix type="matrix" values="0 0 0 0 0 0 0 0 0 0 0 0 0 0 0 0 0 0 0.1 0"/>
<feBlend mode="normal" in2="BackgroundImageFix" result="effect1_dropShadow_1633_14832"/>
<feBlend mode="normal" in="SourceGraphic" in2="effect1_dropShadow_1633_14832" result="shape"/>
</filter>
<clipPath id="clip0_1633_14832">
<rect width="64.8923" height="64.8923" fill="white" transform="translate(122.107 143.815)"/>
</clipPath>
<clipPath id="clip1_1633_14832">
<rect width="138" height="171" fill="white" transform="translate(255)"/>
</clipPath>
</defs>
</svg>
