<svg width="412" height="356" viewBox="0 0 412 356" fill="none" xmlns="http://www.w3.org/2000/svg">
<path d="M281 93L271 87.2265V98.7735L281 93ZM217 93V92H216V93H217ZM218 140.886C218 140.334 217.552 139.886 217 139.886C216.448 139.886 216 140.334 216 140.886H218ZM216 130.864C216 131.416 216.448 131.864 217 131.864C217.552 131.864 218 131.416 218 130.864H216ZM218 128.636C218 128.084 217.552 127.636 217 127.636C216.448 127.636 216 128.084 216 128.636H218ZM216 118.614C216 119.166 216.448 119.614 217 119.614C217.552 119.614 218 119.166 218 118.614H216ZM218 116.386C218 115.834 217.552 115.386 217 115.386C216.448 115.386 216 115.834 216 116.386H218ZM216 106.364C216 106.916 216.448 107.364 217 107.364C217.552 107.364 218 106.916 218 106.364H216ZM218 104.136C218 103.584 217.552 103.136 217 103.136C216.448 103.136 216 103.584 216 104.136H218ZM216 94.1136C216 94.6659 216.448 95.1136 217 95.1136C217.552 95.1136 218 94.6659 218 94.1136H216ZM217.97 94C218.522 94 218.97 93.5523 218.97 93C218.97 92.4477 218.522 92 217.97 92V94ZM226.697 92C226.145 92 225.697 92.4477 225.697 93C225.697 93.5523 226.145 94 226.697 94V92ZM228.636 94C229.189 94 229.636 93.5523 229.636 93C229.636 92.4477 229.189 92 228.636 92V94ZM237.364 92C236.811 92 236.364 92.4477 236.364 93C236.364 93.5523 236.811 94 237.364 94V92ZM239.303 94C239.855 94 240.303 93.5523 240.303 93C240.303 92.4477 239.855 92 239.303 92V94ZM248.03 92C247.478 92 247.03 92.4477 247.03 93C247.03 93.5523 247.478 94 248.03 94V92ZM249.97 94C250.522 94 250.97 93.5523 250.97 93C250.97 92.4477 250.522 92 249.97 92V94ZM258.697 92C258.145 92 257.697 92.4477 257.697 93C257.697 93.5523 258.145 94 258.697 94V92ZM260.636 94C261.189 94 261.636 93.5523 261.636 93C261.636 92.4477 261.189 92 260.636 92V94ZM269.364 92C268.811 92 268.364 92.4477 268.364 93C268.364 93.5523 268.811 94 269.364 94V92ZM271.303 94C271.855 94 272.303 93.5523 272.303 93C272.303 92.4477 271.855 92 271.303 92V94ZM280.03 92C279.478 92 279.03 92.4477 279.03 93C279.03 93.5523 279.478 94 280.03 94V92ZM218 142V140.886H216V142H218ZM218 130.864V128.636H216V130.864H218ZM218 118.614V116.386H216V118.614H218ZM218 106.364V104.136H216V106.364H218ZM218 94.1136V93H216V94.1136H218ZM217 94H217.97V92H217V94ZM226.697 94H228.636V92H226.697V94ZM237.364 94H239.303V92H237.364V94ZM248.03 94H249.97V92H248.03V94ZM258.697 94H260.636V92H258.697V94ZM269.364 94H271.303V92H269.364V94Z" fill="#46B2C8"/>
<path d="M268.962 293.417L278.953 299.206L278.971 287.659L268.962 293.417ZM362.455 293.559L362.454 294.559L363.454 294.56L363.455 293.56L362.455 293.559ZM361.582 209.298C361.581 209.85 362.028 210.298 362.581 210.299C363.133 210.3 363.581 209.853 363.582 209.301L361.582 209.298ZM363.569 218.017C363.57 217.465 363.123 217.016 362.571 217.016C362.018 217.015 361.57 217.462 361.569 218.014L363.569 218.017ZM361.566 219.951C361.565 220.503 362.012 220.952 362.565 220.953C363.117 220.953 363.565 220.506 363.566 219.954L361.566 219.951ZM363.553 228.671C363.554 228.118 363.107 227.67 362.555 227.669C362.002 227.668 361.554 228.115 361.553 228.668L363.553 228.671ZM361.55 230.605C361.549 231.157 361.996 231.605 362.549 231.606C363.101 231.607 363.549 231.16 363.55 230.608L361.55 230.605ZM363.537 239.324C363.538 238.772 363.091 238.323 362.538 238.323C361.986 238.322 361.538 238.769 361.537 239.321L363.537 239.324ZM361.534 241.258C361.533 241.81 361.98 242.259 362.533 242.26C363.085 242.26 363.533 241.813 363.534 241.261L361.534 241.258ZM363.521 249.978C363.522 249.425 363.075 248.977 362.522 248.976C361.97 248.975 361.522 249.422 361.521 249.975L363.521 249.978ZM361.518 251.912C361.517 252.464 361.964 252.912 362.516 252.913C363.069 252.914 363.517 252.467 363.518 251.915L361.518 251.912ZM363.505 260.631C363.506 260.079 363.059 259.63 362.506 259.63C361.954 259.629 361.506 260.076 361.505 260.628L363.505 260.631ZM361.502 262.565C361.501 263.117 361.948 263.566 362.5 263.567C363.053 263.567 363.501 263.12 363.502 262.568L361.502 262.565ZM363.489 271.285C363.49 270.732 363.042 270.284 362.49 270.283C361.938 270.282 361.49 270.729 361.489 271.282L363.489 271.285ZM361.486 273.219C361.485 273.771 361.932 274.219 362.484 274.22C363.037 274.221 363.485 273.774 363.486 273.222L361.486 273.219ZM363.473 281.938C363.473 281.386 363.026 280.937 362.474 280.937C361.922 280.936 361.473 281.383 361.473 281.935L363.473 281.938ZM361.47 283.872C361.469 284.424 361.916 284.873 362.468 284.874C363.02 284.874 363.469 284.427 363.47 283.875L361.47 283.872ZM363.457 292.592C363.457 292.039 363.01 291.591 362.458 291.59C361.906 291.589 361.457 292.036 361.457 292.589L363.457 292.592ZM361.394 292.557C360.842 292.556 360.393 293.003 360.393 293.555C360.392 294.108 360.839 294.556 361.391 294.557L361.394 292.557ZM351.829 294.543C352.382 294.543 352.83 294.096 352.831 293.544C352.832 292.992 352.385 292.543 351.832 292.543L351.829 294.543ZM349.708 292.539C349.155 292.539 348.707 292.986 348.706 293.538C348.705 294.09 349.152 294.539 349.705 294.539L349.708 292.539ZM340.143 294.525C340.695 294.526 341.143 294.079 341.144 293.526C341.145 292.974 340.698 292.526 340.146 292.525L340.143 294.525ZM338.021 292.522C337.469 292.521 337.02 292.968 337.019 293.52C337.019 294.072 337.466 294.521 338.018 294.522L338.021 292.522ZM328.456 294.507C329.008 294.508 329.457 294.061 329.458 293.509C329.458 292.956 329.011 292.508 328.459 292.507L328.456 294.507ZM326.334 292.504C325.782 292.503 325.334 292.95 325.333 293.503C325.332 294.055 325.779 294.503 326.331 294.504L326.334 292.504ZM316.77 294.49C317.322 294.49 317.77 294.043 317.771 293.491C317.772 292.939 317.325 292.49 316.773 292.49L316.77 294.49ZM314.648 292.486C314.095 292.486 313.647 292.933 313.646 293.485C313.645 294.037 314.092 294.486 314.645 294.486L314.648 292.486ZM305.083 294.472C305.635 294.473 306.084 294.026 306.084 293.473C306.085 292.921 305.638 292.473 305.086 292.472L305.083 294.472ZM302.961 292.469C302.409 292.468 301.96 292.915 301.96 293.467C301.959 294.02 302.406 294.468 302.958 294.469L302.961 292.469ZM293.396 294.454C293.949 294.455 294.397 294.008 294.398 293.456C294.399 292.904 293.952 292.455 293.399 292.454L293.396 294.454ZM291.274 292.451C290.722 292.45 290.274 292.897 290.273 293.45C290.272 294.002 290.719 294.45 291.271 294.451L291.274 292.451ZM281.71 294.437C282.262 294.438 282.71 293.991 282.711 293.438C282.712 292.886 282.265 292.438 281.713 292.437L281.71 294.437ZM279.588 292.434C279.036 292.433 278.587 292.88 278.586 293.432C278.586 293.984 279.033 294.433 279.585 294.433L279.588 292.434ZM270.023 294.419C270.575 294.42 271.024 293.973 271.025 293.421C271.025 292.868 270.578 292.42 270.026 292.419L270.023 294.419ZM361.584 208.329L361.582 209.298L363.582 209.301L363.584 208.332L361.584 208.329ZM361.569 218.014L361.566 219.951L363.566 219.954L363.569 218.017L361.569 218.014ZM361.553 228.668L361.55 230.605L363.55 230.608L363.553 228.671L361.553 228.668ZM361.537 239.321L361.534 241.258L363.534 241.261L363.537 239.324L361.537 239.321ZM361.521 249.975L361.518 251.912L363.518 251.915L363.521 249.978L361.521 249.975ZM361.505 260.628L361.502 262.565L363.502 262.568L363.505 260.631L361.505 260.628ZM361.489 271.282L361.486 273.219L363.486 273.222L363.489 271.285L361.489 271.282ZM361.473 281.935L361.47 283.872L363.47 283.875L363.473 281.938L361.473 281.935ZM361.457 292.589L361.455 293.557L363.455 293.56L363.457 292.592L361.457 292.589ZM362.457 292.559L361.394 292.557L361.391 294.557L362.454 294.559L362.457 292.559ZM351.832 292.543L349.708 292.539L349.705 294.539L351.829 294.543L351.832 292.543ZM340.146 292.525L338.021 292.522L338.018 294.522L340.143 294.525L340.146 292.525ZM328.459 292.507L326.334 292.504L326.331 294.504L328.456 294.507L328.459 292.507ZM316.773 292.49L314.648 292.486L314.645 294.486L316.77 294.49L316.773 292.49ZM305.086 292.472L302.961 292.469L302.958 294.469L305.083 294.472L305.086 292.472ZM293.399 292.454L291.274 292.451L291.271 294.451L293.396 294.454L293.399 292.454ZM281.713 292.437L279.588 292.434L279.585 294.433L281.71 294.437L281.713 292.437Z" fill="#46B2C8"/>
<g filter="url(#filter0_d_1693_15149)">
<rect x="281" y="15" width="114.517" height="193.428" rx="15" fill="#023A59"/>
</g>
<rect x="287.736" y="21.2549" width="101.044" height="180.917" rx="10" fill="white"/>
<rect x="303.133" y="92.9492" width="71.6933" height="8.66094" fill="#46B2C8"/>
<rect x="303.133" y="118.45" width="71.6933" height="8.66094" fill="#46B2C8"/>
<rect x="303.133" y="111.714" width="34.6437" height="2.88698" fill="#D9D9D9"/>
<rect x="303.133" y="143.951" width="71.6933" height="8.66094" fill="#46B2C8"/>
<rect x="303.133" y="165.604" width="71.6933" height="19.7277" fill="#455A64"/>
<rect x="303.133" y="74.6641" width="45.7105" height="5.2928" fill="#D9D9D9"/>
<rect x="303.133" y="83.8057" width="25.9828" height="5.2928" fill="#D9D9D9"/>
<circle cx="313.961" cy="48.4408" r="15.1566" fill="#D9D9D9"/>
<mask id="mask0_1693_15149" style="mask-type:alpha" maskUnits="userSpaceOnUse" x="298" y="33" width="32" height="31">
<circle cx="313.959" cy="48.4408" r="15.1566" fill="#D9D9D9"/>
</mask>
<g mask="url(#mask0_1693_15149)">
<path d="M313.957 56.1872C318.618 56.1872 322.551 56.9446 322.551 59.8665C322.551 62.7896 318.592 63.5201 313.957 63.5201C309.298 63.5201 305.363 62.7627 305.363 59.8408C305.363 56.9177 309.322 56.1872 313.957 56.1872ZM313.957 42.0352C317.115 42.0352 319.644 44.564 319.644 47.7191C319.644 50.8741 317.115 53.404 313.957 53.404C310.801 53.404 308.27 50.8741 308.27 47.7191C308.27 44.564 310.801 42.0352 313.957 42.0352Z" fill="black"/>
</g>
<g filter="url(#filter1_d_1693_15149)">
<rect x="16" y="8" width="207.062" height="208.361" rx="25" fill="white"/>
</g>
<path d="M16 31.3675C16 18.462 26.462 8 39.3675 8H199.695C212.6 8 223.062 18.462 223.062 31.3675H16Z" fill="#C9EAF1"/>
<rect x="36.123" y="74.208" width="45.2051" height="3.01367" fill="#D9D9D9"/>
<rect x="93.2441" y="74.208" width="45.2051" height="3.01367" fill="#D9D9D9"/>
<rect x="36.123" y="85.8906" width="66.208" height="3.24549" fill="#D9D9D9"/>
<rect x="36.123" y="95.6279" width="48.6824" height="3.24549" fill="#D9D9D9"/>
<rect x="36.123" y="119.646" width="45.2051" height="3.01367" fill="#D9D9D9"/>
<rect x="36.123" y="176.765" width="45.2051" height="3.01367" fill="#115766"/>
<rect x="164.645" y="176.765" width="40.2441" height="3.24549" fill="#115766"/>
<rect x="34.1738" y="133.276" width="170.713" height="3.89459" fill="#D9D9D9"/>
<rect x="34.1738" y="143.013" width="170.713" height="3.89459" fill="#D9D9D9"/>
<rect x="34.1738" y="152.75" width="170.713" height="3.89459" fill="#D9D9D9"/>
<rect x="34.1738" y="162.485" width="170.713" height="3.89459" fill="#D9D9D9"/>
<rect x="36.123" y="49.543" width="62.0816" height="10.2465" fill="#46B2C8"/>
<g filter="url(#filter2_d_1693_15149)">
<rect x="85" y="180" width="180.832" height="151.381" rx="25" fill="white"/>
</g>
<path d="M85 198.26C85 188.175 93.1753 180 103.26 180H247.572C257.657 180 265.832 188.175 265.832 198.26H85Z" fill="#C9EAF1"/>
<path d="M130.105 215.678H115.099C114.667 215.678 114.253 215.507 113.948 215.201C113.642 214.896 113.471 214.482 113.471 214.05C113.471 213.618 113.642 213.204 113.948 212.899C114.253 212.593 114.667 212.422 115.099 212.422H130.105C130.537 212.422 130.951 212.593 131.257 212.899C131.562 213.204 131.734 213.618 131.734 214.05C131.734 214.482 131.562 214.896 131.257 215.201C130.951 215.507 130.537 215.678 130.105 215.678Z" fill="#263238"/>
<path d="M130.105 224.2H115.099C114.667 224.2 114.253 224.028 113.948 223.723C113.642 223.418 113.471 223.003 113.471 222.572C113.471 222.14 113.642 221.726 113.948 221.42C114.253 221.115 114.667 220.943 115.099 220.943H130.105C130.537 220.943 130.951 221.115 131.257 221.42C131.562 221.726 131.734 222.14 131.734 222.572C131.734 223.003 131.562 223.418 131.257 223.723C130.951 224.028 130.537 224.2 130.105 224.2Z" fill="#E0E0E0"/>
<path d="M130.105 233.006H115.099C114.667 233.006 114.253 232.834 113.948 232.529C113.642 232.223 113.471 231.809 113.471 231.377C113.471 230.945 113.642 230.531 113.948 230.226C114.253 229.921 114.667 229.749 115.099 229.749H130.105C130.537 229.749 130.951 229.921 131.257 230.226C131.562 230.531 131.734 230.945 131.734 231.377C131.734 231.809 131.562 232.223 131.257 232.529C130.951 232.834 130.537 233.006 130.105 233.006Z" fill="#46B2C8"/>
<path d="M123.705 250.034H115.099C114.667 250.034 114.253 249.862 113.948 249.557C113.642 249.252 113.471 248.837 113.471 248.406C113.471 247.974 113.642 247.56 113.948 247.254C114.253 246.949 114.667 246.777 115.099 246.777H123.705C124.137 246.777 124.551 246.949 124.856 247.254C125.161 247.56 125.333 247.974 125.333 248.406C125.333 248.837 125.161 249.252 124.856 249.557C124.551 249.862 124.137 250.034 123.705 250.034Z" fill="#263238"/>
<path d="M123.705 258.864H115.099C114.667 258.864 114.253 258.692 113.948 258.387C113.642 258.082 113.471 257.668 113.471 257.236C113.471 256.804 113.642 256.39 113.948 256.084C114.253 255.779 114.667 255.607 115.099 255.607H123.705C124.137 255.607 124.551 255.779 124.856 256.084C125.161 256.39 125.333 256.804 125.333 257.236C125.333 257.668 125.161 258.082 124.856 258.387C124.551 258.692 124.137 258.864 123.705 258.864Z" fill="#263238"/>
<path d="M149.277 258.864H133.515C133.083 258.864 132.669 258.692 132.364 258.387C132.058 258.082 131.887 257.668 131.887 257.236C131.887 256.804 132.058 256.39 132.364 256.084C132.669 255.779 133.083 255.607 133.515 255.607H149.292C149.724 255.607 150.138 255.779 150.443 256.084C150.749 256.39 150.92 256.804 150.92 257.236C150.92 257.451 150.878 257.664 150.795 257.862C150.712 258.061 150.591 258.241 150.438 258.392C150.285 258.544 150.104 258.663 149.905 258.744C149.705 258.825 149.492 258.866 149.277 258.864Z" fill="#E0E0E0"/>
<path d="M140.354 266.711H124.572C124.14 266.711 123.726 266.539 123.42 266.234C123.115 265.928 122.943 265.514 122.943 265.082C122.943 264.651 123.115 264.236 123.42 263.931C123.726 263.626 124.14 263.454 124.572 263.454H140.354C140.786 263.454 141.2 263.626 141.505 263.931C141.811 264.236 141.982 264.651 141.982 265.082C141.982 265.514 141.811 265.928 141.505 266.234C141.2 266.539 140.786 266.711 140.354 266.711Z" fill="#46B2C8"/>
<path d="M143.371 272.406H133.484C132.607 272.406 131.896 273.117 131.896 273.994V274.075C131.896 274.952 132.607 275.663 133.484 275.663H143.371C144.247 275.663 144.958 274.952 144.958 274.075V273.994C144.958 273.117 144.247 272.406 143.371 272.406Z" fill="#46B2C8"/>
<path d="M143.33 293.211H133.515C133.083 293.211 132.669 293.039 132.364 292.734C132.058 292.428 131.887 292.014 131.887 291.582C131.887 291.151 132.058 290.736 132.364 290.431C132.669 290.126 133.083 289.954 133.515 289.954H143.32C143.752 289.954 144.166 290.126 144.472 290.431C144.777 290.736 144.948 291.151 144.948 291.582C144.948 292.012 144.778 292.425 144.475 292.73C144.172 293.035 143.76 293.208 143.33 293.211Z" fill="#46B2C8"/>
<path d="M143.33 311.744H133.515C133.083 311.744 132.669 311.573 132.364 311.267C132.058 310.962 131.887 310.548 131.887 310.116C131.885 309.901 131.927 309.688 132.008 309.49C132.089 309.291 132.209 309.11 132.36 308.958C132.511 308.806 132.691 308.685 132.89 308.602C133.088 308.52 133.3 308.478 133.515 308.478H143.32C143.752 308.478 144.166 308.649 144.472 308.954C144.777 309.26 144.948 309.674 144.948 310.106C144.95 310.32 144.909 310.532 144.828 310.73C144.748 310.928 144.629 311.108 144.479 311.26C144.329 311.412 144.15 311.533 143.953 311.616C143.756 311.699 143.544 311.743 143.33 311.744Z" fill="#46B2C8"/>
<path d="M167.431 311.744H150.245C149.814 311.744 149.399 311.572 149.094 311.267C148.789 310.962 148.617 310.547 148.617 310.116C148.617 309.684 148.789 309.27 149.094 308.964C149.399 308.659 149.814 308.487 150.245 308.487H167.431C167.863 308.487 168.277 308.659 168.583 308.964C168.888 309.27 169.06 309.684 169.06 310.116C169.06 310.547 168.888 310.962 168.583 311.267C168.277 311.572 167.863 311.744 167.431 311.744Z" fill="#455A64"/>
<path d="M179.451 311.744H176.976C176.544 311.744 176.13 311.572 175.825 311.267C175.519 310.962 175.348 310.547 175.348 310.116C175.348 309.684 175.519 309.27 175.825 308.964C176.13 308.659 176.544 308.487 176.976 308.487H179.451C179.883 308.487 180.297 308.659 180.603 308.964C180.908 309.27 181.08 309.684 181.08 310.116C181.08 310.547 180.908 310.962 180.603 311.267C180.297 311.572 179.883 311.744 179.451 311.744Z" fill="#E0E0E0"/>
<path d="M166.401 293.211H151.89C151.458 293.211 151.044 293.039 150.739 292.734C150.433 292.428 150.262 292.014 150.262 291.582C150.262 291.151 150.433 290.736 150.739 290.431C151.044 290.126 151.458 289.954 151.89 289.954H166.411C166.843 289.954 167.257 290.126 167.563 290.431C167.868 290.736 168.04 291.151 168.04 291.582C168.04 291.797 167.997 292.01 167.915 292.208C167.832 292.406 167.711 292.586 167.559 292.737C167.407 292.889 167.226 293.008 167.027 293.09C166.829 293.171 166.616 293.212 166.401 293.211Z" fill="#E0E0E0"/>
<path d="M198.257 301.331H151.89C151.458 301.331 151.044 301.159 150.739 300.854C150.433 300.548 150.262 300.134 150.262 299.702C150.262 299.271 150.433 298.856 150.739 298.551C151.044 298.246 151.458 298.074 151.89 298.074H198.267C198.699 298.074 199.113 298.246 199.418 298.551C199.724 298.856 199.895 299.271 199.895 299.702C199.895 299.917 199.853 300.13 199.77 300.328C199.688 300.526 199.567 300.706 199.415 300.857C199.262 301.009 199.082 301.128 198.883 301.21C198.684 301.291 198.471 301.332 198.257 301.331Z" fill="#E0E0E0"/>
<path d="M203.61 293.211H174.005C173.573 293.211 173.159 293.039 172.854 292.734C172.548 292.428 172.377 292.014 172.377 291.582C172.377 291.151 172.548 290.736 172.854 290.431C173.159 290.126 173.573 289.954 174.005 289.954H203.61C204.041 289.954 204.456 290.126 204.761 290.431C205.066 290.736 205.238 291.151 205.238 291.582C205.238 292.014 205.066 292.428 204.761 292.734C204.456 293.039 204.041 293.211 203.61 293.211Z" fill="#455A64"/>
<path d="M163.161 272.406H150.814C149.937 272.406 149.227 273.117 149.227 273.994V274.075C149.227 274.952 149.937 275.663 150.814 275.663H163.161C164.038 275.663 164.748 274.952 164.748 274.075V273.994C164.748 273.117 164.038 272.406 163.161 272.406Z" fill="#455A64"/>
<path d="M173.777 272.406H170.648C169.771 272.406 169.061 273.117 169.061 273.994V274.075C169.061 274.952 169.771 275.663 170.648 275.663H173.777C174.654 275.663 175.364 274.952 175.364 274.075V273.994C175.364 273.117 174.654 272.406 173.777 272.406Z" fill="#E0E0E0"/>
<path d="M197.171 272.406H181.751C180.875 272.406 180.164 273.117 180.164 273.994V274.075C180.164 274.952 180.875 275.663 181.751 275.663H197.171C198.048 275.663 198.759 274.952 198.759 274.075V273.994C198.759 273.117 198.048 272.406 197.171 272.406Z" fill="#E0E0E0"/>
<path d="M151.043 266.711H147.527C147.095 266.711 146.681 266.539 146.375 266.234C146.07 265.928 145.898 265.514 145.898 265.082C145.898 264.651 146.07 264.236 146.375 263.931C146.681 263.626 147.095 263.454 147.527 263.454H151.043C151.257 263.454 151.469 263.496 151.666 263.578C151.863 263.66 152.042 263.78 152.193 263.931C152.344 264.083 152.463 264.262 152.545 264.46C152.626 264.657 152.667 264.869 152.667 265.082C152.667 265.296 152.626 265.508 152.545 265.705C152.463 265.903 152.344 266.082 152.193 266.233C152.042 266.385 151.863 266.505 151.666 266.587C151.469 266.668 151.257 266.711 151.043 266.711Z" fill="#263238"/>
<path d="M180.826 266.711H158.439C158.007 266.711 157.593 266.539 157.287 266.234C156.982 265.928 156.811 265.514 156.811 265.082C156.811 264.651 156.982 264.236 157.287 263.931C157.593 263.626 158.007 263.454 158.439 263.454H180.826C181.258 263.454 181.672 263.626 181.977 263.931C182.283 264.236 182.454 264.651 182.454 265.082C182.454 265.514 182.283 265.928 181.977 266.234C181.672 266.539 181.258 266.711 180.826 266.711Z" fill="#E0E0E0"/>
<path d="M154.149 215.678H139.132C138.7 215.678 138.286 215.507 137.981 215.201C137.675 214.896 137.504 214.482 137.504 214.05C137.504 213.618 137.675 213.204 137.981 212.899C138.286 212.593 138.7 212.422 139.132 212.422H154.139C154.57 212.422 154.985 212.593 155.29 212.899C155.595 213.204 155.767 213.618 155.767 214.05C155.767 214.48 155.597 214.893 155.294 215.198C154.99 215.503 154.579 215.676 154.149 215.678Z" fill="#455A64"/>
<path d="M173.484 224.2H139.132C138.7 224.2 138.286 224.028 137.981 223.723C137.675 223.418 137.504 223.003 137.504 222.572C137.504 222.14 137.675 221.726 137.981 221.42C138.286 221.115 138.7 220.943 139.132 220.943H173.484C173.915 220.943 174.33 221.115 174.635 221.42C174.94 221.726 175.112 222.14 175.112 222.572C175.112 223.003 174.94 223.418 174.635 223.723C174.33 224.028 173.915 224.2 173.484 224.2Z" fill="#263238"/>
<path d="M210.459 233.006H139.132C138.7 233.006 138.286 232.834 137.981 232.529C137.675 232.223 137.504 231.809 137.504 231.377C137.504 230.945 137.675 230.531 137.981 230.226C138.286 229.921 138.7 229.749 139.132 229.749H210.459C210.89 229.749 211.304 229.921 211.61 230.226C211.915 230.531 212.087 230.945 212.087 231.377C212.087 231.809 211.915 232.223 211.61 232.529C211.304 232.834 210.89 233.006 210.459 233.006Z" fill="#E0E0E0"/>
<path d="M172.769 239.213H139.132C138.7 239.213 138.286 239.041 137.981 238.736C137.675 238.43 137.504 238.016 137.504 237.584C137.504 237.152 137.675 236.738 137.981 236.433C138.286 236.128 138.7 235.956 139.132 235.956H172.769C173.201 235.956 173.615 236.128 173.92 236.433C174.226 236.738 174.397 237.152 174.397 237.584C174.397 238.016 174.226 238.43 173.92 238.736C173.615 239.041 173.201 239.213 172.769 239.213Z" fill="#E0E0E0"/>
<path d="M165.884 250.034H132.257C131.825 250.034 131.411 249.862 131.106 249.557C130.8 249.252 130.629 248.837 130.629 248.406C130.629 247.974 130.8 247.56 131.106 247.254C131.411 246.949 131.825 246.777 132.257 246.777H165.884C166.316 246.777 166.73 246.949 167.035 247.254C167.34 247.56 167.512 247.974 167.512 248.406C167.512 248.837 167.34 249.252 167.035 249.557C166.73 249.862 166.316 250.034 165.884 250.034Z" fill="#455A64"/>
<path d="M184.711 250.034H173.441C173.009 250.034 172.595 249.862 172.289 249.557C171.984 249.252 171.812 248.837 171.812 248.406C171.812 247.974 171.984 247.56 172.289 247.254C172.595 246.949 173.009 246.777 173.441 246.777H184.711C185.143 246.777 185.557 246.949 185.862 247.254C186.168 247.56 186.339 247.974 186.339 248.406C186.339 248.837 186.168 249.252 185.862 249.557C185.557 249.862 185.143 250.034 184.711 250.034Z" fill="#46B2C8"/>
<path d="M213.527 249.982H192.238C191.806 249.982 191.392 249.811 191.086 249.505C190.781 249.2 190.609 248.786 190.609 248.354C190.609 247.922 190.781 247.508 191.086 247.202C191.392 246.897 191.806 246.726 192.238 246.726H213.527C213.959 246.726 214.373 246.897 214.679 247.202C214.984 247.508 215.156 247.922 215.156 248.354C215.156 248.786 214.984 249.2 214.679 249.505C214.373 249.811 213.959 249.982 213.527 249.982Z" fill="#263238"/>
<path d="M242.5 249.982H221.21C220.778 249.982 220.364 249.811 220.059 249.505C219.754 249.2 219.582 248.786 219.582 248.354C219.582 247.922 219.754 247.508 220.059 247.202C220.364 246.897 220.778 246.726 221.21 246.726H242.5C242.932 246.726 243.346 246.897 243.651 247.202C243.957 247.508 244.128 247.922 244.128 248.354C244.128 248.786 243.957 249.2 243.651 249.505C243.346 249.811 242.932 249.982 242.5 249.982Z" fill="#E0E0E0"/>
<path d="M107.743 214.049C107.743 214.376 107.646 214.696 107.464 214.968C107.283 215.24 107.024 215.452 106.722 215.577C106.42 215.702 106.087 215.735 105.767 215.671C105.446 215.607 105.151 215.45 104.92 215.219C104.689 214.987 104.531 214.693 104.467 214.372C104.404 214.051 104.436 213.719 104.561 213.416C104.687 213.114 104.899 212.856 105.171 212.674C105.442 212.492 105.762 212.396 106.089 212.396C106.528 212.396 106.949 212.57 107.259 212.88C107.569 213.19 107.743 213.611 107.743 214.049Z" fill="#455A64"/>
<path d="M107.743 222.546C107.743 222.873 107.646 223.193 107.464 223.465C107.283 223.737 107.024 223.949 106.722 224.074C106.42 224.199 106.087 224.232 105.767 224.168C105.446 224.105 105.151 223.947 104.92 223.716C104.689 223.484 104.531 223.19 104.467 222.869C104.404 222.548 104.436 222.216 104.561 221.913C104.687 221.611 104.899 221.353 105.171 221.171C105.442 220.99 105.762 220.893 106.089 220.893C106.528 220.893 106.949 221.067 107.259 221.377C107.569 221.687 107.743 222.108 107.743 222.546Z" fill="#455A64"/>
<path d="M107.743 231.403C107.743 231.73 107.646 232.05 107.464 232.322C107.283 232.594 107.024 232.806 106.722 232.931C106.42 233.056 106.087 233.089 105.767 233.025C105.446 232.961 105.151 232.803 104.92 232.572C104.689 232.341 104.531 232.046 104.467 231.725C104.404 231.405 104.436 231.072 104.561 230.77C104.687 230.468 104.899 230.209 105.171 230.028C105.442 229.846 105.762 229.749 106.089 229.749C106.528 229.749 106.949 229.923 107.259 230.233C107.569 230.544 107.743 230.964 107.743 231.403Z" fill="#455A64"/>
<path d="M107.743 240.212C107.743 240.539 107.646 240.859 107.464 241.131C107.283 241.403 107.024 241.615 106.722 241.74C106.42 241.865 106.087 241.898 105.767 241.834C105.446 241.771 105.151 241.613 104.92 241.382C104.689 241.15 104.531 240.856 104.467 240.535C104.404 240.214 104.436 239.882 104.561 239.579C104.687 239.277 104.899 239.019 105.171 238.837C105.442 238.656 105.762 238.559 106.089 238.559C106.528 238.559 106.949 238.733 107.259 239.043C107.569 239.353 107.743 239.774 107.743 240.212Z" fill="#455A64"/>
<path d="M107.743 249.043C107.743 249.37 107.646 249.69 107.464 249.962C107.283 250.234 107.024 250.446 106.722 250.571C106.42 250.696 106.087 250.729 105.767 250.665C105.446 250.602 105.151 250.444 104.92 250.213C104.689 249.982 104.531 249.687 104.467 249.366C104.404 249.045 104.436 248.713 104.561 248.411C104.687 248.108 104.899 247.85 105.171 247.668C105.442 247.487 105.762 247.39 106.089 247.39C106.528 247.39 106.949 247.564 107.259 247.874C107.569 248.184 107.743 248.605 107.743 249.043Z" fill="#455A64"/>
<path d="M107.743 257.879C107.743 258.206 107.646 258.526 107.464 258.798C107.283 259.07 107.024 259.282 106.722 259.407C106.42 259.532 106.087 259.565 105.767 259.501C105.446 259.438 105.151 259.28 104.92 259.049C104.689 258.817 104.531 258.523 104.467 258.202C104.404 257.881 104.436 257.549 104.561 257.246C104.687 256.944 104.899 256.686 105.171 256.504C105.442 256.323 105.762 256.226 106.089 256.226C106.528 256.226 106.949 256.4 107.259 256.71C107.569 257.02 107.743 257.441 107.743 257.879Z" fill="#455A64"/>
<path d="M107.743 266.709C107.743 267.037 107.646 267.356 107.464 267.628C107.283 267.9 107.024 268.112 106.722 268.237C106.42 268.362 106.087 268.395 105.767 268.331C105.446 268.268 105.151 268.11 104.92 267.879C104.689 267.648 104.531 267.353 104.467 267.032C104.404 266.711 104.436 266.379 104.561 266.077C104.687 265.774 104.899 265.516 105.171 265.334C105.442 265.153 105.762 265.056 106.089 265.056C106.306 265.056 106.522 265.098 106.722 265.182C106.923 265.265 107.105 265.386 107.259 265.54C107.412 265.694 107.534 265.876 107.617 266.077C107.7 266.277 107.743 266.492 107.743 266.709Z" fill="#455A64"/>
<path d="M107.743 275.546C107.743 275.873 107.646 276.193 107.464 276.465C107.283 276.737 107.024 276.949 106.722 277.074C106.42 277.199 106.087 277.232 105.767 277.168C105.446 277.105 105.151 276.947 104.92 276.716C104.689 276.484 104.531 276.19 104.467 275.869C104.404 275.548 104.436 275.216 104.561 274.913C104.687 274.611 104.899 274.353 105.171 274.171C105.442 273.99 105.762 273.893 106.089 273.893C106.528 273.893 106.949 274.067 107.259 274.377C107.569 274.687 107.743 275.108 107.743 275.546Z" fill="#455A64"/>
<path d="M107.743 284.375C107.743 284.703 107.646 285.022 107.464 285.294C107.283 285.566 107.024 285.778 106.722 285.903C106.42 286.029 106.087 286.061 105.767 285.997C105.446 285.934 105.151 285.776 104.92 285.545C104.689 285.314 104.531 285.019 104.467 284.698C104.404 284.377 104.436 284.045 104.561 283.743C104.687 283.44 104.899 283.182 105.171 283C105.442 282.819 105.762 282.722 106.089 282.722C106.306 282.722 106.522 282.764 106.722 282.848C106.923 282.931 107.105 283.052 107.259 283.206C107.412 283.36 107.534 283.542 107.617 283.743C107.7 283.943 107.743 284.158 107.743 284.375Z" fill="#455A64"/>
<path d="M107.743 293.21C107.743 293.537 107.646 293.857 107.464 294.129C107.283 294.401 107.024 294.613 106.722 294.738C106.42 294.863 106.087 294.896 105.767 294.832C105.446 294.769 105.151 294.611 104.92 294.38C104.689 294.149 104.531 293.854 104.467 293.533C104.404 293.212 104.436 292.88 104.561 292.578C104.687 292.275 104.899 292.017 105.171 291.835C105.442 291.654 105.762 291.557 106.089 291.557C106.528 291.557 106.949 291.731 107.259 292.041C107.569 292.351 107.743 292.772 107.743 293.21Z" fill="#455A64"/>
<path d="M107.743 302.046C107.742 302.372 107.644 302.692 107.462 302.963C107.28 303.234 107.021 303.445 106.719 303.57C106.416 303.694 106.084 303.726 105.764 303.662C105.443 303.597 105.149 303.44 104.918 303.208C104.687 302.977 104.53 302.682 104.467 302.361C104.404 302.041 104.437 301.708 104.562 301.406C104.687 301.105 104.899 300.847 105.171 300.665C105.443 300.484 105.762 300.387 106.089 300.387C106.528 300.388 106.949 300.563 107.259 300.874C107.569 301.185 107.743 301.607 107.743 302.046Z" fill="#455A64"/>
<path d="M107.743 310.877C107.743 311.204 107.646 311.524 107.464 311.796C107.283 312.068 107.024 312.28 106.722 312.405C106.42 312.53 106.087 312.563 105.767 312.499C105.446 312.436 105.151 312.278 104.92 312.047C104.689 311.816 104.531 311.521 104.467 311.2C104.404 310.879 104.436 310.547 104.561 310.245C104.687 309.942 104.899 309.684 105.171 309.502C105.442 309.321 105.762 309.224 106.089 309.224C106.528 309.224 106.949 309.398 107.259 309.708C107.569 310.018 107.743 310.439 107.743 310.877Z" fill="#455A64"/>
<g clip-path="url(#clip0_1693_15149)">
<path d="M249.452 157.041C248.531 157.041 247.784 157.788 247.784 158.709C247.783 163.025 244.284 166.524 239.967 166.523C235.651 166.522 232.152 163.023 232.153 158.706C232.154 154.39 235.652 150.892 239.968 150.892C240.889 150.892 241.636 150.145 241.636 149.224C241.636 148.303 240.889 147.557 239.968 147.557C233.811 147.561 228.821 152.551 228.816 158.709C228.816 164.867 233.809 169.86 239.968 169.86C246.127 169.86 251.119 164.867 251.119 158.709C251.119 157.788 250.373 157.041 249.452 157.041Z" fill="#FF993C"/>
<path d="M262.699 162.543C262.54 161.636 261.676 161.03 260.769 161.189L257.279 161.801C256.64 161.913 256.124 162.384 255.956 163.01C255.584 164.392 255.033 165.718 254.318 166.957C253.992 167.52 254.023 168.221 254.398 168.753L256.435 171.656C256.72 172.06 256.672 172.611 256.322 172.96L254.228 175.054C253.879 175.404 253.329 175.452 252.925 175.168L250.022 173.131C249.49 172.757 248.789 172.725 248.226 173.052C246.988 173.767 245.661 174.318 244.279 174.69C243.653 174.858 243.182 175.374 243.07 176.012L242.45 179.499C242.365 179.985 241.943 180.34 241.448 180.34H238.487C237.993 180.34 237.57 179.985 237.485 179.499L236.873 176.009C236.761 175.371 236.289 174.855 235.663 174.687C234.282 174.315 232.955 173.764 231.715 173.049C231.152 172.723 230.451 172.754 229.919 173.128L227.022 175.164C226.617 175.449 226.067 175.401 225.717 175.051L223.624 172.958C223.274 172.609 223.226 172.059 223.51 171.655L225.547 168.752C225.921 168.22 225.952 167.519 225.626 166.956C224.91 165.717 224.36 164.39 223.988 163.009C223.82 162.383 223.304 161.911 222.666 161.799L219.177 161.188C218.691 161.103 218.336 160.682 218.335 160.188V157.227C218.335 156.732 218.69 156.31 219.177 156.225L222.666 155.613C223.304 155.501 223.82 155.029 223.988 154.403C224.36 153.021 224.91 151.692 225.626 150.453C225.952 149.89 225.921 149.189 225.547 148.657L223.511 145.763C223.226 145.359 223.274 144.808 223.624 144.458L225.718 142.364C226.068 142.014 226.618 141.967 227.022 142.251L229.924 144.288C230.456 144.662 231.157 144.693 231.72 144.367C232.96 143.652 234.287 143.101 235.669 142.729C236.294 142.561 236.766 142.045 236.878 141.407L237.49 137.918C237.649 137.011 237.043 136.146 236.135 135.987C235.228 135.828 234.364 136.435 234.205 137.342L233.771 139.817C232.82 140.132 231.895 140.518 231.002 140.972L228.943 139.528C227.214 138.311 224.859 138.516 223.366 140.014L221.265 142.101C219.768 143.594 219.564 145.948 220.78 147.678L222.224 149.737C221.77 150.63 221.384 151.556 221.07 152.507L218.594 152.941C216.514 153.306 214.997 155.114 215 157.227V160.188C214.997 162.303 216.517 164.112 218.599 164.475L221.075 164.91C221.389 165.861 221.775 166.787 222.229 167.679L220.78 169.738C219.564 171.468 219.769 173.822 221.266 175.316L223.361 177.409C224.854 178.906 227.209 179.111 228.938 177.894L230.99 176.449C231.883 176.904 232.809 177.29 233.76 177.604L234.193 180.08C234.559 182.163 236.371 183.681 238.487 183.675H241.448C243.563 183.678 245.373 182.158 245.735 180.074L246.17 177.599C247.121 177.285 248.047 176.899 248.94 176.444L251 177.889C252.729 179.105 255.084 178.9 256.577 177.403L258.672 175.308C260.169 173.814 260.374 171.46 259.158 169.731L257.715 167.678C258.169 166.786 258.555 165.86 258.869 164.909L261.345 164.474C262.252 164.315 262.858 163.451 262.699 162.543Z" fill="#FF993C"/>
<path d="M277.546 133.136L275.802 132.831C275.584 132.202 275.327 131.587 275.032 130.99L276.058 129.545C277.115 128.041 276.937 125.995 275.636 124.697L273.984 123.041C272.685 121.737 270.636 121.559 269.131 122.618L267.681 123.635C267.084 123.34 266.469 123.083 265.84 122.865L265.54 121.129C265.224 119.318 263.651 117.997 261.812 118H259.479C257.641 117.998 256.068 119.319 255.753 121.13L255.446 122.874C254.817 123.092 254.202 123.349 253.605 123.644L252.155 122.618C250.651 121.561 248.605 121.739 247.307 123.04L245.658 124.692C244.354 125.991 244.175 128.04 245.234 129.545L246.252 130.995C245.957 131.592 245.7 132.207 245.482 132.836L243.744 133.136C241.933 133.452 240.613 135.025 240.615 136.862V139.196C240.612 141.034 241.932 142.609 243.744 142.925L245.487 143.23C245.705 143.859 245.962 144.474 246.257 145.071L245.238 146.521C244.181 148.024 244.358 150.07 245.658 151.369L247.307 153.018C248.605 154.32 250.652 154.498 252.156 153.44L253.611 152.423C254.207 152.718 254.822 152.975 255.451 153.193L255.758 154.937C256.074 156.748 257.646 158.068 259.484 158.066H261.817C263.656 158.066 265.227 156.742 265.54 154.931L265.845 153.188C266.474 152.97 267.089 152.713 267.686 152.418L269.131 153.442C270.636 154.501 272.686 154.323 273.984 153.018L275.635 151.367C276.935 150.07 277.114 148.025 276.058 146.521L275.038 145.065C275.333 144.468 275.59 143.854 275.808 143.225L277.553 142.918C279.359 142.601 280.676 141.031 280.676 139.197V136.864C280.679 135.025 279.358 133.451 277.546 133.136ZM277.341 139.201C277.341 139.419 277.185 139.605 276.97 139.642L274.22 140.124C273.582 140.236 273.066 140.708 272.898 141.334C272.612 142.393 272.19 143.41 271.642 144.36C271.316 144.923 271.347 145.624 271.721 146.156L273.326 148.444C273.451 148.622 273.43 148.865 273.276 149.019L271.626 150.668C271.471 150.818 271.231 150.835 271.056 150.709L268.763 149.106C268.232 148.731 267.53 148.7 266.968 149.027C266.018 149.575 265.001 149.997 263.942 150.282C263.317 150.453 262.847 150.969 262.737 151.607L262.255 154.358C262.217 154.572 262.031 154.728 261.814 154.728H259.479C259.261 154.728 259.075 154.572 259.038 154.358L258.554 151.607C258.442 150.969 257.97 150.453 257.345 150.285C256.285 150 255.268 149.577 254.317 149.029C253.754 148.703 253.053 148.734 252.521 149.109L250.24 150.709C250.061 150.835 249.819 150.814 249.665 150.659L248.015 149.01C247.861 148.856 247.84 148.613 247.965 148.435L249.57 146.147C249.944 145.615 249.976 144.914 249.649 144.351C249.101 143.401 248.679 142.384 248.394 141.325C248.223 140.701 247.706 140.232 247.069 140.122L244.318 139.64C244.104 139.602 243.948 139.416 243.948 139.198L243.949 136.864C243.949 136.646 244.105 136.46 244.32 136.422L247.069 135.939C247.707 135.827 248.223 135.355 248.391 134.729C248.676 133.67 249.098 132.653 249.647 131.703C249.973 131.14 249.942 130.439 249.567 129.908L247.967 127.62C247.841 127.442 247.862 127.2 248.017 127.046L249.667 125.395C249.821 125.241 250.064 125.219 250.242 125.345L252.529 126.95C253.061 127.324 253.762 127.355 254.325 127.029C255.275 126.481 256.292 126.058 257.351 125.773C257.977 125.605 258.449 125.089 258.561 124.451L259.043 121.701C259.082 121.49 259.265 121.337 259.479 121.335H261.812C262.03 121.335 262.216 121.491 262.254 121.706L262.736 124.456C262.848 125.094 263.319 125.61 263.945 125.778C265.004 126.063 266.022 126.486 266.971 127.034C267.534 127.36 268.235 127.329 268.767 126.955L271.056 125.35C271.234 125.225 271.476 125.246 271.63 125.4L273.281 127.051C273.431 127.205 273.45 127.444 273.326 127.62L271.721 129.913C271.347 130.444 271.316 131.146 271.642 131.708C272.19 132.658 272.612 133.675 272.898 134.734C273.066 135.36 273.582 135.832 274.22 135.944L276.97 136.426C277.185 136.464 277.341 136.65 277.341 136.868V139.201Z" fill="#FF993C"/>
<path d="M260.645 130.064C256.245 130.064 252.678 133.631 252.678 138.031C252.683 142.429 256.247 145.993 260.645 145.998C265.045 145.998 268.612 142.431 268.612 138.031C268.612 133.631 265.045 130.064 260.645 130.064ZM260.645 142.663C258.087 142.663 256.013 140.59 256.013 138.031C256.012 135.472 258.085 133.396 260.645 133.393V133.4C263.203 133.4 265.277 135.473 265.277 138.031C265.277 140.59 263.203 142.663 260.645 142.663Z" fill="#FF993C"/>
</g>
<defs>
<filter id="filter0_d_1693_15149" x="265" y="7" width="146.518" height="225.428" filterUnits="userSpaceOnUse" color-interpolation-filters="sRGB">
<feFlood flood-opacity="0" result="BackgroundImageFix"/>
<feColorMatrix in="SourceAlpha" type="matrix" values="0 0 0 0 0 0 0 0 0 0 0 0 0 0 0 0 0 0 127 0" result="hardAlpha"/>
<feOffset dy="8"/>
<feGaussianBlur stdDeviation="8"/>
<feComposite in2="hardAlpha" operator="out"/>
<feColorMatrix type="matrix" values="0 0 0 0 0 0 0 0 0 0 0 0 0 0 0 0 0 0 0.08 0"/>
<feBlend mode="normal" in2="BackgroundImageFix" result="effect1_dropShadow_1693_15149"/>
<feBlend mode="normal" in="SourceGraphic" in2="effect1_dropShadow_1693_15149" result="shape"/>
</filter>
<filter id="filter1_d_1693_15149" x="0" y="0" width="239.062" height="240.36" filterUnits="userSpaceOnUse" color-interpolation-filters="sRGB">
<feFlood flood-opacity="0" result="BackgroundImageFix"/>
<feColorMatrix in="SourceAlpha" type="matrix" values="0 0 0 0 0 0 0 0 0 0 0 0 0 0 0 0 0 0 127 0" result="hardAlpha"/>
<feOffset dy="8"/>
<feGaussianBlur stdDeviation="8"/>
<feComposite in2="hardAlpha" operator="out"/>
<feColorMatrix type="matrix" values="0 0 0 0 0 0 0 0 0 0 0 0 0 0 0 0 0 0 0.08 0"/>
<feBlend mode="normal" in2="BackgroundImageFix" result="effect1_dropShadow_1693_15149"/>
<feBlend mode="normal" in="SourceGraphic" in2="effect1_dropShadow_1693_15149" result="shape"/>
</filter>
<filter id="filter2_d_1693_15149" x="69" y="172" width="212.832" height="183.381" filterUnits="userSpaceOnUse" color-interpolation-filters="sRGB">
<feFlood flood-opacity="0" result="BackgroundImageFix"/>
<feColorMatrix in="SourceAlpha" type="matrix" values="0 0 0 0 0 0 0 0 0 0 0 0 0 0 0 0 0 0 127 0" result="hardAlpha"/>
<feOffset dy="8"/>
<feGaussianBlur stdDeviation="8"/>
<feComposite in2="hardAlpha" operator="out"/>
<feColorMatrix type="matrix" values="0 0 0 0 0 0 0 0 0 0 0 0 0 0 0 0 0 0 0.08 0"/>
<feBlend mode="normal" in2="BackgroundImageFix" result="effect1_dropShadow_1693_15149"/>
<feBlend mode="normal" in="SourceGraphic" in2="effect1_dropShadow_1693_15149" result="shape"/>
</filter>
<clipPath id="clip0_1693_15149">
<rect width="65.6754" height="65.6754" fill="white" transform="translate(215 118)"/>
</clipPath>
</defs>
</svg>
