<svg width="398" height="416" viewBox="0 0 398 416" fill="none" xmlns="http://www.w3.org/2000/svg">
<path d="M200.388 306.313C265.774 306.313 318.779 252.949 318.779 187.122C318.779 121.295 265.774 67.9316 200.388 67.9316C135.002 67.9316 81.9961 121.295 81.9961 187.122C81.9961 252.949 135.002 306.313 200.388 306.313Z" fill="#46B2C8"/>
<g opacity="0.3">
<path d="M156.54 240.25C157.163 235.069 161.24 229.806 158.89 225.118C156.282 219.89 148.692 220.736 143.358 218.398C135.909 215.12 133.595 205.862 128.731 199.33C124.361 193.455 114.174 187.052 106.409 188.815C100.793 190.095 98.8659 193.444 98.2784 197.567L97.5735 197.45C95.494 197.227 93.0503 197.121 91.9106 195.394C90.583 193.385 91.9106 190.412 90.5243 188.439C89.6696 187.54 88.6685 186.793 87.5636 186.23C86.5532 185.525 85.6956 184.174 86.3065 183.081C86.9174 181.989 88.1275 181.977 88.7855 181.143C89.0446 180.806 89.1851 180.393 89.1851 179.968C89.1851 179.543 89.0446 179.13 88.7855 178.793C86.6472 176.267 84.274 181.425 83.0874 182.635C82.7857 182.952 82.4681 183.254 82.1357 183.539C82.124 183.759 82.124 183.978 82.1357 184.197C82.1357 184.902 82.1357 185.619 82.1357 186.336C82.1357 187.052 82.1357 187.757 82.1357 188.474C82.1357 189.191 82.1357 189.649 82.1357 190.201C82.1357 190.753 82.1357 191.376 82.1357 191.94C83.412 192.412 84.6364 193.015 85.7896 193.737C88.1393 195.065 90.6535 196.827 90.8063 199.482C90.7659 199.916 90.8516 200.353 91.053 200.74C91.3426 201.053 91.734 201.252 92.1574 201.303C94.1319 201.769 96.1459 202.049 98.1727 202.138C98.1727 204.487 98.3724 207.013 98.3372 209.375C98.2784 212.805 97.1623 216.189 97.5265 219.584C98.0787 224.378 101.415 228.314 104.317 232.167C115.361 246.924 121.318 263.889 127.815 281.206C128.989 282.158 130.728 283.427 131.962 284.308C132.937 285.013 133.83 285.624 134.829 286.293C135.827 286.963 136.72 287.539 137.742 288.173C138.447 288.631 138.6 288.749 139.34 289.184C139.246 288.972 139.422 289.325 139.34 289.184C136.732 283.474 136.732 275.555 142.324 272.736C143.455 272.331 144.523 271.77 145.496 271.067C147.987 268.717 145.943 263.842 148.434 261.48C149.843 260.164 152.029 260.305 153.767 259.471C156.904 258.026 157.915 254.02 157.668 250.577C157.421 247.135 156.152 243.681 156.54 240.25Z" fill="black"/>
</g>
<g opacity="0.3">
<path d="M89.349 153.003C91.5578 151.111 95.3761 150.888 97.0797 153.25C98.2546 154.93 98.0196 157.244 97.7024 159.3C97.2677 162.073 96.8447 164.846 96.3865 167.618C96.1836 168.442 96.2245 169.308 96.504 170.109C97.3264 171.871 100.217 171.531 101.321 169.956C102.425 168.382 102.308 166.232 102.014 164.317C101.72 162.402 101.321 160.369 102.014 158.572C103.894 154.107 110.544 154.789 114.397 151.887C116.747 150.089 117.863 147.07 119.285 144.426C120.706 141.783 123.091 139.14 126.087 139.28C127.098 139.28 128.096 139.692 129.107 139.656C132.067 139.562 133.806 135.227 131.691 133.136C131.201 132.739 130.759 132.286 130.375 131.785C130.168 131.262 130.149 130.684 130.32 130.148C130.492 129.613 130.843 129.153 131.315 128.848C132.268 128.261 133.348 127.915 134.464 127.837C136.99 127.414 139.516 127.027 142.042 126.662C144.838 126.228 148.41 124.783 148.022 121.963C147.681 119.543 144.403 118.438 143.922 116.089C143.88 115.491 143.774 114.9 143.604 114.326C142.829 112.799 140.526 113.41 139.046 114.232C138.857 113.7 138.547 113.219 138.142 112.826C137.736 112.434 137.245 112.14 136.707 111.968C136.169 111.797 135.599 111.751 135.041 111.836C134.482 111.921 133.951 112.134 133.489 112.458C131.985 113.633 131.797 115.865 131.28 117.722C130.035 122.221 126.463 125.629 123.056 128.789C122.022 129.976 120.612 130.772 119.061 131.045C117.511 131.115 115.878 129.447 116.594 128.084C117.076 127.144 118.427 126.604 118.298 125.546C118.11 124.242 115.819 124.371 115.372 123.079C116.277 119.366 120.53 117.839 123.784 115.854C127.778 113.418 130.813 109.685 132.384 105.28C132.555 104.946 132.652 104.579 132.67 104.204C132.688 103.83 132.627 103.455 132.49 103.106C132.009 102.178 130.751 102.025 129.682 102.025C127.168 102.025 124.043 102.331 123.127 104.669C122.645 105.926 122.997 107.348 122.692 108.652C121.822 112.552 116.477 112.987 113.222 115.301C112.074 116.349 110.844 117.303 109.545 118.156C107.948 118.726 106.259 118.997 104.564 118.955C104.27 118.955 103.506 118.955 103.201 118.955C102.167 120.389 101.356 121.693 100.405 123.173C99.4529 124.653 98.4895 126.322 97.5966 127.873C93.4316 135.147 90.06 142.847 87.5397 150.841C86.6233 153.649 85.8244 156.716 85.1195 159.547C84.4146 162.378 83.9446 165.186 83.4395 168.147C84.4356 165.754 85.1531 163.255 85.5777 160.698C86.2356 157.855 87.152 154.859 89.349 153.003Z" fill="black"/>
</g>
<g opacity="0.3">
<path d="M188.838 99.4528C189.954 97.9842 189.625 95.9282 190.354 94.1776C191.528 91.3579 195.3 90.3476 196.604 87.5749C197.097 86.5057 197.227 85.2251 198.096 84.4027C198.965 83.5803 199.905 83.6156 200.681 83.0164C202.431 81.677 201.703 78.6341 199.846 77.4592C195.206 74.4868 186.664 77.9174 182.658 80.8194C177.5 84.5555 172.449 89.0435 165.587 88.6088C163.696 88.4795 161.734 87.9626 159.96 88.6088C158.186 89.2549 157.093 91.9454 158.62 93.0615C159.466 93.6842 160.676 93.5197 161.628 93.9544C163.402 94.7768 163.578 97.338 162.709 99.0886C161.839 100.839 160.289 102.143 159.267 103.788C158.278 105.417 157.834 107.318 157.998 109.216C158.013 109.882 158.163 110.538 158.44 111.144C158.717 111.75 159.114 112.293 159.607 112.741C161.734 114.444 164.988 112.987 166.797 110.943C168.607 108.899 169.852 106.244 172.19 104.845C173.399 104.205 174.698 103.753 176.044 103.506L184.984 101.38C186.45 101.192 187.808 100.512 188.838 99.4528Z" fill="black"/>
</g>
<g opacity="0.3">
<path d="M318.766 186.218C318.766 184.514 318.696 182.822 318.613 181.142C318.531 179.462 318.449 177.759 318.284 176.09C318.155 174.739 318.038 173.388 317.85 172.06C317.662 170.733 317.474 169.041 317.251 167.655C316.605 163.638 315.734 159.661 314.642 155.742C314.196 154.202 313.467 152.558 312.951 151.042C312.434 149.527 311.928 148.023 311.364 146.519C310.765 145.344 310.131 144.298 309.438 143.206C302.858 132.796 293.307 124.631 286.07 114.668C283.72 111.426 281.875 108.794 277.704 108.112C271.525 107.149 268.388 110.674 264.006 104.811C262.831 103.237 260.775 101.78 259.024 102.708L260.434 106.456C260.55 106.718 260.598 107.005 260.575 107.29C260.481 108.171 259.177 108.406 258.425 107.924C257.754 107.324 257.197 106.608 256.78 105.81C256.266 105.147 255.619 104.598 254.881 104.198C254.143 103.798 253.33 103.557 252.493 103.488C251.657 103.42 250.816 103.526 250.022 103.8C249.229 104.074 248.502 104.511 247.886 105.081C247.832 104.486 247.62 103.916 247.273 103.429C246.927 102.942 246.457 102.555 245.913 102.309C245.822 102.874 245.614 103.413 245.301 103.892C244.988 104.371 244.578 104.779 244.096 105.088C243.615 105.398 243.074 105.602 242.508 105.688C241.942 105.774 241.365 105.739 240.814 105.586C240.461 104.412 242.505 104.235 243.222 103.237C243.939 102.238 243.081 101.04 242.247 100.276C239.979 98.3071 237.096 97.1896 234.093 97.1156C232.202 97.1156 230.158 97.4328 228.513 96.4577C227.561 95.8937 226.88 94.9538 225.904 94.4134C223.825 93.2385 221.205 94.3194 219.125 95.4825C216.259 97.0686 213.251 99.0776 212.288 102.203C211.324 105.328 213.533 109.534 216.788 109.135C217.592 108.88 218.438 108.784 219.278 108.853C219.827 109.097 220.29 109.501 220.607 110.013C220.923 110.524 221.078 111.119 221.052 111.719C220.979 112.92 221.168 114.123 221.604 115.244C222.168 116.301 223.872 116.818 224.518 115.831C226.057 114.363 225.869 111.907 225.482 109.828C225.094 107.748 224.671 105.41 225.904 103.707C227.138 102.003 230.721 102.532 230.475 104.647C230.334 105.821 228.924 106.785 228.983 108.03C229.041 109.275 230.592 109.98 231.861 109.922C233.13 109.863 234.434 109.416 235.668 109.745C236.901 110.074 237.912 111.672 237.019 112.589C235.456 114.351 231.415 111.332 230.616 113.529C230.381 114.081 230.616 114.703 230.616 115.326C230.463 117.159 228.16 117.829 226.327 118.052C224.509 118.428 222.623 118.294 220.876 117.664C219.208 116.877 218.068 114.68 219.02 113.117C218.765 112.987 218.486 112.91 218.2 112.892C217.914 112.874 217.627 112.916 217.358 113.014C217.089 113.112 216.843 113.265 216.636 113.463C216.428 113.66 216.264 113.899 216.153 114.163C215.758 115.255 215.685 116.437 215.942 117.57C214.003 117.135 212.253 118.745 211.148 120.413C210.044 122.082 208.963 123.938 207.071 124.561C205.18 125.183 202.536 124.349 201.538 126.076C200.245 128.32 203.993 131.163 202.713 133.396C201.961 134.653 200.163 134.57 198.742 135.005C194.97 136.074 193.666 141.584 196.227 144.522C198.789 147.459 203.923 147.294 206.637 144.522C208.54 142.595 209.304 139.881 210.666 137.555C212.029 135.228 214.626 133.149 217.21 133.901C218.207 134.275 219.118 134.847 219.889 135.581L223.649 138.753C224.459 139.423 225.341 140.269 225.258 141.314C225.188 142.16 224.53 142.818 224.248 143.605C223.461 145.873 226.739 148.023 228.806 146.789C230.874 145.555 231.086 142.383 229.676 140.433C227.737 137.743 223.332 136.391 223.449 133.055C225.693 131.222 229.229 133.149 230.498 135.757C231.767 138.365 231.849 141.408 232.954 144.087C234.058 146.766 237.148 149.162 239.733 147.858C239.051 145.508 238.405 143.229 237.724 140.926C239.38 139.693 241.248 143.276 243.234 142.689C244.409 142.313 244.585 140.586 244.056 139.423C243.528 138.26 242.611 137.296 242.388 136.039C242.012 133.748 244.561 131.704 246.864 132.08C247.992 132.362 249.01 132.973 249.79 133.835C250.57 134.697 251.077 135.77 251.246 136.92C251.338 137.834 251.54 138.733 251.846 139.599C252.715 141.396 254.936 141.949 256.78 142.689C258.625 143.429 260.54 145.285 259.776 147.13C259.412 147.929 258.601 148.692 258.871 149.48C259.142 150.267 260.246 150.525 260.246 151.312C260.246 151.829 259.682 152.193 259.189 152.393C257.955 152.898 256.604 153.075 255.405 153.65C254.786 153.889 254.25 154.303 253.862 154.841C253.474 155.379 253.251 156.019 253.22 156.681C253.361 158.561 255.57 159.454 256.639 161.017C257.708 162.579 257.508 164.459 258.143 166.151C258.898 167.639 259.85 169.018 260.974 170.251C264.076 174.481 264.816 179.932 266.332 184.949C267.001 187.216 268.235 189.742 270.561 190.177C271.854 190.279 273.149 190.027 274.309 189.449C277.657 188.121 281.147 186.688 283.485 183.974C285.823 181.26 286.633 176.807 284.213 174.128C283.933 173.74 283.511 173.478 283.038 173.4C282.406 173.437 281.796 173.648 281.276 174.011C280.383 174.329 279.417 174.388 278.492 174.18C277.567 173.972 276.719 173.506 276.048 172.836C274.719 171.486 273.665 169.889 272.946 168.136L270.174 162.544C270.787 162.15 271.515 161.974 272.241 162.042C272.968 162.11 273.65 162.419 274.18 162.92C275.206 163.947 276.123 165.077 276.917 166.292C279.702 169.816 284.295 171.309 288.736 171.837C289.874 171.897 290.995 172.13 292.061 172.53C295.386 174.046 296.338 178.933 299.839 179.979C300.846 180.141 301.843 180.365 302.823 180.649C303.476 181.058 304.035 181.6 304.464 182.24C304.893 182.88 305.183 183.602 305.314 184.361C306.078 187.122 306.336 190.024 307.499 192.644C308.662 195.264 311.024 197.637 313.832 197.684C314.711 197.672 315.58 197.485 316.387 197.134C317.193 196.783 317.922 196.275 318.531 195.64C318.672 193.055 318.848 190.377 318.848 187.757C318.801 187.299 318.801 186.758 318.766 186.218Z" fill="black"/>
</g>
<g opacity="0.3">
<path d="M270.857 235.35C269.094 235.691 268.742 236.737 267.778 238.041C266.533 239.733 264.747 241.436 263.608 243.116C261.693 245.959 263.42 250.4 260.894 252.797C260.326 253.215 259.781 253.662 259.261 254.136C258.803 254.769 258.611 255.556 258.726 256.328C258.84 257.101 259.251 257.798 259.872 258.272C260.523 258.707 261.285 258.947 262.068 258.961C262.851 258.976 263.622 258.765 264.289 258.354C265.609 257.489 266.569 256.174 266.991 254.653C267.16 253.541 267.632 252.497 268.354 251.634C269.811 250.365 272.055 251.305 273.97 251.035C282.053 249.895 278.575 233.823 270.857 235.35Z" fill="black"/>
</g>
<g opacity="0.3">
<path d="M273.606 212.994C278.305 208.952 280.161 199.823 274.357 197.72C272.16 196.921 269.658 197.568 267.449 196.722C264.606 195.617 263.278 192.433 262.256 189.555C259.554 182.028 256.856 174.493 254.161 166.95C252.54 162.416 250.073 157.152 245.303 156.482C242.589 156.106 239.969 157.399 237.279 157.881C228.032 159.572 212.477 137.179 205.44 152.253C204.453 148.153 197.803 149.692 195.676 153.334C193.55 156.976 193.092 161.781 189.72 164.307C187.147 166.234 183.376 166.351 181.284 168.783C179.804 170.499 179.546 172.907 179.358 175.163C179.005 179.475 178.653 183.775 178.288 188.086C178.006 191.552 177.771 195.265 179.463 198.296C181.155 201.327 185.678 202.995 188.251 200.646C189.426 199.565 189.931 197.932 190.895 196.651C191.696 195.633 192.775 194.87 194.001 194.453C195.227 194.036 196.548 193.983 197.803 194.301C199.871 195.014 201.696 196.297 203.066 198.002C215.109 210.926 219.421 229.43 219.949 247.112C220.055 250.354 220.055 253.679 221.242 256.687C222.64 260.212 225.577 263.078 226.446 266.767C227.116 269.611 226.446 272.724 227.703 275.379C229.947 280.255 237.431 280.455 241.508 276.965C245.585 273.476 246.995 267.837 247.829 262.526C248.663 257.216 249.18 251.635 252.152 247.171C253.997 244.386 256.699 242.166 258.027 239.099C259.824 234.811 258.497 229.7 260.165 225.377C262.374 219.596 268.93 217.035 273.606 212.994Z" fill="black"/>
</g>
<path d="M123.929 415.516C117.486 416.04 111.036 414.574 105.452 411.316C99.8678 408.058 95.4183 403.164 92.7043 397.296C89.9904 391.428 89.1428 384.869 90.2761 378.504C91.4094 372.139 94.4689 366.275 99.0414 361.704C103.614 357.134 109.479 354.076 115.845 352.946C122.21 351.815 128.769 352.665 134.636 355.382C140.503 358.098 145.395 362.549 148.651 368.135C151.907 373.72 153.37 380.17 152.843 386.614C152.226 394.075 148.981 401.075 143.686 406.367C138.391 411.66 131.39 414.902 123.929 415.516Z" fill="#FAFAFA"/>
<path d="M123.928 415.517L124.434 415.423L125.926 415.212C126.717 415.096 127.502 414.935 128.275 414.73C129.355 414.487 130.418 414.177 131.459 413.802C138.172 411.439 143.895 406.887 147.708 400.879C148.967 398.919 150.007 396.827 150.809 394.64C151.212 393.484 151.553 392.307 151.831 391.115C151.961 390.493 152.113 389.882 152.219 389.247C152.325 388.613 152.384 387.967 152.466 387.309C152.549 386.654 152.584 385.995 152.572 385.335C152.572 384.677 152.572 384.007 152.572 383.326C152.501 381.987 152.384 380.612 152.196 379.238C152.055 378.544 151.925 377.863 151.785 377.17C151.702 376.829 151.655 376.477 151.561 376.136L151.232 375.114C151.021 374.432 150.798 373.739 150.574 373.046L149.693 371.049L149.247 370.038C149.082 369.709 148.883 369.392 148.695 369.063L147.52 367.125L146.18 365.292L145.511 364.364L144.735 363.506C142.677 361.136 140.268 359.096 137.592 357.455L135.501 356.281C134.784 355.916 134.032 355.623 133.292 355.282C132.916 355.129 132.552 354.941 132.117 354.8L130.942 354.436C130.172 354.161 129.387 353.925 128.593 353.731C125.325 352.977 121.965 352.704 118.618 352.92C112.224 353.481 106.152 355.978 101.213 360.077C96.2742 364.176 92.7021 369.684 90.9733 375.866C90.2366 378.636 89.8731 381.493 89.8924 384.36C89.8645 385.051 89.8959 385.742 89.9864 386.428L90.1626 388.472C90.4094 389.788 90.6326 391.115 90.9733 392.373C92.2766 397.067 94.6401 401.4 97.8815 405.038C100.568 408.026 103.787 410.488 107.374 412.298L109.724 413.344C110.476 413.673 111.252 413.861 111.968 414.119C113.285 414.547 114.632 414.877 115.998 415.106C117.89 415.439 119.81 415.592 121.731 415.564H123.74H123.235L121.731 415.635C119.802 415.709 117.869 415.591 115.963 415.283C114.581 415.071 113.218 414.753 111.886 414.331C111.158 414.096 110.37 413.908 109.607 413.579L107.257 412.545C103.208 410.56 99.6236 407.744 96.7369 404.28C93.8501 400.817 91.726 396.783 90.5033 392.443C90.1509 391.162 89.9276 389.823 89.6574 388.484L89.4812 386.416C89.3933 385.719 89.3579 385.016 89.3755 384.313C89.3054 379.703 90.2512 375.134 92.1456 370.931C94.0401 366.728 96.8367 362.994 100.337 359.993C105.494 355.511 111.949 352.794 118.759 352.239C122.169 352.012 125.594 352.294 128.922 353.073C129.736 353.271 130.54 353.51 131.33 353.79L132.505 354.166C132.904 354.307 133.269 354.495 133.68 354.659C134.432 355 135.195 355.305 135.936 355.681L138.05 356.856C140.779 358.537 143.236 360.625 145.334 363.048L146.11 363.917L146.803 364.857L148.154 366.725C148.53 367.395 148.918 368.053 149.329 368.711C149.505 369.04 149.717 369.357 149.881 369.698L150.339 370.731C150.633 371.413 150.927 372.094 151.232 372.776C151.538 373.457 151.667 374.174 151.89 374.867L152.219 375.913C152.313 376.253 152.372 376.618 152.442 376.97L152.865 379.073C153.042 380.471 153.159 381.869 153.23 383.232C153.23 383.925 153.23 384.607 153.171 385.276C153.173 385.948 153.134 386.619 153.053 387.285C152.959 387.943 152.877 388.601 152.795 389.247C152.713 389.894 152.525 390.516 152.395 391.139C152.105 392.362 151.752 393.57 151.338 394.758C150.505 396.972 149.438 399.091 148.154 401.078C145.94 404.499 143.097 407.469 139.777 409.831C137.272 411.594 134.526 412.987 131.624 413.967C130.566 414.327 129.487 414.622 128.393 414.848C127.619 415.037 126.834 415.178 126.043 415.271L124.551 415.423C124.348 415.478 124.139 415.509 123.928 415.517Z" fill="#263238"/>
<path d="M328.095 201.173C328.047 198.852 328.133 196.529 328.353 194.218C328.369 191.895 328.534 189.576 328.847 187.274C329.144 189.589 329.184 191.93 328.964 194.253C328.944 196.586 328.652 198.908 328.095 201.173Z" fill="#263238"/>
<path d="M322.152 228.313C322.598 226.037 323.178 223.789 323.891 221.581C324.418 219.32 325.077 217.092 325.865 214.908C325.673 217.233 325.212 219.528 324.49 221.746C323.958 224.015 323.174 226.218 322.152 228.313Z" fill="#263238"/>
<path d="M310.475 253.549C311.398 251.421 312.453 249.353 313.635 247.357C314.633 245.264 315.755 243.231 316.995 241.271C315.417 245.654 313.222 249.788 310.475 253.549Z" fill="#263238"/>
<path d="M293.65 275.615C295.011 273.736 296.486 271.943 298.068 270.246C299.487 268.408 301.021 266.661 302.662 265.018C301.504 267.043 300.117 268.927 298.526 270.633C297.096 272.475 295.46 274.146 293.65 275.615Z" fill="#263238"/>
<path d="M272.49 293.613C274.213 292.06 276.034 290.62 277.942 289.301C279.73 287.816 281.605 286.439 283.557 285.178C281.993 286.909 280.235 288.454 278.318 289.783C276.521 291.269 274.567 292.553 272.49 293.613Z" fill="#263238"/>
<path d="M247.947 306.641C249.97 305.502 252.061 304.489 254.209 303.61C256.272 302.541 258.399 301.599 260.577 300.79C258.672 302.137 256.623 303.268 254.468 304.162C252.395 305.233 250.208 306.064 247.947 306.641Z" fill="#263238"/>
<path d="M221.184 314.055C223.405 313.386 225.665 312.852 227.951 312.458C230.194 311.853 232.474 311.394 234.777 311.083C230.412 312.72 225.834 313.721 221.184 314.055Z" fill="#263238"/>
<path d="M193.469 315.547C195.779 315.307 198.107 315.268 200.424 315.43C202.741 315.268 205.069 315.307 207.379 315.547C202.766 316.205 198.082 316.205 193.469 315.547Z" fill="#263238"/>
<path d="M166.012 311.118C168.313 311.435 170.593 311.894 172.838 312.493C175.123 312.892 177.382 313.426 179.605 314.091C177.276 314.022 174.962 313.687 172.708 313.092C170.409 312.687 168.163 312.025 166.012 311.118Z" fill="#263238"/>
<path d="M140.213 300.79C142.387 301.6 144.509 302.542 146.569 303.61C148.719 304.486 150.81 305.499 152.831 306.641C148.37 305.285 144.122 303.307 140.213 300.767V300.79Z" fill="#263238"/>
<path d="M117.242 285.188C119.189 286.448 121.06 287.821 122.846 289.301C124.754 290.619 126.575 292.059 128.298 293.612C126.203 292.563 124.233 291.282 122.423 289.794C120.528 288.46 118.79 286.915 117.242 285.188Z" fill="#263238"/>
<path d="M98.1309 265.018C99.7641 266.668 101.298 268.414 102.725 270.246C104.303 271.946 105.778 273.739 107.142 275.615C105.331 274.152 103.695 272.484 102.266 270.645C100.677 268.934 99.2897 267.045 98.1309 265.018Z" fill="#263238"/>
<path d="M83.7812 241.226C85.0317 243.186 86.1578 245.222 87.1531 247.323C88.3307 249.333 89.3861 251.413 90.3135 253.55C88.8624 251.738 87.6209 249.767 86.6127 247.676C85.4308 245.638 84.481 243.475 83.7812 241.226Z" fill="#263238"/>
<path d="M74.9258 214.908C75.7128 217.091 76.3679 219.32 76.8878 221.581C77.6075 223.788 78.1921 226.036 78.6384 228.313C77.6069 226.221 76.8185 224.018 76.2886 221.746C75.5701 219.527 75.1127 217.233 74.9258 214.908Z" fill="#263238"/>
<path d="M71.942 187.286C72.2482 189.588 72.413 191.907 72.4354 194.23C72.6624 196.541 72.7448 198.864 72.6821 201.185C72.1419 198.917 71.8543 196.596 71.8245 194.265C71.5979 191.942 71.6373 189.6 71.942 187.286Z" fill="#263238"/>
<path d="M74.9139 159.666C74.725 161.98 74.3915 164.279 73.9153 166.551C73.6494 168.858 73.2374 171.145 72.6817 173.4C72.629 171.069 72.8418 168.74 73.3161 166.457C73.5924 164.14 74.1284 161.863 74.9139 159.666Z" fill="#263238"/>
<path d="M83.7846 133.336C83.0995 135.555 82.2755 137.729 81.3174 139.845C80.5556 142.035 79.661 144.178 78.6387 146.259C79.082 143.968 79.7917 141.736 80.7534 139.61C81.5236 137.411 82.5405 135.306 83.7846 133.336Z" fill="#263238"/>
<path d="M98.1273 109.546C96.9674 111.556 95.6925 113.498 94.309 115.361C93.0939 117.336 91.7599 119.235 90.3145 121.048C91.256 118.911 92.4386 116.889 93.8391 115.021C95.0585 113.041 96.497 111.204 98.1273 109.546Z" fill="#263238"/>
<path d="M117.233 89.3857C115.674 91.1081 114.015 92.7362 112.263 94.2615C110.655 95.937 108.94 97.5068 107.129 98.9609C108.499 97.0799 110.076 95.3578 111.828 93.8268C113.453 92.1436 115.267 90.6534 117.233 89.3857Z" fill="#263238"/>
<path d="M140.212 73.7949C138.328 75.1424 136.366 76.3782 134.338 77.4958C132.403 78.7876 130.395 79.9645 128.322 81.0204C130.059 79.4644 131.971 78.116 134.02 77.0023C135.955 75.7011 138.033 74.625 140.212 73.7949Z" fill="#263238"/>
<path d="M166 63.4912C163.867 64.4013 161.682 65.1859 159.456 65.8409C157.293 66.6717 155.08 67.3662 152.83 67.9205C154.864 66.7879 157.02 65.8893 159.257 65.2418C161.43 64.4008 163.693 63.8134 166 63.4912Z" fill="#263238"/>
<path d="M193.471 59.0148C191.188 59.4439 188.881 59.7342 186.563 59.8842C184.271 60.2321 181.96 60.4401 179.643 60.5069C184.159 59.3619 188.814 58.8596 193.471 59.0148Z" fill="#263238"/>
<path d="M221.172 60.5067C218.851 60.4329 216.536 60.221 214.24 59.8723C211.922 59.7283 209.615 59.4419 207.332 59.0146C209.66 58.8323 212.002 58.919 214.311 59.2731C216.638 59.4158 218.941 59.8298 221.172 60.5067Z" fill="#263238"/>
<path d="M247.95 67.9215C245.699 67.3539 243.486 66.6476 241.323 65.8068C239.092 65.1591 236.902 64.3744 234.768 63.457C237.074 63.786 239.336 64.3732 241.511 65.2076C243.755 65.8616 245.915 66.7723 247.95 67.9215Z" fill="#263238"/>
<path d="M272.478 80.949C270.402 79.8992 268.393 78.722 266.462 77.4244C264.431 76.3148 262.47 75.0828 260.588 73.7354C262.773 74.5482 264.859 75.6085 266.803 76.8958C268.845 78.022 270.75 79.3822 272.478 80.949Z" fill="#263238"/>
<path d="M293.639 98.9365C291.834 97.4758 290.119 95.9064 288.505 94.237C286.754 92.7194 285.098 91.095 283.547 89.373C285.501 90.6377 287.307 92.1197 288.928 93.7905C290.687 95.3226 292.268 97.0489 293.639 98.9365Z" fill="#263238"/>
<path d="M310.473 121.036C309.017 119.229 307.679 117.33 306.467 115.35C305.071 113.474 303.796 111.512 302.648 109.476C304.294 111.129 305.745 112.966 306.972 114.95C308.365 116.841 309.539 118.882 310.473 121.036Z" fill="#263238"/>
<path d="M322.152 146.25C321.126 144.164 320.228 142.018 319.461 139.823C318.515 137.707 317.691 135.537 316.994 133.326C318.245 135.294 319.266 137.399 320.037 139.6C320.988 141.731 321.697 143.961 322.152 146.25Z" fill="#263238"/>
<path d="M328.097 173.377C327.568 171.119 327.176 168.832 326.922 166.527C326.445 164.256 326.112 161.956 325.924 159.643C326.71 161.84 327.25 164.117 327.533 166.433C327.989 168.718 328.178 171.048 328.097 173.377Z" fill="#263238"/>
<path d="M132.953 354.588C132.8 354.518 137.488 343.873 143.433 330.809C149.378 317.744 154.312 307.206 154.465 307.311C154.617 307.417 149.93 318.026 143.985 331.091C138.04 344.155 133.106 354.659 132.953 354.588Z" fill="#263238"/>
<path d="M124.293 384.572C125.784 383.917 127.049 382.839 127.93 381.47C128.812 380.102 129.271 378.504 129.251 376.877C129.314 375.816 129.16 374.755 128.799 373.756C128.438 372.757 127.876 371.843 127.15 371.069C126.423 370.294 125.546 369.676 124.573 369.252C123.599 368.828 122.549 368.606 121.488 368.602C120.426 368.597 119.374 368.809 118.396 369.224C117.419 369.639 116.537 370.25 115.803 371.017C115.069 371.785 114.5 372.695 114.13 373.69C113.759 374.685 113.596 375.745 113.649 376.806C113.619 378.446 114.075 380.059 114.96 381.441C115.844 382.822 117.117 383.912 118.619 384.572C106.612 386.381 107.152 399.434 107.152 399.434L135.56 399.563C135.56 399.563 136.207 386.369 124.293 384.572Z" fill="#115766"/>
<path d="M358.915 336.319C353.04 339.025 346.476 339.862 340.11 338.717C333.743 337.573 327.882 334.502 323.317 329.919C318.752 325.336 315.704 319.463 314.584 313.092C313.465 306.721 314.328 300.161 317.056 294.296C319.785 288.431 324.248 283.546 329.843 280.299C335.437 277.052 341.893 275.601 348.339 276.142C354.785 276.682 360.909 279.188 365.885 283.321C370.861 287.454 374.448 293.014 376.162 299.252C378.139 306.472 377.491 314.159 374.333 320.946C371.175 327.734 365.712 333.181 358.915 336.319Z" fill="#FAFAFA"/>
<path d="M358.913 336.318C359.046 336.211 359.192 336.12 359.348 336.048L360.675 335.343C361.39 334.957 362.084 334.533 362.755 334.074C363.688 333.473 364.583 332.814 365.433 332.1C367.77 330.166 369.826 327.916 371.543 325.415C375.104 320.117 377.017 313.883 377.041 307.499C377.024 306.257 376.938 305.018 376.783 303.786C376.689 303.163 376.63 302.529 376.512 301.895C376.395 301.26 376.219 300.637 376.066 300.003C375.923 299.36 375.734 298.728 375.502 298.111L374.856 296.208C374.327 294.963 373.74 293.717 373.093 292.484L372.001 290.686C371.813 290.393 371.637 290.087 371.437 289.793L370.779 288.947C370.344 288.372 369.898 287.773 369.451 287.232L367.936 285.658L367.172 284.859C366.902 284.6 366.608 284.377 366.326 284.131L364.611 282.697L362.731 281.428L361.768 280.794L360.757 280.253C358.005 278.741 355.037 277.66 351.958 277.046L349.608 276.635C348.809 276.541 347.987 276.517 347.188 276.447L346.013 276.376H344.838C344.015 276.435 343.193 276.376 342.371 276.529C339.046 276.933 335.799 277.828 332.737 279.184C326.888 281.878 322.004 286.297 318.74 291.848C315.476 297.399 313.989 303.816 314.479 310.236C314.738 313.092 315.374 315.901 316.371 318.589C316.588 319.247 316.855 319.887 317.17 320.504L318.027 322.349C318.732 323.524 319.378 324.699 320.13 325.744C322.966 329.707 326.677 332.964 330.974 335.261C334.52 337.158 338.389 338.374 342.382 338.844L344.932 339.02C345.754 339.02 346.553 339.02 347.282 339.02C348.669 338.968 350.051 338.819 351.417 338.574C353.328 338.217 355.201 337.678 357.01 336.964L358.419 336.447C358.577 336.376 358.743 336.325 358.913 336.295C358.913 336.295 358.76 336.377 358.443 336.506L357.057 337.082C355.269 337.82 353.411 338.375 351.511 338.738C350.148 339.029 348.766 339.221 347.376 339.314C346.6 339.314 345.801 339.432 345.026 339.385L342.429 339.22C337.948 338.745 333.617 337.329 329.72 335.065C325.823 332.802 322.447 329.742 319.813 326.085C319.038 325.004 318.38 323.818 317.663 322.643L316.782 320.763C316.46 320.138 316.185 319.49 315.96 318.824C314.936 316.092 314.28 313.235 314.009 310.33C313.491 303.808 314.977 297.282 318.269 291.628C321.561 285.973 326.503 281.459 332.431 278.691C335.561 277.319 338.874 276.409 342.265 275.989C343.087 275.859 343.933 275.895 344.767 275.836H346.013C346.436 275.836 346.847 275.836 347.258 275.906C348.081 275.965 348.915 275.989 349.725 276.094L352.146 276.517C355.281 277.16 358.3 278.278 361.098 279.83L362.132 280.383L363.095 281.029L365.01 282.333L366.761 283.802C367.043 284.048 367.348 284.283 367.619 284.542L368.394 285.352L369.933 286.962L371.284 288.712L371.942 289.57C372.154 289.864 372.33 290.181 372.518 290.487L373.634 292.319C374.28 293.576 374.868 294.845 375.396 296.102C375.619 296.76 375.831 297.407 376.054 298.041C376.285 298.67 376.474 299.314 376.618 299.968C376.771 300.626 376.912 301.26 377.053 301.906C377.194 302.552 377.241 303.187 377.323 303.821C377.48 305.069 377.562 306.324 377.57 307.581C377.551 309.953 377.275 312.317 376.747 314.63C375.13 321.605 371.19 327.823 365.574 332.265C364.711 332.972 363.8 333.62 362.849 334.203C362.169 334.639 361.463 335.031 360.734 335.378L359.383 336.036L358.913 336.318Z" fill="#263238"/>
<path d="M348.644 306.853C350.131 306.194 351.394 305.115 352.275 303.747C353.156 302.38 353.617 300.784 353.602 299.157C353.665 298.097 353.512 297.035 353.151 296.037C352.791 295.038 352.23 294.123 351.504 293.348C350.778 292.573 349.902 291.954 348.929 291.53C347.956 291.105 346.906 290.883 345.844 290.877C344.782 290.871 343.73 291.082 342.753 291.497C341.775 291.912 340.892 292.521 340.158 293.288C339.424 294.056 338.854 294.964 338.483 295.959C338.112 296.954 337.947 298.014 337.999 299.075C337.964 300.718 338.418 302.334 339.303 303.719C340.187 305.104 341.464 306.194 342.969 306.853C330.927 308.662 331.502 321.691 331.502 321.691L359.899 321.82C359.899 321.82 360.545 308.65 348.644 306.853Z" fill="#46B2C8"/>
<path d="M320.731 288.337C320.625 288.466 315.503 284.589 309.288 279.666C303.073 274.743 298.126 270.643 298.232 270.514C298.338 270.385 303.46 274.262 309.664 279.184C315.867 284.107 320.837 288.207 320.731 288.337Z" fill="#263238"/>
<path d="M55.446 85.4367C49.0027 85.9613 42.5535 84.4959 36.9695 81.2382C31.3856 77.9806 26.936 73.0878 24.2215 67.2206C21.5071 61.3534 20.6587 54.7944 21.7908 48.4296C22.923 42.0649 25.9812 36.2009 30.5525 31.6296C35.1237 27.0584 40.9877 24.0002 47.3525 22.868C53.7173 21.7358 60.2762 22.5842 66.1434 25.2987C72.0106 28.0131 76.9035 32.4628 80.1611 38.0467C83.4187 43.6306 84.8842 50.0798 84.3596 56.5232C83.7425 63.9852 80.4981 70.9864 75.2037 76.2808C69.9092 81.5753 62.9081 84.8197 55.446 85.4367Z" fill="#FAFAFA"/>
<path d="M55.4456 85.4372C55.6105 85.3896 55.7797 85.3581 55.9507 85.3432L57.4428 85.1199C58.2356 85.0102 59.0205 84.8493 59.7926 84.6382C60.8735 84.4008 61.9372 84.0907 62.9765 83.7101C67.4109 82.1396 71.4443 79.6101 74.7891 76.3019C78.1338 72.9938 80.7074 68.9884 82.3265 64.5715C82.7358 63.4176 83.0771 62.2407 83.3487 61.0469C83.4779 60.4359 83.6424 59.872 83.7364 59.1788L83.9831 57.252C84.0636 56.5972 84.1028 55.938 84.1006 55.2783V53.2692C84.0301 51.9181 83.9126 50.5435 83.7364 49.1689L83.3135 47.1012C83.243 46.7605 83.1842 46.408 83.0902 46.0673L82.7613 45.0452C82.5498 44.3637 82.3266 43.6823 82.1033 42.9891L81.2927 40.8979L80.8462 39.8875C80.6817 39.5585 80.482 39.2413 80.3058 38.9241L79.1309 36.9738C78.6845 36.3746 78.2498 35.7989 77.8033 35.141L77.1219 34.2129L76.3465 33.367C74.2888 30.9934 71.8798 28.9489 69.2033 27.3046L67.112 26.1298C66.3953 25.7656 65.6434 25.4601 64.9033 25.1311C64.5273 24.9666 64.1631 24.7904 63.7284 24.6494L62.5535 24.2735C61.7664 24.0502 61.0027 23.733 60.2038 23.5686C56.9395 22.818 53.583 22.5488 50.2409 22.7696C43.6509 23.3553 37.4119 25.998 32.4064 30.324C27.7415 34.3894 24.3613 39.7251 22.6785 45.6796C21.9419 48.4543 21.5784 51.3149 21.5976 54.1856C21.5761 54.8763 21.6075 55.5676 21.6916 56.2534L21.8678 58.2859C22.1263 59.6135 22.3378 60.9294 22.6785 62.1865C23.9814 66.8838 26.3493 71.2177 29.5984 74.8516C32.2822 77.8427 35.5019 80.3053 39.0914 82.1123L41.4411 83.1697C42.193 83.4986 42.9684 83.6866 43.6851 83.9333C45.0029 84.3617 46.3496 84.6954 47.7149 84.932C49.6081 85.2588 51.5272 85.4121 53.4483 85.3902H54.9521C55.12 85.372 55.2894 85.372 55.4573 85.3902C55.2893 85.4059 55.1201 85.4059 54.9521 85.3902L53.4483 85.4606C50.1169 85.5934 46.7872 85.1563 43.6029 84.1683C42.8745 83.9216 42.0873 83.7336 41.3236 83.4164L38.9739 82.3707C34.9239 80.3909 31.3378 77.5777 28.4507 74.1155C25.5635 70.6534 23.4403 66.6203 22.2203 62.2805C21.8678 60.9999 21.6446 59.6605 21.3861 58.3094L21.1981 56.2417C21.1099 55.5443 21.0745 54.8413 21.0924 54.1386C21.0676 51.2211 21.4311 48.3133 22.1733 45.4916C23.9222 39.1787 27.5615 33.5524 32.6021 29.3687C37.6427 25.185 43.8431 22.6444 50.3701 22.0882C53.7758 21.8636 57.1959 22.1407 60.521 22.9106C61.3551 23.0751 62.1306 23.3923 62.8707 23.6273L64.0456 24.0033C64.4333 24.156 64.8093 24.3322 65.2205 24.4967C65.9724 24.8374 66.7478 25.1546 67.4762 25.5188L69.5675 26.7994C72.2929 28.476 74.7455 30.5601 76.8399 32.9793L77.6271 33.8487L78.3085 34.7886L79.6596 36.6683C80.0473 37.3263 80.4233 37.9959 80.8345 38.6421C81.0225 38.9828 81.2222 39.3 81.3867 39.629L81.8449 40.6629L82.7378 42.7072C82.961 43.4121 83.1842 44.117 83.3957 44.8102L83.7246 45.8441C83.8186 46.1965 83.8774 46.549 83.9479 46.9015L84.3708 49.0045C84.5471 50.4026 84.6645 51.8006 84.735 53.1752C84.735 53.8567 84.735 54.5381 84.735 55.2195C84.7432 55.8872 84.704 56.5547 84.6176 57.2168C84.5353 57.8747 84.4413 58.5326 84.3591 59.1788C84.2768 59.825 84.0889 60.4477 83.9596 61.0821C83.671 62.3061 83.3181 63.5139 82.9022 64.7007C82.0745 66.9174 81.0068 69.0369 79.7183 71.0215C77.4971 74.4622 74.6329 77.4421 71.2828 79.7978C68.7542 81.567 65.9846 82.9637 63.0587 83.9451C62.0032 84.3094 60.9236 84.5999 59.8278 84.8145C59.0373 85.0182 58.232 85.1596 57.4193 85.2374L55.9272 85.4019C55.768 85.4272 55.6068 85.439 55.4456 85.4372Z" fill="#263238"/>
<path d="M55.5593 54.3709C57.046 53.7112 58.3073 52.6313 59.1882 51.2641C60.0691 49.8969 60.5311 48.3019 60.5173 46.6755C60.5938 45.6066 60.45 44.5334 60.0946 43.5223C59.7393 42.5113 59.1801 41.584 58.4517 40.798C57.7232 40.012 56.8411 39.384 55.86 38.9529C54.8788 38.5218 53.8196 38.2969 52.748 38.2921C51.6763 38.2872 50.6151 38.5026 49.6301 38.9248C48.6451 39.3469 47.7573 39.967 47.0218 40.7464C46.2863 41.5258 45.7188 42.448 45.3543 43.4558C44.9899 44.4636 44.8364 45.5355 44.9033 46.605C44.8735 48.2453 45.3294 49.8577 46.2137 51.2395C47.098 52.6213 48.3711 53.7108 49.873 54.3709C37.8658 56.1802 38.418 69.233 38.418 69.233L66.8146 69.3623C66.8146 69.3623 67.496 56.145 55.5593 54.3709Z" fill="#81DD6A"/>
<path d="M104.344 101.992C104.227 102.121 97.2951 96.6226 88.9535 89.7144C80.6119 82.8062 73.8447 77.0963 73.9504 76.9671C74.0562 76.8378 80.9409 82.3362 89.3412 89.2445C97.7415 96.1527 104.45 101.874 104.344 101.992Z" fill="#263238"/>
<path d="M260.518 46.7723C255.869 47.1536 251.215 46.0987 247.185 43.75C243.155 41.4013 239.943 37.8721 237.983 33.6393C236.024 29.4065 235.41 24.6741 236.226 20.0816C237.043 15.489 239.249 11.2577 242.547 7.95944C245.846 4.66114 250.077 2.45482 254.669 1.6386C259.262 0.82239 263.994 1.43563 268.227 3.39546C272.46 5.35528 275.989 8.56723 278.338 12.5973C280.687 16.6273 281.741 21.2812 281.36 25.9301C280.914 31.3087 278.575 36.3548 274.759 40.1711C270.943 43.9873 265.897 46.3264 260.518 46.7723Z" fill="#FAFAFA"/>
<path d="M260.519 46.7724C260.637 46.7335 260.759 46.7098 260.883 46.7019L261.952 46.5257C262.531 46.4453 263.104 46.3276 263.667 46.1732C264.442 46.0295 265.208 45.8373 265.958 45.5975C269.144 44.454 272.04 42.6265 274.443 40.2436C276.846 37.8606 278.698 34.9801 279.869 31.8046C280.466 30.0863 280.861 28.3041 281.044 26.4942C281.455 22.4919 280.777 18.4528 279.082 14.8042C278.634 13.8343 278.128 12.8926 277.566 11.9845L276.603 10.6687L276.121 9.99899L275.569 9.38806C274.085 7.68579 272.349 6.21992 270.423 5.04105C268.43 3.82003 266.263 2.90891 263.996 2.33885C261.649 1.79311 259.234 1.5991 256.83 1.76316C252.652 2.10247 248.652 3.60218 245.28 6.09322C241.909 8.58426 239.301 11.9676 237.75 15.8617C236.198 19.7557 235.766 24.0058 236.501 28.1326C237.235 32.2594 239.109 36.0988 241.909 39.218C243.828 41.3564 246.126 43.1211 248.688 44.4227L250.368 45.1863C250.92 45.4213 251.472 45.5505 251.989 45.7385C252.937 46.0495 253.907 46.2891 254.891 46.4552C256.252 46.6979 257.632 46.8159 259.015 46.8076H260.096H260.472H260.108H259.015C256.612 46.9069 254.209 46.6011 251.907 45.903C251.378 45.7268 250.814 45.5975 250.25 45.3625L248.535 44.6106C245.875 43.3208 243.483 41.5388 241.486 39.359C239.08 36.7084 237.322 33.5351 236.352 30.0893C235.459 26.8225 235.296 23.3994 235.874 20.0626C236.452 16.7258 237.757 13.557 239.697 10.781C241.637 8.00499 244.163 5.68968 247.098 3.99927C250.032 2.30885 253.302 1.28472 256.677 0.999499C259.145 0.837453 261.623 1.03934 264.032 1.59868C266.405 2.20024 268.669 3.1716 270.74 4.47711C272.711 5.69379 274.486 7.20312 276.004 8.95336L276.567 9.58779L277.073 10.2692L278.048 11.6321C278.622 12.5637 279.14 13.5288 279.599 14.5222C282.101 20.0023 282.355 26.2456 280.304 31.9103C279.121 35.1445 277.224 38.0704 274.755 40.4706C272.286 42.8708 269.307 44.6834 266.041 45.7738C265.272 46.0346 264.487 46.2465 263.691 46.4082C263.118 46.5413 262.537 46.6394 261.952 46.7019L260.871 46.8076C260.753 46.8138 260.634 46.8019 260.519 46.7724Z" fill="#263238"/>
<path d="M260.777 24.4498C261.842 23.9705 262.743 23.19 263.369 22.2046C263.996 21.2191 264.32 20.0719 264.302 18.9044C264.355 18.1352 264.251 17.3631 263.994 16.6359C263.737 15.9087 263.334 15.2419 262.81 14.6766C262.285 14.1114 261.651 13.6597 260.945 13.3495C260.239 13.0393 259.477 12.8771 258.706 12.8731C257.934 12.8691 257.171 13.0233 256.461 13.3261C255.752 13.6289 255.113 14.0739 254.582 14.6337C254.052 15.1935 253.642 15.8561 253.378 16.5805C253.114 17.305 253.001 18.0759 253.047 18.8457C253.027 20.0363 253.363 21.2056 254.012 22.2041C254.66 23.2025 255.593 23.9844 256.689 24.4498C248.03 25.7539 248.465 35.1646 248.465 35.1646L268.943 35.2704C268.943 35.2704 269.365 25.7892 260.777 24.4498Z" fill="#023A59"/>
<path d="M252.682 46.0801C251.544 49.4907 250.21 52.8329 248.687 56.09C247.348 59.429 245.818 62.6888 244.105 65.8531C245.258 62.4447 246.6 59.1029 248.124 55.8432C249.464 52.5084 250.986 49.2492 252.682 46.0801Z" fill="#263238"/>
<path d="M370.781 177.946C364.811 178.433 358.836 177.077 353.662 174.06C348.489 171.043 344.365 166.511 341.85 161.075C339.334 155.64 338.548 149.564 339.596 143.667C340.645 137.77 343.478 132.338 347.713 128.103C351.948 123.868 357.381 121.034 363.277 119.986C369.174 118.937 375.25 119.724 380.686 122.24C386.121 124.755 390.653 128.878 393.67 134.052C396.687 139.226 398.044 145.201 397.556 151.17C396.984 158.08 393.98 164.564 389.077 169.467C384.174 174.369 377.691 177.374 370.781 177.946Z" fill="#FAFAFA"/>
<path d="M31.8295 264.313C25.8602 264.8 19.885 263.444 14.7112 260.427C9.53744 257.41 5.41431 252.878 2.89881 247.443C0.383307 242.007 -0.40334 235.931 0.645158 230.034C1.69366 224.138 4.52676 218.705 8.76175 214.47C12.9967 210.235 18.4295 207.402 24.3262 206.353C30.2229 205.305 36.2993 206.091 41.7346 208.607C47.1699 211.122 51.7022 215.245 54.7191 220.419C57.7361 225.593 59.0924 231.568 58.6047 237.537C58.0331 244.448 55.0286 250.931 50.1257 255.834C45.2228 260.737 38.7396 263.741 31.8295 264.313Z" fill="#FAFAFA"/>
<path d="M370.78 177.947C370.93 177.904 371.083 177.872 371.238 177.853L372.613 177.653C373.362 177.553 374.104 177.404 374.833 177.207C375.833 176.982 376.818 176.696 377.782 176.349C380.43 175.405 382.934 174.097 385.219 172.46C388.58 170.074 391.39 166.994 393.46 163.429C395.529 159.864 396.81 155.897 397.215 151.794C397.749 146.643 396.881 141.442 394.701 136.744L394.278 135.804C394.125 135.499 393.949 135.205 393.772 134.911L392.738 133.114L391.505 131.363L390.882 130.506L390.166 129.719C388.26 127.519 386.025 125.628 383.539 124.114C380.997 122.52 378.223 121.331 375.315 120.59C372.294 119.89 369.187 119.636 366.092 119.838C360.173 120.355 354.552 122.666 349.98 126.461C345.408 130.257 342.102 135.356 340.504 141.08C339.819 143.643 339.479 146.286 339.493 148.939C339.472 149.579 339.503 150.22 339.587 150.854C339.587 151.489 339.693 152.112 339.74 152.734C339.987 153.909 340.175 155.19 340.492 156.353C341.694 160.71 343.885 164.73 346.895 168.102C349.379 170.87 352.36 173.15 355.683 174.822L357.845 175.797C358.55 176.102 359.266 176.279 359.924 176.514C361.147 176.907 362.395 177.213 363.66 177.43C365.413 177.74 367.191 177.885 368.971 177.865H370.357L368.971 177.923C367.183 178.001 365.392 177.895 363.625 177.606C362.345 177.407 361.081 177.116 359.842 176.737C359.172 176.502 358.444 176.337 357.739 176.032L355.53 175.08C352.149 173.41 349.112 171.118 346.578 168.325C343.497 164.927 341.245 160.861 339.999 156.447C339.681 155.272 339.47 154.027 339.223 152.769C339.164 152.147 339.106 151.501 339.047 150.854C338.974 150.207 338.943 149.556 338.953 148.904C338.936 146.201 339.272 143.508 339.952 140.892C341.571 135.046 344.939 129.836 349.602 125.957C354.266 122.079 360.003 119.719 366.045 119.192C369.199 118.986 372.366 119.243 375.444 119.955C378.423 120.693 381.272 121.881 383.892 123.48C386.42 125.034 388.695 126.968 390.636 129.213L391.364 130.024L391.998 130.893L393.255 132.632C393.608 133.243 393.96 133.866 394.313 134.465C394.477 134.77 394.665 135.076 394.818 135.381L395.241 136.345C397.455 141.137 398.324 146.441 397.755 151.689C397.148 157.27 394.954 162.56 391.433 166.932C387.912 171.305 383.211 174.577 377.888 176.361C376.914 176.703 375.917 176.974 374.904 177.172C374.17 177.352 373.424 177.482 372.672 177.559L371.285 177.712L370.78 177.947Z" fill="#263238"/>
<path d="M31.8291 264.313C31.9791 264.27 32.1323 264.239 32.2872 264.219L33.6618 264.019C34.411 263.92 35.1528 263.77 35.8823 263.573C36.8821 263.348 37.8669 263.062 38.8313 262.715C41.4792 261.772 43.9824 260.463 46.2682 258.826C49.6292 256.44 52.4393 253.36 54.5086 249.795C56.5779 246.23 57.8584 242.263 58.2636 238.161C58.7982 233.009 57.9294 227.809 55.7494 223.11L55.3264 222.171C55.1737 221.865 54.9974 221.571 54.8212 221.278L53.7873 219.48L52.5537 217.73L51.931 216.872L51.2144 216.085C49.3093 213.885 47.0738 211.994 44.5881 210.481C42.0462 208.886 39.2716 207.697 36.364 206.956C33.3431 206.256 30.2358 206.003 27.1413 206.204C21.2217 206.721 15.6007 209.032 11.0285 212.827C6.45642 216.623 3.15069 221.722 1.55265 227.446C0.867799 230.009 0.528023 232.652 0.542281 235.306C0.520531 235.945 0.551953 236.586 0.636255 237.221C0.636255 237.855 0.741999 238.478 0.788993 239.1C1.03572 240.275 1.22371 241.556 1.54093 242.719C2.74295 247.076 4.93413 251.096 7.94394 254.468C10.4283 257.237 13.4089 259.516 16.732 261.188L18.8937 262.163C19.5987 262.469 20.3153 262.645 20.9732 262.88C22.1955 263.273 23.4439 263.579 24.7093 263.796C26.4621 264.106 28.2399 264.251 30.0197 264.231H31.4061L30.0197 264.29C28.2317 264.367 26.4404 264.261 24.6741 263.972C23.394 263.773 22.1297 263.482 20.891 263.103C20.2213 262.868 19.4929 262.704 18.788 262.398L16.5792 261.446C13.1978 259.776 10.1608 257.484 7.62674 254.691C4.54589 251.293 2.29395 247.227 1.04747 242.813C0.730251 241.638 0.518771 240.393 0.272048 239.136C0.213305 238.513 0.154568 237.867 0.0958248 237.221C0.0232165 236.573 -0.0081967 235.922 0.00181522 235.27C-0.0153318 232.567 0.32039 229.874 1.00046 227.258C2.62021 221.413 5.98737 216.202 10.6509 212.324C15.3145 208.445 21.0518 206.085 27.0943 205.558C30.2478 205.352 33.4144 205.609 36.4933 206.322C39.4723 207.059 42.3209 208.248 44.9406 209.846C47.4689 211.401 49.7433 213.334 51.6843 215.58L52.4127 216.39L53.0472 217.26L54.3043 218.998C54.6567 219.609 55.0092 220.232 55.3617 220.831C55.5262 221.137 55.7141 221.442 55.8669 221.748L56.2898 222.711C58.504 227.503 59.3731 232.807 58.804 238.055C58.1967 243.636 56.0026 248.926 52.4816 253.299C48.9606 257.671 44.2601 260.943 38.937 262.727C37.9631 263.069 36.9658 263.34 35.9528 263.538C35.2186 263.719 34.4728 263.848 33.7206 263.925L32.3342 264.078L31.8291 264.313Z" fill="#263238"/>
<path d="M371.109 149.279C372.49 148.673 373.663 147.673 374.479 146.405C375.296 145.137 375.722 143.656 375.703 142.148C375.764 141.165 375.623 140.18 375.29 139.253C374.956 138.326 374.437 137.477 373.764 136.758C373.091 136.038 372.279 135.464 371.376 135.07C370.473 134.676 369.5 134.47 368.515 134.465C367.53 134.46 366.554 134.656 365.648 135.042C364.741 135.427 363.923 135.994 363.243 136.706C362.563 137.419 362.036 138.263 361.694 139.187C361.351 140.11 361.201 141.094 361.252 142.077C361.222 143.599 361.643 145.095 362.463 146.377C363.283 147.659 364.464 148.669 365.858 149.279C354.732 150.959 355.284 163.049 355.284 163.049L381.589 163.166C381.589 163.166 382.141 150.948 371.109 149.279Z" fill="#FF5454"/>
<path d="M32.1581 235.646C33.5393 235.039 34.7114 234.039 35.5283 232.771C36.3452 231.503 36.7707 230.023 36.7518 228.514C36.8125 227.531 36.6719 226.546 36.3386 225.619C36.0052 224.692 35.4862 223.843 34.8133 223.124C34.1403 222.405 33.3276 221.83 32.425 221.436C31.5223 221.042 30.5487 220.836 29.5637 220.831C28.5787 220.826 27.6031 221.023 26.6967 221.408C25.7902 221.793 24.972 222.36 24.292 223.073C23.6121 223.785 23.0848 224.629 22.7425 225.553C22.4001 226.476 22.2498 227.46 22.3009 228.444C22.2706 229.965 22.6919 231.461 23.5117 232.743C24.3314 234.025 25.5128 235.035 26.9064 235.646C15.7804 237.326 16.3326 249.415 16.3326 249.415L42.6379 249.533C42.6379 249.533 43.1901 237.314 32.1581 235.646Z" fill="#FF993C"/>
<path d="M340.023 155.964C337.737 156.871 335.379 157.582 332.973 158.09C330.635 158.799 328.242 159.314 325.818 159.629C328.104 158.723 330.462 158.011 332.868 157.503C335.206 156.794 337.599 156.28 340.023 155.964Z" fill="#263238"/>
<path d="M71.8487 221.96C69.5633 222.867 67.2051 223.578 64.7995 224.086C62.4608 224.795 60.0677 225.31 57.6445 225.626C59.9299 224.719 62.2881 224.007 64.6937 223.499C67.0324 222.79 69.4255 222.276 71.8487 221.96Z" fill="#263238"/>
</svg>
