<svg width="598" height="598" viewBox="0 0 598 598" fill="none" xmlns="http://www.w3.org/2000/svg">
<path d="M576.616 348.658C576.616 348.658 580.515 196.945 491.126 125.759C412.19 62.9334 301.608 51.4877 225.159 126.477C197.927 153.207 182.379 199.014 148.615 217.887C110.69 239.056 59.7168 252.703 32.4719 321.413C5.227 390.123 31.6825 468.33 88.5045 503.014C145.326 537.698 225.889 481.737 304.072 465.818C382.254 449.899 564.883 537.004 576.616 348.658Z" fill="#46B2C8"/>
<path opacity="0.7" d="M576.616 348.658C576.616 348.658 580.515 196.945 491.126 125.759C412.19 62.9334 301.608 51.4877 225.159 126.477C197.927 153.207 182.379 199.014 148.615 217.887C110.69 239.056 59.7168 252.703 32.4719 321.413C5.227 390.123 31.6825 468.33 88.5045 503.014C145.326 537.698 225.889 481.737 304.072 465.818C382.254 449.899 564.883 537.004 576.616 348.658Z" fill="white"/>
<path d="M45.4717 539.552H550.232" stroke="#023A59" stroke-linecap="round" stroke-linejoin="round"/>
<path d="M67.2746 453.989C70.157 455.185 77.1894 455.066 77.1894 455.066C77.1894 455.066 75.6705 450.473 75.539 450.186C73.9842 446.969 69.1045 441.635 65.1338 442.185C64.4759 442.298 63.849 442.547 63.2934 442.917C62.7377 443.287 62.2656 443.769 61.9074 444.332C61.5492 444.896 61.3128 445.528 61.2135 446.188C61.1141 446.848 61.154 447.521 61.3305 448.165C62.0002 450.892 64.8228 452.925 67.2746 453.989Z" fill="#3B802A"/>
<path d="M69.7265 474.358C72.7165 474.788 78.9836 472.958 79.4859 472.815C80.5258 476.404 81.8044 479.921 83.3131 483.34C84.1742 485.337 85.1071 487.322 86.0758 489.32C85.5018 488.482 84.9755 487.741 84.8798 487.645C82.4878 484.942 76.4241 481.103 72.7285 482.67C72.1299 482.954 71.5968 483.359 71.163 483.86C70.7292 484.361 70.4042 484.946 70.2086 485.579C70.0129 486.212 69.9509 486.879 70.0265 487.538C70.102 488.196 70.3135 488.831 70.6474 489.403C72.0109 491.891 75.276 493.111 77.9191 493.494C80.5623 493.876 85.9802 492.417 87.4034 492.023C87.7742 492.776 88.1449 493.53 88.5276 494.283C90.3455 497.871 92.1874 501.459 93.8737 505.047C94.4717 506.303 95.0698 507.571 95.5601 508.838C95.0458 508.097 94.6153 507.475 94.5316 507.379C92.1396 504.688 86.0758 500.837 82.3802 502.416C81.7816 502.7 81.2485 503.105 80.8147 503.606C80.381 504.107 80.056 504.692 79.8603 505.325C79.6647 505.958 79.6026 506.625 79.6782 507.283C79.7537 507.942 79.9652 508.577 80.2992 509.149C81.6626 511.625 84.9277 512.845 87.5708 513.228C90.214 513.61 95.1056 512.307 96.792 511.828C97.3182 513.144 97.8445 514.46 98.287 515.751C98.5621 516.648 98.9089 517.485 99.1362 518.394L99.8896 521.062C100.296 522.772 100.739 524.53 101.086 526.216C101.349 527.412 101.576 528.501 101.803 529.625C101.229 528.357 100.033 525.905 99.9136 525.714C98.0119 522.688 92.5342 517.952 88.6592 518.957C88.0239 519.146 87.4349 519.465 86.9294 519.894C86.424 520.323 86.0132 520.852 85.723 521.448C85.4329 522.044 85.2698 522.693 85.2441 523.356C85.2183 524.018 85.3305 524.679 85.5735 525.295C86.5423 527.95 89.5801 529.649 92.1396 530.426C94.9621 531.287 101.181 530.498 101.959 530.426C102.341 532.28 102.688 534.098 102.987 535.82C103.215 537.088 103.418 538.308 103.609 539.48H106.109C105.87 538.164 105.607 536.801 105.319 535.378C104.949 533.488 104.506 531.467 104.04 529.398C105.913 528.64 107.741 527.778 109.517 526.814C111.575 529.027 116.825 531.598 117.507 531.945C116.801 533.715 116.083 535.414 115.39 537.016C115.031 537.865 114.672 538.655 114.313 539.408H116.957L117.578 537.901C118.308 536.119 119.062 534.194 119.803 532.208C120.557 532.376 126.728 533.608 129.598 532.962C132.206 532.364 135.363 530.893 136.523 528.309C136.811 527.711 136.971 527.058 136.994 526.394C137.016 525.73 136.899 525.069 136.652 524.452C136.404 523.836 136.031 523.277 135.556 522.813C135.081 522.349 134.514 521.988 133.892 521.755C130.101 520.487 124.324 524.817 122.183 527.735C122.063 527.903 120.915 529.9 120.21 531.168C120.509 530.354 120.808 529.577 121.107 528.776C121.717 527.113 122.303 525.451 122.865 523.657L123.654 521.002C123.941 520.129 124.121 519.16 124.372 518.227C124.874 516.062 125.293 513.838 125.663 511.589C127.111 512.115 132.277 513.897 134.956 513.706C137.635 513.515 140.936 512.51 142.503 510.118C142.879 509.57 143.136 508.95 143.259 508.297C143.382 507.645 143.368 506.973 143.217 506.327C143.066 505.68 142.782 505.071 142.384 504.54C141.985 504.009 141.48 503.566 140.9 503.241C137.312 501.411 130.962 504.808 128.426 507.331C128.271 507.487 126.656 509.508 125.795 510.632C126.01 509.281 126.226 507.929 126.393 506.554C126.883 502.583 127.242 498.541 127.589 494.522C127.709 493.326 127.84 492.059 127.96 490.827C128.474 491.018 134.574 493.278 137.528 493.063C140.195 492.872 143.508 491.867 145.075 489.475C145.45 488.927 145.708 488.307 145.831 487.655C145.954 487.002 145.939 486.33 145.788 485.684C145.638 485.037 145.354 484.428 144.955 483.897C144.556 483.366 144.051 482.923 143.472 482.598C139.884 480.768 133.533 484.165 130.998 486.688C130.806 486.88 128.486 489.786 127.936 490.552C128.223 487.849 128.522 485.158 128.94 482.502C129.468 478.928 130.231 475.392 131.225 471.918C131.464 472.014 137.827 474.406 140.9 474.178C143.568 473.987 146.88 472.982 148.447 470.59C148.823 470.043 149.08 469.422 149.203 468.77C149.326 468.117 149.312 467.446 149.161 466.799C149.01 466.152 148.727 465.543 148.328 465.012C147.929 464.481 147.424 464.039 146.845 463.713C143.257 461.883 136.906 465.28 134.37 467.804C134.167 468.007 131.679 471.129 131.261 471.727C131.321 471.535 131.368 471.32 131.428 471.117C132.519 467.659 133.916 464.304 135.602 461.094C136.511 459.312 137.48 457.662 138.461 456.071C139.597 456.633 144.823 459.169 147.61 459.276C150.397 459.384 153.722 458.762 155.504 456.573C155.937 456.07 156.26 455.482 156.454 454.847C156.648 454.212 156.707 453.544 156.628 452.885C156.55 452.225 156.334 451.59 155.997 451.018C155.659 450.447 155.206 449.952 154.666 449.565C151.33 447.352 144.608 450.031 141.821 452.268C141.666 452.387 140.255 453.798 139.25 454.827C139.704 454.121 140.159 453.38 140.601 452.71C142.276 450.187 143.962 447.926 145.469 446.024C146.342 444.924 147.144 443.943 147.861 443.046C149.272 443.046 154.942 442.831 157.429 441.671C159.917 440.511 162.608 438.406 163.182 435.631C163.333 434.986 163.348 434.316 163.227 433.665C163.105 433.013 162.85 432.394 162.477 431.846C162.103 431.299 161.62 430.835 161.058 430.484C160.496 430.132 159.867 429.902 159.211 429.807C155.229 429.376 150.504 434.842 149.057 438.179C148.926 438.466 147.478 443.106 147.55 443.106H147.634C146.88 443.967 146.079 444.888 145.242 445.917C143.687 447.842 141.953 450.019 140.219 452.519C138.315 455.203 136.573 457.998 135.004 460.891C133.225 464.1 131.736 467.463 130.555 470.937V471.069C130.555 469.873 130.555 466.608 130.483 466.356C130.017 462.768 127.039 456.226 123.092 455.509C122.435 455.413 121.766 455.455 121.127 455.632C120.487 455.809 119.892 456.117 119.378 456.537C118.864 456.956 118.442 457.478 118.141 458.069C117.839 458.66 117.664 459.307 117.626 459.97C117.399 462.792 119.456 465.615 121.454 467.385C123.702 469.394 129.945 471.332 130.435 471.487C129.322 475.053 128.447 478.689 127.816 482.371C127.434 484.512 127.123 486.688 126.836 488.865C126.836 487.849 126.836 486.94 126.836 486.82C126.369 483.232 123.391 476.69 119.444 475.96C118.788 475.866 118.119 475.91 117.48 476.089C116.841 476.267 116.246 476.577 115.733 476.997C115.221 477.418 114.801 477.941 114.501 478.532C114.201 479.124 114.027 479.771 113.99 480.433C113.763 483.256 115.808 486.067 117.806 487.849C119.803 489.631 125.113 491.437 126.525 491.855C126.417 492.692 126.309 493.53 126.214 494.367C125.735 498.385 125.281 502.404 124.707 506.327C124.515 507.714 124.264 509.066 124.025 510.429C124.025 509.52 124.025 508.767 124.025 508.647C123.57 505.059 120.58 498.517 116.646 497.799C115.988 497.711 115.319 497.76 114.681 497.944C114.044 498.128 113.451 498.442 112.942 498.867C112.432 499.292 112.017 499.819 111.721 500.413C111.426 501.008 111.258 501.657 111.228 502.32C111 505.143 113.046 507.965 115.043 509.735C117.04 511.505 121.848 513.132 123.511 513.658C123.224 515.046 122.937 516.433 122.59 517.761C122.339 518.658 122.147 519.543 121.848 520.428C121.549 521.313 121.274 522.198 120.999 523.071C120.401 524.721 119.803 526.432 119.169 528.034C118.739 529.146 118.308 530.199 117.889 531.263C118.093 529.9 118.464 527.197 118.464 526.97C118.423 523.82 117.571 520.735 115.988 518.012C116 517.659 115.976 517.307 115.916 516.959C115.832 516.29 115.608 515.645 115.258 515.068C114.907 514.491 114.439 513.995 113.883 513.612C113.327 513.229 112.697 512.968 112.033 512.846C111.369 512.724 110.687 512.744 110.032 512.905C106.157 513.933 103.717 520.739 103.537 524.315C103.537 524.518 103.669 526.826 103.777 528.273C103.585 527.436 103.406 526.611 103.191 525.75C102.784 524.04 102.318 522.341 101.839 520.511C101.576 519.638 101.301 518.753 101.026 517.868C100.751 516.983 100.404 516.062 100.093 515.153C99.3275 513.06 98.4425 510.979 97.5096 508.898C99.0046 508.539 104.303 507.176 106.432 505.537C108.561 503.899 110.797 501.244 110.773 498.421C110.785 497.757 110.658 497.097 110.401 496.484C110.143 495.871 109.761 495.319 109.278 494.862C108.796 494.405 108.223 494.054 107.597 493.831C106.971 493.608 106.305 493.517 105.642 493.565C101.66 494.008 98.2152 500.359 97.4976 503.863C97.4976 504.09 97.2225 506.662 97.1149 508.073C96.5528 506.877 95.9189 505.585 95.3687 504.341C93.5747 500.753 91.6612 497.165 89.7595 493.577L88.0612 490.36C88.5994 490.229 94.9382 488.746 97.3182 486.916C99.4352 485.289 101.684 482.622 101.66 479.74C101.671 479.075 101.545 478.415 101.287 477.803C101.03 477.19 100.648 476.638 100.165 476.181C99.6821 475.724 99.1095 475.373 98.4834 475.149C97.8574 474.926 97.1918 474.836 96.5289 474.884C92.5462 475.326 89.1017 481.677 88.3841 485.182C88.3243 485.445 88.0014 489.152 87.9655 490.097C86.6978 487.705 85.4659 485.313 84.3775 482.837C82.853 479.561 81.5427 476.189 80.4546 472.743C80.7058 472.683 87.3197 471.164 89.7595 469.287C91.8764 467.66 94.1249 464.993 94.101 462.111C94.1127 461.446 93.9858 460.786 93.7285 460.174C93.4711 459.561 93.0888 459.008 92.6061 458.552C92.1234 458.095 91.5507 457.743 90.9247 457.52C90.2987 457.297 89.633 457.207 88.9702 457.255C84.9875 457.697 81.543 464.048 80.8254 467.552C80.8254 467.828 80.4188 471.81 80.4068 472.54C80.4068 472.336 80.2513 472.133 80.1915 471.942C79.2026 468.452 78.5222 464.882 78.1583 461.273C77.9311 459.288 77.8234 457.375 77.7636 455.509C78.9596 455.353 84.7841 454.576 87.1642 453.117C89.5442 451.658 91.9482 449.325 92.2592 446.515C92.3426 445.856 92.288 445.187 92.0988 444.551C91.9096 443.914 91.59 443.324 91.1602 442.818C90.7304 442.311 90.2 441.9 89.6026 441.61C89.0053 441.32 88.354 441.157 87.6904 441.133C83.6838 441.133 79.5696 447.113 78.4693 450.474C78.4693 450.653 78.0028 452.602 77.7397 454.062C77.7397 453.224 77.7397 452.351 77.7397 451.55C77.7397 448.512 77.9311 445.737 78.1224 443.286C78.2301 441.886 78.3616 440.631 78.5052 439.458C79.7012 438.657 84.2938 435.38 85.6812 433.036C87.0685 430.692 88.2047 427.463 87.1522 424.831C86.9204 424.207 86.5606 423.637 86.0959 423.16C85.6312 422.682 85.0718 422.307 84.4536 422.058C83.8355 421.809 83.1721 421.692 82.5062 421.715C81.8402 421.737 81.1862 421.898 80.5862 422.188C76.9982 424.03 76.1131 431.206 76.6992 434.734C76.6992 435.033 78.0985 439.71 78.1703 439.674C78.0148 440.798 77.8713 442.066 77.7277 443.345C77.4886 445.797 77.2374 448.584 77.1656 451.622C77.0635 454.897 77.1474 458.175 77.4168 461.441C77.709 465.104 78.3254 468.734 79.2586 472.289V472.408C78.6247 471.428 76.771 468.713 76.6035 468.521C74.2115 465.818 68.1358 461.979 64.4522 463.546C63.8509 463.829 63.3151 464.234 62.879 464.735C62.4428 465.236 62.1159 465.823 61.919 466.457C61.7221 467.092 61.6595 467.761 61.7353 468.421C61.8111 469.081 62.0236 469.718 62.3592 470.291C63.8183 472.755 67.0834 473.975 69.7265 474.358Z" fill="#3B802A"/>
<path d="M138.413 455.425C138.413 455.425 139.693 450.748 139.729 450.449C140.219 446.861 139.083 439.769 135.471 438.035C134.863 437.77 134.207 437.634 133.544 437.636C132.881 437.638 132.225 437.778 131.619 438.046C131.013 438.315 130.469 438.707 130.023 439.197C129.576 439.687 129.236 440.265 129.025 440.893C128.056 443.56 129.288 446.813 130.747 449.062C132.457 451.693 138.413 455.425 138.413 455.425Z" fill="#3B802A"/>
<path d="M451.645 453.989C454.516 455.185 461.548 455.066 461.56 455.066C461.572 455.066 460.041 450.473 459.91 450.186C458.355 446.969 453.463 441.635 449.492 442.185C448.836 442.299 448.21 442.55 447.656 442.92C447.102 443.291 446.631 443.773 446.274 444.336C445.917 444.899 445.682 445.531 445.583 446.19C445.484 446.849 445.525 447.522 445.701 448.165C446.359 450.892 449.193 452.925 451.645 453.989Z" fill="#3B802A"/>
<path d="M454.097 474.358C457.087 474.788 463.354 472.958 463.856 472.815C464.892 476.404 466.166 479.92 467.671 483.34C468.544 485.337 469.477 487.322 470.434 489.32C469.86 488.482 469.346 487.741 469.238 487.645C466.846 484.942 460.77 481.103 457.087 482.67C456.487 482.953 455.953 483.357 455.518 483.858C455.083 484.358 454.757 484.943 454.56 485.576C454.363 486.209 454.3 486.877 454.375 487.535C454.449 488.194 454.66 488.83 454.994 489.403C456.357 491.891 459.622 493.111 462.265 493.494C464.909 493.876 470.338 492.417 471.75 492.022C472.132 492.776 472.503 493.529 472.874 494.283C474.704 497.871 476.534 501.459 478.232 505.047C478.83 506.303 479.368 507.57 479.918 508.838L478.89 507.379C476.498 504.688 470.422 500.837 466.738 502.416C466.139 502.699 465.605 503.103 465.17 503.603C464.734 504.104 464.408 504.689 464.211 505.322C464.015 505.955 463.952 506.623 464.026 507.281C464.101 507.94 464.312 508.576 464.645 509.149C466.009 511.625 469.274 512.845 471.917 513.228C474.56 513.61 479.464 512.307 481.15 511.828C481.664 513.144 482.191 514.459 482.633 515.751C482.92 516.648 483.255 517.485 483.494 518.394C483.734 519.303 483.997 520.176 484.236 521.061C484.655 522.772 485.085 524.53 485.432 526.216C485.683 527.412 485.91 528.5 486.15 529.625C485.563 528.357 484.379 525.905 484.26 525.714C482.346 522.688 476.88 517.952 473.005 518.956C472.369 519.144 471.779 519.462 471.272 519.891C470.765 520.319 470.353 520.848 470.062 521.444C469.77 522.04 469.606 522.69 469.58 523.353C469.553 524.016 469.665 524.678 469.908 525.295C470.889 527.95 473.926 529.649 476.486 530.426C479.296 531.287 485.528 530.498 486.305 530.426C486.688 532.28 487.035 534.098 487.334 535.82C487.561 537.088 487.764 538.308 487.955 539.48H490.443C490.204 538.164 489.953 536.801 489.666 535.377C489.295 533.488 488.852 531.467 488.386 529.397C490.259 528.64 492.088 527.777 493.864 526.814C495.909 529.027 501.171 531.598 501.853 531.945C501.135 533.715 500.43 535.413 499.736 537.016C499.365 537.865 499.007 538.655 498.66 539.408H501.291L501.925 537.901C502.654 536.119 503.396 534.193 504.149 532.208C504.903 532.376 511.074 533.607 513.945 532.962C516.552 532.364 519.709 530.892 520.869 528.309C521.158 527.71 521.318 527.058 521.34 526.394C521.362 525.73 521.246 525.069 520.998 524.452C520.751 523.836 520.377 523.277 519.902 522.813C519.427 522.349 518.86 521.988 518.238 521.755C514.435 520.487 508.67 524.817 506.529 527.735C506.398 527.902 505.25 529.9 504.544 531.168C504.843 530.354 505.154 529.577 505.453 528.776C506.051 527.113 506.649 525.451 507.211 523.657C507.474 522.78 507.737 521.895 508 521.002C508.275 520.128 508.467 519.16 508.706 518.227C509.22 516.062 509.639 513.838 510.01 511.589C511.457 512.115 516.624 513.897 519.303 513.706C521.982 513.515 525.283 512.51 526.849 510.118C527.225 509.57 527.483 508.95 527.606 508.297C527.728 507.645 527.714 506.973 527.563 506.326C527.413 505.679 527.129 505.071 526.73 504.54C526.331 504.009 525.826 503.566 525.247 503.241C521.659 501.411 515.308 504.808 512.772 507.331C512.617 507.487 511.002 509.508 510.141 510.632C510.345 509.281 510.56 507.929 510.727 506.554C511.218 502.583 511.588 498.541 511.923 494.522C512.043 493.326 512.174 492.058 512.306 490.826C512.82 491.018 518.92 493.278 521.874 493.063C524.541 492.872 527.854 491.867 529.421 489.475C529.796 488.927 530.054 488.307 530.177 487.654C530.3 487.002 530.285 486.33 530.135 485.683C529.984 485.036 529.7 484.428 529.301 483.897C528.902 483.366 528.397 482.923 527.818 482.598C524.23 480.768 517.879 484.165 515.344 486.688C515.153 486.88 512.832 489.786 512.282 490.551C512.557 487.848 512.868 485.157 513.275 482.502C513.812 478.928 514.579 475.393 515.571 471.918C515.81 472.013 522.173 474.405 525.235 474.178C527.902 473.987 531.215 472.982 532.794 470.59C533.169 470.042 533.427 469.422 533.55 468.77C533.673 468.117 533.658 467.445 533.507 466.799C533.357 466.152 533.073 465.543 532.674 465.012C532.275 464.481 531.77 464.038 531.191 463.713C527.603 461.883 521.24 465.28 518.705 467.803C518.513 468.007 516.026 471.128 515.607 471.726C515.607 471.535 515.703 471.32 515.762 471.116C516.858 467.658 518.258 464.304 519.948 461.094C520.857 459.312 521.826 457.661 522.795 456.071C523.991 456.633 529.17 459.168 531.956 459.276C534.743 459.384 538.056 458.762 539.85 456.573C540.283 456.07 540.607 455.482 540.8 454.847C540.994 454.212 541.053 453.544 540.975 452.884C540.896 452.225 540.681 451.59 540.343 451.018C540.005 450.446 539.552 449.951 539.013 449.564C535.664 447.352 528.954 450.031 526.156 452.267C526.012 452.387 524.601 453.798 523.584 454.827C524.039 454.121 524.493 453.38 524.948 452.71C526.61 450.186 528.308 447.926 529.815 446.024C530.677 444.924 531.49 443.943 532.207 443.046C533.607 443.046 539.276 442.831 541.775 441.671C544.275 440.511 546.966 438.406 547.54 435.631C547.691 434.986 547.707 434.316 547.585 433.665C547.464 433.013 547.208 432.394 546.835 431.846C546.462 431.299 545.979 430.834 545.416 430.483C544.854 430.132 544.225 429.902 543.569 429.807C539.587 429.376 534.863 434.842 533.403 438.179C533.284 438.466 531.825 443.106 531.897 443.106H532.219C531.466 443.967 530.665 444.888 529.827 445.917C528.273 447.842 526.526 450.019 524.792 452.519C522.896 455.205 521.159 458.001 519.59 460.891C517.81 464.1 516.321 467.462 515.141 470.937C515.135 470.981 515.135 471.025 515.141 471.069C515.141 469.873 515.141 466.607 515.069 466.356C514.602 462.768 511.612 456.226 507.678 455.509C507.021 455.413 506.352 455.455 505.712 455.632C505.073 455.809 504.477 456.117 503.963 456.536C503.449 456.956 503.028 457.478 502.726 458.069C502.425 458.66 502.25 459.307 502.212 459.97C501.985 462.792 504.03 465.615 506.027 467.385C508.276 469.394 514.519 471.332 515.021 471.487C513.901 475.051 513.026 478.688 512.402 482.371C512.019 484.512 511.708 486.688 511.421 488.865C511.421 487.848 511.421 486.939 511.421 486.82C510.955 483.232 507.976 476.69 504.03 475.96C503.372 475.865 502.702 475.907 502.062 476.085C501.421 476.262 500.825 476.571 500.311 476.992C499.797 477.413 499.376 477.936 499.075 478.529C498.774 479.121 498.6 479.77 498.564 480.433C498.337 483.256 500.394 486.066 502.379 487.848C504.365 489.63 509.699 491.436 511.098 491.855C511.002 492.692 510.895 493.529 510.787 494.367C510.321 498.385 509.866 502.404 509.292 506.327C509.089 507.714 508.85 509.065 508.598 510.429C508.598 509.52 508.598 508.766 508.598 508.647C508.132 505.059 505.154 498.517 501.207 497.799C500.551 497.704 499.881 497.745 499.242 497.922C498.602 498.099 498.007 498.407 497.493 498.827C496.979 499.247 496.557 499.768 496.256 500.359C495.954 500.951 495.779 501.598 495.741 502.26C495.526 505.083 497.571 507.905 499.569 509.675C501.566 511.446 506.362 513.072 508.036 513.598C507.737 514.986 507.45 516.373 507.115 517.701C506.852 518.598 506.673 519.483 506.362 520.368C506.051 521.253 505.8 522.138 505.525 523.011C504.915 524.661 504.329 526.372 503.683 527.974C503.264 529.087 502.834 530.139 502.403 531.203C502.618 529.84 502.989 527.137 502.989 526.91C502.939 523.76 502.082 520.676 500.502 517.952C500.511 517.6 500.491 517.248 500.442 516.899C500.351 516.241 500.124 515.61 499.775 515.045C499.427 514.479 498.965 513.993 498.418 513.616C497.871 513.239 497.252 512.98 496.6 512.855C495.947 512.731 495.276 512.744 494.629 512.893C490.766 513.921 488.314 520.726 488.147 524.303C488.147 524.506 488.266 526.814 488.386 528.261C488.183 527.424 488.003 526.599 487.8 525.738C487.381 524.027 486.927 522.329 486.449 520.499C486.173 519.626 485.91 518.741 485.635 517.856C485.36 516.971 485.013 516.05 484.702 515.141C483.925 513.048 483.052 510.967 482.119 508.886C483.614 508.527 488.912 507.164 491.041 505.525C493.17 503.887 495.407 501.232 495.383 498.409C495.394 497.745 495.267 497.085 495.01 496.472C494.753 495.859 494.37 495.307 493.888 494.85C493.405 494.393 492.832 494.042 492.206 493.819C491.58 493.595 490.915 493.505 490.252 493.553C486.269 493.996 482.825 500.347 482.107 503.851C482.107 504.078 481.82 506.65 481.724 508.061C481.15 506.865 480.528 505.573 479.966 504.329C478.184 500.741 476.271 497.153 474.369 493.565C473.783 492.477 473.173 491.377 472.647 490.288C473.185 490.157 479.524 488.674 481.904 486.844C484.021 485.217 486.269 482.55 486.245 479.668C486.257 479.003 486.13 478.344 485.873 477.731C485.615 477.118 485.233 476.566 484.75 476.109C484.268 475.652 483.695 475.301 483.069 475.077C482.443 474.854 481.777 474.764 481.114 474.812C477.132 475.255 473.675 481.605 472.958 485.11C472.958 485.373 472.575 489.08 472.539 490.025C471.283 487.633 470.051 485.241 468.951 482.765C467.423 479.489 466.108 476.117 465.016 472.671C465.267 472.611 471.893 471.092 474.333 469.215C476.45 467.588 478.698 464.921 478.675 462.039C478.686 461.374 478.559 460.715 478.302 460.102C478.045 459.489 477.662 458.937 477.18 458.48C476.697 458.023 476.124 457.672 475.498 457.448C474.872 457.225 474.207 457.135 473.544 457.183C469.561 457.626 466.117 463.976 465.399 467.481C465.339 467.756 464.98 471.738 464.968 472.468C464.909 472.265 464.825 472.061 464.765 471.87C463.767 468.382 463.082 464.812 462.72 461.202C462.493 459.216 462.397 457.303 462.325 455.437C463.593 455.281 469.358 454.504 471.738 453.045C474.118 451.586 476.522 449.254 476.833 446.443C476.916 445.784 476.862 445.115 476.672 444.479C476.483 443.842 476.163 443.252 475.734 442.746C475.304 442.239 474.774 441.828 474.176 441.538C473.579 441.248 472.928 441.086 472.264 441.061C468.257 441.061 464.131 447.041 463.031 450.402C463.031 450.581 462.576 452.531 462.301 453.99C462.301 453.152 462.301 452.279 462.301 451.478C462.301 448.44 462.493 445.665 462.672 443.214C462.792 441.814 462.923 440.559 463.067 439.387C464.263 438.585 468.855 435.308 470.243 432.964C471.63 430.62 472.766 427.391 471.726 424.759C471.497 424.136 471.141 423.567 470.68 423.089C470.22 422.611 469.665 422.234 469.051 421.982C468.436 421.73 467.776 421.609 467.113 421.626C466.449 421.643 465.796 421.797 465.196 422.08C461.608 423.922 460.711 431.098 461.309 434.626C461.309 434.925 462.708 439.602 462.768 439.566H462.839C462.684 440.69 462.528 441.958 462.397 443.238C462.146 445.689 461.907 448.476 461.835 451.514C461.727 454.789 461.811 458.068 462.086 461.333C462.374 464.996 462.987 468.626 463.916 472.181V472.3C463.282 471.32 461.428 468.605 461.261 468.413C458.869 465.71 452.793 461.871 449.109 463.438C448.508 463.721 447.972 464.126 447.536 464.627C447.1 465.128 446.773 465.715 446.576 466.35C446.379 466.984 446.317 467.653 446.393 468.313C446.468 468.973 446.681 469.61 447.016 470.184C448.188 472.755 451.454 473.975 454.097 474.358Z" fill="#3B802A"/>
<path d="M522.784 455.425C522.843 455.425 524.051 450.748 524.099 450.449C524.59 446.861 523.441 439.769 519.83 438.035C519.222 437.77 518.565 437.634 517.902 437.636C517.239 437.638 516.584 437.778 515.978 438.046C515.372 438.315 514.828 438.707 514.381 439.197C513.935 439.687 513.595 440.265 513.383 440.893C512.426 443.56 513.658 446.813 515.105 449.062C516.816 451.693 522.772 455.425 522.784 455.425Z" fill="#3B802A"/>
<path d="M499.414 215.424C493.159 215.41 486.979 216.786 481.321 219.452C475.662 222.119 470.667 226.009 466.695 230.841C462.724 235.674 459.875 241.328 458.356 247.396C456.836 253.464 456.684 259.793 457.909 265.927C459.134 272.061 461.707 277.846 465.441 282.865C469.175 287.883 473.978 292.009 479.501 294.945C485.024 297.881 491.131 299.553 497.379 299.841C503.628 300.128 509.862 299.024 515.632 296.608L516.015 296.441L517.211 295.891C517.833 295.592 518.467 295.293 519.077 294.97C519.687 294.647 520.201 294.348 520.751 294.025C521.301 293.702 521.839 293.379 522.366 293.032C523.43 292.339 524.447 291.621 525.439 290.844C527.443 289.285 529.293 287.539 530.965 285.629C531.384 285.163 531.778 284.684 532.161 284.182C532.544 283.68 532.819 283.357 533.142 282.986C533.201 282.902 533.273 282.795 533.345 282.711C533.716 282.209 534.075 281.694 534.421 281.18L535.414 279.625C535.429 279.584 535.454 279.548 535.486 279.518C535.797 278.979 536.108 278.441 536.407 277.903C536.706 277.353 536.993 276.791 537.256 276.229L537.758 275.176L538.225 274.1C538.476 273.514 538.715 272.904 538.942 272.294C538.942 272.162 539.038 272.031 539.086 271.899C539.468 270.811 539.815 269.686 540.114 268.538C540.222 268.156 540.306 267.773 540.401 267.342L540.617 266.374L540.688 266.015C540.76 265.68 540.808 265.333 540.88 264.998C540.952 264.663 541.023 264.185 541.071 263.802C541.119 263.419 541.167 263.037 541.227 262.606L541.298 261.889C541.298 261.59 541.37 261.279 541.382 260.956C541.394 260.633 541.382 260.441 541.382 260.166C541.382 259.891 541.382 259.544 541.382 259.245C541.382 258.743 541.382 258.229 541.382 257.714C541.398 246.549 536.992 235.832 529.127 227.907C521.263 219.982 510.579 215.493 499.414 215.424ZM508.982 280.726C505.953 281.998 502.7 282.653 499.414 282.651C494.47 282.653 489.635 281.189 485.523 278.443C481.41 275.698 478.205 271.794 476.311 267.226C474.418 262.658 473.922 257.631 474.886 252.781C475.85 247.931 478.231 243.476 481.727 239.98C485.224 236.483 489.679 234.102 494.529 233.138C499.379 232.174 504.406 232.67 508.974 234.563C513.542 236.457 517.445 239.662 520.191 243.775C522.937 247.887 524.401 252.722 524.399 257.667C524.409 261.451 523.55 265.187 521.887 268.586C519.218 274.064 514.643 278.38 509.018 280.726H508.982Z" fill="#81DD6A" stroke="#023A59" stroke-linecap="round" stroke-linejoin="round"/>
<path d="M537.387 276.121C537.124 276.683 536.837 277.245 536.538 277.795C536.239 278.333 535.928 278.872 535.617 279.41C535.585 279.44 535.561 279.476 535.545 279.517L534.552 281.072C534.206 281.586 533.847 282.101 533.476 282.603C533.404 282.687 533.333 282.794 533.273 282.878C532.95 283.309 532.627 283.715 532.292 284.074C531.957 284.433 531.491 285.055 531.096 285.521C529.415 287.422 527.566 289.168 525.57 290.736C524.578 291.501 523.561 292.231 522.497 292.925C521.97 293.271 521.42 293.606 520.882 293.917C520.344 294.228 519.77 294.551 519.208 294.862C518.072 295.46 516.899 296.058 515.715 296.501L509.102 280.582C514.726 278.237 519.301 273.92 521.97 268.442L537.387 276.121Z" fill="white" stroke="#023A59" stroke-linecap="round" stroke-linejoin="round"/>
<path d="M541.633 257.667C541.633 258.181 541.633 258.695 541.633 259.197C541.633 259.496 541.633 259.807 541.633 260.118C541.633 260.429 541.633 260.645 541.633 260.908C541.633 261.171 541.633 261.542 541.55 261.841L541.478 262.558C541.418 262.941 541.382 263.324 541.322 263.754C541.263 264.185 541.203 264.579 541.131 264.95C541.059 265.321 541.011 265.632 540.94 265.967L540.868 266.326L540.653 267.294C540.557 267.677 540.473 268.06 540.366 268.49C540.067 269.627 539.72 270.763 539.337 271.851C539.337 271.983 539.229 272.114 539.194 272.246C538.966 272.856 538.727 273.442 538.476 274.052L538.009 275.128L537.507 276.181L521.959 268.646C523.621 265.246 524.481 261.51 524.471 257.726C524.472 254.444 523.827 251.193 522.573 248.16C521.318 245.126 519.478 242.37 517.158 240.048C514.838 237.725 512.083 235.883 509.051 234.625C506.019 233.368 502.769 232.72 499.486 232.718V215.424C510.674 215.446 521.396 219.907 529.298 227.827C537.2 235.747 541.637 246.479 541.633 257.667Z" fill="#023A59" stroke="#023A59" stroke-linecap="round" stroke-linejoin="round"/>
<path d="M509.652 317.658H530.307" stroke="#023A59" stroke-linecap="round" stroke-linejoin="round"/>
<path d="M509.652 323.662H530.307" stroke="#023A59" stroke-linecap="round" stroke-linejoin="round"/>
<path d="M530.307 329.654H509.652" stroke="#023A59" stroke-linecap="round" stroke-linejoin="round"/>
<path d="M423.982 245.958H444.637" stroke="#023A59" stroke-linecap="round" stroke-linejoin="round"/>
<path d="M423.982 251.95H444.637" stroke="#023A59" stroke-linecap="round" stroke-linejoin="round"/>
<path d="M444.637 257.954H423.982" stroke="#023A59" stroke-linecap="round" stroke-linejoin="round"/>
<path d="M523.646 284.35L536.969 297.003V330.479" stroke="#023A59" stroke-linecap="round" stroke-linejoin="round"/>
<path d="M468.091 245.994H450.33" stroke="#023A59" stroke-linecap="round" stroke-linejoin="round"/>
<path d="M473.568 139.849H460.113V180.202H473.568V139.849Z" fill="#FF5454" stroke="#023A59" stroke-linecap="round" stroke-linejoin="round"/>
<path d="M492.776 126.405H479.321V180.201H492.776V126.405Z" fill="#023A59" stroke="#023A59" stroke-linecap="round" stroke-linejoin="round"/>
<path d="M511.996 111.037H498.541V180.202H511.996V111.037Z" fill="#FF993C" stroke="#023A59" stroke-linecap="round" stroke-linejoin="round"/>
<path d="M531.203 100.142H517.748V180.202H531.203V100.142Z" fill="#023A59" stroke="#023A59" stroke-linecap="round" stroke-linejoin="round"/>
<path d="M460.747 135.376L513.06 86.3994" stroke="#023A59" stroke-width="2" stroke-linecap="round" stroke-linejoin="round"/>
<path d="M516.588 93.3837L520.953 79.0078L506.314 82.4164L516.588 93.3837Z" fill="#023A59"/>
<path d="M169.664 107.257V186.803H64.1533V107.257H77.393V110.032C77.393 110.507 77.582 110.964 77.9185 111.3C78.2549 111.637 78.7112 111.826 79.187 111.826C79.6628 111.826 80.1192 111.637 80.4556 111.3C80.792 110.964 80.981 110.507 80.981 110.032V107.257H96.2659V110.032C96.2659 110.507 96.4549 110.964 96.7914 111.3C97.1278 111.637 97.5841 111.826 98.0599 111.826C98.5357 111.826 98.992 111.637 99.3285 111.3C99.6649 110.964 99.8539 110.507 99.8539 110.032V107.257H115.127V110.032C115.127 110.507 115.316 110.964 115.652 111.3C115.989 111.637 116.445 111.826 116.921 111.826C117.397 111.826 117.853 111.637 118.189 111.3C118.526 110.964 118.715 110.507 118.715 110.032V107.257H133.952V110.032C133.952 110.507 134.141 110.964 134.477 111.3C134.814 111.637 135.27 111.826 135.746 111.826C136.222 111.826 136.678 111.637 137.014 111.3C137.351 110.964 137.54 110.507 137.54 110.032V107.257H152.849V110.032C152.849 110.507 153.038 110.964 153.374 111.3C153.711 111.637 154.167 111.826 154.643 111.826C155.118 111.826 155.575 111.637 155.911 111.3C156.248 110.964 156.437 110.507 156.437 110.032V107.257H169.664Z" fill="#46B2C8" stroke="#023A59" stroke-linecap="round" stroke-linejoin="round"/>
<path d="M87.5948 129.024H75.874V140.745H87.5948V129.024Z" fill="white" stroke="#023A59" stroke-linecap="round" stroke-linejoin="round"/>
<path d="M105.176 129.024H93.4551V140.745H105.176V129.024Z" fill="white" stroke="#023A59" stroke-linecap="round" stroke-linejoin="round"/>
<path d="M122.77 129.024H111.049V140.745H122.77V129.024Z" fill="white" stroke="#023A59" stroke-linecap="round" stroke-linejoin="round"/>
<path d="M140.351 129.024H128.63V140.745H140.351V129.024Z" fill="white" stroke="#023A59" stroke-linecap="round" stroke-linejoin="round"/>
<path d="M157.932 129.024H146.211V140.745H157.932V129.024Z" fill="#023A59" stroke="#023A59" stroke-linecap="round" stroke-linejoin="round"/>
<path d="M87.5948 148.28H75.874V160.001H87.5948V148.28Z" fill="white" stroke="#023A59" stroke-linecap="round" stroke-linejoin="round"/>
<path d="M105.176 148.28H93.4551V160.001H105.176V148.28Z" fill="white" stroke="#023A59" stroke-linecap="round" stroke-linejoin="round"/>
<path d="M122.77 148.28H111.049V160.001H122.77V148.28Z" fill="#023A59" stroke="#023A59" stroke-linecap="round" stroke-linejoin="round"/>
<path d="M140.351 148.28H128.63V160.001H140.351V148.28Z" fill="white" stroke="#023A59" stroke-linecap="round" stroke-linejoin="round"/>
<path d="M157.932 148.28H146.211V160.001H157.932V148.28Z" fill="white" stroke="#023A59" stroke-linecap="round" stroke-linejoin="round"/>
<path d="M87.5948 167.548H75.874V179.269H87.5948V167.548Z" fill="white" stroke="#023A59" stroke-linecap="round" stroke-linejoin="round"/>
<path d="M105.176 167.548H93.4551V179.269H105.176V167.548Z" fill="#023A59" stroke="#023A59" stroke-linecap="round" stroke-linejoin="round"/>
<path d="M122.77 167.548H111.049V179.269H122.77V167.548Z" fill="white" stroke="#023A59" stroke-linecap="round" stroke-linejoin="round"/>
<path d="M140.351 167.548H128.63V179.269H140.351V167.548Z" fill="white" stroke="#023A59" stroke-linecap="round" stroke-linejoin="round"/>
<path d="M157.932 167.548H146.211V179.269H157.932V167.548Z" fill="#023A59" stroke="#023A59" stroke-linecap="round" stroke-linejoin="round"/>
<path d="M80.9689 99.7823V110.032C80.9689 110.508 80.7799 110.964 80.4434 111.301C80.107 111.637 79.6507 111.826 79.1749 111.826C78.6991 111.826 78.2428 111.637 77.9063 111.301C77.5699 110.964 77.3809 110.508 77.3809 110.032V99.7823C77.3809 99.3065 77.5699 98.8502 77.9063 98.5137C78.2428 98.1773 78.6991 97.9883 79.1749 97.9883C79.6507 97.9883 80.107 98.1773 80.4434 98.5137C80.7799 98.8502 80.9689 99.3065 80.9689 99.7823Z" fill="#023A59" stroke="#023A59" stroke-linecap="round" stroke-linejoin="round"/>
<path d="M99.8302 99.7823V110.032C99.8302 110.508 99.6412 110.964 99.3047 111.301C98.9683 111.637 98.512 111.826 98.0362 111.826C97.5604 111.826 97.1041 111.637 96.7676 111.301C96.4312 110.964 96.2422 110.508 96.2422 110.032V99.7823C96.2422 99.3065 96.4312 98.8502 96.7676 98.5137C97.1041 98.1773 97.5604 97.9883 98.0362 97.9883C98.512 97.9883 98.9683 98.1773 99.3047 98.5137C99.6412 98.8502 99.8302 99.3065 99.8302 99.7823Z" fill="#023A59" stroke="#023A59" stroke-linecap="round" stroke-linejoin="round"/>
<path d="M118.691 99.7823V110.032C118.691 110.508 118.502 110.964 118.165 111.301C117.829 111.637 117.372 111.826 116.897 111.826C116.421 111.826 115.964 111.637 115.628 111.301C115.292 110.964 115.103 110.508 115.103 110.032V99.7823C115.103 99.3065 115.292 98.8502 115.628 98.5137C115.964 98.1773 116.421 97.9883 116.897 97.9883C117.372 97.9883 117.829 98.1773 118.165 98.5137C118.502 98.8502 118.691 99.3065 118.691 99.7823Z" fill="#023A59" stroke="#023A59" stroke-linecap="round" stroke-linejoin="round"/>
<path d="M137.54 99.7823V110.032C137.54 110.508 137.351 110.964 137.015 111.301C136.678 111.637 136.222 111.826 135.746 111.826C135.27 111.826 134.814 111.637 134.478 111.301C134.141 110.964 133.952 110.508 133.952 110.032V99.7823C133.952 99.5467 133.999 99.3134 134.089 99.0957C134.179 98.8781 134.311 98.6803 134.478 98.5137C134.644 98.3471 134.842 98.215 135.06 98.1248C135.277 98.0347 135.511 97.9883 135.746 97.9883C135.982 97.9883 136.215 98.0347 136.433 98.1248C136.65 98.215 136.848 98.3471 137.015 98.5137C137.181 98.6803 137.313 98.8781 137.404 99.0957C137.494 99.3134 137.54 99.5467 137.54 99.7823Z" fill="#023A59" stroke="#023A59" stroke-linecap="round" stroke-linejoin="round"/>
<path d="M156.425 99.7823V110.032C156.425 110.508 156.236 110.964 155.899 111.301C155.563 111.637 155.107 111.826 154.631 111.826C154.155 111.826 153.699 111.637 153.362 111.301C153.026 110.964 152.837 110.508 152.837 110.032V99.7823C152.837 99.3065 153.026 98.8502 153.362 98.5137C153.699 98.1773 154.155 97.9883 154.631 97.9883C155.107 97.9883 155.563 98.1773 155.899 98.5137C156.236 98.8502 156.425 99.3065 156.425 99.7823Z" fill="#023A59" stroke="#023A59" stroke-linecap="round" stroke-linejoin="round"/>
<path d="M131.428 274.327C131.426 272.45 131.291 270.575 131.022 268.718L138.018 265.608L134.514 254.844L127.183 256.399C125.356 252.745 122.981 249.393 120.138 246.46L123.965 239.822L114.816 233.137L109.805 238.698C106.176 236.812 102.28 235.493 98.2514 234.787L97.4262 227.24H86.112L85.3227 234.679C81.2845 235.28 77.3608 236.49 73.6856 238.267L68.5667 232.598L59.3695 239.2L63.1129 245.695C60.1982 248.557 57.7379 251.848 55.8173 255.454L48.3423 253.875L44.8381 264.639L51.6792 267.689C51.314 269.867 51.13 272.071 51.129 274.279C51.1329 276.151 51.2648 278.022 51.5237 279.876L44.5391 282.998L48.0433 293.762L55.3748 292.207C57.201 295.861 59.5768 299.212 62.4193 302.146L58.604 308.855L67.7773 315.517L72.7886 309.956C76.4158 311.843 80.3129 313.158 84.3419 313.855L85.1433 321.473H96.4813L97.2587 314.022C101.304 313.435 105.233 312.224 108.908 310.434L114.027 316.115L123.2 309.453L119.456 302.959C122.366 300.087 124.825 296.793 126.752 293.188L134.227 294.778L137.731 284.014L130.89 280.965C131.255 278.771 131.435 276.55 131.428 274.327ZM68.4232 274.327C68.4232 269.806 69.7636 265.387 72.275 261.629C74.7864 257.87 78.356 254.941 82.5323 253.211C86.7086 251.481 91.3041 251.028 95.7376 251.91C100.171 252.792 104.244 254.969 107.44 258.165C110.636 261.362 112.813 265.434 113.695 269.868C114.577 274.301 114.124 278.897 112.395 283.073C110.665 287.25 107.735 290.819 103.977 293.33C100.218 295.842 95.7991 297.182 91.2787 297.182C85.218 297.179 79.4065 294.77 75.1209 290.485C70.8354 286.199 68.4263 280.387 68.4232 274.327Z" fill="#023A59" stroke="#023A59" stroke-linecap="round" stroke-linejoin="round"/>
<path d="M186.23 238.124C186.226 236.924 186.142 235.725 185.978 234.536L190.428 232.551L188.191 225.697L183.527 226.678C182.365 224.351 180.853 222.217 179.042 220.351L181.434 216.129L175.597 211.896L172.404 215.484C170.099 214.281 167.622 213.442 165.06 212.996L164.546 208.212H157.37L156.88 212.996C154.304 213.381 151.803 214.159 149.465 215.304L146.211 211.716L140.375 215.95L142.767 220.088C140.912 221.908 139.347 224.002 138.126 226.295L133.342 225.291L131.118 232.024L135.471 233.962C135.241 235.345 135.125 236.745 135.124 238.148C135.129 239.348 135.212 240.547 135.376 241.736L130.938 243.709L133.163 250.574L137.827 249.594C138.994 251.927 140.511 254.069 142.324 255.944L139.932 260.166L145.769 264.4L148.962 260.812C151.272 262.014 153.752 262.854 156.318 263.3L156.82 268.143H163.996L164.486 263.359C167.062 262.975 169.563 262.196 171.901 261.051L175.155 264.639L181.003 260.405L178.611 256.267C180.467 254.448 182.032 252.355 183.252 250.06L188.036 251.065L190.272 244.2L185.919 242.262C186.135 240.893 186.239 239.509 186.23 238.124ZM146.128 238.124C146.128 235.245 146.981 232.431 148.581 230.037C150.18 227.644 152.453 225.778 155.113 224.677C157.773 223.575 160.699 223.287 163.523 223.848C166.346 224.41 168.94 225.796 170.975 227.832C173.011 229.867 174.397 232.461 174.959 235.284C175.52 238.108 175.232 241.034 174.13 243.694C173.029 246.354 171.163 248.627 168.769 250.226C166.376 251.826 163.562 252.679 160.683 252.679C156.823 252.679 153.12 251.146 150.391 248.416C147.661 245.686 146.128 241.984 146.128 238.124Z" fill="#FF993C" stroke="#023A59" stroke-linecap="round" stroke-linejoin="round"/>
<path d="M181.792 364.936C182.26 360.402 182.491 355.847 182.485 351.289C182.61 340.63 181.242 330.006 178.419 319.727L244.797 242.788C242.683 283.491 242.898 324.281 245.443 364.959L181.792 364.936Z" stroke="#023A59" stroke-linecap="round" stroke-linejoin="round"/>
<path d="M437.293 351.289C437.287 355.846 437.519 360.401 437.987 364.935H372.829C375.418 323.627 375.594 282.203 373.355 240.874L441.324 319.714C438.513 329.999 437.156 340.627 437.293 351.289Z" stroke="#023A59" stroke-linecap="round" stroke-linejoin="round"/>
<path d="M472.265 351.289C472.288 358.21 471.748 365.122 470.65 371.956H438.932C438.557 369.707 438.25 367.367 438.011 364.935C437.543 360.401 437.312 355.846 437.318 351.289C437.192 340.626 438.56 329.997 441.384 319.714C444.589 308.95 449.409 302.025 454.803 302.025C464.431 302.025 472.265 324.116 472.265 351.289Z" stroke="#023A59" stroke-linecap="round" stroke-linejoin="round"/>
<path d="M470.65 371.956C470.65 371.956 470.65 372.064 470.65 372.112C470.506 372.989 470.351 373.85 470.183 374.695C469.645 377.517 468.987 380.173 468.294 382.636H441.324C440.606 380.173 439.972 377.517 439.434 374.695C439.267 373.842 439.111 372.981 438.968 372.112C438.968 372.112 438.968 372.004 438.968 371.956H470.65Z" stroke="#023A59" stroke-linecap="round" stroke-linejoin="round"/>
<path d="M470.65 371.956C470.65 371.956 470.65 372.064 470.65 372.112C470.506 372.989 470.351 373.85 470.183 374.695C469.645 377.517 468.987 380.173 468.294 382.636H441.324C440.606 380.173 439.972 377.517 439.434 374.695C439.267 373.842 439.111 372.981 438.968 372.112C438.968 372.112 438.968 372.004 438.968 371.956H470.65Z" stroke="#023A59" stroke-linecap="round" stroke-linejoin="round"/>
<path d="M247.297 210.412C246.209 221.176 245.396 232.096 244.798 242.704C242.683 283.407 242.899 324.197 245.443 364.876C245.527 366.072 245.575 366.729 245.575 366.729H372.698C372.698 366.729 372.698 366.095 372.829 364.876C375.418 323.567 375.594 282.143 373.356 240.814C372.578 227.455 371.466 213.821 369.899 200.342C368.102 185.169 365.483 170.105 362.053 155.217M359.506 144.56C356.743 133.581 353.741 123.188 350.691 113.584H267.581C259.7 138.437 252.033 168.6 248.374 200.342M309.13 340.489C301.237 340.489 293.521 338.148 286.957 333.763C280.394 329.378 275.279 323.144 272.258 315.852C269.237 308.559 268.447 300.534 269.987 292.792C271.527 285.051 275.328 277.939 280.909 272.358C286.491 266.776 293.602 262.975 301.344 261.435C309.086 259.895 317.111 260.685 324.403 263.706C331.696 266.727 337.929 271.842 342.315 278.405C346.7 284.969 349.041 292.685 349.041 300.579C349.049 305.825 348.022 311.021 346.02 315.87C344.018 320.719 341.079 325.126 337.373 328.838C333.666 332.551 329.263 335.496 324.417 337.505C319.571 339.515 314.377 340.549 309.13 340.549V340.489ZM309.13 239.236C302.526 239.237 296.025 237.599 290.21 234.47C284.394 231.341 279.446 226.818 275.807 221.307C272.169 215.796 269.955 209.468 269.363 202.89C268.772 196.313 269.821 189.691 272.417 183.619C275.013 177.547 279.075 172.214 284.239 168.097C289.403 163.98 295.507 161.209 302.005 160.031C308.503 158.853 315.192 159.306 321.472 161.348C327.752 163.39 333.428 166.959 337.99 171.733L344.962 181.696C347.947 187.788 349.332 194.539 348.986 201.314C348.64 208.089 346.576 214.664 342.986 220.42C339.397 226.177 334.401 230.924 328.469 234.216C322.538 237.508 315.866 239.235 309.083 239.236H309.13Z" stroke="#023A59" stroke-linecap="round" stroke-linejoin="round"/>
<path d="M348.538 307.127C352.108 285.376 337.369 264.85 315.618 261.28C293.867 257.71 273.341 272.449 269.771 294.2C266.201 315.951 280.94 336.478 302.691 340.047C324.442 343.617 344.969 328.878 348.538 307.127Z" stroke="#023A59" stroke-linecap="round" stroke-linejoin="round"/>
<path d="M349.041 199.373C349.036 208.639 345.805 217.614 339.903 224.757C334.001 231.9 325.797 236.766 316.698 238.518C307.6 240.271 298.175 238.801 290.042 234.361C281.909 229.921 275.576 222.788 272.129 214.187C268.683 205.586 268.339 196.054 271.155 187.226C273.972 178.399 279.774 170.828 287.565 165.812C295.357 160.797 304.651 158.651 313.852 159.743C323.054 160.834 331.588 165.095 337.99 171.793L344.962 181.756C347.651 187.239 349.046 193.266 349.041 199.373Z" stroke="#023A59" stroke-linecap="round" stroke-linejoin="round"/>
<path d="M281.682 74.2955C282.654 71.9035 283.583 69.639 284.468 67.5022L284.899 66.4736L285.724 64.5002L287.064 61.3906L287.662 60.0392C288.499 58.1375 289.24 56.4512 289.874 55.0997C289.958 54.8964 290.054 54.705 290.137 54.5136L290.209 54.3462L290.616 53.4731C291.022 52.5881 291.357 51.8705 291.62 51.3203L291.812 50.9256L292.302 49.909C294.875 44.1096 298.135 38.6405 302.014 33.6195C302.851 32.5258 303.929 31.6396 305.164 31.0297C306.399 30.4198 307.758 30.1025 309.136 30.1025C310.513 30.1025 311.872 30.4198 313.107 31.0297C314.343 31.6396 315.421 32.5258 316.258 33.6195C320.132 38.6412 323.389 44.1102 325.958 49.909C325.958 49.909 326.639 51.2964 327.847 53.9037C327.907 54.0472 327.979 54.1907 328.051 54.3462C329.031 56.499 330.335 59.3933 331.878 62.9694C332.077 63.4398 332.28 63.9182 332.488 64.4046C333.504 66.7966 334.617 69.4397 335.789 72.334C335.92 72.645 336.052 72.9799 336.183 73.3028C336.458 73.9606 336.722 74.6184 336.985 75.3001C337.02 75.3647 337.048 75.4329 337.068 75.5034C337.32 76.1134 337.559 76.6994 337.81 77.3692L338.228 78.4336C339.903 82.7153 341.685 87.4036 343.503 92.4508C343.814 93.288 344.113 94.1491 344.424 95.0102C344.998 96.6368 345.62 98.2872 346.158 99.9736C346.349 100.512 346.541 101.062 346.72 101.612C348.052 105.463 349.375 109.474 350.691 113.644H305.769" stroke="#023A59" stroke-linecap="round" stroke-linejoin="round"/>
<path d="M294.981 113.62H267.581C268.215 111.635 268.837 109.686 269.471 107.772C269.686 107.102 269.913 106.444 270.129 105.787C271.54 101.541 272.951 97.4146 274.338 93.5993L275.666 89.9396C275.822 89.5329 275.977 89.1143 276.12 88.7436C276.423 87.9462 276.722 87.1489 277.017 86.3516" stroke="#023A59" stroke-linecap="round" stroke-linejoin="round"/>
<path d="M305.769 113.644H294.981" stroke="#023A59" stroke-linecap="round" stroke-linejoin="round"/>
<path d="M344.962 181.792L337.989 171.829C331.06 164.601 321.659 160.254 311.664 159.658C301.669 159.062 291.817 162.261 284.078 168.615C276.34 174.968 271.285 184.009 269.924 193.929C268.563 203.848 270.996 213.916 276.737 222.12C282.478 230.323 291.105 236.057 300.891 238.175C310.677 240.293 320.902 238.639 329.521 233.544C338.141 228.449 344.519 220.288 347.382 210.694C350.245 201.099 349.38 190.777 344.962 181.792ZM309.082 228.568C303.314 228.57 297.675 226.862 292.879 223.659C288.082 220.457 284.343 215.904 282.134 210.576C279.925 205.248 279.346 199.385 280.47 193.728C281.594 188.071 284.37 182.874 288.447 178.795C292.525 174.716 297.72 171.938 303.377 170.812C309.033 169.686 314.897 170.263 320.225 172.469C325.554 174.676 330.109 178.413 333.313 183.208C336.518 188.004 338.228 193.642 338.228 199.409C338.219 207.126 335.151 214.524 329.696 219.983C324.242 225.442 316.846 228.516 309.129 228.532L309.082 228.568Z" stroke="#023A59" stroke-linecap="round" stroke-linejoin="round"/>
<path d="M309.13 260.728C301.237 260.728 293.52 263.068 286.957 267.454C280.394 271.839 275.278 278.072 272.258 285.365C269.237 292.658 268.447 300.682 269.987 308.424C271.527 316.166 275.328 323.277 280.909 328.859C286.491 334.441 293.602 338.242 301.344 339.782C309.086 341.322 317.111 340.531 324.403 337.511C331.696 334.49 337.929 329.374 342.315 322.811C346.7 316.248 349.041 308.532 349.041 300.638C349.041 290.053 344.836 279.902 337.351 272.417C329.867 264.932 319.715 260.728 309.13 260.728ZM309.13 329.785C303.366 329.785 297.73 328.075 292.937 324.872C288.144 321.67 284.408 317.118 282.202 311.792C279.996 306.466 279.419 300.606 280.544 294.952C281.668 289.298 284.444 284.105 288.521 280.028C292.597 275.952 297.79 273.176 303.444 272.052C309.098 270.927 314.958 271.504 320.284 273.71C325.61 275.916 330.162 279.652 333.365 284.445C336.567 289.238 338.277 294.873 338.277 300.638C338.277 308.368 335.206 315.782 329.74 321.248C324.274 326.714 316.86 329.785 309.13 329.785Z" stroke="#023A59" stroke-linecap="round" stroke-linejoin="round"/>
<path d="M372.829 366.789H245.574V403.375H372.829V366.789Z" stroke="#023A59" stroke-linecap="round" stroke-linejoin="round"/>
<path d="M261.96 403.363V367.89" stroke="#023A59" stroke-linecap="round" stroke-linejoin="round"/>
<path d="M285.796 403.363V367.89" stroke="#023A59" stroke-linecap="round" stroke-linejoin="round"/>
<path d="M309.632 403.363V367.89" stroke="#023A59" stroke-linecap="round" stroke-linejoin="round"/>
<path d="M333.469 403.363V367.89" stroke="#023A59" stroke-linecap="round" stroke-linejoin="round"/>
<path d="M357.305 403.363V367.89" stroke="#023A59" stroke-linecap="round" stroke-linejoin="round"/>
<path d="M182.473 351.289C182.479 355.846 182.248 360.401 181.78 364.935C181.557 367.327 181.25 369.667 180.859 371.956H149.129C148.031 365.122 147.491 358.21 147.514 351.289C147.514 324.08 155.336 302.025 165 302.025C170.394 302.025 175.214 308.914 178.407 319.726C181.23 330.005 182.599 340.63 182.473 351.289Z" stroke="#023A59" stroke-linecap="round" stroke-linejoin="round"/>
<path d="M180.859 371.956C180.788 372.446 180.704 372.924 180.62 373.391L180.512 373.989C180.285 375.185 180.034 376.381 179.771 377.577C179.651 378.163 179.508 378.773 179.364 379.311L178.934 380.985C178.79 381.535 178.635 382.086 178.479 382.612H151.509C151.27 381.799 151.043 380.973 150.828 380.112C150.716 379.698 150.608 379.267 150.505 378.821C150.301 377.947 150.098 377.062 149.907 376.154C149.823 375.699 149.727 375.233 149.632 374.766C149.452 373.893 149.297 372.996 149.153 372.087C149.153 372.087 149.153 371.979 149.153 371.932L180.859 371.956Z" stroke="#023A59" stroke-linecap="round" stroke-linejoin="round"/>
<path d="M180.871 371.956C180.788 372.434 180.716 372.912 180.62 373.391L180.512 373.989C180.285 375.185 180.034 376.381 179.771 377.577C179.651 378.163 179.508 378.773 179.364 379.311L178.934 380.985C178.79 381.535 178.635 382.086 178.479 382.612H151.509C151.27 381.799 151.043 380.973 150.828 380.112C150.716 379.698 150.608 379.267 150.505 378.821C150.301 377.947 150.098 377.062 149.907 376.154C149.823 375.699 149.727 375.233 149.632 374.766C149.464 373.893 149.309 372.996 149.153 372.087C149.153 372.087 149.153 371.979 149.153 371.932L180.871 371.956Z" stroke="#023A59" stroke-linecap="round" stroke-linejoin="round"/>
<path d="M359.769 547.972C359.769 547.972 357.963 550.459 357.293 550.459C354.533 551.082 351.822 551.909 349.184 552.935C346.924 553.832 345.596 554.442 347.151 556.523C352.115 563.065 364.278 564.189 370.593 565.541C376.908 566.892 380.962 566.892 381.632 562.156C382.302 557.42 381.177 549.084 381.177 549.084C381.177 549.084 368.787 551.584 359.769 547.972Z" fill="white" stroke="#023A59" stroke-linecap="round" stroke-linejoin="round"/>
<path d="M381.608 562.324C374.64 563.551 367.486 563.191 360.678 561.272C351.875 558.688 348.49 555.603 347.211 553.856C346.337 554.454 346.122 555.184 347.151 556.535C352.114 563.078 364.277 564.202 370.592 565.553C376.907 566.905 380.866 566.905 381.608 562.324Z" fill="white" stroke="#023A59" stroke-linecap="round" stroke-linejoin="round"/>
<path d="M406.425 547.302C406.425 547.302 401.916 551.129 401.019 552.026C400.122 552.923 395.159 553.389 395.829 556.092C396.498 558.795 400.337 560.876 403.495 561.271C406.652 561.666 414.319 565.325 416.113 565.098C417.907 564.871 423.289 565.326 424.234 560.147C425.178 554.968 423.779 547.744 423.779 547.744L406.425 547.302Z" fill="white" stroke="#023A59" stroke-linecap="round" stroke-linejoin="round"/>
<path d="M413.409 561.044C409.354 559.693 407.549 559.693 401.915 558.342C399.673 557.793 397.586 556.737 395.816 555.256C395.75 555.531 395.75 555.818 395.816 556.093C396.498 558.796 400.325 560.877 403.482 561.272C406.64 561.666 414.306 565.326 416.1 565.099C417.894 564.872 423.276 565.326 424.209 560.183C421.602 562.205 416.746 562.121 413.409 561.044Z" fill="white" stroke="#023A59" stroke-linecap="round" stroke-linejoin="round"/>
<path d="M355.714 383.916C355.714 383.916 352.784 409.833 354.135 433.957C355.487 458.08 359.326 486.246 360.223 494.127C361.12 502.009 362.256 535.377 362.256 537.411C362.098 539.252 361.717 541.067 361.12 542.817L359.326 544.168L358.872 548.223C363.105 550.37 367.566 552.035 372.171 553.186C378.474 554.537 381.859 552.731 382.086 551.153C382.313 549.574 381.859 545.974 381.859 543.044C381.859 540.114 381.404 536.956 381.404 533.572C381.404 530.187 382.086 494.355 382.313 489.403C382.54 484.452 382.54 480.828 382.756 476.773C382.971 472.719 385.686 435.535 385.686 435.535L389.071 429.448C389.071 429.448 391.546 472.049 392.898 475.649C394.249 479.249 405.073 536.956 405.97 538.308C406.867 539.659 404.176 540.783 404.403 542.135C404.631 543.486 406.652 550.028 406.652 550.028C406.652 550.028 412.739 552.731 416.567 552.959C420.394 553.186 422.2 552.731 423.743 549.801C425.003 547.539 425.479 544.923 425.094 542.362C424.701 539.71 424.174 537.079 423.515 534.48C422.846 531.323 423.073 502.248 421.267 492.549C419.461 482.849 415.634 477.228 415.407 469.334C415.179 461.441 417.655 430.799 416.985 422.236C416.315 413.673 416.758 409.164 414.725 401.497C412.692 393.831 409.546 385.495 409.546 385.495C409.546 385.495 381.632 394.261 355.714 383.916Z" fill="#023A59" stroke="#023A59" stroke-linecap="round" stroke-linejoin="round"/>
<path d="M372.47 305.506C372.47 305.506 362.244 311.797 358.118 313.364C353.992 314.931 346.923 316.115 346.158 320.05C345.392 323.984 344.184 330.275 344.184 330.275C344.184 330.275 336.913 349.531 335.741 353.262C334.569 356.994 335.155 362.89 337.905 364.469C340.656 366.048 343.802 365.844 346.744 365.055C349.686 364.266 357.161 354.841 357.161 354.841C357.161 354.841 355.965 376.262 355.391 377.828C354.817 379.395 352.832 384.705 354.602 386.284C356.372 387.863 377.995 394.345 383.497 394.345C388.999 394.345 405.707 391.786 408.254 390.016C410.802 388.245 411.603 387.851 411.842 384.705C412.081 381.56 411.651 382.158 412.046 377.828C412.44 373.499 418.325 345.799 419.114 342.845C419.903 339.891 424.819 326.735 423.838 321.03C422.857 315.325 413.074 305.482 408.505 304.286C403.937 303.09 380.328 303.939 372.47 305.506Z" fill="#46B2C8" stroke="#023A59" stroke-linecap="round" stroke-linejoin="round"/>
<path d="M377.386 260.896C377.386 260.896 372.602 267.964 373.248 270.524C373.893 273.083 373.846 273.86 373.248 274.65C372.65 275.439 368.93 277.604 369.911 278.979C371.048 280.325 372.296 281.574 373.642 282.711C373.642 282.711 374.24 288.607 375.221 289.193C376.202 289.779 377.769 290.174 378.809 286.251C379.85 282.328 382.935 271.11 382.935 269.507C382.935 267.904 383.473 259.712 377.386 260.896Z" fill="#D7B18F" stroke="#023A59" stroke-linecap="round" stroke-linejoin="round"/>
<path d="M384.06 253.23C384.06 253.23 374.623 253.624 373.846 256.961C373.068 260.298 377.769 264.042 378.558 264.628C379.347 265.214 376.393 267.582 377.183 269.412C377.895 270.806 378.753 272.121 379.742 273.334C379.742 273.334 377.183 286.311 376.788 286.897C376.393 287.483 374.037 280.415 373.642 282.771C373.248 285.127 373.451 287.483 373.056 288.667C372.662 289.851 370.114 294.36 371.286 296.13C372.458 297.9 373.248 298.69 376.788 297.9L380.376 297.111L379.79 303.797L402.98 301.632C402.98 301.632 402.382 293.583 403.172 290.437C403.961 287.292 413.397 275.296 410.838 265.871C408.279 256.447 389.37 251.854 384.06 253.23Z" fill="#D7B18F" stroke="#023A59" stroke-linecap="round" stroke-linejoin="round"/>
<path d="M410.79 265.811C408.231 256.375 389.37 251.854 384.06 253.23C384.06 253.23 374.623 253.624 373.846 256.961C373.068 260.298 377.769 264.041 378.558 264.627C379.347 265.213 376.393 267.582 377.183 269.411C377.895 270.806 378.753 272.121 379.742 273.334C379.742 273.334 377.183 286.311 376.788 286.897C376.393 287.483 374.037 280.415 373.642 282.771C373.248 285.127 373.451 287.483 373.056 288.667C372.662 289.851 370.114 294.36 371.286 296.13C372.458 297.9 373.248 298.689 376.788 297.9L380.376 297.111C380.376 297.111 383.33 294.719 383.521 292.985C383.713 291.25 383.916 282.962 384.107 281.587C384.299 280.211 385.483 278.441 386.858 278.645C388.172 280.261 388.93 282.257 389.023 284.337C389.418 288.272 390.793 290.437 394.333 291.226C397.41 291.659 400.547 291.189 403.363 289.875C404.858 286 413.218 274.758 410.79 265.811Z" fill="#023A59" stroke="#023A59" stroke-linecap="round" stroke-linejoin="round"/>
<path d="M381.894 280.355C381.894 280.355 384.059 273.861 385.829 276.229C387.599 278.597 387.205 285.067 385.04 286.837C382.875 288.607 381.117 283.452 381.894 280.355Z" fill="#D7B18F" stroke="#023A59" stroke-linecap="round" stroke-linejoin="round"/>
<path d="M369.325 308.066C369.325 308.066 373.643 301.381 378.762 299.611C383.881 297.84 400.959 297.446 403.71 297.649C406.461 297.852 408.434 304.323 408.434 304.323L369.325 308.066Z" fill="#46B2C8" stroke="#023A59" stroke-linecap="round" stroke-linejoin="round"/>
<path d="M355.212 338.134C356.193 344.819 357.173 354.878 357.173 354.878L348.921 329.917" stroke="#023A59" stroke-linecap="round" stroke-linejoin="round"/>
<path d="M357.138 354.842C357.138 354.842 344.759 353.849 341.219 352.677" stroke="#023A59" stroke-linecap="round" stroke-linejoin="round"/>
<path d="M357.724 358.573C357.724 358.573 361.312 375.867 367.555 382.553" stroke="#023A59" stroke-linecap="round" stroke-linejoin="round"/>
<path d="M356.946 363.68C356.946 363.68 357.724 380.974 360.474 384.514" stroke="#023A59" stroke-linecap="round" stroke-linejoin="round"/>
<path d="M341.41 337.152C341.41 337.152 337.882 337.152 337.284 338.528C336.686 339.903 339.054 343.24 339.054 343.24L341.41 337.152Z" fill="#D7B18F" stroke="#023A59" stroke-linecap="round" stroke-linejoin="round"/>
<path d="M337.272 340.489C337.272 340.489 333.349 341.865 334.88 343.635C335.693 344.624 336.698 345.437 337.834 346.027L339.03 343.276L337.272 340.489Z" fill="#D7B18F" stroke="#023A59" stroke-linecap="round" stroke-linejoin="round"/>
<path d="M334.88 343.635C334.88 343.635 333.684 345.967 334.258 346.673C335.2 347.404 336.255 347.977 337.38 348.371L337.834 345.979L334.88 343.635Z" fill="#D7B18F" stroke="#023A59" stroke-linecap="round" stroke-linejoin="round"/>
<path d="M334.485 347.295C334.288 347.577 334.154 347.898 334.092 348.236C334.03 348.575 334.042 348.923 334.126 349.256C334.485 350.237 336.447 350.955 336.447 350.955L337.427 348.371L334.485 347.295Z" fill="#D7B18F" stroke="#023A59" stroke-linecap="round" stroke-linejoin="round"/>
<path d="M308.388 301.393C308.388 301.393 307.862 293.942 306.797 295.724C305.733 297.506 306.618 303.701 306.618 303.701C306.618 303.701 302.719 297.135 302.193 299.084C301.667 301.034 304.142 304.981 304.142 304.981C304.142 304.981 299.705 301.967 299.705 303.39C299.705 304.813 301.834 307.995 301.834 307.995L300.949 309.597C300.949 309.597 303.078 310.662 304.142 309.944C305.207 309.226 307.862 304.801 307.862 304.801L308.388 301.393Z" fill="#D7B18F" stroke="#023A59" stroke-linecap="round" stroke-linejoin="round"/>
<path d="M213.019 324.654L187.138 326.245L189.087 365.605L215.495 362.938L213.019 324.654Z" fill="#46B2C8" stroke="#023A59" stroke-linecap="round" stroke-linejoin="round"/>
<path d="M193.752 325.181C193.752 325.181 194.637 322.705 195.701 322.705C196.766 322.705 198.715 328.195 197.472 328.195C196.228 328.195 195.522 325.719 195.522 325.719L193.752 325.181Z" fill="#D7B18F" stroke="#023A59" stroke-linecap="round" stroke-linejoin="round"/>
<path d="M197.064 323.231C197.064 323.231 198.835 321.102 199.72 322.035C200.605 322.968 201.49 328.422 200.425 328.242C199.361 328.063 198.655 325.587 198.655 325.587L197.064 323.231Z" fill="#D7B18F" stroke="#023A59" stroke-linecap="round" stroke-linejoin="round"/>
<path d="M199.731 321.988C199.731 321.988 201.86 320.792 202.566 322.526C203.272 324.26 203.104 327.31 202.387 327.669C201.669 328.028 201.191 326.604 201.191 326.604C200.835 325.027 200.347 323.483 199.731 321.988Z" fill="white" stroke="#023A59" stroke-linecap="round" stroke-linejoin="round"/>
<path d="M202.554 322.526C202.554 322.526 204.863 320.923 205.042 322.526C205.331 324.021 205.143 325.569 204.504 326.951C204.287 327.298 203.956 327.56 203.568 327.691C203.18 327.822 202.758 327.814 202.375 327.669C202.375 327.669 203.093 323.937 202.554 322.526Z" fill="white" stroke="#023A59" stroke-linecap="round" stroke-linejoin="round"/>
<path d="M204.683 376.597C204.683 376.597 197.041 396.008 197.041 409.905C197.041 423.803 211.393 459.252 212.099 462.039C212.804 464.826 208.858 477.587 209.79 484.512C210.723 491.437 213.952 518.562 214.192 520.188C214.431 521.815 212.051 553.043 212.051 556.068C212.051 559.094 214.359 559.776 216.213 560.003C218.067 560.231 221.774 560.003 222.934 559.31C224.095 558.616 225.709 557.456 225.709 557.456C226.168 556.112 226.406 554.702 226.415 553.282C226.642 550.041 226.415 540.126 226.415 538.93C226.415 537.734 228.962 503.947 228.962 503.947C228.962 503.947 229.919 537.65 229.429 547.003C229.369 548.199 226.08 559.561 229.321 560.721C232.562 561.881 241.353 559.979 244.128 559.728C248.469 559.334 254.688 556.033 253.755 555.112C252.508 553.448 250.696 552.295 248.66 551.87C246.783 551.296 241.269 547.828 240.575 545.52C239.882 543.211 240.384 534.636 240.384 533.476C240.384 532.316 247.5 509.006 248.433 504.772C249.889 495.664 250.815 486.479 251.208 477.264C251.447 469.394 250.981 464.527 251.447 461.716C251.914 458.905 262.797 439.243 262.558 421.638C262.319 404.033 256.997 378.773 256.997 378.773L204.683 376.597Z" fill="#D7B18F" stroke="#023A59" stroke-linecap="round" stroke-linejoin="round"/>
<path d="M226.51 549.897C225.251 551.238 223.554 552.086 221.726 552.289C218.558 552.459 215.385 552.053 212.362 551.093C212.206 553.605 212.11 555.435 212.11 556.057C212.11 559.071 214.419 559.764 216.272 559.992C218.126 560.219 221.834 559.992 222.994 559.298C224.154 558.604 225.769 557.444 225.769 557.444C226.228 556.1 226.466 554.691 226.474 553.27C226.462 552.481 226.498 551.273 226.51 549.897Z" fill="white" stroke="#023A59" stroke-linecap="round" stroke-linejoin="round"/>
<path d="M253.802 555.171C252.555 553.507 250.743 552.355 248.707 551.93C247.159 551.325 245.695 550.521 244.354 549.538L244.964 552.719C244.964 552.719 234.391 554.717 228.495 552.062C227.837 555.709 227.419 560.111 229.368 560.816C232.609 562.012 241.4 560.075 244.175 559.824C248.516 559.393 254.747 556.14 253.802 555.171Z" fill="white" stroke="#023A59" stroke-linecap="round" stroke-linejoin="round"/>
<path d="M218.867 311.535C218.867 311.535 201.669 317.204 201.49 318.974C201.31 320.744 188.728 359.219 188.023 360.834C187.317 362.448 187.138 363.68 189.434 365.45C191.73 367.22 194.218 371.825 197.949 370.94C201.681 370.055 204.503 366.515 205.221 365.271C205.858 364.121 206.264 362.857 206.417 361.551C206.833 359.206 207.396 356.889 208.103 354.615C208.45 353.897 208.63 361.707 207.745 365.068C206.86 368.428 203.487 374.994 204.731 376.597C205.957 377.85 207.399 378.871 208.988 379.611C208.988 379.611 215.543 382.625 231.856 382.625C248.169 382.625 255.609 382.266 257.032 381.202C258.455 380.137 258.228 378.008 258.443 376.238C258.658 374.468 256.673 363.082 256.852 362.233C257.032 361.384 258.276 354.076 258.276 354.076C258.276 354.076 271.216 368.428 276 368.082C277.311 368.046 278.589 367.667 279.708 366.983C280.826 366.299 281.746 365.333 282.375 364.183L300.817 316.139C300.817 316.139 303.831 314.01 305.075 312.946C306.319 311.882 309.859 304.789 310.385 302.672C310.887 300.518 310.948 298.285 310.565 296.106C310.218 294.516 309.153 296.991 308.974 298.415C308.795 299.838 308.436 301.429 308.436 301.429C308.436 301.429 305.601 307.098 305.075 307.636C303.771 308.396 302.407 309.048 300.997 309.585C300.997 309.585 304.716 304.622 304.896 303.378C305.075 302.134 305.96 299.79 304.19 301.429C302.575 303.163 301.148 305.063 299.932 307.098C299.932 307.098 294.789 310.47 294.61 311.882C294.431 313.293 293.414 316.845 293.414 317.383C293.414 317.921 276.228 345.573 276.228 345.573L270.367 336.878C270.367 336.878 266.648 322.526 263.287 320.576C259.926 318.627 253.527 317.563 253.527 317.563C253.527 317.563 240.587 309.932 234.559 308.7C228.531 307.468 218.867 311.535 218.867 311.535Z" fill="white" stroke="#023A59" stroke-linecap="round" stroke-linejoin="round"/>
<path d="M208.056 354.614L204.504 332.094" stroke="#023A59" stroke-linecap="round" stroke-linejoin="round"/>
<path d="M256.541 272.042C257.666 273.76 258.314 275.745 258.419 277.795C258.742 281.539 258.156 285.318 258.742 286.275C259.328 287.232 262.533 288.487 261.995 290.066C261.457 291.645 258.885 293.152 258.885 293.152C258.885 293.152 258.718 300.328 257.319 302.074C255.919 303.82 248.947 302.361 248.947 302.361L246.638 310.817L228.088 304.98C228.088 304.98 230.48 304.119 228.782 298.33C228.139 295.715 227.187 293.186 225.948 290.796C225.948 290.796 225.122 280.988 237.142 274.733C249.162 268.478 256.541 272.042 256.541 272.042Z" fill="#D7B18F" stroke="#023A59" stroke-linecap="round" stroke-linejoin="round"/>
<path d="M256.493 284.397C256.685 285.593 256.493 286.634 256.051 286.705C255.608 286.777 255.106 285.856 254.855 284.648C254.604 283.44 254.855 282.4 255.285 282.328C255.716 282.256 256.29 283.189 256.493 284.397Z" fill="#023A59"/>
<path d="M252.559 280.798C252.559 280.798 254.628 277.951 256.529 279.865" stroke="#023A59" stroke-linecap="round" stroke-linejoin="round"/>
<path d="M257.056 294.671C256.38 294.725 255.701 294.615 255.076 294.35C254.452 294.086 253.9 293.675 253.468 293.152" stroke="#023A59" stroke-linecap="round" stroke-linejoin="round"/>
<path d="M249.964 277.568C249.964 277.568 247.141 284.23 245.18 285.402C244.202 286.027 243.174 286.571 242.106 287.028C240.228 290.332 238.054 293.458 235.612 296.369C232.55 299.634 232.765 299.036 230.625 298.438C228.484 297.84 223.078 294.91 219.454 287.925C215.83 280.941 216.476 270.296 224.585 264.532C232.694 258.767 247.213 258.552 251.806 259.496C256.398 260.441 261.613 264.137 260.907 268.12C260.202 272.102 254.27 276.396 249.964 277.568Z" fill="#023A59" stroke="#023A59" stroke-linecap="round" stroke-linejoin="round"/>
<path d="M244.845 289.134C244.845 289.134 241.257 282.317 239.403 286.024C237.549 289.732 240.527 295.592 242.991 294.647" fill="#D7B18F"/>
<path d="M244.845 289.134C244.845 289.134 241.257 282.317 239.403 286.024C237.549 289.732 240.527 295.592 242.991 294.647" stroke="#023A59" stroke-linecap="round" stroke-linejoin="round"/>
<path d="M225.569 282.486C226.367 275.829 222.52 269.895 216.978 269.231C211.437 268.567 206.298 273.426 205.5 280.082C204.703 286.739 208.549 292.674 214.091 293.338C219.633 294.001 224.772 289.143 225.569 282.486Z" fill="#023A59" stroke="#023A59" stroke-linecap="round" stroke-linejoin="round"/>
<path d="M218.867 311.535C218.867 311.535 221.702 306.033 223.292 305.148C224.883 304.263 231.808 303.378 239.08 305.148C246.351 306.918 251.482 312.24 252.236 314.369C252.568 315.457 252.967 316.524 253.432 317.562C253.432 317.562 236.771 311.176 231.282 310.47C225.792 309.764 218.867 311.535 218.867 311.535Z" fill="white" stroke="#023A59" stroke-linecap="round" stroke-linejoin="round"/>
<path d="M260.524 331.209L258.228 354.076L262.832 341.315" stroke="#023A59" stroke-linecap="round" stroke-linejoin="round"/>
<path d="M276.132 345.572L280.031 350.715" stroke="#023A59" stroke-linecap="round" stroke-linejoin="round"/>
<path d="M308.926 298.415C308.747 299.826 308.388 301.429 308.388 301.429C308.388 301.429 305.554 307.098 305.027 307.636C303.723 308.396 302.359 309.048 300.949 309.585C300.949 309.585 304.669 304.622 304.848 303.378C305.027 302.134 305.912 299.79 304.142 301.429C302.527 303.163 301.1 305.063 299.885 307.098C299.885 307.098 294.742 310.47 294.562 311.882C294.383 313.293 293.366 316.845 293.366 317.383C293.366 317.706 287.016 328.063 282.028 336.125L291.596 340.215L300.841 316.139C300.841 316.139 303.855 314.01 305.099 312.946C306.343 311.882 309.883 304.789 310.409 302.672C310.911 300.518 310.972 298.285 310.589 296.106C310.17 294.516 309.106 296.991 308.926 298.415Z" fill="#D7B18F" stroke="#023A59" stroke-linecap="round" stroke-linejoin="round"/>
<path d="M262.606 421.722C262.379 404.117 257.044 378.857 257.044 378.857L204.683 376.597C204.683 376.597 197.041 396.008 197.041 409.905C197.041 423.803 211.393 459.252 212.099 462.039C212.804 464.826 208.858 477.587 209.79 484.512C210.424 489.296 212.182 503.468 213.235 512.474C218.139 513.767 223.223 514.236 228.281 513.862C228.687 508.276 229.022 503.971 229.022 503.971C229.022 503.971 229.022 508.181 229.13 513.957C234.351 516.068 240.079 516.597 245.599 515.476C246.998 510.489 248.158 506.291 248.481 504.88C249.937 495.772 250.863 486.587 251.256 477.372C251.495 469.502 251.028 464.634 251.495 461.824C251.961 459.013 262.845 439.327 262.606 421.722Z" fill="#023A59" stroke="#023A59" stroke-linecap="round" stroke-linejoin="round"/>
<path d="M220.661 417.01L228.591 419.557C228.591 419.557 232.179 464.527 231.904 467.852C231.628 471.177 226.127 489.248 229.009 503.971" stroke="white" stroke-linecap="round" stroke-linejoin="round"/>
</svg>
