<svg width="323" height="334" viewBox="0 0 323 334" fill="none" xmlns="http://www.w3.org/2000/svg">
<g clip-path="url(#clip0_3225_48452)">
<path d="M187.731 186.675H153.195V195.795H187.731V186.675Z" fill="#EBEBEB"/>
<path d="M173.129 205.404C173.124 205.348 173.124 205.291 173.129 205.234V204.767C173.129 204.341 173.129 203.739 173.129 202.974C173.129 201.401 173.094 199.133 173.073 196.277L173.179 196.391L138.643 196.454L138.821 196.277V205.397L138.65 205.22L163.262 205.298L170.524 205.348H172.491H173.002H173.186H173.023H172.533H170.609L163.383 205.397L138.65 205.475H138.473V196.284L138.65 196.114L173.186 196.178H173.293V196.284C173.293 199.168 173.25 201.457 173.236 203.045C173.236 203.803 173.236 204.391 173.236 204.816C173.236 205.001 173.236 205.149 173.236 205.263C173.204 205.313 173.168 205.36 173.129 205.404Z" fill="#E0E0E0"/>
<path d="M312.837 32.8594H278.301V41.9795H312.837V32.8594Z" fill="#EBEBEB"/>
<path d="M298.236 51.5883C298.236 51.5883 298.236 51.5245 298.236 51.4182V50.9505C298.236 50.5253 298.236 49.923 298.236 49.1577C298.236 47.5845 298.236 45.3169 298.179 42.4682L298.285 42.5745L263.749 42.6382L263.927 42.4682V47.0884C263.927 48.6049 263.927 50.1072 263.927 51.5741L263.756 51.3969L288.368 51.4749L295.63 51.5245H297.597H298.115H298.292H298.136H297.639H295.716L288.489 51.5741L263.756 51.652H263.586V51.482C263.586 50.0151 263.586 48.5128 263.586 46.9963V42.4823L263.763 42.3052L298.3 42.369H298.406V42.4753C298.406 45.3523 298.363 47.6412 298.349 49.2285C298.349 49.9868 298.349 50.5749 298.349 51.0001C298.349 51.1844 298.349 51.3332 298.349 51.4465C298.319 51.4992 298.28 51.547 298.236 51.5883Z" fill="#E0E0E0"/>
<path d="M49.3174 77H14.7812V86.1201H49.3174V77Z" fill="#EBEBEB"/>
<path d="M34.7154 95.7435C34.7154 95.7435 34.7154 95.6798 34.7154 95.5735V95.1058C34.7154 94.6806 34.7154 94.0783 34.7154 93.3129C34.7154 91.7398 34.7154 89.4721 34.6515 86.6234L34.758 86.7297L0.22187 86.8006C0.299957 86.7156 0.044397 86.9707 0.399342 86.6234V91.2437C0.399342 92.7649 0.399342 94.2601 0.399342 95.7294L0.228967 95.5593L24.8409 95.6373L32.1101 95.6869H34.0694H34.5877H34.7651H34.609H34.112H32.1882L24.9615 95.7365L0.228967 95.8144H0.0585938V95.7435C0.0585938 94.279 0.0585938 92.7838 0.0585938 91.2579V86.6376L0.236066 86.4604L34.7722 86.5313H34.8858V86.6376C34.8858 89.5147 34.8361 91.8035 34.8219 93.3909C34.8219 94.1491 34.8219 94.7373 34.8219 95.1625C34.8219 95.3467 34.8219 95.4955 34.8219 95.6089C34.793 95.6586 34.7572 95.704 34.7154 95.7435Z" fill="#E0E0E0"/>
<path d="M304.672 179.709C304.669 179.655 304.669 179.601 304.672 179.546C304.672 179.426 304.672 179.27 304.672 179.079C304.672 178.646 304.672 178.051 304.672 177.286C304.672 175.705 304.637 173.445 304.609 170.589L304.715 170.695L270.179 170.766L270.356 170.589V175.216C270.356 176.74 270.356 178.235 270.356 179.702L270.186 179.532L294.798 179.61L302.067 179.66H304.026H304.545H304.722C304.722 179.66 304.672 179.66 304.566 179.66H304.069H302.145L294.919 179.709L270.186 179.787H270.016V179.61C270.016 178.141 270.016 176.646 270.016 175.124V170.497L270.193 170.32L304.729 170.391H304.843V170.497C304.843 173.381 304.8 175.663 304.786 177.257C304.786 178.008 304.786 178.604 304.786 179.029V179.475C304.68 179.667 304.68 179.716 304.672 179.709Z" fill="#E0E0E0"/>
<path d="M309.356 170.589C309.351 170.533 309.351 170.476 309.356 170.419C309.356 170.285 309.356 170.129 309.356 169.937C309.356 169.484 309.356 168.874 309.356 168.102C309.356 166.508 309.314 164.247 309.285 161.469L309.413 161.597L288.585 161.646L288.762 161.469V166.16C288.762 167.684 288.762 169.165 288.762 170.582L288.599 170.419L303.443 170.497L307.766 170.54H308.93H309.349C309.224 170.55 309.098 170.55 308.973 170.54H307.844L303.585 170.589L288.627 170.667H288.457V170.497C288.457 169.08 288.457 167.599 288.457 166.075V161.384C288.457 161.427 288.791 161.051 288.635 161.207L309.385 161.257H309.512V161.384C309.512 164.219 309.463 166.479 309.441 168.095C309.441 168.853 309.441 169.456 309.441 169.895C309.441 170.334 309.363 170.596 309.356 170.589Z" fill="#E0E0E0"/>
<path d="M162.88 18.4596C162.875 18.4031 162.875 18.3461 162.88 18.2896C162.88 18.1691 162.88 18.0132 162.88 17.8219C162.88 17.3967 162.88 16.7943 162.88 16.029C162.88 14.4559 162.88 12.1882 162.816 9.33952L162.93 9.44582L128.394 9.5096L128.564 9.33952V18.4596L128.387 18.2825L152.998 18.3604L160.268 18.41H162.234H162.745H162.93H162.767L162.227 18.5022H160.296L153.069 18.5518L128.337 18.6297H128.152V9.3537C128.507 8.99938 128.252 9.25449 128.337 9.17654L162.873 9.24032H162.98V9.34661C162.98 12.2237 162.93 14.5125 162.916 16.0999C162.916 16.8581 162.916 17.4463 162.916 17.8715C162.916 18.0557 162.916 18.2045 162.916 18.3179C162.907 18.3658 162.895 18.4132 162.88 18.4596Z" fill="#E0E0E0"/>
<path d="M167.558 9.33973C167.558 9.33973 167.558 9.27596 167.558 9.16257C167.558 9.04919 167.558 8.87204 167.558 8.6807C167.558 8.23427 167.558 7.61775 167.558 6.85243C167.558 5.25092 167.516 2.99038 167.487 0.212539L167.615 0.340094L146.865 0.389698C146.709 0.545597 147.078 0.177108 147.042 0.219626V2.57937C147.042 3.36596 147.042 4.13837 147.042 4.8966V9.32556L146.872 9.15549L161.716 9.23344L166.039 9.28304H167.21H167.622C167.497 9.28983 167.371 9.28983 167.246 9.28304H166.117L161.858 9.33265L146.9 9.4106H146.609V4.91078C146.609 4.15254 146.609 3.38013 146.609 2.59355V0.233799L146.787 0.0566406L167.537 0.106245H167.665V0.226712C167.665 3.06124 167.615 5.32178 167.594 6.94455C167.594 7.70279 167.594 8.29804 167.594 8.74448C167.594 8.94344 167.582 9.14223 167.558 9.33973Z" fill="#E0E0E0"/>
<path d="M259.168 236.62V253.584H256.328V255.427H259.168V266.765H312.211V256.447H308.285V254.201H312.211V250.821H313.957V249.29H311.884V236.62H259.168Z" fill="#F5F5F5"/>
<path d="M298.129 236.669V266.588H312.213V256.256H308.28V254.194L312.213 254.265V250.891H313.995L313.959 249.148L311.887 249.099V236.62L298.129 236.669Z" fill="#E0E0E0"/>
<path d="M299.128 255.186C299.128 255.292 289.53 255.377 277.697 255.377C265.863 255.377 256.258 255.292 256.258 255.186C256.258 255.079 265.856 255.001 277.697 255.001C289.537 255.001 299.128 255.079 299.128 255.186Z" fill="#E0E0E0"/>
<path d="M299.128 253.457C299.128 253.563 289.53 253.648 277.697 253.648C265.863 253.648 256.258 253.563 256.258 253.457C256.258 253.35 265.856 253.272 277.697 253.272C289.537 253.272 299.128 253.358 299.128 253.457Z" fill="#E0E0E0"/>
<path d="M301.882 248.808C301.882 248.907 292.284 248.992 280.45 248.992C268.617 248.992 259.012 248.907 259.012 248.808C259.012 248.709 268.609 248.617 280.45 248.617C292.291 248.617 301.882 248.716 301.882 248.808Z" fill="#E0E0E0"/>
<path d="M302.151 261.457C302.151 261.563 292.546 261.649 280.712 261.649C268.878 261.649 259.273 261.563 259.273 261.457C259.273 261.351 268.871 261.273 280.712 261.273C292.553 261.273 302.151 261.358 302.151 261.457Z" fill="#E0E0E0"/>
<path d="M263.172 265.943V282.908H260.332V284.75H263.172V296.088H316.215V285.77H312.282V283.531H316.215V280.151H317.961V278.62H315.888V265.943H263.172Z" fill="#F5F5F5"/>
<path d="M302.125 265.992V295.911H316.216V285.579H312.284V283.517L316.216 283.588V280.215H317.991L317.956 278.471L315.883 278.422V265.943L302.125 265.992Z" fill="#E0E0E0"/>
<path d="M303.132 284.502C303.132 284.608 293.534 284.693 281.693 284.693C269.852 284.693 260.262 284.608 260.262 284.502C260.262 284.396 269.852 284.318 281.693 284.318C293.534 284.318 303.132 284.403 303.132 284.502Z" fill="#E0E0E0"/>
<path d="M303.132 282.78C303.132 282.886 293.534 282.971 281.693 282.971C269.852 282.971 260.262 282.886 260.262 282.78C260.262 282.674 269.852 282.596 281.693 282.596C293.534 282.596 303.132 282.681 303.132 282.78Z" fill="#E0E0E0"/>
<path d="M305.887 278.145C305.887 278.245 296.29 278.33 284.449 278.33C272.608 278.33 263.031 278.245 263.031 278.145C263.031 278.046 272.622 277.954 284.463 277.954C296.304 277.954 305.887 278.039 305.887 278.145Z" fill="#E0E0E0"/>
<path d="M306.148 290.78C306.148 290.887 296.55 290.972 284.716 290.972C272.882 290.972 263.277 290.887 263.277 290.78C263.277 290.674 272.875 290.596 284.716 290.596C296.557 290.596 306.148 290.681 306.148 290.78Z" fill="#E0E0E0"/>
<path d="M258.523 294.869V311.834H255.684V313.676H258.523V325.014H311.566V314.711H307.633V312.464H311.566V309.042H313.312V307.511H311.24V294.869H258.523Z" fill="#F5F5F5"/>
<path d="M297.473 294.919V324.837H311.564V314.505H307.631V312.45L311.564 312.514V309.141H313.339L313.31 307.398L311.237 307.348V294.869L297.473 294.919Z" fill="#E0E0E0"/>
<path d="M298.484 313.435C298.484 313.535 288.886 313.62 277.052 313.62C265.218 313.62 255.613 313.535 255.613 313.435C255.613 313.336 265.211 313.244 277.052 313.244C288.893 313.244 298.484 313.329 298.484 313.435Z" fill="#E0E0E0"/>
<path d="M298.484 311.706C298.484 311.813 288.886 311.898 277.052 311.898C265.218 311.898 255.613 311.813 255.613 311.706C255.613 311.6 265.211 311.522 277.052 311.522C288.893 311.522 298.484 311.607 298.484 311.706Z" fill="#E0E0E0"/>
<path d="M301.237 307.072C301.237 307.178 291.64 307.256 279.799 307.256C267.958 307.256 258.367 307.178 258.367 307.072C258.367 306.965 267.958 306.88 279.799 306.88C291.64 306.88 301.237 306.965 301.237 307.072Z" fill="#E0E0E0"/>
<path d="M301.499 319.707C301.499 319.813 291.901 319.898 280.068 319.898C268.234 319.898 258.629 319.813 258.629 319.707C258.629 319.6 268.227 319.522 280.068 319.522C291.909 319.522 301.499 319.607 301.499 319.707Z" fill="#E0E0E0"/>
<path d="M268.183 210.599V227.549H265.344V229.392H268.183V240.73H321.24V230.426H317.315V228.173H321.24V224.8H322.987V223.297H320.914V210.599H268.183Z" fill="#F5F5F5"/>
<path d="M307.137 210.641V240.567H321.221V230.235H317.295V228.173L321.221 228.244V224.87H323.003L322.967 223.127L320.894 223.078V210.599L307.137 210.641Z" fill="#E0E0E0"/>
<path d="M308.143 229.158C308.143 229.264 298.545 229.349 286.704 229.349C274.863 229.349 265.266 229.264 265.266 229.158C265.266 229.052 274.863 228.974 286.704 228.974C298.545 228.974 308.143 229.059 308.143 229.158Z" fill="#E0E0E0"/>
<path d="M308.143 227.436C308.143 227.542 298.545 227.627 286.704 227.627C274.863 227.627 265.266 227.542 265.266 227.436C265.266 227.329 274.863 227.251 286.704 227.251C298.545 227.251 308.143 227.329 308.143 227.436Z" fill="#E0E0E0"/>
<path d="M310.897 222.801C310.897 222.9 301.292 222.985 289.458 222.985C277.624 222.985 268.02 222.9 268.02 222.801C268.02 222.702 277.617 222.61 289.458 222.61C301.299 222.61 310.897 222.695 310.897 222.801Z" fill="#E0E0E0"/>
<path d="M311.163 235.436C311.163 235.542 301.565 235.628 289.724 235.628C277.883 235.628 268.285 235.542 268.285 235.436C268.285 235.33 277.883 235.252 289.724 235.252C301.565 235.252 311.163 235.344 311.163 235.436Z" fill="#E0E0E0"/>
<path d="M92.0232 266.127V283.092H89.1836V284.948H92.0232V296.286H145.066V285.955H141.133V283.701H145.066V280.328H146.812V278.79H144.74V266.127H92.0232Z" fill="#F5F5F5"/>
<path d="M130.977 266.17V296.095H145.061V285.763H141.135V283.701L145.061 283.772V280.399H146.843L146.807 278.656L144.734 278.606V266.12L130.977 266.17Z" fill="#E0E0E0"/>
<path d="M131.984 284.686C131.984 284.792 122.386 284.878 110.545 284.878C98.7039 284.878 89.1133 284.792 89.1133 284.686C89.1133 284.58 98.7039 284.502 110.545 284.502C122.386 284.502 131.984 284.587 131.984 284.686Z" fill="#E0E0E0"/>
<path d="M131.983 282.964C131.983 283.071 122.385 283.156 110.544 283.156C98.7032 283.156 89.1055 283.071 89.1055 282.964C89.1055 282.858 98.6961 282.773 110.537 282.773C122.378 282.773 131.983 282.858 131.983 282.964Z" fill="#E0E0E0"/>
<path d="M134.741 278.323C134.741 278.429 125.143 278.514 113.302 278.514C101.461 278.514 91.8633 278.429 91.8633 278.323C91.8633 278.217 101.461 278.139 113.302 278.139C125.143 278.139 134.741 278.224 134.741 278.323Z" fill="#E0E0E0"/>
<path d="M135.003 290.965C135.003 291.071 125.405 291.156 113.572 291.156C101.738 291.156 92.1328 291.071 92.1328 290.965C92.1328 290.858 101.731 290.78 113.572 290.78C125.412 290.78 135.003 290.858 135.003 290.965Z" fill="#E0E0E0"/>
<path d="M96.0271 295.45V312.415H93.1875V314.257H96.0271V325.595H149.063V315.278H145.137V313.024H149.063V309.651H150.809V308.113H148.736V295.45H96.0271Z" fill="#F5F5F5"/>
<path d="M134.98 295.493V325.419H149.065V315.087H145.139V313.025L149.065 313.095V309.722H150.847L150.811 307.979L148.738 307.929V295.443L134.98 295.493Z" fill="#E0E0E0"/>
<path d="M135.959 314.002C135.959 314.108 126.362 314.193 114.521 314.193C102.68 314.193 93.082 314.108 93.082 314.002C93.082 313.896 102.68 313.818 114.521 313.818C126.362 313.818 135.959 313.91 135.959 314.002Z" fill="#E0E0E0"/>
<path d="M135.959 312.288C135.959 312.394 126.362 312.479 114.521 312.479C102.68 312.479 93.082 312.394 93.082 312.288C93.082 312.181 102.68 312.096 114.521 312.096C126.362 312.096 135.959 312.181 135.959 312.288Z" fill="#E0E0E0"/>
<path d="M138.737 307.625C138.737 307.731 129.14 307.816 117.306 307.816C105.472 307.816 95.8672 307.731 95.8672 307.625C95.8672 307.518 105.465 307.44 117.306 307.44C129.147 307.44 138.737 307.547 138.737 307.625Z" fill="#E0E0E0"/>
<path d="M139.006 320.288C139.006 320.394 129.409 320.479 117.568 320.479C105.727 320.479 96.1289 320.394 96.1289 320.288C96.1289 320.181 105.727 320.104 117.568 320.104C129.409 320.104 139.006 320.181 139.006 320.288Z" fill="#E0E0E0"/>
<path d="M101.035 240.099V257.106H98.1953V258.942H101.035V270.28H154.078V259.934H150.159V257.68H154.085V254.307H155.838V252.769H153.766V240.099H101.035Z" fill="#F5F5F5"/>
<path d="M139.984 240.149V270.074H154.076V259.742H150.143V257.68L154.076 257.751V254.371L155.85 254.378L155.822 252.635L153.749 252.578V240.099L139.984 240.149Z" fill="#E0E0E0"/>
<path d="M140.991 258.665C140.991 258.772 131.394 258.857 119.56 258.857C107.726 258.857 98.1211 258.772 98.1211 258.665C98.1211 258.559 107.719 258.481 119.56 258.481C131.401 258.481 140.991 258.559 140.991 258.665Z" fill="#E0E0E0"/>
<path d="M140.991 256.943C140.991 257.05 131.394 257.128 119.56 257.128C107.726 257.128 98.1211 257.05 98.1211 256.943C98.1211 256.837 107.719 256.752 119.56 256.752C131.401 256.752 140.991 256.837 140.991 256.943Z" fill="#E0E0E0"/>
<path d="M143.769 252.301C143.769 252.408 134.171 252.493 122.337 252.493C110.503 252.493 100.898 252.408 100.898 252.301C100.898 252.195 110.496 252.117 122.337 252.117C134.178 252.117 143.769 252.202 143.769 252.301Z" fill="#E0E0E0"/>
<path d="M144.011 264.944C144.011 265.05 134.413 265.128 122.579 265.128C110.745 265.128 101.141 265.05 101.141 264.944C101.141 264.837 110.738 264.752 122.579 264.752C134.42 264.752 144.011 264.837 144.011 264.944Z" fill="#E0E0E0"/>
<path d="M179.19 295.5V311.94H176.422V313.726H179.169V324.731H230.579V314.711H226.824V312.528H230.636V309.255H232.326V307.774H230.317V295.5H179.19Z" fill="#F5F5F5"/>
<path d="M216.945 295.543V324.547H230.596V314.534H226.791V312.536L230.596 312.599V309.333H232.322L232.293 307.639L230.277 307.589V295.5L216.945 295.543Z" fill="#E0E0E0"/>
<path d="M217.924 313.492C217.924 313.592 208.617 313.67 197.146 313.67C185.674 313.67 176.367 313.592 176.367 313.492C176.367 313.393 185.653 313.294 197.146 313.294C208.639 313.294 217.924 313.386 217.924 313.492Z" fill="#E0E0E0"/>
<path d="M217.924 311.82C217.924 311.919 208.617 312.004 197.146 312.004C185.674 312.004 176.367 311.919 176.367 311.82C176.367 311.721 185.667 311.636 197.146 311.636C208.625 311.636 217.924 311.721 217.924 311.82Z" fill="#E0E0E0"/>
<path d="M220.585 307.327C220.585 307.426 211.285 307.504 199.814 307.504C188.342 307.504 179.035 307.426 179.035 307.327C179.035 307.228 188.335 307.143 199.814 307.143C211.293 307.143 220.585 307.221 220.585 307.327Z" fill="#E0E0E0"/>
<path d="M220.847 319.572C220.847 319.671 211.54 319.756 200.069 319.756C188.597 319.756 179.262 319.671 179.262 319.572C179.262 319.473 188.568 319.388 200.04 319.388C211.512 319.388 220.847 319.473 220.847 319.572Z" fill="#E0E0E0"/>
<path d="M11.7856 295.5V311.94H9.03125V313.726H11.7856V324.731H63.1888V314.711H59.3838V312.528H63.1888V309.255H64.8854V307.774H62.8409V295.5H11.7856Z" fill="#F5F5F5"/>
<path d="M49.5391 295.543V324.547H63.1903V314.534H59.3781V312.536L63.1903 312.599V309.333H64.9153L64.8798 307.639L62.8708 307.589V295.5L49.5391 295.543Z" fill="#E0E0E0"/>
<path d="M50.5108 313.492C50.5108 313.592 41.2112 313.67 29.7394 313.67C18.2676 313.67 8.96094 313.592 8.96094 313.492C8.96094 313.393 18.2605 313.294 29.7394 313.294C41.2183 313.294 50.5108 313.386 50.5108 313.492Z" fill="#E0E0E0"/>
<path d="M50.5108 311.82C50.5108 311.919 41.2112 312.004 29.7394 312.004C18.2676 312.004 8.96094 311.919 8.96094 311.82C8.96094 311.721 18.2605 311.636 29.7394 311.636C41.2183 311.636 50.5108 311.721 50.5108 311.82Z" fill="#E0E0E0"/>
<path d="M53.1788 307.327C53.1788 307.426 43.8792 307.504 32.4074 307.504C20.9356 307.504 11.6289 307.426 11.6289 307.327C11.6289 307.228 20.9285 307.143 32.4074 307.143C43.8863 307.143 53.1788 307.221 53.1788 307.327Z" fill="#E0E0E0"/>
<path d="M53.4366 319.572C53.4366 319.671 44.137 319.756 32.6652 319.756C21.1934 319.756 11.8867 319.671 11.8867 319.572C11.8867 319.473 21.1863 319.388 32.6652 319.388C44.1441 319.388 53.4366 319.473 53.4366 319.572Z" fill="#E0E0E0"/>
<path d="M318.13 324.951C318.13 325.057 247.368 325.135 160.101 325.135C72.8346 325.135 2.05859 325.057 2.05859 324.951C2.05859 324.845 72.7991 324.767 160.101 324.767C247.404 324.767 318.13 324.852 318.13 324.951Z" fill="#263238"/>
<path d="M272.625 188.518C265.526 192.195 260.038 198.538 256.113 205.525C252.187 212.512 249.653 220.165 247.147 227.776L244.953 266.999C253.238 252.925 259.861 236.379 261.685 220.158L256.176 219.662C259.868 219.102 262.977 216.424 264.951 213.284C266.924 210.145 267.939 206.46 268.933 202.86L262.203 203.852C267.523 200.268 271.255 194.777 272.625 188.518Z" fill="#455A64"/>
<g opacity="0.3">
<path d="M272.625 188.518C265.526 192.195 260.038 198.538 256.113 205.525C252.187 212.512 249.653 220.165 247.147 227.776L244.953 266.999C253.238 252.925 259.861 236.379 261.685 220.158L256.176 219.662C259.868 219.102 262.977 216.424 264.951 213.284C266.924 210.145 267.939 206.46 268.933 202.86L262.203 203.852C267.523 200.268 271.255 194.777 272.625 188.518Z" fill="black"/>
</g>
<path d="M243.728 276.183C243.728 276.183 225.739 254.69 225.981 234.175H233.215C233.215 234.175 225.321 228.995 225.945 226.09C226.57 223.184 226.783 212.207 226.783 212.207L233.421 213.866C233.421 213.866 228.451 211.378 227.819 207.438C227.188 203.498 229.275 185.265 229.275 185.265C229.275 185.265 237.367 193.769 239.859 202.471C242.351 211.173 248.889 221.327 246.958 247.823C245.027 274.319 243.728 276.183 243.728 276.183Z" fill="#455A64"/>
<path d="M252.849 278.21C252.849 278.21 272.335 265.249 276.665 248.709L270.837 247.122C270.837 247.122 278.319 244.684 278.447 242.211C278.575 239.738 280.825 230.873 280.825 230.873L275.146 230.759C275.146 230.759 279.697 229.845 281.06 226.819C282.423 223.794 284.751 208.671 284.751 208.671C284.751 208.671 276.381 213.738 272.47 220.187C268.558 226.635 261.076 233.381 256.81 255.122C252.543 276.863 252.849 278.21 252.849 278.21Z" fill="#455A64"/>
<path d="M234.188 204.008C234.219 204.078 234.241 204.152 234.251 204.228C234.294 204.398 234.344 204.611 234.408 204.887C234.55 205.496 234.741 206.347 234.983 207.438C235.231 208.544 235.522 209.904 235.842 211.484C236.161 213.065 236.551 214.857 236.899 216.856C237.673 220.838 238.489 225.607 239.327 230.908C240.165 236.209 240.946 242.055 241.663 248.206C242.38 254.357 242.919 260.253 243.338 265.581C243.757 270.91 244.048 275.757 244.19 279.811C244.289 281.837 244.339 283.673 244.389 285.289C244.438 286.904 244.467 288.286 244.481 289.42C244.495 290.554 244.481 291.411 244.481 292.035V292.743C244.487 292.821 244.487 292.899 244.481 292.977C244.474 292.902 244.474 292.826 244.481 292.75C244.481 292.573 244.481 292.354 244.481 292.042C244.481 291.418 244.431 290.547 244.389 289.427C244.346 288.307 244.311 286.911 244.24 285.303C244.169 283.694 244.105 281.859 243.984 279.832C243.792 275.779 243.473 270.96 243.054 265.617C242.635 260.274 242.06 254.399 241.357 248.255C240.655 242.112 239.838 236.265 239.043 230.965C238.248 225.664 237.439 220.902 236.701 216.913C236.353 214.914 235.991 213.114 235.692 211.534C235.394 209.954 235.132 208.586 234.897 207.474C234.663 206.361 234.514 205.518 234.393 204.908C234.344 204.632 234.301 204.412 234.273 204.242C234.232 204.169 234.203 204.09 234.188 204.008Z" fill="#263238"/>
<path d="M241.235 289.342C241.235 289.342 224.773 270.698 219.661 259.438L223.523 257.794C220.726 258.255 217.844 257.085 215.714 255.236C213.585 253.386 211.952 250.984 210.39 248.653L215.473 247.795C210.801 246.465 206.822 243.389 204.363 239.207C210.362 240.192 215.793 243.458 220.265 247.597C223.809 250.999 227.024 254.726 229.87 258.729C231.312 260.649 232.565 262.705 233.611 264.866C236.379 270.564 241.242 282.49 241.235 289.342Z" fill="#455A64"/>
<path d="M276.923 219.52C276.905 219.584 276.881 219.646 276.852 219.705C276.781 219.846 276.702 220.03 276.596 220.25L275.595 222.319C274.715 224.112 273.465 226.713 271.96 229.944C268.929 236.407 264.947 245.428 261.007 255.576C257.067 265.723 253.951 275.077 251.835 281.894C250.777 285.296 249.947 288.066 249.393 289.98C249.109 290.915 248.896 291.652 248.733 292.183L248.555 292.75C248.539 292.817 248.515 292.881 248.484 292.942C248.488 292.874 248.5 292.808 248.52 292.743C248.555 292.587 248.605 292.403 248.662 292.162C248.804 291.631 249.003 290.887 249.251 289.937C249.762 288.01 250.557 285.232 251.587 281.816C253.638 274.978 256.733 265.603 260.666 255.441C264.599 245.279 268.631 236.272 271.719 229.838C273.267 226.614 274.559 224.027 275.467 222.256L276.532 220.215C276.646 220.002 276.738 219.825 276.816 219.69C276.894 219.556 276.915 219.513 276.923 219.52Z" fill="#263238"/>
<path d="M242.628 297.328C242.592 297.217 242.566 297.104 242.55 296.988C242.507 296.719 242.451 296.393 242.387 295.996C242.259 295.139 242.039 293.87 241.741 292.375C241.443 290.88 241.031 289.044 240.477 287.067C239.923 285.09 239.235 282.936 238.404 280.689C237.574 278.443 236.651 276.438 235.756 274.553C234.862 272.668 233.975 271.08 233.187 269.741C232.399 268.402 231.767 267.325 231.277 266.595L230.745 265.744C230.676 265.647 230.619 265.543 230.574 265.433C230.574 265.433 230.667 265.518 230.801 265.702L231.391 266.51C231.909 267.218 232.597 268.274 233.414 269.606C234.23 270.939 235.132 272.561 236.062 274.404C236.992 276.246 237.9 278.33 238.752 280.555C239.604 282.78 240.264 284.955 240.804 286.933C241.343 288.91 241.734 290.745 241.996 292.283C242.259 293.82 242.444 295.068 242.529 295.932C242.564 296.336 242.6 296.641 242.621 296.931C242.649 297.062 242.651 297.197 242.628 297.328Z" fill="#263238"/>
<path d="M264.347 292.942H228.32V300.276H264.347V292.942Z" fill="#FF993C"/>
<path d="M231.75 300.276L235.647 324.951H257.42L261.054 300.276H231.75Z" fill="#FF993C"/>
<path d="M262.139 300.276C262.139 300.382 255.324 300.46 246.919 300.46C238.514 300.46 231.699 300.382 231.699 300.276C231.699 300.17 238.507 300.092 246.919 300.092C255.331 300.092 262.139 300.177 262.139 300.276Z" fill="#263238"/>
<path d="M282.353 147.722H221.721C221.721 117.251 196.74 91.7398 166.222 91.7398C135.704 91.7398 110.779 117.251 110.779 147.722H50.0625C50.0625 83.8031 102.161 31.0596 166.193 31.0596C230.225 31.0596 282.353 83.8031 282.353 147.722Z" fill="white"/>
<path d="M166.259 38.6065C154.615 38.5974 143.046 40.454 131.992 44.1055L146.9 90.3154C160.028 85.9056 174.272 86.1057 187.271 90.8823L202.74 44.8637C191.027 40.7137 178.688 38.5973 166.259 38.6065Z" fill="#FF993C"/>
<path d="M275.568 147.722C275.589 126.188 269.191 105.134 257.188 87.2402L218.145 116.365C223.901 125.817 226.939 136.668 226.926 147.729L275.568 147.722Z" fill="#993232"/>
<path d="M56.9415 147.722H105.569C105.557 136.581 108.641 125.655 114.478 116.159L75.8245 86.4888C63.499 104.537 56.9177 125.879 56.9415 147.722Z" fill="#B3EBA6"/>
<path d="M75.8242 86.4888L114.478 116.159C121.926 104.035 133.387 94.8922 146.877 90.3154L131.969 44.1055C109.102 51.7006 89.3733 66.5939 75.8242 86.4888Z" fill="#9AE488"/>
<path d="M202.74 44.8638L187.25 90.8824C200.137 95.6689 211.028 104.658 218.159 116.393L257.203 87.2684C244.088 67.6556 224.989 52.7853 202.74 44.8638Z" fill="#CC7A30"/>
<path d="M257.189 87.2398C257.189 87.2398 258.019 88.4657 259.545 90.8751C261.742 94.4473 263.735 98.1404 265.516 101.937C266.083 103.191 266.708 104.502 267.276 105.926L268.178 108.095C268.462 108.853 268.746 109.618 269.037 110.412C269.654 111.978 270.158 113.665 270.747 115.373C271.01 116.251 271.273 117.144 271.535 118.058L271.94 119.475C272.054 119.95 272.174 120.425 272.295 120.893C273.358 125.003 274.164 129.176 274.709 133.386C275.342 138.139 275.667 142.927 275.681 147.722V147.835H275.568H226.94H226.827V147.693C226.832 133.914 222.098 120.551 213.417 109.838C208.707 104.03 202.977 99.1264 196.507 95.3678C193.143 93.4436 189.606 91.8352 185.944 90.5633C174.376 86.5887 161.871 86.218 150.087 89.5003C141.892 91.7894 134.272 95.7785 127.726 101.207C120.86 106.861 115.333 113.96 111.539 121.997C107.746 130.034 105.78 138.809 105.783 147.693V147.878H56.8008V147.693C56.7806 119.287 67.8827 91.9984 87.7378 71.6498C90.7703 68.5223 93.9896 65.5808 97.3781 62.8415C100.691 60.1742 104.146 57.688 107.728 55.3938C114.636 51.0313 122.01 47.4519 129.714 44.7218C136.947 42.1357 144.44 40.3395 152.061 39.3645C177.065 36.0795 202.435 41.5704 223.831 54.8978C227.741 57.3113 231.488 59.9792 235.047 62.8841C238.038 65.3114 240.9 67.8919 243.623 70.6152C246.058 73.0884 248.123 75.3631 249.841 77.4039L252.17 80.2385L254.008 82.6691C254.562 83.3777 255.023 84.0367 255.428 84.6107L256.408 86.028C256.94 86.7933 257.203 87.1902 257.203 87.1902C257.203 87.1902 256.919 86.8075 256.379 86.0493L255.385 84.632C254.988 84.0651 254.527 83.4132 253.966 82.7045C248.484 75.3618 242.096 68.7382 234.955 62.9903C231.394 60.0982 227.647 57.4422 223.739 55.0395C202.36 41.798 177.044 36.366 152.104 39.6692C144.504 40.6538 137.034 42.4522 129.82 45.0336C122.142 47.7519 114.792 51.3171 107.906 55.6631C104.345 57.968 100.913 60.4661 97.6266 63.1462C94.2509 65.8824 91.0413 68.8166 88.0147 71.9333C68.2085 92.2179 57.1358 119.431 57.1629 147.757L56.9783 147.58H105.606L105.421 147.764C105.421 138.825 107.401 129.997 111.219 121.912C115.037 113.826 120.599 106.683 127.506 100.994C130.811 98.2412 134.405 95.8533 138.225 93.8726C141.975 91.9138 145.919 90.3533 149.995 89.2169C161.849 85.9261 174.425 86.3066 186.058 90.3082C189.751 91.586 193.316 93.2064 196.706 95.1481C203.208 98.9278 208.965 103.86 213.694 109.703C222.412 120.475 227.161 133.909 227.146 147.757L227.004 147.622H275.632L275.518 147.729C275.516 142.944 275.201 138.165 274.574 133.421C274.039 129.219 273.243 125.053 272.189 120.949C272.075 120.468 271.954 119.993 271.841 119.532C271.727 119.072 271.571 118.604 271.443 118.15C271.173 117.236 270.918 116.336 270.662 115.458C270.073 113.728 269.576 112.042 268.966 110.497L268.114 108.18L267.219 106.011C266.659 104.594 266.034 103.276 265.473 102.022C263.679 98.2077 261.679 94.4937 259.482 90.8963C258.772 89.6846 258.14 88.7704 257.757 88.161L257.189 87.2398Z" fill="#263238"/>
<path d="M63.9688 135.151L64.4089 133.358L70.7198 134.91L71.6782 131.012L73.1405 131.374L71.7208 137.043L63.9688 135.151Z" fill="white"/>
<path d="M73.4447 128.943C72.9267 129.461 72.2758 129.826 71.5635 129.999C70.8368 130.159 70.0809 130.126 69.3709 129.903C68.661 129.681 68.0218 129.277 67.5171 128.731C67.0287 128.186 66.7018 127.516 66.573 126.796C66.4479 126.033 66.5034 125.25 66.7351 124.512C66.9669 123.774 67.3684 123.1 67.9076 122.544C68.3078 122.163 68.7805 121.865 69.2979 121.669C69.8152 121.472 70.3667 121.381 70.9198 121.401C71.473 121.421 72.0165 121.551 72.5184 121.784C73.0203 122.017 73.4705 122.348 73.8423 122.757C74.3252 123.305 74.6514 123.974 74.7864 124.691C74.9276 125.458 74.8739 126.247 74.6302 126.987C74.4077 127.729 73.9997 128.402 73.4447 128.943ZM73.1963 125.173C73.1069 124.75 72.8975 124.361 72.5928 124.054C72.268 123.726 71.868 123.483 71.4277 123.345C70.9873 123.206 70.5198 123.177 70.0656 123.26C69.6385 123.344 69.2444 123.548 68.9298 123.848C68.6071 124.157 68.3677 124.543 68.2337 124.969C68.0997 125.395 68.0754 125.848 68.1631 126.286C68.2542 126.711 68.4633 127.101 68.7665 127.413C69.0921 127.739 69.4924 127.981 69.9327 128.118C70.373 128.255 70.8402 128.283 71.2938 128.199C71.7203 128.118 72.1146 127.916 72.4296 127.618C72.7518 127.307 72.9907 126.92 73.1247 126.493C73.2586 126.066 73.2832 125.612 73.1963 125.173Z" fill="white"/>
<path d="M73.1977 107.627L79.6364 113.048L78.9265 114.891L73.2474 114.487L77.5919 118.2L76.8465 120.036L68.4414 119.469L69.1513 117.69L75.0434 118.129L70.5356 114.274L71.1745 112.687L77.1234 113.119L72.5659 109.271L73.1977 107.627Z" fill="white"/>
<path d="M148.027 55.4434L147.012 50.7594L145.536 55.1175L144.719 55.2876L141.638 52.0208L142.625 56.6056L140.929 56.967L139.246 49.172L140.744 48.8532L144.719 53.105L146.558 47.6343L148.049 47.3154L149.752 55.1104L148.027 55.4434Z" fill="white"/>
<path d="M157.39 52.6727L157.568 54.1467L151.413 54.8553L150.469 46.9186L156.474 46.21L156.652 47.6839L152.471 48.18L152.677 49.9019L156.368 49.4626L156.538 50.8799L152.847 51.3192L153.067 53.2254L157.39 52.6727Z" fill="white"/>
<path d="M158.562 46.0473L162.197 45.8985C162.992 45.849 163.787 45.9873 164.518 46.3024C165.173 46.5817 165.733 47.0444 166.13 47.6346C166.52 48.2594 166.74 48.9744 166.77 49.7097C166.8 50.4451 166.638 51.1756 166.3 51.8297C165.955 52.4513 165.437 52.9605 164.81 53.2966C164.103 53.6646 163.321 53.8659 162.524 53.8848L158.889 54.0265L158.562 46.0473ZM162.368 52.3683C163.07 52.3767 163.748 52.1095 164.256 51.6242C164.488 51.3817 164.666 51.0926 164.777 50.7761C164.888 50.4596 164.931 50.1231 164.902 49.7889C164.902 49.4539 164.833 49.1225 164.697 48.8161C164.561 48.5097 164.362 48.2352 164.114 48.0102C163.567 47.5678 162.869 47.3567 162.169 47.422L160.479 47.4858L160.678 52.4463L162.368 52.3683Z" fill="white"/>
<path d="M168.379 45.7852L170.232 45.8277L170.033 53.814H168.188L168.379 45.7852Z" fill="white"/>
<path d="M172.817 53.0696C172.51 52.6827 172.284 52.2378 172.154 51.7617C172.023 51.2855 171.99 50.788 172.057 50.2989L172.384 45.8345L174.229 45.9691L173.91 50.3626C173.804 51.7799 174.35 52.5523 175.536 52.6373C175.779 52.6715 176.027 52.6511 176.262 52.5775C176.496 52.504 176.711 52.3792 176.892 52.2122C177.272 51.7712 177.476 51.2064 177.467 50.6248L177.786 46.2313L179.61 46.3589L179.291 50.8232C179.288 51.3164 179.184 51.8036 178.986 52.2555C178.788 52.7075 178.501 53.1146 178.141 53.4523C177.343 54.0037 176.38 54.2664 175.411 54.1968C174.443 54.1272 173.528 53.7295 172.817 53.0696Z" fill="white"/>
<path d="M187.853 55.706L188.649 50.9795L185.653 54.473L184.829 54.3313L183.168 50.1433L182.38 54.7706L180.684 54.4801L182.039 46.6001L183.523 46.8481L185.653 52.2479L189.401 47.8473L190.899 48.1024L189.571 55.9824L187.853 55.706Z" fill="white"/>
<path d="M262.469 115.423L255.023 118.356L254.313 116.634L257.372 115.43L256.066 112.042L253.006 113.24L252.332 111.525L259.779 108.591L260.489 110.313L257.55 111.468L258.884 114.841L261.816 113.686L262.469 115.423Z" fill="white"/>
<path d="M263.156 117.492L263.752 119.242L256.171 121.814L255.574 120.064L263.156 117.492Z" fill="white"/>
<path d="M262.25 127.561L262.719 129.184L259.602 130.091C259.149 129.749 258.76 129.329 258.452 128.851C258.139 128.362 257.9 127.83 257.742 127.271C257.512 126.527 257.473 125.738 257.629 124.975C257.772 124.261 258.112 123.601 258.609 123.069C259.129 122.531 259.782 122.138 260.502 121.929C261.221 121.72 261.983 121.703 262.712 121.878C263.419 122.067 264.06 122.447 264.565 122.977C265.106 123.548 265.499 124.244 265.707 125.003C265.884 125.627 265.94 126.279 265.871 126.924C265.806 127.517 265.605 128.087 265.282 128.589L263.897 127.753C264.1 127.422 264.231 127.052 264.281 126.668C264.332 126.283 264.3 125.892 264.188 125.521C264.056 125.062 263.812 124.643 263.478 124.302C263.173 123.985 262.78 123.766 262.35 123.671C261.894 123.564 261.419 123.581 260.972 123.721C260.525 123.85 260.118 124.095 259.794 124.429C259.486 124.742 259.272 125.135 259.176 125.563C259.078 126.021 259.1 126.498 259.24 126.945C259.365 127.425 259.609 127.867 259.95 128.228L262.25 127.561Z" fill="white"/>
<path d="M268.538 137.319L260.729 139.02L260.331 137.213L263.54 136.504L262.766 132.961L259.558 133.67L259.16 131.863L266.969 130.155L267.366 131.962L264.278 132.635L265.059 136.178L268.14 135.505L268.538 137.319Z" fill="white"/>
<path d="M63.9688 135.151L64.4089 133.358L70.7198 134.91L71.6782 131.012L73.1405 131.374L71.7208 137.043L63.9688 135.151Z" fill="white"/>
<path d="M73.4447 128.943C72.9267 129.461 72.2758 129.826 71.5635 129.999C70.8368 130.159 70.0809 130.126 69.3709 129.903C68.661 129.681 68.0218 129.277 67.5171 128.731C67.0287 128.186 66.7018 127.516 66.573 126.796C66.4479 126.033 66.5034 125.25 66.7351 124.512C66.9669 123.774 67.3684 123.1 67.9076 122.544C68.3078 122.163 68.7805 121.865 69.2979 121.669C69.8152 121.472 70.3667 121.381 70.9198 121.401C71.473 121.421 72.0165 121.551 72.5184 121.784C73.0203 122.017 73.4705 122.348 73.8423 122.757C74.3252 123.305 74.6514 123.974 74.7864 124.691C74.9276 125.458 74.8739 126.247 74.6302 126.987C74.4077 127.729 73.9997 128.402 73.4447 128.943ZM73.1963 125.173C73.1069 124.75 72.8975 124.361 72.5928 124.054C72.268 123.726 71.868 123.483 71.4277 123.345C70.9873 123.206 70.5198 123.177 70.0656 123.26C69.6385 123.344 69.2444 123.548 68.9298 123.848C68.6071 124.157 68.3677 124.543 68.2337 124.969C68.0997 125.395 68.0754 125.848 68.1631 126.286C68.2542 126.711 68.4633 127.101 68.7665 127.413C69.0921 127.739 69.4924 127.981 69.9327 128.118C70.373 128.255 70.8402 128.283 71.2938 128.199C71.7203 128.118 72.1146 127.916 72.4296 127.618C72.7518 127.307 72.9907 126.92 73.1247 126.493C73.2586 126.066 73.2832 125.612 73.1963 125.173Z" fill="white"/>
<path d="M73.1977 107.627L79.6364 113.048L78.9265 114.891L73.2474 114.487L77.5919 118.2L76.8465 120.036L68.4414 119.469L69.1513 117.69L75.0434 118.129L70.5356 114.274L71.1745 112.687L77.1234 113.119L72.5659 109.271L73.1977 107.627Z" fill="white"/>
<path d="M148.027 55.4434L147.012 50.7594L145.536 55.1175L144.719 55.2876L141.638 52.0208L142.625 56.6056L140.929 56.967L139.246 49.172L140.744 48.8532L144.719 53.105L146.558 47.6343L148.049 47.3154L149.752 55.1104L148.027 55.4434Z" fill="white"/>
<path d="M157.39 52.6727L157.568 54.1467L151.413 54.8553L150.469 46.9186L156.474 46.21L156.652 47.6839L152.471 48.18L152.677 49.9019L156.368 49.4626L156.538 50.8799L152.847 51.3192L153.067 53.2254L157.39 52.6727Z" fill="white"/>
<path d="M158.562 46.0473L162.197 45.8985C162.992 45.849 163.787 45.9873 164.518 46.3024C165.173 46.5817 165.733 47.0444 166.13 47.6346C166.52 48.2594 166.74 48.9744 166.77 49.7097C166.8 50.4451 166.638 51.1756 166.3 51.8297C165.955 52.4513 165.437 52.9605 164.81 53.2966C164.103 53.6646 163.321 53.8659 162.524 53.8848L158.889 54.0265L158.562 46.0473ZM162.368 52.3683C163.07 52.3767 163.748 52.1095 164.256 51.6242C164.488 51.3817 164.666 51.0926 164.777 50.7761C164.888 50.4596 164.931 50.1231 164.902 49.7889C164.902 49.4539 164.833 49.1225 164.697 48.8161C164.561 48.5097 164.362 48.2352 164.114 48.0102C163.567 47.5678 162.869 47.3567 162.169 47.422L160.479 47.4858L160.678 52.4463L162.368 52.3683Z" fill="white"/>
<path d="M168.379 45.7852L170.232 45.8277L170.033 53.814H168.188L168.379 45.7852Z" fill="white"/>
<path d="M172.817 53.0696C172.51 52.6827 172.284 52.2378 172.154 51.7617C172.023 51.2855 171.99 50.788 172.057 50.2989L172.384 45.8345L174.229 45.9691L173.91 50.3626C173.804 51.7799 174.35 52.5523 175.536 52.6373C175.779 52.6715 176.027 52.6511 176.262 52.5775C176.496 52.504 176.711 52.3792 176.892 52.2122C177.272 51.7712 177.476 51.2064 177.467 50.6248L177.786 46.2313L179.61 46.3589L179.291 50.8232C179.288 51.3164 179.184 51.8036 178.986 52.2555C178.788 52.7075 178.501 53.1146 178.141 53.4523C177.343 54.0037 176.38 54.2664 175.411 54.1968C174.443 54.1272 173.528 53.7295 172.817 53.0696Z" fill="white"/>
<path d="M187.853 55.706L188.649 50.9795L185.653 54.473L184.829 54.3313L183.168 50.1433L182.38 54.7706L180.684 54.4801L182.039 46.6001L183.523 46.8481L185.653 52.2479L189.401 47.8473L190.899 48.1024L189.571 55.9824L187.853 55.706Z" fill="white"/>
<path d="M262.469 115.423L255.023 118.356L254.313 116.634L257.372 115.43L256.066 112.042L253.006 113.24L252.332 111.525L259.779 108.591L260.489 110.313L257.55 111.468L258.884 114.841L261.816 113.686L262.469 115.423Z" fill="white"/>
<path d="M263.156 117.492L263.752 119.242L256.171 121.814L255.574 120.064L263.156 117.492Z" fill="white"/>
<path d="M262.25 127.561L262.719 129.184L259.602 130.091C259.149 129.749 258.76 129.329 258.452 128.851C258.139 128.362 257.9 127.83 257.742 127.271C257.512 126.527 257.473 125.738 257.629 124.975C257.772 124.261 258.112 123.601 258.609 123.069C259.129 122.531 259.782 122.138 260.502 121.929C261.221 121.72 261.983 121.703 262.712 121.878C263.419 122.067 264.06 122.447 264.565 122.977C265.106 123.548 265.499 124.244 265.707 125.003C265.884 125.627 265.94 126.279 265.871 126.924C265.806 127.517 265.605 128.087 265.282 128.589L263.897 127.753C264.1 127.422 264.231 127.052 264.281 126.668C264.332 126.283 264.3 125.892 264.188 125.521C264.056 125.062 263.812 124.643 263.478 124.302C263.173 123.985 262.78 123.766 262.35 123.671C261.894 123.564 261.419 123.581 260.972 123.721C260.525 123.85 260.118 124.095 259.794 124.429C259.486 124.742 259.272 125.135 259.176 125.563C259.078 126.021 259.1 126.498 259.24 126.945C259.365 127.425 259.609 127.867 259.95 128.228L262.25 127.561Z" fill="white"/>
<path d="M268.538 137.319L260.729 139.02L260.331 137.213L263.54 136.504L262.766 132.961L259.558 133.67L259.16 131.863L266.969 130.155L267.366 131.962L264.278 132.635L265.059 136.178L268.14 135.505L268.538 137.319Z" fill="white"/>
<path d="M188.979 136.384C190.38 130.497 186.736 124.591 180.839 123.192C174.942 121.793 169.025 125.43 167.624 131.317C166.222 137.204 169.866 143.11 175.763 144.509C181.66 145.908 187.577 142.27 188.979 136.384Z" fill="#263238"/>
<path d="M92.0942 104.956C91.9697 105.299 91.915 105.664 91.9331 106.029C91.9512 106.394 92.0418 106.752 92.1997 107.082C92.3576 107.411 92.5795 107.706 92.8527 107.95C93.1259 108.193 93.4448 108.38 93.7908 108.499L178.31 140.012L182.974 128.943L95.4946 103.312C94.8246 103.103 94.1002 103.157 93.4686 103.462C92.837 103.768 92.3456 104.302 92.0942 104.956Z" fill="#263238"/>
<path d="M188.979 136.384C190.38 130.497 186.736 124.591 180.839 123.192C174.942 121.793 169.025 125.43 167.624 131.317C166.222 137.204 169.866 143.11 175.763 144.509C181.66 145.908 187.577 142.27 188.979 136.384Z" fill="#263238"/>
<path d="M92.0942 104.956C91.9697 105.299 91.915 105.664 91.9331 106.029C91.9512 106.394 92.0418 106.752 92.1997 107.082C92.3576 107.411 92.5795 107.706 92.8527 107.95C93.1259 108.193 93.4448 108.38 93.7908 108.499L178.31 140.012L182.974 128.943L95.4946 103.312C94.8246 103.103 94.1002 103.157 93.4686 103.462C92.837 103.768 92.3456 104.302 92.0942 104.956Z" fill="#263238"/>
<path d="M159.227 131.763C159.202 131.343 159.202 130.922 159.227 130.502C159.227 130.275 159.27 130.055 159.291 129.836C159.249 130.218 159.291 129.701 159.341 129.574C159.421 129.157 159.523 128.746 159.646 128.341C159.71 128.128 159.781 127.915 159.859 127.71L159.966 127.433C160.086 127.115 159.895 127.561 159.966 127.377C160.318 126.61 160.741 125.877 161.229 125.187C161.229 125.187 161.449 124.911 161.314 125.074C161.18 125.237 161.385 124.989 161.414 124.96C161.556 124.79 161.698 124.627 161.854 124.464C162.161 124.139 162.485 123.832 162.826 123.543C163.157 123.209 163.342 122.758 163.342 122.289C163.342 121.819 163.157 121.369 162.826 121.035C162.488 120.715 162.039 120.537 161.574 120.537C161.108 120.537 160.659 120.715 160.321 121.035C158.789 122.361 157.574 124.013 156.766 125.87C155.958 127.727 155.576 129.74 155.649 131.763C155.649 132.233 155.836 132.684 156.169 133.016C156.502 133.348 156.954 133.535 157.424 133.535C157.895 133.535 158.346 133.348 158.679 133.016C159.012 132.684 159.199 132.233 159.199 131.763H159.227Z" fill="#B56F57"/>
<path d="M159.24 130.041C158.66 129.966 158.085 129.862 157.515 129.729C156.929 129.718 156.344 129.675 155.762 129.602C156.313 129.312 156.95 129.229 157.558 129.368C158.182 129.381 158.78 129.62 159.24 130.041Z" fill="#263238"/>
<path d="M160.092 127.171C159.563 126.923 159.046 126.649 158.545 126.349C157.686 125.938 156.912 125.797 156.926 125.69C157.538 125.581 158.168 125.696 158.701 126.016C159.652 126.448 160.184 127.115 160.092 127.171Z" fill="#263238"/>
<path d="M161.4 125.109C161.308 125.159 160.896 124.493 160.201 123.841C159.505 123.189 158.83 122.792 158.873 122.693C159.49 122.784 160.053 123.097 160.456 123.572C161.201 124.28 161.514 125.074 161.4 125.109Z" fill="#263238"/>
<path d="M147.739 127.674C147.714 127.254 147.714 126.833 147.739 126.413C147.739 126.186 147.782 125.966 147.803 125.747C147.761 126.129 147.803 125.612 147.853 125.484C147.932 125.071 148.034 124.661 148.158 124.259C148.222 124.039 148.293 123.833 148.371 123.621L148.478 123.344C148.598 123.025 148.407 123.479 148.478 123.288C148.829 122.522 149.252 121.791 149.741 121.105C149.741 121.105 149.961 120.822 149.826 120.985C149.691 121.148 149.897 120.9 149.926 120.871C150.068 120.701 150.217 120.538 150.366 120.375C150.673 120.05 150.997 119.743 151.338 119.454C151.67 119.122 151.856 118.672 151.856 118.203C151.856 117.734 151.67 117.285 151.338 116.953C151.001 116.63 150.552 116.45 150.085 116.45C149.618 116.45 149.17 116.63 148.833 116.953C147.3 118.277 146.085 119.928 145.277 121.784C144.468 123.639 144.087 125.652 144.161 127.674C144.161 128.144 144.348 128.595 144.681 128.927C145.014 129.259 145.465 129.446 145.936 129.446C146.407 129.446 146.858 129.259 147.191 128.927C147.524 128.595 147.711 128.144 147.711 127.674H147.739Z" fill="#B56F57"/>
<path d="M147.756 125.952C147.176 125.878 146.6 125.774 146.031 125.641C145.444 125.629 144.859 125.587 144.277 125.513C144.846 125.283 145.465 125.202 146.074 125.279C146.683 125.356 147.262 125.588 147.756 125.952Z" fill="#263238"/>
<path d="M148.627 123.082C148.098 122.835 147.581 122.56 147.08 122.26C146.221 121.849 145.447 121.708 145.461 121.601C146.073 121.492 146.703 121.607 147.236 121.927C148.166 122.36 148.734 123.026 148.627 123.082Z" fill="#263238"/>
<path d="M149.912 121.02C149.82 121.07 149.401 120.404 148.712 119.752C148.024 119.1 147.342 118.703 147.385 118.604C147.999 118.703 148.56 119.014 148.968 119.483C149.713 120.191 150.004 120.985 149.912 121.02Z" fill="#263238"/>
<path d="M163.77 133.379C163.746 132.959 163.746 132.538 163.77 132.118C163.77 131.891 163.813 131.671 163.834 131.451C163.792 131.834 163.834 131.317 163.884 131.189C163.963 130.775 164.065 130.366 164.189 129.963C164.255 129.751 164.326 129.538 164.402 129.326L164.509 129.049C164.629 128.73 164.438 129.184 164.509 128.992C164.861 128.228 165.284 127.497 165.772 126.81C165.772 126.774 165.992 126.526 165.857 126.689C165.723 126.852 165.928 126.604 165.95 126.583C166.099 126.406 166.241 126.243 166.397 126.08C166.704 125.755 167.028 125.447 167.37 125.159C167.701 124.827 167.887 124.377 167.887 123.908C167.887 123.439 167.701 122.989 167.37 122.657C167.031 122.334 166.581 122.154 166.113 122.154C165.645 122.154 165.195 122.334 164.857 122.657C163.327 123.984 162.114 125.635 161.307 127.49C160.5 129.345 160.119 131.358 160.193 133.379C160.193 133.849 160.38 134.299 160.712 134.632C161.045 134.964 161.497 135.15 161.967 135.15C162.438 135.15 162.889 134.964 163.222 134.632C163.555 134.299 163.742 133.849 163.742 133.379H163.77Z" fill="#B56F57"/>
<path d="M163.776 131.657C163.196 131.585 162.62 131.481 162.051 131.345C161.467 131.334 160.884 131.291 160.305 131.218C160.856 130.928 161.493 130.845 162.101 130.984C162.723 130.997 163.318 131.236 163.776 131.657Z" fill="#263238"/>
<path d="M164.658 128.794C164.58 128.865 163.948 128.362 163.11 127.965C162.272 127.568 161.477 127.412 161.484 127.306C162.098 127.196 162.731 127.311 163.266 127.632C164.196 128.064 164.729 128.73 164.658 128.794Z" fill="#263238"/>
<path d="M165.943 126.732C165.851 126.774 165.432 126.108 164.743 125.456C164.055 124.804 163.373 124.407 163.416 124.308C164.031 124.407 164.591 124.718 164.999 125.187C165.773 125.895 166.035 126.689 165.943 126.732Z" fill="#263238"/>
<path d="M60.1484 313.35L67.4532 323.434C67.4532 323.434 51.9066 331.009 52.0202 334L83.2127 330.91L82.9146 327.707C82.8212 326.734 82.5391 325.788 82.084 324.922L72.6141 306.838L60.1484 313.35Z" fill="#263238"/>
<path d="M83.2107 330.91L82.877 328.395L53.0616 332.299C53.0616 332.299 51.7341 333.043 51.9897 334L83.2107 330.91Z" fill="#455A64"/>
<path d="M67.2827 323.448C67.2827 323.597 68.0707 323.59 68.8728 324.008C69.675 324.426 70.1293 325.022 70.2926 324.944C70.4559 324.866 70.1151 324.015 69.1355 323.526C68.1558 323.037 67.2401 323.314 67.2827 323.448Z" fill="white"/>
<path d="M63.9961 325.22C63.9961 325.369 64.6634 325.567 65.2455 326.155C65.8277 326.744 66.0406 327.41 66.1897 327.388C66.3388 327.367 66.353 326.503 65.6218 325.78C64.8906 325.057 63.989 325.071 63.9961 325.22Z" fill="white"/>
<path d="M62.5401 329.451C62.6821 329.451 62.8241 328.692 62.3485 327.899C61.8728 327.105 61.1275 326.843 61.0778 326.977C61.0281 327.112 61.5108 327.509 61.887 328.168C62.2633 328.827 62.3911 329.451 62.5401 329.451Z" fill="white"/>
<path d="M66.033 321.294C66.1537 321.386 66.6861 320.883 67.4528 320.586C68.2195 320.288 68.9791 320.196 68.9933 320.04C69.0075 319.884 68.1769 319.686 67.2398 320.097C66.3028 320.508 65.9124 321.216 66.033 321.294Z" fill="white"/>
<path d="M155.315 296.747L167.965 312.054L181.453 321.266C181.684 321.423 181.879 321.625 182.028 321.861C182.177 322.096 182.275 322.36 182.317 322.635C182.359 322.911 182.344 323.192 182.272 323.461C182.2 323.73 182.074 323.981 181.901 324.2C181.701 324.455 181.442 324.658 181.147 324.792C180.851 324.927 180.528 324.988 180.204 324.972C176.001 324.759 160.568 323.881 159.702 322.711C158.701 321.358 145.277 307.455 145.277 307.455L155.315 296.747Z" fill="#263238"/>
<path d="M181.922 324.214L158.844 321.712L159.397 322.35C159.875 322.9 160.531 323.264 161.25 323.378C163.174 323.668 168.505 324.377 180.176 325.029C180.512 325.046 180.846 324.981 181.151 324.839C181.455 324.697 181.72 324.482 181.922 324.214Z" fill="#455A64"/>
<path d="M172.799 320.621C172.755 319.841 172.861 319.059 173.111 318.318C173.601 317.106 174.616 316.603 174.531 316.49C174.446 316.376 174.219 316.49 173.821 316.745C173.315 317.095 172.919 317.581 172.679 318.147C172.439 318.712 172.365 319.335 172.465 319.941C172.586 320.38 172.756 320.642 172.799 320.621Z" fill="white"/>
<path d="M175.61 321.712C175.832 321.098 176.091 320.497 176.383 319.912C176.951 319.005 177.746 318.573 177.69 318.495C177.633 318.417 176.667 318.686 176.014 319.714C175.797 319.993 175.647 320.319 175.577 320.666C175.507 321.012 175.518 321.371 175.61 321.712Z" fill="white"/>
<path d="M168.612 319.771C168.747 319.771 168.832 318.389 169.62 316.936C170.408 315.483 171.48 314.597 171.402 314.491C171.324 314.385 170.053 315.15 169.23 316.738C168.674 317.645 168.455 318.719 168.612 319.771Z" fill="white"/>
<path d="M164.352 315.42C164.472 315.476 165.005 314.413 166.048 313.442C167.092 312.472 168.178 311.99 168.128 311.869C168.078 311.749 166.865 312.068 165.75 313.124C165.03 313.703 164.536 314.515 164.352 315.42Z" fill="white"/>
<path d="M160.511 311.04C160.98 310.256 161.556 309.541 162.222 308.915C163.386 307.958 164.671 307.823 164.65 307.696C164.628 307.568 164.316 307.597 163.798 307.696C163.118 307.835 162.483 308.137 161.945 308.574C161.402 309.008 160.972 309.564 160.688 310.197C160.482 310.693 160.461 311.026 160.511 311.04Z" fill="white"/>
<path d="M161.47 308.114C161.47 308.114 161.349 307.866 161.001 307.525C160.496 307.05 159.903 306.677 159.255 306.427C158.798 306.208 158.282 306.143 157.785 306.243C157.623 306.292 157.481 306.39 157.377 306.523C157.272 306.656 157.212 306.818 157.203 306.987C157.21 307.312 157.333 307.624 157.551 307.866C158.023 308.341 158.646 308.637 159.313 308.705C159.98 308.772 160.649 308.606 161.207 308.234C161.747 307.853 162.163 307.32 162.4 306.703C162.638 306.087 162.687 305.413 162.542 304.769C162.504 304.607 162.432 304.454 162.33 304.322C162.229 304.19 162.1 304.082 161.952 304.004C161.796 303.94 161.623 303.929 161.459 303.971C161.296 304.013 161.15 304.106 161.044 304.237C160.741 304.635 160.552 305.108 160.497 305.605C160.376 306.282 160.376 306.976 160.497 307.653C160.521 307.902 160.596 308.143 160.717 308.362C160.618 307.459 160.652 306.547 160.816 305.655C160.887 305.226 161.06 304.82 161.32 304.471C161.379 304.4 161.459 304.349 161.548 304.326C161.637 304.303 161.732 304.309 161.817 304.344C161.911 304.401 161.992 304.477 162.054 304.568C162.116 304.658 162.159 304.76 162.179 304.868C162.287 305.428 162.23 306.006 162.018 306.535C161.805 307.064 161.445 307.521 160.98 307.851C160.51 308.166 159.946 308.311 159.383 308.263C158.819 308.216 158.288 307.978 157.878 307.589C157.72 307.426 157.625 307.213 157.608 306.987C157.609 306.893 157.64 306.803 157.696 306.728C157.752 306.653 157.831 306.597 157.92 306.569C158.343 306.486 158.781 306.533 159.177 306.703C160.017 307.038 160.792 307.515 161.47 308.114Z" fill="white"/>
<path d="M51.5224 236.457C51.5224 236.457 23.8864 266.063 26.4491 273.256C30.5877 284.906 61.7874 320.444 61.7874 320.444L77.9587 312.649L57.812 279.506L52.2536 271.399L74.4447 250.558L76.333 250.367C76.333 250.367 118.926 277.763 119.338 277.536C119.75 277.309 152.192 316.454 152.192 316.454L167.426 306.916C167.426 306.916 134.622 263.994 133.941 262.981C133.259 261.967 95.7769 233.558 95.7769 233.558L84.5252 218.337L52.8073 223.935L51.5224 236.457Z" fill="#455A64"/>
<path d="M73.8764 249.595C73.8196 249.63 73.3014 248.645 72.2295 247.221C71.5964 246.396 70.9087 245.615 70.1708 244.882C69.2587 243.992 68.2758 243.176 67.2318 242.444C66.1757 241.728 65.0649 241.095 63.9096 240.552C62.9645 240.117 61.9895 239.75 60.9919 239.454C59.2811 238.951 58.1523 238.816 58.1523 238.745C58.4137 238.727 58.6763 238.744 58.9332 238.795C59.239 238.821 59.5426 238.869 59.8419 238.937C60.1968 239.008 60.6015 239.071 61.0274 239.199C62.0526 239.464 63.0545 239.813 64.0231 240.241C66.412 241.292 68.5798 242.785 70.4121 244.641C71.1523 245.395 71.829 246.207 72.4353 247.072C72.7122 247.426 72.911 247.78 73.1026 248.085C73.2696 248.343 73.4213 248.61 73.557 248.886C73.6919 249.108 73.7992 249.346 73.8764 249.595Z" fill="#263238"/>
<path d="M91.4254 234.635C91.4254 234.713 90.2967 235.039 88.6285 235.967C87.6583 236.518 86.7326 237.144 85.8599 237.838C84.7988 238.71 83.8024 239.657 82.8783 240.673C81.2222 242.524 79.7924 244.565 78.619 246.753C77.7103 248.432 77.2844 249.538 77.1992 249.517C77.2521 249.241 77.3355 248.973 77.4477 248.716C77.5329 248.461 77.6607 248.156 77.8168 247.809C77.973 247.462 78.1434 247.058 78.3634 246.632C79.4967 244.381 80.9294 242.293 82.6228 240.425C83.5635 239.403 84.5816 238.456 85.6682 237.59C86.5599 236.9 87.51 236.288 88.5078 235.762C88.8896 235.555 89.2831 235.371 89.6862 235.209C89.9874 235.073 90.2982 234.96 90.6161 234.869C90.8773 234.764 91.1484 234.686 91.4254 234.635Z" fill="#263238"/>
<path d="M58.3945 166.997C58.3945 166.997 61.6245 167.457 66.6648 170.54L86.1228 182.586L102.642 167.372L110.273 174.303C110.273 174.303 93.7258 194.073 92.6538 195.066C88.5862 198.701 84.7812 196.681 84.7812 196.681L68.0916 188.624L58.3945 166.997Z" fill="#455A64"/>
<path d="M79.4271 208.608L58.7551 166.968L44.1739 168.733L39.6874 167.238L24.0698 171.489L23.5374 179.532C23.5374 179.532 12.5838 190.509 12.8891 191.196L47.7518 227.181C47.7518 227.181 47.9718 240.694 48.1493 240.347C51.6988 233.573 59.4153 237.229 70.1559 241.006L71.1781 224.885L78.7101 238.987L97.6641 229.066L79.4271 208.608Z" fill="#455A64"/>
<path d="M25.0939 174.848L51.3882 194.704L41.5421 168.584L38.9723 166.068L23.9297 171.73L25.0939 174.848Z" fill="#E0E0E0"/>
<path d="M11.7268 137.184C11.7189 136.558 11.9058 135.944 12.2617 135.427C12.6177 134.911 13.1252 134.517 13.7145 134.3C14.0873 133.456 14.732 132.761 15.5462 132.324C16.3603 131.888 17.2972 131.735 18.2081 131.891C18.526 131.34 18.9819 130.881 19.5311 130.558C20.0803 130.236 20.7039 130.062 21.3409 130.053C21.9779 130.043 22.6063 130.199 23.1647 130.506C23.7231 130.812 24.1922 131.257 24.5261 131.799C25.0295 131.369 25.6586 131.113 26.3197 131.068C26.9808 131.024 27.6384 131.195 28.1947 131.554C28.751 131.913 29.176 132.442 29.4066 133.062C29.6371 133.682 29.6608 134.36 29.4741 134.995C30.1958 134.841 30.949 134.963 31.5854 135.336C32.2218 135.709 32.6953 136.306 32.9125 137.01C33.1298 137.714 33.0752 138.474 32.7594 139.139C32.4435 139.805 31.8894 140.329 31.2062 140.607L13.963 139.898C13.3526 139.737 12.8084 139.388 12.4072 138.901C12.006 138.414 11.7681 137.814 11.7268 137.184Z" fill="#263238"/>
<path d="M31.7508 140.763C29.9895 138.151 27.307 136.297 24.2377 135.571C21.1683 134.844 17.9376 135.299 15.1891 136.844L14.6212 137.163C8.70779 140.947 8.6297 148.069 12.5838 153.859L24.5951 173.516L39.3324 175.876L38.9775 166.075L38.2676 164.375C38.2676 164.375 43.6273 160.165 40.3973 154.27C38.8355 151.407 35.1512 145.801 31.7508 140.763Z" fill="#FFBF9D"/>
<path d="M38.3026 164.332C35.5766 165.864 32.4669 166.583 29.3438 166.401C29.3438 166.401 33.4114 169.888 38.977 166.068L38.3026 164.332Z" fill="#FF9A6C"/>
<path d="M32.9662 146.914C33.0916 147.131 33.1269 147.388 33.0646 147.63C33.0022 147.873 32.8471 148.081 32.6326 148.211C32.5311 148.279 32.4168 148.326 32.2967 148.349C32.1766 148.373 32.053 148.372 31.9332 148.347C31.8134 148.322 31.6999 148.273 31.5993 148.203C31.4987 148.134 31.4132 148.045 31.3477 147.941C31.2198 147.726 31.1824 147.469 31.2435 147.226C31.3047 146.983 31.4595 146.774 31.6742 146.644C31.7764 146.576 31.8911 146.529 32.0118 146.505C32.1325 146.482 32.2567 146.483 32.377 146.508C32.4974 146.533 32.6115 146.582 32.7127 146.651C32.8139 146.721 32.9001 146.81 32.9662 146.914Z" fill="#263238"/>
<path d="M32.3127 144.596C32.2701 144.766 31.3757 144.653 30.4741 145.163C29.5725 145.673 29.1608 146.488 29.0046 146.439C28.8485 146.389 28.9194 146.155 29.0898 145.787C29.3292 145.302 29.7105 144.902 30.183 144.639C30.6521 144.372 31.1946 144.263 31.7306 144.327C32.1565 144.377 32.3624 144.518 32.3127 144.596Z" fill="#263238"/>
<path d="M25.3336 151.456C25.4572 151.673 25.4915 151.93 25.4292 152.172C25.367 152.414 25.2131 152.622 25 152.753C24.8979 152.821 24.7831 152.869 24.6624 152.892C24.5417 152.916 24.4176 152.915 24.2972 152.89C24.1768 152.865 24.0627 152.816 23.9615 152.746C23.8603 152.676 23.7741 152.587 23.708 152.484C23.5844 152.267 23.5501 152.01 23.6124 151.768C23.6746 151.526 23.8285 151.318 24.0416 151.187C24.1437 151.119 24.2585 151.071 24.3792 151.048C24.4999 151.024 24.624 151.025 24.7444 151.05C24.8648 151.075 24.9789 151.124 25.0801 151.194C25.1813 151.264 25.2675 151.353 25.3336 151.456Z" fill="#263238"/>
<path d="M23.6291 149.316C23.5865 149.486 22.685 149.372 21.7834 149.883C20.8818 150.393 20.4772 151.208 20.321 151.151C20.1649 151.094 20.2358 150.875 20.4062 150.506C20.6463 150.018 21.0303 149.615 21.5066 149.351C21.9756 149.084 22.5181 148.975 23.0541 149.039C23.4446 149.096 23.6504 149.238 23.6291 149.316Z" fill="#263238"/>
<path d="M30.3606 154.326C30.7548 153.912 31.1982 153.548 31.681 153.242C31.894 153.086 32.0928 152.916 32.0431 152.739C31.9934 152.562 31.7662 152.349 31.5036 152.144L29.8353 150.776C27.4856 148.813 25.647 147.148 25.7251 147.049C25.8031 146.949 27.7766 148.466 30.1264 150.436L31.7733 151.853C32.0732 152.05 32.2943 152.346 32.398 152.689C32.4108 152.789 32.4002 152.89 32.3669 152.985C32.3336 153.079 32.2786 153.165 32.2063 153.235C32.0987 153.343 31.9769 153.436 31.8443 153.511C31.3867 153.845 30.8881 154.119 30.3606 154.326Z" fill="#263238"/>
<path d="M28.0548 156.438C28.1968 156.346 28.7647 157.324 29.9786 157.55C31.1925 157.777 32.1863 157.076 32.2715 157.21C32.3567 157.345 32.1438 157.529 31.7107 157.791C31.1433 158.122 30.4763 158.24 29.8295 158.124C29.2055 158.017 28.6478 157.671 28.2748 157.161C28.0548 156.771 27.9909 156.473 28.0548 156.438Z" fill="#263238"/>
<path d="M23.0853 147.268C23.0001 147.552 22.0843 147.431 21.0124 147.587C19.9405 147.743 19.0744 148.083 18.9324 147.835C18.8685 147.715 19.0176 147.452 19.3583 147.176C19.808 146.835 20.339 146.618 20.8988 146.545C21.451 146.465 22.0148 146.534 22.5316 146.744C22.9291 146.914 23.135 147.134 23.0853 147.268Z" fill="#263238"/>
<path d="M30.7378 142.244C30.7378 142.542 30.0279 142.733 29.2754 143.208C28.5229 143.683 28.0544 144.221 27.7775 144.108C27.6497 144.051 27.6142 143.796 27.7775 143.435C27.976 142.971 28.3132 142.58 28.743 142.315C29.1657 142.044 29.6609 141.908 30.1627 141.925C30.5248 141.961 30.7449 142.102 30.7378 142.244Z" fill="#263238"/>
<path d="M29.6727 138.389C29.6727 138.389 26.0593 135.554 23.8019 135.724C21.0688 135.895 21.4734 138.764 19.1024 139.338C16.7314 139.912 14.1332 140.047 12.9264 142.825C11.606 145.837 13.3665 146.446 14.6869 149.125C20.0537 159.995 19.7981 164.056 16.4545 159.4C16.0854 158.89 14.3249 159.301 12.8128 157.132C10.8464 154.298 8.68832 150.755 8.16301 148.267C7.72287 146.141 8.04942 144.363 9.10716 141.982C10.7896 138.219 14.7224 135.951 17.562 134.711C20.4015 133.471 27.3442 133.655 29.6727 138.389Z" fill="#263238"/>
<path d="M16.7369 159.032C16.609 158.82 16.4392 158.637 16.2381 158.493C16.0369 158.349 15.8086 158.247 15.5668 158.194C15.3251 158.141 15.0751 158.138 14.832 158.184C14.589 158.231 14.3579 158.326 14.1529 158.465C13.1165 159.173 12.2504 160.484 13.5921 162.716C15.9773 166.649 19.4416 163.425 19.3848 163.333C19.328 163.241 17.752 160.668 16.7369 159.032Z" fill="#FFBF9D"/>
<path d="M17.6258 162.355C17.6258 162.355 17.5903 162.447 17.5051 162.567C17.3825 162.737 17.1997 162.854 16.994 162.893C16.6429 162.883 16.3009 162.78 16.002 162.596C15.703 162.412 15.4576 162.153 15.2903 161.845C15.0746 161.513 14.9363 161.138 14.8856 160.746C14.85 160.601 14.8494 160.45 14.884 160.304C14.9185 160.159 14.9872 160.024 15.0844 159.91C15.1494 159.84 15.2377 159.796 15.3329 159.785C15.4281 159.775 15.5239 159.799 15.6026 159.853C15.7233 159.931 15.7446 160.023 15.773 160.016C15.8014 160.009 15.8156 159.896 15.6878 159.754C15.6057 159.672 15.4982 159.619 15.3825 159.605C15.3043 159.596 15.225 159.602 15.1494 159.624C15.0737 159.646 15.0033 159.683 14.9424 159.733C14.7997 159.862 14.6927 160.026 14.6318 160.208C14.5709 160.391 14.558 160.586 14.5946 160.775C14.6314 161.217 14.7778 161.643 15.0205 162.015C15.2131 162.377 15.5084 162.674 15.8696 162.87C16.2307 163.065 16.6416 163.15 17.0508 163.113C17.1759 163.079 17.2918 163.017 17.39 162.933C17.4882 162.848 17.5664 162.743 17.6187 162.624C17.6755 162.454 17.6471 162.355 17.6258 162.355Z" fill="#FF9A6C"/>
<path d="M12.4355 151.222C13.1485 151.342 13.8803 151.284 14.5652 151.052C14.904 150.923 15.185 150.676 15.357 150.358C15.529 150.039 15.5806 149.669 15.5022 149.316C15.3886 149.011 15.1402 148.728 15.2041 148.409C15.268 148.09 15.7294 147.877 16.0843 147.7C16.6968 147.415 17.1926 146.929 17.4886 146.323C17.7846 145.716 17.8627 145.027 17.71 144.37C18.0016 144.468 18.3196 144.453 18.601 144.328C18.8823 144.204 19.1065 143.978 19.2291 143.696C19.4595 143.127 19.6077 142.528 19.6693 141.918C19.7005 141.612 19.8069 141.319 19.979 141.064C20.1512 140.809 20.3838 140.601 20.656 140.458C20.9921 140.393 21.3204 140.293 21.6357 140.16C22.1397 139.813 22.0474 139.055 21.8344 138.488C21.6215 137.921 21.3375 137.276 21.6286 136.745C21.9196 136.213 22.5159 136.1 23.0484 135.894C23.5808 135.689 24.1345 135.228 23.9925 134.69C23.9424 134.55 23.8643 134.422 23.763 134.314C23.6617 134.205 23.5393 134.119 23.4033 134.059C22.808 133.753 22.1267 133.657 21.4697 133.785C20.8127 133.914 20.2184 134.26 19.7829 134.768C19.2093 134.212 18.4836 133.838 17.6973 133.693C16.9111 133.549 16.0996 133.64 15.3652 133.955C14.6309 134.271 14.0065 134.796 13.571 135.465C13.1355 136.135 12.9084 136.918 12.9182 137.715C12.2758 137.572 11.6081 137.584 10.9715 137.752C10.335 137.92 9.74827 138.239 9.26096 138.681C8.77365 139.123 8.40004 139.675 8.17169 140.292C7.94334 140.908 7.86696 141.57 7.94899 142.222C7.38624 142.372 6.87968 142.683 6.49184 143.116C6.104 143.55 5.85186 144.087 5.76655 144.662C5.68123 145.238 5.76648 145.825 6.01177 146.352C6.25705 146.879 6.65164 147.323 7.14681 147.629C6.88028 148.024 6.7178 148.48 6.67437 148.955C6.63094 149.429 6.70798 149.907 6.89835 150.343C7.00611 150.551 7.15793 150.733 7.34323 150.876C7.52852 151.019 7.74285 151.12 7.97126 151.172C8.19967 151.224 8.43668 151.225 8.66578 151.177C8.89488 151.128 9.11056 151.03 9.29778 150.889C9.29307 151.325 9.46207 151.745 9.76761 152.057C10.0731 152.368 10.4902 152.546 10.927 152.551C11.3638 152.555 11.7846 152.387 12.0967 152.082C12.4089 151.777 12.587 151.36 12.5917 150.924" fill="#263238"/>
<path d="M9 151.109C9 151.109 9.12068 151.484 9.70989 151.74C10.0547 151.873 10.437 151.873 10.7818 151.74C10.9987 151.659 11.1955 151.532 11.3585 151.368C11.5215 151.204 11.6469 151.007 11.726 150.79L11.5414 150.861C11.9632 151.117 12.4234 151.303 12.9044 151.414C13.228 151.488 13.5624 151.502 13.8911 151.456C14.2042 151.407 14.4984 151.275 14.743 151.073C14.9617 150.925 15.1454 150.731 15.2815 150.504C15.4175 150.278 15.5027 150.025 15.531 149.762C15.5476 149.418 15.497 149.074 15.3819 148.749C15.3109 148.522 15.247 148.402 15.2328 148.409C15.2186 148.416 15.2328 148.544 15.2825 148.77C15.3528 149.089 15.372 149.417 15.3393 149.741C15.2873 149.996 15.1825 150.237 15.0317 150.45C14.8809 150.662 14.6875 150.84 14.4637 150.974C14.2399 151.107 13.9906 151.193 13.7319 151.224C13.4732 151.256 13.2107 151.234 12.9612 151.158C12.5073 151.058 12.0715 150.888 11.6692 150.655L11.5343 150.57L11.4846 150.719C11.4199 150.909 11.3156 151.083 11.1785 151.229C11.0414 151.376 10.8748 151.492 10.6895 151.569C10.3849 151.682 10.0501 151.682 9.74538 151.569C9.46883 151.467 9.21547 151.31 9 151.109Z" fill="#455A64"/>
<path d="M11.4339 137.702C11.4339 137.702 11.5546 137.666 11.7747 137.645C12.0931 137.612 12.4142 137.673 12.6975 137.822L12.7898 137.872V137.766C12.9134 136.804 13.2798 135.89 13.8547 135.108C14.2337 134.6 14.7179 134.18 15.2744 133.875C15.8757 133.539 16.5593 133.377 17.2479 133.407C17.788 133.426 18.3179 133.559 18.8026 133.797C19.2461 134.027 19.6301 134.357 19.9242 134.761L20.0023 134.874L20.1088 134.775C20.5897 134.319 21.2276 134.066 21.8906 134.066C22.4141 134.065 22.9251 134.226 23.353 134.527C23.7295 134.808 24.0417 135.165 24.2687 135.576C24.2687 135.576 24.2687 135.441 24.1339 135.222C23.9603 134.901 23.7178 134.623 23.424 134.407C22.9805 134.063 22.4377 133.872 21.8764 133.861C21.5166 133.854 21.159 133.918 20.8241 134.05C20.4891 134.181 20.1833 134.377 19.9242 134.626H20.1088C19.7977 134.182 19.3837 133.82 18.902 133.57C18.3842 133.315 17.818 133.173 17.2408 133.152C16.4968 133.117 15.7582 133.294 15.1112 133.663C14.5505 133.998 14.0668 134.447 13.6914 134.981C13.1113 135.799 12.7631 136.759 12.6833 137.758L12.7827 137.702C12.4736 137.554 12.1253 137.51 11.7889 137.574C11.5333 137.617 11.4268 137.688 11.4339 137.702Z" fill="#455A64"/>
<path d="M52.0962 196.624C51.9618 196.615 51.8299 196.584 51.7057 196.532L50.6196 196.192L46.6371 194.867L33.5397 190.367L29.8127 189.063L29.6566 189.014V188.851L30.7782 184.039L30.9486 184.237L25.4682 184.443H25.3759V184.358C24.808 182.884 24.3466 181.686 24.0129 180.815C23.8709 180.432 23.7574 180.106 23.658 179.858C23.6157 179.745 23.5825 179.629 23.5586 179.511C23.6293 179.609 23.6866 179.716 23.729 179.83C23.8355 180.078 23.9703 180.389 24.1407 180.765C24.5028 181.637 24.9997 182.82 25.6031 184.308L25.4824 184.23L30.9627 183.947H31.1757L31.1331 184.159C30.7924 185.662 30.4232 187.277 30.0399 188.985L29.9192 188.773L33.6603 189.991L46.7223 194.59L50.6622 196.008L51.7341 196.412C51.8602 196.473 51.9813 196.544 52.0962 196.624Z" fill="#263238"/>
<path d="M71.2281 224.856C71.1555 224.756 71.0959 224.646 71.0507 224.53L70.6034 223.574C70.2201 222.745 69.7019 221.519 69.0062 220.031C68.1852 218.303 67.2705 216.621 66.266 214.992C65.6981 214.071 65.0734 213.121 64.3848 212.158C63.6962 211.194 62.965 210.244 62.1983 209.245C59.1742 205.256 56.4553 201.635 54.496 198.998L52.1889 195.88C51.9404 195.54 51.7417 195.25 51.5784 195.023C51.4985 194.927 51.4339 194.82 51.3867 194.704C51.4791 194.785 51.5624 194.875 51.6352 194.973L52.3025 195.795C52.9059 196.561 53.7223 197.595 54.6948 198.857C56.7038 201.45 59.4653 205.043 62.5036 209.033C63.2561 210.032 64.0086 210.996 64.6901 211.966C65.3716 212.937 65.9963 213.887 66.5642 214.801C67.5612 216.447 68.4596 218.151 69.2547 219.903C69.9219 221.412 70.3976 222.646 70.7454 223.496L71.1217 224.481C71.176 224.6 71.2119 224.727 71.2281 224.856Z" fill="#263238"/>
<path d="M94.959 230.455C94.8704 230.521 94.7753 230.578 94.675 230.625L93.8302 231.085L90.586 232.807L85.4819 235.5L82.3158 237.165L80.605 238.087L79.7176 238.568L79.2704 238.817L79.0432 238.944L78.9367 239.008H78.8871C78.8871 239.008 78.887 238.746 78.8161 238.788L78.6386 239.001L71.0712 224.941L71.4048 224.842C71.6604 228.244 71.9301 231.858 72.207 235.578C72.349 237.428 72.4838 239.249 72.6116 241.027V241.368L72.3064 241.205L70.7091 240.305C70.182 239.994 69.6368 239.715 69.0764 239.468C68.0002 238.954 66.8902 238.514 65.7541 238.15C64.6632 237.784 63.5484 237.493 62.4176 237.279C61.8639 237.172 61.3031 237.137 60.7565 237.066C60.2153 236.995 59.6696 236.961 59.1237 236.967C55.2112 236.812 51.3679 238.03 48.2624 240.411L48.0494 240.581V240.305C47.9429 236.088 47.8649 232.658 47.801 230.263C47.801 229.094 47.801 228.18 47.7584 227.535C47.7584 227.237 47.7584 227.004 47.7584 226.826C47.7524 226.746 47.7524 226.666 47.7584 226.586C47.7655 226.666 47.7655 226.746 47.7584 226.826C47.7584 227.004 47.7584 227.245 47.7584 227.535L47.8791 230.263C47.9642 232.658 48.092 236.088 48.2411 240.305L48.021 240.213C51.1646 237.756 55.0773 236.488 59.0669 236.634C59.6221 236.626 60.1772 236.657 60.7281 236.726C61.2818 236.797 61.8497 236.832 62.4176 236.939C63.5646 237.153 64.6958 237.444 65.8038 237.81C66.9519 238.182 68.0757 238.624 69.1687 239.135C69.7437 239.362 70.2619 239.695 70.8156 239.979L72.4625 240.879L72.1857 241.049C72.0508 239.27 71.9159 237.449 71.7739 235.599C71.5042 231.879 71.2344 228.265 70.986 224.864L70.9221 224.013L71.3196 224.764L78.8871 238.887V238.93L78.6883 239.1C78.6457 239.135 78.5321 238.902 78.6173 238.859L78.6741 238.817L78.7877 238.753L79.0148 238.618L79.4692 238.377L80.3636 237.895L82.0816 236.995L85.2619 235.351L90.4015 232.722L93.6883 231.071L94.5543 230.646C94.68 230.564 94.8161 230.5 94.959 230.455Z" fill="#263238"/>
<path d="M53.4832 196.121C53.4353 196.013 53.4041 195.899 53.3909 195.781C53.3483 195.512 53.2844 195.179 53.2134 194.782C53.0643 193.861 52.8656 192.621 52.6171 191.111C52.1344 188.007 51.4813 183.713 50.7927 178.972C50.6152 177.768 50.4448 176.591 50.2816 175.429L50.4448 175.585L45.7596 175.16H45.5182L45.6247 174.947L47.4491 171.454L47.4846 171.617L44.4534 169.342L43.6725 168.733C43.4879 168.584 43.3956 168.506 43.4027 168.492C43.5146 168.539 43.6197 168.601 43.7151 168.676L44.5669 169.25L47.6692 171.433L47.7614 171.503L47.7118 171.603L45.9441 175.146L45.8163 174.905L50.5087 175.295H50.6507V175.436C50.814 176.57 50.9844 177.746 51.1618 178.944C51.8717 183.692 52.4609 187.986 52.8869 191.104C53.0785 192.614 53.2418 193.861 53.3625 194.789C53.4051 195.193 53.4477 195.498 53.4761 195.795C53.493 195.903 53.4954 196.013 53.4832 196.121Z" fill="#263238"/>
<path d="M60.1617 172.028C60.2469 171.985 64.3714 179.624 69.3903 189.091C74.4092 198.559 78.3633 206.276 78.2781 206.325C78.1929 206.375 74.0614 198.736 69.0496 189.261C64.0377 179.787 60.0694 172.077 60.1617 172.028Z" fill="#263238"/>
<path d="M39.2773 176.407C39.2773 176.357 39.2773 178.916 39.2773 178.916L41.3289 179.773L42.628 179.064L42.2518 176.839L39.6962 176.01L39.2773 176.407Z" fill="#FF5454"/>
<path d="M41.3359 179.773L43.6644 188.872L51.388 194.704L47.4197 184.167L42.5995 178.901L41.3359 179.773Z" fill="#FF5454"/>
<path d="M39.3478 176.166C39.4305 176.928 39.4542 177.696 39.4188 178.462V179.624C39.4188 179.837 39.4188 180.049 39.4188 180.269V180.538C39.4188 180.723 39.1561 180.701 39.1774 180.687H39.1348L38.8012 180.595L35.8622 179.752C33.7823 179.149 31.9081 178.582 30.5594 178.15C29.8226 177.958 29.1086 177.687 28.4297 177.342C28.6356 177.358 28.8385 177.401 29.0331 177.47L30.6587 177.895C32.0288 178.271 33.9171 178.795 35.9971 179.397L38.9219 180.255L39.2555 180.354H39.2981C39.2981 180.241 39.2555 180.517 39.2981 180.489H39.1561V180.248V179.603C39.1561 179.199 39.1916 178.809 39.2129 178.448C39.1956 177.685 39.2407 176.922 39.3478 176.166Z" fill="#263238"/>
<path d="M43.7071 174.203C43.866 175.139 43.9232 176.089 43.8775 177.038V177.264L43.6716 177.236L42.8623 177.023C41.6576 176.766 40.4825 176.386 39.3555 175.89C40.5772 176.035 41.7824 176.296 42.9546 176.669L43.7639 176.889L43.5367 177.059C43.4819 176.104 43.539 175.145 43.7071 174.203Z" fill="#263238"/>
<path d="M77.2571 213.058C77.0182 213.235 76.7584 213.383 76.4833 213.497C75.9722 213.759 75.2268 214.128 74.304 214.56C72.4583 215.439 69.8743 216.594 66.985 217.77C64.0957 218.946 61.4408 219.938 59.5028 220.605C58.5373 220.938 57.7493 221.2 57.2027 221.37C56.9265 221.479 56.6381 221.555 56.3438 221.597C56.6038 221.451 56.8772 221.33 57.1601 221.235L59.4176 220.357C61.3201 219.648 63.9538 218.606 66.843 217.423C69.7323 216.239 72.3234 215.134 74.1975 214.319L76.4194 213.362C76.6886 213.235 76.969 213.133 77.2571 213.058Z" fill="#263238"/>
<path d="M103.871 168.881L112.127 162.426L115.542 166.068L109.053 173.247L103.871 168.881Z" fill="#FFBF9D"/>
<path d="M121.255 155.609C121.255 155.609 120.886 154.191 119.381 155.02C118.835 155.325 115.491 157.983 115.491 157.983C115.491 157.983 113.227 159.627 113.148 159.747C113.19 160.228 113.283 160.703 113.425 161.164L116.222 160.009L121.255 155.609Z" fill="#FF9A6C"/>
<path d="M53.055 279.811C49.9339 264.573 44.844 249.805 37.9131 235.876C36.3921 232.808 35.9691 229.314 36.7143 225.973C37.4595 222.633 39.3281 219.648 42.0091 217.515L165.814 119.837L168.455 123.175L44.6499 220.853C42.7329 222.377 41.3971 224.511 40.8649 226.899C40.3327 229.287 40.6363 231.785 41.7252 233.976C48.8764 248.259 54.097 263.427 57.2505 279.081L53.055 279.811Z" fill="#B56F57"/>
<path d="M44.1092 238.965C43.3662 238.923 42.6228 239.041 41.9298 239.312C41.2795 239.677 40.7135 240.174 40.2687 240.772C40.2261 240.772 40.2687 240.481 40.4887 240.106C40.7963 239.613 41.238 239.218 41.7623 238.967C42.2866 238.716 42.8716 238.62 43.449 238.689C43.8891 238.781 44.1234 238.922 44.1092 238.965Z" fill="#263238"/>
<path d="M41.5818 233.679C40.8387 233.646 40.0966 233.766 39.4025 234.033C38.7518 234.394 38.1855 234.89 37.7413 235.486C37.6987 235.486 37.7413 235.195 37.9614 234.82C38.272 234.33 38.7143 233.938 39.2377 233.687C39.7612 233.437 40.3447 233.338 40.9216 233.403C41.3618 233.495 41.596 233.636 41.5818 233.679Z" fill="#263238"/>
<path d="M57.5438 210.769C57.4101 210.04 57.1247 209.347 56.7062 208.735C56.2069 208.183 55.5943 207.746 54.9102 207.452C54.9102 207.41 55.187 207.381 55.62 207.516C56.1787 207.701 56.6718 208.043 57.0398 208.501C57.398 208.955 57.6217 209.5 57.6858 210.074C57.6787 210.542 57.5864 210.776 57.5438 210.769Z" fill="#263238"/>
<path d="M61.2111 207.792C61.1269 207.047 60.8348 206.34 60.3679 205.753C59.901 205.165 59.2781 204.72 58.5703 204.469C58.5703 204.426 58.8543 204.405 59.2802 204.54C59.8413 204.719 60.3358 205.062 60.7 205.525C61.0633 205.976 61.2877 206.522 61.346 207.098C61.3389 207.537 61.2537 207.799 61.2111 207.792Z" fill="#263238"/>
<path d="M69.2978 201.535C69.164 200.806 68.8787 200.113 68.4601 199.501C67.9608 198.95 67.3482 198.512 66.6641 198.219C66.6641 198.176 66.9409 198.148 67.374 198.283C67.9196 198.474 68.3998 198.816 68.7591 199.269C69.1183 199.722 69.342 200.267 69.4042 200.841C69.4255 201.28 69.3403 201.542 69.2978 201.535Z" fill="#263238"/>
<path d="M73.1877 198.495C73.0513 197.763 72.7636 197.068 72.3429 196.454C71.8413 195.905 71.2293 195.468 70.5469 195.171C70.5469 195.129 70.8308 195.101 71.2568 195.235C71.8167 195.421 72.3101 195.766 72.6765 196.227C73.0386 196.676 73.2629 197.22 73.3225 197.793C73.3154 198.247 73.2303 198.495 73.1877 198.495Z" fill="#263238"/>
<path d="M77.3915 195.2C77.3104 194.455 77.0202 193.748 76.5542 193.16C76.0883 192.572 75.4657 192.127 74.7578 191.877C74.7578 191.834 75.0418 191.806 75.4677 191.94C76.012 192.134 76.4909 192.477 76.8498 192.929C77.2088 193.381 77.4333 193.925 77.498 194.498C77.5264 194.952 77.4341 195.2 77.3915 195.2Z" fill="#263238"/>
<path d="M81.5985 191.891C81.4648 191.162 81.1794 190.469 80.7609 189.857C80.2616 189.305 79.649 188.868 78.9648 188.574C78.9648 188.532 79.2488 188.503 79.6747 188.638C80.222 188.826 80.7028 189.168 81.059 189.623C81.4182 190.076 81.6421 190.622 81.705 191.196C81.7334 191.636 81.6411 191.898 81.5985 191.891Z" fill="#263238"/>
<path d="M85.8095 188.574C85.6757 187.845 85.3904 187.152 84.9718 186.54C84.4692 185.991 83.8576 185.552 83.1758 185.251C83.1758 185.208 83.4526 185.187 83.8857 185.321C84.4458 185.503 84.9397 185.846 85.3055 186.306C85.6659 186.759 85.89 187.305 85.9515 187.88C85.9444 188.333 85.8521 188.574 85.8095 188.574Z" fill="#263238"/>
<path d="M89.9068 185.336C89.7325 184.629 89.4422 183.957 89.0479 183.345C88.5879 182.782 88.024 182.313 87.3867 181.963C87.3867 181.92 87.6636 181.913 88.0611 182.076C88.5782 182.304 89.0244 182.666 89.3531 183.125C89.684 183.576 89.8985 184.102 89.9778 184.656C90.0204 185.081 89.9565 185.343 89.9068 185.336Z" fill="#263238"/>
<path d="M93.7967 182.239C93.6143 181.533 93.3246 180.859 92.9378 180.241C92.4751 179.68 91.9087 179.214 91.2695 178.866C91.2695 178.824 91.5464 178.817 91.9794 178.98C92.4944 179.207 92.9383 179.57 93.2643 180.028C93.5962 180.479 93.8109 181.005 93.889 181.559C93.9103 181.984 93.8393 182.239 93.7967 182.239Z" fill="#263238"/>
<path d="M97.8404 178.98C97.6654 178.271 97.3753 177.596 96.9815 176.981C96.5226 176.419 95.9584 175.952 95.3203 175.606C95.3203 175.564 95.5972 175.557 96.0302 175.72C96.5477 175.944 96.9926 176.307 97.3151 176.769C97.6517 177.217 97.869 177.744 97.9469 178.299C97.954 178.724 97.8901 178.98 97.8404 178.98Z" fill="#263238"/>
<path d="M102.008 175.819C101.825 175.113 101.536 174.439 101.149 173.821C100.688 173.258 100.121 172.791 99.4805 172.446C99.4805 172.403 99.7644 172.396 100.19 172.559C100.707 172.785 101.151 173.148 101.475 173.608C101.813 174.055 102.028 174.583 102.1 175.139C102.121 175.592 102.05 175.854 102.008 175.819Z" fill="#263238"/>
<path d="M106.398 172.276C106.216 171.572 105.926 170.9 105.539 170.285C105.079 169.72 104.512 169.251 103.871 168.903C103.871 168.86 104.148 168.853 104.581 169.016C105.095 169.246 105.538 169.608 105.866 170.065C106.2 170.515 106.414 171.041 106.491 171.596C106.512 172 106.441 172.276 106.398 172.276Z" fill="#263238"/>
<path d="M110.778 168.669C110.604 167.96 110.314 167.285 109.919 166.671C109.46 166.098 108.896 165.617 108.258 165.253C108.258 165.211 108.535 165.204 108.968 165.367C109.484 165.593 109.928 165.956 110.253 166.416C110.587 166.866 110.804 167.392 110.884 167.946C110.892 168.407 110.828 168.669 110.778 168.669Z" fill="#263238"/>
<path d="M115.164 165.076C114.983 164.365 114.693 163.687 114.305 163.064C113.844 162.501 113.278 162.034 112.637 161.689C112.637 161.646 112.921 161.639 113.347 161.802C113.862 162.03 114.306 162.392 114.632 162.851C114.969 163.298 115.185 163.826 115.256 164.382C115.278 164.821 115.207 165.076 115.164 165.076Z" fill="#263238"/>
<path d="M125.598 157.033C125.416 156.327 125.126 155.652 124.739 155.034C124.278 154.472 123.711 154.004 123.07 153.66C123.07 153.61 123.354 153.603 123.78 153.773C124.296 153.996 124.741 154.356 125.065 154.815C125.401 155.263 125.616 155.79 125.69 156.345C125.711 156.771 125.64 157.033 125.598 157.033Z" fill="#263238"/>
<path d="M129.973 153.461C129.8 152.752 129.509 152.077 129.114 151.463C128.652 150.903 128.089 150.434 127.453 150.081C127.453 150.039 127.73 150.032 128.128 150.202C128.644 150.424 129.088 150.785 129.412 151.243C129.748 151.692 129.963 152.219 130.037 152.774C130.087 153.199 130.016 153.461 129.973 153.461Z" fill="#263238"/>
<path d="M134.375 150.081C134.193 149.378 133.903 148.706 133.516 148.09C133.057 147.514 132.491 147.033 131.848 146.673C131.848 146.63 132.132 146.623 132.558 146.786C133.072 147.014 133.516 147.377 133.842 147.835C134.179 148.283 134.394 148.81 134.467 149.366C134.488 149.826 134.417 150.088 134.375 150.081Z" fill="#263238"/>
<path d="M138.731 146.708C138.557 146.002 138.266 145.329 137.872 144.717C137.418 144.139 136.853 143.657 136.211 143.3C136.211 143.257 136.488 143.25 136.885 143.413C137.403 143.637 137.848 144 138.17 144.462C138.514 144.93 138.73 145.48 138.795 146.056C138.845 146.453 138.795 146.715 138.731 146.708Z" fill="#263238"/>
<path d="M143.125 143.335C142.942 142.629 142.653 141.955 142.266 141.337C141.805 140.774 141.239 140.307 140.598 139.962C140.598 139.919 140.882 139.912 141.308 140.075C141.823 140.303 142.266 140.665 142.592 141.124C142.93 141.571 143.146 142.099 143.217 142.655C143.238 143.08 143.167 143.335 143.125 143.335Z" fill="#263238"/>
<path d="M147.313 139.615C147.139 138.906 146.849 138.231 146.454 137.616C145.998 137.041 145.433 136.56 144.793 136.199C144.793 136.157 145.07 136.15 145.467 136.313C145.983 136.539 146.428 136.902 146.752 137.361C147.087 137.811 147.304 138.337 147.384 138.892C147.441 139.353 147.377 139.615 147.313 139.615Z" fill="#263238"/>
<path d="M151.817 136.263C151.643 135.554 151.353 134.879 150.958 134.264C150.499 133.691 149.935 133.211 149.297 132.847C149.297 132.805 149.574 132.798 150.007 132.961C150.523 133.187 150.967 133.549 151.292 134.009C151.626 134.459 151.843 134.985 151.923 135.54C151.931 136.001 151.867 136.263 151.817 136.263Z" fill="#263238"/>
<path d="M156.215 132.883C156.032 132.179 155.743 131.507 155.356 130.892C154.892 130.33 154.326 129.861 153.688 129.51C153.688 129.467 153.964 129.46 154.397 129.623C154.911 129.853 155.354 130.215 155.682 130.672C156.016 131.122 156.231 131.648 156.307 132.203C156.328 132.628 156.257 132.89 156.215 132.883Z" fill="#263238"/>
<path d="M160.668 129.333C160.486 128.626 160.196 127.952 159.809 127.334C159.346 126.762 158.781 126.281 158.141 125.917C158.141 125.874 158.417 125.867 158.851 126.03C159.364 126.261 159.807 126.622 160.135 127.079C160.465 127.531 160.679 128.057 160.76 128.61C160.803 129.049 160.71 129.333 160.668 129.333Z" fill="#263238"/>
<path d="M65.3876 204.469C65.3065 203.724 65.0162 203.017 64.5503 202.429C64.0844 201.841 63.4618 201.396 62.7539 201.146C62.7539 201.103 63.0308 201.082 63.4638 201.217C64.011 201.404 64.4919 201.746 64.8481 202.202C65.2086 202.654 65.4326 203.2 65.4941 203.775C65.5225 204.214 65.4302 204.476 65.3876 204.469Z" fill="#263238"/>
<path d="M46.1325 243.394C45.3894 243.361 44.6474 243.482 43.9532 243.748C43.3041 244.112 42.7383 244.606 42.292 245.201C42.2494 245.201 42.292 244.917 42.5192 244.535C42.8272 244.046 43.2712 243.657 43.797 243.415C44.3169 243.163 44.8995 243.07 45.4723 243.146C45.9125 243.21 46.1467 243.358 46.1325 243.394Z" fill="#263238"/>
<path d="M48.3005 248.489C47.5575 248.447 46.8142 248.566 46.1211 248.837C45.4709 249.201 44.9049 249.699 44.46 250.296C44.4174 250.296 44.46 250.006 44.6872 249.588C44.9952 249.099 45.4392 248.71 45.965 248.468C46.4885 248.22 47.0723 248.126 47.6474 248.199C48.0804 248.305 48.3147 248.447 48.3005 248.489Z" fill="#263238"/>
<path d="M50.2929 254.109C49.5528 254.033 48.8051 254.115 48.0993 254.35C47.4332 254.681 46.8433 255.147 46.3672 255.717C46.3672 255.717 46.3672 255.427 46.6298 255.065C46.952 254.596 47.4031 254.229 47.9289 254.01C48.465 253.787 49.054 253.723 49.6256 253.825C50.0586 253.91 50.3142 254.066 50.2929 254.109Z" fill="#263238"/>
<path d="M52.1393 259.331C51.3988 259.264 50.6523 259.348 49.9457 259.579C49.2765 259.906 48.6857 260.372 48.2136 260.947C48.171 260.947 48.2136 260.657 48.4692 260.288C48.8044 259.817 49.2674 259.45 49.8038 259.232C50.3374 259.01 50.9241 258.946 51.4933 259.048C51.9263 259.14 52.189 259.296 52.1393 259.331Z" fill="#263238"/>
<path d="M53.7589 264.901C53.0311 264.747 52.279 264.747 51.5512 264.901C50.8567 265.167 50.2256 265.575 49.6983 266.099C49.6558 266.099 49.7338 265.815 50.0178 265.475C50.3986 265.041 50.8938 264.722 51.4471 264.554C52.0005 264.386 52.5898 264.376 53.1484 264.526C53.5672 264.689 53.7802 264.866 53.7589 264.901Z" fill="#263238"/>
<path d="M55.4684 271.137C54.7532 270.934 54.0024 270.888 53.2677 271.003C52.555 271.216 51.8948 271.575 51.3297 272.058C51.2871 272.058 51.3865 271.775 51.6917 271.456C52.0999 271.047 52.6175 270.764 53.1825 270.641C53.749 270.515 54.3399 270.551 54.8862 270.747C55.298 270.903 55.4967 271.102 55.4684 271.137Z" fill="#263238"/>
<path d="M57.0584 278.011C56.3432 277.808 55.5924 277.762 54.8577 277.876C54.1375 278.087 53.4698 278.447 52.8984 278.932C52.8984 278.932 52.9552 278.649 53.2605 278.33C53.6721 277.923 54.1903 277.641 54.7554 277.516C55.3206 277.391 55.9097 277.427 56.455 277.621C56.888 277.777 57.0868 277.976 57.0584 278.011Z" fill="#263238"/>
<path d="M119.764 155.495C120.332 155.243 120.954 155.136 121.574 155.184C122.194 155.232 122.792 155.434 123.314 155.772C124.069 156.273 124.72 156.916 125.23 157.664C125.348 157.919 125.373 158.206 125.302 158.478C125.231 158.749 125.068 158.987 124.84 159.152C124.024 159.768 121.844 159.712 121.844 159.712L122.81 158.904L121.269 157.487C120.928 157.571 120.569 157.548 120.241 157.421C119.914 157.294 119.633 157.07 119.438 156.778C118.919 155.751 119.764 155.495 119.764 155.495Z" fill="#FFBF9D"/>
<path d="M113.361 159.371C113.857 158.753 114.576 158.353 115.363 158.259C116.268 158.322 117.16 158.513 118.011 158.826C118.011 158.826 120.623 161.66 120.851 162.234C121.078 162.808 119.814 163.729 119.814 163.729C119.814 163.729 120.148 165.203 119.559 165.976C118.969 166.748 113.532 170.228 113.532 170.228L109.883 169.143C109.883 169.143 113.468 164.97 114.405 164.225C115.342 163.481 114.937 163.822 114.937 163.822L114.66 163.063C114.541 162.738 114.346 162.445 114.09 162.211C113.834 161.977 113.526 161.807 113.191 161.717L112.772 161.604L110.969 163.021C110.854 162.744 110.812 162.442 110.847 162.145C110.882 161.847 110.992 161.563 111.168 161.32C111.803 160.57 112.542 159.914 113.361 159.371Z" fill="#FFBF9D"/>
<path d="M117.28 159.924C117.28 159.924 116.222 158.443 117.031 157.891C117.841 157.338 118.636 157.735 119.495 157.99C119.979 158.152 120.421 158.418 120.789 158.771C121.158 159.124 121.443 159.554 121.624 160.031C121.845 160.917 122.079 162.157 120.836 162.235C119.594 162.313 117.28 159.924 117.28 159.924Z" fill="#FFBF9D"/>
<path d="M113.16 159.563C113.521 159.267 113.978 159.113 114.445 159.131C115.565 159.096 116.657 159.489 117.498 160.229C118.343 160.935 119.02 161.821 119.478 162.823C119.697 163.219 119.826 163.66 119.854 164.112C119.63 163.731 119.426 163.339 119.244 162.936C118.737 162.016 118.066 161.197 117.263 160.519C116.478 159.821 115.474 159.418 114.424 159.379C113.998 159.404 113.575 159.466 113.16 159.563Z" fill="#FF9A6C"/>
<path d="M120.842 162.546C120.779 162.546 120.757 162.171 120.587 161.604C120.369 160.876 119.977 160.212 119.444 159.669C118.839 159.2 118.146 158.856 117.407 158.656C117.084 158.589 116.772 158.482 116.477 158.337C116.808 158.28 117.149 158.301 117.47 158.401C118.283 158.545 119.046 158.888 119.692 159.4C120.279 159.979 120.679 160.719 120.842 161.526C120.946 161.858 120.946 162.214 120.842 162.546Z" fill="#FF9A6C"/>
<path d="M107.043 171.425C107.043 171.425 111.38 171.815 113.716 170.122C116.051 168.428 112.935 165.714 112.935 165.714L107.043 171.425Z" fill="#FFBF9D"/>
<path d="M115.582 164.977C115.49 165.026 115.263 164.785 115.078 164.438C114.894 164.091 114.808 163.779 114.901 163.73C114.993 163.68 115.213 163.921 115.405 164.261C115.596 164.601 115.667 164.927 115.582 164.977Z" fill="#FF9A6C"/>
<path d="M12.9108 191.168C12.9108 191.168 7.46596 222.256 7.8777 227.741C8.34622 233.969 10.916 234.366 14.4584 234.685C17.7594 234.976 42.7404 231.489 42.7404 231.489L39.8369 219.96L23.3533 220.796L27.3997 203.838L12.9108 191.168Z" fill="#455A64"/>
<path d="M48.0239 227.429C47.953 227.499 40.9605 220.342 32.4064 211.435C23.8522 202.527 16.9734 195.25 17.0514 195.179C17.1295 195.108 24.1503 202.265 32.669 211.18C41.1877 220.094 48.102 227.358 48.0239 227.429Z" fill="#263238"/>
<path d="M41.5429 220.108C41.5429 220.108 42.5013 215.006 44.7303 213.334C46.9594 211.661 52.8444 209.748 52.8444 209.748C52.8444 209.748 53.0218 210.414 52.1842 211.626C51.3465 212.838 48.4856 214.397 48.4856 214.397L54.7895 213.192L60.5183 210.102C60.621 210.042 60.7413 210.019 60.8589 210.037C60.9766 210.056 61.0844 210.113 61.1643 210.202C61.4695 210.549 61.7393 211.201 60.7099 212.115C59.1411 213.532 54.4771 216.7 54.4771 216.7C54.4771 216.7 54.9527 222.007 53.2561 222.851C51.5595 223.694 44.7374 225.94 44.7374 225.94L41.5429 226.968L39.9102 220.215L41.5429 220.108Z" fill="#FFBF9D"/>
<path d="M16.4108 225.962C16.4011 225.472 16.5056 224.987 16.716 224.545C17.1582 223.416 17.927 222.443 18.9244 221.752C19.9218 221.06 21.1028 220.681 22.3171 220.661C22.8152 220.612 23.3179 220.687 23.7794 220.881C23.7794 220.938 23.2115 220.846 22.3596 220.923C21.2126 221.011 20.1097 221.402 19.1649 222.058C18.2202 222.713 17.4679 223.608 16.9858 224.651C16.574 225.423 16.4747 225.969 16.4108 225.962Z" fill="#263238"/>
</g>
<defs>
<clipPath id="clip0_3225_48452">
<rect width="323" height="334" fill="white"/>
</clipPath>
</defs>
</svg>
