<svg width="505" height="441" viewBox="0 0 505 441" fill="none" xmlns="http://www.w3.org/2000/svg">
<g clip-path="url(#clip0_1587_12371)">
<path d="M459.101 401.742C459.101 401.742 459.744 401.742 461.066 401.742H467.121V401.848L178.53 402.024L-31.2253 401.954L-94.7954 401.883H-112.078H-116.573C-117.578 401.883 -118.098 401.883 -118.098 401.883H-116.573H-112.078H-94.7954L-31.2253 401.804L178.53 401.742L467.121 401.919V402.024H461.066C459.744 401.76 459.101 401.742 459.101 401.742Z" fill="#263238"/>
<path d="M132.683 61.0696H87.9729C87.4605 61.0702 86.9532 60.9666 86.482 60.765C86.0108 60.5633 85.5854 60.2679 85.2318 59.8967C84.8782 59.5255 84.6037 59.0862 84.4249 58.6056C84.2462 58.1249 84.1669 57.6129 84.192 57.1006L85.0734 38.1464C85.1208 37.1746 85.5398 36.2581 86.2435 35.5867C86.9473 34.9152 87.8819 34.5402 88.8543 34.5391H133.555C134.068 34.5385 134.576 34.6421 135.047 34.8437C135.519 35.0452 135.945 35.3404 136.299 35.7115C136.653 36.0826 136.929 36.5218 137.109 37.0025C137.288 37.4832 137.369 37.9954 137.345 38.5081L136.463 57.4622C136.416 58.4341 135.997 59.3506 135.293 60.022C134.59 60.6935 133.655 61.0685 132.683 61.0696Z" fill="#FAFAFA"/>
<path d="M132.683 61.0702C133.189 61.0401 133.687 60.9238 134.154 60.7262C134.817 60.4279 135.38 59.9448 135.775 59.3347C136.171 58.7247 136.382 58.0135 136.384 57.2864C136.552 53.4409 136.79 47.9195 137.08 41.1017C137.08 39.4171 137.636 37.4678 136.384 36.0478C135.808 35.3331 134.977 34.8712 134.066 34.7601C133.185 34.6895 132.119 34.7601 131.131 34.7601H118.291H88.8895C88.2774 34.7605 87.6757 34.918 87.1418 35.2176C86.6079 35.5171 86.1597 35.9488 85.8401 36.4712C85.5224 37.0065 85.3436 37.613 85.3201 38.2352C85.3201 38.879 85.2584 39.5141 85.232 40.1491C85.1086 42.6893 84.9852 45.1942 84.8706 47.6461C84.756 50.0981 84.6327 52.5236 84.5181 54.8873C84.5181 55.4783 84.4564 56.0692 84.43 56.6513C84.3603 57.2092 84.3992 57.7753 84.5445 58.3183C84.6972 58.838 84.9651 59.3166 85.3283 59.7182C85.6914 60.1199 86.1406 60.4343 86.6421 60.638C87.1415 60.8325 87.6754 60.9226 88.2109 60.9026H99.3684H110.544L126.742 60.9731H131.149H132.295H132.691C132.559 60.9848 132.427 60.9848 132.295 60.9731H131.149H126.742L110.544 61.0437H99.3684H88.2109C87.6093 61.0736 87.0083 60.9744 86.4482 60.7526C85.8849 60.5277 85.3803 60.1772 84.9726 59.7279C84.5648 59.2786 84.2647 58.7423 84.0951 58.1596C83.9421 57.5848 83.8973 56.9867 83.9629 56.3956L84.0422 54.6316C84.1538 52.2796 84.2684 49.8658 84.3859 47.3903C84.5005 44.9296 84.6239 42.4247 84.7384 39.8845C84.7384 39.2583 84.8001 38.6144 84.8354 37.9794C84.8625 37.2951 85.0594 36.6282 85.4082 36.039C85.7698 35.4491 86.2764 34.9619 86.8797 34.6237C87.4829 34.2856 88.1628 34.1078 88.8542 34.1074H118.255H131.096C132.11 34.1074 133.062 34.1074 134.075 34.1515C135.054 34.2866 135.947 34.7815 136.581 35.5397C137.214 36.2979 137.543 37.2651 137.503 38.2528C137.462 39.1466 137.418 40.0286 137.371 40.8988C137.019 47.7167 136.728 53.2468 136.49 57.0835C136.475 57.9572 136.165 58.8 135.609 59.4737C135.213 59.9696 134.698 60.3553 134.11 60.5939C133.753 60.7397 133.376 60.8318 132.991 60.8673C132.893 60.942 132.79 61.0098 132.683 61.0702Z" fill="#263238"/>
<path d="M271.756 61.2286L273.668 49.251L281.821 44.5059L288.519 51.6942L286.5 63.9716L271.756 61.2286Z" fill="#FF5454"/>
<path d="M309.451 73.878L299.554 291.22L139.99 286.687L130.498 270.088L147.657 68.0921L296.161 58.2578L309.451 73.878Z" fill="#E0E0E0"/>
<g opacity="0.3">
<path d="M299.552 291.22L286.262 275.6L296.159 58.2578L309.449 73.878L299.552 291.22Z" fill="black"/>
</g>
<path d="M296.161 58.2567L286.264 275.599L130.498 270.087L142.281 56.0605L296.161 58.2567Z" fill="#FAFAFA"/>
<path d="M296.125 58.2554L142.246 56.2444L142.431 56.068C139.152 115.876 135.089 189.964 130.692 270.103L130.471 269.856L133.045 269.944L286.237 275.386L286.017 275.589C292.018 147.232 296.072 60.1076 296.125 58.2554C296.037 60.1076 292.159 147.24 286.431 275.607V275.81H286.219L133.08 270.403L130.506 270.315H130.277V270.085C134.684 189.947 138.8 115.868 142.105 56.0592V55.8828H142.281L296.125 58.2554Z" fill="#263238"/>
<path d="M160.212 108.459L214.602 110.055C215.745 110.089 216.699 109.189 216.733 108.044L216.792 106.008C216.826 104.864 215.926 103.909 214.783 103.875L160.393 102.279C159.25 102.245 158.296 103.146 158.262 104.29L158.202 106.326C158.169 107.471 159.069 108.425 160.212 108.459Z" fill="#E0E0E0"/>
<path d="M159.69 120.412L214.08 122.009C215.224 122.042 216.178 121.142 216.211 119.998L216.271 117.961C216.304 116.817 215.405 115.862 214.261 115.828L159.872 114.232C158.728 114.198 157.774 115.099 157.741 116.243L157.681 118.28C157.647 119.424 158.547 120.379 159.69 120.412Z" fill="#E0E0E0"/>
<path d="M159.157 132.357L213.547 133.954C214.69 133.987 215.644 133.087 215.678 131.943L215.738 129.906C215.771 128.762 214.871 127.807 213.728 127.774L159.338 126.177C158.195 126.144 157.241 127.044 157.207 128.188L157.148 130.225C157.114 131.369 158.014 132.324 159.157 132.357Z" fill="#E0E0E0"/>
<path d="M158.646 144.304L213.035 145.9C214.179 145.934 215.133 145.033 215.166 143.889L215.226 141.853C215.259 140.708 214.36 139.754 213.216 139.72L158.827 138.124C157.683 138.09 156.729 138.99 156.696 140.135L156.636 142.171C156.603 143.315 157.502 144.27 158.646 144.304Z" fill="#E0E0E0"/>
<path d="M158.122 156.249L212.512 157.845C213.655 157.879 214.609 156.979 214.643 155.834L214.702 153.798C214.736 152.654 213.836 151.699 212.693 151.665L158.303 150.069C157.16 150.035 156.206 150.936 156.172 152.08L156.113 154.116C156.079 155.261 156.979 156.215 158.122 156.249Z" fill="#E0E0E0"/>
<path d="M157.589 168.202L211.979 169.799C213.122 169.832 214.076 168.932 214.11 167.788L214.169 165.751C214.203 164.607 213.303 163.652 212.16 163.618L157.77 162.022C156.627 161.988 155.673 162.889 155.639 164.033L155.579 166.07C155.546 167.214 156.446 168.169 157.589 168.202Z" fill="#E0E0E0"/>
<path d="M157.077 180.148L211.467 181.745C212.61 181.778 213.564 180.878 213.598 179.734L213.658 177.697C213.691 176.553 212.791 175.598 211.648 175.565L157.258 173.968C156.115 173.935 155.161 174.835 155.127 175.979L155.068 178.016C155.034 179.16 155.934 180.115 157.077 180.148Z" fill="#E0E0E0"/>
<path d="M222.112 169.989L276.502 171.586C277.645 171.619 278.599 170.719 278.633 169.575L278.693 167.538C278.726 166.394 277.827 165.439 276.683 165.406L222.293 163.809C221.15 163.776 220.196 164.676 220.163 165.82L220.103 167.857C220.069 169.001 220.969 169.956 222.112 169.989Z" fill="#E0E0E0"/>
<path d="M221.583 181.934L275.973 183.53C277.116 183.564 278.07 182.663 278.104 181.519L278.163 179.482C278.197 178.338 277.297 177.383 276.154 177.35L221.764 175.753C220.621 175.72 219.667 176.62 219.633 177.764L219.574 179.801C219.54 180.945 220.44 181.9 221.583 181.934Z" fill="#E0E0E0"/>
<path d="M220.954 194.535L275.344 196.132C276.487 196.165 277.441 195.265 277.475 194.121L277.534 192.084C277.568 190.94 276.668 189.985 275.525 189.951L221.135 188.355C219.992 188.321 219.038 189.222 219.004 190.366L218.945 192.403C218.911 193.547 219.811 194.502 220.954 194.535Z" fill="#E0E0E0"/>
<path d="M220.319 207.128L274.709 208.724C275.852 208.758 276.806 207.858 276.84 206.713L276.9 204.677C276.933 203.533 276.034 202.578 274.89 202.544L220.501 200.948C219.357 200.914 218.403 201.815 218.37 202.959L218.31 204.995C218.276 206.14 219.176 207.094 220.319 207.128Z" fill="#E0E0E0"/>
<path d="M219.69 219.729L274.08 221.325C275.224 221.359 276.178 220.458 276.211 219.314L276.271 217.277C276.304 216.133 275.405 215.178 274.261 215.145L219.872 213.548C218.728 213.515 217.774 214.415 217.741 215.559L217.681 217.596C217.647 218.74 218.547 219.695 219.69 219.729Z" fill="#E0E0E0"/>
<path d="M219.056 232.33L273.445 233.927C274.589 233.96 275.543 233.06 275.576 231.915L275.636 229.879C275.67 228.735 274.77 227.78 273.627 227.746L219.237 226.15C218.093 226.116 217.139 227.017 217.106 228.161L217.046 230.197C217.013 231.342 217.912 232.297 219.056 232.33Z" fill="#E0E0E0"/>
<path d="M218.421 244.923L272.811 246.519C273.954 246.553 274.908 245.652 274.942 244.508L275.001 242.472C275.035 241.327 274.135 240.373 272.992 240.339L218.602 238.743C217.459 238.709 216.505 239.609 216.471 240.754L216.411 242.79C216.378 243.934 217.278 244.889 218.421 244.923Z" fill="#E0E0E0"/>
<path d="M151.72 254.325L271.774 257.853C272.046 257.862 272.317 257.816 272.572 257.719C272.826 257.623 273.059 257.477 273.257 257.29C273.455 257.103 273.615 256.879 273.726 256.631C273.838 256.383 273.899 256.115 273.907 255.842L273.96 253.805C273.968 253.534 273.923 253.264 273.827 253.01C273.731 252.757 273.586 252.525 273.4 252.327C273.214 252.13 272.991 251.971 272.744 251.86C272.497 251.749 272.23 251.687 271.959 251.679L151.905 248.151C151.633 248.143 151.362 248.189 151.108 248.285C150.853 248.382 150.62 248.528 150.422 248.714C150.224 248.901 150.065 249.125 149.953 249.374C149.842 249.622 149.78 249.89 149.772 250.162L149.719 252.2C149.705 252.747 149.907 253.277 150.282 253.675C150.657 254.073 151.174 254.307 151.72 254.325Z" fill="#E0E0E0"/>
<path d="M161.152 92.9096L197.826 93.9861C198.97 94.0197 199.924 93.1193 199.957 91.9751L200.017 89.9385C200.05 88.7943 199.151 87.8395 198.007 87.806L161.334 86.7295C160.19 86.6959 159.236 87.5963 159.203 88.7405L159.143 90.7771C159.109 91.9213 160.009 92.8761 161.152 92.9096Z" fill="#E0E0E0"/>
<path d="M139.107 274.99L139.865 275.034L142.095 275.132L150.715 275.458L182.698 276.587L290.757 280.238H290.986V280.009C291.392 271.409 291.815 262.369 292.255 253.223C294.556 203.936 296.662 159.316 298.16 127.008C298.892 110.859 299.482 97.7966 299.923 88.7561C300.117 84.2491 300.267 80.7475 300.373 78.3573C300.417 77.1754 300.452 76.267 300.469 75.6496C300.487 75.0322 300.469 74.7676 300.469 74.7676C300.469 74.7676 300.469 75.0851 300.399 75.6496C300.328 76.2141 300.311 77.1666 300.249 78.3485C300.126 80.7387 299.941 84.2403 299.712 88.7473C299.262 97.7878 298.619 110.85 297.825 126.991C296.274 159.298 294.142 203.91 291.78 253.205C291.348 262.378 290.898 271.392 290.51 279.983L290.757 279.762L182.698 276.234L150.706 275.29L142.086 275.043L139.857 274.99H139.107Z" fill="#263238"/>
<path d="M151.764 281.492C151.764 281.492 152.002 281.492 152.478 281.545L154.584 281.642L162.727 281.968L193.01 283.123L295.684 286.889H295.913V286.66C296.46 276.288 297.033 265.492 297.614 254.485C300.144 205.843 302.435 161.822 304.092 129.938C304.903 114.009 305.555 101.123 306.005 92.1968C306.225 87.7868 306.392 84.2588 306.507 81.9303C306.551 80.7661 306.595 79.8753 306.621 79.2843C306.648 78.6934 306.621 78.4023 306.621 78.4023C306.621 78.4023 306.622 78.711 306.551 79.2843C306.481 79.8576 306.463 80.7926 306.392 81.9303C306.251 84.2853 306.057 87.7427 305.802 92.188C305.317 101.105 304.612 114 303.74 129.92C302.047 161.795 299.703 205.825 297.121 254.458C296.539 265.483 295.975 276.261 295.429 286.634L295.667 286.413L193.01 282.824L162.736 281.809L154.593 281.553L152.486 281.5L151.764 281.492Z" fill="#263238"/>
<path d="M203.338 55.4778L205.691 53.1758L233.744 53.3169L235.101 55.8835L203.338 55.4778Z" fill="#263238"/>
<path d="M234.941 69.2598L235.109 55.8809L203.349 55.4814L203.181 68.8603L234.941 69.2598Z" fill="#263238"/>
<path d="M236.021 69.7066L236.027 69.2391C236.035 68.6303 235.548 68.1305 234.939 68.1229L203.179 67.7234C202.571 67.7158 202.071 68.2031 202.064 68.812L202.058 69.2794C202.05 69.8883 202.537 70.388 203.145 70.3957L234.906 70.7951C235.514 70.8028 236.014 70.3154 236.021 69.7066Z" fill="#263238"/>
<path d="M226.095 65.8867L212.126 65.7103C211.927 65.708 211.732 65.6579 211.557 65.5643C211.382 65.4706 211.233 65.3361 211.121 65.1722C211.012 65.0093 210.943 64.8233 210.918 64.6288C210.894 64.4344 210.915 64.2369 210.98 64.0521L215.043 52.9742C214.266 52.3649 213.621 51.6042 213.146 50.7382C212.672 49.8723 212.378 48.919 212.282 47.936C212.186 46.9531 212.291 45.9609 212.589 45.0195C212.887 44.078 213.373 43.2069 214.017 42.4588C214.662 41.7107 215.451 41.1012 216.337 40.6671C217.224 40.233 218.189 39.9834 219.175 39.9332C220.16 39.8831 221.146 40.0336 222.072 40.3755C222.997 40.7175 223.844 41.2438 224.561 41.9227C225.323 42.6767 225.91 43.5894 226.28 44.596C226.649 45.6025 226.793 46.6782 226.701 47.7467C226.608 48.8151 226.281 49.85 225.744 50.7779C225.207 51.7057 224.472 52.5038 223.592 53.1153L227.258 64.2638C227.32 64.451 227.337 64.6504 227.306 64.8453C227.275 65.0402 227.198 65.2249 227.082 65.3839C226.969 65.5399 226.82 65.6669 226.649 65.7543C226.477 65.8417 226.287 65.887 226.095 65.8867ZM219.449 40.6967H219.282C217.602 40.7672 216.013 41.4847 214.849 42.6993C213.685 43.9138 213.034 45.5316 213.033 47.2147C213.051 48.2516 213.319 49.2689 213.815 50.1796C214.311 51.0903 215.019 51.8676 215.88 52.445L216.162 52.639L211.791 64.3873C211.771 64.4411 211.765 64.499 211.772 64.5559C211.78 64.6128 211.801 64.6669 211.835 64.7136C211.865 64.7607 211.907 64.7992 211.956 64.8255C212.005 64.8517 212.061 64.8648 212.117 64.8635L226.086 65.0399C226.142 65.0406 226.197 65.0282 226.248 65.0037C226.298 64.9792 226.342 64.9433 226.377 64.8988C226.407 64.8526 226.427 64.8 226.435 64.7451C226.442 64.6901 226.438 64.6342 226.421 64.5813L222.534 52.7449L222.834 52.5596C224.012 51.8209 224.919 50.7187 225.418 49.4193C225.917 48.1198 225.98 46.6934 225.598 45.3549C225.216 44.0164 224.41 42.8384 223.301 41.9982C222.192 41.1581 220.84 40.7013 219.449 40.6967Z" fill="#455A64"/>
<path d="M234.714 68.116H234.388H233.507L230.149 68.0454L219.07 67.8602L207.992 67.7015H203.718C203.612 67.6907 203.506 67.6907 203.4 67.7015H203.718L204.599 67.7455L207.992 67.9131C210.83 67.9837 214.743 68.0543 219.07 68.116C223.398 68.1777 227.32 68.213 230.157 68.2218C231.576 68.2218 232.722 68.2218 233.515 68.2218C233.912 68.2218 234.22 68.2218 234.397 68.2218C234.507 68.2028 234.614 68.1671 234.714 68.116Z" fill="#455A64"/>
<path d="M235.162 55.6106C235.057 55.5977 234.95 55.5977 234.845 55.6106H233.964L230.606 55.54L219.527 55.3636L208.449 55.2313H204.175C204.069 55.2198 203.963 55.2198 203.857 55.2313H204.175H205.056L208.414 55.3195C211.252 55.3901 215.174 55.4607 219.501 55.5224C223.828 55.5841 227.741 55.6194 230.579 55.6282C231.998 55.6282 233.144 55.6282 233.937 55.6282C234.334 55.6282 234.642 55.6282 234.818 55.6282C234.933 55.636 235.049 55.6301 235.162 55.6106Z" fill="#455A64"/>
<path d="M201.485 190.385L163.102 189.258C158.762 189.131 155.141 192.548 155.014 196.891L154.031 230.428C153.903 234.771 157.318 238.396 161.658 238.523L200.041 239.65C204.381 239.777 208.002 236.359 208.13 232.016L209.113 198.479C209.24 194.136 205.825 190.512 201.485 190.385Z" fill="#EBEBEB"/>
<path d="M154.134 226.815C154.141 226.606 154.197 226.402 154.298 226.22C154.399 226.037 154.542 225.881 154.716 225.765L172.43 213.867C173.098 213.334 173.932 213.05 174.786 213.067C175.641 213.083 176.463 213.397 177.11 213.955C177.181 214.016 177.258 214.069 177.339 214.114L185.368 218.242C185.616 218.367 185.897 218.413 186.172 218.372C186.446 218.331 186.702 218.205 186.902 218.012L199.055 206.105C199.44 205.764 199.889 205.505 200.377 205.343C200.865 205.181 201.38 205.12 201.892 205.164C202.404 205.208 202.902 205.355 203.355 205.597C203.808 205.84 204.207 206.172 204.528 206.573L208.424 211.477C208.615 211.714 208.718 212.01 208.715 212.315L208.53 232.116C208.521 233.112 208.313 234.096 207.918 235.011C207.523 235.925 206.95 236.752 206.231 237.441C205.513 238.131 204.664 238.67 203.734 239.026C202.804 239.382 201.813 239.549 200.818 239.516L161.229 238.263C160.245 238.232 159.277 238.007 158.38 237.601C157.483 237.195 156.675 236.615 156.003 235.896C155.331 235.176 154.807 234.331 154.462 233.408C154.117 232.486 153.958 231.504 153.993 230.519L154.134 226.815Z" fill="#E0E0E0"/>
<path d="M177.763 208.954C180.573 207.907 182.002 204.779 180.956 201.968C179.91 199.156 176.785 197.726 173.975 198.773C171.166 199.819 169.737 202.947 170.783 205.759C171.829 208.57 174.954 210 177.763 208.954Z" fill="#E0E0E0"/>
<path d="M271.501 107.309L233.102 106.156C228.76 106.026 225.135 109.442 225.004 113.787L223.999 147.339C223.868 151.684 227.282 155.312 231.624 155.442L270.024 156.595C274.365 156.725 277.991 153.309 278.121 148.964L279.127 115.412C279.257 111.067 275.843 107.439 271.501 107.309Z" fill="#EBEBEB"/>
<path d="M224.068 142.717L242.364 130.448C243.051 129.898 243.912 129.614 244.791 129.648C245.67 129.682 246.508 130.032 247.15 130.634L256.148 135.255L268.998 122.687C269.381 122.345 269.83 122.085 270.317 121.922C270.804 121.76 271.319 121.698 271.831 121.742C272.342 121.786 272.839 121.934 273.292 122.177C273.744 122.419 274.143 122.752 274.462 123.154L278.657 128.446L278.481 147.409C278.463 148.575 278.214 149.726 277.748 150.795C277.283 151.864 276.61 152.83 275.769 153.637C274.928 154.444 273.936 155.076 272.849 155.497C271.762 155.918 270.603 156.119 269.438 156.088L232.423 154.915C231.27 154.878 230.136 154.613 229.085 154.135C228.035 153.658 227.089 152.978 226.302 152.134C225.515 151.289 224.903 150.298 224.5 149.217C224.097 148.135 223.911 146.984 223.953 145.831L224.068 142.717Z" fill="#E0E0E0"/>
<path d="M244.786 124.751C247.775 124.751 250.198 122.326 250.198 119.335C250.198 116.345 247.775 113.92 244.786 113.92C241.798 113.92 239.375 116.345 239.375 119.335C239.375 122.326 241.798 124.751 244.786 124.751Z" fill="#E0E0E0"/>
<path d="M162.349 134.576C162.102 134.543 161.861 134.475 161.635 134.373C160.983 134.072 160.425 133.6 160.022 133.006C159.366 132.063 159.086 130.908 159.237 129.769C159.471 128.268 160.23 126.899 161.379 125.906C162.768 124.737 164.419 123.923 166.191 123.533C168.192 123.032 170.245 122.768 172.308 122.748C177.053 122.678 181.732 123.864 185.871 126.188C186.973 126.805 187.948 127.625 188.744 128.605C189.519 129.587 189.968 130.786 190.031 132.036C190.045 132.643 189.939 133.248 189.718 133.814C189.497 134.38 189.166 134.897 188.744 135.334C187.931 136.126 186.953 136.728 185.88 137.098C183.919 137.75 181.865 138.08 179.799 138.077C178.009 138.144 176.217 138.067 174.44 137.848C171.869 137.54 169.343 136.93 166.914 136.031C166.032 135.713 165.398 135.44 164.966 135.228C164.742 135.134 164.524 135.025 164.314 134.902C164.55 134.965 164.779 135.048 165.001 135.149C165.451 135.325 166.112 135.572 166.975 135.863C169.415 136.707 171.939 137.287 174.502 137.592C176.258 137.78 178.026 137.836 179.79 137.76C181.813 137.744 183.821 137.408 185.739 136.763C186.755 136.407 187.677 135.825 188.436 135.061C188.817 134.666 189.116 134.199 189.314 133.687C189.512 133.175 189.606 132.628 189.59 132.08C189.535 130.924 189.115 129.816 188.392 128.913C187.631 127.977 186.697 127.196 185.642 126.611C181.573 124.332 176.979 123.155 172.316 123.198C170.288 123.211 168.269 123.456 166.297 123.93C164.575 124.295 162.964 125.066 161.599 126.179C160.494 127.113 159.752 128.405 159.502 129.831C159.335 130.914 159.577 132.021 160.18 132.935C160.556 133.518 161.075 133.995 161.688 134.32C162.102 134.496 162.357 134.549 162.349 134.576Z" fill="#263238"/>
<path d="M185.131 257.783C184.884 257.757 184.643 257.692 184.417 257.589C183.765 257.289 183.208 256.816 182.804 256.222C182.146 255.28 181.863 254.125 182.011 252.985C182.251 251.486 183.009 250.119 184.153 249.122C185.546 247.955 187.2 247.141 188.974 246.749C190.971 246.248 193.021 245.985 195.081 245.964C199.827 245.889 204.508 247.076 208.645 249.404C209.751 250.018 210.729 250.838 211.527 251.821C212.302 252.802 212.752 254.002 212.813 255.252C212.828 255.858 212.722 256.462 212.501 257.027C212.28 257.591 211.949 258.107 211.527 258.542C210.718 259.339 209.738 259.943 208.662 260.306C206.698 260.956 204.642 261.29 202.572 261.293C200.786 261.352 198.998 261.275 197.223 261.064C194.653 260.747 192.128 260.138 189.696 259.247C188.815 258.93 188.18 258.647 187.748 258.445C187.519 258.353 187.297 258.241 187.087 258.109C187.325 258.175 187.558 258.257 187.784 258.356C188.224 258.533 188.885 258.789 189.749 259.08C192.186 259.9 194.703 260.456 197.258 260.738C199.014 260.929 200.781 260.988 202.546 260.914C204.57 260.896 206.577 260.556 208.495 259.909C209.51 259.55 210.431 258.969 211.192 258.206C211.572 257.811 211.87 257.344 212.068 256.832C212.267 256.32 212.361 255.774 212.346 255.225C212.281 254.072 211.863 252.966 211.148 252.059C210.384 251.128 209.451 250.35 208.398 249.766C202.496 246.479 195.575 245.534 189.009 247.12C187.286 247.478 185.675 248.247 184.311 249.36C183.206 250.299 182.462 251.593 182.205 253.02C182.04 254.105 182.285 255.212 182.892 256.125C183.265 256.705 183.781 257.179 184.391 257.501C184.884 257.713 185.131 257.757 185.131 257.783Z" fill="#263238"/>
<path d="M158.682 94.2229C158.439 94.1897 158.201 94.1214 157.977 94.02C157.324 93.7226 156.765 93.2493 156.364 92.6529C155.703 91.7155 155.419 90.5625 155.571 89.4248C155.822 87.9171 156.596 86.5462 157.757 85.5528C159.15 84.3873 160.804 83.5763 162.578 83.1891C164.576 82.6892 166.626 82.4228 168.685 82.3953C173.43 82.3281 178.109 83.5146 182.249 85.8351C183.352 86.4495 184.328 87.2699 185.122 88.2518C185.903 89.2311 186.356 90.4314 186.418 91.6827C186.433 92.2905 186.327 92.8953 186.106 93.4616C185.885 94.028 185.554 94.5447 185.131 94.9814C184.32 95.7762 183.341 96.379 182.267 96.7454C180.302 97.3971 178.246 97.7277 176.177 97.7244C171.79 97.8851 167.413 97.1901 163.292 95.6782C162.41 95.3607 161.785 95.0873 161.344 94.8756C161.12 94.7809 160.902 94.6719 160.692 94.5492C160.931 94.6094 161.164 94.6921 161.388 94.7962C161.829 94.9726 162.49 95.2196 163.353 95.5106C165.79 96.3302 168.308 96.889 170.862 97.1776C172.618 97.3699 174.386 97.4259 176.15 97.3452C178.176 97.3299 180.187 96.9935 182.108 96.3485C183.12 95.9901 184.039 95.4083 184.796 94.6463C185.55 93.8626 185.968 92.8147 185.959 91.7268C185.895 90.5716 185.473 89.4649 184.752 88.5605C183.994 87.6249 183.063 86.8435 182.011 86.2584C176.108 82.974 169.188 82.0296 162.622 83.6124C160.903 83.9796 159.296 84.7505 157.933 85.8615C156.825 86.7936 156.079 88.0862 155.827 89.513C155.665 90.5962 155.906 91.7012 156.505 92.6177C156.884 93.1986 157.402 93.6748 158.013 94.0024C158.444 94.1435 158.691 94.1964 158.682 94.2229Z" fill="#263238"/>
<path d="M293.92 217.978L306.038 218.277L311.82 225.73L305.598 233.333L293.162 232.963L293.92 217.978Z" fill="#FF993C"/>
<path d="M295.067 196.704L307.185 197.004L312.966 204.457L306.744 212.06L294.309 211.689L295.067 196.704Z" fill="#455A64"/>
<path d="M129.942 43.7559H91.6223C91.3692 43.7559 91.1641 43.9612 91.1641 44.2145V44.3997C91.1641 44.653 91.3692 44.8584 91.6223 44.8584H129.942C130.196 44.8584 130.401 44.653 130.401 44.3997V44.2145C130.401 43.9612 130.196 43.7559 129.942 43.7559Z" fill="#E0E0E0"/>
<path d="M129.942 47.2578H91.6223C91.3692 47.2578 91.1641 47.4631 91.1641 47.7164V47.9017C91.1641 48.155 91.3692 48.3603 91.6223 48.3603H129.942C130.196 48.3603 130.401 48.155 130.401 47.9017V47.7164C130.401 47.4631 130.196 47.2578 129.942 47.2578Z" fill="#E0E0E0"/>
<path d="M129.942 50.75H91.6223C91.3692 50.75 91.1641 50.9553 91.1641 51.2086V51.3939C91.1641 51.6472 91.3692 51.8525 91.6223 51.8525H129.942C130.196 51.8525 130.401 51.6472 130.401 51.3939V51.2086C130.401 50.9553 130.196 50.75 129.942 50.75Z" fill="#E0E0E0"/>
<path d="M137.486 47.02C137.583 46.9494 143.655 54.8522 151.103 64.66C158.55 74.4678 164.463 82.5205 164.322 82.5911C164.181 82.6616 158.153 74.7677 150.706 64.9511C143.259 55.1344 137.371 47.0994 137.486 47.02Z" fill="#263238"/>
<path d="M137.247 47.8054C138.07 47.8054 138.737 47.138 138.737 46.3148C138.737 45.4916 138.07 44.8242 137.247 44.8242C136.425 44.8242 135.758 45.4916 135.758 46.3148C135.758 47.138 136.425 47.8054 137.247 47.8054Z" fill="#263238"/>
<path d="M178.766 349.034H134.065C133.552 349.035 133.045 348.931 132.573 348.73C132.101 348.528 131.676 348.233 131.321 347.862C130.967 347.491 130.692 347.052 130.512 346.571C130.332 346.09 130.252 345.578 130.276 345.065L131.157 326.111C131.204 325.138 131.625 324.22 132.33 323.548C133.036 322.877 133.973 322.503 134.947 322.504H179.647C180.16 322.503 180.667 322.607 181.138 322.809C181.61 323.01 182.035 323.306 182.389 323.677C182.742 324.048 183.017 324.487 183.195 324.968C183.374 325.449 183.453 325.961 183.428 326.473L182.547 345.427C182.5 346.399 182.081 347.315 181.377 347.987C180.673 348.658 179.738 349.033 178.766 349.034Z" fill="#FAFAFA"/>
<path d="M178.768 349.035C179.278 349.004 179.779 348.885 180.248 348.682C180.91 348.386 181.472 347.904 181.866 347.296C182.26 346.687 182.47 345.977 182.469 345.251C182.637 341.406 182.875 335.876 183.174 329.058C183.174 327.382 183.721 325.433 182.478 324.013C181.9 323.3 181.07 322.836 180.16 322.716C179.235 322.654 178.212 322.716 177.217 322.716H164.384H134.975C134.363 322.713 133.761 322.869 133.228 323.169C132.695 323.469 132.249 323.903 131.934 324.427C131.618 324.947 131.439 325.539 131.414 326.147C131.414 326.782 131.352 327.426 131.326 328.061C131.203 330.601 131.082 333.1 130.965 335.558C130.847 338.016 130.73 340.43 130.612 342.799C130.612 343.39 130.55 343.981 130.524 344.563C130.454 345.118 130.493 345.681 130.638 346.222C130.789 346.743 131.056 347.224 131.42 347.627C131.783 348.03 132.233 348.346 132.736 348.55C133.236 348.742 133.77 348.829 134.305 348.806H139.249H145.48H156.664L172.854 348.876L177.261 348.92H178.406C178.535 348.907 178.665 348.907 178.794 348.92H178.406H177.261L172.854 348.965L156.664 349.044L145.418 349.273H134.305C133.703 349.299 133.103 349.2 132.542 348.982C131.98 348.756 131.475 348.405 131.068 347.956C130.66 347.507 130.36 346.971 130.189 346.389C130.033 345.815 129.986 345.217 130.048 344.625C130.048 344.034 130.11 343.452 130.136 342.861C130.251 340.489 130.356 338.072 130.48 335.62C130.603 333.168 130.709 330.654 130.832 328.114C130.832 327.479 130.894 326.844 130.92 326.2C130.954 325.518 131.154 324.855 131.502 324.269C131.862 323.679 132.367 323.191 132.969 322.852C133.57 322.512 134.249 322.332 134.939 322.328H164.349H177.181C178.204 322.328 179.155 322.328 180.169 322.372C181.169 322.506 182.08 323.017 182.716 323.801C183.314 324.551 183.626 325.488 183.597 326.447C183.55 327.335 183.506 328.217 183.465 329.093C183.104 335.911 182.813 341.441 182.584 345.278C182.565 346.151 182.255 346.992 181.703 347.668C181.304 348.16 180.789 348.545 180.204 348.788C179.845 348.93 179.469 349.022 179.085 349.062L178.768 349.035Z" fill="#263238"/>
<path d="M176.026 331.721H137.706C137.453 331.721 137.248 331.926 137.248 332.179V332.365C137.248 332.618 137.453 332.823 137.706 332.823H176.026C176.28 332.823 176.485 332.618 176.485 332.365V332.179C176.485 331.926 176.28 331.721 176.026 331.721Z" fill="#E0E0E0"/>
<path d="M176.026 335.213H137.706C137.453 335.213 137.248 335.418 137.248 335.672V335.857C137.248 336.11 137.453 336.315 137.706 336.315H176.026C176.28 336.315 176.485 336.11 176.485 335.857V335.672C176.485 335.418 176.28 335.213 176.026 335.213Z" fill="#E0E0E0"/>
<path d="M176.026 338.715H137.706C137.453 338.715 137.248 338.92 137.248 339.173V339.359C137.248 339.612 137.453 339.817 137.706 339.817H176.026C176.28 339.817 176.485 339.612 176.485 339.359V339.173C176.485 338.92 176.28 338.715 176.026 338.715Z" fill="#E0E0E0"/>
<path d="M195.654 260.385C195.768 260.447 188.603 274.4 179.693 291.546C170.783 308.692 163.432 322.557 163.318 322.504C163.203 322.451 170.368 308.489 179.287 291.334C188.206 274.179 195.574 260.332 195.654 260.385Z" fill="#263238"/>
<path d="M164.852 322.504C164.852 322.801 164.764 323.091 164.599 323.337C164.435 323.584 164.201 323.776 163.927 323.89C163.653 324.003 163.352 324.033 163.061 323.975C162.771 323.917 162.504 323.774 162.294 323.565C162.085 323.355 161.942 323.088 161.884 322.797C161.826 322.506 161.856 322.204 161.97 321.93C162.083 321.657 162.275 321.422 162.521 321.258C162.768 321.093 163.057 321.005 163.354 321.005C163.751 321.005 164.132 321.163 164.413 321.444C164.694 321.725 164.852 322.107 164.852 322.504Z" fill="#263238"/>
<path d="M450.594 94.1533H410.626C406.563 94.1557 402.667 95.7727 399.794 98.6488C396.922 101.525 395.309 105.425 395.309 109.491C395.311 113.402 396.807 117.165 399.491 120.008C402.175 122.851 405.843 124.56 409.745 124.785C410.952 126.867 412.151 128.957 413.358 131.047L417.879 124.829H450.594C454.658 124.827 458.555 123.21 461.429 120.334C464.303 117.458 465.918 113.558 465.92 109.491C465.918 105.424 464.303 101.524 461.429 98.6483C458.555 95.7724 454.658 94.1557 450.594 94.1533Z" fill="white"/>
<path d="M450.595 94.1542H451H452.199C453.738 94.3148 455.245 94.695 456.676 95.2832C458.95 96.2738 460.961 97.7842 462.546 99.6932C463.516 100.9 464.313 102.236 464.917 103.662C466.003 106.343 466.32 109.275 465.831 112.127C465.342 114.979 464.067 117.637 462.149 119.803C460.649 121.485 458.807 122.826 456.747 123.736C454.535 124.667 452.147 125.106 449.749 125.024H417.88L418.065 124.936L413.544 131.11L413.341 131.401L413.165 131.092L411.693 128.543L409.543 124.83L409.728 124.936C408.2 124.831 406.693 124.516 405.251 124.001C403.839 123.467 402.507 122.739 401.294 121.84C399.589 120.56 398.166 118.941 397.114 117.086C396.062 115.23 395.404 113.178 395.181 111.056C394.958 108.935 395.174 106.79 395.816 104.756C396.459 102.722 397.513 100.842 398.914 99.2345C400.61 97.2757 402.775 95.7796 405.207 94.8863C405.506 94.7804 405.788 94.6658 406.088 94.5688L406.969 94.3394C407.564 94.1915 408.167 94.0825 408.776 94.0131C409.375 93.9337 409.975 93.9425 410.539 93.8984H412.301H425.178L443.756 93.9778L425.178 94.0484H412.301H410.539C409.957 94.0484 409.367 94.0484 408.776 94.163C408.183 94.2376 407.594 94.3466 407.013 94.4894L406.132 94.7187C405.841 94.8069 405.559 94.9216 405.251 95.0274C402.891 96.0043 400.821 97.5714 399.24 99.5785C397.882 101.143 396.86 102.972 396.238 104.949C395.617 106.927 395.409 109.011 395.628 111.073C395.848 113.134 396.489 115.128 397.512 116.931C398.535 118.733 399.919 120.305 401.576 121.549C402.756 122.419 404.049 123.125 405.418 123.648C406.822 124.132 408.282 124.429 409.763 124.53H409.887L409.948 124.636L412.099 128.349L413.571 130.898H413.183L417.704 124.671L417.774 124.583H417.889H449.758C452.1 124.676 454.435 124.254 456.597 123.348C458.612 122.463 460.414 121.158 461.885 119.521C463.766 117.406 465.021 114.809 465.511 112.021C466.002 109.233 465.707 106.363 464.661 103.733C464.08 102.322 463.302 101.001 462.352 99.8078C460.804 97.9152 458.841 96.406 456.614 95.3978C454.699 94.6245 452.66 94.2032 450.595 94.1542Z" fill="#263238"/>
<path d="M413.052 104.703L414.488 107.605L417.688 108.072L415.37 110.33L415.916 113.523L413.052 112.015L410.187 113.523L410.734 110.33L408.416 108.072L411.615 107.605L413.052 104.703Z" fill="#FF993C"/>
<path d="M425.213 104.703L426.641 107.605L429.849 108.072L427.531 110.33L428.077 113.523L425.213 112.015L422.34 113.523L422.886 110.33L420.568 108.072L423.776 107.605L425.213 104.703Z" fill="#FF993C"/>
<path d="M437.366 104.703L438.803 107.605L442.002 108.072L439.684 110.33L440.231 113.523L437.366 112.015L434.502 113.523L435.048 110.33L432.73 108.072L435.93 107.605L437.366 104.703Z" fill="#FF993C"/>
<path d="M449.519 104.703L450.955 107.605L454.163 108.072L451.845 110.33L452.392 113.523L449.519 112.015L446.654 113.523L447.201 110.33L444.883 108.072L448.091 107.605L449.519 104.703Z" fill="#FF993C"/>
<path d="M343.717 105.636C343.717 105.636 339.716 120.63 339.372 131.214L339.258 134.742C339.258 134.742 348.071 142.08 355.501 142.53L361.67 127.245L343.717 105.636Z" fill="#263238"/>
<path d="M382.929 114.826C381.236 107.514 380.584 99.0117 374.521 94.2489C370.008 90.7209 364.879 89.7242 359.159 89.9712C356.168 90.2629 353.28 91.2213 350.707 92.7759C347.341 94.681 345.922 98.5442 344.3 102.055C341.048 109.111 341.453 118.61 343.657 121.265L373.031 136.779C378.892 133.727 382.567 132.51 383.502 124.687C383.88 121.391 383.687 118.055 382.929 114.826Z" fill="#263238"/>
<path d="M374.201 100.053L355.693 94.6019C349.736 93.7199 345.479 100.943 344.862 106.95C344.174 113.6 343.61 121.75 344.201 126.76C345.399 136.832 353.014 138.411 353.014 138.411C353.014 138.411 353.014 138.561 352.97 141.533V147.707C352.891 149.656 353.234 150.309 354.424 151.852C357.156 155.38 362.118 155.866 367.979 153.696C371.372 152.435 373.734 149.912 373.998 146.463L377.206 103.748C377.258 102.868 376.978 102 376.421 101.316C375.865 100.632 375.073 100.181 374.201 100.053Z" fill="#AE7461"/>
<path d="M346.642 116.044C346.625 116.379 346.741 116.707 346.963 116.958C347.186 117.209 347.498 117.362 347.832 117.385C347.995 117.405 348.16 117.393 348.318 117.349C348.475 117.304 348.622 117.228 348.75 117.125C348.877 117.022 348.983 116.894 349.06 116.749C349.137 116.604 349.184 116.446 349.198 116.282C349.215 115.949 349.101 115.622 348.88 115.371C348.66 115.121 348.35 114.966 348.017 114.942C347.854 114.921 347.688 114.933 347.53 114.977C347.372 115.022 347.224 115.098 347.096 115.201C346.968 115.304 346.861 115.431 346.783 115.576C346.706 115.721 346.657 115.88 346.642 116.044Z" fill="#263238"/>
<path d="M346.115 112.966C346.265 113.142 347.261 112.454 348.645 112.516C350.029 112.577 351.007 113.301 351.165 113.142C351.324 112.983 351.095 112.763 350.663 112.419C350.082 111.982 349.38 111.735 348.654 111.713C347.935 111.682 347.226 111.88 346.627 112.278C346.195 112.586 346.036 112.895 346.115 112.966Z" fill="#263238"/>
<path d="M358.779 116.247C358.764 116.581 358.88 116.908 359.102 117.159C359.324 117.409 359.635 117.563 359.968 117.588C360.131 117.606 360.295 117.592 360.452 117.546C360.608 117.501 360.754 117.424 360.881 117.322C361.008 117.219 361.114 117.092 361.192 116.949C361.269 116.805 361.318 116.648 361.334 116.485C361.349 116.15 361.233 115.822 361.012 115.57C360.79 115.318 360.479 115.163 360.145 115.136C359.982 115.117 359.817 115.132 359.66 115.178C359.502 115.224 359.356 115.301 359.229 115.405C359.102 115.508 358.996 115.636 358.919 115.78C358.842 115.925 358.794 116.084 358.779 116.247Z" fill="#263238"/>
<path d="M359.687 113.125C359.846 113.301 360.842 112.622 362.225 112.675C363.609 112.728 364.587 113.469 364.746 113.301C364.905 113.133 364.667 112.922 364.244 112.587C363.663 112.15 362.961 111.903 362.234 111.881C361.516 111.846 360.805 112.044 360.207 112.445C359.767 112.754 359.582 113.054 359.687 113.125Z" fill="#263238"/>
<path d="M354.292 122.085C353.576 121.825 352.829 121.659 352.071 121.591C351.718 121.538 351.383 121.459 351.339 121.212C351.322 120.848 351.417 120.488 351.612 120.18C351.974 119.298 352.362 118.46 352.758 117.534C354.353 113.768 355.526 110.663 355.402 110.602C355.279 110.54 353.833 113.539 352.238 117.305L351.128 119.951C350.889 120.367 350.805 120.854 350.89 121.327C350.936 121.454 351.011 121.568 351.109 121.661C351.207 121.755 351.325 121.824 351.454 121.865C351.645 121.925 351.844 121.961 352.044 121.97C352.786 122.103 353.541 122.141 354.292 122.085Z" fill="#263238"/>
<path d="M352.999 138.394C357.707 138.649 362.393 137.593 366.536 135.342C366.536 135.342 362.949 142.221 352.973 140.89L352.999 138.394Z" fill="#6F4439"/>
<path d="M358.787 125.155C358.618 124.87 358.38 124.631 358.095 124.462C357.81 124.292 357.487 124.197 357.156 124.185C356.694 124.13 356.226 124.202 355.801 124.391C355.376 124.581 355.01 124.881 354.741 125.261C354.549 125.617 354.496 126.032 354.592 126.425C354.671 126.628 354.592 126.531 354.75 126.672C355.25 127.223 355.876 127.644 356.575 127.898C356.95 128.01 357.352 128.006 357.725 127.884C358.098 127.763 358.425 127.531 358.663 127.219C358.871 126.919 358.993 126.568 359.015 126.204C359.037 125.84 358.958 125.477 358.787 125.155Z" fill="#6F4439"/>
<path d="M358.586 123.259C358.357 123.259 358.286 124.732 356.965 125.737C355.643 126.743 354.047 126.513 354.021 126.716C353.994 126.919 354.365 127.025 355.034 127.078C355.912 127.131 356.78 126.872 357.484 126.346C358.162 125.84 358.617 125.091 358.754 124.255C358.842 123.638 358.701 123.259 358.586 123.259Z" fill="#263238"/>
<path d="M359.168 108.071C359.265 108.459 360.657 108.415 362.253 108.768C363.848 109.121 365.108 109.65 365.355 109.368C365.461 109.218 365.276 108.847 364.782 108.433C364.123 107.92 363.356 107.564 362.539 107.393C361.722 107.222 360.876 107.239 360.067 107.445C359.45 107.604 359.124 107.886 359.168 108.071Z" fill="#263238"/>
<path d="M346.229 109.243C346.537 109.517 347.542 109.04 348.811 108.846C350.08 108.652 351.173 108.714 351.376 108.352C351.455 108.185 351.244 107.894 350.733 107.665C350.04 107.395 349.286 107.325 348.556 107.462C347.83 107.563 347.149 107.869 346.59 108.344C346.185 108.767 346.088 109.111 346.229 109.243Z" fill="#263238"/>
<path d="M368.579 142.433C368.861 139.787 367.803 137.141 368.112 134.548C368.438 131.77 370.236 129.389 370.976 126.69C372.157 122.368 370.535 117.773 369.936 113.301C367.382 112.887 365.068 111.55 363.432 109.544C361.431 107.206 360.215 104.304 359.025 101.456C359.105 104.269 360.056 106.987 361.749 109.235C361.185 109.32 360.61 109.272 360.069 109.096C359.527 108.92 359.034 108.62 358.629 108.221C357.825 107.413 357.201 106.445 356.795 105.381C355.72 102.842 355.123 100.127 355.033 97.372C354.664 101.316 355.111 105.295 356.346 109.058C355.623 108.929 354.88 108.959 354.169 109.147C353.813 109.237 353.441 109.244 353.082 109.167C352.723 109.091 352.386 108.933 352.098 108.706C351.787 108.325 351.591 107.862 351.534 107.374C350.841 104.019 350.728 100.571 351.199 97.1779C350.254 98.9835 349.486 100.877 348.908 102.832C348.344 104.8 348.344 106.887 348.908 108.856C348.742 109.02 348.519 109.112 348.286 109.112C348.053 109.112 347.83 109.02 347.665 108.856C347.347 108.508 347.155 108.064 347.118 107.594C346.948 105.897 347.062 104.183 347.453 102.523C346.449 104.287 346.123 106.36 345.567 108.318C345.012 110.276 344.131 112.287 342.43 113.407C342.139 110.848 342.222 108.26 342.677 105.725C343.135 103.596 343.895 101.544 344.933 99.6299C345.904 97.4997 347.281 95.5794 348.987 93.9763C351.93 91.392 353.164 92.5033 355.05 93.4912L355.271 93.5794C355.271 93.5794 355.271 93.4912 355.271 93.4471L355.35 93.0413C360.279 91.9422 365.413 92.1828 370.218 93.7381C373.743 94.8935 374.096 102.558 374.96 98.9066C375.48 96.7105 378.326 98.7214 378.361 98.7832C382.548 106.333 386.981 118.319 387.175 137.247L368.579 142.433Z" fill="#263238"/>
<path d="M380.732 84.7333C379.909 83.8034 378.911 83.0452 377.795 82.5018C376.679 81.9585 375.467 81.6408 374.228 81.5669C372.986 81.5144 371.752 81.789 370.649 82.3632C369.547 82.9374 368.614 83.7911 367.944 84.8391C367.311 85.9105 367.045 87.1591 367.185 88.3957C367.325 89.6323 367.864 90.7896 368.72 91.6922L371.813 94.1707C372.87 94.7865 374.047 95.166 375.264 95.2833C376.481 95.4005 377.709 95.2526 378.864 94.8498C380.005 94.4226 380.992 93.6635 381.699 92.6701C382.406 91.6768 382.8 90.4946 382.83 89.2756C382.696 87.5591 381.952 85.9475 380.732 84.7333Z" fill="#263238"/>
<path d="M378.3 98.4747C377.701 98.7481 376.008 96.1551 373.012 94.1176C370.015 92.0802 367.019 91.3482 367.063 90.6867C367.063 90.3868 367.944 90.1486 369.319 90.2898C371.114 90.5364 372.825 91.2012 374.316 92.2306C375.807 93.2601 377.036 94.6254 377.903 96.2168C378.503 97.4604 378.573 98.3424 378.3 98.4747Z" fill="#455A64"/>
<path d="M335.309 180.757L346.89 169.899L354.743 182.371C354.584 183.491 344.581 205.056 340.254 209.528C335.309 214.626 328.576 214.229 325.606 207.19C323.262 201.643 319.375 184.549 319.375 184.549L335.309 180.757Z" fill="#294BC2"/>
<path d="M347.939 148.105C345.171 149.101 338.808 152.585 336.957 154.87C336.03 155.972 335.245 157.187 334.622 158.486C333.168 161.679 330.418 185.334 330.418 185.334L342.757 194.269L353.5 152.903L352.813 146.341L347.939 148.105Z" fill="#294BC2"/>
<path d="M343.851 216.39L344.626 210.286C343.189 203.559 342.104 196.761 341.374 189.921C339.99 174.874 343.912 165.516 344.441 163.937C344.749 163.055 352.805 146.297 352.805 146.297C352.805 146.297 354.497 151.439 361.292 150.222C370.766 148.529 374.221 143.387 374.221 143.387L386.471 146.033C386.471 146.033 391.239 165.207 391.944 171.567C392.315 174.971 387.837 194.225 387.837 194.225L395.056 205.039C395.276 205.568 391.918 220.35 391.266 220.915C390.614 221.479 378.857 224.257 378.716 224.76C378.575 225.263 356.312 234.586 356.33 234.197C356.348 233.809 345.622 221.082 345.622 221.082L343.851 216.39Z" fill="#294BC2"/>
<path d="M341.074 166.229C341.088 166.379 341.088 166.53 341.074 166.679C341.074 167.014 340.986 167.438 340.924 167.941C340.792 169.043 340.607 170.639 340.448 172.615C339.946 177.748 340.041 182.922 340.73 188.033C341.523 194.03 342.678 199.393 343.427 203.291C343.806 205.24 344.097 206.819 344.308 207.913C344.388 208.416 344.449 208.839 344.502 209.174C344.521 209.323 344.521 209.475 344.502 209.624C344.44 209.487 344.398 209.341 344.379 209.192C344.299 208.857 344.202 208.442 344.097 207.948C343.841 206.793 343.506 205.24 343.101 203.353C342.272 199.472 341.065 194.118 340.272 188.094C339.571 182.95 339.518 177.738 340.113 172.58C340.316 170.604 340.554 169.052 340.739 167.914C340.836 167.367 340.915 166.944 340.977 166.662C340.986 166.513 341.018 166.367 341.074 166.229Z" fill="#263238"/>
<path d="M397.197 213.787C399.391 217.518 404.406 231.789 406.354 239.083C415.246 272.343 422.773 317.078 425.276 326.198C428.607 338.343 436.063 365.826 439.853 384.128L421.627 392.066C421.627 392.066 397.761 327.68 391.248 311.874C384.497 295.469 373.242 264.599 373.242 264.599L366.738 387.197L349.279 387.735C349.279 387.735 343.304 353.187 340.933 332.531C338.562 311.874 338.289 269.371 338.289 258.575C338.289 245.442 343.956 215.877 343.956 215.877C343.956 215.877 350.769 220.993 363.53 219.035C373.701 217.474 394.791 209.65 394.791 209.65L397.197 213.787Z" fill="#263238"/>
<path d="M361.706 223.304C361.698 223.776 361.731 224.248 361.803 224.715C361.9 225.597 362.059 226.92 362.27 228.534C362.702 231.753 363.372 236.181 364.236 241.058C365.099 245.936 365.998 250.328 366.739 253.495C367.091 255.082 367.391 256.361 367.62 257.234C367.713 257.697 367.842 258.151 368.008 258.593C367.981 258.122 367.91 257.656 367.796 257.199C367.602 256.229 367.355 254.959 367.047 253.433C366.412 250.249 365.558 245.856 364.685 240.979C363.813 236.102 363.099 231.692 362.588 228.49C362.341 226.946 362.138 225.667 361.979 224.688C361.921 224.221 361.83 223.758 361.706 223.304Z" fill="#455A64"/>
<path d="M367.937 223.048C367.937 223.048 367.937 222.828 367.593 222.695C367.164 222.547 366.7 222.531 366.263 222.651C365.95 222.715 365.651 222.834 365.381 223.004C365.224 223.119 365.091 223.264 364.989 223.43C364.888 223.597 364.82 223.782 364.791 223.974C364.724 224.402 364.782 224.839 364.959 225.234C365.136 225.628 365.423 225.963 365.787 226.197C366.142 226.441 366.558 226.58 366.988 226.598C367.418 226.617 367.844 226.515 368.219 226.303C368.541 226.099 368.779 225.786 368.889 225.421C368.981 225.112 369.005 224.787 368.959 224.468C368.911 224.011 368.701 223.586 368.369 223.269C368.122 223.066 367.928 223.048 367.928 223.066C367.928 223.084 368.06 223.181 368.246 223.392C368.486 223.714 368.622 224.102 368.633 224.504C368.672 224.782 368.633 225.066 368.521 225.325C368.409 225.583 368.228 225.805 367.999 225.968C367.689 226.123 367.344 226.193 366.998 226.17C366.652 226.147 366.319 226.031 366.033 225.835C365.744 225.648 365.514 225.384 365.367 225.072C365.221 224.76 365.165 224.414 365.205 224.071C365.235 223.785 365.378 223.521 365.602 223.339C365.826 223.185 366.072 223.066 366.333 222.987C366.716 222.857 367.124 222.823 367.523 222.89C367.814 222.925 367.902 223.075 367.937 223.048Z" fill="#455A64"/>
<path d="M356.77 254.236C357.435 254.77 358.139 255.254 358.876 255.683C360.198 256.565 362.005 257.764 363.944 259.211C365.882 260.657 367.575 262.007 368.791 263.012C369.422 263.588 370.09 264.121 370.791 264.609C370.273 263.934 369.682 263.319 369.029 262.774C367.5 261.381 365.899 260.068 364.234 258.84C362.576 257.61 360.852 256.471 359.07 255.427C358.349 254.947 357.578 254.547 356.77 254.236Z" fill="#455A64"/>
<path d="M401.004 320.562C401.252 320.607 401.505 320.607 401.753 320.562C402.238 320.562 402.943 320.5 403.798 320.403C408.303 319.869 412.67 318.499 416.674 316.364C417.432 315.958 418.04 315.596 418.437 315.332C418.659 315.211 418.864 315.059 419.045 314.882C418.179 315.231 417.334 315.632 416.515 316.081C414.496 317.05 412.411 317.876 410.275 318.551C408.138 319.217 405.955 319.73 403.745 320.086C402.824 320.198 401.909 320.357 401.004 320.562Z" fill="#455A64"/>
<path d="M403.93 318.701C404.536 318.62 405.129 318.46 405.693 318.225C406.777 317.863 408.249 317.298 409.844 316.584C411.439 315.87 412.831 315.138 413.818 314.564C414.375 314.291 414.893 313.948 415.361 313.541C415.29 313.426 412.814 314.749 409.659 316.187C406.504 317.625 403.895 318.577 403.93 318.701Z" fill="#455A64"/>
<path d="M349.164 375.034L349.076 393.239C349.076 393.239 330.568 399.263 330.207 402.623L365.46 404.07L366.782 375.731L349.164 375.034Z" fill="#263238"/>
<path d="M360.04 392.163C360.376 392.278 360.657 392.514 360.828 392.826C360.999 393.137 361.048 393.502 360.965 393.847C360.861 394.186 360.631 394.471 360.323 394.645C360.015 394.819 359.652 394.868 359.308 394.782C358.959 394.658 358.667 394.41 358.486 394.085C358.306 393.76 358.251 393.381 358.33 393.018C358.478 392.676 358.752 392.404 359.095 392.258C359.437 392.112 359.823 392.103 360.172 392.233" fill="#E0E0E0"/>
<path d="M365.478 404.07V401.212L331.652 400.895C331.652 400.895 330.057 401.512 330.189 402.659L365.478 404.07Z" fill="#455A64"/>
<path d="M348.511 393.037C348.511 393.213 349.392 393.328 350.185 393.919C350.978 394.51 351.437 395.25 351.595 395.189C351.754 395.127 351.542 394.121 350.529 393.425C349.515 392.728 348.475 392.878 348.511 393.037Z" fill="white"/>
<path d="M344.75 394.42C344.75 394.588 345.437 394.905 345.993 395.664C346.548 396.422 346.68 397.19 346.874 397.19C347.068 397.19 347.191 396.219 346.486 395.293C345.781 394.367 344.759 394.252 344.75 394.42Z" fill="white"/>
<path d="M342.465 398.76C342.624 398.804 342.897 397.957 342.465 396.996C342.034 396.035 341.276 395.62 341.196 395.761C341.117 395.902 341.593 396.432 341.91 397.225C342.227 398.019 342.298 398.742 342.465 398.76Z" fill="white"/>
<path d="M349.006 388.891C349.077 389.049 349.887 388.846 350.848 388.952C351.809 389.058 352.558 389.402 352.611 389.252C352.664 389.102 352.003 388.467 350.848 388.37C349.694 388.273 348.909 388.758 349.006 388.891Z" fill="white"/>
<path d="M432.45 373.129L439.21 394.094L449.328 409.132C449.5 409.389 449.617 409.678 449.673 409.981C449.729 410.285 449.722 410.597 449.653 410.898C449.583 411.199 449.453 411.482 449.27 411.731C449.087 411.979 448.854 412.188 448.588 412.343C448.277 412.523 447.927 412.625 447.568 412.642C447.209 412.659 446.852 412.59 446.525 412.44C442.295 410.499 426.766 403.293 426.361 401.732C425.885 399.915 417.768 380.088 417.768 380.088L432.45 373.129Z" fill="#263238"/>
<path d="M448.596 412.343L425.875 400.321L426.183 401.203C426.443 401.967 426.969 402.612 427.664 403.02C429.524 404.114 434.715 407.016 446.472 412.466C446.808 412.623 447.179 412.694 447.549 412.672C447.92 412.651 448.279 412.538 448.596 412.343Z" fill="#455A64"/>
<g opacity="0.6">
<path d="M427.796 392.127C428.117 392.226 428.392 392.439 428.566 392.727C428.74 393.015 428.801 393.358 428.739 393.688C428.651 394.013 428.443 394.293 428.156 394.468C427.869 394.644 427.525 394.702 427.196 394.632C426.857 394.526 426.57 394.297 426.389 393.991C426.208 393.685 426.147 393.322 426.218 392.974C426.343 392.644 426.592 392.376 426.911 392.226C427.23 392.076 427.595 392.057 427.928 392.171" fill="white"/>
</g>
<path d="M440.664 404.907C440.88 404.056 441.322 403.28 441.943 402.659C442.563 402.038 443.339 401.596 444.189 401.379C444.189 401.326 443.863 401.256 443.308 401.379C442.638 401.527 442.025 401.867 441.545 402.358C441.062 402.84 440.73 403.453 440.593 404.122C440.54 404.59 440.664 404.907 440.664 404.907Z" fill="white"/>
<path d="M443.121 407.175C443.253 407.237 443.685 406.293 444.655 405.64C445.281 405.278 445.928 404.954 446.594 404.67C446.204 404.583 445.799 404.59 445.413 404.691C445.026 404.792 444.67 404.985 444.373 405.252C443.306 406.037 442.998 407.157 443.121 407.175Z" fill="white"/>
<path d="M436.68 402.297C437.345 401.398 438.079 400.552 438.874 399.766C439.776 399.109 440.724 398.519 441.712 398.002C440.549 398.168 439.458 398.663 438.566 399.429C437.675 400.194 437.02 401.199 436.68 402.324V402.297Z" fill="white"/>
<path d="M434.088 396.097C434.185 396.203 435.172 395.321 436.644 394.748C438.116 394.174 439.429 394.122 439.429 393.98C438.435 393.732 437.386 393.845 436.467 394.298C435.489 394.603 434.648 395.239 434.088 396.097Z" fill="white"/>
<path d="M431.955 389.993C432.763 389.38 433.653 388.885 434.599 388.52C435.581 388.295 436.589 388.203 437.596 388.246C437.596 388.193 437.296 388.017 436.714 387.902C435.958 387.771 435.181 387.822 434.449 388.052C433.715 388.278 433.045 388.673 432.493 389.208C432.061 389.631 431.902 389.957 431.955 389.993Z" fill="white"/>
<path d="M434.132 387.364C434.108 387.085 434.024 386.814 433.886 386.57C433.563 385.874 433.108 385.248 432.546 384.727C432.167 384.312 431.662 384.033 431.109 383.933C430.926 383.918 430.742 383.961 430.584 384.056C430.426 384.151 430.301 384.293 430.228 384.462C430.096 384.8 430.096 385.174 430.228 385.512C430.52 386.194 431.04 386.754 431.7 387.095C432.359 387.437 433.116 387.538 433.842 387.382C434.554 387.211 435.2 386.832 435.697 386.293C436.195 385.755 436.521 385.081 436.635 384.356C436.664 384.174 436.651 383.988 436.6 383.811C436.548 383.634 436.458 383.471 436.336 383.333C436.201 383.203 436.028 383.119 435.843 383.094C435.658 383.069 435.469 383.103 435.304 383.192C434.835 383.486 434.45 383.896 434.185 384.383C433.765 385.026 433.466 385.74 433.304 386.491C433.218 386.758 433.194 387.042 433.233 387.32C433.497 386.348 433.904 385.42 434.441 384.568C434.691 384.156 435.036 383.808 435.446 383.554C435.536 383.504 435.639 383.485 435.741 383.5C435.842 383.514 435.937 383.561 436.01 383.633C436.079 383.73 436.128 383.841 436.154 383.957C436.18 384.074 436.182 384.195 436.159 384.312C436.046 384.935 435.754 385.512 435.319 385.972C434.884 386.433 434.325 386.757 433.709 386.905C433.097 387.036 432.459 386.956 431.899 386.677C431.339 386.398 430.89 385.938 430.625 385.371C430.537 385.131 430.537 384.869 430.625 384.63C430.665 384.534 430.734 384.454 430.823 384.4C430.912 384.346 431.015 384.322 431.118 384.33C431.583 384.419 432.01 384.647 432.343 384.983C433.073 385.667 433.678 386.473 434.132 387.364Z" fill="white"/>
<path d="M321.737 166.229L330.145 174.917L330.489 182.494L320.724 184.743H320.23L319.596 179.856L313.973 172.368L321.737 166.229Z" fill="#AE7461"/>
<path d="M312.739 159.941C308.14 164.852 302.62 168.808 296.494 171.584C290.367 174.36 283.754 175.901 277.033 176.119C270.311 176.336 263.612 175.227 257.319 172.854C251.026 170.481 245.262 166.89 240.355 162.287C232.972 155.359 227.806 146.395 225.512 136.529C223.218 126.662 223.898 116.337 227.466 106.858C231.035 97.3785 237.332 89.1708 245.561 83.2722C253.789 77.3736 263.581 74.049 273.698 73.7187C283.814 73.3883 293.802 76.067 302.397 81.4161C310.993 86.7653 317.811 94.5447 321.989 103.771C326.168 112.997 327.519 123.256 325.873 133.251C324.226 143.246 319.656 152.528 312.739 159.924V159.941ZM242.7 159.8C251.013 167.608 261.84 172.187 273.229 172.71C284.618 173.234 295.82 169.669 304.813 162.657C313.807 155.645 320.002 145.648 322.281 134.468C324.559 123.289 322.772 111.662 317.24 101.685C311.709 91.7083 302.798 84.0373 292.114 80.0553C281.43 76.0734 269.676 76.0425 258.971 79.9683C248.266 83.8941 239.315 91.5182 233.731 101.466C228.148 111.414 226.299 123.031 228.519 134.222C230.438 144.029 235.401 152.98 242.7 159.8Z" fill="#455A64"/>
<path d="M312.739 159.941C308.14 164.852 302.62 168.808 296.494 171.584C290.367 174.36 283.754 175.901 277.033 176.119C270.311 176.336 263.612 175.227 257.319 172.854C251.026 170.481 245.262 166.89 240.355 162.287C232.972 155.359 227.806 146.395 225.512 136.529C223.218 126.662 223.898 116.337 227.466 106.858C231.035 97.3785 237.332 89.1708 245.561 83.2722C253.789 77.3736 263.581 74.049 273.698 73.7187C283.814 73.3883 293.802 76.067 302.397 81.4161C310.993 86.7653 317.811 94.5447 321.989 103.771C326.168 112.997 327.519 123.256 325.873 133.251C324.226 143.246 319.656 152.528 312.739 159.924V159.941ZM242.7 159.8C251.013 167.608 261.84 172.187 273.229 172.71C284.618 173.234 295.82 169.669 304.813 162.657C313.807 155.645 320.002 145.648 322.281 134.468C324.559 123.289 322.772 111.662 317.24 101.685C311.709 91.7083 302.798 84.0373 292.114 80.0553C281.43 76.0734 269.676 76.0425 258.971 79.9683C248.266 83.8941 239.315 91.5182 233.731 101.466C228.148 111.414 226.299 123.031 228.519 134.222C230.438 144.029 235.401 152.98 242.7 159.8Z" fill="#263238"/>
<path d="M313.998 157.471C304.713 167.389 291.871 173.21 278.298 173.655C264.724 174.1 251.53 169.132 241.615 159.844C234.227 152.916 229.058 143.951 226.761 134.083C224.464 124.215 225.142 113.887 228.709 104.405C232.277 94.9223 238.574 86.7114 246.804 80.81C255.033 74.9086 264.827 71.5818 274.946 71.2501C285.065 70.9184 295.055 73.5968 303.653 78.9466C312.252 84.2963 319.072 92.0773 323.252 101.306C327.431 110.534 328.783 120.796 327.136 130.793C325.489 140.79 320.917 150.074 313.998 157.471ZM243.959 157.339C252.273 165.147 263.1 169.726 274.489 170.249C285.878 170.773 297.079 167.208 306.073 160.196C315.067 153.184 321.262 143.187 323.54 132.007C325.819 120.828 324.031 109.201 318.5 99.2243C312.969 89.2473 304.058 81.5763 293.374 77.5944C282.69 73.6124 270.935 73.5815 260.23 77.5073C249.526 81.4331 240.574 89.0573 234.991 99.0051C229.407 108.953 227.559 120.57 229.779 131.761C231.698 141.568 236.66 150.519 243.959 157.339Z" fill="#455A64"/>
<path d="M370.845 222.166L372.475 220.588C373.93 219.185 373.119 215.966 371.594 214.414L314.378 155.231L306.729 162.64L363.856 221.734C365.751 223.613 368.977 224.027 370.845 222.166Z" fill="#455A64"/>
<path d="M318.16 162.358C318.003 162.221 317.816 162.122 317.614 162.068C317.413 162.015 317.201 162.008 316.997 162.049C316.657 162.187 316.354 162.405 316.115 162.684C314.245 164.607 313.19 167.18 313.172 169.863C313.172 171.001 313.472 172.307 314.485 172.818L315.631 172.157C315.992 171.698 317.05 170.922 317.191 170.393C317.79 168.02 316.935 168.117 318.425 163.998C318.558 163.732 318.605 163.43 318.557 163.135C318.51 162.841 318.371 162.569 318.16 162.358Z" fill="#AE7461"/>
<path d="M317.852 165.727C318.141 165.164 318.525 164.657 318.989 164.227C319.184 164.032 319.425 163.888 319.689 163.81C319.954 163.731 320.234 163.72 320.505 163.777C321.298 164.024 321.686 165.162 321.589 166.229C321.44 167.288 321.105 168.312 320.601 169.255C319.658 171.292 318.724 173.338 317.781 175.384L317.235 174.979C317.143 175.058 317.034 175.115 316.916 175.145C316.798 175.176 316.675 175.178 316.556 175.152C316.438 175.127 316.326 175.074 316.231 174.998C316.137 174.922 316.061 174.825 316.01 174.714C315.771 174.19 315.68 173.611 315.745 173.038C315.851 170.467 316.574 167.959 317.852 165.727Z" fill="#AE7461"/>
<path d="M319.234 171.839C319.962 170.427 320.918 169.145 322.063 168.046C322.416 167.615 322.866 167.273 323.376 167.049C323.636 166.944 323.923 166.929 324.192 167.008C324.461 167.086 324.695 167.253 324.857 167.482C324.938 167.732 324.962 167.998 324.927 168.259C324.892 168.52 324.799 168.769 324.654 168.99C323.235 171.949 321.609 174.805 319.789 177.536L318.097 175.834C317.331 174.449 318.591 173.285 319.234 171.839Z" fill="#AE7461"/>
<path d="M364.869 190.749L363.318 190.423L355.175 183.499L350.768 179.76C350.392 179.45 349.943 179.243 349.464 179.16L345.057 178.428C344.875 179.004 344.908 179.628 345.149 180.182C345.391 180.736 345.824 181.185 346.37 181.444L348.785 182.697L350.988 185.343L350.706 185.907C350.706 185.907 336.261 188.156 335.354 189.259C335.206 189.427 335.098 189.627 335.038 189.843C334.977 190.059 334.966 190.286 335.005 190.507C335.044 190.728 335.132 190.937 335.262 191.12C335.393 191.302 335.563 191.453 335.759 191.561C336.112 191.684 336.49 191.72 336.861 191.667C336.861 191.667 336.156 193.369 338.262 194.771C338.262 194.771 336.658 196.879 339.461 197.885C339.979 198.855 340.835 199.602 341.867 199.984C345.544 200.687 349.257 201.19 352.989 201.492H363.353L365.433 201.827L364.869 190.749Z" fill="#AE7461"/>
<path d="M336.535 191.641C337.845 191.951 339.2 192.026 340.536 191.861C341.872 191.829 343.198 191.63 344.485 191.27C343.156 191.183 341.821 191.227 340.501 191.402C339.176 191.414 337.852 191.494 336.535 191.641Z" fill="#6F4439"/>
<path d="M338.27 194.727C338.27 194.789 338.648 194.842 339.248 194.921C339.847 195.001 340.684 195.115 341.619 195.177C342.418 195.208 343.219 195.19 344.016 195.124C344.347 195.134 344.678 195.104 345.003 195.036C345.003 194.974 344.641 194.842 344.025 194.798C343.408 194.754 342.562 194.798 341.645 194.718C340.728 194.639 339.882 194.595 339.265 194.604C338.649 194.612 338.27 194.665 338.27 194.727Z" fill="#6F4439"/>
<path d="M339.188 197.77C340.461 198.099 341.768 198.277 343.083 198.3C343.98 198.303 344.872 198.443 345.727 198.714C346.37 198.952 346.661 199.296 346.714 199.243C346.767 199.191 346.538 198.767 345.833 198.423C344.962 198.045 344.023 197.847 343.074 197.841C341.785 197.674 340.482 197.651 339.188 197.77Z" fill="#6F4439"/>
<path d="M386.471 146.075C386.471 146.075 392.578 147.134 397.205 156.236C399.761 161.272 411.729 191.516 412.434 194.162C415.475 205.522 409.597 212.843 403.947 213.337C397.716 213.892 365.53 203.493 365.53 203.493L364.816 189.734L394.182 194.188L380.081 166.785C380.081 166.785 379.535 148.571 386.471 146.075Z" fill="#294BC2"/>
<path d="M404.052 201.748C403.915 201.09 403.649 200.467 403.268 199.914C402.411 198.53 401.287 197.331 399.963 196.386C398.643 195.434 397.144 194.759 395.556 194.401C394.909 194.22 394.232 194.169 393.564 194.251C393.564 194.33 394.322 194.383 395.477 194.719C396.987 195.152 398.412 195.841 399.69 196.756C400.966 197.669 402.081 198.79 402.986 200.072C403.647 201.095 403.982 201.783 404.052 201.748Z" fill="#263238"/>
<path d="M395.883 212.2H395.724L395.292 212.103C394.896 212.023 394.332 211.856 393.6 211.653C392.128 211.229 389.996 210.568 387.307 209.712C381.931 207.992 374.326 205.488 365.398 202.462L365.266 202.418V202.268C365.054 198.308 364.825 193.995 364.596 189.488V189.206L364.878 189.259L372.096 190.423L394.217 194.039L393.997 194.339C390.004 186.516 386.638 179.91 384.24 175.235C383.086 172.924 382.161 171.09 381.508 169.802L380.803 168.355C380.713 168.191 380.637 168.02 380.574 167.844C380.688 167.994 380.786 168.157 380.865 168.329L381.632 169.74C382.302 171.019 383.262 172.836 384.47 175.12L394.367 194.154L394.552 194.515L394.147 194.454L371.999 190.926L364.772 189.744L365.036 189.514C365.266 194.013 365.477 198.334 365.68 202.295L365.53 202.109L387.387 209.518L393.635 211.564C394.367 211.785 394.922 211.979 395.301 212.076L395.733 212.208L395.883 212.2Z" fill="#263238"/>
<path d="M387.784 146.632C387.784 146.711 386.955 147.214 385.739 148.264C382.535 151.018 380.442 154.847 379.852 159.033C379.64 160.62 379.693 161.635 379.605 161.635C379.538 161.405 379.506 161.168 379.508 160.929C379.448 160.287 379.448 159.64 379.508 158.997C379.593 158.039 379.77 157.091 380.037 156.166C380.692 153.889 381.835 151.782 383.386 149.992C384.017 149.269 384.714 148.604 385.466 148.008C385.973 147.605 386.512 147.245 387.079 146.932C387.294 146.791 387.533 146.689 387.784 146.632Z" fill="#263238"/>
<path d="M49.1356 165.172C49.1356 165.172 42.6491 201.334 42.9663 204.677C43.2836 208.019 45.011 213.426 48.9241 214.379C51.4004 214.924 53.9655 214.924 56.4418 214.379L51.7444 170.014L49.1356 165.172Z" fill="#FFBF9D"/>
<path d="M68.0815 134.321L67.6232 97.0211C67.209 87.7424 72.259 79.7603 81.5482 79.6016H82.4295C86.5981 79.7734 90.5492 81.5094 93.4969 84.4642C96.4446 87.419 98.1727 91.3761 98.3374 95.5481C98.6459 103.592 98.8927 112.491 98.6636 116.787C98.1876 125.695 89.2245 126.709 89.2245 126.709C89.2245 126.709 89.1717 132.133 89.1717 134.744L81.9624 144.693V145.222L68.0815 134.321Z" fill="#FFBF9D"/>
<path d="M89.1994 126.709C85.0856 126.53 81.1093 125.174 77.7422 122.802C77.7422 122.802 80.254 129.611 89.1994 129.179V126.709Z" fill="#FF9A6C"/>
<path d="M95.4757 103.193C95.4643 103.525 95.3246 103.839 95.0862 104.069C94.8478 104.3 94.5292 104.428 94.1978 104.428C94.0356 104.435 93.8736 104.41 93.7215 104.353C93.5695 104.296 93.4304 104.209 93.3128 104.097C93.1951 103.985 93.1013 103.85 93.0368 103.701C92.9723 103.552 92.9385 103.391 92.9375 103.229C92.9467 102.898 93.0844 102.584 93.3214 102.353C93.5585 102.123 93.876 101.994 94.2066 101.994C94.369 101.988 94.5308 102.015 94.6829 102.072C94.8349 102.129 94.974 102.216 95.0921 102.328C95.2102 102.439 95.3049 102.573 95.3708 102.722C95.4366 102.871 95.4723 103.031 95.4757 103.193Z" fill="#263238"/>
<path d="M96.2507 99.4018C96.092 99.5606 95.1578 98.8109 93.7918 98.7579C92.4257 98.705 91.3857 99.3489 91.2447 99.1725C91.1037 98.9961 91.3505 98.802 91.8 98.5022C92.4084 98.1128 93.1236 97.9246 93.8447 97.9641C94.5575 97.9888 95.2435 98.2424 95.8012 98.6874C96.2066 99.0225 96.3388 99.3312 96.2507 99.4018Z" fill="#263238"/>
<path d="M83.258 103.193C83.2466 103.525 83.1069 103.839 82.8684 104.069C82.63 104.3 82.3115 104.428 81.98 104.428C81.8177 104.434 81.6558 104.408 81.5038 104.35C81.3518 104.293 81.2127 104.206 81.0946 104.094C80.9765 103.983 80.8817 103.849 80.8159 103.7C80.75 103.552 80.7143 103.391 80.7109 103.229C80.7224 102.897 80.862 102.583 81.1005 102.353C81.3389 102.122 81.6574 101.994 81.9889 101.994C82.1512 101.988 82.3131 102.015 82.4651 102.072C82.6171 102.129 82.7562 102.216 82.8743 102.328C82.9924 102.439 83.0872 102.573 83.1531 102.722C83.2189 102.871 83.2546 103.031 83.258 103.193Z" fill="#263238"/>
<path d="M82.8454 99.1633C82.678 99.3221 81.7438 98.5724 80.3777 98.5194C79.0117 98.4665 77.9717 99.1104 77.8307 98.934C77.6897 98.7576 77.9364 98.5635 78.3859 98.2637C78.9964 97.8792 79.7101 97.6914 80.4306 97.7256C81.1421 97.7569 81.8261 98.0098 82.3871 98.4489C82.7837 98.784 82.9159 99.0927 82.8454 99.1633Z" fill="#263238"/>
<path d="M87.3037 109.888C88.0336 109.69 88.786 109.586 89.5423 109.58C89.8948 109.58 90.2297 109.5 90.2914 109.262C90.3375 108.904 90.2729 108.541 90.1063 108.221C89.8067 107.339 89.507 106.457 89.1809 105.514C87.903 101.668 86.9953 98.5016 87.1451 98.4575C87.2949 98.4134 88.4671 101.483 89.745 105.328L90.6263 108.054C90.8248 108.484 90.8685 108.97 90.7497 109.43C90.6931 109.551 90.6097 109.657 90.5059 109.741C90.402 109.825 90.2805 109.885 90.1504 109.915C89.9574 109.963 89.7586 109.983 89.5599 109.976C88.8071 110.043 88.049 110.013 87.3037 109.888Z" fill="#263238"/>
<path d="M83.4542 94.9024C83.2515 95.2463 81.9383 94.823 80.3255 94.7171C78.7127 94.6113 77.3554 94.8142 77.2056 94.4437C77.1439 94.2673 77.4259 93.9674 78.0076 93.7028C78.7753 93.3911 79.6055 93.2642 80.4313 93.3324C81.2565 93.3823 82.0576 93.6303 82.7668 94.0556C83.3044 94.3732 83.5423 94.7348 83.4542 94.9024Z" fill="#263238"/>
<path d="M96.4774 95.3792C96.1866 95.6791 95.0849 95.3263 93.7453 95.2822C92.4057 95.2381 91.26 95.4233 91.0132 95.0881C90.8986 94.9294 91.0837 94.6207 91.5861 94.3384C92.2833 93.9951 93.058 93.84 93.8335 93.8886C94.6051 93.9169 95.3545 94.1547 96.0015 94.5766C96.4598 94.9029 96.6096 95.2557 96.4774 95.3792Z" fill="#263238"/>
<path d="M68.0835 103.617C67.9337 103.537 62.0376 101.553 61.9847 107.648C61.9318 113.742 68.057 112.543 68.0659 112.366C68.0747 112.19 68.0835 103.617 68.0835 103.617Z" fill="#FFBF9D"/>
<path d="M66.2316 110.047C66.2316 110.047 66.1259 110.118 65.9408 110.197C65.6866 110.301 65.4018 110.301 65.1476 110.197C64.758 109.942 64.4428 109.588 64.2339 109.171C64.025 108.754 63.9297 108.29 63.9578 107.825C63.9422 107.302 64.0478 106.783 64.2663 106.307C64.3261 106.119 64.4301 105.948 64.5697 105.808C64.7092 105.669 64.8802 105.565 65.0683 105.505C65.1901 105.474 65.3189 105.486 65.4329 105.539C65.5469 105.592 65.6391 105.683 65.694 105.796C65.7733 105.972 65.7381 106.087 65.7645 106.105C65.791 106.122 65.8967 105.999 65.8527 105.752C65.8197 105.599 65.7357 105.462 65.6147 105.364C65.5338 105.299 65.4404 105.251 65.3403 105.224C65.2403 105.197 65.1357 105.19 65.033 105.205C64.782 105.252 64.5473 105.362 64.3513 105.526C64.1553 105.69 64.0046 105.901 63.9138 106.14C63.6486 106.664 63.5154 107.246 63.526 107.833C63.526 109.068 64.1781 110.224 65.0507 110.479C65.2144 110.53 65.3876 110.543 65.5571 110.517C65.7266 110.491 65.888 110.427 66.0289 110.329C66.214 110.188 66.2493 110.056 66.2316 110.047Z" fill="#FF9A6C"/>
<path d="M83.0028 110.735C83.2143 110.735 83.2231 112.119 84.4306 113.107C85.638 114.095 87.1186 113.936 87.1274 114.13C87.1362 114.324 86.8013 114.404 86.1668 114.43C85.3474 114.442 84.5497 114.167 83.9106 113.654C83.3146 113.15 82.9333 112.437 82.8442 111.661C82.7561 111.07 82.9147 110.726 83.0028 110.735Z" fill="#263238"/>
<path d="M110.606 87.5209C110.508 87.15 110.267 86.8331 109.936 86.6389C109.227 86.3068 108.442 86.1698 107.662 86.242C105.722 86.1779 103.822 85.6775 102.101 84.7779C102.711 84.4899 103.27 84.1058 103.758 83.6401C104.277 83.1729 104.657 82.5721 104.858 81.9032C105.058 81.2344 105.071 80.5232 104.895 79.8475C104.866 79.7206 104.809 79.6018 104.728 79.4996C104.647 79.3974 104.545 79.3144 104.428 79.2566C104.031 79.1331 103.679 79.5212 103.406 79.8211C103.055 80.3043 102.579 80.6827 102.029 80.9158C101.48 81.1489 100.877 81.2278 100.286 81.1441C99.4728 81.0859 98.6835 80.8447 97.9767 80.4385L97.9062 80.3503L96.9455 79.3801C94.6805 77.078 92.724 75.4816 90.7058 74.6349C87.1826 73.3092 83.3661 72.9648 79.6628 73.6382C76.5517 74.4232 73.7402 76.9105 73.2731 80.0857C71.5545 78.5951 68.937 78.5774 66.813 79.3977H66.7601C64.3894 80.2091 63.0233 82.6876 62.2918 85.0866L62.186 85.4835C61.3778 86.749 60.2776 87.8017 58.978 88.5529C58.7489 88.6852 58.4845 88.8439 58.4492 89.1085C58.4572 89.2391 58.4977 89.3655 58.567 89.4764C58.6362 89.5873 58.7321 89.6791 58.8458 89.7436C59.4142 90.1487 60.0637 90.4256 60.7495 90.555C60.5303 91.127 60.262 91.6788 59.9475 92.2043C59.6743 92.6542 59.357 93.1922 59.5773 93.6596C59.682 93.8347 59.8379 93.9734 60.0238 94.057C60.2098 94.1406 60.417 94.1651 60.6173 94.1271C61.0146 94.0451 61.3901 93.8797 61.7189 93.642C61.4545 94.2682 61.1813 94.9033 60.9081 95.5295C61.7653 95.6815 62.6461 95.6332 63.4816 95.3884C63.9575 97.6463 64.2836 101.818 64.8476 103.326C66.4605 103.326 66.8571 103.194 67.6679 103.476C68.7255 103.838 68.3024 105.708 69.6773 105.187C70.3824 104.932 71.44 102.286 71.722 101.58C73.3354 96.8516 73.9066 91.8297 73.3965 86.8594C74.3897 85.8248 75.5713 84.9895 76.8778 84.3986L76.772 84.4957C79.2749 83.6578 82.104 82.8375 84.4571 84.037C86.2727 84.919 87.3303 86.8859 88.6875 88.447C89.829 89.8445 91.2532 90.9842 92.8664 91.7914C94.4795 92.5987 96.2452 93.055 98.0472 93.1304C98.3645 95.8294 98.4174 100.186 98.5231 102.744L100.726 97.7433C100.895 97.4577 101.048 97.1632 101.185 96.8613L101.238 96.7731C101.452 96.2867 101.693 95.8127 101.96 95.3531C102.25 95.5917 102.615 95.7185 102.991 95.7106C103.366 95.7026 103.725 95.5604 104.005 95.3097C104.284 95.059 104.464 94.7164 104.513 94.3441C104.561 93.9718 104.475 93.5944 104.269 93.2804C104.064 92.9849 103.811 92.7256 103.52 92.513C103.826 92.813 104.204 93.0289 104.618 93.1402C105.032 93.2514 105.467 93.2541 105.882 93.1481C106.292 93.0262 106.65 92.7728 106.902 92.4269C107.154 92.081 107.285 91.6619 107.275 91.2341C107.245 90.9453 107.139 90.6694 106.969 90.4341C106.799 90.1989 106.57 90.0124 106.305 89.8935C107.411 89.9956 108.522 89.7653 109.496 89.232C110.165 88.8968 110.809 88.3147 110.606 87.5209Z" fill="#263238"/>
<path d="M76.1028 81.1445C75.7899 81.3934 75.4954 81.6646 75.2215 81.956C74.5032 82.7983 74.0171 83.8138 73.8114 84.9019C73.6567 85.6478 73.5741 86.4068 73.5646 87.1686C73.5646 87.9889 73.6087 88.8709 73.6527 89.8146C73.7149 90.7897 73.7149 91.7677 73.6527 92.7428C73.6226 93.2626 73.5489 93.7789 73.4324 94.2863C73.351 94.8307 73.1293 95.3445 72.789 95.7769C72.6326 95.9487 72.4339 96.0766 72.2129 96.1477C71.9918 96.2189 71.7559 96.2309 71.5287 96.1826C71.0887 96.1018 70.6902 95.8712 70.4006 95.5299C69.9261 94.8592 69.64 94.0734 69.5722 93.2544H69.7573C69.4805 93.9233 69.1063 94.5475 68.6468 95.1066C68.1948 95.6169 67.5633 95.9329 66.8841 95.9886C66.5807 96.0122 66.2764 95.9544 66.0028 95.821C65.7509 95.6825 65.543 95.4759 65.4027 95.2248C65.2625 94.9738 65.1956 94.6883 65.2096 94.401C65.2243 94.145 65.3271 93.9019 65.5005 93.713L65.5974 93.8012C65.0592 94.4048 64.3981 94.886 63.6585 95.2124C63.4657 95.2989 63.2686 95.3755 63.068 95.4417C62.9949 95.4522 62.9207 95.4522 62.8477 95.4417L63.0504 95.3624C63.2486 95.2875 63.4428 95.2021 63.632 95.1066C64.3474 94.7617 64.9836 94.2722 65.5005 93.6689L65.5886 93.7571C65.4415 93.9432 65.3557 94.1704 65.3431 94.4074C65.3304 94.6444 65.3916 94.8794 65.5181 95.0801C65.6413 95.3184 65.8353 95.5125 66.0733 95.6358C66.334 95.7594 66.6238 95.8082 66.9106 95.7769C67.5445 95.703 68.1254 95.387 68.5322 94.8949C68.9688 94.3423 69.3249 93.7306 69.5898 93.078L69.722 92.7957L69.7837 93.1044C69.8492 93.8884 70.123 94.6406 70.5769 95.283C70.8365 95.585 71.1906 95.7902 71.5816 95.8651C71.7752 95.9055 71.9761 95.8951 72.1645 95.8348C72.3529 95.7746 72.5225 95.6665 72.6568 95.5211C72.969 95.1135 73.1749 94.6346 73.2561 94.1276C73.3605 93.6302 73.4312 93.1263 73.4676 92.6194C73.5252 91.653 73.5252 90.684 73.4676 89.7176C73.4147 88.7827 73.3707 87.9007 73.3883 87.0716C73.4034 86.2995 73.4979 85.5311 73.6703 84.7784C73.8914 83.6718 74.4058 82.6451 75.1598 81.806C75.4371 81.5368 75.7554 81.3136 76.1028 81.1445Z" fill="#455A64"/>
<path d="M103.591 90.1498L103.52 90.2027L103.291 90.3703C103.17 90.4573 103.043 90.5368 102.912 90.6084C102.735 90.7101 102.553 90.8014 102.366 90.8818C101.164 91.4124 99.8493 91.6338 98.5406 91.5257C96.5943 91.3766 94.733 90.6658 93.1822 89.4795C91.314 88.0084 89.7613 86.1755 88.6169 84.0904C87.9823 83.0056 87.4712 81.8854 86.8983 80.8623C86.3783 79.8582 85.7164 78.9344 84.9329 78.1193C84.229 77.3864 83.3536 76.8407 82.3859 76.5317C81.9449 76.405 81.4874 76.3455 81.0287 76.3553C80.606 76.3755 80.188 76.4526 79.786 76.5846C79.0926 76.8123 78.4557 77.1851 77.9176 77.6783C77.5103 78.0536 77.1653 78.4912 76.8952 78.9748C76.6894 79.4004 76.5298 79.8469 76.4193 80.3067C76.4175 80.2773 76.4175 80.2478 76.4193 80.2185C76.4193 80.1391 76.4193 80.0509 76.4193 79.945C76.4936 79.5962 76.612 79.2583 76.7718 78.9396C77.0479 78.44 77.4088 77.9923 77.8383 77.6166C78.3813 77.0975 79.031 76.7032 79.7419 76.4611C80.1553 76.3232 80.5849 76.2402 81.0198 76.2142C81.4957 76.1962 81.9715 76.2528 82.43 76.3818C83.4341 76.6907 84.3436 77.249 85.0739 78.0046C85.8718 78.8289 86.5457 79.7647 87.0745 80.7829C87.6562 81.8149 88.1674 82.9262 88.8372 84.0022C89.9681 86.0484 91.4963 87.8476 93.332 89.2942C94.8608 90.4748 96.6962 91.1911 98.6199 91.3581C99.9079 91.4714 101.204 91.2749 102.401 90.7848C102.808 90.5941 103.205 90.3821 103.591 90.1498Z" fill="#455A64"/>
<path d="M104.446 86.2335C104.35 86.3198 104.243 86.3938 104.129 86.454C103.825 86.6359 103.507 86.7923 103.177 86.9214C102.69 87.1242 102.186 87.2836 101.67 87.3977C101.038 87.5357 100.395 87.6154 99.7489 87.6358C99.1019 87.644 98.4557 87.5908 97.8187 87.4771C97.2993 87.3841 96.7891 87.2454 96.2941 87.0625C95.9579 86.9497 95.6333 86.805 95.3246 86.6304C95.1043 86.5157 94.9897 86.4451 94.9985 86.4275C95.0073 86.4099 95.5009 86.6568 96.3469 86.9214C96.8308 87.0877 97.3255 87.2203 97.8276 87.3183C98.4516 87.4141 99.0824 87.4583 99.7136 87.4506C100.347 87.4341 100.978 87.3632 101.6 87.2389C102.108 87.1312 102.608 86.9897 103.098 86.8156C103.997 86.4804 104.429 86.1982 104.446 86.2335Z" fill="#455A64"/>
<path d="M81.1261 369.558L80.2448 389.712C80.2448 389.712 100.418 397.377 100.621 401.116L61.5078 400.816L61.5871 369.347L81.1261 369.558Z" fill="#455A64"/>
<path d="M68.1613 387.948C67.7846 388.06 67.4625 388.308 67.2562 388.643C67.0499 388.978 66.9736 389.377 67.042 389.764C67.1383 390.141 67.3738 390.467 67.701 390.677C68.0282 390.886 68.4226 390.964 68.8047 390.893C69.2034 390.772 69.5435 390.508 69.7598 390.152C69.9761 389.795 70.0534 389.372 69.9768 388.962C69.8352 388.574 69.5478 388.256 69.1759 388.077C68.804 387.897 68.3768 387.87 67.985 388" fill="#E0E0E0"/>
<g opacity="0.6">
<path d="M61.5078 400.843L61.64 397.668L99.0964 399.15C99.0964 399.15 100.859 399.917 100.621 401.143L61.5078 400.843Z" fill="white"/>
</g>
<path d="M80.8804 389.544C80.8804 389.739 79.9198 389.818 78.968 390.426C78.0161 391.035 77.5226 391.829 77.3463 391.749C77.1701 391.67 77.4609 390.576 78.6154 389.862C79.77 389.148 80.9245 389.368 80.8804 389.544Z" fill="#263238"/>
<path d="M84.9692 391.273C84.9692 391.458 84.1848 391.776 83.5238 392.587C82.8628 393.399 82.6425 394.237 82.4839 394.228C82.3252 394.219 82.1842 393.143 83.0215 392.155C83.8587 391.167 84.9692 391.097 84.9692 391.273Z" fill="#263238"/>
<path d="M87.2511 396.213C87.0748 396.213 86.8192 395.287 87.3216 394.246C87.8239 393.205 88.7141 392.799 88.7934 392.958C88.8727 393.117 88.3175 393.673 87.9121 394.537C87.5067 395.401 87.4538 396.195 87.2511 396.213Z" fill="#263238"/>
<path d="M80.572 384.932C80.4927 385.1 79.6113 384.835 78.5361 384.932C77.4609 385.029 76.6148 385.329 76.5091 385.17C76.4033 385.011 77.2318 384.288 78.5009 384.288C79.77 384.288 80.6689 384.782 80.572 384.932Z" fill="#263238"/>
<path d="M81.0823 384.702C81.2211 386.316 81.2388 387.937 81.1352 389.553L80.9765 389.315C83.2592 390.197 86.2645 391.352 89.5254 392.843C92.5883 394.188 95.4962 395.862 98.1977 397.835C99.0268 398.441 99.7504 399.181 100.339 400.022C100.745 400.658 100.692 401.134 100.63 401.107C100.525 400.766 100.354 400.449 100.128 400.172C99.4861 399.416 98.7415 398.754 97.9156 398.206C95.1704 396.369 92.2718 394.772 89.2522 393.434C86.0442 391.926 83.0388 390.7 80.8003 389.738L80.6328 389.668V389.5C80.6625 387.892 80.8127 386.288 81.0823 384.702Z" fill="#263238"/>
<path d="M55.8223 229.011V247.277L63.0315 305.621C63.0315 305.621 60.7489 332.963 59.3388 348.425C58.1225 361.84 60.1143 385.195 60.1143 385.195H81.4689L89.1012 307.297L93.8427 258.716L102.444 229.937L55.8223 229.011Z" fill="#263238"/>
<path d="M93.6779 366.082L88.1343 385.433C88.1343 385.433 105.946 397.632 105.259 401.309L67.3086 391.81L74.7823 361.24L93.6779 366.082Z" fill="#455A64"/>
<path d="M76.7639 380.883C76.3702 380.904 75.998 381.069 75.7183 381.347C75.4387 381.626 75.2713 381.997 75.248 382.391C75.2523 382.784 75.4077 383.16 75.6819 383.44C75.956 383.721 76.3277 383.886 76.7198 383.899C77.1367 383.88 77.5313 383.706 77.8264 383.41C78.1215 383.115 78.2957 382.72 78.315 382.303C78.2705 381.893 78.0677 381.517 77.7499 381.255C77.432 380.993 77.0244 380.866 76.6141 380.9" fill="#E0E0E0"/>
<g opacity="0.6">
<path d="M67.2637 391.854L68.145 388.803L104.209 399.052C104.209 399.052 105.716 400.207 105.222 401.354L67.2637 391.854Z" fill="white"/>
</g>
<path d="M88.7484 385.434C88.6955 385.61 87.7525 385.434 86.6861 385.83C85.6197 386.227 84.9234 386.862 84.7912 386.712C84.659 386.563 85.1878 385.592 86.4746 385.169C87.7613 384.746 88.8277 385.266 88.7484 385.434Z" fill="#263238"/>
<path d="M92.3192 388.079C92.3192 388.273 91.4379 388.388 90.6095 389.014C89.781 389.641 89.3932 390.426 89.2082 390.373C89.0231 390.32 89.2081 389.235 90.2129 388.476C91.2176 387.718 92.3545 387.894 92.3192 388.079Z" fill="#263238"/>
<path d="M93.4204 393.372C93.2441 393.372 93.2177 392.375 93.9492 391.485C94.6807 390.594 95.6413 390.4 95.7118 390.603C95.7823 390.806 95.0773 391.185 94.4868 391.926C93.8963 392.667 93.579 393.434 93.4204 393.372Z" fill="#263238"/>
<path d="M89.5356 380.873C89.4122 381.023 88.6542 380.547 87.5614 380.362C86.4686 380.177 85.596 380.291 85.5432 380.115C85.4903 379.939 86.4245 379.462 87.6848 379.709C88.9451 379.956 89.6589 380.75 89.5356 380.873Z" fill="#263238"/>
<path d="M110.694 230.255L111.673 240.195L110.492 312.343L93.5965 370.308L89.4984 384.367L67.6855 380.257L84.5013 230.273L110.694 230.255Z" fill="#263238"/>
<path d="M110.034 313.86C110.034 313.86 110.034 313.974 109.955 314.204C109.875 314.433 109.796 314.768 109.681 315.2C109.426 316.082 109.056 317.396 108.58 319.081L104.393 333.652C100.78 346.132 95.6683 363.763 89.6841 384.42L89.6312 384.587H89.4638L67.6509 380.486H67.457V380.283C68.5675 374.4 69.7309 368.261 70.9207 361.99C74.446 343.468 77.7597 325.925 80.6681 310.631V310.693C77.0547 287.999 74.1727 269.91 72.5158 259.537L68.876 252.905L67.9946 251.185C67.7831 250.805 67.6862 250.603 67.6862 250.603C67.6862 250.603 67.8096 250.788 68.0299 251.167L68.9994 252.86L72.7097 259.458C74.4019 269.839 77.3543 287.92 81.0559 310.614V310.676C78.174 325.978 74.8866 343.486 71.3613 362.052C70.1803 368.314 69.0082 374.462 67.8977 380.345L67.7391 380.107L89.5431 384.226L89.3228 384.358C95.3686 363.728 100.524 346.114 104.173 333.643C106.006 327.425 107.469 322.494 108.465 319.099C108.968 317.423 109.346 316.126 109.629 315.235L109.928 314.248C109.99 313.992 110.034 313.86 110.034 313.86Z" fill="#455A64"/>
<path d="M106.773 236.173C106.479 236.822 106.08 237.418 105.592 237.937C104.479 239.235 103.171 240.351 101.714 241.244C100.257 242.137 98.6644 242.787 96.9989 243.167C96.3209 243.364 95.6156 243.451 94.9102 243.423C99.6131 242.54 103.832 239.968 106.773 236.191V236.173Z" fill="#455A64"/>
<path d="M153.253 127.298C153.327 127.202 153.379 127.092 153.409 126.975C153.438 126.858 153.443 126.736 153.423 126.617C153.403 126.498 153.359 126.384 153.293 126.283C153.228 126.182 153.142 126.095 153.042 126.028C152.997 125.99 152.945 125.962 152.889 125.945C152.833 125.929 152.774 125.924 152.716 125.931C152.284 126.002 151.129 126.813 150.248 126.857C149.367 126.901 147.86 126.601 146.97 127.422C146.079 128.242 143.929 132.714 143.656 133.728C143.383 134.742 142.422 143.306 142.422 143.306L153.253 127.298Z" fill="#FFBF9D"/>
<path d="M156.99 126.169C156.946 126.222 146.414 130.879 141.779 132.925C141.54 133.027 141.331 133.188 141.17 133.391C141.009 133.595 140.902 133.835 140.857 134.091C140.813 134.347 140.832 134.609 140.915 134.856C140.997 135.102 141.14 135.323 141.329 135.501C141.572 135.74 141.883 135.897 142.22 135.951C142.556 136.004 142.901 135.952 143.206 135.8L158.33 128.427L159.581 126.531L156.99 126.169Z" fill="#263238"/>
<path d="M145.833 135.66L149.191 133.181L153.598 126.743C153.598 126.743 155.413 125.658 156.356 126.346C157.299 127.034 157.608 127.81 157.167 128.692C157.167 128.692 159.679 129.292 159.855 130.129C159.88 131.104 159.758 132.076 159.494 133.014C159.686 133.802 159.686 134.625 159.494 135.413C159.283 135.9 159.175 136.425 159.177 136.956C159.177 136.956 160.798 138.949 160.058 140.978C159.318 143.007 156.436 147.549 154.867 148.722C153.426 149.696 151.911 150.558 150.337 151.297L148.398 155.363L140.369 148.078L145.833 135.66Z" fill="#FFBF9D"/>
<path d="M153.484 127.008C153.43 127.133 153.362 127.251 153.281 127.361L152.682 128.243C152.171 129.01 151.457 130.06 150.655 131.215L149.527 132.847C149.356 133.087 149.161 133.308 148.945 133.508C148.753 133.679 148.536 133.819 148.302 133.923C147.969 134.079 147.62 134.197 147.262 134.275C147.133 134.316 147 134.34 146.865 134.346C146.989 134.295 147.116 134.251 147.244 134.214C147.59 134.114 147.926 133.984 148.249 133.826C149.13 133.455 149.694 132.247 150.523 131.127C151.351 130.007 152.056 128.931 152.594 128.181L153.228 127.299C153.306 127.196 153.392 127.098 153.484 127.008Z" fill="#FF9A6C"/>
<path d="M154.514 133.72C154.901 132.854 155.333 132.009 155.809 131.188C156.243 130.345 156.723 129.527 157.246 128.736C156.865 129.606 156.433 130.451 155.95 131.268C155.522 132.113 155.042 132.932 154.514 133.72Z" fill="#FF9A6C"/>
<path d="M155.572 137.742C155.572 137.742 155.572 137.601 155.458 137.39C155.348 137.121 155.164 136.889 154.929 136.719C154.69 136.555 154.408 136.465 154.118 136.463C153.889 136.463 153.748 136.463 153.748 136.463C153.748 136.463 153.871 136.366 154.118 136.349C154.431 136.325 154.742 136.409 155 136.587C155.262 136.772 155.452 137.044 155.537 137.354C155.625 137.592 155.59 137.751 155.572 137.742Z" fill="#FF9A6C"/>
<path d="M159.299 138.95C159.299 138.95 159.158 138.879 158.973 138.72C158.733 138.52 158.469 138.348 158.189 138.209C157.916 138.073 157.609 138.023 157.308 138.068C157.078 138.112 156.999 138.253 156.973 138.235C156.946 138.218 156.973 138.041 157.272 137.953C157.603 137.869 157.954 137.907 158.259 138.059C158.558 138.202 158.827 138.399 159.053 138.641C159.22 138.817 159.317 138.932 159.299 138.95Z" fill="#FF9A6C"/>
<path d="M157.863 135.565C158.061 135.1 158.309 134.66 158.604 134.25C158.851 133.808 159.147 133.394 159.485 133.016C159.287 133.482 159.039 133.926 158.745 134.339C158.496 134.778 158.2 135.189 157.863 135.565Z" fill="#FF9A6C"/>
<path d="M151.421 135.827C151.421 135.827 151.421 135.686 151.342 135.483C151.262 135.222 151.102 134.994 150.883 134.831C150.659 134.68 150.395 134.601 150.125 134.601C149.914 134.601 149.791 134.601 149.782 134.601C149.773 134.601 149.887 134.504 150.117 134.469C150.422 134.425 150.732 134.502 150.982 134.683C151.232 134.864 151.402 135.135 151.456 135.439C151.491 135.721 151.439 135.827 151.421 135.827Z" fill="#FF9A6C"/>
<path d="M142.634 135.828C142.634 135.828 142.784 135.678 142.925 135.405C143.017 135.225 143.072 135.028 143.085 134.826C143.099 134.625 143.072 134.422 143.005 134.232C142.927 134.045 142.813 133.875 142.669 133.733C142.525 133.591 142.355 133.478 142.167 133.403C141.877 133.279 141.674 133.288 141.674 133.262C141.847 133.197 142.038 133.197 142.211 133.262C142.424 133.329 142.62 133.443 142.783 133.596C142.946 133.748 143.073 133.936 143.154 134.144C143.233 134.354 143.262 134.58 143.239 134.803C143.216 135.026 143.142 135.241 143.022 135.431C142.837 135.758 142.643 135.828 142.634 135.828Z" fill="#455A64"/>
<path d="M114.379 156.184L127.131 167.104L142.775 143.713L152.945 149.719C152.945 149.719 137.698 184.841 133.556 187.945C129.414 191.05 125.942 190.238 120.618 187.786C115.295 185.334 96.373 166.248 96.373 166.248L114.379 156.184Z" fill="#FFBF9D"/>
<path d="M127.581 176.805C127.458 176.805 127.802 174.582 127.652 171.857C127.502 169.132 126.929 166.98 127.052 166.944C128.212 170.104 128.396 173.539 127.581 176.805Z" fill="#FF9A6C"/>
<path d="M62.3717 138.325C62.3717 138.325 73.2032 138.484 73.3618 151.996C73.5205 165.508 70.6033 183.589 70.6033 183.589L42.9473 178.712C42.9473 178.712 46.3756 153.548 49.3104 146.307C52.2453 139.066 57.8858 137.099 62.3717 138.325Z" fill="#46B2C8"/>
<path d="M67.5096 128.595L67.1659 130.8C67.1659 130.8 52.3861 140.572 51.5488 143.095C50.2532 147.002 53.0823 180.042 54.325 189.409C55.5676 198.775 55.8232 219.397 55.8232 219.397C54.9419 221.831 53.8843 224.018 53.5494 227.414C53.2145 230.81 55.8232 233.844 55.8232 233.844C71.6871 239.021 91.0763 235.043 112.017 230.263L111.814 224.318L104.966 159.729C104.966 159.729 106.967 142.971 98.7967 138.085C97.9154 137.547 90.759 133.49 90.759 133.49L67.5096 128.595Z" fill="#46B2C8"/>
<g opacity="0.3">
<path d="M91.2793 156.59C91.5088 163.496 93.1652 170.28 96.1442 176.514C99.2091 182.978 103.423 188.829 108.58 193.784L106.359 174.459L91.2793 156.59Z" fill="black"/>
</g>
<path d="M103.689 140.291C101.098 138.192 96.2775 137.045 93.5278 138.933C91.9954 139.898 90.8243 141.343 90.1964 143.043C87.8432 149.914 89.2534 157.296 91.1306 162.782C93.0078 168.268 102.077 178.817 102.077 178.817L124.506 165.199C124.506 165.199 109.524 146.994 107.929 145.107C106.649 143.389 105.231 141.778 103.689 140.291Z" fill="#46B2C8"/>
<path d="M103.689 140.292C103.858 140.404 104.018 140.531 104.165 140.671C104.6 141.065 105.012 141.483 105.399 141.924C106.439 143.07 107.805 144.852 109.655 147.03L124.638 165.076L124.77 165.244L124.594 165.358L103.442 178.244L102.217 178.994L102.067 179.082L101.953 178.95C99.4409 175.987 97.1142 173.005 95.0254 170.007C93.9836 168.54 93.0272 167.015 92.1611 165.438C91.7388 164.671 91.3707 163.875 91.0595 163.056C90.7598 162.245 90.513 161.434 90.2839 160.631C88.4067 154.183 88.3626 147.86 90.0636 143.053C90.4612 141.966 91.0825 140.975 91.8871 140.144C92.6918 139.313 93.6619 138.66 94.7346 138.228C95.6377 137.948 96.585 137.837 97.5284 137.902C98.3141 137.941 99.0923 138.074 99.8463 138.299C100.893 138.59 101.894 139.029 102.816 139.604C103.132 139.803 103.428 140.034 103.698 140.292C103.698 140.292 103.389 140.045 102.755 139.675C101.825 139.133 100.825 138.721 99.7846 138.449C99.0367 138.244 98.2679 138.126 97.4931 138.096C95.9181 138.071 94.3756 138.545 93.0868 139.451C91.798 140.358 90.8291 141.649 90.3192 143.141C88.6711 147.895 88.7504 154.139 90.6188 160.525C90.8568 161.319 91.1035 162.13 91.4032 162.924C91.7066 163.726 92.0689 164.504 92.4872 165.253C93.3497 166.814 94.3001 168.324 95.3339 169.777C97.4138 172.758 99.7405 175.731 102.243 178.685L101.979 178.641L103.213 177.892L124.418 165.041L124.374 165.314L109.497 147.172C107.672 144.975 106.324 143.158 105.319 142.003C104.817 141.421 104.438 140.989 104.13 140.715C103.821 140.442 103.68 140.301 103.689 140.292Z" fill="#263238"/>
<path d="M51.2581 150.576C51.2988 150.702 51.3196 150.832 51.3198 150.964C51.3198 151.273 51.3815 151.643 51.4255 152.093C51.5049 153.134 51.6018 154.536 51.7252 156.247C51.9543 159.775 52.254 164.618 52.6065 169.936C52.9591 175.255 53.3204 180.123 53.6377 183.616C53.7963 185.318 53.9285 186.712 54.0255 187.752C54.0255 188.202 54.096 188.582 54.1224 188.881C54.136 189.013 54.136 189.146 54.1224 189.278C54.0727 189.154 54.0401 189.023 54.0255 188.89C53.9814 188.59 53.9285 188.22 53.858 187.779C53.7082 186.8 53.5319 185.389 53.338 183.642C52.9502 180.114 52.536 175.316 52.1835 169.963C51.831 164.609 51.593 159.767 51.4344 156.256C51.3638 154.554 51.311 153.152 51.2669 152.102C51.2669 151.652 51.2669 151.282 51.2669 150.973C51.2452 150.842 51.2422 150.708 51.2581 150.576Z" fill="#263238"/>
<path d="M100.841 229.011C100.707 229.064 100.568 229.106 100.427 229.135L99.2193 229.435C98.6905 229.558 98.0472 229.699 97.2892 229.841C96.5313 229.982 95.6764 230.149 94.7158 230.299C92.8121 230.626 90.5206 230.89 87.9824 231.137C85.4442 231.384 82.624 231.508 79.6715 231.552C76.7191 231.596 73.9076 231.463 71.3518 231.296C68.7959 231.128 66.5045 230.864 64.6008 230.546C63.6402 230.423 62.7765 230.255 62.0274 230.114C61.2782 229.973 60.6172 229.849 60.0973 229.717L58.881 229.426C58.7373 229.402 58.5977 229.358 58.4668 229.294C58.612 229.299 58.7564 229.317 58.8987 229.347L60.1237 229.558C60.6525 229.664 61.3047 229.779 62.0626 229.885C62.8206 229.99 63.6842 230.149 64.6361 230.264C66.5486 230.537 68.8312 230.731 71.3782 230.917C73.9253 231.102 76.7191 231.155 79.6627 231.137C82.6063 231.119 85.409 230.952 87.9472 230.767C90.4854 230.581 92.768 230.299 94.6717 230.008C95.6323 229.885 96.496 229.744 97.2452 229.611C97.9943 229.479 98.6553 229.382 99.1841 229.276L100.409 229.056C100.55 229.019 100.696 229.004 100.841 229.011Z" fill="#263238"/>
</g>
<defs>
<clipPath id="clip0_1587_12371">
<rect width="505" height="441" fill="white"/>
</clipPath>
</defs>
</svg>
