<svg width="510" height="500" viewBox="0 0 510 500" fill="none" xmlns="http://www.w3.org/2000/svg">
<path d="M89.7161 121.993L80.4624 189.999L187.402 204.631L196.656 136.625L89.7161 121.993Z" fill="#EBEBEB"/>
<path d="M89.7168 121.98C93.4733 126.734 97.3364 131.285 101.128 135.955C104.921 140.625 108.831 145.141 112.718 149.68C116.759 154.433 120.835 159.186 124.9 163.833C125.03 163.975 125.137 164.13 125.267 164.284C128.878 168.419 132.5 172.551 136.134 176.678L136.667 177.272L137.331 176.844C141.928 173.842 146.518 170.824 151.1 167.79C151.264 167.695 151.422 167.592 151.574 167.481C156.781 164.058 161.963 160.6 167.122 157.107C172.051 153.779 177.005 150.393 181.923 147.006C186.84 143.619 191.77 140.162 196.652 136.608C191.581 139.532 186.556 142.633 181.52 145.651C176.483 148.67 171.459 151.819 166.446 154.98C160.869 158.457 155.291 161.995 149.714 165.591C145.535 168.253 141.356 170.931 137.177 173.624C133.894 169.917 130.588 166.185 127.27 162.514C122.862 157.586 118.434 152.682 113.986 147.802C109.988 143.429 105.979 139.072 101.958 134.731C97.8223 130.501 93.8169 126.163 89.7168 121.98Z" fill="white"/>
<path d="M149.323 167.123C149.366 167.164 149.405 167.208 149.442 167.254L150.935 168.917C153.305 171.555 155.758 174.098 158.258 176.594C161.316 179.66 164.456 182.642 167.62 185.601C170.784 188.56 174.007 191.412 177.313 194.216C180.619 197.021 183.949 199.801 187.433 202.392C184.577 199.1 181.508 195.987 178.51 192.885C175.512 189.784 172.301 186.837 169.16 183.89C166.02 180.943 162.749 178.055 159.455 175.239C156.836 172.993 154.158 170.783 151.397 168.668C150.765 168.169 150.125 167.682 149.477 167.206L149.323 167.123Z" fill="white"/>
<path d="M81.0068 187.849C85.0714 186.28 89.0412 184.509 92.9518 182.691C96.8623 180.873 100.737 178.924 104.6 176.976C108.464 175.027 112.267 172.959 116.024 170.82C119.093 169.085 122.127 167.255 125.101 165.402C125.753 164.998 126.381 164.593 127.009 164.213L127.151 164.118C127.093 164.133 127.032 164.133 126.973 164.118L124.722 165.033C121.511 166.328 118.358 167.754 115.242 169.204C111.319 171.034 107.456 172.959 103.605 174.932C99.7537 176.904 95.9498 178.948 92.1815 181.099C88.4132 183.25 84.6448 185.436 81.0068 187.849Z" fill="white"/>
<path d="M116.969 23.5805L28.5264 46.0879L42.76 102.33L131.202 79.8225L116.969 23.5805Z" fill="#EBEBEB"/>
<path d="M28.5225 46.084C32.9663 48.6032 37.4338 50.956 41.8894 53.4039C46.3451 55.8518 50.8244 58.1571 55.3037 60.5337C59.9727 62.9816 64.6535 65.3701 69.3343 67.7586L69.7609 67.9963L82.1917 74.2587L82.7961 74.5557L83.1871 74.0091C85.8415 70.1947 88.4723 66.3683 91.1148 62.542C91.2125 62.4121 91.3035 62.2772 91.3874 62.138C94.3894 57.8125 97.3599 53.4554 100.299 49.0666C103.119 44.8956 105.927 40.6653 108.712 36.4468C111.497 32.2283 114.27 27.9504 117.007 23.625C113.95 27.5226 110.999 31.551 108.001 35.508C105.003 39.4651 102.076 43.541 99.1374 47.605C95.8667 52.1126 92.6079 56.6599 89.361 61.2467C86.9357 64.6611 84.5064 68.0874 82.0732 71.5256C78.2812 69.6243 74.5128 67.7824 70.7563 65.9524C65.7319 63.4807 60.7074 61.0408 55.683 58.6325C51.1799 56.4816 46.665 54.3427 42.1501 52.2513C37.6352 50.1598 33.0729 48.0565 28.5225 46.084Z" fill="white"/>
<path d="M89.5273 62.4941C89.5682 62.5224 89.6119 62.5463 89.6577 62.5654L91.3523 63.3973C94.0462 64.7044 96.7678 65.9323 99.517 67.081C102.882 68.5307 106.283 69.8616 109.696 71.1688C113.109 72.4759 116.546 73.6999 120.018 74.8525C123.49 76.0052 126.986 77.1222 130.541 78.049C127.258 76.3735 123.916 74.8882 120.563 73.4503C117.209 72.0125 113.773 70.6816 110.372 69.3744C106.971 68.0673 103.51 66.8315 100.038 65.6788C97.2773 64.7519 94.4807 63.8607 91.6485 63.0764C90.9968 62.8863 90.345 62.7199 89.6814 62.5417L89.5273 62.4941Z" fill="white"/>
<path d="M42.5181 100.519C45.208 98.0113 47.7558 95.3614 50.2444 92.6758C52.7329 89.9902 55.174 87.2571 57.5796 84.5122C59.9852 81.7672 62.3196 78.9152 64.583 76.0514C66.4435 73.6748 68.2684 71.2982 69.9985 68.9216L71.1006 67.3649C71.1006 67.3649 71.1006 67.2817 71.1835 67.2461L71.065 67.353C70.5673 67.8284 70.0696 68.2918 69.5838 68.779C67.4744 70.811 65.4481 72.9262 63.4454 75.077C60.945 77.7507 58.5276 80.4957 56.1339 83.2526C53.7401 86.0094 51.3938 88.8376 49.1304 91.7133C46.8671 94.589 44.6037 97.429 42.5181 100.519Z" fill="white"/>
<path d="M483.491 267.486L392.866 278.146L399.607 335.775L490.232 325.116L483.491 267.486Z" fill="#EBEBEB"/>
<path d="M392.855 278.171C396.931 281.249 401.055 284.172 405.144 287.202C409.232 290.232 413.379 293.084 417.515 295.983C421.651 298.883 426.154 302.008 430.479 304.991L430.87 305.276C434.686 307.898 438.517 310.516 442.365 313.131L442.934 313.499L443.384 313.012C446.544 309.582 449.665 306.14 452.746 302.686C452.865 302.575 452.976 302.456 453.077 302.329C456.609 298.431 460.124 294.502 463.624 290.541C466.966 286.786 470.296 282.96 473.614 279.145C476.932 275.331 480.238 271.457 483.485 267.512C479.93 270.982 476.493 274.642 472.997 278.123C469.502 281.605 466.065 285.253 462.617 288.949C458.785 292.973 454.965 297.049 451.158 301.176C448.302 304.242 445.458 307.332 442.602 310.41C439.118 308.033 435.634 305.716 432.15 303.41C427.505 300.297 422.844 297.215 418.167 294.165C413.996 291.432 409.805 288.731 405.594 286.061C401.292 283.435 397.097 280.726 392.855 278.171Z" fill="white"/>
<path d="M451.146 302.531L451.265 302.614C451.786 302.971 452.319 303.327 452.841 303.66C455.341 305.324 457.877 306.892 460.46 308.413C463.6 310.279 466.8 312.05 470.011 313.808C473.223 315.567 476.47 317.207 479.764 318.811C483.058 320.415 486.365 321.984 489.766 323.362C486.744 321.271 483.615 319.358 480.475 317.504C477.335 315.65 474.112 313.856 470.912 312.109C467.712 310.362 464.442 308.687 461.159 307.082C458.54 305.799 455.874 304.551 453.172 303.399C452.556 303.129 451.928 302.868 451.288 302.614L451.146 302.531Z" fill="white"/>
<path d="M399.598 333.938C402.596 331.799 405.523 329.506 408.284 327.188C411.045 324.871 413.877 322.435 416.579 320.059C419.281 317.682 422.006 315.151 424.637 312.596C426.782 310.528 428.891 308.425 430.929 306.239L432.233 304.836C432.267 304.803 432.299 304.768 432.328 304.729C432.29 304.765 432.246 304.794 432.197 304.813L430.55 306.001C428.18 307.748 425.905 309.566 423.63 311.432C420.798 313.808 418.048 316.185 415.335 318.561C412.621 320.938 409.907 323.469 407.277 326.024C404.646 328.579 402.062 331.193 399.598 333.938Z" fill="white"/>
<path d="M412.194 146.412L396.635 146.745L388.743 146.875C386.1 146.935 383.446 146.875 380.803 146.947H380.282V146.412L380.211 133.115V132.521H380.803L396.493 132.592C401.719 132.592 406.957 132.734 412.183 132.794H412.514V133.115C412.514 135.372 412.42 137.618 412.36 139.829L412.194 146.412ZM412.194 146.412L412.04 139.734C411.981 137.511 411.91 135.325 411.886 133.15L412.206 133.471C406.98 133.531 401.743 133.661 396.517 133.673L380.827 133.744L381.42 133.15V146.447L380.886 145.913C383.47 145.913 386.053 145.913 388.648 145.984L396.446 146.115L412.194 146.412Z" fill="#EBEBEB"/>
<path d="M394.692 163.178L379.133 163.511L371.241 163.642C368.61 163.642 365.956 163.641 363.313 163.713H362.792V163.178L362.732 149.881V149.239H363.325L379.014 149.311C384.24 149.311 389.478 149.453 394.704 149.513H395.036V149.833C395.036 152.091 394.941 154.337 394.882 156.547L394.692 163.178ZM394.692 163.178L394.526 156.464C394.467 154.242 394.396 152.056 394.372 149.881L394.692 150.202C389.466 150.261 384.229 150.392 379.003 150.404L363.313 150.475L363.906 149.881L363.834 163.178L363.313 162.643C365.896 162.643 368.48 162.643 371.063 162.715L378.86 162.845L394.692 163.178Z" fill="#EBEBEB"/>
<path d="M429.697 163.178L414.15 163.511L406.257 163.642C403.615 163.642 400.96 163.641 398.318 163.713H397.82V163.178L397.749 149.881V149.239H398.342L414.031 149.311C419.269 149.311 424.495 149.453 429.721 149.513H430.052V149.833C430.052 152.091 429.946 154.337 429.887 156.547L429.697 163.178ZM429.697 163.178L429.531 156.464C429.531 154.242 429.401 152.056 429.377 149.881L429.697 150.202C424.471 150.261 419.245 150.392 414.007 150.404L398.318 150.475L398.91 149.881L398.851 163.178L398.318 162.643C400.901 162.643 403.484 162.643 406.08 162.715L413.877 162.845L429.697 163.178Z" fill="#EBEBEB"/>
<path d="M489.48 26.0007L473.921 26.3334L466.029 26.4641C463.386 26.4641 460.744 26.4641 458.101 26.5354H457.568V26.0007L457.509 12.7035V12.1094H458.113L473.803 12.1807C479.029 12.1807 484.255 12.3233 489.492 12.3827H489.812V12.7035C489.812 14.9613 489.706 17.2072 489.658 19.4174L489.48 26.0007ZM489.48 26.0007L489.303 19.2867C489.303 17.0646 489.172 14.8781 489.149 12.7035L489.48 13.0244C484.243 13.0838 479.017 13.2145 473.791 13.2264L458.101 13.2977L458.682 12.7035L458.623 26.0007L458.101 25.4659C460.685 25.4659 463.256 25.4659 465.851 25.5372L473.661 25.656L489.48 26.0007Z" fill="#EBEBEB"/>
<path d="M506.984 42.7643L491.437 43.0971L483.545 43.2278C480.914 43.2278 478.259 43.2278 475.617 43.2991H475.084V42.7643L475.024 29.4672V28.873H475.617L491.307 28.9443C496.532 28.9443 501.758 29.0869 506.996 29.1464H507.316V29.4672C507.316 31.725 507.209 33.9709 507.162 36.1811L506.984 42.7643ZM506.984 42.7643L506.842 36.0504C506.783 33.8283 506.7 31.6418 506.676 29.4672L507.008 29.788C501.77 29.8475 496.544 29.9782 491.318 29.9901L475.629 30.0614L476.221 29.4672L476.15 42.7643L475.629 42.2296C478.212 42.2296 480.784 42.2296 483.379 42.3009L491.176 42.4316L506.984 42.7643Z" fill="#EBEBEB"/>
<path d="M45.1128 26.0124L29.5654 26.3451L21.6732 26.4758C19.0306 26.5352 16.3762 26.4758 13.7336 26.5471H13.2122V26.0124L13.1411 12.7152V12.1211H13.7336L29.4232 12.2043C34.6609 12.2043 39.8869 12.335 45.1128 12.3944H45.4446V12.7152C45.4446 14.973 45.3379 17.2189 45.2787 19.441L45.1128 26.0124ZM45.1128 26.0124L44.9469 19.2985C44.9469 17.0882 44.8165 14.8898 44.7928 12.7152L45.1128 13.048C39.8869 13.048 34.6609 13.2262 29.4232 13.2381L13.7336 13.3094L14.3261 12.7152L14.2669 26.0124L13.7336 25.4895C16.3169 25.4895 18.9003 25.4895 21.4955 25.4895L29.281 25.6559L45.1128 26.0124Z" fill="#EBEBEB"/>
<path d="M475.604 335.222L491.152 334.89L499.044 334.759C501.686 334.699 504.341 334.759 506.983 334.688H507.505V335.222L507.576 348.519V349.114H506.983L491.294 349.03C486.056 349.03 480.83 348.9 475.604 348.84H475.272V348.519C475.272 346.262 475.379 344.016 475.427 341.794L475.604 335.222ZM475.604 335.222L475.77 341.936C475.77 344.146 475.901 346.345 475.924 348.519L475.604 348.187C480.83 348.127 486.056 348.008 491.294 347.997L506.983 347.925L506.391 348.519L506.45 335.222L506.983 335.745C504.4 335.745 501.817 335.745 499.222 335.686L491.424 335.555L475.604 335.222Z" fill="#EBEBEB"/>
<path d="M13.7338 335.222L29.2812 334.89L37.1734 334.759C39.8041 334.699 42.4585 334.759 45.1011 334.688H45.6344V335.222V348.519V349.114H45.0419L29.3523 349.03C24.1264 349.03 18.9005 348.9 13.6627 348.84H13.3428V348.519C13.3428 346.262 13.4494 344.016 13.4968 341.794L13.7338 335.222ZM13.7338 335.222L13.8997 341.936C13.8997 344.146 14.0419 346.345 14.0656 348.519L13.7338 348.187C18.9716 348.127 24.1975 348.008 29.4234 347.997L45.113 347.925L44.5205 348.519L44.5916 335.222L45.113 335.745C42.5296 335.745 39.9582 335.745 37.363 335.686L29.5656 335.555L13.7338 335.222Z" fill="#EBEBEB"/>
<path d="M31.236 318.454L46.7952 318.121L54.6874 317.99C57.33 317.931 59.9725 317.99 62.6151 317.919H63.1484V318.454V331.751V332.345H62.544L46.9255 332.238C41.6996 332.238 36.4737 332.107 31.236 332.048H30.916V331.727C30.916 329.469 31.0227 327.223 31.0701 325.001L31.236 318.454ZM31.236 318.454L31.4137 325.168C31.4137 327.378 31.5441 329.576 31.5678 331.751L31.236 331.418C36.4737 331.359 41.6996 331.24 46.9255 331.228L62.6151 331.157L62.0345 331.751V318.454L62.5559 318.977C59.9725 318.977 57.4011 318.977 54.8059 318.977L47.0559 318.786L31.236 318.454Z" fill="#EBEBEB"/>
<path d="M347.777 118.594L509.235 118.594V108.98L347.777 108.98V118.594Z" fill="#EBEBEB"/>
<path d="M496.982 118.594H487.396V150.393H496.982V118.594Z" fill="#EBEBEB"/>
<path d="M496.982 118.594H487.396V128.421H496.982V118.594Z" fill="#DBDBDB"/>
<path d="M369.618 118.594H360.031V150.393H369.618V118.594Z" fill="#EBEBEB"/>
<path d="M369.618 118.594H360.031V128.421H369.618V118.594Z" fill="#DBDBDB"/>
<path d="M468.435 108.98V47.7109H453.054V108.98H468.435Z" fill="#C9EAF1"/>
<path d="M468.446 51.1811V44.4434H453.065V51.1811H468.446Z" fill="#DBDBDB"/>
<path d="M468.435 62.2943V59.7988H453.054V62.2943H468.435Z" fill="#DBDBDB"/>
<path d="M468.446 100.96V94.2227H451.145V100.96H468.446Z" fill="#DBDBDB"/>
<path d="M453.054 108.994V37.5176H442.306V108.994H453.054Z" fill="#DBDBDB"/>
<path d="M450.956 71.714V44.2285H444.497V71.714H450.956Z" fill="#EBEBEB"/>
<path d="M373.364 109.031L424.055 58.7812L416.499 51.1163L365.808 101.366L373.364 109.031Z" fill="#C9EAF1"/>
<path d="M383.725 95.6745L403.218 76.3516L398.677 71.7459L379.185 91.0688L383.725 95.6745Z" fill="#DBDBDB"/>
<path d="M442.306 109.003V54.709H424.045V109.003H442.306Z" fill="#A6A6A6"/>
<path d="M442.293 103.242V98.1797H424.032V103.242H442.293Z" fill="#C9EAF1"/>
<path d="M442.293 94.863V92.9023H424.032V94.863H442.293Z" fill="#C9EAF1"/>
<path d="M481.056 109.002V57.9766H468.435V109.002H481.056Z" fill="#A6A6A6"/>
<path d="M481.056 103.583V98.8301H468.435V103.583H481.056Z" fill="#C9EAF1"/>
<path d="M481.043 73.2356V68.4824H468.423V73.2356H481.043Z" fill="#C9EAF1"/>
<path d="M481.056 78.3438V76.502H468.435V78.3438H481.056Z" fill="#C9EAF1"/>
<path d="M11.4697 489.724L73.6948 489.439L135.92 489.332L260.358 489.13L384.796 489.332L447.021 489.439L509.246 489.724L447.021 490.021L384.796 490.116L260.358 490.318L135.92 490.116L73.6948 490.009L11.4697 489.724Z" fill="#023A59"/>
<path d="M448.93 384.726C466.196 401.672 469.075 427.897 465.449 450.867C465.355 451.39 464.549 451.248 464.549 450.76C464.549 445.532 464.715 440.351 464.691 435.182C464.596 434.944 464.525 434.718 464.43 434.481C459.927 431.201 455.78 427.493 453.208 422.396C450.329 416.716 449.191 410.299 446.987 404.357C446.785 403.787 447.39 403.953 447.781 404.25C458.292 412.022 461.634 420.376 464.644 431.581C464.582 425.738 463.971 419.913 462.819 414.184C460.555 403.585 456.064 393.08 448.468 385.214C448.404 385.152 448.366 385.068 448.364 384.978C448.362 384.889 448.395 384.803 448.456 384.738C448.518 384.674 448.602 384.636 448.691 384.634C448.78 384.632 448.866 384.665 448.93 384.726Z" fill="#023A59"/>
<path d="M445.684 386.7C442.709 386.807 440.849 391.56 438.574 392.951C438.331 393.148 438.049 393.293 437.747 393.375C437.444 393.456 437.129 393.474 436.819 393.426C436.51 393.378 436.214 393.265 435.951 393.095C435.688 392.925 435.463 392.702 435.291 392.44C432.992 389.219 436.144 385.31 439.107 383.052C436.986 383.92 435.232 385.429 432.945 385.892C432.653 385.987 432.344 386.018 432.039 385.983C431.734 385.947 431.44 385.847 431.178 385.688C430.915 385.529 430.689 385.316 430.515 385.062C430.342 384.808 430.225 384.52 430.172 384.217C429.165 379.844 434.639 377.895 438.396 377.8C436.571 376.54 431.357 373.047 434.13 371.383C436.903 369.719 443.065 374.615 445.067 376.243C447.994 378.62 451.502 382.185 451.632 385.94C451.775 390.301 447.971 387.615 445.684 386.7Z" fill="#FF993C"/>
<path opacity="0.1" d="M445.684 386.7C442.709 386.807 440.849 391.56 438.574 392.951C438.331 393.148 438.049 393.293 437.747 393.375C437.444 393.456 437.129 393.474 436.819 393.426C436.51 393.378 436.214 393.265 435.951 393.095C435.688 392.925 435.463 392.702 435.291 392.44C432.992 389.219 436.144 385.31 439.107 383.052C436.986 383.92 435.232 385.429 432.945 385.892C432.653 385.987 432.344 386.018 432.039 385.983C431.734 385.947 431.44 385.847 431.178 385.688C430.915 385.529 430.689 385.316 430.515 385.062C430.342 384.808 430.225 384.52 430.172 384.217C429.165 379.844 434.639 377.895 438.396 377.8C436.571 376.54 431.357 373.047 434.13 371.383C436.903 369.719 443.065 374.615 445.067 376.243C447.994 378.62 451.502 382.185 451.632 385.94C451.775 390.301 447.971 387.615 445.684 386.7Z" fill="black"/>
<path d="M446.537 387.435C442.745 385.7 435.445 388.196 434.829 386.758C433.573 383.823 439.403 381.803 442.543 381.422C439.652 380.626 434.094 379.379 434.248 376.574C434.462 373.152 442.769 376.099 446.975 379.331C452.272 383.407 452.237 387.328 451.36 388.125C450.175 389.194 447.165 387.721 446.537 387.435Z" fill="#FF993C"/>
<path d="M488.249 383.051C470.355 399.331 466.457 425.426 469.23 448.515C469.301 449.038 470.107 448.931 470.13 448.432C470.32 443.215 470.367 438.022 470.581 432.865L470.865 432.176C475.498 429.075 479.776 425.521 482.537 420.531C485.63 414.957 487.005 408.588 489.434 402.706C489.671 402.148 489.055 402.29 488.652 402.563C477.857 409.931 474.195 418.154 470.758 429.205C471.049 423.369 471.882 417.573 473.247 411.892C475.913 401.387 480.795 391.061 488.652 383.491C488.984 383.23 488.557 382.754 488.249 383.051Z" fill="#023A59"/>
<path d="M491.438 385.144C494.4 385.358 496.083 390.182 498.346 391.668C498.581 391.875 498.857 392.03 499.156 392.124C499.455 392.217 499.77 392.246 500.081 392.209C500.392 392.172 500.691 392.07 500.96 391.909C501.229 391.748 501.461 391.532 501.641 391.275C504.011 388.15 501.06 384.074 498.192 381.769C500.266 382.72 501.961 384.324 504.224 384.847C504.513 384.954 504.821 384.998 505.128 384.975C505.435 384.952 505.734 384.864 506.004 384.715C506.274 384.566 506.508 384.361 506.692 384.113C506.876 383.865 507.004 383.58 507.068 383.278C508.253 378.953 502.837 376.79 499.093 376.552C500.965 375.364 506.31 372.108 503.596 370.302C500.882 368.496 494.554 373.189 492.492 374.746C489.471 377.016 485.833 380.45 485.56 384.181C485.193 388.507 489.068 385.976 491.438 385.144Z" fill="#FF993C"/>
<path opacity="0.1" d="M491.438 385.144C494.4 385.358 496.083 390.182 498.346 391.668C498.581 391.875 498.857 392.03 499.156 392.124C499.455 392.217 499.77 392.246 500.081 392.209C500.392 392.172 500.691 392.07 500.96 391.909C501.229 391.748 501.461 391.532 501.641 391.275C504.011 388.15 501.06 384.074 498.192 381.769C500.266 382.72 501.961 384.324 504.224 384.847C504.513 384.954 504.821 384.998 505.128 384.975C505.435 384.952 505.734 384.864 506.004 384.715C506.274 384.566 506.508 384.361 506.692 384.113C506.876 383.865 507.004 383.58 507.068 383.278C508.253 378.953 502.837 376.79 499.093 376.552C500.965 375.364 506.31 372.108 503.596 370.302C500.882 368.496 494.554 373.189 492.492 374.746C489.471 377.016 485.833 380.45 485.56 384.181C485.193 388.507 489.068 385.976 491.438 385.144Z" fill="black"/>
<path d="M490.525 385.844C494.388 384.264 501.581 387.033 502.256 385.619C503.631 382.731 497.884 380.497 494.743 379.986C497.67 379.309 503.275 378.263 503.204 375.459C503.133 372.036 494.72 374.662 490.394 377.728C484.943 381.602 484.825 385.524 485.654 386.344C486.827 387.472 489.897 386.106 490.525 385.844Z" fill="#FF993C"/>
<path d="M469.952 426.044C468.737 434.75 466.88 443.353 464.395 451.783C464.378 451.865 464.346 451.944 464.299 452.014C464.253 452.084 464.193 452.145 464.123 452.191C464.053 452.238 463.975 452.271 463.892 452.288C463.81 452.304 463.725 452.304 463.642 452.288C463.56 452.271 463.481 452.239 463.411 452.192C463.341 452.145 463.281 452.085 463.235 452.015C463.188 451.945 463.155 451.866 463.139 451.784C463.122 451.701 463.122 451.616 463.139 451.533C464.324 443.595 466.457 435.812 467.63 427.874C468.916 419.85 469.377 411.715 469.004 403.597C468.258 390.229 464.632 376.016 455.969 365.571C455.78 365.334 456.183 364.977 456.384 365.203C473.792 385.57 471.031 410.537 471.007 412.735C473.472 404.31 476.02 394.649 485.346 386.058C485.749 385.689 486.057 385.867 485.998 386.497C484.327 402.135 479.99 410.263 470.948 418.653C470.663 421.136 470.344 423.608 469.952 426.044Z" fill="#023A59"/>
<path d="M455.78 367.888C452.652 366.486 448.326 370.49 445.222 370.764C444.87 370.847 444.505 370.854 444.15 370.786C443.795 370.718 443.458 370.575 443.162 370.368C442.866 370.16 442.616 369.893 442.43 369.582C442.244 369.272 442.125 368.925 442.081 368.565C441.311 364.085 446.573 361.554 450.756 360.758C448.113 360.592 445.53 361.293 442.946 360.592C442.595 360.546 442.259 360.424 441.959 360.236C441.659 360.047 441.403 359.796 441.208 359.5C441.014 359.203 440.885 358.868 440.831 358.517C440.778 358.166 440.8 357.808 440.896 357.467C442.081 352.416 448.706 353.153 452.652 354.959C451.396 352.725 447.71 346.499 451.467 346.142C455.223 345.786 459.122 354.009 460.378 356.706C462.227 360.663 464.063 366.129 462.321 370.075C460.295 374.697 457.688 369.991 455.78 367.888Z" fill="#FF993C"/>
<path opacity="0.1" d="M455.78 367.888C452.652 366.486 448.326 370.49 445.222 370.764C444.87 370.847 444.505 370.854 444.15 370.786C443.795 370.718 443.458 370.575 443.162 370.368C442.866 370.16 442.616 369.893 442.43 369.582C442.244 369.272 442.125 368.925 442.081 368.565C441.311 364.085 446.573 361.554 450.756 360.758C448.113 360.592 445.53 361.293 442.946 360.592C442.595 360.546 442.259 360.424 441.959 360.236C441.659 360.047 441.403 359.796 441.208 359.5C441.014 359.203 440.885 358.868 440.831 358.517C440.778 358.166 440.8 357.808 440.896 357.467C442.081 352.416 448.706 353.153 452.652 354.959C451.396 352.725 447.71 346.499 451.467 346.142C455.223 345.786 459.122 354.009 460.378 356.706C462.227 360.663 464.063 366.129 462.321 370.075C460.295 374.697 457.688 369.991 455.78 367.888Z" fill="black"/>
<path d="M456.301 369.078C453.232 365.37 444.451 364.265 444.451 362.459C444.617 358.787 451.68 359.631 455.116 360.819C452.509 358.538 447.378 354.438 448.954 351.61C450.898 348.164 458.031 355.412 460.804 360.891C464.253 367.795 462.238 371.859 460.935 372.227C459.181 372.762 456.811 369.708 456.301 369.078Z" fill="#FF993C"/>
<path d="M481.399 430.75L489.066 489.595H442.353C443.313 484.378 452.011 430.679 452.011 430.679L481.399 430.75Z" fill="#46B2C8"/>
<path d="M408.083 26.0117H203.893C201.155 26.0366 198.448 26.6023 195.928 27.6765C193.408 28.7507 191.123 30.3123 189.205 32.2722C187.287 34.2321 185.773 36.5518 184.749 39.0988C183.725 41.6458 183.212 44.3701 183.238 47.116V468.619C183.191 474.163 185.339 479.5 189.212 483.456C193.084 487.413 198.365 489.667 203.893 489.724H408.083C413.614 489.67 418.899 487.418 422.776 483.461C426.653 479.504 428.805 474.166 428.761 468.619V47.116C428.786 44.3685 428.271 41.643 427.245 39.0952C426.219 36.5474 424.703 34.2272 422.783 32.2674C420.862 30.3075 418.576 28.7462 416.053 27.6729C413.531 26.5995 410.823 26.035 408.083 26.0117ZM415.844 455.584C415.844 466.683 407.549 475.654 397.335 475.654H214.665C204.426 475.654 196.131 466.683 196.131 455.584V63.0868C196.131 40.509 204.426 39.3207 214.665 39.3207H251.258C253.391 39.3207 255.133 41.6973 255.133 44.7513V46.0465C255.133 53.0813 258.972 53.1051 263.677 53.1051H348.299C353.039 53.1051 356.878 53.1051 356.878 46.0465V44.8107C356.878 41.8043 358.596 39.3801 360.753 39.3801H397.335C407.561 39.3801 415.844 42.3866 415.844 63.1462V455.584Z" fill="#023A59"/>
<path d="M415.857 63.0864V455.583C415.857 466.682 407.562 475.654 397.347 475.654H214.678C204.439 475.654 196.144 466.682 196.144 455.583V63.0864C196.144 40.5086 204.439 39.3203 214.678 39.3203H251.271C253.404 39.3203 255.146 41.6969 255.146 44.7509V46.0461C255.146 53.0809 258.985 53.1046 263.69 53.1046H348.312C353.052 53.1046 356.891 53.1046 356.891 46.0461V44.8103C356.891 41.8039 358.609 39.3797 360.766 39.3797H397.347C407.574 39.3797 415.857 42.3861 415.857 63.0864Z" fill="white"/>
<path d="M415.857 63.0981V98.7473H196.144V63.0981C196.144 40.5203 204.439 39.332 214.678 39.332H251.271C253.404 39.332 255.146 41.7086 255.146 44.7626V46.0578C255.146 53.0926 258.985 53.1164 263.69 53.1164H348.312C353.052 53.1164 356.891 53.1164 356.891 46.0578V44.822C356.891 41.8156 358.609 39.3914 360.766 39.3914H397.347C407.574 39.3914 415.857 42.3979 415.857 63.0981Z" fill="#FF993C"/>
<path d="M317.535 44.0416H294.451C294.073 44.0384 293.711 43.8855 293.445 43.6162C293.179 43.3469 293.029 42.983 293.029 42.6037C293.029 42.4164 293.066 42.231 293.138 42.058C293.209 41.885 293.314 41.7278 293.446 41.5954C293.578 41.463 293.735 41.3579 293.907 41.2863C294.08 41.2146 294.265 41.1777 294.451 41.1777H317.535C317.722 41.1777 317.907 41.2146 318.08 41.2863C318.252 41.3579 318.409 41.463 318.541 41.5954C318.673 41.7278 318.778 41.885 318.849 42.058C318.921 42.231 318.957 42.4164 318.957 42.6037C318.959 42.792 318.923 42.9787 318.853 43.153C318.782 43.3274 318.677 43.486 318.545 43.6197C318.413 43.7534 318.256 43.8595 318.082 43.9319C317.909 44.0043 317.723 44.0416 317.535 44.0416Z" fill="white"/>
<path d="M229.536 72.9492H210.469V85.0699H229.536V72.9492Z" fill="white"/>
<path d="M229.549 72.9492C228.779 73.686 227.997 74.3989 227.179 75.1238L224.809 77.2509L222.439 79.4374L222.368 79.5087L220.069 81.4218L219.962 81.505L219.856 81.4218L217.699 79.4968H217.628C216.798 78.7719 215.969 78.047 215.151 77.3103L212.781 75.1832C212.011 74.4584 211.229 73.7454 210.411 73.0086C211.229 73.6503 212.035 74.3039 212.781 74.9574C213.528 75.611 214.393 76.2765 215.151 76.9538C215.91 77.6311 216.941 78.4511 217.829 79.2116L219.82 80.9227L221.823 79.2116L224.489 76.9538L226.859 74.9693L229.549 72.9492Z" fill="#46B2C8"/>
<path d="M218.019 79.4258L217.711 79.6753C217.237 80.0793 216.739 80.4715 216.242 80.8636C215.744 81.2558 215.057 81.7667 214.393 82.2064C213.729 82.6461 213.137 83.0739 212.497 83.4898C211.857 83.9057 211.193 84.3097 210.53 84.6781C211.099 84.1671 211.715 83.6918 212.307 83.2284C212.9 82.7649 213.492 82.3252 214.168 81.8856C214.843 81.4459 215.424 81.0181 216.064 80.6022C216.704 80.1863 217.107 79.9486 217.64 79.6397C217.758 79.5653 217.881 79.4979 218.007 79.4377L218.019 79.4258Z" fill="#46B2C8"/>
<path d="M229.548 84.6898C228.873 84.3214 228.221 83.9174 227.581 83.5015C226.941 83.0856 226.301 82.6578 225.673 82.2181C225.045 81.7785 224.429 81.3388 223.825 80.8753C223.22 80.4119 222.841 80.1148 222.367 79.687L222.059 79.4375L222.426 79.6514C222.964 79.9604 223.485 80.2812 223.991 80.6139C224.642 81.0298 225.27 81.4576 225.899 81.8973C226.527 82.337 227.143 82.7766 227.747 83.2401C228.352 83.7035 228.908 84.1788 229.548 84.6898Z" fill="#46B2C8"/>
<path d="M233.626 72.9512C233.626 73.7626 233.386 74.5557 232.936 75.2301C232.486 75.9045 231.847 76.43 231.099 76.7399C230.352 77.0499 229.529 77.1304 228.736 76.9712C227.942 76.8121 227.214 76.4204 226.642 75.8459C226.071 75.2714 225.683 74.5398 225.526 73.7437C225.37 72.9477 225.453 72.123 225.764 71.3741C226.075 70.6252 226.601 69.9858 227.275 69.5367C227.949 69.0877 228.74 68.8492 229.549 68.8516C230.632 68.8547 231.668 69.288 232.433 70.0565C233.197 70.825 233.626 71.866 233.626 72.9512Z" fill="#455A64"/>
<path d="M230.888 73.7675C230.885 73.8536 230.849 73.9352 230.787 73.9951C230.725 74.055 230.642 74.0884 230.556 74.0883V74.5399C230.542 74.6159 230.501 74.6844 230.442 74.7337C230.382 74.783 230.308 74.81 230.231 74.81C230.153 74.81 230.079 74.783 230.019 74.7337C229.96 74.6844 229.919 74.6159 229.905 74.5399V74.0883H228.056C228.019 74.0914 227.982 74.0866 227.948 74.0743C227.913 74.062 227.881 74.0425 227.855 74.017C227.824 73.9881 227.799 73.9532 227.782 73.9143C227.766 73.8755 227.757 73.8336 227.757 73.7912C227.757 73.7489 227.766 73.707 227.782 73.6682C227.799 73.6293 227.824 73.5944 227.855 73.5655L229.917 70.8086H230.011H230.201V73.1852C230.278 73.0938 230.388 73.0368 230.507 73.0268C230.626 73.0168 230.744 73.0545 230.835 73.1317C230.926 73.2089 230.983 73.3193 230.993 73.4385C231.003 73.5578 230.965 73.6761 230.888 73.7675ZM229.845 71.985L228.66 73.4466H229.845V71.985Z" fill="white"/>
<path d="M244.954 47.8542L244.598 48.2107L244.397 48.4127C243.493 47.5078 242.267 46.9996 240.99 46.9996C239.713 46.9996 238.487 47.5078 237.583 48.4127L237.393 48.2107C237.275 48.0919 237.156 47.9849 237.05 47.8661L237.5 47.4621C237.815 47.202 238.162 46.9824 238.531 46.8085C238.965 46.5889 239.428 46.4329 239.906 46.3451C240.131 46.3451 240.356 46.3451 240.581 46.25H241.186H241.648C242.078 46.298 242.5 46.4019 242.904 46.559C243.199 46.6653 243.484 46.7965 243.757 46.9511C244.044 47.1193 244.317 47.3101 244.575 47.5215L244.942 47.8661L244.954 47.8542Z" fill="white"/>
<path d="M238.697 49.5316L238.14 48.9731C238.738 48.3318 239.536 47.9129 240.403 47.7848C241.027 47.6971 241.663 47.759 242.258 47.9656C242.853 48.1722 243.391 48.5175 243.828 48.9731L243.271 49.5316C242.662 48.9275 241.84 48.5899 240.984 48.5928C240.559 48.5894 240.139 48.6707 239.746 48.8319C239.353 48.993 238.997 49.2309 238.697 49.5316Z" fill="white"/>
<path d="M242.713 50.0865C242.524 50.2648 242.334 50.4549 242.156 50.645C242.002 50.4875 241.818 50.363 241.614 50.2793C241.41 50.1955 241.192 50.1542 240.971 50.1578C240.751 50.1528 240.532 50.1935 240.328 50.2773C240.124 50.3611 239.94 50.4863 239.786 50.645L239.229 50.0865C239.457 49.8544 239.728 49.67 240.027 49.5442C240.326 49.4183 240.647 49.3535 240.971 49.3535C241.296 49.3535 241.617 49.4183 241.916 49.5442C242.215 49.67 242.486 49.8544 242.713 50.0865Z" fill="white"/>
<path d="M241.482 51.1438C241.484 51.2458 241.456 51.3462 241.401 51.432C241.346 51.5178 241.266 51.5852 241.173 51.6253C241.079 51.6654 240.976 51.6766 240.876 51.6572C240.776 51.6379 240.684 51.589 240.612 51.5168C240.54 51.4446 240.491 51.3525 240.472 51.2523C240.453 51.1521 240.464 51.0484 240.504 50.9546C240.544 50.8607 240.611 50.781 240.697 50.7258C240.782 50.6706 240.882 50.6423 240.984 50.6447C241.116 50.6447 241.243 50.6973 241.336 50.7908C241.429 50.8844 241.482 51.0114 241.482 51.1438Z" fill="white"/>
<path d="M210.469 48.9245C210.469 48.6354 210.555 48.3528 210.715 48.1125C210.875 47.8721 211.103 47.6848 211.369 47.5741C211.635 47.4635 211.928 47.4346 212.211 47.491C212.494 47.5474 212.754 47.6866 212.957 47.891C213.161 48.0954 213.3 48.3558 213.356 48.6394C213.413 48.9229 213.384 49.2168 213.273 49.4838C213.163 49.7509 212.976 49.9792 212.737 50.1398C212.497 50.3004 212.215 50.3861 211.927 50.3861C211.735 50.3861 211.546 50.3483 211.369 50.2749C211.192 50.2014 211.031 50.0937 210.896 49.958C210.761 49.8223 210.653 49.6612 210.58 49.4838C210.507 49.3065 210.469 49.1165 210.469 48.9245Z" fill="white"/>
<path d="M215.056 48.9245C215.056 48.6354 215.142 48.3528 215.302 48.1125C215.462 47.8721 215.69 47.6848 215.956 47.5741C216.222 47.4635 216.515 47.4346 216.798 47.491C217.081 47.5474 217.341 47.6866 217.544 47.891C217.748 48.0954 217.887 48.3558 217.943 48.6394C218 48.9229 217.971 49.2168 217.86 49.4838C217.75 49.7509 217.563 49.9792 217.323 50.1398C217.084 50.3004 216.802 50.3861 216.514 50.3861C216.127 50.3861 215.756 50.2321 215.483 49.958C215.21 49.6839 215.056 49.3122 215.056 48.9245Z" fill="white"/>
<path d="M219.642 48.9245C219.642 48.6354 219.727 48.3528 219.887 48.1125C220.047 47.8721 220.275 47.6848 220.541 47.5741C220.808 47.4635 221.101 47.4346 221.384 47.491C221.666 47.5474 221.926 47.6866 222.13 47.891C222.334 48.0954 222.472 48.3558 222.529 48.6394C222.585 48.9229 222.556 49.2168 222.446 49.4838C222.335 49.7509 222.149 49.9792 221.909 50.1398C221.669 50.3004 221.387 50.3861 221.099 50.3861C220.713 50.3861 220.342 50.2321 220.069 49.958C219.795 49.6839 219.642 49.3122 219.642 48.9245Z" fill="white"/>
<path d="M224.228 48.9245C224.228 48.6354 224.313 48.3528 224.473 48.1125C224.633 47.8721 224.861 47.6848 225.127 47.5741C225.394 47.4635 225.687 47.4346 225.969 47.491C226.252 47.5474 226.512 47.6866 226.716 47.891C226.92 48.0954 227.058 48.3558 227.115 48.6394C227.171 48.9229 227.142 49.2168 227.032 49.4838C226.921 49.7509 226.735 49.9792 226.495 50.1398C226.255 50.3004 225.973 50.3861 225.685 50.3861C225.494 50.3861 225.304 50.3483 225.127 50.2749C224.95 50.2014 224.79 50.0937 224.654 49.958C224.519 49.8223 224.412 49.6612 224.338 49.4838C224.265 49.3065 224.228 49.1165 224.228 48.9245Z" fill="white"/>
<path d="M228.814 48.9245C228.814 48.6354 228.9 48.3528 229.06 48.1125C229.22 47.8721 229.448 47.6848 229.714 47.5741C229.981 47.4635 230.274 47.4346 230.556 47.491C230.839 47.5474 231.099 47.6866 231.303 47.891C231.507 48.0954 231.645 48.3558 231.702 48.6394C231.758 48.9229 231.729 49.2168 231.619 49.4838C231.508 49.7509 231.321 49.9792 231.082 50.1398C230.842 50.3004 230.56 50.3861 230.272 50.3861C230.081 50.3861 229.891 50.3483 229.714 50.2749C229.537 50.2014 229.377 50.0937 229.241 49.958C229.106 49.8223 228.999 49.6612 228.925 49.4838C228.852 49.3065 228.814 49.1165 228.814 48.9245Z" fill="white"/>
<path d="M399.36 52.1192H387.51V46.6055H399.36V52.1192ZM388.115 51.5132H398.78V47.2115H388.115V51.5132Z" fill="white"/>
<path d="M396.137 47.5449H388.494V51.1811H396.137V47.5449Z" fill="white"/>
<path d="M400.428 47.8887H399.373V50.8357H400.428V47.8887Z" fill="white"/>
<path d="M287.093 75.3049C287.091 75.2108 287.109 75.1174 287.144 75.0301C287.179 74.9429 287.231 74.8637 287.298 74.7971C287.364 74.7306 287.443 74.6782 287.53 74.6429C287.617 74.6076 287.71 74.5903 287.804 74.5919C287.898 74.5903 287.992 74.6076 288.08 74.6427C288.167 74.6778 288.247 74.7301 288.314 74.7965C288.382 74.8628 288.435 74.942 288.472 75.0293C288.508 75.1166 288.527 75.2102 288.527 75.3049V82.9219C288.527 83.0166 288.508 83.1102 288.472 83.1975C288.435 83.2848 288.382 83.3639 288.314 83.4303C288.247 83.4967 288.167 83.5489 288.08 83.5841C287.992 83.6192 287.898 83.6365 287.804 83.6349C287.71 83.6365 287.617 83.6192 287.53 83.5839C287.443 83.5486 287.364 83.4962 287.298 83.4297C287.231 83.3631 287.179 83.2839 287.144 83.1967C287.109 83.1094 287.091 83.016 287.093 82.9219V75.3049Z" fill="white"/>
<path d="M292.355 82.9201C292.355 83.1071 292.281 83.2867 292.151 83.4201C292.02 83.5535 291.842 83.63 291.656 83.6331C291.563 83.6331 291.471 83.6146 291.385 83.5786C291.3 83.5426 291.222 83.4899 291.157 83.4235C291.092 83.3572 291.041 83.2785 291.006 83.192C290.972 83.1056 290.955 83.0132 290.956 82.9201V75.41C290.948 75.2959 290.969 75.1816 291.016 75.0777C291.064 74.9739 291.137 74.8838 291.229 74.8159C291.381 74.7103 291.568 74.6675 291.751 74.6962C291.934 74.725 292.1 74.8231 292.212 74.9703L296.372 80.7455V75.41C296.375 75.2261 296.45 75.0508 296.581 74.9219C296.712 74.793 296.888 74.7208 297.071 74.7208C297.256 74.7207 297.433 74.7925 297.566 74.9211C297.698 75.0498 297.776 75.2251 297.782 75.41V82.9201C297.782 83.1092 297.707 83.2905 297.574 83.4242C297.44 83.558 297.26 83.6331 297.071 83.6331C296.969 83.6298 296.868 83.6048 296.776 83.5598C296.684 83.5147 296.603 83.4506 296.538 83.3716V83.3003L292.355 77.5608V82.9201Z" fill="white"/>
<path d="M300.874 82.9218V75.3048C300.874 75.1157 300.949 74.9343 301.082 74.8006C301.216 74.6669 301.396 74.5918 301.585 74.5918H303.41C304.058 74.5918 304.681 74.8493 305.14 75.308C305.6 75.7668 305.86 76.3894 305.863 77.0397C305.867 77.573 305.691 78.0919 305.365 78.5132C305.875 78.8301 306.267 79.3047 306.484 79.8652C306.701 80.4257 306.73 81.0417 306.566 81.6202C306.403 82.1986 306.057 82.708 305.579 83.0715C305.102 83.435 304.519 83.6327 303.92 83.6348H301.632C301.535 83.6413 301.438 83.6277 301.346 83.5948C301.254 83.5619 301.17 83.5104 301.099 83.4435C301.028 83.3767 300.971 83.2959 300.932 83.2061C300.894 83.1163 300.874 83.0196 300.874 82.9218ZM302.308 78.0973H303.41C303.684 78.0911 303.945 77.9765 304.136 77.7785C304.327 77.5805 304.432 77.315 304.429 77.0397C304.429 76.9061 304.403 76.7737 304.351 76.6504C304.3 76.5271 304.225 76.4152 304.13 76.3213C304.035 76.2273 303.923 76.1532 303.799 76.1031C303.675 76.053 303.543 76.0281 303.41 76.0296H302.308V78.0973ZM302.308 82.1969H303.92C304.251 82.1655 304.56 82.0111 304.784 81.7639C305.008 81.5166 305.133 81.1944 305.133 80.8601C305.133 80.5258 305.008 80.2036 304.784 79.9563C304.56 79.7091 304.251 79.5547 303.92 79.5233H302.308V82.1969Z" fill="white"/>
<path d="M315.64 75.706C316.477 76.5894 316.944 77.7614 316.944 78.9798C316.944 80.1983 316.477 81.3702 315.64 82.2536C315.248 82.6824 314.772 83.0261 314.242 83.2632C313.712 83.5002 313.139 83.6258 312.559 83.632C311.968 83.6278 311.384 83.5035 310.842 83.2666C310.3 83.0297 309.812 82.6851 309.407 82.2536C308.583 81.3635 308.125 80.1941 308.125 78.9798C308.125 77.7655 308.583 76.5961 309.407 75.706C309.815 75.281 310.304 74.9437 310.846 74.7149C311.388 74.4861 311.971 74.3705 312.559 74.3751C313.136 74.3732 313.708 74.4903 314.238 74.7193C314.768 74.9482 315.245 75.2841 315.64 75.706ZM315.474 78.9739C315.474 78.1377 315.161 77.332 314.597 76.7161C314.34 76.4291 314.026 76.1993 313.675 76.0417C313.324 75.8841 312.944 75.8021 312.559 75.8011C312.167 75.7992 311.779 75.8796 311.42 76.0372C311.06 76.1948 310.738 76.426 310.473 76.7161C309.91 77.332 309.597 78.1377 309.597 78.9739C309.592 79.8109 309.906 80.6182 310.473 81.2317C310.738 81.5233 311.06 81.7564 311.419 81.916C311.778 82.0756 312.166 82.1582 312.559 82.1585C312.945 82.1553 313.325 82.0711 313.676 81.9115C314.027 81.7518 314.341 81.5203 314.597 81.2317C315.165 80.6182 315.479 79.8109 315.474 78.9739Z" fill="white"/>
<path d="M325.298 75.8119L322.845 79.1273L325.298 82.4783C325.406 82.6302 325.45 82.8186 325.422 83.003C325.393 83.1874 325.293 83.3532 325.144 83.4646C325.024 83.5555 324.879 83.6055 324.729 83.6072C324.616 83.6041 324.506 83.5758 324.405 83.5244C324.305 83.473 324.217 83.3998 324.148 83.3101L321.98 80.3156L319.799 83.2983C319.732 83.3864 319.646 83.4587 319.548 83.51C319.449 83.5614 319.341 83.5905 319.231 83.5953C319.08 83.5973 318.933 83.5469 318.816 83.4527C318.665 83.343 318.562 83.1782 318.531 82.9937C318.5 82.8091 318.543 82.6198 318.65 82.4664L321.103 79.1154L318.65 75.7763C318.544 75.6248 318.501 75.4373 318.532 75.2548C318.563 75.0722 318.665 74.9094 318.816 74.8019C318.888 74.7416 318.973 74.6974 319.063 74.6723C319.154 74.6472 319.249 74.6418 319.342 74.6565C319.435 74.6711 319.524 74.7054 319.603 74.7571C319.682 74.8088 319.749 74.8767 319.799 74.9564L321.98 77.939L324.136 74.9682C324.188 74.8883 324.256 74.8202 324.336 74.7684C324.416 74.7166 324.506 74.6823 324.6 74.6677C324.694 74.6531 324.79 74.6586 324.881 74.6837C324.973 74.7089 325.058 74.7532 325.132 74.8138C325.21 74.8671 325.276 74.9356 325.327 75.0153C325.377 75.095 325.412 75.1841 325.427 75.2774C325.443 75.3706 325.439 75.466 325.417 75.5579C325.395 75.6498 325.354 75.7362 325.298 75.8119Z" fill="white"/>
<path d="M385.592 83.5612L384.098 84.7495L381.337 81.0895L380.33 79.7467C380.537 79.6656 380.732 79.5578 380.911 79.4259C381.245 79.1641 381.506 78.8203 381.669 78.4277L382.748 79.8418L385.592 83.5612Z" fill="white"/>
<path d="M382.652 74.9346C382.179 74.316 381.539 73.8462 380.808 73.5805C380.076 73.3148 379.285 73.2644 378.526 73.4352C377.767 73.606 377.073 73.9908 376.525 74.5444C375.977 75.0979 375.599 75.797 375.434 76.5592C375.27 77.3214 375.326 78.1149 375.597 78.846C375.868 79.5771 376.341 80.2153 376.962 80.6854C377.582 81.1554 378.324 81.4377 379.099 81.4989C379.874 81.56 380.651 81.3976 381.337 81.0306C381.538 80.9262 381.728 80.8029 381.906 80.6622C382.233 80.4178 382.517 80.1207 382.747 79.7829C383.249 79.0704 383.511 78.2155 383.494 77.3431C383.477 76.4708 383.182 75.6268 382.652 74.9346ZM380.91 79.367C380.732 79.4988 380.536 79.6067 380.33 79.6878C379.808 79.8965 379.231 79.9177 378.696 79.748C378.161 79.5782 377.701 79.2279 377.395 78.7566C377.088 78.2853 376.953 77.7221 377.014 77.1626C377.074 76.6031 377.326 76.0819 377.727 75.6876C378.127 75.2932 378.651 75.05 379.21 74.9993C379.769 74.9486 380.328 75.0935 380.793 75.4094C381.257 75.7253 381.598 76.1927 381.758 76.7322C381.918 77.2717 381.886 77.85 381.669 78.3688C381.506 78.7614 381.245 79.1052 380.91 79.367Z" fill="white"/>
<path d="M365.328 73.5801H354.497V84.4412H365.328V73.5801Z" fill="white"/>
<path d="M360.504 75.5977H359.319V82.4304H360.504V75.5977Z" fill="#46B2C8"/>
<path d="M356.499 78.4152V79.6035H363.313V78.4152H356.499Z" fill="#46B2C8"/>
<path d="M399.362 74.2806C399.362 74.4662 399.307 74.6477 399.204 74.8021C399.101 74.9565 398.955 75.0768 398.784 75.1479C398.613 75.2189 398.424 75.2375 398.243 75.2013C398.061 75.1651 397.894 75.0757 397.763 74.9444C397.633 74.8131 397.543 74.6458 397.507 74.4637C397.471 74.2816 397.49 74.0929 397.561 73.9213C397.631 73.7498 397.751 73.6032 397.905 73.5C398.059 73.3969 398.24 73.3418 398.425 73.3418C398.548 73.3418 398.67 73.3661 398.784 73.4133C398.897 73.4604 399 73.5296 399.087 73.6168C399.174 73.7039 399.243 73.8074 399.29 73.9213C399.337 74.0352 399.362 74.1573 399.362 74.2806Z" fill="white"/>
<path d="M399.362 79.1302C399.362 79.3791 399.263 79.6179 399.087 79.794C398.912 79.97 398.674 80.0689 398.425 80.0689C398.177 80.0689 397.939 79.97 397.763 79.794C397.588 79.6179 397.489 79.3791 397.489 79.1302C397.489 79.0069 397.513 78.8848 397.561 78.7709C397.608 78.657 397.677 78.5535 397.763 78.4664C397.85 78.3792 397.954 78.31 398.067 78.2629C398.181 78.2157 398.302 78.1914 398.425 78.1914C398.548 78.1914 398.67 78.2157 398.784 78.2629C398.897 78.31 399 78.3792 399.087 78.4664C399.174 78.5535 399.243 78.657 399.29 78.7709C399.337 78.8848 399.362 79.0069 399.362 79.1302Z" fill="white"/>
<path d="M399.362 84.0247C399.362 84.148 399.337 84.27 399.29 84.3839C399.243 84.4978 399.174 84.6013 399.087 84.6885C399 84.7757 398.897 84.8448 398.784 84.892C398.67 84.9392 398.548 84.9635 398.425 84.9635C398.302 84.9635 398.181 84.9392 398.067 84.892C397.954 84.8448 397.85 84.7757 397.763 84.6885C397.677 84.6013 397.608 84.4978 397.561 84.3839C397.513 84.27 397.489 84.148 397.489 84.0247C397.489 83.7757 397.588 83.5369 397.763 83.3609C397.939 83.1848 398.177 83.0859 398.425 83.0859C398.674 83.0859 398.912 83.1848 399.087 83.3609C399.263 83.5369 399.362 83.7757 399.362 84.0247Z" fill="white"/>
<path d="M415.845 98.6992H196.144V132.72H415.845V98.6992Z" fill="#EBEBEB"/>
<path d="M231.918 122.288C231.23 122.715 230.478 123.028 229.69 123.215C227.812 123.667 225.832 123.393 224.147 122.446C222.461 121.5 221.193 119.951 220.596 118.109C219.998 116.267 220.115 114.266 220.923 112.507C221.731 110.747 223.171 109.358 224.955 108.615C226.74 107.873 228.738 107.832 230.551 108.501C232.364 109.17 233.858 110.5 234.737 112.226C235.616 113.951 235.813 115.945 235.291 117.81C234.768 119.675 233.564 121.274 231.918 122.288Z" fill="#46B2C8"/>
<path d="M230.153 114.779C230.153 115.249 230.014 115.709 229.754 116.099C229.493 116.49 229.123 116.795 228.69 116.975C228.257 117.155 227.78 117.202 227.321 117.11C226.861 117.018 226.439 116.792 226.107 116.459C225.776 116.127 225.55 115.704 225.459 115.243C225.367 114.782 225.414 114.304 225.593 113.869C225.773 113.435 226.077 113.064 226.466 112.803C226.856 112.542 227.314 112.402 227.783 112.402C228.412 112.402 229.014 112.653 229.459 113.098C229.903 113.544 230.153 114.149 230.153 114.779Z" fill="white"/>
<path d="M231.919 121.314V122.288C231.23 122.715 230.478 123.028 229.691 123.215C228.691 123.466 227.652 123.513 226.635 123.354C225.617 123.195 224.641 122.832 223.766 122.288V121.314C223.766 120.236 224.193 119.202 224.953 118.44C225.713 117.678 226.744 117.25 227.818 117.25C228.893 117.25 229.924 117.678 230.684 118.44C231.444 119.202 231.871 120.236 231.871 121.314H231.919Z" fill="white"/>
<path d="M276.19 120.825H265.999L270.158 115.715L265.999 110.605H276.19L280.35 115.715L276.19 120.825Z" fill="white"/>
<path d="M250.003 110.605L251.662 113.968L255.359 114.503L252.681 117.129L253.321 120.825L250.003 119.078L246.697 120.825L247.325 117.129L244.646 114.503L248.344 113.968L250.003 110.605Z" fill="#46B2C8"/>
<path d="M347.789 113.639H287.662V117.798H347.789V113.639Z" fill="#023A59"/>
<path d="M396.137 113.639H372.567V117.798H396.137V113.639Z" fill="#455A64"/>
<path d="M231.918 156.367C231.23 156.794 230.478 157.107 229.69 157.294C227.812 157.746 225.832 157.472 224.147 156.525C222.461 155.579 221.193 154.03 220.596 152.188C219.998 150.346 220.115 148.345 220.923 146.586C221.731 144.826 223.171 143.437 224.955 142.694C226.74 141.952 228.738 141.911 230.551 142.58C232.364 143.25 233.858 144.579 234.737 146.305C235.616 148.03 235.813 150.024 235.291 151.889C234.768 153.754 233.564 155.353 231.918 156.367Z" fill="#455A64"/>
<path d="M230.153 148.858C230.153 149.328 230.014 149.788 229.754 150.178C229.493 150.569 229.123 150.874 228.69 151.054C228.257 151.234 227.78 151.281 227.321 151.189C226.861 151.097 226.439 150.871 226.107 150.539C225.776 150.206 225.55 149.783 225.459 149.322C225.367 148.861 225.414 148.383 225.593 147.949C225.773 147.514 226.077 147.143 226.466 146.882C226.856 146.621 227.314 146.481 227.783 146.481C228.412 146.481 229.014 146.732 229.459 147.178C229.903 147.623 230.153 148.228 230.153 148.858Z" fill="white"/>
<path d="M231.919 155.334V156.368C231.23 156.794 230.478 157.107 229.691 157.294C228.692 157.548 227.652 157.597 226.634 157.438C225.616 157.279 224.64 156.915 223.766 156.368V155.393C223.766 154.315 224.193 153.282 224.953 152.519C225.713 151.757 226.744 151.329 227.818 151.329C228.893 151.329 229.924 151.757 230.684 152.519C231.444 153.282 231.871 154.315 231.871 155.393L231.919 155.334Z" fill="white"/>
<path d="M276.19 154.847H265.999L270.158 149.738L265.999 144.628H276.19L280.35 149.738L276.19 154.847Z" fill="white"/>
<path d="M276.333 155.18H265.372L269.78 149.773L265.372 144.366H276.333L280.73 149.773L276.333 155.18ZM266.628 154.586H276.108L280.019 149.773L276.108 145.02H266.628L270.539 149.773L266.628 154.586Z" fill="#EBEBEB"/>
<path d="M250.002 144.628L251.661 147.991L255.359 148.526L252.68 151.152L253.32 154.847L250.002 153.101L246.696 154.847L247.324 151.152L244.646 148.526L248.343 147.991L250.002 144.628Z" fill="#46B2C8"/>
<path d="M347.789 147.658H287.662V151.817H347.789V147.658Z" fill="#023A59"/>
<path d="M396.137 147.658H372.567V151.817H396.137V147.658Z" fill="#455A64"/>
<path d="M415.845 166.742H196.144V200.763H415.845V166.742Z" fill="#EBEBEB"/>
<path d="M231.919 190.329C231.228 190.755 230.477 191.071 229.691 191.268C227.803 191.733 225.809 191.467 224.108 190.523C222.407 189.579 221.123 188.027 220.513 186.176C219.902 184.325 220.01 182.311 220.815 180.536C221.62 178.762 223.063 177.356 224.855 176.601C226.648 175.846 228.658 175.796 230.486 176.461C232.313 177.127 233.823 178.459 234.715 180.191C235.606 181.924 235.813 183.93 235.295 185.809C234.777 187.688 233.571 189.302 231.919 190.329Z" fill="#FF5454"/>
<path d="M230.153 182.881C230.153 183.351 230.014 183.81 229.754 184.201C229.493 184.592 229.123 184.896 228.69 185.076C228.257 185.256 227.78 185.303 227.321 185.211C226.861 185.12 226.439 184.893 226.107 184.561C225.776 184.229 225.55 183.805 225.459 183.344C225.367 182.883 225.414 182.405 225.593 181.971C225.773 181.537 226.077 181.166 226.466 180.904C226.856 180.643 227.314 180.504 227.783 180.504C228.412 180.504 229.014 180.754 229.459 181.2C229.903 181.646 230.153 182.25 230.153 182.881Z" fill="white"/>
<path d="M231.919 189.356V190.33C231.228 190.756 230.477 191.072 229.691 191.269C228.691 191.521 227.651 191.567 226.633 191.406C225.615 191.245 224.639 190.879 223.766 190.33V189.356C223.766 188.278 224.193 187.244 224.953 186.482C225.713 185.72 226.744 185.292 227.818 185.292C228.893 185.292 229.924 185.72 230.684 186.482C231.444 187.244 231.871 188.278 231.871 189.356H231.919Z" fill="white"/>
<path d="M276.19 188.869H265.999L270.158 183.759L265.999 178.649H276.19L280.35 183.759L276.19 188.869Z" fill="white"/>
<path d="M250.002 178.649L251.661 182.012L255.359 182.547L252.68 185.173L253.32 188.869L250.002 187.122L246.696 188.869L247.324 185.173L244.646 182.547L248.343 182.012L250.002 178.649Z" fill="white"/>
<path d="M347.789 181.679H287.662V185.838H347.789V181.679Z" fill="#DBDBDB"/>
<path d="M396.137 181.68H372.567V185.839H396.137V181.68Z" fill="#C9EAF1"/>
<path d="M231.919 224.352C231.228 224.777 230.477 225.094 229.691 225.291C227.803 225.755 225.809 225.489 224.108 224.546C222.407 223.602 221.123 222.049 220.513 220.198C219.902 218.347 220.01 216.333 220.815 214.559C221.62 212.784 223.063 211.379 224.855 210.624C226.648 209.868 228.658 209.818 230.486 210.484C232.313 211.149 233.823 212.481 234.715 214.214C235.606 215.946 235.813 217.952 235.295 219.832C234.777 221.711 233.571 223.325 231.919 224.352Z" fill="#A6A6A6"/>
<path d="M230.153 216.901C230.153 217.371 230.014 217.831 229.754 218.221C229.493 218.612 229.123 218.917 228.69 219.097C228.257 219.277 227.78 219.324 227.321 219.232C226.861 219.14 226.439 218.914 226.107 218.582C225.776 218.249 225.55 217.826 225.459 217.365C225.367 216.904 225.414 216.426 225.593 215.992C225.773 215.557 226.077 215.186 226.466 214.925C226.856 214.664 227.314 214.524 227.783 214.524C228.412 214.524 229.014 214.775 229.459 215.221C229.903 215.666 230.153 216.271 230.153 216.901Z" fill="white"/>
<path d="M231.919 223.389V224.352C231.228 224.777 230.477 225.094 229.691 225.29C228.691 225.542 227.651 225.589 226.633 225.427C225.615 225.266 224.639 224.9 223.766 224.352V223.389C223.766 222.311 224.193 221.278 224.953 220.516C225.713 219.753 226.744 219.325 227.818 219.325C228.893 219.325 229.924 219.753 230.684 220.516C231.444 221.278 231.871 222.311 231.871 223.389H231.919Z" fill="white"/>
<path d="M276.19 222.891H265.999L270.158 217.782L265.999 212.672H276.19L280.35 217.782L276.19 222.891Z" fill="white"/>
<path d="M276.333 223.187H265.372L269.78 217.78L265.372 212.373H276.333L280.73 217.78L276.333 223.187ZM266.628 222.592H276.108L280.019 217.839L276.108 213.027H266.628L270.539 217.839L266.628 222.592Z" fill="#EBEBEB"/>
<path d="M250.003 212.672L251.662 216.035L255.359 216.581L252.681 219.196L253.321 222.891L250.003 221.144L246.697 222.891L247.325 219.196L244.646 216.581L248.344 216.035L250.003 212.672Z" fill="#46B2C8"/>
<path d="M347.789 215.7H287.662V219.859H347.789V215.7Z" fill="#DBDBDB"/>
<path d="M396.137 215.7H372.567V219.859H396.137V215.7Z" fill="#C9EAF1"/>
<path d="M415.845 234.796H196.144V268.817H415.845V234.796Z" fill="#EBEBEB"/>
<path d="M231.919 258.372C231.228 258.798 230.477 259.114 229.691 259.311C227.803 259.776 225.809 259.51 224.108 258.566C222.407 257.622 221.123 256.07 220.513 254.219C219.902 252.368 220.01 250.354 220.815 248.579C221.62 246.805 223.063 245.399 224.855 244.644C226.648 243.889 228.658 243.839 230.486 244.504C232.313 245.17 233.823 246.502 234.715 248.234C235.606 249.967 235.813 251.973 235.295 253.852C234.777 255.731 233.571 257.345 231.919 258.372Z" fill="#115766"/>
<path d="M230.153 250.923C230.153 251.393 230.014 251.852 229.754 252.243C229.493 252.634 229.123 252.938 228.69 253.118C228.257 253.298 227.78 253.345 227.321 253.253C226.861 253.162 226.439 252.935 226.107 252.603C225.776 252.271 225.55 251.847 225.459 251.386C225.367 250.925 225.414 250.447 225.593 250.013C225.773 249.579 226.077 249.208 226.466 248.946C226.856 248.685 227.314 248.546 227.783 248.546C228.412 248.546 229.014 248.796 229.459 249.242C229.903 249.688 230.153 250.292 230.153 250.923Z" fill="white"/>
<path d="M231.919 257.375V258.337C231.228 258.762 230.477 259.079 229.691 259.276C228.691 259.527 227.651 259.574 226.633 259.413C225.615 259.251 224.639 258.885 223.766 258.337V257.375C223.766 256.297 224.193 255.263 224.953 254.501C225.713 253.739 226.744 253.311 227.818 253.311C228.893 253.311 229.924 253.739 230.684 254.501C231.444 255.263 231.871 256.297 231.871 257.375H231.919Z" fill="white"/>
<path d="M276.19 256.91H265.999L270.158 251.8L265.999 246.69H276.19L280.35 251.8L276.19 256.91Z" fill="white"/>
<path d="M250.003 246.69L251.662 250.053L255.359 250.6L252.681 253.214L253.321 256.91L250.003 255.163L246.697 256.91L247.325 253.214L244.646 250.6L248.344 250.053L250.003 246.69Z" fill="#46B2C8"/>
<path d="M347.789 249.722H287.662V253.881H347.789V249.722Z" fill="#DBDBDB"/>
<path d="M396.137 249.722H372.567V253.881H396.137V249.722Z" fill="#C9EAF1"/>
<path d="M415.857 438.924V455.56C415.906 458.999 415.086 462.394 413.474 465.43C411.862 468.465 409.51 471.043 406.637 472.921H205.375C202.501 471.043 200.149 468.466 198.537 465.431C196.925 462.395 196.105 458.999 196.155 455.56V438.924H415.857Z" fill="#EBEBEB"/>
<path d="M231.919 462.512C231.228 462.937 230.477 463.254 229.691 463.451C227.803 463.916 225.809 463.65 224.108 462.706C222.407 461.762 221.123 460.21 220.513 458.358C219.902 456.507 220.01 454.494 220.815 452.719C221.62 450.944 223.063 449.539 224.855 448.784C226.648 448.028 228.658 447.979 230.486 448.644C232.313 449.309 233.823 450.641 234.715 452.374C235.606 454.107 235.813 456.113 235.295 457.992C234.777 459.871 233.571 461.485 231.919 462.512Z" fill="#FF5454"/>
<path d="M230.153 455.061C230.153 455.531 230.014 455.991 229.754 456.382C229.493 456.772 229.123 457.077 228.69 457.257C228.257 457.437 227.78 457.484 227.321 457.392C226.861 457.3 226.439 457.074 226.107 456.742C225.776 456.409 225.55 455.986 225.459 455.525C225.367 455.064 225.414 454.586 225.593 454.152C225.773 453.717 226.077 453.346 226.466 453.085C226.856 452.824 227.314 452.685 227.783 452.685C228.412 452.685 229.014 452.935 229.459 453.381C229.903 453.826 230.153 454.431 230.153 455.061Z" fill="white"/>
<path d="M231.919 461.537V462.511C231.228 462.936 230.477 463.253 229.691 463.45C228.691 463.699 227.651 463.744 226.633 463.583C225.616 463.421 224.64 463.057 223.766 462.511V461.537C223.766 460.459 224.193 459.425 224.953 458.663C225.713 457.901 226.744 457.473 227.818 457.473C228.893 457.473 229.924 457.901 230.684 458.663C231.444 459.425 231.871 460.459 231.871 461.537H231.919Z" fill="white"/>
<path d="M276.19 461.049H265.999L270.158 455.939L265.999 450.829H276.19L280.35 455.939L276.19 461.049Z" fill="white"/>
<path d="M250.003 450.829L251.662 454.192L255.359 454.727L252.681 457.353L253.321 461.049L250.003 459.302L246.697 461.049L247.325 457.353L244.646 454.727L248.344 454.192L250.003 450.829Z" fill="#FF5454"/>
<path d="M347.789 453.86H287.662V458.019H347.789V453.86Z" fill="#DBDBDB"/>
<path d="M396.137 453.86H372.567V458.019H396.137V453.86Z" fill="#C9EAF1"/>
<path d="M231.918 292.394C230.883 293.034 229.71 293.419 228.498 293.518C227.285 293.618 226.066 293.428 224.941 292.964C223.815 292.501 222.815 291.777 222.022 290.851C221.228 289.926 220.665 288.826 220.376 287.641C220.039 286.254 220.091 284.801 220.526 283.443C220.961 282.084 221.763 280.873 222.842 279.942C223.921 279.012 225.236 278.399 226.64 278.171C228.045 277.944 229.485 278.11 230.802 278.652C232.118 279.194 233.259 280.091 234.099 281.243C234.939 282.395 235.445 283.758 235.56 285.18C235.676 286.602 235.397 288.029 234.754 289.302C234.111 290.575 233.13 291.645 231.918 292.394Z" fill="#023A59"/>
<path d="M230.153 284.944C230.153 285.414 230.014 285.874 229.754 286.264C229.493 286.655 229.123 286.96 228.69 287.14C228.257 287.32 227.78 287.367 227.321 287.275C226.861 287.183 226.439 286.957 226.107 286.625C225.776 286.292 225.55 285.869 225.459 285.408C225.367 284.947 225.414 284.469 225.593 284.034C225.773 283.6 226.077 283.229 226.466 282.968C226.856 282.707 227.314 282.567 227.783 282.567C228.412 282.567 229.014 282.818 229.459 283.263C229.903 283.709 230.153 284.314 230.153 284.944Z" fill="white"/>
<path d="M231.918 291.43V292.393C230.701 293.151 229.298 293.553 227.865 293.553C226.433 293.553 225.029 293.151 223.812 292.393V291.43C223.813 290.352 224.239 289.319 225 288.557C225.76 287.794 226.79 287.366 227.865 287.366C228.94 287.366 229.971 287.794 230.731 288.557C231.491 289.319 231.918 290.352 231.918 291.43Z" fill="white"/>
<path d="M276.19 290.932H265.999L270.158 285.823L265.999 280.713H276.19L280.35 285.823L276.19 290.932Z" fill="white"/>
<path d="M276.333 291.23H265.372L269.78 285.823L265.372 280.416H276.333L280.73 285.823L276.333 291.23ZM266.628 290.635H276.108L280.019 285.823L276.108 281.01H266.628L270.539 285.823L266.628 290.635Z" fill="#EBEBEB"/>
<path d="M250.003 280.713L251.662 284.076L255.359 284.622L252.681 287.237L253.321 290.932L250.003 289.185L246.697 290.932L247.325 287.237L244.646 284.622L248.344 284.076L250.003 280.713Z" fill="white"/>
<path d="M253.711 291.479L250.002 289.531L246.292 291.479L247.003 287.344L244.005 284.409L248.153 283.815L250.002 280.048L251.85 283.815L255.998 284.409L253 287.344L253.711 291.479ZM250.002 288.853L252.917 290.398L252.36 287.13L254.73 284.825L251.459 284.35L250.002 281.391L248.508 284.35L245.25 284.825L247.62 287.13L247.063 290.398L250.002 288.853Z" fill="#EBEBEB"/>
<path d="M347.789 283.742H287.662V287.901H347.789V283.742Z" fill="#DBDBDB"/>
<path d="M396.137 283.742H372.567V287.901H396.137V283.742Z" fill="#C9EAF1"/>
<path d="M415.845 302.84H196.144V336.861H415.845V302.84Z" fill="#EBEBEB"/>
<path d="M231.919 326.427C231.228 326.849 230.477 327.161 229.691 327.354C228.211 327.714 226.658 327.627 225.228 327.102C223.798 326.578 222.555 325.64 221.656 324.407C220.757 323.174 220.243 321.702 220.178 320.176C220.113 318.65 220.501 317.139 221.292 315.835C222.084 314.53 223.243 313.49 224.624 312.845C226.004 312.201 227.545 311.981 229.05 312.215C230.555 312.448 231.957 313.123 233.08 314.155C234.202 315.188 234.994 316.53 235.356 318.014C235.74 319.6 235.615 321.268 234.997 322.779C234.38 324.29 233.303 325.567 231.919 326.427Z" fill="#46B2C8"/>
<path d="M230.153 318.964C230.153 319.435 230.014 319.894 229.754 320.285C229.493 320.676 229.123 320.98 228.69 321.16C228.257 321.34 227.78 321.387 227.321 321.295C226.861 321.204 226.439 320.977 226.107 320.645C225.776 320.313 225.55 319.889 225.459 319.428C225.367 318.967 225.414 318.489 225.593 318.055C225.773 317.621 226.077 317.25 226.466 316.988C226.856 316.727 227.314 316.588 227.783 316.588C228.412 316.588 229.014 316.838 229.459 317.284C229.903 317.73 230.153 318.334 230.153 318.964Z" fill="white"/>
<path d="M231.919 325.452V326.426C231.228 326.848 230.476 327.16 229.691 327.353C228.691 327.605 227.651 327.651 226.633 327.49C225.615 327.328 224.639 326.963 223.766 326.414V325.452C223.766 324.374 224.193 323.34 224.953 322.578C225.713 321.816 226.744 321.388 227.818 321.388C228.893 321.388 229.924 321.816 230.684 322.578C231.444 323.34 231.871 324.374 231.871 325.452H231.919Z" fill="white"/>
<path d="M276.19 324.966H265.999L270.158 319.844L265.999 314.734H276.19L280.35 319.844L276.19 324.966Z" fill="white"/>
<path d="M250.002 314.734L251.661 318.109L255.359 318.644L252.68 321.258L253.32 324.966L250.002 323.219L246.696 324.966L247.324 321.258L244.646 318.644L248.343 318.109L250.002 314.734Z" fill="#46B2C8"/>
<path d="M347.789 317.776H287.662V321.935H347.789V317.776Z" fill="#023A59"/>
<path d="M396.137 317.776H372.567V321.935H396.137V317.776Z" fill="#455A64"/>
<path d="M231.919 360.447C231.231 360.874 230.479 361.187 229.691 361.374C228.211 361.735 226.658 361.647 225.228 361.123C223.798 360.598 222.555 359.66 221.656 358.427C220.757 357.195 220.243 355.722 220.178 354.196C220.113 352.671 220.501 351.16 221.292 349.855C222.084 348.55 223.243 347.51 224.624 346.866C226.004 346.221 227.545 346.002 229.05 346.235C230.555 346.468 231.957 347.144 233.08 348.176C234.202 349.208 234.994 350.551 235.356 352.034C235.74 353.621 235.615 355.289 234.997 356.799C234.38 358.31 233.303 359.587 231.919 360.447Z" fill="#46B2C8"/>
<path d="M230.153 352.985C230.153 353.455 230.014 353.915 229.754 354.305C229.493 354.696 229.123 355.001 228.69 355.181C228.257 355.361 227.78 355.408 227.321 355.316C226.861 355.224 226.439 354.998 226.107 354.666C225.776 354.333 225.55 353.91 225.459 353.449C225.367 352.988 225.414 352.51 225.593 352.076C225.773 351.641 226.077 351.27 226.466 351.009C226.856 350.748 227.314 350.608 227.783 350.608C228.412 350.608 229.014 350.859 229.459 351.304C229.903 351.75 230.153 352.355 230.153 352.985Z" fill="white"/>
<path d="M231.919 359.474V360.449C231.23 360.875 230.478 361.188 229.691 361.375C228.691 361.627 227.651 361.674 226.633 361.512C225.615 361.351 224.639 360.985 223.766 360.437V359.474C223.766 358.396 224.193 357.363 224.953 356.6C225.713 355.838 226.744 355.41 227.818 355.41C228.893 355.41 229.924 355.838 230.684 356.6C231.444 357.363 231.871 358.396 231.871 359.474H231.919Z" fill="white"/>
<path d="M276.19 358.986H265.999L270.158 353.876L265.999 348.767H276.19L280.35 353.876L276.19 358.986Z" fill="white"/>
<path d="M276.333 359.283H265.372L269.78 353.876L265.372 348.47H276.333L280.73 353.876L276.333 359.283ZM266.628 358.689H276.108L280.019 353.876L276.108 349.123H266.628L270.539 353.876L266.628 358.689Z" fill="#EBEBEB"/>
<path d="M250.002 348.767L251.661 352.129L255.359 352.664L252.68 355.279L253.32 358.986L250.002 357.239L246.696 358.986L247.324 355.279L244.646 352.664L248.343 352.129L250.002 348.767Z" fill="white"/>
<path d="M253.711 359.569L250.002 357.62L246.292 359.569L247.003 355.434L244.005 352.439L248.153 351.833L250.002 348.066L251.85 351.833L255.998 352.439L253 355.363L253.711 359.569ZM245.285 352.927L247.655 355.232L247.098 358.488L250.013 356.943L252.929 358.488L252.372 355.232L254.742 352.927L251.471 352.439L250.013 349.48L248.508 352.439L245.285 352.927Z" fill="#EBEBEB"/>
<path d="M347.789 351.796H287.662V355.955H347.789V351.796Z" fill="#DBDBDB"/>
<path d="M396.137 351.796H372.567V355.955H396.137V351.796Z" fill="#C9EAF1"/>
<path d="M415.845 370.882H196.144V404.903H415.845V370.882Z" fill="#EBEBEB"/>
<path d="M231.918 394.469C231.23 394.895 230.478 395.208 229.69 395.396C227.812 395.848 225.832 395.573 224.147 394.627C222.461 393.681 221.193 392.132 220.596 390.29C219.998 388.447 220.115 386.447 220.923 384.687C221.731 382.928 223.171 381.538 224.955 380.796C226.74 380.053 228.738 380.013 230.551 380.682C232.364 381.351 233.858 382.681 234.737 384.406C235.616 386.132 235.813 388.126 235.291 389.991C234.768 391.856 233.564 393.455 231.918 394.469Z" fill="#455A64"/>
<path d="M230.153 387.006C230.153 387.477 230.014 387.936 229.754 388.327C229.493 388.718 229.123 389.022 228.69 389.202C228.257 389.382 227.78 389.429 227.321 389.337C226.861 389.246 226.439 389.019 226.107 388.687C225.776 388.355 225.55 387.931 225.459 387.47C225.367 387.009 225.414 386.531 225.593 386.097C225.773 385.663 226.077 385.292 226.466 385.03C226.856 384.769 227.314 384.63 227.783 384.63C228.412 384.63 229.014 384.88 229.459 385.326C229.903 385.772 230.153 386.376 230.153 387.006Z" fill="white"/>
<path d="M231.919 393.495V394.469C231.23 394.896 230.478 395.209 229.691 395.396C228.691 395.647 227.652 395.694 226.635 395.534C225.617 395.375 224.641 395.013 223.766 394.469V393.495C223.766 392.417 224.193 391.383 224.953 390.621C225.713 389.859 226.744 389.431 227.818 389.431C228.893 389.431 229.924 389.859 230.684 390.621C231.444 391.383 231.871 392.417 231.871 393.495H231.919Z" fill="white"/>
<path d="M276.19 393.008H265.999L270.158 387.898L265.999 382.788H276.19L280.35 387.898L276.19 393.008Z" fill="white"/>
<path d="M250.002 382.788L251.661 386.151L255.359 386.686L252.68 389.3L253.32 393.008L250.002 391.261L246.696 393.008L247.324 389.3L244.646 386.686L248.343 386.151L250.002 382.788Z" fill="white"/>
<path d="M347.789 385.817H287.662V389.976H347.789V385.817Z" fill="#DBDBDB"/>
<path d="M396.137 385.817H372.567V389.976H396.137V385.817Z" fill="#C9EAF1"/>
<path d="M231.918 428.489C231.23 428.916 230.478 429.229 229.69 429.416C227.812 429.868 225.832 429.594 224.147 428.648C222.461 427.701 221.193 426.152 220.596 424.31C219.998 422.468 220.115 420.468 220.923 418.708C221.731 416.948 223.171 415.559 224.955 414.816C226.74 414.074 228.738 414.033 230.551 414.702C232.364 415.372 233.858 416.701 234.737 418.427C235.616 420.152 235.813 422.146 235.291 424.011C234.768 425.876 233.564 427.475 231.918 428.489Z" fill="#A6A6A6"/>
<path d="M230.153 421.039C230.153 421.509 230.014 421.968 229.754 422.359C229.493 422.75 229.123 423.055 228.69 423.234C228.257 423.414 227.78 423.461 227.321 423.37C226.861 423.278 226.439 423.052 226.107 422.719C225.776 422.387 225.55 421.963 225.459 421.502C225.367 421.041 225.414 420.563 225.593 420.129C225.773 419.695 226.077 419.324 226.466 419.063C226.856 418.801 227.314 418.662 227.783 418.662C228.412 418.662 229.014 418.912 229.459 419.358C229.903 419.804 230.153 420.408 230.153 421.039Z" fill="white"/>
<path d="M231.919 427.516V428.491C231.23 428.917 230.478 429.23 229.691 429.417C228.692 429.671 227.652 429.72 226.634 429.561C225.616 429.402 224.64 429.038 223.766 428.491V427.516C223.766 426.438 224.193 425.405 224.953 424.642C225.713 423.88 226.744 423.452 227.818 423.452C228.893 423.452 229.924 423.88 230.684 424.642C231.444 425.405 231.871 426.438 231.871 427.516H231.919Z" fill="white"/>
<path d="M276.19 427.028H265.999L270.158 421.918L265.999 416.809H276.19L280.35 421.918L276.19 427.028Z" fill="white"/>
<path d="M276.333 427.302H265.372L269.78 421.895L265.372 416.488H276.333L280.73 421.895L276.333 427.302ZM266.628 426.708H276.108L280.019 421.954L276.108 417.142H266.628L270.539 421.954L266.628 426.708Z" fill="#EBEBEB"/>
<path d="M250.003 416.809L251.662 420.171L255.359 420.706L252.681 423.332L253.321 427.028L250.003 425.281L246.697 427.028L247.325 423.332L244.646 420.706L248.344 420.171L250.003 416.809Z" fill="white"/>
<path d="M253.711 427.576L250.002 425.615L246.292 427.576L247.003 423.429L244.005 420.506L248.153 419.9L250.002 416.133L251.85 419.9L255.998 420.506L253 423.429L253.711 427.576ZM250.002 424.926L252.917 426.459L252.36 423.203L254.73 420.898L251.459 420.423L250.002 417.452L248.544 420.423L245.285 420.898L247.655 423.203L247.098 426.459L250.002 424.926Z" fill="#EBEBEB"/>
<path d="M347.789 419.839H287.662V423.998H347.789V419.839Z" fill="#DBDBDB"/>
<path d="M396.137 419.839H372.567V423.998H396.137V419.839Z" fill="#C9EAF1"/>
<path d="M230.413 489.951H134.214C122.707 449.477 113.452 418.652 113.452 418.652H204.663C204.663 418.652 215.932 449.18 230.413 489.951Z" fill="#115766"/>
<path d="M148.304 489.951H146.325C140.625 470.879 134.7 451.925 128.894 432.829C128.811 432.58 129.202 432.461 129.297 432.71C130.482 436.014 131.667 439.317 132.852 442.633C138.398 458.271 143.481 474.075 148.304 489.951Z" fill="#023A59"/>
<path d="M202.578 418.688C202.471 420.601 197.387 438.105 194.757 464.295C193.797 473.956 192.707 483.046 191.545 489.95H63.8838C51.2516 450.808 69.9985 418.652 69.9985 418.652C69.9985 418.652 202.59 418.605 202.578 418.688Z" fill="#115766"/>
<path d="M177.064 462.038C177.514 468.609 177.668 475.192 177.585 481.763C177.378 484.488 177.354 487.223 177.514 489.951H175.298C174.765 485.78 175.298 480.587 175.298 476.487C175.227 459.506 173.071 442.716 170.464 425.961C170.461 425.885 170.485 425.812 170.532 425.753C170.578 425.693 170.644 425.652 170.717 425.637C170.791 425.621 170.867 425.632 170.933 425.667C171 425.703 171.051 425.76 171.08 425.83C174.309 437.661 176.314 449.794 177.064 462.038Z" fill="#023A59"/>
<path d="M192.896 470.522C192.777 474.016 191.829 483.32 189.092 489.951H187.184C190.893 480.884 190.68 463.19 190.407 459.055C189.637 446.934 188.701 435.55 186.651 422.788C186.58 422.384 187.243 422.36 187.326 422.729C190.941 438.129 193.394 454.718 192.896 470.522Z" fill="#023A59"/>
<path d="M71.7639 435.68C68.0666 451.71 69.8678 468.952 73.3992 484.816C73.7665 486.539 74.1813 488.251 74.5842 489.95H72.6645C67.4386 467.835 65.8388 444.949 75.0345 423.5C75.153 423.238 75.544 423.5 75.4374 423.726C73.9118 427.611 72.6838 431.607 71.7639 435.68Z" fill="#023A59"/>
<path d="M283.703 184.89L262.729 251.839C261.887 253.788 262.8 255.475 264.743 255.582L299.677 257.579C300.747 257.562 301.79 257.241 302.684 256.652C303.578 256.062 304.286 255.23 304.725 254.251L325.653 187.35C326.494 185.389 325.582 183.714 323.638 183.607L288.799 181.61C287.726 181.613 286.677 181.924 285.774 182.505C284.871 183.086 284.153 183.913 283.703 184.89Z" fill="#115766"/>
<path d="M287.851 185.138L266.924 252.04C266.082 253.988 266.995 255.664 268.95 255.783L303.872 257.779C304.943 257.761 305.987 257.439 306.883 256.85C307.778 256.261 308.489 255.429 308.932 254.452L329.848 187.538C330.689 185.59 329.789 183.973 327.833 183.807L292.899 181.799C291.829 181.82 290.787 182.145 289.894 182.736C289 183.327 288.292 184.16 287.851 185.138Z" fill="#455A64"/>
<path d="M297.249 188.786C297.202 189.375 296.983 189.936 296.618 190.399C296.253 190.862 295.76 191.207 295.2 191.388C294.64 191.57 294.039 191.582 293.473 191.421C292.907 191.26 292.401 190.934 292.019 190.485C291.638 190.036 291.397 189.483 291.329 188.897C291.261 188.311 291.368 187.718 291.636 187.192C291.904 186.667 292.321 186.233 292.835 185.946C293.349 185.659 293.936 185.531 294.523 185.578C295.308 185.642 296.037 186.015 296.548 186.617C297.059 187.218 297.311 187.999 297.249 188.786Z" fill="#023A59"/>
<path d="M165.239 281.273C182.22 324.777 222.973 382.504 241.317 383.954C250.038 384.655 265.491 387.78 277.614 378.476C304.063 358.18 327.728 317.564 333.57 293.809C335.655 285.36 295.389 264.102 288.8 270.649C273.395 286.002 254.612 316.886 252.065 316.53C242.727 315.199 208.006 282.069 183.796 258.79C154.408 230.508 158.449 263.935 165.239 281.273Z" fill="#EB9481"/>
<path d="M337.504 249.7C334.257 232.042 330.726 228.014 335.869 211.674C339.246 200.98 333.866 194.171 325.583 202.418C312.026 215.893 311.445 239.552 313.602 247.811L337.504 249.7Z" fill="#EB9481"/>
<path d="M331.057 301.129C331.057 301.129 340.371 277.447 338.771 258.35C337.657 245.113 332.04 216.57 296.407 199.339C287.958 195.251 273.027 195.442 284.415 207.146C292.496 215.465 300.14 218.281 303.967 223.973C303.967 223.973 285.007 226.468 281.239 235.119C277.966 242.684 275.23 250.471 273.05 258.422C274.41 259.157 275.815 259.804 277.257 260.359C277.257 260.359 273.998 268.57 279.414 280.881L331.057 301.129Z" fill="#EB9481"/>
<path d="M335.702 245.825C330.713 240.977 319.965 230.888 308.304 225.695C295.364 219.932 268.867 212.327 264.72 221.952C261.686 229.011 271.545 232.813 271.545 232.813C271.545 232.813 259.932 231.981 258.581 238.957C257.396 245.314 265.146 247.798 265.146 247.798C265.146 247.798 258.036 248.511 258.036 254.868C258.036 262.509 272.955 259.764 279.615 267.524C281.085 269.259 335.702 245.825 335.702 245.825Z" fill="#EB9481"/>
<path d="M304.513 240.429C299.074 236.639 284.522 231.22 271.783 232.634C271.486 232.634 271.356 232.896 271.629 232.919C282.841 234.122 293.867 236.684 304.465 240.548C304.536 240.584 304.572 240.465 304.513 240.429Z" fill="#023A59"/>
<path d="M298.28 253.372C293.256 250.58 278.016 245.672 265.1 247.537C264.815 247.537 264.697 247.823 264.969 247.846C276.207 248.463 287.338 250.356 298.15 253.491C298.165 253.508 298.187 253.519 298.211 253.52C298.234 253.521 298.257 253.513 298.274 253.497C298.291 253.481 298.302 253.459 298.303 253.436C298.304 253.412 298.296 253.389 298.28 253.372Z" fill="#023A59"/>
<path d="M218.243 284.814L211.773 292.692L210.434 294.332L184.518 325.727C184.518 325.727 161.066 287.321 156.326 265.48C153.494 252.409 155.532 244.625 161.232 243.211C161.657 243.112 162.089 243.048 162.524 243.021C166.209 242.7 171.163 244.649 177.088 249.034C193.773 261.392 218.243 284.814 218.243 284.814Z" fill="#46B2C8"/>
<path d="M216.797 283.517C216.199 285.486 215.466 287.412 214.605 289.281L218.16 285.003C218.169 284.952 218.169 284.899 218.16 284.848C218.053 284.634 217.567 284.171 216.797 283.517ZM176.993 249.056C174.69 250.525 172.58 252.277 170.712 254.273C165.035 260.23 161.862 268.148 161.848 276.387C161.866 278.6 162.008 280.81 162.275 283.006C162.859 284.361 163.452 285.716 164.052 287.07C163.946 286.191 163.827 285.324 163.709 284.432C162.882 279.688 162.818 274.842 163.519 270.078C164.268 266.321 165.693 262.733 167.726 259.49C170.23 255.437 173.567 251.965 177.514 249.306C177.36 249.211 177.23 249.104 177.087 248.997L176.993 249.056Z" fill="white"/>
<path d="M179.482 312.667C180.88 309.364 195.278 289.531 207.27 276.935C207.306 276.894 207.357 276.869 207.412 276.866C207.466 276.862 207.52 276.881 207.561 276.917C207.601 276.953 207.626 277.004 207.63 277.059C207.633 277.113 207.614 277.167 207.578 277.208C206.393 278.753 182.693 310.611 179.896 313.024C179.671 313.226 179.387 312.905 179.482 312.667Z" fill="#023A59"/>
<path opacity="0.05" d="M201.109 305.656L184.518 325.715C184.518 325.715 161.067 287.32 156.327 265.479C153.056 250.412 156.244 242.403 164.03 243.009L201.109 305.656Z" fill="black"/>
<path d="M205.848 423.963C202.53 427.528 62.2363 442.56 61.4305 441.586C59.2856 438.96 72.1904 296.779 129.664 244.696C139.795 235.522 157.689 238.136 165.984 242.854C170.12 245.23 177.325 264.861 184.376 287.807C189.708 305.335 207.886 421.658 205.848 423.963Z" fill="#46B2C8"/>
<path d="M205.849 423.964C205.114 424.76 197.553 426.138 186.26 427.778L184.98 427.956C179.269 428.776 172.68 429.656 165.57 430.547L164.029 430.749C143.73 433.304 119.52 436.037 99.7069 438.128L99.067 438.188C77.7368 440.446 61.7036 441.919 61.431 441.586C61.1584 441.254 61.1585 435.324 62.0946 425.984C62.0946 425.592 62.1776 425.176 62.2131 424.796C64.4528 403.204 70.6623 363.978 83.2945 326.036C83.4959 325.418 83.7092 324.847 83.9107 324.194C87.6907 312.882 92.1505 301.811 97.2658 291.04C97.4199 290.719 97.5621 290.41 97.728 290.089C102.735 279.523 108.769 269.477 115.74 260.097C115.977 259.788 116.202 259.491 116.451 259.205C120.413 253.989 124.835 249.141 129.664 244.72C131.018 243.509 132.519 242.475 134.132 241.642C134.499 241.452 134.878 241.274 135.257 241.107C140.31 238.98 145.816 238.163 151.267 238.731L152.618 238.873C157.291 239.332 161.83 240.696 165.985 242.89C167.608 243.829 169.718 247.417 172.099 252.872C172.218 253.109 172.325 253.371 172.431 253.632C175.986 261.95 180.24 274.356 184.376 287.844C185.834 292.597 188.263 304.717 190.953 319.833L191.131 320.855C192.067 326.071 193.027 331.656 193.987 337.408C194.129 338.228 194.271 339.036 194.401 339.856C196.357 351.596 198.312 363.931 200.054 375.433C200.113 375.897 200.184 376.372 200.267 376.824C201.737 386.663 203.04 395.837 204.047 403.43C204.118 404.036 204.19 404.618 204.272 405.212C205.612 416.121 206.299 423.405 205.849 423.964Z" fill="#46B2C8"/>
<path d="M160.201 410.18C157.811 406.829 154.767 403.999 151.254 401.861C147.482 399.662 143.321 398.214 139.001 397.595C134.475 396.811 129.723 396.407 125.48 394.435C121.428 392.593 118.584 389.301 115.751 385.986C115.005 385.118 114.235 384.251 113.453 383.419C114.341 382.813 115.242 382.231 116.166 381.625C121.487 378.345 127.365 375.873 132.282 371.976C136.733 368.516 139.849 363.614 141.099 358.108C142.294 352.682 141.882 347.023 139.914 341.828C137.824 336.586 134.38 331.997 129.936 328.531C125.38 325.033 120.171 322.486 114.616 321.041C109.062 319.596 103.275 319.282 97.597 320.118C92.8467 320.753 88.22 322.108 83.8746 324.134C83.6731 324.752 83.4598 325.323 83.2584 325.976C85.3648 324.913 87.5521 324.019 89.7997 323.303C100.641 319.731 112.447 320.563 122.684 325.62C127.621 328.082 131.893 331.702 135.138 336.172C138.26 340.593 140.02 345.837 140.198 351.252C140.445 356.603 138.916 361.885 135.849 366.272C132.294 371.108 126.879 374.031 121.736 376.824C118.56 378.559 115.479 380.389 112.481 382.421C110.747 380.618 108.667 379.187 106.366 378.214C102.543 376.815 98.3552 376.79 94.516 378.143C86.1617 380.959 81.1965 389.075 80.2366 397.595C79.7685 402.347 80.318 407.144 81.8482 411.665C78.3655 415.244 74.4711 418.395 70.2469 421.053C67.7108 422.624 64.9876 423.87 62.1415 424.76C62.1415 425.164 62.0585 425.58 62.0229 425.948C62.5325 425.806 63.0421 425.651 63.5398 425.473C70.8039 423.013 76.8475 418.284 82.3104 412.972C83.8313 417.096 85.8194 421.031 88.2354 424.701C91.3634 429.541 94.9767 434.049 99.0191 438.152L99.659 438.093C97.322 435.619 95.1338 433.008 93.1058 430.274C88.8577 424.807 85.4872 418.709 83.1162 412.2C85.1426 410.18 87.0978 408.076 89.0412 405.997C92.7859 401.909 96.4713 397.679 100.465 393.864C104.188 390.275 108.203 387.004 112.469 384.084C115.017 386.806 117.209 389.883 119.982 392.403C123.254 395.128 127.187 396.936 131.382 397.643C135.731 398.558 140.21 398.926 144.488 400.245C148.297 401.451 151.796 403.479 154.738 406.187C157.704 408.835 160.081 412.08 161.715 415.709C163.348 419.339 164.201 423.273 164.218 427.255C164.211 428.429 164.12 429.6 163.946 430.761L165.486 430.559C166.339 423.341 164.452 416.066 160.201 410.18ZM105.94 387.233C101.448 390.943 97.2375 394.983 93.3428 399.318C89.7878 403.145 86.3631 407.149 82.6777 410.893C82.0282 408.78 81.5759 406.612 81.3268 404.416C80.4025 396.098 82.9266 386.592 90.0604 381.625C93.319 379.324 97.2406 378.159 101.223 378.309C105.126 378.58 108.787 380.305 111.485 383.146C109.601 384.441 107.741 385.784 105.94 387.233ZM199.994 375.35C195.894 378.642 191.995 382.231 187.409 384.857C180.809 388.636 171.731 390.644 165.723 384.643C163.221 382.206 161.712 378.922 161.493 375.431C161.274 371.94 162.36 368.493 164.538 365.761C166.908 362.433 169.835 359.641 172.134 356.254C174.019 353.422 175.664 350.437 177.052 347.33C179.996 348.216 183.149 348.104 186.023 347.009C189.529 345.596 192.453 343.032 194.318 339.737C194.187 338.917 194.045 338.109 193.903 337.289C192.974 339.114 191.775 340.789 190.348 342.256C189.031 343.661 187.418 344.754 185.626 345.455C183.834 346.156 181.909 346.448 179.991 346.308C179.215 346.229 178.446 346.09 177.692 345.892C177.87 345.524 178.036 345.144 178.202 344.704C181.531 337.075 184.316 329.006 189.554 322.399C190.019 321.805 190.513 321.233 191.035 320.688L190.858 319.666C185.928 324.8 182.752 331.478 179.944 337.931C178.842 340.462 177.763 343.005 176.59 345.524C173.959 344.584 171.577 343.056 169.622 341.056C163.187 334.485 162.702 324.336 163.365 315.686C163.792 310.41 164.55 305.157 164.811 299.881C164.867 294.671 164.47 289.467 163.626 284.326C162.8 279.582 162.736 274.736 163.436 269.971C164.185 266.215 165.611 262.627 167.643 259.384C168.954 257.227 170.513 255.233 172.288 253.442C172.182 253.181 172.075 252.919 171.957 252.682C171.506 253.109 171.068 253.549 170.629 254.013C164.92 260.048 161.772 268.07 161.848 276.388C161.848 281.807 162.927 287.142 163.342 292.537C163.624 298.095 163.358 303.668 162.548 309.174C161.446 318.787 160.462 329.375 165.463 338.121C167.823 342.235 171.54 345.395 175.974 347.057C175.417 348.245 174.848 349.433 174.232 350.527C173.142 352.556 171.923 354.513 170.582 356.385C169.314 358.12 167.892 359.736 166.494 361.364C163.922 364.37 161.303 367.65 160.569 371.619C159.938 375.028 160.463 378.55 162.062 381.625C163.605 384.742 166.193 387.216 169.373 388.612C173.223 390.1 177.466 390.213 181.389 388.933C188.807 386.758 194.424 381.518 200.267 376.788C200.124 376.337 200.053 375.861 199.994 375.398V375.35ZM204.213 405.129C200.48 402.158 196.498 399.188 191.616 398.796C189.229 398.521 186.824 399.115 184.838 400.471C183.022 401.846 181.67 403.745 180.963 405.914C179.346 410.69 179.536 415.896 181.496 420.542C182.627 423.239 184.233 425.71 186.236 427.838L184.956 428.016C183.626 426.572 182.468 424.977 181.508 423.263C180.147 420.817 179.244 418.143 178.842 415.372C178.107 410.56 178.842 405.141 181.994 401.279C185.418 397.096 191 396.669 195.799 398.427C198.789 399.639 201.566 401.324 204.023 403.418C204.059 404 204.13 404.595 204.213 405.177V405.129ZM151.337 240.668C151.764 240.074 152.155 239.48 152.522 238.838L151.171 238.695C148.422 242.927 145.153 246.795 141.443 250.21L140.708 250.911C139.961 248.285 138.788 245.8 137.236 243.555C136.61 242.678 135.917 241.852 135.162 241.084C134.783 241.25 134.404 241.428 134.036 241.619C136.52 244.151 138.361 247.244 139.404 250.638C139.523 251.03 139.629 251.422 139.736 251.826C136.526 255.017 132.769 257.601 128.644 259.455C124.758 261.035 120.017 261.356 116.356 259.194C116.107 259.479 115.882 259.776 115.645 260.085C118.675 261.829 122.243 262.383 125.658 261.641C131.097 260.608 135.743 257.007 139.807 253.43L140.08 253.193C141.786 260.536 141.146 268.284 142.296 275.77C143.611 284.291 147.688 292.906 145.59 301.628C144.9 305.047 143.044 308.119 140.34 310.314C138.713 311.43 136.84 312.136 134.883 312.371C132.925 312.607 130.94 312.366 129.095 311.669C120.705 308.972 115.811 300.974 108.867 296.055C105.306 293.742 101.547 291.753 97.6326 290.113C97.4667 290.434 97.3245 290.743 97.1704 291.064C99.5405 292.193 101.91 293.25 104.067 294.451C105.764 295.348 107.389 296.377 108.926 297.528C110.722 298.944 112.432 300.468 114.045 302.091C117.256 305.228 120.409 308.568 124.319 310.861C127.874 312.941 132.128 314.26 136.252 313.463C138.021 313.071 139.687 312.307 141.139 311.222C142.592 310.136 143.798 308.753 144.678 307.165C146.483 303.954 147.414 300.323 147.379 296.637C147.379 291.884 146.088 287.131 144.938 282.532C144.289 280.086 143.771 277.607 143.386 275.105C143.078 272.895 142.9 270.684 142.77 268.462C142.638 264.061 142.274 259.67 141.68 255.308C141.514 254.298 141.312 253.3 141.075 252.301C144.918 248.82 148.36 244.918 151.337 240.668Z" fill="white"/>
<path d="M116.013 264.505C92.9172 312.715 62.0002 432.52 57.4616 450.13C54.3687 462.085 116.617 474.193 118.265 465.887C120.161 456.381 143.968 316.161 141.598 265.658C140.306 238.018 124 247.869 116.013 264.505Z" fill="#EB9481"/>
<path d="M119.034 460.362C118.3 469.441 113.109 487.907 108.749 490.913C104.388 493.92 80.4623 494.585 68.4581 495.227C56.4539 495.868 53.8706 492.66 53.8469 488.465C53.8232 484.271 79.0521 482.179 79.0521 482.179C79.0521 482.179 45.8717 493.646 37.47 495.666C29.0683 497.687 9.81179 503.664 6.65966 496.772C5.14284 493.658 10.3214 490.165 10.3214 490.165C10.3214 490.165 2.25141 492.993 0.734596 488.976C-0.995523 484.401 5.3917 481.502 5.3917 481.502C5.3917 481.502 0.31984 482.809 0.0117369 479.018C-0.699271 470.569 31.1302 464.759 31.1302 464.759C31.1302 464.759 7.21662 478.032 6.06715 471.164C4.47924 461.657 54.2142 448.515 59.2268 444.07C62.8701 440.687 66.2494 437.028 69.335 433.126L119.034 460.362Z" fill="#EB9481"/>
<path d="M54.1665 490.556C54.0519 489.969 54.0804 489.364 54.2496 488.791C54.4188 488.217 54.7236 487.694 55.1382 487.264C55.9612 486.425 56.9185 485.73 57.9704 485.209C60.1412 484.134 62.4063 483.263 64.7368 482.606C69.4176 481.145 74.2169 480.039 78.957 478.53C73.9506 478.714 68.9883 479.54 64.1917 480.99C61.7438 481.688 59.406 482.728 57.2475 484.08C56.1313 484.773 55.1709 485.692 54.4272 486.777C54.0637 487.331 53.8488 487.97 53.8031 488.632C53.7575 489.294 53.8826 489.957 54.1665 490.556Z" fill="#023A59"/>
<path d="M10.3213 490.165C13.746 489.131 17.1114 487.967 20.465 486.802C23.8186 485.638 27.1603 484.425 30.5021 483.237L40.4917 479.506C43.8216 478.318 47.1396 477.034 50.5051 475.834C46.9791 476.413 43.4954 477.227 40.077 478.27C36.6404 479.244 33.275 480.433 29.9214 481.645C26.5678 482.857 23.2616 484.188 20.0028 485.626C16.7441 487.063 13.4853 488.478 10.3213 490.165Z" fill="#023A59"/>
<path d="M41.9256 467.788C38.6702 468.174 35.4466 468.794 32.2795 469.642C29.1011 470.461 25.9682 471.448 22.8942 472.601C19.8156 473.738 16.8047 475.051 13.8763 476.534C10.9338 477.985 8.0984 479.645 5.3916 481.501C8.43709 480.313 11.3878 478.911 14.4096 477.722C17.4313 476.534 20.4413 475.346 23.4868 474.157C26.5322 472.969 29.5896 471.935 32.6469 470.854C35.7042 469.773 38.8208 468.81 41.9256 467.788Z" fill="#023A59"/>
<path d="M36.5461 459.981C31.2902 460.667 26.1468 462.041 21.2476 464.069C16.3058 466 11.6399 468.577 7.37109 471.734C12.2652 469.69 17.0171 467.563 21.8757 465.65C26.7342 463.736 31.652 461.871 36.5461 459.981Z" fill="#023A59"/>
<path d="M142.794 319.892L87.3115 320.165C87.3115 320.165 102.373 275.449 116.712 256.971C131.05 238.493 142.557 240.929 143.837 262.675C145.116 284.421 142.794 319.892 142.794 319.892Z" fill="#46B2C8"/>
<path d="M143.837 262.676C143.908 263.662 143.955 264.696 143.991 265.73C143.991 266.193 143.991 266.657 144.062 267.132C144.844 288.914 142.806 319.893 142.806 319.893L127.732 319.976H126.227L87.3232 320.19C87.3232 320.19 93.7105 301.177 102.1 282.901C102.385 282.295 102.657 281.713 102.965 281.071C107.243 271.897 112.007 263.044 116.7 256.996C131.05 238.494 142.545 240.942 143.837 262.676Z" fill="#46B2C8"/>
<path d="M97.834 320.118L109.103 320.046C105.358 319.607 101.573 319.63 97.834 320.118ZM143.421 275.057C143.113 272.847 142.936 270.637 142.805 268.414C142.673 264.013 142.309 259.622 141.715 255.26C141.549 254.25 141.348 253.252 141.111 252.253C141.324 252.04 141.549 251.849 141.774 251.624C141.608 251.196 141.442 250.792 141.265 250.435C141.099 250.614 140.909 250.768 140.743 250.946C140.423 249.804 140.027 248.685 139.558 247.595C138.912 246.749 138.107 246.039 137.188 245.504C138.183 247.125 138.979 248.861 139.558 250.673C139.677 251.065 139.783 251.457 139.89 251.861C136.68 255.052 132.923 257.636 128.798 259.49C124.592 261.213 119.378 261.439 115.621 258.635C115.396 258.944 115.183 259.241 114.969 259.562C116.536 260.639 118.307 261.383 120.172 261.747C122.037 262.11 123.957 262.087 125.812 261.677C131.251 260.643 135.897 257.042 139.961 253.466L140.234 253.228C141.94 260.572 141.3 268.319 142.45 275.806C142.888 278.586 143.635 281.391 144.322 284.195C144.322 282.615 144.322 281.034 144.322 279.442C143.907 277.945 143.623 276.507 143.421 275.057ZM140.376 310.255C138.748 311.37 136.876 312.076 134.918 312.312C132.961 312.548 130.975 312.307 129.13 311.609C120.74 308.912 115.846 300.915 108.902 295.995C105.679 293.877 102.272 292.056 98.7227 290.553C98.5687 290.873 98.4383 291.206 98.2961 291.539C100.263 292.478 102.242 293.393 104.103 294.403C105.8 295.3 107.424 296.329 108.961 297.48C110.758 298.896 112.468 300.42 114.081 302.043C117.292 305.181 120.444 308.52 124.355 310.813C127.91 312.893 132.164 314.212 136.288 313.416C139.099 312.818 141.614 311.255 143.398 308.995C143.398 308.294 143.469 307.557 143.493 306.797C142.683 308.138 141.625 309.312 140.376 310.255Z" fill="white"/>
<path d="M94.4569 307.284C98.0119 306.191 123.62 304.491 141.774 305.704C141.831 305.704 141.885 305.726 141.925 305.766C141.965 305.806 141.988 305.861 141.988 305.917C141.988 305.974 141.965 306.028 141.925 306.069C141.885 306.109 141.831 306.131 141.774 306.131C139.772 306.25 98.2489 308.508 94.4569 307.866C94.0896 307.854 94.1488 307.415 94.4569 307.284Z" fill="#023A59"/>
<path d="M146.313 286.169C146.313 286.131 146.298 286.095 146.272 286.068C146.245 286.041 146.209 286.026 146.171 286.026C146.133 286.026 146.097 286.041 146.071 286.068C146.044 286.095 146.029 286.131 146.029 286.169C145.522 288.061 145.126 289.981 144.844 291.92C144.761 292.36 144.702 292.811 144.619 293.251C144.465 288.498 144.239 283.875 143.991 279.217C143.991 279.003 143.635 279.003 143.647 279.217C143.789 295.366 143.363 310.113 142.379 319.453L137.568 319.857C137.501 319.871 137.441 319.907 137.397 319.96C137.354 320.013 137.331 320.08 137.331 320.148C137.331 320.217 137.354 320.283 137.397 320.336C137.441 320.389 137.501 320.426 137.568 320.439L143.683 320.653C143.943 320.653 144.962 307.202 144.713 296.602C145.045 295.069 145.401 293.548 145.65 292.003C146.019 290.078 146.241 288.128 146.313 286.169Z" fill="#023A59"/>
<path d="M94.8132 320.177C92.3128 320.332 89.8124 320.462 87.3239 320.534H86.8262L86.9802 320.046C87.9519 316.981 88.9473 313.927 90.0376 310.908C91.1278 307.89 92.2298 304.86 93.4148 301.877C94.5999 298.895 95.7849 295.936 97.1713 292.989C98.5578 290.042 99.885 287.154 101.437 284.338L97.8823 293.321L94.4695 302.305L91.0567 311.301L87.6557 320.355L87.3239 319.88C89.8124 319.892 92.3128 320.023 94.8132 320.177Z" fill="#023A59"/>
<path d="M162.571 267.487C154.134 270.28 138.207 258.385 131.441 248.213C130.979 247.512 131.441 217.947 130.967 212.088C130.86 210.9 168.496 217.816 168.496 217.816C168.496 217.816 165.949 230.436 166.897 240.655C166.991 241.511 170.724 264.79 162.571 267.487Z" fill="#EB9481"/>
<path d="M168.509 217.805C168.509 217.983 168.331 218.72 168.141 219.908C167.81 221.928 167.312 225.196 167.016 228.904C166.65 232.8 166.622 236.72 166.933 240.62C166.945 240.892 166.976 241.162 167.028 241.428V241.559C167.11 242.034 167.182 242.676 167.265 243.437C166.095 243.699 164.906 243.87 163.71 243.948C143.671 245.231 134.807 221.215 132.129 211.923L132.769 211.982C133.752 212.054 135.056 212.208 136.62 212.41L137.805 212.576C140.306 212.933 143.292 213.408 146.396 213.907C147.416 214.074 148.435 214.228 149.477 214.418C151.705 214.81 153.957 215.191 156.042 215.535C156.943 215.714 157.832 215.868 158.661 216.011C159.491 216.153 160.498 216.331 161.339 216.474L162.524 216.688L163.105 216.807L166.222 217.365L167.715 217.627C167.927 217.662 168.137 217.709 168.343 217.769C168.402 217.769 168.426 217.769 168.45 217.769L168.509 217.805Z" fill="#023A59"/>
<path d="M123.762 169.013C120.207 182.239 128.336 219.825 137.899 227.953C151.787 239.729 173.888 240.169 183.735 223.604C193.215 207.55 181.804 158.734 171.174 151.414C155.508 140.636 129.023 149.477 123.762 169.013Z" fill="#EB9481"/>
<path d="M129.201 205.803C135.897 203.641 132.934 186.173 132.934 186.173C132.934 186.173 140.921 181.419 140.814 165.068C140.814 165.068 149.441 179.649 177.348 171.069C177.324 165.847 175.666 160.764 172.608 156.536C176.304 160.954 179.633 165.668 182.562 170.63C182.562 170.63 185.134 145.675 163.401 140.922C154.75 139.033 142.628 141.908 125.658 154.469C125.658 154.469 120.1 143.928 118.216 145.782C116.332 147.636 122.328 157.332 122.328 157.332C122.328 157.332 113.701 156.263 112.635 158.224C111.711 159.911 119.958 160.6 119.958 160.6C119.958 160.6 108.108 166.839 112.848 180.92C117.102 193.802 125.883 206.885 129.201 205.803Z" fill="#023A59"/>
<path d="M122.186 159.934C118.559 160.461 115.249 162.299 112.878 165.102C110.508 167.906 109.242 171.482 109.317 175.156C109.448 179.351 111.261 183.581 113.251 187.218C115.493 191.078 118.222 194.632 121.369 197.793C121.535 197.972 121.795 197.675 121.618 197.496C118.841 194.493 116.542 191.078 114.804 187.372C112.943 183.918 111.647 180.187 110.964 176.321C110.508 172.722 111.416 169.083 113.51 166.124C115.604 163.166 118.731 161.105 122.269 160.35C122.318 160.333 122.36 160.299 122.385 160.254C122.411 160.209 122.42 160.156 122.41 160.106C122.4 160.055 122.371 160.009 122.33 159.978C122.289 159.946 122.238 159.931 122.186 159.934Z" fill="#023A59"/>
<path d="M146.396 139.864C141.735 141.835 137.352 144.412 133.361 147.529C129.425 150.308 125.993 153.744 123.217 157.689C123.087 157.891 123.348 158.128 123.514 157.938C129.735 151.248 137.84 146.186 146.029 142.193C153.649 138.45 163.164 136.751 170.464 142.193C170.474 142.208 170.488 142.221 170.505 142.229C170.521 142.238 170.539 142.243 170.557 142.243C170.576 142.244 170.594 142.24 170.61 142.233C170.627 142.225 170.642 142.213 170.653 142.199C170.665 142.185 170.673 142.168 170.677 142.15C170.68 142.132 170.68 142.113 170.675 142.095C170.671 142.077 170.662 142.061 170.65 142.047C170.638 142.033 170.623 142.022 170.606 142.015C163.875 136.168 154.182 136.703 146.396 139.864Z" fill="#023A59"/>
<path d="M133.29 199.802C133.29 199.802 124.568 187.693 119.07 190.831C113.571 193.968 120.255 211.602 126.796 213.931C127.614 214.288 128.496 214.475 129.389 214.481C130.281 214.487 131.166 214.312 131.989 213.967C132.813 213.622 133.558 213.113 134.181 212.472C134.803 211.831 135.29 211.07 135.612 210.236L133.29 199.802Z" fill="#EB9481"/>
<path d="M121.108 195.833C121.001 195.833 120.989 195.976 121.108 196.011C125.694 197.794 128.159 201.953 129.901 206.361C128.526 204.698 126.666 203.795 124.426 205.446C124.307 205.53 124.426 205.72 124.544 205.684C125.343 205.416 126.204 205.402 127.01 205.645C127.817 205.887 128.528 206.374 129.048 207.039C129.903 208.148 130.641 209.342 131.252 210.604C131.465 211.008 132.2 210.782 132.046 210.307C132.043 210.275 132.043 210.243 132.046 210.211C132.01 204.413 127.365 196.332 121.108 195.833Z" fill="#023A59"/>
<path d="M162.844 190.593C162.844 190.509 162.678 190.747 162.69 190.854C163.223 193.349 163.401 196.308 161.28 197.544C161.267 197.55 161.256 197.559 161.248 197.57C161.241 197.582 161.237 197.596 161.237 197.609C161.237 197.623 161.241 197.637 161.248 197.649C161.256 197.66 161.267 197.669 161.28 197.675C164.017 196.772 163.744 192.886 162.844 190.593Z" fill="#023A59"/>
<path d="M160.142 188.37C156.066 188.786 157.18 196.95 160.96 196.569C164.74 196.189 163.567 188.025 160.142 188.37Z" fill="#023A59"/>
<path d="M177.195 187.646C177.195 187.551 177.408 187.741 177.42 187.848C177.692 190.379 178.427 193.243 180.821 193.789C180.892 193.789 180.904 193.932 180.821 193.932C177.977 193.908 177.041 190.094 177.195 187.646Z" fill="#023A59"/>
<path d="M179.091 184.699C183.108 183.831 184.542 191.947 180.821 192.743C177.1 193.54 175.726 185.423 179.091 184.699Z" fill="#023A59"/>
<path d="M156.327 186.077C157.354 185.613 158.354 185.093 159.325 184.52C160.46 184.128 161.431 183.367 162.086 182.358C162.229 182.003 162.252 181.611 162.152 181.241C162.051 180.872 161.832 180.546 161.529 180.314C160.852 179.947 160.09 179.769 159.322 179.796C158.553 179.823 157.806 180.055 157.156 180.468C155.718 181.098 154.565 182.241 153.921 183.677C153.795 184.013 153.768 184.379 153.844 184.73C153.92 185.082 154.096 185.403 154.35 185.657C154.604 185.911 154.926 186.085 155.277 186.16C155.627 186.234 155.992 186.205 156.327 186.077Z" fill="#023A59"/>
<path d="M181.058 180.231C179.934 180.157 178.814 180.022 177.704 179.827C176.505 179.851 175.331 179.48 174.363 178.77C174.102 178.488 173.942 178.127 173.907 177.744C173.873 177.362 173.966 176.978 174.173 176.654C174.676 176.074 175.325 175.639 176.052 175.395C176.779 175.15 177.558 175.105 178.309 175.264C179.882 175.342 181.367 176.012 182.468 177.142C182.708 177.41 182.864 177.743 182.918 178.1C182.972 178.457 182.921 178.821 182.771 179.149C182.622 179.477 182.38 179.754 182.076 179.946C181.771 180.139 181.418 180.238 181.058 180.231Z" fill="#023A59"/>
<path d="M163.318 213.088C164.006 213.599 164.717 214.276 165.688 214.276C166.623 214.131 167.516 213.786 168.307 213.266C168.39 213.266 168.485 213.266 168.438 213.385C168.145 213.93 167.71 214.387 167.181 214.707C166.651 215.027 166.046 215.198 165.428 215.203C164.895 215.138 164.393 214.916 163.986 214.564C163.579 214.213 163.284 213.749 163.141 213.23C163.034 213.088 163.188 213.016 163.318 213.088Z" fill="#023A59"/>
<path d="M164.929 205.149C165.707 206.062 166.664 206.803 167.741 207.327C168.817 207.85 169.99 208.145 171.186 208.191C172.229 208.245 173.275 208.149 174.291 207.906C174.488 207.873 174.682 207.825 174.872 207.764L175.417 207.597C175.547 207.553 175.659 207.468 175.736 207.354C175.813 207.241 175.851 207.105 175.843 206.967L175.784 206.706V206.48C175.559 204.531 174.966 201.596 174.966 201.596C175.725 201.858 179.564 202.987 179.375 201.977C177.716 193.658 175.879 184.342 172.478 176.38C172.461 176.319 172.42 176.267 172.364 176.236C172.309 176.205 172.243 176.197 172.182 176.214C172.12 176.231 172.068 176.272 172.037 176.328C172.006 176.384 171.998 176.45 172.016 176.511C173.296 184.604 175.974 192.411 177.384 200.515C176.018 200.086 174.597 199.857 173.165 199.838C172.905 199.956 174.409 205.494 174.445 206.373C174.448 206.405 174.448 206.437 174.445 206.468C171.245 207.336 168.65 206.682 165.178 204.924C164.929 204.769 164.752 204.971 164.929 205.149Z" fill="#023A59"/>
<path d="M173.012 207.074C172.139 208.611 170.886 209.896 169.374 210.806C168.535 211.279 167.569 211.474 166.613 211.364C164.527 211.115 164.243 209.273 164.373 207.633C164.461 206.762 164.652 205.904 164.942 205.078C167.351 206.59 170.178 207.289 173.012 207.074Z" fill="#023A59"/>
<path d="M169.374 210.806C168.535 211.279 167.569 211.474 166.613 211.364C164.527 211.115 164.243 209.273 164.373 207.633C166.565 207.562 168.9 208.726 169.374 210.806Z" fill="#FF9ABB"/>
</svg>
