<svg width="500" height="500" viewBox="0 0 500 500" fill="none" xmlns="http://www.w3.org/2000/svg">
<path d="M134.71 323.871H58.29V424.671H134.71V323.871Z" fill="#E0E0E0"/>
<path d="M134.71 323.871H98.8799V424.671H134.71V323.871Z" fill="#F0F0F0"/>
<path d="M81.1801 337.521H74.3101V354.211H81.1801V337.521Z" fill="white"/>
<path d="M81.1801 402.851H74.3101V419.541H81.1801V402.851Z" fill="white"/>
<path d="M98.88 360.761C98.88 360.911 89.79 361.021 78.59 361.021C67.39 361.021 58.29 360.911 58.29 360.761C58.29 360.611 67.37 360.501 78.59 360.501C89.81 360.501 98.88 360.621 98.88 360.761Z" fill="white"/>
<path d="M81.1801 370.431H74.3101V387.121H81.1801V370.431Z" fill="white"/>
<path d="M98.88 393.681C98.88 393.821 89.79 393.941 78.59 393.941C67.39 393.941 58.29 393.821 58.29 393.681C58.29 393.541 67.37 393.421 78.59 393.421C89.81 393.421 98.88 393.541 98.88 393.681Z" fill="white"/>
<path d="M113.36 337.521H106.49V354.211H113.36V337.521Z" fill="#E0E0E0"/>
<path d="M128.26 337.521H121.39V354.211H128.26V337.521Z" fill="#E0E0E0"/>
<path d="M113.36 369.2H106.49V385.89H113.36V369.2Z" fill="#E0E0E0"/>
<path d="M128.26 369.2H121.39V385.89H128.26V369.2Z" fill="#E0E0E0"/>
<path d="M113.36 400.87H106.49V417.56H113.36V400.87Z" fill="#E0E0E0"/>
<path d="M128.26 400.87H121.39V417.56H128.26V400.87Z" fill="#E0E0E0"/>
<path d="M140.46 320.36H52.5498V323.99H140.46V320.36Z" fill="#E0E0E0"/>
<path d="M135.24 324.34C135.24 324.48 118.16 324.6 97.1 324.6C76.04 324.6 59 324.48 59 324.34C59 324.2 76.08 324.08 97.15 324.08C118.22 324.08 135.24 324.2 135.24 324.34Z" fill="white"/>
<path d="M430.83 351.57H375.86V424.07H430.83V351.57Z" fill="#E0E0E0"/>
<path d="M430.82 351.57H405.05V424.07H430.82V351.57Z" fill="#F0F0F0"/>
<path d="M392.32 361.381H387.38V373.391H392.32V361.381Z" fill="white"/>
<path d="M392.32 408.381H387.38V420.391H392.32V408.381Z" fill="white"/>
<path d="M405.05 378.101C405.05 378.211 398.52 378.291 390.46 378.291C382.4 378.291 375.86 378.211 375.86 378.101C375.86 377.991 382.39 377.921 390.46 377.921C398.53 377.921 405.05 378.001 405.05 378.101Z" fill="white"/>
<path d="M392.32 385.061H387.38V397.071H392.32V385.061Z" fill="white"/>
<path d="M405.05 401.781C405.05 401.881 398.52 401.971 390.46 401.971C382.4 401.971 375.86 401.881 375.86 401.781C375.86 401.681 382.39 401.591 390.46 401.591C398.53 401.591 405.05 401.671 405.05 401.781Z" fill="white"/>
<path d="M415.46 361.381H410.52V373.391H415.46V361.381Z" fill="#E0E0E0"/>
<path d="M426.19 361.381H421.25V373.391H426.19V361.381Z" fill="#E0E0E0"/>
<path d="M415.46 384.171H410.52V396.181H415.46V384.171Z" fill="#E0E0E0"/>
<path d="M426.19 384.171H421.25V396.181H426.19V384.171Z" fill="#E0E0E0"/>
<path d="M415.46 406.95H410.52V418.96H415.46V406.95Z" fill="#E0E0E0"/>
<path d="M426.19 406.95H421.25V418.96H426.19V406.95Z" fill="#E0E0E0"/>
<path d="M434.96 349.041H371.73V351.651H434.96V349.041Z" fill="#E0E0E0"/>
<path d="M431.21 351.901C431.21 352.011 418.92 352.091 403.77 352.091C388.62 352.091 376.33 352.011 376.33 351.901C376.33 351.791 388.61 351.721 403.77 351.721C418.93 351.721 431.21 351.801 431.21 351.901Z" fill="white"/>
<path d="M45.8198 153.891H102.11C102.11 153.891 102.11 141.001 95.4698 141.001C93.087 140.923 90.7517 141.679 88.8674 143.14C86.9832 144.601 85.6683 146.674 85.1498 149.001C85.1498 149.001 85.1498 124.951 73.0498 128.481C61.5898 131.821 60.2998 147.221 60.2998 147.221C60.2998 147.221 58.2398 139.471 52.0298 143.841C45.8198 148.211 45.8198 153.891 45.8198 153.891Z" fill="#E0E0E0"/>
<path d="M343.17 46.4206H379.67C379.67 46.4206 379.67 38.0606 375.36 38.0606C373.816 38.0094 372.303 38.499 371.081 39.4447C369.86 40.3905 369.007 41.733 368.67 43.2406C368.67 43.2406 368.67 27.6506 360.82 29.9406C353.4 32.1006 352.56 42.0806 352.56 42.0806C352.56 42.0806 351.22 37.0806 347.2 39.8906C343.18 42.7006 343.17 46.4206 343.17 46.4206Z" fill="#EBEBEB"/>
<path d="M436.422 165.416H472.922C472.922 165.416 472.922 157.066 468.612 157.066C467.068 157.015 465.555 157.504 464.333 158.45C463.112 159.396 462.259 160.738 461.922 162.246C461.922 162.246 461.922 146.656 454.072 148.936C446.652 151.106 445.812 161.086 445.812 161.086C445.812 161.086 444.472 156.086 440.452 158.896C436.432 161.706 436.422 165.416 436.422 165.416Z" fill="#E0E0E0"/>
<path d="M457.73 424.67C457.73 424.81 364.73 424.93 250.01 424.93C135.29 424.93 42.27 424.81 42.27 424.67C42.27 424.53 135.27 424.41 250.01 424.41C364.75 424.41 457.73 424.52 457.73 424.67Z" fill="#023A59"/>
<path d="M388.5 55H246.15V64.5H379V396.5H246.15V406H388.5V55Z" fill="#455A64"/>
<path d="M246.15 64.5V74V387V396.5H379V64.5H246.15Z" fill="white"/>
<path d="M106 396.5V64.5H246.15V55H96.5V406H246.15V396.5H106Z" fill="#023A59"/>
<path d="M106 64.5V396.5H246.15V387V74V64.5H106Z" fill="white"/>
<path d="M347.48 74.69C350.01 75.53 352.48 76.46 354.94 77.43V64.5H275.09H276.47C297.49 65.25 324.56 67 347.48 74.69Z" fill="white"/>
<path d="M368.06 64.5V83.17C371.69 84.89 375.32 86.7 379 88.54V69.08C375.59 67.5 372.1 65.96 368.51 64.5H368.06Z" fill="white"/>
<path d="M146.94 352.65C153.986 350.186 160.75 346.981 167.12 343.09L124.12 312.09C117.62 315.16 110.81 318.35 106.04 321.74V347.93C116.28 355.48 133.09 357.39 146.94 352.65Z" fill="white"/>
<path d="M221.15 274.63C220.11 268.345 220.043 261.937 220.95 255.63L200 250.63C190 248.24 179.2 252.31 176.83 259.35C171.02 276.65 155.59 293.59 137.11 305.35C134.447 306.989 131.696 308.481 128.87 309.82L149.32 324.56L222.45 280.14C221.91 278.331 221.476 276.491 221.15 274.63Z" fill="white"/>
<path d="M236.74 303.89C231.189 298.363 226.83 291.757 223.93 284.48L153.32 327.38L171.42 340.43C178.26 336.08 184.74 331.37 191.58 326.89C205.794 317.676 220.929 309.968 236.74 303.89Z" fill="white"/>
<path d="M308.49 276.58L226.59 256.93C225.84 262.657 225.948 268.464 226.91 274.16C228.877 284.766 234.099 294.497 241.85 302C263.136 294.249 285.197 288.821 307.65 285.81C314.66 284.81 315.27 278.13 308.49 276.58Z" fill="white"/>
<path d="M142.3 244.78L145.39 226.45L145.7 224.76C145.21 223.76 144.7 222.83 144.25 221.87C139.79 223.06 134.84 222.94 130.13 223.5C125.42 224.06 120.39 225.65 118.81 228.73C117.81 230.62 118.36 232.73 118.9 234.67C119.72 237.71 120.543 240.747 121.37 243.78C122.05 246.32 122.79 248.94 124.89 251.08C126.158 252.291 127.685 253.197 129.355 253.731C131.025 254.265 132.795 254.411 134.53 254.16C135.735 253.973 136.889 253.541 137.921 252.891C138.953 252.241 139.841 251.387 140.53 250.38C141.5 248.656 142.103 246.749 142.3 244.78Z" fill="white"/>
<path d="M317.08 207.48L368.51 222.76L379 215.43V194.18L344.64 183.98L317.08 207.48Z" fill="#E6E6E6"/>
<path d="M350.65 178.86L379 187.28V165.39L367.97 164.09L350.65 178.86Z" fill="#E6E6E6"/>
<path d="M368.06 83.17V64.5H354.94V144.5L187.27 111.73L196.36 64.5H183.48L174.66 110.29L106 107.46V116.19L173 119L156.28 205.8L110.46 211.49L106 195.56V224.41C106.417 232.246 107.644 240.017 109.66 247.6C110.511 251.543 112.181 255.263 114.56 258.52C119.17 264.35 127.93 268.52 137.49 269.52C134.093 274.38 129.933 278.658 125.17 282.19C119.63 286.31 113.06 289.67 106 292.86V303.21L109.58 301.67L124.08 312.12L167.08 343.12L180.08 352.47C167.47 359.47 154.97 365.03 141.8 366.53C138.67 366.88 134.94 367.07 130.95 367.27C122.569 367.536 114.217 368.375 105.95 369.78V378.78C106.61 378.63 107.26 378.49 107.95 378.36C115.75 376.979 123.642 376.173 131.56 375.95C135.81 375.73 139.83 375.53 143.56 375.11C166.56 372.49 185.85 360.74 206.24 348.3C227.48 335.3 251.56 320.63 282.73 316.21C315.81 311.51 352.68 319.6 378.96 337.33V325.43C363.378 316.969 346.47 311.221 328.96 308.43C338.47 301.87 345.23 293.43 347.8 284.38C347.95 283.85 348.08 283.32 348.21 282.79C348.645 280.894 348.866 278.955 348.87 277.01C348.871 276.007 348.811 275.005 348.69 274.01L379 265V255.49L346.12 265.3C344.203 261.434 341.605 257.945 338.45 255L379 236V231.2L334.8 251.9C327.771 246.663 319.726 242.951 311.18 241L273 231.71L364 155.11L379 156.66V147.85L368.06 146.72V83.17ZM185.59 120.47L232.92 129.73L230.34 221.34L169 206.43L185.59 120.47ZM119.68 256.64C117.29 253.64 116.2 250.02 115.37 246.89C113.048 238.158 111.802 229.175 111.66 220.14L154.54 214.82L151.84 228.82C149.22 242.42 146.29 254.95 139.95 265.67C131.55 265.2 123.68 261.72 119.68 256.64ZM128.87 309.76L114.51 299.41C121.574 296.305 128.299 292.481 134.58 288C154.81 273 160.1 252.81 164.5 230L167.33 215.29L228.26 230.11C224.734 238.259 222.276 246.83 220.95 255.61C220.043 261.916 220.111 268.324 221.15 274.61C221.478 276.45 221.912 278.27 222.45 280.06L149.32 324.5L128.87 309.76ZM198.06 341.76C193.51 344.54 189.06 347.27 184.55 349.87L171.42 340.4L153.32 327.35L223.93 284.45C226.83 291.727 231.19 298.332 236.74 303.86C241.005 308.132 245.825 311.812 251.07 314.8C230.61 321.93 213.62 332.29 198.06 341.79V341.76ZM306.89 249.2C326.73 254.02 338.82 267.58 335.63 281.42C335.53 281.85 335.42 282.28 335.3 282.7C332.59 292.19 324.21 300.94 312.63 306.52C293.817 305.2 274.922 307.374 256.9 312.93C251.378 310.034 246.322 306.326 241.9 301.93C234.156 294.438 228.935 284.722 226.96 274.13C225.998 268.434 225.89 262.627 226.64 256.9C227.87 248.109 230.282 239.525 233.81 231.38L306.89 249.2ZM295.89 198.35L260 228.56L236.08 222.74L238.66 130.86L295.88 142.05L295.89 198.35ZM302.45 192.83V143.33L350.16 152.67L302.45 192.83Z" fill="#E0E0E0"/>
<path d="M162.32 126.05L120.98 124.74V170H154.99L162.32 126.05Z" fill="#EBEBEB"/>
<path d="M153.79 178.52H114.43V196.98H153.79V178.52Z" fill="#EBEBEB"/>
<path d="M256.55 114.341L346.2 130.181V83.3809H289.35V104.681H256.55V114.341Z" fill="#EBEBEB"/>
<path d="M234.69 110.83V72.0195H207.11L202.29 104.66L234.69 110.83Z" fill="#EBEBEB"/>
<path d="M276.23 70.5996H247.8V90.4796H276.23V70.5996Z" fill="#E0E0E0"/>
<path d="M293.9 227.24L340.95 241.99L361.56 227.6L311.07 212.61L293.9 227.24Z" fill="#E6E6E6"/>
<path d="M221.57 135.92H195.33V194.14H221.57V135.92Z" fill="#EBEBEB"/>
<path d="M184.4 191.3H177.84V202.66H184.4V191.3Z" fill="#E0E0E0"/>
<path d="M287.16 149.22L247.8 141.04V170.74V175.68H287.16V149.22Z" fill="#EBEBEB"/>
<path d="M252.18 192.72H243.43V209.76H252.18V192.72Z" fill="#EBEBEB"/>
<path d="M265.3 192.72H256.55V209.76H265.3V192.72Z" fill="#EBEBEB"/>
<path d="M278.42 192.72H269.67V209.76H278.42V192.72Z" fill="#EBEBEB"/>
<path d="M118.8 64.5H106V99.73L118.8 100.19V64.5Z" fill="#E6E6E6"/>
<path d="M164.51 101.73L170.59 64.5H129.73V100.49L164.51 101.73Z" fill="#E6E6E6"/>
<path d="M379 317.25V299.66L370.89 313.49L379 317.25Z" fill="#F0F0F0"/>
<path d="M182.78 350C203.5 340 217 319.9 237.11 308.9C242.247 305.922 247.968 304.093 253.88 303.54C259.13 303.18 264.17 303.62 269.31 302.15C276.5 300.15 280.87 295.48 284.03 288.78C287.92 280.52 290.85 269.67 287.12 260.91C283.56 252.632 277.088 245.946 268.93 242.12C264.47 240.02 259.68 238.77 255.12 236.9C252.12 235.68 248.58 234.35 246.12 232.17C244.26 230.5 245 229.43 246.19 227.25C247.79 224.54 249.616 221.971 251.65 219.57C255.34 214.95 259.76 210.46 262.47 205.14C264.37 201.42 264.71 197.22 264.77 193.14C264.97 179.8 265.47 166.49 265.77 153.14C265.77 151.67 263.58 151.69 263.49 153.14C262.76 165 262.06 176.96 262.31 188.85C262.4 193.19 262.65 197.96 261.18 202.13C259.24 207.64 254.57 212.24 250.95 216.68C248.038 220.019 245.481 223.652 243.32 227.52C242.41 229.3 241.86 230.52 242.95 232.31C245.38 236.31 252.07 238.31 256.2 239.9C261.41 241.9 266.72 243.3 271.58 246.19C276.15 249.004 279.982 252.868 282.76 257.46C286.94 264.08 287.42 270.34 285.64 277.89C283.34 287.66 279.03 297.44 268.76 300.47C263.76 301.95 258.89 301.56 253.81 301.92C249.482 302.283 245.245 303.361 241.27 305.11C218.47 314.84 203.77 337.28 182.27 349.3C181.77 349.58 182.21 350.3 182.71 350.06L182.78 350Z" fill="#023A59"/>
<path d="M196.66 289.41C198.23 275.88 180.82 271.61 174.16 281.55C168.07 290.65 184.74 317.4 184.74 317.4M187.74 294.62C186.672 295.36 185.408 295.767 184.109 295.789C182.809 295.811 181.533 295.447 180.44 294.743C179.348 294.039 178.489 293.028 177.971 291.835C177.454 290.643 177.302 289.325 177.534 288.046C177.766 286.767 178.372 285.586 179.276 284.652C180.179 283.718 181.34 283.073 182.61 282.798C183.88 282.524 185.203 282.632 186.412 283.109C187.62 283.587 188.66 284.412 189.4 285.48C190.387 286.916 190.764 288.684 190.449 290.398C190.134 292.111 189.153 293.63 187.72 294.62H187.74Z" fill="#46B2C8"/>
<path d="M458.695 174.352C454.025 167.492 450.865 164.082 444.155 161.652C441.584 160.73 438.885 160.214 436.155 160.122C429.735 162.122 425.305 162.122 418.875 160.122C415.585 160.532 412.775 158.122 395.975 168.552C389.045 172.852 384.285 175.692 376.055 179.932C373.805 180.932 372.215 181.582 371.865 181.372C370.345 180.462 353.775 150.142 353.775 150.142C353.775 150.142 350.085 139.662 348.535 139.732C346.985 139.802 335.985 140.132 335.815 141.852C335.645 143.572 336.325 151.142 337.525 152.172C338.725 153.202 343.055 155.962 343.055 155.962C343.055 155.962 361.435 203.482 368.225 202.802C373.225 202.312 392.345 194.352 402.285 190.122L404.485 189.332L405.795 216.882L405.265 251.602L448.595 249.142L447.895 213.412C448.225 204.512 447.995 201.642 448.895 194.262L461.895 199.202L464.205 184.542C462.637 181.006 460.795 177.599 458.695 174.352Z" fill="#E5BAAB"/>
<path d="M271.656 136.803C272.546 130.372 263.389 126.3 259.473 131.33C253.993 138.377 265.208 153.05 265.208 153.05L265.511 152.533C265.511 152.533 270.965 141.786 271.656 136.803ZM266.795 139.844C266.216 140.272 265.523 140.518 264.804 140.552C264.085 140.586 263.372 140.406 262.755 140.034C262.138 139.663 261.645 139.117 261.339 138.466C261.032 137.814 260.926 137.087 261.033 136.375C261.14 135.663 261.456 134.998 261.94 134.466C262.425 133.934 263.057 133.557 263.755 133.383C264.454 133.21 265.189 133.247 265.866 133.491C266.543 133.735 267.133 134.175 267.561 134.754C268.134 135.53 268.376 136.503 268.232 137.457C268.088 138.412 267.571 139.271 266.795 139.844Z" fill="#46B2C8"/>
<path d="M339.215 147.212C339.809 147.465 340.365 147.802 340.865 148.212L342.575 149.432C342.895 149.672 343.225 149.902 343.575 150.182C343.78 150.338 343.952 150.533 344.081 150.756C344.21 150.979 344.293 151.226 344.325 151.482C344.335 151.724 344.27 151.963 344.139 152.167C344.009 152.371 343.819 152.53 343.595 152.622C343.21 152.782 342.781 152.8 342.385 152.672C341.781 152.447 341.199 152.169 340.645 151.842C339.645 151.322 338.935 150.912 338.645 150.712L338.735 150.622C338.785 150.762 338.795 150.832 338.785 150.842C338.775 150.852 338.715 150.842 338.625 150.682L338.515 150.542L338.705 150.592C339.045 150.702 339.795 151.012 340.825 151.482C341.373 151.755 341.938 151.995 342.515 152.202C343.075 152.392 343.855 152.112 343.805 151.512C343.755 150.912 342.865 150.322 342.285 149.812L340.645 148.512C340.117 148.138 339.637 147.701 339.215 147.212Z" fill="#D78776"/>
<path d="M340.935 144.752C341.596 144.889 342.226 145.147 342.795 145.512C343.449 145.862 344.04 146.318 344.545 146.862C344.853 147.188 345.109 147.559 345.305 147.962C345.438 148.189 345.525 148.44 345.561 148.701C345.597 148.962 345.581 149.227 345.515 149.482C345.46 149.624 345.377 149.754 345.271 149.862C345.164 149.97 345.036 150.056 344.895 150.112C344.646 150.208 344.379 150.242 344.115 150.212C343.667 150.15 343.232 150.018 342.825 149.822C342.147 149.528 341.511 149.145 340.935 148.682C339.935 147.892 339.545 147.222 339.595 147.182C339.645 147.142 340.165 147.702 341.155 148.392C341.74 148.786 342.363 149.121 343.015 149.392C343.378 149.552 343.761 149.659 344.155 149.712C344.555 149.712 344.915 149.632 345.025 149.312C345.109 148.929 345.045 148.529 344.845 148.192C344.676 147.827 344.454 147.49 344.185 147.192C343.728 146.666 343.195 146.211 342.605 145.842C342.016 145.529 341.457 145.165 340.935 144.752Z" fill="#D78776"/>
<path d="M348.505 140.252L339.875 142.792C339.476 142.86 339.118 143.078 338.875 143.402C338.555 144.002 339.125 144.712 339.715 145.052C340.998 145.748 342.465 146.031 343.915 145.862C345.354 145.668 346.771 145.333 348.145 144.862" fill="#E5BAAB"/>
<path d="M348.134 144.902C347.9 145.05 347.643 145.162 347.374 145.232C346.664 145.483 345.939 145.693 345.204 145.862C344.097 146.121 342.953 146.182 341.824 146.042C341.15 145.945 340.496 145.743 339.884 145.442C339.535 145.288 339.222 145.063 338.964 144.782C338.808 144.63 338.688 144.446 338.612 144.241C338.536 144.037 338.506 143.819 338.524 143.602C338.578 143.384 338.688 143.184 338.842 143.021C338.996 142.858 339.19 142.738 339.404 142.672C339.764 142.542 340.094 142.462 340.404 142.362L342.284 141.822L345.494 140.942C346.473 140.626 347.476 140.395 348.494 140.252C347.563 140.662 346.6 140.996 345.614 141.252L342.434 142.252L340.554 142.822C339.924 143.032 339.094 143.152 339.034 143.662C339.032 143.8 339.059 143.937 339.112 144.064C339.165 144.192 339.244 144.307 339.344 144.402C339.558 144.634 339.817 144.821 340.104 144.952C340.664 145.237 341.264 145.433 341.884 145.532C342.96 145.69 344.055 145.67 345.124 145.472C346.974 145.162 348.104 144.812 348.134 144.902Z" fill="#D78776"/>
<path d="M463.915 304.292C467.541 304.535 471.162 303.742 474.355 302.006C477.548 300.27 480.181 297.662 481.949 294.486C483.716 291.31 484.544 287.697 484.336 284.068C484.128 280.44 482.893 276.945 480.775 273.992C478.065 270.202 474.075 267.542 470.185 264.992L456.185 255.762L460.455 291.952L463.875 304.312" fill="#FF993C"/>
<path d="M483.795 280.332C483.622 280.691 483.365 281.003 483.045 281.242C482.202 281.941 481.199 282.422 480.125 282.642C477.425 283.282 473.465 282.722 469.785 280.732C466.692 278.977 463.906 276.731 461.535 274.082C460.605 273.082 459.885 272.272 459.395 271.692C459.121 271.407 458.877 271.095 458.665 270.762C458.986 270.992 459.278 271.261 459.535 271.562L461.795 273.822C464.212 276.359 466.984 278.532 470.025 280.272C473.051 282.011 476.563 282.714 480.025 282.272C481.059 282.097 482.041 281.69 482.895 281.082C483.505 280.642 483.765 280.302 483.795 280.332Z" fill="#023A59"/>
<path d="M447.925 214.872L448.925 194.242C448.925 194.242 441.835 188.312 444.155 161.652L440.745 160.652C440.745 160.652 438.645 194.212 421.625 192.742C404.605 191.272 410.625 161.112 410.625 161.112C408.753 161.213 406.971 161.951 405.575 163.202C405.445 163.262 404.825 174.202 404.485 183.512C402.617 186.806 401.683 190.547 401.785 194.332C401.961 197.216 403.07 199.964 404.945 202.162C405.405 208.472 405.865 216.852 405.865 216.852L399.235 234.012L400.825 240.062L449.455 239.522L450.895 233.052L447.925 214.872Z" fill="#455A64"/>
<path d="M440.595 191.722C440.435 192.449 440.118 193.132 439.665 193.722C439.025 194.722 438.405 195.532 438.285 195.462C438.165 195.392 438.574 194.462 439.214 193.462C439.854 192.462 440.475 191.642 440.595 191.722Z" fill="white"/>
<path d="M442.635 209.071C442.525 209.171 441.635 208.391 440.545 207.321C439.847 206.729 439.264 206.014 438.825 205.211C438.935 205.101 439.825 205.891 440.915 206.951C441.615 207.546 442.198 208.265 442.635 209.071Z" fill="white"/>
<path d="M414.535 196.042C413.071 197.401 411.378 198.491 409.535 199.262C411 197.903 412.692 196.813 414.535 196.042Z" fill="white"/>
<path d="M406.875 194.812C406.071 194.644 405.313 194.303 404.655 193.812C403.495 193.142 402.655 192.502 402.655 192.382C403.458 192.551 404.216 192.892 404.875 193.382C406.065 194.052 406.945 194.692 406.875 194.812Z" fill="white"/>
<path d="M407.045 173.981C407.256 174.889 407.303 175.827 407.185 176.751C407.225 177.68 407.096 178.609 406.805 179.491C406.581 178.589 406.533 177.652 406.665 176.731C406.615 175.799 406.744 174.865 407.045 173.981Z" fill="white"/>
<path d="M442.355 177.612C442.485 177.682 442.225 178.452 441.785 179.342C441.345 180.232 440.875 180.902 440.785 180.842C440.695 180.782 440.915 180.002 441.355 179.112C441.795 178.222 442.225 177.552 442.355 177.612Z" fill="white"/>
<path d="M424.584 204.772C424.01 203.369 423.767 201.853 423.874 200.342C424.447 201.745 424.689 203.26 424.584 204.772Z" fill="white"/>
<path d="M435.635 191.192C435.695 191.322 435.235 191.672 434.635 191.962C434.035 192.252 433.445 192.402 433.385 192.272C433.325 192.142 433.785 191.792 434.385 191.492C434.985 191.192 435.575 191.062 435.635 191.192Z" fill="white"/>
<path d="M447.585 198.952C447.635 199.082 447.125 199.372 446.455 199.582C445.785 199.792 445.205 199.862 445.155 199.732C445.105 199.602 445.625 199.302 446.295 199.092C446.965 198.882 447.545 198.812 447.585 198.952Z" fill="white"/>
<path d="M411.415 190.942C411.295 191.012 410.735 190.302 410.165 189.342C409.595 188.382 409.235 187.542 409.355 187.472C409.475 187.402 410.045 188.112 410.615 189.072C411.185 190.032 411.525 190.872 411.415 190.942Z" fill="white"/>
<path d="M412.105 205.842C411.975 205.902 411.725 205.592 411.415 205.262C411.105 204.932 410.825 204.632 410.895 204.502C410.965 204.372 411.425 204.502 411.795 204.912C412.165 205.322 412.245 205.802 412.105 205.842Z" fill="white"/>
<path d="M405.885 229.632C405.789 228.912 405.864 228.178 406.105 227.492C406.375 226.342 406.705 225.442 406.845 225.492C406.94 226.214 406.861 226.947 406.615 227.632C406.355 228.762 406.025 229.662 405.885 229.632Z" fill="white"/>
<path d="M416.324 230.001C416.224 230.091 415.454 229.441 414.614 228.531C413.774 227.621 413.184 226.801 413.294 226.711C413.404 226.621 414.164 227.271 415.004 228.181C415.844 229.091 416.414 229.901 416.324 230.001Z" fill="white"/>
<path d="M411.565 235.572C411.565 235.712 410.675 235.572 409.675 235.182C408.675 234.792 407.915 234.432 407.965 234.292C408.015 234.152 408.855 234.292 409.855 234.692C410.855 235.092 411.615 235.412 411.565 235.572Z" fill="white"/>
<path d="M425.205 228.462C425.131 229.205 424.885 229.921 424.485 230.552C423.955 231.642 423.415 232.472 423.285 232.412C423.366 231.669 423.616 230.954 424.015 230.322C424.545 229.232 425.075 228.412 425.205 228.462Z" fill="white"/>
<path d="M436.925 231.112C436.552 232.109 435.846 232.947 434.925 233.482C434.102 234.146 433.072 234.5 432.015 234.482C432.015 234.332 433.285 233.952 434.635 233.012C435.985 232.072 436.795 231.032 436.925 231.112Z" fill="white"/>
<path d="M446.484 234.412C445.396 233.868 444.387 233.178 443.484 232.362C442.47 231.673 441.558 230.845 440.774 229.902C441.862 230.426 442.872 231.1 443.774 231.902C444.797 232.6 445.711 233.446 446.484 234.412Z" fill="white"/>
<path d="M431.485 217.912C430.825 218.798 430.032 219.577 429.135 220.222C428.352 221 427.446 221.646 426.455 222.132C427.115 221.246 427.908 220.467 428.805 219.822C429.588 219.044 430.494 218.399 431.485 217.912Z" fill="white"/>
<path d="M416.975 218.412C416.134 217.878 415.393 217.201 414.785 216.412C414.049 215.76 413.436 214.981 412.975 214.112C413.811 214.628 414.552 215.284 415.165 216.052C415.899 216.729 416.512 217.527 416.975 218.412Z" fill="white"/>
<path d="M430.734 211.412C429.954 211.901 429.089 212.24 428.184 212.412C427.323 212.745 426.408 212.918 425.484 212.922C427.122 212.086 428.904 211.57 430.734 211.402V211.412Z" fill="white"/>
<path d="M443.415 220.412C442.778 219.717 442.276 218.91 441.935 218.032C441.446 217.229 441.107 216.345 440.935 215.422C441.571 216.116 442.073 216.924 442.415 217.802C442.903 218.604 443.242 219.489 443.415 220.412Z" fill="white"/>
<path d="M407.695 215.142C407.859 216.017 407.859 216.916 407.695 217.792C407.692 218.683 407.519 219.565 407.185 220.392C407.008 219.517 407.008 218.616 407.185 217.742C407.183 216.85 407.356 215.966 407.695 215.142Z" fill="white"/>
<path d="M409.255 140.462C406.787 140.839 404.269 140.707 401.855 140.072C400.663 139.739 399.558 139.149 398.618 138.344C397.679 137.539 396.926 136.538 396.415 135.412C395.931 134.264 395.847 132.986 396.175 131.784C396.503 130.583 397.225 129.525 398.225 128.782C399.225 128.142 400.535 127.782 400.995 126.692C401.455 125.602 400.625 124.192 400.045 123.002C399.278 121.415 399.04 119.624 399.366 117.891C399.691 116.159 400.563 114.576 401.853 113.376C403.144 112.175 404.785 111.419 406.536 111.218C408.287 111.018 410.056 111.384 411.585 112.262C411.819 109.517 413.064 106.957 415.077 105.076C417.09 103.196 419.729 102.129 422.483 102.082C425.238 102.034 427.912 103.01 429.988 104.821C432.064 106.631 433.396 109.147 433.725 111.882C433.915 113.472 433.785 115.182 434.595 116.572C435.515 118.152 437.405 118.872 438.685 120.182C441.175 122.732 440.835 126.912 439.685 130.292C438.535 133.672 436.745 136.972 436.855 140.542" fill="#023A59"/>
<path d="M418.765 160.311C418.525 156.781 418.255 153.561 418.255 153.561C418.255 153.561 410.915 152.971 410.255 145.711C409.595 138.451 409.675 121.711 409.675 121.711L422.855 114.861L436.165 125.641L436.405 159.641C436.423 161.889 435.585 164.06 434.059 165.711C432.534 167.363 430.437 168.371 428.195 168.531C425.855 168.691 423.547 167.914 421.779 166.373C420.01 164.832 418.926 162.651 418.765 160.311Z" fill="#E5BAAB"/>
<path d="M411.465 133.872C411.478 134.053 411.545 134.227 411.656 134.37C411.767 134.514 411.918 134.622 412.089 134.681C412.261 134.741 412.446 134.748 412.622 134.703C412.799 134.658 412.957 134.562 413.08 134.428C413.202 134.294 413.282 134.126 413.311 133.947C413.339 133.767 413.314 133.584 413.239 133.418C413.164 133.253 413.042 133.113 412.889 133.016C412.735 132.919 412.556 132.869 412.375 132.872C412.248 132.875 412.123 132.903 412.008 132.955C411.893 133.007 411.789 133.083 411.704 133.176C411.619 133.27 411.554 133.38 411.513 133.499C411.471 133.619 411.455 133.746 411.465 133.872Z" fill="#023A59"/>
<path d="M410.545 132.882C410.665 133.002 411.335 132.402 412.335 132.322C413.335 132.242 414.105 132.712 414.205 132.572C414.305 132.432 414.125 132.292 413.785 132.072C413.334 131.8 412.809 131.677 412.284 131.722C411.76 131.767 411.263 131.977 410.865 132.322C410.575 132.592 410.485 132.832 410.545 132.882Z" fill="#023A59"/>
<path d="M422.245 133.612C422.246 133.734 422.272 133.855 422.32 133.968C422.369 134.08 422.44 134.182 422.528 134.266C422.617 134.351 422.721 134.418 422.836 134.461C422.95 134.505 423.072 134.526 423.195 134.522C423.441 134.522 423.678 134.424 423.852 134.249C424.027 134.075 424.125 133.838 424.125 133.592C424.125 133.345 424.027 133.108 423.852 132.934C423.678 132.76 423.441 132.662 423.195 132.662C423.069 132.657 422.943 132.679 422.826 132.725C422.709 132.772 422.603 132.842 422.514 132.931C422.425 133.02 422.355 133.126 422.308 133.243C422.262 133.36 422.24 133.486 422.245 133.612Z" fill="#023A59"/>
<path d="M421.635 132.612C421.765 132.732 422.435 132.132 423.435 132.052C424.435 131.972 425.195 132.442 425.295 132.302C425.395 132.162 425.215 132.022 424.885 131.802C424.447 131.523 423.933 131.387 423.415 131.412C422.888 131.448 422.388 131.659 421.995 132.012C421.675 132.322 421.575 132.562 421.635 132.612Z" fill="#023A59"/>
<path d="M418.235 141.151C417.694 141.271 417.139 141.315 416.585 141.281C416.44 141.305 416.291 141.305 416.145 141.281C416.05 141.257 415.962 141.212 415.886 141.15C415.81 141.087 415.748 141.01 415.705 140.921C415.61 140.57 415.635 140.197 415.775 139.861C415.975 139.201 416.175 138.501 416.385 137.761C416.847 135.944 417.448 134.165 418.185 132.441C417.857 134.29 417.393 136.112 416.795 137.891C416.575 138.621 416.365 139.311 416.155 139.981C416.041 140.231 415.999 140.509 416.035 140.781C416.085 140.961 416.335 140.991 416.585 141.001C417.139 140.986 417.693 141.036 418.235 141.151Z" fill="#023A59"/>
<path d="M421.695 141.972C421.765 141.892 418.805 143.762 416.765 143.812C417.142 144.312 417.678 144.669 418.284 144.825C418.891 144.982 419.533 144.928 420.105 144.672C420.661 144.504 421.133 144.133 421.427 143.633C421.722 143.133 421.817 142.54 421.695 141.972Z" fill="white"/>
<path d="M418.255 153.562C421.705 153.337 425.019 152.129 427.805 150.082C427.805 150.082 425.755 155.472 418.465 155.342L418.255 153.562Z" fill="#D78776"/>
<path d="M406.415 123.891C408.695 126.011 412.275 126.311 415.195 125.231C418.098 124.004 420.599 121.988 422.415 119.411C423.683 120.651 425.241 121.553 426.948 122.037C428.654 122.521 430.454 122.57 432.185 122.181C432.705 128.791 433.855 132.831 436.335 139.461C436.335 139.461 435.755 142.351 436.635 141.951C437.485 137.371 438.295 132.491 439.145 127.951C439.445 126.291 439.745 124.511 439.085 122.951C438.425 121.391 436.725 120.261 435.265 119.191C433.455 117.861 431.795 116.321 429.955 115.041C428.156 113.669 426.021 112.806 423.775 112.541C421.478 112.53 419.202 112.982 417.085 113.871C414.567 114.573 412.196 115.721 410.085 117.261C408.085 118.921 406.665 121.561 407.185 124.111" fill="#023A59"/>
<path d="M436.205 132.542C436.936 132.2 437.721 131.99 438.525 131.922C438.931 131.896 439.337 131.974 439.705 132.149C440.072 132.324 440.389 132.59 440.625 132.922C440.923 133.451 440.999 134.077 440.835 134.662C440.72 135.134 440.501 135.574 440.195 135.951C439.889 136.328 439.502 136.632 439.063 136.841C438.625 137.049 438.145 137.158 437.659 137.158C437.174 137.158 436.694 137.05 436.255 136.842" fill="#E5BAAB"/>
<path d="M425.855 130.771C425.965 130.771 426.045 131.271 425.645 131.691C425.245 132.111 424.725 132.051 424.735 131.931C424.745 131.811 425.065 131.691 425.335 131.391C425.605 131.091 425.725 130.771 425.855 130.771Z" fill="#023A59"/>
<path d="M399.935 246.412L387.355 436.092C386.425 436.262 374.625 438.502 374.935 440.222C375.245 441.942 405.165 440.942 405.165 440.942L422.765 276.112L450.155 243.782L399.935 246.412Z" fill="#E5BAAB"/>
<path d="M404.845 439.501C404.845 439.791 397.965 439.971 389.485 439.901C381.005 439.831 374.115 439.541 374.125 439.251C374.135 438.961 381.005 438.791 389.485 438.861C397.965 438.931 404.845 439.211 404.845 439.501Z" fill="#023A59"/>
<path d="M384.155 439.821C384.005 439.821 383.765 438.681 382.915 437.551C382.065 436.421 381.045 435.831 381.115 435.691C381.997 435.958 382.768 436.506 383.31 437.251C383.852 437.997 384.134 438.9 384.115 439.821H384.155Z" fill="#023A59"/>
<path d="M405.415 434.552C400.141 434.379 394.971 436.04 390.785 439.252C391.266 438.636 391.848 438.105 392.505 437.682C394.028 436.578 395.715 435.72 397.505 435.142C399.303 434.558 401.184 434.267 403.075 434.282C403.864 434.242 404.655 434.333 405.415 434.552Z" fill="#023A59"/>
<path d="M405.515 432.482C402.434 432.654 399.346 432.654 396.265 432.482C393.178 432.488 390.093 432.321 387.025 431.982C390.106 431.807 393.194 431.807 396.275 431.982C399.362 431.979 402.446 432.146 405.515 432.482Z" fill="#023A59"/>
<path d="M405.705 429.202C402.607 429.541 399.492 429.708 396.375 429.702C393.261 429.884 390.139 429.884 387.025 429.702C390.124 429.369 393.238 429.202 396.355 429.202C399.469 429.033 402.591 429.033 405.705 429.202Z" fill="#023A59"/>
<path d="M374.415 439.311C374.297 439.6 374.295 439.923 374.411 440.212C374.527 440.501 374.75 440.734 375.035 440.862C375.63 441.072 376.279 441.072 376.875 440.862C377.466 440.662 378.082 440.541 378.705 440.501C379.995 440.501 381.175 441.502 382.455 441.332C383.225 441.242 383.905 440.741 384.665 440.621C386.015 440.421 387.285 441.421 388.665 441.411C390.045 441.401 391.295 440.411 392.665 440.491C394.035 440.571 394.975 441.601 396.225 441.621C397.225 441.621 398.105 441.031 399.085 440.991C400.425 440.941 401.685 441.931 403.005 441.681C403.269 441.634 403.52 441.527 403.738 441.37C403.956 441.212 404.136 441.008 404.265 440.771C404.388 440.531 404.435 440.258 404.399 439.99C404.363 439.722 404.247 439.472 404.065 439.271" fill="#023A59"/>
<path d="M400.895 429.562C400.895 429.612 400.295 429.352 399.595 428.612C399.18 428.169 398.875 427.634 398.705 427.052C398.607 426.697 398.567 426.329 398.585 425.962C398.587 425.742 398.635 425.525 398.727 425.326C398.818 425.126 398.95 424.947 399.115 424.802C399.225 424.724 399.354 424.675 399.488 424.659C399.623 424.643 399.759 424.661 399.885 424.712C400.088 424.8 400.267 424.938 400.405 425.112C400.629 425.416 400.805 425.753 400.925 426.112C401.136 426.68 401.212 427.29 401.145 427.892C401.005 428.892 400.565 429.432 400.525 429.392C400.485 429.352 400.745 428.812 400.775 427.872C400.787 427.328 400.689 426.787 400.485 426.282C400.361 425.995 400.2 425.726 400.005 425.482C399.805 425.242 399.575 425.132 399.415 425.272C399.211 425.481 399.097 425.76 399.095 426.052C399.072 426.36 399.096 426.67 399.165 426.972C399.3 427.498 399.542 427.992 399.875 428.422C400.415 429.122 400.955 429.492 400.895 429.562Z" fill="#023A59"/>
<path d="M400.875 428.952C400.815 428.952 400.755 428.432 401.165 427.732C401.414 427.324 401.757 426.981 402.165 426.732C402.413 426.594 402.679 426.49 402.955 426.422C403.15 426.373 403.357 426.398 403.535 426.492C403.637 426.557 403.717 426.653 403.761 426.766C403.806 426.88 403.814 427.004 403.785 427.122C403.718 427.653 403.491 428.151 403.133 428.549C402.776 428.948 402.305 429.228 401.785 429.352C400.985 429.522 400.515 429.282 400.535 429.232C400.555 429.182 401.025 429.232 401.685 429.002C402.103 428.853 402.472 428.592 402.752 428.249C403.032 427.905 403.213 427.491 403.275 427.052C403.275 426.922 403.275 426.932 403.275 426.932C403.203 426.913 403.127 426.913 403.055 426.932C402.424 427.061 401.862 427.417 401.475 427.932C401.035 428.502 400.955 428.962 400.875 428.952Z" fill="#023A59"/>
<path d="M464.105 429.322L463.845 429.392L455.625 363.021L447.855 247.021L425.205 268.451C424.645 269.501 432.315 361.982 433.945 368.452C435.485 374.532 445.075 427.141 446.235 433.501C444.885 434.182 434.765 439.312 435.515 440.832C436.265 442.352 464.785 433.232 464.785 433.232L464.105 429.322Z" fill="#E5BAAB"/>
<path d="M464.915 433.412C464.995 433.692 458.425 435.752 450.245 438.012C442.065 440.272 435.375 441.882 435.295 441.602C435.215 441.322 441.795 439.272 449.975 437.002C458.155 434.732 464.845 433.092 464.915 433.412Z" fill="#023A59"/>
<path d="M445.114 439.352C444.974 439.412 444.414 438.352 443.294 437.502C442.174 436.652 441.024 436.362 441.054 436.202C441.983 436.21 442.882 436.523 443.616 437.092C444.349 437.661 444.876 438.455 445.114 439.352Z" fill="#023A59"/>
<path d="M464.125 428.412C461.615 429.135 459.216 430.198 456.995 431.572C454.871 433.095 452.969 434.905 451.345 436.952C451.637 436.22 452.053 435.543 452.575 434.952C454.924 431.965 458.164 429.803 461.825 428.782C462.567 428.536 463.343 428.411 464.125 428.412Z" fill="#023A59"/>
<path d="M463.634 426.412C460.717 427.427 457.746 428.278 454.734 428.962C451.775 429.8 448.77 430.468 445.734 430.962C448.652 429.954 451.624 429.106 454.634 428.422C457.594 427.584 460.599 426.913 463.634 426.412Z" fill="#023A59"/>
<path d="M462.915 423.222C460.027 424.402 457.076 425.42 454.075 426.272C451.125 427.286 448.12 428.134 445.075 428.812C447.963 427.646 450.914 426.644 453.915 425.812C456.867 424.789 459.871 423.924 462.915 423.222Z" fill="#023A59"/>
<path d="M435.605 441.522C435.565 441.829 435.647 442.14 435.834 442.387C436.021 442.634 436.298 442.797 436.605 442.842C437.24 442.917 437.881 442.765 438.415 442.412C438.929 442.058 439.487 441.773 440.075 441.562C441.325 441.222 442.725 441.842 443.915 441.332C444.635 441.032 445.145 440.332 445.855 440.042C447.095 439.472 448.585 440.042 449.855 439.712C451.125 439.382 452.105 438.002 453.455 437.712C454.805 437.422 455.985 438.152 457.205 437.822C458.145 437.572 458.845 436.742 459.775 436.442C461.045 436.022 462.535 436.622 463.775 436.022C464.024 435.91 464.245 435.741 464.418 435.53C464.592 435.318 464.714 435.069 464.775 434.802C464.825 434.536 464.794 434.261 464.685 434.012C464.577 433.764 464.395 433.555 464.165 433.412" fill="#023A59"/>
<path d="M458.415 424.892C457.866 424.848 457.34 424.654 456.895 424.332C456.372 424.023 455.932 423.59 455.615 423.072C455.421 422.765 455.283 422.426 455.205 422.072C455.147 421.86 455.134 421.639 455.167 421.422C455.2 421.205 455.277 420.997 455.395 420.812C455.476 420.704 455.585 420.619 455.709 420.567C455.834 420.514 455.97 420.495 456.105 420.512C456.326 420.542 456.536 420.628 456.715 420.762C457.01 420.977 457.27 421.237 457.485 421.532C457.841 422.025 458.081 422.592 458.185 423.192C458.328 423.733 458.26 424.309 457.995 424.802C457.905 424.802 458.055 424.182 457.825 423.262C457.679 422.74 457.435 422.251 457.105 421.822C456.908 421.579 456.679 421.363 456.425 421.182C456.165 421.002 455.915 420.962 455.805 421.132C455.662 421.388 455.626 421.69 455.705 421.972C455.767 422.276 455.875 422.569 456.025 422.842C456.299 423.311 456.667 423.719 457.105 424.042C457.845 424.592 458.415 424.812 458.415 424.892Z" fill="#023A59"/>
<path d="M458.195 424.312C458.195 424.312 457.945 423.842 458.195 423.052C458.321 422.597 458.558 422.181 458.885 421.842C459.086 421.637 459.315 421.462 459.565 421.322C459.738 421.224 459.94 421.192 460.135 421.232C460.249 421.268 460.349 421.338 460.423 421.433C460.496 421.527 460.539 421.642 460.545 421.762C460.628 422.292 460.547 422.834 460.313 423.317C460.079 423.799 459.703 424.199 459.235 424.462C458.515 424.842 457.995 424.742 458.005 424.692C458.015 424.642 458.465 424.562 459.005 424.152C459.368 423.896 459.654 423.545 459.831 423.138C460.007 422.73 460.067 422.281 460.005 421.842C460.005 421.712 460.005 421.722 460.005 421.732C459.928 421.725 459.851 421.743 459.785 421.782C459.222 422.085 458.783 422.577 458.545 423.172C458.235 423.832 458.285 424.302 458.195 424.312Z" fill="#023A59"/>
<path d="M449.415 235.892L400.785 236.442L385.365 301.982C385.365 301.982 381.575 317.982 400.545 318.752C419.515 319.522 428.445 311.222 444.275 317.332C454.555 321.332 469.455 313.902 468.725 312.212C459.935 291.982 460.135 262.962 449.415 235.892Z" fill="#C9EAF1"/>
<path d="M464.235 316.772C464.235 316.772 464.155 316.492 464.035 315.962C463.915 315.432 463.745 314.632 463.475 313.632C462.656 310.822 461.633 308.074 460.415 305.412C458.502 301.468 456.832 297.41 455.415 293.262C453.946 288.098 453.097 282.777 452.885 277.412C452.555 271.712 452.535 266.282 452.205 261.412C451.981 257.032 451.362 252.681 450.355 248.412C449.668 245.55 448.683 242.768 447.415 240.112C446.965 239.172 446.585 238.462 446.305 237.992C446.151 237.757 446.024 237.505 445.925 237.242C446.095 237.463 446.252 237.693 446.395 237.932C446.833 238.606 447.234 239.304 447.595 240.022C448.953 242.653 450.003 245.431 450.725 248.302C451.789 252.565 452.458 256.917 452.725 261.302C453.085 266.242 453.115 271.672 453.445 277.302C453.65 282.637 454.475 287.929 455.905 293.072C457.294 297.206 458.913 301.259 460.755 305.212C461.967 307.909 462.954 310.702 463.705 313.562C463.945 314.562 464.115 315.372 464.185 315.922C464.23 316.203 464.246 316.488 464.235 316.772Z" fill="#455A64"/>
<path d="M418.865 262.902C418.865 262.902 418.795 262.982 418.605 263.052C418.326 263.153 418.028 263.184 417.735 263.142C417.194 263.043 416.691 262.798 416.28 262.433C415.869 262.068 415.566 261.597 415.405 261.072C415.05 259.542 414.955 257.963 415.125 256.402C415.175 254.642 415.235 252.732 415.295 250.732C415.435 246.732 415.585 243.072 415.715 240.432C415.795 239.202 415.855 238.162 415.905 237.312C415.913 236.928 415.96 236.546 416.045 236.172C416.115 236.551 416.135 236.938 416.105 237.322C416.105 238.172 416.105 239.212 416.105 240.442C416.105 243.082 415.975 246.722 415.835 250.752C415.765 252.752 415.695 254.662 415.625 256.412C415.439 257.924 415.49 259.455 415.775 260.952C415.901 261.432 416.153 261.871 416.505 262.222C416.856 262.573 417.294 262.825 417.775 262.952C418.138 263.002 418.507 262.985 418.865 262.902Z" fill="#455A64"/>
<path d="M418.764 238.712C418.704 238.712 419.164 238.312 419.894 238.632C420.101 238.723 420.285 238.861 420.431 239.034C420.576 239.208 420.68 239.412 420.734 239.632C420.779 239.927 420.723 240.228 420.577 240.487C420.43 240.746 420.2 240.949 419.924 241.062C419.659 241.203 419.354 241.247 419.06 241.186C418.766 241.126 418.502 240.966 418.314 240.732C418.192 240.528 418.127 240.295 418.127 240.057C418.127 239.819 418.192 239.586 418.314 239.382C418.381 239.245 418.476 239.125 418.593 239.028C418.711 238.931 418.847 238.861 418.994 238.822C419.204 238.772 419.314 238.822 419.314 238.822C419.314 238.822 418.854 238.932 418.654 239.512C418.596 239.658 418.573 239.815 418.587 239.971C418.601 240.128 418.651 240.279 418.734 240.412C418.861 240.543 419.029 240.629 419.21 240.654C419.391 240.679 419.576 240.643 419.734 240.552C419.909 240.487 420.059 240.367 420.16 240.211C420.261 240.054 420.308 239.868 420.294 239.682C420.266 239.521 420.203 239.367 420.11 239.232C420.017 239.098 419.895 238.985 419.754 238.902C419.204 238.632 418.784 238.792 418.764 238.712Z" fill="#455A64"/>
<path d="M450.544 248.872C450.266 248.956 449.976 249 449.684 249.002C448.889 249.05 448.09 249.05 447.294 249.002C444.632 248.922 442.044 248.109 439.814 246.652C438.714 245.889 437.788 244.9 437.098 243.752C436.409 242.604 435.971 241.322 435.814 239.992C435.728 239.187 435.796 238.372 436.014 237.592C436.071 237.302 436.187 237.026 436.354 236.782C436.131 237.823 436.071 238.893 436.174 239.952C436.379 241.209 436.834 242.412 437.512 243.489C438.191 244.566 439.079 245.496 440.124 246.222C442.285 247.624 444.766 248.453 447.334 248.632C449.304 248.842 450.544 248.782 450.544 248.872Z" fill="#023A59"/>
<path d="M404.805 235.992C404.805 235.992 404.915 236.242 405.015 236.712C405.128 237.373 405.195 238.042 405.215 238.712C405.273 240.991 404.875 243.259 404.045 245.382C403.315 247.568 401.95 249.486 400.125 250.892C399.54 251.287 398.873 251.544 398.175 251.642C397.925 251.704 397.664 251.704 397.415 251.642C398.312 251.501 399.167 251.159 399.915 250.642C401.591 249.2 402.851 247.335 403.565 245.242C404.361 243.172 404.794 240.98 404.845 238.762C404.895 237.062 404.715 236.002 404.805 235.992Z" fill="#023A59"/>
<path d="M466.984 308.412C466.231 309.231 465.37 309.944 464.424 310.532C461.845 312.15 458.938 313.174 455.914 313.532C451.439 314.028 446.913 313.812 442.504 312.892C437.504 312.052 432.104 310.672 426.304 310.622C420.504 310.572 415.144 312.342 410.304 313.622C408.004 314.258 405.666 314.749 403.304 315.092C401.221 315.354 399.116 315.394 397.024 315.212C393.976 315.003 391.035 314 388.494 312.302C388.102 312.033 387.728 311.739 387.374 311.422C387.108 311.196 386.857 310.952 386.624 310.692C386.424 310.487 386.237 310.27 386.064 310.042C386.865 310.796 387.717 311.495 388.614 312.132C391.155 313.74 394.063 314.676 397.064 314.852C399.129 315.004 401.203 314.94 403.254 314.662C405.616 314.302 407.953 313.801 410.254 313.162C415.114 311.902 420.494 310.082 426.414 310.162C432.334 310.242 437.744 311.622 442.694 312.482C447.056 313.415 451.536 313.665 455.974 313.222C458.963 312.899 461.847 311.941 464.434 310.412C466.124 309.212 466.934 308.322 466.984 308.412Z" fill="#023A59"/>
<path d="M448.155 237.512C448.025 237.592 447.745 237.372 447.525 237.032C447.305 236.692 447.225 236.342 447.345 236.262C447.465 236.182 447.745 236.392 447.965 236.742C448.185 237.092 448.275 237.412 448.155 237.512Z" fill="#455A64"/>
<path d="M450.875 243.092C450.745 243.152 450.365 242.552 450.025 241.772C449.685 240.992 449.515 240.312 449.635 240.242C449.755 240.172 450.155 240.772 450.495 241.572C450.835 242.372 451.015 243.042 450.875 243.092Z" fill="#455A64"/>
<path d="M452.695 249.042C452.555 249.042 452.265 248.432 452.045 247.602C451.825 246.772 451.755 246.082 451.895 246.032C452.035 245.982 452.325 246.632 452.545 247.472C452.765 248.312 452.835 249.002 452.695 249.042Z" fill="#455A64"/>
<path d="M453.814 255.152C453.674 255.152 453.454 254.502 453.314 253.652C453.174 252.802 453.194 252.112 453.314 252.082C453.434 252.052 453.674 252.722 453.814 253.572C453.954 254.422 453.954 255.132 453.814 255.152Z" fill="#455A64"/>
<path d="M454.415 261.332C454.275 261.332 454.095 260.662 454.025 259.812C453.955 258.962 454.025 258.252 454.155 258.232C454.285 258.212 454.465 258.902 454.545 259.762C454.625 260.622 454.595 261.322 454.415 261.332Z" fill="#455A64"/>
<path d="M454.805 267.542C454.655 267.542 454.515 266.862 454.465 266.002C454.415 265.142 454.465 264.442 454.645 264.432C454.825 264.422 454.945 265.122 454.985 265.982C455.025 266.842 454.945 267.542 454.805 267.542Z" fill="#455A64"/>
<path d="M455.115 273.752C454.975 273.752 454.815 273.072 454.775 272.212C454.735 271.352 454.775 270.652 454.945 270.652C455.115 270.652 455.245 271.332 455.295 272.192C455.345 273.052 455.255 273.742 455.115 273.752Z" fill="#455A64"/>
<path d="M455.615 279.952C455.465 279.952 455.285 279.282 455.205 278.432C455.125 277.582 455.205 276.862 455.325 276.852C455.445 276.842 455.645 277.532 455.725 278.382C455.805 279.232 455.755 279.932 455.615 279.952Z" fill="#455A64"/>
<path d="M456.514 286.102C456.374 286.102 456.144 285.462 456.004 284.612C455.864 283.762 455.854 283.052 456.004 283.032C456.154 283.012 456.384 283.682 456.524 284.522C456.664 285.362 456.654 286.072 456.514 286.102Z" fill="#455A64"/>
<path d="M458.055 292.122C457.925 292.172 457.615 291.532 457.375 290.702C457.135 289.872 457.055 289.172 457.195 289.142C457.335 289.112 457.635 289.742 457.875 290.562C458.115 291.382 458.195 292.082 458.055 292.122Z" fill="#455A64"/>
<path d="M460.415 297.862C460.295 297.932 459.865 297.362 459.505 296.572C459.145 295.782 458.975 295.092 459.105 295.042C459.235 294.992 459.625 295.572 459.975 296.352C460.325 297.132 460.575 297.792 460.415 297.862Z" fill="#455A64"/>
<path d="M463.415 303.322C463.285 303.392 462.845 302.842 462.415 302.092C461.985 301.342 461.765 300.672 461.895 300.602C462.025 300.532 462.455 301.092 462.895 301.842C463.335 302.592 463.545 303.262 463.415 303.322Z" fill="#455A64"/>
<path d="M465.954 308.992C465.814 309.042 465.454 308.432 465.144 307.642C464.834 306.852 464.684 306.162 464.814 306.102C464.944 306.042 465.304 306.652 465.624 307.452C465.944 308.252 466.094 308.952 465.954 308.992Z" fill="#455A64"/>
<path d="M466.804 313.522C466.654 313.522 466.514 313.202 466.474 312.802C466.434 312.402 466.524 312.052 466.664 312.032C466.804 312.012 466.954 312.332 466.994 312.752C467.034 313.172 466.944 313.522 466.804 313.522Z" fill="#455A64"/>
<path d="M412.545 160.582C412.545 160.582 440.225 249.742 458.025 263.072L456.625 255.242C445.915 236.522 433.075 200.242 418.755 160.122C417.565 159.192 413.075 159.532 412.545 160.582Z" fill="#FF993C"/>
<path d="M448.335 193.592L457.925 214.932C444.035 214.852 428.835 211.652 422.455 209.932C421.965 209.462 421.455 208.932 420.845 208.322C420.17 207.604 419.62 206.78 419.215 205.882C418.669 204.787 418.276 203.623 418.045 202.422C417.945 201.312 416.565 200.872 416.045 201.732C415.525 202.592 415.745 205.682 417.515 208.832C419.285 211.982 414.075 209.832 412.165 209.132C410.255 208.432 404.225 206.382 403.545 206.792C402.545 207.402 403.025 208.612 404.955 209.302C406.885 209.992 412.535 212.492 412.115 213.492C411.695 214.492 402.015 210.572 402.015 210.572C402.015 210.572 400.015 209.402 399.555 210.572C398.625 212.632 409.215 216.012 410.235 216.302C410.935 216.512 410.525 217.612 409.785 217.352C409.045 217.092 400.195 213.232 399.225 215.352C398.485 216.952 407.915 218.212 409.335 220.032C410.755 221.852 402.255 218.342 401.615 219.902C401.375 220.482 401.275 220.902 406.425 222.262C410.608 223.119 414.834 223.75 419.085 224.152C427.255 226.542 447.355 231.152 461.975 230.722C461.975 230.722 482.705 231.082 479.115 218.542C475.255 205.102 464.215 184.592 464.215 184.592L448.335 193.592Z" fill="#E5BAAB"/>
<path d="M437.414 136.412C437.221 136.386 437.025 136.438 436.87 136.556C436.714 136.674 436.612 136.848 436.584 137.042C436.582 137.137 436.598 137.232 436.632 137.321C436.667 137.41 436.718 137.491 436.784 137.56C436.85 137.629 436.93 137.684 437.017 137.722C437.105 137.76 437.199 137.78 437.294 137.782C437.39 137.772 437.483 137.743 437.568 137.696C437.652 137.648 437.725 137.584 437.784 137.507C437.842 137.43 437.883 137.342 437.906 137.248C437.928 137.154 437.931 137.057 437.914 136.962C437.886 136.871 437.838 136.787 437.775 136.715C437.712 136.644 437.635 136.586 437.548 136.547C437.461 136.507 437.367 136.486 437.272 136.485C437.176 136.484 437.082 136.504 436.994 136.542" fill="#46B2C8"/>
<path d="M452.879 379.71C451.679 379.803 450.51 380.138 449.443 380.695C448.376 381.252 447.432 382.019 446.669 382.95C445.158 384.831 444.091 387.029 443.549 389.38C442.389 393.88 443.179 399.17 444.489 403.63C449.339 401.85 452.289 396.63 453.629 393.9C455.729 389.58 456.909 380.48 452.879 379.71Z" fill="#81DD6A"/>
<path opacity="0.2" d="M452.879 379.71C451.679 379.803 450.51 380.138 449.443 380.695C448.376 381.252 447.432 382.019 446.669 382.95C445.158 384.831 444.091 387.029 443.549 389.38C442.389 393.88 443.179 399.17 444.489 403.63C449.339 401.85 452.289 396.63 453.629 393.9C455.729 389.58 456.909 380.48 452.879 379.71Z" fill="black"/>
<path d="M437.55 409.13C438.268 407.992 438.673 406.684 438.723 405.339C438.774 403.994 438.47 402.66 437.84 401.47C437.187 400.294 436.308 399.258 435.252 398.424C434.196 397.59 432.986 396.973 431.69 396.61C431.112 396.382 430.492 396.283 429.872 396.319C429.252 396.355 428.647 396.526 428.1 396.82C427.639 397.175 427.282 397.647 427.065 398.187C426.849 398.727 426.781 399.315 426.87 399.89C427.057 401.041 427.547 402.121 428.29 403.02C430.68 406.2 433.58 408.84 437.55 409.13Z" fill="#81DD6A"/>
<path d="M437.51 424.57C437.63 424.265 437.711 423.946 437.75 423.62C437.87 423.01 438.02 422.11 438.18 421C438.651 418.101 438.729 415.151 438.41 412.23C438.067 409.276 436.93 406.47 435.12 404.11C434.56 403.41 433.916 402.781 433.2 402.24C432.956 402.023 432.675 401.85 432.37 401.73C433.257 402.535 434.079 403.408 434.83 404.34C436.507 406.707 437.56 409.459 437.89 412.34C438.197 415.221 438.17 418.126 437.81 421C437.638 422.183 437.538 423.376 437.51 424.57Z" fill="#023A59"/>
<path d="M451.38 386.55C451.098 387.011 450.857 387.496 450.66 388C450.23 388.94 449.66 390.31 448.9 392C447.45 395.4 445.52 400.14 443.52 405.43C441.52 410.72 439.84 415.55 438.67 419.06C438.09 420.82 437.67 422.25 437.33 423.24C437.144 423.742 437.007 424.261 436.92 424.79C437.156 424.308 437.356 423.81 437.52 423.3C437.91 422.24 438.41 420.86 439.02 419.18C440.27 415.7 442.02 410.89 444.02 405.61C446.02 400.33 447.89 395.61 449.25 392.13C449.9 390.48 450.44 389.13 450.86 388.06C451.073 387.571 451.247 387.066 451.38 386.55Z" fill="#023A59"/>
<path d="M442.59 413.55C444.192 411.206 446.329 409.277 448.824 407.922C451.319 406.568 454.101 405.826 456.94 405.76C458.38 405.76 460.09 406.09 460.65 407.41C461.21 408.73 460.27 410.22 459.23 411.22C457.023 413.272 454.259 414.624 451.285 415.106C448.311 415.589 445.261 415.179 442.52 413.93" fill="#81DD6A"/>
<path d="M454.46 409.3C454.148 409.253 453.831 409.253 453.52 409.3C453.153 409.32 452.789 409.366 452.43 409.44C451.951 409.508 451.477 409.605 451.01 409.73C449.782 410.042 448.589 410.477 447.45 411.03C446.055 411.719 444.738 412.553 443.52 413.52C442.327 414.515 441.241 415.631 440.28 416.85C439.508 417.858 438.838 418.94 438.28 420.08C438.057 420.51 437.863 420.955 437.7 421.41C437.555 421.733 437.438 422.068 437.35 422.41C437.238 422.702 437.167 423.009 437.14 423.32C437.24 423.32 437.61 422.07 438.61 420.2C439.202 419.113 439.888 418.079 440.66 417.11C442.557 414.732 444.944 412.791 447.66 411.42C448.766 410.861 449.921 410.402 451.11 410.05C453.14 409.5 454.47 409.4 454.46 409.3Z" fill="#023A59"/>
<path d="M61.9998 202.36C75.9998 196.18 82.6898 240.23 83.5898 243.66C84.4898 247.09 86.8699 247.5 90.9398 242.36C95.0098 237.22 98.5198 239.21 98.5198 239.21C106.18 243.88 95.7898 271.06 95.8898 273.27C95.9898 275.48 94.3498 278.66 102.31 274.16C110.27 269.66 116.95 267.26 118.11 274.16C119.17 280.44 111.04 298.57 111.11 301.16C111.18 303.75 119.4 297.24 122.86 295.08C127.34 292.3 132.12 292.49 132.96 298.08C134.05 305.41 119.48 326.85 119.48 326.85L112.48 337.77L99.6898 334.32C99.6898 334.32 74.6898 327.26 70.7798 320.98C67.7798 316.15 71.2698 312.9 76.4698 312.1C80.4698 311.49 90.9398 311.1 89.3498 309.1C87.7598 307.1 69.7998 298.63 66.5098 293.17C62.9098 287.17 69.5098 284.65 78.5098 282.89C87.5098 281.13 84.1798 279.78 82.8098 278.04C81.4398 276.3 55.8798 262.4 58.6698 253.87C58.6698 253.87 60.0398 250.09 66.4698 251.34C72.8998 252.59 74.4698 250.74 72.8898 247.54C71.3098 244.34 47.8298 206.54 62.4498 202.12" fill="#81DD6A"/>
<path d="M119.91 358.22C119.64 358.32 107.69 326.31 93.2299 286.73C78.7699 247.15 67.2299 214.98 67.5099 214.88C67.7899 214.78 79.7299 246.79 94.1999 286.38C108.67 325.97 120.18 358.12 119.91 358.22Z" fill="white"/>
<path d="M86.69 267.35C86.43 267.25 87.5 263.64 89.4 259.43C91.3 255.22 93.26 252 93.51 252.14C93.76 252.28 92.22 255.66 90.35 259.85C88.48 264.04 87 267.44 86.69 267.35Z" fill="white"/>
<path d="M69.4797 260.11C69.5397 259.84 73.5997 260.64 78.2997 262.55C82.9997 264.46 86.4997 266.68 86.3597 266.91C86.2197 267.14 82.5597 265.38 77.9197 263.51C73.2797 261.64 69.3997 260.4 69.4797 260.11Z" fill="white"/>
<path d="M97.1696 296.55C96.9496 296.36 99.9396 292.55 103.85 287.94C107.76 283.33 111.1 279.83 111.32 280.01C111.54 280.19 108.55 284.01 104.64 288.62C100.73 293.23 97.3896 296.74 97.1696 296.55Z" fill="white"/>
<path d="M73.9997 291.86C73.9997 291.59 79.4697 292.04 86.0597 293.34C92.6497 294.64 97.8597 296.26 97.7897 296.53C97.7197 296.8 92.4197 295.64 85.8597 294.36C79.2997 293.08 73.9297 292.16 73.9997 291.86Z" fill="white"/>
<path d="M81.1599 319.84C81.1599 319.55 86.8999 320.15 93.8899 321.18C100.88 322.21 106.51 323.27 106.46 323.55C106.41 323.83 100.73 323.23 93.7399 322.21C86.7499 321.19 81.1199 320.12 81.1599 319.84Z" fill="white"/>
<path d="M107.09 323.08C106.9 322.83 110.77 319.72 114.79 315.16C118.81 310.6 121.46 306.41 121.72 306.57C121.98 306.73 119.72 311.22 115.57 315.85C111.42 320.48 107.23 323.3 107.09 323.08Z" fill="white"/>
<path d="M229.74 38.3906V117.861L209.48 97.6006H61.96V38.3906H229.74Z" fill="#46B2C8"/>
<path d="M189.04 92.4114C201.389 92.4114 211.4 82.4005 211.4 70.0514C211.4 57.7023 201.389 47.6914 189.04 47.6914C176.691 47.6914 166.68 57.7023 166.68 70.0514C166.68 82.4005 176.691 92.4114 189.04 92.4114Z" fill="#FF993C"/>
<path opacity="0.2" d="M189.04 92.4114C201.389 92.4114 211.4 82.4005 211.4 70.0514C211.4 57.7023 201.389 47.6914 189.04 47.6914C176.691 47.6914 166.68 57.7023 166.68 70.0514C166.68 82.4005 176.691 92.4114 189.04 92.4114Z" fill="black"/>
<path d="M77.4697 62.7909C77.4697 62.6109 94.7697 62.4609 116.11 62.4609C137.45 62.4609 154.75 62.6109 154.75 62.7909C154.75 62.9709 137.46 63.1209 116.11 63.1209C94.7597 63.1209 77.4697 63.0009 77.4697 62.7909Z" fill="white"/>
<path d="M77.4697 71.3007C77.4697 71.1207 94.7697 70.9707 116.11 70.9707C137.45 70.9707 154.75 71.1207 154.75 71.3007C154.75 71.4807 137.46 71.6207 116.11 71.6207C94.7597 71.6207 77.4697 71.4807 77.4697 71.3007Z" fill="white"/>
<path d="M114.59 79.6698C114.59 79.4898 123.59 79.3398 134.67 79.3398C145.75 79.3398 154.75 79.4898 154.75 79.6698C154.75 79.8498 145.75 79.9898 134.67 79.9898C123.59 79.9898 114.59 79.8498 114.59 79.6698Z" fill="white"/>
<path d="M113.05 53.9999C113.05 53.8199 122.39 53.6699 133.9 53.6699C145.41 53.6699 154.75 53.8199 154.75 53.9999C154.75 54.1799 145.42 54.3299 133.9 54.3299C122.38 54.3299 113.05 54.2199 113.05 53.9999Z" fill="white"/>
<path d="M191 69.6703C191.985 69.2145 192.813 68.4798 193.384 67.5571C193.955 66.6345 194.242 65.5647 194.21 64.4803C194.244 63.7704 194.131 63.0611 193.88 62.3962C193.63 61.7312 193.245 61.1246 192.751 60.6137C192.257 60.1028 191.664 59.6984 191.008 59.4253C190.351 59.1522 189.646 59.0163 188.936 59.0259C188.225 59.0354 187.524 59.1903 186.875 59.4809C186.227 59.7716 185.644 60.1918 185.164 60.7158C184.684 61.2399 184.316 61.8566 184.084 62.5281C183.851 63.1995 183.758 63.9116 183.81 64.6203C183.809 65.7152 184.132 66.7859 184.739 67.6971C185.346 68.6084 186.209 69.3194 187.22 69.7403C179.22 71.0903 179.76 79.7403 179.76 79.7403L198.69 79.4803C198.69 79.4803 198.93 70.7203 191 69.6703Z" fill="white"/>
<path d="M196.74 151.78V184.38L188.43 176.07H127.91V151.78H196.74Z" fill="#46B2C8"/>
<path d="M157.91 159.571C157.91 159.421 164.62 159.311 172.91 159.311C181.2 159.311 187.91 159.421 187.91 159.571C187.91 159.721 181.2 159.831 172.91 159.831C164.62 159.831 157.91 159.711 157.91 159.571Z" fill="white"/>
<path d="M178.16 166.341C179.547 166.079 180.961 165.992 182.37 166.081C183.782 165.991 185.2 166.079 186.59 166.341C185.199 166.597 183.782 166.684 182.37 166.601C180.961 166.684 179.548 166.597 178.16 166.341Z" fill="white"/>
<path d="M176.17 168.211C176.03 168.211 175.79 167.781 175.51 167.211C175.23 166.641 175 166.211 175.12 166.091C175.24 165.971 175.67 166.371 175.97 166.981C176.27 167.591 176.31 168.181 176.17 168.211Z" fill="white"/>
<path d="M160.6 166.101C162.522 165.844 164.463 165.757 166.4 165.841C168.334 165.756 170.272 165.844 172.19 166.101C170.272 166.364 168.334 166.451 166.4 166.361C164.463 166.45 162.522 166.363 160.6 166.101Z" fill="white"/>
<path d="M159.2 168.091C159.07 168.161 158.71 167.721 158.38 167.091C158.05 166.461 157.9 165.931 158.03 165.861C158.16 165.791 158.52 166.241 158.85 166.861C159.18 167.481 159.33 168.001 159.2 168.091Z" fill="white"/>
<path d="M142.35 166C144.365 165.737 146.4 165.65 148.43 165.74C150.464 165.651 152.501 165.738 154.52 166C152.501 166.257 150.464 166.344 148.43 166.26C146.4 166.345 144.366 166.258 142.35 166Z" fill="white"/>
<path d="M140.84 167.001C140.72 167.081 140.35 166.711 140.01 166.181C139.67 165.651 139.5 165.181 139.62 165.091C139.74 165.001 140.11 165.371 140.45 165.901C140.79 166.431 141 167.001 140.84 167.001Z" fill="white"/>
<path d="M134 165.521C134 165.371 134.81 165.261 135.81 165.261C136.81 165.261 137.63 165.371 137.63 165.521C137.63 165.671 136.81 165.781 135.81 165.781C134.81 165.781 134 165.661 134 165.521Z" fill="white"/>
</svg>
