<svg width="406" height="419" viewBox="0 0 406 419" fill="none" xmlns="http://www.w3.org/2000/svg">
<g clip-path="url(#clip0_471_8423)">
<path d="M445.947 343.241H-39.9453V343.494H445.947V343.241Z" fill="#EBEBEB"/>
<path d="M397.264 359.494H365.078V359.747H397.264V359.494Z" fill="#EBEBEB"/>
<path d="M281.929 362.241H273.484V362.494H281.929V362.241Z" fill="#EBEBEB"/>
<path d="M364.102 350.12H345.453V350.373H364.102V350.12Z" fill="#EBEBEB"/>
<path d="M53.0066 351.816H11.0352V352.069H53.0066V351.816Z" fill="#EBEBEB"/>
<path d="M67.8155 351.817H61.6641V352.07H67.8155V351.817Z" fill="#EBEBEB"/>
<path d="M178.849 356.08H87.8125V356.333H178.849V356.08Z" fill="#EBEBEB"/>
<path d="M190.369 298.189H2.72668C1.2567 298.186 -0.152184 297.578 -1.1907 296.496C-2.22922 295.415 -2.8125 293.949 -2.8125 292.421V18.2417C-2.7997 16.7225 -2.21078 15.2699 -1.17364 14.1994C-0.136502 13.1289 1.26508 12.527 2.72668 12.5244H190.369C191.84 12.5244 193.252 13.1321 194.292 14.2138C195.333 15.2955 195.918 16.7625 195.918 18.2923V292.421C195.918 293.951 195.333 295.418 194.292 296.5C193.252 297.581 191.84 298.189 190.369 298.189ZM2.72668 12.7264C1.32114 12.7291 -0.0259564 13.3114 -1.01891 14.3454C-2.01187 15.3794 -2.56956 16.7807 -2.56955 18.2417V292.421C-2.56956 293.882 -2.01187 295.284 -1.01891 296.318C-0.0259564 297.352 1.32114 297.934 2.72668 297.937H190.369C191.775 297.934 193.123 297.352 194.118 296.318C195.112 295.284 195.672 293.883 195.675 292.421V18.2417C195.672 16.7798 195.112 15.3785 194.118 14.3448C193.123 13.311 191.775 12.7291 190.369 12.7264H2.72668Z" fill="#EBEBEB"/>
<path d="M400.572 298.189H212.92C211.449 298.186 210.039 297.578 208.999 296.497C207.959 295.416 207.374 293.95 207.371 292.421V18.2417C207.386 16.7216 207.978 15.269 209.016 14.1988C210.055 13.1286 211.457 12.527 212.92 12.5244H400.572C402.032 12.5297 403.431 13.1328 404.466 14.203C405.501 15.2732 406.088 16.7243 406.101 18.2417V292.421C406.101 293.948 405.519 295.412 404.483 296.493C403.446 297.574 402.04 298.184 400.572 298.189ZM212.92 12.7264C211.514 12.7291 210.165 13.311 209.171 14.3448C208.176 15.3785 207.617 16.7798 207.614 18.2417V292.421C207.617 293.883 208.176 295.284 209.171 296.318C210.165 297.352 211.514 297.934 212.92 297.937H400.572C401.978 297.934 403.326 297.352 404.321 296.318C405.315 295.284 405.875 293.883 405.878 292.421V18.2417C405.875 16.7798 405.315 15.3785 404.321 14.3448C403.326 13.311 401.978 12.7291 400.572 12.7264H212.92Z" fill="#EBEBEB"/>
<path d="M147.57 161.509V63.9502L26.7871 63.9502V161.509H147.57Z" fill="#E0E0E0"/>
<path d="M28.4679 159.771L145.898 159.771V65.6981L28.4679 65.6981L28.4679 159.771Z" fill="#EBEBEB"/>
<path d="M130.361 145.063H44.0078V109.759H44.7852V144.255H129.574V90.5869H130.361V145.063Z" fill="#E0E0E0"/>
<path d="M51.6251 104.658H50.8477V144.659H51.6251V104.658Z" fill="#E0E0E0"/>
<path d="M58.1563 104.658H57.3789V144.659H58.1563V104.658Z" fill="#E0E0E0"/>
<path d="M64.6954 104.658H63.918V144.659H64.6954V104.658Z" fill="#E0E0E0"/>
<path d="M71.2266 94.5469H70.4492V144.659H71.2266V94.5469Z" fill="#E0E0E0"/>
<path d="M77.7657 104.658H76.9883V144.659H77.7657V104.658Z" fill="#E0E0E0"/>
<path d="M84.297 115.77H83.5195V144.649H84.297V115.77Z" fill="#E0E0E0"/>
<path d="M90.836 115.77H90.0586V144.649H90.836V115.77Z" fill="#E0E0E0"/>
<path d="M97.3673 124.871H96.5898V144.66H97.3673V124.871Z" fill="#E0E0E0"/>
<path d="M103.906 115.77H103.129V144.649H103.906V115.77Z" fill="#E0E0E0"/>
<path d="M110.438 104.658H109.66V144.659H110.438V104.658Z" fill="#E0E0E0"/>
<path d="M116.977 104.658H116.199V144.659H116.977V104.658Z" fill="#E0E0E0"/>
<path d="M123.52 94.5469H122.742V144.659H123.52V94.5469Z" fill="#E0E0E0"/>
<path d="M94.9651 132.558L70.8648 100.012L56.5213 115.962L50.4671 109.154L44.8599 115.821L39 110.497L50.3116 97.0625L56.5504 104.093L71.4285 87.5471L95.5093 120.043L127.5 84.1328L133.205 89.6279L94.9651 132.558Z" fill="#F5F5F5"/>
<path d="M123.586 82.5667L134.723 81.9102L135.354 93.4862L123.586 82.5667Z" fill="#F5F5F5"/>
<path d="M359.087 84.4053H266.418V89.3549H359.087V84.4053Z" fill="#E0E0E0"/>
<path d="M274.769 66.1621H270.688V84.4051H274.769V66.1621Z" fill="#EBEBEB"/>
<path d="M294.515 66.1621H290.434V84.4051H294.515V66.1621Z" fill="#EBEBEB"/>
<path d="M316.921 65.6846L312.898 66.4053L315.88 84.3831L319.902 83.6624L316.921 65.6846Z" fill="#EBEBEB"/>
<path d="M279.832 68.5664H275.75V84.4052H279.832V68.5664Z" fill="#EBEBEB"/>
<path d="M289.206 68.5664H285.125V84.4052H289.206V68.5664Z" fill="#EBEBEB"/>
<path d="M312.902 68.5664H308.82V84.4052H312.902V68.5664Z" fill="#EBEBEB"/>
<path d="M299.867 67.9927L295.883 68.9131L299.189 84.3747L303.173 83.4543L299.867 67.9927Z" fill="#EBEBEB"/>
<path d="M283.357 65.2529H281.316V84.405H283.357V65.2529Z" fill="#EBEBEB"/>
<path d="M307.642 65.2529H305.602V84.405H307.642V65.2529Z" fill="#EBEBEB"/>
<path d="M350.197 69.9609H330.305V84.2341H350.197V69.9609Z" fill="#EBEBEB"/>
<path d="M266.428 126.296L359.098 126.296V121.346L266.428 121.346V126.296Z" fill="#E0E0E0"/>
<path d="M350.754 121.355H354.836V103.113H350.754V121.355Z" fill="#EBEBEB"/>
<path d="M331.004 121.355H335.086V103.113H331.004V121.355Z" fill="#EBEBEB"/>
<path d="M305.618 120.617L309.641 121.338L312.622 103.36L308.6 102.639L305.618 120.617Z" fill="#EBEBEB"/>
<path d="M345.688 121.355H349.77V105.517H345.688V121.355Z" fill="#EBEBEB"/>
<path d="M336.301 121.355H340.383V105.517H336.301V121.355Z" fill="#EBEBEB"/>
<path d="M312.622 121.355H316.703V105.517H312.622V121.355Z" fill="#EBEBEB"/>
<path d="M322.352 120.404L326.336 121.324L329.642 105.863L325.657 104.942L322.352 120.404Z" fill="#EBEBEB"/>
<path d="M342.162 121.346H344.203V102.194H342.162V121.346Z" fill="#EBEBEB"/>
<path d="M317.865 121.346H319.906V102.194H317.865V121.346Z" fill="#EBEBEB"/>
<path d="M275.318 121.185H295.211V106.911H275.318V121.185Z" fill="#EBEBEB"/>
<path d="M312.541 150.569H260.57V343.171H312.541V150.569Z" fill="#F5F5F5"/>
<path d="M308.058 156.063H265.047V338.806H308.058V156.063Z" fill="#EBEBEB"/>
<path d="M300.229 161.438H272.883V163.316H300.229V161.438Z" fill="#E0E0E0"/>
<path d="M300.229 169.579H272.883V171.458H300.229V169.579Z" fill="#E0E0E0"/>
<path d="M300.229 177.721H272.883V179.6H300.229V177.721Z" fill="#E0E0E0"/>
<path d="M300.229 185.862H272.883V187.741H300.229V185.862Z" fill="#E0E0E0"/>
<path d="M300.229 194.004H272.883V195.883H300.229V194.004Z" fill="#E0E0E0"/>
<path d="M300.229 202.146H272.883V204.024H300.229V202.146Z" fill="#E0E0E0"/>
<path d="M300.229 210.288H272.883V212.167H300.229V210.288Z" fill="#E0E0E0"/>
<path d="M300.229 276.501H272.883V278.38H300.229V276.501Z" fill="#E0E0E0"/>
<path d="M300.229 284.643H272.883V286.521H300.229V284.643Z" fill="#E0E0E0"/>
<path d="M300.229 292.785H272.883V294.664H300.229V292.785Z" fill="#E0E0E0"/>
<path d="M300.229 300.927H272.883V302.806H300.229V300.927Z" fill="#E0E0E0"/>
<path d="M300.229 309.068H272.883V310.947H300.229V309.068Z" fill="#E0E0E0"/>
<path d="M300.229 317.21H272.883V319.089H300.229V317.21Z" fill="#E0E0E0"/>
<path d="M300.229 325.352H272.883V327.23H300.229V325.352Z" fill="#E0E0E0"/>
<path d="M301.58 238.157C301.58 238.781 301.402 239.391 301.068 239.909C300.734 240.428 300.26 240.832 299.706 241.07C299.151 241.308 298.541 241.37 297.953 241.248C297.364 241.125 296.824 240.824 296.4 240.382C295.977 239.941 295.689 239.378 295.573 238.766C295.457 238.154 295.518 237.52 295.749 236.944C295.98 236.369 296.37 235.877 296.87 235.532C297.37 235.187 297.957 235.004 298.557 235.006C299.36 235.009 300.128 235.342 300.695 235.933C301.261 236.523 301.58 237.323 301.58 238.157Z" fill="#E0E0E0"/>
<path d="M366.049 150.569H314.078V343.171H366.049V150.569Z" fill="#F5F5F5"/>
<path d="M361.566 156.063H318.555V338.806H361.566V156.063Z" fill="#EBEBEB"/>
<path d="M353.721 161.438H326.375V163.316H353.721V161.438Z" fill="#E0E0E0"/>
<path d="M353.721 169.579H326.375V171.458H353.721V169.579Z" fill="#E0E0E0"/>
<path d="M353.721 177.721H326.375V179.6H353.721V177.721Z" fill="#E0E0E0"/>
<path d="M353.721 185.862H326.375V187.741H353.721V185.862Z" fill="#E0E0E0"/>
<path d="M353.721 194.004H326.375V195.883H353.721V194.004Z" fill="#E0E0E0"/>
<path d="M353.721 202.146H326.375V204.024H353.721V202.146Z" fill="#E0E0E0"/>
<path d="M353.721 210.288H326.375V212.167H353.721V210.288Z" fill="#E0E0E0"/>
<path d="M353.721 276.501H326.375V278.38H353.721V276.501Z" fill="#E0E0E0"/>
<path d="M353.721 284.643H326.375V286.521H353.721V284.643Z" fill="#E0E0E0"/>
<path d="M353.721 292.785H326.375V294.664H353.721V292.785Z" fill="#E0E0E0"/>
<path d="M353.721 300.927H326.375V302.806H353.721V300.927Z" fill="#E0E0E0"/>
<path d="M353.721 309.068H326.375V310.947H353.721V309.068Z" fill="#E0E0E0"/>
<path d="M353.721 317.21H326.375V319.089H353.721V317.21Z" fill="#E0E0E0"/>
<path d="M353.721 325.352H326.375V327.23H353.721V325.352Z" fill="#E0E0E0"/>
<path d="M355.076 238.157C355.074 238.778 354.895 239.385 354.562 239.9C354.228 240.415 353.756 240.816 353.203 241.053C352.651 241.289 352.044 241.35 351.458 241.227C350.872 241.105 350.335 240.805 349.913 240.365C349.491 239.925 349.204 239.366 349.089 238.757C348.973 238.147 349.033 237.516 349.262 236.943C349.491 236.369 349.879 235.879 350.375 235.535C350.872 235.19 351.456 235.006 352.054 235.006C352.451 235.006 352.845 235.087 353.212 235.246C353.58 235.404 353.913 235.637 354.194 235.93C354.475 236.222 354.697 236.57 354.848 236.952C355 237.334 355.077 237.744 355.076 238.157Z" fill="#E0E0E0"/>
<path d="M202.998 388.859C307.059 388.859 391.417 383.739 391.417 377.424C391.417 371.109 307.059 365.989 202.998 365.989C98.9364 365.989 14.5781 371.109 14.5781 377.424C14.5781 383.739 98.9364 388.859 202.998 388.859Z" fill="#F5F5F5"/>
<path d="M104.392 375.989H67.8433L62.9844 339.038H109.251L104.392 375.989Z" fill="#263238"/>
<path d="M85.6553 339.088C85.6553 339.088 80.534 313.956 89.8534 300.34C99.1728 286.723 81.428 300.178 79.3873 312.926C79.3873 312.926 76.3359 290.138 85.3735 274.107C94.4111 258.076 77.502 271.238 76.0638 287.754C76.0638 287.754 73.2942 267.42 77.4437 255.995C81.5932 244.571 74.3729 251.955 71.613 259.086C68.8531 266.218 72.4779 283.976 72.4779 283.976C72.4779 283.976 65.2284 251.187 58.3675 253.793C51.5067 256.399 68.6296 277.895 71.0008 289.067C71.0008 289.067 62.9155 274.026 56.7738 277.157C50.6321 280.289 66.2779 281.844 73.4497 304.279L75.9666 314.795C75.9666 314.795 68.513 299.946 63.6443 304.633C58.7757 309.32 78.0851 317.401 82.5747 339.897L85.6553 339.088Z" fill="#36A100"/>
<path d="M84.6558 340.544C84.6558 340.544 83.5771 308.846 68.5144 295.421C53.4518 281.997 78.553 292.633 84.6558 307.26C84.6558 307.26 81.7404 278.976 66.3571 262.612C50.9737 246.248 74.9671 256.743 81.4198 276.087C81.4198 276.087 78.9125 250.834 70.6621 238.47C62.4116 226.106 73.1693 232.632 78.553 240.359C83.9367 248.087 84.6558 270.441 84.6558 270.441C84.6558 270.441 83.9367 228.914 92.9063 229.924C101.876 230.935 87.5226 261.956 87.8821 276.087C87.8821 276.087 93.2561 255.561 101.487 257.41C109.718 259.259 91.468 265.966 89.3009 295.047V308.432C89.3009 308.432 93.9655 288.34 101.147 292.441C108.328 296.542 87.542 312.199 88.5915 340.544H84.6558Z" fill="#36A100"/>
<path opacity="0.2" d="M84.6558 340.544C84.6558 340.544 83.5771 308.846 68.5144 295.421C53.4518 281.997 78.553 292.633 84.6558 307.26C84.6558 307.26 81.7404 278.976 66.3571 262.612C50.9737 246.248 74.9671 256.743 81.4198 276.087C81.4198 276.087 78.9125 250.834 70.6621 238.47C62.4116 226.106 73.1693 232.632 78.553 240.359C83.9367 248.087 84.6558 270.441 84.6558 270.441C84.6558 270.441 83.9367 228.914 92.9063 229.924C101.876 230.935 87.5226 261.956 87.8821 276.087C87.8821 276.087 93.2561 255.561 101.487 257.41C109.718 259.259 91.468 265.966 89.3009 295.047V308.432C89.3009 308.432 93.9655 288.34 101.147 292.441C108.328 296.542 87.542 312.199 88.5915 340.544H84.6558Z" fill="white"/>
<path d="M58.3984 336.039V339.554C58.401 340.681 58.8329 341.762 59.5996 342.558C60.3663 343.355 61.4054 343.804 62.4897 343.807H110.204C111.289 343.804 112.328 343.355 113.094 342.558C113.861 341.762 114.293 340.681 114.296 339.554V336.039H58.3984Z" fill="#263238"/>
<path opacity="0.2" d="M58.3984 336.039V339.554C58.401 340.681 58.8329 341.762 59.5996 342.558C60.3663 343.355 61.4054 343.804 62.4897 343.807H110.204C111.289 343.804 112.328 343.355 113.094 342.558C113.861 341.762 114.293 340.681 114.296 339.554V336.039H58.3984Z" fill="white"/>
<path d="M263.428 135.962C258.103 136.063 251.29 144.861 253.059 161.215C254.828 177.569 257.519 196.095 257.519 196.095C257.519 196.095 267.519 196.035 274.662 193.833C281.804 191.631 290.58 164.185 286.255 151.609C281.931 139.033 277.179 136.215 272.65 134.821C268.122 133.427 263.428 135.962 263.428 135.962Z" fill="#263238"/>
<path d="M278.911 191.772C279.348 196.308 279.61 200.863 279.756 205.348C279.815 207.611 279.873 209.874 279.883 212.146V214.086C279.883 214.753 279.834 215.429 279.766 216.106C279.649 217.389 279.465 218.621 279.241 219.813C278.8 222.156 278.239 224.472 277.56 226.753C276.919 228.995 276.18 231.187 275.393 233.349C273.834 237.656 272.05 241.871 270.048 245.976C269.785 246.509 269.34 246.922 268.801 247.135C268.262 247.348 267.666 247.346 267.128 247.129C266.59 246.911 266.149 246.495 265.89 245.959C265.63 245.423 265.571 244.807 265.724 244.228C266.88 239.976 267.988 235.632 268.979 231.349C269.995 227.159 270.764 222.909 271.282 218.621C271.399 217.611 271.457 216.601 271.477 215.591C271.477 215.106 271.477 214.652 271.477 214.197C271.477 213.742 271.428 213.369 271.35 212.753L270.641 206.055C270.204 201.601 269.815 197.116 269.552 192.661C269.501 191.402 269.921 190.171 270.724 189.226C271.526 188.281 272.649 187.696 273.858 187.593C275.066 187.489 276.266 187.876 277.207 188.672C278.147 189.469 278.754 190.612 278.901 191.863L278.911 191.772Z" fill="#CE7A63"/>
<path d="M275.694 178.186C270.019 181.216 268.085 188.418 269.076 202.429C272.419 205.934 281.709 205.782 281.709 205.782C281.709 205.782 285.888 182.943 275.694 178.186Z" fill="#46B2C8"/>
<path opacity="0.4" d="M282.01 203.105C281.864 204.731 281.709 205.732 281.709 205.732C281.709 205.732 272.418 205.883 269.075 202.378C268.104 188.377 270.047 181.165 275.703 178.135C281.087 180.67 281.883 188.58 282.194 195.024C282.299 197.719 282.238 200.418 282.01 203.105Z" fill="white"/>
<path opacity="0.2" d="M282.009 203.106C275.712 201.349 275.508 192.884 275.508 192.884C277.836 193.207 280.096 193.935 282.194 195.035C282.298 197.727 282.236 200.423 282.009 203.106Z" fill="black"/>
<path d="M275.499 195.187C277.345 197.702 292.991 206.965 300.008 214.511L322.66 202.046C316.683 195.429 311.202 186.752 303.146 167.297C302.752 166.258 302.141 165.324 301.355 164.562C300.57 163.8 299.631 163.23 298.607 162.894C297.583 162.557 296.499 162.462 295.435 162.615C294.371 162.769 293.354 163.168 292.457 163.782C291.427 164.489 290.358 165.257 289.279 166.075C285.444 168.876 281.804 171.954 278.385 175.287C277.287 176.398 276.179 177.59 275.14 178.752C271.359 182.944 272.185 190.682 275.499 195.187Z" fill="#46B2C8"/>
<path opacity="0.4" d="M275.499 195.187C277.345 197.702 292.991 206.965 300.008 214.511L322.66 202.046C316.683 195.429 311.202 186.752 303.146 167.297C302.752 166.258 302.141 165.324 301.355 164.562C300.57 163.8 299.631 163.23 298.607 162.894C297.583 162.557 296.499 162.462 295.435 162.615C294.371 162.769 293.354 163.168 292.457 163.782C291.427 164.489 290.358 165.257 289.279 166.075C285.444 168.876 281.804 171.954 278.385 175.287C277.287 176.398 276.179 177.59 275.14 178.752C271.359 182.944 272.185 190.682 275.499 195.187Z" fill="white"/>
<path d="M303.902 162.488C307.995 163.161 312.035 164.144 315.991 165.427C318.042 166.087 320.051 166.88 322.006 167.801C323.056 168.29 324.078 168.84 325.067 169.448C326.217 170.147 327.284 170.984 328.245 171.943C328.871 172.571 329.416 173.281 329.868 174.054C330.315 174.86 330.642 175.732 330.84 176.64C331.131 177.985 331.249 179.364 331.19 180.741C331.094 183.029 330.785 185.303 330.266 187.529C329.306 191.697 327.955 195.757 326.234 199.651C325.996 200.178 325.584 200.599 325.074 200.838C324.563 201.077 323.987 201.117 323.449 200.952C322.912 200.787 322.45 200.428 322.146 199.939C321.842 199.45 321.716 198.864 321.793 198.287V198.196C322.366 194.267 322.91 190.226 323.172 186.388C323.313 184.569 323.313 182.741 323.172 180.923C323.131 180.234 323.001 179.555 322.784 178.902C322.706 178.731 322.619 178.559 322.628 178.67C322.638 178.781 322.502 178.569 322.346 178.438C321.819 178.051 321.26 177.713 320.675 177.428C319.942 177.048 319.189 176.711 318.42 176.418C316.798 175.781 315.058 175.205 313.27 174.71C309.713 173.7 305.904 172.832 302.308 172.104H302.192C300.967 171.879 299.879 171.158 299.167 170.099C298.454 169.04 298.175 167.73 298.392 166.458C298.608 165.185 299.302 164.054 300.321 163.313C301.34 162.573 302.6 162.283 303.824 162.508L303.902 162.488Z" fill="#CE7A63"/>
<path d="M290.988 164.691C294.875 159.428 300.385 159.388 310.822 162.741C312.562 166.731 309.851 176.136 309.851 176.136C309.851 176.136 295.079 177.327 290.988 164.691Z" fill="#46B2C8"/>
<path opacity="0.4" d="M290.988 164.691C294.875 159.428 300.385 159.388 310.822 162.741C312.562 166.731 309.851 176.136 309.851 176.136C309.851 176.136 295.079 177.327 290.988 164.691Z" fill="white"/>
<path d="M330.636 205.863L328.693 206.348C328.329 206.438 327.949 206.435 327.586 206.342C327.223 206.249 326.886 206.068 326.603 205.813L323.941 203.389C323.414 202.912 323.005 202.311 322.748 201.636C322.491 200.961 322.393 200.232 322.464 199.51L322.551 198.601C325.748 197.59 329.946 198.894 329.946 198.894L331.181 199.136C331.436 199.176 331.682 199.269 331.903 199.41C332.123 199.55 332.315 199.735 332.466 199.953C332.617 200.171 332.725 200.419 332.783 200.681C332.841 200.943 332.848 201.215 332.803 201.479L332.366 204.035C332.28 204.482 332.07 204.892 331.763 205.217C331.456 205.542 331.064 205.766 330.636 205.863Z" fill="#CE7A63"/>
<path d="M329.149 344.08L327.973 344.857L326.72 343.575L323.97 347.979L314.155 354.545C314.155 354.545 311.579 353.949 315.457 349.494C315.644 349.276 315.81 349.039 315.952 348.787L316.118 348.504C317.585 345.827 318.498 340.675 318.664 339.625C318.664 339.504 318.664 339.433 318.664 339.433L323.795 336.019L324.057 335.837L324.378 335.999L324.601 336.12L324.718 336.19L324.99 336.352C326.419 337.231 328.994 339.13 329.149 344.08Z" fill="#263238"/>
<path d="M325.039 336.392C324.777 336.321 324.524 336.533 324.262 336.948C323.718 338.034 323.273 339.17 322.931 340.342C322.487 341.828 321.911 343.269 321.21 344.645C319.772 347.16 317.693 349.231 315.953 348.817L316.118 348.534C317.343 346.19 317.984 341.331 318.227 339.139C318.295 338.442 318.334 338.018 318.334 338.018L322.668 335.119L323.64 335.614L324.106 335.867L324.427 336.028L324.651 336.149L324.767 336.22L325.039 336.382V336.392Z" fill="#CE7A63"/>
<path d="M324.261 336.948C324.514 337.483 324.776 338.018 325.039 338.544C324.932 339.18 323.999 339.867 322.93 340.342C321.667 340.917 320.199 341.2 319.665 340.776L318.693 339.655C318.567 339.493 318.411 339.321 318.256 339.14C317.284 338.008 315.826 336.342 314.077 334.251C302.96 321.018 279.365 291.138 280.968 277.683C283.097 259.764 299.559 210.833 299.559 210.833L326.195 215.217C326.195 215.217 322.794 239.288 298.363 276.916C305.992 289.896 311.269 305.704 317.449 321.18C319.393 326.048 321.424 330.887 323.649 335.584C323.707 335.734 323.776 335.879 323.853 336.018C323.97 336.352 324.116 336.655 324.261 336.948Z" fill="#CE7A63"/>
<path opacity="0.2" d="M329.149 344.079L327.973 344.857L326.72 343.574L323.97 347.978L314.155 354.544C314.155 354.544 311.579 353.948 315.457 349.494C315.644 349.276 315.81 349.039 315.952 348.787L316.118 348.504C317.342 346.16 317.983 341.301 318.226 339.109C317.255 337.978 315.797 336.311 314.048 334.22L317.42 321.18C319.363 326.049 321.394 330.887 323.62 335.584L324.086 335.837L324.407 335.998L324.63 336.12L324.747 336.19L325.019 336.352C326.419 337.231 328.994 339.13 329.149 344.079Z" fill="black"/>
<path d="M307.516 212.177C307.516 212.177 313.648 261.461 317.156 285.179C320.849 310.089 321.315 350.049 320.392 366.343C321.733 367.151 324.648 366.585 327.301 365.727C327.301 365.727 341.528 312.947 333.462 287.633C341.023 230.006 330.09 215.914 330.09 215.914L307.516 212.177Z" fill="#CE7A63"/>
<path d="M278.523 153.942C280.467 158.387 284.48 166.064 288.668 166.549C288.668 166.549 284.937 168.842 281.429 179.337C277.007 178.014 277.765 175.761 277.765 175.761C280.991 171.428 278.737 168.317 276.055 165.892L278.523 153.942Z" fill="#CE7A63"/>
<path opacity="0.2" d="M277.512 158.842L276.055 165.913C276.689 166.478 277.277 167.096 277.814 167.761C279.155 166.266 279.99 162.711 278.989 160.862C278.621 160.1 278.121 159.415 277.512 158.842Z" fill="black"/>
<path d="M258.832 246.299L259.969 244.208C260.178 243.82 260.473 243.49 260.83 243.245C261.186 243.001 261.595 242.85 262.02 242.804L266.053 242.349C266.848 242.26 267.652 242.371 268.398 242.671C269.143 242.972 269.809 243.454 270.338 244.077L271.009 244.854C269.357 248.46 265.023 251.087 265.023 251.087L263.866 251.976C263.635 252.166 263.369 252.307 263.085 252.391C262.801 252.474 262.504 252.497 262.21 252.459C261.917 252.422 261.635 252.324 261.378 252.171C261.122 252.019 260.897 251.815 260.718 251.572L258.978 249.218C258.686 248.798 258.518 248.299 258.492 247.781C258.466 247.263 258.584 246.748 258.832 246.299Z" fill="#CE7A63"/>
<path d="M275.791 144.124C279.328 150.902 280.961 153.69 279.94 159.276C278.405 167.63 269.97 171.024 264.635 165.569C259.834 160.65 254.849 150.417 259.163 143.508C260.039 141.996 261.288 140.756 262.781 139.916C264.273 139.075 265.955 138.665 267.651 138.728C269.348 138.791 270.997 139.324 272.428 140.273C273.86 141.222 275.02 142.551 275.791 144.124Z" fill="#CE7A63"/>
<path d="M269.329 151.216C269.649 151.771 269.64 152.418 269.329 152.65C269.018 152.882 268.483 152.65 268.162 152.064C267.842 151.478 267.842 150.872 268.162 150.64C268.483 150.408 269.008 150.66 269.329 151.216Z" fill="#263238"/>
<path d="M262.854 155.599C263.175 156.155 263.175 156.801 262.854 157.034C262.533 157.266 261.999 157.034 261.678 156.458C261.358 155.882 261.367 155.256 261.678 155.024C261.989 154.791 262.533 155.044 262.854 155.599Z" fill="#263238"/>
<path d="M261.852 154.953L260.434 155.428C260.434 155.428 261.648 156.034 261.852 154.953Z" fill="#263238"/>
<path d="M265.5 155.428C265.788 157.019 265.879 158.641 265.772 160.256C266.149 160.271 266.524 160.197 266.869 160.04C267.214 159.882 267.52 159.646 267.764 159.347L265.5 155.428Z" fill="#BA4D3C"/>
<path d="M271.804 159.327C271.559 159.576 271.296 159.805 271.017 160.014C270.998 160.028 270.976 160.038 270.953 160.043C270.929 160.047 270.905 160.047 270.882 160.041C270.859 160.035 270.838 160.025 270.819 160.009C270.8 159.994 270.785 159.975 270.774 159.953C270.748 159.909 270.74 159.855 270.751 159.805C270.762 159.754 270.791 159.709 270.833 159.68C271.469 159.222 271.999 158.621 272.383 157.922C272.766 157.223 272.994 156.443 273.048 155.64C273.048 155.592 273.067 155.545 273.099 155.511C273.132 155.477 273.177 155.458 273.223 155.458C273.27 155.458 273.314 155.477 273.347 155.511C273.38 155.545 273.398 155.592 273.398 155.64C273.323 157.031 272.755 158.344 271.804 159.327Z" fill="#263238"/>
<path d="M268.209 146.871C268.177 146.908 268.138 146.937 268.095 146.957C268.051 146.976 268.004 146.985 267.956 146.983C267.517 146.964 267.08 147.06 266.684 147.261C266.289 147.462 265.948 147.762 265.692 148.134C265.668 148.176 265.637 148.212 265.599 148.241C265.561 148.269 265.518 148.289 265.472 148.299C265.427 148.31 265.38 148.31 265.334 148.301C265.288 148.292 265.245 148.273 265.206 148.245C265.126 148.184 265.071 148.094 265.053 147.993C265.035 147.891 265.055 147.786 265.109 147.7C265.425 147.22 265.852 146.83 266.352 146.569C266.852 146.307 267.407 146.182 267.966 146.205C268.061 146.212 268.149 146.258 268.212 146.331C268.275 146.404 268.309 146.5 268.306 146.599C268.309 146.649 268.302 146.699 268.285 146.746C268.268 146.793 268.242 146.835 268.209 146.871Z" fill="#263238"/>
<path d="M257.13 153.175C257.039 153.182 256.948 153.153 256.877 153.094C256.811 153.024 256.773 152.93 256.773 152.831C256.773 152.733 256.811 152.639 256.877 152.569C257.24 152.091 257.702 151.705 258.229 151.439C258.756 151.173 259.333 151.034 259.919 151.033C259.966 151.035 260.012 151.048 260.053 151.07C260.095 151.092 260.132 151.124 260.16 151.162C260.189 151.201 260.209 151.245 260.22 151.293C260.23 151.34 260.23 151.39 260.22 151.437C260.206 151.538 260.156 151.63 260.081 151.695C260.006 151.76 259.91 151.794 259.812 151.791C259.348 151.792 258.89 151.903 258.474 152.117C258.058 152.33 257.694 152.64 257.412 153.023C257.377 153.067 257.334 153.103 257.286 153.129C257.237 153.155 257.184 153.171 257.13 153.175Z" fill="#263238"/>
<path d="M268.317 150.559L266.898 151.043C266.898 151.043 268.113 151.639 268.317 150.559Z" fill="#263238"/>
<path d="M264.224 142.457C264.224 142.457 272.114 150.346 277.722 148.265L280.219 154.953C280.219 154.953 285.078 144.851 277.168 137.396C269.257 129.942 252.057 136.386 255.516 157.74C255.536 157.74 257.421 148.185 264.224 142.457Z" fill="#263238"/>
<path d="M280.998 148.043C281.104 149.676 280.587 151.288 279.56 152.528C278.199 154.084 276.44 152.892 275.906 150.811C275.42 148.942 275.556 145.871 277.354 145.104C279.151 144.336 280.862 145.962 280.998 148.043Z" fill="#CE7A63"/>
<path d="M297.645 212.197L320.589 198.924L324.204 202.772C324.204 202.772 332.046 209.621 336.098 222.733C340.151 235.844 336.098 274.572 336.098 274.572L334.194 256.441L324.194 274.522L282.203 264.209L297.927 215.722L297.645 212.197Z" fill="#263238"/>
<path d="M298.23 212.308L298.939 214.681L297.647 215.399L297.258 212.863L298.23 212.308Z" fill="black"/>
<path d="M309.831 205.61L311.23 207.893L299.559 214.338L298.82 211.964L309.831 205.61Z" fill="black"/>
<path d="M318.886 200.378L320.392 202.833L312.171 207.368L310.703 205.105L318.886 200.378Z" fill="black"/>
<path d="M323.34 201.207L321.348 202.308L319.773 199.873L321.416 198.924L323.34 201.207Z" fill="black"/>
<path d="M301.249 210.934L302.153 212.671C302.205 212.776 302.294 212.854 302.401 212.89C302.509 212.926 302.626 212.916 302.726 212.863L306.02 211.075C306.072 211.048 306.117 211.01 306.154 210.964C306.191 210.918 306.219 210.865 306.236 210.807C306.253 210.75 306.26 210.69 306.254 210.63C306.249 210.57 306.232 210.512 306.205 210.459L305.233 208.631C305.207 208.579 305.171 208.533 305.127 208.495C305.083 208.458 305.033 208.43 304.978 208.413C304.924 208.396 304.867 208.391 304.811 208.397C304.755 208.403 304.7 208.421 304.65 208.449L301.385 210.338C301.291 210.399 301.224 210.495 301.199 210.607C301.173 210.719 301.191 210.836 301.249 210.934Z" fill="white"/>
<path d="M327.742 375.616H326.352L325.964 373.838L321.357 375.999H309.696C309.696 375.999 307.84 374.06 313.399 372.514C313.67 372.438 313.934 372.333 314.186 372.201C317.15 370.757 321.367 365.878 321.367 365.878H327.771C327.966 366.186 328.141 366.506 328.296 366.838C328.986 368.292 330.201 371.363 327.742 375.616Z" fill="#263238"/>
<path d="M328.286 366.827C327.441 365.817 323.592 370.151 320.774 371.615C318.257 372.918 315.429 373.494 314.176 372.171C317.14 370.726 321.804 364.413 321.804 364.413H326.955C326.955 364.413 327.985 366.201 328.286 366.827Z" fill="#CE7A63"/>
<path d="M289.637 178.701C288.927 176.872 281.95 178.165 281.95 178.165C279.433 179.176 276.741 184.044 278.325 185.236C279.618 186.176 280.92 181.287 281.075 180.721L280.026 187.863H281.785L282.134 180.873L285.749 186.236L287.314 185.226L283.019 179.701C288.13 182.226 290.327 180.529 289.637 178.701ZM278.879 183.751C278.568 182.65 280.405 180.347 280.405 180.347C280.405 180.347 279.19 184.863 278.879 183.762V183.751ZM283.612 178.822C283.612 178.822 288.004 178.822 288.101 179.529C288.198 180.236 284.681 179.6 283.66 178.832L283.612 178.822Z" fill="#46B2C8"/>
<path d="M282.203 177.176C284.788 175.56 289.375 177.479 289.375 177.479C289.375 177.479 290.735 169.772 290.24 165.357C289.22 165.542 288.192 165.67 287.159 165.741C287.159 165.741 282.466 174.661 282.203 177.176Z" fill="white"/>
<path d="M279.686 178.681C279.686 178.681 277.072 179.367 277.12 183.933C274.205 176.994 276.984 175.539 278.529 174.6C278.236 175.314 278.192 176.111 278.403 176.856C278.614 177.601 279.067 178.246 279.686 178.681Z" fill="white"/>
<path d="M156.227 105.508H146.383L147.267 93.0126C147.289 92.6777 147.433 92.364 147.67 92.1352C147.906 91.9063 148.217 91.7795 148.54 91.7803H154.07C154.393 91.7795 154.704 91.9063 154.94 92.1352C155.177 92.364 155.32 92.6777 155.343 93.0126L156.227 105.508Z" fill="#FF5454"/>
<path d="M146.037 102.204H156.581C156.916 102.204 157.237 102.342 157.474 102.589C157.711 102.835 157.844 103.169 157.844 103.517V106.911H144.773V103.517C144.773 103.169 144.907 102.835 145.143 102.589C145.38 102.342 145.702 102.204 146.037 102.204Z" fill="#263238"/>
<path opacity="0.6" d="M146.037 102.204H156.581C156.916 102.204 157.237 102.342 157.474 102.589C157.711 102.835 157.844 103.169 157.844 103.517V106.911H144.773V103.517C144.773 103.169 144.907 102.835 145.143 102.589C145.38 102.342 145.702 102.204 146.037 102.204Z" fill="white"/>
<path opacity="0.6" d="M150.661 101.062C151.885 101.062 152.877 100.031 152.877 98.7591C152.877 97.4872 151.885 96.4561 150.661 96.4561C149.437 96.4561 148.445 97.4872 148.445 98.7591C148.445 100.031 149.437 101.062 150.661 101.062Z" fill="white"/>
<path opacity="0.4" d="M153.272 96.6584C153.852 96.6584 154.322 96.17 154.322 95.5675C154.322 94.965 153.852 94.4766 153.272 94.4766C152.693 94.4766 152.223 94.965 152.223 95.5675C152.223 96.17 152.693 96.6584 153.272 96.6584Z" fill="white"/>
<path d="M230.131 105.508H220.277L221.162 93.0126C221.186 92.6768 221.332 92.3631 221.57 92.1344C221.808 91.9058 222.12 91.7793 222.444 91.7803H227.974C228.297 91.7795 228.608 91.9063 228.844 92.1352C229.081 92.364 229.225 92.6777 229.247 93.0126L230.131 105.508Z" fill="#FF5454"/>
<path d="M219.937 102.204H230.481C230.816 102.204 231.137 102.342 231.374 102.589C231.611 102.835 231.744 103.169 231.744 103.517V106.911H218.664V103.517C218.664 103.344 218.697 103.172 218.761 103.012C218.825 102.852 218.919 102.707 219.038 102.585C219.156 102.463 219.296 102.367 219.451 102.301C219.605 102.236 219.77 102.203 219.937 102.204Z" fill="#263238"/>
<path opacity="0.6" d="M219.937 102.204H230.481C230.816 102.204 231.137 102.342 231.374 102.589C231.611 102.835 231.744 103.169 231.744 103.517V106.911H218.664V103.517C218.664 103.344 218.697 103.172 218.761 103.012C218.825 102.852 218.919 102.707 219.038 102.585C219.156 102.463 219.296 102.367 219.451 102.301C219.605 102.236 219.77 102.203 219.937 102.204Z" fill="white"/>
<path opacity="0.6" d="M224.567 101.062C225.791 101.062 226.783 100.031 226.783 98.7591C226.783 97.4872 225.791 96.4561 224.567 96.4561C223.344 96.4561 222.352 97.4872 222.352 98.7591C222.352 100.031 223.344 101.062 224.567 101.062Z" fill="white"/>
<path opacity="0.4" d="M227.178 96.6584C227.758 96.6584 228.228 96.17 228.228 95.5675C228.228 94.965 227.758 94.4766 227.178 94.4766C226.599 94.4766 226.129 94.965 226.129 95.5675C226.129 96.17 226.599 96.6584 227.178 96.6584Z" fill="white"/>
<path d="M165.316 84.3652H211.194C211.738 84.3652 212.259 84.5898 212.644 84.9895C213.029 85.3892 213.245 85.9313 213.245 86.4966V108.79H163.266V86.4966C163.266 85.9313 163.482 85.3892 163.866 84.9895C164.251 84.5898 164.772 84.3652 165.316 84.3652Z" fill="#263238"/>
<path d="M144.295 104.659H233.038C234.628 104.659 236.154 105.316 237.278 106.485C238.402 107.653 239.034 109.239 239.034 110.892V375.99H138.309V110.882C138.311 109.232 138.943 107.651 140.065 106.485C141.187 105.318 142.708 104.662 144.295 104.659Z" fill="#263238"/>
<path opacity="0.3" d="M144.295 104.659H233.038C234.628 104.659 236.154 105.316 237.278 106.485C238.402 107.653 239.034 109.239 239.034 110.892V375.99H138.309V110.882C138.311 109.232 138.943 107.651 140.065 106.485C141.187 105.318 142.708 104.662 144.295 104.659Z" fill="white"/>
<path d="M221.417 120.468H143.285V293.422H221.417V120.468Z" fill="#263238"/>
<path d="M219.471 123.043H145.227V155.498H219.471V123.043Z" fill="#FF5454"/>
<path opacity="0.4" d="M219.471 123.043H145.227V155.498H219.471V123.043Z" fill="black"/>
<path d="M175.865 133.882V143.135H174.204V139.165H169.597V143.135H167.945V133.882H169.597V137.7H174.204V133.882H175.865Z" fill="white"/>
<path d="M178.258 133.882H179.91V143.135H178.258V133.882Z" fill="white"/>
<path d="M188.425 138.397H189.989V142.094C188.987 142.876 187.763 143.289 186.51 143.266C185.884 143.308 185.256 143.217 184.665 142.997C184.075 142.777 183.534 142.433 183.076 141.987C182.618 141.541 182.253 141.003 182.003 140.404C181.754 139.806 181.625 139.16 181.625 138.508C181.625 137.856 181.754 137.21 182.003 136.612C182.253 136.014 182.618 135.475 183.076 135.029C183.534 134.583 184.075 134.239 184.665 134.019C185.256 133.799 185.884 133.708 186.51 133.75C187.176 133.718 187.84 133.835 188.457 134.095C189.075 134.355 189.63 134.751 190.086 135.255L189.047 136.266C188.726 135.93 188.342 135.668 187.919 135.494C187.496 135.32 187.043 135.239 186.588 135.255C185.758 135.255 184.962 135.598 184.375 136.208C183.789 136.818 183.459 137.645 183.459 138.508C183.459 139.371 183.789 140.198 184.375 140.808C184.962 141.418 185.758 141.761 186.588 141.761C187.227 141.774 187.857 141.61 188.415 141.286L188.425 138.397Z" fill="white"/>
<path d="M200.084 133.882V143.135H198.432V139.165H193.826V143.135H192.164V133.882H193.826V137.7H198.432V133.882H200.084Z" fill="white"/>
<path d="M219.471 156.943H145.227V189.399H219.471V156.943Z" fill="#FF993C"/>
<g opacity="0.2">
<path d="M219.471 156.943H145.227V189.399H219.471V156.943Z" fill="black"/>
</g>
<path d="M219.471 190.843H145.227V223.298H219.471V190.843Z" fill="#FF993C"/>
<path d="M176.13 210.945V204.803L173.214 209.854H172.476L169.561 204.853V210.914H167.977V201.651H169.337L172.874 207.793L176.353 201.651H177.733V210.914L176.13 210.945Z" fill="white"/>
<path d="M186.782 209.5V210.945H180.105V201.682H186.607V203.126H181.748V205.53H186.043V206.944H181.748V209.5H186.782Z" fill="white"/>
<path d="M188.625 201.682H192.512C195.427 201.682 197.371 203.54 197.371 206.318C197.371 209.096 195.427 210.945 192.512 210.945H188.625V201.682ZM192.444 209.49C192.86 209.514 193.276 209.45 193.667 209.302C194.059 209.153 194.417 208.923 194.719 208.626C195.022 208.328 195.263 207.97 195.428 207.572C195.593 207.174 195.678 206.746 195.678 206.313C195.678 205.88 195.593 205.452 195.428 205.054C195.263 204.657 195.022 204.298 194.719 204.001C194.417 203.703 194.059 203.473 193.667 203.325C193.276 203.176 192.86 203.112 192.444 203.136H190.277V209.5L192.444 209.49Z" fill="white"/>
<path d="M219.471 224.753H145.227V257.208H219.471V224.753Z" fill="#81DD6A"/>
<g opacity="0.2">
<path d="M219.471 224.753H145.227V257.208H219.471V224.753Z" fill="white"/>
</g>
<path d="M219.471 258.653H145.227V291.109H219.471V258.653Z" fill="#81DD6A"/>
<path opacity="0.4" d="M219.471 258.653H145.227V291.109H219.471V258.653Z" fill="white"/>
<path d="M167.945 269.491H169.597V277.299H174.262V278.754H167.945V269.491Z" fill="white"/>
<path d="M174.817 274.149C174.775 273.154 175.019 272.168 175.52 271.319C176.021 270.469 176.755 269.795 177.628 269.383C178.5 268.971 179.472 268.84 180.416 269.007C181.361 269.174 182.237 269.63 182.929 270.319C183.622 271.007 184.101 271.895 184.305 272.868C184.508 273.842 184.426 274.856 184.07 275.781C183.714 276.706 183.099 277.499 182.306 278.058C181.512 278.616 180.576 278.916 179.618 278.917C178.997 278.951 178.375 278.853 177.792 278.629C177.209 278.404 176.676 278.058 176.226 277.611C175.777 277.165 175.42 276.627 175.177 276.031C174.935 275.436 174.812 274.795 174.817 274.149ZM182.747 274.149C182.747 273.505 182.564 272.877 182.22 272.342C181.876 271.807 181.387 271.39 180.815 271.144C180.244 270.898 179.614 270.833 179.007 270.959C178.4 271.084 177.843 271.394 177.405 271.849C176.968 272.304 176.67 272.883 176.549 273.514C176.428 274.145 176.49 274.799 176.727 275.394C176.964 275.988 177.365 276.496 177.879 276.853C178.394 277.211 178.999 277.401 179.618 277.401C180.028 277.407 180.435 277.326 180.814 277.164C181.194 277.002 181.538 276.762 181.826 276.458C182.113 276.154 182.339 275.793 182.489 275.396C182.639 274.999 182.71 274.575 182.698 274.149H182.747Z" fill="white"/>
<path d="M198.858 269.491L195.942 278.754H194.183L191.987 271.895L189.742 278.754H187.935L185.02 269.491H186.73L188.946 276.562L191.249 269.491H192.774L195.029 276.562L197.303 269.491H198.858Z" fill="white"/>
<path d="M233.971 120.468H226.391V293.422H233.971V120.468Z" fill="#263238"/>
<path d="M179.932 100.709L178.115 97.9916C177.999 98.0017 177.882 98.0017 177.765 97.9916H175.793V100.689H174.141V91.4258H177.736C180.078 91.4258 181.526 92.6682 181.526 94.7188C181.552 95.3601 181.376 95.9926 181.025 96.521C180.675 97.0494 180.168 97.445 179.583 97.6482L181.633 100.679L179.932 100.709ZM177.736 92.9006H175.793V96.5976H177.736C179.194 96.5976 179.942 95.9007 179.942 94.739C179.942 93.5774 179.145 92.9006 177.736 92.9006Z" fill="white"/>
<path d="M183.398 91.4463H185.06V100.709H183.398V91.4463Z" fill="white"/>
<path d="M186.711 99.7295L187.284 98.3961C188.129 99.0435 189.15 99.397 190.2 99.4062C191.589 99.4062 192.143 98.8911 192.143 98.2042C192.143 96.1839 186.847 97.5173 186.847 94.0828C186.847 92.5878 187.994 91.3151 190.443 91.3151C191.484 91.2994 192.51 91.5825 193.407 92.1333L192.882 93.4767C192.14 93.007 191.291 92.7524 190.423 92.7394C189.053 92.7394 188.48 93.305 188.48 94.002C188.48 96.0223 193.766 94.6889 193.766 98.093C193.766 99.5678 192.61 100.841 190.161 100.841C188.926 100.865 187.716 100.475 186.711 99.7295Z" fill="white"/>
<path d="M198.532 96.8306L197.172 98.3862V100.76H195.52V91.4971H197.172V96.2447L201.574 91.4971H203.43L199.688 95.6386L203.663 100.76H201.72L198.532 96.8306Z" fill="white"/>
<path d="M220.784 292.876L216.207 291.361L220.784 289.846V292.876Z" fill="#263238"/>
<path d="M220.784 287.158L216.207 285.643L220.784 284.128V287.158Z" fill="#263238"/>
<path d="M220.784 281.442L216.207 279.926L220.784 278.411V281.442Z" fill="#263238"/>
<path d="M220.784 275.734L216.207 274.219L220.784 272.704V275.734Z" fill="#263238"/>
<path d="M220.784 270.018L216.207 268.502L220.784 266.987V270.018Z" fill="#263238"/>
<path d="M220.784 264.3L216.207 262.785L220.784 261.27V264.3Z" fill="#263238"/>
<path d="M220.784 259.006L216.207 257.491L220.784 255.976V259.006Z" fill="#263238"/>
<path d="M220.784 253.299L216.207 251.784L220.784 250.269V253.299Z" fill="#263238"/>
<path d="M220.784 247.582L216.207 246.067L220.784 244.552V247.582Z" fill="#263238"/>
<path d="M220.784 241.875L216.207 240.36L220.784 238.845V241.875Z" fill="#263238"/>
<path d="M220.784 236.157L216.207 234.642L220.784 233.127V236.157Z" fill="#263238"/>
<path d="M220.784 230.441L216.207 228.925L220.784 227.41V230.441Z" fill="#263238"/>
<path d="M220.784 225.147L216.207 223.631L220.784 222.116V225.147Z" fill="#263238"/>
<path d="M220.784 219.44L216.207 217.924L220.784 216.409V219.44Z" fill="#263238"/>
<path d="M220.784 213.723L216.207 212.208L220.784 210.692V213.723Z" fill="#263238"/>
<path d="M220.784 208.015L216.207 206.5L220.784 204.984V208.015Z" fill="#263238"/>
<path d="M220.784 202.298L216.207 200.783L220.784 199.268V202.298Z" fill="#263238"/>
<path d="M220.784 196.58L216.207 195.065L220.784 193.55V196.58Z" fill="#263238"/>
<path d="M220.784 191.287L216.207 189.772L220.784 188.257V191.287Z" fill="#263238"/>
<path d="M220.784 185.58L216.207 184.065L220.784 182.55V185.58Z" fill="#263238"/>
<path d="M220.784 179.862L216.207 178.347L220.784 176.832V179.862Z" fill="#263238"/>
<path d="M220.784 174.146L216.207 172.63L220.784 171.115V174.146Z" fill="#263238"/>
<path d="M220.784 168.439L216.207 166.923L220.784 165.408V168.439Z" fill="#263238"/>
<path d="M220.784 162.721L216.207 161.206L220.784 159.69V162.721Z" fill="#263238"/>
<path d="M220.784 157.428L216.207 155.913L220.784 154.397V157.428Z" fill="#263238"/>
<path d="M220.784 151.711L216.207 150.196L220.784 148.681V151.711Z" fill="#263238"/>
<path d="M220.784 146.003L216.207 144.488L220.784 142.973V146.003Z" fill="#263238"/>
<path d="M220.784 140.286L216.207 138.771L220.784 137.256V140.286Z" fill="#263238"/>
<path d="M220.784 134.579L216.207 133.064L220.784 131.549V134.579Z" fill="#263238"/>
<path d="M220.784 128.861L216.207 127.346L220.784 125.831V128.861Z" fill="#263238"/>
<path d="M226.391 254.805V267.623L244.31 254.805H226.391Z" fill="#263238"/>
<path opacity="0.4" d="M226.391 254.805V267.623L244.31 254.805H226.391Z" fill="white"/>
<path d="M220.23 247.562L211.008 251.602L220.23 255.643H270.19C270.531 255.643 270.858 255.502 271.1 255.253C271.342 255.003 271.479 254.664 271.482 254.309V248.895C271.479 248.54 271.342 248.201 271.1 247.951C270.858 247.702 270.531 247.562 270.19 247.562H220.23Z" fill="#263238"/>
<path opacity="0.6" d="M220.23 247.562L211.008 251.602L220.23 255.643H270.19C270.531 255.643 270.858 255.502 271.1 255.253C271.342 255.003 271.479 254.664 271.482 254.309V248.895C271.479 248.54 271.342 248.201 271.1 247.951C270.858 247.702 270.531 247.562 270.19 247.562H220.23Z" fill="white"/>
<path opacity="0.6" d="M220.121 247.592L210.977 251.582L220.121 255.562V247.592Z" fill="white"/>
<path opacity="0.6" d="M219.092 249.521L214.379 251.582L219.092 253.633V249.521Z" fill="#46B2C8"/>
<path opacity="0.2" d="M233.475 359.565H143.77V303.108H233.475V359.565ZM144.741 358.554H232.503V304.119H144.741V358.554Z" fill="black"/>
<path opacity="0.2" d="M239.034 367.828H138.309V368.838H239.034V367.828Z" fill="black"/>
</g>
<defs>
<clipPath id="clip0_471_8423">
<rect width="406" height="419" fill="white"/>
</clipPath>
</defs>
</svg>
