<svg width="615" height="410" viewBox="0 0 615 410" fill="none" xmlns="http://www.w3.org/2000/svg">
<path d="M579.78 363.728C579.78 363.843 456.518 363.941 304.498 363.941C152.478 363.941 29.1914 363.843 29.1914 363.728C29.1914 363.613 152.429 363.515 304.498 363.515C456.567 363.515 579.78 363.605 579.78 363.728Z" fill="#263238"/>
<path d="M96.9058 77.0801H514.089C515.555 77.0801 516.961 77.6624 517.997 78.6988C519.033 79.7353 519.616 81.1411 519.616 82.6069V348.861C519.614 352.027 518.355 355.062 516.116 357.301C513.878 359.539 510.842 360.798 507.677 360.8H102.498C99.3295 360.8 96.2907 359.541 94.0501 357.301C91.8095 355.06 90.5508 352.021 90.5508 348.853V83.4269C90.553 81.7428 91.2235 80.1285 92.415 78.9385C93.6066 77.7485 95.2218 77.0801 96.9058 77.0801Z" fill="#455A64"/>
<path d="M72.6094 339.824H537.467V353.42C537.467 356.404 536.282 359.265 534.172 361.375C532.062 363.485 529.201 364.67 526.217 364.67H83.8598C80.876 364.67 78.0144 363.485 75.9045 361.375C73.7947 359.265 72.6094 356.404 72.6094 353.42V339.824Z" fill="#455A64"/>
<path d="M506.896 88.3389H102.062V327.951H506.896V88.3389Z" fill="#F5F5F5"/>
<path d="M262.785 339.824L268.558 349H349.73L355.084 339.824H262.785Z" fill="#263238"/>
<path d="M519.69 339.734H90.6172V341.104H519.69V339.734Z" fill="#263238"/>
<path d="M216.692 77.08H172.117V61.3688C172.117 50.2906 181.096 40.918 192.174 40.918L216.692 41.3034V77.08Z" fill="#E0E0E0"/>
<path d="M191.215 40.8936C191.215 40.8936 216.586 38.5894 216.586 71.6764V329.033H415.682V62.3202C415.681 59.4455 415.113 56.5993 414.011 53.9442C412.909 51.2892 411.294 48.8774 409.259 46.847C407.224 44.8166 404.809 43.2073 402.151 42.1112C399.493 41.0151 396.646 40.4536 393.771 40.459L191.215 40.8936Z" fill="white"/>
<path d="M191.216 40.8937L338.512 40.4181L374.182 40.3196L393.149 40.2622C396.471 40.171 399.772 40.8291 402.805 42.1875C405.839 43.546 408.528 45.5701 410.672 48.1096C412.866 50.7239 414.424 53.8115 415.223 57.1297C415.433 57.9633 415.589 58.8097 415.691 59.6635C415.805 60.4835 415.797 61.3773 415.855 62.2383C415.855 63.9493 415.855 65.6713 415.855 67.4042C415.855 74.3086 415.855 81.3251 415.855 88.4537C415.855 102.694 415.855 117.342 415.855 132.397C415.855 192.536 415.855 258.677 415.855 328.049V329.247H415.641H216.545H216.349V329.05C216.349 239.949 216.406 164.287 216.431 110.93C216.431 97.5802 216.431 85.6246 216.431 75.2024C216.431 72.5948 216.431 70.0857 216.283 67.6831C216.14 65.3772 215.822 63.0856 215.332 60.8279C214.861 58.7704 214.208 56.759 213.38 54.8173C212.602 53.0831 211.645 51.4343 210.527 49.8972C208.611 47.3411 206.156 45.2385 203.335 43.7391C201.274 42.6491 199.064 41.8699 196.775 41.4267C195.387 41.1445 193.977 40.9853 192.56 40.951C191.609 40.951 191.117 40.951 191.117 40.951C191.598 40.9224 192.08 40.9224 192.56 40.951C193.981 40.9747 195.397 41.1229 196.792 41.3939C199.08 41.8315 201.29 42.6052 203.352 43.6899C206.192 45.1843 208.665 47.2904 210.592 49.8562C211.721 51.3928 212.688 53.0415 213.479 54.7763C214.314 56.7257 214.976 58.7453 215.455 60.8115C215.951 63.077 216.274 65.3768 216.422 67.6913C216.603 70.1021 216.578 72.6113 216.578 75.2189C216.578 85.6411 216.578 97.5967 216.578 110.946C216.578 164.336 216.619 239.998 216.652 329.066L216.455 328.878H415.551L415.338 329.091V328.107C415.338 258.71 415.338 192.594 415.338 132.455C415.338 117.416 415.338 102.768 415.338 88.5111V67.4042C415.289 63.952 415.592 60.4916 414.723 57.2116C413.975 53.9767 412.497 50.9559 410.402 48.3803C408.297 45.8803 405.656 43.8868 402.674 42.5481C399.693 41.2094 396.448 40.5598 393.182 40.6477H374.174L338.447 40.7051L191.216 40.8937Z" fill="#263238"/>
<path d="M301.807 118.998C301.807 119.113 289.696 119.212 274.747 119.212C259.799 119.212 247.688 119.113 247.688 118.998C247.688 118.884 259.791 118.785 274.747 118.785C289.704 118.785 301.807 118.9 301.807 118.998Z" fill="#263238"/>
<path d="M313.929 125.46C313.929 125.583 299.112 125.673 280.826 125.673C262.54 125.673 247.73 125.583 247.73 125.46C247.73 125.337 262.548 125.247 280.826 125.247C299.103 125.247 313.929 125.345 313.929 125.46Z" fill="#263238"/>
<path d="M318.273 150.921C318.273 151.036 302.972 151.134 284.096 151.134C265.219 151.134 249.918 151.036 249.918 150.921C249.918 150.806 265.219 150.708 284.096 150.708C302.972 150.708 318.273 150.798 318.273 150.921Z" fill="#263238"/>
<path d="M362.924 175.735C362.924 175.849 337.34 175.948 305.786 175.948C274.232 175.948 248.648 175.849 248.648 175.735C248.648 175.62 274.224 175.521 305.786 175.521C337.348 175.521 362.924 175.612 362.924 175.735Z" fill="#263238"/>
<path d="M362.924 183.131C362.924 183.254 337.34 183.344 305.786 183.344C274.232 183.344 248.648 183.254 248.648 183.131C248.648 183.008 274.224 182.918 305.786 182.918C337.348 182.918 362.924 183.016 362.924 183.131Z" fill="#263238"/>
<path d="M362.924 190.535C362.924 190.658 337.34 190.749 305.786 190.749C274.232 190.749 248.648 190.658 248.648 190.535C248.648 190.412 274.224 190.322 305.786 190.322C337.348 190.322 362.924 190.421 362.924 190.535Z" fill="#263238"/>
<path d="M362.924 197.94C362.924 198.055 337.34 198.153 305.786 198.153C274.232 198.153 248.648 198.055 248.648 197.94C248.648 197.825 274.224 197.727 305.786 197.727C337.348 197.727 362.924 197.825 362.924 197.94Z" fill="#263238"/>
<path d="M362.924 205.345C362.924 205.46 337.34 205.558 305.786 205.558C274.232 205.558 248.648 205.46 248.648 205.345C248.648 205.23 274.224 205.132 305.786 205.132C337.348 205.132 362.924 205.222 362.924 205.345Z" fill="#263238"/>
<path d="M291.985 212.749C291.985 212.864 282.277 212.963 270.313 212.963C258.349 212.963 248.648 212.864 248.648 212.749C248.648 212.635 258.349 212.536 270.313 212.536C282.277 212.536 291.985 212.626 291.985 212.749Z" fill="#263238"/>
<path d="M274 80.7535C273.994 80.1188 274.12 79.4897 274.368 78.9057C274.617 78.3218 274.984 77.7957 275.447 77.3605C275.909 76.9254 276.456 76.5905 277.054 76.3771C277.651 76.1637 278.287 76.0764 278.92 76.1205C279.642 76.0817 280.362 76.2094 281.026 76.4938C281.69 76.7782 282.28 77.2116 282.75 77.7605L281.151 79.2119C280.904 78.8885 280.587 78.6262 280.223 78.4456C279.859 78.265 279.458 78.1708 279.051 78.1705C278.377 78.1705 277.731 78.4383 277.254 78.9151C276.777 79.3918 276.509 80.0383 276.509 80.7125C276.509 81.3867 276.777 82.0333 277.254 82.51C277.731 82.9867 278.377 83.2545 279.051 83.2545C279.458 83.2542 279.859 83.1601 280.223 82.9794C280.587 82.7988 280.904 82.5366 281.151 82.2131L282.75 83.6563C282.284 84.2127 281.696 84.6539 281.032 84.9455C280.368 85.2371 279.645 85.3712 278.92 85.3373C278.291 85.3812 277.66 85.2952 277.065 85.0848C276.471 84.8743 275.926 84.5439 275.465 84.114C275.003 83.6842 274.635 83.164 274.383 82.5859C274.131 82.0078 274.001 81.3841 274 80.7535Z" fill="#263238"/>
<path d="M290.982 83.2544V85.1978H283.84V76.3008H290.818V78.2442H286.324V79.7448H290.285V81.6308H286.324V83.2708L290.982 83.2544Z" fill="#263238"/>
<path d="M361.47 83.2544V85.1978H354.328V76.3008H361.306V78.2442H356.813V79.7448H360.773V81.6308H356.813V83.2708L361.47 83.2544Z" fill="#263238"/>
<path d="M296.27 82.8198H294.9V85.1814H292.383V76.3008H296.483C298.943 76.3008 300.435 77.5554 300.435 79.5808C300.457 80.1691 300.302 80.7505 299.991 81.2502C299.68 81.7499 299.226 82.1452 298.689 82.3852L300.616 85.1814H297.918L296.27 82.8198ZM296.27 78.2688H294.876V80.8764H296.27C297.311 80.8764 297.836 80.3926 297.836 79.5808C297.836 78.769 297.336 78.2852 296.294 78.2852L296.27 78.2688Z" fill="#263238"/>
<path d="M303.551 78.2934H300.82V76.3008H308.791V78.2934H306.068V85.1978H303.551V78.2934Z" fill="#263238"/>
<path d="M309.734 76.3008H312.252V85.1978H309.734V76.3008Z" fill="#263238"/>
<path d="M316.564 78.2442V80.204H320.492V82.1474H316.564V85.1978H314.047V76.3008H321.025V78.2442H316.564Z" fill="#263238"/>
<path d="M322.207 76.3008H324.724V85.1978H322.207V76.3008Z" fill="#263238"/>
<path d="M326.063 80.7539C326.058 80.1195 326.184 79.491 326.433 78.9076C326.683 78.3242 327.05 77.7987 327.512 77.3637C327.973 76.9288 328.52 76.5939 329.117 76.3801C329.715 76.1662 330.35 76.078 330.983 76.1209C331.703 76.0821 332.422 76.2099 333.085 76.4943C333.748 76.7787 334.336 77.2122 334.804 77.7609L333.205 79.2123C332.959 78.8884 332.642 78.6258 332.277 78.4451C331.913 78.2644 331.512 78.1706 331.106 78.1709C330.431 78.1709 329.785 78.4387 329.308 78.9154C328.831 79.3922 328.564 80.0387 328.564 80.7129C328.564 81.3871 328.831 82.0337 329.308 82.5104C329.785 82.9871 330.431 83.2549 331.106 83.2549C331.512 83.2552 331.913 83.1614 332.277 82.9807C332.642 82.8 332.959 82.5374 333.205 82.2135L334.804 83.6567C334.34 84.2129 333.753 84.6541 333.091 84.9458C332.428 85.2374 331.706 85.3716 330.983 85.3377C328.137 85.3787 326.063 83.4599 326.063 80.7539Z" fill="#263238"/>
<path d="M341.707 83.4676H337.952L337.246 85.1978H334.68L338.607 76.3008H341.067L345.003 85.1978H342.388L341.707 83.4676ZM340.977 81.6144L339.829 78.769L338.681 81.6144H340.977Z" fill="#263238"/>
<path d="M347.192 78.2934H344.461V76.3008H352.431V78.2934H349.709V85.1978H347.192V78.2934Z" fill="#263238"/>
<path d="M379.661 243.999C379.661 244.114 368.312 244.213 354.323 244.213C340.334 244.213 328.977 244.114 328.977 243.999C328.977 243.885 340.325 243.786 354.323 243.786C368.32 243.786 379.661 243.885 379.661 243.999Z" fill="#263238"/>
<path d="M379.661 251.15C379.661 251.264 368.312 251.363 354.323 251.363C340.334 251.363 328.977 251.264 328.977 251.15C328.977 251.035 340.301 250.92 354.331 250.92C368.361 250.92 379.661 251.035 379.661 251.15Z" fill="#263238"/>
<path d="M376.108 282.135C376.096 282.015 376.096 281.894 376.108 281.774C376.108 281.52 376.067 281.176 376.034 280.733C376.034 280.503 376.017 280.249 375.985 279.97C375.985 279.683 375.894 279.38 375.845 279.052C375.744 278.287 375.587 277.531 375.378 276.789C374.861 274.736 374.031 272.775 372.918 270.975C370.316 266.622 366.278 263.313 361.499 261.617C356.72 259.922 351.499 259.945 346.735 261.684C345.762 262.035 344.814 262.451 343.898 262.931C342.97 263.442 342.077 264.014 341.225 264.645C340.36 265.29 339.538 265.991 338.765 266.744C338 267.538 337.288 268.382 336.633 269.269C335.279 271.086 334.23 273.11 333.525 275.264C332.027 279.719 332.027 284.543 333.525 288.999C334.23 291.152 335.279 293.176 336.633 294.993C337.288 295.88 338 296.724 338.765 297.518C339.538 298.271 340.36 298.972 341.225 299.618C342.898 300.884 344.757 301.885 346.735 302.586C350.388 303.911 354.327 304.242 358.15 303.545C361.195 302.976 364.085 301.767 366.63 299.999C369.174 298.231 371.314 295.943 372.91 293.287C374.023 291.487 374.852 289.526 375.37 287.473C375.58 286.731 375.736 285.975 375.837 285.21C375.886 284.882 375.944 284.579 375.976 284.3C376.009 284.021 375.976 283.759 376.026 283.529C376.026 283.086 376.083 282.709 376.099 282.488C376.087 282.371 376.087 282.252 376.099 282.135C376.11 282.252 376.11 282.37 376.099 282.488V283.537C376.099 283.767 376.099 284.029 376.099 284.308C376.099 284.587 376.026 284.899 375.976 285.235C375.894 286.005 375.751 286.767 375.55 287.514C375.06 289.591 374.252 291.58 373.156 293.41C370.546 297.848 366.465 301.231 361.621 302.975C356.777 304.718 351.476 304.711 346.637 302.955C345.644 302.601 344.677 302.179 343.742 301.692C342.794 301.177 341.884 300.593 341.02 299.946C340.131 299.292 339.287 298.58 338.494 297.814C337.714 297.004 336.988 296.144 336.321 295.239C334.939 293.388 333.868 291.325 333.148 289.13C331.617 284.589 331.617 279.673 333.148 275.132C333.869 272.938 334.941 270.875 336.321 269.023C336.988 268.118 337.717 267.261 338.502 266.457C339.293 265.688 340.134 264.973 341.02 264.317C343.507 262.48 346.353 261.186 349.372 260.519C352.392 259.853 355.518 259.828 358.547 260.446C361.577 261.064 364.443 262.313 366.96 264.109C369.476 265.906 371.587 268.212 373.156 270.877C374.251 272.708 375.058 274.696 375.55 276.772C375.752 277.523 375.895 278.288 375.976 279.06C376.026 279.396 376.075 279.7 376.099 279.979C376.124 280.257 376.099 280.52 376.099 280.758V281.799C376.112 281.911 376.114 282.023 376.108 282.135Z" fill="#FF993C"/>
<path d="M368.05 285.473C369.855 277.886 365.168 270.273 357.581 268.468C349.994 266.663 342.381 271.351 340.576 278.938C338.772 286.524 343.459 294.138 351.046 295.942C358.633 297.747 366.246 293.06 368.05 285.473Z" fill="#FF993C"/>
<path d="M385.726 270.059L385.135 270.387L383.372 271.321L376.591 274.856L365.874 280.44C364.784 281.007 363.605 281.384 362.389 281.555C361.726 281.638 361.053 281.58 360.414 281.385C359.776 281.19 359.185 280.863 358.682 280.423C358.147 279.961 357.767 279.345 357.592 278.66C357.491 278.303 357.482 277.926 357.563 277.564C357.645 277.202 357.815 276.866 358.059 276.586C358.571 276.026 359.278 275.685 360.035 275.635C360.431 275.581 360.834 275.657 361.183 275.853C361.533 276.048 361.809 276.351 361.97 276.717V276.774C361.991 279.142 361.148 281.436 359.601 283.228C358.791 284.196 357.791 284.987 356.662 285.552C355.534 286.116 354.301 286.442 353.041 286.508C351.711 286.579 350.381 286.383 349.129 285.931C347.876 285.479 346.728 284.78 345.751 283.876C344.694 282.95 343.959 281.712 343.652 280.341C343.51 279.619 343.608 278.871 343.93 278.209C344.258 277.532 344.825 277.001 345.521 276.717C345.882 276.578 346.272 276.534 346.655 276.587C347.038 276.64 347.401 276.789 347.711 277.02C348.301 277.492 348.733 278.133 348.949 278.857C349.182 279.557 349.296 280.292 349.285 281.03C349.318 281.396 349.318 281.763 349.285 282.129C349.267 282.498 349.221 282.866 349.146 283.228C348.568 286.21 346.946 288.888 344.57 290.78C343.372 291.772 341.98 292.504 340.484 292.927C338.987 293.351 337.418 293.457 335.878 293.24C332.704 292.708 329.856 290.976 327.924 288.402C326.796 286.959 326.016 285.275 325.644 283.482C325.242 281.7 325.382 279.838 326.046 278.136C326.407 277.284 327.019 276.563 327.801 276.069C328.594 275.579 329.541 275.401 330.458 275.569C330.907 275.671 331.328 275.871 331.69 276.155C332.053 276.438 332.349 276.798 332.557 277.209C332.957 277.986 333.249 278.813 333.426 279.669C334.196 282.984 333.985 286.451 332.819 289.648C331.716 292.727 329.588 295.332 326.792 297.028C324.132 298.65 321.006 299.335 317.912 298.972C316.435 298.792 315.007 298.33 313.705 297.611C312.445 296.9 311.332 295.957 310.425 294.831C308.673 292.713 307.713 290.052 307.711 287.303C307.738 286.01 308.016 284.734 308.531 283.548C308.752 282.96 309.092 282.425 309.529 281.974C309.966 281.524 310.492 281.169 311.073 280.932C311.664 280.748 312.294 280.731 312.893 280.883C313.456 281.068 313.97 281.379 314.394 281.793C315.185 282.59 315.777 283.562 316.124 284.63C316.48 285.616 316.666 286.656 316.674 287.705C316.674 288.213 316.674 288.705 316.674 289.197C316.674 289.689 316.633 290.165 316.583 290.632C316.276 293.854 315.337 296.983 313.82 299.841C312.867 301.643 311.687 303.315 310.31 304.818C309.843 305.335 309.449 305.696 309.187 305.942C308.925 306.188 308.785 306.303 308.785 306.303C308.785 306.303 308.908 306.163 309.162 305.909C309.417 305.655 309.786 305.286 310.245 304.761C311.584 303.241 312.735 301.564 313.672 299.767C315.147 296.919 316.055 293.811 316.346 290.616C316.395 290.149 316.419 289.673 316.428 289.189C316.436 288.705 316.428 288.213 316.428 287.713C316.413 286.692 316.227 285.68 315.878 284.72C315.549 283.7 314.988 282.771 314.238 282.006C313.845 281.63 313.371 281.349 312.852 281.186C312.312 281.051 311.744 281.068 311.212 281.235C310.672 281.462 310.185 281.797 309.78 282.221C309.375 282.644 309.062 283.146 308.859 283.695C308.381 284.844 308.127 286.075 308.113 287.32C308.129 289.989 309.068 292.57 310.77 294.626C311.655 295.734 312.75 296.656 313.993 297.34C315.235 298.023 316.6 298.456 318.01 298.611C321.02 298.957 324.059 298.287 326.645 296.709C329.365 295.05 331.429 292.504 332.491 289.501C333.628 286.379 333.83 282.994 333.074 279.759C332.909 278.941 332.634 278.149 332.254 277.406C332.075 277.044 331.818 276.726 331.502 276.475C331.186 276.224 330.818 276.046 330.425 275.954C329.613 275.807 328.776 275.971 328.08 276.414C327.366 276.856 326.812 277.513 326.497 278.291C325.863 279.91 325.732 281.681 326.12 283.375C326.48 285.107 327.235 286.732 328.326 288.123C330.193 290.605 332.939 292.277 336.001 292.797C337.485 292.999 338.996 292.89 340.436 292.476C341.876 292.063 343.214 291.354 344.365 290.395C346.665 288.569 348.235 285.98 348.793 283.097C348.924 282.399 348.979 281.69 348.957 280.981C348.97 280.285 348.865 279.592 348.645 278.931C348.451 278.289 348.072 277.718 347.555 277.291C347.298 277.1 346.997 276.978 346.68 276.935C346.363 276.892 346.041 276.93 345.743 277.045C345.141 277.295 344.652 277.756 344.365 278.341C344.079 278.926 343.993 279.588 344.119 280.227C344.419 281.501 345.113 282.649 346.103 283.507C347.039 284.379 348.14 285.054 349.342 285.492C350.543 285.93 351.821 286.122 353.098 286.057C354.307 285.994 355.489 285.681 356.572 285.14C357.654 284.598 358.613 283.838 359.387 282.908C360.888 281.183 361.71 278.971 361.7 276.684V276.742C361.565 276.432 361.33 276.177 361.032 276.018C360.734 275.859 360.392 275.805 360.06 275.864C359.391 275.901 358.762 276.195 358.305 276.684C358.092 276.927 357.943 277.219 357.871 277.534C357.8 277.849 357.808 278.177 357.895 278.488C358.05 279.126 358.4 279.699 358.895 280.128C359.364 280.543 359.916 280.853 360.514 281.037C361.113 281.22 361.743 281.274 362.364 281.194C363.551 281.038 364.703 280.677 365.767 280.128L376.509 274.659L383.34 271.207L385.119 270.313L385.726 270.059Z" fill="#263238"/>
<path d="M312.271 67.7728C312.271 67.8958 294.928 67.9942 273.534 67.9942C252.14 67.9942 234.789 67.8958 234.789 67.7728C234.789 67.6498 252.132 67.5596 273.534 67.5596C294.936 67.5596 312.271 67.658 312.271 67.7728Z" fill="#E0E0E0"/>
<path d="M325.188 67.7737C323.407 68.0689 321.59 68.0689 319.809 67.7737C321.59 67.4895 323.406 67.4895 325.188 67.7737Z" fill="#E0E0E0"/>
<path d="M402.316 67.7728C402.316 67.8958 386.49 67.9942 366.982 67.9942C347.474 67.9942 331.648 67.8958 331.648 67.7728C331.648 67.6498 347.458 67.5596 366.982 67.5596C386.506 67.5596 402.316 67.658 402.316 67.7728Z" fill="#E0E0E0"/>
<path d="M312.271 89.3314C312.271 89.4544 294.928 89.5446 273.534 89.5446C252.14 89.5446 234.789 89.4544 234.789 89.3314C234.789 89.2084 252.132 89.1182 273.534 89.1182C294.936 89.1182 312.271 89.2166 312.271 89.3314Z" fill="#E0E0E0"/>
<path d="M325.188 89.3314C323.406 89.6156 321.59 89.6156 319.809 89.3314C321.59 89.0471 323.406 89.0471 325.188 89.3314Z" fill="#E0E0E0"/>
<path d="M402.316 89.3314C402.316 89.4544 386.49 89.5446 366.982 89.5446C347.474 89.5446 331.648 89.4544 331.648 89.3314C331.648 89.2084 347.458 89.1182 366.982 89.1182C386.506 89.1182 402.316 89.2166 402.316 89.3314Z" fill="#E0E0E0"/>
<path d="M383.356 174.66L363.028 221.9C362.93 222.12 362.902 222.365 362.946 222.601C362.991 222.838 363.106 223.055 363.276 223.225C363.447 223.395 363.665 223.509 363.902 223.552C364.138 223.595 364.383 223.565 364.602 223.467L380.272 216.546C380.426 216.475 380.593 216.438 380.763 216.436C380.932 216.435 381.1 216.469 381.255 216.538C381.41 216.606 381.548 216.706 381.662 216.832C381.775 216.958 381.861 217.106 381.912 217.267L387.201 233.134C387.282 233.368 387.434 233.57 387.635 233.714C387.837 233.857 388.078 233.934 388.325 233.934C388.572 233.934 388.813 233.857 389.014 233.714C389.215 233.57 389.367 233.368 389.448 233.134L408.562 182.18L383.356 174.66Z" fill="#FF5454"/>
<path d="M409.852 182.557L419.585 233.052C419.63 233.288 419.746 233.505 419.916 233.674C420.087 233.844 420.304 233.958 420.54 234.002C420.776 234.047 421.02 234.019 421.24 233.922C421.461 233.826 421.647 233.666 421.774 233.462L430.844 218.94C430.932 218.799 431.048 218.678 431.186 218.585C431.323 218.491 431.479 218.427 431.642 218.397C431.806 218.367 431.974 218.371 432.136 218.41C432.297 218.448 432.449 218.52 432.582 218.62L445.874 228.78C446.071 228.928 446.308 229.012 446.554 229.021C446.8 229.029 447.043 228.961 447.249 228.827C447.455 228.692 447.615 228.498 447.706 228.269C447.798 228.041 447.816 227.79 447.76 227.55L434.919 174.66L409.852 182.557Z" fill="#FF5454"/>
<g opacity="0.3">
<path d="M383.356 174.66L363.028 221.9C362.93 222.12 362.902 222.365 362.946 222.601C362.991 222.838 363.106 223.055 363.276 223.225C363.447 223.395 363.665 223.509 363.902 223.552C364.138 223.595 364.383 223.565 364.602 223.467L380.272 216.546C380.426 216.475 380.593 216.438 380.763 216.436C380.932 216.435 381.1 216.469 381.255 216.538C381.41 216.606 381.548 216.706 381.662 216.832C381.775 216.958 381.861 217.106 381.912 217.267L387.201 233.134C387.282 233.368 387.434 233.57 387.635 233.714C387.837 233.857 388.078 233.934 388.325 233.934C388.572 233.934 388.813 233.857 389.014 233.714C389.215 233.57 389.367 233.368 389.448 233.134L408.562 182.18L383.356 174.66Z" fill="black"/>
</g>
<g opacity="0.3">
<path d="M409.852 182.557L419.585 233.052C419.63 233.288 419.746 233.505 419.916 233.674C420.087 233.844 420.304 233.958 420.54 234.002C420.776 234.047 421.02 234.019 421.24 233.922C421.461 233.826 421.647 233.666 421.774 233.462L430.844 218.94C430.932 218.799 431.048 218.678 431.186 218.585C431.323 218.491 431.479 218.427 431.642 218.397C431.806 218.367 431.974 218.371 432.136 218.41C432.297 218.448 432.449 218.52 432.582 218.62L445.874 228.78C446.071 228.928 446.308 229.012 446.554 229.021C446.8 229.029 447.043 228.961 447.249 228.827C447.455 228.692 447.615 228.498 447.706 228.269C447.798 228.041 447.816 227.79 447.76 227.55L434.919 174.66L409.852 182.557Z" fill="black"/>
</g>
<path d="M410.836 91.8889L417.51 86.9854L422.758 93.3895L430.442 90.3063L433.927 97.8176L442.143 96.7352L443.644 104.878L451.868 105.87L451.303 114.136L459.019 117.137L456.419 125.001L463.143 129.839L458.674 136.809L463.988 143.155L457.912 148.797L461.487 156.267L454.205 160.22L455.804 168.346L447.768 170.363L447.293 178.629L439.011 178.588L436.493 186.476L428.482 184.377L424.079 191.388L416.846 187.362L410.836 193.061L404.833 187.362L397.601 191.388L393.197 184.377L385.186 186.476L382.669 178.588L374.387 178.629L373.911 170.363L365.875 168.346L367.474 160.22L360.192 156.267L363.759 148.797L357.691 143.155L363.005 136.809L358.536 129.839L365.26 125.001L362.652 117.137L370.377 114.136L369.811 105.87L378.036 104.878L379.536 96.7352L387.753 97.8176L391.238 90.3063L398.921 93.3895L404.161 86.9854L410.836 91.8889Z" fill="#FF5454"/>
<path d="M437.363 166.552C452.013 151.901 452.013 128.148 437.363 113.497C422.712 98.8468 398.959 98.8468 384.308 113.497C369.658 128.148 369.658 151.901 384.308 166.552C398.959 181.202 422.712 181.202 437.363 166.552Z" fill="white"/>
<path d="M419.018 131.134L429.079 132.61C429.452 132.664 429.803 132.822 430.091 133.065C430.379 133.308 430.593 133.626 430.709 133.985C430.825 134.343 430.838 134.727 430.747 135.093C430.657 135.459 430.465 135.792 430.195 136.054L422.905 143.147C422.669 143.375 422.493 143.657 422.392 143.968C422.29 144.28 422.266 144.612 422.323 144.935L424.036 154.98C424.099 155.35 424.058 155.732 423.916 156.08C423.773 156.428 423.537 156.73 423.232 156.951C422.928 157.172 422.568 157.303 422.192 157.33C421.817 157.357 421.442 157.278 421.109 157.103L412.089 152.356C411.8 152.202 411.477 152.122 411.15 152.122C410.823 152.122 410.5 152.202 410.211 152.356L401.191 157.079C400.858 157.252 400.483 157.329 400.108 157.301C399.733 157.273 399.374 157.14 399.07 156.918C398.767 156.697 398.531 156.395 398.39 156.046C398.249 155.698 398.208 155.317 398.272 154.947L400.002 144.926C400.058 144.604 400.035 144.273 399.935 143.962C399.835 143.651 399.661 143.368 399.428 143.139L392.147 136.029C391.876 135.766 391.685 135.433 391.594 135.067C391.504 134.7 391.518 134.316 391.635 133.957C391.752 133.598 391.967 133.28 392.256 133.037C392.545 132.795 392.896 132.638 393.27 132.585L403.34 131.134C403.663 131.089 403.971 130.966 404.235 130.774C404.5 130.582 404.713 130.329 404.857 130.035L409.375 120.917C409.542 120.58 409.799 120.296 410.119 120.097C410.438 119.899 410.807 119.794 411.183 119.794C411.559 119.794 411.928 119.899 412.247 120.097C412.567 120.296 412.824 120.58 412.991 120.917L417.476 130.052C417.625 130.344 417.844 130.596 418.112 130.785C418.381 130.973 418.692 131.093 419.018 131.134Z" fill="#FF5454"/>
<path d="M556.585 169.822C556.585 169.822 546.81 209.862 503.047 200.686C503.047 200.686 515.732 160.137 556.585 169.822Z" fill="#263238"/>
<path d="M535.46 230.461C535.46 230.461 515.37 260.416 482.16 239.702C482.16 239.702 504.792 210.207 535.46 230.461Z" fill="#263238"/>
<path d="M503.431 276.159C503.431 276.159 474.124 301.079 446.031 270.19C446.08 270.19 477.839 246.475 503.431 276.159Z" fill="#263238"/>
<path d="M472.395 179.276C472.395 179.276 504.9 194.897 489.123 230.699C489.123 230.699 456.741 212.495 472.395 179.276Z" fill="#263238"/>
<path d="M465.343 222.441C465.343 222.441 481.554 244.327 457.389 263.13C457.389 263.13 442.211 239.522 465.343 222.441Z" fill="#263238"/>
<path d="M540.531 123C540.531 123 544.262 155.456 509.207 160.654C509.223 160.654 507.493 127.018 540.531 123Z" fill="#263238"/>
<path d="M490.254 90.1992C490.254 90.1992 518.601 102.04 506.293 135.299C506.293 135.234 477.88 121.048 490.254 90.1992Z" fill="#263238"/>
<path d="M473.143 137.579C473.143 137.579 510.682 141.86 507.378 182.72C507.378 182.72 469.043 175.848 473.143 137.579Z" fill="#263238"/>
<path d="M419.719 280.202C419.719 280.202 419.875 280.144 420.194 280.054L421.597 279.685C422.835 279.357 424.663 278.922 426.976 278.168C433.51 276.146 439.827 273.481 445.836 270.214C454.755 265.34 462.989 259.304 470.321 252.264C474.657 248.123 478.698 243.684 482.416 238.98L485.237 235.192L486.655 233.281C487.115 232.625 487.533 231.945 487.984 231.272L490.632 227.172L493.092 222.892C493.494 222.17 493.912 221.457 494.306 220.743C494.7 220.03 495.036 219.267 495.397 218.538C496.118 217.07 496.848 215.627 497.545 214.167C498.242 212.707 498.791 211.215 499.415 209.755C499.718 209.026 500.046 208.304 500.325 207.574L501.145 205.36L502.711 200.998C503.146 199.53 503.531 198.07 503.998 196.635C504.212 195.914 504.425 195.2 504.63 194.487C504.835 193.774 504.982 193.052 505.163 192.339L506.155 188.107C508.297 178.17 509.236 168.011 508.951 157.849C508.727 151.002 507.964 144.184 506.672 137.456C506.155 135.078 505.704 133.249 505.433 132.003C505.294 131.388 505.187 130.921 505.114 130.584C505.04 130.248 505.023 130.101 505.023 130.101C505.023 130.101 505.073 130.256 505.155 130.576L505.515 131.987C505.819 133.225 506.335 135.053 506.836 137.423C510.256 154.183 510.156 171.471 506.54 188.189C506.212 189.583 505.882 190.999 505.548 192.437C505.376 193.15 505.237 193.88 505.023 194.594C504.81 195.307 504.605 196.029 504.392 196.75L503.105 201.121L501.538 205.5C501.276 206.238 501.014 206.976 500.718 207.722C500.423 208.468 500.112 209.181 499.8 209.919L497.93 214.347C497.233 215.807 496.495 217.258 495.782 218.726L494.683 220.94C494.281 221.662 493.863 222.375 493.461 223.097L491.001 227.394L488.336 231.494C487.885 232.166 487.467 232.847 487 233.503L485.573 235.43L482.744 239.226C479.025 243.95 474.978 248.405 470.633 252.559C463.269 259.608 454.996 265.639 446.033 270.493C439.983 273.743 433.621 276.372 427.041 278.34C424.721 279.07 422.876 279.48 421.629 279.775L420.219 280.111L419.719 280.202Z" fill="#263238"/>
<path d="M461.826 240.088C461.87 240.393 461.87 240.702 461.826 241.006C461.777 241.588 461.687 242.441 461.564 243.466C461.31 245.557 460.875 248.435 460.26 251.592C459.645 254.749 458.956 257.587 458.407 259.612C458.128 260.629 457.899 261.449 457.718 262.015C457.648 262.314 457.54 262.603 457.398 262.876C457.419 262.57 457.471 262.268 457.554 261.974C457.71 261.309 457.899 260.498 458.112 259.514C458.587 257.472 459.227 254.635 459.842 251.486C460.457 248.337 460.933 245.475 461.261 243.401C461.416 242.433 461.556 241.613 461.662 240.941C461.688 240.652 461.743 240.366 461.826 240.088Z" fill="#455A64"/>
<path d="M469.814 272.592C469.506 272.605 469.197 272.578 468.896 272.51L466.436 272.141C464.337 271.83 461.426 271.42 458.236 271.042C455.046 270.665 452.094 270.395 449.978 270.222L447.469 270.001C447.159 269.99 446.851 269.946 446.551 269.87C446.858 269.83 447.17 269.83 447.477 269.87C448.076 269.87 448.937 269.87 449.995 269.952C452.127 270.058 455.054 270.28 458.285 270.657C461.516 271.034 464.419 271.477 466.485 271.887C467.535 272.084 468.371 272.256 468.945 272.387C469.242 272.419 469.534 272.488 469.814 272.592Z" fill="#455A64"/>
<path d="M509.32 232.88C508.969 233.003 508.606 233.091 508.238 233.142L505.269 233.724C502.76 234.224 499.308 234.946 495.519 235.856C491.731 236.766 488.328 237.718 485.868 238.423L482.957 239.243C482.608 239.365 482.249 239.453 481.883 239.505C482.206 239.323 482.55 239.18 482.908 239.079C483.58 238.833 484.548 238.505 485.786 238.111C488.246 237.332 491.616 236.34 495.413 235.422C499.209 234.503 502.686 233.823 505.253 233.405C506.516 233.191 507.541 233.044 508.254 232.953C508.606 232.893 508.963 232.868 509.32 232.88Z" fill="#455A64"/>
<path d="M480.629 202.171C480.883 202.479 481.105 202.811 481.293 203.163C481.711 203.819 482.261 204.803 482.892 206.008C486.181 212.426 488.191 219.422 488.812 226.607C488.927 227.976 488.976 229.067 488.976 229.887C489.015 230.285 489.015 230.686 488.976 231.084C488.895 230.693 488.851 230.295 488.845 229.895C488.804 229.132 488.706 228.025 488.55 226.656C487.774 219.536 485.783 212.602 482.662 206.156C482.064 204.918 481.564 203.934 481.195 203.253C480.972 202.912 480.782 202.549 480.629 202.171Z" fill="#455A64"/>
<path d="M524.169 183.499C523.903 183.729 523.614 183.933 523.308 184.106L520.897 185.672C518.88 187.017 516.141 188.952 513.271 191.264C510.401 193.577 507.941 195.873 506.211 197.57L504.177 199.604C503.945 199.867 503.687 200.106 503.406 200.317C503.595 200.023 503.812 199.749 504.054 199.497C504.497 198.981 505.161 198.251 505.997 197.373C508.195 195.087 510.534 192.939 513 190.945C515.462 188.949 518.045 187.106 520.733 185.426C521.774 184.786 522.619 184.294 523.193 183.966C523.498 183.772 523.826 183.615 524.169 183.499Z" fill="#455A64"/>
<path d="M483.18 153.856C483.293 153.924 483.397 154.004 483.492 154.094L484.312 154.832C485.025 155.48 486.042 156.472 487.264 157.645C489.724 160.056 493.004 163.491 496.415 167.485C499.826 171.478 502.696 175.275 504.689 178.079C505.681 179.481 506.468 180.629 506.993 181.433L507.592 182.368C507.723 182.589 507.788 182.704 507.772 182.712C507.674 182.626 507.588 182.527 507.518 182.417L506.854 181.531L504.443 178.251C502.393 175.496 499.523 171.741 496.087 167.755C492.651 163.77 489.445 160.302 487.067 157.842L484.197 154.98L483.426 154.16C483.254 153.971 483.172 153.873 483.18 153.856Z" fill="#455A64"/>
<path d="M528.392 133.545C528.148 133.906 527.874 134.247 527.572 134.562L525.293 137.251C523.382 139.531 520.816 142.737 518.175 146.427C515.535 150.117 513.337 153.586 511.796 156.136L510.041 159.154C509.841 159.537 509.608 159.902 509.344 160.244C509.497 159.84 509.68 159.448 509.893 159.072C510.27 158.334 510.853 157.276 511.591 155.98C513.067 153.389 515.24 149.888 517.888 146.181C520.537 142.475 523.153 139.285 525.121 137.055C526.105 135.931 526.925 135.046 527.507 134.447C527.776 134.122 528.072 133.82 528.392 133.545Z" fill="#455A64"/>
<path d="M494.461 102.729C494.685 103.115 494.882 103.515 495.051 103.927C495.404 104.697 495.871 105.829 496.495 107.207C497.684 110.011 499.258 113.931 500.873 118.301C502.489 122.672 503.842 126.665 504.768 129.576C505.236 131.028 505.588 132.208 505.834 133.028C505.977 133.448 506.087 133.879 506.162 134.316C505.96 133.919 505.796 133.505 505.67 133.078L504.481 129.666C503.489 126.788 502.087 122.811 500.472 118.449C498.856 114.086 497.331 110.159 496.216 107.321C495.675 105.952 495.232 104.861 494.896 103.951C494.71 103.56 494.564 103.15 494.461 102.729Z" fill="#455A64"/>
<path d="M65.6016 160.908C65.6016 160.908 74.843 198.743 116.196 190.076C116.171 190.076 104.183 151.757 65.6016 160.908Z" fill="#263238"/>
<path d="M85.5586 218.209C85.5586 218.209 104.542 246.516 135.907 226.942C135.907 226.942 114.521 199.071 85.5586 218.209Z" fill="#263238"/>
<path d="M115.801 261.391C115.801 261.391 143.5 284.95 170.027 255.758C170.027 255.758 139.991 233.339 115.801 261.391Z" fill="#263238"/>
<path d="M145.142 169.847C145.142 169.847 114.425 184.607 129.332 218.432C129.324 218.432 159.959 201.236 145.142 169.847Z" fill="#263238"/>
<path d="M151.799 210.633C151.799 210.633 136.481 231.313 159.31 249.083C159.31 249.083 173.66 226.779 151.799 210.633Z" fill="#263238"/>
<path d="M80.7571 116.661C80.7571 116.661 77.2311 147.329 110.359 152.241C110.359 152.241 111.966 120.458 80.7571 116.661Z" fill="#263238"/>
<path d="M128.266 85.624C128.266 85.624 101.468 96.817 113.104 128.264C113.104 128.223 139.951 114.8 128.266 85.624Z" fill="#263238"/>
<path d="M144.435 130.438C144.435 130.438 108.953 134.488 112.078 173.077C112.078 173.094 148.313 166.608 144.435 130.438Z" fill="#263238"/>
<path d="M202.696 267.836L202.213 267.746L200.81 267.435C199.58 267.148 197.76 266.762 195.456 266.082C188.927 264.263 182.57 261.879 176.456 258.956C172.223 256.955 168.115 254.699 164.156 252.199C159.6 249.351 155.251 246.184 151.143 242.72C146.589 238.904 142.337 234.743 138.425 230.272L135.44 226.672C134.472 225.434 133.554 224.147 132.595 222.876C132.119 222.236 131.643 221.588 131.16 220.949L129.839 218.94C128.97 217.579 128.044 216.234 127.199 214.84C125.559 211.986 123.919 209.215 122.566 206.312C121.09 203.483 119.926 200.572 118.712 197.718C110.155 176.444 108.006 153.131 112.529 130.65C113.021 128.305 113.521 126.509 113.808 125.279C113.964 124.681 114.079 124.213 114.161 123.885C114.243 123.557 114.3 123.418 114.3 123.418C114.3 123.418 114.3 123.582 114.202 123.902C114.104 124.222 114.03 124.722 113.89 125.296C113.628 126.534 113.152 128.338 112.685 130.683C111.434 137.328 110.723 144.063 110.561 150.822C110.325 166.811 113.228 182.691 119.106 197.562C120.311 200.391 121.475 203.302 122.951 206.123C124.288 209.01 125.961 211.773 127.56 214.618C128.38 216.012 129.323 217.349 130.192 218.718L131.512 220.736L132.939 222.654C133.89 223.925 134.809 225.213 135.768 226.443L138.745 230.026C146.181 238.522 154.803 245.901 164.345 251.937C174.019 258.053 184.51 262.771 195.505 265.95C197.793 266.656 199.605 267.066 200.835 267.377L202.221 267.738L202.696 267.836Z" fill="#263238"/>
<path d="M155.119 227.304C155.209 227.57 155.272 227.845 155.308 228.124C155.415 228.763 155.538 229.534 155.685 230.444C155.997 232.404 156.456 235.11 157.03 238.087C157.604 241.063 158.211 243.737 158.67 245.672C158.875 246.566 159.047 247.312 159.195 247.968C159.276 248.234 159.323 248.51 159.334 248.788C159.202 248.527 159.1 248.252 159.031 247.968C158.867 247.443 158.637 246.664 158.375 245.705C157.85 243.786 157.21 241.112 156.62 238.128C156.03 235.143 155.636 232.388 155.398 230.444C155.275 229.46 155.193 228.657 155.152 228.099C155.11 227.836 155.099 227.569 155.119 227.304Z" fill="#455A64"/>
<path d="M147.602 258.021C147.866 257.913 148.141 257.833 148.422 257.783C148.963 257.66 149.766 257.496 150.75 257.307C152.727 256.938 155.474 256.487 158.524 256.143C161.574 255.798 164.346 255.577 166.355 255.487C167.364 255.438 168.175 255.405 168.733 255.405C169.024 255.366 169.319 255.366 169.61 255.405C169.329 255.481 169.04 255.522 168.749 255.528L166.38 255.741C164.379 255.913 161.615 256.176 158.573 256.561C155.531 256.946 152.833 257.307 150.8 257.602L148.446 257.939C148.169 258.002 147.885 258.03 147.602 258.021Z" fill="#455A64"/>
<path d="M110.242 220.481C110.594 220.469 110.947 220.499 111.292 220.571C111.964 220.653 112.932 220.793 114.121 220.99C116.515 221.383 119.795 222.023 123.387 222.892C126.978 223.761 130.185 224.696 132.489 225.442C133.637 225.811 134.563 226.131 135.203 226.361C135.539 226.461 135.863 226.595 136.171 226.762C135.82 226.721 135.476 226.639 135.146 226.516L132.399 225.696C130.078 225.032 126.864 224.147 123.28 223.277C119.697 222.408 116.441 221.728 114.072 221.252L111.267 220.703C110.919 220.661 110.576 220.587 110.242 220.481Z" fill="#455A64"/>
<path d="M137.358 191.478C137.226 191.831 137.061 192.171 136.866 192.494C136.522 193.134 136.046 194.069 135.481 195.241C134.015 198.28 132.808 201.438 131.873 204.68C130.947 207.924 130.292 211.24 129.913 214.593C129.773 215.881 129.675 216.93 129.634 217.652C129.628 218.03 129.584 218.406 129.503 218.775C129.456 218.4 129.442 218.021 129.462 217.644C129.462 216.914 129.503 215.864 129.609 214.569C129.905 211.18 130.526 207.827 131.463 204.557C132.401 201.291 133.656 198.124 135.21 195.102C135.809 193.946 136.325 193.027 136.719 192.412C136.896 192.078 137.111 191.764 137.358 191.478Z" fill="#455A64"/>
<path d="M96.2109 173.84C96.5228 173.954 96.8222 174.1 97.1047 174.274C97.6705 174.578 98.4741 175.045 99.4581 175.652C102 177.237 104.443 178.976 106.773 180.859C109.099 182.746 111.306 184.775 113.382 186.935C114.202 187.755 114.8 188.452 115.219 188.944C115.45 189.196 115.656 189.471 115.834 189.764C115.562 189.567 115.314 189.338 115.096 189.084L113.16 187.14C111.52 185.5 109.208 183.385 106.494 181.179C103.78 178.973 101.188 177.161 99.2859 175.898L97.0145 174.406C96.7253 174.249 96.4556 174.059 96.2109 173.84Z" fill="#455A64"/>
<path d="M134.95 145.82C134.656 146.191 134.335 146.539 133.99 146.862L131.293 149.609C129.038 151.929 125.971 155.209 122.756 158.973C119.542 162.737 116.803 166.288 114.86 168.895L112.58 171.987C112.319 172.377 112.028 172.747 111.711 173.094C111.923 172.674 112.167 172.271 112.441 171.888C112.933 171.126 113.679 170.035 114.614 168.715C116.5 166.058 119.214 162.475 122.437 158.694C125.659 154.914 128.742 151.7 131.079 149.396C132.244 148.256 133.195 147.346 133.876 146.739C134.211 146.407 134.57 146.1 134.95 145.82Z" fill="#455A64"/>
<path d="M92.2188 126.624C92.5368 126.872 92.8331 127.146 93.1044 127.444C93.6538 128.01 94.4245 128.846 95.3511 129.904C97.7776 132.677 100.06 135.573 102.19 138.58C104.65 142.081 106.749 145.394 108.143 147.837C108.84 149.059 109.381 150.06 109.783 150.765C109.99 151.119 110.163 151.493 110.3 151.88C110.051 151.554 109.829 151.208 109.636 150.847L107.922 147.993C106.462 145.591 104.379 142.319 101.887 138.826C99.3938 135.332 96.9666 132.307 95.1626 130.15C94.3426 129.117 93.58 128.264 93.0224 127.608C92.7205 127.309 92.4512 126.979 92.2188 126.624Z" fill="#455A64"/>
<path d="M124.297 97.5059C124.194 97.9129 124.057 98.3106 123.887 98.6949C123.568 99.5149 123.149 100.589 122.641 101.876C121.591 104.558 120.181 108.272 118.623 112.397C117.065 116.522 115.769 120.277 114.802 123C114.343 124.303 113.982 125.386 113.678 126.222C113.561 126.625 113.404 127.015 113.211 127.387C113.278 126.974 113.38 126.568 113.514 126.173C113.736 125.353 114.08 124.279 114.515 122.893C115.392 120.146 116.663 116.333 118.197 112.233C119.73 108.133 121.214 104.41 122.338 101.753C122.903 100.425 123.371 99.3591 123.707 98.6211C123.868 98.2316 124.066 97.8582 124.297 97.5059Z" fill="#455A64"/>
<path d="M202.654 136.12C208.632 136.899 209.517 143.025 211.731 148.166C213.945 153.307 218.185 157.883 221.448 162.483C223.17 164.943 225.548 167.1 226.139 169.986C226.787 173.004 225.409 176.128 224.761 179.203C224.113 182.278 224.573 186.042 227.525 187.403C227.193 187.79 226.776 188.095 226.306 188.293C225.837 188.491 225.327 188.576 224.819 188.543C224.819 189.961 223.449 191.183 221.957 191.593C220.453 191.893 218.903 191.876 217.406 191.544C217.808 192.487 216.955 193.627 215.897 194.004C214.823 194.298 213.691 194.298 212.617 194.004C211.551 193.702 210.435 193.621 209.337 193.766C206.877 194.299 205.442 197.046 202.982 197.391C199.604 197.883 197.176 193.561 193.839 194.316C192.273 194.668 191.231 196.038 189.944 196.972C188.657 197.907 186.484 197.669 185.844 196.325C184.056 198.58 181.293 200.769 178.382 201.368C178.59 200.875 178.647 200.331 178.547 199.806C178.446 199.28 178.192 198.797 177.816 198.416C176.22 199.719 174.303 200.569 172.265 200.876C172.877 200.313 173.36 199.625 173.68 198.857C174 198.09 174.149 197.262 174.118 196.431C173.432 196.97 172.633 197.345 171.78 197.528C170.928 197.711 170.045 197.698 169.198 197.489C172.199 195.775 172.478 191.79 171.428 188.797C170.379 185.804 168.329 183.123 167.935 179.966C167.501 176.53 171.535 172.184 170.748 168.814C169.534 163.615 169.624 160.45 169.838 155.595C169.977 152.422 171.379 149.601 172.773 146.641C174.405 142.974 177.201 139.948 180.727 138.031C183.901 136.243 188.476 134.603 192.109 134.521C198.587 134.382 201.219 134.177 206.344 137.604" fill="#263238"/>
<path d="M182.695 178.448C180.567 174.318 178.803 170.01 177.422 165.574C176.038 161.117 175.784 156.386 176.684 151.807C176.84 151.126 178.324 146.46 179.029 146.436C179.53 146.436 178.8 150.675 179.111 151.077C182.055 154.865 183.375 159.728 183.63 164.517C183.836 169.184 183.522 173.859 182.695 178.457" fill="#263238"/>
<path d="M211.02 217.727C203.862 218.547 186.642 211.019 185.682 203.885L179.877 160.95C177.958 149.47 183.034 138.81 194.571 137.17L195.645 137.08C200.862 136.66 206.044 138.222 210.161 141.452C214.278 144.683 217.026 149.346 217.859 154.513C219.499 164.476 221.139 175.497 221.492 180.884C222.246 192.028 211.25 194.652 211.25 194.652C211.25 194.652 211.529 197.227 211.93 200.482C212.841 207.796 211.676 215.816 211.02 217.702V217.727Z" fill="#FFBE9D"/>
<path d="M211.249 194.652C206.102 195.051 200.948 193.967 196.398 191.527C196.398 191.527 200.564 199.621 211.593 197.727L211.249 194.652Z" fill="#EB996E"/>
<path d="M213.71 164.205C213.747 164.618 213.621 165.029 213.359 165.351C213.097 165.673 212.72 165.879 212.308 165.927C212.107 165.96 211.901 165.953 211.702 165.905C211.504 165.857 211.317 165.77 211.153 165.648C210.989 165.526 210.852 165.373 210.749 165.197C210.646 165.021 210.579 164.825 210.553 164.623C210.516 164.21 210.642 163.799 210.904 163.477C211.166 163.155 211.543 162.949 211.955 162.901C212.157 162.866 212.363 162.873 212.562 162.92C212.761 162.967 212.948 163.055 213.112 163.177C213.276 163.299 213.414 163.453 213.517 163.629C213.62 163.806 213.685 164.002 213.71 164.205Z" fill="#263238"/>
<path d="M215.883 159.613C215.703 159.834 214.432 159.039 212.718 159.178C211.004 159.318 209.823 160.277 209.618 160.08C209.413 159.884 209.692 159.605 210.209 159.17C210.906 158.594 211.766 158.25 212.669 158.186C213.558 158.11 214.449 158.32 215.211 158.785C215.768 159.146 215.973 159.506 215.883 159.613Z" fill="#263238"/>
<path d="M197.621 165.46C197.648 165.872 197.519 166.279 197.259 166.599C196.999 166.92 196.628 167.131 196.219 167.19C196.018 167.222 195.812 167.214 195.614 167.166C195.416 167.118 195.23 167.03 195.067 166.909C194.903 166.787 194.765 166.634 194.662 166.458C194.559 166.283 194.491 166.088 194.464 165.886C194.437 165.474 194.567 165.067 194.827 164.747C195.087 164.426 195.458 164.215 195.867 164.156C196.068 164.125 196.273 164.134 196.47 164.182C196.668 164.231 196.854 164.319 197.017 164.44C197.181 164.562 197.318 164.714 197.422 164.889C197.526 165.064 197.593 165.258 197.621 165.46Z" fill="#263238"/>
<path d="M199.139 161.351C198.958 161.573 197.679 160.786 195.974 160.925C194.268 161.064 193.071 162.024 192.874 161.827C192.677 161.63 192.94 161.351 193.456 160.909C194.154 160.334 195.014 159.992 195.916 159.933C196.808 159.855 197.702 160.065 198.466 160.531C199.024 160.892 199.262 161.253 199.139 161.351Z" fill="#263238"/>
<path d="M206.337 174.013C207.215 173.655 208.135 173.413 209.075 173.291C209.51 173.209 209.895 173.086 209.961 172.783C209.965 172.329 209.827 171.885 209.567 171.512L208.009 168.289C205.836 163.697 204.221 159.901 204.41 159.819C204.598 159.737 206.509 163.386 208.682 167.978L210.19 171.258C210.507 171.763 210.635 172.365 210.551 172.955C210.501 173.114 210.415 173.26 210.3 173.38C210.185 173.501 210.043 173.594 209.887 173.652C209.648 173.735 209.401 173.79 209.149 173.816C208.224 174 207.279 174.066 206.337 174.013Z" fill="#263238"/>
<path d="M198.442 154.98C198.245 155.431 196.548 155.103 194.523 155.226C192.497 155.349 190.833 155.792 190.595 155.357C190.488 155.152 190.8 154.726 191.48 154.316C192.391 153.821 193.401 153.538 194.436 153.488C195.471 153.439 196.504 153.623 197.458 154.029C198.213 154.365 198.565 154.751 198.442 154.98Z" fill="#263238"/>
<path d="M215.161 155.645C214.841 156.063 213.415 155.792 211.734 155.932C210.053 156.071 208.667 156.489 208.306 156.112C208.142 155.932 208.306 155.522 208.913 155.095C209.727 154.57 210.66 154.259 211.627 154.192C212.593 154.124 213.561 154.303 214.44 154.71C215.063 155.054 215.301 155.44 215.161 155.645Z" fill="#263238"/>
<path d="M181.451 169.126C181.254 169.06 173.62 167.486 174.473 175.071C175.325 182.656 182.771 180.245 182.763 179.991C182.755 179.736 181.451 169.126 181.451 169.126Z" fill="#FFBE9D"/>
<path d="M180.121 177.407C180.121 177.407 179.998 177.514 179.784 177.645C179.485 177.811 179.133 177.858 178.8 177.776C177.98 177.571 177.16 176.374 176.947 175.005C176.858 174.355 176.914 173.694 177.111 173.069C177.154 172.825 177.257 172.594 177.41 172.398C177.563 172.202 177.761 172.047 177.989 171.946C178.135 171.889 178.297 171.885 178.447 171.935C178.596 171.984 178.724 172.084 178.809 172.217C178.94 172.422 178.907 172.577 178.948 172.586C178.989 172.594 179.096 172.438 178.997 172.135C178.936 171.95 178.811 171.793 178.645 171.692C178.418 171.556 178.147 171.515 177.89 171.577C177.586 171.676 177.312 171.85 177.094 172.084C176.876 172.318 176.721 172.603 176.644 172.914C176.397 173.607 176.321 174.349 176.422 175.078C176.644 176.604 177.587 177.948 178.718 178.145C178.929 178.183 179.146 178.172 179.352 178.114C179.558 178.056 179.748 177.952 179.907 177.809C180.121 177.596 180.145 177.415 180.121 177.407Z" fill="#EB996E"/>
<path d="M211.42 142.533C212.568 141.713 208.403 138.171 205.221 137.17C200.408 135.653 193.29 135.227 189.223 136.932C184.303 138.982 180.441 142.008 178.456 146.928C176.576 151.915 176.058 157.312 176.956 162.566C177.088 164.189 177.654 165.747 178.596 167.076C179.859 168.625 182.023 169.437 182.212 171.758C182.265 172.609 182.647 173.406 183.278 173.98C184.852 175.284 186.378 173.693 186.993 172.209C188.296 169.035 188.05 165.46 187.813 162.041C187.756 159.596 187.296 157.177 186.451 154.882C185.927 153.66 185.189 152.537 184.729 151.291C184.464 150.682 184.334 150.023 184.348 149.359C184.362 148.695 184.52 148.042 184.811 147.445C184.959 147.207 185.129 146.985 185.32 146.781C186.265 145.727 187.473 144.945 188.82 144.512C190.168 144.08 191.606 144.014 192.987 144.321C197.439 145.313 205.016 146.682 206.746 145.001C209.206 142.541 209.723 141.147 209.723 141.147L211.42 142.533Z" fill="#263238"/>
<path d="M201.76 175.481C201.661 175.481 201.645 175.932 201.875 176.571C202.191 177.413 202.765 178.133 203.515 178.629C204.235 179.109 205.039 179.451 205.884 179.638C206.516 179.786 206.926 179.802 206.959 179.703C206.991 179.605 206.647 179.384 206.073 179.105C205.345 178.78 204.643 178.399 203.974 177.965C202.449 176.989 201.998 175.415 201.76 175.481Z" fill="#263238"/>
<path d="M181.695 170.117C181.761 170.248 181.818 170.388 181.884 170.544C181.884 170.56 181.81 170.388 181.695 170.117Z" fill="#46B2C8"/>
<path d="M179.096 168.92C179.096 168.92 180.367 167.28 181.696 170.084C180.113 166.361 169.593 139.441 198.44 135.89C198.44 135.89 188.018 134.053 181.737 139.236C181.737 139.269 168.961 146.903 179.096 168.92Z" fill="#455A64"/>
<path d="M234.258 304.86L167.207 305.77C167.207 305.77 148.453 297.923 143.304 297.71C138.154 297.497 127.92 298.153 123.189 305.77C118.269 313.642 117.621 327.525 132.685 337.611C147.363 347.451 214.463 356.52 223.705 355.651L240.613 332.921C240.613 332.921 240.793 314.266 240.613 313.372C240.433 312.478 237.595 304.491 237.595 304.491L234.258 304.86Z" fill="#263238"/>
<path d="M194.118 336.348L159.375 349.246L175.209 392.559C179.252 390.787 179.367 365.351 179.367 365.351L201.966 357.971L194.118 336.348Z" fill="#46B2C8"/>
<g opacity="0.6">
<path d="M176.35 351.272C176.071 350.903 175.666 350.649 175.212 350.56C174.758 350.47 174.287 350.552 173.89 350.788C173.503 351.053 173.235 351.458 173.142 351.917C173.048 352.376 173.137 352.854 173.39 353.248C173.686 353.641 174.118 353.91 174.601 354.003C175.085 354.095 175.585 354.005 176.005 353.749C176.372 353.431 176.602 352.984 176.646 352.501C176.69 352.018 176.546 351.536 176.243 351.157" fill="white"/>
</g>
<path d="M159.375 349.247L162.885 347.951L176.825 390.042C176.825 390.042 176.693 392.28 175.25 392.559L159.375 349.247Z" fill="#263238"/>
<path d="M179.844 365.974C179.631 366.04 179.155 365.015 178.089 364.228C177.023 363.44 175.941 363.203 175.949 362.981C175.957 362.76 177.302 362.62 178.565 363.604C179.828 364.588 180.057 365.941 179.844 365.974Z" fill="#263238"/>
<path d="M179.628 371.198C179.439 371.321 178.742 370.542 177.586 370.149C176.43 369.755 175.413 369.894 175.339 369.681C175.265 369.468 176.422 368.861 177.848 369.411C179.275 369.96 179.825 371.124 179.628 371.198Z" fill="#263238"/>
<path d="M175.135 375.766C175.02 375.593 175.955 374.946 177.324 375.028C178.693 375.11 179.505 375.971 179.358 376.126C179.21 376.282 178.374 375.897 177.258 375.815C176.143 375.733 175.233 375.971 175.135 375.766Z" fill="#263238"/>
<path d="M184.812 363.72C184.582 363.72 184.525 362.629 183.992 361.465C183.459 360.3 182.753 359.505 182.893 359.324C183.032 359.144 184.115 359.767 184.705 361.153C185.295 362.539 185.017 363.769 184.812 363.72Z" fill="#263238"/>
<path d="M189.577 360.801C189.487 360.801 189.052 360.046 188.757 358.628C188.613 357.794 188.569 356.946 188.626 356.102C188.661 355.6 188.729 355.102 188.831 354.61C188.879 354.324 188.971 354.048 189.101 353.79C189.2 353.595 189.361 353.439 189.559 353.347C189.757 353.255 189.98 353.232 190.192 353.281C190.378 353.333 190.548 353.427 190.691 353.557C190.833 353.686 190.943 353.847 191.012 354.027C191.112 354.291 191.175 354.567 191.201 354.847C191.359 356.206 191.17 357.583 190.651 358.849C190.085 360.194 189.421 360.825 189.356 360.768C189.29 360.71 189.733 359.948 190.126 358.66C190.354 357.904 190.483 357.121 190.512 356.332C190.523 355.868 190.498 355.405 190.438 354.946C190.389 354.446 190.249 354.052 190.003 354.011C189.913 354.011 189.88 354.011 189.774 354.142C189.683 354.341 189.617 354.55 189.577 354.765C189.475 355.22 189.398 355.68 189.347 356.143C189.275 356.939 189.275 357.741 189.347 358.537C189.474 359.286 189.551 360.042 189.577 360.801Z" fill="#263238"/>
<path d="M189.168 360.645C189.11 360.587 189.717 359.89 191.054 359.308C191.836 358.982 192.668 358.788 193.514 358.734C194.021 358.711 194.529 358.735 195.031 358.808C195.36 358.82 195.68 358.917 195.96 359.089C196.24 359.261 196.471 359.504 196.63 359.792C196.7 359.985 196.711 360.195 196.663 360.394C196.615 360.594 196.509 360.775 196.359 360.915C196.149 361.123 195.908 361.297 195.646 361.432C195.189 361.682 194.697 361.862 194.186 361.965C193.33 362.145 192.442 362.109 191.603 361.858C190.176 361.424 189.602 360.637 189.668 360.587C190.34 360.878 191.03 361.124 191.734 361.325C192.495 361.47 193.279 361.447 194.03 361.26C194.464 361.155 194.881 360.989 195.269 360.768C195.703 360.53 196.007 360.218 195.9 360.063C195.793 359.907 195.342 359.612 194.908 359.571C194.456 359.493 193.997 359.454 193.538 359.456C192.751 359.47 191.969 359.597 191.218 359.833C189.955 360.235 189.242 360.751 189.168 360.645Z" fill="#263238"/>
<path d="M222.778 330.993L256.398 346.573L237.21 388.5C233.315 386.425 235.201 361.054 235.201 361.054L213.25 351.944L222.778 330.993Z" fill="#46B2C8"/>
<g opacity="0.6">
<path d="M239.317 347.27C239.624 346.933 240.042 346.719 240.494 346.666C240.946 346.613 241.402 346.726 241.777 346.983C242.133 347.277 242.362 347.695 242.419 348.153C242.475 348.61 242.354 349.072 242.081 349.443C241.755 349.81 241.305 350.043 240.817 350.098C240.33 350.152 239.839 350.024 239.44 349.738C239.103 349.388 238.914 348.921 238.914 348.434C238.914 347.948 239.103 347.481 239.44 347.131" fill="white"/>
</g>
<path d="M256.397 346.59L253.003 345.016L235.84 385.884C235.84 385.884 235.799 388.131 237.209 388.517L256.397 346.59Z" fill="#263238"/>
<path d="M234.677 361.62C234.89 361.702 235.447 360.718 236.571 359.98C237.694 359.242 238.793 359.16 238.801 358.906C238.809 358.651 237.481 358.446 236.144 359.324C234.808 360.201 234.472 361.62 234.677 361.62Z" fill="#263238"/>
<path d="M234.519 366.876C234.691 367.015 235.446 366.286 236.635 365.99C237.824 365.695 238.824 365.908 238.906 365.703C238.988 365.498 237.898 364.834 236.446 365.236C234.995 365.638 234.29 366.786 234.519 366.876Z" fill="#263238"/>
<path d="M238.619 371.788C238.751 371.616 237.857 370.87 236.496 370.878C235.134 370.886 234.249 371.649 234.38 371.813C234.511 371.977 235.38 371.657 236.504 371.665C237.627 371.673 238.488 371.977 238.619 371.788Z" fill="#263238"/>
<path d="M229.903 359.021C230.132 359.021 230.28 357.947 230.887 356.832C231.493 355.716 232.272 354.97 232.149 354.782C232.026 354.593 230.895 355.134 230.198 356.422C229.501 357.709 229.698 359.046 229.903 359.021Z" fill="#263238"/>
<path d="M225.387 355.741C225.478 355.782 225.97 355.036 226.339 353.642C226.553 352.822 226.666 351.979 226.675 351.132C226.676 350.631 226.646 350.13 226.585 349.632C226.562 349.336 226.493 349.045 226.38 348.771C226.295 348.57 226.146 348.403 225.956 348.296C225.766 348.189 225.546 348.149 225.33 348.18C225.141 348.218 224.964 348.3 224.811 348.418C224.659 348.536 224.536 348.687 224.453 348.861C224.332 349.121 224.249 349.397 224.207 349.681C224.108 350.178 224.056 350.683 224.051 351.19C224.049 352.044 224.179 352.893 224.436 353.707C224.607 354.478 225.003 355.181 225.576 355.724C225.691 355.659 225.264 354.904 224.977 353.56C224.81 352.787 224.741 351.996 224.772 351.206C224.798 350.743 224.858 350.283 224.953 349.829C225.043 349.337 225.215 348.951 225.461 348.927C225.56 348.927 225.592 348.927 225.674 349.082C225.753 349.285 225.803 349.497 225.822 349.714C225.893 350.178 225.936 350.646 225.953 351.116C225.974 351.915 225.922 352.713 225.797 353.502C225.613 354.239 225.476 354.987 225.387 355.741Z" fill="#263238"/>
<path d="M225.805 355.61C225.871 355.552 225.321 354.79 224.034 354.126C223.264 353.732 222.431 353.474 221.574 353.363C221.071 353.297 220.563 353.28 220.057 353.314C219.737 353.303 219.419 353.372 219.132 353.515C218.846 353.658 218.6 353.871 218.417 354.134C218.336 354.323 218.309 354.531 218.341 354.734C218.373 354.937 218.462 355.127 218.597 355.282C218.792 355.503 219.018 355.694 219.27 355.848C219.706 356.137 220.184 356.355 220.688 356.495C221.525 356.741 222.41 356.775 223.263 356.594C224.731 356.274 225.362 355.528 225.297 355.479C224.601 355.711 223.892 355.9 223.173 356.044C222.407 356.133 221.632 356.052 220.901 355.807C220.477 355.667 220.074 355.468 219.704 355.216C219.286 354.946 219.007 354.609 219.13 354.47C219.253 354.331 219.721 354.06 220.147 354.044C220.605 354.002 221.066 354.002 221.525 354.044C222.31 354.116 223.08 354.301 223.812 354.593C225.059 355.142 225.723 355.708 225.805 355.61Z" fill="#263238"/>
<path d="M237.594 304.499C237.594 304.499 266.548 293.683 277.208 295.085C283.17 295.905 292.485 300.415 293.198 308.058C293.912 315.7 292.042 325.909 281.718 330.887C271.395 335.864 230.288 354.314 220.522 357.127C210.756 359.939 186.385 366.622 186.385 366.622L177.16 340.3C177.16 340.3 227.648 322.818 230.313 320.858C232.978 318.898 239.726 316.241 239.726 316.241L237.594 304.499Z" fill="#263238"/>
<path d="M136.941 308.091L137.146 308.033L137.729 307.861C138.237 307.705 138.991 307.484 139.984 307.246C141.176 306.954 142.387 306.743 143.608 306.615C145.228 306.467 146.859 306.467 148.479 306.615C150.445 306.778 152.388 307.149 154.276 307.722C155.326 308.034 156.349 308.432 157.335 308.911L160.484 310.452C164.821 312.519 169.651 314.643 174.809 316.676C185.125 320.776 195.03 322.777 202.09 324.376C205.633 325.196 208.503 325.803 210.471 326.278L212.75 326.811L213.341 326.951H213.546L213.349 326.885L212.759 326.721C212.25 326.582 211.488 326.369 210.504 326.123C208.536 325.622 205.682 324.942 202.14 324.13C195.088 322.49 185.207 320.473 174.924 316.356C169.774 314.323 164.944 312.215 160.607 310.157L157.441 308.673C156.44 308.193 155.4 307.795 154.334 307.484C152.429 306.915 150.469 306.552 148.487 306.402C146.85 306.252 145.204 306.252 143.567 306.402C142.339 306.545 141.122 306.775 139.926 307.09C138.942 307.345 138.188 307.582 137.688 307.755L137.114 307.968C137.052 308.002 136.994 308.043 136.941 308.091Z" fill="#455A64"/>
<path d="M138.457 304.27C138.457 304.319 139.343 304.163 140.761 304.008C142.605 303.813 144.461 303.76 146.313 303.852C148.168 303.95 150.014 304.194 151.831 304.582C153.225 304.877 154.078 305.123 154.086 305.074C153.904 304.975 153.712 304.898 153.512 304.844C152.974 304.657 152.427 304.498 151.872 304.368C148.227 303.457 144.44 303.263 140.72 303.794C140.015 303.893 139.441 303.999 139.08 304.098C138.867 304.131 138.658 304.189 138.457 304.27Z" fill="#455A64"/>
<path d="M249.781 312.157C249.781 312.207 250.601 311.583 252.003 310.722C255.626 308.479 259.69 307.044 263.918 306.516C265.558 306.319 266.558 306.294 266.55 306.237C266.313 306.213 266.074 306.213 265.837 306.237C265.188 306.234 264.539 306.264 263.893 306.327C259.604 306.741 255.48 308.196 251.88 310.567C251.2 311.026 250.659 311.387 250.306 311.715C250.115 311.842 249.939 311.991 249.781 312.157Z" fill="#455A64"/>
<path d="M235.251 351.493L235.022 351.584L234.366 351.862C233.784 352.092 232.939 352.494 231.807 352.928C229.552 353.822 226.215 355.052 221.967 356.454C213.415 359.251 201.115 362.809 186.404 366.516L186.576 366.606C183.829 358.996 180.836 350.591 177.622 341.76L177.532 341.957L188.602 337.406L249.946 312.158C252.447 309.518 254.743 307.189 256.899 305.303C258.722 303.69 260.669 302.224 262.721 300.916C264.013 300.104 265.346 299.359 266.715 298.685L267.789 298.185L268.15 298.005L267.781 298.161L266.69 298.636C265.308 299.288 263.964 300.016 262.664 300.817C260.594 302.114 258.631 303.573 256.793 305.18C254.62 307.058 252.307 309.378 249.798 312.01C234.85 318.144 212.898 327.148 188.421 337.16L177.335 341.719L177.195 341.776L177.245 341.916C180.443 350.747 183.477 359.136 186.224 366.754L186.265 366.868H186.396C201.107 363.129 213.39 359.529 221.935 356.692C226.207 355.257 229.536 354.011 231.775 353.084C232.898 352.641 233.743 352.223 234.317 351.977L234.964 351.674L235.251 351.493Z" fill="#455A64"/>
<path d="M163.671 212.216C163.671 212.216 155.34 217.021 153.651 222.663C152.618 226.09 144.844 269.919 143.614 278.562C142.384 287.205 144.975 293.609 148.665 296.479C152.355 299.349 163.524 303.162 163.524 303.162L179.243 308.254L183.745 296.774L168.788 275.282L170.231 260.801L163.671 212.216Z" fill="#46B2C8"/>
<path d="M180.064 204.647L185.262 200.81C185.262 200.81 192.036 207.739 199.817 206.919C207.599 206.099 212.208 200.146 212.208 200.146L235.414 204.877C236.972 205.189 239.809 206.173 242.523 210.051C245.557 214.381 259.915 233.569 259.915 233.569H269.968C271.328 233.569 272.662 233.941 273.827 234.643C274.991 235.345 275.942 236.352 276.578 237.554C278.291 240.834 280.35 245.196 280.153 247.009C279.808 250.067 280.399 258.489 276.299 261.096C274.995 261.916 270.329 264.425 266.721 264.261C261.383 264.007 255.184 261.227 251.617 258.735C248.591 256.619 241.564 249.313 238.858 246.435V246.475L237.119 307.352L176.3 305.647L163.672 212.216C163.672 212.216 179.449 204.647 180.064 204.647Z" fill="#46B2C8"/>
<path d="M239.073 220.957C238.991 220.957 238.835 228.501 238.72 237.808C238.605 247.115 238.589 254.659 238.679 254.659C238.769 254.659 238.925 247.123 239.032 237.808C239.138 228.493 239.163 220.957 239.073 220.957Z" fill="#263238"/>
<path d="M156.309 270.166C156.309 270.166 156.825 270.248 157.744 270.42C159.039 270.679 160.302 271.083 161.507 271.625C163.297 272.427 164.982 273.443 166.526 274.651C168.422 276.142 170.191 277.788 171.815 279.571C173.553 281.449 175.144 283.31 176.636 284.959C177.943 286.437 179.325 287.846 180.777 289.182C181.76 290.071 182.801 290.893 183.893 291.642C184.279 291.92 184.599 292.101 184.804 292.232C184.906 292.303 185.016 292.364 185.132 292.412C185.045 292.322 184.945 292.245 184.836 292.183C184.64 292.027 184.336 291.83 183.967 291.543C182.904 290.75 181.889 289.896 180.925 288.985C179.703 287.845 178.326 286.394 176.825 284.737C175.324 283.081 173.766 281.211 172.02 279.325C170.382 277.535 168.593 275.889 166.673 274.405C165.105 273.195 163.392 272.187 161.573 271.404C160.347 270.876 159.061 270.502 157.744 270.289C157.385 270.227 157.024 270.186 156.661 270.166C156.544 270.153 156.426 270.153 156.309 270.166Z" fill="#263238"/>
<path d="M154.93 266.041C154.93 266.099 155.848 266.23 157.299 266.632C161.099 267.677 164.547 269.728 167.279 272.568C168.328 273.651 168.919 274.405 168.919 274.373C168.827 274.172 168.708 273.984 168.566 273.815C168.22 273.323 167.842 272.855 167.435 272.413C164.756 269.449 161.247 267.36 157.365 266.418C156.783 266.269 156.191 266.159 155.594 266.091C155.375 266.052 155.152 266.035 154.93 266.041Z" fill="#263238"/>
<g opacity="0.3">
<path d="M268.139 255.356C264.916 256.234 261.046 251.601 258.119 248.698C256.602 247.189 255.019 245.582 254.461 243.515C254.059 241.777 254.234 239.954 254.962 238.325C255.506 236.856 256.224 235.457 257.102 234.159C256.839 236.66 256.216 240.498 257.061 243.638C257.766 246.254 259.422 248.345 261.161 250.321C262.899 252.298 265.261 254.61 268.114 255.356" fill="black"/>
</g>
<path d="M254.399 252.708C254.464 252.708 254.087 251.642 253.784 249.896C253.614 248.873 253.515 247.84 253.489 246.804C253.476 245.537 253.563 244.27 253.751 243.016C253.957 241.766 254.264 240.535 254.669 239.334C255.014 238.355 255.428 237.401 255.907 236.481C256.727 234.914 257.408 234.021 257.359 234.021C257.169 234.199 257.001 234.4 256.859 234.619C256.67 234.856 256.497 235.105 256.342 235.365C256.114 235.699 255.903 236.043 255.711 236.399C255.2 237.314 254.761 238.268 254.399 239.252C253.971 240.466 253.65 241.714 253.439 242.983C253.251 244.256 253.171 245.543 253.202 246.829C253.241 247.878 253.364 248.923 253.571 249.953C253.644 250.396 253.759 250.773 253.849 251.134C253.922 251.428 254.009 251.718 254.112 252.003C254.189 252.245 254.285 252.481 254.399 252.708Z" fill="#263238"/>
<path d="M209.673 202.54C209.673 202.622 210.346 203.04 211.092 203.704C211.838 204.368 212.379 205 212.379 204.942C212.118 204.365 211.739 203.849 211.268 203.425C210.796 203.002 210.242 202.681 209.641 202.482L209.673 202.54Z" fill="#263238"/>
<path d="M203.36 206.181C203.295 206.246 203.902 206.902 204.394 207.87C204.886 208.837 205.074 209.715 205.173 209.707C205.208 209.013 205.034 208.324 204.672 207.73C204.406 207.09 203.948 206.549 203.36 206.181Z" fill="#263238"/>
<path d="M192.504 209.994C192.79 209.412 193.023 208.806 193.201 208.182C193.472 207.591 193.678 206.972 193.816 206.337C193.049 207.411 192.594 208.677 192.504 209.994Z" fill="#263238"/>
<path d="M185.527 206.698C185.618 206.698 185.855 205.657 186.544 204.533C187.233 203.41 188.053 202.705 187.987 202.631C187.258 203.031 186.664 203.639 186.282 204.377C185.81 205.061 185.548 205.868 185.527 206.698Z" fill="#263238"/>
<path d="M165.493 226.41C165.411 226.41 166.436 234.741 167.797 244.983C169.158 255.225 170.314 263.523 170.405 263.515C170.495 263.507 169.462 255.184 168.1 244.942C166.739 234.7 165.583 226.402 165.493 226.41Z" fill="#263238"/>
<path d="M256.66 239.875C256.629 240.161 256.629 240.45 256.66 240.736C256.679 241.072 256.72 241.406 256.783 241.736C256.824 241.933 256.856 242.138 256.889 242.36C256.922 242.581 257.004 242.802 257.07 243.04C257.362 244.17 257.763 245.268 258.267 246.32C258.894 247.599 259.641 248.815 260.497 249.953C261.375 251.078 262.373 252.103 263.474 253.011C264.38 253.747 265.385 254.351 266.459 254.807C266.688 254.906 266.901 255.004 267.115 255.078L267.721 255.25L268.254 255.398C268.418 255.398 268.574 255.439 268.714 255.455C268.985 255.5 269.259 255.525 269.534 255.529C268.497 255.324 267.483 255.017 266.508 254.61C265.473 254.127 264.503 253.516 263.621 252.79C262.546 251.885 261.571 250.868 260.71 249.756C259.866 248.638 259.123 247.447 258.488 246.197C257.986 245.164 257.569 244.092 257.242 242.991C256.758 241.08 256.742 239.867 256.66 239.875Z" fill="#263238"/>
<g opacity="0.3">
<path d="M167.452 309.46C164.869 308.214 164.286 304.868 164.024 302.015C163.253 293.651 162.48 285.289 161.703 276.931C161.343 272.995 161.17 268.509 163.942 265.697C166.476 263.13 170.502 262.975 174.102 262.983C196.365 263.048 216.028 263.704 238.291 263.803L237.16 302.753L167.452 309.46Z" fill="black"/>
</g>
<path d="M247.886 269.781L245.516 314.954C245.47 315.793 245.104 316.581 244.494 317.158C243.884 317.735 243.076 318.055 242.236 318.054L170.289 318.185C169.447 318.186 168.637 317.863 168.026 317.283C167.415 316.703 167.051 315.91 167.009 315.069L164.262 270.658C164.172 268.821 165.484 266.361 167.354 266.328H244.573C245.021 266.323 245.466 266.41 245.879 266.584C246.293 266.757 246.666 267.014 246.977 267.337C247.287 267.661 247.528 268.044 247.685 268.465C247.841 268.885 247.909 269.333 247.886 269.781Z" fill="#E0E0E0"/>
<path d="M247.887 269.78C247.89 269.726 247.89 269.671 247.887 269.616C247.901 269.447 247.901 269.277 247.887 269.108C247.801 268.535 247.566 267.996 247.205 267.543C246.843 267.091 246.368 266.743 245.829 266.533C245.273 266.33 244.681 266.247 244.09 266.287H239.72L211.84 266.238L170.487 266.197H167.551C167.029 266.173 166.512 266.308 166.067 266.582C165.632 266.862 165.258 267.228 164.968 267.657C164.381 268.514 164.067 269.529 164.066 270.568C164.124 271.576 164.189 272.593 164.247 273.61C164.493 277.71 164.755 281.81 165.009 286.049C165.534 294.503 166.075 303.269 166.649 312.215L166.756 313.855C166.805 314.421 166.797 314.962 166.895 315.553C167.011 316.125 167.27 316.659 167.649 317.104C168.028 317.548 168.513 317.889 169.06 318.095C169.602 318.283 170.177 318.361 170.749 318.324H175.669H188.584L213.004 318.267L235.103 318.218H240.203H241.45C241.874 318.224 242.299 318.205 242.721 318.16C243.554 318.046 244.316 317.629 244.861 316.99C245.407 316.35 245.699 315.532 245.681 314.692C245.722 313.872 245.763 313.134 245.804 312.363C245.886 310.821 245.96 309.321 246.034 307.853C246.632 296.102 247.116 286.59 247.444 279.973C247.608 276.693 247.731 274.143 247.813 272.404C247.854 271.543 247.887 270.887 247.903 270.436C247.92 269.985 247.903 269.764 247.903 269.764L247.854 270.436C247.854 270.887 247.788 271.543 247.739 272.404C247.641 274.143 247.493 276.685 247.313 279.973C246.952 286.533 246.435 296.053 245.796 307.804C245.722 309.272 245.64 310.78 245.558 312.314C245.52 313.085 245.479 313.864 245.435 314.651C245.444 315.428 245.177 316.184 244.681 316.783C244.169 317.383 243.453 317.774 242.672 317.882C242.268 317.911 241.862 317.911 241.458 317.882H235.095H212.996H188.576H175.661H170.741C170.208 317.918 169.673 317.849 169.167 317.677C168.668 317.488 168.226 317.176 167.88 316.771C167.535 316.365 167.297 315.878 167.191 315.356C167.1 314.848 167.1 314.257 167.059 313.716L166.953 312.076C166.395 303.113 165.854 294.364 165.313 285.91C165.05 281.687 164.788 277.529 164.493 273.47C164.435 272.454 164.37 271.445 164.312 270.436C164.306 269.462 164.591 268.508 165.132 267.698C165.371 267.288 165.713 266.95 166.125 266.716C166.537 266.483 167.004 266.363 167.478 266.369H170.413H211.758L239.638 266.32H244.008C244.589 266.271 245.173 266.347 245.722 266.541C246.174 266.719 246.579 267 246.903 267.361C247.359 267.835 247.661 268.435 247.772 269.083C247.823 269.314 247.861 269.546 247.887 269.78Z" fill="#263238"/>
<path d="M201.27 291.83C201.27 292.669 201.518 293.488 201.984 294.186C202.45 294.883 203.112 295.426 203.887 295.747C204.661 296.068 205.514 296.152 206.336 295.988C207.158 295.825 207.914 295.421 208.507 294.828C209.1 294.235 209.503 293.48 209.667 292.657C209.83 291.835 209.746 290.983 209.426 290.208C209.105 289.433 208.561 288.771 207.864 288.305C207.167 287.839 206.347 287.591 205.509 287.591C204.385 287.593 203.308 288.04 202.514 288.835C201.719 289.629 201.272 290.707 201.27 291.83Z" fill="white"/>
<path d="M201.268 291.83C201.309 291.83 201.268 291.452 201.465 290.813C201.715 289.907 202.26 289.11 203.015 288.55C203.624 288.093 204.348 287.815 205.106 287.746C205.865 287.678 206.627 287.822 207.308 288.162C207.989 288.503 208.562 289.026 208.962 289.674C209.363 290.322 209.575 291.068 209.575 291.83C209.575 292.431 209.443 293.024 209.188 293.569C208.933 294.113 208.562 294.595 208.1 294.98C207.639 295.365 207.098 295.643 206.517 295.796C205.936 295.949 205.328 295.972 204.737 295.864C204.106 295.752 203.511 295.493 202.998 295.11C202.244 294.549 201.698 293.753 201.448 292.846C201.276 292.207 201.293 291.83 201.252 291.83C201.239 291.919 201.239 292.01 201.252 292.1C201.253 292.362 201.284 292.624 201.342 292.879C201.558 293.834 202.1 294.684 202.875 295.282C203.411 295.696 204.038 295.977 204.704 296.102C205.471 296.251 206.264 296.192 207 295.93C207.82 295.642 208.533 295.109 209.042 294.404C209.565 293.698 209.863 292.85 209.896 291.971C209.929 291.092 209.696 290.224 209.227 289.48C208.758 288.736 208.075 288.151 207.268 287.802C206.461 287.454 205.567 287.357 204.704 287.525C204.038 287.649 203.411 287.93 202.875 288.345C202.1 288.946 201.557 289.798 201.342 290.755C201.283 291.011 201.253 291.272 201.252 291.534C201.242 291.633 201.248 291.733 201.268 291.83Z" fill="#263238"/>
<path d="M245.466 274.799C245.376 274.799 245.024 282.384 244.646 291.748C244.269 301.113 244.081 308.714 244.171 308.714C244.261 308.714 244.605 301.129 244.991 291.765C245.376 282.4 245.548 274.799 245.466 274.799Z" fill="#263238"/>
<path d="M267.091 215.865C267.509 215.504 265.673 208.411 265.673 208.411C265.673 208.411 270.552 200.449 270.683 197.882C270.814 195.316 268.756 190.043 268.756 190.043L254.75 186.443C254.75 186.443 250.257 194.799 249.355 197.751C248.453 200.703 250.921 210.74 250.921 210.74L253.291 215.881C253.291 215.881 260.425 221.515 267.091 215.865Z" fill="#FFBE9D"/>
<path d="M270.65 199.416C271.197 198.407 271.69 197.37 272.126 196.308C273.011 194.201 274.102 192.143 272.126 190.962C271.818 190.759 271.471 190.625 271.108 190.569C270.744 190.512 270.372 190.534 270.018 190.634C270.018 190.634 270.322 188.863 269.264 188.174C268.957 187.981 268.609 187.863 268.248 187.832C267.888 187.801 267.524 187.856 267.189 187.993C267.189 187.993 267.517 185.533 266 184.443C265.428 184.066 264.762 183.856 264.077 183.836C263.392 183.816 262.715 183.986 262.122 184.328C262.122 184.328 263.327 173.406 263.434 172.848C263.811 170.724 263.032 168.846 260.916 169.371C260.137 169.56 259.711 170.38 258.801 173.939C257.89 177.497 256.431 183.565 256.431 183.565C256.431 183.565 253.971 187.838 252.815 190.125C251.658 192.413 249.354 197.719 249.166 199.145C248.665 202.762 250.806 207.55 250.806 207.55L265.689 208.37C265.689 208.37 270.084 200.449 270.65 199.416Z" fill="#FFBE9D"/>
<path d="M269.721 191.102C269.299 191.619 268.915 192.168 268.573 192.742L267.393 194.537C267.147 194.889 266.933 195.263 266.753 195.653C266.543 196.094 266.483 196.592 266.581 197.071C266.624 197.322 266.733 197.557 266.897 197.752C267.062 197.947 267.275 198.094 267.516 198.178C267.966 198.29 268.442 198.231 268.852 198.014C269.2 197.839 269.532 197.633 269.844 197.399C270.14 197.186 270.41 196.989 270.664 196.792C271.148 196.415 271.525 196.095 271.771 195.866C272.017 195.636 272.157 195.497 272.14 195.48C272.124 195.464 271.525 195.915 270.5 196.62C269.939 197.044 269.344 197.423 268.721 197.752C268.374 197.927 267.976 197.974 267.598 197.883C267.408 197.816 267.24 197.699 267.112 197.545C266.984 197.39 266.899 197.204 266.868 197.006C266.788 196.59 266.84 196.16 267.015 195.776C267.186 195.398 267.389 195.036 267.622 194.693L268.737 192.865C269.115 192.306 269.444 191.716 269.721 191.102Z" fill="#EB996E"/>
<path d="M257.48 192.405C257.614 191.622 257.56 190.818 257.324 190.06C257.19 189.28 256.873 188.543 256.397 187.911C256.315 187.952 256.733 188.903 257.02 190.133C257.307 191.363 257.422 192.405 257.48 192.405Z" fill="#EB996E"/>
<path d="M251.617 195.595C252.989 194.263 254.718 193.36 256.595 192.996C258.464 192.638 260.378 192.566 262.269 192.782C263.778 192.914 265.549 193.307 266.197 194.66C266.845 196.013 266.057 197.858 264.713 198.654C263.3 199.357 261.703 199.601 260.145 199.351C258.601 199.096 257.031 199.032 255.471 199.162" fill="#FFBE9D"/>
<path d="M255.472 199.161C255.472 199.161 255.89 199.161 256.644 199.161C257.712 199.208 258.777 199.309 259.834 199.465C260.576 199.559 261.325 199.589 262.073 199.555C262.945 199.53 263.802 199.314 264.582 198.924C265.459 198.47 266.126 197.694 266.443 196.759C266.615 196.261 266.652 195.726 266.55 195.209C266.425 194.679 266.139 194.2 265.73 193.84C264.906 193.195 263.911 192.807 262.868 192.724C261.929 192.616 260.985 192.559 260.039 192.552C258.433 192.522 256.833 192.766 255.308 193.274C254.279 193.62 253.317 194.138 252.462 194.807C252.236 194.989 252.02 195.184 251.815 195.389C251.675 195.537 251.61 195.619 251.618 195.627C251.626 195.635 251.929 195.34 252.536 194.897C253.403 194.28 254.36 193.802 255.373 193.479C256.885 193.018 258.46 192.802 260.039 192.839C260.971 192.856 261.902 192.919 262.827 193.028C263.806 193.106 264.741 193.468 265.517 194.069C265.879 194.39 266.133 194.813 266.247 195.283C266.337 195.745 266.303 196.224 266.148 196.669C265.857 197.53 265.247 198.246 264.443 198.669C263.702 199.048 262.888 199.264 262.056 199.301C261.324 199.337 260.589 199.317 259.859 199.243C258.793 199.103 257.719 199.034 256.644 199.038C256.353 199.049 256.063 199.076 255.775 199.12C255.57 199.12 255.472 199.145 255.472 199.161Z" fill="#EB996E"/>
<path d="M269.618 191.273C268.051 193.651 266.666 196.267 265.345 198.793C265.031 199.563 264.516 200.234 263.853 200.736C263.287 201.08 261.885 200.449 261.262 200.236L265.559 190.453" fill="#FFBE9D"/>
<path d="M265.557 190.453C265.41 190.685 265.284 190.929 265.18 191.183L264.228 193.233C263.408 194.971 262.334 197.415 261.121 200.17L261.047 200.326L261.211 200.383C261.701 200.58 262.202 200.75 262.711 200.892C262.926 200.946 263.146 200.979 263.367 200.99C263.486 200.996 263.606 200.982 263.72 200.949C263.837 200.921 263.946 200.868 264.04 200.793C264.387 200.543 264.682 200.229 264.909 199.867C265.352 199.17 265.663 198.473 266.016 197.833C266.688 196.529 267.303 195.373 267.845 194.397C268.386 193.422 268.829 192.651 269.148 192.118C269.324 191.856 269.48 191.582 269.616 191.298C269.398 191.552 269.206 191.826 269.042 192.118C268.697 192.634 268.222 193.389 267.656 194.348C267.09 195.308 266.451 196.464 265.762 197.759C265.401 198.399 265.073 199.112 264.655 199.76C264.438 200.085 264.159 200.363 263.835 200.58C263.669 200.667 263.486 200.716 263.299 200.724C263.112 200.733 262.926 200.7 262.752 200.629C262.252 200.489 261.759 200.322 261.276 200.129L261.367 200.342C262.58 197.571 263.638 195.119 264.384 193.356L265.245 191.265C265.374 191.004 265.478 190.733 265.557 190.453Z" fill="#EB996E"/>
<path d="M266.724 187.542C265.34 191.008 263.957 194.474 262.574 197.94C262.32 198.693 261.943 199.4 261.459 200.031C261.21 200.34 260.89 200.584 260.526 200.743C260.161 200.901 259.764 200.969 259.368 200.941C258.838 200.802 258.37 200.491 258.037 200.055C257.704 199.62 257.526 199.086 257.531 198.538C257.564 197.444 257.827 196.368 258.302 195.381C259.547 192.223 260.542 188.971 261.279 185.656" fill="#FFBE9D"/>
<path d="M261.278 185.656C261.229 185.755 261.193 185.86 261.171 185.968L260.925 186.886C260.712 187.706 260.401 188.838 259.966 190.248C259.531 191.659 258.957 193.323 258.244 195.168C257.807 196.112 257.514 197.115 257.375 198.145C257.336 198.71 257.446 199.276 257.695 199.785C257.939 200.336 258.385 200.773 258.941 201.007C259.224 201.109 259.526 201.149 259.825 201.125C260.125 201.101 260.416 201.013 260.679 200.867C261.18 200.595 261.601 200.196 261.901 199.711C262.4 198.809 262.82 197.865 263.156 196.89C263.869 195.078 264.509 193.446 265.05 192.052L266.305 188.772C266.436 188.411 266.542 188.116 266.624 187.878C266.67 187.776 266.703 187.669 266.723 187.559C266.656 187.649 266.604 187.748 266.567 187.854C266.469 188.092 266.337 188.379 266.19 188.731L264.861 191.946C264.304 193.331 263.64 194.955 262.91 196.759C262.571 197.713 262.154 198.637 261.663 199.522C261.39 199.959 261.009 200.317 260.556 200.564C260.333 200.691 260.085 200.769 259.829 200.791C259.573 200.814 259.315 200.781 259.072 200.695C258.592 200.486 258.206 200.106 257.99 199.629C257.762 199.163 257.663 198.645 257.703 198.128C257.826 197.13 258.102 196.156 258.523 195.242C259.228 193.413 259.769 191.732 260.163 190.322C260.556 188.912 260.86 187.731 261.04 186.927C261.122 186.517 261.188 186.206 261.229 185.992C261.261 185.883 261.277 185.77 261.278 185.656Z" fill="#EB996E"/>
<path d="M276.259 241.286C275.882 239.908 266.419 211.921 266.419 211.921L250.773 210.052L257.169 234.16C257.169 234.16 256.177 240.285 257.169 243.91C258.162 247.534 266.189 257.399 270.289 255.029C274.389 252.659 276.628 242.663 276.259 241.286Z" fill="#FFBE9D"/>
<path d="M257.137 207.575C257.44 207.613 257.747 207.573 258.031 207.461C258.734 207.242 259.38 206.87 259.923 206.373C260.465 205.875 260.892 205.264 261.171 204.582C261.305 204.31 261.37 204.009 261.36 203.705C260.969 204.619 260.413 205.453 259.72 206.165C258.955 206.793 258.079 207.272 257.137 207.575Z" fill="#EB996E"/>
</svg>
