<svg width="598" height="598" viewBox="0 0 598 598" fill="none" xmlns="http://www.w3.org/2000/svg">
<path d="M325.276 551.476C467.225 551.476 582.297 486.026 582.297 405.289C582.297 324.552 467.225 259.102 325.276 259.102C183.328 259.102 68.2559 324.552 68.2559 405.289C68.2559 486.026 183.328 551.476 325.276 551.476Z" fill="#F5F5F5"/>
<path d="M488.314 473.317C522.259 473.317 549.776 456.065 549.776 434.782C549.776 413.5 522.259 396.247 488.314 396.247C454.369 396.247 426.852 413.5 426.852 434.782C426.852 456.065 454.369 473.317 488.314 473.317Z" fill="#E6E6E6"/>
<path d="M82.523 322.92C81.7864 314.051 79.7389 305.342 76.4474 297.074C71.0295 283.715 60.6602 270.296 48.7121 267.784C36.7641 265.272 31.717 273.286 34.2286 281.179C36.4053 287.972 45.2796 293.618 52.0251 299.55C58.7705 305.482 71.3524 319.882 74.8447 333.672L81.5902 334.413L82.523 322.92Z" fill="#46B2C8"/>
<g opacity="0.15">
<path d="M82.523 322.92C81.7864 314.051 79.7389 305.342 76.4474 297.074C71.0295 283.715 60.6602 270.296 48.7121 267.784C36.7641 265.272 31.717 273.286 34.2286 281.179C36.4053 287.972 45.2796 293.618 52.0251 299.55C58.7705 305.482 71.3524 319.882 74.8447 333.672L81.5902 334.413L82.523 322.92Z" fill="#128807"/>
</g>
<path d="M77.8948 329.115C77.7022 329.115 77.5172 329.04 77.3788 328.907C77.2404 328.773 77.1595 328.59 77.1533 328.398C75.8975 293.57 41.8593 274.099 41.4886 273.884C41.3263 273.781 41.2095 273.62 41.162 273.434C41.1146 273.248 41.14 273.05 41.2332 272.882C41.3264 272.714 41.4803 272.588 41.6634 272.53C41.8464 272.471 42.0449 272.485 42.2181 272.568C42.5769 272.772 77.3686 292.661 78.6483 328.314C78.6548 328.512 78.5832 328.704 78.4489 328.85C78.3146 328.995 78.1285 329.082 77.9307 329.091L77.8948 329.115Z" fill="white"/>
<path d="M87.8931 384.226C87.8931 384.226 80.9324 388.628 70.0488 386.75C66.5294 386.282 63.25 384.707 60.6841 382.253C57.8735 379.359 57.431 376.441 56.6417 372.565C56.4243 370.946 55.8702 369.389 55.0151 367.997C52.6231 364.791 48.0305 364.851 44.1554 364.014C38.6538 362.818 33.5947 358.871 32.0041 353.477C30.4134 348.083 32.9967 341.517 38.2113 339.388L31.8127 335.286C29.8236 334.118 27.9841 332.713 26.335 331.1C24.6889 329.456 23.7055 327.263 23.5723 324.941C23.5723 321.544 26.0958 318.506 29.2054 317.119C32.3907 315.889 35.8471 315.534 39.2159 316.09C42.6284 316.508 45.9826 317.31 49.2145 318.482C50.0952 318.88 51.0471 319.096 52.0131 319.116C53.2704 318.894 54.4487 318.35 55.4337 317.537C62.7532 312.753 74.6773 313.076 78.6002 322.19C79.1743 323.529 79.5211 324.965 80.1431 326.28C82.4155 331.196 88.8141 329.713 92.9522 332.009C94.2509 332.832 95.3528 333.93 96.1796 335.226C97.0063 336.522 97.5378 337.984 97.7362 339.508C98.5615 344.364 97.21 349.901 96.313 354.697C95.416 359.493 94.2798 363.954 92.9761 368.499C91.9117 372.254 90.7396 375.974 89.4958 379.67C89.2327 380.435 88.6586 383.748 87.8931 384.226Z" fill="#00C285"/>
<path d="M92.2714 373.008C88.6237 362.971 82.6332 353.951 74.7978 346.696C74.7163 346.521 74.5707 346.384 74.3912 346.313C72.1336 344.197 69.7662 342.2 67.2989 340.333C66.3666 333.875 67.1929 327.285 69.6909 321.257C69.7749 321.077 69.7844 320.872 69.7171 320.686C69.6498 320.5 69.5113 320.348 69.3321 320.264C69.1529 320.18 68.9476 320.171 68.7614 320.238C68.5753 320.305 68.4235 320.444 68.3394 320.623C65.8623 326.434 64.9113 332.783 65.5766 339.065C55.5519 331.835 44.431 326.263 32.6388 322.56C32.447 322.512 32.2441 322.54 32.0724 322.638C31.9007 322.736 31.7737 322.897 31.7179 323.087C31.6908 323.182 31.6829 323.281 31.6948 323.379C31.7067 323.477 31.7381 323.572 31.7872 323.658C31.8362 323.744 31.9019 323.819 31.9803 323.879C32.0588 323.939 32.1485 323.983 32.2441 324.007C32.5551 324.091 53.7721 330.119 71.3294 345.535C60.5654 343.658 47.7323 348.848 47.1463 349.123C46.9816 349.185 46.8443 349.304 46.7588 349.458C46.6734 349.611 46.6454 349.791 46.68 349.963C46.7145 350.136 46.8092 350.29 46.9472 350.399C47.0852 350.508 47.2575 350.565 47.4333 350.559C47.5282 350.576 47.6255 350.576 47.7204 350.559C47.8639 350.487 62.9454 344.387 73.6018 347.7C81.3413 354.797 87.271 363.643 90.896 373.498C90.9461 373.645 91.0412 373.773 91.1678 373.863C91.2944 373.953 91.4462 374.001 91.6016 374H91.8528C91.9472 373.965 92.0334 373.911 92.1061 373.841C92.1788 373.771 92.2366 373.687 92.2758 373.594C92.3149 373.501 92.3348 373.401 92.334 373.3C92.3332 373.2 92.3119 373.1 92.2714 373.008Z" fill="white"/>
<path d="M88.1328 383.186C88.2601 384.936 88.7987 386.632 89.7048 388.134C90.6109 389.637 91.8589 390.904 93.3474 391.833L239.2 476.008C240.811 476.827 242.594 477.254 244.402 477.254C246.21 477.254 247.993 476.827 249.605 476.008L449.133 360.809C450.702 359.976 452.015 358.732 452.93 357.209C453.846 355.687 454.329 353.944 454.329 352.168C454.329 350.392 453.846 348.649 452.93 347.127C452.015 345.604 450.702 344.36 449.133 343.527L303.305 259.329C301.692 258.515 299.91 258.091 298.103 258.091C296.295 258.091 294.513 258.515 292.9 259.329L93.3474 374.551C91.8599 375.478 90.6123 376.744 89.7061 378.244C88.8 379.745 88.261 381.438 88.1328 383.186Z" fill="#37474F"/>
<path d="M244.377 466.009V477.263C242.569 477.314 240.779 476.902 239.175 476.067L93.2865 391.833C91.7619 391.029 90.4776 389.836 89.5645 388.374C88.6514 386.913 88.1422 385.235 88.0887 383.513C88.0352 381.79 88.4394 380.084 89.26 378.569C90.0806 377.053 91.2884 375.782 92.7602 374.886C90.428 376.56 90.6074 379.012 93.2865 380.555L239.198 464.753C240.79 465.605 242.572 466.037 244.377 466.009Z" fill="#263238"/>
<path d="M83.2527 374.73C81.8042 373.745 80.6077 372.432 79.7601 370.899C78.9124 369.366 78.4373 367.655 78.373 365.904V191.874C78.4712 190.069 78.9934 188.314 79.8974 186.749C80.8013 185.184 82.0615 183.855 83.5756 182.868L283.104 67.6694C284.654 66.8472 286.375 66.4015 288.129 66.3682C289.882 66.335 291.619 66.7152 293.199 67.478C294.647 68.4635 295.844 69.7759 296.691 71.3092C297.539 72.8425 298.014 74.5536 298.078 76.3045V250.334C297.98 252.139 297.458 253.895 296.554 255.46C295.65 257.024 294.39 258.354 292.876 259.34L93.347 374.551C91.7958 375.369 90.0744 375.811 88.3212 375.842C86.568 375.873 84.832 375.492 83.2527 374.73Z" fill="#455A64"/>
<path d="M92.725 374.862C91.2319 375.531 89.6105 375.866 87.9743 375.844C86.3381 375.821 84.7267 375.441 83.2527 374.73C81.8042 373.745 80.6077 372.432 79.7601 370.899C78.9124 369.366 78.4373 367.655 78.373 365.904V191.874C78.4302 190.063 78.9578 188.299 79.9039 186.755L89.6633 192.376C88.7256 193.924 88.1987 195.686 88.1324 197.495V371.537C88.1324 374.623 90.1417 375.998 92.725 374.862Z" fill="#263238"/>
<path d="M88.1328 197.519V371.537C88.1328 374.862 90.5248 376.201 93.3474 374.551L292.876 259.34C294.39 258.354 295.65 257.024 296.554 255.459C297.458 253.895 297.98 252.139 298.079 250.334V76.3044C298.079 72.9914 295.746 71.64 292.876 73.3024L93.3474 188.501C91.8295 189.487 90.566 190.818 89.6598 192.385C88.7536 193.952 88.2304 195.711 88.1328 197.519Z" fill="#37474F"/>
<path d="M93.3473 380.555L239.2 464.753C240.813 465.567 242.595 465.991 244.402 465.991C246.209 465.991 247.991 465.567 249.605 464.753L449.133 349.555C452.016 347.892 452.016 345.201 449.133 343.575L303.305 259.376C301.692 258.563 299.91 258.139 298.103 258.139C296.295 258.139 294.513 258.563 292.9 259.376L93.3473 374.551C90.465 376.202 90.465 378.893 93.3473 380.555Z" fill="#455A64"/>
<path d="M96.1452 198.164L288.522 87.1158C290.244 86.1232 291.643 86.9364 291.643 88.9218V239.618C291.584 240.701 291.27 241.754 290.728 242.693C290.185 243.632 289.43 244.431 288.522 245.024L96.1452 356.013C94.411 357.005 93.0117 356.204 93.0117 354.207V203.511C93.0783 202.436 93.3966 201.393 93.941 200.464C94.4853 199.535 95.2404 198.747 96.1452 198.164Z" fill="#FAFAFA"/>
<path d="M110.271 376.046L295.484 269.099C296.289 268.687 297.18 268.472 298.085 268.472C298.99 268.472 299.881 268.687 300.686 269.099L310.159 274.565C310.47 274.674 310.739 274.877 310.93 275.146C311.12 275.415 311.223 275.736 311.223 276.066C311.223 276.396 311.12 276.717 310.93 276.986C310.739 277.255 310.47 277.458 310.159 277.567L124.922 384.501C124.117 384.914 123.225 385.129 122.321 385.129C121.416 385.129 120.525 384.914 119.719 384.501L110.271 379.048C109.96 378.938 109.691 378.735 109.5 378.467C109.309 378.198 109.207 377.876 109.207 377.547C109.207 377.217 109.309 376.896 109.5 376.627C109.691 376.358 109.96 376.155 110.271 376.046Z" fill="#37474F"/>
<path d="M134.681 390.147L319.894 283.213C320.7 282.806 321.591 282.594 322.495 282.594C323.399 282.594 324.29 282.806 325.096 283.213L383.365 316.856C383.676 316.965 383.946 317.168 384.136 317.437C384.327 317.706 384.429 318.027 384.429 318.357C384.429 318.687 384.327 319.008 384.136 319.277C383.946 319.546 383.676 319.749 383.365 319.858L198.368 426.637C197.56 427.047 196.667 427.26 195.761 427.26C194.855 427.26 193.962 427.047 193.154 426.637L134.693 393.149C134.376 393.047 134.099 392.847 133.902 392.578C133.706 392.31 133.599 391.985 133.598 391.652C133.596 391.319 133.7 390.994 133.895 390.724C134.09 390.453 134.365 390.251 134.681 390.147Z" fill="#263238"/>
<path d="M300.71 331.292L306.498 327.955C306.749 327.812 306.737 327.572 306.498 327.417L299.789 323.542C299.646 323.469 299.488 323.43 299.328 323.43C299.168 323.43 299.01 323.469 298.868 323.542L293.067 326.891C292.816 327.022 292.828 327.262 293.067 327.417L299.765 331.292C299.911 331.368 300.073 331.407 300.237 331.407C300.402 331.407 300.564 331.368 300.71 331.292ZM289.264 317.993L283.451 321.365C283.2 321.509 283.224 321.748 283.451 321.903L290.149 325.767C290.293 325.84 290.453 325.878 290.615 325.878C290.777 325.878 290.937 325.84 291.082 325.767L296.882 322.418C297.122 322.274 297.11 322.035 296.882 321.88L290.173 318.016C290.032 317.945 289.876 317.908 289.718 317.908C289.56 317.908 289.405 317.945 289.264 318.016V317.993ZM270.523 328.9L260.715 334.557C260.464 334.701 260.476 334.94 260.715 335.095L267.413 338.97C267.558 339.041 267.718 339.078 267.879 339.078C268.041 339.078 268.201 339.041 268.346 338.97L278.153 333.313C278.404 333.17 278.38 332.931 278.153 332.775L271.491 328.9C271.342 328.82 271.176 328.779 271.007 328.779C270.838 328.779 270.672 328.82 270.523 328.9ZM280.784 322.92L274.984 326.269C274.744 326.412 274.756 326.652 274.984 326.807L281.693 330.682C281.836 330.753 281.994 330.79 282.154 330.79C282.313 330.79 282.471 330.753 282.614 330.682L288.415 327.333C288.654 327.19 288.642 326.951 288.415 326.807L281.705 322.92C281.563 322.847 281.405 322.808 281.245 322.808C281.084 322.808 280.927 322.847 280.784 322.92ZM258.06 336.076L252.26 339.413C252.02 339.556 252.032 339.796 252.26 339.951L258.969 343.826C259.112 343.9 259.269 343.938 259.43 343.938C259.59 343.938 259.748 343.9 259.89 343.826L265.691 340.477C265.93 340.346 265.918 340.107 265.691 339.951L258.957 336.076C258.815 336.003 258.657 335.964 258.497 335.964C258.337 335.964 258.179 336.003 258.036 336.076H258.06ZM249.581 340.968L243.792 344.316C243.541 344.448 243.553 344.687 243.792 344.843L250.501 348.718C250.645 348.788 250.802 348.825 250.962 348.825C251.122 348.825 251.279 348.788 251.422 348.718L257.223 345.369C257.474 345.225 257.45 344.986 257.223 344.831L250.525 340.956C250.377 340.874 250.211 340.831 250.043 340.829C249.874 340.826 249.707 340.866 249.557 340.944L249.581 340.968ZM275.964 356.707L281.765 353.358C282.004 353.215 281.992 352.976 281.765 352.82L275.055 348.957C274.913 348.884 274.755 348.845 274.595 348.845C274.435 348.845 274.277 348.884 274.134 348.957L268.334 352.306C268.083 352.449 268.107 352.688 268.334 352.844L275.031 356.707C275.175 356.773 275.331 356.805 275.489 356.801C275.646 356.797 275.801 356.757 275.94 356.683L275.964 356.707ZM267.485 361.599L273.285 358.25C273.536 358.106 273.513 357.867 273.285 357.712L266.588 353.849C266.443 353.775 266.283 353.737 266.121 353.737C265.959 353.737 265.799 353.775 265.655 353.849L259.854 357.197C259.615 357.341 259.627 357.58 259.854 357.736L266.564 361.611C266.706 361.672 266.861 361.701 267.016 361.694C267.172 361.688 267.323 361.647 267.461 361.575L267.485 361.599ZM259.005 366.49L264.806 363.142C265.057 362.998 265.045 362.759 264.806 362.615L258.108 358.74C257.966 358.667 257.808 358.628 257.648 358.628C257.487 358.628 257.329 358.667 257.187 358.74L251.387 362.089C251.135 362.233 251.147 362.472 251.387 362.627L258.096 366.502C258.237 366.562 258.39 366.589 258.543 366.583C258.696 366.577 258.845 366.537 258.981 366.466L259.005 366.49ZM250.537 371.382L256.338 368.033C256.577 367.902 256.565 367.662 256.338 367.507L249.569 363.584C249.426 363.511 249.268 363.472 249.108 363.472C248.948 363.472 248.79 363.511 248.648 363.584L242.847 366.921C242.596 367.064 242.62 367.304 242.847 367.459L249.545 371.334C249.692 371.417 249.857 371.463 250.026 371.467C250.195 371.471 250.362 371.434 250.513 371.358L250.537 371.382ZM292.254 336.243L298.054 332.895C298.294 332.751 298.282 332.512 298.054 332.356L291.345 328.481C291.202 328.411 291.044 328.374 290.884 328.374C290.725 328.374 290.567 328.411 290.424 328.481L284.623 331.83C284.384 331.974 284.396 332.213 284.623 332.356L291.333 336.232C291.474 336.297 291.628 336.329 291.783 336.327C291.938 336.325 292.091 336.288 292.23 336.22L292.254 336.243ZM284.432 351.791L297.373 344.316C297.624 344.173 297.6 343.934 297.373 343.79L281.059 334.39C280.915 334.316 280.755 334.278 280.593 334.278C280.431 334.278 280.271 334.316 280.126 334.39L273.441 338.253C273.19 338.396 273.202 338.635 273.441 338.791L282.052 343.766C282.327 343.922 282.339 344.161 282.052 344.293L276.706 347.39C276.455 347.534 276.467 347.773 276.706 347.928L283.415 351.791C283.567 351.877 283.738 351.923 283.912 351.923C284.086 351.923 284.257 351.877 284.408 351.791H284.432ZM241.113 345.811L235.312 349.16C235.061 349.304 235.085 349.543 235.312 349.687L242.01 353.562C242.154 353.635 242.314 353.673 242.476 353.673C242.638 353.673 242.798 353.635 242.943 353.562L248.731 350.213C248.983 350.069 248.971 349.83 248.731 349.675L242.022 345.8C241.874 345.732 241.713 345.701 241.551 345.707C241.389 345.713 241.231 345.757 241.089 345.835L241.113 345.811ZM232.633 350.703L226.833 354.052C226.593 354.195 226.605 354.435 226.833 354.59L233.542 358.453C233.685 358.527 233.842 358.565 234.003 358.565C234.163 358.565 234.321 358.527 234.463 358.453L240.264 355.104C240.503 354.961 240.491 354.722 240.264 354.566L233.554 350.703C233.407 350.629 233.244 350.593 233.079 350.597C232.914 350.601 232.753 350.646 232.609 350.727L232.633 350.703ZM190.283 405.576C190.426 405.646 190.584 405.683 190.743 405.683C190.903 405.683 191.061 405.646 191.204 405.576L197.004 402.227C197.256 402.083 197.244 401.844 197.004 401.701L190.307 397.826C190.161 397.755 190.002 397.718 189.84 397.718C189.679 397.718 189.519 397.755 189.374 397.826L183.585 401.174C183.334 401.318 183.346 401.557 183.585 401.713L190.283 405.576ZM164.808 389.896L159.007 393.245C158.768 393.388 158.78 393.628 159.007 393.783L165.717 397.646C165.859 397.72 166.017 397.758 166.178 397.758C166.338 397.758 166.496 397.72 166.638 397.646L172.439 394.297C172.678 394.154 172.666 393.915 172.439 393.759L165.729 389.896C165.587 389.823 165.429 389.784 165.269 389.784C165.108 389.784 164.95 389.823 164.808 389.896ZM178.454 401.378C178.598 401.448 178.755 401.485 178.915 401.485C179.075 401.485 179.232 401.448 179.375 401.378L185.176 398.029C185.415 397.885 185.403 397.646 185.176 397.491L178.466 393.616C178.324 393.542 178.166 393.504 178.006 393.504C177.846 393.504 177.688 393.542 177.545 393.616L171.745 396.964C171.506 397.108 171.518 397.335 171.745 397.491L178.454 401.378ZM205.221 408.554L211.022 405.205C211.273 405.073 211.249 404.834 211.022 404.679L204.324 400.804C204.179 400.73 204.02 400.692 203.857 400.692C203.695 400.692 203.536 400.73 203.391 400.804L197.59 404.14C197.351 404.284 197.363 404.523 197.59 404.679L204.3 408.554C204.441 408.629 204.599 408.669 204.759 408.671C204.919 408.673 205.078 408.637 205.221 408.566V408.554ZM195.82 413.433C195.966 413.504 196.125 413.541 196.287 413.541C196.448 413.541 196.608 413.504 196.753 413.433L202.542 410.085C202.793 409.941 202.781 409.702 202.542 409.546L195.832 405.671C195.69 405.598 195.532 405.56 195.372 405.56C195.212 405.56 195.054 405.598 194.911 405.671L189.087 409.032C188.836 409.164 188.848 409.403 189.087 409.558L195.82 413.433ZM173.288 384.969L167.487 388.317C167.236 388.461 167.248 388.7 167.487 388.844L174.185 392.719C174.327 392.792 174.485 392.83 174.645 392.83C174.805 392.83 174.963 392.792 175.106 392.719L180.906 389.37C181.157 389.226 181.145 388.987 180.906 388.832L174.197 384.957C174.053 384.891 173.897 384.86 173.739 384.864C173.582 384.868 173.428 384.908 173.288 384.98V384.969ZM215.662 360.498L209.861 363.847C209.61 363.991 209.634 364.23 209.861 364.385L216.559 368.248C216.703 368.322 216.863 368.36 217.025 368.36C217.188 368.36 217.347 368.322 217.492 368.248L223.292 364.9C223.532 364.756 223.52 364.517 223.292 364.361L216.583 360.498C216.44 360.427 216.281 360.391 216.121 360.393C215.961 360.395 215.803 360.435 215.662 360.51V360.498ZM181.791 380.089L175.991 383.438C175.751 383.581 175.763 383.82 175.991 383.964L182.7 387.839C182.843 387.912 183.001 387.951 183.161 387.951C183.321 387.951 183.479 387.912 183.621 387.839L189.422 384.49C189.673 384.347 189.649 384.107 189.422 383.952L182.724 380.077C182.578 380.008 182.418 379.973 182.256 379.975C182.095 379.977 181.936 380.016 181.791 380.089ZM224.166 355.619L218.377 358.967C218.126 359.111 218.138 359.35 218.377 359.506L225.086 363.369C225.229 363.442 225.387 363.48 225.547 363.48C225.707 363.48 225.865 363.442 226.007 363.369L231.808 360.02C232.059 359.876 232.047 359.637 231.808 359.482L225.11 355.619C224.96 355.537 224.791 355.494 224.62 355.494C224.449 355.494 224.28 355.537 224.13 355.619H224.166ZM207.218 365.402L201.418 368.751C201.178 368.894 201.19 369.133 201.418 369.289L208.103 373.152C208.246 373.223 208.404 373.259 208.564 373.259C208.723 373.259 208.881 373.223 209.024 373.152L214.825 369.803C215.076 369.66 215.052 369.421 214.825 369.277L208.103 365.426C207.963 365.349 207.806 365.306 207.646 365.302C207.486 365.298 207.327 365.332 207.182 365.402H207.218ZM198.751 370.294L192.95 373.642C192.699 373.786 192.711 374.025 192.95 374.181L199.66 378.056C199.802 378.129 199.96 378.167 200.12 378.167C200.28 378.167 200.438 378.129 200.58 378.056L206.381 374.707C206.632 374.563 206.62 374.324 206.381 374.181L199.671 370.306C199.525 370.227 199.361 370.185 199.195 370.183C199.028 370.181 198.863 370.219 198.715 370.294H198.751ZM190.271 375.197L184.47 378.546C184.219 378.678 184.243 378.917 184.47 379.072L191.168 382.947C191.312 383.021 191.472 383.059 191.634 383.059C191.796 383.059 191.956 383.021 192.101 382.947L197.901 379.61C198.141 379.467 198.129 379.228 197.901 379.072L191.192 375.197C191.045 375.118 190.881 375.076 190.713 375.076C190.546 375.076 190.382 375.118 190.235 375.197H190.271ZM233.59 381.177L239.391 377.828C239.642 377.685 239.63 377.446 239.391 377.29L232.681 373.415C232.538 373.344 232.38 373.308 232.221 373.308C232.061 373.308 231.903 373.344 231.76 373.415L225.96 376.764C225.708 376.907 225.72 377.147 225.96 377.29L232.669 381.165C232.808 381.231 232.96 381.264 233.113 381.262C233.266 381.26 233.417 381.223 233.554 381.153L233.59 381.177ZM308.029 307.229L302.228 310.577C301.989 310.721 302.001 310.96 302.228 311.104L308.938 314.979C309.08 315.052 309.238 315.09 309.398 315.09C309.559 315.09 309.717 315.052 309.859 314.979L315.66 311.63C315.911 311.486 315.887 311.247 315.66 311.092L308.962 307.217C308.813 307.138 308.647 307.096 308.479 307.094C308.311 307.092 308.144 307.13 307.993 307.205L308.029 307.229ZM297.767 313.149L291.979 316.498C291.728 316.641 291.74 316.88 291.979 317.036L298.688 320.899C298.831 320.972 298.989 321.011 299.149 321.011C299.309 321.011 299.467 320.972 299.609 320.899L305.41 317.55C305.661 317.406 305.649 317.167 305.41 317.012L298.712 313.149C298.564 313.063 298.396 313.016 298.225 313.012C298.054 313.008 297.884 313.047 297.732 313.125L297.767 313.149ZM316.509 302.385L310.708 305.734C310.457 305.865 310.481 306.104 310.708 306.26L317.406 310.135C317.551 310.206 317.711 310.242 317.872 310.242C318.034 310.242 318.193 310.206 318.339 310.135L324.139 306.786C324.378 306.642 324.366 306.403 324.139 306.248L317.43 302.373C317.288 302.284 317.126 302.232 316.959 302.221C316.792 302.211 316.625 302.242 316.473 302.313L316.509 302.385ZM272.639 347.617L278.44 344.269C278.679 344.125 278.667 343.886 278.44 343.73L271.73 339.867C271.588 339.794 271.43 339.756 271.27 339.756C271.11 339.756 270.952 339.794 270.81 339.867L265.009 343.216C264.77 343.36 264.782 343.599 265.009 343.754L271.719 347.617C271.862 347.674 272.016 347.697 272.169 347.685C272.323 347.672 272.471 347.625 272.604 347.546L272.639 347.617ZM325.909 297.505C325.765 297.432 325.605 297.393 325.443 297.393C325.281 297.393 325.121 297.432 324.976 297.505L319.188 300.842C318.937 300.985 318.949 301.225 319.188 301.38L325.897 305.255C326.04 305.329 326.198 305.367 326.358 305.367C326.518 305.367 326.676 305.329 326.818 305.255L332.619 301.906C332.87 301.775 332.858 301.536 332.619 301.38L325.909 297.505ZM242.07 376.321L247.87 372.985C248.121 372.841 248.098 372.602 247.87 372.446L241.173 368.571C241.028 368.498 240.868 368.459 240.706 368.459C240.544 368.459 240.384 368.498 240.24 368.571L234.415 371.836C234.176 371.968 234.188 372.207 234.415 372.363L241.125 376.238C241.265 376.311 241.42 376.35 241.578 376.352C241.736 376.354 241.892 376.319 242.034 376.25L242.07 376.321ZM346.002 316.318L351.803 312.969C352.054 312.826 352.03 312.587 351.803 312.443L345.105 308.568C344.961 308.495 344.801 308.456 344.639 308.456C344.477 308.456 344.317 308.495 344.172 308.568L338.384 311.917C338.132 312.06 338.144 312.3 338.384 312.455L345.093 316.33C345.236 316.38 345.388 316.399 345.539 316.385C345.69 316.37 345.836 316.323 345.966 316.246L346.002 316.318ZM327.954 315.684L333.755 312.335C333.994 312.192 333.982 311.953 333.755 311.797L327.045 307.934C326.903 307.861 326.745 307.822 326.585 307.822C326.425 307.822 326.267 307.861 326.125 307.934L320.324 311.283C320.073 311.426 320.097 311.666 320.324 311.821L327.022 315.684C327.167 315.741 327.323 315.764 327.478 315.752C327.634 315.739 327.784 315.692 327.919 315.612L327.954 315.684ZM335.489 303.043C335.345 302.969 335.185 302.931 335.023 302.931C334.861 302.931 334.701 302.969 334.556 303.043L328.768 306.391C328.517 306.535 328.529 306.774 328.768 306.93L335.477 310.793C335.62 310.866 335.778 310.904 335.938 310.904C336.098 310.904 336.256 310.866 336.398 310.793L342.199 307.444C342.45 307.3 342.438 307.061 342.199 306.906L335.489 303.043ZM337.271 302.002L353.561 311.415C353.704 311.485 353.862 311.522 354.021 311.522C354.181 311.522 354.339 311.485 354.482 311.415L360.282 308.066C360.521 307.922 360.51 307.683 360.282 307.539L343.993 298.127C343.85 298.056 343.692 298.02 343.532 298.02C343.373 298.02 343.215 298.056 343.072 298.127L337.271 301.476C336.96 301.548 336.972 301.787 337.271 301.93V302.002ZM317.609 312.766L311.808 316.115C311.569 316.258 311.581 316.498 311.808 316.653L318.518 320.516C318.66 320.589 318.818 320.628 318.978 320.628C319.139 320.628 319.297 320.589 319.439 320.516L325.24 317.167C325.491 317.024 325.467 316.785 325.24 316.629L318.542 312.766C318.396 312.681 318.231 312.633 318.062 312.627C317.893 312.62 317.725 312.656 317.573 312.73L317.609 312.766ZM253.79 349.555L247.99 352.904C247.739 353.047 247.763 353.286 247.99 353.442L254.687 357.317C254.832 357.391 254.992 357.429 255.154 357.429C255.316 357.429 255.476 357.391 255.62 357.317L261.409 353.968C261.66 353.825 261.648 353.597 261.409 353.442L254.747 349.579C254.601 349.499 254.438 349.455 254.272 349.45C254.105 349.446 253.94 349.482 253.79 349.555ZM336.566 321.126C336.71 321.2 336.87 321.238 337.032 321.238C337.194 321.238 337.354 321.2 337.499 321.126L343.299 317.777C343.538 317.646 343.526 317.406 343.299 317.251L336.554 313.352C336.41 313.281 336.253 313.245 336.093 313.245C335.934 313.245 335.776 313.281 335.633 313.352L329.832 316.701C329.581 316.844 329.605 317.084 329.832 317.239L336.566 321.126ZM262.258 344.663L256.47 348.012C256.218 348.156 256.23 348.395 256.47 348.55L263.179 352.425C263.322 352.496 263.48 352.533 263.64 352.533C263.799 352.533 263.957 352.496 264.1 352.425L269.901 349.077C270.152 348.933 270.14 348.694 269.901 348.55L263.203 344.675C263.058 344.598 262.896 344.556 262.732 344.554C262.568 344.552 262.405 344.59 262.258 344.663ZM198.739 400.66C198.882 400.731 199.039 400.767 199.199 400.767C199.359 400.767 199.516 400.731 199.66 400.66L205.46 397.311C205.699 397.168 205.687 396.929 205.46 396.785L198.751 392.91C198.608 392.837 198.45 392.798 198.29 392.798C198.13 392.798 197.972 392.837 197.83 392.91L192.029 396.259C191.79 396.402 191.802 396.641 192.029 396.797L198.739 400.66ZM185.989 388.7L180.189 392.037C179.937 392.18 179.949 392.42 180.189 392.575L186.886 396.45C187.031 396.524 187.191 396.562 187.353 396.562C187.515 396.562 187.675 396.524 187.819 396.45L193.608 393.101C193.859 392.97 193.847 392.731 193.608 392.575L186.91 388.7C186.768 388.627 186.61 388.588 186.45 388.588C186.29 388.588 186.132 388.627 185.989 388.7ZM208.103 395.876L213.892 392.527C214.143 392.384 214.131 392.145 213.892 391.989L207.182 388.126C207.04 388.053 206.882 388.014 206.722 388.014C206.562 388.014 206.404 388.053 206.261 388.126L200.461 391.475C200.21 391.618 200.222 391.857 200.461 392.013L207.158 395.876C207.304 395.952 207.466 395.991 207.631 395.991C207.795 395.991 207.957 395.952 208.103 395.876ZM216.571 390.984L222.372 387.636C222.623 387.492 222.599 387.253 222.372 387.097L215.674 383.234C215.529 383.161 215.37 383.122 215.208 383.122C215.045 383.122 214.886 383.161 214.741 383.234L208.94 386.583C208.701 386.727 208.713 386.966 208.94 387.121L215.65 390.984C215.801 391.057 215.967 391.09 216.134 391.082C216.302 391.073 216.464 391.024 216.607 390.937L216.571 390.984ZM225.051 386.093L230.851 382.744C231.09 382.6 231.078 382.361 230.851 382.206L224.142 378.331C223.998 378.26 223.841 378.223 223.681 378.223C223.521 378.223 223.364 378.26 223.221 378.331L217.42 381.68C217.169 381.823 217.193 382.062 217.42 382.206L224.118 386.081C224.27 386.155 224.438 386.19 224.607 386.184C224.776 386.178 224.94 386.13 225.086 386.045L225.051 386.093ZM194.421 383.856L188.62 387.205C188.381 387.349 188.393 387.588 188.62 387.743L195.33 391.618C195.473 391.689 195.631 391.726 195.79 391.726C195.95 391.726 196.108 391.689 196.251 391.618L202.052 388.269C202.303 388.126 202.279 387.887 202.052 387.743L195.354 383.868C195.218 383.793 195.067 383.749 194.912 383.739C194.757 383.729 194.602 383.752 194.457 383.808L194.421 383.856ZM202.901 378.965L197.1 382.313C196.849 382.457 196.873 382.696 197.1 382.852L203.798 386.727C203.943 386.797 204.102 386.834 204.264 386.834C204.426 386.834 204.585 386.797 204.731 386.727L210.531 383.378C210.77 383.234 210.758 382.995 210.531 382.852L203.822 378.977C203.688 378.899 203.539 378.854 203.386 378.844C203.233 378.833 203.079 378.858 202.937 378.917L202.901 378.965ZM236.807 359.35L231.019 362.699C230.767 362.843 230.779 363.082 231.019 363.225L237.728 367.1C237.871 367.174 238.028 367.212 238.189 367.212C238.349 367.212 238.507 367.174 238.649 367.1L244.45 363.751C244.701 363.608 244.689 363.369 244.45 363.213L237.752 359.338C237.604 359.267 237.442 359.232 237.278 359.234C237.114 359.236 236.953 359.276 236.807 359.35ZM228.34 364.242L222.539 367.591C222.288 367.734 222.312 367.973 222.539 368.117L229.237 371.992C229.381 372.065 229.541 372.104 229.703 372.104C229.865 372.104 230.025 372.065 230.169 371.992L235.97 368.643C236.209 368.5 236.197 368.26 235.97 368.105L229.261 364.23C229.12 364.165 228.966 364.132 228.811 364.134C228.655 364.136 228.503 364.173 228.364 364.242H228.34ZM245.287 354.459L239.486 357.807C239.247 357.939 239.259 358.178 239.486 358.334L246.196 362.209C246.338 362.282 246.496 362.32 246.656 362.32C246.817 362.32 246.974 362.282 247.117 362.209L252.917 358.872C253.157 358.728 253.145 358.489 252.917 358.334L246.208 354.459C246.069 354.389 245.915 354.353 245.759 354.353C245.604 354.353 245.45 354.389 245.311 354.459H245.287ZM211.392 374.025L205.592 377.374C205.341 377.517 205.352 377.757 205.592 377.912L212.301 381.775C212.444 381.849 212.602 381.887 212.762 381.887C212.922 381.887 213.08 381.849 213.222 381.775L219.023 378.426C219.274 378.283 219.262 378.044 219.023 377.888L212.313 374.025C212.174 373.956 212.02 373.919 211.865 373.919C211.709 373.919 211.555 373.956 211.416 374.025H211.392ZM219.86 369.133L214.059 372.482C213.82 372.626 213.832 372.865 214.059 373.02L220.769 376.884C220.911 376.957 221.069 376.995 221.229 376.995C221.39 376.995 221.547 376.957 221.69 376.884L227.49 373.535C227.742 373.391 227.718 373.152 227.49 372.997L220.781 369.133C220.642 369.064 220.488 369.028 220.332 369.028C220.177 369.028 220.023 369.064 219.884 369.133H219.86ZM213.677 403.674L219.477 400.325C219.716 400.182 219.704 399.942 219.477 399.799L212.756 395.876C212.613 395.803 212.455 395.764 212.295 395.764C212.135 395.764 211.977 395.803 211.835 395.876L206.034 399.225C205.783 399.368 205.807 399.608 206.034 399.763L212.732 403.638C212.879 403.72 213.043 403.766 213.212 403.773C213.38 403.779 213.548 403.745 213.701 403.674H213.677ZM163.935 398.651L157.237 394.788C157.093 394.714 156.933 394.676 156.771 394.676C156.609 394.676 156.449 394.714 156.305 394.788L150.504 398.136C150.265 398.28 150.277 398.519 150.504 398.675L157.213 402.538C157.356 402.611 157.514 402.649 157.674 402.649C157.834 402.649 157.992 402.611 158.134 402.538L163.935 399.189C164.246 399.045 164.222 398.806 163.959 398.651H163.935ZM176.637 402.382L169.939 398.507C169.794 398.436 169.634 398.4 169.472 398.4C169.311 398.4 169.151 398.436 169.006 398.507L160.084 403.65C159.845 403.794 159.857 404.033 160.084 404.188L166.793 408.063C166.936 408.137 167.094 408.175 167.254 408.175C167.414 408.175 167.572 408.137 167.714 408.063L176.637 402.92C177.007 402.777 176.924 402.538 176.66 402.382H176.637ZM153.649 391.176L146.952 387.301C146.807 387.227 146.647 387.189 146.485 387.189C146.323 387.189 146.163 387.227 146.019 387.301L138.843 391.427C138.604 391.57 138.616 391.81 138.843 391.953L145.552 395.828C145.695 395.902 145.853 395.94 146.013 395.94C146.173 395.94 146.331 395.902 146.473 395.828L153.649 391.702C153.96 391.558 153.936 391.319 153.673 391.176H153.649ZM159.127 388.006C159.269 388.08 159.427 388.118 159.588 388.118C159.748 388.118 159.906 388.08 160.048 388.006L165.849 384.658C166.088 384.514 166.076 384.275 165.849 384.119L159.127 380.328C158.985 380.255 158.827 380.216 158.667 380.216C158.506 380.216 158.349 380.255 158.206 380.328L152.406 383.677C152.166 383.82 152.178 384.06 152.406 384.215L159.127 388.006ZM188.477 406.64L181.791 402.753C181.649 402.68 181.491 402.641 181.331 402.641C181.171 402.641 181.013 402.68 180.87 402.753L169.712 409.188C169.472 409.331 169.484 409.57 169.712 409.726L176.421 413.589C176.564 413.662 176.722 413.701 176.882 413.701C177.042 413.701 177.2 413.662 177.342 413.589L188.489 407.154C188.752 407.023 188.74 406.784 188.477 406.64ZM194.038 414.486L187.329 410.611C187.186 410.54 187.028 410.503 186.868 410.503C186.709 410.503 186.551 410.54 186.408 410.611L179.232 414.725C178.993 414.869 179.005 415.108 179.232 415.263L185.941 419.138C186.085 419.209 186.242 419.246 186.402 419.246C186.562 419.246 186.719 419.209 186.862 419.138L194.038 415.024C194.313 414.869 194.301 414.629 194.038 414.474V414.486ZM222.156 351.624C222.302 351.695 222.461 351.732 222.623 351.732C222.784 351.732 222.944 351.695 223.089 351.624L228.89 348.275C229.129 348.132 229.117 347.893 228.89 347.749L222.18 343.874C222.038 343.801 221.88 343.762 221.72 343.762C221.56 343.762 221.402 343.801 221.259 343.874L215.459 347.223C215.208 347.366 215.231 347.605 215.459 347.761L222.156 351.624ZM205.209 361.407C205.353 361.481 205.513 361.519 205.675 361.519C205.838 361.519 205.997 361.481 206.142 361.407L211.93 358.059C212.182 357.927 212.17 357.688 211.93 357.532L205.221 353.657C205.078 353.587 204.92 353.55 204.76 353.55C204.601 353.55 204.443 353.587 204.3 353.657L198.535 357.006C198.284 357.15 198.296 357.389 198.535 357.544L205.209 361.407ZM167.619 383.103C167.763 383.176 167.923 383.215 168.085 383.215C168.247 383.215 168.407 383.176 168.552 383.103L174.34 379.754C174.591 379.61 174.579 379.371 174.34 379.216L167.631 375.353C167.488 375.279 167.33 375.241 167.17 375.241C167.01 375.241 166.852 375.279 166.71 375.353L160.909 378.701C160.658 378.845 160.682 379.084 160.909 379.24L167.619 383.103ZM213.689 356.516C213.832 356.586 213.989 356.623 214.149 356.623C214.309 356.623 214.466 356.586 214.61 356.516L220.41 353.167C220.661 353.023 220.637 352.784 220.41 352.641L213.713 348.766C213.568 348.692 213.408 348.654 213.246 348.654C213.084 348.654 212.924 348.692 212.78 348.766L206.979 352.114C206.74 352.258 206.752 352.497 206.979 352.653L213.689 356.516ZM196.741 366.299C196.884 366.372 197.042 366.411 197.202 366.411C197.362 366.411 197.52 366.372 197.662 366.299L203.463 362.962C203.702 362.819 203.69 362.579 203.463 362.424L196.753 358.549C196.611 358.475 196.453 358.437 196.293 358.437C196.133 358.437 195.975 358.475 195.832 358.549L190.032 361.898C189.793 362.029 189.804 362.268 190.032 362.424L196.741 366.299ZM198.703 415.096C198.558 415.022 198.398 414.984 198.236 414.984C198.074 414.984 197.914 415.022 197.77 415.096L188.848 420.251C188.608 420.394 188.62 420.633 188.848 420.777L195.557 424.652C195.7 424.725 195.858 424.764 196.018 424.764C196.178 424.764 196.336 424.725 196.478 424.652L205.4 419.497C205.64 419.354 205.628 419.114 205.4 418.959L198.703 415.096ZM184.578 373.319C184.721 373.39 184.879 373.427 185.038 373.427C185.198 373.427 185.356 373.39 185.499 373.319L191.299 369.971C191.539 369.827 191.527 369.588 191.299 369.432L184.59 365.557C184.447 365.487 184.289 365.45 184.129 365.45C183.97 365.45 183.812 365.487 183.669 365.557L177.868 368.906C177.629 369.05 177.641 369.289 177.868 369.432L184.578 373.319ZM176.098 378.211C176.241 378.285 176.399 378.323 176.559 378.323C176.719 378.323 176.877 378.285 177.019 378.211L182.82 374.862C183.071 374.719 183.059 374.48 182.82 374.324L176.122 370.449C175.977 370.378 175.817 370.341 175.656 370.341C175.494 370.341 175.335 370.378 175.189 370.449L169.401 373.798C169.15 373.941 169.162 374.181 169.401 374.324L176.098 378.211ZM355.714 324.391C355.571 324.318 355.413 324.279 355.253 324.279C355.093 324.279 354.935 324.318 354.793 324.391L340.512 332.632C340.273 332.775 340.285 333.014 340.512 333.17L347.222 337.045C347.365 337.115 347.523 337.152 347.682 337.152C347.842 337.152 348 337.115 348.143 337.045L362.447 328.9C362.698 328.757 362.686 328.517 362.447 328.374L355.714 324.391ZM336.972 335.155C336.829 335.084 336.671 335.048 336.512 335.048C336.352 335.048 336.195 335.084 336.051 335.155L330.251 338.504C330.012 338.647 330.024 338.887 330.251 339.03L336.96 342.905C337.104 342.976 337.261 343.013 337.421 343.013C337.58 343.013 337.738 342.976 337.881 342.905L343.682 339.556C343.921 339.413 343.909 339.174 343.682 339.018L336.972 335.155ZM222.156 398.675L227.957 395.326C228.208 395.182 228.196 394.943 227.957 394.8L221.259 391.092C221.117 391.019 220.959 390.98 220.799 390.98C220.639 390.98 220.481 391.019 220.338 391.092L214.538 394.441C214.287 394.584 214.299 394.824 214.538 394.979L221.247 398.854C221.396 398.914 221.556 398.938 221.716 398.926C221.876 398.914 222.031 398.864 222.168 398.782L222.156 398.675ZM320.013 344.95C319.871 344.877 319.713 344.839 319.553 344.839C319.392 344.839 319.234 344.877 319.092 344.95L313.291 348.299C313.04 348.443 313.064 348.682 313.291 348.837L319.989 352.7C320.134 352.774 320.293 352.812 320.456 352.812C320.618 352.812 320.777 352.774 320.922 352.7L326.723 349.352C326.962 349.208 326.95 348.969 326.723 348.813L320.013 344.95ZM364.181 319.452C364.037 319.378 363.877 319.34 363.715 319.34C363.553 319.34 363.393 319.378 363.248 319.452L357.448 322.8C357.209 322.944 357.221 323.183 357.448 323.339L364.157 327.202C364.3 327.275 364.458 327.313 364.618 327.313C364.778 327.313 364.936 327.275 365.078 327.202L370.879 323.853C371.13 323.709 371.106 323.47 370.879 323.315L364.181 319.452ZM379.359 318.423L363.069 309.023C362.927 308.949 362.769 308.911 362.609 308.911C362.448 308.911 362.29 308.949 362.148 309.023L356.347 312.371C356.096 312.503 356.12 312.742 356.347 312.898L372.625 322.298C372.77 322.372 372.929 322.41 373.091 322.41C373.254 322.41 373.413 322.372 373.558 322.298L379.359 318.949C379.646 318.925 379.634 318.686 379.37 318.531L379.359 318.423ZM288.343 363.225C288.2 363.155 288.042 363.118 287.882 363.118C287.723 363.118 287.565 363.155 287.422 363.225L280.246 367.339C279.995 367.483 280.019 367.722 280.246 367.878L286.944 371.753C287.089 371.824 287.248 371.86 287.41 371.86C287.572 371.86 287.731 371.824 287.876 371.753L295.052 367.638C295.292 367.495 295.28 367.256 295.052 367.1L288.343 363.225ZM309.763 350.978C309.621 350.905 309.463 350.866 309.303 350.866C309.143 350.866 308.985 350.905 308.842 350.978L299.92 356.133C299.681 356.276 299.693 356.516 299.92 356.671L306.63 360.534C306.772 360.608 306.93 360.646 307.09 360.646C307.25 360.646 307.408 360.608 307.551 360.534L316.473 355.379C316.712 355.236 316.7 354.997 316.473 354.853L309.763 350.978ZM268.729 374.671C268.586 374.598 268.428 374.559 268.268 374.559C268.108 374.559 267.95 374.598 267.808 374.671L220.075 402.179C219.824 402.322 219.848 402.562 220.075 402.717L226.773 406.592C226.918 406.663 227.078 406.7 227.239 406.7C227.401 406.7 227.56 406.663 227.706 406.592L275.426 379.084C275.677 378.941 275.665 378.701 275.426 378.558L268.729 374.671ZM218.329 403.77C218.185 403.696 218.025 403.658 217.863 403.658C217.701 403.658 217.541 403.696 217.396 403.77L210.22 407.884C209.981 408.027 209.993 408.267 210.22 408.422L216.93 412.285C217.072 412.359 217.23 412.397 217.39 412.397C217.55 412.397 217.708 412.359 217.851 412.285L225.027 408.159C225.278 408.027 225.254 407.788 225.027 407.633L218.329 403.77ZM278.548 369.002C278.403 368.928 278.243 368.89 278.081 368.89C277.919 368.89 277.759 368.928 277.615 369.002L270.439 373.116C270.188 373.26 270.2 373.499 270.439 373.654L277.148 377.517C277.291 377.591 277.449 377.629 277.609 377.629C277.769 377.629 277.927 377.591 278.069 377.517L285.245 373.391C285.496 373.26 285.473 373.02 285.245 372.865L278.548 369.002ZM208.51 409.439C208.368 409.365 208.21 409.327 208.049 409.327C207.889 409.327 207.731 409.365 207.589 409.439L200.413 413.565C200.162 413.708 200.186 413.948 200.413 414.103L207.111 417.966C207.255 418.04 207.415 418.078 207.577 418.078C207.739 418.078 207.899 418.04 208.043 417.966L215.219 413.84C215.471 413.696 215.459 413.457 215.219 413.314L208.51 409.439ZM298.21 357.676C298.065 357.602 297.906 357.564 297.743 357.564C297.581 357.564 297.422 357.602 297.277 357.676L290.101 361.802C289.85 361.946 289.862 362.185 290.101 362.328L296.811 366.203C296.954 366.274 297.111 366.311 297.271 366.311C297.431 366.311 297.588 366.274 297.732 366.203L304.908 362.077C305.159 361.934 305.135 361.694 304.908 361.539L298.21 357.676ZM328.54 340.154C328.395 340.084 328.236 340.047 328.074 340.047C327.912 340.047 327.753 340.084 327.608 340.154L321.819 343.503C321.568 343.647 321.58 343.886 321.819 344.029L328.529 347.904C328.671 347.978 328.829 348.016 328.989 348.016C329.149 348.016 329.307 347.978 329.449 347.904L335.25 344.556C335.501 344.412 335.489 344.173 335.25 344.017L328.54 340.154ZM347.114 326.675L352.903 323.327C353.154 323.183 353.142 322.944 352.903 322.788L346.193 318.925C346.051 318.852 345.893 318.814 345.733 318.814C345.573 318.814 345.415 318.852 345.273 318.925L339.472 322.274C339.221 322.418 339.233 322.657 339.472 322.812L346.17 326.675C346.311 326.745 346.466 326.781 346.624 326.781C346.782 326.781 346.937 326.745 347.078 326.675H347.114ZM309.213 326.424L315.014 323.076C315.265 322.944 315.241 322.705 315.014 322.549L308.316 318.674C308.171 318.603 308.011 318.567 307.85 318.567C307.688 318.567 307.529 318.603 307.383 318.674L301.583 322.023C301.343 322.167 301.355 322.406 301.583 322.561L308.292 326.436C308.431 326.502 308.583 326.535 308.736 326.533C308.89 326.531 309.04 326.494 309.177 326.424H309.213ZM290.077 359.637L307.024 349.854C307.264 349.71 307.252 349.471 307.024 349.316L300.195 345.441C300.052 345.37 299.895 345.333 299.735 345.333C299.575 345.333 299.418 345.37 299.274 345.441L282.315 355.212C282.064 355.356 282.076 355.595 282.315 355.75L289.013 359.613C289.16 359.697 289.325 359.742 289.494 359.747C289.663 359.751 289.83 359.713 289.981 359.637H290.077ZM337.774 331.543C337.916 331.617 338.074 331.655 338.234 331.655C338.394 331.655 338.552 331.617 338.695 331.543L344.495 328.194C344.734 328.051 344.722 327.812 344.495 327.656L337.786 323.793C337.643 323.72 337.485 323.681 337.325 323.681C337.165 323.681 337.007 323.72 336.865 323.793L331.064 327.142C330.825 327.285 330.837 327.525 331.064 327.68L337.774 331.543ZM329.115 326.042L334.915 322.693C335.154 322.549 335.142 322.31 334.915 322.155L328.206 318.28C328.063 318.206 327.905 318.168 327.745 318.168C327.585 318.168 327.427 318.206 327.285 318.28L321.484 321.628C321.245 321.76 321.257 321.999 321.484 322.155L328.194 326.03C328.323 326.088 328.463 326.119 328.605 326.121C328.747 326.123 328.888 326.096 329.019 326.042H329.115ZM281.597 364.529L287.398 361.18C287.637 361.037 287.625 360.797 287.398 360.654L280.689 356.779C280.546 356.705 280.388 356.667 280.228 356.667C280.068 356.667 279.91 356.705 279.768 356.779L273.967 360.128C273.728 360.271 273.74 360.51 273.967 360.666L280.677 364.541C280.808 364.595 280.948 364.622 281.09 364.62C281.232 364.618 281.372 364.587 281.502 364.529H281.597ZM319.032 342.367C319.175 342.44 319.333 342.479 319.493 342.479C319.653 342.479 319.811 342.44 319.953 342.367L325.754 339.018C326.005 338.875 325.993 338.635 325.754 338.492L319.044 334.617C318.901 334.546 318.743 334.509 318.584 334.509C318.424 334.509 318.267 334.546 318.123 334.617L312.323 337.966C312.072 338.109 312.084 338.348 312.323 338.504L319.032 342.367ZM239.223 389.011L245.024 385.662C245.263 385.519 245.251 385.279 245.024 385.124L238.314 381.261C238.172 381.187 238.014 381.149 237.854 381.149C237.694 381.149 237.536 381.187 237.393 381.261L231.593 384.61C231.342 384.753 231.365 384.992 231.593 385.148L238.29 389.011C238.423 389.068 238.566 389.096 238.71 389.094C238.854 389.092 238.997 389.06 239.128 388.999L239.223 389.011ZM247.691 384.119L253.491 380.771C253.743 380.627 253.731 380.388 253.491 380.232L246.794 376.357C246.651 376.287 246.493 376.25 246.333 376.25C246.174 376.25 246.016 376.287 245.873 376.357L240.072 379.706C239.821 379.85 239.833 380.089 240.072 380.232L246.782 384.107C246.907 384.161 247.041 384.188 247.177 384.188C247.312 384.188 247.447 384.161 247.571 384.107L247.691 384.119ZM230.744 393.903L236.544 390.554C236.795 390.41 236.771 390.171 236.544 390.016L229.847 386.153C229.702 386.079 229.542 386.041 229.38 386.041C229.218 386.041 229.058 386.079 228.914 386.153L223.113 389.501C222.874 389.645 222.886 389.884 223.113 390.04L229.823 393.903C229.953 393.959 230.094 393.987 230.237 393.985C230.379 393.983 230.519 393.951 230.648 393.891L230.744 393.903ZM264.554 374.348L270.343 371.011C270.594 370.868 270.582 370.628 270.343 370.473L263.634 366.598C263.491 366.525 263.333 366.486 263.173 366.486C263.013 366.486 262.855 366.525 262.713 366.598L256.912 369.947C256.661 370.078 256.685 370.318 256.912 370.473L263.61 374.348C263.756 374.424 263.918 374.463 264.082 374.463C264.246 374.463 264.408 374.424 264.554 374.348ZM256.075 379.252L261.875 375.903C262.115 375.759 262.103 375.52 261.875 375.365L255.166 371.49C255.023 371.419 254.865 371.382 254.705 371.382C254.546 371.382 254.388 371.419 254.245 371.49L248.444 374.838C248.205 374.982 248.217 375.221 248.444 375.365L255.154 379.24C255.299 379.307 255.457 379.339 255.617 379.335C255.777 379.331 255.933 379.29 256.075 379.216V379.252ZM273.022 369.456L278.823 366.108C279.074 365.964 279.05 365.725 278.823 365.581L272.125 361.706C271.98 361.635 271.82 361.599 271.659 361.599C271.497 361.599 271.338 361.635 271.192 361.706L265.404 365.055C265.152 365.199 265.164 365.438 265.404 365.593L272.113 369.468C272.258 369.53 272.416 369.557 272.573 369.549C272.731 369.541 272.884 369.497 273.022 369.421V369.456ZM311.796 297.074C311.941 297.148 312.101 297.186 312.263 297.186C312.425 297.186 312.585 297.148 312.729 297.074L318.53 293.726C318.769 293.594 318.757 293.355 318.53 293.199L316.748 292.171C316.603 292.097 316.444 292.059 316.281 292.059C316.119 292.059 315.96 292.097 315.815 292.171L310.014 295.52C309.775 295.663 309.787 295.902 310.014 296.058L311.796 297.074ZM270.104 323.984C270.246 324.058 270.404 324.096 270.564 324.096C270.725 324.096 270.882 324.058 271.025 323.984L276.825 320.636C277.065 320.492 277.053 320.253 276.825 320.097L270.116 316.234C269.973 316.161 269.816 316.123 269.655 316.123C269.495 316.123 269.337 316.161 269.195 316.234L263.394 319.583C263.155 319.727 263.167 319.966 263.394 320.121L270.104 323.984ZM287.039 314.165C287.182 314.239 287.34 314.277 287.5 314.277C287.66 314.277 287.818 314.239 287.96 314.165L293.761 310.817C294.012 310.673 293.988 310.434 293.761 310.278L287.063 306.403C286.918 306.332 286.758 306.296 286.597 306.296C286.435 306.296 286.276 306.332 286.13 306.403L280.33 309.752C280.091 309.896 280.102 310.135 280.33 310.278L287.039 314.165ZM259.735 329.929C259.88 329.999 260.039 330.036 260.201 330.036C260.363 330.036 260.522 329.999 260.667 329.929L266.468 326.58C266.707 326.436 266.695 326.197 266.468 326.042L259.759 322.167C259.615 322.096 259.458 322.059 259.298 322.059C259.138 322.059 258.981 322.096 258.838 322.167L253.037 325.515C252.786 325.647 252.81 325.886 253.037 326.042L259.735 329.929ZM278.56 319.057C278.704 319.13 278.864 319.169 279.026 319.169C279.188 319.169 279.348 319.13 279.493 319.057L285.281 315.708C285.532 315.565 285.52 315.325 285.281 315.17L278.572 311.307C278.429 311.233 278.271 311.195 278.111 311.195C277.951 311.195 277.793 311.233 277.651 311.307L271.85 314.656C271.599 314.799 271.611 315.038 271.85 315.194L278.56 319.057ZM242.787 339.664C242.93 339.737 243.088 339.776 243.248 339.776C243.408 339.776 243.566 339.737 243.708 339.664L249.509 336.315C249.76 336.172 249.748 335.933 249.509 335.777L242.787 331.986C242.645 331.912 242.487 331.874 242.327 331.874C242.167 331.874 242.009 331.912 241.866 331.986L236.066 335.335C235.815 335.478 235.827 335.717 236.066 335.873L242.787 339.664ZM251.279 334.88C251.421 334.953 251.579 334.992 251.739 334.992C251.9 334.992 252.057 334.953 252.2 334.88L258 331.531C258.252 331.388 258.228 331.149 258 330.993L251.291 327.118C251.148 327.047 250.99 327.011 250.83 327.011C250.671 327.011 250.513 327.047 250.37 327.118L244.569 330.467C244.33 330.61 244.342 330.85 244.569 330.993L251.279 334.88ZM294.849 306.882C294.992 306.955 295.149 306.993 295.31 306.993C295.47 306.993 295.628 306.955 295.77 306.882L301.571 303.533C301.822 303.389 301.81 303.15 301.571 302.995L299.789 301.966C299.646 301.893 299.488 301.854 299.328 301.854C299.168 301.854 299.01 301.893 298.868 301.966L293.067 305.315C292.816 305.458 292.84 305.698 293.067 305.853L294.849 306.882ZM320.276 292.207C320.419 292.277 320.577 292.314 320.737 292.314C320.896 292.314 321.054 292.277 321.197 292.207L326.998 288.858C327.249 288.714 327.237 288.475 326.998 288.332L325.216 287.303C325.073 287.23 324.915 287.191 324.755 287.191C324.595 287.191 324.437 287.23 324.295 287.303L318.494 290.652C318.243 290.795 318.267 291.035 318.494 291.19L320.276 292.207ZM334.365 300.34C334.508 300.41 334.666 300.447 334.825 300.447C334.985 300.447 335.143 300.41 335.286 300.34L341.087 296.991C341.338 296.847 341.314 296.608 341.087 296.465L334.377 292.589C334.235 292.516 334.077 292.478 333.917 292.478C333.756 292.478 333.598 292.516 333.456 292.589L327.655 295.938C327.416 296.082 327.428 296.321 327.655 296.476L334.365 300.34ZM355.546 321.868L361.347 318.519C361.598 318.375 361.574 318.136 361.347 317.981L354.649 314.106C354.504 314.035 354.344 313.998 354.183 313.998C354.021 313.998 353.862 314.035 353.716 314.106L347.916 317.454C347.676 317.598 347.688 317.837 347.916 317.981L354.625 321.856C354.773 321.918 354.934 321.944 355.094 321.932C355.255 321.919 355.41 321.869 355.546 321.784V321.868ZM303.329 302.014C303.472 302.085 303.63 302.121 303.789 302.121C303.949 302.121 304.107 302.085 304.25 302.014L310.05 298.665C310.29 298.522 310.278 298.282 310.05 298.127L308.268 297.098C308.126 297.025 307.968 296.987 307.808 296.987C307.648 296.987 307.49 297.025 307.347 297.098L301.547 300.447C301.296 300.591 301.308 300.83 301.547 300.985L303.329 302.014ZM234.32 344.687C234.464 344.761 234.624 344.799 234.786 344.799C234.948 344.799 235.108 344.761 235.252 344.687L241.053 341.338C241.292 341.195 241.28 340.956 241.053 340.8L234.344 336.937C234.201 336.864 234.043 336.825 233.883 336.825C233.723 336.825 233.565 336.864 233.423 336.937L227.622 340.286C227.371 340.429 227.395 340.669 227.622 340.824L234.32 344.687Z" fill="#455A64"/>
<path d="M271.91 395.481L329.139 362.387C330.107 361.898 331.176 361.643 332.261 361.643C333.345 361.643 334.414 361.898 335.382 362.387L368.2 381.332C369.923 382.337 369.923 383.951 368.2 384.92L310.96 418.025C309.994 418.521 308.924 418.779 307.838 418.779C306.753 418.779 305.683 418.521 304.717 418.025L271.898 399.081C270.188 398.088 270.188 396.474 271.91 395.481Z" fill="#263238"/>
<path d="M284.42 104.315V113.058L154.163 188.262C153.266 188.776 152.537 188.358 152.537 187.317L152.632 184.184C151.856 183.874 151.056 183.626 150.24 183.442L111.227 205.963C110.752 206.275 110.356 206.694 110.072 207.186C109.787 207.678 109.622 208.23 109.588 208.797V212.098C109.561 212.666 109.399 213.219 109.117 213.712C108.834 214.204 108.438 214.623 107.962 214.933L103.465 217.528V208.797C103.492 208.23 103.654 207.677 103.937 207.184C104.219 206.691 104.615 206.273 105.091 205.963L282.793 103.37C283.69 102.856 284.42 103.274 284.42 104.315Z" fill="#00C285"/>
<path d="M284.432 235.229C284.401 235.796 284.237 236.347 283.952 236.837C283.667 237.328 283.27 237.744 282.793 238.052L105.091 340.644C104.194 341.171 103.465 340.74 103.465 339.7V217.528L107.962 214.933C108.859 214.419 110.354 206.489 111.227 205.963L150.24 183.442C151.137 182.928 153.266 188.776 154.163 188.226L284.42 113.058V235.229H284.432Z" fill="#EBEBEB"/>
<path d="M111.226 251.016L189.277 205.915C190.174 205.389 190.904 205.82 190.904 206.86V283.572C190.876 284.139 190.715 284.692 190.432 285.185C190.149 285.678 189.753 286.096 189.277 286.406L111.226 331.507C110.329 332.022 109.6 331.603 109.6 330.562V253.851C109.627 253.283 109.789 252.731 110.071 252.238C110.354 251.745 110.75 251.326 111.226 251.016Z" fill="#FAFAFA"/>
<path d="M111.226 230.756L276.669 135.243C277.566 134.717 278.295 135.148 278.295 136.188V147.682C278.266 148.247 278.104 148.798 277.821 149.288C277.538 149.779 277.143 150.196 276.669 150.504L111.226 246.029C110.329 246.543 109.6 246.125 109.6 245.084V233.591C109.627 233.023 109.789 232.47 110.071 231.977C110.354 231.485 110.75 231.066 111.226 230.756Z" fill="#455A64"/>
<path d="M216.953 178.826V181.864C216.953 182.498 217.396 182.749 217.934 182.438L266.025 154.667V149.356L217.934 177.128C217.649 177.314 217.412 177.565 217.241 177.86C217.071 178.155 216.972 178.486 216.953 178.826Z" fill="#FAFAFA"/>
<path d="M271.18 146.378C271.73 146.067 272.161 146.378 272.161 146.94V149.99C272.144 150.33 272.046 150.662 271.875 150.957C271.705 151.253 271.466 151.503 271.18 151.688L266.025 154.666V149.356L271.18 146.378Z" fill="#46B2C8"/>
<path d="M270.809 150.552L270.223 150.373C270.285 150.131 270.317 149.881 270.318 149.631C270.34 149.404 270.303 149.174 270.211 148.965C270.119 148.755 269.975 148.573 269.792 148.435C269.666 148.359 269.521 148.319 269.373 148.319C269.226 148.319 269.081 148.359 268.955 148.435C268.58 148.711 268.276 149.071 268.068 149.487C267.86 149.903 267.754 150.362 267.759 150.827C267.739 151.055 267.777 151.284 267.869 151.492C267.961 151.701 268.104 151.884 268.285 152.023C268.399 152.086 268.526 152.119 268.656 152.119C268.821 152.114 268.983 152.064 269.122 151.975C269.552 151.685 269.878 151.267 270.055 150.779L270.629 150.959H270.689C270.734 150.961 270.778 150.948 270.815 150.922C270.852 150.896 270.879 150.858 270.892 150.815C270.911 150.769 270.914 150.717 270.898 150.669C270.883 150.621 270.851 150.579 270.809 150.552ZM268.955 151.653C268.893 151.689 268.823 151.709 268.752 151.709C268.68 151.709 268.61 151.689 268.548 151.653C268.432 151.544 268.343 151.409 268.289 151.259C268.235 151.11 268.217 150.949 268.237 150.791C268.232 150.406 268.313 150.025 268.475 149.675C268.636 149.325 268.874 149.016 269.17 148.77C269.25 148.723 269.34 148.694 269.433 148.686C269.479 148.669 269.531 148.669 269.577 148.686C269.78 148.794 269.888 149.117 269.888 149.536C269.913 149.937 269.842 150.339 269.68 150.708C269.517 151.076 269.269 151.4 268.955 151.653Z" fill="#FAFAFA"/>
<path d="M284.42 113.058V123.69L103.465 228.161V217.528L106.826 215.591C107.723 215.064 108.022 214.275 108.452 212.756L109.588 208.797C109.654 208.238 109.834 207.699 110.115 207.211C110.397 206.724 110.775 206.299 111.227 205.963L150.24 183.442C150.414 183.287 150.623 183.177 150.849 183.121C151.074 183.065 151.31 183.065 151.536 183.12C151.762 183.175 151.971 183.285 152.146 183.439C152.32 183.593 152.454 183.787 152.537 184.004L153.936 186.54C154.45 187.425 154.701 187.951 155.598 187.425L284.42 113.058Z" fill="#E6E6E6"/>
<path d="M276.764 109.804C277.96 109.147 278.822 109.673 278.822 111C278.787 111.719 278.582 112.418 278.225 113.042C277.867 113.666 277.367 114.196 276.764 114.588C275.568 115.246 274.695 114.708 274.695 113.392C274.728 112.672 274.933 111.971 275.293 111.347C275.653 110.722 276.158 110.194 276.764 109.804Z" fill="#455A64"/>
<path d="M269.35 114.074C270.486 113.416 271.407 113.942 271.407 115.27C271.373 115.988 271.168 116.688 270.81 117.311C270.453 117.935 269.952 118.465 269.35 118.858C268.154 119.516 267.293 118.978 267.293 117.662C267.327 116.944 267.531 116.244 267.888 115.62C268.246 114.996 268.747 114.466 269.35 114.074Z" fill="#455A64"/>
<path d="M261.922 118.404C263.059 117.746 263.979 118.272 263.979 119.6C263.945 120.318 263.74 121.018 263.383 121.642C263.025 122.265 262.525 122.795 261.922 123.188C260.726 123.846 259.865 123.308 259.865 121.992C259.899 121.274 260.103 120.574 260.461 119.95C260.818 119.326 261.319 118.796 261.922 118.404Z" fill="#455A64"/>
<path opacity="0.5" d="M121.524 209.67C121.524 209.515 121.368 209.539 121.308 209.67L120.95 210.531C120.352 210.46 119.622 211.046 119.132 212.086C118.498 213.438 118.498 215.028 119.132 215.674C119.291 215.825 119.498 215.914 119.717 215.928C119.935 215.941 120.152 215.876 120.328 215.746C120.856 215.408 121.272 214.921 121.524 214.347C121.607 214.167 121.607 213.964 121.524 213.892C121.44 213.82 121.308 213.892 121.237 214.06C120.758 215.064 120.041 215.507 119.514 215.052C119.274 214.653 119.147 214.197 119.147 213.731C119.147 213.265 119.274 212.808 119.514 212.409C119.849 211.692 120.34 211.213 120.71 211.213L120.447 211.859C120.375 212.026 120.447 212.194 120.543 212.122L121.595 211.44C121.636 211.405 121.667 211.36 121.688 211.311C121.709 211.261 121.718 211.207 121.715 211.153L121.524 209.67Z" fill="#455A64"/>
<path opacity="0.5" d="M149.105 188.298L150.049 186.313C150.103 186.22 150.131 186.115 150.131 186.008C150.131 185.901 150.103 185.796 150.049 185.703C149.93 185.595 149.75 185.703 149.643 185.93L148.71 187.916L147.777 187.007C147.657 186.911 147.49 187.007 147.37 187.246C147.317 187.339 147.289 187.444 147.289 187.551C147.289 187.658 147.317 187.763 147.37 187.856L148.303 188.765L147.37 190.738C147.316 190.833 147.287 190.94 147.287 191.049C147.287 191.158 147.316 191.266 147.37 191.36C147.4 191.381 147.436 191.392 147.472 191.392C147.508 191.392 147.544 191.381 147.574 191.36C147.662 191.295 147.732 191.209 147.777 191.109L148.71 189.136L149.643 190.033C149.656 190.046 149.672 190.057 149.689 190.064C149.707 190.071 149.726 190.075 149.744 190.075C149.763 190.075 149.782 190.071 149.8 190.064C149.817 190.057 149.833 190.046 149.846 190.033C149.937 189.975 150.008 189.892 150.049 189.793C150.104 189.699 150.133 189.592 150.133 189.482C150.133 189.373 150.104 189.266 150.049 189.172L149.105 188.298Z" fill="#455A64"/>
<path d="M124.934 212.111V208.798C124.961 208.23 125.123 207.677 125.405 207.185C125.688 206.692 126.084 206.273 126.56 205.963L273.596 121.119C274.493 120.605 275.223 121.023 275.223 122.064V125.377C275.196 125.944 275.034 126.497 274.751 126.99C274.468 127.483 274.073 127.901 273.596 128.211L126.56 213.056C125.663 213.57 124.934 213.151 124.934 212.111Z" fill="#FAFAFA"/>
<path d="M272.686 122.877L273.117 123.786C273.135 123.801 273.159 123.808 273.182 123.808C273.206 123.808 273.229 123.801 273.248 123.786L274.217 123.415C274.36 123.415 274.432 123.571 274.313 123.774L273.619 125.078C273.597 125.16 273.597 125.247 273.619 125.329L273.786 126.525C273.786 126.704 273.643 126.955 273.511 126.943L272.65 126.836C272.616 126.834 272.582 126.842 272.552 126.859C272.523 126.876 272.499 126.901 272.483 126.931L271.622 128.032C271.478 128.199 271.323 128.139 271.346 127.924L271.514 126.561C271.53 126.531 271.538 126.498 271.538 126.465C271.538 126.432 271.53 126.399 271.514 126.369L270.808 125.867C270.701 125.783 270.808 125.496 270.916 125.377L271.873 124.647C271.943 124.588 271.993 124.509 272.016 124.42L272.447 123.021C272.375 122.841 272.566 122.734 272.686 122.877Z" stroke="#E0E0E0" stroke-width="0.75" stroke-miterlimit="10"/>
<g opacity="0.5">
<path d="M277.147 120.724C277.048 120.721 276.951 120.694 276.865 120.644C276.779 120.593 276.707 120.522 276.657 120.437C276.583 120.305 276.565 120.149 276.605 120.004C276.645 119.858 276.741 119.735 276.872 119.659L281.465 117.004C281.593 116.952 281.735 116.948 281.866 116.992C281.996 117.037 282.107 117.127 282.176 117.246C282.246 117.365 282.271 117.505 282.245 117.641C282.22 117.777 282.147 117.899 282.039 117.985L277.47 120.64C277.375 120.704 277.261 120.733 277.147 120.724Z" fill="#455A64"/>
<path d="M277.146 123.379C277.047 123.377 276.95 123.349 276.864 123.299C276.778 123.249 276.707 123.178 276.656 123.092C276.62 123.028 276.597 122.957 276.588 122.883C276.579 122.81 276.585 122.736 276.605 122.665C276.625 122.594 276.659 122.527 276.704 122.469C276.75 122.411 276.807 122.363 276.871 122.327L281.464 119.659C281.592 119.607 281.734 119.603 281.865 119.648C281.995 119.692 282.106 119.782 282.176 119.901C282.245 120.02 282.27 120.161 282.244 120.296C282.219 120.432 282.146 120.554 282.038 120.64L277.469 123.307C277.37 123.361 277.259 123.386 277.146 123.379Z" fill="#455A64"/>
<path d="M277.146 126.034C277.022 126.034 276.901 125.993 276.803 125.917C276.704 125.841 276.634 125.734 276.602 125.614C276.571 125.493 276.58 125.366 276.629 125.252C276.678 125.137 276.763 125.042 276.871 124.981L281.464 122.326C281.528 122.286 281.599 122.259 281.673 122.248C281.748 122.236 281.824 122.24 281.897 122.259C281.97 122.278 282.038 122.312 282.097 122.359C282.156 122.405 282.205 122.463 282.241 122.529C282.316 122.66 282.336 122.814 282.298 122.96C282.26 123.105 282.167 123.23 282.038 123.307L277.469 125.962C277.371 126.016 277.259 126.041 277.146 126.034Z" fill="#455A64"/>
</g>
<path d="M146.976 269.1C153.543 262.414 155.229 259.376 155.229 256.697C155.229 254.018 154.105 252.332 150.612 254.305C148.146 255.684 146.298 257.95 145.446 260.644C145.227 261.21 144.884 261.719 144.44 262.134C143.997 262.548 143.466 262.856 142.886 263.036L138.329 264.041C137.241 264.292 136.511 263.598 136.775 262.51C138.772 254.365 143.807 246.842 150.875 242.764C159.367 237.86 164.318 241.568 164.318 249.844C164.318 257.798 160.132 264.435 155.946 269.207C155.167 270.207 154.712 271.422 154.643 272.688V275.391C154.609 275.997 154.433 276.586 154.13 277.112C153.827 277.637 153.404 278.084 152.897 278.417L147.299 281.646C146.331 282.208 145.553 281.753 145.553 280.641V272.484C145.638 271.229 146.139 270.038 146.976 269.1Z" fill="#FF993C"/>
<path d="M145.446 292.864C145.433 291.203 145.854 289.568 146.665 288.119C147.477 286.67 148.652 285.457 150.074 284.599C153.076 282.853 154.643 284.396 154.643 287.554C154.667 289.215 154.259 290.854 153.458 292.309C152.657 293.764 151.491 294.986 150.074 295.854C147 297.624 145.446 296.021 145.446 292.864Z" fill="#FF993C"/>
<path d="M330.899 76.401L326.509 73.8415C326.084 73.6369 325.611 73.5521 325.141 73.5964C324.671 73.6406 324.222 73.8122 323.842 74.0927L214.564 137.17C213.472 137.881 212.563 138.84 211.91 139.968C211.258 141.097 210.88 142.363 210.808 143.664V300.83C210.766 301.287 210.842 301.746 211.028 302.165C211.215 302.584 211.505 302.948 211.873 303.222L216.298 305.782L323.794 239.882C324.885 239.17 325.792 238.211 326.442 237.082C327.093 235.954 327.468 234.688 327.538 233.388L330.899 76.401Z" fill="#46B2C8"/>
<path opacity="0.15" d="M216.225 305.782L211.86 303.259C211.491 302.986 211.2 302.622 211.016 302.202C210.831 301.783 210.759 301.322 210.808 300.867V143.664C210.857 142.286 211.27 140.945 212.004 139.777L216.477 142.325C215.739 143.495 215.326 144.841 215.281 146.224V303.402C215.228 303.846 215.287 304.296 215.452 304.712C215.617 305.127 215.883 305.495 216.225 305.782Z" fill="black"/>
<path d="M218.953 139.741L328.231 76.6521C330.3 75.4561 331.975 76.4249 331.975 78.8169V235.983C331.905 237.284 331.529 238.549 330.879 239.678C330.229 240.806 329.322 241.765 328.231 242.478L218.953 305.566C216.884 306.762 215.197 305.794 215.197 303.402V146.223C215.271 144.924 215.65 143.66 216.302 142.534C216.954 141.408 217.862 140.452 218.953 139.741Z" fill="#46B2C8"/>
<path opacity="0.4" d="M326.508 73.8419L330.79 76.3176C330.375 76.168 329.93 76.1204 329.493 76.1787C329.056 76.2369 328.639 76.3994 328.278 76.6525L219 139.741C217.96 140.383 217.094 141.27 216.476 142.325L212.039 139.777C212.656 138.716 213.522 137.821 214.563 137.17L323.781 74.1529C324.162 73.8731 324.611 73.7029 325.081 73.6607C325.552 73.6185 326.024 73.706 326.448 73.9137L326.508 73.8419Z" fill="white"/>
<path d="M231.354 145.913L318.866 95.3818C320.432 94.4729 321.7 95.2144 321.7 97.0204V231.463C321.647 232.447 321.362 233.405 320.87 234.259C320.377 235.113 319.691 235.839 318.866 236.378L231.354 286.814C229.788 287.711 228.508 286.981 228.508 285.175V150.852C228.555 149.862 228.838 148.897 229.333 148.038C229.828 147.179 230.521 146.45 231.354 145.913Z" fill="white"/>
<path d="M300.7 175.514L301.585 174.784C300.124 173.2 298.226 172.085 296.131 171.579L295.844 172.679C297.701 173.138 299.387 174.122 300.7 175.514Z" fill="#37474F"/>
<path d="M302.648 179.975L300.842 178.205C300.415 177.759 300.176 177.166 300.176 176.548C300.176 175.931 300.415 175.337 300.842 174.892C301.288 174.464 301.881 174.226 302.499 174.226C303.116 174.226 303.71 174.464 304.155 174.892L305.949 176.662C306.377 177.107 306.615 177.701 306.615 178.318C306.615 178.936 306.377 179.529 305.949 179.975C305.504 180.399 304.913 180.636 304.299 180.636C303.684 180.636 303.093 180.399 302.648 179.975Z" fill="#46B2C8"/>
<path d="M318.567 220.854L322.609 227.767C322.609 227.767 349.089 213.726 350.584 211.884C352.079 210.042 351.983 206.322 352.21 204.313C352.581 200.964 351.349 198.082 351.17 196.874C350.871 194.769 353.897 194.649 355.392 197.58C356.492 199.708 356.588 202.148 357.52 202.172C358.856 201.234 360.102 200.173 361.24 199.003C362.879 197.209 365.845 194.219 368.093 194.625C368.475 194.714 368.822 194.916 369.088 195.203C369.355 195.491 369.529 195.852 369.588 196.24C369.653 197.476 369.936 198.691 370.425 199.828C370.79 200.26 371.089 200.743 371.31 201.263C371.382 202.035 371.382 202.812 371.31 203.583C371.406 204.696 372.506 205.162 372.626 206.251C372.592 207.089 372.5 207.924 372.351 208.75C372.351 209.288 372.518 209.755 372.518 210.293C372.403 211.398 371.924 212.433 371.155 213.235C368.915 215.845 366.26 218.067 363.297 219.813C360.905 221.392 357.7 222.791 354.925 224.274C352.15 225.757 320.983 249.701 316.833 246.879C315.134 245.683 310.661 239.978 305.961 233.591" fill="#FFA8A7"/>
<path d="M304.979 234.416C300.201 227.764 295.808 220.844 291.823 213.689C287.039 200.294 292.457 191.372 292.457 191.372C292.457 191.372 299.334 189.243 305.063 198.284C307.586 202.267 314.188 213.462 318.518 220.853" fill="#FFA8A7"/>
<path d="M280.426 191.575C280.426 191.575 288.008 188.502 292.924 188.825C297.84 189.147 301.475 190.535 305.087 196.335C309.871 204.074 317.873 217.445 317.873 217.445C314.491 224.397 309.094 230.169 302.384 234.009L287.697 211.86L280.426 191.575Z" fill="#455A64"/>
<path d="M256.362 204.971C253.833 207.008 251.968 209.751 251.004 212.852C249.883 216.6 249.334 220.495 249.378 224.406V249.582L249.055 297.23C265.033 302.672 285.341 297.876 302.384 278.931C302.384 278.931 301.439 217.935 301.439 207.973C301.439 207.518 301.439 207.064 301.439 206.597C300.818 192.473 288.63 185.919 276.622 192.712L266.528 198.405L256.398 204.971H256.362Z" fill="#F0F0F0"/>
<path d="M261.924 147.013C261.924 147.013 254.091 146.403 252.356 153.674C250.766 160.157 262.582 185.751 262.319 185.32C262.056 184.89 261.924 147.013 261.924 147.013Z" fill="#263238"/>
<path d="M289.587 132.373C289.587 132.373 286.681 124.551 272.568 130.113C265.392 132.947 262.701 141.834 262.701 141.834L289.587 132.373Z" fill="#46B2C8"/>
<path opacity="0.4" d="M289.587 132.373C289.587 132.373 286.681 124.551 272.568 130.113C265.392 132.947 262.701 141.834 262.701 141.834L289.587 132.373Z" fill="black"/>
<path d="M267.305 153.148C267.305 163.912 274.839 170.586 284.144 168.086C293.449 165.586 300.984 154.93 300.984 144.166C300.984 133.402 292.959 133.402 283.654 135.914C274.349 138.425 267.305 142.408 267.305 153.148Z" fill="#263238"/>
<path d="M258.516 170.155C258.516 170.155 260.991 182.952 261.984 184.902C262.283 185.467 262.719 185.948 263.252 186.301C263.784 186.654 264.397 186.868 265.034 186.923L264.866 177.499L258.516 170.155Z" fill="#263238"/>
<path d="M261.625 150.038C260.644 150.197 259.709 150.566 258.883 151.119C258.057 151.672 257.361 152.397 256.841 153.243C254.807 156.197 255.944 163.445 258.491 170.155L263.156 169.521L261.625 150.038Z" fill="#263238"/>
<path d="M264.592 169.151C263.647 170.048 262.319 168.325 261.159 167.237C259.999 166.149 256.231 165.252 254.342 170.335C252.452 175.418 256.004 180.728 258.982 181.015C264.101 181.493 264.867 177.499 264.867 177.499L265.034 199.35C273.633 208.463 288.679 197.723 281.91 193.692V187.198C284.259 186.996 286.575 186.514 288.811 185.763C292.578 184.077 294.946 180.022 296.094 174.999C297.924 166.95 298.618 160.647 297.063 146.211C295.365 130.376 278.944 134.61 270.081 143.425C261.219 152.239 264.592 169.151 264.592 169.151Z" fill="#FFA8A7"/>
<path d="M264.591 171.028C264.113 171.171 262.319 168.217 261.159 167.296C259.544 166.028 261.625 150.098 261.625 150.098C259.759 145.983 263.204 139.776 266.804 137.253C269.39 135.592 272.309 134.518 275.355 134.107C277.939 133.645 280.514 133.29 283.081 133.043C286.221 132.878 289.345 132.503 292.434 131.918C294.852 131.345 297.196 130.494 299.419 129.383C301.38 128.486 303.007 130.507 301.273 133.868C299.72 136.924 297.564 139.634 294.934 141.833C287.303 147.562 278.441 148.937 270.727 149.787C268.993 149.978 268.61 152.023 267.677 157.585C266.852 162.416 266.17 170.513 264.591 171.028Z" fill="#263238"/>
<path d="M255.753 150.17L250.084 148.173C250.885 146.08 252.811 144.836 254.366 145.386C255.92 145.936 256.554 148.077 255.753 150.17Z" fill="#263238"/>
<path d="M281.897 187.198C281.897 187.198 273.525 187.497 270.559 186.481C268.786 185.863 267.326 184.574 266.492 182.893C266.897 184.661 267.685 186.318 268.8 187.748C270.953 190.344 281.897 189.746 281.897 189.746V187.198Z" fill="#F28F8F"/>
<path d="M279.863 162.656C279.856 163.176 279.692 163.683 279.394 164.11C279.095 164.536 278.675 164.863 278.188 165.048C277.267 165.287 276.514 164.581 276.514 163.469C276.506 162.936 276.663 162.414 276.962 161.973C277.262 161.532 277.69 161.194 278.188 161.005C279.121 160.802 279.863 161.46 279.863 162.656Z" fill="#263238"/>
<path d="M277.173 155.301L273.585 158.566C273.333 157.955 273.279 157.281 273.429 156.638C273.579 155.995 273.926 155.414 274.422 154.978C274.599 154.769 274.826 154.607 275.081 154.506C275.336 154.406 275.612 154.37 275.884 154.402C276.156 154.434 276.417 154.533 276.641 154.69C276.866 154.846 277.049 155.057 277.173 155.301Z" fill="#263238"/>
<path d="M281.143 175.729L284.982 176.362C284.872 176.973 284.551 177.524 284.074 177.92C283.597 178.316 282.995 178.531 282.375 178.527C281.311 178.36 280.76 177.104 281.143 175.729Z" fill="#F28F8F"/>
<path d="M295.328 152.143L292.039 150.098C292.721 148.902 293.989 148.268 294.898 148.83C295.359 149.237 295.656 149.796 295.736 150.406C295.815 151.015 295.67 151.633 295.328 152.143Z" fill="#263238"/>
<path d="M293.893 158.315C293.902 158.851 293.745 159.377 293.443 159.821C293.141 160.264 292.709 160.603 292.206 160.791C291.273 161.03 290.52 160.324 290.52 159.212C290.511 158.677 290.669 158.153 290.971 157.712C291.273 157.27 291.705 156.934 292.206 156.748C293.139 156.497 293.893 157.203 293.893 158.315Z" fill="#263238"/>
<path d="M285.568 158.984L285.76 170.729L291.8 167.572L285.568 158.984Z" fill="#F28F8F"/>
<path d="M231.055 276.276C235.767 227.838 243.386 210.627 255.322 205.808C259.328 208.941 259.974 223.233 255.441 233.961C255.441 233.961 245.467 266.086 244.677 277.017C244.174 287.241 244.554 297.489 245.813 307.647C245.877 308.258 246.069 308.848 246.376 309.379C246.683 309.911 247.099 310.372 247.595 310.733C250.143 312.479 249.916 314.919 251.71 317.275C253.121 319.117 254.46 319.475 254.102 320.145C253.803 320.815 253.285 321.363 252.632 321.698C251.98 322.033 251.232 322.135 250.514 321.987C249.37 321.59 248.311 320.982 247.392 320.193C248.067 322.772 249.132 325.232 250.55 327.489C253.779 332.715 253.54 336.172 245.622 337.14C240.659 337.75 237.13 334.593 234.942 322.143C234.32 318.555 232.789 312.096 232.203 307.456C230.505 294.216 230.289 284.074 231.055 276.276Z" fill="#FFA8A7"/>
<path d="M258.743 203.512C258.743 203.512 250.06 206.31 245.587 213.259C241.114 220.208 236.641 231.45 233.244 251.531C233.244 251.531 238.507 259.114 252.87 253.265C252.87 253.265 259.676 227.719 260.477 217.565C261.302 206.49 258.743 203.512 258.743 203.512Z" fill="#455A64"/>
<path d="M266.815 132.756C258.695 137.839 255.19 144.011 254.987 151.45C254.916 156.56 255.119 161.67 255.597 166.759C254.067 167.86 252.806 169.292 251.908 170.949C251.009 172.606 250.496 174.444 250.406 176.327C250.406 181.362 254.485 184.352 259.52 183C262.047 182.252 264.28 180.74 265.912 178.671C267.544 176.602 268.494 174.078 268.633 171.447C268.736 169.813 268.226 168.2 267.201 166.924C266.177 165.647 264.713 164.799 263.096 164.546C262.079 157.441 262.099 150.225 263.156 143.126C264.962 132.362 285.078 126.154 289.587 132.362C288.236 127.003 278.106 125.64 266.815 132.756Z" fill="#46B2C8"/>
<path opacity="0.15" d="M266.815 132.756C258.695 137.839 255.19 144.011 254.987 151.45C254.916 156.56 255.119 161.67 255.597 166.759C254.067 167.86 252.806 169.292 251.908 170.949C251.009 172.606 250.496 174.444 250.406 176.327C250.406 181.362 254.485 184.352 259.52 183C262.047 182.252 264.28 180.74 265.912 178.671C267.544 176.602 268.494 174.078 268.633 171.447C268.736 169.813 268.226 168.2 267.201 166.924C266.177 165.647 264.713 164.799 263.096 164.546C262.079 157.441 262.099 150.225 263.156 143.126C264.962 132.362 285.078 126.154 289.587 132.362C288.236 127.003 278.106 125.64 266.815 132.756Z" fill="black"/>
<path d="M263.885 172.714C263.911 172.179 263.803 171.646 263.572 171.162C263.341 170.679 262.994 170.26 262.561 169.944C262.129 169.627 261.624 169.423 261.094 169.349C260.563 169.275 260.022 169.334 259.52 169.521C258.309 169.88 257.24 170.605 256.458 171.597C255.676 172.588 255.221 173.798 255.154 175.058C255.136 175.591 255.25 176.12 255.485 176.599C255.72 177.077 256.069 177.49 256.502 177.801C256.935 178.112 257.438 178.312 257.966 178.382C258.495 178.452 259.032 178.391 259.532 178.204C260.733 177.847 261.796 177.129 262.575 176.147C263.354 175.164 263.811 173.966 263.885 172.714Z" fill="#46B2C8"/>
<path d="M195.02 249.558C194.823 249.75 194.643 249.958 194.481 250.18C194.194 250.534 193.979 250.94 193.848 251.376C193.761 251.628 193.761 251.902 193.848 252.154C193.879 252.332 193.967 252.495 194.099 252.62C194.162 252.693 194.234 252.757 194.314 252.811L189.925 250.276C189.749 250.178 189.604 250.033 189.506 249.857C189.436 249.691 189.4 249.512 189.4 249.331C189.4 249.15 189.436 248.971 189.506 248.805C189.602 248.508 189.739 248.226 189.913 247.968C190.139 247.627 190.396 247.307 190.678 247.011L195.02 249.558Z" fill="#46B2C8"/>
<path d="M195.057 249.51C192.773 251.902 193.574 253.517 196.851 253.098L215.198 250.981V228.58L195.057 249.51Z" fill="#46B2C8"/>
<path d="M195.056 249.51C193.609 251.017 193.406 252.213 194.267 252.799L189.877 250.264C188.956 249.69 189.16 248.47 190.619 246.939L210.771 226.045L215.209 228.616L195.056 249.51Z" fill="#46B2C8"/>
<path opacity="0.15" d="M195.02 249.558C194.823 249.75 194.643 249.958 194.481 250.18C194.204 250.54 193.989 250.944 193.848 251.376C193.777 251.63 193.777 251.899 193.848 252.154C193.882 252.331 193.97 252.493 194.099 252.62C194.162 252.693 194.234 252.757 194.314 252.811L189.925 250.276C189.749 250.178 189.604 250.033 189.506 249.857C189.436 249.691 189.4 249.512 189.4 249.331C189.4 249.15 189.436 248.971 189.506 248.805C189.607 248.51 189.743 248.229 189.913 247.968C190.139 247.627 190.396 247.307 190.678 247.011L195.02 249.558Z" fill="black"/>
<path opacity="0.4" d="M215.209 228.58L195.057 249.51L190.607 246.939L210.772 226.045L215.209 228.58Z" fill="white"/>
<path d="M318.567 220.854L322.609 227.767C322.609 227.767 349.089 213.726 350.584 211.884C352.079 210.042 351.983 206.322 352.21 204.313C352.581 200.964 351.349 198.082 351.17 196.874C350.811 194.302 354.507 194.9 355.679 195.917C356.449 196.737 357.09 197.668 357.581 198.68C358.155 199.637 359.231 202.758 360.331 202.95C361.192 203.105 362.903 201.885 363.608 201.359C366.515 199.158 368.309 196.108 370.545 193.322C370.943 192.722 371.497 192.243 372.148 191.934C372.719 191.821 373.308 191.838 373.872 191.985C374.435 192.132 374.958 192.405 375.401 192.784C376.344 193.31 377.16 194.037 377.793 194.912C378.179 195.568 378.454 196.284 378.606 197.029C379.802 202.1 377.195 206.382 374.121 210.185C371.036 213.926 367.379 217.155 363.285 219.753C360.893 221.332 357.688 222.731 354.913 224.214C352.139 225.697 322.406 250.61 318.244 247.788C313.269 243.917 308.811 239.423 304.98 234.416" fill="#FFA8A7"/>
<path d="M513.896 177.642C523.464 177.642 528.488 180.512 532.458 189.35C536.262 197.806 548.066 222.336 547.48 228.28C546.894 234.224 522.651 259.532 522.651 259.532L515.726 251.16L530.748 225.924L515.954 204.516L513.896 177.642Z" fill="#FFA8A7"/>
<path d="M490.671 437.928C490.671 437.928 491.747 441.193 492.333 444.063C492.799 446.336 493.457 450.127 492.656 451.837C491.855 453.547 488.757 454.648 483.949 454.612C480.827 454.612 475.972 456.705 472.647 458.571C469.322 460.436 462.062 461.25 458.426 460.819C454.145 460.317 449.707 457.829 449.014 456.035C448.32 454.241 447.734 451.837 459.335 448.118C459.431 448.118 473.364 443.549 478.244 438.155L490.671 437.928Z" fill="#263238"/>
<path d="M490.67 438.251L488.458 437.976L478.244 438.179C473.364 443.573 459.431 448.118 459.335 448.142L457.481 448.763C455.46 450.39 457.17 453.153 461.954 453.547C466.738 453.942 481.652 448.955 484.953 447.364C486.685 446.56 488.146 445.271 489.161 443.654C490.176 442.036 490.7 440.16 490.67 438.251Z" fill="#FFA8A7"/>
<path d="M490.672 433.861C490.672 433.861 490.672 436.648 490.672 438.251C490.672 439.853 488.806 442.221 483.926 442.042C480.506 441.922 478.114 441.001 478.245 438.179V434.148L490.672 433.861Z" fill="#FFA8A7"/>
<path d="M523.418 419.592C524.291 419.951 524.47 421.649 524.506 425.01C524.506 427.546 524.973 431.995 521.971 432.808C518.969 433.621 514.627 433.035 512.785 430.595C510.489 427.546 508.946 424.867 505.609 421.123C502.751 417.882 499.629 414.844 498.577 410.359C497.608 406.317 498.577 404.606 501.316 403.506C504.055 402.406 506.578 403.315 510.405 406.508C511.473 407.231 512.616 407.837 513.814 408.314C516.361 409.115 522.533 419.233 523.418 419.592Z" fill="#263238"/>
<path d="M523.501 416.483L523.382 420.609C523.382 420.609 520.631 426.003 512.965 420.609C512.797 420.203 512.104 412.237 512.104 412.237L523.501 416.483Z" fill="#FFA8A7"/>
<path d="M513.849 408.339C512.651 407.861 511.508 407.256 510.44 406.533C507.355 405.54 500.872 406.688 503.779 411.185C506.214 414.882 509.331 418.08 512.964 420.61C516.432 422.32 517.64 420.203 517.64 420.203L516.444 410.527C515.754 409.612 514.867 408.864 513.849 408.339Z" fill="#FFA8A7"/>
<path d="M529.1 359.457C527.569 345.931 524.638 338.121 524.638 338.121C524.638 338.121 527.234 319.918 529.267 302.468C534.051 261.481 530.87 260.823 525.081 246.567C525.081 246.567 472.541 239.809 470.34 261.66C467.601 288.869 468.845 341.637 469.3 351.289C469.754 360.94 470.495 365.306 473.414 385.518C475.59 400.911 477.66 434.554 477.66 434.554C484.549 438.525 491.174 433.86 491.174 433.86C491.174 433.86 497.764 392.491 497.609 381.356C497.475 373.114 496.268 364.924 494.021 356.994C494.021 356.994 498.494 312.646 499.63 305.566C499.63 305.566 500.898 319.714 501.364 329.366C501.831 339.018 504.438 348.287 506.746 366.263C508.744 381.811 512.068 414.378 512.068 414.378C518.957 418.348 523.765 416.554 523.765 416.554C523.765 416.554 530.618 372.972 529.1 359.457Z" fill="#46B2C8"/>
<path d="M491.664 168.791L493.59 189.219L511.53 188.083L510.094 165.431L491.664 168.791Z" fill="#FFA8A7"/>
<path d="M527.651 186.313C525.821 180.907 522.114 177.737 513.897 177.642L510.871 177.737C510.297 180.751 501.459 183.191 492.728 180.129C491.532 180.452 488.123 181.074 486.222 181.325L482.036 181.935C475.685 184.016 472.874 195.091 472.264 212.565C471.654 230.038 469.035 267.509 469.035 267.509C469.035 267.509 482.705 274.829 504.281 271.994C523.597 269.459 531.108 258.037 530.438 259.496C528.173 249.803 524.827 240.396 520.463 231.45C530.629 206.441 530.354 194.338 527.651 186.313Z" fill="#455A64"/>
<path d="M493.59 272.616C497.165 272.654 500.738 272.438 504.282 271.97C521.887 269.662 529.685 260.01 530.415 259.376C528.153 249.717 524.815 240.342 520.464 231.426C525.607 218.796 528.071 209.467 528.908 202.279C528.071 207.518 520.332 227.802 510.202 233.89C510.202 233.89 515.919 234.775 520.811 241.496C525.702 248.218 521.684 271.169 493.59 272.616Z" fill="#37474F"/>
<path d="M486.222 181.302C477.79 182.366 470.53 183.873 467.457 192.149C463.402 203.42 457.182 213.789 449.146 222.671C443.907 228.281 422.403 239.021 417.56 238.219C412.716 237.418 408.35 230.517 405.863 231.952C403.375 233.388 408.829 238.315 408.53 239.535C408.231 240.755 399.5 238.219 395.374 235.289C391.248 232.359 388.796 240.767 394.178 247.058C399.56 253.349 409.63 253.839 420.585 251.65C431.541 249.462 451.562 242.956 459.515 235.54C469.944 225.793 471.846 220.495 476.367 212.099C490.767 200.928 486.222 181.302 486.222 181.302Z" fill="#FFA8A7"/>
<path d="M482.276 143.424C482.276 143.424 475.506 135.351 480.817 127.482C487.084 118.201 498.111 115.067 511.745 119.11C518.491 121.107 528.405 130.436 528.908 143.52C529.29 153.602 501.017 160.264 501.471 167.177L482.276 143.424Z" fill="#263238"/>
<path d="M478.401 146.378C478.401 146.378 474.43 152.358 474.944 153.028C475.876 153.639 476.909 154.08 477.994 154.331L478.401 146.378Z" fill="#F28F8F"/>
<path d="M490.491 127.35C486.628 129.347 479.955 133.031 478.232 147.263C476.474 161.866 479.727 166.937 481.713 168.851C483.064 170.143 490.001 170.609 493.673 169.485C498.205 168.086 508.025 163.242 512.605 155.707C518.011 146.833 519.124 135.016 512.88 130.376C504.042 123.857 493.756 125.663 490.491 127.35Z" fill="#FFA8A7"/>
<path d="M489.355 127.972C489.355 127.972 485.982 141.295 490.013 149.715C490.013 149.715 492.405 144.512 496.842 146.007C501.279 147.502 500.932 153.506 497.392 156.568C496.489 157.449 495.354 158.056 494.12 158.319C492.886 158.581 491.603 158.488 490.419 158.051C490.419 158.051 490.539 165.43 496.842 168.349C496.842 168.349 509.998 174.652 521.958 161.926C532.722 150.373 531.37 129.634 515.452 124.384C499.533 119.133 489.355 127.972 489.355 127.972Z" fill="#263238"/>
<path d="M542.912 184.184C540.402 184.184 537.918 183.688 535.6 182.726C533.282 181.763 531.177 180.353 529.406 178.575C527.635 176.797 526.232 174.687 525.278 172.365C524.324 170.044 523.838 167.557 523.848 165.048V140.602C528.901 140.602 533.747 142.609 537.32 146.182C540.893 149.755 542.9 154.601 542.9 159.654L542.912 184.184Z" fill="#263238"/>
<path d="M479.093 121.992C473.173 127.972 472.838 145.445 490.013 149.727L501.267 118.882C494.713 114.613 484.38 116.586 479.093 121.992Z" fill="#263238"/>
<path d="M488.291 154.476C487.86 154.333 487.463 154.105 487.122 153.806C486.781 153.507 486.503 153.142 486.305 152.734C486.107 152.326 485.993 151.883 485.97 151.43C485.946 150.977 486.013 150.524 486.167 150.098C486.321 149.671 486.559 149.28 486.867 148.947C487.175 148.614 487.546 148.346 487.959 148.158C488.372 147.971 488.819 147.869 489.272 147.857C489.725 147.845 490.177 147.924 490.599 148.089L488.291 154.476Z" fill="#263238"/>
<path opacity="0.1" d="M499.652 305.59L502.511 287.303C508.268 286.614 513.809 284.688 518.752 281.658C518.752 281.658 515.164 287.052 505.716 289.301L502.798 310.482L501.602 332.668L499.652 305.59Z" fill="black"/>
</svg>
