<svg width="491" height="472" viewBox="0 0 491 472" fill="none" xmlns="http://www.w3.org/2000/svg">
<g clip-path="url(#clip0_6002_21128)">
<path d="M409.316 189.258C410.666 187.012 411.48 184.486 411.694 181.875C411.908 179.264 411.516 176.639 410.55 174.203C409.583 171.768 408.067 169.589 406.121 167.834C404.174 166.08 401.848 164.797 399.325 164.087C396.801 163.377 394.148 163.258 391.571 163.739C388.994 164.221 386.563 165.289 384.466 166.863C382.37 168.436 380.665 170.471 379.484 172.81C378.303 175.149 377.677 177.728 377.656 180.348V180.426C377.656 181.712 377.951 182.801 378.069 184.224L379.817 200.553C379.868 201.026 380.029 201.481 380.287 201.882C380.544 202.283 380.891 202.619 381.3 202.863C381.709 203.108 382.17 203.254 382.645 203.291C383.12 203.327 383.597 203.253 384.039 203.074L399.015 197.01C400.313 196.569 401.585 196.054 402.825 195.47H402.884C405.545 194.011 407.766 191.866 409.316 189.258ZM390.874 186.873C389.599 186.111 388.579 184.987 387.943 183.645C387.307 182.303 387.083 180.803 387.301 179.334C387.518 177.865 388.167 176.493 389.164 175.393C390.162 174.292 391.464 173.512 392.905 173.151C394.347 172.79 395.863 172.864 397.262 173.364C398.661 173.864 399.881 174.768 400.766 175.96C401.651 177.153 402.163 178.581 402.236 180.064C402.308 181.548 401.939 183.019 401.175 184.293C400.149 185.997 398.489 187.226 396.558 187.71C394.627 188.194 392.583 187.893 390.874 186.873Z" fill="#EBEBEB"/>
<path d="M166.169 205.316L129.094 213.57L155.268 330.969L192.343 322.714L166.169 205.316Z" fill="#F5F5F5"/>
<path d="M166.17 205.326L147.633 209.453L173.737 326.535L192.274 322.408L166.17 205.326Z" fill="#EBEBEB"/>
<path d="M143.859 198.191L130.766 201.105L133.335 212.628L146.428 209.713L143.859 198.191Z" fill="#F5F5F5"/>
<path d="M143.851 198.195L140.727 198.891L143.296 210.413L146.42 209.717L143.851 198.195Z" fill="#EBEBEB"/>
<path d="M126.014 214.243L125.867 213.575L167.111 204.391L167.258 205.058" fill="#E0E0E0"/>
<path d="M140.666 216.275L137.531 216.973L139.005 223.582L142.139 222.884L140.666 216.275Z" fill="#FAFAFA"/>
<path d="M150.821 223.713C150.821 223.782 146.697 224.763 141.581 225.901C136.465 227.04 132.301 227.864 132.281 227.864C132.262 227.864 136.406 226.814 141.522 225.676C146.638 224.537 150.802 223.595 150.821 223.713Z" fill="#E0E0E0"/>
<path d="M159.384 212.067L156.25 212.766L157.725 219.374L160.859 218.676L159.384 212.067Z" fill="#E0E0E0"/>
<path d="M169.517 219.5C169.517 219.568 165.392 220.55 160.276 221.688C155.16 222.826 150.996 223.7 150.977 223.651C150.957 223.602 155.101 222.601 160.217 221.462C165.333 220.324 169.497 219.431 169.517 219.5Z" fill="#E0E0E0"/>
<path d="M162.314 225.2L159.18 225.898L160.654 232.507L163.788 231.809L162.314 225.2Z" fill="#E0E0E0"/>
<path d="M172.439 232.631C172.439 232.7 168.314 233.681 163.198 234.819C158.082 235.957 153.918 236.782 153.899 236.782C153.879 236.782 158.023 235.732 163.139 234.593C168.255 233.455 172.419 232.543 172.439 232.631Z" fill="#E0E0E0"/>
<path d="M165.329 238.72L162.195 239.418L163.67 246.027L166.804 245.328L165.329 238.72Z" fill="#E0E0E0"/>
<path d="M175.454 246.153C175.454 246.222 171.33 247.203 166.214 248.341C161.097 249.48 156.934 250.304 156.914 250.304C156.894 250.304 161.039 249.254 166.155 248.116C171.271 246.977 175.435 246.075 175.454 246.153Z" fill="#E0E0E0"/>
<path d="M168.353 252.243L165.219 252.941L166.693 259.55L169.828 258.852L168.353 252.243Z" fill="#E0E0E0"/>
<path d="M178.47 259.676C178.47 259.744 174.346 260.726 169.229 261.864C164.113 263.002 159.949 263.826 159.93 263.826C159.91 263.826 164.054 262.776 169.17 261.638C174.287 260.5 178.45 259.607 178.47 259.676Z" fill="#E0E0E0"/>
<path d="M171.244 265.427L168.109 266.125L169.583 272.734L172.717 272.036L171.244 265.427Z" fill="#E0E0E0"/>
<path d="M181.398 272.773C181.398 272.842 177.283 273.823 172.157 274.962C167.031 276.1 162.877 276.973 162.867 276.924C162.857 276.875 166.982 275.874 172.108 274.736C177.234 273.598 181.388 272.773 181.398 272.773Z" fill="#E0E0E0"/>
<path d="M174.228 278.567L171.094 279.266L172.568 285.874L175.703 285.176L174.228 278.567Z" fill="#E0E0E0"/>
<path d="M177.166 291.97L174.031 292.668L175.505 299.277L178.639 298.579L177.166 291.97Z" fill="#E0E0E0"/>
<path d="M184.337 285.992C184.337 286.061 180.213 287.042 175.096 288.19C169.98 289.338 165.817 290.153 165.797 290.153C165.777 290.153 169.921 289.103 175.038 287.964C180.154 286.826 184.317 285.923 184.337 285.992Z" fill="#E0E0E0"/>
<path d="M143.673 229.571L140.539 230.27L142.014 236.878L145.148 236.18L143.673 229.571Z" fill="#FAFAFA"/>
<path d="M153.78 236.988C153.78 237.057 149.666 238.038 144.54 239.176C139.414 240.315 135.26 241.188 135.25 241.139C135.24 241.09 139.365 240.089 144.491 238.951C149.617 237.812 153.771 236.919 153.78 236.988Z" fill="#E0E0E0"/>
<path d="M146.642 242.895L143.508 243.594L144.982 250.202L148.117 249.504L146.642 242.895Z" fill="#FAFAFA"/>
<path d="M156.759 250.313C156.759 250.382 152.635 251.363 147.518 252.511C142.402 253.659 138.238 254.474 138.219 254.474C138.199 254.474 142.343 253.424 147.459 252.286C152.576 251.147 156.739 250.205 156.759 250.313Z" fill="#E0E0E0"/>
<path d="M149.603 256.227L146.469 256.926L147.943 263.534L151.078 262.836L149.603 256.227Z" fill="#FAFAFA"/>
<path d="M159.736 263.649C159.736 263.718 155.611 264.699 150.495 265.838C145.379 266.976 141.215 267.8 141.195 267.8C141.176 267.8 145.32 266.75 150.436 265.612C155.552 264.474 159.716 263.571 159.736 263.649Z" fill="#E0E0E0"/>
<path d="M152.556 269.576L149.422 270.273L150.895 276.882L154.03 276.184L152.556 269.576Z" fill="#FAFAFA"/>
<path d="M162.702 276.976C162.702 277.045 158.588 278.026 153.471 279.165C148.355 280.303 144.182 281.127 144.172 281.127C144.162 281.127 148.286 280.077 153.413 278.939C158.539 277.801 162.692 276.908 162.702 276.976Z" fill="#E0E0E0"/>
<path d="M155.564 282.868L152.43 283.566L153.904 290.175L157.039 289.477L155.564 282.868Z" fill="#FAFAFA"/>
<path d="M165.671 290.301C165.671 290.369 161.547 291.351 156.43 292.489C151.314 293.627 147.15 294.501 147.141 294.451C147.131 294.402 151.255 293.401 156.371 292.263C161.488 291.125 165.651 290.232 165.671 290.301Z" fill="#E0E0E0"/>
<path d="M158.533 296.2L155.398 296.898L156.873 303.507L160.007 302.809L158.533 296.2Z" fill="#FAFAFA"/>
<path d="M226.082 258.988L170.891 264.27L177.862 337.013L233.053 331.732L226.082 258.988Z" fill="#EBEBEB"/>
<path d="M226.094 258.981L200.219 261.457L207.19 334.201L233.065 331.725L226.094 258.981Z" fill="#E0E0E0"/>
<path d="M188.388 272.529L183.422 273.004L184.576 285.048L189.542 284.573L188.388 272.529Z" fill="#F5F5F5"/>
<path d="M192.896 319.693L187.93 320.168L189.084 332.212L194.05 331.737L192.896 319.693Z" fill="#F5F5F5"/>
<path d="M202.761 288.085C202.761 288.222 196.221 288.958 188.129 289.733C180.037 290.508 173.468 291.028 173.399 290.891C173.33 290.754 179.939 290.018 188.031 289.242C196.122 288.467 202.751 287.947 202.761 288.085Z" fill="#F5F5F5"/>
<path d="M190.661 296.287L185.695 296.762L186.85 308.806L191.815 308.331L190.661 296.287Z" fill="#F5F5F5"/>
<path d="M205.042 311.842C205.042 311.98 198.502 312.716 190.41 313.491C182.318 314.266 175.739 314.786 175.68 314.649C175.621 314.511 182.22 313.775 190.312 313C198.404 312.225 205.032 311.705 205.042 311.842Z" fill="#F5F5F5"/>
<path d="M211.622 270.306L206.656 270.781L207.81 282.825L212.776 282.35L211.622 270.306Z" fill="#F5F5F5"/>
<path d="M222.38 269.287L217.414 269.762L218.568 281.806L223.534 281.331L222.38 269.287Z" fill="#F5F5F5"/>
<path d="M213.802 293.173L208.836 293.648L209.99 305.693L214.956 305.217L213.802 293.173Z" fill="#F5F5F5"/>
<path d="M224.575 292.134L219.609 292.609L220.764 304.654L225.729 304.178L224.575 292.134Z" fill="#F5F5F5"/>
<path d="M215.997 316.037L211.031 316.512L212.185 328.556L217.151 328.081L215.997 316.037Z" fill="#F5F5F5"/>
<path d="M226.771 314.997L221.805 315.473L222.959 327.517L227.925 327.042L226.771 314.997Z" fill="#F5F5F5"/>
<path d="M229.998 256.057L166.508 262.133L166.76 264.76L230.25 258.685L229.998 256.057Z" fill="#E0E0E0"/>
<path d="M226.508 259.281C226.508 259.419 214.204 260.704 199.012 262.156C183.821 263.609 171.447 264.688 171.438 264.551C171.428 264.413 183.752 263.128 198.934 261.676C214.115 260.223 226.498 259.144 226.508 259.281Z" fill="#EBEBEB"/>
<path d="M177.685 339.133L126.562 361.712L90.6406 281.079L141.754 258.5L177.685 339.133Z" fill="#EBEBEB"/>
<path d="M141.751 258.505L116.188 269.793L151.889 350.529L177.453 339.241L141.751 258.505Z" fill="#E0E0E0"/>
<path d="M107.484 254.645L89.4297 262.617L96.4589 278.513L114.513 270.541L107.484 254.645Z" fill="#EBEBEB"/>
<path d="M107.49 254.643L103.188 256.543L110.217 272.439L114.519 270.539L107.49 254.643Z" fill="#E0E0E0"/>
<path d="M142.844 256.925L85.9688 282.039L86.3776 282.964L143.252 257.849L142.844 256.925Z" fill="#E0E0E0"/>
<path d="M108.103 281.651L103.773 283.562L107.806 292.682L112.135 290.77L108.103 281.651Z" fill="white"/>
<path d="M124.867 289.459C124.916 289.557 119.221 292.167 112.17 295.278C105.119 298.388 99.4041 300.851 99.3059 300.753C99.2077 300.655 104.952 298.055 112.013 294.934C119.074 291.814 124.828 289.321 124.867 289.459Z" fill="#E0E0E0"/>
<path d="M133.892 270.268L129.562 272.18L133.595 281.299L137.924 279.387L133.892 270.268Z" fill="#F5F5F5"/>
<path d="M150.664 278.026C150.664 278.124 145.018 280.725 137.957 283.845C130.896 286.966 125.191 289.409 125.103 289.311C125.014 289.213 130.749 286.613 137.81 283.492C144.87 280.372 150.615 277.928 150.664 278.026Z" fill="#EBEBEB"/>
<path d="M141.9 288.362L137.57 290.273L141.603 299.393L145.932 297.481L141.9 288.362Z" fill="#F5F5F5"/>
<path d="M158.664 296.132C158.664 296.23 153.018 298.83 145.957 301.951C138.896 305.071 133.191 307.515 133.103 307.417C133.014 307.318 138.749 304.718 145.81 301.598C152.87 298.477 158.625 296.034 158.664 296.132Z" fill="#EBEBEB"/>
<path d="M150.15 307.018L145.82 308.93L149.853 318.049L154.182 316.137L150.15 307.018Z" fill="#F5F5F5"/>
<path d="M166.913 314.776C166.913 314.874 161.267 317.475 154.206 320.595C147.146 323.716 141.391 326.159 141.352 326.061C141.312 325.963 146.998 323.363 154.059 320.242C161.119 317.122 166.864 314.678 166.913 314.776Z" fill="#EBEBEB"/>
<path d="M158.384 325.67L154.055 327.582L158.087 336.701L162.417 334.79L158.384 325.67Z" fill="#F5F5F5"/>
<path d="M175.155 333.417C175.155 333.515 169.509 336.125 162.448 339.236C155.388 342.347 149.633 344.8 149.594 344.712C149.555 344.623 155.24 342.003 162.301 338.893C169.362 335.782 175.106 333.319 175.155 333.417Z" fill="#EBEBEB"/>
<path d="M116.243 300.026L111.914 301.938L115.947 311.057L120.276 309.145L116.243 300.026Z" fill="white"/>
<path d="M133 307.788C133 307.886 127.353 310.487 120.293 313.607C113.232 316.728 107.527 319.171 107.439 319.083C107.35 318.994 113.085 316.374 120.146 313.264C127.206 310.153 132.961 307.69 133 307.788Z" fill="#E0E0E0"/>
<path d="M124.361 318.416L120.031 320.328L124.064 329.447L128.393 327.536L124.361 318.416Z" fill="white"/>
<path d="M141.132 326.167C141.132 326.265 135.485 328.865 128.425 331.986C121.364 335.106 115.61 337.55 115.571 337.452C115.531 337.354 121.217 334.753 128.268 331.633C135.319 328.512 141.083 326.069 141.132 326.167Z" fill="#E0E0E0"/>
<path d="M132.493 336.799L128.164 338.711L132.197 347.83L136.526 345.918L132.493 336.799Z" fill="white"/>
<path d="M149.255 344.548C149.255 344.647 143.618 347.247 136.558 350.367C129.497 353.488 123.743 355.931 123.703 355.833C123.664 355.735 129.34 353.135 136.401 350.014C143.461 346.894 149.216 344.411 149.255 344.548Z" fill="#E0E0E0"/>
<path d="M362.243 320.162L341.297 344.694C341.189 344.82 341.106 344.965 341.055 345.123C341.003 345.28 340.983 345.446 340.996 345.611C341.009 345.776 341.054 345.937 341.129 346.085C341.204 346.232 341.308 346.363 341.434 346.471L393.019 390.383C393.145 390.492 393.292 390.575 393.451 390.627C393.609 390.678 393.777 390.698 393.943 390.684C394.11 390.67 394.272 390.624 394.42 390.547C394.568 390.47 394.699 390.364 394.806 390.236L402.358 381.139C402.524 380.932 402.624 380.679 402.642 380.413L403.673 364.252C403.687 364.058 403.654 363.864 403.579 363.685C403.504 363.506 403.389 363.347 403.241 363.221L394.777 355.901C394.526 355.683 394.372 355.375 394.348 355.044C394.324 354.713 394.432 354.386 394.649 354.134L397.811 350.415C397.919 350.291 398.001 350.146 398.052 349.989C398.104 349.833 398.124 349.668 398.111 349.504C398.098 349.339 398.053 349.179 397.978 349.032C397.903 348.886 397.799 348.755 397.673 348.649L364.069 320.025C363.943 319.909 363.794 319.82 363.632 319.764C363.469 319.708 363.298 319.686 363.126 319.699C362.955 319.712 362.789 319.759 362.637 319.839C362.485 319.919 362.351 320.029 362.243 320.162Z" fill="#F5F5F5"/>
<path d="M394.344 359.275L387.627 367.125C387.511 367.268 387.455 367.45 387.472 367.634C387.488 367.817 387.576 367.987 387.715 368.106L399.264 377.595C399.365 377.677 399.486 377.73 399.614 377.749C399.743 377.768 399.874 377.752 399.995 377.703C400.115 377.654 400.22 377.573 400.299 377.47C400.377 377.366 400.427 377.244 400.442 377.115L401.856 364.809C401.869 364.69 401.853 364.57 401.809 364.458C401.764 364.347 401.693 364.248 401.601 364.171L395.394 359.177C395.321 359.11 395.234 359.06 395.14 359.029C395.046 358.997 394.946 358.986 394.848 358.995C394.749 359.005 394.653 359.034 394.566 359.082C394.48 359.13 394.404 359.196 394.344 359.275Z" fill="#EBEBEB"/>
<path d="M394.336 392.812L338.82 345.531L337.362 347.242L392.877 394.522L394.336 392.812Z" fill="#F5F5F5"/>
<path d="M356.604 361.837C355.678 362.924 354.451 363.711 353.078 364.1C351.704 364.49 350.246 364.463 348.888 364.024C347.53 363.586 346.332 362.754 345.447 361.635C344.561 360.516 344.028 359.16 343.914 357.738C343.8 356.316 344.11 354.892 344.806 353.646C345.502 352.401 346.552 351.389 347.823 350.74C349.094 350.09 350.529 349.832 351.947 349.998C353.365 350.164 354.702 350.746 355.789 351.671C356.511 352.285 357.106 353.034 357.538 353.878C357.97 354.721 358.231 355.641 358.307 356.585C358.383 357.53 358.271 358.48 357.979 359.381C357.687 360.282 357.219 361.117 356.604 361.837Z" fill="#EBEBEB"/>
<path d="M354.343 359.915C353.798 360.556 353.076 361.02 352.266 361.25C351.457 361.48 350.598 361.465 349.797 361.207C348.997 360.948 348.291 360.459 347.769 359.799C347.247 359.14 346.933 358.341 346.865 357.503C346.798 356.665 346.981 355.826 347.391 355.092C347.801 354.358 348.419 353.762 349.168 353.38C349.917 352.997 350.763 352.845 351.599 352.943C352.434 353.041 353.222 353.384 353.862 353.929C354.719 354.66 355.252 355.7 355.342 356.823C355.432 357.945 355.073 359.057 354.343 359.915Z" fill="#FAFAFA"/>
<path d="M375.948 375.899C375.811 375.781 380.76 369.756 386.996 362.445C393.231 355.135 398.397 349.306 398.534 349.424C398.672 349.541 393.732 355.567 387.496 362.877C381.261 370.188 376.095 376.017 375.948 375.899Z" fill="#EBEBEB"/>
<path d="M386.514 387.323C385.587 388.408 384.36 389.195 382.986 389.583C381.612 389.971 380.154 389.943 378.796 389.503C377.438 389.063 376.241 388.23 375.356 387.11C374.472 385.99 373.94 384.633 373.827 383.211C373.715 381.789 374.026 380.365 374.724 379.12C375.421 377.875 376.472 376.865 377.743 376.217C379.015 375.569 380.451 375.312 381.869 375.479C383.286 375.647 384.623 376.23 385.709 377.157C386.432 377.77 387.026 378.52 387.458 379.364C387.89 380.207 388.151 381.128 388.226 382.072C388.301 383.017 388.188 383.967 387.894 384.868C387.6 385.769 387.131 386.603 386.514 387.323Z" fill="#EBEBEB"/>
<path d="M384.253 385.4C383.707 386.036 382.985 386.496 382.178 386.723C381.371 386.949 380.514 386.932 379.717 386.672C378.92 386.413 378.218 385.923 377.699 385.265C377.18 384.606 376.868 383.809 376.802 382.974C376.736 382.139 376.92 381.303 377.329 380.572C377.739 379.84 378.356 379.247 379.103 378.866C379.849 378.485 380.692 378.334 381.525 378.431C382.358 378.529 383.143 378.871 383.781 379.414C384.206 379.775 384.556 380.217 384.81 380.714C385.064 381.211 385.217 381.753 385.26 382.309C385.304 382.865 385.238 383.424 385.065 383.955C384.892 384.485 384.616 384.976 384.253 385.4Z" fill="#FAFAFA"/>
<path d="M389.677 372.533C389.559 372.671 388.695 372.111 387.713 371.287C386.731 370.463 386.044 369.678 386.162 369.54C386.279 369.403 387.144 369.962 388.126 370.787C389.108 371.611 389.795 372.396 389.677 372.533Z" fill="#EBEBEB"/>
<path d="M54.228 313.488C52.6487 311.396 50.6074 309.696 48.2632 308.52C45.919 307.345 43.335 306.726 40.7123 306.711C38.0895 306.697 35.4988 307.287 33.1417 308.436C30.7846 309.586 28.7247 311.263 27.1222 313.338C25.5198 315.413 24.418 317.829 23.9026 320.399C23.3873 322.969 23.4723 325.623 24.1509 328.154C24.8296 330.686 26.0837 333.027 27.8156 334.995C29.5475 336.963 31.7105 338.506 34.1363 339.502H34.2148C35.4031 339.993 36.5324 340.12 37.8875 340.552L53.6977 345.036C54.1549 345.167 54.6361 345.189 55.1035 345.103C55.571 345.016 56.0121 344.823 56.3924 344.538C56.7727 344.253 57.0819 343.884 57.2959 343.46C57.5098 343.036 57.6227 342.568 57.6257 342.093V325.941C57.702 324.571 57.702 323.198 57.6257 321.829V321.77C57.2527 318.756 56.0795 315.896 54.228 313.488ZM45.1445 329.689C43.9606 330.583 42.538 331.106 41.0566 331.192C39.5752 331.278 38.1015 330.924 36.8219 330.173C35.5423 329.422 34.5143 328.309 33.8678 326.974C33.2214 325.639 32.9856 324.143 33.1903 322.674C33.395 321.205 34.0309 319.83 35.0177 318.723C36.0044 317.615 37.2977 316.825 38.7339 316.452C40.1701 316.079 41.6848 316.14 43.0863 316.627C44.4878 317.114 45.7133 318.006 46.6077 319.189C47.8068 320.776 48.3263 322.773 48.0519 324.742C47.7775 326.711 46.7317 328.49 45.1445 329.689Z" fill="#F5F5F5"/>
<path d="M103.323 110.794C102.298 107.381 100.499 104.249 98.0662 101.643C95.6331 99.0378 92.6312 97.0281 89.294 95.7709C85.9569 94.5136 82.3745 94.0426 78.8255 94.3945C75.2765 94.7464 71.8565 95.9116 68.8317 97.7997C65.8069 99.6878 63.2587 102.248 61.3855 105.28C59.5122 108.313 58.3643 111.737 58.0311 115.285C57.6979 118.833 58.1884 122.41 59.4643 125.738C60.7403 129.066 62.7674 132.055 65.3879 134.473L65.4763 134.541C66.7627 135.719 68.1375 136.426 69.6694 137.603L87.7186 150.772C88.2434 151.153 88.8497 151.407 89.4896 151.513C90.1294 151.62 90.7853 151.576 91.4053 151.386C92.0254 151.195 92.5926 150.863 93.0623 150.416C93.5319 149.969 93.8911 149.419 94.1114 148.809L101.712 128.202C102.463 126.493 103.119 124.744 103.676 122.962V122.884C104.64 118.895 104.518 114.72 103.323 110.794ZM84.0066 127.152C82.0749 127.736 80.0134 127.734 78.0829 127.146C76.1523 126.559 74.4395 125.413 73.1609 123.853C71.8823 122.292 71.0954 120.388 70.8997 118.381C70.704 116.374 71.1084 114.354 72.0616 112.577C73.0148 110.8 74.4741 109.344 76.2549 108.396C78.0357 107.447 80.058 107.048 82.0661 107.247C84.0742 107.447 85.9779 108.238 87.5364 109.519C89.0949 110.8 90.2382 112.514 90.8217 114.445C91.6041 117.033 91.3256 119.826 90.0476 122.209C88.7696 124.592 86.5966 126.37 84.0066 127.152Z" fill="#EBEBEB"/>
<path d="M225.144 95.7511C225.606 92.4343 220.912 89.6965 217.387 89.4119C215.707 89.2844 213.959 89.5395 212.369 88.9802C208.922 87.783 207.537 83.328 204.169 81.9051C201.655 80.8453 198.758 81.7873 196.313 83.0139C193.868 84.2406 191.462 85.791 188.732 85.9578C186.365 86.105 183.822 85.2317 181.711 86.3798C180.169 87.2433 179.354 89.0292 177.93 90.0792C176.455 90.9855 174.751 91.4488 173.02 91.4138C171.284 91.3759 169.556 91.6587 167.923 92.2479C166.352 92.9642 165.046 94.6324 165.37 96.33L225.144 95.7511Z" fill="#EBEBEB"/>
<path d="M86.8789 225.919C86.5548 223.77 83.1374 222.926 80.8887 223.387C79.8541 223.741 78.778 223.959 77.6873 224.035C75.3207 223.917 73.6513 221.395 71.2945 221.091C69.5367 220.885 67.8968 222.004 66.6104 223.211C65.324 224.418 64.0965 225.821 62.4271 226.429C60.9835 226.959 59.2159 226.881 58.1357 227.98C57.3305 228.794 57.1537 230.05 56.4565 230.973C55.7018 231.811 54.719 232.411 53.6283 232.7C52.541 232.99 51.5181 233.483 50.6136 234.152C50.1669 234.494 49.8431 234.971 49.6908 235.513C49.5385 236.054 49.566 236.63 49.7691 237.155L86.8789 225.919Z" fill="#F5F5F5"/>
<path d="M365.522 261.5C366.337 258.732 362.694 255.808 359.728 255.121C358.314 254.788 356.782 254.788 355.516 254.14C352.737 252.678 352.128 248.713 349.447 247.084C347.483 245.858 344.861 246.29 342.622 247.026C340.383 247.761 338.144 248.762 335.807 248.566C333.774 248.39 331.692 247.32 329.777 248.036C328.354 248.576 327.44 249.999 326.095 250.696C324.716 251.288 323.194 251.465 321.715 251.206C320.245 250.95 318.74 250.97 317.277 251.265C316.549 251.432 315.895 251.828 315.41 252.395C314.926 252.962 314.637 253.671 314.586 254.415L365.522 261.5Z" fill="#F5F5F5"/>
<path d="M340.49 455.957C340.323 453.671 342.247 451.639 344.369 450.658C346.49 449.677 348.876 449.343 351.056 448.46C351.92 448.097 352.883 447.479 352.912 446.556C352.912 445.183 350.997 444.594 350.496 443.347C349.966 441.905 351.478 440.57 352.087 439.157C353.442 435.949 350.064 432.71 346.784 431.395C343.504 430.08 339.596 429.138 338.074 425.998C337.517 424.488 337.16 422.911 337.013 421.308C336.247 417.383 333.301 413.516 329.265 412.859C325.229 412.201 320.683 415.803 321.341 419.728C321.743 421.926 323.393 423.653 324.287 425.616C325.18 427.578 324.954 430.659 322.833 431.317C319.357 432.367 316.008 426.077 313.092 428.236C314.29 432.269 315.449 436.292 316.637 440.355C312.071 442.651 306.601 438.49 304.647 433.77C302.693 429.05 302.624 423.722 300.306 419.198C297.989 414.674 291.724 411.279 287.746 414.488C287.55 420.317 295.337 422.672 298.784 427.392C301.269 430.797 300.905 436.331 297.223 438.49C293.54 440.649 287.786 436.891 289.17 432.926C289.671 431.552 290.83 430.404 290.958 428.923C291.095 427.097 289.534 425.616 288.11 424.438C285.891 422.574 283.671 420.739 281.452 418.904C280.089 417.614 278.479 416.613 276.719 415.96C272.143 414.645 267.576 418.315 265.151 422.348C262.725 426.381 261.38 431.18 258.031 434.526C253.229 439.432 244.116 439.736 239.609 434.594C235.101 429.452 237.39 419.875 244.048 417.962C246.571 417.275 249.743 417.334 251.079 415.135C253.396 411.21 246.768 406.304 249.056 402.379C250.804 399.366 255.449 400.74 258.827 399.719C262.205 398.699 264.061 395.362 266.044 392.487C268.028 389.612 271.082 386.757 274.529 387.502C274.264 385.54 273.998 383.352 274.892 381.546C275.786 379.74 278.309 378.533 279.959 379.711C278.27 382.468 280.293 386.295 283.239 387.669C286.185 389.043 289.632 388.719 292.882 388.356C296.133 387.993 300.208 386.786 300.473 383.577C300.571 382.527 300.169 381.418 300.571 380.437C301.995 376.6 309.154 381.87 311.904 378.798C313.495 377.189 311.737 374.343 309.517 373.813C307.298 373.283 305.04 374.078 302.791 374.147C300.542 374.216 297.783 373.068 297.684 370.84C297.586 368.613 300.071 367.072 300.336 364.952C300.768 361.282 294.444 360.33 292.254 363.314C290.064 366.297 290.83 370.389 291.488 374.019C292.146 377.65 292.519 381.948 289.799 384.5C288.64 386.236 285.625 385.324 284.634 383.518C283.642 381.713 283.838 379.456 283.652 377.395C283.465 375.334 282.562 372.94 280.509 372.381C279.085 371.988 277.563 372.675 276.1 372.871C270.336 373.558 266.329 366.189 268.146 360.752C269.962 355.316 275.167 351.783 280.244 348.977C283.956 346.946 288.562 345.052 292.234 347.113C293.953 348.094 295.18 349.693 296.84 350.684C299.786 352.382 303.37 351.764 306.709 351.823C312.001 351.967 317.085 353.917 321.115 357.347C322.607 358.692 323.992 360.919 322.833 362.529C321.675 364.138 317.972 364.589 318.601 366.591C322.529 367.867 327.174 364.884 327.606 360.86C328.563 361.285 329.39 361.957 330.001 362.808C330.612 363.658 330.985 364.656 331.082 365.698C335.295 361.479 343.377 362.097 346.794 366.984C347.717 368.259 348.385 369.8 349.74 370.683C351.095 371.566 353.383 371.105 353.55 369.564C353.58 369.069 353.489 368.574 353.285 368.122C352.49 365.894 351.665 363.706 350.869 361.508C353.943 359.869 357.586 362.43 359.707 365.178C367.455 375.433 372.994 369.27 383.924 370.938C391.318 372.057 394.559 376.738 398.732 382.4C411.498 399.827 428.418 414.105 440.045 432.318C441.272 434.212 442.402 436.145 443.462 438.107C443.266 437.617 443.099 437.126 442.893 436.635C438.347 424.808 432.691 413.436 426.002 402.673C424.578 400.387 423.115 398.12 421.632 395.892C420.699 394.519 419.737 393.115 418.775 391.771C417.557 390.005 416.261 388.297 414.965 386.6C413.983 385.216 412.912 383.881 411.852 382.566C411.125 381.654 410.359 380.731 409.603 379.819C408.847 378.906 407.943 377.758 407.02 376.738L404.231 373.558C403.966 373.234 403.672 372.911 403.338 372.577C402.356 371.468 401.374 370.389 400.323 369.309C400.252 369.177 400.151 369.063 400.028 368.976C399.763 368.681 399.469 368.387 399.164 368.092C398.339 367.18 397.446 366.287 396.582 365.404C395.158 363.971 393.694 362.529 392.212 361.155C390.984 359.938 389.727 358.79 388.431 357.642C387.302 356.66 386.182 355.62 385.023 354.629C383.865 353.638 382.765 352.667 381.606 351.754C380.212 350.576 378.788 349.428 377.334 348.28C373.328 345.101 369.2 342.098 364.951 339.272C363.891 338.556 362.86 337.869 361.799 337.182C360.739 336.495 359.649 335.798 358.588 335.151C357.527 334.503 356.437 333.806 355.338 333.188C354.238 332.57 353.158 331.883 352.058 331.225C351.164 330.696 350.31 330.244 349.406 329.744C348.969 329.469 348.517 329.22 348.051 328.998C346.166 327.948 344.241 326.927 342.316 325.985C341.334 325.495 340.401 325.004 339.37 324.543C338.153 323.915 336.886 323.326 335.629 322.777C335.451 322.671 335.264 322.582 335.069 322.512C333.94 321.982 332.82 321.462 331.652 320.971C330.031 320.284 328.411 319.597 326.742 318.94C324.886 318.184 323.03 317.438 321.134 316.742C319.053 315.957 316.961 315.211 314.84 314.524C312.719 313.837 310.568 313.111 308.418 312.453C306.267 311.796 304.107 311.207 301.917 310.618C297.616 309.48 293.246 308.46 288.837 307.576C288.757 307.558 288.678 307.535 288.601 307.508C286.912 307.184 285.223 306.86 283.534 306.595C283.425 306.561 283.313 306.538 283.2 306.526C282.473 306.399 281.717 306.271 280.951 306.173C277.799 305.643 274.627 305.192 271.406 304.858C271.022 304.794 270.636 304.752 270.247 304.731C269.324 304.593 268.391 304.534 267.429 304.436C265.318 304.24 263.197 304.073 261.036 303.946C258.876 303.818 256.568 303.681 254.309 303.612C252.051 303.543 249.606 303.484 247.259 303.484C241.033 303.484 234.869 303.756 228.768 304.299C227.314 304.397 225.89 304.534 224.466 304.691C223.043 304.848 221.52 305.025 219.989 305.221C218.457 305.418 217.042 305.614 215.55 305.839C214.057 306.065 212.604 306.301 211.111 306.566C209.854 306.762 208.558 306.988 207.301 307.253C204.188 307.841 201.105 308.489 198.06 309.215C196.637 309.539 195.213 309.902 193.789 310.295C192.365 310.687 190.931 311.05 189.547 311.443C187.19 312.1 184.902 312.816 182.623 313.533C180.767 314.161 178.882 314.779 177.065 315.407C177.014 315.412 176.966 315.432 176.928 315.466C175.042 316.123 173.216 316.81 171.36 317.536L171.065 317.635C169.376 318.282 167.687 318.969 166.028 319.666C163.936 320.51 161.884 321.432 159.861 322.345C158.142 323.13 156.453 323.915 154.794 324.739C153.134 325.563 151.219 326.505 149.461 327.418L149.265 327.526C147.576 328.409 145.887 329.322 144.227 330.274C142.568 331.225 140.82 332.236 139.131 333.217C137.54 334.199 135.988 335.111 134.427 336.093C133.828 336.456 133.268 336.848 132.669 337.241C131.019 338.291 129.428 339.37 127.759 340.479C125.795 341.823 123.831 343.236 121.936 344.64C120.237 345.886 118.587 347.162 116.957 348.437C107.595 355.829 98.8859 364.011 90.9242 372.891C88.1059 375.962 85.4545 379.112 82.8718 382.321C80.682 385.069 78.5609 387.856 76.538 390.741C77.0682 390.672 77.6083 390.603 78.1288 390.574C81.0748 390.348 84.2663 390.446 86.9668 389.161C89.4512 387.954 91.209 385.756 93.4578 384.186C99.2221 380.123 108.669 379.367 110.221 372.557C110.751 370.271 110.122 367.778 110.987 365.58C112.607 361.488 118.145 360.9 122.584 360.968C124.469 360.968 126.689 361.233 127.553 362.862C128.181 364.01 127.818 365.453 127.347 366.67C124.558 374.39 119.188 380.913 112.145 385.137C106.381 388.611 98.8588 391.29 97.268 397.776C98.0634 399.975 102.109 399.808 102.433 402.104C102.669 403.929 100.283 404.881 99.4185 406.52C98.1616 408.914 101.049 411.829 103.798 411.691C106.548 411.554 108.836 409.601 110.849 407.766C116.879 402.232 123.212 396.265 125.392 388.415C126.374 385.167 126.659 381.369 129.32 379.21C132.473 376.649 138.109 378.425 139.14 382.321C141.753 380.879 145.828 379.799 147.183 382.488C147.654 383.469 147.517 384.549 147.753 385.559C148.607 389.75 154.411 391.653 155.01 395.873C155.697 400.779 149.373 403.281 144.433 404.037C139.965 404.724 135.487 405.411 131.019 406.127C129.05 406.268 127.141 406.873 125.451 407.894C123.861 409.071 122.869 411.299 123.792 413.035C124.468 413.916 125.25 414.71 126.119 415.4C129.831 419.061 126.777 426.626 121.543 426.793C119.756 426.862 117.998 426.204 116.211 426.136C110.908 425.91 106.705 430.522 104.181 435.144C101.658 439.766 99.7721 445.035 95.5396 448.175C88.6656 453.249 76.9504 452.101 73.641 459.872C72.3153 463.013 73.0027 466.545 73.533 469.921C73.6214 470.451 73.6901 471 73.7589 471.55H219.389C222.424 470.343 225.714 469.45 228.306 467.526C234.277 463.111 235.072 454.691 238.833 448.332C242.594 441.974 254.339 439.295 256.106 446.488C268.558 420.15 296.074 459.244 312.434 456.301C317.187 455.447 321.822 453.19 326.604 453.857C334.843 454.995 339.193 463.758 342.071 471.52H348.945C348.159 468.792 348.198 465.79 346.598 463.474C344.683 460.805 340.755 459.244 340.49 455.957ZM229.426 339.036C228.139 341.98 228.718 345.69 226.745 348.261C225.173 350.292 222.453 351.018 219.939 351.607L204.11 355.326C201.737 355.759 199.443 356.547 197.304 357.661C193.16 360.115 190.951 364.746 187.749 368.318C184.548 371.89 178.813 374.451 175.033 371.478C174.175 370.704 173.482 369.766 172.994 368.719C172.507 367.672 172.235 366.538 172.195 365.384C171.908 362.064 172.7 358.74 174.453 355.905C176.25 352.961 179.01 350.714 180.532 347.662C182.054 344.61 181.749 340.126 178.568 338.693C176.879 337.918 174.748 338.222 173.245 337.133C170.545 335.17 172.479 330.519 175.612 329.341C178.745 328.164 182.231 329.086 185.579 329.292C197.707 330.058 206.633 322.207 215.756 315.682C222.856 310.609 237.969 304.613 246.198 309.794C249.468 311.865 250.755 317.183 247.671 319.519C246.286 320.559 244.381 320.794 243.095 321.952C241.553 323.346 241.337 325.622 240.453 327.497C238.185 332.344 231.556 334.11 229.426 339.036Z" fill="#455A64"/>
<g opacity="0.3">
<path d="M226.739 348.262C228.703 345.691 228.134 342.011 229.42 339.038C231.551 334.131 238.18 332.345 240.477 327.498C241.361 325.623 241.577 323.347 243.119 321.953C244.405 320.796 246.311 320.56 247.695 319.52C250.779 317.184 249.492 311.866 246.222 309.795C238.013 304.614 222.9 310.61 215.78 315.683C206.657 322.209 197.731 330.059 185.603 329.294C182.255 329.087 178.778 328.175 175.636 329.343C172.494 330.51 170.569 335.162 173.269 337.134C174.772 338.223 176.903 337.919 178.592 338.694C181.724 340.127 182.039 344.582 180.556 347.663C179.073 350.744 176.274 353.001 174.477 355.906C172.724 358.741 171.932 362.065 172.219 365.385C172.259 366.539 172.531 367.673 173.018 368.72C173.506 369.767 174.199 370.705 175.057 371.479C178.837 374.423 184.582 371.901 187.773 368.319C190.965 364.738 193.184 360.116 197.328 357.663C199.467 356.548 201.761 355.761 204.134 355.327L219.963 351.608C222.448 351.019 225.168 350.323 226.739 348.262Z" fill="black"/>
<path d="M326.598 453.869C321.815 453.201 317.18 455.458 312.427 456.312C296.067 459.256 268.552 420.122 256.1 446.499C254.362 439.336 242.587 442.034 238.826 448.393C235.065 454.752 234.27 463.171 228.299 467.587C225.707 469.55 222.407 470.404 219.383 471.61H342.064C339.187 463.77 334.856 455.007 326.598 453.869Z" fill="black"/>
<path d="M154.995 395.894C154.396 391.674 148.592 389.771 147.738 385.581C147.502 384.599 147.639 383.451 147.168 382.509C145.813 379.82 141.738 380.9 139.126 382.342C138.065 378.417 132.428 376.67 129.306 379.232C126.664 381.39 126.36 385.188 125.378 388.436C123.198 396.286 116.864 402.253 110.834 407.787C108.87 409.622 106.533 411.585 103.783 411.712C101.034 411.84 98.1467 408.935 99.4037 406.541C100.268 404.902 102.654 403.95 102.418 402.125C102.094 399.829 98.0485 399.996 97.2531 397.798C98.8439 391.311 106.366 388.632 112.13 385.159C119.174 380.934 124.543 374.411 127.332 366.691C127.803 365.474 128.166 364.031 127.538 362.883C126.674 361.254 124.454 360.989 122.569 360.989C118.13 360.921 112.592 361.51 110.972 365.601C110.107 367.8 110.736 370.292 110.206 372.578C108.654 379.389 99.2073 380.144 93.4429 384.207C91.1941 385.777 89.4364 387.975 86.9519 389.182C84.271 390.467 81.1188 390.369 78.1139 390.595C77.5934 390.595 77.0533 390.693 76.5231 390.762C74.7162 393.241 72.9649 395.789 71.2694 398.406C69.5738 401.023 67.9371 403.656 66.3594 406.305C58.8809 418.953 52.7962 432.374 48.212 446.332C46.5884 451.232 45.1547 456.207 43.9108 461.258C43.0729 464.659 42.3265 468.097 41.6719 471.571H42.6539C43.3118 469.294 43.8028 467.018 44.2153 465.035C44.3233 464.535 44.4215 464.054 44.5197 463.593C45.6195 458.687 47.2398 453.476 51.1187 450.159C54.9976 446.842 61.7931 446.489 64.8078 450.591C66.9584 453.535 66.4674 457.568 65.9076 461.169C65.3479 464.771 64.8078 468.077 64.2481 471.571H73.744C73.6753 471.021 73.6065 470.472 73.5181 469.942C72.9879 466.566 72.3005 463.073 73.6262 459.894C76.9355 452.043 88.6999 453.27 95.5248 448.197C99.7572 445.056 101.652 439.777 104.166 435.165C106.68 430.553 110.893 425.931 116.196 426.157C117.983 426.226 119.741 426.883 121.528 426.814C126.762 426.647 129.816 419.082 126.104 415.422C125.235 414.731 124.453 413.937 123.777 413.057C122.854 411.32 123.846 409.131 125.436 407.915C127.126 406.894 129.035 406.289 131.004 406.148C135.473 405.432 139.95 404.745 144.419 404.058C149.358 403.312 155.682 400.781 154.995 395.894Z" fill="black"/>
<path d="M448.769 454.095C447.983 451.396 447.158 448.717 446.274 446.058C445.391 443.399 444.458 440.769 443.466 438.149C442.405 436.186 441.276 434.224 440.049 432.359C428.422 414.147 411.571 399.869 398.736 382.441C394.562 376.779 391.322 372.098 383.927 370.98C372.998 369.311 367.459 375.474 359.711 365.219C357.62 362.472 353.976 359.911 350.873 361.549C351.669 363.748 352.493 365.936 353.289 368.163C353.493 368.616 353.584 369.111 353.554 369.606C353.387 371.146 351.07 371.568 349.744 370.725C348.418 369.881 347.78 368.301 346.798 367.025C343.351 362.119 335.269 361.52 331.086 365.74C330.989 364.697 330.616 363.699 330.005 362.849C329.394 361.999 328.567 361.327 327.61 360.902C327.178 364.925 322.513 367.908 318.605 366.633C317.976 364.67 321.551 364.268 322.837 362.57C324.124 360.872 322.611 358.733 321.119 357.389C317.087 353.953 312 352 306.703 351.854C303.364 351.795 299.75 352.414 296.834 350.716C295.145 349.735 293.947 348.096 292.228 347.144C288.555 345.083 283.95 346.977 280.238 349.009C275.161 351.795 269.927 355.299 268.14 360.784C266.352 366.269 270.33 373.541 276.094 372.903C277.547 372.707 279.04 372.02 280.503 372.412C282.555 372.972 283.449 375.356 283.645 377.427C283.842 379.497 283.577 381.715 284.627 383.55C285.678 385.385 288.634 386.298 289.793 384.531C292.513 381.98 292.179 377.662 291.482 374.051C290.785 370.44 290.058 366.318 292.248 363.345C294.438 360.372 300.762 361.314 300.33 364.984C300.064 367.143 297.58 368.713 297.678 370.872C297.776 373.031 300.526 374.277 302.785 374.179C305.043 374.081 307.321 373.295 309.511 373.845C311.701 374.395 313.488 377.221 311.898 378.83C309.148 381.901 301.989 376.632 300.565 380.469C300.163 381.45 300.565 382.559 300.467 383.609C300.202 386.818 296.127 387.995 292.876 388.388C289.626 388.78 286.189 389.075 283.233 387.701C280.277 386.327 278.264 382.5 279.953 379.743C278.303 378.565 275.78 379.743 274.886 381.578C273.992 383.413 274.258 385.503 274.523 387.534C271.076 386.788 267.992 389.663 266.038 392.519C264.084 395.374 262.169 398.74 258.821 399.751C255.472 400.762 250.798 399.398 249.05 402.41C246.762 406.335 253.39 411.311 251.073 415.167C249.737 417.365 246.565 417.306 244.041 417.993C237.383 419.858 235.066 429.484 239.603 434.626C244.14 439.768 253.223 439.474 258.025 434.557C261.374 431.182 262.729 426.442 265.145 422.38C267.56 418.317 272.136 414.676 276.713 415.991C278.473 416.644 280.082 417.646 281.446 418.935C283.665 420.77 285.884 422.605 288.104 424.47C289.528 425.647 291.05 427.129 290.952 428.954C290.824 430.436 289.665 431.584 289.164 432.958C287.78 436.883 293.573 440.681 297.217 438.522C300.86 436.363 301.263 430.828 298.778 427.423C295.331 422.703 287.544 420.348 287.74 414.519C291.717 411.311 297.983 414.676 300.3 419.23C302.618 423.783 302.686 429.121 304.641 433.802C306.595 438.483 312.065 442.682 316.631 440.386C315.443 436.324 314.284 432.3 313.086 428.267C316.032 426.108 319.351 432.399 322.827 431.349C324.948 430.691 325.214 427.679 324.281 425.647C323.348 423.616 321.737 421.918 321.335 419.76C320.677 415.766 325.184 412.194 329.259 412.89C333.335 413.587 336.241 417.385 337.007 421.339C337.154 422.943 337.511 424.519 338.068 426.03C339.59 429.17 343.538 430.122 346.778 431.427C350.019 432.732 353.436 435.98 352.081 439.189C351.453 440.602 349.96 441.937 350.49 443.379C350.991 444.655 352.906 445.214 352.906 446.588C352.906 447.51 351.924 448.129 351.05 448.492C348.87 449.375 346.484 449.669 344.363 450.69C342.241 451.71 340.317 453.702 340.484 455.989C340.749 459.266 344.696 460.836 346.552 463.554C348.153 465.87 348.114 468.873 348.899 471.601H373.155C372.281 469.854 371.417 468.117 370.533 466.371C372.497 464.732 375.6 465.389 377.623 467.028C379.096 468.376 380.384 469.914 381.453 471.601H452.903C451.777 465.667 450.399 459.832 448.769 454.095Z" fill="black"/>
</g>
<path d="M240.477 327.498C241.361 325.623 241.577 323.347 243.119 321.953C244.405 320.796 246.311 320.56 247.695 319.52C250.779 317.184 249.492 311.866 246.222 309.795C238.013 304.614 222.9 310.61 215.78 315.683C206.657 322.209 197.731 330.059 185.603 329.294C182.255 329.087 178.778 328.175 175.636 329.343C172.494 330.51 170.569 335.162 173.269 337.134C174.772 338.223 176.903 337.919 178.592 338.694C181.724 340.127 182.039 344.582 180.556 347.663C179.073 350.744 176.274 353.001 174.477 355.906C172.724 358.741 171.932 362.065 172.219 365.385C172.259 366.539 172.531 367.673 173.018 368.72C173.506 369.767 174.199 370.705 175.057 371.479C178.837 374.423 184.582 371.901 187.773 368.319C190.965 364.738 193.184 360.116 197.328 357.663C199.467 356.548 201.761 355.761 204.134 355.327L219.963 351.608C222.477 351.019 225.197 350.293 226.769 348.262C228.733 345.691 228.163 342.011 229.45 339.038C231.551 334.112 238.18 332.345 240.477 327.498Z" fill="#263238"/>
<path d="M326.598 453.865C321.815 453.198 317.18 455.455 312.427 456.308C296.067 459.252 268.552 420.118 256.1 446.495C254.362 439.332 242.587 442.031 238.826 448.389C235.065 454.748 234.27 463.167 228.299 467.583C225.707 469.546 222.407 470.4 219.383 471.607H342.064C339.187 463.766 334.856 455.003 326.598 453.865Z" fill="#263238"/>
<path d="M446.267 446.054C445.383 443.395 444.45 440.765 443.458 438.145C442.398 436.182 441.268 434.22 440.041 432.355C428.414 414.143 411.563 399.865 398.728 382.437C394.555 376.775 391.314 372.094 383.919 370.976C372.99 369.308 367.451 375.47 359.703 365.216C357.612 362.468 353.968 359.907 350.865 361.546C351.661 363.744 352.486 365.932 353.281 368.159C353.485 368.612 353.576 369.107 353.546 369.602C353.379 371.143 351.062 371.565 349.736 370.721C348.41 369.877 347.772 368.297 346.79 367.021C343.343 362.115 335.261 361.516 331.078 365.736C330.981 364.693 330.608 363.695 329.997 362.845C329.386 361.995 328.559 361.323 327.602 360.898C327.17 364.921 322.505 367.904 318.597 366.629C317.968 364.666 321.543 364.264 322.829 362.566C324.116 360.868 322.603 358.729 321.111 357.385C317.079 353.949 311.992 351.996 306.695 351.85C303.356 351.792 299.742 352.41 296.826 350.712C295.137 349.731 293.939 348.092 292.22 347.14C288.548 345.08 283.942 346.973 280.23 349.005C275.153 351.792 269.919 355.295 268.132 360.78C266.345 366.266 270.322 373.537 276.086 372.899C277.539 372.703 279.032 372.016 280.495 372.408C282.548 372.968 283.441 375.352 283.638 377.423C283.834 379.493 283.569 381.711 284.62 383.546C285.67 385.381 288.626 386.294 289.785 384.527C292.505 381.976 292.171 377.658 291.474 374.047C290.777 370.436 290.05 366.315 292.24 363.341C294.43 360.368 300.754 361.31 300.322 364.98C300.057 367.139 297.572 368.709 297.67 370.868C297.769 373.027 300.518 374.273 302.777 374.175C305.035 374.077 307.314 373.292 309.504 373.841C311.693 374.391 313.481 377.217 311.89 378.826C309.14 381.897 301.981 376.628 300.558 380.465C300.155 381.446 300.558 382.555 300.459 383.605C300.194 386.814 296.119 387.991 292.868 388.384C289.618 388.776 286.181 389.071 283.225 387.697C280.269 386.323 278.256 382.496 279.945 379.739C278.296 378.561 275.772 379.739 274.878 381.574C273.985 383.409 274.25 385.499 274.515 387.53C271.068 386.784 267.985 389.659 266.03 392.515C264.076 395.371 262.161 398.736 258.813 399.747C255.464 400.758 250.79 399.394 249.042 402.406C246.754 406.332 253.382 411.307 251.065 415.163C249.729 417.361 246.557 417.302 244.034 417.989C237.376 419.854 235.058 429.48 239.595 434.622C244.132 439.764 253.215 439.47 258.017 434.553C261.366 431.178 262.721 426.438 265.137 422.376C267.552 418.313 272.129 414.673 276.705 415.987C278.465 416.64 280.075 417.642 281.438 418.931C283.657 420.766 285.877 422.601 288.096 424.466C289.52 425.643 291.042 427.125 290.944 428.95C290.816 430.432 289.657 431.58 289.156 432.954C287.772 436.879 293.566 440.677 297.209 438.518C300.852 436.359 301.255 430.825 298.77 427.419C295.323 422.699 287.536 420.344 287.733 414.516C291.71 411.307 297.975 414.673 300.292 419.226C302.61 423.779 302.679 429.117 304.633 433.798C306.587 438.479 312.057 442.679 316.623 440.382C315.435 436.32 314.276 432.296 313.078 428.263C316.024 426.105 319.343 432.395 322.819 431.345C324.941 430.687 325.206 427.675 324.273 425.643C323.34 423.612 321.729 421.914 321.327 419.756C320.669 415.762 325.176 412.19 329.252 412.887C333.327 413.583 336.234 417.381 337 421.335C337.146 422.939 337.503 424.516 338.06 426.026C339.582 429.166 343.53 430.118 346.77 431.423C350.011 432.728 353.428 435.976 352.073 439.185C351.445 440.598 349.952 441.933 350.482 443.375C350.983 444.651 352.898 445.21 352.898 446.584C352.898 447.506 351.916 448.125 351.042 448.488C348.862 449.371 346.476 449.665 344.355 450.686C342.234 451.706 340.309 453.698 340.476 455.985C340.741 459.262 344.689 460.832 346.545 463.551C348.145 465.866 348.106 468.869 348.892 471.597H373.157C372.283 469.85 371.419 468.114 370.535 466.367C372.499 464.728 375.602 465.386 377.625 467.024C379.098 468.373 380.386 469.91 381.455 471.597H452.905C451.779 465.709 450.398 459.884 448.761 454.12C447.975 451.392 447.15 448.713 446.267 446.054Z" fill="#263238"/>
<path d="M377.621 466.996C375.598 465.387 372.485 464.7 370.531 466.338C371.415 468.085 372.279 469.822 373.153 471.569H381.451C380.383 469.882 379.095 468.344 377.621 466.996Z" fill="#455A64"/>
<path d="M73.6458 459.894C76.9551 452.043 88.7195 453.27 95.5444 448.197C99.7768 445.056 101.672 439.777 104.186 435.165C106.7 430.553 110.913 425.931 116.215 426.157C118.003 426.226 119.761 426.883 121.548 426.814C126.782 426.647 129.836 419.082 126.124 415.422C125.254 414.731 124.473 413.937 123.797 413.057C122.873 411.32 123.865 409.131 125.456 407.915C127.146 406.894 129.054 406.289 131.024 406.148C135.492 405.432 139.97 404.745 144.438 404.058C149.348 403.303 155.702 400.781 155.014 395.894C154.415 391.674 148.612 389.771 147.757 385.581C147.522 384.599 147.659 383.451 147.188 382.509C145.833 379.82 141.757 380.9 139.145 382.342C138.085 378.417 132.448 376.67 129.325 379.232C126.684 381.39 126.379 385.188 125.397 388.436C123.217 396.286 116.883 402.253 110.854 407.787C108.89 409.622 106.553 411.585 103.803 411.712C101.053 411.84 98.1663 408.935 99.4233 406.541C100.287 404.902 102.674 403.95 102.438 402.125C102.114 399.829 98.0681 399.996 97.2727 397.798C98.8635 391.311 106.386 388.632 112.15 385.159C119.193 380.934 124.562 374.411 127.351 366.691C127.823 365.474 128.186 364.031 127.558 362.883C126.693 361.254 124.474 360.989 122.589 360.989C118.15 360.921 112.612 361.51 110.991 365.601C110.127 367.8 110.756 370.292 110.225 372.578C108.674 379.389 99.2269 380.144 93.4626 384.207C91.2138 385.777 89.456 387.975 86.9715 389.182C84.2907 390.467 81.1385 390.369 78.1335 390.595C77.6131 390.595 77.073 390.693 76.5427 390.762C74.7227 393.241 72.9649 395.789 71.2694 398.406C69.5738 401.023 67.9371 403.656 66.3594 406.305C58.8809 418.953 52.7962 432.374 48.212 446.332C46.5884 451.232 45.1547 456.207 43.9108 461.258C43.0729 464.659 42.3265 468.097 41.6719 471.571H42.6539C43.3118 469.294 43.8028 467.018 44.2153 465.035C44.3233 464.535 44.4215 464.054 44.5197 463.593C45.6195 458.687 47.2398 453.476 51.1187 450.159C54.9976 446.842 61.7931 446.489 64.8078 450.591C66.9584 453.535 66.4674 457.568 65.9076 461.169C65.3479 464.771 64.8078 468.077 64.2481 471.571H73.744C73.6753 471.021 73.6065 470.472 73.5181 469.942C72.9879 466.566 72.3005 463.034 73.6458 459.894Z" fill="#263238"/>
<path d="M64.8082 450.591C61.7934 446.46 54.9882 446.852 51.1289 450.159C47.2696 453.466 45.6297 458.648 44.5299 463.593C44.4317 464.045 44.3335 464.575 44.2254 465.036C43.813 466.998 43.322 469.295 42.6641 471.571H64.2681C64.818 468.097 65.3712 464.63 65.9276 461.169C66.4677 457.568 66.9587 453.535 64.8082 450.591Z" fill="#455A64"/>
<path d="M198.576 435.526C199.038 432.219 194.373 429.511 190.868 429.226C189.198 429.089 187.47 429.344 185.889 428.794C182.462 427.597 181.087 423.181 177.748 421.768C175.244 420.718 172.367 421.65 169.941 422.867C167.516 424.084 165.119 425.625 162.419 425.811C160.062 425.958 157.509 425.085 155.437 426.233C153.905 427.087 153.1 428.863 151.686 429.903C150.211 430.81 148.507 431.274 146.776 431.238C145.053 431.192 143.337 431.471 141.718 432.062C140.147 432.778 138.851 434.427 139.175 436.115L198.576 435.526Z" fill="#FAFAFA"/>
<path d="M213.849 411.985C214.154 409.728 210.962 407.873 208.566 407.677C207.419 407.718 206.272 407.619 205.149 407.382C202.802 406.558 201.869 403.536 199.581 402.564C197.862 401.848 195.898 402.486 194.239 403.32C192.579 404.154 190.929 405.204 189.083 405.332C187.463 405.43 185.715 404.831 184.301 405.616C183.25 406.205 182.7 407.422 181.728 408.128C180.723 408.757 179.555 409.075 178.37 409.041C177.189 409.015 176.013 409.208 174.903 409.61C174.353 409.825 173.888 410.211 173.575 410.711C173.262 411.211 173.118 411.799 173.165 412.387L213.849 411.985Z" fill="#FAFAFA"/>
<path d="M134.997 305.875C134.997 305.875 134.919 305.944 134.742 306.052L133.976 306.523L131.03 308.299L128.879 309.565L126.356 311.145C124.559 312.302 122.428 313.549 120.267 315.07L116.781 317.444C115.573 318.279 114.365 319.211 113.079 320.133C110.506 321.968 107.884 324.058 105.086 326.296C99.5962 330.8 93.7435 335.991 87.9497 341.8C82.5376 347.321 77.4083 353.111 72.5814 359.149C70.4111 361.965 68.3097 364.605 66.5028 367.206C65.5895 368.491 64.6763 369.718 63.8514 370.934L61.5142 374.447C59.9823 376.655 58.7548 378.755 57.5862 380.571L56.0248 383.102L54.7777 385.271L53.0396 388.264C52.853 388.588 52.6959 388.843 52.578 389.039C52.4602 389.235 52.4111 389.304 52.4013 389.294C52.3914 389.285 52.4013 389.196 52.5289 389.02L52.9512 388.215L54.6009 385.173C54.9741 384.506 55.3767 383.78 55.8088 382.975C56.2409 382.17 56.7908 381.336 57.3407 380.414C58.4504 378.589 59.6582 376.489 61.1705 374.241L63.488 370.709C64.3031 369.482 65.2164 368.256 66.1198 366.96C67.9169 364.35 70.0478 361.691 72.1689 358.855C81.7379 346.703 92.6555 335.674 104.712 325.982C107.521 323.793 110.163 321.674 112.755 319.858C114.041 318.936 115.259 318.004 116.477 317.179L119.992 314.834C122.212 313.294 124.313 312.067 126.13 310.909C127.043 310.35 127.878 309.82 128.673 309.349L130.853 308.122L133.888 306.434L134.683 306.012L134.997 305.875Z" fill="#263238"/>
<path d="M159.176 285.25C158.995 285.349 158.799 285.422 158.597 285.466L156.898 285.996C156.162 286.212 155.258 286.477 154.217 286.83C153.176 287.183 151.978 287.527 150.682 287.998C148.08 288.891 145.016 290.068 141.658 291.481C138.299 292.894 134.685 294.612 130.964 296.574C127.242 298.537 123.824 300.627 120.761 302.589C117.697 304.552 115.026 306.515 112.826 308.134C111.716 308.948 110.744 309.733 109.88 310.41C109.016 311.087 108.289 311.666 107.69 312.167L106.306 313.276C106.156 313.419 105.988 313.542 105.805 313.639C105.939 313.479 106.087 313.331 106.247 313.197L107.562 312.01C108.142 311.499 108.849 310.871 109.703 310.185C110.558 309.498 111.51 308.683 112.649 307.849C114.819 306.142 117.5 304.218 120.505 302.197C123.51 300.175 127.006 298.115 130.728 296.123C134.45 294.131 138.103 292.462 141.471 291.04C144.839 289.617 147.942 288.508 150.574 287.664C151.88 287.203 153.078 286.869 154.129 286.555C155.18 286.241 156.093 285.986 156.839 285.8L158.568 285.368C158.768 285.316 158.971 285.276 159.176 285.25Z" fill="#263238"/>
<path d="M38.4157 390.634C36.6137 389.726 34.6264 389.246 32.6084 389.231C30.5904 389.216 28.5961 389.666 26.7806 390.547C24.9652 391.427 23.3775 392.715 22.1411 394.309C20.9048 395.902 20.053 397.76 19.6521 399.736C19.2512 401.713 19.312 403.755 19.8297 405.704C20.3475 407.653 21.3082 409.456 22.6372 410.974C23.9662 412.492 25.6276 413.682 27.4922 414.454C29.3568 415.225 31.3744 415.556 33.3879 415.421C34.3699 415.352 35.1948 415.068 36.275 414.891L48.7169 412.624C49.087 412.566 49.4378 412.42 49.7405 412.199C50.0431 411.978 50.289 411.688 50.4577 411.354C50.6265 411.019 50.7133 410.65 50.7112 410.275C50.709 409.901 50.6179 409.532 50.4452 409.2L44.946 398.062C44.5327 397.092 44.0672 396.146 43.5516 395.226C42.2857 393.26 40.511 391.673 38.4157 390.634ZM37.6301 404.912C37.1176 405.932 36.3137 406.777 35.3203 407.34C34.3268 407.904 33.1885 408.16 32.0492 408.077C30.9099 407.994 29.8209 407.575 28.92 406.873C28.019 406.171 27.3466 405.218 26.9879 404.135C26.6291 403.051 26.6001 401.885 26.9045 400.785C27.2089 399.685 27.8331 398.699 28.698 397.954C29.5629 397.208 30.6297 396.736 31.7634 396.596C32.8972 396.456 34.0469 396.656 35.0671 397.169C36.4319 397.859 37.4677 399.061 37.9481 400.512C38.4284 401.963 38.3141 403.545 37.6301 404.912Z" fill="#46B2C8"/>
<path d="M357.931 303.641C358.934 301.893 359.521 299.936 359.644 297.925C359.768 295.913 359.425 293.9 358.644 292.042C357.862 290.184 356.662 288.531 355.138 287.211C353.613 285.892 351.804 284.941 349.852 284.434C347.9 283.927 345.857 283.876 343.882 284.285C341.907 284.695 340.053 285.554 338.465 286.796C336.876 288.038 335.596 289.63 334.723 291.447C333.849 293.264 333.407 295.257 333.431 297.273V297.332C333.431 298.313 333.686 299.157 333.804 300.275L335.404 312.807C335.451 313.17 335.581 313.517 335.784 313.821C335.988 314.125 336.259 314.378 336.577 314.56C336.895 314.742 337.251 314.847 337.616 314.868C337.982 314.889 338.348 314.825 338.684 314.681L350.115 309.774C351.119 309.414 352.103 308.998 353.061 308.528C355.09 307.36 356.771 305.673 357.931 303.641ZM343.702 302.091C342.708 301.527 341.904 300.68 341.391 299.659C340.879 298.637 340.682 297.487 340.825 296.353C340.968 295.219 341.444 294.153 342.194 293.291C342.943 292.428 343.932 291.807 345.036 291.507C346.139 291.206 347.306 291.24 348.391 291.603C349.475 291.967 350.426 292.644 351.125 293.548C351.823 294.453 352.238 295.544 352.315 296.684C352.392 297.824 352.129 298.961 351.558 299.952C350.799 301.275 349.546 302.243 348.073 302.644C346.6 303.045 345.028 302.846 343.702 302.091Z" fill="#46B2C8"/>
<path d="M162.336 297.225C161.646 296.215 160.733 295.378 159.667 294.779C158.601 294.18 157.411 293.834 156.189 293.769C154.967 293.704 153.747 293.922 152.624 294.405C151.5 294.888 150.503 295.623 149.71 296.554C148.917 297.485 148.35 298.586 148.052 299.772C147.754 300.957 147.734 302.195 147.993 303.39C148.252 304.585 148.784 305.704 149.546 306.66C150.308 307.616 151.281 308.383 152.388 308.902C152.929 309.157 153.449 309.246 154.078 309.471L161.344 311.905C161.555 311.975 161.779 311.995 162 311.964C162.22 311.933 162.429 311.852 162.613 311.726C162.796 311.601 162.948 311.435 163.057 311.241C163.166 311.048 163.228 310.831 163.24 310.61L163.583 303.083C163.648 302.447 163.678 301.809 163.672 301.17C163.586 299.759 163.125 298.398 162.336 297.225ZM157.731 304.565C157.161 304.956 156.487 305.169 155.796 305.178C155.105 305.187 154.426 304.99 153.846 304.614C153.267 304.237 152.812 303.697 152.539 303.062C152.267 302.427 152.189 301.726 152.315 301.047C152.441 300.367 152.766 299.741 153.249 299.246C153.732 298.751 154.35 298.411 155.027 298.267C155.703 298.124 156.407 298.184 157.049 298.441C157.691 298.697 158.243 299.138 158.634 299.708C158.894 300.086 159.077 300.511 159.172 300.96C159.267 301.409 159.273 301.872 159.189 302.323C159.105 302.774 158.933 303.204 158.683 303.589C158.433 303.974 158.109 304.305 157.731 304.565Z" fill="#46B2C8"/>
<path d="M263.08 416.557C263.081 415.335 262.799 414.13 262.258 413.035C261.717 411.94 260.931 410.984 259.96 410.242C258.99 409.5 257.861 408.991 256.662 408.755C255.462 408.519 254.225 408.563 253.045 408.882C251.866 409.202 250.775 409.789 249.859 410.597C248.944 411.406 248.226 412.415 247.764 413.545C247.301 414.676 247.105 415.897 247.192 417.116C247.278 418.334 247.644 419.516 248.262 420.57C248.566 421.09 248.949 421.453 249.342 421.993L253.957 428.106C254.09 428.285 254.262 428.43 254.461 428.53C254.66 428.63 254.879 428.682 255.102 428.682C255.324 428.682 255.543 428.63 255.742 428.53C255.941 428.43 256.113 428.285 256.246 428.106L260.792 422.091C261.205 421.601 261.592 421.09 261.951 420.56C262.677 419.35 263.067 417.968 263.08 416.557ZM255.126 419.991C254.432 419.993 253.754 419.789 253.176 419.405C252.598 419.022 252.147 418.475 251.88 417.835C251.613 417.195 251.543 416.491 251.677 415.81C251.811 415.13 252.144 414.505 252.634 414.014C253.124 413.523 253.748 413.189 254.429 413.053C255.109 412.917 255.814 412.986 256.456 413.25C257.097 413.515 257.645 413.964 258.03 414.541C258.416 415.117 258.622 415.795 258.622 416.488C258.622 417.415 258.254 418.305 257.599 418.961C256.943 419.618 256.054 419.988 255.126 419.991Z" fill="#46B2C8"/>
<path d="M444.362 391.075C445.301 390.295 446.047 389.309 446.544 388.194C447.04 387.078 447.273 385.864 447.223 384.644C447.174 383.424 446.845 382.233 446.26 381.161C445.676 380.089 444.852 379.166 443.853 378.464C442.854 377.761 441.707 377.298 440.5 377.11C439.293 376.922 438.059 377.015 436.893 377.38C435.728 377.746 434.663 378.375 433.78 379.218C432.897 380.062 432.22 381.097 431.802 382.244C431.596 382.813 431.556 383.343 431.389 383.981L429.641 391.438C429.589 391.655 429.588 391.88 429.639 392.097C429.689 392.314 429.789 392.516 429.931 392.687C430.073 392.859 430.253 392.995 430.457 393.085C430.66 393.174 430.882 393.216 431.105 393.205L438.637 392.852C439.276 392.854 439.915 392.825 440.551 392.763C441.95 392.551 443.265 391.968 444.362 391.075ZM436.614 387.15C436.17 386.62 435.893 385.969 435.82 385.281C435.746 384.594 435.878 383.899 436.2 383.287C436.521 382.674 437.018 382.171 437.626 381.84C438.234 381.51 438.927 381.368 439.616 381.431C440.305 381.494 440.96 381.761 441.498 382.196C442.035 382.632 442.432 383.218 442.636 383.878C442.84 384.539 442.843 385.246 442.645 385.909C442.447 386.572 442.057 387.161 441.524 387.602C440.814 388.192 439.899 388.478 438.979 388.398C438.06 388.317 437.209 387.875 436.614 387.17V387.15Z" fill="#46B2C8"/>
<path d="M473.201 471.568C473.201 471.705 371.25 471.823 245.505 471.823C119.76 471.823 17.7891 471.705 17.7891 471.568C17.7891 471.43 119.721 471.312 245.505 471.312C371.289 471.312 473.201 471.42 473.201 471.568Z" fill="#263238"/>
<path d="M17.5888 458.285L17.2396 458.634L10.5292 465.442L2.79688 469.475L10.0949 489.098L20.6374 490.417C20.6374 490.417 20.1946 487.797 15.281 485.856L16.2007 475.687L26.5559 466.812" fill="#46B2C8"/>
<g opacity="0.6">
<path d="M2.76562 469.477L10.0636 489.108L20.6062 490.419L19.6184 488.691L11.1026 487.143L4.41768 468.617L2.76562 469.477Z" fill="white"/>
</g>
<path d="M19.5018 473.313C19.3741 473.313 19.1527 472.701 18.5481 472.199C17.9435 471.696 17.2963 471.543 17.3048 471.416C17.3133 471.288 18.1564 471.211 18.8546 471.841C19.5529 472.471 19.6296 473.313 19.5018 473.313Z" fill="#263238"/>
<path d="M21.1501 471.313C20.8264 470.952 20.562 470.541 20.3666 470.096C20.1282 469.645 19.8898 469.186 19.6343 468.718C19.4629 468.435 19.3338 468.128 19.2511 467.807C19.2199 467.587 19.2714 467.362 19.3958 467.178C19.4722 467.073 19.5774 466.994 19.6984 466.949C19.8194 466.903 19.951 466.894 20.0771 466.922C20.4376 467.04 20.7568 467.259 20.9968 467.552C21.2182 467.81 21.4043 468.096 21.5503 468.403C21.7922 468.898 21.9147 469.443 21.908 469.994C21.9606 470.499 21.8105 471.004 21.4907 471.398C21.5503 470.936 21.5787 470.469 21.5759 470.003C21.5344 469.512 21.3955 469.035 21.1671 468.599C21.0309 468.345 20.862 468.111 20.6647 467.901C20.4815 467.685 20.2473 467.519 19.9834 467.416C19.9452 467.404 19.9044 467.404 19.8663 467.417C19.8283 467.429 19.7948 467.452 19.7705 467.484C19.7154 467.573 19.6942 467.679 19.7109 467.782C19.781 468.056 19.8869 468.319 20.026 468.565C20.2389 469.05 20.4518 469.518 20.6647 469.986C20.8977 470.399 21.0617 470.847 21.1501 471.313Z" fill="#263238"/>
<path d="M21.5227 471.68C21.4716 471.68 21.5823 471.119 22.238 470.557C22.6787 470.185 23.2286 469.966 23.8048 469.934C24.3809 469.902 24.9519 470.058 25.4314 470.378C25.4783 470.433 25.5132 470.497 25.5338 470.566C25.5543 470.635 25.5601 470.707 25.5506 470.778C25.5261 470.9 25.467 471.013 25.3803 471.102C25.2537 471.213 25.1134 471.307 24.963 471.383C24.7067 471.517 24.4388 471.628 24.1626 471.714C23.698 471.865 23.2116 471.937 22.7234 471.927C22.2758 471.973 21.8252 471.874 21.4375 471.646C21.4375 471.57 21.9399 471.646 22.7149 471.604C23.1628 471.56 23.6034 471.46 24.0263 471.306C24.2718 471.214 24.5107 471.106 24.7416 470.983C24.8483 470.926 24.9483 470.857 25.0397 470.778C25.1078 470.693 25.0908 470.719 25.0397 470.685C24.954 470.616 24.8557 470.563 24.7501 470.532C24.6259 470.486 24.4976 470.452 24.3669 470.43C24.1184 470.373 23.8623 470.359 23.609 470.387C23.1755 470.426 22.7593 470.576 22.3998 470.821C21.7696 471.246 21.5227 471.714 21.5227 471.68Z" fill="#263238"/>
<g opacity="0.6">
<path d="M11.2222 470.198C11.1917 470.446 11.0886 470.678 10.9259 470.867C10.7632 471.055 10.5482 471.192 10.3081 471.258C10.0679 471.325 9.81345 471.319 9.57678 471.241C9.3401 471.163 9.13186 471.016 8.97837 470.82C8.82489 470.624 8.73304 470.387 8.71445 470.139C8.69586 469.89 8.75135 469.642 8.87391 469.425C8.99648 469.208 9.18063 469.033 9.40307 468.92C9.62551 468.808 9.87626 468.764 10.1236 468.794C10.2881 468.814 10.4469 468.867 10.5912 468.948C10.7354 469.029 10.8621 469.138 10.9642 469.269C11.0662 469.399 11.1415 469.549 11.1858 469.708C11.23 469.868 11.2424 470.034 11.2222 470.198Z" fill="white"/>
</g>
<path d="M85.5 468.912L91.5888 490.186L118.064 482.757C117.213 480.272 102.08 479.038 102.08 479.038L98.7335 465.27L85.5 468.912Z" fill="#46B2C8"/>
<path d="M99.8773 472.733C99.4763 472.974 99.0168 473.101 98.5488 473.099C98.0483 473.162 97.542 473.162 97.0415 473.099C96.7539 473.055 96.4695 472.992 96.1899 472.912C96.0187 472.869 95.8551 472.8 95.7045 472.707C95.5923 472.641 95.506 472.538 95.4596 472.416C95.4132 472.294 95.4095 472.16 95.449 472.035C95.4888 471.927 95.5534 471.83 95.6378 471.752C95.7221 471.673 95.8238 471.616 95.9345 471.584C96.1001 471.535 96.2725 471.512 96.4454 471.516C96.7501 471.503 97.0553 471.52 97.3566 471.567C97.8604 471.643 98.349 471.798 98.8043 472.027C99.5792 472.418 99.9198 472.878 99.8858 472.878C99.8517 472.878 99.4259 472.622 98.668 472.325C98.2269 472.156 97.7662 472.045 97.297 471.993C97.0138 471.965 96.7286 471.965 96.4454 471.993C96.1388 471.993 95.9004 472.069 95.8663 472.214C95.8323 472.359 95.8663 472.282 95.9345 472.35C96.0465 472.414 96.1668 472.463 96.2921 472.495C96.5721 472.578 96.8564 472.646 97.1437 472.699C97.6126 472.787 98.0888 472.83 98.5658 472.827C99.0005 472.767 99.4385 472.736 99.8773 472.733Z" fill="#263238"/>
<path d="M99.7348 472.971C99.6922 472.971 99.309 472.605 99.028 471.788C98.8639 471.303 98.7861 470.793 98.7981 470.282C98.8066 469.981 98.8436 469.682 98.9088 469.388C98.9303 469.193 99.0019 469.006 99.1168 468.847C99.2317 468.687 99.3859 468.56 99.5645 468.478C99.684 468.447 99.8098 468.451 99.9273 468.488C100.045 468.526 100.149 468.596 100.229 468.69C100.339 468.828 100.431 468.98 100.501 469.141C100.628 469.433 100.706 469.743 100.731 470.06C100.797 470.575 100.735 471.098 100.552 471.584C100.229 472.434 99.7007 472.724 99.7007 472.681C99.7007 472.639 100.016 472.256 100.229 471.481C100.348 471.038 100.371 470.573 100.297 470.12C100.254 469.857 100.174 469.602 100.058 469.362C99.9392 469.09 99.7689 468.894 99.6752 468.954C99.5815 469.014 99.3771 469.26 99.326 469.516C99.2641 469.782 99.2214 470.052 99.1983 470.324C99.1726 470.793 99.2127 471.262 99.3175 471.72C99.5219 472.486 99.8029 472.928 99.7348 472.971Z" fill="#263238"/>
<path d="M84.1992 328.242C84.9827 329.825 97.6541 412.173 97.6541 412.173L107.141 467.613L85.732 473.135L73.2905 417.712L63.6251 364.102L59.3672 334.582L84.1992 328.242Z" fill="#263238"/>
<path d="M75.269 341.875L74.4174 403.765C74.5581 412.978 71.2543 421.911 65.1522 428.818L27.0185 470.83L9.67188 453.649L47.3883 406.982L43.2751 346.921L75.269 341.875Z" fill="#263238"/>
<path d="M74.1545 347.191C74.1659 347.279 74.1659 347.368 74.1545 347.455V348.23C74.1545 348.936 74.2142 349.932 74.2567 351.208C74.3249 353.761 74.3844 357.539 74.4185 362.168C74.5122 371.427 74.3674 384.208 74.6059 398.326C74.6484 401.857 74.8358 405.304 74.691 408.648C74.6288 410.292 74.4524 411.93 74.163 413.549C74.0143 414.34 73.8006 415.117 73.5244 415.873C73.2233 416.594 72.8821 417.299 72.5025 417.983C71.0565 420.507 69.4226 422.92 67.6144 425.199C65.9113 427.352 64.3188 429.301 62.82 431.062C59.8054 434.577 57.2848 437.351 55.5646 439.282L53.5889 441.512L53.0694 442.099C53.0168 442.168 52.9569 442.231 52.8906 442.286C52.8906 442.286 52.8906 442.21 53.0354 442.065L53.5208 441.461C53.9466 440.925 54.5853 440.15 55.4283 439.172C57.1315 437.206 59.6011 434.398 62.5816 430.858C64.0633 429.088 65.6728 427.131 67.3249 424.978C69.1025 422.703 70.7134 420.303 72.1448 417.796C73.7798 415.183 74.0864 411.924 74.2567 408.631C74.4271 405.338 74.2056 401.866 74.163 398.334C73.9246 384.208 74.1205 371.427 74.1034 362.168C74.1034 357.565 74.1034 353.829 74.1034 351.208C74.1034 349.94 74.1034 348.944 74.1034 348.23C74.1034 347.906 74.1034 347.651 74.1034 347.455C74.1064 347.365 74.1236 347.276 74.1545 347.191Z" fill="#455A64"/>
<path d="M53.1008 401.66C52.0754 402.962 50.9354 404.17 49.6944 405.268C48.5706 406.478 47.3393 407.583 46.0156 408.57C48.1531 406.059 50.5131 403.747 53.0667 401.66H53.1008Z" fill="#455A64"/>
<path d="M78.9996 276.171L91.8669 300.356L121.672 295.25L125.411 310.831L90.6918 319.86C89.097 320.361 87.3966 320.422 85.7696 320.038C84.2181 319.675 82.7857 318.921 81.6093 317.846C80.433 316.772 79.552 315.414 79.0507 313.903L66.3792 280.988C65.2211 277.992 62.8196 271.823 65.187 269.653L62.8281 267.194C66.6687 263.56 76.5045 270.427 78.9996 276.171Z" fill="#46B2C8"/>
<path d="M89.6524 310.573C89.3334 310.111 89.1184 309.586 89.0223 309.033C88.7169 307.71 88.7114 306.336 89.006 305.011C89.3007 303.685 89.8882 302.443 90.7254 301.374C91.0481 300.916 91.4629 300.531 91.9432 300.242C91.9943 300.293 91.5429 300.736 90.9809 301.561C89.5083 303.729 88.926 306.38 89.3544 308.965C89.4814 309.495 89.5809 310.032 89.6524 310.573Z" fill="#263238"/>
<path d="M87.4167 337.414C89.6904 335.976 92.8668 336.92 94.7233 338.869C96.5797 340.818 97.4142 343.507 98.07 346.119C99.1608 350.467 99.9265 354.89 100.361 359.352C100.617 360.911 100.535 362.507 100.122 364.032C99.7408 365.073 99.0979 365.998 98.2554 366.72C97.4128 367.441 96.3989 367.934 95.3109 368.15C94.2174 368.339 93.0954 368.28 92.0281 367.977C90.9607 367.673 89.9755 367.133 89.1454 366.397C86.2075 363.802 85.6625 359.505 85.2963 355.599L83.6953 338.086" fill="#46B2C8"/>
<g opacity="0.4">
<path d="M87.4167 337.414C89.6904 335.976 92.8668 336.92 94.7233 338.869C96.5797 340.818 97.4142 343.507 98.07 346.119C99.1608 350.467 99.9265 354.89 100.361 359.352C100.617 360.911 100.535 362.507 100.122 364.032C99.7408 365.073 99.0979 365.998 98.2554 366.72C97.4128 367.441 96.3989 367.934 95.3109 368.15C94.2174 368.339 93.0954 368.28 92.0281 367.977C90.9607 367.673 89.9755 367.133 89.1454 366.397C86.2075 363.802 85.6625 359.505 85.2963 355.599L83.6953 338.086" fill="black"/>
</g>
<path d="M96.4037 367.947C96.4037 367.947 95.8587 368.151 95.169 367.564C94.7791 367.201 94.5063 366.73 94.3855 366.211C94.2152 365.624 94.1045 364.96 93.9512 364.229C93.3636 361.293 92.5887 357.234 91.7626 352.749C90.9366 348.264 90.1957 344.188 89.6933 341.244C89.4548 339.823 89.2675 338.691 89.1142 337.747C89.0271 337.32 88.9759 336.888 88.9609 336.453C89.1096 336.861 89.218 337.283 89.2845 337.713L89.9999 341.184C90.5875 344.12 91.3624 348.179 92.1969 352.672C93.0315 357.166 93.7553 361.225 94.2578 364.177C94.394 364.909 94.4792 365.59 94.6239 366.152C94.7221 366.633 94.952 367.078 95.2882 367.437C95.5836 367.739 95.9813 367.921 96.4037 367.947Z" fill="#263238"/>
<path d="M96.0323 366.524C96.0919 366.626 95.8279 366.864 95.4192 366.924C95.0104 366.983 94.6868 366.83 94.7124 366.711C94.7379 366.592 95.0189 366.532 95.351 366.49C95.6832 366.447 95.9812 366.413 96.0323 366.524Z" fill="#263238"/>
<path d="M98.4992 347.66C96.2755 348.687 93.8632 349.243 91.4141 349.294C92.5648 348.917 93.7437 348.633 94.9396 348.443C96.104 348.09 97.2941 347.828 98.4992 347.66Z" fill="#263238"/>
<path d="M100.322 356.188C99.2255 356.77 98.0352 357.156 96.8052 357.328C95.5954 357.615 94.3449 357.69 93.1094 357.549C94.2973 357.25 95.5034 357.028 96.7201 356.885C97.9054 356.579 99.1084 356.346 100.322 356.188Z" fill="#263238"/>
<path d="M90.0336 336.723L73.8706 269.122L72.8828 268.535L76.9789 292.719L87.0361 337.948L90.0336 336.723Z" fill="#263238"/>
<path d="M42.6232 270.714C36.69 269.405 30.5041 269.845 24.8167 271.982C22.2619 272.935 19.7753 274.322 18.3447 276.62C16.6415 279.326 16.8118 282.747 16.88 285.938C17.0186 292.434 16.5797 298.93 15.5685 305.348C14.7169 310.692 13.4907 315.994 13.3289 321.398C13.1671 326.801 14.1805 332.46 17.442 336.766C22.4578 343.429 31.7059 345.556 40.0003 344.722C44.4033 344.417 48.6612 343.022 52.3908 340.663C56.0185 338.195 58.8202 334.29 59.263 329.924" fill="#46B2C8"/>
<g opacity="0.5">
<path d="M42.6232 270.714C36.69 269.405 30.5041 269.845 24.8167 271.982C22.2619 272.935 19.7753 274.322 18.3447 276.62C16.6415 279.326 16.8118 282.747 16.88 285.938C17.0186 292.434 16.5797 298.93 15.5685 305.348C14.7169 310.692 13.4907 315.994 13.3289 321.398C13.1671 326.801 14.1805 332.46 17.442 336.766C22.4578 343.429 31.7059 345.556 40.0003 344.722C44.4033 344.417 48.6612 343.022 52.3908 340.663C56.0185 338.195 58.8202 334.29 59.263 329.924" fill="black"/>
</g>
<path d="M31.9979 278.594C31.1921 279.482 30.5025 280.468 29.9456 281.53C29.3647 282.694 28.8778 283.904 28.4894 285.146C28.0226 286.691 27.4536 288.204 26.7862 289.673C26.1028 291.175 25.0656 292.489 23.7631 293.503C22.6779 294.325 21.3436 294.752 19.9821 294.711C19.0653 294.684 18.1768 294.388 17.4274 293.86C17.2262 293.718 17.0431 293.553 16.8824 293.366C16.7716 293.239 16.7206 293.171 16.7376 293.162C16.7546 293.154 17.0016 293.392 17.521 293.715C18.2687 294.156 19.1224 294.386 19.9906 294.379C21.2724 294.376 22.5163 293.944 23.5247 293.154C24.7512 292.161 25.7331 290.901 26.3945 289.469C27.0444 288.012 27.613 286.521 28.0976 285.001C28.5114 283.745 29.0328 282.526 29.656 281.359C30.0827 280.573 30.6157 279.848 31.24 279.206C31.4589 278.964 31.7146 278.757 31.9979 278.594Z" fill="#E0E0E0"/>
<path d="M27.4869 343.9C27.4336 343.729 27.405 343.552 27.4017 343.373C27.362 342.97 27.3109 342.459 27.2485 341.841C27.1207 340.505 26.9675 338.582 26.7971 336.199C26.448 331.425 26.0563 324.839 25.7752 317.546C25.4942 310.253 25.392 303.65 25.375 298.876C25.375 296.485 25.375 294.553 25.375 293.217C25.375 292.587 25.375 292.077 25.4176 291.677C25.3934 291.499 25.3934 291.319 25.4176 291.141C25.4506 291.317 25.4649 291.497 25.4602 291.677C25.4602 292.077 25.4601 292.587 25.5112 293.217C25.5112 294.604 25.5794 296.527 25.622 298.867C25.7156 303.65 25.8774 310.245 26.1499 317.529C26.4224 324.813 26.7716 331.408 27.0015 336.174C27.1378 338.522 27.24 340.428 27.3166 341.824L27.3847 343.364C27.4358 343.539 27.47 343.719 27.4869 343.9Z" fill="#E0E0E0"/>
<path d="M25.7937 314.692C23.8652 315.022 21.9067 315.145 19.9519 315.058C17.9917 315.114 16.0309 314.966 14.1016 314.615C14.1016 314.488 16.7244 314.615 19.9519 314.615C23.1794 314.615 25.7937 314.564 25.7937 314.692Z" fill="#E0E0E0"/>
<path d="M23.6749 314.879C23.7345 314.879 23.9559 315.304 24.1773 316.079C24.3112 316.531 24.4137 316.991 24.4839 317.457C24.541 317.76 24.5264 318.072 24.4413 318.368C24.3818 318.554 24.2697 318.719 24.1187 318.842C23.9676 318.966 23.7839 319.044 23.5897 319.066C23.4834 319.079 23.3754 319.069 23.2736 319.035C23.1719 319.001 23.0791 318.944 23.0021 318.87C22.8685 318.735 22.7794 318.563 22.7467 318.376C22.699 318.095 22.699 317.807 22.7467 317.525C22.8104 317.055 22.9159 316.59 23.0617 316.138C23.3087 315.364 23.5727 314.938 23.6238 314.964C23.581 315.389 23.4925 315.809 23.3598 316.215C23.2656 316.662 23.1973 317.113 23.1554 317.568C23.1177 317.819 23.1177 318.074 23.1554 318.325C23.1554 318.555 23.3343 318.683 23.5216 318.657C23.9815 318.598 24.1092 318.036 24.024 317.542C23.9389 317.049 23.8963 316.572 23.8282 316.181C23.7242 315.755 23.6727 315.318 23.6749 314.879Z" fill="#E0E0E0"/>
<path d="M46.9839 254.215H22.3307C17.8204 254.215 14.1641 257.869 14.1641 262.376V264.384C14.1641 268.891 17.8204 272.545 22.3307 272.545H46.9839C51.4942 272.545 55.1505 268.891 55.1505 264.384V262.376C55.1505 257.869 51.4942 254.215 46.9839 254.215Z" fill="#455A64"/>
<path d="M21.25 254.591C21.25 254.591 21.3266 254.523 21.5055 254.446C21.7585 254.339 22.0249 254.268 22.2974 254.233C23.3161 254.116 24.3448 254.343 25.2184 254.88C26.547 255.594 27.6589 256.652 28.4373 257.944C29.332 259.551 29.8147 261.355 29.8424 263.194C29.9586 265.043 29.5229 266.885 28.5906 268.487C27.8205 269.789 26.6789 270.832 25.312 271.482C24.3971 271.919 23.3963 272.145 22.3826 272.146C22.1113 272.152 21.8401 272.13 21.5736 272.078C21.4774 272.068 21.3829 272.045 21.2926 272.01C21.2926 272.01 21.6843 272.01 22.3826 272.01C23.3534 271.941 24.3004 271.678 25.1673 271.236C26.4536 270.577 27.5214 269.56 28.2415 268.308C29.118 266.756 29.5206 264.981 29.3996 263.203C29.3683 261.446 28.9188 259.722 28.0882 258.173C27.3524 256.931 26.3082 255.899 25.0566 255.178C24.2456 254.643 23.285 254.381 22.3145 254.429C21.6247 254.455 21.267 254.633 21.25 254.591Z" fill="#263238"/>
<path d="M37.086 254.148L32.8281 254.225C33.9923 254.44 35.0407 255.065 35.7831 255.987C36.5143 256.913 37.0423 257.983 37.333 259.127C37.9193 261.56 37.8077 264.11 37.0109 266.483C36.2142 268.857 34.7646 270.958 32.8281 272.546L36.277 272.597C36.277 272.597 45.0227 262.743 37.1286 254.148" fill="#263238"/>
<path d="M39.7436 347.117C39.0964 341.39 38.8921 319.095 38.8921 319.095C38.0405 308.713 37.6828 297.378 37.0697 289.83C36.4906 282.733 33.706 274.862 37.0697 272.811C49.0855 265.305 53.0879 265.603 53.0879 265.603L59.5343 265.688C67.1985 266.267 72.9041 271.449 74.0112 278.546L88.488 344.726L39.7436 347.117Z" fill="#46B2C8"/>
<path d="M85.7357 330.264C85.661 330.116 85.6066 329.959 85.5739 329.796C85.4802 329.439 85.3524 328.945 85.1992 328.426C84.8756 327.235 84.4413 325.499 83.9133 323.321C82.8488 319.066 81.4522 313.109 79.996 306.523C78.5398 299.936 77.2965 293.971 76.4279 289.639C76.0106 287.521 75.6785 285.785 75.4316 284.534C75.3294 283.964 75.2442 283.504 75.1846 283.138C75.1458 282.976 75.1258 282.811 75.125 282.645C75.1964 282.795 75.2451 282.956 75.2698 283.121L75.6019 284.5L76.7345 289.605C77.6882 293.971 78.9912 299.902 80.4303 306.454C81.8695 313.007 83.232 318.921 84.2113 323.278C84.6882 325.388 85.0629 327.116 85.3695 328.384L85.659 329.779C85.7073 329.937 85.7331 330.1 85.7357 330.264Z" fill="#263238"/>
<path d="M45.8886 241.461C45.8754 242.003 45.6982 242.528 45.3805 242.967C45.0628 243.406 44.6194 243.738 44.1087 243.92C43.08 244.267 42.0268 244.538 40.9579 244.729C40.4253 244.829 39.9227 245.05 39.4888 245.374C39.0548 245.699 38.7009 246.118 38.4543 246.601C38.3027 246.99 38.2653 247.414 38.3467 247.824C38.428 248.234 38.6246 248.612 38.9134 248.914C39.2021 249.216 39.5711 249.429 39.977 249.529C40.3829 249.629 40.8089 249.611 41.2049 249.477C40.8898 249.671 40.6191 249.928 40.4104 250.233C40.2017 250.538 40.0597 250.884 39.9937 251.248C39.9277 251.611 39.9391 251.985 40.0273 252.344C40.1154 252.703 40.2783 253.039 40.5053 253.331C40.7323 253.623 41.0183 253.863 41.3446 254.037C41.6709 254.211 42.0303 254.314 42.3992 254.34C42.7682 254.366 43.1384 254.314 43.4858 254.187C43.8332 254.06 44.1499 253.862 44.4153 253.604C43.1209 255.306 43.9044 257.995 45.7438 259.05C46.6956 259.524 47.767 259.703 48.8212 259.565C49.8754 259.427 50.8645 258.978 51.6623 258.276C53.2411 256.83 54.2348 254.856 54.4554 252.728C54.6697 250.62 54.624 248.493 54.3192 246.397" fill="#263238"/>
<path d="M66.8125 260.299C67.2145 260.753 67.7453 261.073 68.3341 261.217C68.923 261.362 69.5418 261.323 70.1081 261.107C70.6744 260.89 71.1612 260.506 71.5036 260.006C71.8459 259.506 72.0275 258.914 72.0242 258.308C72.723 258.707 73.5405 258.845 74.3317 258.699C75.1229 258.553 75.8369 258.132 76.3469 257.51C76.857 256.888 77.1303 256.106 77.1184 255.302C77.1066 254.498 76.8103 253.724 76.282 253.117C76.5106 253.22 76.7577 253.277 77.0085 253.282C77.2592 253.288 77.5085 253.243 77.7415 253.15C77.9744 253.057 78.1862 252.918 78.3642 252.741C78.5421 252.565 78.6826 252.354 78.7772 252.122C78.9396 251.641 78.988 251.13 78.9185 250.628C78.8491 250.126 78.6636 249.647 78.3769 249.228C77.8575 248.377 73.7273 246.505 73.7273 243.672C73.7273 237.434 72.8757 237.987 72.5181 233.137" fill="#263238"/>
<path d="M46.8835 238.65L48.8933 267.157C49.0526 269.4 50.0566 271.5 51.7031 273.033C53.3496 274.566 55.5162 275.419 57.7667 275.42C58.9857 275.422 60.1922 275.175 61.3115 274.692C62.4307 274.21 63.4388 273.502 64.2732 272.614C65.1076 271.726 65.7505 270.676 66.162 269.53C66.5736 268.383 66.745 267.164 66.6657 265.949C66.4869 263.243 66.3251 261.013 66.3251 261.013C66.3251 261.013 73.2314 259.941 73.3165 253.04C73.3676 249.057 72.6778 240.011 72.0903 233.085C71.8961 230.824 70.8599 228.719 69.1867 227.186C67.5135 225.653 65.3252 224.803 63.055 224.805H58.8908C57.1837 224.901 55.5134 225.338 53.9787 226.092C52.444 226.845 51.0762 227.898 49.9565 229.189C48.8367 230.48 47.9878 231.983 47.4599 233.608C46.9321 235.233 46.7361 236.948 46.8835 238.65Z" fill="#FFBE9D"/>
<path d="M66.3137 260.92C63.1266 260.978 59.9939 260.09 57.3125 258.367C57.3125 258.367 59.4414 263.337 66.3307 262.716L66.3137 260.92Z" fill="#EB996E"/>
<path d="M70.5219 241.951C70.5221 242.208 70.423 242.455 70.2453 242.64C70.0675 242.826 69.8249 242.935 69.5681 242.946C69.4426 242.956 69.3164 242.94 69.1971 242.9C69.0778 242.859 68.9677 242.796 68.8733 242.713C68.7789 242.629 68.7021 242.528 68.6474 242.415C68.5927 242.302 68.5612 242.178 68.5547 242.053C68.5524 241.796 68.6511 241.549 68.8295 241.364C69.0079 241.18 69.2517 241.072 69.5085 241.066C69.6336 241.055 69.7596 241.07 69.8788 241.109C69.9981 241.148 70.1083 241.211 70.2028 241.294C70.2973 241.376 70.3743 241.477 70.4291 241.59C70.4839 241.703 70.5155 241.825 70.5219 241.951Z" fill="#263238"/>
<path d="M70.9238 240.003C70.796 240.131 70.0722 239.578 68.9907 239.586C67.9092 239.595 67.1513 240.114 67.0406 239.986C66.9299 239.858 67.1087 239.697 67.4408 239.45C67.9011 239.132 68.448 238.962 69.0077 238.965C69.5619 238.964 70.1018 239.14 70.5491 239.467C70.8301 239.714 70.9238 239.943 70.9238 240.003Z" fill="#263238"/>
<path d="M60.5375 241.951C60.5377 242.208 60.4386 242.455 60.2609 242.64C60.0832 242.826 59.8405 242.935 59.5837 242.946C59.4582 242.956 59.3321 242.94 59.2128 242.9C59.0934 242.859 58.9834 242.796 58.889 242.713C58.7946 242.629 58.7178 242.528 58.6631 242.415C58.6083 242.302 58.5768 242.178 58.5704 242.053C58.568 241.796 58.6667 241.549 58.8451 241.364C59.0235 241.18 59.2674 241.072 59.5241 241.066C59.6492 241.055 59.7752 241.07 59.8944 241.109C60.0137 241.148 60.1239 241.211 60.2184 241.294C60.3129 241.376 60.3899 241.477 60.4447 241.59C60.4995 241.703 60.5311 241.825 60.5375 241.951Z" fill="#263238"/>
<path d="M60.4402 240.202C60.3125 240.33 59.5887 239.785 58.5072 239.785C57.4256 239.785 56.6678 240.321 56.557 240.185C56.4463 240.049 56.6167 239.896 56.9573 239.649C57.4168 239.33 57.9649 239.163 58.5242 239.172C59.0774 239.169 59.6172 239.342 60.0655 239.666C60.3891 239.913 60.4999 240.151 60.4402 240.202Z" fill="#263238"/>
<path d="M64.2915 248.072C64.8423 247.891 65.4153 247.785 65.9946 247.757C66.2672 247.757 66.5226 247.672 66.5737 247.493C66.5937 247.212 66.5316 246.931 66.3949 246.685L65.5859 244.626C64.8454 242.877 64.2445 241.073 63.7891 239.23C64.67 240.916 65.416 242.669 66.0202 244.472C66.287 245.199 66.5425 245.888 66.7866 246.54C66.956 246.868 67.0072 247.243 66.9314 247.604C66.8909 247.7 66.8293 247.786 66.7512 247.855C66.6731 247.924 66.5804 247.975 66.4801 248.004C66.3298 248.043 66.1753 248.063 66.0202 248.063C65.4465 248.137 64.8659 248.14 64.2915 248.072Z" fill="#263238"/>
<path d="M61.1703 248.812C61.3491 248.812 61.3491 249.953 62.3369 250.77C63.3248 251.587 64.5425 251.459 64.551 251.621C64.5596 251.782 64.2785 251.842 63.7591 251.859C63.0862 251.867 62.4318 251.638 61.9112 251.212C61.408 250.803 61.0842 250.214 61.0085 249.57C60.9659 249.085 61.0936 248.812 61.1703 248.812Z" fill="#263238"/>
<path d="M60.7024 236.048C60.6002 236.337 59.5358 236.201 58.2925 236.346C57.0491 236.49 56.0443 236.839 55.874 236.584C55.8058 236.456 55.9762 236.184 56.3849 235.903C56.9285 235.564 57.5416 235.352 58.1786 235.283C58.8155 235.214 59.4599 235.289 60.0637 235.503C60.5321 235.682 60.762 235.912 60.7024 236.048Z" fill="#263238"/>
<path d="M70.4911 236.896C70.3037 237.143 69.5714 236.896 68.6943 236.896C67.8171 236.896 67.0677 237.058 66.8974 236.803C66.8208 236.683 66.94 236.445 67.2636 236.215C67.6977 235.933 68.2109 235.795 68.7283 235.824C69.2434 235.829 69.7438 235.996 70.159 236.301C70.4741 236.573 70.5762 236.82 70.4911 236.896Z" fill="#263238"/>
<path d="M49.2109 243.835C49.0917 243.784 44.4676 242.431 44.6209 247.146C44.7742 251.86 49.4749 250.745 49.4834 250.609C49.492 250.473 49.2109 243.835 49.2109 243.835Z" fill="#FFBE9D"/>
<path d="M47.9818 248.864C47.9818 248.864 47.8966 248.924 47.7604 248.992C47.6632 249.032 47.559 249.053 47.4538 249.053C47.3486 249.053 47.2444 249.032 47.1473 248.992C46.8373 248.807 46.5819 248.544 46.4069 248.228C46.2319 247.913 46.1436 247.557 46.1509 247.196C46.127 246.793 46.1909 246.39 46.3383 246.013C46.3799 245.864 46.4565 245.727 46.5616 245.613C46.6667 245.499 46.7974 245.412 46.9429 245.358C47.0359 245.332 47.1352 245.339 47.2237 245.378C47.3122 245.416 47.3846 245.485 47.4283 245.571C47.4964 245.699 47.4709 245.801 47.4964 245.801C47.522 245.801 47.5986 245.724 47.556 245.528C47.5237 245.413 47.455 245.312 47.3601 245.239C47.2255 245.148 47.061 245.111 46.9003 245.137C46.7037 245.176 46.521 245.267 46.3713 245.4C46.2216 245.533 46.1102 245.704 46.0487 245.894C45.8596 246.307 45.7748 246.76 45.8018 247.213C45.7912 247.635 45.9061 248.05 46.132 248.406C46.358 248.762 46.6846 249.043 47.0706 249.213C47.1986 249.245 47.3318 249.248 47.4612 249.223C47.5906 249.198 47.713 249.145 47.82 249.068C47.9733 248.975 47.9988 248.873 47.9818 248.864Z" fill="#EB996E"/>
<path d="M46.5837 243.706C47.0328 243.677 47.4815 243.77 47.8819 243.975C48.2823 244.18 48.6195 244.49 48.8574 244.872C49.164 245.544 49.2321 246.31 49.5387 246.982C49.6646 247.327 49.8984 247.621 50.2052 247.822C50.5121 248.023 50.8757 248.119 51.2419 248.097C51.4878 248.021 51.709 247.881 51.8826 247.691C52.0563 247.501 52.1761 247.268 52.2297 247.016C52.3235 246.513 52.3235 245.997 52.2297 245.493C51.9487 243.289 51.4888 241.111 51.3781 238.89C51.2015 236.66 51.6873 234.428 52.7747 232.474C53.3322 231.51 54.1384 230.713 55.109 230.167C56.0796 229.621 57.1791 229.344 58.2929 229.368C59.7662 229.487 61.1116 230.218 62.5508 230.457C63.4191 230.572 64.3023 230.488 65.1331 230.211C65.964 229.934 66.7205 229.471 67.3452 228.857C67.4985 228.704 68.2394 228.219 68.2394 228.219C68.217 227.693 68.0425 227.184 67.7369 226.755C64.8501 224.083 59.6384 223.351 55.8148 224.296C53.873 224.775 52.0585 225.67 50.497 226.919C48.9354 228.167 47.6641 229.741 46.7711 231.529C45.1275 235.112 45.6129 240.09 46.5241 243.706" fill="#263238"/>
<path d="M72.1391 232.022C72.1391 232.022 54.0175 226.193 46.183 241.859C45.5815 239.898 45.1876 237.878 45.0078 235.835C45.0078 234.431 45.8594 226.074 54.4518 223.445C54.4518 223.445 67.4214 218.501 72.1391 232.022Z" fill="#46B2C8"/>
<path d="M56.5793 232.415C56.9012 232.933 57.3389 233.369 57.8581 233.689C58.3772 234.009 58.9635 234.205 59.571 234.26C60.1785 234.315 60.7906 234.229 61.359 234.008C61.9274 233.787 62.4368 233.437 62.8469 232.986C63.0274 233.435 63.3442 233.818 63.7529 234.079C64.1617 234.34 64.6418 234.466 65.1262 234.441C65.6106 234.416 66.0749 234.24 66.4541 233.937C66.8334 233.635 67.1085 233.222 67.2411 232.756C67.7334 233.301 68.3336 233.739 69.0038 234.041C69.3422 234.184 69.7162 234.219 70.0756 234.143C70.4349 234.067 70.7622 233.883 71.0135 233.615C71.2181 233.302 71.3168 232.931 71.2954 232.558C71.2739 232.184 71.1334 231.827 70.8943 231.539C70.3975 230.977 69.764 230.552 69.0549 230.305C66.9136 229.371 64.5649 229.013 62.2423 229.267C59.9121 229.56 57.781 230.728 56.2812 232.535" fill="#263238"/>
<g opacity="0.4">
<path d="M72.1391 232.022C70.6294 230.437 68.5621 229.5 66.3739 229.41C61.026 229.172 51.0455 232.175 46.183 241.859C45.5815 239.898 45.1876 237.878 45.0078 235.835C45.0078 234.431 45.8594 226.074 54.4518 223.445C54.4518 223.445 67.4214 218.501 72.1391 232.022Z" fill="black"/>
</g>
<path d="M46.9453 240.022C49.6922 235.934 53.2916 232.488 57.4964 229.921C61.6606 227.325 68.5669 224.756 73.2931 223.496C74.6958 223.028 76.1837 222.871 77.6532 223.037C78.3877 223.127 79.0814 223.424 79.6542 223.892C80.2269 224.361 80.6551 224.982 80.8892 225.683C81.3405 227.47 78.1642 230.227 76.6739 231.316C75.2123 232.287 73.7 233.179 72.1435 233.988C72.1435 233.988 72.1435 230.67 66.8722 229.989C59.6423 229.061 46.9453 240.022 46.9453 240.022Z" fill="#46B2C8"/>
<path d="M96.71 320.838C96.71 320.838 111.809 320.446 115.385 313.375L95.5859 314.022L96.71 320.838Z" fill="#FFBE9D"/>
<path d="M73.3069 269.457C73.3069 340.691 39.6184 345.542 39.6184 345.542L39.4141 342.002C73.1536 329.11 69.5259 267.117 69.5259 267.117C69.5259 267.117 73.3069 267.73 73.3069 269.457Z" fill="#455A64"/>
<path d="M29.0471 346.619L39.3277 340.688L46.5406 353.172L36.26 359.103C35.4581 359.565 34.5051 359.691 33.6106 359.451C32.7162 359.212 31.9536 358.627 31.4906 357.826L27.7734 351.392C27.3104 350.591 27.185 349.638 27.4246 348.745C27.6643 347.851 28.2495 347.089 29.0514 346.626L29.0471 346.619Z" fill="#263238"/>
<path d="M29.5058 351.999L23.2188 356.09L26.5319 361.174L32.8189 357.083L29.5058 351.999Z" fill="#263238"/>
<path d="M20.5839 356.541L24.1949 354.191C24.3692 354.078 24.5641 354 24.7686 353.962C24.9731 353.924 25.1831 353.926 25.3866 353.969C25.5901 354.012 25.7831 354.095 25.9547 354.212C26.1263 354.33 26.273 354.48 26.3865 354.654L29.1327 358.868C29.2462 359.043 29.3243 359.237 29.3624 359.442C29.4006 359.646 29.3981 359.856 29.3551 360.059C29.3121 360.263 29.2294 360.456 29.1118 360.627C28.9942 360.798 28.844 360.945 28.6697 361.058L25.0373 363.422L20.5625 356.555L20.5839 356.541Z" fill="#263238"/>
<path d="M29.1442 346.578L28.9569 346.348C28.7935 346.138 28.6778 345.895 28.6177 345.636C28.5576 345.376 28.5546 345.107 28.6089 344.846C28.6631 344.586 28.7734 344.34 28.932 344.126C29.0905 343.913 29.2937 343.736 29.5274 343.608L32.5079 341.991C32.7233 341.874 32.9741 341.838 33.2138 341.891C33.4534 341.945 33.6656 342.083 33.8108 342.281L34.6624 343.387L29.1442 346.578Z" fill="#263238"/>
<path d="M20.6216 356.123L19.8438 356.629L24.6253 363.967L25.4031 363.461L20.6216 356.123Z" fill="#263238"/>
<path d="M25.2988 363.281C24.996 362.998 24.7274 362.681 24.4983 362.336C24.03 361.732 23.4254 360.873 22.7952 359.894C22.165 358.916 21.6285 358.005 21.2709 357.341C21.0532 356.99 20.8734 356.616 20.7344 356.227C21.0008 356.543 21.2347 356.885 21.4327 357.248L23.0251 359.758L24.6601 362.234C24.9029 362.564 25.1166 362.914 25.2988 363.281Z" fill="#455A64"/>
<path d="M29.4717 359.439C29.4035 359.439 28.85 358.179 27.9303 356.733C27.0106 355.286 26.0994 354.231 26.159 354.18C26.9598 354.861 27.6369 355.676 28.1602 356.588C28.7629 357.453 29.2069 358.418 29.4717 359.439Z" fill="#455A64"/>
<path d="M32.012 352.68C31.3385 353.255 30.6081 353.759 29.8319 354.186C29.1034 354.688 28.3277 355.119 27.5156 355.471C28.1894 354.894 28.9198 354.386 29.6957 353.956C30.4242 353.456 31.2 353.029 32.012 352.68Z" fill="#455A64"/>
<path d="M32.962 353.93C32.2421 354.516 31.4696 355.034 30.6543 355.478C29.8868 355.995 29.0711 356.437 28.2188 356.797C28.9387 356.211 29.7112 355.693 30.5265 355.249C31.2917 354.728 32.1077 354.286 32.962 353.93Z" fill="#455A64"/>
<path d="M33.0975 355.898C32.4913 356.425 31.8253 356.879 31.1133 357.251C30.4456 357.7 29.7319 358.077 28.9844 358.375C29.5947 357.849 30.2633 357.395 30.9771 357.022C31.6424 356.574 32.3532 356.197 33.0975 355.898Z" fill="#455A64"/>
<path d="M32.3841 357.564C32.6283 357.212 32.8338 356.836 32.9973 356.44C33.1847 355.964 33.252 355.45 33.1932 354.942C33.1343 354.434 32.9512 353.948 32.66 353.527C32.3688 353.107 31.9784 352.764 31.5233 352.53C31.0683 352.296 30.5625 352.178 30.0508 352.185C29.6198 352.198 29.1914 352.258 28.7734 352.364C28.7734 352.364 28.8756 352.279 29.0885 352.185C29.3968 352.07 29.7219 352.007 30.0508 351.998C30.6027 351.964 31.154 352.073 31.6513 352.315C32.1486 352.556 32.5751 352.922 32.8895 353.376C33.2039 353.831 33.3954 354.359 33.4456 354.909C33.4958 355.459 33.403 356.013 33.1761 356.517C33.057 356.83 32.8809 357.119 32.6566 357.368C32.5034 357.504 32.3927 357.581 32.3841 357.564Z" fill="#455A64"/>
<path d="M29.4609 344.41C29.6143 344.798 29.7935 345.177 29.9974 345.541L33.0972 343.737L32.5436 342.699L29.4609 344.41Z" fill="#FAFAFA"/>
<path d="M29.9889 345.557C29.7833 345.191 29.6068 344.81 29.4609 344.417L32.5522 342.715L33.1142 343.762L29.9889 345.557ZM29.478 344.417C29.6244 344.797 29.798 345.167 29.9974 345.523L33.0801 343.727L32.5351 342.715L29.478 344.417Z" fill="#455A64"/>
<path d="M41.3466 356.373C41.3466 356.373 41.1592 356.586 40.7079 356.492C40.2566 356.398 39.8052 355.896 39.4476 355.258L36.45 350.254C36.1434 349.778 35.905 349.259 35.5984 348.859C35.4608 348.662 35.2726 348.506 35.0539 348.408C34.8351 348.309 34.5937 348.271 34.3551 348.297C33.8682 348.351 33.3761 348.26 32.9415 348.033C32.5753 347.819 32.2794 347.503 32.0899 347.123C31.9587 346.845 31.8906 346.541 31.8906 346.234C31.8906 345.926 31.9587 345.622 32.0899 345.344C32.1599 345.197 32.2486 345.06 32.3539 344.936C32.4306 344.859 32.4731 344.817 32.4817 344.825C32.3727 345.007 32.2732 345.195 32.1836 345.387C32.0494 345.714 32.0063 346.071 32.0588 346.42C32.1113 346.77 32.2576 347.099 32.482 347.372C32.7064 347.645 33.0006 347.852 33.3334 347.972C33.6662 348.091 34.0251 348.118 34.3722 348.05C34.6438 348.03 34.9169 348.067 35.1727 348.161C35.4329 348.282 35.6585 348.466 35.8284 348.697C36.1775 349.14 36.3989 349.65 36.6799 350.127C37.787 352.024 38.7833 353.743 39.6009 355.164C39.9585 355.82 40.3332 356.305 40.7335 356.398C40.9354 356.455 41.1501 356.446 41.3466 356.373Z" fill="#455A64"/>
<path d="M43.2798 346.918C43.6463 347.424 43.9494 347.972 44.1825 348.552C44.6849 349.598 45.3832 350.994 46.0645 352.662C46.145 352.889 46.1797 353.131 46.1666 353.372C46.1534 353.613 46.0927 353.849 45.9879 354.066C45.785 354.448 45.4929 354.775 45.1363 355.019C44.5482 355.383 43.9157 355.669 43.2543 355.87C42.6874 356.069 42.1556 356.356 41.6789 356.721C41.6107 356.721 42.0365 356.006 43.1351 355.547C43.75 355.312 44.3381 355.013 44.8893 354.653C45.2127 354.47 45.464 354.182 45.6017 353.837C45.7395 353.492 45.7556 353.111 45.6472 352.756C44.7399 350.86 43.9493 348.91 43.2798 346.918Z" fill="#455A64"/>
<path d="M36.9844 326.894C36.9844 326.894 49.196 315.678 52.0999 307.433C55.0038 299.187 54.6546 292.6 51.7933 284.338C49.9028 278.883 43.7544 273.803 38.3043 271.879C40.1976 270.605 42.1911 269.487 44.2654 268.535C44.2654 268.535 58.0609 276.194 60.0962 290.66C62.7446 309.713 55.8298 324.673 36.9844 326.894Z" fill="#263238"/>
<path d="M44.1604 275.421C39.1446 272.51 36.939 272.715 37.0412 272.766C33.9926 274.893 30.5181 279.114 30.8502 287.232C31.1909 295.648 34.0181 311.91 36.2748 323.738C36.6243 325.583 37.3462 327.337 38.3965 328.893C39.4468 330.45 40.8034 331.776 42.3836 332.791C43.9638 333.807 45.7345 334.49 47.5875 334.798C49.4405 335.107 51.3371 335.036 53.1616 334.588L97.2137 323.832L95.6213 314.02L55.4268 314.599L51.1689 286.16C51.1689 286.16 48.4609 277.914 44.1604 275.421Z" fill="#46B2C8"/>
<path d="M36.3835 324.242C36.3835 324.242 36.4261 324.353 36.4857 324.565C36.5453 324.778 36.639 325.102 36.7837 325.518C37.1928 326.734 37.7812 327.881 38.5295 328.922C39.7336 330.545 41.3346 331.831 43.1791 332.658C45.6465 333.729 48.3066 334.285 50.9966 334.292C52.5603 334.328 54.1243 334.231 55.6717 334.003C56.4925 333.86 57.3054 333.675 58.1072 333.449L60.662 332.811L71.6814 330.037L97.1692 323.655L97.0074 323.902C96.6582 321.8 96.292 319.562 95.9173 317.307C95.7385 316.226 95.5597 315.145 95.3894 314.09L95.6108 314.277L55.4163 314.813H55.263V314.669C54.5136 310.15 54.0197 306.006 53.5598 302.355C53.1 298.705 52.7082 295.548 52.3335 292.995C51.9589 290.442 51.5756 288.4 51.3202 287.038C51.1924 286.374 51.0903 285.864 51.0221 285.489C50.954 285.115 50.937 284.953 50.937 284.953C50.937 284.953 50.9881 285.132 51.0732 285.481L51.4309 287.021C51.7204 288.382 52.1207 290.425 52.5379 292.978C52.9552 295.531 53.3895 298.722 53.8494 302.338C54.3092 305.955 54.8287 310.116 55.6036 314.626L55.4248 314.473L95.6108 313.852H95.8066V314.039C95.9855 315.094 96.1643 316.166 96.3431 317.247C96.7093 319.511 97.084 321.749 97.4246 323.851V324.046L97.2288 324.097L71.7751 330.386L60.7046 333.118L58.1498 333.747C57.3371 333.973 56.5127 334.155 55.6803 334.292C54.1121 334.512 52.5283 334.6 50.9455 334.556C48.2197 334.535 45.527 333.956 43.0343 332.854C41.1651 331.996 39.551 330.668 38.3506 328.999C37.6135 327.957 37.0393 326.809 36.6475 325.595C36.5197 325.17 36.4516 324.846 36.4005 324.625C36.3737 324.499 36.368 324.37 36.3835 324.242Z" fill="#263238"/>
<path d="M75.125 314.439L129.43 313.333C130.387 313.313 131.304 312.952 132.018 312.316C132.732 311.679 133.194 310.808 133.322 309.861L136.251 288.264C136.328 287.697 136.282 287.12 136.117 286.572C135.952 286.024 135.672 285.517 135.296 285.086C134.919 284.655 134.455 284.309 133.934 284.072C133.413 283.835 132.847 283.712 132.274 283.711H103.321C102.318 283.711 101.351 284.087 100.612 284.765C99.8727 285.442 99.4142 286.372 99.3268 287.37L97.4108 308.644L77.5435 311.699C76.8788 311.791 76.2691 312.118 75.8253 312.621C75.3815 313.123 75.133 313.769 75.125 314.439Z" fill="#455A64"/>
<path d="M109.483 291.988C109.143 292.252 103.156 300.37 103.156 300.37L105.924 300.047L103.667 306.48L111.136 297.077H108.351L109.483 291.988Z" fill="#F5F5F5"/>
<path d="M108.816 293.324C108.484 293.597 104.133 299.775 104.133 299.775L106.619 299.451L104.133 305.578L110.188 297.536H107.761L108.816 293.324Z" fill="#46B2C8"/>
<path d="M104.642 294.132C105.747 294.132 106.643 293.237 106.643 292.133C106.643 291.028 105.747 290.133 104.642 290.133C103.537 290.133 102.641 291.028 102.641 292.133C102.641 293.237 103.537 294.132 104.642 294.132Z" fill="#F5F5F5"/>
<path d="M104.631 293.903C105.609 293.903 106.402 293.111 106.402 292.133C106.402 291.156 105.609 290.363 104.631 290.363C103.652 290.363 102.859 291.156 102.859 292.133C102.859 293.111 103.652 293.903 104.631 293.903Z" fill="#263238"/>
<path d="M118.703 300.668C119.587 300.668 120.304 299.952 120.304 299.069C120.304 298.185 119.587 297.469 118.703 297.469C117.818 297.469 117.102 298.185 117.102 299.069C117.102 299.952 117.818 300.668 118.703 300.668Z" fill="#F5F5F5"/>
</g>
<defs>
<clipPath id="clip0_6002_21128">
<rect width="491" height="472" fill="white"/>
</clipPath>
</defs>
</svg>
