<svg width="564" height="376" viewBox="0 0 564 376" fill="none" xmlns="http://www.w3.org/2000/svg">
<path d="M530.468 357.824C530.468 357.937 419.217 358.02 282.015 358.02C144.812 358.02 33.5312 357.952 33.5312 357.824C33.5312 357.697 144.76 357.629 282.015 357.629C419.27 357.629 530.468 357.719 530.468 357.824Z" fill="#263238"/>
<path d="M83.7352 336.339C83.7352 336.339 80.5542 314.493 80.8249 301.785C81.0957 289.076 80.8249 274.78 80.8249 274.78H82.2838C82.2838 274.78 81.2912 300.002 82.3741 315.223C83.4569 330.443 86.292 336.339 86.292 336.339H83.7502" fill="#3B802A"/>
<path d="M93.2014 250.198C92.9677 249.423 92.5001 248.74 91.8628 248.243C90.9379 247.656 89.7196 247.904 88.6819 248.243C84.2601 249.807 80.3347 258.056 78.5449 262.395L84.418 282.188C95.0212 272.374 96.8561 259.44 93.2014 250.198Z" fill="#0AA06E"/>
<path d="M91.5246 249.047C91.5046 249.135 91.4743 249.221 91.4344 249.303C91.3592 249.491 91.2689 249.731 91.1486 250.055C90.8929 250.679 90.532 251.559 90.0958 252.709C89.231 254.965 88.1331 258.093 87.148 261.635C86.1629 265.177 85.4936 268.441 85.0724 270.81C84.8619 271.998 84.704 272.96 84.6062 273.622C84.5536 273.938 84.516 274.186 84.4784 274.374C84.4689 274.464 84.4487 274.552 84.4182 274.637C84.4101 274.547 84.4101 274.457 84.4182 274.367C84.4182 274.164 84.4633 273.908 84.5009 273.615C84.5686 272.938 84.704 271.975 84.892 270.78C85.3866 267.674 86.057 264.598 86.8998 261.568C87.7362 258.539 88.7405 255.559 89.9078 252.641C90.359 251.528 90.7501 250.626 91.0358 250.017C91.1637 249.731 91.2765 249.498 91.3592 249.318C91.3993 249.219 91.4552 249.128 91.5246 249.047Z" fill="#3B802A"/>
<path d="M81.8094 286.956C79.1439 285.431 76.9144 283.247 75.3344 280.613C73.7544 277.98 72.8767 274.985 72.7854 271.916C72.5748 267.524 73.9284 263.215 75.455 259.094C75.5492 258.721 75.7697 258.391 76.0791 258.162C76.3289 258.069 76.5982 258.042 76.8614 258.083C77.1246 258.124 77.373 258.231 77.5831 258.395C81.5838 260.651 84.0127 265.012 85.2987 269.434C86.2228 272.365 86.53 275.455 86.2011 278.511C85.7019 281.725 84.1742 284.691 81.847 286.963" fill="#0AA06E"/>
<path d="M81.8086 286.956C81.799 286.868 81.799 286.78 81.8086 286.692C81.8086 286.489 81.8086 286.234 81.8086 285.94C81.8086 285.286 81.8086 284.331 81.7259 283.158C81.5696 280.092 81.2306 277.039 80.7107 274.014C80.0941 270.464 79.3571 267.291 78.8082 264.99C78.5374 263.869 78.3194 262.952 78.1614 262.275C78.0862 261.974 78.0336 261.734 77.9885 261.523C77.9635 261.437 77.9483 261.349 77.9434 261.26C77.9839 261.338 78.0142 261.422 78.0336 261.508L78.2517 262.26C78.4322 262.892 78.6803 263.817 79.0037 264.96C79.5978 267.216 80.3648 270.419 80.9739 273.984C81.5041 277.018 81.8232 280.086 81.929 283.166C81.929 284.346 81.929 285.301 81.929 285.963C81.929 286.271 81.929 286.519 81.929 286.715C81.9009 286.801 81.8604 286.882 81.8086 286.956Z" fill="#3B802A"/>
<g opacity="0.3">
<path d="M81.8094 286.956C79.1439 285.431 76.9144 283.247 75.3344 280.613C73.7544 277.98 72.8767 274.985 72.7854 271.916C72.5748 267.524 73.9284 263.215 75.455 259.094C75.5492 258.721 75.7697 258.391 76.0791 258.162C76.3289 258.069 76.5982 258.042 76.8614 258.083C77.1246 258.124 77.373 258.231 77.5831 258.395C81.5838 260.651 84.0127 265.012 85.2987 269.434C86.2228 272.365 86.53 275.455 86.2011 278.511C85.7019 281.725 84.1742 284.691 81.847 286.963" fill="black"/>
</g>
<path d="M88.0215 320.352C93.4434 321.548 97.9028 325.368 103.129 327.225C106.588 328.458 110.499 328.887 113.259 331.308C112.597 329.632 111.003 328.519 109.499 327.548C105.196 324.857 100.602 322.662 95.8047 321.006C93.3456 320.156 90.6836 319.449 88.1719 320.149" fill="#0AA06E"/>
<path d="M80.1859 325.203C73.4179 325.097 66.2588 319.322 59.5059 318.976C66.5747 316.72 76.6966 318.555 80.1859 325.203Z" fill="#0AA06E"/>
<path d="M82.8398 308.929C86.3378 307.778 90.0679 307.519 93.6912 308.177C97.2944 308.838 100.836 309.799 104.279 311.049C103.926 308.696 102.023 306.928 100.234 305.364C98.923 304.14 97.4977 303.044 95.9773 302.093C94.449 301.139 92.6803 300.641 90.8787 300.657C89.7987 300.727 88.7438 301.014 87.7773 301.501C86.8108 301.988 85.9525 302.665 85.2538 303.492C83.8787 304.987 83.0309 306.891 82.8398 308.914" fill="#0AA06E"/>
<path d="M68.9126 301.439C64.6714 297.792 58.1741 298.145 52.5566 298.273C61.5775 302.568 70.0861 307.866 77.9216 314.065C78.1547 310.109 74.312 306.064 68.9126 301.439Z" fill="#0AA06E"/>
<g opacity="0.3">
<path d="M68.9126 301.439C64.6714 297.792 58.1741 298.145 52.5566 298.273C61.5775 302.568 70.0861 307.866 77.9216 314.065C78.1547 310.109 74.312 306.064 68.9126 301.439Z" fill="black"/>
</g>
<path d="M84.757 296.4C86.8438 294.956 89.0415 293.678 91.3295 292.58C93.5855 291.565 95.676 289.933 97.8493 288.76C100.662 287.256 103.113 285.113 105.685 283.225C108.257 281.338 111.107 279.631 114.273 279.127C111.669 278.663 108.993 278.818 106.46 279.578C103.936 280.338 101.477 281.296 99.1051 282.443C95.7738 283.947 92.3823 285.451 89.66 287.918C86.9378 290.384 84.4712 292.76 84.757 296.4Z" fill="#0AA06E"/>
<path d="M103.024 325.202C102.95 325.182 102.879 325.152 102.814 325.112L102.22 324.804C101.708 324.533 100.979 324.127 100.054 323.668C99.5951 323.428 99.0913 323.172 98.5499 322.916C98.0084 322.661 97.4143 322.375 96.7827 322.104C95.4359 321.501 94.0395 321.015 92.6091 320.653C91.1891 320.257 89.6935 320.219 88.255 320.54C87.6288 320.68 87.0131 320.863 86.4126 321.089C85.8893 321.293 85.3858 321.545 84.9086 321.841C84.2194 322.273 83.5899 322.794 83.0361 323.39C82.6451 323.811 82.4495 324.067 82.4345 324.052C82.4195 324.037 82.4345 323.977 82.5548 323.856C82.6751 323.736 82.7804 323.548 82.9609 323.322C83.5004 322.699 84.1229 322.153 84.8108 321.698C85.2875 321.386 85.7908 321.117 86.3148 320.894C86.9221 320.648 87.5483 320.452 88.1873 320.307C89.6582 319.966 91.1908 319.997 92.6467 320.397C94.0928 320.771 95.5022 321.274 96.8579 321.901C97.4895 322.182 98.0761 322.46 98.6175 322.736C99.1665 322.999 99.6703 323.262 100.122 323.488C101.039 323.969 101.761 324.398 102.257 324.691L102.829 325.037C102.942 325.15 103.024 325.195 103.024 325.202Z" fill="#3B802A"/>
<path d="M75.1233 321.855C75.2716 321.878 75.4159 321.921 75.552 321.983C75.9314 322.117 76.3008 322.278 76.6574 322.465C77.8415 323.055 78.9334 323.815 79.8985 324.721C80.8603 325.644 81.6789 326.706 82.3275 327.871C82.5225 328.223 82.6982 328.584 82.8539 328.954C82.9211 329.087 82.9668 329.229 82.9892 329.375C82.9892 329.375 82.696 328.819 82.1771 327.954C81.4963 326.836 80.6749 325.81 79.7331 324.901C78.7862 323.992 77.7244 323.211 76.5747 322.577C75.6948 322.111 75.1083 321.855 75.1233 321.855Z" fill="#3B802A"/>
<path d="M60.1133 301.093C60.2116 301.112 60.3075 301.142 60.399 301.183L61.2187 301.469L62.5046 301.943C63.001 302.131 63.5424 302.401 64.159 302.695C67.3417 304.168 70.3134 306.059 72.995 308.319C74.4578 309.577 75.8346 310.931 77.116 312.373C78.1528 313.557 79.1267 314.794 80.0338 316.08C80.7858 317.178 81.4024 318.088 81.801 318.72L82.2672 319.472C82.3282 319.553 82.3787 319.641 82.4176 319.735C82.3426 319.666 82.2769 319.588 82.2221 319.502C82.1093 319.344 81.9363 319.111 81.7258 318.795C81.2971 318.178 80.688 317.291 79.8984 316.2C79.1088 315.11 78.1162 313.869 76.943 312.546C75.6624 311.118 74.2909 309.774 72.8371 308.523C70.1686 306.277 67.2277 304.377 64.0838 302.867C63.4822 302.589 62.9408 302.303 62.452 302.115L61.1811 301.551L60.384 301.221L60.1133 301.093Z" fill="#3B802A"/>
<path d="M93.0214 305.116C92.8389 305.109 92.6575 305.084 92.48 305.041L91.8558 304.928C91.6152 304.883 91.3294 304.883 91.0211 304.846C89.4109 304.709 87.7948 305.03 86.3587 305.771C85.5681 306.178 84.8473 306.709 84.223 307.342C83.706 307.85 83.2493 308.415 82.8619 309.027C82.5092 309.599 82.1952 310.195 81.9219 310.809C81.9509 310.629 81.9988 310.453 82.0648 310.283C82.2344 309.813 82.4511 309.362 82.7115 308.937C83.0885 308.299 83.5432 307.71 84.0651 307.184C84.6943 306.527 85.4257 305.976 86.2308 305.553C87.7039 304.788 89.373 304.484 91.0211 304.68C91.3037 304.702 91.585 304.739 91.8633 304.793L92.4875 304.951C92.6723 304.981 92.852 305.037 93.0214 305.116Z" fill="#3B802A"/>
<path d="M99.8424 283.955C99.7629 284.017 99.6772 284.069 99.5867 284.113L98.8347 284.527C98.173 284.88 97.2255 285.406 96.0749 286.083C94.9243 286.76 93.5858 287.587 92.1495 288.64C90.5815 289.736 89.112 290.966 87.7578 292.317C87.06 293.01 86.4557 293.791 85.9605 294.641C85.5168 295.498 85.0957 296.318 84.7047 297.115C83.998 298.509 83.3679 299.939 82.8171 301.401C82.4543 302.386 82.148 303.39 81.8997 304.409C81.7267 305.161 81.6666 305.545 81.644 305.545C81.6291 305.445 81.6291 305.344 81.644 305.244C81.644 305.049 81.7117 304.755 81.7869 304.387C81.9977 303.35 82.2817 302.33 82.6367 301.334C83.1667 299.856 83.7819 298.409 84.4791 297.002C84.8701 296.205 85.2912 295.37 85.7274 294.521C86.2279 293.646 86.8452 292.844 87.5623 292.137C88.923 290.774 90.4056 289.538 91.9915 288.445C93.4429 287.422 94.8115 286.587 95.9696 285.918C97.1277 285.249 98.0978 284.76 98.7671 284.414L99.5191 284.045C99.6235 284.004 99.7319 283.974 99.8424 283.955Z" fill="#3B802A"/>
<path d="M80.8178 304.5C80.7444 304.317 80.6988 304.125 80.6824 303.929C80.5997 303.515 80.5019 302.989 80.3816 302.364C80.0564 300.644 79.6296 298.944 79.1032 297.273C78.554 295.609 77.9062 293.98 77.163 292.393C76.8998 291.814 76.6742 291.325 76.5013 290.934C76.4068 290.763 76.3335 290.581 76.2832 290.393C76.4007 290.55 76.5015 290.718 76.584 290.896C76.7645 291.227 77.0202 291.709 77.336 292.318C78.1324 293.89 78.8062 295.522 79.3514 297.198C79.8886 298.877 80.2983 300.594 80.5771 302.334C80.6824 302.996 80.7576 303.538 80.7952 303.914C80.8229 304.108 80.8305 304.304 80.8178 304.5Z" fill="#3B802A"/>
<path d="M80.3196 289.061C80.1085 286.492 79.3577 283.996 78.1163 281.737C76.4416 278.626 74.1061 275.921 71.2739 273.81C68.4418 271.698 65.1817 270.233 61.7227 269.517C66.7861 277.037 71.8446 284.577 76.898 292.137L78.8607 296.167C80.0966 294.016 80.608 291.525 80.3196 289.061Z" fill="#0AA06E"/>
<path d="M102.09 333.64H66.8066V339.896H102.09V333.64Z" fill="#46B2C8"/>
<path d="M69.4395 338.648L72.4475 358.058H95.8723L99.4518 338.648H69.4395Z" fill="#46B2C8"/>
<path d="M102.069 339.904C102.069 339.971 94.1124 340.031 84.2988 340.031C74.4852 340.031 66.5215 339.971 66.5215 339.904C66.5215 339.836 74.4776 339.783 84.2988 339.783C94.1199 339.783 102.069 339.828 102.069 339.904Z" fill="#3B802A"/>
<path d="M221.193 354.771C214.853 356.173 208.271 356.056 201.985 354.432C195.698 352.807 189.884 349.72 185.017 345.423C180.149 341.125 176.366 335.738 173.976 329.701C171.585 323.664 170.654 317.148 171.26 310.683C171.865 304.218 173.989 297.988 177.459 292.5C180.929 287.011 185.646 282.42 191.227 279.101C196.808 275.782 203.094 273.828 209.572 273.399C216.051 272.97 222.54 274.077 228.51 276.631C236.538 280.06 243.269 285.95 247.734 293.452C252.198 300.953 254.166 309.679 253.352 318.37C252.538 327.062 248.985 335.27 243.205 341.812C237.426 348.354 229.718 352.892 221.193 354.771ZM204.025 276.992C195.087 278.975 187.153 284.086 181.65 291.403C176.148 298.72 173.441 307.762 174.016 316.898C174.592 326.035 178.412 334.666 184.788 341.234C191.165 347.803 199.678 351.878 208.794 352.725C217.909 353.571 227.027 351.134 234.505 345.851C241.982 340.569 247.326 332.789 249.574 323.915C251.822 315.041 250.826 305.655 246.765 297.45C242.704 289.245 235.846 282.761 227.427 279.165C220.045 276.013 211.861 275.253 204.025 276.992Z" fill="#455A64"/>
<path d="M221.193 354.771C214.853 356.173 208.271 356.056 201.985 354.432C195.698 352.807 189.884 349.72 185.017 345.423C180.149 341.125 176.366 335.738 173.976 329.701C171.585 323.664 170.654 317.148 171.26 310.683C171.865 304.218 173.989 297.988 177.459 292.5C180.929 287.011 185.646 282.42 191.227 279.101C196.808 275.782 203.094 273.828 209.572 273.399C216.051 272.97 222.54 274.077 228.51 276.631C236.538 280.06 243.269 285.95 247.734 293.452C252.198 300.953 254.166 309.679 253.352 318.37C252.538 327.062 248.985 335.27 243.205 341.812C237.426 348.354 229.718 352.892 221.193 354.771ZM204.025 276.992C195.087 278.975 187.153 284.086 181.65 291.403C176.148 298.72 173.441 307.762 174.016 316.898C174.592 326.035 178.412 334.666 184.788 341.234C191.165 347.803 199.678 351.878 208.794 352.725C217.909 353.571 227.027 351.134 234.505 345.851C241.982 340.569 247.326 332.789 249.574 323.915C251.822 315.041 250.826 305.655 246.765 297.45C242.704 289.245 235.846 282.761 227.427 279.165C220.045 276.013 211.861 275.253 204.025 276.992Z" fill="#263238"/>
<path d="M219.78 356.493C213.44 357.894 206.858 357.777 200.572 356.151C194.285 354.526 188.472 351.439 183.605 347.14C178.738 342.842 174.956 337.455 172.566 331.418C170.176 325.381 169.246 318.865 169.852 312.4C170.458 305.935 172.582 299.705 176.053 294.217C179.523 288.729 184.241 284.139 189.822 280.82C195.403 277.501 201.688 275.548 208.167 275.119C214.646 274.691 221.135 275.798 227.104 278.353C235.132 281.783 241.863 287.673 246.327 295.175C250.791 302.677 252.758 311.403 251.943 320.095C251.129 328.786 247.575 336.995 241.794 343.536C236.014 350.078 228.305 354.615 219.78 356.493ZM202.612 278.714C193.668 280.695 185.726 285.806 180.218 293.126C174.71 300.445 171.998 309.492 172.571 318.634C173.144 327.776 176.964 336.414 183.342 342.988C189.72 349.563 198.238 353.643 207.359 354.493C216.48 355.343 225.604 352.906 233.087 347.623C240.57 342.339 245.92 334.556 248.171 325.677C250.423 316.797 249.428 307.406 245.367 299.195C241.306 290.984 234.445 284.494 226.021 280.895C218.637 277.742 210.451 276.98 202.612 278.714Z" fill="#455A64"/>
<path d="M314.66 353.959L313.998 355.659C313.404 357.163 310.764 357.576 309.132 356.93L247.408 332.903L250.514 324.917L312.148 348.928C314.148 349.756 315.419 352.004 314.66 353.959Z" fill="#455A64"/>
<path d="M229.135 300.635C229.203 300.717 221.367 307.177 211.636 315.058C201.905 322.939 193.957 329.271 193.889 329.181C193.821 329.09 201.65 322.638 211.388 314.757C221.127 306.876 229.068 300.552 229.135 300.635Z" fill="#263238"/>
<path d="M218.449 298.243C218.517 298.326 212.719 303.259 205.507 309.253C198.295 315.246 192.385 320.051 192.317 319.969C192.249 319.886 198.04 314.953 205.259 308.952C212.478 302.951 218.374 298.161 218.449 298.243Z" fill="#263238"/>
<path d="M228.262 313.216C228.329 313.299 224.366 316.713 219.411 320.834C214.455 324.955 210.387 328.234 210.296 328.151C210.206 328.068 214.192 324.654 219.155 320.533C224.118 316.412 228.194 313.134 228.262 313.216Z" fill="#263238"/>
<path d="M492.065 192.858C492.13 198.452 490.536 203.94 487.484 208.629C484.433 213.318 480.061 216.997 474.92 219.204C469.779 221.41 464.099 222.044 458.598 221.025C453.098 220.006 448.022 217.381 444.012 213.48C440.002 209.579 437.237 204.577 436.067 199.107C434.898 193.636 435.374 187.941 437.438 182.741C439.502 177.541 443.06 173.07 447.663 169.89C452.266 166.71 457.707 164.966 463.301 164.876C470.823 164.782 478.076 167.675 483.468 172.92C488.861 178.166 491.952 185.336 492.065 192.858ZM450.216 193.535C450.27 196.209 451.115 198.807 452.644 201.002C454.174 203.196 456.319 204.888 458.809 205.865C461.299 206.841 464.023 207.058 466.636 206.487C469.249 205.917 471.635 204.585 473.492 202.66C475.349 200.735 476.594 198.303 477.07 195.671C477.546 193.039 477.231 190.325 476.166 187.871C475.1 185.418 473.332 183.335 471.084 181.886C468.836 180.436 466.209 179.686 463.534 179.728C459.939 179.797 456.517 181.29 454.021 183.878C451.524 186.466 450.156 189.939 450.216 193.535Z" fill="#F5F5F5"/>
<path d="M492.065 192.858C492.194 200.375 489.338 207.637 484.122 213.053C478.907 218.468 471.758 221.596 464.241 221.75L463.985 206.913C467.5 206.723 470.805 205.179 473.205 202.604C475.606 200.028 476.914 196.623 476.856 193.103C476.797 189.583 475.376 186.223 472.892 183.729C470.408 181.235 467.053 179.8 463.534 179.728L463.301 164.891C470.821 164.795 478.073 167.685 483.465 172.928C488.857 178.17 491.95 185.338 492.065 192.858Z" fill="#455A64"/>
<path d="M450.215 193.534C450.207 193.459 450.207 193.384 450.215 193.309V192.662C450.211 192.312 450.234 191.963 450.283 191.617C450.328 191.138 450.409 190.663 450.524 190.196C450.803 188.895 451.285 187.647 451.952 186.496C453.508 183.71 455.993 181.561 458.974 180.424C461.955 179.287 465.24 179.235 468.256 180.277C469.51 180.701 470.692 181.315 471.76 182.096C472.315 182.497 472.843 182.934 473.339 183.405C473.831 183.899 474.291 184.424 474.715 184.977C476.487 187.306 477.467 190.141 477.513 193.068C477.559 195.994 476.668 198.858 474.971 201.242C474.572 201.812 474.132 202.353 473.655 202.859C473.182 203.344 472.68 203.798 472.151 204.22C471.107 205.036 469.942 205.686 468.699 206.145C465.72 207.282 462.436 207.335 459.422 206.296C456.407 205.257 453.854 203.191 452.208 200.46C451.524 199.336 451.017 198.114 450.704 196.836C450.575 196.372 450.482 195.9 450.426 195.422C450.36 195.077 450.324 194.728 450.321 194.377C450.321 194.106 450.321 193.895 450.321 193.73C450.31 193.658 450.31 193.584 450.321 193.512C450.425 194.616 450.608 195.712 450.869 196.791C451.212 198.047 451.739 199.246 452.434 200.348C453.345 201.81 454.527 203.086 455.915 204.108C457.701 205.425 459.788 206.273 461.985 206.576C464.183 206.878 466.422 206.624 468.496 205.837C469.704 205.384 470.833 204.745 471.843 203.942C472.377 203.54 472.88 203.098 473.347 202.619C473.812 202.125 474.241 201.6 474.633 201.047C476.271 198.728 477.13 195.948 477.084 193.109C477.038 190.27 476.09 187.519 474.377 185.255C473.969 184.723 473.524 184.221 473.046 183.751C472.574 183.293 472.072 182.869 471.542 182.48C470.507 181.711 469.357 181.11 468.135 180.698C466.023 179.953 463.756 179.757 461.546 180.126C459.337 180.496 457.257 181.419 455.502 182.811C454.147 183.875 453.006 185.187 452.14 186.676C451.485 187.803 450.996 189.019 450.689 190.286C450.454 191.356 450.296 192.442 450.215 193.534Z" fill="#263238"/>
<path d="M492.065 192.858C492.065 192.858 492.065 192.7 492.012 192.399L491.907 191.053C491.907 190.752 491.854 190.429 491.832 190.06C491.809 189.692 491.704 189.308 491.629 188.88C491.485 187.894 491.274 186.919 490.997 185.962C490.292 183.321 489.195 180.801 487.741 178.487C485.638 175.075 482.836 172.148 479.519 169.899C476.202 167.65 472.445 166.13 468.497 165.44C467.316 165.242 466.122 165.122 464.925 165.079C464.316 165.079 463.707 165.019 463.09 165.079L461.225 165.207C460.909 165.207 460.594 165.207 460.285 165.282L459.345 165.447C458.721 165.56 458.082 165.643 457.458 165.786C456.18 166.094 454.924 166.486 453.698 166.959C452.447 167.439 451.231 168.005 450.058 168.651C449.472 168.989 448.908 169.403 448.321 169.734C447.735 170.096 447.175 170.498 446.644 170.937C445.538 171.793 444.49 172.723 443.508 173.719L442.102 175.321L441.748 175.727L441.433 176.163L440.808 177.036L440.177 177.915L439.628 178.855L439.071 179.795L438.801 180.269L438.568 180.766L437.665 182.736L436.913 184.834C435.073 190.635 435.171 196.878 437.191 202.619C437.462 203.311 437.725 204.002 437.988 204.694C438.252 205.386 438.65 206.01 438.974 206.664L439.222 207.161L439.508 207.619L440.094 208.544L440.673 209.469L441.327 210.327L441.989 211.176L442.312 211.605L442.681 211.996L444.132 213.553C445.148 214.52 446.229 215.417 447.366 216.237C447.909 216.661 448.482 217.046 449.08 217.388C449.675 217.726 450.254 218.095 450.848 218.411C452.043 219.02 453.279 219.546 454.548 219.982C455.776 220.415 457.032 220.767 458.308 221.035C458.939 221.155 459.578 221.223 460.203 221.313L461.15 221.449C461.458 221.486 461.774 221.449 462.09 221.494L463.955 221.562C464.579 221.562 465.188 221.494 465.797 221.456C466.993 221.383 468.182 221.225 469.354 220.983C473.655 220.102 477.687 218.218 481.123 215.485C483.968 213.247 486.355 210.482 488.154 207.341C489.534 204.981 490.548 202.425 491.162 199.761C491.414 198.798 491.595 197.818 491.704 196.828C491.764 196.4 491.832 196.001 491.869 195.64C491.907 195.279 491.869 194.948 491.907 194.647C491.907 194.068 491.96 193.617 491.975 193.301C491.99 192.986 492.012 192.843 492.012 192.843C492.012 192.843 492.012 192.993 492.012 193.301C492.012 193.61 492.012 194.053 492.012 194.655C492.012 194.948 492.012 195.279 492.012 195.648C492.012 196.016 491.922 196.4 491.877 196.843C491.779 197.84 491.608 198.827 491.365 199.799C490.768 202.484 489.767 205.062 488.395 207.447C486.403 210.965 483.686 214.02 480.424 216.41C477.163 218.799 473.43 220.468 469.475 221.306C468.286 221.55 467.083 221.713 465.873 221.795C465.256 221.795 464.639 221.9 464.015 221.9L462.12 221.84C461.804 221.84 461.489 221.84 461.173 221.795L460.218 221.659C459.578 221.569 458.932 221.509 458.292 221.381C456.994 221.115 455.715 220.761 454.465 220.321C453.178 219.879 451.922 219.351 450.705 218.742C450.096 218.418 449.509 218.05 448.908 217.704C448.303 217.355 447.723 216.965 447.17 216.538C446.02 215.708 444.925 214.803 443.892 213.831L442.388 212.252L442.019 211.853L441.681 211.425L441.019 210.56L440.35 209.687L439.756 208.755L439.169 207.815L438.876 207.349L438.628 206.852L437.665 204.867L436.853 202.762C434.8 196.936 434.7 190.601 436.567 184.714L437.319 182.578L438.252 180.547L438.485 180.044L438.763 179.57L439.327 178.607L439.884 177.66L440.523 176.772L441.162 175.885L441.478 175.441L441.839 175.035L443.26 173.411C444.261 172.406 445.326 171.466 446.448 170.599C446.984 170.151 447.552 169.744 448.148 169.38C448.742 169.012 449.314 168.628 449.908 168.282C451.097 167.63 452.331 167.063 453.6 166.583C454.824 166.102 456.081 165.708 457.36 165.402C457.999 165.252 458.638 165.169 459.278 165.056L460.225 164.898C460.541 164.846 460.864 164.846 461.18 164.816L463.068 164.695C463.692 164.695 464.309 164.695 464.925 164.74C466.136 164.781 467.342 164.907 468.535 165.116C472.518 165.819 476.305 167.363 479.644 169.646C482.983 171.928 485.797 174.896 487.899 178.352C489.345 180.681 490.428 183.216 491.11 185.872C491.385 186.835 491.589 187.818 491.719 188.812C491.779 189.241 491.862 189.632 491.899 190C491.937 190.369 491.937 190.692 491.952 190.993C491.952 191.579 492.005 192.023 492.02 192.346C492.035 192.67 492.065 192.858 492.065 192.858Z" fill="#263238"/>
<path d="M466.752 224.036C462.452 224.136 458.176 223.377 454.173 221.804C450.17 220.231 446.521 217.875 443.44 214.874C440.358 211.873 437.907 208.288 436.228 204.328C434.55 200.368 433.678 196.113 433.664 191.812L450.96 191.534C451.103 200.302 457.781 205.822 466.511 205.687L466.752 224.036Z" fill="#81DD6A"/>
<path d="M466.752 224.036C466.743 223.923 466.743 223.81 466.752 223.697V222.727C466.752 221.862 466.699 220.622 466.654 219.05C466.587 215.861 466.489 211.289 466.361 205.687L466.511 205.83C464.758 205.858 463.01 205.646 461.315 205.198C459.449 204.702 457.697 203.849 456.156 202.686C454.502 201.422 453.166 199.79 452.253 197.919C451.289 195.927 450.775 193.747 450.749 191.534L450.945 191.722L437.559 191.94L433.656 192.008L433.852 191.805C433.946 195.281 434.539 198.725 435.612 202.032C435.905 202.784 436.198 203.589 436.484 204.363C436.77 205.138 437.236 205.867 437.544 206.559C437.892 207.276 438.286 207.97 438.725 208.635C439.112 209.307 439.538 209.954 440.003 210.575L441.38 212.387C441.861 212.951 442.38 213.478 442.884 214.011L443.636 214.801L444.433 215.508L445.989 216.884C447.971 218.438 450.12 219.764 452.396 220.84L453.9 221.547C454.412 221.742 454.916 221.907 455.404 222.08L456.833 222.577C457.299 222.727 457.766 222.81 458.209 222.923L459.488 223.239L460.097 223.381L460.691 223.472L462.804 223.772C463.363 223.849 463.925 223.894 464.488 223.908L465.729 223.968L466.481 224.013H466.76H465.752H464.488C463.913 224.022 463.337 223.989 462.766 223.915L460.638 223.652C460.443 223.652 460.24 223.607 460.044 223.569L459.428 223.427L458.134 223.133C457.69 223.02 457.217 222.938 456.743 222.795L455.307 222.306C454.81 222.133 454.299 221.975 453.803 221.78L452.253 221.08C449.945 220.016 447.767 218.689 445.764 217.125L444.184 215.749L443.372 215.042L442.62 214.245C442.124 213.703 441.598 213.177 441.116 212.605L439.718 210.785C439.245 210.158 438.811 209.502 438.417 208.823C437.97 208.154 437.57 207.456 437.221 206.732C436.867 205.98 436.469 205.228 436.146 204.476C435.822 203.724 435.552 202.912 435.258 202.122C434.161 198.781 433.556 195.298 433.461 191.782V191.587H433.664L437.559 191.519L450.945 191.309H451.133V191.497C451.147 193.653 451.632 195.781 452.554 197.731C453.435 199.548 454.721 201.138 456.314 202.378C457.814 203.523 459.523 204.363 461.345 204.852C463.009 205.303 464.727 205.523 466.451 205.506H466.602V205.657C466.662 211.297 466.707 215.891 466.737 219.103C466.737 220.667 466.737 221.892 466.737 222.75V223.697C466.759 223.938 466.752 224.043 466.752 224.036Z" fill="#263238"/>
<path d="M481.565 29.6592H331.729V141.662H481.565V29.6592Z" fill="white"/>
<path d="M481.565 29.6592H331.729V43.5035H481.565V29.6592Z" fill="#E0E0E0"/>
<path d="M339.934 38.5706C341.035 38.5706 341.927 37.6784 341.927 36.5778C341.927 35.4772 341.035 34.585 339.934 34.585C338.834 34.585 337.941 35.4772 337.941 36.5778C337.941 37.6784 338.834 38.5706 339.934 38.5706Z" fill="white"/>
<path d="M346.665 38.5706C347.765 38.5706 348.657 37.6784 348.657 36.5778C348.657 35.4772 347.765 34.585 346.665 34.585C345.564 34.585 344.672 35.4772 344.672 36.5778C344.672 37.6784 345.564 38.5706 346.665 38.5706Z" fill="white"/>
<path d="M353.387 38.5706C354.488 38.5706 355.38 37.6784 355.38 36.5778C355.38 35.4772 354.488 34.585 353.387 34.585C352.287 34.585 351.395 35.4772 351.395 36.5778C351.395 37.6784 352.287 38.5706 353.387 38.5706Z" fill="white"/>
<path d="M481.565 141.662C481.565 141.662 481.565 140.963 481.565 139.617C481.565 138.27 481.565 136.27 481.565 133.668C481.565 128.457 481.565 120.809 481.528 111.041C481.528 91.5261 481.475 63.5442 481.445 29.6591L481.603 29.817L331.782 29.8546L331.977 29.6591C331.977 69.9061 331.977 108.04 331.977 141.662L331.797 141.481L439.957 141.572L470.669 141.617H478.813H480.918H478.843H470.729L440.055 141.67L331.767 141.752H331.594V141.579C331.594 107.957 331.594 69.8234 331.594 29.5764V29.3809H331.804H481.625H481.783V29.5463C481.783 63.469 481.723 91.4885 481.7 111.025C481.7 120.801 481.7 128.412 481.663 133.586C481.663 136.18 481.663 138.165 481.663 139.504C481.663 140.842 481.565 141.662 481.565 141.662Z" fill="#263238"/>
<path d="M473.308 97.1584C473.308 97.2637 443.491 97.3539 406.718 97.3539C369.945 97.3539 340.121 97.2637 340.121 97.1584C340.121 97.0531 369.93 96.9629 406.718 96.9629C443.506 96.9629 473.308 97.0456 473.308 97.1584Z" fill="#E0E0E0"/>
<path d="M473.308 85.6604C473.308 85.7656 443.491 85.8559 406.718 85.8559C369.945 85.8559 340.121 85.7656 340.121 85.6604C340.121 85.5551 369.93 85.4648 406.718 85.4648C443.506 85.4648 473.308 85.5476 473.308 85.6604Z" fill="#E0E0E0"/>
<path d="M473.308 74.1623C473.308 74.2676 443.491 74.3578 406.718 74.3578C369.945 74.3578 340.121 74.2676 340.121 74.1623C340.121 74.057 369.93 73.9668 406.718 73.9668C443.506 73.9668 473.308 74.0495 473.308 74.1623Z" fill="#E0E0E0"/>
<path d="M473.308 62.6643C473.308 62.7696 443.491 62.8598 406.718 62.8598C369.945 62.8598 340.121 62.7696 340.121 62.6643C340.121 62.559 369.93 62.4688 406.718 62.4688C443.506 62.4688 473.308 62.5515 473.308 62.6643Z" fill="#E0E0E0"/>
<path d="M463.984 96.7297C461.39 90.4655 459.608 83.6223 457.615 77.1326C455.885 71.485 455.72 68.8606 454.238 64.0703C451.892 56.5503 445.696 55.7231 441.184 57.761C437.168 59.5809 435.438 64.2959 434.107 68.5447L429.325 83.7878C428.681 86.2286 427.699 88.5674 426.407 90.7362C425.016 92.8343 422.903 94.579 420.436 94.9023C416.36 95.4362 412.713 92.0297 410.968 88.2622C409.224 84.4946 408.712 80.2383 407.208 76.3806C405.704 72.5228 402.448 68.8606 398.342 68.7553C393.281 68.665 389.845 73.8238 387.747 78.4862C385.097 84.3663 382.964 90.4654 381.37 96.7146C380.941 98.8725 380.228 100.964 379.249 102.934C378.166 104.836 376.376 106.468 374.218 106.731C371.443 107.07 368.864 105.092 367.255 102.776C365.645 100.46 364.645 97.7449 362.991 95.4588C361.336 93.1727 358.674 91.2702 355.914 91.7514C353.44 92.1876 351.673 94.3534 350.207 96.4214C346.221 102.021 342.772 107.983 339.904 114.229H477.671C471.354 112.048 466.549 103.024 463.984 96.7297Z" fill="#46B2C8"/>
<path d="M378.64 123.253H372.135V129.758H378.64V123.253Z" fill="#46B2C8"/>
<path d="M419.329 126.502H385.398C385.199 126.502 385.008 126.423 384.867 126.282C384.726 126.141 384.646 125.949 384.646 125.75C384.646 125.551 384.726 125.359 384.867 125.218C385.008 125.077 385.199 124.998 385.398 124.998H419.329C419.528 124.998 419.719 125.077 419.86 125.218C420.001 125.359 420.081 125.551 420.081 125.75C420.081 125.949 420.001 126.141 419.86 126.282C419.719 126.423 419.528 126.502 419.329 126.502Z" fill="#263238"/>
<path d="M471.72 114.229H471.224H469.773L464.178 114.267L443.603 114.327L375.735 114.387H339.932H339.752V114.206C339.752 96.5569 339.805 81.5094 339.82 70.8611C339.82 65.5595 339.857 61.3483 339.872 58.4456C339.872 57.0168 339.872 55.9114 339.872 55.1443C339.872 54.7834 339.872 54.5051 339.872 54.2945C339.872 54.084 339.872 54.0088 339.872 54.0088C339.872 54.0088 339.872 54.1065 339.872 54.2945C339.872 54.4825 339.872 54.7834 339.872 55.1443C339.872 55.8963 339.872 57.0168 339.872 58.4456C339.872 61.3483 339.872 65.5595 339.925 70.8611C339.925 81.5094 339.963 96.5569 339.993 114.206L339.812 114.026H375.615L443.483 114.086L464.058 114.146H469.652H471.104C471.555 114.214 471.72 114.229 471.72 114.229Z" fill="#263238"/>
<g opacity="0.3">
<path d="M455.545 69.124L406.65 114.229H431.098L460.531 86.9765L455.545 69.124Z" fill="white"/>
</g>
<g opacity="0.3">
<path d="M412.471 90.8114L385.572 114.229H378.639L410.403 86.9912L413.17 91.6762" fill="white"/>
</g>
<path d="M339.904 114.229C341.232 111.136 342.739 108.123 344.416 105.205C346.354 101.771 348.489 98.452 350.808 95.2636C351.522 94.2936 352.37 93.4302 353.328 92.6993C354.366 91.9063 355.646 91.4947 356.952 91.5337C358.323 91.6398 359.631 92.1501 360.712 93.0001C361.849 93.874 362.815 94.9498 363.562 96.1736C365.149 98.61 366.164 101.565 368.27 103.904C369.319 105.103 370.689 105.977 372.218 106.423C373.004 106.607 373.823 106.607 374.609 106.423C375.41 106.224 376.16 105.861 376.812 105.355C378.148 104.282 379.163 102.861 379.745 101.25C380.351 99.5724 380.853 97.8596 381.249 96.1209C382.187 92.4998 383.306 88.9283 384.603 85.42C385.265 83.6252 385.984 81.8229 386.761 80.0131C387.514 78.1667 388.409 76.3816 389.439 74.6739C390.476 72.8962 391.853 71.3401 393.492 70.0942C394.338 69.4674 395.295 69.0057 396.312 68.7331C397.351 68.4775 398.433 68.4468 399.485 68.6428C401.594 69.134 403.471 70.3338 404.802 72.0419C406.159 73.7242 407.18 75.6517 407.81 77.7195C408.502 79.78 408.976 81.9006 409.577 83.9912C410.099 86.1152 410.949 88.1449 412.096 90.0072C413.25 91.8509 414.925 93.3111 416.909 94.2033C417.887 94.6088 418.948 94.7753 420.003 94.689C421.059 94.6026 422.078 94.266 422.978 93.707C424.754 92.5574 426.167 90.9277 427.054 89.007C427.925 87.1059 428.646 85.1397 429.212 83.1264C430.465 79.1458 431.693 75.2404 432.897 71.4102C433.506 69.5001 434.055 67.59 434.739 65.7401C435.371 63.8833 436.273 62.1298 437.416 60.5363C437.994 59.7581 438.68 59.0667 439.454 58.4833C440.234 57.9225 441.093 57.4815 442.003 57.1748C442.899 56.8742 443.829 56.6873 444.771 56.6184C445.702 56.5679 446.636 56.6463 447.546 56.8515C449.321 57.3069 450.904 58.3221 452.058 59.7467C453.137 61.1352 453.934 62.7217 454.404 64.4166C455.411 67.6878 455.96 70.9515 456.773 73.9971C457.164 75.5011 457.622 77.0051 458.059 78.4564C458.495 79.9078 458.908 81.3366 459.322 82.7278C460.699 87.7526 462.371 92.6918 464.33 97.5196C465.828 101.158 467.744 104.61 470.038 107.807C471.473 109.839 473.255 111.604 475.302 113.018C475.85 113.362 476.423 113.664 477.016 113.921L477.618 114.191L477.001 113.958C476.4 113.716 475.819 113.424 475.264 113.086C473.186 111.693 471.377 109.935 469.925 107.897C467.598 104.706 465.657 101.25 464.142 97.6024C462.152 92.7765 460.457 87.8343 459.066 82.803C458.645 81.4118 458.224 79.9905 457.788 78.5392C457.352 77.0878 456.885 75.6064 456.487 74.0723C455.667 71.0116 455.111 67.763 454.095 64.5144C453.644 62.8779 452.878 61.3452 451.839 60.0024C450.726 58.6293 449.199 57.6532 447.485 57.22C446.609 57.0306 445.711 56.9572 444.816 57.0019C443.904 57.0693 443.004 57.2538 442.139 57.5508C440.362 58.1388 438.817 59.2732 437.724 60.792C436.607 62.3592 435.725 64.0821 435.107 65.9056C434.438 67.7404 433.882 69.6656 433.273 71.5606C432.079 75.3908 430.856 79.2962 429.603 83.2768C429.034 85.3115 428.305 87.2979 427.422 89.2176C426.506 91.207 425.039 92.8927 423.196 94.0755C422.249 94.671 421.172 95.0297 420.057 95.1213C418.941 95.213 417.821 95.0348 416.789 94.6019C414.729 93.6851 412.991 92.1742 411.795 90.2628C410.628 88.3723 409.761 86.3125 409.224 84.1566C408.622 82.051 408.141 79.9379 407.464 77.9075C406.862 75.8891 405.882 74.0033 404.576 72.3502C403.301 70.709 401.501 69.5545 399.478 69.079C398.48 68.897 397.455 68.9278 396.47 69.1692C395.496 69.4267 394.581 69.8655 393.77 70.4627C392.177 71.6834 390.833 73.2 389.815 74.9296C388.797 76.614 387.909 78.3738 387.16 80.1936C386.388 81.9984 385.669 83.7956 385.002 85.5854C383.671 89.1724 382.558 92.7369 381.64 96.2488C381.25 97.9987 380.747 99.7218 380.136 101.407C379.541 103.07 378.501 104.537 377.128 105.649C376.445 106.188 375.652 106.57 374.805 106.769C373.969 106.969 373.098 106.969 372.263 106.769C370.677 106.307 369.257 105.399 368.172 104.152C366.014 101.738 365.014 98.7755 363.449 96.3691C362.723 95.1697 361.783 94.1144 360.675 93.2558C359.635 92.431 358.373 91.9337 357.05 91.827C355.8 91.7883 354.574 92.1784 353.576 92.9324C352.635 93.6495 351.8 94.495 351.094 95.4441C348.745 98.5998 346.574 101.884 344.589 105.28C342.972 108.085 341.837 110.334 341.077 111.86L340.228 113.605C340.04 114.034 339.904 114.229 339.904 114.229Z" fill="#263238"/>
<path d="M281.277 183.743H146.496V264.756H281.277V183.743Z" fill="white"/>
<path d="M281.277 183.743H146.496V196.196H281.277V183.743Z" fill="#E0E0E0"/>
<path d="M155.663 189.97C155.664 190.326 155.56 190.674 155.364 190.971C155.167 191.268 154.887 191.499 154.559 191.636C154.23 191.773 153.869 191.81 153.52 191.742C153.17 191.673 152.85 191.503 152.597 191.251C152.345 191 152.173 190.68 152.103 190.331C152.033 189.983 152.069 189.621 152.204 189.292C152.34 188.963 152.571 188.682 152.866 188.484C153.162 188.286 153.51 188.181 153.866 188.181C154.341 188.181 154.797 188.369 155.134 188.704C155.471 189.04 155.661 189.495 155.663 189.97Z" fill="white"/>
<path d="M161.718 189.969C161.719 190.326 161.615 190.674 161.418 190.971C161.221 191.268 160.94 191.499 160.612 191.636C160.283 191.773 159.921 191.809 159.572 191.74C159.222 191.671 158.901 191.5 158.649 191.248C158.398 190.996 158.226 190.675 158.157 190.326C158.088 189.976 158.124 189.614 158.261 189.286C158.398 188.957 158.63 188.676 158.926 188.479C159.223 188.283 159.572 188.178 159.928 188.18C160.403 188.18 160.858 188.368 161.193 188.704C161.529 189.04 161.718 189.495 161.718 189.969Z" fill="white"/>
<path d="M167.77 189.97C167.772 190.326 167.668 190.674 167.471 190.971C167.275 191.268 166.994 191.499 166.666 191.636C166.338 191.773 165.976 191.81 165.627 191.742C165.278 191.673 164.957 191.503 164.705 191.251C164.453 191 164.281 190.68 164.211 190.331C164.141 189.983 164.176 189.621 164.312 189.292C164.448 188.963 164.678 188.682 164.974 188.484C165.269 188.286 165.617 188.181 165.973 188.181C166.448 188.181 166.904 188.369 167.241 188.704C167.578 189.04 167.768 189.495 167.77 189.97Z" fill="white"/>
<path d="M281.247 264.764C281.247 264.764 281.247 264.26 281.247 263.297C281.247 262.335 281.247 260.914 281.247 259.056C281.247 255.296 281.247 249.852 281.202 242.828C281.202 228.788 281.157 208.552 281.127 183.743L281.277 183.901H146.504L146.699 183.706C146.699 212.41 146.699 239.797 146.699 264.726L146.519 264.538L243.527 264.628L271.351 264.681H278.758H280.676H281.33H278.803H271.434L243.647 264.854L146.534 264.944H146.354V264.764C146.354 239.835 146.354 212.447 146.354 183.743V183.548H146.557L281.33 183.593H281.48V183.743C281.48 208.559 281.42 228.863 281.405 242.918C281.405 249.934 281.405 255.394 281.36 259.116C281.36 260.959 281.36 262.372 281.36 263.335C281.36 264.298 281.247 264.764 281.247 264.764Z" fill="#263238"/>
<path d="M166.988 209.846H161.258V251.792H166.988V209.846Z" fill="#46B2C8"/>
<path d="M178.051 224.088H172.32V251.784H178.051V224.088Z" fill="#46B2C8"/>
<path d="M189.105 215.057H183.375V252.002H189.105V215.057Z" fill="#46B2C8"/>
<path d="M200.166 211.462H194.436V251.792H200.166V211.462Z" fill="#46B2C8"/>
<path d="M211.22 224.938H205.49V251.784H211.22V224.938Z" fill="#46B2C8"/>
<path d="M222.283 230.209H216.553V251.791H222.283V230.209Z" fill="#46B2C8"/>
<path d="M233.338 214.146H227.607V251.784H233.338V214.146Z" fill="#46B2C8"/>
<path d="M244.4 220.938H238.67V251.792H244.4V220.938Z" fill="#46B2C8"/>
<path d="M255.453 215.508H249.723V251.784H255.453V215.508Z" fill="#46B2C8"/>
<path d="M266.515 227.073H260.785V251.791H266.515V227.073Z" fill="#46B2C8"/>
<g opacity="0.3">
<path d="M178.051 224.088H172.32V251.784H178.051V224.088Z" fill="white"/>
</g>
<g opacity="0.3">
<path d="M200.166 211.462H194.436V251.792H200.166V211.462Z" fill="white"/>
</g>
<g opacity="0.3">
<path d="M222.283 230.209H216.553V251.791H222.283V230.209Z" fill="white"/>
</g>
<g opacity="0.3">
<path d="M244.4 220.938H238.67V251.792H244.4V220.938Z" fill="white"/>
</g>
<g opacity="0.3">
<path d="M266.515 227.073H260.785V251.791H266.515V227.073Z" fill="white"/>
</g>
<path d="M274.743 251.792C274.743 251.897 248.085 251.987 215.207 251.987C182.33 251.987 155.664 251.92 155.664 251.792C155.664 251.664 182.315 251.589 215.207 251.589C248.1 251.589 274.743 251.679 274.743 251.792Z" fill="#263238"/>
<path d="M115.417 124.509H43.5938V196.332H115.417V124.509Z" fill="white"/>
<path d="M81.0441 166.012L100.844 166.282C100.694 176.81 91.8203 185.443 81.0441 185.443H80.9238L81.0441 166.012Z" fill="#455A64"/>
<path d="M77.9084 163.185L77.6301 182.616C66.869 182.466 58.0781 173.743 58.0781 163.185C58.0781 152.627 67.0194 143.753 77.8858 143.753C88.7522 143.753 97.6935 152.529 97.6935 163.185H77.9084Z" fill="#FF993C"/>
<path d="M115.35 124.509H43.5938V138.639H115.35V124.509Z" fill="#E0E0E0"/>
<path d="M51.9637 133.608C53.0892 133.608 54.0016 132.696 54.0016 131.57C54.0016 130.445 53.0892 129.532 51.9637 129.532C50.8382 129.532 49.9258 130.445 49.9258 131.57C49.9258 132.696 50.8382 133.608 51.9637 133.608Z" fill="white"/>
<path d="M58.8289 133.608C59.9545 133.608 60.8669 132.696 60.8669 131.57C60.8669 130.445 59.9545 129.532 58.8289 129.532C57.7034 129.532 56.791 130.445 56.791 131.57C56.791 132.696 57.7034 133.608 58.8289 133.608Z" fill="white"/>
<path d="M67.734 131.6C67.734 132.003 67.6145 132.398 67.3906 132.733C67.1667 133.068 66.8484 133.329 66.476 133.483C66.1036 133.637 65.6939 133.678 65.2985 133.599C64.9032 133.521 64.5401 133.326 64.2551 133.041C63.9701 132.756 63.776 132.393 63.6974 131.998C63.6187 131.603 63.6591 131.193 63.8133 130.821C63.9676 130.448 64.2288 130.13 64.5639 129.906C64.8991 129.682 65.2931 129.562 65.6961 129.562C66.2366 129.562 66.755 129.777 67.1372 130.159C67.5193 130.542 67.734 131.06 67.734 131.6Z" fill="white"/>
<path d="M115.418 196.333C115.418 196.333 115.418 196.212 115.418 195.987C115.418 195.761 115.418 195.423 115.418 194.994C115.418 194.107 115.418 192.813 115.418 191.129C115.418 187.752 115.418 182.804 115.372 176.517C115.372 163.951 115.32 146.024 115.282 124.509L115.455 124.674H43.6392L43.8347 124.479C43.8347 150.799 43.8347 175.427 43.8347 196.302L43.6617 196.129L95.6776 196.212L110.289 196.257H114.147H115.057H115.403H114.102H110.274L95.7001 196.302L43.6166 196.498H43.4512V196.333C43.4512 175.457 43.4512 150.806 43.4512 124.509V124.313H43.6166H115.433H115.598V124.486C115.598 146.039 115.538 164.012 115.515 176.608C115.515 182.872 115.478 187.805 115.47 191.174C115.47 192.853 115.47 194.132 115.47 195.009C115.47 195.43 115.47 195.761 115.47 195.979C115.47 196.197 115.418 196.333 115.418 196.333Z" fill="#263238"/>
<path d="M290.987 25.8613H95.1582V167.185H290.987V25.8613Z" fill="white"/>
<path d="M255.71 57.8965H209.304C201.588 57.8965 195.332 64.152 195.332 71.8686V76.5085C195.332 84.2251 201.588 90.4806 209.304 90.4806H255.71C263.427 90.4806 269.682 84.2251 269.682 76.5085V71.8686C269.682 64.152 263.427 57.8965 255.71 57.8965Z" fill="#EBEBEB"/>
<path d="M109.19 94.2776C109.12 88.2913 110.826 82.4187 114.092 77.4011C117.358 72.3835 122.036 68.4458 127.538 66.085C133.04 63.7243 139.117 63.0463 145.004 64.1367C150.89 65.2271 156.322 68.0369 160.613 72.2116C164.904 76.3862 167.862 81.7385 169.114 87.5929C170.366 93.4473 169.855 99.5412 167.646 105.106C165.438 110.67 161.63 115.455 156.704 118.858C151.778 122.26 145.955 124.127 139.969 124.222C131.919 124.323 124.159 121.227 118.389 115.613C112.619 110 109.31 102.327 109.19 94.2776ZM153.964 93.5256C153.904 90.6663 152.999 87.8887 151.363 85.5429C149.727 83.197 147.434 81.388 144.771 80.3439C142.109 79.2998 139.197 79.0672 136.402 79.6756C133.608 80.284 131.056 81.7061 129.069 83.7626C127.081 85.819 125.747 88.4179 125.234 91.2314C124.722 94.045 125.053 96.9474 126.188 99.5727C127.322 102.198 129.208 104.429 131.609 105.984C134.009 107.538 136.816 108.348 139.676 108.31C143.526 108.245 147.193 106.654 149.871 103.888C152.55 101.122 154.022 97.4059 153.964 93.5556V93.5256Z" fill="#F5F5F5"/>
<path d="M109.19 94.2777C109.051 86.228 112.111 78.4518 117.698 72.6548C123.284 66.8579 130.942 63.5136 138.992 63.3555L139.248 79.2377C135.388 79.2995 131.712 80.8919 129.027 83.6645C126.341 86.4371 124.868 90.1628 124.929 94.022C124.991 97.8812 126.584 101.558 129.356 104.243C132.129 106.928 135.855 108.402 139.714 108.34L139.969 124.222C131.919 124.325 124.157 121.229 118.387 115.615C112.617 110.002 109.309 102.328 109.19 94.2777Z" fill="#455A64"/>
<path d="M153.965 93.5565C153.973 93.6339 153.973 93.7121 153.965 93.7896V94.4814C153.969 94.8563 153.944 95.231 153.89 95.6019C153.842 96.1089 153.757 96.6117 153.634 97.1059C153.339 98.4868 152.832 99.8135 152.13 101.039C151.217 102.678 149.991 104.122 148.52 105.288C146.61 106.829 144.339 107.859 141.92 108.279C139.502 108.698 137.016 108.495 134.699 107.687C134.038 107.457 133.392 107.186 132.766 106.874C132.134 106.537 131.527 106.158 130.946 105.739C130.356 105.311 129.793 104.847 129.262 104.348C128.737 103.818 128.248 103.255 127.795 102.663C126.862 101.447 126.131 100.089 125.629 98.64C125.134 97.1417 124.866 95.5778 124.832 94.0001C124.822 92.4227 125.053 90.853 125.517 89.3453C125.968 87.8808 126.653 86.4992 127.547 85.2544C128.387 84.0369 129.418 82.9628 130.6 82.0734C131.157 81.6477 131.742 81.2608 132.352 80.9153C132.965 80.5803 133.601 80.2888 134.255 80.043C137.442 78.8244 140.957 78.7653 144.183 79.8761C147.409 80.9869 150.143 83.1968 151.904 86.1192C152.645 87.321 153.195 88.6298 153.536 89.9995C153.672 90.493 153.773 90.9956 153.837 91.5035C153.905 91.8707 153.943 92.243 153.95 92.6165C153.95 92.9097 153.95 93.1353 153.95 93.3083C153.96 93.3882 153.96 93.469 153.95 93.5489C153.927 93.4733 153.914 93.3949 153.912 93.3158C153.912 93.1353 153.875 92.9097 153.845 92.624C153.826 92.2524 153.778 91.8828 153.702 91.5185C153.624 91.0099 153.511 90.5074 153.363 90.0145C153.004 88.6683 152.441 87.385 151.694 86.2094C150.708 84.6414 149.432 83.2759 147.934 82.1862C146.005 80.7572 143.747 79.8395 141.368 79.5187C138.989 79.1978 136.568 79.4843 134.33 80.3513C133.037 80.84 131.827 81.5248 130.743 82.3817C129.613 83.258 128.633 84.312 127.84 85.5025C126.973 86.7172 126.305 88.0627 125.863 89.4881C125.417 90.9504 125.193 92.4714 125.201 94.0001C125.257 97.0446 126.275 99.9931 128.111 102.423C128.963 103.586 129.999 104.602 131.179 105.431C131.741 105.841 132.331 106.211 132.946 106.536C133.554 106.844 134.183 107.11 134.826 107.333C137.09 108.13 139.518 108.34 141.885 107.946C144.251 107.551 146.48 106.565 148.362 105.077C149.813 103.937 151.033 102.531 151.957 100.934C152.664 99.7327 153.186 98.4322 153.506 97.0758C153.641 96.5829 153.737 96.08 153.792 95.5718C153.86 95.2046 153.898 94.8323 153.905 94.4589C153.905 94.1731 153.942 93.9475 153.95 93.767C153.948 93.6965 153.953 93.626 153.965 93.5565Z" fill="#263238"/>
<path d="M109.191 94.2778C109.191 94.2778 109.191 94.4433 109.243 94.7666C109.296 95.09 109.304 95.5863 109.356 96.2029C109.356 96.5263 109.409 96.8797 109.439 97.2633C109.469 97.6468 109.574 98.0754 109.65 98.5341C109.725 98.9929 109.815 99.4817 109.905 100.038C110.017 100.594 110.158 101.144 110.326 101.685C111.076 104.513 112.25 107.21 113.808 109.686C115.84 112.986 118.487 115.863 121.606 118.161L122.922 119.116C123.381 119.417 123.87 119.68 124.351 119.974C124.832 120.267 125.314 120.568 125.855 120.808L127.434 121.56L128.231 121.929L129.074 122.222L130.781 122.816C131.36 123.004 131.969 123.117 132.571 123.267C133.171 123.436 133.781 123.567 134.398 123.658C135.663 123.874 136.942 124.003 138.226 124.042C138.872 124.042 139.534 124.11 140.196 124.087L142.189 123.952C142.527 123.952 142.865 123.952 143.196 123.869L144.196 123.696C144.866 123.568 145.55 123.485 146.227 123.328C148.98 122.654 151.634 121.625 154.123 120.267C154.755 119.906 155.356 119.515 155.98 119.109C156.609 118.72 157.21 118.288 157.778 117.815C158.965 116.891 160.089 115.886 161.139 114.807L162.643 113.093L163.019 112.664L163.357 112.198L164.027 111.258L164.703 110.318L165.298 109.31L165.884 108.303L166.177 107.799L166.426 107.265L167.411 105.122L168.163 102.866C170.13 96.6542 170.025 89.9713 167.862 83.825L167.005 81.569C166.659 80.8621 166.305 80.1553 165.952 79.4559L165.689 78.9295L165.38 78.4332L164.756 77.4405L164.139 76.4554L163.433 75.538L162.726 74.6205L162.38 74.1693L161.981 73.7482C161.462 73.1842 160.943 72.6353 160.425 72.0788C159.341 71.0456 158.188 70.0883 156.973 69.2137C156.39 68.7572 155.775 68.345 155.131 67.9804C154.499 67.6119 153.882 67.2284 153.243 66.8749C151.96 66.2301 150.636 65.6699 149.28 65.198C147.96 64.7347 146.611 64.3604 145.242 64.0775C144.565 63.9421 143.881 63.8745 143.211 63.7692L142.196 63.6338C141.865 63.5887 141.527 63.6338 141.188 63.5812L139.188 63.5135C138.526 63.5135 137.872 63.5887 137.225 63.6188C135.944 63.7001 134.67 63.871 133.413 64.1301C132.797 64.2398 132.19 64.388 131.593 64.5738C130.999 64.7468 130.397 64.8821 129.826 65.0852L128.141 65.7394L127.307 66.0553L126.517 66.4538L124.96 67.2058C124.449 67.454 123.99 67.7999 123.509 68.0857C123.028 68.3714 122.554 68.6722 122.103 68.9881L120.817 69.9807C117.774 72.379 115.22 75.3406 113.297 78.7039C111.819 81.2301 110.734 83.966 110.078 86.818C109.925 87.3648 109.802 87.9196 109.71 88.4799C109.635 89.0063 109.559 89.4951 109.499 89.9839C109.439 90.4727 109.356 90.8637 109.326 91.2473C109.296 91.6308 109.326 91.9993 109.281 92.3151C109.281 92.9393 109.228 93.413 109.213 93.7514C109.198 94.0898 109.176 94.2477 109.176 94.2477C109.176 94.2477 109.176 94.0823 109.176 93.7514C109.176 93.4205 109.176 92.9317 109.176 92.3076C109.176 91.9917 109.176 91.6308 109.176 91.2397C109.176 90.8487 109.274 90.4276 109.326 89.9689C109.379 89.5101 109.454 89.0063 109.522 88.4649C109.609 87.8998 109.727 87.34 109.875 86.7879C110.514 83.9161 111.584 81.1576 113.049 78.6061C114.965 75.2054 117.518 72.2054 120.569 69.7701L121.862 68.7625C122.321 68.4391 122.802 68.1533 123.276 67.845C123.75 67.5367 124.223 67.2058 124.742 66.9501L126.314 66.1981L127.066 65.7921L127.908 65.4687L129.615 64.8069C130.187 64.5964 130.796 64.461 131.397 64.2805C132.002 64.0924 132.617 63.9392 133.24 63.8218C134.51 63.5597 135.796 63.3863 137.09 63.3029C137.744 63.3029 138.406 63.1901 139.075 63.1826L141.098 63.2503C141.437 63.2503 141.775 63.2503 142.121 63.3029L143.136 63.4383C143.82 63.5436 144.512 63.6113 145.197 63.7391C146.584 64.028 147.95 64.4073 149.287 64.8746C150.7 65.3411 152.078 65.9091 153.408 66.5741C154.055 66.9201 154.687 67.3261 155.326 67.6871C155.976 68.0568 156.599 68.4714 157.191 68.9279C158.422 69.8169 159.593 70.7866 160.695 71.8306L162.267 73.5151L162.666 73.9437L163.027 74.4025L163.733 75.3274L164.485 76.2599L165.11 77.2525L165.741 78.2602L166.057 78.7641L166.32 79.2905L167.396 81.4337C167.681 82.1857 167.967 82.9377 168.26 83.6897C170.454 89.9133 170.559 96.682 168.561 102.971L167.809 105.227C167.478 105.979 167.14 106.678 166.809 107.4L166.561 107.942L166.26 108.453L165.666 109.476L165.064 110.491L164.38 111.438L163.696 112.386L163.357 112.86L162.974 113.296C162.463 113.882 161.959 114.461 161.47 115.033C160.403 116.111 159.265 117.116 158.063 118.041C157.487 118.516 156.879 118.95 156.243 119.342C155.612 119.733 155.003 120.147 154.363 120.515C153.091 121.212 151.772 121.82 150.415 122.335C149.094 122.844 147.739 123.266 146.362 123.598C145.685 123.756 144.994 123.839 144.317 123.967L143.302 124.14C142.963 124.192 142.617 124.192 142.279 124.222L140.263 124.35C139.594 124.35 138.932 124.35 138.271 124.305C136.975 124.257 135.684 124.124 134.405 123.907C133.782 123.809 133.164 123.676 132.555 123.508C131.946 123.35 131.337 123.237 130.751 123.042L129.029 122.44L128.179 122.139L127.367 121.763L125.78 121.011C125.254 120.771 124.78 120.44 124.276 120.162C123.772 119.883 123.298 119.598 122.832 119.297L121.509 118.327C118.352 116.018 115.673 113.12 113.62 109.792C112.068 107.291 110.909 104.567 110.183 101.715C110.019 101.157 109.888 100.589 109.792 100.016L109.544 98.5116C109.477 98.0529 109.394 97.6317 109.356 97.2407C109.319 96.8497 109.311 96.4887 109.296 96.1729C109.296 95.5487 109.236 95.0674 109.213 94.729C109.191 94.3906 109.191 94.2778 109.191 94.2778Z" fill="#263238"/>
<path d="M136.27 60.9121C155.822 60.5962 171.403 75.7641 171.719 95.3988L153.22 95.6921C153.069 86.3071 145.933 80.3964 136.585 80.5468L136.27 60.9121Z" fill="#46B2C8"/>
<path d="M136.27 60.9117C136.27 60.9117 136.27 61.0396 136.27 61.2802C136.27 61.5209 136.27 61.8743 136.27 62.3105C136.27 63.2354 136.323 64.5665 136.368 66.2509C136.443 69.6575 136.541 74.5229 136.676 80.5389L136.526 80.3961C138.401 80.3673 140.271 80.5976 142.083 81.0804C144.077 81.6043 145.95 82.5138 147.595 83.7575C149.363 85.112 150.794 86.8569 151.776 88.8561C152.795 90.9893 153.335 93.3201 153.355 95.6842L153.16 95.4962L167.448 95.2631L171.621 95.1954L171.433 95.3909C171.332 91.6721 170.697 87.9872 169.546 84.4493L168.704 81.9677C168.35 81.1631 167.952 80.3885 167.568 79.614C167.199 78.8339 166.777 78.0801 166.305 77.358C165.89 76.6374 165.433 75.9418 164.936 75.2749C164.44 74.6207 163.943 73.9815 163.432 73.3423C162.921 72.7031 162.357 72.1767 161.838 71.5977L161.048 70.7554L160.199 70.0034L158.529 68.4994C156.41 66.8335 154.11 65.4131 151.671 64.2657L150.031 63.5137C149.483 63.2956 148.941 63.1226 148.415 62.9346L146.911 62.4082C146.414 62.2503 145.918 62.1525 145.407 62.0322L144.031 61.7013L143.384 61.5434L142.745 61.4532L140.489 61.1298C139.89 61.0472 139.288 60.9995 138.684 60.9869L137.353 60.9193L136.563 60.9117H136.27H137.353H138.699C139.315 60.902 139.931 60.9372 140.541 61.017L142.797 61.3028L143.436 61.393L144.091 61.5359L145.482 61.8593C145.956 61.9796 146.46 62.0623 146.986 62.2202L148.49 62.7391C149.016 62.9271 149.565 63.0925 150.114 63.3031L151.776 64.0551C154.245 65.1955 156.576 66.6134 158.725 68.2813C159.274 68.7701 159.838 69.2589 160.409 69.7853L161.274 70.5373L162.071 71.3871C162.597 71.9661 163.161 72.5301 163.688 73.1468L165.192 75.0945C165.698 75.765 166.162 76.4656 166.583 77.1925C167.062 77.9132 167.49 78.6671 167.861 79.4485C168.237 80.2005 168.659 81.0052 169.012 81.8249L169.967 84.3441C171.136 87.9172 171.781 91.6405 171.885 95.3985V95.594H171.689L167.515 95.6617L153.227 95.8873H153.032V95.6993C153.026 93.3925 152.513 91.1152 151.528 89.029C150.579 87.0752 149.188 85.3685 147.467 84.0433C145.861 82.8201 144.032 81.9211 142.083 81.3962C140.301 80.9157 138.461 80.6804 136.616 80.6969H136.465V80.554C136.398 74.538 136.345 69.5973 136.315 66.1607C136.315 64.4837 136.315 63.1527 136.315 62.2578V61.2501C136.262 61.0245 136.27 60.9117 136.27 60.9117Z" fill="#263238"/>
<path d="M290.987 25.8613H95.1582V44.7365H290.987V25.8613Z" fill="#E0E0E0"/>
<path d="M260.944 68.8305H205.898C205.59 68.8306 205.295 68.7101 205.076 68.4949C204.857 68.2798 204.731 67.9872 204.725 67.68C204.725 67.3688 204.848 67.0704 205.068 66.8504C205.288 66.6304 205.587 66.5068 205.898 66.5068H260.944C261.254 66.5088 261.55 66.6333 261.769 66.8531C261.987 67.0729 262.11 67.3701 262.11 67.68C262.104 67.9859 261.979 68.2774 261.761 68.4923C261.543 68.7072 261.25 68.8286 260.944 68.8305Z" fill="#263238"/>
<path d="M260.944 75.0715H205.898C205.587 75.0715 205.288 74.9479 205.068 74.7279C204.848 74.5079 204.725 74.2095 204.725 73.8984C204.724 73.7437 204.753 73.5904 204.812 73.4472C204.87 73.304 204.957 73.1738 205.066 73.064C205.175 72.9543 205.304 72.8672 205.447 72.8078C205.59 72.7484 205.743 72.7178 205.898 72.7178H260.944C261.099 72.7178 261.252 72.7484 261.395 72.8078C261.538 72.8672 261.667 72.9543 261.776 73.064C261.885 73.1738 261.972 73.304 262.03 73.4472C262.089 73.5904 262.118 73.7437 262.117 73.8984C262.117 74.2095 261.994 74.5079 261.774 74.7279C261.554 74.9479 261.255 75.0715 260.944 75.0715Z" fill="#263238"/>
<path d="M230.909 81.3137H205.898C205.587 81.3137 205.288 81.1901 205.068 80.9701C204.848 80.7501 204.725 80.4518 204.725 80.1406C204.724 79.9859 204.753 79.8326 204.812 79.6894C204.87 79.5462 204.957 79.416 205.066 79.3062C205.175 79.1965 205.304 79.1094 205.447 79.05C205.59 78.9906 205.743 78.96 205.898 78.96H230.909C231.064 78.959 231.217 78.9886 231.361 79.0471C231.504 79.1056 231.634 79.1919 231.744 79.3009C231.853 79.4099 231.94 79.5396 232 79.6824C232.059 79.8252 232.09 79.9784 232.09 80.1331C232.091 80.2884 232.061 80.4424 232.002 80.5861C231.943 80.7298 231.856 80.8603 231.746 80.9702C231.637 81.08 231.506 81.1669 231.362 81.2259C231.219 81.2849 231.065 81.3147 230.909 81.3137Z" fill="#263238"/>
<path d="M255.71 97.7598H209.304C201.588 97.7598 195.332 104.015 195.332 111.732V116.372C195.332 124.088 201.588 130.344 209.304 130.344H255.71C263.427 130.344 269.682 124.088 269.682 116.372V111.732C269.682 104.015 263.427 97.7598 255.71 97.7598Z" fill="#EBEBEB"/>
<path d="M262.449 150.663H200.988C199.28 150.661 197.643 149.981 196.436 148.773C195.229 147.564 194.551 145.926 194.551 144.218C194.551 143.373 194.717 142.536 195.041 141.755C195.364 140.974 195.838 140.264 196.436 139.667C197.034 139.069 197.744 138.595 198.525 138.271C199.306 137.948 200.143 137.781 200.988 137.781H262.449C264.157 137.781 265.795 138.459 267.003 139.666C268.212 140.873 268.892 142.51 268.894 144.218C268.894 145.928 268.215 147.567 267.006 148.775C265.797 149.984 264.158 150.663 262.449 150.663Z" fill="#EBEBEB"/>
<path d="M260.575 108.98H205.536C205.225 108.98 204.927 108.856 204.707 108.636C204.487 108.416 204.363 108.118 204.363 107.807C204.363 107.496 204.487 107.197 204.707 106.977C204.927 106.757 205.225 106.634 205.536 106.634H260.575C260.729 106.634 260.882 106.664 261.024 106.723C261.167 106.782 261.296 106.868 261.405 106.977C261.514 107.086 261.6 107.216 261.659 107.358C261.718 107.5 261.748 107.653 261.748 107.807C261.748 107.961 261.718 108.114 261.659 108.256C261.6 108.398 261.514 108.527 261.405 108.636C261.296 108.745 261.167 108.832 261.024 108.891C260.882 108.95 260.729 108.98 260.575 108.98Z" fill="#263238"/>
<path d="M258.23 145.534H203.191C202.88 145.534 202.581 145.411 202.361 145.191C202.141 144.971 202.018 144.672 202.018 144.361C202.018 144.05 202.141 143.752 202.361 143.532C202.581 143.312 202.88 143.188 203.191 143.188H258.23C258.389 143.183 258.547 143.21 258.695 143.268C258.844 143.326 258.978 143.414 259.092 143.526C259.205 143.638 259.294 143.772 259.354 143.919C259.414 144.066 259.443 144.225 259.44 144.384C259.437 144.539 259.404 144.692 259.341 144.835C259.278 144.977 259.188 145.105 259.075 145.212C258.963 145.319 258.83 145.403 258.685 145.458C258.54 145.513 258.385 145.539 258.23 145.534Z" fill="#263238"/>
<path d="M260.575 115.221H205.536C205.225 115.221 204.927 115.098 204.707 114.878C204.487 114.658 204.363 114.359 204.363 114.048C204.363 113.737 204.487 113.439 204.707 113.219C204.927 112.999 205.225 112.875 205.536 112.875H260.575C260.729 112.875 260.882 112.905 261.024 112.964C261.167 113.023 261.296 113.11 261.405 113.219C261.514 113.328 261.6 113.457 261.659 113.599C261.718 113.742 261.748 113.894 261.748 114.048C261.748 114.202 261.718 114.355 261.659 114.497C261.6 114.639 261.514 114.769 261.405 114.878C261.296 114.987 261.167 115.073 261.024 115.132C260.882 115.191 260.729 115.221 260.575 115.221Z" fill="#263238"/>
<path d="M230.548 121.462H205.536C205.225 121.462 204.927 121.339 204.707 121.119C204.487 120.899 204.363 120.6 204.363 120.289C204.363 119.978 204.487 119.68 204.707 119.46C204.927 119.24 205.225 119.116 205.536 119.116H230.548C230.859 119.116 231.157 119.24 231.377 119.46C231.597 119.68 231.721 119.978 231.721 120.289C231.721 120.6 231.597 120.899 231.377 121.119C231.157 121.339 230.859 121.462 230.548 121.462Z" fill="#263238"/>
<path d="M191.488 64.86C191.148 64.9162 190.803 64.9413 190.458 64.9352L187.653 64.9953C185.284 64.9953 182.006 65.0555 178.396 65.0555H174.177L174.313 65.0029C172.47 66.8227 170.884 68.3718 169.748 69.4622L168.447 70.688C168.298 70.8497 168.129 70.9913 167.943 71.1091C168.061 70.9235 168.203 70.7541 168.364 70.6053L169.628 69.2667C170.711 68.1312 172.267 66.5445 174.087 64.7021L174.14 64.6494H178.434C182.043 64.6494 185.322 64.6494 187.691 64.7021L190.496 64.7622C190.829 64.7629 191.161 64.7956 191.488 64.86Z" fill="#263238"/>
<path d="M190.677 66.477C191.541 66.477 192.242 65.7767 192.242 64.9128C192.242 64.0489 191.541 63.3486 190.677 63.3486C189.814 63.3486 189.113 64.0489 189.113 64.9128C189.113 65.7767 189.814 66.477 190.677 66.477Z" fill="#263238"/>
<path d="M190.677 113.492C191.541 113.492 192.242 112.791 192.242 111.927C192.242 111.064 191.541 110.363 190.677 110.363C189.814 110.363 189.113 111.064 189.113 111.927C189.113 112.791 189.814 113.492 190.677 113.492Z" fill="#263238"/>
<path d="M189.639 112.206C188.768 112.307 187.891 112.344 187.014 112.319C185.39 112.319 183.149 112.319 180.675 112.319L174.343 112.259L172.418 112.213C172.185 112.23 171.952 112.23 171.719 112.213C172.579 112.037 173.458 111.969 174.336 112.01C175.96 111.965 178.201 111.943 180.675 111.958C183.149 111.973 185.39 112.003 187.014 112.048C187.892 112.031 188.77 112.084 189.639 112.206Z" fill="#263238"/>
<path d="M124.117 146.572H118.988V151.701H124.117V146.572Z" fill="#455A64"/>
<path d="M141.316 146.572H136.188V151.701H141.316V146.572Z" fill="#E0E0E0"/>
<path d="M159.972 146.572H154.844V151.701H159.972V146.572Z" fill="#46B2C8"/>
<path d="M108.484 35.2984C108.462 35.8091 108.29 36.3021 107.99 36.7161C107.691 37.1302 107.276 37.447 106.797 37.6273C106.319 37.8076 105.798 37.8435 105.3 37.7304C104.801 37.6174 104.347 37.3604 103.993 36.9913C103.64 36.6223 103.402 36.1575 103.31 35.6546C103.218 35.1518 103.276 34.633 103.476 34.1627C103.677 33.6924 104.011 33.2914 104.437 33.0093C104.864 32.7273 105.363 32.5766 105.875 32.5762C106.225 32.583 106.57 32.6589 106.891 32.7995C107.212 32.9401 107.502 33.1427 107.744 33.3956C107.987 33.6485 108.177 33.9468 108.304 34.2733C108.431 34.5998 108.492 34.9482 108.484 35.2984Z" fill="white"/>
<path d="M117.312 35.2984C117.29 35.8091 117.118 36.3021 116.819 36.7161C116.519 37.1302 116.104 37.447 115.626 37.6273C115.147 37.8076 114.627 37.8435 114.128 37.7304C113.629 37.6174 113.175 37.3604 112.821 36.9913C112.468 36.6223 112.23 36.1575 112.138 35.6546C112.046 35.1518 112.104 34.633 112.305 34.1627C112.505 33.6924 112.839 33.2914 113.265 33.0093C113.692 32.7273 114.192 32.5766 114.703 32.5762C115.053 32.583 115.398 32.6589 115.719 32.7995C116.04 32.9401 116.33 33.1427 116.573 33.3956C116.815 33.6485 117.005 33.9468 117.132 34.2733C117.259 34.5998 117.32 34.9482 117.312 35.2984Z" fill="white"/>
<path d="M126.066 35.2984C126.044 35.8094 125.872 36.3027 125.572 36.7169C125.272 37.1311 124.857 37.4479 124.378 37.628C123.899 37.8081 123.378 37.8435 122.879 37.7298C122.38 37.6161 121.926 37.3584 121.573 36.9886C121.219 36.6188 120.982 36.1533 120.891 35.65C120.8 35.1467 120.859 34.6277 121.061 34.1575C121.262 33.6874 121.597 33.2868 122.025 33.0057C122.452 32.7245 122.953 32.5752 123.464 32.5762C123.814 32.584 124.158 32.6606 124.478 32.8017C124.798 32.9427 125.087 33.1454 125.329 33.3982C125.571 33.651 125.76 33.949 125.887 34.275C126.013 34.601 126.074 34.9488 126.066 35.2984Z" fill="white"/>
<path d="M291.024 167.184C291.024 165.868 290.956 111.582 290.866 25.861L291.024 26.019H95.2107L95.4062 25.8234C95.4062 76.4782 95.4062 124.516 95.4062 167.147L95.2332 166.966L291.062 167.147L95.2332 167.32H95.0527V167.147C95.0527 124.516 95.0527 76.4782 95.0527 25.8234V25.6279H95.2633H291.077H291.234V25.7858C291.024 111.582 291.024 165.868 291.024 167.184Z" fill="#263238"/>
<path d="M371.639 118.989H232.15V223.262H371.639V118.989Z" fill="white"/>
<path d="M371.194 118.989H231.705V131.879H371.194V118.989Z" fill="#E0E0E0"/>
<path d="M239.346 127.291C240.372 127.291 241.203 126.459 241.203 125.434C241.203 124.408 240.372 123.576 239.346 123.576C238.32 123.576 237.488 124.408 237.488 125.434C237.488 126.459 238.32 127.291 239.346 127.291Z" fill="white"/>
<path d="M245.604 127.291C246.629 127.291 247.461 126.459 247.461 125.434C247.461 124.408 246.629 123.576 245.604 123.576C244.578 123.576 243.746 124.408 243.746 125.434C243.746 126.459 244.578 127.291 245.604 127.291Z" fill="white"/>
<path d="M251.867 127.291C252.893 127.291 253.725 126.459 253.725 125.434C253.725 124.408 252.893 123.576 251.867 123.576C250.841 123.576 250.01 124.408 250.01 125.434C250.01 126.459 250.841 127.291 251.867 127.291Z" fill="white"/>
<path d="M371.194 223.262C371.194 223.262 371.194 222.607 371.194 221.352C371.194 220.096 371.194 218.238 371.194 215.809C371.194 210.959 371.194 203.838 371.157 194.753C371.157 176.585 371.104 150.536 371.074 118.997L371.232 119.155L231.758 119.192L231.954 118.997C231.954 156.469 231.954 191.941 231.954 223.269L231.773 223.089L332.459 223.179L361.035 223.224H368.615H370.57H371.239H368.66H361.14L332.564 223.269L231.796 223.359H231.623V223.186C231.623 191.881 231.623 156.386 231.623 118.914V118.816H231.834H371.307H371.465V118.982C371.465 150.566 371.405 176.653 371.382 194.844C371.382 203.92 371.382 211.027 371.382 215.9C371.382 218.314 371.382 220.156 371.382 221.404C371.382 222.653 371.194 223.262 371.194 223.262Z" fill="#263238"/>
<path d="M363.509 181.826C363.509 181.939 335.753 182.022 301.522 182.022C267.291 182.022 239.52 181.939 239.52 181.826C239.52 181.714 267.268 181.631 301.522 181.631C335.776 181.631 363.509 181.721 363.509 181.826Z" fill="#E0E0E0"/>
<path d="M363.509 171.125C363.509 171.23 335.753 171.321 301.522 171.321C267.291 171.321 239.52 171.23 239.52 171.125C239.52 171.02 267.268 170.93 301.522 170.93C335.776 170.93 363.509 171.012 363.509 171.125Z" fill="#E0E0E0"/>
<path d="M363.509 160.417C363.509 160.53 335.753 160.613 301.522 160.613C267.291 160.613 239.52 160.53 239.52 160.417C239.52 160.304 267.268 160.222 301.522 160.222C335.776 160.222 363.509 160.312 363.509 160.417Z" fill="#E0E0E0"/>
<path d="M363.509 149.716C363.509 149.821 335.753 149.912 301.522 149.912C267.291 149.912 239.52 149.821 239.52 149.716C239.52 149.611 267.268 149.521 301.522 149.521C335.776 149.521 363.509 149.603 363.509 149.716Z" fill="#E0E0E0"/>
<path d="M260.327 176.977H250.01V197.724H260.327V176.977Z" fill="#FF993C"/>
<path d="M297.355 176.977H287.037V197.724H297.355V176.977Z" fill="#455A64"/>
<path d="M353.515 184.045H343.197V197.716H353.515V184.045Z" fill="#455A64"/>
<path d="M334.376 167.147H324.059V197.716H334.376V167.147Z" fill="#E0E0E0"/>
<path d="M315.448 155.251H305.131V197.724H315.448V155.251Z" fill="#FF993C"/>
<path d="M278.105 167.147H267.787V197.716H278.105V167.147Z" fill="#E0E0E0"/>
<path d="M362.034 197.724H361.568H360.214H355.01L335.857 197.784L272.689 197.844H239.36H239.135V197.664C239.135 181.233 239.195 167.223 239.21 157.311C239.21 152.371 239.248 148.453 239.263 145.753C239.263 144.422 239.263 143.392 239.263 142.677C239.263 142.339 239.263 142.083 239.263 141.888C239.256 141.798 239.256 141.707 239.263 141.617C239.263 141.617 239.263 141.715 239.263 141.888V142.677C239.263 143.392 239.263 144.422 239.263 145.753C239.263 148.453 239.263 152.371 239.315 157.311C239.315 167.223 239.36 181.233 239.39 197.664L239.21 197.476H272.674L335.842 197.528L354.995 197.589L360.199 197.626H361.553L362.034 197.724Z" fill="#263238"/>
<path d="M265.56 208.244H261.025V212.779H265.56V208.244Z" fill="#FF993C"/>
<path d="M293.265 208.102H288.73V212.636H293.265V208.102Z" fill="#E0E0E0"/>
<path d="M323.232 208.244H318.697V212.779H323.232V208.244Z" fill="#455A64"/>
<path d="M280.571 210.365C278.519 210.563 276.457 210.629 274.397 210.561C272.337 210.629 270.274 210.563 268.223 210.365C270.275 210.172 272.337 210.107 274.397 210.17C276.457 210.107 278.519 210.172 280.571 210.365Z" fill="#263238"/>
<path d="M308.065 210.365C306.013 210.563 303.951 210.629 301.891 210.561C299.831 210.629 297.768 210.563 295.717 210.365C297.769 210.172 299.831 210.107 301.891 210.17C303.951 210.107 306.013 210.172 308.065 210.365Z" fill="#263238"/>
<path d="M337.332 210.364C333.223 210.625 329.101 210.625 324.992 210.364C329.101 210.104 333.223 210.104 337.332 210.364Z" fill="#263238"/>
<path d="M352.364 86.4053H304.168V134.601H352.364V86.4053Z" fill="white"/>
<path d="M352.364 134.608C352.364 134.608 352.364 134.525 352.364 134.375C352.364 134.224 352.364 133.991 352.364 133.706C352.364 133.104 352.364 132.239 352.364 131.111C352.364 128.855 352.364 125.516 352.319 121.298C352.319 112.86 352.267 100.836 352.229 86.4123L352.402 86.5778H304.206L304.402 86.3822C304.402 104.032 304.402 120.568 304.402 134.578L304.236 134.412L339.122 134.495L348.935 134.54H351.53H352.222H351.567L348.928 134.608L339.152 134.653L304.161 134.743H303.988V134.608C303.988 120.598 303.988 104.062 303.988 86.4123V86.2168H304.184H352.379H352.552V86.3898C352.552 100.858 352.492 112.92 352.47 121.38C352.47 125.584 352.47 128.9 352.425 131.156C352.425 132.269 352.425 133.127 352.425 133.721C352.425 133.999 352.425 134.217 352.425 134.375C352.409 134.454 352.389 134.532 352.364 134.608Z" fill="#263238"/>
<path d="M331.007 110.582C332.398 109.968 333.579 108.96 334.402 107.682C335.225 106.404 335.656 104.913 335.64 103.393C335.64 99.0989 332.414 95.6096 328.383 95.587C324.352 95.5645 321.104 99.0312 321.104 103.325C321.075 104.858 321.502 106.366 322.329 107.657C323.156 108.948 324.347 109.966 325.751 110.582C314.539 112.266 315.042 124.456 315.042 124.456L341.558 124.577C341.558 124.577 342.16 112.259 331.007 110.582Z" fill="#FF5454"/>
<path d="M430.895 86.6682C430.552 86.3278 430.093 86.1291 429.609 86.1117C428.228 85.9507 426.83 86.2129 425.601 86.8637C426.48 85.9442 427.035 84.763 427.182 83.4994C427.328 82.2358 427.059 80.9589 426.413 79.8626C425.725 78.792 424.742 77.9433 423.583 77.419C422.423 76.8946 421.137 76.7168 419.878 76.9072C418.63 77.1251 417.455 77.6521 416.462 78.4402C415.469 79.2283 414.689 80.2525 414.193 81.4192C413.722 82.6005 413.508 83.8683 413.563 85.1388C413.619 86.4093 413.944 87.6534 414.517 88.7888L418.698 89.8868C420.638 91.2008 422.927 91.9052 425.27 91.9096C425.738 91.9495 426.209 91.8941 426.655 91.7468C427.101 91.5994 427.513 91.3632 427.865 91.0524C428.496 90.3605 428.384 89.0069 427.496 88.7212C428.342 88.9918 429.252 88.9918 430.098 88.7212C430.94 88.473 431.482 87.36 430.895 86.6682Z" fill="#263238"/>
<path d="M409.239 81.2164C407.945 80.8148 406.583 80.6745 405.234 80.8036C403.885 80.9327 402.575 81.3286 401.381 81.9684C400.717 81.1178 399.839 80.4594 398.837 80.0609C397.834 79.6625 396.744 79.5385 395.677 79.7017C394.611 79.8648 393.607 80.3093 392.77 80.9892C391.932 81.6692 391.291 82.5601 390.913 83.5702C389.768 83.0951 388.49 83.0506 387.315 83.4449C386.14 83.8392 385.148 84.6455 384.522 85.7149C383.895 86.7842 383.677 88.0442 383.908 89.2619C384.139 90.4795 384.802 91.5724 385.777 92.3385C384.851 92.7243 384.025 93.3159 383.362 94.0684C382.7 94.8209 382.217 95.7145 381.951 96.6814C381.685 97.6483 381.643 98.6632 381.827 99.6488C382.012 100.635 382.419 101.565 383.017 102.37C381.039 103.325 380.701 106.002 380.994 108.176C381.287 110.349 381.911 112.688 380.934 114.65C380.182 116.154 378.625 117.109 377.565 118.41C376.504 119.711 376.128 122.005 377.565 122.922C376.972 123.031 376.407 123.255 375.901 123.582C375.395 123.909 374.959 124.333 374.617 124.829C373.925 125.83 373.661 127.065 373.88 128.262C374.099 129.458 374.785 130.519 375.786 131.21C376.788 131.901 378.022 132.166 379.219 131.946C378.858 132.823 378.724 133.777 378.829 134.719C378.934 135.662 379.275 136.562 379.821 137.338C380.94 138.883 382.519 140.033 384.333 140.624C386.917 141.505 389.709 141.58 392.337 140.838C394.965 140.097 397.306 138.575 399.049 136.473L415.277 86.2924C414.657 85.0887 413.804 84.0201 412.767 83.1488C411.731 82.2774 410.531 81.6206 409.239 81.2164Z" fill="#263238"/>
<path d="M416.962 95.0828L417.18 92.3756L401.087 88.2998C396.094 87.4651 390.363 92.1726 389.747 97.1884C389.055 102.768 388.438 109.596 388.844 113.815C389.672 122.29 396.049 123.749 396.049 123.749L395.552 132.089L414.104 133.435L416.962 95.0828Z" fill="#AE7461"/>
<path d="M391.709 104.619C391.691 104.899 391.782 105.176 391.965 105.39C392.148 105.603 392.407 105.737 392.687 105.762C392.823 105.782 392.962 105.774 393.095 105.739C393.228 105.704 393.353 105.643 393.462 105.559C393.571 105.475 393.661 105.369 393.729 105.249C393.796 105.129 393.838 104.996 393.853 104.86C393.872 104.579 393.781 104.303 393.6 104.088C393.419 103.874 393.162 103.738 392.883 103.709C392.746 103.69 392.606 103.699 392.473 103.734C392.339 103.77 392.214 103.832 392.104 103.917C391.995 104.002 391.904 104.108 391.836 104.228C391.768 104.349 391.725 104.481 391.709 104.619Z" fill="#263238"/>
<path d="M391.303 100.866C391.431 101.009 392.28 100.46 393.438 100.528C394.597 100.596 395.416 101.235 395.552 101.099C395.687 100.964 395.491 100.776 395.138 100.49C394.659 100.109 394.072 99.888 393.461 99.8586C392.859 99.8191 392.261 99.9747 391.754 100.302C391.378 100.55 391.243 100.768 391.303 100.866Z" fill="#263238"/>
<path d="M402.229 105.19C402.21 105.471 402.302 105.747 402.485 105.961C402.667 106.175 402.927 106.308 403.207 106.333C403.343 106.353 403.482 106.346 403.615 106.311C403.748 106.276 403.873 106.214 403.981 106.13C404.09 106.046 404.181 105.94 404.248 105.82C404.315 105.7 404.357 105.568 404.372 105.431C404.391 105.151 404.301 104.874 404.12 104.66C403.939 104.445 403.681 104.309 403.402 104.28C403.265 104.261 403.126 104.27 402.992 104.306C402.858 104.341 402.733 104.403 402.624 104.488C402.515 104.573 402.423 104.679 402.356 104.799C402.288 104.92 402.245 105.053 402.229 105.19Z" fill="#263238"/>
<path d="M402.682 101.768C402.81 101.911 403.667 101.362 404.817 101.43C405.968 101.498 406.795 102.137 406.931 102.001C407.066 101.866 406.878 101.678 406.517 101.385C406.034 101.011 405.449 100.794 404.84 100.761C404.239 100.723 403.642 100.875 403.133 101.197C402.757 101.452 402.622 101.701 402.682 101.768Z" fill="#263238"/>
<path d="M397.958 110.108C397.361 109.877 396.736 109.726 396.1 109.657C395.807 109.604 395.529 109.529 395.491 109.326C395.481 109.019 395.568 108.716 395.739 108.461L396.754 106.258C398.161 103.122 399.198 100.535 399.071 100.482C398.943 100.43 397.702 102.926 396.296 106.055C395.95 106.807 395.626 107.559 395.318 108.273C395.111 108.618 395.031 109.025 395.093 109.424C395.13 109.532 395.191 109.63 395.272 109.71C395.353 109.791 395.451 109.853 395.559 109.89C395.719 109.945 395.886 109.978 396.055 109.988C396.682 110.105 397.321 110.145 397.958 110.108Z" fill="#263238"/>
<path d="M396.048 123.772C400.092 124.075 404.142 123.272 407.764 121.448C407.764 121.448 404.568 127.156 395.928 125.862L396.048 123.772Z" fill="#6F4439"/>
<path d="M402.952 97.7603C403.065 98.0762 404.223 97.9258 405.584 98.0912C406.945 98.2566 408.051 98.6251 408.231 98.3394C408.314 98.204 408.118 97.9107 407.675 97.5874C407.087 97.2053 406.417 96.9705 405.719 96.903C405.021 96.8172 404.312 96.8997 403.651 97.1437C403.155 97.3693 402.899 97.6174 402.952 97.7603Z" fill="#263238"/>
<path d="M391.589 97.9929C391.769 98.2712 392.589 98.0531 393.551 98.1057C394.514 98.1584 395.311 98.4065 395.514 98.1057C395.604 97.9779 395.514 97.7072 395.161 97.4289C394.704 97.097 394.16 96.9082 393.596 96.8868C393.032 96.8654 392.475 97.0122 391.995 97.3086C391.634 97.5944 391.506 97.8576 391.589 97.9929Z" fill="#263238"/>
<path d="M389.776 91.1501C391.693 88.6545 394.391 86.8727 397.439 86.0892L411.035 87.7962H412.193C412.448 86.939 413.892 86.4878 413.892 86.4878C415.171 85.5102 419.6 85.4575 422.683 88.6836C423.796 89.8417 424.586 92.767 424.608 94.3762C424.608 94.9854 423.969 95.8201 424.48 96.1585C425.094 96.2358 425.712 96.2784 426.33 96.2863C429.79 97.0383 431.948 100.114 431.324 104.694C431.266 104.92 431.24 105.152 431.248 105.386C431.355 105.741 431.568 106.056 431.858 106.288C432.666 107.178 433.189 108.29 433.359 109.48C433.529 110.671 433.339 111.885 432.813 112.966C432.399 113.581 432.087 114.259 431.888 114.974C431.677 116.274 432.64 117.44 433.392 118.546C435.648 121.839 436.084 126.622 433.482 129.615C432.85 130.367 432.031 130.999 431.797 131.931C431.716 132.398 431.691 132.872 431.722 133.345C431.722 135.736 430.481 138.413 428.143 138.917C426.842 139.195 425.263 138.827 424.338 139.782C423.988 140.239 423.709 140.746 423.51 141.286C422.992 142.263 422.156 143.035 421.14 143.472C420.124 143.91 418.989 143.987 417.923 143.692C415.81 143.038 415.111 134.48 415.419 132.292C412.862 131.367 410.975 131.202 411.095 128.487C411.095 128.487 411.486 123.81 410.726 121.531C409.967 119.252 411.478 114.41 412.358 112.056C413.238 109.702 412.193 104.227 411.96 102.047C411.945 101.42 412.006 100.794 412.14 100.182C412.238 99.6478 412.358 99.0537 412.509 98.4145C412.659 97.7753 413.05 94.6545 413.043 94.083C413.005 92.0225 410.448 93.1204 408.531 93.7822C408.045 93.9442 407.538 94.0329 407.027 94.0453C406.221 94.0609 405.422 93.889 404.694 93.5432C403.966 93.1973 403.328 92.687 402.83 92.0526C401.891 93.0254 400.706 93.7268 399.401 94.0828C398.096 94.4388 396.719 94.4363 395.416 94.0754C394.434 95.5904 393.253 96.9664 391.904 98.1663C390.537 99.3738 388.746 99.9903 386.926 99.8809C386.876 96.7343 387.879 93.6613 389.776 91.1501Z" fill="#263238"/>
<path d="M398.801 112.913C399.005 112.632 399.277 112.407 399.591 112.258C399.905 112.109 400.252 112.043 400.599 112.063C400.851 112.073 401.098 112.134 401.326 112.242C401.553 112.351 401.756 112.505 401.922 112.695C402.085 112.875 402.188 113.101 402.217 113.343C402.245 113.584 402.197 113.828 402.08 114.041C401.909 114.255 401.678 114.412 401.416 114.493C401.155 114.573 400.875 114.573 400.614 114.492C400.065 114.33 399.554 114.062 399.11 113.703C398.977 113.615 398.86 113.506 398.764 113.379C398.722 113.317 398.699 113.244 398.699 113.169C398.699 113.094 398.722 113.02 398.764 112.958" fill="#6F4439"/>
<path d="M401.568 110.823C401.38 110.823 401.44 112.056 400.425 112.981C399.41 113.906 398.094 113.838 398.094 114.011C398.094 114.184 398.402 114.237 398.959 114.222C399.677 114.212 400.368 113.945 400.906 113.47C401.421 113.005 401.734 112.357 401.779 111.665C401.801 111.109 401.651 110.808 401.568 110.823Z" fill="#263238"/>
<path d="M375.766 332L377.27 347.935C377.27 347.935 359.899 354.425 359.711 357.636L392.551 357.726V355.327L391.175 347.13L389.144 331.203L375.766 332Z" fill="#455A64"/>
<path d="M387.182 345.469C387.506 345.566 387.783 345.779 387.96 346.068C388.136 346.357 388.199 346.701 388.137 347.033C388.052 347.352 387.85 347.627 387.571 347.804C387.293 347.981 386.958 348.047 386.633 347.988C386.29 347.885 385.997 347.657 385.812 347.35C385.627 347.043 385.563 346.678 385.633 346.326C385.757 345.994 386.005 345.723 386.325 345.57C386.644 345.417 387.011 345.395 387.347 345.507" fill="#E0E0E0"/>
<path d="M392.582 357.727V355.328L361.089 355.93C361.089 355.93 359.585 356.584 359.765 357.637L392.582 357.727Z" fill="#263238"/>
<path d="M376.752 347.77C376.752 347.936 377.579 348.003 378.391 348.522C379.203 349.041 379.632 349.74 379.783 349.673C379.933 349.605 379.685 348.658 378.692 348.041C377.699 347.424 376.752 347.62 376.752 347.77Z" fill="#263238"/>
<path d="M373.232 349.237C373.194 349.395 373.909 349.673 374.465 350.365C375.022 351.056 375.217 351.793 375.353 351.786C375.488 351.778 375.616 350.846 374.909 349.996C374.202 349.146 373.239 349.079 373.232 349.237Z" fill="#263238"/>
<path d="M371.239 353.44C371.389 353.477 371.615 352.688 371.194 351.763C370.773 350.838 369.998 350.507 369.93 350.642C369.863 350.778 370.336 351.259 370.682 352.003C371.028 352.748 371.081 353.44 371.239 353.44Z" fill="#263238"/>
<path d="M375.587 343.935C375.662 344.085 376.414 343.86 377.339 343.935C378.264 344.01 378.994 344.288 379.076 344.146C379.159 344.003 378.467 343.394 377.369 343.394C376.271 343.394 375.512 343.807 375.587 343.935Z" fill="#263238"/>
<path d="M416.118 332.452L417.525 348.116C417.525 348.116 400.424 354.388 400.229 357.539L432.482 357.824V355.463L431.166 347.424L429.271 331.768L416.118 332.452Z" fill="#455A64"/>
<path d="M427.248 345.747C427.566 345.845 427.836 346.056 428.008 346.34C428.18 346.625 428.242 346.962 428.181 347.289C428.094 347.605 427.891 347.877 427.612 348.05C427.333 348.223 426.999 348.284 426.677 348.221C426.342 348.115 426.058 347.889 425.879 347.587C425.7 347.284 425.639 346.927 425.707 346.582C425.832 346.257 426.078 345.993 426.394 345.846C426.709 345.699 427.069 345.68 427.399 345.792" fill="#E0E0E0"/>
<path d="M432.476 357.824V355.463L401.531 355.869C401.531 355.869 400.027 356.501 400.223 357.538L432.476 357.824Z" fill="#263238"/>
<path d="M416.991 347.95C416.991 348.108 417.803 348.183 418.593 348.702C419.382 349.221 419.803 349.905 419.954 349.845C420.104 349.785 419.864 348.845 418.893 348.236C417.923 347.627 416.961 347.8 416.991 347.95Z" fill="#263238"/>
<path d="M413.525 349.365C413.525 349.523 414.187 349.801 414.729 350.485C415.27 351.17 415.428 351.891 415.593 351.884C415.759 351.876 415.857 350.966 415.165 350.132C414.473 349.297 413.533 349.214 413.525 349.365Z" fill="#263238"/>
<path d="M411.539 353.508C411.689 353.508 411.915 352.756 411.539 351.854C411.163 350.952 410.373 350.613 410.306 350.748C410.238 350.884 410.697 351.358 411.058 352.087C411.418 352.816 411.381 353.486 411.539 353.508Z" fill="#263238"/>
<path d="M415.855 344.176C415.923 344.326 416.66 344.108 417.577 344.176C418.494 344.243 419.194 344.529 419.277 344.394C419.359 344.259 418.683 343.68 417.607 343.642C416.532 343.604 415.795 344.048 415.855 344.176Z" fill="#263238"/>
<path d="M375.059 193.43C375.059 193.43 367.276 215.99 367.005 232.737C366.735 249.484 366.471 276.172 369.961 305.583C373.45 334.994 375.059 346.815 375.059 346.815H392.769C393.893 335.214 394.432 323.563 394.386 311.907C394.115 295.416 392.821 290.19 394.386 272.051C395.95 253.913 398.476 243.017 401.116 237.519C401.116 237.519 408.425 228.826 408.959 216.907C409.199 209.362 407.966 201.842 405.327 194.768L375.059 193.43Z" fill="#263238"/>
<path d="M390.799 225.051C391.092 225.961 396.349 262.914 400.184 279.195C404.019 295.476 408.283 299.815 409.035 313.035C409.892 328.286 414.081 346.762 414.081 346.762H432.941C432.941 346.762 430.286 318.577 427.639 296.536C424.992 274.495 421.157 247.34 421.744 239.189C422.33 231.037 423.804 220.975 421.744 209.552C419.683 198.129 415.224 195.129 415.224 195.129L399.221 194.377L390.799 225.051Z" fill="#263238"/>
<path d="M408.554 203.92C408.666 204.103 408.764 204.294 408.847 204.491C409.105 205.053 409.319 205.634 409.486 206.229C410.026 208.441 410.237 210.722 410.11 212.997C409.966 216.358 409.444 219.693 408.554 222.938C408.045 224.863 407.358 226.736 406.501 228.533C405.51 230.424 404.368 232.232 403.087 233.94C400.53 237.474 399.259 241.497 398.304 245.13C397.499 248.374 396.901 251.667 396.514 254.988C396.161 257.823 395.958 260.132 395.8 261.756C395.724 262.508 395.657 263.132 395.612 263.584C395.601 263.799 395.57 264.013 395.521 264.223C395.503 264.01 395.503 263.796 395.521 263.584C395.521 263.125 395.582 262.508 395.627 261.741C395.739 260.147 395.905 257.831 396.221 254.973C396.573 251.633 397.146 248.319 397.935 245.054C398.412 243.124 399.007 241.226 399.718 239.369C400.103 238.388 400.543 237.429 401.034 236.497C401.554 235.546 402.126 234.624 402.748 233.737C404.016 232.042 405.148 230.249 406.132 228.375C406.99 226.604 407.68 224.756 408.193 222.855C409.106 219.63 409.659 216.314 409.839 212.966C409.993 210.721 409.828 208.465 409.351 206.266C409.203 205.672 409.014 205.089 408.787 204.522C408.691 204.329 408.613 204.127 408.554 203.92Z" fill="#455A64"/>
<path d="M333.572 147.392C336.821 149.332 342.694 151.152 342.694 151.152L349.281 145.888C349.281 145.888 344.574 137.285 343.055 134.841C342.548 134.023 342.137 133.15 341.829 132.239C341.318 130.404 339.971 131.186 339.723 132.63C339.744 133.421 339.883 134.204 340.137 134.954C340.483 135.842 340.639 136.792 340.596 137.744C340.596 137.744 340.114 137.338 338.926 136.54C337.738 135.743 333.279 132.028 331.444 130.524C328.691 128.268 327.308 129.66 327.684 130.524C328.135 131.615 334.956 136.398 334.715 137.21C334.715 137.21 333.399 137.962 333.211 138.811C333.102 139.37 333.102 139.945 333.211 140.503C333.211 140.503 331.978 140.624 331.654 141.413C331.481 142.044 331.513 142.712 331.745 143.323C331.745 143.323 330.602 143.429 330.474 144.075C330.346 144.722 331.12 145.94 333.572 147.392Z" fill="#AE7461"/>
<path d="M348.176 143.542C348.274 143.835 362.299 158.191 362.299 158.191C362.299 158.191 374 145.016 377.557 140.143C381.114 135.27 386.528 129.344 391.183 128.254C395.838 127.163 402.32 130.141 402.32 130.141L394.048 147.076L383.648 161.364C383.648 161.364 372.413 175.479 367.067 177.66C361.72 179.841 356.501 176.72 354.192 174.344C351.884 171.967 338.4 151.445 338.4 151.445L348.176 143.542Z" fill="#46B2C8"/>
<path d="M426.3 133.856L394.047 128.254C394.047 128.254 385.091 144.046 381.737 160.59C378.383 177.134 374.57 193.716 374.57 193.716L404.372 197.393C407.474 197.775 410.614 197.732 413.704 197.265L416.81 196.791L414.261 186.263C418.517 175.622 421.63 166.538 423.473 159.033C427.466 142.775 426.3 133.856 426.3 133.856Z" fill="#46B2C8"/>
<path d="M393.296 149.648C393.141 149.899 392.965 150.135 392.769 150.355C392.356 150.852 391.852 151.468 391.265 152.198C389.987 153.762 388.257 155.958 386.332 158.349C384.407 160.74 382.648 162.921 381.309 164.433C380.647 165.185 380.091 165.801 379.7 166.207C379.514 166.435 379.299 166.638 379.061 166.809C379.206 166.553 379.383 166.315 379.587 166.102L381.091 164.252C382.369 162.696 384.099 160.492 386.017 158.101C387.934 155.71 389.709 153.536 391.04 152.017C391.709 151.265 392.258 150.656 392.657 150.25C392.842 150.022 393.057 149.82 393.296 149.648Z" fill="#263238"/>
<path d="M413.758 186.767C413.106 187.037 412.424 187.232 411.727 187.346C408.4 188.047 404.977 188.179 401.605 187.737C400.903 187.681 400.211 187.537 399.545 187.308C400.244 187.317 400.942 187.367 401.636 187.458C403.308 187.602 404.989 187.642 406.666 187.579C408.347 187.51 410.022 187.341 411.682 187.075C412.365 186.92 413.059 186.817 413.758 186.767Z" fill="#263238"/>
<path d="M361.989 166.741C361.809 165.388 361.763 164.02 361.854 162.658C361.809 161.292 361.892 159.925 362.102 158.574C362.283 159.927 362.331 161.295 362.245 162.658C362.286 164.024 362.2 165.391 361.989 166.741Z" fill="#263238"/>
<g opacity="0.3">
<path d="M425.264 137.511L405.103 135.714C404.942 136.142 404.869 136.598 404.89 137.054C404.911 137.511 405.025 137.958 405.225 138.369C405.425 138.78 405.707 139.146 406.053 139.445C406.399 139.743 406.802 139.968 407.238 140.106C406.695 141.062 406.403 142.14 406.388 143.24C406.373 144.339 406.636 145.425 407.153 146.396C407.67 147.366 408.424 148.191 409.345 148.792C410.265 149.394 411.323 149.753 412.42 149.836C412.96 149.832 413.499 149.9 414.021 150.039C415.142 150.438 415.676 151.664 416.345 152.649C417.214 153.97 418.562 154.903 420.105 155.251C420.873 155.412 421.67 155.366 422.415 155.119C423.16 154.872 423.827 154.433 424.346 153.845C425.331 152.641 425.497 150.987 425.572 149.43C425.774 145.455 425.671 141.47 425.264 137.511Z" fill="black"/>
</g>
<g opacity="0.3">
<path d="M380.512 165.343C383.833 164.668 386.805 162.832 388.894 160.164C390.983 157.496 392.053 154.17 391.912 150.784C387.686 155.356 384.121 161.222 380.512 165.343Z" fill="black"/>
</g>
<path d="M429.896 125.08L412.69 105.935C413.322 110.792 411.487 115.628 409.291 120.004C408.036 122.501 406.637 125.464 407.953 127.923C406.818 129.068 405.86 130.376 405.11 131.803C404.741 132.521 404.533 133.312 404.502 134.118C404.471 134.925 404.617 135.729 404.93 136.473C405.27 137.204 405.86 137.788 406.594 138.121C407.328 138.453 408.157 138.512 408.93 138.286C408.579 139.269 408.529 140.334 408.785 141.346C409.041 142.358 409.592 143.271 410.368 143.969C411.144 144.668 412.111 145.119 413.144 145.267C414.178 145.414 415.232 145.251 416.172 144.798C416.586 146.809 417.734 148.594 419.391 149.806C420.222 150.396 421.201 150.744 422.218 150.81C423.235 150.876 424.25 150.659 425.151 150.182C426.031 149.666 426.69 148.844 427.003 147.874C427.316 146.903 427.262 145.851 426.851 144.918C430.611 144.084 433.002 140 433.115 136.127C433.228 132.255 431.596 128.592 429.896 125.08Z" fill="#263238"/>
<path d="M394.31 93.5112C394.224 93.5638 394.13 93.6019 394.032 93.624C393.744 93.6964 393.446 93.7168 393.152 93.6841C392.607 93.6131 392.088 93.4139 391.635 93.1027C391.183 92.7916 390.811 92.3774 390.55 91.8944C390.172 91.2069 390.044 90.4095 390.189 89.6384C390.355 88.7877 390.766 88.0039 391.37 87.3824C392.034 86.6771 392.892 86.1851 393.836 85.9686C394.84 85.7281 395.886 85.7281 396.889 85.9686C397.468 86.1075 398.03 86.3066 398.566 86.5627L398.303 86.668C398.987 85.0164 400.276 83.6878 401.905 82.9531C403.206 82.3642 404.662 82.2113 406.056 82.5169C406.977 82.7122 407.848 83.0963 408.613 83.6449C408.815 83.7916 409.006 83.9524 409.185 84.1262C409.305 84.254 409.365 84.3217 409.358 84.3292C409.35 84.3368 409.072 84.1112 408.53 83.7652C407.761 83.2732 406.902 82.936 406.004 82.7726C404.666 82.5195 403.282 82.6931 402.048 83.2689C400.515 83.9841 399.305 85.2477 398.657 86.8108L398.581 86.9988L398.393 86.9086C397.882 86.6691 397.348 86.4802 396.799 86.3446C395.854 86.1269 394.872 86.1269 393.927 86.3446C393.052 86.5432 392.255 86.9927 391.633 87.638C391.063 88.2171 390.671 88.948 390.505 89.7436C390.367 90.4332 390.468 91.1493 390.791 91.774C391.027 92.2318 391.364 92.6295 391.777 92.9371C392.19 93.2446 392.668 93.4538 393.175 93.5488C393.553 93.5888 393.935 93.5762 394.31 93.5112Z" fill="#455A64"/>
<path d="M430.782 105.551C430.782 105.551 430.933 105.198 431.113 104.536C431.369 103.6 431.42 102.621 431.264 101.663C431.048 100.229 430.335 98.9168 429.248 97.9561C428.58 97.3662 427.799 96.9191 426.952 96.6424C426.105 96.3656 425.21 96.265 424.323 96.3468H424.037L424.12 96.0686C424.285 95.4927 424.383 94.8997 424.413 94.3014C424.51 92.2852 423.844 90.3065 422.548 88.7591C421.466 87.5123 420.015 86.6429 418.405 86.2775C417.322 86.0246 416.199 85.9913 415.103 86.1798C414.351 86.3151 413.908 86.4806 413.893 86.443C413.983 86.3813 414.082 86.3332 414.186 86.3001C414.472 86.1888 414.766 86.0984 415.066 86.0294C416.463 85.7235 417.916 85.7927 419.277 86.2298C420.639 86.667 421.861 87.4566 422.819 88.5185C424.2 90.1276 424.911 92.2058 424.804 94.3239C424.774 94.9536 424.668 95.5773 424.488 96.1814L424.285 95.9332C425.224 95.8472 426.17 95.9565 427.064 96.2542C427.959 96.5519 428.782 97.0315 429.482 97.6628C430.61 98.6886 431.335 100.083 431.527 101.596C431.662 102.589 431.567 103.6 431.249 104.551C431.167 104.811 431.061 105.063 430.933 105.303C430.85 105.476 430.798 105.559 430.782 105.551Z" fill="#455A64"/>
<path d="M403.928 92.8651C403.748 92.8128 403.583 92.7173 403.447 92.5868C403.054 92.2602 402.741 91.8488 402.53 91.3836C402.206 90.6788 402.098 89.8936 402.221 89.1276C402.386 88.1945 402.86 87.344 403.567 86.7137C404.265 86.0816 405.133 85.6685 406.064 85.5256C407.323 85.3559 408.601 85.6212 409.689 86.2776C409.989 86.4656 410.132 86.6009 410.117 86.6235C409.507 86.3545 408.879 86.1283 408.237 85.9467C407.543 85.7922 406.826 85.7717 406.124 85.8865C405.284 86.0471 404.504 86.4346 403.868 87.007C403.225 87.5826 402.785 88.3499 402.612 89.1953C402.491 89.8909 402.564 90.6064 402.823 91.2633C403.079 91.8667 403.455 92.4116 403.928 92.8651Z" fill="#455A64"/>
<path d="M414.351 138.368C414.262 138.334 414.181 138.283 414.111 138.218C413.892 138.065 413.688 137.891 413.502 137.699C412.631 136.805 412.012 135.698 411.707 134.488C411.402 133.279 411.422 132.01 411.765 130.81C412.323 129.048 413.534 127.566 415.149 126.667C415.806 126.3 416.52 126.046 417.262 125.915L417.149 126.238C416.625 125.641 416.238 124.936 416.015 124.174C415.791 123.412 415.737 122.61 415.855 121.824C416.032 120.57 416.67 119.428 417.645 118.62C418.277 118.085 419.027 117.706 419.834 117.515C420.048 117.464 420.267 117.434 420.488 117.425C420.638 117.425 420.721 117.425 420.721 117.425C420.721 117.425 420.413 117.485 419.871 117.643C419.106 117.878 418.403 118.278 417.811 118.816C416.915 119.605 416.337 120.693 416.186 121.877C416.095 122.605 416.159 123.345 416.376 124.046C416.592 124.748 416.956 125.395 417.442 125.945L417.675 126.201L417.337 126.268C416.637 126.412 415.965 126.666 415.344 127.02C413.817 127.874 412.666 129.269 412.118 130.931C411.703 132.297 411.726 133.76 412.186 135.112C412.497 136.028 412.982 136.876 413.615 137.608C414.073 138.082 414.351 138.315 414.351 138.368Z" fill="#455A64"/>
<path d="M414.074 96.2561L413.54 93.8271C411.709 97.3283 411.1 101.341 411.81 105.227C412.141 107.01 412.735 108.935 411.96 110.574C411.434 111.702 410.351 112.469 409.704 113.582C408.952 114.943 409.501 118.53 409.298 119.23C408.84 120.839 407.283 121.869 406.914 123.817C406.546 125.765 407.012 128.103 408.757 129.036C412.051 123.614 415.412 117.981 416.187 111.687C416.848 106.431 415.66 101.197 414.074 96.2561Z" fill="#263238"/>
<path d="M424.045 109.213C424.045 109.213 423.947 109.213 423.759 109.213C423.492 109.201 423.226 109.17 422.962 109.123C421.97 108.975 421.039 108.556 420.27 107.912C419.742 107.45 419.339 106.864 419.097 106.205C418.797 105.434 418.811 104.576 419.134 103.814C419.316 103.392 419.595 103.02 419.948 102.726C420.3 102.432 420.717 102.225 421.165 102.122C421.658 102.019 422.172 102.094 422.616 102.333C422.857 102.462 423.053 102.661 423.178 102.904C423.303 103.147 423.351 103.423 423.316 103.694C423.296 103.843 423.247 103.986 423.171 104.115C423.094 104.244 422.993 104.357 422.872 104.446C422.648 104.593 422.388 104.674 422.12 104.679C421.631 104.691 421.146 104.577 420.714 104.348C419.928 103.949 419.23 103.397 418.661 102.724C417.841 101.784 417.302 100.633 417.105 99.4016C416.908 98.1703 417.061 96.9084 417.548 95.7601C417.656 95.5157 417.781 95.2795 417.924 95.0533C418.022 94.8953 418.082 94.8201 418.089 94.8277C418.097 94.8352 417.924 95.1736 417.691 95.8203C417.371 96.7292 417.24 97.6941 417.307 98.6553C417.398 99.7779 417.775 100.858 418.402 101.794C419.028 102.73 419.884 103.49 420.887 104.002C421.258 104.203 421.675 104.304 422.097 104.295C422.288 104.306 422.475 104.249 422.628 104.135C422.781 104.021 422.888 103.857 422.932 103.671C422.953 103.477 422.915 103.281 422.824 103.108C422.733 102.936 422.592 102.794 422.421 102.701C422.058 102.511 421.641 102.453 421.24 102.536C420.851 102.626 420.488 102.805 420.18 103.06C419.872 103.314 419.627 103.637 419.465 104.002C419.17 104.679 419.146 105.444 419.398 106.138C419.615 106.752 419.979 107.305 420.458 107.747C421.182 108.378 422.054 108.815 422.992 109.018C423.662 109.153 424.045 109.183 424.045 109.213Z" fill="#455A64"/>
</svg>
