<svg width="500" height="500" viewBox="0 0 500 500" fill="none" xmlns="http://www.w3.org/2000/svg">
<path d="M156.22 37.5195H34.2803V239.36H156.22V37.5195Z" fill="#E0E0E0"/>
<path d="M152.16 37.5195H30.2197V239.36H152.16V37.5195Z" fill="#EBEBEB"/>
<path d="M146.969 41.6094H35.4194V235.259H146.969V41.6094Z" fill="#FAFAFA"/>
<path d="M125.24 66.7695H56.6499V210.09H125.24V66.7695Z" fill="#EBEBEB"/>
<path d="M56.6495 159.38C56.4895 145.99 68.5295 132.92 81.7895 131.05C88.1095 130.16 94.7895 131.41 100.74 128.99C111.28 124.67 114.64 110.66 125.25 106.5L125.73 210.1H56.6495V159.38Z" fill="#E0E0E0"/>
<path d="M424.101 93.6822L414.091 93.7363L414.361 143.536L424.371 143.481L424.101 93.6822Z" fill="#E0E0E0"/>
<path d="M353.313 93.807L327.393 93.9473L327.542 121.437L353.461 121.297L353.313 93.807Z" fill="#EBEBEB"/>
<path d="M379.111 93.6762L353.192 93.8164L353.341 121.306L379.26 121.166L379.111 93.6762Z" fill="#F5F5F5"/>
<path d="M327.43 101.569C344.65 101.709 361.92 101.569 379.14 101.329C379.204 101.317 379.262 101.283 379.303 101.232C379.345 101.182 379.367 101.119 379.367 101.054C379.367 100.989 379.345 100.926 379.303 100.876C379.262 100.825 379.204 100.791 379.14 100.779C361.913 100.679 344.677 100.782 327.43 101.089C327.366 101.089 327.305 101.114 327.26 101.159C327.215 101.204 327.19 101.265 327.19 101.329C327.19 101.393 327.215 101.454 327.26 101.499C327.305 101.544 327.366 101.569 327.43 101.569Z" fill="#E0E0E0"/>
<path d="M358.329 120.849L311.24 121.104L311.361 143.503L358.45 143.248L358.329 120.849Z" fill="#EBEBEB"/>
<path d="M405.187 120.595L358.098 120.85L358.219 143.249L405.308 142.995L405.187 120.595Z" fill="#F5F5F5"/>
<path d="M311.26 127.35C342.54 127.71 373.93 127.35 405.21 126.89C405.274 126.878 405.332 126.844 405.373 126.793C405.415 126.743 405.437 126.68 405.437 126.615C405.437 126.55 405.415 126.487 405.373 126.437C405.332 126.387 405.274 126.352 405.21 126.34C373.93 126.17 342.54 126.19 311.26 126.88C311.206 126.891 311.158 126.921 311.123 126.964C311.088 127.006 311.069 127.06 311.069 127.115C311.069 127.17 311.088 127.224 311.123 127.267C311.158 127.309 311.206 127.339 311.26 127.35Z" fill="#E0E0E0"/>
<path d="M476.079 143.52H293.649V151.55H476.079V143.52Z" fill="#E0E0E0"/>
<path d="M330.93 147.38H323.52V174.77H330.93V147.38Z" fill="#E0E0E0"/>
<path d="M441.48 147.38H434.07V174.77H441.48V147.38Z" fill="#E0E0E0"/>
<path d="M433.87 75.1099L423.86 75.1641L424.23 143.653L434.24 143.599L433.87 75.1099Z" fill="#EBEBEB"/>
<path d="M449.509 87.8651L433.959 87.9492L434.259 143.448L449.809 143.364L449.509 87.8651Z" fill="#F5F5F5"/>
<path d="M449.39 98.5786C444.213 98.9386 439.017 98.9386 433.84 98.5786C439.017 98.2186 444.213 98.2186 449.39 98.5786Z" fill="#E0E0E0"/>
<path d="M449.39 96.2505C444.213 96.6105 439.017 96.6105 433.84 96.2505C439.017 95.8905 444.213 95.8905 449.39 96.2505Z" fill="#E0E0E0"/>
<path d="M449.39 134.999C444.213 135.359 439.017 135.359 433.84 134.999C439.017 134.639 444.213 134.639 449.39 134.999Z" fill="#E0E0E0"/>
<path d="M449.39 132.709C444.212 133.056 439.017 133.056 433.84 132.709C439.017 132.349 444.213 132.349 449.39 132.709Z" fill="#E0E0E0"/>
<path d="M441.87 127.619C441.72 127.619 441.6 122.019 441.6 115.109C441.6 108.199 441.72 102.609 441.87 102.609C442.02 102.609 442.14 108.199 442.14 115.109C442.14 122.019 442 127.619 441.87 127.619Z" fill="#E0E0E0"/>
<path d="M466.49 101.51H449.56V143.4H466.49V101.51Z" fill="#EBEBEB"/>
<path d="M431.59 86.83C431.6 87.4017 431.439 87.9633 431.129 88.4435C430.818 88.9236 430.372 89.3005 429.847 89.5262C429.322 89.7518 428.741 89.8161 428.179 89.7106C427.617 89.6052 427.099 89.335 426.692 88.9342C426.284 88.5335 426.004 88.0205 425.889 87.4605C425.774 86.9005 425.828 86.3189 426.044 85.7898C426.261 85.2606 426.63 84.8078 427.105 84.4891C427.579 84.1704 428.138 84.0001 428.71 84C429.466 83.9973 430.192 84.293 430.731 84.8229C431.271 85.3528 431.579 86.0741 431.59 86.83Z" fill="#E0E0E0"/>
<path d="M429.6 94.7402H427.82V135.48H429.6V94.7402Z" fill="#E0E0E0"/>
<path d="M173.789 412.599C173.789 412.599 164.619 419.599 173.399 428.809C173.474 428.888 173.564 428.95 173.664 428.993C173.764 429.036 173.871 429.058 173.979 429.059L254.089 428.589C254.089 428.589 260.929 420.919 255.249 412.079L173.789 412.599Z" fill="#EBEBEB"/>
<path d="M236.38 419.889C236.38 419.979 226.38 420.049 214.11 420.049C201.84 420.049 191.83 419.979 191.83 419.889C191.83 419.799 201.83 419.729 214.11 419.729C226.39 419.729 236.38 419.799 236.38 419.889Z" fill="#E0E0E0"/>
<path d="M223.92 422.789C223.92 422.879 219.24 422.949 213.45 422.949C207.66 422.949 202.98 422.879 202.98 422.789C202.98 422.699 207.67 422.619 213.45 422.619C219.23 422.619 223.92 422.699 223.92 422.789Z" fill="#E0E0E0"/>
<path d="M244.57 428.33C244.57 428.33 244.75 427.41 245 425.93C245.32 424 245.474 422.046 245.46 420.09C245.44 418.13 245.25 416.176 244.89 414.25C244.61 412.77 244.37 411.87 244.42 411.85C244.518 412.048 244.595 412.255 244.65 412.47C244.836 413.037 244.99 413.615 245.11 414.2C245.539 416.131 245.767 418.101 245.79 420.08C245.801 422.057 245.61 424.031 245.22 425.97C245.07 426.71 244.92 427.31 244.8 427.71C244.68 428.11 244.6 428.34 244.57 428.33Z" fill="#E0E0E0"/>
<path d="M250.55 412C250.697 412.175 250.818 412.371 250.91 412.58C251.042 412.814 251.162 413.054 251.27 413.3C251.421 413.626 251.555 413.96 251.67 414.3C251.998 415.161 252.255 416.047 252.44 416.95C252.649 418.062 252.766 419.189 252.79 420.32C252.787 421.453 252.687 422.584 252.49 423.7C252.323 424.608 252.082 425.501 251.77 426.37C251.65 426.75 251.5 427.07 251.38 427.37C251.279 427.617 251.162 427.858 251.03 428.09C250.942 428.3 250.827 428.498 250.69 428.68C250.63 428.68 251.08 427.79 251.56 426.31C252.178 424.371 252.482 422.345 252.46 420.31C252.446 419.196 252.339 418.086 252.14 416.99C251.974 416.095 251.747 415.213 251.46 414.35C251 412.86 250.5 412 250.55 412Z" fill="#E0E0E0"/>
<path d="M186.43 428.439C186.282 428.276 186.154 428.094 186.05 427.899C185.913 427.687 185.789 427.467 185.68 427.239C185.521 426.94 185.378 426.633 185.25 426.319C184.911 425.503 184.65 424.655 184.47 423.789C184.259 422.726 184.156 421.644 184.16 420.559C184.184 419.475 184.318 418.396 184.56 417.339C184.762 416.481 185.047 415.644 185.41 414.839C185.542 414.528 185.692 414.224 185.86 413.929C185.971 413.699 186.102 413.478 186.25 413.269C186.48 412.919 186.62 412.729 186.64 412.749C186.66 412.769 186.18 413.549 185.64 414.929C185.313 415.733 185.056 416.562 184.87 417.409C184.653 418.45 184.529 419.507 184.5 420.569C184.501 421.629 184.595 422.686 184.78 423.729C184.95 424.579 185.184 425.415 185.48 426.229C186 427.619 186.48 428.409 186.43 428.439Z" fill="#E0E0E0"/>
<path d="M177.78 430.389C177.614 430.211 177.476 430.009 177.37 429.789C177.226 429.536 177.103 429.272 177 428.999C176.818 428.675 176.655 428.342 176.51 427.999C176.124 427.085 175.819 426.138 175.6 425.169C175.041 422.794 174.986 420.327 175.44 417.929C175.616 416.951 175.881 415.99 176.23 415.059C176.36 414.659 176.53 414.319 176.66 414.009C176.775 413.746 176.906 413.489 177.05 413.239C177.156 413.017 177.283 412.806 177.43 412.609C177.49 412.609 176.98 413.559 176.43 415.139C176.12 416.066 175.883 417.016 175.72 417.979C175.532 419.16 175.445 420.354 175.46 421.549C175.512 423.728 175.935 425.882 176.71 427.919C177.28 429.469 177.83 430.359 177.78 430.389Z" fill="#E0E0E0"/>
<path d="M251.15 453V468.32H221.49V453H251.15Z" fill="#EBEBEB"/>
<path d="M155.35 460.789C155.35 460.929 155.35 461.059 155.35 461.199C155.493 463.437 156.486 465.534 158.126 467.063C159.766 468.591 161.928 469.434 164.17 469.419H252.51V468.309H231.51C229.478 468.309 227.53 467.502 226.093 466.066C224.657 464.629 223.85 462.681 223.85 460.649C223.85 458.618 224.657 456.669 226.093 455.233C227.53 453.796 229.478 452.989 231.51 452.989H252.51V451.359L164.15 451.659C162.967 451.663 161.797 451.904 160.709 452.368C159.621 452.832 158.638 453.51 157.817 454.362C156.996 455.213 156.355 456.221 155.931 457.325C155.507 458.429 155.31 459.607 155.35 460.789Z" fill="#E0E0E0"/>
<path d="M251.15 460.849C251.15 460.939 245.05 461.019 237.53 461.019C230.01 461.019 223.91 460.939 223.91 460.849C223.91 460.759 230.01 460.689 237.53 460.689C245.05 460.689 251.15 460.769 251.15 460.849Z" fill="#E0E0E0"/>
<path d="M250.72 464.309C250.72 464.399 244.95 464.469 237.83 464.469C230.71 464.469 224.94 464.399 224.94 464.309C224.94 464.219 230.71 464.149 237.83 464.149C244.95 464.149 250.72 464.219 250.72 464.309Z" fill="#E0E0E0"/>
<path d="M251.15 467.47C251.15 467.56 245.96 467.63 239.56 467.63C233.16 467.63 227.97 467.56 227.97 467.47C227.97 467.38 233.16 467.31 239.56 467.31C245.96 467.31 251.15 467.38 251.15 467.47Z" fill="#E0E0E0"/>
<path d="M251.15 457.75C251.15 457.84 245.15 457.91 237.81 457.91C230.47 457.91 224.47 457.84 224.47 457.75C224.47 457.66 230.47 457.59 237.81 457.59C245.15 457.59 251.15 457.66 251.15 457.75Z" fill="#E0E0E0"/>
<path d="M250.719 454.649C250.719 454.739 245.399 454.809 238.849 454.809C232.299 454.809 226.969 454.739 226.969 454.649C226.969 454.559 232.289 454.489 238.849 454.489C245.409 454.489 250.719 454.559 250.719 454.649Z" fill="#E0E0E0"/>
<path d="M166.06 451.91C165.374 452.601 164.745 453.347 164.18 454.14C162.839 456.075 162.133 458.38 162.16 460.734C162.187 463.088 162.945 465.376 164.33 467.28C164.918 468.057 165.563 468.789 166.26 469.47C166.033 469.338 165.821 469.18 165.63 469C165.082 468.527 164.586 467.998 164.15 467.42C162.679 465.5 161.869 463.154 161.842 460.735C161.815 458.316 162.572 455.953 164 454C164.42 453.413 164.903 452.873 165.44 452.39C165.624 452.204 165.833 452.042 166.06 451.91Z" fill="#F5F5F5"/>
<path d="M163.07 451.579C162.392 452.282 161.764 453.03 161.19 453.819C159.854 455.755 159.152 458.058 159.18 460.41C159.209 462.761 159.967 465.046 161.35 466.949C161.934 467.729 162.58 468.461 163.28 469.139C163.046 469.012 162.831 468.853 162.64 468.669C162.092 468.196 161.596 467.666 161.16 467.089C159.689 465.173 158.878 462.831 158.849 460.416C158.821 458 159.575 455.64 161 453.689C161.42 453.099 161.903 452.556 162.44 452.069C162.629 451.881 162.841 451.717 163.07 451.579Z" fill="#F5F5F5"/>
<path d="M223.09 451.91C222.412 452.606 221.787 453.352 221.22 454.14C219.879 456.075 219.173 458.38 219.2 460.734C219.227 463.088 219.985 465.376 221.37 467.28C221.958 468.057 222.603 468.789 223.3 469.47C223.068 469.34 222.853 469.182 222.66 469C222.116 468.526 221.623 467.997 221.19 467.42C219.713 465.504 218.896 463.161 218.862 460.742C218.828 458.323 219.578 455.957 221 454C221.417 453.41 221.9 452.87 222.44 452.39C222.637 452.206 222.856 452.045 223.09 451.91Z" fill="#F5F5F5"/>
<path d="M220.11 451.579C219.425 452.275 218.797 453.024 218.23 453.819C216.888 455.752 216.182 458.055 216.209 460.408C216.236 462.761 216.994 465.047 218.38 466.949C218.968 467.726 219.613 468.458 220.31 469.139C220.083 469.007 219.871 468.849 219.68 468.669C219.13 468.199 218.633 467.669 218.2 467.089C216.729 465.173 215.918 462.831 215.889 460.416C215.861 458 216.615 455.64 218.04 453.689C218.46 453.099 218.943 452.556 219.48 452.069C219.667 451.878 219.879 451.714 220.11 451.579Z" fill="#F5F5F5"/>
<path d="M176.11 463L176.02 456.76C176.052 456.218 175.98 455.675 175.81 455.16C175.719 454.902 175.561 454.673 175.351 454.497C175.142 454.322 174.89 454.205 174.62 454.16C173.84 453.81 172.62 454.46 172.08 455.36C171.601 456.305 171.391 457.363 171.47 458.42C171.45 460.063 171.53 461.706 171.71 463.34C171.744 464.125 171.941 464.895 172.29 465.6C172.445 465.964 172.712 466.27 173.052 466.474C173.392 466.678 173.788 466.77 174.182 466.735C174.577 466.701 174.951 466.542 175.251 466.283C175.55 466.023 175.76 465.676 175.85 465.29C176.082 464.55 176.17 463.773 176.11 463Z" fill="#F5F5F5"/>
<path d="M210.419 461.15C210.419 461.24 204.029 461.32 196.159 461.32C188.289 461.32 181.889 461.24 181.889 461.15C181.889 461.06 188.279 460.99 196.159 460.99C204.039 460.99 210.419 461.06 210.419 461.15Z" fill="#F5F5F5"/>
<path d="M170.19 451.3L170.03 436.77H177.94L178.21 451.3H170.19Z" fill="#F5F5F5"/>
<path d="M177.47 439.35C176.251 439.517 175.019 439.574 173.79 439.52C172.564 439.574 171.336 439.517 170.12 439.35C171.336 439.19 172.564 439.136 173.79 439.19C175.019 439.136 176.25 439.19 177.47 439.35Z" fill="#E0E0E0"/>
<path d="M177.47 441.6C176.25 441.761 175.019 441.814 173.79 441.76C172.564 441.814 171.336 441.761 170.12 441.6C171.336 441.44 172.564 441.386 173.79 441.44C175.019 441.386 176.25 441.44 177.47 441.6Z" fill="#E0E0E0"/>
<path d="M177.47 443.84C176.25 444 175.019 444.053 173.79 444C172.564 444.053 171.336 444 170.12 443.84C171.336 443.679 172.564 443.626 173.79 443.68C175.019 443.626 176.25 443.679 177.47 443.84Z" fill="#E0E0E0"/>
<path d="M177.47 446.08C176.25 446.24 175.019 446.294 173.79 446.24C172.564 446.294 171.336 446.24 170.12 446.08C171.336 445.919 172.564 445.866 173.79 445.92C175.019 445.866 176.25 445.919 177.47 446.08Z" fill="#E0E0E0"/>
<path d="M177.47 448.319C176.251 448.486 175.019 448.543 173.79 448.489C172.564 448.543 171.336 448.486 170.12 448.319C171.337 448.164 172.564 448.111 173.79 448.159C175.019 448.111 176.25 448.164 177.47 448.319Z" fill="#E0E0E0"/>
<path d="M169.61 436.379H257.27C258.276 441.567 258.276 446.901 257.27 452.089H170V450.999H175.34C175.67 450.999 175.998 450.934 176.303 450.807C176.608 450.68 176.885 450.494 177.118 450.26C177.351 450.026 177.536 449.748 177.662 449.443C177.787 449.137 177.851 448.809 177.85 448.479V439.789C177.851 439.458 177.787 439.131 177.662 438.825C177.536 438.52 177.351 438.242 177.118 438.008C176.885 437.773 176.608 437.588 176.303 437.461C175.998 437.334 175.67 437.269 175.34 437.269H169.63L169.61 436.379Z" fill="#EBEBEB"/>
<path d="M190.329 444.249H191.789C191.842 444.234 191.897 444.234 191.949 444.249C191.999 444.274 192.041 444.313 192.069 444.361C192.097 444.409 192.111 444.464 192.109 444.519C192.115 444.552 192.115 444.586 192.109 444.619C192.109 444.739 192.049 444.859 192.009 444.989C191.834 445.603 191.519 446.168 191.089 446.639C190.939 446.828 190.751 446.983 190.538 447.095C190.324 447.207 190.09 447.273 189.849 447.289H189.669C189.46 447.251 189.261 447.166 189.088 447.042C188.915 446.917 188.772 446.756 188.669 446.569C188.365 446.034 188.216 445.424 188.239 444.809C188.242 444.384 188.299 443.96 188.409 443.549C188.57 442.928 188.867 442.351 189.279 441.859C189.434 441.652 189.633 441.482 189.861 441.361C190.089 441.24 190.341 441.171 190.599 441.159C190.789 441.159 190.977 441.199 191.149 441.279C191.564 441.511 191.872 441.894 192.009 442.349C192.019 442.399 192.019 442.45 192.009 442.499C192.023 442.548 192.023 442.6 192.009 442.649C191.983 442.697 191.943 442.738 191.896 442.766C191.849 442.794 191.794 442.809 191.739 442.809C191.707 442.82 191.672 442.82 191.639 442.809C191.593 442.797 191.55 442.773 191.515 442.739C191.48 442.706 191.454 442.665 191.439 442.619C191.395 442.495 191.335 442.377 191.259 442.269C191.187 442.147 191.084 442.046 190.962 441.974C190.84 441.902 190.701 441.863 190.559 441.859C190.385 441.861 190.216 441.92 190.079 442.029C189.712 442.332 189.435 442.73 189.279 443.179C189.058 443.701 188.943 444.262 188.939 444.829C188.925 445.276 189.01 445.72 189.189 446.129C189.244 446.29 189.345 446.43 189.481 446.532C189.617 446.634 189.78 446.692 189.949 446.699C190.091 446.683 190.228 446.636 190.351 446.561C190.473 446.487 190.579 446.388 190.659 446.269C190.995 445.872 191.249 445.414 191.409 444.919C190.739 444.919 190.409 444.919 190.359 444.919C190.266 444.919 190.177 444.882 190.112 444.817C190.046 444.751 190.009 444.662 190.009 444.569V444.459C190.036 444.397 190.081 444.344 190.138 444.307C190.195 444.269 190.261 444.249 190.329 444.249Z" fill="#FAFAFA"/>
<path d="M195.31 441.389C195.31 441.389 195.31 441.459 195.31 441.499C195.37 441.706 195.703 443.516 196.31 446.929C196.315 446.956 196.315 446.983 196.31 447.009C196.323 447.062 196.323 447.117 196.31 447.169C196.287 447.218 196.25 447.259 196.203 447.288C196.157 447.316 196.104 447.33 196.05 447.329H196C195.943 447.319 195.89 447.294 195.847 447.254C195.805 447.215 195.774 447.165 195.76 447.109L195.41 445.299H193.61L192.74 447.119C192.747 447.138 192.747 447.16 192.74 447.179C192.71 447.224 192.67 447.26 192.623 447.286C192.576 447.313 192.523 447.327 192.47 447.329C192.41 447.328 192.351 447.31 192.3 447.279C192.256 447.249 192.221 447.208 192.197 447.161C192.172 447.114 192.16 447.062 192.16 447.009C192.151 446.98 192.151 446.948 192.16 446.919C192.21 446.789 192.3 446.599 192.43 446.329C193.69 443.569 194.43 441.949 194.69 441.449C194.714 441.388 194.755 441.335 194.808 441.296C194.861 441.257 194.924 441.234 194.99 441.229C195.052 441.226 195.115 441.238 195.171 441.267C195.227 441.295 195.275 441.337 195.31 441.389ZM194.92 442.609L193.92 444.659H195.3L194.92 442.609Z" fill="#FAFAFA"/>
<path d="M200.2 447.329H197.56C197.5 447.328 197.441 447.311 197.39 447.279C197.344 447.237 197.307 447.186 197.282 447.129C197.256 447.073 197.242 447.011 197.24 446.949C197.24 446.849 197.48 445.039 197.97 441.549C197.965 441.509 197.965 441.469 197.97 441.429C197.991 441.371 198.031 441.32 198.083 441.286C198.135 441.252 198.197 441.235 198.26 441.239C198.306 441.229 198.354 441.229 198.4 441.239C198.452 441.264 198.496 441.304 198.526 441.354C198.557 441.404 198.572 441.461 198.57 441.519L198.4 442.999C198.1 445.313 197.94 446.533 197.92 446.659H200.17C200.226 446.649 200.284 446.649 200.34 446.659C200.4 446.682 200.452 446.723 200.488 446.777C200.524 446.831 200.542 446.895 200.54 446.959C200.544 446.992 200.544 447.026 200.54 447.059C200.52 447.135 200.476 447.202 200.415 447.251C200.354 447.3 200.278 447.327 200.2 447.329Z" fill="#FAFAFA"/>
<path d="M203.809 441.389C203.809 441.389 203.809 441.459 203.809 441.499C203.869 441.709 204.219 443.499 204.809 446.929C204.814 446.956 204.814 446.983 204.809 447.009C204.807 447.066 204.79 447.121 204.759 447.169C204.736 447.218 204.699 447.26 204.653 447.288C204.607 447.316 204.554 447.331 204.499 447.329H204.449C204.393 447.318 204.341 447.291 204.299 447.252C204.257 447.214 204.226 447.164 204.209 447.109L203.999 445.299H202.199L201.329 447.119C201.334 447.139 201.334 447.16 201.329 447.179C201.296 447.223 201.254 447.259 201.206 447.285C201.157 447.311 201.104 447.326 201.049 447.329C200.989 447.327 200.931 447.31 200.879 447.279C200.836 447.249 200.801 447.209 200.776 447.162C200.752 447.115 200.739 447.062 200.739 447.009C200.735 446.98 200.735 446.949 200.739 446.919C200.789 446.789 200.879 446.599 201.009 446.329C202.269 443.569 203.009 441.949 203.269 441.449C203.294 441.388 203.335 441.335 203.388 441.296C203.441 441.257 203.504 441.234 203.569 441.229C203.618 441.238 203.665 441.257 203.706 441.284C203.747 441.312 203.783 441.348 203.809 441.389ZM203.419 442.609L202.419 444.659H203.799L203.419 442.609Z" fill="#FAFAFA"/>
<path d="M208 444.51L208.48 445.83C208.75 446.59 208.89 446.98 208.89 447.02C208.906 447.072 208.906 447.127 208.89 447.18C208.861 447.225 208.821 447.263 208.774 447.289C208.727 447.316 208.674 447.329 208.62 447.33C208.5 447.33 208.42 447.26 208.36 447.12C208.3 446.98 208.36 447.02 208.31 446.98C208.17 446.65 207.93 445.98 207.6 445.12L206.11 447.12C206.08 447.168 206.039 447.209 205.99 447.238C205.942 447.268 205.887 447.285 205.83 447.29C205.777 447.3 205.723 447.3 205.67 447.29C205.622 447.263 205.583 447.224 205.556 447.176C205.529 447.128 205.517 447.074 205.52 447.02V447C205.554 446.903 205.609 446.814 205.68 446.74C206.18 446.09 206.68 445.32 207.34 444.43C207.28 444.25 207.22 444.09 207.16 443.93C206.6 442.42 206.31 441.64 206.31 441.59C206.301 441.537 206.301 441.482 206.31 441.43C206.335 441.382 206.372 441.342 206.418 441.314C206.464 441.286 206.516 441.27 206.57 441.27C206.63 441.27 206.689 441.287 206.74 441.319C206.791 441.351 206.833 441.396 206.86 441.45L207.75 443.83L209.51 441.43C209.54 441.383 209.582 441.345 209.631 441.319C209.68 441.292 209.734 441.279 209.79 441.28C209.836 441.269 209.884 441.269 209.93 441.28C209.981 441.305 210.024 441.345 210.052 441.395C210.081 441.445 210.094 441.502 210.09 441.56C210.104 441.609 210.104 441.66 210.09 441.71L208 444.51Z" fill="#FAFAFA"/>
<path d="M214.56 441.249C214.606 441.239 214.654 441.239 214.7 441.249C214.751 441.273 214.795 441.311 214.825 441.359C214.855 441.407 214.871 441.463 214.87 441.519C214.44 444.939 214.2 446.779 214.16 447.059C214.085 447.577 213.89 448.07 213.59 448.499C213.305 448.9 212.886 449.185 212.409 449.302C211.931 449.42 211.428 449.362 210.99 449.139C210.597 448.978 210.269 448.689 210.06 448.319C210.051 448.27 210.051 448.219 210.06 448.169C210.045 448.117 210.045 448.062 210.06 448.009C210.085 447.96 210.123 447.918 210.171 447.89C210.219 447.861 210.274 447.847 210.33 447.849C210.377 447.853 210.422 447.866 210.464 447.888C210.505 447.911 210.541 447.942 210.57 447.979C210.717 448.206 210.916 448.395 211.151 448.529C211.386 448.663 211.649 448.738 211.92 448.749C212.115 448.74 212.306 448.688 212.479 448.596C212.652 448.504 212.802 448.376 212.92 448.219C213.28 447.739 213.482 447.159 213.5 446.559C213.399 446.721 213.267 446.861 213.11 446.969C212.839 447.173 212.509 447.282 212.17 447.279H211.99C211.78 447.242 211.581 447.158 211.408 447.033C211.234 446.909 211.092 446.747 210.99 446.559C210.677 446.027 210.525 445.416 210.55 444.799C210.55 444.479 210.55 444.149 210.55 443.799C210.596 443.259 210.716 442.499 210.91 441.519C210.901 441.49 210.901 441.459 210.91 441.429C210.925 441.367 210.961 441.311 211.012 441.271C211.063 441.231 211.125 441.21 211.19 441.209C211.243 441.212 211.295 441.23 211.34 441.259C211.388 441.281 211.429 441.316 211.457 441.36C211.486 441.405 211.5 441.457 211.5 441.509C211.471 441.912 211.421 442.312 211.35 442.709C211.246 443.321 211.18 443.939 211.15 444.559C211.13 445.047 211.209 445.533 211.38 445.989C211.56 446.419 211.82 446.629 212.16 446.629H212.27C212.602 446.524 212.883 446.3 213.06 445.999C213.376 445.563 213.597 445.066 213.71 444.539L214.11 441.539C214.104 441.496 214.104 441.452 214.11 441.409C214.122 441.364 214.145 441.322 214.177 441.288C214.209 441.253 214.248 441.227 214.293 441.211C214.337 441.195 214.384 441.191 214.431 441.197C214.477 441.204 214.522 441.222 214.56 441.249Z" fill="#FAFAFA"/>
<path d="M254 452.29C253.91 452.29 253.83 448.69 253.83 444.24C253.83 439.79 253.91 436.18 254 436.18C254.09 436.18 254.16 439.79 254.16 444.24C254.16 448.69 254.07 452.29 254 452.29Z" fill="#F5F5F5"/>
<path d="M182.24 452.29C182.15 452.29 182.08 448.69 182.08 444.24C182.08 439.79 182.15 436.18 182.24 436.18C182.33 436.18 182.4 439.79 182.4 444.24C182.4 448.69 182.33 452.29 182.24 452.29Z" fill="#E0E0E0"/>
<path d="M255.51 452.29C255.43 452.29 255.35 448.69 255.35 444.24C255.35 439.79 255.43 436.18 255.51 436.18C255.59 436.18 255.68 439.79 255.68 444.24C255.68 448.69 255.6 452.29 255.51 452.29Z" fill="#F5F5F5"/>
<path d="M180.81 452.29C180.72 452.29 180.64 448.69 180.64 444.24C180.64 439.79 180.72 436.18 180.81 436.18C180.9 436.18 180.97 439.79 180.97 444.24C180.97 448.69 180.89 452.29 180.81 452.29Z" fill="#E0E0E0"/>
<path d="M232.72 438.829L241.98 446.299L242.06 446.369H241.96L240.73 446.699L232.91 448.749L225.82 445.749L223.82 444.889L223.29 444.659L223.16 444.599L223.3 444.659L223.83 444.869L225.83 445.709L232.93 448.709L240.75 446.649L241.99 446.319V446.409L232.74 438.919" fill="#E0E0E0"/>
<path d="M241.129 445.119L241.639 445.589L242.319 445.449L242.019 446.069L242.369 446.669L241.679 446.589L241.219 447.099L241.089 446.419L240.459 446.139L241.059 445.809L241.129 445.119Z" fill="#E0E0E0"/>
<path d="M232.25 448.06L232.59 448.35L233.03 448.23L232.86 448.65L233.11 449.02L232.66 448.99L232.38 449.34L232.27 448.91L231.85 448.75L232.23 448.51L232.25 448.06Z" fill="#E0E0E0"/>
<path d="M222.43 444.04L222.98 444.07L223.32 443.64L223.46 444.17L223.98 444.36L223.51 444.65L223.49 445.21L223.06 444.86L222.54 445.01L222.74 444.49L222.43 444.04Z" fill="#E0E0E0"/>
<path d="M245.29 438.949L245.84 438.989L246.18 438.549L246.32 439.089L246.83 439.279L246.37 439.569L246.35 440.119L245.92 439.769L245.39 439.919L245.6 439.409L245.29 438.949Z" fill="#E0E0E0"/>
<path d="M232.27 438.59L232.62 438.61L232.84 438.34L232.93 438.68L233.26 438.8L232.96 438.99L232.95 439.34L232.68 439.11L232.34 439.21L232.47 438.88L232.27 438.59Z" fill="#E0E0E0"/>
<path d="M246.06 439.339C246.06 439.339 243.06 439.269 239.37 439.119C235.68 438.969 232.68 438.799 232.68 438.759C232.68 438.719 235.68 438.829 239.37 438.989C243.06 439.149 246.06 439.299 246.06 439.339Z" fill="#E0E0E0"/>
<path d="M249.429 436.25H160.519C159.359 433.61 159.069 431.1 160.519 428.85H249.429C249.981 430.005 250.267 431.269 250.267 432.55C250.267 433.83 249.981 435.094 249.429 436.25Z" fill="#E0E0E0"/>
<path d="M227.1 430.959H178.93V433.649H227.1V430.959Z" fill="#EBEBEB"/>
<path d="M163.93 436.29C163.636 436.042 163.397 435.736 163.23 435.39C162.776 434.583 162.5 433.688 162.419 432.766C162.338 431.843 162.454 430.914 162.76 430.04C162.859 429.669 163.044 429.326 163.3 429.04C163.212 429.405 163.105 429.766 162.98 430.12C162.747 430.976 162.666 431.866 162.74 432.75C162.827 433.632 163.06 434.494 163.43 435.3C163.626 435.614 163.793 435.946 163.93 436.29Z" fill="#E0E0E0"/>
<path d="M165.86 436.29C165.56 436.049 165.32 435.741 165.16 435.39C164.701 434.586 164.421 433.692 164.34 432.77C164.261 431.846 164.377 430.916 164.68 430.04C164.789 429.673 164.972 429.332 165.22 429.04C165.138 429.407 165.031 429.768 164.9 430.12C164.671 430.977 164.593 431.867 164.67 432.75C164.747 433.634 164.981 434.498 165.36 435.3C165.546 435.62 165.713 435.95 165.86 436.29Z" fill="#E0E0E0"/>
<path d="M245.83 436.109C246.185 434.936 246.396 433.724 246.46 432.499C246.408 431.27 246.21 430.051 245.87 428.869C246.523 429.964 246.839 431.226 246.78 432.499C246.831 433.77 246.5 435.028 245.83 436.109Z" fill="#F5F5F5"/>
<path d="M244.18 436.1C244.08 436.1 244.45 434.51 244.44 432.55C244.43 430.59 244.07 429.03 244.17 429.01C244.963 431.307 244.963 433.803 244.17 436.1H244.18Z" fill="#F5F5F5"/>
<path d="M300.25 401.76L175.32 401.68C171.748 401.679 168.212 400.974 164.912 399.606C161.613 398.238 158.615 396.233 156.09 393.707C153.565 391.18 151.563 388.181 150.197 384.88C148.831 381.579 148.129 378.042 148.13 374.47L148.19 61.2803C148.192 57.7057 148.897 54.1664 150.266 50.8644C151.635 47.5625 153.641 44.5625 156.17 42.0358C158.699 39.5091 161.7 37.5052 165.003 36.1385C168.306 34.7718 171.846 34.069 175.42 34.0703L300.34 34.1503C307.554 34.1556 314.471 37.0244 319.571 42.1264C324.671 47.2284 327.538 54.1463 327.54 61.3603L327.47 374.55C327.47 378.124 326.766 381.663 325.398 384.965C324.03 388.267 322.025 391.267 319.497 393.794C316.969 396.321 313.969 398.325 310.666 399.692C307.364 401.059 303.824 401.762 300.25 401.76Z" fill="#263238"/>
<path d="M299.894 45.1343H275.674C274.883 45.1498 274.104 45.3215 273.38 45.6394C272.656 45.9573 272.002 46.4152 271.455 46.9867C270.909 47.5582 270.481 48.2321 270.196 48.9697C269.91 49.7072 269.774 50.4938 269.794 51.2843V55.6743C269.812 56.4647 269.675 57.2511 269.388 57.9881C269.102 58.7251 268.673 59.3982 268.125 59.9688C267.578 60.5394 266.923 60.9962 266.199 61.3129C265.474 61.6296 264.694 61.8 263.904 61.8143H216.694C215.903 61.7987 215.124 61.627 214.4 61.3091C213.676 60.9912 213.022 60.5333 212.475 59.9618C211.929 59.3903 211.501 58.7164 211.216 57.9789C210.93 57.2413 210.794 56.4547 210.814 55.6643V51.2643C210.839 50.473 210.708 49.6845 210.427 48.9442C210.146 48.204 209.721 47.5267 209.178 46.9513C208.634 46.3759 207.982 45.9138 207.258 45.5916C206.535 45.2695 205.755 45.0936 204.964 45.0743H196.444H175.254C172.749 45.069 170.268 45.5575 167.952 46.5117C165.636 47.466 163.531 48.8673 161.758 50.6356C159.984 52.4039 158.576 54.5044 157.614 56.8172C156.653 59.13 156.156 61.6096 156.154 64.1143L156.094 369.814C156.086 372.314 156.572 374.792 157.523 377.104C158.474 379.416 159.872 381.517 161.638 383.288C163.403 385.059 165.5 386.464 167.809 387.422C170.118 388.381 172.594 388.874 175.094 388.874L299.774 388.944C302.277 388.946 304.756 388.454 307.069 387.497C309.382 386.541 311.483 385.138 313.254 383.369C315.025 381.6 316.43 379.499 317.389 377.187C318.348 374.876 318.843 372.397 318.844 369.894L318.964 64.1943C318.964 61.6904 318.471 59.2111 317.512 56.898C316.554 54.5849 315.149 52.4833 313.378 50.7133C311.607 48.9433 309.504 47.5395 307.191 46.5822C304.877 45.625 302.398 45.1329 299.894 45.1343Z" fill="white"/>
<path d="M320.371 93.8909C320.371 94.0309 283.561 94.1509 238.171 94.1509C192.781 94.1509 156.001 94.0009 156.001 93.8909C156.001 93.7809 192.801 93.6309 238.221 93.6309C283.641 93.6309 320.371 93.7409 320.371 93.8909Z" fill="#263238"/>
<path d="M173.15 82.5598C173.029 82.5611 172.912 82.5184 172.82 82.4399L168.07 78.2698C168.014 78.2243 167.969 78.1662 167.94 78.1002C167.91 78.0342 167.896 77.9621 167.9 77.8898C167.899 77.817 167.915 77.7449 167.946 77.6791C167.977 77.6133 168.023 77.5554 168.08 77.5099L172.83 73.5099C172.932 73.427 173.063 73.3878 173.194 73.4009C173.325 73.414 173.446 73.4783 173.53 73.5799C173.572 73.63 173.604 73.6881 173.624 73.7508C173.643 73.8134 173.65 73.8794 173.643 73.9447C173.637 74.0099 173.617 74.0733 173.586 74.1308C173.554 74.1884 173.511 74.2391 173.46 74.2798L169.17 77.8599L173.47 81.6398C173.52 81.682 173.561 81.7338 173.591 81.7921C173.62 81.8504 173.638 81.9141 173.643 81.9793C173.647 82.0445 173.639 82.1101 173.618 82.172C173.597 82.2339 173.563 82.291 173.52 82.3398C173.48 82.4028 173.425 82.4555 173.361 82.4937C173.297 82.5318 173.225 82.5545 173.15 82.5598Z" fill="#263238"/>
<path d="M276.8 77.6194C276.8 77.7694 261.33 77.8794 242.24 77.8794C223.15 77.8794 207.68 77.7694 207.68 77.6194C207.68 77.4694 223.15 77.3594 242.24 77.3594C261.33 77.3594 276.8 77.4794 276.8 77.6194Z" fill="#263238"/>
<path d="M296.82 77.591C296.82 77.947 296.715 78.295 296.517 78.591C296.319 78.8871 296.038 79.1178 295.709 79.254C295.38 79.3902 295.018 79.4259 294.669 79.3564C294.32 79.287 293.999 79.1155 293.747 78.8638C293.496 78.6121 293.324 78.2913 293.255 77.9422C293.185 77.593 293.221 77.2311 293.357 76.9022C293.493 76.5733 293.724 76.2922 294.02 76.0944C294.316 75.8966 294.664 75.791 295.02 75.791C295.498 75.791 295.955 75.9807 296.293 76.3182C296.631 76.6558 296.82 77.1136 296.82 77.591Z" fill="#263238"/>
<path d="M302 77.591C302 77.9475 301.895 78.2959 301.696 78.5921C301.498 78.8883 301.216 79.119 300.887 79.255C300.557 79.3909 300.195 79.426 299.846 79.3557C299.496 79.2854 299.175 79.113 298.924 78.8603C298.673 78.6075 298.502 78.2859 298.434 77.936C298.365 77.5862 298.403 77.224 298.54 76.8953C298.678 76.5665 298.91 76.2861 299.208 76.0895C299.505 75.8929 299.854 75.7891 300.21 75.791C300.446 75.791 300.68 75.8377 300.898 75.9283C301.116 76.0188 301.313 76.1516 301.48 76.3189C301.646 76.4861 301.778 76.6846 301.867 76.903C301.956 77.1213 302.002 77.3551 302 77.591Z" fill="#263238"/>
<path d="M307.19 77.591C307.19 77.947 307.085 78.295 306.887 78.591C306.689 78.8871 306.408 79.1178 306.079 79.254C305.75 79.3902 305.388 79.4259 305.039 79.3564C304.69 79.287 304.369 79.1155 304.118 78.8638C303.866 78.6121 303.694 78.2913 303.625 77.9422C303.555 77.593 303.591 77.2311 303.727 76.9022C303.864 76.5733 304.094 76.2922 304.39 76.0944C304.686 75.8966 305.034 75.791 305.39 75.791C305.868 75.791 306.326 75.9807 306.663 76.3182C307.001 76.6558 307.19 77.1136 307.19 77.591Z" fill="#263238"/>
<path d="M222.57 161.05C222.57 162.21 222.09 162.91 221.29 162.91C221.102 162.928 220.913 162.879 220.757 162.771C220.601 162.663 220.489 162.503 220.44 162.32C220.306 162.514 220.125 162.67 219.913 162.774C219.701 162.877 219.466 162.924 219.23 162.91C218.801 162.877 218.399 162.683 218.106 162.367C217.814 162.051 217.651 161.636 217.651 161.205C217.651 160.774 217.814 160.359 218.106 160.043C218.399 159.727 218.801 159.533 219.23 159.5C219.441 159.489 219.652 159.526 219.846 159.61C220.04 159.693 220.213 159.819 220.35 159.98V159.54H221.09V161.82C221.09 162.16 221.25 162.28 221.44 162.28C221.8 162.28 222 161.85 222 161.06C222.006 160.729 221.942 160.401 221.812 160.096C221.682 159.792 221.49 159.518 221.248 159.292C221.005 159.067 220.718 158.895 220.405 158.788C220.092 158.681 219.76 158.64 219.43 158.67C219.083 158.639 218.733 158.68 218.403 158.792C218.073 158.903 217.77 159.082 217.512 159.318C217.255 159.553 217.05 159.839 216.909 160.158C216.769 160.477 216.696 160.821 216.696 161.17C216.696 161.518 216.769 161.863 216.909 162.182C217.05 162.501 217.255 162.787 217.512 163.022C217.77 163.257 218.073 163.436 218.403 163.548C218.733 163.659 219.083 163.701 219.43 163.67C219.881 163.672 220.326 163.569 220.73 163.37L220.91 163.91C220.446 164.123 219.94 164.229 219.43 164.22C219.014 164.244 218.598 164.182 218.207 164.04C217.815 163.897 217.457 163.676 217.154 163.39C216.851 163.104 216.61 162.759 216.445 162.376C216.28 161.994 216.195 161.581 216.195 161.165C216.195 160.748 216.28 160.336 216.445 159.954C216.61 159.571 216.851 159.226 217.154 158.94C217.457 158.654 217.815 158.433 218.207 158.29C218.598 158.147 219.014 158.086 219.43 158.11C219.833 158.079 220.239 158.133 220.62 158.267C221.001 158.402 221.351 158.614 221.646 158.89C221.941 159.166 222.176 159.501 222.335 159.873C222.494 160.245 222.574 160.646 222.57 161.05ZM220.36 161.2C220.348 161.005 220.28 160.818 220.163 160.662C220.046 160.505 219.887 160.386 219.703 160.32C219.52 160.253 219.321 160.242 219.131 160.287C218.941 160.332 218.768 160.432 218.635 160.574C218.501 160.716 218.411 160.894 218.377 161.086C218.343 161.278 218.366 161.476 218.443 161.655C218.521 161.834 218.648 161.987 218.811 162.095C218.974 162.202 219.165 162.26 219.36 162.26C219.497 162.26 219.632 162.232 219.757 162.178C219.883 162.124 219.996 162.045 220.089 161.946C220.183 161.847 220.255 161.729 220.302 161.601C220.349 161.473 220.368 161.336 220.36 161.2Z" fill="#263238"/>
<path d="M260.36 162.87C260.36 163.01 253.12 163.13 244.2 163.13C235.28 163.13 228.05 163.01 228.05 162.87C228.05 162.73 235.28 162.6 244.2 162.6C253.12 162.6 260.36 162.72 260.36 162.87Z" fill="#263238"/>
<path d="M196.47 208.571C194.997 208.917 193.463 208.917 191.99 208.571C193.463 208.224 194.997 208.224 196.47 208.571Z" fill="#263238"/>
<path d="M207 219.41C207 219.55 201.6 219.67 194.93 219.67C188.26 219.67 182.87 219.55 182.87 219.41C182.87 219.27 188.27 219.15 194.93 219.15C201.59 219.15 207 219.27 207 219.41Z" fill="#263238"/>
<path d="M245 208.57C242.723 208.834 240.43 208.921 238.14 208.83C235.85 208.921 233.556 208.834 231.28 208.57C233.557 208.313 235.85 208.226 238.14 208.31C240.43 208.226 242.723 208.313 245 208.57Z" fill="#263238"/>
<path d="M249.061 218.83C249.061 218.97 243.531 219.09 236.711 219.09C229.891 219.09 224.351 218.97 224.351 218.83C224.351 218.69 229.881 218.57 236.711 218.57C243.541 218.57 249.061 218.69 249.061 218.83Z" fill="#263238"/>
<path d="M289.8 208.72C286.724 208.978 283.636 209.065 280.55 208.98C277.465 209.065 274.376 208.978 271.3 208.72C274.376 208.457 277.465 208.37 280.55 208.46C283.636 208.37 286.724 208.457 289.8 208.72Z" fill="#263238"/>
<path d="M293.26 219.26C293.26 219.41 287.93 219.52 281.35 219.52C274.77 219.52 269.43 219.41 269.43 219.26C269.43 219.11 274.76 219 281.35 219C287.94 219 293.26 219.12 293.26 219.26Z" fill="#263238"/>
<path d="M258.71 229.521H190.93C189.522 229.521 188.38 230.662 188.38 232.071V247.921C188.38 249.329 189.522 250.471 190.93 250.471H258.71C260.119 250.471 261.26 249.329 261.26 247.921V232.071C261.26 230.662 260.119 229.521 258.71 229.521Z" fill="#46B2C8"/>
<path d="M247.481 240.35C247.481 240.49 238.101 240.61 226.531 240.61C214.961 240.61 205.531 240.49 205.531 240.35C205.531 240.21 214.911 240.09 226.531 240.09C238.151 240.09 247.481 240.2 247.481 240.35Z" fill="white"/>
<path d="M285.741 229.13H269.661C268.352 229.13 267.291 230.191 267.291 231.5V248.23C267.291 249.539 268.352 250.6 269.661 250.6H285.741C287.049 250.6 288.111 249.539 288.111 248.23V231.5C288.111 230.191 287.049 229.13 285.741 229.13Z" fill="#EBEBEB"/>
<path d="M275.45 238.771H279.94L277.89 241.921L275.45 238.771Z" fill="#263238"/>
<path d="M261.26 266.05C261.26 266.2 249.67 266.31 235.38 266.31C221.09 266.31 209.5 266.2 209.5 266.05C209.5 265.9 221.09 265.79 235.38 265.79C249.67 265.79 261.26 265.91 261.26 266.05Z" fill="#E0E0E0"/>
<path d="M276.32 275.8C276.32 275.94 259.32 276.06 238.32 276.06C217.32 276.06 200.32 275.94 200.32 275.8C200.32 275.66 217.32 275.54 238.32 275.54C259.32 275.54 276.32 275.66 276.32 275.8Z" fill="#E0E0E0"/>
<path d="M320.001 292.7C320.001 292.85 283.551 292.97 238.581 292.97C193.611 292.97 157.161 292.85 157.161 292.7C157.161 292.55 193.611 292.44 238.581 292.44C283.551 292.44 320.001 292.56 320.001 292.7Z" fill="#263238"/>
<path d="M240.2 311.67C239.943 308.604 239.856 305.526 239.94 302.45C239.856 299.378 239.943 296.303 240.2 293.24C240.464 296.303 240.551 299.378 240.46 302.45C240.551 305.526 240.464 308.604 240.2 311.67Z" fill="#263238"/>
<path d="M230.09 176.521L225.41 187.26H223.41L218.72 176.521H220.88L224.45 184.801L228.06 176.521H230.09Z" fill="#81DD6A"/>
<path d="M237.922 183.416H231.492C231.61 184.019 231.948 184.557 232.439 184.926C232.93 185.295 233.54 185.47 234.152 185.416C234.564 185.433 234.975 185.363 235.357 185.209C235.74 185.056 236.086 184.823 236.372 184.526L237.372 185.706C236.954 186.158 236.441 186.511 235.871 186.741C235.3 186.971 234.686 187.072 234.072 187.036C231.332 187.036 229.552 185.276 229.552 182.836C229.532 182.273 229.629 181.712 229.837 181.189C230.046 180.666 230.361 180.191 230.762 179.796C231.164 179.401 231.643 179.094 232.17 178.895C232.697 178.695 233.259 178.607 233.822 178.636C234.379 178.616 234.934 178.712 235.451 178.919C235.969 179.125 236.438 179.438 236.827 179.836C237.217 180.234 237.519 180.709 237.715 181.231C237.91 181.753 237.994 182.31 237.962 182.866C237.952 182.996 237.932 183.226 237.922 183.416ZM231.482 182.136H236.122C236.066 181.571 235.796 181.048 235.366 180.676C234.936 180.304 234.38 180.111 233.812 180.136C233.243 180.115 232.687 180.309 232.255 180.68C231.823 181.051 231.547 181.571 231.482 182.136Z" fill="#81DD6A"/>
<path d="M244.71 179.001V180.821C244.566 180.791 244.418 180.774 244.27 180.771C243.938 180.745 243.605 180.794 243.294 180.914C242.983 181.035 242.703 181.223 242.475 181.466C242.247 181.709 242.076 181.999 241.975 182.317C241.873 182.634 241.845 182.97 241.89 183.301V187.301H240V179.111H241.83V180.301C242.159 179.855 242.596 179.502 243.101 179.274C243.605 179.047 244.159 178.952 244.71 179.001Z" fill="#81DD6A"/>
<path d="M246.08 176.571C246.081 176.413 246.114 176.257 246.178 176.113C246.241 175.969 246.333 175.839 246.448 175.731C246.563 175.624 246.699 175.541 246.847 175.487C246.995 175.434 247.153 175.411 247.31 175.421C247.463 175.408 247.618 175.427 247.763 175.477C247.909 175.526 248.043 175.605 248.157 175.708C248.271 175.811 248.363 175.936 248.427 176.076C248.492 176.215 248.526 176.367 248.53 176.521C248.502 176.826 248.361 177.111 248.135 177.318C247.908 177.525 247.612 177.64 247.305 177.64C246.998 177.64 246.702 177.525 246.475 177.318C246.249 177.111 246.108 176.826 246.08 176.521V176.571ZM246.34 179.071H248.26V187.261H246.34V179.071Z" fill="#81DD6A"/>
<path d="M254 175.771C254.612 175.744 255.218 175.9 255.74 176.221L255.2 177.661C254.889 177.443 254.52 177.324 254.14 177.321C253.34 177.321 252.93 177.761 252.93 178.641V179.131H255.19V180.661H253V187.261H251V180.661H249.66V179.131H251V178.611C250.968 178.216 251.025 177.818 251.167 177.448C251.309 177.078 251.532 176.744 251.82 176.472C252.108 176.199 252.453 175.995 252.83 175.873C253.208 175.752 253.607 175.717 254 175.771ZM257.44 176.571C257.441 176.413 257.474 176.257 257.538 176.113C257.601 175.969 257.693 175.839 257.808 175.731C257.923 175.624 258.059 175.541 258.207 175.487C258.355 175.434 258.513 175.411 258.67 175.421C258.823 175.408 258.978 175.427 259.123 175.477C259.269 175.526 259.403 175.605 259.517 175.708C259.631 175.811 259.723 175.936 259.788 176.076C259.852 176.215 259.887 176.367 259.89 176.521C259.863 176.826 259.721 177.111 259.495 177.318C259.268 177.525 258.972 177.64 258.665 177.64C258.358 177.64 258.062 177.525 257.836 177.318C257.609 177.111 257.468 176.826 257.44 176.521V176.571ZM257.7 179.071H259.62V187.261H257.7V179.071Z" fill="#81DD6A"/>
<path d="M269.76 183.781H263.34C263.456 184.383 263.792 184.92 264.281 185.29C264.77 185.659 265.379 185.834 265.99 185.781C266.403 185.794 266.814 185.722 267.198 185.569C267.582 185.415 267.93 185.185 268.22 184.891L269.22 186.071C268.803 186.523 268.291 186.877 267.72 187.107C267.149 187.337 266.534 187.438 265.92 187.401C263.18 187.401 261.4 185.641 261.4 183.201C261.385 182.643 261.484 182.089 261.691 181.571C261.899 181.054 262.211 180.585 262.608 180.193C263.004 179.801 263.477 179.494 263.997 179.293C264.517 179.091 265.073 178.999 265.63 179.021C266.187 179 266.742 179.096 267.259 179.303C267.777 179.51 268.246 179.822 268.635 180.22C269.025 180.618 269.327 181.094 269.523 181.616C269.718 182.138 269.802 182.694 269.77 183.251C269.79 183.361 269.78 183.591 269.76 183.781ZM263.32 182.501H268C267.942 181.934 267.669 181.411 267.238 181.039C266.806 180.668 266.249 180.475 265.68 180.501C265.107 180.474 264.544 180.665 264.107 181.037C263.669 181.408 263.388 181.931 263.32 182.501Z" fill="#81DD6A"/>
<path d="M279.66 175.881V187.261H277.82V186.201C277.485 186.586 277.067 186.89 276.598 187.091C276.129 187.292 275.62 187.384 275.11 187.361C273.999 187.361 272.933 186.919 272.148 186.134C271.362 185.348 270.92 184.282 270.92 183.171C270.92 182.06 271.362 180.994 272.148 180.208C272.933 179.422 273.999 178.981 275.11 178.981C275.603 178.959 276.094 179.046 276.549 179.236C277.003 179.426 277.41 179.715 277.74 180.081V175.881H279.66ZM277.77 183.161C277.747 182.684 277.584 182.225 277.302 181.84C277.02 181.454 276.631 181.16 276.184 180.994C275.737 180.828 275.25 180.796 274.785 180.903C274.32 181.011 273.896 181.252 273.567 181.597C273.238 181.943 273.017 182.378 272.932 182.847C272.847 183.317 272.902 183.801 273.09 184.24C273.278 184.679 273.59 185.053 273.988 185.317C274.386 185.58 274.853 185.72 275.33 185.721C275.663 185.727 275.993 185.664 276.3 185.536C276.607 185.408 276.884 185.218 277.113 184.977C277.342 184.736 277.519 184.451 277.633 184.138C277.746 183.825 277.793 183.493 277.77 183.161Z" fill="#81DD6A"/>
<path d="M203.61 189.95C208.255 189.95 212.02 186.185 212.02 181.54C212.02 176.895 208.255 173.13 203.61 173.13C198.965 173.13 195.2 176.895 195.2 181.54C195.2 186.185 198.965 189.95 203.61 189.95Z" fill="#81DD6A"/>
<path d="M199.811 181.7L200.891 180.62L202.981 182.47L207.071 178.53L208.071 179.61L202.821 184.55L199.811 181.7Z" fill="white"/>
<path d="M239.76 389.09H173.76C169.039 389.074 164.517 387.185 161.188 383.839C157.858 380.492 155.992 375.961 156 371.24V311.67H239.81L239.76 389.09Z" fill="#EBEBEB"/>
<path d="M300.63 389.25L239 389.09V311.67H319.18V370.74C319.078 375.624 317.09 380.279 313.632 383.729C310.174 387.18 305.515 389.158 300.63 389.25Z" fill="#455A64"/>
<path d="M320 311.67C320 311.81 283.55 311.93 238.59 311.93C193.63 311.93 157.17 311.81 157.17 311.67C157.17 311.53 193.61 311.41 238.59 311.41C283.57 311.41 320 311.53 320 311.67Z" fill="#263238"/>
<path d="M237.37 357.001C237.37 357.001 237.28 357.001 237.14 356.861L236.51 356.401L234.13 354.621L225.43 347.981C223.6 346.591 221.58 344.981 219.43 343.411C218.856 343.078 218.2 342.914 217.536 342.937C216.873 342.96 216.23 343.169 215.68 343.541C215.126 344.001 214.604 344.499 214.12 345.031L212.53 346.641L198.53 360.781L197.67 361.651L197.51 361.811L197.33 361.681L189.25 355.681L185.41 352.811C184.886 352.314 184.225 351.985 183.512 351.865C182.8 351.746 182.068 351.842 181.41 352.141C180.793 352.499 180.233 352.947 179.75 353.471L178.17 354.941L175.17 357.741L169.77 362.741L161.94 369.961L159.79 371.901L159.23 372.401C159.103 372.514 159.033 372.564 159.02 372.551C159.068 372.481 159.125 372.417 159.19 372.361L159.72 371.831L161.8 369.831L169.52 362.491L174.88 357.431L177.88 354.621L179.45 353.141L180.25 352.391C180.549 352.12 180.886 351.895 181.25 351.721C181.98 351.368 182.8 351.249 183.6 351.381C184.005 351.444 184.397 351.572 184.76 351.761C185.115 351.95 185.45 352.175 185.76 352.431L189.61 355.281L197.7 361.281H197.36L198.22 360.401L212.22 346.291L213.82 344.691C214.324 344.138 214.869 343.623 215.45 343.151C216.073 342.738 216.8 342.507 217.548 342.486C218.296 342.465 219.034 342.654 219.68 343.031C221.9 344.681 223.84 346.261 225.68 347.681L234.28 354.451L236.61 356.311L237.2 356.811C237.265 356.867 237.322 356.931 237.37 357.001Z" fill="#263238"/>
<path d="M204.66 331C204.6 331 204.66 330.36 204.33 329.25C203.899 327.697 202.963 326.332 201.67 325.37C200.786 324.71 199.758 324.268 198.67 324.08C197.433 323.861 196.161 323.971 194.98 324.4C193.673 324.878 192.538 325.735 191.72 326.86C190.837 328.062 190.361 329.514 190.361 331.005C190.361 332.497 190.837 333.949 191.72 335.15C192.505 336.215 193.571 337.039 194.799 337.531C196.027 338.022 197.368 338.16 198.67 337.93C199.76 337.743 200.788 337.297 201.67 336.63C202.963 335.669 203.899 334.303 204.33 332.75C204.63 331.65 204.6 331 204.66 331C204.675 331.157 204.675 331.314 204.66 331.47C204.661 331.918 204.611 332.364 204.51 332.8C204.138 334.437 203.209 335.894 201.88 336.92C200.965 337.638 199.892 338.128 198.75 338.35C197.363 338.619 195.928 338.489 194.611 337.976C193.294 337.463 192.15 336.587 191.31 335.45C190.356 334.165 189.841 332.606 189.841 331.005C189.841 329.405 190.356 327.846 191.31 326.56C192.19 325.361 193.409 324.452 194.81 323.95C196.074 323.503 197.433 323.399 198.75 323.65C199.891 323.877 200.962 324.367 201.88 325.08C203.207 326.108 204.136 327.564 204.51 329.2C204.611 329.64 204.661 330.089 204.66 330.54C204.675 330.693 204.675 330.847 204.66 331Z" fill="#263238"/>
<path d="M316.701 354.52C316.701 354.52 316.621 354.52 316.481 354.38L315.881 353.93L313.581 352.14L305.191 345.49C303.431 344.1 301.491 342.49 299.421 340.92C298.867 340.587 298.227 340.428 297.582 340.461C296.937 340.495 296.317 340.721 295.801 341.11C295.275 341.576 294.777 342.074 294.311 342.6L292.791 344.21L279.401 358.3L278.561 359.17L278.401 359.34L278.211 359.2L270.421 353.2L266.721 350.33C266.223 349.83 265.579 349.501 264.882 349.389C264.185 349.278 263.47 349.39 262.841 349.71C262.254 350.085 261.72 350.535 261.251 351.05L259.741 352.52L256.851 355.31L251.661 360.31L244.151 367.51L242.091 369.45L241.541 369.94C241.421 370.05 241.351 370.11 241.341 370.1C241.389 370.03 241.446 369.966 241.511 369.91C241.641 369.76 241.811 369.59 242.011 369.38L244.011 367.38L251.411 360.06L256.551 355.01C257.481 354.11 258.431 353.17 259.421 352.2L260.921 350.73L261.691 349.98C261.965 349.712 262.274 349.483 262.611 349.3C263.316 348.927 264.122 348.79 264.911 348.91C265.309 348.968 265.695 349.093 266.051 349.28C266.404 349.472 266.739 349.696 267.051 349.95L270.751 352.81L278.551 358.81H278.201L279.041 357.93L292.461 343.87L293.991 342.27C294.478 341.725 294.999 341.21 295.551 340.73C296.142 340.294 296.849 340.044 297.582 340.01C298.315 339.976 299.042 340.161 299.671 340.54C301.821 342.19 303.671 343.77 305.451 345.19L313.731 351.97L315.961 353.84L316.531 354.33L316.701 354.52Z" fill="#263238"/>
<path d="M282.7 328.771C282.65 328.771 282.7 328.131 282.38 327.031C281.955 325.475 281.018 324.108 279.72 323.151C278.973 322.592 278.122 322.187 277.216 321.959C276.311 321.731 275.37 321.684 274.447 321.822C273.524 321.96 272.637 322.279 271.838 322.761C271.039 323.243 270.343 323.878 269.79 324.631C268.907 325.832 268.431 327.284 268.431 328.776C268.431 330.267 268.907 331.719 269.79 332.921C270.607 334.045 271.743 334.899 273.05 335.371C274.156 335.779 275.348 335.902 276.514 335.727C277.68 335.552 278.783 335.085 279.72 334.371C281.016 333.411 281.952 332.045 282.38 330.491C282.517 329.913 282.624 329.329 282.7 328.741C282.726 328.896 282.726 329.055 282.7 329.211C282.701 329.658 282.651 330.104 282.55 330.541C282.206 332.18 281.305 333.65 280 334.701C279.082 335.411 278.01 335.897 276.87 336.121C275.554 336.382 274.192 336.278 272.93 335.821C271.53 335.323 270.311 334.417 269.43 333.221C268.476 331.935 267.961 330.376 267.961 328.776C267.961 327.175 268.476 325.616 269.43 324.331C270.27 323.194 271.414 322.318 272.731 321.805C274.048 321.291 275.483 321.162 276.87 321.431C278.01 321.654 279.082 322.14 280 322.851C281.329 323.881 282.259 325.341 282.63 326.981C282.731 327.417 282.781 327.863 282.78 328.311C282.781 328.467 282.754 328.623 282.7 328.771Z" fill="#263238"/>
<path d="M240.23 154.49C253.021 154.49 263.39 144.121 263.39 131.33C263.39 118.539 253.021 108.17 240.23 108.17C227.439 108.17 217.07 118.539 217.07 131.33C217.07 144.121 227.439 154.49 240.23 154.49Z" fill="#F5F5F5"/>
<path d="M255.2 148.9C254.805 145.227 253.043 141.836 250.265 139.4C247.487 136.964 243.894 135.661 240.2 135.75C231.98 135.75 226.35 141.97 225.2 148.95C225.2 148.95 230.28 154.57 240.2 154.49C250.12 154.41 255.2 148.9 255.2 148.9Z" fill="#E0E0E0"/>
<path d="M249.654 129.067C250.456 124.102 247.082 119.427 242.117 118.625C237.153 117.822 232.478 121.197 231.675 126.161C230.873 131.126 234.247 135.801 239.212 136.603C244.176 137.406 248.851 134.031 249.654 129.067Z" fill="#E0E0E0"/>
<path d="M255.091 148.11C254.807 146.629 254.333 145.19 253.681 143.83C252.839 142.309 251.727 140.954 250.401 139.83C248.659 138.359 246.653 137.233 244.491 136.51L244.011 136.36L244.451 136.13C245.977 135.3 247.231 134.047 248.061 132.52C248.783 131.175 249.144 129.665 249.108 128.139C249.073 126.613 248.642 125.121 247.859 123.811C247.075 122.501 245.965 121.416 244.637 120.663C243.308 119.91 241.808 119.514 240.281 119.514C238.754 119.514 237.253 119.91 235.925 120.663C234.597 121.416 233.487 122.501 232.703 123.811C231.919 125.121 231.489 126.613 231.453 128.139C231.418 129.665 231.779 131.175 232.501 132.52C232.921 133.3 233.454 134.014 234.081 134.64C234.689 135.225 235.36 135.742 236.081 136.18L236.481 136.43L236.021 136.56C233.807 137.143 231.773 138.267 230.101 139.83C228.832 141.032 227.783 142.447 227.001 144.01C226.497 145.013 226.088 146.061 225.781 147.14C225.671 147.51 225.601 147.8 225.551 147.99C225.538 148.09 225.511 148.188 225.471 148.28C225.453 148.181 225.453 148.079 225.471 147.98C225.471 147.78 225.551 147.48 225.641 147.11C225.903 146.006 226.282 144.934 226.771 143.91C227.529 142.294 228.573 140.827 229.851 139.58C231.535 137.956 233.597 136.778 235.851 136.15L235.791 136.53C235.036 136.085 234.332 135.558 233.691 134.96C233.025 134.306 232.459 133.558 232.011 132.74C231.022 130.895 230.681 128.771 231.044 126.709C231.407 124.647 232.451 122.767 234.011 121.37C235.719 119.831 237.937 118.979 240.236 118.979C242.535 118.979 244.753 119.831 246.461 121.37C247.576 122.373 248.433 123.63 248.957 125.035C249.482 126.44 249.659 127.951 249.473 129.439C249.288 130.927 248.745 132.348 247.891 133.581C247.038 134.814 245.898 135.823 244.571 136.52V136.13C246.778 136.885 248.816 138.064 250.571 139.6C251.914 140.772 253.023 142.186 253.841 143.77C254.127 144.356 254.364 144.965 254.551 145.59C254.706 146.043 254.823 146.508 254.901 146.98C254.951 147.33 254.991 147.62 255.021 147.86C255.051 148.1 255.111 148.11 255.091 148.11Z" fill="#263238"/>
<path d="M263.391 131.331C263.359 131.206 263.343 131.079 263.341 130.951C263.341 130.681 263.341 130.321 263.261 129.861L263.211 129.051C263.211 128.751 263.111 128.431 263.051 128.051C262.947 127.243 262.783 126.444 262.561 125.661C262.018 123.503 261.151 121.439 259.991 119.541C257.244 114.956 252.987 111.472 247.95 109.685C242.914 107.899 237.412 107.922 232.391 109.751C231.362 110.121 230.359 110.562 229.391 111.071C228.412 111.606 227.473 112.211 226.581 112.881C225.666 113.559 224.798 114.297 223.981 115.091C223.173 115.927 222.421 116.815 221.731 117.751C220.31 119.665 219.206 121.796 218.461 124.061C216.887 128.756 216.887 133.836 218.461 138.531C219.206 140.799 220.31 142.932 221.731 144.851C222.424 145.784 223.175 146.672 223.981 147.511C224.798 148.304 225.666 149.042 226.581 149.721C227.476 150.386 228.415 150.991 229.391 151.531C233.992 153.956 239.271 154.776 244.391 153.861C247.606 153.269 250.659 152.004 253.349 150.147C256.04 148.291 258.307 145.886 260.001 143.091C261.163 141.189 262.03 139.122 262.571 136.961C262.793 136.181 262.957 135.385 263.061 134.581C263.121 134.231 263.181 133.911 263.221 133.581L263.271 132.771C263.271 132.311 263.331 131.951 263.351 131.671C263.353 131.546 263.37 131.422 263.401 131.301C263.414 131.427 263.414 131.554 263.401 131.681C263.401 131.951 263.401 132.321 263.401 132.781C263.401 133.031 263.401 133.301 263.401 133.591C263.401 133.881 263.311 134.221 263.271 134.591C263.181 135.404 263.031 136.21 262.821 137.001C262.302 139.193 261.452 141.294 260.301 143.231C258.616 146.083 256.344 148.545 253.635 150.454C250.927 152.362 247.844 153.673 244.591 154.301C240.475 155.071 236.228 154.726 232.291 153.301C231.242 152.923 230.22 152.475 229.231 151.961C228.229 151.415 227.267 150.8 226.351 150.121C225.414 149.428 224.525 148.673 223.691 147.861C222.863 147.011 222.095 146.105 221.391 145.151C219.93 143.192 218.796 141.011 218.031 138.691C217.264 136.301 216.856 133.81 216.821 131.301C216.853 128.787 217.264 126.292 218.041 123.901C218.8 121.583 219.932 119.405 221.391 117.451C222.095 116.493 222.863 115.584 223.691 114.731C224.53 113.926 225.418 113.175 226.351 112.481C227.267 111.801 228.229 111.186 229.231 110.641C230.22 110.126 231.242 109.678 232.291 109.301C236.225 107.876 240.468 107.531 244.581 108.301C247.836 108.926 250.921 110.236 253.631 112.145C256.342 114.053 258.615 116.516 260.301 119.371C261.452 121.304 262.301 123.401 262.821 125.591C263.031 126.385 263.182 127.194 263.271 128.011C263.271 128.361 263.371 128.691 263.401 129.011C263.431 129.331 263.401 129.581 263.401 129.831C263.401 130.291 263.401 130.661 263.401 130.931C263.412 131.064 263.409 131.198 263.391 131.331Z" fill="#263238"/>
<path d="M144.186 236.749C132.026 243.049 122.696 253.899 115.996 265.839C109.296 277.779 104.996 290.889 100.686 303.899L96.9355 370.999C111.086 346.929 122.446 318.629 125.516 290.869L116.096 290.029C122.416 289.029 127.716 284.489 131.096 279.029C134.476 273.569 136.206 267.339 137.896 261.189L126.406 262.889C135.469 256.782 141.836 247.422 144.186 236.749Z" fill="#2EB255"/>
<path d="M144.186 236.749C132.026 243.049 122.696 253.899 115.996 265.839C109.296 277.779 104.996 290.889 100.686 303.899L96.9355 370.999C111.086 346.929 122.446 318.629 125.516 290.869L116.096 290.029C122.416 289.029 127.716 284.489 131.096 279.029C134.476 273.569 136.206 267.339 137.896 261.189L126.406 262.889C135.469 256.782 141.836 247.422 144.186 236.749Z" fill="#2EB255"/>
<path d="M94.836 386.729C94.836 386.729 64.126 349.959 64.476 314.859H76.886C76.886 314.859 63.406 305.999 64.476 301.039C65.546 296.079 65.896 277.279 65.896 277.279L77.246 280.119C77.246 280.119 68.736 275.869 67.666 269.119C66.596 262.369 70.146 231.219 70.146 231.219C70.146 231.219 83.976 245.749 88.236 260.639C92.496 275.529 103.656 292.899 100.376 338.279C97.096 383.659 94.836 386.729 94.836 386.729Z" fill="#2EB255"/>
<path d="M110.416 390.219C110.416 390.219 143.696 368.049 151.086 339.749L141.086 337.039C141.086 337.039 153.866 332.859 154.086 328.639C154.306 324.419 158.086 309.229 158.086 309.229L148.346 309.029C148.346 309.029 156.116 307.469 158.446 302.289C160.776 297.109 164.836 271.219 164.836 271.219C164.836 271.219 150.536 279.889 143.836 290.929C137.136 301.969 124.376 313.489 117.086 350.689C109.796 387.889 110.416 390.219 110.416 390.219Z" fill="#2EB255"/>
<path d="M78.5454 263.219C78.5454 263.219 78.5454 263.349 78.6454 263.599C78.7454 263.849 78.8054 264.259 78.9154 264.729C79.1454 265.729 79.4654 267.229 79.9154 269.099C80.3654 270.969 80.8354 273.319 81.3654 276.019C81.8954 278.719 82.5454 281.799 83.1654 285.209C84.4854 292.029 85.8654 300.209 87.2954 309.209C88.7254 318.209 90.0654 328.279 91.2954 338.799C92.5254 349.319 93.4354 359.379 94.1554 368.529C94.8754 377.679 95.3454 385.939 95.6154 392.869C95.7954 396.339 95.8754 399.479 95.9654 402.239C96.0554 404.999 96.1054 407.369 96.1254 409.309C96.1454 411.249 96.1254 412.729 96.1754 413.779V414.939C96.1754 415.199 96.1754 415.339 96.1754 415.339C96.1587 415.206 96.1587 415.072 96.1754 414.939V413.779C96.1754 412.729 96.0854 411.229 96.0254 409.309C95.9654 407.389 95.8954 404.999 95.7754 402.249C95.6554 399.499 95.5454 396.359 95.3554 392.889C95.0254 385.959 94.4754 377.719 93.7754 368.569C93.0754 359.419 92.0754 349.379 90.8754 338.859C89.6754 328.339 88.2754 318.349 86.8754 309.279C85.4754 300.209 84.1254 292.059 82.8754 285.279C82.2754 281.859 81.6654 278.789 81.1554 276.079C80.6454 273.369 80.1554 271.079 79.7854 269.139C79.4154 267.199 79.1154 265.789 78.9154 264.759C78.8254 264.269 78.7454 263.899 78.6954 263.609C78.6333 263.484 78.583 263.353 78.5454 263.219Z" fill="#263238"/>
<path d="M90.5759 409.219C90.5759 409.219 62.4659 377.349 53.7459 358.069L60.3359 355.219C55.5559 356.009 50.6659 353.959 46.9559 350.839C43.2459 347.719 40.5359 343.619 37.8659 339.579L46.5459 338.109C38.5575 335.841 31.7518 330.579 27.5459 323.419C37.7859 325.109 47.0559 330.729 54.6859 337.769C60.8759 343.459 66.1059 350.069 71.1359 356.829C73.5965 360.117 75.7363 363.633 77.5259 367.329C82.2859 377.119 90.5959 397.529 90.5759 409.219Z" fill="#2EB255"/>
<path d="M151.526 289.789C151.497 289.901 151.453 290.009 151.396 290.109L150.966 291.039C150.556 291.879 149.966 293.039 149.246 294.569C148.526 296.099 147.576 297.979 146.536 300.169C145.496 302.359 144.286 304.839 143.016 307.609C140.416 313.139 137.436 319.759 134.226 327.159C131.016 334.559 127.666 342.779 124.296 351.459C120.926 360.139 117.936 368.459 115.296 376.109C112.656 383.759 110.436 390.659 108.636 396.489C107.716 399.399 106.946 402.049 106.236 404.369C105.526 406.689 104.946 408.689 104.476 410.369C104.006 412.049 103.636 413.249 103.366 414.139L103.066 415.139C103.037 415.253 102.997 415.364 102.946 415.469C102.959 415.351 102.983 415.234 103.016 415.119C103.076 414.869 103.166 414.549 103.266 414.119L104.266 410.319C104.706 408.679 105.266 406.659 105.936 404.319C106.606 401.979 107.366 399.319 108.266 396.419C110.016 390.569 112.266 383.649 114.816 375.999C117.366 368.349 120.436 359.999 123.816 351.309C127.196 342.619 130.586 334.419 133.816 327.009C137.046 319.599 140.076 313.009 142.706 307.499C144.006 304.729 145.236 302.259 146.306 300.079C147.376 297.899 148.306 296.079 149.096 294.519L150.896 291.029L151.376 290.129C151.414 290.011 151.464 289.897 151.526 289.789Z" fill="#263238"/>
<path d="M92.9655 422.909C92.8999 422.718 92.8563 422.52 92.8355 422.319L92.5655 420.629C92.4555 419.889 92.3255 418.989 92.1255 417.949C91.9255 416.909 91.7655 415.719 91.4755 414.419C90.9755 411.809 90.2555 408.729 89.3355 405.329C88.4155 401.929 87.2255 398.269 85.7955 394.469C84.3655 390.669 82.7955 387.139 81.2755 383.969C79.7555 380.799 78.2755 378.029 76.8755 375.739C76.2255 374.569 75.5755 373.559 75.0255 372.659C74.4755 371.759 74.0255 370.979 73.5855 370.359L72.6655 368.909C72.5534 368.744 72.4563 368.57 72.3755 368.389C72.5225 368.524 72.6503 368.679 72.7555 368.849L73.7555 370.249C74.1855 370.849 74.7055 371.609 75.2755 372.499C75.8455 373.389 76.5155 374.389 77.1855 375.549C78.5855 377.819 80.1155 380.609 81.7055 383.759C83.2955 386.909 84.8355 390.479 86.2855 394.279C87.7355 398.079 88.8755 401.799 89.7955 405.209C90.7155 408.619 91.3855 411.729 91.7955 414.349C92.0555 415.659 92.2055 416.859 92.3655 417.909C92.5255 418.959 92.6455 419.859 92.7155 420.599C92.7855 421.339 92.8455 421.859 92.8855 422.309C92.9388 422.504 92.9657 422.706 92.9655 422.909Z" fill="#263238"/>
<path d="M130.056 415.408H68.5361V427.958H130.056V415.408Z" fill="#115766"/>
<path d="M74.3955 427.959L81.0555 470.169H118.226L124.426 427.959H74.3955Z" fill="#115766"/>
<path d="M126.286 427.958C126.286 428.098 114.646 428.218 100.286 428.218C85.9256 428.218 74.2856 428.098 74.2856 427.958C74.2856 427.818 85.9256 427.688 100.286 427.688C114.646 427.688 126.286 427.808 126.286 427.958Z" fill="#263238"/>
<g opacity="0.3">
<path d="M144.186 236.749C132.026 243.049 122.696 253.899 115.996 265.839C109.296 277.779 104.996 290.889 100.686 303.899L96.9355 370.999C111.086 346.929 122.446 318.629 125.516 290.869L116.096 290.029C122.416 289.029 127.716 284.489 131.096 279.029C134.476 273.569 136.206 267.339 137.896 261.189L126.406 262.889C135.469 256.782 141.836 247.422 144.186 236.749Z" fill="black"/>
</g>
<path d="M430.87 290.691C430.87 290.691 441.07 307.621 442.59 323.741C444.11 339.861 433.34 470.121 433.34 470.121H306.44C306.44 470.121 340.44 309.271 351.56 298.951L352.32 288.251L430.87 290.691Z" fill="#263238"/>
<path d="M436.29 303.601C436.318 304.358 436.301 305.116 436.24 305.871C436.094 308.041 435.688 310.187 435.03 312.261C434.002 315.56 432.398 318.651 430.29 321.391C428.977 323.105 427.467 324.659 425.79 326.021C423.898 327.509 421.892 328.846 419.79 330.021C417.6 331.301 415.26 332.541 412.92 334.021C410.468 335.469 408.236 337.261 406.29 339.341C404.303 341.649 402.769 344.313 401.77 347.191C400.772 350.275 400.078 353.45 399.7 356.671C399.25 359.971 398.96 363.381 398.51 366.861C398.106 370.426 397.3 373.935 396.11 377.321C394.82 380.841 392.712 384.004 389.96 386.551C387.081 389.086 383.821 391.155 380.3 392.681C373.3 395.891 365.94 397.941 359.73 401.681C356.685 403.484 354.019 405.861 351.88 408.681C349.925 411.463 348.424 414.538 347.43 417.791C345.43 424.131 344.53 430.461 342.87 436.191C342.65 436.901 342.43 437.611 342.22 438.311C342.01 439.011 341.73 439.681 341.49 440.361C340.977 441.68 340.396 442.971 339.75 444.231C339.16 445.481 338.41 446.621 337.75 447.761C337.38 448.311 337 448.851 336.63 449.381L336.08 450.171L335.48 450.921C332.662 454.518 329.286 457.64 325.48 460.171C322.614 462.086 319.524 463.644 316.28 464.811C314.23 465.53 312.127 466.088 309.99 466.481L308.32 466.731L307.74 466.801L308.31 466.681L309.97 466.381C312.091 465.949 314.176 465.36 316.21 464.621C323.714 461.831 330.292 457.007 335.21 450.691L335.8 449.951L336.35 449.161L337.45 447.551C338.11 446.421 338.85 445.291 339.45 444.041C340.088 442.795 340.659 441.517 341.16 440.211C341.4 439.541 341.63 438.861 341.87 438.211C342.11 437.561 342.3 436.811 342.51 436.101C344.15 430.411 344.99 424.101 347.03 417.671C348.037 414.369 349.559 411.247 351.54 408.421C353.713 405.531 356.431 403.095 359.54 401.251C365.83 397.441 373.17 395.391 380.15 392.191C383.622 390.704 386.839 388.679 389.68 386.191C392.362 383.705 394.418 380.622 395.68 377.191C396.844 373.812 397.622 370.314 398 366.761C398.45 363.301 398.75 359.891 399.21 356.581C399.6 353.33 400.304 350.126 401.31 347.011C402.341 344.079 403.912 341.365 405.94 339.011C407.925 336.91 410.198 335.102 412.69 333.641C415.05 332.201 417.4 330.961 419.58 329.711C421.679 328.532 423.685 327.195 425.58 325.711C427.24 324.374 428.74 322.851 430.05 321.171C432.15 318.47 433.764 315.424 434.82 312.171C435.502 310.115 435.942 307.988 436.13 305.831C436.21 305.091 436.21 304.531 436.24 304.141C436.27 303.751 436.29 303.601 436.29 303.601Z" fill="#455A64"/>
<path d="M439.85 315.441C439.923 315.608 439.987 315.778 440.04 315.951C440.221 316.447 440.365 316.955 440.47 317.471C440.858 319.48 440.82 321.548 440.36 323.541C439.642 326.699 438.224 329.655 436.21 332.191C433.487 335.47 430.396 338.426 427 341.001C423.37 344.001 419.24 347.211 416.07 351.751C414.429 354.082 413.279 356.722 412.69 359.511C412.138 362.483 411.804 365.491 411.69 368.511C411.572 371.722 411.126 374.912 410.36 378.031C409.521 381.283 408.296 384.422 406.71 387.381C403.372 393.631 398.534 398.954 392.63 402.871C386.52 406.871 379.63 408.791 373.58 411.801C370.582 413.211 367.822 415.081 365.4 417.341C363.152 419.581 361.335 422.215 360.04 425.111C357.47 430.771 356.41 436.661 354.98 442.021C354.317 444.627 353.502 447.191 352.54 449.701C351.624 452.011 350.453 454.211 349.05 456.261C347.75 458.104 346.233 459.783 344.53 461.261C343.75 461.991 342.9 462.591 342.11 463.211C341.32 463.831 340.48 464.341 339.64 464.781C336.846 466.42 333.808 467.602 330.64 468.281C328.65 468.696 326.623 468.907 324.59 468.911L323.01 468.831H324.59C326.609 468.777 328.618 468.533 330.59 468.101C333.711 467.388 336.7 466.19 339.45 464.551C340.27 464.111 341.04 463.551 341.87 462.981C342.7 462.411 343.49 461.761 344.26 461.031C345.934 459.548 347.425 457.869 348.7 456.031C350.075 453.996 351.221 451.817 352.12 449.531C353.062 447.033 353.86 444.482 354.51 441.891C355.93 436.551 356.96 430.631 359.51 424.891C360.822 421.937 362.666 419.249 364.95 416.961C367.409 414.662 370.213 412.762 373.26 411.331C379.36 408.281 386.26 406.331 392.26 402.421C400.922 396.677 407.166 387.945 409.8 377.891C410.558 374.801 411.004 371.641 411.13 368.461C411.23 365.41 411.565 362.371 412.13 359.371C412.734 356.527 413.911 353.836 415.59 351.461C418.83 346.871 423.01 343.651 426.65 340.681C430.087 338.154 433.224 335.241 436 332.001C438.009 329.51 439.44 326.603 440.19 323.491C440.654 321.524 440.722 319.485 440.39 317.491C440.1 316.131 439.81 315.451 439.85 315.441Z" fill="#455A64"/>
<path d="M311.05 224.861C311.05 224.861 319.28 281.621 331.94 287.131C338.32 289.921 343.45 287.521 346.94 281.131C350.43 274.741 359.34 228.311 359.34 228.311L334.71 227.731L333.79 236.961L324.29 219.291L311.05 224.861Z" fill="#936760"/>
<path d="M347.36 261.92C347.311 261.761 347.241 261.61 347.15 261.47L346.48 260.23L344 255.68C341.88 251.84 339 246.52 335.79 240.63C332.58 234.74 329.79 229.43 327.72 225.5L325.28 220.91L324.61 219.67C324.45 219.39 324.36 219.24 324.34 219.25C324.385 219.409 324.445 219.563 324.52 219.71L325.12 220.99C325.65 222.1 326.43 223.69 327.42 225.66C329.42 229.58 332.19 234.96 335.42 240.85C338.65 246.74 341.56 252.04 343.75 255.85C344.85 257.75 345.75 259.27 346.4 260.32L347.15 261.52C347.207 261.66 347.277 261.794 347.36 261.92Z" fill="#6F4C47"/>
<path d="M433.19 238.131L426.16 269.58L429.49 290.69H352.23L357.28 192.161L376.54 190.521L423.6 198.471L433.19 238.131Z" fill="#46B2C8"/>
<path d="M413.54 197.901C413.54 197.901 433.66 196.051 443.25 209.741C449.12 218.121 457.35 237.371 457.35 237.371L430.56 242.001L413.54 197.901Z" fill="#46B2C8"/>
<g opacity="0.3">
<path d="M425.74 238.501C424.38 235.72 422.257 233.382 419.619 231.76C416.981 230.138 413.937 229.299 410.84 229.341C409.5 229.341 407.99 229.701 407.28 230.831C406.57 231.961 406.96 233.581 407.48 234.891C408.15 236.601 409.04 238.411 410.68 239.231C411.88 239.831 413.29 239.801 414.58 240.231C416.12 240.823 417.527 241.713 418.72 242.851C419.791 243.649 420.715 244.627 421.45 245.741C421.945 246.686 422.301 247.696 422.51 248.741C423.82 253.881 424.86 264.491 426.16 269.631L427.6 265.201C427.64 260.975 427.677 256.748 427.71 252.521C427.75 247.721 427.75 242.801 425.74 238.501Z" fill="black"/>
</g>
<path d="M401.72 264.721C401.72 264.641 402.72 264.821 404.46 264.951C406.657 265.124 408.865 265.071 411.05 264.791C413.236 264.498 415.387 263.985 417.47 263.261C419.07 262.701 420.03 262.261 420.06 262.331C419.87 262.49 419.657 262.621 419.43 262.721C418.833 263.038 418.219 263.321 417.59 263.571C413.415 265.23 408.892 265.821 404.43 265.291C403.757 265.213 403.09 265.096 402.43 264.941C402.183 264.909 401.942 264.834 401.72 264.721Z" fill="#263238"/>
<path d="M368 266.101C368 265.981 379 269.101 392.41 273.101C405.82 277.101 416.74 280.381 416.7 280.511C416.66 280.641 405.7 277.511 392.28 273.511C378.86 269.511 368 266.231 368 266.101Z" fill="#263238"/>
<g opacity="0.3">
<path d="M402.271 264.851C403.256 266.311 404.621 267.475 406.22 268.217C407.818 268.959 409.589 269.251 411.341 269.061C413.013 268.873 414.596 268.207 415.899 267.143C417.203 266.079 418.172 264.662 418.691 263.061C413.466 265.077 407.806 265.694 402.271 264.851Z" fill="black"/>
</g>
<g opacity="0.3">
<path d="M413.77 279.511L413.49 279.621C406.59 280.851 400.12 279.621 393.49 277.261C386.86 274.901 380.72 271.521 374.61 268.091L413.77 279.511Z" fill="black"/>
</g>
<path d="M357.28 192.161C357.28 192.161 344.54 193.721 339.6 204.601C336.205 212.361 333.332 220.338 331 228.481L357 234.331C357 234.331 361.09 212.331 361.4 204.601C361.75 196.111 362.09 191.911 357.28 192.161Z" fill="#46B2C8"/>
<path d="M354.83 237.811C354.599 235.388 354.526 232.953 354.61 230.521C354.538 228.092 354.621 225.66 354.86 223.241C355.091 225.661 355.164 228.092 355.08 230.521C355.152 232.954 355.068 235.389 354.83 237.811Z" fill="#263238"/>
<path d="M368.94 122.451C375.81 114.051 385.05 109.211 395.94 109.031C402.06 108.931 404.6 110.201 409.01 111.391C413.418 112.457 417.311 115.037 420.01 118.681C423.14 123.121 425.77 128.091 426.36 133.481C426.96 139.031 427.57 144.611 427.15 150.171C426.73 155.731 425.23 161.321 421.95 165.841L407.8 168.301C399.98 168.561 392.06 168.821 384.45 167.041C376.84 165.261 369.45 161.161 365.37 154.491C359.71 145.221 362.06 130.861 368.94 122.451Z" fill="#263238"/>
<path d="M417.66 173.801C417.66 173.801 417.89 174.151 418.51 174.541C419.392 175.089 420.387 175.431 421.42 175.541C422.978 175.714 424.551 175.395 425.92 174.631C427.582 173.625 428.792 172.017 429.298 170.141C429.805 168.266 429.569 166.267 428.64 164.561C427.844 163.214 426.649 162.148 425.22 161.511C424.278 161.085 423.253 160.874 422.22 160.891C421.841 160.865 421.462 160.937 421.12 161.101C422.458 161.155 423.774 161.46 425 162.001C426.259 162.657 427.302 163.664 428 164.901C428.77 166.439 428.946 168.207 428.496 169.867C428.046 171.526 427.001 172.963 425.56 173.901C424.351 174.615 422.962 174.962 421.56 174.901C420.201 174.791 418.876 174.418 417.66 173.801Z" fill="#E0E0E0"/>
<path d="M355.221 163.522C355.356 161.911 355.857 160.353 356.688 158.966C357.518 157.579 358.655 156.401 360.011 155.522C361.389 154.687 362.996 154.312 364.601 154.45C366.206 154.588 367.726 155.233 368.941 156.292L371.171 158.942C372.893 159.742 374.325 161.058 375.265 162.709C376.206 164.359 376.61 166.261 376.421 168.152C376.162 170.035 375.372 171.806 374.143 173.257C372.913 174.707 371.296 175.777 369.481 176.342C367.652 176.855 365.723 176.891 363.877 176.444C362.032 175.998 360.332 175.084 358.941 173.792C357.58 172.476 356.538 170.866 355.893 169.087C355.248 167.307 355.018 165.404 355.221 163.522Z" fill="#263238"/>
<path d="M358 173.061C357.456 172.224 357.19 171.237 357.24 170.241C357.36 168.431 358.67 166.061 360.47 163.891C362.052 162.026 363.977 160.482 366.14 159.341C367.8 158.451 368.94 158.131 368.9 158.011C367.85 158.098 366.828 158.401 365.9 158.901C363.585 159.945 361.534 161.497 359.9 163.441C358.993 164.5 358.224 165.669 357.61 166.921C357.057 167.94 356.746 169.072 356.7 170.231C356.679 171.024 356.899 171.805 357.33 172.471C357.73 172.931 358 173.091 358 173.061Z" fill="#455A64"/>
<path d="M364.871 177.24C365.101 177.24 364.141 172.95 365.501 167.89C366.861 162.83 369.721 159.57 369.501 159.44C368.752 160.018 368.118 160.73 367.631 161.54C366.333 163.419 365.375 165.511 364.801 167.72C364.224 169.928 364.035 172.218 364.241 174.49C364.282 175.438 364.495 176.37 364.871 177.24Z" fill="#455A64"/>
<path d="M407.8 191.251C407.71 186.251 407.59 182.251 407.59 182.251C407.59 182.251 419.13 180.981 422.31 166.201C423.9 158.851 424.19 146.661 424.11 136.691C424.04 127.691 416.39 115.491 405.31 115.451L400.38 114.871L381.52 122.371C380.204 122.433 378.959 122.988 378.032 123.925C377.106 124.863 376.566 126.114 376.52 127.431L376 190.571L394.23 234.831L407.31 217.101L407.8 191.251Z" fill="#936760"/>
<path d="M400.14 162.732C400.25 161.974 400.634 161.284 401.22 160.792C401.757 160.33 402.43 160.058 403.136 160.016C403.843 159.975 404.543 160.166 405.13 160.562C405.739 161.03 406.211 161.652 406.497 162.364C406.784 163.077 406.875 163.852 406.76 164.612C406.437 165.067 406.02 165.447 405.536 165.726C405.053 166.006 404.516 166.178 403.96 166.232C403.784 166.242 403.607 166.242 403.43 166.232C402.55 166.227 401.704 165.892 401.06 165.292C400.723 164.962 400.466 164.561 400.306 164.117C400.147 163.674 400.09 163.2 400.14 162.732Z" fill="#6F4C47"/>
<path d="M416.78 146.891C416.759 147.391 416.543 147.862 416.178 148.204C415.814 148.547 415.33 148.732 414.83 148.721C414.585 148.728 414.342 148.686 414.114 148.597C413.886 148.508 413.678 148.374 413.503 148.203C413.328 148.033 413.189 147.829 413.094 147.603C412.999 147.378 412.95 147.136 412.95 146.891C412.973 146.393 413.19 145.923 413.554 145.581C413.918 145.239 414.401 145.053 414.9 145.061C415.144 145.055 415.388 145.097 415.615 145.186C415.843 145.275 416.051 145.409 416.226 145.579C416.401 145.75 416.541 145.954 416.636 146.179C416.731 146.405 416.78 146.647 416.78 146.891Z" fill="#263238"/>
<path d="M420.44 142.221C420.19 142.451 418.8 141.301 416.74 141.221C414.68 141.141 413.12 142.061 412.91 141.801C412.7 141.541 413.07 141.241 413.75 140.801C414.678 140.236 415.756 139.967 416.84 140.031C417.912 140.088 418.937 140.484 419.77 141.161C420.37 141.651 420.56 142.111 420.44 142.221Z" fill="#263238"/>
<path d="M407.51 157.811C408.611 157.527 409.744 157.386 410.88 157.391C411.41 157.391 411.88 157.291 412.02 156.931C412.099 156.393 412.008 155.845 411.76 155.361C411.33 154.061 410.89 152.691 410.42 151.271C408.58 145.451 407.27 140.681 407.51 140.611C407.75 140.541 409.43 145.191 411.27 151.011C411.71 152.441 412.14 153.811 412.54 155.121C412.838 155.77 412.895 156.504 412.7 157.191C412.616 157.374 412.49 157.535 412.332 157.66C412.173 157.785 411.988 157.871 411.79 157.911C411.495 157.979 411.193 158.006 410.89 157.991C409.761 158.078 408.624 158.017 407.51 157.811Z" fill="#263238"/>
<path d="M407.59 182.241C400.562 181.964 393.749 179.741 387.91 175.821C387.91 175.821 392.66 186.451 407.67 185.871L407.59 182.241Z" fill="#6F4C47"/>
<path d="M401.37 158.901C401.71 158.901 401.59 161.131 403.37 162.821C405.15 164.511 407.59 164.401 407.59 164.711C407.59 164.851 407.04 165.121 406.03 165.091C404.72 165.036 403.471 164.523 402.5 163.641C401.575 162.79 401.012 161.615 400.93 160.361C400.94 159.421 401.22 158.881 401.37 158.901Z" fill="#263238"/>
<path d="M420.001 134.461C419.631 134.941 418.071 134.521 416.221 134.571C414.371 134.621 412.821 135.021 412.441 134.571C412.271 134.341 412.501 133.861 413.161 133.391C414.068 132.802 415.129 132.493 416.211 132.501C417.286 132.464 418.348 132.75 419.261 133.321C420.001 133.751 420.191 134.221 420.001 134.461Z" fill="#263238"/>
<path d="M392.83 146.351C392.805 146.856 392.982 147.35 393.321 147.725C393.661 148.1 394.135 148.325 394.64 148.351C394.882 148.373 395.127 148.346 395.359 148.273C395.592 148.2 395.807 148.081 395.993 147.924C396.179 147.766 396.332 147.574 396.443 147.357C396.554 147.14 396.621 146.904 396.64 146.661C396.664 146.156 396.488 145.661 396.148 145.287C395.809 144.912 395.335 144.687 394.83 144.661C394.587 144.637 394.342 144.663 394.109 144.736C393.876 144.808 393.66 144.927 393.474 145.085C393.288 145.242 393.135 145.435 393.024 145.653C392.913 145.87 392.847 146.107 392.83 146.351Z" fill="#263238"/>
<path d="M392.24 141.481C392.47 141.731 393.94 140.681 396 140.721C398.06 140.761 399.55 141.821 399.78 141.571C400.01 141.321 399.66 141.011 399.01 140.571C398.136 139.938 397.089 139.589 396.01 139.571C394.938 139.545 393.887 139.864 393.01 140.481C392.34 140.921 392.12 141.361 392.24 141.481Z" fill="#263238"/>
<path d="M391.05 137.052C391.45 137.532 393.05 137.052 394.96 137.052C396.87 137.052 398.49 137.432 398.87 136.942C399.03 136.712 398.79 136.242 398.09 135.782C397.13 135.22 396.033 134.936 394.92 134.962C393.815 134.953 392.73 135.258 391.79 135.842C391.11 136.342 390.88 136.822 391.05 137.052Z" fill="#263238"/>
<path d="M379.1 152.491C379.16 151.371 378.02 148.691 376.93 148.491C374.03 147.881 368.73 147.821 368.28 155.261C367.65 165.421 377.98 163.951 378.02 163.661C378.06 163.371 378.9 156.321 379.1 152.491Z" fill="#936760"/>
<path d="M375.45 159.741C375.4 159.741 375.26 159.851 374.95 159.971C374.52 160.123 374.048 160.105 373.63 159.921C372.58 159.461 371.78 157.691 371.84 155.861C371.868 154.986 372.09 154.129 372.49 153.351C372.603 153.038 372.792 152.758 373.039 152.536C373.287 152.314 373.587 152.158 373.91 152.081C374.115 152.041 374.327 152.074 374.51 152.175C374.693 152.275 374.835 152.437 374.91 152.631C375.03 152.921 374.96 153.121 375.01 153.141C375.06 153.161 375.24 152.981 375.18 152.561C375.142 152.306 375.014 152.072 374.82 151.901C374.685 151.78 374.527 151.69 374.354 151.635C374.182 151.579 374 151.561 373.82 151.581C373.397 151.636 372.995 151.799 372.654 152.055C372.312 152.311 372.042 152.65 371.87 153.041C371.387 153.894 371.116 154.851 371.08 155.831C371.02 157.891 371.95 159.831 373.4 160.381C373.667 160.477 373.953 160.511 374.235 160.482C374.517 160.452 374.789 160.36 375.03 160.211C375.41 160.001 375.48 159.761 375.45 159.741Z" fill="#6F4C47"/>
<path d="M376.509 148.481L379.099 151.161C390.249 140.491 412.049 113.761 410.829 115.351C405.747 113.454 400.271 112.859 394.899 113.621C386.599 115.031 370.899 119.181 371.119 128.971C371.339 138.761 376.509 148.481 376.509 148.481Z" fill="#263238"/>
<path d="M376.75 173.801C376.75 173.801 376.52 174.151 375.91 174.541C375.025 175.09 374.026 175.432 372.99 175.541C371.435 175.713 369.865 175.395 368.5 174.631C366.838 173.625 365.628 172.017 365.119 170.142C364.611 168.267 364.844 166.269 365.77 164.561C366.569 163.213 367.768 162.147 369.2 161.511C370.141 161.083 371.166 160.872 372.2 160.891C372.582 160.868 372.963 160.94 373.31 161.101C371.976 161.17 370.666 161.488 369.45 162.041C368.191 162.697 367.149 163.705 366.45 164.941C365.68 166.479 365.503 168.246 365.953 169.906C366.403 171.566 367.449 173.002 368.89 173.941C370.117 174.663 371.528 175.011 372.95 174.941C374.278 174.808 375.568 174.421 376.75 173.801Z" fill="#E0E0E0"/>
<path d="M361.74 146.24C361.775 146.039 361.829 145.841 361.9 145.65C362.084 145.098 362.315 144.563 362.59 144.05C363.641 142.166 365.092 140.535 366.84 139.27C369.434 137.419 372.325 136.025 375.39 135.15C378.79 134.05 382.63 133.15 386.39 131.57C389.929 130.089 393.284 128.203 396.39 125.95C398.935 124.102 401.308 122.026 403.48 119.75C404.937 118.209 406.306 116.586 407.58 114.89L408.58 113.48C408.703 113.306 408.844 113.146 409 113C408.929 113.19 408.831 113.368 408.71 113.53C408.49 113.87 408.19 114.37 407.71 114.99C406.497 116.75 405.16 118.421 403.71 119.99C401.561 122.321 399.193 124.441 396.64 126.32C393.504 128.624 390.103 130.544 386.51 132.04C382.908 133.42 379.237 134.608 375.51 135.6C372.484 136.438 369.618 137.773 367.03 139.55C365.3 140.769 363.839 142.332 362.74 144.14C362 145.45 361.8 146.26 361.74 146.24Z" fill="#455A64"/>
<path d="M364.7 147.841C364.675 147.081 364.811 146.325 365.1 145.621C365.864 143.677 367.195 142.008 368.92 140.831C371.04 139.251 374.07 138.271 377.4 137.511C381.027 136.788 384.562 135.664 387.94 134.161C391.301 132.623 394.458 130.674 397.34 128.361C399.688 126.467 401.845 124.347 403.78 122.031C405.079 120.462 406.278 118.812 407.37 117.091L408.23 115.671C408.324 115.501 408.434 115.34 408.56 115.191C408.508 115.38 408.427 115.558 408.32 115.721C408.12 116.111 407.86 116.601 407.54 117.201C406.508 118.972 405.345 120.664 404.06 122.261C399.793 127.566 394.349 131.805 388.16 134.641C384.751 136.165 381.177 137.292 377.51 138.001C374.18 138.741 371.22 139.661 369.13 141.161C367.438 142.28 366.104 143.863 365.29 145.721C365.028 146.408 364.831 147.118 364.7 147.841Z" fill="#455A64"/>
<path d="M312.08 230.401C311.51 230.191 310.76 222.101 310.76 222.101C310.76 222.101 302.67 215.631 301.57 213.001C300.47 210.371 300.63 204.101 300.63 204.101L313.88 195.101C313.88 195.101 321.71 202.101 323.76 204.861C324.91 206.401 325.76 210.651 326.36 214.091C326.84 217.015 326.951 219.988 326.69 222.941L326.5 225.221C326.5 225.221 321.17 233.781 312.08 230.401Z" fill="#936760"/>
<path d="M302.18 214.59C301.228 213.744 300.323 212.846 299.47 211.9C297.75 210.04 295.84 208.3 297.47 206.33C297.715 206.005 298.026 205.735 298.383 205.538C298.74 205.342 299.134 205.223 299.54 205.19C299.54 205.19 298.54 203.46 299.41 202.37C299.655 202.048 299.974 201.79 300.339 201.616C300.704 201.442 301.106 201.358 301.51 201.37C301.51 201.37 300.22 198.89 301.41 197.22C301.864 196.61 302.478 196.14 303.185 195.86C303.892 195.581 304.662 195.505 305.41 195.64C305.41 195.64 300.04 184.7 299.72 184.14C298.52 182.07 298.63 179.81 301.03 179.56C301.91 179.47 302.67 180.16 304.95 183.56C307.23 186.96 311.05 192.71 311.05 192.71C311.05 192.71 315.22 196.24 317.31 198.22C319.4 200.2 323.77 204.84 324.5 206.22C326.37 209.81 325.97 215.59 325.97 215.59L310.77 222.1C310.77 222.1 303.16 215.46 302.18 214.59Z" fill="#936760"/>
<path d="M300 205.57C300.63 205.942 301.232 206.36 301.8 206.82L303.71 208.24C304.096 208.518 304.458 208.83 304.79 209.17C305.179 209.548 305.432 210.044 305.51 210.58C305.56 210.858 305.534 211.143 305.436 211.407C305.337 211.671 305.17 211.904 304.95 212.08C304.525 212.375 304.001 212.493 303.49 212.41C303.063 212.365 302.641 212.278 302.23 212.15C301.84 212.04 301.49 211.93 301.16 211.82C300.52 211.61 300 211.42 299.65 211.27C299.3 211.12 299.12 211.03 299.13 211C299.14 210.97 299.94 211.23 301.23 211.59C301.979 211.821 302.745 211.991 303.52 212.1C303.947 212.152 304.378 212.053 304.74 211.82C304.91 211.675 305.038 211.487 305.114 211.277C305.189 211.067 305.209 210.84 305.17 210.62C305.094 210.157 304.874 209.73 304.54 209.4C304.233 209.069 303.899 208.765 303.54 208.49L301.67 207C301.073 206.573 300.514 206.095 300 205.57Z" fill="#6F4C47"/>
<path d="M313.23 202.331C312.799 201.566 312.555 200.709 312.52 199.831C312.368 198.968 312.419 198.081 312.67 197.241C312.78 197.241 312.67 198.401 312.86 199.801C313.05 201.201 313.33 202.301 313.23 202.331Z" fill="#6F4C47"/>
<path d="M320.59 203.441C318.656 202.576 316.514 202.288 314.42 202.611C312.335 202.933 310.311 203.574 308.42 204.511C306.9 205.231 305.24 206.291 305.03 207.961C304.82 209.631 306.39 211.231 308.09 211.561C309.82 211.753 311.567 211.404 313.09 210.561C314.601 209.698 316.214 209.026 317.89 208.561" fill="#936760"/>
<path d="M317.91 208.611C317.91 208.611 317.46 208.721 316.67 209.021C315.575 209.469 314.503 209.973 313.46 210.531C312.725 210.91 311.959 211.224 311.17 211.471C310.252 211.773 309.28 211.872 308.32 211.761C307.232 211.62 306.242 211.06 305.56 210.201C305.189 209.751 304.947 209.208 304.86 208.631C304.796 208.027 304.915 207.418 305.2 206.881C305.82 205.902 306.714 205.127 307.77 204.651C308.705 204.182 309.667 203.768 310.65 203.411C312.318 202.787 314.079 202.449 315.86 202.411C317.058 202.382 318.253 202.561 319.39 202.941C319.701 203.044 320.005 203.168 320.3 203.311C320.402 203.358 320.5 203.415 320.59 203.481C320.59 203.481 320.16 203.301 319.35 203.071C318.215 202.754 317.038 202.616 315.86 202.661C314.112 202.742 312.389 203.11 310.76 203.751C309.792 204.107 308.847 204.521 307.93 204.991C306.936 205.441 306.095 206.17 305.51 207.091C305.25 207.556 305.145 208.092 305.21 208.621C305.282 209.138 305.493 209.625 305.82 210.031C306.452 210.822 307.359 211.343 308.36 211.491C309.277 211.598 310.207 211.513 311.09 211.241C311.87 211.007 312.629 210.709 313.36 210.351C314.42 209.812 315.512 209.337 316.63 208.931C316.938 208.83 317.252 208.75 317.57 208.691C317.679 208.649 317.793 208.622 317.91 208.611Z" fill="#6F4C47"/>
<path d="M300.19 205.711C302.72 207.601 305.19 209.811 307.47 211.941C308.094 212.625 308.888 213.132 309.77 213.411C310.48 213.561 311.71 212.411 312.28 211.911L304.11 203.331" fill="#936760"/>
<path d="M304.11 203.331C304.359 203.508 304.587 203.713 304.79 203.941L306.55 205.721C308.04 207.241 310.1 209.371 312.41 211.791L312.53 211.921L312.39 212.041C311.954 212.433 311.497 212.8 311.02 213.141C310.815 213.277 310.597 213.394 310.37 213.491C310.249 213.541 310.121 213.571 309.99 213.581C309.858 213.608 309.722 213.608 309.59 213.581C309.138 213.447 308.714 213.23 308.34 212.941C307.61 212.381 307.03 211.771 306.42 211.231C305.22 210.131 304.14 209.151 303.22 208.341C302.3 207.531 301.53 206.891 301 206.451C300.716 206.235 300.445 206.001 300.19 205.751C300.508 205.919 300.806 206.12 301.08 206.351C301.64 206.751 302.43 207.351 303.37 208.151C304.31 208.951 305.43 209.901 306.63 211.001C307.24 211.531 307.85 212.151 308.54 212.671C308.881 212.934 309.267 213.131 309.68 213.251C309.885 213.275 310.092 213.255 310.289 213.193C310.485 213.131 310.667 213.028 310.82 212.891C311.289 212.559 311.74 212.202 312.17 211.821V212.001C309.86 209.571 307.84 207.411 306.39 205.851L304.7 204.001C304.491 203.79 304.294 203.566 304.11 203.331Z" fill="#6F4C47"/>
<path d="M301.81 200.731L310.05 210.011C310.595 210.704 311.255 211.299 312 211.771C312.374 212.005 312.8 212.141 313.24 212.169C313.68 212.197 314.12 212.115 314.52 211.931C315.018 211.587 315.387 211.086 315.568 210.508C315.749 209.93 315.732 209.308 315.52 208.741C315.075 207.61 314.393 206.587 313.52 205.741C311.034 202.921 308.77 199.912 306.75 196.741" fill="#936760"/>
<path d="M306.77 196.711C306.77 196.711 306.86 196.801 307 197.001L307.6 197.871C308.13 198.621 308.89 199.701 309.87 201.011C310.85 202.321 312.08 203.831 313.5 205.461C314.303 206.277 314.978 207.211 315.5 208.231C315.761 208.807 315.861 209.443 315.79 210.071C315.738 210.736 315.438 211.357 314.95 211.811C314.694 212.028 314.395 212.185 314.071 212.274C313.748 212.362 313.41 212.378 313.08 212.321C312.455 212.228 311.865 211.973 311.37 211.581C310.514 210.823 309.721 209.997 309 209.111L305.21 204.781C304.16 203.571 303.31 202.571 302.68 201.841L302 201.001C301.915 200.91 301.841 200.809 301.78 200.701C301.78 200.701 301.88 200.781 302.05 200.951L302.78 201.721L305.39 204.591L309.24 208.871C309.955 209.735 310.737 210.541 311.58 211.281C312.029 211.636 312.563 211.867 313.13 211.951C313.412 211.998 313.7 211.984 313.976 211.909C314.252 211.835 314.509 211.703 314.73 211.521C315.151 211.122 315.408 210.58 315.45 210.001C315.515 209.434 315.425 208.861 315.19 208.341C314.664 207.345 313.989 206.435 313.19 205.641C311.77 204.001 310.57 202.451 309.61 201.121C308.65 199.791 307.91 198.691 307.42 197.911C307.18 197.521 306.99 197.221 306.87 197.011C306.826 196.915 306.792 196.814 306.77 196.711Z" fill="#6F4C47"/>
<path d="M319.34 218.001C319.033 218.163 318.686 218.236 318.34 218.211C317.528 218.255 316.717 218.111 315.97 217.791C315.207 217.484 314.523 217.009 313.97 216.401C313.728 216.164 313.547 215.872 313.44 215.551C314.158 216.388 315.062 217.045 316.079 217.471C317.097 217.896 318.2 218.078 319.3 218.001H319.34Z" fill="#6F4C47"/>
<path d="M424.13 191.841L421.25 228.181C421.201 228.803 420.909 229.38 420.438 229.789C419.966 230.197 419.352 230.402 418.73 230.361L398.48 229.001C398.163 228.982 397.854 228.9 397.57 228.759C397.286 228.618 397.033 228.421 396.827 228.18C396.621 227.94 396.465 227.66 396.369 227.357C396.274 227.055 396.24 226.737 396.27 226.421L399.58 190.111C399.634 189.495 399.926 188.924 400.395 188.52C400.864 188.116 401.472 187.912 402.09 187.951L421.92 189.241C422.237 189.262 422.547 189.347 422.831 189.49C423.115 189.633 423.368 189.832 423.574 190.074C423.78 190.317 423.935 190.598 424.031 190.901C424.126 191.205 424.16 191.524 424.13 191.841Z" fill="#455A64"/>
<path d="M453.12 238.102C453.12 238.102 459.17 278.982 458.93 284.472C458.69 289.962 452.48 302.152 444.12 303.342C435.76 304.532 427.88 296.892 427.64 286.862C427.4 276.832 426.16 245.112 426.16 245.112L432.4 241.672L453.12 238.102Z" fill="#936760"/>
<path d="M418.67 204.321C418.67 204.321 424.93 208.171 426.78 209.181C428.63 210.191 428.39 217.651 428.39 217.651L438.93 242.151L426.23 246.701C426.23 246.701 421.7 238.131 420.4 237.051C419.51 236.352 418.49 235.835 417.4 235.531C417.4 235.531 416.75 237.911 414.8 236.831C413.253 235.81 411.865 234.567 410.68 233.141C410.68 233.141 408.94 234.231 408.29 232.931C407.64 231.631 406.56 228.811 406.56 228.811C406.56 228.811 410.24 224.041 411.76 224.041C413.28 224.041 421.08 224.471 421.08 224.471C421.08 224.471 420.65 223.821 418.48 222.961C416.31 222.101 403.41 218.291 402.8 218.061C401.89 217.711 400.87 215.341 403.69 215.121C406.51 214.901 422.38 217.741 422.38 217.741C422.38 217.741 423.25 213.641 422.6 212.741C421.95 211.841 416.28 208.221 418.67 204.321Z" fill="#936760"/>
<path d="M410.63 233C410.52 232.41 410.537 231.803 410.68 231.22C410.816 230.542 411.166 229.925 411.68 229.46C412.355 228.971 413.176 228.724 414.01 228.76C415.435 228.669 416.865 228.719 418.28 228.91C418.871 228.949 419.452 229.084 420 229.31C420 229.46 417.32 229.01 414 229.23C413.265 229.194 412.537 229.39 411.92 229.79C411.472 230.191 411.155 230.717 411.01 231.3C410.913 231.873 410.786 232.441 410.63 233Z" fill="#6F4C47"/>
<path d="M413.15 233.731C413.98 234.071 414.791 234.455 415.58 234.881C416.434 235.162 417.269 235.496 418.08 235.881C417.147 235.944 416.215 235.743 415.39 235.301C414.506 235.01 413.727 234.464 413.15 233.731Z" fill="#6F4C47"/>
<path d="M421.63 217.651C422.473 217.779 423.256 218.166 423.869 218.759C424.482 219.353 424.895 220.122 425.05 220.961C424.92 220.961 424.49 219.961 423.54 219.101C422.59 218.241 421.58 217.781 421.63 217.651Z" fill="#6F4C47"/>
<path d="M313.421 436.421C313.281 436.421 318.741 413.421 325.621 385.141C332.501 356.861 338.181 334.001 338.321 334.001C338.461 334.001 333.001 357.001 326.121 385.291C319.241 413.581 313.561 436.451 313.421 436.421Z" fill="#455A64"/>
<path d="M463.07 469.8C463.07 469.94 367.67 470.06 250.01 470.06C132.35 470.06 36.9204 469.94 36.9204 469.8C36.9204 469.66 132.31 469.54 250.01 469.54C367.71 469.54 463.07 469.65 463.07 469.8Z" fill="#263238"/>
<path d="M413.4 109.179L416.34 98.5692C412.448 92.2632 411.056 84.7293 412.437 77.4488C413.818 70.1683 417.873 63.6678 423.804 59.2254C429.736 54.783 437.114 52.72 444.489 53.4421C451.864 54.1642 458.703 57.6191 463.659 63.1275C468.616 68.636 471.333 75.7995 471.276 83.2096C471.219 90.6198 468.392 97.7406 463.351 103.172C458.31 108.603 451.419 111.952 444.033 112.561C436.648 113.169 429.302 110.993 423.44 106.459L413.4 109.179Z" fill="white"/>
<path d="M413.4 109.18L414.07 108.98L416 108.44L423.42 106.36L423.35 106.55C423.331 106.528 423.32 106.499 423.32 106.47C423.32 106.44 423.331 106.412 423.35 106.39C423.373 106.376 423.399 106.368 423.425 106.368C423.452 106.368 423.478 106.376 423.5 106.39C427.442 109.415 432.087 111.39 437 112.13C440.145 112.613 443.349 112.572 446.48 112.01C452.313 110.997 457.705 108.25 461.954 104.128C466.203 100.006 469.111 94.6992 470.3 88.8998C471.167 84.4705 471.016 79.9024 469.86 75.5398C468.675 70.9835 466.402 66.783 463.235 63.2993C460.068 59.8156 456.103 57.1528 451.68 55.5398C447.138 53.872 442.254 53.351 437.461 54.0228C432.669 54.6946 428.117 56.5386 424.208 59.3912C420.299 62.2437 417.154 66.0168 415.053 70.3758C412.951 74.7347 411.958 79.5449 412.16 84.3798C412.369 89.3633 413.842 94.2119 416.44 98.4698C416.45 98.5023 416.45 98.5372 416.44 98.5698C415.44 101.98 414.71 104.57 414.19 106.4C413.94 107.29 413.74 107.96 413.6 108.4C413.46 108.84 413.39 109.11 413.39 109.11C413.39 109.11 413.44 108.89 413.55 108.44C413.66 107.99 413.85 107.3 414.09 106.44C414.57 104.61 415.29 101.94 416.21 98.4398V98.5398C413.064 93.4811 411.517 87.5907 411.772 81.6389C412.027 75.687 414.073 69.9506 417.64 65.1798C422.215 59.0707 428.954 54.9426 436.474 53.6411C443.995 52.3397 451.728 53.9635 458.09 58.1798C460.073 59.5239 461.892 61.0945 463.51 62.8598C465.141 64.6472 466.561 66.6169 467.74 68.7298C471.038 74.9163 472.098 82.0519 470.74 88.9298C469.534 94.8176 466.575 100.203 462.253 104.379C457.93 108.555 452.446 111.327 446.52 112.33C443.344 112.891 440.096 112.918 436.91 112.41C431.948 111.616 427.268 109.576 423.31 106.48L423.48 106.32C423.491 106.33 423.5 106.342 423.506 106.356C423.512 106.37 423.515 106.385 423.515 106.4C423.515 106.415 423.512 106.43 423.506 106.443C423.5 106.457 423.491 106.469 423.48 106.48L415.93 108.48L414 109L413.4 109.18Z" fill="#263238"/>
<path d="M428.31 83.7906L431.77 80.3206L438.45 86.2606L451.56 73.6406L454.78 77.1106L437.96 92.9406L428.31 83.7906Z" fill="#32BA7C"/>
</svg>
