<svg width="500" height="500" viewBox="0 0 500 500" fill="none" xmlns="http://www.w3.org/2000/svg">
<path d="M466.89 316.2H303V221.36H466.89V316.2ZM304 315.2H465.89V222.36H304V315.2Z" fill="#E0E0E0"/>
<path d="M433.079 271.931H324.949V275.101H433.079V271.931Z" fill="#F0F0F0"/>
<path d="M440.529 283.751H324.949V287.211H440.529V283.751Z" fill="#F0F0F0"/>
<path d="M440.529 295.711H324.949V299.171H440.529V295.711Z" fill="#F0F0F0"/>
<path d="M362.739 254.761H324.949V262.991H362.739V254.761Z" fill="#F0F0F0"/>
<path d="M466.389 221.86H303.529V236.96H466.389V221.86Z" fill="#E0E0E0"/>
<path d="M453.86 234.701C453.65 234.501 455.75 231.971 458.54 229.051C461.33 226.131 463.78 223.921 463.98 224.111C464.18 224.301 462.09 226.841 459.3 229.771C456.51 232.701 454.06 234.901 453.86 234.701Z" fill="white"/>
<path d="M464 234.701C463.8 234.901 461.36 232.701 458.56 229.771C455.76 226.841 453.67 224.311 453.88 224.111C454.09 223.911 456.52 226.111 459.32 229.051C462.12 231.991 464.19 234.501 464 234.701Z" fill="white"/>
<path d="M265.219 34.0508H102.359V127.901H265.219V34.0508Z" fill="#E6E6E6"/>
<path d="M231.92 84.1309H123.79V87.3009H231.92V84.1309Z" fill="#F0F0F0"/>
<path d="M239.37 95.9512H123.79V99.4112H239.37V95.9512Z" fill="#F0F0F0"/>
<path d="M239.37 107.911H123.79V111.371H239.37V107.911Z" fill="#F0F0F0"/>
<path d="M161.58 66.9609H123.79V75.1909H161.58V66.9609Z" fill="#F0F0F0"/>
<path d="M265.219 34.0508H102.359V49.1508H265.219V34.0508Z" fill="#E0E0E0"/>
<path d="M252.139 46.8211C251.929 46.6311 254.029 44.0911 256.819 41.1711C259.609 38.2511 262.059 36.0411 262.259 36.2411C262.459 36.4411 260.369 38.9711 257.579 41.8911C254.789 44.8111 252.339 47.0011 252.139 46.8211Z" fill="white"/>
<path d="M262.26 46.8211C262.06 47.0211 259.62 44.8211 256.82 41.8911C254.02 38.9611 251.93 36.4411 252.14 36.2411C252.35 36.0411 254.78 38.2411 257.58 41.1711C260.38 44.1011 262.47 46.6311 262.26 46.8211Z" fill="white"/>
<path d="M203.54 208.391H39.6797V113.541H203.54V208.391ZM40.6797 207.391H202.54V114.541H40.6797V207.391Z" fill="#E0E0E0"/>
<path d="M169.739 164.121H61.6094V167.291H169.739V164.121Z" fill="#F0F0F0"/>
<path d="M177.189 175.94H61.6094V179.4H177.189V175.94Z" fill="#F0F0F0"/>
<path d="M177.189 187.9H61.6094V191.36H177.189V187.9Z" fill="#F0F0F0"/>
<path d="M99.3994 146.951H61.6094V155.181H99.3994V146.951Z" fill="#F0F0F0"/>
<path d="M203.04 114.041H40.1797V129.141H203.04V114.041Z" fill="#E0E0E0"/>
<path d="M392.65 230.121H200.35V402.281H392.65V230.121Z" fill="#E6E6E6"/>
<path d="M210.02 175.891H59.3799V332.401H210.02V175.891Z" fill="#F0F0F0"/>
<path d="M210.02 175.891H59.3799V192.941H210.02V175.891Z" fill="#E0E0E0"/>
<path d="M71.8198 184.24C71.7924 184.859 71.584 185.455 71.2206 185.956C70.8571 186.457 70.3545 186.84 69.7752 187.058C69.196 187.276 68.5655 187.319 67.962 187.182C67.3585 187.044 66.8086 186.733 66.3806 186.286C65.9525 185.839 65.6652 185.276 65.5542 184.667C65.4432 184.058 65.5134 183.43 65.7561 182.861C65.9989 182.292 66.4034 181.806 66.9196 181.465C67.4358 181.123 68.0409 180.941 68.6598 180.94C69.5157 180.961 70.3284 181.32 70.9205 181.939C71.5126 182.557 71.8359 183.384 71.8198 184.24Z" fill="white"/>
<path d="M84.6498 184.24C84.6243 184.862 84.4167 185.462 84.0528 185.966C83.6889 186.47 83.1848 186.856 82.6032 187.076C82.0216 187.296 81.3882 187.339 80.7819 187.202C80.1755 187.065 79.6229 186.752 79.1929 186.303C78.7629 185.854 78.4745 185.288 78.3634 184.676C78.2524 184.065 78.3238 183.434 78.5686 182.862C78.8134 182.291 79.2208 181.804 79.7402 181.462C80.2597 181.12 80.8681 180.939 81.4898 180.94C82.3457 180.961 83.1584 181.32 83.7505 181.939C84.3426 182.557 84.6659 183.384 84.6498 184.24Z" fill="white"/>
<path d="M97.4799 184.24C97.4544 184.862 97.2468 185.462 96.8829 185.966C96.519 186.47 96.0149 186.856 95.4333 187.076C94.8517 187.296 94.2183 187.339 93.612 187.202C93.0056 187.065 92.453 186.752 92.023 186.303C91.593 185.854 91.3045 185.288 91.1935 184.676C91.0825 184.065 91.1538 183.434 91.3986 182.862C91.6434 182.291 92.0509 181.804 92.5703 181.462C93.0897 181.12 93.6982 180.939 94.3199 180.94C95.1758 180.961 95.9885 181.32 96.5806 181.939C97.1727 182.557 97.496 183.384 97.4799 184.24Z" fill="white"/>
<path d="M445.38 68.2812H253.08V259.941H445.38V68.2812Z" fill="#F0F0F0"/>
<path d="M445.38 68.2812H253.08V90.7313H445.38V68.2812Z" fill="#E0E0E0"/>
<path d="M269.46 79.2816C269.425 80.0978 269.151 80.8856 268.672 81.5473C268.192 82.209 267.53 82.7153 266.765 83.0035C266.001 83.2917 265.169 83.3491 264.372 83.1684C263.575 82.9877 262.849 82.5771 262.284 81.9873C261.718 81.3976 261.339 80.6548 261.192 79.8512C261.045 79.0476 261.138 78.2186 261.458 77.467C261.778 76.7155 262.312 76.0746 262.993 75.6238C263.675 75.1731 264.473 74.9324 265.29 74.9316C266.419 74.9579 267.492 75.4303 268.273 76.2456C269.055 77.0608 269.482 78.1525 269.46 79.2816Z" fill="white"/>
<path d="M285.13 76.3405C285.685 76.9426 286.049 77.6944 286.18 78.5024C286.31 79.3104 286.199 80.1389 285.862 80.8845C285.524 81.6301 284.975 82.2599 284.282 82.6955C283.589 83.1311 282.783 83.3532 281.965 83.3341C281.147 83.315 280.353 83.0556 279.681 82.5882C279.009 82.1207 278.49 81.4659 278.187 80.7054C277.885 79.9449 277.813 79.1122 277.981 78.3111C278.149 77.5101 278.548 76.7761 279.13 76.2005C279.945 75.425 281.034 75.0042 282.159 75.0305C283.284 75.0567 284.352 75.5278 285.13 76.3405Z" fill="white"/>
<path d="M303.239 79.2816C303.204 80.0978 302.93 80.8856 302.451 81.5473C301.972 82.209 301.309 82.7153 300.544 83.0035C299.78 83.2917 298.948 83.3491 298.151 83.1684C297.354 82.9877 296.628 82.5771 296.063 81.9873C295.498 81.3976 295.118 80.6548 294.971 79.8512C294.824 79.0476 294.917 78.2186 295.237 77.467C295.557 76.7155 296.091 76.0746 296.773 75.6238C297.454 75.1731 298.253 74.9324 299.069 74.9316C300.198 74.9579 301.271 75.4303 302.053 76.2456C302.834 77.0608 303.261 78.1525 303.239 79.2816Z" fill="white"/>
<path d="M403.84 453.13C403.84 453.27 334.4 453.39 248.77 453.39C163.14 453.39 93.6699 453.27 93.6699 453.13C93.6699 452.99 163.1 452.87 248.77 452.87C334.44 452.87 403.84 453 403.84 453.13Z" fill="#263238"/>
<path d="M328.405 343.536C312.955 332.746 309.455 312.716 310.065 294.706C310.165 291.706 309.835 288.526 311.265 285.896C312.695 283.266 316.035 281.456 318.725 282.716C320.955 283.766 321.925 286.366 323.175 288.516C324.843 291.38 327.287 293.713 330.225 295.246C332.135 296.246 334.505 296.846 336.395 295.806C338.995 294.376 339.295 290.806 339.275 287.806C339.275 282.226 339.242 276.653 339.175 271.086C338.995 268.097 339.299 265.099 340.075 262.206C341.005 259.366 343.075 256.736 345.905 255.936C348.735 255.136 352.265 256.786 352.905 259.706C353.015 260.943 353.045 262.186 352.995 263.426C353.075 264.676 353.655 266.046 354.825 266.426C355.995 266.806 357.215 265.936 358.115 265.056C361.195 262.056 363.295 258.146 365.245 254.286C367.195 250.426 369.105 246.456 371.905 243.166C374.705 239.876 378.575 237.266 382.905 237.016C387.235 236.766 391.745 239.426 392.825 243.626C393.905 247.826 391.455 252.116 388.825 255.526C384.856 260.588 380.178 265.051 374.935 268.776C373.912 269.335 373.095 270.208 372.605 271.266C371.955 273.266 373.845 275.266 375.815 275.896C378.045 276.636 380.465 276.406 382.815 276.686C385.165 276.966 387.665 277.986 388.555 280.186C389.775 283.246 387.215 286.446 384.705 288.546C379.665 292.746 373.942 296.051 367.785 298.316C365.585 299.116 363.275 299.826 361.495 301.366C359.715 302.906 358.655 305.596 359.725 307.706C360.795 309.816 363.545 310.486 365.855 310.056C368.165 309.626 370.215 308.386 372.415 307.556C376.525 306.006 381.825 306.286 384.415 309.836C385.217 311.059 385.725 312.451 385.899 313.904C386.072 315.356 385.907 316.829 385.415 318.206C384.414 320.948 382.874 323.46 380.885 325.596C374.335 333.422 365.825 339.367 356.225 342.826C346.695 346.126 337.865 347.026 328.395 343.556" fill="#0AA06E"/>
<path d="M388.425 239.486C388.425 239.486 388.335 239.586 388.135 239.766L387.245 240.556C386.465 241.256 385.315 242.276 383.865 243.626C379.754 247.443 375.937 251.565 372.445 255.956C370.215 258.726 367.905 261.866 365.445 265.276C362.985 268.686 360.445 272.366 357.925 276.276C355.239 280.4 352.778 284.666 350.555 289.056C349.395 291.346 348.375 293.736 347.325 296.176L344.225 303.626C340.139 313.01 336.58 322.615 333.565 332.396C331.137 340.399 329.463 348.612 328.565 356.926C327.984 362.538 327.89 368.189 328.285 373.816C328.445 375.816 328.595 377.346 328.735 378.386C328.795 378.886 328.835 379.286 328.875 379.576V379.986C328.832 379.856 328.802 379.722 328.785 379.586C328.735 379.296 328.675 378.906 328.595 378.406C328.415 377.406 328.225 375.826 328.045 373.826C327.563 368.188 327.596 362.518 328.145 356.886C328.987 348.536 330.625 340.285 333.035 332.246C336.025 322.438 339.574 312.809 343.665 303.406L346.845 295.986C347.895 293.556 348.925 291.146 350.095 288.846C352.334 284.443 354.814 280.166 357.525 276.036C360.085 272.036 362.665 268.416 365.095 265.036C367.525 261.656 369.875 258.496 372.095 255.736C375.622 251.357 379.491 247.264 383.665 243.496C385.145 242.166 386.325 241.166 387.125 240.496L388.055 239.746C388.169 239.647 388.293 239.56 388.425 239.486Z" fill="#263238"/>
<path d="M350.225 288.827C350.084 288.415 349.987 287.989 349.935 287.557C349.775 286.727 349.595 285.557 349.385 284.037C348.955 281.037 348.515 276.927 348.045 272.377C347.575 267.827 347.045 263.707 346.605 260.737C346.375 259.257 346.175 258.067 346.035 257.237C345.926 256.812 345.869 256.375 345.865 255.937C346.037 256.337 346.162 256.757 346.235 257.187C346.455 258.007 346.705 259.187 346.985 260.677C347.555 263.677 348.115 267.757 348.585 272.317C349.055 276.877 349.455 280.877 349.765 283.987C349.915 285.387 350.045 286.577 350.145 287.527C350.223 287.955 350.25 288.392 350.225 288.827Z" fill="#263238"/>
<path d="M388.705 281.646C388.219 281.752 387.723 281.812 387.225 281.826C386.225 281.916 384.805 282.036 383.045 282.236C379.525 282.616 374.685 283.316 369.375 284.316C364.065 285.316 359.295 286.446 355.865 287.316C354.155 287.756 352.775 288.156 351.865 288.426C351.379 288.598 350.877 288.719 350.365 288.786C350.827 288.553 351.309 288.363 351.805 288.216C352.745 287.886 354.105 287.426 355.805 286.936C359.215 285.936 363.985 284.746 369.315 283.726C373.83 282.863 378.386 282.228 382.965 281.826C384.735 281.676 386.165 281.616 387.165 281.596C387.679 281.561 388.195 281.578 388.705 281.646Z" fill="#263238"/>
<path d="M333.525 331.546C333.418 331.402 333.331 331.244 333.265 331.076L332.605 329.686C332.035 328.476 331.265 326.686 330.345 324.496C328.485 320.096 326.115 313.936 323.595 307.096C321.075 300.256 318.755 294.096 316.995 289.646C316.135 287.486 315.425 285.716 314.895 284.396L314.335 282.966C314.257 282.801 314.203 282.626 314.175 282.446C314.281 282.591 314.369 282.749 314.435 282.916L315.095 284.306C315.655 285.516 316.435 287.306 317.355 289.496C319.215 293.896 321.585 300.056 324.105 306.896C326.625 313.736 328.945 319.896 330.705 324.346C331.565 326.506 332.275 328.276 332.795 329.596C333.025 330.166 333.215 330.596 333.365 331.026C333.442 331.191 333.496 331.366 333.525 331.546Z" fill="#263238"/>
<path d="M384.605 315.076C384.445 315.168 384.273 315.239 384.095 315.286L382.615 315.786L377.145 317.556C372.525 319.056 366.145 321.196 359.145 323.556C352.145 325.916 345.735 328.016 341.085 329.416C338.765 330.126 336.875 330.666 335.565 331.026L334.055 331.416C333.879 331.472 333.698 331.509 333.515 331.526C333.675 331.434 333.846 331.364 334.025 331.316L335.505 330.816L340.975 329.046C345.595 327.546 351.975 325.406 358.975 323.046C365.975 320.686 372.375 318.586 377.025 317.186C379.355 316.476 381.235 315.936 382.555 315.576L384.065 315.186C384.24 315.13 384.421 315.094 384.605 315.076Z" fill="#263238"/>
<path d="M371.54 59.6793L366.39 61.5193L364.18 54.7893C360.12 42.3793 347.18 35.7893 335.29 39.9793C323.4 44.1693 317.07 57.7793 321.13 70.1893L323.34 76.9193L318.17 78.7693C316.199 79.5339 314.598 81.0289 313.7 82.9434C312.803 84.8579 312.677 87.0447 313.35 89.0493L327.68 132.839C327.978 133.832 328.472 134.754 329.133 135.552C329.794 136.349 330.608 137.006 331.528 137.483C332.448 137.959 333.454 138.246 334.487 138.326C335.52 138.407 336.558 138.278 337.54 137.949L390.91 118.859C392.908 118.096 394.531 116.588 395.44 114.652C396.348 112.716 396.47 110.503 395.78 108.479L381.44 64.6893C381.135 63.6997 380.634 62.7818 379.966 61.9903C379.298 61.1987 378.478 60.5498 377.554 60.0822C376.63 59.6147 375.621 59.338 374.588 59.2688C373.555 59.1995 372.518 59.3391 371.54 59.6793ZM330.86 66.6793C329.766 63.4525 329.962 59.9273 331.409 56.8421C332.855 53.757 335.44 51.3514 338.62 50.1293C340.191 49.5919 341.854 49.3764 343.509 49.4957C345.165 49.6149 346.78 50.0665 348.257 50.8233C349.735 51.5802 351.044 52.627 352.108 53.9011C353.172 55.1752 353.969 56.6506 354.45 58.2393L356.65 64.9693L333.06 73.4093L330.86 66.6793ZM360.86 105.539L364.52 116.719C364.588 116.943 364.566 117.185 364.46 117.393C364.354 117.602 364.171 117.762 363.95 117.839L358.82 119.669C358.616 119.726 358.398 119.701 358.212 119.601C358.025 119.5 357.885 119.331 357.82 119.129L354.13 107.999C352.096 107.888 350.143 107.159 348.535 105.908C346.927 104.657 345.739 102.944 345.13 100.999C344.261 98.4282 344.419 95.6204 345.573 93.1636C346.727 90.7069 348.786 88.7918 351.32 87.8193C352.571 87.3918 353.896 87.2206 355.215 87.3158C356.533 87.4111 357.819 87.7708 358.996 88.3737C360.173 88.9765 361.216 89.81 362.064 90.8246C362.911 91.8393 363.546 93.0141 363.93 94.2793C364.574 96.2548 364.627 98.3751 364.083 100.38C363.54 102.386 362.423 104.189 360.87 105.569L360.86 105.539Z" fill="#FF993C"/>
<path d="M366.161 61.4C366.161 61.54 356.611 65.13 344.731 69.4C332.851 73.67 323.161 77.1 323.111 77C323.061 76.9 332.661 73.28 344.551 69C356.441 64.72 366.111 61.27 366.161 61.4Z" fill="#263238"/>
<path d="M377.501 63.2402C377.545 63.327 377.581 63.4173 377.611 63.5102C377.691 63.7102 377.781 63.9702 377.901 64.2902C378.161 65.0202 378.521 66.0302 378.971 67.2902L382.811 78.4702C384.411 83.2102 386.321 88.8302 388.441 95.0702C389.441 98.2002 390.621 101.46 391.721 104.89C392.309 106.658 392.564 108.52 392.471 110.38C392.386 111.348 392.11 112.289 391.661 113.15C391.18 114.008 390.538 114.765 389.771 115.38C388.226 116.508 386.511 117.382 384.691 117.97L379.541 119.82L369.791 123.31L353.281 129.19L342.131 133.11L339.131 134.11L338.331 134.37C338.245 134.408 338.154 134.432 338.061 134.44C338.061 134.44 338.141 134.44 338.311 134.32L339.091 134.01L342.091 132.88L353.181 128.8L369.661 122.8L379.391 119.28L384.541 117.42C386.309 116.856 387.974 116.008 389.471 114.91C390.185 114.34 390.782 113.637 391.231 112.84C391.654 112.044 391.909 111.169 391.981 110.27C392.073 108.477 391.828 106.683 391.261 104.98C390.181 101.58 389.041 98.2902 388.011 95.1602C385.931 88.9102 384.011 83.2702 382.491 78.5302C380.971 73.7902 379.691 69.9802 378.811 67.3002C378.391 65.9902 378.071 64.9702 377.811 64.2302L377.571 63.4302C377.54 63.3696 377.517 63.3059 377.501 63.2402Z" fill="#263238"/>
<path d="M349.341 49.4493C349.341 49.4493 348.811 49.1893 347.831 48.7893C346.434 48.2525 344.956 47.955 343.461 47.9093C341.244 47.8332 339.037 48.2499 337.001 49.1293C334.524 50.2242 332.406 51.9953 330.891 54.2393C329.365 56.4768 328.546 59.121 328.541 61.8293C328.561 64.049 328.898 66.2544 329.541 68.3793C330.061 70.1993 330.601 71.6493 330.961 72.6593C331.173 73.1723 331.347 73.7004 331.481 74.2393C331.197 73.7596 330.959 73.254 330.771 72.7293C330.361 71.7293 329.771 70.3093 329.191 68.4793C328.479 66.3321 328.091 64.0908 328.041 61.8293C328.014 59.0187 328.852 56.2678 330.441 53.9493C332.009 51.6234 334.213 49.7975 336.791 48.6893C338.891 47.8051 341.166 47.4151 343.441 47.5493C344.969 47.6271 346.47 47.983 347.871 48.5993C348.245 48.772 348.606 48.9726 348.951 49.1993C349.093 49.2618 349.224 49.3461 349.341 49.4493Z" fill="#263238"/>
<path d="M349.8 88.5788C349.96 88.4821 350.127 88.3985 350.3 88.3288C350.801 88.103 351.319 87.919 351.85 87.7788C352.693 87.5301 353.563 87.3824 354.44 87.3388C355.634 87.2747 356.829 87.455 357.95 87.8688C360.51 88.7688 362.86 91.3788 364.02 94.8688C364.577 96.7417 364.577 98.7359 364.02 100.609C363.403 102.642 362.298 104.492 360.8 105.999L360.86 105.729C362.19 109.379 363.64 113.339 365.14 117.469L365.23 117.719L364.98 117.809L362.69 118.569L357.69 120.239L357.44 120.319L357.36 120.069C355.99 115.929 354.49 112.069 353.36 108.279L353.58 108.449C351.625 108.286 349.761 107.553 348.22 106.339C346.826 105.265 345.683 103.9 344.87 102.339C344.137 100.954 343.772 99.4049 343.81 97.8388C343.857 96.2383 344.256 94.6678 344.981 93.2398C345.705 91.8118 346.736 90.5616 348 89.5788C348.521 89.1564 349.105 88.8189 349.73 88.5788C349.165 88.914 348.618 89.2778 348.09 89.6688C346.702 90.8437 345.638 92.3552 345 94.0588C344.453 95.3435 344.197 96.7333 344.251 98.1286C344.305 99.5238 344.666 100.89 345.31 102.129C346.109 103.631 347.225 104.941 348.58 105.969C350.05 107.123 351.828 107.818 353.69 107.969H353.86L353.91 108.119C355.01 111.839 356.52 115.729 357.91 119.889L357.58 119.729L362.58 118.059L364.86 117.289L364.7 117.629C363.21 113.499 361.77 109.529 360.45 105.879V105.729L360.57 105.609C362.024 104.165 363.108 102.391 363.73 100.439C364.261 98.6473 364.261 96.7404 363.73 94.9488C362.64 91.5888 360.39 89.0388 357.95 88.1388C356.87 87.7224 355.717 87.5285 354.56 87.5688C353.697 87.5886 352.838 87.706 352 87.9188C350.51 88.2888 349.81 88.6288 349.8 88.5788Z" fill="#263238"/>
<path d="M318.89 377.32L219 376.86C213.231 376.828 207.711 374.508 203.652 370.41C199.592 366.311 197.326 360.769 197.35 355L198.41 104.59C198.422 101.732 198.997 98.9044 200.102 96.2688C201.207 93.6332 202.821 91.2412 204.851 89.2296C206.881 87.218 209.288 85.6263 211.933 84.5453C214.579 83.4644 217.412 82.9155 220.27 82.93L320.15 83.39C325.918 83.4191 331.44 85.7365 335.501 89.8333C339.562 93.9302 341.831 99.4714 341.81 105.24L340.75 355.64C340.738 358.499 340.163 361.327 339.058 363.964C337.953 366.601 336.34 368.994 334.31 371.007C332.28 373.021 329.873 374.614 327.228 375.697C324.582 376.78 321.749 377.332 318.89 377.32Z" fill="#455A64"/>
<path d="M320 92.0004H300.64C300.008 92.0121 299.385 92.1482 298.806 92.4008C298.227 92.6534 297.703 93.0176 297.265 93.4726C296.827 93.9277 296.482 94.4646 296.252 95.0527C296.021 95.6409 295.908 96.2687 295.92 96.9004V100.41C295.932 101.042 295.819 101.669 295.588 102.257C295.358 102.844 295.013 103.38 294.575 103.835C294.136 104.289 293.612 104.652 293.033 104.904C292.454 105.155 291.831 105.29 291.2 105.3L253.46 105.13C252.183 105.096 250.972 104.557 250.093 103.631C249.214 102.705 248.738 101.467 248.77 100.19V96.6804C248.802 95.4053 248.328 94.1694 247.451 93.2435C246.574 92.3176 245.365 91.7771 244.09 91.7404H237.28L220.33 91.6604C216.299 91.6364 212.422 93.2109 209.548 96.0392C206.675 98.8674 205.04 102.719 205 106.75L204 351.17C203.991 353.17 204.376 355.153 205.133 357.004C205.89 358.855 207.004 360.539 208.411 361.96C209.819 363.381 211.493 364.51 213.337 365.284C215.181 366.058 217.16 366.461 219.16 366.47L318.84 366.93C320.842 366.94 322.825 366.555 324.678 365.797C326.53 365.04 328.215 363.925 329.637 362.516C331.059 361.108 332.189 359.433 332.963 357.587C333.738 355.742 334.141 353.762 334.15 351.76L335.15 107.34C335.174 103.298 333.592 99.4107 330.751 96.5341C327.91 93.6576 324.043 92.0269 320 92.0004Z" fill="white"/>
<path d="M306.59 334.32L232.47 334C231.7 334 231.08 333.16 231.09 332.14L231.17 312.75C231.17 311.75 231.8 310.89 232.57 310.89L306.69 311.23C307.117 311.303 307.498 311.539 307.755 311.888C308.013 312.236 308.125 312.67 308.07 313.1L308 332.47C308 333.5 307.36 334.33 306.59 334.32Z" fill="#46B2C8"/>
<path d="M256.54 321.216C256.505 320.924 256.365 320.696 256.118 320.535C255.872 320.373 255.57 320.292 255.212 320.292C254.95 320.292 254.721 320.334 254.524 320.419C254.33 320.504 254.178 320.62 254.068 320.769C253.96 320.917 253.907 321.085 253.907 321.274C253.907 321.432 253.944 321.567 254.019 321.681C254.096 321.793 254.194 321.886 254.314 321.961C254.433 322.034 254.558 322.095 254.689 322.143C254.82 322.189 254.94 322.227 255.05 322.256L255.651 322.417C255.805 322.458 255.976 322.514 256.165 322.585C256.355 322.656 256.537 322.753 256.71 322.876C256.886 322.998 257.03 323.154 257.143 323.344C257.257 323.535 257.314 323.769 257.314 324.046C257.314 324.365 257.23 324.654 257.063 324.912C256.897 325.17 256.655 325.375 256.335 325.527C256.017 325.679 255.631 325.755 255.177 325.755C254.754 325.755 254.387 325.687 254.077 325.55C253.769 325.414 253.526 325.223 253.349 324.979C253.174 324.734 253.075 324.45 253.052 324.127H253.791C253.81 324.35 253.885 324.535 254.016 324.681C254.149 324.826 254.317 324.933 254.519 325.005C254.723 325.074 254.942 325.109 255.177 325.109C255.45 325.109 255.696 325.064 255.913 324.976C256.131 324.885 256.303 324.76 256.43 324.6C256.557 324.439 256.621 324.25 256.621 324.034C256.621 323.838 256.566 323.678 256.456 323.555C256.347 323.432 256.202 323.332 256.023 323.255C255.844 323.178 255.651 323.11 255.443 323.053L254.715 322.845C254.253 322.712 253.887 322.522 253.618 322.276C253.348 322.029 253.214 321.707 253.214 321.309C253.214 320.977 253.303 320.689 253.482 320.442C253.663 320.194 253.906 320.001 254.21 319.865C254.516 319.726 254.858 319.657 255.235 319.657C255.616 319.657 255.955 319.725 256.251 319.862C256.548 319.997 256.783 320.181 256.956 320.416C257.131 320.651 257.223 320.918 257.233 321.216H256.54ZM259.207 319.738V325.651H258.491V319.738H259.207ZM264.686 321.586C264.622 321.391 264.538 321.217 264.434 321.063C264.332 320.907 264.21 320.774 264.068 320.665C263.927 320.555 263.767 320.471 263.588 320.413C263.409 320.356 263.213 320.327 262.999 320.327C262.649 320.327 262.33 320.417 262.044 320.598C261.757 320.779 261.529 321.046 261.359 321.398C261.19 321.75 261.105 322.182 261.105 322.695C261.105 323.207 261.191 323.639 261.362 323.991C261.533 324.343 261.765 324.61 262.058 324.791C262.351 324.972 262.68 325.062 263.046 325.062C263.384 325.062 263.683 324.99 263.941 324.846C264.201 324.699 264.403 324.493 264.547 324.228C264.693 323.96 264.767 323.645 264.767 323.284L264.986 323.33H263.207V322.695H265.46V323.33C265.46 323.817 265.356 324.24 265.148 324.6C264.942 324.96 264.657 325.239 264.293 325.438C263.931 325.634 263.515 325.732 263.046 325.732C262.522 325.732 262.062 325.609 261.665 325.363C261.271 325.116 260.963 324.766 260.741 324.312C260.522 323.857 260.412 323.318 260.412 322.695C260.412 322.227 260.475 321.806 260.6 321.433C260.727 321.057 260.906 320.738 261.137 320.474C261.368 320.21 261.641 320.008 261.957 319.868C262.273 319.727 262.62 319.657 262.999 319.657C263.311 319.657 263.602 319.704 263.871 319.798C264.143 319.891 264.384 320.023 264.596 320.194C264.81 320.363 264.988 320.566 265.13 320.803C265.273 321.038 265.371 321.299 265.425 321.586H264.686ZM271.375 319.738V325.651H270.682L267.46 321.008H267.402V325.651H266.686V319.738H267.379L270.613 324.392H270.671V319.738H271.375ZM278.976 319.738H279.692V323.653C279.692 324.057 279.597 324.418 279.406 324.736C279.218 325.052 278.951 325.301 278.606 325.484C278.262 325.665 277.858 325.755 277.394 325.755C276.93 325.755 276.526 325.665 276.181 325.484C275.836 325.301 275.569 325.052 275.378 324.736C275.19 324.418 275.095 324.057 275.095 323.653V319.738H275.811V323.595C275.811 323.884 275.875 324.141 276.002 324.366C276.129 324.59 276.31 324.766 276.545 324.895C276.782 325.022 277.065 325.085 277.394 325.085C277.723 325.085 278.006 325.022 278.243 324.895C278.479 324.766 278.66 324.59 278.786 324.366C278.913 324.141 278.976 323.884 278.976 323.595V319.738ZM281.122 325.651V319.738H283.12C283.584 319.738 283.964 319.821 284.258 319.989C284.555 320.154 284.774 320.379 284.916 320.662C285.059 320.945 285.13 321.26 285.13 321.609C285.13 321.957 285.059 322.274 284.916 322.559C284.776 322.844 284.558 323.071 284.264 323.24C283.969 323.408 283.592 323.491 283.132 323.491H281.7V322.856H283.109C283.427 322.856 283.682 322.801 283.874 322.692C284.067 322.582 284.206 322.434 284.293 322.247C284.381 322.058 284.426 321.846 284.426 321.609C284.426 321.372 284.381 321.16 284.293 320.974C284.206 320.787 284.066 320.641 283.871 320.535C283.677 320.427 283.419 320.373 283.097 320.373H281.838V325.651H281.122Z" fill="#E8E8E3"/>
<path d="M247.254 163.85L221.534 163.733L221.513 168.453L247.232 168.57L247.254 163.85Z" fill="#46B2C8"/>
<path opacity="0.1" d="M247.254 163.85L221.534 163.733L221.513 168.453L247.232 168.57L247.254 163.85Z" fill="black"/>
<path d="M322.65 192.83C322.852 192.81 323.05 192.763 323.24 192.69C323.517 192.582 323.757 192.398 323.934 192.159C324.111 191.92 324.217 191.636 324.24 191.34C324.24 189.75 324.24 187.43 324.24 184.45C324.24 182.96 324.24 181.29 324.24 179.45C324.24 179 324.24 178.53 324.24 178.06C324.305 177.604 324.206 177.14 323.96 176.75C323.822 176.563 323.643 176.411 323.437 176.305C323.23 176.199 323.002 176.143 322.77 176.14H321.21H306.76L223.12 175.83C222.906 175.826 222.694 175.875 222.502 175.97C222.311 176.066 222.145 176.207 222.02 176.38C221.778 176.771 221.686 177.236 221.76 177.69C221.76 178.69 221.76 179.69 221.76 180.69C221.76 182.69 221.76 184.69 221.76 186.69C221.76 187.69 221.76 188.69 221.76 189.69C221.718 190.156 221.718 190.624 221.76 191.09C221.812 191.29 221.91 191.475 222.045 191.631C222.18 191.787 222.35 191.91 222.54 191.99C222.737 192.069 222.948 192.106 223.16 192.1H228.25L250.46 192.22L288.06 192.45L313.41 192.65L320.3 192.73H322.09C322.5 192.73 322.7 192.73 322.7 192.73H322.09H320.3H313.41H288.06L250.46 192.61L228.25 192.52H223.16C222.88 192.531 222.6 192.484 222.34 192.38C222.077 192.268 221.842 192.097 221.655 191.88C221.468 191.663 221.333 191.407 221.26 191.13C221.202 190.868 221.182 190.598 221.2 190.33V189.59C221.2 188.59 221.2 187.59 221.2 186.59C221.2 184.59 221.2 182.59 221.2 180.59C221.2 179.59 221.2 178.59 221.2 177.59C221.181 177.324 221.181 177.056 221.2 176.79C221.237 176.496 221.351 176.217 221.53 175.98C221.702 175.739 221.931 175.543 222.195 175.409C222.46 175.274 222.753 175.206 223.05 175.21L306.69 175.67L321.14 175.77H322.7C322.975 175.77 323.245 175.837 323.489 175.964C323.733 176.091 323.942 176.275 324.1 176.5C324.382 176.935 324.496 177.457 324.42 177.97C324.42 178.44 324.42 178.91 324.42 179.36C324.42 181.18 324.42 182.85 324.42 184.36C324.42 187.36 324.35 189.66 324.33 191.26C324.305 191.568 324.194 191.862 324.008 192.108C323.822 192.354 323.569 192.542 323.28 192.65C323.091 192.767 322.872 192.83 322.65 192.83Z" fill="#E0E0E0"/>
<path d="M276.3 180.85H229.26V185.26H276.3V180.85Z" fill="#46B2C8"/>
<path opacity="0.2" d="M276.3 180.85H229.26V185.26H276.3V180.85Z" fill="white"/>
<path d="M247.078 206.909L221.358 206.792L221.337 211.512L247.057 211.629L247.078 206.909Z" fill="#46B2C8"/>
<path opacity="0.1" d="M247.078 206.909L221.358 206.792L221.337 211.512L247.057 211.629L247.078 206.909Z" fill="black"/>
<path d="M322 235.89C322.202 235.865 322.402 235.828 322.6 235.78C322.879 235.691 323.136 235.543 323.354 235.347C323.571 235.15 323.744 234.909 323.86 234.64C324.017 234.236 324.079 233.801 324.04 233.37C324.04 232.89 324.04 232.37 324.04 231.79C324.04 230.63 324.04 229.31 324.04 227.79V221.44C324.088 220.98 323.986 220.517 323.75 220.12C323.503 219.712 323.115 219.41 322.66 219.27C322.162 219.181 321.655 219.154 321.15 219.19H306.76L223.41 218.88C222.962 218.881 222.529 219.045 222.192 219.341C221.856 219.637 221.638 220.045 221.58 220.49C221.58 221.44 221.58 222.49 221.58 223.49C221.58 225.49 221.58 227.49 221.58 229.49C221.58 230.49 221.58 231.49 221.58 232.49C221.543 232.957 221.563 233.427 221.64 233.89C221.765 234.295 222.022 234.647 222.37 234.89C222.739 235.124 223.173 235.236 223.61 235.21H225H227.89L250.02 235.32L287.49 235.55L312.75 235.75L319.62 235.83H312.75H287.49L250 235.79L227.87 235.71H223.52C222.979 235.742 222.442 235.598 221.99 235.3C221.535 234.985 221.203 234.522 221.05 233.99C220.96 233.482 220.933 232.965 220.97 232.45C220.97 231.45 220.97 230.45 220.97 229.45C220.97 227.45 220.97 225.45 220.97 223.45C220.97 222.45 220.97 221.45 220.97 220.45C221.043 219.878 221.322 219.352 221.754 218.971C222.187 218.59 222.743 218.38 223.32 218.38L306.67 218.84L321.06 218.95C321.596 218.917 322.134 218.954 322.66 219.06C323.179 219.23 323.618 219.586 323.89 220.06C324.149 220.5 324.261 221.012 324.21 221.52C324.21 221.99 324.21 222.45 324.21 222.91C324.21 224.72 324.21 226.38 324.21 227.91C324.21 229.44 324.21 230.73 324.21 231.91C324.21 232.48 324.21 233.01 324.21 233.5C324.246 233.947 324.174 234.396 324 234.81C323.87 235.086 323.682 235.33 323.449 235.527C323.216 235.724 322.944 235.868 322.65 235.95C322.431 235.968 322.211 235.948 322 235.89Z" fill="#E0E0E0"/>
<path d="M246.885 251.837L221.165 251.721L221.144 256.441L246.863 256.557L246.885 251.837Z" fill="#46B2C8"/>
<path opacity="0.1" d="M246.885 251.837L221.165 251.721L221.144 256.441L246.863 256.557L246.885 251.837Z" fill="black"/>
<path d="M321.8 280.8C322.002 280.776 322.202 280.74 322.4 280.69C322.678 280.602 322.934 280.455 323.151 280.261C323.368 280.066 323.542 279.827 323.66 279.56C323.816 279.156 323.878 278.722 323.84 278.29C323.84 277.8 323.84 277.29 323.84 276.7C323.84 275.55 323.84 274.22 323.84 272.7V266.35C323.887 265.89 323.786 265.428 323.55 265.03C323.297 264.63 322.911 264.332 322.46 264.19C321.962 264.098 321.455 264.067 320.95 264.1H306.56L223.21 263.79C222.761 263.791 222.329 263.955 221.992 264.251C221.655 264.547 221.438 264.956 221.38 265.4C221.38 266.4 221.38 267.4 221.38 268.4C221.38 270.4 221.38 272.4 221.38 274.4C221.38 275.4 221.38 276.4 221.38 277.4C221.342 277.864 221.362 278.331 221.44 278.79C221.559 279.198 221.817 279.552 222.17 279.79C222.537 280.03 222.972 280.142 223.41 280.11H227.76L249.89 280.23L287.36 280.46L312.62 280.66L319.49 280.74H312.62H287.36L249.89 280.63L227.76 280.54H223.41C222.868 280.577 222.33 280.432 221.88 280.13C221.425 279.815 221.092 279.352 220.94 278.82C220.85 278.312 220.823 277.795 220.86 277.28C220.86 276.28 220.86 275.28 220.86 274.28C220.86 272.28 220.86 270.28 220.86 268.28C220.86 267.28 220.86 266.28 220.86 265.23C220.93 264.659 221.207 264.134 221.638 263.753C222.069 263.371 222.624 263.161 223.2 263.16L306.55 263.62L320.94 263.73C321.475 263.697 322.013 263.734 322.54 263.84C323.059 264.01 323.497 264.366 323.77 264.84C324.028 265.281 324.14 265.792 324.09 266.3C324.09 266.77 324.09 267.24 324.09 267.69C324.09 269.5 324.09 271.16 324.09 272.69C324.09 274.22 324.09 275.51 324.09 276.69C324.09 277.26 324.09 277.79 324.09 278.28C324.128 278.727 324.056 279.177 323.88 279.59C323.75 279.866 323.562 280.111 323.329 280.307C323.096 280.504 322.823 280.648 322.53 280.73C322.295 280.81 322.045 280.834 321.8 280.8Z" fill="#E0E0E0"/>
<path d="M275.295 225.157L228.256 224.943L228.236 229.353L275.275 229.567L275.295 225.157Z" fill="#46B2C8"/>
<path opacity="0.2" d="M275.295 225.157L228.256 224.943L228.236 229.353L275.275 229.567L275.295 225.157Z" fill="white"/>
<path d="M232.51 272.64C232.48 273.043 232.334 273.427 232.087 273.747C231.841 274.066 231.507 274.307 231.125 274.438C230.744 274.569 230.332 274.585 229.942 274.485C229.551 274.384 229.199 274.171 228.928 273.872C228.657 273.573 228.481 273.201 228.419 272.802C228.358 272.404 228.415 271.996 228.584 271.629C228.752 271.263 229.025 270.954 229.367 270.741C229.709 270.528 230.107 270.42 230.51 270.43C231.067 270.461 231.59 270.711 231.964 271.125C232.338 271.538 232.535 272.083 232.51 272.64Z" fill="#46B2C8"/>
<path d="M238.88 272.67C238.899 272.952 238.861 273.235 238.766 273.501C238.672 273.768 238.524 274.012 238.331 274.219C238.138 274.425 237.905 274.59 237.646 274.703C237.387 274.816 237.107 274.874 236.825 274.874C236.542 274.874 236.262 274.816 236.003 274.703C235.744 274.59 235.511 274.425 235.318 274.219C235.125 274.012 234.977 273.768 234.883 273.501C234.789 273.235 234.75 272.952 234.77 272.67C234.75 272.388 234.789 272.105 234.883 271.839C234.977 271.573 235.125 271.328 235.318 271.122C235.511 270.915 235.744 270.75 236.003 270.638C236.262 270.525 236.542 270.467 236.825 270.467C237.107 270.467 237.387 270.525 237.646 270.638C237.905 270.75 238.138 270.915 238.331 271.122C238.524 271.328 238.672 271.573 238.766 271.839C238.861 272.105 238.899 272.388 238.88 272.67Z" fill="#46B2C8"/>
<path d="M245.26 272.7C245.23 273.102 245.084 273.487 244.837 273.806C244.591 274.126 244.257 274.366 243.875 274.497C243.494 274.628 243.082 274.645 242.692 274.544C242.301 274.444 241.949 274.231 241.678 273.932C241.407 273.632 241.231 273.261 241.169 272.862C241.108 272.463 241.165 272.055 241.334 271.689C241.502 271.322 241.775 271.014 242.117 270.8C242.459 270.587 242.857 270.479 243.26 270.49C243.816 270.524 244.337 270.774 244.711 271.187C245.085 271.6 245.282 272.143 245.26 272.7Z" fill="#46B2C8"/>
<path d="M251.63 272.73C251.601 273.133 251.454 273.517 251.208 273.837C250.961 274.156 250.627 274.396 250.245 274.528C249.864 274.659 249.452 274.675 249.062 274.574C248.671 274.474 248.319 274.261 248.048 273.962C247.778 273.663 247.601 273.291 247.539 272.892C247.478 272.494 247.535 272.086 247.704 271.719C247.872 271.353 248.145 271.044 248.487 270.831C248.829 270.618 249.227 270.51 249.63 270.52C250.186 270.554 250.707 270.804 251.081 271.217C251.455 271.63 251.652 272.174 251.63 272.73Z" fill="#46B2C8"/>
<path d="M258 272.75C257.972 273.152 257.827 273.538 257.582 273.859C257.337 274.18 257.003 274.422 256.621 274.555C256.24 274.687 255.828 274.705 255.437 274.605C255.046 274.506 254.692 274.293 254.42 273.995C254.149 273.696 253.971 273.324 253.909 272.925C253.847 272.526 253.904 272.117 254.072 271.75C254.24 271.383 254.513 271.074 254.856 270.86C255.198 270.647 255.596 270.539 256 270.55C256.554 270.583 257.074 270.832 257.447 271.243C257.821 271.654 258.019 272.195 258 272.75Z" fill="#46B2C8"/>
<path d="M264.38 272.78C264.353 273.181 264.209 273.565 263.966 273.885C263.723 274.205 263.392 274.447 263.014 274.581C262.635 274.716 262.226 274.737 261.835 274.641C261.445 274.546 261.091 274.338 260.818 274.044C260.544 273.751 260.362 273.383 260.294 272.987C260.226 272.591 260.276 272.184 260.437 271.816C260.597 271.448 260.862 271.135 261.199 270.915C261.535 270.696 261.928 270.579 262.33 270.58C262.893 270.601 263.425 270.844 263.809 271.257C264.194 271.669 264.399 272.217 264.38 272.78Z" fill="#46B2C8"/>
<path d="M270.75 272.81C270.769 273.092 270.731 273.375 270.637 273.641C270.542 273.908 270.394 274.152 270.201 274.358C270.009 274.565 269.775 274.73 269.516 274.842C269.257 274.955 268.977 275.013 268.695 275.013C268.412 275.013 268.133 274.955 267.873 274.842C267.614 274.73 267.381 274.565 267.188 274.358C266.996 274.152 266.847 273.908 266.753 273.641C266.659 273.375 266.62 273.092 266.64 272.81C266.62 272.528 266.659 272.245 266.753 271.979C266.847 271.712 266.996 271.468 267.188 271.261C267.381 271.055 267.614 270.89 267.873 270.777C268.133 270.665 268.412 270.606 268.695 270.606C268.977 270.606 269.257 270.665 269.516 270.777C269.775 270.89 270.009 271.055 270.201 271.261C270.394 271.468 270.542 271.712 270.637 271.979C270.731 272.245 270.769 272.528 270.75 272.81Z" fill="#46B2C8"/>
<path d="M277.12 272.84C277.093 273.24 276.949 273.624 276.706 273.944C276.463 274.265 276.132 274.507 275.754 274.641C275.375 274.775 274.966 274.796 274.576 274.701C274.185 274.605 273.832 274.398 273.558 274.104C273.284 273.81 273.102 273.443 273.034 273.047C272.967 272.651 273.016 272.244 273.177 271.875C273.338 271.507 273.602 271.194 273.939 270.975C274.275 270.755 274.668 270.639 275.07 270.64C275.633 270.661 276.165 270.904 276.55 271.316C276.934 271.728 277.139 272.276 277.12 272.84Z" fill="#46B2C8"/>
<path d="M283.49 272.87C283.463 273.273 283.317 273.658 283.072 273.979C282.827 274.3 282.493 274.542 282.112 274.675C281.73 274.807 281.318 274.825 280.927 274.725C280.536 274.626 280.182 274.413 279.911 274.115C279.639 273.816 279.461 273.444 279.399 273.045C279.337 272.646 279.394 272.237 279.562 271.87C279.731 271.503 280.003 271.194 280.346 270.98C280.689 270.767 281.087 270.659 281.49 270.67C282.045 270.703 282.564 270.952 282.938 271.363C283.311 271.774 283.509 272.315 283.49 272.87Z" fill="#46B2C8"/>
<g opacity="0.2">
<path d="M232.51 272.64C232.48 273.043 232.334 273.427 232.087 273.747C231.841 274.066 231.507 274.307 231.125 274.438C230.744 274.569 230.332 274.585 229.942 274.485C229.551 274.384 229.199 274.171 228.928 273.872C228.657 273.573 228.481 273.201 228.419 272.802C228.358 272.404 228.415 271.996 228.584 271.629C228.752 271.263 229.025 270.954 229.367 270.741C229.709 270.528 230.107 270.42 230.51 270.43C231.067 270.461 231.59 270.711 231.964 271.125C232.338 271.538 232.535 272.083 232.51 272.64Z" fill="white"/>
<path d="M238.88 272.67C238.899 272.952 238.861 273.235 238.766 273.501C238.672 273.768 238.524 274.012 238.331 274.219C238.138 274.425 237.905 274.59 237.646 274.703C237.387 274.816 237.107 274.874 236.825 274.874C236.542 274.874 236.262 274.816 236.003 274.703C235.744 274.59 235.511 274.425 235.318 274.219C235.125 274.012 234.977 273.768 234.883 273.501C234.789 273.235 234.75 272.952 234.77 272.67C234.75 272.388 234.789 272.105 234.883 271.839C234.977 271.573 235.125 271.328 235.318 271.122C235.511 270.915 235.744 270.75 236.003 270.638C236.262 270.525 236.542 270.467 236.825 270.467C237.107 270.467 237.387 270.525 237.646 270.638C237.905 270.75 238.138 270.915 238.331 271.122C238.524 271.328 238.672 271.573 238.766 271.839C238.861 272.105 238.899 272.388 238.88 272.67Z" fill="white"/>
<path d="M245.26 272.7C245.23 273.102 245.084 273.487 244.837 273.806C244.591 274.126 244.257 274.366 243.875 274.497C243.494 274.628 243.082 274.645 242.692 274.544C242.301 274.444 241.949 274.231 241.678 273.932C241.407 273.632 241.231 273.261 241.169 272.862C241.108 272.463 241.165 272.055 241.334 271.689C241.502 271.322 241.775 271.014 242.117 270.8C242.459 270.587 242.857 270.479 243.26 270.49C243.816 270.524 244.337 270.774 244.711 271.187C245.085 271.6 245.282 272.143 245.26 272.7Z" fill="white"/>
<path d="M251.63 272.73C251.601 273.133 251.454 273.517 251.208 273.837C250.961 274.156 250.627 274.396 250.245 274.528C249.864 274.659 249.452 274.675 249.062 274.574C248.671 274.474 248.319 274.261 248.048 273.962C247.778 273.663 247.601 273.291 247.539 272.892C247.478 272.494 247.535 272.086 247.704 271.719C247.872 271.353 248.145 271.044 248.487 270.831C248.829 270.618 249.227 270.51 249.63 270.52C250.186 270.554 250.707 270.804 251.081 271.217C251.455 271.63 251.652 272.174 251.63 272.73Z" fill="white"/>
<path d="M258 272.751C257.972 273.153 257.827 273.539 257.582 273.86C257.337 274.181 257.003 274.423 256.621 274.555C256.24 274.688 255.828 274.706 255.437 274.606C255.046 274.507 254.692 274.294 254.42 273.996C254.149 273.697 253.971 273.325 253.909 272.926C253.847 272.527 253.904 272.118 254.072 271.751C254.24 271.384 254.513 271.075 254.856 270.861C255.198 270.648 255.596 270.54 256 270.551C256.554 270.584 257.074 270.833 257.447 271.244C257.821 271.655 258.019 272.195 258 272.751Z" fill="white"/>
<path d="M264.38 272.78C264.353 273.181 264.209 273.565 263.966 273.885C263.723 274.205 263.392 274.447 263.014 274.581C262.635 274.716 262.226 274.737 261.835 274.641C261.445 274.546 261.091 274.338 260.818 274.044C260.544 273.751 260.362 273.383 260.294 272.987C260.226 272.591 260.276 272.184 260.437 271.816C260.597 271.448 260.862 271.135 261.199 270.915C261.535 270.696 261.928 270.579 262.33 270.58C262.893 270.601 263.425 270.844 263.809 271.257C264.194 271.669 264.399 272.217 264.38 272.78Z" fill="white"/>
<path d="M270.75 272.811C270.769 273.093 270.731 273.376 270.637 273.642C270.542 273.909 270.394 274.153 270.201 274.359C270.009 274.566 269.775 274.731 269.516 274.843C269.257 274.956 268.977 275.014 268.695 275.014C268.412 275.014 268.133 274.956 267.873 274.843C267.614 274.731 267.381 274.566 267.188 274.359C266.996 274.153 266.847 273.909 266.753 273.642C266.659 273.376 266.62 273.093 266.64 272.811C266.62 272.529 266.659 272.246 266.753 271.98C266.847 271.713 266.996 271.469 267.188 271.262C267.381 271.056 267.614 270.891 267.873 270.778C268.133 270.666 268.412 270.607 268.695 270.607C268.977 270.607 269.257 270.666 269.516 270.778C269.775 270.891 270.009 271.056 270.201 271.262C270.394 271.469 270.542 271.713 270.637 271.98C270.731 272.246 270.769 272.529 270.75 272.811Z" fill="white"/>
<path d="M277.12 272.841C277.093 273.241 276.949 273.625 276.706 273.945C276.463 274.266 276.132 274.508 275.754 274.642C275.375 274.776 274.966 274.797 274.576 274.702C274.185 274.606 273.832 274.399 273.558 274.105C273.284 273.811 273.102 273.444 273.034 273.048C272.967 272.652 273.016 272.245 273.177 271.876C273.338 271.508 273.602 271.195 273.939 270.976C274.275 270.756 274.668 270.64 275.07 270.641C275.633 270.661 276.165 270.905 276.55 271.317C276.934 271.729 277.139 272.277 277.12 272.841Z" fill="white"/>
<path d="M283.49 272.871C283.463 273.273 283.317 273.659 283.072 273.98C282.827 274.301 282.493 274.543 282.112 274.676C281.73 274.808 281.318 274.826 280.927 274.726C280.536 274.627 280.182 274.414 279.911 274.116C279.639 273.817 279.461 273.445 279.399 273.046C279.337 272.647 279.394 272.238 279.562 271.871C279.731 271.504 280.003 271.195 280.346 270.981C280.689 270.768 281.087 270.66 281.49 270.671C282.045 270.704 282.564 270.953 282.938 271.364C283.311 271.775 283.509 272.316 283.49 272.871Z" fill="white"/>
</g>
<path d="M274.44 128.51C275.135 128.204 275.724 127.7 276.135 127.062C276.545 126.424 276.759 125.679 276.75 124.92C276.776 124.426 276.701 123.933 276.53 123.469C276.359 123.006 276.095 122.582 275.755 122.223C275.415 121.865 275.006 121.58 274.552 121.384C274.098 121.189 273.609 121.089 273.115 121.089C272.621 121.089 272.132 121.189 271.678 121.384C271.224 121.58 270.815 121.865 270.474 122.223C270.134 122.582 269.871 123.006 269.7 123.469C269.529 123.933 269.454 124.426 269.48 124.92C269.465 125.686 269.677 126.44 270.09 127.086C270.503 127.732 271.098 128.241 271.8 128.55C266.2 129.39 266.45 135.47 266.45 135.47L279.69 135.53C279.69 135.53 280 129.34 274.44 128.51Z" fill="#46B2C8"/>
<path opacity="0.1" d="M274.44 128.51C275.135 128.204 275.724 127.7 276.135 127.062C276.545 126.424 276.759 125.679 276.75 124.92C276.776 124.426 276.701 123.933 276.53 123.469C276.359 123.006 276.095 122.582 275.755 122.223C275.415 121.865 275.006 121.58 274.552 121.384C274.098 121.189 273.609 121.089 273.115 121.089C272.621 121.089 272.132 121.189 271.678 121.384C271.224 121.58 270.815 121.865 270.474 122.223C270.134 122.582 269.871 123.006 269.7 123.469C269.529 123.933 269.454 124.426 269.48 124.92C269.465 125.686 269.677 126.44 270.09 127.086C270.503 127.732 271.098 128.241 271.8 128.55C266.2 129.39 266.45 135.47 266.45 135.47L279.69 135.53C279.69 135.53 280 129.34 274.44 128.51Z" fill="black"/>
<path d="M295.954 139.451L248.765 139.237L248.739 144.877L295.929 145.091L295.954 139.451Z" fill="#46B2C8"/>
<path opacity="0.2" d="M295.954 139.451L248.765 139.237L248.739 144.877L295.929 145.091L295.954 139.451Z" fill="white"/>
<path d="M122.47 168.68H122L120.64 168.78C119.904 168.824 119.172 168.921 118.45 169.07C117.982 169.135 117.519 169.226 117.06 169.34L115.51 169.77C112.872 170.579 110.383 171.812 108.14 173.42C105.177 175.571 102.703 178.324 100.88 181.5C99.809 183.33 98.9564 185.28 98.3402 187.31C97.6927 189.515 97.3199 191.793 97.2302 194.09C97.1706 195.296 97.1907 196.506 97.2902 197.71C97.2902 198.32 97.4602 198.93 97.5402 199.55C97.6075 200.175 97.7246 200.793 97.8902 201.4C98.7894 205.413 100.614 209.16 103.218 212.342C105.823 215.525 109.135 218.054 112.89 219.73C115.608 220.903 118.522 221.557 121.48 221.66C124.536 221.828 127.595 221.389 130.48 220.37L131.36 220.04H131.48L131.58 220.1L144.19 226.5L143.82 226.82C142.47 222.64 141.17 218.59 139.91 214.7V214.55L140.02 214.44C143.079 211.359 145.35 207.585 146.64 203.44C147.809 199.65 148.15 195.653 147.64 191.72C147.187 188.224 146.063 184.849 144.33 181.78C142.837 179.143 140.91 176.777 138.63 174.78C136.75 173.199 134.668 171.874 132.44 170.84C130.754 170.113 128.999 169.56 127.2 169.19L125.2 168.86L123.75 168.75L122.87 168.69H122.57C122.67 168.679 122.771 168.679 122.87 168.69H123.76L125.21 168.75L127.21 169.04C129.031 169.383 130.811 169.916 132.52 170.63C134.787 171.652 136.905 172.974 138.82 174.56C141.141 176.548 143.109 178.915 144.64 181.56C146.422 184.662 147.581 188.083 148.05 191.63C148.602 195.624 148.285 199.69 147.12 203.55C145.822 207.782 143.516 211.635 140.4 214.78L140.46 214.52C141.72 218.41 143.03 222.46 144.39 226.63L144.58 227.24L144.01 226.95L131.4 220.56H131.62L130.72 220.89C127.779 221.925 124.664 222.373 121.55 222.21C118.528 222.095 115.554 221.416 112.78 220.21C107.49 217.944 103.088 214.006 100.25 209C98.9441 206.688 97.9903 204.193 97.4202 201.6C97.2641 200.978 97.1472 200.346 97.0702 199.71C96.9902 199.08 96.8602 198.46 96.8302 197.84C96.5596 194.282 96.9357 190.704 97.9402 187.28C98.5718 185.222 99.4481 183.248 100.55 181.4C102.416 178.195 104.942 175.424 107.96 173.27C110.24 171.658 112.771 170.435 115.45 169.65L117.02 169.25C117.482 169.143 117.95 169.059 118.42 169C119.15 168.865 119.889 168.784 120.63 168.76L122 168.71C122.156 168.689 122.313 168.679 122.47 168.68Z" fill="#81DD6A"/>
<path d="M128.17 191.999H126.32L122.32 186.379V182.689C122.32 182.689 119.46 182.509 119.8 187.339C120.14 192.169 119.8 190.939 119.8 190.939C119.8 190.939 113.73 190.939 113.23 191.489C112.73 192.039 112.7 197.899 112.63 201.169C112.592 201.958 112.818 202.736 113.273 203.381C113.728 204.026 114.385 204.501 115.14 204.729C115.352 204.788 115.57 204.818 115.79 204.819C117.31 204.819 125.04 203.589 125.04 203.589H128.23L128.17 191.999Z" fill="#81DD6A"/>
<path d="M133.46 191.01L132.32 203.65H129.16V191.27L133.46 191.01Z" fill="#81DD6A"/>
<path d="M171.15 448.341V439.791L155.82 439.681L155.69 452.611L156.64 452.681C160.87 452.951 178.16 453.351 181 452.471C184.16 451.491 171.15 448.341 171.15 448.341Z" fill="#46B2C8"/>
<path d="M181.36 451.67C181.36 451.81 175.62 451.93 168.55 451.93C161.48 451.93 155.74 451.81 155.74 451.67C155.74 451.53 161.48 451.41 168.55 451.41C175.62 451.41 181.36 451.53 181.36 451.67Z" fill="#263238"/>
<path d="M171.42 450.09C171.29 450.02 171.42 449.57 171.73 449.09C172.04 448.61 172.46 448.41 172.56 448.51C172.66 448.61 172.45 448.99 172.15 449.4C171.85 449.81 171.55 450.16 171.42 450.09Z" fill="#263238"/>
<path d="M172.4 450.651C172.26 450.651 172.33 450.091 172.63 449.561C172.93 449.031 173.33 448.711 173.44 448.791C173.55 448.871 173.37 449.321 173.09 449.791C172.81 450.261 172.53 450.701 172.4 450.651Z" fill="#263238"/>
<path d="M160.36 451.631C160.3 451.631 160.07 451.451 159.74 451.071C159.337 450.582 158.888 450.133 158.4 449.731C157.919 449.347 157.347 449.095 156.74 449.001C156.27 448.941 155.97 449.001 155.94 448.941C155.91 448.881 156.2 448.671 156.75 448.631C157.475 448.615 158.184 448.856 158.75 449.311C159.28 449.743 159.727 450.268 160.07 450.861C160.3 451.301 160.42 451.591 160.36 451.631Z" fill="#263238"/>
<path d="M171.47 448.48C171.54 448.6 171.28 448.9 170.84 449.06C170.4 449.22 170.01 449.16 169.99 449.06C169.97 448.96 170.28 448.75 170.66 448.61C171.04 448.47 171.39 448.36 171.47 448.48Z" fill="#263238"/>
<path d="M171.23 447.65C171.23 447.8 170.83 447.92 170.31 447.93C169.79 447.94 169.38 447.82 169.39 447.68C169.4 447.54 169.81 447.41 170.31 447.4C170.81 447.39 171.21 447.51 171.23 447.65Z" fill="#263238"/>
<path d="M208.9 448.341V439.791L193.57 439.681L193.44 452.481L194.39 452.551C198.62 452.821 215.92 453.351 218.75 452.471C221.91 451.491 208.9 448.341 208.9 448.341Z" fill="#46B2C8"/>
<path d="M219.11 451.691C219.11 451.831 213.38 451.951 206.3 451.951C199.22 451.951 193.5 451.831 193.5 451.691C193.5 451.551 199.23 451.431 206.3 451.431C213.37 451.431 219.11 451.551 219.11 451.691Z" fill="#263238"/>
<path d="M209.17 450.09C209.05 450.02 209.17 449.57 209.48 449.09C209.79 448.61 210.21 448.41 210.31 448.51C210.41 448.61 210.2 448.99 209.9 449.4C209.6 449.81 209.3 450.16 209.17 450.09Z" fill="#263238"/>
<path d="M210.15 450.651C210.02 450.651 210.08 450.091 210.39 449.561C210.7 449.031 211.09 448.711 211.2 448.791C211.31 448.871 211.12 449.321 210.84 449.791C210.56 450.261 210.29 450.701 210.15 450.651Z" fill="#263238"/>
<path d="M198.11 451.631C198.05 451.631 197.83 451.451 197.49 451.071C197.087 450.582 196.638 450.133 196.15 449.731C195.669 449.347 195.097 449.095 194.49 449.001C194.03 448.941 193.72 449.001 193.69 448.941C193.66 448.881 193.95 448.671 194.5 448.631C195.225 448.615 195.934 448.856 196.5 449.311C197.033 449.74 197.48 450.266 197.82 450.861C198.05 451.301 198.17 451.591 198.11 451.631Z" fill="#263238"/>
<path d="M209.22 448.48C209.29 448.6 209.03 448.9 208.59 449.06C208.15 449.22 207.76 449.16 207.74 449.06C207.72 448.96 208.03 448.75 208.41 448.61C208.79 448.47 209.14 448.36 209.22 448.48Z" fill="#263238"/>
<path d="M209 447.65C209 447.8 208.6 447.92 208.08 447.93C207.56 447.94 207.16 447.82 207.17 447.68C207.18 447.54 207.58 447.41 208.08 447.4C208.58 447.39 209 447.51 209 447.65Z" fill="#263238"/>
<path d="M265.38 194.44C264.98 194.03 263.99 194.23 263.99 194.23C264.089 193.654 264.089 193.066 263.99 192.49C263.81 191.93 262.55 192.04 262.55 192.04C262.492 191.568 262.492 191.092 262.55 190.62C262.56 190.515 262.538 190.41 262.486 190.319C262.434 190.228 262.355 190.155 262.26 190.11C261.664 189.867 261.023 189.751 260.38 189.77C259.61 189.22 262.73 184.85 263.89 183.45C265.05 182.05 264.84 180.96 263.81 180.96C263.1 180.96 259.46 185.16 258.34 186.57C257.22 187.98 254.25 191.9 254.15 188.77C254.05 185.64 252.79 183.28 252 182.88C251.21 182.48 250.37 183.42 250.8 184.29C251.178 185.278 251.413 186.315 251.5 187.37C251.609 188.21 251.571 189.063 251.39 189.89C251.058 191.429 250.607 192.941 250.04 194.41H249.96C249.96 194.41 228.14 215.34 226.56 216.83C225.15 218.17 196.79 215.24 191.1 214.64C189.166 214.357 187.214 214.223 185.26 214.24C182.79 214.35 182.35 214.7 179.89 214.73C173.677 214.799 167.479 215.344 161.35 216.36C158.575 216.832 155.982 218.057 153.855 219.901C151.729 221.746 150.149 224.139 149.29 226.82C143.56 244.72 130.58 287.09 128.29 310.89C126.56 314.028 124.997 317.256 123.61 320.56C122 324.94 122.39 325.09 122.93 325.19C124.39 325.46 126.05 317.6 126.67 319.5C127.29 321.4 123.52 328.87 125.05 329.09C127.05 329.37 128.64 321.09 128.83 320.43C129.02 319.77 130.01 319.98 129.83 320.6C129.54 321.48 126.73 330.81 128.69 331.11C129.77 331.27 129.89 329.3 129.89 329.3C129.89 329.3 131.89 320.37 132.8 320.55C133.71 320.73 132.74 326 132.28 327.76C131.82 329.52 132.46 330.41 133.4 329.98C134.04 329.68 135.57 324.33 135.99 322.59C136.41 320.85 137.46 316.03 138.87 318.82C140.28 321.61 142.42 323.23 143.3 323.27C143.498 323.247 143.685 323.165 143.837 323.035C143.988 322.905 144.097 322.733 144.15 322.541C144.203 322.348 144.197 322.144 144.132 321.955C144.068 321.766 143.949 321.601 143.79 321.48C143.033 320.741 142.383 319.899 141.86 318.98C141.393 318.264 141.055 317.472 140.86 316.64C140.457 314.981 140.222 313.286 140.16 311.58L140 310.58C142.24 299.49 148.69 266.94 158 246.15L161.82 254.01L163.48 259.83L153.3 284.96L196.72 284.39L190.24 259.45L198.11 233.45C206.62 233.64 228.47 233.96 232.11 232.31C236.69 230.31 260.38 200.39 260.38 200.39C261.924 199.19 263.403 197.908 264.81 196.55C264.81 196.55 266.25 195.34 265.38 194.44Z" fill="#FFBE9D"/>
<path d="M151.39 266.391C152.65 262.091 159.12 240.831 159.12 240.831C159.12 240.831 162.3 258.161 161.46 260.251C160.687 262.04 159.775 263.765 158.73 265.411C151.39 276.581 152.35 282.171 152.35 282.171L196.7 280.821C196.8 274.621 193.13 260.201 192.37 257.901C191.61 255.601 194.14 248.071 194.14 248.071C194.14 248.071 199.14 242.981 198.96 240.361C198.865 238.007 198.574 235.666 198.09 233.361L225.09 234.361L224.24 216.061L185.46 212.181C184.11 215.991 171.9 214.121 171.9 214.121C158.72 214.561 157.9 216.981 152.42 221.241C146.94 225.501 137.87 262.061 137.87 262.061L151.39 266.391Z" fill="#46B2C8"/>
<path d="M177.61 262.061C176.841 262.198 176.058 262.238 175.28 262.181C173.83 262.181 171.84 262.081 169.65 261.861C167.46 261.641 165.48 261.331 164.07 261.051C163.292 260.951 162.53 260.756 161.8 260.471C162.582 260.471 163.362 260.545 164.13 260.691C165.55 260.871 167.52 261.121 169.7 261.341C171.88 261.561 173.86 261.711 175.29 261.811C176.069 261.821 176.846 261.904 177.61 262.061Z" fill="#263238"/>
<path d="M180.65 258.29C179.881 258.667 179.068 258.946 178.23 259.12C174.24 260.168 170.124 260.656 166 260.57C165.147 260.598 164.293 260.517 163.46 260.33C164.302 260.224 165.151 260.18 166 260.2C167.57 260.15 169.73 260.04 172.11 259.76C174.49 259.48 176.61 259.08 178.11 258.76C178.943 258.538 179.792 258.38 180.65 258.29Z" fill="#263238"/>
<path d="M195.57 241.471C195.55 242.233 195.446 242.991 195.26 243.731C195 245.121 194.6 247.021 194.09 249.101C193.58 251.181 193.09 253.101 192.65 254.401C192.473 255.145 192.211 255.866 191.87 256.551C191.926 255.791 192.067 255.039 192.29 254.311C192.67 252.751 193.1 250.951 193.58 248.981C194.06 247.011 194.52 245.211 194.9 243.651C195.035 242.9 195.26 242.168 195.57 241.471Z" fill="#263238"/>
<path d="M151.86 263.84C149.547 263.483 147.263 262.952 145.03 262.25C142.748 261.717 140.508 261.015 138.33 260.15C140.642 260.513 142.925 261.045 145.16 261.74C147.443 262.272 149.682 262.974 151.86 263.84Z" fill="#263238"/>
<path d="M198.57 233.141C198.192 233.206 197.807 233.206 197.429 233.141C196.385 233.034 195.359 232.788 194.38 232.411C192.744 231.796 191.254 230.846 190.008 229.621C188.761 228.397 187.784 226.925 187.139 225.301C186.427 223.514 186.123 221.59 186.249 219.671C186.294 218.087 186.768 216.546 187.619 215.211C188.219 214.311 189.114 213.65 190.149 213.341C190.426 213.264 190.712 213.227 190.999 213.231C191.199 213.231 191.299 213.231 191.299 213.231C191.299 213.231 190.88 213.231 190.21 213.501C189.259 213.852 188.453 214.51 187.919 215.371C186.559 217.511 186.18 221.421 187.63 225.071C188.304 226.792 189.361 228.337 190.719 229.591C191.833 230.616 193.115 231.442 194.509 232.031C195.818 232.548 197.18 232.92 198.57 233.141Z" fill="#263238"/>
<path d="M221.88 234C221.63 230.934 221.55 227.856 221.64 224.78C221.562 221.707 221.656 218.633 221.92 215.57C222.171 218.634 222.251 221.708 222.16 224.78C222.244 227.856 222.151 230.935 221.88 234Z" fill="#263238"/>
<path d="M185.2 213.301C185.31 211.071 185.54 208.551 185.54 208.551C185.54 208.551 191.06 207.941 191.39 202.241C191.72 196.541 191.39 183.391 191.39 183.391L181.39 178.271L170.29 187.001L172 215.501L182.18 216.15C182.958 216.172 183.713 215.884 184.279 215.35C184.845 214.816 185.177 214.079 185.2 213.301Z" fill="#FFBE9D"/>
<path d="M186.19 197.73C186.19 197.73 186.19 197.84 186.1 197.97C186.025 198.064 185.929 198.139 185.819 198.188C185.709 198.237 185.589 198.258 185.47 198.25C184.83 198.25 184.21 197.51 183.99 196.65C183.885 196.233 183.885 195.797 183.99 195.38C184.01 195.198 184.076 195.024 184.18 194.874C184.285 194.724 184.426 194.602 184.59 194.52C184.724 194.465 184.875 194.465 185.01 194.52C185.109 194.57 185.19 194.65 185.24 194.75C185.31 194.92 185.24 195.03 185.24 195.02C185.24 195.01 185.24 194.92 185.14 194.82C185.087 194.749 185.01 194.699 184.924 194.68C184.837 194.662 184.746 194.676 184.67 194.72C184.547 194.794 184.445 194.898 184.373 195.022C184.302 195.147 184.262 195.287 184.26 195.43C184.175 195.802 184.175 196.188 184.26 196.56C184.46 197.34 185 197.97 185.48 198.03C185.573 198.043 185.669 198.036 185.76 198.01C185.851 197.985 185.936 197.94 186.01 197.88C186.13 197.8 186.17 197.72 186.19 197.73Z" fill="#EB996E"/>
<path d="M194.82 180.31C194.05 177.69 191.26 176.39 188.72 175.67C184.85 174.57 180.67 174.09 176.89 175.48C173.11 176.87 168.57 179.31 168.57 183.48C166.34 183.3 165.06 185.25 164.18 187.67C163.617 189.145 163.28 190.695 163.18 192.27C162.9 197.73 161.37 205.27 157.83 209.27C155.83 211.5 153.06 213.04 151.92 215.82C150.92 218.23 151.44 221.09 150.51 223.53C149.68 225.68 147.85 227.21 146.51 229.08C145.145 231.202 144.341 233.635 144.175 236.153C144.009 238.67 144.485 241.188 145.56 243.47C146.642 245.694 148.165 247.675 150.038 249.291C151.91 250.907 154.092 252.125 156.45 252.87C161.121 254.291 166.102 254.34 170.8 253.01C174.325 252.167 177.614 250.536 180.42 248.24C183.29 245.896 185.261 242.632 186 239C186.71 234.92 185.57 230.77 184.72 226.71C182.06 213.88 182.82 213.21 186.18 201.3C186.26 201.09 186.3 200.87 186.36 200.66C186.42 200.45 186.45 200.35 186.49 200.19C186.585 199.719 186.635 199.241 186.64 198.76C186.149 198.943 185.616 198.981 185.104 198.872C184.592 198.762 184.122 198.508 183.75 198.14C183.376 197.748 183.116 197.262 182.996 196.734C182.876 196.206 182.902 195.655 183.07 195.14C183.306 194.577 183.657 194.07 184.102 193.651C184.546 193.233 185.073 192.912 185.65 192.71C186.76 192.25 187.95 192.01 189.04 191.5C191.35 190.4 192.95 188.12 194.04 185.73C194.936 184.074 195.212 182.152 194.82 180.31Z" fill="#263238"/>
<path d="M186.59 198C186.801 198.312 186.976 198.648 187.11 199C187.41 199.63 187.81 200.52 188.25 201.55L188.33 201.74H188.12L187.12 201.83C186.43 201.83 185.85 201.96 185.17 201.95C185.111 201.937 185.056 201.909 185.01 201.868C184.965 201.828 184.93 201.777 184.91 201.72C184.88 201.629 184.88 201.531 184.91 201.44C184.933 201.305 184.963 201.172 185 201.04L185.18 200.33C185.27 199.856 185.411 199.394 185.6 198.95C185.581 199.433 185.511 199.912 185.39 200.38L185.25 201.09C185.2 201.33 185.11 201.7 185.25 201.67C185.75 201.67 186.46 201.56 187.12 201.52L188.12 201.43L187.99 201.65C187.56 200.65 187.2 199.71 186.99 199.06C186.806 198.728 186.671 198.371 186.59 198Z" fill="#46B2C8"/>
<path d="M152.35 282.17L196.7 280.82L216 356.16L212.45 442.58H189L191.87 358L174.72 305.55L177.36 445.93L153.66 446.28L151.17 314.33C151.06 310.66 149.86 302.39 150.31 298.75L152.35 282.17Z" fill="#263238"/>
<path d="M180.62 306.62C179.894 306.666 179.165 306.622 178.45 306.49C177.11 306.33 175.28 306.05 173.27 305.65C171.26 305.25 169.46 304.79 168.16 304.42C167.465 304.268 166.793 304.026 166.16 303.7C166.16 303.55 169.42 304.33 173.42 305.14C177.42 305.95 180.64 306.47 180.62 306.62Z" fill="#455A64"/>
<path d="M212.21 437.84C212.21 437.98 206.9 438.1 200.35 438.1C193.8 438.1 188.479 437.98 188.479 437.84C188.479 437.7 193.79 437.58 200.35 437.58C206.91 437.58 212.21 437.69 212.21 437.84Z" fill="#455A64"/>
<path d="M177.15 442.281C177.15 442.431 171.99 442.541 165.63 442.541C159.27 442.541 154.12 442.431 154.12 442.281C154.12 442.131 159.28 442.021 165.63 442.021C171.98 442.021 177.15 442.141 177.15 442.281Z" fill="#455A64"/>
<path d="M174.09 441.92C173.95 441.92 173.33 411.25 172.7 373.42C172.07 335.59 171.7 304.9 171.83 304.9C171.96 304.9 172.6 335.56 173.22 373.41C173.84 411.26 174.24 441.92 174.09 441.92Z" fill="#455A64"/>
<path d="M209.06 437.84C209.049 437.703 209.049 437.566 209.06 437.43V436.23C209.06 435.15 209.14 433.6 209.2 431.63C209.34 427.63 209.54 421.82 209.79 414.7C210.33 400.38 211.09 380.64 211.92 358.85C211.92 358.64 211.92 358.44 211.92 358.26V358.33C206.67 337.33 201.92 318.27 198.47 304.48L194.47 288.17C194.01 286.26 193.66 284.77 193.41 283.73C193.29 283.24 193.21 282.86 193.14 282.57C193.101 282.44 193.078 282.306 193.07 282.17C193.122 282.296 193.162 282.426 193.19 282.56C193.27 282.84 193.37 283.22 193.51 283.7C193.78 284.7 194.17 286.22 194.67 288.12C195.67 291.98 197.08 297.54 198.84 304.39C202.32 318.17 207.12 337.18 212.44 358.21V358.28C212.44 358.46 212.44 358.67 212.44 358.87C211.55 380.66 210.74 400.39 210.15 414.71C209.84 421.84 209.58 427.61 209.4 431.63C209.3 433.63 209.22 435.15 209.17 436.23C209.17 436.74 209.11 437.14 209.1 437.43C209.102 437.568 209.088 437.705 209.06 437.84Z" fill="#455A64"/>
<path d="M201.41 356.5C199.725 357.054 197.99 357.439 196.23 357.65C194.07 358.02 192.23 358.28 191.4 358.32V358.12C191.67 358.2 191.81 358.25 191.81 358.29C191.81 358.33 191.64 358.29 191.36 358.29H190.76L191.36 358.11C192.14 357.88 193.98 357.5 196.14 357.11C197.872 356.734 199.637 356.53 201.41 356.5Z" fill="#455A64"/>
<path d="M201 359.37C199.44 359.441 197.877 359.371 196.33 359.16C194.768 359.128 193.212 358.957 191.68 358.65C194.805 358.395 197.951 358.638 201 359.37Z" fill="#455A64"/>
<path opacity="0.2" d="M152.16 283.76C152.685 284.435 153.347 284.991 154.102 285.392C154.856 285.794 155.687 286.032 156.54 286.09C158.326 286.302 160.133 286.268 161.91 285.99C173.36 284.72 185.49 283.55 196.7 280.82C182.19 281.63 166.86 281.36 152.35 282.17L152.2 283.41" fill="black"/>
<g opacity="0.2">
<path d="M167.11 304.21L175.29 335.95L174.72 305.55L167.11 304.21Z" fill="black"/>
</g>
</svg>
