<svg width="671" height="671" viewBox="0 0 671 671" fill="none" xmlns="http://www.w3.org/2000/svg">
<path d="M631.975 375.84C612.221 428.755 571.853 486.032 515.046 502.981C429.158 528.614 418.959 597.807 265.22 591.392C242.771 590.555 220.48 587.284 198.737 581.636C188.106 578.845 177.666 575.371 167.482 571.235C77.6618 534.867 30.8663 454.804 26.9208 371.022C21.7809 260.844 98.6641 208.332 148.627 177.573C198.589 146.815 258.805 27.6718 409.995 32.7982C433.081 33.4807 456.011 36.8265 478.329 42.7693C529.205 56.5382 580.912 87.0553 610.959 131.516C613.214 134.853 615.37 138.27 617.428 141.769C657.647 209.996 658.922 303.694 631.975 375.84Z" fill="#46B2C8"/>
<path opacity="0.7" d="M631.975 375.84C612.221 428.755 571.853 486.032 515.046 502.981C429.158 528.614 418.959 597.807 265.22 591.392C242.771 590.555 220.48 587.284 198.737 581.636C188.106 578.845 177.666 575.371 167.482 571.235C77.6618 534.867 30.8663 454.804 26.9208 371.022C21.7809 260.844 98.6641 208.332 148.627 177.573C198.589 146.815 258.805 27.6718 409.995 32.7982C433.081 33.4807 456.011 36.8265 478.329 42.7693C529.205 56.5382 580.912 87.0553 610.959 131.516C613.214 134.853 615.37 138.27 617.428 141.769C657.647 209.996 658.922 303.694 631.975 375.84Z" fill="white"/>
<path d="M29.8326 520.32C32.7447 521.595 39.8708 521.433 39.8708 521.433C39.8708 521.433 38.3409 516.777 38.2067 516.495C36.6365 513.22 31.698 507.826 27.672 508.362C27.0063 508.472 26.371 508.72 25.8076 509.091C25.2441 509.462 24.7652 509.947 24.4018 510.516C24.0385 511.084 23.7989 511.723 23.6988 512.39C23.5986 513.057 23.6401 513.738 23.8204 514.388C24.4914 517.166 27.3499 519.246 29.8326 520.32Z" fill="#2EB255"/>
<path d="M32.2883 540.973C35.3078 541.403 41.6823 539.564 42.1789 539.417C43.2216 543.056 44.5084 546.62 46.0304 550.086C46.9027 552.112 47.8555 554.112 48.8218 556.138C48.2447 555.279 47.7213 554.528 47.6274 554.434C45.2655 551.683 39.0654 547.724 35.3347 549.374C34.7207 549.653 34.1725 550.058 33.7259 550.563C33.2792 551.069 32.9443 551.662 32.7429 552.306C32.5415 552.949 32.4782 553.628 32.5571 554.298C32.636 554.967 32.8554 555.613 33.2009 556.192C34.5429 558.701 37.8845 559.949 40.5685 560.339C43.2525 560.728 48.7413 559.278 50.1772 558.862C50.5529 559.627 50.9287 560.406 51.3179 561.171C53.1564 564.834 55.0084 568.484 56.6859 572.121C57.2898 573.396 57.84 574.685 58.3902 575.973C57.8668 575.208 57.4374 574.631 57.3569 574.497C54.9816 571.813 48.7815 567.854 45.0508 569.437C44.4401 569.722 43.8958 570.131 43.4531 570.639C43.0104 571.146 42.6791 571.741 42.4805 572.385C42.282 573.029 42.2206 573.707 42.3004 574.376C42.3802 575.044 42.5994 575.689 42.9438 576.268C44.2858 578.778 47.6408 580.012 50.3114 580.401C52.982 580.791 57.9608 579.475 59.7054 579.059C60.2288 580.401 60.7522 581.743 61.2084 583.085C61.4903 583.985 61.8392 584.843 62.0673 585.769C62.2955 586.695 62.5773 587.568 62.8188 588.453C63.2349 590.185 63.6777 591.969 64.0401 593.674C64.3085 594.855 64.5366 595.995 64.7647 597.123C64.1742 595.848 62.9799 593.365 62.8591 593.164C60.9266 590.091 55.3976 585.3 51.4655 586.293C50.8276 586.479 50.2351 586.795 49.7253 587.222C49.2155 587.648 48.7994 588.175 48.5032 588.77C48.2071 589.365 48.0371 590.015 48.0042 590.679C47.9713 591.342 48.076 592.006 48.3118 592.627C49.2915 595.311 52.3378 597.056 55.0218 597.847C57.8669 598.706 64.1743 597.915 64.966 597.847C65.3418 599.74 65.6907 601.578 65.9994 603.309C66.6704 607.161 67.1803 610.596 67.5695 613.509H70.2535C69.7838 610.489 69.1799 606.906 68.3747 602.88C67.999 600.961 67.5561 598.921 67.0327 596.828C68.9351 596.067 70.7904 595.193 72.5886 594.211C74.6687 596.465 79.983 599.096 80.6406 599.431C79.9159 601.216 79.1912 602.947 78.48 604.557C77.0038 607.953 75.6081 610.959 74.3735 613.509H77.2588C78.3189 611.147 79.4865 608.463 80.6943 605.457C81.4458 603.645 82.1973 601.699 82.9623 599.699C83.7272 599.86 89.9675 601.122 92.8796 600.464C95.5636 599.874 98.7173 598.384 99.9117 595.767C100.208 595.16 100.374 594.498 100.398 593.822C100.421 593.147 100.303 592.474 100.05 591.848C99.7966 591.221 99.4146 590.655 98.9284 590.186C98.4422 589.717 97.8628 589.355 97.2277 589.124C93.3762 587.782 87.5116 592.211 85.351 595.123C85.2302 595.298 84.009 597.311 83.338 598.599C83.6467 597.78 83.9553 596.989 84.2506 596.143C84.8679 594.466 85.4315 592.775 86.0489 590.963L86.8541 588.279C87.1359 587.38 87.3238 586.414 87.5787 585.461C88.1021 583.273 88.5181 581.019 88.9207 578.751C90.3969 579.288 95.6307 581.113 98.3147 580.911C100.999 580.71 104.407 579.73 105.964 577.328C106.353 576.777 106.622 576.15 106.752 575.487C106.882 574.825 106.871 574.143 106.719 573.485C106.567 572.828 106.277 572.21 105.87 571.672C105.462 571.134 104.946 570.688 104.354 570.363C100.744 568.511 94.2753 571.933 91.7121 574.497C91.551 574.658 89.9138 576.698 89.0281 577.838C89.2428 576.496 89.471 575.154 89.6454 573.705C90.142 569.679 90.5177 565.586 90.9874 561.506C91.1082 560.258 91.2424 559.01 91.3766 557.762C91.9 557.963 98.0866 560.258 101.12 560.057C103.804 559.855 107.199 558.876 108.769 556.474C109.156 555.922 109.423 555.294 109.552 554.632C109.681 553.971 109.669 553.289 109.517 552.632C109.365 551.975 109.076 551.357 108.67 550.819C108.264 550.281 107.749 549.835 107.159 549.509C103.549 547.643 97.0801 551.065 94.5034 553.629C94.3156 553.816 91.9671 556.769 91.4034 557.547C91.6853 554.796 92.0073 552.072 92.4234 549.388C92.9753 545.764 93.7552 542.178 94.7584 538.652C95 538.746 101.468 541.175 104.555 540.96C107.239 540.772 110.648 539.779 112.204 537.377C112.592 536.825 112.858 536.198 112.987 535.536C113.116 534.874 113.104 534.192 112.952 533.535C112.8 532.878 112.512 532.261 112.106 531.723C111.699 531.184 111.184 530.738 110.594 530.412C106.984 528.547 100.516 531.982 97.9524 534.532C97.7511 534.733 95.2684 537.9 94.7987 538.558C94.7987 538.357 94.9061 538.142 94.9597 537.941C96.0713 534.438 97.495 531.043 99.2139 527.795C100.126 525.983 101.12 524.306 102.113 522.709C103.267 523.286 108.554 525.849 111.386 525.97C114.217 526.091 117.559 525.46 119.438 523.286C119.885 522.78 120.22 522.186 120.421 521.541C120.622 520.897 120.685 520.217 120.605 519.547C120.525 518.877 120.305 518.231 119.958 517.652C119.611 517.073 119.146 516.573 118.592 516.187C115.211 513.932 108.407 516.643 105.575 518.871C105.414 518.992 103.991 520.414 102.971 521.461C103.428 520.75 103.884 519.998 104.313 519.314C106.004 516.764 107.722 514.523 109.252 512.604C110.138 511.49 110.956 510.51 111.735 509.584C113.157 509.584 118.901 509.383 121.411 508.242C123.92 507.101 126.671 504.954 127.262 502.149C127.424 501.494 127.447 500.811 127.328 500.146C127.209 499.482 126.951 498.849 126.571 498.291C126.191 497.732 125.698 497.26 125.123 496.905C124.548 496.55 123.905 496.321 123.236 496.231C119.21 495.802 114.405 501.331 112.929 504.646C112.808 504.927 111.332 509.638 111.399 509.638H111.386C110.621 510.51 109.802 511.45 108.943 512.496C107.36 514.429 105.602 516.643 103.844 519.206C101.886 521.909 100.093 524.728 98.4758 527.647C96.6679 530.897 95.1544 534.301 93.9532 537.82V537.954C93.9532 536.76 93.9532 533.431 93.9532 533.176C93.4835 529.58 90.464 522.91 86.4783 522.172C85.8115 522.068 85.1302 522.105 84.4788 522.281C83.8274 522.458 83.2205 522.77 82.6976 523.196C82.1747 523.623 81.7475 524.155 81.444 524.758C81.1404 525.36 80.9673 526.02 80.9358 526.695C80.7077 529.553 82.7744 532.412 84.7874 534.21C87.0688 536.25 93.3896 538.236 93.8996 538.37C92.7596 541.983 91.8629 545.668 91.2156 549.401C90.8264 551.575 90.5043 553.776 90.2091 555.977C90.2091 554.957 90.2091 554.031 90.2091 553.91C89.7394 550.314 86.7199 543.644 82.7341 542.906C82.0684 542.802 81.3882 542.838 80.7377 543.014C80.0872 543.19 79.4809 543.5 78.9582 543.926C78.4355 544.351 78.0081 544.881 77.7038 545.482C77.3994 546.084 77.2249 546.742 77.1917 547.415C76.9635 550.274 79.0302 553.132 81.0432 554.944C83.0562 556.755 88.451 558.554 89.8736 558.97L89.5515 561.52C89.0684 565.546 88.5986 569.652 88.0216 573.598C87.8203 574.94 87.5653 576.362 87.3103 577.744C87.3103 576.832 87.3103 576.053 87.3103 575.946C86.8406 572.349 83.8346 565.666 79.8354 564.928C79.1689 564.826 78.4884 564.865 77.8379 565.042C77.1874 565.219 76.5813 565.531 76.0589 565.957C75.5365 566.384 75.1094 566.915 74.8052 567.517C74.501 568.118 74.3265 568.777 74.2929 569.451C74.0648 572.309 76.1315 575.168 78.1579 576.966C80.1843 578.764 85.0289 580.415 86.7199 580.992C86.4246 582.334 86.1294 583.783 85.7805 585.139C85.5255 586.038 85.3376 586.937 85.0289 587.823C84.7203 588.708 84.4519 589.621 84.1701 590.507C83.5527 592.184 82.9354 593.915 82.3047 595.539L80.9627 598.814C81.1774 597.472 81.5532 594.694 81.5532 594.452C81.504 591.265 80.6451 588.144 79.057 585.38C79.0837 585.027 79.0837 584.673 79.057 584.32C78.9647 583.656 78.7348 583.018 78.3819 582.448C78.0289 581.878 77.5609 581.387 77.0076 581.008C76.4543 580.629 75.828 580.37 75.1687 580.247C74.5095 580.124 73.8318 580.14 73.1791 580.294C69.2604 581.341 66.7643 588.225 66.5764 591.849C66.5764 592.063 66.7106 594.398 66.818 595.875C66.6301 595.016 66.4422 594.197 66.2275 593.311C65.8115 591.58 65.3552 589.863 64.8855 588.011C64.6171 587.125 64.3353 586.226 64.0669 585.327C63.7985 584.427 63.4361 583.501 63.1141 582.575C62.3491 580.455 61.45 578.348 60.5106 576.241C62.0271 575.879 67.4085 574.51 69.5557 572.846C71.7029 571.182 73.9843 568.498 73.9709 565.639C73.988 564.965 73.8632 564.294 73.6046 563.671C73.346 563.048 72.9594 562.486 72.4698 562.021C71.9802 561.557 71.3985 561.201 70.7624 560.976C70.1263 560.751 69.45 560.661 68.7773 560.714C64.7513 561.157 61.2353 567.585 60.5106 571.142C60.5106 571.356 60.2288 573.96 60.1214 575.396C59.5443 574.134 58.9673 572.873 58.35 571.611C56.5383 567.988 54.6058 564.365 52.6867 560.741L50.9421 557.413C51.4923 557.279 57.9071 555.789 60.3361 553.937C62.4967 552.287 64.7647 549.589 64.7513 546.731C64.7684 546.056 64.6436 545.386 64.3851 544.762C64.1265 544.139 63.7399 543.577 63.2502 543.113C62.7606 542.648 62.1789 542.292 61.5428 542.067C60.9068 541.842 60.2305 541.753 59.5578 541.806C55.5318 542.248 52.0157 548.677 51.2911 552.233C51.2911 552.501 50.8885 556.259 50.8616 557.212C49.5196 554.756 48.3387 552.313 47.2114 549.844C45.644 546.524 44.299 543.103 43.1854 539.605C43.4404 539.605 50.1504 538.021 52.5794 536.129C54.7266 534.478 57.008 531.781 56.9811 528.922C57.0002 528.248 56.8772 527.578 56.6201 526.955C56.363 526.332 55.9777 525.769 55.4891 525.305C55.0005 524.84 54.4196 524.484 53.7842 524.259C53.1488 524.033 52.4731 523.944 51.801 523.997C47.775 524.44 44.259 530.868 43.5209 534.411C43.5209 534.693 43.1049 538.732 43.0914 539.47L42.8767 538.853C41.8791 535.319 41.1921 531.704 40.8235 528.05C40.5953 526.037 40.5014 524.091 40.4343 522.212C41.7763 522.051 47.5603 521.273 49.9759 519.81C52.3915 518.347 54.8474 515.972 55.1426 513.1C55.2352 512.432 55.1861 511.752 54.9984 511.104C54.8106 510.456 54.4885 509.854 54.053 509.339C53.6175 508.824 53.0784 508.406 52.4707 508.113C51.863 507.82 51.2005 507.658 50.5261 507.638C46.5001 507.638 42.2862 513.637 41.1321 517.032C41.1321 517.22 40.6624 519.193 40.394 520.642C40.394 519.783 40.394 518.911 40.394 518.092C40.394 515.019 40.5953 512.201 40.7832 509.718C40.904 508.376 41.0382 507.034 41.1858 505.84C42.3533 505.035 47.0503 501.72 48.4997 499.345C49.9491 496.969 51.0629 493.695 50.0027 491.038C49.7748 490.405 49.4164 489.828 48.9507 489.343C48.485 488.858 47.9225 488.477 47.2997 488.224C46.677 487.971 46.0079 487.851 45.3361 487.874C44.6642 487.896 44.0046 488.06 43.4001 488.354C39.7901 490.219 38.8373 497.479 39.3741 501.049C39.3741 501.358 40.7966 506.108 40.8503 506.068H40.9308C40.7698 507.209 40.6087 508.443 40.4745 509.785C40.2196 512.282 39.9646 515.086 39.8975 518.173C39.7838 521.494 39.86 524.818 40.1256 528.131C40.4199 531.837 41.0396 535.51 41.9776 539.108V539.242C41.3334 538.236 39.4546 535.498 39.2936 535.297C36.9182 532.613 30.7182 528.654 26.9874 530.237C26.4151 530.526 25.9064 530.927 25.4913 531.416C25.0762 531.905 24.7631 532.471 24.5705 533.083C24.3779 533.695 24.3097 534.338 24.3698 534.977C24.43 535.615 24.6173 536.235 24.9208 536.8C26.303 539.336 29.6043 540.571 32.2883 540.973Z" fill="#2EB255"/>
<path d="M101.912 521.891C101.912 521.891 103.254 517.153 103.254 516.845C103.764 513.262 102.609 506.028 98.9592 504.257C98.3441 503.979 97.6772 503.834 97.0022 503.831C96.3272 503.829 95.6593 503.969 95.0422 504.242C94.4251 504.516 93.8729 504.917 93.4216 505.419C92.9703 505.921 92.6303 506.513 92.4236 507.156C91.444 509.84 92.6786 513.154 94.1548 515.422C95.8726 518.093 101.898 521.891 101.912 521.891Z" fill="#2EB255"/>
<path d="M525.178 520.32C528.09 521.595 535.216 521.433 535.216 521.433C535.216 521.433 533.687 516.777 533.552 516.495C531.982 513.22 527.044 507.826 523.018 508.362C522.352 508.472 521.717 508.72 521.153 509.091C520.59 509.462 520.111 509.947 519.748 510.516C519.384 511.084 519.145 511.723 519.044 512.39C518.944 513.057 518.986 513.738 519.166 514.388C519.837 517.166 522.696 519.246 525.178 520.32Z" fill="#2EB255"/>
<path d="M527.634 540.973C530.654 541.403 537.028 539.564 537.525 539.417C538.573 543.053 539.86 546.617 541.376 550.085C542.248 552.112 543.201 554.111 544.167 556.138C543.59 555.279 543.067 554.528 542.973 554.434C540.611 551.682 534.411 547.724 530.68 549.374C530.066 549.653 529.518 550.058 529.072 550.563C528.625 551.068 528.29 551.662 528.089 552.306C527.887 552.949 527.824 553.628 527.903 554.297C527.982 554.967 528.201 555.613 528.547 556.192C529.889 558.701 533.23 559.949 535.914 560.338C538.598 560.728 544.087 559.278 545.523 558.862C545.899 559.627 546.274 560.405 546.664 561.17C548.502 564.834 550.354 568.484 552.032 572.121C552.635 573.396 553.186 574.684 553.736 575.973C553.213 575.208 552.783 574.631 552.703 574.496C550.327 571.812 544.141 567.854 540.396 569.437C539.783 569.719 539.237 570.126 538.791 570.633C538.346 571.139 538.011 571.734 537.81 572.378C537.609 573.022 537.545 573.701 537.623 574.371C537.701 575.041 537.919 575.687 538.263 576.268C539.605 578.777 542.96 580.012 545.63 580.401C548.301 580.79 553.28 579.475 555.024 579.059C555.548 580.401 556.084 581.743 556.527 583.085C556.809 583.984 557.158 584.843 557.386 585.769C557.614 586.695 557.896 587.568 558.138 588.453C558.554 590.184 558.997 591.969 559.359 593.674C559.627 594.855 559.855 595.995 560.084 597.123C559.493 595.848 558.299 593.365 558.178 593.164C556.245 590.09 550.716 585.3 546.784 586.293C546.136 586.479 545.534 586.799 545.018 587.232C544.501 587.666 544.081 588.203 543.785 588.809C543.489 589.415 543.324 590.076 543.299 590.75C543.275 591.424 543.392 592.095 543.644 592.721C544.624 595.405 547.67 597.149 550.354 597.941C553.199 598.8 559.507 598.008 560.298 597.941C560.674 599.833 561.023 601.672 561.332 603.403C562.003 607.255 562.513 610.69 562.902 613.602H565.586C565.116 610.583 564.512 607 563.707 602.974C563.331 601.055 562.888 599.015 562.365 596.921C564.267 596.16 566.123 595.286 567.921 594.304C570.001 596.559 575.315 599.189 575.973 599.525C575.248 601.31 574.523 603.041 573.812 604.651C572.336 608.046 570.94 611.053 569.706 613.602H572.591C573.651 611.24 574.819 608.556 576.027 605.55C576.778 603.739 577.53 601.793 578.295 599.793C579.059 599.954 585.3 601.216 588.212 600.558C590.896 599.968 594.05 598.478 595.244 595.861C595.541 595.254 595.706 594.591 595.73 593.916C595.754 593.241 595.635 592.568 595.382 591.942C595.129 591.315 594.747 590.749 594.261 590.28C593.774 589.811 593.195 589.449 592.56 589.218C588.708 587.876 582.844 592.305 580.683 595.217C580.562 595.391 579.341 597.404 578.67 598.693C578.979 597.874 579.288 597.082 579.596 596.237C580.2 594.559 580.764 592.868 581.381 591.057L582.186 588.373C582.468 587.474 582.656 586.507 582.911 585.555C583.434 583.367 583.85 581.112 584.253 578.845C585.729 579.381 590.963 581.206 593.647 581.005C596.331 580.804 599.74 579.824 601.296 577.422C601.686 576.871 601.954 576.243 602.084 575.581C602.214 574.919 602.203 574.236 602.051 573.579C601.899 572.921 601.61 572.303 601.202 571.765C600.794 571.227 600.278 570.781 599.686 570.457C596.076 568.605 589.608 572.027 587.044 574.59C586.883 574.751 585.246 576.791 584.36 577.932C584.575 576.59 584.803 575.248 584.978 573.799C585.474 569.773 585.85 565.68 586.253 561.6C586.373 560.352 586.508 559.104 586.642 557.856C587.165 558.057 593.352 560.352 596.385 560.15C599.069 559.949 602.464 558.97 604.034 556.567C604.421 556.015 604.688 555.388 604.817 554.726C604.946 554.064 604.934 553.383 604.782 552.726C604.63 552.069 604.342 551.451 603.935 550.913C603.529 550.375 603.014 549.928 602.424 549.602C598.814 547.737 592.345 551.159 589.769 553.722C589.581 553.91 587.232 556.863 586.669 557.641C586.95 554.89 587.272 552.166 587.689 549.482C588.241 545.857 589.02 542.272 590.024 538.746C590.265 538.84 596.734 541.269 599.82 541.054C602.504 540.866 605.913 539.873 607.47 537.471C607.857 536.919 608.124 536.291 608.252 535.629C608.381 534.968 608.369 534.286 608.217 533.629C608.066 532.972 607.777 532.354 607.371 531.816C606.964 531.278 606.449 530.832 605.859 530.506C602.249 528.64 595.781 532.076 593.218 534.626C593.016 534.827 590.534 537.994 590.064 538.652C590.064 538.45 590.171 538.236 590.225 538.034C591.336 534.532 592.76 531.136 594.479 527.889C595.392 526.077 596.385 524.4 597.378 522.803C598.532 523.38 603.819 525.943 606.651 526.064C609.483 526.184 612.824 525.554 614.703 523.38C615.15 522.874 615.485 522.279 615.686 521.635C615.887 520.991 615.95 520.311 615.87 519.641C615.79 518.97 615.57 518.325 615.223 517.746C614.876 517.166 614.411 516.667 613.858 516.28C610.476 514.026 603.672 516.737 600.84 518.964C600.692 519.085 599.257 520.508 598.237 521.555C598.693 520.843 599.149 520.092 599.579 519.407C601.283 516.858 602.987 514.616 604.517 512.697C605.403 511.583 606.222 510.604 607 509.678C608.422 509.678 614.166 509.477 616.676 508.336C619.185 507.195 621.936 505.048 622.527 502.243C622.689 501.588 622.712 500.905 622.593 500.24C622.474 499.575 622.216 498.943 621.836 498.385C621.456 497.826 620.963 497.354 620.388 496.999C619.813 496.644 619.17 496.415 618.501 496.325C614.475 495.895 609.657 501.425 608.181 504.739C608.06 505.021 606.584 509.732 606.651 509.732H606.745C605.98 510.604 605.161 511.543 604.302 512.59C602.719 514.522 600.961 516.737 599.203 519.3C597.268 522.004 595.497 524.823 593.902 527.741C592.094 530.99 590.581 534.395 589.379 537.914C589.385 537.958 589.385 538.003 589.379 538.048C589.379 536.853 589.379 533.525 589.379 533.27C588.91 529.674 585.89 523.004 581.904 522.266C581.238 522.161 580.556 522.199 579.905 522.375C579.254 522.552 578.647 522.863 578.124 523.29C577.601 523.717 577.174 524.249 576.87 524.851C576.567 525.454 576.393 526.114 576.362 526.788C576.134 529.647 578.201 532.505 580.214 534.304C582.495 536.343 588.816 538.33 589.326 538.464C588.186 542.077 587.289 545.762 586.642 549.495C586.253 551.669 585.93 553.87 585.635 556.071C585.635 555.051 585.635 554.125 585.635 554.004C585.166 550.408 582.146 543.738 578.16 543C577.495 542.895 576.814 542.932 576.164 543.108C575.513 543.284 574.907 543.594 574.384 544.019C573.862 544.445 573.434 544.975 573.13 545.576C572.826 546.177 572.651 546.836 572.618 547.509C572.39 550.367 574.456 553.226 576.469 555.037C578.482 556.849 583.877 558.647 585.3 559.063C585.206 559.909 585.085 560.754 584.978 561.613C584.495 565.639 584.025 569.746 583.448 573.691C583.246 575.033 582.992 576.456 582.737 577.838C582.737 576.925 582.737 576.147 582.737 576.04C582.267 572.443 579.261 565.76 575.262 565.022C574.595 564.92 573.915 564.958 573.264 565.136C572.614 565.313 572.007 565.625 571.485 566.051C570.963 566.477 570.536 567.009 570.231 567.61C569.927 568.212 569.753 568.871 569.719 569.544C569.491 572.403 571.558 575.261 573.584 577.06C575.611 578.858 580.469 580.509 582.146 581.086C581.851 582.428 581.556 583.877 581.207 585.232C580.952 586.132 580.764 587.031 580.455 587.916C580.146 588.802 579.878 589.715 579.596 590.6C578.979 592.278 578.362 594.009 577.731 595.633L576.389 598.907C576.604 597.565 576.979 594.787 576.979 594.546C576.937 591.358 576.077 588.235 574.483 585.474C574.488 585.119 574.465 584.765 574.416 584.414C574.324 583.75 574.094 583.112 573.741 582.542C573.388 581.971 572.92 581.481 572.367 581.102C571.813 580.723 571.187 580.464 570.528 580.341C569.869 580.218 569.191 580.234 568.538 580.388C564.62 581.435 562.123 588.319 561.936 591.942C561.936 592.157 562.07 594.492 562.177 595.968C561.989 595.11 561.801 594.291 561.587 593.405C561.171 591.674 560.714 589.956 560.245 588.104C559.976 587.219 559.694 586.319 559.426 585.42C559.158 584.521 558.795 583.595 558.473 582.669C557.708 580.549 556.809 578.442 555.87 576.335C557.386 575.973 562.768 574.604 564.915 572.94C567.062 571.276 569.343 568.592 569.33 565.733C569.347 565.059 569.222 564.388 568.964 563.765C568.705 563.141 568.318 562.58 567.829 562.115C567.339 561.651 566.758 561.295 566.121 561.069C565.485 560.844 564.809 560.755 564.136 560.808C560.11 561.251 556.594 567.679 555.87 571.235C555.87 571.45 555.588 574.054 555.481 575.49C554.903 574.228 554.326 572.967 553.709 571.705C551.897 568.082 549.965 564.458 548.046 560.835L546.301 557.507C546.851 557.373 553.266 555.883 555.695 554.031C557.856 552.38 560.124 549.683 560.11 546.824C560.127 546.15 560.003 545.479 559.744 544.856C559.486 544.233 559.099 543.671 558.609 543.206C558.12 542.742 557.538 542.386 556.902 542.161C556.266 541.935 555.59 541.846 554.917 541.899C550.891 542.342 547.375 548.77 546.65 552.327C546.65 552.595 546.248 556.353 546.221 557.305C544.946 554.85 543.698 552.407 542.57 549.938C541.026 546.616 539.703 543.195 538.612 539.698C538.867 539.698 545.577 538.115 548.006 536.223C550.153 534.572 552.434 531.875 552.407 529.016C552.426 528.342 552.303 527.672 552.046 527.049C551.789 526.425 551.404 525.863 550.915 525.399C550.427 524.934 549.846 524.578 549.21 524.352C548.575 524.127 547.899 524.038 547.227 524.091C543.201 524.534 539.685 530.962 538.947 534.505C538.947 534.787 538.531 538.826 538.518 539.564L538.303 538.947C537.305 535.412 536.618 531.798 536.25 528.144C536.035 526.131 535.928 524.185 535.86 522.306C537.202 522.145 542.986 521.367 545.402 519.904C547.818 518.441 550.274 516.066 550.569 513.194C550.661 512.526 550.612 511.845 550.425 511.197C550.237 510.549 549.915 509.948 549.479 509.433C549.044 508.918 548.505 508.5 547.897 508.207C547.289 507.914 546.627 507.752 545.952 507.732C541.926 507.732 537.712 513.731 536.558 517.126C536.558 517.314 536.089 519.287 535.82 520.736C535.82 519.877 535.82 519.005 535.82 518.186C535.82 515.113 536.021 512.295 536.209 509.812C536.33 508.47 536.464 507.128 536.612 505.934C537.779 505.128 542.477 501.814 543.926 499.438C545.375 497.063 546.489 493.789 545.429 491.131C545.201 490.499 544.843 489.922 544.377 489.437C543.911 488.952 543.349 488.571 542.726 488.318C542.103 488.064 541.434 487.945 540.762 487.967C540.09 487.99 539.431 488.153 538.826 488.447C535.216 490.313 534.263 497.573 534.867 501.143C534.867 501.451 536.209 506.202 536.344 506.162H536.411C536.25 507.303 536.089 508.537 535.954 509.879C535.699 512.375 535.444 515.18 535.377 518.267C535.264 521.587 535.34 524.912 535.605 528.224C535.9 531.931 536.519 535.604 537.457 539.202V539.336C536.813 538.33 534.934 535.592 534.773 535.391C532.398 532.707 526.198 528.748 522.467 530.331C521.853 530.611 521.304 531.018 520.858 531.524C520.411 532.031 520.076 532.625 519.875 533.27C519.673 533.915 519.61 534.594 519.689 535.265C519.768 535.936 519.988 536.582 520.334 537.162C521.649 539.336 524.95 540.571 527.634 540.973Z" fill="#2EB255"/>
<path d="M597.257 521.891C597.257 521.891 598.599 517.153 598.599 516.845C599.109 513.262 597.955 506.028 594.305 504.257C593.69 503.979 593.023 503.834 592.348 503.831C591.673 503.829 591.005 503.969 590.388 504.242C589.771 504.516 589.219 504.917 588.767 505.419C588.316 505.921 587.976 506.513 587.769 507.156C586.79 509.84 588.024 513.154 589.5 515.422C591.218 518.093 597.19 521.891 597.257 521.891Z" fill="#2EB255"/>
<path d="M468.8 240.983C468.8 240.983 469.216 225.832 477.953 221.537C486.689 217.243 487.186 231.428 487.186 231.428C487.186 231.428 507.168 218.733 511.503 228.355C515.838 237.977 509.785 242.634 509.785 242.634C509.785 242.634 527.526 242.016 528.761 251.746C529.996 261.475 520.83 266.239 520.83 266.239C520.83 266.239 531.794 275.19 527.942 279.324C524.091 283.457 515.663 283.752 515.663 283.752C515.663 283.752 520.441 293.348 512.107 296.756C503.773 300.165 494.245 293.817 494.245 293.817C494.245 293.817 495.721 298.219 489.467 297.105C483.214 295.991 476.893 293.079 473.014 283.9C469.136 274.721 464.13 248.726 468.8 240.983Z" fill="#023A59" stroke="#023A59" stroke-linecap="round" stroke-linejoin="round"/>
<path d="M376.551 533.605C376.551 533.605 371.573 552.608 371.653 554.715C371.734 556.822 370.002 561.6 371.465 562.955C374.203 565.188 377.106 567.211 380.148 569.007C381.388 568.991 382.598 568.623 383.637 567.947C383.973 567.646 384.243 567.278 384.431 566.867C384.618 566.455 384.718 566.01 384.724 565.558C384.724 564.847 382.725 561.868 382.456 561.17C382.188 560.472 386.12 551.387 387.61 546.864C388.725 542.826 389.524 538.707 389.998 534.545L376.551 533.605Z" fill="#D7B18F" stroke="#023A59" stroke-miterlimit="10"/>
<path d="M381.96 546.838C381.96 546.838 379.128 553.548 378.941 554.702C378.753 555.856 374.915 559.077 375.425 561.654C375.935 564.23 381.598 563.546 384.389 555.923" fill="#D7B18F"/>
<path d="M381.96 546.838C381.96 546.838 379.128 553.548 378.941 554.702C378.753 555.856 374.915 559.077 375.425 561.654C375.935 564.23 381.598 563.546 384.389 555.923" stroke="#023A59" stroke-miterlimit="10"/>
<path d="M394.642 430.379C394.642 430.379 392.266 469.136 391.367 472.558C390.468 475.98 379.678 507.235 377.303 516.844C375.846 522.794 374.81 528.839 374.203 534.934L388.683 537.98L396.816 502.256C396.816 502.256 407.444 469.699 405.284 454.441C404.176 445.549 400.475 437.181 394.642 430.379Z" fill="#46B2C8" stroke="#023A59" stroke-miterlimit="10"/>
<path d="M470.076 613.468C470.25 605.04 470.599 593.674 471.418 587.165C472.76 575.919 477.564 568.967 482.502 554.957C487.441 540.946 487.87 522.534 487.87 522.534L399.433 525.621C399.433 525.621 389.18 563.64 382.966 591.607C381.279 598.781 380.295 606.103 380.027 613.468" fill="#46B2C8"/>
<path d="M470.076 613.468C470.25 605.04 470.599 593.674 471.418 587.165C472.76 575.919 477.564 568.967 482.502 554.957C487.441 540.946 487.87 522.534 487.87 522.534L399.433 525.621C399.433 525.621 389.18 563.64 382.966 591.607C381.279 598.781 380.295 606.103 380.027 613.468" stroke="#023A59" stroke-miterlimit="10"/>
<path d="M411.015 539.872L484.597 541.939L486.153 536.249L411.015 539.872Z" fill="#023A59" stroke="#023A59" stroke-linecap="round" stroke-linejoin="round"/>
<path d="M407.297 612.126C407.297 612.126 405.848 566.108 405.808 541.134L407.297 612.126Z" fill="white"/>
<path d="M407.297 612.126C407.297 612.126 405.848 566.108 405.808 541.134" stroke="#023A59" stroke-miterlimit="10"/>
<path d="M463.701 333.03L474.437 340.25C474.437 340.25 487.146 351.603 490.273 360.997C493.4 370.391 491.132 426.178 487.978 444.201C484.824 462.224 492.702 484.676 495.507 497.345C498.312 510.013 499.533 533.579 499.533 533.579C499.533 533.579 501.519 536.343 467.056 537.537C432.594 538.732 408.559 540.53 405.74 541.094C404.037 541.443 402.31 541.663 400.574 541.751L399.232 529.512L395.89 539.591L388.737 537.953C388.737 537.953 393.179 516.052 394.293 507.517C395.407 498.982 402.439 469.941 402.533 459.017C402.627 448.093 393.501 430.513 391.717 419.696C389.932 408.88 393.528 390.334 402.453 376.323C411.377 362.313 417.362 356.891 434.808 342.585C452.254 328.279 463.701 333.03 463.701 333.03Z" fill="#46B2C8" stroke="#023A59" stroke-miterlimit="10"/>
<path d="M435.734 496.553L471.74 500.633L469.714 491.212L447.249 489.279" stroke="#023A59" stroke-miterlimit="10"/>
<path d="M423.146 488.756L421.321 494.929L430.353 495.949" stroke="#023A59" stroke-miterlimit="10"/>
<path d="M436.66 427.064C434.968 425.497 433.414 423.786 432.017 421.951" stroke="#023A59" stroke-miterlimit="10"/>
<path d="M449.181 437.639C449.181 437.639 445.383 434.767 441.223 431.197" stroke="#023A59" stroke-miterlimit="10"/>
<path d="M463.701 333.03C463.701 333.03 452.254 328.266 434.808 342.585C417.362 356.904 411.39 362.339 402.426 376.323C397.07 384.968 393.51 394.603 391.958 404.653C392.173 405.699 392.401 406.76 392.656 407.847C397.648 428.943 403.204 439.142 403.204 439.142C403.204 439.142 412.866 391.072 429.682 371.586C446.497 352.1 474.424 340.25 474.424 340.25L463.701 333.03Z" fill="#46B2C8" stroke="#023A59" stroke-miterlimit="10"/>
<path d="M421.737 239.264C421.737 239.264 409.136 251.034 408.196 260.307C407.257 269.58 406.277 277.578 404.707 280.571C403.137 283.564 395.219 285.523 397.903 290.046C400.587 294.568 403.097 294.474 403.097 294.474C403.097 294.474 407.123 314.483 410.182 317.288C413.242 320.093 424.072 318.483 424.072 318.483L427.427 342.746C427.427 342.746 404.895 362.728 400.507 390.575C396.118 418.421 401.137 434.311 401.137 434.311C401.137 434.311 404.076 390.441 414.222 374.015C424.367 357.589 447.933 342.035 451.409 339.23C454.884 336.425 463.701 333.003 463.701 333.003C463.701 333.003 459.514 323.609 458.951 319.368C458.387 315.128 458.575 308.887 459.367 307.183C460.159 305.479 474.236 300.366 479.497 284.235C484.757 268.104 477.014 249.061 468.761 240.955C460.507 232.85 432.285 228.824 421.737 239.264Z" fill="#D7B18F" stroke="#023A59" stroke-miterlimit="10"/>
<path d="M479.55 284.262C484.918 268.158 477.067 249.088 468.814 240.982C460.561 232.877 432.298 228.824 421.75 239.265C421.75 239.265 421.079 239.895 420.032 240.982C424.041 239.98 428.218 239.843 432.285 240.58C440.726 241.922 440.538 248.632 438.243 255.06C435.948 261.488 437.68 262.629 441.987 265.796C446.295 268.963 441.88 275.042 444.913 277.458C447.946 279.874 450.415 266.722 456.991 276.196C463.567 285.671 459.152 289.965 455.045 292.623C452.745 294.158 450.249 295.377 447.624 296.246C447.624 296.246 453.837 303.533 459.97 306.539C462.909 304.352 474.772 298.755 479.55 284.262Z" fill="#023A59" stroke="#023A59" stroke-linecap="round" stroke-linejoin="round"/>
<path d="M409.928 298.017C409.928 298.017 418.718 297.293 422.784 293.374" stroke="#023A59" stroke-miterlimit="10"/>
<path d="M415.51 277.256C415.577 279.337 414.785 281.054 413.752 281.095C412.718 281.135 411.806 279.471 411.725 277.391C411.645 275.31 412.45 273.593 413.483 273.552C414.517 273.512 415.429 275.176 415.51 277.256Z" fill="#023A59"/>
<path d="M411.726 268.762C411.726 268.762 414.557 264.951 418.61 269.446" stroke="#023A59" stroke-miterlimit="10"/>
<path d="M424.072 318.51L434.553 314.564L427.253 327.676L424.072 318.51Z" fill="#023A59" stroke="#023A59" stroke-miterlimit="10"/>
<path d="M393.891 511.127L380.148 569.007L392.481 571.879L399.272 529.553L393.891 511.127Z" fill="#FF993C" stroke="#023A59" stroke-miterlimit="10"/>
<path d="M406.035 372.552C403.397 378.295 401.537 384.366 400.506 390.602C396.118 418.435 401.137 434.337 401.137 434.337C401.137 434.337 404.049 391.058 414.02 374.39C411.297 374.083 408.618 373.466 406.035 372.552Z" fill="#DB4040" stroke="#023A59" stroke-miterlimit="10"/>
<path d="M448.496 390.616L447.557 439.733L361.602 453.905L363.48 477.054C363.48 477.054 411.188 477.994 433.385 476.101C455.582 474.209 474.987 472.8 477.778 470.438C480.57 468.076 488.662 422.421 491.963 390.307C495.265 358.193 488.662 347.363 475.443 349.215" fill="#46B2C8"/>
<path d="M448.496 390.616L447.557 439.733L361.602 453.905L363.48 477.054C363.48 477.054 411.188 477.994 433.385 476.101C455.582 474.209 474.987 472.8 477.778 470.438C480.57 468.076 488.662 422.421 491.963 390.307C495.265 358.193 488.662 347.363 475.443 349.215" stroke="#023A59" stroke-miterlimit="10"/>
<path d="M310.176 451.824L303.292 472.705L310.002 476.355C310.002 476.355 318.524 482.958 323.194 486.528C327.864 490.098 331.447 490.098 333.93 488.997C336.413 487.897 347.672 471.954 349.041 468.934C350.41 465.915 343.82 456.856 337.231 452.991C330.642 449.126 325.153 449.153 321.288 450.307C317.63 451.103 313.914 451.61 310.176 451.824Z" fill="#D7B18F" stroke="#023A59" stroke-miterlimit="10"/>
<path d="M361.602 453.904L350.732 452.964C347.322 452.075 343.849 451.442 340.345 451.072C337.513 451.072 333.729 453.904 331.836 455.326C329.944 456.749 309.17 479.415 309.17 479.415C309.17 479.415 311.062 483.186 313.894 482.247C316.725 481.308 321.946 478.932 321.946 478.932C321.946 478.932 316.283 484.609 319.114 487.44C321.946 490.272 326.67 490.272 326.67 490.272L329.984 488.38C331.378 489.479 332.98 490.283 334.695 490.742C337.057 491.211 340.841 490.272 344.089 488.38C347.336 486.488 355.778 476.637 355.778 476.637L363.024 473.833L361.602 453.904Z" fill="#D7B18F" stroke="#023A59" stroke-miterlimit="10"/>
<path d="M313.921 452.723C313.921 452.723 327.663 444.752 333.702 446.953C339.741 449.154 347.726 462.614 345.525 464.546C343.324 466.479 339.754 465.633 337.835 463.714C336.23 462.257 334.481 460.966 332.615 459.863C328.996 461.896 324.941 463.028 320.792 463.164" fill="#D7B18F"/>
<path d="M313.921 452.723C313.921 452.723 327.663 444.752 333.702 446.953C339.741 449.154 347.726 462.614 345.525 464.546C343.324 466.479 339.754 465.633 337.835 463.714C336.23 462.257 334.481 460.966 332.615 459.863C328.996 461.896 324.941 463.028 320.792 463.164" stroke="#023A59" stroke-miterlimit="10"/>
<path d="M354.905 483.925L350.544 481.59C350.193 481.403 349.882 481.15 349.629 480.843C349.376 480.536 349.186 480.183 349.07 479.802C348.954 479.422 348.914 479.022 348.953 478.627C348.992 478.231 349.108 477.847 349.296 477.496C349.483 477.146 349.738 476.837 350.045 476.585C350.352 476.333 350.706 476.145 351.086 476.03C351.467 475.915 351.866 475.877 352.261 475.917C352.656 475.956 353.039 476.074 353.389 476.262L357.751 478.583C358.457 478.962 358.986 479.605 359.219 480.372C359.453 481.139 359.374 481.968 358.999 482.677C358.62 483.383 357.977 483.912 357.21 484.146C356.443 484.379 355.614 484.3 354.905 483.925Z" fill="#D7B18F" stroke="#023A59" stroke-miterlimit="10"/>
<path d="M351.053 488.595L346.692 486.26C346.002 485.882 345.487 485.25 345.254 484.499C345.021 483.748 345.089 482.936 345.444 482.234C345.824 481.547 346.457 481.034 347.208 480.804C347.958 480.574 348.769 480.644 349.47 480.999L353.831 483.321C354.523 483.697 355.041 484.328 355.274 485.08C355.507 485.832 355.437 486.646 355.079 487.347C354.703 488.039 354.072 488.557 353.32 488.79C352.568 489.023 351.755 488.953 351.053 488.595Z" fill="#D7B18F" stroke="#023A59" stroke-miterlimit="10"/>
<path d="M346.652 492.715L342.29 490.38C341.939 490.194 341.628 489.94 341.375 489.633C341.123 489.326 340.933 488.971 340.819 488.591C340.704 488.21 340.666 487.81 340.706 487.415C340.747 487.019 340.866 486.636 341.056 486.286C341.243 485.936 341.498 485.627 341.805 485.375C342.112 485.123 342.466 484.935 342.846 484.82C343.226 484.705 343.625 484.667 344.021 484.707C344.416 484.746 344.799 484.864 345.149 485.052L349.51 487.387C349.86 487.574 350.17 487.829 350.422 488.136C350.674 488.443 350.862 488.797 350.977 489.177C351.091 489.558 351.13 489.957 351.09 490.352C351.05 490.747 350.933 491.13 350.745 491.48C350.558 491.83 350.303 492.14 349.996 492.392C349.689 492.643 349.335 492.832 348.955 492.946C348.574 493.061 348.175 493.1 347.78 493.06C347.385 493.02 347.002 492.903 346.652 492.715Z" fill="#D7B18F" stroke="#023A59" stroke-miterlimit="10"/>
<path d="M337.393 492.916L336.252 492.312C335.901 492.126 335.59 491.872 335.337 491.565C335.084 491.259 334.894 490.905 334.778 490.525C334.662 490.144 334.622 489.745 334.661 489.349C334.7 488.954 334.816 488.569 335.004 488.219C335.383 487.512 336.026 486.984 336.793 486.75C337.56 486.516 338.388 486.596 339.097 486.971L340.238 487.588C340.589 487.774 340.9 488.028 341.153 488.335C341.406 488.642 341.596 488.995 341.712 489.376C341.828 489.756 341.868 490.155 341.829 490.551C341.79 490.947 341.673 491.331 341.486 491.681C341.298 492.031 341.044 492.341 340.737 492.593C340.429 492.845 340.076 493.033 339.695 493.148C339.315 493.262 338.916 493.301 338.521 493.261C338.126 493.221 337.742 493.104 337.393 492.916Z" fill="#D7B18F" stroke="#023A59" stroke-miterlimit="10"/>
<path d="M310.176 451.825L252.497 427.44L254.631 465.647L302.258 476.558L310.176 451.825Z" fill="#023A59" stroke="#023A59" stroke-linecap="round" stroke-linejoin="round"/>
<path d="M302.259 476.557L310.177 451.824L302.111 448.254L301.95 449.073L294.569 474.691L302.259 476.557Z" fill="white" stroke="#023A59" stroke-miterlimit="10"/>
<path d="M220.088 298.997L234.85 305.855C234.85 305.855 241.05 323.421 238.983 323.931C236.917 324.441 221.416 312.055 221.416 312.055L220.088 298.997Z" fill="white" stroke="#023A59" stroke-linecap="round" stroke-linejoin="round"/>
<path d="M228.663 295.481L229.696 289.563C229.696 289.563 243.385 290.502 248.86 290.462C254.336 290.422 259.113 289.724 259.073 283.913C259.033 278.102 255.839 258.281 255.839 258.281C255.839 258.281 261.985 256.872 264.36 254.121C266.736 251.37 263.3 247.974 260.2 243.881C257.1 239.788 254.322 235.373 253.96 230.582C253.597 225.791 245.277 210.116 245.277 210.116C245.277 210.116 246.619 207.714 242.15 202.615C237.681 197.515 214.76 196.629 200.092 203.957C185.424 211.284 182.082 221.859 182.149 233.481C182.216 245.102 188.859 261.488 188.859 261.488C188.859 261.488 184.525 279.297 184.189 280.276C183.854 281.256 179.962 288.892 179.962 288.892C179.962 288.892 198.307 301.681 205.004 307.425C211.7 313.169 226.825 322.992 226.918 317.678C227.012 312.363 227.616 300.366 227.616 300.366L228.663 295.481Z" fill="#D7B18F" stroke="#023A59" stroke-linecap="round" stroke-linejoin="round"/>
<path d="M248.887 239.976C248.968 241.962 248.511 243.586 247.854 243.613C247.196 243.64 246.579 242.07 246.512 240.083C246.445 238.097 246.874 236.473 247.545 236.447C248.216 236.42 248.793 237.99 248.887 239.976Z" fill="#023A59"/>
<path d="M239.266 233.413C239.266 233.413 242.312 228.26 250.203 231.293" stroke="#023A59" stroke-width="2" stroke-linecap="round" stroke-linejoin="round"/>
<path d="M259.073 283.913C259.073 278.089 255.839 258.281 255.839 258.281C255.839 258.281 252.068 256.254 244.888 257.999C237.708 259.744 235.749 271.419 234.38 272.761C233.011 274.103 224.087 266.051 220.625 260.535C217.162 255.02 214.72 245.586 214.344 240.07C213.968 234.554 226.945 231.776 228.972 226.65C230.998 221.523 221.43 216.062 224.771 212.639C228.113 209.217 235.024 210.532 238.446 211.19C240.779 211.506 243.153 211.132 245.277 210.116C245.277 210.116 246.619 207.714 242.15 202.615C237.681 197.515 214.76 196.629 200.092 203.957C185.424 211.284 182.082 221.859 182.149 233.481C182.217 242.875 186.565 255.436 188.202 259.864C189.587 260.464 191.081 260.774 192.59 260.777C193.932 260.428 194.952 256.322 195.61 252.202C196.267 248.082 206.158 243.25 206.158 243.25C206.158 243.25 207.943 255.557 207.956 257.945C207.97 260.334 206.614 272.318 213.217 278.075C218.386 282.361 223.898 286.216 229.696 289.603C229.696 289.603 243.385 290.543 248.86 290.502C254.336 290.462 259.113 289.724 259.073 283.913Z" fill="#023A59" stroke="#023A59" stroke-linecap="round" stroke-linejoin="round"/>
<path d="M208.266 251.732C208.266 251.732 205.42 235.333 200.643 236.044C195.865 236.755 193.155 242.928 195.597 250.806C198.039 258.684 202.83 257.945 205.555 257.248" fill="#D7B18F"/>
<path d="M208.266 251.732C208.266 251.732 205.42 235.333 200.643 236.044C195.865 236.755 193.155 242.928 195.597 250.806C198.039 258.684 202.83 257.945 205.555 257.248" stroke="#023A59" stroke-linecap="round" stroke-linejoin="round"/>
<path d="M241.855 264.172C241.855 264.172 244.607 267.581 251.786 267.54" stroke="white" stroke-linecap="round" stroke-linejoin="round"/>
<path d="M165.066 613.468H237.534C237.776 609.657 240.594 595.002 240.594 585.393C240.594 574.295 248.23 502.699 248.23 502.699L153.981 501.465L157.068 545.281L165.066 613.468Z" fill="#023A59" stroke="#023A59" stroke-linecap="round" stroke-linejoin="round"/>
<path d="M174.46 291.388C174.46 291.388 157.94 312.578 153.283 324.455C148.627 336.331 145.017 338.398 146.05 353.375C147.083 368.351 154.33 428.272 154.33 428.272L139.863 506.282C156.938 512.399 174.936 515.54 193.074 515.569C223.027 515.569 236.018 512.992 238.017 511.959C240.017 510.925 258.147 506.282 258.147 506.282C258.147 506.282 258.147 417.952 252.457 387.475C246.767 356.998 239.547 333.795 236.97 328.065C234.394 322.334 226.114 303.788 226.114 303.788L174.46 291.388Z" fill="#023A59" stroke="#023A59" stroke-linecap="round" stroke-linejoin="round"/>
<path d="M237.01 328.065C234.42 322.388 226.154 303.788 226.154 303.788L174.46 291.388C174.46 291.388 170.97 295.87 166.743 301.869C178.003 308.404 205.876 324.562 207.527 324.965C209.593 325.488 219.927 324.455 219.927 324.455L215.31 330.131C215.31 330.131 227.71 339.955 231.844 344.075C234.018 346.249 240.325 351.992 245.827 356.958C242.083 342.115 238.621 331.634 237.01 328.065Z" fill="#023A59" stroke="#023A59" stroke-linecap="round" stroke-linejoin="round"/>
<path d="M213.244 315.155L230.811 329.098L245.264 354.931L235.978 317.221L216.868 306.378L213.244 315.155Z" fill="white" stroke="#023A59" stroke-linecap="round" stroke-linejoin="round"/>
<path d="M178.124 281.578L232.207 305.949V325.059L170.367 293.455L178.124 281.578Z" fill="white" stroke="#023A59" stroke-linecap="round" stroke-linejoin="round"/>
<path d="M249.639 477.067H156.182V552.689H249.639V477.067Z" fill="#D3766A" stroke="#023A59" stroke-miterlimit="10"/>
<path d="M208.64 513.113C208.64 513.113 215.592 522.172 218.316 523.084C220.61 524.027 222.507 525.734 223.684 527.916C224.892 529.727 226.368 543.322 227.308 544.234C228.247 545.147 228.22 547.254 224.892 545.737C221.564 544.221 219.524 539.027 219.524 539.027L220.732 551.105C220.732 551.105 223.416 551.709 221.336 553.226C219.256 554.742 217.404 556.849 215.592 555.91C213.98 554.95 212.465 553.835 211.069 552.582C208.911 553.306 206.613 553.513 204.359 553.185C201.045 552.581 201.675 553.789 198.629 551.669C195.583 549.549 195.596 551.978 194.093 548.046C191.752 541.009 189.834 533.839 188.349 526.574C187.746 522.641 187.142 517.18 187.142 517.18L208.64 513.113Z" fill="#D7B18F" stroke="#023A59" stroke-linecap="round" stroke-linejoin="round"/>
<path d="M209.862 507.369L211.969 516.736L185.988 520.36L184.78 510.993L209.862 507.369Z" fill="white" stroke="#023A59" stroke-linecap="round" stroke-linejoin="round"/>
<path d="M176.567 310.002C176.567 310.002 158.49 315.679 157.98 323.945C157.47 332.212 151.471 432.473 154.061 439.183C156.651 445.893 182.055 513.892 182.055 513.892L211.499 510.282C211.499 510.282 196.415 431.426 195.932 429.869C195.448 428.313 206.05 340.465 206.05 340.465" fill="#023A59"/>
<path d="M176.567 310.002C176.567 310.002 158.49 315.679 157.98 323.945C157.47 332.212 151.471 432.473 154.061 439.183C156.651 445.893 182.055 513.892 182.055 513.892L211.499 510.282C211.499 510.282 196.415 431.426 195.932 429.869C195.448 428.313 206.05 340.465 206.05 340.465" stroke="#023A59" stroke-linecap="round" stroke-linejoin="round"/>
<path d="M202.548 365.694L195.892 429.869L202.239 469.74" stroke="#878787" stroke-linecap="round" stroke-linejoin="round"/>
<path d="M203.568 355.871L203.219 359.28" stroke="#878787" stroke-linecap="round" stroke-linejoin="round"/>
<path d="M155.9 345.94L153.914 406.196" stroke="#878787" stroke-linecap="round" stroke-linejoin="round"/>
<path d="M223.429 459.219L243.291 458.494L245.076 465.647L212.17 467.754" stroke="#878787" stroke-linecap="round" stroke-linejoin="round"/>
<path d="M206.883 459.809L217.458 459.434" stroke="#878787" stroke-linecap="round" stroke-linejoin="round"/>
<path d="M171.132 303.573L207.567 324.965L219.967 324.455L215.31 330.131L239.319 349.255" stroke="#878787" stroke-linecap="round" stroke-linejoin="round"/>
<path d="M15.4062 613.469H628.016" stroke="#023A59" stroke-miterlimit="10"/>
</svg>
