<svg width="566" height="566" viewBox="0 0 566 566" fill="none" xmlns="http://www.w3.org/2000/svg">
<path d="M521.987 127.576C520.198 124.557 518.312 121.576 516.327 118.633C490.155 79.749 444.943 53.2036 400.523 41.1365C381.035 35.9513 361.013 33.0304 340.856 32.4314C208.842 27.9034 156.272 131.991 112.633 158.842C68.9945 185.693 1.88953 231.561 6.36093 327.77C10.8323 423.979 80.2013 514.55 214.445 520.21C348.689 525.87 357.632 465.387 432.593 443.019C482.186 428.213 517.493 378.201 534.688 331.981C558.211 268.974 557.102 187.153 521.987 127.576Z" fill="#46B2C8"/>
<path opacity="0.7" d="M521.987 127.576C520.198 124.557 518.312 121.576 516.327 118.633C490.155 79.749 444.943 53.2036 400.523 41.1365C381.035 35.9513 361.013 33.0304 340.856 32.4314C208.842 27.9034 156.272 131.991 112.633 158.842C68.9945 185.693 1.88953 231.561 6.36093 327.77C10.8323 423.979 80.2013 514.55 214.445 520.21C348.689 525.87 357.632 465.387 432.593 443.019C482.186 428.213 517.493 378.201 534.688 331.981C558.211 268.974 557.102 187.153 521.987 127.576Z" fill="white"/>
<path d="M35.8398 507.396H548.353" stroke="#263238" stroke-linecap="round" stroke-linejoin="round"/>
<path opacity="0.3" d="M548.432 279.785V262.364H536.851C535.953 258.363 534.4 254.539 532.255 251.044L540.621 242.678L528.305 230.373L519.973 238.694C516.545 236.566 512.795 235.006 508.868 234.075V221.985H491.447V234.075C487.598 234.994 483.922 236.522 480.557 238.603L471.773 229.796L459.456 242.112L468.196 250.851C466.138 254.159 464.61 257.769 463.668 261.549H451.068V278.97H463.464C464.321 282.769 465.768 286.409 467.754 289.758L458.879 298.644L471.195 310.961L479.832 302.323C483.156 304.46 486.797 306.057 490.62 307.055V319.337H508.042V307.463C511.991 306.61 515.776 305.123 519.249 303.059L527.716 311.538L540.032 299.222L531.814 290.992C534.026 287.545 535.659 283.76 536.648 279.785H548.432ZM500.163 290.505C496.235 290.508 492.395 289.345 489.128 287.164C485.861 284.983 483.314 281.882 481.81 278.254C480.306 274.625 479.912 270.632 480.678 266.779C481.443 262.927 483.335 259.388 486.112 256.61C488.89 253.833 492.429 251.941 496.281 251.176C500.134 250.41 504.127 250.804 507.755 252.308C511.384 253.813 514.485 256.359 516.666 259.626C518.847 262.893 520.009 266.733 520.007 270.661C520.007 273.267 519.494 275.848 518.497 278.255C517.499 280.663 516.038 282.85 514.195 284.693C512.352 286.536 510.165 287.998 507.757 288.995C505.35 289.992 502.769 290.505 500.163 290.505Z" stroke="black" stroke-linecap="round" stroke-linejoin="round"/>
<g opacity="0.3">
<path d="M130.27 448.861V431.44H118.701C117.8 427.438 116.243 423.613 114.093 420.12L122.47 411.754L110.143 399.449L101.879 407.769C98.451 405.638 94.701 404.074 90.7741 403.14V391.05H73.296V403.14C69.4465 404.065 65.7675 405.594 62.3948 407.668L53.6218 398.883L41.3057 411.177L50.0447 419.972C47.9868 423.28 46.459 426.89 45.5167 430.67H32.9062V448.091H45.279C46.1308 451.891 47.5788 455.532 49.5693 458.879L40.751 467.709L53.0672 480.025L61.7043 471.388C65.0142 473.517 68.6398 475.111 72.447 476.108V488.413H89.8911V476.572C93.8403 475.72 97.625 474.233 101.098 472.169L109.565 480.636L121.881 468.32L113.652 460.102C115.866 456.656 117.499 452.87 118.485 448.895L130.27 448.861ZM82.0011 459.592C78.0751 459.588 74.2385 458.42 70.9763 456.235C67.7141 454.051 65.1727 450.948 63.6734 447.32C62.174 443.691 61.7841 439.7 62.5527 435.85C63.3214 432 65.2142 428.464 67.9919 425.689C70.7696 422.915 74.3075 421.026 78.1585 420.262C82.0094 419.497 86.0005 419.892 89.6272 421.395C93.254 422.899 96.3536 425.444 98.5344 428.708C100.715 431.973 101.879 435.811 101.879 439.737C101.881 442.347 101.367 444.931 100.368 447.342C99.3698 449.753 97.9053 451.944 96.0589 453.788C94.2124 455.633 92.0203 457.095 89.6081 458.091C87.1958 459.087 84.6108 459.597 82.0011 459.592Z" stroke="black" stroke-linecap="round" stroke-linejoin="round"/>
<path d="M78.7985 360.565V349.087H71.1801C70.5869 346.45 69.5618 343.929 68.1464 341.627L73.6592 336.114L65.5428 327.997L60.0526 333.488C57.7947 332.086 55.3254 331.058 52.7398 330.443V322.519H41.25V330.443C38.718 331.046 36.2963 332.043 34.0732 333.397L28.3 327.613L20.1835 335.729L25.9454 341.491C24.5906 343.673 23.5824 346.052 22.9569 348.543H14.6367V359.976H22.8098C23.3793 362.478 24.334 364.877 25.6398 367.085L19.7873 372.938L27.9038 381.054L33.5638 375.394C35.7777 376.815 38.2043 377.874 40.752 378.53V386.635H52.1852V378.802C54.7894 378.241 57.2857 377.262 59.5771 375.904L65.1579 381.484L73.2743 373.368L67.852 367.9C69.3107 365.632 70.3854 363.138 71.033 360.52L78.7985 360.565ZM47.0006 367.629C44.4115 367.631 41.8799 366.865 39.7262 365.428C37.5725 363.991 35.8935 361.947 34.9016 359.556C33.9098 357.164 33.6497 354.532 34.1543 351.993C34.6588 349.453 35.9054 347.12 37.7361 345.29C39.5669 343.459 41.8996 342.212 44.4391 341.708C46.9786 341.203 49.6107 341.463 52.0023 342.455C54.3939 343.447 56.4375 345.126 57.8745 347.28C59.3116 349.433 60.0774 351.965 60.0752 354.554C60.0752 358.022 58.6977 361.347 56.2457 363.799C53.7938 366.251 50.4682 367.629 47.0006 367.629Z" stroke="black" stroke-linecap="round" stroke-linejoin="round"/>
</g>
<path d="M403.695 135.093H165.929C162.128 135.093 159.047 138.174 159.047 141.975V500.638C159.047 504.439 162.128 507.521 165.929 507.521H403.695C407.496 507.521 410.577 504.439 410.577 500.638V141.975C410.577 138.174 407.496 135.093 403.695 135.093Z" fill="#263238" stroke="#263238" stroke-linecap="round" stroke-linejoin="round"/>
<path d="M397.785 143.492H171.826V493.178H397.785V143.492Z" fill="white" stroke="#263238" stroke-linecap="round" stroke-linejoin="round"/>
<path d="M303.829 105.752C303.322 105.752 302.835 105.55 302.476 105.191C302.118 104.833 301.916 104.346 301.916 103.839V93.0279C301.916 92.4903 301.81 91.958 301.604 91.4615C301.398 90.9649 301.096 90.5139 300.715 90.1343C300.334 89.7547 299.883 89.4539 299.385 89.2492C298.888 89.0445 298.356 88.9399 297.818 88.9414H280.397C279.86 88.9399 279.328 89.0446 278.831 89.2495C278.335 89.4543 277.884 89.7552 277.504 90.135C277.124 90.5148 276.823 90.9659 276.618 91.4623C276.413 91.9588 276.309 92.4909 276.31 93.0279V103.839C276.31 104.091 276.26 104.34 276.163 104.573C276.067 104.806 275.925 105.018 275.746 105.195C275.567 105.373 275.355 105.514 275.121 105.609C274.888 105.705 274.638 105.753 274.386 105.752C274.134 105.752 273.884 105.801 273.651 105.898C273.418 105.995 273.207 106.137 273.029 106.316C272.851 106.495 272.711 106.707 272.615 106.94C272.52 107.174 272.471 107.424 272.473 107.676V136.972H305.754V107.676C305.754 107.423 305.704 107.173 305.607 106.94C305.51 106.706 305.369 106.494 305.19 106.315C305.011 106.137 304.799 105.995 304.566 105.898C304.332 105.801 304.082 105.752 303.829 105.752ZM289.113 104.744C288.052 104.744 287.014 104.429 286.132 103.84C285.25 103.25 284.562 102.412 284.156 101.432C283.75 100.451 283.643 99.3725 283.851 98.3317C284.058 97.2908 284.569 96.3348 285.319 95.5844C286.069 94.834 287.025 94.3229 288.066 94.1159C289.107 93.9088 290.186 94.0151 291.166 94.4212C292.147 94.8273 292.985 95.5151 293.574 96.3974C294.164 97.2798 294.479 98.3172 294.479 99.3785C294.476 100.801 293.91 102.164 292.904 103.169C291.898 104.175 290.535 104.741 289.113 104.744Z" fill="#263238" stroke="#263238" stroke-linecap="round" stroke-linejoin="round"/>
<path d="M246.925 127.656H331.293C333.89 127.656 336.38 128.688 338.216 130.524C340.053 132.361 341.084 134.851 341.084 137.448V146.097H237.133V137.448C237.133 134.851 238.164 132.361 240.001 130.524C241.837 128.688 244.328 127.656 246.925 127.656Z" fill="white" stroke="#263238" stroke-linecap="round" stroke-linejoin="round"/>
<path d="M239.713 130.848H338.469C337.553 129.843 336.438 129.04 335.194 128.49C333.951 127.94 332.606 127.656 331.246 127.656H246.924C245.566 127.657 244.223 127.941 242.981 128.491C241.739 129.04 240.626 129.843 239.713 130.848Z" fill="#263238" stroke="#263238" stroke-linecap="round" stroke-linejoin="round"/>
<path d="M341.084 146.006H237.133V152.062H341.084V146.006Z" fill="white" stroke="#263238" stroke-linecap="round" stroke-linejoin="round"/>
<path d="M316.359 234.211H333.905" stroke="#263238" stroke-miterlimit="10"/>
<path d="M194.67 234.211H302.776" stroke="#263238" stroke-miterlimit="10"/>
<path d="M290.324 247.795H333.906" stroke="#263238" stroke-miterlimit="10"/>
<path d="M223.535 247.795H278.437" stroke="#263238" stroke-miterlimit="10"/>
<path d="M194.67 247.795H213.348" stroke="#263238" stroke-miterlimit="10"/>
<path d="M249.006 261.379H333.906" stroke="#263238" stroke-miterlimit="10"/>
<path d="M194.67 261.379H230.328" stroke="#263238" stroke-miterlimit="10"/>
<path d="M374.091 261.379C382.218 261.379 388.807 254.791 388.807 246.663C388.807 238.536 382.218 231.947 374.091 231.947C365.964 231.947 359.375 238.536 359.375 246.663C359.375 254.791 365.964 261.379 374.091 261.379Z" stroke="#263238" stroke-miterlimit="10"/>
<path d="M212.216 294.773H194.67" stroke="#263238" stroke-miterlimit="10"/>
<path d="M333.907 294.773H225.801" stroke="#263238" stroke-miterlimit="10"/>
<path d="M238.252 308.357H194.67" stroke="#263238" stroke-miterlimit="10"/>
<path d="M305.041 308.357H250.139" stroke="#263238" stroke-miterlimit="10"/>
<path d="M333.907 308.357H315.229" stroke="#263238" stroke-miterlimit="10"/>
<path d="M279.57 321.941H194.67" stroke="#263238" stroke-miterlimit="10"/>
<path d="M333.906 321.941H298.248" stroke="#263238" stroke-miterlimit="10"/>
<path d="M374.091 321.941C382.218 321.941 388.807 315.352 388.807 307.225C388.807 299.097 382.218 292.509 374.091 292.509C365.964 292.509 359.375 299.097 359.375 307.225C359.375 315.352 365.964 321.941 374.091 321.941Z" stroke="#263238" stroke-miterlimit="10"/>
<path d="M316.359 355.335H333.905" stroke="#263238" stroke-miterlimit="10"/>
<path d="M194.67 355.335H302.776" stroke="#263238" stroke-miterlimit="10"/>
<path d="M290.324 368.919H333.906" stroke="#263238" stroke-miterlimit="10"/>
<path d="M223.535 368.919H278.437" stroke="#263238" stroke-miterlimit="10"/>
<path d="M194.67 368.919H213.348" stroke="#263238" stroke-miterlimit="10"/>
<path d="M249.006 382.503H333.906" stroke="#263238" stroke-miterlimit="10"/>
<path d="M194.67 382.503H230.328" stroke="#263238" stroke-miterlimit="10"/>
<path d="M374.091 382.503C382.218 382.503 388.807 375.915 388.807 367.787C388.807 359.66 382.218 353.071 374.091 353.071C365.964 353.071 359.375 359.66 359.375 367.787C359.375 375.915 365.964 382.503 374.091 382.503Z" stroke="#263238" stroke-miterlimit="10"/>
<path d="M368.488 304.78L372.484 311.889L387.596 297.229" stroke="#81DD6A" stroke-width="6" stroke-miterlimit="10" stroke-linecap="round"/>
<path d="M368.488 243.573L372.484 250.693L387.596 236.022" stroke="#81DD6A" stroke-width="6" stroke-miterlimit="10" stroke-linecap="round"/>
<path d="M366.371 362.523L370.367 369.643L385.479 354.973" stroke="#81DD6A" stroke-width="6" stroke-miterlimit="10" stroke-linecap="round"/>
<path d="M204.076 213.201V177.78H211.91V213.201H204.076Z" fill="#46B2C8"/>
<path d="M226.603 213.733C224.681 213.798 222.772 213.389 221.045 212.544C219.533 211.748 218.336 210.463 217.649 208.899C216.807 206.868 216.376 204.69 216.381 202.492L223.071 201.484C223.061 202.722 223.198 203.957 223.479 205.163C223.633 205.917 223.998 206.612 224.531 207.167C224.98 207.573 225.568 207.792 226.173 207.778C226.491 207.822 226.816 207.766 227.102 207.618C227.387 207.47 227.62 207.237 227.769 206.952C228.017 206.4 228.144 205.802 228.142 205.197C228.183 203.888 227.815 202.598 227.09 201.507C226.274 200.377 225.32 199.353 224.248 198.462L221.192 195.802C219.872 194.689 218.727 193.384 217.796 191.93C216.83 190.311 216.35 188.449 216.415 186.565C216.332 185.292 216.528 184.017 216.989 182.828C217.451 181.639 218.166 180.565 219.086 179.682C221.12 178.004 223.71 177.152 226.343 177.293C227.908 177.234 229.464 177.565 230.871 178.256C231.962 178.839 232.87 179.713 233.497 180.78C234.09 181.792 234.503 182.899 234.719 184.052C234.933 185.141 235.058 186.247 235.093 187.357L228.357 188.183C228.357 187.142 228.267 186.225 228.165 185.455C228.11 184.815 227.891 184.199 227.531 183.667C227.352 183.448 227.123 183.276 226.862 183.165C226.602 183.055 226.319 183.009 226.037 183.033C225.711 183.016 225.387 183.094 225.104 183.256C224.821 183.419 224.59 183.66 224.441 183.95C224.125 184.51 223.953 185.14 223.943 185.783C223.89 186.93 224.22 188.061 224.882 188.998C225.618 189.945 226.444 190.817 227.35 191.602L230.282 194.183C231.804 195.464 233.125 196.968 234.199 198.643C235.316 200.502 235.871 202.645 235.795 204.812C235.819 206.395 235.429 207.956 234.663 209.34C233.915 210.693 232.801 211.808 231.448 212.555C229.963 213.363 228.293 213.768 226.603 213.733Z" fill="#46B2C8"/>
<path d="M249.821 213.732C247.635 213.843 245.459 213.358 243.527 212.329C241.992 211.408 240.817 209.99 240.199 208.31C239.491 206.301 239.153 204.18 239.203 202.05V188.885C239.148 186.758 239.486 184.64 240.199 182.636C240.822 180.973 241.997 179.575 243.527 178.674C245.466 177.664 247.638 177.187 249.821 177.293C252.03 177.186 254.228 177.662 256.194 178.674C257.752 179.561 258.952 180.961 259.59 182.636C260.308 184.639 260.649 186.758 260.598 188.885V202.05C260.644 204.181 260.303 206.302 259.59 208.31C258.957 210.002 257.757 211.422 256.194 212.329C254.234 213.359 252.033 213.844 249.821 213.732ZM249.821 208.174C250.147 208.202 250.475 208.162 250.785 208.057C251.095 207.952 251.38 207.784 251.621 207.563C252.014 207.121 252.27 206.574 252.357 205.989C252.48 205.34 252.54 204.681 252.538 204.02V186.96C252.543 186.292 252.482 185.625 252.357 184.968C252.265 184.392 252.009 183.853 251.621 183.417C251.38 183.197 251.095 183.028 250.785 182.923C250.475 182.818 250.147 182.778 249.821 182.806C249.511 182.782 249.199 182.824 248.906 182.929C248.614 183.035 248.347 183.201 248.123 183.417C247.727 183.849 247.467 184.389 247.376 184.968C247.261 185.626 247.204 186.293 247.206 186.96V204.02C247.204 204.679 247.253 205.338 247.353 205.989C247.429 206.571 247.673 207.118 248.055 207.563C248.289 207.785 248.568 207.954 248.872 208.059C249.177 208.165 249.5 208.204 249.821 208.174Z" fill="#46B2C8"/>
<path d="M285.264 213.733C283.409 213.82 281.56 213.459 279.875 212.68C278.607 212.018 277.616 210.927 277.079 209.601C276.485 207.998 276.204 206.295 276.253 204.586V204.02H283.045C282.995 205.089 283.117 206.159 283.407 207.19C283.656 207.88 284.279 208.22 285.275 208.22C285.553 208.242 285.832 208.198 286.09 208.092C286.348 207.986 286.576 207.82 286.758 207.609C287.155 206.956 287.373 206.21 287.392 205.446C287.494 204.405 287.539 202.99 287.539 201.179V198.032C287.131 198.67 286.527 199.159 285.818 199.424C284.988 199.76 284.109 199.955 283.215 200.001C281.584 200.111 279.97 199.61 278.687 198.598C277.505 197.57 276.654 196.215 276.242 194.704C275.729 192.973 275.477 191.176 275.494 189.372C275.449 187.199 275.767 185.034 276.434 182.965C276.978 181.274 278.059 179.808 279.513 178.788C281.203 177.724 283.178 177.203 285.173 177.294C287.156 177.2 289.123 177.688 290.833 178.697C292.265 179.637 293.36 181.009 293.957 182.614C294.652 184.509 294.986 186.517 294.942 188.534V201.745C294.97 203.829 294.699 205.907 294.138 207.914C293.665 209.618 292.642 211.118 291.229 212.182C289.451 213.309 287.365 213.851 285.264 213.733ZM285.343 194.398C285.854 194.425 286.357 194.255 286.747 193.923C287.054 193.643 287.331 193.332 287.573 192.994V187.221C287.578 186.463 287.521 185.706 287.403 184.957C287.321 184.361 287.096 183.794 286.747 183.304C286.57 183.086 286.342 182.914 286.084 182.803C285.825 182.693 285.544 182.647 285.264 182.671C284.984 182.653 284.705 182.706 284.452 182.825C284.199 182.943 283.98 183.124 283.815 183.35C283.443 183.956 283.225 184.644 283.181 185.353C283.071 186.452 283.022 187.555 283.034 188.659C283.034 189.791 283.034 190.798 283.135 191.659C283.165 192.365 283.368 193.052 283.724 193.662C283.91 193.92 284.161 194.124 284.451 194.253C284.742 194.382 285.061 194.432 285.377 194.398H285.343Z" fill="#46B2C8"/>
<path d="M309.431 213.857C307.569 213.923 305.725 213.476 304.099 212.567C302.691 211.729 301.564 210.492 300.861 209.012C300.091 207.354 299.704 205.543 299.729 203.715V187.663C299.691 185.797 300.038 183.944 300.748 182.218C301.401 180.7 302.508 179.423 303.918 178.562C305.586 177.634 307.478 177.184 309.385 177.26C311.286 177.177 313.172 177.628 314.83 178.562C316.277 179.42 317.417 180.711 318.09 182.252C318.8 183.978 319.147 185.831 319.109 187.697V203.76C319.129 205.581 318.742 207.383 317.977 209.035C317.278 210.523 316.151 211.768 314.74 212.612C313.118 213.506 311.281 213.937 309.431 213.857ZM309.431 207.348C309.72 207.375 310.012 207.326 310.278 207.207C310.543 207.088 310.774 206.903 310.948 206.669C311.262 206.199 311.457 205.659 311.514 205.096C311.579 204.581 311.617 204.063 311.627 203.545V187.844C311.627 187.346 311.627 186.78 311.536 186.157C311.494 185.566 311.307 184.995 310.993 184.493C310.802 184.267 310.563 184.085 310.294 183.96C310.025 183.835 309.733 183.771 309.436 183.771C309.14 183.771 308.847 183.835 308.578 183.96C308.309 184.085 308.071 184.267 307.88 184.493C307.565 184.995 307.379 185.566 307.336 186.157C307.28 186.78 307.246 187.346 307.246 187.844V203.545C307.253 204.064 307.299 204.583 307.382 205.096C307.457 205.658 307.658 206.196 307.97 206.669C308.134 206.899 308.355 207.083 308.611 207.202C308.867 207.321 309.149 207.371 309.431 207.348Z" fill="#46B2C8"/>
<path d="M333.486 213.857C331.624 213.923 329.78 213.477 328.154 212.567C326.746 211.729 325.619 210.492 324.916 209.013C324.146 207.354 323.759 205.543 323.784 203.715V187.663C323.776 185.803 324.15 183.962 324.882 182.252C325.535 180.735 326.643 179.457 328.052 178.596C329.72 177.667 331.612 177.216 333.52 177.294C335.421 177.211 337.307 177.662 338.965 178.596C340.355 179.466 341.446 180.743 342.089 182.252C342.799 183.978 343.146 185.831 343.108 187.697V203.76C343.127 205.581 342.741 207.383 341.976 209.035C341.276 210.523 340.149 211.769 338.738 212.612C337.133 213.496 335.317 213.927 333.486 213.857ZM333.486 207.348C333.775 207.375 334.067 207.326 334.333 207.207C334.598 207.088 334.829 206.903 335.003 206.669C335.312 206.197 335.506 205.658 335.569 205.096C335.634 204.581 335.672 204.064 335.682 203.545V187.844C335.682 187.346 335.682 186.78 335.591 186.157C335.552 185.576 335.373 185.014 335.07 184.516C334.88 184.29 334.643 184.108 334.375 183.983C334.107 183.859 333.815 183.794 333.52 183.794C333.224 183.794 332.932 183.859 332.664 183.983C332.396 184.108 332.159 184.29 331.969 184.516C331.654 185.018 331.468 185.589 331.425 186.18C331.369 186.803 331.335 187.369 331.335 187.867V203.568C331.342 204.087 331.388 204.606 331.471 205.118C331.54 205.682 331.742 206.221 332.059 206.692C332.223 206.913 332.439 207.088 332.688 207.203C332.938 207.318 333.212 207.368 333.486 207.348Z" fill="#46B2C8"/>
<path d="M351.338 213.2V184.991C351.01 185.172 350.648 185.342 350.206 185.523L348.916 186.066L347.603 186.61C347.184 186.791 346.799 186.961 346.471 187.142V181.719C346.788 181.538 347.24 181.301 347.829 180.995C348.418 180.689 349.029 180.35 349.708 179.965C350.387 179.58 350.999 179.206 351.587 178.833C352.054 178.528 352.493 178.183 352.9 177.803H358.628V213.223L351.338 213.2Z" fill="#46B2C8"/>
<path d="M500.107 464.754C511.842 464.754 521.355 455.241 521.355 443.506C521.355 431.772 511.842 422.259 500.107 422.259C488.372 422.259 478.859 431.772 478.859 443.506C478.859 455.241 488.372 464.754 500.107 464.754Z" fill="#FF993C"/>
<path d="M493.394 439.533H486.591C485.99 439.533 485.504 440.02 485.504 440.62V453.706C485.504 454.306 485.99 454.793 486.591 454.793H493.394C493.994 454.793 494.481 454.306 494.481 453.706V440.62C494.481 440.02 493.994 439.533 493.394 439.533Z" fill="white"/>
<path d="M512.942 441.741C515.206 438.345 512.093 437.394 512.093 437.394H503.898L504.033 436.681C504.033 436.681 504.747 431.111 503.818 429.402C502.89 427.693 499.539 426.979 499.404 427.625C499.268 428.27 499.471 431.111 499.188 432.685C498.342 435.258 497.294 437.76 496.053 440.167C495.921 440.367 495.752 440.54 495.555 440.677V453.366C496.111 453.71 496.758 453.88 497.411 453.853H509.309C509.663 453.751 509.992 453.579 510.279 453.347C510.565 453.115 510.802 452.828 510.975 452.503C511.148 452.178 511.254 451.821 511.287 451.454C511.319 451.087 511.278 450.717 511.165 450.366C511.849 449.968 512.377 449.349 512.661 448.609C512.945 447.87 512.969 447.057 512.727 446.303C515.58 443.88 512.942 441.741 512.942 441.741Z" fill="white"/>
<path d="M63.2982 201.795C82.2805 198.713 95.1708 180.827 92.0895 161.845C89.0083 142.863 71.1223 129.972 52.14 133.054C33.1577 136.135 20.2674 154.021 23.3486 173.003C26.4299 191.986 44.3159 204.876 63.2982 201.795Z" fill="#FF993C"/>
<path d="M46.7181 160.903H35.5565C34.575 160.903 33.7793 161.699 33.7793 162.681V184.121C33.7793 185.102 34.575 185.898 35.5565 185.898H46.7181C47.6996 185.898 48.4953 185.102 48.4953 184.121V162.681C48.4953 161.699 47.6996 160.903 46.7181 160.903Z" fill="white"/>
<path d="M78.7538 164.525C82.4894 159.035 77.3501 157.393 77.3501 157.393H63.9133L64.151 156.261C64.151 156.261 65.283 147.205 63.8001 144.341C62.3172 141.477 56.793 140.368 56.6006 141.387C56.4081 142.406 56.7251 147.115 56.2496 149.684C55.7742 152.254 51.7216 160.902 51.1104 161.955C50.8892 162.273 50.6177 162.552 50.3066 162.782V183.576C51.2097 184.144 52.2635 184.424 53.3291 184.38H72.7995C73.3799 184.211 73.9206 183.927 74.3897 183.546C74.8587 183.164 75.2466 182.692 75.5304 182.158C75.8142 181.625 75.9882 181.039 76.0422 180.437C76.0961 179.835 76.0289 179.228 75.8446 178.652C79.9311 175.732 78.4142 171.996 78.4142 171.996C83.078 168.023 78.7538 164.525 78.7538 164.525Z" fill="white"/>
<path d="M322.791 85.4777C334.525 85.4777 344.038 75.9648 344.038 64.2301C344.038 52.4953 334.525 42.9824 322.791 42.9824C311.056 42.9824 301.543 52.4953 301.543 64.2301C301.543 75.9648 311.056 85.4777 322.791 85.4777Z" fill="#0AA06E"/>
<path d="M316.078 60.2451H309.274C308.674 60.2451 308.188 60.7317 308.188 61.3318V74.4178C308.188 75.0179 308.674 75.5045 309.274 75.5045H316.078C316.678 75.5045 317.164 75.0179 317.164 74.4178V61.3318C317.164 60.7317 316.678 60.2451 316.078 60.2451Z" fill="white"/>
<path d="M335.626 62.453C337.89 59.057 334.777 58.1061 334.777 58.1061H326.581L326.717 57.3929C326.717 57.3929 327.43 51.8348 326.502 50.1255C325.574 48.4162 322.234 47.703 322.087 48.3482C321.94 48.9935 322.155 51.8348 321.872 53.4083C321.022 55.9798 319.973 58.4814 318.736 60.8908C318.602 61.0885 318.433 61.261 318.238 61.4002V74.0786C318.792 74.4294 319.44 74.6031 320.095 74.5767H331.992C332.347 74.4734 332.677 74.3001 332.963 74.067C333.249 73.834 333.486 73.5459 333.659 73.2198C333.832 72.8937 333.938 72.5362 333.971 72.1685C334.003 71.8008 333.962 71.4302 333.849 71.0788C334.533 70.6807 335.061 70.0608 335.345 69.3218C335.629 68.5828 335.652 67.7689 335.411 67.0149C338.263 64.5924 335.626 62.453 335.626 62.453Z" fill="white"/>
<path d="M218.452 451.499L206.939 521.309L224.587 501.363L243.763 522.079L236.858 449.959L218.452 451.499Z" fill="#FF5454" stroke="#263238" stroke-miterlimit="10"/>
<path d="M228.447 452.087L231.379 522.781L244.601 499.665L267.592 516.045L246.174 446.835L228.447 452.087Z" fill="#FF5454" stroke="#263238" stroke-miterlimit="10"/>
<path d="M271.43 436.952C271.43 434.915 275.788 432.583 275.505 430.624C275.222 428.666 270.377 427.602 269.845 425.7C269.313 423.798 272.8 420.289 271.962 418.478C271.124 416.667 266.2 417.04 265.17 415.354C264.14 413.667 266.483 409.343 265.17 407.837C263.857 406.332 259.238 408.086 257.722 406.773C256.205 405.46 257.303 400.638 255.616 399.54C253.929 398.442 249.956 401.453 248.167 400.615C246.379 399.777 246.039 394.853 244.104 394.276C242.168 393.699 239.27 397.672 237.312 397.423C235.353 397.174 233.667 392.487 231.652 392.487C229.637 392.487 227.927 397.14 225.992 397.423C224.056 397.706 221.067 393.721 219.2 394.276C217.332 394.831 216.936 399.789 215.136 400.615C213.336 401.441 209.374 398.464 207.687 399.54C206 400.615 207.099 405.46 205.582 406.773C204.065 408.086 199.446 406.32 198.122 407.837C196.797 409.354 199.254 413.667 198.122 415.365C196.99 417.063 192.1 416.644 191.262 418.478C190.424 420.312 193.956 423.753 193.39 425.7C192.824 427.647 187.99 428.609 187.73 430.624C187.47 432.639 191.805 434.915 191.805 436.952C191.805 438.99 187.447 441.31 187.73 443.28C188.013 445.25 192.858 446.303 193.39 448.204C193.922 450.106 190.435 453.615 191.262 455.427C192.088 457.238 197.035 456.864 198.122 458.54C199.208 460.215 196.797 464.55 198.122 466.067C199.446 467.584 204.053 465.818 205.57 467.131C207.087 468.445 205.989 473.267 207.676 474.354C209.363 475.44 213.336 472.452 215.124 473.289C216.913 474.127 217.253 479.051 219.188 479.617C221.124 480.183 224.022 476.221 225.98 476.482C227.939 476.742 229.637 481.417 231.64 481.417C233.644 481.417 235.365 476.765 237.3 476.482C239.236 476.199 242.236 480.183 244.092 479.617C245.949 479.051 246.356 474.116 248.156 473.289C249.956 472.463 253.918 475.44 255.605 474.354C257.291 473.267 256.193 468.445 257.71 467.131C259.227 465.818 263.846 467.584 265.159 466.067C266.472 464.55 264.027 460.238 265.159 458.54C266.291 456.842 271.17 457.26 272.019 455.427C272.868 453.593 269.313 450.151 269.891 448.204C270.468 446.257 275.29 445.284 275.551 443.28C275.811 441.276 271.43 438.956 271.43 436.952Z" fill="#263238"/>
<path d="M231.492 468.626C249.004 468.626 263.2 454.43 263.2 436.918C263.2 419.407 249.004 405.211 231.492 405.211C213.981 405.211 199.785 419.407 199.785 436.918C199.785 454.43 213.981 468.626 231.492 468.626Z" fill="white" stroke="#263238" stroke-linecap="round" stroke-linejoin="round"/>
<path d="M247.156 452.574C255.803 443.927 255.803 429.907 247.156 421.26C238.509 412.613 224.489 412.613 215.842 421.26C207.195 429.907 207.195 443.927 215.842 452.574C224.489 461.221 238.509 461.221 247.156 452.574Z" fill="white" stroke="#263238" stroke-linecap="round" stroke-linejoin="round"/>
<path d="M231.527 454.271C241.143 454.271 248.938 446.477 248.938 436.861C248.938 427.246 241.143 419.451 231.527 419.451C221.912 419.451 214.117 427.246 214.117 436.861C214.117 446.477 221.912 454.271 231.527 454.271Z" fill="#FF5454"/>
<path d="M226.026 433.602H220.457C219.963 433.602 219.562 434.002 219.562 434.496V445.205C219.562 445.698 219.963 446.099 220.457 446.099H226.026C226.52 446.099 226.92 445.698 226.92 445.205V434.496C226.92 434.002 226.52 433.602 226.026 433.602Z" fill="white"/>
<path d="M242.055 435.413C243.922 432.662 241.353 431.847 241.353 431.847H234.64L234.753 431.258C234.753 431.258 235.342 426.73 234.583 425.304C233.825 423.877 231.074 423.323 230.961 423.843C230.848 424.364 231.018 426.707 230.78 427.987C230.087 430.096 229.228 432.148 228.21 434.122C228.102 434.286 227.964 434.429 227.803 434.541V444.933C228.257 445.216 228.785 445.358 229.32 445.34H239.077C239.367 445.255 239.637 445.113 239.871 444.922C240.105 444.731 240.298 444.495 240.439 444.228C240.581 443.961 240.667 443.668 240.694 443.368C240.72 443.067 240.687 442.764 240.594 442.476C241.157 442.152 241.593 441.646 241.827 441.04C242.062 440.435 242.082 439.767 241.885 439.148C242.198 438.954 242.46 438.687 242.646 438.369C242.833 438.052 242.939 437.693 242.956 437.325C242.973 436.957 242.899 436.59 242.742 436.257C242.585 435.924 242.349 435.634 242.055 435.413Z" fill="white"/>
<path d="M434.473 340.505C434.473 340.505 433.839 369.428 434.802 378.643C435.764 387.857 441.277 434.79 443.427 451.091C445.578 467.391 446.518 498.635 446.518 498.635C446.518 498.635 444.05 499.257 444.05 501.408C444.046 502.753 443.943 504.096 443.744 505.427C442.368 507.128 440.816 508.68 439.114 510.056C437.258 511.29 427.081 513.758 428.621 516.226C430.16 518.694 454.544 517.46 454.544 517.46C454.544 517.46 446.518 521.161 441.888 522.09C437.258 523.018 438.809 527.025 444.661 527.331C450.514 527.636 457.623 528.259 464.109 528.259C470.595 528.259 473.369 525.791 478.61 525.486C483.851 525.18 485.708 525.169 486.636 524.557C487.564 523.946 488.175 514.992 488.175 514.992L486.941 506.038C486.941 506.038 493.032 473.821 490.643 452.041C488.367 429.866 488.888 407.492 492.194 385.446C492.194 385.446 498.16 364.606 497.209 355.403C496.258 346.199 494.684 336.419 494.684 336.419L436.047 338.355L434.473 340.505Z" fill="#263238" stroke="#263238" stroke-linecap="round" stroke-linejoin="round"/>
<path d="M454.814 251.983C454.814 251.983 444.072 260.111 441.004 265.635C437.936 271.159 437.766 301.757 437.438 310.315C437.11 318.873 433.974 330.159 434.042 335.004C434.11 339.849 433.872 345.848 450.716 345.826C467.561 345.803 491.287 342.305 494.129 340.03C496.97 337.754 498.102 337.449 499.37 332.513C500.638 327.578 509.422 294.67 510.305 284.233C511.188 273.796 510.848 269.053 501.838 255.616C492.827 242.18 481.439 240.21 481.439 240.21L460.565 248.587L454.814 251.983Z" fill="white" stroke="#263238" stroke-linecap="round" stroke-linejoin="round"/>
<path d="M454.815 251.983L455.302 262.329L442.182 328.665L447.491 341.909L458.947 327.725L458.256 261.661L463.101 255.096L460.565 248.587L454.815 251.983Z" fill="#263238" stroke="#263238" stroke-linecap="round" stroke-linejoin="round"/>
<path d="M459.105 244.07L454.442 246.708L449.676 257.654L454.815 251.983L457.192 252.968L463.215 246.787L459.105 244.07Z" fill="white" stroke="#263238" stroke-linecap="round" stroke-linejoin="round"/>
<path d="M444.412 197.137C444.412 197.137 444.344 211.389 444.786 213.88C445.227 216.37 444.921 221.589 447.185 225.426C449.449 229.264 451.442 236.837 453.117 237.878C454.526 238.625 456.061 239.105 457.645 239.293L458.947 250.251L478.836 234.663L477.897 223.151C479.83 221.271 480.945 218.704 480.998 216.008C481.077 211.48 480.625 208.854 478.44 208.084C477.012 207.528 475.697 206.719 474.557 205.695L476.266 197.851C476.266 197.851 480.511 191.964 468.116 189.779C455.721 187.595 445.34 193.221 444.412 197.137Z" fill="#FFBE9D" stroke="#263238" stroke-linecap="round" stroke-linejoin="round"/>
<path d="M439.896 193.458C439.896 193.458 439.318 196.56 450.084 199.673C460.849 202.786 466.633 202.379 466.633 202.379C466.633 202.379 465.117 203.42 466.373 204.394C467.157 204.987 468.049 205.422 468.999 205.673C468.999 205.673 469.475 214.423 470.426 214.729C471.377 215.034 473.176 214.004 473.176 214.004C473.176 214.004 472.927 210.608 474.84 209.363C475.94 208.662 477.181 208.214 478.474 208.05C478.474 208.05 481.791 194.466 477.614 189.881C473.437 185.297 468.015 184.029 455.257 186.112C442.499 188.195 438.73 191.953 439.896 193.458Z" fill="#263238" stroke="#263238" stroke-linecap="round" stroke-linejoin="round"/>
<path d="M455.629 224.441L451.407 224.871L450.988 213.178L447.819 209.68L445.498 208.91" stroke="#263238" stroke-linecap="round" stroke-linejoin="round"/>
<path d="M453.174 229.264C454.458 229.331 455.746 229.285 457.023 229.128C458.262 228.931 459.49 228.67 460.702 228.347C460.702 228.347 457.815 230.939 455.721 231.346C453.627 231.754 453.174 229.264 453.174 229.264Z" stroke="#263238" stroke-linecap="round" stroke-linejoin="round"/>
<path d="M457.6 239.338C457.6 239.338 457.769 239.723 460.226 238.761C462.284 237.76 464.208 236.505 465.954 235.025" stroke="#263238" stroke-linecap="round" stroke-linejoin="round"/>
<path d="M463.157 208.344C460.701 207.45 454.43 209.08 454.43 209.08" stroke="#263238" stroke-linecap="round" stroke-linejoin="round"/>
<path d="M460.724 213.766C460.781 214.683 460.418 215.453 459.909 215.487C459.4 215.521 458.935 214.808 458.868 213.891C458.8 212.974 459.162 212.215 459.683 212.17C460.203 212.125 460.724 212.815 460.724 213.766Z" fill="#263238"/>
<path d="M450.015 214.445C450.015 215.362 449.709 216.132 449.2 216.166C448.691 216.2 448.226 215.498 448.159 214.581C448.091 213.664 448.453 212.894 448.974 212.861C449.494 212.827 449.947 213.54 450.015 214.445Z" fill="#263238"/>
<path d="M458.461 248.044L463.759 257.824L484.304 238.388L480.286 233.6L458.461 248.044Z" fill="white" stroke="#263238" stroke-linecap="round" stroke-linejoin="round"/>
<path d="M402.686 278.438L440.619 284.686L446.449 333.872L412.274 328.449L402.686 278.438Z" fill="#46B2C8" stroke="#263238" stroke-miterlimit="10"/>
<path d="M404.305 289.452C404.305 289.452 401.837 289.656 401.215 291.501C400.933 292.282 400.842 293.119 400.951 293.943C401.059 294.766 401.363 295.551 401.837 296.233C402.664 297.263 406.569 298.497 408.629 297.874C410.69 297.252 411.312 295.61 409.863 294.591C408.522 293.817 407.066 293.259 405.55 292.939L404.305 289.452Z" fill="#FFBE9D" stroke="#263238" stroke-linecap="round" stroke-linejoin="round"/>
<path d="M401.859 296.232C401.859 296.232 401.033 298.904 402.471 300.342C403.908 301.779 407.825 302.198 409.059 300.76C410.293 299.323 408.64 297.874 408.64 297.874C408.64 297.874 403.274 297.466 401.859 296.232Z" fill="#FFBE9D" stroke="#263238" stroke-linecap="round" stroke-linejoin="round"/>
<path d="M403.071 302.243C403.071 302.243 402.867 306.556 404.508 308.413C406.15 310.269 408.006 309.239 407.599 307.586C407.333 306.572 406.917 305.602 406.365 304.711L403.071 302.243Z" fill="#FFBE9D" stroke="#263238" stroke-linecap="round" stroke-linejoin="round"/>
<path d="M402.449 300.342C402.358 300.971 402.445 301.614 402.702 302.197C402.958 302.779 403.372 303.278 403.898 303.636C405.743 304.87 408.426 306.104 409.241 304.259C409.478 303.699 409.582 303.092 409.547 302.486C409.512 301.879 409.337 301.289 409.037 300.761C409.037 300.761 404.917 301.791 402.449 300.342Z" fill="#FFBE9D" stroke="#263238" stroke-linecap="round" stroke-linejoin="round"/>
<path d="M412.422 281.279L412.738 283.283L431.45 286.566V283.521C431.452 282.973 431.277 282.439 430.954 281.997C430.63 281.555 430.173 281.228 429.651 281.064L427.545 280.396L427.115 278.891C426.997 278.48 426.765 278.112 426.447 277.827C426.129 277.543 425.736 277.354 425.315 277.283L418.455 276.151C418.128 276.096 417.793 276.114 417.474 276.203C417.154 276.292 416.858 276.45 416.607 276.666C416.355 276.882 416.154 277.151 416.018 277.453C415.881 277.755 415.813 278.084 415.818 278.415H415.093C414.721 278.398 414.349 278.462 414.004 278.602C413.659 278.743 413.349 278.957 413.095 279.229C412.841 279.502 412.649 279.826 412.533 280.18C412.416 280.534 412.378 280.909 412.422 281.279Z" fill="#263238" stroke="#263238" stroke-linecap="round" stroke-linejoin="round"/>
<path d="M453.853 307.326C453.853 307.326 451.295 304.553 450.14 303.625C448.985 302.696 442.714 302.696 442.714 302.696V306.636C442.714 306.636 432.979 307.326 430.194 307.768C427.409 308.209 426.945 309.624 427.647 310.79C428.349 311.956 435.299 311.254 435.299 311.254L438.775 311.718C438.775 311.718 433.443 313.111 431.813 313.337C430.183 313.563 426.945 313.337 426.945 314.469C426.945 315.601 427.409 316.314 429.956 316.552C432.503 316.79 436.692 316.778 439.465 317.48C442.239 318.182 434.835 318.612 432.741 318.612C430.647 318.612 430.477 320.469 431.813 320.933C433.149 321.397 437.62 322.065 437.62 322.065C439.295 322.997 441.088 323.698 442.952 324.148C446.427 325.076 444.084 324.612 451.759 324.148C455.522 324.038 459.259 323.495 462.898 322.529L463.124 311.854L455.936 309.59L453.853 307.326Z" fill="#FFBE9D" stroke="#263238" stroke-linecap="round" stroke-linejoin="round"/>
<path d="M442.715 306.636L446.892 307.1" stroke="#263238" stroke-linecap="round" stroke-linejoin="round"/>
<path d="M437.619 322.178L444.57 322.404" stroke="#263238" stroke-linecap="round" stroke-linejoin="round"/>
<path d="M463.124 311.968L462.195 325.19L467.063 325.427L467.527 312.205L463.124 311.968Z" fill="white" stroke="#263238" stroke-linecap="round" stroke-linejoin="round"/>
<path d="M491.288 245.644C494.763 246.776 514.392 258.096 514.392 268.012C514.392 277.928 511.618 315.556 510.69 324.318C509.762 333.079 506.977 331.279 497.004 331.279C487.031 331.279 471.964 330.815 469.18 329.649C468.399 329.305 467.763 328.7 467.381 327.937C466.999 327.175 466.894 326.303 467.085 325.472L467.516 312.205C467.516 312.205 468.217 308.956 470.538 308.492C472.859 308.028 487.892 310.168 487.892 310.168C487.892 310.168 490.676 284.89 491.14 280.022C491.604 275.155 489.85 266.438 493.563 264.367" fill="white"/>
<path d="M491.288 245.644C494.763 246.776 514.392 258.096 514.392 268.012C514.392 277.928 511.618 315.556 510.69 324.318C509.762 333.079 506.977 331.279 497.004 331.279C487.031 331.279 471.964 330.815 469.18 329.649C468.399 329.305 467.763 328.7 467.381 327.937C466.999 327.175 466.894 326.303 467.085 325.472L467.516 312.205C467.516 312.205 468.217 308.956 470.538 308.492C472.859 308.028 487.892 310.168 487.892 310.168C487.892 310.168 490.676 284.89 491.14 280.022C491.604 275.155 489.85 266.438 493.563 264.367" stroke="#263238" stroke-linecap="round" stroke-linejoin="round"/>
<path d="M498.839 317.537C495.364 316.145 487.893 310.168 487.893 310.168C487.893 310.168 496.711 312.489 497.865 312.262" stroke="#263238" stroke-linecap="round" stroke-linejoin="round"/>
<path d="M90.1513 244.513C91.4353 246.335 92.3576 248.387 92.8681 250.558C93.4681 253.727 92.2568 255.697 89.8457 255.538C89.1122 255.45 88.416 255.166 87.8303 254.716C87.2446 254.266 86.7911 253.666 86.5176 252.98C86.5176 252.98 86.9817 258.108 88.7816 260.53C90.5815 262.953 91.9512 262.636 102.524 263.847C113.097 265.059 128.956 263.847 133.337 263.247C137.718 262.647 140.582 261.889 142.087 259.625C143.426 257.431 144.639 255.164 145.721 252.833C145.721 252.833 141.193 256.161 138.771 255.403C136.348 254.644 136.348 249.81 137.107 247.852C137.676 246.453 138.334 245.092 139.076 243.777C140.014 240.993 140.57 238.095 140.729 235.162C140.729 231.393 139.371 227.465 136.959 218.703C134.548 209.941 127.145 202.244 121.553 196.652C115.961 191.06 109.927 194.841 103.124 198.316C96.3207 201.791 88.6231 220.661 87.276 228.37C85.9289 236.079 90.1513 244.513 90.1513 244.513Z" fill="#263238" stroke="#263238" stroke-miterlimit="10"/>
<path d="M102.479 258.889L115.225 249.606L128.605 258.889L115.87 289.77L102.479 258.889Z" fill="white" stroke="#263238" stroke-miterlimit="10"/>
<path d="M110.992 261.096L115.067 267.741L111.445 282.842L116.426 291.762L121.712 281.483L117.49 267.741L120.501 261.549L115.679 254.146L110.992 261.096Z" fill="#263238" stroke="#263238" stroke-miterlimit="10"/>
<path d="M107.211 236.589C107.211 236.589 107.369 249.12 107.664 250.173C107.958 251.226 114.014 257.429 115.214 257.882C116.414 258.335 121.87 250.173 122.323 249.573C122.776 248.973 122.47 236.883 122.47 236.883L107.211 236.589Z" fill="#FFBE9D" stroke="#263238" stroke-miterlimit="10"/>
<path d="M117.489 196.153C117.489 196.153 112.35 202.198 106.305 208.085C100.26 213.971 93.1735 221.521 90.4567 229.083C87.7399 236.645 90.1624 244.478 90.1624 244.478C86.6195 239.947 84.6557 234.382 84.5703 228.63C84.7175 219.574 86.3815 202.945 94.2376 193.437C102.094 183.928 114.478 183.464 120.274 184.822C126.069 186.18 132.963 193.131 136.122 201.587C139.28 210.043 142.314 226.208 142.008 233C141.948 236.758 140.964 240.443 139.144 243.731C139.671 236.544 138.26 229.347 135.058 222.891C129.771 212.771 124.485 208.39 120.557 204.609C119.412 203.544 118.537 202.221 118.004 200.751C117.47 199.281 117.294 197.705 117.489 196.153Z" fill="#263238" stroke="#263238" stroke-miterlimit="10"/>
<path d="M115.213 257.926L108.274 267.741L102.252 253.591L107.663 249.018L115.213 257.926Z" fill="white" stroke="#263238" stroke-miterlimit="10"/>
<path d="M115.215 257.927L122.324 268.5L127.905 253.852L122.324 249.618L115.215 257.927Z" fill="white" stroke="#263238" stroke-miterlimit="10"/>
<path d="M79.342 260.508C79.342 260.508 51.042 298.566 49.5365 300.875C48.0309 303.184 46.7631 303.139 47.5328 305.018C48.3026 306.897 53.5324 312.557 57.3812 312.716C61.23 312.874 62.2941 311.64 63.9921 309.172C65.6901 306.705 86.7227 280.737 86.7227 280.737C86.7227 280.737 81.04 261.278 79.342 260.508Z" fill="#46B2C8" stroke="#263238" stroke-miterlimit="10"/>
<path d="M112.972 505.665L111.931 527.116H109.837L109.305 513.917L112.972 505.665Z" fill="#263238" stroke="#263238" stroke-miterlimit="10"/>
<path d="M92.2904 402.879C92.2904 402.879 94.645 418.727 94.1243 428.575C93.6036 438.424 92.8225 444.876 93.8639 453.796C94.9054 462.716 100.407 494.107 100.407 501.182C100.407 508.257 98.0523 514.856 96.4788 517.211C94.9054 519.565 86.0078 525.463 85.4871 528.055C84.9664 530.648 91.7697 529.946 98.0523 529.006C104.335 528.067 108.003 527.818 108.784 526.878C109.565 525.939 108.523 520.279 110.357 513.679C112.191 507.08 114.014 507.317 113.232 503.31C112.451 499.303 109.304 494.82 109.304 488.22C109.304 481.621 113.493 442.25 112.451 432.107C111.41 421.964 110.934 403.117 110.934 403.117L92.2904 402.879Z" fill="#FFBE9D" stroke="#263238" stroke-miterlimit="10"/>
<path d="M106.169 520.042C103.891 519.202 101.519 518.647 99.1051 518.389C97.929 518.208 96.7351 518.174 95.5506 518.287C92.7659 521.026 85.9512 525.803 85.4871 528.056C84.9664 530.648 91.7697 529.947 98.0523 529.007C104.335 528.067 108.003 527.818 108.784 526.879C109.565 525.939 108.523 520.279 110.357 513.68C112.191 507.08 114.014 507.318 113.232 503.311C111.399 507.544 110.097 508.02 108.263 511.552C107.062 514.233 106.353 517.109 106.169 520.042Z" fill="#263238" stroke="#263238" stroke-miterlimit="10"/>
<path d="M147.873 507.408L150.069 528.78L152.141 528.69L151.937 515.479L147.873 507.408Z" fill="#263238" stroke="#263238" stroke-miterlimit="10"/>
<path d="M142.268 402.642C143.533 411.735 145.932 420.634 149.411 429.13C153.181 438.435 153.645 444.005 155.456 452.902C157.234 461.574 155.751 491.753 156.226 500.526C156.611 507.589 163.086 515.966 164.773 518.253C166.459 520.539 175.549 526.018 176.206 528.588C176.862 531.158 170.104 530.75 163.856 530.093C157.607 529.437 153.985 529.358 153.158 528.452C152.332 527.546 153.056 521.841 150.894 515.332C148.732 508.823 146.932 509.14 147.498 505.144C148.064 501.148 147.193 495.601 145.902 489.477C144.532 482.991 135.363 447.288 133.19 437.303C131.016 427.319 123.387 403.355 123.387 403.355L142.268 402.642Z" fill="#FFBE9D" stroke="#263238" stroke-miterlimit="10"/>
<path d="M155.367 521.456C157.57 520.518 159.883 519.86 162.25 519.498C163.4 519.262 164.575 519.171 165.748 519.226C168.646 521.852 175.63 526.301 176.207 528.542C176.864 531.112 170.106 530.704 163.857 530.048C157.609 529.391 153.986 529.312 153.16 528.407C152.333 527.501 153.058 521.796 150.896 515.287C148.734 508.778 146.934 509.095 147.5 505.099C149.537 509.253 150.896 509.627 152.854 513.113C154.172 515.726 155.022 518.55 155.367 521.456Z" fill="#263238" stroke="#263238" stroke-miterlimit="10"/>
<path d="M82.6361 340.641C80.9807 346.408 79.9522 352.336 79.5684 358.323C79.0929 367.515 80.5079 419.157 80.5079 419.157C80.5079 419.157 89.4281 421.987 106.408 422.451C123.388 422.915 154.495 419.383 154.495 419.383C154.495 419.383 153.08 367.051 149.549 353.852C146.017 340.653 143.889 336.872 143.889 336.872C143.889 336.872 109.51 314.006 82.6361 340.641Z" fill="#263238" stroke="#263238" stroke-miterlimit="10"/>
<path d="M149.22 261.221C149.22 261.221 176.365 299.98 177.916 302.244C179.467 304.508 180.69 304.508 179.931 306.388C179.173 308.267 173.966 313.938 170.117 314.108C166.268 314.278 165.193 313.055 163.495 310.599C161.797 308.142 140.605 282.106 140.605 282.106C140.605 282.106 147.533 261.99 149.22 261.221Z" fill="#46B2C8" stroke="#263238" stroke-miterlimit="10"/>
<path d="M102.253 253.568L115.837 285.264L127.916 253.851L149.118 261.198L132.138 310.327L151.042 350.003C151.042 350.003 142.632 354.316 127.916 356.207C113.2 358.097 100.284 356.773 93.9557 354.769C87.6278 352.766 78.7303 347.977 79.2397 347.977C79.7491 347.977 95.2235 308.448 95.2235 308.448L79.3755 260.474L102.253 253.568Z" fill="#46B2C8" stroke="#263238" stroke-miterlimit="10"/>
<path d="M115.996 293.494L131.164 275.121L126.931 268.997L135.828 265.352L132.84 256.036L127.904 253.851L115.792 285.264L102.253 253.591L97.646 254.983L95.3027 267.243L105.355 269.292L101.133 275.993L115.996 293.494Z" fill="#46B2C8" stroke="#263238" stroke-miterlimit="10"/>
<path d="M83.3368 334.994C85.34 334.586 87.3111 334.033 89.2345 333.341C92.5286 332.209 94.1813 332.865 96.3095 334.473C98.4376 336.08 103.849 339.589 103.101 340.767C102.354 341.944 101.969 342.487 100.747 341.774C99.5244 341.061 93.6832 336.352 92.4946 336.352C91.0376 336.655 89.626 337.146 88.2949 337.812C90.2784 337.95 92.2088 338.514 93.9549 339.465C96.0831 340.88 100.747 344.423 100.554 345.6C100.362 346.778 99.4225 346.947 98.2112 346.732C97 346.517 92.3135 342.318 91.6004 342.318H86.4045C88.4068 343.255 90.33 344.353 92.155 345.6C93.0946 346.551 94.419 347.502 94.419 348.204C94.419 348.906 93.9889 350.717 92.5852 350.253C91.1815 349.789 87.1629 346.302 87.1629 346.302C87.1629 346.302 90.9325 350.298 90.7061 350.977C90.3778 351.974 89.7552 351.962 89.0534 351.487C88.3515 351.011 83.2462 348 81.5935 346.585C80.3936 345.555 80.5634 345.363 79.1484 345.125C77.7334 344.887 76.3184 341.819 76.3184 341.819L83.3368 334.994Z" fill="#FFBE9D" stroke="#263238" stroke-miterlimit="10"/>
<path d="M87.1641 346.302C87.1641 346.302 84.7982 343.981 83.3945 343.981" stroke="#263238" stroke-miterlimit="10"/>
<path d="M147.159 334.994C145.156 334.586 143.185 334.033 141.262 333.341C137.968 332.209 136.315 332.865 134.198 334.473C132.081 336.08 126.659 339.589 127.406 340.767C128.153 341.944 128.538 342.487 129.761 341.774C130.983 341.061 136.836 336.352 138.013 336.352C139.483 336.639 140.91 337.114 142.258 337.767C140.275 337.906 138.344 338.47 136.598 339.42C134.481 340.835 129.806 344.378 129.998 345.555C130.191 346.732 131.13 346.902 132.342 346.687C133.553 346.472 138.251 342.272 138.952 342.272C140 342.113 141.033 341.87 142.043 341.548L138.239 345.363C137.3 346.302 135.975 347.853 135.975 348.566C135.975 349.279 136.553 350.672 137.968 350.208C139.383 349.743 143.39 344.763 143.39 344.763C143.39 344.763 139.609 350.276 139.835 350.955C140.164 351.951 140.786 351.94 141.488 351.464C142.19 350.989 146.209 347.695 147.861 346.28C149.061 345.249 149.978 345.34 151.393 345.148C152.808 344.955 154.223 341.842 154.223 341.842L147.159 334.994Z" fill="#FFBE9D" stroke="#263238" stroke-miterlimit="10"/>
<path d="M143.447 344.785C144.139 343.534 145.286 342.597 146.651 342.17" stroke="#263238" stroke-miterlimit="10"/>
<path d="M151.71 329.797L146.027 334.993L153.804 344.411L159.872 338.683L151.71 329.797Z" fill="white" stroke="#263238" stroke-miterlimit="10"/>
<path d="M166.528 303.376L149.424 331.076L158.367 342.6C158.367 342.6 166.426 331.937 170.411 326.265C174.396 320.594 180.678 307.282 180.441 305.629C180.203 303.976 174.509 298.339 174.509 298.339" fill="#46B2C8"/>
<path d="M166.528 303.376L149.424 331.076L158.367 342.6C158.367 342.6 166.426 331.937 170.411 326.265C174.396 320.594 180.678 307.282 180.441 305.629C180.203 303.976 174.509 298.339 174.509 298.339" stroke="#263238" stroke-miterlimit="10"/>
<path d="M77.6539 329.797L83.3366 334.993L75.5597 344.411L69.4922 338.683L77.6539 329.797Z" fill="white" stroke="#263238" stroke-miterlimit="10"/>
<path d="M60.9236 301.904L78.8658 330.748L70.3758 341.457C70.3758 341.457 57.7313 326.48 53.7467 320.82C49.7621 315.16 46.7736 305.912 47.0113 304.259C47.249 302.606 52.8977 296.946 52.8977 296.946" fill="#46B2C8"/>
<path d="M60.9236 301.904L78.8658 330.748L70.3758 341.457C70.3758 341.457 57.7313 326.48 53.7467 320.82C49.7621 315.16 46.7736 305.912 47.0113 304.259C47.249 302.606 52.8977 296.946 52.8977 296.946" stroke="#263238" stroke-miterlimit="10"/>
<path d="M117.036 201.496C117.036 201.496 110.074 211.152 106.927 214.525L103.78 217.921L96.9883 219.268C97.4434 220.893 98.0459 222.473 98.7882 223.989C99.6824 225.562 102.184 226.004 102.184 226.004C102.184 226.004 102.863 231.664 104.878 234.55C106.893 237.437 112.372 242.044 120.602 243.527C123.081 243.969 128.209 240.584 130.677 229.343C133.144 218.103 130.677 214.774 129.363 210.96C128.05 207.145 119.991 201.496 117.036 201.496Z" fill="#FFBE9D" stroke="#263238" stroke-miterlimit="10"/>
<path d="M129.987 215.906C129.987 215.906 127.067 213.19 125.606 217.367C125.074 218.861 128.108 226.14 127.067 226.762C126.025 227.385 125.606 226.559 124.135 227.6" stroke="#263238" stroke-miterlimit="10"/>
<path d="M125.811 231.993C125.811 231.993 120.151 233.668 117.887 229.729" stroke="#263238" stroke-miterlimit="10"/>
<path d="M120.377 214.232C120.377 214.232 115.781 212.556 113.064 215.069" stroke="#263238" stroke-miterlimit="10"/>
<path d="M119.539 219.744C119.539 220.876 118.973 221.748 118.26 221.748C117.546 221.748 116.98 220.854 116.98 219.744C116.98 218.635 117.558 217.729 118.26 217.729C118.961 217.729 119.539 218.635 119.539 219.744Z" fill="#263238"/>
<path d="M129.568 220.084C129.568 221.216 129.002 222.088 128.289 222.088C127.576 222.088 127.021 221.194 127.021 220.084C127.021 218.975 127.587 218.069 128.289 218.069C128.991 218.069 129.568 218.975 129.568 220.084Z" fill="#263238"/>
</svg>
