<svg width="845" height="845" viewBox="0 0 845 845" fill="none" xmlns="http://www.w3.org/2000/svg">
<path d="M510.38 658.136C580.414 644.414 643.163 612.422 686.968 556.838C756.748 468.333 770.302 302.341 676.524 205.757C633.514 161.496 569.53 137.194 512.425 123.573C451.044 108.92 381.585 104.307 326.525 129.082C237.682 169 197.916 312.768 140.929 372.932C83.9425 433.096 91.9193 561.181 195.28 608.501C249.934 633.53 307.834 651.765 365.97 660.672C392.617 665.034 419.633 666.733 446.616 665.742C468.029 664.782 489.342 662.24 510.38 658.136Z" fill="#46B2C8"/>
<path opacity="0.7" d="M510.38 658.136C580.414 644.414 643.163 612.422 686.968 556.838C756.748 468.333 770.302 302.341 676.524 205.757C633.514 161.496 569.53 137.194 512.425 123.573C451.044 108.92 381.585 104.307 326.525 129.082C237.682 169 197.916 312.768 140.929 372.932C83.9425 433.096 91.9193 561.181 195.28 608.501C249.934 633.53 307.834 651.765 365.97 660.672C392.617 665.034 419.633 666.733 446.616 665.742C468.029 664.782 489.342 662.24 510.38 658.136Z" fill="white"/>
<path d="M628.883 204.608H361.035V601.37H628.883V204.608Z" fill="white" stroke="#023A59" stroke-linecap="round" stroke-linejoin="round"/>
<path d="M628.883 204.608H620.416V601.37H628.883V204.608Z" fill="#46B2C8" stroke="#023A59" stroke-linecap="round" stroke-linejoin="round"/>
<path d="M628.883 368.302H620.416V446.076H628.883V368.302Z" fill="white" stroke="#023A59" stroke-linecap="round" stroke-linejoin="round"/>
<path d="M628.883 204.608H361.035V235.214H628.883V204.608Z" fill="#46B2C8" stroke="#023A59" stroke-linecap="round" stroke-linejoin="round"/>
<path d="M388.497 213.6H607.758C609.156 213.6 610.497 214.155 611.486 215.144C612.475 216.133 613.03 217.474 613.03 218.872V221.526C613.03 222.924 612.475 224.265 611.486 225.254C610.497 226.243 609.156 226.799 607.758 226.799H388.497C387.1 226.794 385.761 226.237 384.773 225.249C383.786 224.261 383.229 222.923 383.224 221.526V218.872C383.229 217.472 383.788 216.131 384.779 215.143C385.771 214.155 387.114 213.6 388.514 213.6H388.497Z" fill="white" stroke="#023A59" stroke-linecap="round" stroke-linejoin="round"/>
<path d="M488.359 305.519H375.298V427.553H488.359V305.519Z" fill="#FF5454" stroke="#023A59" stroke-linecap="round" stroke-linejoin="round"/>
<path d="M488.359 457.669H375.298V579.704H488.359V457.669Z" fill="#FF993B" stroke="#023A59" stroke-linecap="round" stroke-linejoin="round"/>
<path d="M511.073 305.519H590.841" stroke="#023A59" stroke-linecap="round" stroke-linejoin="round"/>
<path d="M511.073 338.271H590.841" stroke="#023A59" stroke-linecap="round" stroke-linejoin="round"/>
<path d="M511.073 347.262H590.841" stroke="#023A59" stroke-linecap="round" stroke-linejoin="round"/>
<path d="M511.073 356.235H590.841" stroke="#023A59" stroke-linecap="round" stroke-linejoin="round"/>
<path d="M511.073 365.226H590.841" stroke="#023A59" stroke-linecap="round" stroke-linejoin="round"/>
<path d="M511.073 374.2H590.841" stroke="#023A59" stroke-linecap="round" stroke-linejoin="round"/>
<path d="M511.073 383.174H590.841" stroke="#023A59" stroke-linecap="round" stroke-linejoin="round"/>
<path d="M511.073 392.165H590.841" stroke="#023A59" stroke-linecap="round" stroke-linejoin="round"/>
<path d="M511.073 401.139H590.841" stroke="#023A59" stroke-linecap="round" stroke-linejoin="round"/>
<path d="M511.073 410.129H590.841" stroke="#023A59" stroke-linecap="round" stroke-linejoin="round"/>
<path d="M511.073 419.104H590.841" stroke="#023A59" stroke-linecap="round" stroke-linejoin="round"/>
<path d="M511.073 314.509H557.024" stroke="#023A59" stroke-linecap="round" stroke-linejoin="round"/>
<path d="M511.073 457.669H590.841" stroke="#023A59" stroke-linecap="round" stroke-linejoin="round"/>
<path d="M511.073 490.421H590.841" stroke="#023A59" stroke-linecap="round" stroke-linejoin="round"/>
<path d="M511.073 499.412H590.841" stroke="#023A59" stroke-linecap="round" stroke-linejoin="round"/>
<path d="M511.073 508.386H590.841" stroke="#023A59" stroke-linecap="round" stroke-linejoin="round"/>
<path d="M511.073 517.377H590.841" stroke="#023A59" stroke-linecap="round" stroke-linejoin="round"/>
<path d="M511.073 526.351H590.841" stroke="#023A59" stroke-linecap="round" stroke-linejoin="round"/>
<path d="M511.073 535.342H590.841" stroke="#023A59" stroke-linecap="round" stroke-linejoin="round"/>
<path d="M511.073 544.315H590.841" stroke="#023A59" stroke-linecap="round" stroke-linejoin="round"/>
<path d="M511.073 553.289H590.841" stroke="#023A59" stroke-linecap="round" stroke-linejoin="round"/>
<path d="M511.073 562.28H590.841" stroke="#023A59" stroke-linecap="round" stroke-linejoin="round"/>
<path d="M511.073 571.254H590.841" stroke="#023A59" stroke-linecap="round" stroke-linejoin="round"/>
<path d="M511.073 466.66H557.024" stroke="#023A59" stroke-linecap="round" stroke-linejoin="round"/>
<path d="M397.401 256.305V283H394.272L379.726 262.04H379.465V283H376.233V256.305H379.361L393.96 277.317H394.22V256.305H397.401ZM403.869 283V256.305H419.98V259.173H407.102V268.193H419.145V271.06H407.102V280.132H420.188V283H403.869ZM430.655 283L423.356 256.305H426.64L432.219 278.047H432.48L438.163 256.305H441.812L447.496 278.047H447.756L453.335 256.305H456.62L449.32 283H445.984L440.092 261.728H439.883L433.992 283H430.655ZM475.246 262.979C475.09 261.658 474.455 260.633 473.343 259.903C472.231 259.173 470.866 258.808 469.25 258.808C468.068 258.808 467.034 258.999 466.148 259.381C465.27 259.764 464.584 260.29 464.088 260.959C463.602 261.628 463.359 262.388 463.359 263.24C463.359 263.952 463.528 264.565 463.867 265.078C464.214 265.582 464.658 266.003 465.196 266.342C465.735 266.672 466.3 266.946 466.891 267.163C467.482 267.372 468.025 267.541 468.52 267.671L471.231 268.401C471.927 268.584 472.7 268.836 473.552 269.157C474.412 269.479 475.233 269.918 476.015 270.474C476.806 271.021 477.458 271.725 477.97 272.585C478.483 273.446 478.739 274.501 478.739 275.753C478.739 277.195 478.361 278.499 477.605 279.663C476.858 280.828 475.763 281.753 474.321 282.44C472.887 283.126 471.144 283.469 469.094 283.469C467.182 283.469 465.527 283.161 464.128 282.544C462.737 281.927 461.642 281.067 460.843 279.963C460.052 278.859 459.605 277.578 459.5 276.118H462.837C462.924 277.126 463.263 277.96 463.854 278.62C464.453 279.272 465.209 279.759 466.122 280.08C467.043 280.393 468.034 280.55 469.094 280.55C470.328 280.55 471.436 280.35 472.418 279.95C473.399 279.542 474.177 278.977 474.751 278.255C475.324 277.526 475.611 276.674 475.611 275.701C475.611 274.814 475.363 274.093 474.868 273.537C474.373 272.981 473.721 272.529 472.913 272.181C472.105 271.834 471.231 271.53 470.293 271.269L467.008 270.33C464.923 269.731 463.272 268.875 462.055 267.763C460.839 266.65 460.23 265.195 460.23 263.396C460.23 261.901 460.634 260.598 461.442 259.486C462.259 258.365 463.354 257.496 464.727 256.879C466.109 256.253 467.651 255.94 469.354 255.94C471.075 255.94 472.604 256.249 473.943 256.866C475.281 257.474 476.341 258.308 477.123 259.368C477.914 260.429 478.331 261.632 478.374 262.979H475.246Z" fill="#023A59"/>
<path d="M592.599 281.689H485.453V288.264H592.599V281.689Z" fill="#46B2C8"/>
<path d="M652.965 707.349C678.856 707.349 699.846 701.75 699.846 694.843C699.846 687.936 678.856 682.337 652.965 682.337C627.074 682.337 606.084 687.936 606.084 694.843C606.084 701.75 627.074 707.349 652.965 707.349Z" fill="#46B2C8"/>
<path opacity="0.5" d="M652.965 707.349C678.856 707.349 699.846 701.75 699.846 694.843C699.846 687.936 678.856 682.337 652.965 682.337C627.074 682.337 606.084 687.936 606.084 694.843C606.084 701.75 627.074 707.349 652.965 707.349Z" fill="white"/>
<path d="M582.83 425.052C582.576 424.124 582.519 423.153 582.665 422.202C582.81 421.251 583.153 420.342 583.673 419.532C584.192 418.723 584.876 418.031 585.68 417.503C586.484 416.975 587.39 416.622 588.339 416.467C594.069 415.689 601.116 423.396 603.347 428.06C603.549 428.466 605.831 435.124 605.73 435.124C605.628 435.124 595.59 435.344 591.398 433.536C587.866 431.981 583.793 429.04 582.83 425.052ZM730.249 407.374C729.404 411.38 725.415 414.439 721.917 416.078C718.419 417.717 710.087 418.004 708.11 418.038C707.011 419.356 705.845 420.759 704.578 422.348C702.398 425.153 699.947 428.347 697.53 431.998C696.888 432.961 696.229 434.043 695.57 435.057C697.04 433.569 699.068 431.541 699.288 431.355C703.327 428.144 713.045 424.291 717.878 427.485C718.667 428.038 719.331 428.752 719.826 429.579C720.32 430.407 720.635 431.329 720.748 432.287C720.861 433.244 720.771 434.214 720.483 435.134C720.195 436.054 719.716 436.903 719.078 437.625C716.492 440.786 711.524 441.664 707.67 441.512C703.817 441.36 696.094 437.693 694.438 436.865C693.035 439.163 691.632 441.546 690.314 444.115C687.864 448.772 685.828 453.635 684.23 458.649L684.534 458.801C685.717 457.246 688.269 454.052 688.506 453.731C692.173 450.081 701.4 445.281 706.538 447.85C707.39 448.302 708.136 448.932 708.725 449.697C709.313 450.462 709.731 451.344 709.951 452.284C710.17 453.224 710.185 454.199 709.996 455.146C709.807 456.092 709.417 456.987 708.853 457.77C706.623 461.15 701.789 462.62 697.936 462.84C693.491 463.144 684.315 459.68 683.96 459.545C682.505 464.565 681.376 469.674 680.58 474.839C679.988 478.659 679.532 482.562 679.126 486.466C679.921 485.351 683.284 481.16 683.554 480.889C687.221 477.239 696.449 472.355 701.586 475.008C702.427 475.472 703.161 476.108 703.74 476.874C704.319 477.641 704.73 478.52 704.947 479.456C705.164 480.392 705.181 481.362 704.998 482.305C704.815 483.248 704.436 484.142 703.885 484.928C701.654 488.308 696.821 489.779 692.967 489.998C688.641 490.303 679.836 487.024 679.092 486.737C678.907 488.511 678.704 490.286 678.535 492.077C677.96 497.891 677.419 503.721 676.71 509.467C676.473 511.445 676.152 513.405 675.848 515.365C677.098 513.675 679.43 510.819 679.65 510.6C683.317 506.949 692.545 502.048 697.699 504.701C698.541 505.167 699.275 505.805 699.854 506.572C700.433 507.34 700.844 508.221 701.061 509.158C701.278 510.095 701.295 511.067 701.112 512.012C700.929 512.956 700.549 513.851 699.998 514.639C697.767 518.019 692.934 519.489 689.08 519.709C685.227 519.928 677.74 517.376 675.645 516.616C675.104 519.861 674.513 523.072 673.769 526.215C673.414 527.55 673.144 528.953 672.738 530.22C672.332 531.488 671.961 532.789 671.589 534.057C670.71 536.642 669.899 539.042 669.037 541.425C668.598 542.642 668.158 543.774 667.719 544.94C668.75 543.115 670.406 540.225 670.592 539.989C673.668 535.814 682.033 529.595 687.492 531.437C688.403 531.756 689.236 532.266 689.934 532.934C690.632 533.602 691.179 534.411 691.538 535.308C691.896 536.205 692.059 537.168 692.014 538.133C691.969 539.098 691.718 540.042 691.277 540.901C689.587 544.619 685.024 546.749 681.256 547.661C677.115 548.591 668.192 546.782 667.11 546.563C666.029 549.419 664.947 552.19 663.882 554.759C660.502 562.922 657.46 569.597 655.23 574.245L654.875 574.989H671.099L665.572 684.45C665.369 688.452 663.634 692.223 660.727 694.982C657.82 697.741 653.964 699.276 649.957 699.271C645.952 699.272 642.1 697.734 639.197 694.976C636.294 692.218 634.562 688.449 634.358 684.45L628.68 575.158H646.104C646.104 574.397 645.935 573.586 645.833 572.69C645.259 567.62 644.312 560.421 642.808 551.836C642.369 549.351 641.879 546.766 641.338 544.028C640.206 544.18 631.198 545.329 627.142 544.028C623.458 542.895 619.064 540.428 617.661 536.592C617.285 535.702 617.104 534.741 617.131 533.775C617.158 532.809 617.391 531.861 617.815 530.993C618.24 530.124 618.845 529.357 619.591 528.743C620.337 528.129 621.206 527.682 622.139 527.432C627.75 525.995 635.659 532.84 638.38 537.217C638.566 537.504 640.273 541.053 641.101 542.879C640.763 541.189 640.442 539.634 640.07 537.961C639.546 535.527 638.921 532.891 638.38 530.508L637.316 526.655C636.978 525.336 636.488 524.12 636.082 522.835C635.44 520.959 634.679 519.066 633.936 517.157C631.502 517.833 624.303 519.709 620.602 519.168C616.9 518.627 612.067 516.836 610.107 513.253C609.599 512.431 609.274 511.51 609.153 510.551C609.032 509.593 609.118 508.62 609.404 507.697C609.691 506.775 610.172 505.925 610.815 505.204C611.458 504.483 612.248 503.908 613.132 503.518C618.472 501.254 627.294 506.814 630.674 510.735C630.792 510.853 631.418 511.766 632.161 512.83C631.367 511.005 630.589 509.18 629.728 507.338C627.294 502.166 624.658 496.944 622.021 491.722L620.331 488.444C618.286 489.018 610.512 491.114 606.625 490.539C602.738 489.965 598.091 488.224 596.13 484.641C595.624 483.818 595.299 482.896 595.179 481.937C595.059 480.978 595.147 480.004 595.435 479.081C595.723 478.159 596.206 477.309 596.851 476.589C597.495 475.868 598.287 475.295 599.172 474.907C604.496 472.642 613.335 478.202 616.715 482.123C616.833 482.258 617.576 483.34 618.405 484.54C617.019 481.684 615.667 478.811 614.433 475.921C612.26 470.979 610.419 465.898 608.924 460.711C608.214 460.914 599.139 463.55 594.829 462.925C591.01 462.367 586.379 460.592 584.317 457.01C583.827 456.182 583.516 455.261 583.405 454.306C583.294 453.351 583.384 452.383 583.671 451.465C583.958 450.547 584.434 449.7 585.07 448.978C585.705 448.256 586.485 447.676 587.359 447.275C592.683 445.011 601.521 450.571 604.901 454.492C605.138 454.762 607.825 458.683 608.738 460.119V459.933C607.392 454.801 606.51 449.557 606.101 444.267C605.709 439.546 605.596 434.806 605.763 430.071C605.865 425.677 606.237 421.621 606.575 418.106C606.794 416.196 607.014 414.439 607.234 412.799H607.132C607.132 412.799 605.104 406.039 605.037 405.667C604.175 400.597 605.527 390.204 610.681 387.551C611.547 387.135 612.491 386.905 613.452 386.877C614.413 386.849 615.368 387.023 616.257 387.388C617.146 387.753 617.949 388.3 618.613 388.995C619.277 389.69 619.787 390.516 620.111 391.421C621.616 395.223 619.959 399.989 617.948 403.251C615.937 406.512 609.194 411.346 607.521 412.512C607.318 414.202 607.132 416.027 606.963 418.038C606.676 421.587 606.406 425.593 606.389 429.987C606.389 431.153 606.389 432.403 606.389 433.62C606.777 431.558 607.352 428.736 607.453 428.55C609.042 423.632 615.008 415.03 620.804 415.03C621.765 415.062 622.709 415.294 623.575 415.713C624.44 416.132 625.208 416.728 625.83 417.462C626.451 418.196 626.911 419.053 627.181 419.976C627.45 420.899 627.523 421.868 627.395 422.821C626.973 426.894 623.322 430.358 620.01 432.353C616.698 434.347 608.18 435.547 606.49 435.733C606.575 438.437 606.71 441.191 607.048 444.081C607.585 449.362 608.604 454.584 610.09 459.68H610.411C610.546 457.736 610.918 453.663 610.985 453.342C612.033 448.272 617.019 439.096 622.815 438.47C623.773 438.397 624.736 438.525 625.641 438.846C626.547 439.167 627.375 439.675 628.072 440.336C628.769 440.996 629.32 441.796 629.69 442.682C630.06 443.569 630.239 444.523 630.218 445.484C630.218 449.574 626.99 453.427 623.931 455.776C620.399 458.48 610.833 460.66 610.411 460.745C611.971 465.724 613.857 470.596 616.055 475.329C617.661 478.844 619.435 482.343 621.244 485.841C621.244 484.472 621.785 479.081 621.869 478.743C622.917 473.673 627.902 464.496 633.699 463.871C634.658 463.797 635.622 463.926 636.529 464.248C637.435 464.57 638.264 465.079 638.962 465.742C639.66 466.404 640.21 467.206 640.579 468.095C640.947 468.983 641.125 469.94 641.101 470.901C641.101 474.974 637.873 478.828 634.814 481.177C631.434 483.83 622.207 485.942 621.43 486.128C622.258 487.7 623.12 489.289 623.914 490.877C626.652 496.032 629.423 501.203 631.992 506.391C632.888 508.183 633.682 509.974 634.51 511.783C634.662 509.738 635 506.02 635.068 505.699C636.116 500.629 641.118 491.469 646.898 490.843C647.86 490.751 648.83 490.865 649.744 491.18C650.658 491.494 651.494 492 652.196 492.665C652.897 493.33 653.448 494.137 653.811 495.033C654.174 495.928 654.341 496.891 654.3 497.857C654.3 501.947 651.072 505.8 648.013 508.149C644.954 510.498 637.282 512.459 635.102 512.982C636.454 515.991 637.721 518.999 638.837 522.024C639.276 523.342 639.817 524.643 640.189 525.928C640.56 527.212 640.966 528.497 641.338 529.764C642.031 532.401 642.69 534.834 643.281 537.335C643.586 538.586 643.856 539.769 644.126 540.986C643.974 538.89 643.771 535.561 643.788 535.257C644.059 530.102 647.591 520.283 653.202 518.779C654.137 518.561 655.107 518.541 656.05 518.722C656.993 518.902 657.888 519.279 658.677 519.827C659.465 520.375 660.13 521.082 660.628 521.903C661.126 522.724 661.446 523.64 661.567 524.593C661.651 525.095 661.685 525.605 661.669 526.114C663.95 530.051 665.178 534.509 665.234 539.059C665.234 539.38 664.694 543.284 664.389 545.278C664.998 543.74 665.623 542.203 666.232 540.597C667.144 538.282 668.023 535.814 668.902 533.431C669.307 532.164 669.713 530.896 670.135 529.612C670.558 528.328 670.845 527.06 671.217 525.759C671.707 523.849 672.13 521.838 672.552 519.844C670.135 519.066 663.105 516.65 660.317 514.165C657.528 511.681 654.486 507.507 654.824 503.434C654.869 502.473 655.117 501.531 655.55 500.672C655.984 499.813 656.593 499.055 657.34 498.447C658.086 497.839 658.952 497.396 659.882 497.146C660.811 496.896 661.783 496.844 662.733 496.995C668.412 498.043 672.721 507.558 673.38 512.678C673.38 512.847 673.38 513.946 673.38 515.247C673.735 513.287 674.09 511.343 674.394 509.332C675.222 503.671 675.881 497.874 676.574 492.06C676.726 490.843 676.895 489.644 677.031 488.427C675.003 487.785 667.364 485.233 664.44 482.613C661.516 479.994 658.61 475.971 658.948 471.899C658.993 470.937 659.24 469.996 659.674 469.137C660.107 468.278 660.717 467.519 661.463 466.912C662.21 466.304 663.076 465.861 664.005 465.61C664.935 465.36 665.906 465.309 666.857 465.46C672.535 466.507 676.845 476.022 677.504 481.143C677.504 481.329 677.504 482.647 677.504 484.117C677.926 480.957 678.4 477.814 678.94 474.721C679.864 469.403 681.14 464.153 682.76 459.004C682.033 458.767 673.025 455.962 669.781 453.072C666.891 450.486 663.933 446.413 664.271 442.34C664.319 441.38 664.568 440.44 665.002 439.582C665.437 438.724 666.046 437.967 666.792 437.36C667.538 436.753 668.403 436.309 669.331 436.058C670.259 435.807 671.23 435.753 672.18 435.902C677.876 436.949 682.168 446.464 682.827 451.585C682.827 451.957 682.963 456.655 682.929 458.345V458.159C684.648 453.142 686.803 448.284 689.368 443.642C691.651 439.493 694.173 435.481 696.922 431.626C699.44 428.009 701.992 424.866 704.206 422.094C705.44 420.607 706.589 419.272 707.687 418.038H707.552C707.451 418.038 709.563 411.278 709.749 410.923C711.845 406.191 718.689 398.299 724.435 398.924C725.404 399.028 726.338 399.34 727.175 399.839C728.012 400.338 728.731 401.012 729.283 401.814C729.835 402.617 730.207 403.529 730.374 404.489C730.54 405.448 730.498 406.433 730.249 407.374ZM663.866 546.292C662.885 545.819 655.28 542.05 652.323 538.856C649.755 540.248 647.108 541.489 644.397 542.574C645.073 545.549 645.698 548.456 646.239 551.193C647.929 559.846 649.061 567.113 649.771 572.217C649.923 573.299 650.041 574.262 650.16 575.158H650.548C650.92 574.397 651.343 573.603 651.816 572.673C654.114 568.144 657.308 561.604 660.79 553.593C661.804 551.295 662.835 548.827 663.866 546.292ZM694.201 435.766C694.286 435.766 696.043 429.006 696.111 428.567C696.821 423.497 695.181 413.137 689.976 410.619C689.099 410.225 688.148 410.021 687.186 410.018C686.225 410.015 685.273 410.215 684.393 410.604C683.514 410.993 682.726 411.562 682.08 412.275C681.435 412.988 680.947 413.829 680.647 414.743C679.245 418.596 681.019 423.294 683.115 426.573C685.582 430.341 694.184 435.766 694.201 435.766Z" fill="#156D2F"/>
<path d="M341.853 735.488C433.397 735.488 507.609 721.49 507.609 704.223C507.609 686.956 433.397 672.958 341.853 672.958C250.309 672.958 176.098 686.956 176.098 704.223C176.098 721.49 250.309 735.488 341.853 735.488Z" fill="#46B2C8"/>
<path opacity="0.5" d="M341.853 735.488C433.397 735.488 507.609 721.49 507.609 704.223C507.609 686.956 433.397 672.958 341.853 672.958C250.309 672.958 176.098 686.956 176.098 704.223C176.098 721.49 250.309 735.488 341.853 735.488Z" fill="white"/>
<path d="M280.185 573.197H269.978V622.511H280.185V573.197Z" fill="#023A59"/>
<mask id="mask0_1502_7298" style="mask-type:luminance" maskUnits="userSpaceOnUse" x="269" y="573" width="12" height="50">
<path d="M280.185 573.197H269.978V622.511H280.185V573.197Z" fill="white"/>
</mask>
<g mask="url(#mask0_1502_7298)">
<path opacity="0.4" d="M280.185 573.197H269.978V622.511H280.185V573.197Z" fill="white"/>
</g>
<path d="M280.185 573.197H269.978V622.511H280.185V573.197Z" stroke="#023A59" stroke-linecap="round" stroke-linejoin="round"/>
<path d="M268.22 356.235C268.22 356.235 192.846 361.525 189.331 366.46C185.816 371.395 188.266 382.295 191.021 391.455C193.776 400.615 220.968 567.57 228.353 574.955C235.738 582.34 249.14 580.6 264.992 580.6C280.844 580.6 365.04 577.423 365.04 577.423C365.04 577.423 371.8 578.825 381.602 575.31C391.404 571.795 404.147 566.15 405.904 560.877C407.662 555.605 406.259 546.428 404.485 546.428C402.71 546.428 297.44 538.688 297.44 538.688L268.22 356.235Z" fill="#023A59"/>
<mask id="mask1_1502_7298" style="mask-type:luminance" maskUnits="userSpaceOnUse" x="187" y="356" width="220" height="225">
<path d="M268.22 356.235C268.22 356.235 192.846 361.525 189.331 366.46C185.816 371.395 188.266 382.295 191.021 391.455C193.776 400.615 220.968 567.57 228.353 574.955C235.738 582.34 249.14 580.6 264.992 580.6C280.844 580.6 365.04 577.423 365.04 577.423C365.04 577.423 371.8 578.825 381.602 575.31C391.404 571.795 404.147 566.15 405.904 560.877C407.662 555.605 406.259 546.428 404.485 546.428C402.71 546.428 297.44 538.688 297.44 538.688L268.22 356.235Z" fill="white"/>
</mask>
<g mask="url(#mask1_1502_7298)">
<path opacity="0.4" d="M268.22 356.235C268.22 356.235 192.846 361.525 189.331 366.46C185.816 371.395 188.266 382.295 191.021 391.455C193.776 400.615 220.968 567.57 228.353 574.955C235.738 582.34 249.14 580.6 264.992 580.6C280.844 580.6 365.04 577.423 365.04 577.423C365.04 577.423 371.8 578.825 381.602 575.31C391.404 571.795 404.147 566.15 405.904 560.877C407.662 555.605 406.259 546.428 404.485 546.428C402.71 546.428 297.44 538.688 297.44 538.688L268.22 356.235Z" fill="white"/>
</g>
<path d="M268.22 356.235C268.22 356.235 192.846 361.525 189.331 366.46C185.816 371.395 188.266 382.295 191.021 391.455C193.776 400.615 220.968 567.57 228.353 574.955C235.738 582.34 249.14 580.6 264.992 580.6C280.844 580.6 365.04 577.423 365.04 577.423C365.04 577.423 371.8 578.825 381.602 575.31C391.404 571.795 404.147 566.15 405.904 560.877C407.662 555.605 406.259 546.428 404.485 546.428C402.71 546.428 297.44 538.688 297.44 538.688L268.22 356.235Z" stroke="#023A59" stroke-linecap="round" stroke-linejoin="round"/>
<path d="M267.172 568.263C250.61 568.263 238.645 569.328 235.823 561.503C233.001 553.678 207.651 417.447 203.426 397.725C199.201 378.003 198.491 369.198 193.556 366.731C192.689 366.389 191.739 366.321 190.833 366.536C189.927 366.75 189.108 367.237 188.486 367.93C186.255 373.338 188.486 383.14 191.055 391.388C193.877 400.547 221.002 567.503 228.387 574.888C235.772 582.273 249.174 580.532 265.026 580.532C280.878 580.532 365.04 577.423 365.04 577.423C369.412 578.021 373.861 577.676 378.087 576.409C379.67 574.893 380.753 572.931 381.191 570.784C381.628 568.637 381.401 566.407 380.538 564.393C378.459 558.765 283.718 568.263 267.172 568.263Z" fill="#023A59" stroke="#023A59" stroke-linecap="round" stroke-linejoin="round"/>
<path d="M358.956 305.011C353.463 287.064 337.713 266.006 316.943 265.651C299.029 265.364 289.903 268.592 280.827 293.266C271.752 317.94 240.571 372.088 240.571 372.088C240.571 372.088 241.585 372.257 243.326 372.493C241.231 374.91 240.048 376.312 240.048 376.312C240.048 376.312 229.485 397.454 220.494 415.943C211.503 434.432 216.793 461.894 230.009 478.811C243.225 495.728 254.835 492.01 267.51 476.158C280.185 460.305 325.105 345.673 325.105 345.673L339.91 317.467C341.059 318.802 341.971 319.562 342.495 319.41C344.557 318.819 362.184 315.591 358.956 305.011Z" fill="#023A59" stroke="#023A59" stroke-linecap="round" stroke-linejoin="round"/>
<path d="M320.34 268.457C320.34 268.457 344.591 285.357 339.251 292.202" stroke="white" stroke-width="0.75" stroke-linecap="round" stroke-linejoin="round"/>
<path d="M330.023 289.835C324.25 298.573 317.773 306.825 310.656 314.509C291.745 335.347 253.449 354.748 251.016 364.922" stroke="white" stroke-width="0.75" stroke-linecap="round" stroke-linejoin="round"/>
<path d="M334.401 282.027C333.756 283.457 333.034 284.851 332.237 286.202" stroke="white" stroke-width="0.75" stroke-linecap="round" stroke-linejoin="round"/>
<path d="M252.909 355.34C248.599 360.308 245.692 364.922 245.202 368.319" stroke="white" stroke-width="0.75" stroke-linecap="round" stroke-linejoin="round"/>
<path d="M309.676 270.4C309.676 270.4 306.296 268.473 300.955 285.914C295.615 303.355 281.081 330.513 268.964 340.214C265.279 343.145 261.748 346.265 258.384 349.56" stroke="white" stroke-width="0.75" stroke-linecap="round" stroke-linejoin="round"/>
<path d="M230.229 424.19C227.424 436.849 225.159 453.715 229.215 465.325C236.482 486.163 245.693 482.766 247.146 473.082C248.599 463.398 240.386 462.942 237.935 466.322C235.485 469.702 241.315 474.079 241.315 474.079" stroke="white" stroke-width="0.75" stroke-linecap="round" stroke-linejoin="round"/>
<path d="M235.028 406.614C235.028 406.614 233.66 410.586 232.037 416.653" stroke="white" stroke-width="0.75" stroke-linecap="round" stroke-linejoin="round"/>
<path d="M366.291 488.596C366.291 488.596 397.421 482.428 402.423 486.534C407.425 490.641 405.059 517.09 391.556 524.137C378.053 531.184 347.498 521.788 347.498 521.788L366.291 488.596Z" fill="#FFBE9D" stroke="#023A59" stroke-linecap="round" stroke-linejoin="round"/>
<path d="M348.377 517.918C348.377 517.918 381.568 529.376 386.267 536.508C390.965 543.64 388.328 582.037 387.145 598.784C385.962 615.532 385.675 666.925 390.373 682.49C395.072 698.055 398.012 706.877 400.953 710.696C403.893 714.516 418.867 722.442 417.701 724.791C416.535 727.14 403.589 727.14 396.542 725.078C389.495 723.016 382.16 714.803 375.991 709.513C369.823 704.224 368.353 704.224 368.353 704.224L370.702 722.814L367.17 722.222C367.17 722.222 366.595 710.189 364.229 703.717C361.863 697.244 358.652 696.382 361.001 691.092C363.35 685.803 373.051 679.634 373.051 679.634C372.343 666.552 370.373 653.569 367.17 640.865C361.88 620.011 354.833 609.431 353.954 585.349C353.075 561.266 358.365 553.628 358.365 553.628L323.111 554.219L348.377 517.918Z" fill="#FFBE9D" stroke="#023A59" stroke-linecap="round" stroke-linejoin="round"/>
<path d="M396.542 725.01C403.589 727.072 416.517 727.072 417.7 724.723C418.714 722.678 407.56 716.408 402.659 712.301C401.419 712.552 400.156 712.676 398.891 712.673C393.618 712.673 384.205 707.688 373.929 696.517C368.758 690.906 367.457 686.563 367.44 683.622C364.816 685.596 362.625 688.087 361.001 690.94C358.652 696.229 361.88 697.108 364.229 703.564C366.578 710.02 367.169 722.07 367.169 722.07L370.701 722.661L368.352 704.071C368.352 704.071 369.823 704.071 375.991 709.361C382.16 714.65 389.494 722.948 396.542 725.01Z" fill="#023A59" stroke="#023A59" stroke-linecap="round" stroke-linejoin="round"/>
<path d="M383.63 486.534C398.012 483.898 403.589 485.064 406.242 488.883C408.896 492.703 413.577 532.063 413.881 553.222C414.185 574.381 424.444 600.795 426.505 617.543C428.351 630.724 432.318 643.519 438.251 655.433C441.783 662.768 447.36 662.768 449.422 666.012C451.484 669.257 441.783 669.815 436.493 669.815C431.204 669.815 419.745 661.889 416.518 655.433C415.678 653.607 414.458 651.98 412.94 650.663C411.421 649.346 409.639 648.368 407.713 647.794C407.713 647.794 406.834 663.004 405.651 663.663C404.468 664.322 403.589 662.768 403.589 662.768C403.589 662.768 403.589 653.084 403.302 648.673C403.014 644.262 400.361 637.215 400.074 633.7C399.787 630.184 410.062 625.469 410.062 625.469C410.062 625.469 404.992 600.508 400.953 589.979C396.914 579.451 383.63 558.495 376.87 542.355C370.11 526.216 375.18 502.403 375.18 502.403" fill="#FFBE9D"/>
<path d="M383.63 486.534C398.012 483.898 403.589 485.064 406.242 488.883C408.896 492.703 413.577 532.063 413.881 553.222C414.185 574.381 424.444 600.795 426.505 617.543C428.351 630.724 432.318 643.519 438.251 655.433C441.783 662.767 447.36 662.768 449.422 666.012C451.484 669.257 441.783 669.815 436.493 669.815C431.204 669.815 419.745 661.889 416.518 655.433C415.678 653.607 414.458 651.98 412.94 650.663C411.421 649.346 409.639 648.368 407.713 647.794C407.713 647.794 406.834 663.004 405.651 663.663C404.468 664.322 403.589 662.768 403.589 662.768C403.589 662.768 403.589 653.084 403.302 648.673C403.014 644.262 400.361 637.215 400.074 633.7C399.787 630.184 410.062 625.469 410.062 625.469C410.062 625.469 404.992 600.508 400.953 589.979C396.914 579.451 383.63 558.495 376.87 542.355C370.11 526.216 375.18 502.403 375.18 502.403" stroke="#023A59" stroke-linecap="round" stroke-linejoin="round"/>
<path d="M440.904 659.388C439.481 660.628 437.711 661.401 435.834 661.602C431.727 661.889 423.497 657.191 414.979 644.567C408.777 635.356 408.034 629.12 408.084 626.416C405.127 627.971 399.786 631.131 400.006 633.7C400.293 637.215 402.947 644.262 403.234 648.673C403.521 653.084 403.521 662.768 403.521 662.768C403.521 662.768 404.417 664.238 405.583 663.664C406.749 663.089 407.645 647.795 407.645 647.795C409.573 648.364 411.357 649.341 412.876 650.659C414.395 651.976 415.614 653.604 416.45 655.433C419.678 661.889 431.136 669.815 436.426 669.815C441.715 669.815 451.399 669.241 449.354 666.013C447.85 663.512 444.132 662.92 440.904 659.388Z" fill="#023A59" stroke="#023A59" stroke-linecap="round" stroke-linejoin="round"/>
<path d="M325.765 370.229C327.708 371.283 329.399 372.749 330.718 374.523C332.037 376.298 332.954 378.339 333.403 380.504C334.857 387.855 337.797 462.739 338.676 464.209C339.555 465.68 360.646 483.019 360.646 483.019L353.886 490.945C353.886 490.945 332.153 480.366 325.393 474.789C318.633 469.212 315.996 466.863 317.179 457.162C318.362 447.462 321.573 399.297 321.573 391.962C321.573 384.627 321.354 366.73 325.765 370.229Z" fill="#46B2C8" stroke="#023A59" stroke-linecap="round" stroke-linejoin="round"/>
<path d="M294.06 354.9C294.06 354.9 266.158 365.176 255.579 368.995C245 372.814 234.42 371.936 233.846 375.163C233.271 378.391 240.893 419.813 246.47 437.136C252.047 454.458 255.579 465.342 254.7 470.936C253.821 476.53 230.026 506.781 236.786 534.378C243.546 561.976 287.892 560.81 314.323 560.523C340.755 560.235 339.673 559.052 339.673 559.052L373.152 487.684L328.79 494.14C328.79 494.14 310.589 480.619 312.346 473.285C314.104 465.95 322.638 450.96 324.683 443.034C326.728 435.108 329.973 417.194 327.032 405.736C324.092 394.277 331.156 373.423 325.866 370.246C320.576 367.068 299.908 354.9 294.06 354.9Z" fill="#46B2C8" stroke="#023A59" stroke-linecap="round" stroke-linejoin="round"/>
<path d="M254.143 510.161C254.143 510.161 267.172 500.291 283.008 502.404C298.843 504.516 337.257 517.614 337.257 517.614" stroke="#023A59" stroke-linecap="round" stroke-linejoin="round"/>
<path d="M246.03 509.806C246.03 509.806 249.562 502.049 261.24 498.889" stroke="#023A59" stroke-linecap="round" stroke-linejoin="round"/>
<path d="M360.714 483.019C364.45 482.135 368.282 481.726 372.121 481.802C375.491 481.936 378.793 482.786 381.809 484.296C384.825 485.805 387.485 487.939 389.612 490.556C389.612 490.556 391.083 494.325 388.649 494.561C386.216 494.798 381.179 491.925 376.549 491.688C373.495 491.485 370.465 491.021 367.49 490.303C367.49 490.303 373.084 494.933 371.377 495.373C369.671 495.812 364.617 493.192 362.64 492.466C360.663 491.739 356.32 491.012 354.376 489.086C352.433 487.159 360.714 483.019 360.714 483.019Z" fill="#FFBE9D" stroke="#023A59" stroke-linecap="round" stroke-linejoin="round"/>
<path d="M388.514 493.481C386.467 492.053 384.308 490.792 382.058 489.712C379.895 488.918 373.051 487.667 373.051 487.667" stroke="#023A59" stroke-width="0.5" stroke-linecap="round" stroke-linejoin="round"/>
<path d="M376.126 485.47C376.126 485.47 382.058 487.346 384.475 488.427C386.406 489.554 388.122 491.013 389.545 492.737" stroke="#023A59" stroke-width="0.5" stroke-linecap="round" stroke-linejoin="round"/>
<path d="M283.328 358.517C283.328 358.517 276.568 363.384 284.055 387.855C288.348 401.781 304.91 445.129 305.197 442.78C305.484 440.431 309.608 413.104 309.304 398.131C309.249 385.948 307.27 373.851 303.439 362.286C300.499 354.36 289.21 352.653 283.328 358.517Z" fill="#FFBFBF" stroke="#023A59" stroke-linecap="round" stroke-linejoin="round"/>
<path d="M279.932 365.817C280.292 370.887 281.181 375.906 282.585 380.791C284.63 386.959 287.57 393.432 287.57 393.432C287.57 393.432 297.558 385.202 298.437 385.202C299.316 385.202 309.304 390.491 309.304 389.308C308.279 380.944 306.515 372.687 304.031 364.634C300.499 353.48 291.153 350.354 285.88 354.494C280.608 358.635 279.932 365.817 279.932 365.817Z" fill="#FFE6CE" stroke="#023A59" stroke-linecap="round" stroke-linejoin="round"/>
<path d="M296.713 340.569L289.615 360.849C290.105 362.437 290.714 364.398 291.305 366.966C293.654 375.771 298.353 387.517 299.755 388.108C301.158 388.7 298.876 378.12 301.226 369.316C303.575 360.511 308.577 347.565 308.864 346.686L299.164 340.112L296.713 340.569Z" fill="#FFBE9D" stroke="#023A59" stroke-linecap="round" stroke-linejoin="round"/>
<path d="M336.108 295.108C329.567 303.558 320.695 314.459 312.836 322.639C298.15 337.849 295.412 339.539 298.015 341.009C301.818 344.389 313.326 354.732 317.535 356.709C322.605 359.058 324.582 354.36 332.221 347.312C339.859 340.265 346.907 318.819 345.436 312.059C343.942 305.66 340.714 299.795 336.108 295.108Z" fill="#FFBE9D" stroke="#023A59" stroke-linecap="round" stroke-linejoin="round"/>
<path d="M335.448 323.229C335.448 323.229 332.22 330.277 332.22 334.384C332.22 338.49 333.099 338.203 332.22 338.507C331.342 338.811 325.46 335.854 325.46 335.854" stroke="#023A59" stroke-linecap="round" stroke-linejoin="round"/>
<path d="M321.354 342.326C321.354 342.326 315.473 341.431 314.594 335.854" stroke="#023A59" stroke-linecap="round" stroke-linejoin="round"/>
<path d="M325.984 324.48C325.494 325.68 324.666 326.491 324.142 326.272C323.618 326.052 323.584 324.903 324.142 323.703C324.7 322.503 325.443 321.709 325.967 321.911C326.491 322.114 326.457 323.297 325.984 324.48Z" fill="#023A59"/>
<path d="M338.762 328.334C339.249 327.131 339.216 325.983 338.688 325.769C338.161 325.556 337.338 326.357 336.851 327.56C336.364 328.762 336.398 329.911 336.925 330.124C337.453 330.338 338.276 329.536 338.762 328.334Z" fill="#023A59"/>
<path d="M321.1 315.591C321.1 315.591 326.964 310.893 330.784 313.242" stroke="#023A59" stroke-linecap="round" stroke-linejoin="round"/>
<path d="M339.268 316.47C339.268 316.47 343.678 315.878 343.966 321.168" stroke="#023A59" stroke-linecap="round" stroke-linejoin="round"/>
<path d="M378.357 404.485L383.951 377.749L397.759 375.688L392.486 400.564L378.357 404.485Z" fill="#023A59" stroke="#023A59" stroke-linecap="round" stroke-linejoin="round"/>
<path d="M344.27 430.951L365.463 419.121L372.223 400.801C373.872 399.893 375.803 399.639 377.631 400.091C379.131 400.672 380.72 400.992 382.329 401.038L395.24 397.269C395.24 397.269 396.423 396.559 396.423 398.959C396.423 401.359 395.714 402.238 394.074 404.35C392.435 406.463 392.384 409.521 391.725 412.8C391.066 416.079 387.027 418.445 383.968 419.374C380.909 420.304 370.803 426.658 369.4 427.604C367.998 428.551 346.839 440.516 346.839 440.516L344.27 430.951Z" fill="#FFBE9D" stroke="#023A59" stroke-linecap="round" stroke-linejoin="round"/>
<path d="M382.397 400.97L374.403 404.248" stroke="#023A59" stroke-linecap="round" stroke-linejoin="round"/>
<path d="M239.98 396.069C239.98 396.069 273.172 477.189 276.399 480.079C279.627 482.969 351.013 441.091 351.013 441.091L343.678 427.283L289.919 445.214L263.488 383.816" fill="#46B2C8"/>
<path d="M239.98 396.069C239.98 396.069 273.172 477.189 276.399 480.079C279.627 482.969 351.013 441.091 351.013 441.091L343.678 427.283L289.919 445.214L263.488 383.816" stroke="#023A59" stroke-linecap="round" stroke-linejoin="round"/>
<path d="M347.819 706.691L300.127 688.963C310.774 686.85 338.71 681.324 340.417 681.324C342.546 681.324 340.772 675.696 340.772 675.696L284.782 679.245V619.689H264.705V678.755L215.39 677.809L214.681 682.034L251.81 689.52L196.733 712.673V717.946L278.444 697.97L348.174 713.18L347.819 706.691Z" fill="#023A59" stroke="#023A59" stroke-linecap="round" stroke-linejoin="round"/>
<path d="M207.296 720.954C207.296 721.897 207.016 722.818 206.493 723.602C205.969 724.386 205.225 724.997 204.354 725.357C203.483 725.718 202.525 725.812 201.6 725.629C200.676 725.445 199.827 724.991 199.16 724.324C198.494 723.658 198.04 722.809 197.856 721.884C197.672 720.96 197.766 720.001 198.127 719.131C198.488 718.26 199.098 717.515 199.882 716.992C200.666 716.468 201.587 716.189 202.53 716.189C203.156 716.186 203.777 716.308 204.356 716.547C204.936 716.785 205.462 717.136 205.905 717.579C206.348 718.022 206.699 718.549 206.938 719.128C207.176 719.707 207.298 720.328 207.296 720.954Z" fill="#023A59" stroke="#023A59" stroke-linecap="round" stroke-linejoin="round"/>
<path d="M348.884 716.374C348.884 717.317 348.604 718.238 348.08 719.022C347.557 719.806 346.812 720.417 345.942 720.777C345.071 721.138 344.113 721.232 343.188 721.048C342.264 720.865 341.414 720.411 340.748 719.744C340.081 719.078 339.628 718.228 339.444 717.304C339.26 716.38 339.354 715.421 339.715 714.55C340.076 713.68 340.686 712.935 341.47 712.412C342.254 711.888 343.175 711.608 344.118 711.608C344.744 711.606 345.365 711.728 345.944 711.967C346.524 712.205 347.05 712.556 347.493 712.999C347.936 713.442 348.287 713.969 348.525 714.548C348.764 715.127 348.886 715.748 348.884 716.374Z" fill="#023A59" stroke="#023A59" stroke-linecap="round" stroke-linejoin="round"/>
<path d="M222.793 685.904C222.796 686.603 222.592 687.288 222.206 687.871C221.82 688.454 221.269 688.909 220.624 689.179C219.979 689.449 219.268 689.521 218.582 689.387C217.896 689.253 217.265 688.918 216.769 688.424C216.273 687.931 215.935 687.302 215.798 686.616C215.66 685.93 215.729 685.219 215.996 684.573C216.263 683.927 216.715 683.374 217.296 682.985C217.878 682.596 218.561 682.389 219.261 682.389C220.194 682.389 221.09 682.758 221.752 683.417C222.414 684.076 222.788 684.97 222.793 685.904Z" fill="#023A59" stroke="#023A59" stroke-linecap="round" stroke-linejoin="round"/>
<path d="M341.482 684.839C341.485 685.539 341.28 686.224 340.893 686.807C340.507 687.391 339.955 687.846 339.309 688.115C338.663 688.385 337.951 688.456 337.265 688.32C336.578 688.185 335.947 687.848 335.452 687.353C334.957 686.858 334.62 686.227 334.485 685.54C334.349 684.854 334.42 684.142 334.69 683.496C334.959 682.85 335.414 682.298 335.998 681.911C336.581 681.525 337.266 681.32 337.966 681.323C338.899 681.323 339.793 681.694 340.452 682.353C341.111 683.012 341.482 683.906 341.482 684.839Z" fill="#023A59" stroke="#023A59" stroke-linecap="round" stroke-linejoin="round"/>
</svg>
