<?xml version="1.0" encoding="UTF-8"?>
<svg width="64px" height="64px" viewBox="0 0 64 64" version="1.1" xmlns="http://www.w3.org/2000/svg" xmlns:xlink="http://www.w3.org/1999/xlink">
    <title>icon_reg_azure_igaming</title>
    <g id="icon_reg_azure_igaming" stroke="none" stroke-width="1" fill="none" fill-rule="evenodd">
        <path d="M48.62,21.824585 L32.5,12.522285 C32.1905989,12.3436522 31.8094011,12.3436522 31.5,12.522285 L15.38,21.824585 C15.0705449,22.0032489 14.88,22.333457 14.88,22.690785 L14.88,41.308985 C14.88,41.6663129 15.0705449,41.996521 15.38,42.175185 L31.5,51.477885 C31.8094618,51.6562912 32.1905382,51.6562912 32.5,51.477885 L48.62,42.175185 C48.9294551,41.996521 49.12,41.6663129 49.12,41.308985 L49.12,22.690785 C49.12,22.333457 48.9294551,22.0032489 48.62,21.824585 Z M31,48.879985 L16.88,40.731285 L16.88,24.655385 L31,32.807285 L31,48.879985 Z M32,31.075285 L17.6793,22.807185 L32,14.543285 L46.3207,22.807185 L32,31.075285 Z M47.12,40.731485 L33,48.879985 L33,32.807285 L47.12,24.655385 L47.12,40.731485 Z M33.139,17.806585 C32.4224571,17.4431163 31.5755429,17.4431163 30.859,17.806585 C30.5768017,17.9020639 30.3868783,18.166822 30.3868783,18.464735 C30.3868783,18.7626479 30.5768017,19.0274061 30.859,19.122885 C31.5754887,19.4865802 32.4225113,19.4865802 33.139,19.122885 C33.4211983,19.0274061 33.6111217,18.7626479 33.6111217,18.464735 C33.6111217,18.166822 33.4211983,17.9020639 33.139,17.806585 L33.139,17.806585 Z M40.4585,22.032885 C39.741988,21.6692869 38.895012,21.6692869 38.1785,22.032885 C37.8963017,22.1283639 37.7063783,22.393122 37.7063783,22.691035 C37.7063783,22.9889479 37.8963017,23.2537061 38.1785,23.349185 C38.895012,23.7127831 39.741988,23.7127831 40.4585,23.349185 C40.7406983,23.2537061 40.9306217,22.9889479 40.9306217,22.691035 C40.9306217,22.393122 40.7406983,22.1283639 40.4585,22.032885 L40.4585,22.032885 Z M25.8195,22.032885 C25.1029958,21.6692545 24.2560042,21.6692545 23.5395,22.032885 C23.2573017,22.1283639 23.0673783,22.393122 23.0673783,22.691035 C23.0673783,22.9889479 23.2573017,23.2537061 23.5395,23.349185 C24.2560042,23.7128154 25.1029958,23.7128154 25.8195,23.349185 C26.1017346,23.2538133 26.2917587,22.9891273 26.2918719,22.6912143 C26.291985,22.3933014 26.1021621,22.128471 25.82,22.032885 L25.8195,22.032885 Z M29.4795,24.146085 C28.762988,23.7824869 27.916012,23.7824869 27.1995,24.146085 C26.9172745,24.2415099 26.727314,24.5062636 26.727314,24.804185 C26.727314,25.1021064 26.9172745,25.3668601 27.1995,25.462285 C27.916012,25.8258831 28.762988,25.8258831 29.4795,25.462285 C29.761711,25.3668172 29.9516313,25.1020346 29.951586,24.8041132 C29.9515407,24.5061918 29.76154,24.241467 29.4793,24.146085 L29.4795,24.146085 Z M33.1395,26.259185 C32.422988,25.8955869 31.576012,25.8955869 30.8595,26.259185 C30.5773017,26.3546639 30.3873783,26.619422 30.3873783,26.917335 C30.3873783,27.2152479 30.5773017,27.4800061 30.8595,27.575485 C31.576012,27.9390831 32.422988,27.9390831 33.1395,27.575485 C33.4216621,27.4798989 33.611485,27.2150686 33.6113719,26.9171556 C33.6112587,26.6192427 33.4212346,26.3545566 33.139,26.259185 L33.1395,26.259185 Z M36.7995,19.919785 C36.082988,19.5561869 35.236012,19.5561869 34.5195,19.919785 C34.2373017,20.0152639 34.0473783,20.280022 34.0473783,20.577935 C34.0473783,20.8758479 34.2373017,21.1406061 34.5195,21.236085 C35.2360429,21.5995536 36.0829571,21.5995536 36.7995,21.236085 C37.0814961,21.1403663 37.271135,20.8755823 37.2709767,20.577784 C37.2708182,20.2799857 37.0808978,20.0154036 36.7988,19.919985 L36.7995,19.919785 Z M43.72,31.629185 C44.3929792,31.1904237 44.8164274,30.4570781 44.86,29.654885 C44.86,28.927985 44.35,28.633385 43.72,28.996785 C43.0469122,29.4354433 42.6234291,30.1688492 42.58,30.971085 C42.58,31.697985 43.09,31.992585 43.72,31.629185 Z M36.4,44.306885 C37.0730516,43.8681923 37.4965231,43.1348066 37.54,42.332585 C37.54,41.605685 37.0295,41.310985 36.4,41.674485 C35.7268914,42.1130771 35.3033965,42.8464662 35.26,43.648685 C35.26,44.375685 35.77,44.669985 36.4,44.306885 Z M40.06,37.968085 C40.7329792,37.5293237 41.1564274,36.7959781 41.2,35.993785 C41.2,35.266785 40.69,34.972185 40.06,35.335585 C39.3869088,35.7742867 38.9634298,36.5077227 38.92,37.309985 C38.92,38.036785 39.43,38.331485 40.06,37.968085 Z M27.6,35.854285 C28.23,36.217685 28.74,35.923085 28.74,35.196185 C28.6965709,34.3939492 28.2730878,33.6605433 27.6,33.221885 C26.97,32.858485 26.46,33.153085 26.46,33.879985 C26.5034769,34.6822066 26.9269484,35.4155923 27.6,35.854285 L27.6,35.854285 Z M20.28,40.080585 C20.91,40.443985 21.42,40.149385 21.42,39.422385 C21.3764274,38.6201918 20.9529792,37.8868463 20.28,37.448085 C19.65,37.084685 19.14,37.379385 19.14,38.106285 C19.1835726,38.9084781 19.6070208,39.6418237 20.28,40.080585 L20.28,40.080585 Z" id="Shape" fill="#058ED8" fill-rule="nonzero"></path>
    </g>
</svg>