<svg width="436" height="436" viewBox="0 0 436 436" fill="none" xmlns="http://www.w3.org/2000/svg">
<path d="M425.641 411.662C425.641 411.793 334.622 411.889 222.369 411.889C110.116 411.889 19.0796 411.793 19.0796 411.662C19.0796 411.531 110.082 411.436 222.369 411.436C334.656 411.436 425.641 411.584 425.641 411.662Z" fill="#263238"/>
<path d="M378.884 339.068C380.128 339.643 381.242 340.463 382.16 341.479C383.079 342.495 383.783 343.686 384.23 344.981C385.108 347.579 385.379 350.344 385.023 353.064C384.491 358.296 381.535 363.659 378.413 367.888C373.94 364.086 372.841 357.363 372.501 353.936C371.961 348.495 374.289 338.327 378.884 339.112" fill="#81DD6A"/>
<path d="M383.68 376.495C383.365 374.998 383.448 373.445 383.923 371.991C384.397 370.537 385.246 369.233 386.383 368.211C387.543 367.212 388.889 366.454 390.344 365.981C391.799 365.508 393.334 365.329 394.859 365.455C396.263 365.542 397.789 365.935 398.609 367.086C398.962 367.645 399.158 368.29 399.176 368.951C399.194 369.612 399.035 370.266 398.713 370.844C398.059 372 397.108 372.96 395.958 373.626C392.156 376.076 388.032 377.742 383.68 376.495Z" fill="#81DD6A"/>
<path d="M376.259 379.546C375.597 376.387 374.19 373.431 372.156 370.925C370.123 368.418 367.521 366.432 364.566 365.132C363.057 364.487 361.078 364.112 359.944 365.254C358.811 366.397 359.125 368.367 359.787 369.876C361.217 372.989 363.535 375.61 366.451 377.408C369.366 379.206 372.749 380.102 376.172 379.982" fill="#81DD6A"/>
<path d="M377.62 392.984C377.641 392.614 377.697 392.246 377.785 391.885C377.907 391.188 378.108 390.141 378.387 388.929C379.052 385.666 380.139 382.503 381.622 379.52C383.143 376.522 385.437 373.984 388.267 372.169C389.129 371.64 390.051 371.215 391.014 370.905C391.274 370.817 391.538 370.744 391.807 370.687C391.9 370.658 391.997 370.64 392.095 370.635C390.805 371.085 389.566 371.67 388.398 372.379C385.655 374.223 383.431 376.739 381.936 379.686C380.465 382.645 379.353 385.768 378.622 388.99L377.916 391.912C377.837 392.274 377.738 392.632 377.62 392.984Z" fill="#263238"/>
<path d="M377.794 346.969C377.835 347.122 377.856 347.281 377.855 347.44C377.855 347.78 377.907 348.233 377.942 348.791C378.021 349.968 378.108 351.669 378.195 353.77C378.378 357.973 378.553 363.79 378.605 370.216C378.657 376.643 378.605 382.424 378.448 386.662C378.387 388.772 378.326 390.473 378.274 391.65C378.274 392.208 378.221 392.662 378.204 393.002C378.198 393.16 378.18 393.317 378.152 393.473C378.141 393.316 378.141 393.158 378.152 393.002C378.152 392.653 378.152 392.208 378.152 391.641C378.152 390.429 378.195 388.738 378.221 386.662C378.274 382.45 378.326 376.643 378.274 370.216C378.221 363.79 378.091 358.008 377.968 353.779C377.907 351.704 377.864 350.012 377.829 348.8C377.829 348.233 377.829 347.788 377.829 347.44C377.802 347.284 377.791 347.126 377.794 346.969Z" fill="#263238"/>
<path d="M365.551 370.016C365.886 370.129 366.21 370.272 366.519 370.443C366.9 370.609 367.267 370.805 367.618 371.027C368.096 371.292 368.559 371.583 369.004 371.899L369.78 372.457C370.051 372.658 370.312 372.893 370.583 373.12C371.15 373.573 371.681 374.123 372.266 374.69C373.463 375.976 374.527 377.382 375.44 378.884C376.318 380.403 377.034 382.011 377.576 383.68C377.81 384.41 378.002 385.152 378.152 385.903C378.213 386.252 378.3 386.592 378.344 386.924C378.387 387.255 378.422 387.569 378.466 387.874C378.553 388.485 378.553 389.034 378.579 389.522C378.606 389.937 378.606 390.354 378.579 390.769C378.575 391.123 378.546 391.475 378.492 391.824C378.405 391.824 378.544 390.307 378.239 387.909C378.195 387.604 378.143 387.29 378.099 386.967C378.056 386.645 377.96 386.313 377.881 385.965C377.751 385.267 377.515 384.543 377.288 383.776C376.218 380.471 374.432 377.443 372.056 374.908C371.49 374.341 370.975 373.783 370.426 373.329C370.155 373.103 369.903 372.867 369.641 372.667L368.891 372.091C366.903 370.687 365.508 370.085 365.551 370.016Z" fill="#263238"/>
<path d="M386.671 411.663H370.652L367.382 388.188H389.723L386.671 411.663Z" fill="#263238"/>
<path d="M388.284 399.01C388.284 399.132 383.924 399.237 378.623 399.237C373.321 399.237 368.961 399.132 368.961 399.01C368.961 398.888 373.321 398.783 378.623 398.783C383.924 398.783 388.284 398.888 388.284 399.01Z" fill="#FAFAFA"/>
<path d="M388.284 400.404C388.284 400.527 383.924 400.631 378.623 400.631C373.321 400.631 368.961 400.527 368.961 400.404C368.961 400.282 373.321 400.178 378.623 400.178C383.924 400.178 388.284 400.247 388.284 400.404Z" fill="#FAFAFA"/>
<path d="M338.851 411.584L216.701 411.637C216.456 411.638 216.214 411.591 215.988 411.498C215.761 411.405 215.555 411.268 215.382 411.096C215.209 410.923 215.071 410.718 214.977 410.492C214.883 410.266 214.835 410.024 214.835 409.779V335.999C214.835 335.755 214.883 335.513 214.977 335.287C215.071 335.061 215.209 334.856 215.382 334.683C215.555 334.51 215.761 334.374 215.988 334.281C216.214 334.188 216.456 334.141 216.701 334.142L338.851 334.081C339.344 334.083 339.817 334.281 340.165 334.631C340.513 334.98 340.708 335.454 340.708 335.947V409.718C340.708 410.212 340.513 410.685 340.165 411.035C339.817 411.384 339.344 411.582 338.851 411.584Z" fill="#263238"/>
<path d="M279.066 365.089L289.399 370.643L279.485 377.175L269.561 383.715L269.151 371.62L268.733 359.525L279.066 365.089Z" fill="white"/>
<path d="M331.613 403.867C331.613 403.998 307.502 404.111 277.767 404.12C248.032 404.128 223.921 404.041 223.921 403.919C223.921 403.797 248.023 403.684 277.767 403.666C307.511 403.649 331.613 403.736 331.613 403.867Z" fill="white"/>
<path d="M225.848 403.919C225.848 404.188 225.768 404.451 225.619 404.675C225.469 404.898 225.257 405.073 225.008 405.176C224.76 405.279 224.486 405.306 224.222 405.253C223.958 405.201 223.716 405.071 223.526 404.881C223.336 404.691 223.206 404.448 223.154 404.184C223.101 403.92 223.128 403.647 223.231 403.398C223.334 403.15 223.508 402.937 223.732 402.788C223.956 402.638 224.219 402.559 224.488 402.559C224.849 402.559 225.195 402.702 225.45 402.957C225.705 403.212 225.848 403.558 225.848 403.919Z" fill="white"/>
<path d="M319.763 411.392L190.044 411.453C189.549 411.453 189.074 411.257 188.724 410.907C188.374 410.557 188.178 410.082 188.178 409.587V331.151C188.178 330.906 188.226 330.664 188.32 330.438C188.414 330.212 188.551 330.007 188.725 329.834C188.898 329.662 189.104 329.525 189.33 329.432C189.557 329.339 189.799 329.292 190.044 329.293L319.763 329.232C320.256 329.232 320.729 329.428 321.079 329.776C321.429 330.124 321.626 330.596 321.629 331.09V409.57C321.619 410.058 321.419 410.523 321.069 410.864C320.72 411.205 320.251 411.395 319.763 411.392Z" fill="#455A64"/>
<path d="M256.272 362.071L267.233 367.957L256.717 374.89L246.201 381.822L245.765 369.004L245.32 356.177L256.272 362.071Z" fill="white"/>
<path d="M311.984 403.187C311.984 403.318 286.426 403.431 254.903 403.44C223.381 403.449 197.813 403.37 197.813 403.239C197.813 403.108 223.372 403.004 254.903 402.986C286.435 402.969 311.984 403.065 311.984 403.187Z" fill="white"/>
<path d="M199.801 403.239C199.801 403.523 199.717 403.801 199.559 404.038C199.401 404.275 199.176 404.459 198.913 404.568C198.65 404.677 198.361 404.705 198.082 404.65C197.803 404.594 197.546 404.457 197.345 404.256C197.144 404.055 197.007 403.798 196.951 403.519C196.896 403.24 196.924 402.951 197.033 402.688C197.142 402.425 197.327 402.2 197.563 402.042C197.8 401.884 198.078 401.8 198.363 401.8C198.744 401.8 199.11 401.951 199.38 402.221C199.65 402.491 199.801 402.857 199.801 403.239Z" fill="white"/>
<path d="M269.998 364.505H197.16C196.129 364.505 195.293 365.34 195.293 366.371V409.779C195.293 410.81 196.129 411.645 197.16 411.645H269.998C271.028 411.645 271.864 410.81 271.864 409.779V366.371C271.864 365.34 271.028 364.505 269.998 364.505Z" fill="#FF5454"/>
<path d="M234.376 383.332L240.664 386.706L234.629 390.683L228.595 394.668L228.342 387.308L228.089 379.948L234.376 383.332Z" fill="white"/>
<path d="M266.344 406.928C266.344 407.05 251.677 407.154 233.592 407.163C215.506 407.172 200.831 407.076 200.831 406.954C200.831 406.832 215.498 406.718 233.592 406.71C251.686 406.701 266.344 406.797 266.344 406.928Z" fill="white"/>
<path d="M201.973 406.953C201.973 407.118 201.924 407.278 201.832 407.415C201.741 407.551 201.611 407.657 201.459 407.72C201.307 407.782 201.14 407.798 200.979 407.765C200.819 407.733 200.671 407.653 200.555 407.536C200.44 407.419 200.362 407.271 200.331 407.11C200.3 406.948 200.317 406.782 200.382 406.63C200.446 406.479 200.553 406.35 200.69 406.26C200.828 406.17 200.989 406.123 201.153 406.125C201.371 406.127 201.58 406.216 201.733 406.371C201.887 406.526 201.973 406.735 201.973 406.953Z" fill="white"/>
<path d="M395.208 91.0107H52.3115V309.447H395.208V91.0107Z" fill="white"/>
<path d="M395.443 308.61C395.443 306.927 395.373 224.226 395.26 90.1736L395.443 90.3829L52.5814 90.444L52.8256 90.1736C52.8256 167.485 52.8256 241.352 52.8256 308.61L52.5989 308.357L395.487 308.61L52.5989 308.863H52.3198V308.61C52.3198 241.352 52.3198 167.485 52.3198 90.1736V89.9033H52.5989L395.461 89.9644H395.652V90.1736C395.522 224.226 395.452 306.944 395.443 308.61Z" fill="#263238"/>
<path d="M395.644 103.271C395.644 103.402 318.786 103.516 224.008 103.516C129.231 103.516 52.3203 103.402 52.3203 103.271C52.3203 103.141 129.161 103.019 223.974 103.019C318.786 103.019 395.644 103.132 395.644 103.271Z" fill="#263238"/>
<path d="M63.6563 95.1787C63.6563 95.6168 63.5264 96.045 63.283 96.4093C63.0397 96.7735 62.6938 97.0574 62.289 97.225C61.8843 97.3927 61.439 97.4365 61.0093 97.3511C60.5797 97.2656 60.185 97.0547 59.8753 96.7449C59.5655 96.4351 59.3546 96.0405 59.2691 95.6108C59.1837 95.1812 59.2275 94.7359 59.3952 94.3312C59.5628 93.9264 59.8467 93.5805 60.2109 93.3371C60.5752 93.0938 61.0034 92.9639 61.4414 92.9639C62.0289 92.9639 62.5922 93.1972 63.0076 93.6126C63.423 94.028 63.6563 94.5913 63.6563 95.1787Z" fill="#263238"/>
<path d="M70.4493 95.1787C70.4493 95.6168 70.3194 96.045 70.076 96.4093C69.8326 96.7735 69.4867 97.0574 69.082 97.225C68.6773 97.3927 68.232 97.4365 67.8023 97.3511C67.3727 97.2656 66.978 97.0547 66.6683 96.7449C66.3585 96.4351 66.1476 96.0405 66.0621 95.6108C65.9766 95.1812 66.0205 94.7359 66.1881 94.3312C66.3558 93.9264 66.6397 93.5805 67.0039 93.3371C67.3681 93.0938 67.7964 92.9639 68.2344 92.9639C68.5253 92.9639 68.8133 93.0212 69.082 93.1325C69.3507 93.2438 69.5949 93.4069 69.8006 93.6126C70.0062 93.8183 70.1694 94.0624 70.2807 94.3312C70.392 94.5999 70.4493 94.8879 70.4493 95.1787Z" fill="#263238"/>
<path d="M77.2071 95.1787C77.2071 95.6168 77.0772 96.045 76.8338 96.4093C76.5905 96.7735 76.2445 97.0574 75.8398 97.225C75.4351 97.3927 74.9898 97.4365 74.5601 97.3511C74.1305 97.2656 73.7358 97.0547 73.4261 96.7449C73.1163 96.4351 72.9054 96.0405 72.8199 95.6108C72.7344 95.1812 72.7783 94.7359 72.9459 94.3312C73.1136 93.9264 73.3975 93.5805 73.7617 93.3371C74.1259 93.0938 74.5542 92.9639 74.9922 92.9639C75.5796 92.9639 76.143 93.1972 76.5584 93.6126C76.9738 94.028 77.2071 94.5913 77.2071 95.1787Z" fill="#263238"/>
<path d="M146.025 220.965H75.3149V289.382H146.025V220.965Z" fill="#46B2C8"/>
<g opacity="0.3">
<path d="M80.7998 283.531L100.359 248.319L116.36 270.826L126.083 258.871L140.549 283.531H80.7998Z" fill="black"/>
</g>
<g opacity="0.3">
<path d="M123.179 241.474C123.181 242.482 122.884 243.467 122.325 244.306C121.767 245.145 120.972 245.799 120.041 246.185C119.111 246.572 118.087 246.674 117.098 246.479C116.11 246.283 115.202 245.799 114.489 245.087C113.776 244.375 113.29 243.468 113.093 242.48C112.895 241.492 112.996 240.467 113.381 239.536C113.766 238.605 114.419 237.809 115.256 237.249C116.094 236.69 117.079 236.391 118.087 236.391C119.435 236.393 120.728 236.929 121.682 237.882C122.636 238.834 123.174 240.126 123.179 241.474Z" fill="black"/>
</g>
<g opacity="0.3">
<path d="M140.549 283.714C140.536 283.622 140.536 283.528 140.549 283.435C140.549 283.235 140.549 282.973 140.549 282.642C140.549 281.909 140.549 280.898 140.549 279.564C140.549 276.852 140.549 272.928 140.471 267.94C140.471 257.947 140.384 243.716 140.323 226.633L140.619 226.921L80.8696 226.973L81.2009 226.642V242.006C81.2009 247.029 81.2009 251.956 81.2009 256.743C81.2009 266.335 81.2009 275.387 81.2009 283.714L80.9132 283.426L124.112 283.575L136.32 283.653H139.555H140.427H140.724C140.637 283.666 140.549 283.666 140.462 283.653H139.651H136.477L124.356 283.732L80.9742 283.88H80.6777V283.583C80.6777 275.256 80.6777 266.196 80.6777 256.612C80.6777 251.825 80.6777 246.898 80.6777 241.876V226.642L81.0178 226.302L140.767 226.345H141.055V226.633C140.994 243.794 140.942 258.086 140.907 268.123C140.907 273.085 140.846 276.982 140.828 279.677C140.828 280.976 140.828 281.988 140.828 282.703C140.828 283.025 140.828 283.27 140.828 283.47C140.742 283.559 140.649 283.641 140.549 283.714Z" fill="black"/>
</g>
<path d="M203.7 233.983H155.835V236.39H203.7V233.983Z" fill="#46B2C8"/>
<path d="M220.337 244.309C220.337 244.448 205.958 244.561 188.23 244.561C170.502 244.561 156.123 244.448 156.123 244.309C156.123 244.169 170.494 244.064 188.23 244.064C205.967 244.064 220.337 244.16 220.337 244.309Z" fill="#263238"/>
<path d="M220.337 251.022C220.337 251.162 205.958 251.275 188.23 251.275C170.503 251.275 156.088 251.136 156.088 251.022C156.088 250.909 170.459 250.778 188.195 250.778C205.932 250.778 220.337 250.892 220.337 251.022Z" fill="#263238"/>
<path d="M220.337 257.737C220.337 257.877 205.958 257.981 188.23 257.981C170.502 257.981 156.123 257.877 156.123 257.737C156.123 257.598 170.494 257.493 188.23 257.493C205.967 257.493 220.337 257.598 220.337 257.737Z" fill="#263238"/>
<path d="M220.337 264.451C220.337 264.582 205.958 264.695 188.23 264.695C170.502 264.695 156.123 264.582 156.123 264.451C156.123 264.32 170.494 264.207 188.23 264.207C205.967 264.207 220.337 264.312 220.337 264.451Z" fill="#263238"/>
<path d="M220.337 271.192C220.337 271.323 205.958 271.436 188.23 271.436C170.503 271.436 156.088 271.297 156.088 271.192C156.088 271.088 170.459 270.939 188.195 270.939C205.932 270.939 220.337 271.027 220.337 271.192Z" fill="#263238"/>
<path d="M189.102 277.296C189.102 277.427 181.716 277.54 172.613 277.54C163.509 277.54 156.088 277.462 156.088 277.296C156.088 277.13 163.474 277.043 172.578 277.043C181.682 277.043 189.102 277.191 189.102 277.296Z" fill="#263238"/>
<path d="M358.314 229.929H310.45V232.335H358.314V229.929Z" fill="#46B2C8"/>
<path d="M374.96 240.263C374.96 240.402 360.581 240.507 342.853 240.507C325.125 240.507 310.746 240.402 310.746 240.263C310.746 240.123 325.117 240.019 342.853 240.019C360.59 240.019 374.96 240.123 374.96 240.263Z" fill="#263238"/>
<path d="M374.96 246.977C374.96 247.116 360.581 247.221 342.853 247.221C325.125 247.221 310.746 247.116 310.746 246.977C310.746 246.837 325.117 246.732 342.853 246.732C360.59 246.732 374.96 246.837 374.96 246.977Z" fill="#263238"/>
<path d="M374.96 253.691C374.96 253.822 360.581 253.935 342.853 253.935C325.125 253.935 310.746 253.822 310.746 253.691C310.746 253.561 325.117 253.438 342.853 253.438C360.59 253.438 374.96 253.552 374.96 253.691Z" fill="#263238"/>
<path d="M374.96 260.405C374.96 260.536 360.581 260.649 342.853 260.649C325.125 260.649 310.746 260.536 310.746 260.405C310.746 260.274 325.117 260.152 342.853 260.152C360.59 260.152 374.96 260.266 374.96 260.405Z" fill="#263238"/>
<path d="M374.96 267.111C374.96 267.251 360.581 267.364 342.853 267.364C325.125 267.364 310.746 267.251 310.746 267.111C310.746 266.972 325.117 266.867 342.853 266.867C360.59 266.867 374.96 266.981 374.96 267.111Z" fill="#263238"/>
<path d="M343.716 273.285C343.716 273.416 336.331 273.529 327.227 273.529C318.123 273.529 310.737 273.416 310.737 273.285C310.737 273.154 318.123 273.032 327.227 273.032C336.331 273.032 343.716 273.146 343.716 273.285Z" fill="#263238"/>
<path d="M300.561 291.692C301.328 291.454 302.134 291.371 302.933 291.448C302.436 291.945 302.793 291.588 302.68 291.692V291.248V290.803C302.68 290.518 302.697 290.265 302.732 290.044C302.776 289.617 302.837 289.355 302.907 289.355C302.976 289.355 303.038 289.617 303.081 290.044C303.081 290.265 303.099 290.518 303.133 290.803V291.675L302.889 291.928C302.105 292.01 301.313 291.93 300.561 291.692Z" fill="#263238"/>
<path d="M290.376 291.692C292.052 291.367 293.775 291.367 295.452 291.692C293.777 292.029 292.051 292.029 290.376 291.692Z" fill="#263238"/>
<path d="M280.261 291.692C281.937 291.367 283.66 291.367 285.336 291.692C283.661 292.029 281.936 292.029 280.261 291.692Z" fill="#263238"/>
<path d="M270.111 291.692C271.787 291.367 273.51 291.367 275.186 291.692C273.511 292.029 271.786 292.029 270.111 291.692Z" fill="#263238"/>
<path d="M259.961 291.692C261.637 291.367 263.36 291.367 265.036 291.692C263.361 292.029 261.636 292.029 259.961 291.692Z" fill="#263238"/>
<path d="M249.811 291.692C251.487 291.367 253.21 291.367 254.886 291.692C253.211 292.029 251.486 292.029 249.811 291.692Z" fill="#263238"/>
<path d="M239.661 291.692C241.337 291.367 243.06 291.367 244.736 291.692C243.061 292.029 241.336 292.029 239.661 291.692Z" fill="#263238"/>
<path d="M232.214 289.33C232.462 290.091 232.548 290.896 232.467 291.693L232.214 291.449H233.138L233.897 291.501C234.324 291.554 234.586 291.615 234.586 291.676C234.586 291.737 234.324 291.807 233.897 291.859L233.138 291.911H232.214C232.109 291.798 232.467 292.155 231.97 291.658C231.897 290.874 231.98 290.083 232.214 289.33Z" fill="#263238"/>
<path d="M232.214 279.528C232.551 281.144 232.551 282.813 232.214 284.429C231.888 282.812 231.888 281.146 232.214 279.528Z" fill="#263238"/>
<path d="M232.214 269.736C232.551 271.352 232.551 273.021 232.214 274.637C231.888 273.02 231.888 271.354 232.214 269.736Z" fill="#263238"/>
<path d="M232.214 259.943C232.551 261.557 232.551 263.222 232.214 264.835C231.976 264.042 231.893 263.21 231.97 262.385C231.893 261.563 231.976 260.734 232.214 259.943Z" fill="#263238"/>
<path d="M232.214 250.142C232.551 251.758 232.551 253.426 232.214 255.042C231.888 253.425 231.888 251.759 232.214 250.142Z" fill="#263238"/>
<path d="M232.214 240.35C232.551 241.963 232.551 243.628 232.214 245.242C231.976 244.451 231.893 243.622 231.97 242.8C231.893 241.975 231.976 241.143 232.214 240.35Z" fill="#263238"/>
<path d="M232.214 230.548C232.551 232.164 232.551 233.832 232.214 235.448C231.888 233.831 231.888 232.165 232.214 230.548Z" fill="#263238"/>
<path d="M234.568 223.285C233.803 223.527 232.995 223.611 232.196 223.529L232.449 223.285V223.738V224.183C232.449 224.462 232.449 224.724 232.397 224.933C232.353 225.36 232.292 225.631 232.223 225.631C232.153 225.631 232.092 225.36 232.048 224.933C232.048 224.724 232.048 224.462 231.996 224.183C231.944 223.904 231.996 223.878 231.996 223.738V223.285L232.24 223.041C233.025 222.965 233.816 223.048 234.568 223.285Z" fill="#263238"/>
<path d="M244.736 223.284C243.06 223.61 241.337 223.61 239.661 223.284C241.337 222.959 243.06 222.959 244.736 223.284Z" fill="#263238"/>
<path d="M254.886 223.284C253.21 223.61 251.487 223.61 249.811 223.284C251.487 222.959 253.21 222.959 254.886 223.284Z" fill="#263238"/>
<path d="M265.036 223.284C263.36 223.61 261.637 223.61 259.961 223.284C261.637 222.959 263.36 222.959 265.036 223.284Z" fill="#263238"/>
<path d="M275.186 223.284C273.51 223.61 271.787 223.61 270.111 223.284C271.787 222.959 273.51 222.959 275.186 223.284Z" fill="#263238"/>
<path d="M285.336 223.284C283.66 223.61 281.937 223.61 280.261 223.284C281.937 222.959 283.66 222.959 285.336 223.284Z" fill="#263238"/>
<path d="M295.486 223.284C293.81 223.61 292.087 223.61 290.411 223.284C292.087 222.959 293.81 222.959 295.486 223.284Z" fill="#263238"/>
<path d="M302.933 225.656C302.685 224.892 302.599 224.084 302.68 223.284L302.933 223.529H302.453H302.009C301.721 223.529 301.468 223.529 301.25 223.476C300.823 223.433 300.561 223.372 300.561 223.302C300.561 223.232 300.823 223.171 301.25 223.128C301.471 223.128 301.724 223.11 302.009 223.075H302.453H302.933L303.177 223.319C303.248 224.107 303.165 224.9 302.933 225.656Z" fill="#263238"/>
<path d="M302.933 235.44C302.596 233.824 302.596 232.155 302.933 230.539C303.259 232.156 303.259 233.822 302.933 235.44Z" fill="#263238"/>
<path d="M302.933 245.242C302.596 243.628 302.596 241.963 302.933 240.35C303.171 241.143 303.254 241.975 303.177 242.8C303.254 243.622 303.171 244.451 302.933 245.242Z" fill="#263238"/>
<path d="M302.933 255.042C302.596 253.426 302.596 251.758 302.933 250.142C303.259 251.759 303.259 253.425 302.933 255.042Z" fill="#263238"/>
<path d="M302.933 264.835C302.596 263.222 302.596 261.557 302.933 259.943C303.171 260.734 303.254 261.563 303.177 262.385C303.254 263.21 303.171 264.042 302.933 264.835Z" fill="#263238"/>
<path d="M302.933 274.68C302.596 273.064 302.596 271.395 302.933 269.779C303.259 271.397 303.259 273.063 302.933 274.68Z" fill="#263238"/>
<path d="M302.933 284.429C302.596 282.813 302.596 281.144 302.933 279.528C303.259 281.146 303.259 282.812 302.933 284.429Z" fill="#263238"/>
<path d="M281.229 158.146C281.229 158.146 281.229 157.963 281.229 157.632C281.229 157.3 281.229 156.76 281.229 156.184C281.229 154.902 281.229 153.054 281.185 150.69C281.185 145.938 281.124 139.119 281.089 130.791L281.264 130.966L236.844 131.018C236.792 131.062 237.271 130.591 237.062 130.791V144.935C237.062 149.513 237.062 153.926 237.062 158.129L236.844 157.919L268.777 158.024L277.959 158.085H280.409H281.046C281.121 158.078 281.197 158.078 281.272 158.085H280.461H278.046L268.916 158.146L236.844 158.251H236.635V158.033C236.635 153.83 236.635 149.417 236.635 144.839V137.863C236.635 136.686 236.635 135.491 236.635 134.297V130.8C236.434 131.001 236.914 130.521 236.87 130.573L281.29 130.617H281.473V130.8C281.429 139.18 281.394 146.025 281.377 150.812C281.377 153.158 281.377 154.989 281.333 156.262C281.333 156.873 281.333 157.344 281.333 157.684C281.333 158.024 281.229 158.146 281.229 158.146Z" fill="#FF993C"/>
<path d="M259.289 142.197L262.934 144.159L259.438 146.461L255.932 148.764L255.793 144.499L255.645 140.235L259.289 142.197Z" fill="#FF993C"/>
<path d="M278.02 155.408C278.02 155.538 269.51 155.634 259.019 155.634C248.529 155.634 240.01 155.538 240.01 155.408C240.01 155.277 248.52 155.216 258.984 155.216C269.448 155.216 278.02 155.286 278.02 155.408Z" fill="#FF993C"/>
<path d="M240.193 155.888C240.457 155.888 240.672 155.673 240.672 155.408C240.672 155.143 240.457 154.929 240.193 154.929C239.928 154.929 239.713 155.143 239.713 155.408C239.713 155.673 239.928 155.888 240.193 155.888Z" fill="#FF993C"/>
<path d="M339.077 133.991H291.213V136.398H339.077V133.991Z" fill="#FF993C"/>
<path d="M355.715 144.325C355.715 144.456 341.345 144.569 323.617 144.569C305.889 144.569 291.51 144.456 291.51 144.325C291.51 144.194 305.88 144.072 323.617 144.072C341.353 144.072 355.715 144.186 355.715 144.325Z" fill="#263238"/>
<path d="M355.715 151.03C355.715 151.17 341.345 151.283 323.617 151.283C305.889 151.283 291.51 151.17 291.51 151.03C291.51 150.891 305.88 150.786 323.617 150.786C341.353 150.786 355.715 150.899 355.715 151.03Z" fill="#263238"/>
<path d="M281.229 198.319C281.229 198.319 281.229 198.145 281.229 197.813C281.229 197.482 281.229 196.985 281.229 196.366C281.229 195.084 281.229 193.235 281.185 190.872C281.185 186.12 281.124 179.301 281.089 170.973L281.264 171.148L236.844 171.2C236.792 171.2 237.271 170.764 237.062 170.973V185.126C237.062 189.704 237.062 194.116 237.062 198.319L236.844 198.11L268.777 198.214L277.959 198.276H280.409H281.046H281.272C281.272 198.276 281.211 198.276 281.072 198.276H280.461H278.046L268.916 198.337L236.844 198.432H236.635V198.214C236.635 194.011 236.635 189.599 236.635 185.021V178.045C236.635 176.859 236.635 175.673 236.635 174.479V170.886C236.434 171.087 236.914 170.607 236.87 170.659L281.29 170.703H281.473V170.886C281.429 179.266 281.394 186.111 281.377 190.89C281.377 193.235 281.377 195.075 281.333 196.348C281.333 196.959 281.333 197.421 281.333 197.761C281.31 197.949 281.275 198.135 281.229 198.319Z" fill="#46B2C8"/>
<path d="M259.289 182.37L262.934 184.332L259.438 186.643L255.932 188.945L255.793 184.681L255.645 180.408L259.289 182.37Z" fill="#46B2C8"/>
<path d="M278.02 195.59C278.02 195.712 269.51 195.816 259.019 195.816C248.529 195.816 240.01 195.712 240.01 195.59C240.01 195.468 248.52 195.328 258.984 195.328C269.448 195.328 278.02 195.468 278.02 195.59Z" fill="#46B2C8"/>
<path d="M240.193 196.07C240.457 196.07 240.672 195.855 240.672 195.59C240.672 195.325 240.457 195.11 240.193 195.11C239.928 195.11 239.713 195.325 239.713 195.59C239.713 195.855 239.928 196.07 240.193 196.07Z" fill="#46B2C8"/>
<path d="M339.077 174.174H291.213V176.581H339.077V174.174Z" fill="#46B2C8"/>
<path d="M355.715 184.498C355.715 184.638 341.345 184.751 323.617 184.751C305.889 184.751 291.51 184.638 291.51 184.498C291.51 184.359 305.88 184.254 323.617 184.254C341.353 184.254 355.715 184.367 355.715 184.498Z" fill="#263238"/>
<path d="M355.715 191.212C355.715 191.351 341.345 191.465 323.617 191.465C305.889 191.465 291.51 191.351 291.51 191.212C291.51 191.072 305.88 190.968 323.617 190.968C341.353 190.968 355.715 191.081 355.715 191.212Z" fill="#263238"/>
<path d="M213.439 207.955C214.144 207.734 214.885 207.656 215.619 207.728L215.393 207.955V207.536V207.126C215.393 206.865 215.393 206.629 215.436 206.429C215.436 206.036 215.532 205.792 215.602 205.792C215.672 205.792 215.715 206.036 215.759 206.429C215.759 206.629 215.759 206.865 215.811 207.126V207.998L215.585 208.225C214.859 208.282 214.129 208.19 213.439 207.955Z" fill="#E0E0E0"/>
<path d="M204.737 207.954C206.175 207.651 207.66 207.651 209.097 207.954C207.66 208.258 206.175 208.258 204.737 207.954Z" fill="#E0E0E0"/>
<path d="M196.043 207.954C197.481 207.649 198.966 207.649 200.403 207.954C198.966 208.259 197.481 208.259 196.043 207.954Z" fill="#E0E0E0"/>
<path d="M187.341 207.954C188.778 207.651 190.263 207.651 191.701 207.954C190.263 208.258 188.778 208.258 187.341 207.954Z" fill="#E0E0E0"/>
<path d="M178.647 207.955C179.348 207.733 180.087 207.656 180.818 207.728C181.553 207.657 182.294 207.734 182.998 207.955C182.295 208.181 181.553 208.258 180.818 208.182C180.087 208.26 179.347 208.182 178.647 207.955Z" fill="#E0E0E0"/>
<path d="M169.944 207.954C171.382 207.651 172.867 207.651 174.304 207.954C172.867 208.258 171.382 208.258 169.944 207.954Z" fill="#E0E0E0"/>
<path d="M161.25 207.954C162.688 207.651 164.173 207.651 165.61 207.954C164.173 208.258 162.688 208.258 161.25 207.954Z" fill="#E0E0E0"/>
<path d="M152.548 207.955C153.252 207.734 153.993 207.657 154.728 207.728C155.459 207.656 156.198 207.733 156.899 207.955C156.199 208.182 155.46 208.26 154.728 208.182C153.993 208.258 153.251 208.181 152.548 207.955Z" fill="#E0E0E0"/>
<path d="M143.88 207.954C145.318 207.651 146.803 207.651 148.24 207.954C146.803 208.258 145.318 208.258 143.88 207.954Z" fill="#E0E0E0"/>
<path d="M135.16 207.954C136.598 207.649 138.083 207.649 139.52 207.954C138.083 208.259 136.598 208.259 135.16 207.954Z" fill="#E0E0E0"/>
<path d="M126.44 207.954C127.878 207.651 129.363 207.651 130.8 207.954C129.363 208.258 127.878 208.258 126.44 207.954Z" fill="#E0E0E0"/>
<path d="M117.764 207.954C119.201 207.649 120.686 207.649 122.124 207.954C120.686 208.259 119.201 208.259 117.764 207.954Z" fill="#E0E0E0"/>
<path d="M109.062 207.954C110.499 207.651 111.984 207.651 113.422 207.954C111.984 208.258 110.499 208.258 109.062 207.954Z" fill="#E0E0E0"/>
<path d="M100.368 207.955C101.069 207.733 101.807 207.656 102.539 207.728C103.271 207.656 104.009 207.733 104.71 207.955C104.01 208.182 103.271 208.26 102.539 208.182C101.807 208.26 101.067 208.182 100.368 207.955Z" fill="#E0E0E0"/>
<path d="M91.665 207.955C92.3691 207.734 93.1105 207.657 93.845 207.728C94.5767 207.657 95.3151 207.734 96.0163 207.955C95.3161 208.18 94.5767 208.257 93.845 208.181C93.1105 208.258 92.3681 208.181 91.665 207.955Z" fill="#E0E0E0"/>
<path d="M82.9712 207.955C83.6722 207.733 84.4108 207.656 85.1425 207.728C85.877 207.657 86.6184 207.734 87.3225 207.955C86.6194 208.181 85.877 208.258 85.1425 208.182C84.4108 208.26 83.671 208.182 82.9712 207.955Z" fill="#E0E0E0"/>
<path d="M76.4397 205.792C76.6607 206.496 76.7378 207.237 76.6664 207.972L76.4397 207.745H77.3117C77.5733 207.745 77.8087 207.745 78.0093 207.798C78.4017 207.798 78.6458 207.894 78.6458 207.955C78.6458 208.016 78.4017 208.077 78.0093 208.12L77.3117 208.164H76.9018H76.4658L76.2391 207.937C76.1639 207.216 76.2321 206.487 76.4397 205.792Z" fill="#E0E0E0"/>
<path d="M76.4396 197.212C76.7419 198.623 76.7419 200.082 76.4396 201.493C76.1373 200.082 76.1373 198.623 76.4396 197.212Z" fill="#E0E0E0"/>
<path d="M76.4396 188.657C76.7419 190.068 76.7419 191.528 76.4396 192.939C76.1373 191.528 76.1373 190.068 76.4396 188.657Z" fill="#E0E0E0"/>
<path d="M76.4396 180.095C76.7419 181.506 76.7419 182.965 76.4396 184.376C76.1373 182.965 76.1373 181.506 76.4396 180.095Z" fill="#E0E0E0"/>
<path d="M76.4396 171.531C76.7419 172.942 76.7419 174.402 76.4396 175.813C76.1373 174.402 76.1373 172.942 76.4396 171.531Z" fill="#E0E0E0"/>
<path d="M76.4396 162.968C76.7419 164.379 76.7419 165.838 76.4396 167.249C76.1373 165.838 76.1373 164.379 76.4396 162.968Z" fill="#E0E0E0"/>
<path d="M76.4397 154.414C76.7421 155.822 76.7421 157.279 76.4397 158.687C76.1373 157.279 76.1373 155.822 76.4397 154.414Z" fill="#E0E0E0"/>
<path d="M76.4396 145.851C76.7419 147.262 76.7419 148.721 76.4396 150.132C76.1373 148.721 76.1373 147.262 76.4396 145.851Z" fill="#E0E0E0"/>
<path d="M76.4396 137.288C76.7419 138.699 76.7419 140.158 76.4396 141.57C76.1373 140.158 76.1373 138.699 76.4396 137.288Z" fill="#E0E0E0"/>
<path d="M76.4396 128.725C76.7419 130.136 76.7419 131.595 76.4396 133.006C76.1373 131.595 76.1373 130.136 76.4396 128.725Z" fill="#E0E0E0"/>
<path d="M78.6199 122.263C77.918 122.495 77.175 122.575 76.4399 122.498C76.8933 122.036 76.562 122.368 76.6666 122.272V122.699C76.6666 122.83 76.6666 122.961 76.6666 123.109C76.6666 123.257 76.6666 123.606 76.6143 123.798C76.6143 124.19 76.5184 124.434 76.4573 124.434C76.3963 124.434 76.3352 124.19 76.3004 123.798C76.3004 123.606 76.3004 123.37 76.248 123.109V122.237C76.3527 122.132 76.0213 122.455 76.4747 122.001C77.2001 121.946 77.9292 122.035 78.6199 122.263Z" fill="#E0E0E0"/>
<path d="M87.3225 122.264C86.6206 122.495 85.8776 122.575 85.1425 122.499C84.4102 122.576 83.67 122.495 82.9712 122.264C83.6722 122.042 84.4108 121.965 85.1425 122.037C85.877 121.965 86.6184 122.043 87.3225 122.264Z" fill="#E0E0E0"/>
<path d="M96.0163 122.263C95.3172 122.494 94.5773 122.574 93.845 122.499C93.1099 122.575 92.3669 122.495 91.665 122.263C92.3691 122.042 93.1105 121.965 93.845 122.037C94.5767 121.966 95.3151 122.043 96.0163 122.263Z" fill="#E0E0E0"/>
<path d="M104.71 122.264C104.011 122.495 103.271 122.576 102.539 122.499C101.807 122.576 101.066 122.495 100.368 122.264C101.069 122.042 101.807 121.965 102.539 122.037C103.271 121.965 104.009 122.042 104.71 122.264Z" fill="#E0E0E0"/>
<path d="M113.413 122.263C111.976 122.578 110.489 122.578 109.053 122.263C110.49 121.959 111.975 121.959 113.413 122.263Z" fill="#E0E0E0"/>
<path d="M122.08 122.263C120.644 122.579 119.156 122.579 117.72 122.263C119.158 121.958 120.643 121.958 122.08 122.263Z" fill="#E0E0E0"/>
<path d="M130.8 122.263C129.364 122.578 127.877 122.578 126.44 122.263C127.878 121.959 129.363 121.959 130.8 122.263Z" fill="#E0E0E0"/>
<path d="M139.52 122.263C138.084 122.579 136.596 122.579 135.16 122.263C136.598 121.958 138.083 121.958 139.52 122.263Z" fill="#E0E0E0"/>
<path d="M148.24 122.263C146.804 122.578 145.317 122.578 143.88 122.263C145.318 121.959 146.803 121.959 148.24 122.263Z" fill="#E0E0E0"/>
<path d="M156.899 122.264C156.2 122.495 155.46 122.576 154.728 122.499C153.993 122.575 153.25 122.495 152.548 122.264C153.252 122.043 153.993 121.965 154.728 122.037C155.459 121.965 156.198 122.042 156.899 122.264Z" fill="#E0E0E0"/>
<path d="M165.602 122.263C164.165 122.578 162.678 122.578 161.242 122.263C162.679 121.959 164.164 121.959 165.602 122.263Z" fill="#E0E0E0"/>
<path d="M174.296 122.263C172.859 122.578 171.372 122.578 169.936 122.263C171.373 121.959 172.858 121.959 174.296 122.263Z" fill="#E0E0E0"/>
<path d="M182.998 122.264C182.296 122.495 181.553 122.575 180.818 122.499C180.086 122.576 179.346 122.495 178.647 122.264C179.348 122.042 180.087 121.965 180.818 122.037C181.553 121.965 182.294 122.043 182.998 122.264Z" fill="#E0E0E0"/>
<path d="M191.692 122.263C190.256 122.578 188.768 122.578 187.332 122.263C188.77 121.959 190.255 121.959 191.692 122.263Z" fill="#E0E0E0"/>
<path d="M200.386 122.263C198.95 122.579 197.462 122.579 196.026 122.263C197.463 121.958 198.949 121.958 200.386 122.263Z" fill="#E0E0E0"/>
<path d="M209.089 122.263C207.652 122.578 206.165 122.578 204.729 122.263C206.166 121.959 207.651 121.959 209.089 122.263Z" fill="#E0E0E0"/>
<path d="M215.619 124.443C215.393 123.74 215.315 122.998 215.393 122.263C215.846 122.716 215.515 122.394 215.619 122.498H215.175H214.765H214.076C213.684 122.455 213.439 122.403 213.439 122.333C213.439 122.263 213.684 122.219 214.076 122.176L214.765 122.124H215.637C215.733 122.228 215.41 121.897 215.864 122.35C215.919 123.057 215.836 123.768 215.619 124.443Z" fill="#E0E0E0"/>
<path d="M215.62 133.006C215.317 131.595 215.317 130.136 215.62 128.725C215.922 130.136 215.922 131.595 215.62 133.006Z" fill="#E0E0E0"/>
<path d="M215.62 141.57C215.317 140.158 215.317 138.699 215.62 137.288C215.922 138.699 215.922 140.158 215.62 141.57Z" fill="#E0E0E0"/>
<path d="M215.62 150.132C215.317 148.721 215.317 147.262 215.62 145.851C215.922 147.262 215.922 148.721 215.62 150.132Z" fill="#E0E0E0"/>
<path d="M215.62 158.704C215.317 157.296 215.317 155.84 215.62 154.432C215.922 155.84 215.922 157.296 215.62 158.704Z" fill="#E0E0E0"/>
<path d="M215.62 167.249C215.317 165.838 215.317 164.379 215.62 162.968C215.922 164.379 215.922 165.838 215.62 167.249Z" fill="#E0E0E0"/>
<path d="M215.62 175.813C215.317 174.402 215.317 172.942 215.62 171.531C215.922 172.942 215.922 174.402 215.62 175.813Z" fill="#E0E0E0"/>
<path d="M215.62 184.376C215.317 182.965 215.317 181.506 215.62 180.095C215.922 181.506 215.922 182.965 215.62 184.376Z" fill="#E0E0E0"/>
<path d="M215.62 192.939C215.394 192.248 215.317 191.517 215.393 190.794C215.316 190.073 215.393 189.345 215.62 188.657C215.842 189.346 215.92 190.073 215.847 190.794C215.918 191.517 215.841 192.247 215.62 192.939Z" fill="#E0E0E0"/>
<path d="M215.62 201.493C215.317 200.082 215.317 198.623 215.62 197.212C215.922 198.623 215.922 200.082 215.62 201.493Z" fill="#E0E0E0"/>
<path d="M205.574 207.283L70.3183 214.704C69.8275 214.73 69.3462 214.562 68.9788 214.235C68.6115 213.909 68.3878 213.45 68.3563 212.96L63.8742 131.114C63.8456 130.623 64.0133 130.14 64.3403 129.772C64.6673 129.404 65.1269 129.181 65.6182 129.152L200.865 121.731C201.356 121.705 201.838 121.873 202.205 122.2C202.572 122.526 202.796 122.985 202.827 123.475L207.318 205.312C207.334 205.556 207.301 205.801 207.221 206.032C207.142 206.264 207.018 206.477 206.855 206.66C206.693 206.843 206.497 206.992 206.277 207.099C206.057 207.206 205.818 207.269 205.574 207.283Z" fill="#46B2C8"/>
<path d="M136.582 159.524L148.319 165.035L137.768 172.848L127.208 180.661L126.022 167.337L124.836 154.013L136.582 159.524Z" fill="white"/>
<path d="M196.924 199.191C196.924 199.313 170.319 200.874 137.489 202.679C104.658 204.484 78.0356 205.836 78.0269 205.714C78.0181 205.592 104.632 204.022 137.471 202.226C170.311 200.43 196.915 199.06 196.924 199.191Z" fill="white"/>
<path d="M80.1022 205.6C80.1173 205.896 80.0443 206.19 79.8925 206.445C79.7406 206.699 79.5167 206.903 79.249 207.031C78.9813 207.158 78.6819 207.203 78.3885 207.161C78.0951 207.118 77.821 206.99 77.6007 206.791C77.3804 206.593 77.2238 206.333 77.1507 206.046C77.0777 205.759 77.0914 205.456 77.1902 205.177C77.289 204.897 77.4684 204.653 77.7058 204.476C77.9432 204.298 78.2279 204.195 78.5239 204.179C78.7209 204.168 78.9181 204.197 79.1041 204.262C79.2902 204.328 79.4614 204.43 79.608 204.562C79.7546 204.694 79.8738 204.854 79.9586 205.032C80.0434 205.21 80.0922 205.403 80.1022 205.6Z" fill="white"/>
<g opacity="0.3">
<path d="M193.654 122.246C191.491 126.397 189.294 131.132 190.759 135.57C191.448 137.602 192.843 139.311 193.898 141.177C197.142 146.906 197.029 153.856 196.837 160.431C196.776 162.297 196.619 164.39 195.215 165.611C194.055 166.605 192.407 166.718 190.855 166.77L172.456 167.477V199.872L206.586 192.32L204.99 143.88L204.118 135.71L200.673 121.758L193.654 122.246Z" fill="black"/>
</g>
<path d="M164.398 384.186L165.567 411.515L180.321 411.184L179.214 383.803L164.398 384.186Z" fill="#46B2C8"/>
<path d="M172.813 410.32C172.935 410.32 172.7 404.329 172.299 396.952C171.898 389.575 171.427 383.602 171.34 383.61C171.252 383.619 171.444 389.601 171.854 396.978C172.264 404.355 172.656 410.328 172.813 410.32Z" fill="#263238"/>
<path d="M165.479 409.631L180.242 409.256L180.321 411.183L165.567 411.514L165.479 409.631Z" fill="#E0E0E0"/>
<path d="M179.964 402.437C179.964 402.437 179.85 402.201 179.563 401.852C178.516 400.628 177.204 399.659 175.726 399.018C174.628 398.54 173.434 398.325 172.238 398.391C171.158 398.435 170.1 398.704 169.13 399.179C168.16 399.655 167.3 400.328 166.605 401.155C166.192 401.652 165.854 402.208 165.602 402.803C165.49 403.015 165.419 403.245 165.393 403.483C165.818 402.736 166.302 402.025 166.84 401.355C168.245 399.832 170.194 398.927 172.264 398.835C174.333 398.801 176.35 399.482 177.976 400.762C179.266 401.704 179.911 402.489 179.964 402.437Z" fill="#263238"/>
<g opacity="0.3">
<path d="M179.528 391.598L179.65 394.606L164.86 394.868L164.756 392.6L179.528 391.598Z" fill="black"/>
</g>
<path d="M128.708 384.901L129.449 401.992C129.449 401.992 112.314 408.489 112.14 411.663L145.345 411.418L145.284 384.727L128.708 384.901Z" fill="#46B2C8"/>
<path d="M139.52 400.545C139.841 400.642 140.115 400.854 140.291 401.14C140.466 401.427 140.53 401.767 140.471 402.097C140.388 402.422 140.183 402.703 139.899 402.882C139.615 403.06 139.273 403.123 138.945 403.057C138.602 402.957 138.309 402.732 138.123 402.427C137.938 402.122 137.873 401.759 137.942 401.408C138.062 401.077 138.307 400.806 138.625 400.653C138.943 400.499 139.308 400.477 139.642 400.589" fill="#E0E0E0"/>
<path d="M145.345 411.418V408.741L113.212 409.962C113.212 409.962 111.73 410.616 111.904 411.662L145.345 411.418Z" fill="#E0E0E0"/>
<path d="M129.143 402.105C129.143 402.271 130.015 402.341 130.774 402.855C131.533 403.37 132.012 404.059 132.169 403.997C132.326 403.936 132.065 402.986 131.079 402.376C130.094 401.765 129.109 401.992 129.143 402.105Z" fill="#263238"/>
<path d="M125.646 403.58C125.646 403.745 126.318 404.016 126.876 404.705C127.434 405.393 127.608 406.117 127.748 406.108C127.888 406.1 128.01 405.175 127.295 404.364C126.58 403.554 125.646 403.431 125.646 403.58Z" fill="#263238"/>
<path d="M123.685 407.8C123.833 407.8 124.06 407.015 123.633 406.117C123.205 405.219 122.438 404.879 122.368 405.018C122.298 405.158 122.778 405.629 123.118 406.361C123.458 407.094 123.528 407.783 123.685 407.8Z" fill="#263238"/>
<path d="M129.414 398.164C129.484 398.313 130.225 398.077 131.158 398.164C132.091 398.252 132.806 398.505 132.902 398.365C132.998 398.226 132.291 397.65 131.201 397.598C130.111 397.545 129.327 398.034 129.414 398.164Z" fill="#263238"/>
<path d="M128.786 394.484C129.333 394.64 129.913 394.64 130.46 394.484C131.063 394.376 131.649 394.191 132.204 393.935C132.535 393.786 132.856 393.614 133.164 393.421C133.348 393.313 133.516 393.177 133.661 393.019C133.77 392.904 133.836 392.754 133.849 392.596C133.862 392.437 133.82 392.279 133.73 392.147C133.65 392.032 133.543 391.937 133.419 391.872C133.294 391.807 133.156 391.773 133.015 391.772C132.803 391.778 132.592 391.81 132.387 391.868C132.031 391.957 131.683 392.08 131.35 392.235C130.786 392.493 130.265 392.837 129.806 393.255C129.039 393.979 128.777 394.598 128.838 394.624C128.899 394.65 129.283 394.162 130.068 393.569C130.522 393.211 131.024 392.917 131.559 392.697C131.879 392.571 132.208 392.472 132.544 392.4C132.893 392.304 133.198 392.296 133.286 392.453C133.373 392.61 133.286 392.54 133.286 392.644C133.18 392.759 133.056 392.856 132.919 392.932C132.639 393.121 132.348 393.293 132.047 393.447C131.53 393.707 130.99 393.92 130.434 394.083C129.876 394.176 129.325 394.31 128.786 394.484Z" fill="#263238"/>
<path d="M129.004 394.719C129.31 394.236 129.46 393.669 129.431 393.097C129.457 392.477 129.375 391.858 129.187 391.266C129.079 390.911 128.933 390.569 128.751 390.246C128.665 390.019 128.52 389.819 128.332 389.666C128.144 389.513 127.918 389.412 127.679 389.374C127.53 389.379 127.386 389.426 127.262 389.509C127.139 389.593 127.041 389.709 126.981 389.845C126.902 390.044 126.846 390.252 126.815 390.464C126.763 390.837 126.763 391.216 126.815 391.589C126.91 392.222 127.162 392.822 127.548 393.333C128.202 394.205 128.891 394.388 128.899 394.327C128.908 394.266 128.385 393.935 127.879 393.106C127.572 392.63 127.378 392.09 127.312 391.528C127.269 391.207 127.269 390.881 127.312 390.56C127.365 390.202 127.495 389.915 127.626 389.95C127.757 389.984 128.08 390.211 128.219 390.499C128.387 390.775 128.527 391.067 128.638 391.371C128.832 391.907 128.946 392.468 128.978 393.036C129.056 394.083 128.917 394.693 129.004 394.719Z" fill="#263238"/>
<g opacity="0.3">
<path d="M145.354 394.981L145.319 398.775H129.309V396.691L145.354 394.981Z" fill="black"/>
</g>
<path d="M195.067 124.906C194.692 124.906 193.724 128.69 193.244 130.591C193.072 131.287 193.172 132.023 193.523 132.649L197.369 139.459C198.088 140.718 199.13 141.762 200.386 142.485L202.313 143.575L202.566 147.621L213.387 147.796L210.091 135.16L208.714 127.46C208.53 127.083 208.258 126.755 207.921 126.505C207.584 126.254 207.192 126.089 206.778 126.022L205.757 125.873L205.374 124.897C205.263 124.62 205.083 124.375 204.851 124.187C204.619 124 204.343 123.875 204.048 123.824L203.412 123.746L202.54 121.557C202.398 121.21 202.156 120.912 201.846 120.701C201.536 120.491 201.171 120.376 200.796 120.371L195.564 120.441C195.564 120.441 194.413 121.993 197.055 122.726C197.786 122.933 198.545 123.027 199.305 123.005L200.525 127.722C200.525 127.722 201.397 132.675 199.069 132.675C197.029 132.675 196.837 130.007 196.837 130.007C196.837 130.007 197.735 124.609 195.067 124.906Z" fill="#FFBE9D"/>
<path d="M205.792 129.631C205.747 129.299 205.68 128.97 205.592 128.646C205.316 127.878 204.799 127.22 204.118 126.771C203.756 126.024 203.483 125.237 203.307 124.426C203.209 124.095 203.17 123.749 203.194 123.405C203.194 123.405 203.263 123.789 203.429 124.391C203.645 125.167 203.922 125.925 204.257 126.658L204.789 127.094C204.951 127.248 205.097 127.417 205.225 127.6C205.446 127.906 205.611 128.248 205.714 128.611C205.783 128.852 205.818 129.102 205.818 129.352C205.826 129.446 205.818 129.541 205.792 129.631Z" fill="#EB996E"/>
<path d="M207.458 128.716C207.434 128.545 207.381 128.38 207.301 128.228C207.199 128.045 207.055 127.89 206.88 127.776C206.706 127.662 206.506 127.593 206.298 127.574H206.237V127.521L206.176 127.356C205.917 126.719 205.71 126.063 205.557 125.394C205.879 125.999 206.144 126.632 206.35 127.286L206.411 127.46L206.333 127.399C206.569 127.421 206.795 127.506 206.988 127.643C207.181 127.781 207.334 127.968 207.431 128.184C207.536 128.498 207.484 128.733 207.458 128.716Z" fill="#EB996E"/>
<path d="M199.191 123.022C199.148 123.022 198.947 122.787 198.999 122.42C199.052 122.054 199.226 121.827 199.27 121.854C199.313 121.88 199.217 122.124 199.182 122.438C199.148 122.752 199.235 122.996 199.191 123.022Z" fill="#EB996E"/>
<path d="M143.758 172.08L163.378 171.836L161.189 155.12C161.189 155.12 162.532 154.832 162.619 147.568C162.707 140.305 163.047 127.94 163.047 127.94C158.913 126.165 154.38 125.525 149.917 126.086C145.453 126.647 141.22 128.389 137.654 131.131L136.582 132.003L143.758 172.08Z" fill="#FFBE9D"/>
<path d="M138.857 140.907C138.735 140.854 133.861 139.424 134.018 144.395C134.175 149.365 139.137 148.179 139.137 148.04C139.137 147.9 138.857 140.907 138.857 140.907Z" fill="#FFBE9D"/>
<path d="M162.192 139.869C162.314 139.817 166.744 138.623 166.552 143.593C166.36 148.563 161.434 147.377 161.434 147.229C161.434 147.081 162.192 139.869 162.192 139.869Z" fill="#FFBE9D"/>
<path d="M167.782 125.507C167.831 125.056 167.766 124.6 167.593 124.181C167.419 123.761 167.142 123.393 166.788 123.109C166.422 122.84 165.973 122.711 165.52 122.744C165.067 122.778 164.642 122.972 164.32 123.292C164.388 122.989 164.392 122.674 164.33 122.369C164.269 122.063 164.144 121.774 163.964 121.52C163.784 121.266 163.553 121.053 163.285 120.894C163.018 120.735 162.719 120.634 162.41 120.598C161.224 120.528 160.213 121.418 159.071 121.731C157.927 121.977 156.735 121.839 155.678 121.339C154.597 120.912 153.594 120.31 152.504 119.918C150.203 119.073 147.661 119.173 145.432 120.196C143.204 121.219 141.471 123.081 140.61 125.376C139.801 125.18 138.952 125.234 138.174 125.529C137.395 125.825 136.725 126.349 136.25 127.033C135.326 128.44 134.956 130.139 135.213 131.803C135.385 132.918 135.678 134.012 136.085 135.064C136.085 135.16 136.085 135.247 136.085 135.343C136.154 139.337 138.238 151.972 139.948 151.999C142.921 152.042 140.584 138.509 140.584 138.509C144.229 137.096 142.869 131.629 143.784 130.8C144.7 129.972 146.601 128.045 154.248 131.951C157.091 133.22 160.261 133.562 163.308 132.928H163.5H163.544C163.544 132.928 163.587 132.928 163.614 132.928C164.306 132.741 164.965 132.447 165.567 132.056C166.282 131.648 166.847 131.021 167.18 130.268C167.34 129.889 167.385 129.472 167.311 129.068C167.236 128.664 167.045 128.29 166.762 127.992C167.336 127.281 167.691 126.417 167.782 125.507Z" fill="#263238"/>
<path d="M137.244 140.393C137.985 144.561 137.837 146.75 138.526 149.531C139.616 153.891 141.805 157.309 145.764 159.507C149.722 161.704 155.094 161.661 158.504 158.635C160.867 156.56 162.541 154.214 162.864 151.083C163.186 147.953 163.57 142.424 163.596 139.277C163.596 133.6 164.015 128.176 164.015 128.176L147.795 125.237L138.57 130.722L137.244 140.393Z" fill="#263238"/>
<path d="M153.969 161.974C153.062 162.314 152.078 162.399 151.126 162.218C150.156 162.186 149.214 161.884 148.406 161.346C148.458 161.224 149.653 161.599 151.179 161.765C152.705 161.931 153.952 161.835 153.969 161.974Z" fill="#263238"/>
<path d="M158.181 124.504C157.935 124.593 157.676 124.641 157.414 124.644C156.693 124.65 155.981 124.482 155.338 124.155C154.406 123.669 153.529 123.085 152.722 122.411C151.741 121.59 150.558 121.045 149.295 120.833C148.029 120.661 146.74 120.886 145.607 121.478C144.686 121.974 143.911 122.702 143.357 123.589C142.852 124.41 142.522 125.328 142.389 126.283C142.391 126.023 142.418 125.763 142.468 125.507C142.611 124.805 142.873 124.132 143.244 123.519C143.8 122.601 144.588 121.846 145.528 121.33C146.69 120.712 148.018 120.476 149.322 120.659C150.612 120.867 151.819 121.428 152.81 122.281C153.623 122.945 154.499 123.529 155.426 124.025C156.048 124.353 156.737 124.535 157.44 124.556C157.911 124.574 158.181 124.478 158.181 124.504Z" fill="#455A64"/>
<path d="M142.607 126.545C142.235 126.364 141.847 126.218 141.447 126.109C140.468 125.89 139.442 126.052 138.578 126.563C137.736 127.104 137.136 127.951 136.904 128.926C136.823 129.334 136.779 129.748 136.773 130.164C136.738 130.057 136.721 129.945 136.721 129.833C136.694 129.52 136.715 129.206 136.782 128.9C136.876 128.388 137.077 127.903 137.37 127.473C137.663 127.044 138.042 126.68 138.484 126.406C138.925 126.132 139.42 125.953 139.934 125.881C140.449 125.809 140.973 125.845 141.473 125.987C141.779 126.066 142.072 126.187 142.345 126.345C142.444 126.396 142.532 126.464 142.607 126.545Z" fill="#455A64"/>
<path d="M142.136 144.273C141.099 142.661 140.322 140.895 139.834 139.041C140.872 140.653 141.648 142.419 142.136 144.273Z" fill="#455A64"/>
<path d="M146.383 147.124C145.418 146.591 144.621 145.8 144.081 144.839C143.418 143.958 143.011 142.911 142.904 141.813C143.035 141.813 143.505 143.13 144.465 144.586C145.424 146.043 146.496 147.028 146.383 147.124Z" fill="#455A64"/>
<path d="M150.568 148.048C149.831 147.823 149.164 147.412 148.633 146.853C147.673 145.981 147.089 145.17 147.185 145.109C147.281 145.048 148.005 145.72 148.929 146.522C149.853 147.324 150.638 147.935 150.568 148.048Z" fill="#455A64"/>
<path d="M157.972 141.308C158.084 142.158 157.932 143.023 157.536 143.784C157.275 144.602 156.773 145.322 156.097 145.851C156.392 145.084 156.733 144.336 157.117 143.61C157.361 142.828 157.646 142.059 157.972 141.308Z" fill="#455A64"/>
<path d="M160.448 137.384C160.642 138.405 160.542 139.46 160.161 140.427C159.939 141.437 159.434 142.363 158.704 143.095C158.6 143.017 159.297 141.866 159.786 140.296C160.274 138.727 160.352 137.384 160.448 137.384Z" fill="#455A64"/>
<path d="M162.41 127.312C162.221 127.509 162.004 127.677 161.765 127.809C161.112 128.188 160.382 128.415 159.629 128.472C158.512 128.549 157.392 128.376 156.35 127.966C155.095 127.457 153.883 126.85 152.722 126.152C151.566 125.467 150.326 124.934 149.034 124.565C147.975 124.274 146.857 124.274 145.799 124.565C145.089 124.765 144.439 125.136 143.907 125.646C143.54 126.021 143.401 126.283 143.383 126.266C143.505 126.022 143.664 125.798 143.854 125.603C144.377 125.055 145.036 124.655 145.764 124.443C146.839 124.119 147.982 124.098 149.069 124.382C150.382 124.743 151.64 125.279 152.81 125.978C153.964 126.67 155.168 127.277 156.411 127.792C157.428 128.205 158.524 128.387 159.62 128.324C160.631 128.276 161.604 127.924 162.41 127.312Z" fill="#455A64"/>
<path d="M163.849 129.693C163.77 129.762 163.682 129.821 163.587 129.867C163.337 130.011 163.078 130.139 162.811 130.251C161.046 130.996 159.092 131.173 157.222 130.756C156.927 130.699 156.636 130.623 156.35 130.53C156.158 130.46 156.053 130.416 156.062 130.399C156.071 130.382 156.498 130.504 157.204 130.634C158.128 130.798 159.069 130.839 160.003 130.756C160.934 130.665 161.848 130.454 162.724 130.129C163.439 129.876 163.84 129.666 163.849 129.693Z" fill="#455A64"/>
<path d="M154.815 279.93L159.585 325.937L163.012 395.226H181.298L181.795 247.762L129.44 251.494L118.592 328.866L127.992 396.586H148.057L143.357 332.189L154.815 279.93Z" fill="#263238"/>
<path d="M154.815 279.912C153.74 281.182 152.549 282.35 151.257 283.4C150.068 284.572 148.775 285.635 147.395 286.574C148.474 285.308 149.665 284.141 150.952 283.086C152.14 281.912 153.433 280.85 154.815 279.912Z" fill="#455A64"/>
<path d="M154.763 279.04C154.685 277.072 154.717 275.101 154.859 273.137C154.859 271.167 154.973 269.199 155.199 267.242C155.432 269.204 155.47 271.185 155.312 273.154C155.318 275.129 155.134 277.1 154.763 279.04Z" fill="#455A64"/>
<path d="M160.806 261.836C160.904 261.825 161.004 261.825 161.102 261.836L161.974 261.784L165.462 261.618L177.862 261.095H178.071V261.313C178.071 265.176 178.071 269.553 178.071 274.183V274.585L177.923 274.637L169.866 277.872H169.787H169.709L162.585 275.396H162.471V275.282C161.948 271.262 161.521 267.914 161.207 265.516C161.067 264.4 160.963 263.501 160.876 262.83C160.788 262.159 160.78 261.906 160.788 261.914C160.815 262 160.835 262.087 160.849 262.176C160.849 262.377 160.919 262.612 160.971 262.9C161.076 263.58 161.224 264.487 161.399 265.62C161.756 267.984 162.271 271.271 162.846 275.212L162.724 275.055L169.866 277.48H169.718L177.775 274.227L177.635 274.436V274.192C177.635 269.562 177.635 265.184 177.635 261.321L177.845 261.522L165.584 261.827L162.096 261.888H160.806V261.836Z" fill="#455A64"/>
<path d="M134.41 262.063C134.5 262.051 134.591 262.051 134.681 262.063H135.492L138.631 261.958L149.967 261.696H150.176V261.906C150.054 265.725 149.915 270.129 149.766 274.811V274.933L149.67 274.994L148.362 275.866L141.735 280.226L141.622 280.305L141.5 280.226L133.983 275.552L133.887 275.491V275.387C134.027 271.375 134.149 268.036 134.227 265.638C134.28 264.522 134.323 263.623 134.349 262.961C134.353 262.655 134.373 262.349 134.41 262.045C134.424 262.132 134.424 262.22 134.41 262.307V263.03C134.41 263.711 134.41 264.617 134.41 265.76C134.41 268.123 134.323 271.428 134.271 275.352L134.175 275.186L141.674 279.677H141.439L148.066 275.317L149.374 274.445L149.269 274.628C149.444 269.937 149.601 265.533 149.74 261.714L149.941 261.923L138.753 261.984H134.724L134.41 262.063Z" fill="#455A64"/>
<path d="M176.144 282.904C175.318 282.958 174.489 282.931 173.668 282.825C172.142 282.712 170.04 282.503 167.721 282.206C165.401 281.91 163.317 281.57 161.817 281.29C160.995 281.186 160.186 280.999 159.402 280.732C160.227 280.742 161.049 280.821 161.861 280.968L167.782 281.753L173.703 282.503C174.526 282.568 175.343 282.702 176.144 282.904Z" fill="#455A64"/>
<path d="M175.717 334.186C175.717 334.186 175.647 334.456 175.29 334.77C174.758 335.194 174.095 335.419 173.415 335.407C172.413 335.374 171.452 335.005 170.685 334.36C169.78 333.6 168.948 332.756 168.2 331.84C166.803 330.217 165.562 328.465 164.494 326.608C164.018 325.865 163.629 325.069 163.334 324.236C163.852 324.944 164.33 325.681 164.765 326.442C165.905 328.221 167.167 329.92 168.54 331.526C169.274 332.419 170.078 333.25 170.947 334.011C171.636 334.624 172.505 334.994 173.424 335.067C174.038 335.104 174.649 334.945 175.168 334.613C175.542 334.378 175.691 334.168 175.717 334.186Z" fill="#455A64"/>
<path d="M139.607 335.808C139.607 335.808 139.607 336.043 139.363 336.392C139.04 336.885 138.607 337.297 138.099 337.595C137.337 338.038 136.468 338.264 135.587 338.249C134.513 338.212 133.469 337.88 132.57 337.29C130.988 336.191 129.731 334.684 128.934 332.93C128.556 332.251 128.263 331.527 128.062 330.776C128.507 331.414 128.904 332.085 129.248 332.782C130.102 334.414 131.334 335.82 132.841 336.88C133.676 337.43 134.641 337.749 135.64 337.805C136.45 337.834 137.254 337.657 137.977 337.29C138.617 336.915 139.173 336.41 139.607 335.808Z" fill="#455A64"/>
<path d="M140.776 328.866C140.337 329.251 139.828 329.547 139.276 329.738C137.972 330.269 136.585 330.564 135.178 330.61C133.766 330.673 132.354 330.481 131.01 330.043C130.444 329.903 129.912 329.647 129.449 329.293C131.292 329.88 133.217 330.174 135.152 330.165C137.082 330.021 138.978 329.583 140.776 328.866Z" fill="#455A64"/>
<path d="M200.281 166.483H173.624C173.624 166.483 169.997 164.399 168.253 164.739C166.968 165.147 165.829 165.92 164.974 166.962L168.506 196.331L177.139 189.948L209.28 186.608C210.658 186.594 212.018 186.301 213.28 185.748C214.541 185.195 215.678 184.393 216.623 183.391C217.648 182.301 218.422 181.001 218.891 179.58C219.359 178.159 219.511 176.653 219.335 175.168L213.388 143.575L201.18 143.985L200.691 151.999L200.281 166.483Z" fill="#455A64"/>
<path d="M126.893 173.886C124.03 175.658 121.782 178.271 120.458 181.368C118.906 185.1 108.25 203.743 102.687 213.492C101.697 215.219 101.292 217.219 101.533 219.194C101.773 221.17 102.646 223.014 104.021 224.453C107.422 228.002 113.125 228.979 118.086 227.365C120.31 226.642 129.213 219.413 129.213 219.413L126.893 173.886Z" fill="#455A64"/>
<path d="M131.533 240.498L125.42 187.908L126.894 173.886L142.459 167.259L162.611 165.934L181.803 168.053L177.313 221.994L182.222 252.419L128.472 254.843L131.533 240.498Z" fill="#455A64"/>
<path d="M131.506 240.271C131.384 240.271 129.919 228.577 128.236 214.111C126.553 199.644 125.298 187.951 125.42 187.899C125.542 187.846 127.007 199.601 128.69 214.059C130.373 228.516 131.672 240.254 131.506 240.271Z" fill="#263238"/>
<path d="M181.376 179.851C181.401 180.009 181.401 180.171 181.376 180.33C181.376 180.688 181.307 181.132 181.254 181.682C181.123 182.911 180.958 184.594 180.749 186.635C180.321 190.881 179.746 196.637 179.109 203.002C178.473 209.368 178.002 215.21 177.688 219.378C177.54 221.428 177.417 223.111 177.33 224.349C177.33 224.898 177.252 225.343 177.226 225.7C177.221 225.86 177.198 226.018 177.156 226.171C177.134 226.015 177.134 225.857 177.156 225.7C177.156 225.334 177.156 224.889 177.156 224.34C177.156 223.163 177.261 221.462 177.365 219.361C177.601 215.158 178.045 209.35 178.656 202.959C179.266 196.567 179.92 190.751 180.4 186.6C180.661 184.516 180.879 182.824 181.054 181.656C181.132 181.115 181.202 180.67 181.254 180.313C181.274 180.154 181.315 179.998 181.376 179.851Z" fill="#263238"/>
<path d="M172.159 232.214C171.896 232.582 171.604 232.929 171.287 233.252C170.948 233.655 170.584 234.037 170.197 234.394C169.744 234.813 169.256 235.319 168.645 235.789C168.002 236.341 167.326 236.853 166.622 237.324C165.827 237.884 165.003 238.402 164.154 238.876C160.243 241.051 155.904 242.345 151.441 242.67C150.412 242.67 149.444 242.783 148.528 242.731C147.683 242.721 146.838 242.663 145.999 242.556C145.305 242.483 144.616 242.376 143.933 242.234C143.411 242.148 142.895 242.029 142.389 241.876C141.951 241.779 141.523 241.645 141.107 241.475C141.107 241.37 142.974 241.946 146.026 242.234C146.86 242.317 147.698 242.358 148.537 242.356C149.409 242.356 150.394 242.303 151.406 242.251C155.796 241.882 160.062 240.608 163.936 238.51C164.808 237.996 165.68 237.542 166.395 237.019C167.11 236.496 167.817 236.016 168.427 235.545C170.86 233.627 172.081 232.145 172.159 232.214Z" fill="#263238"/>
<g opacity="0.3">
<path d="M143.741 242.033C141.125 241.283 140.976 238.815 141.997 237.76C143.017 236.705 144.613 236.565 146.104 236.775C147.532 237.125 148.994 237.321 150.464 237.359C152.853 237.202 154.824 235.536 156.515 233.81C158.207 232.083 159.751 230.147 161.931 229.153C164.111 228.159 167.163 228.517 168.296 230.618C168.624 231.308 168.772 232.07 168.726 232.832C168.68 233.594 168.443 234.333 168.035 234.978C167.212 236.269 166.106 237.355 164.799 238.152C161.757 240.228 158.315 241.645 154.693 242.313C151.071 242.982 147.35 242.886 143.767 242.033" fill="black"/>
</g>
<g opacity="0.2">
<path d="M127.626 207.214C127.155 207.876 122.612 214.085 122.612 214.085C122.49 214.713 118.086 220.39 118.086 220.39C118.086 220.39 122.002 218.218 125.01 216.666C126.282 215.913 127.486 215.052 128.611 214.094C128.611 214.094 127.931 209.821 127.635 208.225C126.963 204.65 126.51 196.584 126.51 196.584" fill="black"/>
</g>
<path d="M175.525 167.555C176.961 168.075 178.186 169.052 179.013 170.336C179.97 171.529 180.512 173.002 180.557 174.531C179.739 171.69 177.957 169.223 175.517 167.555H175.525Z" fill="#263238"/>
<path d="M127.626 207.214C127.257 207.964 126.816 208.676 126.309 209.342C125.437 210.615 124.234 212.359 122.865 214.268C120.118 218.07 117.772 221.114 117.633 220.939L119.037 218.907L122.525 214.007C123.894 212.097 125.141 210.379 126.074 209.158C126.532 208.465 127.051 207.814 127.626 207.214Z" fill="#263238"/>
</svg>
