<svg width="174" height="208" viewBox="0 0 174 208" fill="none" xmlns="http://www.w3.org/2000/svg">
<g clip-path="url(#clip0)">
<path d="M172.928 36.1661V155.073C172.928 157.359 171.947 159.534 170.239 161.049L165.203 165.513L147.025 181.623L146.752 181.868L143.473 184.772L141.12 186.859L139.751 188.073L139.229 188.534L137.742 189.852L136.129 191.28L135.442 191.891C135.44 191.893 135.44 191.893 135.436 191.897L134.803 192.458C134.801 192.458 134.801 192.458 134.801 192.458L134.285 192.916L119.522 206C118.062 207.289 116.181 208.002 114.235 208.002H13.6656C9.25434 208.002 5.67969 204.428 5.67969 200.016V36.1661C5.67969 31.7548 9.25434 28.1802 13.6656 28.1802H164.944C169.353 28.1802 172.928 31.7548 172.928 36.1661Z" fill="#075865"/>
<path d="M151.369 74.1552C151.513 74.8253 151.56 75.5468 151.484 76.3238C150.917 82.0116 144.66 80.0218 144.66 80.0218L144.487 80.1205L139.432 83.0147L130.626 88.0571C126.953 88.5689 123.543 88.3716 123.543 88.3716C123.543 88.3716 111.863 88.571 98.1521 88.7601C86.0777 88.9286 72.4266 89.0869 63.789 89.0951C63.752 88.6635 63.7458 88.2297 63.7767 87.796C61.1394 88.7888 58.0622 88.3716 55.7455 86.4332C55.246 86.0159 54.8082 85.5493 54.4361 85.0456C53.4042 83.6561 52.8677 81.9931 52.8513 80.3158C51.2006 80.7022 49.4472 80.5624 47.8521 79.8841C47.1388 79.5799 46.4605 79.1708 45.8376 78.6487C44.9106 77.8737 44.2055 76.9364 43.7204 75.9148C43.3483 75.1275 43.1078 74.2888 43.0009 73.4337C42.7563 71.411 43.2743 69.2978 44.5981 67.565C43.9157 67.419 43.2476 67.1827 42.6104 66.8538C42.0903 66.5845 41.5908 66.2576 41.1221 65.863C37.7037 63.0037 37.2515 57.914 40.1108 54.4936C40.2752 54.2962 40.452 54.1071 40.6329 53.9283C39.749 53.6158 38.9083 53.1451 38.1457 52.5099C34.7272 49.6486 34.275 44.5589 37.1343 41.1405C37.8373 40.3018 38.678 39.6358 39.5969 39.163C39.6318 39.1425 39.6688 39.124 39.7058 39.1055C37.7201 36.1989 37.8168 32.2131 40.1848 29.3805C40.8056 28.6385 41.5291 28.0362 42.3205 27.5757C41.2105 24.8932 41.5929 21.6927 43.5868 19.3103C45.5889 16.9176 48.6826 15.9782 51.5275 16.6113C51.2767 14.4879 51.8708 12.2678 53.3508 10.4959C55.8401 7.51945 60.0211 6.79383 63.3203 8.54107C63.6163 7.48245 64.1405 6.46288 64.8929 5.56459C67.7542 2.14411 72.8438 1.69188 76.2643 4.55325C76.6672 4.8883 77.0228 5.2542 77.3414 5.64476C77.6477 4.66425 78.1472 3.72485 78.8482 2.89028C81.7096 -0.528148 86.7992 -0.980376 90.2176 1.87894C92.1601 3.5049 93.1447 5.8462 93.1077 8.19368C95.854 6.91511 99.2108 7.25222 101.688 9.32219C103.24 10.6193 104.179 12.3727 104.475 14.2247C107.363 12.3686 111.234 12.5104 114.007 14.8291C116.126 16.6051 117.105 19.2321 116.864 21.7893C119.446 20.9074 122.414 21.3556 124.661 23.2344C126.916 25.1193 127.876 27.9725 127.456 30.6776C129.668 30.3282 132.016 30.9058 133.872 32.4557C135.551 33.8617 136.513 35.8022 136.721 37.8166C138.653 37.7426 140.62 38.3552 142.22 39.6934C145.638 42.5548 146.09 47.6444 143.229 51.0628C143.229 51.0628 152.905 51.8665 152.905 59.2625C152.905 66.6544 145.796 67.7911 145.796 67.7911C145.796 67.7911 150.46 69.9145 151.369 74.1552Z" fill="#3C2F4B"/>
<path d="M127.525 75.3412L120.963 95.4674L82.5505 96.4685L75.2676 79.9026L77.7507 75.1007L79.5493 71.6206L100.541 73.6207L114.796 63.9266L114.821 63.9102C114.815 63.9287 114.809 63.9574 114.796 63.9985C114.669 64.5515 114.289 67.0511 114.556 69.1848C114.71 70.4058 115.076 71.5055 115.82 72.0523C117.962 73.6228 121.742 73.7584 127.525 75.3412Z" fill="#D86E6C"/>
<path opacity="0.24" d="M112.911 74.0667C112.911 74.0667 113.398 79.9107 105.019 86.4392C96.6408 92.9678 82.7122 90.5298 82.6135 90.9204C82.5169 91.311 76.5742 81.6662 76.5742 81.6662C76.5742 81.6662 77.5486 72.9957 77.5486 73.4829C77.5506 73.968 112.911 74.0667 112.911 74.0667Z" fill="#3C2F4B"/>
<path d="M114.798 63.9263V63.9982C114.8 65.653 114.746 67.4557 114.557 69.1844C114.325 71.3408 113.889 73.3799 113.106 74.8722C110.374 80.079 101.26 85.6003 90.7598 83.3803C84.334 82.0236 80.0831 78.0111 77.75 75.1025L79.5486 71.6224L100.54 73.6224L114.798 63.9263Z" fill="#3C2F4B"/>
<path d="M79.0683 71.8507C79.0683 71.8507 80.7292 80.1449 72.2726 81.8737C63.8159 83.6024 58.8311 69.0263 68.3259 65.1577L79.0683 71.8507Z" fill="#D86E6C"/>
<path d="M79.0683 71.8507C79.0683 71.8507 80.7292 80.1449 72.2726 81.8737C63.8159 83.6024 58.8311 69.0263 68.3259 65.1577L79.0683 71.8507Z" fill="#D86E6C"/>
<path d="M75.2652 72.5415C75.2652 72.5415 76.1326 76.8726 71.7152 77.775C67.2978 78.6774 64.6954 71.0656 69.6535 69.0449L75.2652 72.5415Z" fill="#B85052"/>
<path d="M114.034 67.2567C113.703 68.5271 113.305 69.5569 112.908 70.3052C112.287 71.4727 111.506 72.5889 110.433 73.3618C92.7878 86.0488 73.1467 74.8233 63.3519 67.3575C59.9211 64.7428 59.1174 59.9491 61.432 56.3128C68.2236 45.6546 65.5986 35.2472 63.1566 29.5821C61.9418 26.768 63.3992 23.5366 66.3119 22.5869C77.3113 18.9938 89.1432 23.5633 89.1432 23.5633C115.442 38.4745 116.326 58.4917 114.034 67.2567Z" fill="#D86E6C"/>
<path d="M61.7363 111.768V188.186H136.132V112.247L61.7363 111.768Z" fill="#5D4290"/>
<path d="M141.119 186.859L139.75 188.073L139.228 188.534L137.742 189.851L136.128 191.28L135.442 191.891C135.44 191.893 135.44 191.893 135.436 191.897L134.803 192.458C134.8 192.458 134.8 192.458 134.8 192.458L134.285 192.916L119.521 206C118.062 207.289 116.181 208.002 114.234 208.002H40.0938V185.685L44.614 185.738H44.616L59.669 185.911L61.7349 185.936L77.2669 186.116H77.2751L87.9148 186.24L107.387 186.466L110.952 186.509H110.962L118.085 186.591H118.087L135.24 186.791L136.13 186.801L141.119 186.859Z" fill="#49A5DC"/>
<path d="M141.119 186.859L139.75 188.073L139.228 188.534L137.742 189.851L136.128 191.28L135.442 191.891C135.44 191.893 135.44 191.893 135.436 191.897L134.803 192.458C134.8 192.458 134.8 192.458 134.8 192.458L134.285 192.916L119.521 206C118.062 207.289 116.181 208.002 114.234 208.002H40.0938V185.685L44.614 185.738H44.616L59.669 185.911L61.7349 185.936L77.2669 186.116H77.2751L87.9148 186.24L107.387 186.466L110.952 186.509H110.962L118.085 186.591H118.087L135.24 186.791L136.13 186.801L141.119 186.859Z" fill="#9FD088"/>
<path opacity="0.6" d="M139.751 188.071L139.229 188.532L137.743 189.849L136.129 191.278L134.803 192.454C134.801 192.454 134.801 192.454 134.801 192.454L134.285 192.912C134.285 192.861 134.283 192.811 134.279 192.76C134.232 191.662 134.187 190.567 134.154 189.625C134.135 189.091 134.119 188.606 134.111 188.199V188.186C134.098 187.654 134.092 187.257 134.104 187.06C134.111 186.961 134.117 186.914 134.131 186.918L134.431 186.98L136.127 187.329L139.751 188.071Z" fill="#3C2F4B"/>
<path d="M136.127 182.778V190.355C136.127 190.94 135.877 191.5 135.441 191.89C135.439 191.892 135.439 191.892 135.435 191.896L134.801 192.457C134.799 192.457 134.799 192.457 134.799 192.457L134.283 192.916L119.52 206C118.061 207.288 116.18 208.002 114.233 208.002H61.7277C60.5909 208.002 59.668 207.079 59.668 205.942V182.611C59.668 181.472 60.595 180.547 61.7338 180.552L93.8502 180.623L101.809 180.642H101.816L111.035 180.663H111.041L134.078 180.716C135.211 180.72 136.127 181.641 136.127 182.778Z" fill="#3AB3C6"/>
<path opacity="0.24" d="M139.23 188.532L137.744 189.849L136.13 191.278L134.805 192.454C134.803 192.454 134.803 192.454 134.803 192.454C134.628 192.559 134.453 192.659 134.28 192.76C132.482 193.808 130.761 194.76 129.775 195.182C127.004 196.37 87.8017 206.269 64.0433 204.09C62.5098 203.949 61.0545 203.768 59.669 203.558C49.9955 202.062 43.8575 198.912 40.0938 196.053V189.829L59.669 188.357L62.0042 188.182L87.9148 186.234L95.3251 185.677L107.387 186.46L110.95 186.692H110.96L120.952 187.342H120.954L130.305 187.948L133.89 188.182L134.11 188.195L136.128 188.328L139.23 188.532Z" fill="#3C2F4B"/>
<path d="M172.523 151.071C172.507 151.235 172.486 151.398 172.465 151.564C172.457 151.634 172.449 151.702 172.439 151.77C172.418 151.92 172.396 152.066 172.373 152.214C172.371 152.226 172.367 152.24 172.365 152.253C172.363 152.271 172.359 152.288 172.356 152.304C172.324 152.493 172.291 152.682 172.254 152.871C172.217 153.069 172.174 153.268 172.128 153.461C172.083 153.657 172.038 153.85 171.986 154.041C171.984 154.047 171.984 154.051 171.98 154.057C171.929 154.249 171.875 154.44 171.82 154.633C171.767 154.816 171.711 154.997 171.651 155.178C171.645 155.188 171.643 155.196 171.641 155.207C171.577 155.398 171.514 155.589 171.444 155.778C171.397 155.907 171.347 156.037 171.298 156.166C171.259 156.275 171.216 156.382 171.17 156.491C171.107 156.647 171.041 156.806 170.973 156.962C170.922 157.079 170.872 157.196 170.817 157.311C170.782 157.39 170.747 157.464 170.71 157.54C170.71 157.542 170.708 157.546 170.708 157.548C170.638 157.694 170.566 157.844 170.492 157.988C170.484 158.004 170.476 158.021 170.467 158.035C170.461 158.045 170.457 158.06 170.449 158.07C170.377 158.214 170.303 158.358 170.225 158.502C170.208 158.53 170.192 158.559 170.178 158.586C170.114 158.709 170.048 158.826 169.978 158.946C169.933 159.024 169.888 159.102 169.84 159.18C169.806 159.242 169.769 159.303 169.729 159.363C169.672 159.464 169.61 159.564 169.546 159.667C169.454 159.813 169.357 159.959 169.261 160.103C168.858 160.701 168.428 161.342 167.964 162.023C167.649 162.485 167.32 162.964 166.979 163.458C166.872 163.61 166.765 163.764 166.66 163.918C166.562 164.062 166.461 164.206 166.36 164.352C166.358 164.354 166.358 164.358 166.354 164.36L165.205 165.509L147.028 181.619L143.942 180.498L146.752 181.863L143.474 184.768C141.436 185.282 138.951 185.894 136.131 186.573C135.839 186.643 135.543 186.714 135.241 186.786C134.976 186.85 134.706 186.914 134.435 186.978C134.326 187.004 134.217 187.031 134.108 187.058C132.891 187.346 131.621 187.646 130.308 187.95C129.975 188.028 129.639 188.106 129.3 188.184C128.597 188.347 127.878 188.511 127.152 188.678C122.126 189.825 116.584 191.033 110.884 192.178C110.882 192.178 110.878 192.178 110.876 192.18C110.876 192.18 110.876 192.18 110.874 192.18C94.8776 195.393 77.6683 198.115 67.2485 197.558C64.6934 197.422 62.1589 197.161 59.6696 196.807C52.5676 195.79 45.8458 193.993 40.0943 192.08C33.3911 189.847 28.0034 187.457 24.8542 185.946C23.8552 185.467 22.9919 184.78 22.3094 183.944C22.2663 183.89 22.2272 183.837 22.184 183.783C21.7524 183.224 21.4009 182.607 21.1439 181.941C21.0329 181.652 20.9363 181.354 20.8582 181.047C19.4871 175.522 18.5025 168.578 17.9598 160.944C17.8509 159.41 17.7604 157.848 17.6885 156.267C17.6597 155.636 17.633 155.003 17.6083 154.364C17.5199 151.953 17.4747 149.5 17.4727 147.019C17.4727 146.386 17.4747 145.749 17.4809 145.116C17.4932 143.12 17.5384 141.116 17.6145 139.105C17.8057 133.81 18.1983 128.5 18.8067 123.359C19.0883 120.975 19.4172 118.627 19.7913 116.336C21.7421 104.436 24.9776 94.0263 29.6972 87.7136C34.978 84.2191 41.5825 81.6949 48.1892 79.8798C59.0714 76.8828 69.9639 75.7995 74.9713 75.4377C76.3712 75.3329 77.3106 75.2876 77.6621 75.2733C77.7628 75.2712 77.8163 75.2671 77.8163 75.2671C77.7998 75.5713 77.7895 75.8694 77.7875 76.1613C77.7854 76.2044 77.7854 76.2455 77.7875 76.2887C77.7628 80.5602 79.0948 83.7443 80.8996 86.0959C81.1997 86.4906 81.5142 86.8606 81.8411 87.208C82.6325 88.059 83.4753 88.7764 84.3139 89.3807C87.3274 91.5473 90.2484 92.2256 90.2484 92.2256L90.3409 93.0807L90.6924 96.2546L91.1529 100.431C91.1529 100.431 91.1508 100.431 91.1446 100.431C90.9185 100.425 86.2236 100.36 81.6869 103.437C79.1997 105.122 76.7597 107.749 75.1255 111.85C74.2252 114.107 73.5715 116.814 73.2858 120.056C73.2652 120.293 73.2426 120.531 73.2159 120.769C72.6588 126.476 71.3782 132.381 69.8303 137.905C69.8283 137.915 69.8242 137.923 69.8221 137.934C69.8221 137.934 69.8201 137.934 69.8201 137.936C69.7769 138.092 69.7317 138.25 69.6864 138.406C68.6216 142.145 66.8107 145.149 64.9216 147.689C63.8465 149.134 62.7406 150.431 61.7355 151.626C60.9153 152.602 60.1588 153.511 59.5339 154.38C59.0139 155.102 58.5884 155.799 58.2882 156.483C58.2554 156.553 58.2759 157.022 58.3067 157.603C58.3602 158.635 58.4589 160.023 58.4075 160.136C57.6161 161.93 60.4528 163.084 60.4528 163.084C60.8803 163.055 61.3099 163.028 61.7355 163.001C63.6019 162.884 65.4293 162.783 67.2239 162.701C68.9711 162.619 70.6813 162.551 72.3566 162.5C75.8943 162.389 79.2716 162.335 82.4701 162.329C103.945 162.286 117.32 164.344 117.32 164.344L136.133 158.886L167.647 149.747L172.33 151.013L172.523 151.071Z" fill="#D86E6C"/>
<path d="M111.271 163.768L111.102 175.995L110.987 184.478L110.88 192.326C94.8835 195.539 77.6742 198.261 67.2544 197.704C49.19 196.746 32.213 189.582 25.1932 186.252C22.9608 185.193 21.341 183.169 20.7613 180.766C19.0655 173.742 17.9801 164.512 17.6143 154.512C17.5259 152.084 17.4806 149.613 17.4786 147.118C17.4765 144.515 17.5218 141.886 17.6204 139.255C17.8116 133.96 18.2042 128.65 18.8127 123.509C19.0943 121.125 19.4232 118.778 19.7973 116.486C21.748 104.586 24.9835 94.1763 29.7031 87.8637C34.9839 84.3692 41.5885 81.8449 48.1951 80.0298C58.0331 77.3206 67.8835 76.1756 73.3801 75.7131C73.9639 75.6658 74.4983 75.6227 74.9773 75.5877C76.3771 75.4829 75.8858 75.4192 76.2373 75.4048C76.3442 75.4048 78.0031 76.2866 78.0031 76.2866C78.1778 82.6363 80.9343 87.0949 84.3219 89.5328C84.9694 89.9994 85.6108 90.3961 86.2233 90.7312C88.4557 91.9604 90.2564 92.3798 90.2564 92.3798L90.3489 93.2349L90.7004 96.4087L90.7559 96.9082L91.1609 100.584C91.1609 100.584 86.3446 100.434 81.6949 103.589C79.2076 105.274 76.7677 107.901 75.1335 112.002C74.2331 114.259 73.5795 116.967 73.2937 120.208C72.7737 126.147 65.5072 121.933 63.8915 127.693C63.8915 127.693 60.4628 136.692 60.4176 136.85C59.0527 141.652 59.1472 148.783 59.5357 154.421L62.2614 156.129L72.3708 162.465L72.3071 162.652C90.1557 162.072 103.885 163.034 111.271 163.768Z" fill="#F8EB92"/>
<path opacity="0.24" d="M111.092 176.118L110.977 184.601L110.87 192.449C96.2859 195.381 80.6923 197.899 70.1533 197.899C69.1338 197.899 68.1615 197.874 67.2447 197.827C49.1761 196.869 32.195 189.703 25.1772 186.373C22.951 185.317 21.3354 183.308 20.7557 180.914C19.0578 173.886 17.9683 164.646 17.6045 154.635C17.5161 152.207 17.4709 149.737 17.4688 147.241C17.4668 144.639 17.512 142.01 17.6107 139.378C17.8018 134.083 18.1944 128.774 18.8029 123.633C19.0845 121.248 19.4134 118.901 19.7875 116.609C21.7383 104.709 24.9737 94.2996 29.6934 87.9869C34.9741 84.4925 41.5787 81.9682 48.1853 80.1531C58.0233 77.4439 67.8737 76.2989 73.3703 75.8364C73.9541 75.7891 74.4885 75.746 74.9675 75.711C76.3673 75.6062 75.8761 75.5425 76.2276 75.5281C76.3344 75.5281 77.9933 76.4099 77.9933 76.4099C78.168 82.7596 80.9246 87.2182 84.3122 89.6561C84.9597 90.1227 85.601 90.5194 86.2136 90.8545L86.6391 92.6511C86.7295 93.0313 86.2341 93.2677 86.267 93.6562C86.7706 99.5578 75.6191 106.152 63.1931 106.372L64.1963 135.833L54.9071 137.522L55.4683 105.642C48.2655 104.092 41.3464 99.9484 36.6926 91.8617C36.3411 91.2512 35.4839 91.1916 35.0666 91.7548C33.3338 94.1044 29.57 99.9874 27.3089 109.379C24.2975 121.886 26.8011 146.756 27.9584 162.041C27.9584 162.041 42.0926 156.21 50.1875 156.483C49.9244 156.528 35.301 159.118 27.9584 168.989C27.9584 168.989 28.3305 182.13 34.2115 184.042C34.2115 184.042 33.2844 175.242 39.3073 170.146C39.3073 170.146 38.7502 172.26 38.4871 175.121C37.9424 181.07 42.4051 186.299 48.3683 186.698C61.7357 187.598 87.451 187.983 96.0454 178.714C101.832 172.467 107.176 173.511 111.092 176.118Z" fill="#3C2F4B"/>
<path d="M90.6903 96.2566L90.7458 96.7562C88.458 96.9227 85.683 96.1415 83.8453 95.1117C74.2765 89.7487 72.0812 80.7925 71.9023 75.7564C72.4861 75.7091 74.4883 75.4747 74.9672 75.4398C75.6394 75.3905 75.4544 75.4398 75.9004 75.4131C76.3835 75.3843 77.7772 76.2291 77.7834 76.6875C77.8759 83.1852 81.1463 87.1052 84.3098 89.3807C87.3233 91.5473 90.2443 92.2257 90.2443 92.2257L90.3368 93.0808L90.6903 96.2566Z" fill="#C1E2E8"/>
<path d="M90.6903 96.2566L90.7458 96.7562C88.458 96.9227 85.683 96.1415 83.8453 95.1117C74.2765 89.7487 72.0812 80.7925 71.9023 75.7564C72.4861 75.7091 74.4883 75.4747 74.9672 75.4398C75.6394 75.3905 75.4544 75.4398 75.9004 75.4131C76.3835 75.3843 77.7772 76.2291 77.7834 76.6875C77.8759 83.1852 81.1463 87.1052 84.3098 89.3807C87.3233 91.5473 90.2443 92.2257 90.2443 92.2257L90.3368 93.0808L90.6903 96.2566Z" stroke="#3C2F4B" stroke-width="1.43891" stroke-miterlimit="10" stroke-linecap="round" stroke-linejoin="round"/>
<path d="M81.789 196.91C76.243 197.504 71.2459 197.773 67.2478 197.56C43.5942 196.304 21.7969 184.412 21.7969 184.412" stroke="#3C2F4B" stroke-width="1.43891" stroke-miterlimit="10" stroke-linecap="round" stroke-linejoin="round"/>
<path d="M29.6953 87.7157C43.6753 78.4656 66.9321 76.0215 74.9756 75.4377" stroke="#3C2F4B" stroke-width="1.43891" stroke-miterlimit="10" stroke-linecap="round" stroke-linejoin="round"/>
<path d="M172.654 146.6C172.654 146.762 172.654 146.925 172.652 147.081C172.654 147.108 172.652 147.136 172.652 147.163C172.646 147.928 172.64 148.649 172.628 149.319C172.617 149.895 172.582 150.472 172.527 151.042C172.527 151.052 172.525 151.06 172.525 151.071C172.508 151.235 172.488 151.398 172.467 151.564C172.459 151.634 172.451 151.702 172.441 151.77C172.42 151.92 172.397 152.066 172.375 152.214C172.373 152.226 172.369 152.24 172.367 152.253C172.365 152.271 172.36 152.288 172.358 152.304C172.326 152.493 172.293 152.682 172.256 152.871C172.219 153.069 172.175 153.268 172.13 153.461C172.085 153.657 172.04 153.85 171.988 154.041C171.986 154.047 171.986 154.051 171.982 154.057C171.931 154.249 171.877 154.44 171.822 154.633C171.768 154.816 171.713 154.997 171.653 155.178C171.647 155.188 171.645 155.196 171.643 155.206C171.579 155.398 171.516 155.589 171.446 155.778C171.398 155.907 171.349 156.037 171.3 156.166C171.261 156.275 171.218 156.382 171.172 156.491C171.109 156.647 171.043 156.806 170.975 156.962C170.924 157.079 170.874 157.196 170.819 157.311C170.784 157.39 170.749 157.464 170.712 157.54C170.712 157.542 170.71 157.546 170.71 157.548C170.64 157.694 170.568 157.844 170.494 157.988C170.486 158.004 170.478 158.021 170.469 158.035C170.463 158.045 170.459 158.06 170.451 158.07C170.379 158.214 170.305 158.358 170.227 158.502C170.21 158.53 170.194 158.559 170.18 158.586C170.116 158.709 170.05 158.826 169.98 158.946C169.935 159.024 169.89 159.102 169.842 159.18C169.807 159.242 169.77 159.303 169.731 159.363C169.674 159.464 169.612 159.564 169.548 159.667C169.456 159.813 169.359 159.959 169.263 160.103C168.86 160.701 168.43 161.342 167.966 162.023C167.651 162.485 167.322 162.964 166.981 163.458C166.874 163.61 166.767 163.764 166.662 163.918C166.564 164.062 166.463 164.206 166.362 164.352C166.36 164.354 166.36 164.358 166.356 164.36L165.207 165.509L147.03 181.619L146.756 181.863L143.478 184.768L141.124 186.854L139.755 188.069L139.233 188.529L137.747 189.847C137.239 189.829 136.698 189.804 136.133 189.769C135.508 189.732 134.85 189.685 134.158 189.623C132.108 189.442 129.769 189.144 127.154 188.675C126.334 188.53 125.487 188.363 124.611 188.182C123.438 187.937 122.221 187.658 120.957 187.341H120.955C120.025 187.113 119.07 186.86 118.091 186.585H118.089C117.158 186.324 116.204 186.044 115.23 185.74C114.718 185.58 114.2 185.415 113.678 185.245C113.45 185.171 113.217 185.093 112.983 185.017C112.773 184.947 112.557 184.875 112.344 184.801C112.134 184.731 111.922 184.659 111.713 184.585C111.696 184.579 111.68 184.575 111.665 184.568C111.441 184.488 111.221 184.412 110.995 184.334V184.332H110.987V184.33H110.985C110.625 184.203 110.266 184.075 109.904 183.941C109.542 183.812 109.176 183.676 108.81 183.539C107.819 183.169 106.787 182.759 105.714 182.313C105.536 182.241 105.355 182.167 105.174 182.089C105.145 182.077 105.112 182.065 105.083 182.052C104.913 181.98 104.74 181.908 104.567 181.834C104.271 181.709 103.971 181.58 103.667 181.448C103.363 181.319 103.061 181.185 102.752 181.049C102.444 180.914 102.136 180.778 101.821 180.636H101.815C101.809 180.634 101.807 180.634 101.803 180.63C101.505 180.496 101.2 180.361 100.898 180.223C99.6361 179.651 98.337 179.047 97.0111 178.412C96.857 178.34 96.7028 178.266 96.5445 178.192C96.5425 178.192 96.5425 178.192 96.5425 178.192C96.4911 178.167 96.4418 178.145 96.3904 178.118C94.7356 177.325 93.0398 176.492 91.3131 175.625C90.8814 175.409 90.4477 175.191 90.014 174.969C87.5678 173.729 85.0744 172.432 82.5748 171.106C82.1123 170.864 81.6519 170.619 81.1914 170.368C81.1791 170.362 81.1626 170.356 81.1482 170.348C81.0208 170.278 80.8892 170.21 80.7597 170.14C80.3178 169.904 79.8738 169.665 79.4318 169.427C78.2499 168.792 77.0679 168.153 75.8962 167.511C75.5139 167.302 75.1295 167.09 74.7492 166.882C73.6741 166.294 72.6073 165.702 71.5466 165.114C71.1643 164.901 70.7819 164.689 70.4017 164.475C70.268 164.403 70.1385 164.329 70.0049 164.255C69.0676 163.733 68.1426 163.211 67.2278 162.697C66.2268 162.132 65.2422 161.575 64.276 161.026C63.5011 160.584 62.7364 160.15 61.9841 159.718C61.9491 159.7 61.9142 159.679 61.8792 159.661C61.8319 159.632 61.7867 159.605 61.7374 159.579C61.5565 159.474 61.3756 159.371 61.1968 159.27C61.1783 159.26 61.1598 159.25 61.1413 159.237C60.9419 159.122 60.7425 159.009 60.5452 158.894C60.1752 158.68 59.8113 158.471 59.4475 158.263C59.1741 158.103 58.9027 157.947 58.6335 157.792C58.5245 157.729 58.4156 157.667 58.3087 157.603C57.9633 157.404 57.6201 157.207 57.2809 157.009C56.9479 156.818 56.619 156.627 56.2942 156.438C55.9427 156.232 55.5974 156.031 55.2561 155.833C53.8337 155.005 52.4976 154.22 51.2663 153.494C51.1882 153.449 51.1142 153.404 51.0381 153.359C50.7935 153.215 50.553 153.073 50.3145 152.933C50.1172 152.816 49.9199 152.699 49.7287 152.588C49.5396 152.477 49.3505 152.364 49.1634 152.253C48.9764 152.142 48.7934 152.035 48.6146 151.928C48.446 151.829 48.2816 151.731 48.1192 151.636C48.0226 151.578 47.928 151.521 47.8314 151.463C45.6648 150.174 44.0594 149.206 43.1858 148.678C43.0871 148.62 42.9987 148.567 42.9206 148.518C42.6041 148.322 42.4355 148.222 42.4355 148.222C42.4355 148.222 42.3163 148.257 42.0902 148.322C42.0532 148.333 42.0162 148.343 41.973 148.357C41.827 148.396 41.6462 148.45 41.4344 148.511C41.3954 148.522 41.3522 148.532 41.309 148.546C41.2268 148.571 41.1364 148.594 41.0439 148.625C41.0048 148.635 40.9658 148.645 40.9267 148.657C40.8691 148.674 40.8095 148.69 40.7479 148.709C40.6965 148.721 40.643 148.738 40.5916 148.754C40.3491 148.82 40.086 148.896 39.8002 148.974C39.6481 149.017 39.4919 149.062 39.3316 149.108C39.3295 149.108 39.3233 149.108 39.3192 149.11C39.2103 149.138 39.0952 149.171 38.9821 149.202C38.4024 149.365 37.7632 149.539 37.0725 149.726C36.9348 149.763 36.795 149.804 36.6511 149.841C35.7138 150.096 34.6921 150.368 33.6027 150.655C33.4567 150.692 33.3108 150.729 33.1607 150.771C32.1597 151.032 31.1093 151.301 30.026 151.574C29.7855 151.632 29.545 151.694 29.3024 151.753C29.1791 151.786 29.0578 151.817 28.9324 151.846C28.3609 151.987 27.7792 152.127 27.1934 152.269C27.1296 152.286 27.0659 152.302 26.9981 152.316C26.2211 152.503 25.4338 152.688 24.6445 152.869C24.3813 152.931 24.1182 152.989 23.8531 153.05C23.8448 153.052 23.8407 153.056 23.8346 153.056C23.5755 153.114 23.3207 153.171 23.0617 153.229C22.2065 153.42 21.3535 153.605 20.5066 153.78C20.0913 153.87 19.6761 153.955 19.2671 154.039C19.08 154.076 18.8909 154.113 18.7059 154.15C18.3379 154.222 17.9761 154.294 17.6123 154.364H17.6103C17.6082 154.364 17.6041 154.364 17.602 154.366C17.3286 154.417 17.0573 154.466 16.7839 154.516C16.5742 154.555 16.3625 154.594 16.1549 154.631C15.9391 154.668 15.7232 154.705 15.5136 154.742C15.4868 154.748 15.4622 154.75 15.4355 154.754C13.127 155.145 11.0057 155.424 9.2461 155.529C9.2461 155.529 6.45051 154.744 5.67967 152.658C5.43917 152.016 5.39394 151.252 5.67967 150.349C5.88112 149.7 6.25729 148.976 6.85546 148.176C6.85546 148.176 6.33129 147.956 5.67967 147.529C5.55017 147.447 5.41656 147.354 5.27678 147.251C3.66726 146.067 1.78435 143.775 4.6786 140.548C4.68888 140.536 4.69916 140.523 4.71149 140.511C4.71149 140.511 2.84297 139.67 1.81518 138.192C1.04845 137.099 0.748333 135.654 2.01663 133.942C2.13379 133.785 2.2633 133.623 2.4113 133.461C2.4113 133.461 2.26946 133.327 2.05774 133.093C0.972391 131.898 -1.99381 128.05 2.10502 125.487C2.10502 125.487 2.21602 125.46 2.42157 125.413C2.9108 125.298 3.94476 125.063 5.27883 124.784C5.40833 124.757 5.54195 124.728 5.68172 124.702C8.21009 124.178 11.6737 123.538 14.6441 123.246C14.8619 123.226 15.0757 123.207 15.2875 123.189C15.2875 123.189 15.2443 123.164 15.1703 123.115H15.1682C14.8681 122.926 14.0192 122.369 13.127 121.565C12.0191 120.572 10.8433 119.199 10.537 117.67C9.92444 114.603 10.9975 113.53 10.9975 113.53C10.9975 113.53 11.5586 114.004 12.6152 114.559C14.0973 115.343 16.5516 116.292 19.7912 116.331H19.8364C20.2969 116.34 20.7738 116.325 21.2651 116.288C23.0411 116.161 24.6835 116.249 26.2314 116.543C30.3035 117.31 33.7383 119.505 37.2349 123.004C39.1013 124.87 44.1642 131.67 44.1642 131.67C44.1642 131.67 46.9907 132.429 51.7514 133.625C51.8028 133.637 51.8521 133.652 51.9056 133.662C52.3372 133.769 52.7874 133.88 53.2499 133.997C53.3116 134.013 53.3753 134.03 53.439 134.044C53.9262 134.164 54.4319 134.289 54.9581 134.423C55.8625 134.642 56.8266 134.877 57.8462 135.123C58.0538 135.177 58.2635 135.228 58.4772 135.278C58.6067 135.311 58.7383 135.341 58.8678 135.37C59.0179 135.407 59.1679 135.444 59.318 135.479C59.4084 135.5 59.4989 135.522 59.5914 135.543V135.545C59.986 135.641 60.3848 135.736 60.7898 135.833C61.0323 135.888 61.2769 135.948 61.5236 136.005C61.5935 136.022 61.6613 136.038 61.7312 136.053C61.8504 136.081 61.9717 136.11 62.091 136.141C62.1362 136.151 62.1835 136.162 62.2287 136.174C62.4096 136.217 62.5905 136.258 62.7713 136.301C63.1229 136.384 63.4785 136.47 63.8361 136.552C65.0962 136.848 66.3933 137.15 67.7315 137.455C67.8815 137.489 68.0275 137.524 68.1755 137.555C68.3708 137.6 68.566 137.646 68.7654 137.691C68.823 137.703 68.8846 137.72 68.9463 137.73C69.2176 137.794 69.491 137.855 69.7665 137.917C69.785 137.923 69.8014 137.925 69.8179 137.927C69.898 137.946 69.9741 137.964 70.0543 137.983C70.4859 138.081 70.9217 138.18 71.3637 138.279C71.3883 138.285 71.411 138.289 71.4356 138.295C71.7172 138.357 72.0009 138.421 72.2825 138.484C75.1172 139.117 78.0793 139.763 81.1318 140.4C81.5737 140.493 82.0177 140.587 82.4659 140.68C83.1874 140.832 83.9171 140.98 84.6468 141.13C85.9542 141.399 87.2718 141.662 88.5997 141.925C89.2328 142.051 89.866 142.176 90.5052 142.297C90.5258 142.304 90.5484 142.308 90.571 142.31C91.4467 142.48 92.3244 142.651 93.2063 142.815C93.5783 142.887 93.9545 142.959 94.3286 143.029C96.0902 143.36 97.8601 143.685 99.6341 143.995C100.14 144.086 100.645 144.174 101.151 144.261C101.229 144.273 101.303 144.287 101.379 144.3C101.807 144.374 102.238 144.45 102.67 144.52C104.187 144.779 105.704 145.027 107.215 145.268C107.606 145.331 107.998 145.393 108.387 145.451C108.405 145.457 108.426 145.459 108.448 145.461C108.582 145.482 108.714 145.5 108.847 145.523C109.166 145.574 109.486 145.621 109.805 145.669C110.948 145.841 112.085 146.01 113.215 146.168C113.665 146.232 114.116 146.296 114.562 146.357C114.607 146.363 114.652 146.37 114.697 146.376C115.281 146.456 115.861 146.532 116.44 146.61C118.307 146.855 120.149 147.077 121.956 147.276C122.192 147.303 122.43 147.33 122.667 147.354C123.758 147.471 124.84 147.578 125.906 147.677C126.219 147.706 126.529 147.734 126.842 147.761C126.914 147.767 126.988 147.774 127.06 147.78C127.44 147.813 127.82 147.843 128.198 147.872C128.766 147.917 129.325 147.961 129.88 147.998C130.153 148.016 130.429 148.037 130.7 148.053C132.001 148.135 133.274 148.203 134.515 148.248C134.548 148.25 134.577 148.25 134.606 148.255C134.93 148.267 135.253 148.275 135.572 148.283C135.578 148.285 135.582 148.285 135.588 148.283C135.769 148.289 135.948 148.294 136.127 148.3H136.164C136.495 148.308 136.824 148.312 137.148 148.318C137.148 148.318 136.902 148.082 136.464 147.658C136.373 147.574 136.273 147.475 136.164 147.371C136.151 147.36 136.139 147.35 136.127 147.336C132.285 143.644 118.952 130.778 119.216 130.385C119.366 130.161 116.897 121.215 114.325 112.093C113.069 107.636 111.789 103.139 110.777 99.5948C110.599 98.9802 110.434 98.3964 110.274 97.8476C110.266 97.8229 110.261 97.8003 110.253 97.7756C110.183 97.5249 110.115 97.2802 110.046 97.0459C109.916 96.5834 109.791 96.1497 109.676 95.7468C109.127 93.833 108.792 92.6758 108.792 92.6758C108.792 92.6758 113.758 92.4414 118.237 89.2923C121.189 87.2161 123.931 83.8717 124.887 78.4881C125.105 77.2733 125.23 75.9598 125.247 74.5332C125.247 74.5332 125.263 74.5353 125.294 74.5435C125.312 74.5455 125.341 74.5517 125.374 74.5599C125.38 74.5599 125.382 74.562 125.386 74.562C125.419 74.5702 125.452 74.5743 125.495 74.5867C125.578 74.6031 125.678 74.6257 125.8 74.6504C125.884 74.6709 125.98 74.6894 126.085 74.7141C126.128 74.7244 126.17 74.7326 126.215 74.7429C126.461 74.7984 126.753 74.8621 127.082 74.9402C127.171 74.9608 127.261 74.9834 127.354 75.0039C127.452 75.0245 127.553 75.0492 127.658 75.0759C127.691 75.082 127.722 75.0882 127.75 75.0964C127.888 75.1293 128.032 75.1622 128.18 75.1972C128.353 75.2362 128.533 75.2794 128.721 75.3267C128.846 75.3595 128.975 75.3883 129.109 75.4233C129.278 75.4603 129.446 75.5034 129.623 75.5487C129.689 75.5651 129.757 75.5815 129.822 75.6C129.931 75.6268 130.042 75.6535 130.157 75.6823C131.105 75.9187 132.164 76.1962 133.309 76.5066C133.586 76.5806 133.87 76.6607 134.158 76.7388C134.499 76.8355 134.842 76.93 135.194 77.0307C135.311 77.0636 135.43 77.0965 135.547 77.1315C135.664 77.1643 135.783 77.1972 135.905 77.2322C136.145 77.3021 136.384 77.3699 136.628 77.4418C139.19 78.1921 141.989 79.0843 144.82 80.1038C145.774 80.4471 146.732 80.8068 147.683 81.1809C147.864 81.2508 148.043 81.3228 148.224 81.3947C152.294 83.0166 156.247 84.8995 159.441 87.025C159.62 87.1421 159.793 87.2614 159.965 87.3826C160.12 87.4875 160.272 87.5964 160.42 87.7012C160.446 87.7197 160.473 87.7383 160.5 87.7568C160.646 87.8636 160.792 87.9705 160.934 88.0795C160.958 88.0959 160.981 88.1144 161.005 88.1329C161.158 88.248 161.304 88.3611 161.449 88.4762C161.585 88.5831 161.719 88.69 161.846 88.7928C162.477 89.3128 163.061 89.8411 163.585 90.3838C170.128 103.93 172.058 123.602 172.525 137.722C172.527 137.777 172.527 137.831 172.531 137.886C172.556 138.599 172.574 139.3 172.589 139.983C172.601 140.486 172.613 140.982 172.622 141.465C172.624 141.664 172.628 141.864 172.63 142.061C172.638 142.511 172.642 142.953 172.646 143.385C172.648 143.529 172.648 143.673 172.652 143.812C172.656 144.801 172.661 145.728 172.654 146.6Z" fill="#D86E6C"/>
<path d="M172.653 146.6C172.653 146.762 172.653 146.925 172.651 147.081C172.653 147.108 172.651 147.136 172.651 147.163C172.645 147.928 172.639 148.649 172.626 149.319C172.616 149.895 172.581 150.473 172.526 151.042C172.526 151.052 172.523 151.06 172.523 151.071C172.507 151.235 172.486 151.398 172.466 151.564C172.458 151.634 172.449 151.702 172.439 151.77C172.419 151.92 172.396 152.066 172.373 152.214C172.371 152.226 172.367 152.24 172.365 152.253C172.363 152.271 172.359 152.288 172.357 152.304C172.324 152.493 172.291 152.682 172.254 152.871C172.217 153.069 172.174 153.268 172.129 153.461C172.084 153.657 172.038 153.85 171.987 154.041C171.985 154.047 171.985 154.051 171.981 154.057C171.929 154.249 171.876 154.44 171.82 154.633C171.767 154.816 171.711 154.997 171.652 155.178C171.646 155.188 171.644 155.196 171.642 155.207C171.578 155.398 171.514 155.589 171.444 155.778C171.397 155.908 171.348 156.037 171.298 156.166C171.259 156.275 171.216 156.382 171.171 156.491C171.107 156.648 171.041 156.806 170.974 156.962C170.922 157.079 170.873 157.196 170.817 157.311C170.782 157.39 170.747 157.464 170.71 157.54C170.71 157.542 170.708 157.546 170.708 157.548C170.638 157.694 170.567 157.844 170.493 157.988C170.484 158.004 170.476 158.021 170.468 158.035C170.462 158.045 170.458 158.06 170.449 158.07C170.377 158.214 170.303 158.358 170.225 158.502C170.209 158.53 170.192 158.559 170.178 158.586C170.114 158.709 170.049 158.826 169.979 158.946C169.933 159.024 169.888 159.102 169.841 159.18C169.806 159.242 169.769 159.303 169.73 159.363C169.672 159.464 169.611 159.564 169.547 159.667C169.454 159.813 169.358 159.959 169.261 160.103C168.858 160.701 168.429 161.342 167.964 162.023C167.65 162.485 167.321 162.964 166.98 163.458C166.873 163.61 166.766 163.764 166.661 163.918C166.562 164.062 166.462 164.206 166.361 164.352C166.359 164.354 166.359 164.358 166.355 164.36L165.206 165.509L147.028 181.619L146.755 181.863L143.476 184.768L141.122 186.854L139.753 188.069L139.231 188.53L137.745 189.847C137.237 189.829 136.697 189.804 136.131 189.769C135.507 189.732 134.849 189.685 134.156 189.623C132.107 189.442 129.767 189.144 127.153 188.675C126.333 188.53 125.486 188.363 124.61 188.182C123.436 187.938 122.219 187.658 120.955 187.341H120.953C120.024 187.113 119.068 186.86 118.09 186.585H118.088C117.156 186.324 116.203 186.044 115.228 185.74C114.716 185.58 114.198 185.415 113.676 185.245C113.448 185.171 113.216 185.093 112.982 185.017C112.772 184.947 112.556 184.875 112.342 184.801C112.133 184.731 111.921 184.659 111.711 184.585C111.695 184.579 111.678 184.575 111.664 184.568C111.44 184.488 111.22 184.412 110.994 184.334V184.332H110.986V184.33H110.984C110.624 184.203 110.264 184.075 109.902 183.942C109.54 183.812 109.175 183.676 108.809 183.539C107.818 183.169 106.786 182.76 105.713 182.313C105.534 182.242 105.353 182.168 105.172 182.089C105.144 182.077 105.111 182.065 105.082 182.052C104.911 181.98 104.739 181.909 104.566 181.835C104.27 181.709 103.97 181.58 103.666 181.448C103.361 181.319 103.059 181.185 102.751 181.049C102.443 180.914 102.134 180.778 101.82 180.636H101.814C101.807 180.634 101.805 180.634 101.801 180.63C101.503 180.496 101.199 180.361 100.897 180.223C99.6347 179.652 98.3355 179.047 97.0097 178.412C96.8555 178.34 96.7013 178.266 96.5431 178.192C96.541 178.192 96.541 178.192 96.541 178.192C96.4896 178.167 96.4403 178.145 96.3889 178.118C94.7342 177.325 93.0383 176.492 91.3116 175.625C90.8799 175.409 90.4462 175.191 90.0125 174.969C87.5663 173.729 85.0729 172.432 82.5733 171.106C82.1108 170.864 81.6504 170.619 81.1899 170.369C81.1776 170.362 81.1612 170.356 81.1468 170.348C81.0193 170.278 80.8878 170.21 80.7583 170.14C80.3163 169.904 79.8723 169.665 79.4304 169.427C78.2484 168.792 77.0664 168.153 75.8948 167.511C75.5124 167.302 75.128 167.09 74.7478 166.882C73.6727 166.294 72.6058 165.702 71.5452 165.114C71.1628 164.901 70.7805 164.689 70.4002 164.475C70.2666 164.403 70.1371 164.329 70.0035 164.255C69.0661 163.733 68.1411 163.211 67.2264 162.697C66.2253 162.132 65.2407 161.575 64.2746 161.026C63.4996 160.584 62.7349 160.15 61.9826 159.719C61.9477 159.7 61.9127 159.679 61.8778 159.661C61.8305 159.632 61.7853 159.605 61.7359 159.579C61.555 159.474 61.3741 159.371 61.1953 159.27L61.7359 157.591L62.2169 156.092L62.2539 155.977L62.3773 155.599L64.9221 147.687L68.0239 138.047L68.1802 137.559C68.3755 137.605 68.5707 137.65 68.7701 137.695C68.8277 137.707 68.8893 137.724 68.951 137.734C69.2224 137.798 69.4957 137.86 69.7712 137.921C69.7897 137.927 69.8061 137.929 69.8226 137.931C69.9027 137.95 69.9788 137.968 70.059 137.987C70.4906 138.086 70.9264 138.184 71.3684 138.283C71.393 138.289 71.4157 138.293 71.4403 138.299C71.7219 138.361 72.0056 138.425 72.2872 138.489C75.1219 139.122 78.084 139.767 81.1365 140.404C81.5784 140.497 82.0224 140.591 82.4706 140.684C83.1921 140.836 83.9218 140.984 84.6515 141.134C85.9589 141.403 87.2765 141.666 88.6044 141.93C89.2375 142.055 89.8707 142.18 90.5099 142.302C90.5305 142.308 90.5531 142.312 90.5757 142.314C91.4514 142.485 92.3291 142.655 93.211 142.82C93.583 142.892 93.9592 142.964 94.3333 143.033C96.0949 143.364 97.8648 143.689 99.6388 144C100.144 144.09 100.65 144.178 101.156 144.265C101.234 144.277 101.308 144.291 101.384 144.304C101.812 144.378 102.243 144.454 102.675 144.524C104.192 144.783 105.709 145.031 107.22 145.272C107.61 145.336 108.003 145.397 108.391 145.455C108.41 145.461 108.43 145.463 108.453 145.465C108.587 145.486 108.718 145.504 108.852 145.527C109.17 145.578 109.491 145.625 109.81 145.673C110.953 145.845 112.089 146.014 113.22 146.172C113.67 146.236 114.12 146.3 114.566 146.361C114.612 146.368 114.657 146.374 114.702 146.38C115.286 146.46 115.866 146.536 116.445 146.614C118.312 146.859 120.153 147.081 121.96 147.28C122.197 147.307 122.435 147.334 122.672 147.358C123.763 147.476 124.844 147.582 125.911 147.681C126.224 147.71 126.534 147.739 126.846 147.765C126.918 147.772 126.992 147.778 127.064 147.784C127.445 147.817 127.825 147.848 128.203 147.876C128.77 147.922 129.33 147.965 129.885 148.002C130.158 148.02 130.433 148.041 130.705 148.057C132.006 148.139 133.278 148.207 134.52 148.253C134.553 148.255 134.582 148.255 134.61 148.259C134.935 148.271 135.258 148.279 135.576 148.287C135.583 148.29 135.587 148.29 135.593 148.287C135.774 148.294 135.953 148.298 136.131 148.304H136.168C136.499 148.312 136.828 148.316 137.153 148.322C137.153 148.322 136.906 148.086 136.469 147.663C136.378 147.578 136.277 147.48 136.168 147.375C136.156 147.365 136.144 147.354 136.131 147.34C132.29 143.648 118.957 130.782 119.22 130.39C119.37 130.165 116.902 121.22 114.33 112.097C113.074 107.64 111.793 103.143 110.782 99.599C110.603 98.9844 110.439 98.4006 110.278 97.8517C110.27 97.8271 110.266 97.8045 110.258 97.7798C110.188 97.529 110.12 97.2844 110.05 97.0501C109.921 96.5876 109.795 96.1538 109.68 95.7509C109.131 93.8372 108.796 92.6799 108.796 92.6799C108.796 92.6799 113.763 92.4456 118.242 89.2964C121.194 87.2203 123.936 83.8759 124.892 78.4923C125.109 77.2774 125.235 75.9639 125.251 74.5374C125.251 74.5374 125.268 74.5394 125.299 74.5476C125.317 74.5497 125.346 74.5559 125.379 74.5641C125.385 74.5641 125.387 74.5661 125.391 74.5661C125.424 74.5744 125.457 74.5785 125.5 74.5908C125.582 74.6072 125.683 74.6299 125.804 74.6545C125.889 74.6751 125.985 74.6936 126.09 74.7182C126.133 74.7285 126.174 74.7367 126.219 74.747C126.466 74.8025 126.758 74.8662 127.087 74.9444C127.175 74.9649 127.266 74.9875 127.358 75.0081C127.457 75.0286 127.558 75.0533 127.662 75.08C127.695 75.0862 127.726 75.0924 127.755 75.1006C127.893 75.1335 128.037 75.1664 128.185 75.2013C128.357 75.2404 128.538 75.2835 128.725 75.3308C128.851 75.3637 128.98 75.3925 129.114 75.4274C129.282 75.4644 129.451 75.5076 129.628 75.5528C129.693 75.5693 129.761 75.5857 129.827 75.6042C129.936 75.6309 130.047 75.6577 130.162 75.6864C131.11 75.9228 132.168 76.2003 133.313 76.5107C133.591 76.5847 133.874 76.6649 134.162 76.743C134.503 76.8396 134.847 76.9342 135.198 77.0349C135.315 77.0678 135.435 77.1007 135.552 77.1356C135.669 77.1685 135.788 77.2014 135.909 77.2363C136.15 77.3062 136.388 77.3741 136.633 77.446C139.194 78.1963 141.994 79.0884 144.825 80.108C145.778 80.4513 146.736 80.811 147.688 81.1851C147.869 81.255 148.048 81.3269 148.229 81.3989C152.299 83.0207 156.251 84.9036 159.446 87.0291C159.625 87.1463 159.797 87.2655 159.97 87.3868C160.124 87.4916 160.276 87.6006 160.424 87.7054C160.451 87.7239 160.478 87.7424 160.504 87.7609C160.65 87.8678 160.796 87.9747 160.938 88.0836C160.963 88.1001 160.985 88.1186 161.01 88.1371C161.162 88.2522 161.308 88.3652 161.454 88.4804C161.59 88.5872 161.723 88.6941 161.851 88.7969C162.482 89.317 163.066 89.8453 163.59 90.3879C170.133 103.934 172.063 123.606 172.53 137.726C172.532 137.781 172.532 137.835 172.536 137.89C172.56 138.604 172.579 139.305 172.593 139.987C172.606 140.491 172.618 140.986 172.626 141.469C172.628 141.668 172.632 141.868 172.634 142.065C172.643 142.515 172.647 142.957 172.651 143.389C172.653 143.533 172.653 143.677 172.657 143.817C172.655 144.801 172.659 145.728 172.653 146.6Z" fill="#F8EB92"/>
<path d="M129.825 75.6124C129.832 78.8767 129.038 83.4113 125.825 88.4701C122.882 93.1074 117.091 96.4231 110.279 97.862C110.061 97.0891 109.858 96.3881 109.681 95.7612C109.132 93.8474 108.797 92.6902 108.797 92.6902C108.797 92.6902 113.763 92.4558 118.242 89.3067C121.194 87.2305 123.936 83.8861 124.892 78.5025C125.11 77.2877 125.235 75.9742 125.252 74.5476C125.252 74.5476 125.268 74.5497 125.299 74.5579C125.318 74.5599 125.346 74.5661 125.379 74.5743C125.385 74.5743 125.387 74.5764 125.392 74.5764C125.424 74.5846 125.457 74.5887 125.501 74.6011C125.583 74.6175 125.683 74.6401 125.805 74.6648C125.889 74.6853 125.986 74.7038 126.09 74.7285C126.134 74.7388 126.175 74.747 126.22 74.7573C126.467 74.8128 126.759 74.8765 127.087 74.9546C127.176 74.9752 127.266 74.9978 127.359 75.0183C127.457 75.0389 127.558 75.0636 127.663 75.0903C127.696 75.0964 127.727 75.1026 127.755 75.1108C127.893 75.1437 128.037 75.1766 128.185 75.2116C128.358 75.2506 128.539 75.2938 128.726 75.3411C128.851 75.3739 128.981 75.4027 129.114 75.4377C129.283 75.4747 129.451 75.5178 129.628 75.5631C129.692 75.5775 129.758 75.5939 129.825 75.6124Z" fill="#C1E2E8"/>
<path d="M129.825 75.6124C129.832 78.8767 129.038 83.4113 125.825 88.4701C122.882 93.1074 117.091 96.4231 110.279 97.862C110.061 97.0891 109.858 96.3881 109.681 95.7612C109.132 93.8474 108.797 92.6902 108.797 92.6902C108.797 92.6902 113.763 92.4558 118.242 89.3067C121.194 87.2305 123.936 83.8861 124.892 78.5025C125.11 77.2877 125.235 75.9742 125.252 74.5476C125.252 74.5476 125.268 74.5497 125.299 74.5579C125.318 74.5599 125.346 74.5661 125.379 74.5743C125.385 74.5743 125.387 74.5764 125.392 74.5764C125.424 74.5846 125.457 74.5887 125.501 74.6011C125.583 74.6175 125.683 74.6401 125.805 74.6648C125.889 74.6853 125.986 74.7038 126.09 74.7285C126.134 74.7388 126.175 74.747 126.22 74.7573C126.467 74.8128 126.759 74.8765 127.087 74.9546C127.176 74.9752 127.266 74.9978 127.359 75.0183C127.457 75.0389 127.558 75.0636 127.663 75.0903C127.696 75.0964 127.727 75.1026 127.755 75.1108C127.893 75.1437 128.037 75.1766 128.185 75.2116C128.358 75.2506 128.539 75.2938 128.726 75.3411C128.851 75.3739 128.981 75.4027 129.114 75.4377C129.283 75.4747 129.451 75.5178 129.628 75.5631C129.692 75.5775 129.758 75.5939 129.825 75.6124Z" stroke="#3C2F4B" stroke-width="1.43891" stroke-miterlimit="10" stroke-linecap="round" stroke-linejoin="round"/>
<path opacity="0.24" d="M146.289 148.378C146.289 148.378 138.408 148.853 133.836 148.222L135.885 109.601C135.885 109.601 139.357 117.641 142.325 128.04C143.162 127.273 144.186 125.99 144.759 123.99C144.759 123.99 144.987 131.754 143.99 134.215C143.98 134.242 143.97 134.266 143.958 134.289C145.051 138.904 145.925 143.734 146.289 148.378Z" fill="#3C2F4B"/>
<path d="M136.168 106.428V146.178C136.168 147.36 135.175 148.302 133.995 148.236C126.838 147.837 102.099 145.864 61.1991 136.532C60.2617 136.318 59.5957 135.485 59.5957 134.523V91.241C59.5957 90.0939 60.531 89.1689 61.6759 89.1813C71.3947 89.2861 112.105 89.6993 118.476 89.2943C119.057 89.2573 119.625 89.4649 120.042 89.8719C122.889 92.6388 132.937 102.417 135.545 104.954C135.944 105.34 136.168 105.871 136.168 106.428Z" fill="#3AB3C6"/>
<path d="M15.4355 154.758C15.4623 154.752 15.4869 154.75 15.5137 154.746C15.7233 154.709 15.9392 154.672 16.155 154.635C16.3626 154.598 16.5723 154.561 16.784 154.52C17.0574 154.472 17.3328 154.421 17.6083 154.368C17.9721 154.298 18.338 154.226 18.706 154.154C18.893 154.117 19.0821 154.08 19.2671 154.043C20.5149 153.79 21.7873 153.519 23.0638 153.233C23.3228 153.177 23.5777 153.118 23.8367 153.06C23.8429 153.06 23.847 153.058 23.8552 153.054C24.1183 152.997 24.3814 152.935 24.6466 152.873C25.4339 152.692 26.2232 152.505 27.0002 152.32C27.6519 152.166 28.2973 152.006 28.9325 151.85C29.0579 151.821 29.1792 151.788 29.3025 151.757C29.5471 151.7 29.7876 151.638 30.0261 151.578C31.1093 151.305 32.1618 151.036 33.1608 150.774C33.3109 150.735 33.4568 150.696 33.6028 150.659C34.6922 150.372 35.7138 150.1 36.6512 149.845C36.7951 149.808 36.9328 149.767 37.0726 149.73C37.7612 149.543 38.4005 149.368 38.9822 149.206C39.0973 149.173 39.2104 149.142 39.3193 149.114C39.3255 149.112 39.3296 149.112 39.3317 149.112C39.4941 149.064 39.6503 149.021 39.8003 148.978C40.0861 148.898 40.3492 148.824 40.5917 148.758C40.6452 148.742 40.6986 148.725 40.748 148.713C40.8096 148.694 40.8672 148.678 40.9268 148.661C40.9659 148.651 41.007 148.637 41.044 148.628C41.1365 148.6 41.2269 148.575 41.3091 148.55C41.3523 148.538 41.3934 148.526 41.4345 148.515C41.6442 148.454 41.8251 148.4 41.9731 148.361C42.0163 148.349 42.0533 148.337 42.0903 148.326C42.3164 148.261 42.4356 148.226 42.4356 148.226C42.4356 148.226 42.6041 148.326 42.9207 148.522C43.0009 148.567 43.0893 148.622 43.1859 148.682C44.0595 149.208 45.6649 150.178 47.8315 151.467C47.924 151.523 48.0206 151.582 48.1193 151.64C48.2817 151.737 48.4461 151.835 48.6147 151.932C48.7935 152.039 48.9764 152.148 49.1635 152.257C49.3506 152.368 49.5397 152.481 49.7288 152.592C49.9241 152.707 50.1173 152.82 50.3146 152.937C50.5551 153.079 50.7936 153.219 51.0382 153.362C51.1122 153.41 51.1903 153.453 51.2664 153.498C52.4997 154.226 53.8358 155.011 55.2562 155.837" stroke="#3C2F4B" stroke-width="1.43891" stroke-miterlimit="10" stroke-linecap="round" stroke-linejoin="round"/>
<path d="M64.2718 161.034C61.0261 159.188 57.9797 157.431 55.252 155.84" stroke="#3C2F4B" stroke-width="1.43891" stroke-miterlimit="10" stroke-linecap="round" stroke-linejoin="round"/>
<path d="M115.229 185.744C113.179 185.109 111.037 184.379 108.807 183.543C98.262 179.588 82.5019 171.265 68.9844 163.692" stroke="#3C2F4B" stroke-width="1.43891" stroke-miterlimit="10" stroke-linecap="round" stroke-linejoin="round"/>
<path d="M166.354 164.362C166.356 164.36 166.356 164.356 166.36 164.354C166.569 164.05 166.777 163.752 166.98 163.46C167.322 162.966 167.651 162.487 167.965 162.025C170.224 158.707 171.704 154.948 172.327 151.017C172.409 150.495 172.477 149.969 172.526 149.441C172.6 148.684 172.642 147.926 172.652 147.161C172.652 147.134 172.654 147.106 172.652 147.079C172.654 147.042 172.654 147.001 172.654 146.964C172.654 146.84 172.654 146.719 172.654 146.596C172.66 145.726 172.656 144.799 172.652 143.827C172.65 143.685 172.65 143.541 172.646 143.399C172.644 142.968 172.635 142.526 172.629 142.076C172.627 141.878 172.623 141.679 172.621 141.479C172.611 140.994 172.602 140.499 172.588 139.997C172.572 139.313 172.553 138.614 172.531 137.901" stroke="#3C2F4B" stroke-width="1.43891" stroke-miterlimit="10" stroke-linecap="round" stroke-linejoin="round"/>
<path d="M163.587 90.4004C163.062 89.8577 162.479 89.3274 161.848 88.8094C161.718 88.7025 161.584 88.5956 161.451 88.4928C161.305 88.3756 161.159 88.2646 161.007 88.1495C160.982 88.131 160.96 88.1125 160.935 88.0961C160.791 87.9871 160.647 87.8802 160.501 87.7733C160.474 87.7548 160.448 87.7364 160.421 87.7178C160.271 87.6089 160.121 87.502 159.967 87.3992C159.794 87.28 159.621 87.1587 159.443 87.0416C156.248 84.9181 152.295 83.0332 148.225 81.4113C148.044 81.3373 147.865 81.2674 147.685 81.1975C146.731 80.8214 145.773 80.4637 144.821 80.1204C141.991 79.1009 139.191 78.2087 136.63 77.4584C136.387 77.3865 136.145 77.3166 135.906 77.2488C135.787 77.2138 135.666 77.1789 135.548 77.1481C135.431 77.1131 135.312 77.0782 135.195 77.0473C134.843 76.9466 134.5 76.85 134.159 76.7554C133.871 76.6753 133.587 76.5992 133.31 76.5232C132.165 76.2107 131.106 75.9353 130.159 75.6989C129.976 75.6537 129.797 75.6084 129.624 75.5653C129.45 75.52 129.279 75.4769 129.11 75.4399C128.977 75.4049 128.849 75.3741 128.722 75.3433C128.535 75.296 128.354 75.2528 128.181 75.2138C128.031 75.1768 127.891 75.1439 127.754 75.113C127.725 75.1048 127.692 75.0966 127.661 75.0925C127.556 75.0658 127.456 75.0411 127.357 75.0205C127.264 74.9959 127.174 74.9774 127.086 74.9568C126.755 74.8787 126.465 74.815 126.218 74.7595C126.173 74.7492 126.13 74.741 126.089 74.7307C125.984 74.706 125.889 74.6875 125.803 74.667C125.684 74.6423 125.583 74.6197 125.499 74.6032C125.456 74.595 125.421 74.5868 125.39 74.5786C125.384 74.5786 125.382 74.5765 125.377 74.5765C125.345 74.5683 125.316 74.5642 125.297 74.5601C125.264 74.5519 125.25 74.5498 125.25 74.5498" stroke="#3C2F4B" stroke-width="1.43891" stroke-miterlimit="10" stroke-linecap="round" stroke-linejoin="round"/>
<path d="M85.0195 59.4822L93.2871 49.6011C93.2871 49.6011 95.7435 52.3329 92.0085 56.7956C88.2756 61.2583 85.0195 59.4822 85.0195 59.4822Z" fill="#B85052"/>
<path d="M65.2146 60.0045L73.7124 49.9321C73.7124 49.9321 70.2754 50.2795 67.3647 53.8706C64.454 57.4617 65.2146 60.0045 65.2146 60.0045Z" fill="#3C2F4B"/>
<path d="M80.304 41.9669L88.8017 31.8945C88.8017 31.8945 85.3648 32.2419 82.4541 35.833C79.5455 39.4221 80.304 41.9669 80.304 41.9669Z" fill="#3C2F4B"/>
<path d="M73.3477 60.2572C74.4739 60.2572 75.3869 59.3443 75.3869 58.2181C75.3869 57.0919 74.4739 56.179 73.3477 56.179C72.2215 56.179 71.3086 57.0919 71.3086 58.2181C71.3086 59.3443 72.2215 60.2572 73.3477 60.2572Z" fill="#3C2F4B"/>
<path d="M88.4395 42.2196C89.5657 42.2196 90.4787 41.3067 90.4787 40.1805C90.4787 39.0543 89.5657 38.1414 88.4395 38.1414C87.3133 38.1414 86.4004 39.0543 86.4004 40.1805C86.4004 41.3067 87.3133 42.2196 88.4395 42.2196Z" fill="#3C2F4B"/>
<path d="M74.3223 63.5359L78.7541 58.2366" stroke="#3C2F4B" stroke-width="1.43891" stroke-miterlimit="10" stroke-linecap="round" stroke-linejoin="round"/>
<path d="M89.4121 45.4962L93.846 40.199" stroke="#3C2F4B" stroke-width="1.43891" stroke-miterlimit="10" stroke-linecap="round" stroke-linejoin="round"/>
<path d="M114.267 68.5969C114.267 68.5969 111.379 78.9755 114.82 86.6161" stroke="#3C2F4B" stroke-width="1.43891" stroke-miterlimit="10" stroke-linecap="round" stroke-linejoin="round"/>
<path d="M14.8359 123.104C14.8359 123.104 26.1766 123.534 30.3453 125.618" stroke="#3C2F4B" stroke-width="1.43891" stroke-miterlimit="10" stroke-linecap="round" stroke-linejoin="round"/>
<path d="M2.41016 133.465C2.41016 133.465 14.0386 131.806 17.8619 131.806" stroke="#3C2F4B" stroke-width="1.43891" stroke-miterlimit="10" stroke-linecap="round" stroke-linejoin="round"/>
<path d="M4.47656 140.573C4.47656 140.573 16.1461 139.452 17.8604 139.056" stroke="#3C2F4B" stroke-width="1.43891" stroke-miterlimit="10" stroke-linecap="round" stroke-linejoin="round"/>
<path d="M6.85547 148.18C6.85547 148.18 16.344 147.036 17.5322 146.97" stroke="#3C2F4B" stroke-width="1.43891" stroke-miterlimit="10" stroke-linecap="round" stroke-linejoin="round"/>
<path d="M12.6202 114.5C12.6202 114.5 12.2728 116.86 13.0704 118.142C13.0704 118.142 16.3326 118.87 18.7602 116.407" stroke="#3C2F4B" stroke-width="1.43891" stroke-miterlimit="10" stroke-linecap="round" stroke-linejoin="round"/>
<path d="M100.732 31.9191C100.732 31.9191 102.323 23.6105 110.809 25.2015C119.294 26.7925 118.41 42.1703 108.157 42.1703L100.732 31.9191Z" fill="#D86E6C"/>
<path d="M113.637 50.111C111.443 43.2495 106.709 35.6233 97.5332 28.6096" stroke="#3C2F4B" stroke-width="1.43891" stroke-miterlimit="10" stroke-linecap="round" stroke-linejoin="round"/>
<path d="M105.514 34.0959C104.698 32.9674 104.77 31.4154 105.707 30.3856C106.494 29.5202 107.763 28.8316 109.777 29.2077C113.413 29.8902 113.755 35.4197 110.801 37.3828C109.701 38.1125 108.217 37.8309 107.444 36.762L105.514 34.0959Z" fill="#B85052"/>
<path d="M65.6055 69.0408C65.6055 69.0408 75.6696 75.7091 80.2412 77.2117" stroke="#3C2F4B" stroke-width="1.43891" stroke-miterlimit="10" stroke-linecap="round" stroke-linejoin="round"/>
<path d="M54.7988 134.39L55.656 104.937" stroke="#3C2F4B" stroke-width="1.43891" stroke-miterlimit="10" stroke-linecap="round" stroke-linejoin="round"/>
<path d="M148.235 148.917C111.684 148.131 67.3311 137.537 51.7539 133.631" stroke="#3C2F4B" stroke-width="1.43891" stroke-miterlimit="10" stroke-linecap="round" stroke-linejoin="round"/>
<path d="M54.4341 155.48C54.4341 155.48 34.4353 156.781 26.9551 170.601" stroke="#3C2F4B" stroke-width="1.43891" stroke-miterlimit="10" stroke-linecap="round" stroke-linejoin="round"/>
<path d="M53.4565 159.868C53.4565 159.868 48.9034 165.396 50.0422 173.039" stroke="#3C2F4B" stroke-width="1.43891" stroke-miterlimit="10" stroke-linecap="round" stroke-linejoin="round"/>
<path d="M110.978 184.334L110.873 192.182" stroke="#3C2F4B" stroke-width="1.43891" stroke-miterlimit="10" stroke-linecap="round" stroke-linejoin="round"/>
<path d="M50.3084 158.027C50.3084 158.027 39.679 162.962 38.5402 173.591C37.4014 184.221 41.9566 187.448 41.9566 187.448" stroke="#3C2F4B" stroke-width="1.43891" stroke-miterlimit="10" stroke-linecap="round" stroke-linejoin="round"/>
<path d="M136.129 148.314C136.129 148.314 143.971 133.796 144.664 123.411" stroke="#3C2F4B" stroke-width="1.43891" stroke-miterlimit="10" stroke-linecap="round" stroke-linejoin="round"/>
<path opacity="0.24" d="M114.034 67.2567C113.703 68.5271 113.305 69.5569 112.908 70.3051C112.287 71.4727 111.506 72.5889 110.433 73.3618C92.7878 86.0488 73.1467 74.8233 63.3519 67.3574C59.9211 64.7427 59.1174 59.9491 61.432 56.3128C68.2236 45.6546 65.5986 35.2472 63.1566 29.582C63.1566 29.582 70.5793 38.6245 66.0817 50.6476C60.9201 64.4467 68.4024 64.9791 75.7984 69.6864C83.1923 74.3896 99.156 79.767 113.946 67.3328C113.975 67.3081 114.005 67.2814 114.034 67.2567Z" fill="#3C2F4B"/>
<path opacity="0.24" d="M171.171 156.493C171.107 156.649 171.041 156.808 170.974 156.964C170.922 157.081 170.873 157.198 170.817 157.313C170.782 157.392 170.747 157.466 170.71 157.542C170.71 157.544 170.708 157.548 170.708 157.55C170.639 157.696 170.567 157.846 170.493 157.99C170.484 158.006 170.476 158.023 170.468 158.037C170.462 158.047 170.458 158.062 170.449 158.072C170.377 158.216 170.303 158.36 170.225 158.504C170.209 158.532 170.192 158.561 170.178 158.588C170.114 158.711 170.049 158.828 169.979 158.948C169.933 159.026 169.888 159.104 169.841 159.182C169.806 159.244 169.769 159.305 169.73 159.365C169.672 159.466 169.611 159.566 169.547 159.669C169.454 159.815 169.358 159.961 169.261 160.105C168.858 160.703 168.429 161.344 167.964 162.025C167.65 162.487 167.321 162.966 166.98 163.46C166.873 163.612 166.766 163.766 166.661 163.92C166.562 164.064 166.462 164.208 166.361 164.354C166.359 164.356 166.359 164.36 166.355 164.362L165.206 165.511L147.028 181.621L146.755 181.865L143.476 184.77L141.122 186.856L139.753 188.071L139.231 188.532L137.745 189.849C137.237 189.831 136.697 189.806 136.131 189.771C135.507 189.734 134.849 189.687 134.156 189.625C132.107 189.444 129.767 189.146 127.153 188.677C126.333 188.532 125.486 188.365 124.61 188.184C123.436 187.94 122.219 187.66 120.955 187.343H120.953C120.024 187.115 119.068 186.862 118.09 186.587H118.088C117.156 186.326 116.203 186.046 115.228 185.742C114.716 185.582 114.198 185.417 113.676 185.247C113.448 185.173 113.216 185.095 112.982 185.019C112.772 184.949 112.556 184.877 112.342 184.803C112.133 184.733 111.921 184.661 111.711 184.587C111.695 184.581 111.678 184.577 111.664 184.57C111.44 184.49 111.22 184.414 110.994 184.336V184.334H110.986V184.332H110.984C110.624 184.205 110.264 184.077 109.902 183.943C109.54 183.814 109.175 183.678 108.809 183.541C107.818 183.171 106.786 182.762 105.713 182.315C105.534 182.244 105.353 182.17 105.172 182.091C105.144 182.079 105.111 182.067 105.082 182.054C104.911 181.982 104.739 181.911 104.566 181.837C104.27 181.711 103.97 181.582 103.666 181.45C103.361 181.321 103.059 181.187 102.751 181.051C102.443 180.916 102.134 180.78 101.82 180.638H101.814C101.807 180.636 101.805 180.636 101.801 180.632C101.503 180.498 101.199 180.363 100.897 180.225C99.6347 179.653 98.3355 179.049 97.0097 178.414C96.8555 178.342 96.7014 178.268 96.5431 178.194C96.541 178.194 96.541 178.194 96.541 178.194C96.4896 178.169 96.4403 178.147 96.3889 178.12C94.7342 177.327 93.0383 176.494 91.3116 175.627C90.8799 175.411 90.4462 175.193 90.0125 174.971C87.5663 173.731 85.0729 172.434 82.5733 171.108C82.1108 170.866 81.6504 170.621 81.1899 170.37C81.1776 170.364 81.1612 170.358 81.1468 170.35C81.0193 170.28 80.8878 170.212 80.7583 170.142C80.3163 169.906 79.8723 169.667 79.4304 169.429C78.2484 168.794 77.0664 168.155 75.8948 167.513C75.5124 167.304 75.128 167.092 74.7478 166.884C73.6727 166.296 72.6058 165.704 71.5452 165.116C71.1628 164.903 70.7805 164.691 70.4002 164.477C70.2666 164.405 70.1371 164.331 70.0035 164.257C69.0661 163.735 68.1411 163.213 67.2264 162.699C66.2253 162.134 65.2407 161.577 64.2746 161.028C63.4996 160.586 62.7349 160.152 61.9826 159.721C61.9477 159.702 61.9127 159.681 61.8778 159.663C61.8305 159.634 61.7853 159.607 61.7359 159.581C61.555 159.476 61.3741 159.373 61.1953 159.272L61.7359 157.593L62.2169 156.094L62.2539 155.979L62.3773 155.601C68.3755 157.718 75.2843 160.066 82.4706 162.327C82.6206 162.372 82.7666 162.42 82.9146 162.465C92.3641 165.433 102.27 168.243 111.185 170.179C120.271 172.153 128.329 173.217 133.823 172.609C134.606 172.525 135.375 172.422 136.134 172.311C157.771 169.168 169.962 156.59 171.257 155.032C171.315 154.96 171.35 154.97 171.364 155.052C171.389 155.235 171.319 155.735 171.171 156.493Z" fill="#3C2F4B"/>
<path opacity="0.24" d="M117.562 182.61C117.571 182.593 117.579 182.593 117.583 182.612C117.596 182.643 117.588 182.639 117.562 182.61Z" fill="#3C2F4B"/>
<path opacity="0.24" d="M30.1309 125.485L14.6401 123.252C14.858 123.232 15.0717 123.213 15.2835 123.195C15.2835 123.195 15.2403 123.17 15.1663 123.121H15.1642C14.8641 122.932 14.0152 122.375 13.123 121.571C14.0357 121.421 19.7091 120.578 24.846 121.752C30.4516 123.03 30.1309 125.485 30.1309 125.485Z" fill="#3C2F4B"/>
<path opacity="0.24" d="M42.0859 148.326C42.0859 148.326 44.419 145.319 43.7592 138.24C43.7592 138.24 46.7973 145.048 46.4006 150.606L42.0859 148.326Z" fill="#3C2F4B"/>
<path opacity="0.24" d="M136.168 131.399V148.331C136.168 148.331 109.793 147.733 59.5957 136.16V135.549C59.5957 135.549 118.352 141.253 128.809 139.743C133.105 139.122 135.198 135.477 136.168 131.399Z" fill="#3C2F4B"/>
<path opacity="0.24" d="M22.5211 153.27C22.1059 153.361 19.6762 153.959 19.2651 154.041C19.078 154.078 18.8889 154.115 18.7039 154.152C18.336 154.224 17.9721 154.296 17.6062 154.366C17.3287 154.419 17.0553 154.471 16.782 154.518C16.5723 154.557 16.3606 154.596 16.1529 154.633C15.9371 154.67 15.7213 154.707 15.5116 154.744C15.4849 154.75 15.4602 154.752 15.4335 154.756C13.1251 155.147 11.0037 155.426 9.24415 155.531C9.24415 155.531 6.44856 154.746 5.67772 152.66C5.43721 152.018 5.39199 151.254 5.67772 150.351C5.87916 149.702 6.25533 148.978 6.85351 148.179C6.85351 148.179 6.32933 147.959 5.67772 147.531C5.54821 147.449 5.4146 147.356 5.27482 147.253C3.6653 146.069 1.78239 143.778 4.67665 140.55C4.68693 140.538 4.6972 140.526 4.70954 140.513C4.70954 140.513 2.84102 139.673 1.81323 138.195C1.04649 137.101 0.74638 135.656 2.01467 133.944C2.13184 133.787 2.26134 133.625 2.40934 133.463C2.40934 133.463 2.26751 133.329 2.05578 133.095C0.970438 131.9 -1.99576 128.052 2.10306 125.489C2.10306 125.489 11.3717 127.46 15.8014 126.934C21.8222 126.223 22.3772 147.064 22.5211 153.27Z" fill="#3C2F4B"/>
<path d="M88.9141 69.1992C88.9141 69.1992 102.173 63.5073 103.408 48.5735C103.408 48.5735 108.115 59.0302 103.548 65.1579C97.8867 72.7533 88.9141 69.1992 88.9141 69.1992Z" fill="white"/>
<path d="M88.9141 69.1991C88.9141 69.1991 93.239 66.4487 94.9164 62.7199C95.2144 62.06 95.716 61.5112 96.3635 61.1885C97.2926 60.726 97.8805 59.7763 97.8805 58.7403C97.8805 58.2387 98.084 57.7598 98.4437 57.4083C99.675 56.2016 102.569 52.9764 103.408 48.5754C103.408 48.5754 104.682 54.5366 99.5496 61.4907C94.9719 67.6862 88.9141 69.1991 88.9141 69.1991Z" fill="#B85052"/>
</g>
<defs>
<clipPath id="clip0">
<rect width="173.376" height="208" fill="white"/>
</clipPath>
</defs>
</svg>
