<svg width="525" height="372" viewBox="0 0 525 372" fill="none" xmlns="http://www.w3.org/2000/svg">
<path d="M482.756 67.4058V333.361C482.756 340.85 476.594 346.921 468.991 346.921H55.9451C48.3414 346.921 42.1797 340.85 42.1797 333.361V67.4058C42.1797 59.9171 48.3414 53.8459 55.9451 53.8459H468.987C476.594 53.8459 482.756 59.9171 482.756 67.4058Z" fill="#023A59"/>
<path d="M419.655 337.966H373.789V353.7H419.655V337.966Z" fill="#1C2130"/>
<path d="M151.155 337.966H105.289V353.7H151.155V337.966Z" fill="#1C2130"/>
<path d="M466.816 75.5215V325.249C466.816 327.102 465.311 328.603 463.458 328.603H61.4749C59.6219 328.603 58.1172 327.099 58.1172 325.249V75.5215C58.1172 73.6685 59.6219 72.1672 61.4749 72.1672H463.458C465.311 72.1672 466.816 73.6685 466.816 75.5215Z" fill="#46B2C8"/>
<path d="M502.928 372H22.01C9.85382 372 0 361.638 0 348.851H524.942C524.942 361.638 515.084 372 502.928 372Z" fill="#023A59"/>
<path d="M34.4853 361.401H27.4563C26.9024 361.401 26.4531 360.952 26.4531 360.398C26.4531 359.844 26.9024 359.395 27.4563 359.395H34.4853C35.0391 359.395 35.4884 359.844 35.4884 360.398C35.4919 360.952 35.0426 361.401 34.4853 361.401Z" fill="#F2F2F2"/>
<path d="M45.1962 361.401H38.1672C37.6134 361.401 37.1641 360.952 37.1641 360.398C37.1641 359.844 37.6134 359.395 38.1672 359.395H45.1962C45.75 359.395 46.1993 359.844 46.1993 360.398C46.1993 360.952 45.75 361.401 45.1962 361.401Z" fill="#F2F2F2"/>
<path d="M55.9149 361.401H48.886C48.3321 361.401 47.8828 360.952 47.8828 360.398C47.8828 359.844 48.3321 359.395 48.886 359.395H55.9149C56.4688 359.395 56.9181 359.844 56.9181 360.398C56.9181 360.952 56.4688 361.401 55.9149 361.401Z" fill="#F2F2F2"/>
<path d="M263.454 65.3263C264.756 64.7867 265.375 63.2931 264.835 61.9904C264.296 60.6876 262.802 60.069 261.499 60.6086C260.197 61.1482 259.578 62.6418 260.118 63.9446C260.657 65.2473 262.151 65.8659 263.454 65.3263Z" fill="white"/>
<path opacity="0.3" d="M466.816 75.5215V168.003C441.911 182.353 414.523 192.381 386.233 197.463C341.743 205.45 296.044 201.235 251.16 195.916C206.276 190.601 161.1 184.189 116.056 187.867C94.9096 189.595 75.9788 193.945 58.1172 200.654V75.5215C58.1172 73.6685 59.6219 72.1672 61.4749 72.1672H463.458C465.311 72.1672 466.816 73.6685 466.816 75.5215Z" fill="url(#paint0_linear_2817_23356)"/>
<path opacity="0.5" d="M440.903 53.8459H84.0234V330.432H440.903V53.8459Z" fill="#999999"/>
<path d="M436.721 0H88.2109V328.76H436.721V0Z" fill="white"/>
<path d="M436.721 0H88.2109V25.6116H436.721V0Z" fill="#115766"/>
<path d="M106.17 17.3495C108.719 17.3495 110.785 15.2832 110.785 12.7343C110.785 10.1854 108.719 8.11914 106.17 8.11914C103.621 8.11914 101.555 10.1854 101.555 12.7343C101.555 15.2832 103.621 17.3495 106.17 17.3495Z" fill="#46B2C8"/>
<path d="M122.892 16.0673C124.694 14.265 124.694 11.3429 122.892 9.54057C121.089 7.73825 118.167 7.73825 116.365 9.54057C114.563 11.3429 114.563 14.265 116.365 16.0673C118.167 17.8697 121.089 17.8697 122.892 16.0673Z" fill="#FBB03B"/>
<path d="M137.629 13.653C138.062 11.141 136.376 8.75427 133.864 8.32198C131.352 7.88969 128.965 9.57557 128.533 12.0875C128.1 14.5994 129.786 16.9862 132.298 17.4185C134.81 17.8508 137.197 16.1649 137.629 13.653Z" fill="#39B54A"/>
<path d="M271.137 59.19C271.961 54.1086 268.511 49.3209 263.429 48.4962C258.348 47.6715 253.56 51.1222 252.735 56.2036C251.911 61.285 255.361 66.0728 260.443 66.8975C265.524 67.7222 270.312 64.2714 271.137 59.19Z" fill="#023A59"/>
<path d="M265.504 66.3091C270.26 64.339 272.518 58.8865 270.548 54.1304C268.578 49.3744 263.125 47.1159 258.369 49.086C253.613 51.056 251.355 56.5086 253.325 61.2647C255.295 66.0207 260.748 68.2792 265.504 66.3091Z" fill="#023A59"/>
<path d="M271.137 59.19C271.961 54.1086 268.511 49.3209 263.429 48.4962C258.348 47.6715 253.56 51.1222 252.735 56.2036C251.911 61.285 255.361 66.0728 260.443 66.8975C265.524 67.7222 270.312 64.2714 271.137 59.19Z" fill="#023A59"/>
<path d="M271.137 59.19C271.961 54.1086 268.511 49.3209 263.429 48.4962C258.348 47.6715 253.56 51.1222 252.735 56.2036C251.911 61.285 255.361 66.0728 260.443 66.8975C265.524 67.7222 270.312 64.2714 271.137 59.19Z" fill="#115766"/>
<path d="M281.998 85.6611H241.852C241.852 84.0833 242.123 82.5611 242.628 81.1156C243.976 77.2807 246.989 74.017 250.988 71.8888C254.133 70.2099 257.891 69.2346 261.925 69.2346C265.474 69.2346 268.808 69.9905 271.702 71.314C272.284 71.5788 272.848 71.8644 273.388 72.1779C276.895 74.1737 279.581 77.0578 280.964 80.4329C281.054 80.6593 281.145 80.8857 281.222 81.1156C281.727 82.5611 281.998 84.0833 281.998 85.6611Z" fill="#115766"/>
<path d="M211.039 101.75C211.119 101.75 211.192 101.781 211.258 101.847L211.833 102.478C211.387 102.993 210.847 103.394 210.214 103.683C209.58 103.972 208.813 104.115 207.922 104.115C207.138 104.115 206.427 103.979 205.79 103.707C205.153 103.436 204.609 103.059 204.16 102.572C203.71 102.084 203.362 101.499 203.115 100.816C202.868 100.134 202.742 99.3847 202.742 98.5662C202.742 97.7476 202.875 96.9953 203.139 96.3126C203.404 95.6299 203.777 95.0447 204.257 94.5536C204.738 94.0625 205.313 93.6828 205.982 93.4111C206.65 93.1394 207.389 93.0071 208.2 93.0071C208.998 93.0071 209.688 93.1325 210.266 93.3798C210.844 93.6271 211.359 93.9649 211.809 94.3864L211.332 95.0621C211.297 95.1144 211.255 95.1527 211.21 95.1875C211.164 95.2224 211.098 95.2363 211.011 95.2363C210.945 95.2363 210.875 95.2119 210.802 95.1631C210.729 95.1144 210.642 95.0552 210.541 94.9855C210.44 94.9158 210.322 94.8392 210.186 94.7591C210.05 94.679 209.886 94.6024 209.702 94.5327C209.513 94.463 209.297 94.4038 209.05 94.3551C208.803 94.3063 208.517 94.2819 208.193 94.2819C207.612 94.2819 207.079 94.3829 206.598 94.5814C206.114 94.78 205.699 95.0656 205.351 95.4348C205.003 95.804 204.731 96.2534 204.536 96.7828C204.341 97.3122 204.243 97.9079 204.243 98.5662C204.243 99.2419 204.341 99.848 204.536 100.377C204.731 100.907 204.996 101.356 205.33 101.722C205.668 102.088 206.065 102.366 206.525 102.561C206.985 102.753 207.479 102.85 208.012 102.85C208.336 102.85 208.625 102.833 208.883 102.795C209.141 102.756 209.381 102.697 209.6 102.617C209.82 102.537 210.025 102.432 210.214 102.311C210.402 102.185 210.593 102.039 210.785 101.868C210.875 101.788 210.955 101.75 211.039 101.75Z" fill="#3A4363"/>
<path d="M213.555 103.993V96.3125H214.328C214.474 96.3125 214.575 96.3404 214.631 96.3961C214.687 96.4519 214.725 96.5494 214.746 96.6852L214.836 97.8834C215.098 97.347 215.425 96.929 215.812 96.6295C216.198 96.3299 216.651 96.1802 217.174 96.1802C217.386 96.1802 217.578 96.2046 217.748 96.2533C217.919 96.3021 218.079 96.3683 218.226 96.4553L218.051 97.4655C218.017 97.5909 217.936 97.6535 217.818 97.6535C217.748 97.6535 217.637 97.6292 217.491 97.5804C217.344 97.5316 217.139 97.5073 216.878 97.5073C216.407 97.5073 216.014 97.6431 215.7 97.9183C215.387 98.1934 215.122 98.587 214.91 99.1095V104H213.555V103.993Z" fill="#3A4363"/>
<path d="M222.706 96.1941C223.165 96.1941 223.59 96.2707 223.981 96.424C224.371 96.5772 224.705 96.8002 224.987 97.0927C225.269 97.3819 225.492 97.7441 225.649 98.1691C225.809 98.5975 225.889 99.0816 225.889 99.6285C225.889 99.841 225.868 99.9838 225.823 100.053C225.778 100.123 225.691 100.158 225.565 100.158H220.456C220.466 100.642 220.532 101.067 220.654 101.422C220.776 101.781 220.943 102.081 221.156 102.321C221.368 102.561 221.622 102.742 221.915 102.861C222.208 102.979 222.538 103.038 222.901 103.038C223.239 103.038 223.531 103 223.775 102.92C224.019 102.843 224.231 102.756 224.409 102.666C224.587 102.575 224.733 102.492 224.851 102.412C224.97 102.335 225.071 102.293 225.158 102.293C225.269 102.293 225.356 102.335 225.416 102.422L225.795 102.917C225.628 103.119 225.429 103.296 225.196 103.443C224.963 103.592 224.715 103.714 224.451 103.812C224.186 103.909 223.911 103.979 223.629 104.028C223.347 104.076 223.064 104.101 222.786 104.101C222.256 104.101 221.765 104.01 221.319 103.833C220.874 103.652 220.487 103.39 220.16 103.045C219.832 102.701 219.581 102.272 219.397 101.76C219.216 101.252 219.125 100.663 219.125 100.001C219.125 99.4648 219.209 98.9667 219.372 98.4999C219.536 98.0367 219.773 97.6326 220.083 97.2913C220.389 96.9499 220.769 96.6817 221.211 96.4867C221.65 96.2916 222.152 96.1941 222.706 96.1941ZM222.737 97.1868C222.086 97.1868 221.57 97.3749 221.197 97.7511C220.825 98.1272 220.591 98.6497 220.501 99.315H224.677C224.677 99.0015 224.635 98.7159 224.548 98.4546C224.461 98.1934 224.336 97.9705 224.169 97.7789C224.001 97.5908 223.799 97.4411 223.559 97.3401C223.319 97.239 223.044 97.1868 222.737 97.1868Z" fill="#3A4363"/>
<path d="M233.253 103.993H232.653C232.521 103.993 232.417 103.972 232.333 103.934C232.253 103.892 232.201 103.808 232.173 103.676L232.023 102.962C231.821 103.143 231.622 103.307 231.431 103.45C231.239 103.592 231.037 103.714 230.825 103.812C230.612 103.909 230.386 103.986 230.146 104.035C229.905 104.087 229.64 104.111 229.344 104.111C229.045 104.111 228.766 104.07 228.505 103.986C228.244 103.902 228.017 103.777 227.826 103.61C227.634 103.443 227.481 103.23 227.366 102.976C227.251 102.722 227.195 102.419 227.195 102.067C227.195 101.764 227.279 101.471 227.446 101.189C227.613 100.907 227.882 100.656 228.254 100.44C228.627 100.221 229.111 100.043 229.714 99.9038C230.316 99.7645 231.051 99.6948 231.918 99.6948V99.0923C231.918 98.4932 231.79 98.0369 231.535 97.7304C231.281 97.4238 230.901 97.2706 230.403 97.2706C230.076 97.2706 229.797 97.3124 229.574 97.396C229.348 97.4796 229.156 97.5736 228.989 97.6781C228.825 97.7826 228.683 97.8766 228.564 97.9602C228.446 98.0438 228.327 98.0856 228.212 98.0856C228.122 98.0856 228.042 98.0613 227.972 98.0125C227.902 97.9637 227.85 97.9045 227.808 97.8348L227.565 97.4029C227.989 96.9954 228.446 96.6889 228.937 96.4869C229.428 96.2848 229.971 96.1838 230.567 96.1838C230.995 96.1838 231.379 96.2535 231.713 96.3963C232.047 96.5391 232.326 96.7342 232.556 96.9884C232.782 97.2392 232.956 97.5457 233.071 97.9045C233.186 98.2633 233.246 98.6569 233.246 99.0888V103.993H233.253ZM229.748 103.168C229.985 103.168 230.205 103.143 230.4 103.094C230.598 103.046 230.783 102.979 230.957 102.889C231.131 102.802 231.298 102.694 231.459 102.568C231.619 102.443 231.772 102.297 231.925 102.137V100.552C231.302 100.552 230.776 100.59 230.341 100.67C229.905 100.75 229.553 100.851 229.278 100.98C229.007 101.106 228.808 101.259 228.683 101.429C228.557 101.604 228.498 101.795 228.498 102.008C228.498 102.21 228.529 102.387 228.596 102.534C228.662 102.68 228.749 102.802 228.86 102.896C228.972 102.99 229.104 103.06 229.254 103.101C229.407 103.147 229.571 103.168 229.748 103.168Z" fill="#3A4363"/>
<path d="M237.627 104.115C237.021 104.115 236.554 103.944 236.227 103.606C235.899 103.268 235.739 102.781 235.739 102.143V97.4411H234.813C234.732 97.4411 234.663 97.4167 234.607 97.368C234.551 97.3192 234.523 97.2461 234.523 97.1451V96.6052L235.781 96.445L236.091 94.0729C236.101 93.9963 236.133 93.9336 236.188 93.8883C236.244 93.8396 236.314 93.8152 236.401 93.8152H237.084V96.4624H239.281V97.4411H237.084V102.049C237.084 102.373 237.164 102.614 237.317 102.77C237.474 102.927 237.676 103.004 237.923 103.004C238.066 103.004 238.188 102.986 238.292 102.948C238.397 102.91 238.484 102.868 238.56 102.823C238.637 102.777 238.7 102.736 238.755 102.697C238.808 102.659 238.856 102.641 238.895 102.641C238.964 102.641 239.027 102.683 239.083 102.77L239.476 103.415C239.243 103.631 238.964 103.801 238.634 103.927C238.313 104.052 237.975 104.115 237.627 104.115Z" fill="#3A4363"/>
<path d="M243.995 96.1941C244.455 96.1941 244.879 96.2707 245.27 96.424C245.66 96.5772 245.994 96.8002 246.276 97.0927C246.558 97.3819 246.781 97.7441 246.938 98.1691C247.098 98.5975 247.178 99.0816 247.178 99.6285C247.178 99.841 247.157 99.9838 247.112 100.053C247.067 100.123 246.98 100.158 246.854 100.158H241.745C241.755 100.642 241.821 101.067 241.943 101.422C242.065 101.781 242.232 102.081 242.445 102.321C242.657 102.561 242.911 102.742 243.204 102.861C243.497 102.979 243.828 103.038 244.19 103.038C244.528 103.038 244.82 103 245.064 102.92C245.308 102.843 245.52 102.756 245.698 102.666C245.876 102.575 246.022 102.492 246.14 102.412C246.259 102.335 246.36 102.293 246.447 102.293C246.558 102.293 246.645 102.335 246.705 102.422L247.084 102.917C246.917 103.119 246.719 103.296 246.485 103.443C246.252 103.592 246.005 103.714 245.74 103.812C245.475 103.909 245.2 103.979 244.918 104.028C244.636 104.076 244.354 104.101 244.075 104.101C243.545 104.101 243.054 104.01 242.608 103.833C242.163 103.652 241.776 103.39 241.449 103.045C241.121 102.701 240.867 102.272 240.686 101.76C240.505 101.252 240.414 100.663 240.414 100.001C240.414 99.4648 240.498 98.9667 240.661 98.4999C240.825 98.0367 241.062 97.6326 241.372 97.2913C241.678 96.9499 242.058 96.6817 242.5 96.4867C242.936 96.2916 243.437 96.1941 243.995 96.1941ZM244.026 97.1868C243.375 97.1868 242.859 97.3749 242.487 97.7511C242.114 98.1272 241.88 98.6497 241.79 99.315H245.966C245.966 99.0015 245.924 98.7159 245.837 98.4546C245.75 98.1934 245.625 97.9705 245.458 97.7789C245.29 97.5908 245.088 97.4411 244.848 97.3401C244.608 97.239 244.333 97.1868 244.026 97.1868Z" fill="#3A4363"/>
<path d="M257.463 103.993H256.864C256.732 103.993 256.627 103.972 256.544 103.934C256.464 103.892 256.412 103.808 256.384 103.676L256.234 102.962C256.032 103.143 255.833 103.307 255.642 103.45C255.45 103.592 255.248 103.714 255.036 103.812C254.823 103.909 254.597 103.986 254.356 104.035C254.116 104.087 253.851 104.111 253.555 104.111C253.256 104.111 252.977 104.07 252.716 103.986C252.455 103.902 252.228 103.777 252.037 103.61C251.845 103.443 251.692 103.23 251.577 102.976C251.462 102.722 251.406 102.419 251.406 102.067C251.406 101.764 251.49 101.471 251.657 101.189C251.824 100.907 252.092 100.656 252.465 100.44C252.838 100.221 253.322 100.043 253.925 99.9038C254.527 99.7645 255.262 99.6948 256.129 99.6948V99.0923C256.129 98.4932 256.001 98.0369 255.746 97.7304C255.492 97.4238 255.112 97.2706 254.614 97.2706C254.287 97.2706 254.008 97.3124 253.785 97.396C253.559 97.4796 253.367 97.5736 253.2 97.6781C253.036 97.7826 252.894 97.8766 252.775 97.9602C252.657 98.0438 252.538 98.0856 252.423 98.0856C252.333 98.0856 252.253 98.0613 252.183 98.0125C252.113 97.9637 252.061 97.9045 252.019 97.8348L251.775 97.4029C252.2 96.9954 252.657 96.6889 253.148 96.4869C253.639 96.2848 254.182 96.1838 254.778 96.1838C255.206 96.1838 255.589 96.2535 255.924 96.3963C256.258 96.5391 256.537 96.7342 256.767 96.9884C256.993 97.2392 257.167 97.5457 257.282 97.9045C257.397 98.2633 257.456 98.6569 257.456 99.0888V103.993H257.463ZM253.963 103.168C254.2 103.168 254.419 103.143 254.614 103.094C254.813 103.046 254.997 102.979 255.172 102.889C255.346 102.802 255.513 102.694 255.673 102.568C255.833 102.443 255.987 102.297 256.14 102.137V100.552C255.516 100.552 254.99 100.59 254.555 100.67C254.12 100.75 253.768 100.851 253.493 100.98C253.221 101.106 253.022 101.259 252.897 101.429C252.772 101.604 252.712 101.795 252.712 102.008C252.712 102.21 252.744 102.387 252.81 102.534C252.876 102.68 252.963 102.802 253.075 102.896C253.186 102.99 253.319 103.06 253.468 103.101C253.622 103.147 253.785 103.168 253.963 103.168Z" fill="#3A4363"/>
<path d="M259.508 103.993V96.3126H260.312C260.504 96.3126 260.626 96.4066 260.675 96.5947L260.779 97.4272C261.114 97.058 261.486 96.7584 261.897 96.532C262.308 96.3056 262.785 96.1907 263.325 96.1907C263.743 96.1907 264.116 96.2603 264.436 96.3997C264.757 96.539 265.025 96.7341 265.241 96.9918C265.457 97.2461 265.617 97.5526 265.729 97.9113C265.84 98.2701 265.896 98.6672 265.896 99.1026V103.993H264.548V99.1026C264.548 98.5209 264.416 98.0716 264.151 97.7511C263.886 97.4307 263.479 97.2705 262.935 97.2705C262.535 97.2705 262.162 97.3645 261.817 97.5596C261.472 97.7511 261.152 98.0124 260.859 98.3398V103.996H259.508V103.993Z" fill="#3A4363"/>
<path d="M276.51 103.993H275.911C275.779 103.993 275.674 103.972 275.591 103.934C275.511 103.892 275.458 103.808 275.431 103.676L275.281 102.962C275.079 103.143 274.88 103.307 274.689 103.45C274.497 103.592 274.295 103.714 274.083 103.812C273.87 103.909 273.644 103.986 273.403 104.035C273.163 104.087 272.898 104.111 272.602 104.111C272.303 104.111 272.024 104.07 271.763 103.986C271.502 103.902 271.275 103.777 271.084 103.61C270.892 103.443 270.739 103.23 270.624 102.976C270.509 102.722 270.453 102.419 270.453 102.067C270.453 101.764 270.537 101.471 270.704 101.189C270.871 100.907 271.139 100.656 271.512 100.44C271.885 100.221 272.369 100.043 272.971 99.9038C273.574 99.7645 274.309 99.6948 275.176 99.6948V99.0923C275.176 98.4932 275.047 98.0369 274.793 97.7304C274.539 97.4238 274.159 97.2706 273.661 97.2706C273.334 97.2706 273.055 97.3124 272.832 97.396C272.606 97.4796 272.414 97.5736 272.247 97.6781C272.083 97.7826 271.94 97.8766 271.822 97.9602C271.704 98.0438 271.585 98.0856 271.47 98.0856C271.38 98.0856 271.3 98.0613 271.23 98.0125C271.16 97.9637 271.108 97.9045 271.066 97.8348L270.822 97.4029C271.247 96.9954 271.704 96.6889 272.195 96.4869C272.686 96.2848 273.229 96.1838 273.825 96.1838C274.253 96.1838 274.636 96.2535 274.971 96.3963C275.305 96.5391 275.584 96.7342 275.814 96.9884C276.04 97.2392 276.214 97.5457 276.329 97.9045C276.444 98.2633 276.503 98.6569 276.503 99.0888V103.993H276.51ZM273.006 103.168C273.243 103.168 273.463 103.143 273.658 103.094C273.856 103.046 274.041 102.979 274.215 102.889C274.389 102.802 274.556 102.694 274.716 102.568C274.877 102.443 275.03 102.297 275.183 102.137V100.552C274.56 100.552 274.034 100.59 273.598 100.67C273.163 100.75 272.811 100.851 272.536 100.98C272.264 101.106 272.066 101.259 271.94 101.429C271.815 101.604 271.756 101.795 271.756 102.008C271.756 102.21 271.787 102.387 271.853 102.534C271.919 102.68 272.007 102.802 272.118 102.896C272.229 102.99 272.362 103.06 272.512 103.101C272.665 103.147 272.829 103.168 273.006 103.168Z" fill="#3A4363"/>
<path d="M283.792 97.678C283.751 97.7337 283.712 97.7755 283.671 97.8069C283.629 97.8382 283.573 97.8521 283.496 97.8521C283.42 97.8521 283.34 97.8208 283.249 97.7581C283.162 97.6954 283.047 97.6257 282.911 97.5491C282.775 97.4725 282.608 97.4028 282.413 97.3401C282.218 97.2774 281.978 97.2461 281.696 97.2461C281.319 97.2461 280.992 97.3123 280.703 97.4481C280.414 97.5805 280.174 97.7755 279.978 98.0263C279.783 98.2806 279.637 98.5836 279.54 98.9424C279.442 99.3011 279.39 99.7017 279.39 100.148C279.39 100.614 279.442 101.025 279.55 101.388C279.655 101.75 279.804 102.053 279.996 102.297C280.187 102.54 280.421 102.729 280.696 102.857C280.971 102.986 281.281 103.049 281.626 103.049C281.953 103.049 282.225 103.011 282.438 102.931C282.65 102.854 282.828 102.767 282.967 102.669C283.11 102.572 283.225 102.485 283.315 102.408C283.406 102.331 283.496 102.29 283.587 102.29C283.702 102.29 283.789 102.331 283.845 102.419L284.224 102.913C283.89 103.324 283.472 103.624 282.974 103.812C282.472 104 281.946 104.097 281.389 104.097C280.908 104.097 280.463 104.01 280.052 103.833C279.641 103.655 279.282 103.401 278.979 103.063C278.676 102.725 278.435 102.314 278.261 101.823C278.087 101.332 278 100.775 278 100.148C278 99.5763 278.08 99.0469 278.24 98.5627C278.401 98.0785 278.63 97.6606 278.937 97.3088C279.244 96.957 279.62 96.6818 280.069 96.4868C280.518 96.2882 281.034 96.1907 281.616 96.1907C282.152 96.1907 282.626 96.2778 283.04 96.4519C283.455 96.6261 283.82 96.8734 284.141 97.1904L283.792 97.678Z" fill="#3A4363"/>
<path d="M290.871 97.678C290.829 97.7337 290.79 97.7755 290.749 97.8069C290.707 97.8382 290.651 97.8521 290.574 97.8521C290.498 97.8521 290.418 97.8208 290.327 97.7581C290.24 97.6954 290.125 97.6257 289.989 97.5491C289.854 97.4725 289.686 97.4028 289.491 97.3401C289.296 97.2774 289.056 97.2461 288.774 97.2461C288.398 97.2461 288.07 97.3123 287.781 97.4481C287.492 97.5805 287.252 97.7755 287.057 98.0263C286.861 98.2806 286.715 98.5836 286.618 98.9424C286.52 99.3011 286.468 99.7017 286.468 100.148C286.468 100.614 286.52 101.025 286.628 101.388C286.733 101.75 286.882 102.053 287.074 102.297C287.266 102.54 287.499 102.729 287.774 102.857C288.049 102.986 288.359 103.049 288.704 103.049C289.031 103.049 289.303 103.011 289.516 102.931C289.728 102.854 289.906 102.767 290.045 102.669C290.188 102.572 290.303 102.485 290.393 102.408C290.484 102.331 290.575 102.29 290.665 102.29C290.78 102.29 290.867 102.331 290.923 102.419L291.303 102.913C290.968 103.324 290.55 103.624 290.052 103.812C289.55 104 289.025 104.097 288.467 104.097C287.987 104.097 287.541 104.01 287.13 103.833C286.719 103.655 286.36 103.401 286.057 103.063C285.754 102.725 285.514 102.314 285.339 101.823C285.165 101.332 285.078 100.775 285.078 100.148C285.078 99.5763 285.158 99.0469 285.318 98.5627C285.479 98.0785 285.709 97.6606 286.015 97.3088C286.322 96.957 286.698 96.6818 287.147 96.4868C287.596 96.2882 288.112 96.1907 288.694 96.1907C289.23 96.1907 289.704 96.2778 290.118 96.4519C290.533 96.6261 290.898 96.8734 291.219 97.1904L290.871 97.678Z" fill="#3A4363"/>
<path d="M295.832 96.1941C296.393 96.1941 296.901 96.2881 297.35 96.4727C297.803 96.6608 298.186 96.9256 298.503 97.2704C298.82 97.6152 299.061 98.0297 299.231 98.5174C299.402 99.005 299.486 99.5484 299.486 100.151C299.486 100.757 299.402 101.304 299.231 101.788C299.061 102.272 298.82 102.687 298.503 103.032C298.186 103.376 297.803 103.641 297.35 103.826C296.898 104.01 296.393 104.101 295.832 104.101C295.271 104.101 294.763 104.007 294.313 103.826C293.86 103.641 293.477 103.376 293.157 103.032C292.84 102.687 292.592 102.272 292.422 101.788C292.251 101.304 292.164 100.757 292.164 100.151C292.164 99.5484 292.251 99.005 292.422 98.5174C292.592 98.0297 292.84 97.6152 293.157 97.2704C293.477 96.9256 293.86 96.6608 294.313 96.4727C294.766 96.2846 295.271 96.1941 295.832 96.1941ZM295.832 103.045C296.591 103.045 297.155 102.791 297.532 102.283C297.904 101.774 298.092 101.067 298.092 100.154C298.092 99.2418 297.904 98.5278 297.532 98.0158C297.155 97.5073 296.591 97.2495 295.832 97.2495C295.449 97.2495 295.114 97.3157 294.832 97.448C294.55 97.5804 294.313 97.7685 294.122 98.0158C293.933 98.2631 293.791 98.5696 293.697 98.9284C293.603 99.2906 293.557 99.6982 293.557 100.151C293.557 100.607 293.603 101.011 293.697 101.374C293.791 101.732 293.93 102.035 294.122 102.279C294.31 102.523 294.547 102.715 294.832 102.843C295.114 102.983 295.445 103.045 295.832 103.045Z" fill="#3A4363"/>
<path d="M302.312 96.3159V101.213C302.312 101.795 302.445 102.244 302.713 102.565C302.981 102.882 303.385 103.042 303.925 103.042C304.319 103.042 304.691 102.948 305.04 102.76C305.388 102.572 305.708 102.314 306.001 101.98V96.3159H307.349V103.996H306.544C306.353 103.996 306.231 103.902 306.182 103.714L306.078 102.889C305.743 103.258 305.371 103.554 304.956 103.78C304.542 104.003 304.068 104.118 303.532 104.118C303.114 104.118 302.741 104.048 302.42 103.909C302.1 103.77 301.828 103.575 301.612 103.321C301.396 103.07 301.233 102.763 301.125 102.404C301.017 102.046 300.961 101.649 300.961 101.213V96.3159H302.312Z" fill="#3A4363"/>
<path d="M309.578 103.993V96.3126H310.383C310.574 96.3126 310.696 96.4066 310.745 96.5947L310.849 97.4272C311.184 97.058 311.557 96.7584 311.968 96.532C312.379 96.3056 312.856 96.1907 313.396 96.1907C313.814 96.1907 314.186 96.2603 314.507 96.3997C314.827 96.539 315.095 96.7341 315.311 96.9918C315.527 97.2461 315.688 97.5526 315.799 97.9113C315.91 98.2701 315.966 98.6672 315.966 99.1026V103.993H314.618V99.1026C314.618 98.5209 314.486 98.0716 314.221 97.7511C313.956 97.4307 313.549 97.2705 313.006 97.2705C312.605 97.2705 312.232 97.3645 311.887 97.5596C311.543 97.7511 311.222 98.0124 310.93 98.3398V103.996H309.578V103.993Z" fill="#3A4363"/>
<path d="M320.33 104.115C319.724 104.115 319.257 103.944 318.93 103.606C318.602 103.268 318.442 102.781 318.442 102.143V97.4411H317.516C317.436 97.4411 317.366 97.4167 317.31 97.368C317.254 97.3192 317.227 97.2461 317.227 97.1451V96.6052L318.484 96.445L318.794 94.0729C318.804 93.9963 318.836 93.9336 318.892 93.8883C318.947 93.843 319.017 93.8152 319.104 93.8152H319.787V96.4624H321.985V97.4411H319.787V102.049C319.787 102.373 319.863 102.614 320.02 102.77C320.177 102.927 320.379 103.004 320.626 103.004C320.769 103.004 320.891 102.986 320.995 102.948C321.1 102.91 321.187 102.868 321.264 102.823C321.34 102.777 321.403 102.736 321.459 102.697C321.511 102.659 321.56 102.641 321.598 102.641C321.668 102.641 321.73 102.683 321.786 102.77L322.18 103.415C321.946 103.631 321.668 103.801 321.337 103.927C321.016 104.052 320.678 104.115 320.33 104.115Z" fill="#3A4363"/>
<path d="M134.355 161.869C133.558 161.869 132.906 161.221 132.906 160.42V141.555C132.906 140.757 133.554 140.106 134.355 140.106H390.582C391.38 140.106 392.031 140.754 392.031 141.555V160.42C392.031 161.217 391.384 161.869 390.582 161.869H134.355Z" fill="#2E354F"/>
<path d="M134.355 161.2C133.926 161.2 133.578 160.851 133.578 160.423V141.555C133.578 141.126 133.926 140.778 134.355 140.778H390.582C391.01 140.778 391.359 141.126 391.359 141.555V160.42C391.359 160.848 391.01 161.196 390.582 161.196H134.355V161.2Z" fill="white"/>
<path d="M134.355 209.072C133.558 209.072 132.906 208.424 132.906 207.623V188.759C132.906 187.961 133.554 187.31 134.355 187.31H390.582C391.38 187.31 392.031 187.957 392.031 188.759V207.623C392.031 208.421 391.384 209.072 390.582 209.072H134.355Z" fill="#2E354F"/>
<path d="M134.355 208.404C133.926 208.404 133.578 208.055 133.578 207.627V188.762C133.578 188.334 133.926 187.985 134.355 187.985H390.582C391.01 187.985 391.359 188.334 391.359 188.762V207.627C391.359 208.055 391.01 208.404 390.582 208.404H134.355Z" fill="white"/>
<path d="M134.355 256.28C133.558 256.28 132.906 255.632 132.906 254.831V235.966C132.906 235.168 133.554 234.517 134.355 234.517H390.582C391.38 234.517 392.031 235.165 392.031 235.966V254.831C392.031 255.628 391.384 256.28 390.582 256.28H134.355Z" fill="#2E354F"/>
<path d="M134.355 255.607C133.926 255.607 133.578 255.259 133.578 254.831V235.966C133.578 235.538 133.926 235.189 134.355 235.189H390.582C391.01 235.189 391.359 235.538 391.359 235.966V254.831C391.359 255.259 391.01 255.607 390.582 255.607H134.355Z" fill="white"/>
<path d="M221.172 300.934V284.267C221.172 283.229 222.011 282.389 223.049 282.389H301.89C302.928 282.389 303.768 283.229 303.768 284.267V300.934C303.768 301.972 302.928 302.811 301.89 302.811H223.049C222.015 302.815 221.172 301.972 221.172 300.934Z" fill="#46B2C8"/>
<path d="M138.518 124.637V125.202H133.589V128.984H137.692V129.535H133.589V133.436H138.518V133.997H132.906V124.637H138.518Z" fill="#3A4363"/>
<path d="M140.414 133.997V127.414H140.759C140.874 127.414 140.94 127.469 140.957 127.581L141.017 128.532C141.146 128.351 141.281 128.187 141.428 128.037C141.574 127.887 141.727 127.758 141.894 127.65C142.058 127.542 142.236 127.459 142.424 127.4C142.612 127.34 142.81 127.309 143.016 127.309C143.497 127.309 143.88 127.448 144.165 127.731C144.451 128.009 144.646 128.399 144.747 128.897C144.827 128.622 144.939 128.389 145.081 128.19C145.224 127.992 145.388 127.828 145.573 127.699C145.757 127.57 145.959 127.473 146.175 127.407C146.395 127.344 146.618 127.309 146.847 127.309C147.175 127.309 147.467 127.361 147.725 127.473C147.983 127.581 148.206 127.741 148.387 127.953C148.572 128.166 148.711 128.424 148.808 128.734C148.906 129.044 148.955 129.395 148.955 129.793V134H148.328V129.793C148.328 129.148 148.188 128.657 147.91 128.319C147.631 127.981 147.234 127.814 146.719 127.814C146.489 127.814 146.269 127.856 146.06 127.94C145.851 128.023 145.667 128.149 145.506 128.312C145.346 128.479 145.217 128.685 145.123 128.932C145.029 129.18 144.98 129.465 144.98 129.793V134H144.353V129.793C144.353 129.152 144.225 128.664 143.97 128.323C143.716 127.981 143.343 127.814 142.852 127.814C142.494 127.814 142.163 127.922 141.86 128.135C141.557 128.347 141.285 128.647 141.045 129.023V133.997H140.414Z" fill="#3A4363"/>
<path d="M155.133 133.997C155.001 133.997 154.917 133.934 154.889 133.812L154.795 132.973C154.614 133.15 154.433 133.307 154.255 133.45C154.078 133.589 153.89 133.711 153.698 133.809C153.503 133.906 153.294 133.979 153.071 134.032C152.845 134.084 152.597 134.108 152.329 134.108C152.106 134.108 151.887 134.073 151.674 134.007C151.462 133.941 151.274 133.84 151.114 133.704C150.95 133.568 150.821 133.394 150.72 133.178C150.623 132.966 150.57 132.708 150.57 132.408C150.57 132.13 150.65 131.872 150.807 131.635C150.967 131.398 151.215 131.189 151.553 131.012C151.89 130.834 152.322 130.695 152.855 130.587C153.388 130.482 154.026 130.42 154.771 130.402V129.712C154.771 129.103 154.639 128.636 154.377 128.305C154.116 127.978 153.726 127.814 153.211 127.814C152.894 127.814 152.622 127.859 152.399 127.947C152.176 128.034 151.988 128.131 151.835 128.239C151.681 128.344 151.556 128.441 151.459 128.532C151.361 128.619 151.281 128.664 151.215 128.664C151.128 128.664 151.061 128.626 151.016 128.546L150.905 128.354C151.25 128.009 151.612 127.751 151.988 127.574C152.368 127.396 152.796 127.309 153.277 127.309C153.629 127.309 153.939 127.365 154.203 127.476C154.468 127.588 154.687 127.751 154.862 127.96C155.036 128.169 155.168 128.424 155.255 128.72C155.342 129.016 155.388 129.35 155.388 129.716V134.004H155.133V133.997ZM152.49 133.648C152.744 133.648 152.981 133.621 153.193 133.565C153.406 133.509 153.604 133.432 153.789 133.335C153.973 133.237 154.144 133.119 154.301 132.98C154.461 132.844 154.618 132.694 154.771 132.537V130.824C154.144 130.841 153.604 130.89 153.155 130.966C152.702 131.043 152.329 131.148 152.037 131.28C151.744 131.412 151.528 131.569 151.389 131.754C151.25 131.938 151.18 132.144 151.18 132.377C151.18 132.596 151.218 132.788 151.288 132.948C151.361 133.109 151.455 133.241 151.577 133.345C151.695 133.45 151.835 133.526 151.995 133.575C152.152 133.624 152.315 133.648 152.49 133.648Z" fill="#3A4363"/>
<path d="M158.456 125.146C158.456 125.226 158.439 125.3 158.407 125.369C158.376 125.439 158.331 125.498 158.278 125.55C158.226 125.603 158.163 125.644 158.094 125.676C158.024 125.707 157.947 125.721 157.871 125.721C157.791 125.721 157.717 125.707 157.644 125.676C157.575 125.644 157.512 125.603 157.46 125.55C157.408 125.498 157.366 125.435 157.334 125.369C157.303 125.3 157.289 125.226 157.289 125.146C157.289 125.066 157.303 124.99 157.334 124.916C157.366 124.843 157.408 124.781 157.46 124.728C157.512 124.676 157.575 124.634 157.644 124.603C157.714 124.572 157.791 124.558 157.871 124.558C157.951 124.558 158.024 124.572 158.094 124.603C158.163 124.634 158.226 124.676 158.278 124.728C158.331 124.781 158.376 124.843 158.407 124.916C158.442 124.993 158.456 125.066 158.456 125.146ZM158.181 127.414V133.997H157.554V127.414H158.181Z" fill="#3A4363"/>
<path d="M161.322 124.373V133.997H160.695V124.373H161.322Z" fill="#3A4363"/>
<path d="M173.565 133.997H173.043C172.98 133.997 172.931 133.979 172.889 133.948C172.851 133.913 172.82 133.871 172.795 133.819L171.691 131.102H167.094L165.996 133.819C165.979 133.868 165.948 133.91 165.902 133.944C165.857 133.979 165.805 133.997 165.742 133.997H165.227L169.058 124.637H169.734L173.565 133.997ZM167.299 130.597H171.493L169.58 125.867C169.549 125.794 169.518 125.707 169.486 125.613C169.455 125.519 169.424 125.418 169.392 125.313C169.361 125.418 169.33 125.519 169.298 125.613C169.267 125.707 169.236 125.794 169.204 125.874L167.299 130.597Z" fill="#3A4363"/>
<path d="M179.396 133.997C179.288 133.997 179.226 133.941 179.208 133.826L179.142 132.788C178.85 133.185 178.508 133.499 178.118 133.736C177.728 133.969 177.289 134.087 176.805 134.087C175.997 134.087 175.366 133.809 174.914 133.248C174.461 132.687 174.234 131.848 174.234 130.726C174.234 130.245 174.297 129.796 174.422 129.382C174.548 128.964 174.732 128.605 174.98 128.298C175.224 127.992 175.527 127.752 175.882 127.574C176.237 127.396 176.648 127.309 177.111 127.309C177.557 127.309 177.944 127.393 178.271 127.557C178.599 127.724 178.881 127.964 179.121 128.281V124.38H179.748V134.004H179.396V133.997ZM176.983 133.575C177.418 133.575 177.815 133.464 178.167 133.238C178.519 133.011 178.836 132.701 179.114 132.297V128.824C178.857 128.448 178.578 128.183 178.268 128.03C177.961 127.877 177.613 127.8 177.223 127.8C176.833 127.8 176.495 127.87 176.202 128.013C175.91 128.156 175.666 128.354 175.471 128.612C175.276 128.87 175.126 129.18 175.025 129.538C174.924 129.897 174.875 130.294 174.875 130.726C174.875 131.705 175.056 132.426 175.419 132.886C175.788 133.345 176.307 133.575 176.983 133.575Z" fill="#3A4363"/>
<path d="M186.623 133.997C186.515 133.997 186.452 133.941 186.435 133.826L186.369 132.788C186.076 133.185 185.735 133.499 185.345 133.736C184.955 133.969 184.516 134.087 184.032 134.087C183.223 134.087 182.593 133.809 182.14 133.248C181.687 132.687 181.461 131.848 181.461 130.726C181.461 130.245 181.524 129.796 181.649 129.382C181.774 128.964 181.959 128.605 182.206 128.298C182.45 127.992 182.753 127.752 183.108 127.574C183.464 127.396 183.875 127.309 184.338 127.309C184.784 127.309 185.17 127.393 185.498 127.557C185.825 127.724 186.107 127.964 186.348 128.281V124.38H186.975V134.004H186.623V133.997ZM184.206 133.575C184.641 133.575 185.038 133.464 185.39 133.238C185.742 133.011 186.059 132.701 186.337 132.297V128.824C186.08 128.448 185.801 128.183 185.491 128.03C185.184 127.877 184.836 127.8 184.446 127.8C184.056 127.8 183.718 127.87 183.425 128.013C183.133 128.156 182.889 128.354 182.694 128.612C182.499 128.87 182.349 129.18 182.252 129.538C182.151 129.897 182.102 130.294 182.102 130.726C182.102 131.705 182.283 132.426 182.645 132.886C183.011 133.345 183.53 133.575 184.206 133.575Z" fill="#3A4363"/>
<path d="M189.18 133.997V127.413H189.511C189.584 127.413 189.639 127.427 189.674 127.459C189.709 127.49 189.727 127.542 189.73 127.619L189.782 129.009C189.995 128.476 190.277 128.058 190.629 127.755C190.98 127.452 191.416 127.302 191.931 127.302C192.13 127.302 192.315 127.323 192.482 127.365C192.649 127.406 192.809 127.469 192.959 127.546L192.872 127.981C192.858 128.051 192.816 128.086 192.739 128.086C192.712 128.086 192.677 128.075 192.628 128.058C192.579 128.04 192.52 128.02 192.447 127.999C192.374 127.978 192.283 127.957 192.179 127.939C192.074 127.922 191.952 127.912 191.816 127.912C191.318 127.912 190.911 128.065 190.59 128.375C190.27 128.685 190.012 129.131 189.814 129.712V133.993H189.18V133.997Z" fill="#3A4363"/>
<path d="M196.909 127.309C197.278 127.309 197.623 127.372 197.936 127.501C198.253 127.63 198.525 127.814 198.758 128.061C198.988 128.305 199.169 128.608 199.302 128.964C199.43 129.319 199.497 129.73 199.497 130.193C199.497 130.291 199.483 130.357 199.455 130.392C199.427 130.426 199.382 130.444 199.319 130.444H194.568V130.569C194.568 131.064 194.624 131.496 194.739 131.872C194.854 132.248 195.017 132.562 195.23 132.816C195.442 133.07 195.696 133.258 195.996 133.387C196.296 133.516 196.63 133.579 197.003 133.579C197.334 133.579 197.619 133.54 197.863 133.471C198.107 133.398 198.309 133.318 198.476 133.227C198.64 133.136 198.772 133.056 198.87 132.983C198.967 132.91 199.037 132.875 199.082 132.875C199.138 132.875 199.183 132.896 199.214 132.941L199.385 133.154C199.281 133.286 199.141 133.408 198.964 133.523C198.79 133.638 198.594 133.735 198.382 133.819C198.166 133.899 197.94 133.965 197.692 134.014C197.449 134.063 197.201 134.087 196.954 134.087C196.505 134.087 196.094 134.007 195.724 133.854C195.355 133.697 195.035 133.467 194.77 133.168C194.505 132.868 194.3 132.502 194.153 132.067C194.007 131.632 193.938 131.134 193.938 130.576C193.938 130.103 194.004 129.667 194.14 129.27C194.275 128.87 194.467 128.528 194.721 128.239C194.975 127.95 195.285 127.724 195.655 127.56C196.024 127.393 196.442 127.309 196.909 127.309ZM196.919 127.779C196.581 127.779 196.275 127.832 196.006 127.94C195.738 128.044 195.505 128.197 195.31 128.396C195.115 128.594 194.955 128.831 194.836 129.11C194.714 129.389 194.634 129.699 194.596 130.043H198.929C198.929 129.692 198.88 129.375 198.783 129.092C198.685 128.814 198.549 128.577 198.372 128.382C198.194 128.187 197.985 128.041 197.738 127.936C197.494 127.832 197.219 127.779 196.919 127.779Z" fill="#3A4363"/>
<path d="M204.814 128.236C204.783 128.298 204.734 128.33 204.668 128.33C204.619 128.33 204.556 128.302 204.48 128.246C204.403 128.19 204.302 128.128 204.177 128.061C204.051 127.992 203.895 127.933 203.713 127.877C203.529 127.821 203.306 127.793 203.041 127.793C202.804 127.793 202.585 127.828 202.39 127.894C202.195 127.964 202.028 128.054 201.888 128.169C201.749 128.284 201.641 128.417 201.564 128.57C201.488 128.723 201.449 128.88 201.449 129.047C201.449 129.253 201.502 129.427 201.61 129.563C201.714 129.699 201.853 129.817 202.028 129.911C202.198 130.009 202.393 130.092 202.613 130.162C202.832 130.231 203.055 130.301 203.285 130.374C203.515 130.444 203.738 130.524 203.957 130.608C204.177 130.695 204.372 130.799 204.542 130.928C204.713 131.057 204.852 131.214 204.96 131.398C205.065 131.583 205.117 131.809 205.117 132.074C205.117 132.36 205.065 132.628 204.96 132.875C204.856 133.122 204.706 133.335 204.511 133.516C204.316 133.697 204.072 133.84 203.787 133.944C203.501 134.049 203.174 134.105 202.808 134.105C202.345 134.105 201.944 134.032 201.61 133.882C201.275 133.735 200.976 133.54 200.711 133.304L200.864 133.077C200.885 133.042 200.909 133.014 200.937 132.997C200.965 132.98 201 132.969 201.049 132.969C201.108 132.969 201.178 133.004 201.261 133.074C201.345 133.143 201.453 133.22 201.589 133.304C201.725 133.387 201.892 133.46 202.09 133.533C202.289 133.603 202.54 133.638 202.836 133.638C203.114 133.638 203.358 133.6 203.571 133.523C203.783 133.446 203.957 133.342 204.1 133.21C204.239 133.077 204.347 132.92 204.42 132.743C204.494 132.565 204.528 132.377 204.528 132.179C204.528 131.959 204.476 131.774 204.368 131.628C204.264 131.482 204.124 131.36 203.95 131.259C203.78 131.158 203.585 131.071 203.365 131.001C203.146 130.932 202.923 130.858 202.689 130.789C202.459 130.719 202.233 130.642 202.014 130.559C201.794 130.475 201.599 130.371 201.428 130.242C201.258 130.113 201.118 129.96 201.01 129.775C200.906 129.591 200.85 129.364 200.85 129.089C200.85 128.856 200.902 128.629 201.004 128.413C201.105 128.197 201.247 128.006 201.435 127.845C201.624 127.682 201.85 127.553 202.122 127.455C202.39 127.358 202.693 127.309 203.027 127.309C203.428 127.309 203.783 127.368 204.097 127.483C204.407 127.598 204.692 127.776 204.953 128.016L204.814 128.236Z" fill="#3A4363"/>
<path d="M210.502 128.236C210.47 128.298 210.421 128.33 210.355 128.33C210.307 128.33 210.244 128.302 210.167 128.246C210.091 128.19 209.99 128.128 209.864 128.061C209.739 127.992 209.582 127.933 209.401 127.877C209.216 127.821 208.993 127.793 208.729 127.793C208.492 127.793 208.272 127.828 208.077 127.894C207.882 127.964 207.715 128.054 207.576 128.169C207.436 128.284 207.328 128.417 207.252 128.57C207.175 128.723 207.137 128.88 207.137 129.047C207.137 129.253 207.189 129.427 207.297 129.563C207.402 129.699 207.541 129.817 207.715 129.911C207.886 130.009 208.081 130.092 208.3 130.162C208.52 130.231 208.743 130.301 208.972 130.374C209.202 130.444 209.425 130.524 209.645 130.608C209.864 130.695 210.059 130.799 210.23 130.928C210.401 131.057 210.54 131.214 210.648 131.398C210.752 131.583 210.805 131.809 210.805 132.074C210.805 132.36 210.752 132.628 210.648 132.875C210.543 133.122 210.394 133.335 210.199 133.516C210.003 133.697 209.76 133.84 209.474 133.944C209.188 134.049 208.861 134.105 208.495 134.105C208.032 134.105 207.631 134.032 207.297 133.882C206.963 133.735 206.663 133.54 206.398 133.304L206.552 133.077C206.573 133.042 206.597 133.014 206.625 132.997C206.653 132.98 206.688 132.969 206.736 132.969C206.796 132.969 206.865 133.004 206.949 133.074C207.032 133.143 207.14 133.22 207.276 133.304C207.412 133.387 207.579 133.46 207.778 133.533C207.976 133.603 208.227 133.638 208.523 133.638C208.802 133.638 209.046 133.6 209.258 133.523C209.471 133.446 209.645 133.342 209.788 133.21C209.927 133.077 210.035 132.92 210.108 132.743C210.181 132.565 210.216 132.377 210.216 132.179C210.216 131.959 210.164 131.774 210.056 131.628C209.951 131.482 209.812 131.36 209.638 131.259C209.467 131.158 209.272 131.071 209.053 131.001C208.833 130.932 208.61 130.858 208.377 130.789C208.147 130.719 207.921 130.642 207.701 130.559C207.482 130.475 207.287 130.371 207.116 130.242C206.945 130.113 206.806 129.96 206.698 129.775C206.593 129.591 206.538 129.364 206.538 129.089C206.538 128.856 206.59 128.629 206.691 128.413C206.792 128.197 206.935 128.006 207.123 127.845C207.311 127.682 207.537 127.553 207.809 127.455C208.077 127.358 208.38 127.309 208.715 127.309C209.115 127.309 209.471 127.368 209.784 127.483C210.094 127.598 210.38 127.776 210.641 128.016L210.502 128.236Z" fill="#3A4363"/>
<path d="M213.189 128.424V126.717L211.681 127.591L211.158 126.668L212.666 125.787L211.141 124.902L211.677 123.976L213.189 124.854V123.147H214.258V124.861L215.77 123.983L216.306 124.909L214.794 125.787L216.31 126.668L215.791 127.598L214.258 126.714V128.424H213.189Z" fill="#46B2C8"/>
<path d="M213.528 128.089V126.442C213.528 126.355 213.535 126.278 213.549 126.212C213.563 126.146 213.587 126.066 213.629 125.979C213.573 126.055 213.517 126.115 213.462 126.156C213.406 126.198 213.34 126.24 213.263 126.289L211.811 127.132L211.619 126.79L213.071 125.94C213.145 125.899 213.214 125.867 213.28 125.846C213.347 125.825 213.427 125.808 213.521 125.791C213.423 125.777 213.343 125.756 213.277 125.728C213.211 125.704 213.145 125.669 213.071 125.627L211.602 124.777L211.804 124.429L213.263 125.279C213.347 125.331 213.413 125.38 213.462 125.428C213.51 125.477 213.57 125.547 213.643 125.634C213.601 125.536 213.573 125.449 213.556 125.376C213.538 125.303 213.528 125.219 213.528 125.132V123.478H213.928V125.125C213.928 125.219 213.921 125.303 213.907 125.376C213.893 125.453 213.869 125.536 213.827 125.627C213.89 125.54 213.946 125.47 213.998 125.421C214.05 125.373 214.116 125.324 214.2 125.279L215.652 124.436L215.854 124.784L214.402 125.627C214.325 125.672 214.252 125.71 214.186 125.735C214.12 125.759 214.04 125.78 213.953 125.791C214.047 125.808 214.123 125.825 214.19 125.846C214.252 125.867 214.325 125.899 214.402 125.94L215.861 126.79L215.67 127.139L214.2 126.289C214.123 126.243 214.057 126.198 214.008 126.156C213.956 126.115 213.897 126.052 213.831 125.961C213.862 126.055 213.887 126.135 213.904 126.202C213.921 126.268 213.932 126.348 213.932 126.435V128.089H213.528Z" fill="#46B2C8"/>
<path d="M133.582 177.912V181.681H132.906V172.321H135.32C136.417 172.321 137.246 172.562 137.804 173.042C138.361 173.523 138.639 174.209 138.639 175.101C138.639 175.512 138.563 175.888 138.41 176.233C138.256 176.578 138.037 176.874 137.751 177.121C137.466 177.372 137.117 177.563 136.706 177.703C136.295 177.842 135.832 177.912 135.317 177.912H133.582ZM133.582 177.368H135.324C135.738 177.368 136.107 177.313 136.435 177.198C136.762 177.083 137.037 176.923 137.264 176.721C137.49 176.518 137.664 176.278 137.786 176.003C137.908 175.728 137.967 175.425 137.967 175.101C137.967 174.383 137.744 173.829 137.302 173.439C136.86 173.053 136.198 172.858 135.32 172.858H133.578V177.368H133.582Z" fill="#3A4363"/>
<path d="M144.118 181.68C143.985 181.68 143.902 181.618 143.874 181.496L143.78 180.656C143.599 180.834 143.418 180.991 143.24 181.133C143.062 181.273 142.874 181.395 142.683 181.492C142.488 181.59 142.279 181.663 142.056 181.715C141.829 181.767 141.582 181.792 141.314 181.792C141.091 181.792 140.871 181.757 140.659 181.691C140.446 181.625 140.258 181.524 140.098 181.388C139.934 181.252 139.805 181.078 139.704 180.862C139.607 180.649 139.555 180.392 139.555 180.092C139.555 179.813 139.635 179.556 139.792 179.319C139.952 179.082 140.199 178.873 140.537 178.695C140.875 178.518 141.307 178.378 141.84 178.27C142.373 178.166 143.01 178.103 143.755 178.086V177.396C143.755 176.787 143.623 176.32 143.362 175.989C143.101 175.661 142.71 175.498 142.195 175.498C141.878 175.498 141.606 175.543 141.383 175.63C141.16 175.717 140.972 175.815 140.819 175.923C140.666 176.027 140.54 176.125 140.443 176.215C140.345 176.302 140.265 176.348 140.199 176.348C140.112 176.348 140.046 176.309 140.001 176.229L139.889 176.038C140.234 175.693 140.596 175.435 140.972 175.257C141.352 175.08 141.78 174.993 142.261 174.993C142.613 174.993 142.923 175.048 143.188 175.16C143.452 175.271 143.672 175.435 143.846 175.644C144.02 175.853 144.152 176.107 144.24 176.403C144.327 176.699 144.372 177.034 144.372 177.4V181.687H144.118V181.68ZM141.47 181.328C141.725 181.328 141.962 181.301 142.174 181.245C142.386 181.189 142.585 181.113 142.77 181.015C142.954 180.917 143.125 180.799 143.282 180.66C143.442 180.524 143.599 180.374 143.752 180.217V178.504C143.125 178.521 142.585 178.57 142.136 178.646C141.683 178.723 141.31 178.828 141.018 178.96C140.725 179.092 140.509 179.249 140.37 179.434C140.23 179.618 140.161 179.824 140.161 180.057C140.161 180.277 140.199 180.468 140.269 180.628C140.342 180.789 140.436 180.921 140.558 181.025C140.676 181.13 140.816 181.207 140.976 181.255C141.133 181.304 141.296 181.328 141.47 181.328Z" fill="#3A4363"/>
<path d="M149.97 175.919C149.939 175.982 149.89 176.013 149.824 176.013C149.775 176.013 149.713 175.985 149.636 175.93C149.559 175.874 149.458 175.811 149.333 175.745C149.208 175.675 149.051 175.616 148.87 175.56C148.685 175.505 148.462 175.477 148.197 175.477C147.961 175.477 147.741 175.512 147.546 175.578C147.351 175.648 147.184 175.738 147.044 175.853C146.905 175.968 146.797 176.1 146.721 176.254C146.644 176.407 146.606 176.564 146.606 176.731C146.606 176.936 146.658 177.11 146.766 177.246C146.87 177.382 147.01 177.501 147.184 177.595C147.355 177.692 147.55 177.776 147.769 177.845C147.988 177.915 148.211 177.985 148.441 178.058C148.671 178.127 148.894 178.208 149.113 178.291C149.333 178.378 149.528 178.483 149.699 178.612C149.869 178.741 150.009 178.897 150.117 179.082C150.221 179.266 150.273 179.493 150.273 179.758C150.273 180.043 150.221 180.311 150.117 180.559C150.012 180.806 149.862 181.018 149.667 181.2C149.472 181.381 149.228 181.524 148.943 181.628C148.657 181.733 148.33 181.788 147.964 181.788C147.501 181.788 147.1 181.715 146.766 181.565C146.431 181.419 146.132 181.224 145.867 180.987L146.02 180.761C146.041 180.726 146.066 180.698 146.094 180.681C146.121 180.663 146.156 180.653 146.205 180.653C146.264 180.653 146.334 180.688 146.418 180.757C146.501 180.827 146.609 180.904 146.745 180.987C146.881 181.067 147.048 181.144 147.247 181.217C147.445 181.287 147.696 181.322 147.992 181.322C148.271 181.322 148.514 181.283 148.727 181.207C148.939 181.13 149.113 181.025 149.256 180.893C149.396 180.761 149.504 180.604 149.577 180.426C149.65 180.249 149.685 180.061 149.685 179.862C149.685 179.643 149.632 179.458 149.524 179.312C149.42 179.165 149.281 179.044 149.107 178.943C148.936 178.842 148.741 178.754 148.521 178.685C148.302 178.615 148.079 178.542 147.846 178.472C147.616 178.403 147.389 178.326 147.17 178.242C146.95 178.159 146.755 178.054 146.585 177.925C146.414 177.797 146.275 177.643 146.167 177.459C146.062 177.274 146.007 177.048 146.007 176.773C146.007 176.539 146.059 176.313 146.16 176.097C146.261 175.881 146.404 175.689 146.592 175.529C146.78 175.365 147.006 175.236 147.278 175.139C147.546 175.041 147.849 174.993 148.183 174.993C148.584 174.993 148.939 175.052 149.253 175.167C149.563 175.282 149.848 175.459 150.11 175.7L149.97 175.919Z" fill="#3A4363"/>
<path d="M155.658 175.919C155.626 175.982 155.578 176.013 155.512 176.013C155.463 176.013 155.4 175.985 155.323 175.93C155.247 175.874 155.146 175.811 155.02 175.745C154.895 175.675 154.738 175.616 154.557 175.56C154.373 175.505 154.15 175.477 153.885 175.477C153.648 175.477 153.429 175.512 153.234 175.578C153.039 175.648 152.871 175.738 152.732 175.853C152.593 175.968 152.485 176.1 152.408 176.254C152.331 176.407 152.293 176.564 152.293 176.731C152.293 176.936 152.345 177.11 152.453 177.246C152.558 177.382 152.697 177.501 152.871 177.595C153.042 177.692 153.237 177.776 153.456 177.845C153.676 177.915 153.899 177.985 154.129 178.058C154.359 178.127 154.582 178.208 154.801 178.291C155.02 178.378 155.215 178.483 155.386 178.612C155.557 178.741 155.696 178.897 155.804 179.082C155.909 179.266 155.961 179.493 155.961 179.758C155.961 180.043 155.909 180.311 155.804 180.559C155.7 180.806 155.55 181.018 155.355 181.2C155.16 181.381 154.916 181.524 154.63 181.628C154.345 181.733 154.017 181.788 153.652 181.788C153.188 181.788 152.788 181.715 152.453 181.565C152.119 181.419 151.819 181.224 151.555 180.987L151.708 180.761C151.729 180.726 151.753 180.698 151.781 180.681C151.809 180.663 151.844 180.653 151.893 180.653C151.952 180.653 152.021 180.688 152.105 180.757C152.189 180.827 152.297 180.904 152.432 180.987C152.568 181.067 152.735 181.144 152.934 181.217C153.133 181.287 153.383 181.322 153.679 181.322C153.958 181.322 154.202 181.283 154.414 181.207C154.627 181.13 154.801 181.025 154.944 180.893C155.083 180.761 155.191 180.604 155.264 180.426C155.337 180.249 155.372 180.061 155.372 179.862C155.372 179.643 155.32 179.458 155.212 179.312C155.104 179.165 154.968 179.044 154.794 178.943C154.623 178.842 154.428 178.754 154.209 178.685C153.989 178.615 153.766 178.542 153.533 178.472C153.303 178.403 153.077 178.326 152.857 178.242C152.638 178.159 152.443 178.054 152.272 177.925C152.102 177.797 151.962 177.643 151.854 177.459C151.75 177.274 151.694 177.048 151.694 176.773C151.694 176.539 151.746 176.313 151.847 176.097C151.948 175.881 152.091 175.689 152.279 175.529C152.467 175.365 152.694 175.236 152.965 175.139C153.234 175.041 153.537 174.993 153.871 174.993C154.272 174.993 154.627 175.052 154.94 175.167C155.25 175.282 155.536 175.459 155.797 175.7L155.658 175.919Z" fill="#3A4363"/>
<path d="M156.797 175.097H157.281C157.344 175.097 157.392 175.115 157.434 175.146C157.473 175.177 157.5 175.216 157.514 175.254L159.176 180.447C159.207 180.548 159.232 180.646 159.249 180.74C159.266 180.834 159.284 180.925 159.301 181.019C159.322 180.925 159.347 180.834 159.374 180.74C159.402 180.646 159.434 180.552 159.468 180.447L161.234 175.209C161.266 175.111 161.328 175.062 161.419 175.062H161.677C161.774 175.062 161.837 175.111 161.868 175.209L163.61 180.447C163.676 180.646 163.728 180.838 163.77 181.022C163.788 180.928 163.805 180.838 163.826 180.74C163.847 180.646 163.875 180.548 163.909 180.444L165.574 175.251C165.609 175.146 165.686 175.09 165.801 175.09H166.264L164.063 181.674H163.599C163.53 181.674 163.478 181.628 163.446 181.534L161.642 176.188C161.621 176.121 161.6 176.055 161.583 175.989C161.565 175.923 161.551 175.857 161.537 175.79C161.523 175.857 161.51 175.923 161.496 175.989C161.482 176.055 161.461 176.121 161.44 176.188L159.615 181.534C159.587 181.628 159.535 181.674 159.458 181.674H159.016L156.797 175.097Z" fill="#3A4363"/>
<path d="M169.99 174.993C170.461 174.993 170.886 175.073 171.258 175.233C171.631 175.393 171.944 175.623 172.202 175.919C172.456 176.215 172.655 176.571 172.787 176.989C172.923 177.406 172.989 177.87 172.989 178.389C172.989 178.904 172.923 179.371 172.787 179.785C172.655 180.2 172.456 180.555 172.202 180.851C171.948 181.147 171.631 181.374 171.258 181.531C170.886 181.691 170.464 181.767 169.99 181.767C169.517 181.767 169.095 181.687 168.722 181.531C168.35 181.37 168.033 181.144 167.775 180.851C167.517 180.555 167.322 180.2 167.186 179.785C167.051 179.371 166.984 178.904 166.984 178.389C166.984 177.873 167.051 177.406 167.186 176.989C167.322 176.571 167.517 176.215 167.775 175.919C168.033 175.623 168.35 175.397 168.722 175.233C169.095 175.073 169.517 174.993 169.99 174.993ZM169.99 181.269C170.384 181.269 170.725 181.203 171.018 181.067C171.31 180.931 171.554 180.74 171.753 180.489C171.948 180.238 172.094 179.935 172.192 179.58C172.289 179.225 172.338 178.828 172.338 178.385C172.338 177.95 172.289 177.553 172.192 177.194C172.094 176.835 171.948 176.532 171.753 176.278C171.558 176.024 171.31 175.829 171.018 175.693C170.725 175.557 170.38 175.487 169.99 175.487C169.597 175.487 169.255 175.557 168.963 175.693C168.67 175.829 168.423 176.024 168.228 176.278C168.033 176.532 167.883 176.835 167.786 177.194C167.685 177.549 167.636 177.95 167.636 178.385C167.636 178.828 167.685 179.225 167.786 179.58C167.883 179.935 168.033 180.238 168.228 180.489C168.423 180.74 168.67 180.935 168.963 181.067C169.255 181.203 169.597 181.269 169.99 181.269Z" fill="#3A4363"/>
<path d="M174.633 181.68V175.097H174.964C175.037 175.097 175.093 175.111 175.127 175.142C175.162 175.174 175.18 175.226 175.183 175.303L175.235 176.692C175.448 176.159 175.73 175.741 176.082 175.438C176.434 175.135 176.869 174.986 177.384 174.986C177.583 174.986 177.768 175.006 177.935 175.048C178.102 175.09 178.262 175.153 178.412 175.229L178.325 175.665C178.311 175.734 178.269 175.769 178.193 175.769C178.165 175.769 178.13 175.759 178.081 175.741C178.032 175.724 177.973 175.703 177.9 175.682C177.827 175.661 177.736 175.64 177.632 175.623C177.527 175.606 177.405 175.595 177.27 175.595C176.771 175.595 176.364 175.748 176.043 176.058C175.723 176.368 175.465 176.814 175.267 177.396V181.677H174.633V181.68Z" fill="#3A4363"/>
<path d="M184.553 181.68C184.445 181.68 184.382 181.625 184.365 181.51L184.298 180.472C184.006 180.869 183.664 181.182 183.274 181.419C182.884 181.653 182.445 181.771 181.961 181.771C181.153 181.771 180.523 181.492 180.07 180.932C179.617 180.371 179.391 179.531 179.391 178.41C179.391 177.929 179.453 177.48 179.579 177.065C179.704 176.647 179.889 176.289 180.136 175.982C180.38 175.675 180.683 175.435 181.038 175.258C181.393 175.08 181.804 174.993 182.268 174.993C182.714 174.993 183.1 175.076 183.428 175.24C183.755 175.407 184.037 175.648 184.277 175.965V172.063H184.904V181.687H184.553V181.68ZM182.135 181.259C182.571 181.259 182.968 181.148 183.32 180.921C183.671 180.695 183.988 180.385 184.267 179.981V176.508C184.009 176.132 183.731 175.867 183.421 175.714C183.114 175.561 182.766 175.484 182.376 175.484C181.986 175.484 181.648 175.554 181.355 175.696C181.063 175.839 180.819 176.038 180.624 176.296C180.429 176.553 180.279 176.863 180.178 177.222C180.077 177.581 180.028 177.978 180.028 178.41C180.028 179.389 180.209 180.11 180.571 180.569C180.941 181.026 181.46 181.259 182.135 181.259Z" fill="#3A4363"/>
<path d="M189.087 176.633V174.927L187.582 175.797L187.06 174.878L188.568 173.997L187.039 173.112L187.579 172.182L189.087 173.063V171.356H190.16V173.067L191.672 172.192L192.208 173.119L190.696 173.997L192.208 174.874L191.693 175.808L190.16 174.92V176.633H189.087Z" fill="#46B2C8"/>
<path d="M189.426 176.299V174.651C189.426 174.564 189.433 174.488 189.447 174.422C189.461 174.355 189.485 174.275 189.527 174.188C189.471 174.265 189.416 174.324 189.36 174.366C189.304 174.408 189.238 174.449 189.161 174.498L187.709 175.341L187.517 175L188.97 174.15C189.043 174.108 189.113 174.077 189.179 174.056C189.245 174.035 189.325 174.017 189.419 174C189.322 173.986 189.242 173.965 189.175 173.937C189.109 173.913 189.043 173.878 188.97 173.836L187.5 172.986L187.702 172.638L189.161 173.488C189.245 173.54 189.311 173.589 189.36 173.638C189.409 173.687 189.468 173.756 189.541 173.843C189.499 173.746 189.471 173.659 189.454 173.586C189.437 173.512 189.426 173.429 189.426 173.342V171.687H189.827V173.335C189.827 173.429 189.82 173.512 189.806 173.586C189.792 173.659 189.768 173.746 189.726 173.836C189.788 173.749 189.844 173.68 189.896 173.631C189.949 173.582 190.015 173.533 190.098 173.488L191.551 172.645L191.753 172.993L190.3 173.836C190.224 173.882 190.151 173.92 190.084 173.944C190.018 173.969 189.938 173.99 189.851 174C189.945 174.017 190.022 174.035 190.088 174.056C190.151 174.077 190.224 174.108 190.3 174.15L191.76 175L191.568 175.348L190.098 174.498C190.022 174.453 189.956 174.408 189.907 174.366C189.855 174.324 189.795 174.261 189.729 174.171C189.761 174.265 189.785 174.345 189.802 174.411C189.82 174.477 189.83 174.557 189.83 174.644V176.299H189.426Z" fill="#46B2C8"/>
<path d="M133.582 225.589V229.358H132.906V219.999H135.32C136.417 219.999 137.246 220.239 137.804 220.72C138.361 221.201 138.639 221.887 138.639 222.779C138.639 223.19 138.563 223.566 138.41 223.911C138.256 224.255 138.037 224.552 137.751 224.799C137.466 225.05 137.117 225.241 136.706 225.381C136.295 225.52 135.832 225.589 135.317 225.589H133.582ZM133.582 225.05H135.324C135.738 225.05 136.107 224.994 136.435 224.879C136.762 224.764 137.037 224.604 137.264 224.402C137.49 224.2 137.664 223.959 137.786 223.684C137.908 223.409 137.967 223.106 137.967 222.782C137.967 222.065 137.744 221.511 137.302 221.121C136.86 220.734 136.198 220.539 135.32 220.539H133.578V225.05H133.582Z" fill="#3A4363"/>
<path d="M140.242 229.362V219.738H140.869V223.904C141.172 223.527 141.52 223.231 141.911 223.008C142.301 222.786 142.74 222.674 143.224 222.674C143.586 222.674 143.903 222.73 144.178 222.845C144.453 222.96 144.683 223.127 144.864 223.339C145.045 223.555 145.181 223.817 145.275 224.12C145.369 224.423 145.415 224.767 145.415 225.151V229.358H144.788V225.151C144.788 224.534 144.645 224.05 144.363 223.698C144.081 223.346 143.649 223.172 143.067 223.172C142.635 223.172 142.235 223.284 141.862 223.507C141.493 223.73 141.162 224.036 140.869 224.423V229.358H140.242V229.362Z" fill="#3A4363"/>
<path d="M149.904 222.674C150.375 222.674 150.8 222.754 151.172 222.914C151.545 223.075 151.858 223.304 152.116 223.601C152.37 223.897 152.569 224.252 152.701 224.67C152.837 225.088 152.903 225.551 152.903 226.07C152.903 226.586 152.837 227.052 152.701 227.467C152.569 227.881 152.37 228.237 152.116 228.533C151.862 228.829 151.545 229.055 151.172 229.215C150.8 229.376 150.378 229.452 149.904 229.452C149.431 229.452 149.009 229.372 148.637 229.215C148.264 229.055 147.947 228.829 147.689 228.533C147.431 228.237 147.236 227.881 147.1 227.467C146.965 227.052 146.898 226.586 146.898 226.07C146.898 225.555 146.965 225.088 147.1 224.67C147.236 224.252 147.431 223.897 147.689 223.601C147.947 223.304 148.264 223.078 148.637 222.914C149.009 222.754 149.431 222.674 149.904 222.674ZM149.904 228.951C150.298 228.951 150.639 228.885 150.932 228.749C151.224 228.616 151.468 228.421 151.667 228.17C151.862 227.92 152.008 227.617 152.106 227.261C152.203 226.906 152.252 226.509 152.252 226.067C152.252 225.631 152.203 225.234 152.106 224.875C152.008 224.517 151.862 224.214 151.667 223.959C151.472 223.705 151.224 223.51 150.932 223.374C150.639 223.238 150.295 223.169 149.904 223.169C149.514 223.169 149.169 223.238 148.877 223.374C148.584 223.51 148.337 223.705 148.142 223.959C147.947 224.214 147.797 224.517 147.7 224.875C147.599 225.231 147.55 225.631 147.55 226.067C147.55 226.509 147.599 226.906 147.7 227.261C147.797 227.617 147.947 227.92 148.142 228.17C148.337 228.421 148.584 228.616 148.877 228.749C149.169 228.885 149.511 228.951 149.904 228.951Z" fill="#3A4363"/>
<path d="M154.555 229.362V222.779H154.9C155.014 222.779 155.081 222.834 155.098 222.946L155.157 223.938C155.457 223.559 155.805 223.252 156.206 223.022C156.606 222.792 157.049 222.674 157.54 222.674C157.902 222.674 158.219 222.73 158.494 222.845C158.769 222.96 158.999 223.127 159.18 223.339C159.361 223.555 159.497 223.817 159.591 224.12C159.685 224.423 159.731 224.767 159.731 225.151V229.358H159.104V225.151C159.104 224.534 158.961 224.05 158.679 223.698C158.397 223.346 157.965 223.172 157.383 223.172C156.951 223.172 156.551 223.284 156.178 223.507C155.809 223.729 155.478 224.036 155.185 224.423V229.358H154.555V229.362Z" fill="#3A4363"/>
<path d="M164.19 222.674C164.559 222.674 164.904 222.737 165.217 222.866C165.534 222.994 165.806 223.179 166.039 223.426C166.269 223.67 166.45 223.973 166.583 224.329C166.712 224.684 166.778 225.095 166.778 225.558C166.778 225.656 166.764 225.722 166.736 225.757C166.708 225.791 166.663 225.809 166.6 225.809H161.849V225.934C161.849 226.429 161.905 226.861 162.02 227.237C162.135 227.613 162.299 227.927 162.511 228.181C162.723 228.435 162.978 228.627 163.277 228.752C163.577 228.881 163.911 228.944 164.284 228.944C164.615 228.944 164.9 228.905 165.144 228.836C165.388 228.763 165.59 228.682 165.757 228.592C165.921 228.501 166.053 228.421 166.151 228.348C166.248 228.275 166.318 228.24 166.363 228.24C166.419 228.24 166.464 228.261 166.496 228.306L166.666 228.519C166.562 228.651 166.423 228.773 166.245 228.888C166.071 229.003 165.876 229.1 165.663 229.184C165.447 229.264 165.221 229.33 164.974 229.379C164.73 229.428 164.482 229.452 164.235 229.452C163.786 229.452 163.375 229.372 163.006 229.219C162.636 229.062 162.316 228.832 162.051 228.533C161.786 228.233 161.581 227.867 161.435 227.432C161.288 226.997 161.219 226.499 161.219 225.941C161.219 225.468 161.285 225.032 161.421 224.635C161.557 224.235 161.748 223.893 162.002 223.604C162.257 223.315 162.567 223.089 162.936 222.925C163.305 222.754 163.723 222.674 164.19 222.674ZM164.2 223.144C163.862 223.144 163.556 223.197 163.288 223.304C163.02 223.409 162.786 223.562 162.591 223.761C162.396 223.959 162.236 224.196 162.117 224.475C161.995 224.753 161.915 225.064 161.877 225.408H166.21C166.21 225.057 166.161 224.74 166.064 224.457C165.966 224.179 165.83 223.942 165.653 223.747C165.475 223.552 165.266 223.406 165.019 223.301C164.772 223.197 164.5 223.144 164.2 223.144Z" fill="#3A4363"/>
<path d="M171.817 220.023C171.852 220.037 171.891 220.072 171.929 220.128L177.99 228.237C177.976 228.104 177.969 227.975 177.969 227.853V220.002H178.564V229.362H178.24C178.139 229.362 178.056 229.316 177.997 229.229L171.912 221.107C171.925 221.239 171.932 221.364 171.932 221.483V229.362H171.344V220.002H171.675C171.734 220.002 171.783 220.009 171.817 220.023Z" fill="#3A4363"/>
<path d="M181.491 222.779V226.986C181.491 227.603 181.633 228.087 181.916 228.439C182.198 228.79 182.63 228.965 183.211 228.965C183.64 228.965 184.04 228.857 184.413 228.637C184.786 228.418 185.12 228.115 185.416 227.728V222.779H186.043V229.362H185.698C185.576 229.362 185.514 229.306 185.51 229.191L185.451 228.212C185.148 228.592 184.793 228.895 184.396 229.125C183.995 229.355 183.553 229.47 183.062 229.47C182.696 229.47 182.375 229.411 182.1 229.299C181.825 229.184 181.599 229.02 181.418 228.804C181.236 228.588 181.101 228.327 181.007 228.024C180.912 227.721 180.867 227.376 180.867 226.993V222.786H181.491V222.779Z" fill="#3A4363"/>
<path d="M188.188 229.362V222.779H188.532C188.647 222.779 188.713 222.834 188.731 222.946L188.79 223.897C188.919 223.716 189.055 223.552 189.201 223.402C189.347 223.252 189.501 223.123 189.668 223.015C189.832 222.907 190.009 222.824 190.197 222.765C190.385 222.705 190.584 222.674 190.789 222.674C191.27 222.674 191.653 222.813 191.939 223.096C192.224 223.374 192.42 223.764 192.521 224.262C192.601 223.987 192.712 223.754 192.855 223.555C192.998 223.357 193.161 223.193 193.346 223.064C193.531 222.935 193.733 222.838 193.949 222.772C194.168 222.709 194.391 222.674 194.621 222.674C194.945 222.674 195.241 222.726 195.499 222.838C195.756 222.946 195.979 223.106 196.16 223.318C196.345 223.531 196.484 223.789 196.582 224.099C196.679 224.409 196.728 224.76 196.728 225.158V229.365H196.101V225.158C196.101 224.513 195.962 224.022 195.683 223.684C195.405 223.346 195.008 223.179 194.492 223.179C194.262 223.179 194.043 223.221 193.834 223.304C193.625 223.388 193.44 223.514 193.28 223.677C193.12 223.844 192.991 224.05 192.897 224.297C192.803 224.544 192.754 224.83 192.754 225.158V229.365H192.127V225.158C192.127 224.517 191.998 224.029 191.744 223.688C191.49 223.346 191.117 223.179 190.626 223.179C190.267 223.179 189.936 223.287 189.633 223.5C189.33 223.712 189.058 224.012 188.818 224.388V229.362H188.188Z" fill="#3A4363"/>
<path d="M198.781 229.362V219.738H199.408L199.415 223.932C199.708 223.545 200.046 223.235 200.429 223.012C200.812 222.786 201.244 222.674 201.725 222.674C202.533 222.674 203.16 222.953 203.612 223.51C204.065 224.067 204.292 224.907 204.292 226.028C204.292 226.509 204.229 226.958 204.103 227.373C203.978 227.791 203.793 228.15 203.546 228.46C203.302 228.766 202.999 229.006 202.644 229.184C202.289 229.362 201.878 229.449 201.415 229.449C200.955 229.449 200.561 229.358 200.23 229.181C199.899 229.003 199.614 228.738 199.377 228.39L199.339 229.198C199.325 229.309 199.265 229.362 199.161 229.362H198.781ZM201.543 223.176C201.105 223.176 200.711 223.287 200.359 223.514C200.004 223.74 199.69 224.053 199.412 224.454V227.927C199.662 228.306 199.941 228.571 200.248 228.724C200.551 228.878 200.902 228.954 201.3 228.954C201.686 228.954 202.028 228.885 202.32 228.742C202.613 228.602 202.857 228.4 203.052 228.143C203.247 227.885 203.396 227.575 203.494 227.216C203.595 226.857 203.644 226.46 203.644 226.028C203.644 225.05 203.463 224.329 203.1 223.869C202.738 223.409 202.219 223.176 201.543 223.176Z" fill="#3A4363"/>
<path d="M208.416 222.674C208.786 222.674 209.13 222.737 209.444 222.866C209.761 222.994 210.033 223.179 210.266 223.426C210.496 223.67 210.677 223.973 210.809 224.329C210.938 224.684 211.004 225.095 211.004 225.558C211.004 225.656 210.99 225.722 210.963 225.757C210.935 225.791 210.889 225.809 210.827 225.809H206.076V225.934C206.076 226.429 206.131 226.861 206.246 227.237C206.361 227.613 206.525 227.927 206.738 228.181C206.95 228.435 207.204 228.627 207.504 228.752C207.803 228.881 208.138 228.944 208.51 228.944C208.841 228.944 209.127 228.905 209.371 228.836C209.615 228.763 209.817 228.682 209.984 228.592C210.148 228.501 210.28 228.421 210.377 228.348C210.475 228.275 210.545 228.24 210.59 228.24C210.646 228.24 210.691 228.261 210.722 228.306L210.893 228.519C210.788 228.651 210.649 228.773 210.471 228.888C210.297 229.003 210.102 229.1 209.89 229.184C209.674 229.264 209.447 229.33 209.2 229.379C208.956 229.428 208.709 229.452 208.462 229.452C208.012 229.452 207.601 229.372 207.232 229.219C206.863 229.062 206.542 228.832 206.278 228.533C206.013 228.233 205.808 227.867 205.661 227.432C205.515 226.997 205.445 226.499 205.445 225.941C205.445 225.468 205.511 225.032 205.647 224.635C205.783 224.235 205.975 223.893 206.229 223.604C206.483 223.315 206.793 223.089 207.163 222.925C207.532 222.754 207.95 222.674 208.416 222.674ZM208.427 223.144C208.089 223.144 207.782 223.197 207.514 223.304C207.246 223.409 207.013 223.562 206.818 223.761C206.623 223.959 206.462 224.196 206.344 224.475C206.222 224.753 206.142 225.064 206.104 225.408H210.437C210.437 225.057 210.388 224.74 210.29 224.457C210.193 224.179 210.057 223.942 209.879 223.747C209.702 223.552 209.493 223.406 209.245 223.301C208.998 223.197 208.726 223.144 208.427 223.144Z" fill="#3A4363"/>
<path d="M212.695 229.362V222.778H213.026C213.099 222.778 213.155 222.792 213.19 222.824C213.225 222.855 213.242 222.907 213.246 222.984L213.298 224.374C213.51 223.841 213.793 223.423 214.144 223.12C214.496 222.817 214.932 222.667 215.447 222.667C215.646 222.667 215.83 222.688 215.997 222.73C216.165 222.771 216.325 222.834 216.475 222.911L216.387 223.346C216.374 223.416 216.332 223.451 216.255 223.451C216.227 223.451 216.192 223.44 216.144 223.423C216.095 223.405 216.036 223.385 215.963 223.364C215.889 223.343 215.799 223.322 215.694 223.304C215.59 223.287 215.468 223.277 215.332 223.277C214.834 223.277 214.426 223.43 214.106 223.74C213.786 224.05 213.528 224.496 213.329 225.077V229.358H212.695V229.362Z" fill="#3A4363"/>
<path d="M220.228 224.844V223.134L218.723 224.008L218.201 223.089L219.705 222.204L218.18 221.323L218.716 220.393L220.228 221.274V219.567H221.301V221.278L222.809 220.403L223.349 221.33L221.837 222.204L223.349 223.085L222.833 224.019L221.301 223.131V224.844H220.228Z" fill="#46B2C8"/>
<path d="M220.567 224.51V222.862C220.567 222.775 220.574 222.699 220.588 222.632C220.602 222.566 220.626 222.486 220.668 222.399C220.612 222.476 220.556 222.535 220.501 222.577C220.445 222.619 220.382 222.66 220.302 222.709L218.85 223.552L218.658 223.211L220.111 222.361C220.184 222.319 220.253 222.288 220.319 222.267C220.386 222.246 220.466 222.228 220.56 222.211C220.462 222.197 220.382 222.176 220.316 222.148C220.25 222.124 220.184 222.089 220.111 222.047L218.641 221.197L218.843 220.849L220.302 221.699C220.386 221.751 220.452 221.8 220.501 221.849C220.549 221.898 220.609 221.967 220.682 222.054C220.64 221.957 220.612 221.87 220.595 221.797C220.577 221.72 220.567 221.64 220.567 221.553V219.898H220.967V221.546C220.967 221.64 220.96 221.723 220.946 221.797C220.933 221.87 220.908 221.957 220.866 222.047C220.929 221.96 220.985 221.891 221.037 221.842C221.089 221.793 221.155 221.744 221.239 221.699L222.692 220.856L222.894 221.204L221.441 222.047C221.364 222.093 221.291 222.131 221.225 222.155C221.159 222.18 221.079 222.201 220.992 222.211C221.086 222.228 221.162 222.246 221.229 222.267C221.291 222.288 221.364 222.319 221.441 222.361L222.901 223.211L222.709 223.559L221.239 222.709C221.162 222.664 221.096 222.619 221.047 222.577C220.995 222.535 220.936 222.472 220.87 222.382C220.901 222.476 220.926 222.556 220.943 222.622C220.96 222.688 220.971 222.768 220.971 222.855V224.51H220.567Z" fill="#46B2C8"/>
<path d="M246.337 289.536C246.303 289.602 246.254 289.634 246.188 289.634C246.139 289.634 246.073 289.599 245.996 289.529C245.919 289.46 245.811 289.38 245.679 289.296C245.547 289.209 245.38 289.132 245.178 289.059C244.975 288.986 244.728 288.951 244.436 288.951C244.143 288.951 243.882 288.993 243.659 289.077C243.436 289.16 243.248 289.275 243.095 289.418C242.945 289.564 242.83 289.731 242.75 289.919C242.67 290.111 242.631 290.31 242.631 290.522C242.631 290.797 242.691 291.024 242.805 291.201C242.92 291.379 243.077 291.532 243.265 291.658C243.453 291.783 243.673 291.891 243.917 291.975C244.16 292.058 244.408 292.145 244.665 292.229C244.92 292.312 245.171 292.406 245.414 292.507C245.658 292.608 245.874 292.734 246.066 292.887C246.257 293.04 246.411 293.228 246.525 293.451C246.64 293.674 246.7 293.953 246.7 294.284C246.7 294.622 246.64 294.942 246.525 295.242C246.411 295.541 246.24 295.802 246.02 296.022C245.798 296.241 245.529 296.419 245.209 296.544C244.888 296.673 244.523 296.736 244.112 296.736C243.579 296.736 243.119 296.642 242.732 296.454C242.346 296.266 242.011 296.008 241.719 295.677L241.879 295.426C241.924 295.371 241.977 295.339 242.039 295.339C242.074 295.339 242.116 295.364 242.172 295.409C242.224 295.454 242.29 295.51 242.367 295.576C242.443 295.642 242.534 295.715 242.642 295.792C242.75 295.869 242.872 295.942 243.014 296.008C243.154 296.074 243.318 296.13 243.502 296.179C243.687 296.224 243.892 296.248 244.126 296.248C244.446 296.248 244.732 296.2 244.986 296.102C245.237 296.005 245.453 295.872 245.623 295.705C245.798 295.538 245.93 295.339 246.02 295.106C246.111 294.876 246.16 294.629 246.16 294.364C246.16 294.078 246.101 293.841 245.986 293.657C245.871 293.472 245.714 293.319 245.526 293.194C245.334 293.068 245.118 292.967 244.874 292.884C244.631 292.8 244.383 292.716 244.126 292.636C243.868 292.556 243.621 292.466 243.377 292.368C243.133 292.271 242.917 292.142 242.725 291.988C242.534 291.835 242.381 291.64 242.266 291.41C242.151 291.18 242.091 290.891 242.091 290.543C242.091 290.271 242.144 290.01 242.245 289.759C242.349 289.508 242.499 289.286 242.698 289.094C242.896 288.902 243.143 288.746 243.432 288.631C243.725 288.516 244.059 288.457 244.432 288.457C244.854 288.457 245.23 288.523 245.564 288.655C245.899 288.787 246.202 288.993 246.477 289.268L246.337 289.536Z" fill="white"/>
<path d="M251.388 296.227C251.778 296.227 252.127 296.161 252.433 296.025C252.74 295.89 253.001 295.701 253.213 295.461C253.426 295.221 253.589 294.939 253.701 294.611C253.812 294.284 253.868 293.932 253.868 293.556V288.551H254.45V293.556C254.45 294.002 254.38 294.42 254.237 294.806C254.095 295.193 253.893 295.531 253.628 295.82C253.363 296.109 253.039 296.335 252.659 296.499C252.28 296.663 251.855 296.746 251.381 296.746C250.907 296.746 250.483 296.663 250.103 296.499C249.723 296.335 249.399 296.109 249.135 295.82C248.87 295.531 248.668 295.196 248.525 294.806C248.386 294.42 248.312 294.002 248.312 293.556V288.551H248.901V293.549C248.901 293.925 248.957 294.277 249.072 294.604C249.183 294.932 249.347 295.214 249.559 295.454C249.772 295.694 250.03 295.883 250.336 296.022C250.65 296.161 250.998 296.227 251.388 296.227Z" fill="white"/>
<path d="M256.789 296.645V288.551H259.119C259.579 288.551 259.98 288.596 260.317 288.686C260.655 288.777 260.934 288.913 261.157 289.09C261.376 289.268 261.544 289.484 261.652 289.738C261.759 289.993 261.815 290.285 261.815 290.609C261.815 290.822 261.777 291.027 261.704 291.226C261.631 291.424 261.523 291.609 261.38 291.776C261.24 291.943 261.066 292.089 260.861 292.215C260.655 292.34 260.422 292.434 260.161 292.497C260.798 292.591 261.289 292.803 261.631 293.131C261.972 293.458 262.146 293.89 262.146 294.43C262.146 294.771 262.083 295.081 261.962 295.357C261.84 295.632 261.662 295.865 261.429 296.053C261.195 296.245 260.91 296.391 260.572 296.492C260.234 296.593 259.847 296.645 259.415 296.645H256.789ZM257.374 292.337H259.13C259.502 292.337 259.823 292.288 260.088 292.194C260.352 292.1 260.568 291.974 260.739 291.818C260.91 291.661 261.035 291.483 261.115 291.285C261.195 291.086 261.234 290.884 261.234 290.672C261.234 290.125 261.063 289.714 260.715 289.432C260.37 289.153 259.837 289.01 259.116 289.01H257.371V292.337H257.374ZM257.374 292.769V296.179H259.405C260.119 296.179 260.655 296.025 261.018 295.719C261.38 295.412 261.561 294.98 261.561 294.423C261.561 294.169 261.512 293.939 261.415 293.733C261.317 293.528 261.178 293.357 260.993 293.214C260.809 293.072 260.586 292.96 260.317 292.884C260.049 292.807 259.746 292.769 259.408 292.769H257.374Z" fill="white"/>
<path d="M268.165 294.632C268.19 294.569 268.211 294.51 268.235 294.451C268.26 294.392 268.287 294.336 268.319 294.28L271.499 288.658C271.53 288.61 271.562 288.578 271.589 288.568C271.621 288.557 271.663 288.551 271.715 288.551H272.122V296.645H271.607V289.745C271.607 289.648 271.614 289.54 271.624 289.432L268.437 295.088C268.385 295.186 268.308 295.238 268.207 295.238H268.117C268.023 295.238 267.946 295.189 267.887 295.088L264.616 289.425C264.627 289.536 264.634 289.641 264.634 289.745V296.645H264.125V288.551H264.526C264.578 288.551 264.623 288.557 264.654 288.568C264.686 288.578 264.717 288.61 264.748 288.658L268.016 294.287C268.075 294.395 268.124 294.51 268.165 294.632Z" fill="white"/>
<path d="M275.323 296.645H274.734V288.551H275.323V296.645Z" fill="white"/>
<path d="M283.229 288.551V289.049H280.387V296.645H279.805V289.049H276.945V288.551H283.229Z" fill="white"/>
<defs>
<linearGradient id="paint0_linear_2817_23356" x1="275.337" y1="-5.19213" x2="246.819" y2="275.915" gradientUnits="userSpaceOnUse">
<stop stop-color="white"/>
<stop offset="1"/>
</linearGradient>
</defs>
</svg>
