<svg width="394" height="304" viewBox="0 0 394 304" fill="none" xmlns="http://www.w3.org/2000/svg">
<g filter="url(#filter0_d_3557_18059)">
<rect x="16" y="55.3926" width="305.979" height="198.71" rx="10" fill="white"/>
</g>
<path d="M16 65.3926C16 59.8697 20.4772 55.3926 26 55.3926H311.979C317.501 55.3926 321.979 59.8697 321.979 65.3926V81.8873H16V65.3926Z" fill="#C9EAF1"/>
<rect x="173.383" y="144.556" width="128.07" height="32.0175" fill="#EEEEEE"/>
<rect x="173.383" y="105.51" width="128.07" height="32.0175" fill="#46B2C8"/>
<rect x="182.758" y="153.927" width="40.7008" height="3.39173" fill="#D9D9D9"/>
<rect x="182.758" y="164.859" width="107.766" height="3.12366" fill="#D9D9D9"/>
<rect x="182.758" y="124.854" width="107.766" height="3.12366" fill="#C7E8F0"/>
<rect x="182.758" y="114.1" width="40.7008" height="3.39173" fill="#C9EAF1"/>
<rect x="45.0156" y="201.348" width="68.5814" height="2.63775" fill="#D9D9D9"/>
<rect x="42.375" y="214.536" width="259.378" height="3.51699" fill="#D9D9D9"/>
<rect x="42.375" y="224.208" width="259.378" height="3.51699" fill="#D9D9D9"/>
<rect x="42.375" y="233.88" width="259.378" height="3.51699" fill="#D9D9D9"/>
<rect x="69.3398" y="111.664" width="39.0167" height="23.41" fill="#D9D9D9"/>
<rect x="42.3828" y="150.68" width="39.0167" height="23.41" fill="#D9D9D9"/>
<rect x="99.8438" y="150.68" width="39.0167" height="23.41" fill="#D9D9D9"/>
<path d="M87.7932 135.074V141.649M87.7932 141.649H57.9883V149.262M87.7932 141.649H119.706V149.262" stroke="#46B2C8" stroke-linecap="round" stroke-dasharray="2 5"/>
<path d="M154.64 244.217C144.282 244.203 134.075 241.742 124.849 237.034C115.622 232.327 107.639 225.507 101.548 217.13C95.4569 208.752 91.4311 199.054 89.7985 188.826C88.166 178.598 88.9727 168.129 92.153 158.272C95.3332 148.414 100.797 139.448 108.1 132.102C115.402 124.757 124.336 119.24 134.175 116.002C144.013 112.764 154.477 111.896 164.715 113.469C174.953 115.041 184.674 119.01 193.087 125.051C204.403 133.172 212.848 144.676 217.205 157.906C221.562 171.135 221.605 185.406 217.329 198.662C213.052 211.918 204.677 223.473 193.411 231.663C182.144 239.852 168.568 244.252 154.64 244.229V244.217ZM154.809 117.123C140.2 117.099 126.062 122.294 114.945 131.772C103.827 141.25 96.4607 154.387 94.1732 168.816C91.8857 183.246 94.8274 198.017 102.468 210.469C110.109 222.921 121.947 232.234 135.847 236.73C149.747 241.225 164.797 240.608 178.282 234.989C191.767 229.37 202.802 219.118 209.397 206.082C215.993 193.046 217.715 178.083 214.253 163.89C210.791 149.697 202.373 137.207 190.517 128.671C180.114 121.184 167.626 117.145 154.809 117.123Z" fill="#C7E8F0"/>
<path d="M285.739 261.413C284.558 263.231 282.705 264.507 280.585 264.959C278.465 265.412 276.252 265.004 274.432 263.827L205.647 219.406C205.492 219.306 205.359 219.176 205.254 219.024C205.15 218.872 205.076 218.701 205.038 218.52C205 218.34 204.998 218.153 205.032 217.972C205.066 217.791 205.136 217.618 205.237 217.464L211.078 208.413C211.276 208.106 211.585 207.889 211.941 207.806C212.297 207.722 212.67 207.78 212.984 207.967L283.084 249.949C284.025 250.514 284.844 251.263 285.489 252.151C286.135 253.039 286.596 254.048 286.844 255.118C287.091 256.188 287.121 257.296 286.931 258.378C286.742 259.459 286.336 260.492 285.739 261.413Z" fill="#C7E8F0"/>
<path d="M154.639 240.538C144.283 240.52 134.077 238.057 124.853 233.349C115.629 228.641 107.648 221.821 101.559 213.444C95.47 205.067 91.4457 195.371 89.8137 185.144C88.1818 174.917 88.9885 164.45 92.168 154.594C95.3475 144.738 100.81 135.772 108.11 128.427C115.411 121.082 124.343 115.566 134.18 112.326C144.016 109.087 154.478 108.217 164.715 109.786C174.951 111.356 184.672 115.321 193.086 121.359C204.402 129.48 212.847 140.985 217.204 154.214C221.56 167.443 221.604 181.715 217.327 194.97C213.051 208.226 204.676 219.781 193.41 227.971C182.143 236.16 168.567 240.561 154.639 240.538ZM154.808 113.455C140.198 113.451 126.067 118.666 114.962 128.16C103.857 137.655 96.5089 150.804 94.2422 165.237C91.9755 179.67 94.9392 194.438 102.599 206.879C110.259 219.321 122.111 228.616 136.019 233.091C149.927 237.566 164.976 236.925 178.454 231.284C191.931 225.644 202.95 215.374 209.525 202.327C216.099 189.279 217.797 174.313 214.312 160.124C210.826 145.936 202.387 133.459 190.515 124.943C180.106 117.477 167.618 113.46 154.808 113.455Z" fill="#46B2C8"/>
<path d="M204.422 214.905L211.766 203.531L284.758 250.661C286.234 251.614 287.271 253.115 287.641 254.832C288.011 256.55 287.683 258.344 286.73 259.82L286.573 260.064C285.62 261.54 284.12 262.577 282.402 262.947C280.684 263.316 278.89 262.989 277.414 262.036L204.422 214.905Z" fill="#46B2C8"/>
<path d="M103.696 181.768C103.461 181.12 103.28 180.454 103.153 179.776C102.941 178.984 102.788 178.178 102.695 177.363C102.51 176.309 102.381 175.245 102.309 174.177C102.309 173.574 102.224 172.97 102.188 172.307C102.152 171.643 102.188 170.979 102.188 170.279C102.188 168.88 102.321 167.383 102.441 165.814C103.175 158.976 105.408 152.383 108.982 146.507C109.741 145.267 110.562 144.066 111.444 142.91C111.878 142.355 112.264 141.8 112.65 141.305L113.857 139.894C114.566 139.092 115.315 138.327 116.102 137.601C116.671 137.024 117.28 136.488 117.924 135.996C118.434 135.546 118.983 135.142 119.565 134.789C119.105 135.298 118.609 135.774 118.081 136.213C117.472 136.736 116.895 137.296 116.355 137.89C115.704 138.578 114.931 139.302 114.195 140.231L112.988 141.643C112.578 142.138 112.204 142.705 111.782 143.248C110.925 144.346 110.177 145.662 109.368 146.941C107.66 149.856 106.241 152.932 105.132 156.124C104.076 159.332 103.328 162.633 102.9 165.983C102.755 167.54 102.586 169.012 102.586 170.4C102.586 171.088 102.586 171.764 102.586 172.403C102.586 173.043 102.586 173.61 102.671 174.25C102.714 175.312 102.811 176.371 102.96 177.423C103.025 178.234 103.142 179.041 103.31 179.837C103.482 180.471 103.611 181.116 103.696 181.768Z" fill="#E0E0E0"/>
<g clip-path="url(#clip0_3557_18059)">
<path d="M126.607 209.314C125.528 209.314 124.448 208.901 123.627 208.079C121.978 206.431 121.978 203.766 123.627 202.118L180.258 145.486C181.906 143.838 184.571 143.838 186.219 145.486C187.867 147.134 187.867 149.799 186.219 151.447L129.588 208.079C128.761 208.904 127.687 209.314 126.607 209.314Z" fill="#F44336"/>
<path d="M183.238 209.314C182.159 209.314 181.08 208.901 180.258 208.079L123.627 151.447C121.978 149.799 121.978 147.134 123.627 145.486C125.275 143.838 127.939 143.838 129.588 145.486L186.219 202.118C187.867 203.766 187.867 206.431 186.219 208.079C185.396 208.904 184.317 209.314 183.238 209.314Z" fill="#F44336"/>
</g>
<g clip-path="url(#clip1_3557_18059)">
<g filter="url(#filter1_d_3557_18059)">
<path d="M332.8 134.411L326.632 137.653C325.644 138.172 324.465 138.172 323.478 137.653L317.309 134.411C283.436 116.607 262.578 83.754 262.578 48.2061V26.4922C262.578 24.775 263.86 23.307 265.567 23.1269C277.243 21.895 286.525 13.5365 288.005 2.96548C288.242 1.27419 289.659 0 291.367 0H358.743C360.45 0 361.868 1.27419 362.105 2.96548C363.584 13.5365 372.867 21.895 384.542 23.1269C386.25 23.307 387.532 24.7753 387.532 26.4922V48.2058C387.532 83.754 366.673 116.607 332.8 134.411Z" fill="#E1E6E9"/>
</g>
<path d="M322.769 125.704C307.409 117.631 294.633 106.028 285.821 92.1496C277.114 78.4352 272.512 62.8497 272.512 47.0781V34.7532C272.512 32.9698 273.595 31.3599 275.253 30.7037C284.388 27.0889 291.76 20.3039 295.791 11.8278C296.509 10.3174 298.045 9.36646 299.718 9.36646H350.393C352.065 9.36646 353.6 10.3174 354.319 11.8278C358.35 20.3039 365.722 27.0892 374.857 30.7039C376.515 31.3602 377.598 32.97 377.598 34.7535V47.0784C377.598 62.8499 372.996 78.4355 364.289 92.1499C355.477 106.028 342.701 117.631 327.341 125.704L327.086 125.839C325.815 126.507 324.296 126.507 323.025 125.839L322.769 125.704Z" fill="#FF993C"/>
<path d="M374.856 30.7037C374.785 30.6753 374.714 30.6451 374.643 30.6163C374.524 30.5686 374.406 30.52 374.288 30.4712C374.087 30.3879 373.886 30.3027 373.686 30.2165C373.571 30.1666 373.455 30.1167 373.34 30.0657C373.126 29.9708 372.915 29.8738 372.703 29.7754C372.607 29.7309 372.511 29.6875 372.416 29.6422C372.112 29.4979 371.809 29.3505 371.51 29.1989C371.487 29.1876 371.465 29.1755 371.443 29.1639C371.165 29.0229 370.89 28.8786 370.617 28.7317C370.52 28.6794 370.424 28.6257 370.328 28.5729C370.129 28.464 369.931 28.354 369.735 28.2415C369.626 28.1793 369.518 28.1162 369.41 28.0531C369.225 27.945 369.04 27.8352 368.857 27.7242C368.75 27.6597 368.644 27.595 368.538 27.5295C368.347 27.4109 368.157 27.2901 367.967 27.1685C367.875 27.1092 367.782 27.0507 367.691 26.9908C367.432 26.8215 367.176 26.6495 366.922 26.4745C366.903 26.4616 366.884 26.4489 366.865 26.4359C366.592 26.2472 366.323 26.055 366.055 25.8598C365.972 25.7988 365.89 25.7366 365.807 25.6751C365.623 25.5389 365.441 25.4017 365.26 25.2626C365.163 25.1879 365.066 25.1121 364.97 25.0367C364.803 24.9053 364.637 24.773 364.472 24.6392C364.376 24.5613 364.28 24.4834 364.185 24.4047C364.016 24.265 363.849 24.1235 363.683 23.9811C363.598 23.908 363.512 23.8355 363.427 23.7617C363.222 23.5826 363.019 23.4009 362.818 23.2178C362.776 23.1798 362.733 23.1429 362.692 23.1049C362.451 22.8832 362.213 22.6587 361.978 22.4311C361.91 22.3656 361.844 22.2987 361.777 22.2327C361.609 22.0687 361.443 21.904 361.279 21.7371C361.196 21.6519 361.113 21.5659 361.031 21.4799C360.884 21.3278 360.738 21.1747 360.594 21.0202C360.51 20.9299 360.426 20.8393 360.343 20.7482C360.199 20.5905 360.057 20.4314 359.915 20.2715C359.839 20.185 359.762 20.0987 359.686 20.0116C359.521 19.8207 359.358 19.6277 359.196 19.4335C359.149 19.3772 359.101 19.3217 359.055 19.265C358.848 19.0138 358.645 18.7595 358.445 18.5031C358.394 18.4376 358.345 18.3707 358.294 18.3047C358.146 18.1122 358 17.9189 357.856 17.7237C357.787 17.6301 357.719 17.5355 357.651 17.4414C357.528 17.2699 357.405 17.0976 357.284 16.9243C357.214 16.8232 357.144 16.7218 357.075 16.6201C356.956 16.446 356.839 16.2704 356.723 16.0944C356.659 15.9965 356.595 15.8989 356.531 15.8005C356.403 15.6002 356.277 15.3982 356.152 15.1955C356.106 15.1211 356.059 15.0472 356.014 14.9725C355.846 14.6954 355.682 14.4158 355.521 14.1343C355.488 14.0747 355.455 14.0143 355.422 13.9547C355.296 13.7312 355.173 13.5066 355.052 13.2802C354.998 13.1801 354.947 13.0793 354.895 12.979C354.796 12.7895 354.698 12.5991 354.603 12.4077C354.548 12.2982 354.495 12.1882 354.441 12.078C354.401 11.9944 354.358 11.9116 354.318 11.8278C353.6 10.3174 352.065 9.36646 350.392 9.36646H325.055V126.34C325.752 126.34 326.45 126.173 327.085 125.839L327.341 125.704C342.701 117.631 355.477 106.028 364.288 92.1499C372.996 78.4355 377.598 62.8499 377.598 47.0783V34.7532C377.598 32.9698 376.515 31.3599 374.856 30.7037Z" fill="#FF993C"/>
<path d="M310.821 53.6333V39.5744C310.821 31.6825 317.242 25.2625 325.133 25.2625C333.025 25.2625 339.445 31.6828 339.445 39.5744V53.6333H343.49V39.5744C343.49 29.4525 335.255 21.2183 325.133 21.2183C315.012 21.2183 306.777 29.4528 306.777 39.5744V53.6333H310.821Z" fill="#515A66"/>
<path d="M348.216 88.2399H302.05C299.615 88.2399 297.641 86.2661 297.641 83.8309V54.8785C297.641 52.4436 299.614 50.4695 302.05 50.4695H348.216C350.651 50.4695 352.625 52.4433 352.625 54.8785V83.8309C352.625 86.2661 350.651 88.2399 348.216 88.2399Z" fill="#636A75"/>
<path d="M329.867 67.1679C329.867 64.5521 327.747 62.4316 325.131 62.4316C322.515 62.4316 320.395 64.5521 320.395 67.1679C320.395 69.0593 321.506 70.6869 323.109 71.4462V77.2038C323.109 78.3205 324.014 79.2259 325.131 79.2259C326.248 79.2259 327.153 78.3205 327.153 77.2038V71.4464C328.756 70.6869 329.867 69.0593 329.867 67.1679Z" fill="#F1F1F1"/>
</g>
<g filter="url(#filter2_d_3557_18059)">
<path d="M133.078 254.103H204.297L213.089 285.756H124.285L133.078 254.103Z" fill="#D9D9D9"/>
</g>
<defs>
<filter id="filter0_d_3557_18059" x="0" y="47.3926" width="337.977" height="230.71" filterUnits="userSpaceOnUse" color-interpolation-filters="sRGB">
<feFlood flood-opacity="0" result="BackgroundImageFix"/>
<feColorMatrix in="SourceAlpha" type="matrix" values="0 0 0 0 0 0 0 0 0 0 0 0 0 0 0 0 0 0 127 0" result="hardAlpha"/>
<feOffset dy="8"/>
<feGaussianBlur stdDeviation="8"/>
<feComposite in2="hardAlpha" operator="out"/>
<feColorMatrix type="matrix" values="0 0 0 0 0 0 0 0 0 0 0 0 0 0 0 0 0 0 0.08 0"/>
<feBlend mode="normal" in2="BackgroundImageFix" result="effect1_dropShadow_3557_18059"/>
<feBlend mode="normal" in="SourceGraphic" in2="effect1_dropShadow_3557_18059" result="shape"/>
</filter>
<filter id="filter1_d_3557_18059" x="246.578" y="-8" width="156.953" height="170.042" filterUnits="userSpaceOnUse" color-interpolation-filters="sRGB">
<feFlood flood-opacity="0" result="BackgroundImageFix"/>
<feColorMatrix in="SourceAlpha" type="matrix" values="0 0 0 0 0 0 0 0 0 0 0 0 0 0 0 0 0 0 127 0" result="hardAlpha"/>
<feOffset dy="8"/>
<feGaussianBlur stdDeviation="8"/>
<feComposite in2="hardAlpha" operator="out"/>
<feColorMatrix type="matrix" values="0 0 0 0 0 0 0 0 0 0 0 0 0 0 0 0 0 0 0.08 0"/>
<feBlend mode="normal" in2="BackgroundImageFix" result="effect1_dropShadow_3557_18059"/>
<feBlend mode="normal" in="SourceGraphic" in2="effect1_dropShadow_3557_18059" result="shape"/>
</filter>
<filter id="filter2_d_3557_18059" x="112.285" y="248.103" width="112.805" height="55.6528" filterUnits="userSpaceOnUse" color-interpolation-filters="sRGB">
<feFlood flood-opacity="0" result="BackgroundImageFix"/>
<feColorMatrix in="SourceAlpha" type="matrix" values="0 0 0 0 0 0 0 0 0 0 0 0 0 0 0 0 0 0 127 0" result="hardAlpha"/>
<feOffset dy="6"/>
<feGaussianBlur stdDeviation="6"/>
<feComposite in2="hardAlpha" operator="out"/>
<feColorMatrix type="matrix" values="0 0 0 0 0 0 0 0 0 0 0 0 0 0 0 0 0 0 0.1 0"/>
<feBlend mode="normal" in2="BackgroundImageFix" result="effect1_dropShadow_3557_18059"/>
<feBlend mode="normal" in="SourceGraphic" in2="effect1_dropShadow_3557_18059" result="shape"/>
</filter>
<clipPath id="clip0_3557_18059">
<rect width="65.0644" height="65.0644" fill="white" transform="translate(122.391 144.197)"/>
</clipPath>
<clipPath id="clip1_3557_18059">
<rect width="138.366" height="171.453" fill="white" transform="translate(255.633)"/>
</clipPath>
</defs>
</svg>
