<svg width="427" height="427" viewBox="0 0 427 427" fill="none" xmlns="http://www.w3.org/2000/svg">
<path d="M391.03 395.402C391.03 395.521 315.246 395.624 221.792 395.624C128.339 395.624 52.5381 395.496 52.5381 395.402C52.5381 395.308 128.296 395.18 221.792 395.18C315.288 395.18 391.03 395.248 391.03 395.402Z" fill="#263238"/>
<path d="M93.7522 130.312L94.3671 131.337C95.0561 132.485 96.0612 133.41 97.2621 134.002L98.3382 134.531L97.3134 135.155C96.1633 135.844 95.2355 136.848 94.6404 138.05L94.1109 139.117L93.496 138.101C92.804 136.95 91.7962 136.023 90.5924 135.428L89.5249 134.898L90.5497 134.284C91.6978 133.591 92.6227 132.583 93.2142 131.38L93.7522 130.312Z" fill="#46B2C8"/>
<path d="M315.425 242.775L316.04 243.8C316.731 244.948 317.735 245.876 318.935 246.473L320.011 247.003L318.986 247.618C317.836 248.31 316.908 249.317 316.313 250.521L315.784 251.589L315.169 250.564C314.475 249.418 313.472 248.491 312.274 247.891L311.198 247.361L312.223 246.746C313.373 246.058 314.3 245.053 314.896 243.851L315.425 242.775Z" fill="#46B2C8"/>
<path d="M195.019 31.5986L195.634 32.6234C196.323 33.7735 197.328 34.7013 198.529 35.2965L199.605 35.8259L198.58 36.4408C197.439 37.1181 196.513 38.1039 195.907 39.2846L195.378 40.3607L194.763 39.3359C194.071 38.1852 193.063 37.2575 191.859 36.6629L190.792 36.1334L191.817 35.5185C192.963 34.8272 193.887 33.8227 194.481 32.6234L195.019 31.5986Z" fill="#46B2C8"/>
<path d="M339.158 128.101L339.773 129.125C340.465 130.276 341.472 131.204 342.676 131.798L343.744 132.328L342.719 132.943C341.573 133.634 340.648 134.639 340.054 135.838L339.525 136.914L338.91 135.889C338.218 134.738 337.21 133.811 336.006 133.216L334.939 132.687L335.955 132.072C337.103 131.381 338.031 130.376 338.628 129.177L339.158 128.101Z" fill="#46B2C8"/>
<path d="M117.101 169.775L117.545 170.518C118.05 171.356 118.785 172.032 119.663 172.465L120.448 172.85L119.697 173.302C118.859 173.808 118.183 174.543 117.75 175.42L117.365 176.197L116.913 175.454C116.407 174.617 115.672 173.941 114.795 173.507L114.018 173.123L114.761 172.67C115.601 172.168 116.277 171.432 116.708 170.553L117.101 169.775Z" fill="#46B2C8"/>
<path d="M137.494 265.475L137.947 266.226C138.452 267.057 139.184 267.726 140.056 268.156L140.842 268.54L140.09 268.993C139.252 269.499 138.577 270.234 138.143 271.111L137.759 271.888L137.306 271.145C136.803 270.308 136.071 269.633 135.197 269.198L134.411 268.805L135.163 268.361C136.001 267.856 136.676 267.121 137.11 266.243L137.494 265.475Z" fill="#46B2C8"/>
<path d="M332.462 99.0645L332.906 99.8074C333.409 100.648 334.145 101.324 335.024 101.755L335.81 102.147L335.058 102.591C334.221 103.097 333.545 103.832 333.111 104.709L332.727 105.495L332.274 104.744C331.769 103.906 331.034 103.23 330.157 102.796L329.379 102.412L330.122 101.96C330.963 101.457 331.639 100.721 332.069 99.8416L332.462 99.0645Z" fill="#46B2C8"/>
<path d="M77.1161 149.587L77.5602 150.33C78.0645 151.171 78.7996 151.85 79.6781 152.286L80.4638 152.67L79.7123 153.114C78.8779 153.624 78.2033 154.358 77.7652 155.232L77.3809 156.018L76.9283 155.266C76.4227 154.428 75.6878 153.752 74.8103 153.319L74.0332 152.935L74.7762 152.482C75.6163 151.979 76.2927 151.243 76.7233 150.364L77.1161 149.587Z" fill="#46B2C8"/>
<path d="M354.051 103.693L354.307 104.12C354.597 104.599 355.018 104.984 355.52 105.231L355.973 105.453L355.546 105.709C355.057 105.993 354.662 106.415 354.41 106.921L354.188 107.374L353.932 106.947C353.645 106.464 353.223 106.076 352.719 105.828L352.275 105.606L352.702 105.35C353.18 105.06 353.565 104.639 353.812 104.137L354.051 103.693Z" fill="#46B2C8"/>
<path d="M338.09 226.635L338.346 227.07C338.636 227.549 339.057 227.934 339.559 228.181L340.003 228.403L339.576 228.659C339.095 228.948 338.707 229.369 338.457 229.871L338.235 230.324L337.979 229.889C337.689 229.41 337.268 229.025 336.766 228.778L336.322 228.556L336.749 228.3C337.23 228.011 337.618 227.59 337.868 227.087L338.09 226.635Z" fill="#46B2C8"/>
<path d="M227.651 21.9736L227.907 22.4006C228.197 22.8789 228.618 23.2641 229.119 23.5108L229.572 23.7329L229.145 23.9976C228.66 24.28 228.268 24.6987 228.018 25.2018L227.796 25.6544L227.54 25.2274C227.246 24.7441 226.819 24.3558 226.31 24.1086L225.883 23.9122L226.318 23.656C226.797 23.3661 227.182 22.9453 227.429 22.4433L227.651 21.9736Z" fill="#46B2C8"/>
<path d="M178.742 43.7764L178.999 44.2034C179.283 44.6818 179.698 45.0697 180.194 45.3221L180.638 45.5442L180.211 45.8003C179.733 46.0903 179.348 46.5111 179.101 47.013L178.879 47.4571L178.614 47.0301C178.328 46.5496 177.91 46.1613 177.41 45.9114L176.958 45.6893L177.385 45.4331C177.861 45.1434 178.243 44.7223 178.486 44.2204L178.742 43.7764Z" fill="#46B2C8"/>
<path d="M142.994 276.696L143.25 277.123C143.539 277.604 143.96 277.992 144.463 278.242L144.907 278.464L144.48 278.72C144.002 279.01 143.616 279.431 143.37 279.933L143.148 280.377L142.891 279.95C142.6 279.471 142.18 279.083 141.679 278.831L141.226 278.609L141.653 278.353C142.136 278.066 142.524 277.645 142.772 277.14L142.994 276.696Z" fill="#46B2C8"/>
<path d="M268.651 339.748L162.755 339.5C158.366 339.5 154.813 336.4 154.822 332.6C154.822 328.808 158.4 325.768 162.79 325.768L268.686 326.015C273.075 326.015 276.619 329.107 276.611 332.907C276.602 336.682 273.041 339.756 268.651 339.748Z" fill="#455A64"/>
<path d="M268.651 323.043L162.755 322.804C158.366 322.804 154.813 319.704 154.822 315.903C154.822 312.103 158.4 309.071 162.79 309.071L268.686 309.31C273.075 309.31 276.619 312.41 276.611 316.211C276.602 319.985 273.041 323.051 268.651 323.043Z" fill="#455A64"/>
<path d="M264.398 342.241L167.452 342.019C165.613 342.145 163.89 342.964 162.632 344.312C161.374 345.659 160.674 347.434 160.674 349.278C160.674 351.121 161.374 352.896 162.632 354.243C163.89 355.591 165.613 356.41 167.452 356.537H178.093L192.15 383.497C192.942 385.004 194.129 386.267 195.584 387.152C197.038 388.036 198.706 388.509 200.408 388.519L235.055 388.596C236.776 388.601 238.465 388.131 239.936 387.238C241.406 386.344 242.602 385.061 243.39 383.532L257.173 356.776H264.407C266.246 356.649 267.969 355.83 269.227 354.482C270.485 353.135 271.185 351.36 271.185 349.517C271.185 347.673 270.485 345.898 269.227 344.551C267.969 343.204 266.246 342.384 264.407 342.258L264.398 342.241Z" fill="#455A64"/>
<path d="M297.696 229.444C297.696 229.444 297.431 229.854 296.91 230.614L294.604 234.03L292.922 236.558C292.307 237.489 291.701 238.557 291.001 239.684L288.78 243.356C287.969 244.654 287.269 246.132 286.432 247.626C286.022 248.395 285.578 249.18 285.168 249.983C284.954 250.393 284.741 250.837 284.519 251.213C284.297 251.589 284.117 252.067 283.912 252.502C283.058 254.253 282.204 256.081 281.35 258.002L278.84 264.142C278.045 266.303 277.26 268.575 276.448 270.923C274.804 275.989 273.461 281.148 272.426 286.372C271.259 292.264 270.687 298.257 270.718 304.263V304.409H270.581L157.554 304.468H157.375V304.289C156.188 291.061 152.739 278.134 147.178 266.072C144.267 259.675 140.908 253.491 137.127 247.566C135.214 244.552 133.181 241.588 131.021 238.676C128.86 235.764 126.503 232.989 124.189 230.136L123.907 229.795H124.359L124.197 230.136C113.61 216.523 106.386 200.602 103.112 183.67C102.651 181.501 102.369 179.298 102.027 177.094C101.891 175.984 101.788 174.874 101.669 173.764L101.498 172.056L101.387 170.348C101.327 169.229 101.225 168.11 101.19 166.983C101.156 165.856 101.19 164.728 101.122 163.567C101.054 162.405 101.122 161.312 101.122 160.151C101.122 158.989 101.122 157.879 101.225 156.735C101.742 147.572 103.376 138.506 106.092 129.74C113.977 105.017 130.336 83.8705 152.285 70.0283C157.514 66.7331 163.007 63.8767 168.708 61.4883C174.305 59.1603 180.091 57.3118 186.001 55.9629C197.456 53.3239 209.259 52.5311 220.964 53.6144C226.595 54.1476 232.178 55.0981 237.668 56.4582C243.002 57.8319 248.233 59.5783 253.322 61.6847C258.234 63.7996 263.001 66.2359 267.592 68.9778C272.005 71.6909 276.235 74.6892 280.257 77.9534C287.859 84.202 294.594 91.4365 300.283 99.4656C305.541 106.866 309.845 114.9 313.094 123.378C313.947 125.376 314.537 127.426 315.237 129.424C315.937 131.422 316.398 133.455 316.945 135.402C317.398 137.417 317.893 139.39 318.286 141.38C318.457 142.371 318.636 143.344 318.807 144.318C318.978 145.291 319.165 146.256 319.268 147.23C320.321 154.492 320.65 161.842 320.25 169.169C319.554 180.938 316.958 192.517 312.564 203.457C310.955 207.431 309.125 211.311 307.081 215.08C305.271 218.342 303.614 221.058 302.196 223.142L300.309 225.917L298.857 227.856L297.67 229.444L298.815 227.856L300.249 225.883L302.128 223.091C303.529 220.973 305.168 218.283 306.962 215.02C308.988 211.246 310.804 207.363 312.402 203.389C319.452 185.566 321.728 166.211 319.003 147.238C318.901 146.265 318.713 145.308 318.542 144.335C318.371 143.361 318.192 142.388 318.013 141.406C317.628 139.441 317.159 137.477 316.672 135.428C316.185 133.378 315.579 131.439 314.964 129.45C314.349 127.46 313.666 125.41 312.82 123.42C309.572 114.975 305.268 106.975 300.01 99.6108C294.327 91.625 287.607 84.431 280.027 78.2181C276.011 74.9747 271.792 71.991 267.396 69.2853C262.82 66.5541 258.067 64.1319 253.168 62.0348C248.098 59.9383 242.888 58.2004 237.574 56.834C232.102 55.4755 226.535 54.5306 220.921 54.0072C209.261 52.9311 197.504 53.7268 186.095 56.3643C180.207 57.7075 174.445 59.5503 168.87 61.8726C163.192 64.2624 157.722 67.1188 152.516 70.4126C130.626 84.2474 114.334 105.377 106.519 130.064C103.813 138.798 102.184 147.829 101.669 156.957C101.609 158.084 101.6 159.211 101.566 160.373C101.532 161.534 101.472 162.619 101.524 163.746C101.575 164.873 101.566 165.992 101.592 167.111C101.617 168.23 101.72 169.348 101.788 170.459L101.891 172.167L102.062 173.875C102.181 174.976 102.292 176.087 102.429 177.188C102.762 179.383 103.044 181.578 103.496 183.738C106.754 200.604 113.946 216.463 124.488 230.025L124.761 230.375H124.317L124.488 230.025C126.819 232.852 129.219 235.619 131.32 238.565C133.42 241.511 135.521 244.466 137.434 247.489C141.229 253.427 144.594 259.628 147.503 266.047C153.09 278.15 156.556 291.123 157.751 304.4L157.563 304.221L270.59 304.28L270.453 304.426C270.438 298.404 271.027 292.396 272.213 286.492C273.242 281.254 274.576 276.082 276.209 271C277.063 268.652 277.823 266.38 278.626 264.219C279.429 262.059 280.334 260.035 281.188 258.071C282.042 256.106 282.956 254.321 283.75 252.579L284.356 251.29L285.014 250.06C285.45 249.257 285.868 248.472 286.286 247.703C287.14 246.191 287.841 244.714 288.652 243.433L290.889 239.769C291.59 238.642 292.205 237.574 292.828 236.652C293.452 235.73 294.032 234.893 294.536 234.15L296.876 230.734L297.73 229.581L297.696 229.444Z" fill="#263238"/>
<path d="M116.767 199.495C116.724 199.421 116.693 199.34 116.673 199.256C116.605 199.068 116.528 198.829 116.426 198.53C116.204 197.864 115.905 196.933 115.521 195.746L114.872 193.731C114.658 192.988 114.47 192.168 114.248 191.297C113.821 189.537 113.249 187.556 112.882 185.319C112.677 184.2 112.463 183.03 112.233 181.809C112.002 180.588 111.9 179.298 111.72 177.966C111.319 175.318 111.191 172.466 110.994 169.426C110.74 162.9 111.025 156.365 111.848 149.886C112.772 143.421 114.226 137.043 116.195 130.816C117.186 127.973 118.074 125.257 119.167 122.806C119.697 121.576 120.149 120.363 120.687 119.245L122.25 116.034C123.198 113.967 124.283 112.208 125.154 110.628C125.606 109.851 126.008 109.108 126.409 108.45L127.571 106.674L129.185 104.231L129.612 103.608C129.714 103.463 129.765 103.395 129.774 103.403C129.782 103.412 129.774 103.48 129.654 103.634L129.261 104.283L127.716 106.768L126.588 108.553C126.196 109.219 125.811 109.97 125.376 110.756C124.522 112.344 123.454 114.104 122.532 116.179L120.995 119.39C120.474 120.509 120.03 121.721 119.509 122.951C118.433 125.394 117.562 128.075 116.588 130.945C114.658 137.154 113.23 143.508 112.318 149.946C111.493 156.399 111.187 162.907 111.404 169.409C111.592 172.398 111.703 175.25 112.088 177.889C112.258 179.213 112.361 180.502 112.574 181.723C112.788 182.945 112.993 184.106 113.198 185.225C113.531 187.471 114.052 189.495 114.487 191.203C114.701 192.057 114.88 192.911 115.077 193.645C115.273 194.38 115.504 195.054 115.683 195.669C116.033 196.865 116.315 197.804 116.537 198.47L116.742 199.205C116.765 199.3 116.774 199.398 116.767 199.495Z" fill="#263238"/>
<path d="M149.39 84.5459C147.531 86.4398 145.57 88.2302 143.515 89.909C141.555 91.7033 139.494 93.3828 137.34 94.9391C139.201 93.044 141.165 91.2535 143.224 89.576C145.183 87.7838 147.241 86.1044 149.39 84.5459Z" fill="#263238"/>
<path d="M298.9 211.886C298.9 211.886 298.9 211.818 298.977 211.69L299.233 211.135L300.249 209.034L300.992 207.522C301.257 206.967 301.513 206.344 301.846 205.686C302.41 204.362 303.119 202.885 303.742 201.185L304.767 198.529C305.117 197.607 305.416 196.625 305.758 195.617C306.475 193.61 307.064 191.416 307.722 189.11C309.037 184.089 310.024 178.989 310.677 173.84C311.267 168.681 311.527 163.49 311.454 158.298C311.36 155.906 311.317 153.626 311.095 151.466C311.001 150.407 310.941 149.382 310.822 148.4C310.702 147.418 310.574 146.478 310.463 145.581C310.267 143.78 309.934 142.165 309.703 140.756C309.575 140.048 309.472 139.381 309.353 138.775C309.233 138.169 309.097 137.631 308.986 137.135L308.499 134.847C308.456 134.608 308.413 134.411 308.388 134.249C308.376 134.181 308.376 134.112 308.388 134.044C308.417 134.107 308.439 134.173 308.456 134.24C308.499 134.403 308.55 134.591 308.61 134.83C308.755 135.385 308.943 136.136 309.182 137.093L309.583 138.732C309.72 139.339 309.831 139.996 309.968 140.705C310.224 142.123 310.583 143.737 310.822 145.539L311.215 148.357C311.343 149.348 311.411 150.372 311.513 151.44C311.753 153.558 311.812 155.847 311.915 158.272C312.178 168.71 310.918 179.13 308.174 189.204C307.5 191.51 306.893 193.713 306.159 195.72C305.8 196.728 305.501 197.71 305.134 198.632L304.084 201.279C303.443 202.987 302.717 204.456 302.128 205.771C301.821 206.429 301.556 207.044 301.274 207.599L300.488 209.093L299.395 211.16L299.105 211.69C299.05 211.768 298.98 211.834 298.9 211.886Z" fill="#263238"/>
<path d="M263.459 107.34C257.618 103.992 251.503 100.943 244.936 99.4913C244.024 99.2419 243.075 99.1609 242.135 99.2521C241.665 99.3061 241.216 99.4704 240.822 99.7317C240.429 99.9929 240.103 100.344 239.871 100.755C239.308 101.925 239.871 103.317 240.563 104.402C242.143 106.793 244.509 108.527 246.891 110.106C253.424 114.436 260.436 117.963 267.387 121.482C266.533 116.494 264.757 112.216 263.416 107.34" fill="#FF5454"/>
<path d="M308.243 120.209C310.156 126.665 312.453 133.087 316.193 138.681C316.681 139.493 317.316 140.208 318.064 140.79C318.438 141.079 318.876 141.273 319.342 141.357C319.807 141.44 320.286 141.41 320.737 141.268C321.949 140.816 322.53 139.432 322.752 138.16C323.265 135.342 322.752 132.447 322.129 129.663C320.421 121.977 317.773 114.624 315.152 107.245C312.342 111.455 310.642 115.785 308.243 120.209Z" fill="#FF5454"/>
<path d="M263.374 107.202C263.374 107.202 263.826 151.909 288.917 152.789C314.007 153.668 315.058 107.527 315.058 107.202C315.058 107.202 312.094 100.541 289.216 100.797C266.337 101.053 263.374 107.202 263.374 107.202Z" fill="#FF5454"/>
<path d="M296.697 124.957C296.572 126.664 295.944 128.296 294.892 129.645C293.84 130.995 292.412 132.003 290.787 132.54C289.163 133.078 287.415 133.122 285.766 132.667C284.116 132.211 282.639 131.277 281.521 129.982C280.402 128.686 279.693 127.089 279.483 125.39C279.273 123.692 279.571 121.97 280.34 120.441C281.109 118.912 282.314 117.646 283.802 116.802C285.291 115.958 286.997 115.575 288.703 115.7C290.99 115.868 293.117 116.938 294.616 118.674C296.115 120.41 296.864 122.67 296.697 124.957Z" fill="#263238"/>
<path d="M294.357 124.787C294.266 126.03 293.808 127.218 293.041 128.201C292.275 129.184 291.234 129.918 290.051 130.31C288.867 130.701 287.594 130.733 286.393 130.401C285.191 130.069 284.115 129.388 283.3 128.444C282.486 127.501 281.969 126.337 281.816 125.1C281.663 123.863 281.88 122.608 282.44 121.494C283 120.381 283.878 119.458 284.963 118.843C286.047 118.229 287.289 117.949 288.532 118.04C290.199 118.165 291.747 118.945 292.839 120.21C293.931 121.474 294.477 123.12 294.357 124.787Z" fill="white"/>
<path d="M291.316 125.939C291.268 125.594 291.248 125.246 291.256 124.898C291.256 124.24 291.256 123.318 291.256 122.182L291.325 122.301L288.054 120.414H288.233L284.962 122.25C284.877 122.404 285.082 122.054 285.065 122.088V123.053C285.065 123.369 285.065 123.693 285.065 124.009C285.065 124.633 285.065 125.239 285.065 125.828L284.98 125.666L288.182 127.622H288.037C289.036 127.084 289.864 126.657 290.445 126.358C290.746 126.187 291.06 126.041 291.385 125.922C291.116 126.126 290.83 126.306 290.531 126.46C289.984 126.793 289.164 127.314 288.139 127.87L288.071 127.912L288.003 127.87L284.758 125.982L284.664 125.931V125.82C284.664 125.231 284.664 124.624 284.664 124.001C284.664 123.685 284.664 123.369 284.664 123.044V122.122C284.664 122.122 284.851 121.806 284.758 121.951L288.045 120.132L288.139 120.081L288.225 120.132L291.427 122.096H291.504V122.173C291.504 123.352 291.436 124.3 291.402 124.949C291.404 125.281 291.375 125.613 291.316 125.939Z" fill="#FF5454"/>
<path d="M263.263 107.169C263.263 107.169 263.314 107.169 263.399 107.169L263.775 107.297L265.235 107.809L266.277 108.185L267.55 108.578C268.455 108.851 269.48 109.201 270.65 109.432L272.469 109.893C273.101 110.055 273.767 110.175 274.459 110.32C275.825 110.636 277.32 110.85 278.874 111.106C285.671 112.083 292.573 112.083 299.37 111.106C300.933 110.858 302.419 110.645 303.785 110.329C304.477 110.175 305.143 110.055 305.775 109.902L307.594 109.432C308.764 109.159 309.789 108.809 310.702 108.578C311.155 108.441 311.556 108.322 311.966 108.194L313.017 107.818L314.469 107.306L314.844 107.177L314.981 107.135C314.981 107.135 314.938 107.135 314.853 107.195L314.477 107.34L313.034 107.878L311.992 108.271C311.608 108.407 311.138 108.527 310.728 108.681C309.823 108.954 308.798 109.312 307.628 109.594L305.809 110.073C305.177 110.235 304.511 110.363 303.819 110.517C302.444 110.833 300.958 111.055 299.395 111.311C292.58 112.313 285.655 112.313 278.84 111.311C277.268 111.055 275.782 110.833 274.407 110.508C273.724 110.363 273.05 110.235 272.418 110.073L270.599 109.594C269.429 109.312 268.412 108.954 267.499 108.672L266.235 108.271L265.193 107.878L263.749 107.331L263.374 107.186L263.263 107.169Z" fill="#263238"/>
<g opacity="0.3">
<path d="M263.374 107.203C263.374 107.203 266.337 101.062 289.216 100.798C312.094 100.533 315.058 107.203 315.058 107.203C315.058 107.203 291.983 118.587 263.374 107.203Z" fill="black"/>
</g>
<path d="M271.239 139.023C271.222 139.002 271.207 138.979 271.196 138.955L271.085 138.758L270.667 137.972L270.376 137.409L270.052 136.717C269.821 136.222 269.565 135.658 269.309 135.009L268.899 134.01L268.498 132.917C268.199 132.165 267.951 131.337 267.644 130.474C267.106 128.766 266.585 126.811 266.123 124.761C265.662 122.712 265.329 120.747 265.056 118.945C264.783 117.143 264.603 115.529 264.501 114.154C264.433 113.471 264.39 112.856 264.356 112.31C264.322 111.763 264.296 111.294 264.279 110.909V110.055V109.739C264.279 109.739 264.279 109.739 264.279 109.825V110.047C264.279 110.269 264.279 110.559 264.347 110.901C264.415 111.242 264.398 111.755 264.45 112.293C264.501 112.831 264.544 113.454 264.612 114.137C264.74 115.504 264.953 117.118 265.21 118.92C265.466 120.722 265.842 122.669 266.286 124.718C266.73 126.768 267.268 128.681 267.789 130.415C268.079 131.269 268.318 132.123 268.643 132.857L269.036 133.959L269.437 134.958C269.676 135.598 269.932 136.162 270.154 136.666L270.462 137.366L270.744 137.938L271.128 138.733L271.222 138.938L271.239 139.023Z" fill="white"/>
<path d="M283.332 149.775C283.197 149.77 283.062 149.753 282.93 149.723C282.568 149.666 282.212 149.58 281.863 149.467C281.343 149.311 280.834 149.117 280.343 148.886C279.748 148.596 279.177 148.259 278.635 147.879C278.092 147.493 277.581 147.065 277.106 146.598C276.719 146.213 276.362 145.799 276.039 145.359C275.817 145.07 275.617 144.765 275.441 144.446C275.366 144.333 275.303 144.213 275.253 144.087C275.253 144.087 275.569 144.565 276.107 145.283C276.44 145.703 276.799 146.103 277.183 146.478C277.659 146.933 278.167 147.352 278.703 147.733C279.246 148.11 279.817 148.444 280.411 148.733C280.893 148.969 281.389 149.174 281.897 149.348C282.768 149.638 283.332 149.74 283.332 149.775Z" fill="white"/>
<path d="M288.558 134.001H288.319C288.165 134.001 287.926 134.001 287.627 134.001C286.781 133.987 285.941 133.851 285.133 133.6C283.925 133.233 282.797 132.639 281.811 131.849C280.582 130.899 279.613 129.655 278.994 128.23C278.374 126.806 278.124 125.248 278.267 123.702C278.324 123.029 278.444 122.362 278.626 121.712C278.794 121.153 279.005 120.607 279.258 120.081C279.629 119.315 280.106 118.605 280.676 117.971C280.826 117.801 280.986 117.639 281.154 117.485C281.273 117.374 281.333 117.322 281.342 117.331C281.35 117.34 281.111 117.57 280.727 118.023C280.182 118.66 279.728 119.37 279.377 120.132C279.13 120.655 278.927 121.198 278.771 121.755C278.599 122.395 278.487 123.049 278.438 123.71C278.301 125.23 278.548 126.759 279.155 128.159C279.762 129.558 280.711 130.783 281.914 131.721C282.432 132.134 282.987 132.5 283.571 132.814C284.086 133.074 284.62 133.297 285.168 133.48C285.968 133.736 286.797 133.888 287.636 133.933C288.225 134.001 288.558 133.984 288.558 134.001Z" fill="white"/>
<path d="M287.473 60.7194C287.473 60.7194 265.594 60.4547 262.178 79.422C258.762 98.3894 277.217 98.7139 282.537 99.064C284.954 99.2263 290.112 99.2434 294.664 99.158C304.75 98.9872 311.872 97.0315 314.306 87.6802C314.596 86.5817 314.779 85.4577 314.853 84.324C315.442 74.076 308.499 60.2155 287.473 60.7194Z" fill="#FF5454"/>
<path d="M303.341 89.5764L271.563 90.0717C270.768 90.0842 269.978 89.9391 269.239 89.6448C268.5 89.3506 267.827 88.9131 267.257 88.3574C266.688 87.8017 266.235 87.1389 265.923 86.4071C265.611 85.6754 265.447 84.8892 265.44 84.0937C265.415 82.4938 266.026 80.9494 267.139 79.7996C268.252 78.6499 269.776 77.989 271.375 77.962L303.17 77.5094C303.965 77.4981 304.755 77.6439 305.494 77.9384C306.233 78.233 306.907 78.6704 307.476 79.2258C308.046 79.7811 308.501 80.4434 308.814 81.1747C309.127 81.906 309.293 82.6919 309.302 83.4874C309.315 85.0843 308.696 86.6217 307.579 87.7629C306.461 88.904 304.938 89.5561 303.341 89.5764Z" fill="#263238"/>
<path d="M278.156 83.4787C278.083 83.8555 277.899 84.202 277.628 84.4743C277.358 84.7465 277.012 84.9323 276.636 85.008C276.259 85.0838 275.869 85.046 275.514 84.8996C275.159 84.7532 274.856 84.5047 274.642 84.1857C274.429 83.8666 274.315 83.4913 274.315 83.1074C274.315 82.7235 274.429 82.3482 274.643 82.0292C274.856 81.7102 275.16 81.4617 275.514 81.3154C275.869 81.169 276.26 81.1313 276.636 81.2071C277.138 81.3081 277.58 81.6038 277.865 82.0294C278.149 82.455 278.254 82.9761 278.156 83.4787Z" fill="white"/>
<path d="M300.36 83.1197C300.287 83.4962 300.104 83.8427 299.834 84.1151C299.564 84.3875 299.219 84.5736 298.843 84.6499C298.467 84.7263 298.077 84.6893 297.722 84.5438C297.367 84.3982 297.063 84.1507 296.849 83.8324C296.635 83.5141 296.52 83.1395 296.519 82.7558C296.517 82.3722 296.63 81.9969 296.842 81.6774C297.055 81.3578 297.357 81.1085 297.711 80.9608C298.065 80.8132 298.455 80.7739 298.832 80.848C299.335 80.9471 299.779 81.242 300.065 81.6678C300.352 82.0937 300.458 82.6158 300.36 83.1197Z" fill="white"/>
<path d="M283.724 82.5814C283.87 82.5814 283.793 83.2731 284.22 84.1784C284.464 84.6941 284.813 85.1535 285.244 85.5277C285.756 85.9733 286.39 86.2533 287.063 86.3305C287.742 86.3798 288.419 86.2188 289.002 85.8693C289.496 85.5793 289.923 85.1895 290.257 84.7249C290.838 83.9136 290.889 83.239 291.035 83.2475C291.18 83.2561 291.146 83.4183 291.146 83.7428C291.126 84.1988 291.007 84.6449 290.795 85.0495C290.478 85.6603 290.011 86.1805 289.438 86.561C288.717 87.049 287.854 87.2806 286.987 87.2186C286.121 87.1264 285.314 86.7406 284.698 86.1255C284.202 85.6569 283.834 85.0688 283.63 84.4175C283.491 83.982 283.453 83.5205 283.519 83.0682C283.579 82.7266 283.665 82.5729 283.724 82.5814Z" fill="white"/>
<path d="M284.707 62.1367H284.63H284.399C284.194 62.1367 283.895 62.1367 283.545 62.205C282.458 62.313 281.38 62.4927 280.317 62.7431C278.741 63.1162 277.208 63.6484 275.74 64.3315C273.938 65.174 272.251 66.2415 270.718 67.5084C267.943 69.8277 265.732 72.7481 264.253 76.0484C263.805 77.043 263.425 78.0674 263.118 79.1142C262.998 79.49 262.938 79.7804 262.878 79.9682L262.81 80.1903V80.2671C262.81 80.2671 262.81 80.2671 262.81 80.1903L262.861 79.9597C262.904 79.7633 262.955 79.4644 263.066 79.1057C263.335 78.0477 263.684 77.0115 264.108 76.0057C264.753 74.5007 265.558 73.0692 266.508 71.7357C269.813 67.1182 274.706 63.8827 280.249 62.6491C281.328 62.4085 282.425 62.2487 283.528 62.1709C283.912 62.1709 284.22 62.1709 284.382 62.1709H284.69L284.707 62.1367Z" fill="white"/>
<path d="M263.305 88.3805C263.165 88.1707 263.058 87.9401 262.989 87.6973C262.791 87.1422 262.642 86.5707 262.545 85.9893C262.455 85.393 262.418 84.7901 262.434 84.1873C262.43 83.937 262.458 83.6871 262.52 83.4443C262.579 83.4443 262.52 84.5887 262.725 86.0063C262.93 87.424 263.357 88.3634 263.305 88.3805Z" fill="white"/>
<path d="M298.089 76.3991C298.089 76.4503 293.904 76.493 288.746 76.493C283.588 76.493 279.395 76.493 279.395 76.3991C279.395 76.3051 283.579 76.3137 288.746 76.3137C293.913 76.3137 298.089 76.3564 298.089 76.3991Z" fill="white"/>
<path d="M282.136 97.7145C282.136 97.7145 282.085 97.7145 281.982 97.7145H281.53C281.325 97.7145 281.086 97.7145 280.804 97.7145C280.522 97.7145 280.198 97.7145 279.839 97.7145C279.005 97.7074 278.173 97.6561 277.345 97.5607C276.331 97.4429 275.325 97.269 274.331 97.0398C273.338 96.8141 272.36 96.5289 271.401 96.1858C270.619 95.9026 269.852 95.5776 269.104 95.2122C268.78 95.0585 268.498 94.9048 268.25 94.7682C268.002 94.6315 267.789 94.5205 267.618 94.418L267.225 94.1789L267.097 94.085C267.097 94.085 267.148 94.085 267.242 94.1447L267.652 94.3497C267.823 94.4436 268.037 94.5632 268.293 94.6828C268.549 94.8023 268.831 94.956 269.147 95.0927C269.787 95.3916 270.564 95.7161 271.444 96.0321C272.402 96.3662 273.377 96.6512 274.365 96.8861C275.354 97.1144 276.355 97.2911 277.362 97.4156C278.285 97.5266 279.13 97.5864 279.839 97.6034C280.189 97.6034 280.513 97.6034 280.795 97.6034H282.128L282.136 97.7145Z" fill="white"/>
<path d="M308.883 109.936H308.806L308.559 110.029L307.611 110.371C307.201 110.516 306.697 110.687 306.099 110.866C305.501 111.046 304.827 111.268 304.075 111.456L302.888 111.772L301.59 112.071C300.736 112.284 299.728 112.455 298.712 112.651C296.498 113.026 294.266 113.288 292.025 113.437C289.786 113.551 287.543 113.551 285.304 113.437C284.271 113.369 283.289 113.317 282.375 113.215L281.051 113.078L279.83 112.907C279.053 112.814 278.361 112.677 277.746 112.574C277.132 112.472 276.611 112.361 276.184 112.267L275.201 112.045L274.945 111.985H274.86C274.86 111.985 274.86 111.985 274.954 111.985L275.21 112.028L276.201 112.216C276.628 112.301 277.149 112.404 277.763 112.489C278.378 112.574 279.07 112.72 279.847 112.805L281.068 112.959C281.487 113.01 281.922 113.044 282.384 113.087C283.297 113.181 284.279 113.232 285.304 113.292C287.371 113.377 289.643 113.377 292.017 113.241C294.391 113.104 296.645 112.805 298.678 112.472C299.694 112.284 300.659 112.122 301.556 111.908C302 111.806 302.41 111.72 302.854 111.618L304.041 111.319C304.801 111.14 305.476 110.926 306.065 110.755C306.654 110.585 307.175 110.422 307.594 110.286L308.55 109.978L308.798 109.901L308.883 109.936Z" fill="white"/>
<path d="M101.088 256.934L101.148 268.779C101.148 268.779 120.79 257.677 115.034 247.045L101.088 256.934Z" fill="#FF993C"/>
<path d="M103.001 229.572C103.001 229.572 88.8161 224.388 78.0898 233.996L89.1235 240.222L103.001 229.572Z" fill="#FF993C"/>
<path d="M89.1235 240.255C89.5676 240.836 101.08 256.934 101.08 256.934L131.157 235.584C132.396 234.707 133.44 233.582 134.222 232.281C135.004 230.981 135.508 229.532 135.702 228.026C135.897 226.521 135.777 224.992 135.35 223.535C134.924 222.078 134.2 220.726 133.224 219.563C131.399 217.405 128.812 216.034 126.002 215.733C123.192 215.433 120.374 216.226 118.134 217.949L89.1235 240.255Z" fill="#F5F5F5"/>
<path d="M89.1233 240.255C89.1967 240.18 89.2768 240.111 89.3624 240.05L90.1139 239.444L93.0517 237.147L103.949 228.658L111.507 222.8L115.725 219.537L117.937 217.829C118.707 217.24 119.548 216.749 120.439 216.369C120.892 216.171 121.357 216.002 121.831 215.865C122.315 215.738 122.805 215.641 123.3 215.575C124.309 215.43 125.332 215.43 126.341 215.575C128.435 215.857 130.405 216.731 132.02 218.094C132.845 218.791 133.567 219.602 134.163 220.502C134.763 221.42 135.232 222.418 135.555 223.466C136.185 225.634 136.155 227.941 135.47 230.093C134.811 232.148 133.568 233.968 131.892 235.328C130.184 236.609 128.535 237.727 126.896 238.915L117.399 245.627L101.173 257.071L101.037 257.165L100.943 257.036C97.279 251.861 94.3071 247.642 92.2318 244.739L89.9004 241.408L89.3026 240.554C89.2313 240.463 89.1684 240.366 89.1147 240.264C89.1976 240.359 89.2746 240.459 89.3453 240.563C89.5076 240.768 89.7211 241.058 89.9944 241.417L92.4112 244.722L101.207 256.84H100.985L117.152 245.32C120.183 243.176 123.352 240.921 126.631 238.59C128.262 237.411 129.979 236.267 131.601 235.02C133.203 233.71 134.389 231.962 135.017 229.99C135.674 227.924 135.7 225.709 135.094 223.628C134.787 222.619 134.339 221.659 133.762 220.776C132.918 219.496 131.812 218.411 130.516 217.592C129.22 216.773 127.765 216.24 126.247 216.027C125.278 215.886 124.294 215.886 123.326 216.027C122.848 216.088 122.375 216.179 121.908 216.301C121.451 216.428 121.003 216.588 120.568 216.779C118.8 217.488 117.416 218.794 115.947 219.87L111.746 223.081L104.188 228.82L93.1883 237.181L90.1737 239.461L89.3709 240.05L89.1233 240.255Z" fill="#263238"/>
<path d="M103.539 239.333L84.751 252.851C84.751 252.851 85.605 254.91 86.0747 254.705C86.5444 254.5 100.67 244.884 105.256 241.758C105.432 241.637 105.58 241.48 105.69 241.297C105.8 241.113 105.869 240.908 105.892 240.696C105.916 240.484 105.893 240.269 105.826 240.066C105.759 239.863 105.649 239.677 105.503 239.521C105.256 239.253 104.92 239.085 104.557 239.051C104.195 239.016 103.832 239.116 103.539 239.333Z" fill="#FF993C"/>
<path d="M123.036 230.844C123.116 232.085 122.826 233.322 122.204 234.398C121.581 235.475 120.653 236.342 119.537 236.891C118.421 237.439 117.167 237.645 115.935 237.481C114.702 237.317 113.546 236.791 112.612 235.97C111.678 235.148 111.009 234.069 110.689 232.867C110.37 231.665 110.413 230.396 110.815 229.219C111.217 228.042 111.959 227.011 112.947 226.256C113.935 225.501 115.125 225.056 116.366 224.977C118.028 224.872 119.664 225.431 120.915 226.531C122.165 227.631 122.928 229.182 123.036 230.844Z" fill="white"/>
<path d="M123.036 230.844C123.036 230.844 122.976 230.289 122.66 229.358C122.207 228.039 121.326 226.909 120.158 226.147C119.303 225.589 118.323 225.253 117.305 225.171C116.288 225.089 115.266 225.263 114.333 225.677C113.191 226.184 112.23 227.029 111.581 228.097C110.932 229.166 110.626 230.408 110.704 231.655C110.797 232.943 111.29 234.17 112.113 235.165C112.846 236.048 113.814 236.706 114.905 237.062C115.996 237.419 117.166 237.46 118.279 237.181C119.204 236.956 120.062 236.514 120.781 235.891C121.848 234.991 122.579 233.757 122.856 232.39C122.942 231.884 123.002 231.373 123.036 230.861C123.074 230.991 123.092 231.127 123.087 231.262C123.114 231.651 123.091 232.041 123.019 232.424C122.825 233.638 122.282 234.77 121.455 235.68C120.629 236.59 119.555 237.239 118.364 237.548C117.185 237.859 115.941 237.829 114.778 237.46C113.615 237.091 112.581 236.399 111.797 235.464C110.908 234.407 110.378 233.094 110.286 231.715C110.203 230.385 110.531 229.062 111.226 227.925C111.921 226.789 112.95 225.894 114.171 225.361C115.234 224.907 116.398 224.742 117.545 224.883C118.76 225.042 119.905 225.547 120.841 226.339C121.777 227.131 122.465 228.177 122.822 229.35C122.941 229.718 123.013 230.099 123.036 230.485C123.054 230.604 123.054 230.725 123.036 230.844Z" fill="#263238"/>
<path d="M132.567 234.431C142.669 224.986 140.867 214.046 140.867 214.046C127.28 210.476 118.108 217.949 118.108 217.949C127.152 219.221 131.994 224.696 132.567 234.431Z" fill="#FF993C"/>
<path d="M239.88 194.217L243.39 226.472L264.159 233.398L265.013 243.441L235.704 241.477C235.704 241.477 226.669 241.699 224.704 229.794L224.226 198.504L239.88 194.217Z" fill="#FFBE9D"/>
<path d="M282.981 243.27C282.797 243.489 282.551 243.647 282.275 243.724C281.999 243.8 281.706 243.791 281.436 243.697C281.317 243.661 281.205 243.606 281.103 243.535C280.368 243.074 280.872 241.46 280.872 241.46L277.217 239.829C277.217 239.829 271.384 241.725 269.053 243.382C266.721 245.038 262.656 242.126 262.656 242.126L263.246 233.586L271.973 229.077C271.973 229.077 271.444 229.342 272.247 228.274C273.049 227.207 275.142 228.274 275.142 228.274C275.637 227.779 277.14 227.95 277.14 227.95L283.118 230.29C283.725 230.531 284.269 230.904 284.713 231.383C285.156 231.862 285.487 232.434 285.68 233.057L287.2 237.882C287.2 237.882 287.798 241.229 287.397 241.861C287.223 242.126 286.958 242.316 286.652 242.397C286.346 242.477 286.021 242.442 285.74 242.297C285.74 242.297 284.886 244.167 284.382 244.107C283.86 243.94 283.373 243.676 282.947 243.33L282.981 243.27Z" fill="#FFBE9D"/>
<path d="M270.718 242.426C270.872 242.378 271.021 242.315 271.162 242.238L272.426 241.683C273.991 241.018 275.593 240.448 277.226 239.975H277.132L280.787 241.64L280.693 241.443C280.601 241.752 280.544 242.07 280.522 242.391C280.482 242.75 280.547 243.112 280.71 243.433C280.821 243.594 280.975 243.722 281.154 243.801C281.318 243.892 281.498 243.95 281.684 243.971C282.069 244.011 282.456 243.915 282.777 243.698C282.859 243.643 282.936 243.58 283.007 243.51L283.058 243.459H282.819L282.922 243.544L283.374 243.843C283.529 243.947 283.692 244.039 283.861 244.116C283.951 244.161 284.046 244.195 284.143 244.219C284.262 244.261 284.392 244.261 284.51 244.219C284.715 244.135 284.892 243.996 285.023 243.818C285.142 243.666 285.25 243.506 285.347 243.339C285.548 243.013 285.728 242.673 285.885 242.323L285.62 242.417C285.865 242.542 286.139 242.598 286.413 242.579C286.687 242.559 286.951 242.465 287.175 242.306C287.406 242.134 287.569 241.886 287.636 241.606C287.719 241.354 287.774 241.093 287.798 240.829C287.765 239.811 287.657 238.798 287.474 237.797C287.217 236.943 286.944 236.089 286.662 235.235C286.492 234.68 286.321 234.142 286.15 233.595C286.003 233.04 285.797 232.501 285.535 231.99C285.248 231.484 284.858 231.045 284.391 230.7C283.939 230.373 283.437 230.122 282.905 229.957L277.251 227.762H277.209C276.845 227.728 276.479 227.728 276.115 227.762C275.732 227.778 275.364 227.916 275.065 228.155H275.296C275.017 227.93 274.689 227.775 274.338 227.704C273.987 227.633 273.624 227.647 273.28 227.745C272.666 227.989 272.166 228.456 271.88 229.052L271.948 228.984L265.97 232.067L264.339 232.921C264.143 233.009 263.957 233.118 263.784 233.245C263.988 233.176 264.188 233.093 264.381 232.997L266.038 232.212L272.11 229.248H272.153V229.197C272.408 228.681 272.846 228.279 273.383 228.07C273.676 227.99 273.984 227.982 274.281 228.046C274.578 228.11 274.856 228.244 275.091 228.437L275.21 228.531L275.321 228.429C275.571 228.252 275.869 228.156 276.175 228.155C276.513 228.121 276.854 228.121 277.191 228.155H277.149L282.785 230.384C283.282 230.546 283.751 230.782 284.177 231.084C284.599 231.395 284.951 231.791 285.211 232.246C285.457 232.737 285.651 233.252 285.791 233.783C285.954 234.321 286.133 234.868 286.304 235.414C286.577 236.268 286.859 237.122 287.115 237.976C287.295 238.955 287.406 239.945 287.448 240.94C287.453 241.171 287.436 241.403 287.397 241.631C287.347 241.824 287.233 241.993 287.072 242.11C286.906 242.222 286.713 242.287 286.514 242.299C286.314 242.311 286.115 242.269 285.936 242.178L285.749 242.101L285.672 242.28C285.523 242.614 285.354 242.939 285.168 243.254C285.025 243.54 284.813 243.786 284.553 243.971C284.5 243.984 284.444 243.984 284.391 243.971C284.311 243.95 284.234 243.922 284.16 243.886C284.008 243.815 283.859 243.735 283.716 243.647C283.571 243.553 283.426 243.459 283.289 243.356L283.187 243.28C283.409 243.28 282.879 243.28 282.93 243.28L282.888 243.322C282.834 243.377 282.773 243.426 282.708 243.467C282.46 243.642 282.156 243.721 281.854 243.689C281.709 243.674 281.57 243.627 281.444 243.553C281.316 243.51 281.204 243.426 281.128 243.314C280.924 242.763 280.924 242.157 281.128 241.606V241.469L281 241.409L277.328 239.795H277.277H277.234C275.6 240.301 274.002 240.917 272.452 241.64C271.905 241.896 271.495 242.11 271.222 242.263C271.047 242.292 270.877 242.347 270.718 242.426Z" fill="#EB996E"/>
<path d="M275.611 230.666C276.163 231.126 276.778 231.503 277.439 231.785C279.028 232.564 280.709 233.138 282.443 233.493L282.273 233.305C282.273 233.63 282.324 233.98 282.366 234.338C282.617 236.336 283.249 238.267 284.228 240.026C284.52 240.557 284.851 241.065 285.219 241.546C285.484 241.888 285.646 242.059 285.663 242.041C285.68 242.024 285.168 241.239 284.484 239.889C283.61 238.129 283.033 236.236 282.776 234.287C282.734 233.937 282.708 233.595 282.682 233.279V233.143H282.52C280.815 232.801 279.152 232.277 277.558 231.58C276.346 231.008 275.645 230.581 275.611 230.666Z" fill="#EB996E"/>
<path d="M280.53 235.824C280.425 238.483 281.374 241.077 283.169 243.041C283.272 242.972 282.255 241.546 281.538 239.548C280.821 237.549 280.658 235.807 280.53 235.824Z" fill="#EB996E"/>
<path d="M262.093 239.317C262.093 239.317 262.144 239.385 262.264 239.488C262.434 239.634 262.617 239.766 262.81 239.881C263.528 240.344 264.328 240.666 265.167 240.829C266.455 241.077 267.787 240.959 269.01 240.487C270.561 239.875 271.857 238.751 272.682 237.302L272.418 237.387C274.338 238.311 276.422 238.848 278.549 238.967C279.12 239.026 279.697 238.991 280.257 238.864C280.572 238.794 280.85 238.608 281.034 238.343C281.119 238.209 281.175 238.058 281.198 237.901C281.222 237.744 281.213 237.583 281.171 237.43C281.09 237.124 280.89 236.863 280.616 236.704L279.95 236.337C278.191 235.389 276.534 234.629 275.185 234.005C273.835 233.382 272.623 232.955 271.871 232.664C271.467 232.491 271.046 232.359 270.616 232.271C271.001 232.481 271.4 232.664 271.811 232.818C272.588 233.151 273.699 233.672 275.065 234.27C276.431 234.868 278.028 235.713 279.762 236.678L280.42 237.045C280.509 237.097 280.586 237.166 280.648 237.248C280.71 237.33 280.754 237.424 280.778 237.524C280.805 237.625 280.812 237.731 280.797 237.835C280.782 237.94 280.747 238.04 280.693 238.13C280.561 238.308 280.365 238.427 280.146 238.463C279.63 238.574 279.1 238.603 278.575 238.548C276.504 238.422 274.475 237.903 272.597 237.02L272.426 236.934L272.332 237.105C271.57 238.479 270.366 239.557 268.916 240.162C267.754 240.637 266.483 240.781 265.244 240.581C264.428 240.447 263.64 240.179 262.913 239.787C262.366 239.488 262.11 239.291 262.093 239.317Z" fill="#EB996E"/>
<path d="M287.149 359.851C287.21 359.587 287.21 359.312 287.149 359.048C287.025 358.316 286.748 357.617 286.338 356.998C286.204 356.78 286.041 356.581 285.851 356.409C285.732 356.297 285.586 356.219 285.426 356.183C285.267 356.147 285.101 356.154 284.946 356.204C284.852 356.238 284.768 356.292 284.698 356.363C284.629 356.434 284.576 356.52 284.544 356.614C284.486 356.789 284.486 356.977 284.544 357.152C284.661 357.449 284.804 357.735 284.971 358.006C285.279 358.536 285.544 359.065 285.945 359.663C286.066 359.833 286.231 359.968 286.421 360.053C286.612 360.139 286.822 360.172 287.03 360.15C287.409 360.083 287.767 359.925 288.071 359.689C288.634 359.277 289.147 358.801 289.6 358.271C289.818 358.021 290.02 357.759 290.206 357.485C290.414 357.215 290.568 356.908 290.659 356.58C290.708 356.388 290.689 356.185 290.605 356.006C290.52 355.827 290.377 355.683 290.198 355.598C290.03 355.55 289.853 355.545 289.683 355.583C289.512 355.622 289.355 355.704 289.224 355.82C288.838 356.16 288.497 356.547 288.208 356.973C287.783 357.574 287.443 358.233 287.2 358.928C287.088 359.172 287.029 359.437 287.03 359.706C287.428 358.806 287.915 357.948 288.481 357.144C288.765 356.758 289.095 356.408 289.464 356.102C289.539 356.032 289.631 355.982 289.731 355.957C289.831 355.932 289.936 355.932 290.036 355.957C290.12 356.006 290.185 356.083 290.219 356.175C290.253 356.267 290.255 356.368 290.224 356.46C290.142 356.726 290.008 356.973 289.831 357.186C289.651 357.442 289.455 357.69 289.25 357.929C288.811 358.423 288.321 358.869 287.79 359.262C287.539 359.454 287.246 359.582 286.936 359.637C286.809 359.654 286.68 359.635 286.564 359.582C286.448 359.529 286.349 359.445 286.278 359.338C285.945 358.852 285.629 358.245 285.313 357.75C285.164 357.514 285.03 357.269 284.912 357.015C284.826 356.785 284.912 356.631 285.031 356.571C285.398 356.418 285.757 356.836 286.005 357.186C286.553 357.993 286.941 358.898 287.149 359.851Z" fill="#263238"/>
<path d="M266.303 360.568L255.952 383.002L239.248 375.282L249.949 347.519L266.303 360.568Z" fill="#FFBE9D"/>
<path d="M257.908 381.499L251.853 393.037C251.853 393.037 267.302 409.067 265.884 412.619L229.487 395.172L239.487 372.037L257.908 381.499Z" fill="#46B2C8"/>
<path d="M241.358 386.059C240.957 385.999 240.548 386.089 240.21 386.311C239.871 386.533 239.626 386.872 239.521 387.263C239.442 387.661 239.519 388.075 239.737 388.417C239.955 388.759 240.297 389.004 240.691 389.099C241.118 389.172 241.556 389.08 241.917 388.843C242.279 388.605 242.537 388.239 242.639 387.818C242.675 387.394 242.546 386.973 242.279 386.642C242.011 386.31 241.626 386.096 241.204 386.042" fill="#E0E0E0"/>
<g opacity="0.6">
<path d="M229.487 395.172L231.007 392.269L265.329 410.092C265.329 410.092 266.619 411.569 265.884 412.654L229.487 395.172Z" fill="white"/>
</g>
<path d="M252.536 393.13C252.442 393.31 251.52 392.959 250.367 393.13C249.214 393.301 248.394 393.805 248.266 393.66C248.138 393.515 248.898 392.609 250.29 392.447C251.682 392.285 252.656 392.985 252.536 393.13Z" fill="#263238"/>
<path d="M255.594 396.547C255.551 396.735 254.637 396.667 253.672 397.128C252.707 397.589 252.152 398.306 251.964 398.212C251.776 398.118 252.161 397.059 253.373 396.504C254.586 395.949 255.67 396.368 255.594 396.547Z" fill="#263238"/>
<path d="M255.576 402.149C255.397 402.149 255.576 401.107 256.499 400.347C257.421 399.587 258.437 399.604 258.437 399.792C258.437 399.98 257.677 400.253 256.934 400.877C256.191 401.5 255.756 402.235 255.576 402.149Z" fill="#263238"/>
<path d="M254.27 388.69C254.116 388.818 253.416 388.177 252.383 387.767C251.349 387.358 250.41 387.298 250.393 387.101C250.376 386.905 251.426 386.632 252.647 387.101C253.869 387.571 254.424 388.57 254.27 388.69Z" fill="#263238"/>
<path d="M261.324 378.51L288.609 310.19C288.609 310.19 287.994 298.541 285.851 294.861C283.707 291.18 218.701 269.719 218.701 269.719C218.701 269.719 202.142 265.731 191.108 269.719C180.074 273.707 171.791 287.499 173.319 295.168C174.848 302.837 181.902 309.071 181.902 309.071L229.128 309.925L255.175 319.396L237.626 369.688L261.324 378.51Z" fill="#263238"/>
<path d="M285.586 331.839L286.201 356.545L267.806 356.989L265.159 327.355L285.586 331.839Z" fill="#FFBE9D"/>
<path d="M287.294 354.333L286.944 367.357C286.944 367.357 307.901 374.889 308.175 378.741L267.814 379.151L266.576 353.975L287.294 354.333Z" fill="#46B2C8"/>
<path d="M274.459 365.735C274.071 365.857 273.743 366.119 273.536 366.469C273.33 366.818 273.26 367.232 273.34 367.631C273.448 368.022 273.703 368.357 274.051 368.567C274.398 368.776 274.813 368.845 275.21 368.758C275.624 368.633 275.975 368.355 276.192 367.981C276.409 367.607 276.477 367.164 276.38 366.742C276.227 366.346 275.925 366.025 275.54 365.847C275.154 365.669 274.715 365.647 274.313 365.786" fill="#E0E0E0"/>
<g opacity="0.6">
<path d="M267.832 379.176L267.908 375.905L306.578 376.759C306.578 376.759 308.388 377.519 308.192 378.792L267.832 379.176Z" fill="white"/>
</g>
<path d="M287.61 367.144C287.61 367.34 286.619 367.443 285.663 368.083C284.706 368.724 284.185 369.561 284.006 369.484C283.827 369.407 284.109 368.271 285.287 367.511C286.466 366.751 287.653 366.964 287.61 367.144Z" fill="#263238"/>
<path d="M291.863 368.852C291.914 369.04 291.06 369.39 290.403 370.227C289.745 371.064 289.549 371.935 289.361 371.935C289.173 371.935 289.028 370.816 289.865 369.783C290.701 368.749 291.854 368.664 291.863 368.852Z" fill="#263238"/>
<path d="M294.322 373.89C294.143 373.941 293.853 372.959 294.322 371.874C294.792 370.79 295.74 370.346 295.825 370.508C295.911 370.67 295.347 371.26 294.971 372.156C294.596 373.053 294.51 373.873 294.322 373.89Z" fill="#263238"/>
<path d="M287.209 362.395C287.132 362.575 286.218 362.31 285.108 362.395C283.998 362.481 283.127 362.84 283.024 362.677C282.922 362.515 283.75 361.823 285.065 361.712C286.38 361.601 287.303 362.233 287.209 362.395Z" fill="#263238"/>
<path d="M274.843 263.263C274.843 263.263 285.868 262.409 287.089 274.365C288.31 286.321 289.506 342.105 289.506 342.105L263.749 344.257L259.761 287.227L218.675 269.745C218.675 269.745 267.481 261.735 274.843 263.263Z" fill="#263238"/>
<path d="M229.418 247.131C229.418 247.131 236.105 265.919 234.833 267.977C233.56 270.035 216.352 278.661 216.352 278.661L173.311 295.194C173.311 295.194 168.896 288.166 168.896 277.362C168.896 266.559 183.866 247.131 183.866 247.131H229.418Z" fill="#263238"/>
<path d="M216.66 268.788C216.66 268.788 216.719 268.831 216.856 268.899L217.471 269.181L219.854 270.24L228.804 274.134L259.693 287.431L259.548 287.234C259.94 292.871 260.359 298.96 260.803 305.254C261.845 319.968 262.81 333.53 263.578 344.265V344.461H263.775L282.563 342.813L287.687 342.335L289.036 342.189C289.192 342.18 289.346 342.157 289.497 342.121H289.036L287.678 342.206L282.503 342.591L263.715 344.068L263.92 344.248C263.186 333.513 262.255 319.943 261.247 305.228C260.803 298.934 260.393 292.845 259.975 287.217V287.072L259.846 287.021L228.889 273.878L219.888 270.103L217.48 269.113L216.848 268.865L216.66 268.788Z" fill="#455A64"/>
<path d="M182.423 270.667C182.836 270.591 183.242 270.48 183.636 270.334L186.872 269.292C190.41 268.094 194.036 267.177 197.718 266.551C201.398 265.948 205.156 265.994 208.82 266.687C210.324 267.041 211.809 267.471 213.269 267.977C212.92 267.746 212.544 267.557 212.151 267.413C211.099 266.967 210.01 266.616 208.897 266.363C205.2 265.552 201.383 265.454 197.65 266.072C193.94 266.711 190.297 267.695 186.77 269.01C185.412 269.488 184.319 269.907 183.576 270.197C183.177 270.315 182.79 270.472 182.423 270.667Z" fill="#455A64"/>
<path d="M188.512 260.778C189.764 260.701 191.018 260.701 192.27 260.778C193.431 260.855 194.832 261.034 196.352 261.214C197.872 261.393 199.563 261.598 201.305 261.931C204.296 262.409 207.163 263.471 209.743 265.057C210.769 265.774 211.745 266.562 212.663 267.414C212.497 267.114 212.287 266.84 212.04 266.602C211.405 265.919 210.698 265.306 209.931 264.775C207.354 263.072 204.442 261.942 201.391 261.461C199.623 261.12 197.923 260.932 196.386 260.77C194.849 260.607 193.465 260.471 192.287 260.437C191.354 260.395 190.42 260.435 189.494 260.556C189.158 260.58 188.827 260.655 188.512 260.778Z" fill="#455A64"/>
<path d="M207.522 110.072C202.569 109.218 198.213 111.131 194.037 113.924C189.871 116.799 186.683 120.878 184.899 125.615C182.916 130.569 182.598 136.033 183.994 141.184C184.71 143.737 185.936 146.118 187.598 148.185C189.259 150.251 191.322 151.96 193.661 153.208C200.101 156.479 208.342 155.343 214.106 150.988C219.871 146.632 223.167 139.424 223.44 132.2C223.702 127.19 222.382 122.224 219.666 118.006C218.294 115.921 216.508 114.141 214.419 112.776C212.33 111.411 209.982 110.491 207.522 110.072Z" fill="#263238"/>
<path d="M193.44 126.913C194.166 125.018 193.884 122.9 194.166 120.893C194.798 116.469 198.359 112.925 202.484 111.2C206.318 109.594 211.024 109.944 215.618 111.439C218.823 112.413 221.684 114.279 223.868 116.819C225.259 118.542 226.218 120.573 226.664 122.742C227.109 124.911 227.029 127.156 226.43 129.288L203.807 126C201.689 127.75 199.537 129.527 196.975 130.509C196.235 130.835 195.423 130.965 194.618 130.885C194.216 130.838 193.836 130.676 193.524 130.418C193.212 130.161 192.981 129.818 192.859 129.433C192.611 128.579 193.124 127.733 193.44 126.913Z" fill="#263238"/>
<path d="M216.062 117.682L196.309 121.867C195.393 121.936 194.535 122.345 193.903 123.013C193.272 123.681 192.912 124.56 192.893 125.479L193.132 168.23C193.15 171.148 194.129 173.978 195.916 176.283L197.804 178.717C202.074 184.26 210.793 183.696 214.072 177.505C214.273 177.153 214.428 176.777 214.533 176.386C214.593 176.002 214.696 175.745 214.713 175.421L215.097 171.253C215.285 167.445 215.311 163.567 215.311 163.619C215.311 163.67 223.398 162.594 225.465 152.175C226.498 147 226.566 138.443 226.395 131.44C226.259 125.137 222.39 117.264 216.062 117.682Z" fill="#FFBE9D"/>
<path d="M223.082 140.175C223.071 140.526 222.924 140.858 222.672 141.102C222.42 141.346 222.083 141.482 221.732 141.482C221.561 141.489 221.39 141.461 221.229 141.401C221.068 141.341 220.921 141.25 220.796 141.132C220.671 141.014 220.571 140.873 220.502 140.716C220.432 140.559 220.395 140.39 220.392 140.218C220.401 139.867 220.547 139.533 220.799 139.289C221.052 139.045 221.39 138.909 221.741 138.912C221.913 138.904 222.084 138.93 222.246 138.99C222.407 139.05 222.554 139.141 222.679 139.259C222.805 139.377 222.905 139.519 222.974 139.676C223.043 139.834 223.08 140.004 223.082 140.175Z" fill="#263238"/>
<path d="M224.38 135.787C224.209 135.958 223.218 135.163 221.775 135.112C220.332 135.061 219.213 135.744 219.085 135.565C218.957 135.385 219.196 135.172 219.674 134.847C220.316 134.441 221.067 134.241 221.826 134.275C222.579 134.301 223.303 134.567 223.893 135.035C224.329 135.42 224.465 135.787 224.38 135.787Z" fill="#263238"/>
<path d="M209.717 139.485C209.706 139.835 209.559 140.167 209.307 140.411C209.055 140.655 208.718 140.791 208.367 140.791C208.197 140.797 208.026 140.769 207.867 140.708C207.707 140.647 207.561 140.556 207.437 140.438C207.313 140.32 207.214 140.179 207.145 140.023C207.076 139.867 207.038 139.698 207.035 139.527C207.044 139.176 207.19 138.843 207.443 138.598C207.695 138.354 208.033 138.218 208.384 138.221C208.556 138.214 208.726 138.241 208.886 138.302C209.047 138.362 209.193 138.454 209.317 138.571C209.442 138.689 209.541 138.831 209.61 138.988C209.678 139.144 209.715 139.313 209.717 139.485Z" fill="#263238"/>
<path d="M210.648 135.462C210.477 135.633 209.486 134.839 208.035 134.787C206.583 134.736 205.473 135.419 205.353 135.232C205.233 135.044 205.464 134.839 205.934 134.523C206.578 134.114 207.332 133.914 208.094 133.951C208.847 133.976 209.571 134.243 210.161 134.711C210.597 135.069 210.733 135.385 210.648 135.462Z" fill="#263238"/>
<path d="M214.986 146.461C215.758 146.255 216.553 146.143 217.352 146.128C217.719 146.128 218.078 146.042 218.146 145.795C218.194 145.415 218.122 145.03 217.941 144.693C217.633 143.788 217.3 142.831 216.959 141.841C215.601 137.776 214.627 134.437 214.79 134.385C214.952 134.334 216.19 137.579 217.557 141.644C217.881 142.644 218.197 143.6 218.487 144.514C218.707 144.968 218.755 145.487 218.624 145.974C218.567 146.102 218.481 146.215 218.373 146.304C218.264 146.393 218.137 146.455 218.001 146.487C217.794 146.535 217.581 146.558 217.369 146.555C216.574 146.625 215.773 146.593 214.986 146.461Z" fill="#263238"/>
<path d="M215.319 163.619C210.384 163.508 205.577 162.03 201.433 159.349C201.433 159.349 204.678 166.744 215.208 166.181L215.319 163.619Z" fill="#EB996E"/>
<path d="M214.243 149.928C213.984 149.567 213.635 149.279 213.23 149.093C212.826 148.907 212.38 148.83 211.937 148.869C211.609 148.886 211.288 148.971 210.994 149.118C210.7 149.265 210.44 149.471 210.229 149.723C210.028 149.955 209.904 150.244 209.871 150.549C209.839 150.854 209.902 151.162 210.05 151.431C210.269 151.704 210.567 151.902 210.903 152C211.239 152.098 211.597 152.09 211.929 151.978C212.62 151.765 213.261 151.417 213.816 150.953C213.984 150.843 214.129 150.701 214.243 150.534C214.297 150.455 214.326 150.361 214.326 150.265C214.326 150.17 214.297 150.076 214.243 149.996" fill="#EB996E"/>
<path d="M210.691 147.298C210.93 147.298 210.87 148.861 212.168 150.031C213.466 151.201 215.148 151.09 215.148 151.312C215.148 151.406 214.764 151.603 214.064 151.594C213.143 151.571 212.26 151.223 211.57 150.612C210.907 150.026 210.496 149.206 210.426 148.323C210.392 147.666 210.588 147.281 210.691 147.298Z" fill="#263238"/>
<path d="M210.562 131.175C210.409 131.559 208.974 131.32 207.266 131.457C205.558 131.593 204.174 132.003 203.961 131.644C203.867 131.465 204.123 131.106 204.687 130.748C205.443 130.31 206.289 130.05 207.16 129.988C208.032 129.926 208.906 130.063 209.717 130.389C210.332 130.662 210.639 130.987 210.562 131.175Z" fill="#263238"/>
<path d="M224.209 129.476C223.936 129.792 222.954 129.416 221.758 129.356C220.563 129.296 219.538 129.484 219.316 129.134C219.222 128.963 219.393 128.639 219.854 128.348C220.458 127.989 221.16 127.827 221.861 127.887C222.565 127.927 223.239 128.184 223.791 128.622C224.201 128.955 224.329 129.322 224.209 129.476Z" fill="#263238"/>
<path d="M189.819 123.83C191.868 117.852 200.81 109.62 207.138 110.166L217.129 116.435C216.768 118.156 215.947 119.747 214.755 121.04C213.563 122.333 212.043 123.279 210.357 123.779C208.555 124.283 206.403 124.394 205.302 125.914C204.2 127.434 204.781 129.757 203.73 131.363C202.287 133.575 198.461 133.395 197.359 135.804C196.881 136.854 197.095 138.126 196.591 139.177C195.925 140.56 192.321 142.268 190.886 141.739C189.451 141.209 189.468 138.75 189.016 137.469C188.438 135.978 188.396 134.333 188.896 132.815C189.588 129.902 188.836 126.726 189.819 123.83Z" fill="#263238"/>
<path d="M195.19 143.148C195.19 142.371 194.387 140.5 193.627 140.347C191.578 139.945 187.863 139.971 187.649 145.189C187.325 152.337 194.567 151.167 194.584 150.988C194.601 150.808 195.096 145.846 195.19 143.148Z" fill="#FFBE9D"/>
<path d="M192.5 148.178C192.5 148.178 192.372 148.264 192.159 148.349C191.86 148.468 191.527 148.468 191.228 148.349C190.485 148.042 189.904 146.812 189.93 145.522C189.936 144.908 190.082 144.304 190.357 143.754C190.434 143.534 190.564 143.336 190.735 143.177C190.906 143.017 191.113 142.902 191.339 142.841C191.483 142.811 191.634 142.832 191.764 142.901C191.895 142.969 191.998 143.081 192.056 143.216C192.142 143.421 192.056 143.567 192.124 143.575C192.193 143.584 192.287 143.464 192.244 143.165C192.207 142.987 192.114 142.826 191.979 142.704C191.791 142.547 191.549 142.47 191.305 142.491C191.009 142.536 190.73 142.657 190.494 142.841C190.258 143.025 190.072 143.266 189.955 143.541C189.62 144.145 189.438 144.823 189.426 145.514C189.426 146.957 190.083 148.332 191.134 148.682C191.323 148.745 191.523 148.766 191.721 148.742C191.919 148.718 192.109 148.651 192.278 148.545C192.483 148.349 192.526 148.195 192.5 148.178Z" fill="#EB996E"/>
<path d="M188.29 122.002C188.29 119.773 185.523 118.313 183.345 117.801C181.121 117.419 178.833 117.856 176.906 119.031C175.753 119.662 174.601 120.551 174.344 121.84C174.088 123.13 175.326 124.65 176.548 124.189C175.932 124.371 175.365 124.691 174.89 125.123C174.415 125.555 174.043 126.088 173.803 126.684C173.562 127.28 173.459 127.922 173.501 128.563C173.544 129.204 173.73 129.827 174.046 130.386C174.363 130.945 174.801 131.425 175.329 131.791C175.857 132.157 176.46 132.399 177.095 132.5C177.729 132.6 178.378 132.556 178.993 132.371C179.608 132.186 180.173 131.864 180.647 131.431C180.024 133.496 178.713 135.286 176.932 136.503C178.782 136.768 180.67 136.54 182.404 135.842C184.138 135.144 185.658 134.002 186.81 132.529C187.962 131.057 188.705 129.307 188.965 127.456C189.225 125.605 188.992 123.718 188.29 121.985V122.002Z" fill="#263238"/>
<path d="M183.328 133.369C183.12 132.675 183.03 131.95 183.063 131.226C183.029 127.695 184.188 124.256 186.351 121.465C186.764 120.87 187.272 120.348 187.854 119.919C187.991 120.013 185.591 122.387 184.336 126.221C183.08 130.056 183.49 133.369 183.328 133.369Z" fill="#46B2C8"/>
<path d="M215.054 114.326C215.712 117.238 220.135 120.97 222.074 123.233C225.78 127.554 226.506 128.989 226.472 138.605C228.18 135.266 229.555 131.995 229.418 128.237C229.339 124.431 227.869 120.786 225.285 117.989C223.984 116.616 222.379 115.566 220.6 114.922C218.821 114.279 216.916 114.06 215.037 114.283" fill="#263238"/>
<path d="M245.354 193.807C245.354 193.807 237.668 180.997 235.516 178.375C233.798 176.37 231.641 174.786 229.214 173.746C228.251 173.345 227.245 173.058 226.216 172.892L215.114 170.441C215.114 170.441 215.114 177.991 207.18 178.46C199.247 178.93 192.594 167.896 192.594 167.896C192.594 167.896 179.784 169.878 176.735 171.449C173.687 173.02 168.87 175.027 166.223 188.281L164.361 201.245L186.445 203.252L188.555 236.029L199.494 243.646C199.494 243.646 229.82 251.529 231.759 252.05C233.697 252.571 234.321 203.252 234.321 203.252C234.321 203.252 242.126 198.222 245.354 193.807Z" fill="#46B2C8"/>
<path d="M230.836 188.299C231.014 188.595 231.157 188.91 231.263 189.238C231.511 189.862 231.836 190.767 232.194 191.911C234.045 197.866 234.809 204.106 234.449 210.332C234.372 211.519 234.287 212.484 234.184 213.142C234.161 213.486 234.101 213.827 234.005 214.158C233.964 213.815 233.964 213.468 234.005 213.125C234.047 212.458 234.099 211.502 234.124 210.315C234.208 207.226 234.065 204.135 233.697 201.066C233.313 198.003 232.708 194.972 231.887 191.997C231.571 190.852 231.289 189.93 231.093 189.298C230.973 188.975 230.887 188.64 230.836 188.299Z" fill="#263238"/>
<path d="M229.897 241.981L188.367 232.946L186.445 203.252L167.982 201.544C167.982 201.544 168.665 221.835 169.374 227.873C170.39 236.549 175.523 248.369 178.52 250.751C181.518 253.134 231.759 252.05 231.759 252.05L229.897 241.981Z" fill="#FFBE9D"/>
<path d="M253.467 247.362C253.329 247.649 253.108 247.889 252.833 248.05C252.557 248.211 252.24 248.287 251.922 248.267C251.785 248.254 251.65 248.225 251.52 248.182C250.598 247.891 250.666 246.021 250.666 246.021L246.268 245.304C246.268 245.304 240.546 248.993 238.505 251.435C236.464 253.878 231.28 251.905 231.28 251.905L229.479 242.511L237.583 235.184C237.583 235.184 237.079 235.628 237.643 234.253C238.206 232.878 240.743 233.399 240.743 233.399C241.144 232.724 242.801 232.477 242.801 232.477L249.906 233.331C250.629 233.414 251.325 233.658 251.941 234.045C252.557 234.432 253.079 234.953 253.467 235.568L256.473 240.325C256.473 240.325 258.062 243.741 257.806 244.552C257.692 244.884 257.461 245.162 257.155 245.334C256.849 245.505 256.491 245.559 256.149 245.483C256.149 245.483 255.799 247.738 255.21 247.814C254.602 247.783 254.005 247.638 253.45 247.387L253.467 247.362Z" fill="#FFBE9D"/>
<path d="M238.343 240.624C238.343 240.701 239.299 240.624 240.811 240.684C242.785 240.771 244.737 241.136 246.609 241.768C247.64 242.113 248.643 242.539 249.607 243.041C250.461 243.527 251.358 243.895 251.631 244.552C251.695 244.689 251.721 244.84 251.708 244.99C251.694 245.14 251.641 245.283 251.554 245.406C251.426 245.609 251.238 245.767 251.016 245.859C250.815 245.924 250.604 245.956 250.393 245.953C250.393 245.953 250.615 246.149 251.076 246.021C251.349 245.943 251.588 245.778 251.759 245.551C251.881 245.397 251.961 245.214 251.991 245.019C252.021 244.824 252 244.625 251.93 244.441C251.753 244.03 251.455 243.681 251.076 243.442C250.692 243.186 250.29 242.93 249.838 242.682C248.862 242.147 247.842 241.698 246.789 241.341C244.876 240.697 242.872 240.368 240.854 240.368C240.009 240.328 239.162 240.415 238.343 240.624Z" fill="#EB996E"/>
<path d="M237.848 245.158C237.848 245.295 240.751 245.158 244.304 245.38C247.857 245.602 250.717 246.021 250.735 245.893C250.143 245.659 249.522 245.507 248.89 245.44C247.381 245.183 245.858 245.012 244.33 244.928C242.799 244.842 241.265 244.842 239.735 244.928C239.098 244.917 238.463 244.995 237.848 245.158Z" fill="#EB996E"/>
<path d="M253.425 247.182C253.489 246.936 253.521 246.684 253.518 246.43C253.562 245.736 253.562 245.04 253.518 244.346C253.494 243.861 253.428 243.378 253.322 242.903C253.194 242.346 252.956 241.821 252.622 241.357C251.926 240.282 251.023 239.356 249.966 238.633C248.913 237.906 247.763 237.331 246.55 236.925C245.549 236.64 244.516 236.485 243.475 236.464C242.621 236.464 241.887 236.464 241.4 236.464C241.144 236.447 240.887 236.473 240.64 236.541C241.575 236.669 242.515 236.746 243.458 236.771C244.464 236.839 245.458 237.023 246.422 237.318C247.58 237.74 248.677 238.314 249.684 239.026C250.69 239.713 251.559 240.582 252.246 241.588C252.8 242.412 253.119 243.372 253.168 244.363C253.373 246.097 253.331 247.19 253.425 247.182Z" fill="#EB996E"/>
<path d="M243.16 234.295C243.16 234.364 244.227 234.389 245.927 234.586C247.626 234.782 250.197 234.953 251.666 237.208C253.113 238.892 254.32 240.769 255.252 242.784C255.557 243.647 255.782 244.536 255.927 245.44C255.987 245.194 256.001 244.94 255.97 244.689C255.927 244 255.786 243.322 255.551 242.673C254.691 240.579 253.497 238.638 252.016 236.926C251.619 236.404 251.157 235.936 250.641 235.534C250.128 235.162 249.548 234.895 248.933 234.748C247.946 234.488 246.936 234.327 245.918 234.27C245.001 234.157 244.074 234.166 243.16 234.295Z" fill="#EB996E"/>
<path d="M240.076 249.924C240.231 249.833 240.375 249.724 240.503 249.599C240.811 249.36 241.204 249.035 241.69 248.643C243.185 247.484 244.745 246.412 246.362 245.432H246.259L250.657 246.183L250.504 245.995C250.494 246.356 250.523 246.717 250.589 247.071C250.648 247.465 250.82 247.833 251.084 248.13C251.252 248.273 251.456 248.365 251.674 248.395C251.876 248.438 252.086 248.438 252.289 248.395C252.714 248.331 253.102 248.116 253.382 247.789C253.457 247.711 253.522 247.625 253.578 247.532L253.621 247.464V247.421L253.365 247.515L253.501 247.567L254.065 247.772C254.261 247.831 254.458 247.883 254.671 247.925C254.779 247.934 254.888 247.934 254.996 247.925C255.137 247.937 255.278 247.91 255.406 247.848C255.6 247.695 255.748 247.491 255.833 247.259C255.921 247.066 255.996 246.866 256.055 246.661C256.175 246.252 256.269 245.836 256.337 245.415L256.08 245.594C256.379 245.655 256.689 245.635 256.977 245.536C257.265 245.436 257.522 245.262 257.72 245.03C257.918 244.79 258.023 244.487 258.019 244.176C258.004 243.886 257.953 243.599 257.865 243.322C257.538 242.238 257.133 241.179 256.653 240.154C256.149 239.343 255.602 238.489 255.056 237.592L254.039 235.986C253.725 235.426 253.35 234.902 252.921 234.424C252.469 233.966 251.928 233.606 251.332 233.365C250.747 233.151 250.135 233.024 249.513 232.989L242.818 232.237H242.766C242.365 232.304 241.971 232.407 241.588 232.545C241.181 232.669 240.825 232.92 240.572 233.262L240.819 233.185C240.456 233.019 240.058 232.944 239.659 232.966C239.26 232.989 238.873 233.108 238.531 233.313C237.939 233.748 237.535 234.393 237.403 235.115L237.463 235.021L231.878 240.043C231.246 240.615 230.751 241.076 230.375 241.426C230.19 241.577 230.022 241.746 229.871 241.93C230.073 241.804 230.262 241.658 230.435 241.495L231.998 240.179L237.685 235.269V235.209C237.809 234.583 238.162 234.026 238.676 233.646C238.968 233.48 239.296 233.386 239.631 233.373C239.967 233.36 240.301 233.427 240.606 233.57L240.76 233.629L240.854 233.493C241.076 233.228 241.374 233.038 241.708 232.946C242.063 232.823 242.429 232.732 242.801 232.673H242.749L249.436 233.459C250.02 233.492 250.596 233.613 251.144 233.817C251.687 234.032 252.178 234.358 252.587 234.774C252.99 235.23 253.342 235.728 253.638 236.26L254.654 237.865L256.26 240.427C256.727 241.43 257.126 242.463 257.455 243.519C257.53 243.763 257.579 244.015 257.6 244.27C257.611 244.492 257.534 244.71 257.387 244.876C257.242 245.047 257.053 245.174 256.841 245.245C256.629 245.315 256.401 245.327 256.183 245.278H255.961V245.491C255.895 245.895 255.806 246.294 255.696 246.687C255.626 247.037 255.467 247.363 255.235 247.635C255.178 247.644 255.121 247.644 255.064 247.635C254.973 247.643 254.882 247.643 254.791 247.635C254.603 247.601 254.418 247.555 254.236 247.498C254.056 247.447 253.877 247.379 253.698 247.31L253.57 247.259L253.313 247.353V247.404C253.273 247.481 253.224 247.552 253.168 247.618C252.948 247.872 252.646 248.041 252.314 248.096C252.153 248.126 251.988 248.126 251.827 248.096C251.679 248.082 251.539 248.022 251.426 247.925C251.052 247.39 250.883 246.739 250.948 246.089V245.927H250.803L246.396 245.235H246.336H246.293C244.677 246.242 243.133 247.361 241.673 248.583C241.169 249.01 240.819 249.36 240.529 249.599C240.368 249.692 240.216 249.801 240.076 249.924Z" fill="#EB996E"/>
<path d="M298.951 220.076L244.252 220.52C242.476 220.52 240.785 221.374 240.52 223.082L234.542 262.956H206.36C205.926 262.956 205.508 263.128 205.201 263.436C204.893 263.743 204.721 264.16 204.721 264.595C204.721 265.03 204.893 265.447 205.201 265.755C205.508 266.062 205.926 266.235 206.36 266.235H296.338L302.487 224.158C302.557 223.652 302.519 223.136 302.374 222.645C302.229 222.155 301.98 221.701 301.645 221.315C301.311 220.928 300.897 220.618 300.432 220.404C299.968 220.19 299.463 220.079 298.951 220.076Z" fill="#E0E0E0"/>
<path d="M298.951 220.076C299.238 220.057 299.526 220.083 299.805 220.153C300.647 220.352 301.389 220.846 301.898 221.545C302.27 222.044 302.503 222.634 302.572 223.253C302.592 224.01 302.526 224.766 302.376 225.508L301.582 231.059C300.377 239.411 298.644 251.461 296.509 266.269V266.414H296.338L209.034 266.465H206.668C206.239 266.509 205.806 266.429 205.421 266.235C205.025 266.021 204.721 265.668 204.567 265.244C204.414 264.826 204.416 264.367 204.573 263.95C204.73 263.533 205.031 263.187 205.421 262.973C205.8 262.779 206.227 262.699 206.651 262.742H234.5L234.286 262.921L240.264 223.373C240.32 222.574 240.68 221.828 241.272 221.289C241.87 220.793 242.595 220.473 243.364 220.367C244.097 220.299 244.832 220.273 245.568 220.29H247.72L255.952 220.238L270.59 220.144L291.428 220.042H297.004H298.439H298.926C298.926 220.042 298.763 220.042 298.439 220.042H297.004L291.428 220.127L270.59 220.358L255.952 220.503L247.72 220.58H245.576C244.858 220.567 244.14 220.592 243.424 220.657C242.718 220.754 242.055 221.05 241.511 221.511C240.993 221.999 240.687 222.67 240.657 223.381C238.872 235.337 236.891 248.651 234.756 262.93V263.118H206.668C206.32 263.074 205.967 263.133 205.652 263.289C205.362 263.453 205.139 263.714 205.02 264.026C204.902 264.338 204.896 264.681 205.003 264.997C205.122 265.314 205.349 265.58 205.643 265.748C205.962 265.91 206.321 265.976 206.677 265.936H209.025L296.329 265.987L296.159 266.132L301.377 230.93C301.693 228.855 301.966 227.002 302.231 225.388C302.382 224.661 302.457 223.919 302.453 223.176C302.396 222.561 302.178 221.972 301.821 221.468C301.331 220.78 300.614 220.287 299.797 220.076C299.515 220.053 299.233 220.053 298.951 220.076Z" fill="#263238"/>
<path d="M265.859 242.673C265.859 243.348 266.059 244.009 266.435 244.571C266.81 245.132 267.343 245.57 267.968 245.829C268.592 246.087 269.279 246.155 269.941 246.023C270.604 245.891 271.213 245.566 271.69 245.088C272.168 244.611 272.493 244.002 272.625 243.339C272.757 242.677 272.689 241.99 272.431 241.366C272.172 240.741 271.734 240.208 271.173 239.833C270.611 239.457 269.951 239.257 269.275 239.257C268.369 239.257 267.5 239.617 266.859 240.257C266.219 240.898 265.859 241.767 265.859 242.673Z" fill="white"/>
<path d="M236.755 265.911C236.831 265.911 238.574 255.774 240.64 243.237C242.707 230.7 244.33 220.529 244.253 220.521C244.176 220.512 242.434 230.657 240.367 243.194C238.3 255.731 236.678 265.902 236.755 265.911Z" fill="#263238"/>
</svg>
