<svg width="158" height="158" viewBox="0 0 158 158" fill="none" xmlns="http://www.w3.org/2000/svg">
<g clip-path="url(#clip0_205_9041)">
<path d="M93.0722 124.077V93.5518H79.1601V103.136H47.9377C44.5976 103.165 41.8965 105.866 41.8965 109.207V124.106C41.8965 132.209 48.4605 138.773 56.5638 138.773H56.5928H78.434C86.5373 138.744 93.1013 132.18 93.0722 124.077Z" fill="#1F315F"/>
<path d="M79.1894 139.703C78.957 134.155 74.4261 129.799 68.8787 129.799H66.1195C60.5721 129.799 56.0412 134.184 55.8379 139.732L79.1894 139.703Z" fill="#EFCDB1"/>
<path d="M67.4848 129.654C66.5264 129.625 65.7712 128.87 65.7422 127.911V115.858C65.7422 114.899 66.5264 114.115 67.4848 114.115C68.4433 114.115 69.2275 114.899 69.2275 115.858V127.911C69.2565 128.87 68.5014 129.625 67.5429 129.654H67.5139H67.4848Z" fill="#414042"/>
<path d="M79.2185 147.661V139.703H55.838V147.661C55.809 153.354 60.427 157.972 66.1196 158.001H66.1487H68.9079C74.6005 157.972 79.2185 153.354 79.2185 147.661Z" fill="#8A5D3B"/>
<path d="M79.1889 119.169C78.2305 119.169 77.4463 118.385 77.4463 117.426V104.618C77.4463 103.659 78.2305 102.875 79.1889 102.875C80.1474 102.875 80.9316 103.659 80.9316 104.618V117.426C80.9316 118.385 80.1474 119.169 79.1889 119.169Z" fill="#192A4F"/>
<path d="M93.0432 93.5517V85.9421C93.0432 84.0542 91.5329 82.5439 89.6451 82.5439H82.5583C80.6704 82.5439 79.1602 84.0542 79.1602 85.9421V93.5517H93.0432Z" fill="#EFCDB1"/>
<path d="M130.538 83.6759L101.785 73.3652L97.0797 86.4641L106.112 89.688L95.5694 119.11C94.4367 122.246 96.0631 125.703 99.1999 126.835L113.228 131.86C120.867 134.59 129.261 130.64 131.991 123.002L139.368 102.438C142.098 94.8288 138.148 86.4351 130.538 83.6759Z" fill="#89C45E"/>
<path d="M140.501 102.061C135.215 100.376 129.551 103.164 127.692 108.392L126.763 110.977C124.904 116.205 127.489 121.956 132.63 124.047L140.501 102.061Z" fill="#EFCDB1"/>
<path d="M125.457 110.803C125.253 110.803 125.05 110.774 124.876 110.687L113.519 106.621C112.619 106.302 112.154 105.285 112.474 104.385C112.793 103.484 113.752 103.02 114.652 103.339H114.681L126.037 107.405C126.938 107.696 127.461 108.683 127.141 109.613C126.909 110.339 126.212 110.832 125.457 110.803Z" fill="#414042"/>
<path d="M148.023 104.734L140.907 102.178L140.501 102.062L132.63 124.048L133.007 124.193L140.123 126.749C145.496 128.666 151.392 125.878 153.309 120.505L154.239 117.92C156.156 112.575 153.367 106.68 148.023 104.734Z" fill="#8A5D3B"/>
<path d="M119.532 96.2526L118.951 96.1654L106.897 91.8379C105.997 91.5184 105.532 90.5018 105.852 89.6015C106.171 88.7011 107.188 88.2364 108.088 88.5559L120.141 92.8834C121.042 93.2029 121.507 94.1614 121.187 95.0617V95.0908C120.926 95.7878 120.287 96.2526 119.532 96.2526Z" fill="#75AA4D"/>
<path d="M101.785 73.3655L94.6113 70.8096C92.8396 70.1706 90.8936 71.1 90.2547 72.8427V72.8717L87.873 79.5228C87.2341 81.2945 88.1635 83.2404 89.9061 83.8794H89.9352L97.08 86.4643L101.785 73.3655Z" fill="#EFCDB1"/>
<path d="M105.3 36.9741L87.2344 61.6035L98.4454 69.823L104.109 62.0972L129.29 80.5693C131.991 82.5443 135.767 81.9634 137.742 79.2623L146.572 67.238C151.364 60.7031 149.941 51.5252 143.406 46.7329L125.776 33.8083C119.241 29.045 110.092 30.4682 105.3 36.9741Z" fill="#FDC00F"/>
<path d="M125.747 32.6172C122.639 37.2062 123.714 43.4216 128.187 46.7036L130.394 48.3301C134.867 51.583 141.111 50.7698 144.568 46.4422L125.747 32.6172Z" fill="#EFCDB1"/>
<path d="M121.042 60.4995C120.664 60.4995 120.316 60.3833 120.025 60.18C119.241 59.5991 119.067 58.5245 119.648 57.7403L126.763 48.0105C127.344 47.2263 128.419 47.0521 129.203 47.6329C129.987 48.2138 130.162 49.2885 129.581 50.0726L122.436 59.8024C122.116 60.2381 121.594 60.4995 121.042 60.4995Z" fill="#414042"/>
<path d="M130.423 26.1984L125.95 32.2977L125.747 32.6172L144.568 46.4422L144.829 46.1227L149.302 39.9944C152.671 35.4054 151.654 28.9576 147.065 25.5885L144.858 23.962C140.269 20.5929 133.821 21.5804 130.452 26.1694C130.423 26.1694 130.423 26.1984 130.423 26.1984Z" fill="#8A5D3B"/>
<path d="M104.98 62.6485C104.602 62.6485 104.254 62.5323 103.934 62.329C103.15 61.7481 103.005 60.6735 103.586 59.8893L111.137 49.5496C111.718 48.7654 112.793 48.5911 113.577 49.172C114.361 49.7529 114.535 50.8275 113.955 51.6117L106.374 61.9514C106.055 62.3871 105.532 62.6485 104.98 62.6485Z" fill="#E5A60A"/>
<path d="M87.2342 61.6035L82.7323 67.7318C81.6287 69.2421 81.9481 71.3623 83.4584 72.4951L89.1801 76.6774C90.6904 77.7811 92.8106 77.4616 93.9434 75.9513L98.4452 69.823L87.2342 61.6035Z" fill="#EFCDB1"/>
<path d="M45.3813 99.5924L73.7284 88.2071L68.5585 75.3115L59.642 78.884L47.9953 49.8979C46.7755 46.8193 43.2902 45.2799 40.1824 46.4998C40.1824 46.4998 40.1534 46.4998 40.1534 46.5288L26.2994 52.1053C18.806 55.1259 15.1755 63.6649 18.167 71.1582L26.3284 91.431C29.3199 98.9535 37.8299 102.613 45.3523 99.5924H45.3813Z" fill="#02648E"/>
<path d="M25.7184 92.5057C30.772 90.2402 33.1537 84.3733 31.0915 79.2325L30.0459 76.6766C27.9838 71.5358 22.2331 68.9509 17.0342 70.8097L25.7184 92.5057Z" fill="#EFCDB1"/>
<path d="M32.3113 78.9997C31.6143 78.9997 30.9753 78.564 30.7139 77.896C30.3654 76.9957 30.772 75.9791 31.6724 75.6306L42.8544 71.1287C43.7547 70.7802 44.7713 71.2159 45.1488 72.1162C45.4974 73.0166 45.0617 74.0331 44.1613 74.3817L32.9794 78.8835C32.776 78.9706 32.5437 78.9997 32.3113 78.9997Z" fill="#414042"/>
<path d="M18.3415 95.468L25.3702 92.6507L25.7187 92.5055L17.0345 70.8096L16.6279 70.9548L9.62828 73.7721C4.34225 75.8923 1.78637 81.9044 3.90659 87.1905L4.92313 89.7463C7.04335 95.0324 13.0555 97.5883 18.3415 95.468Z" fill="#8A5D3B"/>
<path d="M46.4273 85.942C45.4688 85.971 44.6556 85.2159 44.6556 84.2574C44.6265 83.5313 45.0912 82.8633 45.7593 82.5728L57.6383 77.8096C58.5387 77.4611 59.5552 77.8677 59.9037 78.7681C60.2813 79.6394 59.8747 80.6559 59.0034 81.0045C58.9743 81.0045 58.9743 81.0045 58.9453 81.0335L47.0662 85.8258C46.8629 85.9129 46.6596 85.942 46.4273 85.942Z" fill="#345493"/>
<path d="M73.7284 88.2074L80.7862 85.361C82.5288 84.664 83.3711 82.689 82.674 80.9463L80.031 74.3533C79.334 72.6107 77.359 71.7684 75.6163 72.4654L68.5586 75.3118L73.7284 88.2074Z" fill="#EFCDB1"/>
<path d="M50.4059 44.8736L67.3387 70.2872L78.8982 62.5905L73.5831 54.6324L99.6067 37.3221C102.366 35.4633 103.121 31.7166 101.262 28.9284L93.0137 16.5265C88.5118 9.78831 79.421 7.95853 72.6828 12.4313L54.5012 24.5427C47.7629 29.0155 45.9331 38.1354 50.4059 44.8736Z" fill="#BE1E2D"/>
<path d="M53.3398 24.1939C56.5928 28.6667 62.7792 29.7994 67.3972 26.7207L69.6917 25.2105C74.3097 22.1608 75.7038 15.9744 72.7994 11.2402L53.3398 24.1939Z" fill="#EFCDB1"/>
<path d="M76.2848 39.326C75.7039 39.326 75.152 39.0355 74.8326 38.5418L68.1524 28.4925C67.5715 27.7083 67.7458 26.6337 68.5009 26.0528C69.2851 25.4719 70.3598 25.6462 70.9406 26.4013C70.9697 26.4594 71.0278 26.5175 71.0568 26.5756L77.737 36.5958C78.2598 37.409 78.0565 38.4837 77.2432 39.0355C76.9528 39.2098 76.6333 39.326 76.2848 39.326Z" fill="#414042"/>
<path d="M48.9248 17.543L53.1072 23.8455L53.3395 24.1941L72.7991 11.2404L72.5667 10.8919L68.3844 4.58928C65.2186 -0.144912 58.7998 -1.42285 54.0656 1.74296L51.8002 3.25325C47.066 6.39001 45.759 12.7507 48.8958 17.5139L48.9248 17.543Z" fill="#8A5D3B"/>
<path d="M72.7704 55.1553C72.1895 55.1553 71.6377 54.8649 71.3182 54.3711L64.2314 43.7119C63.6796 42.8987 63.9119 41.8241 64.7252 41.3013C65.5384 40.7494 66.6131 40.9818 67.1358 41.766L74.2226 52.4252C74.7454 53.2094 74.5421 54.284 73.7869 54.8068C73.7579 54.8068 73.7579 54.8358 73.7289 54.8358C73.4384 55.0391 73.1189 55.1553 72.7704 55.1553Z" fill="#AA1729"/>
<path d="M67.3389 70.2875L71.5503 76.6191C72.5668 78.1875 74.658 78.6232 76.1973 77.6066C76.2264 77.6066 76.2264 77.5776 76.2554 77.5776L82.1804 73.6566C83.7488 72.611 84.1554 70.4908 83.1098 68.9224L78.8984 62.5908L67.3389 70.2875Z" fill="#EFCDB1"/>
</g>
<defs>
<clipPath id="clip0_205_9041">
<rect width="158" height="158" fill="white"/>
</clipPath>
</defs>
</svg>
