<svg width="397" height="369" viewBox="0 0 397 369" fill="none" xmlns="http://www.w3.org/2000/svg">
<path d="M7.31566 293.875C9.8086 293.692 14.6449 290.991 14.6532 290.991C14.6615 290.991 11.9027 288.332 11.7032 288.183C9.43466 286.521 4.06654 284.568 1.49051 286.404C1.07049 286.721 0.721865 287.122 0.467371 287.582C0.212877 288.042 0.058236 288.55 0.01354 289.074C-0.0311561 289.598 0.0350968 290.125 0.207976 290.622C0.380854 291.118 0.656474 291.573 1.01685 291.955C2.48768 293.642 5.21329 294.024 7.31566 293.875Z" fill="#023A59"/>
<path d="M16.5145 307.212C18.7582 306.423 22.4726 302.841 22.7635 302.55C24.8081 304.683 26.9929 306.676 29.3033 308.517C30.6411 309.589 32.0206 310.636 33.4582 311.666C32.7435 311.292 32.112 310.96 32.0206 310.927C29.3864 309.896 23.7108 309.456 21.6915 311.907C21.362 312.322 21.1244 312.802 20.9945 313.316C20.8646 313.83 20.8454 314.365 20.9381 314.887C21.0308 315.409 21.2333 315.905 21.5323 316.342C21.8312 316.78 22.2197 317.149 22.6721 317.425C24.5335 318.663 27.2674 318.314 29.2534 317.608C31.2395 316.901 34.5052 313.91 35.3528 313.104C35.8929 313.494 36.4248 313.893 36.9649 314.275C39.5658 316.137 42.1751 317.982 44.6764 319.868C45.5572 320.533 46.3965 321.222 47.2441 321.904C46.6125 321.571 46.0807 321.297 45.9976 321.264C43.3634 320.234 37.6878 319.793 35.6686 322.244C35.3475 322.661 35.1178 323.141 34.9943 323.652C34.8709 324.164 34.8566 324.695 34.9522 325.213C35.0478 325.73 35.2513 326.222 35.5494 326.655C35.8475 327.089 36.2335 327.454 36.6824 327.729C38.5437 328.959 41.2777 328.61 43.2637 327.912C45.2497 327.214 48.1997 324.496 49.2052 323.549C50.0362 324.272 50.8671 324.995 51.6981 325.743C52.2216 326.258 52.7618 326.723 53.2604 327.272L54.7644 328.867C55.6785 329.906 56.6341 330.978 57.4984 332.025C58.1133 332.748 58.6783 333.438 59.2517 334.144C58.4207 333.471 56.6508 332.191 56.5012 332.1C54.0082 330.687 48.4989 329.383 46.1472 331.51C45.7664 331.872 45.4662 332.311 45.2663 332.797C45.0664 333.283 44.9711 333.805 44.9868 334.331C45.0025 334.856 45.1287 335.372 45.3573 335.846C45.5859 336.319 45.9117 336.739 46.3134 337.077C47.9753 338.573 50.7259 338.648 52.795 338.257C55.0802 337.817 59.1437 334.975 59.6506 334.618C60.5896 335.781 61.5037 336.928 62.343 338.016C64.6115 340.941 66.4978 343.542 67.9521 345.645L69.8135 344.664C68.2678 342.537 66.2569 339.861 63.8138 336.853C62.8582 335.665 61.8111 334.418 60.7309 333.147C61.7654 331.935 62.7255 330.661 63.606 329.333C65.858 330.164 70.4865 330.006 71.0848 329.989C71.2344 331.485 71.3591 332.931 71.4588 334.31C71.7247 337.892 71.8577 341.033 71.9324 343.551L73.9517 342.479C73.8271 340.119 73.6359 337.31 73.3285 334.169C73.1872 332.648 73.0044 331.036 72.7967 329.374C73.3783 329.208 78.1565 327.812 79.9181 326.3C81.5302 324.929 83.1922 322.735 83.0592 320.483C83.0453 319.957 82.9208 319.44 82.6939 318.965C82.4669 318.491 82.1427 318.069 81.7422 317.729C81.3416 317.388 80.8738 317.135 80.3691 316.986C79.8645 316.838 79.3342 316.798 78.8129 316.868C75.6968 317.375 73.2288 322.519 72.805 325.311C72.805 325.477 72.7053 327.297 72.6803 328.444C72.5972 327.77 72.5141 327.114 72.4227 326.416C72.2316 325.037 72.0072 323.665 71.7746 322.195C71.6361 321.491 71.4948 320.776 71.3508 320.051C71.2261 319.328 71.0017 318.588 70.8272 317.849C70.3951 316.137 69.8633 314.433 69.2982 312.721C70.5032 312.564 74.7744 311.89 76.5776 310.802C78.3808 309.713 80.3503 307.769 80.558 305.55C80.6233 305.028 80.5782 304.498 80.4258 303.995C80.2733 303.492 80.0168 303.026 79.6729 302.628C79.329 302.23 78.9054 301.909 78.4294 301.685C77.9535 301.461 77.4358 301.34 76.91 301.329C73.7523 301.329 70.5364 306.074 69.6888 308.808C69.6389 308.982 69.2484 310.985 69.0573 312.09C68.7082 311.06 68.3675 310.037 67.977 309.015C66.8635 306.057 65.6336 303.099 64.4287 300.14L63.3401 297.423C63.7722 297.365 68.8661 296.709 70.8854 295.462C72.6803 294.349 74.6581 292.429 74.8575 290.21C74.9355 289.684 74.9005 289.147 74.7547 288.635C74.609 288.123 74.356 287.648 74.0125 287.242C73.6689 286.835 73.2427 286.507 72.7623 286.278C72.2819 286.049 71.7582 285.925 71.2261 285.914C68.0601 285.914 64.8442 290.659 64.0049 293.351C63.9384 293.559 63.39 296.443 63.282 297.182C62.451 295.188 61.7114 293.185 61.03 291.191C60.0977 288.495 59.34 285.741 58.7614 282.948C58.9609 282.948 64.2874 282.258 66.3566 280.978C68.1432 279.865 70.1209 277.945 70.3287 275.726C70.3952 275.205 70.3513 274.675 70.1998 274.172C70.0484 273.669 69.7927 273.203 69.4495 272.805C69.1062 272.407 68.683 272.085 68.2075 271.861C67.7319 271.637 67.2145 271.516 66.689 271.505C63.5229 271.505 60.3071 276.25 59.4678 278.942C59.4013 279.158 58.803 282.266 58.7365 282.831C58.7365 282.665 58.6534 282.507 58.6202 282.341C58.1172 279.521 57.8641 276.663 57.864 273.798C57.864 272.22 57.9138 270.707 58.0136 269.236C59.019 269.236 63.606 269.07 65.6004 268.123C67.5947 267.176 69.6722 265.522 70.1292 263.336C70.2512 262.825 70.2646 262.294 70.1686 261.778C70.0725 261.261 69.8691 260.77 69.5715 260.337C69.2739 259.904 68.8887 259.538 68.4408 259.263C67.993 258.988 67.4924 258.81 66.9715 258.741C63.8221 258.425 60.1076 262.755 58.9692 265.347C58.911 265.489 58.4374 267.009 58.1382 268.081C58.1964 267.425 58.2379 266.735 58.3044 266.104C58.5454 263.719 58.9193 261.558 59.26 259.639C59.4595 258.55 59.6672 257.578 59.8666 256.664C60.8472 256.124 64.7445 253.921 66.0491 252.193C67.3538 250.465 68.4756 248.038 67.8606 245.861C67.7344 245.348 67.5012 244.868 67.1762 244.451C66.8512 244.035 66.4419 243.691 65.975 243.444C65.5081 243.197 64.9943 243.051 64.4672 243.017C63.94 242.982 63.4115 243.059 62.9163 243.243C59.9747 244.407 58.6783 249.966 58.8612 252.783C58.8612 253.032 59.5675 256.813 59.6173 256.78H59.6755C59.4678 257.653 59.2517 258.592 59.0357 259.63C58.6534 261.542 58.2047 263.702 57.9388 266.087C57.5913 268.652 57.3943 271.235 57.3488 273.823C57.2849 276.724 57.4796 279.624 57.9305 282.49C57.9305 282.49 57.9305 282.557 57.9305 282.59C57.515 281.759 56.2685 279.482 56.1522 279.324C54.4902 277.014 50.0279 273.508 47.0114 274.447C46.5148 274.618 46.0596 274.891 45.6755 275.249C45.2913 275.607 44.9867 276.042 44.7814 276.526C44.5762 277.009 44.4748 277.53 44.4839 278.055C44.493 278.58 44.6123 279.098 44.8342 279.574C45.7068 281.626 48.1582 282.848 50.2273 283.363C52.5374 283.936 57.6064 282.997 58.0136 282.923C58.5405 285.826 59.2623 288.691 60.1741 291.498C60.6976 293.16 61.271 294.772 61.8361 296.401C61.4538 295.695 61.1048 295.071 61.0466 294.988C59.3847 292.678 54.9223 289.172 51.9059 290.111C51.4093 290.281 50.9541 290.555 50.5699 290.913C50.1858 291.271 49.8812 291.706 49.6759 292.189C49.4706 292.673 49.3692 293.194 49.3783 293.719C49.3874 294.244 49.5068 294.762 49.7287 295.238C50.6012 297.299 53.0526 298.512 55.1134 299.027C57.1743 299.542 61.5369 298.836 62.6837 298.628C62.9246 299.251 63.149 299.875 63.39 300.498C64.5284 303.489 65.6835 306.464 66.7139 309.414C67.0795 310.453 67.4036 311.492 67.736 312.53C67.3953 311.907 67.0962 311.384 67.0463 311.309C65.3843 308.999 60.9137 305.492 57.9055 306.431C57.4082 306.601 56.9522 306.874 56.5671 307.232C56.182 307.589 55.8765 308.024 55.6704 308.508C55.4643 308.991 55.3622 309.513 55.3708 310.038C55.3793 310.564 55.4983 311.082 55.7201 311.558C56.6009 313.611 59.044 314.832 61.1131 315.347C63.1822 315.863 67.1128 315.214 68.4756 314.982C68.783 316.054 69.0905 317.126 69.3066 318.181C69.4561 318.904 69.6556 319.594 69.7719 320.325C69.8882 321.056 70.0212 321.771 70.1458 322.477C70.3287 323.857 70.5364 325.278 70.686 326.632C70.794 327.571 70.8854 328.469 70.9768 329.366C70.6195 328.327 69.8882 326.308 69.8051 326.142C68.6236 323.964 66.9079 322.123 64.8193 320.79C64.6962 320.543 64.5516 320.306 64.3872 320.084C64.0855 319.653 63.6966 319.291 63.2457 319.02C62.7948 318.75 62.292 318.577 61.77 318.514C61.2481 318.45 60.7186 318.497 60.216 318.652C59.7134 318.806 59.249 319.065 58.8528 319.411C56.5261 321.555 57.3155 327.205 58.4955 329.773C58.5703 329.923 59.5093 331.477 60.1575 332.449C59.7088 331.934 59.3265 331.427 58.8196 330.903C57.9055 329.856 56.9582 328.834 55.9527 327.737L54.4154 326.175C53.9168 325.651 53.3185 325.153 52.7535 324.629C51.4488 323.449 50.0694 322.311 48.6567 321.206C49.5708 320.375 52.8116 317.508 53.6426 315.58C54.4736 313.652 55.1134 310.976 54.0581 309.007C53.8307 308.532 53.5054 308.11 53.1035 307.769C52.7016 307.428 52.2323 307.176 51.7262 307.03C51.2202 306.883 50.6888 306.845 50.167 306.918C49.6452 306.991 49.1447 307.173 48.6983 307.453C46.0724 309.223 45.9893 314.932 46.7704 317.649C46.8203 317.815 47.6014 319.702 48.0501 320.724C47.2192 320.067 46.3882 319.403 45.4575 318.763C42.8981 316.91 40.2389 315.115 37.6047 313.32L35.1949 311.658C35.5273 311.375 39.408 308.018 40.4051 305.841C41.286 303.921 41.876 301.237 40.8206 299.268C40.5876 298.802 40.2596 298.39 39.8577 298.059C39.4558 297.727 38.9889 297.483 38.4871 297.343C37.9854 297.203 37.4598 297.17 36.9443 297.245C36.4288 297.32 35.9348 297.503 35.4941 297.78C32.8682 299.542 32.7851 305.259 33.5745 307.968C33.6327 308.168 34.7628 310.885 35.0786 311.558C33.3169 310.328 31.5718 309.065 29.8933 307.802C27.6252 306.07 25.4713 304.194 23.4449 302.185C23.5945 302.052 27.6746 298.562 28.6884 296.368C29.5692 294.457 30.1675 291.764 29.1121 289.795C28.8792 289.323 28.5497 288.906 28.1451 288.571C27.7404 288.235 27.2696 287.988 26.7633 287.846C26.257 287.704 25.7266 287.671 25.2064 287.747C24.6862 287.824 24.188 288.009 23.744 288.291C21.1181 290.061 21.035 295.77 21.8245 298.479C21.8826 298.695 23.1042 301.611 23.3618 302.118L22.9961 301.778C21.0179 299.707 19.2297 297.462 17.653 295.072C16.7638 293.759 15.991 292.462 15.2597 291.183C16.0907 290.609 19.8301 287.95 20.9686 286.064C22.107 284.177 22.938 281.651 22.107 279.582C21.9282 279.087 21.6473 278.636 21.2825 278.257C20.9177 277.878 20.4772 277.58 19.9897 277.382C19.5021 277.185 18.9785 277.092 18.4527 277.11C17.927 277.129 17.411 277.257 16.9383 277.488C14.1379 278.959 13.4316 284.626 13.9136 287.41C13.9136 287.559 14.3706 289.072 14.7445 290.16C14.4288 289.579 14.0881 288.98 13.7972 288.415C12.6837 286.296 11.7946 284.26 11.0218 282.507C10.598 281.485 10.1908 280.554 9.89163 279.682C10.4068 278.701 12.4427 274.696 12.5757 272.552C12.7086 270.408 12.2267 267.707 10.5647 266.253C10.1781 265.897 9.72075 265.626 9.22247 265.458C8.72418 265.289 8.1961 265.228 7.67254 265.277C7.14899 265.327 6.64168 265.486 6.18361 265.744C5.72555 266.002 5.32696 266.354 5.01379 266.777C3.20225 269.369 5.18829 274.721 6.90011 276.973C7.04968 277.172 9.70881 279.939 9.73374 279.89V279.831C10.0412 280.662 10.3819 281.585 10.7642 282.565C11.5037 284.368 12.3513 286.404 13.415 288.557C14.5468 290.889 15.8148 293.154 17.2125 295.337C18.7583 297.79 20.5185 300.101 22.4726 302.243L22.5474 302.318C21.7164 301.852 19.4479 300.656 19.2235 300.573C16.5893 299.542 10.9137 299.102 8.90276 301.553C8.58148 301.969 8.35135 302.447 8.22737 302.958C8.10339 303.468 8.08834 303.999 8.1832 304.516C8.27806 305.032 8.48071 305.523 8.77793 305.956C9.07515 306.389 9.46029 306.755 9.90825 307.029C11.7946 308.284 14.5202 307.918 16.5145 307.212Z" fill="#023A59"/>
<path d="M57.5986 268.779C57.6568 268.779 56.7676 265.04 56.6845 264.807C55.7289 262.148 52.3136 257.577 49.1476 257.685C48.6236 257.72 48.1127 257.864 47.6478 258.108C47.1829 258.353 46.7744 258.692 46.4487 259.103C46.1229 259.515 45.8872 259.991 45.7566 260.5C45.6261 261.008 45.6036 261.539 45.6907 262.056C45.9982 264.275 48.0507 266.103 49.8955 267.134C52.056 268.347 57.5903 268.779 57.5986 268.779Z" fill="#023A59"/>
<path d="M389.682 293.875C387.189 293.692 382.353 290.991 382.353 290.991C382.353 290.991 385.103 288.332 385.294 288.183C387.563 286.521 392.939 284.568 395.515 286.404C395.935 286.721 396.283 287.123 396.536 287.583C396.79 288.043 396.944 288.552 396.988 289.076C397.032 289.6 396.965 290.127 396.791 290.623C396.618 291.119 396.341 291.573 395.981 291.955C394.477 293.642 391.784 294.024 389.682 293.875Z" fill="#023A59"/>
<path d="M380.491 307.212C378.247 306.423 374.533 302.841 374.233 302.551C372.191 304.685 370.006 306.678 367.694 308.517C366.356 309.589 364.976 310.636 363.58 311.666C364.287 311.293 364.926 310.96 365.018 310.927C367.652 309.896 373.328 309.456 375.339 311.907C375.66 312.324 375.889 312.803 376.013 313.313C376.136 313.824 376.15 314.355 376.055 314.872C375.959 315.389 375.755 315.879 375.457 316.312C375.159 316.745 374.773 317.11 374.325 317.384C372.463 318.622 369.738 318.273 367.743 317.566C365.749 316.86 362.492 313.869 361.652 313.063L360.032 314.234C357.431 316.096 354.83 317.94 352.329 319.827C351.448 320.491 350.6 321.181 349.753 321.863C350.384 321.53 350.916 321.256 351.008 321.223C353.633 320.192 359.317 319.752 361.328 322.203C361.649 322.62 361.879 323.1 362.003 323.611C362.126 324.123 362.14 324.654 362.045 325.172C361.949 325.689 361.746 326.18 361.448 326.614C361.149 327.047 360.763 327.413 360.315 327.688C358.453 328.918 355.719 328.569 353.733 327.871C351.747 327.173 348.797 324.455 347.792 323.508C346.961 324.231 346.13 324.954 345.299 325.702C344.767 326.217 344.227 326.682 343.728 327.231C343.23 327.779 342.723 328.294 342.232 328.826C341.31 329.865 340.363 330.937 339.49 331.984C338.884 332.707 338.31 333.397 337.737 334.103C338.609 333.43 340.338 332.15 340.496 332.059C342.939 330.646 348.498 329.341 350.841 331.469C351.222 331.831 351.522 332.269 351.722 332.755C351.922 333.242 352.017 333.764 352.002 334.29C351.986 334.815 351.86 335.331 351.631 335.804C351.403 336.278 351.077 336.697 350.675 337.036C349.013 338.532 346.271 338.607 344.194 338.216C341.917 337.776 337.853 334.934 337.346 334.577C336.399 335.74 335.493 336.887 334.646 337.975C332.385 340.9 330.491 343.501 329.037 345.604L327.167 344.623C328.712 342.496 330.732 339.82 333.166 336.812C334.122 335.624 335.169 334.377 336.258 333.106C335.222 331.892 334.259 330.619 333.374 329.292C331.122 330.122 326.494 329.965 325.895 329.948C325.754 331.444 325.621 332.89 325.521 334.269C325.256 337.851 325.123 340.992 325.056 343.51L323.029 342.438C323.153 340.078 323.353 337.269 323.652 334.128C323.801 332.607 323.984 330.995 324.184 329.333C323.602 329.167 318.832 327.771 317.062 326.258C315.458 324.887 313.796 322.694 313.929 320.442C313.942 319.916 314.066 319.399 314.292 318.925C314.518 318.45 314.841 318.029 315.241 317.688C315.641 317.347 316.108 317.094 316.612 316.945C317.117 316.797 317.646 316.757 318.167 316.827C321.292 317.334 323.752 322.478 324.175 325.27C324.175 325.436 324.275 327.256 324.3 328.402C324.391 327.729 324.466 327.073 324.566 326.375C324.749 324.995 324.973 323.624 325.214 322.153C325.347 321.447 325.488 320.732 325.63 320.009C325.771 319.287 325.979 318.547 326.153 317.807C326.593 316.096 327.117 314.392 327.682 312.68C326.477 312.522 322.206 311.849 320.403 310.761C318.599 309.672 316.63 307.728 316.431 305.509C316.364 304.988 316.408 304.458 316.559 303.955C316.711 303.451 316.967 302.985 317.31 302.587C317.653 302.189 318.076 301.868 318.552 301.644C319.027 301.42 319.545 301.298 320.07 301.288C323.236 301.288 326.452 306.032 327.291 308.766C327.35 308.941 327.732 310.944 327.923 312.049C328.272 311.018 328.621 309.996 329.003 308.974C330.125 306.016 331.347 303.058 332.552 300.099C332.926 299.193 333.283 298.288 333.64 297.382C333.216 297.324 328.114 296.667 326.095 295.421C324.308 294.307 322.331 292.388 322.123 290.169C322.056 289.648 322.1 289.118 322.252 288.615C322.403 288.111 322.659 287.645 323.002 287.247C323.345 286.849 323.768 286.528 324.244 286.304C324.72 286.08 325.237 285.959 325.762 285.948C328.929 285.948 332.144 290.693 332.992 293.385C333.05 293.593 333.607 296.476 333.707 297.216C334.538 295.221 335.277 293.219 335.967 291.224C336.902 288.528 337.663 285.775 338.244 282.981C338.044 282.981 332.726 282.291 330.657 281.012C328.862 279.898 326.884 277.979 326.677 275.76C326.611 275.238 326.656 274.708 326.809 274.205C326.961 273.702 327.218 273.236 327.562 272.838C327.906 272.44 328.329 272.119 328.805 271.895C329.281 271.671 329.799 271.55 330.325 271.539C333.491 271.539 336.698 276.283 337.546 278.976C337.612 279.192 338.202 282.3 338.269 282.865C338.269 282.699 338.36 282.541 338.385 282.375C338.892 279.555 339.145 276.696 339.141 273.832C339.141 272.253 339.091 270.741 338.992 269.27C337.986 269.27 333.399 269.104 331.413 268.156C329.427 267.209 327.333 265.556 326.884 263.37C326.761 262.859 326.747 262.327 326.842 261.81C326.938 261.293 327.141 260.802 327.439 260.368C327.736 259.935 328.122 259.569 328.571 259.295C329.019 259.02 329.521 258.843 330.042 258.775C333.191 258.459 336.906 262.788 338.036 265.381C338.102 265.522 338.568 267.043 338.867 268.115C338.809 267.458 338.767 266.769 338.701 266.137C338.46 263.752 338.094 261.592 337.745 259.672C337.546 258.584 337.338 257.611 337.139 256.697C336.166 256.157 332.269 253.955 330.964 252.227C329.66 250.498 328.538 248.072 329.145 245.895C329.271 245.385 329.504 244.907 329.827 244.493C330.15 244.078 330.557 243.737 331.021 243.49C331.485 243.243 331.996 243.097 332.52 243.06C333.044 243.023 333.57 243.097 334.064 243.277C337.006 244.44 338.302 250 338.119 252.817C338.119 253.066 337.413 256.847 337.363 256.814H337.305C337.513 257.686 337.737 258.625 337.953 259.664C338.335 261.575 338.784 263.736 339.05 266.121C339.394 268.686 339.589 271.269 339.632 273.857C339.698 276.757 339.506 279.658 339.058 282.524V282.624C339.474 281.793 340.72 279.516 340.836 279.358C342.498 277.048 346.961 273.541 349.977 274.48C350.475 274.65 350.931 274.923 351.316 275.281C351.7 275.639 352.006 276.074 352.211 276.557C352.416 277.041 352.518 277.563 352.508 278.088C352.498 278.614 352.378 279.132 352.154 279.607C351.282 281.66 348.83 282.881 346.77 283.397C344.459 283.97 339.382 283.031 338.975 282.956C338.448 285.86 337.726 288.725 336.814 291.532C336.291 293.194 335.718 294.806 335.153 296.435C335.535 295.728 335.884 295.105 335.942 295.022C337.604 292.712 342.075 289.205 345.083 290.144C345.58 290.314 346.036 290.587 346.421 290.945C346.806 291.302 347.112 291.737 347.318 292.221C347.524 292.704 347.626 293.226 347.617 293.751C347.609 294.277 347.49 294.795 347.268 295.271C346.387 297.332 343.944 298.545 341.875 299.061C339.806 299.576 335.452 298.869 334.305 298.662L333.607 300.531C332.46 303.523 331.305 306.498 330.283 309.448C329.917 310.486 329.593 311.525 329.269 312.564C329.61 311.941 329.901 311.417 329.951 311.342C331.613 309.032 336.083 305.526 339.091 306.465C339.588 306.635 340.043 306.909 340.427 307.267C340.811 307.625 341.116 308.06 341.321 308.543C341.527 309.027 341.628 309.548 341.619 310.073C341.61 310.598 341.49 311.116 341.269 311.592C340.388 313.644 337.945 314.866 335.875 315.381C333.806 315.896 329.876 315.248 328.513 315.015C328.214 316.087 327.906 317.159 327.682 318.215C327.532 318.938 327.333 319.627 327.225 320.359C327.117 321.09 326.976 321.804 326.851 322.511C326.66 323.89 326.461 325.311 326.311 326.666C326.195 327.605 326.103 328.502 326.012 329.4C326.369 328.361 327.109 326.342 327.183 326.175C328.349 323.971 330.059 322.103 332.153 320.749C332.27 320.498 332.415 320.261 332.585 320.043C332.886 319.612 333.274 319.25 333.724 318.98C334.174 318.709 334.676 318.537 335.198 318.473C335.719 318.41 336.248 318.457 336.75 318.611C337.252 318.766 337.715 319.024 338.111 319.37C340.438 321.514 339.656 327.164 338.468 329.732C338.393 329.882 337.454 331.435 336.806 332.408C337.255 331.892 337.687 331.386 338.152 330.862C339.066 329.815 340.005 328.793 341.019 327.696L342.548 326.134C343.055 325.61 343.653 325.112 344.21 324.588C345.515 323.408 346.894 322.27 348.315 321.165C347.401 320.334 344.16 317.467 343.329 315.539C342.498 313.611 341.85 310.935 342.906 308.966C343.138 308.494 343.467 308.076 343.871 307.739C344.275 307.403 344.746 307.155 345.252 307.012C345.759 306.87 346.289 306.835 346.81 306.911C347.331 306.987 347.829 307.172 348.274 307.453C350.9 309.223 350.974 314.932 350.193 317.65C350.143 317.816 349.362 319.702 348.914 320.724C349.745 320.068 350.617 319.403 351.506 318.763C354.074 316.91 356.725 315.115 359.367 313.32L361.769 311.658C361.445 311.376 357.556 308.018 356.559 305.841C355.678 303.922 355.088 301.238 356.143 299.268C356.375 298.796 356.704 298.378 357.108 298.041C357.513 297.705 357.984 297.458 358.491 297.316C358.997 297.174 359.528 297.14 360.049 297.218C360.569 297.295 361.068 297.481 361.511 297.764C364.129 299.526 364.212 305.243 363.431 307.952C363.373 308.151 362.242 310.869 361.918 311.542C363.688 310.312 365.433 309.049 367.104 307.786C369.373 306.056 371.528 304.18 373.552 302.168C373.402 302.035 369.331 298.545 368.309 296.352C367.428 294.44 366.838 291.748 367.893 289.779C368.125 289.307 368.454 288.89 368.858 288.555C369.262 288.219 369.732 287.972 370.237 287.83C370.743 287.689 371.273 287.655 371.792 287.731C372.312 287.808 372.81 287.993 373.253 288.274C375.879 290.044 375.962 295.753 375.172 298.462C375.114 298.678 373.901 301.595 373.643 302.102L374.009 301.761C375.982 299.688 377.768 297.444 379.344 295.055C380.233 293.742 381.006 292.446 381.737 291.166C380.906 290.593 377.167 287.934 376.037 286.047C374.907 284.161 374.067 281.635 374.898 279.566C375.077 279.071 375.358 278.62 375.723 278.241C376.088 277.862 376.528 277.564 377.016 277.366C377.503 277.169 378.027 277.076 378.552 277.094C379.078 277.112 379.594 277.241 380.067 277.472C382.867 278.943 383.574 284.61 383.092 287.394C383.092 287.543 382.626 289.056 382.261 290.144C382.576 289.562 382.917 288.964 383.216 288.399C384.33 286.28 385.211 284.244 385.983 282.491C386.416 281.469 386.814 280.538 387.122 279.666C386.598 278.685 384.571 274.68 384.43 272.536C384.288 270.392 384.72 267.708 386.407 266.254C386.794 265.897 387.251 265.626 387.75 265.458C388.248 265.29 388.776 265.228 389.299 265.278C389.823 265.327 390.33 265.486 390.788 265.744C391.246 266.003 391.645 266.355 391.958 266.777C393.77 269.37 391.784 274.721 390.08 276.973C389.931 277.173 387.263 279.94 387.238 279.89V279.832C386.939 280.663 386.598 281.585 386.208 282.566C385.477 284.369 384.629 286.405 383.557 288.557C382.431 290.889 381.168 293.154 379.776 295.338C378.236 297.794 376.475 300.106 374.516 302.243L374.441 302.318C375.272 301.853 377.541 300.656 377.765 300.573C380.391 299.543 386.075 299.102 388.086 301.553C388.407 301.97 388.636 302.449 388.76 302.959C388.883 303.47 388.897 304.001 388.802 304.518C388.706 305.035 388.503 305.525 388.205 305.958C387.907 306.391 387.521 306.756 387.072 307.03C385.211 308.284 382.477 307.919 380.491 307.212Z" fill="#023A59"/>
<path d="M339.408 268.779C339.35 268.779 340.239 265.04 340.314 264.807C341.269 262.148 344.693 257.577 347.851 257.685C348.375 257.719 348.887 257.862 349.352 258.106C349.818 258.35 350.227 258.689 350.553 259.101C350.879 259.513 351.115 259.989 351.245 260.498C351.375 261.008 351.396 261.538 351.308 262.056C351.008 264.275 348.948 266.103 347.111 267.134C344.951 268.347 339.408 268.779 339.408 268.779Z" fill="#023A59"/>
<path d="M68.0938 149.235L68.7835 149.692" stroke="#023A59" stroke-miterlimit="10"/>
<path d="M70.1797 150.598L197.51 233.388" stroke="#023A59" stroke-miterlimit="10" stroke-dasharray="2 2"/>
<path d="M198.208 233.845L198.898 234.294L198.449 233.604" stroke="#023A59" stroke-miterlimit="10"/>
<path d="M197.552 232.217L88.3281 64.2764" stroke="#023A59" stroke-miterlimit="10" stroke-dasharray="1.98 1.98"/>
<path d="M87.8706 63.5867L87.4219 62.8887" stroke="#023A59" stroke-miterlimit="10"/>
<path d="M329.71 149.235L329.021 149.692" stroke="#023A59" stroke-miterlimit="10"/>
<path d="M327.625 150.598L200.294 233.388" stroke="#023A59" stroke-miterlimit="10" stroke-dasharray="2 2"/>
<path d="M199.595 233.845L198.897 234.294L199.355 233.604" stroke="#023A59" stroke-miterlimit="10"/>
<path d="M200.252 232.217L309.476 64.2764" stroke="#023A59" stroke-miterlimit="10" stroke-dasharray="1.98 1.98"/>
<path d="M309.925 63.5867L310.382 62.8887" stroke="#023A59" stroke-miterlimit="10"/>
<path d="M198.897 37.1113V37.9423" stroke="#023A59" stroke-miterlimit="10"/>
<path d="M198.898 39.6123V232.632" stroke="#023A59" stroke-miterlimit="10" stroke-dasharray="2.01 2.01"/>
<path d="M198.897 233.463V234.294" stroke="#023A59" stroke-miterlimit="10"/>
<path d="M200.452 58.9079C214.564 58.9079 226.005 47.4676 226.005 33.3553C226.005 19.243 214.564 7.80273 200.452 7.80273C186.34 7.80273 174.899 19.243 174.899 33.3553C174.899 47.4676 186.34 58.9079 200.452 58.9079Z" fill="#023A59" stroke="#023A59" stroke-width="2" stroke-miterlimit="10"/>
<path d="M200.452 33.3554L221.958 19.5612C218.78 14.6144 213.998 10.9115 208.413 9.07422L200.452 33.3554Z" fill="#46B2C8" stroke="#023A59" stroke-miterlimit="10"/>
<path d="M200.452 33.3558L212.493 55.8836C215.599 54.2183 218.327 51.9285 220.506 49.1581C222.685 46.3877 224.267 43.1965 225.152 39.7852C226.038 36.3739 226.209 32.8162 225.653 29.3359C225.098 25.8555 223.828 22.5276 221.925 19.5615L200.452 33.3558Z" fill="white" stroke="#023A59" stroke-miterlimit="10"/>
<path d="M324.187 80.7891C334.162 70.8134 334.162 54.6397 324.187 44.664C314.211 34.6884 298.037 34.6884 288.062 44.664C278.086 54.6397 278.086 70.8134 288.062 80.7891C298.037 90.7647 314.211 90.7647 324.187 80.7891Z" stroke="#023A59" stroke-miterlimit="10"/>
<path d="M306.119 84.8761C318.35 84.8761 328.265 74.9612 328.265 62.7305C328.265 50.4999 318.35 40.585 306.119 40.585C293.889 40.585 283.974 50.4999 283.974 62.7305C283.974 74.9612 293.889 84.8761 306.119 84.8761Z" fill="#023A59"/>
<path d="M318.858 62.7307L297.41 50.3408V75.1123L318.858 62.7307Z" fill="white"/>
<path d="M368.65 152.268C372.08 137.95 363.253 123.564 348.935 120.134C334.618 116.705 320.231 125.531 316.801 139.849C313.372 154.167 322.199 168.554 336.516 171.983C350.834 175.412 365.221 166.586 368.65 152.268Z" fill="#023A59"/>
<path d="M361.262 150.5C363.702 140.272 357.389 130.004 347.162 127.563C336.935 125.123 326.666 131.436 324.226 141.663C321.786 151.89 328.098 162.159 338.325 164.599C348.553 167.039 358.822 160.727 361.262 150.5Z" fill="white"/>
<path d="M353.825 148.694C355.283 142.554 351.488 136.395 345.348 134.937C339.209 133.479 333.049 137.274 331.591 143.414C330.133 149.553 333.928 155.712 340.068 157.17C346.208 158.629 352.367 154.834 353.825 148.694Z" fill="#023A59"/>
<path d="M348.733 147.504C349.516 144.2 347.471 140.886 344.167 140.103C340.862 139.32 337.548 141.364 336.765 144.669C335.982 147.973 338.027 151.287 341.331 152.07C344.636 152.853 347.95 150.809 348.733 147.504Z" fill="white"/>
<path d="M376.694 133.28L373.304 131.959L374.783 131.236C374.869 131.197 374.946 131.141 375.009 131.072C375.073 131.003 375.123 130.922 375.154 130.833C375.186 130.745 375.2 130.651 375.195 130.557C375.191 130.463 375.167 130.371 375.126 130.286C375.085 130.201 375.027 130.126 374.957 130.063C374.886 130.001 374.804 129.954 374.715 129.924C374.625 129.894 374.531 129.882 374.437 129.889C374.343 129.896 374.252 129.922 374.168 129.965L373.096 130.488L374.8 126.799L368.476 129.624L367.554 133.172L342.416 145.413C342.333 145.453 342.258 145.51 342.196 145.58C342.135 145.65 342.088 145.731 342.058 145.819C342.027 145.907 342.015 146 342.021 146.093C342.027 146.186 342.051 146.277 342.092 146.36C342.131 146.444 342.187 146.52 342.256 146.582C342.325 146.644 342.405 146.691 342.493 146.722C342.581 146.752 342.673 146.764 342.766 146.758C342.859 146.751 342.949 146.726 343.031 146.684L368.252 134.402L371.002 135.956L376.694 133.28Z" fill="#023A59"/>
<path d="M89.6495 88.2667C104.368 88.2667 116.299 76.3353 116.299 61.6172C116.299 46.8991 104.368 34.9678 89.6495 34.9678C74.9314 34.9678 63 46.8991 63 61.6172C63 76.3353 74.9314 88.2667 89.6495 88.2667Z" fill="white" stroke="#023A59" stroke-width="2" stroke-miterlimit="10"/>
<path d="M89.6489 88.2667C100.324 88.2667 108.977 76.3353 108.977 61.6172C108.977 46.8991 100.324 34.9678 89.6489 34.9678C78.974 34.9678 70.3203 46.8991 70.3203 61.6172C70.3203 76.3353 78.974 88.2667 89.6489 88.2667Z" fill="white" stroke="#023A59" stroke-miterlimit="10"/>
<path d="M89.6486 88.2667C94.192 88.2667 97.8752 76.3353 97.8752 61.6172C97.8752 46.8991 94.192 34.9678 89.6486 34.9678C85.1051 34.9678 81.4219 46.8991 81.4219 61.6172C81.4219 76.3353 85.1051 88.2667 89.6486 88.2667Z" fill="white" stroke="#023A59" stroke-miterlimit="10"/>
<path d="M75.5312 39.1055H104.242" stroke="#023A59" stroke-miterlimit="10"/>
<path d="M65.875 49.5508H113.382" stroke="#023A59" stroke-miterlimit="10"/>
<path d="M63.1328 59.9883H116.249" stroke="#023A59" stroke-miterlimit="10"/>
<path d="M64.3037 70.4336H114.686" stroke="#023A59" stroke-miterlimit="10"/>
<path d="M71.4844 80.8711H108.288" stroke="#023A59" stroke-miterlimit="10"/>
<path d="M54.7647 172.719C69.4828 172.719 81.4142 160.787 81.4142 146.069C81.4142 131.351 69.4828 119.42 54.7647 119.42C40.0466 119.42 28.1152 131.351 28.1152 146.069C28.1152 160.787 40.0466 172.719 54.7647 172.719Z" fill="#023A59" stroke="#023A59" stroke-width="2" stroke-miterlimit="10"/>
<path d="M71.6501 133.472H36.3086V161.75H71.6501V133.472Z" fill="white" stroke="#023A59" stroke-width="2" stroke-miterlimit="10"/>
<path d="M73.8609 133.472H34.0986V144.956H73.8609V133.472Z" fill="white" stroke="#023A59" stroke-width="2" stroke-miterlimit="10"/>
<path d="M53.9425 133.189C53.9425 133.189 45.6327 123.458 44.2117 123.923C42.7907 124.389 39.1178 130.87 41.2036 131.568C43.2893 132.266 53.9425 133.189 53.9425 133.189Z" fill="#46B2C8"/>
<path d="M54.0166 133.189C54.0166 133.189 62.3264 123.458 63.7474 123.923C65.1683 124.389 68.8496 130.87 66.7638 131.568C64.678 132.266 54.0166 133.189 54.0166 133.189Z" fill="#46B2C8"/>
<path d="M56.4933 153.348L53.9921 149.002L51.3994 153.348V133.887H56.4933V153.348Z" fill="#46B2C8"/>
<path d="M66.5645 219.485L198.806 145.055L334.289 219.485V327.388H68.1932L66.5645 219.485Z" fill="#023A59" stroke="#023A59" stroke-linecap="round" stroke-linejoin="round"/>
<path d="M299.413 165.131H101.457V341.182H299.413V165.131Z" fill="white" stroke="#023A59" stroke-miterlimit="10"/>
<path d="M124.168 195.96H274.259" stroke="#023A59" stroke-miterlimit="10"/>
<path d="M124.168 211.375H274.259" stroke="#023A59" stroke-miterlimit="10"/>
<path d="M124.168 226.789H274.259" stroke="#023A59" stroke-miterlimit="10"/>
<path d="M124.168 242.204H274.259" stroke="#023A59" stroke-miterlimit="10"/>
<path d="M124.168 257.619H274.259" stroke="#023A59" stroke-miterlimit="10"/>
<path d="M124.168 273.033H274.259" stroke="#023A59" stroke-miterlimit="10"/>
<path d="M334.289 367.956H66.5645V219.485L200.435 310.353L334.289 219.485V367.956Z" fill="#46B2C8" stroke="#023A59" stroke-miterlimit="10"/>
<path d="M66.5645 367.956L163.905 285.515" stroke="#023A59" stroke-miterlimit="10"/>
<path d="M333.865 367.956L237.247 285.382" stroke="#023A59" stroke-miterlimit="10"/>
<path d="M16.6387 367.957H382.535" stroke="#023A59" stroke-miterlimit="10"/>
</svg>
