<svg width="368" height="368" viewBox="0 0 368 368" fill="none" xmlns="http://www.w3.org/2000/svg">
<path d="M264.203 231.412H317.387V190.387H264.203V231.412Z" fill="#EBEBEB"/>
<path d="M268 227.828H274.41V220.586H268V227.828Z" fill="white"/>
<path d="M301.164 190.492H295.121V199.243H301.164V190.492Z" fill="#FAFAFA"/>
<path d="M301.164 222.537H295.121V231.288H301.164V222.537Z" fill="#FAFAFA"/>
<path d="M277.474 231.692C277.378 231.692 277.305 222.669 277.305 211.54C277.305 200.412 277.378 191.389 277.474 191.389C277.57 191.389 277.643 200.412 277.643 211.54C277.643 222.669 277.57 231.692 277.474 231.692Z" fill="#E0E0E0"/>
<path d="M242.513 302.055H334.277V231.274H242.513V302.055Z" fill="#EBEBEB"/>
<path d="M249.07 295.879H260.125V283.382H249.07V295.879Z" fill="white"/>
<path d="M306.281 231.457H295.859V246.56H306.281V231.457Z" fill="#FAFAFA"/>
<path d="M306.281 286.738H295.859V301.841H306.281V286.738Z" fill="#FAFAFA"/>
<path d="M265.419 302.539C265.257 302.539 265.125 286.973 265.125 267.771C265.125 248.568 265.257 233.002 265.419 233.002C265.581 233.002 265.706 248.568 265.706 267.771C265.706 286.973 265.581 302.539 265.419 302.539Z" fill="#E0E0E0"/>
<path d="M331.362 84.0586L336.278 94.0167L347.267 95.6138L339.318 103.371L341.195 114.316L331.362 109.149L321.529 114.316L323.406 103.371L315.457 95.6138L326.446 94.0167L331.362 84.0586Z" fill="#EBEBEB"/>
<path d="M38.6493 212.682L41.7479 218.96L48.6736 219.961L43.6615 224.848L44.8464 231.751L38.6493 228.491L32.4522 231.751L33.6372 224.848L28.625 219.961L35.5508 218.96L38.6493 212.682Z" fill="#EBEBEB"/>
<path d="M42.4906 157.99L49.3722 171.93L64.7546 174.168L53.6262 185.016L56.2538 200.34L42.4906 193.105L28.7347 200.34L31.3622 185.016L20.2266 174.168L35.609 171.93L42.4906 157.99Z" fill="#EBEBEB"/>
<path d="M326.984 129.035L329.95 135.048L336.582 136.012L331.783 140.686L332.916 147.288L326.984 144.175L321.052 147.288L322.185 140.686L317.387 136.012L324.018 135.048L326.984 129.035Z" fill="#EBEBEB"/>
<path d="M229.672 31.6992L232.638 37.705L239.269 38.6691L234.47 43.3501L235.604 49.952L229.672 46.8314L223.739 49.952L224.873 43.3501L220.074 38.6691L226.706 37.705L229.672 31.6992Z" fill="#EBEBEB"/>
<path d="M297.509 95.9824L299.452 99.9127L303.794 100.546L300.651 103.607L301.395 107.928L297.509 105.889L293.63 107.928L294.373 103.607L291.23 100.546L295.573 99.9127L297.509 95.9824Z" fill="#EBEBEB"/>
<path d="M118.439 294.48L122.222 302.135L130.672 303.364L124.556 309.326L126.005 317.745L118.439 313.771L110.881 317.745L112.323 309.326L106.207 303.364L114.664 302.135L118.439 294.48Z" fill="#EBEBEB"/>
<path d="M128.42 286.863L129.98 290.028L133.476 290.536L130.944 293.002L131.54 296.483L128.42 294.834L125.299 296.483L125.895 293.002L123.363 290.536L126.859 290.028L128.42 286.863Z" fill="#EBEBEB"/>
<path d="M267.999 257.541L271.326 264.275L278.759 265.357L273.379 270.598L274.653 278.002L267.999 274.506L261.353 278.002L262.626 270.598L257.246 265.357L264.68 264.275L267.999 257.541Z" fill="#FF993C"/>
<path d="M283.86 251.572L285.428 254.744L288.924 255.252L286.392 257.725L286.988 261.214L283.86 259.565L280.725 261.214L281.328 257.725L278.789 255.252L282.292 254.744L283.86 251.572Z" fill="#FF993C"/>
<path d="M263.078 76.293L265.698 68.1528C263.201 63.124 262.443 57.409 263.542 51.9031C264.641 46.3972 267.536 41.4114 271.772 37.7269C276.009 34.0424 281.348 31.8674 286.953 31.5425C292.558 31.2177 298.113 32.7614 302.746 35.9318C307.38 39.1022 310.831 43.7202 312.559 49.0623C314.287 54.4043 314.194 60.1687 312.295 65.4523C310.396 70.7358 306.797 75.2401 302.064 78.2594C297.33 81.2786 291.728 82.6423 286.137 82.1368C280.68 81.7652 275.518 79.5306 271.512 75.8072L263.078 76.293Z" fill="#FAFAFA"/>
<path d="M263.076 76.2929L263.635 76.2487L265.262 76.1309L271.511 75.7041C274.608 78.5687 278.423 80.5422 282.551 81.4154C283.825 81.6986 285.119 81.8832 286.422 81.9674L288.483 82.0484C289.175 82.0484 289.889 81.9674 290.602 81.9306C297.059 81.3447 303.042 78.2953 307.31 73.4151C309.715 70.7043 311.5 67.502 312.543 64.0311C313.61 60.3221 313.827 56.42 313.176 52.6157C313.014 51.6377 312.788 50.6715 312.498 49.7233C312.368 49.243 312.208 48.771 312.02 48.3101C311.836 47.8391 311.674 47.3681 311.475 46.9044C310.656 45.0325 309.618 43.2637 308.384 41.6346C307.769 40.8225 307.103 40.0506 306.39 39.3236C306.043 38.9529 305.675 38.6038 305.286 38.2785C304.91 37.9473 304.55 37.5866 304.152 37.2849L302.945 36.3869L302.342 35.9453L301.694 35.5626L300.421 34.8266C299.986 34.5837 299.53 34.3997 299.089 34.1789C295.706 32.5781 292.007 31.7564 288.265 31.7742C284.523 31.792 280.832 32.649 277.465 34.282C271.63 37.0842 267.099 42.0264 264.813 48.082C264.688 48.4205 264.57 48.7591 264.452 49.0903C264.319 49.4171 264.213 49.7544 264.136 50.0986C263.967 50.7757 263.805 51.4455 263.643 52.1005C263.419 53.384 263.267 54.6789 263.186 55.9793C263.022 60.1856 263.907 64.3668 265.762 68.1453L263.79 74.1658L263.267 75.7261C263.15 76.0794 263.083 76.2634 263.083 76.2634C263.083 76.2634 263.128 76.0941 263.238 75.7482L263.709 74.2026L265.601 68.1012V68.1601C263.696 64.3745 262.774 60.1704 262.921 55.9351C262.991 54.6202 263.136 53.3104 263.356 52.0122C263.518 51.3498 263.687 50.6727 263.849 49.9882C263.927 49.6402 264.03 49.2983 264.158 48.9652C264.283 48.6266 264.401 48.2881 264.526 47.9421C265.755 44.6405 267.656 41.63 270.109 39.1013C272.562 36.5725 275.514 34.5806 278.776 33.2515C282.039 31.9225 285.542 31.2853 289.064 31.3804C292.586 31.4754 296.049 32.3005 299.236 33.8036C299.685 34.017 300.148 34.2084 300.59 34.4586L301.885 35.2314L302.533 35.6215L303.151 36.0705L304.373 36.9757C304.778 37.2922 305.146 37.6529 305.529 37.9841C305.921 38.3164 306.294 38.6702 306.647 39.0439C307.371 39.7858 308.047 40.5724 308.671 41.3991C309.929 43.0375 310.989 44.8187 311.829 46.7057C312.027 47.1767 312.189 47.6625 312.373 48.1335C312.568 48.6133 312.733 49.105 312.866 49.6055C313.158 50.5706 313.384 51.5542 313.544 52.5495C314.208 56.4102 313.987 60.3716 312.896 64.1341C311.851 67.6711 310.044 70.9367 307.604 73.7021C303.271 78.6286 297.211 81.701 290.676 82.2839C289.94 82.2839 289.204 82.3869 288.527 82.3869L286.444 82.2986C285.129 82.2066 283.822 82.0147 282.536 81.7245C278.393 80.8173 274.576 78.7968 271.496 75.8807H271.555L265.247 76.2119L263.643 76.2855C263.253 76.2929 263.076 76.2929 263.076 76.2929Z" fill="#263238"/>
<path d="M274.02 55.9355L278.193 52.3144L285.221 59.5345L300.987 46.4043L304.321 50.5627L284.125 67.0049L274.02 55.9355Z" fill="#81DD6A"/>
<path d="M219.412 257.224L78.2771 288.68C77.4602 288.867 76.6145 288.89 75.7885 288.749C74.9626 288.607 74.1729 288.304 73.4648 287.856C72.7567 287.407 72.1443 286.824 71.6629 286.138C71.1814 285.452 70.8404 284.678 70.6595 283.859L24.8877 78.3315C24.7053 77.5171 24.6854 76.6748 24.8292 75.8527C24.9729 75.0307 25.2774 74.2451 25.7252 73.5409C26.173 72.8367 26.7553 72.2277 27.4389 71.7489C28.1224 71.2702 28.8936 70.9309 29.7085 70.7507L170.844 39.2941C171.659 39.1116 172.501 39.0917 173.324 39.2353C174.147 39.3789 174.933 39.6833 175.637 40.1311C176.342 40.5788 176.952 41.1612 177.431 41.8447C177.911 42.5283 178.251 43.2997 178.432 44.1149L224.233 249.643C224.416 250.457 224.436 251.3 224.292 252.122C224.148 252.944 223.844 253.729 223.396 254.434C222.948 255.138 222.366 255.747 221.682 256.225C220.999 256.704 220.227 257.043 219.412 257.224Z" fill="#E0E0E0"/>
<path d="M219.411 257.224L219.882 257.092C220.339 256.943 220.781 256.748 221.199 256.511C221.886 256.107 222.492 255.581 222.988 254.958C223.663 254.104 224.107 253.089 224.276 252.014C224.382 251.363 224.382 250.699 224.276 250.048C224.158 249.364 223.974 248.643 223.812 247.892C223.474 246.42 223.076 244.742 222.708 242.961C221.908 239.394 220.988 235.289 219.948 230.647C215.804 212.122 209.813 185.317 202.409 152.19C198.729 135.63 194.667 117.487 190.317 98.0056C188.148 88.2707 185.903 78.2121 183.582 67.8296C182.429 62.6383 181.257 57.3759 180.064 52.0424C179.461 49.3781 178.865 46.6917 178.254 43.9905C177.922 42.6442 177.147 41.4485 176.054 40.5955C174.961 39.7426 173.612 39.2819 172.226 39.2875C171.534 39.3028 170.847 39.4017 170.18 39.5819L168.119 40.0382L163.975 40.9656L155.614 42.8277L138.598 46.6254L103.535 54.4638L29.7583 70.8913C28.1989 71.237 26.8325 72.17 25.9429 73.4968C25.0534 74.8235 24.7092 76.4419 24.9817 78.0158C25.6515 81.1438 26.3727 84.2792 27.0572 87.3998C28.4507 93.6313 29.8319 99.8259 31.2009 105.984L39.2969 142.35C44.6108 166.189 49.7334 189.152 54.6131 211.085C59.4927 233.017 64.1222 253.773 68.4646 273.284C69.0043 275.737 69.5416 278.151 70.0764 280.526C70.3487 281.719 70.5916 282.926 70.8787 284.096C71.1878 285.248 71.8213 286.288 72.7039 287.091C73.5809 287.883 74.6619 288.413 75.8246 288.622C76.4012 288.716 76.9877 288.734 77.5689 288.674C78.143 288.6 78.7244 288.46 79.2985 288.328L86.1507 286.804L112.154 281.019L190.626 263.583L211.97 258.858L217.519 257.637L219.411 257.224L217.527 257.666L211.977 258.917L190.633 263.694L112.176 281.233L86.2022 287.04L79.35 288.571C78.7759 288.696 78.2019 288.843 77.5983 288.924C76.9949 288.985 76.386 288.966 75.7878 288.865C74.5701 288.654 73.4382 288.099 72.5255 287.265C71.6127 286.432 70.9571 285.355 70.6358 284.162C70.3414 282.977 70.0985 281.785 69.8262 280.592C69.2914 278.203 68.7516 275.789 68.207 273.35C63.8646 253.868 59.2204 233.054 54.3334 211.151C49.4463 189.247 44.3238 166.255 39.0025 142.416L30.9065 106.057C29.5375 99.9045 28.1563 93.7049 26.7628 87.4587C26.071 84.3381 25.3571 81.2174 24.6799 78.06C24.3966 76.4112 24.7593 74.7166 25.6927 73.3282C26.626 71.9398 28.0583 70.9643 29.6921 70.6043L103.476 54.1547L138.561 46.3678L155.57 42.5774L163.931 40.7153L168.082 39.7438L170.143 39.2875C170.824 39.1111 171.523 39.0172 172.226 39.0078C173.662 39.0112 175.057 39.4925 176.19 40.3761C177.322 41.2596 178.129 42.495 178.482 43.8875C179.085 46.596 179.689 49.275 180.285 51.9467C181.487 57.2851 182.67 62.5402 183.833 67.7118C186.134 78.0894 188.374 88.1481 190.552 97.8878C194.887 117.37 198.921 135.512 202.608 152.079C209.968 185.199 215.93 212.027 220.051 230.559C221.074 235.189 221.987 239.31 222.782 242.872C223.172 244.661 223.518 246.302 223.871 247.811C224.033 248.547 224.217 249.283 224.327 249.967C224.438 250.625 224.438 251.297 224.327 251.955C224.159 253.05 223.708 254.083 223.017 254.95C222.515 255.572 221.904 256.099 221.214 256.503C220.79 256.742 220.341 256.932 219.874 257.07L219.411 257.224Z" fill="#263238"/>
<g opacity="0.3">
<path d="M85.4299 281.402L214.024 252.006L209.961 226.805L202.667 212.682L79.6523 261L85.4299 281.402Z" fill="black"/>
</g>
<g opacity="0.3">
<path d="M139.121 46.832L143.986 54.8618L144.928 59.1232L141.631 59.8592L139.121 46.832Z" fill="black"/>
</g>
<path d="M32.2109 79.5251L76.8273 279.717L216.675 248.555L208.696 212.756L172.058 48.3555L32.2109 79.5251Z" fill="white"/>
<path d="M32.2105 79.5237L172.05 48.2363H172.168V48.3614C184.577 103.996 200.055 173.423 216.807 248.553V248.708H216.659L76.8194 279.863H76.687V279.723C50.4191 161.507 32.4754 80.7234 32.2031 79.531C32.4754 80.7528 50.5369 161.514 76.9593 279.723L76.79 279.62L216.63 248.436L216.512 248.62C199.783 173.504 184.32 104.077 171.933 48.4277L172.08 48.5234L32.2105 79.5237Z" fill="#263238"/>
<path d="M71.5891 55.7044L133.263 41.9639C134.469 41.6952 135.732 41.9166 136.775 42.5794C137.818 43.2422 138.554 44.2921 138.823 45.4982L142.386 61.4895L71.6033 77.2594L68.0437 61.2825C67.9082 60.6833 67.8926 60.0633 67.9976 59.458C68.1027 58.8528 68.3265 58.2743 68.656 57.7559C68.9855 57.2374 69.4143 56.7893 69.9177 56.4372C70.4211 56.0851 70.9891 55.8361 71.5891 55.7044Z" fill="#263238"/>
<path d="M109.717 39.1191L91.707 43.1303L97.2491 58.1006L110.814 55.0756L109.717 39.1191Z" fill="#263238"/>
<path d="M133.263 41.952C133.263 42.033 119.493 45.1757 102.469 48.9735C85.4453 52.7712 71.6159 55.7962 71.5938 55.7152C71.5717 55.6343 85.3643 52.4915 102.403 48.6938C119.441 44.896 133.219 41.8931 133.263 41.952Z" fill="#455A64"/>
<path d="M72.4681 73.5993C72.3872 73.5993 71.6732 70.7289 70.8784 67.1519C70.0835 63.575 69.4947 60.6531 69.583 60.631C69.6713 60.6089 70.3779 63.5014 71.1728 67.0857C71.9676 70.67 72.5491 73.5993 72.4681 73.5993Z" fill="#455A64"/>
<path d="M139.01 57.1432C138.419 55.2071 137.927 53.2418 137.538 51.2552C137.051 49.3135 136.663 47.3483 136.375 45.3672C136.965 47.2912 137.456 49.2442 137.847 51.2184C138.335 53.1722 138.723 55.1497 139.01 57.1432Z" fill="#455A64"/>
<path d="M136.206 60.6383C136.206 60.7192 122.068 63.9429 104.595 67.8364C87.1224 71.7298 72.947 74.8284 72.9102 74.74C72.8734 74.6517 87.0414 71.4354 104.558 67.542C122.075 63.6485 136.162 60.5573 136.206 60.6383Z" fill="#455A64"/>
<path d="M98.9585 118.871C98.9585 118.96 89.4273 121.153 77.6145 123.788C65.8017 126.423 56.2705 128.476 56.219 128.395C56.1674 128.314 65.787 126.114 77.563 123.486C89.339 120.859 98.9364 118.79 98.9585 118.871Z" fill="#263238"/>
<path d="M170.137 110.856C170.137 110.945 145.209 116.575 114.422 123.435C83.6347 130.294 58.6475 135.792 58.6328 135.711C58.6181 135.63 83.5538 129.992 114.355 123.133C145.157 116.273 170.122 110.775 170.137 110.856Z" fill="#263238"/>
<path d="M171.675 117.759C171.675 117.84 146.74 123.471 115.953 130.337C85.166 137.204 60.1862 142.695 60.1641 142.607C60.142 142.518 85.0924 136.895 115.887 130.036C146.681 123.176 171.653 117.656 171.675 117.759Z" fill="#263238"/>
<path d="M173.207 124.62C173.207 124.701 148.278 130.331 117.491 137.191C86.7046 144.05 61.7174 149.556 61.6953 149.467C61.6732 149.379 86.6236 143.756 117.425 136.889C148.227 130.022 173.185 124.539 173.207 124.62Z" fill="#263238"/>
<path d="M174.734 131.501C174.734 131.582 149.806 137.212 119.019 144.072C88.2324 150.931 63.2452 156.429 63.2305 156.348C63.2158 156.267 88.1514 150.637 118.953 143.77C149.755 136.903 174.72 131.413 174.734 131.501Z" fill="#263238"/>
<path d="M176.274 138.368C176.274 138.456 151.338 144.087 120.551 150.946C89.7641 157.806 64.7695 163.311 64.7695 163.23C64.7695 163.149 89.6979 157.519 120.492 150.652C151.286 143.785 176.251 138.294 176.274 138.368Z" fill="#263238"/>
<path d="M86.388 186.804C86.3581 186.73 86.3359 186.654 86.3217 186.575L86.1598 185.92C86.02 185.324 85.8213 184.492 85.5784 183.455C85.0853 181.328 84.3934 178.34 83.5691 174.763L83.731 174.866L71.6606 177.574C71.6606 177.574 71.8814 177.228 71.7784 177.39V177.442V177.545L71.8225 177.751L71.9182 178.163L72.0949 178.98C72.22 179.524 72.3377 180.062 72.4555 180.599C72.691 181.659 72.9265 182.704 73.1473 183.72C73.5963 185.744 74.0158 187.657 74.4059 189.416L74.244 189.313L82.9656 187.436L85.4459 186.921L86.1083 186.796L86.3438 186.752C86.3438 186.752 86.2849 186.752 86.1377 186.818L85.5121 186.973L83.0833 187.547L74.3397 189.63H74.2072V189.497L72.9265 183.808C72.6984 182.792 72.4629 181.747 72.1905 180.687C72.0728 180.15 71.9477 179.613 71.8299 179.068C71.7637 178.803 71.7048 178.524 71.6459 178.251L71.5502 177.839L71.5061 177.633V177.53V177.478V177.442C71.403 177.611 71.6459 177.221 71.6238 177.258L83.7016 174.586H83.8341V174.718L85.7329 183.55C85.9464 184.581 86.1157 185.405 86.2408 185.994C86.2923 186.259 86.3291 186.465 86.3659 186.634C86.3806 186.689 86.388 186.746 86.388 186.804Z" fill="#263238"/>
<path d="M176.104 157.047L91.8945 175.809L93.4598 182.834L177.669 164.073L176.104 157.047Z" fill="#E0E0E0"/>
<path d="M91.0515 207.75C91.0238 207.673 91.0017 207.594 90.9853 207.514C90.9411 207.345 90.8896 207.124 90.8234 206.859C90.6835 206.263 90.4848 205.439 90.2419 204.401C89.7488 202.267 89.057 199.249 88.2326 195.701L88.3946 195.804L76.3242 198.513C76.3242 198.557 76.545 198.167 76.4419 198.336V198.373V198.425V198.528L76.4861 198.734L76.5818 199.146C76.6407 199.426 76.6995 199.698 76.7658 199.97L77.119 201.582C77.3546 202.649 77.5901 203.687 77.8109 204.703C78.2599 206.727 78.6794 208.64 79.0695 210.399L78.9075 210.296L87.6365 208.427L90.1095 207.912L90.7719 207.779C90.8487 207.758 90.9277 207.745 91.0074 207.742L90.8086 207.801L90.1757 207.956L87.7469 208.537L78.9664 210.561H78.8339V210.429L77.5533 204.74C77.3251 203.724 77.0896 202.679 76.8173 201.619C76.6995 201.089 76.5744 200.544 76.4566 200.007C76.3978 199.735 76.3315 199.462 76.2726 199.183L76.177 198.771L76.1328 198.564V198.461V198.373L76.2506 198.182L88.321 195.547H88.4535V195.672C89.2336 199.3 89.9255 202.296 90.3523 204.504C90.5658 205.534 90.735 206.359 90.8602 206.948C90.9117 207.212 90.9485 207.419 90.9853 207.588C91.0143 207.639 91.0365 207.693 91.0515 207.75Z" fill="#263238"/>
<path d="M180.768 177.995L96.5586 196.756L98.1239 203.782L182.333 185.02L180.768 177.995Z" fill="#E0E0E0"/>
<path d="M95.7198 228.69C95.7198 228.69 95.7199 228.602 95.6536 228.455C95.5874 228.308 95.5579 228.065 95.4917 227.8C95.3518 227.204 95.1531 226.379 94.9102 225.341C94.4171 223.214 93.7253 220.189 92.901 216.642L93.0629 216.745L80.963 219.453C80.963 219.498 81.1838 219.108 81.0808 219.277V219.328V219.38V219.483L81.125 219.689L81.2206 220.101C81.2795 220.381 81.3384 220.653 81.4046 220.925L81.7579 222.537C81.9934 223.604 82.229 224.642 82.4498 225.658L83.7083 231.355L83.5464 231.259L92.2754 229.382L94.7483 228.867L95.4107 228.734C95.489 228.726 95.568 228.726 95.6462 228.734L95.4475 228.793L94.8146 228.948L92.3858 229.529L83.6053 231.553H83.4728V231.421C83.0827 229.669 82.6485 227.741 82.1922 225.732C81.964 224.716 81.7285 223.678 81.4562 222.611C81.3384 222.081 81.2133 221.544 81.0955 220.999C81.0366 220.727 80.9704 220.454 80.9115 220.182L80.8232 219.77L80.7717 219.564V219.453V219.328C80.6686 219.49 80.9115 219.1 80.8894 219.144L92.9672 216.473H93.0997V216.605L94.9986 225.437C95.212 226.468 95.3813 227.292 95.5064 227.888C95.5579 228.146 95.6021 228.352 95.6315 228.521C95.6686 228.573 95.6984 228.63 95.7198 228.69Z" fill="#263238"/>
<path d="M185.44 198.942L101.23 217.703L102.796 224.729L187.005 205.968L185.44 198.942Z" fill="#E0E0E0"/>
<path d="M74.7852 182.483L76.0511 180.488L79.812 182.578L84.6549 175.277L86.5244 176.573L80.2831 185.773L74.7852 182.483Z" fill="#81DD6A"/>
<path d="M79.2969 202.723L80.5628 200.728L84.3238 202.819L89.1593 195.518L91.0361 196.813L84.7874 206.006L79.2969 202.723Z" fill="#81DD6A"/>
<path d="M83.9297 223.472L85.1956 221.484L88.9492 223.575L93.7921 216.273L95.6615 217.561L89.4202 226.761L83.9297 223.472Z" fill="#81DD6A"/>
<path d="M122.473 249.505C122.473 249.593 115.378 251.249 106.59 253.185C97.8024 255.12 90.6632 256.658 90.6485 256.577C90.6337 256.497 97.7361 254.841 106.524 252.897C115.312 250.954 122.451 249.431 122.473 249.505Z" fill="#263238"/>
<path d="M138.326 245.721C136.405 246.313 134.454 246.804 132.482 247.193C130.54 247.676 128.574 248.062 126.594 248.349C128.513 247.758 130.461 247.267 132.43 246.877C135.661 246.163 138.311 245.64 138.326 245.721Z" fill="#263238"/>
<path d="M190.833 229.197C190.833 229.278 184.452 230.779 176.547 232.538C168.643 234.297 162.21 235.659 162.195 235.578C162.181 235.497 168.569 234.003 176.481 232.236C184.393 230.47 190.818 229.116 190.833 229.197Z" fill="#263238"/>
<path d="M184.004 248.569C184.004 248.569 184.07 248.37 184.144 247.988C184.241 247.421 184.211 246.841 184.055 246.288C183.794 245.412 183.454 244.563 183.04 243.748C182.453 242.668 182.109 241.472 182.031 240.245C182.049 239.49 182.224 238.747 182.546 238.064C182.868 237.38 183.329 236.772 183.901 236.278C184.57 235.722 185.371 235.347 186.226 235.189C187.082 235.03 187.964 235.094 188.788 235.373C189.693 235.648 190.5 236.177 191.114 236.896C191.44 237.284 191.634 237.766 191.666 238.273C191.674 238.545 191.595 238.812 191.44 239.036C191.285 239.26 191.062 239.428 190.804 239.516C190.323 239.672 189.831 239.793 189.332 239.877L187.86 240.179C186.874 240.377 185.873 240.554 184.843 240.687C182.847 240.975 180.821 240.987 178.822 240.723C177.919 240.529 176.976 240.681 176.18 241.15C175.548 241.788 175.012 242.514 174.59 243.307C174.334 243.697 173.978 244.012 173.56 244.219C173.134 244.407 172.654 244.428 172.213 244.278C171.456 243.941 170.736 243.527 170.064 243.042C169.752 242.834 169.397 242.701 169.026 242.652C168.679 242.613 168.329 242.699 168.04 242.895C167.531 243.36 167.11 243.914 166.796 244.529C166.461 245.056 166.004 245.494 165.463 245.807C164.923 246.12 164.314 246.297 163.69 246.324C162.746 246.362 161.824 246.035 161.114 245.412C160.668 245.026 160.318 244.543 160.091 243.999C160.012 243.812 159.955 243.617 159.922 243.417C159.922 243.417 159.988 243.616 160.15 243.977C160.389 244.497 160.744 244.955 161.188 245.316C161.88 245.902 162.77 246.202 163.675 246.155C164.271 246.125 164.85 245.95 165.363 245.646C165.875 245.342 166.307 244.918 166.619 244.411C166.943 243.767 167.382 243.188 167.915 242.703C168.25 242.47 168.657 242.363 169.063 242.401C169.466 242.461 169.852 242.604 170.196 242.821C170.857 243.289 171.562 243.69 172.301 244.021C172.68 244.148 173.092 244.129 173.457 243.969C173.831 243.783 174.145 243.495 174.362 243.137C174.8 242.324 175.355 241.58 176.011 240.929C176.418 240.638 176.896 240.461 177.395 240.414C177.884 240.362 178.377 240.362 178.867 240.414C180.844 240.67 182.847 240.658 184.821 240.377C185.836 240.245 186.83 240.061 187.816 239.87L189.288 239.575C189.761 239.488 190.228 239.372 190.687 239.229C190.888 239.165 191.064 239.037 191.186 238.865C191.308 238.692 191.371 238.484 191.364 238.273C191.33 237.832 191.161 237.413 190.878 237.073C190.297 236.382 189.531 235.871 188.67 235.601C187.889 235.336 187.054 235.274 186.243 235.42C185.432 235.567 184.671 235.918 184.033 236.44C183.485 236.907 183.04 237.483 182.729 238.132C182.417 238.781 182.244 239.488 182.223 240.208C182.289 241.408 182.61 242.58 183.165 243.645C183.572 244.471 183.9 245.334 184.144 246.221C184.288 246.79 184.3 247.384 184.18 247.958C184.146 248.168 184.087 248.373 184.004 248.569Z" fill="#263238"/>
<path d="M199.216 239.149C199.092 239.199 198.963 239.238 198.833 239.266L197.714 239.531L193.607 240.481C190.148 241.29 185.364 242.424 180.102 243.756C174.839 245.088 170.092 246.376 166.67 247.318L162.607 248.437L161.496 248.731C161.368 248.771 161.238 248.801 161.105 248.82C161.224 248.755 161.35 248.706 161.481 248.673L162.57 248.327C163.52 248.025 164.896 247.591 166.603 247.112C170.026 246.111 174.758 244.794 180.028 243.432C185.298 242.071 190.082 240.996 193.563 240.253C195.3 239.877 196.713 239.583 197.692 239.392L198.818 239.178C198.949 239.156 199.082 239.147 199.216 239.149Z" fill="#263238"/>
<path d="M138.846 77.6533L81.6836 90.3887L84.0764 101.129L141.238 88.3932L138.846 77.6533Z" fill="#E0E0E0"/>
<path d="M192.918 251.941L211.384 349.506L228.261 318.321L260.247 337.097L226.296 242.094L192.918 251.941Z" fill="#46B2C8"/>
<g opacity="0.3">
<path d="M199.13 284.751C200.888 285.083 202.7 284.982 204.411 284.457C206.121 283.933 207.678 283.001 208.948 281.741C210.634 280.004 211.753 277.634 213.872 276.471C215.778 275.426 218.126 275.574 220.224 276.155C222.322 276.736 224.294 277.701 226.392 278.245C228.461 278.773 230.615 278.883 232.728 278.57C234.841 278.256 236.87 277.525 238.698 276.42L233.369 261.626L208.639 258.535L196.863 272.703L199.13 284.751Z" fill="black"/>
</g>
<path d="M227.064 314.45C226.961 314.45 224.209 304.337 220.919 291.818C217.629 279.298 215.031 269.112 215.148 269.09C215.266 269.068 217.997 279.188 221.287 291.722C224.577 304.256 227.167 314.42 227.064 314.45Z" fill="#263238"/>
<path d="M195.622 257.012L177.156 354.576L160.28 323.399L128.293 342.167L162.245 247.164L195.622 257.012Z" fill="#46B2C8"/>
<g opacity="0.3">
<path d="M152.086 275.581C152.086 275.581 157.341 279.901 163.604 277.914C169.868 275.927 173.761 275.5 177.154 277.914C180.547 280.328 189.725 288.181 189.725 288.181L191.852 276.928L179.524 260L166.659 262.598L157.503 263.489L154.095 269.943L152.086 275.581Z" fill="black"/>
</g>
<path d="M303.895 168.942C303.895 175.941 294.953 181.969 293.643 188.585C292.296 195.401 298.228 204.387 295.63 210.665C293.032 216.943 282.382 219.196 278.606 224.87C274.831 230.545 276.818 241.173 271.982 246.015C267.147 250.858 256.526 248.82 250.837 252.639C245.148 256.459 243.013 267.014 236.632 269.663C230.361 272.261 221.375 266.329 214.552 267.676C207.928 268.986 201.908 277.928 194.908 277.928C187.909 277.928 181.874 268.986 175.257 267.676C168.442 266.329 159.455 272.261 153.177 269.663C146.899 267.065 144.654 256.415 138.98 252.639C133.305 248.864 122.677 250.851 117.827 246.015C112.977 241.18 115.023 230.559 111.203 224.87C107.383 219.181 96.8289 217.046 94.1867 210.665C91.5445 204.284 97.5208 195.408 96.1739 188.585C94.8638 181.961 85.9141 175.941 85.9141 168.942C85.9141 161.942 94.8638 155.907 96.1739 149.29C97.5208 142.475 91.5813 133.488 94.1867 127.21C96.7921 120.932 107.435 118.68 111.203 113.013C114.971 107.346 112.991 96.7105 117.827 91.8602C122.663 87.01 133.283 89.0561 138.98 85.2362C144.676 81.4164 146.796 70.8621 153.177 68.2199C159.558 65.5777 168.434 71.554 175.257 70.2071C181.881 68.897 187.909 59.9473 194.908 59.9473C201.908 59.9473 207.936 68.897 214.552 70.2071C221.368 71.554 230.354 65.6145 236.632 68.2199C243.013 70.8621 245.162 81.4679 250.837 85.2362C256.511 89.0045 267.139 87.0247 271.982 91.8602C276.825 96.6957 274.786 107.316 278.606 113.013C282.426 118.71 292.98 120.829 295.63 127.21C298.28 133.591 292.296 142.468 293.643 149.29C294.953 155.907 303.895 161.92 303.895 168.942Z" fill="#46B2C8"/>
<path d="M169.405 107.846C169.405 107.846 169.324 107.751 169.207 107.545C169.089 107.339 168.905 107.007 168.706 106.647C168.272 105.867 167.676 104.718 166.969 103.291C165.549 100.435 163.709 96.4163 161.935 91.8825C160.161 87.3487 158.8 83.1388 157.909 80.1065C157.467 78.5683 157.129 77.3244 156.915 76.4265C156.82 76.0291 156.739 75.6905 156.68 75.4255C156.642 75.3116 156.622 75.1924 156.621 75.0723C156.678 75.1796 156.723 75.2932 156.754 75.4108L157.055 76.3897C157.342 77.295 157.718 78.5167 158.167 79.9961C159.123 83.0358 160.529 87.2089 162.288 91.7721C164.047 96.3353 165.858 100.317 167.212 103.202L168.839 106.61L169.273 107.537C169.326 107.636 169.371 107.74 169.405 107.846Z" fill="#263238"/>
<path d="M179.105 104.159C178.977 103.902 178.88 103.63 178.818 103.35C178.664 102.82 178.458 102.047 178.215 101.09C177.729 99.1838 177.126 96.5195 176.581 93.5608C176.036 90.6021 175.654 87.901 175.433 85.9432C175.315 84.9643 175.241 84.1694 175.197 83.6174C175.163 83.3339 175.163 83.0473 175.197 82.7637C175.282 83.0369 175.339 83.318 175.367 83.6027L175.72 85.9064C176.014 87.8568 176.456 90.5432 176.978 93.4946C177.501 96.4459 178.082 99.1102 178.495 101.031C178.693 101.929 178.855 102.695 178.988 103.313C179.055 103.59 179.094 103.874 179.105 104.159Z" fill="#263238"/>
<path d="M196.219 102.459C196.109 102.459 195.836 94.2007 195.608 84.0218C195.38 73.843 195.277 65.5777 195.38 65.5703C195.483 65.563 195.763 73.8209 195.991 84.0145C196.219 94.2081 196.322 102.459 196.219 102.459Z" fill="#263238"/>
<path d="M213.44 85.4943C213.543 85.4943 212.35 89.6527 210.783 94.7164C209.215 99.7801 207.839 103.85 207.765 103.821C207.691 103.791 208.854 99.6623 210.422 94.5986C211.99 89.5349 213.329 85.4649 213.44 85.4943Z" fill="#263238"/>
<path d="M220.461 106.83C220.475 106.709 220.508 106.59 220.557 106.477L220.888 105.506C221.182 104.667 221.624 103.459 222.213 101.973C223.368 99.0288 225.017 94.9145 226.901 90.4249C228.785 85.9353 230.537 81.8947 231.825 78.9801C232.458 77.567 232.98 76.4041 233.378 75.5357L233.812 74.6083C233.922 74.4022 233.981 74.2918 233.996 74.2992C233.969 74.415 233.932 74.5283 233.886 74.6377L233.51 75.5945L232.075 79.0905C230.816 82.0787 229.131 86.112 227.254 90.5795C225.377 95.047 223.714 99.0803 222.463 102.076L221.028 105.564L220.623 106.507C220.582 106.621 220.528 106.729 220.461 106.83Z" fill="#263238"/>
<path d="M229.633 111.63C229.745 111.37 229.885 111.123 230.052 110.894C230.347 110.423 230.788 109.753 231.333 108.936C232.437 107.31 234.027 105.087 235.874 102.717C237.721 100.347 239.495 98.3011 240.805 96.8291C241.46 96.0931 242.005 95.5116 242.388 95.1142C242.572 94.8937 242.782 94.696 243.013 94.5254C242.871 94.7765 242.698 95.0089 242.498 95.2172C242.101 95.703 241.6 96.2992 241.026 97.0057C239.768 98.5219 238.038 100.619 236.191 102.989C234.343 105.359 232.731 107.545 231.568 109.135L230.192 111.012C230.028 111.237 229.84 111.444 229.633 111.63Z" fill="#263238"/>
<path d="M243.04 122.596C242.966 122.522 248.795 116.987 256.045 110.238C263.294 103.489 269.241 98.0795 269.293 98.1531C269.344 98.2267 263.545 103.769 256.288 110.518C249.031 117.267 243.113 122.677 243.04 122.596Z" fill="#263238"/>
<path d="M266.431 124.885C265.722 125.334 264.984 125.737 264.223 126.092C262.84 126.828 260.963 127.851 258.887 129.036C256.812 130.221 254.898 131.207 253.478 131.869C252.742 132.201 252.197 132.458 251.785 132.605C251.583 132.71 251.368 132.785 251.145 132.826C251.854 132.377 252.592 131.974 253.353 131.619C254.736 130.883 256.613 129.86 258.689 128.675C260.764 127.49 262.678 126.467 264.098 125.842C264.834 125.51 265.379 125.253 265.791 125.106C265.991 124.998 266.207 124.923 266.431 124.885Z" fill="#263238"/>
<path d="M288.063 133.856C288.1 133.959 281.167 136.491 272.607 139.516C264.048 142.541 257.033 144.904 257.004 144.808C256.975 144.712 263.893 142.173 272.46 139.148C281.027 136.123 288.026 133.761 288.063 133.856Z" fill="#263238"/>
<path d="M294.953 173.21C294.953 173.313 287.409 172.688 278.128 171.804C268.847 170.921 261.325 170.119 261.34 170.008C261.355 169.898 268.877 170.538 278.165 171.422C287.453 172.305 294.96 173.107 294.953 173.21Z" fill="#263238"/>
<path d="M289.408 208.509C289.364 208.605 282.321 205.366 273.68 201.289C265.039 197.211 258.069 193.818 258.113 193.723C258.158 193.627 265.201 196.858 273.842 200.943C282.482 205.028 289.452 208.413 289.408 208.509Z" fill="#263238"/>
<path d="M266.239 242.094C266.158 242.16 261.087 236.264 254.897 228.934C248.707 221.603 243.761 215.59 243.857 215.524C243.953 215.458 249.009 221.346 255.199 228.684C261.388 236.022 266.32 242.02 266.239 242.094Z" fill="#263238"/>
<path d="M246.898 246.56C246.669 246.305 246.464 246.029 246.287 245.736C245.912 245.191 245.382 244.389 244.749 243.395C243.468 241.401 241.753 238.611 239.943 235.483C238.132 232.355 236.586 229.47 235.527 227.387C234.989 226.335 234.555 225.481 234.275 224.885C234.109 224.582 233.971 224.264 233.863 223.936C234.071 224.21 234.254 224.503 234.408 224.811C234.761 225.459 235.218 226.283 235.77 227.262C236.91 229.33 238.5 232.186 240.303 235.314C242.106 238.442 243.785 241.246 245.006 243.27C245.58 244.242 246.066 245.044 246.442 245.677C246.626 245.954 246.779 246.25 246.898 246.56Z" fill="#263238"/>
<path d="M234.888 263.415C234.888 263.415 234.814 263.319 234.697 263.113L234.218 262.215C233.799 261.428 233.232 260.28 232.555 258.852C231.201 255.989 229.456 251.97 227.8 247.422C226.144 242.873 224.893 238.678 224.12 235.646C223.716 234.115 223.384 232.864 223.222 232.003C223.141 231.605 223.075 231.267 223.016 231.002C222.987 230.886 222.97 230.768 222.965 230.648C223.025 230.754 223.067 230.868 223.09 230.987L223.37 231.966C223.627 232.879 223.966 234.093 224.378 235.572C225.246 238.612 226.534 242.792 228.19 247.348C229.846 251.904 231.539 255.901 232.835 258.793L234.38 262.201C234.542 262.569 234.682 262.878 234.8 263.128C234.841 263.22 234.871 263.316 234.888 263.415Z" fill="#263238"/>
<path d="M210.556 251.572C210.397 250.726 210.291 249.87 210.24 249.011C210.07 247.428 209.798 245.243 209.401 242.851C209.003 240.459 208.539 238.309 208.186 236.756C207.955 235.925 207.778 235.079 207.656 234.225C207.766 234.429 207.85 234.647 207.906 234.872C208.054 235.299 208.238 235.917 208.451 236.69C208.871 238.228 209.371 240.37 209.776 242.792C210.128 244.843 210.374 246.912 210.512 248.989C210.563 249.784 210.593 250.461 210.593 250.88C210.612 251.112 210.599 251.344 210.556 251.572Z" fill="#263238"/>
<path d="M194.634 272.762C194.617 272.637 194.617 272.511 194.634 272.386C194.634 272.092 194.634 271.731 194.634 271.304C194.634 270.362 194.634 269.001 194.634 267.323C194.693 263.959 194.847 259.322 195.112 254.207C195.377 249.092 195.708 244.455 195.981 241.106C196.113 239.428 196.238 238.074 196.334 237.139C196.386 236.712 196.422 236.352 196.452 236.065C196.46 235.937 196.485 235.811 196.525 235.689C196.543 235.816 196.543 235.945 196.525 236.072C196.525 236.359 196.525 236.72 196.474 237.154C196.415 238.148 196.341 239.487 196.246 241.121C196.047 244.529 195.782 249.136 195.51 254.222C195.237 259.308 195.046 263.974 194.921 267.33C194.862 268.964 194.811 270.274 194.774 271.304C194.774 271.739 194.73 272.092 194.715 272.386C194.707 272.515 194.679 272.641 194.634 272.762Z" fill="#263238"/>
<path d="M181.694 235.689C181.689 236.324 181.615 236.955 181.474 237.574C181.282 238.722 180.973 240.304 180.568 242.034C180.164 243.763 179.737 245.324 179.398 246.45C179.251 247.065 179.037 247.663 178.758 248.231C178.823 247.602 178.949 246.981 179.133 246.376L180.193 241.96C180.576 240.304 180.929 238.803 181.209 237.544C181.311 236.912 181.473 236.291 181.694 235.689Z" fill="#263238"/>
<path d="M158.296 224.48C157.332 226.075 156.257 227.6 155.08 229.044C154 230.563 152.822 232.012 151.555 233.379C152.517 231.783 153.592 230.258 154.771 228.816C155.846 227.292 157.024 225.844 158.296 224.48Z" fill="#263238"/>
<path d="M146.029 216.208C146.103 216.274 141.54 221.639 135.828 228.183C130.117 234.726 125.414 239.959 125.333 239.907C125.252 239.855 129.823 234.475 135.534 227.932C141.245 221.389 145.948 216.134 146.029 216.208Z" fill="#263238"/>
<path d="M139.883 207.074C138.078 208.815 136.184 210.461 134.208 212.005C131.007 214.64 128.357 216.716 128.32 216.635C130.127 214.898 132.021 213.254 133.995 211.711C135.879 210.068 137.844 208.52 139.883 207.074Z" fill="#263238"/>
<path d="M132.7 193.303C132.744 193.399 126.385 196.563 118.488 200.361C110.59 204.159 104.165 207.169 104.114 207.074C104.062 206.978 110.428 203.82 118.326 200.015C126.223 196.21 132.656 193.207 132.7 193.303Z" fill="#263238"/>
<path d="M129.813 186.438C129.602 186.53 129.379 186.595 129.151 186.629C128.717 186.732 128.091 186.864 127.318 187.004C125.765 187.299 123.601 187.622 121.202 187.865C118.803 188.108 116.617 188.211 115.034 188.233C114.247 188.233 113.607 188.233 113.165 188.233C112.935 188.248 112.704 188.226 112.48 188.167C113.325 188.051 114.175 187.985 115.027 187.968C116.602 187.873 118.773 187.725 121.165 187.483C123.557 187.24 125.714 186.96 127.274 186.747C128.112 186.584 128.961 186.48 129.813 186.438Z" fill="#263238"/>
<path d="M127.483 170.576C127.054 170.611 126.624 170.611 126.195 170.576L122.692 170.399C119.748 170.252 115.656 170.12 111.144 170.142C106.632 170.164 102.54 170.348 99.5887 170.524L96.0927 170.738C95.6652 170.787 95.2345 170.802 94.8047 170.782C95.2228 170.682 95.6488 170.618 96.078 170.591C96.9023 170.495 98.0946 170.377 99.5666 170.252C102.511 170.009 106.617 169.788 111.137 169.759C115.656 169.73 119.755 169.914 122.714 170.127C124.186 170.237 125.385 170.34 126.21 170.429C126.637 170.448 127.063 170.497 127.483 170.576Z" fill="#263238"/>
<path d="M128.924 156.65C128.924 156.753 124.133 155.51 118.282 153.876C112.431 152.242 107.713 150.843 107.742 150.74C107.772 150.637 112.534 151.874 118.385 153.508C124.236 155.142 128.954 156.547 128.924 156.65Z" fill="#263238"/>
<path d="M132.008 144.993C131.89 144.986 131.774 144.961 131.663 144.92L130.684 144.625C129.845 144.36 128.63 143.948 127.151 143.411C123.285 141.991 119.497 140.37 115.802 138.553C112.108 136.734 108.513 134.72 105.034 132.518C103.702 131.672 102.635 130.965 101.913 130.457L101.089 129.861C100.905 129.721 100.809 129.648 100.817 129.633C100.928 129.678 101.034 129.734 101.133 129.802L102.002 130.332C102.738 130.803 103.827 131.473 105.174 132.29C107.875 133.924 111.658 136.08 115.971 138.178C120.284 140.275 124.303 141.983 127.247 143.131C128.719 143.698 129.904 144.147 130.735 144.456L131.685 144.816C131.797 144.866 131.906 144.925 132.008 144.993Z" fill="#263238"/>
<path d="M138.933 133.217C138.874 133.298 135.15 130.781 130.616 127.586C126.083 124.392 122.454 121.735 122.52 121.647C122.587 121.558 126.303 124.083 130.845 127.277C135.386 130.471 138.992 133.15 138.933 133.217Z" fill="#263238"/>
<path d="M124.294 97.4609C124.294 97.4609 124.397 97.5198 124.574 97.6597L125.31 98.3073L128.026 100.707L136.939 108.663L145.889 116.575L148.597 118.982L149.333 119.651C149.422 119.724 149.501 119.808 149.569 119.902C149.569 119.902 149.466 119.85 149.282 119.71L148.546 119.099C147.876 118.562 146.926 117.767 145.756 116.781C143.416 114.808 140.221 112.048 136.725 108.95C133.229 105.851 130.101 102.996 127.893 100.905C126.775 99.8603 125.877 99.0139 125.259 98.4104L124.559 97.7185C124.383 97.5566 124.28 97.4683 124.294 97.4609Z" fill="#263238"/>
<path d="M147.25 98.1309C147.25 98.1309 147.449 98.2928 147.75 98.6387C148.052 98.9846 148.486 99.4925 148.994 100.111C150.017 101.391 151.379 103.202 152.792 105.263C154.205 107.324 155.39 109.252 156.207 110.672C156.619 111.408 156.943 111.96 157.149 112.365C157.277 112.566 157.376 112.784 157.444 113.013C156.904 112.311 156.412 111.573 155.972 110.805C155.096 109.421 153.874 107.53 152.468 105.469C151.062 103.408 149.738 101.59 148.788 100.273C148.233 99.5899 147.72 98.8747 147.25 98.1309Z" fill="#263238"/>
<g opacity="0.2">
<path d="M117.832 91.867L149.855 119.901L157.812 113.535L139.235 85.0664C139.235 85.0664 137.807 86.1115 134.083 87.1714C130.528 88.1944 119.966 88.4667 117.832 91.867Z" fill="black"/>
</g>
<g opacity="0.2">
<path d="M153.477 68.1549L169.109 107.288L179.104 104.16L175.77 70.2157C175.77 70.2157 174.055 70.6205 170.235 70.1347C166.533 69.6637 157.561 66.153 153.477 68.1549Z" fill="black"/>
</g>
<g opacity="0.3">
<path d="M195.164 59.9629L196.217 102.46L205.578 102.908L215.058 70.289C213.089 69.8979 211.215 69.1226 209.545 68.0074C206.307 65.9318 199.698 59.617 195.164 59.9629Z" fill="black"/>
</g>
<g opacity="0.2">
<path d="M235.998 67.9922L220.461 107.169L228.895 111.21L250.276 84.8171C248.669 83.4605 247.299 81.8463 246.221 80.0405C244.204 76.78 240.73 69.2949 235.998 67.9922Z" fill="black"/>
</g>
<g opacity="0.2">
<path d="M272.49 92.4355L243.551 122.612L249.998 131.304L278.275 112.433C277.344 110.718 276.714 108.856 276.413 106.927C275.736 103.247 275.64 96.5645 272.49 92.4355Z" fill="black"/>
</g>
<g opacity="0.2">
<path d="M295.334 126.482L256.363 142.52L259.594 152.478L293.502 148.798C293.502 148.798 293.288 147.753 293.737 143.933C294.164 140.231 298.08 131.958 295.334 126.482Z" fill="black"/>
</g>
<g opacity="0.2">
<path d="M303.968 168.941L261.478 170.413L261.125 179.783L293.509 189.262C293.724 187.914 294.156 186.609 294.79 185.398C297.204 180.894 303.968 174.535 303.968 168.941Z" fill="black"/>
</g>
<g opacity="0.2">
<path d="M296.129 209.114L257.011 193.871L253.059 202.401L279.68 223.473C281.079 222.133 282.628 220.958 284.294 219.97C287.533 217.901 295.231 214.553 296.129 209.114Z" fill="black"/>
</g>
<g opacity="0.2">
<path d="M238.596 208.51L228.91 216.606C229.646 217.342 242.548 239.304 250.504 252.861C250.608 252.772 250.716 252.688 250.828 252.611C256.061 249.108 265.379 250.513 270.634 247.047L238.596 208.51Z" fill="black"/>
<path d="M220.803 223.877L206.348 228.808L213.192 268.052C213.637 267.895 214.092 267.77 214.554 267.676C221.369 266.329 230.356 272.262 236.634 269.664C237.494 269.295 238.293 268.799 239.004 268.192L220.803 223.877Z" fill="black"/>
<path d="M194.406 277.915L196.71 226.645L184.198 223.473L174.902 267.633L175.241 267.692C181.718 268.95 187.613 277.473 194.406 277.915Z" fill="black"/>
<path d="M162.981 217.938C162.981 217.938 146.465 240.062 137.824 251.97C138.224 252.171 138.612 252.395 138.987 252.64C144.662 256.438 146.803 267.014 153.185 269.664C153.479 269.781 153.781 269.877 154.082 269.965L177.156 226.291L162.981 217.938Z" fill="black"/>
<path d="M146.03 200.125L110.805 224.332C110.937 224.509 111.084 224.678 111.202 224.862C115.029 230.573 112.991 241.164 117.826 246.007C118.272 246.446 118.766 246.833 119.298 247.163C131.744 233.135 154.089 207.949 154.898 207.073L146.03 200.125Z" fill="black"/>
<path d="M137.958 182.838L96.3077 189.565C96.9774 196.248 91.7077 204.682 94.188 210.659C94.3375 211.024 94.5172 211.376 94.7253 211.711C109.298 204.454 139.746 189.359 141.012 189.278L137.958 182.838Z" fill="black"/>
<path d="M135.682 159.638L96.3137 148.281C96.2769 148.62 96.2328 148.958 96.1739 149.29C94.8638 155.914 85.9141 161.941 85.9141 168.941C85.9161 169.407 85.9555 169.872 86.0318 170.332H134.085L135.682 159.638Z" fill="black"/>
<path d="M94.3477 126.909C109.068 134.791 137.823 150.74 137.823 150.74L144.903 137.294L111.651 112.27C111.504 112.527 111.364 112.792 111.202 113.006C107.456 118.592 97.2033 120.77 94.3477 126.909Z" fill="black"/>
</g>
<path d="M303.894 168.942L303.85 168.471C303.832 168.01 303.768 167.551 303.658 167.102C303.23 165.337 302.482 163.666 301.45 162.171C300.184 160.14 298.271 157.866 296.298 154.988C295.184 153.457 294.329 151.754 293.766 149.946C293.287 147.836 293.287 145.646 293.766 143.536C294.179 141.291 294.848 138.98 295.43 136.529C296.011 134.078 296.556 131.428 296.011 128.72C295.703 127.349 295.075 126.07 294.179 124.988C293.217 123.887 292.119 122.912 290.911 122.089C288.467 120.352 285.656 118.968 282.969 117.157C281.58 116.261 280.317 115.182 279.216 113.948C278.135 112.61 277.349 111.057 276.912 109.393C275.97 106.044 275.756 102.467 275.043 98.8898C274.731 97.0685 274.116 95.3122 273.225 93.6937C272.257 92.0642 270.788 90.7914 269.037 90.0652C267.23 89.339 265.338 88.8444 263.406 88.5932C261.456 88.2694 259.454 88.0412 257.452 87.6879C255.401 87.3922 253.412 86.7632 251.564 85.8258C249.732 84.7243 248.18 83.2127 247.03 81.4098C245.809 79.6582 244.756 77.774 243.637 75.9119C242.566 74.0067 241.282 72.229 239.81 70.6127C238.293 68.9778 236.225 67.963 234.003 67.7644C231.734 67.6804 229.465 67.9461 227.276 68.5519C225.068 69.0892 222.801 69.7442 220.483 70.1785C218.139 70.7308 215.694 70.6852 213.373 70.046C211.11 69.1583 208.994 67.9351 207.095 66.4175C205.13 64.9455 203.216 63.4735 201.119 62.1634C199.021 60.8534 196.644 59.9039 194.171 60.1836H193.707C193.553 60.1836 193.405 60.2498 193.258 60.2793C192.956 60.3529 192.647 60.4044 192.353 60.4927C191.76 60.6813 191.18 60.9074 190.616 61.1698C189.478 61.7113 188.385 62.3438 187.348 63.0614C185.258 64.5334 183.278 66.1378 181.129 67.5951C180.059 68.3441 178.926 68.9992 177.743 69.5529C176.531 70.0952 175.233 70.4214 173.909 70.517C171.253 70.5341 168.609 70.1596 166.063 69.4057C163.499 68.6737 160.884 68.1349 158.239 67.7938C156.919 67.6639 155.586 67.7534 154.294 68.0588C153.008 68.4164 151.822 69.0663 150.828 69.9577C148.796 71.7314 147.383 74.1161 145.97 76.4566C144.636 78.9074 143.076 81.2285 141.311 83.3897C140.377 84.4603 139.254 85.3508 137.999 86.0172C136.718 86.6229 135.372 87.0822 133.988 87.3862C131.221 87.997 128.395 88.2546 125.605 88.7551C122.816 89.2556 119.967 90.0431 117.951 92.0009C116.977 93.0377 116.226 94.2624 115.743 95.5999C115.255 96.9489 114.898 98.3414 114.676 99.7583C114.16 102.599 113.94 105.514 113.204 108.377C112.887 109.83 112.359 111.229 111.636 112.528C110.874 113.815 109.875 114.947 108.692 115.862C106.366 117.731 103.724 119.115 101.192 120.661C99.9235 121.424 98.7065 122.27 97.5488 123.193C96.397 124.113 95.4284 125.241 94.6931 126.519C93.9921 127.821 93.6372 129.281 93.6627 130.759C93.6887 132.244 93.8638 133.724 94.1853 135.175C94.8035 138.119 95.7382 141.011 96.2387 144.007C96.5354 145.544 96.595 147.118 96.4154 148.673C96.2064 150.224 95.7071 151.722 94.9434 153.089C93.4051 155.775 91.4032 158.138 89.6294 160.64C88.7185 161.873 87.9251 163.189 87.2595 164.57C86.5303 165.918 86.1484 167.425 86.1484 168.957C86.1484 170.489 86.5303 171.996 87.2595 173.344C87.924 174.725 88.7175 176.041 89.6294 177.274C91.4032 179.776 93.4051 182.139 94.9434 184.825C95.693 186.166 96.1918 187.633 96.4154 189.153C96.6023 190.687 96.5527 192.241 96.2682 193.76C95.775 196.785 94.8403 199.685 94.2147 202.629C93.8959 204.08 93.7209 205.559 93.6922 207.045C93.6632 208.525 94.0155 209.987 94.7152 211.292C95.4448 212.574 96.4113 213.705 97.5635 214.626C98.7212 215.549 99.9383 216.394 101.207 217.158C103.739 218.703 106.359 220.102 108.714 221.956C109.895 222.874 110.894 224.005 111.658 225.29C112.387 226.585 112.915 227.982 113.226 229.434C113.917 232.305 114.153 235.219 114.698 238.06C114.926 239.477 115.286 240.869 115.772 242.218C116.244 243.555 116.983 244.782 117.943 245.825C119.982 247.805 122.852 248.592 125.605 249.093C128.358 249.593 131.221 249.829 133.988 250.462C135.375 250.767 136.722 251.226 138.007 251.831C139.26 252.5 140.382 253.39 141.319 254.458C143.066 256.623 144.611 258.944 145.933 261.391C147.347 263.732 148.76 266.116 150.791 267.89C151.783 268.78 152.967 269.43 154.25 269.789C155.553 270.118 156.901 270.227 158.239 270.113C160.879 269.758 163.489 269.209 166.048 268.472C168.596 267.712 171.243 267.335 173.901 267.353C175.226 267.453 176.524 267.781 177.736 268.324C178.918 268.88 180.051 269.535 181.122 270.282C183.271 271.754 185.243 273.381 187.341 274.809C188.373 275.531 189.464 276.166 190.601 276.707C191.166 276.969 191.746 277.195 192.338 277.385C192.64 277.466 192.942 277.524 193.244 277.598L193.7 277.694H194.156C196.636 277.973 199.021 276.958 201.111 275.714C203.202 274.47 205.123 272.902 207.08 271.46C208.982 269.942 211.101 268.719 213.366 267.831C215.688 267.196 218.132 267.15 220.476 267.699C222.794 268.14 225.031 268.795 227.269 269.333C229.461 269.932 231.732 270.197 234.003 270.12C236.222 269.914 238.287 268.897 239.803 267.265C241.27 265.642 242.554 263.862 243.63 261.958C244.741 260.103 245.794 258.219 247.016 256.46C248.172 254.66 249.725 253.149 251.557 252.044C253.404 251.106 255.393 250.479 257.445 250.189C259.454 249.829 261.449 249.601 263.399 249.284C265.332 249.021 267.224 248.514 269.029 247.775C270.778 247.046 272.247 245.774 273.217 244.147C274.103 242.527 274.715 240.771 275.028 238.951C275.764 235.374 275.955 231.789 276.905 228.441C277.338 226.777 278.123 225.226 279.208 223.892C280.306 222.655 281.569 221.575 282.962 220.683C285.648 218.873 288.46 217.489 290.896 215.752C292.11 214.93 293.211 213.953 294.171 212.845C295.067 211.766 295.692 210.489 295.996 209.121C296.253 207.799 296.29 206.443 296.107 205.109C295.955 203.83 295.724 202.562 295.415 201.312C294.826 198.861 294.164 196.55 293.752 194.305C293.273 192.195 293.273 190.004 293.752 187.894C294.317 186.088 295.172 184.385 296.284 182.853C298.278 179.975 300.199 177.701 301.436 175.669C302.468 174.175 303.216 172.504 303.644 170.738C303.754 170.29 303.818 169.831 303.835 169.369L303.879 168.906C303.879 168.906 303.879 169.06 303.879 169.369C303.865 169.833 303.806 170.294 303.702 170.746C303.283 172.525 302.534 174.21 301.494 175.714C300.236 177.76 298.33 180.041 296.342 182.919C295.238 184.44 294.395 186.133 293.847 187.931C293.369 190.019 293.369 192.188 293.847 194.275C294.26 196.483 294.929 198.817 295.525 201.267C295.846 202.528 296.092 203.805 296.261 205.095C296.445 206.446 296.407 207.818 296.151 209.157C295.844 210.557 295.208 211.864 294.296 212.97C293.327 214.09 292.216 215.079 290.992 215.914C288.533 217.666 285.729 219.057 283.058 220.86C281.693 221.746 280.455 222.813 279.378 224.032C278.315 225.345 277.547 226.871 277.125 228.507C276.191 231.819 275.985 235.396 275.263 238.995C274.952 240.844 274.333 242.628 273.431 244.272C272.436 245.947 270.929 247.258 269.132 248.011C267.309 248.76 265.397 249.274 263.443 249.542C261.485 249.866 259.484 250.094 257.489 250.454C255.464 250.743 253.5 251.363 251.675 252.287C249.894 253.367 248.384 254.84 247.259 256.593C246.052 258.337 244.999 260.214 243.88 262.083C242.798 264.007 241.504 265.804 240.024 267.441C238.459 269.129 236.325 270.177 234.033 270.385C231.729 270.476 229.425 270.21 227.203 269.598C224.958 269.06 222.72 268.413 220.424 267.979C218.131 267.442 215.741 267.485 213.469 268.104C211.238 268.983 209.152 270.191 207.279 271.688C205.329 273.123 203.408 274.669 201.288 275.964C200.736 276.258 200.213 276.604 199.639 276.847C199.352 276.98 199.073 277.12 198.786 277.237L197.895 277.554C196.687 277.969 195.405 278.119 194.134 277.995L193.656 277.959C193.501 277.959 193.347 277.892 193.185 277.863C192.876 277.789 192.559 277.73 192.257 277.642C191.646 277.453 191.048 277.222 190.469 276.95C189.314 276.402 188.206 275.76 187.157 275.029C185.044 273.557 183.065 271.953 180.938 270.503C179.881 269.77 178.766 269.125 177.604 268.575C176.428 268.052 175.17 267.735 173.887 267.64C171.263 267.628 168.651 268.003 166.137 268.751C163.551 269.512 160.911 270.075 158.239 270.437C156.874 270.57 155.497 270.478 154.162 270.164C152.825 269.792 151.591 269.117 150.556 268.192C148.465 266.359 147.037 263.953 145.624 261.605C144.315 259.176 142.782 256.875 141.046 254.73C140.142 253.694 139.054 252.833 137.837 252.191C136.583 251.595 135.264 251.146 133.907 250.852C131.169 250.248 128.35 249.991 125.539 249.483C124.122 249.247 122.73 248.883 121.38 248.394C120.011 247.892 118.759 247.115 117.7 246.112C116.696 245.039 115.926 243.768 115.441 242.38C114.944 241.01 114.577 239.595 114.344 238.156C113.829 235.293 113.608 232.378 112.872 229.552C112.567 228.136 112.051 226.774 111.341 225.511C110.596 224.263 109.623 223.167 108.471 222.28C106.189 220.448 103.555 219.064 101.015 217.511C99.7343 216.738 98.505 215.883 97.3354 214.95C96.1448 213.995 95.1458 212.824 94.3914 211.498C93.6646 210.141 93.2996 208.62 93.3315 207.082C93.349 205.559 93.5266 204.041 93.8614 202.555C94.487 199.611 95.4217 196.667 95.9075 193.723C96.1853 192.241 96.2325 190.724 96.0474 189.226C95.8244 187.739 95.3251 186.306 94.5754 185.002C93.1034 182.352 91.072 180.004 89.2835 177.48C88.3515 176.222 87.5361 174.882 86.8474 173.476C86.0987 172.077 85.707 170.515 85.707 168.928C85.707 167.341 86.0987 165.778 86.8474 164.379C87.5266 162.977 88.3348 161.642 89.2614 160.39C91.0499 157.866 93.0445 155.518 94.5459 152.875C95.295 151.568 95.7942 150.133 96.0179 148.643C96.1896 147.145 96.14 145.63 95.8707 144.146C95.3776 141.202 94.4429 138.258 93.8173 135.314C93.4885 133.83 93.3134 132.316 93.2947 130.795C93.2654 129.256 93.6329 127.735 94.3619 126.379C95.1213 125.059 96.1196 123.891 97.3059 122.935C98.4738 122 99.7032 121.144 100.986 120.374C103.525 118.821 106.138 117.43 108.442 115.604C109.591 114.717 110.562 113.621 111.305 112.373C112.01 111.107 112.524 109.743 112.828 108.325C113.513 105.499 113.748 102.592 114.3 99.7289C114.53 98.2897 114.895 96.8753 115.389 95.5042C115.833 94.1009 116.606 92.8238 117.643 91.7792C118.68 90.7345 119.951 89.9526 121.351 89.4985C122.701 89.0094 124.093 88.6448 125.509 88.4092C128.321 87.9014 131.14 87.6732 133.878 87.0476C135.232 86.7446 136.55 86.2954 137.808 85.7081C139.021 85.061 140.106 84.198 141.01 83.1615C142.745 81.0171 144.278 78.7157 145.588 76.2873C147.001 73.9394 148.428 71.5327 150.526 69.7074C151.566 68.7689 152.811 68.0859 154.162 67.7129C155.497 67.4024 156.874 67.3104 158.239 67.4406C160.894 67.7955 163.519 68.3466 166.092 69.0892C168.606 69.8439 171.218 70.2209 173.843 70.2079C175.114 70.1066 176.359 69.7879 177.523 69.2658C178.689 68.7227 179.804 68.0774 180.857 67.3375C182.991 65.8655 184.971 64.2537 187.083 62.8185C188.131 62.0854 189.239 61.4427 190.395 60.8975C190.974 60.6278 191.569 60.3943 192.176 60.1983C192.485 60.11 192.802 60.0585 193.111 59.9849L193.575 59.8818H194.053C195.324 59.7618 196.606 59.9123 197.814 60.3234L198.705 60.6399C198.992 60.7577 199.271 60.8975 199.558 61.03C200.14 61.2802 200.662 61.6188 201.207 61.9132C203.334 63.2086 205.248 64.7542 207.205 66.1894C209.077 67.6849 211.16 68.8929 213.388 69.7737C215.659 70.3962 218.051 70.4392 220.343 69.8988C222.639 69.4719 224.877 68.8242 227.122 68.287C229.345 67.6757 231.648 67.4076 233.952 67.4921C236.243 67.7026 238.376 68.7508 239.943 70.4361C241.425 72.0764 242.721 73.8758 243.807 75.8015C244.925 77.6636 245.971 79.5478 247.178 81.2847C248.301 83.041 249.811 84.5164 251.594 85.5977C253.417 86.5253 255.382 87.1446 257.408 87.4303C259.403 87.791 261.404 88.0191 263.362 88.343C265.315 88.6138 267.226 89.1281 269.052 89.8738C270.848 90.6259 272.357 91.9336 273.357 93.6054C274.256 95.2508 274.875 97.0341 275.19 98.8825C275.926 102.482 276.117 106.058 277.044 109.37C277.47 111.005 278.238 112.53 279.297 113.845C280.372 115.068 281.611 116.138 282.977 117.025C285.648 118.828 288.46 120.219 290.911 121.971C292.135 122.805 293.246 123.795 294.215 124.915C295.128 126.018 295.766 127.322 296.077 128.72C296.334 130.062 296.371 131.436 296.188 132.79C296.019 134.077 295.773 135.352 295.452 136.61C294.863 139.068 294.186 141.372 293.774 143.609C293.295 145.697 293.295 147.866 293.774 149.954C294.321 151.751 295.165 153.445 296.269 154.966C298.249 157.851 300.155 160.118 301.421 162.171C302.459 163.676 303.208 165.36 303.629 167.139C303.732 167.591 303.791 168.052 303.805 168.515C303.894 168.78 303.894 168.942 303.894 168.942Z" fill="#263238"/>
<path d="M174.433 270.112C174.536 270.112 171.82 281.152 168.369 294.709C164.917 308.266 162.032 319.24 161.929 319.217C161.826 319.195 164.541 308.177 167.993 294.613C171.445 281.049 174.36 270.053 174.433 270.112Z" fill="#263238"/>
<path d="M194.908 235.755C231.808 235.755 261.722 205.841 261.722 168.941C261.722 132.041 231.808 102.127 194.908 102.127C158.007 102.127 128.094 132.041 128.094 168.941C128.094 205.841 158.007 235.755 194.908 235.755Z" fill="white"/>
<path d="M153.765 145.787C152.845 146.707 147.781 155.922 147.317 163.525C146.854 171.128 147.95 213.801 147.95 213.801L148.149 216.635C160.175 230.7 203.894 251.632 243.27 216.561L245.478 190.308L238.979 134.733L216.384 129.205L211.092 120.631L175.823 128.889L172.673 136.322L153.765 145.787Z" fill="#455A64"/>
<path d="M208.669 98.2859C210.222 92.5083 211.745 86.6939 212.283 80.7396C212.82 74.7854 212.327 68.6324 209.957 63.1419C209.596 62.3102 206.616 56.7534 205.718 56.8932C205.077 56.9889 207.006 62.2145 206.711 62.7812C203.878 68.2791 203.362 74.7339 204.179 80.8647C205.022 86.8185 206.528 92.6594 208.669 98.2785" fill="#263238"/>
<path d="M208.08 75.4698C207.8 60.4775 198.835 48.1495 183.858 48.8487L182.474 48.9959C175.775 49.7021 169.587 52.9041 165.141 57.9649C160.696 63.0257 158.318 69.5746 158.481 76.3088C158.804 89.2992 159.32 103.651 160.137 110.555C161.822 124.841 176.329 125.562 176.329 125.562L176.998 134.961L183.144 141.636L211.634 123.972L208.08 75.4698Z" fill="#FFBF9D"/>
<path d="M176.367 125.672C176.367 125.672 185.442 125.252 194.414 118.201C194.414 118.201 191.411 131.162 177 131.376L176.367 125.672Z" fill="#FF9A6C"/>
<path d="M166.718 87.9594C166.768 88.4966 167.028 88.9924 167.441 89.3395C167.854 89.6866 168.388 89.8571 168.926 89.8141C169.188 89.8075 169.446 89.7487 169.684 89.6409C169.923 89.5332 170.138 89.3788 170.316 89.1868C170.495 88.9947 170.633 88.769 170.723 88.5228C170.812 88.2766 170.852 88.015 170.839 87.7533C170.787 87.2168 170.526 86.7221 170.114 86.3754C169.701 86.0287 169.169 85.8575 168.631 85.8986C168.369 85.9041 168.11 85.9623 167.871 86.0697C167.632 86.1771 167.416 86.3315 167.238 86.5237C167.059 86.716 166.921 86.9421 166.832 87.1887C166.743 87.4353 166.704 87.6974 166.718 87.9594Z" fill="#263238"/>
<path d="M162.17 81.9244C162.45 82.1599 163.878 80.8572 166.078 80.629C168.279 80.4009 170.001 81.365 170.214 81.0338C170.318 80.9087 170.008 80.4524 169.25 80.0108C168.23 79.4546 167.064 79.2259 165.909 79.3558C164.765 79.4736 163.689 79.9502 162.832 80.7174C162.207 81.3135 162.03 81.814 162.17 81.9244Z" fill="#263238"/>
<path d="M186.143 86.3104C186.193 86.8477 186.453 87.3435 186.867 87.6906C187.28 88.0376 187.813 88.2081 188.351 88.1651C188.613 88.1586 188.871 88.0997 189.11 87.992C189.349 87.8842 189.564 87.7298 189.742 87.5378C189.92 87.3458 190.058 87.1201 190.148 86.8739C190.238 86.6277 190.277 86.3661 190.265 86.1043C190.214 85.5665 189.954 85.07 189.541 84.7218C189.128 84.3735 188.595 84.2013 188.057 84.2423C187.794 84.2498 187.536 84.3096 187.297 84.4181C187.058 84.5266 186.843 84.6817 186.665 84.8743C186.487 85.0669 186.349 85.2931 186.259 85.5397C186.17 85.7863 186.13 86.0483 186.143 86.3104Z" fill="#263238"/>
<path d="M183.799 80.5414C184.079 80.7843 185.514 79.4742 187.707 79.2461C189.901 79.0179 191.638 79.9821 191.844 79.6582C191.947 79.5257 191.645 79.0694 190.887 78.6352C189.865 78.0762 188.695 77.8473 187.538 77.9801C186.393 78.093 185.315 78.5702 184.462 79.3417C183.843 79.9305 183.667 80.4384 183.799 80.5414Z" fill="#263238"/>
<path d="M177.692 98.2702C177.692 98.1451 176.301 98.0494 174.057 97.9979C173.49 97.9979 172.945 97.9464 172.813 97.571C172.702 96.9974 172.771 96.4034 173.012 95.8709L174.219 91.4549C175.882 85.1253 177.023 79.9438 176.772 79.8776C176.522 79.8114 174.955 84.8898 173.291 91.2267L172.158 95.6795C171.881 96.386 171.86 97.1673 172.099 97.8875C172.199 98.0792 172.343 98.2453 172.517 98.3729C172.692 98.5005 172.894 98.5862 173.107 98.6235C173.427 98.6628 173.751 98.6628 174.071 98.6235C176.316 98.5278 177.7 98.3954 177.692 98.2702Z" fill="#263238"/>
<path d="M184.322 99.1105C183.961 99.1105 184.212 101.51 182.35 103.423C180.488 105.337 177.934 105.337 177.934 105.676C177.934 105.823 178.544 106.08 179.626 105.992C181.02 105.861 182.323 105.244 183.306 104.248C184.245 103.284 184.773 101.994 184.778 100.649C184.815 99.6404 184.484 99.081 184.322 99.1105Z" fill="#263238"/>
<path d="M182.983 71.6056C183.263 72.1797 185.427 71.6645 188.039 71.7086C190.652 71.7528 192.816 72.2312 193.096 71.6571C193.221 71.3848 192.801 70.8622 191.896 70.3691C190.695 69.7869 189.378 69.4844 188.043 69.4844C186.708 69.4844 185.391 69.7869 184.19 70.3691C183.263 70.8107 182.858 71.3333 182.983 71.6056Z" fill="#263238"/>
<path d="M162.309 74.5202C162.743 74.9765 164.208 74.2994 166.026 74.0786C167.844 73.8578 169.426 74.0786 169.706 73.5045C169.838 73.2322 169.544 72.7685 168.823 72.3564C167.856 71.8851 166.772 71.7111 165.707 71.8566C164.642 72.002 163.643 72.4603 162.839 73.1733C162.265 73.7548 162.11 74.292 162.309 74.5202Z" fill="#263238"/>
<path d="M208.031 86.1938C208.267 86.0614 217.555 82.2489 218.276 92.0818C218.998 101.915 209.025 100.575 208.959 100.296C208.892 100.016 208.031 86.1938 208.031 86.1938Z" fill="#FFBF9D"/>
<path d="M211.682 96.3581C211.726 96.3581 211.859 96.4611 212.161 96.5715C212.58 96.7167 213.039 96.6929 213.441 96.5053C214.45 96.0489 215.2 94.3414 215.119 92.5677C215.085 91.724 214.861 90.8988 214.464 90.1536C214.349 89.8542 214.163 89.5873 213.922 89.3758C213.681 89.1642 213.392 89.0144 213.081 88.9392C212.881 88.8997 212.674 88.932 212.497 89.0304C212.319 89.1287 212.182 89.2867 212.109 89.4765C211.991 89.7635 212.072 89.9549 212.021 89.9769C211.969 89.999 211.8 89.8224 211.844 89.4176C211.883 89.1687 212.005 88.9404 212.19 88.7699C212.446 88.5471 212.779 88.4334 213.117 88.4534C213.526 88.5017 213.915 88.6553 214.247 88.8991C214.578 89.143 214.841 89.4687 215.009 89.8445C215.492 90.663 215.765 91.5884 215.804 92.5382C215.885 94.5181 215.009 96.4464 213.596 96.9542C213.338 97.0511 213.063 97.0889 212.789 97.0647C212.515 97.0405 212.25 96.9549 212.013 96.8144C211.719 96.5936 211.653 96.3728 211.682 96.3581Z" fill="#FF9A6C"/>
<path d="M163.788 59.6164C162.147 58.8362 166.585 53.3825 170.412 51.3585C176.146 48.3041 185.051 46.074 190.594 47.2663C197.269 48.7383 202.922 51.6087 206.594 57.3642C210.267 63.1197 211.952 69.9866 212.203 76.8093C212.276 78.8922 212.203 81.0708 211.202 82.8961C209.972 85.1556 207.426 86.6938 207.735 89.682C207.809 90.2215 207.774 90.7703 207.632 91.2961C207.49 91.8219 207.245 92.3141 206.911 92.7437C205.233 94.7751 202.922 93.1191 201.795 91.3821C199.389 87.7021 198.852 83.1021 198.38 78.7009C198.042 75.5802 197.711 72.386 198.38 69.3242C198.748 67.6535 199.426 66.0564 199.705 64.3709C199.985 62.6855 199.816 60.8087 198.697 59.5133C198.436 59.2417 198.15 58.9952 197.843 58.7773C196.395 57.6659 194.677 56.9613 192.865 56.7361C191.054 56.511 189.215 56.7736 187.539 57.4967C182.13 59.8077 172.878 63.3405 170.287 61.6183C166.571 59.1453 165.599 57.4084 165.599 57.4084L163.788 59.6164Z" fill="#263238"/>
<path d="M153.763 145.787C153.196 146.575 145.151 149.246 142.097 154.332C139.043 159.418 136.025 182.249 136.025 182.249L134.082 197.248C137.909 203.298 143.047 211.313 148.493 216.966L153.763 145.787Z" fill="#455A64"/>
<g opacity="0.3">
<path d="M214.211 167.809C214.428 170.887 215.011 173.928 215.948 176.869C217 179.761 218.848 182.484 221.549 183.979C222.675 184.597 223.948 185.009 224.898 185.892C225.847 186.775 226.421 188.203 227.341 189.241C228.492 190.382 229.912 191.215 231.47 191.662C235.854 193.27 240.507 194.02 245.174 193.87C245.322 192.295 245.329 186.51 245.476 184.928L214.211 167.809Z" fill="black"/>
</g>
<path d="M238.98 134.732C238.98 134.732 249.122 137.735 252.095 142.056C255.068 146.376 260.331 163.127 261.413 166.233C262.495 169.339 261.545 176.537 259.521 181.689C257.497 186.841 253.979 191.323 247.907 191.993C241.835 192.663 232.238 189.16 230.074 186.841C227.91 184.523 227.02 179.393 227.02 179.393C229.716 178.92 232.375 178.254 234.976 177.398" fill="#455A64"/>
<path d="M234.974 177.45L234.849 177.502L234.466 177.641C234.128 177.759 233.62 177.928 232.95 178.127C231.015 178.706 229.049 179.178 227.062 179.54L227.143 179.43C227.39 180.694 227.737 181.937 228.181 183.147C228.423 183.832 228.716 184.499 229.057 185.141C229.406 185.828 229.866 186.452 230.418 186.989C231.041 187.523 231.729 187.978 232.464 188.343C233.242 188.751 234.04 189.117 234.856 189.439C236.608 190.14 238.409 190.711 240.244 191.147C242.225 191.633 244.254 191.892 246.294 191.92C246.825 191.924 247.355 191.9 247.884 191.846C248.416 191.785 248.945 191.692 249.466 191.566C250.535 191.326 251.562 190.927 252.513 190.382C254.493 189.237 256.155 187.615 257.349 185.664C258.611 183.638 259.577 181.442 260.219 179.143C260.743 177.376 261.134 175.573 261.389 173.748C261.663 171.981 261.752 170.19 261.654 168.405C261.596 167.546 261.42 166.699 261.132 165.887C260.852 165.063 260.58 164.246 260.315 163.437L258.732 158.704C257.687 155.628 256.657 152.72 255.626 150.019C254.722 147.506 253.632 145.063 252.366 142.711C251.781 141.711 251 140.84 250.07 140.15C249.259 139.505 248.397 138.926 247.494 138.42C246.042 137.592 244.54 136.854 242.997 136.212C241.731 135.689 240.73 135.321 240.053 135.078L239.28 134.806C239.188 134.782 239.099 134.747 239.015 134.703C239.108 134.715 239.199 134.737 239.287 134.769L240.075 135.005C240.766 135.226 241.782 135.572 243.063 136.072C244.619 136.686 246.136 137.397 247.604 138.199C248.524 138.705 249.403 139.284 250.231 139.929C251.189 140.631 251.995 141.52 252.601 142.542C253.896 144.907 255.008 147.367 255.928 149.902C256.981 152.595 258.018 155.51 259.071 158.586C259.593 160.125 260.123 161.707 260.668 163.319C260.94 164.121 261.213 164.938 261.485 165.762C261.787 166.601 261.973 167.478 262.037 168.368C262.142 170.18 262.055 171.998 261.779 173.792C261.519 175.637 261.123 177.46 260.594 179.246C259.937 181.584 258.945 183.815 257.65 185.87C256.423 187.873 254.712 189.536 252.675 190.705C251.693 191.264 250.634 191.673 249.532 191.92C248.996 192.047 248.453 192.143 247.906 192.207C247.361 192.207 246.816 192.302 246.287 192.28C244.219 192.243 242.162 191.971 240.156 191.471C238.304 191.027 236.488 190.444 234.724 189.726C233.902 189.394 233.099 189.018 232.317 188.6C231.56 188.221 230.853 187.749 230.212 187.195C229.643 186.631 229.17 185.977 228.814 185.259C228.472 184.607 228.18 183.93 227.938 183.235C227.507 182.004 227.169 180.742 226.93 179.459V179.364H227.025C229.616 178.915 231.603 178.407 232.95 178.039L234.481 177.605L234.871 177.494C234.93 177.45 234.974 177.443 234.974 177.45Z" fill="#263238"/>
<path d="M253.587 172.025C253.513 172.025 253.278 170.774 252.432 168.905C251.32 166.474 249.768 164.271 247.854 162.406C246.793 161.396 245.593 160.544 244.291 159.874L243.401 159.476C243.106 159.344 242.797 159.285 242.518 159.189C241.988 159.023 241.443 158.909 240.891 158.851L240.523 158.799H239.522C239.177 158.794 238.831 158.824 238.492 158.888C238.196 158.947 237.895 158.979 237.594 158.983C237.872 158.868 238.164 158.786 238.462 158.74C238.805 158.643 239.159 158.591 239.515 158.586H240.177H240.538L240.92 158.63C241.491 158.67 242.056 158.768 242.606 158.924C242.915 159.002 243.219 159.095 243.519 159.204L244.446 159.602C245.796 160.268 247.037 161.137 248.126 162.178C250.082 164.068 251.632 166.337 252.682 168.846C252.869 169.273 253.031 169.71 253.168 170.156C253.281 170.491 253.374 170.833 253.447 171.179C253.521 171.456 253.567 171.739 253.587 172.025Z" fill="#263238"/>
<path d="M259.121 162.921C258.703 161.85 258.191 160.818 257.59 159.837C256.065 157.509 253.782 155.78 251.128 154.943C248.015 153.993 244.99 154.288 242.878 154.486L240.353 154.788C240.047 154.843 239.737 154.87 239.426 154.869C239.717 154.755 240.021 154.679 240.331 154.641C240.92 154.523 241.803 154.369 242.848 154.221C245.638 153.734 248.5 153.854 251.239 154.575C252.738 155.025 254.131 155.777 255.331 156.783C256.313 157.618 257.154 158.607 257.818 159.712C258.273 160.437 258.637 161.216 258.9 162.03C259.008 162.318 259.082 162.617 259.121 162.921Z" fill="#263238"/>
<path d="M251.477 152.035C247.51 151.1 243.362 151.263 239.48 152.506C239.99 152.174 240.549 151.926 241.136 151.77C242.529 151.342 243.971 151.095 245.427 151.034C246.883 150.983 248.34 151.116 249.762 151.432C250.361 151.546 250.939 151.75 251.477 152.035Z" fill="#263238"/>
<path d="M235.063 137.264C235.122 137.264 234.975 138.301 234.857 139.965C234.548 144.225 234.916 148.508 235.946 152.653L235.681 152.742C235.379 151.895 235.144 151.204 234.989 150.718C234.893 150.481 234.824 150.234 234.783 149.982C234.933 150.21 235.052 150.458 235.136 150.718C235.335 151.181 235.608 151.859 235.946 152.698L235.681 152.779C235.098 150.742 234.711 148.655 234.526 146.545C234.333 144.362 234.353 142.166 234.584 139.987C234.68 139.155 234.791 138.515 234.879 138.022C234.904 137.762 234.966 137.506 235.063 137.264Z" fill="#263238"/>
<path d="M220.717 118.387C220.717 118.387 215.455 118.387 214.792 124.709C214.285 129.567 214.792 134.277 214.792 136.411C214.792 138.546 213.858 146.104 213.858 146.104C213.858 146.104 210.266 149.291 210.325 153.119C210.384 156.946 213.122 158.138 213.122 158.138C212.663 159.324 212.562 160.619 212.831 161.861C213.101 163.104 213.729 164.241 214.638 165.13C214.638 165.13 213.114 168.656 214.366 171.018C215.087 172.193 216.212 173.065 217.53 173.469C217.314 173.934 217.201 174.44 217.197 174.953C217.194 175.466 217.3 175.973 217.509 176.441C217.719 176.909 218.026 177.327 218.41 177.666C218.795 178.006 219.248 178.258 219.738 178.408C221.507 178.955 223.359 179.182 225.207 179.077L229.137 179.004L232.596 180.917C232.596 180.917 238.528 178.334 238.676 174.838L238.83 171.342C238.83 171.342 237.13 165.601 236.99 163.761C236.85 161.921 238.359 157.527 237.447 155.555C236.534 153.582 233.347 152.419 233.649 149.667C233.951 146.914 233.347 145.383 231.978 143.86C230.609 142.336 224.567 139.304 224.567 139.304C224.567 139.304 223.014 134.888 223.014 131.863C223.014 128.838 226.039 119.542 220.717 118.387Z" fill="#FFBF9D"/>
<path d="M224.266 140.451C223.813 140.821 223.319 141.138 222.794 141.393C221.866 141.938 220.586 142.659 219.114 143.439C217.642 144.219 216.361 144.911 215.434 145.39C214.932 145.693 214.399 145.94 213.844 146.126C214.295 145.751 214.789 145.433 215.316 145.176C216.243 144.632 217.524 143.91 218.996 143.13C220.468 142.35 221.748 141.658 222.676 141.18C223.176 140.877 223.709 140.632 224.266 140.451Z" fill="#FF9A6C"/>
<path d="M227.725 152.352C227.725 152.352 227.578 152.521 227.262 152.764C226.822 153.109 226.365 153.43 225.893 153.728C224.338 154.724 222.686 155.557 220.961 156.216C219.237 156.885 217.449 157.378 215.625 157.688C214.889 157.798 214.352 157.864 213.962 157.886C213.758 157.925 213.548 157.925 213.344 157.886C213.344 157.827 214.198 157.71 215.552 157.423C217.338 157.047 219.092 156.536 220.799 155.892C222.503 155.233 224.152 154.44 225.731 153.522C226.375 153.098 227.041 152.707 227.725 152.352Z" fill="#FF9A6C"/>
<path d="M232.245 148.561C232.34 148.598 232.142 149.297 231.509 149.835C230.876 150.372 230.199 150.534 230.176 150.438C230.154 150.342 230.699 150.063 231.251 149.547C231.803 149.032 232.142 148.517 232.245 148.561Z" fill="#FF9A6C"/>
<path d="M230.073 162.768C229.366 163.111 228.626 163.382 227.865 163.577C226.054 164.116 224.21 164.536 222.345 164.836C220.48 165.14 218.596 165.317 216.707 165.366C215.924 165.426 215.137 165.401 214.359 165.292C215.133 165.182 215.912 165.118 216.693 165.101C218.165 164.998 220.115 164.806 222.286 164.46C224.457 164.114 226.393 163.666 227.791 163.312C228.541 163.086 229.302 162.905 230.073 162.768Z" fill="#FF9A6C"/>
<path d="M234.886 161.919C234.997 161.536 235.133 161.16 235.291 160.793C235.582 159.894 235.68 158.944 235.578 158.004C235.46 157.065 235.139 156.163 234.635 155.362C234.397 155.042 234.178 154.707 233.98 154.361C233.98 154.324 234.4 154.596 234.864 155.207C235.459 156.015 235.834 156.963 235.953 157.959C236.072 158.955 235.93 159.964 235.541 160.889C235.239 161.559 234.923 161.919 234.886 161.919Z" fill="#FF9A6C"/>
<path d="M230.365 173.424C229.762 173.646 229.135 173.794 228.496 173.865C226.967 174.106 225.422 174.227 223.874 174.226C222.323 174.223 220.774 174.093 219.244 173.836C218.605 173.764 217.977 173.613 217.375 173.387C218.014 173.398 218.652 173.459 219.281 173.571C220.806 173.743 222.339 173.834 223.874 173.843C225.406 173.84 226.936 173.756 228.459 173.593C229.089 173.486 229.726 173.429 230.365 173.424Z" fill="#FF9A6C"/>
<path d="M221.006 131.936C221.006 131.98 220.763 132.179 220.27 132.356C219.621 132.573 218.932 132.643 218.252 132.561C217.572 132.48 216.919 132.249 216.34 131.885C215.898 131.598 215.692 131.347 215.722 131.311C216.535 131.719 217.402 132.012 218.298 132.179C219.207 132.227 220.119 132.146 221.006 131.936Z" fill="#FF9A6C"/>
<path d="M235.975 162.34C236.041 162.521 236.071 162.714 236.063 162.907C236.063 163.43 236.002 163.951 235.879 164.46C235.739 165.1 235.496 165.843 235.261 166.668C234.976 167.53 234.883 168.444 234.989 169.347C235.114 170.281 235.813 171.032 235.923 171.981C235.999 172.784 235.793 173.588 235.342 174.256C235.068 174.699 234.749 175.113 234.392 175.492C234.142 175.764 233.988 175.897 233.966 175.882C233.943 175.868 234.473 175.235 235.106 174.123C235.487 173.497 235.65 172.762 235.57 172.033C235.482 171.231 234.775 170.48 234.606 169.413C234.494 168.454 234.602 167.482 234.922 166.572C235.18 165.74 235.445 165.012 235.614 164.364C235.784 163.699 235.904 163.022 235.975 162.34Z" fill="#FF9A6C"/>
<path d="M237.954 166.963C238.074 167.179 238.159 167.412 238.205 167.655C238.337 168.104 238.514 168.766 238.676 169.59C238.875 170.56 238.994 171.545 239.029 172.534C239.092 173.772 238.865 175.007 238.366 176.141C237.787 177.227 237.02 178.201 236.1 179.019C235.368 179.685 234.588 180.298 233.766 180.851C233.067 181.33 232.478 181.683 232.066 181.911C231.864 182.048 231.643 182.157 231.411 182.235C231.374 182.183 232.258 181.624 233.619 180.63C234.409 180.056 235.161 179.431 235.871 178.761C236.746 177.961 237.478 177.018 238.035 175.972C238.507 174.889 238.731 173.715 238.69 172.534C238.673 171.56 238.585 170.589 238.425 169.627C238.138 167.986 237.895 166.978 237.954 166.963Z" fill="#263238"/>
<path d="M182.423 142.46C182.117 142.28 181.831 142.068 181.57 141.827L179.362 139.98L177.831 138.692C177.569 138.447 177.277 138.237 176.962 138.066C176.81 137.988 176.641 137.947 176.469 137.947C176.298 137.947 176.129 137.988 175.976 138.066C175.343 138.397 174.916 139.207 174.379 139.884C173.842 140.561 173.312 141.356 172.752 142.092C171.869 143.284 171.008 144.425 170.221 145.485L169.742 146.118L169.897 145.338C170.319 143.149 170.932 141.001 171.729 138.92C172.024 138.184 172.289 137.551 172.465 137.146C172.548 136.929 172.66 136.723 172.797 136.535C172.746 136.76 172.675 136.979 172.583 137.19C172.429 137.61 172.2 138.221 171.935 139.001C171.216 141.093 170.652 143.236 170.25 145.411L169.919 145.264L172.443 141.864L174.07 139.656L174.85 138.618C175.098 138.249 175.431 137.946 175.822 137.735C176.026 137.645 176.248 137.603 176.471 137.612C176.695 137.621 176.913 137.681 177.11 137.786C177.444 137.975 177.753 138.205 178.03 138.471L179.502 139.796L181.651 141.731C181.927 141.953 182.185 142.197 182.423 142.46Z" fill="#263238"/>
<path d="M213.497 136.242C213.412 136.339 213.315 136.425 213.21 136.5L212.341 137.177L209.096 139.613L198.269 147.584L198.107 147.702L197.997 147.532C197.909 147.4 197.82 147.253 197.725 147.113L192.293 138.531L192.492 138.597C190.399 139.429 188.38 140.436 186.456 141.608C185.765 142.027 185.227 142.344 184.859 142.616C184.68 142.751 184.488 142.867 184.285 142.962C184.441 142.8 184.614 142.654 184.8 142.528C185.154 142.27 185.676 141.895 186.361 141.446C188.259 140.21 190.27 139.155 192.366 138.296L192.492 138.244L192.565 138.355C194.162 140.835 196.039 143.772 198.048 146.907C198.144 147.047 198.232 147.194 198.321 147.326L198.041 147.275L208.941 139.4L212.253 137.052L213.166 136.434C213.379 136.294 213.49 136.228 213.497 136.242Z" fill="#263238"/>
<path d="M147.444 165.512C147.477 165.681 147.492 165.854 147.488 166.027C147.488 166.41 147.488 166.903 147.525 167.499C147.525 168.831 147.591 170.693 147.628 172.975C147.716 177.597 147.9 184.015 148.143 191.044C148.386 198.072 148.526 204.49 148.54 209.12C148.54 211.438 148.54 213.308 148.54 214.603C148.54 215.214 148.54 215.714 148.503 216.075C148.511 216.25 148.499 216.425 148.467 216.597C148.456 216.423 148.456 216.249 148.467 216.075C148.467 215.7 148.467 215.199 148.422 214.603C148.422 213.263 148.364 211.401 148.319 209.127C148.238 204.498 148.047 198.087 147.812 191.051C147.576 184.015 147.429 177.604 147.414 172.975C147.414 170.664 147.414 168.787 147.414 167.499C147.414 166.881 147.414 166.388 147.414 166.027C147.413 165.855 147.423 165.683 147.444 165.512Z" fill="#263238"/>
<path d="M182.666 231.988C182.642 231.922 182.627 231.852 182.622 231.782C182.622 231.62 182.622 231.414 182.556 231.156C182.497 230.575 182.416 229.773 182.32 228.75C182.114 226.659 181.879 223.598 181.643 219.881C181.408 216.164 181.209 211.66 181.084 206.699C180.959 201.738 180.944 196.27 181.084 190.507C181.224 184.744 181.481 179.32 181.82 174.367C182.158 169.413 182.556 164.953 182.953 161.222C183.351 157.49 183.689 154.465 184.013 152.39C184.16 151.367 184.271 150.572 184.352 149.998C184.396 149.74 184.425 149.534 184.455 149.372C184.458 149.301 184.473 149.232 184.499 149.166C184.51 149.237 184.51 149.309 184.499 149.379C184.499 149.541 184.462 149.747 184.44 150.005C184.374 150.579 184.285 151.381 184.168 152.404C183.917 154.495 183.594 157.512 183.233 161.236C182.872 164.961 182.497 169.428 182.18 174.381C181.864 179.335 181.621 184.788 181.489 190.514C181.356 196.241 181.393 201.694 181.489 206.655C181.584 211.616 181.768 216.076 181.974 219.822C182.18 223.568 182.364 226.608 182.526 228.698C182.593 229.721 182.651 230.531 182.688 231.112C182.688 231.37 182.688 231.576 182.725 231.738C182.712 231.823 182.693 231.906 182.666 231.988Z" fill="#263238"/>
<path d="M160.735 111.519L159.954 112.035L157.658 113.507C156.642 114.162 155.45 115.096 154.052 116.127C153.316 116.657 152.639 117.297 151.844 117.945L150.644 118.953C150.232 119.306 149.842 119.689 149.422 120.094C145.352 123.891 141.776 128.186 138.78 132.878L137.47 134.983C137.006 135.682 136.653 136.455 136.226 137.191C135.799 137.927 135.379 138.722 134.997 139.532C134.614 140.341 134.261 141.173 133.863 142.012C133.679 142.431 133.473 142.844 133.297 143.278C133.12 143.712 132.965 144.154 132.796 144.603C132.465 145.486 132.112 146.376 131.788 147.296C131.243 149.158 130.551 151.043 130.139 153.052C128.041 161.746 127.691 170.769 129.109 179.599C130.954 190.97 135.715 201.668 142.928 210.65C150.141 219.632 159.559 226.591 170.264 230.847C180.968 235.103 192.593 236.512 204.004 234.936C215.415 233.36 226.223 228.852 235.372 221.853C237.682 220.078 239.88 218.16 241.952 216.112L243.424 214.552C243.925 214.037 244.41 213.514 244.896 212.962L246.295 211.35C246.736 210.791 247.17 210.232 247.612 209.68C254.27 201.105 258.711 191.021 260.544 180.321C260.974 177.836 261.267 175.33 261.419 172.814C261.493 171.57 261.493 170.341 261.537 169.134C261.581 167.926 261.449 166.697 261.405 165.498C261.405 164.902 261.353 164.298 261.331 163.702C261.309 163.106 261.199 162.524 261.14 161.935C260.993 160.765 260.853 159.602 260.713 158.454C260.573 157.306 260.271 156.187 260.05 155.069C259.866 153.959 259.62 152.861 259.314 151.779L258.402 148.592C258.259 148.069 258.084 147.555 257.879 147.054C257.688 146.546 257.497 146.038 257.313 145.537C256.922 144.544 256.577 143.528 256.157 142.593C255.737 141.659 255.281 140.709 254.847 139.789C251.646 133.135 247.352 127.065 242.144 121.831C238.197 117.91 233.794 114.477 229.028 111.608L226.217 109.996C225.792 109.747 225.355 109.521 224.906 109.319L223.67 108.73L221.462 107.685C220.8 107.346 220.145 107.155 219.593 106.949L217.031 105.963L216.163 105.609L217.046 105.926L219.615 106.883C220.174 107.103 220.829 107.295 221.499 107.619L223.707 108.649L224.951 109.238C225.401 109.435 225.841 109.656 226.268 109.9L229.087 111.505C233.884 114.356 238.315 117.782 242.283 121.706C247.523 126.936 251.847 133.009 255.075 139.671C255.509 140.606 255.951 141.541 256.4 142.498C256.849 143.454 257.136 144.463 257.563 145.442L258.137 146.958C258.342 147.462 258.516 147.978 258.659 148.503C258.969 149.563 259.278 150.623 259.587 151.705C259.906 152.791 260.164 153.895 260.36 155.01C260.58 156.128 260.845 157.218 261.037 158.403C261.228 159.588 261.316 160.728 261.464 161.906C261.53 162.495 261.625 163.084 261.662 163.68C261.699 164.276 261.714 164.879 261.736 165.483C261.78 166.69 261.846 167.904 261.876 169.163C261.905 170.422 261.839 171.629 261.758 172.843C261.006 186.316 256.172 199.241 247.899 209.901L246.56 211.579L245.146 213.205C244.69 213.757 244.197 214.287 243.674 214.802L242.202 216.377C240.117 218.437 237.905 220.365 235.578 222.148C226.385 229.176 215.527 233.701 204.063 235.284C192.599 236.867 180.921 235.452 170.167 231.178C159.413 226.904 149.95 219.916 142.7 210.896C135.45 201.876 130.661 191.132 128.8 179.71C128.053 175.106 127.806 170.434 128.064 165.777C128.249 161.482 128.868 157.216 129.911 153.045C130.323 151.028 131.022 149.144 131.567 147.267C131.898 146.354 132.259 145.456 132.597 144.566C132.767 144.124 132.936 143.683 133.098 143.241C133.26 142.799 133.488 142.395 133.672 141.968C134.062 141.129 134.408 140.304 134.813 139.487C135.217 138.67 135.652 137.912 136.057 137.14C136.461 136.367 136.844 135.601 137.308 134.895L138.633 132.79C141.644 128.091 145.249 123.799 149.356 120.02C149.776 119.63 150.166 119.233 150.578 118.879L151.785 117.871C152.58 117.231 153.257 116.598 153.993 116.068C155.428 115.038 156.606 114.118 157.629 113.47L159.947 111.998C160.448 111.674 160.735 111.519 160.735 111.519Z" fill="#263238"/>
</svg>
