<svg width="383" height="383" viewBox="0 0 383 383" fill="none" xmlns="http://www.w3.org/2000/svg">
<path d="M357.176 360.579C357.176 360.686 281.281 360.778 187.676 360.778C94.0708 360.778 18.1602 360.686 18.1602 360.579C18.1602 360.472 94.0401 360.38 187.676 360.38C281.312 360.38 357.176 360.464 357.176 360.579Z" fill="#263238"/>
<path d="M299.781 315.738C288.291 310.873 275.062 301.306 269.141 289.579C281.86 294.845 292.585 304.002 299.781 315.738Z" fill="#263238"/>
<path d="M297.347 297.53C285.857 292.673 272.628 283.106 266.707 271.371C279.423 276.642 290.147 285.798 297.347 297.53Z" fill="#263238"/>
<path d="M294.031 279.827C282.541 274.963 269.312 265.396 263.391 253.668C275.746 258.632 286.639 267.939 294.031 279.827Z" fill="#263238"/>
<path d="M289.877 261.29C279.069 254.879 267.02 243.557 262.531 231.125C274.54 238.118 284.092 248.655 289.877 261.29Z" fill="#263238"/>
<path d="M285.434 247.112C277.56 236.809 270.221 221.481 270.313 208.199C279.068 219.402 284.327 232.937 285.434 247.112Z" fill="#263238"/>
<path d="M287.633 253.852C289.226 239.926 294.642 222.446 303.841 211.967C302.288 227.129 296.69 241.595 287.633 253.852Z" fill="#263238"/>
<path d="M291.34 269.088C294.143 254.726 301.229 236.97 311.669 226.897C308.81 242.533 301.786 257.108 291.34 269.088Z" fill="#263238"/>
<path d="M295.594 287.664C298.397 273.309 305.483 255.545 315.931 245.472C313.073 261.11 306.047 275.687 295.594 287.664Z" fill="#263238"/>
<path d="M299.008 310.475C301.811 296.113 308.897 278.357 319.337 268.284C316.479 283.92 309.456 298.496 299.008 310.475Z" fill="#263238"/>
<path d="M284.898 244.354C284.898 244.354 284.937 244.423 284.99 244.568C285.044 244.714 285.121 244.944 285.205 245.204L285.971 247.694C286.66 249.854 287.587 252.994 288.683 256.886C289.778 260.777 290.981 265.457 292.229 270.674C293.478 275.89 294.696 281.643 295.845 287.717C296.994 293.792 297.913 299.613 298.663 304.914C299.414 310.215 299.966 315.017 300.364 319.047C300.762 323.076 301.038 326.339 301.184 328.606C301.25 329.709 301.304 330.575 301.344 331.203C301.344 331.479 301.344 331.701 301.344 331.885C301.358 331.961 301.358 332.039 301.344 332.115C301.325 332.039 301.312 331.962 301.306 331.885C301.306 331.709 301.26 331.486 301.23 331.211C301.168 330.583 301.092 329.717 300.984 328.614C300.785 326.362 300.464 323.099 300.027 319.077C299.59 315.056 298.985 310.276 298.235 304.975C297.484 299.674 296.519 293.868 295.385 287.801C294.251 281.735 293.003 275.982 291.808 270.766C290.613 265.549 289.41 260.884 288.353 256.978C287.296 253.071 286.415 249.915 285.779 247.74C285.481 246.683 285.243 245.84 285.067 245.235C284.998 244.967 284.937 244.752 284.891 244.576C284.883 244.502 284.886 244.427 284.898 244.354Z" fill="#263238"/>
<path d="M305.358 323.321C300.501 313.148 296.97 298.809 299.352 287.679C304.788 298.72 306.875 311.109 305.358 323.321Z" fill="#455A64"/>
<path d="M313.44 310.146C308.583 299.973 305.052 285.672 307.434 274.504C312.87 285.544 314.957 297.934 313.44 310.146Z" fill="#455A64"/>
<path d="M320.686 296.748C315.829 286.576 312.298 272.275 314.68 261.106C320.116 272.147 322.203 284.536 320.686 296.748Z" fill="#455A64"/>
<path d="M327.848 282.302C324.232 271.539 322.417 256.855 326.109 246.116C330.182 257.754 330.786 270.326 327.848 282.302Z" fill="#455A64"/>
<path d="M332.445 270.474C332.805 258.984 336.176 244.668 343.284 236.211C343.13 248.452 339.359 260.373 332.445 270.474Z" fill="#455A64"/>
<path d="M330.328 276.158C338.754 268.2 351.569 260.31 363.082 259.306C354.07 268.038 342.672 273.902 330.328 276.158Z" fill="#455A64"/>
<path d="M324.645 288.207C334.089 280.724 348.115 273.699 360.248 273.653C350.086 281.927 337.693 286.993 324.645 288.207Z" fill="#455A64"/>
<path d="M317.547 302.738C326.992 295.255 341.017 288.23 353.151 288.184C342.99 296.462 330.596 301.528 317.547 302.738Z" fill="#455A64"/>
<path d="M307.648 319.468C317.093 311.984 331.126 304.96 343.252 304.914C333.092 313.193 320.698 318.259 307.648 319.468Z" fill="#455A64"/>
<path d="M333.58 268.399C333.58 268.399 333.58 268.46 333.526 268.583L333.334 269.126C333.135 269.632 332.875 270.314 332.568 271.187C331.879 272.972 330.83 275.538 329.504 278.686C326.808 284.983 322.817 293.577 317.854 302.784C315.372 307.38 312.882 311.701 310.546 315.584C308.21 319.468 306.011 322.907 304.112 325.757C302.212 328.606 300.642 330.897 299.516 332.444C298.972 333.21 298.543 333.8 298.221 334.236L297.876 334.696C297.8 334.796 297.754 334.849 297.746 334.842L297.846 334.665L298.152 334.183L299.378 332.352C300.458 330.766 301.99 328.461 303.851 325.588C305.712 322.716 307.865 319.261 310.201 315.385C312.538 311.509 314.943 307.166 317.425 302.57C322.381 293.378 326.41 284.814 329.175 278.548C330.562 275.423 331.657 272.872 332.385 271.103C332.752 270.252 333.043 269.571 333.25 269.08C333.35 268.866 333.426 268.697 333.488 268.552C333.549 268.406 333.572 268.391 333.58 268.399Z" fill="#263238"/>
<path d="M328.5 324.547H280.234V333.853H285.19L289.373 360.38H319.208L323.498 333.853H328.5V324.547Z" fill="#EB996E"/>
<path d="M328.499 333.654C328.499 333.532 317.775 333.432 304.539 333.432C291.302 333.432 280.578 333.532 280.578 333.654C280.578 333.777 291.302 333.876 304.539 333.876C317.775 333.876 328.499 333.777 328.499 333.654Z" fill="#263238"/>
<path d="M320.8 35.4888H95.7262C90.84 35.4888 86.8789 39.4498 86.8789 44.3361V195.805C86.8789 200.691 90.84 204.652 95.7262 204.652H320.8C325.686 204.652 329.647 200.691 329.647 195.805V44.3361C329.647 39.4498 325.686 35.4888 320.8 35.4888Z" fill="#E0E0E0"/>
<path d="M329.647 44.336C329.647 44.336 329.647 44.1599 329.609 43.8152C329.578 43.2982 329.498 42.7852 329.371 42.2832C328.887 40.2866 327.715 38.5242 326.062 37.3042C325.495 36.8755 324.878 36.5179 324.224 36.2394C323.487 35.9381 322.715 35.7347 321.926 35.6343C321.063 35.5511 320.195 35.523 319.329 35.55H316.51H302.914L216.264 35.619H156.424H96.7601C96.0209 35.5954 95.281 35.6261 94.5463 35.7109C93.8177 35.8085 93.1047 35.999 92.4245 36.2777C91.0546 36.8476 89.8524 37.7571 88.9315 38.9204C88.0033 40.0891 87.3983 41.4812 87.1774 42.9572C87.077 43.7009 87.0386 44.4516 87.0625 45.2016V47.4996C87.0625 50.5636 87.0625 53.6429 87.0625 56.7376V75.5659C87.0625 88.2304 87.0625 101.145 87.0625 114.31V195.79C87.0736 196.642 87.1972 197.49 87.4302 198.31C87.9246 199.95 88.8932 201.406 90.2141 202.497C91.5349 203.587 93.1489 204.263 94.8527 204.438C95.6953 204.499 96.5686 204.476 97.4341 204.476H239.221L307.931 204.522H319.873C320.522 204.539 321.171 204.521 321.818 204.468C322.452 204.39 323.076 204.246 323.68 204.039C324.875 203.623 325.965 202.95 326.874 202.069C327.783 201.188 328.489 200.119 328.942 198.938C329.374 197.762 329.569 196.512 329.517 195.261C329.517 194.005 329.517 192.749 329.517 191.5C329.517 181.522 329.517 171.952 329.517 162.79C329.517 126.206 329.57 96.6002 329.586 76.1404C329.586 65.9143 329.586 57.9708 329.586 52.5859C329.586 57.9479 329.586 65.9143 329.624 76.1404C329.624 96.6002 329.662 126.206 329.685 162.79C329.685 171.936 329.685 181.506 329.685 191.5V195.261C329.736 196.549 329.533 197.835 329.088 199.045C328.622 200.273 327.892 201.383 326.949 202.298C326.007 203.212 324.875 203.909 323.634 204.338C323.009 204.559 322.362 204.708 321.704 204.782C321.046 204.84 320.387 204.863 319.727 204.851H307.931H239.251H163.341H97.4648C96.5915 204.851 95.7413 204.851 94.8451 204.813C93.9645 204.711 93.1015 204.492 92.279 204.162C91.4528 203.817 90.6792 203.358 89.981 202.798C89.2986 202.227 88.698 201.565 88.1962 200.83C87.7085 200.085 87.327 199.275 87.0625 198.425C86.8139 197.568 86.6825 196.682 86.6718 195.79C86.6718 167.884 86.6718 140.638 86.6718 114.31V75.5659C86.6718 69.2387 86.6718 62.9779 86.6718 56.7835V45.2935C86.646 44.5257 86.6845 43.757 86.7867 42.9955C87.0196 41.4566 87.6537 40.0062 88.6251 38.7902C89.5851 37.5609 90.8463 36.6005 92.2866 36.002C92.9958 35.7101 93.74 35.5118 94.5004 35.4121C95.2502 35.3245 96.0056 35.2938 96.7601 35.3202H123.087H156.424H216.264L302.914 35.3815H316.51H319.352C320.224 35.3573 321.096 35.388 321.964 35.4734C322.754 35.5772 323.527 35.7859 324.262 36.0939C324.919 36.3822 325.541 36.7446 326.116 37.1739C327.07 37.8901 327.87 38.7916 328.467 39.8243C328.894 40.5874 329.202 41.4115 329.379 42.2678C329.502 42.7702 329.576 43.2832 329.601 43.7998C329.639 44.1599 329.647 44.336 329.647 44.336Z" fill="#263238"/>
<path d="M104.199 41.4559L104.199 199.949H306.936V41.4559H104.199Z" fill="white"/>
<path d="M317.445 125.877C321.028 125.877 323.933 122.972 323.933 119.389C323.933 115.806 321.028 112.901 317.445 112.901C313.862 112.901 310.957 115.806 310.957 119.389C310.957 122.972 313.862 125.877 317.445 125.877Z" fill="#263238"/>
<path d="M93.8633 95.5355V144.613C93.8633 145.129 94.2817 145.548 94.7978 145.548H95.6098C96.1259 145.548 96.5443 145.129 96.5443 144.613V95.5355C96.5443 95.0193 96.1259 94.6009 95.6098 94.6009H94.7978C94.2817 94.6009 93.8633 95.0193 93.8633 95.5355Z" fill="#263238"/>
<path d="M123.188 40.9044H104.199V199.949H123.188V40.9044Z" fill="#46B2C8"/>
<path d="M106.014 110.105H124.015V125.915H106.014C105.773 125.918 105.534 125.873 105.311 125.783C105.087 125.692 104.884 125.558 104.713 125.389C104.542 125.219 104.406 125.017 104.314 124.794C104.222 124.572 104.175 124.333 104.176 124.092V111.92C104.176 111.68 104.223 111.442 104.316 111.22C104.409 110.998 104.545 110.797 104.716 110.628C104.887 110.459 105.089 110.326 105.312 110.236C105.535 110.146 105.774 110.102 106.014 110.105Z" fill="white"/>
<path d="M113.697 63.7848C113.241 63.7848 112.791 63.695 112.37 63.5205C111.949 63.346 111.567 63.0903 111.246 62.768C110.924 62.4457 110.669 62.0631 110.496 61.6421C110.322 61.2212 110.233 60.7701 110.234 60.3148C110.233 59.8591 110.322 59.4077 110.496 58.9863C110.669 58.5649 110.924 58.1819 111.245 57.8589C111.567 57.536 111.949 57.2796 112.369 57.1042C112.79 56.9289 113.241 56.8382 113.697 56.8372C114.156 56.8331 114.611 56.9201 115.036 57.0932C115.461 57.2662 115.847 57.5219 116.173 57.8453C116.498 58.1687 116.757 58.5535 116.933 58.9774C117.108 59.4013 117.198 59.8559 117.197 60.3148C117.197 60.7731 117.107 61.2268 116.93 61.6498C116.754 62.0728 116.496 62.4567 116.17 62.7794C115.845 63.102 115.459 63.3569 115.034 63.5295C114.609 63.7021 114.155 63.7888 113.697 63.7848Z" fill="white"/>
<path d="M116.575 76.2552C115.545 76.4512 114.495 76.5181 113.45 76.4544C112.404 76.5181 111.354 76.4512 110.324 76.2552C111.354 76.0592 112.404 75.9923 113.45 76.0561C114.495 75.9923 115.545 76.0592 116.575 76.2552Z" fill="white"/>
<path d="M117.13 93.858C116.103 94.0543 115.055 94.1212 114.012 94.0571C112.966 94.1214 111.916 94.0545 110.887 93.858C111.916 93.6569 112.966 93.5899 114.012 93.6588C115.055 93.5901 116.103 93.6571 117.13 93.858Z" fill="white"/>
<path d="M117.13 138.646C116.103 138.842 115.055 138.909 114.012 138.845C112.966 138.909 111.916 138.842 110.887 138.646C111.916 138.449 112.966 138.382 114.012 138.447C115.055 138.383 116.103 138.45 117.13 138.646Z" fill="white"/>
<path d="M117.13 161.71C116.103 161.907 115.055 161.973 114.012 161.909C112.966 161.974 111.916 161.907 110.887 161.71C111.916 161.514 112.966 161.447 114.012 161.511C115.055 161.447 116.103 161.514 117.13 161.71Z" fill="white"/>
<path d="M117.13 118.247C116.103 118.444 115.055 118.511 114.012 118.447C112.966 118.511 111.916 118.444 110.887 118.247C111.916 118.046 112.966 117.979 114.012 118.048C115.055 117.98 116.103 118.046 117.13 118.247Z" fill="#263238"/>
<path d="M306.936 199.926C306.936 198.555 306.875 136.823 306.776 40.8814L306.936 41.0499H104.214L104.414 40.8508C104.414 98.2165 104.414 152.449 104.414 199.895L104.237 199.719L306.936 199.926L104.176 200.125H104V199.926C104 152.48 104 98.2472 104 40.8814V40.6823H104.214H306.936H307.105V40.8431C307.005 136.846 306.936 198.578 306.936 199.926Z" fill="#263238"/>
<path d="M245.235 171.821H242.5V180.967H245.235V171.821Z" fill="#FF993C"/>
<path d="M222.422 170.496H219.688V180.967H222.422V170.496Z" fill="#FF993C"/>
<path d="M228.121 168.313H225.387V180.967H228.121V168.313Z" fill="#FF993C"/>
<path d="M233.828 169.01H231.094V180.975H233.828V169.01Z" fill="#FF993C"/>
<path d="M239.528 164.958H236.793V180.967H239.528V164.958Z" fill="#FF993C"/>
<path d="M250.934 165.035H248.199V180.967H250.934V165.035Z" fill="#FF993C"/>
<path d="M256.641 170.266H253.906V180.968H256.641V170.266Z" fill="#FF993C"/>
<path d="M262.34 165.739H259.605V180.967H262.34V165.739Z" fill="#FF993C"/>
<path d="M268.047 162.308H265.312V180.967H268.047V162.308Z" fill="#FF993C"/>
<path d="M273.742 165.663H271.008V180.968H273.742V165.663Z" fill="#FF993C"/>
<path d="M279.451 192.312H212.272C210.802 192.31 209.393 191.725 208.353 190.685C207.314 189.646 206.729 188.236 206.727 186.766V146.605C206.729 145.134 207.314 143.725 208.353 142.685C209.393 141.646 210.802 141.061 212.272 141.059H279.451C280.921 141.061 282.33 141.646 283.37 142.685C284.409 143.725 284.994 145.134 284.996 146.605V186.766C284.994 188.236 284.409 189.646 283.37 190.685C282.33 191.725 280.921 192.31 279.451 192.312ZM212.272 141.603C210.947 141.605 209.677 142.133 208.74 143.07C207.804 144.008 207.278 145.279 207.278 146.605V186.766C207.278 188.091 207.804 189.362 208.74 190.3C209.677 191.238 210.947 191.766 212.272 191.768H279.451C280.777 191.766 282.048 191.238 282.985 190.301C283.923 189.363 284.451 188.092 284.453 186.766V146.605C284.451 145.279 283.923 144.008 282.985 143.07C282.048 142.132 280.777 141.605 279.451 141.603H212.272Z" fill="#E0E0E0"/>
<path d="M250.52 154.41C250.52 154.487 242.745 154.556 233.162 154.556C223.58 154.556 215.805 154.487 215.805 154.41C215.805 154.334 223.572 154.272 233.162 154.272C242.753 154.272 250.52 154.334 250.52 154.41Z" fill="#E0E0E0"/>
<path d="M138.566 141.511V191.117H144.572H152.837H191.351V141.511H138.566Z" fill="#F5F5F5"/>
<path d="M164.727 147.133C161.506 147.133 158.357 148.088 155.679 149.878C153.001 151.667 150.914 154.211 149.681 157.186C148.448 160.162 148.126 163.437 148.754 166.596C149.383 169.755 150.934 172.656 153.211 174.934C155.489 177.211 158.39 178.762 161.549 179.391C164.709 180.019 167.983 179.697 170.959 178.464C173.934 177.231 176.478 175.144 178.267 172.466C180.057 169.788 181.012 166.639 181.012 163.418C181.012 159.099 179.296 154.957 176.242 151.903C173.188 148.849 169.046 147.133 164.727 147.133ZM164.972 173.177C162.994 173.177 161.06 172.591 159.415 171.492C157.771 170.394 156.488 168.832 155.731 167.005C154.973 165.178 154.774 163.167 155.159 161.227C155.544 159.287 156.495 157.505 157.892 156.105C159.29 154.705 161.071 153.751 163.011 153.363C164.95 152.976 166.961 153.172 168.789 153.927C170.618 154.681 172.181 155.961 173.282 157.604C174.383 159.247 174.973 161.18 174.976 163.158C174.978 164.473 174.72 165.776 174.219 166.991C173.717 168.207 172.98 169.311 172.051 170.242C171.122 171.172 170.018 171.911 168.804 172.414C167.589 172.918 166.287 173.177 164.972 173.177Z" fill="#276916"/>
<path d="M165 147V153.059C166.571 153.062 168.119 153.435 169.519 154.147C170.92 154.859 172.133 155.891 173.06 157.158C173.988 158.426 174.604 159.894 174.859 161.444C175.115 162.994 175.001 164.583 174.529 166.081L180.435 167.682C181.107 165.281 181.219 162.759 180.762 160.308C180.306 157.857 179.293 155.544 177.802 153.546C176.311 151.548 174.382 149.919 172.162 148.784C169.943 147.649 167.493 147.039 165 147Z" fill="#81DD6A"/>
<path d="M154.968 163.158C154.967 161.225 155.527 159.333 156.579 157.711C157.631 156.089 159.131 154.807 160.896 154.02L158.392 148.397C155.44 149.642 152.921 151.729 151.15 154.398C149.378 157.067 148.434 160.2 148.434 163.403C148.434 163.633 148.434 163.863 148.434 164.085H154.991C154.967 163.776 154.96 163.467 154.968 163.158Z" fill="#2A5C1D"/>
<path d="M164.971 173.177C164.26 173.179 163.551 173.102 162.857 172.947C162.604 174.403 162.091 177.214 161.754 179.428C162.734 179.609 163.729 179.701 164.726 179.704C168.281 179.703 171.738 178.541 174.57 176.393C177.402 174.245 179.454 171.23 180.414 167.808L174.508 166.222C173.861 168.243 172.589 170.006 170.875 171.256C169.16 172.506 167.093 173.179 164.971 173.177Z" fill="#81DD6A"/>
<g opacity="0.3">
<path d="M164.971 173.177C164.26 173.179 163.551 173.102 162.857 172.947C162.604 174.403 162.091 177.214 161.754 179.428C162.734 179.609 163.729 179.701 164.726 179.704C168.281 179.703 171.738 178.541 174.57 176.393C177.402 174.245 179.454 171.23 180.414 167.808L174.508 166.222C173.861 168.243 172.589 170.006 170.875 171.256C169.16 172.506 167.093 173.179 164.971 173.177Z" fill="black"/>
</g>
<path d="M162.811 163.985H162.205V164.751H161.37V163.985H159.379V163.403L161.125 161.059H162.022L160.405 163.28H161.401V162.591H162.167V163.28H162.772L162.811 163.985Z" fill="#263238"/>
<path d="M163.066 162.905C163.066 161.687 163.74 160.998 164.652 160.998C165.564 160.998 166.238 161.687 166.238 162.905C166.238 164.123 165.571 164.82 164.652 164.82C163.733 164.82 163.066 164.131 163.066 162.905ZM165.364 162.905C165.364 162.07 165.066 161.718 164.598 161.718C164.131 161.718 163.878 162.07 163.878 162.905C163.878 163.74 164.177 164.1 164.598 164.1C165.02 164.1 165.38 163.748 165.38 162.905H165.364Z" fill="#263238"/>
<path d="M166.587 162.04C166.573 161.91 166.587 161.778 166.627 161.654C166.667 161.53 166.733 161.416 166.821 161.319C166.908 161.222 167.015 161.145 167.135 161.092C167.254 161.039 167.384 161.012 167.514 161.013C167.72 160.993 167.928 161.036 168.109 161.136C168.29 161.236 168.437 161.388 168.53 161.573C168.624 161.758 168.659 161.967 168.631 162.172C168.603 162.377 168.514 162.569 168.376 162.723C168.237 162.876 168.055 162.984 167.854 163.033C167.652 163.081 167.441 163.067 167.248 162.994C167.054 162.92 166.888 162.789 166.77 162.619C166.652 162.449 166.588 162.247 166.587 162.04ZM167.897 162.04C167.897 161.641 167.744 161.45 167.514 161.45C167.284 161.45 167.124 161.649 167.124 162.04C167.124 162.43 167.284 162.622 167.514 162.622C167.744 162.622 167.897 162.43 167.897 162.04ZM169.713 161.059H170.348L167.821 164.759H167.185L169.713 161.059ZM169.108 163.778C169.127 163.6 169.198 163.431 169.311 163.292C169.425 163.153 169.576 163.05 169.747 162.995C169.918 162.941 170.101 162.937 170.274 162.984C170.447 163.032 170.603 163.128 170.722 163.263C170.841 163.397 170.919 163.563 170.946 163.74C170.972 163.918 170.947 164.099 170.872 164.262C170.798 164.426 170.678 164.564 170.526 164.66C170.375 164.757 170.199 164.807 170.019 164.805C169.889 164.805 169.761 164.777 169.643 164.724C169.525 164.671 169.419 164.593 169.333 164.496C169.247 164.399 169.182 164.285 169.144 164.161C169.105 164.038 169.092 163.907 169.108 163.778ZM170.41 163.778C170.41 163.388 170.257 163.196 170.019 163.196C169.782 163.196 169.636 163.388 169.636 163.778C169.636 164.169 169.797 164.368 170.019 164.368C170.241 164.368 170.41 164.169 170.41 163.778Z" fill="#263238"/>
<path d="M178.209 183.84C178.209 183.924 172.173 183.993 164.728 183.993C157.282 183.993 151.254 183.924 151.254 183.84C151.254 183.756 157.282 183.679 164.728 183.679C172.173 183.679 178.209 183.725 178.209 183.84Z" fill="#263238"/>
<path d="M172.202 186.291C172.202 186.375 168.855 186.444 164.726 186.444C160.597 186.444 157.25 186.375 157.25 186.291C157.25 186.207 160.597 186.13 164.726 186.13C168.855 186.13 172.202 186.207 172.202 186.291Z" fill="#263238"/>
<path d="M295.729 68.8021H294.963H292.665H283.711L250.359 68.9399L137.205 69.0089L137.481 68.8097C137.481 77.703 137.481 86.9256 137.481 96.3857C137.481 106.114 137.481 115.605 137.481 124.774L137.205 124.575L249.57 124.643L282.623 124.705L291.501 124.743H293.799H294.565C294.565 124.743 294.304 124.743 293.799 124.743H291.501H282.623L249.57 124.804L137.205 124.873H136.93V124.674C136.93 115.482 136.93 106.014 136.93 96.2861C136.93 86.849 136.93 77.6264 136.93 68.7101V68.511H137.205L250.359 68.5799L283.665 68.6412H292.619H294.917L295.729 68.8021Z" fill="#E0E0E0"/>
<path d="M295.727 78.2239C295.727 78.3312 260.238 78.4231 216.469 78.4231C172.7 78.4231 137.203 78.3312 137.203 78.2239C137.203 78.1167 172.684 78.0171 216.469 78.0171C260.253 78.0171 295.727 78.132 295.727 78.2239Z" fill="#E0E0E0"/>
<path d="M295.727 85.9298C295.727 86.0371 260.238 86.129 216.469 86.129C172.7 86.129 137.203 86.0371 137.203 85.9298C137.203 85.8226 172.684 85.723 216.469 85.723C260.253 85.723 295.727 85.792 295.727 85.9298Z" fill="#E0E0E0"/>
<path d="M295.727 93.6357C295.727 93.743 260.238 93.8349 216.469 93.8349C172.7 93.8349 137.203 93.743 137.203 93.6357C137.203 93.5285 172.684 93.4519 216.469 93.4519C260.253 93.4519 295.727 93.5208 295.727 93.6357Z" fill="#E0E0E0"/>
<path d="M295.727 101.342C295.727 101.449 260.238 101.541 216.469 101.541C172.7 101.541 137.203 101.449 137.203 101.342C137.203 101.235 172.684 101.112 216.469 101.112C260.253 101.112 295.727 101.227 295.727 101.342Z" fill="#E0E0E0"/>
<path d="M295.727 109.048C295.727 109.155 260.238 109.247 216.469 109.247C172.7 109.247 137.203 109.155 137.203 109.048C137.203 108.941 172.684 108.841 216.469 108.841C260.253 108.841 295.727 108.933 295.727 109.048Z" fill="#E0E0E0"/>
<path d="M137.203 116.746C137.203 116.639 172.692 116.547 216.461 116.547C260.23 116.547 295.727 116.639 295.727 116.746C295.727 116.853 260.246 116.953 216.461 116.953C172.677 116.953 137.203 116.861 137.203 116.746Z" fill="#E0E0E0"/>
<path d="M159.672 125.624C159.557 125.624 159.473 112.916 159.473 97.236C159.473 81.556 159.557 68.8328 159.672 68.8328C159.787 68.8328 159.879 81.5484 159.879 97.236C159.879 112.924 159.787 125.624 159.672 125.624Z" fill="#E0E0E0"/>
<path d="M182.508 125.624C182.393 125.624 182.301 112.916 182.301 97.236C182.301 81.556 182.393 68.8328 182.508 68.8328C182.622 68.8328 182.707 81.5484 182.707 97.236C182.707 112.924 182.615 125.624 182.508 125.624Z" fill="#E0E0E0"/>
<path d="M205.332 125.624C205.225 125.624 205.133 112.916 205.133 97.236C205.133 81.556 205.225 68.8328 205.332 68.8328C205.439 68.8328 205.539 81.5484 205.539 97.236C205.539 112.924 205.447 125.624 205.332 125.624Z" fill="#E0E0E0"/>
<path d="M228.168 125.624C228.053 125.624 227.961 112.916 227.961 97.236C227.961 81.556 228.053 68.8328 228.168 68.8328C228.283 68.8328 228.367 81.5484 228.367 97.236C228.367 112.924 228.267 125.624 228.168 125.624Z" fill="#E0E0E0"/>
<path d="M250.996 125.624C250.889 125.624 250.797 112.916 250.797 97.236C250.797 81.556 250.889 68.8328 250.996 68.8328C251.103 68.8328 251.203 81.5484 251.203 97.236C251.203 112.924 251.111 125.624 250.996 125.624Z" fill="#E0E0E0"/>
<path d="M273.101 125.624C272.986 125.624 272.895 112.916 272.895 97.236C272.895 81.556 272.986 68.8328 273.101 68.8328C273.216 68.8328 273.301 81.5484 273.301 97.236C273.301 112.924 273.209 125.624 273.101 125.624Z" fill="#E0E0E0"/>
<path d="M295.93 125.624C295.822 125.624 295.73 112.916 295.73 97.236C295.73 81.556 295.822 68.8328 295.93 68.8328C296.037 68.8328 296.136 81.5484 296.136 97.236C296.136 112.924 296.045 125.624 295.93 125.624Z" fill="#E0E0E0"/>
<path d="M161.066 116.746C161.067 117.022 160.987 117.292 160.834 117.523C160.682 117.753 160.465 117.933 160.21 118.04C159.956 118.146 159.675 118.175 159.404 118.122C159.133 118.069 158.884 117.937 158.688 117.742C158.493 117.548 158.359 117.299 158.305 117.029C158.25 116.758 158.277 116.477 158.383 116.222C158.488 115.967 158.667 115.749 158.896 115.595C159.126 115.442 159.395 115.36 159.671 115.36C160.04 115.36 160.393 115.505 160.655 115.765C160.916 116.025 161.064 116.378 161.066 116.746Z" fill="#46B2C8"/>
<path d="M183.894 101.342C183.894 101.618 183.812 101.888 183.658 102.117C183.505 102.347 183.286 102.525 183.031 102.63C182.776 102.736 182.495 102.763 182.225 102.709C181.954 102.654 181.706 102.521 181.511 102.325C181.316 102.129 181.184 101.88 181.131 101.609C181.078 101.338 181.107 101.058 181.214 100.803C181.32 100.548 181.5 100.331 181.731 100.179C181.961 100.027 182.231 99.9461 182.507 99.9477C182.69 99.9477 182.871 99.9838 183.04 100.054C183.208 100.124 183.361 100.227 183.49 100.356C183.619 100.486 183.721 100.64 183.79 100.809C183.86 100.978 183.895 101.159 183.894 101.342Z" fill="#46B2C8"/>
<path d="M206.726 108.91C206.727 109.186 206.647 109.456 206.495 109.687C206.342 109.917 206.125 110.097 205.87 110.203C205.616 110.31 205.335 110.339 205.064 110.286C204.793 110.233 204.544 110.101 204.349 109.906C204.153 109.711 204.019 109.463 203.965 109.192C203.91 108.922 203.938 108.641 204.043 108.386C204.148 108.131 204.327 107.912 204.556 107.759C204.786 107.605 205.056 107.523 205.332 107.523C205.699 107.525 206.052 107.672 206.313 107.931C206.573 108.191 206.722 108.542 206.726 108.91Z" fill="#46B2C8"/>
<path d="M229.417 92.6859C229.687 92.9561 229.839 93.3226 229.839 93.7047C229.839 94.0868 229.687 94.4533 229.417 94.7235C229.146 94.9937 228.78 95.1455 228.398 95.1455C228.016 95.1455 227.649 94.9937 227.379 94.7235C227.109 94.4533 226.957 94.0868 226.957 93.7047C226.957 93.3226 227.109 92.9561 227.379 92.6859C227.649 92.4157 228.016 92.2639 228.398 92.2639C228.78 92.2639 229.146 92.4157 229.417 92.6859Z" fill="#46B2C8"/>
<path d="M252.51 92.6859C252.644 92.8197 252.75 92.9785 252.823 93.1533C252.895 93.3281 252.932 93.5155 252.932 93.7047C252.932 93.8939 252.895 94.0812 252.823 94.256C252.75 94.4308 252.644 94.5897 252.51 94.7235C252.377 94.8573 252.218 94.9634 252.043 95.0358C251.868 95.1082 251.681 95.1455 251.492 95.1455C251.302 95.1455 251.115 95.1082 250.94 95.0358C250.765 94.9634 250.607 94.8573 250.473 94.7235C250.203 94.4533 250.051 94.0868 250.051 93.7047C250.051 93.3226 250.203 92.9561 250.473 92.6859C250.743 92.4157 251.109 92.2639 251.492 92.2639C251.874 92.2639 252.24 92.4157 252.51 92.6859Z" fill="#46B2C8"/>
<path d="M274.112 107.807C274.382 108.077 274.534 108.443 274.534 108.826C274.534 109.208 274.382 109.574 274.112 109.844C273.842 110.115 273.475 110.266 273.093 110.266C272.711 110.266 272.345 110.115 272.074 109.844C271.804 109.574 271.652 109.208 271.652 108.826C271.652 108.443 271.804 108.077 272.074 107.807C272.345 107.537 272.711 107.385 273.093 107.385C273.475 107.385 273.842 107.537 274.112 107.807Z" fill="#46B2C8"/>
<path d="M183.894 85.9298C183.894 86.2058 183.812 86.4757 183.658 86.7051C183.505 86.9345 183.286 87.1132 183.031 87.2185C182.776 87.3238 182.495 87.3509 182.225 87.2965C181.954 87.2421 181.706 87.1086 181.511 86.9128C181.316 86.7171 181.184 86.468 181.131 86.197C181.078 85.9261 181.107 85.6456 181.214 85.391C181.32 85.1363 181.5 84.9191 181.731 84.7669C181.961 84.6146 182.231 84.5341 182.507 84.5357C182.69 84.5357 182.871 84.5718 183.04 84.6419C183.208 84.7121 183.361 84.8149 183.49 84.9445C183.619 85.074 183.721 85.2278 183.79 85.3969C183.86 85.566 183.895 85.7471 183.894 85.9298Z" fill="#455A64"/>
<path d="M161.066 109.048C161.066 109.323 160.984 109.593 160.831 109.822C160.677 110.051 160.46 110.23 160.205 110.336C159.95 110.441 159.67 110.469 159.399 110.415C159.129 110.361 158.881 110.228 158.686 110.033C158.491 109.839 158.358 109.59 158.304 109.32C158.25 109.049 158.278 108.769 158.383 108.514C158.489 108.259 158.668 108.042 158.897 107.889C159.126 107.735 159.396 107.654 159.671 107.654C160.041 107.654 160.396 107.8 160.657 108.062C160.919 108.323 161.066 108.678 161.066 109.048Z" fill="#455A64"/>
<path d="M274.12 115.735C274.366 116.009 274.497 116.368 274.487 116.737C274.477 117.105 274.325 117.456 274.064 117.716C273.803 117.976 273.451 118.126 273.083 118.136C272.714 118.145 272.356 118.012 272.082 117.765C271.836 117.49 271.705 117.132 271.715 116.763C271.726 116.394 271.877 116.044 272.139 115.784C272.4 115.523 272.751 115.373 273.12 115.364C273.488 115.355 273.846 115.488 274.12 115.735Z" fill="#455A64"/>
<path d="M252.39 101.342C252.39 101.618 252.308 101.887 252.155 102.116C252.002 102.346 251.784 102.524 251.529 102.63C251.274 102.735 250.994 102.763 250.724 102.709C250.453 102.655 250.205 102.523 250.01 102.328C249.815 102.133 249.682 101.884 249.628 101.614C249.575 101.343 249.602 101.063 249.708 100.808C249.813 100.554 249.992 100.336 250.221 100.183C250.45 100.029 250.72 99.9477 250.996 99.9477C251.179 99.9466 251.361 99.982 251.53 100.052C251.7 100.121 251.854 100.224 251.984 100.354C252.113 100.483 252.216 100.637 252.286 100.807C252.355 100.977 252.391 101.158 252.39 101.342Z" fill="#455A64"/>
<path d="M229.8 101.112C229.801 101.388 229.721 101.658 229.569 101.889C229.416 102.119 229.199 102.299 228.945 102.405C228.69 102.512 228.41 102.541 228.139 102.488C227.868 102.435 227.618 102.303 227.423 102.108C227.227 101.913 227.093 101.665 227.039 101.394C226.985 101.124 227.012 100.843 227.117 100.588C227.222 100.333 227.401 100.114 227.63 99.961C227.86 99.8074 228.13 99.7255 228.406 99.7255C228.774 99.7275 229.126 99.8739 229.387 100.133C229.648 100.393 229.796 100.744 229.8 101.112Z" fill="#455A64"/>
<path d="M150.135 131.124C148.681 131.389 147.192 131.389 145.738 131.124C147.191 130.848 148.682 130.848 150.135 131.124Z" fill="#E0E0E0"/>
<path d="M173.475 131.124C172.021 131.389 170.532 131.389 169.078 131.124C170.531 130.848 172.022 130.848 173.475 131.124Z" fill="#E0E0E0"/>
<path d="M196.807 131.124C195.356 131.389 193.869 131.389 192.418 131.124C193.868 130.848 195.357 130.848 196.807 131.124Z" fill="#E0E0E0"/>
<path d="M220.147 131.124C218.693 131.389 217.204 131.389 215.75 131.124C217.203 130.848 218.694 130.848 220.147 131.124Z" fill="#E0E0E0"/>
<path d="M243.479 131.124C242.025 131.389 240.536 131.389 239.082 131.124C240.535 130.848 242.026 130.848 243.479 131.124Z" fill="#E0E0E0"/>
<path d="M264.354 131.124C262.9 131.389 261.411 131.389 259.957 131.124C261.41 130.848 262.901 130.848 264.354 131.124Z" fill="#E0E0E0"/>
<path d="M285.217 131.124C283.764 131.389 282.274 131.389 280.82 131.124C282.273 130.848 283.765 130.848 285.217 131.124Z" fill="#E0E0E0"/>
<path d="M133.902 124.437C133.334 124.63 132.73 124.698 132.133 124.636C131.533 124.698 130.927 124.63 130.355 124.437C130.925 124.234 131.532 124.163 132.133 124.23C132.73 124.163 133.336 124.234 133.902 124.437Z" fill="#E0E0E0"/>
<path d="M133.902 115.474C133.334 115.668 132.73 115.736 132.133 115.674C131.533 115.736 130.927 115.668 130.355 115.474C130.925 115.272 131.532 115.201 132.133 115.268C132.73 115.201 133.336 115.271 133.902 115.474Z" fill="#E0E0E0"/>
<path d="M133.902 106.512C133.334 106.706 132.73 106.774 132.133 106.711C131.533 106.774 130.927 106.706 130.355 106.512C130.925 106.31 131.532 106.239 132.133 106.305C132.73 106.239 133.336 106.309 133.902 106.512Z" fill="#E0E0E0"/>
<path d="M133.902 97.55C133.334 97.7438 132.73 97.8118 132.133 97.7492C131.533 97.8114 130.927 97.7435 130.355 97.55C130.925 97.3475 131.532 97.2767 132.133 97.3432C132.73 97.2763 133.336 97.347 133.902 97.55Z" fill="#E0E0E0"/>
<path d="M133.902 88.5878C133.334 88.7817 132.73 88.8496 132.133 88.787C131.533 88.8493 130.927 88.7813 130.355 88.5878C130.925 88.3853 131.532 88.3146 132.133 88.381C132.73 88.3141 133.336 88.3849 133.902 88.5878Z" fill="#E0E0E0"/>
<path d="M133.902 79.664C133.334 79.8578 132.73 79.9258 132.133 79.8632C131.533 79.9254 130.927 79.8575 130.355 79.664C130.925 79.4615 131.532 79.3908 132.133 79.4572C132.73 79.3903 133.336 79.4611 133.902 79.664Z" fill="#E0E0E0"/>
<path d="M133.902 70.6635C133.334 70.8573 132.73 70.9252 132.133 70.8626C131.533 70.9249 130.927 70.857 130.355 70.6635C130.926 70.4661 131.533 70.4006 132.133 70.472C132.729 70.4002 133.335 70.4657 133.902 70.6635Z" fill="#E0E0E0"/>
<path d="M137.054 125.103L136.801 124.383L159.497 116.409L182.447 100.913L205.281 108.489L228.284 93.3141L251.325 93.2528L251.425 93.3218L273.31 108.78L294.52 94.7695L294.941 95.4129L273.294 109.714L273.08 109.561L251.08 94.0188L228.514 94.0801L205.396 109.331L182.562 101.763L159.804 117.114L137.054 125.103Z" fill="#46B2C8"/>
<path d="M273.429 116.915L251.084 101.725H228.051L205.002 86.512L182.658 86.3128L159.831 109.423H137.203V108.657H159.509L182.344 85.5392L205.239 85.746L228.281 100.959H251.314L273.176 115.812L294.999 77.4579L295.666 77.8332L273.429 116.915Z" fill="#455A64"/>
<path d="M295.492 57.5955C295.492 57.7104 286.882 57.7947 276.266 57.7947C265.649 57.7947 257.039 57.7104 257.039 57.5955C257.039 57.4806 265.649 57.3964 276.266 57.3964C286.882 57.3964 295.492 57.4883 295.492 57.5955Z" fill="#263238"/>
<path d="M138.339 56.7759H136.945V55.9563H140.775V56.7759H139.381V60.3148H138.339V56.7759Z" fill="#263238"/>
<path d="M144.062 60.3148L143.243 59.0969H142.308V60.3148H141.305V55.9563H143.189C144.353 55.9563 145.081 56.5614 145.081 57.5343C145.094 57.8287 145.014 58.1198 144.853 58.367C144.693 58.6141 144.459 58.805 144.185 58.9131L145.165 60.3148H144.062ZM143.12 56.7759H142.293V58.3079H143.12C143.733 58.3079 144.047 58.0245 144.047 57.5419C144.047 57.0593 143.733 56.7759 143.12 56.7759Z" fill="#263238"/>
<path d="M149.237 59.5029V60.3148H145.859V55.9563H149.153V56.7223H146.855V57.6721H148.877V58.4381H146.855V59.4493L149.237 59.5029Z" fill="#263238"/>
<path d="M154.041 55.9563V60.3148H153.199L151.023 57.6645V60.3148H150.027V55.9563H150.901L153.076 58.599V55.9563H154.041Z" fill="#263238"/>
<path d="M155.07 55.9563H157.031C157.336 55.925 157.644 55.958 157.935 56.0532C158.227 56.1484 158.495 56.3038 158.723 56.5092C158.95 56.7146 159.132 56.9655 159.257 57.2456C159.381 57.5258 159.446 57.829 159.446 58.1356C159.446 58.4422 159.381 58.7454 159.257 59.0255C159.132 59.3057 158.95 59.5566 158.723 59.762C158.495 59.9674 158.227 60.1227 157.935 60.218C157.644 60.3132 157.336 60.3462 157.031 60.3149H155.047L155.07 55.9563ZM157.031 59.4876C157.217 59.5016 157.404 59.477 157.58 59.4154C157.756 59.3539 157.918 59.2566 158.055 59.1296C158.191 59.0027 158.301 58.8489 158.375 58.6779C158.45 58.5068 158.488 58.3222 158.488 58.1356C158.488 57.949 158.45 57.7643 158.375 57.5933C158.301 57.4222 158.191 57.2684 158.055 57.1415C157.918 57.0146 157.756 56.9173 157.58 56.8557C157.404 56.7941 157.217 56.7696 157.031 56.7836H156.112V59.4876H157.031Z" fill="#263238"/>
<path d="M100.522 159.665L97.8338 163.028V157.237H89.3465C89.3465 157.237 88.4044 170.504 88.5805 173.323C88.7567 176.142 91.9509 184.231 91.9509 184.231C95.2331 182.282 98.1305 179.748 100.5 176.754C104.268 171.913 110.534 160.102 110.534 160.102L104 156.157L100.522 159.665Z" fill="#FFBE9D"/>
<path d="M101.058 159.045C100.742 159.574 100.372 160.069 99.9552 160.523C99.2351 161.412 98.247 162.63 97.1133 163.955C95.9796 165.28 94.9072 166.437 94.0493 167.226C93.6303 167.689 93.1419 168.084 92.6016 168.398C92.9849 167.916 93.3995 167.461 93.8425 167.034C94.6085 166.199 95.6426 165.012 96.7763 163.694C99.0513 161.044 100.966 158.953 101.058 159.045Z" fill="#EB996E"/>
<path d="M100.808 137.98C100.808 137.98 98.3948 118.178 88.8351 116.156L83.8867 135.184L88.0001 148.91L101.643 147.072L100.808 137.98Z" fill="#46B2C8"/>
<path d="M37.6797 151.132L38.1316 152.549L47.4921 181.971C47.4921 181.971 70.6636 190.734 78.9824 187.287C87.3012 183.84 91.1465 178.861 91.1465 178.861L89.2928 116.233L76.0946 114.234L53.3367 112.564L38.0933 117.458L37.6797 151.132Z" fill="#46B2C8"/>
<g opacity="0.3">
<path d="M66.4047 162.599C57.7133 158.863 49.607 153.891 42.337 147.838L37.6797 150.32C41.1803 157.39 44.0988 163.84 48.9246 170.083C50.5942 172.319 52.806 174.093 55.3513 175.238C57.1813 175.884 59.1525 176.022 61.0545 175.636C62.9566 175.25 64.7184 174.355 66.1519 173.047C68.9248 170.466 71.0084 162.882 70.0968 156.701C68.5418 156.793 67.8448 163.196 66.4047 162.599Z" fill="black"/>
</g>
<path d="M90.5965 144.506C90.3124 142.376 89.7988 140.283 89.0645 138.263C88.1951 136.296 87.111 134.431 85.832 132.702C86.3347 133.1 86.776 133.57 87.1419 134.096C88.0809 135.327 88.8536 136.677 89.4399 138.11C90.0248 139.544 90.4113 141.052 90.5889 142.591C90.6851 143.225 90.6877 143.871 90.5965 144.506Z" fill="#263238"/>
<path d="M90.5578 97.757C89.9469 97.8327 89.3269 97.7409 88.7643 97.4912C88.2016 97.2416 87.7174 96.8436 87.3636 96.3399C88.1755 96.546 89.0311 96.4979 89.8148 96.202C90.5808 95.8267 90.9791 94.7313 90.3969 94.1338C89.945 93.6666 89.1943 93.7508 88.5509 93.7049C87.7947 93.6365 87.0736 93.3547 86.4714 92.8922C85.8693 92.4298 85.411 91.8057 85.1499 91.0928C84.5983 89.5148 85.0962 87.799 85.2954 86.1444C85.556 83.7248 85.1642 81.2795 84.1607 79.0624C83.1572 76.8453 81.5786 74.9372 79.5887 73.5361L69.2094 67.5613C65.4483 72.3718 64.2763 78.8674 65.0577 84.9265C65.839 90.9856 68.4051 96.6923 71.4997 101.962C72.3473 103.533 73.401 104.983 74.6327 106.275C75.873 107.571 77.5134 108.413 79.29 108.665C79.5185 107.932 79.5682 107.156 79.4349 106.4C79.3017 105.644 78.9893 104.932 78.524 104.322C79.9308 104.404 81.3397 104.201 82.6664 103.726C83.9931 103.251 85.2103 102.513 86.2452 101.556L84.0162 99.8558C85.1937 100.006 86.3898 99.8958 87.5201 99.5331C88.6505 99.1705 89.6874 98.5642 90.5578 97.757Z" fill="#263238"/>
<path d="M50.593 80.8361C50.6265 78.7496 51.3306 76.7293 52.6011 75.074C53.8716 73.4186 55.6411 72.216 57.6478 71.6441L70.6698 67.929C76.3153 67.163 80.2985 74.011 80.827 79.6871C81.4245 85.9912 81.8688 92.6478 81.2636 97.3817C80.0533 106.903 72.8376 108.335 72.8376 108.335C72.8376 108.335 72.9678 112.84 73.0444 115.612L70.9226 128.014L53.7413 113.368L50.5547 80.951C50.5547 80.7901 50.5547 81.0505 50.593 80.8361Z" fill="#FFBE9D"/>
<path d="M79.1758 86.9564C79.1885 87.2732 79.0772 87.5824 78.8655 87.8184C78.6538 88.0544 78.3584 88.1986 78.0421 88.2203C77.8877 88.2383 77.7312 88.2249 77.5821 88.1811C77.433 88.1373 77.2942 88.0638 77.1741 87.9652C77.0539 87.8665 76.9549 87.7446 76.883 87.6068C76.811 87.469 76.7676 87.3182 76.7552 87.1632C76.7405 86.8471 76.8501 86.5379 77.0605 86.3016C77.271 86.0654 77.5656 85.921 77.8812 85.8993C78.0359 85.8824 78.1924 85.8964 78.3415 85.9406C78.4907 85.9847 78.6296 86.0581 78.7501 86.1565C78.8705 86.2549 78.9702 86.3763 79.0433 86.5136C79.1164 86.651 79.1615 86.8015 79.1758 86.9564Z" fill="#263238"/>
<path d="M79.505 83.4941C79.3518 83.655 78.4173 83.0038 77.1074 83.0498C75.7976 83.0958 74.863 83.8158 74.7175 83.6167C74.572 83.4175 74.7864 83.2566 75.1924 82.9426C75.749 82.5346 76.4175 82.3073 77.1074 82.2915C77.7861 82.2642 78.4554 82.4577 79.0148 82.843C79.4284 83.1188 79.5739 83.3945 79.505 83.4941Z" fill="#263238"/>
<path d="M67.7226 86.9717C67.7353 87.2885 67.624 87.5977 67.4123 87.8337C67.2006 88.0697 66.9053 88.2139 66.589 88.2356C66.4346 88.2536 66.2781 88.2403 66.129 88.1964C65.9798 88.1526 65.841 88.0791 65.7209 87.9805C65.6008 87.8818 65.5018 87.7599 65.4298 87.6221C65.3579 87.4843 65.3144 87.3335 65.3021 87.1785C65.2874 86.8612 65.398 86.5509 65.6101 86.3144C65.8222 86.078 66.1187 85.9344 66.4358 85.9146C66.5898 85.8988 66.7455 85.9136 66.8937 85.9582C67.042 86.0029 67.18 86.0765 67.2996 86.1748C67.4193 86.2731 67.5183 86.3941 67.5909 86.5309C67.6635 86.6677 67.7083 86.8175 67.7226 86.9717Z" fill="#263238"/>
<path d="M67.0791 83.8234C66.9336 83.9919 65.9914 83.3332 64.6816 83.3791C63.3717 83.4251 62.4372 84.1451 62.2916 83.9536C62.1461 83.7621 62.3606 83.5936 62.7742 83.2719C63.328 82.8641 63.994 82.6368 64.6816 82.6208C65.3622 82.5973 66.0327 82.7904 66.5966 83.1723C67.0026 83.4941 67.1557 83.7545 67.0791 83.8234Z" fill="#263238"/>
<path d="M71.4593 93.9806C72.1428 93.7437 72.8529 93.5919 73.5735 93.5286C73.9028 93.5286 74.2169 93.4137 74.2705 93.1839C74.2851 92.8369 74.1972 92.4932 74.0177 92.1958C73.673 91.4298 73.3207 90.5642 72.953 89.6833C71.467 86.1061 70.3792 83.1647 70.5248 83.1034C70.6703 83.0421 71.9878 85.8993 73.4739 89.4765L74.5003 92.0043C74.722 92.3999 74.7979 92.8607 74.7148 93.3065C74.6701 93.4262 74.5985 93.534 74.5055 93.6216C74.4125 93.7093 74.3007 93.7744 74.1786 93.8121C73.9951 93.871 73.8044 93.9045 73.6118 93.9116C72.9004 94.0291 72.1767 94.0523 71.4593 93.9806Z" fill="#263238"/>
<path d="M60.1484 105.348C60.1484 105.348 63.4193 111.775 72.8717 110.595L72.8104 108.366C68.3915 108.554 64.0074 107.509 60.1484 105.348Z" fill="#EB996E"/>
<path d="M66.5361 79.1125C66.4212 79.4725 65.1037 79.3423 63.5793 79.5721C62.055 79.8019 60.8217 80.2615 60.6072 79.9474C60.5153 79.8019 60.7221 79.4572 61.2047 79.0972C61.8602 78.6526 62.6103 78.3667 63.3955 78.2622C64.1665 78.1487 64.9535 78.2169 65.6935 78.4614C66.291 78.6682 66.5897 78.944 66.5361 79.1125Z" fill="#263238"/>
<path d="M78.9591 79.4802C78.737 79.7866 77.8254 79.4802 76.7454 79.5262C75.6653 79.5721 74.7461 79.7866 74.5316 79.4802C74.432 79.3347 74.5316 79.0359 74.9606 78.7142C75.4884 78.3599 76.1097 78.1707 76.7454 78.1707C77.3811 78.1707 78.0024 78.3599 78.5301 78.7142C78.8978 79.0359 79.0587 79.3347 78.9591 79.4802Z" fill="#263238"/>
<path d="M66.5585 96.516C66.6428 96.1258 66.8616 95.7777 67.1767 95.5326C67.4918 95.2876 67.8831 95.1612 68.282 95.1755C68.5803 95.2011 68.8673 95.3015 69.1163 95.4675C69.3654 95.6336 69.5685 95.8599 69.7068 96.1254C69.8398 96.3863 69.9192 96.6711 69.9403 96.9632C69.9613 97.2553 69.9236 97.5487 69.8293 97.8259V97.9485C69.5666 98.2517 69.2159 98.4656 68.8261 98.5603C68.4362 98.655 68.0265 98.6259 67.6539 98.477C67.2769 98.3216 66.9635 98.0433 66.7647 97.6873C66.5658 97.3313 66.4932 96.9185 66.5585 96.516Z" fill="#EB996E"/>
<path d="M70.7346 97.9485C70.7346 97.757 69.4094 97.8566 68.383 96.7995C67.3565 95.7424 67.3949 94.3253 67.211 94.3253C67.0272 94.3253 66.9736 94.6624 67.0042 95.2598C67.0591 96.0341 67.3813 96.7652 67.9157 97.328C68.4317 97.8631 69.134 98.1786 69.8767 98.2089C70.4742 98.2166 70.7499 98.0481 70.7346 97.9485Z" fill="#263238"/>
<path d="M54.9688 65.7382C56.7978 63.1363 59.504 61.2814 62.5904 60.514C65.6544 59.9778 67.5388 60.514 69.5687 62.3601C70.4356 63.1927 71.4847 63.8117 72.6327 64.1679C74.1111 64.4589 75.352 64.2138 77.1138 65.1177C79.5267 66.351 80.5838 69.5682 81.7098 72.0117C83.0963 75.0757 85.0725 77.9022 85.9764 81.1424C86.8803 84.3826 86.4054 88.3658 83.6784 90.3344C84.1993 87.5692 84.6283 84.4898 83.1116 82.1229C81.9549 80.3151 79.8867 79.3117 78.4007 77.7644C76.6082 75.8953 76.3784 73.3905 74.4941 71.6364C70.2045 67.5689 62.6594 74.7004 54.9917 65.7458" fill="#263238"/>
<path d="M82.2063 78.6989C81.2146 75.9379 79.7899 73.3523 77.9857 71.0389C75.5863 68.2475 72.2382 66.4437 68.5872 65.9755C64.9363 65.5073 61.2413 66.4079 58.2152 68.5034L57.4492 68.5647C58.6216 70.0293 60.1077 71.2122 61.798 72.0262C63.4883 72.8402 65.3397 73.2645 67.2157 73.268C69.4448 73.268 71.8577 72.6858 73.7727 73.8348C75.6877 74.9838 76.3005 77.2512 77.8172 78.7678C78.8436 79.7943 80.2224 80.4301 81.2259 81.4948C82.2039 82.6975 82.9213 84.0905 83.3324 85.5852C83.9911 83.3026 83.1179 80.8897 82.2063 78.6989Z" fill="#263238"/>
<path d="M62.2759 70.3571L56.2015 64.9951C51.4677 64.75 48.4266 69.2234 46.8027 72.6551C45.5924 75.2212 45.2171 78.0937 44.3056 80.7824C43.394 83.471 41.8773 86.0984 41.0271 88.879C40.1768 91.6596 40.0619 94.9074 41.7395 97.305L42.7965 95.3594C42.9736 98.0812 44.0921 100.657 45.9601 102.644C46.098 101.97 46.2359 101.296 46.3661 100.614C47.3716 102.678 48.9724 104.394 50.9621 105.54L53.8116 113.146C58.0093 100.346 47.1934 99.3809 62.2759 70.3571Z" fill="#263238"/>
<path d="M61.4037 71.4678C61.0919 73.2047 60.6148 74.9079 59.9789 76.554C59.3363 78.2061 58.2559 79.652 56.8536 80.7364C54.7778 82.2684 52.0967 82.5518 49.5996 83.1569C47.1024 83.7621 44.4444 84.9034 43.418 87.255C43.8242 83.8027 44.5368 80.3933 45.5474 77.0672C46.6581 73.3981 48.2591 69.706 51.3231 67.3544C52.7291 66.2994 54.3761 65.6118 56.1148 65.3536C57.8535 65.0955 59.6292 65.275 61.2811 65.876" fill="#263238"/>
<path d="M54.9459 88.205C54.8156 87.8909 48.9251 85.9529 49.0247 92.1575C49.1166 98.186 55.1527 96.8225 55.1527 96.6463C55.1527 96.4701 54.9459 88.205 54.9459 88.205Z" fill="#FFBE9D"/>
<path d="M53.267 94.4019C53.267 94.4019 53.1675 94.4785 52.9913 94.5628C52.7452 94.66 52.4713 94.66 52.2253 94.5628C51.5818 94.3406 51.0303 93.3448 50.9767 92.2648C50.9514 91.7405 51.0429 91.2172 51.2448 90.7328C51.2962 90.5442 51.3929 90.371 51.5264 90.2282C51.6598 90.0854 51.8261 89.9772 52.0108 89.9131C52.1312 89.8769 52.2605 89.8847 52.3757 89.9353C52.4908 89.9858 52.5841 90.0757 52.6389 90.1889C52.7232 90.3498 52.6849 90.4723 52.7155 90.4876C52.7462 90.503 52.8457 90.3804 52.7921 90.1353C52.7551 89.9861 52.6687 89.8539 52.547 89.7599C52.3786 89.6389 52.1703 89.5868 51.9648 89.6144C51.72 89.673 51.4934 89.791 51.305 89.958C51.1166 90.125 50.9723 90.3359 50.8848 90.5719C50.6389 91.0983 50.5258 91.6769 50.5554 92.2571C50.6167 93.4751 51.2601 94.6011 52.1334 94.8309C52.2958 94.8767 52.4666 94.8847 52.6326 94.8541C52.7986 94.8236 52.9554 94.7554 53.0909 94.6547C53.2594 94.5474 53.29 94.4096 53.267 94.4019Z" fill="#EB996E"/>
<path d="M52.6188 95.4896C52.3236 95.4485 52.0237 95.5214 51.7804 95.6936C51.537 95.8657 51.3684 96.1241 51.3088 96.4162C51.2492 96.7083 51.3032 97.0121 51.4597 97.2658C51.6163 97.5195 51.8636 97.704 52.1514 97.7818C52.4391 97.8595 52.7457 97.8247 53.0087 97.6844C53.2718 97.5441 53.4714 97.3089 53.5671 97.0265C53.6628 96.7442 53.6473 96.436 53.5238 96.1647C53.4003 95.8934 53.178 95.6794 52.9022 95.5662" fill="white"/>
<path d="M52.8998 95.5662C53.157 95.7615 53.3514 96.0278 53.459 96.3322C53.5086 96.495 53.5156 96.6678 53.4794 96.8341C53.4432 97.0004 53.365 97.1546 53.2522 97.2821C53.1215 97.4428 52.9465 97.5615 52.7489 97.6236C52.5512 97.6856 52.3397 97.6883 52.1406 97.6312C51.9415 97.574 51.7636 97.4597 51.6289 97.3023C51.4943 97.1449 51.4088 96.9514 51.3832 96.7459C51.3574 96.5773 51.3741 96.4051 51.4316 96.2446C51.4891 96.0841 51.5856 95.9405 51.7126 95.8267C51.9682 95.613 52.2842 95.4845 52.6164 95.459C52.6164 95.459 52.5168 95.3977 52.333 95.3977C52.0533 95.4048 51.7839 95.5045 51.567 95.6811C51.4029 95.8104 51.275 95.9799 51.1958 96.1731C51.1166 96.3664 51.0888 96.5769 51.1151 96.7842C51.1465 97.0368 51.2513 97.2747 51.4165 97.4684C51.5817 97.6622 51.8001 97.8032 52.0446 97.8741C52.2891 97.945 52.5491 97.9427 52.7923 97.8674C53.0355 97.7921 53.2514 97.6472 53.4131 97.4506C53.5184 97.3146 53.5948 97.1585 53.6377 96.9919C53.6806 96.8253 53.6891 96.6518 53.6625 96.4818C53.636 96.3119 53.575 96.1491 53.4834 96.0035C53.3918 95.8579 53.2714 95.7326 53.1297 95.6352C53.0071 95.5662 52.8998 95.5509 52.8998 95.5662Z" fill="#263238"/>
<path d="M48.7556 95.2139C48.7556 95.2139 48.679 95.2139 48.5641 95.076C48.3993 94.9348 48.2456 94.7811 48.1045 94.6164C47.5742 94.0069 47.1496 93.313 46.8482 92.5635C46.3888 91.4415 46.2252 90.2203 46.3733 89.0169C46.5804 87.5193 47.34 86.1532 48.5028 85.1869C49.643 84.2672 50.913 83.5212 52.2715 82.9732C53.4971 82.4446 54.5695 81.985 55.4734 81.5025C56.4155 80.998 57.2926 80.3806 58.0854 79.6641C57.9395 79.9218 57.7533 80.1545 57.5339 80.3535C56.957 80.9156 56.3109 81.402 55.6113 81.8012C54.5758 82.3657 53.5122 82.877 52.4247 83.3332C51.109 83.8798 49.8785 84.6124 48.7709 85.5086C47.6768 86.4062 46.9493 87.6732 46.7257 89.0705C46.5735 90.216 46.705 91.3812 47.1087 92.4639C47.5127 93.4599 48.0682 94.3875 48.7556 95.2139Z" fill="#455A64"/>
<path d="M48.2574 91.6366C48.1312 91.4589 48.0402 91.2587 47.9893 91.0468C47.811 90.4801 47.7383 89.8855 47.7748 89.2926C47.8235 88.4031 48.0863 87.5386 48.5408 86.7725C49.0896 85.822 49.9117 85.0587 50.9001 84.5817C51.8598 84.1339 52.8415 83.7351 53.8415 83.3868C54.6357 83.0979 55.3801 82.687 56.0476 82.1688C56.6474 81.6717 57.12 81.0389 57.4264 80.3228C57.432 80.5411 57.3819 80.7572 57.2809 80.9509C57.0449 81.5022 56.686 81.9921 56.2315 82.3833C55.5611 82.953 54.7998 83.4062 53.9794 83.7238C53.0832 84.1068 52.0568 84.4285 51.0839 84.9341C50.1631 85.3815 49.3896 86.0833 48.8549 86.9563C48.429 87.6767 48.1674 88.4824 48.0889 89.3156C48.0374 90.0933 48.0941 90.8744 48.2574 91.6366Z" fill="#455A64"/>
<path d="M61.7932 71.8661C61.1844 70.4709 60.3937 69.1625 59.4416 67.9748C58.3984 66.8688 57.2136 65.9056 55.918 65.11C56.3722 65.1889 56.8051 65.3611 57.1895 65.6155C58.1555 66.1645 59.0208 66.8743 59.748 67.7144C60.4808 68.5475 61.064 69.5012 61.4715 70.5333C61.6679 70.9512 61.7773 71.4046 61.7932 71.8661Z" fill="#455A64"/>
<path d="M89.493 94.0189C89.2342 94.0229 88.9762 93.9894 88.727 93.9193C88.0316 93.7798 87.3458 93.5956 86.6741 93.3678C86.2067 93.2026 85.7533 93.0002 85.3183 92.7626C84.7921 92.4965 84.3375 92.1076 83.9931 91.6289C83.811 91.3563 83.6884 91.0483 83.6331 90.7251L83.5642 90.2578C83.5341 90.0908 83.5162 89.9218 83.5105 89.7522C83.5258 89.068 83.65 88.3906 83.8782 87.7453C84.0976 87.1375 84.2391 86.5043 84.2995 85.861C84.3098 85.2744 84.1444 84.6982 83.8246 84.2064C83.2252 83.3593 82.5256 82.5877 81.7411 81.9084C81.2387 81.4214 80.7066 80.966 80.1478 80.5449C79.9316 80.4048 79.7244 80.2513 79.5273 80.0853C80.4483 80.4527 81.2791 81.0145 81.9632 81.7322C82.8 82.394 83.5423 83.1671 84.1693 84.0302C84.5349 84.5788 84.7271 85.2247 84.7208 85.8839C84.6666 86.5639 84.5224 87.2336 84.2919 87.8755C84.0737 88.4809 83.9522 89.1168 83.9318 89.7599C83.9392 89.9087 83.9545 90.057 83.9778 90.2042L84.0391 90.6714C84.0836 90.9437 84.1826 91.2043 84.3302 91.4374C84.6383 91.8725 85.0418 92.2315 85.5098 92.4869C85.9264 92.7234 86.359 92.9307 86.8043 93.1073C88.4206 93.7278 89.516 93.9499 89.493 94.0189Z" fill="#455A64"/>
<path d="M68.0195 350.131L68.3489 341.682L83.0868 341.123L82.8569 351.471L77.5026 354.704L68.0195 350.131Z" fill="#FFBE9D"/>
<path d="M83.1794 349.549V350.514C83.1794 350.514 99.5412 357.27 99.6867 360.388L67.0781 359.905L67.6833 349.059C70.0795 350.248 72.7039 350.908 75.3779 350.992C78.0519 351.077 80.7128 350.585 83.1794 349.549Z" fill="#46B2C8"/>
<g opacity="0.3">
<path d="M83.1794 349.549V350.514C83.1794 350.514 99.5412 357.27 99.6867 360.388L67.0781 359.905L67.6833 349.059C70.0795 350.248 72.7039 350.908 75.3779 350.992C78.0519 351.077 80.7128 350.585 83.1794 349.549Z" fill="black"/>
</g>
<g opacity="0.6">
<path d="M70.923 352.582C70.603 352.674 70.3289 352.882 70.1546 353.165C69.9802 353.449 69.9182 353.787 69.9808 354.114C70.0593 354.433 70.2574 354.709 70.534 354.886C70.8106 355.063 71.1446 355.127 71.4669 355.064C71.7998 354.966 72.0848 354.748 72.2671 354.453C72.4495 354.157 72.5164 353.805 72.455 353.463C72.3385 353.139 72.1007 352.874 71.792 352.722C71.4832 352.571 71.1277 352.545 70.8004 352.651" fill="white"/>
</g>
<g opacity="0.6">
<path d="M67.0703 359.905L67.2159 357.301L98.415 358.71C98.415 358.71 99.8551 359.361 99.6789 360.388L67.0703 359.905Z" fill="white"/>
</g>
<path d="M83.2879 350.606C83.2879 350.767 82.5219 350.828 81.6946 351.326C80.8673 351.824 80.4767 352.49 80.3311 352.429C80.1856 352.368 80.4384 351.441 81.4035 350.897C82.3687 350.353 83.3262 350.46 83.2879 350.606Z" fill="#263238"/>
<path d="M86.6899 352.069C86.6899 352.23 86.0311 352.49 85.4796 353.157C84.9281 353.823 84.7596 354.528 84.6064 354.52C84.4532 354.513 84.3536 353.609 85.0583 352.797C85.763 351.985 86.6899 351.923 86.6899 352.069Z" fill="#263238"/>
<path d="M88.5723 356.19C88.4268 356.19 88.2123 355.424 88.6336 354.551C89.0549 353.678 89.8056 353.348 89.8745 353.486C89.9435 353.624 89.4686 354.076 89.1085 354.796C88.7485 355.516 88.7255 356.19 88.5723 356.19Z" fill="#263238"/>
<path d="M54.7695 350.322L55.1066 341.874L69.8368 341.314L69.6146 351.663L64.2603 354.896L54.7695 350.322Z" fill="#FFBE9D"/>
<path d="M69.9373 349.74V350.705C69.9373 350.705 86.299 357.462 86.4446 360.579L53.8359 360.097L54.4411 349.25C56.8374 350.44 59.4618 351.099 62.1357 351.184C64.8097 351.268 67.4706 350.776 69.9373 349.74Z" fill="#46B2C8"/>
<g opacity="0.6">
<path d="M57.682 352.774C57.3611 352.864 57.0859 353.071 56.9112 353.355C56.7366 353.639 56.6754 353.979 56.7398 354.306C56.8248 354.617 57.0243 354.885 57.2985 355.056C57.5727 355.226 57.9013 355.287 58.2182 355.225C58.5512 355.127 58.8361 354.909 59.0185 354.613C59.2008 354.318 59.2677 353.966 59.2064 353.624C59.0898 353.3 58.8521 353.035 58.5433 352.883C58.2346 352.732 57.879 352.706 57.5518 352.812" fill="white"/>
</g>
<g opacity="0.6">
<path d="M53.8281 360.097L53.9737 357.492L85.1729 358.902C85.1729 358.902 86.6129 359.56 86.4367 360.579L53.8281 360.097Z" fill="white"/>
</g>
<path d="M70.0423 350.828C70.0423 350.989 69.2763 351.05 68.4491 351.548C67.6218 352.046 67.2311 352.712 67.0856 352.651C66.94 352.59 67.1852 351.671 68.158 351.119C69.1308 350.568 70.0806 350.652 70.0423 350.828Z" fill="#263238"/>
<path d="M73.4445 352.261C73.4445 352.421 72.7857 352.682 72.2342 353.348C71.6827 354.015 71.5142 354.719 71.3533 354.712C71.1924 354.704 71.1082 353.8 71.8129 352.988C72.5176 352.176 73.4445 352.115 73.4445 352.261Z" fill="#263238"/>
<path d="M75.3217 356.389C75.1762 356.389 74.9694 355.623 75.3907 354.75C75.812 353.877 76.5626 353.547 76.6316 353.685C76.7005 353.823 76.2256 354.275 75.8656 354.995C75.5056 355.715 75.4826 356.374 75.3217 356.389Z" fill="#263238"/>
<path d="M32.6406 141.963C32.6406 141.963 44.8966 160.96 51.331 168.62C57.7654 176.28 68.3439 169.539 69.5695 159.121C70.7951 148.704 70.4734 129.393 70.4734 129.393L61.9095 124.299L56.3713 150.657L49.4773 137.826L32.6406 141.963Z" fill="#FFBE9D"/>
<path d="M70.474 129.393L74.1508 120.201C74.9088 119.846 75.6341 119.426 76.3186 118.945C76.8625 118.439 76.7552 115.115 76.602 114.532C76.4488 113.95 77.1995 112.234 76.671 111.928C76.1424 111.622 74.6641 111.928 74.6104 111.315C74.6104 111.185 75.3764 109.622 74.2964 108.849C73.7556 108.644 73.1818 108.54 72.6035 108.542L72.006 105.478C72.006 105.478 69.5548 102.269 68.176 103.946C68.176 103.946 62.9596 110.227 62.5 111.147C62.0404 112.066 61.9102 122.713 61.9102 124.705" fill="#FFBE9D"/>
<path d="M61.9222 124.72C61.9009 124.537 61.9009 124.352 61.9222 124.169C61.9222 123.763 61.9222 123.234 61.9222 122.575C61.9222 121.189 61.9222 119.19 61.9988 116.708C61.9988 115.467 62.0754 114.111 62.1826 112.648C62.1826 112.28 62.2439 111.882 62.3128 111.522C62.3966 111.122 62.5812 110.75 62.849 110.442C63.3086 109.799 63.7989 109.17 64.3121 108.519C65.3309 107.225 66.4186 105.884 67.5523 104.49C67.8303 104.102 68.1632 103.756 68.5404 103.464C68.7714 103.345 69.0274 103.283 69.2873 103.283C69.5471 103.283 69.8031 103.345 70.0341 103.464C70.8978 103.924 71.6486 104.57 72.2325 105.356V105.409C72.2938 105.7 72.3551 106.022 72.4164 106.344C72.5542 107.056 72.6998 107.769 72.8377 108.458L72.6462 108.297C73.047 108.308 73.4464 108.349 73.8411 108.42C74.0609 108.455 74.2716 108.533 74.4616 108.65C74.6381 108.78 74.7844 108.947 74.8905 109.14C75.0828 109.52 75.1447 109.954 75.0667 110.373C75.0433 110.568 74.9996 110.761 74.9365 110.948L74.8522 111.216V111.277C74.8482 111.285 74.8461 111.294 74.8461 111.304C74.8461 111.313 74.8482 111.322 74.8522 111.331C74.9524 111.418 75.0793 111.47 75.2123 111.476C75.3871 111.506 75.5636 111.524 75.7408 111.53C75.9246 111.53 76.1085 111.53 76.3 111.583C76.5253 111.603 76.7393 111.691 76.9128 111.836C77.0474 112.022 77.1051 112.252 77.0736 112.48C77.0736 112.674 77.0507 112.857 77.0047 113.031C76.9358 113.383 76.8515 113.72 76.8132 114.05C76.7863 114.197 76.7863 114.347 76.8132 114.494C76.8132 114.686 76.8592 114.846 76.8821 115.023C76.8821 115.37 76.8975 115.707 76.9281 116.034C76.9416 116.686 76.9083 117.339 76.8285 117.987C76.798 118.32 76.6989 118.644 76.5374 118.937C76.3162 119.168 76.0572 119.36 75.7714 119.504C75.2582 119.81 74.745 120.063 74.2394 120.27L74.316 120.193L71.5661 126.88C71.2444 127.646 70.9839 128.251 70.8001 128.703C70.719 128.917 70.6217 129.125 70.509 129.324C70.5626 129.101 70.6343 128.884 70.7235 128.673C70.892 128.213 71.1295 127.593 71.4206 126.819C72.0563 125.187 72.9526 122.889 74.0403 120.078V120.025H74.0939C74.5841 119.787 75.0897 119.519 75.6259 119.22C75.8712 119.094 76.0959 118.931 76.2923 118.738C76.4178 118.484 76.4932 118.208 76.5145 117.926C76.5868 117.298 76.6124 116.665 76.5911 116.034C76.5911 115.702 76.5757 115.372 76.5451 115.046C76.5351 114.886 76.512 114.727 76.4762 114.571C76.4419 114.381 76.4419 114.186 76.4762 113.996C76.5221 113.636 76.6064 113.291 76.6677 112.954C76.6989 112.79 76.7194 112.624 76.7289 112.457C76.7482 112.327 76.7239 112.195 76.66 112.081C76.5438 112.009 76.4129 111.965 76.277 111.951C76.1085 111.951 75.9323 111.951 75.7485 111.905C75.5646 111.859 75.3808 111.905 75.1816 111.851C74.9451 111.834 74.725 111.724 74.5688 111.545C74.5204 111.486 74.491 111.414 74.4846 111.338C74.4687 111.288 74.4687 111.235 74.4846 111.185V111.108L74.5688 110.848C74.618 110.677 74.6564 110.503 74.6837 110.327C74.7493 109.992 74.7008 109.644 74.5458 109.339C74.4665 109.197 74.3566 109.074 74.2241 108.979C74.0826 108.897 73.9266 108.842 73.7645 108.818C73.3832 108.774 72.9991 108.759 72.6155 108.772H72.4547V108.611C72.3168 107.922 72.1712 107.209 72.0334 106.497C71.9721 106.175 71.9108 105.861 71.8495 105.563V105.647C71.3038 104.916 70.606 104.312 69.8043 103.877C69.6287 103.783 69.4327 103.734 69.2336 103.734C69.0345 103.734 68.8385 103.783 68.663 103.877C68.327 104.144 68.0326 104.459 67.7897 104.812C66.6407 106.191 65.553 107.531 64.5266 108.818C64.0133 109.454 63.5154 110.09 63.0635 110.71C62.8197 110.975 62.6505 111.3 62.5733 111.652C62.512 112.012 62.4737 112.418 62.4354 112.74C62.3128 114.188 62.2592 115.551 62.2056 116.784C62.1213 119.228 62.0524 121.22 62.0064 122.644C62.0064 123.303 62.0064 123.832 61.9528 124.238C61.9551 124.399 61.9448 124.56 61.9222 124.72Z" fill="#EB996E"/>
<path d="M72.6192 108.542C72.0919 108.733 71.555 108.897 71.0106 109.032C70.4447 109.244 69.8965 109.5 69.3714 109.798C68.6579 110.082 67.907 110.26 67.1423 110.327C66.488 110.381 65.8545 110.584 65.2904 110.919C64.7262 111.255 64.2461 111.715 63.8868 112.265C63.6194 112.74 63.4378 113.259 63.3506 113.797C63.2805 113.511 63.2702 113.214 63.3202 112.924C63.3703 112.634 63.4798 112.358 63.6417 112.112C63.9535 111.552 64.3882 111.07 64.9133 110.702C65.5612 110.271 66.3061 110.008 67.081 109.936C67.8121 109.867 68.5321 109.71 69.2258 109.469C69.7667 109.16 70.3362 108.903 70.9264 108.703C71.4757 108.545 72.0498 108.49 72.6192 108.542Z" fill="#EB996E"/>
<path d="M70.3509 108.887C70.2666 108.956 69.9296 108.642 69.8377 108.121C69.7458 107.6 69.9756 107.186 70.0751 107.225C70.1747 107.263 70.1594 107.631 70.236 108.06C70.3126 108.489 70.4735 108.818 70.3509 108.887Z" fill="#EB996E"/>
<path d="M74.8445 111.384C73.2839 111.898 71.6461 112.139 70.0034 112.096C69.3976 112.035 68.7858 112.095 68.2033 112.273C67.7691 112.474 67.4271 112.833 67.2458 113.276C67.0993 113.717 66.9816 114.168 66.8935 114.624C66.7545 114.143 66.787 113.629 66.9854 113.169C67.1653 112.632 67.551 112.188 68.0578 111.936C68.6796 111.72 69.3397 111.636 69.9958 111.69C72.6691 111.667 74.8216 111.269 74.8445 111.384Z" fill="#EB996E"/>
<path d="M76.3321 114.065C75.9685 114.239 75.5709 114.331 75.1677 114.333C74.4017 114.417 73.4136 114.387 72.3106 114.425C71.7943 114.423 71.2798 114.485 70.7786 114.609C70.3952 114.704 70.0535 114.922 69.8057 115.229C69.5939 115.537 69.4866 115.905 69.4994 116.279C69.4994 116.279 69.3998 116.187 69.3615 115.972C69.3232 115.659 69.3964 115.341 69.5683 115.076C69.8285 114.685 70.2153 114.396 70.6637 114.257C71.1837 114.104 71.7227 114.027 72.2646 114.027C73.3983 113.988 74.3941 114.027 75.1218 114.027C75.5253 113.993 75.9315 114.006 76.3321 114.065Z" fill="#EB996E"/>
<path d="M74.9692 116.769C75.0458 116.769 74.6398 117.481 73.6593 117.704L73.8125 117.489L73.8662 118.01C73.9969 118.706 73.9969 119.42 73.8662 120.116C73.6058 119.461 73.4707 118.762 73.4678 118.056L73.4219 117.535V117.351H73.5904C74.4177 117.198 74.9003 116.692 74.9692 116.769Z" fill="#EB996E"/>
<path d="M91.1545 177.712C91.1545 177.712 102.055 201.772 102.055 216.824C102.055 231.876 91.3306 281.099 91.3306 281.099C91.3306 281.099 89.8982 294.711 88.4581 312.873C87.5153 324.234 85.6789 335.504 82.9659 346.577H72.2419L54.8001 347.052C54.8001 347.052 47.3929 316.71 47.8678 305.243C48.3427 293.776 50.2577 280.632 50.2577 280.632C50.2577 280.632 40.9432 242.646 39.2656 235.714C38.6145 233.002 38.3158 227.831 38.2622 222.324C38.1494 210.996 40.2303 199.754 44.3902 189.217L47.4542 181.488L91.1545 177.712Z" fill="#263238"/>
<path d="M75.0698 225.855C74.9549 225.855 73.6604 252.788 72.182 286.024C70.7036 319.261 69.5623 346.232 69.7078 346.232C69.8534 346.232 71.1173 319.299 72.5957 286.055C74.074 252.811 75.1618 225.855 75.0698 225.855Z" fill="#455A64"/>
<path d="M77.368 215.093C77.4852 214.656 77.5646 214.21 77.6055 213.76C77.7357 212.902 77.8812 211.646 78.0114 210.098C78.3332 206.054 78.3562 201.99 78.0804 197.942C77.8077 193.894 77.2367 189.872 76.3722 185.908C76.0352 184.376 75.7211 183.166 75.476 182.339C75.3735 181.898 75.2325 181.468 75.0547 181.052C75.1059 181.5 75.193 181.943 75.3151 182.377C75.5066 183.22 75.7747 184.453 76.0811 185.969C76.8695 189.933 77.4068 193.942 77.6897 197.973C77.9612 202.002 77.9765 206.044 77.7357 210.075C77.6438 211.607 77.5518 212.879 77.4752 213.745C77.4016 214.19 77.3657 214.641 77.368 215.093Z" fill="#455A64"/>
<path d="M40.75 200.922C40.9701 201.125 41.2313 201.28 41.516 201.374C42.2605 201.68 43.0639 201.816 43.8676 201.772C45.9128 201.718 48.6092 200.669 51.068 198.838C53.1683 197.255 54.8705 195.204 56.0394 192.848C56.3893 192.137 56.6838 191.399 56.9203 190.642C57.0195 190.368 57.0813 190.082 57.1041 189.792C57.0198 189.792 56.7134 190.972 55.7713 192.703C54.5557 194.97 52.8621 196.946 50.8076 198.494C48.7967 200.097 46.3868 201.122 43.837 201.458C42.7796 201.535 41.7196 201.35 40.75 200.922Z" fill="#455A64"/>
<path d="M85.793 186.59C85.8149 186.852 85.8743 187.11 85.9692 187.356C86.1777 188.042 86.4336 188.712 86.7352 189.363C87.7095 191.522 89.0318 193.507 90.6494 195.238C92.271 196.969 94.1683 198.418 96.2642 199.528C96.893 199.868 97.5459 200.163 98.2175 200.409C98.4612 200.52 98.7189 200.597 98.9835 200.638C98.9835 200.562 97.9724 200.156 96.425 199.267C92.3697 196.928 89.0989 193.438 87.0262 189.24C86.1989 187.67 85.8619 186.567 85.793 186.59Z" fill="#455A64"/>
<path d="M70.4043 186.046C70.4043 186.046 70.4502 185.878 70.5422 185.61C70.6704 185.234 70.9145 184.91 71.2392 184.683C71.4907 184.5 71.7877 184.39 72.0975 184.366C72.4073 184.342 72.7179 184.404 72.9947 184.545C73.2716 184.686 73.5041 184.901 73.6665 185.166C73.8289 185.431 73.9148 185.735 73.9148 186.046C73.9148 186.357 73.8289 186.662 73.6665 186.927C73.5041 187.192 73.2716 187.407 72.9947 187.548C72.7179 187.689 72.4073 187.751 72.0975 187.726C71.7877 187.702 71.4907 187.592 71.2392 187.41C70.9145 187.182 70.6704 186.858 70.5422 186.483C70.4502 186.215 70.4426 186.046 70.4043 186.046C70.366 186.046 70.3353 186.215 70.4043 186.521C70.4817 186.969 70.7217 187.373 71.0784 187.655C71.3437 187.87 71.6595 188.014 71.996 188.073C72.3324 188.132 72.6784 188.104 73.001 187.992C73.4048 187.851 73.7548 187.588 74.0024 187.239C74.2501 186.891 74.3831 186.474 74.3831 186.046C74.3831 185.619 74.2501 185.201 74.0024 184.853C73.7548 184.504 73.4048 184.241 73.001 184.1C72.6784 183.988 72.3324 183.961 71.996 184.02C71.6595 184.079 71.3437 184.222 71.0784 184.438C70.7217 184.72 70.4817 185.123 70.4043 185.571C70.3353 185.878 70.3813 186.046 70.4043 186.046Z" fill="#455A64"/>
<path d="M55.5352 279.942C57.3738 281.223 59.2927 282.385 61.2802 283.42C63.2112 284.565 65.2118 285.588 67.2703 286.484C65.4199 285.208 63.488 284.054 61.487 283.029C59.5675 281.881 57.5799 280.85 55.5352 279.942Z" fill="#455A64"/>
<path d="M101.456 128.749C98.1319 133.805 84.658 154.295 80.6671 160.354C80.5697 160.505 80.5172 160.68 80.5157 160.859C80.5141 161.038 80.5637 161.214 80.6586 161.366C80.7535 161.518 80.8897 161.64 81.0513 161.717C81.2129 161.794 81.3932 161.824 81.571 161.802L105.516 158.784C105.642 158.769 105.764 158.728 105.874 158.664C105.983 158.599 106.078 158.512 106.152 158.409L129.017 127.156C129.123 127.012 129.185 126.841 129.197 126.663C129.209 126.485 129.169 126.307 129.083 126.151C128.996 125.994 128.867 125.866 128.71 125.781C128.554 125.696 128.375 125.657 128.197 125.67L103.563 127.493C103.138 127.525 102.727 127.655 102.362 127.873C101.996 128.091 101.686 128.391 101.456 128.749Z" fill="#E0E0E0"/>
<path d="M101.458 128.749C101.514 128.647 101.578 128.55 101.65 128.458C101.863 128.196 102.122 127.975 102.416 127.807C102.91 127.549 103.46 127.418 104.017 127.424L106.238 127.24L120.44 126.122L125.151 125.762L127.648 125.57C127.87 125.57 128.061 125.532 128.314 125.532C128.507 125.541 128.694 125.601 128.856 125.706C129.018 125.81 129.15 125.956 129.238 126.128C129.326 126.299 129.367 126.491 129.356 126.684C129.346 126.877 129.285 127.063 129.18 127.225L122.562 136.348L107.242 157.229C106.897 157.704 106.583 158.141 106.208 158.631C106.091 158.763 105.944 158.863 105.779 158.922C105.629 158.967 105.475 158.998 105.319 159.014L104.476 159.114L101.121 159.535L94.572 160.354L82.1934 161.886C81.9406 161.886 81.7262 161.955 81.4274 161.971C81.2843 161.969 81.143 161.939 81.0116 161.882C80.8802 161.826 80.7612 161.744 80.6614 161.641C80.4596 161.436 80.342 161.163 80.332 160.875C80.3487 160.596 80.4503 160.329 80.6231 160.109C81.1593 159.343 81.6802 158.508 82.2011 157.719C83.2224 156.152 84.2284 154.62 85.2191 153.123L90.65 144.92L98.5245 133.054L100.685 129.837C100.93 129.485 101.114 129.209 101.259 129.01C101.405 128.811 101.458 128.726 101.458 128.734C101.412 128.839 101.355 128.939 101.29 129.033L100.754 129.883L98.6547 133.138L90.8798 145.073L85.5178 153.307L82.5151 157.903L80.9831 160.301C80.8458 160.458 80.7673 160.659 80.761 160.868C80.761 161.071 80.8417 161.266 80.9853 161.409C81.129 161.553 81.3238 161.634 81.527 161.634C81.7261 161.634 82.0019 161.572 82.2394 161.549L94.6179 160.017L101.167 159.19L104.515 158.769L105.357 158.662C105.484 158.651 105.61 158.628 105.733 158.593C105.836 158.551 105.93 158.488 106.008 158.409C106.338 157.949 106.675 157.497 107.012 157.045L122.332 136.179L129.004 127.087C129.104 126.935 129.147 126.752 129.125 126.57C129.102 126.389 129.016 126.222 128.881 126.099C128.749 125.978 128.578 125.908 128.399 125.9C128.222 125.9 127.977 125.9 127.77 125.9L125.273 126.076L120.562 126.413L106.353 127.401L104.124 127.547C103.581 127.534 103.043 127.65 102.554 127.884C102.132 128.092 101.759 128.387 101.458 128.749Z" fill="#263238"/>
<path d="M129.019 127.156C128.856 127.199 128.689 127.225 128.521 127.233L127.065 127.378L121.657 127.861L103.273 129.393L103.419 129.309C102.27 131.017 101.083 132.794 99.8877 134.632C95.0312 142.093 90.7953 148.949 87.5857 153.836C85.9924 156.279 84.6749 158.233 83.7557 159.581L82.6757 161.113C82.5619 161.3 82.4284 161.475 82.2773 161.634C82.3782 161.438 82.4908 161.249 82.6144 161.067C82.8595 160.676 83.2042 160.148 83.6255 159.489L87.3559 153.675C90.4965 148.757 94.7019 141.871 99.5583 134.402C100.753 132.564 101.948 130.787 103.105 129.04L103.158 128.964H103.25L121.634 127.6L127.058 127.233L128.513 127.156C128.681 127.144 128.85 127.144 129.019 127.156Z" fill="#263238"/>
<path d="M114.77 132.005C114.756 131.942 114.729 131.883 114.692 131.83C114.654 131.778 114.606 131.734 114.551 131.7C114.496 131.667 114.435 131.645 114.372 131.635C114.308 131.626 114.243 131.629 114.181 131.645C113.936 131.701 113.713 131.826 113.537 132.005C113.425 132.106 113.351 132.244 113.33 132.394C113.309 132.544 113.342 132.696 113.422 132.824C113.66 133.123 114.188 133.016 114.441 132.763C114.556 132.676 114.647 132.56 114.705 132.427C114.763 132.294 114.785 132.149 114.77 132.005Z" fill="white"/>
<path d="M103.586 149.722C103.586 149.722 102.644 147.424 105.041 147.179C107.937 147.027 110.839 147.027 113.735 147.179C113.735 147.179 117.175 147.539 116.447 150.006C116.447 150.006 118.485 151.829 117.389 153.79C116.294 155.751 115.857 155.169 115.857 155.169C115.857 155.169 116.148 157.566 114.325 157.926C114.325 157.926 112.357 160.224 110.541 160.109C108.726 159.994 101.027 156.279 100.522 155.513C100.016 154.747 99.2809 154.38 99.7175 153.568C99.7175 153.568 98.7753 151.438 100.813 151.116C100.828 151.132 100.974 149.37 103.586 149.722Z" fill="#FFBE9D"/>
<path d="M114.51 150.534C113.978 150.636 113.435 150.675 112.894 150.649C111.891 150.649 110.512 150.649 108.987 150.649C107.676 150.682 106.364 150.603 105.066 150.412C104.031 150.174 103.625 149.569 103.671 149.554C104.112 149.84 104.604 150.037 105.119 150.136C106.069 150.297 107.471 150.197 108.995 150.251C110.519 150.305 111.898 150.312 112.894 150.366C113.438 150.356 113.98 150.413 114.51 150.534Z" fill="#EB996E"/>
<path d="M112.793 154.165C112.793 154.165 112.617 154.272 112.273 154.341C111.769 154.445 111.253 154.479 110.741 154.441C110.001 154.382 109.27 154.249 108.557 154.043C107.791 153.82 106.903 153.506 105.999 153.231C105.161 152.958 104.295 152.781 103.418 152.702C102.657 152.766 101.895 152.612 101.219 152.258C100.954 152.079 100.767 151.804 100.698 151.492C100.649 151.261 100.681 151.02 100.79 150.81C100.974 150.465 101.234 150.45 101.227 150.465C101.219 150.481 101.043 150.573 100.928 150.879C100.857 151.09 100.864 151.319 100.946 151.525C101.029 151.732 101.183 151.902 101.38 152.005C102.026 152.293 102.738 152.402 103.441 152.319C104.35 152.378 105.248 152.551 106.114 152.832L108.665 153.675C109.351 153.893 110.056 154.05 110.771 154.142C111.444 154.201 112.12 154.209 112.793 154.165Z" fill="#EB996E"/>
<path d="M110.221 157.237C109.671 157.205 109.127 157.1 108.605 156.923C107.617 156.678 106.269 156.287 104.775 155.812C103.281 155.337 101.987 154.839 101.044 154.456C100.519 154.286 100.017 154.049 99.5508 153.752C99.5967 153.644 101.964 154.472 104.913 155.429C107.862 156.387 110.252 157.13 110.221 157.237Z" fill="#EB996E"/>
<path d="M110.839 160.094C110.384 160.134 109.926 160.082 109.491 159.941C108.436 159.687 107.409 159.325 106.427 158.861C105.271 158.332 104.267 157.796 103.532 157.413C103.118 157.236 102.731 157.002 102.383 156.716C103.835 157.183 105.243 157.781 106.588 158.501C107.978 159.103 109.397 159.635 110.839 160.094Z" fill="#EB996E"/>
<path d="M38.0937 117.451C38.0937 117.451 28.2429 121.549 30.6864 134.586C33.13 147.624 34.4015 151.974 34.4015 151.974L53.8196 141.756L38.0937 117.451Z" fill="#46B2C8"/>
<path d="M53.4149 141.97C53.1938 142.148 52.9551 142.302 52.7025 142.43C52.2353 142.706 51.5459 143.089 50.6956 143.556C48.9951 144.498 46.6282 145.762 44.0008 147.149C41.3734 148.535 38.9911 149.761 37.2523 150.634C36.3867 151.071 35.682 151.4 35.1918 151.645C34.9486 151.781 34.6919 151.892 34.4258 151.974C34.6429 151.79 34.8822 151.633 35.1382 151.507C35.6054 151.231 36.2948 150.848 37.1451 150.381C38.8456 149.447 41.2125 148.175 43.8399 146.796C46.4673 145.417 48.8496 144.184 50.5807 143.311L52.6489 142.292C52.891 142.156 53.1481 142.048 53.4149 141.97Z" fill="#263238"/>
<path d="M53.4123 141.97C53.0085 141.403 52.6523 140.804 52.3476 140.178L49.8811 135.781C48.9465 134.127 48.0963 132.633 47.3992 131.392C47.024 130.802 46.7083 130.176 46.457 129.523C46.9077 130.056 47.3029 130.633 47.6367 131.246C48.3261 132.342 49.2529 133.874 50.2257 135.59C51.1986 137.306 52.0412 138.883 52.6003 140.048C52.9362 140.659 53.2082 141.303 53.4123 141.97Z" fill="#263238"/>
</svg>
