<svg width="399" height="315" viewBox="0 0 399 315" fill="none" xmlns="http://www.w3.org/2000/svg">
<g filter="url(#filter0_d_1633_14604)">
<rect x="16" y="8" width="260.221" height="218.076" rx="10" fill="white"/>
</g>
<path d="M16 18C16 12.4772 20.4772 8 26 8H266.526C272.049 8 276.526 12.4772 276.526 18V27.9765H16V18Z" fill="#C9EAF1"/>
<rect x="28.4844" y="54.6113" width="102.018" height="2.95705" fill="#C9EAF1"/>
<rect x="28.4844" y="71.2588" width="102.018" height="2.95705" fill="#D9D9D9"/>
<rect x="28.4844" y="87.9062" width="102.018" height="2.95705" fill="#C9EAF1"/>
<rect x="28.4844" y="104.553" width="102.018" height="2.95705" fill="#D9D9D9"/>
<rect x="28.4844" y="121.2" width="102.018" height="2.95705" fill="#C9EAF1"/>
<path d="M213.28 54.6123C206.859 54.6096 200.581 56.5115 195.24 60.0774C189.9 63.6433 185.737 68.713 183.278 74.6452C180.82 80.5773 180.176 87.1054 181.428 93.4037C182.68 99.7019 185.772 105.487 190.313 110.028C194.853 114.569 200.639 117.661 206.937 118.913C213.235 120.165 219.763 119.521 225.695 117.062C231.628 114.604 236.697 110.441 240.263 105.1C243.829 99.7599 245.731 93.4819 245.728 87.0604C245.725 78.4557 242.305 70.2045 236.22 64.1201C230.136 58.0357 221.885 54.6159 213.28 54.6123ZM213.774 106.513C209.828 106.515 205.97 105.348 202.689 103.158C199.407 100.968 196.848 97.8537 195.336 94.2093C193.825 90.5649 193.428 86.5541 194.196 82.684C194.964 78.814 196.862 75.2587 199.651 72.4678C202.44 69.677 205.994 67.776 209.864 67.0052C213.733 66.2345 217.744 66.6287 221.39 68.138C225.035 69.6472 228.151 72.2037 230.343 75.4841C232.536 78.7645 233.706 82.6214 233.706 86.5669C233.708 89.1844 233.194 91.7766 232.194 94.1956C231.194 96.6146 229.727 98.8129 227.878 100.665C226.028 102.517 223.832 103.987 221.414 104.99C218.996 105.994 216.405 106.511 213.787 106.513H213.774Z" fill="#FF993C"/>
<path d="M193.828 86.566C193.828 82.7142 194.944 78.9449 197.041 75.7141C199.138 72.4833 202.126 69.9293 205.644 68.361L200.654 57.1475C194.787 59.6423 189.784 63.8091 186.269 69.1283C182.753 74.4474 180.882 80.6837 180.887 87.0595C180.887 87.5073 180.887 87.9642 180.887 88.4303H193.951C193.869 87.7997 193.828 87.1965 193.828 86.566Z" fill="#E0E0E0"/>
<path d="M210.937 82.3184V83.6892L208.304 89.8443H206.001L208.524 84.0456H206.55V85.1972H204.74V82.3184H210.937Z" fill="#263238"/>
<path d="M217.309 87.4442C217.309 88.8151 216.309 89.994 214.047 89.994C213.035 90.016 212.036 89.7651 211.154 89.2675L211.908 87.6636C212.522 88.0708 213.242 88.29 213.978 88.2942C214.705 88.2942 215.185 88.0063 215.185 87.4991C215.185 86.9918 214.869 86.7451 213.732 86.7451H211.703L212.073 82.3721H216.83V84.0034H213.786L213.69 85.1001H214.184C216.446 85.0589 217.309 86.1145 217.309 87.4442Z" fill="#263238"/>
<path d="M217.68 84.3461C217.709 83.9738 217.846 83.6181 218.075 83.3227C218.304 83.0273 218.613 82.8049 218.966 82.683C219.319 82.561 219.7 82.5447 220.062 82.636C220.424 82.7273 220.752 82.9223 221.005 83.1971C221.258 83.4719 221.425 83.8145 221.486 84.183C221.547 84.5514 221.5 84.9297 221.349 85.2714C221.198 85.6132 220.951 85.9035 220.638 86.1068C220.325 86.3101 219.959 86.4176 219.585 86.4161C219.319 86.4214 219.055 86.3701 218.811 86.2657C218.566 86.1613 218.346 86.006 218.166 85.8103C217.986 85.6146 217.85 85.3829 217.766 85.1305C217.682 84.8781 217.653 84.6107 217.68 84.3461ZM224.013 82.3721H225.548L220.435 89.8432H218.9L224.013 82.3721ZM220.216 84.3461C220.216 83.5921 219.955 83.2906 219.585 83.2906C219.215 83.2906 218.955 83.5921 218.955 84.3461C218.955 85.1001 219.243 85.4017 219.585 85.4017C219.928 85.4017 220.216 85.0589 220.216 84.3461ZM222.958 87.8692C222.987 87.4969 223.124 87.1412 223.353 86.8458C223.581 86.5503 223.891 86.328 224.244 86.206C224.597 86.0841 224.978 86.0677 225.34 86.1591C225.702 86.2504 226.03 86.4454 226.283 86.7202C226.536 86.995 226.703 87.3376 226.764 87.7061C226.825 88.0745 226.778 88.4528 226.627 88.7945C226.476 89.1362 226.229 89.4265 225.916 89.6299C225.602 89.8332 225.237 89.9407 224.863 89.9392C224.597 89.9445 224.333 89.8932 224.088 89.7888C223.844 89.6843 223.624 89.5291 223.444 89.3334C223.264 89.1377 223.127 88.906 223.043 88.6536C222.96 88.4012 222.93 88.1338 222.958 87.8692ZM225.494 87.8692C225.494 87.1152 225.219 86.8136 224.863 86.8136C224.507 86.8136 224.232 87.1152 224.232 87.8692C224.232 88.6232 224.507 88.9248 224.863 88.9248C225.219 88.9248 225.494 88.6369 225.494 87.8692Z" fill="#263238"/>
<path d="M53.241 193.946H45.4902V211.798H53.241V193.946Z" fill="#EBEBEB"/>
<path d="M79.532 193.946H71.7812V211.798H79.532V193.946Z" fill="#EBEBEB"/>
<path d="M66.3914 177.688H58.6406V211.799H66.3914V177.688Z" fill="#F5F5F5"/>
<path d="M92.6824 177.688H84.9316V211.799H92.6824V177.688Z" fill="#F5F5F5"/>
<path d="M105.823 178.662H98.0723V211.798H105.823V178.662Z" fill="#EBEBEB"/>
<path d="M132.114 178.662H124.363V211.798H132.114V178.662Z" fill="#EBEBEB"/>
<path d="M158.405 178.662H150.654V211.798H158.405V178.662Z" fill="#EBEBEB"/>
<path d="M118.973 161.28H111.223V211.81H118.973V161.28Z" fill="#F5F5F5"/>
<path d="M145.264 166.223H137.514V211.799H145.264V166.223Z" fill="#F5F5F5"/>
<path d="M197.237 178.662H189.486V211.798H197.237V178.662Z" fill="#EBEBEB"/>
<path d="M184.098 185.026H176.348V211.799H184.098V185.026Z" fill="#F5F5F5"/>
<path d="M224.733 160.982H216.982V211.798H224.733V160.982Z" fill="#EBEBEB"/>
<path d="M211.595 185.026H203.844V211.799H211.595V185.026Z" fill="#F5F5F5"/>
<path d="M237.895 185.026H230.145V211.799H237.895V185.026Z" fill="#F5F5F5"/>
<path d="M171.557 173.205H163.807V211.799H171.557V173.205Z" fill="#EBEBEB"/>
<path d="M114.456 163.277C115.558 163.277 116.451 162.384 116.451 161.282C116.451 160.18 115.558 159.287 114.456 159.287C113.354 159.287 112.461 160.18 112.461 161.282C112.461 162.384 113.354 163.277 114.456 163.277Z" fill="#46B2C8"/>
<path d="M114.455 164.893C113.738 164.893 113.037 164.68 112.441 164.281C111.845 163.883 111.381 163.316 111.107 162.653C110.833 161.991 110.762 161.262 110.902 160.559C111.043 159.855 111.389 159.21 111.897 158.704C112.405 158.197 113.052 157.853 113.755 157.715C114.459 157.576 115.188 157.65 115.85 157.926C116.511 158.202 117.077 158.668 117.473 159.265C117.87 159.862 118.081 160.564 118.078 161.281C118.075 162.24 117.692 163.159 117.013 163.836C116.334 164.513 115.414 164.893 114.455 164.893ZM114.455 157.945C113.795 157.942 113.149 158.136 112.598 158.501C112.048 158.867 111.619 159.387 111.364 159.996C111.11 160.606 111.042 161.277 111.17 161.925C111.297 162.573 111.614 163.169 112.08 163.636C112.547 164.104 113.141 164.423 113.789 164.553C114.436 164.682 115.108 164.617 115.718 164.365C116.328 164.113 116.85 163.685 117.217 163.136C117.584 162.587 117.78 161.941 117.78 161.281C117.78 160.398 117.43 159.551 116.807 158.926C116.184 158.3 115.338 157.948 114.455 157.945Z" fill="#46B2C8"/>
<path d="M116.052 156.191L115.949 152.27L116.923 152.292L115.1 150.057L113.266 152.304L114.275 152.315L114.378 156.191H116.052Z" fill="#EBEBEB"/>
<path d="M51.5662 185.784C51.5662 186.179 51.4492 186.564 51.23 186.892C51.0108 187.221 50.6992 187.476 50.3347 187.627C49.9701 187.778 49.569 187.818 49.182 187.741C48.795 187.664 48.4395 187.474 48.1605 187.195C47.8815 186.916 47.6915 186.56 47.6145 186.173C47.5375 185.786 47.577 185.385 47.728 185.021C47.879 184.656 48.1348 184.345 48.4628 184.125C48.7909 183.906 49.1766 183.789 49.5712 183.789C50.1003 183.789 50.6078 183.999 50.9819 184.373C51.356 184.748 51.5662 185.255 51.5662 185.784Z" fill="#46B2C8"/>
<path d="M49.5724 189.476C48.8553 189.476 48.1543 189.263 47.5583 188.864C46.9622 188.466 46.4978 187.899 46.2239 187.237C45.95 186.574 45.8789 185.845 46.0197 185.142C46.1604 184.438 46.5066 183.793 47.0145 183.287C47.5224 182.78 48.169 182.436 48.8726 182.298C49.5762 182.159 50.305 182.233 50.9668 182.509C51.6287 182.785 52.1938 183.251 52.5905 183.848C52.9872 184.445 53.1978 185.147 53.1955 185.864C53.1955 186.339 53.1017 186.81 52.9195 187.249C52.7373 187.688 52.4702 188.087 52.1336 188.422C51.797 188.758 51.3975 189.023 50.958 189.204C50.5185 189.385 50.0476 189.477 49.5724 189.476ZM49.5724 182.528C48.9125 182.528 48.2674 182.723 47.7187 183.09C47.17 183.457 46.7424 183.978 46.4898 184.587C46.2373 185.197 46.1712 185.868 46.3 186.515C46.4287 187.162 46.7465 187.757 47.2131 188.223C47.6797 188.69 48.2742 189.008 48.9214 189.137C49.5687 189.265 50.2395 189.199 50.8492 188.947C51.4589 188.694 51.98 188.266 52.3466 187.718C52.7132 187.169 52.9089 186.524 52.9089 185.864C52.9104 185.426 52.8251 184.991 52.658 184.585C52.4909 184.18 52.2451 183.812 51.935 183.501C51.6249 183.191 51.2565 182.946 50.851 182.779C50.4455 182.611 50.011 182.526 49.5724 182.528Z" fill="#46B2C8"/>
<path d="M48.3782 173.423L48.4814 177.505L47.4609 177.493L49.3642 179.809L51.2676 177.47L50.2127 177.459L50.1095 173.434L48.3782 173.423Z" fill="#EBEBEB"/>
<path d="M153.829 164.893L153.933 168.974L152.912 168.963L154.815 171.279L156.719 168.94L155.664 168.929L155.561 164.904L153.829 164.893Z" fill="#EBEBEB"/>
<path d="M177.827 201.033L154.494 179.145C139.704 172.002 116.875 161.488 114.215 161.625C111.234 161.809 54.5938 184.121 33.0727 192.709L32.6484 191.643C35.8244 190.381 110.363 160.685 114.147 160.49H114.227C118.366 160.49 151.295 176.347 155.068 178.159L155.205 178.262L178.01 199.646C182.344 197.352 207.145 184.27 207.569 184.087C207.718 184.018 208.108 183.857 242.218 183.857V185.004C229.124 185.004 209.461 185.004 207.97 185.164C206.675 185.818 188.066 195.633 178.159 200.849L177.827 201.033Z" fill="#46B2C8"/>
<path d="M156.81 178.181C156.81 178.575 156.693 178.961 156.474 179.289C156.255 179.617 155.943 179.873 155.579 180.024C155.214 180.175 154.813 180.214 154.426 180.137C154.039 180.06 153.684 179.87 153.405 179.591C153.126 179.312 152.936 178.957 152.859 178.57C152.782 178.183 152.821 177.782 152.972 177.417C153.123 177.053 153.379 176.741 153.707 176.522C154.035 176.303 154.421 176.186 154.815 176.186C155.077 176.186 155.337 176.237 155.579 176.337C155.821 176.438 156.041 176.585 156.226 176.77C156.411 176.955 156.558 177.175 156.659 177.417C156.759 177.659 156.81 177.919 156.81 178.181Z" fill="#46B2C8"/>
<path d="M154.815 181.873C154.098 181.873 153.397 181.661 152.802 181.263C152.206 180.865 151.741 180.299 151.467 179.637C151.193 178.975 151.121 178.246 151.261 177.543C151.401 176.84 151.746 176.195 152.253 175.688C152.759 175.181 153.405 174.836 154.108 174.697C154.811 174.557 155.539 174.629 156.201 174.903C156.863 175.177 157.429 175.641 157.827 176.237C158.225 176.833 158.438 177.534 158.438 178.25C158.435 179.21 158.052 180.13 157.373 180.809C156.694 181.488 155.775 181.87 154.815 181.873ZM154.815 174.925C154.157 174.925 153.514 175.12 152.967 175.485C152.42 175.851 151.994 176.37 151.743 176.978C151.491 177.585 151.425 178.254 151.553 178.899C151.682 179.544 151.998 180.136 152.463 180.601C152.928 181.066 153.521 181.383 154.166 181.511C154.811 181.64 155.479 181.574 156.087 181.322C156.695 181.07 157.214 180.644 157.579 180.097C157.945 179.551 158.14 178.908 158.14 178.25C158.146 177.81 158.064 177.372 157.9 176.964C157.735 176.555 157.491 176.183 157.182 175.869C156.873 175.556 156.504 175.307 156.098 175.137C155.691 174.967 155.255 174.879 154.815 174.879V174.925Z" fill="#46B2C8"/>
<path d="M209.795 184.122C209.795 184.517 209.678 184.902 209.459 185.23C209.239 185.558 208.928 185.814 208.563 185.965C208.199 186.116 207.798 186.156 207.411 186.079C207.024 186.002 206.668 185.812 206.389 185.533C206.11 185.254 205.92 184.898 205.843 184.511C205.766 184.124 205.806 183.723 205.957 183.359C206.108 182.994 206.363 182.682 206.691 182.463C207.019 182.244 207.405 182.127 207.8 182.127C208.062 182.127 208.321 182.179 208.563 182.279C208.805 182.379 209.025 182.526 209.21 182.711C209.396 182.897 209.543 183.116 209.643 183.359C209.743 183.601 209.795 183.86 209.795 184.122Z" fill="#46B2C8"/>
<path d="M207.799 187.813C207.082 187.813 206.382 187.6 205.786 187.202C205.19 186.804 204.726 186.238 204.452 185.576C204.177 184.914 204.106 184.186 204.245 183.483C204.385 182.78 204.73 182.134 205.237 181.628C205.744 181.121 206.389 180.776 207.092 180.636C207.795 180.496 208.523 180.568 209.185 180.842C209.848 181.116 210.413 181.581 210.811 182.177C211.21 182.772 211.422 183.473 211.422 184.19C211.419 185.15 211.036 186.069 210.358 186.748C209.679 187.427 208.759 187.81 207.799 187.813ZM207.799 180.865C207.138 180.862 206.491 181.056 205.941 181.422C205.391 181.788 204.961 182.309 204.707 182.919C204.453 183.529 204.386 184.201 204.515 184.849C204.643 185.497 204.961 186.093 205.428 186.56C205.896 187.028 206.491 187.346 207.139 187.474C207.788 187.602 208.459 187.535 209.07 187.281C209.68 187.027 210.201 186.598 210.566 186.048C210.932 185.497 211.126 184.85 211.124 184.19C211.124 183.308 210.774 182.462 210.15 181.838C209.527 181.215 208.681 180.865 207.799 180.865Z" fill="#46B2C8"/>
<path d="M206.72 172.275L206.835 176.357L205.814 176.334L207.718 178.662L209.621 176.311H208.566L208.452 172.287L206.72 172.275Z" fill="#EBEBEB"/>
<g filter="url(#filter1_d_1633_14604)">
<rect x="220.758" y="156.158" width="161.925" height="134.841" rx="15" fill="#46B2C8"/>
</g>
<path d="M220.758 171.281C220.758 162.996 227.474 156.158 235.758 156.158H367.682C375.967 156.158 382.682 162.996 382.682 171.281H220.758Z" fill="white"/>
<circle cx="235.164" cy="163.65" r="2.30498" fill="#115766"/>
<circle cx="242.08" cy="163.65" r="2.30498" fill="#115766"/>
<circle cx="248.994" cy="163.65" r="2.30498" fill="#115766"/>
<path d="M368.467 193.123H358.448H330.792H236.812L237.032 192.968C237.032 200.345 237.032 208.008 237.032 215.847C237.032 223.686 237.032 231.811 237.032 239.43L236.812 239.254H236.592V239.099C236.592 231.481 236.592 223.686 236.592 215.516C236.592 207.347 236.592 200.103 236.592 192.638V192.462H236.812H330.792H358.448H368.467V193.123Z" fill="#E0E0E0"/>
<path d="M368.466 200.874C368.466 200.874 338.982 201.051 302.627 201.051C266.273 201.051 236.811 201.051 236.811 200.874C236.811 200.698 266.273 200.698 302.627 200.698C338.982 200.698 368.466 200.874 368.466 200.874Z" fill="#E0E0E0"/>
<path d="M368.466 207.347C368.466 207.347 338.982 207.501 302.627 207.501C266.273 207.501 236.811 207.501 236.811 207.347C236.811 207.193 266.273 207.171 302.627 207.171C338.982 207.171 368.466 207.237 368.466 207.347Z" fill="#E0E0E0"/>
<path d="M368.466 213.733C368.466 213.733 338.982 213.909 302.627 213.909C266.273 213.909 236.811 213.909 236.811 213.733C236.811 213.557 266.273 213.579 302.627 213.579C338.982 213.579 368.466 213.645 368.466 213.733Z" fill="#E0E0E0"/>
<path d="M368.466 220.142C368.466 220.142 338.982 220.296 302.627 220.296C266.273 220.296 236.811 220.296 236.811 220.142C236.811 219.988 266.273 219.966 302.627 219.966C338.982 219.966 368.466 220.054 368.466 220.142Z" fill="#E0E0E0"/>
<path d="M368.466 226.527C368.466 226.527 338.982 226.703 302.627 226.703C266.273 226.703 236.811 226.703 236.811 226.527C236.811 226.351 266.273 226.373 302.627 226.373C338.982 226.373 368.466 226.439 368.466 226.527Z" fill="#E0E0E0"/>
<path d="M236.811 232.936C236.811 232.936 266.273 232.76 302.627 232.76C338.982 232.76 368.466 232.76 368.466 232.936C368.466 233.112 338.982 233.112 302.627 233.112C266.273 233.112 236.811 233.024 236.811 232.936Z" fill="#E0E0E0"/>
<path d="M255.463 240.29C255.463 240.29 255.309 229.721 255.309 216.707C255.309 203.693 255.309 193.124 255.463 193.124C255.617 193.124 255.639 203.671 255.639 216.707C255.639 229.743 255.573 240.29 255.463 240.29Z" fill="#E0E0E0"/>
<path d="M274.42 240.29C274.42 240.29 274.266 229.721 274.266 216.707C274.266 203.693 274.266 193.124 274.42 193.124C274.574 193.124 274.596 203.671 274.596 216.707C274.596 229.743 274.53 240.29 274.42 240.29Z" fill="#E0E0E0"/>
<path d="M293.313 240.29C293.203 240.29 293.137 229.721 293.137 216.707C293.137 203.693 293.137 193.124 293.313 193.124C293.489 193.124 293.467 203.671 293.467 216.707C293.467 229.743 293.489 240.29 293.313 240.29Z" fill="#E0E0E0"/>
<path d="M312.36 240.29C312.36 240.29 312.184 229.721 312.184 216.707C312.184 203.693 312.184 193.124 312.36 193.124C312.536 193.124 312.514 203.671 312.514 216.707C312.514 229.743 312.448 240.29 312.36 240.29Z" fill="#E0E0E0"/>
<path d="M331.317 240.29C331.207 240.29 331.141 229.721 331.141 216.707C331.141 203.693 331.141 193.124 331.317 193.124C331.493 193.124 331.471 203.671 331.471 216.707C331.471 229.743 331.405 240.29 331.317 240.29Z" fill="#E0E0E0"/>
<path d="M349.661 240.29C349.661 240.29 349.484 229.721 349.484 216.707C349.484 203.693 349.484 193.124 349.661 193.124C349.837 193.124 349.837 203.671 349.837 216.707C349.837 229.743 349.749 240.29 349.661 240.29Z" fill="#E0E0E0"/>
<path d="M368.619 240.29C368.619 240.29 368.465 229.721 368.465 216.707C368.465 203.693 368.465 193.124 368.619 193.124C368.773 193.124 368.795 203.671 368.795 216.707C368.795 229.743 368.707 240.29 368.619 240.29Z" fill="#E0E0E0"/>
<path d="M256.628 232.936C256.629 233.088 256.598 233.239 256.539 233.379C256.48 233.52 256.394 233.647 256.285 233.753C256.177 233.86 256.048 233.944 255.906 234C255.765 234.056 255.614 234.084 255.461 234.081C255.291 234.13 255.112 234.138 254.937 234.106C254.763 234.073 254.599 234.001 254.457 233.894C254.316 233.787 254.201 233.649 254.122 233.491C254.043 233.332 254.002 233.157 254.002 232.98C254.002 232.803 254.043 232.628 254.122 232.469C254.201 232.311 254.316 232.173 254.457 232.066C254.599 231.959 254.763 231.887 254.937 231.854C255.112 231.822 255.291 231.83 255.461 231.879C255.754 231.872 256.038 231.978 256.255 232.175C256.473 232.372 256.606 232.644 256.628 232.936Z" fill="white"/>
<path d="M274.422 221.287C275.055 221.287 275.567 220.774 275.567 220.142C275.567 219.51 275.055 218.997 274.422 218.997C273.79 218.997 273.277 219.51 273.277 220.142C273.277 220.774 273.79 221.287 274.422 221.287Z" fill="white"/>
<path d="M294.546 226.416C294.569 226.582 294.556 226.75 294.508 226.909C294.461 227.069 294.379 227.217 294.27 227.343C294.16 227.469 294.025 227.569 293.873 227.638C293.721 227.708 293.556 227.743 293.39 227.743C293.223 227.743 293.058 227.708 292.906 227.638C292.754 227.569 292.619 227.469 292.51 227.343C292.4 227.217 292.319 227.069 292.271 226.909C292.224 226.75 292.211 226.582 292.234 226.416C292.272 226.137 292.411 225.881 292.623 225.696C292.836 225.511 293.108 225.409 293.39 225.409C293.672 225.409 293.944 225.511 294.156 225.696C294.369 225.881 294.507 226.137 294.546 226.416Z" fill="white"/>
<path d="M313.394 212.94C313.619 213.165 313.745 213.47 313.745 213.788C313.745 214.106 313.619 214.411 313.394 214.636C313.169 214.86 312.865 214.987 312.547 214.987C312.229 214.987 311.924 214.86 311.699 214.636C311.474 214.411 311.348 214.106 311.348 213.788C311.348 213.47 311.474 213.165 311.699 212.94C311.924 212.715 312.229 212.589 312.547 212.589C312.865 212.589 313.169 212.715 313.394 212.94Z" fill="white"/>
<path d="M332.574 212.94C332.799 213.165 332.925 213.47 332.925 213.788C332.925 214.106 332.799 214.411 332.574 214.636C332.349 214.86 332.044 214.987 331.726 214.987C331.408 214.987 331.103 214.86 330.879 214.636C330.654 214.411 330.527 214.106 330.527 213.788C330.527 213.47 330.654 213.165 330.879 212.94C331.103 212.715 331.408 212.589 331.726 212.589C332.044 212.589 332.349 212.715 332.574 212.94Z" fill="white"/>
<path d="M350.563 225.512C350.788 225.734 350.915 226.036 350.917 226.352C350.919 226.668 350.796 226.972 350.574 227.197C350.352 227.422 350.05 227.549 349.734 227.551C349.418 227.553 349.114 227.43 348.89 227.208C348.665 226.986 348.537 226.684 348.535 226.368C348.533 226.052 348.657 225.748 348.878 225.523C349.1 225.299 349.403 225.171 349.718 225.169C350.034 225.167 350.338 225.29 350.563 225.512Z" fill="white"/>
<path d="M275.696 207.348C275.657 207.628 275.519 207.883 275.307 208.068C275.094 208.254 274.822 208.356 274.54 208.356C274.258 208.356 273.986 208.254 273.773 208.068C273.561 207.883 273.423 207.628 273.384 207.348C273.361 207.183 273.374 207.015 273.422 206.855C273.469 206.695 273.551 206.548 273.66 206.422C273.77 206.296 273.905 206.195 274.057 206.126C274.208 206.057 274.373 206.021 274.54 206.021C274.707 206.021 274.872 206.057 275.023 206.126C275.175 206.195 275.31 206.296 275.42 206.422C275.53 206.548 275.611 206.695 275.659 206.855C275.706 207.015 275.719 207.183 275.696 207.348Z" fill="#455A64"/>
<path d="M256.629 226.528C256.629 226.838 256.506 227.134 256.287 227.353C256.068 227.572 255.771 227.695 255.462 227.695C255.309 227.695 255.159 227.665 255.018 227.606C254.878 227.547 254.751 227.461 254.644 227.352C254.537 227.243 254.454 227.114 254.397 226.973C254.341 226.832 254.314 226.68 254.317 226.528C254.317 226.378 254.346 226.229 254.404 226.09C254.461 225.951 254.546 225.825 254.652 225.718C254.758 225.612 254.884 225.528 255.023 225.47C255.162 225.413 255.311 225.383 255.462 225.383C255.614 225.38 255.765 225.408 255.907 225.464C256.048 225.52 256.177 225.604 256.286 225.71C256.394 225.817 256.48 225.944 256.539 226.085C256.598 226.225 256.629 226.376 256.629 226.528Z" fill="#455A64"/>
<path d="M350.564 232.099C350.786 232.323 350.91 232.627 350.908 232.943C350.906 233.259 350.778 233.561 350.553 233.783C350.328 234.005 350.025 234.128 349.709 234.126C349.393 234.124 349.091 233.997 348.869 233.772C348.647 233.547 348.523 233.243 348.525 232.927C348.527 232.612 348.655 232.309 348.88 232.088C349.105 231.866 349.408 231.742 349.724 231.744C350.04 231.746 350.342 231.874 350.564 232.099Z" fill="#455A64"/>
<path d="M332.464 220.144C332.464 220.447 332.344 220.739 332.129 220.953C331.914 221.168 331.623 221.289 331.319 221.289C331.167 221.292 331.016 221.264 330.874 221.208C330.733 221.152 330.604 221.068 330.495 220.961C330.387 220.855 330.3 220.727 330.242 220.587C330.183 220.447 330.152 220.296 330.152 220.144C330.152 219.834 330.275 219.537 330.494 219.318C330.713 219.1 331.01 218.977 331.319 218.977C331.472 218.977 331.622 219.007 331.763 219.066C331.903 219.125 332.03 219.211 332.137 219.32C332.244 219.428 332.327 219.557 332.384 219.699C332.44 219.84 332.467 219.991 332.464 220.144Z" fill="#455A64"/>
<path d="M313.703 219.967C313.703 220.276 313.58 220.573 313.361 220.792C313.142 221.011 312.845 221.134 312.536 221.134C312.384 221.134 312.233 221.103 312.093 221.044C311.952 220.985 311.825 220.899 311.718 220.79C311.612 220.682 311.528 220.553 311.472 220.411C311.415 220.27 311.388 220.119 311.391 219.967C311.391 219.663 311.511 219.372 311.726 219.157C311.941 218.942 312.232 218.822 312.536 218.822C312.688 218.819 312.839 218.846 312.981 218.902C313.122 218.959 313.251 219.042 313.36 219.149C313.468 219.256 313.555 219.383 313.614 219.523C313.673 219.664 313.703 219.814 313.703 219.967Z" fill="#455A64"/>
<path d="M234.08 239.321C233.107 239.527 232.102 239.527 231.129 239.321C232.098 239.087 233.11 239.087 234.08 239.321Z" fill="#E0E0E0"/>
<path d="M234.08 231.878C233.107 232.084 232.102 232.084 231.129 231.878C232.098 231.644 233.11 231.644 234.08 231.878Z" fill="#E0E0E0"/>
<path d="M234.08 224.438C233.107 224.643 232.102 224.643 231.129 224.438C232.098 224.203 233.11 224.203 234.08 224.438Z" fill="#E0E0E0"/>
<path d="M234.08 216.993C233.107 217.199 232.102 217.199 231.129 216.993C232.098 216.759 233.11 216.759 234.08 216.993Z" fill="#E0E0E0"/>
<path d="M234.08 209.548C233.107 209.754 232.102 209.754 231.129 209.548C232.098 209.313 233.11 209.313 234.08 209.548Z" fill="#E0E0E0"/>
<path d="M234.08 202.108C233.107 202.313 232.102 202.313 231.129 202.108C232.098 201.873 233.11 201.873 234.08 202.108Z" fill="#E0E0E0"/>
<path d="M234.08 194.663C233.107 194.869 232.102 194.869 231.129 194.663C232.098 194.429 233.11 194.429 234.08 194.663Z" fill="#E0E0E0"/>
<path d="M236.679 239.869L236.48 239.275L255.329 232.647L274.376 219.787L293.335 226.063L312.448 213.468L331.583 213.424L331.671 213.468L349.837 226.327L367.453 214.679L367.805 215.207L349.837 227.098L349.639 226.966L331.385 214.062L312.646 214.106L293.445 226.768L274.486 220.492L255.571 233.241L236.679 239.869Z" fill="white"/>
<path d="M349.947 233.067L331.385 220.45H312.25L293.115 207.832L274.552 207.656L255.593 226.857H236.811V226.219H255.329L274.31 207.018L293.313 207.194L312.448 219.811H331.583L349.727 232.164L367.849 200.302L368.4 200.61L349.947 233.067Z" fill="#455A64"/>
<rect x="242.775" y="253.99" width="31.7315" height="2.04719" fill="#023A59"/>
<rect x="242.775" y="260.643" width="31.7315" height="2.04719" fill="#023A59"/>
<path d="M237.784 252.966C238.539 252.966 239.044 253.496 239.044 254.284V256.104C239.044 256.89 238.539 257.42 237.784 257.42H235.853C235.098 257.42 234.59 256.89 234.59 256.104V254.284C234.59 253.496 235.098 252.966 235.853 252.966H237.784ZM237.748 254.525C237.672 254.449 237.547 254.449 237.472 254.525L236.552 255.445L236.162 255.055C236.086 254.979 235.962 254.979 235.886 255.055C235.81 255.131 235.81 255.253 235.886 255.331L236.416 255.859C236.454 255.897 236.503 255.915 236.552 255.915C236.603 255.915 236.652 255.897 236.69 255.859L237.748 254.801C237.824 254.725 237.824 254.603 237.748 254.525Z" fill="#C9EAF1"/>
<path d="M237.784 259.619C238.539 259.619 239.044 260.149 239.044 260.938V262.757C239.044 263.543 238.539 264.073 237.784 264.073H235.853C235.098 264.073 234.59 263.543 234.59 262.757V260.938C234.59 260.149 235.098 259.619 235.853 259.619H237.784ZM237.748 261.178C237.672 261.102 237.547 261.102 237.472 261.178L236.552 262.098L236.162 261.708C236.086 261.632 235.962 261.632 235.886 261.708C235.81 261.784 235.81 261.906 235.886 261.984L236.416 262.512C236.454 262.55 236.503 262.568 236.552 262.568C236.603 262.568 236.652 262.55 236.69 262.512L237.748 261.454C237.824 261.379 237.824 261.256 237.748 261.178Z" fill="#C9EAF1"/>
<rect x="284.721" y="248.934" width="82.9792" height="20.7448" fill="#EEEEEE"/>
<rect x="291.059" y="254.696" width="25.931" height="2.30498" fill="#D9D9D9"/>
<rect x="291.059" y="261.611" width="69.7256" height="2.30498" fill="#D9D9D9"/>
<defs>
<filter id="filter0_d_1633_14604" x="0" y="0" width="292.221" height="250.076" filterUnits="userSpaceOnUse" color-interpolation-filters="sRGB">
<feFlood flood-opacity="0" result="BackgroundImageFix"/>
<feColorMatrix in="SourceAlpha" type="matrix" values="0 0 0 0 0 0 0 0 0 0 0 0 0 0 0 0 0 0 127 0" result="hardAlpha"/>
<feOffset dy="8"/>
<feGaussianBlur stdDeviation="8"/>
<feComposite in2="hardAlpha" operator="out"/>
<feColorMatrix type="matrix" values="0 0 0 0 0 0 0 0 0 0 0 0 0 0 0 0 0 0 0.08 0"/>
<feBlend mode="normal" in2="BackgroundImageFix" result="effect1_dropShadow_1633_14604"/>
<feBlend mode="normal" in="SourceGraphic" in2="effect1_dropShadow_1633_14604" result="shape"/>
</filter>
<filter id="filter1_d_1633_14604" x="204.758" y="148.158" width="193.924" height="166.841" filterUnits="userSpaceOnUse" color-interpolation-filters="sRGB">
<feFlood flood-opacity="0" result="BackgroundImageFix"/>
<feColorMatrix in="SourceAlpha" type="matrix" values="0 0 0 0 0 0 0 0 0 0 0 0 0 0 0 0 0 0 127 0" result="hardAlpha"/>
<feOffset dy="8"/>
<feGaussianBlur stdDeviation="8"/>
<feComposite in2="hardAlpha" operator="out"/>
<feColorMatrix type="matrix" values="0 0 0 0 0 0 0 0 0 0 0 0 0 0 0 0 0 0 0.08 0"/>
<feBlend mode="normal" in2="BackgroundImageFix" result="effect1_dropShadow_1633_14604"/>
<feBlend mode="normal" in="SourceGraphic" in2="effect1_dropShadow_1633_14604" result="shape"/>
</filter>
</defs>
</svg>
