<svg width="416" height="486" viewBox="0 0 416 486" fill="none" xmlns="http://www.w3.org/2000/svg">
<g clip-path="url(#clip0)">
<path d="M415.702 62.6952V355.639C415.702 357.269 415.497 358.877 415.098 360.43C414.134 364.227 412.036 367.69 409.029 370.336L399.693 378.546L396.503 381.344L384.958 391.486L378.136 397.474L378.13 397.479L362.614 411.111L351.323 421.023L350.637 421.632L342.491 428.783L336.643 433.919L333.238 436.91L331.937 438.052L328.249 441.295L324.24 444.819L320.945 447.716C320.939 447.716 320.939 447.716 320.939 447.716L320.568 448.04C320.568 448.045 320.563 448.045 320.563 448.045L319.655 448.841L296.06 469.569L293.54 471.781L290.002 474.887L282.897 481.127C279.281 484.272 274.646 486 269.834 486H19.8241C18.9048 486 18.0022 485.94 17.1218 485.819C7.4534 484.513 0 476.298 0 466.359V62.6952C0 51.8455 8.87652 43.0537 19.8241 43.0537H395.883C406.831 43.0537 415.702 51.8455 415.702 62.6952Z" fill="#045764"/>
<path d="M415.099 360.429C414.135 364.227 412.037 367.69 409.03 370.335L399.694 378.545L396.504 381.344L384.958 391.486L378.136 397.473L378.131 397.479C358.318 400.689 337.94 403.938 335.841 404.037H335.836C335.747 404.042 335.692 404.042 335.675 404.031C335.659 404.026 335.659 403.971 335.67 403.872C335.67 403.867 335.67 403.867 335.67 403.861C335.78 402.835 337.17 397.204 339.33 388.676C340.31 384.812 341.445 380.351 342.697 375.45C342.902 374.654 343.106 373.847 343.317 373.024C345.532 364.375 348.057 354.519 350.66 344.267C350.66 344.262 350.66 344.262 350.66 344.262C350.914 343.246 351.175 342.231 351.435 341.21C351.529 340.837 351.623 340.464 351.717 340.091C352.531 336.875 353.351 333.631 354.165 330.382V330.377C354.497 329.076 354.824 327.77 355.145 326.469C355.294 325.877 355.444 325.279 355.593 324.686C355.61 324.604 355.632 324.521 355.649 324.444C355.782 323.929 355.909 323.413 356.036 322.902C356.651 320.449 357.255 318.007 357.853 315.587C358.052 314.78 358.251 313.979 358.451 313.178C358.467 313.101 358.489 313.018 358.506 312.936C358.993 310.977 359.47 309.029 359.935 307.108C360.084 306.51 360.228 305.911 360.372 305.319C361.064 302.47 361.74 299.677 362.388 296.95C362.526 296.39 362.659 295.835 362.787 295.281C363.036 294.233 363.285 293.201 363.523 292.18C363.645 291.676 363.761 291.176 363.877 290.677C364.149 289.513 364.42 288.366 364.68 287.236C364.763 286.857 364.852 286.484 364.941 286.111C365.024 285.743 365.112 285.37 365.195 285.002C366.043 281.303 366.818 277.829 367.499 274.657C367.565 274.355 367.626 274.059 367.693 273.768C367.743 273.554 367.787 273.34 367.831 273.132C367.864 272.956 367.903 272.78 367.942 272.605C368.246 271.167 368.529 269.8 368.784 268.511C368.894 267.962 369 267.43 369.099 266.914C369.144 266.683 369.188 266.458 369.232 266.239C369.288 265.953 369.337 265.679 369.387 265.405C369.398 265.361 369.404 265.311 369.415 265.267C369.437 265.152 369.454 265.031 369.476 264.916C369.492 264.839 369.509 264.757 369.526 264.68C369.537 264.603 369.553 264.521 369.564 264.444C369.57 264.428 369.57 264.411 369.575 264.4C369.598 264.258 369.625 264.115 369.647 263.978H369.653C369.681 263.824 369.708 263.67 369.731 263.522C369.958 262.238 370.151 261.08 370.295 260.054C370.317 259.889 370.345 259.73 370.362 259.571C370.373 259.521 370.378 259.472 370.384 259.423C370.401 259.291 370.417 259.165 370.434 259.039C370.461 258.868 370.478 258.709 370.495 258.556C370.5 258.534 370.5 258.517 370.506 258.495C370.506 258.473 370.511 258.446 370.511 258.424C370.594 257.699 370.65 257.068 370.672 256.547C370.672 256.454 370.677 256.36 370.677 256.278C370.689 255.96 370.683 255.691 370.661 255.466C370.639 255.23 370.611 254.994 370.578 254.752C370.572 254.708 370.567 254.665 370.561 254.621C370.556 254.61 370.556 254.599 370.556 254.588C370.522 254.368 370.484 254.143 370.445 253.918C370.445 253.902 370.439 253.88 370.434 253.863C370.428 253.825 370.423 253.781 370.412 253.737C370.334 253.32 370.24 252.903 370.135 252.475C370.096 252.305 370.052 252.135 370.002 251.964C369.747 251.004 369.426 250.022 369.055 249.028C368.905 248.622 368.745 248.216 368.579 247.805C368.435 247.453 368.285 247.097 368.13 246.74C368.108 246.691 368.091 246.647 368.064 246.597C368.069 246.592 368.064 246.592 368.064 246.592C367.97 246.383 367.875 246.169 367.781 245.961C367.626 245.615 367.466 245.275 367.3 244.929C367.205 244.731 367.106 244.528 367.006 244.331C366.873 244.056 366.735 243.782 366.591 243.507C366.491 243.304 366.38 243.101 366.275 242.898C366.17 242.695 366.065 242.492 365.954 242.295C365.528 241.488 365.079 240.692 364.625 239.918C364.459 239.627 364.287 239.337 364.116 239.051C364.06 238.952 364.005 238.854 363.944 238.76C363.778 238.48 363.606 238.206 363.44 237.932C363.152 237.454 362.859 236.988 362.565 236.532C362.41 236.28 362.249 236.033 362.089 235.791C361.978 235.621 361.867 235.446 361.757 235.281C361.424 234.771 361.098 234.277 360.771 233.805C360.638 233.607 360.505 233.41 360.372 233.218C359.835 232.433 359.315 231.697 358.838 231.033C358.65 230.781 358.473 230.534 358.301 230.298C358.246 230.216 358.185 230.133 358.124 230.056C358.041 229.941 357.958 229.82 357.875 229.711C357.742 229.53 357.609 229.354 357.482 229.189C357.399 229.08 357.316 228.97 357.238 228.866C357.122 228.706 357.005 228.558 356.9 228.416C356.795 228.278 356.695 228.147 356.601 228.026C356.341 227.691 356.131 227.422 355.975 227.225C355.931 227.164 355.892 227.115 355.854 227.071C355.787 226.989 355.737 226.928 355.715 226.895C355.704 226.884 355.699 226.879 355.693 226.873C355.688 226.862 355.688 226.862 355.688 226.862L348.101 202.979L339.33 183.057L336.257 176.077V176.071L333.582 169.996L330.625 163.29V163.284C330.625 163.284 330.165 162.532 329.507 161.473C328.172 159.322 326.04 155.892 325.381 154.915C324.401 153.455 327.341 143.977 328.321 143.247C329.302 142.517 353.09 138.144 353.09 138.144L356.358 138.89L378.596 143.977L384.975 145.437C400.198 181.982 405.818 213.806 405.818 213.806L415.099 360.429Z" fill="#A85856"/>
<path opacity="0.24" d="M399.693 378.545L396.503 381.344L384.958 391.486L378.136 397.473L378.13 397.479C358.317 400.689 337.939 403.938 335.841 404.037H335.835L335.674 404.031C335.674 404.031 335.674 403.976 335.669 403.872C335.669 403.867 335.669 403.867 335.669 403.861C335.78 402.835 337.17 397.204 339.329 388.676C340.309 384.812 341.445 380.35 342.696 375.45C342.901 374.654 343.106 373.847 343.316 373.024C345.531 364.375 348.056 354.519 350.659 344.267C350.659 344.261 350.659 344.261 350.659 344.261C350.914 343.246 351.174 342.231 351.434 341.21C351.528 340.837 351.622 340.464 351.716 340.091C352.53 336.875 353.35 333.631 354.164 330.382V330.377C354.496 329.076 354.823 327.77 355.144 326.469C355.31 325.794 355.482 325.119 355.648 324.444C355.781 323.928 355.908 323.413 356.036 322.902C356.65 320.449 357.254 318.007 357.852 315.587C357.979 315.071 358.107 314.56 358.228 314.05C358.3 313.759 358.372 313.468 358.45 313.177C358.467 313.101 358.489 313.018 358.505 312.936C358.993 310.977 359.469 309.029 359.934 307.108C360.084 306.51 360.228 305.911 360.371 305.319C361.064 302.47 361.739 299.677 362.387 296.95C362.526 296.39 362.658 295.835 362.786 295.281C363.035 294.233 363.284 293.201 363.522 292.18C363.644 291.676 363.76 291.176 363.877 290.677C364.148 289.513 364.419 288.366 364.68 287.236C364.763 286.857 364.851 286.484 364.94 286.111C365.023 285.743 365.112 285.37 365.195 285.002C366.042 281.303 366.817 277.829 367.498 274.657C367.565 274.355 367.626 274.059 367.692 273.768C367.742 273.554 367.786 273.34 367.83 273.132C367.864 272.956 367.902 272.78 367.941 272.605C368.246 271.167 368.528 269.8 368.783 268.511C368.894 267.962 368.999 267.43 369.099 266.914C369.143 266.683 369.187 266.458 369.231 266.239C369.287 265.953 369.337 265.679 369.386 265.405C369.398 265.361 369.403 265.311 369.414 265.267C369.453 265.07 369.486 264.872 369.525 264.68C369.542 264.587 369.558 264.494 369.575 264.4C369.597 264.258 369.625 264.115 369.652 263.978C369.68 263.824 369.708 263.67 369.73 263.522C369.957 262.238 370.151 261.08 370.295 260.054C370.317 259.889 370.344 259.73 370.361 259.571C370.372 259.521 370.378 259.472 370.383 259.423C370.4 259.291 370.416 259.165 370.433 259.038C370.461 258.868 370.477 258.709 370.494 258.556C370.499 258.534 370.5 258.517 370.505 258.495C370.505 258.473 370.511 258.446 370.511 258.424C370.594 257.699 370.649 257.068 370.671 256.547C370.671 256.454 370.677 256.36 370.677 256.278C370.688 255.96 370.682 255.691 370.66 255.466C370.638 255.23 370.61 254.994 370.577 254.752C370.571 254.708 370.566 254.665 370.56 254.621C370.555 254.61 370.555 254.599 370.555 254.588C370.522 254.368 370.483 254.143 370.444 253.918C370.444 253.902 370.439 253.88 370.433 253.863C370.433 253.847 370.428 253.825 370.428 253.808C370.422 253.786 370.416 253.759 370.411 253.737C370.333 253.32 370.239 252.903 370.134 252.475C370.095 252.305 370.051 252.135 370.001 251.964C369.746 251.004 369.425 250.022 369.054 249.028C368.905 248.622 368.744 248.216 368.578 247.805C368.434 247.453 368.285 247.097 368.129 246.74C368.107 246.69 368.091 246.647 368.063 246.597C368.069 246.592 368.063 246.592 368.063 246.592C367.969 246.383 367.875 246.169 367.781 245.961C367.626 245.615 367.465 245.275 367.299 244.929C367.205 244.731 367.105 244.528 367.005 244.331C366.872 244.056 366.734 243.782 366.59 243.507C366.49 243.304 366.38 243.101 366.274 242.898C366.169 242.695 366.064 242.492 365.953 242.295C365.527 241.488 365.078 240.692 364.624 239.918C364.458 239.627 364.286 239.337 364.115 239.051C364.059 238.952 364.004 238.854 363.943 238.76C363.777 238.48 363.605 238.206 363.439 237.932C363.151 237.454 362.858 236.988 362.564 236.532C365.195 225.435 366.917 217.988 366.917 217.988C366.917 217.988 369.514 222.209 372.587 228.651C375.821 235.435 379.57 244.676 381.375 254.066C384.52 270.437 355.631 358.991 399.693 378.545Z" fill="#3B2E4B"/>
<path d="M355.687 226.862C355.687 226.862 369.569 243.941 370.66 255.466C371.258 261.788 360.427 305.78 350.659 344.267" stroke="#3B2E4B" stroke-width="3.87471" stroke-miterlimit="10" stroke-linecap="round" stroke-linejoin="round"/>
<path d="M379.382 149.844L379.576 151.266L355.687 146.65L356.307 139.488L358.024 119.732L358.24 117.24C358.24 117.24 360.937 108.004 366.917 98.7674C372.898 89.5366 381.542 93.9105 381.542 93.9105L378.308 118.458L375.655 122.069L377.593 136.497L379.382 149.844Z" fill="#A85856"/>
<path d="M101.811 248.09V486H19.8239C18.9046 486 18.002 485.939 17.1216 485.819C17.3652 479.853 17.9854 472.944 18.9102 465.469C19.0763 464.108 19.259 462.731 19.4418 461.337C19.5359 460.623 19.6356 459.904 19.7353 459.185C19.8017 458.702 19.8682 458.22 19.9401 457.737C20.0232 457.127 20.1118 456.524 20.2004 455.909C20.2115 455.86 20.217 455.805 20.2226 455.75C20.4662 454.093 20.7209 452.413 20.9867 450.717C21.0366 450.377 21.0919 450.037 21.1473 449.697C21.5239 447.315 21.9225 444.906 22.3379 442.474C22.3434 442.447 22.3489 442.42 22.3545 442.387C22.4708 441.723 22.587 441.059 22.6978 440.389C22.7199 440.285 22.7366 440.186 22.7532 440.087C22.8196 439.703 22.8916 439.313 22.958 438.929C23.0909 438.155 23.2294 437.387 23.3734 436.613C23.4453 436.224 23.5118 435.84 23.5838 435.45C23.6502 435.06 23.7222 434.676 23.7997 434.286C23.9382 433.518 24.0822 432.75 24.2261 431.976C24.2317 431.97 24.2317 431.965 24.2317 431.954C24.3756 431.175 24.5251 430.401 24.6747 429.622C24.8962 428.453 25.1232 427.284 25.3558 426.12C25.4333 425.731 25.5053 425.341 25.5883 424.951C25.7378 424.183 25.8929 423.415 26.0479 422.646C26.5186 420.303 27.0059 417.965 27.4988 415.644C27.5818 415.254 27.6649 414.87 27.7479 414.486C30.1401 403.301 32.7372 392.451 35.3287 382.82C35.5004 382.167 35.6776 381.525 35.8548 380.883C36.6577 377.947 37.4551 375.137 38.2469 372.475C38.4186 371.882 38.5958 371.301 38.773 370.725C38.9502 370.148 39.1219 369.577 39.2935 369.018C39.4486 368.518 39.6036 368.03 39.7531 367.547C39.8639 367.207 39.9691 366.877 40.0743 366.548C40.246 366.016 40.4121 365.494 40.5837 364.979C41.0987 363.414 41.6026 361.933 42.101 360.533C48.6186 342.225 53.8791 310.318 57.2293 285.962C57.5173 283.861 57.7941 281.819 58.0544 279.843C58.6303 275.475 59.1286 271.447 59.5606 267.907C59.6935 266.771 59.8264 265.684 59.9482 264.653C60.8065 257.326 61.2661 252.788 61.2661 252.788L74.5726 251.245L94.8175 248.902L101.811 248.09Z" fill="#A85856"/>
<path d="M61.2664 252.788C61.2664 252.788 60.8068 257.327 59.9485 264.653C59.8266 265.685 59.6937 266.771 59.5608 267.908C59.5608 267.913 59.5608 267.913 59.5608 267.913C59.1289 271.453 58.6305 275.475 58.0547 279.844C57.7944 281.82 57.5175 283.861 57.2296 285.963C53.8794 310.319 48.6188 342.226 42.1013 360.534C41.6029 361.933 41.099 363.415 40.584 364.979C40.4124 365.495 40.2462 366.016 40.0746 366.549C39.9694 366.878 39.8641 367.207 39.7534 367.547C39.6039 368.03 39.4488 368.519 39.2938 369.018C39.1221 369.578 38.9505 370.149 38.7733 370.725C38.5961 371.301 38.4244 371.883 38.2472 372.476C37.4554 375.137 36.658 377.947 35.855 380.883C35.6778 381.52 35.5006 382.167 35.329 382.821C32.7375 392.452 30.1404 403.302 27.7482 414.486C27.6651 414.87 27.5821 415.255 27.499 415.644C27.0062 417.966 26.5189 420.304 26.0482 422.647C25.8932 423.415 25.7437 424.184 25.5886 424.952C25.5055 425.341 25.4336 425.731 25.356 426.121C25.129 427.29 24.902 428.453 24.6749 429.622C24.5254 430.401 24.3814 431.181 24.2319 431.955C24.2319 431.966 24.2319 431.971 24.2264 431.976C24.0824 432.75 23.9384 433.519 23.8 434.287C23.7225 434.677 23.6505 435.061 23.5841 435.45C23.5121 435.84 23.4456 436.224 23.3736 436.614C23.2297 437.388 23.0912 438.156 22.9583 438.93C22.8919 439.314 22.8199 439.704 22.7534 440.088C22.7368 440.186 22.7202 440.285 22.6981 440.39C22.5873 441.059 22.471 441.723 22.3547 442.387C22.3492 442.42 22.3437 442.448 22.3381 442.475C21.9228 444.906 21.5241 447.315 21.1476 449.697C21.0922 450.037 21.0368 450.378 20.987 450.718C20.7212 452.414 20.4665 454.093 20.2228 455.75C20.2173 455.805 20.2117 455.86 20.2007 455.91C20.1121 456.524 20.0235 457.133 19.9404 457.737C19.8684 458.22 19.802 458.703 19.7355 459.186C19.6359 459.905 19.5362 460.624 19.442 461.337C19.2593 462.731 19.0766 464.109 18.9104 465.47C17.9857 472.944 17.4541 477.993 17.2104 483.959" stroke="#3B2E4B" stroke-width="3.87471" stroke-miterlimit="10" stroke-linecap="round" stroke-linejoin="round"/>
<path d="M61.2662 146.771L44.305 155.409C44.305 155.409 43.5297 154.245 42.3226 152.418C38.7343 146.985 31.3363 135.696 29.4037 132.068C27.7148 128.907 24.9184 118.936 23.1852 112.405C22.5539 110.029 23.1409 107.57 24.6194 105.748C25.2894 104.919 26.1477 104.222 27.1555 103.723L28.6839 102.96C31.3197 101.659 34.4816 102.082 36.6744 104.03C41.1265 107.971 48.1646 114.968 50.0805 121.252C51.0551 124.446 52.661 128.408 54.3555 132.261C55.8949 135.767 57.5118 139.181 58.7965 141.81C60.2473 144.79 61.2662 146.771 61.2662 146.771Z" fill="#A85856"/>
<path opacity="0.24" d="M58.7965 141.81L42.3226 152.418C38.7343 146.985 31.3363 135.696 29.4037 132.068C27.7148 128.907 24.9184 118.936 23.1852 112.405C22.5539 110.029 23.1409 107.57 24.6194 105.748C24.6914 106.407 32.4216 147.907 54.3555 132.261C55.8949 135.767 57.5118 139.181 58.7965 141.81Z" fill="#3B2E4B"/>
<path d="M51.3098 245.209C51.4041 245.187 51.4928 245.181 51.576 245.192C51.221 245.248 51.1211 245.253 51.3098 245.209Z" fill="#D86E6C"/>
<path d="M142.91 276.529C142.91 276.529 140.003 297.548 135.429 308.678C134.26 311.509 132.987 313.891 131.735 315.861C128.08 321.635 124.614 323.923 124.614 323.923L115.881 361.84L72.2187 357.718C72.2187 357.718 73.8799 342.061 73.4646 338.763C73.0493 335.464 77.6232 326.81 77.6232 326.81C59.7428 302.904 51.863 267.655 51.863 267.655C51.863 267.655 54.9806 245.692 52.1288 245.192C54.5819 244.808 69.2728 242.108 85.5972 239.084C108.494 234.842 134.592 229.969 134.592 229.969L142.91 276.529Z" fill="#D86E6C"/>
<path opacity="0.24" d="M140.191 255.142L139.078 255.076L127.864 254.418L114.957 253.66L109.17 253.32L108.217 253.265L101.811 252.887L97.3087 252.623C96.4338 253.304 95.6032 254.034 94.8169 254.791C94.1745 255.417 93.5543 256.064 92.9674 256.728C92.9618 256.728 92.9618 256.734 92.9618 256.734C88.8586 261.399 86.3003 266.93 85.5416 271.645V271.678C85.5361 271.727 85.525 271.776 85.5195 271.826C85.4973 271.974 85.4752 272.122 85.4586 272.27C85.453 272.298 85.453 272.32 85.4475 272.347L85.597 303.53C85.597 310.34 91.1677 315.861 98.0397 315.861H131.735C132.986 313.891 134.26 311.509 135.429 308.678C135.7 308.014 135.971 307.311 136.231 306.581C136.353 306.241 136.475 305.89 136.591 305.538C136.652 305.363 136.713 305.182 136.769 305.001C136.829 304.825 136.89 304.638 136.946 304.457C137.051 304.139 137.156 303.81 137.256 303.48C137.383 303.063 137.511 302.646 137.632 302.218C137.693 302.01 137.754 301.796 137.815 301.576C137.909 301.236 138.009 300.896 138.103 300.55C138.158 300.352 138.214 300.155 138.264 299.952C138.28 299.908 138.291 299.864 138.302 299.82C138.385 299.513 138.463 299.205 138.546 298.898C138.64 298.53 138.734 298.157 138.828 297.784C138.862 297.658 138.889 297.531 138.923 297.405C139.011 297.032 139.1 296.664 139.188 296.291C139.46 295.177 139.714 294.058 139.953 292.949C140.047 292.51 140.141 292.071 140.235 291.632C140.373 290.979 140.506 290.326 140.634 289.689C140.678 289.475 140.717 289.267 140.761 289.053C141.636 284.64 142.267 280.771 142.611 278.543C142.633 278.389 142.655 278.241 142.677 278.104C142.683 278.082 142.683 278.066 142.688 278.044C142.699 277.956 142.716 277.874 142.727 277.791C142.749 277.632 142.771 277.484 142.793 277.352C142.804 277.242 142.821 277.144 142.832 277.056C142.849 276.946 142.865 276.847 142.876 276.77C142.882 276.716 142.887 276.672 142.893 276.639C142.904 276.567 142.91 276.529 142.91 276.529L140.191 255.142ZM89.667 251.268H89.6615C89.6117 251.295 89.5563 251.317 89.5065 251.339L89.4788 251.388C89.4788 251.388 89.5508 251.361 89.6781 251.301C89.8775 251.213 90.2208 251.048 90.6527 250.779C90.326 250.955 90.0048 251.12 89.667 251.268Z" fill="#3B2E4B"/>
<path d="M357.476 346.358C360.222 358.24 363.628 371.74 363.628 371.74C363.628 371.74 301.669 375.862 302.915 374.621C303.646 373.897 306.664 367.515 307.362 353.487C307.777 345.096 307.367 333.966 305.141 319.67C304.792 317.398 304.394 315.049 303.94 312.618C303.89 312.344 303.84 312.069 303.79 311.795C303.773 311.718 303.762 311.641 303.746 311.564C303.746 311.564 303.236 311.345 302.361 310.846C298.906 308.875 289.758 302.542 283.783 288.076C276.302 269.938 295.844 217.994 295.844 217.994C296.553 217.923 299.936 218.62 304.787 219.761C322.125 223.828 358.223 233.492 358.223 233.492L359.065 238.272L363.628 264.176C363.628 264.176 354.48 287.258 347.824 295.913C347.824 295.913 343.25 303.733 349.075 312.805C354.895 321.871 354.48 325.581 354.065 328.874C353.893 330.246 355.515 337.89 357.476 346.358Z" fill="#D86E6C"/>
<path d="M314.522 72.4964V297.306C314.522 304.117 308.951 309.638 302.079 309.638H107.671C100.804 309.638 95.2334 304.117 95.2334 297.306V12.7157C95.2334 5.92161 100.776 0.40618 107.637 0.389716L140.031 0.29642L241.333 6.89082e-05C244.645 -0.0109071 247.823 1.28975 250.166 3.61117L310.873 63.776C313.209 66.0864 314.522 69.2256 314.522 72.4964Z" fill="#3AB3C6"/>
<path opacity="0.24" d="M311.603 320.499C311.603 320.499 306.941 341.902 325.746 353.481H306.908C307.323 345.09 306.913 333.961 304.687 319.664C304.338 317.392 303.94 315.043 303.485 312.612C303.436 312.338 303.386 312.064 303.336 311.789L314.106 313.386L326.92 311.718C326.92 311.718 319.323 320.499 311.603 320.499Z" fill="#3B2E4B"/>
<path d="M27.6761 157.116C27.6761 157.116 54.9314 136.624 61.2663 134.911C67.6011 133.199 71.6213 139.752 71.6213 139.752L73.3434 145.871H78.7978L87.032 159.739L84.8281 166.511H91.4343L101.811 182.168L91.7222 205.992L51.2158 214.827L47.2067 212.501C47.2067 212.501 48.292 202.375 44.2995 199.242C40.3126 196.108 36.2924 195.543 35.1406 191.558C33.9944 187.574 37.1507 182.734 36.2869 180.742C35.423 178.749 29.9686 179.606 27.6706 174.727C26.1533 171.5 23.0357 160.557 27.6761 157.116Z" fill="#A85856"/>
<path d="M73.3431 145.876L46.0601 165.655" stroke="#3B2E4B" stroke-width="3.87471" stroke-miterlimit="10" stroke-linecap="round" stroke-linejoin="round"/>
<path d="M84.8334 166.511L57.2625 185.867" stroke="#3B2E4B" stroke-width="3.87471" stroke-miterlimit="10" stroke-linecap="round" stroke-linejoin="round"/>
<path opacity="0.24" d="M90.1005 250.779C89.3917 251.218 88.9265 251.388 88.9265 251.388L88.9542 251.339C89.3418 251.169 89.7239 250.982 90.1005 250.779Z" fill="#3B2E4B"/>
<path d="M141.543 213.944C141.338 214.438 140.856 214.806 140.258 214.817C135.69 214.91 124.941 214.345 120.733 207.293L94.491 204.927L72.8396 202.973L63.5865 202.139L61.2664 201.931C61.6983 201.931 62.3129 200.921 63.6918 199.061C63.6918 199.061 63.6918 199.061 63.6918 199.055C65.3862 196.739 68.2435 193.112 73.338 188.469C73.3435 188.469 73.3435 188.469 73.3435 188.469C73.3435 188.469 73.3491 188.469 73.3546 188.463C79.4458 182.904 88.7266 175.912 103.024 167.988C105.328 166.709 108.191 167 110.184 168.717C116.94 174.557 131.83 187.47 132.794 188.743C133.907 190.214 139.001 206.475 141.559 212.874C141.703 213.242 141.687 213.62 141.543 213.944Z" fill="#D86E6C"/>
<path opacity="0.24" d="M141.541 213.944C141.337 214.438 140.855 214.805 140.257 214.816C135.688 214.909 124.94 214.344 120.732 207.292L94.4898 204.927C91.411 202.902 89.2957 201.502 88.9524 201.261C89.1074 201.629 80.1589 202.408 72.8384 202.973C67.7938 203.368 63.5244 203.665 63.5244 203.665C63.5244 203.665 63.5466 203.083 63.5853 202.139C63.613 201.332 63.6518 200.257 63.6905 199.06C63.6905 199.06 63.6905 199.06 63.6905 199.055C65.385 196.739 68.2423 193.111 73.3368 188.468C73.3423 188.468 73.3423 188.468 73.3423 188.468C73.3423 188.468 73.3478 188.468 73.3534 188.463C73.8573 188.342 90.0931 184.429 104.169 179.517C118.461 174.529 126.812 201.662 128.606 205.19C130.588 209.092 135.661 213.142 141.541 213.944Z" fill="#3B2E4B"/>
<path d="M355.686 184.457L297.887 179.512L288.323 192.041C288.323 192.041 285.195 197.26 279.009 201.349C274.995 204.01 269.695 206.189 263.128 206.162C261.616 206.156 260.57 204.664 261.118 203.264L261.661 201.898L274.181 170.199C274.181 170.199 312.024 152.061 313.69 152.89C314.687 153.384 328.536 161.462 340.098 169.749C344.191 172.685 347.995 175.643 350.841 178.305C353.366 180.67 355.138 182.794 355.686 184.457Z" fill="#D86E6C"/>
<path opacity="0.24" d="M350.841 178.305L333.647 175.67L295.389 171.812L279.009 201.349C274.995 204.01 269.695 206.189 263.128 206.162C261.616 206.156 260.57 204.663 261.118 203.264L261.661 201.897C261.661 201.897 272.409 205.728 281.623 186.059C290.837 166.39 286.369 167.598 302.422 167.4C315.784 167.23 331.117 171.11 340.098 169.749C344.191 172.685 347.995 175.643 350.841 178.305Z" fill="#3B2E4B"/>
<path d="M140.303 247.799C140.209 247.871 140.114 247.936 140.015 247.997C134.112 251.954 127.146 247.618 127.146 247.618C127.738 255.274 129.604 266.299 130.623 271.968C130.645 272.095 130.668 272.215 130.69 272.336C131.011 274.125 129.483 275.7 127.666 275.459C116.641 274.01 111.331 264.834 109.764 261.558C109.42 260.828 109.26 260.394 109.26 260.394C109.26 260.394 98.0354 269.46 94.2921 271.112C90.5488 272.759 85.5595 272.347 85.5595 272.347C84.7289 263.692 92.21 257.096 92.21 257.096L89.5133 250.916L80.155 252.151C78.4882 261.634 58.5257 264.927 58.5257 264.927C63.5205 276.88 55.973 282.044 55.973 282.044C51.8697 268.401 50.7013 260.279 47.1851 253.024C43.6743 245.769 39.5711 241.993 38.9896 239.962C38.4027 237.932 38.9896 235.029 38.9896 231.258C38.9896 227.483 39.2776 224.87 43.3808 217.324C47.4785 209.778 50.7013 199.335 53.3372 198.753C55.973 198.171 101.358 186.855 106.923 184.534C112.488 182.212 114.537 188.013 114.537 188.013C119.809 201.656 136.205 225.452 136.205 225.452C136.499 233.865 140.303 247.799 140.303 247.799Z" fill="#D86E6C"/>
<path opacity="0.24" d="M127.555 275.459C116.53 274.01 111.22 264.834 109.652 261.557L109.126 258.791L104.968 233.486C104.968 233.486 84.5679 229.14 69.3565 227.845C67.6067 227.697 67.5347 225.178 69.2734 224.953C78.377 223.762 91.3512 223.674 105.732 228.509C105.732 228.509 113.606 233.838 115.4 258.374C116.242 269.883 124.161 272.094 130.512 271.968C130.534 272.094 130.556 272.215 130.578 272.336C130.9 274.125 129.371 275.7 127.555 275.459Z" fill="#3B2E4B"/>
<path opacity="0.24" d="M139.577 248.271L139.428 248.469C133.525 252.426 126.559 248.09 126.559 248.09L125.889 234.952L106.342 206.788L63.5704 213.247L63.3489 212.501C63.3489 212.501 100.289 201.354 107.892 201.354C111.408 201.354 130.092 230.402 129.915 233.487C129.732 236.565 127.7 248.491 139.577 248.271Z" fill="#3B2E4B"/>
<path d="M135.617 225.924C135.617 225.924 119.221 202.128 113.949 188.485C113.949 188.485 111.9 182.679 106.335 185C102.78 186.482 82.956 191.641 68.4202 195.323" stroke="#3B2E4B" stroke-width="3.87471" stroke-miterlimit="10" stroke-linecap="round" stroke-linejoin="round"/>
<path d="M61.2664 212.649C62.9276 211.414 84.3741 211.694 106.297 205.992C106.297 205.992 124.476 231.248 125.722 233.487C126.968 235.732 126.553 248.091 126.553 248.091" stroke="#3B2E4B" stroke-width="3.87471" stroke-miterlimit="10" stroke-linecap="round" stroke-linejoin="round"/>
<path d="M68.3374 227.038C68.3374 227.038 100.36 229.178 104.934 233.481C104.934 233.481 111.17 252.206 108.678 260.866" stroke="#3B2E4B" stroke-width="3.87471" stroke-miterlimit="10" stroke-linecap="round" stroke-linejoin="round"/>
<path d="M68.3374 242.169C68.3374 242.169 69.2622 251.707 79.5673 252.629" stroke="#3B2E4B" stroke-width="3.87471" stroke-miterlimit="10" stroke-linecap="round" stroke-linejoin="round"/>
<path d="M88.1165 257.574C88.1165 257.574 93.9418 252.629 101.811 257.574" stroke="#3B2E4B" stroke-width="3.87471" stroke-miterlimit="10" stroke-linecap="round" stroke-linejoin="round"/>
<path d="M133.137 354.343L129.466 391.102L52.9492 384.922L53.3479 379.116L55.5241 347.423C55.7069 344.706 58.1101 342.675 60.8456 342.917L68.1107 343.57L128.713 349.036C131.42 349.278 133.408 351.659 133.137 354.343Z" fill="white"/>
<path d="M124.06 323.923C124.06 323.923 110.339 328.044 101.811 326.398" stroke="#3B2E4B" stroke-width="3.87471" stroke-miterlimit="10" stroke-linecap="round" stroke-linejoin="round"/>
<path d="M371.907 229.969C370.661 232.845 366.918 255.104 363.175 264.17C363.175 264.17 343.212 252.59 337.392 243.952C337.392 243.952 326.162 240.692 325.747 229.969C325.747 229.969 320.343 231.626 316.599 229.969C316.599 229.969 317.43 235.314 314.107 236.137C314.107 236.137 321.173 240.259 320.343 251.388C320.343 251.388 312.358 250.829 301.477 243.118C300.978 242.767 300.474 242.399 299.965 242.015C299.965 242.015 299.965 258.078 281.215 263.627C280.263 263.907 279.332 263.122 279.476 262.145L283.33 236.549C283.33 236.549 283.015 236.993 282.35 237.668C280.551 239.518 276.187 243.085 268.839 243.831C267.969 243.925 267.261 243.145 267.416 242.295C268.296 237.493 270.965 223.531 273.352 216.77C276.265 208.527 291.648 176.379 294.145 172.669C296.642 168.959 351.529 178.442 354.442 179.265C357.355 180.088 367.333 196.163 366.918 197.809C366.503 199.461 376.897 209.636 378.148 214.235C379.394 218.828 373.159 227.093 371.907 229.969Z" fill="#D86E6C"/>
<path opacity="0.24" d="M320.342 251.388C320.342 251.388 321.388 241.022 314.107 236.137C314.107 236.137 317.435 235.901 316.599 229.969C316.599 229.969 320.591 231.835 326.45 229.897C326.45 229.897 337.226 238.272 346.933 235.775C346.933 235.775 338.1 241.087 324.982 237.01C323.814 236.648 322.695 237.745 323.099 238.892C324.207 242.026 324.833 247.02 320.342 251.388Z" fill="#3B2E4B"/>
<path opacity="0.24" d="M313.226 254.028C311.005 253.754 302.693 252.985 298.468 248.825C298.468 248.825 294.393 259.51 281.214 263.632C280.267 263.928 279.331 263.127 279.475 262.15C296.946 255.378 295.39 233.964 295.39 233.964C297.466 239.907 304.604 250.763 313.226 254.028Z" fill="#3B2E4B"/>
<path opacity="0.24" d="M334.795 195.526L301.432 196.794L295.817 199.165L282.35 237.668C280.551 239.518 276.187 243.085 268.839 243.831C267.969 243.925 267.261 243.145 267.416 242.295C267.416 242.295 275.827 240.901 283.33 216.94C290.33 194.604 290.274 184.918 334.973 193.051C336.451 193.32 336.301 195.466 334.795 195.526Z" fill="#3B2E4B"/>
<path d="M280.488 200.306C285.937 188.518 292.576 175.001 294.143 172.674C295.921 170.029 324.322 174.085 341.544 176.933" stroke="#3B2E4B" stroke-width="3.87471" stroke-miterlimit="10" stroke-linecap="round" stroke-linejoin="round"/>
<path d="M283.329 236.554C283.329 236.554 294.233 199.461 296.73 197.815C299.227 196.168 328.659 194.516 336.561 195.34" stroke="#3B2E4B" stroke-width="3.87471" stroke-miterlimit="10" stroke-linecap="round" stroke-linejoin="round"/>
<path d="M320.34 251.388C320.34 251.388 321.077 239.353 311.973 236.088" stroke="#3B2E4B" stroke-width="3.87471" stroke-miterlimit="10" stroke-linecap="round" stroke-linejoin="round"/>
<path d="M295.39 233.958L299.964 211.002C299.964 211.002 319.926 206.271 341.55 206.167" stroke="#3B2E4B" stroke-width="3.87471" stroke-miterlimit="10" stroke-linecap="round" stroke-linejoin="round"/>
<path d="M316.598 229.969C316.598 229.969 317.429 221.687 314.101 217.988" stroke="#3B2E4B" stroke-width="3.87471" stroke-miterlimit="10" stroke-linecap="round" stroke-linejoin="round"/>
<path opacity="0.24" d="M122.056 385.806C122.056 385.806 71.1229 380.559 53.3477 379.116L55.5239 347.423C55.7066 344.706 58.1099 342.675 60.8454 342.917L68.1105 343.57C68.116 343.576 68.116 343.576 68.116 343.576C68.116 343.576 64.788 362.136 76.5053 365.862C88.2225 369.589 113.65 371.125 122.056 385.806Z" fill="#3B2E4B"/>
<path d="M261.899 425.621C261.899 425.621 276.485 451.826 290.002 473.515L282.897 479.755C279.281 482.899 274.646 484.628 269.834 484.628H229.522C229.5 484.568 229.478 484.507 229.455 484.447C229.361 484.189 229.262 483.931 229.162 483.668C229.012 483.262 228.857 482.855 228.702 482.438C228.608 482.175 228.508 481.912 228.409 481.648C227.883 480.238 227.34 478.772 226.792 477.291C226.576 476.703 226.354 476.111 226.138 475.523C225.784 474.563 225.43 473.597 225.075 472.642C224.782 471.83 224.488 471.023 224.195 470.222C224.073 469.882 223.946 469.547 223.824 469.212C223.53 468.4 223.242 467.593 222.96 466.809C222.462 465.42 221.985 464.087 221.542 462.835C221.371 462.347 221.205 461.869 221.044 461.408C220.546 459.982 220.114 458.697 219.754 457.605C219.665 457.32 219.577 457.04 219.488 456.782C219.416 456.546 219.344 456.321 219.283 456.112C219.206 455.855 219.134 455.613 219.067 455.394C219.028 455.267 218.995 455.152 218.967 455.042C218.923 454.9 218.89 454.762 218.857 454.642C218.729 454.115 218.68 453.797 218.729 453.72L218.22 453.829C215.357 454.45 212.378 454.307 209.581 453.412C201.242 450.751 183.428 444.939 181.041 443.133C177.918 440.763 160.586 418.394 158.487 413.169C157.402 410.458 159.401 406.556 161.583 403.422C163.604 400.519 165.775 398.28 165.775 398.28L181.872 387.337L197.067 377.003L212.66 366.406L219.676 361.637L219.92 361.472L228.957 355.38L240.314 362.087C240.314 362.087 237.092 345.162 240.314 336.222C243.537 327.287 253.521 319.939 259.967 318.347C259.967 318.347 262.868 316.75 268.666 318.347C268.666 318.347 260.609 339.608 259.967 343.982C259.324 348.356 266.733 368.793 268.666 377.091C270.599 385.394 270.599 418.597 261.899 425.621Z" fill="#A85856"/>
<path opacity="0.24" d="M244.29 343.301C243.637 350.715 245.475 355.122 246.798 360.917C248.072 366.51 243.487 371.707 237.723 371.224L221.359 369.846C221.359 369.846 220.767 366.965 219.92 362.849L228.957 356.757L240.314 363.464C240.314 363.464 237.091 346.539 240.314 337.599C243.537 328.664 253.521 321.316 259.966 319.724C259.966 319.724 262.868 318.127 268.666 319.724C268.666 319.719 245.696 327.243 244.29 343.301Z" fill="#3B2E4B"/>
<path d="M325.746 229.969C325.746 229.969 336.14 229.519 341.55 217.988" stroke="#3B2E4B" stroke-width="3.87471" stroke-miterlimit="10" stroke-linecap="round" stroke-linejoin="round"/>
<path d="M303.291 311.559C303.291 311.559 313.685 315.68 325.745 311.559" stroke="#3B2E4B" stroke-width="3.87471" stroke-miterlimit="10" stroke-linecap="round" stroke-linejoin="round"/>
<path d="M293.612 352.357C293.452 350.216 295.091 348.367 297.25 348.241C299.665 348.098 303.054 347.873 307.052 347.588C323.758 346.397 351.113 344.235 362.62 343.318C365.566 343.082 368.13 345.288 368.307 348.213L370.66 386.981C370.66 386.981 297.04 390.948 295.401 391.102C296.386 390.904 294.404 362.927 293.612 352.357Z" fill="white"/>
<path opacity="0.24" d="M293.612 352.356C293.452 350.216 295.091 348.366 297.25 348.24C299.665 348.097 303.054 347.872 307.052 347.587C307.002 348.07 304.659 371.855 322.85 369.841C341.223 367.805 365.964 374.045 370.66 386.98C370.66 386.98 297.04 390.948 295.401 391.101C296.386 390.904 294.404 362.926 293.612 352.356Z" fill="#3B2E4B"/>
<path d="M366.917 197.81L361.512 205.992" stroke="#3B2E4B" stroke-width="3.87471" stroke-miterlimit="10" stroke-linecap="round" stroke-linejoin="round"/>
<path d="M47.2068 212.501C47.2068 212.501 52.5338 210.997 55.8618 210.174" stroke="#3B2E4B" stroke-width="3.87471" stroke-miterlimit="10" stroke-linecap="round" stroke-linejoin="round"/>
<path d="M142.046 386.793L136.116 485.999H28.9607C29.3982 473.964 31.5467 421.955 37.5493 376.13C37.8704 373.677 40.0965 371.915 42.5828 372.151L53.7518 373.21L63.3482 374.121L101.811 377.776L116.126 379.132L130.523 380.498L137.151 381.129C140.058 381.404 142.224 383.906 142.046 386.793Z" fill="#3B2E4B"/>
<path d="M384.958 391.486L378.136 397.473L378.131 397.478L362.615 411.111L351.324 421.022L350.637 421.631L342.492 428.782L336.644 433.919L333.239 436.91L333.2 436.943L331.937 438.051L328.25 441.295L324.24 444.818L320.946 447.716C320.94 447.716 320.94 447.716 320.94 447.716L320.569 448.039C320.569 448.045 320.564 448.045 320.564 448.045L319.655 448.841L296.06 469.569L284.371 388.401C283.806 384.483 286.652 380.888 290.628 380.504L295.407 380.038L314.096 378.227H314.101L342.697 375.45L369.803 372.821L375.179 372.3C378.53 371.976 381.575 374.22 382.234 377.486C382.921 380.899 383.862 385.69 384.958 391.486Z" fill="#3B2E4B"/>
<path opacity="0.24" d="M241.555 391.102C241.555 391.14 241.549 403.614 234.694 406.391C227.827 409.174 223.458 406.391 223.458 406.391L214.222 411.649V412.598C214.222 416.286 211.857 419.562 208.336 420.753C208.967 423.651 207.317 426.576 204.481 427.525C199.365 429.243 191.197 431.043 184.724 428.118C182.681 427.196 180.61 429.32 181.501 431.361C182.586 433.842 184.22 436.498 186.645 438.551C192.881 443.808 209.443 454.356 225.502 452.638L218.967 456.414C218.923 456.271 218.89 456.134 218.857 456.013C218.729 455.487 218.68 455.168 218.729 455.092L218.22 455.201C215.357 455.821 212.378 455.679 209.581 454.784C201.242 452.123 183.428 446.311 181.041 444.505C177.918 442.134 160.586 419.765 158.487 414.541C157.402 411.83 159.401 407.928 161.583 404.794L241.555 391.102Z" fill="#3B2E4B"/>
<path d="M224.853 396.024L226.414 397.056L229.947 399.388C231.581 400.469 233.668 400.607 235.435 399.761L240.092 397.522C242.002 396.606 243.215 394.685 243.215 392.583V385.487L224.211 347.175L216.48 343.981L204.237 347.494L202.947 356.752L194.895 354.518L179.435 361.839V369.841L168.161 372.557L166.228 383.89L153.985 391.101C153.985 391.101 153.016 403.685 153.985 406.561C154.954 409.437 158.492 414.541 158.492 414.541C158.492 414.541 171.112 414.025 174.977 408.915C174.977 408.915 184.585 426.669 201.662 418.689L199.962 413.58C199.962 413.58 207.46 411.983 209.392 409.431V401.77C209.392 401.77 213.257 403.685 215.511 403.367C217.765 403.049 224.853 396.024 224.853 396.024Z" fill="#A85856"/>
<path d="M164.933 388.682C165.902 389 183.295 388.682 183.295 388.682L199.957 413.586" stroke="#3B2E4B" stroke-width="3.87471" stroke-miterlimit="10" stroke-linecap="round" stroke-linejoin="round"/>
<path opacity="0.24" d="M378.594 143.977L356.306 139.488L357.347 127.519C357.463 126.169 359.324 125.883 359.856 127.134C361.367 130.707 364.103 134.51 369.031 135.827C372.669 136.799 375.482 136.832 377.592 136.497L378.594 143.977Z" fill="#3B2E4B"/>
<path d="M179.429 369.841L192.636 371.734L207.776 394.427L209.387 401.77" stroke="#3B2E4B" stroke-width="3.87471" stroke-miterlimit="10" stroke-linecap="round" stroke-linejoin="round"/>
<path d="M202.947 356.752L209.387 361.839L225.495 391.101L224.853 396.024" stroke="#3B2E4B" stroke-width="3.87471" stroke-miterlimit="10" stroke-linecap="round" stroke-linejoin="round"/>
<path d="M218.729 455.092C218.729 455.092 229.228 452.161 232.268 448.149" stroke="#3B2E4B" stroke-width="3.87471" stroke-miterlimit="10" stroke-linecap="round" stroke-linejoin="round"/>
<path d="M261.899 426.993C261.899 426.993 253.709 435.022 248.005 435.933" stroke="#3B2E4B" stroke-width="3.87471" stroke-miterlimit="10" stroke-linecap="round" stroke-linejoin="round"/>
<path d="M329.505 161.473C329.505 161.473 347.258 156.858 366.922 161.473" stroke="#3B2E4B" stroke-width="3.87471" stroke-miterlimit="10" stroke-linecap="round" stroke-linejoin="round"/>
<path d="M354.441 179.265L368.611 178.793" stroke="#3B2E4B" stroke-width="3.87471" stroke-miterlimit="10" stroke-linecap="round" stroke-linejoin="round"/>
<path d="M353.091 138.144L384.975 145.437" stroke="#3B2E4B" stroke-width="3.87471" stroke-miterlimit="10" stroke-linecap="round" stroke-linejoin="round"/>
<path d="M58.5248 136.086L39.6643 148.374" stroke="#3B2E4B" stroke-width="3.87471" stroke-miterlimit="10" stroke-linecap="round" stroke-linejoin="round"/>
<path opacity="0.24" d="M63.7149 187.975C63.5151 187.887 63.4429 187.788 63.5262 187.667C63.6094 187.552 63.6705 187.673 63.7149 187.975Z" fill="#3B2E4B"/>
<path opacity="0.24" d="M249.069 486H229.522C229.5 485.939 229.477 485.879 229.455 485.818C229.361 485.56 229.262 485.303 229.162 485.039C229.012 484.633 228.857 484.227 228.702 483.81C228.608 483.546 228.508 483.283 228.409 483.02C227.883 481.609 227.34 480.144 226.792 478.662C226.576 478.075 226.354 477.482 226.138 476.895C225.784 475.935 225.43 474.969 225.075 474.014C224.782 473.202 224.488 472.395 224.195 471.594C224.073 471.253 223.946 470.919 223.824 470.584C223.53 469.772 223.242 468.965 222.96 468.18C222.462 466.792 221.985 465.458 221.542 464.207C221.371 463.718 221.205 463.241 221.044 462.78C220.546 461.353 220.114 460.069 219.754 458.977C219.66 458.686 219.571 458.411 219.488 458.153C219.416 457.917 219.344 457.692 219.283 457.484C219.2 457.226 219.128 456.985 219.067 456.765C219.028 456.639 218.995 456.524 218.967 456.414C218.923 456.271 218.89 456.134 218.857 456.013C219.732 455.667 220.734 455.25 221.814 454.767C227.816 452.089 236.25 447.315 238.642 440.921C238.642 440.921 255.276 436.174 261.899 429.149C261.899 429.149 256.024 452.193 239.6 460.475C239.6 460.475 238.913 473.909 249.069 486Z" fill="#3B2E4B"/>
<path opacity="0.24" d="M62.9562 332.101C62.9063 331.903 62.9229 331.826 63.0173 331.897C63.0839 331.947 63.0561 332.013 62.9562 332.101Z" fill="#3B2E4B"/>
<path d="M58.5254 264.927C58.5254 264.927 73.5319 266.167 79.5677 252.623L88.8041 256.838C88.8041 256.838 81.5888 263.632 85.5592 272.347" stroke="#3B2E4B" stroke-width="3.87471" stroke-miterlimit="10" stroke-linecap="round" stroke-linejoin="round"/>
<path d="M79.5608 252.623C79.5608 252.623 92.7898 250.197 94.9604 243.952" stroke="#3B2E4B" stroke-width="3.87471" stroke-miterlimit="10" stroke-linecap="round" stroke-linejoin="round"/>
<path d="M346.937 235.775C333.503 238.332 325.751 229.969 325.751 229.969H316.603L314.111 236.137" stroke="#3B2E4B" stroke-width="3.87471" stroke-miterlimit="10" stroke-linecap="round" stroke-linejoin="round"/>
<path opacity="0.24" d="M71.6433 485.999H28.9607C29.3982 473.964 31.5467 421.955 37.5493 376.13C37.8704 373.677 40.0965 371.915 42.5828 372.151L53.7518 373.21L63.3482 374.121C63.3482 374.121 56.6258 455.601 71.6433 485.999Z" fill="#3B2E4B"/>
<path opacity="0.24" d="M333.2 436.943L331.937 438.051L328.25 441.295L324.24 444.818L320.946 447.715C320.94 447.715 320.94 447.715 320.94 447.715L320.569 448.039C320.569 448.045 320.564 448.045 320.564 448.045L319.655 448.841L296.06 469.569L284.371 388.401C283.806 384.483 286.652 380.888 290.628 380.504L295.407 380.038L314.096 378.227H314.101C314.101 378.227 317.252 418.838 333.2 436.943Z" fill="#3B2E4B"/>
<path d="M128.286 257.573C128.286 257.573 123.862 258.803 123.862 268.072C123.862 268.072 126.946 270.607 130.285 270.075L128.286 257.573Z" fill="white"/>
<path d="M282.248 243.738C282.248 243.738 286.822 246.647 286.407 256.866C286.407 256.866 284.807 258.792 279.934 259.116L282.248 243.738Z" fill="white"/>
<path d="M381.746 354.886L395.679 335.909C397.283 333.612 397.745 330.714 396.85 327.943L383.868 292.45C382.275 288.022 377.393 285.79 372.962 287.385L237.677 336.922C233.246 338.517 231.009 343.398 232.601 347.826L245.768 384.033L247.09 387.59L250.005 395.574C251.598 400.002 256.479 402.234 260.911 400.638L377.841 357.824C379.342 357.212 380.83 356.199 381.746 354.886Z" fill="#46B2C8"/>
<path d="M277.35 344.668L287.516 372.734L284.428 373.802L274.262 345.736C274.091 345.422 273.763 345.193 273.448 345.364L273.291 345.45C269.417 346.945 267.396 351.098 268.889 354.969L276.838 376.708L273.75 377.776L265.802 356.037C264.308 352.166 260.155 350.149 256.281 351.645C255.966 351.816 255.737 352.144 255.908 352.459L266.074 380.525L262.987 381.593L252.82 353.527C252.11 351.47 253.156 349.272 255.129 348.403C258.689 347.078 262.559 347.824 265.355 349.969C266.118 346.5 268.495 343.375 272.14 342.207L272.297 342.122C274.283 341.653 276.639 342.611 277.35 344.668Z" fill="white"/>
<path d="M294.774 338.859L303.262 362.34C304.058 364.554 303.097 366.909 301.124 367.778C300.967 367.864 300.81 367.949 300.652 368.035L295.192 369.986C295.034 370.072 294.877 370.157 294.634 370.085C292.491 370.64 290.207 369.439 289.411 367.225L280.922 343.744C280.041 341.373 281.317 338.847 283.532 338.049L288.993 336.098C291.451 335.372 293.892 336.488 294.774 338.859ZM291.686 339.927C291.502 339.213 290.774 338.998 290.302 339.255L284.841 341.206C284.127 341.391 283.911 342.119 284.167 342.59L292.656 366.071C292.84 366.785 293.568 367 294.04 366.744L299.501 364.793C300.215 364.608 300.431 363.88 300.175 363.408L291.686 339.927Z" fill="white"/>
<path d="M308.382 333.903C308.198 333.189 307.47 332.974 306.998 333.231L301.537 335.182C300.823 335.367 300.607 336.095 300.863 336.566L303.679 343.993C305.002 347.55 308.827 349.338 312.387 348.013L312.544 347.928C314.917 347.045 317.443 348.318 318.239 350.532L320.187 355.988C320.983 358.202 320.022 360.557 318.049 361.426C317.892 361.511 317.735 361.597 317.577 361.682L312.117 363.634C311.96 363.719 311.802 363.805 311.56 363.733C309.416 364.288 307.132 363.086 306.336 360.873L305.625 358.816L308.713 357.748L309.424 359.805C309.608 360.519 310.336 360.733 310.808 360.477L316.269 358.526C316.983 358.341 317.199 357.613 316.942 357.141L314.995 351.685C314.81 350.971 314.082 350.756 313.453 351.098L313.295 351.184C307.992 353.05 302.297 350.446 300.434 345.147L297.619 337.72C296.737 335.349 298.013 332.823 300.228 332.025L305.689 330.074C308.062 329.191 310.588 330.464 311.384 332.678L312.095 334.734L309.008 335.802L308.382 333.903Z" fill="white"/>
<path d="M328.081 326.653L336.569 350.134C337.365 352.348 336.404 354.703 334.431 355.572C334.274 355.658 334.117 355.743 333.959 355.829L328.499 357.78C328.342 357.865 328.184 357.951 327.942 357.879C325.798 358.434 323.514 357.233 322.718 355.019L314.23 331.538C313.348 329.167 314.624 326.641 316.839 325.843L322.3 323.892C324.758 323.166 327.199 324.282 328.081 326.653ZM324.993 327.721C324.809 327.007 324.081 326.792 323.609 327.049L318.148 329C317.434 329.185 317.218 329.913 317.474 330.384L325.963 353.865C326.147 354.579 326.875 354.794 327.347 354.538L332.808 352.587C333.522 352.402 333.738 351.674 333.482 351.202L324.993 327.721Z" fill="white"/>
<path d="M345.405 320.285L347.083 324.87C349.458 331.112 346.489 338.02 340.827 341.099L344.722 352.011L341.635 353.079L331.042 324.227C330.43 322.727 331.247 320.858 332.834 320.402L339.638 317.924C341.925 316.884 344.609 318.071 345.405 320.285ZM342.16 321.439C341.976 320.725 341.248 320.51 340.776 320.767L334.129 323.159L339.518 337.942C343.522 335.561 345.516 330.608 343.838 326.024L342.16 321.439Z" fill="white"/>
<path d="M350.983 317.05L356.457 331.99L362.075 329.953L363.141 333.038L357.523 335.075L360.267 342.745L369.444 339.383L370.511 342.468L358.088 346.983L346.515 315.204L358.937 310.689L360.003 313.774L350.983 317.05Z" fill="white"/>
</g>
<defs>
<clipPath id="clip0">
<rect width="415.702" height="486" fill="white"/>
</clipPath>
</defs>
</svg>
