<svg width="567" height="378" viewBox="0 0 567 378" fill="none" xmlns="http://www.w3.org/2000/svg">
<path d="M533.569 343.141C533.569 343.254 421.598 343.337 283.514 343.337C145.431 343.337 33.4297 343.254 33.4297 343.141C33.4297 343.028 145.378 342.944 283.514 342.944C421.651 342.944 533.569 343.035 533.569 343.141Z" fill="#263238"/>
<path d="M373.652 66.0366H171.551V198.601H373.652V66.0366Z" fill="#FAFAFA"/>
<path d="M373.651 198.601C373.651 197.324 373.591 146.891 373.492 66.0366L373.651 66.1954H171.565L171.761 65.9988C171.761 113.143 171.761 158.004 171.761 198.563L171.58 198.382L373.681 198.563L171.58 198.745H171.398V198.563C171.398 158.004 171.398 113.135 171.398 65.9988V65.8022H171.61L373.696 65.8476H373.855V65.9988C373.712 146.891 373.651 197.316 373.651 198.601Z" fill="#263238"/>
<path d="M233.316 139.24L253.192 139.52C253.04 150.104 244.12 158.745 233.316 158.745H233.195L233.316 139.24Z" fill="#455A64"/>
<path d="M266.187 166.161C266.043 166.174 265.899 166.174 265.756 166.161H264.546L260.101 166.214H260.063L260.025 166.169C258.249 163.939 255.966 161.051 253.471 157.906L248.179 151.17L248.285 151.215L242.433 151.162L240.785 151.2C240.592 151.221 240.397 151.221 240.203 151.2C240.396 151.172 240.59 151.159 240.785 151.162H242.418L248.27 151.109H248.33V151.155L253.622 157.876L260.124 166.192L260.033 166.146L264.478 166.199H265.688C265.852 166.165 266.02 166.153 266.187 166.161Z" fill="#263238"/>
<path d="M273.316 168.452C273.316 168.535 270.436 168.603 266.883 168.603C263.33 168.603 260.449 168.535 260.449 168.452C260.449 168.369 263.33 168.301 266.883 168.301C270.436 168.301 273.316 168.369 273.316 168.452Z" fill="#263238"/>
<path d="M273.316 170.856C273.316 170.939 270.436 171.007 266.883 171.007C263.33 171.007 260.449 170.939 260.449 170.856C260.449 170.773 263.33 170.705 266.883 170.705C270.436 170.705 273.316 170.75 273.316 170.856Z" fill="#263238"/>
<path d="M230.168 136.413L229.888 155.918C219.093 155.766 210.285 147.012 210.285 136.413C210.285 125.814 219.259 116.916 230.168 116.916C241.077 116.916 250.051 125.715 250.051 136.413H230.168Z" fill="#FF993C"/>
<path d="M222.404 130.032C222.295 130.071 222.18 130.097 222.064 130.108L221.074 130.267L217.506 130.773H217.445L217.4 130.728L212.637 126.093C210.369 123.825 208.29 121.807 206.808 120.318L205.069 118.541C204.846 118.333 204.641 118.105 204.457 117.861C204.707 118.037 204.94 118.237 205.153 118.458L206.959 120.159C208.471 121.61 210.558 123.629 212.849 125.874L217.574 130.546H217.468L221.059 130.153L222.049 130.062C222.165 130.031 222.285 130.02 222.404 130.032Z" fill="#263238"/>
<path d="M199.422 117.014C199.422 117.097 196.542 117.165 192.989 117.165C189.435 117.165 186.562 117.097 186.562 117.014C186.562 116.931 189.435 116.863 192.989 116.863C196.542 116.863 199.422 116.931 199.422 117.014Z" fill="#263238"/>
<path d="M199.422 119.395C199.422 119.478 196.542 119.546 192.989 119.546C189.435 119.546 186.562 119.478 186.562 119.395C186.562 119.312 189.435 119.244 192.989 119.244C196.542 119.244 199.422 119.312 199.422 119.395Z" fill="#263238"/>
<path d="M299.716 97.887L299.641 85.791C295.948 85.8582 292.401 87.2416 289.639 89.692C287.873 91.2324 286.512 93.1813 285.672 95.3687C284.833 97.5561 284.541 99.9156 284.823 102.242C284.887 102.833 284.983 103.421 285.11 104.003C285.107 104.018 285.107 104.034 285.11 104.048L299.709 100.76L299.716 97.887Z" fill="#FF5454"/>
<g opacity="0.3">
<path d="M299.716 97.887L299.641 85.791C295.948 85.8582 292.401 87.2416 289.639 89.692C287.873 91.2324 286.512 93.1813 285.672 95.3687C284.833 97.5561 284.541 99.9156 284.823 102.242C284.887 102.833 284.983 103.421 285.11 104.003C285.107 104.018 285.107 104.034 285.11 104.048L299.709 100.76L299.716 97.887Z" fill="white"/>
</g>
<path d="M314.768 94.16C313.702 91.8704 312.051 89.9024 309.982 88.4543C307.912 87.0062 305.498 86.1293 302.982 85.9121L302.521 85.8667H302.226C301.938 85.8667 301.644 85.8667 301.349 85.8667H301.266L301.349 97.9627V100.805L316.008 103.973C316.233 102.943 316.343 101.89 316.333 100.836C316.311 98.522 315.776 96.2422 314.768 94.16Z" fill="#FF5454"/>
<g opacity="0.3">
<path d="M314.768 94.16C313.702 91.8704 312.051 89.9024 309.982 88.4543C307.912 87.0062 305.498 86.1293 302.982 85.9121L302.521 85.8667H302.226C301.938 85.8667 301.644 85.8667 301.349 85.8667H301.266L301.349 97.9627V100.805L316.008 103.973C316.233 102.943 316.343 101.89 316.333 100.836C316.311 98.522 315.776 96.2422 314.768 94.16Z" fill="black"/>
</g>
<path d="M300.5 102.249L285.895 105.538C286.643 108.861 288.504 111.83 291.168 113.953C293.832 116.076 297.141 117.227 300.547 117.215C303.954 117.204 307.255 116.031 309.905 113.89C312.555 111.749 314.395 108.768 315.121 105.439L300.516 102.249" fill="#FF5454"/>
<path d="M357.338 100.072C357.338 100.178 349.778 100.268 340.48 100.268C331.181 100.268 323.613 100.178 323.613 100.072C323.613 99.9659 331.173 99.8677 340.48 99.8677C349.786 99.8677 357.338 99.9584 357.338 100.072Z" fill="#263238"/>
<path d="M357.338 96.2237C357.338 96.3295 349.778 96.4202 340.48 96.4202C331.181 96.4202 323.613 96.3295 323.613 96.2237C323.613 96.1178 331.173 96.0271 340.48 96.0271C349.786 96.0271 357.338 96.1178 357.338 96.2237Z" fill="#263238"/>
<path d="M357.338 92.3833C357.338 92.4892 349.778 92.5799 340.48 92.5799C331.181 92.5799 323.613 92.4892 323.613 92.3833C323.613 92.2775 331.173 92.1868 340.48 92.1868C349.786 92.1868 357.338 92.2699 357.338 92.3833Z" fill="#263238"/>
<path d="M357.338 103.648C357.338 103.754 349.778 103.844 340.48 103.844C331.181 103.844 323.613 103.754 323.613 103.648C323.613 103.542 331.173 103.444 340.48 103.444C349.786 103.444 357.338 103.572 357.338 103.648Z" fill="#263238"/>
<path d="M346.898 107.533C346.898 107.647 341.712 107.73 335.316 107.73C328.921 107.73 323.734 107.647 323.734 107.533C323.734 107.42 328.921 107.337 335.316 107.337C341.712 107.337 346.898 107.428 346.898 107.533Z" fill="#263238"/>
<path d="M291.724 135.362H288.254V174.152H291.724V135.362Z" fill="#46B2C8"/>
<path d="M298.431 148.531H294.961V174.145H298.431V148.531Z" fill="#46B2C8"/>
<path d="M305.134 140.178H301.664V174.341H305.134V140.178Z" fill="#46B2C8"/>
<path d="M311.841 136.859H308.371V174.152H311.841V136.859Z" fill="#46B2C8"/>
<path d="M318.54 149.318H315.07V174.145H318.54V149.318Z" fill="#46B2C8"/>
<path d="M325.243 154.186H321.773V174.145H325.243V154.186Z" fill="#46B2C8"/>
<path d="M331.951 139.338H328.48V174.145H331.951V139.338Z" fill="#46B2C8"/>
<path d="M338.658 145.613H335.188V174.145H338.658V145.613Z" fill="#46B2C8"/>
<path d="M345.361 140.601H341.891V174.145H345.361V140.601Z" fill="#46B2C8"/>
<path d="M352.068 151.291H348.598V174.145H352.068V151.291Z" fill="#46B2C8"/>
<path d="M358.775 146.944H355.305V174.145H358.775V146.944Z" fill="#46B2C8"/>
<path d="M360.195 176.851C360.195 176.927 343.721 176.995 323.4 176.995C303.079 176.995 286.605 176.927 286.605 176.851C286.605 176.776 303.079 176.708 323.4 176.708C343.721 176.708 360.195 176.768 360.195 176.851Z" fill="#263238"/>
<path d="M293.207 179.928C291.493 180.109 289.765 180.109 288.051 179.928C289.764 179.737 291.493 179.737 293.207 179.928Z" fill="#263238"/>
<path d="M301.755 180.057C299.706 180.248 297.643 180.248 295.594 180.057C297.643 179.865 299.706 179.865 301.755 180.057Z" fill="#263238"/>
<path d="M309.052 180.057C307.003 180.248 304.94 180.248 302.891 180.057C304.94 179.865 307.003 179.865 309.052 180.057Z" fill="#263238"/>
<path d="M316.337 180.057C314.288 180.248 312.225 180.248 310.176 180.057C312.225 179.865 314.288 179.865 316.337 180.057Z" fill="#263238"/>
<path d="M323.634 180.057C321.585 180.248 319.522 180.248 317.473 180.057C319.522 179.865 321.585 179.865 323.634 180.057Z" fill="#263238"/>
<path d="M330.923 180.057C328.874 180.248 326.811 180.248 324.762 180.057C326.811 179.865 328.874 179.865 330.923 180.057Z" fill="#263238"/>
<path d="M338.216 180.057C336.167 180.248 334.104 180.248 332.055 180.057C334.104 179.865 336.167 179.865 338.216 180.057Z" fill="#263238"/>
<path d="M345.49 180.057C343.44 180.248 341.377 180.248 339.328 180.057C341.377 179.865 343.44 179.865 345.49 180.057Z" fill="#263238"/>
<path d="M352.802 180.057C350.753 180.248 348.69 180.248 346.641 180.057C348.69 179.865 350.753 179.865 352.802 180.057Z" fill="#263238"/>
<path d="M360.095 180.057C358.046 180.248 355.983 180.248 353.934 180.057C355.983 179.865 358.046 179.865 360.095 180.057Z" fill="#263238"/>
<g opacity="0.3">
<path d="M298.431 148.531H294.961V174.145H298.431V148.531Z" fill="white"/>
</g>
<g opacity="0.3">
<path d="M311.841 136.859H308.371V174.152H311.841V136.859Z" fill="white"/>
</g>
<g opacity="0.3">
<path d="M325.243 154.186H321.773V174.145H325.243V154.186Z" fill="white"/>
</g>
<g opacity="0.3">
<path d="M338.658 145.613H335.188V174.145H338.658V145.613Z" fill="white"/>
</g>
<g opacity="0.3">
<path d="M352.068 151.291H348.598V174.145H352.068V151.291Z" fill="white"/>
</g>
<path d="M196.104 90.9546C196.106 91.6176 195.911 92.2661 195.543 92.8181C195.176 93.37 194.653 93.8004 194.04 94.0548C193.428 94.3092 192.754 94.3762 192.104 94.2472C191.453 94.1182 190.856 93.7991 190.387 93.3303C189.918 92.8614 189.599 92.264 189.47 91.6136C189.341 90.9633 189.408 90.2893 189.663 89.677C189.917 89.0647 190.347 88.5417 190.899 88.1743C191.451 87.8069 192.1 87.6116 192.763 87.613C193.649 87.613 194.499 87.9651 195.126 88.5918C195.752 89.2184 196.104 90.0683 196.104 90.9546Z" fill="#46B2C8"/>
<path d="M253.584 88.3159C253.584 88.4293 242.312 88.5125 228.409 88.5125C214.506 88.5125 203.234 88.4293 203.234 88.3159C203.234 88.2025 214.499 88.1194 228.409 88.1194C242.32 88.1194 253.584 88.2101 253.584 88.3159Z" fill="#46B2C8"/>
<path d="M223.44 92.3606C223.193 92.4202 222.939 92.4456 222.684 92.4362L220.56 92.5043C218.761 92.5043 216.281 92.5572 213.544 92.5572C210.808 92.5572 208.32 92.5572 206.529 92.5043L204.397 92.4362C204.142 92.4449 203.888 92.4194 203.641 92.3606C203.889 92.3063 204.143 92.2809 204.397 92.285C204.903 92.285 205.629 92.2397 206.529 92.2245C208.32 92.2245 210.8 92.1641 213.544 92.1641C216.289 92.1641 218.761 92.1641 220.56 92.2245C221.46 92.2245 222.185 92.2623 222.684 92.285C222.938 92.2802 223.192 92.3056 223.44 92.3606Z" fill="#46B2C8"/>
<path d="M167.428 78.042H61.6562V198.76H167.428V78.042Z" fill="#FAFAFA"/>
<path d="M167.437 198.753C167.437 198.753 167.437 198.556 167.437 198.186C167.437 197.815 167.437 197.241 167.437 196.507C167.437 194.995 167.437 192.841 167.437 189.991C167.437 184.29 167.437 175.952 167.392 165.36C167.392 144.192 167.339 114.035 167.308 78.042L167.482 78.2159H61.718L61.9145 78.0194C61.9145 122.525 61.9145 164.029 61.9145 198.73L61.7482 198.564L138.346 198.677L159.801 198.722H165.456H167.407H165.487H159.869L138.452 198.768L61.6273 198.851H61.4609V198.677C61.4609 163.977 61.4609 122.472 61.4609 77.9664V77.8682H61.6726H167.437H167.611V78.042C167.573 114.081 167.543 144.275 167.52 165.473C167.52 176.057 167.482 184.373 167.475 190.059C167.475 192.894 167.475 195.071 167.475 196.545C167.475 197.301 167.475 197.823 167.475 198.201C167.475 198.579 167.437 198.753 167.437 198.753Z" fill="#263238"/>
<path d="M158.342 139.679C158.342 139.754 157.171 139.089 154.94 138.386C151.788 137.403 148.454 137.144 145.188 137.63C142.947 137.976 140.776 138.675 138.754 139.701C136.457 140.931 134.33 142.456 132.427 144.237C130.355 146.067 128.291 148.146 125.918 150.066C123.496 152.136 120.661 153.667 117.602 154.557C116.022 154.974 114.375 155.074 112.756 154.851C111.196 154.615 109.68 154.149 108.257 153.468C105.656 152.115 103.133 150.618 100.697 148.985C98.5327 147.54 96.1407 146.469 93.6213 145.817C91.419 145.28 89.1441 145.103 86.8853 145.296C83.5955 145.58 80.4145 146.615 77.5865 148.32C75.5907 149.537 74.6532 150.452 74.5625 150.391C74.758 150.142 74.9841 149.918 75.2353 149.726C75.9099 149.118 76.633 148.567 77.3975 148.078C79.7882 146.533 82.4649 145.484 85.2686 144.993C88.0724 144.502 90.9462 144.579 93.7195 145.22C96.3094 145.871 98.7725 146.949 101.007 148.41C103.419 150.014 105.918 151.483 108.492 152.81C111.226 154.213 114.374 154.583 117.36 153.854C120.343 153.01 123.115 151.547 125.494 149.559C127.838 147.677 129.902 145.613 132.011 143.776C133.966 141.971 136.149 140.431 138.505 139.195C141.055 137.929 143.831 137.183 146.672 136.998C149.513 136.814 152.362 137.196 155.054 138.121C155.913 138.411 156.748 138.77 157.549 139.195C157.828 139.33 158.094 139.492 158.342 139.679Z" fill="#46B2C8"/>
<path d="M99.7584 155.895H90.7695V180.215H99.7584V155.895Z" fill="#81DD6A"/>
<path d="M137.922 155.895H128.934V180.215H137.922V155.895Z" fill="#81DD6A"/>
<path d="M150.637 141.606H141.648V180.208H150.637V141.606Z" fill="#81DD6A"/>
<path d="M88.1256 172.557H79.1367V180.745H88.1256V172.557Z" fill="#81DD6A"/>
<path d="M112.493 166.872H103.496V180.208H112.493V166.872Z" fill="#81DD6A"/>
<path d="M125.2 163.81H116.211V180.208H125.2V163.81Z" fill="#81DD6A"/>
<path d="M100.128 183.081C100.128 183.277 97.9511 183.444 95.2673 183.444C92.5835 183.444 90.4062 183.277 90.4062 183.081C90.4062 182.884 92.5835 182.718 95.2673 182.718C97.9511 182.718 100.128 182.877 100.128 183.081Z" fill="#263238"/>
<path d="M88.9409 183.081C88.9409 183.277 86.7636 183.444 84.0798 183.444C81.396 183.444 79.2188 183.277 79.2188 183.081C79.2188 182.884 81.396 182.718 84.0798 182.718C86.7636 182.718 88.9409 182.877 88.9409 183.081Z" fill="#263238"/>
<path d="M152.414 183.081C152.414 183.277 149.957 183.444 146.926 183.444C143.894 183.444 141.43 183.277 141.43 183.081C141.43 182.884 143.887 182.718 146.926 182.718C149.965 182.718 152.414 182.877 152.414 183.081Z" fill="#263238"/>
<path d="M133.567 183.444C136.598 183.444 139.055 183.281 139.055 183.081C139.055 182.88 136.598 182.718 133.567 182.718C130.535 182.718 128.078 182.88 128.078 183.081C128.078 183.281 130.535 183.444 133.567 183.444Z" fill="#263238"/>
<path d="M125.207 183.081C125.207 183.277 123.029 183.444 120.345 183.444C117.662 183.444 115.484 183.277 115.484 183.081C115.484 182.884 117.662 182.718 120.345 182.718C123.029 182.718 125.207 182.877 125.207 183.081Z" fill="#263238"/>
<path d="M112.058 183.081C112.058 183.277 109.889 183.444 107.205 183.444C104.521 183.444 102.344 183.277 102.344 183.081C102.344 182.884 104.521 182.718 107.205 182.718C109.889 182.718 112.058 182.877 112.058 183.081Z" fill="#263238"/>
<path d="M152.417 95.6416H78.9258V126.161H152.417V95.6416Z" fill="#E0E0E0"/>
<path d="M94.1965 105.281C94.198 105.96 93.998 106.624 93.6217 107.19C93.2455 107.755 92.71 108.196 92.083 108.457C91.4559 108.718 90.7656 108.787 90.0993 108.655C89.433 108.524 88.8208 108.198 88.34 107.718C87.8592 107.238 87.5316 106.627 87.3985 105.961C87.2655 105.295 87.333 104.604 87.5926 103.976C87.8521 103.349 88.292 102.812 88.8566 102.435C89.4212 102.057 90.0851 101.856 90.7643 101.856C91.6732 101.856 92.5451 102.217 93.1886 102.859C93.832 103.501 94.1945 104.372 94.1965 105.281Z" fill="#263238"/>
<path d="M121.496 102.914H97.6211V104.237H121.496V102.914Z" fill="#263238"/>
<path d="M144.062 105.931H97.6211V107.254H144.062V105.931Z" fill="white"/>
<path d="M94.1965 115.819C94.198 116.498 93.998 117.163 93.6217 117.728C93.2455 118.294 92.71 118.735 92.083 118.996C91.4559 119.257 90.7656 119.326 90.0993 119.194C89.433 119.062 88.8208 118.736 88.34 118.256C87.8592 117.777 87.5316 117.165 87.3985 116.499C87.2655 115.833 87.333 115.143 87.5926 114.515C87.8521 113.887 88.292 113.351 88.8566 112.974C89.4212 112.596 90.0851 112.395 90.7643 112.395C91.2146 112.394 91.6608 112.481 92.0772 112.653C92.4935 112.825 92.872 113.077 93.1908 113.395C93.5096 113.713 93.7625 114.091 93.9351 114.507C94.1077 114.923 94.1965 115.369 94.1965 115.819Z" fill="#81DD6A"/>
<path d="M109.808 113.453H97.6211V114.776H109.808V113.453Z" fill="#81DD6A"/>
<path d="M144.062 116.462H97.6211V117.785H144.062V116.462Z" fill="white"/>
<path d="M499.714 56.3674H383.562V188.932H499.714V56.3674Z" fill="#FAFAFA"/>
<path d="M499.714 188.932C499.714 188.932 499.714 188.713 499.714 188.305C499.714 187.896 499.714 187.269 499.714 186.46C499.714 184.835 499.714 182.438 499.714 179.308C499.714 173.048 499.714 163.893 499.669 152.266C499.669 129.019 499.616 95.8987 499.585 56.3675L499.759 56.5413H383.615L383.819 56.3448C383.819 105.22 383.819 150.799 383.781 188.909L383.615 188.743L467.871 188.826L491.421 188.872H497.627H499.774C499.774 188.872 499.064 188.872 497.665 188.872H491.489L467.962 189L383.6 189.083H383.434V188.917C383.434 150.807 383.434 105.228 383.434 56.3523V56.1709H383.645H499.79H499.963V56.3448C499.963 95.9214 499.895 129.08 499.873 152.357C499.873 163.976 499.873 173.117 499.827 179.369C499.827 182.476 499.827 184.865 499.827 186.483V188.305C499.714 188.728 499.714 188.932 499.714 188.932Z" fill="#263238"/>
<path d="M486.951 66.9666H392.859V142.453H486.951V66.9666Z" fill="#E0E0E0"/>
<path d="M402.514 129.034H399.43V129.926H402.514V129.034Z" fill="#263238"/>
<path d="M410.368 133.789H406.422V134.681H410.368V133.789Z" fill="#263238"/>
<path d="M424.114 133.789H420.168V134.681H424.114V133.789Z" fill="#263238"/>
<path d="M437.864 133.789H433.918V134.681H437.864V133.789Z" fill="#263238"/>
<path d="M451.61 133.789H447.664V134.681H451.61V133.789Z" fill="#263238"/>
<path d="M465.36 133.789H461.414V134.681H465.36V133.789Z" fill="#263238"/>
<path d="M479.106 133.789H475.16V134.681H479.106V133.789Z" fill="#263238"/>
<path d="M402.514 117.142H399.43V118.034H402.514V117.142Z" fill="#263238"/>
<path d="M402.514 94.7798H399.43V95.6719H402.514V94.7798Z" fill="#263238"/>
<path d="M402.514 83.5381H399.43V84.4302H402.514V83.5381Z" fill="#263238"/>
<path d="M402.674 105.961H399.59V106.853H402.674V105.961Z" fill="#263238"/>
<path d="M479.001 129.919C478.89 129.928 478.779 129.928 478.668 129.919H477.7H473.92L460.184 129.987L414.824 130.04H403.938V129.843C403.938 114.723 403.99 101.349 404.006 91.7785C404.006 87.0157 404.051 83.1903 404.066 80.5368C404.066 79.2365 404.066 78.2234 404.066 77.5128C404.066 77.1801 404.066 76.9231 404.066 76.7568C404.055 76.669 404.055 76.58 404.066 76.4922C404.077 76.58 404.077 76.669 404.066 76.7568C404.066 76.9533 404.066 77.2104 404.066 77.5128C404.066 78.2234 404.066 79.2365 404.066 80.5368C404.066 83.1903 404.104 87.0157 404.127 91.7785C404.127 101.349 404.127 114.693 404.195 129.843L403.998 129.654H414.741L460.101 129.715L473.837 129.775L477.617 129.813H478.585L479.001 129.919Z" fill="#263238"/>
<path d="M479.871 106.407C479.871 106.513 463.587 106.604 443.5 106.604C423.413 106.604 407.121 106.513 407.121 106.407C407.121 106.301 423.405 106.21 443.5 106.21C463.594 106.21 479.871 106.301 479.871 106.407Z" fill="#263238"/>
<path d="M479.871 95.2561C479.871 95.3695 463.587 95.4527 443.5 95.4527C423.413 95.4527 407.121 95.3695 407.121 95.2561C407.121 95.1427 423.405 95.0596 443.5 95.0596C463.594 95.0596 479.871 95.1125 479.871 95.2561Z" fill="#263238"/>
<path d="M479.871 83.9766C479.871 84.09 463.587 84.1731 443.5 84.1731C423.413 84.1731 407.121 84.09 407.121 83.9766C407.121 83.8632 423.405 83.78 443.5 83.78C463.594 83.78 479.871 83.8708 479.871 83.9766Z" fill="#263238"/>
<path d="M479.871 117.588C479.871 117.702 463.587 117.785 443.5 117.785C423.413 117.785 407.121 117.702 407.121 117.588C407.121 117.475 423.405 117.392 443.5 117.392C463.594 117.392 479.871 117.483 479.871 117.588Z" fill="#263238"/>
<path d="M407.867 127.515V117.588L414.051 107.987L418.255 111.208L426.865 97.8265L431.946 101.402L439.014 89.0569L444.76 93.7365L453.371 77.3616L462.67 95.6643L470.177 86.5092L479.014 83.9766V127.515H407.867Z" fill="#455A64"/>
<path d="M479.869 80.4537C479.869 80.4537 479.816 80.4537 479.71 80.4537H479.249H477.457L470.653 80.5066L470.744 80.4612L463.486 89.9642L463.441 90.0247H463.426H445.236L445.395 89.9339C442.999 93.918 440.421 98.2499 437.752 102.665L430.237 115.147L430.094 115.388L429.92 115.162C426.336 110.217 423.01 105.644 420.092 101.607H420.334L411.299 115.668L408.782 119.531L408.109 120.537C407.958 120.764 407.867 120.877 407.867 120.877C407.867 120.877 407.928 120.748 408.071 120.514L408.699 119.478L411.148 115.57L420.031 101.501L420.16 101.297L420.296 101.493L430.162 115.033H429.844L437.344 102.544L445.002 89.8205L445.055 89.7298H445.168H463.358L463.237 89.7903L470.562 80.3478V80.3025H470.615L477.419 80.3554H479.211H479.672L479.869 80.4537Z" fill="#46B2C8"/>
<path d="M423.155 104.789C423.162 104.929 423.125 105.068 423.052 105.188C422.978 105.307 422.871 105.402 422.743 105.46C422.615 105.518 422.473 105.536 422.335 105.513C422.196 105.489 422.068 105.424 421.967 105.327C421.866 105.23 421.796 105.105 421.766 104.968C421.736 104.831 421.748 104.688 421.8 104.558C421.853 104.428 421.943 104.316 422.059 104.237C422.175 104.159 422.312 104.117 422.452 104.116C422.543 104.114 422.633 104.13 422.717 104.163C422.801 104.196 422.878 104.245 422.943 104.307C423.009 104.37 423.061 104.444 423.097 104.527C423.134 104.61 423.154 104.699 423.155 104.789Z" fill="#46B2C8"/>
<path d="M444.132 92.8597C444.139 93.0004 444.104 93.1402 444.032 93.2608C443.959 93.3815 443.851 93.4775 443.723 93.5363C443.595 93.5952 443.452 93.6141 443.313 93.5908C443.174 93.5675 443.046 93.5029 442.944 93.4055C442.842 93.3081 442.772 93.1823 442.742 93.0445C442.713 92.9066 442.725 92.7631 442.778 92.6326C442.831 92.502 442.923 92.3904 443.04 92.3123C443.157 92.2342 443.295 92.1931 443.436 92.1944C443.616 92.1923 443.79 92.2608 443.92 92.3852C444.05 92.5095 444.126 92.6799 444.132 92.8597Z" fill="#46B2C8"/>
<path d="M460.448 89.964C460.455 90.1042 460.418 90.243 460.345 90.3625C460.271 90.4821 460.164 90.5769 460.036 90.6347C459.908 90.6926 459.766 90.7109 459.628 90.6873C459.489 90.6637 459.361 90.5992 459.26 90.5022C459.159 90.4052 459.089 90.2801 459.059 90.1429C459.029 90.0058 459.041 89.8629 459.093 89.7327C459.146 89.6024 459.236 89.4908 459.352 89.4121C459.468 89.3334 459.605 89.2913 459.745 89.2912C459.836 89.2892 459.926 89.305 460.01 89.3377C460.094 89.3705 460.171 89.4195 460.236 89.4819C460.302 89.5444 460.354 89.6192 460.39 89.7019C460.427 89.7846 460.447 89.8737 460.448 89.964Z" fill="#46B2C8"/>
<path d="M482.71 153.672C482.71 153.786 462.857 153.869 438.37 153.869C413.884 153.869 394.023 153.786 394.023 153.672C394.023 153.559 413.876 153.476 438.37 153.476C462.865 153.476 482.71 153.566 482.71 153.672Z" fill="#263238"/>
<path d="M482.71 158.465C482.71 158.579 462.857 158.662 438.37 158.662C413.884 158.662 394.023 158.579 394.023 158.465C394.023 158.352 413.876 158.269 438.37 158.269C462.865 158.269 482.71 158.36 482.71 158.465Z" fill="#263238"/>
<path d="M482.71 163.296C482.71 163.402 462.857 163.493 438.37 163.493C413.884 163.493 394.023 163.402 394.023 163.296C394.023 163.19 413.876 163.1 438.37 163.1C462.865 163.1 482.71 163.153 482.71 163.296Z" fill="#263238"/>
<path d="M482.71 168.059C482.71 168.165 462.857 168.255 438.37 168.255C413.884 168.255 394.023 168.165 394.023 168.059C394.023 167.953 413.876 167.862 438.37 167.862C462.865 167.862 482.71 167.945 482.71 168.059Z" fill="#263238"/>
<path d="M447.687 166.177C450.114 162.102 450.825 156.674 451.467 151.971C451.755 149.756 452.269 146.611 450.711 145.22C449.154 143.829 448.897 141.44 446.984 140.299C446.035 139.705 444.936 139.395 443.816 139.404C442.697 139.413 441.603 139.742 440.664 140.352" fill="#263238"/>
<path d="M440.961 180.609C440.082 180.676 439.199 180.566 438.365 180.285C437.53 180.003 436.761 179.556 436.103 178.97C435.445 178.384 434.912 177.672 434.536 176.875C434.16 176.078 433.949 175.214 433.915 174.334C433.779 170.765 433.658 167.167 433.658 167.167C433.658 167.167 428.26 166.66 427.867 161.315C427.474 155.97 427.655 143.633 427.655 143.633C430.616 142.14 433.922 141.465 437.232 141.677C440.541 141.89 443.734 142.983 446.479 144.842L446.147 163.651V173.774C446.109 177.169 444.348 180.351 440.961 180.609Z" fill="#FFBE9D"/>
<path d="M433.19 154.791C433.584 154.219 434.18 153.819 434.858 153.67C435.536 153.521 436.245 153.635 436.842 153.99C437.446 154.411 437.881 155.032 438.071 155.743C438.261 156.454 438.192 157.21 437.878 157.876C437.6 158.369 437.224 158.799 436.773 159.14C436.321 159.481 435.804 159.725 435.254 159.856C434.761 159.965 434.326 160.25 434.029 160.658C433.732 161.066 433.595 161.569 433.644 162.071C433.803 163.409 436.033 163.916 437.038 165.027C438.603 166.751 442.043 167.484 444.364 167.756C446.685 168.029 446.36 168.044 447.683 166.176C448.578 164.91 449.034 163.387 448.983 161.837L449.233 150.013C449.321 148.594 449.229 147.169 448.961 145.772C448.677 144.357 447.866 143.103 446.693 142.264C445.392 141.41 443.744 141.334 442.27 140.858C440.418 140.261 438.845 139.028 437.114 138.144C435.383 137.259 433.258 136.73 431.52 137.6C430.272 138.227 429.433 139.474 428.216 140.162C426.492 141.145 424.141 140.918 423.302 143.466C423.004 144.346 423.004 145.3 423.302 146.18C424.474 149.643 428.753 151.034 431.837 149.537C431.898 150.127 431.323 151.427 431.935 153.279C432.132 153.869 432.208 154.791 433.13 154.791" fill="#263238"/>
<path d="M434.149 158.125C434.194 158.125 434.375 158.405 434.821 158.382C435.103 158.323 435.356 158.169 435.537 157.946C435.719 157.723 435.818 157.445 435.819 157.157C435.833 156.866 435.75 156.579 435.585 156.338C435.42 156.098 435.181 155.919 434.905 155.827C434.459 155.668 434.149 155.751 434.149 155.691C434.149 155.63 434.443 155.449 434.995 155.562C435.317 155.635 435.61 155.804 435.834 156.046C436.11 156.357 436.252 156.765 436.228 157.18C436.24 157.564 436.101 157.938 435.841 158.22C435.581 158.503 435.22 158.672 434.837 158.692C434.722 158.689 434.609 158.66 434.506 158.61C434.403 158.559 434.312 158.486 434.239 158.397C434.126 158.223 434.126 158.133 434.149 158.125Z" fill="#EB996E"/>
<path d="M439.715 142.007C439.715 142.007 439.828 141.803 440.161 141.553C440.645 141.217 441.202 141.002 441.786 140.926C442.657 140.812 443.543 140.945 444.342 141.311C445.307 141.785 446.123 142.514 446.7 143.421C447.679 145.066 448.249 146.922 448.363 148.834C448.475 149.607 448.523 150.388 448.507 151.17C448.299 150.428 448.158 149.669 448.084 148.902C447.899 147.055 447.316 145.27 446.375 143.67C445.836 142.824 445.082 142.135 444.19 141.674C443.483 141.318 442.691 141.164 441.902 141.228C441.112 141.292 440.356 141.572 439.715 142.037V142.007Z" fill="#455A64"/>
<path d="M424.663 147.48C424.596 147.494 424.526 147.494 424.459 147.48C424.269 147.432 424.09 147.35 423.93 147.239C423.67 147.06 423.457 146.821 423.31 146.543C423.105 146.164 423.046 145.723 423.143 145.303C423.259 144.792 423.568 144.345 424.005 144.056C424.523 143.777 425.114 143.661 425.699 143.723C426.268 143.791 426.841 143.646 427.309 143.315C427.784 142.884 428.221 142.414 428.617 141.909C429.514 140.953 430.674 140.285 431.951 139.988C432.976 139.732 434.045 139.706 435.081 139.913C435.778 140.047 436.446 140.303 437.054 140.669C437.282 140.791 437.489 140.95 437.666 141.138C436.841 140.691 435.955 140.37 435.035 140.185C434.029 140.015 432.997 140.064 432.011 140.329C430.816 140.629 429.732 141.267 428.889 142.166C428.477 142.689 428.019 143.175 427.521 143.617C427.249 143.825 426.934 143.967 426.598 144.033C426.291 144.081 425.979 144.097 425.668 144.078C425.152 144.007 424.625 144.091 424.156 144.32C423.781 144.56 423.511 144.933 423.4 145.364C423.324 145.682 423.341 146.016 423.448 146.325C423.555 146.635 423.748 146.907 424.005 147.11C424.214 147.252 424.434 147.376 424.663 147.48Z" fill="#455A64"/>
<path d="M438.967 162.351C438.967 162.313 439.231 162.215 439.67 161.92C440.287 161.502 440.789 160.936 441.129 160.272C441.376 159.793 441.524 159.269 441.566 158.732C441.607 158.194 441.541 157.654 441.371 157.142C441.181 156.536 440.849 155.984 440.403 155.532C439.903 155.054 439.341 154.644 438.732 154.315C438.105 153.952 437.47 153.612 436.895 153.219C436.316 152.841 435.804 152.368 435.383 151.82C434.69 150.898 434.257 149.806 434.128 148.66C434.041 147.899 434.103 147.129 434.31 146.392C434.356 146.19 434.427 145.994 434.521 145.81C434.582 145.674 434.62 145.613 434.627 145.621C434.364 146.606 434.289 147.632 434.408 148.645C434.566 149.73 435.001 150.755 435.67 151.623C436.068 152.128 436.543 152.567 437.077 152.924C437.636 153.294 438.264 153.627 438.899 153.997C439.54 154.345 440.131 154.78 440.652 155.29C441.133 155.787 441.488 156.39 441.688 157.051C441.864 157.609 441.923 158.196 441.863 158.777C441.804 159.358 441.626 159.921 441.34 160.431C440.96 161.108 440.4 161.668 439.723 162.049C439.493 162.198 439.236 162.301 438.967 162.351Z" fill="#455A64"/>
<path d="M448.232 154.504C448.012 154.592 447.78 154.645 447.544 154.663C446.904 154.739 446.259 154.757 445.616 154.715C443.482 154.583 441.423 153.875 439.659 152.667C437.83 151.521 436.448 149.785 435.743 147.745C435.563 147.115 435.537 146.452 435.667 145.81C435.702 145.573 435.793 145.347 435.932 145.152C435.734 145.984 435.763 146.853 436.015 147.67C436.768 149.601 438.123 151.239 439.878 152.342C441.596 153.505 443.575 154.225 445.639 154.436C447.226 154.61 448.224 154.428 448.232 154.504Z" fill="#455A64"/>
<path d="M449.064 150.845C449.969 149.777 451.1 148.924 452.375 148.346C453.649 147.768 455.036 147.48 456.435 147.503C459.218 147.662 461.932 149.59 462.612 152.289C463.126 154.33 462.499 156.454 462.242 158.533C461.985 160.612 462.242 163.069 463.927 164.286C464.956 165.042 466.279 165.163 467.511 165.466C468.743 165.768 470.051 166.381 470.474 167.575C470.958 168.943 469.968 170.493 468.637 171.075C467.255 171.555 465.754 171.576 464.358 171.136C464.634 171.922 464.626 172.78 464.336 173.562C464.046 174.343 463.493 174.998 462.771 175.415C462.033 175.804 461.204 175.991 460.37 175.957C459.536 175.922 458.727 175.667 458.023 175.218C456.623 174.292 455.597 172.899 455.128 171.287C454.213 172.897 451.809 173.237 450.267 172.209C449.524 171.652 448.948 170.903 448.602 170.042C448.255 169.181 448.151 168.241 448.301 167.326C448.623 165.49 449.48 163.791 450.765 162.442C451.419 161.779 451.995 161.043 452.482 160.249C452.722 159.849 452.858 159.395 452.877 158.929C452.895 158.462 452.796 157.999 452.587 157.581C452.474 157.381 452.319 157.208 452.133 157.074C451.947 156.939 451.734 156.846 451.509 156.801C451.284 156.756 451.052 156.76 450.828 156.812C450.605 156.864 450.395 156.964 450.214 157.104" fill="#263238"/>
<path d="M452.293 156.492C452.044 156.613 451.77 156.675 451.492 156.675C451.215 156.675 450.941 156.613 450.691 156.492C450.073 156.234 449.534 155.819 449.125 155.289C448.717 154.759 448.454 154.131 448.362 153.468C448.24 152.736 448.327 151.984 448.612 151.298C448.844 150.745 449.195 150.25 449.64 149.847C450.017 149.453 450.509 149.189 451.046 149.091C450.622 149.392 450.218 149.721 449.836 150.074C449.407 150.512 449.085 151.044 448.896 151.628C448.707 152.211 448.656 152.831 448.748 153.438C448.835 154.042 449.066 154.616 449.423 155.111C449.78 155.606 450.251 156.007 450.797 156.28C451.277 156.448 451.785 156.52 452.293 156.492Z" fill="#FF993C"/>
<path d="M433.482 167.076C433.07 167.138 432.649 167.096 432.257 166.955C431.294 166.686 430.404 166.202 429.655 165.54C428.906 164.877 428.317 164.053 427.933 163.13C427.744 162.761 427.651 162.35 427.661 161.935C427.859 162.283 428.034 162.644 428.183 163.016C428.611 163.875 429.199 164.645 429.914 165.284C430.628 165.91 431.45 166.4 432.341 166.728C432.73 166.814 433.111 166.931 433.482 167.076Z" fill="#EB996E"/>
<path d="M454.061 171.453C454.061 171.453 453.963 171.453 453.796 171.453C453.55 171.386 453.315 171.281 453.101 171.143C452.324 170.593 451.784 169.769 451.589 168.838C451.436 168.201 451.412 167.54 451.521 166.895C451.654 166.163 451.894 165.455 452.231 164.793C452.904 163.379 453.963 162.041 454.749 160.491C455.131 159.745 455.387 158.94 455.505 158.11C455.651 157.068 455.435 156.008 454.895 155.106C454.354 154.204 453.521 153.514 452.534 153.151C451.683 152.856 450.768 152.801 449.888 152.992C449.26 153.12 448.943 153.294 448.928 153.264C448.912 153.234 448.996 153.204 449.147 153.113C449.372 153 449.607 152.909 449.85 152.841C450.991 152.516 452.213 152.63 453.275 153.16C454.336 153.69 455.161 154.598 455.588 155.706C455.892 156.484 455.996 157.326 455.89 158.155C455.756 159.032 455.478 159.88 455.066 160.665C454.25 162.268 453.184 163.591 452.519 164.952C451.847 166.106 451.601 167.46 451.823 168.777C451.981 169.668 452.453 170.473 453.154 171.045C453.444 171.207 453.747 171.343 454.061 171.453Z" fill="#455A64"/>
<path d="M462.12 175.392C462.01 175.404 461.898 175.404 461.787 175.392C461.464 175.378 461.144 175.322 460.835 175.226C459.688 174.836 458.705 174.072 458.045 173.056C457.105 171.532 456.686 169.744 456.851 167.961C457.059 165.832 457.403 163.718 457.879 161.633C458.073 160.558 458.149 159.466 458.106 158.374C458.052 157.369 457.819 156.38 457.418 155.456C457.087 154.668 456.571 153.972 455.913 153.427C455.254 152.882 454.474 152.504 453.638 152.326C452.506 152.068 451.33 152.068 450.198 152.326C449.389 152.508 448.966 152.689 448.951 152.652C448.935 152.614 449.049 152.583 449.245 152.493C449.544 152.368 449.849 152.262 450.16 152.175C451.312 151.85 452.526 151.806 453.698 152.047C454.52 152.211 455.295 152.557 455.966 153.06C456.734 153.657 457.339 154.437 457.728 155.328C458.163 156.281 458.419 157.306 458.484 158.352C458.541 159.47 458.468 160.592 458.264 161.693C457.797 163.767 457.444 165.864 457.206 167.976C457.033 169.689 457.409 171.412 458.28 172.897C458.887 173.886 459.8 174.651 460.88 175.074C461.285 175.212 461.699 175.318 462.12 175.392Z" fill="#455A64"/>
<path d="M463.733 199.713L452.355 208.588L457.126 216.435L470.84 206.335L463.733 199.713Z" fill="#FFBE9D"/>
<path d="M433.278 169.873C433.278 169.873 433.338 168.921 430.851 168.785C429.934 168.704 429.013 168.674 428.092 168.694C427.545 168.027 427.141 167.255 426.905 166.426C426.944 165.62 427.123 164.827 427.434 164.082L429.952 163.856L429.271 162.147L427.495 162.268L422.497 162.873L420.509 171.612L406.856 197.089C406.334 197.872 405.986 198.757 405.835 199.686C405.684 200.614 405.734 201.564 405.981 202.472C406.228 203.379 406.667 204.223 407.268 204.947C407.869 205.671 408.617 206.258 409.464 206.668C412.995 208.376 417.72 204.755 419.027 201.058L426.587 172.716L429.249 170.644L433.029 169.949" fill="#FFBE9D"/>
<path d="M402.191 339.444L420.751 232.546C420.797 232.387 420.834 232.236 420.872 232.084C424.04 219.542 428.916 215.528 428.916 215.528L457.349 217.312C459.768 221.659 460.078 232.084 460.078 232.084C460.411 233.362 454.068 336.957 454.068 336.957L444.527 336.662L439.371 238.654L411.694 339.86L402.191 339.444Z" fill="#FFBE9D"/>
<path d="M401.944 340.412L401.982 339.452L411.765 339.731L411.682 342.914H411.077C408.386 342.982 397.386 343.073 395.602 342.521C393.621 341.924 401.944 340.412 401.944 340.412Z" fill="#FF993C"/>
<g opacity="0.6">
<path d="M408.148 342.748C408.328 341.974 408.792 341.297 409.449 340.85C410.113 340.395 410.914 340.184 411.717 340.253L411.641 342.786L408.148 342.748Z" fill="white"/>
</g>
<g opacity="0.6">
<path d="M397.869 341.289C397.869 341.289 394.951 341.984 395.298 342.438C395.646 342.891 406.767 343.194 411.681 342.914V342.71L398.7 342.468C398.7 342.468 398.413 341.326 397.869 341.289Z" fill="white"/>
</g>
<path d="M411.823 342.71H411.657H411.173H409.404C407.892 342.71 405.836 342.71 403.552 342.65C401.269 342.589 399.205 342.498 397.709 342.408L395.939 342.294H395.463C395.35 342.294 395.297 342.294 395.297 342.294H395.463H395.947L397.716 342.37C399.228 342.438 401.277 342.521 403.56 342.581C405.843 342.642 407.907 342.657 409.404 342.672H411.823V342.71Z" fill="#263238"/>
<path d="M398.693 342.612C398.592 342.036 398.272 341.521 397.801 341.175C398.097 341.277 398.343 341.488 398.489 341.765C398.577 341.886 398.64 342.023 398.675 342.168C398.71 342.313 398.716 342.464 398.693 342.612Z" fill="#263238"/>
<path d="M401.61 341.334C401.61 341.334 401.452 341.191 401.316 340.979C401.18 340.767 401.089 340.586 401.119 340.571C401.149 340.555 401.278 340.714 401.414 340.926C401.55 341.138 401.641 341.319 401.61 341.334Z" fill="#263238"/>
<path d="M402.413 340.956C402.413 340.956 402.239 340.873 402.072 340.729C401.906 340.586 401.793 340.449 401.815 340.427C401.944 340.476 402.061 340.553 402.156 340.654C402.322 340.812 402.435 340.956 402.413 340.956Z" fill="#263238"/>
<path d="M402.951 340.124C402.787 340.177 402.615 340.195 402.444 340.177C402.272 340.191 402.1 340.168 401.938 340.109C402.101 340.057 402.274 340.042 402.444 340.064C402.615 340.051 402.787 340.071 402.951 340.124Z" fill="#263238"/>
<path d="M403.121 339.527C402.951 339.631 402.754 339.682 402.554 339.671C402.353 339.699 402.148 339.667 401.965 339.58C402.159 339.564 402.353 339.564 402.547 339.58C402.736 339.545 402.929 339.527 403.121 339.527Z" fill="#263238"/>
<path d="M401.302 340.54C401.096 340.57 400.888 340.57 400.682 340.54C400.457 340.507 400.234 340.456 400.017 340.389C399.886 340.348 399.76 340.295 399.639 340.23C399.566 340.189 399.512 340.122 399.488 340.041C399.48 339.997 399.486 339.952 399.505 339.911C399.524 339.871 399.555 339.837 399.593 339.815C399.834 339.711 400.101 339.688 400.355 339.751C400.609 339.814 400.836 339.958 401 340.162C401.094 340.277 401.161 340.411 401.196 340.555C401.196 340.661 401.196 340.714 401.196 340.714C401.139 340.531 401.05 340.359 400.932 340.208C400.788 340.051 400.605 339.936 400.402 339.875C400.159 339.779 399.889 339.779 399.646 339.875C399.548 339.936 399.586 340.049 399.692 340.109C399.802 340.172 399.919 340.223 400.039 340.261C400.249 340.334 400.464 340.392 400.682 340.435C401.068 340.51 401.302 340.518 401.302 340.54Z" fill="#263238"/>
<path d="M401.143 340.563C401.07 340.44 401.048 340.293 401.082 340.155C401.106 340.001 401.168 339.855 401.264 339.731C401.323 339.646 401.403 339.576 401.495 339.528C401.587 339.479 401.689 339.453 401.793 339.452C401.854 339.463 401.908 339.498 401.944 339.549C401.979 339.6 401.993 339.663 401.982 339.724C401.964 339.817 401.925 339.905 401.868 339.981C401.779 340.108 401.675 340.225 401.558 340.329C401.456 340.43 401.332 340.507 401.196 340.555C401.196 340.555 401.324 340.45 401.498 340.276C401.604 340.172 401.695 340.055 401.77 339.928C401.861 339.807 401.929 339.588 401.77 339.557C401.688 339.566 401.608 339.592 401.536 339.633C401.464 339.675 401.402 339.732 401.354 339.799C401.261 339.905 401.196 340.032 401.165 340.17C401.143 340.3 401.135 340.432 401.143 340.563Z" fill="#263238"/>
<path d="M411.702 340.2C411.702 340.2 411.422 340.2 410.946 340.2C410.379 340.252 409.833 340.444 409.359 340.759C408.907 341.08 408.554 341.52 408.338 342.03C408.179 342.408 408.157 342.672 408.134 342.665C408.122 342.605 408.122 342.543 408.134 342.483C408.156 342.318 408.196 342.156 408.255 341.999C408.454 341.463 408.813 341.002 409.283 340.676C409.772 340.341 410.346 340.149 410.939 340.124C411.115 340.106 411.292 340.106 411.468 340.124C411.551 340.13 411.632 340.156 411.702 340.2Z" fill="#263238"/>
<path d="M406.956 341.833C406.485 341.926 406.005 341.959 405.527 341.931C405.049 341.937 404.572 341.889 404.105 341.788C404.105 341.75 404.748 341.788 405.527 341.788C406.305 341.788 406.948 341.803 406.956 341.833Z" fill="#263238"/>
<path d="M408.86 341.886C408.86 341.886 408.807 342.007 408.739 342.143C408.671 342.279 408.625 342.392 408.595 342.392C408.565 342.392 408.55 342.249 408.595 342.09C408.64 341.931 408.837 341.863 408.86 341.886Z" fill="#263238"/>
<path d="M409.609 341.069C409.609 341.069 409.564 341.183 409.458 341.274C409.352 341.364 409.254 341.425 409.231 341.402C409.208 341.379 409.276 341.289 409.375 341.198C409.473 341.107 409.586 341.047 409.609 341.069Z" fill="#263238"/>
<path d="M410.645 340.714C410.645 340.714 410.509 340.714 410.366 340.782C410.222 340.85 410.116 340.896 410.094 340.873C410.071 340.85 410.154 340.729 410.328 340.676C410.502 340.624 410.66 340.692 410.645 340.714Z" fill="#263238"/>
<path d="M411.385 340.555C411.385 340.555 411.34 340.631 411.257 340.654C411.174 340.676 411.098 340.654 411.091 340.654C411.083 340.654 411.136 340.578 411.219 340.555C411.302 340.533 411.37 340.525 411.385 340.555Z" fill="#263238"/>
<path d="M449.723 172.882C452.429 173.306 455.01 174.317 457.283 175.846C466.271 181.674 481.308 193.99 480.061 199.713C478.972 204.566 467.209 210.47 467.209 210.47L459.649 201.308L464.313 198.639L452.845 191.003L449.723 172.882Z" fill="#263238"/>
<path d="M454.848 191.442L454.478 192.803L453.155 199.123L452.845 208.384C459.649 217.169 459.77 224.562 459.77 224.562L425.319 228.584C425.319 221.78 427.806 213.207 427.806 213.207C429.794 209.828 429.704 199.713 429.318 199.342C427.171 197.21 426.649 195.645 428.365 192.916C428.365 192.916 417.683 204.135 416.587 205.141C412.807 208.603 409.178 207.636 407.515 206.131C402.798 201.92 407.636 196.492 407.636 196.492L425.629 175.876C426.851 174.463 428.485 173.466 430.301 173.026C431.574 172.734 432.861 172.507 434.156 172.345L446.169 172.444C447.372 172.484 448.568 172.631 449.745 172.882C451.101 173.429 452.295 174.313 453.213 175.451C454.131 176.589 454.744 177.943 454.992 179.384C456.043 184.547 454.848 191.442 454.848 191.442Z" fill="#263238"/>
<path d="M455.227 183.179C455.288 183.508 455.314 183.842 455.303 184.177C455.303 184.819 455.303 185.757 455.235 186.906C455.026 189.894 454.629 192.866 454.048 195.804C453.828 196.976 453.587 198.11 453.337 199.161V199.123C453.231 201.799 453.125 204.113 453.035 205.761C452.982 206.517 452.944 207.167 452.914 207.681C452.912 207.916 452.881 208.149 452.823 208.376C452.78 208.147 452.767 207.913 452.785 207.681C452.785 207.159 452.785 206.517 452.785 205.753C452.785 204.105 452.868 201.784 452.951 199.108V199.07C453.186 198.034 453.42 196.9 453.639 195.729C454.297 192.296 454.736 189.159 454.94 186.876C455.038 185.734 455.091 184.812 455.129 184.169C455.13 183.837 455.163 183.505 455.227 183.179Z" fill="#455A64"/>
<path d="M455.34 192.44C459.606 195.073 463.732 197.927 467.7 200.99C465.532 199.733 463.432 198.36 461.411 196.878C459.311 195.505 457.285 194.024 455.34 192.44Z" fill="#455A64"/>
<path d="M433.067 178.938C433.067 178.938 433.143 178.976 433.249 179.074C433.403 179.217 433.545 179.374 433.672 179.543C434.141 180.174 434.461 180.902 434.609 181.674C434.832 182.825 434.765 184.012 434.413 185.129C433.962 186.48 433.31 187.754 432.477 188.909C432.05 189.504 431.575 190.063 431.056 190.58C430.557 191.087 430.02 191.502 429.544 191.933C428.592 192.788 427.775 193.597 427.095 194.292C426.414 194.988 425.878 195.555 425.507 195.948C425.137 196.341 424.925 196.568 424.902 196.545C425.039 196.295 425.204 196.062 425.394 195.849C425.726 195.426 426.233 194.821 426.906 194.096C427.579 193.37 428.365 192.584 429.317 191.669C429.794 191.223 430.315 190.799 430.829 190.308C431.331 189.801 431.791 189.255 432.205 188.675C433.009 187.562 433.651 186.34 434.11 185.046C434.461 183.985 434.554 182.855 434.383 181.75C434.191 180.716 433.738 179.748 433.067 178.938Z" fill="#455A64"/>
<path d="M429.062 209.397L429.463 204.77H452.96L452.831 208.384L429.062 209.397Z" fill="#455A64"/>
<path d="M408.996 195.585C408.532 196.01 408.095 196.465 407.688 196.946C406.745 198.123 406.259 199.602 406.32 201.109C406.381 202.617 406.985 204.051 408.021 205.148C408.47 205.591 408.942 206.01 409.435 206.403C409.435 206.403 409.246 206.403 408.951 206.199C408.539 205.965 408.16 205.678 407.824 205.345C406.672 204.235 405.992 202.723 405.927 201.124C405.862 199.525 406.417 197.963 407.477 196.764C407.782 196.403 408.136 196.085 408.527 195.819C408.83 195.638 408.996 195.562 408.996 195.585Z" fill="#455A64"/>
<path d="M454.038 336.927L456.706 343.126L444.777 342.982L444.527 336.662L454.038 336.927Z" fill="#FF993C"/>
<path d="M444.695 341.909C445.247 341.979 445.803 342.007 446.359 341.992C447.394 341.992 448.823 341.992 450.396 341.992L454.418 341.909C454.976 341.919 455.534 341.888 456.088 341.818C455.534 341.753 454.976 341.728 454.418 341.742C453.382 341.742 451.96 341.742 450.388 341.742L446.359 341.818C445.803 341.816 445.247 341.846 444.695 341.909Z" fill="#263238"/>
<path d="M449.664 336.791C449.52 337.62 449.504 338.466 449.618 339.3C449.601 340.144 449.711 340.985 449.943 341.795C450.087 340.966 450.102 340.119 449.989 339.285C450.006 338.442 449.896 337.601 449.664 336.791Z" fill="#263238"/>
<path opacity="0.6" d="M456.686 343.254L444.771 342.854L444.695 341.72L456.088 341.818L456.693 343.118" fill="white"/>
<path d="M458.991 218.59C467.965 246.902 456.398 281.27 459.172 314.262C459.445 317.505 460.76 321.376 457.729 323.22C456.901 323.705 455.95 323.939 454.992 323.893C452.573 323.81 450.546 322.555 448.384 321.693C444.233 320.053 439.647 319.874 435.381 321.187C432.523 322.079 429.681 323.659 426.717 323.213C422.779 322.615 420.231 318.722 416.61 317.074C413.215 315.562 409.299 316.106 405.572 316.016H405.459C404.2 315.965 402.968 315.631 401.856 315.038C400.744 314.445 399.781 313.609 399.038 312.591C398.295 311.573 397.791 310.4 397.565 309.161C397.339 307.921 397.396 306.646 397.732 305.432C403.153 285.594 421.108 221.168 429.061 209.42L452.845 208.384C455.022 211.03 457.834 214.984 458.991 218.59Z" fill="#FF993C"/>
<path d="M450.667 231.918C450.291 232.501 449.858 233.046 449.374 233.544C448.285 234.816 447.113 236.015 445.867 237.135C444.591 238.228 443.202 239.181 441.724 239.977C441.128 240.339 440.494 240.633 439.834 240.854C439.751 240.718 442.661 239.342 445.602 236.832C447.069 235.562 448.271 234.269 449.17 233.355C449.622 232.828 450.123 232.347 450.667 231.918Z" fill="#263238"/>
<g opacity="0.1">
<path d="M440.175 242.6C432.683 261.919 431.3 283.072 436.214 303.201C436.637 304.933 437.075 306.898 436.085 308.387C434.815 310.308 431.723 310.179 429.977 308.667C428.23 307.155 427.535 304.789 427.096 302.521C423.83 285.632 429.742 268.652 436.123 252.678" fill="black"/>
</g>
<path d="M305.363 252.141H260.312V254.334H305.363V252.141Z" fill="#263238"/>
<path d="M253.327 254.334L244.883 222.672H280.052L287.703 254.334H253.327Z" fill="#263238"/>
<path d="M285.593 251.937H254.174L246.863 224.131H278.441L285.593 251.937Z" fill="#F5F5F5"/>
<path d="M247.385 226.135H278.963L278.426 224.131H246.863L247.385 226.135Z" fill="#EBEBEB"/>
<path d="M250.793 225.137C250.793 225.206 250.813 225.273 250.852 225.33C250.89 225.387 250.944 225.432 251.008 225.458C251.071 225.484 251.141 225.491 251.209 225.478C251.276 225.464 251.338 225.431 251.387 225.383C251.435 225.334 251.468 225.272 251.482 225.205C251.495 225.137 251.488 225.067 251.462 225.004C251.436 224.94 251.391 224.886 251.334 224.848C251.277 224.809 251.21 224.789 251.141 224.789C251.049 224.789 250.96 224.826 250.895 224.891C250.83 224.956 250.793 225.045 250.793 225.137Z" fill="#FAFAFA"/>
<path d="M249.605 225.137C249.605 225.206 249.626 225.273 249.664 225.33C249.702 225.387 249.757 225.432 249.82 225.458C249.884 225.484 249.954 225.491 250.021 225.478C250.089 225.464 250.15 225.431 250.199 225.383C250.248 225.334 250.281 225.272 250.294 225.205C250.308 225.137 250.301 225.067 250.275 225.004C250.248 224.94 250.204 224.886 250.146 224.848C250.089 224.809 250.022 224.789 249.953 224.789C249.861 224.789 249.773 224.826 249.707 224.891C249.642 224.956 249.605 225.045 249.605 225.137Z" fill="#FAFAFA"/>
<path d="M248.422 225.137C248.424 225.228 248.461 225.314 248.526 225.378C248.591 225.441 248.679 225.477 248.77 225.477C248.852 225.465 248.927 225.423 248.982 225.36C249.036 225.297 249.066 225.216 249.066 225.133C249.066 225.05 249.036 224.969 248.982 224.906C248.927 224.843 248.852 224.801 248.77 224.789C248.724 224.789 248.679 224.798 248.637 224.816C248.594 224.833 248.556 224.859 248.524 224.891C248.491 224.923 248.466 224.962 248.448 225.004C248.431 225.046 248.422 225.091 248.422 225.137Z" fill="#FAFAFA"/>
<path d="M271.122 238.314L274.584 242.276C275.23 241.829 275.758 241.234 276.125 240.541C276.492 239.848 276.687 239.076 276.694 238.291C276.694 235.524 274.153 233.256 271.092 233.272C268.03 233.287 265.512 235.54 265.527 238.337L271.122 238.314Z" fill="#115766"/>
<path d="M270.684 238.949C271.043 239.248 271.375 239.58 271.674 239.939C272.294 240.605 273.186 241.572 274.23 242.752L274.351 242.888L274.199 242.993C273.36 243.584 272.382 243.947 271.361 244.048C270.339 244.148 269.309 243.983 268.371 243.568C267.409 243.156 266.577 242.49 265.967 241.64C265.431 240.875 265.124 239.973 265.082 239.04V238.896H265.256C266.912 238.896 268.28 238.896 269.232 238.896C269.72 238.879 270.208 238.902 270.692 238.964C270.191 239.041 269.686 239.082 269.18 239.085C268.227 239.13 266.912 239.176 265.263 239.221L265.43 239.04C265.493 239.902 265.791 240.731 266.292 241.436C266.87 242.227 267.655 242.844 268.56 243.22C269.44 243.607 270.403 243.766 271.361 243.683C272.319 243.6 273.24 243.277 274.041 242.744V242.986C273.035 241.814 272.211 240.824 271.637 240.121C271.29 239.755 270.972 239.363 270.684 238.949Z" fill="#263238"/>
<path d="M268.422 235.328C268.424 235.411 268.458 235.491 268.517 235.55C268.576 235.609 268.656 235.643 268.739 235.645C268.822 235.643 268.901 235.609 268.959 235.55C269.017 235.49 269.049 235.411 269.049 235.328C269.049 235.287 269.041 235.247 269.026 235.209C269.01 235.171 268.987 235.137 268.959 235.108C268.93 235.08 268.896 235.057 268.858 235.041C268.82 235.026 268.78 235.018 268.739 235.018C268.698 235.017 268.657 235.024 268.618 235.039C268.58 235.054 268.545 235.077 268.515 235.106C268.486 235.135 268.462 235.169 268.446 235.207C268.43 235.245 268.422 235.286 268.422 235.328Z" fill="#263238"/>
<path d="M262.203 233.067C263.439 232.863 264.694 232.792 265.945 232.856H266.52L266.58 232.908C267.387 233.634 268.112 234.445 268.743 235.328C267.855 234.703 267.036 233.986 266.301 233.188L266.444 233.241H265.945C264.695 233.311 263.441 233.253 262.203 233.067Z" fill="#263238"/>
<path d="M255.134 237.021C254.976 236.545 254.854 236.057 254.771 235.562C254.559 234.602 254.264 233.203 253.917 231.487L253.879 231.298H254.075L261.893 231.23C261.847 231.23 262.263 231.54 262.089 231.397V231.48V231.57V231.759L262.157 232.13C262.202 232.379 262.255 232.621 262.301 232.886C262.391 233.37 262.475 233.846 262.565 234.315C262.739 235.245 262.898 236.137 263.057 236.983L263.095 237.195H262.883C260.532 237.195 258.559 237.157 257.183 237.135L255.603 237.089C255.422 237.096 255.242 237.081 255.066 237.044C255.266 237.011 255.468 236.996 255.671 236.999L257.288 236.946C258.672 236.908 260.6 236.862 262.883 236.84L262.709 237.051L262.255 234.36C262.165 233.899 262.074 233.423 261.983 232.939C261.938 232.697 261.885 232.447 261.84 232.183L261.772 231.812L261.734 231.623V231.533V231.457C261.56 231.313 261.968 231.654 261.923 231.623H254.075L254.234 231.434C254.529 233.09 254.756 234.458 254.915 235.456C255.073 236.454 255.149 236.999 255.134 237.021Z" fill="#263238"/>
<path d="M267.961 241.625C267.973 241.7 268.011 241.768 268.068 241.817C268.126 241.867 268.199 241.894 268.275 241.894C268.35 241.894 268.424 241.867 268.481 241.817C268.539 241.768 268.577 241.7 268.588 241.625C268.588 241.541 268.555 241.46 268.495 241.401C268.436 241.341 268.355 241.308 268.271 241.308C268.23 241.308 268.189 241.316 268.151 241.332C268.112 241.348 268.078 241.371 268.049 241.401C268.02 241.431 267.998 241.466 267.982 241.504C267.967 241.543 267.96 241.584 267.961 241.625Z" fill="#263238"/>
<path d="M262.594 241.648C263.527 241.445 264.484 241.373 265.436 241.436C266.385 241.364 267.34 241.428 268.271 241.625C267.34 241.823 266.386 241.892 265.436 241.829C264.485 241.897 263.529 241.836 262.594 241.648Z" fill="#263238"/>
<path d="M255.158 244.112C255.017 243.774 254.903 243.425 254.818 243.069C254.613 242.374 254.319 241.345 253.963 240.045L253.918 239.864H254.107C256.239 239.826 259.074 239.796 262.173 239.788L262.362 239.932V239.992V240.06V240.196L262.431 240.468L262.567 240.998C262.657 241.353 262.748 241.701 262.831 242.041C263.005 242.721 263.171 243.387 263.33 244.022L263.391 244.248H263.156C260.767 244.248 258.726 244.248 257.305 244.188L255.657 244.143C255.467 244.148 255.277 244.133 255.09 244.097C255.3 244.064 255.512 244.047 255.725 244.044L257.411 243.991C258.84 243.946 260.828 243.908 263.156 243.886L262.975 244.112C262.809 243.477 262.635 242.82 262.461 242.139L262.189 241.096L262.053 240.559L261.984 240.295L261.947 240.159V240.09V240.038C261.901 240.038 262.31 240.317 262.136 240.189C259.036 240.189 256.201 240.189 254.077 240.189L254.213 240C254.515 241.24 254.742 242.268 254.901 242.971C255.016 243.344 255.102 243.726 255.158 244.112Z" fill="#263238"/>
<path d="M255.754 233.158C256.629 232.964 257.528 232.896 258.423 232.954C259.319 232.882 260.221 232.945 261.099 233.143C260.221 233.337 259.32 233.406 258.423 233.347C257.529 233.419 256.629 233.355 255.754 233.158Z" fill="#263238"/>
<path d="M255.812 234.035C256.696 233.842 257.602 233.773 258.504 233.831C259.405 233.763 260.311 233.824 261.195 234.012C259.411 234.28 257.597 234.28 255.812 234.012V234.035Z" fill="#263238"/>
<path d="M255.973 234.882C256.824 234.679 257.701 234.607 258.573 234.67C259.442 234.607 260.316 234.671 261.166 234.859C260.318 235.062 259.443 235.134 258.573 235.071C257.702 235.133 256.826 235.07 255.973 234.882Z" fill="#263238"/>
<path d="M255.91 241.572C256.744 241.378 257.603 241.309 258.458 241.368C259.312 241.296 260.172 241.36 261.006 241.557C260.171 241.751 259.313 241.819 258.458 241.761C257.604 241.833 256.744 241.769 255.91 241.572Z" fill="#263238"/>
<path d="M256.223 242.54C257.662 242.278 259.138 242.278 260.577 242.54C259.138 242.802 257.662 242.802 256.223 242.54Z" fill="#263238"/>
<path d="M206.961 254.235V258.386H209.683V342.461H215.262V258.386H244.874V342.461H250.454V258.386H378.921V342.438H384.508V258.386H386.919V254.235H206.961Z" fill="#263238"/>
<path d="M327.949 285.556C330.364 285.768 332.792 285.768 335.207 285.556C332.792 285.355 330.364 285.355 327.949 285.556Z" fill="#263238"/>
<path d="M275.099 286.418C275.207 286.418 275.295 286.374 275.295 286.32C275.295 286.266 275.207 286.222 275.099 286.222C274.99 286.222 274.902 286.266 274.902 286.32C274.902 286.374 274.99 286.418 275.099 286.418Z" fill="#455A64"/>
<path d="M310.652 211.582L289.817 190.414L289.363 188.146C289.28 187.73 289.189 187.261 289.106 186.724C289.017 186.107 289.03 185.478 289.144 184.865C289.254 184.097 289.47 183.349 289.787 182.642C290.134 182.03 289.575 181.289 288.993 181.546C288.411 181.803 287.405 183.458 287.186 185.749C286.967 188.04 285.016 184.993 284.291 183.905C283.565 182.816 281.146 179.542 280.639 179.505C279.883 179.444 279.717 180.261 280.465 181.319C281.214 182.377 283.262 185.779 282.688 186.135C282.118 186.036 281.532 186.121 281.014 186.378C280.496 186.635 280.074 187.05 279.808 187.564C279.278 188.569 278.696 190.005 279.172 190.663C280.204 191.908 281.315 193.085 282.499 194.186L283.194 194.783C283.194 194.783 301.225 220.911 305.156 221.765C307.598 222.287 345.383 225.424 345.383 225.424L348.233 215.014L310.652 211.582Z" fill="#B78876"/>
<path d="M278.961 190.194L280.889 192.047C281.103 192.273 281.36 192.456 281.645 192.583C281.784 192.643 281.938 192.662 282.088 192.638C282.238 192.614 282.378 192.548 282.491 192.447C282.571 192.34 282.622 192.215 282.642 192.083C282.662 191.952 282.649 191.817 282.605 191.691C282.498 191.439 282.347 191.209 282.159 191.011L280.284 188.743" fill="#B78876"/>
<path d="M280.284 188.735C280.329 188.698 280.685 189.053 281.237 189.665C281.546 190.013 281.864 190.368 282.189 190.746C282.398 190.962 282.579 191.203 282.726 191.465C282.815 191.63 282.858 191.817 282.849 192.005C282.839 192.193 282.778 192.375 282.673 192.531C282.543 192.675 282.371 192.775 282.182 192.819C281.993 192.862 281.794 192.846 281.615 192.772C281.327 192.653 281.069 192.473 280.859 192.243L279.853 191.215C279.286 190.625 278.953 190.24 278.991 190.194C279.38 190.416 279.734 190.694 280.042 191.019L281.108 191.979C281.287 192.166 281.503 192.313 281.743 192.41C281.847 192.451 281.961 192.462 282.071 192.44C282.181 192.419 282.282 192.366 282.363 192.289C282.421 192.189 282.451 192.075 282.451 191.96C282.451 191.844 282.421 191.731 282.363 191.631C282.234 191.396 282.079 191.175 281.902 190.973C281.592 190.588 281.297 190.217 281.01 189.839C280.713 189.51 280.469 189.138 280.284 188.735Z" fill="#AA6550"/>
<path d="M280.359 188.849L282.287 190.701C282.5 190.928 282.758 191.108 283.043 191.23C283.181 191.296 283.337 191.318 283.488 191.294C283.639 191.27 283.779 191.2 283.89 191.094C283.97 190.988 284.023 190.863 284.043 190.731C284.062 190.599 284.049 190.464 284.003 190.338C283.895 190.085 283.744 189.852 283.557 189.65L281.682 187.382" fill="#B78876"/>
<path d="M281.652 187.382C281.698 187.382 282.053 187.707 282.605 188.32L283.558 189.393C283.767 189.609 283.947 189.85 284.094 190.111C284.184 190.278 284.226 190.466 284.217 190.656C284.207 190.845 284.147 191.028 284.041 191.185C283.911 191.329 283.74 191.43 283.55 191.473C283.361 191.516 283.163 191.5 282.983 191.427C282.695 191.308 282.437 191.127 282.227 190.898L281.229 189.87C280.894 189.572 280.604 189.229 280.367 188.849C280.755 189.069 281.109 189.344 281.418 189.665L282.484 190.633C282.663 190.82 282.879 190.967 283.119 191.064C283.223 191.106 283.337 191.116 283.447 191.095C283.557 191.074 283.658 191.021 283.739 190.943C283.797 190.842 283.827 190.727 283.827 190.61C283.827 190.494 283.797 190.379 283.739 190.278C283.609 190.043 283.452 189.825 283.27 189.628L282.386 188.494C282.084 188.165 281.836 187.789 281.652 187.382Z" fill="#AA6550"/>
<path d="M281.867 187.745L283.795 189.597C284.005 189.828 284.263 190.009 284.551 190.127C284.679 190.199 284.827 190.228 284.974 190.21C285.12 190.191 285.256 190.127 285.363 190.025C285.469 189.924 285.54 189.79 285.566 189.645C285.591 189.5 285.569 189.351 285.504 189.219C285.398 188.965 285.247 188.732 285.058 188.531C284.438 187.775 283.81 187.019 283.19 186.263" fill="#B78876"/>
<path d="M283.157 186.279C283.515 186.544 283.835 186.857 284.109 187.208L285.062 188.29C285.268 188.505 285.446 188.747 285.591 189.008C285.685 189.173 285.73 189.362 285.72 189.552C285.711 189.742 285.648 189.926 285.538 190.081C285.41 190.226 285.24 190.327 285.051 190.37C284.863 190.413 284.666 190.397 284.487 190.323C284.2 190.204 283.942 190.023 283.731 189.794L282.741 188.766C282.407 188.47 282.119 188.126 281.887 187.745C282.275 187.964 282.629 188.239 282.938 188.562L284.004 189.529C284.181 189.715 284.394 189.861 284.631 189.96C284.735 190.003 284.849 190.014 284.959 189.993C285.069 189.971 285.171 189.918 285.251 189.839C285.312 189.739 285.345 189.624 285.345 189.507C285.345 189.389 285.312 189.274 285.251 189.174C285.121 188.941 284.967 188.723 284.79 188.524L283.905 187.39C283.598 187.062 283.345 186.687 283.157 186.279Z" fill="#AA6550"/>
<path d="M284.91 190.951C284.91 190.883 285.387 190.792 286.082 191.004L285.863 191.193C285.756 190.76 285.738 190.31 285.81 189.87C285.913 189.275 286.174 188.718 286.566 188.259C286.861 187.912 287.11 187.775 287.14 187.813C286.721 188.463 286.414 189.178 286.233 189.93C286.173 190.326 286.173 190.729 286.233 191.125L286.271 191.427L286.014 191.314C285.364 191.056 284.903 191.026 284.91 190.951Z" fill="#AA6550"/>
<path d="M337.929 179.837L338.02 208.845L326.68 209.382L326.226 202.434C326.226 202.434 320.768 203.258 319.626 199.153C318.87 196.53 319.082 176.269 319.082 176.269L337.929 179.837Z" fill="#B78876"/>
<path d="M316.324 179.127C317.164 180.866 321.155 184.033 321.155 184.033L322.962 188.864C324.527 187.639 326.629 187.707 327.029 190.459C327.317 192.455 324.845 192.856 324.845 192.856C326.281 195.305 327.256 197.286 329.381 199.614C331.649 202.139 332.919 202.389 335.383 202.434H338.097C338.097 202.434 343.646 197.792 342.55 185.575C341.454 173.358 330.439 176.904 327.816 173.88C323.567 168.898 313.527 173.343 316.324 179.127Z" fill="#263238"/>
<path d="M341.901 195.804C341.455 195.862 341.002 195.841 340.563 195.743C339.353 195.487 338.234 194.913 337.32 194.08C336.012 192.814 334.908 191.352 334.046 189.748C332.988 188.017 331.831 186.006 329.888 184.661C327.945 183.315 325.609 183.08 323.621 182.672C321.809 182.428 320.078 181.768 318.563 180.744C317.56 180 316.844 178.932 316.537 177.72C316.42 177.284 316.402 176.827 316.484 176.382C316.451 176.827 316.49 177.273 316.598 177.705C316.925 178.885 317.642 179.919 318.632 180.639C320.141 181.635 321.858 182.273 323.651 182.506C325.632 182.907 327.961 183.164 329.979 184.509C331.998 185.855 333.116 187.919 334.167 189.65C335.019 191.246 336.107 192.704 337.395 193.974C338.29 194.801 339.384 195.382 340.571 195.66C340.894 195.73 341.223 195.771 341.553 195.781L341.901 195.804Z" fill="#455A64"/>
<path d="M342.542 185.855L341.96 185.674C341.403 185.497 340.831 185.37 340.251 185.296C339.337 185.166 338.406 185.376 337.636 185.885C337.4 186.043 337.198 186.246 337.041 186.482C336.884 186.718 336.775 186.983 336.721 187.261C336.66 187.571 336.676 187.891 336.769 188.193C336.861 188.495 337.026 188.77 337.25 188.993C337.506 189.212 337.828 189.34 338.165 189.355C338.52 189.36 338.869 189.263 339.17 189.076C339.828 188.684 340.316 188.061 340.539 187.329C340.745 186.715 340.811 186.063 340.731 185.42C340.651 184.777 340.427 184.161 340.076 183.616C339.726 183.072 339.257 182.613 338.705 182.274C338.153 181.936 337.532 181.725 336.887 181.659C335.938 181.605 334.987 181.728 334.082 182.022C333.131 182.329 332.158 182.564 331.172 182.725C330.148 182.861 329.111 182.861 328.087 182.725C327.059 182.603 326.054 182.325 325.109 181.901C324.636 181.709 324.211 181.418 323.86 181.047C323.509 180.677 323.242 180.236 323.075 179.754C322.938 179.277 322.929 178.771 323.05 178.29C323.171 177.808 323.417 177.366 323.763 177.01C324.119 176.69 324.561 176.482 325.035 176.413C325.509 176.345 325.992 176.418 326.424 176.624C326.848 176.81 327.195 177.135 327.407 177.547C327.605 177.95 327.678 178.402 327.619 178.847C327.559 179.267 327.41 179.669 327.181 180.026C326.953 180.383 326.651 180.688 326.296 180.918C325.613 181.336 324.827 181.553 324.028 181.546C323.309 181.553 322.594 181.443 321.911 181.221C320.733 180.842 319.664 180.183 318.796 179.301C318.137 178.644 317.6 177.876 317.208 177.033C316.961 176.5 316.771 175.942 316.641 175.369C316.573 174.976 316.551 174.765 316.551 174.765C316.551 174.765 316.596 174.969 316.672 175.362C316.813 175.927 317.011 176.477 317.261 177.002C317.653 177.848 318.193 178.616 318.857 179.27C319.716 180.138 320.775 180.782 321.941 181.145C322.614 181.365 323.319 181.472 324.028 181.463C324.791 181.461 325.539 181.249 326.19 180.85C326.529 180.63 326.816 180.338 327.033 179.997C327.249 179.655 327.39 179.271 327.445 178.87C327.513 178.449 327.441 178.018 327.24 177.642C327.04 177.267 326.721 176.968 326.333 176.791C325.928 176.599 325.474 176.531 325.03 176.597C324.586 176.663 324.171 176.859 323.839 177.161C323.512 177.497 323.281 177.913 323.166 178.367C323.052 178.821 323.06 179.297 323.188 179.747C323.352 180.207 323.611 180.627 323.948 180.981C324.286 181.334 324.694 181.611 325.146 181.795C326.085 182.207 327.083 182.469 328.102 182.574C329.106 182.708 330.123 182.708 331.126 182.574C332.105 182.419 333.071 182.189 334.014 181.886C334.94 181.581 335.915 181.455 336.887 181.516C337.554 181.584 338.197 181.802 338.768 182.152C339.339 182.503 339.824 182.977 340.187 183.54C340.55 184.104 340.782 184.742 340.865 185.407C340.948 186.072 340.88 186.747 340.667 187.382C340.427 188.141 339.916 188.784 339.231 189.189C338.91 189.384 338.54 189.484 338.165 189.476C337.799 189.465 337.448 189.326 337.174 189.083C336.94 188.847 336.767 188.556 336.671 188.237C336.575 187.918 336.558 187.581 336.623 187.254C336.741 186.667 337.086 186.151 337.583 185.817C338.376 185.309 339.327 185.105 340.259 185.243C340.841 185.319 341.414 185.456 341.967 185.651C342.345 185.772 342.542 185.855 342.542 185.855Z" fill="#455A64"/>
<path d="M328.161 335.377L324.472 330.637L333.309 323.659L338.79 330.538L338.269 331.007C335.94 333.063 326.263 341.326 324.245 342.12C321.992 343.005 328.161 335.377 328.161 335.377Z" fill="#46B2C8"/>
<g opacity="0.4">
<path d="M325.251 339.232C325.251 339.232 323.218 342.075 323.89 342.256C324.563 342.438 334.648 334.454 338.791 330.546L338.617 330.357L326.93 339.762C326.93 339.762 325.78 338.847 325.251 339.232Z" fill="white"/>
</g>
<path d="M338.753 330.236C338.713 330.286 338.668 330.332 338.617 330.372L338.202 330.743L336.652 332.081C335.329 333.2 333.492 334.727 331.42 336.367C329.349 338.008 327.444 339.452 326.053 340.472L324.389 341.682L323.936 341.999L323.77 342.098L323.921 341.977L324.359 341.637L325.992 340.397C327.368 339.353 329.266 337.902 331.337 336.261C333.409 334.621 335.253 333.109 336.584 332.005L338.164 330.705L338.595 330.349L338.753 330.236Z" fill="#263238"/>
<path d="M327.045 339.89C326.763 339.68 326.459 339.502 326.138 339.361C325.803 339.26 325.458 339.199 325.109 339.179C325.462 339.065 325.844 339.084 326.183 339.232C326.542 339.338 326.849 339.572 327.045 339.89Z" fill="#263238"/>
<path d="M328.61 336.503C328.61 336.541 328.353 336.503 328.058 336.39C327.763 336.276 327.544 336.178 327.559 336.14C327.574 336.102 327.816 336.14 328.104 336.261C328.288 336.304 328.461 336.386 328.61 336.503Z" fill="#263238"/>
<path d="M329.023 335.558C329.023 335.596 328.804 335.619 328.547 335.604C328.29 335.589 328.078 335.543 328.078 335.505C328.078 335.468 328.29 335.445 328.554 335.468C328.716 335.461 328.876 335.492 329.023 335.558Z" fill="#263238"/>
<path d="M328.811 334.371C328.811 334.371 328.652 334.59 328.395 334.795C328.138 334.999 327.919 335.142 327.896 335.112C327.874 335.082 328.063 334.893 328.312 334.689C328.562 334.485 328.788 334.341 328.811 334.371Z" fill="#263238"/>
<path d="M328.502 333.661C328.409 333.871 328.274 334.06 328.105 334.216C327.936 334.373 327.737 334.492 327.52 334.568C327.52 334.53 327.746 334.364 328.018 334.114C328.291 333.865 328.472 333.638 328.502 333.661Z" fill="#263238"/>
<path d="M327.695 335.974C327.535 336.157 327.343 336.308 327.128 336.42C326.901 336.554 326.664 336.668 326.417 336.76C326.27 336.825 326.115 336.87 325.956 336.896C325.858 336.906 325.759 336.882 325.676 336.828C325.634 336.794 325.603 336.747 325.587 336.695C325.57 336.642 325.57 336.586 325.586 336.534C325.717 336.259 325.94 336.039 326.215 335.909C326.491 335.78 326.802 335.749 327.098 335.823C327.273 335.863 327.438 335.94 327.581 336.05C327.68 336.133 327.725 336.186 327.717 336.193C327.522 336.061 327.305 335.966 327.075 335.914C326.822 335.859 326.558 335.882 326.319 335.982C326.036 336.083 325.805 336.292 325.676 336.564C325.676 336.7 325.759 336.783 325.911 336.76C326.054 336.733 326.196 336.695 326.334 336.647C326.577 336.558 326.814 336.454 327.045 336.337C327.468 336.125 327.68 335.951 327.695 335.974Z" fill="#263238"/>
<path d="M327.574 336.118C327.574 336.118 327.37 336.05 327.196 335.777C327.095 335.612 327.036 335.426 327.022 335.233C327.006 335.112 327.02 334.989 327.062 334.875C327.104 334.76 327.173 334.657 327.264 334.575C327.331 334.541 327.409 334.534 327.482 334.557C327.554 334.579 327.614 334.629 327.649 334.696C327.708 334.798 327.744 334.912 327.755 335.029C327.778 335.212 327.778 335.398 327.755 335.581C327.749 335.754 327.699 335.923 327.612 336.072C327.612 336.072 327.612 335.876 327.657 335.573C327.678 335.398 327.678 335.22 327.657 335.044C327.657 334.863 327.521 334.606 327.362 334.696C327.292 334.766 327.24 334.85 327.208 334.943C327.177 335.037 327.167 335.136 327.181 335.233C327.187 335.404 327.231 335.572 327.309 335.725C327.386 335.863 327.474 335.995 327.574 336.118Z" fill="#263238"/>
<path d="M336.66 327.96C336.66 327.96 336.388 328.134 336.033 328.497C335.558 328.967 335.226 329.561 335.074 330.21C334.921 330.86 334.955 331.54 335.171 332.171C335.337 332.655 335.526 332.927 335.503 332.927C335.481 332.927 335.443 332.874 335.36 332.753C335.251 332.578 335.158 332.393 335.08 332.202C334.836 331.555 334.786 330.85 334.936 330.176C335.093 329.5 335.452 328.888 335.965 328.422C336.115 328.281 336.28 328.157 336.456 328.051C336.519 328.01 336.588 327.979 336.66 327.96Z" fill="#263238"/>
<path d="M332.844 325.004C333.38 325.56 333.885 326.146 334.356 326.758C335.157 327.756 335.785 328.58 335.762 328.603C335.223 328.049 334.718 327.464 334.25 326.849C333.741 326.266 333.271 325.65 332.844 325.004Z" fill="#263238"/>
<path d="M333.735 333.018C333.394 333.454 332.994 333.84 332.548 334.167C332.133 334.529 331.673 334.837 331.18 335.082C331.18 335.082 331.762 334.628 332.465 334.054C333.168 333.479 333.712 332.988 333.735 333.018Z" fill="#263238"/>
<path d="M335.465 331.642C335.503 331.642 335.518 331.801 335.563 331.982C335.609 332.164 335.669 332.307 335.639 332.33C335.609 332.353 335.48 332.224 335.427 332.013C335.374 331.801 335.435 331.635 335.465 331.642Z" fill="#263238"/>
<path d="M335.482 330.319C335.52 330.319 335.535 330.455 335.482 330.622C335.429 330.788 335.421 330.916 335.383 330.916C335.346 330.916 335.331 330.773 335.346 330.606C335.361 330.44 335.444 330.312 335.482 330.319Z" fill="#263238"/>
<path d="M336.116 329.208C336.116 329.208 336.018 329.336 335.927 329.48C335.837 329.624 335.791 329.775 335.753 329.767C335.716 329.76 335.693 329.586 335.806 329.404C335.92 329.223 336.109 329.17 336.116 329.208Z" fill="#263238"/>
<path d="M336.646 328.505C336.646 328.505 336.646 328.611 336.646 328.694C336.646 328.778 336.524 328.838 336.494 328.823C336.464 328.808 336.494 328.717 336.494 328.626C336.494 328.535 336.615 328.49 336.646 328.505Z" fill="#263238"/>
<g opacity="0.3">
<path d="M336.463 327.734L327.519 334.568L326.695 333.487L336.092 327.121L336.463 327.734Z" fill="black"/>
</g>
<path d="M287.519 340.14V334.129L298.783 334.084L298.851 342.884L298.148 342.929C295.041 343.118 282.34 343.647 280.261 343.027C277.955 342.332 287.519 340.14 287.519 340.14Z" fill="#46B2C8"/>
<g opacity="0.4">
<path d="M282.849 341.379C282.849 341.379 279.492 342.355 279.916 342.891C280.339 343.428 293.199 343.39 298.869 342.891V342.642L283.87 342.831C283.87 342.831 283.499 341.402 282.849 341.379Z" fill="white"/>
</g>
<path d="M299.025 342.627H298.829H298.269L296.228 342.725C294.497 342.793 292.108 342.861 289.47 342.876C286.831 342.892 284.435 342.876 282.703 342.793L280.662 342.718H280.103H279.906H280.662H282.711C284.435 342.718 286.831 342.771 289.47 342.763C292.108 342.755 294.497 342.695 296.221 342.65L298.269 342.597H299.025V342.627Z" fill="#263238"/>
<path d="M283.854 342.997C283.76 342.659 283.628 342.331 283.461 342.022C283.26 341.744 283.026 341.49 282.766 341.266C283.116 341.394 283.407 341.647 283.582 341.977C283.793 342.273 283.889 342.636 283.854 342.997Z" fill="#263238"/>
<path d="M287.165 341.296C287.165 341.296 286.976 341.122 286.81 340.865C286.643 340.608 286.537 340.381 286.568 340.366C286.598 340.351 286.757 340.533 286.923 340.797C287.089 341.062 287.195 341.281 287.165 341.296Z" fill="#263238"/>
<path d="M288.08 340.813C288.08 340.813 287.876 340.722 287.68 340.548C287.483 340.374 287.347 340.215 287.37 340.185C287.392 340.155 287.574 340.276 287.77 340.45C287.967 340.624 288.103 340.782 288.08 340.813Z" fill="#263238"/>
<path d="M288.648 339.746C288.463 339.818 288.264 339.844 288.066 339.822C287.868 339.849 287.666 339.828 287.477 339.762C287.663 339.694 287.861 339.668 288.059 339.686C288.257 339.664 288.458 339.685 288.648 339.746Z" fill="#263238"/>
<path d="M288.842 338.998C288.646 339.124 288.418 339.19 288.185 339.187C287.957 339.229 287.722 339.2 287.512 339.104C287.731 339.065 287.954 339.048 288.177 339.051C288.397 339.014 288.619 338.996 288.842 338.998Z" fill="#263238"/>
<path d="M286.779 340.321C286.529 340.365 286.273 340.365 286.023 340.321C285.766 340.29 285.513 340.235 285.267 340.155C285.114 340.114 284.967 340.056 284.828 339.981C284.743 339.929 284.679 339.849 284.647 339.754C284.635 339.7 284.64 339.644 284.66 339.593C284.68 339.542 284.715 339.498 284.76 339.467C285.035 339.33 285.349 339.292 285.648 339.361C285.948 339.43 286.214 339.601 286.401 339.845C286.513 339.987 286.593 340.152 286.635 340.329C286.65 340.393 286.65 340.461 286.635 340.525C286.561 340.301 286.449 340.091 286.302 339.905C286.137 339.716 285.923 339.577 285.682 339.505C285.542 339.457 285.393 339.439 285.245 339.451C285.096 339.462 284.952 339.504 284.821 339.573C284.707 339.656 284.753 339.792 284.881 339.867C285.01 339.94 285.147 339.995 285.289 340.034C285.535 340.121 285.788 340.187 286.045 340.23C286.522 340.298 286.779 340.298 286.779 340.321Z" fill="#263238"/>
<path d="M286.591 340.351C286.507 340.199 286.477 340.023 286.508 339.852C286.529 339.662 286.597 339.481 286.704 339.323C286.766 339.218 286.853 339.129 286.957 339.064C287.061 339 287.179 338.961 287.302 338.953C287.339 338.959 287.374 338.973 287.406 338.993C287.437 339.013 287.464 339.04 287.486 339.071C287.507 339.102 287.521 339.137 287.529 339.174C287.536 339.211 287.536 339.248 287.528 339.285C287.511 339.401 287.47 339.512 287.407 339.61C287.313 339.771 287.199 339.918 287.067 340.049C286.84 340.268 286.667 340.359 286.651 340.344C286.636 340.329 286.795 340.215 286.999 339.981C287.114 339.848 287.215 339.703 287.302 339.55C287.4 339.391 287.46 339.119 287.302 339.089C287.143 339.058 286.939 339.247 286.833 339.391C286.73 339.533 286.66 339.695 286.629 339.867C286.608 340.028 286.595 340.189 286.591 340.351Z" fill="#263238"/>
<path d="M298.777 339.542C298.777 339.542 298.459 339.542 297.945 339.542C297.286 339.627 296.661 339.888 296.138 340.298C295.62 340.719 295.229 341.277 295.012 341.909C294.927 342.174 294.856 342.444 294.8 342.717C294.785 342.643 294.785 342.566 294.8 342.491C294.814 342.283 294.852 342.077 294.913 341.878C295.121 341.219 295.515 340.634 296.047 340.192C296.587 339.756 297.246 339.493 297.937 339.436C298.143 339.412 298.351 339.412 298.557 339.436C298.638 339.455 298.712 339.491 298.777 339.542Z" fill="#263238"/>
<path d="M297.592 334.863C297.676 335.631 297.714 336.403 297.705 337.176C297.747 337.947 297.747 338.719 297.705 339.49C297.621 338.721 297.586 337.949 297.599 337.176C297.553 336.406 297.55 335.633 297.592 334.863Z" fill="#263238"/>
<path d="M293.328 341.712C292.79 341.837 292.239 341.893 291.687 341.878C291.135 341.906 290.581 341.865 290.039 341.758C290.039 341.72 290.795 341.758 291.687 341.758C292.579 341.758 293.328 341.712 293.328 341.712Z" fill="#263238"/>
<path d="M295.595 341.712C295.595 341.712 295.542 341.871 295.466 342.037C295.391 342.204 295.345 342.355 295.308 342.355C295.27 342.355 295.255 342.173 295.308 341.984C295.361 341.795 295.542 341.712 295.595 341.712Z" fill="#263238"/>
<path d="M296.395 340.669C296.395 340.669 296.35 340.812 296.236 340.926C296.123 341.039 296.002 341.122 295.972 341.1C295.941 341.077 296.017 340.949 296.138 340.835C296.259 340.722 296.35 340.639 296.395 340.669Z" fill="#263238"/>
<path d="M297.582 340.2C297.582 340.2 297.423 340.2 297.257 340.298C297.091 340.397 296.977 340.449 296.947 340.419C296.917 340.389 297.008 340.238 297.219 340.17C297.431 340.102 297.597 340.155 297.582 340.2Z" fill="#263238"/>
<path d="M298.428 339.958C298.428 339.996 298.375 340.056 298.285 340.094C298.194 340.132 298.103 340.132 298.088 340.094C298.073 340.056 298.141 340.003 298.232 339.966C298.322 339.928 298.413 339.928 298.428 339.958Z" fill="#263238"/>
<g opacity="0.3">
<path d="M298.867 339.089L287.512 339.104L287.519 337.743L298.821 337.675L298.867 339.089Z" fill="black"/>
</g>
<path d="M315.317 236.356L310.781 249.964C309.564 253.63 306.359 254.258 302.465 254.258H277.449V248.633L300.371 245.36L305.829 231.404L315.317 236.356Z" fill="#B78876"/>
<path d="M274.676 247.431L272.688 246.494C272.688 246.494 270.541 242.343 270.049 242.51C269.558 242.676 269.407 243.893 270.268 245.806L267.63 245.05C267.63 245.05 261.892 247.696 262.149 248.074C262.226 248.255 262.343 248.416 262.49 248.546C262.637 248.677 262.812 248.772 263.001 248.827C263.19 248.881 263.388 248.893 263.582 248.86C263.776 248.828 263.961 248.753 264.122 248.641C265.37 247.998 267.003 247.25 267.003 247.25L270.095 248.134L266.11 248.641L262.33 252.05C262.661 252.296 263.064 252.423 263.475 252.412C263.886 252.401 264.282 252.253 264.598 251.99L274.426 254.061L277.45 254.228V248.603L274.676 247.431Z" fill="#B78876"/>
<path d="M264.652 251.967C264.698 251.967 264.879 251.71 265.227 251.325C265.432 251.106 265.672 250.922 265.938 250.781C266.268 250.623 266.624 250.529 266.988 250.501C267.976 250.44 268.955 250.273 269.907 250.002C268.917 249.968 267.927 250.034 266.951 250.198C266.546 250.231 266.152 250.347 265.794 250.539C265.5 250.702 265.243 250.923 265.038 251.189C264.85 251.415 264.718 251.681 264.652 251.967Z" fill="#AA6550"/>
<path d="M266.178 252.361C266.215 252.361 266.246 252.156 266.518 252.096C266.79 252.035 267.236 251.998 267.697 251.952C268.27 251.942 268.842 251.883 269.406 251.778C268.848 251.584 268.249 251.537 267.667 251.642C267.25 251.679 266.839 251.765 266.442 251.899C266.374 251.925 266.312 251.965 266.261 252.017C266.21 252.07 266.171 252.133 266.147 252.202C266.11 252.308 266.155 252.361 266.178 252.361Z" fill="#AA6550"/>
<path d="M317.445 233.392L315.517 239.932L303.27 234.36C303.716 232.992 305.742 226.898 309.612 217.229C310.671 214.577 312.395 212.242 314.618 210.449C316.842 208.656 319.489 207.466 322.306 206.993C326.177 206.293 330.098 205.909 334.031 205.844C340.903 205.919 351.011 210.213 352.364 216.942C353.407 222.083 352.402 231.155 352.402 242.177L351.54 263.262L316.348 264.449L317.445 233.392Z" fill="#46B2C8"/>
<g opacity="0.3">
<path d="M352.363 237.324C348.084 238.201 343.684 237.324 339.322 237.059C336.676 236.9 333.743 236.613 331.649 238.238C329.993 239.531 329.328 241.701 328.844 243.742C327.022 251.544 326.689 256.768 326.281 264.766L347.449 266.052L352.363 237.324Z" fill="black"/>
</g>
<path d="M316.543 210.538C316.543 210.538 316.898 210.591 317.48 210.818C318.293 211.17 318.993 211.737 319.506 212.459C320.255 213.539 320.675 214.812 320.716 216.125C320.765 217.742 320.641 219.359 320.346 220.949C319.847 223.857 319.191 226.737 318.38 229.575C318.093 230.633 317.851 231.502 317.669 232.168C317.566 232.48 317.49 232.802 317.443 233.128C317.585 232.829 317.698 232.518 317.783 232.198C317.979 231.593 318.259 230.724 318.584 229.635C319.466 226.805 320.156 223.918 320.648 220.994C320.945 219.381 321.062 217.741 320.996 216.103C320.937 214.741 320.48 213.427 319.68 212.323C319.129 211.586 318.379 211.022 317.518 210.697C317.284 210.621 317.044 210.565 316.8 210.531C316.634 210.531 316.543 210.523 316.543 210.538Z" fill="#263238"/>
<path d="M303.652 232.719C304.199 233.096 304.776 233.427 305.376 233.71C306.465 234.277 307.984 235.025 309.693 235.796C311.401 236.568 312.974 237.21 314.123 237.649C314.729 237.919 315.359 238.131 316.005 238.284C315.423 237.965 314.819 237.687 314.199 237.452C313.08 236.961 311.522 236.288 309.821 235.517C308.12 234.746 306.586 234.005 305.474 233.513C304.888 233.204 304.279 232.938 303.652 232.719Z" fill="#263238"/>
<path d="M298.042 266.052C295.16 267.624 293.009 270.265 292.052 273.405C291.095 276.546 291.408 279.937 292.924 282.85L323.564 335.437L337.694 326.902L313.91 279.425L331.124 268.168" fill="#263238"/>
<path d="M335.338 263.443L293.289 264.955C290.008 265.072 286.903 266.47 284.641 268.851C282.379 271.231 281.141 274.403 281.193 277.686L282.939 337.735H300.622L300.032 280.96L335.338 280.03V263.443Z" fill="#263238"/>
<path d="M300.032 282.948C300.068 283.133 300.086 283.32 300.085 283.508C300.085 283.911 300.108 284.44 300.153 285.095C300.206 286.479 300.259 288.482 300.312 290.962C300.418 295.914 300.486 302.755 300.524 310.308C300.562 317.86 300.599 324.672 300.622 329.654C300.622 332.103 300.622 334.092 300.66 335.52C300.66 336.186 300.66 336.715 300.66 337.116C300.678 337.302 300.678 337.489 300.66 337.675C300.625 337.491 300.607 337.303 300.607 337.116C300.607 336.715 300.569 336.186 300.539 335.52C300.486 334.137 300.433 332.134 300.38 329.661C300.274 324.71 300.206 317.868 300.168 310.308C300.131 302.748 300.093 295.944 300.07 290.962C300.07 288.52 300.07 286.532 300.07 285.103V283.5C300.04 283.318 300.027 283.133 300.032 282.948Z" fill="#455A64"/>
<path d="M353.551 225.341H340.828C338.369 225.341 336.012 226.317 334.274 228.056C332.536 229.794 331.559 232.151 331.559 234.609V278.964H306.18C304.478 278.964 302.845 279.64 301.642 280.844C300.438 282.048 299.762 283.68 299.762 285.382H357.785C359.15 285.326 360.44 284.743 361.386 283.757C362.331 282.771 362.859 281.457 362.857 280.09V234.609C362.857 233.389 362.617 232.181 362.148 231.054C361.68 229.927 360.994 228.903 360.129 228.042C359.265 227.181 358.239 226.499 357.11 226.036C355.981 225.572 354.771 225.336 353.551 225.341Z" fill="#455A64"/>
<path d="M335.255 226.8C335.361 226.8 335.452 239.841 335.452 255.929C335.452 272.016 335.361 285.057 335.255 285.057C335.149 285.057 335.059 272.016 335.059 255.929C335.059 239.841 335.149 226.8 335.255 226.8Z" fill="#263238"/>
<path d="M333.643 331.99V285.436H329.507V331.99C326.982 336.965 321.048 340.306 313.82 343.088H350.683C343.221 340.049 336.417 337.713 333.643 331.99Z" fill="#455A64"/>
<path d="M100.754 325.957L100.875 325.685L101.245 324.891C101.692 323.868 102.056 322.812 102.334 321.731C103.202 317.704 103.169 313.534 102.236 309.522C101.657 306.741 100.899 304.002 99.9677 301.319C99.0076 298.408 97.8962 295.324 96.9437 291.982C95.9185 288.498 95.4241 284.879 95.477 281.247C95.6131 277.467 96.7396 273.687 97.9718 269.907C99.2041 266.127 100.482 262.438 100.867 258.718C101.291 255.143 100.571 251.525 98.811 248.384C97.178 245.36 95.1217 242.789 93.5795 240.121C92.1383 237.644 91.0757 234.966 90.427 232.175C89.5019 228.131 89.4349 223.939 90.2304 219.868C90.5126 218.379 90.9431 216.923 91.5156 215.521C91.4971 215.618 91.4719 215.714 91.44 215.808C91.372 216.012 91.2888 216.284 91.1754 216.639C90.8681 217.709 90.6158 218.794 90.4194 219.89C89.6804 223.935 89.7833 228.089 90.7218 232.092C91.3792 234.85 92.4442 237.495 93.8819 239.939C95.3939 242.578 97.488 245.148 99.1739 248.202C100.978 251.402 101.719 255.093 101.291 258.741C100.905 262.521 99.6199 266.241 98.3876 270.013C97.1554 273.785 96.044 277.573 95.9004 281.27C95.8481 284.865 96.3323 288.447 97.3368 291.899C98.2364 295.218 99.3326 298.31 100.285 301.228C101.208 303.925 101.951 306.681 102.508 309.476C103.432 313.524 103.432 317.728 102.508 321.776C102.205 322.862 101.802 323.917 101.306 324.929C101.132 325.254 101.003 325.511 100.898 325.685C100.863 325.782 100.814 325.873 100.754 325.957Z" fill="#3B802A"/>
<path d="M95.7182 242.729C95.7182 242.729 92.5883 232.727 98.1979 226.853C98.2417 226.806 98.298 226.771 98.3602 226.754C98.4224 226.737 98.4882 226.737 98.5502 226.755C98.6122 226.773 98.668 226.808 98.7112 226.856C98.7545 226.904 98.7835 226.963 98.7951 227.027C99.0899 228.69 99.4679 233.725 95.7182 242.729Z" fill="#81DD6A"/>
<path d="M97.5916 230.202C97.5827 230.823 97.5118 231.441 97.3799 232.047C97.1682 233.317 96.9263 234.814 96.6239 236.462C96.3215 238.11 96.1249 239.607 95.9284 240.877C95.8706 241.493 95.7592 242.102 95.5957 242.699C95.5379 242.079 95.5556 241.455 95.6486 240.839C95.7545 239.698 95.951 238.125 96.2383 236.401C96.5256 234.678 96.8204 233.12 97.0699 231.994C97.1704 231.378 97.3456 230.776 97.5916 230.202Z" fill="#3B802A"/>
<path d="M99.3906 266.331C99.3906 266.331 101.303 256.027 109.007 253.479C109.067 253.457 109.133 253.453 109.196 253.466C109.259 253.48 109.317 253.511 109.362 253.556C109.408 253.601 109.441 253.658 109.455 253.721C109.47 253.784 109.467 253.849 109.445 253.91C108.939 255.528 106.92 260.125 99.3906 266.331Z" fill="#81DD6A"/>
<path d="M106.907 256.133C106.61 256.671 106.257 257.178 105.856 257.645L103.165 261.213L100.481 264.781C100.147 265.304 99.7621 265.793 99.332 266.241C99.5738 265.666 99.8835 265.123 100.254 264.623C100.882 263.663 101.766 262.355 102.847 260.971C103.929 259.588 104.904 258.348 105.637 257.471C106.007 256.977 106.433 256.528 106.907 256.133Z" fill="#3B802A"/>
<path d="M97.3041 292.186C97.3041 292.186 96.1474 281.769 102.77 277.066C102.822 277.029 102.884 277.006 102.948 277.001C103.013 276.996 103.077 277.01 103.135 277.04C103.192 277.069 103.24 277.115 103.273 277.17C103.306 277.226 103.323 277.289 103.322 277.354C103.299 279.055 102.709 284.067 97.3041 292.186Z" fill="#81DD6A"/>
<path d="M101.538 280.249C101.411 280.856 101.224 281.449 100.978 282.018L99.4661 286.214C98.8915 287.787 98.3775 289.238 97.9541 290.417C97.7811 291.011 97.5559 291.588 97.2812 292.141C97.3421 291.522 97.4793 290.912 97.6895 290.327C98.007 289.223 98.506 287.719 99.1108 286.078C99.7156 284.438 100.313 282.971 100.766 281.92C100.958 281.335 101.217 280.774 101.538 280.249Z" fill="#3B802A"/>
<path d="M103.111 318.201C103.111 318.201 102.355 307.745 109.114 303.307C109.166 303.27 109.229 303.248 109.293 303.245C109.358 303.241 109.422 303.256 109.478 303.288C109.535 303.32 109.581 303.367 109.611 303.424C109.642 303.481 109.655 303.545 109.651 303.61C109.567 305.288 108.796 310.27 103.111 318.201Z" fill="#81DD6A"/>
<path d="M107.767 306.414C107.616 307.018 107.406 307.606 107.139 308.168C106.656 309.363 106.081 310.761 105.454 312.304C104.826 313.846 104.252 315.252 103.768 316.446C103.572 317.037 103.319 317.606 103.012 318.147C103.102 317.532 103.262 316.928 103.488 316.348C103.843 315.26 104.395 313.778 105.068 312.16C105.741 310.542 106.376 309.091 106.867 308.055C107.103 307.475 107.405 306.925 107.767 306.414Z" fill="#3B802A"/>
<path d="M91.2189 233.944C91.2189 233.944 81.9276 229.068 81.7386 220.979C81.7357 220.914 81.7509 220.85 81.7824 220.793C81.8139 220.737 81.8606 220.69 81.9172 220.659C81.9737 220.628 82.0379 220.613 82.1025 220.616C82.1671 220.619 82.2296 220.64 82.283 220.676C83.6664 221.629 87.4918 224.925 91.2189 233.944Z" fill="#81DD6A"/>
<path d="M83.6758 223.776C84.1095 224.222 84.4971 224.711 84.8325 225.235L87.4482 228.856L90.0791 232.47C90.4797 232.939 90.8342 233.445 91.1375 233.982C90.6568 233.586 90.2275 233.132 89.8599 232.629C89.1039 231.752 88.1513 230.497 87.1307 229.076C86.1101 227.654 85.2256 226.347 84.6057 225.379C84.2363 224.881 83.9243 224.344 83.6758 223.776Z" fill="#3B802A"/>
<path d="M101.199 255.43C101.199 255.43 91.6282 251.151 90.9553 243.062C90.948 242.998 90.959 242.933 90.987 242.875C91.0149 242.817 91.0588 242.768 91.1134 242.734C91.168 242.7 91.2312 242.682 91.2955 242.683C91.3599 242.683 91.4228 242.702 91.477 242.736C92.9134 243.606 96.9277 246.653 101.199 255.43Z" fill="#81DD6A"/>
<path d="M93.0469 245.7C93.5044 246.117 93.9197 246.578 94.2867 247.076L97.1217 250.538C98.1877 251.824 99.1478 252.988 99.9643 253.986C100.391 254.433 100.776 254.919 101.113 255.437C100.613 255.069 100.159 254.643 99.7602 254.167C99.0042 253.336 97.9231 252.141 96.8193 250.78C95.7156 249.419 94.7479 248.172 94.0675 247.25C93.6705 246.773 93.3282 246.253 93.0469 245.7Z" fill="#3B802A"/>
<path d="M95.688 279.402C95.688 279.402 89.1183 271.23 92.2028 263.723C92.2253 263.663 92.2644 263.61 92.3157 263.571C92.3669 263.532 92.4281 263.509 92.4923 263.503C92.5564 263.497 92.6207 263.51 92.6779 263.54C92.7351 263.569 92.7827 263.615 92.8152 263.67C93.6997 265.099 95.8921 269.642 95.688 279.402Z" fill="#81DD6A"/>
<path d="M92.8516 267.05C93.0701 267.632 93.2296 268.235 93.3279 268.849C93.6076 270.104 93.9251 271.586 94.2804 273.219C94.6357 274.851 94.9608 276.318 95.2406 277.581C95.4177 278.175 95.5392 278.785 95.6034 279.403C95.3189 278.848 95.108 278.258 94.9759 277.649C94.6509 276.545 94.2653 275.01 93.8949 273.294C93.5244 271.578 93.2371 270.028 93.0557 268.902C92.9185 268.294 92.85 267.673 92.8516 267.05Z" fill="#3B802A"/>
<path d="M102.197 307.609C102.197 307.609 92.7015 303.156 92.1647 295.067C92.1608 295.003 92.1744 294.94 92.2041 294.883C92.2338 294.827 92.2783 294.78 92.3329 294.747C92.3875 294.715 92.45 294.697 92.5137 294.698C92.5773 294.698 92.6397 294.716 92.6939 294.749C94.1152 295.641 98.0842 298.756 102.197 307.609Z" fill="#81DD6A"/>
<path d="M94.2109 297.766C94.6611 298.194 95.0688 298.665 95.4281 299.172L98.2102 302.672C99.2459 303.98 100.191 305.159 100.992 306.165C101.411 306.635 101.788 307.141 102.119 307.677C101.624 307.296 101.175 306.86 100.781 306.376C100.025 305.53 98.9813 304.32 97.9002 302.944C96.8191 301.568 95.8741 300.306 95.2089 299.368C94.8158 298.874 94.481 298.336 94.2109 297.766Z" fill="#3B802A"/>
<path d="M121.109 266.384C121.109 266.384 121.109 266.467 121.109 266.619C121.109 266.77 121.109 267.019 121.109 267.291C121.079 267.916 121.041 268.763 120.996 269.832C120.875 272.1 120.701 275.184 120.497 278.904C119.817 282.684 117.889 286.895 115.288 291C113.383 294.024 111.395 296.745 109.671 299.316C108.106 301.537 106.699 303.867 105.46 306.286C104.643 307.924 103.983 309.635 103.487 311.397C103.321 312.024 103.192 312.508 103.124 312.84C103.092 313.013 103.044 313.183 102.98 313.347C102.982 313.171 103.002 312.997 103.041 312.825C103.094 312.485 103.192 311.994 103.336 311.359C103.782 309.568 104.41 307.828 105.211 306.165C106.419 303.716 107.809 301.361 109.369 299.119C111.077 296.556 113.066 293.827 114.956 290.803C117.541 286.743 119.492 282.6 120.164 278.866C120.421 275.139 120.641 272.062 120.799 269.794C120.883 268.735 120.951 267.889 121.004 267.261C121.004 266.997 121.056 266.777 121.072 266.596C121.075 266.524 121.088 266.453 121.109 266.384Z" fill="#3B802A"/>
<path d="M115.456 290.228C115.456 290.228 119.478 280.552 114.42 274.209C114.382 274.156 114.33 274.116 114.27 274.092C114.21 274.068 114.145 274.062 114.082 274.074C114.018 274.086 113.96 274.115 113.912 274.159C113.865 274.203 113.831 274.26 113.815 274.322C113.399 275.94 112.538 280.922 115.456 290.228Z" fill="#81DD6A"/>
<path d="M114.732 277.581C114.904 278.177 115.01 278.791 115.05 279.41C115.193 280.552 115.352 282.124 115.473 283.87C115.594 285.617 115.662 287.204 115.654 288.346C115.689 288.968 115.654 289.592 115.549 290.206C115.434 289.598 115.378 288.98 115.382 288.361C115.292 287.076 115.193 285.564 115.08 283.901C114.966 282.238 114.861 280.726 114.77 279.44C114.691 278.824 114.678 278.2 114.732 277.581Z" fill="#3B802A"/>
<g opacity="0.3">
<path d="M115.456 290.228C115.456 290.228 119.478 280.552 114.42 274.209C114.382 274.156 114.33 274.116 114.27 274.092C114.21 274.068 114.145 274.062 114.082 274.074C114.018 274.086 113.96 274.115 113.912 274.159C113.865 274.203 113.831 274.26 113.815 274.322C113.399 275.94 112.538 280.922 115.456 290.228Z" fill="black"/>
</g>
<path d="M103.004 313.559C103.004 313.559 106.225 303.587 100.668 297.683C100.625 297.635 100.569 297.601 100.507 297.583C100.446 297.566 100.38 297.565 100.319 297.583C100.257 297.6 100.201 297.634 100.157 297.681C100.113 297.728 100.084 297.786 100.071 297.849C99.7912 299.489 99.33 304.517 103.004 313.559Z" fill="#81DD6A"/>
<path d="M101.243 301.017C101.468 301.596 101.625 302.2 101.712 302.816C101.946 303.935 102.233 305.492 102.468 307.223C102.702 308.955 102.921 310.527 103.012 311.669C103.088 312.286 103.088 312.911 103.012 313.528C102.855 312.929 102.751 312.317 102.702 311.699C102.513 310.429 102.286 308.932 102.044 307.284C101.802 305.636 101.568 304.131 101.371 302.861C101.266 302.252 101.223 301.634 101.243 301.017Z" fill="#3B802A"/>
<g opacity="0.3">
<path d="M103.004 313.559C103.004 313.559 106.225 303.587 100.668 297.683C100.625 297.635 100.569 297.601 100.507 297.583C100.446 297.566 100.38 297.565 100.319 297.583C100.257 297.6 100.201 297.634 100.157 297.681C100.113 297.728 100.084 297.786 100.071 297.849C99.7912 299.489 99.33 304.517 103.004 313.559Z" fill="black"/>
</g>
<path d="M120.582 278.397C120.582 278.397 129.17 272.387 128.301 264.32C128.294 264.257 128.271 264.196 128.232 264.146C128.194 264.095 128.142 264.056 128.083 264.032C128.023 264.009 127.959 264.002 127.896 264.013C127.833 264.024 127.774 264.052 127.726 264.093C126.479 265.22 123.115 268.977 120.582 278.397Z" fill="#81DD6A"/>
<g opacity="0.3">
<path d="M120.582 278.397C120.582 278.397 129.17 272.387 128.301 264.32C128.294 264.257 128.271 264.196 128.232 264.146C128.194 264.095 128.142 264.056 128.083 264.032C128.023 264.009 127.959 264.002 127.896 264.013C127.833 264.024 127.774 264.052 127.726 264.093C126.479 265.22 123.115 268.977 120.582 278.397Z" fill="black"/>
</g>
<path d="M126.749 267.329C126.573 267.926 126.332 268.501 126.031 269.045C125.547 270.081 124.837 271.502 124.005 273.037C123.173 274.572 122.372 275.948 121.737 276.915C121.441 277.464 121.075 277.972 120.648 278.427C120.887 277.855 121.173 277.304 121.503 276.779C122.123 275.653 122.841 274.33 123.642 272.863C124.444 271.396 125.154 270.066 125.774 268.932C126.042 268.365 126.369 267.828 126.749 267.329Z" fill="#3B802A"/>
<path d="M106.469 303.67C106.469 303.67 116.826 302.052 119.6 294.432C119.624 294.372 119.63 294.306 119.618 294.243C119.607 294.18 119.578 294.121 119.534 294.073C119.491 294.025 119.436 293.99 119.374 293.972C119.312 293.954 119.247 293.954 119.185 293.971C117.567 294.439 112.887 296.352 106.469 303.67Z" fill="#81DD6A"/>
<g opacity="0.3">
<path d="M106.469 303.67C106.469 303.67 116.826 302.052 119.6 294.432C119.624 294.372 119.63 294.306 119.618 294.243C119.607 294.18 119.578 294.121 119.534 294.073C119.491 294.025 119.436 293.99 119.374 293.972C119.312 293.954 119.247 293.954 119.185 293.971C117.567 294.439 112.887 296.352 106.469 303.67Z" fill="black"/>
</g>
<path d="M116.877 296.45C116.458 296.912 115.989 297.325 115.478 297.682C114.586 298.393 113.324 299.353 111.895 300.366C110.466 301.379 109.151 302.256 108.175 302.861C107.665 303.219 107.111 303.511 106.527 303.73C106.993 303.313 107.499 302.943 108.039 302.627L111.683 300.049L115.327 297.456C115.81 297.072 116.329 296.735 116.877 296.45Z" fill="#3B802A"/>
<path d="M96.5865 322.736L93.5625 343.073H112.394L109.953 322.736H96.5865Z" fill="#0AA06E"/>
<path d="M110.702 329.034C108.187 329.232 105.664 329.298 103.142 329.23C100.62 329.298 98.0968 329.232 95.582 329.034C98.0971 328.84 100.62 328.774 103.142 328.837C105.664 328.774 108.187 328.84 110.702 329.034Z" fill="#3B802A"/>
<path d="M111.078 330.652C108.467 330.851 105.848 330.916 103.23 330.848C100.615 330.917 97.9988 330.851 95.3906 330.652C95.3906 330.546 98.8985 330.455 103.23 330.455C107.562 330.455 111.078 330.546 111.078 330.652Z" fill="#3B802A"/>
</svg>
