<svg width="485" height="477" viewBox="0 0 485 477" fill="none" xmlns="http://www.w3.org/2000/svg">
<path d="M484.999 320.318H298.939V212.648H484.999V320.318ZM300.075 319.183H483.864V213.784H300.075V319.183Z" fill="#E0E0E0"/>
<path d="M446.616 270.059H323.859V273.657H446.616V270.059Z" fill="#F0F0F0"/>
<path d="M455.074 283.478H323.859V287.406H455.074V283.478Z" fill="#F0F0F0"/>
<path d="M455.074 297.055H323.859V300.983H455.074V297.055Z" fill="#F0F0F0"/>
<path d="M366.761 250.566H323.859V259.91H366.761V250.566Z" fill="#F0F0F0"/>
<path d="M484.432 213.216H299.541V230.358H484.432V213.216Z" fill="#E0E0E0"/>
<path d="M470.209 227.793C469.97 227.566 472.355 224.694 475.522 221.379C478.689 218.064 481.471 215.555 481.698 215.771C481.925 215.986 479.552 218.87 476.385 222.196C473.217 225.523 470.436 228.02 470.209 227.793Z" fill="white"/>
<path d="M481.72 227.793C481.493 228.02 478.723 225.522 475.544 222.196C472.366 218.869 469.993 215.997 470.231 215.77C470.47 215.543 473.228 218.041 476.407 221.378C479.586 224.716 481.936 227.566 481.72 227.793Z" fill="white"/>
<path d="M256.05 0H71.1592V106.545H256.05V0Z" fill="#E6E6E6"/>
<path d="M218.245 56.8545H95.4883V60.4533H218.245V56.8545Z" fill="#F0F0F0"/>
<path d="M226.703 70.2734H95.4883V74.2015H226.703V70.2734Z" fill="#F0F0F0"/>
<path d="M226.703 83.8516H95.4883V87.7796H226.703V83.8516Z" fill="#F0F0F0"/>
<path d="M138.39 37.3613H95.4883V46.7046H138.39V37.3613Z" fill="#F0F0F0"/>
<path d="M256.05 0H71.1592V17.1426H256.05V0Z" fill="#E0E0E0"/>
<path d="M241.199 14.4971C240.961 14.2814 243.345 11.3978 246.512 8.08285C249.68 4.76785 252.461 2.2589 252.688 2.48595C252.915 2.71301 250.542 5.58525 247.375 8.90025C244.208 12.2152 241.426 14.7015 241.199 14.4971Z" fill="white"/>
<path d="M252.688 14.4972C252.461 14.7243 249.691 12.2267 246.512 8.9003C243.333 5.57395 240.961 2.71307 241.199 2.48601C241.438 2.25896 244.196 4.75655 247.375 8.0829C250.554 11.4093 252.927 14.2815 252.688 14.4972Z" fill="white"/>
<path d="M186.026 197.924H0V90.2432H186.026V197.924ZM1.13527 196.789H184.891V91.3784H1.13527V196.789Z" fill="#E0E0E0"/>
<path d="M147.654 147.666H24.8965V151.265H147.654V147.666Z" fill="#F0F0F0"/>
<path d="M156.111 161.084H24.8965V165.012H156.111V161.084Z" fill="#F0F0F0"/>
<path d="M156.111 174.662H24.8965V178.59H156.111V174.662Z" fill="#F0F0F0"/>
<path d="M67.7985 128.173H24.8965V137.516H67.7985V128.173Z" fill="#F0F0F0"/>
<path d="M185.458 90.8105H0.567383V107.953H185.458V90.8105Z" fill="#E0E0E0"/>
<path d="M400.717 222.593H182.404V418.041H400.717V222.593Z" fill="#E6E6E6"/>
<path d="M193.382 161.027H22.3643V338.709H193.382V161.027Z" fill="#F0F0F0"/>
<path d="M193.382 161.027H22.3643V180.384H193.382V161.027Z" fill="#E0E0E0"/>
<path d="M36.4868 170.506C36.4557 171.208 36.2191 171.885 35.8065 172.454C35.3939 173.023 34.8233 173.458 34.1657 173.705C33.508 173.952 32.7922 174.001 32.1071 173.845C31.422 173.689 30.7978 173.336 30.3118 172.828C29.8259 172.321 29.4996 171.682 29.3736 170.991C29.2476 170.299 29.3273 169.586 29.6029 168.94C29.8785 168.294 30.3378 167.743 30.9238 167.355C31.5098 166.967 32.1968 166.76 32.8994 166.76C33.871 166.784 34.7937 167.191 35.4659 167.893C36.1381 168.595 36.5051 169.534 36.4868 170.506Z" fill="white"/>
<path d="M51.053 170.506C51.0241 171.211 50.7884 171.893 50.3752 172.465C49.9621 173.037 49.3898 173.475 48.7295 173.725C48.0693 173.975 47.3502 174.024 46.6618 173.868C45.9734 173.712 45.3461 173.357 44.8579 172.848C44.3698 172.338 44.0423 171.696 43.9162 171.001C43.7902 170.307 43.8712 169.59 44.1491 168.942C44.427 168.293 44.8896 167.74 45.4793 167.352C46.069 166.964 46.7597 166.758 47.4655 166.76C48.4372 166.784 49.3599 167.191 50.0321 167.893C50.7043 168.595 51.0713 169.534 51.053 170.506Z" fill="white"/>
<path d="M65.6184 170.506C65.5895 171.211 65.3538 171.893 64.9407 172.465C64.5275 173.037 63.9552 173.475 63.295 173.725C62.6347 173.975 61.9156 174.024 61.2272 173.868C60.5389 173.712 59.9115 173.357 59.4234 172.848C58.9352 172.338 58.6077 171.696 58.4817 171.001C58.3556 170.307 58.4366 169.59 58.7145 168.942C58.9924 168.293 59.455 167.74 60.0447 167.352C60.6344 166.964 61.3251 166.758 62.031 166.76C63.0026 166.784 63.9253 167.191 64.5975 167.893C65.2697 168.595 65.6367 169.534 65.6184 170.506Z" fill="white"/>
<path d="M460.581 38.8613H242.268V256.448H460.581V38.8613Z" fill="#F0F0F0"/>
<path d="M460.581 38.8613H242.268V64.3482H460.581V38.8613Z" fill="#E0E0E0"/>
<path d="M260.863 51.3486C260.823 52.2752 260.512 53.1695 259.968 53.9207C259.424 54.6719 258.671 55.2468 257.804 55.574C256.936 55.9011 255.991 55.9662 255.087 55.7611C254.182 55.556 253.358 55.0898 252.716 54.4203C252.074 53.7508 251.643 52.9075 251.477 51.9952C251.31 51.0829 251.415 50.1417 251.778 49.2885C252.142 48.4353 252.748 47.7077 253.521 47.196C254.295 46.6843 255.202 46.411 256.129 46.4102C257.411 46.44 258.629 46.9763 259.516 47.9018C260.403 48.8274 260.888 50.0667 260.863 51.3486Z" fill="white"/>
<path d="M278.653 48.0101C279.283 48.6936 279.697 49.5471 279.845 50.4644C279.992 51.3817 279.867 52.3222 279.484 53.1687C279.101 54.0152 278.477 54.7302 277.69 55.2248C276.904 55.7193 275.989 55.9714 275.06 55.9497C274.131 55.9281 273.229 55.6335 272.467 55.1029C271.704 54.5722 271.114 53.8288 270.771 52.9654C270.428 52.102 270.347 51.1567 270.537 50.2473C270.727 49.3378 271.181 48.5045 271.841 47.8512C272.767 46.9707 274.003 46.493 275.28 46.5228C276.557 46.5526 277.77 47.0874 278.653 48.0101Z" fill="white"/>
<path d="M299.212 51.3486C299.172 52.2752 298.86 53.1695 298.317 53.9207C297.773 54.6719 297.02 55.2468 296.152 55.574C295.284 55.9011 294.34 55.9662 293.435 55.7611C292.531 55.556 291.706 55.0898 291.065 54.4203C290.423 53.7508 289.992 52.9075 289.825 51.9952C289.658 51.0829 289.763 50.1417 290.127 49.2885C290.49 48.4353 291.097 47.7077 291.87 47.196C292.644 46.6843 293.55 46.411 294.478 46.4102C295.76 46.44 296.977 46.9763 297.865 47.9018C298.752 48.8274 299.236 50.0667 299.212 51.3486Z" fill="white"/>
<path d="M413.422 475.771C413.422 475.93 334.588 476.066 237.375 476.066C140.161 476.066 61.2939 475.93 61.2939 475.771C61.2939 475.612 140.116 475.476 237.375 475.476C334.634 475.476 413.422 475.623 413.422 475.771Z" fill="#023A59"/>
<path d="M336.608 336.791C319.068 324.541 315.094 301.801 315.787 281.355C315.9 277.949 315.526 274.339 317.149 271.353C318.772 268.368 322.564 266.313 325.618 267.743C328.15 268.935 329.251 271.887 330.67 274.328C332.564 277.579 335.338 280.228 338.674 281.968C340.842 283.103 343.533 283.785 345.678 282.604C348.63 280.98 348.971 276.928 348.948 273.522C348.948 267.187 348.91 260.86 348.835 254.54C348.63 251.146 348.976 247.742 349.856 244.459C350.912 241.235 353.262 238.249 356.475 237.341C359.688 236.432 363.695 238.306 364.422 241.621C364.547 243.025 364.581 244.435 364.524 245.844C364.615 247.263 365.273 248.818 366.602 249.25C367.93 249.681 369.315 248.693 370.337 247.694C373.833 244.288 376.217 239.85 378.431 235.467C380.645 231.085 382.813 226.578 385.992 222.843C389.171 219.108 393.564 216.145 398.48 215.861C403.396 215.577 408.516 218.597 409.742 223.365C410.968 228.133 408.187 233.004 405.201 236.875C400.695 242.622 395.384 247.688 389.432 251.917C388.27 252.552 387.343 253.543 386.787 254.744C386.049 257.015 388.194 259.285 390.431 260.001C392.963 260.841 395.71 260.58 398.378 260.897C401.046 261.215 403.884 262.373 404.894 264.871C406.279 268.345 403.373 271.978 400.524 274.362C394.802 279.13 388.305 282.882 381.315 285.453C378.817 286.362 376.195 287.168 374.174 288.916C372.153 290.664 370.95 293.718 372.164 296.114C373.379 298.509 376.501 299.27 379.124 298.782C381.746 298.293 384.073 296.886 386.571 295.943C391.237 294.184 397.254 294.502 400.194 298.532C401.105 299.92 401.682 301.501 401.879 303.149C402.076 304.798 401.888 306.47 401.33 308.034C400.193 311.146 398.445 313.999 396.187 316.424C388.751 325.308 379.09 332.058 368.191 335.984C357.372 339.731 347.347 340.753 336.596 336.813" fill="#115766"/>
<path d="M404.747 218.665C404.747 218.665 404.645 218.779 404.418 218.983L403.408 219.88C402.522 220.674 401.217 221.832 399.571 223.365C394.903 227.699 390.569 232.378 386.606 237.363C384.074 240.508 381.452 244.072 378.659 247.944C375.866 251.815 372.982 255.993 370.122 260.432C367.072 265.113 364.278 269.956 361.755 274.941C360.438 277.54 359.28 280.254 358.088 283.024L354.568 291.481C349.929 302.135 345.889 313.039 342.466 324.143C339.709 333.229 337.809 342.552 336.79 351.992C336.13 358.362 336.023 364.778 336.472 371.166C336.654 373.437 336.824 375.174 336.983 376.355C337.051 376.922 337.096 377.376 337.142 377.705V378.171C337.093 378.023 337.059 377.871 337.04 377.717C336.983 377.388 336.915 376.945 336.824 376.377C336.62 375.242 336.404 373.448 336.2 371.178C335.652 364.777 335.69 358.34 336.313 351.946C337.269 342.466 339.128 333.099 341.865 323.973C345.259 312.838 349.288 301.906 353.933 291.232L357.543 282.808C358.735 280.049 359.904 277.313 361.232 274.702C363.774 269.703 366.59 264.848 369.667 260.159C372.574 255.618 375.503 251.509 378.261 247.671C381.02 243.834 383.688 240.247 386.208 237.113C390.212 232.141 394.605 227.495 399.344 223.217C401.024 221.708 402.363 220.572 403.272 219.812L404.327 218.96C404.457 218.848 404.598 218.749 404.747 218.665Z" fill="#023A59"/>
<path d="M361.378 274.679C361.218 274.211 361.108 273.728 361.049 273.237C360.868 272.295 360.663 270.967 360.425 269.241C359.937 265.835 359.437 261.169 358.904 256.004C358.37 250.838 357.768 246.161 357.269 242.789C357.008 241.109 356.781 239.758 356.622 238.816C356.498 238.333 356.433 237.838 356.429 237.34C356.624 237.795 356.765 238.271 356.849 238.759C357.099 239.69 357.382 241.029 357.7 242.721C358.347 246.127 358.983 250.759 359.517 255.936C360.05 261.112 360.504 265.654 360.856 269.184C361.027 270.774 361.174 272.125 361.288 273.203C361.376 273.69 361.406 274.185 361.378 274.679Z" fill="#023A59"/>
<path d="M405.064 266.527C404.512 266.647 403.949 266.716 403.384 266.731C402.249 266.834 400.637 266.97 398.639 267.197C394.643 267.628 389.148 268.423 383.12 269.558C377.091 270.694 371.676 271.976 367.782 272.964C365.841 273.464 364.274 273.918 363.241 274.224C362.689 274.42 362.119 274.557 361.538 274.633C362.063 274.369 362.61 274.153 363.173 273.986C364.24 273.611 365.784 273.089 367.714 272.533C371.585 271.397 377 270.046 383.051 268.888C388.177 267.908 393.349 267.188 398.548 266.731C400.557 266.561 402.181 266.493 403.316 266.47C403.899 266.431 404.485 266.45 405.064 266.527Z" fill="#023A59"/>
<path d="M342.421 323.178C342.3 323.014 342.2 322.835 342.125 322.645L341.376 321.067C340.729 319.693 339.855 317.661 338.81 315.175C336.699 310.18 334.008 303.186 331.147 295.421C328.286 287.656 325.653 280.662 323.655 275.611C322.678 273.158 321.872 271.149 321.271 269.65L320.635 268.027C320.547 267.84 320.485 267.641 320.453 267.437C320.574 267.601 320.673 267.78 320.748 267.97L321.498 269.548C322.133 270.922 323.019 272.954 324.063 275.44C326.175 280.435 328.865 287.429 331.726 295.194C334.587 302.959 337.221 309.953 339.219 315.004C340.196 317.457 341.002 319.466 341.592 320.965C341.853 321.612 342.069 322.1 342.239 322.588C342.327 322.775 342.388 322.974 342.421 323.178Z" fill="#023A59"/>
<path d="M400.41 304.48C400.229 304.585 400.034 304.665 399.831 304.719L398.151 305.287L391.941 307.296C386.696 308.999 379.453 311.428 371.506 314.108C363.559 316.787 356.282 319.171 351.003 320.76C348.369 321.566 346.224 322.179 344.736 322.588L343.022 323.031C342.823 323.094 342.617 323.136 342.409 323.156C342.591 323.051 342.786 322.971 342.988 322.917L344.668 322.35L350.878 320.34C356.123 318.637 363.366 316.208 371.313 313.529C379.26 310.849 386.526 308.465 391.805 306.876C394.45 306.07 396.584 305.457 398.083 305.048L399.797 304.605C399.997 304.542 400.202 304.5 400.41 304.48Z" fill="#023A59"/>
<path d="M376.753 29.0967L370.906 31.1856L368.397 23.5452C363.788 9.45648 349.098 1.97503 335.599 6.73182C322.101 11.4886 314.915 26.9397 319.524 41.0284L322.033 48.6688L316.163 50.7691C313.925 51.6372 312.108 53.3343 311.089 55.5079C310.07 57.6814 309.927 60.164 310.691 62.4397L326.96 112.153C327.298 113.28 327.858 114.327 328.609 115.233C329.359 116.138 330.284 116.884 331.328 117.425C332.372 117.966 333.514 118.292 334.687 118.383C335.86 118.474 337.038 118.328 338.154 117.955L398.743 96.2822C401.011 95.4156 402.854 93.7034 403.885 91.5056C404.916 89.3079 405.055 86.7959 404.272 84.498L387.992 34.7844C387.646 33.661 387.076 32.6189 386.318 31.7203C385.56 30.8217 384.629 30.085 383.58 29.5542C382.531 29.0233 381.386 28.7093 380.213 28.6307C379.04 28.5521 377.863 28.7106 376.753 29.0967ZM330.57 37.0436C329.327 33.3803 329.55 29.3782 331.193 25.8758C332.835 22.3733 335.769 19.6423 339.38 18.2549C341.163 17.6448 343.05 17.4001 344.93 17.5355C346.81 17.6709 348.643 18.1835 350.32 19.0428C351.997 19.9021 353.484 21.0904 354.692 22.5369C355.9 23.9834 356.805 25.6584 357.351 27.4619L359.849 35.1023L333.068 44.684L330.57 37.0436ZM364.628 81.1603L368.783 93.8527C368.86 94.1072 368.835 94.3813 368.714 94.6181C368.594 94.8549 368.387 95.0361 368.136 95.1242L362.312 97.2018C362.08 97.266 361.833 97.2381 361.621 97.1238C361.41 97.0095 361.25 96.8178 361.177 96.5887L356.988 83.9531C354.678 83.8273 352.462 82.9987 350.636 81.5785C348.81 80.1582 347.461 78.2141 346.77 76.0062C345.783 73.0873 345.963 69.8997 347.273 67.1106C348.583 64.3215 350.921 62.1474 353.798 61.0433C355.218 60.558 356.722 60.3636 358.219 60.4718C359.716 60.5799 361.176 60.9883 362.512 61.6727C363.848 62.3571 365.032 63.3034 365.994 64.4552C366.957 65.6071 367.678 66.9409 368.113 68.3772C368.844 70.6199 368.904 73.0271 368.287 75.3037C367.67 77.5803 366.403 79.6274 364.64 81.1944L364.628 81.1603Z" fill="#115766"/>
<path d="M370.644 31.049C370.644 31.2079 359.802 35.2835 346.315 40.1311C332.828 44.9788 321.827 48.8727 321.771 48.7592C321.714 48.6457 332.613 44.536 346.111 39.677C359.609 34.8181 370.588 30.9014 370.644 31.049Z" fill="#023A59"/>
<path d="M383.518 33.1387C383.568 33.2372 383.61 33.3397 383.643 33.4452C383.734 33.6722 383.836 33.9674 383.972 34.3307C384.268 35.1595 384.676 36.3061 385.187 37.7365L389.547 50.4289C391.363 55.8101 393.531 62.1903 395.938 69.2744C397.074 72.8278 398.413 76.5288 399.662 80.4228C400.33 82.4295 400.619 84.5431 400.513 86.6555C400.417 87.7541 400.105 88.8228 399.594 89.8002C399.048 90.7743 398.32 91.6339 397.448 92.3318C395.694 93.6121 393.747 94.6047 391.681 95.2722L385.834 97.3724L374.765 101.335L356.022 108.01L343.364 112.46L339.958 113.595L339.05 113.891C338.953 113.934 338.849 113.961 338.743 113.97C338.743 113.97 338.834 113.97 339.027 113.834L339.912 113.482L343.318 112.199L355.908 107.567L374.618 100.756L385.664 96.7594L391.511 94.6478C393.518 94.0075 395.409 93.0451 397.108 91.7983C397.918 91.1506 398.597 90.3527 399.106 89.4482C399.586 88.5443 399.876 87.5512 399.957 86.5306C400.062 84.4953 399.784 82.4583 399.14 80.525C397.914 76.6651 396.619 72.93 395.45 69.3766C393.089 62.2811 390.909 55.8782 389.183 50.497C387.458 45.1158 386.005 40.7904 385.006 37.7479C384.529 36.2607 384.165 35.1027 383.87 34.2626L383.598 33.3544C383.564 33.2856 383.537 33.2133 383.518 33.1387Z" fill="#023A59"/>
<path d="M351.55 17.4832C351.55 17.4832 350.948 17.188 349.836 16.7339C348.25 16.1246 346.573 15.7869 344.875 15.7349C342.358 15.6486 339.853 16.1216 337.541 17.1199C334.729 18.363 332.325 20.3737 330.604 22.9212C328.872 25.4614 327.943 28.4633 327.937 31.5379C327.96 34.0579 328.342 36.5617 329.072 38.9739C329.662 41.0401 330.275 42.6863 330.684 43.8329C330.925 44.4153 331.122 45.0149 331.274 45.6266C330.952 45.0821 330.682 44.5081 330.468 43.9124C330.003 42.7771 329.333 41.165 328.674 39.0875C327.866 36.6499 327.426 34.1054 327.369 31.5379C327.339 28.3471 328.29 25.2241 330.094 22.5919C331.874 19.9514 334.377 17.8786 337.303 16.6204C339.687 15.6166 342.27 15.1739 344.852 15.3262C346.587 15.4146 348.291 15.8186 349.881 16.5182C350.306 16.7144 350.716 16.9421 351.107 17.1994C351.269 17.2703 351.418 17.3661 351.55 17.4832Z" fill="#023A59"/>
<path d="M352.072 61.9065C352.253 61.7967 352.443 61.7018 352.64 61.6227C353.208 61.3662 353.796 61.1574 354.399 60.9983C355.356 60.7158 356.343 60.5482 357.34 60.4987C358.695 60.4259 360.051 60.6307 361.324 61.1004C364.231 62.1222 366.899 65.0852 368.215 69.0474C368.847 71.1736 368.847 73.4376 368.215 75.5638C367.515 77.8716 366.26 79.9725 364.56 81.6829L364.628 81.3764C366.138 85.5202 367.784 90.0159 369.487 94.7045L369.589 94.9883L369.305 95.0905L366.706 95.9533L361.029 97.8492L360.745 97.9401L360.655 97.6562C359.099 92.9562 357.396 88.5741 356.113 84.2714L356.363 84.4644C354.144 84.28 352.028 83.447 350.278 82.0689C348.695 80.8498 347.397 79.3001 346.475 77.5278C345.643 75.9562 345.228 74.197 345.272 72.4191C345.324 70.602 345.778 68.8191 346.6 67.1979C347.423 65.5767 348.593 64.1575 350.028 63.0418C350.619 62.5622 351.282 62.1791 351.992 61.9065C351.351 62.287 350.73 62.7 350.131 63.1439C348.554 64.4777 347.346 66.1937 346.623 68.1278C346.002 69.5862 345.711 71.164 345.772 72.7481C345.833 74.3321 346.243 75.8829 346.975 77.2894C347.882 78.9944 349.148 80.4818 350.687 81.6489C352.356 82.9587 354.373 83.7484 356.488 83.9194H356.681L356.738 84.0897C357.987 88.3129 359.701 92.7292 361.279 97.4519L360.904 97.2703L366.581 95.3743L369.169 94.5002L368.988 94.8862C367.296 90.1975 365.661 85.6905 364.163 81.5467V81.3764L364.299 81.2402C365.949 79.6007 367.18 77.5873 367.886 75.3708C368.488 73.3369 368.488 71.1721 367.886 69.1382C366.649 65.3237 364.094 62.4287 361.324 61.407C360.098 60.9341 358.789 60.714 357.476 60.7599C356.495 60.7823 355.52 60.9156 354.57 61.1572C352.878 61.5773 352.083 61.9632 352.072 61.9065Z" fill="#023A59"/>
<path d="M316.98 389.705L203.578 389.182C197.029 389.146 190.762 386.513 186.154 381.859C181.545 377.206 178.972 370.914 178.999 364.365L180.203 80.0815C180.216 76.837 180.869 73.6269 182.123 70.6347C183.378 67.6426 185.21 64.927 187.515 62.6433C189.82 60.3596 192.552 58.5526 195.556 57.3254C198.559 56.0983 201.775 55.4751 205.02 55.4915L318.411 56.0138C324.96 56.0468 331.228 58.6777 335.838 63.3287C340.449 67.9798 343.025 74.2705 343.001 80.8195L341.797 365.092C341.784 368.338 341.132 371.549 339.877 374.542C338.623 377.536 336.791 380.253 334.486 382.538C332.182 384.824 329.45 386.633 326.446 387.863C323.442 389.092 320.226 389.718 316.98 389.705Z" fill="#46B2C8"/>
<path d="M318.241 65.7886H296.262C295.545 65.8019 294.837 65.9564 294.18 66.2432C293.522 66.5299 292.928 66.9434 292.43 67.46C291.933 67.9766 291.542 68.5861 291.28 69.2539C291.018 69.9216 290.89 70.6343 290.903 71.3515V75.3363C290.917 76.0529 290.789 76.7651 290.527 77.4322C290.265 78.0992 289.874 78.708 289.376 79.2237C288.878 79.7394 288.283 80.1518 287.626 80.4373C286.969 80.7229 286.261 80.876 285.545 80.8878L242.7 80.6948C241.25 80.6561 239.875 80.0438 238.877 78.9923C237.879 77.9408 237.339 76.536 237.375 75.0865V71.1017C237.412 69.6542 236.873 68.2511 235.877 67.1999C234.881 66.1487 233.51 65.5351 232.062 65.4935H224.331L205.088 65.4027C200.511 65.3754 196.11 67.1629 192.848 70.3737C189.586 73.5846 187.729 77.9571 187.684 82.5339L186.549 360.017C186.539 362.288 186.975 364.538 187.835 366.64C188.694 368.742 189.959 370.654 191.557 372.267C193.155 373.88 195.055 375.162 197.149 376.041C199.243 376.919 201.489 377.377 203.76 377.387L316.924 377.909C319.196 377.92 321.448 377.483 323.551 376.623C325.654 375.763 327.567 374.497 329.181 372.898C330.795 371.299 332.078 369.397 332.957 367.302C333.837 365.207 334.294 362.959 334.305 360.687L335.44 83.2037C335.467 78.614 333.671 74.2013 330.446 70.9356C327.22 67.67 322.83 65.8187 318.241 65.7886Z" fill="white"/>
<path d="M303.017 340.889L218.871 340.525C217.996 340.525 217.292 339.572 217.304 338.414L217.395 316.401C217.395 315.265 218.11 314.289 218.984 314.289L303.131 314.675C303.615 314.759 304.048 315.026 304.34 315.422C304.632 315.817 304.76 316.31 304.697 316.798L304.618 338.788C304.618 339.958 303.891 340.9 303.017 340.889Z" fill="#115766"/>
<path d="M245.663 324.394C245.628 324.101 245.488 323.874 245.241 323.712C244.995 323.551 244.693 323.47 244.335 323.47C244.073 323.47 243.844 323.512 243.648 323.597C243.453 323.682 243.301 323.798 243.191 323.946C243.084 324.095 243.03 324.263 243.03 324.452C243.03 324.609 243.067 324.745 243.142 324.859C243.219 324.97 243.317 325.064 243.437 325.139C243.556 325.212 243.681 325.273 243.812 325.321C243.943 325.367 244.063 325.404 244.173 325.433L244.774 325.595C244.928 325.635 245.099 325.691 245.288 325.763C245.478 325.834 245.66 325.931 245.833 326.054C246.009 326.175 246.153 326.331 246.267 326.522C246.38 326.713 246.437 326.946 246.437 327.224C246.437 327.543 246.353 327.832 246.186 328.09C246.02 328.348 245.778 328.553 245.458 328.705C245.14 328.857 244.754 328.933 244.3 328.933C243.877 328.933 243.51 328.865 243.2 328.728C242.892 328.591 242.649 328.401 242.472 328.156C242.297 327.912 242.198 327.628 242.175 327.304H242.914C242.933 327.528 243.008 327.713 243.139 327.859C243.272 328.003 243.44 328.111 243.642 328.182C243.846 328.252 244.065 328.286 244.3 328.286C244.573 328.286 244.819 328.242 245.036 328.153C245.254 328.063 245.426 327.938 245.553 327.778C245.68 327.616 245.744 327.428 245.744 327.212C245.744 327.016 245.689 326.856 245.579 326.733C245.47 326.61 245.325 326.509 245.146 326.432C244.967 326.355 244.774 326.288 244.566 326.23L243.838 326.022C243.376 325.89 243.01 325.7 242.741 325.454C242.471 325.207 242.337 324.885 242.337 324.486C242.337 324.155 242.426 323.866 242.605 323.62C242.786 323.372 243.029 323.179 243.333 323.042C243.639 322.904 243.981 322.835 244.358 322.835C244.739 322.835 245.078 322.903 245.374 323.04C245.671 323.174 245.906 323.359 246.079 323.594C246.254 323.829 246.346 324.095 246.356 324.394H245.663ZM248.33 322.915V328.829H247.614V322.915H248.33ZM254.456 322.915V328.829H253.763L250.54 324.186H250.482V328.829H249.766V322.915H250.459L253.693 327.57H253.751V322.915H254.456ZM259.931 324.763C259.868 324.569 259.784 324.395 259.68 324.241C259.578 324.085 259.456 323.952 259.313 323.842C259.173 323.733 259.013 323.649 258.834 323.591C258.655 323.533 258.458 323.504 258.245 323.504C257.894 323.504 257.576 323.595 257.289 323.776C257.002 323.957 256.774 324.223 256.605 324.576C256.435 324.928 256.351 325.36 256.351 325.872C256.351 326.384 256.436 326.816 256.607 327.169C256.779 327.521 257.011 327.788 257.303 327.969C257.596 328.15 257.925 328.24 258.291 328.24C258.63 328.24 258.928 328.168 259.186 328.023C259.446 327.877 259.648 327.671 259.792 327.406C259.939 327.138 260.012 326.823 260.012 326.461L260.231 326.508H258.453V325.872H260.705V326.508C260.705 326.995 260.601 327.418 260.393 327.778C260.187 328.138 259.902 328.417 259.538 328.615C259.176 328.812 258.761 328.91 258.291 328.91C257.767 328.91 257.307 328.787 256.911 328.54C256.516 328.294 256.208 327.944 255.987 327.489C255.767 327.035 255.657 326.496 255.657 325.872C255.657 325.404 255.72 324.984 255.845 324.61C255.972 324.235 256.151 323.915 256.382 323.652C256.613 323.388 256.887 323.186 257.202 323.045C257.518 322.905 257.865 322.835 258.245 322.835C258.557 322.835 258.847 322.882 259.117 322.976C259.388 323.068 259.63 323.2 259.842 323.372C260.055 323.541 260.233 323.744 260.376 323.981C260.518 324.216 260.616 324.477 260.67 324.763H259.931ZM268.099 322.915H268.815V326.831C268.815 327.235 268.72 327.596 268.529 327.914C268.341 328.229 268.074 328.479 267.73 328.662C267.385 328.843 266.981 328.933 266.517 328.933C266.053 328.933 265.649 328.843 265.304 328.662C264.959 328.479 264.692 328.229 264.501 327.914C264.313 327.596 264.218 327.235 264.218 326.831V322.915H264.934V326.773C264.934 327.062 264.998 327.319 265.125 327.544C265.252 327.767 265.433 327.944 265.668 328.073C265.905 328.2 266.188 328.263 266.517 328.263C266.846 328.263 267.129 328.2 267.366 328.073C267.602 327.944 267.783 327.767 267.909 327.544C268.036 327.319 268.099 327.062 268.099 326.773V322.915ZM270.245 328.829V322.915H272.243C272.707 322.915 273.087 322.999 273.381 323.167C273.678 323.332 273.897 323.556 274.04 323.839C274.182 324.122 274.253 324.438 274.253 324.787C274.253 325.135 274.182 325.452 274.04 325.737C273.899 326.021 273.681 326.249 273.387 326.418C273.092 326.585 272.715 326.669 272.255 326.669H270.823V326.034H272.232C272.55 326.034 272.805 325.979 272.997 325.869C273.19 325.76 273.329 325.611 273.416 325.425C273.504 325.236 273.549 325.023 273.549 324.787C273.549 324.55 273.504 324.338 273.416 324.151C273.329 323.965 273.189 323.818 272.994 323.712C272.8 323.605 272.542 323.551 272.22 323.551H270.961V328.829H270.245Z" fill="#E8E8E3"/>
<path d="M235.654 147.358L206.455 147.226L206.431 152.584L235.63 152.717L235.654 147.358Z" fill="#115766"/>
<path opacity="0.1" d="M235.654 147.358L206.455 147.226L206.431 152.584L235.63 152.717L235.654 147.358Z" fill="black"/>
<path d="M321.249 180.258C321.479 180.234 321.704 180.181 321.919 180.099C322.233 179.976 322.507 179.767 322.707 179.496C322.908 179.225 323.028 178.902 323.054 178.566C323.054 176.761 323.054 174.127 323.054 170.744C323.054 169.052 323.054 167.157 323.054 165.068C323.054 164.557 323.054 164.023 323.054 163.49C323.128 162.972 323.016 162.445 322.737 162.002C322.58 161.79 322.377 161.617 322.142 161.497C321.908 161.377 321.649 161.313 321.386 161.31H319.615H303.21L208.256 160.958C208.012 160.954 207.772 161.008 207.555 161.117C207.337 161.226 207.149 161.385 207.007 161.582C206.733 162.026 206.628 162.554 206.712 163.07C206.712 164.205 206.712 165.34 206.712 166.475C206.712 168.746 206.712 171.016 206.712 173.287C206.712 174.422 206.712 175.558 206.712 176.693C206.664 177.222 206.664 177.753 206.712 178.282C206.771 178.509 206.882 178.719 207.036 178.896C207.189 179.073 207.381 179.213 207.597 179.304C207.821 179.393 208.06 179.435 208.301 179.429H214.079L239.294 179.565L281.98 179.826L310.759 180.053L318.581 180.144H320.614C321.079 180.144 321.306 180.144 321.306 180.144H320.614H318.581H310.759H281.98L239.294 180.008L214.079 179.906H208.301C207.983 179.919 207.666 179.864 207.37 179.747C207.071 179.619 206.805 179.425 206.593 179.179C206.38 178.933 206.227 178.642 206.144 178.328C206.078 178.03 206.055 177.724 206.076 177.419V176.579C206.076 175.444 206.076 174.309 206.076 173.173C206.076 170.903 206.076 168.632 206.076 166.362C206.076 165.227 206.076 164.091 206.076 162.956C206.054 162.654 206.054 162.35 206.076 162.048C206.118 161.714 206.248 161.397 206.45 161.128C206.646 160.854 206.906 160.632 207.206 160.479C207.506 160.327 207.839 160.25 208.176 160.254L303.13 160.776L319.535 160.89H321.306C321.618 160.89 321.925 160.966 322.202 161.11C322.479 161.254 322.717 161.463 322.895 161.719C323.216 162.212 323.345 162.805 323.259 163.387C323.259 163.921 323.259 164.455 323.259 164.965C323.259 167.032 323.259 168.928 323.259 170.642C323.259 174.048 323.179 176.659 323.157 178.475C323.129 178.824 323.002 179.159 322.791 179.438C322.58 179.718 322.293 179.931 321.965 180.053C321.75 180.186 321.502 180.257 321.249 180.258Z" fill="#E0E0E0"/>
<path d="M268.63 166.658H215.227V171.665H268.63V166.658Z" fill="#115766"/>
<path opacity="0.2" d="M268.63 166.658H215.227V171.665H268.63V166.658Z" fill="white"/>
<path d="M235.456 196.241L206.257 196.108L206.233 201.467L235.431 201.599L235.456 196.241Z" fill="#115766"/>
<path opacity="0.1" d="M235.456 196.241L206.257 196.108L206.233 201.467L235.431 201.599L235.456 196.241Z" fill="black"/>
<path d="M320.511 229.142C320.741 229.114 320.968 229.072 321.193 229.017C321.51 228.917 321.801 228.749 322.048 228.526C322.295 228.302 322.491 228.029 322.623 227.723C322.802 227.265 322.872 226.771 322.827 226.281C322.827 225.736 322.827 225.146 322.827 224.488C322.827 223.171 322.827 221.672 322.827 219.947V212.738C322.882 212.216 322.766 211.69 322.498 211.239C322.218 210.776 321.778 210.433 321.261 210.274C320.695 210.173 320.119 210.143 319.546 210.183H303.21L208.585 209.831C208.076 209.833 207.585 210.018 207.203 210.355C206.82 210.691 206.573 211.154 206.507 211.659C206.507 212.738 206.507 213.93 206.507 215.065C206.507 217.335 206.507 219.606 206.507 221.877C206.507 223.012 206.507 224.147 206.507 225.282C206.465 225.813 206.488 226.347 206.575 226.872C206.717 227.332 207.009 227.732 207.404 228.007C207.824 228.273 208.316 228.4 208.812 228.37H210.39H213.671L238.794 228.495L281.333 228.756L310.01 228.983L317.81 229.074H319.842H320.523H319.842H317.81H310.01H281.333L238.772 229.029L213.648 228.938H208.71C208.096 228.974 207.486 228.811 206.973 228.472C206.456 228.115 206.079 227.589 205.906 226.985C205.804 226.408 205.773 225.821 205.815 225.237C205.815 224.102 205.815 222.966 205.815 221.831C205.815 219.561 205.815 217.29 205.815 215.019C205.815 213.884 205.815 212.749 205.815 211.614C205.898 210.965 206.214 210.368 206.705 209.935C207.196 209.503 207.828 209.264 208.483 209.264L303.108 209.786L319.444 209.911C320.053 209.873 320.663 209.915 321.261 210.036C321.851 210.228 322.348 210.633 322.657 211.171C322.951 211.671 323.078 212.251 323.02 212.828C323.02 213.362 323.02 213.884 323.02 214.406C323.02 216.461 323.02 218.346 323.02 220.083C323.02 221.82 323.02 223.284 323.02 224.624C323.02 225.271 323.02 225.873 323.02 226.429C323.062 226.937 322.98 227.447 322.782 227.916C322.635 228.229 322.421 228.507 322.157 228.731C321.892 228.954 321.583 229.118 321.249 229.21C321.001 229.231 320.752 229.208 320.511 229.142Z" fill="#E0E0E0"/>
<path d="M235.235 247.249L206.036 247.116L206.012 252.475L235.211 252.607L235.235 247.249Z" fill="#115766"/>
<path opacity="0.1" d="M235.235 247.249L206.036 247.116L206.012 252.475L235.211 252.607L235.235 247.249Z" fill="black"/>
<path d="M320.284 280.128C320.514 280.101 320.741 280.059 320.965 280.003C321.281 279.903 321.572 279.736 321.819 279.515C322.065 279.294 322.262 279.023 322.396 278.72C322.574 278.262 322.644 277.768 322.6 277.278C322.6 276.722 322.6 276.143 322.6 275.473C322.6 274.168 322.6 272.658 322.6 270.932V263.723C322.654 263.201 322.539 262.676 322.271 262.225C321.984 261.77 321.546 261.432 321.034 261.271C320.469 261.166 319.893 261.132 319.319 261.169H302.983L208.358 260.817C207.849 260.818 207.357 261.004 206.975 261.34C206.593 261.676 206.346 262.14 206.28 262.645C206.28 263.78 206.28 264.915 206.28 266.05C206.28 268.321 206.28 270.591 206.28 272.862C206.28 273.997 206.28 275.133 206.28 276.268C206.238 276.795 206.261 277.325 206.348 277.846C206.484 278.309 206.777 278.711 207.177 278.981C207.594 279.253 208.088 279.381 208.585 279.344H213.523L238.647 279.481L281.185 279.742L309.862 279.969L317.662 280.06H319.694C320.148 280.06 320.375 280.06 320.375 280.06C320.375 280.06 320.148 280.06 319.694 280.06H317.662H309.862H281.185L238.647 279.935L213.523 279.833H208.585C207.97 279.874 207.359 279.71 206.848 279.367C206.331 279.009 205.954 278.484 205.781 277.88C205.679 277.303 205.648 276.716 205.69 276.132C205.69 274.996 205.69 273.861 205.69 272.726C205.69 270.455 205.69 268.185 205.69 265.914C205.69 264.779 205.69 263.644 205.69 262.452C205.77 261.803 206.084 261.207 206.574 260.774C207.063 260.341 207.693 260.102 208.346 260.102L302.971 260.624L319.308 260.749C319.916 260.711 320.527 260.753 321.124 260.874C321.714 261.066 322.212 261.471 322.521 262.009C322.814 262.509 322.942 263.089 322.884 263.666C322.884 264.2 322.884 264.733 322.884 265.244C322.884 267.299 322.884 269.184 322.884 270.921C322.884 272.658 322.884 274.122 322.884 275.462C322.884 276.109 322.884 276.711 322.884 277.267C322.928 277.775 322.846 278.285 322.646 278.754C322.498 279.067 322.285 279.345 322.021 279.568C321.756 279.792 321.447 279.956 321.113 280.048C320.847 280.139 320.563 280.167 320.284 280.128Z" fill="#E0E0E0"/>
<path d="M267.489 216.958L214.086 216.716L214.063 221.722L267.466 221.965L267.489 216.958Z" fill="#115766"/>
<path opacity="0.2" d="M267.489 216.958L214.086 216.716L214.063 221.722L267.466 221.965L267.489 216.958Z" fill="white"/>
<path d="M218.915 270.864C218.882 271.321 218.715 271.758 218.435 272.12C218.156 272.483 217.776 272.756 217.343 272.905C216.91 273.054 216.443 273.072 216 272.958C215.556 272.844 215.156 272.602 214.849 272.262C214.542 271.923 214.341 271.501 214.271 271.048C214.202 270.596 214.267 270.132 214.458 269.716C214.649 269.3 214.958 268.95 215.347 268.708C215.736 268.466 216.187 268.343 216.645 268.355C217.277 268.391 217.87 268.674 218.295 269.143C218.72 269.613 218.943 270.231 218.915 270.864Z" fill="#115766"/>
<path d="M226.148 270.899C226.171 271.219 226.127 271.54 226.02 271.843C225.913 272.145 225.744 272.422 225.526 272.657C225.307 272.892 225.042 273.079 224.748 273.207C224.453 273.334 224.136 273.4 223.815 273.4C223.494 273.4 223.177 273.334 222.883 273.207C222.589 273.079 222.324 272.892 222.105 272.657C221.886 272.422 221.718 272.145 221.611 271.843C221.504 271.54 221.46 271.219 221.482 270.899C221.46 270.579 221.504 270.258 221.611 269.955C221.718 269.653 221.886 269.376 222.105 269.141C222.324 268.906 222.589 268.719 222.883 268.591C223.177 268.463 223.494 268.397 223.815 268.397C224.136 268.397 224.453 268.463 224.748 268.591C225.042 268.719 225.307 268.906 225.526 269.141C225.744 269.376 225.913 269.653 226.02 269.955C226.127 270.258 226.171 270.579 226.148 270.899Z" fill="#115766"/>
<path d="M233.391 270.933C233.357 271.389 233.19 271.826 232.911 272.189C232.632 272.552 232.252 272.824 231.819 272.973C231.386 273.122 230.919 273.14 230.475 273.026C230.032 272.912 229.632 272.67 229.324 272.331C229.017 271.991 228.816 271.569 228.747 271.116C228.677 270.664 228.742 270.201 228.933 269.785C229.125 269.369 229.434 269.018 229.823 268.776C230.211 268.534 230.663 268.412 231.12 268.424C231.752 268.462 232.343 268.746 232.767 269.215C233.192 269.684 233.416 270.301 233.391 270.933Z" fill="#115766"/>
<path d="M240.622 270.967C240.589 271.423 240.422 271.86 240.142 272.223C239.863 272.586 239.483 272.858 239.05 273.007C238.617 273.156 238.15 273.175 237.707 273.06C237.263 272.946 236.863 272.704 236.556 272.365C236.249 272.025 236.048 271.603 235.978 271.151C235.909 270.698 235.974 270.235 236.165 269.819C236.356 269.403 236.665 269.052 237.054 268.81C237.443 268.568 237.894 268.446 238.352 268.458C238.983 268.496 239.574 268.78 239.999 269.249C240.423 269.718 240.647 270.335 240.622 270.967Z" fill="#115766"/>
<path d="M247.854 270.99C247.823 271.447 247.658 271.885 247.38 272.249C247.102 272.614 246.722 272.888 246.29 273.039C245.857 273.189 245.389 273.209 244.945 273.096C244.5 272.983 244.099 272.742 243.791 272.403C243.482 272.064 243.281 271.642 243.21 271.189C243.14 270.736 243.204 270.272 243.395 269.855C243.586 269.439 243.896 269.087 244.285 268.845C244.674 268.602 245.126 268.48 245.584 268.492C246.213 268.53 246.803 268.813 247.227 269.279C247.651 269.746 247.876 270.36 247.854 270.99Z" fill="#115766"/>
<path d="M255.097 271.023C255.066 271.478 254.902 271.914 254.627 272.277C254.351 272.641 253.975 272.916 253.546 273.068C253.116 273.221 252.651 273.244 252.208 273.136C251.765 273.028 251.363 272.792 251.052 272.458C250.742 272.125 250.535 271.708 250.458 271.258C250.381 270.809 250.438 270.346 250.62 269.928C250.803 269.51 251.103 269.155 251.485 268.906C251.867 268.656 252.313 268.524 252.769 268.525C253.409 268.549 254.013 268.825 254.449 269.293C254.885 269.762 255.118 270.383 255.097 271.023Z" fill="#115766"/>
<path d="M262.329 271.057C262.351 271.377 262.307 271.698 262.2 272.001C262.093 272.303 261.925 272.58 261.706 272.815C261.487 273.05 261.223 273.237 260.928 273.365C260.634 273.493 260.317 273.559 259.996 273.559C259.675 273.559 259.358 273.493 259.063 273.365C258.769 273.237 258.504 273.05 258.286 272.815C258.067 272.58 257.899 272.303 257.791 272.001C257.684 271.698 257.641 271.377 257.663 271.057C257.641 270.737 257.684 270.416 257.791 270.113C257.899 269.811 258.067 269.534 258.286 269.299C258.504 269.065 258.769 268.878 259.063 268.75C259.358 268.622 259.675 268.556 259.996 268.556C260.317 268.556 260.634 268.622 260.928 268.75C261.223 268.878 261.487 269.065 261.706 269.299C261.925 269.534 262.093 269.811 262.2 270.113C262.307 270.416 262.351 270.737 262.329 271.057Z" fill="#115766"/>
<path d="M269.561 271.091C269.53 271.546 269.366 271.982 269.091 272.346C268.815 272.709 268.439 272.984 268.01 273.136C267.58 273.289 267.115 273.312 266.672 273.204C266.229 273.096 265.827 272.86 265.516 272.527C265.205 272.193 264.999 271.776 264.922 271.326C264.845 270.877 264.902 270.415 265.084 269.997C265.266 269.579 265.567 269.223 265.949 268.974C266.331 268.725 266.777 268.593 267.233 268.594C267.873 268.617 268.477 268.894 268.913 269.362C269.349 269.83 269.582 270.452 269.561 271.091Z" fill="#115766"/>
<path d="M276.793 271.125C276.762 271.583 276.597 272.021 276.318 272.385C276.04 272.749 275.661 273.024 275.228 273.174C274.795 273.325 274.327 273.345 273.883 273.232C273.439 273.119 273.038 272.878 272.729 272.539C272.421 272.2 272.219 271.777 272.149 271.324C272.078 270.871 272.143 270.408 272.334 269.991C272.525 269.574 272.834 269.223 273.223 268.981C273.612 268.738 274.064 268.616 274.522 268.628C275.152 268.666 275.741 268.948 276.166 269.415C276.59 269.881 276.815 270.495 276.793 271.125Z" fill="#115766"/>
<g opacity="0.2">
<path d="M218.914 270.865C218.881 271.322 218.714 271.759 218.434 272.121C218.155 272.484 217.775 272.757 217.342 272.906C216.909 273.055 216.442 273.073 215.999 272.959C215.555 272.845 215.155 272.603 214.848 272.263C214.541 271.924 214.34 271.502 214.27 271.049C214.201 270.596 214.266 270.133 214.457 269.717C214.648 269.301 214.957 268.951 215.346 268.709C215.735 268.467 216.186 268.344 216.644 268.356C217.276 268.392 217.869 268.675 218.294 269.144C218.719 269.614 218.942 270.232 218.914 270.865Z" fill="white"/>
<path d="M226.146 270.899C226.169 271.219 226.125 271.54 226.018 271.843C225.911 272.145 225.742 272.422 225.524 272.657C225.305 272.892 225.04 273.079 224.746 273.207C224.452 273.334 224.134 273.4 223.813 273.4C223.492 273.4 223.175 273.334 222.881 273.207C222.587 273.079 222.322 272.892 222.103 272.657C221.884 272.422 221.716 272.145 221.609 271.843C221.502 271.54 221.458 271.219 221.48 270.899C221.458 270.579 221.502 270.258 221.609 269.955C221.716 269.653 221.884 269.376 222.103 269.141C222.322 268.906 222.587 268.719 222.881 268.591C223.175 268.463 223.492 268.397 223.813 268.397C224.134 268.397 224.452 268.463 224.746 268.591C225.04 268.719 225.305 268.906 225.524 269.141C225.742 269.376 225.911 269.653 226.018 269.955C226.125 270.258 226.169 270.579 226.146 270.899Z" fill="white"/>
<path d="M233.39 270.934C233.356 271.39 233.189 271.827 232.91 272.19C232.631 272.553 232.251 272.825 231.818 272.974C231.385 273.123 230.918 273.141 230.474 273.027C230.031 272.913 229.631 272.671 229.323 272.332C229.016 271.992 228.815 271.57 228.746 271.117C228.676 270.665 228.741 270.202 228.932 269.786C229.124 269.37 229.433 269.019 229.822 268.777C230.21 268.535 230.662 268.413 231.119 268.425C231.751 268.463 232.342 268.747 232.766 269.216C233.191 269.685 233.415 270.302 233.39 270.934Z" fill="white"/>
<path d="M240.621 270.968C240.588 271.424 240.421 271.861 240.141 272.224C239.862 272.587 239.482 272.859 239.049 273.008C238.616 273.157 238.149 273.176 237.706 273.061C237.262 272.947 236.862 272.705 236.555 272.366C236.248 272.026 236.047 271.604 235.977 271.152C235.908 270.699 235.973 270.236 236.164 269.82C236.355 269.404 236.664 269.053 237.053 268.811C237.442 268.569 237.893 268.447 238.351 268.459C238.982 268.497 239.573 268.781 239.998 269.25C240.422 269.719 240.646 270.336 240.621 270.968Z" fill="white"/>
<path d="M247.853 270.99C247.821 271.447 247.656 271.885 247.378 272.249C247.1 272.614 246.721 272.888 246.288 273.039C245.855 273.189 245.387 273.209 244.943 273.096C244.498 272.983 244.097 272.742 243.789 272.403C243.48 272.064 243.279 271.642 243.208 271.189C243.138 270.736 243.202 270.272 243.393 269.855C243.585 269.439 243.894 269.087 244.283 268.845C244.672 268.602 245.124 268.48 245.582 268.492C246.211 268.53 246.801 268.813 247.225 269.279C247.649 269.746 247.874 270.36 247.853 270.99Z" fill="white"/>
<path d="M255.096 271.024C255.065 271.479 254.901 271.915 254.626 272.278C254.35 272.642 253.974 272.916 253.545 273.069C253.115 273.222 252.65 273.245 252.207 273.137C251.764 273.028 251.362 272.793 251.052 272.459C250.741 272.126 250.534 271.709 250.457 271.259C250.38 270.809 250.437 270.347 250.619 269.929C250.802 269.511 251.102 269.156 251.484 268.907C251.866 268.657 252.312 268.525 252.768 268.526C253.408 268.55 254.012 268.826 254.448 269.294C254.884 269.763 255.117 270.384 255.096 271.024Z" fill="white"/>
<path d="M262.327 271.058C262.349 271.378 262.305 271.699 262.198 272.002C262.091 272.304 261.923 272.581 261.704 272.816C261.485 273.051 261.221 273.238 260.926 273.366C260.632 273.494 260.315 273.56 259.994 273.56C259.673 273.56 259.356 273.494 259.061 273.366C258.767 273.238 258.502 273.051 258.284 272.816C258.065 272.581 257.897 272.304 257.789 272.002C257.682 271.699 257.639 271.378 257.661 271.058C257.639 270.738 257.682 270.417 257.789 270.114C257.897 269.812 258.065 269.535 258.284 269.3C258.502 269.066 258.767 268.879 259.061 268.751C259.356 268.623 259.673 268.557 259.994 268.557C260.315 268.557 260.632 268.623 260.926 268.751C261.221 268.879 261.485 269.066 261.704 269.3C261.923 269.535 262.091 269.812 262.198 270.114C262.305 270.417 262.349 270.738 262.327 271.058Z" fill="white"/>
<path d="M269.559 271.092C269.528 271.547 269.364 271.983 269.089 272.347C268.813 272.71 268.437 272.985 268.008 273.137C267.578 273.29 267.113 273.313 266.67 273.205C266.227 273.097 265.825 272.861 265.514 272.528C265.204 272.194 264.997 271.777 264.92 271.327C264.843 270.878 264.9 270.416 265.082 269.998C265.264 269.58 265.565 269.224 265.947 268.975C266.329 268.726 266.775 268.594 267.231 268.595C267.871 268.618 268.475 268.895 268.911 269.363C269.347 269.831 269.58 270.453 269.559 271.092Z" fill="white"/>
<path d="M276.791 271.126C276.76 271.584 276.595 272.022 276.316 272.386C276.038 272.75 275.659 273.025 275.226 273.175C274.793 273.326 274.325 273.346 273.881 273.233C273.437 273.12 273.036 272.879 272.727 272.54C272.419 272.201 272.217 271.778 272.147 271.325C272.077 270.872 272.141 270.409 272.332 269.992C272.523 269.575 272.832 269.224 273.221 268.981C273.61 268.739 274.062 268.616 274.52 268.629C275.15 268.667 275.739 268.949 276.164 269.416C276.588 269.882 276.813 270.496 276.791 271.126Z" fill="white"/>
</g>
<path d="M266.518 107.238C267.307 106.891 267.976 106.319 268.442 105.595C268.908 104.87 269.151 104.024 269.141 103.162C269.17 102.602 269.085 102.042 268.891 101.516C268.697 100.99 268.398 100.508 268.011 100.101C267.625 99.6945 267.16 99.3705 266.645 99.1491C266.13 98.9277 265.575 98.8135 265.014 98.8135C264.453 98.8135 263.898 98.9277 263.382 99.1491C262.867 99.3705 262.402 99.6945 262.016 100.101C261.63 100.508 261.331 100.99 261.137 101.516C260.943 102.042 260.858 102.602 260.887 103.162C260.87 104.033 261.111 104.889 261.579 105.622C262.048 106.356 262.724 106.934 263.521 107.283C257.163 108.237 257.447 115.14 257.447 115.14L272.478 115.208C272.478 115.208 272.83 108.18 266.518 107.238Z" fill="#115766"/>
<path opacity="0.1" d="M266.518 107.238C267.307 106.891 267.976 106.319 268.442 105.595C268.908 104.87 269.151 104.024 269.141 103.162C269.17 102.602 269.085 102.042 268.891 101.516C268.697 100.99 268.398 100.508 268.011 100.101C267.625 99.6945 267.16 99.3705 266.645 99.1491C266.13 98.9277 265.575 98.8135 265.014 98.8135C264.453 98.8135 263.898 98.9277 263.382 99.1491C262.867 99.3705 262.402 99.6945 262.016 100.101C261.63 100.508 261.331 100.99 261.137 101.516C260.943 102.042 260.858 102.602 260.887 103.162C260.87 104.033 261.111 104.889 261.579 105.622C262.048 106.356 262.724 106.934 263.521 107.283C257.163 108.237 257.447 115.14 257.447 115.14L272.478 115.208C272.478 115.208 272.83 108.18 266.518 107.238Z" fill="black"/>
<path d="M290.942 119.659L237.369 119.416L237.34 125.819L290.913 126.062L290.942 119.659Z" fill="#115766"/>
<path opacity="0.2" d="M290.942 119.659L237.369 119.416L237.34 125.819L290.913 126.062L290.942 119.659Z" fill="white"/>
<path d="M93.9873 152.842H93.4537L91.9097 152.955C91.0742 153.006 90.2433 153.116 89.4235 153.285C88.8925 153.359 88.3657 153.462 87.8454 153.591L86.0858 154.079C83.0907 154.998 80.2649 156.398 77.7188 158.223C74.3548 160.665 71.5459 163.791 69.4767 167.396C68.2605 169.474 67.2927 171.688 66.5931 173.992C65.858 176.496 65.4348 179.081 65.333 181.689C65.2653 183.059 65.2881 184.432 65.4011 185.799C65.4011 186.491 65.5941 187.184 65.6849 187.888C65.7613 188.597 65.8942 189.3 66.0822 189.988C67.1031 194.544 69.1745 198.798 72.1311 202.411C75.0877 206.024 78.8478 208.896 83.1113 210.798C86.1971 212.129 89.5046 212.872 92.8633 212.989C96.3324 213.179 99.805 212.682 103.081 211.524L104.08 211.15H104.216L104.33 211.218L118.645 218.483L118.225 218.847C116.693 214.101 115.217 209.503 113.786 205.087V204.917L113.911 204.792C117.384 201.294 119.962 197.01 121.427 192.304C122.753 188.001 123.141 183.464 122.562 178.999C122.048 175.03 120.772 171.199 118.804 167.714C117.109 164.721 114.921 162.034 112.333 159.767C110.198 157.973 107.835 156.469 105.306 155.294C103.392 154.469 101.399 153.841 99.3571 153.421L97.0866 153.046L95.4404 152.921L94.4414 152.853H94.1008C94.214 152.841 94.3282 152.841 94.4414 152.853H95.4518L97.0979 152.921L99.3685 153.251C101.435 153.64 103.456 154.245 105.397 155.056C107.97 156.216 110.375 157.717 112.549 159.517C115.184 161.774 117.418 164.461 119.156 167.464C121.179 170.986 122.494 174.87 123.028 178.896C123.654 183.431 123.294 188.047 121.972 192.429C120.498 197.233 117.88 201.608 114.343 205.178L114.411 204.883C115.841 209.299 117.328 213.897 118.872 218.631L119.088 219.324L118.441 218.994L104.125 211.74H104.375L103.353 212.115C100.014 213.289 96.4776 213.799 92.9428 213.613C89.5117 213.482 86.135 212.712 82.9865 211.343C76.9805 208.77 71.9836 204.3 68.7615 198.616C67.2787 195.991 66.1959 193.16 65.5487 190.215C65.3714 189.509 65.2387 188.792 65.1513 188.069C65.0605 187.354 64.9129 186.65 64.8789 185.946C64.5716 181.907 64.9985 177.845 66.139 173.958C66.856 171.622 67.8508 169.381 69.1021 167.283C71.2206 163.645 74.0881 160.499 77.5144 158.053C80.1025 156.223 82.9757 154.834 86.0176 153.943L87.8 153.489C88.3246 153.367 88.8551 153.273 89.3894 153.205C90.2177 153.052 91.0564 152.961 91.8984 152.933L93.4537 152.876C93.6305 152.852 93.8088 152.841 93.9873 152.842Z" fill="#115766"/>
<path d="M100.457 179.316H98.3572L93.8161 172.936V168.747C93.8161 168.747 90.5692 168.543 90.9552 174.026C91.3412 179.509 90.9552 178.113 90.9552 178.113C90.9552 178.113 84.0641 178.113 83.4965 178.737C82.9288 179.362 82.8948 186.015 82.8153 189.727C82.7718 190.622 83.0286 191.506 83.5449 192.238C84.0611 192.97 84.8073 193.509 85.6648 193.768C85.9052 193.835 86.1533 193.869 86.4028 193.871C88.1284 193.871 96.904 192.474 96.904 192.474H100.526L100.457 179.316Z" fill="#115766"/>
<path d="M106.464 178.191L105.169 192.541H101.582V178.487L106.464 178.191Z" fill="#115766"/>
<path d="M149.255 470.33V460.624L131.852 460.499L131.704 475.178L132.783 475.258C137.585 475.564 157.214 476.018 160.438 475.019C164.025 473.907 149.255 470.33 149.255 470.33Z" fill="#115766"/>
<path d="M160.846 474.112C160.846 474.271 154.33 474.407 146.304 474.407C138.277 474.407 131.761 474.271 131.761 474.112C131.761 473.953 138.277 473.816 146.304 473.816C154.33 473.816 160.846 473.953 160.846 474.112Z" fill="#023A59"/>
<path d="M149.562 472.317C149.414 472.238 149.562 471.727 149.914 471.182C150.266 470.637 150.742 470.41 150.856 470.524C150.969 470.637 150.731 471.069 150.39 471.534C150.05 471.999 149.709 472.397 149.562 472.317Z" fill="#023A59"/>
<path d="M150.675 472.954C150.516 472.954 150.596 472.318 150.936 471.716C151.277 471.114 151.731 470.751 151.856 470.842C151.981 470.933 151.777 471.444 151.459 471.977C151.141 472.511 150.823 473.01 150.675 472.954Z" fill="#023A59"/>
<path d="M137.006 474.067C136.938 474.067 136.676 473.862 136.302 473.431C135.844 472.876 135.335 472.367 134.781 471.91C134.235 471.474 133.586 471.188 132.896 471.081C132.362 471.013 132.022 471.081 131.988 471.013C131.954 470.945 132.283 470.706 132.907 470.661C133.731 470.644 134.535 470.917 135.178 471.433C135.78 471.924 136.288 472.52 136.676 473.193C136.938 473.692 137.074 474.021 137.006 474.067Z" fill="#023A59"/>
<path d="M149.619 470.49C149.698 470.626 149.403 470.967 148.904 471.148C148.404 471.33 147.961 471.262 147.939 471.148C147.916 471.035 148.268 470.796 148.699 470.637C149.131 470.479 149.528 470.354 149.619 470.49Z" fill="#023A59"/>
<path d="M149.347 469.548C149.347 469.718 148.893 469.855 148.302 469.866C147.712 469.877 147.247 469.741 147.258 469.582C147.269 469.423 147.735 469.276 148.302 469.264C148.87 469.253 149.324 469.389 149.347 469.548Z" fill="#023A59"/>
<path d="M192.113 470.33V460.624L174.709 460.499L174.562 475.031L175.64 475.11C180.442 475.417 200.082 476.018 203.295 475.019C206.883 473.907 192.113 470.33 192.113 470.33Z" fill="#115766"/>
<path d="M203.704 474.134C203.704 474.293 197.199 474.429 189.161 474.429C181.124 474.429 174.63 474.293 174.63 474.134C174.63 473.975 181.135 473.839 189.161 473.839C197.188 473.839 203.704 473.975 203.704 474.134Z" fill="#023A59"/>
<path d="M192.418 472.317C192.282 472.238 192.418 471.727 192.77 471.182C193.122 470.637 193.599 470.41 193.712 470.524C193.826 470.637 193.588 471.069 193.247 471.534C192.906 471.999 192.566 472.397 192.418 472.317Z" fill="#023A59"/>
<path d="M193.531 472.954C193.384 472.954 193.452 472.318 193.804 471.716C194.156 471.114 194.598 470.751 194.723 470.842C194.848 470.933 194.632 471.444 194.315 471.977C193.997 472.511 193.69 473.01 193.531 472.954Z" fill="#023A59"/>
<path d="M179.862 474.067C179.794 474.067 179.544 473.862 179.158 473.431C178.701 472.876 178.191 472.367 177.637 471.91C177.092 471.474 176.442 471.188 175.752 471.081C175.23 471.013 174.878 471.081 174.844 471.013C174.81 470.945 175.139 470.706 175.764 470.661C176.588 470.644 177.392 470.917 178.034 471.433C178.64 471.921 179.148 472.517 179.533 473.193C179.794 473.692 179.93 474.021 179.862 474.067Z" fill="#023A59"/>
<path d="M192.476 470.49C192.556 470.626 192.26 470.967 191.761 471.148C191.261 471.33 190.819 471.262 190.796 471.148C190.773 471.035 191.125 470.796 191.557 470.637C191.988 470.479 192.385 470.354 192.476 470.49Z" fill="#023A59"/>
<path d="M192.226 469.548C192.226 469.718 191.772 469.855 191.182 469.866C190.591 469.877 190.137 469.741 190.149 469.582C190.16 469.423 190.614 469.276 191.182 469.264C191.749 469.253 192.226 469.389 192.226 469.548Z" fill="#023A59"/>
<path d="M256.233 182.085C255.779 181.619 254.655 181.846 254.655 181.846C254.767 181.193 254.767 180.525 254.655 179.871C254.45 179.235 253.02 179.36 253.02 179.36C252.954 178.825 252.954 178.283 253.02 177.748C253.031 177.629 253.006 177.51 252.947 177.406C252.888 177.303 252.799 177.22 252.691 177.169C252.014 176.893 251.287 176.762 250.556 176.783C249.682 176.159 253.224 171.197 254.541 169.608C255.858 168.019 255.62 166.781 254.45 166.781C253.644 166.781 249.512 171.549 248.24 173.15C246.969 174.751 243.597 179.201 243.484 175.648C243.37 172.094 241.94 169.415 241.043 168.961C240.146 168.507 239.192 169.574 239.68 170.562C240.109 171.684 240.377 172.861 240.475 174.058C240.598 175.012 240.556 175.98 240.35 176.919C239.974 178.667 239.461 180.383 238.818 182.051H238.727C238.727 182.051 213.955 205.812 212.161 207.504C210.561 209.025 178.364 205.698 171.905 205.017C169.71 204.696 167.493 204.544 165.275 204.563C162.471 204.688 161.971 205.085 159.178 205.119C152.125 205.198 145.089 205.816 138.13 206.97C134.979 207.506 132.036 208.896 129.622 210.99C127.208 213.085 125.415 215.801 124.439 218.845C117.934 239.166 103.198 287.268 100.598 314.287C98.6336 317.85 96.8601 321.514 95.285 325.265C93.4573 330.238 93.9 330.408 94.5131 330.522C96.1706 330.828 98.0551 321.905 98.759 324.062C99.4629 326.219 95.1829 334.7 96.9198 334.949C99.1904 335.267 100.995 325.867 101.211 325.118C101.427 324.369 102.551 324.607 102.346 325.311C102.017 326.31 98.8271 336.902 101.052 337.243C102.278 337.424 102.415 335.188 102.415 335.188C102.415 335.188 104.685 325.05 105.718 325.254C106.751 325.458 105.65 331.441 105.128 333.439C104.606 335.437 105.332 336.448 106.399 335.96C107.126 335.619 108.863 329.545 109.34 327.57C109.817 325.595 111.009 320.123 112.609 323.29C114.21 326.457 116.64 328.297 117.639 328.342C117.864 328.316 118.076 328.223 118.248 328.076C118.42 327.928 118.544 327.733 118.604 327.514C118.663 327.295 118.656 327.064 118.584 326.849C118.511 326.635 118.375 326.447 118.195 326.31C117.336 325.471 116.598 324.515 116.004 323.472C115.474 322.659 115.09 321.76 114.869 320.815C114.411 318.932 114.145 317.007 114.074 315.071L113.892 313.935C116.435 301.345 123.758 264.392 134.327 240.79L138.664 249.713L140.548 256.32L128.991 284.85L178.285 284.203L170.928 255.889L179.863 226.372C189.524 226.587 214.33 226.951 218.462 225.078C223.662 222.807 250.556 188.84 250.556 188.84C252.31 187.477 253.988 186.022 255.586 184.48C255.586 184.48 257.22 183.106 256.233 182.085Z" fill="#FFBE9D"/>
<path d="M126.823 263.768C128.253 258.886 135.598 234.75 135.598 234.75C135.598 234.75 139.208 254.424 138.255 256.797C137.378 258.828 136.341 260.787 135.155 262.655C126.823 275.336 127.912 281.682 127.912 281.682L178.262 280.15C178.375 273.111 174.209 256.74 173.346 254.129C172.483 251.518 175.355 242.97 175.355 242.97C175.355 242.97 181.032 237.191 180.827 234.217C180.72 231.545 180.389 228.887 179.84 226.27L210.492 227.405L209.527 206.629L165.501 202.225C163.969 206.55 150.107 204.427 150.107 204.427C135.144 204.927 134.213 207.674 127.992 212.51C121.771 217.346 111.474 258.852 111.474 258.852L126.823 263.768Z" fill="#115766"/>
<path d="M156.589 258.853C155.717 259.009 154.828 259.055 153.944 258.989C152.298 258.989 150.039 258.876 147.553 258.626C145.066 258.376 142.818 258.024 141.218 257.706C140.335 257.593 139.47 257.372 138.641 257.048C139.528 257.048 140.414 257.132 141.286 257.298C142.898 257.502 145.134 257.786 147.609 258.036C150.084 258.285 152.332 258.456 153.955 258.569C154.84 258.58 155.722 258.675 156.589 258.853Z" fill="#023A59"/>
<path d="M160.041 254.573C159.168 255.001 158.245 255.317 157.293 255.516C152.764 256.706 148.091 257.26 143.409 257.162C142.44 257.193 141.471 257.102 140.525 256.889C141.482 256.768 142.445 256.719 143.409 256.742C145.191 256.685 147.644 256.56 150.345 256.242C153.047 255.924 155.454 255.47 157.157 255.107C158.103 254.854 159.067 254.676 160.041 254.573Z" fill="#023A59"/>
<path d="M176.979 235.478C176.956 236.343 176.838 237.203 176.627 238.043C176.332 239.621 175.878 241.778 175.299 244.14C174.72 246.501 174.163 248.681 173.664 250.157C173.463 251.001 173.166 251.82 172.778 252.597C172.842 251.735 173.002 250.882 173.255 250.054C173.687 248.283 174.175 246.24 174.72 244.003C175.265 241.767 175.787 239.723 176.218 237.952C176.372 237.1 176.627 236.269 176.979 235.478Z" fill="#023A59"/>
<path d="M127.357 260.873C124.731 260.467 122.139 259.864 119.603 259.068C117.013 258.462 114.47 257.665 111.997 256.684C114.622 257.096 117.214 257.699 119.751 258.489C122.342 259.092 124.885 259.889 127.357 260.873Z" fill="#023A59"/>
<path d="M180.385 226.021C179.957 226.094 179.519 226.094 179.091 226.021C177.905 225.899 176.741 225.62 175.629 225.192C173.771 224.494 172.081 223.415 170.665 222.025C169.25 220.635 168.141 218.964 167.409 217.12C166.601 215.091 166.256 212.908 166.399 210.728C166.449 208.931 166.987 207.181 167.954 205.665C168.634 204.644 169.65 203.893 170.826 203.542C171.141 203.455 171.465 203.413 171.791 203.417C172.018 203.417 172.132 203.417 172.132 203.417C172.132 203.417 171.655 203.417 170.894 203.724C169.816 204.122 168.901 204.869 168.295 205.847C166.751 208.276 166.319 212.715 167.965 216.859C168.732 218.813 169.931 220.567 171.473 221.99C172.737 223.155 174.193 224.092 175.776 224.76C177.262 225.348 178.808 225.77 180.385 226.021Z" fill="#023A59"/>
<path d="M206.848 226.997C206.564 223.516 206.473 220.022 206.576 216.53C206.487 213.042 206.593 209.551 206.894 206.074C207.178 209.552 207.269 213.042 207.166 216.53C207.262 220.022 207.156 223.517 206.848 226.997Z" fill="#023A59"/>
<path d="M165.207 203.497C165.332 200.965 165.593 198.105 165.593 198.105C165.593 198.105 171.86 197.412 172.235 190.941C172.609 184.47 172.235 169.541 172.235 169.541L160.882 163.729L148.28 173.639L150.222 205.995L161.779 206.733C162.662 206.757 163.519 206.43 164.162 205.824C164.805 205.217 165.18 204.38 165.207 203.497Z" fill="#FFBE9D"/>
<path d="M166.33 185.82C166.33 185.82 166.33 185.945 166.228 186.093C166.143 186.2 166.034 186.285 165.909 186.34C165.785 186.396 165.648 186.42 165.512 186.411C164.786 186.411 164.082 185.571 163.832 184.594C163.713 184.121 163.713 183.626 163.832 183.153C163.855 182.946 163.93 182.748 164.049 182.578C164.168 182.407 164.328 182.269 164.513 182.176C164.666 182.113 164.837 182.113 164.99 182.176C165.103 182.232 165.195 182.324 165.251 182.437C165.331 182.63 165.251 182.755 165.251 182.744C165.251 182.732 165.251 182.63 165.138 182.517C165.078 182.435 164.991 182.379 164.893 182.358C164.794 182.337 164.691 182.353 164.604 182.403C164.465 182.487 164.349 182.606 164.268 182.746C164.186 182.887 164.142 183.047 164.139 183.209C164.043 183.632 164.043 184.07 164.139 184.492C164.366 185.378 164.979 186.093 165.524 186.161C165.63 186.175 165.739 186.168 165.842 186.139C165.946 186.109 166.042 186.059 166.125 185.991C166.262 185.9 166.307 185.809 166.33 185.82Z" fill="#EB996E"/>
<path d="M176.127 166.044C175.253 163.07 172.086 161.594 169.202 160.777C164.808 159.528 160.063 158.983 155.772 160.561C151.48 162.139 146.326 164.909 146.326 169.643C143.795 169.439 142.341 171.652 141.342 174.4C140.704 176.074 140.321 177.834 140.207 179.622C139.889 185.821 138.152 194.381 134.133 198.922C131.863 201.453 128.718 203.202 127.424 206.358C126.289 209.094 126.879 212.341 125.823 215.111C124.881 217.552 122.803 219.289 121.282 221.411C119.732 223.82 118.82 226.583 118.631 229.44C118.443 232.298 118.984 235.157 120.204 237.748C121.432 240.273 123.162 242.521 125.287 244.356C127.413 246.19 129.89 247.573 132.567 248.42C137.87 250.033 143.524 250.088 148.858 248.579C152.861 247.621 156.594 245.77 159.779 243.163C163.038 240.502 165.276 236.796 166.114 232.673C166.92 228.041 165.626 223.33 164.661 218.721C161.641 204.155 162.504 203.395 166.318 189.874C166.409 189.635 166.455 189.385 166.523 189.147C166.591 188.909 166.625 188.795 166.67 188.613C166.779 188.079 166.836 187.535 166.841 186.99C166.283 187.197 165.679 187.241 165.097 187.116C164.516 186.992 163.983 186.704 163.56 186.286C163.136 185.841 162.84 185.289 162.704 184.69C162.568 184.09 162.597 183.465 162.788 182.88C163.056 182.241 163.455 181.665 163.959 181.19C164.464 180.715 165.062 180.351 165.717 180.122C166.977 179.599 168.328 179.327 169.565 178.748C172.188 177.499 174.004 174.911 175.242 172.197C176.259 170.317 176.573 168.135 176.127 166.044Z" fill="#023A59"/>
<path d="M166.785 186.127C167.025 186.481 167.223 186.862 167.375 187.262C167.716 187.977 168.17 188.988 168.67 190.157L168.761 190.373H168.522L167.387 190.475C166.603 190.475 165.945 190.623 165.173 190.611C165.106 190.596 165.044 190.564 164.992 190.519C164.94 190.473 164.901 190.415 164.878 190.35C164.844 190.247 164.844 190.136 164.878 190.032C164.904 189.879 164.938 189.728 164.98 189.578L165.184 188.772C165.287 188.234 165.447 187.709 165.661 187.205C165.64 187.754 165.56 188.298 165.423 188.829L165.264 189.635C165.207 189.907 165.105 190.327 165.264 190.293C165.832 190.293 166.638 190.169 167.387 190.123L168.522 190.021L168.375 190.271C167.886 189.135 167.478 188.068 167.239 187.33C167.03 186.953 166.877 186.548 166.785 186.127Z" fill="#115766"/>
<path d="M127.914 281.684L178.263 280.151L200.174 365.683L196.143 463.793H169.521L172.78 367.772L153.31 308.227L156.307 467.596L129.401 467.994L126.574 318.194C126.449 314.028 125.087 304.639 125.598 300.507L127.914 281.684Z" fill="#023A59"/>
<path d="M160.007 309.441C159.183 309.493 158.355 309.443 157.543 309.293C156.022 309.111 153.945 308.794 151.663 308.339C149.381 307.885 147.337 307.363 145.861 306.943C145.072 306.77 144.309 306.495 143.591 306.126C143.591 305.955 147.292 306.841 151.833 307.76C156.374 308.68 160.03 309.27 160.007 309.441Z" fill="#46B2C8"/>
<path d="M195.871 458.41C195.871 458.569 189.842 458.706 182.406 458.706C174.97 458.706 168.931 458.569 168.931 458.41C168.931 458.251 174.959 458.115 182.406 458.115C189.854 458.115 195.871 458.24 195.871 458.41Z" fill="#46B2C8"/>
<path d="M156.066 463.451C156.066 463.622 150.208 463.747 142.988 463.747C135.768 463.747 129.921 463.622 129.921 463.451C129.921 463.281 135.779 463.156 142.988 463.156C150.197 463.156 156.066 463.292 156.066 463.451Z" fill="#46B2C8"/>
<path d="M152.593 463.043C152.434 463.043 151.73 428.225 151.015 385.277C150.3 342.33 149.88 307.488 150.027 307.488C150.175 307.488 150.902 342.296 151.605 385.266C152.309 428.236 152.763 463.043 152.593 463.043Z" fill="#46B2C8"/>
<path d="M192.295 458.412C192.282 458.257 192.282 458.101 192.295 457.946V456.584C192.295 455.358 192.385 453.598 192.454 451.362C192.612 446.82 192.84 440.225 193.123 432.141C193.736 415.884 194.599 393.474 195.541 368.736C195.541 368.498 195.541 368.271 195.541 368.067V368.146C189.581 344.305 184.189 322.667 180.272 307.012L175.731 288.495C175.209 286.327 174.811 284.635 174.528 283.455C174.391 282.898 174.301 282.467 174.221 282.138C174.177 281.99 174.15 281.838 174.142 281.684C174.201 281.827 174.246 281.975 174.278 282.126C174.369 282.444 174.482 282.876 174.641 283.421C174.948 284.556 175.39 286.281 175.958 288.438C177.093 292.821 178.694 299.133 180.692 306.909C184.643 322.553 190.092 344.135 196.132 368.01V368.089C196.132 368.294 196.132 368.532 196.132 368.759C195.121 393.497 194.202 415.896 193.532 432.153C193.18 440.247 192.885 446.798 192.681 451.362C192.567 453.632 192.476 455.358 192.419 456.584C192.419 457.163 192.351 457.617 192.34 457.946C192.342 458.102 192.326 458.259 192.295 458.412Z" fill="#46B2C8"/>
<path d="M183.61 366.068C181.698 366.697 179.728 367.134 177.729 367.374C175.277 367.794 173.188 368.089 172.246 368.135V367.907C172.553 367.998 172.712 368.055 172.712 368.101C172.712 368.146 172.519 368.101 172.201 368.101H171.52L172.201 367.896C173.086 367.635 175.175 367.204 177.627 366.761C179.594 366.334 181.598 366.102 183.61 366.068Z" fill="#46B2C8"/>
<path d="M183.144 369.326C181.373 369.407 179.599 369.328 177.843 369.088C176.069 369.052 174.303 368.858 172.563 368.509C176.111 368.219 179.683 368.495 183.144 369.326Z" fill="#46B2C8"/>
<path opacity="0.2" d="M127.697 283.489C128.294 284.255 129.045 284.886 129.901 285.342C130.758 285.798 131.702 286.068 132.67 286.134C134.698 286.374 136.749 286.336 138.766 286.021C151.765 284.579 165.536 283.251 178.262 280.151C161.79 281.071 144.386 280.764 127.913 281.684L127.743 283.092" fill="black"/>
<g opacity="0.2">
<path d="M144.669 306.705L153.955 342.739L153.308 308.226L144.669 306.705Z" fill="black"/>
</g>
</svg>
