<svg width="393" height="393" viewBox="0 0 393 393" fill="none" xmlns="http://www.w3.org/2000/svg">
<path d="M364.264 367.566C364.264 367.676 288.808 367.77 195.714 367.77C102.62 367.77 27.1484 367.676 27.1484 367.566C27.1484 367.456 102.604 367.361 195.714 367.361C288.824 367.361 364.264 367.456 364.264 367.566Z" fill="#263238"/>
<path d="M313.425 52.2227L367.227 66.7244V374.923L281.545 377.076L197.23 367.196V235.997L208.651 223.657L210.262 162.994H222.162L219.647 57.2688L313.425 52.2227Z" fill="#455A64"/>
<path d="M224.379 60.9151L225.951 60.8129L230.478 60.5535L247.77 59.5946L309.864 56.2227H310.037V56.3956C310.367 86.1614 310.768 121.932 311.2 160.368C311.2 161.869 311.2 163.362 311.248 164.832V165.06H311.035L226.548 161.61H226.383V161.437C225.794 131.419 225.299 106.275 224.953 88.6373C224.788 79.842 224.662 72.9173 224.575 68.2013C224.536 65.8433 224.505 64.0434 224.481 62.8172C224.481 62.212 224.481 61.7561 224.481 61.4338C224.481 61.1116 224.481 60.978 224.481 60.978V61.4574C224.481 61.7797 224.481 62.2434 224.52 62.8486C224.52 64.0905 224.591 65.9062 224.654 68.272C224.764 72.988 224.921 79.9599 225.126 88.7709C225.519 106.385 226.077 131.482 226.737 161.452L226.564 161.279L311.051 164.683L310.839 164.887C310.839 163.425 310.839 161.924 310.784 160.431C310.383 121.987 309.998 86.2243 309.691 56.4585L309.872 56.6235L247.833 59.7361L230.541 60.6085L225.982 60.8365L224.379 60.9151Z" fill="#263238"/>
<path d="M230.156 88.0487L230.486 135.358H305.486L304.999 84.8418L230.156 88.0487Z" fill="white"/>
<path d="M230.156 88.0321H230.502L231.548 87.9693L235.619 87.7728L251.001 87.0654L304.968 84.6523H305.164V84.8488C305.321 99.83 305.487 116.399 305.659 133.793C305.659 134.32 305.659 134.846 305.659 135.365V135.577H305.455L230.455 135.53H230.298V135.373C230.235 120.879 230.18 109.034 230.148 100.789C230.148 96.7017 230.148 93.5184 230.148 91.3569V88.8967C230.148 88.3465 230.148 88.1107 230.148 88.1107C230.148 88.1107 230.148 88.4094 230.148 88.9675C230.148 89.5255 230.148 90.3744 230.148 91.4591C230.148 93.6442 230.203 96.8511 230.251 100.954C230.329 109.16 230.439 120.966 230.573 135.412L230.416 135.255L305.416 135.208L305.211 135.42C305.211 134.909 305.211 134.383 305.211 133.848C305.046 116.446 304.889 99.885 304.756 84.896L304.952 85.0846L251.127 87.2461L235.698 87.8514L231.587 88.0086H230.526L230.156 88.0321Z" fill="#263238"/>
<path d="M325.755 210.587C330.878 210.587 335.03 206.434 335.03 201.312C335.03 196.19 330.878 192.037 325.755 192.037C320.633 192.037 316.48 196.19 316.48 201.312C316.48 206.434 320.633 210.587 325.755 210.587Z" fill="#263238"/>
<path d="M349.368 260.285L343.866 260.16L344.526 231.219L326.66 206.609L331.117 203.379L350.067 229.49L349.368 260.285Z" fill="#263238"/>
<path d="M346.388 271.39C350.038 271.39 352.998 267.421 352.998 262.524C352.998 257.628 350.038 253.658 346.388 253.658C342.737 253.658 339.777 257.628 339.777 262.524C339.777 267.421 342.737 271.39 346.388 271.39Z" fill="#263238"/>
<path d="M347.86 262.524C347.841 262.336 347.841 262.146 347.86 261.958C347.907 261.429 347.991 260.903 348.112 260.386L348.701 257.918C348.829 257.403 348.908 256.876 348.937 256.346C349.004 255.786 348.885 255.22 348.599 254.735C348.187 254.284 347.631 253.989 347.027 253.902C346.343 253.773 345.648 253.709 344.952 253.713C344.229 253.713 343.474 253.713 342.704 253.768C341.915 253.778 341.128 253.836 340.346 253.941C339.527 254.135 338.757 254.494 338.081 254.995C337.406 255.497 336.839 256.13 336.416 256.857C335.465 258.41 334.937 260.185 334.883 262.005C334.789 263.825 335.148 265.64 335.929 267.287C336.629 268.828 337.851 270.073 339.379 270.801C340.106 271.087 340.885 271.221 341.666 271.194C342.452 271.194 343.199 271.249 343.922 271.241C344.62 271.247 345.317 271.192 346.005 271.076C346.625 271.012 347.203 270.734 347.64 270.29C347.983 269.833 348.188 269.287 348.229 268.718C348.277 268.195 348.277 267.669 348.229 267.146C348.159 266.163 348.033 265.322 347.954 264.63C347.876 263.939 347.844 263.396 347.836 263.058C347.821 262.873 347.821 262.686 347.836 262.5C347.874 262.682 347.895 262.866 347.899 263.051C347.899 263.42 347.986 263.955 348.088 264.623C348.19 265.291 348.339 266.147 348.434 267.146C348.483 267.669 348.483 268.195 348.434 268.718C348.398 269.338 348.179 269.935 347.805 270.431C347.33 270.935 346.693 271.255 346.005 271.335C345.302 271.459 344.589 271.522 343.875 271.524C343.136 271.524 342.374 271.524 341.603 271.524C340.775 271.552 339.949 271.413 339.175 271.115C337.559 270.358 336.262 269.056 335.512 267.437C334.691 265.724 334.315 263.831 334.419 261.935C334.469 260.046 335.011 258.204 335.991 256.59C336.44 255.822 337.04 255.154 337.755 254.626C338.469 254.097 339.284 253.72 340.149 253.516C340.952 253.412 341.761 253.36 342.57 253.359C343.356 253.32 344.142 253.296 344.85 253.32C345.568 253.324 346.284 253.398 346.988 253.54C347.674 253.64 348.3 253.986 348.748 254.515C349.074 255.052 349.204 255.685 349.118 256.307C349.074 256.837 348.984 257.363 348.85 257.879C348.615 258.846 348.355 259.655 348.19 260.331C348.052 260.848 347.944 261.373 347.868 261.903C347.88 262.11 347.878 262.318 347.86 262.524Z" fill="#263238"/>
<path d="M215.267 166.508H215.613H216.658L220.769 166.665L236.411 167.294L292.444 169.605H292.61V169.778C292.61 188.304 292.61 209.691 292.61 232.563V232.658V232.705L284.97 245.807L284.899 245.925H284.765L283.264 245.752L201.803 236.478L201.441 236.43L201.701 236.179L213.562 224.389L213.514 224.499C214.041 206.688 214.465 192.171 214.764 182.102C214.913 177.087 215.039 173.181 215.118 170.517C215.165 169.204 215.196 168.159 215.22 167.506C215.244 166.854 215.267 166.492 215.267 166.492C215.267 166.492 215.267 166.854 215.267 167.538C215.267 168.221 215.228 169.251 215.204 170.579C215.141 173.252 215.047 177.174 214.921 182.196C214.67 192.249 214.3 206.735 213.852 224.507V224.57L213.813 224.617L201.968 236.407L201.866 236.116L283.327 245.328L284.836 245.493L284.64 245.595L292.279 232.493V232.595C292.279 209.722 292.279 188.335 292.279 169.809L292.452 169.982L236.536 167.49L220.863 166.783L216.721 166.587L215.652 166.531L215.267 166.508Z" fill="#263238"/>
<path d="M271.034 177.314L269.266 222.282L287.949 223.767L289.167 178.116L271.034 177.314Z" fill="#81DD6A"/>
<path d="M220.449 175.16L219.137 217.258L266.737 222.281L268.812 177.369L220.449 175.16Z" fill="white"/>
<g opacity="0.3">
<path d="M213.673 224.514L292.438 232.609L284.79 245.712L201.828 236.296L213.673 224.514Z" fill="black"/>
</g>
<path d="M283.091 377.037C282.981 377.037 282.887 348.041 282.887 312.286C282.887 276.531 282.981 247.52 283.091 247.52C283.201 247.52 283.295 276.515 283.295 312.286C283.295 348.057 283.209 377.037 283.091 377.037Z" fill="#263238"/>
<path d="M304.999 63.8242L230.156 66.9682V84.0559L304.999 81.1634V63.8242Z" fill="#FF993C"/>
<path d="M252.422 147.643H231.821L231.758 140.719H252.422V147.643Z" fill="white"/>
<path d="M252.445 147.659H231.797L231.734 140.719H252.445V147.659ZM231.868 147.62H252.438V140.742H231.774L231.868 147.62Z" fill="#263238"/>
<path d="M277.904 147.573H256.336V140.971L277.904 140.656V147.573Z" fill="white"/>
<path d="M277.927 147.597H256.32V140.947L277.912 140.633L277.927 147.597ZM256.36 147.557H277.88V140.696L256.36 141.01V147.557Z" fill="#263238"/>
<path d="M304.59 147.573H282.543V140.656H304.299L304.59 147.573Z" fill="white"/>
<path d="M304.606 147.597H282.52V140.633H304.315L304.606 147.597ZM282.559 147.557H304.567L304.276 140.672H282.559V147.557Z" fill="#263238"/>
<g opacity="0.3">
<path d="M219.703 290.576V276.672L253.627 280.209V294.153L219.703 290.576Z" fill="black"/>
</g>
<path d="M219.702 290.577L212.133 294.114V300.936L250.458 304.709L255.606 300.866L253.626 280.752V294.114L219.702 290.577Z" fill="#E0E0E0"/>
<path d="M254.134 134.627C254.024 134.627 253.93 123.929 253.93 110.732C253.93 97.5354 254.024 86.8379 254.134 86.8379C254.244 86.8379 254.338 97.5354 254.338 110.732C254.338 123.929 254.252 134.627 254.134 134.627Z" fill="#263238"/>
<path d="M279.618 134.627C279.508 134.627 279.414 123.929 279.414 110.732C279.414 97.5354 279.508 86.8379 279.618 86.8379C279.728 86.8379 279.823 97.5354 279.823 110.732C279.823 123.929 279.728 134.627 279.618 134.627Z" fill="#263238"/>
<path d="M266.936 102.947L259.523 111.154L267.654 118.499L275.067 110.292L266.936 102.947Z" fill="#FF993C"/>
<path d="M292.706 104.822L285.293 113.029L293.424 120.374L300.837 112.167L292.706 104.822Z" fill="#FF993C"/>
<path d="M241.995 103.971L234.582 112.178L242.713 119.522L250.126 111.315L241.995 103.971Z" fill="#FF993C"/>
<path d="M296.665 90.4299C296.665 91.1403 296.454 91.8348 296.059 92.4255C295.664 93.0162 295.103 93.4766 294.447 93.7485C293.791 94.0204 293.068 94.0915 292.372 93.9529C291.675 93.8143 291.035 93.4722 290.533 92.9699C290.03 92.4675 289.688 91.8275 289.549 91.1307C289.411 90.4339 289.482 89.7117 289.754 89.0553C290.026 88.3989 290.486 87.8379 291.077 87.4433C291.668 87.0486 292.362 86.8379 293.072 86.8379C293.544 86.8379 294.011 86.9308 294.447 87.1113C294.883 87.2918 295.279 87.5564 295.612 87.89C295.946 88.2235 296.211 88.6195 296.391 89.0553C296.572 89.4911 296.665 89.9582 296.665 90.4299Z" fill="#455A64"/>
<path d="M266.037 95.2954C268.021 95.2954 269.629 93.6872 269.629 91.7033C269.629 89.7195 268.021 88.1113 266.037 88.1113C264.054 88.1113 262.445 89.7195 262.445 91.7033C262.445 93.6872 264.054 95.2954 266.037 95.2954Z" fill="#455A64"/>
<path d="M239.822 96.5297C241.806 96.5297 243.415 94.9215 243.415 92.9377C243.415 90.9539 241.806 89.3457 239.822 89.3457C237.839 89.3457 236.23 90.9539 236.23 92.9377C236.23 94.9215 237.839 96.5297 239.822 96.5297Z" fill="#455A64"/>
<path d="M245.154 128.645H238.449V135.349H245.154V128.645Z" fill="#455A64"/>
<path d="M230.878 194.332L224.188 193.902L223.758 200.593L230.449 201.022L230.878 194.332Z" fill="#FF5454"/>
<path d="M230.945 181.01L227.918 177.455L224.363 180.482L227.39 184.037L230.945 181.01Z" fill="#455A64"/>
<path d="M270.517 128.645H263.812V135.349H270.517V128.645Z" fill="#455A64"/>
<path d="M295.919 128.645H289.215V135.349H295.919V128.645Z" fill="#455A64"/>
<path d="M242.488 77.3975L242.661 77.0281C243.082 77.3754 243.618 77.5522 244.162 77.5233C245.003 77.5233 245.357 77.1303 245.341 76.6901C245.294 75.4561 242.559 76.305 242.504 74.6465C242.504 73.9863 242.976 73.3968 244.115 73.3575C244.608 73.3379 245.097 73.4606 245.522 73.7112L245.373 74.0963C244.999 73.8707 244.568 73.7562 244.131 73.7662C243.306 73.7662 242.96 74.1671 242.968 74.6151C243.015 75.8491 245.75 75.0081 245.805 76.643C245.805 77.3032 245.326 77.8849 244.178 77.9242C243.569 77.9682 242.965 77.7801 242.488 77.3975Z" fill="white"/>
<path d="M246.73 73.3105H247.21L247.344 77.3899L249.859 77.3034V77.7122L246.872 77.8143L246.73 73.3105Z" fill="white"/>
<path d="M250.095 75.4571C250.064 74.9887 250.174 74.5217 250.41 74.1159C250.646 73.7101 250.997 73.384 251.42 73.1793C251.842 72.9746 252.316 72.9007 252.781 72.967C253.246 73.0333 253.68 73.2368 254.028 73.5515C254.377 73.8661 254.623 74.2776 254.736 74.7332C254.849 75.1888 254.824 75.6678 254.663 76.1089C254.502 76.5499 254.214 76.933 253.834 77.2089C253.454 77.4849 253.001 77.6412 252.532 77.6579C252.225 77.6814 251.917 77.6424 251.627 77.5432C251.336 77.444 251.069 77.2866 250.841 77.0807C250.613 76.8749 250.429 76.6247 250.301 76.3456C250.173 76.0665 250.103 75.7641 250.095 75.4571ZM254.332 75.3156C254.289 74.8352 254.064 74.3894 253.703 74.0699C253.341 73.7503 252.872 73.5812 252.39 73.5973C251.908 73.6134 251.45 73.8135 251.111 74.1564C250.772 74.4994 250.577 74.9592 250.567 75.4414C250.609 75.9217 250.834 76.3675 251.196 76.6871C251.557 77.0067 252.027 77.1758 252.509 77.1597C252.991 77.1436 253.448 76.9435 253.787 76.6005C254.126 76.2575 254.321 75.7977 254.332 75.3156Z" fill="white"/>
<path d="M256.611 73.374L255.039 73.429V73.0203L258.663 72.8945V73.3111L257.091 73.3583L257.232 77.4376H256.76L256.611 73.374Z" fill="white"/>
<path d="M265.248 77.1617L265.146 74.4657L263.904 76.7294H263.433L262.049 74.6701L262.136 77.3032H261.161L261.012 72.823H261.868L263.645 75.5504L265.217 72.7051H266.074L266.239 77.1853L265.248 77.1617Z" fill="white"/>
<path d="M270.209 76.0231L268.126 76.0939L267.764 77.0685H266.703L268.55 72.5176H269.572L271.734 76.9349L270.641 76.9742L270.209 76.0231ZM269.855 75.2371L269.069 73.5472L268.409 75.2922L269.855 75.2371Z" fill="white"/>
<path d="M271.789 74.6701C271.803 74.1865 271.959 73.7177 272.237 73.3216C272.515 72.9255 272.903 72.6195 273.352 72.4414C273.802 72.2633 274.294 72.2209 274.768 72.3195C275.242 72.418 275.676 72.6532 276.018 72.9959L275.373 73.6326C275.229 73.4722 275.052 73.3454 274.854 73.2612C274.655 73.177 274.441 73.1374 274.226 73.1452C273.844 73.1588 273.484 73.3233 273.224 73.6027C272.963 73.882 272.825 74.2532 272.838 74.6347C272.852 75.0162 273.016 75.3767 273.296 75.6368C273.575 75.897 273.946 76.0356 274.328 76.022C274.544 76.0157 274.756 75.9609 274.947 75.8616C275.139 75.7622 275.306 75.621 275.436 75.4482L276.12 76.0456C275.805 76.4134 275.388 76.6803 274.922 76.8129C274.456 76.9456 273.961 76.9381 273.499 76.7914C273.037 76.6447 272.629 76.3653 272.325 75.9881C272.021 75.6109 271.834 75.1525 271.789 74.6701Z" fill="white"/>
<path d="M280.806 72.1329L280.955 76.6131H279.918L279.855 74.7738L277.819 74.8446L277.882 76.6838H276.845L276.688 72.1957H277.725L277.788 73.9642L279.824 73.8935L279.761 72.125L280.806 72.1329Z" fill="white"/>
<path d="M281.875 72.0918H282.913L283.07 76.5799H282.032L281.875 72.0918Z" fill="white"/>
<path d="M288.091 71.8809L288.241 76.3611H287.392L285.034 73.7123L285.128 76.4397H284.106L283.949 71.9516H284.806L287.164 74.5926L287.07 71.873L288.091 71.8809Z" fill="white"/>
<path d="M292.745 75.3697V76.2029L289.278 76.3208L289.121 71.8406L292.517 71.7227V72.5558L290.159 72.6344V73.6091L292.242 73.5383V74.3243L290.159 74.3951V75.4326L292.745 75.3697Z" fill="white"/>
<path d="M298.567 71.6992L299.156 72.9332L300.5 73.1533L299.51 74.0887L299.714 75.4406L298.519 74.7882L297.301 75.4013L297.553 74.0572L296.594 73.0904L297.946 72.9175L298.567 71.6992Z" fill="white"/>
<path d="M236.625 74.2461L237.215 75.4801L238.559 75.7002L237.568 76.6434L237.773 77.9875L236.578 77.3351L235.36 77.9482L235.611 76.612L234.652 75.6373L236.004 75.4644L236.625 74.2461Z" fill="white"/>
<g opacity="0.3">
<path d="M229.787 161.531L228.372 60.7031L224.379 60.9153L226.478 161.398L229.787 161.531Z" fill="black"/>
</g>
<path d="M286.942 376.369C286.942 376.369 286.942 376.157 286.942 375.748C286.942 375.339 286.942 374.718 286.942 373.916C286.942 372.305 286.942 369.924 286.942 366.842C286.942 360.664 286.903 351.681 286.879 340.409C286.879 317.843 286.84 286.128 286.809 249.501V249.438V249.39L298.143 232.491V232.609V169.116H298.331L314.924 168.016L314.743 168.212C314.35 134.414 314.012 105.411 313.776 84.8964C313.674 74.6312 313.588 66.4804 313.533 60.8762C313.533 58.0938 313.493 55.9401 313.485 54.4782C313.485 53.7551 313.485 53.2049 313.485 52.8276C313.485 52.4503 313.485 52.2695 313.485 52.2695C313.485 52.2695 313.485 52.4582 313.485 52.8276C313.485 53.197 313.485 53.7551 313.485 54.4782C313.485 55.9401 313.548 58.0859 313.595 60.8762C313.682 66.4725 313.8 74.6312 313.949 84.8964C314.224 105.442 314.617 134.414 315.065 168.212V168.401H314.877L298.284 169.517L298.473 169.313C298.473 181.755 298.473 194.834 298.473 208.275V232.657L298.434 232.704L287.092 249.595V249.485C287.092 286.112 287.037 317.828 287.021 340.394C287.021 351.665 286.982 360.649 286.966 366.827C286.966 369.908 286.966 372.289 286.966 373.901C286.966 374.687 286.966 375.308 286.966 375.732C286.966 376.157 286.942 376.369 286.942 376.369Z" fill="#263238"/>
<path d="M282.957 110.301C282.837 110.347 282.714 110.381 282.587 110.403L281.511 110.623C280.575 110.804 279.223 111.079 277.581 111.409C268.913 113.3 260.478 116.136 252.429 119.866C250.857 120.582 249.646 121.171 248.789 121.595L247.799 122.075C247.684 122.135 247.563 122.183 247.438 122.216C247.537 122.132 247.645 122.058 247.76 121.996L248.719 121.454C249.552 120.99 250.77 120.354 252.311 119.599C260.297 115.723 268.747 112.886 277.455 111.157C279.129 110.827 280.489 110.599 281.432 110.466L282.525 110.324C282.666 110.29 282.812 110.282 282.957 110.301Z" fill="#263238"/>
<path d="M289.16 104.814C288.771 104.965 288.368 105.078 287.957 105.152L284.656 105.938C281.874 106.622 278.038 107.62 273.849 108.87C269.659 110.12 265.91 111.409 263.214 112.368L260.015 113.515C259.631 113.677 259.234 113.806 258.828 113.901C259.189 113.69 259.568 113.511 259.96 113.366C260.699 113.052 261.776 112.58 263.104 112.101C265.784 111.063 269.526 109.743 273.723 108.477C277.92 107.212 281.779 106.269 284.585 105.663C285.984 105.357 287.124 105.129 287.918 104.987C288.327 104.897 288.742 104.839 289.16 104.814Z" fill="#263238"/>
<path d="M303.74 159.976C303.731 159.814 303.731 159.651 303.74 159.489C303.74 159.143 303.74 158.703 303.74 158.129C303.74 156.919 303.701 155.221 303.67 153.099L303.795 153.232C298.293 153.28 289.718 153.311 280.105 153.311H279.673L279.877 153.099V159.104L279.681 158.907L296.839 159.623L301.925 159.858L303.3 159.937C303.466 159.939 303.631 159.952 303.795 159.976C303.649 159.995 303.501 159.995 303.355 159.976H302.019L296.973 159.851L279.681 159.316H279.492V159.12C279.492 157.186 279.492 155.184 279.492 153.115V152.91H280.129C289.742 152.91 298.325 152.91 303.819 152.989H303.953V153.115C303.953 155.276 303.897 156.997 303.882 158.224C303.882 158.774 303.882 159.214 303.882 159.56C303.855 159.705 303.808 159.845 303.74 159.976Z" fill="#263238"/>
<path d="M301.824 156.273C301.824 156.391 297.187 156.477 291.465 156.477C285.743 156.477 281.105 156.391 281.105 156.273C281.105 156.155 285.743 156.068 291.465 156.068C297.187 156.068 301.824 156.163 301.824 156.273Z" fill="#263238"/>
<g opacity="0.3">
<path d="M213.672 224.515L217.083 224.868L218.797 166.508H215.267L213.672 224.515Z" fill="black"/>
</g>
<g opacity="0.3">
<path d="M275.43 195.731L275.1 206.177L272.727 206.31L278.598 213.046L285.711 206.554L283.652 206.334L284.147 195.409L279.785 193.727L275.43 195.731Z" fill="white"/>
</g>
<g opacity="0.3">
<path d="M275.406 194.662L279.776 192.603L284.288 194.607L284.217 192.438L279.996 190.135L275.595 192.343L275.406 194.662Z" fill="white"/>
</g>
<g opacity="0.3">
<path d="M275.523 191.188L279.894 189.128L284.405 191.133L284.334 188.963L280.114 186.652L275.712 188.869L275.523 191.188Z" fill="white"/>
</g>
<path d="M286.245 221.976L271.516 220.915L271.626 216.254L286.245 217.37V221.976Z" fill="#263238"/>
<path d="M232.962 218.722C232.94 218.576 232.94 218.428 232.962 218.282C232.962 217.959 232.962 217.543 233.001 217.048C233.056 215.908 233.127 214.367 233.221 212.481C233.449 208.551 233.756 203.293 234.102 197.445C234.448 191.597 234.841 186.315 235.1 182.409C235.241 180.53 235.359 178.99 235.446 177.858L235.564 176.616C235.568 176.469 235.592 176.324 235.634 176.184C235.652 176.327 235.652 176.472 235.634 176.616C235.634 176.946 235.634 177.355 235.595 177.858C235.54 178.99 235.462 180.53 235.375 182.417C235.147 186.347 234.833 191.613 234.495 197.461C234.157 203.308 233.748 208.598 233.489 212.497C233.347 214.375 233.229 215.924 233.143 217.056L233.025 218.29C233.015 218.435 232.994 218.58 232.962 218.722Z" fill="#263238"/>
<path d="M249.302 220.443C249.285 220.294 249.285 220.144 249.302 219.995C249.302 219.649 249.302 219.209 249.349 218.698C249.404 217.527 249.483 215.916 249.577 213.982C249.813 209.926 250.135 204.416 250.497 198.333C250.858 192.249 251.282 186.739 251.534 182.691C251.683 180.726 251.801 179.123 251.896 177.975L252.013 176.686C252.018 176.535 252.042 176.384 252.084 176.238C252.103 176.387 252.103 176.538 252.084 176.686C252.084 177.032 252.084 177.472 252.084 177.975C252.029 179.154 251.951 180.766 251.856 182.691C251.613 186.747 251.29 192.257 250.937 198.348C250.583 204.44 250.151 209.942 249.899 213.998C249.75 215.955 249.624 217.558 249.538 218.714L249.42 219.995C249.401 220.149 249.362 220.3 249.302 220.443Z" fill="#263238"/>
<path d="M241.364 200.101C241.325 197.575 241.422 195.048 241.655 192.532C241.754 190.009 241.988 187.493 242.354 184.994C242.401 187.523 242.312 190.052 242.087 192.571C241.979 195.092 241.737 197.606 241.364 200.101Z" fill="#263238"/>
<path d="M243.66 193.074C243.634 191.072 243.747 189.071 243.998 187.085C244.123 185.086 244.386 183.098 244.784 181.135C244.8 183.137 244.685 185.137 244.438 187.124C244.313 189.123 244.053 191.111 243.66 193.074Z" fill="#263238"/>
<path d="M240.137 216.26C240.131 214.067 240.395 211.881 240.923 209.752C240.929 211.945 240.665 214.131 240.137 216.26Z" fill="#263238"/>
<path d="M242.037 214.327C241.976 212.429 242.196 210.533 242.69 208.699C242.741 210.597 242.521 212.492 242.037 214.327Z" fill="#263238"/>
<path d="M257.75 203.613C257.67 201.178 257.726 198.741 257.915 196.312C257.968 193.876 258.162 191.446 258.497 189.033C258.571 191.469 258.514 193.906 258.324 196.335C258.267 198.77 258.075 201.2 257.75 203.613Z" fill="#263238"/>
<path d="M260.164 194.654C260.085 192.716 260.14 190.776 260.329 188.846C260.387 186.907 260.576 184.974 260.895 183.061C260.985 184.998 260.932 186.939 260.738 188.869C260.686 190.809 260.494 192.742 260.164 194.654Z" fill="#263238"/>
<path d="M258.177 217.66C258.021 216.492 257.997 215.311 258.106 214.138C258.082 212.96 258.198 211.784 258.452 210.633C258.627 212.978 258.535 215.335 258.177 217.66Z" fill="#263238"/>
<path d="M260.611 212.567C260.501 212.567 260.776 210.791 260.965 208.637C261.015 207.322 261.133 206.01 261.319 204.707C261.54 206.027 261.558 207.374 261.374 208.7C261.317 210.02 261.06 211.324 260.611 212.567Z" fill="#263238"/>
<path d="M228.251 213.887C228.251 214.354 228.113 214.81 227.854 215.197C227.595 215.585 227.226 215.887 226.796 216.066C226.365 216.244 225.891 216.291 225.433 216.2C224.976 216.109 224.556 215.884 224.226 215.555C223.896 215.225 223.671 214.805 223.58 214.347C223.489 213.89 223.536 213.416 223.715 212.985C223.893 212.554 224.195 212.186 224.583 211.927C224.971 211.668 225.427 211.529 225.893 211.529C226.519 211.529 227.118 211.778 227.561 212.22C228.003 212.662 228.251 213.262 228.251 213.887Z" fill="#455A64"/>
<path d="M250.458 304.71C250.407 304.557 250.375 304.399 250.364 304.238C250.317 303.877 250.254 303.452 250.175 302.863C250.034 301.613 249.829 299.899 249.586 297.809L249.711 297.942L234.377 296.496L218.657 294.924L213.893 294.39L212.596 294.224C212.444 294.216 212.293 294.187 212.148 294.138C212.3 294.126 212.453 294.126 212.604 294.138L213.909 294.224L218.68 294.625L234.4 296.103L249.727 297.675H249.853V297.793C250.041 299.892 250.207 301.605 250.317 302.863C250.364 303.421 250.395 303.884 250.427 304.246C250.449 304.4 250.459 304.555 250.458 304.71Z" fill="#263238"/>
<path d="M253.617 293.84C253.124 294.631 252.517 295.346 251.817 295.962C251.217 296.674 250.512 297.292 249.727 297.793C250.22 297.002 250.827 296.287 251.527 295.671C252.127 294.959 252.832 294.342 253.617 293.84Z" fill="#263238"/>
<path d="M217.508 103.588C217.555 103.69 213.397 105.836 208.217 108.39C203.037 110.945 198.785 112.925 198.785 112.823C198.785 112.721 202.888 110.575 208.068 108.021C213.248 105.466 217.453 103.486 217.508 103.588Z" fill="#263238"/>
<path d="M215.504 93.3848C215.177 93.5146 214.837 93.6069 214.49 93.6599C213.83 93.8092 212.879 93.9978 211.684 94.2101C209.326 94.6424 206.009 95.1297 202.338 95.4912C198.668 95.8528 195.335 95.9864 192.906 96.0257C191.696 96.0257 190.721 96.0257 190.045 96.0257C189.693 96.0315 189.341 96.0079 188.992 95.955C189.339 95.8847 189.692 95.8531 190.045 95.8607L192.891 95.7428C195.304 95.6327 198.629 95.4441 202.283 95.0904C205.938 94.7367 209.24 94.3044 211.621 93.935L214.451 93.5105C214.797 93.4351 215.15 93.393 215.504 93.3848Z" fill="#263238"/>
<path d="M215.513 87.4664C214.773 87.2513 214.061 86.9506 213.391 86.5704C211.737 85.7281 210.159 84.7446 208.675 83.6307C207.184 82.5191 205.791 81.2833 204.509 79.9365C203.952 79.403 203.459 78.8069 203.039 78.1602C203.633 78.6448 204.192 79.1701 204.713 79.7322C206.042 81.0074 207.446 82.2016 208.918 83.3085C210.397 84.4017 211.94 85.4044 213.54 86.311C214.221 86.6555 214.879 87.0413 215.513 87.4664Z" fill="#263238"/>
<path d="M217.415 113.562C216.796 114.537 216.059 115.432 215.222 116.227C214.486 117.11 213.647 117.902 212.723 118.585C213.35 117.614 214.088 116.72 214.923 115.921C215.665 115.045 216.501 114.255 217.415 113.562Z" fill="#263238"/>
<path d="M215.032 78.6C214.504 77.9918 214.084 77.298 213.79 76.5485C213.403 75.8631 213.137 75.1159 213.004 74.3398C213.519 74.9414 213.926 75.6274 214.206 76.3677C214.607 77.059 214.887 77.8141 215.032 78.6Z" fill="#263238"/>
<path d="M94.5796 216.197C86.7196 220.284 80.6439 227.311 76.2973 235.061C71.9507 242.811 69.1683 251.3 66.378 259.734L63.9492 303.231C73.1218 287.629 80.4552 269.276 82.4752 251.284L76.368 250.734C80.4631 250.105 83.8979 247.142 86.083 243.621C88.2681 240.1 89.392 236.052 90.4924 232.059L83.049 233.167C88.9277 229.2 93.056 223.124 94.5796 216.197Z" fill="#455A64"/>
<g opacity="0.3">
<path d="M94.5796 216.197C86.7196 220.284 80.6439 227.311 76.2973 235.061C71.9507 242.811 69.1683 251.3 66.378 259.734L63.9492 303.231C73.1218 287.629 80.4552 269.276 82.4752 251.284L76.368 250.734C80.4631 250.105 83.8979 247.142 86.083 243.621C88.2681 240.1 89.392 236.052 90.4924 232.059L83.049 233.167C88.9277 229.2 93.056 223.124 94.5796 216.197Z" fill="black"/>
</g>
<path d="M62.5877 313.426C62.5877 313.426 42.6704 289.594 42.9377 266.84H50.947C50.947 266.84 42.2067 261.094 42.8984 257.871C43.59 254.649 43.818 242.474 43.818 242.474L51.1749 244.313C51.1749 244.313 45.6729 241.554 44.9734 237.192C44.2739 232.829 46.5454 212.598 46.5454 212.598C46.5454 212.598 55.5137 222.03 58.2725 231.674C61.0314 241.318 68.2704 252.589 66.1325 281.978C63.9946 311.366 62.5877 313.426 62.5877 313.426Z" fill="#455A64"/>
<path d="M72.6787 315.673C72.6787 315.673 94.2544 301.305 99.0332 282.96L92.5644 281.199C92.5644 281.199 100.849 278.495 100.998 275.752C101.148 273.009 103.623 263.176 103.623 263.176L97.3355 263.043C97.3355 263.043 102.374 262.029 103.883 258.672C105.392 255.316 107.97 238.551 107.97 238.551C107.97 238.551 98.6953 244.163 94.3723 251.323C90.0493 258.484 81.7412 265.951 77.0252 290.034C72.3092 314.117 72.6787 315.673 72.6787 315.673Z" fill="#455A64"/>
<path d="M52.0156 233.379C52.0501 233.457 52.0764 233.539 52.0942 233.623C52.0942 233.811 52.1964 234.055 52.2671 234.361C52.4165 235.03 52.6287 235.981 52.9038 237.183C53.1789 238.386 53.5012 239.918 53.8549 241.671C54.2086 243.424 54.6409 245.42 55.026 247.629C55.8827 252.054 56.7788 257.336 57.7063 263.215C58.6337 269.095 59.5062 275.579 60.3001 282.394C61.0939 289.208 61.6834 295.756 62.155 301.674C62.6266 307.593 62.941 312.961 63.0982 317.457C63.2083 319.705 63.2633 321.741 63.3104 323.525C63.3576 325.309 63.4048 326.85 63.4126 328.108C63.4205 329.365 63.4126 330.316 63.4126 331.008V331.794C63.4247 331.88 63.4247 331.967 63.4126 332.053C63.4023 331.967 63.4023 331.88 63.4126 331.794C63.4126 331.605 63.4126 331.354 63.4126 331.008C63.4126 330.324 63.3576 329.35 63.3104 328.115C63.2633 326.881 63.224 325.317 63.1375 323.533C63.0511 321.749 62.996 319.713 62.8624 317.473C62.6502 312.977 62.2886 307.632 61.8328 301.706C61.3769 295.779 60.6773 289.248 59.8913 282.441C59.1053 275.634 58.2093 269.15 57.3761 263.31C56.543 257.47 55.5998 252.149 54.7823 247.723C54.3972 245.507 53.9963 243.51 53.6662 241.758C53.3361 240.005 53.0374 238.488 52.7859 237.254C52.5344 236.02 52.3615 235.092 52.2278 234.416C52.1728 234.11 52.1257 233.858 52.0942 233.67C52.0628 233.481 52.0156 233.379 52.0156 233.379Z" fill="#263238"/>
<path d="M59.8209 328.022C59.8209 328.022 41.6014 307.326 35.9422 294.845L40.2102 293.021C37.1133 293.532 33.9222 292.235 31.5642 290.184C29.2062 288.132 27.4062 285.468 25.677 282.882L31.3048 281.931C26.1335 280.452 21.7291 277.041 19.0039 272.404C25.6456 273.497 31.6585 277.12 36.6024 281.703C40.5332 285.482 44.1039 289.618 47.2685 294.059C48.8615 296.194 50.2484 298.476 51.4107 300.873C54.4525 307.201 59.8366 320.429 59.8209 328.022Z" fill="#455A64"/>
<path d="M99.3348 250.586C99.3198 250.66 99.2933 250.732 99.2562 250.798L98.9733 251.396C98.7139 251.946 98.3445 252.716 97.8729 253.691C96.8982 255.679 95.5149 258.564 93.8407 262.148C90.4923 269.316 86.075 279.322 81.7206 290.578C77.3661 301.833 73.8841 312.208 71.5654 319.762C70.3943 323.542 69.4668 326.608 68.8537 328.73C68.5472 329.775 68.3035 330.593 68.1306 331.175C68.052 331.434 67.9813 331.646 67.9341 331.811C67.9158 331.886 67.8867 331.957 67.8477 332.023C67.8514 331.946 67.8646 331.87 67.887 331.795C67.9341 331.63 67.9813 331.418 68.052 331.151C68.2092 330.561 68.4214 329.736 68.7044 328.691C69.2703 326.553 70.1506 323.472 71.2903 319.683C73.5619 312.098 76.981 301.7 81.3354 290.428C85.6899 279.157 90.1622 269.167 93.5813 262.03C95.2869 258.454 96.7253 255.585 97.7314 253.62L98.9025 251.356C99.0361 251.12 99.1383 250.932 99.2169 250.775C99.2499 250.708 99.2894 250.645 99.3348 250.586Z" fill="#263238"/>
<path d="M61.3697 336.88C61.3176 336.76 61.2857 336.633 61.2754 336.503C61.2282 336.204 61.1732 335.842 61.0946 335.41C60.9531 334.451 60.7173 333.052 60.3794 331.386C60.0414 329.719 59.5934 327.699 58.9881 325.499C58.3829 323.298 57.6126 320.916 56.693 318.425C55.7734 315.933 54.7437 313.709 53.7612 311.626C52.7787 309.543 51.7884 307.766 50.9159 306.281C50.0435 304.795 49.3439 303.601 48.7937 302.791L48.2042 301.848C48.1307 301.74 48.0701 301.624 48.0234 301.502C48.0234 301.502 48.1256 301.596 48.275 301.801L48.9273 302.705C49.4933 303.491 50.2635 304.662 51.1674 306.132C52.0713 307.601 53.0696 309.409 54.0992 311.461C55.1289 313.512 56.135 315.815 57.0782 318.283C58.0214 320.751 58.7523 323.164 59.3497 325.357C59.9471 327.55 60.3715 329.586 60.6702 331.291C60.9689 332.997 61.1654 334.38 61.2518 335.347C61.299 335.787 61.3304 336.133 61.3619 336.455C61.3855 336.596 61.3881 336.739 61.3697 336.88Z" fill="#263238"/>
<path d="M85.4129 332.023H45.5312V340.159H85.4129V332.023Z" fill="#46B2C8"/>
<path d="M49.3359 340.158L53.6432 367.519H77.7498L81.7663 340.158H49.3359Z" fill="#46B2C8"/>
<path d="M82.9693 340.157C82.9693 340.268 75.4237 340.362 66.1175 340.362C56.8112 340.362 49.2656 340.268 49.2656 340.157C49.2656 340.047 56.8112 339.953 66.1175 339.953C75.4237 339.953 82.9693 340.04 82.9693 340.157Z" fill="#263238"/>
<path d="M101.142 157.852C102.714 153.309 105.905 149.505 108.452 145.41C113.042 138.013 114.873 128.676 116.312 119.605C116.492 118.442 116.673 117.286 116.838 116.17C117.003 115.054 117.184 113.875 117.365 112.743C117.781 109.953 118.151 107.579 118.363 106.023C120.163 93.5335 123.354 79.8178 141.196 81.099C141.196 81.099 154.637 82.0108 158.606 91.7179C160.752 96.9684 163.149 116.681 163.676 132.936C163.676 133.596 165.672 158.41 165.696 159.055L147.461 168.424C146.156 169.493 143.374 168.997 140.08 167.756C136.427 166.376 132.999 164.46 129.909 162.073C127.867 169.505 124.266 176.418 119.346 182.352C117.641 184.591 115.475 186.438 112.995 187.767C110.464 188.97 107.328 189.198 104.923 187.767C102.321 186.195 101.071 182.98 101.118 179.946C101.165 176.912 102.329 174.012 103.602 171.253C99.9 168.125 99.5384 162.403 101.142 157.852Z" fill="#263238"/>
<path d="M131.324 364.673L132.967 347.727L147.335 351.822L144.67 364.673H131.324Z" fill="#FFBE9D"/>
<path d="M145.466 362.793V363.729C145.466 363.729 161.249 369.836 161.469 372.846L130.367 373.263L130.65 362.738C132.967 363.827 135.493 364.396 138.052 364.405C140.611 364.415 143.142 363.864 145.466 362.793Z" fill="#46B2C8"/>
<g opacity="0.6">
<path d="M133.855 366.055C133.556 366.156 133.304 366.362 133.146 366.636C132.988 366.909 132.936 367.231 132.998 367.54C133.078 367.844 133.273 368.106 133.541 368.27C133.809 368.434 134.13 368.488 134.437 368.421C134.753 368.314 135.02 368.096 135.187 367.806C135.353 367.517 135.408 367.176 135.341 366.849C135.224 366.547 134.995 366.302 134.703 366.164C134.41 366.027 134.075 366.007 133.769 366.11" fill="white"/>
</g>
<g opacity="0.6">
<path d="M130.383 373.263L130.446 370.732L160.235 371.259C160.235 371.259 161.626 371.856 161.485 372.831L130.383 373.263Z" fill="white"/>
</g>
<path d="M145.592 363.815C145.592 363.972 144.806 364.051 144.091 364.554C143.375 365.057 142.967 365.717 142.825 365.654C142.684 365.591 142.896 364.703 143.808 364.082C144.719 363.461 145.623 363.673 145.592 363.815Z" fill="#263238"/>
<path d="M148.877 365.143C148.917 365.292 148.256 365.567 147.753 366.22C147.25 366.872 147.101 367.572 146.967 367.572C146.834 367.572 146.708 366.691 147.352 365.89C147.997 365.088 148.869 364.994 148.877 365.143Z" fill="#263238"/>
<path d="M150.777 369.089C150.643 369.089 150.415 368.35 150.777 367.517C151.138 366.684 151.861 366.322 151.924 366.448C151.987 366.574 151.555 367.038 151.256 367.737C150.957 368.437 150.91 369.073 150.777 369.089Z" fill="#263238"/>
<path d="M199.205 167.771L180.498 176.747L171.404 155.226C171.404 155.226 164.487 140.488 159.944 138.838L157.547 146.879C157.547 146.879 169.824 194.361 171.404 196.004C172.984 197.646 177.692 196.082 179.044 195.422C180.396 194.762 203.614 175.458 203.614 175.458L199.205 167.771Z" fill="#FFBE9D"/>
<path d="M199.201 167.771C198.57 166.543 198.163 165.212 197.999 163.841C197.905 161.994 197.999 158.771 197.999 158.771C197.999 158.771 197.457 156.649 197.999 155.627C198.541 154.606 200.255 153.6 201.638 154.794C201.967 154.08 202.367 153.401 202.833 152.766C203.391 152.122 208.28 154.244 208.28 154.244C208.28 154.244 211.691 155.439 211.597 157.286C211.895 157.839 212.05 158.458 212.05 159.086C212.05 159.714 211.895 160.333 211.597 160.886C211.597 160.886 208.185 169.092 207.627 170.381C207.069 171.67 202.911 176.197 202.911 176.197L197.771 170.011L199.201 167.771Z" fill="#FFBE9D"/>
<path d="M205.703 167.661C205.497 167.716 205.278 167.691 205.09 167.59C204.817 167.476 204.581 167.288 204.408 167.048C204.234 166.809 204.131 166.526 204.107 166.231L204.273 166.356C204.02 166.421 203.755 166.427 203.5 166.376C203.244 166.324 203.003 166.215 202.795 166.058L203.07 165.9C203.096 166.115 203.051 166.332 202.942 166.518C202.832 166.704 202.665 166.849 202.465 166.93C202.254 167.012 202.025 167.039 201.8 167.007C201.576 166.976 201.364 166.887 201.184 166.749C200.821 166.479 200.548 166.107 200.398 165.68C200.229 165.263 200.123 164.824 200.083 164.376C200.056 164.075 200.056 163.772 200.083 163.472C200.09 163.306 200.129 163.144 200.199 162.994C200.27 162.844 200.369 162.71 200.492 162.599C200.762 162.441 201.077 162.377 201.388 162.418H202.174L204.846 162.466C205.667 162.442 206.487 162.492 207.299 162.615C206.486 162.727 205.666 162.775 204.846 162.756H202.174H201.388C201.164 162.723 200.936 162.761 200.736 162.866C200.437 163.102 200.445 163.755 200.484 164.281C200.501 165.072 200.825 165.824 201.388 166.38C201.513 166.481 201.661 166.548 201.819 166.576C201.978 166.603 202.14 166.59 202.292 166.537C202.422 166.489 202.533 166.4 202.61 166.284C202.686 166.168 202.723 166.031 202.716 165.893L202.646 165.452L202.983 165.735C203.15 165.871 203.343 165.968 203.551 166.019C203.759 166.071 203.976 166.076 204.186 166.034L204.351 165.995V166.168C204.364 166.423 204.444 166.67 204.582 166.885C204.719 167.1 204.911 167.275 205.137 167.394C205.483 167.63 205.703 167.622 205.703 167.661Z" fill="#EB996E"/>
<path d="M207.896 159.22C206.089 159.323 204.276 159.291 202.473 159.126C202.154 159.075 201.827 159.102 201.52 159.205C201.214 159.308 200.937 159.483 200.712 159.715C200.562 159.931 200.46 160.177 200.414 160.436C200.368 160.696 200.378 160.962 200.445 161.216C200.614 161.704 200.844 162.169 201.129 162.6C201.129 162.6 200.979 162.529 200.783 162.325C200.502 162.032 200.29 161.68 200.162 161.295C200.063 160.996 200.035 160.678 200.078 160.366C200.122 160.054 200.237 159.756 200.413 159.495C200.638 159.182 200.963 158.955 201.333 158.85C201.703 158.744 202.088 158.699 202.473 158.717C204.291 158.75 206.103 158.918 207.896 159.22Z" fill="#EB996E"/>
<path d="M201.498 159.102C201.498 159.102 201.411 158.969 201.325 158.701C201.194 158.324 201.117 157.93 201.097 157.53C201.073 157.218 201.111 156.905 201.21 156.608C201.308 156.311 201.465 156.037 201.67 155.801C201.936 155.514 202.296 155.333 202.684 155.29C203.073 155.251 203.466 155.289 203.84 155.4C205.618 155.811 207.362 156.355 209.059 157.027C207.26 156.747 205.485 156.338 203.746 155.801C203.45 155.673 203.125 155.63 202.807 155.677C202.489 155.725 202.191 155.86 201.946 156.068C201.579 156.466 201.379 156.989 201.388 157.53C201.395 158.481 201.576 159.094 201.498 159.102Z" fill="#EB996E"/>
<path d="M198.07 158.591C198.125 158.591 198.235 158.842 198.55 159.118C198.747 159.292 198.987 159.41 199.246 159.461C199.504 159.512 199.771 159.493 200.02 159.407C200.269 159.32 200.49 159.17 200.661 158.97C200.832 158.77 200.947 158.528 200.994 158.269C201.073 157.852 200.994 157.577 201.049 157.561C201.104 157.546 201.293 157.797 201.285 158.3C201.275 158.597 201.182 158.885 201.018 159.133C200.816 159.445 200.514 159.678 200.161 159.793C199.846 159.91 199.504 159.927 199.179 159.842C198.855 159.758 198.564 159.576 198.345 159.322C198.07 158.929 198.07 158.599 198.07 158.591Z" fill="#EB996E"/>
<path d="M178.36 185.023C178.159 183.608 178.28 182.165 178.714 180.802C179.028 179.406 179.66 178.102 180.561 176.99C180.671 177.053 179.712 178.688 179.115 180.92C178.518 183.152 178.486 185.023 178.36 185.023Z" fill="#EB996E"/>
<path d="M180.41 217.895C180.41 217.895 183.302 219.93 180.41 244.1C178.508 260.016 147.06 358.989 147.06 358.989L131.34 354.918L148.176 246.277L146.007 223.483L180.41 217.895Z" fill="#263238"/>
<path d="M154.25 232.136C155.692 229.657 157.955 227.761 160.648 226.775C160.703 226.885 159.005 227.719 157.237 229.212C155.468 230.705 154.344 232.207 154.25 232.136Z" fill="#455A64"/>
<path d="M121.27 351.569L128.493 335.912L140.865 344.621L134.034 356.018L121.27 351.569Z" fill="#FFBE9D"/>
<path d="M135.421 354.485L135.13 355.389C135.13 355.389 148.177 366.487 147.384 369.443L117.516 359.461L121.304 349.494C123.153 351.302 125.374 352.685 127.812 353.547C130.25 354.409 132.846 354.729 135.421 354.485Z" fill="#46B2C8"/>
<g opacity="0.6">
<path d="M123.23 353.738C122.911 353.733 122.601 353.846 122.359 354.054C122.117 354.263 121.96 354.553 121.918 354.87C121.893 355.188 121.992 355.504 122.194 355.751C122.396 355.999 122.686 356.159 123.002 356.198C123.341 356.201 123.669 356.079 123.924 355.856C124.179 355.633 124.343 355.324 124.386 354.988C124.386 354.343 123.733 353.628 123.113 353.738" fill="white"/>
</g>
<g opacity="0.6">
<path d="M117.5 359.469L118.412 357.111L146.708 367.557C146.708 367.557 147.84 368.595 147.368 369.491L117.5 359.469Z" fill="white"/>
</g>
<path d="M135.193 355.515C135.138 355.665 134.407 355.515 133.511 355.72C132.615 355.924 132.041 356.451 131.939 356.348C131.837 356.246 132.324 355.46 133.393 355.193C134.462 354.926 135.28 355.389 135.193 355.515Z" fill="#263238"/>
<path d="M137.894 357.881C137.894 358.03 137.163 358.077 136.456 358.533C135.749 358.989 135.387 359.61 135.245 359.555C135.104 359.5 135.293 358.636 136.181 358.077C137.069 357.519 137.941 357.739 137.894 357.881Z" fill="#263238"/>
<path d="M138.398 362.282C138.256 362.282 138.303 361.496 138.948 360.773C139.592 360.05 140.386 359.987 140.41 360.136C140.433 360.285 139.86 360.576 139.341 361.15C138.822 361.724 138.555 362.345 138.398 362.282Z" fill="#263238"/>
<path d="M147.869 229.432C147.869 229.432 174.593 271.53 173.87 284.295C173.147 297.06 138.641 351.388 138.641 351.388C138.641 351.388 123.707 345.139 122.34 345.139C120.972 345.139 137.274 300.534 141.204 290.905C145.134 281.277 144.348 284.554 144.348 284.554C144.348 284.554 124.273 254.097 119.982 243.234C115.69 232.372 118.331 215.104 118.331 215.104L148.129 221.266L147.869 229.432Z" fill="#263238"/>
<path d="M119.996 243.251C119.996 243.251 120.13 243.51 120.358 244.037C120.586 244.563 120.9 245.334 121.411 246.308C122.362 248.289 123.903 251.134 125.962 254.75C130.096 261.965 136.4 272.183 144.472 284.5L144.527 284.579L144.48 284.665C143.207 287.086 141.981 289.696 140.762 292.368C139.544 295.04 138.483 297.925 137.359 300.857C135.119 306.728 132.847 312.961 130.544 319.493C128.241 326.024 125.883 332.855 123.714 339.929C123.447 340.817 123.179 341.713 122.928 342.617C122.802 343.065 122.692 343.521 122.59 343.977C122.543 344.197 122.496 344.425 122.464 344.653C122.457 344.755 122.457 344.857 122.464 344.959C122.464 344.999 122.527 345.061 122.401 344.959C122.383 344.953 122.364 344.953 122.346 344.959H122.417H122.511C123.449 345.185 124.371 345.474 125.27 345.824L127.95 346.838C131.519 348.221 135.103 349.691 138.719 351.192L138.467 351.271L138.616 351.027C148.048 335.708 156.765 320.915 164.044 307.129C165.859 303.678 167.573 300.283 169.137 296.911C170.694 293.69 172.025 290.365 173.122 286.96C173.661 285.361 173.84 283.662 173.648 281.985C173.428 280.367 173.079 278.768 172.603 277.206C171.704 274.259 170.655 271.36 169.459 268.521C167.195 263.074 164.885 258.263 162.81 254.066C160.734 249.869 158.88 246.3 157.308 243.392C155.736 240.484 154.525 238.236 153.684 236.711L152.733 234.982C152.521 234.597 152.419 234.393 152.419 234.393C152.419 234.393 152.544 234.581 152.764 234.966C152.985 235.352 153.33 235.925 153.755 236.672C154.619 238.181 155.877 240.413 157.449 243.314C159.021 246.214 160.923 249.775 163.03 253.964C165.136 258.153 167.463 262.964 169.742 268.403C170.939 271.253 171.988 274.162 172.886 277.12C173.364 278.699 173.721 280.312 173.955 281.946C173.955 282.37 174.026 282.794 174.041 283.219C174.045 283.652 174.022 284.085 173.971 284.516C173.9 284.94 173.853 285.373 173.743 285.789C173.633 286.206 173.531 286.63 173.421 287.055C172.34 290.495 171.016 293.855 169.459 297.108C167.887 300.464 166.189 303.859 164.382 307.326C157.103 321.136 148.41 335.936 138.962 351.271L138.813 351.514L138.719 351.656L138.561 351.593C134.946 350.092 131.362 348.622 127.801 347.239L125.129 346.233C124.265 345.894 123.38 345.61 122.48 345.384L122.244 345.336C122.189 345.318 122.144 345.278 122.118 345.226C122.102 345.196 122.089 345.165 122.079 345.132C122.076 345.09 122.076 345.048 122.079 345.006C122.071 344.876 122.071 344.744 122.079 344.613C122.118 344.37 122.158 344.134 122.213 343.906C122.315 343.442 122.433 342.978 122.551 342.53C122.794 341.619 123.054 340.723 123.337 339.827C125.522 332.705 127.903 325.899 130.198 319.391C132.493 312.883 134.789 306.634 137.044 300.762C138.176 297.831 139.285 294.985 140.471 292.266C141.658 289.546 142.924 287 144.221 284.539V284.704C136.172 272.364 129.908 262.115 125.813 254.836C123.777 251.205 122.26 248.344 121.332 246.348C120.837 245.365 120.546 244.571 120.318 244.053C120.09 243.534 119.996 243.251 119.996 243.251Z" fill="#455A64"/>
<path d="M135.688 225.495C135.948 225.452 136.213 225.452 136.474 225.495C136.961 225.495 137.652 225.495 138.517 225.573C140.781 225.647 143.016 226.104 145.127 226.925C147.195 227.88 149.018 229.294 150.456 231.06C150.895 231.584 151.291 232.141 151.643 232.726C151.785 232.937 151.896 233.167 151.973 233.41C151.911 233.41 151.384 232.514 150.236 231.248C148.767 229.59 146.972 228.252 144.962 227.318C142.889 226.521 140.709 226.034 138.494 225.872C137.551 225.808 136.614 225.682 135.688 225.495Z" fill="#455A64"/>
<path d="M116.452 225.494C116.381 221.093 117.363 215.889 118.228 211.079C118.922 207.26 119.861 203.49 121.042 199.792L124.877 187.751L110.895 140.771L125.2 134.593L127.298 133.021L147.365 134.255C147.365 134.255 156.915 136.951 160.09 139.027L162.047 144.261C163.127 148.715 165.016 152.933 167.62 156.704C176.989 170.435 169.035 184.662 169.035 184.662L170.953 194.267C176.117 203.573 179.976 212.698 181.69 221.533C181.69 221.533 170.159 218.389 163.085 222.044C151.641 227.994 147.451 220.841 134.129 222.877C125.923 224.127 116.452 225.494 116.452 225.494Z" fill="#46B2C8"/>
<path d="M139.16 182.665C140.434 182.831 141.721 182.873 143.004 182.791C146.113 182.554 149.037 181.224 151.26 179.037C153.482 176.851 154.859 173.948 155.147 170.844C155.251 169.563 155.227 168.276 155.077 167C155.205 167.325 155.29 167.666 155.328 168.014C155.472 168.961 155.506 169.921 155.43 170.875C155.214 174.071 153.836 177.076 151.555 179.325C149.274 181.574 146.249 182.91 143.051 183.082C142.097 183.149 141.138 183.096 140.198 182.924C139.841 182.889 139.492 182.801 139.16 182.665Z" fill="#263238"/>
<g opacity="0.3">
<path d="M168.993 169.547C168.655 169.814 168.324 170.089 167.994 170.333L167.633 169.877L168.993 169.547Z" fill="black"/>
<path d="M140.876 189.284C146.543 188.034 151.565 184.78 156.022 181.078C160.141 177.651 163.882 173.792 168.024 170.373L169.848 172.652C163.569 182.904 155.733 192.116 146.621 199.958C144.114 202.12 141.3 204.258 137.975 204.517C133.676 204.855 129.691 201.774 127.64 197.985C125.588 194.197 125.069 189.787 124.582 185.504C128.819 189.481 135.193 190.526 140.876 189.284Z" fill="black"/>
</g>
<path d="M130.611 138.335C129.039 136.213 127.27 135.238 127.286 132.574L127.176 93.2737C127.201 92.4375 127.538 91.6408 128.119 91.0391C128.7 90.4374 129.485 90.074 130.32 90.0196L142.385 85.1543L143.501 86.2233C150.575 86.2233 156.737 91.5523 157.122 100.371C157.397 106.761 157.586 113.246 156.596 117.97C154.599 127.449 147.211 128.298 147.211 128.298L147.321 134.319C147.321 134.319 157.68 158.15 154.167 162.402L130.611 138.335Z" fill="#FFBE9D"/>
<path d="M142.421 106.228C142.409 106.548 142.272 106.85 142.04 107.071C141.808 107.291 141.499 107.412 141.179 107.407C141.023 107.413 140.867 107.387 140.721 107.331C140.575 107.274 140.441 107.19 140.328 107.081C140.216 106.973 140.126 106.843 140.064 106.699C140.002 106.555 139.97 106.401 139.969 106.244C139.983 105.924 140.121 105.621 140.355 105.401C140.588 105.181 140.898 105.061 141.218 105.065C141.375 105.06 141.53 105.086 141.676 105.142C141.821 105.198 141.954 105.283 142.067 105.392C142.179 105.5 142.268 105.63 142.329 105.774C142.39 105.918 142.421 106.072 142.421 106.228Z" fill="#263238"/>
<path d="M154.714 106.228C154.702 106.549 154.564 106.853 154.33 107.073C154.096 107.294 153.786 107.414 153.464 107.407C153.308 107.413 153.153 107.386 153.007 107.33C152.861 107.274 152.728 107.189 152.616 107.081C152.504 106.972 152.415 106.842 152.354 106.699C152.293 106.555 152.262 106.4 152.262 106.244C152.274 105.924 152.411 105.622 152.643 105.402C152.875 105.182 153.184 105.061 153.504 105.065C153.66 105.06 153.816 105.086 153.962 105.142C154.108 105.198 154.242 105.283 154.354 105.391C154.467 105.5 154.557 105.63 154.619 105.773C154.681 105.917 154.713 106.072 154.714 106.228Z" fill="#263238"/>
<path d="M155.369 103.02C155.211 103.178 154.315 102.439 153.011 102.376C151.706 102.313 150.653 102.926 150.558 102.761C150.464 102.596 150.66 102.399 151.101 102.116C151.69 101.748 152.38 101.572 153.074 101.613C153.759 101.648 154.417 101.898 154.952 102.329C155.329 102.659 155.447 102.965 155.369 103.02Z" fill="#263238"/>
<path d="M142.919 102.966C142.754 103.131 141.78 102.431 140.388 102.431C138.997 102.431 137.967 103.076 137.818 102.91C137.669 102.745 137.905 102.549 138.36 102.25C138.973 101.853 139.69 101.648 140.42 101.661C141.139 101.663 141.84 101.882 142.432 102.29C142.856 102.604 142.998 102.895 142.919 102.966Z" fill="#263238"/>
<path d="M147.117 112.633C147.823 112.45 148.549 112.355 149.278 112.35C149.616 112.35 149.938 112.288 150.009 112.06C150.056 111.712 149.996 111.358 149.836 111.046L148.964 108.468C147.769 104.742 146.912 101.692 147.069 101.645C147.227 101.598 148.311 104.577 149.514 108.295C149.797 109.214 150.072 110.087 150.339 110.928C150.531 111.344 150.57 111.814 150.449 112.256C150.392 112.371 150.311 112.473 150.21 112.553C150.11 112.633 149.993 112.69 149.868 112.72C149.679 112.761 149.486 112.777 149.294 112.767C148.565 112.817 147.833 112.772 147.117 112.633Z" fill="#263238"/>
<path d="M147.248 128.29C142.741 128.134 138.366 126.73 134.609 124.234C134.609 124.234 137.683 131.418 147.295 131.002L147.248 128.29Z" fill="#EB996E"/>
<path d="M143.776 97.8885C143.588 98.2186 142.314 97.8492 140.75 97.802C139.186 97.7549 137.889 97.9828 137.732 97.6291C137.669 97.464 137.928 97.1654 138.518 96.8981C139.249 96.5796 140.043 96.4317 140.84 96.4657C141.636 96.4998 142.415 96.7148 143.116 97.0946C143.611 97.4012 143.839 97.7234 143.776 97.8885Z" fill="#263238"/>
<path d="M155.706 97.2198C155.462 97.5107 154.566 97.1569 153.474 97.0862C152.381 97.0155 151.446 97.1884 151.249 96.8583C151.163 96.7011 151.32 96.4103 151.745 96.1509C152.299 95.8251 152.944 95.6847 153.584 95.75C154.226 95.7929 154.838 96.0347 155.337 96.4417C155.706 96.7639 155.816 97.0862 155.706 97.2198Z" fill="#263238"/>
<path d="M127.418 110.039C127.418 110.039 134.177 112.138 137.997 95.4588C139.31 89.7603 144.592 85.1387 144.592 85.1387L142.454 84.4941C142.454 84.4941 129.092 88.2512 128.903 88.4241C128.715 88.5971 125.539 95.3174 125.539 95.3174L127.418 110.039Z" fill="#263238"/>
<path d="M129.085 109.41C129.085 108.695 128.377 106.974 127.678 106.832C125.815 106.447 122.427 106.424 122.176 111.195C121.798 117.711 128.464 116.736 128.464 116.547C128.464 116.359 128.967 111.863 129.085 109.41Z" fill="#FFBE9D"/>
<path d="M126.544 113.97C126.544 113.97 126.426 114.041 126.23 114.119C125.957 114.228 125.653 114.228 125.381 114.119C124.705 113.828 124.186 112.704 124.225 111.525C124.245 110.978 124.385 110.441 124.634 109.953C124.71 109.759 124.832 109.586 124.989 109.449C125.147 109.312 125.335 109.215 125.538 109.167C125.67 109.139 125.808 109.158 125.927 109.221C126.047 109.285 126.14 109.388 126.19 109.513C126.261 109.702 126.19 109.828 126.253 109.843C126.316 109.859 126.395 109.741 126.355 109.466C126.329 109.305 126.249 109.158 126.128 109.049C126.043 108.975 125.945 108.918 125.838 108.883C125.731 108.848 125.619 108.835 125.507 108.845C125.235 108.881 124.978 108.986 124.76 109.152C124.543 109.317 124.372 109.537 124.265 109.788C123.953 110.335 123.783 110.951 123.77 111.58C123.77 112.901 124.335 114.166 125.263 114.489C125.434 114.551 125.617 114.573 125.798 114.554C125.979 114.535 126.154 114.475 126.308 114.379C126.544 114.127 126.599 113.97 126.544 113.97Z" fill="#EB996E"/>
<path d="M132 106.84C132 106.84 132.362 106.84 132.975 106.644C133.855 106.382 134.662 105.919 135.333 105.292C135.789 104.868 136.195 104.393 136.543 103.877C136.933 103.277 137.262 102.64 137.526 101.975C138.084 100.432 138.552 98.8569 138.925 97.2587C139.388 95.5609 139.884 93.9496 140.426 92.5427C140.902 91.2744 141.469 90.0424 142.124 88.8564C142.567 88.0598 143.066 87.2955 143.617 86.5691C143.814 86.3097 143.979 86.1211 144.081 85.9953C144.134 85.9234 144.194 85.8575 144.262 85.7988C144.218 85.8736 144.168 85.9445 144.112 86.011C144.01 86.1525 143.853 86.349 143.672 86.6084C143.147 87.3493 142.667 88.121 142.234 88.9192C141.593 90.104 141.039 91.3334 140.575 92.5977C140.041 94.0204 139.553 95.6238 139.098 97.3137C138.722 98.9138 138.247 100.489 137.675 102.03C137.402 102.704 137.063 103.349 136.661 103.955C136.302 104.48 135.882 104.96 135.411 105.386C134.739 106.005 133.932 106.457 133.053 106.706C132.711 106.802 132.356 106.847 132 106.84Z" fill="#263238"/>
<path d="M123.095 134.642C123.061 134.54 123.037 134.435 123.024 134.328L122.859 133.4C122.725 132.567 122.521 131.372 122.277 129.863H122.435C122.435 130.099 122.498 130.366 122.537 130.649C122.584 130.736 122.631 130.838 122.678 130.94L122.513 131.003C121.519 127.571 120.82 124.061 120.422 120.51C120.171 118.257 120.037 115.993 120.022 113.727C119.937 111.231 120.154 108.735 120.666 106.291C120.929 105.255 121.328 104.259 121.853 103.328C122.374 102.438 122.977 101.599 123.653 100.821C124.981 99.2485 126.412 97.9752 127.709 96.6704L134.712 89.7851L139.428 85.1634L140.725 83.9137L141.071 83.5993C141.149 83.5285 141.189 83.4892 141.189 83.4971C141.189 83.5049 141.189 83.5442 141.086 83.6228L140.764 83.9608L139.507 85.242C138.39 86.366 136.803 87.9694 134.838 89.958L127.889 96.8827C126.593 98.1953 125.17 99.5236 123.865 101.033C122.477 102.558 121.474 104.393 120.941 106.385C120.435 108.806 120.219 111.278 120.297 113.75C120.307 116.008 120.43 118.264 120.666 120.51C121.048 124.048 121.716 127.549 122.663 130.979L122.498 131.042C122.458 130.932 122.411 130.83 122.372 130.744C122.332 130.476 122.301 130.209 122.277 129.958H122.435C122.647 131.475 122.82 132.669 122.946 133.51C122.993 133.903 123.04 134.21 123.071 134.438C123.083 134.505 123.091 134.574 123.095 134.642Z" fill="#455A64"/>
<path d="M117.961 104.538C117.991 104.443 118.03 104.351 118.079 104.263L118.456 103.477C118.786 102.817 119.313 101.905 120.028 100.734C120.743 99.5631 121.6 98.2741 122.606 96.8514C123.612 95.4288 124.846 93.9275 126.198 92.4184C127.55 90.9093 128.933 89.5573 130.223 88.3705C131.512 87.1836 132.753 86.1933 133.815 85.3994C134.876 84.6055 135.748 83.9767 136.377 83.5759L137.092 83.12C137.175 83.0614 137.265 83.0138 137.359 82.9785C137.29 83.049 137.214 83.1122 137.131 83.1672L136.44 83.6781C135.835 84.1025 134.978 84.747 133.94 85.5645C132.903 86.3819 131.7 87.3958 130.411 88.5748C129.122 89.7538 127.77 91.1215 126.418 92.6149C125.066 94.1083 123.872 95.6174 122.826 97.0165C121.781 98.4156 120.901 99.7282 120.201 100.844C119.501 101.96 118.951 102.888 118.629 103.532L118.205 104.271C118.032 104.436 117.977 104.538 117.961 104.538Z" fill="#455A64"/>
<path d="M146.88 116.327C145.815 115.456 144.685 114.668 143.5 113.969C143.068 114.493 142.706 115.072 142.423 115.69C142.269 116.006 142.206 116.358 142.239 116.707C142.272 117.056 142.401 117.39 142.612 117.671C143.045 118.063 143.6 118.293 144.184 118.323C144.762 118.319 145.32 118.107 145.756 117.726C146.217 117.337 146.608 116.872 146.911 116.35" fill="#EB996E"/>
<path d="M144.765 118.339C144.765 118.339 144.655 118.472 144.364 118.52C143.962 118.566 143.556 118.495 143.193 118.315C142.93 118.2 142.695 118.031 142.501 117.82C142.295 117.555 142.162 117.241 142.116 116.908C142.035 116.167 142.224 115.421 142.651 114.81C142.886 114.44 143.146 114.118 143.382 113.811L143.5 113.662L143.649 113.772C144.639 114.448 145.425 115.108 146.007 115.564C146.334 115.79 146.632 116.053 146.895 116.35C146.519 116.22 146.168 116.026 145.858 115.776C145.244 115.376 144.419 114.755 143.445 114.11L143.712 114.063C143.464 114.375 143.233 114.701 143.02 115.038C142.643 115.568 142.459 116.212 142.501 116.861C142.525 117.143 142.623 117.415 142.784 117.647C142.938 117.833 143.128 117.985 143.342 118.095C143.656 118.279 144.009 118.384 144.372 118.402C144.624 118.362 144.749 118.307 144.765 118.339Z" fill="#263238"/>
<path d="M124.455 120.73C124.754 119.158 125.045 117.986 125.453 116.548C125.553 116.204 125.773 115.908 126.074 115.715C126.577 115.778 126.75 116.454 126.86 116.949C127.151 118.112 127.442 119.307 127.725 120.447C128.008 121.231 128.008 122.09 127.725 122.875C127.577 123.177 127.347 123.431 127.061 123.609C126.776 123.787 126.446 123.881 126.11 123.881C125.774 123.881 125.444 123.787 125.158 123.609C124.873 123.431 124.643 123.177 124.495 122.875C124.25 122.183 124.237 121.43 124.455 120.73Z" fill="white"/>
<path d="M157.3 146.377C157.19 146.377 157.119 146.259 157.135 146.181C157.154 146.137 157.189 146.103 157.234 146.085C157.278 146.068 157.327 146.068 157.371 146.086C157.481 146.086 157.559 146.196 157.536 146.275C157.517 146.319 157.482 146.354 157.438 146.373C157.394 146.391 157.345 146.393 157.3 146.377Z" fill="white"/>
<path d="M158.819 149.497C158.785 149.459 158.766 149.41 158.766 149.359C158.766 149.309 158.785 149.26 158.819 149.222C158.862 149.195 158.914 149.185 158.964 149.195C159.013 149.206 159.057 149.235 159.086 149.277C159.101 149.296 159.111 149.318 159.117 149.341C159.123 149.364 159.125 149.388 159.121 149.412C159.118 149.436 159.11 149.459 159.098 149.479C159.086 149.5 159.07 149.518 159.051 149.532C159.032 149.547 159.01 149.557 158.987 149.563C158.964 149.569 158.939 149.571 158.916 149.568C158.892 149.564 158.869 149.556 158.848 149.544C158.828 149.532 158.81 149.516 158.795 149.497H158.819Z" fill="white"/>
<path d="M156.86 155.179C156.758 155.234 156.601 155.132 156.499 154.951C156.396 154.77 156.396 154.582 156.499 154.527C156.601 154.472 156.766 154.574 156.86 154.755C156.954 154.935 156.954 155.124 156.86 155.179Z" fill="white"/>
<path d="M162.103 152.122C162.042 152.124 161.983 152.105 161.934 152.07C161.884 152.034 161.848 151.983 161.831 151.924C161.814 151.866 161.817 151.804 161.839 151.747C161.861 151.69 161.902 151.643 161.954 151.611C162.064 151.611 162.182 151.674 162.229 151.816C162.253 151.873 162.253 151.937 162.229 151.995C162.205 152.052 162.16 152.098 162.103 152.122Z" fill="white"/>
<path d="M154.897 141.637C154.853 141.59 154.828 141.528 154.828 141.464C154.828 141.4 154.853 141.338 154.897 141.291C154.999 141.165 155.149 141.126 155.235 141.205C155.279 141.251 155.304 141.313 155.304 141.378C155.304 141.442 155.279 141.504 155.235 141.55C155.199 141.604 155.145 141.643 155.083 141.659C155.02 141.675 154.954 141.667 154.897 141.637Z" fill="white"/>
<path d="M143.17 162.536C143.068 162.489 143.068 162.276 143.17 162.048C143.273 161.82 143.438 161.687 143.54 161.734C143.642 161.781 143.65 162.001 143.54 162.221C143.43 162.441 143.273 162.583 143.17 162.536Z" fill="white"/>
<path d="M140.244 159.691C140.218 159.689 140.192 159.682 140.169 159.67C140.146 159.657 140.126 159.64 140.11 159.619C140.095 159.598 140.084 159.574 140.078 159.548C140.073 159.523 140.073 159.496 140.079 159.471C140.084 159.446 140.095 159.422 140.11 159.401C140.125 159.38 140.144 159.362 140.166 159.349C140.188 159.336 140.213 159.327 140.238 159.324C140.264 159.321 140.29 159.322 140.314 159.329C140.364 159.339 140.409 159.367 140.44 159.408C140.47 159.448 140.484 159.499 140.479 159.55C140.466 159.599 140.435 159.642 140.39 159.668C140.346 159.695 140.294 159.703 140.244 159.691Z" fill="white"/>
<path d="M145.793 157.584C145.691 157.639 145.549 157.584 145.463 157.435C145.376 157.286 145.4 157.129 145.463 157.073C145.525 157.018 145.706 157.073 145.793 157.231C145.836 157.28 145.86 157.342 145.86 157.408C145.86 157.473 145.836 157.536 145.793 157.584Z" fill="white"/>
<path d="M148.341 165.744C148.454 165.744 148.545 165.694 148.545 165.633C148.545 165.573 148.454 165.523 148.341 165.523C148.228 165.523 148.137 165.573 148.137 165.633C148.137 165.694 148.228 165.744 148.341 165.744Z" fill="white"/>
<path d="M139.986 168.369C139.876 168.369 139.821 168.188 139.86 168.023C139.9 167.858 140.025 167.755 140.135 167.787C140.245 167.818 140.3 167.968 140.261 168.133C140.222 168.298 140.096 168.4 139.986 168.369Z" fill="white"/>
<path d="M133.848 166.325C133.792 166.339 133.732 166.331 133.682 166.302C133.632 166.272 133.595 166.224 133.581 166.168C133.56 166.114 133.562 166.054 133.585 166.001C133.609 165.948 133.652 165.906 133.706 165.885C133.762 165.874 133.82 165.885 133.87 165.913C133.919 165.942 133.956 165.988 133.974 166.042C133.994 166.096 133.993 166.156 133.969 166.209C133.945 166.262 133.902 166.304 133.848 166.325Z" fill="white"/>
<path d="M135.521 162.702C135.562 162.671 135.61 162.65 135.66 162.639C135.71 162.628 135.762 162.628 135.812 162.639C135.861 162.655 135.907 162.681 135.945 162.717C135.983 162.752 136.013 162.795 136.032 162.843C136.071 162.945 135.922 163.095 135.702 163.04C135.482 162.985 135.435 162.757 135.521 162.702Z" fill="white"/>
<path d="M131.804 158.991C131.815 158.964 131.83 158.94 131.85 158.92C131.87 158.899 131.894 158.883 131.921 158.872C131.947 158.861 131.975 158.855 132.004 158.855C132.033 158.856 132.061 158.862 132.087 158.873C132.115 158.88 132.141 158.893 132.163 158.911C132.186 158.928 132.205 158.95 132.219 158.975C132.233 159 132.242 159.028 132.245 159.056C132.248 159.084 132.245 159.113 132.237 159.14C132.214 159.193 132.172 159.235 132.119 159.257C132.066 159.279 132.007 159.279 131.954 159.258C131.899 159.242 131.853 159.205 131.825 159.155C131.797 159.105 131.79 159.046 131.804 158.991Z" fill="white"/>
<path d="M136.252 155.109C136.331 155.031 136.409 154.983 136.433 154.999C136.457 155.015 136.433 155.101 136.323 155.18C136.213 155.258 136.166 155.314 136.142 155.29C136.119 155.266 136.174 155.188 136.252 155.109Z" fill="white"/>
<path d="M139.231 151.399C139.294 151.297 139.514 151.36 139.514 151.58C139.514 151.8 139.302 151.863 139.239 151.761C139.176 151.659 139.113 151.604 139.105 151.58L139.231 151.399Z" fill="white"/>
<path d="M140.334 154.607C140.322 154.557 140.33 154.504 140.356 154.46C140.383 154.416 140.425 154.384 140.475 154.371C140.526 154.364 140.578 154.378 140.619 154.408C140.66 154.439 140.687 154.485 140.695 154.536C140.702 154.561 140.704 154.587 140.701 154.612C140.697 154.638 140.689 154.662 140.675 154.684C140.662 154.707 140.644 154.726 140.624 154.741C140.603 154.756 140.579 154.766 140.554 154.772C140.528 154.776 140.502 154.775 140.477 154.769C140.452 154.763 140.428 154.752 140.408 154.737C140.387 154.721 140.37 154.702 140.357 154.679C140.344 154.657 140.336 154.632 140.334 154.607Z" fill="white"/>
<path d="M136.103 158.983C136.136 158.935 136.186 158.901 136.242 158.887C136.298 158.872 136.358 158.878 136.41 158.904C136.462 158.929 136.504 158.973 136.527 159.026C136.549 159.08 136.553 159.14 136.535 159.195C136.521 159.221 136.501 159.243 136.478 159.261C136.454 159.279 136.427 159.292 136.399 159.3C136.37 159.307 136.34 159.308 136.311 159.304C136.282 159.3 136.254 159.289 136.229 159.274C136.201 159.263 136.176 159.248 136.154 159.227C136.133 159.207 136.116 159.182 136.104 159.155C136.092 159.128 136.086 159.099 136.086 159.069C136.086 159.04 136.092 159.01 136.103 158.983Z" fill="white"/>
<path d="M129.188 154.905C129.184 154.849 129.201 154.794 129.236 154.75C129.271 154.706 129.321 154.677 129.377 154.669C129.404 154.662 129.433 154.66 129.461 154.664C129.489 154.669 129.516 154.679 129.54 154.694C129.564 154.709 129.584 154.729 129.6 154.753C129.616 154.776 129.627 154.803 129.632 154.831C129.637 154.859 129.636 154.888 129.629 154.915C129.622 154.943 129.61 154.969 129.592 154.991C129.575 155.014 129.553 155.032 129.528 155.046C129.503 155.059 129.476 155.068 129.448 155.07C129.391 155.082 129.333 155.071 129.284 155.04C129.236 155.01 129.201 154.961 129.188 154.905Z" fill="white"/>
<path d="M132.834 149.865C132.944 149.865 133.07 150.062 133.109 150.345C133.148 150.628 133.109 150.871 132.983 150.887C132.857 150.903 132.747 150.683 132.708 150.408C132.669 150.132 132.724 149.881 132.834 149.865Z" fill="white"/>
<path d="M132.104 152.924C132.123 152.909 132.144 152.899 132.168 152.893C132.191 152.887 132.215 152.885 132.239 152.888C132.262 152.892 132.285 152.9 132.306 152.912C132.326 152.924 132.345 152.94 132.359 152.959C132.373 152.978 132.384 153 132.39 153.023C132.396 153.046 132.398 153.07 132.394 153.094C132.391 153.118 132.383 153.141 132.371 153.161C132.359 153.182 132.343 153.2 132.324 153.214C132.305 153.229 132.283 153.239 132.26 153.246C132.236 153.252 132.212 153.253 132.189 153.25C132.165 153.246 132.142 153.238 132.121 153.226C132.101 153.214 132.083 153.198 132.068 153.179C132.054 153.16 132.043 153.138 132.037 153.115C132.031 153.092 132.03 153.068 132.033 153.044C132.036 153.02 132.044 152.997 132.056 152.977C132.068 152.956 132.084 152.938 132.104 152.924Z" fill="white"/>
<path d="M138.501 147.618C138.587 147.539 138.792 147.618 138.964 147.815C139.137 148.011 139.208 148.223 139.129 148.294C139.051 148.365 138.839 148.294 138.666 148.097C138.493 147.901 138.422 147.689 138.501 147.618Z" fill="white"/>
<path d="M133.114 145.567C133.201 145.496 133.374 145.567 133.492 145.693C133.61 145.819 133.641 146.007 133.555 146.078C133.468 146.149 133.303 146.078 133.177 145.96C133.052 145.842 133.036 145.646 133.114 145.567Z" fill="white"/>
<path d="M127.77 146.573C127.831 146.573 127.88 146.481 127.88 146.368C127.88 146.256 127.831 146.164 127.77 146.164C127.709 146.164 127.66 146.256 127.66 146.368C127.66 146.481 127.709 146.573 127.77 146.573Z" fill="white"/>
<path d="M127.151 150.596C127.23 150.518 127.379 150.533 127.521 150.596C127.662 150.659 127.788 150.722 127.804 150.84C127.819 150.958 127.631 151.068 127.387 150.989C127.143 150.911 127.065 150.667 127.151 150.596Z" fill="white"/>
<path d="M122.994 146.887C123.065 146.801 123.222 146.816 123.34 146.887C123.458 146.958 123.505 147.147 123.427 147.233C123.348 147.32 123.199 147.304 123.081 147.233C123.025 147.197 122.985 147.142 122.969 147.077C122.953 147.013 122.962 146.945 122.994 146.887Z" fill="white"/>
<path d="M123.873 142.659C123.975 142.604 124.069 142.597 124.093 142.659C124.116 142.722 124.046 142.77 123.943 142.817C123.841 142.864 123.747 142.88 123.723 142.817C123.7 142.754 123.77 142.707 123.873 142.659Z" fill="white"/>
<path d="M127.796 141.062C127.883 140.984 128.126 141.149 128.181 141.479C128.236 141.809 128.071 142.045 127.969 142.006C127.867 141.966 127.828 141.77 127.781 141.55C127.733 141.33 127.71 141.133 127.796 141.062Z" fill="white"/>
<path d="M126.703 138.878C126.805 138.823 126.907 138.815 126.923 138.878C126.939 138.941 126.876 138.996 126.781 139.043C126.687 139.09 126.577 139.106 126.561 139.043C126.546 138.98 126.601 138.925 126.703 138.878Z" fill="white"/>
<path d="M120.016 140.63C120.016 140.528 120.016 140.426 120.079 140.41C120.141 140.395 120.212 140.465 120.244 140.575C120.275 140.685 120.244 140.788 120.181 140.803C120.118 140.819 120.047 140.741 120.016 140.63Z" fill="white"/>
<path d="M131.379 140.992C131.401 141.04 131.404 141.095 131.386 141.145C131.369 141.195 131.332 141.236 131.285 141.259C131.26 141.271 131.234 141.277 131.207 141.278C131.179 141.278 131.152 141.273 131.127 141.263C131.102 141.253 131.08 141.237 131.061 141.218C131.042 141.198 131.027 141.175 131.018 141.149C130.996 141.102 130.994 141.049 131.012 141C131.029 140.952 131.066 140.912 131.112 140.89C131.161 140.869 131.217 140.867 131.267 140.887C131.317 140.906 131.357 140.944 131.379 140.992Z" fill="white"/>
<path d="M121.105 138.218C121.183 138.139 121.278 138.1 121.317 138.147C121.356 138.194 121.317 138.281 121.246 138.36C121.175 138.438 121.073 138.477 121.034 138.43C120.995 138.383 121.042 138.336 121.105 138.218Z" fill="white"/>
<path d="M151.263 169.163C151.153 169.203 151.004 169.045 150.925 168.825C150.847 168.605 150.87 168.393 150.98 168.354C151.09 168.314 151.232 168.472 151.31 168.692C151.389 168.912 151.365 169.124 151.263 169.163Z" fill="white"/>
<path d="M153.08 164.722C152.978 164.769 152.884 164.777 152.86 164.722C152.836 164.667 152.907 164.612 153.002 164.557C153.096 164.502 153.206 164.502 153.222 164.557C153.237 164.612 153.182 164.667 153.08 164.722Z" fill="white"/>
<path d="M148.269 162.607C148.244 162.6 148.221 162.587 148.201 162.569C148.182 162.552 148.166 162.531 148.155 162.508C148.143 162.484 148.137 162.458 148.137 162.432C148.136 162.406 148.141 162.38 148.151 162.356C148.16 162.331 148.175 162.309 148.193 162.29C148.211 162.271 148.233 162.256 148.257 162.246C148.281 162.236 148.307 162.231 148.334 162.23C148.36 162.23 148.386 162.236 148.41 162.246C148.46 162.265 148.5 162.303 148.522 162.352C148.544 162.4 148.546 162.455 148.528 162.505C148.519 162.53 148.504 162.552 148.486 162.571C148.468 162.589 148.445 162.604 148.421 162.614C148.397 162.623 148.37 162.628 148.344 162.627C148.318 162.625 148.292 162.619 148.269 162.607Z" fill="white"/>
<path d="M147.618 172.134C147.577 172.071 147.532 172.011 147.484 171.953C147.53 171.893 147.572 171.83 147.61 171.764C147.665 171.662 147.893 171.717 147.893 171.945C147.893 172.173 147.673 172.259 147.618 172.134Z" fill="white"/>
<path d="M144.292 169.524C144.248 169.537 144.2 169.537 144.156 169.524C144.111 169.51 144.072 169.482 144.044 169.445C144.015 169.409 143.999 169.364 143.996 169.317C143.994 169.271 144.006 169.225 144.031 169.185C144.055 169.146 144.092 169.115 144.134 169.096C144.177 169.078 144.225 169.073 144.27 169.083C144.316 169.092 144.358 169.116 144.39 169.149C144.422 169.183 144.442 169.226 144.449 169.272C144.461 169.326 144.451 169.383 144.422 169.43C144.393 169.477 144.346 169.51 144.292 169.524Z" fill="white"/>
<path d="M143.171 174.554C143.06 174.507 143.053 174.271 143.037 174.012C143.021 173.752 143.037 173.517 143.1 173.462C143.163 173.406 143.422 173.627 143.446 173.988C143.469 174.35 143.273 174.601 143.171 174.554Z" fill="white"/>
<path d="M137.989 174.396C137.911 174.318 137.942 174.145 137.989 173.98C138.036 173.815 138.068 173.642 138.178 173.602C138.288 173.563 138.453 173.768 138.39 174.066C138.327 174.365 138.06 174.491 137.989 174.396Z" fill="white"/>
<path d="M135.45 169.603C135.34 169.603 135.246 169.556 135.246 169.493C135.246 169.43 135.34 169.383 135.45 169.383C135.56 169.383 135.655 169.43 135.655 169.493C135.655 169.556 135.56 169.603 135.45 169.603Z" fill="white"/>
<path d="M138.642 178.059C138.563 178.138 138.461 178.169 138.422 178.122C138.382 178.075 138.422 177.989 138.5 177.91C138.579 177.831 138.681 177.8 138.72 177.839C138.76 177.878 138.728 177.981 138.642 178.059Z" fill="white"/>
<path d="M159.556 169.06C159.527 169.013 159.516 168.956 159.528 168.902C159.54 168.848 159.573 168.8 159.619 168.769C159.641 168.753 159.666 168.741 159.693 168.734C159.72 168.728 159.747 168.727 159.775 168.731C159.802 168.736 159.828 168.745 159.851 168.76C159.874 168.775 159.894 168.794 159.91 168.817C159.926 168.84 159.937 168.866 159.942 168.893C159.948 168.92 159.947 168.948 159.941 168.976C159.935 169.003 159.924 169.029 159.908 169.051C159.892 169.074 159.871 169.093 159.847 169.107C159.802 169.139 159.746 169.151 159.692 169.143C159.638 169.134 159.589 169.104 159.556 169.06Z" fill="white"/>
<path d="M157.531 165.602C157.504 165.607 157.477 165.607 157.451 165.601C157.425 165.594 157.4 165.582 157.379 165.565C157.359 165.548 157.342 165.527 157.33 165.503C157.319 165.478 157.312 165.452 157.312 165.425C157.312 165.398 157.319 165.371 157.33 165.347C157.342 165.323 157.359 165.301 157.379 165.284C157.4 165.268 157.425 165.255 157.451 165.249C157.477 165.243 157.504 165.242 157.531 165.248C157.557 165.242 157.584 165.243 157.611 165.249C157.637 165.255 157.661 165.268 157.682 165.284C157.703 165.301 157.72 165.323 157.731 165.347C157.743 165.371 157.749 165.398 157.749 165.425C157.749 165.452 157.743 165.478 157.731 165.503C157.72 165.527 157.703 165.548 157.682 165.565C157.661 165.582 157.637 165.594 157.611 165.601C157.584 165.607 157.557 165.607 157.531 165.602Z" fill="white"/>
<path d="M157.646 159.046C157.759 159.046 157.85 158.994 157.85 158.928C157.85 158.863 157.759 158.811 157.646 158.811C157.533 158.811 157.441 158.863 157.441 158.928C157.441 158.994 157.533 159.046 157.646 159.046Z" fill="white"/>
<path d="M167.653 183.232C167.61 183.19 167.586 183.132 167.586 183.071C167.586 183.011 167.61 182.953 167.653 182.91C167.673 182.888 167.698 182.87 167.726 182.858C167.754 182.846 167.784 182.84 167.814 182.84C167.844 182.84 167.874 182.846 167.902 182.858C167.929 182.87 167.954 182.888 167.975 182.91C168.018 182.953 168.042 183.011 168.042 183.071C168.042 183.132 168.018 183.19 167.975 183.232C167.931 183.273 167.874 183.296 167.814 183.296C167.754 183.296 167.696 183.273 167.653 183.232Z" fill="white"/>
<path d="M163.967 187.524C163.938 187.522 163.909 187.515 163.882 187.501C163.856 187.488 163.832 187.469 163.813 187.446C163.794 187.423 163.78 187.397 163.771 187.369C163.763 187.34 163.76 187.31 163.763 187.281C163.761 187.252 163.764 187.223 163.774 187.195C163.783 187.168 163.797 187.142 163.816 187.12C163.835 187.098 163.858 187.08 163.884 187.068C163.91 187.055 163.938 187.047 163.967 187.045C164.025 187.051 164.078 187.079 164.116 187.122C164.154 187.166 164.174 187.223 164.172 187.281C164.176 187.34 164.157 187.399 164.119 187.444C164.081 187.49 164.026 187.518 163.967 187.524Z" fill="white"/>
<path d="M165.665 193.716C165.547 193.716 165.461 193.661 165.461 193.598C165.461 193.536 165.547 193.473 165.665 193.473C165.783 193.473 165.87 193.528 165.87 193.598C165.87 193.669 165.775 193.716 165.665 193.716Z" fill="white"/>
<path d="M164.579 183.711C164.469 183.711 164.406 183.522 164.438 183.318C164.469 183.113 164.587 182.98 164.697 182.995C164.807 183.011 164.87 183.192 164.839 183.388C164.807 183.585 164.689 183.726 164.579 183.711Z" fill="white"/>
<path d="M160.028 191.564C159.956 191.484 159.917 191.38 159.918 191.273C159.918 191.164 159.957 191.058 160.028 190.974C160.107 190.888 160.335 191.014 160.327 191.273C160.319 191.532 160.099 191.65 160.028 191.564Z" fill="white"/>
<path d="M167.56 190.25C167.531 190.254 167.502 190.253 167.473 190.246C167.445 190.239 167.418 190.226 167.395 190.209C167.371 190.191 167.352 190.169 167.337 190.144C167.322 190.118 167.313 190.09 167.309 190.061C167.294 190.033 167.286 190.001 167.285 189.969C167.285 189.937 167.291 189.905 167.305 189.875C167.318 189.846 167.338 189.82 167.363 189.8C167.388 189.779 167.417 189.765 167.449 189.758C167.48 189.75 167.513 189.75 167.544 189.757C167.576 189.764 167.605 189.779 167.63 189.799C167.655 189.819 167.676 189.845 167.689 189.874C167.703 189.903 167.71 189.935 167.71 189.967C167.725 190.024 167.718 190.085 167.69 190.138C167.663 190.19 167.616 190.23 167.56 190.25Z" fill="white"/>
<path d="M150.025 197.765C149.915 197.765 149.852 197.474 149.883 197.152C149.915 196.83 150.032 196.563 150.15 196.57C150.268 196.578 150.323 196.861 150.292 197.191C150.26 197.522 150.127 197.773 150.025 197.765Z" fill="white"/>
<path d="M156.13 201.435C156.036 201.506 155.879 201.435 155.785 201.318C155.69 201.2 155.682 201.027 155.785 200.956C155.887 200.885 156.028 200.956 156.123 201.074C156.217 201.192 156.217 201.373 156.13 201.435Z" fill="white"/>
<path d="M159.671 196.569C159.751 196.49 159.763 196.373 159.699 196.308C159.634 196.244 159.517 196.256 159.437 196.336C159.358 196.416 159.345 196.533 159.41 196.597C159.474 196.662 159.591 196.649 159.671 196.569Z" fill="white"/>
<path d="M167.298 202.889C167.283 202.912 167.263 202.931 167.239 202.946C167.216 202.96 167.19 202.97 167.163 202.974C167.136 202.979 167.108 202.978 167.081 202.971C167.055 202.965 167.03 202.953 167.008 202.936C166.96 202.907 166.926 202.86 166.912 202.805C166.899 202.751 166.908 202.693 166.937 202.645C166.953 202.622 166.974 202.603 166.998 202.588C167.022 202.574 167.049 202.564 167.076 202.559C167.104 202.555 167.133 202.556 167.16 202.563C167.187 202.569 167.213 202.581 167.236 202.598C167.282 202.629 167.315 202.676 167.327 202.731C167.338 202.785 167.328 202.842 167.298 202.889Z" fill="white"/>
<path d="M173.131 210.749C173.036 210.796 172.871 210.678 172.769 210.482C172.667 210.285 172.675 210.081 172.769 210.034C172.863 209.987 173.028 210.105 173.131 210.301C173.233 210.498 173.233 210.694 173.131 210.749Z" fill="white"/>
<path d="M170.159 200.265C170.057 200.328 169.852 200.163 169.687 199.896C169.522 199.629 169.467 199.377 169.562 199.314C169.656 199.251 169.868 199.416 170.033 199.684C170.198 199.951 170.253 200.21 170.159 200.265Z" fill="white"/>
<path d="M163.032 200.476C163.072 200.437 163.127 200.406 163.111 200.358C163.11 200.348 163.105 200.337 163.098 200.329C163.091 200.32 163.082 200.314 163.072 200.311C163.072 200.311 163.072 200.311 163.127 200.351C163.182 200.39 163.205 200.311 163.245 200.272C163.284 200.233 163.355 200.217 163.41 200.272C163.435 200.32 163.444 200.375 163.436 200.429C163.427 200.483 163.402 200.533 163.362 200.571C163.324 200.61 163.274 200.635 163.22 200.642C163.166 200.649 163.111 200.638 163.064 200.61C163.043 200.596 163.028 200.574 163.022 200.549C163.016 200.524 163.02 200.498 163.032 200.476Z" fill="white"/>
<path d="M162.441 208.848C162.391 208.843 162.344 208.824 162.306 208.792C162.268 208.76 162.241 208.718 162.228 208.67C162.214 208.622 162.216 208.571 162.232 208.525C162.249 208.478 162.279 208.437 162.319 208.408C162.359 208.379 162.407 208.363 162.457 208.361C162.506 208.36 162.555 208.374 162.597 208.402C162.638 208.429 162.67 208.468 162.688 208.514C162.707 208.56 162.711 208.611 162.7 208.659C162.696 208.689 162.686 208.718 162.671 208.743C162.656 208.769 162.635 208.792 162.611 208.809C162.587 208.827 162.559 208.84 162.53 208.846C162.5 208.853 162.47 208.853 162.441 208.848Z" fill="white"/>
<path d="M165.75 215.513C165.75 215.623 165.491 215.663 165.326 215.458C165.161 215.254 165.271 215.018 165.389 215.034C165.495 215.059 165.59 215.12 165.656 215.207C165.723 215.295 165.756 215.403 165.75 215.513Z" fill="white"/>
<path d="M168.367 212.659C168.312 212.762 168.045 212.707 167.911 212.431C167.778 212.156 167.911 211.913 168.021 211.944C168.132 211.976 168.21 212.109 168.281 212.259C168.352 212.408 168.422 212.565 168.367 212.659Z" fill="white"/>
<path d="M175.535 218.507C175.457 218.594 175.181 218.444 174.914 218.177C174.647 217.91 174.506 217.635 174.584 217.556C174.663 217.478 174.938 217.627 175.205 217.886C175.472 218.146 175.614 218.389 175.535 218.507Z" fill="white"/>
<path d="M174.124 205.885C174.046 205.807 173.998 205.704 173.99 205.594C173.98 205.485 174.011 205.375 174.077 205.287C174.14 205.193 174.375 205.287 174.399 205.563C174.423 205.838 174.21 205.932 174.124 205.885Z" fill="white"/>
<path d="M168.856 207.299C168.762 207.244 168.762 207.064 168.856 206.899C168.95 206.734 169.115 206.647 169.21 206.702C169.304 206.757 169.304 206.946 169.21 207.111C169.115 207.276 168.99 207.362 168.856 207.299Z" fill="white"/>
<path d="M177.747 213.367C177.637 213.367 177.543 213.319 177.543 213.249C177.543 213.178 177.637 213.131 177.747 213.131C177.857 213.131 177.952 213.186 177.952 213.249C177.952 213.312 177.865 213.367 177.747 213.367Z" fill="white"/>
<path d="M170.16 215.364C170.066 215.301 170.097 215.089 170.223 214.892C170.349 214.696 170.538 214.586 170.632 214.649C170.726 214.711 170.695 214.924 170.569 215.12C170.443 215.317 170.255 215.458 170.16 215.364Z" fill="white"/>
<path d="M164.446 220.159C164.336 220.214 164.186 219.954 164.391 219.75C164.595 219.546 164.854 219.687 164.799 219.805C164.767 219.884 164.728 219.961 164.681 220.033C164.609 220.085 164.529 220.127 164.446 220.159Z" fill="white"/>
<path d="M157.984 219.293C158.031 219.199 158.275 219.238 158.377 219.482C158.479 219.726 158.33 219.93 158.22 219.891C158.11 219.851 158.047 219.741 158 219.639C157.972 219.586 157.956 219.528 157.954 219.468C157.951 219.408 157.961 219.349 157.984 219.293Z" fill="white"/>
<path d="M153.709 221.25C153.757 221.14 153.977 221.14 154.212 221.25C154.448 221.361 154.59 221.51 154.543 221.612C154.495 221.714 154.275 221.722 154.047 221.612C153.819 221.502 153.67 221.353 153.709 221.25Z" fill="white"/>
<path d="M158.722 214.327C158.809 214.248 159.013 214.327 159.178 214.547C159.343 214.767 159.406 214.963 159.312 215.034C159.218 215.105 159.029 215.034 158.864 214.814C158.699 214.594 158.636 214.397 158.722 214.327Z" fill="white"/>
<path d="M154.33 215.27C154.44 215.27 154.55 215.364 154.589 215.529C154.629 215.694 154.589 215.843 154.448 215.867C154.306 215.89 154.22 215.773 154.188 215.608C154.157 215.442 154.212 215.293 154.33 215.27Z" fill="white"/>
<path d="M155.753 208.479C155.863 208.44 155.997 208.542 156.068 208.699C156.138 208.856 156.068 209.037 155.997 209.077C155.926 209.116 155.753 209.021 155.683 208.856C155.612 208.691 155.628 208.526 155.753 208.479Z" fill="white"/>
<path d="M158.961 204.533C158.961 204.423 159.134 204.329 159.236 204.14C159.338 203.952 159.362 203.779 159.456 203.716C159.55 203.653 159.59 203.716 159.645 203.857C159.67 203.94 159.678 204.026 159.667 204.112C159.656 204.197 159.627 204.279 159.582 204.352C159.539 204.427 159.48 204.491 159.409 204.54C159.339 204.589 159.258 204.621 159.173 204.635C159.04 204.643 158.961 204.588 158.961 204.533Z" fill="white"/>
<path d="M150.408 203.849C150.306 203.81 150.282 203.637 150.353 203.48C150.424 203.322 150.565 203.22 150.668 203.267C150.77 203.315 150.801 203.48 150.723 203.637C150.644 203.794 150.51 203.896 150.408 203.849Z" fill="white"/>
<path d="M155.15 194.433C155.04 194.433 154.945 194.3 154.945 194.135C154.945 193.97 155.04 193.836 155.15 193.836C155.26 193.836 155.354 193.97 155.354 194.135C155.354 194.3 155.26 194.433 155.15 194.433Z" fill="white"/>
<path d="M144.661 206.222C144.559 206.183 144.582 205.876 144.716 205.554C144.85 205.232 145.038 204.988 145.14 205.028C145.243 205.067 145.227 205.373 145.093 205.704C144.96 206.034 144.771 206.262 144.661 206.222Z" fill="white"/>
<path d="M148.467 210.263C148.428 210.224 148.398 210.177 148.379 210.125C148.36 210.074 148.352 210.019 148.356 209.964C148.358 209.908 148.37 209.853 148.393 209.801C148.416 209.75 148.449 209.704 148.49 209.665C148.577 209.595 148.781 209.728 148.765 209.98C148.749 210.231 148.553 210.341 148.467 210.263Z" fill="white"/>
<path d="M148.836 216.464C148.836 216.402 148.861 216.342 148.905 216.298C148.949 216.253 149.009 216.229 149.072 216.229C149.134 216.229 149.194 216.253 149.238 216.298C149.283 216.342 149.308 216.402 149.308 216.464C149.308 216.527 149.283 216.587 149.238 216.631C149.194 216.675 149.134 216.7 149.072 216.7C149.009 216.7 148.949 216.675 148.905 216.631C148.861 216.587 148.836 216.527 148.836 216.464Z" fill="white"/>
<path d="M144.418 214.671C144.347 214.577 144.488 214.349 144.575 214.066C144.661 213.783 144.701 213.516 144.811 213.485C144.921 213.453 145.101 213.775 144.968 214.192C144.834 214.609 144.48 214.766 144.418 214.671Z" fill="white"/>
<path d="M147.051 220.755C147.056 220.72 147.07 220.687 147.093 220.661C147.116 220.634 147.146 220.615 147.179 220.605C147.213 220.595 147.249 220.595 147.282 220.605C147.316 220.615 147.346 220.635 147.368 220.662C147.391 220.688 147.405 220.721 147.41 220.756C147.414 220.791 147.408 220.826 147.393 220.857C147.378 220.889 147.353 220.915 147.324 220.933C147.294 220.951 147.259 220.96 147.224 220.959C147.175 220.953 147.129 220.929 147.097 220.891C147.065 220.853 147.049 220.804 147.051 220.755Z" fill="white"/>
<path d="M139.781 217.777C139.781 217.667 139.993 217.572 140.261 217.572C140.528 217.572 140.732 217.667 140.732 217.777C140.732 217.887 140.52 217.981 140.261 217.981C140.001 217.981 139.781 217.887 139.781 217.777Z" fill="white"/>
<path d="M137.996 210.985C138.098 210.946 138.239 211.04 138.302 211.206C138.365 211.371 138.302 211.544 138.231 211.583C138.161 211.622 137.988 211.528 137.925 211.363C137.862 211.198 137.886 211.033 137.996 210.985Z" fill="white"/>
<path d="M139.749 203.738C139.851 203.683 140.016 203.801 140.11 203.998C140.205 204.194 140.212 204.391 140.11 204.446C140.008 204.501 139.843 204.383 139.741 204.186C139.639 203.99 139.646 203.785 139.749 203.738Z" fill="white"/>
<path d="M142.995 201.342C142.917 201.255 143.09 200.957 143.388 200.658C143.687 200.359 143.986 200.186 144.072 200.265C144.159 200.344 143.978 200.65 143.679 200.949C143.381 201.248 143.051 201.42 142.995 201.342Z" fill="white"/>
<path d="M131.2 204.423C131.161 204.35 131.13 204.274 131.105 204.195C131.131 204.113 131.165 204.033 131.208 203.959C131.208 203.849 131.522 203.959 131.514 204.195C131.506 204.43 131.263 204.541 131.2 204.423Z" fill="white"/>
<path d="M134.902 209.076C134.824 208.99 134.949 208.762 135.185 208.557C135.421 208.353 135.657 208.274 135.735 208.361C135.814 208.447 135.68 208.675 135.452 208.872C135.225 209.068 134.973 209.17 134.902 209.076Z" fill="white"/>
<path d="M129.326 212.132C129.389 212.038 129.57 212.046 129.727 212.132C129.884 212.219 129.971 212.392 129.916 212.486C129.861 212.58 129.672 212.58 129.507 212.486C129.342 212.392 129.263 212.219 129.326 212.132Z" fill="white"/>
<path d="M133.941 216.708C133.941 216.59 134.106 216.504 134.303 216.504C134.499 216.504 134.657 216.59 134.657 216.708C134.657 216.826 134.499 216.913 134.303 216.913C134.106 216.913 133.941 216.818 133.941 216.708Z" fill="white"/>
<path d="M128.583 220.755C128.544 220.645 128.756 220.472 128.992 220.26C129.227 220.048 129.44 219.867 129.542 219.922C129.644 219.977 129.542 220.307 129.267 220.567C128.992 220.826 128.622 220.865 128.583 220.755Z" fill="white"/>
<path d="M121.908 220.307C121.908 220.197 122.356 220.221 122.851 220.362C123.346 220.504 123.716 220.7 123.684 220.81C123.653 220.92 123.229 220.897 122.741 220.755C122.254 220.614 121.877 220.417 121.908 220.307Z" fill="white"/>
<path d="M123.935 213.846C124.021 213.768 124.242 213.846 124.438 214.058C124.635 214.271 124.729 214.483 124.65 214.562C124.572 214.64 124.352 214.562 124.147 214.349C123.943 214.137 123.856 213.925 123.935 213.846Z" fill="white"/>
<path d="M121.279 208.965C121.397 208.965 121.491 209.193 121.507 209.491C121.523 209.79 121.428 210.026 121.318 210.034C121.208 210.042 121.106 209.798 121.098 209.507C121.09 209.216 121.169 208.965 121.279 208.965Z" fill="white"/>
<path d="M125.109 205.043C125.211 204.995 125.423 205.255 125.588 205.616C125.753 205.978 125.8 206.308 125.698 206.355C125.596 206.402 125.376 206.143 125.219 205.781C125.062 205.42 124.975 205.09 125.109 205.043Z" fill="white"/>
<path d="M126.159 198.371C126.277 198.371 126.419 198.654 126.489 199.047C126.56 199.44 126.489 199.778 126.419 199.794C126.348 199.809 126.159 199.511 126.089 199.118C126.018 198.725 126.049 198.387 126.159 198.371Z" fill="white"/>
<path d="M134.192 203.337C134.231 203.227 134.357 203.172 134.467 203.077C134.577 202.983 134.687 202.897 134.805 202.889C134.923 202.881 134.994 203.203 134.711 203.408C134.428 203.612 134.129 203.439 134.192 203.337Z" fill="white"/>
<path d="M122.153 202.645C122.118 202.641 122.086 202.626 122.059 202.603C122.033 202.58 122.013 202.55 122.003 202.517C121.994 202.483 121.994 202.448 122.004 202.414C122.014 202.38 122.033 202.351 122.06 202.328C122.087 202.305 122.12 202.291 122.154 202.287C122.189 202.282 122.224 202.288 122.256 202.303C122.287 202.319 122.314 202.343 122.332 202.373C122.35 202.403 122.359 202.437 122.358 202.472C122.352 202.522 122.327 202.567 122.289 202.599C122.251 202.631 122.203 202.647 122.153 202.645Z" fill="white"/>
<path d="M126.201 218.61C126.106 218.673 125.925 218.563 125.792 218.366C125.658 218.17 125.635 217.958 125.729 217.895C125.823 217.832 126.004 217.942 126.138 218.138C126.271 218.335 126.295 218.547 126.201 218.61Z" fill="white"/>
<path d="M135.976 220.637C135.94 220.671 135.892 220.69 135.842 220.69C135.793 220.69 135.745 220.671 135.709 220.637C135.675 220.601 135.656 220.553 135.656 220.504C135.656 220.454 135.675 220.406 135.709 220.37C135.744 220.337 135.79 220.318 135.838 220.318C135.887 220.318 135.933 220.337 135.968 220.37C135.986 220.387 136.001 220.407 136.011 220.43C136.021 220.453 136.027 220.477 136.027 220.502C136.028 220.527 136.024 220.552 136.015 220.575C136.006 220.598 135.993 220.619 135.976 220.637Z" fill="white"/>
<path d="M118.685 222.541C118.575 222.541 118.457 222.415 118.425 222.218C118.394 222.022 118.425 221.841 118.567 221.825C118.708 221.81 118.795 221.951 118.826 222.148C118.857 222.344 118.826 222.517 118.685 222.541Z" fill="white"/>
<path d="M169.265 179.208C169.224 179.151 169.205 179.081 169.212 179.011C169.22 178.942 169.253 178.877 169.305 178.83C169.415 178.697 169.58 178.649 169.666 178.72C169.753 178.791 169.729 178.964 169.619 179.098C169.509 179.231 169.352 179.278 169.265 179.208Z" fill="white"/>
<path d="M158.919 153.356C159.022 153.293 159.218 153.443 159.375 153.686C159.533 153.93 159.58 154.181 159.485 154.244C159.391 154.307 159.187 154.15 159.03 153.906C158.872 153.663 158.825 153.419 158.919 153.356Z" fill="white"/>
<path d="M155.792 149.748C155.845 149.73 155.903 149.733 155.955 149.756C156.006 149.78 156.046 149.822 156.067 149.874C156.088 149.925 156.089 149.982 156.068 150.034C156.047 150.085 156.008 150.127 155.957 150.149C155.931 150.16 155.903 150.166 155.874 150.165C155.846 150.165 155.818 150.159 155.792 150.147C155.766 150.135 155.743 150.118 155.724 150.097C155.705 150.075 155.691 150.05 155.682 150.023C155.663 149.972 155.663 149.915 155.684 149.864C155.704 149.814 155.743 149.772 155.792 149.748Z" fill="white"/>
<path d="M159.888 145.347C159.999 145.347 160.077 145.512 160.054 145.693C160.03 145.874 159.92 145.999 159.81 145.984C159.7 145.968 159.621 145.819 159.645 145.638C159.668 145.457 159.778 145.331 159.888 145.347Z" fill="white"/>
<path d="M154.415 144.059C154.525 144.059 154.62 144.114 154.62 144.176C154.62 144.239 154.525 144.302 154.415 144.302C154.305 144.302 154.211 144.247 154.211 144.176C154.211 144.106 154.305 144.059 154.415 144.059Z" fill="white"/>
<path d="M151.446 137.801C151.509 137.707 151.619 137.667 151.682 137.707C151.745 137.746 151.753 137.864 151.682 137.958C151.662 138 151.626 138.033 151.583 138.051C151.539 138.068 151.49 138.069 151.446 138.052C151.416 138.018 151.398 137.973 151.398 137.927C151.398 137.88 151.416 137.835 151.446 137.801Z" fill="white"/>
<path d="M154.74 137.479C154.757 137.456 154.778 137.435 154.802 137.42C154.827 137.404 154.854 137.393 154.882 137.388C154.911 137.383 154.94 137.384 154.968 137.39C154.996 137.396 155.023 137.408 155.047 137.424C155.094 137.452 155.128 137.498 155.141 137.551C155.154 137.604 155.146 137.66 155.118 137.707C155.089 137.754 155.044 137.788 154.991 137.801C154.938 137.814 154.882 137.806 154.835 137.778C154.809 137.765 154.786 137.746 154.767 137.724C154.748 137.702 154.734 137.676 154.725 137.648C154.716 137.621 154.713 137.591 154.716 137.562C154.718 137.533 154.727 137.505 154.74 137.479Z" fill="white"/>
<path d="M168.203 174.492C168.203 174.492 174.648 167.418 175.081 165.06C175.219 164.424 175.127 163.759 174.822 163.183C174.517 162.608 174.019 162.159 173.414 161.916C173.414 161.916 173.493 159.982 172.188 159.967C172.188 159.967 171.198 159.251 170.302 158.513C169.854 158.143 170.388 156.06 168.211 155.266C166.824 154.799 165.322 154.799 163.935 155.266C164.063 154.985 164.078 154.665 163.977 154.373C163.876 154.08 163.667 153.838 163.393 153.694C162.827 153.411 162.135 153.191 161.687 153.498C160.823 154.095 157.757 158.403 157.71 159.55C157.71 161.122 157.191 165.728 157.191 165.728L158.26 168.715" fill="#FFBE9D"/>
<path d="M158.245 168.762C158.114 168.511 158.006 168.248 157.923 167.976C157.719 167.426 157.436 166.695 157.082 165.768C157.168 164.722 157.271 163.457 157.396 162.003C157.444 161.264 157.514 160.431 157.53 159.645C157.579 159.192 157.724 158.756 157.954 158.363C158.151 157.963 158.387 157.577 158.63 157.169C159.14 156.355 159.691 155.568 160.281 154.811C160.595 154.4 160.934 154.009 161.295 153.64C161.4 153.536 161.516 153.444 161.641 153.365C161.78 153.291 161.932 153.245 162.089 153.231C162.381 153.217 162.673 153.265 162.946 153.372C163.228 153.455 163.494 153.585 163.732 153.758C163.977 153.956 164.144 154.234 164.203 154.544C164.231 154.7 164.231 154.859 164.203 155.015C164.192 155.095 164.174 155.174 164.148 155.251V155.361C163.637 154.819 164.015 155.212 163.897 155.086H163.952C164.224 154.996 164.502 154.925 164.785 154.874C165.943 154.639 167.142 154.718 168.259 155.102C168.835 155.288 169.337 155.654 169.689 156.147C170.003 156.636 170.202 157.189 170.271 157.766C170.282 157.988 170.341 158.206 170.444 158.403L171.073 158.89L172.315 159.841H172.197C172.46 159.842 172.716 159.928 172.928 160.085C173.123 160.239 173.277 160.439 173.376 160.666C173.548 161.088 173.631 161.54 173.619 161.995L173.494 161.814C174.047 162.048 174.521 162.435 174.861 162.93C175.185 163.409 175.345 163.98 175.317 164.557C175.302 165.107 175.156 165.646 174.893 166.129C174.66 166.568 174.397 166.991 174.107 167.395C173.182 168.759 172.183 170.071 171.112 171.325C170.224 172.378 169.493 173.187 168.99 173.738L168.4 174.359C168.267 174.492 168.188 174.563 168.18 174.555C168.229 174.468 168.287 174.386 168.353 174.311L168.896 173.659C169.375 173.085 170.075 172.244 170.931 171.175C171.788 170.106 172.826 168.817 173.84 167.245C174.431 166.48 174.808 165.571 174.932 164.612C174.955 164.108 174.811 163.611 174.523 163.197C174.222 162.769 173.809 162.431 173.329 162.223L173.203 162.168V162.042C173.212 161.646 173.14 161.253 172.991 160.887C172.928 160.715 172.815 160.566 172.666 160.46C172.517 160.353 172.34 160.294 172.158 160.289H172.134H172.087L170.837 159.33L170.2 158.835C170.002 158.586 169.889 158.28 169.878 157.963C169.821 157.445 169.646 156.948 169.367 156.509C169.06 156.085 168.624 155.771 168.125 155.612C167.076 155.253 165.95 155.18 164.863 155.4C164.597 155.445 164.334 155.511 164.077 155.597H164.03C163.92 155.479 164.282 155.872 163.771 155.33V155.251C163.79 155.197 163.806 155.142 163.818 155.086C163.838 154.974 163.838 154.86 163.818 154.748C163.814 154.616 163.783 154.486 163.726 154.367C163.669 154.248 163.588 154.142 163.488 154.056C163.284 153.918 163.062 153.809 162.828 153.734C162.608 153.646 162.372 153.606 162.136 153.616C162.028 153.623 161.923 153.653 161.827 153.703C161.731 153.753 161.646 153.823 161.578 153.907C161.228 154.261 160.9 154.636 160.595 155.031C159.982 155.817 159.432 156.603 158.937 157.389C158.701 157.774 158.465 158.175 158.269 158.544C158.06 158.893 157.923 159.281 157.868 159.684C157.868 160.533 157.758 161.319 157.695 162.042C157.554 163.512 157.412 164.785 157.294 165.799L158.08 168.039C158.154 168.275 158.209 168.517 158.245 168.762Z" fill="#EB996E"/>
<path d="M158.329 168.47L136.934 178.877L124.358 151.084L120.751 143.397C117.89 139.105 111.523 138.633 109.865 143.522C109.81 143.68 109.762 143.829 109.723 143.986C108.151 149.693 111.782 167.818 120.68 181.282C129.578 194.746 131.016 200.146 138.758 197.859C146.5 195.571 168.202 174.491 168.202 174.491" fill="#FFBE9D"/>
<path d="M168.202 174.492C168.202 174.492 168.1 174.61 167.88 174.83L166.905 175.797C166.048 176.638 164.759 177.864 163.085 179.428C159.721 182.525 154.871 187.053 148.418 192.099C147.632 192.712 146.776 193.364 145.895 193.977L144.567 194.92L143.168 195.824C142.7 196.143 142.215 196.434 141.714 196.697C141.204 196.986 140.679 197.249 140.142 197.483C139.049 197.984 137.885 198.313 136.691 198.457C135.444 198.653 134.166 198.483 133.013 197.97C131.869 197.382 130.848 196.582 130.002 195.612C128.334 193.559 126.81 191.393 125.444 189.128C123.989 186.84 122.528 184.49 120.971 182.132C120.19 180.943 119.431 179.724 118.692 178.477C117.977 177.22 117.253 175.946 116.617 174.618C115.273 171.935 114.097 169.17 113.096 166.342C112.045 163.433 111.168 160.465 110.47 157.452C109.937 155.119 109.541 152.757 109.283 150.378C109.244 149.788 109.205 149.191 109.158 148.601C109.111 148.012 109.158 147.422 109.158 146.833C109.158 146.243 109.228 145.654 109.299 145.064C109.389 144.479 109.531 143.903 109.724 143.343C110.111 142.205 110.884 141.237 111.909 140.608C112.929 140.012 114.113 139.756 115.288 139.877C116.42 140.005 117.509 140.38 118.48 140.975C119.451 141.569 120.28 142.37 120.908 143.32C124.178 150.189 127.094 156.729 129.782 162.702L137.045 178.823L136.856 178.76L152.576 171.168L156.813 169.148L157.913 168.629L158.298 168.472L157.937 168.668C157.677 168.794 157.316 168.975 156.852 169.218L152.647 171.301L136.927 179.004L136.801 179.067L136.746 178.941C134.593 174.225 132.132 168.81 129.421 162.844C126.709 156.878 123.785 150.346 120.508 143.485C119.911 142.587 119.126 141.831 118.207 141.269C117.288 140.706 116.257 140.352 115.186 140.231C114.094 140.116 112.994 140.35 112.042 140.899C111.096 141.484 110.384 142.382 110.03 143.437C109.841 143.971 109.705 144.521 109.621 145.08C109.551 145.646 109.519 146.22 109.488 146.794C109.456 147.367 109.488 147.957 109.488 148.539L109.606 150.291C109.863 152.671 110.259 155.033 110.793 157.365C111.482 160.361 112.353 163.311 113.402 166.2C114.395 169.016 115.563 171.767 116.9 174.437C117.529 175.758 118.252 177.023 118.951 178.281C119.651 179.538 120.445 180.725 121.215 181.912C122.787 184.27 124.233 186.628 125.687 188.923C127.034 191.176 128.539 193.329 130.191 195.368C130.995 196.314 131.978 197.091 133.084 197.656C134.177 198.146 135.389 198.31 136.573 198.127C137.734 197.992 138.866 197.676 139.93 197.192C140.464 196.988 140.944 196.665 141.447 196.406C141.945 196.15 142.428 195.864 142.893 195.549L144.284 194.653L145.604 193.726C146.493 193.121 147.31 192.468 148.128 191.855C154.588 186.856 159.477 182.368 162.873 179.279L166.74 175.703L167.746 174.767L168.202 174.492Z" fill="#EB996E"/>
<path d="M135.779 186.046C135.65 184.812 135.716 183.565 135.976 182.352C136.111 181.117 136.437 179.91 136.942 178.775C136.833 179.999 136.644 181.215 136.376 182.415C136.257 183.637 136.057 184.85 135.779 186.046Z" fill="#EB996E"/>
<path d="M159.895 160.806C160.162 159.665 160.701 158.605 161.467 157.717C162.118 156.739 162.994 155.931 164.021 155.359C164.1 155.454 162.921 156.444 161.789 157.937C160.657 159.431 160.005 160.854 159.895 160.806Z" fill="#EB996E"/>
</svg>
