<svg width="140" height="140" viewBox="0 0 140 140" fill="none" xmlns="http://www.w3.org/2000/svg">
<g clip-path="url(#clip0_205_9107)">
<path d="M19.2923 86.8047L29.4141 126.202C30.2529 129.808 33.8319 132.045 37.4389 131.207C37.4668 131.207 37.4948 131.207 37.5227 131.179L43.786 129.585C47.3929 128.606 49.5459 124.943 48.6512 121.308L40.8221 89.405L19.2923 86.8047Z" fill="#02648E"/>
<path d="M0.111832 71.034L1.37007 79.8137C2.12501 84.9864 6.93428 88.5934 12.135 87.8384L19.293 86.8039L14.5955 59.3184L8.13659 60.269C2.96383 61.024 -0.643112 65.8332 0.111832 71.034Z" fill="#02648E"/>
<path d="M55.6143 111.578L46.8066 113.787L41.9694 94.5215L56.7048 106.125C58.7179 107.719 58.0748 110.962 55.6143 111.578Z" fill="#D22732"/>
<path d="M14.595 59.3187L19.2924 86.8042L40.7943 89.4046L49.4062 90.7467C46.3306 83.2253 44.1776 75.3403 43.0032 67.2876C41.9407 60.1296 41.6891 52.8877 42.2203 45.6738L14.595 59.3187Z" fill="#1F315F"/>
<path d="M67.106 63.1774C69.0073 76.2351 73.2853 87.6432 78.5699 95.2765C83.3792 102.239 89.0552 106.097 94.5356 105.286C98.5619 104.699 101.945 101.707 104.518 96.9821C103.036 98.6877 101.302 99.7502 99.4007 100.002C96.2132 100.449 92.9418 98.6877 89.8661 95.2485C87.4615 92.5643 85.1687 88.8734 83.1275 84.3997C81.0864 79.9539 79.3528 74.7253 78.0107 68.9933C77.9268 68.5739 76.5288 61.2202 76.5288 61.2202C76.1932 58.9553 75.5501 51.8812 75.4942 50.595C75.0748 40.5571 76.2771 31.7774 78.8216 25.7378C80.8068 21.0404 83.6029 18.0766 86.9861 17.6012C88.4121 17.4055 89.8661 17.6572 91.2921 18.3003C88.0766 15.6999 84.6933 14.4976 81.366 14.9729C75.3544 15.8677 70.7409 22.1589 68.2244 31.4978C65.9036 40.0818 65.3444 51.2381 67.106 63.1774Z" fill="#1F315F"/>
<path d="M75.4938 50.5948C75.5497 51.881 76.1928 58.9551 76.5283 61.2199C76.5283 61.2199 77.9264 68.5736 78.0103 68.993C79.3524 74.725 81.086 79.9537 83.1271 84.3994C85.1403 88.8732 87.461 92.564 89.8657 95.2482C92.9693 98.6874 96.2128 100.449 99.4003 100.002C101.302 99.722 103.035 98.6874 104.517 96.9818C106.95 94.2137 108.767 89.684 109.83 84.008C109.83 84.008 112.234 72.0967 109.83 56.4665C107.173 38.7114 100.351 24.2277 93.1371 19.3345C92.5219 18.9151 91.9068 18.5796 91.2917 18.3C89.8377 17.6569 88.3837 17.4052 86.9857 17.601C83.6024 18.0763 80.8343 21.0401 78.8211 25.7376C76.2767 31.7771 75.0744 40.5568 75.4938 50.5948Z" fill="#F99615"/>
<path d="M75.7454 54.537C75.9131 56.718 76.1648 58.9549 76.5003 61.2197C76.5003 61.2197 77.2832 65.973 77.6467 67.7066C77.7306 68.126 77.8424 68.5734 77.9263 68.9928C83.5185 68.5734 89.4741 67.9023 90.1172 67.7905C95.0104 67.0915 98.4496 62.9533 97.8065 58.5634C97.1634 54.1736 92.6896 51.2097 87.7965 51.9087C87.1534 52.0765 81.1138 53.1949 75.7454 54.537Z" fill="#D22732"/>
<path d="M43.0311 67.2879C44.2055 75.3407 46.3584 83.1977 49.4341 90.7191L78.5693 95.2768C73.2847 87.6434 69.0067 76.2354 67.1054 63.1777C65.3438 51.2384 65.9031 40.082 68.2238 31.498L42.2482 45.6742C41.7169 52.8881 41.9686 60.13 43.0311 67.2879Z" fill="#D3D3D3"/>
<path d="M124.415 8.58938L126.787 10.9619L115.656 22.0931L113.283 19.7205L124.415 8.58938Z" fill="#58595B"/>
<path d="M138.145 39.5261L139.165 42.7227L124.381 47.4402L123.361 44.2436L138.145 39.5261Z" fill="#58595B"/>
<path d="M120.917 94.8565L133.982 103.636L132.111 106.421L119.045 97.6414L120.917 94.8565Z" fill="#58595B"/>
<path d="M124.613 68.3097L140.029 70.0928L139.644 73.4259L124.228 71.6429L124.613 68.3097Z" fill="#58595B"/>
</g>
<defs>
<clipPath id="clip0_205_9107">
<rect width="140" height="140" fill="white" transform="matrix(-1 0 0 1 140 0)"/>
</clipPath>
</defs>
</svg>
