<svg width="440" height="397" viewBox="0 0 440 397" fill="none" xmlns="http://www.w3.org/2000/svg">
<path d="M420.103 381.064C420.103 381.187 330.114 381.293 219.129 381.293C108.143 381.293 18.1367 381.187 18.1367 381.064C18.1367 380.941 108.108 380.8 219.12 380.8C330.132 380.8 420.103 380.941 420.103 381.064Z" fill="#263238"/>
<path d="M387.658 336.615L386.478 358.404C386.456 358.778 386.293 359.129 386.022 359.387C385.751 359.645 385.392 359.791 385.018 359.795L345.814 360.085C345.424 360.085 345.049 359.932 344.771 359.659C344.493 359.385 344.333 359.014 344.326 358.624L344.203 341.658C344.203 341.267 344.358 340.892 344.633 340.615C344.908 340.338 345.282 340.182 345.673 340.179H369.785C370.174 340.175 370.546 340.021 370.823 339.748L374.986 335.586C375.258 335.311 375.628 335.156 376.015 335.155L386.179 335.084C386.378 335.081 386.576 335.12 386.76 335.196C386.944 335.273 387.111 335.387 387.249 335.53C387.388 335.674 387.495 335.844 387.566 336.03C387.636 336.217 387.667 336.416 387.658 336.615Z" fill="#FF5454"/>
<path opacity="0.3" d="M387.658 336.615L386.478 358.404C386.456 358.778 386.293 359.129 386.022 359.387C385.751 359.645 385.392 359.791 385.018 359.795L345.814 360.085C345.424 360.085 345.049 359.932 344.771 359.659C344.493 359.385 344.333 359.014 344.326 358.624L344.203 341.658C344.203 341.267 344.358 340.892 344.633 340.615C344.908 340.338 345.282 340.182 345.673 340.179H369.785C370.174 340.175 370.546 340.021 370.823 339.748L374.986 335.586C375.258 335.311 375.628 335.156 376.015 335.155L386.179 335.084C386.378 335.081 386.576 335.12 386.76 335.196C386.944 335.273 387.111 335.387 387.249 335.53C387.388 335.674 387.495 335.844 387.566 336.03C387.636 336.217 387.667 336.416 387.658 336.615Z" fill="black"/>
<path d="M344.362 363.214L387.199 362.9L387.012 337.302L344.174 337.616L344.362 363.214Z" fill="#F5F5F5"/>
<path d="M390.436 339.573L387.365 366.289C387.344 366.525 387.237 366.744 387.065 366.906C386.893 367.068 386.668 367.162 386.432 367.169L344.685 367.469C344.443 367.474 344.209 367.385 344.032 367.22C343.855 367.056 343.748 366.83 343.735 366.589L341.438 339.889C341.425 339.76 341.44 339.629 341.482 339.505C341.523 339.382 341.59 339.268 341.678 339.172C341.766 339.076 341.873 338.999 341.992 338.947C342.111 338.895 342.24 338.868 342.371 338.869L389.495 338.517C389.628 338.517 389.76 338.546 389.882 338.6C390.003 338.655 390.112 338.735 390.201 338.834C390.29 338.934 390.357 339.051 390.397 339.178C390.438 339.306 390.451 339.44 390.436 339.573Z" fill="#FF5454"/>
<path d="M399.193 332.506L398.014 354.295C397.991 354.668 397.828 355.02 397.557 355.278C397.286 355.536 396.927 355.681 396.553 355.685L357.349 355.967C357.156 355.969 356.964 355.933 356.785 355.862C356.606 355.79 356.442 355.683 356.304 355.549C356.166 355.414 356.056 355.253 355.98 355.076C355.904 354.898 355.864 354.708 355.862 354.515L355.738 337.548C355.737 337.354 355.774 337.162 355.848 336.983C355.921 336.804 356.029 336.641 356.166 336.503C356.302 336.366 356.465 336.257 356.643 336.183C356.822 336.108 357.014 336.07 357.208 336.07H381.32C381.708 336.072 382.082 335.92 382.358 335.647L386.521 331.485C386.793 331.211 387.164 331.056 387.55 331.054L397.714 330.983C397.913 330.982 398.109 331.021 398.292 331.098C398.475 331.174 398.64 331.287 398.778 331.429C398.916 331.571 399.024 331.74 399.096 331.925C399.167 332.11 399.2 332.308 399.193 332.506Z" fill="#FF5454"/>
<path opacity="0.3" d="M399.193 332.506L398.014 354.295C397.991 354.668 397.828 355.02 397.557 355.278C397.286 355.536 396.927 355.681 396.553 355.685L357.349 355.967C357.156 355.969 356.964 355.933 356.785 355.862C356.606 355.79 356.442 355.683 356.304 355.549C356.166 355.414 356.056 355.253 355.98 355.076C355.904 354.898 355.864 354.708 355.862 354.515L355.738 337.548C355.737 337.354 355.774 337.162 355.848 336.983C355.921 336.804 356.029 336.641 356.166 336.503C356.302 336.366 356.465 336.257 356.643 336.183C356.822 336.108 357.014 336.07 357.208 336.07H381.32C381.708 336.072 382.082 335.92 382.358 335.647L386.521 331.485C386.793 331.211 387.164 331.056 387.55 331.054L397.714 330.983C397.913 330.982 398.109 331.021 398.292 331.098C398.475 331.174 398.64 331.287 398.778 331.429C398.916 331.571 399.024 331.74 399.096 331.925C399.167 332.11 399.2 332.308 399.193 332.506Z" fill="black"/>
<path d="M355.901 359.101L398.738 358.787L398.551 333.189L355.713 333.503L355.901 359.101Z" fill="#F5F5F5"/>
<path d="M401.975 335.462L398.895 362.179C398.882 362.417 398.778 362.641 398.604 362.805C398.431 362.968 398.201 363.059 397.963 363.059L356.215 363.367C355.974 363.37 355.742 363.28 355.565 363.116C355.388 362.953 355.281 362.727 355.265 362.487L352.968 335.805C352.957 335.675 352.973 335.544 353.016 335.421C353.058 335.297 353.126 335.184 353.214 335.088C353.303 334.992 353.41 334.915 353.53 334.863C353.65 334.811 353.779 334.784 353.91 334.785L401.025 334.433C401.157 334.432 401.287 334.459 401.408 334.512C401.529 334.564 401.637 334.642 401.727 334.738C401.816 334.835 401.884 334.95 401.927 335.074C401.97 335.199 401.986 335.331 401.975 335.462Z" fill="#FF5454"/>
<path opacity="0.3" d="M401.975 335.462L398.895 362.179C398.882 362.417 398.778 362.641 398.604 362.805C398.431 362.968 398.201 363.059 397.963 363.059L356.215 363.367C355.974 363.37 355.742 363.28 355.565 363.116C355.388 362.953 355.281 362.727 355.265 362.487L352.968 335.805C352.957 335.675 352.973 335.544 353.016 335.421C353.058 335.297 353.126 335.184 353.214 335.088C353.303 334.992 353.41 334.915 353.53 334.863C353.65 334.811 353.779 334.784 353.91 334.785L401.025 334.433C401.157 334.432 401.287 334.459 401.408 334.512C401.529 334.564 401.637 334.642 401.727 334.738C401.816 334.835 401.884 334.95 401.927 335.074C401.97 335.199 401.986 335.331 401.975 335.462Z" fill="black"/>
<path d="M412.191 337.61L411.012 359.39C410.991 359.765 410.829 360.118 410.558 360.378C410.287 360.638 409.926 360.785 409.551 360.789L370.347 361.071C369.956 361.073 369.581 360.921 369.302 360.647C369.023 360.373 368.864 360 368.86 359.61L368.719 342.652C368.719 342.262 368.873 341.887 369.149 341.61C369.424 341.333 369.798 341.176 370.188 341.174H394.3C394.494 341.176 394.685 341.139 394.864 341.065C395.042 340.991 395.204 340.881 395.339 340.743L399.501 336.589C399.774 336.315 400.144 336.16 400.531 336.158L410.695 336.079C410.895 336.075 411.094 336.112 411.28 336.188C411.465 336.264 411.633 336.378 411.774 336.521C411.914 336.664 412.023 336.835 412.095 337.022C412.167 337.21 412.199 337.409 412.191 337.61Z" fill="#FF5454"/>
<path d="M368.889 364.203L411.727 363.889L411.539 338.291L368.702 338.605L368.889 364.203Z" fill="#F5F5F5"/>
<path d="M414.971 340.567L411.9 367.284C411.872 367.512 411.762 367.723 411.591 367.877C411.419 368.031 411.198 368.117 410.967 368.12L369.211 368.428C368.971 368.43 368.739 368.34 368.564 368.176C368.389 368.012 368.283 367.787 368.27 367.548L365.973 340.866C365.961 340.736 365.976 340.605 366.017 340.481C366.058 340.357 366.125 340.243 366.213 340.146C366.3 340.049 366.407 339.971 366.527 339.918C366.646 339.865 366.775 339.837 366.906 339.836L414.021 339.493C414.157 339.492 414.291 339.52 414.415 339.575C414.54 339.631 414.65 339.712 414.741 339.814C414.831 339.915 414.898 340.035 414.938 340.165C414.977 340.295 414.989 340.432 414.971 340.567Z" fill="#FF5454"/>
<path d="M365.965 344.201V381.258H419.434V344.201H365.965ZM383.415 350.88C383.415 350.155 383.704 349.458 384.217 348.945C384.73 348.432 385.426 348.144 386.152 348.144H399.246C399.618 348.122 399.991 348.177 400.34 348.305C400.69 348.433 401.01 348.631 401.281 348.887C401.552 349.142 401.768 349.451 401.915 349.793C402.062 350.135 402.138 350.503 402.138 350.876C402.138 351.248 402.062 351.617 401.915 351.959C401.768 352.301 401.552 352.609 401.281 352.865C401.01 353.121 400.69 353.319 400.34 353.447C399.991 353.574 399.618 353.629 399.246 353.608H386.152C385.428 353.608 384.733 353.321 384.22 352.81C383.707 352.299 383.418 351.605 383.415 350.88Z" fill="#455A64"/>
<path d="M337.145 344.201V381.258H365.965V344.201H337.145Z" fill="#263238"/>
<path d="M236.359 353.265L233.569 369.36C233.569 369.36 216.277 371.929 215.477 374.851L246.47 381.381L251.847 356.494L236.359 353.265Z" fill="#46B2C8"/>
<g opacity="0.6">
<path d="M243.432 370.029C243.71 370.184 243.921 370.435 244.027 370.735C244.132 371.035 244.124 371.363 244.004 371.657C243.862 371.942 243.615 372.162 243.315 372.27C243.015 372.378 242.686 372.366 242.394 372.238C242.09 372.074 241.859 371.802 241.748 371.476C241.637 371.149 241.654 370.792 241.795 370.478C241.975 370.191 242.261 369.987 242.59 369.909C242.92 369.832 243.267 369.887 243.555 370.064" fill="white"/>
</g>
<path opacity="0.6" d="M246.47 381.372L246.91 378.846L216.99 373.566C216.99 373.566 215.485 373.874 215.441 374.878L246.47 381.372Z" fill="white"/>
<path d="M233.094 369.096C233.094 369.246 233.815 369.475 234.458 370.117C235.1 370.759 235.338 371.481 235.514 371.446C235.69 371.411 235.619 370.495 234.827 369.73C234.035 368.964 233.094 368.947 233.094 369.096Z" fill="#263238"/>
<path d="M229.564 369.756C229.494 369.888 230.101 370.284 230.444 371.032C230.787 371.78 230.823 372.493 230.981 372.52C231.139 372.546 231.403 371.71 230.919 370.76C230.435 369.809 229.599 369.607 229.564 369.756Z" fill="#263238"/>
<path d="M226.898 373.25C227.03 373.311 227.4 372.607 227.18 371.692C226.96 370.777 226.3 370.302 226.238 370.416C226.177 370.531 226.494 371.067 226.661 371.815C226.828 372.563 226.749 373.206 226.898 373.25Z" fill="#263238"/>
<path d="M234.14 365.497C234.14 365.647 234.914 365.585 235.75 365.823C236.586 366.06 237.211 366.474 237.317 366.359C237.422 366.245 236.894 365.567 235.891 365.303C234.888 365.039 234.078 365.365 234.14 365.497Z" fill="#263238"/>
<path opacity="0.3" d="M235.802 356.459L235.301 359.319L250.569 362.39L251.132 359.829L235.802 356.459Z" fill="black"/>
<path d="M234.766 362.258C235.243 362.504 235.778 362.616 236.314 362.584C236.905 362.601 237.496 362.548 238.074 362.425C238.409 362.351 238.738 362.254 239.06 362.135C239.255 362.078 239.44 361.989 239.606 361.871C239.729 361.785 239.82 361.661 239.864 361.517C239.909 361.374 239.904 361.22 239.852 361.079C239.795 360.958 239.712 360.852 239.609 360.768C239.505 360.684 239.384 360.625 239.254 360.595C239.057 360.555 238.856 360.541 238.655 360.551C238.309 360.562 237.964 360.607 237.626 360.683C237.052 360.804 236.502 361.018 235.998 361.317C235.118 361.836 234.766 362.346 234.818 362.39C234.871 362.434 235.32 362.056 236.174 361.66C236.665 361.425 237.186 361.26 237.722 361.167C238.037 361.114 238.354 361.085 238.673 361.079C239.016 361.079 239.298 361.123 239.35 361.281C239.403 361.44 239.35 361.369 239.28 361.449C239.156 361.534 239.019 361.599 238.875 361.642C238.588 361.759 238.294 361.859 237.995 361.941C237.462 362.077 236.917 362.163 236.367 362.197C235.833 362.18 235.297 362.201 234.766 362.258Z" fill="#263238"/>
<path d="M234.961 362.523C235.341 362.136 235.593 361.641 235.682 361.106C235.834 360.533 235.884 359.937 235.832 359.346C235.797 358.997 235.729 358.653 235.63 358.317C235.591 358.095 235.496 357.888 235.352 357.715C235.208 357.542 235.022 357.409 234.811 357.331C234.673 357.303 234.53 357.315 234.399 357.367C234.267 357.419 234.154 357.507 234.072 357.621C233.953 357.786 233.858 357.967 233.79 358.158C233.664 358.494 233.59 358.847 233.57 359.205C233.53 359.81 233.642 360.415 233.896 360.965C234.327 361.898 234.926 362.206 234.943 362.162C234.961 362.118 234.547 361.696 234.248 360.825C234.073 360.322 234.01 359.788 234.063 359.258C234.091 358.955 234.166 358.659 234.283 358.378C234.398 358.061 234.582 357.824 234.697 357.877C234.811 357.929 235.058 358.211 235.128 358.501C235.226 358.803 235.296 359.112 235.339 359.425C235.411 359.96 235.411 360.501 235.339 361.036C235.119 361.951 234.838 362.479 234.961 362.523Z" fill="#263238"/>
<path d="M341.668 353.626L334.963 344.87L334.62 344.421L323.18 352.913L333.74 364.529L333.352 376.286C327.465 377.808 326.576 380.747 326.576 380.747H338.817L349.94 359.328L341.668 353.626Z" fill="#46B2C8"/>
<path opacity="0.6" d="M349.977 359.32L338.854 380.739L326.613 380.748L327.995 378.909L337.948 378.354L348.208 358.105L349.977 359.32Z" fill="white"/>
<path d="M333.456 370.9C333.553 371.024 334.257 370.619 335.216 370.645C336.175 370.672 336.862 371.068 336.976 370.944C337.09 370.821 336.395 370.117 335.216 370.108C334.037 370.1 333.35 370.804 333.456 370.9Z" fill="#263238"/>
<path d="M333.66 367.979C333.784 368.067 334.32 367.345 335.297 367.151C336.274 366.958 337.057 367.407 337.136 367.283C337.216 367.16 337.04 367.019 336.696 366.835C336.234 366.595 335.704 366.52 335.194 366.623C334.683 366.725 334.223 366.999 333.889 367.398C333.652 367.706 333.599 367.943 333.66 367.979Z" fill="#263238"/>
<path d="M333.573 364.238C333.705 364.3 334.128 363.596 334.981 363.297C335.835 362.997 336.601 363.297 336.662 363.147C336.724 362.997 336.539 362.909 336.196 362.786C335.742 362.631 335.25 362.634 334.798 362.794C334.346 362.953 333.961 363.261 333.705 363.666C333.521 363.983 333.521 364.212 333.573 364.238Z" fill="#263238"/>
<path d="M330.299 361.335C330.44 361.387 330.783 360.692 331.549 360.199C332.314 359.707 333.062 359.627 333.071 359.478C333.08 359.328 332.191 359.126 331.25 359.751C330.308 360.375 330.149 361.317 330.299 361.335Z" fill="#263238"/>
<path d="M328.697 358.801C329.116 358.43 329.475 357.996 329.762 357.516L330.8 356.046C331.035 355.743 331.224 355.408 331.363 355.052C331.402 354.93 331.416 354.802 331.403 354.675C331.391 354.548 331.354 354.425 331.293 354.313C331.222 354.182 331.114 354.075 330.982 354.006C330.851 353.937 330.702 353.909 330.554 353.925C330.124 354.008 329.727 354.213 329.41 354.515C329.124 354.775 328.872 355.071 328.662 355.395C328.32 355.926 328.103 356.528 328.028 357.155C327.899 357.727 327.997 358.326 328.301 358.827C328.303 358.289 328.335 357.751 328.398 357.217C328.575 356.326 329.05 355.522 329.744 354.937C329.992 354.71 330.296 354.553 330.624 354.48C330.67 354.471 330.717 354.477 330.76 354.496C330.802 354.514 330.838 354.546 330.862 354.585C330.907 354.698 330.907 354.824 330.862 354.937C330.742 355.248 330.586 355.544 330.395 355.817L329.454 357.349C329.128 357.79 328.872 358.28 328.697 358.801Z" fill="#263238"/>
<path d="M328.24 359.188C328.302 359.188 328.24 358.537 327.589 357.806C327.139 357.317 326.541 356.988 325.886 356.87C325.231 356.753 324.556 356.853 323.963 357.155C323.9 357.207 323.85 357.273 323.817 357.348C323.783 357.423 323.767 357.504 323.77 357.586C323.776 357.728 323.829 357.864 323.919 357.973C324.043 358.127 324.192 358.258 324.359 358.361C324.636 358.554 324.93 358.719 325.239 358.853C325.749 359.087 326.293 359.238 326.85 359.302C327.356 359.418 327.887 359.369 328.363 359.161C328.363 359.073 327.783 359.117 326.911 358.933C326.406 358.823 325.917 358.645 325.459 358.405C325.199 358.266 324.951 358.104 324.72 357.921C324.6 357.848 324.493 357.755 324.403 357.648C324.342 357.542 324.359 357.569 324.403 357.542C324.511 357.475 324.63 357.43 324.755 357.41C324.906 357.374 325.059 357.35 325.213 357.34C325.508 357.315 325.805 357.335 326.093 357.401C326.582 357.51 327.036 357.74 327.413 358.07C327.994 358.66 328.179 359.223 328.24 359.188Z" fill="#263238"/>
<path opacity="0.6" d="M341.659 360.402C342.461 360.402 343.111 359.752 343.111 358.95C343.111 358.148 342.461 357.498 341.659 357.498C340.857 357.498 340.207 358.148 340.207 358.95C340.207 359.752 340.857 360.402 341.659 360.402Z" fill="white"/>
<path opacity="0.3" d="M324.262 354.083L326.611 356.662L336.494 346.867L335.121 345.081L324.262 354.083Z" fill="black"/>
<path d="M264.474 196.466C264.474 196.466 253.034 235.292 242.809 279.186C236.649 305.798 230.797 355.315 230.797 355.315L257.954 361.299L269.596 297.64L282.022 259.958C286.29 248.061 292.423 239.366 299.868 232.925C307.964 221.485 312.188 208.399 310.56 194.469L264.474 196.466Z" fill="#263238"/>
<path d="M262.238 202.653L272.385 286.253C273.37 294.323 274.734 302.093 280.217 308.103L321.304 356.829L341.658 338.56L298.107 279.019L305.675 195.085L263.065 202.354" fill="#263238"/>
<path d="M298.523 278.394C298.602 278.544 296.763 279.459 295.003 281.281C293.243 283.102 292.46 284.986 292.31 284.915C292.161 284.845 292.786 282.794 294.598 280.902C296.411 279.01 298.488 278.254 298.523 278.394Z" fill="#455A64"/>
<path d="M297.905 279.019C297.905 279.178 296.277 279.125 294.324 279.318C292.37 279.512 290.804 279.864 290.742 279.706C291.824 279.115 293.031 278.792 294.262 278.764C296.286 278.562 297.923 278.87 297.905 279.019Z" fill="#455A64"/>
<path d="M309.338 213.459C309.31 213.779 309.26 214.097 309.188 214.409C309.118 214.744 309.047 215.122 308.959 215.562C308.871 216.002 308.687 216.53 308.519 217.102C307.454 220.344 305.938 223.419 304.014 226.237C301.638 229.853 298.338 233.787 294.827 238.24C292.981 240.555 291.277 242.98 289.723 245.5C288.091 248.228 286.607 251.042 285.279 253.93C282.542 259.879 280.333 265.722 278.459 271.081C276.584 276.441 275.027 281.307 273.707 285.399C272.387 289.491 271.348 292.747 270.591 295.079C270.222 296.179 269.923 297.059 269.711 297.719C269.617 298.021 269.499 298.315 269.359 298.599C269.413 298.279 269.493 297.964 269.597 297.657L270.38 295.017L273.319 285.267C274.587 281.166 276.109 276.273 277.957 270.897C279.805 265.52 282.005 259.65 284.751 253.675C286.092 250.769 287.593 247.94 289.247 245.201C290.813 242.662 292.538 240.225 294.413 237.905C297.933 233.453 301.277 229.563 303.671 226.008C305.608 223.235 307.168 220.217 308.308 217.032C308.484 216.46 308.669 215.958 308.792 215.509C308.915 215.061 308.995 214.7 309.074 214.383C309.136 214.068 309.225 213.759 309.338 213.459Z" fill="#455A64"/>
<path d="M211.199 172.328L204.063 176.042L191.681 182.123C190.845 182.412 190.142 182.993 189.701 183.76L185.16 191.75H193.846L196.16 187.852C197.616 188.373 199.198 188.429 200.688 188.013C202.177 187.597 203.501 186.729 204.476 185.528L217.087 181.128L211.199 172.328Z" fill="#FFBE9D"/>
<path d="M294.105 74.243C294.609 73.173 295.437 72.2887 296.471 71.7155C297.506 71.1423 298.695 70.9093 299.869 71.0495C301.043 71.1897 302.144 71.696 303.014 72.4967C303.884 73.2974 304.481 74.3517 304.718 75.5102C304.798 76.628 304.995 77.7342 305.308 78.8102C305.64 79.5008 306.198 80.0576 306.889 80.3887C307.58 80.7199 308.363 80.8056 309.109 80.6318C308.665 81.4696 307.978 82.1536 307.138 82.5942C307.246 82.5247 307.368 82.4816 307.496 82.4685C307.623 82.4555 307.752 82.4729 307.871 82.5193C307.991 82.5657 308.097 82.6397 308.183 82.7354C308.268 82.831 308.329 82.9455 308.361 83.0694C308.402 83.328 308.364 83.5927 308.253 83.8295C308.141 84.0663 307.962 84.2644 307.737 84.3982C307.279 84.6538 306.772 84.8069 306.249 84.847C303.741 85.2254 300.969 85.3222 298.857 83.967C296.552 82.4798 295.531 79.6814 294.669 77.0854" fill="#263238"/>
<path d="M270.082 66.9746C267.442 67.2034 265.242 69.1482 263.711 71.313C262.179 73.4778 261.115 75.9594 259.513 78.0714C258.316 79.6466 256.794 81.0722 256.204 82.9554C255.263 85.965 256.917 89.4322 255.606 92.2922C254.858 93.9114 253.291 95.0114 252.517 96.613C251.549 98.6106 251.989 101.013 252.579 103.125C252.874 104.648 253.626 106.045 254.735 107.129C255.734 107.814 256.884 108.246 258.087 108.387C267.107 110.046 276.417 108.894 284.76 105.087" fill="#263238"/>
<path d="M290.699 82.0315C290.663 80.1997 290.258 78.3941 289.51 76.7217C288.762 75.0494 287.685 73.5446 286.344 72.2968C285.002 71.0489 283.424 70.0835 281.702 69.458C279.98 68.8325 278.149 68.5595 276.32 68.6555C269.007 69.0251 263.384 75.3259 263.34 82.6475C263.34 89.0627 263.419 95.5219 263.789 97.8187C264.889 104.744 269.341 106.856 271.101 107.428C271.727 107.556 272.364 107.618 273.002 107.613C273.015 107.615 273.026 107.622 273.034 107.631C273.042 107.641 273.046 107.653 273.046 107.666L272.668 115.859C272.729 121.139 276.32 125.407 281.644 125.407C286.968 125.407 290.488 120.804 290.523 115.463L290.699 82.0315Z" fill="#FFBE9D"/>
<path d="M265.953 86.2379C265.953 86.5283 266.066 86.8074 266.268 87.016C266.47 87.2246 266.745 87.3464 267.036 87.3555C267.177 87.3675 267.32 87.3508 267.455 87.3065C267.589 87.2621 267.714 87.1909 267.821 87.0973C267.928 87.0036 268.015 86.8894 268.076 86.7614C268.138 86.6334 268.173 86.4943 268.18 86.3523C268.184 86.0612 268.074 85.7799 267.874 85.5692C267.673 85.3584 267.397 85.2351 267.106 85.2259C266.963 85.2152 266.82 85.233 266.685 85.2783C266.549 85.3236 266.424 85.3954 266.317 85.4897C266.209 85.5839 266.122 85.6987 266.06 85.8271C265.997 85.9556 265.961 86.0953 265.953 86.2379Z" fill="#263238"/>
<path d="M265.242 84.2928C265.374 84.4424 266.218 83.8176 267.424 83.8176C268.63 83.8176 269.501 84.416 269.633 84.2752C269.765 84.1344 269.554 83.9496 269.166 83.668C268.65 83.3082 268.035 83.1175 267.406 83.1224C266.774 83.1128 266.156 83.3107 265.646 83.6856C265.294 83.9672 265.171 84.24 265.242 84.2928Z" fill="#263238"/>
<path d="M277.692 86.2377C277.687 86.5279 277.797 86.8083 277.998 87.0177C278.199 87.227 278.475 87.3484 278.765 87.3553C278.907 87.3673 279.049 87.3506 279.184 87.3062C279.319 87.2618 279.444 87.1907 279.551 87.097C279.657 87.0034 279.744 86.8891 279.806 86.7611C279.867 86.6331 279.903 86.494 279.909 86.3521C279.914 86.061 279.804 85.7797 279.603 85.5689C279.402 85.3582 279.127 85.2349 278.836 85.2257C278.694 85.2149 278.551 85.2328 278.416 85.2782C278.281 85.3236 278.156 85.3956 278.05 85.4899C277.943 85.5843 277.856 85.6991 277.795 85.8275C277.733 85.956 277.698 86.0954 277.692 86.2377Z" fill="#263238"/>
<path d="M277.034 84.522C277.175 84.6628 278.02 84.038 279.216 84.038C280.413 84.038 281.293 84.6452 281.425 84.4956C281.557 84.346 281.355 84.17 280.967 83.8884C280.449 83.5337 279.836 83.3436 279.207 83.3428C278.576 83.3395 277.96 83.5367 277.447 83.906C277.095 84.1876 276.963 84.4516 277.034 84.522Z" fill="#263238"/>
<path d="M272.675 93.4186C272.046 93.2157 271.392 93.0973 270.731 93.0666C270.423 93.0666 270.132 92.9698 270.08 92.7674C270.06 92.4606 270.13 92.1547 270.282 91.8874L271.162 89.5554C272.42 86.2378 273.336 83.501 273.195 83.457C272.199 85.3608 271.357 87.3412 270.678 89.3794C270.37 90.1978 270.088 90.981 269.798 91.729C269.606 92.0968 269.55 92.5207 269.64 92.9258C269.684 93.0332 269.753 93.1292 269.84 93.2069C269.926 93.2845 270.029 93.3418 270.141 93.3746C270.314 93.4194 270.491 93.4459 270.669 93.4538C271.337 93.5291 272.011 93.5172 272.675 93.4186Z" fill="#263238"/>
<path d="M273.062 107.613C273.062 107.613 277.699 107.992 283.49 104.507C283.49 104.507 281.659 110.667 272.93 109.787L273.062 107.613Z" fill="#EB996E"/>
<path d="M273.185 96.3048C273.415 96.0197 273.713 95.7969 274.051 95.6569C274.389 95.517 274.757 95.4644 275.121 95.504C275.386 95.5294 275.642 95.6071 275.877 95.7325C276.111 95.8578 276.318 96.0285 276.485 96.2344C276.645 96.4356 276.74 96.6804 276.757 96.9366C276.774 97.1927 276.713 97.4481 276.582 97.6688C276.39 97.8853 276.136 98.0388 275.856 98.1095C275.575 98.1801 275.279 98.1645 275.007 98.0648C274.442 97.878 273.921 97.5786 273.476 97.1848C273.34 97.0904 273.224 96.9709 273.133 96.8328C273.089 96.766 273.066 96.688 273.066 96.6084C273.066 96.5288 273.089 96.4509 273.133 96.384" fill="#EB996E"/>
<path d="M276.206 94.2463C276.012 94.2463 276.013 95.5399 274.895 96.4639C273.777 97.3879 272.396 97.2471 272.387 97.4231C272.378 97.5991 272.695 97.6783 273.267 97.6959C274.029 97.7035 274.769 97.4453 275.361 96.9655C275.928 96.5021 276.291 95.8359 276.373 95.1087C276.444 94.5631 276.32 94.2375 276.206 94.2463Z" fill="#263238"/>
<path d="M276.495 82.4183C276.609 82.7439 277.806 82.5855 279.214 82.7615C280.622 82.9375 281.766 83.3071 281.951 83.0167C282.03 82.8759 281.837 82.5679 281.379 82.2599C280.766 81.8718 280.073 81.6282 279.352 81.5474C278.631 81.4666 277.9 81.5507 277.217 81.7935C276.697 82.0047 276.442 82.2599 276.495 82.4183Z" fill="#263238"/>
<path d="M265.681 81.8383C265.893 82.1111 266.72 81.8383 267.714 81.8383C268.709 81.8383 269.545 82.0231 269.738 81.7327C269.826 81.5919 269.738 81.3191 269.325 81.0639C268.831 80.7524 268.255 80.596 267.672 80.6148C267.088 80.6336 266.524 80.8268 266.051 81.1695C265.699 81.4247 265.585 81.7063 265.681 81.8383Z" fill="#263238"/>
<path d="M261.748 81.1427C263.508 83.1315 267.908 81.1426 270.407 79.1978C271.978 79.9038 273.762 79.9696 275.381 79.3813C276.999 78.7931 278.325 77.5972 279.075 76.0475C280.941 77.8075 284.039 76.6987 284.883 74.2875C285.728 71.8763 284.611 68.8402 282.719 67.0978C280.836 65.4873 278.438 64.6039 275.96 64.6075C273.101 64.4712 270.265 65.1743 267.801 66.63C265.336 68.0858 263.352 70.2306 262.091 72.8003C260.912 75.3082 260.455 78.5203 261.748 81.1339" fill="#263238"/>
<path d="M282.278 66.9746C287.303 65.2146 293.031 69.6586 294.087 73.2666C295.918 79.5234 295.17 80.4474 296.78 83.3426C297.836 85.2258 300.758 86.8626 302.06 88.7898C303.495 90.8314 304.031 94.5626 303.6 97.0266C303.239 99.1034 301.383 105.017 301.383 105.017C301.383 105.017 293.665 105.897 289.591 105.457C288.546 105.405 287.529 105.104 286.625 104.577C285.745 104.014 286.977 101.444 286.695 100.467C285.877 97.6954 283.519 96.3666 283.721 93.4802C283.985 89.6522 286.871 89.0802 286.255 85.2434C285.93 83.2282 282.498 80.773 281.935 78.8194C281.371 76.8658 279.189 70.0634 282.243 66.9922" fill="#263238"/>
<path d="M295.117 78.9074C294.985 78.9074 295.073 77.605 294.818 76.065C294.563 74.525 294.096 73.3194 294.22 73.2666C294.823 74.0535 295.186 74.9976 295.267 75.9858C295.507 76.953 295.455 77.9698 295.117 78.9074Z" fill="#46B2C8"/>
<path d="M294.65 76.7603C294.65 76.7603 294.474 76.8835 294.114 76.9715C293.602 77.0982 293.074 77.1486 292.547 77.1211C291.758 77.0812 290.985 76.89 290.268 76.5579C289.393 76.1467 288.62 75.5455 288.006 74.7979C287.443 74.0627 286.8 73.3927 286.088 72.8003C285.493 72.3593 284.826 72.0257 284.117 71.8147C283.443 71.6477 282.758 71.5301 282.066 71.4627C282.245 71.3807 282.442 71.3444 282.638 71.3571C283.162 71.3276 283.686 71.3751 284.196 71.4979C284.962 71.6825 285.687 72.0077 286.334 72.4571C287.085 73.0418 287.762 73.7155 288.35 74.4635C289.403 75.7521 290.919 76.5767 292.574 76.7603C293.265 76.8067 293.959 76.8067 294.65 76.7603Z" fill="#455A64"/>
<path d="M308.402 82.8147C308.231 82.9857 308.009 83.0968 307.769 83.1315C307.119 83.2669 306.442 83.1769 305.85 82.8763C304.982 82.4289 304.281 81.7128 303.853 80.8347C303.325 79.8931 302.973 78.7667 302.48 77.6931C302.087 76.667 301.354 75.8067 300.403 75.2555C299.594 74.8801 298.677 74.8022 297.816 75.0355C297.014 75.2864 296.293 75.7484 295.73 76.3731C295.8 76.1451 295.927 75.939 296.1 75.7747C296.534 75.2839 297.094 74.9216 297.719 74.7275C298.657 74.4212 299.676 74.4713 300.579 74.8683C301.641 75.4445 302.461 76.3807 302.894 77.5083C303.422 78.6259 303.774 79.7347 304.222 80.6411C304.589 81.461 305.205 82.1445 305.982 82.5947C306.515 82.9005 307.131 83.0299 307.742 82.9643C308.156 82.9027 308.376 82.7795 308.402 82.8147Z" fill="#455A64"/>
<path d="M294.669 75.9685C294.669 75.9685 294.449 76.0741 294.036 76.0389C293.443 75.9687 292.882 75.734 292.416 75.3613C291.741 74.8159 291.179 74.1432 290.762 73.3813C290.293 72.4815 289.733 71.6322 289.09 70.8469C288.46 70.193 287.698 69.6818 286.854 69.3478C286.01 69.0138 285.104 68.8648 284.197 68.9109C283.435 68.9846 282.683 69.1379 281.953 69.3685C281.953 69.3685 282.12 69.2101 282.49 69.0341C283.023 68.7983 283.591 68.6498 284.171 68.5941C285.14 68.4913 286.121 68.6124 287.036 68.948C287.951 69.2837 288.777 69.8249 289.451 70.5301C290.114 71.3435 290.684 72.2291 291.149 73.1701C291.519 73.9033 292.023 74.5602 292.636 75.1061C293.209 75.5965 293.919 75.8977 294.669 75.9685Z" fill="#455A64"/>
<path d="M296.877 105.915C296.877 105.915 297.193 105.431 297.757 104.551C298.511 103.308 299.102 101.975 299.517 100.582C300.142 98.5312 300.218 96.3524 299.737 94.2633C299.445 92.9972 298.907 91.8012 298.152 90.744C297.396 89.6869 296.44 88.7894 295.337 88.1033C294.149 87.3993 292.837 86.9241 291.676 86.2113C290.52 85.5392 289.599 84.5287 289.036 83.3161C288.569 82.2433 288.192 81.1337 287.909 79.9985C287.662 79.03 287.323 78.0871 286.897 77.1825C286.608 76.5281 286.183 75.9425 285.651 75.4646C285.118 74.9867 284.49 74.6274 283.809 74.4105C283.297 74.2819 282.766 74.2491 282.242 74.3137C282.242 74.3137 282.374 74.2433 282.647 74.1905C283.045 74.1097 283.455 74.1097 283.853 74.1905C284.578 74.3866 285.253 74.7386 285.829 75.2219C286.405 75.7051 286.869 76.3082 287.188 76.9889C287.641 77.9049 288.003 78.8627 288.27 79.8489C288.562 80.9592 288.947 82.0426 289.423 83.0873C289.951 84.218 290.814 85.1583 291.896 85.7801C293.005 86.4665 294.316 86.9329 295.557 87.6721C296.709 88.395 297.705 89.3413 298.487 90.4551C299.268 91.5689 299.819 92.8279 300.106 94.1577C300.584 96.3182 300.472 98.5677 299.781 100.67C299.336 102.078 298.69 103.415 297.862 104.638C297.646 104.972 297.411 105.292 297.158 105.598C296.991 105.818 296.894 105.923 296.877 105.915Z" fill="#455A64"/>
<path d="M258.843 108.044C258.843 108.044 258.746 107.974 258.605 107.798C258.402 107.544 258.216 107.277 258.051 106.997C257.435 105.955 257.034 104.8 256.872 103.6C256.596 101.809 256.841 99.9765 257.576 98.3201C258.042 97.3789 258.571 96.4704 259.16 95.6009C259.781 94.7103 260.171 93.6791 260.295 92.6001C260.445 90.3825 259.415 88.3145 259.274 86.2905C259.054 84.5016 259.287 82.6858 259.952 81.0105C260.409 79.8923 261.099 78.8843 261.976 78.0537C262.208 77.8264 262.459 77.6175 262.724 77.4289C262.812 77.3542 262.909 77.292 263.014 77.2441C263.014 77.2441 262.671 77.5697 262.134 78.1769C261.337 79.0367 260.709 80.0401 260.286 81.1337C259.69 82.7648 259.496 84.5159 259.723 86.2377C259.866 87.2599 260.078 88.2713 260.357 89.2649C260.686 90.3597 260.832 91.5016 260.788 92.6441C260.654 93.7917 260.24 94.8888 259.582 95.8385C258.998 96.6839 258.469 97.5657 257.998 98.4785C257.276 100.058 257.008 101.807 257.224 103.53C257.361 104.695 257.703 105.828 258.236 106.874C258.597 107.648 258.878 108 258.843 108.044Z" fill="#455A64"/>
<path d="M274.966 65.5226C273.85 65.6648 272.747 65.8913 271.666 66.2002C269.084 67.0263 266.85 68.6851 265.312 70.917C263.882 73.219 263.098 75.8635 263.042 78.573C263.052 79.6976 263.158 80.8192 263.359 81.9258C263.205 81.6519 263.098 81.3546 263.042 81.0458C262.835 80.2315 262.726 79.3955 262.716 78.5554C262.678 75.7583 263.445 73.0093 264.925 70.6354C266.513 68.3145 268.864 66.6237 271.569 65.857C272.378 65.627 273.211 65.4911 274.051 65.4522C274.357 65.4286 274.666 65.4523 274.966 65.5226Z" fill="#455A64"/>
<path d="M269.034 76.8045C268.915 76.5681 268.84 76.3114 268.814 76.0477C268.683 75.328 268.651 74.5938 268.717 73.8653C268.812 72.653 269.155 71.4731 269.723 70.3979C270.291 69.3228 271.073 68.3753 272.021 67.6137C272.969 66.852 274.063 66.2924 275.235 65.9692C276.407 65.6459 277.633 65.5659 278.837 65.7341C279.56 65.8238 280.267 66.0103 280.941 66.2885C281.198 66.3717 281.437 66.5031 281.645 66.6757C280.718 66.3841 279.766 66.1779 278.802 66.0597C276.47 65.815 274.136 66.5018 272.308 67.9704C270.48 69.439 269.306 71.5705 269.043 73.9005C268.954 74.8664 268.951 75.8382 269.034 76.8045Z" fill="#455A64"/>
<path d="M309.11 201.887L299.597 165.112L302.888 150.724L307.631 123.717C307.631 123.717 303.275 117.759 291.994 117.187L291.237 111.723L271.921 112.4L271.56 117.566C268.692 118.278 266.006 119.586 263.677 121.406C261.348 123.225 259.428 125.515 258.043 128.126L244.324 153.927L206.801 172.707L211.755 184.331C211.755 184.331 249.419 170.058 252.605 168.659C254.726 167.735 257.005 163.827 259.02 159.639C260.525 166.837 262.082 172.539 262.082 172.539L261.757 200.752L309.11 201.887Z" fill="#46B2C8"/>
<path d="M292.281 127.238C292.281 127.238 291.788 127.378 290.917 127.642C290.046 127.906 288.787 128.302 287.239 128.83C285.69 129.358 283.859 130.001 281.739 130.502C280.621 130.788 279.469 130.915 278.315 130.881C277.071 130.732 275.872 130.324 274.795 129.684C273.687 129.094 272.666 128.434 271.627 127.924C270.637 127.415 269.592 127.023 268.512 126.754C266.675 126.295 264.769 126.176 262.889 126.402C261.156 126.658 259.464 127.141 257.855 127.836C257.948 127.755 258.052 127.687 258.163 127.634C258.467 127.455 258.781 127.296 259.105 127.158C260.298 126.632 261.556 126.268 262.845 126.076C265.917 125.625 269.054 126.128 271.83 127.519C272.895 128.056 273.924 128.716 275.015 129.279C276.031 129.886 277.16 130.279 278.333 130.432C279.441 130.467 280.548 130.351 281.624 130.089C283.719 129.622 285.567 128.998 287.124 128.522C288.682 128.047 289.958 127.642 290.855 127.466C291.304 127.361 291.656 127.299 291.894 127.264C292.02 127.23 292.152 127.221 292.281 127.238Z" fill="#FAFAFA"/>
<path d="M298.099 145.902C298.099 145.955 297.359 145.77 296.004 145.7C294.098 145.65 292.196 145.909 290.372 146.465C287.672 147.322 285.047 148.4 282.523 149.686C279.415 151.318 276.081 152.478 272.631 153.127C271.713 153.255 270.786 153.306 269.859 153.277C268.953 153.239 268.054 153.106 267.175 152.881C265.537 152.412 263.979 151.697 262.555 150.76C259.836 149 257.539 147.24 255.234 146.509C253.464 145.805 251.508 145.715 249.681 146.254C249.026 146.5 248.403 146.822 247.824 147.213C247.949 147.076 248.087 146.952 248.238 146.844C248.661 146.529 249.126 146.274 249.619 146.087C251.482 145.466 253.503 145.506 255.339 146.201C257.715 146.932 260.083 148.718 262.784 150.399C264.173 151.305 265.693 151.993 267.29 152.441C268.137 152.657 269.004 152.784 269.877 152.819C270.777 152.848 271.678 152.798 272.57 152.669C275.974 152.026 279.267 150.893 282.347 149.308C284.891 148.03 287.541 146.973 290.267 146.149C292.129 145.611 294.07 145.4 296.004 145.524C296.526 145.564 297.043 145.643 297.553 145.761C297.739 145.793 297.921 145.84 298.099 145.902Z" fill="#FAFAFA"/>
<path d="M262.882 133.036C262.882 133.036 262.882 133.168 262.794 133.415C262.706 133.661 262.618 134.013 262.46 134.471C262.152 135.351 261.659 136.688 261.025 138.281C260.392 139.874 259.617 141.801 258.922 143.913C258.555 145.034 258.261 146.177 258.042 147.336C257.782 148.565 257.681 149.822 257.743 151.076C257.918 153.523 258.276 155.952 258.816 158.345C259.274 160.563 259.758 162.543 260.163 164.215C260.568 165.887 260.893 167.233 261.096 168.175C261.201 168.641 261.272 169.055 261.316 169.257C261.352 169.383 261.367 169.514 261.36 169.644C261.178 169.18 261.031 168.704 260.92 168.219L259.837 164.32C259.397 162.657 258.878 160.677 258.394 158.459C257.823 156.05 257.45 153.599 257.276 151.129C257.211 149.836 257.318 148.54 257.593 147.275C257.811 146.101 258.105 144.943 258.473 143.807C259.195 141.643 260.013 139.759 260.682 138.184C261.351 136.609 261.888 135.324 262.248 134.435C262.425 133.954 262.637 133.486 262.882 133.036Z" fill="#263238"/>
<path d="M241.393 173.05C241.164 173.082 240.931 173.055 240.715 172.971C240.124 172.785 239.574 172.486 239.096 172.091C238.383 171.508 237.762 170.819 237.257 170.049C236.686 169.074 236.287 168.009 236.078 166.899C235.864 165.833 235.57 164.786 235.198 163.766C234.866 162.954 234.365 162.221 233.728 161.619C233.125 161.079 232.385 160.714 231.59 160.563C231.59 160.563 231.827 160.492 232.267 160.563C232.886 160.685 233.463 160.967 233.939 161.381C234.651 161.984 235.214 162.743 235.585 163.599C236.005 164.631 236.329 165.701 236.553 166.793C236.755 167.855 237.126 168.877 237.653 169.82C238.113 170.572 238.683 171.251 239.343 171.835C239.778 172.239 240.274 172.572 240.812 172.821C241.164 172.971 241.402 173.006 241.393 173.05Z" fill="#FAFAFA"/>
<path d="M219.894 181.252C219.814 181.252 219.894 180.477 219.7 179.245C219.478 177.645 219.049 176.08 218.424 174.59C217.815 173.097 217.01 171.691 216.03 170.41C215.274 169.425 214.693 168.914 214.746 168.853C215.342 169.197 215.865 169.654 216.286 170.199C217.36 171.457 218.225 172.881 218.846 174.414C219.496 175.938 219.891 177.558 220.017 179.21C220.104 179.892 220.062 180.585 219.894 181.252Z" fill="#FAFAFA"/>
<path d="M299.719 164.777C299.719 164.777 299.164 164.777 298.17 164.901C296.762 165.037 295.369 165.299 294.007 165.684C292.247 166.15 290.276 166.881 288.041 167.69C285.622 168.629 283.117 169.327 280.561 169.776C275.891 170.489 271.119 170.079 266.639 168.579C265.29 168.12 263.978 167.558 262.715 166.898C262.266 166.661 261.931 166.458 261.703 166.326C261.474 166.194 261.359 166.08 261.359 166.08C261.842 166.273 262.315 166.49 262.776 166.731C264.06 167.322 265.38 167.834 266.727 168.262C271.184 169.659 275.9 170.021 280.517 169.318C283.044 168.872 285.525 168.191 287.927 167.285C290.162 166.502 292.195 165.789 293.955 165.358C295.336 164.995 296.752 164.78 298.179 164.716C298.565 164.692 298.953 164.692 299.34 164.716C299.469 164.719 299.596 164.74 299.719 164.777Z" fill="#FAFAFA"/>
<g opacity="0.3">
<path d="M272.923 117.583C275.466 119.007 278.328 119.761 281.242 119.775C284.156 119.788 287.025 119.062 289.581 117.662C283.996 117.938 278.405 117.958 272.809 117.724" fill="black"/>
</g>
<path d="M291.858 117.073C291.617 117.197 291.359 117.285 291.093 117.337C290.386 117.543 289.666 117.696 288.937 117.795C286.533 118.107 284.105 118.189 281.686 118.041C278.852 117.918 276.309 117.751 274.461 117.742C272.613 117.733 271.469 117.795 271.469 117.742C271.725 117.658 271.991 117.611 272.261 117.601C272.78 117.531 273.528 117.478 274.461 117.443C276.318 117.372 278.861 117.487 281.703 117.61C284.102 117.753 286.508 117.715 288.902 117.496C290.732 117.276 291.841 116.994 291.858 117.073Z" fill="#263238"/>
<path d="M280.014 157.632C280.534 158.661 310.973 182.941 319.702 189.884C320.006 190.126 320.259 190.426 320.446 190.766C320.633 191.106 320.752 191.48 320.794 191.866C320.837 192.252 320.803 192.642 320.694 193.015C320.585 193.387 320.404 193.735 320.16 194.037L299.85 219.249C299.364 219.856 298.658 220.245 297.887 220.332C297.115 220.42 296.34 220.198 295.731 219.716L256.826 188.916C256.514 188.669 256.255 188.361 256.065 188.01C255.876 187.66 255.759 187.275 255.723 186.878C255.687 186.481 255.732 186.081 255.855 185.703C255.978 185.324 256.177 184.974 256.439 184.674L280.014 157.632Z" fill="#263238"/>
<path d="M279.549 153.329C280.086 154.394 312.681 180.372 320.073 186.25C320.46 186.562 320.708 187.015 320.763 187.51C320.817 188.005 320.673 188.501 320.363 188.89L298.724 215.765C298.412 216.153 297.959 216.401 297.464 216.455C296.969 216.509 296.473 216.366 296.084 216.056L255.481 183.865C255.281 183.707 255.116 183.511 254.994 183.287C254.873 183.064 254.798 182.818 254.774 182.564C254.75 182.311 254.778 182.056 254.855 181.813C254.933 181.571 255.059 181.347 255.226 181.155L279.549 153.329Z" fill="#46B2C8"/>
<path opacity="0.4" d="M279.548 153.329C280.085 154.403 313.305 180.864 320.275 186.417C320.442 186.55 320.581 186.714 320.684 186.901C320.787 187.088 320.851 187.293 320.874 187.505C320.897 187.717 320.878 187.932 320.817 188.136C320.757 188.341 320.656 188.531 320.521 188.696L298.521 215.976C298.252 216.311 297.861 216.526 297.434 216.573C297.007 216.621 296.579 216.498 296.242 216.231L255.234 183.672C255.061 183.536 254.917 183.366 254.811 183.173C254.706 182.98 254.641 182.767 254.62 182.548C254.6 182.329 254.624 182.108 254.692 181.899C254.759 181.69 254.869 181.496 255.014 181.331L279.548 153.329Z" fill="black"/>
<path d="M282.911 153.804C293.233 162.402 321.138 184.604 321.138 184.604L299.508 211.471C298.881 212.242 297.977 212.737 296.99 212.849C296.002 212.961 295.011 212.681 294.228 212.069L256.687 182.308C256.285 181.988 255.951 181.59 255.707 181.138C255.463 180.686 255.313 180.189 255.266 179.678C255.219 179.166 255.276 178.651 255.434 178.162C255.592 177.673 255.848 177.221 256.185 176.834L275.783 154.403C276.66 153.397 277.895 152.772 279.226 152.66C280.556 152.548 281.878 152.959 282.911 153.804Z" fill="#455A64"/>
<path d="M308.758 174.704L309.303 178.506L319.195 186.998L321.139 184.578L308.758 174.704Z" fill="#FAFAFA"/>
<path d="M279.841 212.227L289.169 204.448L284.637 193.659L278.354 199.362C276.881 199.753 275.376 200.015 273.857 200.145C273.076 200.223 272.286 200.163 271.525 199.969C270.573 199.768 269.652 199.439 268.788 198.992C268.04 198.49 267.081 199.168 267.363 199.925C267.644 200.682 269.668 202.107 272.52 202.565C275.08 202.961 272.185 204.853 270.54 205.856C270.395 205.944 270.287 206.083 270.239 206.245C270.19 206.408 270.203 206.583 270.276 206.736C271.129 208.672 274.491 215.017 279.841 212.227Z" fill="#FFBE9D"/>
<path d="M294.642 135.844C293.947 126.164 302.932 116.343 308.177 124.483C313.932 133.406 326.542 154.403 329.649 168.659C331.101 175.303 291.272 206.983 288.817 208.937C288.746 208.998 288.104 208.118 288.051 208.057L278.204 197.849C278.16 197.787 280.518 195.376 280.58 195.314L308.625 167.841C308.645 167.814 308.655 167.781 308.655 167.748C308.655 167.715 308.645 167.683 308.625 167.656C307.684 165.94 295.302 143.35 294.642 136.073V135.844Z" fill="#46B2C8"/>
<path d="M316.801 167.655C316.739 167.831 314.882 167.242 312.515 167.189C310.148 167.136 308.265 167.585 308.212 167.4C308.159 167.215 310.051 166.467 312.542 166.52C315.032 166.573 316.801 167.506 316.801 167.655Z" fill="#263238"/>
<path d="M315.04 170.753C314.891 170.876 313.755 169.618 311.934 168.694C310.112 167.77 308.414 167.541 308.458 167.347C308.502 167.154 310.279 167.11 312.224 168.13C314.169 169.151 315.172 170.674 315.04 170.753Z" fill="#263238"/>
<path d="M308.625 167.84C308.503 167.679 308.4 167.505 308.317 167.321L307.516 165.807L304.665 160.202C302.272 155.406 299.007 148.858 295.408 141.625C293.522 138.26 292.393 134.524 292.099 130.678C291.852 127.158 292.873 123.822 294.739 121.878C295.574 120.982 296.621 120.31 297.784 119.924C298.654 119.627 299.578 119.517 300.494 119.598C301.071 119.648 301.635 119.79 302.166 120.021C302.351 120.1 302.474 120.188 302.562 120.232C302.65 120.276 302.694 120.311 302.685 120.32C301.988 120.016 301.244 119.832 300.485 119.774C299.587 119.72 298.688 119.855 297.845 120.17C296.736 120.565 295.742 121.227 294.95 122.098C293.19 124.025 292.204 127.237 292.468 130.695C292.806 134.474 293.946 138.137 295.812 141.44C299.376 148.691 302.597 155.265 304.956 160.078C306.091 162.437 307.015 164.355 307.675 165.746L308.396 167.303C308.486 167.476 308.562 167.656 308.625 167.84Z" fill="#263238"/>
<g opacity="0.3">
<path d="M292.583 130.405C291.562 138.985 290.822 147.662 291.614 156.26C292.037 160.792 296.833 166.468 300.608 169.011L299.596 165.112C300.151 162.587 301.998 154.605 301.998 154.605C301.998 154.605 298.558 147.794 297.185 145.304C294.545 140.749 292.972 135.655 292.583 130.405Z" fill="black"/>
</g>
<path d="M326.839 160.123C326.839 160.123 326.645 160.343 326.232 160.686C326.029 160.853 325.765 161.047 325.449 161.258C325.132 161.469 324.78 161.716 324.366 161.953C323.403 162.521 322.397 163.012 321.357 163.423C320.082 163.922 318.77 164.319 317.432 164.611C316.093 164.892 314.733 165.062 313.366 165.121C312.246 165.164 311.124 165.111 310.013 164.963C309.587 164.912 309.164 164.836 308.746 164.734C308.43 164.678 308.118 164.599 307.813 164.496C307.54 164.441 307.279 164.34 307.039 164.197C307.039 164.118 308.183 164.461 310.057 164.637C311.151 164.739 312.251 164.763 313.349 164.708C314.688 164.614 316.02 164.432 317.335 164.162C318.65 163.873 319.944 163.494 321.207 163.027C322.235 162.638 323.237 162.186 324.208 161.672C325.862 160.8 326.786 160.061 326.839 160.123Z" fill="#FAFAFA"/>
<path d="M310.489 189.611C310.129 188.809 309.835 187.979 309.609 187.129C308.992 185.118 308.218 183.159 307.295 181.269C306.778 180.238 306.168 179.258 305.473 178.338C304.906 177.595 304.246 176.927 303.511 176.349C302.244 175.373 301.293 174.994 301.337 174.915C301.574 174.948 301.804 175.022 302.015 175.135C302.609 175.394 303.175 175.713 303.705 176.085C304.493 176.649 305.201 177.319 305.808 178.074C306.539 179.002 307.173 180.001 307.7 181.057C308.644 182.97 309.387 184.976 309.917 187.041C310.194 187.876 310.386 188.737 310.489 189.611Z" fill="#FAFAFA"/>
<path d="M300.079 199.336C299.273 199.151 298.497 198.854 297.773 198.456C295.984 197.597 294.32 196.499 292.828 195.191C291.335 193.881 290.024 192.378 288.929 190.72C288.441 190.057 288.056 189.325 287.785 188.547C287.847 188.547 288.313 189.321 289.202 190.536C291.491 193.709 294.473 196.318 297.923 198.165C299.199 198.904 300.079 199.265 300.079 199.336Z" fill="#FAFAFA"/>
<path d="M309.955 127.36C309.747 127.502 309.514 127.604 309.268 127.659C308.622 127.859 307.96 128 307.288 128.081C305.59 128.337 303.214 128.187 300.662 128.328C299.463 128.379 298.278 128.601 297.142 128.988C296.224 129.311 295.374 129.8 294.634 130.431C293.971 131.041 293.415 131.758 292.988 132.552C293.005 132.3 293.08 132.056 293.208 131.839C293.502 131.219 293.911 130.66 294.414 130.193C295.158 129.494 296.035 128.949 296.992 128.592C298.159 128.174 299.38 127.931 300.618 127.87C303.258 127.729 305.572 127.923 307.244 127.756C308.916 127.589 309.928 127.272 309.955 127.36Z" fill="#FAFAFA"/>
<path d="M319.045 143.737C318.979 144.004 318.846 144.25 318.657 144.45C318.187 145.02 317.582 145.465 316.897 145.744C315.875 146.121 314.8 146.338 313.712 146.386C312.413 146.48 311.12 146.648 309.84 146.888C307.515 147.344 305.248 148.058 303.081 149.017C301.418 149.757 300.441 150.329 300.441 150.267C300.63 150.077 300.847 149.917 301.084 149.792C301.697 149.402 302.332 149.047 302.985 148.727C305.139 147.663 307.427 146.893 309.787 146.439C312.55 145.84 315.155 146.113 316.827 145.436C317.713 145.093 318.483 144.504 319.045 143.737Z" fill="#FAFAFA"/>
<path d="M101.56 56.2471C103.36 56.385 105.114 56.8857 106.715 57.719C108.317 58.5523 109.733 59.7009 110.879 61.0959C113.143 63.8988 114.736 67.183 115.534 70.6967C117.294 77.4111 116.106 85.3223 114.135 91.9751C106.893 89.3351 102.484 81.5383 100.495 77.4551C97.3536 70.9871 95.5936 57.4087 101.604 56.2471" fill="#3B802A"/>
<path d="M124.466 100.194C123.394 98.4937 122.789 96.5412 122.712 94.5329C122.634 92.5246 123.088 90.5314 124.026 88.7539C124.999 86.9949 126.312 85.4471 127.89 84.2007C129.467 82.9542 131.276 82.0341 133.213 81.4939C134.973 80.9659 137.05 80.7547 138.581 81.8019C139.265 82.3355 139.796 83.0408 140.119 83.8462C140.442 84.6515 140.546 85.5281 140.42 86.3867C140.133 88.1045 139.399 89.7163 138.29 91.0595C134.718 95.8115 130.37 99.7539 124.466 100.194Z" fill="#3B802A"/>
<g opacity="0.3">
<path d="M124.466 100.194C123.394 98.4937 122.789 96.5412 122.712 94.5329C122.634 92.5246 123.088 90.5314 124.026 88.7539C124.999 86.9949 126.312 85.4471 127.89 84.2007C129.467 82.9542 131.276 82.0341 133.213 81.4939C134.973 80.9659 137.05 80.7547 138.581 81.8019C139.265 82.3355 139.796 83.0408 140.119 83.8462C140.442 84.6515 140.546 85.5281 140.42 86.3867C140.133 88.1045 139.399 89.7163 138.29 91.0595C134.718 95.8115 130.37 99.7539 124.466 100.194Z" fill="white"/>
</g>
<path d="M116.74 107.314C114.485 103.725 111.407 100.726 107.762 98.5634C104.117 96.4011 100.009 95.1382 95.7786 94.8794C93.6226 94.7738 91.053 95.1874 90.1378 97.1322C89.2226 99.077 90.5426 101.339 92.0386 102.896C95.2171 106.081 99.2671 108.254 103.678 109.142C108.09 110.03 112.665 109.593 116.828 107.886" fill="#3B802A"/>
<g opacity="0.3">
<path d="M116.74 107.314C114.485 103.725 111.407 100.726 107.762 98.5634C104.117 96.4011 100.009 95.1382 95.7786 94.8794C93.6226 94.7738 91.053 95.1874 90.1378 97.1322C89.2226 99.077 90.5426 101.339 92.0386 102.896C95.2171 106.081 99.2671 108.254 103.678 109.142C108.09 110.03 112.665 109.593 116.828 107.886" fill="white"/>
</g>
<path d="M124.527 123.25C124.384 122.785 124.284 122.308 124.228 121.825C124.07 120.901 123.85 119.563 123.63 117.909C122.966 113.584 122.869 109.191 123.339 104.841C123.846 100.456 125.517 96.2877 128.179 92.7672C128.997 91.7181 129.94 90.7725 130.986 89.9512C131.269 89.7252 131.562 89.5137 131.866 89.3176C131.968 89.2398 132.081 89.1775 132.201 89.1328C130.81 90.2678 129.547 91.5514 128.434 92.9608C125.899 96.4833 124.3 100.592 123.788 104.902C123.335 109.218 123.391 113.571 123.955 117.874C124.14 119.466 124.29 120.795 124.404 121.798C124.48 122.279 124.521 122.764 124.527 123.25Z" fill="#263238"/>
<path d="M103.84 66.4727C103.947 66.6506 104.041 66.8359 104.121 67.0271C104.306 67.4407 104.553 67.9775 104.852 68.6551C105.477 70.0631 106.357 72.1223 107.43 74.6743C109.569 79.7695 112.429 86.8535 115.412 94.7471C118.395 102.641 120.938 109.848 122.707 115.093C123.587 117.733 124.291 119.836 124.757 121.305C124.969 122.009 125.145 122.581 125.277 123.013C125.353 123.205 125.406 123.406 125.435 123.611C125.334 123.429 125.251 123.238 125.189 123.039C125.039 122.617 124.837 122.062 124.581 121.367C124.053 119.862 123.305 117.768 122.399 115.207C120.551 109.997 117.999 102.808 114.989 94.9231C111.98 87.0383 109.19 79.9631 107.131 74.8063L104.685 68.7343C104.421 68.0479 104.201 67.4935 104.033 67.0711C103.947 66.8795 103.882 66.6787 103.84 66.4727Z" fill="#263238"/>
<path d="M99.2111 100.44C99.6759 100.431 100.141 100.458 100.601 100.519C101.143 100.561 101.681 100.637 102.212 100.748C102.927 100.864 103.635 101.019 104.333 101.215L105.547 101.549C105.969 101.672 106.427 101.848 106.841 101.998C107.784 102.344 108.709 102.737 109.613 103.177C113.78 105.207 117.426 108.166 120.269 111.827C120.894 112.707 121.51 113.491 122.029 114.309C122.276 114.714 122.531 115.092 122.733 115.479L123.314 116.606C123.701 117.31 123.948 117.996 124.194 118.577C124.41 119.078 124.592 119.592 124.74 120.117C124.898 120.555 125.022 121.006 125.109 121.463C125.004 121.463 124.493 119.571 123.015 116.755C122.821 116.403 122.628 116.034 122.417 115.655C122.205 115.277 121.95 114.916 121.695 114.52C121.151 113.681 120.563 112.87 119.935 112.091C117.095 108.516 113.509 105.603 109.428 103.555C108.477 103.115 107.589 102.675 106.7 102.359C106.269 102.2 105.82 102.015 105.441 101.883L104.245 101.523C101.2 100.651 99.1935 100.546 99.2111 100.44Z" fill="#263238"/>
<path d="M110.746 116.747H136.82V132.006C136.82 134.875 135.681 137.626 133.653 139.654C131.625 141.682 128.874 142.821 126.005 142.821H121.561C118.693 142.821 115.942 141.682 113.914 139.654C111.886 137.626 110.746 134.875 110.746 132.006V116.747Z" fill="#C9EAF1"/>
<path opacity="0.3" d="M110.746 116.747H136.82V132.006C136.82 134.875 135.681 137.626 133.653 139.654C131.625 141.682 128.874 142.821 126.005 142.821H121.561C118.693 142.821 115.942 141.682 113.914 139.654C111.886 137.626 110.746 134.875 110.746 132.006V116.747Z" fill="black"/>
<path d="M128.365 116.8C128.308 117.072 128.207 117.334 128.066 117.574C127.734 118.251 127.346 118.899 126.904 119.51C125.453 121.551 123.53 123.212 121.3 124.35C119.069 125.488 116.596 126.071 114.092 126.049C113.34 126.048 112.589 125.983 111.848 125.855C111.571 125.829 111.301 125.757 111.047 125.644C111.047 125.565 112.208 125.793 114.083 125.732C116.522 125.659 118.914 125.046 121.087 123.937C123.26 122.827 125.16 121.249 126.649 119.317C127.793 117.856 128.286 116.8 128.365 116.8Z" fill="#FAFAFA"/>
<path d="M136.574 134.4C136.273 134.392 135.975 134.332 135.694 134.224C134.944 133.984 134.224 133.659 133.547 133.256C131.269 131.92 129.542 129.815 128.679 127.318C127.816 124.822 127.872 122.1 128.839 119.642C129.125 118.909 129.491 118.21 129.93 117.556C130.082 117.311 130.269 117.088 130.485 116.896C129.974 117.818 129.527 118.773 129.147 119.756C128.298 122.149 128.289 124.76 129.121 127.159C129.952 129.558 131.575 131.602 133.723 132.956C134.639 133.503 135.592 133.985 136.574 134.4Z" fill="#FAFAFA"/>
<path d="M129.895 142.109C129.871 140.806 129.687 139.512 129.349 138.254C128.925 136.914 128.267 135.66 127.405 134.549C126.345 133.196 125.037 132.058 123.55 131.197C120.801 129.657 117.63 129.041 114.504 129.437C113.211 129.651 111.933 129.945 110.676 130.317C110.981 130.134 111.306 129.986 111.644 129.877C112.555 129.541 113.499 129.302 114.46 129.164C117.665 128.65 120.95 129.236 123.779 130.827C125.321 131.724 126.667 132.921 127.739 134.347C128.614 135.507 129.265 136.82 129.657 138.219C129.918 139.158 130.039 140.131 130.018 141.105C130.019 141.444 129.977 141.781 129.895 142.109Z" fill="#FAFAFA"/>
<path d="M133.609 142.821H51.5312V381.064H133.609V142.821Z" fill="#263238"/>
<path d="M177.67 142.821H87.8047V381.064H177.67V142.821Z" fill="#455A64"/>
<path d="M173.659 210.44H93.5703V259.624H173.659V210.44Z" fill="#455A64"/>
<path d="M120.559 326.583H147.988V327.824C147.994 328.077 147.949 328.33 147.855 328.565C147.762 328.801 147.622 329.016 147.444 329.197C147.266 329.377 147.053 329.52 146.818 329.617C146.584 329.714 146.332 329.762 146.079 329.76H122.459C121.958 329.76 121.476 329.56 121.122 329.206C120.767 328.851 120.567 328.37 120.567 327.868V326.627L120.559 326.583Z" fill="#263238"/>
<path d="M173.483 326.583C173.483 326.583 173.483 326.874 173.483 327.463C173.483 328.053 173.483 328.906 173.483 330.015C173.483 332.286 173.483 335.594 173.483 339.845C173.483 348.407 173.544 360.718 173.58 375.793V375.969H173.404L93.3236 376.022H93.0508V375.793C93.0508 358.386 93.0508 341.781 93.0508 326.671V326.46H93.262L151.043 326.513H167.534H171.934H173.052H173.421H173.025H171.881H167.481L150.937 326.583L93.2972 326.733L93.5084 326.522C93.5084 341.631 93.5084 358.202 93.5084 375.643L93.2796 375.414L173.36 375.458L173.175 375.643C173.175 360.613 173.254 348.363 173.272 339.81C173.272 335.542 173.272 332.215 173.316 329.936C173.316 328.81 173.316 327.947 173.316 327.349C173.465 326.891 173.483 326.583 173.483 326.583Z" fill="#263238"/>
<path d="M146.922 338.595H123.074V345.036H146.922V338.595Z" fill="#E0E0E0"/>
<path d="M173.659 265.186H93.5703V314.369H173.659V265.186Z" fill="#455A64"/>
<path d="M120.452 271.565H147.882V272.806C147.882 273.308 147.682 273.789 147.328 274.144C146.973 274.499 146.492 274.698 145.99 274.698H122.318C121.816 274.698 121.335 274.499 120.98 274.144C120.625 273.789 120.426 273.308 120.426 272.806V271.565H120.452Z" fill="#263238"/>
<path d="M174.24 271.566C174.24 271.566 174.24 271.856 174.24 272.446C174.24 273.035 174.24 273.889 174.24 274.998C174.24 277.268 174.24 280.577 174.284 284.827C174.284 293.39 174.345 305.701 174.38 320.775V320.951H174.24L94.1595 320.96H93.8867V320.731C93.8867 303.325 93.8867 286.719 93.8867 271.61V271.398H94.0979L151.879 271.451L168.37 271.495H172.77H173.888H174.24H173.844H172.7H168.3L151.756 271.566L94.1155 271.724L94.3267 271.504C94.3267 286.614 94.3267 303.184 94.3267 320.626L94.0979 320.397L174.178 320.441L173.993 320.626C174.037 305.595 174.072 293.346 174.09 284.792C174.09 280.524 174.09 277.198 174.09 274.918C174.09 273.792 174.09 272.93 174.09 272.331C174.24 271.882 174.24 271.566 174.24 271.566Z" fill="#263238"/>
<path d="M146.098 283.199H122.25V289.641H146.098V283.199Z" fill="#E0E0E0"/>
<path d="M120.742 149.359H148.172V150.6C148.172 151.102 147.972 151.583 147.618 151.938C147.263 152.293 146.782 152.492 146.28 152.492H122.634C122.132 152.492 121.651 152.293 121.296 151.938C120.942 151.583 120.742 151.102 120.742 150.6V149.359Z" fill="#263238"/>
<path d="M173.657 149.36C173.657 149.36 173.657 149.641 173.657 150.24C173.657 150.838 173.657 151.683 173.657 152.8C173.657 155.062 173.657 158.38 173.701 162.63C173.701 171.184 173.753 183.495 173.797 198.569V198.745H173.613L93.5325 198.789H93.2773V198.56C93.2773 181.154 93.2773 164.557 93.2773 149.448V149.236H93.4885L151.261 149.289H167.761H172.161H173.278H173.648H173.252H172.117H167.717L151.181 149.36L93.5413 149.518L93.7525 149.307C93.7525 164.416 93.7525 180.987 93.7525 198.42L93.5237 198.191L173.604 198.244L173.428 198.42C173.428 183.389 173.498 171.14 173.525 162.586C173.525 158.327 173.525 155 173.569 152.721C173.569 151.595 173.569 150.732 173.569 150.134C173.569 149.536 173.657 149.36 173.657 149.36Z" fill="#263238"/>
<path d="M145.953 159.797H122.105V166.238H145.953V159.797Z" fill="#E0E0E0"/>
<path d="M93.8242 226.386V207.906C93.8242 207.141 94.1283 206.406 94.6696 205.865C95.2109 205.324 95.9451 205.02 96.7106 205.02H145.938C146.692 205.02 147.415 205.319 147.948 205.852C148.481 206.385 148.78 207.108 148.78 207.862V226.342L93.8242 226.386Z" fill="#FF993C"/>
<path opacity="0.3" d="M93.8242 226.386V207.906C93.8242 207.141 94.1283 206.406 94.6696 205.865C95.2109 205.324 95.9451 205.02 96.7106 205.02H145.938C146.692 205.02 147.415 205.319 147.948 205.852C148.481 206.385 148.78 207.108 148.78 207.862V226.342L93.8242 226.386Z" fill="black"/>
<path d="M98.8594 226.386V210.141C98.8592 210.065 98.8883 209.991 98.9407 209.935C98.9931 209.88 99.0647 209.846 99.141 209.842H148.782V226.386H98.8594Z" fill="#FAFAFA"/>
<path d="M159.967 206.727L158.55 226.386H105.125L106.551 208.144C106.691 206.384 107.906 205.046 109.358 205.055L135.344 205.196C135.299 204.676 135.458 204.16 135.786 203.754C136.114 203.349 136.587 203.087 137.104 203.022H157.168C158.814 203.04 160.107 204.738 159.967 206.727Z" fill="#FF993C"/>
<path d="M115.699 224.477V205.997C115.699 205.617 115.774 205.241 115.92 204.89C116.065 204.539 116.279 204.221 116.548 203.953C116.817 203.685 117.136 203.472 117.487 203.328C117.838 203.183 118.215 203.109 118.594 203.11H167.822C168.575 203.11 169.298 203.41 169.832 203.943C170.365 204.476 170.664 205.199 170.664 205.953V224.486L115.699 224.477Z" fill="#FF993C"/>
<path opacity="0.3" d="M115.699 224.477V205.997C115.699 205.617 115.774 205.241 115.92 204.89C116.065 204.539 116.279 204.221 116.548 203.953C116.817 203.685 117.136 203.472 117.487 203.328C117.838 203.183 118.215 203.109 118.594 203.11H167.822C168.575 203.11 169.298 203.41 169.832 203.943C170.365 204.476 170.664 205.199 170.664 205.953V224.486L115.699 224.477Z" fill="black"/>
<path d="M120.742 224.477V208.223C120.741 208.185 120.748 208.148 120.761 208.113C120.775 208.077 120.795 208.045 120.822 208.018C120.848 207.991 120.879 207.97 120.914 207.955C120.949 207.94 120.986 207.933 121.024 207.933H170.665V224.477H120.742Z" fill="#FAFAFA"/>
<path d="M181.85 204.8L180.398 224.477H127L128.478 206.225C128.475 205.454 128.762 204.709 129.282 204.139C129.802 203.568 130.517 203.214 131.286 203.145L157.272 203.277C157.227 202.758 157.385 202.241 157.714 201.836C158.042 201.43 158.514 201.168 159.032 201.104H179.07C180.698 201.104 181.991 202.82 181.85 204.8Z" fill="#FF993C"/>
<path d="M146.148 225.541V207.061C146.147 206.681 146.221 206.305 146.366 205.954C146.51 205.603 146.723 205.284 146.991 205.015C147.259 204.746 147.577 204.532 147.928 204.387C148.279 204.241 148.655 204.166 149.035 204.166H198.262C198.636 204.166 199.006 204.24 199.352 204.383C199.697 204.527 200.011 204.737 200.275 205.002C200.539 205.267 200.748 205.581 200.891 205.927C201.033 206.273 201.106 206.643 201.104 207.017V225.541H146.148Z" fill="#FF993C"/>
<path opacity="0.3" d="M146.148 225.541V207.061C146.147 206.681 146.221 206.305 146.366 205.954C146.51 205.603 146.723 205.284 146.991 205.015C147.259 204.746 147.577 204.532 147.928 204.387C148.279 204.241 148.655 204.166 149.035 204.166H198.262C198.636 204.166 199.006 204.24 199.352 204.383C199.697 204.527 200.011 204.737 200.275 205.002C200.539 205.267 200.748 205.581 200.891 205.927C201.033 206.273 201.106 206.643 201.104 207.017V225.541H146.148Z" fill="black"/>
<path d="M151.192 225.541V209.296C151.189 209.221 151.216 209.147 151.267 209.091C151.318 209.035 151.389 209.002 151.464 208.997H201.105V225.541H151.192Z" fill="#FAFAFA"/>
<path d="M204.045 204.765H153.691V234.28H204.045V204.765Z" fill="#E0E0E0"/>
<path d="M208.19 191.661H157.449V223.13H208.19V191.661Z" fill="#F5F5F5"/>
<path d="M166.698 221.142C166.566 221.142 166.469 215.703 166.469 208.998C166.469 202.292 166.566 196.854 166.698 196.854C166.83 196.854 166.926 202.292 166.926 208.998C166.926 215.703 166.821 221.142 166.698 221.142Z" fill="#263238"/>
<path d="M170.295 221.142C170.172 221.142 170.066 215.703 170.066 208.998C170.066 202.292 170.172 196.854 170.295 196.854C170.418 196.854 170.524 202.292 170.524 208.998C170.524 215.703 170.427 221.142 170.295 221.142Z" fill="#263238"/>
<path d="M174.237 221.142C174.105 221.142 174.008 215.703 174.008 208.998C174.008 202.292 174.105 196.854 174.237 196.854C174.369 196.854 174.465 202.292 174.465 208.998C174.465 215.703 174.351 221.142 174.237 221.142Z" fill="#263238"/>
<path d="M178.155 221.141C178.031 221.141 177.926 215.703 177.926 208.997C177.926 202.292 178.031 196.853 178.155 196.853C178.278 196.853 178.383 202.292 178.383 208.997C178.383 215.703 178.278 221.141 178.155 221.141Z" fill="#263238"/>
<path d="M182.08 221.142C181.957 221.142 181.852 215.703 181.852 208.998C181.852 202.292 181.957 196.854 182.08 196.854C182.204 196.854 182.309 202.292 182.309 208.998C182.309 215.703 182.212 221.142 182.08 221.142Z" fill="#263238"/>
<path d="M186.014 221.142C185.882 221.142 185.785 215.703 185.785 208.998C185.785 202.292 185.882 196.854 186.014 196.854C186.146 196.854 186.243 202.292 186.243 208.998C186.243 215.703 186.137 221.142 186.014 221.142Z" fill="#263238"/>
<path d="M189.936 221.142C189.813 221.142 189.707 215.703 189.707 208.998C189.707 202.292 189.813 196.854 189.936 196.854C190.059 196.854 190.165 202.292 190.165 208.998C190.165 215.703 190.077 221.142 189.936 221.142Z" fill="#263238"/>
<path d="M193.862 221.142C193.738 221.142 193.633 215.703 193.633 208.998C193.633 202.292 193.738 196.854 193.862 196.854C193.985 196.854 194.09 202.292 194.09 208.998C194.09 215.703 193.994 221.142 193.862 221.142Z" fill="#263238"/>
<path d="M197.796 221.141C197.664 221.141 197.559 215.703 197.559 208.997C197.559 202.292 197.664 196.853 197.796 196.853C197.928 196.853 198.025 202.292 198.025 208.997C198.025 215.703 197.919 221.141 197.796 221.141Z" fill="#263238"/>
<path d="M201.721 221.141C201.589 221.141 201.492 215.703 201.492 208.997C201.492 202.292 201.589 196.853 201.721 196.853C201.853 196.853 201.95 202.292 201.95 208.997C201.95 215.703 201.844 221.141 201.721 221.141Z" fill="#263238"/>
<path d="M212.291 209.358L210.883 225.542H157.449L158.884 210.52C158.949 209.824 159.273 209.177 159.79 208.707C160.308 208.236 160.983 207.976 161.682 207.977L187.677 208.091C187.677 207.624 187.863 207.177 188.193 206.847C188.523 206.517 188.97 206.331 189.437 206.331H209.475C209.864 206.327 210.249 206.405 210.607 206.558C210.964 206.712 211.286 206.939 211.551 207.223C211.816 207.508 212.018 207.845 212.146 208.213C212.273 208.581 212.323 208.971 212.291 209.358Z" fill="#FF993C"/>
<path d="M173.456 216.548H93.3672V265.731H173.456V216.548Z" fill="#263238"/>
<path d="M221.917 216.548H141.828V265.731H221.917V216.548Z" fill="#455A64"/>
<path d="M221.915 265.52C221.915 265.52 221.915 265.212 221.915 264.64C221.915 264.068 221.915 263.188 221.915 262.07C221.915 259.818 221.915 256.518 221.915 252.285C221.915 243.819 221.854 231.64 221.818 216.715L221.994 216.9L141.914 216.944L142.143 216.715C142.143 234.016 142.143 250.516 142.143 265.529L141.932 265.318L199.537 265.423L216.072 265.476H220.472H221.607H222.003H221.634H220.516H216.116L199.625 265.538L141.879 265.634H141.668V265.52C141.668 250.507 141.668 234.007 141.668 216.706V216.478H141.906L221.986 216.53H222.17V216.706C222.17 231.666 222.091 243.89 222.074 252.382C222.074 256.597 222.074 259.888 222.03 262.132C222.03 263.241 222.03 264.086 222.03 264.666C221.933 265.212 221.915 265.52 221.915 265.52Z" fill="#263238"/>
<path d="M170.648 216.548H198.078V217.63C198.078 218.132 197.879 218.613 197.524 218.968C197.169 219.323 196.688 219.522 196.186 219.522H172.54C172.039 219.522 171.557 219.323 171.203 218.968C170.848 218.613 170.648 218.132 170.648 217.63V216.548Z" fill="#263238"/>
<path d="M196.801 227.574H172.953V234.016H196.801V227.574Z" fill="#E0E0E0"/>
<path d="M195.805 185.897C195.06 188.971 194.615 192.109 194.477 195.269C194.477 195.674 194.477 196.149 194.829 196.369C195.181 196.589 195.709 195.982 195.999 195.621C196.562 194.978 198.639 191.379 198.639 191.379C200.097 191.246 201.456 190.582 202.457 189.513C203.458 188.444 204.031 187.044 204.069 185.58" fill="#FFBE9D"/>
<path d="M204.043 185.58C204.073 185.796 204.073 186.015 204.043 186.231C203.988 186.838 203.836 187.432 203.594 187.991C203.213 188.856 202.635 189.619 201.904 190.218C200.958 190.969 199.822 191.445 198.622 191.59L198.78 191.485C198.12 192.629 197.39 193.878 196.563 195.146C196.431 195.33 196.316 195.515 196.158 195.709C195.999 195.902 195.885 196.043 195.718 196.219C195.548 196.424 195.316 196.569 195.058 196.633C194.905 196.648 194.751 196.613 194.62 196.534C194.488 196.455 194.385 196.335 194.327 196.193C194.183 195.762 194.147 195.303 194.222 194.855C194.222 194.45 194.275 194.054 194.31 193.667C194.425 192.292 194.61 190.923 194.864 189.566C195.075 188.414 195.295 187.49 195.471 186.856C195.536 186.521 195.642 186.196 195.788 185.888C195.779 186.227 195.729 186.564 195.639 186.891C195.524 187.542 195.348 188.466 195.181 189.628C195.014 190.79 194.838 192.162 194.732 193.694L194.653 194.882C194.596 195.253 194.623 195.632 194.732 195.99C194.794 196.131 194.917 196.21 194.987 196.193C195.144 196.131 195.283 196.031 195.392 195.902L195.806 195.41C195.938 195.243 196.061 195.07 196.175 194.89C196.994 193.641 197.733 192.391 198.411 191.265L198.463 191.168H198.569C199.697 191.047 200.771 190.621 201.675 189.936C202.384 189.392 202.957 188.69 203.347 187.886C203.672 187.148 203.905 186.374 204.043 185.58Z" fill="#EB996E"/>
</svg>
