<svg width="350" height="350" viewBox="0 0 350 350" fill="none" xmlns="http://www.w3.org/2000/svg">
<path d="M319.354 33.0117H268.492V86.0297H319.354V33.0117Z" fill="#E0E0E0"/>
<path d="M315.903 33.0117H265.041V86.0297H315.903V33.0117Z" fill="#FAFAFA"/>
<path d="M315.924 86.044H265.027V32.998H315.924V86.044ZM265.062 86.044H315.889V33.026H265.062V86.044Z" fill="#E0E0E0"/>
<path d="M309.065 40.1387H271.881V78.9047H309.065V40.1387Z" fill="white"/>
<path d="M271.881 79.1621C271.616 79.5501 271.308 79.907 270.964 80.2261C270.369 80.8561 269.564 81.7031 268.598 82.6201C267.632 83.5371 266.806 84.3631 266.169 84.9511C265.849 85.29 265.49 85.5886 265.098 85.8401C265.357 85.4521 265.662 85.0971 266.008 84.7831C266.603 84.1531 267.443 83.3061 268.381 82.3821C269.319 81.4581 270.18 80.6321 270.81 80.0511C271.131 79.7141 271.49 79.4158 271.881 79.1621Z" fill="#E0E0E0"/>
<path d="M309.072 79.0996C309.462 79.3622 309.819 79.67 310.136 80.0166C310.766 80.6116 311.613 81.4166 312.53 82.3826C313.447 83.3486 314.273 84.1746 314.861 84.8116C315.198 85.1347 315.499 85.4939 315.757 85.8826C315.364 85.627 315.007 85.3211 314.693 84.9726C314.063 84.3776 313.216 83.5726 312.292 82.6066C311.368 81.6406 310.542 80.8006 309.961 80.1706C309.624 79.8494 309.326 79.49 309.072 79.0996Z" fill="#E0E0E0"/>
<path d="M308.967 40.2429C309.232 39.8616 309.539 39.5116 309.884 39.1999C310.479 38.5769 311.284 37.7299 312.25 36.8059C313.216 35.8819 314.042 35.0629 314.679 34.4819C314.998 34.1385 315.361 33.8374 315.757 33.5859C315.49 33.9723 315.183 34.329 314.84 34.6499C314.245 35.2729 313.44 36.1269 312.474 37.0509C311.508 37.9749 310.675 38.7939 310.038 39.3749C309.716 39.7053 309.357 39.9967 308.967 40.2429Z" fill="#E0E0E0"/>
<path d="M271.783 40.3338C271.391 40.0705 271.032 39.7627 270.712 39.4168C270.089 38.8218 269.242 38.0168 268.318 37.0578C267.394 36.0988 266.575 35.2588 265.994 34.6218C265.65 34.3054 265.348 33.9453 265.098 33.5508C265.487 33.8107 265.845 34.1162 266.162 34.4608C266.785 35.0558 267.639 35.8958 268.563 36.8338C269.487 37.7718 270.306 38.6328 270.887 39.2628C271.227 39.5829 271.528 39.9424 271.783 40.3338Z" fill="#E0E0E0"/>
<path d="M308.966 78.9047C308.966 78.9047 308.966 78.8347 308.966 78.7157C308.966 78.5967 308.966 78.4007 308.966 78.1767C308.966 77.6867 308.966 76.9867 308.966 76.0767C308.966 74.2357 308.966 71.5687 308.931 68.1737C308.931 61.3837 308.889 51.7097 308.861 40.1317L309.001 40.2717H271.901L272.069 40.1107C272.069 54.3417 272.069 67.6487 272.069 78.8767L271.929 78.7367L298.781 78.8067H306.327H308.322H308.833C308.893 78.7988 308.955 78.7988 309.015 78.8067H308.35H306.383L298.872 78.8487L271.929 78.9187H271.789V78.7787C271.789 67.5787 271.789 54.2787 271.789 40.0127V39.9707H271.957H309.057H309.204V40.1177C309.204 51.7377 309.148 61.4397 309.127 68.2507C309.127 71.6317 309.127 74.2917 309.092 76.1187C309.092 77.0147 309.092 77.7077 309.092 78.2187C309.092 78.4427 309.092 78.6177 309.092 78.7437C309.059 78.8037 309.016 78.858 308.966 78.9047Z" fill="#E0E0E0"/>
<path d="M296.682 53.3125H284.271V65.7235H296.682V53.3125Z" fill="#EBEBEB"/>
<path d="M319.354 99.8555H268.492V152.873H319.354V99.8555Z" fill="#E0E0E0"/>
<path d="M315.903 99.8555H265.041V152.873H315.903V99.8555Z" fill="#FAFAFA"/>
<path d="M315.924 152.887H265.027V99.834H315.924V152.887ZM265.062 152.887H315.889V99.869H265.062V152.887Z" fill="#E0E0E0"/>
<path d="M309.065 106.98H271.881V145.746H309.065V106.98Z" fill="white"/>
<path d="M271.881 146C271.617 146.391 271.31 146.751 270.964 147.071C270.369 147.694 269.564 148.548 268.598 149.465C267.632 150.382 266.806 151.208 266.169 151.789C265.85 152.131 265.491 152.432 265.098 152.685C265.358 152.295 265.663 151.938 266.008 151.621C266.603 150.998 267.443 150.144 268.381 149.22C269.319 148.296 270.18 147.477 270.81 146.896C271.13 146.556 271.489 146.255 271.881 146Z" fill="#E0E0E0"/>
<path d="M309.072 145.908C309.462 146.171 309.819 146.479 310.136 146.825C310.766 147.42 311.613 148.225 312.53 149.191C313.447 150.157 314.273 150.983 314.861 151.62C315.198 151.943 315.499 152.302 315.757 152.691C315.364 152.436 315.007 152.13 314.693 151.781C314.063 151.186 313.216 150.346 312.292 149.408C311.368 148.47 310.542 147.609 309.961 146.979C309.624 146.658 309.326 146.299 309.072 145.908Z" fill="#E0E0E0"/>
<path d="M308.967 107.101C309.23 106.71 309.538 106.35 309.884 106.03C310.479 105.407 311.284 104.553 312.25 103.636C313.216 102.719 314.042 101.893 314.679 101.312C314.998 100.969 315.361 100.667 315.757 100.416C315.491 100.801 315.183 101.155 314.84 101.473C314.245 102.103 313.44 102.95 312.474 103.881C311.508 104.812 310.675 105.624 310.038 106.205C309.718 106.545 309.358 106.846 308.967 107.101Z" fill="#E0E0E0"/>
<path d="M271.783 107.178C271.391 106.914 271.032 106.606 270.712 106.261C270.089 105.666 269.242 104.861 268.318 103.895C267.394 102.929 266.575 102.103 265.994 101.466C265.651 101.147 265.35 100.788 265.098 100.395C265.487 100.654 265.845 100.96 266.162 101.305C266.785 101.9 267.639 102.74 268.563 103.678C269.487 104.616 270.306 105.477 270.887 106.107C271.227 106.427 271.528 106.786 271.783 107.178Z" fill="#E0E0E0"/>
<path d="M308.966 145.748C308.966 145.748 308.966 145.677 308.966 145.558C308.966 145.439 308.966 145.243 308.966 145.013C308.966 144.529 308.966 143.829 308.966 142.912C308.966 141.078 308.966 138.405 308.931 135.017C308.931 128.227 308.889 118.553 308.861 106.975L309.001 107.115H271.901L272.069 106.953C272.069 121.177 272.069 134.491 272.069 145.719L271.929 145.573L298.781 145.65H306.327H308.322H308.833C308.894 145.644 308.955 145.644 309.015 145.65H308.35H306.383L298.872 145.684L271.929 145.761H271.789V145.621C271.789 134.421 271.789 121.079 271.789 106.855V106.688H271.957H309.057H309.204V106.834C309.204 118.454 309.148 128.156 309.127 134.967C309.127 138.348 309.127 141.008 309.092 142.835C309.092 143.731 309.092 144.417 309.092 144.935C309.092 145.16 309.092 145.334 309.092 145.46C309.074 145.565 309.031 145.664 308.966 145.748Z" fill="#E0E0E0"/>
<path d="M296.682 120.154H284.271V132.565H296.682V120.154Z" fill="#EBEBEB"/>
<path d="M79.4368 32.998H24.8438V112.126H79.4368V32.998Z" fill="#E0E0E0"/>
<path d="M76.7004 32.998H22.1074V112.126H76.7004V32.998Z" fill="#F5F5F5"/>
<path d="M69.9157 41.5664H28.8887V103.558H69.9157V41.5664Z" fill="white"/>
<path d="M69.9175 103.557C69.9175 103.557 69.9175 103.452 69.9175 103.256C69.9175 103.06 69.9175 102.759 69.9175 102.374C69.9175 101.597 69.9175 100.456 69.9175 98.9723C69.9175 96.0043 69.9175 91.6713 69.9175 86.2043C69.9175 75.2703 69.8755 59.7933 69.8475 41.5653L69.9805 41.6983H28.9605L29.1075 41.5513C29.1075 64.9383 29.1075 86.4983 29.1075 103.543L28.9885 103.424L58.8505 103.487H67.1035H69.2665H70.0155H69.3155H67.1735L58.8015 103.599L28.8625 103.662H28.7715V103.543C28.7715 86.4983 28.7715 64.9383 28.7715 41.5513V41.4043H28.9255H69.9455H70.0855V41.5373C70.0855 59.8003 70.0365 75.3123 70.0155 86.2673C70.0155 91.7203 70.0155 96.0673 70.0155 99.0073C70.0155 100.47 70.0155 101.604 70.0155 102.374C70.0155 102.752 70.0155 103.074 70.0155 103.242C70.0155 103.41 69.9175 103.557 69.9175 103.557Z" fill="#E0E0E0"/>
<path d="M76.8539 32.998C76.5724 33.493 76.2467 33.9616 75.8809 34.398C75.2509 35.245 74.3479 36.4 73.3189 37.646C72.2899 38.892 71.3309 39.998 70.6239 40.782C70.2616 41.2248 69.8585 41.6326 69.4199 42C69.7271 41.5045 70.076 41.0362 70.4629 40.6C71.1629 39.718 72.0939 38.619 73.0949 37.415L75.7199 34.3C76.0608 33.8351 76.4402 33.3996 76.8539 32.998Z" fill="#E0E0E0"/>
<path d="M70.127 103.355C72.1678 106.601 74.5701 109.604 77.288 112.308L70.127 103.355Z" fill="white"/>
<path d="M77.288 112.308C76.8326 111.974 76.4127 111.594 76.035 111.174C75.335 110.432 74.334 109.368 73.34 108.129C72.4916 107.069 71.6973 105.966 70.96 104.825C70.6349 104.364 70.3559 103.872 70.127 103.355C70.4981 103.779 70.8351 104.23 71.135 104.706C71.737 105.553 72.584 106.708 73.571 107.94C74.558 109.172 75.496 110.257 76.189 111.027C76.5856 111.428 76.9529 111.856 77.288 112.308Z" fill="#E0E0E0"/>
<path d="M22.0996 112.062L29.2536 103.242L22.0996 112.062Z" fill="white"/>
<path d="M29.2536 103.242C28.1749 104.8 27.0184 106.302 25.7886 107.743C24.6357 109.247 23.4043 110.688 22.0996 112.062C23.1745 110.504 24.3287 109.001 25.5576 107.561C26.714 106.059 27.9477 104.617 29.2536 103.242Z" fill="#E0E0E0"/>
<path d="M22.1074 32.998C23.3493 34.3141 24.5177 35.6975 25.6074 37.142C26.7676 38.5273 27.8496 39.9762 28.8484 41.482C27.6098 40.1607 26.4415 38.7751 25.3484 37.331C24.1913 35.9458 23.1094 34.4994 22.1074 32.998Z" fill="#E0E0E0"/>
<path d="M57.1414 54.1523H43.4004V93.1563H57.1414V54.1523Z" fill="#E0E0E0"/>
<path d="M23.17 311.605H79.877V305.536H23.17V311.605Z" fill="#EBEBEB"/>
<path d="M57.0151 264.936C57.0151 266.336 34.4261 326.144 34.4261 326.144H25.8301L48.3631 264.936H57.0151Z" fill="#EBEBEB"/>
<path d="M79.0297 326.145H87.5977L87.5977 262.186H79.0297V326.145Z" fill="#EBEBEB"/>
<path d="M31.6825 289.387H83.3145V283.318H31.6825V289.387Z" fill="#EBEBEB"/>
<path d="M41.048 267.184H88.459V261.115H41.048V267.184Z" fill="#EBEBEB"/>
<path d="M40.0059 267.184C40.0059 267.282 50.7019 267.359 63.8899 267.359C77.0779 267.359 87.7809 267.282 87.7809 267.184C87.7809 267.086 77.0849 267.002 63.8899 267.002C50.6949 267.002 40.0059 267.086 40.0059 267.184Z" fill="#E0E0E0"/>
<path d="M79.0297 266.932C79.1347 266.932 79.2117 280.183 79.2117 296.528C79.2117 312.873 79.1347 326.124 79.0297 326.124C78.9247 326.124 78.8477 312.873 78.8477 296.528C78.8477 280.183 78.9317 266.932 79.0297 266.932Z" fill="#E0E0E0"/>
<path d="M55.9584 267.645C55.9662 267.696 55.9662 267.747 55.9584 267.799C55.9584 267.925 55.8744 268.072 55.8184 268.254C55.6714 268.674 55.4824 269.248 55.2374 269.976C54.7264 271.467 53.9704 273.623 53.0184 276.276C51.1214 281.589 48.4194 288.876 45.3954 296.954L37.6954 317.604L35.3714 323.862C35.0984 324.562 34.8884 325.143 34.7274 325.563L34.5524 325.997C34.5353 326.048 34.5118 326.098 34.4824 326.144C34.4746 326.092 34.4746 326.041 34.4824 325.99L34.6224 325.535L35.2034 323.813C35.7074 322.322 36.4704 320.166 37.4224 317.513C39.2984 312.2 42.0004 304.892 45.0244 296.8C48.0484 288.708 50.7574 281.47 52.7244 276.164L55.0484 269.899C55.3214 269.199 55.5314 268.618 55.6924 268.198L55.8674 267.764C55.8931 267.72 55.9236 267.681 55.9584 267.645Z" fill="#E0E0E0"/>
<path d="M47.4187 267.309C47.4095 267.363 47.3955 267.417 47.3767 267.47L47.2368 267.925C47.0898 268.345 46.9007 268.926 46.6558 269.654C46.1447 271.159 45.3817 273.322 44.4227 275.954C42.5117 281.302 39.7957 288.652 36.7227 296.758C33.6497 304.864 30.9547 312.158 28.9527 317.52C27.9797 320.152 27.1817 322.294 26.6147 323.82C26.3417 324.52 26.1317 325.108 25.9707 325.528L25.7957 325.969C25.7784 326.022 25.7524 326.071 25.7188 326.116C25.7277 326.063 25.7417 326.011 25.7607 325.962C25.7607 325.836 25.8447 325.689 25.9007 325.507C26.0407 325.08 26.2368 324.499 26.4818 323.771C26.9928 322.273 27.7557 320.103 28.7147 317.436C30.6257 312.095 33.3417 304.745 36.4147 296.632C39.4877 288.519 42.1827 281.232 44.1777 275.877L46.5227 269.577C46.7887 268.877 47.0057 268.289 47.1667 267.869L47.3417 267.428C47.3617 267.385 47.3876 267.344 47.4187 267.309Z" fill="#E0E0E0"/>
<path d="M78.6603 202.791C78.6561 204.243 78.2059 205.658 77.3704 206.846C76.535 208.034 75.3547 208.936 73.9895 209.431C72.6242 209.925 71.14 209.989 69.7377 209.612C68.3353 209.235 67.0827 208.436 66.1494 207.324C65.2161 206.211 64.6472 204.839 64.5197 203.392C64.3922 201.946 64.7123 200.495 65.4367 199.237C66.161 197.978 67.2546 196.973 68.5694 196.356C69.8842 195.74 71.3566 195.542 72.7873 195.791C74.4295 196.088 75.9159 196.951 76.9886 198.23C78.0613 199.508 78.6527 201.122 78.6603 202.791C78.6603 205.241 82.5103 205.248 82.4753 202.791C82.4518 200.56 81.7548 198.389 80.4756 196.561C79.1965 194.734 77.395 193.335 75.3073 192.55C73.195 191.784 70.8976 191.689 68.7294 192.278C66.5611 192.868 64.6278 194.112 63.1937 195.842C61.7597 197.572 60.8949 199.702 60.7176 201.942C60.5403 204.182 61.0592 206.422 62.2033 208.356C63.3682 210.276 65.0914 211.796 67.1426 212.712C69.1939 213.627 71.4757 213.895 73.6833 213.48C78.7793 212.563 82.4053 207.88 82.4753 202.791C82.5103 200.334 78.6953 200.334 78.6603 202.791Z" fill="#F5F5F5"/>
<path d="M59.8862 211.4C58.4396 212.964 56.9252 214.462 55.3432 215.894C54.9905 216.254 54.793 216.738 54.793 217.242C54.793 217.746 54.9905 218.229 55.3432 218.589C55.7068 218.938 56.1908 219.132 56.6942 219.132C57.1977 219.132 57.6817 218.938 58.0452 218.589C59.6202 217.189 61.1392 215.656 62.5812 214.095C62.9334 213.733 63.1337 213.25 63.1412 212.744C63.1417 212.367 63.03 211.998 62.8204 211.684C62.6108 211.37 62.3127 211.126 61.9639 210.982C61.6151 210.838 61.2314 210.801 60.8615 210.875C60.4916 210.95 60.1521 211.133 59.8862 211.4Z" fill="#F5F5F5"/>
<path d="M69.4961 216.846V223.377C69.5255 223.863 69.7393 224.319 70.0938 224.653C70.4483 224.987 70.9168 225.173 71.4036 225.173C71.8904 225.173 72.3589 224.987 72.7134 224.653C73.0679 224.319 73.2816 223.863 73.3111 223.377V216.846C73.2816 216.36 73.0679 215.904 72.7134 215.57C72.3589 215.237 71.8904 215.051 71.4036 215.051C70.9168 215.051 70.4483 215.237 70.0938 215.57C69.7393 215.904 69.5255 216.36 69.4961 216.846Z" fill="#F5F5F5"/>
<path d="M80.0239 214.075L84.7769 219.031C85.1379 219.384 85.6229 219.581 86.1279 219.581C86.6329 219.581 87.1179 219.384 87.4789 219.031C87.8272 218.667 88.0216 218.183 88.0216 217.68C88.0216 217.176 87.8272 216.692 87.4789 216.329L82.7189 211.373C82.3591 211.02 81.8753 210.822 81.3714 210.822C80.8675 210.822 80.3837 211.02 80.0239 211.373C79.674 211.735 79.4785 212.22 79.4785 212.724C79.4785 213.228 79.674 213.712 80.0239 214.075Z" fill="#F5F5F5"/>
<path d="M82.9288 193.718C84.3778 192.157 85.8898 190.652 87.4648 189.224C87.8196 188.864 88.0185 188.379 88.0185 187.873C88.0185 187.368 87.8196 186.883 87.4648 186.522C87.1024 186.175 86.6196 185.98 86.1173 185.98C85.615 185.98 85.1322 186.175 84.7698 186.522C83.1972 187.955 81.6828 189.453 80.2268 191.016C79.8808 191.382 79.6836 191.864 79.6738 192.367C79.6751 192.873 79.8735 193.357 80.2268 193.718C80.5852 194.077 81.0711 194.278 81.5778 194.278C82.0845 194.278 82.5705 194.077 82.9288 193.718Z" fill="#F5F5F5"/>
<path d="M73.3189 188.301V181.77C73.2895 181.284 73.0757 180.828 72.7212 180.494C72.3667 180.16 71.8982 179.975 71.4114 179.975C70.9246 179.975 70.4561 180.16 70.1016 180.494C69.7471 180.828 69.5334 181.284 69.5039 181.77V188.301C69.5334 188.787 69.7471 189.243 70.1016 189.577C70.4561 189.911 70.9246 190.096 71.4114 190.096C71.8982 190.096 72.3667 189.911 72.7212 189.577C73.0757 189.243 73.2895 188.787 73.3189 188.301Z" fill="#F5F5F5"/>
<path d="M62.7914 191.043L58.0314 186.087C57.6716 185.735 57.1878 185.537 56.6839 185.537C56.18 185.537 55.6962 185.735 55.3364 186.087C54.9865 186.45 54.791 186.934 54.791 187.438C54.791 187.942 54.9865 188.427 55.3364 188.789L60.0964 193.745C60.4562 194.098 60.94 194.296 61.4439 194.296C61.9478 194.296 62.4316 194.098 62.7914 193.745C63.1413 193.383 63.3368 192.898 63.3368 192.394C63.3368 191.89 63.1413 191.406 62.7914 191.043Z" fill="#F5F5F5"/>
<path d="M85.8208 204.715H92.8208C93.3067 204.686 93.7631 204.472 94.0967 204.118C94.4304 203.763 94.6162 203.295 94.6162 202.808C94.6162 202.321 94.4304 201.853 94.0967 201.498C93.7631 201.144 93.3067 200.93 92.8208 200.9H85.8208C85.3349 200.93 84.8785 201.144 84.5448 201.498C84.2112 201.853 84.0254 202.321 84.0254 202.808C84.0254 203.295 84.2112 203.763 84.5448 204.118C84.8785 204.472 85.3349 204.686 85.8208 204.715Z" fill="#F5F5F5"/>
<path d="M49.7707 204.791H57.6667C58.1527 204.762 58.609 204.548 58.9427 204.193C59.2764 203.839 59.4621 203.37 59.4621 202.884C59.4621 202.397 59.2764 201.928 58.9427 201.574C58.609 201.219 58.1527 201.006 57.6667 200.976H49.7707C49.5105 200.96 49.2498 200.998 49.0047 201.087C48.7596 201.175 48.5352 201.313 48.3454 201.492C48.1555 201.671 48.0043 201.886 47.9009 202.126C47.7975 202.365 47.7441 202.623 47.7441 202.884C47.7441 203.144 47.7975 203.402 47.9009 203.642C48.0043 203.881 48.1555 204.097 48.3454 204.275C48.5352 204.454 48.7596 204.592 49.0047 204.681C49.2498 204.769 49.5105 204.807 49.7707 204.791Z" fill="#F5F5F5"/>
<path d="M56.4283 136.717C48.4973 138.684 43.3593 147.217 45.2283 155.134C47.0973 163.051 54.7623 168.357 62.7283 167.79C66.9703 167.489 70.8623 165.424 72.8643 161.567C73.7603 159.838 71.1493 158.305 70.2533 160.034C67.3203 165.683 59.6693 165.865 54.6363 163.002C48.9103 159.754 46.0473 152.39 49.0713 146.349C49.8609 144.709 50.9961 143.26 52.3991 142.102C53.802 140.943 55.4393 140.102 57.1983 139.636C59.0883 139.167 58.2833 136.248 56.3933 136.717H56.4283Z" fill="#F5F5F5"/>
<path d="M55.4046 137.578C54.1033 139.668 53.2875 142.023 53.0173 144.47C52.7472 146.917 53.0296 149.394 53.8436 151.718C55.1547 155.247 57.6526 158.211 60.9092 160.101C64.1658 161.991 67.9784 162.69 71.6936 162.078C72.079 161.968 72.4058 161.711 72.6035 161.363C72.8013 161.015 72.8541 160.603 72.7506 160.216C72.635 159.834 72.3772 159.512 72.0307 159.315C71.6842 159.119 71.2753 159.062 70.8886 159.159C69.0295 159.411 67.1381 159.269 65.3374 158.742C63.5368 158.215 61.8673 157.315 60.4376 156.1C58.9459 154.804 57.7704 153.184 57.0012 151.364C56.2319 149.544 55.8893 147.572 55.9996 145.6C56.1016 143.294 56.8089 141.056 58.0506 139.111C59.1006 137.466 56.4826 135.947 55.4396 137.585L55.4046 137.578Z" fill="#F5F5F5"/>
<path d="M326.375 189.84H258.006V319.074H326.375V189.84Z" fill="#E0E0E0"/>
<path d="M306.09 189.84H237.721V319.074H306.09V189.84Z" fill="#F5F5F5"/>
<path d="M301.05 216.441H242.369V195.959H301.05V216.441ZM243.09 215.741H300.301V196.701H243.09V215.741Z" fill="#E0E0E0"/>
<path d="M260.974 196.314H283.241V196.93C283.241 197.849 282.876 198.731 282.226 199.381C281.576 200.03 280.695 200.395 279.776 200.395H264.432C263.513 200.395 262.631 200.03 261.982 199.381C261.332 198.731 260.967 197.849 260.967 196.93V196.314H260.974Z" fill="#EBEBEB"/>
<path d="M301.05 242.466H242.369V221.977H301.05V242.466ZM243.09 241.766H300.301V222.698H243.09V241.766Z" fill="#E0E0E0"/>
<path d="M260.974 222.342H283.241V222.958C283.241 223.877 282.876 224.758 282.226 225.408C281.576 226.058 280.695 226.423 279.776 226.423H264.432C263.513 226.423 262.631 226.058 261.982 225.408C261.332 224.758 260.967 223.877 260.967 222.958V222.342H260.974Z" fill="#EBEBEB"/>
<path d="M301.05 268.486H242.369V248.004H301.05V268.486ZM243.09 267.786H300.301V248.746H243.09V267.786Z" fill="#E0E0E0"/>
<path d="M260.974 248.359H283.241V248.975C283.241 249.894 282.876 250.776 282.226 251.426C281.576 252.075 280.695 252.44 279.776 252.44H264.432C263.513 252.44 262.631 252.075 261.982 251.426C261.332 250.776 260.967 249.894 260.967 248.975V248.359H260.974Z" fill="#EBEBEB"/>
<path d="M301.05 294.51H242.369V274.021H301.05V294.51ZM243.09 293.81H300.301V274.742H243.09V293.81Z" fill="#E0E0E0"/>
<path d="M260.975 274.4H283.242V275.016C283.242 275.935 282.877 276.817 282.227 277.467C281.577 278.116 280.696 278.481 279.777 278.481H264.44C263.521 278.481 262.639 278.116 261.989 277.467C261.34 276.817 260.975 275.935 260.975 275.016V274.4Z" fill="#EBEBEB"/>
<path d="M308.94 185.004H234.684V191.444H308.94V185.004Z" fill="#EBEBEB"/>
<path d="M331.275 185.004H308.945V191.444H331.275V185.004Z" fill="#E0E0E0"/>
<path d="M241.312 319.074H237.721V325.675H241.312V319.074Z" fill="#E0E0E0"/>
<path d="M263.509 319.074H259.918V325.675H263.509V319.074Z" fill="#E0E0E0"/>
<path d="M304.052 319.074H300.461V325.675H304.052V319.074Z" fill="#E0E0E0"/>
<path d="M324.331 319.074H320.74V325.675H324.331V319.074Z" fill="#E0E0E0"/>
<path d="M318.752 326.145C318.752 326.25 254.387 326.327 175.007 326.327C95.627 326.327 31.248 326.25 31.248 326.145C31.248 326.04 95.599 325.963 175.007 325.963C254.415 325.963 318.752 326.047 318.752 326.145Z" fill="#263238"/>
<path d="M223.833 304.892C223.833 304.892 220.746 283.696 221.033 271.362C221.32 259.028 221.033 245.154 221.033 245.154H222.433C222.433 245.154 221.467 269.654 222.517 284.396C223.567 299.138 226.318 304.892 226.318 304.892H223.854" fill="#263238"/>
<path d="M233.015 221.305C232.791 220.554 232.338 219.891 231.72 219.408C230.817 218.841 229.62 219.079 228.626 219.408C224.335 220.927 220.534 228.935 218.826 233.142L224.524 252.343C234.779 242.823 236.599 230.3 233.015 221.305Z" fill="#455A64"/>
<path d="M231.384 220.186C231.367 220.273 231.339 220.358 231.3 220.438C231.23 220.62 231.139 220.851 231.02 221.138C230.775 221.74 230.425 222.622 230.005 223.714C229.165 225.891 228.094 228.943 227.142 232.373C226.19 235.803 225.532 238.974 225.126 241.277C224.923 242.425 224.769 243.377 224.671 244.007C224.622 244.308 224.587 244.553 224.552 244.749C224.544 244.837 224.526 244.924 224.496 245.008C224.486 244.922 224.486 244.835 224.496 244.749C224.496 244.546 224.545 244.301 224.58 243.993C224.643 243.342 224.776 242.404 224.958 241.249C225.443 238.236 226.092 235.251 226.904 232.31C227.723 229.371 228.704 226.48 229.844 223.651C230.285 222.566 230.656 221.698 230.929 221.103L231.251 220.403C231.289 220.326 231.334 220.254 231.384 220.186Z" fill="#263238"/>
<path d="M221.964 256.971C219.37 255.495 217.199 253.377 215.66 250.82C214.122 248.262 213.267 245.352 213.179 242.369C212.976 238.113 214.285 233.927 215.769 229.93C215.857 229.567 216.07 229.247 216.371 229.027C216.613 228.938 216.873 228.912 217.128 228.951C217.382 228.991 217.623 229.093 217.827 229.251C221.705 231.463 224.057 235.677 225.31 239.961C226.208 242.806 226.509 245.807 226.192 248.774C225.711 251.887 224.238 254.761 221.992 256.971" fill="#455A64"/>
<path d="M221.963 256.97C221.954 256.884 221.954 256.798 221.963 256.711C221.963 256.522 221.963 256.277 221.963 255.976C221.963 255.339 221.963 254.408 221.886 253.267C221.731 250.294 221.399 247.332 220.892 244.398C220.297 240.961 219.576 237.881 219.051 235.655C218.785 234.563 218.575 233.674 218.414 233.016C218.351 232.722 218.295 232.484 218.253 232.316C218.229 232.234 218.215 232.15 218.211 232.064C218.246 232.143 218.275 232.225 218.295 232.309L218.505 233.009C218.68 233.625 218.925 234.521 219.205 235.627C219.772 237.846 220.521 240.926 221.116 244.37C221.629 247.314 221.938 250.289 222.04 253.274C222.04 254.422 222.04 255.374 222.04 255.99C222.04 256.291 222.04 256.536 222.04 256.732C222.021 256.814 221.996 256.894 221.963 256.97Z" fill="#263238"/>
<g opacity="0.3">
<path d="M221.964 256.971C219.37 255.495 217.199 253.377 215.66 250.82C214.122 248.262 213.267 245.352 213.179 242.369C212.976 238.113 214.285 233.927 215.769 229.93C215.857 229.567 216.07 229.247 216.371 229.027C216.613 228.938 216.873 228.912 217.128 228.951C217.382 228.991 217.623 229.093 217.827 229.251C221.705 231.463 224.057 235.677 225.31 239.961C226.208 242.806 226.509 245.807 226.192 248.774C225.711 251.887 224.238 254.761 221.992 256.971" fill="black"/>
</g>
<path d="M227.99 289.408C233.247 290.563 237.573 294.266 242.648 296.072C246.001 297.262 249.802 297.689 252.448 300.034C251.811 298.41 250.285 297.325 248.801 296.401C244.619 293.796 240.158 291.668 235.501 290.059C233.114 289.24 230.524 288.547 228.095 289.226" fill="#455A64"/>
<path d="M220.387 294.091C213.8 293.979 206.87 288.379 200.318 288.043C207.178 285.831 216.992 287.637 220.387 294.091Z" fill="#455A64"/>
<path d="M222.964 278.293C226.352 277.19 229.961 276.95 233.464 277.593C236.962 278.239 240.399 279.175 243.74 280.393C243.404 278.111 241.556 276.389 239.82 274.87C238.548 273.684 237.165 272.622 235.69 271.699C234.207 270.773 232.49 270.288 230.741 270.299C229.693 270.368 228.668 270.647 227.73 271.121C226.792 271.595 225.959 272.254 225.281 273.057C223.951 274.509 223.131 276.354 222.943 278.314" fill="#455A64"/>
<path d="M209.447 271.026C205.303 267.484 199.024 267.834 193.578 267.953C202.332 272.126 210.588 277.27 218.19 283.29C218.4 279.44 214.683 275.492 209.447 271.026Z" fill="#455A64"/>
<g opacity="0.3">
<path d="M209.447 271.026C205.303 267.484 199.024 267.834 193.578 267.953C202.332 272.126 210.588 277.27 218.19 283.29C218.4 279.44 214.683 275.492 209.447 271.026Z" fill="black"/>
</g>
<path d="M224.826 266.14C226.846 264.737 228.976 263.498 231.196 262.437C233.38 261.443 235.396 259.861 237.496 258.72C240.226 257.243 242.592 255.185 245.105 253.351C247.618 251.517 250.362 249.851 253.435 249.375C250.908 248.93 248.312 249.081 245.854 249.816C243.404 250.56 241.016 251.496 238.714 252.616C235.48 254.072 232.19 255.563 229.551 257.929C226.912 260.295 224.518 262.626 224.798 266.161" fill="#455A64"/>
<path d="M242.53 294.091C242.457 294.069 242.386 294.039 242.32 294L241.746 293.699C241.249 293.44 240.535 293.048 239.646 292.593C239.205 292.362 238.715 292.117 238.183 291.893C237.651 291.669 237.077 291.375 236.468 291.109C235.159 290.529 233.803 290.061 232.415 289.709C231.044 289.334 229.603 289.298 228.215 289.604C227.604 289.733 227.004 289.914 226.423 290.143C225.921 290.344 225.439 290.59 224.981 290.878C224.313 291.3 223.701 291.806 223.161 292.383C222.783 292.789 222.594 293.041 222.58 293.027C222.611 292.957 222.651 292.891 222.699 292.831C222.783 292.712 222.916 292.537 223.098 292.32C223.617 291.712 224.22 291.181 224.89 290.745C225.352 290.438 225.841 290.175 226.353 289.961C226.941 289.723 227.547 289.534 228.166 289.394C229.593 289.062 231.08 289.093 232.492 289.485C233.895 289.842 235.264 290.324 236.58 290.927C237.189 291.193 237.763 291.459 238.288 291.732C238.813 292.005 239.31 292.243 239.744 292.488C240.633 292.964 241.34 293.377 241.844 293.664L242.397 294C242.444 294.026 242.489 294.057 242.53 294.091Z" fill="#263238"/>
<path d="M215.475 290.83C215.475 290.83 215.629 290.83 215.888 290.949C216.257 291.079 216.617 291.234 216.966 291.411C218.118 291.997 219.177 292.749 220.109 293.644C221.041 294.538 221.834 295.567 222.461 296.696C222.654 297.037 222.825 297.39 222.972 297.753C223.037 297.881 223.084 298.018 223.112 298.159C223.07 298.159 222.825 297.62 222.321 296.759C220.999 294.573 219.126 292.772 216.889 291.537C216.028 291.089 215.461 290.865 215.475 290.83Z" fill="#263238"/>
<path d="M200.9 270.689C200.997 270.707 201.09 270.735 201.18 270.773L201.971 271.053L203.217 271.515C203.707 271.697 204.232 271.963 204.827 272.215C207.918 273.645 210.802 275.484 213.402 277.682C214.819 278.905 216.155 280.219 217.399 281.616C218.407 282.765 219.353 283.966 220.234 285.214C220.983 286.278 221.557 287.16 221.949 287.776L222.397 288.476C222.455 288.555 222.504 288.64 222.544 288.728C222.474 288.663 222.412 288.587 222.362 288.504C222.243 288.35 222.075 288.119 221.872 287.804C221.459 287.209 220.864 286.334 220.101 285.284C219.338 284.234 218.372 283.023 217.238 281.742C215.992 280.358 214.659 279.053 213.248 277.836C210.659 275.659 207.806 273.815 204.757 272.348C204.169 272.075 203.644 271.802 203.168 271.606L201.943 271.116L201.166 270.794C201.073 270.772 200.984 270.736 200.9 270.689Z" fill="#263238"/>
<path d="M232.84 274.59C232.663 274.593 232.487 274.572 232.315 274.527L231.699 274.401C231.461 274.352 231.188 274.352 230.887 274.324C229.326 274.186 227.758 274.494 226.365 275.213C225.6 275.611 224.903 276.129 224.3 276.746C223.8 277.239 223.357 277.786 222.977 278.377C222.637 278.932 222.336 279.51 222.074 280.106C222.092 279.93 222.137 279.757 222.207 279.595C222.372 279.14 222.583 278.704 222.837 278.293C223.204 277.676 223.644 277.105 224.146 276.592C225.007 275.691 226.065 275.002 227.237 274.579C228.409 274.156 229.664 274.011 230.901 274.156C231.202 274.198 231.482 274.212 231.72 274.268L232.322 274.422C232.501 274.457 232.675 274.513 232.84 274.59Z" fill="#263238"/>
<path d="M239.455 254.1C239.38 254.16 239.298 254.212 239.21 254.254L238.475 254.653C237.831 254.996 236.914 255.5 235.801 256.158C234.688 256.816 233.379 257.649 231.986 258.643C230.464 259.705 229.037 260.9 227.723 262.213C227.047 262.885 226.461 263.643 225.98 264.467C225.553 265.293 225.14 266.091 224.762 266.861C224.08 268.216 223.468 269.607 222.928 271.026C222.577 271.986 222.28 272.965 222.039 273.959C221.871 274.659 221.815 275.065 221.787 275.058C221.777 274.96 221.777 274.861 221.787 274.764C221.787 274.575 221.85 274.295 221.927 273.938C222.128 272.93 222.402 271.938 222.746 270.97C223.265 269.537 223.863 268.135 224.538 266.77C224.916 265.993 225.322 265.188 225.749 264.362C226.236 263.514 226.834 262.734 227.527 262.045C228.852 260.725 230.292 259.528 231.832 258.468C233.232 257.474 234.562 256.669 235.689 256.018C236.816 255.367 237.754 254.891 238.405 254.569L239.161 254.212C239.254 254.161 239.353 254.123 239.455 254.1Z" fill="#263238"/>
<path d="M220.998 274C220.93 273.82 220.886 273.632 220.865 273.44C220.788 273.034 220.69 272.53 220.578 271.921C220.258 270.251 219.842 268.601 219.332 266.979C218.8 265.365 218.171 263.785 217.449 262.247C217.197 261.68 216.98 261.211 216.812 260.847C216.716 260.684 216.645 260.507 216.602 260.322C216.714 260.473 216.81 260.635 216.889 260.805C217.064 261.127 217.309 261.603 217.589 262.205C218.354 263.735 219.007 265.319 219.542 266.944C220.06 268.574 220.455 270.24 220.725 271.928C220.83 272.572 220.907 273.097 220.942 273.468C220.977 273.643 220.996 273.822 220.998 274Z" fill="#263238"/>
<path d="M220.5 259C220.299 256.516 219.584 254.101 218.4 251.909C216.776 248.891 214.51 246.266 211.762 244.217C209.015 242.168 205.852 240.746 202.496 240.051L217.196 261.996L219.1 265.916C220.293 263.819 220.783 261.395 220.5 259Z" fill="#455A64"/>
<path d="M241.639 302.273H207.402V308.342H241.639V302.273Z" fill="#46B2C8"/>
<path d="M209.959 307.133L212.878 325.97H235.607L239.086 307.133H209.959Z" fill="#46B2C8"/>
<path d="M241.619 308.351C241.619 308.414 233.919 308.47 224.371 308.47C214.823 308.47 207.123 308.414 207.123 308.351C207.123 308.288 214.823 308.225 224.371 308.225C233.919 308.225 241.619 308.281 241.619 308.351Z" fill="#263238"/>
<path d="M218.449 28.9453H125.755C106.812 28.9453 91.4551 44.3019 91.4551 63.2453C91.4551 82.1887 106.812 97.5453 125.755 97.5453H218.449C237.392 97.5453 252.749 82.1887 252.749 63.2453C252.749 44.3019 237.392 28.9453 218.449 28.9453Z" fill="#E0E0E0"/>
<path d="M218.449 97.5445C218.449 97.5445 218.799 97.5445 219.478 97.4745L220.752 97.3975C221.338 97.3851 221.923 97.3337 222.502 97.2435L224.714 96.9005L225.337 96.8025L225.974 96.6345L227.332 96.2845C227.801 96.1515 228.305 96.0465 228.795 95.8855L230.328 95.3185C230.846 95.1155 231.406 94.9405 231.945 94.7025L233.611 93.8975C234.818 93.3118 235.987 92.6501 237.111 91.9165C237.722 91.5385 238.309 91.1223 238.868 90.6705L239.764 89.9705L240.219 89.6345L240.646 89.2495C241.213 88.7245 241.794 88.1995 242.389 87.6605C242.984 87.1215 243.488 86.4705 244.062 85.8615C244.335 85.5535 244.629 85.2455 244.902 84.9235L245.672 83.8875C245.931 83.5445 246.197 83.1875 246.456 82.8375L246.855 82.3055L247.198 81.7315C249.296 78.5215 250.812 74.9673 251.678 71.2315C252.667 67.0421 252.866 62.705 252.266 58.4425C251.601 53.7504 249.963 49.249 247.457 45.2265C244.758 40.8496 241.089 37.1518 236.733 34.4185L235.025 33.3825C234.451 33.0395 233.821 32.7875 233.219 32.4795C232.617 32.1715 232.022 31.8565 231.378 31.6395L229.453 30.9395C229.124 30.8275 228.809 30.6875 228.48 30.5965L227.479 30.3375L225.463 29.8265C224.763 29.7005 224.063 29.6095 223.363 29.4975C222.669 29.3711 221.968 29.2869 221.263 29.2455C218.463 29.0425 215.558 29.1265 212.639 29.1055H203.77H125.762C122.338 29.1586 118.936 29.6695 115.647 30.6245C112.431 31.6741 109.371 33.1503 106.547 35.0135C103.818 36.9232 101.358 39.1904 99.2321 41.7545C97.1946 44.3187 95.509 47.1437 94.2201 50.1545C93.0237 53.1523 92.2259 56.2941 91.8471 59.4995C91.7561 60.2905 91.7491 61.0885 91.7001 61.8795L91.6371 63.0625C91.6371 63.4615 91.6371 63.8535 91.6791 64.2455C91.7211 65.0365 91.7561 65.8205 91.7981 66.6045C91.8401 67.3885 92.0291 68.1515 92.1411 68.9285L92.3161 70.0835L92.5961 71.2105L93.1841 73.4645C93.4501 74.1645 93.7161 74.9065 93.9751 75.6275C94.1151 75.9915 94.2201 76.3275 94.3881 76.7055L94.8851 77.7345C96.1702 80.4767 97.8183 83.0337 99.7851 85.3365L101.283 86.9885L101.661 87.3945L102.067 87.7725L102.886 88.5145C103.964 89.5049 105.105 90.4239 106.302 91.2655C106.59 91.4854 106.891 91.6865 107.205 91.8675L108.136 92.4275L109.06 92.9945L109.522 93.2745L110.005 93.5055C111.267 94.1654 112.572 94.7407 113.911 95.2275C114.576 95.4585 115.227 95.7385 115.899 95.9275L117.929 96.4455L118.937 96.7045L119.966 96.8585L122.01 97.1735C122.71 97.2645 123.41 97.2575 124.047 97.3065C124.684 97.3555 125.405 97.3905 126.084 97.3975H130.116H159.775L202.727 97.4605L214.403 97.4955H217.441H218.477C218.477 97.4955 218.127 97.4955 217.441 97.4955H214.403H202.727L159.775 97.5515H130.116H126.084C125.384 97.5515 124.684 97.4885 124.033 97.4605C123.382 97.4325 122.633 97.4255 121.975 97.3275L119.875 97.0195L118.839 96.8585L117.824 96.5995L115.773 96.0745C115.073 95.8855 114.436 95.6055 113.764 95.3745C112.41 94.886 111.091 94.306 109.816 93.6385L109.326 93.4005L108.864 93.1205L107.933 92.5535L106.995 91.9865C106.674 91.8073 106.368 91.6037 106.078 91.3775C104.867 90.5222 103.714 89.5868 102.627 88.5775L101.801 87.8285L101.388 87.4505L101.01 87.0375L99.4911 85.3715C97.5183 83.0373 95.8701 80.4472 94.5911 77.6715L94.0871 76.6285C93.9191 76.2785 93.8141 75.9285 93.6671 75.5435L92.8691 73.3525C92.6731 72.5965 92.4771 71.8405 92.2741 71.0845L91.9871 69.9435L91.8051 68.7745C91.6931 67.9975 91.5531 67.2135 91.4621 66.4295C91.3711 65.6455 91.3851 64.8405 91.3431 64.0495C91.3431 63.6505 91.2871 63.2515 91.3011 62.8525L91.3641 61.6555C91.4131 60.8575 91.4131 60.0525 91.5111 59.2545C91.897 56.0241 92.7066 52.8585 93.9191 49.8395C95.2173 46.7948 96.9196 43.9388 98.9801 41.3485C103.272 36.043 109.04 32.1285 115.556 30.0995C118.878 29.1302 122.316 28.6122 125.776 28.5595H203.784H212.66C215.579 28.5595 218.456 28.5035 221.312 28.7135C222.017 28.7493 222.719 28.8335 223.412 28.9655C224.112 29.0775 224.812 29.1685 225.512 29.2945L227.549 29.8195L228.557 30.0785C228.893 30.1695 229.208 30.3095 229.537 30.4215L231.476 31.1215C232.127 31.3455 232.722 31.6955 233.338 31.9755C233.954 32.2555 234.577 32.5355 235.158 32.8855L236.88 33.9355C241.293 36.7607 244.987 40.5765 247.667 45.0795C250.186 49.1281 251.831 53.6582 252.497 58.3795C253.092 62.6739 252.883 67.0415 251.881 71.2595C251.004 75.0445 249.469 78.646 247.345 81.8995L246.995 82.4735L246.596 83.0125L245.805 84.0625L245 85.0705C244.72 85.3995 244.426 85.7075 244.146 86.0155C243.572 86.6245 243.054 87.2685 242.459 87.8145L240.702 89.4035L240.268 89.7885L239.813 90.1315L238.917 90.8315C238.351 91.2802 237.76 91.6962 237.146 92.0775C236.023 92.8093 234.854 93.4687 233.646 94.0515L231.973 94.8495C231.427 95.0945 230.867 95.2625 230.342 95.4655L228.809 96.0255C228.305 96.1865 227.808 96.2845 227.332 96.4175L225.967 96.7605L225.33 96.9215L224.7 97.0195L222.481 97.3485C221.899 97.4327 221.312 97.4771 220.724 97.4815L219.45 97.5375L218.449 97.5445Z" fill="#263238"/>
<g opacity="0.3">
<path d="M129.802 96.2696C147.752 96.2696 162.303 81.7184 162.303 63.7686C162.303 45.8188 147.752 31.2676 129.802 31.2676C111.852 31.2676 97.3008 45.8188 97.3008 63.7686C97.3008 81.7184 111.852 96.2696 129.802 96.2696Z" fill="black"/>
</g>
<path d="M126.763 95.7461C144.713 95.7461 159.264 81.1949 159.264 63.2451C159.264 45.2953 144.713 30.7441 126.763 30.7441C108.813 30.7441 94.2617 45.2953 94.2617 63.2451C94.2617 81.1949 108.813 95.7461 126.763 95.7461Z" fill="#FF5454"/>
<path d="M159.263 63.2453C159.263 63.2453 159.263 63.0633 159.214 62.7203L159.123 61.1733C159.123 60.8373 159.081 60.4733 159.053 60.0393C159.025 59.6053 158.92 59.1713 158.85 58.6813L158.598 57.0993C158.496 56.4932 158.363 55.8927 158.199 55.3003C157.443 52.2582 156.229 49.3482 154.601 46.6693C152.47 43.1095 149.676 39.9918 146.369 37.4853L144.969 36.4423C144.479 36.1203 143.961 35.8263 143.45 35.5113C142.939 35.1963 142.428 34.8533 141.868 34.5943L140.188 33.7893L139.299 33.4113L138.403 33.0893L136.583 32.3893C135.96 32.1863 135.316 32.0533 134.679 31.8783C134.035 31.6926 133.381 31.5453 132.719 31.4373C131.369 31.1854 130.003 31.0264 128.631 30.9613C127.931 30.9613 127.231 30.8703 126.531 30.8773L124.431 30.9893C124.067 30.9893 123.731 30.9893 123.346 31.0593L122.268 31.2273C121.568 31.3463 120.819 31.4303 120.098 31.5773C118.622 31.923 117.17 32.3649 115.751 32.9003L114.68 33.2923C114.498 33.3623 114.316 33.4183 114.141 33.4953L113.623 33.7473L111.523 34.7553C110.823 35.1263 110.186 35.5533 109.514 35.9523C109.185 36.1693 108.814 36.3443 108.513 36.5893L107.561 37.2893C106.27 38.2463 105.044 39.2894 103.893 40.4113L102.255 42.2173L101.842 42.6723L101.464 43.1623L100.729 44.1563L99.9873 45.1503L99.3433 46.2003L98.6993 47.2713L98.3703 47.8033C98.2723 47.9923 98.1883 48.1813 98.0973 48.3703C97.7333 49.1263 97.3973 49.8893 96.9983 50.6523C96.5993 51.4153 96.4173 52.2413 96.1233 53.0463C95.0567 56.3403 94.4926 59.7762 94.4502 63.2383C94.4938 66.702 95.0554 70.1398 96.1163 73.4373C96.4103 74.2446 96.7043 75.0426 96.9983 75.8313L98.0903 78.1133L98.3703 78.6803L98.6923 79.2193L99.3433 80.2903L99.9943 81.3473L100.736 82.3483L101.478 83.3353L101.849 83.8253L102.262 84.2803L103.907 86.0933C105.06 87.211 106.286 88.2516 107.575 89.2083L108.527 89.9083C108.842 90.1463 109.192 90.3283 109.528 90.5383C110.228 90.9443 110.858 91.3713 111.537 91.7423L113.637 92.7503L114.155 93.0023L114.687 93.2053L115.765 93.5973C117.173 94.1132 118.613 94.5341 120.077 94.8573C120.777 95.0113 121.533 95.0953 122.247 95.2143L123.332 95.3823C123.689 95.4243 124.032 95.4243 124.41 95.4523L126.552 95.5573C127.252 95.5573 127.952 95.5013 128.652 95.4803C130.024 95.4152 131.39 95.2562 132.74 95.0043C133.402 94.8971 134.056 94.7498 134.7 94.5633C135.337 94.3883 135.988 94.2553 136.604 94.0523L138.424 93.3873L139.299 93.1003L140.153 92.6943L141.833 91.8893C142.393 91.6373 142.89 91.2733 143.415 90.9793C143.94 90.6853 144.444 90.3633 144.934 90.0413L146.334 88.9983C149.651 86.4932 152.451 83.3698 154.58 79.8003C156.218 77.1214 157.438 74.2087 158.199 71.1623C158.339 70.5323 158.556 69.9583 158.619 69.3913L158.871 67.8093C158.941 67.3193 159.032 66.8643 159.074 66.4513C159.116 66.0383 159.123 65.6533 159.144 65.3103L159.235 63.7703C159.235 63.4203 159.284 63.2453 159.284 63.2453C159.284 63.2453 159.284 63.4203 159.284 63.7703C159.284 64.1203 159.284 64.6453 159.221 65.3173C159.221 65.6603 159.221 66.0173 159.172 66.4583C159.123 66.8993 159.053 67.3263 158.983 67.8583C158.913 68.3903 158.836 68.8803 158.752 69.4473C158.645 70.049 158.507 70.6447 158.339 71.2323C157.608 74.2959 156.409 77.2284 154.783 79.9263C152.66 83.5277 149.857 86.6825 146.53 89.2153L145.13 90.2653C144.64 90.5943 144.115 90.8953 143.604 91.2173C143.093 91.5393 142.575 91.9173 142.015 92.1413L140.321 92.9603L139.46 93.3733L138.557 93.7023L136.723 94.4023C136.1 94.6123 135.442 94.7453 134.798 94.9273C134.15 95.1162 133.491 95.2658 132.824 95.3753C131.46 95.6319 130.08 95.7956 128.694 95.8653C127.994 95.8653 127.294 95.9633 126.594 95.9563L124.438 95.8443C124.074 95.8443 123.703 95.8443 123.346 95.7743L122.254 95.6133C121.554 95.4943 120.784 95.4103 120.056 95.2563C118.576 94.9308 117.119 94.5075 115.695 93.9893L114.61 93.5903C114.435 93.5273 114.246 93.4643 114.071 93.3873L113.546 93.1353L111.446 92.1203C110.746 91.7493 110.095 91.3153 109.409 90.9093C109.073 90.6923 108.709 90.5103 108.401 90.2723L107.435 89.5723C106.132 88.6063 104.892 87.5565 103.725 86.4293L102.066 84.5953L101.646 84.1403L101.268 83.6433L100.519 82.6423L99.7703 81.6343L99.1123 80.5633L98.4542 79.4783L98.1252 78.9323L97.8453 78.3653L96.7323 76.0553C96.4383 75.2573 96.1443 74.4453 95.8433 73.6403C94.7685 70.3046 94.1999 66.8266 94.1562 63.3223C94.1993 59.8197 94.7704 56.3436 95.8502 53.0113C96.1442 52.2063 96.4383 51.3943 96.7323 50.5963L97.8453 48.2863C97.9363 48.0973 98.0272 47.9013 98.1252 47.7193L98.4542 47.1733L99.1123 46.0953L99.7703 45.0173L100.526 44.0093L101.275 43.0153L101.646 42.5183L102.066 42.0563L103.732 40.2293C104.896 39.0963 106.135 38.0438 107.442 37.0793L108.401 36.3793C108.723 36.1343 109.101 35.9523 109.409 35.7423C110.109 35.3363 110.76 34.9023 111.446 34.5313L113.546 33.5093L114.071 33.2573L114.61 33.0543L115.695 32.6623C117.12 32.145 118.577 31.7194 120.056 31.3883C120.756 31.2413 121.526 31.1573 122.254 31.0383L123.346 30.8703C123.703 30.8283 124.046 30.8283 124.431 30.8073L126.594 30.6953C127.294 30.6953 127.994 30.7583 128.694 30.7863C130.081 30.8502 131.461 31.0116 132.824 31.2693C133.491 31.3812 134.15 31.5332 134.798 31.7243C135.442 31.8993 136.093 32.0323 136.716 32.2423L138.557 32.9423L139.46 33.2713L140.321 33.6843L142.008 34.5033C142.575 34.7623 143.072 35.1263 143.597 35.4273C144.122 35.7283 144.64 36.0433 145.13 36.3723L146.53 37.4293C149.855 39.9641 152.657 43.1185 154.783 46.7183C156.387 49.3841 157.576 52.2777 158.311 55.3003C158.479 55.8879 158.617 56.4837 158.724 57.0853C158.808 57.6523 158.885 58.1773 158.955 58.6743C159.025 59.1713 159.109 59.6193 159.144 60.0743C159.179 60.5293 159.179 60.8723 159.193 61.2153C159.193 61.9153 159.242 62.3983 159.256 62.7623C159.27 63.1263 159.263 63.2453 159.263 63.2453Z" fill="#263238"/>
<g opacity="0.3">
<path d="M138.51 71.4974L131.041 64.0844L138.447 56.6154L134.163 52.3594L126.75 59.8284L119.281 52.4154L115.018 56.7064L122.487 64.1194L115.074 71.5884L119.372 75.8444L126.778 68.3754L134.247 75.7884L138.51 71.4974Z" fill="black"/>
</g>
<path d="M218.463 110.756H125.769C106.825 110.756 91.4688 126.112 91.4688 145.056C91.4688 163.999 106.825 179.356 125.769 179.356H218.463C237.406 179.356 252.763 163.999 252.763 145.056C252.763 126.112 237.406 110.756 218.463 110.756Z" fill="#E0E0E0"/>
<path d="M218.462 179.355L219.491 179.285L220.765 179.215C221.351 179.199 221.935 179.148 222.515 179.061L224.727 178.711L225.35 178.613L225.987 178.452L227.345 178.095C227.821 177.962 228.318 177.864 228.815 177.696L230.341 177.136C230.859 176.933 231.419 176.758 231.965 176.513L233.624 175.708C234.831 175.126 236 174.467 237.124 173.734C237.732 173.352 238.316 172.934 238.874 172.481L239.77 171.781L240.225 171.438L240.652 171.053L242.395 169.464C242.983 168.918 243.494 168.274 244.068 167.672C244.341 167.357 244.635 167.049 244.908 166.727C245.181 166.405 245.419 166.027 245.678 165.698L246.462 164.648L246.861 164.109L247.204 163.535C249.302 160.326 250.819 156.771 251.684 153.035C252.673 148.843 252.872 144.504 252.272 140.239C251.576 135.35 249.827 130.67 247.145 126.523C244.463 122.377 240.913 118.862 236.739 116.222L235.031 115.186C234.457 114.836 233.827 114.584 233.232 114.283C232.637 113.982 232.028 113.66 231.384 113.436L229.459 112.736C229.13 112.624 228.815 112.484 228.486 112.4L227.485 112.141L225.469 111.623C224.769 111.497 224.069 111.406 223.369 111.294C222.675 111.167 221.973 111.085 221.269 111.049C218.469 110.839 215.564 110.923 212.645 110.909H203.783H125.775C122.35 110.965 118.948 111.478 115.66 112.435C112.443 113.483 109.382 114.96 106.56 116.824C103.833 118.732 101.375 120.997 99.2516 123.558C97.2082 126.12 95.5199 128.945 94.2326 131.958C93.0402 134.949 92.2379 138.08 91.8456 141.275C91.7546 142.059 91.7476 142.857 91.6986 143.648L91.6356 144.838C91.6356 145.23 91.6356 145.622 91.6776 146.021C91.7196 146.805 91.7546 147.589 91.7966 148.373C91.8386 149.157 92.0276 149.927 92.1396 150.697L92.3146 151.852L92.6016 152.986C92.7906 153.735 92.9866 154.484 93.1826 155.233C93.3786 155.982 93.7146 156.682 93.9736 157.403C94.1136 157.76 94.2186 158.103 94.3866 158.474L94.8836 159.51C96.1705 162.249 97.8185 164.804 99.7836 167.105L101.282 168.757L101.66 169.17L102.066 169.541L102.885 170.29C103.962 171.279 105.103 172.195 106.301 173.034C106.587 173.257 106.888 173.458 107.204 173.636L108.135 174.203L109.059 174.763L109.521 175.043L110.004 175.274C111.266 175.934 112.571 176.509 113.91 176.996C114.575 177.227 115.226 177.507 115.898 177.696L117.928 178.221L118.936 178.473L119.965 178.634L122.009 178.949C122.709 179.04 123.374 179.033 124.046 179.082C124.718 179.131 125.404 179.166 126.083 179.166H130.115H159.774L202.726 179.222L214.402 179.257H217.44C218.14 179.257 218.476 179.257 218.476 179.257H217.44H214.402L202.726 179.292L159.774 179.355H130.115H126.069C125.369 179.355 124.704 179.299 124.018 179.271C123.332 179.243 122.618 179.229 121.96 179.138L119.895 178.823L118.859 178.669L117.844 178.41L115.793 177.885C115.093 177.696 114.456 177.409 113.784 177.185C112.431 176.696 111.112 176.119 109.836 175.456L109.346 175.218L108.884 174.938L107.953 174.371L107.015 173.804C106.698 173.622 106.394 173.418 106.105 173.195C104.891 172.34 103.736 171.404 102.647 170.395L101.821 169.639L101.408 169.268L101.03 168.855C100.526 168.295 100.022 167.742 99.5106 167.189C97.5394 164.854 95.8913 162.264 94.6106 159.489L94.1066 158.446C93.9386 158.096 93.8336 157.746 93.6936 157.361C93.4206 156.661 93.1546 155.898 92.8886 155.17C92.6226 154.442 92.4966 153.658 92.2936 152.895L92.0066 151.754L91.8316 150.585C91.7126 149.808 91.5726 149.031 91.4816 148.24C91.3906 147.449 91.4046 146.658 91.3626 145.86C91.3626 145.461 91.3066 145.062 91.3206 144.663L91.3836 143.466C91.4326 142.668 91.4326 141.863 91.5306 141.065C91.7203 139.527 92.0102 138.002 92.3986 136.501C92.7991 134.917 93.3066 133.362 93.9176 131.846C95.2156 128.8 96.9205 125.944 98.9856 123.355C101.139 120.763 103.632 118.475 106.399 116.551C109.248 114.669 112.337 113.176 115.583 112.113C118.906 111.147 122.343 110.629 125.803 110.573H203.811H212.659C215.578 110.573 218.455 110.51 221.311 110.72C222.015 110.763 222.716 110.847 223.411 110.972C224.111 111.084 224.811 111.175 225.511 111.308L227.548 111.833L228.556 112.092C228.892 112.183 229.207 112.323 229.536 112.435L231.475 113.135C232.126 113.359 232.721 113.709 233.344 113.989C233.967 114.269 234.576 114.556 235.157 114.899L236.879 115.949C241.268 118.711 244.963 122.445 247.68 126.862C250.198 130.911 251.844 135.441 252.51 140.162C253.105 144.457 252.896 148.824 251.894 153.042C251.016 156.81 249.48 160.392 247.358 163.626L247.008 164.2L246.609 164.739L245.818 165.796L245.041 166.832C244.761 167.154 244.467 167.462 244.187 167.777C243.613 168.386 243.095 169.03 242.5 169.576L240.743 171.165L240.309 171.55L239.854 171.893L238.958 172.593C238.392 173.044 237.8 173.463 237.187 173.846C236.062 174.573 234.893 175.23 233.687 175.813L232.014 176.618C231.468 176.856 230.908 177.031 230.383 177.227L228.85 177.787C228.346 177.948 227.849 178.053 227.38 178.179L225.98 178.529L225.343 178.69L224.713 178.781L222.501 179.11C221.916 179.193 221.327 179.24 220.737 179.25L219.463 179.299L218.462 179.355Z" fill="#263238"/>
<path d="M194.787 147.477C194.549 147.659 188.809 151.026 188.809 151.026L184.686 154.526L186.576 148.926C186.576 148.926 186.191 147.491 185.12 149.129C184.049 150.767 180.276 157.06 180.276 157.06L176.951 161.701L181.333 168.043C181.333 168.043 184.567 166.181 186.086 165.558C187.605 164.935 190.909 164.403 191.868 164.641C192.827 164.879 197.468 164.529 197.65 163.983C197.832 163.437 197.139 162.94 195.886 163.038C194.633 163.136 190.363 162.919 190.209 162.079C190.055 161.239 198.007 160.098 198.609 159.608C199.211 159.118 199.309 158.208 197.209 158.271C195.109 158.334 190.874 159.272 190.209 158.474C189.544 157.676 191.42 157.186 191.658 157.004C191.896 156.822 196.334 155.191 197.258 154.246C197.839 153.644 197.209 152.426 195.956 152.783C194.703 153.14 189.908 155.583 188.991 155.408C188.074 155.233 190.258 153.308 190.601 153.084C192.918 151.523 195.361 150.354 195.396 148.786C195.404 148.535 195.353 148.286 195.247 148.059C195.142 147.831 194.984 147.632 194.787 147.477Z" fill="#FFBF9D"/>
<path d="M181.334 168.065L169.602 173.42L168.615 163.781L176.952 161.723L181.334 168.065Z" fill="#FFBF9D"/>
<path d="M168.811 175.701C164.492 177.906 161.3 176.541 159.592 174.126C157.709 171.466 151.381 135.171 151.381 135.171L152.389 131.342C152.389 131.342 157.408 132.945 158.689 135.64C159.97 138.335 168.181 158.978 168.181 158.978L175.062 158.019C176.769 161.587 178.742 165.022 180.963 168.295L168.811 175.701Z" fill="#46B2C8"/>
<g opacity="0.3">
<path d="M213.22 178.088C231.17 178.088 245.721 163.537 245.721 145.587C245.721 127.637 231.17 113.086 213.22 113.086C195.27 113.086 180.719 127.637 180.719 145.587C180.719 163.537 195.27 178.088 213.22 178.088Z" fill="black"/>
</g>
<path d="M217.476 177.557C235.425 177.557 249.977 163.005 249.977 145.056C249.977 127.106 235.425 112.555 217.476 112.555C199.526 112.555 184.975 127.106 184.975 145.056C184.975 163.005 199.526 177.557 217.476 177.557Z" fill="#81DD6A"/>
<path d="M249.976 145.056C249.976 145.056 249.976 144.881 249.927 144.531L249.829 142.991C249.829 142.648 249.787 142.291 249.766 141.85C249.745 141.409 249.633 140.989 249.563 140.492L249.311 138.91C249.241 138.343 249.031 137.769 248.891 137.139C248.132 134.099 246.919 131.192 245.293 128.515C243.164 124.953 240.369 121.835 237.061 119.331L235.661 118.288C235.171 117.966 234.653 117.665 234.135 117.35C233.617 117.035 233.12 116.692 232.56 116.44L230.88 115.635L230.026 115.229L229.13 114.9L227.31 114.235C226.687 114.032 226.043 113.899 225.399 113.724C224.758 113.537 224.105 113.39 223.446 113.283C222.095 113.034 220.73 112.875 219.358 112.807C218.658 112.807 217.958 112.716 217.258 112.73L215.123 112.842C214.759 112.842 214.423 112.842 214.038 112.912L212.96 113.073C212.26 113.192 211.511 113.276 210.79 113.43C209.327 113.755 207.886 114.176 206.478 114.69L205.4 115.089L204.868 115.285L204.35 115.537L202.25 116.545C201.55 116.916 200.913 117.35 200.241 117.749C199.905 117.959 199.541 118.141 199.24 118.379L198.288 119.079C196.998 120.035 195.773 121.076 194.62 122.194L192.975 124L192.562 124.455L192.191 124.952L191.456 125.939L190.714 126.933L190.063 127.997L189.412 129.068L189.083 129.607C188.985 129.789 188.901 129.985 188.81 130.167C188.446 130.93 188.075 131.686 187.711 132.449C187.347 133.212 187.123 134.045 186.836 134.843C184.61 141.46 184.61 148.623 186.836 155.241L187.718 157.635L188.81 159.91L189.09 160.477L189.412 161.016L190.063 162.087L190.714 163.151L191.456 164.145L192.198 165.139L192.569 165.629L192.982 166.084L194.627 167.89C195.778 169.011 197.004 170.055 198.295 171.012L199.247 171.712C199.562 171.957 199.912 172.132 200.248 172.349C200.948 172.748 201.578 173.182 202.257 173.546L204.357 174.554L204.875 174.806C205.05 174.883 205.232 174.939 205.407 175.009L206.485 175.401C207.893 175.916 209.334 176.34 210.797 176.668C211.497 176.815 212.253 176.899 212.967 177.018L214.045 177.186C214.409 177.235 214.745 177.228 215.13 177.256L217.272 177.368C217.972 177.368 218.672 177.312 219.372 177.284C220.744 177.222 222.11 177.063 223.46 176.808C224.114 176.714 224.762 176.578 225.399 176.402C226.036 176.227 226.687 176.094 227.303 175.891L229.123 175.226L230.019 174.904L230.873 174.498L232.553 173.693C233.113 173.434 233.61 173.077 234.135 172.776C234.66 172.475 235.164 172.167 235.654 171.845L237.054 170.802C240.362 168.294 243.157 165.174 245.286 161.611C246.912 158.933 248.125 156.026 248.884 152.987C249.024 152.364 249.234 151.783 249.304 151.216L249.556 149.634C249.626 149.144 249.717 148.696 249.759 148.276C249.801 147.856 249.808 147.478 249.822 147.142L249.899 145.602C249.899 145.259 249.948 145.077 249.948 145.077C249.948 145.077 249.948 145.259 249.948 145.602C249.948 145.945 249.948 146.477 249.892 147.149C249.892 147.492 249.857 147.849 249.843 148.29C249.829 148.731 249.724 149.165 249.654 149.655C249.584 150.145 249.507 150.677 249.423 151.244C249.316 151.845 249.178 152.441 249.01 153.029C248.279 156.083 247.085 159.008 245.468 161.702C243.342 165.301 240.54 168.456 237.215 170.991L235.815 172.048C235.325 172.377 234.8 172.671 234.289 172.993C233.778 173.315 233.26 173.693 232.7 173.917L230.999 174.736L230.138 175.149L229.235 175.478L227.401 176.178C226.778 176.388 226.12 176.521 225.476 176.696C224.829 176.89 224.169 177.042 223.502 177.151C222.138 177.407 220.758 177.571 219.372 177.641C218.672 177.641 217.972 177.732 217.272 177.725L215.109 177.62C214.752 177.62 214.409 177.62 214.024 177.55L212.932 177.382C212.232 177.263 211.462 177.179 210.734 177.032C209.254 176.704 207.797 176.278 206.373 175.758L205.288 175.366L204.749 175.163L204.224 174.911L202.124 173.896C201.424 173.518 200.773 173.084 200.087 172.678C199.74 172.483 199.404 172.27 199.079 172.041L198.113 171.341C196.809 170.372 195.57 169.32 194.403 168.191L192.744 166.364L192.324 165.902L191.946 165.405L191.197 164.404L190.399 163.368L189.741 162.29L189.083 161.205L188.754 160.666L188.474 160.092L187.361 157.789C187.067 156.984 186.773 156.179 186.472 155.367C184.223 148.677 184.223 141.435 186.472 134.745C186.773 133.933 187.067 133.128 187.361 132.323L188.474 130.02C188.565 129.824 188.656 129.635 188.754 129.446L189.083 128.907L189.741 127.822L190.399 126.744L191.155 125.743L191.904 124.742L192.275 124.245L192.695 123.783L194.361 121.956C195.524 120.827 196.761 119.776 198.064 118.813L199.03 118.113C199.352 117.875 199.73 117.693 200.038 117.476C200.738 117.07 201.389 116.636 202.075 116.265L204.175 115.25L204.7 114.998C204.875 114.921 205.064 114.865 205.239 114.795L206.324 114.396C207.748 113.877 209.205 113.454 210.685 113.129C211.385 112.975 212.155 112.891 212.883 112.772L213.968 112.611C214.332 112.562 214.703 112.562 215.06 112.541L217.223 112.436C217.923 112.436 218.623 112.492 219.323 112.52C220.709 112.589 222.089 112.753 223.453 113.01C224.12 113.119 224.779 113.269 225.427 113.458C226.071 113.64 226.722 113.773 227.345 113.983L229.186 114.683L230.089 115.012L230.95 115.425L232.637 116.244C233.204 116.503 233.701 116.867 234.226 117.168C234.751 117.469 235.262 117.791 235.759 118.113L237.159 119.17C240.484 121.704 243.286 124.859 245.412 128.459C247.035 131.158 248.234 134.09 248.968 137.153C249.136 137.74 249.274 138.336 249.381 138.938C249.465 139.505 249.542 140.037 249.612 140.527C249.682 141.017 249.766 141.472 249.801 141.892C249.836 142.312 249.836 142.69 249.85 143.033C249.85 143.733 249.892 144.223 249.906 144.58C249.92 144.937 249.976 145.056 249.976 145.056Z" fill="#263238"/>
<path d="M140.272 86.8009C138.557 85.7089 138.172 83.1889 139.068 81.3829C139.582 80.5041 140.291 79.7553 141.141 79.1945C141.991 78.6337 142.958 78.276 143.968 78.1489C145.427 77.9275 146.917 78.0543 148.317 78.519C149.718 78.9838 150.988 79.7732 152.025 80.8229C153.131 81.9639 154.034 83.4479 155.525 83.9729C156.848 84.4279 158.325 84.0149 159.725 84.1969C160.649 84.364 161.524 84.7355 162.285 85.2841C163.047 85.8327 163.677 86.5447 164.128 87.3679C165.014 89.0252 165.546 90.8489 165.689 92.7229C165.892 94.4309 166.025 96.2999 167.208 97.5459C168.391 98.7919 170.19 99.0229 171.625 99.8839C172.942 100.753 173.868 102.102 174.204 103.644C174.54 105.186 174.26 106.798 173.424 108.137C172.85 108.97 172.024 109.726 171.968 110.734C171.912 111.742 172.5 112.463 172.78 113.338C172.924 113.903 172.945 114.493 172.841 115.067C172.738 115.642 172.513 116.187 172.182 116.667C171.85 117.147 171.42 117.551 170.919 117.851C170.419 118.151 169.86 118.34 169.28 118.406C168.09 118.469 166.816 118.007 165.745 118.539C164.674 119.071 164.289 120.345 163.645 121.339C162.948 122.278 161.95 122.95 160.818 123.243C159.686 123.536 158.487 123.432 157.422 122.949C156.505 122.501 155.679 121.801 154.699 121.801C153.719 121.801 152.963 122.697 152.004 122.886C150.751 123.124 149.561 122.186 148.819 121.171C148.077 120.156 147.559 118.917 146.607 118.07C145.354 116.957 143.604 116.67 142.029 116.138C140.279 115.538 138.679 114.568 137.337 113.295C135.995 112.022 134.942 110.475 134.251 108.76C133.559 107.044 133.244 105.2 133.328 103.352C133.411 101.504 133.891 99.696 134.735 98.0499" fill="#263238"/>
<path d="M158.417 109.201C158.805 108.791 159.284 108.479 159.817 108.291H159.712C159.811 108.266 159.911 108.247 160.013 108.235C160.194 108.182 160.383 108.167 160.57 108.191C160.757 108.215 160.937 108.278 161.098 108.375C161.702 108.592 162.202 109.03 162.498 109.6C162.73 110.106 162.819 110.665 162.756 111.218C162.693 111.77 162.481 112.295 162.141 112.736C161.894 113.137 161.531 113.454 161.101 113.645C160.67 113.836 160.191 113.892 159.728 113.805C159.265 113.719 158.839 113.494 158.506 113.161C158.174 112.827 157.95 112.401 157.864 111.938C157.719 111.472 157.693 110.977 157.79 110.499C157.887 110.02 158.102 109.574 158.417 109.201Z" fill="#455A64"/>
<path d="M135.799 127.457L133.972 93.9898C133.939 93.2794 134.174 92.5826 134.63 92.037C135.087 91.4914 135.731 91.1366 136.436 91.0428L151.381 86.8008C156.19 86.1568 159.571 92.0088 160.012 96.8388C160.502 102.215 160.894 108.788 160.369 112.82C159.319 120.933 152.669 122.158 152.669 122.158C152.669 122.158 152.62 130.418 152.669 133.358L154.517 142.458L135.799 127.457Z" fill="#FFBF9D"/>
<path d="M157.926 103.895C157.936 104.164 157.84 104.427 157.66 104.628C157.48 104.829 157.229 104.953 156.96 104.973C156.829 104.986 156.696 104.973 156.57 104.935C156.444 104.897 156.326 104.834 156.225 104.75C156.123 104.666 156.039 104.562 155.978 104.446C155.917 104.329 155.879 104.201 155.868 104.07C155.858 103.8 155.953 103.537 156.133 103.336C156.314 103.135 156.565 103.011 156.834 102.992C156.965 102.978 157.098 102.991 157.224 103.029C157.35 103.067 157.467 103.13 157.569 103.214C157.671 103.298 157.755 103.402 157.816 103.519C157.877 103.635 157.914 103.763 157.926 103.895Z" fill="#263238"/>
<path d="M158.683 100.304C158.557 100.444 157.759 99.8838 156.639 99.9188C155.519 99.9538 154.728 100.535 154.602 100.402C154.476 100.269 154.665 100.094 155.015 99.8278C155.485 99.4781 156.053 99.2847 156.639 99.2748C157.219 99.2564 157.79 99.4231 158.27 99.7508C158.62 100.003 158.746 100.241 158.683 100.304Z" fill="#263238"/>
<path d="M148.322 103.895C148.339 104.171 148.246 104.442 148.064 104.649C147.881 104.856 147.624 104.983 147.349 105.001C147.217 105.014 147.085 105.002 146.959 104.963C146.832 104.925 146.715 104.862 146.613 104.778C146.512 104.694 146.428 104.591 146.367 104.474C146.305 104.357 146.268 104.229 146.257 104.098C146.247 103.828 146.342 103.565 146.522 103.364C146.702 103.163 146.953 103.04 147.223 103.02C147.484 102.99 147.747 103.066 147.953 103.23C148.159 103.394 148.292 103.633 148.322 103.895Z" fill="#263238"/>
<path d="M147.733 100.802C147.607 100.942 146.809 100.389 145.696 100.417C144.583 100.445 143.778 101.033 143.652 100.9C143.526 100.767 143.715 100.599 144.065 100.326C144.541 99.9808 145.109 99.788 145.696 99.7727C146.274 99.7554 146.843 99.922 147.32 100.249C147.698 100.522 147.796 100.802 147.733 100.802Z" fill="#263238"/>
<path d="M152.011 108.969C152.595 108.769 153.202 108.642 153.817 108.591C154.097 108.591 154.363 108.493 154.405 108.297C154.425 108.002 154.352 107.708 154.195 107.457L153.299 105.315C152.039 102.263 151.122 99.7502 151.248 99.7152C151.374 99.6802 152.487 102.102 153.747 105.154C154.048 105.903 154.335 106.624 154.615 107.31C154.8 107.65 154.862 108.043 154.79 108.423C154.752 108.525 154.692 108.616 154.613 108.69C154.534 108.764 154.439 108.819 154.335 108.85C154.178 108.898 154.016 108.927 153.852 108.934C153.242 109.025 152.624 109.037 152.011 108.969Z" fill="#263238"/>
<path d="M152.67 122.159C149.026 122.29 145.42 121.387 142.268 119.555C142.268 119.555 144.599 125.561 152.663 124.581L152.67 122.159Z" fill="#FF9A6C"/>
<path d="M151.899 111.622C151.636 111.263 151.29 110.973 150.89 110.776C150.49 110.58 150.049 110.484 149.603 110.495C149.321 110.507 149.045 110.586 148.799 110.726C148.553 110.866 148.344 111.063 148.189 111.3C148.035 111.579 147.961 111.895 147.974 112.214C147.988 112.532 148.089 112.841 148.266 113.106C148.477 113.376 148.763 113.577 149.089 113.683C149.414 113.789 149.764 113.796 150.093 113.701C150.707 113.483 151.259 113.12 151.703 112.644C151.847 112.528 151.965 112.383 152.046 112.217C152.087 112.125 152.102 112.025 152.091 111.925C152.08 111.825 152.043 111.731 151.983 111.65" fill="#FF9A6C"/>
<path d="M148.756 109.838C148.938 109.838 148.973 111.028 150.037 111.861C151.101 112.694 152.375 112.519 152.389 112.687C152.403 112.855 152.109 112.932 151.57 112.96C150.861 112.991 150.165 112.77 149.603 112.337C149.063 111.921 148.706 111.311 148.609 110.636C148.546 110.132 148.672 109.831 148.756 109.838Z" fill="#263238"/>
<path d="M148.099 96.2223C147.994 96.5303 146.881 96.4183 145.579 96.6143C144.277 96.8103 143.227 97.1953 143.045 96.9293C142.968 96.7963 143.143 96.5093 143.563 96.2293C144.119 95.8502 144.757 95.6101 145.425 95.5293C146.09 95.4265 146.77 95.4866 147.406 95.7043C147.896 95.8443 148.141 96.0823 148.099 96.2223Z" fill="#263238"/>
<path d="M158.199 96.482C158.01 96.741 157.24 96.482 156.316 96.482C155.392 96.482 154.615 96.699 154.426 96.44C154.342 96.314 154.426 96.055 154.797 95.803C155.245 95.4984 155.775 95.3394 156.316 95.348C156.859 95.3403 157.391 95.5044 157.835 95.817C158.15 96.097 158.262 96.356 158.199 96.482Z" fill="#263238"/>
<path d="M165.451 95.1452C165.127 93.9147 164.385 92.8355 163.351 92.0932C162.77 91.7082 162.098 91.4772 161.552 91.0432C160.39 90.1052 160.117 88.4672 159.396 87.1512C158.922 86.3059 158.254 85.5852 157.448 85.0485C156.641 84.5118 155.718 84.1744 154.755 84.0642C153.152 83.9032 151.507 84.3862 149.946 83.9942C148.791 83.7002 147.783 82.9512 146.621 82.7272C144.346 82.3002 142.232 83.9312 140.58 85.5272C140.58 87.1512 141.875 88.2432 143.121 89.2862C143.751 89.8051 144.485 90.1819 145.274 90.3909C146.063 90.5999 146.888 90.6362 147.692 90.4972C148.931 90.2662 150.296 89.6362 151.374 90.3012C152.452 90.9662 152.55 92.7022 153.551 93.5702C154.986 94.8162 157.268 93.6472 159.088 94.1862C160.488 94.6062 161.37 95.9502 162.301 97.0772C163.232 98.2042 164.632 99.2822 166.039 98.8692C165.986 97.6095 165.789 96.3599 165.451 95.1452Z" fill="#263238"/>
<path d="M148.399 88.264C147.377 87.97 145.291 87.312 144.745 86.43C144.197 85.4714 143.404 84.6761 142.447 84.1261C141.49 83.5761 140.403 83.2913 139.299 83.301C138.191 83.3886 137.142 83.8319 136.306 84.5648C135.471 85.2978 134.895 86.2811 134.665 87.368C133.336 87.4153 132.044 87.82 130.926 88.5394C129.807 89.2587 128.903 90.2663 128.309 91.456C128.154 91.7639 128.021 92.082 127.91 92.408C127.506 93.1191 127.263 93.91 127.198 94.7251C127.133 95.5402 127.247 96.3597 127.532 97.126C127.882 98.05 128.484 99.072 128.015 99.926C127.546 100.78 126.314 100.836 125.362 101.158C124.536 101.467 123.847 102.058 123.416 102.827C122.985 103.596 122.842 104.493 123.01 105.358C123.237 105.944 123.337 106.571 123.304 107.199C123.071 107.81 122.694 108.355 122.205 108.788C121.682 109.412 121.333 110.162 121.191 110.964C121.049 111.766 121.119 112.59 121.395 113.356C121.672 114.122 122.144 114.802 122.765 115.328C123.386 115.854 124.134 116.208 124.935 116.355C125.659 116.388 126.371 116.554 127.035 116.845C127.735 117.286 128.071 118.154 128.582 118.826C129.089 119.48 129.785 119.962 130.575 120.206C131.365 120.45 132.212 120.445 132.999 120.191C133.307 120.084 133.599 119.935 133.867 119.75C134.163 120.138 134.553 120.445 135 120.642C135.446 120.839 135.936 120.92 136.422 120.877L136.121 103.853C136.214 104.063 136.357 104.247 136.538 104.388C136.718 104.53 136.931 104.625 137.157 104.665C139.887 105.281 140.286 99.653 139.677 98.127C140.708 97.2854 141.627 96.3163 142.414 95.243C143.291 93.5371 143.725 91.6376 143.674 89.72C144.633 89.776 148.826 88.39 148.399 88.264Z" fill="#263238"/>
<path d="M136.849 105.24C136.758 103.511 134.644 103.14 133.146 104.008C132.32 104.484 131.69 105.408 131.746 107.277C131.949 112.177 136.821 110.966 136.828 110.819C136.835 110.672 136.947 107.27 136.849 105.24Z" fill="#FFBF9D"/>
<path d="M135.274 109.025C135.274 109.025 135.19 109.088 135.05 109.158C134.952 109.207 134.845 109.236 134.736 109.243C134.626 109.25 134.517 109.236 134.413 109.2C134.087 109.014 133.817 108.743 133.631 108.417C133.445 108.091 133.35 107.72 133.356 107.345C133.33 106.926 133.394 106.505 133.545 106.113C133.581 105.954 133.657 105.807 133.764 105.685C133.872 105.563 134.008 105.469 134.161 105.413C134.257 105.383 134.361 105.388 134.454 105.426C134.547 105.465 134.624 105.534 134.672 105.623C134.742 105.763 134.721 105.861 134.742 105.868C134.763 105.875 134.847 105.777 134.798 105.581C134.768 105.46 134.696 105.353 134.595 105.28C134.456 105.185 134.285 105.147 134.119 105.175C133.919 105.223 133.735 105.321 133.584 105.461C133.433 105.601 133.321 105.777 133.258 105.973C133.059 106.411 132.975 106.893 133.013 107.373C133.09 108.353 133.629 109.256 134.35 109.431C134.482 109.465 134.62 109.468 134.754 109.44C134.887 109.412 135.012 109.354 135.12 109.27C135.267 109.144 135.288 109.032 135.274 109.025Z" fill="#FF9A6C"/>
<path d="M141.637 86.9414C141.255 87.1397 140.92 87.4192 140.657 87.7604C140.102 88.8 139.971 90.0146 140.293 91.1484V91.2744H140.174C139.468 91.4655 138.815 91.8178 138.267 92.3036C137.719 92.7894 137.292 93.3955 137.017 94.0744C136.871 94.4576 136.786 94.8616 136.765 95.2714C136.777 95.7069 136.829 96.1403 136.919 96.5664C137.013 97.0284 137.077 97.4961 137.108 97.9664C137.14 98.4771 137.002 98.984 136.716 99.4084C136.08 100.219 135.243 100.849 134.287 101.235C133.452 101.603 132.683 102.107 132.012 102.726C130.905 103.812 130.252 105.279 130.185 106.828C130.148 107.876 130.369 108.917 130.829 109.859C131.151 110.524 131.424 110.846 131.396 110.867C131.319 110.802 131.251 110.727 131.193 110.643C131.012 110.425 130.85 110.19 130.71 109.943C130.187 108.995 129.921 107.926 129.94 106.842C129.977 105.218 130.639 103.671 131.788 102.523C132.475 101.871 133.268 101.34 134.133 100.955C135.032 100.588 135.822 99.9979 136.429 99.2404C136.968 98.4984 136.723 97.5324 136.583 96.6504C136.492 96.2033 136.443 95.7487 136.436 95.2924C136.456 94.8435 136.55 94.4009 136.716 93.9834C137.018 93.268 137.481 92.6325 138.071 92.1271C138.66 91.6217 139.358 91.2603 140.111 91.0714L140.02 91.2254C139.864 90.6389 139.827 90.0269 139.911 89.4258C139.995 88.8247 140.199 88.2465 140.51 87.7254C140.714 87.4593 140.978 87.2457 141.28 87.1024C141.389 87.0284 141.51 86.974 141.637 86.9414Z" fill="#455A64"/>
<path d="M133.447 110.86C133.832 110.446 134.313 110.131 134.847 109.943H134.742C134.841 109.92 134.941 109.904 135.043 109.894C135.223 109.842 135.412 109.827 135.599 109.85C135.785 109.873 135.965 109.933 136.128 110.027C136.729 110.249 137.228 110.685 137.528 111.252C137.76 111.759 137.85 112.319 137.787 112.873C137.724 113.427 137.511 113.953 137.171 114.395C136.924 114.796 136.561 115.113 136.13 115.304C135.7 115.495 135.221 115.551 134.758 115.464C134.295 115.378 133.869 115.153 133.536 114.82C133.203 114.487 132.979 114.06 132.894 113.597C132.747 113.131 132.72 112.636 132.817 112.157C132.914 111.678 133.13 111.232 133.447 110.86Z" fill="#455A64"/>
<path d="M143.786 310.373L159.368 311.5C158.527 313.73 157.876 316.027 157.422 318.367C153.054 319.858 147.531 319.466 142.855 317.723L143.786 310.373Z" fill="#FFBF9D"/>
<path d="M157.73 316.092V317.023C157.73 317.023 173.536 323.148 173.739 326.123L142.498 326.34L142.848 315.945C147.524 318.066 152.389 318.276 157.73 316.092Z" fill="#46B2C8"/>
<path d="M146.053 319.249C145.752 319.342 145.497 319.543 145.335 319.813C145.173 320.083 145.118 320.404 145.178 320.712C145.261 321.015 145.456 321.275 145.725 321.438C145.993 321.601 146.313 321.654 146.62 321.587C146.938 321.49 147.208 321.277 147.378 320.991C147.547 320.705 147.604 320.366 147.537 320.04C147.42 319.731 147.188 319.48 146.888 319.34C146.589 319.2 146.246 319.183 145.934 319.291" fill="white"/>
<path d="M142.512 326.349L142.596 323.85L172.507 324.55C172.507 324.55 173.907 325.145 173.753 326.125L142.512 326.349Z" fill="#263238"/>
<path d="M157.849 317.102C157.849 317.256 157.086 317.326 156.337 317.802C155.588 318.278 155.196 318.943 155.056 318.88C154.916 318.817 155.133 317.942 156.05 317.354C156.967 316.766 157.884 316.969 157.849 317.102Z" fill="#263238"/>
<path d="M161.139 318.438C161.174 318.585 160.516 318.851 159.998 319.502C159.48 320.153 159.34 320.832 159.193 320.825C159.046 320.818 158.934 319.957 159.592 319.166C160.25 318.375 161.132 318.291 161.139 318.438Z" fill="#263238"/>
<path d="M163.029 322.35C162.889 322.35 162.672 321.65 163.029 320.782C163.386 319.914 164.128 319.606 164.191 319.732C164.254 319.858 163.82 320.313 163.491 321.006C163.162 321.699 163.176 322.329 163.029 322.35Z" fill="#263238"/>
<path d="M90.3689 300.637C89.3959 304.704 85.5879 316.982 85.5879 316.982L99.4619 318.382C99.7979 316.338 105.237 307.882 106.112 305.271L90.3689 300.637Z" fill="#FFBF9D"/>
<path d="M100.427 316.402L100.266 317.312C100.266 317.312 114.609 326.356 114.266 329.317L83.5645 323.563L86.4555 314.176C88.7655 316.465 94.7715 317.557 100.427 316.402Z" fill="#46B2C8"/>
<path d="M88.3676 317.297C88.055 317.331 87.7661 317.479 87.5556 317.713C87.3452 317.947 87.2281 318.249 87.2266 318.564C87.2498 318.878 87.3926 319.172 87.6257 319.384C87.8588 319.596 88.1644 319.711 88.4796 319.705C88.8099 319.667 89.1144 319.508 89.3342 319.258C89.554 319.009 89.6735 318.686 89.6696 318.354C89.6145 318.034 89.4382 317.748 89.1774 317.555C88.9166 317.362 88.5914 317.277 88.2696 317.318" fill="white"/>
<path d="M83.5371 323.589L84.0971 321.146L113.322 327.558C113.322 327.558 114.575 328.412 114.239 329.343L83.5371 323.589Z" fill="#263238"/>
<path d="M100.357 317.452C100.322 317.599 99.5594 317.529 98.7334 317.872C97.9074 318.215 97.3964 318.768 97.2634 318.684C97.1304 318.6 97.5224 317.774 98.5374 317.375C99.5524 316.976 100.413 317.319 100.357 317.452Z" fill="#263238"/>
<path d="M103.326 319.384C103.326 319.538 102.626 319.671 102.01 320.21C101.394 320.749 101.107 321.393 100.96 321.358C100.813 321.323 100.876 320.455 101.66 319.804C102.444 319.153 103.354 319.244 103.326 319.384Z" fill="#263238"/>
<path d="M104.432 323.583C104.292 323.583 104.222 322.799 104.761 322.05C105.3 321.301 106.063 321.105 106.105 321.245C106.147 321.385 105.629 321.735 105.195 322.358C104.761 322.981 104.586 323.597 104.432 323.583Z" fill="#263238"/>
<path d="M136.338 137.852C136.667 138.454 148.413 164.907 148.413 164.907L170.603 157.053L176.399 167.301C176.399 167.301 151.283 183.814 144.64 183.401C137.997 182.988 136.856 181.714 134.406 176.506C131.396 170.115 122.268 146.623 122.268 146.623C122.268 146.623 119.391 133.645 128.134 132.763C133.622 132.21 136.338 137.852 136.338 137.852Z" fill="#46B2C8"/>
<path d="M154.98 192.535C154.98 192.535 177.856 252.77 176.68 260.484C175.504 268.198 161.567 314.202 161.567 314.202L141.491 312.844L152.229 259.378L134.141 222.278L137.263 184.66L156.163 186.606L154.98 192.535Z" fill="#263238"/>
<path d="M121.707 181.65L120.118 185.85C117.094 189.861 112.131 197.435 110.598 202.048C108.435 208.565 109.646 229.124 109.646 229.124L107.546 259.392C107.546 259.392 101.638 271.166 98.4461 277.781C95.7161 283.5 86.9941 309.071 86.9941 309.071L104.34 314.216C104.34 314.216 128.525 272.475 130.688 267.071C132.851 261.667 137.541 218.239 137.541 218.239L145.381 185.5L121.707 181.65Z" fill="#263238"/>
<path d="M116.115 193.544C116.115 193.467 117.179 193.761 118.915 193.887C119.923 193.955 120.934 193.941 121.939 193.845C124.4 193.598 126.783 192.845 128.939 191.633C129.82 191.142 130.656 190.575 131.438 189.939C132.782 188.854 133.468 188.014 133.538 188.063C133.419 188.288 133.268 188.496 133.09 188.679C132.907 188.914 132.708 189.136 132.495 189.344C132.225 189.631 131.937 189.902 131.634 190.156C130.862 190.835 130.025 191.437 129.135 191.955C128.039 192.584 126.88 193.098 125.677 193.488C124.467 193.843 123.224 194.078 121.967 194.188C120.942 194.27 119.91 194.256 118.887 194.146C118.495 194.106 118.104 194.045 117.718 193.964C117.424 193.919 117.134 193.851 116.85 193.761C116.596 193.722 116.349 193.649 116.115 193.544Z" fill="#455A64"/>
<path d="M152.543 260.884C153.736 259.838 155.11 259.018 156.596 258.462C158.035 257.786 159.583 257.374 161.167 257.244C161.167 257.363 159.13 257.825 156.757 258.833C154.384 259.841 152.599 260.989 152.543 260.884Z" fill="#455A64"/>
<path d="M107.91 259.252C108.832 259.326 109.723 259.614 110.514 260.092C111.363 260.454 112.114 261.014 112.705 261.723C111.89 261.344 111.098 260.919 110.332 260.449C109.502 260.097 108.694 259.697 107.91 259.252Z" fill="#455A64"/>
<path d="M151.591 187.74C151.565 187.914 151.523 188.085 151.465 188.251L151.024 189.651L149.358 194.873L146.838 202.573C146.586 203.273 146.369 204.043 146.075 204.806C145.77 205.577 145.385 206.313 144.927 207.004C144.457 207.722 143.905 208.382 143.282 208.971L141.441 210.826L138.249 214.018L138.305 213.913C137.57 219.835 136.905 225.05 136.457 228.823C136.219 230.664 136.023 232.148 135.883 233.219C135.806 233.709 135.75 234.101 135.708 234.402C135.697 234.541 135.669 234.677 135.624 234.808C135.615 234.671 135.615 234.533 135.624 234.395C135.624 234.087 135.687 233.695 135.729 233.205C135.848 232.134 136.009 230.643 136.205 228.795C136.639 225.015 137.241 219.8 137.927 213.871V213.808L137.969 213.766L141.147 210.574L142.995 208.719C143.603 208.146 144.144 207.505 144.605 206.808C145.048 206.135 145.423 205.42 145.725 204.673C146.012 203.973 146.236 203.182 146.488 202.468L149.085 194.768L150.863 189.588L151.367 188.188C151.431 188.033 151.505 187.884 151.591 187.74Z" fill="#455A64"/>
<g opacity="0.3">
<path d="M194.81 161.176C194.698 161.047 194.56 160.943 194.406 160.869C194.252 160.796 194.084 160.755 193.914 160.749L188.573 159.839C188.77 159.422 189.063 159.058 189.428 158.777C189.793 158.496 190.22 158.306 190.673 158.222C191.589 158.065 192.491 157.831 193.368 157.522C193.802 157.357 194.172 157.058 194.424 156.667C194.676 156.277 194.797 155.816 194.768 155.352C192.219 155.77 189.606 155.556 187.159 154.729L192.899 152.566C193.324 152.43 193.721 152.222 194.075 151.95C194.251 151.811 194.386 151.627 194.468 151.418C194.549 151.209 194.573 150.982 194.537 150.76C194.341 149.941 193.235 149.78 192.437 149.955C191.387 150.172 190.407 150.655 189.378 150.914C188.355 151.258 187.24 151.203 186.256 150.76C187.465 150.292 188.609 149.668 189.658 148.905C190.712 148.124 191.416 146.96 191.618 145.664C188.027 146.875 185.08 149.458 182.406 152.146C179.732 154.834 177.184 157.704 174.006 159.741L176.015 166.615C179.515 164.9 183.155 163.15 187.054 162.94C189.287 162.821 191.569 163.213 193.718 162.618C194.066 162.542 194.389 162.378 194.656 162.142C194.781 162.018 194.864 161.858 194.891 161.684C194.919 161.511 194.89 161.332 194.81 161.176Z" fill="black"/>
</g>
<path d="M191.91 143.256C191.679 143.438 185.932 146.805 185.932 146.805L181.809 150.305L183.699 144.705C183.699 144.705 183.314 143.305 182.243 144.908C181.172 146.511 177.399 152.839 177.399 152.839L174.074 157.501L178.456 163.843C178.456 163.843 181.697 161.981 183.209 161.358C184.721 160.735 188.032 160.203 188.991 160.441C189.95 160.679 194.591 160.322 194.78 159.776C194.969 159.23 194.262 158.733 193.009 158.838C191.756 158.943 187.486 158.712 187.332 157.879C187.178 157.046 195.13 155.898 195.732 155.408C196.334 154.918 196.467 154.008 194.332 154.071C192.197 154.134 188.032 155.072 187.332 154.274C186.632 153.476 188.55 152.986 188.781 152.804C189.012 152.622 193.457 150.991 194.381 150.046C194.962 149.444 194.332 148.219 193.079 148.583C191.826 148.947 187.031 151.341 186.114 151.208C185.197 151.075 187.381 149.108 187.724 148.884C190.041 147.316 192.484 146.147 192.519 144.586C192.532 144.332 192.483 144.078 192.377 143.847C192.271 143.615 192.111 143.413 191.91 143.256Z" fill="#FFBF9D"/>
<path d="M178.457 163.842L166.725 169.197L165.738 159.558L174.075 157.5L178.457 163.842Z" fill="#FFBF9D"/>
<path d="M135.365 123.047L149.134 129.802L153.39 135.647C153.39 135.647 159.382 163.192 158.633 167.567C157.884 171.942 153.131 186.901 152.599 186.789L121.68 181.651V181.581C121.27 179.585 121.559 177.509 122.499 175.701L125.299 170.283L120.077 145.279C120.077 145.279 119.069 137.992 122.401 134.541C125.859 130.943 133.601 126.337 133.601 126.337L135.365 123.047Z" fill="#46B2C8"/>
<path d="M152.068 135.059C151.744 134.739 151.446 134.392 151.179 134.023C150.591 133.288 149.828 132.315 148.918 131.167L149.177 131.118C148.925 132.077 148.645 133.127 148.344 134.261L148.295 134.443L148.113 134.373C146.923 133.911 145.635 133.372 144.319 132.756C141.669 131.517 139.11 130.092 136.661 128.493C135.716 127.877 134.981 127.352 134.477 126.981C134.205 126.802 133.951 126.596 133.721 126.365C134.015 126.502 134.294 126.669 134.554 126.862C135.086 127.198 135.842 127.695 136.794 128.262C139.281 129.786 141.852 131.17 144.494 132.406C145.803 133.022 147.084 133.568 148.26 134.044L148.029 134.156C148.351 133.029 148.645 131.979 148.918 131.027L149.002 130.733L149.177 130.978L151.333 133.911C151.614 134.269 151.86 134.654 152.068 135.059Z" fill="#263238"/>
<path d="M152.837 135.753L152.879 139.757L149.799 186.608H156.099C156.099 186.608 164.695 166.406 164.45 160.008C164.268 155.367 160.684 146.771 158.955 141.416C158.23 139.346 157.386 137.32 156.428 135.347C155.091 134.15 154.825 133.947 154.825 133.653L155.392 131.077L152.592 128.508V133.331L152.837 135.753Z" fill="#46B2C8"/>
<path d="M154.385 185.257C154.436 185.087 154.499 184.921 154.574 184.76C154.735 184.41 154.938 183.948 155.19 183.36C155.442 182.772 155.778 182.023 156.128 181.162L156.695 179.762C156.877 179.265 157.066 178.747 157.262 178.194C159.403 172.474 160.326 166.371 159.971 160.274C159.701 156.932 159.127 153.621 158.256 150.383C157.519 147.742 156.645 145.142 155.638 142.592C155.197 141.507 154.805 140.527 154.448 139.659L153.468 137.482L152.859 136.082C152.785 135.923 152.722 135.759 152.67 135.592C152.777 135.732 152.866 135.885 152.936 136.047C153.104 136.397 153.328 136.845 153.636 137.398C153.944 137.951 154.28 138.728 154.686 139.554C155.092 140.38 155.47 141.395 155.932 142.466C156.981 145.015 157.885 147.62 158.641 150.271C159.532 153.552 160.111 156.911 160.37 160.302C160.745 166.448 159.79 172.604 157.57 178.348L156.968 179.916L156.366 181.316C155.995 182.17 155.666 182.905 155.365 183.486L154.665 184.837C154.586 184.986 154.493 185.127 154.385 185.257Z" fill="#263238"/>
<path d="M157.996 138.775C158.18 138.988 158.335 139.223 158.458 139.475C158.738 139.944 159.102 140.651 159.536 141.54C160.626 143.858 161.534 146.257 162.252 148.715C162.995 151.174 163.511 153.695 163.792 156.247C163.869 157.02 163.906 157.795 163.904 158.571C163.915 158.858 163.889 159.145 163.827 159.425C163.764 159.425 163.771 158.214 163.512 156.275C163.149 153.758 162.599 151.27 161.867 148.834C161.148 146.391 160.283 143.993 159.277 141.652C158.493 139.881 157.94 138.803 157.996 138.775Z" fill="#263238"/>
<path d="M136.337 137.852C136.666 138.454 148.412 164.907 148.412 164.907L170.602 157.053L176.398 167.301C176.398 167.301 151.282 183.814 144.639 183.401C137.996 182.988 136.855 181.714 134.405 176.506C132.165 171.753 125.893 158.593 122.834 152.174C121.282 148.944 120.679 145.339 121.098 141.779C121.588 137.712 123.254 133.232 128.168 132.756C133.628 132.238 136.337 137.852 136.337 137.852Z" fill="#46B2C8"/>
<path d="M134.77 135.646C134.194 135.181 133.583 134.762 132.943 134.393C131.334 133.639 129.565 133.293 127.791 133.385C126.023 133.567 124.344 134.252 122.954 135.359C122.384 135.831 121.862 136.356 121.393 136.927C121.452 136.732 121.547 136.549 121.673 136.388C121.99 135.934 122.364 135.522 122.786 135.163C124.181 133.948 125.921 133.199 127.763 133.021C129.602 132.921 131.435 133.318 133.069 134.169C133.553 134.441 133.996 134.781 134.385 135.177C134.665 135.45 134.791 135.625 134.77 135.646Z" fill="#263238"/>
<path d="M143.08 172.468C143.153 172 143.3 171.546 143.514 171.124C143.957 170.079 144.506 169.082 145.152 168.149C145.796 167.214 146.535 166.348 147.357 165.566C147.676 165.217 148.047 164.919 148.456 164.684C148.533 164.768 146.93 166.196 145.453 168.359C143.976 170.522 143.185 172.51 143.08 172.468Z" fill="#263238"/>
<path d="M122.863 152.166C122.863 152.166 122.926 152.271 123.031 152.488C123.136 152.705 123.304 153.034 123.507 153.44L125.306 157.143L131.851 170.8C132.542 172.242 133.263 173.749 134.014 175.322C134.733 176.974 135.582 178.566 136.555 180.082C137.088 180.851 137.784 181.494 138.592 181.965C139.451 182.418 140.378 182.725 141.336 182.875C142.33 183.049 143.333 183.168 144.339 183.232C145.362 183.291 146.388 183.16 147.363 182.847C149.421 182.221 151.425 181.429 153.355 180.481C155.35 179.543 157.352 178.5 159.368 177.401C163.393 175.203 167.481 172.774 171.611 170.205C173.207 169.211 174.782 168.21 176.322 167.202L176.266 167.447C174.274 163.919 172.335 160.491 170.449 157.164L170.659 157.248L148.462 165.074L148.329 165.116L148.273 164.99L139.551 145.292C138.522 142.94 137.71 141.092 137.157 139.818L136.534 138.418C136.401 138.089 136.338 137.914 136.338 137.914L136.576 138.39C136.73 138.726 136.947 139.202 137.234 139.79C137.808 141.057 138.634 142.891 139.705 145.222C141.805 149.947 144.864 156.695 148.546 164.885L148.364 164.808L170.54 156.926L170.68 156.877L170.757 157.01L176.581 167.279L176.665 167.426L176.525 167.524C174.981 168.532 173.408 169.533 171.807 170.527C167.67 173.103 163.575 175.532 159.536 177.73C157.513 178.829 155.511 179.872 153.502 180.81C151.553 181.762 149.531 182.555 147.454 183.183C146.44 183.507 145.374 183.64 144.311 183.575C143.293 183.505 142.279 183.381 141.273 183.204C140.294 183.042 139.348 182.72 138.473 182.252C137.638 181.752 136.921 181.076 136.373 180.271C135.394 178.738 134.542 177.127 133.825 175.455L131.599 170.884L125.159 157.199C124.41 155.596 123.822 154.343 123.423 153.475L122.982 152.502C122.905 152.278 122.863 152.166 122.863 152.166Z" fill="#263238"/>
<g opacity="0.3">
<path d="M218.189 154.94L206.457 146.554L209.39 142.466L217.251 148.087L227.653 135.172L231.573 138.329L218.189 154.94Z" fill="black"/>
</g>
</svg>
