<svg width="403" height="403" viewBox="0 0 403 403" fill="none" xmlns="http://www.w3.org/2000/svg">
<path d="M354.865 99.8811C356.994 98.9403 358.801 97.396 360.062 95.4391C361.322 93.4823 361.982 91.1987 361.958 88.8711C361.958 82.3022 357.009 76.9504 350.843 76.9181C344.677 76.8859 339.664 82.1974 339.64 88.7663C339.595 91.1139 340.246 93.4223 341.511 95.4003C342.776 97.3784 344.599 98.9375 346.749 99.8811C329.581 102.468 330.363 121.127 330.363 121.127L370.961 121.313C370.961 121.313 371.888 102.452 354.865 99.8811Z" fill="#EBEBEB"/>
<path d="M289.814 152.665C293.363 148.398 292.781 142.06 288.513 138.511C284.245 134.961 277.908 135.544 274.359 139.812C270.809 144.079 271.391 150.416 275.659 153.966C279.927 157.515 286.264 156.933 289.814 152.665Z" fill="#E0E0E0"/>
<path d="M288.87 135.248C288.694 135.732 288.378 136.152 287.963 136.457C287.548 136.761 287.051 136.936 286.537 136.958C286.023 136.981 285.513 136.85 285.073 136.583C284.633 136.316 284.282 135.924 284.064 135.457C283.847 134.991 283.772 134.47 283.851 133.961C283.929 133.452 284.157 132.978 284.505 132.598C284.852 132.219 285.305 131.951 285.805 131.828C286.305 131.706 286.831 131.735 287.314 131.911C287.963 132.147 288.492 132.632 288.783 133.257C289.075 133.883 289.106 134.599 288.87 135.248Z" fill="#EBEBEB"/>
<path d="M234.319 223.771L268.888 236.347C270.419 236.904 271.666 238.046 272.354 239.522C273.043 240.998 273.117 242.687 272.56 244.218L272.144 245.362L226.031 228.587L226.447 227.444C227.004 225.913 228.146 224.666 229.622 223.977C231.099 223.289 232.788 223.215 234.319 223.771Z" fill="#E0E0E0"/>
<path d="M244.372 212.195C244.372 212.195 239.713 215.548 235.715 215.822C234.534 215.878 233.371 216.131 232.274 216.572C231.673 216.791 231.148 217.176 230.758 217.683C230.368 218.19 230.131 218.797 230.073 219.433C229.678 222.182 234.595 223.866 234.595 223.866L253.875 230.878L258.767 217.434L244.372 212.195Z" fill="#EBEBEB"/>
<path d="M270.744 237.021C270.744 237.021 273.291 238.238 274.774 236.062C275.18 235.463 275.408 234.761 275.431 234.038C275.454 233.314 275.27 232.599 274.903 231.976C274.309 230.982 273.577 230.078 272.726 229.292C269.833 226.519 268.414 220.958 268.414 220.958L254.027 215.719L249.135 229.171" fill="#EBEBEB"/>
<path d="M243.162 207.973L244.339 212.188L268.503 220.982L272.267 218.564L243.162 207.973Z" fill="#E0E0E0"/>
<path d="M280.079 180.983L261.722 174.343C260.667 173.962 259.503 174.507 259.122 175.562L258.848 176.319C258.466 177.374 259.012 178.538 260.067 178.919L278.424 185.559C279.479 185.94 280.643 185.395 281.024 184.34L281.298 183.583C281.679 182.528 281.134 181.364 280.079 180.983Z" fill="#EBEBEB"/>
<path d="M279.707 178.225L263.384 172.287C262.723 172.046 261.993 172.387 261.752 173.048L261.579 173.525C261.338 174.186 261.679 174.917 262.34 175.158L278.663 181.095C279.324 181.336 280.054 180.995 280.295 180.334L280.469 179.857C280.709 179.196 280.368 178.465 279.707 178.225Z" fill="#EBEBEB"/>
<path d="M280.324 173.617L265.864 168.357C265.471 168.214 265.036 168.416 264.893 168.81L264.789 169.097C264.646 169.491 264.848 169.925 265.242 170.068L279.701 175.328C280.094 175.471 280.529 175.269 280.672 174.875L280.777 174.588C280.92 174.194 280.717 173.76 280.324 173.617Z" fill="#EBEBEB"/>
<path d="M262.409 180.359C262.409 180.359 254.43 201.501 243.162 207.949L257.751 213.26L268.874 182.689L262.409 180.359Z" fill="#EBEBEB"/>
<path d="M274.886 184.896C274.886 184.896 267.785 206.376 272.266 218.563L257.299 213.122L268.397 182.551L274.886 184.896Z" fill="#EBEBEB"/>
<path d="M296.778 149.593C294.763 145.563 290.966 147.715 289.443 148.456C287.92 149.198 285.768 148.126 285.308 145.619C284.921 143.556 283.777 143.113 283.277 142.992C282.778 142.871 281.665 142.363 280.053 143.701C278.087 145.313 275.749 144.765 275.056 143.217C274.363 141.67 272.831 137.575 268.713 139.381C268.713 139.381 272.138 149.681 270.099 158.33C268.06 166.978 266.553 170.823 264.836 172.838L271.356 175.207L271.768 175.361L278.288 177.73C278.248 175.103 279.562 171.194 283.551 163.222C287.541 155.251 296.778 149.593 296.778 149.593Z" fill="#EBEBEB"/>
<path d="M268.961 236.399C268.921 236.512 261.111 233.771 251.527 230.281C241.944 226.791 234.19 223.882 234.231 223.769C234.271 223.656 242.073 226.397 251.664 229.887C261.256 233.377 269.001 236.294 268.961 236.399Z" fill="#E0E0E0"/>
<path d="M268.647 221.03C268.607 221.143 263.134 219.249 256.428 216.807C249.722 214.365 244.338 212.301 244.338 212.188C244.338 212.076 249.851 213.97 256.565 216.412C263.279 218.854 268.687 220.925 268.647 221.03Z" fill="#E0E0E0"/>
<path d="M272.267 218.564C272.267 218.676 265.682 216.387 257.647 213.47C249.611 210.552 243.139 208.086 243.139 207.973C243.139 207.86 249.724 210.149 257.759 213.075C265.795 216 272.308 218.427 272.267 218.564Z" fill="#E0E0E0"/>
<path d="M277.539 185.865C277.539 185.97 273.573 184.648 268.761 182.899C263.95 181.15 260.097 179.675 260.129 179.53C260.161 179.385 264.103 180.755 268.906 182.504C273.71 184.253 277.579 185.752 277.539 185.865Z" fill="#E0E0E0"/>
<path d="M279.207 181.286C279.166 181.399 275.233 180.069 270.429 178.32C265.626 176.571 261.757 175.096 261.797 174.959C261.837 174.822 265.763 176.176 270.575 177.925C275.386 179.674 279.239 181.181 279.207 181.286Z" fill="#E0E0E0"/>
<path d="M279.449 178.126C279.449 178.23 275.838 177.038 271.469 175.45C267.101 173.862 263.603 172.484 263.643 172.379C266.344 173.135 269.004 174.028 271.614 175.055C274.276 175.945 276.891 176.97 279.449 178.126Z" fill="#E0E0E0"/>
<path d="M279.682 175.384C277.198 174.71 274.753 173.903 272.356 172.966C269.91 172.149 267.51 171.202 265.166 170.129C267.651 170.8 270.096 171.607 272.493 172.547C274.94 173.359 277.34 174.307 279.682 175.384Z" fill="#E0E0E0"/>
<path d="M280.391 173.532C277.904 172.862 275.455 172.055 273.057 171.114C270.612 170.296 268.212 169.349 265.867 168.277C268.355 168.948 270.803 169.755 273.202 170.695C275.647 171.512 278.047 172.459 280.391 173.532Z" fill="#E0E0E0"/>
<path d="M268.695 139.38C268.695 139.38 268.8 139.307 269.018 139.211L269.429 139.041L270.025 138.904C270.292 138.867 270.562 138.845 270.831 138.84C271.137 138.854 271.44 138.906 271.734 138.993C272.452 139.231 273.089 139.667 273.572 140.25C274.146 140.938 274.616 141.706 274.966 142.531C275.123 142.977 275.361 143.389 275.667 143.748C276.01 144.093 276.448 144.326 276.925 144.417C277.447 144.51 277.983 144.486 278.494 144.346C279.006 144.207 279.48 143.956 279.883 143.611C280.356 143.204 280.903 142.892 281.495 142.693C282.132 142.483 282.827 142.532 283.429 142.83C283.739 142.901 284.031 143.038 284.283 143.233C284.544 143.431 284.768 143.674 284.944 143.95C285.27 144.477 285.486 145.063 285.581 145.675C285.665 146.199 285.864 146.699 286.164 147.138C286.463 147.577 286.856 147.944 287.314 148.214C287.74 148.453 288.229 148.557 288.716 148.512C289.18 148.431 289.625 148.268 290.03 148.028C290.829 147.624 291.681 147.337 292.561 147.174C293.306 147.043 294.072 147.118 294.777 147.392C295.065 147.513 295.335 147.67 295.583 147.859C295.78 148.025 295.963 148.205 296.132 148.399L296.494 148.891L296.704 149.278C296.809 149.495 296.865 149.608 296.849 149.616C296.833 149.624 296.76 149.519 296.631 149.326L296.389 148.955L296.011 148.504C295.837 148.333 295.654 148.172 295.463 148.02C295.23 147.85 294.975 147.712 294.705 147.609C294.038 147.373 293.319 147.323 292.625 147.464C291.783 147.643 290.969 147.939 290.207 148.343L289.555 148.665C289.301 148.783 289.028 148.854 288.749 148.875C288.191 148.933 287.629 148.82 287.137 148.552C286.623 148.26 286.181 147.858 285.842 147.374C285.504 146.891 285.277 146.338 285.178 145.755C284.977 144.659 284.477 143.499 283.244 143.2C282.739 142.961 282.163 142.924 281.632 143.096C281.097 143.266 280.601 143.54 280.173 143.902C279.724 144.286 279.195 144.565 278.625 144.717C278.054 144.869 277.456 144.891 276.876 144.78C276.324 144.665 275.821 144.384 275.433 143.974C275.247 143.779 275.092 143.556 274.974 143.313L274.684 142.644C274.36 141.84 273.92 141.088 273.378 140.412C272.939 139.857 272.356 139.434 271.694 139.186C271.432 139.098 271.162 139.038 270.888 139.009C270.643 138.992 270.398 138.992 270.154 139.009L269.574 139.106L269.155 139.235C269.011 139.308 268.855 139.357 268.695 139.38Z" fill="#E0E0E0"/>
<path d="M119.586 175.089C121.768 173.774 124.115 172.755 126.566 172.058L128.009 165.151L139.68 164.941L141.356 171.8C143.831 172.406 146.214 173.341 148.441 174.581L154.341 170.72L162.739 178.829L159.088 184.858C160.403 187.04 161.422 189.387 162.119 191.838L169.026 193.28L169.236 204.951L162.376 206.628C161.767 209.103 160.829 211.486 159.588 213.712L163.457 219.612L155.348 228.011L149.319 224.352C147.138 225.669 144.79 226.691 142.339 227.39L140.897 234.298L129.226 234.499L127.549 227.648C125.074 227.04 122.691 226.102 120.464 224.859L114.565 228.728L106.166 220.62L109.825 214.591C108.506 212.407 107.484 210.057 106.787 207.603L99.8792 206.168L99.6777 194.497L106.529 192.813C107.139 190.34 108.077 187.96 109.318 185.736L105.449 179.836L113.557 171.438L119.586 175.089ZM125.808 190.645C124.091 192.428 122.941 194.681 122.503 197.118C122.065 199.555 122.36 202.067 123.349 204.337C124.338 206.606 125.978 208.532 128.061 209.87C130.144 211.209 132.577 211.899 135.053 211.855C137.529 211.812 139.936 211.035 141.97 209.624C144.004 208.212 145.575 206.23 146.483 203.927C147.391 201.623 147.597 199.102 147.073 196.682C146.549 194.262 145.32 192.052 143.54 190.33C142.356 189.185 140.958 188.284 139.425 187.68C137.893 187.076 136.256 186.78 134.609 186.809C132.962 186.838 131.337 187.192 129.827 187.85C128.316 188.508 126.951 189.458 125.808 190.645Z" fill="#E0E0E0"/>
<path d="M40.2516 299.543C41.7629 298.632 43.3893 297.927 45.0876 297.447L46.079 292.684L54.139 292.547L55.2996 297.27C57.0047 297.693 58.6469 298.338 60.184 299.188L64.2543 296.529L70.0413 302.114L67.4944 306.281C68.403 307.793 69.1051 309.419 69.5819 311.117L74.3454 312.109L74.4905 320.169L69.7592 321.329C69.3415 323.036 68.6963 324.679 67.841 326.214L70.5088 330.284L64.9152 336.079L60.7562 333.556C59.2442 334.464 57.6178 335.166 55.9202 335.644L54.9288 340.407L46.8688 340.552L45.7082 335.821C44.0019 335.402 42.3593 334.757 40.8238 333.903L36.7938 336.571L31.0068 330.977L33.5295 326.818C32.6192 325.306 31.9145 323.68 31.4339 321.982L26.6705 320.991L26.5254 312.931L31.2566 311.77C31.6757 310.064 32.3208 308.421 33.1749 306.886L30.507 302.856L36.1007 297.06L40.2596 299.583L40.2516 299.543ZM44.5476 310.263C43.3592 311.491 42.5619 313.045 42.2565 314.727C41.9512 316.408 42.1516 318.143 42.8323 319.711C43.513 321.279 44.6434 322.61 46.0806 323.535C47.5178 324.46 49.1971 324.938 50.9062 324.909C52.6152 324.88 54.2771 324.344 55.6817 323.37C57.0863 322.396 58.1704 321.027 58.7969 319.437C59.4234 317.847 59.5641 316.106 59.2013 314.436C58.8384 312.765 57.9883 311.24 56.7585 310.053C55.1098 308.465 52.8987 307.595 50.6097 307.634C48.3207 307.674 46.1407 308.619 44.5476 310.263Z" fill="#EBEBEB"/>
<path d="M36.0274 121.916C36.9428 121.358 37.9298 120.927 38.9613 120.635L39.5658 117.733L44.4743 117.645L45.1836 120.53C46.223 120.788 47.2232 121.184 48.1577 121.707L50.6402 120.095L54.1785 123.512L52.6391 126.043C53.188 126.956 53.6161 127.937 53.9126 128.961L56.8222 129.565L56.9028 134.474L54.0254 135.183C53.7671 136.222 53.3714 137.223 52.8486 138.157L54.4606 140.64L51.0513 144.178L48.5285 142.663C47.6103 143.214 46.624 143.642 45.5946 143.936L44.9901 146.846L40.0816 146.927L39.3723 144.049C38.3304 143.791 37.3275 143.395 36.3901 142.872L33.9076 144.484L30.3774 141.051L31.9168 138.512C31.3552 137.603 30.9212 136.621 30.6272 135.594L27.7176 134.99L27.6289 130.073L30.5144 129.372C30.77 128.33 31.163 127.327 31.6831 126.39L30.0711 123.907L33.4805 120.377L36.0194 121.916H36.0274ZM38.6389 128.453C37.9148 129.203 37.4294 130.151 37.2439 131.177C37.0585 132.202 37.1813 133.26 37.597 134.216C38.0126 135.172 38.7024 135.983 39.579 136.547C40.4557 137.111 41.4799 137.403 42.5222 137.385C43.5645 137.367 44.578 137.04 45.4347 136.446C46.2913 135.852 46.9526 135.017 47.335 134.048C47.7173 133.078 47.8035 132.016 47.5827 130.998C47.3619 129.979 46.8439 129.048 46.0944 128.324C45.0878 127.354 43.7376 126.823 42.34 126.847C40.9423 126.871 39.6113 127.449 38.6389 128.453Z" fill="#EBEBEB"/>
<path d="M194.705 37.0758C195.406 41.7619 194.699 46.5503 192.676 50.8348C190.653 55.1193 187.404 58.707 183.341 61.1436C179.277 63.5802 174.582 64.7562 169.849 64.5225C165.117 64.2888 160.56 62.656 156.757 59.8309C152.953 57.0058 150.073 53.1154 148.482 48.6525C146.891 44.1896 146.66 39.3548 147.818 34.7605C148.977 30.1662 151.473 26.019 154.99 22.8442C158.507 19.6693 162.887 17.6096 167.575 16.9258C173.844 16.0051 180.222 17.6099 185.309 21.3879C190.396 25.1659 193.775 30.8082 194.705 37.0758Z" fill="#F5F5F5"/>
<path d="M189.072 37.8801C189.599 41.4523 189.054 45.1006 187.507 48.3632C185.96 51.6258 183.479 54.3561 180.38 56.2083C177.28 58.0605 173.7 58.9515 170.094 58.7684C166.488 58.5854 163.017 57.3365 160.121 55.1799C157.225 53.0233 155.034 50.0559 153.825 46.6534C152.616 43.2509 152.443 39.5662 153.33 36.0657C154.216 32.5652 156.121 29.4064 158.803 26.989C161.485 24.5715 164.824 23.0043 168.398 22.4855C170.766 22.1385 173.18 22.2614 175.5 22.8473C177.821 23.4332 180.004 24.4706 181.924 25.9002C183.844 27.3298 185.463 29.1235 186.689 31.1791C187.916 33.2346 188.725 35.5117 189.072 37.8801Z" fill="#EBEBEB"/>
<path d="M188.983 37.3335C188.639 36.6662 188.369 35.9636 188.177 35.2379C187.49 33.3548 186.513 31.5901 185.284 30.007C184.44 28.9274 183.481 27.9436 182.422 27.0731C181.203 26.0845 179.862 25.2557 178.433 24.6068C176.858 23.8944 175.188 23.4139 173.476 23.1801C172.57 23.0572 171.657 23.0034 170.743 23.0189C169.803 23.0431 168.866 23.1347 167.939 23.293C167.014 23.4618 166.104 23.6989 165.214 24.0023C164.352 24.2988 163.513 24.6626 162.708 25.0904C161.18 25.9008 159.776 26.9269 158.541 28.137C157.422 29.2359 156.45 30.4738 155.647 31.8205C154.954 33.0023 154.392 34.2563 153.971 35.5603C153.364 37.4708 153.057 39.4637 153.06 41.4683C153.142 42.2156 153.142 42.9697 153.06 43.717C152.733 43.0229 152.558 42.2675 152.544 41.5005C152.322 39.4161 152.491 37.3084 153.044 35.2863C153.424 33.8854 153.965 32.5331 154.656 31.2563C155.466 29.7843 156.472 28.4287 157.646 27.2263C159.642 25.1844 162.084 23.6315 164.779 22.6885C165.736 22.348 166.716 22.0786 167.713 21.8825C168.712 21.7134 169.722 21.6191 170.735 21.6004C171.722 21.5831 172.709 21.6479 173.685 21.7938C174.625 21.9262 175.553 22.1365 176.458 22.4225C177.327 22.6872 178.176 23.0158 178.997 23.4058C181.84 24.7532 184.287 26.8135 186.098 29.3863C187.314 31.0871 188.199 33.0009 188.709 35.0283C188.97 35.7671 189.063 36.5543 188.983 37.3335Z" fill="#E0E0E0"/>
<path d="M174.621 50.9972L175.128 54.1406L172.324 54.5839L171.832 51.5292C169.33 51.8542 166.788 51.4658 164.497 50.4088L165.489 46.7496C167.277 47.6164 169.26 48.0025 171.244 47.8699L170.494 43.1871C167.27 42.9292 163.627 42.4536 162.982 38.4478C162.506 35.4737 164.255 32.5801 168.624 31.3711L168.132 28.26L170.929 27.8086L171.421 30.8633C173.445 30.656 175.489 30.9322 177.385 31.6693L176.515 35.3205C175.076 34.7542 173.539 34.4802 171.993 34.5145L172.799 39.278C176.023 39.5037 179.61 39.9953 180.247 43.9447C180.658 46.9027 178.933 49.764 174.621 50.9972ZM169.841 39.0604L169.196 35.0868C167.77 35.659 167.31 36.5698 167.455 37.5048C167.6 38.4397 168.543 38.8669 169.841 39.0604ZM175.709 45.0489C175.548 44.0656 174.653 43.6626 173.379 43.4369L174 47.2977C175.378 46.7496 175.878 45.9436 175.709 45.0489Z" fill="#E0E0E0"/>
<path d="M272.646 368.211C273.203 371.982 272.629 375.834 270.996 379.278C269.363 382.722 266.745 385.605 263.473 387.56C260.201 389.516 256.422 390.457 252.615 390.264C248.808 390.071 245.144 388.753 242.086 386.477C239.029 384.201 236.715 381.069 235.439 377.477C234.162 373.885 233.98 369.996 234.915 366.3C235.85 362.605 237.86 359.27 240.691 356.718C243.523 354.165 247.048 352.51 250.82 351.962C253.32 351.595 255.868 351.724 258.319 352.341C260.769 352.959 263.074 354.054 265.101 355.563C267.128 357.072 268.838 358.966 270.132 361.136C271.427 363.306 272.281 365.711 272.646 368.211Z" fill="#F5F5F5"/>
<path d="M268.107 368.864C268.531 371.737 268.094 374.671 266.85 377.295C265.606 379.919 263.611 382.115 261.118 383.605C258.626 385.095 255.747 385.813 252.847 385.666C249.946 385.52 247.155 384.516 244.825 382.782C242.495 381.048 240.732 378.662 239.759 375.926C238.786 373.19 238.646 370.227 239.358 367.411C240.069 364.596 241.6 362.054 243.756 360.109C245.913 358.164 248.598 356.902 251.471 356.484C253.377 356.204 255.318 356.302 257.186 356.773C259.053 357.244 260.809 358.078 262.354 359.228C263.899 360.377 265.202 361.82 266.189 363.473C267.176 365.127 267.828 366.958 268.107 368.864Z" fill="#EBEBEB"/>
<path d="M268.035 368.413C267.768 367.871 267.555 367.304 267.398 366.721C266.848 365.206 266.065 363.786 265.077 362.513C263.623 360.636 261.73 359.144 259.564 358.169C258.947 357.886 258.308 357.652 257.654 357.468C256.974 357.265 256.278 357.117 255.574 357.024C254.849 356.92 254.115 356.877 253.382 356.895C252.626 356.912 251.871 356.985 251.125 357.113C250.381 357.248 249.648 357.439 248.933 357.685C248.239 357.921 247.565 358.212 246.918 358.556C246.289 358.89 245.686 359.27 245.113 359.692C244.564 360.094 244.047 360.536 243.565 361.014C241.87 362.676 240.606 364.726 239.882 366.987C239.392 368.521 239.148 370.123 239.156 371.734C239.215 372.334 239.215 372.939 239.156 373.539C238.884 372.984 238.739 372.376 238.729 371.758C238.556 370.082 238.692 368.388 239.132 366.761C240.002 363.604 241.882 360.818 244.484 358.83C245.093 358.367 245.737 357.952 246.41 357.589C247.106 357.212 247.831 356.891 248.578 356.629C249.351 356.36 250.143 356.153 250.948 356.009C251.747 355.872 252.555 355.794 253.366 355.775C254.159 355.763 254.952 355.817 255.736 355.936C256.492 356.042 257.239 356.209 257.968 356.436C258.67 356.653 259.354 356.923 260.015 357.242C261.231 357.826 262.364 358.568 263.385 359.45C264.265 360.221 265.052 361.092 265.73 362.046C266.704 363.421 267.415 364.965 267.826 366.6C268.028 367.181 268.099 367.801 268.035 368.413Z" fill="#E0E0E0"/>
<path d="M256.486 379.4L256.889 381.931L254.64 382.286L254.245 379.868C252.232 380.123 250.188 379.808 248.345 378.957L249.151 376.015C250.59 376.71 252.184 377.018 253.778 376.91L253.173 373.146C250.578 372.936 247.652 372.549 247.136 369.333C246.749 366.915 248.16 364.61 251.65 363.635L251.255 361.136L253.504 360.773L253.899 363.232C255.525 363.061 257.169 363.279 258.694 363.868L258.009 366.827C256.851 366.379 255.615 366.168 254.374 366.206L254.987 370.034C257.582 370.22 260.468 370.615 260.975 373.79C261.346 376.104 259.96 378.409 256.486 379.4ZM252.641 369.801L252.125 366.577C250.973 367.036 250.602 367.77 250.723 368.511C250.844 369.253 251.594 369.648 252.641 369.801ZM257.389 374.637C257.26 373.831 256.534 373.524 255.511 373.339L256.01 376.45C257.115 375.999 257.501 375.338 257.389 374.612V374.637Z" fill="#E0E0E0"/>
<path d="M346.789 209.109C346.789 209.109 346.789 208.303 346.708 206.796C346.708 206.03 346.66 205.079 346.628 203.951C346.595 202.822 346.571 201.533 346.426 200.018C346.281 198.502 346.184 196.874 346.039 195.036C345.894 193.199 345.564 191.216 345.298 189.056C344.58 184.091 343.614 179.166 342.404 174.298C342.098 172.92 341.639 171.534 341.252 170.091L340.623 167.915L340.309 166.802L339.938 165.69L338.382 161.12C338.132 160.314 337.826 159.564 337.512 158.783C337.197 158.001 336.891 157.171 336.577 156.405C333.826 149.456 330.51 142.743 326.663 136.336C317.286 120.675 305.016 106.941 290.506 95.8662C272.879 82.4463 252.357 73.3374 230.58 69.2682L226.171 68.4622L221.69 67.89C218.699 67.4386 215.653 67.3097 212.59 67.084C211.058 66.947 209.511 66.9792 207.963 66.9228L205.642 66.8664C204.836 66.8664 204.087 66.818 203.305 66.8664C200.186 66.9631 197.042 66.947 193.883 67.2613C187.473 67.7186 181.102 68.61 174.813 69.9292C171.637 70.6626 168.429 71.3477 165.27 72.3472C162.046 73.1532 158.959 74.3219 155.783 75.3777C142.901 80.0602 130.761 86.5752 119.739 94.7217C114.078 98.9612 108.714 103.582 103.683 108.553C98.6193 113.676 93.9221 119.148 89.6265 124.931L86.4589 129.388L83.4848 134.006C82.4611 135.53 81.6068 137.166 80.6718 138.745L79.2936 141.163L78.0201 143.581L76.7547 146.056C76.3275 146.862 75.9487 147.708 75.5457 148.563L73.2486 153.648C72.5661 155.379 71.8784 157.114 71.1852 158.855L70.6694 160.161L70.218 161.491L69.3153 164.175L68.4206 166.843L67.6146 169.559L66.8086 172.275L66.4298 173.645L66.1074 175.024C65.6883 176.867 65.2638 178.712 64.8339 180.561C64.5061 182.431 64.173 184.311 63.8345 186.203C61.3574 201.371 61.3574 216.84 63.8345 232.008C64.173 233.886 64.5035 235.756 64.842 237.65C65.1805 239.544 65.648 241.349 66.1074 243.187L66.4298 244.573C66.5426 245.033 66.6797 245.484 66.8086 245.935L67.6146 248.66L68.4206 251.376L69.3153 254.012L70.218 256.679L70.6694 258.009L71.1852 259.315L73.2405 264.53L75.5457 269.616L76.1179 270.881L76.7547 272.122L78.0201 274.589L79.2936 277.055L80.6718 279.473C81.6068 281.085 82.4531 282.697 83.4848 284.212C84.5164 285.728 85.4675 287.291 86.4508 288.831L89.6265 293.288C93.9191 299.083 98.6164 304.566 103.683 309.698C108.716 314.667 114.08 319.288 119.739 323.529C125.32 327.633 131.181 331.345 137.277 334.636C143.264 337.808 149.457 340.573 155.815 342.913C158.991 343.969 162.11 345.114 165.31 345.944C168.461 346.919 171.677 347.596 174.845 348.362C181.137 349.678 187.511 350.567 193.923 351.022C197.074 351.336 200.226 351.32 203.345 351.417C204.151 351.457 204.901 351.417 205.682 351.417L208.004 351.36C209.551 351.304 211.099 351.36 212.63 351.199C215.693 350.941 218.74 350.812 221.73 350.393L226.211 349.821L230.62 349.015C252.397 344.946 272.92 335.837 290.546 322.417C305.054 311.337 317.324 297.601 326.703 281.939C330.543 275.532 333.856 268.822 336.609 261.878L337.544 259.5C337.858 258.694 338.165 257.945 338.414 257.155L339.97 252.593C340.091 252.214 340.22 251.843 340.341 251.481C340.462 251.118 340.558 250.739 340.663 250.368C340.873 249.635 341.074 248.901 341.284 248.184C341.671 246.749 342.13 245.363 342.436 243.977C343.646 239.112 344.612 234.189 345.33 229.227C345.596 227.067 345.886 225.076 346.072 223.247C346.257 221.417 346.346 219.748 346.458 218.265C346.571 216.782 346.636 215.469 346.66 214.332C346.684 213.196 346.716 212.253 346.74 211.487C346.789 209.964 346.821 209.182 346.821 209.182C346.821 209.182 346.821 209.988 346.821 211.487C346.821 212.253 346.781 213.204 346.757 214.332C346.732 215.461 346.716 216.75 346.579 218.265C346.442 219.781 346.346 221.417 346.209 223.255C346.072 225.092 345.741 227.075 345.483 229.243C344.756 234.19 343.777 239.097 342.549 243.945C342.243 245.331 341.792 246.717 341.397 248.16C341.195 248.877 340.994 249.611 340.784 250.344L340.47 251.465C340.341 251.827 340.22 252.198 340.091 252.569L338.568 257.115C338.318 257.921 338.012 258.678 337.697 259.46C337.383 260.242 337.077 261.072 336.762 261.878C334.019 268.839 330.711 275.565 326.873 281.988C317.499 297.693 305.22 311.468 290.691 322.578C273.036 336.046 252.475 345.196 230.652 349.297L226.235 350.103L221.746 350.683C218.748 351.135 215.685 351.263 212.614 351.489C211.083 351.626 209.535 351.594 207.98 351.658L205.65 351.723C204.844 351.723 204.095 351.763 203.313 351.723C200.185 351.618 197.026 351.634 193.866 351.328C187.438 350.873 181.048 349.985 174.74 348.668C171.516 347.927 168.34 347.242 165.173 346.25C161.949 345.444 158.83 344.275 155.654 343.212C142.729 338.512 130.551 331.969 119.497 323.787C113.817 319.535 108.431 314.904 103.377 309.924C98.2989 304.774 93.5883 299.274 89.2799 293.465C88.216 291.982 87.1601 290.491 86.0559 289L83.0737 284.365C82.0501 282.842 81.1957 281.198 80.2527 279.61L78.8664 277.192L77.5929 274.718L76.3275 272.243L75.7633 271.058L75.183 269.793L72.8778 264.691C72.1927 262.95 71.4995 261.209 70.8144 259.46L70.2986 258.154L69.8472 256.816L68.9365 254.14L68.0096 251.473L67.2036 248.74L66.3976 246.016C66.2686 245.557 66.1316 245.105 66.0187 244.646L65.6963 243.259C65.2692 241.406 64.8903 239.552 64.4229 237.698C63.9554 235.844 63.7539 233.95 63.4154 232.056C60.9267 216.843 60.9267 201.327 63.4154 186.114C63.7458 184.228 64.0843 182.358 64.4229 180.472C64.7614 178.586 65.2289 176.764 65.6963 174.919L66.0107 173.532L66.3976 172.162L67.2036 169.43L68.0096 166.706L68.9123 164.03L69.8231 161.354L70.2744 160.016L70.7903 158.71C71.4754 156.961 72.1685 155.22 72.8536 153.479C73.5387 151.738 74.3931 150.078 75.1588 148.385C75.5295 147.523 75.9648 146.693 76.3758 145.87L77.6493 143.396L78.9228 140.922L80.3011 138.504C81.2441 136.892 82.0984 135.28 83.1301 133.748L86.1043 129.122L89.3283 124.648C93.6348 118.843 98.3454 113.349 103.425 108.206C108.481 103.226 113.866 98.5913 119.545 94.3348C130.59 86.1772 142.75 79.6515 155.654 74.9586C158.83 73.9027 161.965 72.7582 165.165 71.92C168.332 70.9528 171.556 70.308 174.732 69.502C181.042 68.2049 187.432 67.3352 193.858 66.8986C197.018 66.5923 200.177 66.6084 203.305 66.5117C204.111 66.5117 204.868 66.5117 205.642 66.5117L207.98 66.5681C209.527 66.6326 211.075 66.5681 212.614 66.7374C215.677 66.9953 218.74 67.1243 221.738 67.5434L226.227 68.1237L230.644 68.9297C252.469 73.0159 273.032 82.1615 290.683 95.6325C305.209 106.742 317.488 120.514 326.865 136.215C330.707 142.65 334.018 149.389 336.762 156.365C337.077 157.171 337.383 157.977 337.697 158.742C338.012 159.508 338.318 160.298 338.56 161.088C339.097 162.651 339.613 164.177 340.107 165.666C340.236 166.037 340.357 166.407 340.478 166.778L340.792 167.89C341.002 168.632 341.211 169.357 341.413 170.075C341.8 171.525 342.259 172.912 342.565 174.29C343.768 179.165 344.72 184.099 345.419 189.072C345.677 191.232 345.967 193.231 346.144 195.061C346.321 196.89 346.402 198.559 346.515 200.05C346.628 201.541 346.676 202.847 346.692 203.983C346.708 205.12 346.74 206.063 346.757 206.828C346.781 208.327 346.789 209.109 346.789 209.109Z" fill="#263238"/>
<path d="M285.782 244.639C288.765 244.8 291.005 241.334 290.425 238.4C289.845 235.467 287.266 233.29 284.501 232.146C281.736 231.001 278.722 230.655 275.828 229.913C271.517 228.783 267.481 226.787 263.967 224.046C260.453 221.305 257.534 217.877 255.388 213.971C253.85 210.991 252.588 207.878 251.616 204.669C247.546 187.526 241.944 163.015 240.534 153.464C236.971 128.809 230.684 101.727 195.446 104.25C195.446 104.25 172.016 108.659 163.029 125.464C155.122 140.238 159.684 184.793 158.636 216.888L166.317 221.515L167.51 221.587C168.399 224.871 169.832 227.982 171.75 230.792C178.762 240.794 188.313 248.83 198.662 255.326C219.618 268.456 244.604 275.621 269.195 273.155C274.386 272.631 279.673 271.656 284.187 269.125C288.7 266.594 292.472 262.153 293.157 256.987C293.842 251.82 290.804 246.041 285.782 244.639Z" fill="#263238"/>
<path d="M190.755 113.436L192.963 111.332L216.813 120.899C218.477 120.991 220.046 121.705 221.209 122.9C222.372 124.094 223.044 125.681 223.092 127.347L222.882 204.965C222.882 210.228 221.858 214.79 218.683 218.981L215.338 223.398C207.705 233.473 192.012 232.643 185.975 221.544C185.619 220.914 185.348 220.239 185.169 219.538C185.015 218.968 184.897 218.389 184.815 217.805C184.105 211.558 184.065 206.142 184.065 206.142C183.638 199.291 183.501 196.47 183.493 196.542C183.485 196.615 168.904 194.858 164.955 176.134C162.988 166.817 163.343 154.002 163.915 141.388C164.616 123.962 176.722 113.42 190.755 113.436Z" fill="#FFBF9D"/>
<path d="M195.641 154.198C195.666 154.829 195.937 155.426 196.397 155.86C196.856 156.294 197.467 156.53 198.099 156.519C198.411 156.533 198.722 156.484 199.014 156.375C199.307 156.266 199.574 156.098 199.8 155.883C200.026 155.667 200.206 155.409 200.329 155.122C200.452 154.835 200.516 154.526 200.517 154.214C200.494 153.581 200.223 152.983 199.764 152.547C199.304 152.112 198.692 151.874 198.059 151.885C197.746 151.872 197.435 151.922 197.142 152.032C196.85 152.143 196.583 152.311 196.357 152.527C196.131 152.743 195.952 153.002 195.828 153.289C195.705 153.576 195.641 153.886 195.641 154.198Z" fill="#263238"/>
<path d="M171.016 154.197C171.041 154.821 171.306 155.412 171.757 155.845C172.208 156.277 172.809 156.519 173.434 156.518C173.745 156.531 174.056 156.481 174.348 156.372C174.64 156.262 174.906 156.094 175.132 155.879C175.358 155.664 175.538 155.406 175.661 155.119C175.785 154.833 175.85 154.525 175.852 154.213C175.829 153.58 175.558 152.982 175.098 152.546C174.639 152.111 174.026 151.873 173.393 151.884C173.084 151.875 172.776 151.929 172.488 152.041C172.2 152.153 171.937 152.322 171.716 152.538C171.494 152.754 171.318 153.012 171.198 153.297C171.077 153.581 171.016 153.888 171.016 154.197Z" fill="#263238"/>
<path d="M166.35 146.401C166.665 146.708 168.43 145.257 171.033 145.128C173.637 144.999 175.619 146.216 175.869 145.877C175.998 145.732 175.668 145.176 174.805 144.612C173.638 143.887 172.276 143.541 170.904 143.621C169.547 143.683 168.245 144.177 167.189 145.031C166.439 145.684 166.197 146.272 166.35 146.401Z" fill="#263238"/>
<path d="M192.786 146.692C193.133 146.958 194.745 145.33 197.324 144.943C199.903 144.557 201.991 145.548 202.225 145.193C202.337 145.032 201.951 144.516 201.032 144.041C199.797 143.439 198.406 143.233 197.05 143.452C195.709 143.655 194.467 144.279 193.504 145.234C192.803 145.951 192.633 146.555 192.786 146.692Z" fill="#263238"/>
<path d="M183.686 165.642C183.686 165.489 182.074 165.296 179.415 165.094C178.746 165.054 178.109 164.957 177.972 164.506C177.884 163.823 178.005 163.129 178.318 162.515L180.035 157.349C182.405 149.998 184.065 143.969 183.791 143.872C183.517 143.776 181.333 149.659 178.955 157.01C178.391 158.824 177.843 160.548 177.343 162.201C176.966 163.027 176.892 163.96 177.134 164.836C177.242 165.066 177.401 165.267 177.6 165.425C177.798 165.583 178.03 165.693 178.278 165.747C178.651 165.83 179.033 165.865 179.415 165.852C182.042 165.86 183.686 165.787 183.686 165.642Z" fill="#263238"/>
<path d="M183.43 196.567C192.34 196.259 200.99 193.482 208.416 188.547C208.416 188.547 202.709 201.943 183.728 201.12L183.43 196.567Z" fill="#FF9A6C"/>
<path d="M185.106 171.863C185.57 171.214 186.192 170.695 186.912 170.354C187.633 170.012 188.429 169.86 189.224 169.912C189.801 169.934 190.368 170.072 190.89 170.319C191.413 170.565 191.879 170.915 192.263 171.347C192.634 171.763 192.867 172.284 192.932 172.837C192.997 173.391 192.89 173.951 192.626 174.442C192.232 174.931 191.7 175.292 191.1 175.477C190.5 175.662 189.858 175.664 189.257 175.482C188.002 175.11 186.835 174.49 185.823 173.66C185.511 173.468 185.238 173.219 185.017 172.927C184.913 172.787 184.853 172.62 184.845 172.446C184.836 172.273 184.879 172.101 184.969 171.951" fill="#FF9A6C"/>
<path d="M191.448 167.059C191.02 167.059 191.157 169.88 188.836 172.008C186.515 174.136 183.492 173.983 183.484 174.378C183.484 174.555 184.186 174.894 185.459 174.861C187.118 174.805 188.703 174.163 189.932 173.048C191.115 171.98 191.834 170.494 191.939 168.905C191.988 167.72 191.633 167.035 191.448 167.059Z" fill="#263238"/>
<path d="M190.296 136.522C190.659 137.183 193.182 136.449 196.261 136.353C199.34 136.256 201.903 136.707 202.225 136.014C202.354 135.684 201.83 135.095 200.734 134.563C199.29 133.934 197.722 133.642 196.148 133.709C194.574 133.776 193.036 134.2 191.65 134.95C190.611 135.563 190.135 136.216 190.296 136.522Z" fill="#263238"/>
<path d="M166.72 135.208C167.211 135.781 168.977 135.079 171.129 134.934C173.281 134.789 175.159 135.136 175.529 134.499C175.699 134.185 175.376 133.604 174.554 133.089C173.448 132.471 172.184 132.196 170.921 132.298C169.658 132.4 168.454 132.874 167.461 133.661C166.728 134.314 166.502 134.934 166.72 135.208Z" fill="#263238"/>
<path d="M222.584 160.498C222.584 160.498 209.245 164.649 201.693 131.716C199.106 120.432 188.668 111.332 188.668 111.332L192.899 110.059C192.899 110.059 219.215 117.474 219.659 117.804C220.102 118.135 226.3 131.418 226.3 131.418L222.584 160.498Z" fill="#263238"/>
<path d="M219.295 159.276C219.231 157.866 220.689 154.44 222.068 154.182C225.743 153.416 232.441 153.376 232.981 162.798C233.706 175.694 220.641 173.744 220.593 173.373C220.544 173.002 219.529 164.128 219.295 159.276Z" fill="#FFBF9D"/>
<path d="M224.252 168.277C224.301 168.228 224.486 168.422 224.873 168.575C225.419 168.77 226.02 168.747 226.549 168.511C227.879 167.938 228.903 165.714 228.83 163.392C228.803 162.287 228.528 161.201 228.024 160.217C227.879 159.825 227.642 159.473 227.331 159.192C227.021 158.912 226.648 158.71 226.243 158.605C225.981 158.552 225.709 158.592 225.473 158.718C225.237 158.845 225.054 159.05 224.954 159.298C224.8 159.669 224.897 159.919 224.833 159.943C224.768 159.967 224.542 159.741 224.615 159.209C224.673 158.897 224.835 158.613 225.074 158.403C225.416 158.118 225.855 157.976 226.3 158.008C226.828 158.088 227.327 158.3 227.75 158.626C228.173 158.952 228.506 159.38 228.718 159.87C229.33 160.951 229.668 162.166 229.701 163.409C229.765 166.004 228.572 168.511 226.743 169.155C226.403 169.275 226.04 169.316 225.682 169.277C225.323 169.238 224.978 169.119 224.671 168.93C224.293 168.583 224.204 168.301 224.252 168.277Z" fill="#FF9A6C"/>
<path d="M233.458 207.899C233.261 206.408 233.167 204.905 233.176 203.401C233.233 199.3 233.651 195.211 234.425 191.182C234.884 188.627 235.384 185.831 235.924 182.832C236.508 179.635 236.893 176.405 237.077 173.16C237.295 169.588 237.024 166.003 236.271 162.505C235.851 160.666 235.243 158.875 234.457 157.161C233.632 155.404 232.61 153.746 231.41 152.22C228.992 149.246 226.293 146.512 223.35 144.056C220.529 141.638 217.829 139.22 215.427 136.761C211.149 132.429 207.275 127.716 203.853 122.68C201.543 119.294 199.448 115.764 197.583 112.114C196.922 110.824 196.438 109.809 196.124 109.107C195.971 108.769 195.85 108.511 195.769 108.301C195.723 108.214 195.685 108.122 195.656 108.027C195.712 108.109 195.761 108.195 195.801 108.285C195.898 108.468 196.027 108.737 196.188 109.091C196.519 109.776 196.994 110.784 197.703 112.065C199.614 115.681 201.738 119.18 204.063 122.543C207.502 127.543 211.384 132.223 215.661 136.528C218.079 138.946 220.755 141.364 223.576 143.782C226.555 146.245 229.287 148.993 231.733 151.987C232.951 153.534 233.986 155.216 234.82 157C235.616 158.737 236.229 160.552 236.649 162.416C237.393 165.946 237.65 169.561 237.415 173.16C237.215 176.406 236.817 179.636 236.222 182.832C235.666 185.831 235.15 188.627 234.683 191.174C233.887 195.188 233.431 199.262 233.321 203.353C233.321 204.804 233.321 205.932 233.409 206.69L233.466 207.56C233.478 207.673 233.475 207.787 233.458 207.899Z" fill="#455A64"/>
<path d="M237.599 209.118C237.398 207.627 237.303 206.124 237.317 204.62C237.377 200.516 237.798 196.424 238.575 192.393C239.034 189.838 239.534 187.041 240.074 184.043C240.654 180.846 241.039 177.616 241.226 174.371C241.444 170.799 241.173 167.214 240.42 163.716C240.001 161.877 239.393 160.086 238.607 158.372C237.782 156.615 236.76 154.957 235.56 153.431C233.127 150.457 230.414 147.723 227.46 145.266C224.639 142.848 221.939 140.43 219.537 137.972C215.257 133.642 211.382 128.929 207.963 123.891C205.652 120.505 203.558 116.975 201.692 113.325C201.031 112.035 200.547 111.02 200.233 110.318L199.87 109.512C199.828 109.424 199.793 109.332 199.766 109.238L199.911 109.496C199.999 109.69 200.128 109.94 200.298 110.302C200.628 110.995 201.104 111.995 201.813 113.276C203.724 116.892 205.847 120.391 208.172 123.754C211.609 128.753 215.488 133.434 219.762 137.738C222.18 140.156 224.856 142.574 227.685 144.992C230.664 147.456 233.396 150.204 235.842 153.198C237.057 154.747 238.093 156.429 238.929 158.211C239.726 159.948 240.339 161.763 240.759 163.627C241.498 167.158 241.755 170.772 241.524 174.371C241.325 177.616 240.926 180.846 240.332 184.043C239.775 187.041 239.26 189.838 238.792 192.385C237.996 196.402 237.54 200.479 237.43 204.572C237.43 206.015 237.43 207.143 237.511 207.901C237.511 208.271 237.559 208.562 237.567 208.771C237.595 208.885 237.605 209.001 237.599 209.118Z" fill="#455A64"/>
<path d="M145.491 227.664C139.938 231.21 133.732 236.957 130.79 242.857C125.47 253.545 88.1605 282.254 86.7016 289.21C83.3487 318.911 116.201 318.524 129.5 302.638C136.383 294.417 151.552 263.612 151.552 263.612L145.491 227.664Z" fill="#455A64"/>
<path d="M103.225 273.591C103.225 273.591 127.888 233.887 132.724 228.334C140.131 219.839 153.003 216.438 153.003 216.438L155.776 268.497C155.945 267.78 130.29 300.568 130.29 300.568C130.29 300.568 106.328 282.763 103.225 273.591Z" fill="#455A64"/>
<path d="M118.546 233.418L91.7308 284.623C90.4236 287.074 90.0776 289.923 90.7603 292.616C91.443 295.308 93.1053 297.648 95.4223 299.179L95.5351 299.252C105.82 305.756 119.449 299.405 121.714 287.452L131.152 239.6L118.546 233.418Z" fill="#FFBF9D"/>
<path d="M144.636 188.863L127.428 229.953L131.345 231.597L148.029 190.048L144.636 188.863Z" fill="#455A64"/>
<path d="M172.371 172.321C173.303 160.87 165.465 150.888 154.866 150.026C144.266 149.164 134.919 157.748 133.987 169.199C133.056 180.65 140.893 190.632 151.493 191.495C162.092 192.357 171.44 183.773 172.371 172.321Z" fill="#FFBF9D"/>
<path d="M172.434 170.766C172.311 170.339 172.245 169.897 172.241 169.453C172.241 169.235 172.241 168.993 172.184 168.735C172.128 168.477 172.096 168.187 172.039 167.873C171.946 167.16 171.806 166.455 171.62 165.761C171.163 163.877 170.447 162.065 169.492 160.377C168.278 158.192 166.658 156.258 164.721 154.679C162.449 152.816 159.752 151.542 156.87 150.971C156.093 150.826 155.307 150.735 154.517 150.697C154.114 150.697 153.711 150.64 153.3 150.649L152.067 150.729C151.865 150.729 151.655 150.729 151.446 150.769L150.825 150.874C150.414 150.955 150.019 151.011 149.576 151.1C148.731 151.311 147.901 151.58 147.094 151.906C146.261 152.231 145.453 152.616 144.676 153.058C144.281 153.292 143.87 153.558 143.515 153.808C143.118 154.046 142.741 154.316 142.386 154.614C141.633 155.209 140.922 155.855 140.259 156.548C139.594 157.28 138.98 158.055 138.421 158.87C137.241 160.556 136.325 162.412 135.705 164.375C135.074 166.421 134.727 168.545 134.673 170.686C134.671 172.819 134.964 174.943 135.544 176.997C136.112 178.955 136.98 180.815 138.115 182.51C139.155 184.136 140.457 185.579 141.967 186.782C142.318 187.073 142.687 187.343 143.072 187.588C143.458 187.837 143.829 188.111 144.216 188.337C144.995 188.781 145.803 189.171 146.634 189.506C147.437 189.83 148.261 190.099 149.1 190.312C149.512 190.409 149.906 190.465 150.35 190.537L150.962 190.65C151.172 190.65 151.381 190.65 151.583 190.699L152.816 190.779C153.227 190.779 153.622 190.779 154.033 190.731C154.826 190.7 155.615 190.611 156.395 190.465C159.301 189.899 162.025 188.635 164.334 186.782C166.314 185.21 167.984 183.283 169.259 181.099C170.257 179.417 171.019 177.605 171.523 175.715C171.73 175.026 171.889 174.323 171.999 173.611C172.055 173.297 172.12 173.015 172.16 172.749L172.241 172.032C172.254 171.585 172.33 171.143 172.466 170.718C172.564 171.157 172.588 171.609 172.539 172.056C172.539 172.274 172.539 172.523 172.539 172.789C172.539 173.055 172.483 173.354 172.45 173.676C172.379 174.414 172.258 175.146 172.088 175.868C171.669 177.859 170.958 179.777 169.976 181.559C168.716 183.903 167.016 185.982 164.971 187.684C162.558 189.741 159.672 191.164 156.572 191.827C155.743 192.002 154.903 192.115 154.057 192.166C153.63 192.166 153.195 192.23 152.76 192.23L151.438 192.166C151.22 192.166 150.995 192.166 150.777 192.117L150.116 192.012C149.673 191.94 149.221 191.883 148.77 191.787C146.935 191.346 145.169 190.654 143.523 189.731C143.104 189.49 142.717 189.208 142.29 188.925C141.867 188.658 141.466 188.359 141.089 188.031C139.448 186.753 138.034 185.208 136.906 183.461C135.673 181.635 134.732 179.628 134.117 177.513C132.789 173.057 132.85 168.302 134.294 163.883C134.966 161.767 135.958 159.766 137.236 157.951C137.847 157.078 138.515 156.246 139.235 155.46C139.958 154.721 140.728 154.029 141.54 153.389C141.926 153.068 142.333 152.771 142.757 152.502C143.176 152.236 143.563 151.954 144.015 151.696C144.86 151.229 145.738 150.822 146.642 150.479C147.513 150.146 148.408 149.877 149.318 149.673C149.761 149.577 150.213 149.528 150.664 149.448L151.325 149.351C151.547 149.325 151.77 149.312 151.994 149.311L153.308 149.246C153.751 149.246 154.178 149.294 154.605 149.311C155.448 149.363 156.286 149.479 157.112 149.657C160.164 150.315 163.002 151.728 165.366 153.768C168.905 156.835 171.307 161.007 172.184 165.608C172.336 166.331 172.435 167.063 172.483 167.8C172.483 168.123 172.547 168.413 172.555 168.687C172.563 168.961 172.555 169.203 172.555 169.42C172.587 169.873 172.546 170.327 172.434 170.766Z" fill="#263238"/>
<path d="M159.104 174.009C159.151 175.076 158.786 176.12 158.086 176.927C157.386 177.734 156.403 178.241 155.34 178.345C154.826 178.377 154.312 178.304 153.827 178.13C153.342 177.957 152.898 177.687 152.521 177.336C152.144 176.986 151.842 176.562 151.634 176.091C151.426 175.62 151.316 175.112 151.31 174.597C151.266 173.531 151.631 172.488 152.331 171.681C153.031 170.875 154.012 170.367 155.074 170.261C155.588 170.229 156.103 170.302 156.588 170.476C157.072 170.649 157.517 170.92 157.894 171.27C158.27 171.621 158.572 172.044 158.78 172.515C158.988 172.986 159.099 173.494 159.104 174.009Z" fill="#263238"/>
<path d="M160.458 163.255C159.974 163.811 157 161.49 152.777 161.579C148.553 161.667 145.475 163.997 145.015 163.441C144.789 163.199 145.289 162.191 146.627 161.111C148.406 159.728 150.588 158.964 152.841 158.935C155.048 158.897 157.203 159.61 158.951 160.958C160.257 162.006 160.7 162.997 160.458 163.255Z" fill="#263238"/>
<path d="M142.702 184.082C142.605 184.243 141.283 183.582 139.687 181.768C137.591 179.297 136.241 176.281 135.794 173.072C135.332 169.804 135.778 166.471 137.084 163.44C138.1 161.159 139.163 160.071 139.309 160.216C139.454 160.361 138.76 161.643 138.059 163.875C137.136 166.765 136.86 169.822 137.253 172.83C137.688 175.782 138.791 178.597 140.477 181.059C141.791 182.913 142.847 183.88 142.702 184.082Z" fill="white"/>
<path d="M147.869 187.306C147.842 187.431 147.777 187.544 147.683 187.631C147.589 187.717 147.471 187.773 147.345 187.79C146.954 187.865 146.549 187.794 146.208 187.588C145.848 187.399 145.564 187.092 145.402 186.718C145.34 186.603 145.312 186.473 145.322 186.343C145.332 186.213 145.38 186.088 145.459 185.984C145.781 185.694 146.362 185.872 146.902 186.154C147.442 186.436 147.901 186.863 147.869 187.306Z" fill="white"/>
<path d="M121.535 227.017C121.535 227.017 129.273 206.512 130.401 205.448C131.53 204.384 142.951 194.793 142.951 194.793C144.144 194.599 145.368 194.768 146.465 195.276C147.585 195.929 150.309 200.233 151.398 201.998C151.544 202.237 151.641 202.503 151.684 202.779C151.727 203.056 151.714 203.339 151.647 203.61L150.406 207.64C150.406 207.64 151.897 209.986 151.543 211.67C151.293 212.779 150.88 213.843 150.318 214.83C151.078 216.298 151.262 217.997 150.833 219.593C150.253 221.09 149.131 222.313 147.69 223.019C147.69 223.019 146.803 227.291 146.691 228.097C146.578 228.903 142.37 230.821 141.935 230.7C141.5 230.579 138.437 229.273 138.437 229.273C138.437 229.273 137.019 236.157 135.245 237.712C134.061 238.676 132.653 239.324 131.151 239.598L128.959 250.568L115.361 240.187L121.535 227.017Z" fill="#FFBF9D"/>
<path d="M140.283 220.844C141.542 221.146 142.779 221.536 143.983 222.012C145.22 222.394 146.436 222.841 147.626 223.35C146.345 223.144 145.091 222.798 143.886 222.319C142.643 221.936 141.438 221.442 140.283 220.844Z" fill="#FF9A6C"/>
<path d="M140.389 212.285C140.903 212.298 141.414 212.368 141.912 212.495C142.847 212.68 144.129 212.97 145.523 213.349C146.917 213.728 148.175 214.155 149.069 214.469C149.563 214.618 150.039 214.82 150.488 215.074C149.983 214.987 149.487 214.858 149.005 214.687C148.094 214.421 146.837 214.05 145.442 213.663C144.048 213.277 142.783 212.954 141.872 212.72C141.364 212.626 140.867 212.48 140.389 212.285Z" fill="#FF9A6C"/>
<path d="M138.914 205.619C139.475 205.539 140.043 205.525 140.607 205.579C141.959 205.631 143.306 205.782 144.637 206.03C145.975 206.276 147.295 206.615 148.586 207.046C149.134 207.198 149.661 207.414 150.158 207.691C149.61 207.59 149.071 207.447 148.546 207.264C147.546 206.99 146.128 206.635 144.596 206.345C143.065 206.055 141.622 205.901 140.566 205.805C140.012 205.783 139.46 205.721 138.914 205.619Z" fill="#FF9A6C"/>
<path d="M147.425 206.674C147.058 205.717 146.944 204.682 147.094 203.668C146.638 203.715 146.178 203.658 145.747 203.504C145.316 203.349 144.925 203.099 144.604 202.773C143.886 203.676 142.927 204.925 142.186 205.828L147.425 206.674Z" fill="#455A64"/>
<path d="M147.627 223.875L151.609 271.066C151.609 271.066 158.927 318.386 158.387 321.731C157.847 325.076 151.286 341.39 151.286 341.39C179.609 352.843 222.085 357.316 259.903 340.334L250.352 318.37L260.991 220.111L222.504 206.965C222.504 206.965 220.183 220.989 201.742 219.434C183.301 217.878 183.631 207.698 183.631 207.698L150.915 217.056L147.627 223.875Z" fill="#455A64"/>
<path d="M293.924 319.886C293.924 319.886 270.397 220.845 259.999 220.039L252.197 295.158L266.915 337.07C276.958 331.855 286.178 326.213 293.924 319.886Z" fill="#455A64"/>
<path d="M258.394 238.949C258.515 238.949 257.484 250.902 256.089 265.62C254.695 280.337 253.486 292.266 253.365 292.258C253.244 292.25 254.284 280.305 255.67 265.579C257.057 250.854 258.282 238.933 258.394 238.949Z" fill="#263238"/>
<path d="M148.135 238.094C148.186 238.264 148.216 238.44 148.223 238.618C148.272 239.005 148.336 239.504 148.409 240.133C148.554 241.495 148.764 243.357 149.013 245.694C149.513 250.401 150.182 256.898 151.004 264.055C151.826 271.212 152.681 277.701 153.358 282.375C153.704 284.681 153.978 286.559 154.164 287.913L154.381 289.42C154.419 289.595 154.435 289.773 154.43 289.952C154.37 289.785 154.326 289.612 154.301 289.436C154.22 289.049 154.123 288.557 154.003 287.945C153.753 286.647 153.43 284.761 153.051 282.424C152.294 277.749 151.439 271.277 150.577 264.103C149.715 256.93 149.126 250.401 148.699 245.727C148.506 243.405 148.344 241.511 148.232 240.141C148.191 239.52 148.151 239.013 148.127 238.626C148.106 238.449 148.109 238.27 148.135 238.094Z" fill="#263238"/>
<path d="M179.383 210.078L183.147 204.065L202.958 220.073L222.326 201.172L228.5 208.982L205.054 234.105L179.383 210.078Z" fill="#455A64"/>
<path d="M202.305 221.466C202.273 221.792 202.216 222.115 202.136 222.433C201.999 223.054 201.789 223.964 201.475 225.093C200.602 228.176 199.475 231.182 198.106 234.08L197.969 234.378L197.775 234.112C196.163 231.936 194.455 229.542 192.593 227.035C188.966 222.143 185.605 217.774 183.155 214.615L180.253 210.883L179.447 209.859C179.27 209.617 179.181 209.489 179.197 209.48C179.313 209.576 179.419 209.684 179.512 209.803L180.318 210.778C181.035 211.633 182.067 212.882 183.324 214.437C185.831 217.54 189.232 221.893 192.867 226.785C194.729 229.292 196.47 231.694 198.025 233.886H197.695C199.074 231.02 200.24 228.057 201.185 225.02C201.531 223.9 201.781 223.005 201.991 222.393C202.071 222.076 202.176 221.766 202.305 221.466Z" fill="#263238"/>
<path d="M227.549 210.036C227.505 210.161 227.445 210.28 227.372 210.39L226.808 211.365C226.3 212.171 225.55 213.405 224.559 214.855C221.987 218.631 219.142 222.214 216.047 225.575C213.992 227.8 211.945 229.807 210.091 231.507L209.954 231.628L209.825 231.499C207.976 229.601 206.434 227.425 205.255 225.051C204.836 224.181 204.546 223.439 204.369 222.988C204.268 222.74 204.19 222.484 204.135 222.222C204.276 222.448 204.392 222.689 204.481 222.94C204.691 223.415 205.013 224.1 205.457 224.947C206.685 227.27 208.249 229.399 210.099 231.266H209.833C211.671 229.557 213.694 227.542 215.733 225.325C218.814 221.976 221.681 218.436 224.317 214.727C225.333 213.3 226.122 212.131 226.671 211.317L227.291 210.366C227.452 210.132 227.533 210.028 227.549 210.036Z" fill="#263238"/>
<path d="M203.2 349.234C203.087 349.234 202.99 321.298 202.99 286.849C202.99 252.401 203.087 224.465 203.2 224.465C203.313 224.465 203.409 252.393 203.409 286.849C203.409 321.306 203.313 349.234 203.2 349.234Z" fill="#263238"/>
<path d="M213.057 310.827C213.057 310.94 204.997 309.215 195.132 306.934C185.266 304.653 177.271 302.751 177.303 302.638C177.335 302.525 185.363 304.25 195.228 306.523C205.094 308.796 213.081 310.714 213.057 310.827Z" fill="#263238"/>
<path d="M121.035 302.692C120.963 302.644 121.841 301.669 122.776 299.863C123.338 298.804 123.8 297.695 124.155 296.551C125.033 293.743 125.275 290.775 124.864 287.862C124.706 286.676 124.437 285.507 124.058 284.372C123.405 282.429 122.728 281.333 122.801 281.293C123.001 281.518 123.17 281.771 123.3 282.043C123.488 282.341 123.652 282.654 123.792 282.978C124 283.399 124.183 283.832 124.34 284.275C124.769 285.417 125.08 286.6 125.267 287.805C125.482 289.286 125.536 290.786 125.428 292.279C125.288 293.77 124.991 295.242 124.542 296.671C124.16 297.832 123.66 298.95 123.05 300.008C122.821 300.416 122.57 300.811 122.301 301.193C122.106 301.475 121.893 301.744 121.664 301.999C121.269 302.475 121.06 302.716 121.035 302.692Z" fill="#263238"/>
<path d="M306.498 186.992C306.103 194.611 308.026 202.171 312.015 208.674C316.004 215.177 321.87 220.318 328.841 223.419C335.812 226.52 343.558 227.435 351.059 226.043C358.561 224.651 365.463 221.018 370.857 215.623C376.251 210.228 379.883 203.324 381.273 195.823C382.664 188.321 381.747 180.575 378.644 173.605C375.542 166.635 370.399 160.769 363.895 156.782C357.391 152.795 349.831 150.873 342.212 151.27C332.896 151.756 324.09 155.675 317.495 162.272C310.899 168.869 306.982 177.676 306.498 186.992Z" fill="white"/>
<path d="M306.281 188.863C306.281 188.863 306.281 188.653 306.281 188.25C306.281 187.847 306.281 187.218 306.337 186.453L306.386 185.131C306.434 184.639 306.523 184.115 306.603 183.519C306.75 182.194 306.995 180.882 307.337 179.594C308.187 176.031 309.579 172.619 311.464 169.478C314.202 164.852 317.891 160.86 322.287 157.765C326.683 154.671 331.686 152.545 336.965 151.529C338.562 151.228 340.178 151.039 341.801 150.965C342.607 150.965 343.413 150.852 344.276 150.86L346.791 150.981C347.218 150.981 347.645 150.981 348.064 151.061L349.329 151.255C350.176 151.392 351.038 151.488 351.892 151.666C353.613 152.046 355.306 152.539 356.962 153.141C358.655 153.751 360.303 154.478 361.895 155.317C362.701 155.752 363.507 156.26 364.265 156.727C365.068 157.208 365.836 157.747 366.562 158.339C368.081 159.463 369.524 160.685 370.882 161.999C372.222 163.384 373.468 164.857 374.614 166.408C376.983 169.583 378.823 173.122 380.062 176.886C382.685 184.674 382.685 193.107 380.062 200.896C378.825 204.659 376.988 208.198 374.622 211.374C373.476 212.924 372.226 214.394 370.882 215.775C369.529 217.093 368.088 218.318 366.57 219.442C365.841 220.022 365.07 220.547 364.265 221.014C363.459 221.49 362.701 221.997 361.895 222.425C358.723 224.072 355.349 225.299 351.86 226.076C351.006 226.253 350.143 226.35 349.297 226.487L348.032 226.68C347.613 226.737 347.185 226.729 346.758 226.761L344.244 226.882C343.438 226.882 342.591 226.809 341.769 226.777C340.146 226.699 338.53 226.508 336.933 226.205C331.646 225.192 326.635 223.068 322.231 219.972C317.828 216.876 314.133 212.879 311.391 208.247C309.511 205.102 308.122 201.688 307.272 198.124C306.93 196.838 306.685 195.529 306.539 194.206C306.458 193.634 306.37 193.102 306.321 192.594L306.273 191.273C306.273 190.467 306.273 189.902 306.216 189.475C306.16 189.048 306.216 188.863 306.216 188.863C306.216 188.863 306.216 189.072 306.281 189.475C306.345 189.878 306.353 190.499 306.402 191.265C306.402 191.66 306.458 192.071 306.482 192.578C306.507 193.086 306.644 193.586 306.724 194.15C306.9 195.465 307.17 196.766 307.53 198.043C308.416 201.567 309.829 204.936 311.721 208.037C314.462 212.599 318.136 216.53 322.504 219.571C326.871 222.612 331.833 224.694 337.062 225.681C338.628 225.969 340.211 226.149 341.801 226.221C342.607 226.221 343.413 226.334 344.219 226.318L346.694 226.189C347.113 226.189 347.5 226.189 347.943 226.108L349.192 225.915C349.998 225.778 350.877 225.681 351.715 225.503C353.409 225.126 355.076 224.636 356.704 224.037C358.379 223.433 360.011 222.716 361.589 221.893C362.395 221.457 363.136 220.958 363.918 220.498C364.707 220.036 365.462 219.516 366.175 218.943C369.234 216.746 371.908 214.058 374.09 210.987C376.424 207.869 378.237 204.393 379.458 200.695C382.037 193.037 382.037 184.745 379.458 177.087C378.241 173.386 376.437 169.906 374.114 166.778C372.988 165.254 371.763 163.805 370.447 162.442C369.111 161.147 367.692 159.941 366.199 158.831C365.484 158.26 364.73 157.74 363.942 157.276C363.136 156.808 362.403 156.308 361.613 155.881C360.038 155.051 358.406 154.334 356.728 153.737C355.1 153.138 353.433 152.648 351.739 152.27C350.933 152.093 350.055 151.996 349.225 151.859L347.975 151.666C347.556 151.609 347.169 151.609 346.718 151.585L344.244 151.456C343.438 151.456 342.632 151.521 341.826 151.545C340.235 151.62 338.652 151.803 337.086 152.093C331.86 153.076 326.9 155.155 322.535 158.193C318.17 161.231 314.498 165.16 311.762 169.72C309.869 172.821 308.456 176.191 307.571 179.715C307.211 180.989 306.942 182.287 306.765 183.6C306.684 184.172 306.579 184.696 306.523 185.212C306.466 185.727 306.466 186.13 306.442 186.525C306.394 187.288 306.353 187.885 306.321 188.315C306.281 188.653 306.281 188.863 306.281 188.863Z" fill="#263238"/>
<path d="M362.637 177.07H328.664V206.038H362.637V177.07Z" fill="#E0E0E0"/>
<path d="M362.637 206.04C362.637 206.04 362.637 205.847 362.637 205.492C362.637 205.137 362.637 204.597 362.637 203.936C362.637 202.558 362.637 200.567 362.589 198.045C362.589 192.975 362.541 185.761 362.5 177.089L362.678 177.266H328.713C328.776 177.193 328.844 177.123 328.914 177.056V184.802C328.914 187.344 328.914 189.831 328.914 192.265C328.914 197.101 328.914 201.736 328.914 206.016L328.729 205.83L353.247 205.927L360.203 205.976H362.049H362.702H362.557H362.097H360.284L353.368 206.024L328.729 206.113H328.544V205.927C328.544 201.647 328.544 197.061 328.544 192.177C328.544 189.743 328.544 187.255 328.544 184.713V177.08C328.358 177.266 328.802 176.823 328.761 176.871H362.726H362.903V177.048C362.863 185.785 362.831 193.039 362.815 198.133C362.815 200.64 362.815 202.615 362.766 203.985C362.766 204.635 362.766 205.143 362.766 205.508C362.653 205.879 362.637 206.04 362.637 206.04Z" fill="#263238"/>
<path d="M332.178 186.992H330.671C329.585 186.992 328.543 186.561 327.775 185.793C327.008 185.025 326.576 183.984 326.576 182.898V176.176H336.248V182.898C336.248 183.98 335.82 185.017 335.057 185.785C334.295 186.552 333.26 186.986 332.178 186.992Z" fill="#46B2C8"/>
<path d="M332.177 186.994C332.177 186.954 332.531 186.994 333.136 186.808C333.99 186.576 334.747 186.076 335.296 185.382C335.669 184.887 335.922 184.314 336.038 183.705C336.111 182.972 336.129 182.233 336.094 181.497C336.094 179.885 336.094 178.12 336.094 176.218L336.295 176.419H326.623L326.825 176.218C326.825 178.313 326.825 180.248 326.825 182.053C326.825 182.488 326.825 182.932 326.825 183.318C326.864 183.705 326.956 184.085 327.099 184.447C327.363 185.082 327.788 185.638 328.332 186.059C329.134 186.673 330.128 186.984 331.137 186.937C331.506 186.931 331.876 186.955 332.241 187.01C331.876 187.065 331.506 187.089 331.137 187.082C330.083 187.185 329.028 186.898 328.171 186.276C327.573 185.832 327.103 185.237 326.809 184.552C326.645 184.164 326.539 183.754 326.494 183.335C326.454 182.899 326.494 182.48 326.494 182.037C326.494 180.256 326.494 178.297 326.494 176.201V176H336.602V176.201C336.602 178.104 336.602 179.877 336.602 181.481C336.627 182.237 336.595 182.994 336.505 183.746C336.366 184.395 336.076 185.002 335.659 185.519C335.075 186.257 334.25 186.767 333.329 186.962C333.088 187.012 332.842 187.039 332.596 187.042L332.177 186.994Z" fill="#263238"/>
<path d="M341.801 186.992H340.286C339.201 186.99 338.16 186.558 337.393 185.791C336.626 185.023 336.194 183.983 336.191 182.898V176.176H345.863V182.898C345.861 183.978 345.434 185.013 344.673 185.779C343.913 186.546 342.881 186.982 341.801 186.992Z" fill="#46B2C8"/>
<path d="M341.801 186.991C341.801 186.951 342.148 186.991 342.752 186.806C343.616 186.567 344.377 186.051 344.92 185.339C345.292 184.843 345.548 184.27 345.67 183.662C345.739 182.928 345.758 182.191 345.726 181.454C345.726 179.842 345.726 178.077 345.726 176.175L345.928 176.376H336.256L336.465 176.175C336.465 178.27 336.465 180.205 336.465 182.01C336.465 182.445 336.465 182.889 336.465 183.276C336.502 183.662 336.591 184.042 336.731 184.404C337.001 185.036 337.425 185.591 337.965 186.016C338.768 186.628 339.761 186.939 340.77 186.894C341.142 186.888 341.514 186.913 341.882 186.967C341.514 187.021 341.142 187.046 340.77 187.04C339.716 187.141 338.661 186.854 337.803 186.234C337.205 185.789 336.735 185.194 336.441 184.509C336.285 184.118 336.179 183.709 336.127 183.292C336.127 182.856 336.127 182.437 336.127 181.994C336.127 180.213 336.127 178.254 336.127 176.159V175.957H346.097V176.159C346.097 178.061 346.097 179.834 346.097 181.438C346.124 182.194 346.089 182.952 345.992 183.703C345.866 184.348 345.59 184.956 345.186 185.476C344.6 186.216 343.773 186.726 342.849 186.919C342.608 186.97 342.362 186.997 342.116 186.999C342.011 187.014 341.905 187.011 341.801 186.991Z" fill="#263238"/>
<path d="M351.416 186.992H349.909C348.823 186.992 347.782 186.561 347.014 185.793C346.246 185.025 345.814 183.984 345.814 182.898V176.176H355.486V182.898C355.486 183.98 355.058 185.017 354.296 185.785C353.533 186.552 352.498 186.986 351.416 186.992Z" fill="#46B2C8"/>
<path d="M351.417 186.995C351.417 186.954 351.764 186.995 352.376 186.809C353.239 186.568 354 186.053 354.544 185.342C354.917 184.848 355.171 184.274 355.286 183.666C355.359 182.932 355.378 182.194 355.342 181.457C355.342 179.845 355.342 178.08 355.342 176.178L355.544 176.38H345.872L346.073 176.178C346.073 178.274 346.073 180.208 346.073 182.014C346.073 182.449 346.073 182.892 346.073 183.279C346.109 183.666 346.199 184.045 346.339 184.407C346.608 185.042 347.036 185.597 347.58 186.019C348.38 186.632 349.371 186.943 350.377 186.898C350.726 186.903 351.073 186.935 351.417 186.995C351.049 187.05 350.677 187.074 350.305 187.067C349.407 187.157 348.505 186.96 347.727 186.503C346.949 186.047 346.336 185.355 345.977 184.528C345.819 184.139 345.716 183.729 345.67 183.311C345.63 182.876 345.67 182.457 345.67 182.014C345.67 180.232 345.67 178.274 345.67 176.178V175.977H355.778V176.178C355.778 178.08 355.778 179.853 355.778 181.457C355.803 182.214 355.771 182.971 355.681 183.722C355.542 184.372 355.252 184.979 354.834 185.495C354.25 186.234 353.426 186.744 352.505 186.938C352.264 186.989 352.018 187.016 351.772 187.019L351.417 186.995Z" fill="#263238"/>
<path d="M361.041 186.992H359.526C358.441 186.99 357.401 186.558 356.633 185.791C355.866 185.023 355.434 183.983 355.432 182.898V176.176H365.104V182.898C365.102 183.978 364.674 185.013 363.913 185.779C363.153 186.546 362.121 186.982 361.041 186.992Z" fill="#46B2C8"/>
<path d="M361.041 186.991C361.041 186.951 361.387 186.991 361.992 186.806C362.725 186.61 363.387 186.211 363.904 185.654C364.42 185.098 364.768 184.408 364.91 183.662C364.98 182.928 364.996 182.19 364.958 181.454C364.958 179.842 364.958 178.077 364.958 176.175L365.159 176.376H355.447L355.657 176.175C355.657 178.27 355.657 180.205 355.657 182.01C355.657 182.445 355.657 182.889 355.657 183.276C355.699 183.662 355.791 184.041 355.931 184.404C356.2 185.036 356.624 185.591 357.164 186.016C357.967 186.629 358.96 186.94 359.969 186.894C360.341 186.888 360.713 186.913 361.081 186.967C360.713 187.021 360.341 187.046 359.969 187.04C358.915 187.141 357.86 186.854 357.003 186.234C356.404 185.789 355.934 185.194 355.64 184.509C355.48 184.119 355.374 183.71 355.326 183.292C355.326 182.856 355.326 182.437 355.326 181.994C355.326 180.213 355.326 178.254 355.326 176.159V175.957H365.433V176.159C365.433 178.061 365.433 179.834 365.433 181.438C365.456 182.194 365.421 182.952 365.329 183.703C365.193 184.353 364.903 184.961 364.482 185.476C363.898 186.214 363.074 186.725 362.153 186.919C361.912 186.97 361.666 186.997 361.42 186.999C361.294 187.022 361.165 187.019 361.041 186.991Z" fill="#263238"/>
<path d="M358.533 190.668H349.055V206.046H358.533V190.668Z" fill="white"/>
<path d="M358.534 190.669C358.573 191.03 358.589 191.394 358.583 191.757C358.583 192.563 358.583 193.595 358.639 194.909C358.639 197.689 358.696 201.542 358.736 206.039V206.233H358.534H349.064C349.104 206.281 348.661 205.838 348.846 206.023V204.951C348.846 204.597 348.846 204.234 348.846 203.879V201.768C348.846 200.373 348.846 199.027 348.846 197.738C348.846 195.15 348.846 192.773 348.846 190.677V190.508H349.016L355.979 190.596H357.857C358.068 190.59 358.278 190.604 358.486 190.637C358.255 190.65 358.024 190.65 357.793 190.637L355.875 190.677L349.016 190.766L349.177 190.605C349.177 192.7 349.177 195.078 349.177 197.665C349.177 198.963 349.177 200.309 349.177 201.695V203.92C349.177 204.274 349.177 204.637 349.177 204.992V206.064L348.967 205.854H358.438L358.244 206.047C358.285 201.598 358.317 197.794 358.341 195.038C358.341 193.716 358.381 192.62 358.397 191.814C358.397 191.475 358.397 191.193 358.397 190.951C358.397 190.709 358.534 190.677 358.534 190.669Z" fill="#263238"/>
<path d="M342.462 189.984H333.975V200.438H342.462V189.984Z" fill="white"/>
<path d="M342.462 200.436C342.427 200.169 342.411 199.9 342.414 199.63C342.414 199.074 342.414 198.349 342.366 197.47C342.366 195.632 342.285 193.045 342.269 189.974L342.454 190.16H333.975L334.185 189.95V191.377C334.185 191.852 334.185 192.32 334.185 192.787V195.495C334.185 197.252 334.185 198.897 334.185 200.396L334.015 200.219L340.117 200.315H341.858C342.073 200.314 342.289 200.327 342.503 200.356C342.312 200.374 342.121 200.374 341.93 200.356L340.23 200.404C338.755 200.404 336.611 200.468 334.015 200.493H333.838V200.315C333.838 198.816 333.838 197.172 333.838 195.415C333.838 194.536 333.838 193.634 333.838 192.707V189.87C333.645 190.055 334.088 189.612 334.048 189.66H342.527H342.72V189.845C342.72 192.997 342.656 195.632 342.624 197.462C342.624 198.324 342.624 199.074 342.575 199.582C342.557 199.869 342.52 200.154 342.462 200.436Z" fill="#263238"/>
<path d="M357.211 196.254H355.801V200.445H357.211V196.254Z" fill="#E0E0E0"/>
<path d="M118.926 135.346C139.6 132.749 154.255 113.884 151.658 93.2092C149.061 72.5347 130.195 57.88 109.521 60.4771C88.846 63.0743 74.1913 81.9398 76.7885 102.614C79.3856 123.289 98.2511 137.944 118.926 135.346Z" fill="white"/>
<path d="M76.498 97.911C76.498 97.911 76.498 97.7095 76.498 97.2984C76.498 96.8874 76.498 96.2829 76.5625 95.5091C76.5625 95.1061 76.5625 94.7031 76.6189 94.1792C76.6754 93.6553 76.764 93.1717 76.8366 92.5672C76.9091 91.9627 77.0139 91.3743 77.1106 90.7215C77.234 90.0234 77.3927 89.332 77.5861 88.6501C78.449 85.1039 79.8459 81.7094 81.729 78.5831C84.1963 74.4074 87.4478 70.7482 91.3043 67.8069L92.9163 66.5818C93.4885 66.203 94.093 65.8483 94.6895 65.4776C95.2859 65.1068 95.8823 64.6716 96.5352 64.4056L98.5018 63.4545L99.5013 62.979L100.549 62.5921L102.685 61.7861C103.402 61.5443 104.16 61.3831 104.91 61.1816C105.663 60.9577 106.43 60.7827 107.207 60.6577C108.787 60.3583 110.387 60.1698 111.994 60.0935C112.8 60.0935 113.606 59.9806 114.469 59.9887L116.975 60.1177C117.394 60.1177 117.822 60.1177 118.241 60.1902L119.506 60.3836C120.312 60.5207 121.207 60.6174 122.061 60.7947C123.777 61.1738 125.465 61.6665 127.115 62.2697L128.38 62.7291L129.009 62.9628L129.613 63.2611L132.031 64.4378C132.837 64.8731 133.595 65.3728 134.393 65.8483C134.78 66.0901 135.199 66.3077 135.562 66.5818L136.682 67.3878C138.22 68.5243 139.679 69.7629 141.051 71.0954L142.985 73.2151L143.469 73.7552L143.904 74.3274L144.774 75.4881L145.645 76.6568L146.451 77.9061L147.216 79.1554L147.595 79.7921C147.716 80.0097 147.813 80.2354 147.926 80.453C148.353 81.3396 148.78 82.2343 149.215 83.129C149.651 84.0236 149.9 84.9989 150.247 85.9338C151.494 89.8062 152.154 93.8433 152.206 97.911C152.158 101.976 151.498 106.011 150.247 109.88C149.9 110.823 149.562 111.758 149.215 112.693C148.869 113.628 148.353 114.482 147.926 115.369L147.603 116.03L147.216 116.659L146.459 117.916L145.693 119.165L144.815 120.334L143.944 121.495L143.509 122.075L143.025 122.607L141.051 124.727C139.695 126.037 138.255 127.257 136.738 128.378L135.626 129.184C135.255 129.466 134.82 129.675 134.449 129.925C133.643 130.393 132.886 130.901 132.088 131.336L129.67 132.513L129.065 132.803C128.856 132.891 128.646 132.964 128.437 133.036L127.171 133.496C125.521 134.098 123.833 134.591 122.118 134.971C121.263 135.148 120.409 135.245 119.563 135.382L118.297 135.575C117.878 135.632 117.491 135.624 117.032 135.656L114.525 135.777C113.719 135.777 112.865 135.712 112.051 135.68C110.444 135.6 108.844 135.412 107.263 135.116C106.487 134.984 105.72 134.807 104.966 134.584C104.216 134.382 103.459 134.229 102.733 133.979L100.606 133.173L99.5577 132.787L98.5583 132.311L96.5916 131.36C95.9388 131.062 95.3584 130.635 94.7459 130.288C94.1333 129.941 93.5449 129.571 92.9727 129.192L91.3607 127.967C87.5017 125.025 84.2499 121.362 81.7854 117.182C79.9023 114.048 78.508 110.646 77.6506 107.091C77.4894 106.358 77.2476 105.681 77.1751 105.02C77.1025 104.359 76.9897 103.746 76.901 103.174C76.8124 102.602 76.7318 102.07 76.6834 101.562C76.6351 101.054 76.6834 100.635 76.627 100.24C76.627 99.4343 76.5786 98.8621 76.5625 98.443C76.5464 98.0238 76.5625 97.8304 76.5625 97.8304C76.5625 97.8304 76.5625 98.04 76.6109 98.443C76.6592 98.846 76.6754 99.4585 76.7237 100.232C76.7237 100.627 76.7721 101.038 76.7963 101.554C76.8204 102.07 76.9494 102.562 77.0381 103.166C77.1267 103.771 77.2234 104.351 77.3282 105.004C77.4544 105.7 77.6185 106.389 77.8199 107.067C78.6963 110.596 80.1041 113.972 81.995 117.078C84.4633 121.213 87.7063 124.834 91.5461 127.741L93.1581 128.958C93.7303 129.329 94.3268 129.675 94.9232 130.038C95.5196 130.401 96.108 130.844 96.7528 131.102L98.7033 132.037L99.6947 132.505L100.743 132.883L102.854 133.689C103.572 133.923 104.321 134.076 105.063 134.278C105.81 134.494 106.568 134.667 107.336 134.794C108.906 135.088 110.495 135.271 112.091 135.342C112.897 135.342 113.703 135.454 114.509 135.438L117 135.309C117.411 135.309 117.806 135.309 118.249 135.229L119.506 135.035C120.312 134.898 121.191 134.802 122.029 134.632C123.728 134.253 125.401 133.76 127.034 133.157L128.284 132.706L128.904 132.472L129.509 132.182L131.927 131.005C132.733 130.578 133.474 130.078 134.264 129.611C134.643 129.369 135.07 129.16 135.425 128.878L136.529 128.072C138.025 126.959 139.446 125.75 140.785 124.453C141.413 123.749 142.05 123.047 142.695 122.349L143.17 121.817L143.606 121.245L144.46 120.1L145.322 118.94L146.08 117.706L146.838 116.465L147.216 115.844L147.531 115.184L148.812 112.54L149.828 109.759C151.062 105.932 151.714 101.94 151.762 97.9191C151.712 93.8979 151.06 89.907 149.828 86.0789L148.804 83.2982C148.377 82.4116 147.998 81.5331 147.531 80.6545C147.426 80.4369 147.321 80.2112 147.208 79.9936L146.83 79.373L146.08 78.1318L145.322 76.8986L144.444 75.7621L143.581 74.6176L143.154 74.0453L142.671 73.5134L140.768 71.4178C139.43 70.1178 138.005 68.9087 136.505 67.7988L135.401 66.9928C135.038 66.7188 134.595 66.5092 134.24 66.2594C133.434 65.7919 132.7 65.2922 131.902 64.865L129.484 63.6963L128.88 63.4061C128.678 63.3175 128.461 63.253 128.259 63.1724L127.01 62.713C125.375 62.1162 123.703 61.6262 122.005 61.2461C121.199 61.0687 120.312 60.972 119.482 60.835L118.225 60.6416C117.814 60.5851 117.419 60.5932 116.975 60.561L114.493 60.432C113.687 60.432 112.881 60.5045 112.075 60.5287C110.482 60.6032 108.896 60.7863 107.328 61.0768C106.56 61.2029 105.801 61.3752 105.055 61.5926C104.313 61.7941 103.555 61.9473 102.838 62.1891L100.726 62.9951L99.6867 63.3739L98.6953 63.8494L96.7206 64.6877C96.0677 64.9778 95.4955 65.405 94.8829 65.7435C94.2703 66.0821 93.69 66.4528 93.1178 66.8316L91.5058 68.0406C87.6636 70.9476 84.418 74.5682 81.9466 78.704C80.0542 81.8121 78.6463 85.1904 77.7715 88.7226C77.5693 89.3979 77.4051 90.0841 77.2799 90.7779C77.1778 91.4334 77.081 92.046 76.9897 92.6156C76.901 93.1878 76.8043 93.7117 76.7479 94.2276C76.6915 94.7434 76.6995 95.1464 76.6754 95.5414L76.5706 97.2984C76.5222 97.7095 76.498 97.911 76.498 97.911Z" fill="#263238"/>
<path d="M116.87 99.5641C118.118 99.0125 119.177 98.1083 119.917 96.9627C120.658 95.8171 121.047 94.48 121.037 93.1161C121.095 92.2207 120.97 91.323 120.668 90.4781C120.366 89.6332 119.895 88.859 119.282 88.203C118.67 87.5471 117.931 87.0233 117.108 86.6639C116.286 86.3046 115.399 86.1172 114.502 86.1133C113.605 86.1095 112.717 86.2892 111.892 86.6415C111.066 86.9938 110.322 87.5112 109.704 88.1619C109.087 88.8125 108.609 89.5827 108.3 90.425C107.991 91.2673 107.857 92.1639 107.907 93.0596C107.884 94.44 108.268 95.7966 109.012 96.9594C109.756 98.1222 110.827 99.0395 112.091 99.5963C101.991 101.12 102.419 112.097 102.419 112.097L126.308 112.21C126.308 112.21 126.857 101.071 116.87 99.5641Z" fill="#FF5454"/>
<path d="M131.66 92.1093C132.442 91.7661 133.105 91.2015 133.569 90.4853C134.033 89.7691 134.278 88.9327 134.272 88.0793C134.307 87.5179 134.227 86.9551 134.036 86.4259C133.845 85.8966 133.548 85.412 133.163 85.002C132.778 84.5919 132.313 84.2651 131.797 84.0418C131.28 83.8184 130.724 83.7031 130.161 83.7031C129.598 83.7031 129.042 83.8184 128.526 84.0418C128.009 84.2651 127.544 84.5919 127.159 85.002C126.774 85.412 126.477 85.8966 126.286 86.4259C126.095 86.9551 126.015 87.5179 126.05 88.0793C126.033 88.9434 126.273 89.7931 126.739 90.5207C127.205 91.2483 127.878 91.8209 128.67 92.1657C122.343 93.1249 122.625 100 122.625 100L137.592 100.065C137.592 100.065 137.931 93.0604 131.66 92.1093Z" fill="#FF5454"/>
<path d="M99.8867 92.1093C100.668 91.7661 101.332 91.2015 101.796 90.4853C102.26 89.7691 102.504 88.9327 102.498 88.0793C102.533 87.5179 102.453 86.9551 102.262 86.4259C102.072 85.8966 101.775 85.412 101.39 85.002C101.004 84.5919 100.539 84.2651 100.023 84.0418C99.5067 83.8184 98.9501 83.7031 98.3875 83.7031C97.8249 83.7031 97.2683 83.8184 96.752 84.0418C96.2357 84.2651 95.7707 84.5919 95.3855 85.002C95.0003 85.412 94.7033 85.8966 94.5126 86.4259C94.3219 86.9551 94.2417 87.5179 94.2769 88.0793C94.2594 88.9434 94.4991 89.7931 94.9655 90.5207C95.4319 91.2483 96.104 91.8209 96.8964 92.1657C90.5693 93.1249 90.8595 100 90.8595 100L105.819 100.065C105.819 100.065 106.157 93.0604 99.8867 92.1093Z" fill="#FF5454"/>
<path d="M299.396 81.9837C304.281 61.7274 291.821 41.346 271.565 36.4605C251.308 31.5749 230.927 44.0353 226.041 64.2916C221.156 84.5478 233.616 104.929 253.872 109.815C274.129 114.7 294.51 102.24 299.396 81.9837Z" fill="white"/>
<path d="M224.985 73.1288C224.985 73.1288 224.985 72.9273 224.985 72.5162C224.985 72.1052 225.026 71.4926 225.05 70.7189C225.05 70.3239 225.05 69.9129 225.098 69.397C225.147 68.8812 225.235 68.3815 225.316 67.785C225.462 66.4628 225.707 65.1534 226.049 63.8679C226.896 60.3024 228.285 56.8882 230.168 53.7445C232.91 49.1121 236.605 45.1154 241.008 42.0195C245.412 38.9235 250.423 36.799 255.71 35.7868C257.307 35.4833 258.923 35.292 260.546 35.2146C261.352 35.2146 262.158 35.1017 263.021 35.1098L265.535 35.2387C265.954 35.2387 266.382 35.2387 266.809 35.3113L268.074 35.5047C268.921 35.6417 269.783 35.7385 270.629 35.9158C274.121 36.6907 277.498 37.9181 280.672 39.567C281.478 39.9941 282.244 40.5019 283.042 40.9775C283.844 41.4602 284.612 41.9989 285.339 42.5895C286.858 43.7155 288.301 44.9406 289.659 46.2568C290.997 47.633 292.241 49.0979 293.383 50.6414C295.749 53.819 297.589 57.357 298.831 61.1194C300.085 65.0013 300.748 69.0497 300.798 73.1288C300.747 77.2052 300.084 81.2508 298.831 85.1301C297.592 88.8936 295.752 92.4319 293.383 95.6082C292.237 97.1586 290.991 98.6314 289.651 100.017C288.293 101.331 286.85 102.553 285.331 103.676C284.605 104.268 283.837 104.807 283.034 105.288C282.228 105.756 281.47 106.263 280.664 106.699C279.044 107.519 277.369 108.224 275.651 108.81C273.993 109.416 272.296 109.912 270.573 110.293C269.727 110.463 268.864 110.559 268.018 110.696L266.752 110.89C266.325 110.946 265.898 110.946 265.479 110.971L262.964 111.091C262.158 111.091 261.304 111.019 260.49 110.995C258.867 110.914 257.251 110.723 255.654 110.422C250.366 109.41 245.354 107.284 240.95 104.187C236.547 101.089 232.852 97.0909 230.112 92.4567C228.23 89.3151 226.841 85.9038 225.993 82.3414C225.651 81.053 225.406 79.741 225.26 78.4162C225.179 77.8439 225.082 77.32 225.042 76.8042C225.002 76.2883 225.042 75.8773 224.994 75.4823C224.994 74.6763 224.945 74.1202 224.929 73.6849C224.913 73.2497 224.929 73.0724 224.929 73.0724C224.929 73.0724 224.929 73.2819 224.994 73.6849C225.058 74.0879 225.058 74.7086 225.114 75.4743C225.114 75.8692 225.163 76.2803 225.195 76.7961C225.227 77.3119 225.348 77.7955 225.437 78.4081C225.61 79.7211 225.879 81.0196 226.243 82.293C227.125 85.8164 228.535 89.186 230.426 92.2874C233.163 96.8489 236.836 100.778 241.203 103.817C245.569 106.855 250.53 108.933 255.759 109.915C257.321 110.205 258.902 110.388 260.49 110.463C261.296 110.463 262.102 110.568 262.908 110.551L265.39 110.422C265.801 110.422 266.196 110.422 266.64 110.342L267.889 110.148C268.695 110.011 269.573 109.915 270.412 109.737C272.106 109.363 273.773 108.873 275.401 108.27C277.077 107.67 278.709 106.954 280.285 106.126C281.091 105.699 281.833 105.2 282.614 104.732C283.403 104.268 284.157 103.748 284.871 103.176C286.364 102.067 287.783 100.861 289.119 99.5656C290.435 98.2021 291.66 96.7536 292.786 95.2293C295.139 92.1129 296.973 88.6374 298.219 84.9367C299.449 81.1196 300.099 77.1391 300.145 73.1288C300.1 69.1184 299.451 65.1376 298.219 61.3209C297.002 57.6185 295.195 54.1373 292.867 51.0122C291.746 49.4841 290.52 48.0352 289.199 46.6759C287.868 45.3791 286.452 44.1727 284.96 43.065C284.245 42.4938 283.491 41.9739 282.703 41.5094C281.897 41.05 281.164 40.5503 280.374 40.115C277.25 38.4956 273.932 37.2822 270.5 36.5042C269.694 36.3349 268.816 36.2301 267.978 36.0931L266.728 35.8997C266.317 35.8432 265.922 35.8513 265.479 35.8191L263.004 35.6901C262.198 35.6901 261.392 35.7546 260.586 35.7868C258.996 35.8586 257.413 36.0391 255.847 36.3268C250.113 37.3891 244.71 39.7857 240.074 43.3229C236.237 46.2233 232.992 49.8321 230.515 53.9541C228.624 57.0555 227.214 60.4251 226.331 63.9485C225.967 65.2245 225.698 66.5257 225.525 67.8414C225.437 68.4056 225.332 68.9295 225.284 69.4534C225.235 69.9773 225.227 70.3723 225.203 70.7672C225.147 71.5732 225.106 72.1294 225.082 72.5646C225.058 72.9998 224.985 73.1288 224.985 73.1288Z" fill="#263238"/>
<path d="M279.013 58.1055H253.584V87.4116H279.013V58.1055Z" fill="#46B2C8"/>
<g opacity="0.3">
<path d="M279.013 58.1055H253.584V87.4116H279.013V58.1055Z" fill="black"/>
</g>
<path d="M263.625 58.1055H241.742V87.4116H263.625V58.1055Z" fill="#46B2C8"/>
<path d="M279.013 87.4047C278.882 87.2435 278.771 87.0677 278.682 86.8808L277.804 85.3171L274.636 79.5462L264.368 60.452C264.053 59.8717 263.747 59.2994 263.465 58.7594L263.86 58.6627C263.86 66.7227 263.811 73.8638 263.795 79.0948C263.795 81.6498 263.739 83.7293 263.723 85.2204C263.723 85.9055 263.723 86.4616 263.723 86.8324C263.721 87.0265 263.708 87.2203 263.682 87.4127C263.647 87.2215 263.633 87.0267 263.642 86.8324C263.642 86.4213 263.642 85.8652 263.642 85.2204C263.642 83.7293 263.602 81.6498 263.578 79.0948C263.578 73.8638 263.578 66.6824 263.513 58.6627C263.513 58.6071 263.535 58.5538 263.575 58.5145C263.614 58.4752 263.667 58.4531 263.723 58.4531C263.76 58.4555 263.797 58.4671 263.829 58.4867C263.862 58.5064 263.889 58.5336 263.908 58.566L264.811 60.2505L274.999 79.4172C276.264 81.8352 277.304 83.8341 278.045 85.2526C278.384 85.9135 278.65 86.4455 278.851 86.8646C278.922 87.0391 278.976 87.2199 279.013 87.4047Z" fill="#263238"/>
<path d="M279.013 58.1055C278.87 58.5187 278.694 58.9202 278.489 59.3064C278.134 60.0641 277.594 61.1522 276.917 62.5304C275.563 65.2144 273.621 68.8898 271.404 72.9117C269.188 76.9336 267.157 80.5606 265.674 83.1721L263.9 86.259C263.695 86.6467 263.46 87.0184 263.199 87.3713C263.353 86.9624 263.539 86.5662 263.755 86.1865L265.416 83.0189C266.834 80.3672 268.833 76.7241 271.058 72.7021L276.7 62.3853C277.393 61.1119 277.957 60.056 278.392 59.25C278.569 58.8529 278.777 58.4703 279.013 58.1055Z" fill="#263238"/>
<path d="M260.635 78.0547H255.162V84.3576H260.635V78.0547Z" fill="white"/>
<path d="M276.748 314.565C276.346 322.184 278.263 329.747 282.247 336.254C286.232 342.761 292.095 347.907 299.064 351.014C306.034 354.12 313.781 355.04 321.284 353.653C328.787 352.266 335.693 348.636 341.09 343.243C346.488 337.851 350.124 330.948 351.518 323.446C352.912 315.944 351.999 308.196 348.899 301.224C345.799 294.252 340.658 288.384 334.154 284.394C327.65 280.404 320.09 278.48 312.47 278.875C303.158 279.36 294.356 283.275 287.76 289.865C281.164 296.455 277.241 305.254 276.748 314.565Z" fill="white"/>
<path d="M276.7 316.523C276.7 316.523 276.7 316.322 276.7 315.911C276.7 315.5 276.7 314.887 276.756 314.113C276.756 313.718 276.756 313.307 276.813 312.792C276.869 312.276 276.95 311.776 277.022 311.18C277.168 309.857 277.416 308.547 277.764 307.262C278.607 303.696 279.996 300.281 281.883 297.139C284.621 292.506 288.315 288.508 292.717 285.412C297.12 282.316 302.13 280.192 307.417 279.181C309.013 278.878 310.629 278.687 312.253 278.609C313.059 278.609 313.865 278.496 314.735 278.504L317.25 278.633C317.669 278.633 318.096 278.633 318.515 278.706L319.789 278.899C320.595 279.036 321.489 279.133 322.344 279.31C324.064 279.69 325.758 280.183 327.414 280.785C329.116 281.397 330.775 282.124 332.379 282.961C333.185 283.389 333.991 283.896 334.748 284.372C335.551 284.84 336.318 285.365 337.045 285.944C338.566 287.068 340.009 288.293 341.365 289.611C342.707 290.992 343.954 292.462 345.097 294.012C347.467 297.188 349.307 300.726 350.546 304.49C353.163 312.279 353.163 320.711 350.546 328.5C349.303 332.263 347.463 335.8 345.097 338.978C343.952 340.529 342.705 342.002 341.365 343.387C340.008 344.701 338.564 345.923 337.045 347.047C336.317 347.635 335.549 348.174 334.748 348.659C333.942 349.126 333.136 349.634 332.33 350.069C330.728 350.908 329.069 351.632 327.365 352.237C325.71 352.842 324.016 353.337 322.295 353.72C321.441 353.889 320.579 353.986 319.732 354.123L318.467 354.317C318.048 354.373 317.621 354.373 317.194 354.397L314.679 354.518C313.873 354.518 313.026 354.446 312.204 354.421C310.581 354.34 308.966 354.149 307.368 353.849C302.082 352.835 297.072 350.709 292.67 347.611C288.268 344.514 284.574 340.516 281.834 335.883C279.948 332.744 278.559 329.332 277.716 325.768C277.368 324.481 277.12 323.168 276.974 321.843C276.902 321.271 276.805 320.747 276.765 320.231C276.724 319.715 276.724 319.304 276.708 318.909C276.708 318.143 276.668 317.547 276.652 317.112C276.636 316.676 276.652 316.499 276.652 316.499C276.652 316.499 276.652 316.709 276.716 317.112C276.781 317.515 276.789 318.135 276.837 318.901C276.837 319.296 276.894 319.707 276.918 320.223C276.942 320.739 277.079 321.222 277.159 321.795C277.333 323.107 277.602 324.406 277.965 325.679C278.844 329.204 280.255 332.574 282.149 335.674C284.885 340.234 288.557 344.163 292.922 347.201C297.287 350.239 302.246 352.318 307.473 353.301C309.039 353.591 310.622 353.774 312.212 353.849C313.018 353.849 313.824 353.954 314.63 353.938L317.105 353.809C317.524 353.809 317.911 353.809 318.362 353.728L319.612 353.535C320.418 353.398 321.288 353.301 322.126 353.124C325.582 352.359 328.924 351.154 332.072 349.537C332.878 349.11 333.62 348.61 334.402 348.143C335.192 347.678 335.949 347.158 336.666 346.587C339.718 344.387 342.389 341.703 344.573 338.64C346.899 335.513 348.706 332.032 349.925 328.331C352.499 320.67 352.499 312.377 349.925 304.715C348.708 301.015 346.904 297.534 344.581 294.407C343.455 292.882 342.23 291.434 340.914 290.07C339.578 288.775 338.16 287.569 336.666 286.46C335.953 285.887 335.199 285.367 334.41 284.904C333.604 284.445 332.87 283.945 332.08 283.51C330.502 282.686 328.87 281.97 327.196 281.366C325.567 280.769 323.9 280.279 322.207 279.899C321.401 279.729 320.522 279.625 319.692 279.488L318.443 279.294C318.024 279.238 317.637 279.246 317.194 279.214L314.711 279.085C313.905 279.085 313.099 279.149 312.293 279.181C310.703 279.254 309.119 279.434 307.554 279.721C302.329 280.709 297.371 282.789 293.007 285.827C288.642 288.865 284.969 292.791 282.229 297.349C280.335 300.448 278.925 303.818 278.046 307.343C277.683 308.619 277.414 309.92 277.24 311.236C277.159 311.8 277.055 312.324 276.998 312.848C276.942 313.372 276.942 313.767 276.918 314.162C276.869 314.927 276.829 315.524 276.797 315.959C276.765 316.394 276.7 316.523 276.7 316.523Z" fill="#263238"/>
<path d="M306.804 303.863C307.923 303.189 309.126 302.666 310.383 302.307L311.124 298.761L317.113 298.656L317.975 302.17C319.245 302.486 320.467 302.968 321.61 303.605L324.641 301.622L328.945 305.781L327.075 308.876C327.751 309.994 328.274 311.198 328.631 312.455L332.169 313.196L332.282 319.185L328.76 320.047C328.449 321.318 327.969 322.54 327.333 323.683L329.316 326.713L325.157 331.017L322.062 329.139C320.941 329.818 319.735 330.343 318.475 330.703L317.741 334.241L311.753 334.346L310.89 330.832C309.62 330.523 308.397 330.043 307.255 329.405L304.225 331.388L299.913 327.237L301.791 324.142C301.115 323.021 300.592 321.815 300.235 320.555L296.689 319.822L296.584 313.833L300.106 312.971C300.415 311.7 300.895 310.477 301.533 309.336L299.55 306.305L303.709 301.993L306.804 303.871V303.863ZM310.028 311.842C309.139 312.759 308.542 313.918 308.312 315.174C308.082 316.43 308.231 317.726 308.739 318.898C309.247 320.069 310.091 321.064 311.164 321.755C312.238 322.446 313.493 322.803 314.769 322.78C316.046 322.758 317.287 322.357 318.335 321.628C319.384 320.899 320.192 319.875 320.658 318.686C321.124 317.498 321.227 316.197 320.953 314.95C320.679 313.703 320.041 312.565 319.12 311.681C318.509 311.094 317.788 310.632 316.999 310.324C316.209 310.015 315.367 309.865 314.519 309.882C313.672 309.899 312.836 310.084 312.06 310.424C311.284 310.765 310.582 311.255 309.996 311.867L310.028 311.842Z" fill="#FF993C"/>
<path d="M108.317 349.437C107.92 357.056 109.842 364.617 113.83 371.121C117.817 377.625 123.683 382.768 130.654 385.87C137.624 388.972 145.371 389.888 152.873 388.497C160.374 387.106 167.278 383.474 172.673 378.079C178.068 372.684 181.7 365.781 183.091 358.279C184.482 350.777 183.566 343.03 180.464 336.06C177.362 329.09 172.219 323.224 165.715 319.236C159.21 315.248 151.65 313.326 144.031 313.723C134.717 314.21 125.913 318.129 119.318 324.724C112.723 331.319 108.804 340.123 108.317 349.437Z" fill="white"/>
<path d="M108.269 351.418C108.269 351.418 108.269 351.208 108.269 350.805C108.269 350.402 108.309 349.774 108.334 349.008C108.334 348.605 108.334 348.202 108.382 347.678C108.43 347.154 108.519 346.67 108.6 346.066C108.745 344.741 108.99 343.429 109.333 342.141C110.181 338.595 111.567 335.2 113.444 332.074C116.183 327.439 119.878 323.44 124.281 320.342C128.685 317.245 133.698 315.12 138.986 314.108C140.583 313.808 142.199 313.617 143.822 313.536C144.628 313.536 145.434 313.423 146.296 313.439L148.811 313.56C149.23 313.56 149.617 313.56 150.084 313.641L151.35 313.826C152.156 313.971 153.059 314.068 153.905 314.237C157.394 315.021 160.769 316.248 163.948 317.888C164.754 318.323 165.519 318.831 166.317 319.299C167.122 319.779 167.889 320.318 168.614 320.911C171.728 323.133 174.452 325.857 176.674 328.971C179.043 332.147 180.882 335.686 182.123 339.449C184.745 347.237 184.745 355.671 182.123 363.459C180.884 367.223 179.044 370.762 176.674 373.937C174.452 377.052 171.728 379.775 168.614 381.997C167.891 382.592 167.123 383.131 166.317 383.609C165.511 384.085 164.754 384.585 163.948 385.02C160.773 386.669 157.397 387.896 153.905 388.671C153.099 388.84 152.196 388.945 151.35 389.082L150.084 389.268C149.657 389.324 149.23 389.324 148.811 389.348L146.296 389.477C145.49 389.477 144.636 389.405 143.822 389.372C142.199 389.292 140.583 389.101 138.986 388.8C133.69 387.785 128.672 385.65 124.267 382.539C119.862 379.429 116.172 375.413 113.444 370.762C111.559 367.622 110.17 364.21 109.325 360.647C108.982 359.358 108.737 358.046 108.592 356.721C108.511 356.149 108.414 355.625 108.374 355.109C108.334 354.593 108.374 354.182 108.326 353.779C108.326 353.014 108.277 352.417 108.261 351.982C108.245 351.547 108.261 351.378 108.261 351.378C108.261 351.378 108.261 351.579 108.326 351.982C108.39 352.385 108.39 353.006 108.446 353.771C108.446 354.166 108.495 354.577 108.527 355.093C108.559 355.609 108.68 356.101 108.769 356.705C108.942 358.021 109.211 359.322 109.575 360.598C110.457 364.119 111.868 367.486 113.758 370.584C116.495 375.146 120.168 379.075 124.535 382.114C128.901 385.152 133.862 387.23 139.091 388.212C140.653 388.506 142.234 388.689 143.822 388.76C144.628 388.76 145.434 388.865 146.24 388.856L148.722 388.728C149.133 388.728 149.528 388.728 149.972 388.647L151.221 388.453C152.027 388.308 152.905 388.212 153.744 388.042C155.453 387.658 157.136 387.162 158.781 386.559C160.456 385.953 162.088 385.234 163.666 384.407C164.472 383.98 165.213 383.48 165.995 383.021C166.783 382.554 167.537 382.031 168.252 381.457C169.749 380.353 171.168 379.146 172.499 377.847C173.817 376.485 175.043 375.036 176.167 373.51C178.489 370.383 180.294 366.902 181.51 363.202C184.079 355.539 184.079 347.248 181.51 339.586C180.294 335.886 178.487 332.407 176.159 329.285C173.98 326.217 171.308 323.532 168.252 321.338C167.539 320.764 166.785 320.244 165.995 319.782C165.189 319.315 164.455 318.815 163.666 318.388C162.088 317.561 160.456 316.842 158.781 316.236C157.151 315.64 155.485 315.15 153.792 314.769C152.986 314.6 152.107 314.503 151.269 314.366L150.02 314.173C149.609 314.116 149.214 314.116 148.771 314.092L146.296 313.963C145.49 313.963 144.684 314.027 143.878 314.052C142.288 314.126 140.704 314.309 139.139 314.6C133.388 315.654 127.967 318.051 123.317 321.596C119.481 324.496 116.236 328.105 113.758 332.227C111.869 335.329 110.459 338.698 109.575 342.221C109.211 343.498 108.942 344.799 108.769 346.114C108.68 346.679 108.575 347.202 108.527 347.686C108.479 348.17 108.471 348.613 108.446 349.008C108.39 349.774 108.35 350.362 108.326 350.797C108.301 351.232 108.269 351.418 108.269 351.418Z" fill="#263238"/>
<path d="M148.568 367.459V372.118H143.531V367.628C139.34 367.338 135.35 366.121 132.924 364.445L135.648 358.319C138.542 360.16 141.891 361.161 145.32 361.213C148.762 361.213 150.108 360.245 150.108 358.795C150.108 354.144 133.407 357.537 133.407 346.632C133.407 342.014 136.72 338.113 143.515 337.274V332.664H148.552V337.194C151.539 337.383 154.448 338.228 157.072 339.668L154.509 345.834C152.023 344.421 149.226 343.643 146.368 343.569C142.886 343.569 141.629 344.746 141.629 346.213C141.629 350.702 158.281 347.341 158.281 358.166C158.297 362.639 155.113 366.5 148.568 367.459Z" fill="#81DD6A"/>
<path d="M91.6704 232.382C100.156 213.351 91.6063 191.044 72.5752 182.559C53.544 174.074 31.2376 182.623 22.7524 201.654C14.2673 220.685 22.8165 242.992 41.8476 251.477C60.8788 259.962 83.1852 251.413 91.6704 232.382Z" fill="white"/>
<path d="M94.9297 217.031C94.9297 217.031 94.9297 216.822 94.8814 216.419C94.833 216.016 94.8169 215.403 94.7685 214.629C94.7685 214.234 94.7202 213.823 94.696 213.307C94.6718 212.792 94.5429 212.3 94.4542 211.695L94.164 209.858C94.0349 209.165 93.8708 208.479 93.6724 207.802C92.783 204.28 91.3644 200.913 89.4651 197.816C87.0009 193.685 83.7668 190.065 79.9381 187.153L78.3261 185.944C77.7539 185.573 77.1494 185.226 76.561 184.864C75.9726 184.501 75.3762 184.058 74.7233 183.8L72.7728 182.865L71.7814 182.397L70.7417 182.019L68.63 181.213C67.9126 180.971 67.155 180.826 66.4135 180.616C65.6677 180.398 64.9084 180.228 64.1405 180.108C62.5732 179.811 60.9868 179.625 59.3932 179.552C58.5872 179.552 57.7812 179.447 56.9752 179.464L54.4927 179.584C54.0736 179.584 53.6867 179.584 53.2354 179.673L51.9861 179.858C51.1801 180.004 50.3015 180.1 49.4633 180.27C47.7649 180.65 46.093 181.14 44.458 181.736L43.2087 182.196L42.5881 182.43L41.9836 182.72L39.5656 183.888C38.7596 184.324 38.0181 184.823 37.2282 185.291C36.8494 185.533 36.4222 185.742 36.0756 186.016L34.9633 186.822C33.4378 187.95 31.9892 189.177 30.6271 190.498L28.7571 192.634L28.2735 193.157L27.8464 193.73L26.9839 194.882L26.1215 196.035L25.3639 197.268L24.6143 198.509L24.2355 199.138C24.1146 199.348 24.0179 199.573 23.9131 199.791C23.4859 200.669 23.0668 201.548 22.6396 202.435C22.2124 203.321 21.9626 204.288 21.616 205.215C19.0369 212.898 19.0369 221.213 21.616 228.895L22.6315 231.676C23.0587 232.563 23.4859 233.441 23.905 234.32L24.2274 234.981L24.6062 235.601L25.3639 236.843L26.1215 238.084L26.9839 239.236L27.8383 240.389L28.2735 240.961L28.7491 241.485C29.3939 242.186 30.0226 242.888 30.6593 243.589C31.9976 244.887 33.4192 246.095 34.915 247.208L36.0192 248.014C36.39 248.296 36.8252 248.505 37.1798 248.747C37.9858 249.215 38.7274 249.714 39.5172 250.15L41.9352 251.318L42.5397 251.609C42.7412 251.697 42.9589 251.762 43.1604 251.842L44.4097 252.302C46.0446 252.898 47.7165 253.388 49.4149 253.769C50.2209 253.938 51.1075 254.035 51.9377 254.18L53.1951 254.373C53.6061 254.422 54.0011 254.422 54.4444 254.454L56.9349 254.575C57.7409 254.575 58.5469 254.51 59.3529 254.486C60.9465 254.413 62.5329 254.227 64.1002 253.93C64.8683 253.811 65.6276 253.642 66.3732 253.422C67.1227 253.213 67.8723 253.067 68.5897 252.826L70.7014 252.02L71.7492 251.641L72.7406 251.173L74.6911 250.238C75.3359 249.94 75.9162 249.521 76.5207 249.174C77.1252 248.828 77.7136 248.465 78.2858 248.094L79.8978 246.885C83.7402 243.979 86.9882 240.362 89.4651 236.23C91.3573 233.125 92.7651 229.749 93.6401 226.22C93.8094 225.494 94.0512 224.817 94.1318 224.164L94.422 222.327C94.5106 221.754 94.6073 221.23 94.6638 220.715C94.7202 220.199 94.7121 219.788 94.7363 219.393L94.8491 217.603C94.8491 217.2 94.8975 216.999 94.8975 216.999C94.8975 216.999 94.8975 217.2 94.8975 217.603C94.8975 218.006 94.8975 218.619 94.833 219.401C94.833 219.796 94.833 220.207 94.7766 220.723C94.7202 221.238 94.6315 221.738 94.5509 222.335C94.4703 222.931 94.3817 223.519 94.285 224.18C94.1882 224.841 93.9706 225.518 93.8094 226.252C92.9534 229.807 91.5591 233.21 89.6746 236.343C87.2076 240.521 83.9562 244.183 80.0993 247.127L78.4873 248.352C77.9151 248.731 77.3106 249.078 76.7141 249.448C76.1177 249.819 75.5213 250.254 74.8684 250.529L72.9018 251.472L71.9023 251.955L70.8545 252.342L68.7267 253.148C68.0013 253.39 67.2436 253.543 66.4941 253.753C65.7395 253.973 64.9724 254.148 64.197 254.276C62.6162 254.576 61.0164 254.764 59.4093 254.841C58.6033 254.841 57.7973 254.953 56.9349 254.945L54.4282 254.816C54.0091 254.816 53.6222 254.816 53.1628 254.736L51.8974 254.55C51.0914 254.405 50.1967 254.309 49.3424 254.139C47.6246 253.759 45.9338 253.267 44.2807 252.664L43.0233 252.205L42.3947 251.963L41.7821 251.673L39.3641 250.496C38.5581 250.061 37.7924 249.553 37.0025 249.086C36.6156 248.836 36.1965 248.626 35.8258 248.344L34.7135 247.538C33.1951 246.417 31.7544 245.195 30.4014 243.879L28.475 241.759L27.9914 241.227L27.5481 240.647L26.6857 239.486L25.7911 238.277L24.9851 237.036L24.2274 235.779L23.8405 235.15L23.5181 234.481C23.091 233.594 22.6557 232.7 22.2285 231.805C21.8014 230.91 21.5434 229.935 21.1969 228.992C18.5854 221.226 18.5854 212.82 21.1969 205.054C21.5434 204.111 21.89 203.176 22.2285 202.241C22.5671 201.306 23.091 200.452 23.5181 199.565C23.631 199.348 23.7277 199.122 23.8405 198.904L24.2274 198.276L24.9931 197.018L25.7588 195.769L26.6293 194.6L27.524 193.44L27.9592 192.867L28.4428 192.335L30.3772 190.207C31.7201 188.896 33.15 187.676 34.6571 186.556L35.7774 185.75C36.1401 185.468 36.5834 185.259 36.9461 185.009C37.7521 184.541 38.5097 184.034 39.3077 183.598L41.766 182.422L42.3705 182.131L42.9992 181.89L44.2565 181.43C45.9096 180.828 47.6005 180.335 49.3182 179.955C50.1645 179.786 51.0269 179.689 51.8732 179.544L53.1951 179.335C53.6142 179.278 54.0414 179.278 54.4605 179.254L56.9671 179.125C57.7731 179.125 58.5791 179.198 59.4416 179.23C61.0483 179.31 62.6478 179.499 64.2292 179.794C65.0046 179.923 65.7717 180.098 66.5263 180.318C67.2759 180.527 68.0335 180.681 68.7509 180.922L70.8868 181.728L71.9346 182.115L72.934 182.591L74.9006 183.542C75.5193 183.855 76.1219 184.2 76.7061 184.574C77.3106 184.944 77.9151 185.291 78.4873 185.67L80.0993 186.895C83.958 189.837 87.2098 193.499 89.6746 197.679C91.5591 200.812 92.9534 204.215 93.8094 207.77C93.9706 208.504 94.2124 209.181 94.285 209.842C94.3575 210.503 94.4703 211.115 94.5509 211.687C94.6315 212.26 94.7282 212.784 94.7766 213.299C94.825 213.815 94.7766 214.226 94.833 214.621C94.833 215.427 94.8814 216 94.8975 216.419C94.9136 216.838 94.9297 217.031 94.9297 217.031Z" fill="#263238"/>
<path d="M64.0754 201.824C64.0754 202.903 63.7553 203.958 63.1557 204.855C62.5562 205.753 61.704 206.452 60.7069 206.865C59.7098 207.278 58.6127 207.386 57.5542 207.176C56.4957 206.965 55.5234 206.445 54.7603 205.682C53.9972 204.919 53.4775 203.947 53.267 202.888C53.0564 201.83 53.1645 200.733 53.5775 199.736C53.9905 198.739 54.6899 197.886 55.5872 197.287C56.4845 196.687 57.5395 196.367 58.6187 196.367C60.0659 196.367 61.4538 196.942 62.4771 197.965C63.5005 198.989 64.0754 200.377 64.0754 201.824Z" fill="#46B2C8"/>
<path d="M58.6197 196.368C59.4032 196.368 60.0383 195.733 60.0383 194.95C60.0383 194.166 59.4032 193.531 58.6197 193.531C57.8363 193.531 57.2012 194.166 57.2012 194.95C57.2012 195.733 57.8363 196.368 58.6197 196.368Z" fill="#46B2C8"/>
<path d="M49.7689 235.66H67.5977C68.3009 235.66 68.9754 235.94 69.4727 236.437C69.97 236.934 70.2494 237.609 70.2494 238.312V239.65H47.1172V238.312C47.1172 237.609 47.3966 236.934 47.8939 236.437C48.3912 235.94 49.0656 235.66 49.7689 235.66Z" fill="#46B2C8"/>
<path d="M50.4473 235.73L51.8255 237.657H65.7935L67.2685 235.73H50.4473Z" fill="#46B2C8"/>
<path d="M62.9243 217.719H54.3162C53.6529 217.719 53.1152 218.256 53.1152 218.92V219.073C53.1152 219.736 53.6529 220.274 54.3162 220.274H62.9243C63.5875 220.274 64.1252 219.736 64.1252 219.073V218.92C64.1252 218.256 63.5875 217.719 62.9243 217.719Z" fill="#46B2C8"/>
<path d="M55.1462 218.066C55.1462 218.066 55.0012 230.342 50.4473 235.734H58.878V218.066H55.1462Z" fill="#46B2C8"/>
<path d="M62.3509 218.066C62.3509 218.066 62.7136 230.342 67.2675 235.734H58.6191V218.066H62.3509Z" fill="#46B2C8"/>
<path d="M66.7287 200.8C64.9635 199.123 63.416 200.92 62.7793 201.606C62.1425 202.291 60.8449 202.113 60.1437 200.929C59.5633 199.945 58.8944 199.929 58.6203 199.961C58.3463 199.994 57.6773 199.961 57.097 200.929C56.3958 202.113 55.0981 202.266 54.4614 201.606C53.8246 200.945 52.2771 199.188 50.5039 200.8C50.5039 200.8 54.1712 205.426 54.7354 210.214C55.2996 215.001 55.2432 217.25 54.7354 218.58H62.5052C61.9975 217.25 61.941 215.001 62.5052 210.214C63.0694 205.426 66.7287 200.8 66.7287 200.8Z" fill="#46B2C8"/>
<path d="M67.4132 235.733C67.4132 235.846 63.5766 235.943 58.8373 235.943C54.098 235.943 50.2695 235.846 50.2695 235.733C50.2695 235.62 54.1061 235.523 58.8373 235.523C63.5685 235.523 67.4132 235.612 67.4132 235.733Z" fill="#263238"/>
<path d="M62.7545 220.25C61.3515 220.457 59.9316 220.528 58.515 220.46C57.0983 220.528 55.6784 220.457 54.2754 220.25C55.6784 220.043 57.0983 219.973 58.515 220.041C59.9316 219.973 61.3515 220.043 62.7545 220.25Z" fill="#263238"/>
<path d="M63.6011 218.193C62.023 218.408 60.4293 218.486 58.8377 218.427C57.2468 218.495 55.653 218.424 54.0742 218.217C55.653 218.01 57.2468 217.94 58.8377 218.008C60.4279 217.932 62.0216 217.994 63.6011 218.193Z" fill="#263238"/>
<path d="M65.4858 200.18C65.2687 200.16 65.0501 200.16 64.833 200.18C64.2384 200.314 63.6853 200.591 63.221 200.986C62.8726 201.259 62.4872 201.481 62.0764 201.647C61.8224 201.753 61.5452 201.793 61.2715 201.762C60.9978 201.731 60.7366 201.63 60.5128 201.469C60.1073 201.101 59.7276 200.705 59.3763 200.284C59.2051 200.103 58.9752 199.988 58.7273 199.96C58.4795 199.932 58.2297 199.993 58.0223 200.131C57.5638 200.455 57.1492 200.837 56.7891 201.268C56.594 201.504 56.3469 201.691 56.0673 201.816C55.7876 201.94 55.4829 201.998 55.1771 201.985C54.6602 201.881 54.186 201.626 53.8149 201.252C53.516 200.97 53.1694 200.743 52.7913 200.583C52.2306 200.385 51.6191 200.385 51.0584 200.583C50.6554 200.712 50.462 200.865 50.4378 200.832C50.4136 200.8 50.5829 200.615 51.002 200.429C51.5964 200.162 52.2694 200.128 52.888 200.333C53.3056 200.491 53.6927 200.72 54.0326 201.01C54.3603 201.327 54.7711 201.545 55.2174 201.638C55.4595 201.634 55.6975 201.576 55.9138 201.467C56.13 201.358 56.319 201.202 56.4667 201.01C56.8478 200.547 57.2897 200.137 57.7805 199.793C58.073 199.615 58.4156 199.539 58.7557 199.575C59.0836 199.626 59.3863 199.781 59.6181 200.018C60.0614 200.438 60.3274 200.913 60.7062 201.187C60.8796 201.316 61.0833 201.399 61.2978 201.427C61.5123 201.456 61.7304 201.428 61.9314 201.348C62.3178 201.207 62.6837 201.014 63.0195 200.776C63.5168 200.374 64.1174 200.12 64.7524 200.043C65.2843 199.986 65.5019 200.172 65.4858 200.18Z" fill="#263238"/>
</svg>
