<svg width="359" height="483" viewBox="0 0 359 483" fill="none" xmlns="http://www.w3.org/2000/svg">
<mask id="mask0" mask-type="alpha" maskUnits="userSpaceOnUse" x="0" y="0" width="359" height="483">
<path d="M359 16.5945V371.969C359 373.346 358.828 374.705 358.495 376.017C357.688 379.225 355.931 382.151 353.413 384.386L345.595 391.322L342.925 393.687L333.257 402.256L327.545 407.314L327.541 407.319L314.549 418.836L305.095 427.21L304.52 427.725L297.699 433.766L292.803 438.106L289.951 440.633L288.862 441.597L285.774 444.338L282.417 447.314L279.658 449.762C279.653 449.762 279.653 449.762 279.653 449.762L279.343 450.036C279.343 450.041 279.338 450.041 279.338 450.041L278.578 450.713L258.821 468.225L256.711 470.094L253.749 472.718L247.8 477.99C244.772 480.647 240.891 482.107 236.862 482.107H16.5991C15.8294 482.107 15.0737 482.056 14.3364 481.954C6.24089 480.851 0 473.91 0 465.513V16.5945C0 7.42787 7.4325 0 16.5991 0H342.406C351.572 0 359 7.42787 359 16.5945Z" fill="#075865"/>
</mask>
<g mask="url(#mask0)">
<path opacity="0.24" d="M259.596 80.8507C259.67 80.7905 259.688 80.8415 259.66 80.9991C259.48 81.0222 259.447 80.9759 259.596 80.8507Z" fill="#3C2F4B"/>
<path d="M188.84 13.5128C188.821 13.5267 188.793 13.5175 188.789 13.4943C188.636 12.7895 186.526 4.33231 174.73 3.70173C162.453 3.04796 160.672 10.8699 159.963 13.5175C159.958 13.5314 159.949 13.536 159.935 13.5314C159.341 13.2624 145.631 7.12356 134.276 13.5406C122.67 20.0968 124.428 32.2309 125.833 35.509C125.833 35.509 110.003 33.2138 102.969 44.0357C95.9357 54.8576 101.565 64.6918 102.969 65.3502C102.969 65.3502 87.8448 68.2991 84.3256 82.0745C80.8111 95.836 91.6978 102.068 91.7118 102.077C91.6978 102.082 78.6968 107.33 81.5112 120.438C84.321 133.532 93.4366 134.209 93.469 134.209C93.4366 134.218 83.9732 137.181 83.9732 151.258C83.9732 165.358 98.0407 168.311 98.0407 168.311C98.0407 168.311 86.4353 174.543 94.1738 192.904C96.6405 198.76 107.736 202.766 114.867 197.874C116.165 217.496 140.957 217.496 140.957 217.496C140.957 217.496 237.334 214.872 238.391 214.547C238.887 214.394 250.307 207.597 240.946 195.899C251.93 195.899 256.632 187.321 256.683 183.065C256.789 174.538 250.011 170.945 250.001 170.931C250.006 170.931 268.474 166.141 267.806 152.407C267.064 137.144 256.683 135.516 256.683 135.516C256.683 135.516 271.807 129.285 268.993 117.155C266.179 105.026 258.449 103.384 258.44 103.384C258.449 103.38 269.693 95.836 266.531 82.3991C263.364 68.9575 247.896 66.987 247.887 66.987C247.892 66.9777 255.273 52.8824 246.482 43.3773C237.691 33.8722 224.333 36.1627 224.324 36.1627C224.328 36.1488 228.891 19.763 215.528 12.2238C202.592 4.9258 189.651 12.9935 188.84 13.5128Z" fill="#3C2F4B"/>
<path d="M213.904 108.397L219.005 103.19C220.118 102.054 221.921 101.975 223.131 103.005C223.836 103.607 224.443 104.284 224.499 104.887C224.499 104.887 224.685 116.567 225.055 122.219C225.185 124.175 224.8 126.132 223.929 127.889L220.516 134.789C219.58 136.685 217.447 137.673 215.393 137.158L210.891 136.031L213.904 108.397Z" fill="#D76E6D"/>
<path d="M220.114 135.461C219.048 136.912 217.193 137.607 215.399 137.158L210.896 136.031L213.906 108.392L219.006 103.185C220.119 102.049 221.922 101.97 223.133 103C223.837 103.602 224.445 104.279 224.5 104.882C224.5 104.882 224.565 109.083 224.7 113.664" stroke="#3C2F4B" stroke-width="3.24563" stroke-miterlimit="10" stroke-linecap="round" stroke-linejoin="round"/>
<path d="M135.338 100.57L132.287 98.4229C130.372 97.0736 127.822 97.0643 125.893 98.3904L125.842 98.4275C125.406 98.7289 125.147 99.1925 125.142 99.6887C125.096 103.259 124.975 118.013 125.944 123.535C126.644 127.527 128.675 132.21 131.8 135.145C134.216 137.412 138.162 135.599 138.032 132.293L136.905 103.463C136.864 102.304 136.284 101.237 135.338 100.57Z" fill="#D76E6D"/>
<path opacity="0.24" d="M134.067 107.979C134.067 107.979 131.053 104.001 128.707 104.414C126.361 104.826 127.71 133.212 137.313 134.867L135.379 109.431L134.067 107.979Z" fill="#3C2F4B"/>
<path d="M196.964 155.523C198.425 170.884 200.409 185.401 206.928 195.94L179.433 209.474L141.709 199.199C141.709 199.199 149.865 185.916 149.865 167.3V154.016L196.964 155.523Z" fill="#D76E6D"/>
<path d="M148.029 157.318C148.029 157.318 149.856 180.622 172.478 183.761C197.164 187.187 205.992 152.417 205.992 152.417L148.029 157.318Z" fill="#3C2F4B"/>
<path d="M211.161 143.663C208.481 150.085 205.37 155.426 202.087 159.79C195.86 168.061 186.434 172.781 176.711 173.217C170.692 173.486 164.558 172.114 158.999 168.919C157.979 168.335 157.056 167.723 156.263 167.092C128.75 145.105 134.008 111.898 134.008 111.898L134.643 94.8351C134.87 88.738 137.049 83.0581 140.643 78.491C144.231 73.9193 149.234 70.4604 155.104 68.8005C168.096 65.119 181.844 65.1051 194.845 68.7541L196.166 69.1251C197.362 69.4589 198.517 69.8715 199.639 70.3491V70.3538C209.065 74.3923 215.663 83.3178 216.595 93.727L216.614 93.9356C216.6 93.931 218.672 125.65 211.161 143.663Z" fill="#D76E6D"/>
<path opacity="0.24" d="M199.629 70.3491C199.629 70.3538 161.869 65.272 146.049 80.61L145.52 87.0827C145.52 87.0827 153.537 88.1491 159.458 93.1103V97.6449C159.458 97.6449 146.049 97.3621 142.933 102.291C142.933 102.291 140.058 129.313 143.893 142.829C147.704 156.27 159.532 171.432 176.706 173.217C170.688 173.486 164.553 172.114 158.994 168.919C157.974 168.335 157.051 167.723 156.258 167.092C128.745 145.105 134.003 111.898 134.003 111.898L134.638 94.8351C134.865 88.738 137.044 83.0581 140.638 78.491C144.226 73.9193 149.229 70.4604 155.099 68.8005C168.091 65.119 181.839 65.1051 194.84 68.7541L196.161 69.1251C197.353 69.4589 198.512 69.8669 199.629 70.3491Z" fill="#3C2F4B"/>
<path d="M134.739 92.1455L134.002 111.902C134.002 111.902 131.558 125.701 137.354 140.886" stroke="#3C2F4B" stroke-width="3.24563" stroke-miterlimit="10" stroke-linecap="round" stroke-linejoin="round"/>
<path d="M211.165 143.663C215.102 133.625 216.349 119.502 216.673 108.87" stroke="#3C2F4B" stroke-width="3.24563" stroke-miterlimit="10" stroke-linecap="round" stroke-linejoin="round"/>
<path d="M132.338 111.897L130.247 105.369C130.085 104.859 129.343 104.933 129.283 105.462C128.977 108.253 128.56 113.312 128.847 118.56" stroke="#3C2F4B" stroke-width="3.24563" stroke-miterlimit="10" stroke-linecap="round" stroke-linejoin="round"/>
<path d="M142.974 97.1201L161.497 97.7089C162.637 97.746 163.24 96.3782 162.447 95.5622C160.523 93.5731 157.097 90.9766 152.316 90.9766C147.392 90.9766 144.035 93.1651 142.157 94.927C141.328 95.6967 141.838 97.083 142.974 97.1201Z" fill="#3C2F4B"/>
<path d="M203.664 97.1201L185.14 97.7089C184 97.746 183.397 96.3782 184.19 95.5622C186.114 93.5731 189.54 90.9766 194.321 90.9766C199.245 90.9766 202.602 93.1651 204.48 94.927C205.31 95.6967 204.8 97.083 203.664 97.1201Z" fill="#3C2F4B"/>
<path d="M155.452 110.589C157.665 110.589 159.458 108.796 159.458 106.583C159.458 104.371 157.665 102.577 155.452 102.577C153.24 102.577 151.446 104.371 151.446 106.583C151.446 108.796 153.24 110.589 155.452 110.589Z" fill="#3C2F4B"/>
<path d="M192.957 110.589C195.17 110.589 196.963 108.796 196.963 106.583C196.963 104.371 195.17 102.577 192.957 102.577C190.745 102.577 188.951 104.371 188.951 106.583C188.951 108.796 190.745 110.589 192.957 110.589Z" fill="#3C2F4B"/>
<path d="M162.29 117.521C171.271 117.521 177.698 117.521 187.087 117.521C187.087 117.521 185.464 125.779 174.707 125.779C166.56 125.784 162.29 117.521 162.29 117.521Z" fill="#B85053"/>
<path d="M199.569 138.256C199.143 139.601 198.299 141.998 196.968 144.622L196.964 144.627C196.055 146.426 194.914 148.336 193.532 150.08C191.372 152.806 188.608 155.143 185.177 156.061C173.085 159.307 165.356 155.829 160.492 150.937C157.946 148.378 156.184 145.434 154.997 142.86C153.936 140.57 153.333 138.572 153.032 137.417C152.869 136.791 153.203 136.147 153.811 135.91C162.462 132.586 188.302 132.836 198.8 136.684C199.44 136.921 199.773 137.616 199.569 138.256Z" fill="#C42F4D"/>
<path opacity="0.24" d="M216.507 112.977C216.507 112.977 218.148 108.698 219.461 109.602C220.773 110.506 222.715 115.273 221.515 125.158C221.037 129.076 219.623 136.235 213.66 135.4L216.266 120.735L216.507 112.977Z" fill="#3C2F4B"/>
<path d="M193.533 150.08C191.372 152.806 188.609 155.143 185.178 156.061C173.085 159.307 165.356 155.829 160.492 150.937C165.671 146.357 178.176 138.688 193.533 150.08Z" fill="#F0565C"/>
<path d="M216.561 114.633C216.561 114.633 218.174 110.367 220.274 110.585C220.274 110.585 222.505 115.514 221.512 125.149" stroke="#3C2F4B" stroke-width="3.24563" stroke-miterlimit="10" stroke-linecap="round" stroke-linejoin="round"/>
<path d="M199.57 138.256C199.143 139.601 198.299 141.998 196.968 144.622L196.964 144.627C174.564 136.902 155.457 142.587 155.457 142.587L155.002 142.86C153.941 140.57 153.338 138.572 153.036 137.417C152.874 136.791 153.208 136.147 153.815 135.91C162.467 132.586 188.307 132.836 198.805 136.684C199.44 136.921 199.774 137.616 199.57 138.256Z" fill="white"/>
<path d="M127.322 150.215C131.184 150.215 134.314 147.084 134.314 143.223C134.314 139.361 131.184 136.23 127.322 136.23C123.461 136.23 120.33 139.361 120.33 143.223C120.33 147.084 123.461 150.215 127.322 150.215Z" fill="#9ECF86"/>
<path d="M221.085 150.816C224.946 150.816 228.077 147.686 228.077 143.824C228.077 139.962 224.946 136.832 221.085 136.832C217.223 136.832 214.093 139.962 214.093 143.824C214.093 147.686 217.223 150.816 221.085 150.816Z" fill="#9ECF86"/>
<path d="M302.664 299.104C302.664 299.104 304.055 343.389 307.824 374.459L294.522 373.365L280.422 302.081L302.664 299.104Z" fill="#D86E6C"/>
<path opacity="0.24" d="M302.664 299.104C302.664 299.104 304.055 343.389 307.824 374.459L294.522 373.365L280.422 302.081L302.664 299.104Z" fill="#3C2F4B"/>
<path d="M322.313 294.659C322.313 294.659 301.392 312.079 270.957 312.978V425.838L99.6157 421.466V310.192C99.6157 310.192 64.7854 309.899 49.3594 296.56C49.3594 296.56 61.5861 231.179 80.842 217.992C99.4442 205.256 147.095 181.743 147.095 181.743C147.095 181.743 149.983 203.452 177.01 202.599C199.632 201.875 201.538 180.162 201.538 180.162C201.538 180.162 207.542 182.082 213.918 184.038C214.896 184.34 215.888 184.641 216.862 184.933C219.593 185.759 222.236 186.533 224.341 187.112C242.679 192.157 275.089 201.977 285.535 210.963C303.609 226.496 322.313 294.659 322.313 294.659Z" fill="#F79653"/>
<path opacity="0.24" d="M159.257 226.195C149.177 224.442 135.072 220.047 127.704 209.035C127.704 209.035 104.368 215.53 107.948 240.851C107.948 240.851 125.725 242.001 130.843 253.319C137.316 267.632 144.943 345.546 144.943 345.546L99.6157 349.594V310.196C99.6157 310.196 64.7854 309.904 49.3594 296.565C49.3594 296.565 61.5861 231.184 80.842 217.997C99.4442 205.26 147.095 181.748 147.095 181.748C147.095 181.748 149.983 203.457 177.01 202.604C199.632 201.88 201.538 180.167 201.538 180.167C201.538 180.167 207.542 182.087 213.918 184.043C213.918 184.043 216.102 213.157 186.988 223.867C178.132 227.117 168.548 227.813 159.257 226.195Z" fill="#3C2F4B"/>
<path d="M113.17 309.899H120.946L124.557 337.413L113.17 309.899Z" fill="#D86E6C"/>
<path d="M317.58 278.871C317.58 278.871 301.055 290.532 264.171 296.268" stroke="#3C2F4B" stroke-width="3.24563" stroke-miterlimit="10" stroke-linecap="round" stroke-linejoin="round"/>
<path d="M52.5273 282.043C52.5273 282.043 80.973 295.424 119.295 291.057L123.713 330.978" stroke="#3C2F4B" stroke-width="3.24563" stroke-miterlimit="10" stroke-linecap="round" stroke-linejoin="round"/>
<path d="M144.945 383.33C145.348 383.932 68.5749 383.33 68.5749 383.33L69.3353 374.673L70.2116 364.723L77.6488 280.169C77.8667 277.647 77.148 275.129 75.6319 273.098L74.2965 271.318C72.2147 268.545 71.4728 264.989 72.2657 261.614L73.7726 255.22C74.1899 253.439 73.8097 251.566 72.734 250.087L63.0898 236.877C63.0898 236.877 63.0898 236.873 63.0852 236.873L48.6421 217.088C47.316 215.28 46.8616 212.971 47.3902 210.792L49.6946 201.337C49.9264 200.382 50.3623 199.501 50.965 198.75C51.5122 198.059 52.1891 197.475 52.9773 197.044L82.9206 180.491C82.9206 180.491 93.3252 183.389 101.648 183.765C104.013 183.871 105.946 185.689 106.159 188.044C106.999 197.341 108.686 218.683 106.962 222.921C104.736 228.374 99.4873 237.466 99.4873 237.466C99.4873 237.466 99.5151 237.735 99.5754 238.236C99.5986 238.444 99.6032 238.519 99.6032 238.537C99.6032 238.542 99.6032 238.542 99.6032 238.542C99.631 238.787 99.6635 239.07 99.6959 239.395C99.6959 239.418 99.7006 239.441 99.7052 239.469C99.7191 239.576 99.733 239.692 99.7469 239.826C99.7469 239.831 99.7469 239.831 99.7469 239.835C99.8536 240.753 99.9927 241.917 100.16 243.29C101.922 257.645 107.152 295.095 115.85 315.862C117.89 320.735 120.167 326.127 122.531 331.673C122.911 332.568 123.292 333.467 123.681 334.371C124.006 335.123 124.326 335.883 124.655 336.639C126.528 341.02 128.424 345.439 130.261 349.709C137.953 367.56 144.699 382.959 144.945 383.33Z" fill="#D86E6C"/>
<path opacity="0.24" d="M55.834 215.614C55.834 215.614 57.3733 221.711 60.925 222.871L63.3917 215.86L55.834 215.614Z" fill="#3C2F4B"/>
<path opacity="0.24" d="M130.738 378.568C130.423 377.697 96.3066 375.93 69.3353 374.674L70.2116 364.723L77.6488 280.17C77.8667 277.648 77.148 275.13 75.6319 273.099L74.2965 271.319C72.2147 268.546 71.4728 264.99 72.2657 261.614L73.7726 255.22C74.1899 253.44 73.8097 251.567 72.734 250.088L63.0898 236.878C63.0898 236.878 63.0898 236.873 63.0852 236.873L48.6421 217.089C47.316 215.281 46.8616 212.972 47.3902 210.792L49.6946 201.338C49.9264 200.383 50.3623 199.502 50.965 198.751C50.965 198.751 48.8971 208.622 49.741 213.305C50.5385 217.719 72.3538 246.749 77.6673 248.182C82.9809 249.61 89.9358 250.927 94.7116 244.195L99.5754 238.232C99.5986 238.44 99.6032 238.515 99.6032 238.533C99.6032 238.529 99.5986 238.524 99.5939 238.515C99.5986 238.584 99.6264 238.802 99.6959 239.386C99.6959 239.41 99.7006 239.433 99.7052 239.461C99.7191 239.567 99.733 239.683 99.7469 239.818C99.7469 239.822 99.7469 239.822 99.7469 239.827C98.8474 243.049 96.0284 249.666 89.653 254.312C85.5171 257.33 83.3936 262.398 84.0937 267.466L89.4768 306.515C91.4056 320.485 103.039 331.15 117.134 331.697C118.85 331.766 120.649 331.762 122.531 331.669C122.911 332.564 123.292 333.463 123.681 334.368C124.006 335.119 124.326 335.879 124.655 336.635C126.528 341.016 128.424 345.435 130.261 349.705C130.645 363.379 131.035 379.398 130.738 378.568Z" fill="#3C2F4B"/>
<path d="M83.7594 181.622C83.7594 181.622 82.3128 197.66 96.0835 198.875C96.0835 198.875 93.2366 205.338 95.3046 208.463C95.439 208.663 95.963 208.918 95.7497 209.034C89.787 212.405 82.9202 218.808 80.6992 227.358" stroke="#3C2F4B" stroke-width="3.24563" stroke-miterlimit="10" stroke-linecap="round" stroke-linejoin="round"/>
<path d="M65.543 226.552C66.1504 226.552 83.7278 222.713 89.7879 234.833" stroke="#3C2F4B" stroke-width="3.24563" stroke-miterlimit="10" stroke-linecap="round" stroke-linejoin="round"/>
<path d="M54.8838 214.691C54.8838 214.691 60.8187 216.88 63.392 215.86C65.9653 214.84 64.5558 215.614 64.5558 215.614C64.5558 215.614 59.8913 207.982 63.392 205.214" stroke="#3C2F4B" stroke-width="3.24563" stroke-miterlimit="10" stroke-linecap="round" stroke-linejoin="round"/>
<path d="M69.7619 219.509C66.405 217.028 64.5596 215.614 64.5596 215.614C64.5596 215.614 59.4083 219.509 61.2305 225.194" stroke="#3C2F4B" stroke-width="3.24563" stroke-miterlimit="10" stroke-linecap="round" stroke-linejoin="round"/>
<path d="M61.751 192.189C61.751 192.189 81.6838 220.612 81.911 223.774" stroke="#3C2F4B" stroke-width="3.24563" stroke-miterlimit="10" stroke-linecap="round" stroke-linejoin="round"/>
<path d="M72.6509 186.167C72.6509 186.167 88.1465 209.971 88.0676 214.163" stroke="#3C2F4B" stroke-width="3.24563" stroke-miterlimit="10" stroke-linecap="round" stroke-linejoin="round"/>
<path d="M307.996 378.192C307.481 378.739 299.692 392.445 296.173 398.658C295.217 400.341 293.108 400.958 291.397 400.063C280.264 394.225 242.601 374.511 241.892 374.186C242.045 374.186 243.162 370.583 244.789 364.597C251.772 338.957 268.209 269.626 258.94 253.175C256.548 248.932 254.545 244.783 252.871 240.883V240.878C252.862 240.869 252.862 240.86 252.857 240.851C249.004 231.87 246.899 224.191 245.847 219.555C245.179 216.643 245.513 213.592 246.788 210.889L256.497 190.325C257.596 187.984 259.678 186.254 262.177 185.587L282.049 180.282C284.674 179.582 287.094 181.952 286.45 184.59C285.077 190.205 279.912 192.607 279.912 192.607L284.071 195.379C284.141 195.426 284.21 195.472 284.275 195.528L305.367 211.867C306.067 212.41 306.54 213.193 306.702 214.065L308.367 223.352C308.752 225.485 308.33 227.687 307.185 229.533L289.287 258.359C288.592 259.481 288.568 260.895 289.231 262.04L292.417 267.544C292.973 268.503 293.047 269.663 292.63 270.687L288.805 280.063C288.684 280.359 288.601 280.675 288.564 280.99C285.429 307.808 307.101 376.936 307.996 378.192Z" fill="#D86E6C"/>
<path opacity="0.24" d="M295.872 359.795L268.71 379.862C268.71 379.862 255.686 371.59 244.79 364.598C251.773 338.958 268.21 269.626 258.941 253.175C256.549 248.933 254.545 244.783 252.872 240.884C252.872 240.884 266.193 253.676 267.231 270.169C268.27 286.661 266.146 341.726 268.933 348.783C272.026 356.605 285.727 362.855 295.872 359.795Z" fill="#3C2F4B"/>
<path d="M279.648 192.885L276.643 191.568C276.643 191.568 265.858 196.571 261.481 211.891C261.481 211.891 265.701 235.185 271.487 240.809C271.487 240.809 283.524 241.593 285.402 240.809C287.28 240.026 289.468 236.122 289.468 236.122C289.468 236.122 284.906 226.742 275.855 235.185" stroke="#3C2F4B" stroke-width="3.24563" stroke-miterlimit="10" stroke-linecap="round" stroke-linejoin="round"/>
<path d="M283.52 222.207V231.258C283.52 231.369 283.668 231.415 283.728 231.318C284.391 230.261 286.77 227.321 292.431 227.836" stroke="#3C2F4B" stroke-width="3.24563" stroke-miterlimit="10" stroke-linecap="round" stroke-linejoin="round"/>
<path opacity="0.24" d="M278.439 192.357C278.439 192.357 272.106 186.557 262.652 198.802C253.453 210.714 256.161 215.392 257.32 220.645C257.524 221.563 263.403 251.984 277.424 241.097L271.485 240.814L263.166 219.75L261.479 211.891L267.302 199.887L273.256 193.762L278.439 192.357Z" fill="#3C2F4B"/>
<path d="M269.086 237.397C269.086 237.397 268.822 229.867 277.422 214.39" stroke="#3C2F4B" stroke-width="3.24563" stroke-miterlimit="10" stroke-linecap="round" stroke-linejoin="round"/>
<path d="M264.171 223.719C264.171 223.719 267.366 211.422 273.254 205.01" stroke="#3C2F4B" stroke-width="3.24563" stroke-miterlimit="10" stroke-linecap="round" stroke-linejoin="round"/>
<path d="M278.438 243.039C275.827 245.436 273.18 248.751 270.699 253.318" stroke="#3C2F4B" stroke-width="3.24563" stroke-miterlimit="10" stroke-linecap="round" stroke-linejoin="round"/>
<path d="M295.871 237.397C295.871 237.397 293.627 236.729 290.237 237.184" stroke="#3C2F4B" stroke-width="3.24563" stroke-miterlimit="10" stroke-linecap="round" stroke-linejoin="round"/>
<path d="M203.418 320.457V282.043H253.809V320.457L228.613 336.783L203.418 320.457Z" fill="#F8EB92"/>
<path d="M203.209 292.188L253.604 293.212" stroke="#3C2F4B" stroke-width="3.24563" stroke-miterlimit="10" stroke-linecap="round" stroke-linejoin="round"/>
<path d="M99.4869 237.462L91.8457 248.228" stroke="#3C2F4B" stroke-width="3.24563" stroke-miterlimit="10" stroke-linecap="round" stroke-linejoin="round"/>
<path d="M111.607 303.645C111.607 303.645 118.803 326.077 123.036 332.846" stroke="#3C2F4B" stroke-width="3.24563" stroke-miterlimit="10" stroke-linecap="round" stroke-linejoin="round"/>
<path d="M76.0675 297.01L69.1172 378.568" stroke="#3C2F4B" stroke-width="3.24563" stroke-miterlimit="10" stroke-linecap="round" stroke-linejoin="round"/>
<path d="M291.319 273.521L288.291 281.273C288.291 281.273 286.816 313.419 297.11 341.911" stroke="#3C2F4B" stroke-width="3.24563" stroke-miterlimit="10" stroke-linecap="round" stroke-linejoin="round"/>
<path opacity="0.24" d="M252.876 240.878C252.867 240.869 252.867 240.86 252.862 240.851C252.871 240.847 252.876 240.851 252.876 240.878Z" fill="#3C2F4B"/>
<path d="M95.6675 198.232C95.6675 198.232 99.9934 197.773 101.825 195.941" stroke="#3C2F4B" stroke-width="3.24563" stroke-miterlimit="10" stroke-linecap="round" stroke-linejoin="round"/>
<path d="M95.7502 209.034C95.7502 209.034 95.6575 213.356 99.4873 215.53" stroke="#3C2F4B" stroke-width="3.24563" stroke-miterlimit="10" stroke-linecap="round" stroke-linejoin="round"/>
<path d="M53.6167 299.644C53.6167 299.644 62.7787 306.251 75.6406 307.364" stroke="#3C2F4B" stroke-width="3.24563" stroke-miterlimit="10" stroke-linecap="round" stroke-linejoin="round"/>
<path d="M289.867 310.372C289.867 310.372 304.041 307.581 315.8 299.708" stroke="#3C2F4B" stroke-width="3.24563" stroke-miterlimit="10" stroke-linecap="round" stroke-linejoin="round"/>
<path d="M276.852 389.227C276.852 389.227 284.882 403.531 301.194 406.544L305.209 399.77L298.435 382.202L276.852 389.227Z" fill="#A95957"/>
<path d="M295.427 380.691C295.427 380.691 300.448 405.288 316.009 400.768L311.993 377.427L295.427 380.691Z" fill="#A95957"/>
<path d="M328.806 385.963L323.284 400.267C323.284 400.267 320.02 402.024 316.004 400.768C311.989 399.511 310.732 380.334 310.732 380.334L328.806 385.963Z" fill="#A95957"/>
<path d="M307.997 353.679C308.026 353.65 308.03 353.655 308.026 353.688C308.021 353.703 308.011 353.703 307.997 353.679Z" fill="#D86E6C"/>
<path d="M281.378 357.397C280.849 357.749 298.691 349.95 298.691 349.95C298.691 349.95 314.404 370.119 313.88 370.119C313.357 370.119 291.397 375.554 291.397 375.554L281.378 357.397Z" fill="#3C2F4B"/>
<path d="M312.155 378.396L315.61 399.92" stroke="#3C2F4B" stroke-width="3.24563" stroke-miterlimit="10" stroke-linecap="round" stroke-linejoin="round"/>
<path d="M304.176 397.972L305.214 399.766L301.194 406.545" stroke="#3C2F4B" stroke-width="3.24563" stroke-miterlimit="10" stroke-linecap="round" stroke-linejoin="round"/>
<path d="M364.192 380.695C364.192 380.695 361.136 382.8 356.236 385.095C345.135 390.288 324.577 396.446 308.58 381.28C308.372 381.089 308.172 380.895 307.968 380.695L308.441 377.649L310.727 362.872C310.727 362.872 310.12 362.881 309.123 362.835C305.242 362.64 295.454 361.541 292.658 355.347C292.658 355.347 285.383 368.144 264.801 366.387L257.271 355.092L299.966 333.175C302.641 331.798 305.798 331.728 308.534 332.98L349.128 351.577L364.192 380.695Z" fill="#A95957"/>
<path opacity="0.24" d="M272.024 350.868C272.024 350.868 284.4 362.284 292.37 349.95C292.37 349.95 303.739 362.831 316.003 361.468L286.491 366.665H276.04L272.024 350.868Z" fill="#3C2F4B"/>
<path d="M268.938 348.62L303.203 332.095" stroke="#3C2F4B" stroke-width="3.24563" stroke-miterlimit="10" stroke-linecap="round" stroke-linejoin="round"/>
<path d="M317.33 399.896L311.808 405.418L280.084 437.142C277.742 439.484 273.931 439.395 271.696 436.957L216.965 377.13C214.87 374.84 214.949 371.302 217.146 369.109L251.847 334.408C254.114 332.141 257.786 332.141 260.054 334.408L317.33 391.685C319.597 393.952 319.597 397.629 317.33 399.896Z" fill="white"/>
<path opacity="0.24" d="M310.69 391.457L305.168 396.979C290.854 402.07 273.402 403.842 273.402 403.842L260.596 391.768L282.165 373.031L301.25 373.81L310.685 383.246C312.957 385.513 312.957 389.19 310.69 391.457Z" fill="#3C2F4B"/>
<path d="M317.511 377.431C317.511 377.431 316.793 377.732 315.61 378.238H315.606C313.946 378.943 311.368 380.046 308.581 381.279C305.062 382.833 301.209 384.576 298.436 385.962C291.908 389.227 277.854 392.491 273.589 392.491C270.171 392.491 267.236 388.304 267.236 384.961C267.236 384.553 267.278 384.159 267.375 383.788C267.464 383.403 267.617 383.037 267.821 382.703C269.828 379.439 277.859 371.909 285.639 368.144C291.259 365.427 303.026 363.623 309.133 362.835C311.484 362.529 313 362.376 313 362.376L317.511 377.431Z" fill="#A95957"/>
<path opacity="0.24" d="M356.236 385.092C345.136 390.285 324.577 396.442 308.581 381.276C305.062 382.829 301.209 384.573 298.436 385.959C291.908 389.223 277.854 392.487 273.589 392.487C270.171 392.487 267.236 388.3 267.236 384.957V383.608C267.236 383.608 267.278 383.673 267.375 383.784C268.437 385.059 275.893 392.538 297.115 382.199C302.4 379.616 305.92 378.262 308.447 377.65C312.105 376.765 313.705 377.437 315.606 378.239H315.61C318.828 379.593 328.806 385.964 338.51 381.336C346.045 377.743 339.633 358.798 339.47 358.315L356.236 385.092Z" fill="#3C2F4B"/>
<path d="M312.994 362.372C312.994 362.372 293.418 364.38 285.638 368.145C277.858 371.91 269.827 379.439 267.819 382.699C265.812 385.963 269.326 392.487 273.592 392.487" stroke="#3C2F4B" stroke-width="3.24563" stroke-miterlimit="10" stroke-linecap="round" stroke-linejoin="round"/>
<path d="M292.376 344.553L292.663 355.342" stroke="#3C2F4B" stroke-width="3.24563" stroke-miterlimit="10" stroke-linecap="round" stroke-linejoin="round"/>
<path d="M193.88 314.132V346.923C193.88 350.127 191.283 352.723 188.079 352.723H91.86C88.6561 352.723 86.0596 350.127 86.0596 346.923V314.132C86.0596 310.929 88.6561 308.332 91.86 308.332H188.075C191.278 308.327 193.88 310.929 193.88 314.132Z" fill="white"/>
<path d="M312.842 447.788C312.754 457.126 312.545 479.02 312.443 492.874C312.406 498.702 307.672 503.404 301.848 503.413C254.133 503.483 61.6296 503.492 14.1599 503.492C8.29453 503.492 3.54199 498.74 3.54199 492.874V347.641C3.54199 341.776 8.29453 337.023 14.1599 337.023H202.184C204.999 337.023 207.697 338.141 209.686 340.135L309.735 440.184C311.752 442.196 312.874 444.936 312.842 447.788Z" fill="#3AB3C6"/>
<path d="M307.974 380.691C307.974 380.691 325.611 399.827 354.678 385.578" stroke="#3C2F4B" stroke-width="3.24563" stroke-miterlimit="10" stroke-linecap="round" stroke-linejoin="round"/>
<path d="M327.133 390.298L323.284 400.271" stroke="#3C2F4B" stroke-width="3.24563" stroke-miterlimit="10" stroke-linecap="round" stroke-linejoin="round"/>
<path opacity="0.24" d="M193.88 337.023H86.0596V314.132C86.0596 310.929 88.6561 308.332 91.86 308.332H101.133C101.133 308.332 99.4919 324.676 114.561 327.695C129.635 330.704 176.372 324.273 193.88 337.023Z" fill="#3C2F4B"/>
<path d="M368.903 386.181L357.817 391.462C356.496 392.088 354.928 391.74 353.992 390.623C352.791 389.194 351.669 387.674 350.626 386.074C341.357 371.932 337.907 352.139 336.92 344.994C336.706 343.44 337.648 341.966 339.145 341.507C341.598 340.756 345.377 339.597 348.521 338.641C348.929 338.521 349.327 338.4 349.712 338.284C351.956 337.607 353.681 337.097 354.024 337.019C354.59 336.893 358.897 348.735 363.093 360.67C366.13 369.313 369.102 378.011 370.554 382.267C371.078 383.802 370.368 385.485 368.903 386.181Z" fill="white"/>
<path opacity="0.24" d="M368.904 386.181L357.818 391.462C356.497 392.088 354.929 391.74 353.993 390.623C352.792 389.195 351.67 387.674 350.627 386.074C358.143 382.198 351.313 362.094 348.962 353.697C347.093 347.034 347.919 341.322 348.522 338.646C348.758 337.608 348.962 337.023 348.962 337.023L349.713 338.289L363.094 360.679C366.131 369.322 369.103 378.02 370.555 382.277C371.079 383.802 370.369 385.485 368.904 386.181Z" fill="#3C2F4B"/>
<path d="M346.512 334.162L368.527 394.99C369.181 396.794 371.174 397.726 372.978 397.063L394.552 389.166C396.342 388.513 397.269 386.528 396.62 384.734L374.439 323.312C373.776 321.472 371.722 320.549 369.904 321.268L348.492 329.753C346.753 330.453 345.872 332.4 346.512 334.162Z" fill="#3C2F4B"/>
<path d="M31.2964 337.023H177.443" stroke="#3C2F4B" stroke-width="3.24563" stroke-miterlimit="10" stroke-linecap="round" stroke-linejoin="round"/>
<path d="M214.109 344.553L255.329 385.772" stroke="#3C2F4B" stroke-width="3.24563" stroke-miterlimit="10" stroke-linecap="round" stroke-linejoin="round"/>
<path d="M115.113 260.255L119.295 291.056" stroke="#3C2F4B" stroke-width="3.24563" stroke-miterlimit="10" stroke-linecap="round" stroke-linejoin="round"/>
<path d="M136.849 186.167C136.849 186.167 141.657 214.177 175.231 214.367C208.146 214.557 213.047 183.775 213.914 184.039" stroke="#3C2F4B" stroke-width="3.24563" stroke-miterlimit="10" stroke-linecap="round" stroke-linejoin="round"/>
</g>
</svg>
