<svg width="50" height="50" viewBox="0 0 50 50" fill="none" xmlns="http://www.w3.org/2000/svg">
<g clip-path="url(#clip0_2461_19998)">
<path d="M47.7064 45.4437H2.27229C1.017 45.4437 0 46.4607 0 47.717C0 48.9713 1.017 49.9883 2.27229 49.9883H47.7054C48.9607 49.9883 49.9777 48.9713 49.9777 47.717C49.9766 46.4607 48.9596 45.4437 47.7064 45.4437Z" fill="#115766"/>
<path d="M5.10823 39.5364C3.85294 39.5364 2.83594 40.5534 2.83594 41.8087C2.83594 43.0639 3.85294 44.082 5.10823 44.082H44.8627C46.118 44.082 47.135 43.0639 47.135 41.8087C47.135 40.5534 46.118 39.5364 44.8627 39.5364H44.2957V19.09H44.8627C45.4914 19.09 45.9978 18.5815 45.9978 17.9549C45.9978 17.3283 45.4893 16.8198 44.8627 16.8198H5.10823C4.48058 16.8198 3.97315 17.3283 3.97315 17.9549C3.97315 18.5815 4.48165 19.09 5.10823 19.09H5.6763V39.5353L5.10823 39.5364ZM39.7511 19.09V39.5353H32.9364V19.09H39.7511ZM28.3918 19.09V39.5353H21.577V19.09H28.3918ZM10.2188 19.09H17.0335V39.5353H10.2188V19.09Z" fill="#115766"/>
<path d="M2.27234 14.7773H47.7054C47.7129 14.7773 47.7214 14.7773 47.7278 14.7773C48.9841 14.7773 50 13.7603 50 12.505C50 11.5072 49.3575 10.6614 48.465 10.3551L25.9229 0.211671C25.3304 -0.0542809 24.6527 -0.0542809 24.0591 0.211671L1.34044 10.4338C0.362801 10.8742 -0.174421 11.9359 0.0511059 12.9827C0.275569 14.0295 1.20108 14.7773 2.27234 14.7773Z" fill="#115766"/>
</g>
<defs>
<clipPath id="clip0_2461_19998">
<rect width="50" height="50" fill="white"/>
</clipPath>
</defs>
</svg>
