<svg width="50" height="50" viewBox="0 0 50 50" fill="none" xmlns="http://www.w3.org/2000/svg">
<path d="M11.0889 36.3607C11.0666 25.679 18.6867 12.6233 27.8725 7.32041C27.8859 7.31265 27.899 7.30737 27.9124 7.29967C30.3067 5.92109 33.2085 4.87247 35.9911 4.9893C35.9979 4.98954 36.0048 4.98905 36.0115 4.98936C36.0272 4.99002 36.0435 4.98875 36.0592 4.98954L33.3296 3.4366C23.4378 -2.32177 5.72131 16.0776 5.75787 32.7592C5.77824 37.6367 7.41072 41.2688 10.3546 42.9852L13.2326 44.623C13.2142 44.5953 13.1988 44.5643 13.1807 44.5363C11.6594 42.1904 11.1011 39.156 11.0889 36.3607Z" fill="#115766"/>
<path d="M28.3643 8.18229C19.4231 13.3452 12.0569 26.0066 12.086 36.3593C12.1137 46.3221 18.9901 50.6151 27.9772 45.4272C36.9748 40.232 44.272 27.58 44.2419 17.224C44.2135 7.01261 37.0765 3.14504 28.3643 8.18229ZM28.4497 40.2782C21.7551 44.142 16.3418 40.8543 16.3219 33.3551C16.3021 26.0149 21.4869 17.0259 27.8835 13.331C34.4887 9.52674 39.9914 12.6655 40.0112 20.254C40.0311 27.6041 34.8463 36.5832 28.4497 40.2782Z" fill="#115766"/>
<path d="M23.5259 28.6172L28.0652 29.3919C28.0949 29.3919 28.1248 29.4019 28.1545 29.4019C28.3035 29.4019 28.4426 29.3323 28.5419 29.2131L33.1208 23.3628C33.2599 23.194 33.2698 22.9457 33.1308 22.7669L28.5518 16.6583C28.4426 16.5093 28.2638 16.4398 28.085 16.4597C27.9062 16.4795 27.7572 16.5987 27.6877 16.7676L23.1485 27.9418C23.0889 28.0808 23.0988 28.2298 23.1684 28.3689C23.2478 28.498 23.3769 28.5874 23.5259 28.6172Z" fill="#115766"/>
<path d="M33.4606 25.7963C33.252 25.6573 32.9739 25.707 32.815 25.8957L27.948 31.7162L23.1704 31.5076C22.9618 31.4976 22.7632 31.6268 22.6838 31.8254C22.6043 32.0142 22.6639 32.2426 22.8129 32.3817L28.0871 37.0301C28.1765 37.1096 28.2957 37.1592 28.4148 37.1592C28.4546 37.1592 28.4844 37.1592 28.5142 37.1493C28.6731 37.1096 28.8022 37.0103 28.8718 36.8712L33.6394 26.4221C33.7487 26.1937 33.6692 25.9255 33.4606 25.7963Z" fill="#115766"/>
</svg>
