<svg width="50" height="50" viewBox="0 0 50 50" fill="none" xmlns="http://www.w3.org/2000/svg">
<path fill-rule="evenodd" clip-rule="evenodd" d="M19.3672 14.689C13.625 14.6889 8.95312 19.3608 8.95312 25.103C8.95312 30.8463 13.625 35.5181 19.3672 35.5181C20.805 35.5181 22.1909 35.2322 23.4927 34.6681C23.2341 33.6044 23.0962 32.494 23.0962 31.3519C23.0963 26.8307 25.244 22.8017 28.5722 20.2304C26.7772 16.8491 23.2156 14.689 19.3672 14.689Z" fill="#115766"/>
<path fill-rule="evenodd" clip-rule="evenodd" d="M16.5628 11.0833C14.7268 11.4479 13.0027 12.1629 11.4402 13.2073C11.2031 13.3648 10.8879 13.3337 10.6859 13.1327L8.14956 10.5952C7.97869 10.4243 7.74954 10.33 7.50499 10.33C7.26067 10.33 7.0315 10.4243 6.86056 10.5953L4.86085 12.5949C4.68998 12.7659 4.59557 12.9949 4.59557 13.2394C4.59577 13.4839 4.68984 13.7129 4.86085 13.8839L7.39728 16.4203C7.5994 16.6224 7.63035 16.9374 7.47183 17.1746C6.42863 18.7371 5.71356 20.4612 5.34777 22.2983C5.29305 22.5769 5.04736 22.778 4.76238 22.778L1.17651 22.7779C0.673846 22.7779 0.265625 23.1872 0.265625 23.6897L0.265659 26.5173C0.265659 27.0198 0.673846 27.4291 1.17638 27.4291L4.76245 27.4291C5.04736 27.4291 5.29184 27.6301 5.34777 27.9089C5.71363 29.7459 6.42742 31.47 7.47183 33.0325C7.62948 33.2697 7.59826 33.5847 7.39725 33.7868L4.86085 36.3232C4.50554 36.6786 4.50544 37.2567 4.86085 37.6121L6.86062 39.6118C7.21613 39.9672 7.79412 39.9662 8.14949 39.6119L10.686 37.0744C10.8881 36.8734 11.203 36.8423 11.4402 36.9998C13.0038 38.0442 14.7268 38.7581 16.5628 39.1238C16.8427 39.1797 17.0435 39.4243 17.0435 39.7093L17.0436 43.2953C17.0436 43.7978 17.4528 44.2071 17.9553 44.2071L20.783 44.207C21.2856 44.207 21.6937 43.7978 21.6937 43.2953L21.6938 39.7102C21.6938 39.4253 21.8947 39.1798 22.1744 39.1249C23.1185 38.9364 24.0416 38.6529 24.9277 38.2782C24.4863 37.5027 24.1163 36.6816 23.8275 35.8234C22.4161 36.4133 20.9197 36.7117 19.3688 36.7117C12.9685 36.7117 7.76093 31.5042 7.76093 25.103C7.76093 18.7029 12.9685 13.4953 19.3686 13.4953C23.6061 13.4953 27.5317 15.8452 29.5554 19.5358C30.3064 19.0516 31.1063 18.6373 31.9459 18.3015C31.7366 17.9155 31.5088 17.5381 31.2654 17.1736C31.108 16.9373 31.139 16.6224 31.34 16.4203L33.8766 13.8839C34.0475 13.7129 34.1417 13.4839 34.1417 13.2394C34.1417 12.9949 34.0474 12.7659 33.8764 12.5949L31.8768 10.5952C31.7069 10.4243 31.4778 10.33 31.2333 10.33C30.9877 10.33 30.7597 10.4243 30.5888 10.5953L28.0515 13.1327C27.8505 13.3337 27.5343 13.3648 27.2981 13.2073C25.7346 12.1629 24.0105 11.448 22.1744 11.0833C21.8948 11.0273 21.6937 10.7828 21.6937 10.4978L21.6938 6.91072C21.6938 6.40822 21.2855 6.00003 20.7829 6.00003L17.9554 6C17.453 6 17.0435 6.40825 17.0435 6.91079L17.0436 10.4978C17.0436 10.7827 16.8426 11.0273 16.5628 11.0833Z" fill="#115766"/>
<path fill-rule="evenodd" clip-rule="evenodd" d="M37.1443 18.4966C30.0563 18.4966 24.2891 24.2637 24.2891 31.3518C24.2892 38.4399 30.0561 44.207 37.1442 44.207C44.2325 44.2069 49.9994 38.4399 49.9994 31.3518C49.9994 24.2637 44.2323 18.4966 37.1443 18.4966ZM33.3448 28.1491C33.3448 26.269 34.7175 24.7038 36.5133 24.4024L36.5135 23.3964C36.5135 23.0669 36.7805 22.7997 37.1101 22.7997C37.4396 22.7997 37.7069 23.067 37.7069 23.3964L37.707 24.3914C39.5362 24.6642 40.9437 26.2453 40.9437 28.1491C40.9438 28.4786 40.6763 28.7459 40.3469 28.7459C40.0176 28.7459 39.7501 28.4786 39.7501 28.1491C39.7502 26.712 38.5813 25.5433 37.1442 25.5433C35.7073 25.5433 34.5384 26.712 34.5384 28.1491C34.5384 30.0265 35.53 30.354 37.2831 30.7716C38.9139 31.1601 40.9437 31.643 40.9437 34.5544C40.9438 36.4583 39.5361 38.0394 37.7069 38.3122L37.7071 39.3071C37.7071 39.6366 37.4395 39.9039 37.1103 39.9039C36.7806 39.9039 36.5133 39.6366 36.5133 39.3071L36.5134 38.3012C34.7177 37.9998 33.3448 36.4346 33.3448 34.5544C33.3448 34.225 33.6121 33.9576 33.9416 33.9576C34.2712 33.9576 34.5384 34.225 34.5384 34.5544C34.5384 35.9915 35.7071 37.1603 37.1442 37.1603C38.5815 37.1603 39.7501 35.9915 39.7501 34.5544C39.7502 32.677 38.7585 32.3496 37.0064 31.932C35.3746 31.5434 33.3448 31.0606 33.3448 28.1491Z" fill="#115766"/>
</svg>
