<svg width="50" height="50" viewBox="0 0 50 50" fill="none" xmlns="http://www.w3.org/2000/svg">
<g clip-path="url(#clip0_2654_61482)">
<path fill-rule="evenodd" clip-rule="evenodd" d="M13.5312 10.0706C14.7591 10.403 16.001 10.6822 17.2569 10.908C19.3639 9.75155 21.7048 9.08552 24.105 8.95983V0.03125C19.7824 0.500419 15.9728 4.34135 13.5312 10.0706Z" fill="#115766"/>
<path fill-rule="evenodd" clip-rule="evenodd" d="M38.3406 16.0285C38.0236 14.5765 37.6147 13.1463 37.1163 11.7461C36.3639 11.9534 35.6063 12.1408 34.8438 12.3082C36.199 13.3554 37.3792 14.6112 38.3406 16.0285Z" fill="#115766"/>
<path fill-rule="evenodd" clip-rule="evenodd" d="M32.2031 1.03931C34.8235 3.38388 36.859 6.30895 38.1468 9.58082C39.8214 9.05476 41.4628 8.42803 43.0619 7.70414C40.0772 4.58388 36.3366 2.28798 32.2031 1.03931Z" fill="#115766"/>
<path fill-rule="evenodd" clip-rule="evenodd" d="M36.4644 10.0706C34.0229 4.34135 30.2132 0.500419 25.8906 0.03125V8.95973C28.2908 9.08552 30.6317 9.75145 32.7387 10.9079C33.9935 10.6839 35.2353 10.4048 36.4644 10.0706Z" fill="#115766"/>
<path fill-rule="evenodd" clip-rule="evenodd" d="M11.1975 11.2493C9.31916 10.6505 7.48178 9.93026 5.69708 9.0929C2.19268 13.3312 0.189427 18.6102 0 24.1064H8.9276C8.98566 19.7263 9.75216 15.3844 11.1975 11.2493Z" fill="#115766"/>
<path fill-rule="evenodd" clip-rule="evenodd" d="M15.1531 12.31C14.3905 12.142 13.633 11.9547 12.8806 11.7479C12.3822 13.148 11.9733 14.5784 11.6562 16.0304C12.6176 14.6129 13.7979 13.3572 15.1531 12.31Z" fill="#115766"/>
<path fill-rule="evenodd" clip-rule="evenodd" d="M11.8559 9.58094C13.1437 6.30907 15.1792 3.3839 17.7996 1.03943C13.6677 2.28879 9.92874 4.58458 6.94531 7.70426C8.54293 8.42796 10.1828 9.05459 11.8559 9.58094Z" fill="#115766"/>
<path fill-rule="evenodd" clip-rule="evenodd" d="M50.0022 25.8936H41.0746C41.0166 30.2736 40.25 34.6154 38.8047 38.7505C40.683 39.3492 42.5204 40.0696 44.3051 40.907C47.8095 36.6687 49.8127 31.3898 50.0022 25.8936Z" fill="#115766"/>
<path fill-rule="evenodd" clip-rule="evenodd" d="M38.3406 33.9714C37.3791 35.3882 36.1989 36.6434 34.8438 37.6899C35.6063 37.8579 36.3639 38.0453 37.1163 38.252C37.6146 36.8525 38.0235 35.4227 38.3406 33.9714Z" fill="#115766"/>
<path d="M25.0015 39.2984C32.8983 39.2984 39.3 32.8968 39.3 24.9999C39.3 17.103 32.8984 10.7014 25.0015 10.7014C17.1046 10.7014 10.7031 17.1031 10.7031 24.9999C10.7124 32.8929 17.1086 39.289 25.0015 39.2984ZM35.7255 30.3619C35.7252 30.9644 35.4606 31.5364 35.0016 31.9267L31.0355 35.2333C30.6703 35.5394 30.2092 35.7076 29.7326 35.7087C29.4308 35.7081 29.1328 35.6414 28.8595 35.513C28.2281 35.2214 27.7908 34.6262 27.7013 33.9366H21.427C19.9463 33.9366 18.7459 32.7363 18.7459 31.2556V29.4683C18.7459 27.9876 19.9462 26.7873 21.427 26.7873H27.7013C27.8011 26.0508 28.293 25.4266 28.9858 25.1574C29.6786 24.8882 30.4629 25.0164 31.0337 25.4924L34.9926 28.7908C35.4566 29.1809 35.7248 29.7558 35.7255 30.3619ZM15.0034 18.0732L18.9694 14.7667C19.5405 14.2908 20.3252 14.1626 21.018 14.4322C21.7109 14.7018 22.2025 15.3265 22.3018 16.0633H28.5761C30.0567 16.0633 31.2571 17.2636 31.2571 18.7443V20.5317C31.2571 22.0123 30.0568 23.2127 28.5761 23.2127H22.3018C22.212 23.9012 21.7755 24.4957 21.1454 24.7873C20.8722 24.9157 20.5741 24.9825 20.2722 24.983C19.7956 24.9819 19.3346 24.8137 18.9693 24.5076L15.0104 21.21C14.5485 20.8205 14.2813 20.2475 14.28 19.6433C14.2787 19.039 14.5432 18.4648 15.0034 18.0732Z" fill="#115766"/>
<path fill-rule="evenodd" clip-rule="evenodd" d="M32.7387 39.092C30.6318 40.2484 28.2909 40.9145 25.8906 41.0402V49.9686C30.2132 49.4995 34.0229 45.6585 36.4643 39.9293C35.2365 39.597 33.9946 39.3178 32.7387 39.092Z" fill="#115766"/>
<path fill-rule="evenodd" clip-rule="evenodd" d="M44.306 9.0929C42.5209 9.92938 40.6832 10.6488 38.8047 11.2466C40.2506 15.3825 41.0175 19.7252 41.0755 24.1063H50.0031C49.8135 18.6101 47.8104 13.3312 44.306 9.0929Z" fill="#115766"/>
<path fill-rule="evenodd" clip-rule="evenodd" d="M38.1468 40.4191C36.859 43.6909 34.8235 46.6161 32.2031 48.9606C36.335 47.7112 40.074 45.4154 43.0574 42.2957C41.4598 41.572 39.8199 40.9454 38.1468 40.4191Z" fill="#115766"/>
<path fill-rule="evenodd" clip-rule="evenodd" d="M29.6152 26.8311C29.5226 26.8704 29.4639 26.9629 29.4677 27.0634V27.681C29.4677 28.1745 29.0677 28.5747 28.5741 28.5747H21.4249C20.9314 28.5747 20.5312 28.9747 20.5312 29.4683V31.2557C20.5312 31.7492 20.9313 32.1493 21.4249 32.1493H28.5742C29.0677 32.1493 29.4678 32.5494 29.4678 33.043V33.6605C29.4679 33.76 29.5256 33.8506 29.6158 33.8927C29.706 33.9348 29.8124 33.9209 29.8888 33.8571L33.8468 30.5604C33.9041 30.5105 33.9368 30.438 33.9362 30.362C33.936 30.2835 33.9014 30.209 33.8415 30.1582L29.8906 26.866C29.8148 26.7985 29.7054 26.7846 29.6152 26.8311Z" fill="#115766"/>
<path fill-rule="evenodd" clip-rule="evenodd" d="M20.11 23.134C20.1865 23.1979 20.2931 23.2117 20.3834 23.1694C20.4736 23.127 20.5311 23.0362 20.5309 22.9365V22.319C20.5309 21.8255 20.9309 21.4253 21.4245 21.4253H28.5738C29.0673 21.4253 29.4674 21.0253 29.4674 20.5317V18.7443C29.4674 18.2508 29.0674 17.8507 28.5738 17.8507H21.4245C20.931 17.8507 20.5309 17.4506 20.5309 16.957V16.3394C20.5348 16.2389 20.476 16.1464 20.3834 16.1071C20.348 16.0899 20.3092 16.0808 20.2699 16.0803C20.2107 16.0813 20.1541 16.1035 20.1099 16.1429L16.1518 19.4396C16.0946 19.4895 16.0619 19.5619 16.0625 19.638C16.0625 19.7168 16.0971 19.7916 16.1572 19.8427L20.11 23.134Z" fill="#115766"/>
<path fill-rule="evenodd" clip-rule="evenodd" d="M15.1531 37.6899C13.7979 36.6428 12.6176 35.3871 11.6562 33.9696C11.9732 35.4216 12.3822 36.8519 12.8806 38.252C13.6324 38.0459 14.3899 37.8585 15.1531 37.6899Z" fill="#115766"/>
<path fill-rule="evenodd" clip-rule="evenodd" d="M24.105 49.9686V41.0402C21.7049 40.9144 19.364 40.2484 17.2569 39.092C16.0022 39.3167 14.7604 39.5958 13.5312 39.9294C15.9728 45.6585 19.7824 49.4995 24.105 49.9686Z" fill="#115766"/>
<path fill-rule="evenodd" clip-rule="evenodd" d="M17.7996 48.9607C15.1792 46.6161 13.1437 43.6911 11.8559 40.4192C10.1829 40.9454 8.54293 41.5722 6.94531 42.2959C9.92874 45.4155 13.6677 47.7113 17.7996 48.9607Z" fill="#115766"/>
<path fill-rule="evenodd" clip-rule="evenodd" d="M11.1975 38.7507C9.75216 34.6155 8.98566 30.2738 8.9276 25.8937H0C0.189427 31.3899 2.19268 36.6688 5.69708 40.9071C7.48178 40.0697 9.31916 39.3493 11.1975 38.7507Z" fill="#115766"/>
</g>
<defs>
<clipPath id="clip0_2654_61482">
<rect width="50" height="50" fill="white"/>
</clipPath>
</defs>
</svg>
