<svg width="50" height="50" viewBox="0 0 50 50" fill="none" xmlns="http://www.w3.org/2000/svg">
<path fill-rule="evenodd" clip-rule="evenodd" d="M25 4.7832C33.6731 4.7832 40.7292 11.8393 40.7292 20.5124C40.7292 29.1855 33.6729 36.2415 25 36.2415C16.3271 36.2415 9.27061 29.185 9.27061 20.5124C9.27061 11.8398 16.3271 4.7832 25 4.7832ZM2.33301 14.4769V40.2386H47.6665V14.4769C47.6658 13.9987 47.4755 13.5404 47.1373 13.2024C46.7992 12.8644 46.3408 12.6742 45.8627 12.6736H40.5273C41.7594 15.1028 42.3998 17.7887 42.3965 20.5124C42.3965 30.1038 34.5921 37.9082 25.0001 37.9082C15.4081 37.9082 7.60391 30.1038 7.60391 20.5124C7.60065 17.7888 8.24096 15.1029 9.47266 12.6736H4.1373C3.65915 12.6743 3.20074 12.8644 2.86254 13.2024C2.52433 13.5404 2.33391 13.9987 2.33301 14.4769ZM20.258 41.905H29.7414V42.728H20.258V41.905ZM50 43.8832V41.905H31.4082V43.0656C31.4078 43.4178 31.2678 43.7555 31.0189 44.0047C30.7699 44.2538 30.4323 44.3941 30.0801 44.3947H19.9195C19.5673 44.3941 19.2297 44.2539 18.9807 44.0047C18.7317 43.7556 18.5917 43.4179 18.5914 43.0656V41.905H0V43.8832C0.000620289 44.2369 0.141457 44.5759 0.391631 44.8259C0.641805 45.0758 0.9809 45.2164 1.33457 45.2168H48.6654C49.0191 45.2164 49.3582 45.0758 49.6083 44.8258C49.8585 44.5758 49.9994 44.2369 50 43.8832ZM22.2978 24.0478C22.2978 23.8267 22.2099 23.6147 22.0537 23.4585C21.8974 23.3022 21.6854 23.2144 21.4644 23.2144C21.2433 23.2144 21.0313 23.3022 20.8751 23.4585C20.7188 23.6147 20.631 23.8267 20.631 24.0478C20.6327 25.0612 20.9861 26.0426 21.6308 26.8246C22.2755 27.6065 23.1716 28.1405 24.1661 28.3354V29.2285C24.1649 29.3387 24.1856 29.448 24.2269 29.5502C24.2683 29.6524 24.3295 29.7453 24.407 29.8236C24.4845 29.902 24.5768 29.9642 24.6785 30.0066C24.7802 30.0491 24.8893 30.0709 24.9995 30.0709C25.1097 30.0709 25.2188 30.0491 25.3205 30.0066C25.4222 29.9642 25.5144 29.902 25.5919 29.8236C25.6694 29.7453 25.7306 29.6524 25.772 29.5502C25.8133 29.448 25.834 29.3387 25.8328 29.2285V28.3353C26.8274 28.1404 27.7235 27.6065 28.3683 26.8245C29.013 26.0425 29.3663 25.061 29.368 24.0476C29.368 21.0881 27.486 20.2935 25.8328 19.8592V14.4081C26.3755 14.5844 26.8485 14.9278 27.1842 15.3892C27.5199 15.8506 27.7011 16.4064 27.702 16.977C27.702 17.1979 27.7897 17.4098 27.946 17.566C28.1022 17.7223 28.3141 17.8101 28.5351 17.8101C28.756 17.8101 28.9679 17.7223 29.1242 17.566C29.2804 17.4098 29.3682 17.1979 29.3682 16.977C29.3665 15.9635 29.0131 14.9821 28.3684 14.2003C27.7237 13.4184 26.8275 12.8845 25.833 12.6898V11.796C25.8306 11.5765 25.7418 11.3669 25.5858 11.2125C25.4297 11.0582 25.2191 10.9716 24.9997 10.9716C24.7802 10.9716 24.5696 11.0582 24.4136 11.2125C24.2575 11.3669 24.1687 11.5765 24.1663 11.796V12.6898C23.1717 12.8846 22.2756 13.4186 21.6309 14.2005C20.9862 14.9825 20.6328 15.964 20.6312 16.9774C20.6312 19.9364 22.5137 20.7314 24.1663 21.1658V26.6171C23.6239 26.4406 23.1511 26.0972 22.8155 25.6359C22.4799 25.1747 22.2986 24.6192 22.2977 24.0487L22.2978 24.0478ZM27.7022 24.0478C27.7022 22.4892 27.0645 21.9707 25.8331 21.5924V26.6166C26.3757 26.4403 26.8487 26.097 27.1844 25.6357C27.5201 25.1744 27.7013 24.6188 27.7022 24.0482V24.0478ZM22.2978 16.9774C22.2978 18.5355 22.9351 19.0545 24.1664 19.4328V14.4081C23.6238 14.5845 23.1509 14.928 22.8153 15.3893C22.4797 15.8507 22.2985 16.4064 22.2978 16.977V16.9774ZM25 34.0539C32.4669 34.0539 38.5416 27.9797 38.5416 20.5124C38.5416 13.0451 32.4666 6.9708 25 6.9708C17.5334 6.9708 11.4582 13.0455 11.4582 20.5124C11.4582 27.9793 17.5334 34.0539 25 34.0539ZM25 8.63701C22.6513 8.63701 20.3554 9.33347 18.4026 10.6383C16.4498 11.9432 14.9277 13.7978 14.0289 15.9676C13.1301 18.1375 12.895 20.5252 13.3532 22.8287C13.8114 25.1322 14.9424 27.2482 16.6031 28.9089C18.2639 30.5697 20.3798 31.7006 22.6833 32.1588C24.9868 32.617 27.3745 32.3819 29.5444 31.4831C31.7142 30.5843 33.5689 29.0622 34.8737 27.1094C36.1785 25.1566 36.875 22.8607 36.875 20.512C36.8714 17.3637 35.6191 14.3453 33.3929 12.1191C31.1667 9.89287 28.1483 8.6406 25 8.63701Z" fill="#115766"/>
</svg>
