<svg width="50" height="50" viewBox="0 0 50 50" fill="none" xmlns="http://www.w3.org/2000/svg">
<g clip-path="url(#clip0_2654_61478)">
<path d="M16.4914 36.3213C16.4914 27.2198 23.8722 19.7321 33.0823 19.7139V16.5909C33.0823 14.1696 31.1119 12.1992 28.6906 12.1992H24.8923V6.7418C24.8923 3.02441 21.8679 0 18.1505 0C14.4332 0 11.4087 3.02441 11.4087 6.7418V12.1992H7.61045C5.18916 12.1992 3.21875 14.1696 3.21875 16.5909V45.5762C3.21875 47.9975 5.18916 49.9679 7.61045 49.9679H23.644C19.2692 46.9247 16.4914 41.9069 16.4914 36.3213ZM14.3365 6.7418C14.3365 4.63867 16.0474 2.92783 18.1505 2.92783C20.2536 2.92783 21.9645 4.63867 21.9645 6.7418V12.1992H14.3365V6.7418Z" fill="#115766"/>
<path d="M33.085 22.6417C25.5276 22.6567 19.4219 28.7994 19.4219 36.3214C19.4219 43.8499 25.543 50.0001 33.1016 50.0001C40.6445 50.0001 46.7803 43.8644 46.7803 36.3214C46.7802 28.8243 40.6972 22.6417 33.085 22.6417ZM27.9221 31.1418C28.4941 30.5698 29.4216 30.5698 29.9937 31.1418C30.5657 31.7139 30.5657 32.6413 29.9937 33.2134C29.4216 33.7855 28.4941 33.7855 27.9221 33.2134C27.35 32.6414 27.35 31.7139 27.9221 31.1418ZM38.28 41.4998C37.7079 42.0719 36.7805 42.0719 36.2084 41.4998C35.6363 40.9278 35.6363 40.0003 36.2084 39.4282C36.7805 38.8562 37.7079 38.8562 38.28 39.4282C38.8521 40.0003 38.8521 40.9278 38.28 41.4998ZM38.2801 33.2134L29.9936 41.4998C29.4215 42.0719 28.4939 42.0719 27.922 41.4998C27.3499 40.9278 27.3499 40.0003 27.922 39.4282L36.2085 31.1418C36.7805 30.5698 37.708 30.5698 38.2801 31.1418C38.8521 31.7139 38.8521 32.6414 38.2801 33.2134Z" fill="#115766"/>
</g>
<defs>
<clipPath id="clip0_2654_61478">
<rect width="50" height="50" fill="white"/>
</clipPath>
</defs>
</svg>
