<svg width="50" height="50" viewBox="0 0 50 50" fill="none" xmlns="http://www.w3.org/2000/svg">
<g clip-path="url(#clip0_2653_61406)">
<path d="M25 0C11.215 0 0 11.215 0 25C0 38.785 11.215 50 24.9998 50C38.7848 50 49.9998 38.785 49.9998 25C49.9998 11.215 38.785 0 25 0ZM22.9892 1.94641H26.8673V5.82459H22.9892V1.94641ZM42.4595 25C42.4595 34.6273 34.6271 42.4595 25 42.4595C15.3729 42.4595 7.54068 34.6271 7.54068 25C7.54068 15.3729 15.3731 7.54046 25 7.54046C34.6271 7.54046 42.4595 15.3729 42.4595 25ZM10.0699 7.32759L12.8122 10.0699L10.0699 12.8122L7.32759 10.0699L10.0699 7.32759ZM5.75284 26.9391H1.87467V23.0609H5.75284V26.9391ZM10.0699 42.6726L7.32759 39.9303L10.0699 37.188L12.8122 39.9303L10.0699 42.6726ZM26.8673 48.0536H22.9892V44.1754H26.8673V48.0536ZM39.9301 42.6726L37.1878 39.9303L39.9301 37.188L42.6724 39.9303L39.9301 42.6726ZM39.9301 12.8122L37.1878 10.0699L39.9301 7.32759L42.6724 10.0699L39.9301 12.8122ZM44.1037 26.9391V23.0609H47.9818V26.9391H44.1037Z" fill="#115766"/>
<path d="M10.7734 24.9999C10.7734 32.8451 17.1558 39.2277 25.0009 39.2277C32.8461 39.2277 39.2287 32.8451 39.2287 24.9999C39.2287 17.1548 32.8461 10.7722 25.0009 10.7722C17.1558 10.7722 10.7734 17.1548 10.7734 24.9999ZM31.8041 23.7938C32.4753 24.8853 32.6916 25.8562 32.6916 27.0095C32.6916 29.8599 30.6801 31.3925 28.3933 31.3925C26.8334 31.3925 25.9451 30.6554 25.4605 30.0422L26.2874 32.9717H23.6882L24.4968 30.1094C23.9971 30.7041 23.1224 31.4498 21.6194 31.4498C19.3326 31.4498 17.3101 29.8888 17.3101 27.0381C17.3101 25.8846 17.521 24.8851 18.192 23.7936C19.2382 22.0913 25.016 17.1915 25.016 17.1915C25.016 17.1915 30.7579 22.0915 31.8041 23.7938Z" fill="#115766"/>
</g>
<defs>
<clipPath id="clip0_2653_61406">
<rect width="50" height="50" fill="white"/>
</clipPath>
</defs>
</svg>
