<svg width="50" height="50" viewBox="0 0 50 50" fill="none" xmlns="http://www.w3.org/2000/svg">
<path d="M46.0625 45.3203H3.9375C3.7303 45.3203 3.53159 45.4026 3.38507 45.5491C3.23856 45.6957 3.15625 45.8944 3.15625 46.1016C3.15625 46.3088 3.23856 46.5075 3.38507 46.654C3.53159 46.8005 3.7303 46.8828 3.9375 46.8828H46.0625C46.2697 46.8828 46.4684 46.8005 46.6149 46.654C46.7614 46.5075 46.8438 46.3088 46.8438 46.1016C46.8438 45.8944 46.7614 45.6957 46.6149 45.5491C46.4684 45.4026 46.2697 45.3203 46.0625 45.3203Z" fill="#115766"/>
<path d="M13.5938 30.4531C13.3867 30.4537 13.1884 30.5362 13.042 30.6826C12.8956 30.829 12.8131 31.0274 12.8125 31.2344V43.7578H20.0781V31.2344C20.0775 31.0274 19.995 30.829 19.8486 30.6826C19.7022 30.5363 19.5039 30.4537 19.2969 30.4531H13.5938Z" fill="#115766"/>
<path d="M5.04691 36.7266C4.94404 36.7256 4.84199 36.7451 4.74675 36.784C4.6515 36.8229 4.56497 36.8804 4.49223 36.9532C4.41948 37.0259 4.36197 37.1124 4.32307 37.2077C4.28416 37.3029 4.26465 37.405 4.26566 37.5079V43.7578H11.5235V37.5079C11.5245 37.405 11.505 37.3029 11.4661 37.2077C11.4272 37.1124 11.3697 37.0259 11.2969 36.9532C11.2242 36.8804 11.1376 36.8229 11.0424 36.784C10.9471 36.7451 10.8451 36.7256 10.7422 36.7266H5.04691Z" fill="#115766"/>
<path d="M22.1484 24.75C21.9414 24.7506 21.7431 24.8331 21.5967 24.9795C21.4503 25.1259 21.3678 25.3242 21.3672 25.5312V43.7578H28.6328V25.5312C28.6322 25.3242 28.5497 25.1259 28.4033 24.9795C28.2569 24.8331 28.0586 24.7506 27.8516 24.75H22.1484Z" fill="#115766"/>
<path d="M30.7031 30.4531C30.4961 30.4537 30.2978 30.5363 30.1514 30.6826C30.005 30.829 29.9225 31.0274 29.9219 31.2344V43.7578H37.1875V31.2344C37.1869 31.0274 37.1044 30.829 36.958 30.6826C36.8116 30.5362 36.6133 30.4537 36.4062 30.4531H30.7031Z" fill="#115766"/>
<path d="M38.4766 22.6797V43.7578H45.7344V22.6797C45.7347 22.577 45.7148 22.4752 45.6756 22.3803C45.6365 22.2854 45.579 22.1991 45.5064 22.1265C45.4337 22.0539 45.3475 21.9963 45.2525 21.9572C45.1576 21.918 45.0558 21.8981 44.9531 21.8984H39.2578C39.1551 21.8981 39.0534 21.918 38.9584 21.9572C38.8635 21.9963 38.7772 22.0539 38.7046 22.1265C38.632 22.1991 38.5744 22.2854 38.5353 22.3803C38.4962 22.4752 38.4762 22.577 38.4766 22.6797Z" fill="#115766"/>
<path d="M18.1287 22.3125C17.6665 21.9008 17.0679 21.6753 16.449 21.6797C16.039 21.6786 15.6347 21.7762 15.2703 21.9642C14.906 22.1522 14.5922 22.4251 14.3554 22.7599C14.1187 23.0947 13.966 23.4815 13.9102 23.8877C13.8545 24.2939 13.8972 24.7076 14.0349 25.0938L9.37867 28.6328C8.94798 28.3253 8.43133 28.1612 7.90211 28.1641C7.35552 28.162 6.82249 28.3341 6.38033 28.6555C5.93817 28.9768 5.60986 29.4307 5.44304 29.9512C5.27622 30.4717 5.27954 31.0318 5.45254 31.5503C5.62554 32.0688 5.9592 32.5187 6.40515 32.8347C6.8511 33.1508 7.38614 33.3166 7.93266 33.308C8.47919 33.2995 9.00878 33.1171 9.44464 32.7872C9.88049 32.4574 10.1999 31.9973 10.3566 31.4736C10.5134 30.95 10.4992 30.39 10.3162 29.875L14.9802 26.3438C15.3646 26.6118 15.815 26.7694 16.2826 26.7994C16.7502 26.8295 17.217 26.7308 17.6325 26.5142C18.048 26.2976 18.3962 25.9714 18.6393 25.5708C18.8824 25.1702 19.0111 24.7107 19.0115 24.2422C19.0135 24.0416 18.9872 23.8417 18.9334 23.6484L23.3318 20.9844C23.7969 21.3887 24.3928 21.6108 25.009 21.6094C25.6253 21.6079 26.2202 21.3831 26.6834 20.9766L31.074 23.6484C31.0202 23.8417 30.9939 24.0416 30.9959 24.2422C30.9959 24.9218 31.2658 25.5736 31.7464 26.0542C32.227 26.5347 32.8787 26.8047 33.5584 26.8047C34.238 26.8047 34.8898 26.5347 35.3703 26.0542C35.8509 25.5736 36.1209 24.9218 36.1209 24.2422C36.1225 23.8337 36.0232 23.4312 35.8318 23.0703L41.7459 17.1563V18.3125C41.7459 18.5197 41.8282 18.7184 41.9747 18.8649C42.1212 19.0114 42.3199 19.0938 42.5271 19.0938C42.7343 19.0938 42.933 19.0114 43.0795 18.8649C43.226 18.7184 43.3084 18.5197 43.3084 18.3125V15.1797C43.3087 15.077 43.2887 14.9752 43.2496 14.8803C43.2105 14.7854 43.1529 14.6991 43.0803 14.6265C43.0077 14.5539 42.9214 14.4963 42.8265 14.4572C42.7316 14.418 42.6298 14.3981 42.5271 14.3984H39.4021C39.1949 14.3984 38.9962 14.4808 38.8497 14.6273C38.7032 14.7738 38.6209 14.9725 38.6209 15.1797C38.6209 15.3869 38.7032 15.5856 38.8497 15.7321C38.9962 15.8786 39.1949 15.9609 39.4021 15.9609H40.738L34.7302 21.9688C34.2759 21.731 33.7602 21.6365 33.2511 21.6979C32.742 21.7593 32.2635 21.9736 31.8787 22.3125L27.488 19.6484C27.5414 19.4524 27.5676 19.25 27.5662 19.0469C27.5662 18.3673 27.2962 17.7155 26.8156 17.2349C26.3351 16.7543 25.6833 16.4844 25.0036 16.4844C24.324 16.4844 23.6722 16.7543 23.1917 17.2349C22.7111 17.7155 22.4411 18.3673 22.4411 19.0469C22.4396 19.25 22.4659 19.4524 22.5192 19.6484L18.1287 22.3125Z" fill="#115766"/>
<path d="M12.5156 21.1094C14.2937 21.1101 16.032 20.5836 17.5107 19.5962C18.9894 18.6089 20.1421 17.2051 20.8229 15.5626C21.5037 13.92 21.682 12.1124 21.3353 10.3685C20.9886 8.62461 20.1325 7.02269 18.8752 5.76542C17.6179 4.50815 16.016 3.65202 14.2721 3.30533C12.5282 2.95864 10.7206 3.13697 9.07806 3.81776C7.43551 4.49854 6.03177 5.6512 5.04442 7.12991C4.05707 8.60863 3.53048 10.347 3.53125 12.125C3.53468 14.5068 4.48235 16.79 6.1665 18.4741C7.85065 20.1583 10.1339 21.1059 12.5156 21.1094ZM12.7109 12.9063C12.0539 12.9056 11.419 12.6687 10.9222 12.2386C10.4254 11.8086 10.0999 11.2142 10.0051 10.5641C9.91036 9.91388 10.0526 9.2513 10.406 8.69735C10.7593 8.1434 11.3002 7.73505 11.9297 7.54688V6.25782C11.9297 6.05062 12.012 5.8519 12.1585 5.70539C12.305 5.55888 12.5037 5.47657 12.7109 5.47657C12.9181 5.47657 13.1169 5.55888 13.2634 5.70539C13.4099 5.8519 13.4922 6.05062 13.4922 6.25782V7.54688C14.0555 7.71576 14.5495 8.0614 14.9013 8.53271C15.253 9.00402 15.4437 9.57599 15.4453 10.1641C15.4453 10.3713 15.363 10.57 15.2165 10.7165C15.07 10.863 14.8713 10.9453 14.6641 10.9453C14.4569 10.9453 14.2581 10.863 14.1116 10.7165C13.9651 10.57 13.8828 10.3713 13.8828 10.1641C13.8813 9.93263 13.8112 9.70683 13.6815 9.51515C13.5518 9.32347 13.3683 9.17448 13.154 9.08698C12.9397 8.99948 12.7044 8.97739 12.4776 9.02348C12.2508 9.06958 12.0427 9.1818 11.8796 9.34599C11.7165 9.51019 11.6056 9.71901 11.561 9.94611C11.5165 10.1732 11.5401 10.4084 11.629 10.6221C11.718 10.8358 11.8682 11.0184 12.0607 11.1468C12.2532 11.2752 12.4795 11.3437 12.7109 11.3438C13.3676 11.3433 14.0024 11.5794 14.4992 12.0087C14.9961 12.438 15.3217 13.0318 15.4166 13.6816C15.5114 14.3313 15.3691 14.9935 15.0158 15.5469C14.6624 16.1003 14.1215 16.508 13.4922 16.6953V17.9844C13.4922 18.1916 13.4099 18.3903 13.2634 18.5368C13.1169 18.6833 12.9181 18.7656 12.7109 18.7656C12.5037 18.7656 12.305 18.6833 12.1585 18.5368C12.012 18.3903 11.9297 18.1916 11.9297 17.9844V16.6953C11.3664 16.5264 10.8723 16.1808 10.5206 15.7095C10.1689 15.2382 9.97815 14.6662 9.97656 14.0781C9.97656 13.8709 10.0589 13.6722 10.2054 13.5257C10.3519 13.3792 10.5506 13.2969 10.7578 13.2969C10.965 13.2969 11.1637 13.3792 11.3102 13.5257C11.4568 13.6722 11.5391 13.8709 11.5391 14.0781C11.5391 14.3099 11.6078 14.5365 11.7366 14.7292C11.8653 14.9219 12.0483 15.0721 12.2625 15.1608C12.4766 15.2495 12.7122 15.2727 12.9396 15.2275C13.1669 15.1823 13.3757 15.0707 13.5396 14.9068C13.7035 14.7429 13.8151 14.5341 13.8603 14.3067C13.9055 14.0794 13.8823 13.8438 13.7936 13.6297C13.7049 13.4155 13.5547 13.2325 13.362 13.1037C13.1693 12.975 12.9427 12.9063 12.7109 12.9063Z" fill="#115766"/>
</svg>
