<svg width="30" height="30" viewBox="0 0 30 30" fill="none" xmlns="http://www.w3.org/2000/svg">
<path d="M14.5124 14.5122C7.03391 14.5122 0.876657 20.1689 0.0858471 27.4369C-0.00914831 28.31 0.71194 29.0246 1.59016 29.0246H27.4345C28.3128 29.0246 29.0339 28.31 28.9389 27.4369C28.1481 20.1689 21.9908 14.5122 14.5124 14.5122Z" fill="#115766"/>
<path d="M10.4699 9.6749H18.5546C18.9937 9.6749 19.3497 9.31893 19.3497 8.87982V2.73701C19.3497 2.52661 19.2663 2.32479 19.1178 2.17576L17.1824 0.233829C17.0333 0.0841382 16.8306 0 16.6193 0H10.4699C10.0308 0 9.6748 0.35597 9.6748 0.795081V8.87982C9.6748 9.31893 10.0308 9.6749 10.4699 9.6749Z" fill="#46B2C8"/>
</svg>
