<svg width="30" height="30" viewBox="0 0 30 30" fill="none" xmlns="http://www.w3.org/2000/svg">
<path d="M14.5123 14.5122C7.25595 14.5122 1.24344 19.838 0.170372 26.7939C-0.0181602 28.016 1.00244 29.0246 2.23901 29.0246H26.7857C28.0223 29.0246 29.0429 28.016 28.8543 26.7939C27.7813 19.838 21.7687 14.5122 14.5123 14.5122Z" fill="#115766"/>
<path d="M9.41223 12.4392H19.6124C20.2307 12.4392 20.7319 11.9379 20.7319 11.3196V3.5592C20.7319 3.26295 20.6145 2.97877 20.4053 2.76894L17.9739 0.329241C17.7638 0.11847 17.4785 0 17.1809 0H9.41223C8.79394 0 8.29272 0.501221 8.29272 1.11951V11.3196C8.29272 11.9379 8.79395 12.4392 9.41223 12.4392Z" fill="#C2E2E9"/>
<path fill-rule="evenodd" clip-rule="evenodd" d="M12.6466 3.83109C12.322 3.83109 12.0764 4.08431 12.0764 4.3753C12.0764 4.66629 12.322 4.91951 12.6466 4.91951C12.9711 4.91951 13.2167 4.66629 13.2167 4.3753C13.2167 4.08431 12.9711 3.83109 12.6466 3.83109ZM11.3508 4.3753C11.3508 3.66443 11.9407 3.10547 12.6466 3.10547C13.3525 3.10547 13.9423 3.66443 13.9423 4.3753C13.9423 5.08617 13.3525 5.64513 12.6466 5.64513C11.9407 5.64513 11.3508 5.08617 11.3508 4.3753Z" fill="#115766"/>
<path fill-rule="evenodd" clip-rule="evenodd" d="M16.3783 7.4595C16.0537 7.4595 15.8081 7.71271 15.8081 8.00372C15.8081 8.29473 16.0537 8.54793 16.3783 8.54793C16.7029 8.54793 16.9484 8.29473 16.9484 8.00372C16.9484 7.71271 16.7029 7.4595 16.3783 7.4595ZM15.0825 8.00372C15.0825 7.29283 15.6723 6.73389 16.3783 6.73389C17.0842 6.73389 17.674 7.29283 17.674 8.00372C17.674 8.71461 17.0842 9.27355 16.3783 9.27355C15.6723 9.27355 15.0825 8.71461 15.0825 8.00372Z" fill="#115766"/>
<path fill-rule="evenodd" clip-rule="evenodd" d="M17.2605 3.51811C17.4001 3.66177 17.3969 3.89147 17.2532 4.03114L12.2776 8.86859C12.1339 9.00827 11.9042 9.00503 11.7645 8.86137C11.6249 8.7177 11.6281 8.48801 11.7718 8.34833L16.7474 3.51088C16.8911 3.3712 17.1208 3.37444 17.2605 3.51811Z" fill="#115766"/>
</svg>
