<svg width="29" height="28" viewBox="0 0 29 28" fill="none" xmlns="http://www.w3.org/2000/svg">
<path d="M28.0892 9.88812V25.6363C28.0892 26.9413 27.0505 28 25.7703 28H18.2645H2.31886C1.03868 28 0 26.9413 0 25.6363V2.36365C0 1.05874 1.03868 2.82319e-07 2.31886 2.82319e-07H17.5699C18.1427 2.82319e-07 18.6962 0.21567 19.1215 0.607796L27.3219 8.13227C27.8092 8.57885 28.0892 9.21715 28.0892 9.88812Z" fill="#115766"/>
<path d="M14.0448 14C9.77041 14 6.14484 16.7779 4.87497 20.6269C4.34236 22.2412 5.76892 23.6539 7.46882 23.6539H20.6208C22.3207 23.6539 23.7472 22.2412 23.2146 20.6269C21.9448 16.7779 18.3192 14 14.0448 14Z" fill="#46B2C8"/>
<path d="M11.4464 12.621H16.6433C17.4932 12.621 18.1823 11.932 18.1823 11.082V7.04205C18.1823 6.6348 18.0208 6.24414 17.7334 5.95568L16.5804 4.7988C16.2916 4.50905 15.8994 4.34619 15.4903 4.34619H11.4464C10.5965 4.34619 9.90747 5.03522 9.90747 5.88517V11.082C9.90747 11.932 10.5965 12.621 11.4464 12.621Z" fill="#C2E2E9"/>
<path fill-rule="evenodd" clip-rule="evenodd" d="M14.0448 5.53271C14.178 5.53271 14.2861 5.64077 14.2861 5.77406V6.3602H15.6997C15.833 6.3602 15.9411 6.46825 15.9411 6.60155C15.9411 6.73484 15.833 6.84289 15.6997 6.84289H14.2861V8.29099H14.7343C15.4008 8.29099 15.9411 8.83127 15.9411 9.49774C15.9411 10.1642 15.4008 10.7045 14.7343 10.7045H14.2861V11.2906C14.2861 11.4239 14.178 11.532 14.0448 11.532C13.9115 11.532 13.8034 11.4239 13.8034 11.2906V10.7045H12.3898C12.2565 10.7045 12.1484 10.5964 12.1484 10.4631C12.1484 10.3298 12.2565 10.2218 12.3898 10.2218H13.8034V8.77369H13.3552C12.6887 8.77369 12.1484 8.23341 12.1484 7.56694C12.1484 6.90047 12.6887 6.3602 13.3552 6.3602H13.8034V5.77406C13.8034 5.64077 13.9115 5.53271 14.0448 5.53271ZM13.8034 6.84289H13.3552C12.9553 6.84289 12.6311 7.16706 12.6311 7.56694C12.6311 7.96682 12.9553 8.29099 13.3552 8.29099H13.8034V6.84289ZM14.2861 8.77369V10.2218H14.7343C15.1342 10.2218 15.4584 9.89762 15.4584 9.49774C15.4584 9.09785 15.1342 8.77369 14.7343 8.77369H14.2861Z" fill="#46B2C8"/>
</svg>
