<svg width="47" height="47" viewBox="0 0 47 47" fill="none" xmlns="http://www.w3.org/2000/svg">
<path d="M38.286 7H1.71402C0.767394 7 0 7.76739 0 8.71402V45.286C0 46.2326 0.767392 47 1.71402 47H28.9004C29.355 47 29.791 46.8194 30.1124 46.498L39.498 37.1124C39.8194 36.791 40 36.355 40 35.9004V8.71402C40 7.76739 39.2326 7 38.286 7Z" fill="#E0F1F4"/>
<circle cx="35.5" cy="11.5" r="11.5" fill="#115766"/>
<path d="M33.16 15.08C34.78 15.08 35.88 13.8 35.88 11.5C35.88 9.2 34.78 7.92 33.16 7.92C31.54 7.92 30.43 9.2 30.43 11.5C30.43 13.8 31.54 15.08 33.16 15.08ZM33.16 13.73C32.43 13.73 31.94 13.07 31.94 11.5C31.94 9.93 32.43 9.27 33.16 9.27C33.89 9.27 34.38 9.93 34.38 11.5C34.38 13.07 33.89 13.73 33.16 13.73ZM38.3905 8C38.2505 8.65 37.9005 8.89 36.9805 8.89H36.6105V10.19H38.1005V15H39.5805V8H38.3905Z" fill="white"/>
</svg>
