<svg width="47" height="47" viewBox="0 0 47 47" fill="none" xmlns="http://www.w3.org/2000/svg">
<path d="M38.286 7H1.71402C0.767394 7 0 7.76739 0 8.71402V45.286C0 46.2326 0.767392 47 1.71402 47H28.9004C29.355 47 29.791 46.8194 30.1124 46.498L39.498 37.1124C39.8194 36.791 40 36.355 40 35.9004V8.71402C40 7.76739 39.2326 7 38.286 7Z" fill="#E0F1F4"/>
<circle cx="35.5" cy="11.5" r="11.5" fill="#115766"/>
<path d="M33.16 15.08C34.78 15.08 35.88 13.8 35.88 11.5C35.88 9.2 34.78 7.92 33.16 7.92C31.54 7.92 30.43 9.2 30.43 11.5C30.43 13.8 31.54 15.08 33.16 15.08ZM33.16 13.73C32.43 13.73 31.94 13.07 31.94 11.5C31.94 9.93 32.43 9.27 33.16 9.27C33.89 9.27 34.38 9.93 34.38 11.5C34.38 13.07 33.89 13.73 33.16 13.73ZM40.6084 11.41C41.2384 11.1 41.5284 10.55 41.5284 9.9C41.5284 8.72 40.5884 7.92 39.2284 7.92C37.7884 7.92 36.7884 8.8 36.7784 10.19H38.2384C38.2784 9.57 38.6184 9.27 39.1784 9.27C39.7284 9.27 40.0484 9.57 40.0484 10.06C40.0484 10.51 39.7684 10.82 39.1384 10.82H38.4684V12.04H39.1584C39.8384 12.04 40.1984 12.35 40.1984 12.85C40.1984 13.36 39.8184 13.73 39.2084 13.73C38.6284 13.73 38.2284 13.39 38.2084 12.78H36.7284C36.7384 14.22 37.7084 15.08 39.1884 15.08C40.6784 15.08 41.6784 14.21 41.6784 13.02C41.6784 12.3 41.3084 11.72 40.6084 11.41Z" fill="white"/>
</svg>
