<svg width="47" height="47" viewBox="0 0 47 47" fill="none" xmlns="http://www.w3.org/2000/svg">
<path d="M38.286 7H1.71402C0.767394 7 0 7.76739 0 8.71402V45.286C0 46.2326 0.767392 47 1.71402 47H28.9004C29.355 47 29.791 46.8194 30.1124 46.498L39.498 37.1124C39.8194 36.791 40 36.355 40 35.9004V8.71402C40 7.76739 39.2326 7 38.286 7Z" fill="#E0F1F4"/>
<circle cx="35.5" cy="11.5" r="11.5" fill="#115766"/>
<path d="M33.16 15.08C34.78 15.08 35.88 13.8 35.88 11.5C35.88 9.2 34.78 7.92 33.16 7.92C31.54 7.92 30.43 9.2 30.43 11.5C30.43 13.8 31.54 15.08 33.16 15.08ZM33.16 13.73C32.43 13.73 31.94 13.07 31.94 11.5C31.94 9.93 32.43 9.27 33.16 9.27C33.89 9.27 34.38 9.93 34.38 11.5C34.38 13.07 33.89 13.73 33.16 13.73ZM39.5484 10.38C39.1184 10.38 38.7284 10.48 38.3984 10.68L38.5684 9.35H41.2784V8H37.3084L36.8384 12.06H38.2484C38.4684 11.73 38.8484 11.55 39.2584 11.55C39.8684 11.55 40.2684 11.96 40.2684 12.62C40.2684 13.29 39.8584 13.73 39.2184 13.73C38.6684 13.73 38.2684 13.4 38.2184 12.86H36.7384C36.7784 14.24 37.7884 15.08 39.1884 15.08C40.7184 15.08 41.7484 14.11 41.7484 12.67C41.7484 11.26 40.7984 10.38 39.5484 10.38Z" fill="white"/>
</svg>
