<svg width="42" height="32" viewBox="0 0 42 32" fill="none" xmlns="http://www.w3.org/2000/svg">
<path d="M-0.000825882 23.4413V1.01299C-0.000825882 0.45363 0.448135 0.000181198 1.00749 0.000181198H15.047C15.2991 0.000181198 15.5402 0.0942497 15.7267 0.263988L18.9424 3.19092C19.1532 3.38285 19.2734 3.65169 19.2734 3.93683V23.4482C19.2734 24.0075 18.82 24.4541 18.2606 24.4541H1.01198C0.452623 24.4541 -0.000825882 24.0007 -0.000825882 23.4413Z" fill="#115766"/>
<path d="M13.5831 18.7412C13.2892 18.7412 13.0508 18.9832 13.0508 19.2817C13.0508 19.5801 13.2892 19.8221 13.5831 19.8221H41.3097C41.6036 19.8221 41.842 19.5801 41.842 19.2817C41.842 18.9832 41.6036 18.7412 41.3097 18.7412L13.5831 18.7412Z" fill="#46B2C8"/>
<path d="M13.5831 29.3682C13.2892 29.3682 13.0508 29.6102 13.0508 29.9086C13.0508 30.207 13.2892 30.4491 13.5831 30.4491H41.3097C41.6036 30.4491 41.842 30.207 41.842 29.9086C41.842 29.6102 41.6036 29.3682 41.3097 29.3682L13.5831 29.3682Z" fill="#46B2C8"/>
<path d="M13.5831 9.61914C13.2892 9.61914 13.0508 9.86117 13.0508 10.1596C13.0508 10.458 13.2892 10.7 13.5831 10.7H41.3097C41.6036 10.7 41.842 10.458 41.842 10.1596C41.842 9.86117 41.6036 9.61914 41.3097 9.61914L13.5831 9.61914Z" fill="#46B2C8"/>
<path d="M5.64082 12.0079C5.74593 12.1139 5.8851 12.168 6.02489 12.168C6.14343 12.168 6.26251 12.129 6.36159 12.0501L10.0542 9.1077C10.2875 8.9217 10.326 8.58167 10.14 8.3482C9.95409 8.11482 9.61406 8.07627 9.3805 8.26236L6.06723 10.9025L5.09623 9.92251C4.88618 9.71048 4.54399 9.70895 4.33195 9.919C4.11992 10.1291 4.1183 10.4712 4.32844 10.6833L5.64082 12.0079Z" fill="#C2E2E9"/>
<path d="M10.14 17.4732C9.95406 17.2398 9.61403 17.2013 9.38047 17.3874L6.06719 20.0275L5.0962 19.0476C4.88614 18.8356 4.54395 18.8341 4.33192 19.0441C4.11989 19.2542 4.11835 19.5963 4.32841 19.8084L5.64078 21.1328C5.7459 21.2388 5.88506 21.2929 6.02486 21.2929C6.14339 21.2929 6.26247 21.254 6.36155 21.1751L10.0541 18.2327C10.2875 18.0467 10.326 17.7067 10.14 17.4732Z" fill="#C2E2E9"/>
<path d="M9.38083 28.0169L6.06746 30.6529L5.0962 29.6727C4.88614 29.4606 4.54395 29.4591 4.33192 29.6692C4.11989 29.8792 4.11835 30.2214 4.32841 30.4333L5.64078 31.7578C5.7459 31.8639 5.88506 31.9179 6.02486 31.9179C6.1433 31.9179 6.2622 31.879 6.36119 31.8003L10.0538 28.8627C10.2873 28.6769 10.3261 28.3369 10.1402 28.1033C9.95433 27.8698 9.61439 27.8312 9.38083 28.0169Z" fill="#C2E2E9"/>
</svg>
