<svg width="45" height="32" viewBox="0 0 45 32" fill="none" xmlns="http://www.w3.org/2000/svg">
<path d="M14.6551 31.9175H42.6037C43.7529 31.9175 44.6846 30.989 44.6846 29.8398V7.02254C44.6846 6.58533 44.5469 6.1624 44.291 5.80788L40.7221 0.863074C40.3309 0.321085 39.7037 0 39.0353 0H14.6503C13.5011 0 12.5742 0.931651 12.5742 2.0809V29.8366C12.5742 30.9858 13.5059 31.9175 14.6551 31.9175Z" fill="#115766"/>
<path d="M15.0795 9.72154L14.4803 10.2874C14.1808 10.587 14.1475 11.0531 14.4471 11.3527C14.5802 11.5191 14.8132 11.5857 15.013 11.5857C15.2127 11.5857 15.3791 11.5191 15.5123 11.386L17.5429 9.52181C17.7093 9.38866 17.7759 9.18893 17.7759 8.95592C17.7759 8.75619 17.676 8.55646 17.5429 8.39002L15.5123 6.52588C15.2127 6.22629 14.7134 6.25958 14.4471 6.55917C14.1475 6.85876 14.1808 7.35808 14.4803 7.62439L15.0795 8.19029H6.29146C5.95858 6.79219 4.69363 5.76025 3.19566 5.76025C1.43139 5.76025 0 7.19164 0 8.95592C0 10.7202 1.43139 12.1516 3.19566 12.1516C4.69363 12.1516 5.95858 11.1196 6.29146 9.72154H15.0795V9.72154ZM3.19566 10.6536C2.26359 10.6536 1.49797 9.88798 1.49797 8.95592C1.49797 8.02385 2.26359 7.25822 3.19566 7.25822C4.12773 7.25822 4.89336 8.02385 4.89336 8.95592C4.89336 9.88798 4.12773 10.6536 3.19566 10.6536Z" fill="#46B2C8"/>
<path d="M22.6694 5.75977C20.9052 5.75977 19.4738 7.19116 19.4738 8.95543C19.4738 9.55461 19.6402 10.1205 19.9398 10.6198L13.7482 16.8114L13.7815 15.9792C13.8148 15.5465 13.4819 15.2136 13.0492 15.1803C12.6164 15.1803 12.2835 15.4799 12.2503 15.9127L12.1504 18.7089C12.1504 18.9086 12.217 19.1416 12.3834 19.2748C12.5166 19.4079 12.7163 19.5078 12.916 19.5078H12.9493L15.7122 19.4079C16.145 19.3746 16.4446 19.0417 16.4446 18.609C16.4113 18.1762 16.0784 17.8767 15.6456 17.8767L14.8134 17.9099L21.0383 11.6851C21.5376 11.9846 22.0703 12.1511 22.7027 12.1511C24.467 12.1511 25.8984 10.7197 25.8984 8.95543C25.8984 7.19116 24.4337 5.75977 22.6694 5.75977ZM22.6694 10.6531C21.7374 10.6531 20.9718 9.8875 20.9718 8.95543C20.9718 8.02336 21.7374 7.25773 22.6694 7.25773C23.6015 7.25773 24.3671 8.02336 24.3671 8.95543C24.3671 9.8875 23.6015 10.6531 22.6694 10.6531Z" fill="#C2E2E9"/>
<path d="M21.2388 20.3066C20.9392 20.0071 20.4398 20.0403 20.1735 20.3399C19.8739 20.6395 19.9072 21.1388 20.2068 21.4052L20.806 21.9711H12.0512C11.7183 20.5729 10.4534 19.541 8.95543 19.541C7.19116 19.541 5.75977 20.9724 5.75977 22.7367C5.75977 24.5009 7.19116 25.9323 8.95543 25.9323C10.4534 25.9323 11.7183 24.9004 12.0512 23.5023H20.8393L20.2401 24.0682C19.9405 24.3678 19.9072 24.8338 20.2068 25.1334C20.34 25.2999 20.573 25.3664 20.7727 25.3664C20.9725 25.3664 21.1389 25.2999 21.272 25.1667L23.3026 23.3026C23.4691 23.1694 23.5356 22.9697 23.5356 22.7367C23.5356 22.5037 23.4358 22.3372 23.3026 22.1708L21.2388 20.3066ZM8.95543 24.4344C8.02336 24.4344 7.25773 23.6687 7.25773 22.7367C7.25773 21.8046 8.02336 21.039 8.95543 21.039C9.8875 21.039 10.6531 21.8046 10.6531 22.7367C10.6198 23.6687 9.8875 24.4344 8.95543 24.4344Z" fill="#46B2C8"/>
<path d="M28.4281 19.541C26.6638 19.541 25.2324 20.9724 25.2324 22.7367C25.2324 24.5009 26.6638 25.9323 28.4281 25.9323C30.1924 25.9323 31.6237 24.5009 31.6237 22.7367C31.6237 20.9724 30.1924 19.541 28.4281 19.541ZM28.4281 24.4344C27.496 24.4344 26.7304 23.6687 26.7304 22.7367C26.7304 21.8046 27.496 21.039 28.4281 21.039C29.3602 21.039 30.1258 21.8046 30.1258 22.7367C30.0925 23.6687 29.3602 24.4344 28.4281 24.4344Z" fill="#C2E2E9"/>
</svg>
