<svg width="36" height="32" viewBox="0 0 36 32" fill="none" xmlns="http://www.w3.org/2000/svg">
<path d="M27.0395 8.86802H34.5335C34.9199 8.86802 35.2332 8.55571 35.2332 8.1693V1.9902C35.2332 1.84355 35.1871 1.70114 35.1014 1.58211L34.1726 0.291051C34.0411 0.108316 33.8305 0 33.6054 0H27.0373C26.6508 0 26.3398 0.313254 26.3398 0.699671V8.16835C26.3398 8.55477 26.6531 8.86802 27.0395 8.86802Z" fill="#115766"/>
<path d="M0.69967 20.0663H8.19364C8.58005 20.0663 8.89331 19.754 8.89331 19.3675V13.1884C8.89331 13.0418 8.84723 12.8994 8.76159 12.7803L7.83272 11.4893C7.70125 11.3066 7.49066 11.1982 7.26555 11.1982H0.697408C0.310991 11.1982 0 11.5115 0 11.8979V19.3666C0 19.753 0.313252 20.0663 0.69967 20.0663Z" fill="#C2E2E9"/>
<path d="M27.0395 31.9173H34.5335C34.9199 31.9173 35.2332 31.605 35.2332 31.2186V25.0395C35.2332 24.8929 35.1871 24.7505 35.1014 24.6314L34.1726 23.3404C34.0411 23.1576 33.8305 23.0493 33.6054 23.0493H27.0373C26.6508 23.0493 26.3398 23.3626 26.3398 23.749V31.2177C26.3398 31.6041 26.6531 31.9173 27.0395 31.9173Z" fill="#115766"/>
<line x1="1.22334e-07" y1="4.39656" x2="20.6921" y2="4.39656" stroke="#46B2C8" stroke-width="2.79868"/>
<line x1="14.541" y1="15.7838" x2="35.2331" y2="15.7838" stroke="#C2E2E9" stroke-width="2.79868"/>
<line x1="1.22334e-07" y1="27.4283" x2="20.6921" y2="27.4283" stroke="#46B2C8" stroke-width="2.79868"/>
</svg>
