<svg width="32" height="32" viewBox="0 0 32 32" fill="none" xmlns="http://www.w3.org/2000/svg">
<path fill-rule="evenodd" clip-rule="evenodd" d="M17.9375 28.18H24.6806C25.3386 28.18 25.8721 27.6465 25.8721 26.9885V20.2178H26.2404C26.5571 20.2178 26.8608 20.3439 27.0843 20.5682L29.2904 22.7817C29.5129 23.0051 29.6379 23.3075 29.6379 23.6228V30.7266C29.6379 31.3847 29.1044 31.9182 28.4464 31.9182H19.1291C18.471 31.9182 17.9375 31.3847 17.9375 30.7266V28.18Z" fill="#C2E2E9"/>
<path fill-rule="evenodd" clip-rule="evenodd" d="M16.7324 6.44817H20.2458C20.5625 6.44817 20.8662 6.57427 21.0898 6.7986L25.6912 11.4157C25.9138 11.639 26.0388 11.9415 26.0388 12.2568V15.1844H30.7253C31.3834 15.1844 31.9169 14.651 31.9169 13.9929V4.27239C31.9169 3.95707 31.7919 3.6546 31.5693 3.43126L28.4989 0.35043C28.2753 0.126095 27.9716 0 27.6549 0H17.924C17.2659 0 16.7324 0.533477 16.7324 1.19156V6.44817Z" fill="#115766"/>
<path d="M1.19156 17.8313H11.6056C12.2637 17.8313 12.7971 17.2978 12.7971 16.6398V8.71227C12.7971 8.39695 12.6721 8.09448 12.4496 7.87114L9.97146 5.38461C9.74788 5.16027 9.44419 5.03418 9.12747 5.03418H1.19156C0.533478 5.03418 0 5.56766 0 6.22574V16.6398C0 17.2978 0.533479 17.8313 1.19156 17.8313Z" fill="#115766"/>
<path fill-rule="evenodd" clip-rule="evenodd" d="M6.39844 19.4933H13.2675C13.9255 19.4933 14.459 18.9598 14.459 18.3017V8.16211H19.3828C19.6996 8.16211 20.0033 8.2882 20.2268 8.51254L23.9776 12.276C24.2001 12.4994 24.3251 12.8018 24.3251 13.1171V24.8972C24.3251 25.5553 23.7916 26.0888 23.1336 26.0888H7.58999C6.93192 26.0888 6.39844 25.5553 6.39844 24.8972V19.4933Z" fill="#46B2C8"/>
</svg>
