<svg width="47" height="32" viewBox="0 0 47 32" fill="none" xmlns="http://www.w3.org/2000/svg">
<path d="M10.5965 31.9175H35.7951C37.7037 31.9175 39.251 30.3763 39.251 28.4677V7.46816C39.251 6.74206 39.0223 6.03632 38.5973 5.44756L35.7001 1.43337C35.0504 0.533248 34.0109 0 32.9008 0H10.5957C8.68709 0 7.14062 1.54725 7.14062 3.45589V28.4616C7.14062 30.3702 8.68788 31.9175 10.5965 31.9175Z" fill="#115766"/>
<path fill-rule="evenodd" clip-rule="evenodd" d="M44.5687 4.99281C44.8782 5.30224 44.8782 5.80392 44.5687 6.11335L28.9596 21.7225C28.6502 22.0319 28.1485 22.0319 27.8391 21.7225L17.9933 11.8767L2.9444 26.9255C2.63497 27.2349 2.13329 27.2349 1.82387 26.9255C1.51444 26.6161 1.51444 26.1144 1.82387 25.805L17.433 10.1959C17.7424 9.88643 18.2441 9.88643 18.5535 10.1959L28.3993 20.0417L43.4482 4.99281C43.7576 4.68339 44.2593 4.68339 44.5687 4.99281Z" fill="#C2E2E9"/>
<circle cx="17.8384" cy="11.2056" r="2.3833" fill="#46B2C8"/>
<circle cx="28.5532" cy="21.0249" r="2.3833" fill="#46B2C8"/>
<circle cx="44.0083" cy="5.55274" r="2.3833" fill="#46B2C8"/>
<circle cx="2.3833" cy="26.3647" r="2.3833" fill="#46B2C8"/>
</svg>
