<svg width="44" height="36" viewBox="0 0 44 36" fill="none" xmlns="http://www.w3.org/2000/svg">
<path d="M14.7539 35.6589H29.7539C35.2768 35.6589 39.7539 31.1836 39.7539 25.6607V11.0256C39.7539 8.92457 39.0921 6.87717 37.8625 5.1735L37.7494 5.01675C35.8695 2.41215 32.855 0.869141 29.6429 0.869141H14.7494C9.22651 0.869141 4.75391 5.34629 4.75391 10.8691V25.6589C4.75391 31.1818 9.23106 35.6589 14.7539 35.6589Z" fill="#115766"/>
<path fill-rule="evenodd" clip-rule="evenodd" d="M41.8176 8.03878C42.1011 8.32225 42.1011 8.78185 41.8176 9.06533L27.5177 23.3653C27.2342 23.6487 26.7746 23.6487 26.4911 23.3653L17.4711 14.3453L3.68447 28.1319C3.401 28.4154 2.94139 28.4154 2.65792 28.1319C2.37444 27.8484 2.37444 27.3888 2.65792 27.1054L16.9579 12.8054C17.2413 12.5219 17.7009 12.5219 17.9844 12.8054L27.0044 21.8254L40.7911 8.03878C41.0746 7.7553 41.5342 7.7553 41.8176 8.03878Z" fill="#C2E2E9"/>
<circle cx="17.3318" cy="13.7313" r="2.18341" fill="#46B2C8"/>
<circle cx="27.1443" cy="22.7264" r="2.18341" fill="#46B2C8"/>
<circle cx="41.3045" cy="8.55255" r="2.18341" fill="#46B2C8"/>
<circle cx="3.17169" cy="27.619" r="2.18341" fill="#46B2C8"/>
</svg>
