<svg width="132" height="132" viewBox="0 0 132 132" fill="none" xmlns="http://www.w3.org/2000/svg">
<g clip-path="url(#clip0_165_2542)">
<path d="M103.211 75.0818L124.03 57.0924C125.484 55.836 127.642 55.8411 129.091 57.1027C129.962 57.8623 130.417 58.9333 130.417 60.0199C130.417 60.7485 130.211 61.4823 129.787 62.1311L112.534 88.4959C110.61 91.4336 107.796 93.6787 104.506 94.9043L98.8466 97.0129V120.02H73.625V96.1839C73.625 91.6679 75.6436 87.3913 79.1297 84.5206L95.188 71.297C96.0969 70.5478 97.204 70.177 98.3059 70.177C99.5649 70.177 100.821 70.661 101.774 71.6137C102.732 72.5715 103.211 73.8279 103.211 75.0818Z" fill="#115766"/>
<path d="M33.1325 75.0818C33.1325 73.8279 33.6114 72.5715 34.5692 71.6137C36.356 69.8268 39.2062 69.6904 41.1552 71.297L57.2135 84.5206C60.6996 87.3913 62.7182 91.6679 62.7182 96.1839V120.018C62.7182 120.018 37.7695 119.745 37.4966 120.018C37.2237 120.291 37.4966 97.0129 37.4966 97.0129L31.8374 94.9043C28.547 93.6787 25.7328 91.4336 23.8095 88.4959L6.55658 62.1311C6.13176 61.4823 5.92578 60.7485 5.92578 60.0199C5.92578 58.9333 6.3815 57.8623 7.25174 57.1027C8.70129 55.8411 10.8589 55.836 12.3136 57.0924L33.1325 75.0818Z" fill="#115766"/>
<path d="M61.4404 104.483H46.2621C44.0455 104.483 42.2541 102.674 42.2739 100.458C42.2803 99.7372 42.2868 99.0569 42.2927 98.4326C42.3148 96.1599 40.9106 94.1189 38.7808 93.3254L36.6734 92.5401C33.383 91.3146 30.5689 89.0695 28.6456 86.1318L11.3926 59.767C10.9678 59.1182 10.7618 58.3844 10.7618 57.6557C10.7618 57.2101 10.8439 56.7654 10.9943 56.3455C9.73426 55.9325 8.30556 56.1853 7.25174 57.1027C6.3815 57.8622 5.92578 58.9333 5.92578 60.0198C5.92578 60.7484 6.13176 61.4822 6.55658 62.1311L23.8095 88.4958C25.7328 91.4335 28.547 93.6787 31.8374 94.9042L37.4966 97.0129C37.4966 97.0129 37.2237 120.291 37.4966 120.018C37.564 119.95 39.1382 119.916 41.4683 119.903C41.5615 119.903 41.6562 119.902 41.7518 119.902C41.7832 119.902 41.8146 119.901 41.846 119.901C45.6189 119.884 51.153 119.917 55.575 119.952H55.5778C57.8559 119.97 59.8379 119.988 61.1322 120.001C61.2717 120.003 61.4015 120.004 61.5246 120.005C61.599 120.006 61.6711 120.007 61.7393 120.007C61.7568 120.007 61.7741 120.007 61.7913 120.008C62.0701 120.01 62.2913 120.013 62.4476 120.014C62.5493 120.015 62.6206 120.016 62.6652 120.017C62.6989 120.017 62.7182 120.017 62.7182 120.017V117.607V104.604C62.3039 104.526 61.877 104.483 61.4404 104.483Z" fill="#46B2C8"/>
<path d="M64.4109 127.966V111.318C64.4109 109.676 63.0803 108.346 61.4389 108.346H37.8587C36.2173 108.346 34.8867 109.676 34.8867 111.318V127.966C34.8867 129.128 35.8283 130.069 36.99 130.069H62.3079C63.4693 130.069 64.4109 129.127 64.4109 127.966Z" fill="#115766"/>
<path d="M46.4401 125.895C43.7351 125.895 41.5423 123.702 41.5423 120.997V108.345H37.8587C36.2173 108.345 34.8867 109.675 34.8867 111.317V127.965C34.8867 129.127 35.8283 130.068 36.99 130.068H62.3079C63.4696 130.068 64.4111 129.127 64.4111 127.965V125.895H46.4401V125.895Z" fill="#46B2C8"/>
<path d="M106.577 72.1719L103.209 75.0826C103.209 75.0802 103.209 75.0777 103.209 75.0753L85.6367 90.3026C88.7946 92.9197 93.4336 92.6702 96.2928 89.7294L104.503 81.2842C106.159 79.6284 107.071 77.426 107.071 75.0826C107.071 74.0756 106.901 73.0949 106.577 72.1719Z" fill="#46B2C8"/>
<path d="M101.774 71.6144C102.732 72.5722 103.211 73.8286 103.211 75.0825C103.211 76.339 102.732 77.5954 101.774 78.5532L84.3639 96.5683L74.9766 89.941C75.9163 87.8658 77.3273 86.0069 79.1295 84.5213L95.1878 71.2977C96.0967 70.5485 97.2038 70.1777 98.3058 70.1777C99.5648 70.1777 100.821 70.6618 101.774 71.6144Z" fill="#115766"/>
<path d="M48.176 90.1561L32.915 74.8954L29.7631 72.1719C29.4392 73.0946 29.2695 74.0753 29.2695 75.0823C29.2695 77.4258 30.1815 79.6282 31.838 81.2845L40.3693 89.9189C42.4918 92.0672 45.927 92.1715 48.176 90.1561Z" fill="#46B2C8"/>
<path d="M60.6124 88.4888L51.48 96.5681L40.9058 84.8868L34.5695 78.5531C33.6117 77.5953 33.1328 76.3388 33.1328 75.0824C33.1328 73.8285 33.6117 72.5721 34.5695 71.6143C36.3563 69.8275 39.2065 69.691 41.1555 71.2976L57.2138 84.5212C58.5836 85.6515 59.7293 86.998 60.6124 88.4888Z" fill="#115766"/>
<path d="M35.6208 59.2426C51.4471 59.2426 64.2768 46.4129 64.2768 30.5867C64.2768 14.7604 51.4471 1.93066 35.6208 1.93066C19.7946 1.93066 6.96484 14.7604 6.96484 30.5867C6.96484 46.4129 19.7946 59.2426 35.6208 59.2426Z" fill="#115766"/>
<path d="M32.7793 42.374C31.8248 42.374 30.8696 42.0225 30.1232 41.3153L23.7254 35.2521C23.2854 34.8353 23.2668 34.1404 23.6837 33.7004L27.487 29.6872C27.9041 29.2472 28.5987 29.2286 29.0388 29.6455L31.8925 32.3502C32.3277 32.7627 33.013 32.7495 33.4322 32.3208L45.3 20.1856C45.7238 19.7523 46.4187 19.7445 46.852 20.1683L50.8049 24.034C51.2382 24.4578 51.2462 25.1527 50.8221 25.586L35.5409 41.2118C34.7849 41.9849 33.7829 42.374 32.7793 42.374Z" fill="#115766"/>
<path d="M100.722 59.2426C116.549 59.2426 129.378 46.4129 129.378 30.5867C129.378 14.7604 116.549 1.93066 100.722 1.93066C84.8961 1.93066 72.0664 14.7604 72.0664 30.5867C72.0664 46.4129 84.8961 59.2426 100.722 59.2426Z" fill="white"/>
<path d="M17.3146 31.1142C17.3146 16.5528 28.1743 4.52698 42.2373 2.69818C40.1126 2.19586 37.8989 1.93066 35.6208 1.93066C19.7945 1.93041 6.96484 14.7601 6.96484 30.5864C6.96484 46.4127 19.7945 59.2424 35.6208 59.2424C36.8858 59.2424 38.1288 59.161 39.3503 59.0022C26.715 56.0148 17.3146 44.6625 17.3146 31.1142Z" fill="#46B2C8"/>
<path d="M82.4161 31.1145C82.4161 16.5531 93.2798 4.52826 107.343 2.69921C105.218 2.19689 103 1.93066 100.722 1.93066C84.8961 1.93066 72.0664 14.7603 72.0664 30.5867C72.0664 46.413 84.8961 59.2426 100.722 59.2426C101.987 59.2426 103.228 59.1618 104.449 59.0029C91.8137 56.0155 82.4161 44.6627 82.4161 31.1145Z" fill="#46B2C8"/>
<path d="M106.82 30.587L115.034 22.5669C115.463 22.1475 115.471 21.4593 115.052 21.0298L110.623 16.494C110.203 16.0645 109.515 16.0563 109.086 16.4757L100.727 24.6375L92.3654 16.4724C91.936 16.0529 91.2478 16.0612 90.8283 16.4906L86.3991 21.0265C85.9797 21.4559 85.9879 22.1441 86.4174 22.5635L94.6342 30.587L86.4174 38.6105C85.9879 39.0299 85.9797 39.7182 86.3991 40.1476L90.8283 44.6834C91.2478 45.1129 91.936 45.1211 92.3654 44.7017L100.727 36.5366L109.086 44.6984C109.515 45.1178 110.203 45.1095 110.623 44.6801L115.052 40.1443C115.471 39.7148 115.463 39.0266 115.034 38.6072L106.82 30.587Z" fill="#115766"/>
<path d="M85.0043 86.5458L101.063 73.3222C101.496 72.9648 101.978 72.6906 102.48 72.5045C102.283 72.1865 102.05 71.8899 101.774 71.6144C100.821 70.6618 99.565 70.1777 98.3059 70.1777C97.204 70.1777 96.0969 70.5485 95.188 71.2977L79.1297 84.5213C75.6436 87.3921 73.625 91.6686 73.625 96.1846V120.021H78.271H79.4997H98.8466V104.493C98.7261 104.487 82.804 104.484 82.804 104.484C80.9791 104.484 79.4997 103.004 79.4997 101.179V98.2096C79.4997 93.6944 81.519 89.416 85.0043 86.5458Z" fill="#46B2C8"/>
<path d="M101.454 127.966V111.318C101.454 109.676 100.123 108.346 98.4819 108.346H74.9016C73.2603 108.346 71.9297 109.676 71.9297 111.318V127.966C71.9297 129.128 72.8713 130.069 74.0329 130.069H99.3509C100.512 130.069 101.454 129.127 101.454 127.966Z" fill="#115766"/>
<path d="M82.7918 125.896C80.4686 125.896 78.5853 124.012 78.5853 121.689V108.346H74.9016C73.2603 108.346 71.9297 109.676 71.9297 111.318V127.966C71.9297 129.128 72.8713 130.069 74.0329 130.069H99.3509C100.513 130.069 101.454 129.128 101.454 127.966V125.896H82.7918Z" fill="#46B2C8"/>
<path d="M130.361 55.6481C128.201 53.7663 124.936 53.7598 122.768 55.6329L104.223 71.657C103.928 71.1493 103.566 70.6755 103.14 70.2492C100.637 67.7471 96.691 67.5566 93.9598 69.8061L77.9015 83.0304C73.9565 86.2794 71.6939 91.0737 71.6939 96.1842V107.619C70.6586 108.519 70 109.841 70 111.317V130.069C70 131.135 70.8646 132 71.931 132C72.9974 132 73.862 131.135 73.862 130.069V111.317C73.862 110.744 74.3291 110.277 74.903 110.277H98.4832C99.0571 110.277 99.5242 110.744 99.5242 111.317V130.069C99.5242 131.135 100.389 132 101.455 132C102.522 132 103.386 131.135 103.386 130.069V111.317C103.386 109.443 102.328 107.813 100.779 106.988V98.3542L105.179 96.7156C108.883 95.3366 111.985 92.8598 114.149 89.5529L131.403 63.1896C132.98 60.7808 132.532 57.5387 130.361 55.6481ZM128.172 61.0745L110.918 87.4378C109.208 90.05 106.758 92.0068 103.832 93.0961L96.1542 95.9551C95.1547 96.3271 94.6462 97.4391 95.0182 98.4386C95.3079 99.2159 96.0447 99.6964 96.8282 99.6964C96.8578 99.6964 96.8874 99.6938 96.9173 99.6925V106.414H75.5562V96.1845C75.5562 92.2321 77.3059 88.5243 80.3569 86.0119L96.415 72.7875C97.6032 71.8092 99.3205 71.8918 100.409 72.9804C101.568 74.14 101.568 76.027 100.409 77.1867L94.0736 83.5219C93.3194 84.2761 93.3194 85.4988 94.0736 86.2526C94.8277 87.0068 96.0504 87.0068 96.8043 86.2526L103.14 79.9174C104.206 78.8504 104.876 77.4928 105.077 76.0232L125.293 58.5555C126.016 57.9311 127.104 57.9332 127.825 58.5606C128.549 59.1909 128.698 60.2717 128.172 61.0745Z" fill="white"/>
<path d="M64.649 107.62V96.1846C64.649 91.142 62.433 86.3879 58.5687 83.1409C57.7522 82.4548 56.5342 82.5606 55.848 83.377C55.1618 84.1935 55.2677 85.4116 56.0841 86.0977C59.0728 88.6088 60.7868 92.2854 60.7868 96.1843V106.414H39.4259V99.6923C39.4555 99.6936 39.4854 99.6962 39.515 99.6962C40.2984 99.6962 41.0353 99.2157 41.325 98.4384C41.697 97.4389 41.1885 96.3269 40.189 95.9549L32.5111 93.096C29.5852 92.0066 27.1349 90.0499 25.4253 87.4376L8.17075 61.0751C7.645 60.2721 7.79459 59.1912 8.51833 58.5607C9.23873 57.9332 10.3268 57.9309 11.0498 58.5555L31.2701 76.0263C31.4668 77.4506 32.1107 78.8245 33.2036 79.9172L39.5389 86.2524C39.9158 86.6294 40.4102 86.8181 40.9043 86.8181C41.3983 86.8181 41.8927 86.6296 42.2696 86.2524C43.0237 85.4983 43.0237 84.2756 42.2696 83.5217L35.9344 77.1865C34.7747 76.0268 34.7747 74.1398 35.9344 72.9802C37.0232 71.8919 38.74 71.809 39.9282 72.7874L49.6088 80.7594C50.4319 81.4375 51.6489 81.3194 52.3269 80.4962C53.0048 79.6731 52.8871 78.456 52.0637 77.7781L42.3832 69.8061C39.6514 67.5566 35.7049 67.7472 33.2034 70.2492C32.7729 70.6797 32.413 71.1545 32.1215 71.6581L13.5745 55.6333C11.4064 53.7597 8.14191 53.7664 5.98175 55.6482C3.81103 57.5388 3.36278 60.7808 4.93926 63.19L22.1938 89.5529C24.3581 92.8599 27.4598 95.3367 31.1635 96.7157L35.5641 98.3542V106.988C34.0147 107.813 32.9565 109.443 32.9565 111.318V130.069C32.9565 131.135 33.8211 132 34.8875 132C35.9539 132 36.8185 131.135 36.8185 130.069V111.318C36.8185 110.744 37.2853 110.277 37.8594 110.277H61.4397C62.0136 110.277 62.4806 110.744 62.4806 111.318V130.069C62.4806 131.135 63.3452 132 64.4117 132C65.4781 132 66.3427 131.135 66.3427 130.069V111.318C66.3427 109.842 65.6843 108.519 64.649 107.62Z" fill="white"/>
<path d="M35.6183 61.174C52.484 61.174 66.2053 47.4527 66.2053 30.587C66.2053 13.7213 52.4837 0 35.6183 0C18.7528 0 5.03125 13.7213 5.03125 30.587C5.03125 47.4527 18.7525 61.174 35.6183 61.174ZM35.6183 3.86203C50.3545 3.86203 62.3432 15.8508 62.3432 30.587C62.3432 45.3232 50.3545 57.312 35.6183 57.312C20.882 57.312 8.89328 45.3232 8.89328 30.587C8.89328 15.8508 20.882 3.86203 35.6183 3.86203Z" fill="white"/>
<path d="M28.7946 42.7167C29.8755 43.7409 31.2903 44.3047 32.7789 44.3047C34.3508 44.3047 35.8217 43.6858 36.9214 42.5619L41.0228 38.3678C41.7685 37.6054 41.7548 36.3829 40.9922 35.6371C40.2298 34.8914 39.0074 34.9051 38.2615 35.6677L34.1603 39.8616C33.7936 40.2365 33.3029 40.4427 32.7789 40.4427C32.2831 40.4427 31.8114 40.2548 31.4512 39.9133L25.6581 34.4236L28.315 31.6203L30.5639 33.7519C31.7573 34.8824 33.6631 34.8464 34.8124 33.6713L46.0978 22.1321L48.8589 24.8321L44.0159 29.7843C43.2703 30.5466 43.2839 31.7691 44.0465 32.515C44.8089 33.2606 46.0314 33.247 46.7773 32.4844L52.2029 26.9364C52.7686 26.3579 53.0752 25.594 53.0662 24.785C53.0572 23.976 52.7335 23.2191 52.155 22.6537L48.2021 18.7883C47.6236 18.2227 46.8607 17.9155 46.0507 17.925C45.2417 17.934 44.4848 18.2577 43.9194 18.8359L32.6252 30.3844L30.367 28.2444C29.7797 27.6875 29.0109 27.3921 28.2022 27.4148C27.3935 27.4364 26.6417 27.7719 26.0853 28.3589L22.282 32.3721C21.1334 33.584 21.1849 35.5047 22.397 36.6538L28.7946 42.7167Z" fill="white"/>
<path d="M100.724 61.174C107.901 61.174 114.879 58.6361 120.371 54.028C121.188 53.3423 121.295 52.1245 120.609 51.3076C119.924 50.4906 118.706 50.3843 117.889 51.0694C113.091 55.0952 106.995 57.3122 100.724 57.3122C85.9878 57.3122 73.999 45.3235 73.999 30.5873C73.999 15.8511 85.9875 3.86203 100.724 3.86203C115.46 3.86203 127.449 15.8508 127.449 30.587C127.449 35.8584 125.915 40.9584 123.013 45.3351C122.423 46.2238 122.666 47.4221 123.554 48.0117C124.443 48.6011 125.642 48.3583 126.231 47.4697C129.554 42.4581 131.311 36.6203 131.311 30.5873C131.311 13.7213 117.589 0 100.724 0C83.858 0 70.1367 13.7213 70.1367 30.587C70.1367 47.4527 83.858 61.174 100.724 61.174Z" fill="white"/>
<path d="M116.431 19.681L112.002 15.1452C111.439 14.5682 110.685 14.2454 109.879 14.2358C109.072 14.2255 108.311 14.5309 107.734 15.0942L100.725 21.9388L93.7119 15.0909C93.1352 14.5275 92.3746 14.2212 91.5674 14.2327C90.7613 14.2423 90.0072 14.5654 89.4441 15.1421L85.0151 19.6777C84.4518 20.2544 84.1469 21.0163 84.1565 21.8224C84.1663 22.6283 84.4891 23.3824 85.0658 23.9457L91.8677 30.5877L85.0656 37.2296C84.4889 37.7929 84.166 38.5468 84.1565 39.3529C84.1469 40.159 84.4518 40.9206 85.0149 41.4974L89.4438 46.0329C90.0072 46.6099 90.7613 46.9328 91.5674 46.9423C91.5798 46.9423 91.5922 46.9426 91.6045 46.9426C92.3967 46.9426 93.1439 46.6385 93.7122 46.0839L100.725 39.236L107.734 46.0806C108.311 46.6439 109.077 46.9433 109.879 46.9387C110.685 46.9292 111.439 46.6061 112.002 46.0293L116.431 41.4935C117.594 40.303 117.571 38.3887 116.38 37.2255L109.582 30.5869L116.381 23.9481C117.571 22.7858 117.594 20.8713 116.431 19.681ZM105.469 29.2058C105.097 29.5694 104.887 30.0673 104.887 30.5874C104.887 31.1075 105.097 31.6057 105.469 31.969L113.078 39.3993L109.828 42.7276L102.074 35.1554C101.324 34.4226 100.126 34.4229 99.3759 35.1554L91.6179 42.7309L88.3681 39.4029L95.981 31.969C96.353 31.6054 96.5628 31.1075 96.5628 30.5874C96.5628 30.0673 96.353 29.5691 95.981 29.2058L88.3681 21.7719L91.6179 18.4439L99.3759 26.0194C100.126 26.7519 101.324 26.7519 102.074 26.0194L109.828 18.4472L113.078 21.7755L105.469 29.2058Z" fill="white"/>
</g>
<defs>
<clipPath id="clip0_165_2542">
<rect width="132" height="132" fill="white"/>
</clipPath>
</defs>
</svg>
