<svg width="44" height="33" viewBox="0 0 44 33" fill="none" xmlns="http://www.w3.org/2000/svg">
<path d="M18.582 32.9241H33.582C39.1049 32.9241 43.582 28.449 43.582 22.9261V10.3053C43.582 8.13142 42.8598 6.02138 41.5287 4.3026C39.6712 1.90397 36.8093 0.5 33.7755 0.5H18.5775C13.0546 0.5 8.58203 4.97715 8.58203 10.5V22.9241C8.58203 28.447 13.0592 32.9241 18.582 32.9241Z" fill="#115766"/>
<path d="M28.0574 9.22559C27.8682 9.22559 27.7148 9.38131 27.7148 9.57331C27.7148 9.76532 27.8682 9.92104 28.0574 9.92104H36.6592C36.8483 9.92104 37.0017 9.76532 37.0017 9.57331C37.0017 9.38131 36.8483 9.22559 36.6592 9.22559L28.0574 9.22559Z" fill="#46B2C8"/>
<path d="M28.0574 15.0381C27.8682 15.0381 27.7148 15.1938 27.7148 15.3858C27.7148 15.5778 27.8682 15.7335 28.0574 15.7335H36.6592C36.8483 15.7335 37.0017 15.5778 37.0017 15.3858C37.0017 15.1938 36.8483 15.0381 36.6592 15.0381L28.0574 15.0381Z" fill="#46B2C8"/>
<path d="M28.0574 21.9326C27.8682 21.9326 27.7148 22.0883 27.7148 22.2803C27.7148 22.4723 27.8682 22.6281 28.0574 22.6281H36.6592C36.8483 22.6281 37.0017 22.4723 37.0017 22.2803C37.0017 22.0883 36.8483 21.9326 36.6592 21.9326L28.0574 21.9326Z" fill="#46B2C8"/>
<path d="M22.9451 10.7631C23.0128 10.8313 23.1023 10.8661 23.1923 10.8661C23.2685 10.8661 23.3451 10.841 23.4089 10.7903L25.7847 8.89706C25.9349 8.77738 25.9597 8.55861 25.84 8.40839C25.7204 8.25823 25.5016 8.23342 25.3513 8.35316L23.2195 10.0519L22.5947 9.42132C22.4596 9.28489 22.2394 9.28391 22.103 9.41906C21.9666 9.55427 21.9655 9.77438 22.1007 9.91081L22.9451 10.7631Z" fill="#C2E2E9"/>
<path d="M25.84 14.2795C25.7203 14.1293 25.5016 14.1045 25.3513 14.2242L23.2195 15.923L22.5947 15.2925C22.4596 15.156 22.2394 15.1551 22.103 15.2902C21.9665 15.4254 21.9656 15.6455 22.1007 15.782L22.9451 16.6341C23.0127 16.7023 23.1023 16.7371 23.1922 16.7371C23.2685 16.7371 23.3451 16.7121 23.4089 16.6613L25.7847 14.7682C25.9349 14.6485 25.9596 14.4297 25.84 14.2795Z" fill="#C2E2E9"/>
<path d="M25.3515 21.0639L23.2196 22.7599L22.5947 22.1292C22.4596 21.9928 22.2394 21.9918 22.103 22.127C21.9665 22.2621 21.9656 22.4823 22.1007 22.6186L22.9451 23.4708C23.0127 23.5391 23.1023 23.5738 23.1922 23.5738C23.2684 23.5738 23.3449 23.5488 23.4086 23.4982L25.7845 21.6081C25.9348 21.4885 25.9597 21.2698 25.8401 21.1195C25.7205 20.9692 25.5018 20.9444 25.3515 21.0639Z" fill="#C2E2E9"/>
<path d="M10.5 23.3485H5.5C2.73858 23.3485 0.5 21.1113 0.5 18.3499V12.6912C0.5 11.7714 0.787296 10.8749 1.32175 10.1264C2.15028 8.96604 3.48731 8.27734 4.91311 8.27734H10.5005C13.2619 8.27734 15.5 10.5159 15.5 13.2773V18.3485C15.5 21.11 13.2614 23.3485 10.5 23.3485Z" fill="#46B2C8"/>
<path fill-rule="evenodd" clip-rule="evenodd" d="M11.8331 12.9442C12.0556 13.1667 12.0556 13.5274 11.8331 13.7498L7.59271 17.9903C7.37024 18.2127 7.00954 18.2127 6.78707 17.9903L4.66685 15.8701C4.44438 15.6476 4.44438 15.2869 4.66685 15.0644C4.88932 14.8419 5.25002 14.8419 5.47249 15.0644L7.18989 16.7818L11.0275 12.9442C11.25 12.7217 11.6107 12.7217 11.8331 12.9442Z" fill="#C2E2E9"/>
</svg>
