<svg width="36" height="36" viewBox="0 0 36 36" fill="none" xmlns="http://www.w3.org/2000/svg">
<path d="M18 18C11.8224 18 6.39243 21.2009 3.27817 26.0347C0.286995 30.6774 4.97715 35.5 10.5 35.5H25.5C31.0228 35.5 35.713 30.6774 32.7218 26.0347C29.6076 21.2009 24.1776 18 18 18Z" fill="#115766"/>
<path d="M15.5 15.5H20.5C23.2614 15.5 25.5 13.2614 25.5 10.5V6.30019C25.5 4.97705 24.9755 3.70785 24.0415 2.77067L23.244 1.97047C22.3059 1.02912 21.0315 0.5 19.7025 0.5H15.5C12.7386 0.5 10.5 2.73858 10.5 5.5V10.5C10.5 13.2614 12.7386 15.5 15.5 15.5Z" fill="#46B2C8"/>
<path fill-rule="evenodd" clip-rule="evenodd" d="M22.3687 4.92498C22.6398 5.19605 22.6398 5.63555 22.3687 5.90662L17.2019 11.0734C16.9309 11.3445 16.4914 11.3445 16.2203 11.0734L13.6369 8.49001C13.3658 8.21894 13.3658 7.77944 13.6369 7.50837C13.908 7.2373 14.3475 7.2373 14.6185 7.50837L16.7111 9.60095L21.3871 4.92498C21.6581 4.65391 22.0976 4.65391 22.3687 4.92498Z" fill="#C2E2E9"/>
</svg>
