<svg width="36" height="41" viewBox="0 0 36 41" fill="none" xmlns="http://www.w3.org/2000/svg">
<path d="M24.9356 40.9696H4.26478C2.23148 40.9696 0.583172 39.3213 0.583172 37.288V10.7915C0.583172 9.62735 1.13378 8.53178 2.06798 7.83713L6.56027 4.49677C7.19534 4.02455 7.96567 3.76953 8.75707 3.76953H24.9356C26.9689 3.76953 28.6172 5.41784 28.6172 7.45114V37.288C28.6172 39.3213 26.9689 40.9696 24.9356 40.9696Z" fill="#C2E2E9"/>
<path d="M7.31052 37.9227H27.9813C30.0146 37.9227 31.6629 36.2744 31.6629 34.2411V7.74463C31.6629 6.58047 31.1123 5.48491 30.1781 4.79026L25.6858 1.44989C25.0508 0.97767 24.2804 0.722656 23.489 0.722656H7.31052C5.27722 0.722656 3.62891 2.37097 3.62891 4.40426V34.2411C3.62891 36.2744 5.27722 37.9227 7.31052 37.9227Z" fill="#115766"/>
<path d="M29.9577 16.7692H32.2671C34.099 16.7692 35.5841 15.2846 35.5841 13.4526V10.4149C35.5841 9.8665 35.4128 9.33196 35.0942 8.88568C34.6002 8.19383 33.803 7.7832 32.9529 7.7832H29.9576C28.1256 7.7832 26.6406 9.26831 26.6406 11.1003V13.4521C26.6406 15.2841 28.1257 16.7692 29.9577 16.7692Z" fill="#C2E2E9"/>
<path fill-rule="evenodd" clip-rule="evenodd" d="M33.8851 10.3244C34.0572 10.4966 34.0572 10.7757 33.8851 10.9478L30.604 14.2289C30.4318 14.4011 30.1527 14.4011 29.9806 14.2289L28.34 12.5884C28.1679 12.4162 28.1679 12.1371 28.34 11.965C28.5122 11.7928 28.7913 11.7928 28.9634 11.965L30.2923 13.2938L33.2617 10.3244C33.4339 10.1523 33.713 10.1523 33.8851 10.3244Z" fill="#46B2C8"/>
<path fill-rule="evenodd" clip-rule="evenodd" d="M7.94922 9.95071C7.94922 9.53028 8.29005 9.18945 8.71048 9.18945H21.1393C21.5598 9.18945 21.9006 9.53028 21.9006 9.95071C21.9006 10.3711 21.5598 10.712 21.1393 10.712H8.71048C8.29005 10.712 7.94922 10.3711 7.94922 9.95071Z" fill="#46B2C8"/>
<path fill-rule="evenodd" clip-rule="evenodd" d="M7.94922 16.2593C7.94922 15.8389 8.29005 15.498 8.71048 15.498H21.1393C21.5598 15.498 21.9006 15.8389 21.9006 16.2593C21.9006 16.6797 21.5598 17.0206 21.1393 17.0206H8.71048C8.29005 17.0206 7.94922 16.6797 7.94922 16.2593Z" fill="#46B2C8"/>
<path fill-rule="evenodd" clip-rule="evenodd" d="M7.94922 22.5679C7.94922 22.1475 8.29005 21.8066 8.71048 21.8066H25.8805C26.301 21.8066 26.6418 22.1475 26.6418 22.5679C26.6418 22.9883 26.301 23.3292 25.8805 23.3292H8.71048C8.29005 23.3292 7.94922 22.9883 7.94922 22.5679Z" fill="#46B2C8"/>
<path fill-rule="evenodd" clip-rule="evenodd" d="M7.94922 28.8765C7.94922 28.4561 8.29005 28.1152 8.71048 28.1152H25.8805C26.301 28.1152 26.6418 28.4561 26.6418 28.8765C26.6418 29.2969 26.301 29.6378 25.8805 29.6378H8.71048C8.29005 29.6378 7.94922 29.2969 7.94922 28.8765Z" fill="#46B2C8"/>
</svg>
