<svg width="36" height="36" viewBox="0 0 36 36" fill="none" xmlns="http://www.w3.org/2000/svg">
<path fill-rule="evenodd" clip-rule="evenodd" d="M5.43359 8.15997C5.43359 6.79931 6.53662 5.69629 7.89727 5.69629H27.8678C29.2285 5.69629 30.3315 6.79932 30.3315 8.15997V27.8322C30.3315 29.1928 29.2285 30.2958 27.8678 30.2958H7.89727C6.53662 30.2958 5.43359 29.1928 5.43359 27.8322V8.15997ZM7.89727 6.99296C7.25275 6.99296 6.73027 7.51545 6.73027 8.15997V27.8322C6.73027 28.4767 7.25275 28.9992 7.89727 28.9992H27.8678C28.5124 28.9992 29.0349 28.4767 29.0349 27.8322V8.15997C29.0349 7.51545 28.5124 6.99296 27.8678 6.99296H7.89727Z" fill="#115766"/>
<circle cx="6.21137" cy="13.5502" r="2.76606" fill="#C2E2E9"/>
<circle cx="29.684" cy="22.5121" r="2.76606" fill="#C2E2E9"/>
<circle cx="22.8754" cy="6.31488" r="2.76606" fill="#C2E2E9"/>
<circle cx="12.8481" cy="29.6469" r="2.76606" fill="#C2E2E9"/>
<path fill-rule="evenodd" clip-rule="evenodd" d="M2.1249 19.8436C1.16277 18.8815 1.16277 17.3216 2.1249 16.3595L16.2462 2.23815C17.2084 1.27602 18.7683 1.27603 19.7304 2.23815L33.6407 16.1485C34.6029 17.1106 34.6029 18.6705 33.6407 19.6327L19.5194 33.754C18.5573 34.7161 16.9974 34.7161 16.0352 33.754L2.1249 19.8436ZM3.04178 17.2764C2.58604 17.7321 2.58604 18.471 3.04178 18.9268L16.9521 32.8371C17.4079 33.2928 18.1468 33.2928 18.6025 32.8371L32.7238 18.7158C33.1796 18.26 33.1796 17.5211 32.7238 17.0654L18.8135 3.15504C18.3578 2.69929 17.6189 2.69929 17.1631 3.15504L3.04178 17.2764Z" fill="#115766"/>
<path d="M16.5689 22.5119H19.3219C21.0643 22.5119 22.4768 21.0995 22.4768 19.3571V17.0089C22.4768 16.1741 22.1459 15.3732 21.5565 14.7819L21.153 14.377C20.5611 13.7831 19.757 13.4492 18.9184 13.4492H16.5689C14.8265 13.4492 13.4141 14.8617 13.4141 16.6041V19.3571C13.4141 21.0995 14.8265 22.5119 16.5689 22.5119Z" fill="#115766"/>
<circle cx="22.477" cy="29.6469" r="2.76606" fill="#46B2C8"/>
<circle cx="6.21137" cy="23.0024" r="2.76606" fill="#46B2C8"/>
<circle cx="12.8481" cy="6.31488" r="2.76606" fill="#46B2C8"/>
<circle cx="29.684" cy="13.5502" r="2.76606" fill="#46B2C8"/>
</svg>
