<svg width="130" height="136" viewBox="0 0 130 136" fill="none" xmlns="http://www.w3.org/2000/svg">
<path d="M103.18 123.638H15.7342C15.0006 123.638 14.4062 123.043 14.4062 122.31V24.5665C14.4062 23.8332 15.0006 23.2385 15.7342 23.2385H103.18C103.913 23.2385 104.508 23.8332 104.508 24.5665V122.31C104.508 123.043 103.913 123.638 103.18 123.638Z" fill="#115766"/>
<path d="M36.2891 41.5811H82.6272" stroke="white" stroke-width="4" stroke-miterlimit="10" stroke-linecap="round" stroke-linejoin="round"/>
<path d="M36.2891 51.2334H82.6272" stroke="white" stroke-width="4" stroke-miterlimit="10" stroke-linecap="round" stroke-linejoin="round"/>
<path d="M55.6641 60.8887H82.625" stroke="white" stroke-width="4" stroke-miterlimit="10" stroke-linecap="round" stroke-linejoin="round"/>
<path d="M36.2891 60.8887H47.6984" stroke="white" stroke-width="4" stroke-miterlimit="10" stroke-linecap="round" stroke-linejoin="round"/>
<path d="M36.2891 70.541H82.6272" stroke="white" stroke-width="4" stroke-miterlimit="10" stroke-linecap="round" stroke-linejoin="round"/>
<path d="M70.2734 80.1943H82.6267" stroke="white" stroke-width="4" stroke-miterlimit="10" stroke-linecap="round" stroke-linejoin="round"/>
<path d="M36.2891 80.1943H63.1029" stroke="white" stroke-width="4" stroke-miterlimit="10" stroke-linecap="round" stroke-linejoin="round"/>
<path d="M36.2891 89.8496H82.6272" stroke="white" stroke-width="4" stroke-miterlimit="10" stroke-linecap="round" stroke-linejoin="round"/>
<path d="M36.2891 99.502H82.6272" stroke="white" stroke-width="4" stroke-miterlimit="10" stroke-linecap="round" stroke-linejoin="round"/>
<path d="M25.588 122.31V24.5665C25.588 23.8332 26.1824 23.2385 26.916 23.2385H15.7342C15.0009 23.2385 14.4062 23.8332 14.4062 24.5665V122.31C14.4062 123.043 15.0009 123.638 15.7342 123.638H26.916C26.1824 123.638 25.588 123.043 25.588 122.31Z" fill="#46B2C8"/>
<path d="M31.762 23.2385H15.7342C15.0009 23.2385 14.4062 23.8329 14.4062 24.5665V122.31C14.4062 123.043 15.0009 123.638 15.7342 123.638H103.18C103.913 123.638 104.508 123.043 104.508 122.31V24.5665C104.508 23.8329 103.913 23.2385 103.18 23.2385H41.0578" stroke="white" stroke-width="4" stroke-miterlimit="10" stroke-linecap="round" stroke-linejoin="round"/>
<path d="M72.5114 15.1656C71.6113 15.6155 71.043 16.5353 71.043 17.5414V31.2904C71.043 51.6186 81.8447 62.0052 98.0916 71.9474C98.9444 72.4693 100.02 72.4693 100.873 71.9474C117.12 62.0052 127.922 51.6186 127.922 31.2904V17.5414C127.922 16.5353 127.353 15.6155 126.454 15.1656L100.67 2.27956C99.9223 1.90613 99.0427 1.90613 98.295 2.27956L72.5114 15.1656Z" fill="#46B2C8"/>
<path d="M80.5905 26.9081V11.1278L72.5117 15.1656C71.6116 15.6155 71.043 16.5353 71.043 17.5414V31.2904C71.043 51.6186 81.8447 62.0052 98.0916 71.9474C98.9444 72.4693 100.02 72.4693 100.873 71.9474C103.24 70.4994 105.489 69.0419 107.608 67.5455C91.3784 57.6094 80.5905 47.2233 80.5905 26.9081Z" fill="#115766"/>
<path d="M72.5114 15.1656C71.6113 15.6155 71.043 16.5353 71.043 17.5414V31.2904C71.043 51.6186 81.8447 62.0052 98.0916 71.9474C98.9444 72.4693 100.02 72.4693 100.873 71.9474C117.12 62.0052 127.922 51.6186 127.922 31.2904V17.5414C127.922 16.5353 127.353 15.6155 126.454 15.1656L100.67 2.27955C99.9223 1.90613 99.0427 1.90613 98.295 2.27955L72.5114 15.1656Z" stroke="white" stroke-width="4" stroke-miterlimit="10" stroke-linecap="round" stroke-linejoin="round"/>
<path d="M117.523 34.0141C117.523 44.0467 109.39 52.1797 99.3572 52.1797C89.3244 52.1797 81.1914 44.0467 81.1914 34.0141C81.1914 23.9816 89.3244 15.8486 99.3572 15.8486C109.39 15.8486 117.523 23.9816 117.523 34.0141Z" fill="white"/>
<path d="M88.8952 34.0141C88.8952 25.3037 95.0272 18.0286 103.209 16.2616C101.967 15.9933 100.679 15.8486 99.3572 15.8486C89.3244 15.8486 81.1914 23.9816 81.1914 34.0141C81.1914 44.0467 89.3244 52.1797 99.3572 52.1797C100.679 52.1797 101.967 52.0349 103.209 51.7667C95.0272 49.9997 88.8952 42.7246 88.8952 34.0141Z" fill="#46B2C8"/>
<path d="M117.237 30.8172C115.726 22.31 108.298 15.8483 99.3572 15.8483C89.3244 15.8483 81.1914 23.9813 81.1914 34.0139C81.1914 44.0467 89.3244 52.1797 99.3572 52.1797C107.25 52.1797 113.964 47.1448 116.47 40.113" stroke="white" stroke-width="4" stroke-miterlimit="10" stroke-linecap="round" stroke-linejoin="round"/>
<path d="M92.4492 33.2551L98.4214 39.2275L107.679 29.9703" stroke="#115766" stroke-width="4" stroke-miterlimit="10" stroke-linecap="round" stroke-linejoin="round"/>
<path d="M34.0377 104.89H16.3702V89.595C16.3702 84.724 20.3328 80.7611 25.2038 80.7611C30.0748 80.7611 34.0377 84.724 34.0377 89.595V104.89ZM25.2038 72.7933C15.9245 72.7933 8.40234 80.3157 8.40234 89.595V106.396H42.0053V89.595C42.0053 80.3157 34.4831 72.7933 25.2038 72.7933Z" fill="#023A59"/>
<path d="M27.455 72.9488C26.7182 72.85 25.9677 72.7943 25.2038 72.7943C15.9245 72.7943 8.40234 80.3167 8.40234 89.596V106.397H12.9047V89.596C12.9047 81.0805 19.241 74.0495 27.455 72.9488Z" fill="#023A59"/>
<path d="M34.0377 104.89H16.3702V89.595C16.3702 84.724 20.3328 80.7611 25.2038 80.7611C30.0748 80.7611 34.0377 84.724 34.0377 89.595V104.89ZM25.2038 72.7933C15.9245 72.7933 8.40234 80.3157 8.40234 89.595V106.396H42.0053V89.595C42.0053 80.3157 34.4831 72.7933 25.2038 72.7933Z" stroke="white" stroke-width="4" stroke-miterlimit="10" stroke-linecap="round" stroke-linejoin="round"/>
<path d="M45.7486 134H4.65594C3.18933 134 2 132.811 2 131.344V102.653C2 101.186 3.18933 99.9968 4.65594 99.9968H45.7486C47.2152 99.9968 48.4045 101.186 48.4045 102.653V131.344C48.4045 132.811 47.2152 134 45.7486 134Z" fill="#46B2C8"/>
<path d="M13.1687 131.344V102.653C13.1687 101.186 14.3581 99.9968 15.8247 99.9968H4.65594C3.18933 99.9968 2 101.186 2 102.653V131.344C2 132.811 3.18933 134 4.65594 134H15.8247C14.3581 134 13.1687 132.811 13.1687 131.344Z" fill="#115766"/>
<path d="M48.4045 108.636V102.653C48.4045 101.186 47.2152 99.9968 45.7486 99.9968H4.65594C3.18933 99.9968 2 101.186 2 102.653V131.344C2 132.811 3.18933 134 4.65594 134H45.7486C47.2152 134 48.4045 132.811 48.4045 131.344V117.932" stroke="white" stroke-width="4" stroke-miterlimit="10" stroke-linecap="round" stroke-linejoin="round"/>
</svg>
