<svg width="132" height="132" viewBox="0 0 132 132" fill="none" xmlns="http://www.w3.org/2000/svg">
<path d="M123.75 4.125H8.25C7.15598 4.125 6.10677 4.5596 5.33318 5.33318C4.5596 6.10677 4.125 7.15598 4.125 8.25V86.625C4.125 87.719 4.5596 88.7682 5.33318 89.5418C6.10677 90.3154 7.15598 90.75 8.25 90.75H45.6658C42.7715 85.7332 41.2486 80.043 41.25 74.2512C41.2514 68.4594 42.7771 62.77 45.6738 57.7546C48.5706 52.7393 52.7362 48.5746 57.7523 45.6791C62.7684 42.7836 68.4582 41.2593 74.25 41.2593C80.0418 41.2593 85.7316 42.7836 90.7477 45.6791C95.7638 48.5746 99.9295 52.7393 102.826 57.7546C105.723 62.77 107.249 68.4594 107.25 74.2512C107.251 80.043 105.728 85.7332 102.834 90.75H123.75C124.844 90.75 125.893 90.3154 126.667 89.5418C127.44 88.7682 127.875 87.719 127.875 86.625V8.25C127.875 7.15598 127.44 6.10677 126.667 5.33318C125.893 4.5596 124.844 4.125 123.75 4.125ZM53.625 33C53.625 34.094 53.1904 35.1432 52.4168 35.9168C51.6432 36.6904 50.594 37.125 49.5 37.125H24.75C23.656 37.125 22.6068 36.6904 21.8332 35.9168C21.0596 35.1432 20.625 34.094 20.625 33V16.5C20.625 15.406 21.0596 14.3568 21.8332 13.5832C22.6068 12.8096 23.656 12.375 24.75 12.375H49.5C50.594 12.375 51.6432 12.8096 52.4168 13.5832C53.1904 14.3568 53.625 15.406 53.625 16.5V33Z" fill="#46B2C8"/>
<path d="M123.75 2.0625H8.25C6.60897 2.0625 5.03516 2.7144 3.87478 3.87478C2.7144 5.03516 2.0625 6.60897 2.0625 8.25V86.625C2.0625 88.266 2.7144 89.8398 3.87478 91.0002C5.03516 92.1606 6.60897 92.8125 8.25 92.8125H44.55C48.5332 99.1671 54.441 104.084 61.413 106.848L54.8336 113.438H47.4375V107.25C47.4375 105.609 46.7856 104.035 45.6252 102.875C44.4648 101.714 42.891 101.062 41.25 101.062H16.5C14.859 101.062 13.2852 101.714 12.1248 102.875C10.9644 104.035 10.3125 105.609 10.3125 107.25V123.75C10.3125 125.391 10.9644 126.965 12.1248 128.125C13.2852 129.286 14.859 129.938 16.5 129.938H41.25C42.891 129.938 44.4648 129.286 45.6252 128.125C46.7856 126.965 47.4375 125.391 47.4375 123.75V117.562H55.6875C56.2345 117.562 56.759 117.345 57.1457 116.958L65.8515 108.252C70.3982 109.406 75.1324 109.619 79.7644 108.879C84.3964 108.14 88.8286 106.462 92.7898 103.95L98.1523 109.312L97.548 109.917C97.1613 110.304 96.9441 110.828 96.9441 111.375C96.9441 111.922 97.1613 112.446 97.548 112.833L111.484 126.77C112.488 127.774 113.68 128.57 114.992 129.113C116.304 129.657 117.71 129.936 119.13 129.936C120.55 129.936 121.956 129.657 123.268 129.113C124.58 128.57 125.772 127.774 126.776 126.77C127.78 125.765 128.576 124.573 129.12 123.262C129.663 121.95 129.943 120.544 129.943 119.124C129.943 117.704 129.663 116.298 129.12 114.986C128.576 113.674 127.78 112.482 126.776 111.478L112.839 97.5418C112.453 97.1552 111.928 96.9379 111.381 96.9379C110.834 96.9379 110.31 97.1552 109.923 97.5418L109.312 98.1461L103.979 92.8125H123.75C125.391 92.8125 126.965 92.1606 128.125 91.0002C129.286 89.8398 129.938 88.266 129.938 86.625V8.25C129.938 6.60897 129.286 5.03516 128.125 3.87478C126.965 2.7144 125.391 2.0625 123.75 2.0625ZM43.3125 123.75C43.3125 124.297 43.0952 124.822 42.7084 125.208C42.3216 125.595 41.797 125.812 41.25 125.812H16.5C15.953 125.812 15.4284 125.595 15.0416 125.208C14.6548 124.822 14.4375 124.297 14.4375 123.75V107.25C14.4375 106.703 14.6548 106.178 15.0416 105.792C15.4284 105.405 15.953 105.188 16.5 105.188H41.25C41.797 105.188 42.3216 105.405 42.7084 105.792C43.0952 106.178 43.3125 106.703 43.3125 107.25V123.75ZM111.375 101.916L123.853 114.395C124.486 115.013 124.989 115.751 125.335 116.565C125.68 117.38 125.861 118.255 125.866 119.14C125.871 120.024 125.7 120.901 125.364 121.72C125.028 122.538 124.533 123.281 123.907 123.907C123.281 124.533 122.538 125.028 121.72 125.364C120.901 125.7 120.024 125.871 119.14 125.866C118.255 125.861 117.38 125.68 116.565 125.335C115.751 124.989 115.013 124.486 114.395 123.853L101.916 111.375L111.375 101.916ZM106.396 101.062L101.062 106.396L96.2094 101.543C98.173 99.9611 99.9611 98.173 101.543 96.2094L106.396 101.062ZM74.25 105.188C68.1311 105.188 62.1497 103.373 57.062 99.9736C51.9744 96.5741 48.0091 91.7424 45.6675 86.0893C43.3259 80.4362 42.7132 74.2157 43.907 68.2144C45.1007 62.2131 48.0472 56.7006 52.3739 52.3739C56.7006 48.0472 62.2131 45.1007 68.2144 43.907C74.2157 42.7132 80.4362 43.3259 86.0893 45.6675C91.7424 48.0091 96.5741 51.9744 99.9736 57.062C103.373 62.1497 105.188 68.1311 105.188 74.25C105.178 82.4523 101.916 90.316 96.1159 96.1159C90.316 101.916 82.4523 105.178 74.25 105.188ZM125.812 86.625C125.812 87.172 125.595 87.6966 125.208 88.0834C124.822 88.4702 124.297 88.6875 123.75 88.6875H106.165C108.081 84.485 109.145 79.9442 109.294 75.328C109.444 70.7117 108.677 66.1116 107.037 61.7937C105.397 57.4759 102.918 53.5262 99.7414 50.173C96.5652 46.8198 92.7555 44.1298 88.5328 42.2586L99 31.7914V37.125H103.125V26.8125C103.125 26.2655 102.908 25.7409 102.521 25.3541C102.134 24.9673 101.61 24.75 101.062 24.75H90.75V28.875H96.0836L84.2882 40.6704C81.409 39.8167 78.4315 39.3384 75.4297 39.2473L65.6865 23.6569C65.5011 23.3602 65.2433 23.1156 64.9373 22.946C64.6314 22.7765 64.2873 22.6875 63.9375 22.6875H55.6875V16.5C55.6875 14.859 55.0356 13.2852 53.8752 12.1248C52.7148 10.9644 51.141 10.3125 49.5 10.3125H24.75C23.109 10.3125 21.5352 10.9644 20.3748 12.1248C19.2144 13.2852 18.5625 14.859 18.5625 16.5V33C18.5625 34.641 19.2144 36.2148 20.3748 37.3752C21.5352 38.5356 23.109 39.1875 24.75 39.1875H49.5C51.141 39.1875 52.7148 38.5356 53.8752 37.3752C55.0356 36.2148 55.6875 34.641 55.6875 33V26.8125H62.7949L70.6447 39.3731C61.7569 40.3021 53.5609 44.5953 47.7366 51.3728L44.8491 48.1284C44.6572 47.9129 44.4222 47.74 44.1593 47.621C43.8964 47.502 43.6114 47.4395 43.3228 47.4375H43.3125C43.0267 47.4375 42.7439 47.4969 42.4823 47.6119C42.2206 47.7269 41.9857 47.8951 41.7924 48.1057L19.1049 72.8558L22.1451 75.6442L43.2898 52.5773L45.1646 54.6893C40.0457 62.2266 38.1062 71.4789 39.7671 80.4375H14.4375V24.75H10.3125V82.5C10.3125 83.047 10.5298 83.5716 10.9166 83.9584C11.3034 84.3452 11.828 84.5625 12.375 84.5625H40.7406C41.1831 85.9702 41.7156 87.3481 42.3349 88.6875H8.25C7.70299 88.6875 7.17839 88.4702 6.79159 88.0834C6.4048 87.6966 6.1875 87.172 6.1875 86.625V8.25C6.1875 7.70299 6.4048 7.17839 6.79159 6.79159C7.17839 6.4048 7.70299 6.1875 8.25 6.1875H123.75C124.297 6.1875 124.822 6.4048 125.208 6.79159C125.595 7.17839 125.812 7.70299 125.812 8.25V86.625ZM51.5625 16.5V33C51.5625 33.547 51.3452 34.0716 50.9584 34.4584C50.5716 34.8452 50.047 35.0625 49.5 35.0625H24.75C24.203 35.0625 23.6784 34.8452 23.2916 34.4584C22.9048 34.0716 22.6875 33.547 22.6875 33V16.5C22.6875 15.953 22.9048 15.4284 23.2916 15.0416C23.6784 14.6548 24.203 14.4375 24.75 14.4375H49.5C50.047 14.4375 50.5716 14.6548 50.9584 15.0416C51.3452 15.4284 51.5625 15.953 51.5625 16.5Z" fill="white"/>
<path d="M74.25 47.4375C68.947 47.4375 63.7631 49.01 59.3538 51.9562C54.9445 54.9024 51.5079 59.09 49.4785 63.9893C47.4491 68.8886 46.9181 74.2797 47.9527 79.4809C48.9873 84.682 51.5409 89.4595 55.2907 93.2093C59.0405 96.9591 63.818 99.5127 69.0191 100.547C74.2203 101.582 79.6114 101.051 84.5107 99.0215C89.4101 96.9921 93.5976 93.5555 96.5438 89.1462C99.49 84.7369 101.063 79.553 101.063 74.25C101.054 67.1414 98.2268 60.3263 93.2003 55.2997C88.1737 50.2732 81.3586 47.4457 74.25 47.4375ZM73.3508 51.6079L59.9012 65.0574L56.0649 60.7427C58.0804 58.0251 60.6795 55.7938 63.6709 54.213C66.6623 52.6322 69.97 51.742 73.3508 51.6079ZM74.25 96.9375C70.0725 96.933 65.9774 95.7751 62.416 93.5915C58.8546 91.408 55.9652 88.2835 54.0664 84.5625H78.375V80.4375H52.4411C50.9028 75.1159 51.3968 69.4125 53.8271 64.4346L58.2698 69.4341C58.4567 69.6443 58.6848 69.814 58.9398 69.9329C59.1948 70.0517 59.4715 70.1171 59.7527 70.125H59.8125C60.3595 70.1249 60.884 69.9075 61.2707 69.5207L78.7731 52.0183C84.2834 53.1398 89.1808 56.2678 92.5156 60.7955C95.8504 65.3232 97.3849 70.928 96.8215 76.523C96.2581 82.118 93.637 87.3043 89.4665 91.0763C85.296 94.8483 79.8733 96.937 74.25 96.9375Z" fill="white"/>
<path d="M26.8125 18.5625H47.4375V22.6875H26.8125V18.5625Z" fill="white"/>
<path d="M26.8125 26.8125H47.4375V30.9375H26.8125V26.8125Z" fill="white"/>
<path d="M18.5625 109.312H39.1875V113.438H18.5625V109.312Z" fill="white"/>
<path d="M18.5625 117.562H39.1875V121.688H18.5625V117.562Z" fill="white"/>
</svg>
