<svg width="124" height="124" viewBox="0 0 124 124" fill="none" xmlns="http://www.w3.org/2000/svg">
<path d="M68.1875 2.1875H18.6875C16.4093 2.1875 14.5625 4.03433 14.5625 6.3125V92.9375C14.5625 95.2157 16.4093 97.0625 18.6875 97.0625H68.1875C70.4657 97.0625 72.3125 95.2157 72.3125 92.9375V6.3125C72.3125 4.03433 70.4657 2.1875 68.1875 2.1875Z" fill="#115766"/>
<path d="M72.3125 55.8125V20.75C72.3125 19.109 72.9644 17.5352 74.1248 16.3748C75.2852 15.2144 76.859 14.5625 78.5 14.5625C80.141 14.5625 81.7148 15.2144 82.8752 16.3748C84.0356 17.5352 84.6875 19.109 84.6875 20.75V62C84.6875 60.359 85.3394 58.7852 86.4998 57.6248C87.6602 56.4644 89.234 55.8125 90.875 55.8125C92.516 55.8125 94.0898 56.4644 95.2502 57.6248C96.4106 58.7852 97.0625 60.359 97.0625 62V64.0625C97.0624 63.2501 97.2227 62.4457 97.5342 61.6953C97.8456 60.945 98.3021 60.2635 98.8775 59.69C99.5232 59.0338 100.315 58.5391 101.188 58.2463C101.846 57.9965 102.545 57.8706 103.25 57.875C104.891 57.875 106.465 58.5269 107.625 59.6873C108.786 60.8477 109.438 62.4215 109.438 64.0625V66.125C109.438 64.484 110.089 62.9102 111.25 61.7498C112.41 60.5894 113.984 59.9375 115.625 59.9375C117.266 59.9375 118.84 60.5894 120 61.7498C121.161 62.9102 121.812 64.484 121.812 66.125V74.2925C121.811 75.7122 121.567 77.1212 121.091 78.4587L111.5 105.312H70.25L67.3006 97.0625L60.6594 78.4587C60.1833 77.1212 59.9392 75.7122 59.9375 74.2925V55.7919C59.9386 54.1567 60.5887 52.5887 61.7449 51.4324C62.9012 50.2762 64.4692 49.6261 66.1044 49.625C67.7505 49.6286 69.3288 50.2807 70.4975 51.44C71.0729 52.0135 71.5294 52.695 71.8408 53.4453C72.1523 54.1957 72.3126 55.0001 72.3125 55.8125Z" fill="#115766"/>
<path d="M121.812 66.125V74.2925C121.811 75.7122 121.567 77.1212 121.091 78.4587L111.5 105.312H105.312L114.903 78.4587C115.379 77.1212 115.623 75.7122 115.625 74.2925V66.125C115.625 65.3126 115.465 64.5082 115.153 63.7578C114.842 63.0075 114.385 62.326 113.81 61.7525C113.425 61.3729 112.995 61.0405 112.531 60.7625C113.473 60.2231 114.54 59.9388 115.625 59.9375C117.266 59.9375 118.84 60.5894 120 61.7498C121.161 62.9102 121.812 64.484 121.812 66.125Z" fill="#46B2C8"/>
<path d="M101.188 105.312H111.5V121.812H101.188V105.312Z" fill="#46B2C8"/>
<path d="M90.875 105.312H101.188V121.812H90.875V105.312Z" fill="#46B2C8"/>
<path d="M80.5625 105.312H90.875V121.812H80.5625V105.312Z" fill="#46B2C8"/>
<path d="M70.25 105.312H80.5625V121.812H70.25V105.312Z" fill="#46B2C8"/>
<path d="M60.35 97.0625L51.6875 109.438H6.3125L2.1875 66.125V57.875C2.1875 55.687 3.05669 53.5885 4.60387 52.0414C6.15104 50.4942 8.24946 49.625 10.4375 49.625H24.875C27.063 49.625 29.1615 50.4942 30.7086 52.0414C32.2558 53.5885 33.125 55.687 33.125 57.875C33.125 60.063 32.2558 62.1615 30.7086 63.7086C29.1615 65.2558 27.063 66.125 24.875 66.125H14.5625V92.9375C14.5658 94.0305 15.0014 95.0778 15.7743 95.8507C16.5472 96.6236 17.5945 97.0592 18.6875 97.0625H60.35Z" fill="#115766"/>
<path d="M43.4375 47.5625C53.6893 47.5625 62 39.2518 62 29C62 18.7482 53.6893 10.4375 43.4375 10.4375C33.1857 10.4375 24.875 18.7482 24.875 29C24.875 39.2518 33.1857 47.5625 43.4375 47.5625Z" fill="white"/>
<path d="M62 29C62 33.9231 60.0443 38.6445 56.5632 42.1257C53.082 45.6068 48.3606 47.5625 43.4375 47.5625C42.0502 47.56 40.6672 47.4078 39.3125 47.1088C43.4146 46.172 47.0771 43.8703 49.7004 40.5805C52.3237 37.2907 53.7523 33.2077 53.7523 29C53.7523 24.7923 52.3237 20.7093 49.7004 17.4195C47.0771 14.1297 43.4146 11.828 39.3125 10.8912C40.6672 10.5922 42.0502 10.44 43.4375 10.4375C48.3606 10.4375 53.082 12.3932 56.5632 15.8743C60.0443 19.3555 62 24.0769 62 29Z" fill="#46B2C8"/>
<path d="M6.3125 109.438H51.6875V121.812H6.3125V109.438Z" fill="#46B2C8"/>
<path d="M84.6875 20.7501V62.0001H78.5V20.7501C78.5007 19.6633 78.2151 18.5954 77.672 17.6541C77.1289 16.7127 76.3475 15.931 75.4062 15.3876C76.3472 14.8443 77.4145 14.5584 78.501 14.5586C79.5875 14.5588 80.6547 14.845 81.5955 15.3886C82.5362 15.9321 83.3172 16.7138 83.86 17.6549C84.4028 18.5961 84.6882 19.6636 84.6875 20.7501Z" fill="#115766"/>
<path d="M112.104 25.4785L115.021 28.3949L123.271 20.1449C123.657 19.7581 123.875 19.2336 123.875 18.6867C123.875 18.1398 123.657 17.6153 123.271 17.2285L115.021 8.97852L112.104 11.8949L116.834 16.6242H92.9375V20.7492H116.834L112.104 25.4785Z" fill="white"/>
<path d="M99.7289 44.8949L102.645 41.9785L97.9159 37.2492H121.812V33.1242H97.9159L102.645 28.3949L99.7289 25.4785L91.4789 33.7285C91.0922 34.1153 90.875 34.6398 90.875 35.1867C90.875 35.7336 91.0922 36.2581 91.4789 36.6449L99.7289 44.8949Z" fill="white"/>
<path d="M121.462 60.2881C120 58.8213 118.037 57.9616 115.968 57.8812C113.898 57.8009 111.875 58.506 110.304 59.855C109.582 58.6248 108.552 57.6045 107.315 56.8954C106.077 56.1863 104.676 55.813 103.25 55.8125C102.328 55.7995 101.411 55.9604 100.548 56.2869C99.5921 56.6246 98.7099 57.1427 97.9494 57.8131C97.2235 56.5807 96.1898 55.5582 94.9496 54.8459C93.7093 54.1336 92.3052 53.7559 90.875 53.75C89.4235 53.7542 87.9995 54.1458 86.75 54.8844V20.75C86.75 18.562 85.8808 16.4635 84.3336 14.9164C82.7865 13.3692 80.688 12.5 78.5 12.5C77.0485 12.5042 75.6245 12.8958 74.375 13.6344V6.3125C74.3701 4.67298 73.7166 3.10201 72.5573 1.94269C71.398 0.783364 69.827 0.129897 68.1875 0.125H18.6875C17.048 0.129897 15.477 0.783364 14.3177 1.94269C13.1584 3.10201 12.5049 4.67298 12.5 6.3125V47.5625H10.4375C7.70246 47.5625 5.07943 48.649 3.14546 50.583C1.21149 52.5169 0.125 55.14 0.125 57.875V66.3106L4.25 109.541V121.812C4.25 122.36 4.4673 122.884 4.85409 123.271C5.24089 123.658 5.76549 123.875 6.3125 123.875H51.6875C52.2345 123.875 52.7591 123.658 53.1459 123.271C53.5327 122.884 53.75 122.36 53.75 121.812V110.097L61.4225 99.125H65.8569L68.1875 105.663V121.812C68.1875 122.36 68.4048 122.884 68.7916 123.271C69.1784 123.658 69.703 123.875 70.25 123.875H111.5C112.047 123.875 112.572 123.658 112.958 123.271C113.345 122.884 113.562 122.36 113.562 121.812V105.663L123.029 79.1394C123.586 77.584 123.873 75.9446 123.875 74.2925V66.125C123.876 65.0413 123.663 63.968 123.249 62.9665C122.835 61.965 122.228 61.0549 121.462 60.2881ZM49.625 119.75H8.375V111.5H49.625V119.75ZM50.615 107.375H8.18937L4.25 66.125V57.875C4.2549 56.2355 4.90836 54.6645 6.06769 53.5052C7.22701 52.3459 8.79798 51.6924 10.4375 51.6875H24.875C26.516 51.6875 28.0898 52.3394 29.2502 53.4998C30.4106 54.6602 31.0625 56.234 31.0625 57.875C31.0625 59.516 30.4106 61.0898 29.2502 62.2502C28.0898 63.4106 26.516 64.0625 24.875 64.0625H14.5625C14.0155 64.0625 13.4909 64.2798 13.1041 64.6666C12.7173 65.0534 12.5 65.578 12.5 66.125V92.9375C12.5049 94.577 13.1584 96.148 14.3177 97.3073C15.477 98.4666 17.048 99.1201 18.6875 99.125H56.39L50.615 107.375ZM18.6875 95C18.1405 95 17.6159 94.7827 17.2291 94.3959C16.8423 94.0091 16.625 93.4845 16.625 92.9375V86.75H53.75V82.625H16.625V68.1875H24.875C27.61 68.1875 30.2331 67.101 32.167 65.167C34.101 63.2331 35.1875 60.61 35.1875 57.875C35.1875 55.14 34.101 52.5169 32.167 50.583C30.2331 48.649 27.61 47.5625 24.875 47.5625H16.625V6.3125C16.625 5.76549 16.8423 5.24089 17.2291 4.85409C17.6159 4.4673 18.1405 4.25 18.6875 4.25H68.1875C68.7345 4.25 69.2591 4.4673 69.6459 4.85409C70.0327 5.24089 70.25 5.76549 70.25 6.3125V48.7175C68.9976 47.9657 67.5651 47.5666 66.1044 47.5625C63.9235 47.5679 61.8335 48.4367 60.2913 49.9788C58.7492 51.521 57.8804 53.611 57.875 55.7919V74.2925C57.8792 75.9512 58.1651 77.5971 58.7206 79.16L64.3719 95H18.6875ZM78.5 119.75H72.3125V107.375H78.5V119.75ZM88.8125 119.75H82.625V107.375H88.8125V119.75ZM99.125 119.75H92.9375V107.375H99.125V119.75ZM109.438 119.75H103.25V107.375H109.438V119.75ZM119.75 74.2925C119.748 75.473 119.545 76.6445 119.152 77.7575L110.056 103.25H71.6937L62.5981 77.7781C62.2063 76.6576 62.0042 75.4795 62 74.2925V55.7919C62.0014 55.2502 62.1094 54.714 62.3179 54.2141C62.5265 53.7141 62.8315 53.2602 63.2155 52.8781C63.5995 52.496 64.055 52.1933 64.556 51.9872C65.0569 51.7812 65.5936 51.6758 66.1353 51.6772C66.677 51.6785 67.2131 51.7866 67.7131 51.9951C68.213 52.2037 68.667 52.5087 69.0491 52.8927C69.4312 53.2767 69.7339 53.7322 69.94 54.2331C70.146 54.7341 70.2514 55.2708 70.25 55.8125V72.3125H74.375V20.75C74.3831 19.6585 74.8203 18.614 75.5921 17.8421C76.364 17.0703 77.4085 16.6331 78.5 16.625C79.593 16.6283 80.6403 17.0639 81.4132 17.8368C82.1861 18.6097 82.6217 19.657 82.625 20.75V72.3125H86.75V62C86.7581 60.9085 87.1953 59.864 87.9671 59.0921C88.739 58.3203 89.7835 57.8831 90.875 57.875C91.968 57.8783 93.0153 58.3139 93.7882 59.0868C94.5611 59.8597 94.9967 60.907 95 62V72.3125H99.125V64.0625C99.1254 63.5214 99.2331 62.9857 99.442 62.4865C99.6509 61.9873 99.9567 61.5345 100.342 61.1544C100.778 60.6942 101.325 60.3533 101.93 60.1644C102.353 60.0123 102.8 59.9355 103.25 59.9375C104.343 59.9408 105.39 60.3764 106.163 61.1493C106.936 61.9222 107.372 62.9695 107.375 64.0625V74.375H111.5V66.125C111.503 65.032 111.939 63.9847 112.712 63.2118C113.485 62.4389 114.532 62.0033 115.625 62C116.717 62.0081 117.761 62.4453 118.533 63.2171C119.305 63.989 119.742 65.0335 119.75 66.125V74.2925Z" fill="white"/>
<path d="M43.4375 8.375C39.3583 8.375 35.3706 9.58463 31.9789 11.8509C28.5871 14.1172 25.9436 17.3384 24.3825 21.1072C22.8214 24.8759 22.413 29.0229 23.2088 33.0237C24.0046 37.0246 25.969 40.6996 28.8534 43.5841C31.7379 46.4685 35.4129 48.4329 39.4138 49.2287C43.4146 50.0245 47.5616 49.6161 51.3304 48.055C55.0991 46.494 58.3203 43.8504 60.5866 40.4586C62.8529 37.0669 64.0625 33.0792 64.0625 29C64.0538 23.5326 61.878 18.2916 58.0119 14.4256C54.1459 10.5595 48.9049 8.38373 43.4375 8.375ZM43.4375 45.5C40.1741 45.5 36.984 44.5323 34.2706 42.7192C31.5572 40.9062 29.4423 38.3293 28.1935 35.3143C26.9447 32.2993 26.6179 28.9817 27.2546 25.781C27.8912 22.5803 29.4627 19.6403 31.7702 17.3327C34.0778 15.0252 37.0178 13.4537 40.2185 12.817C43.4192 12.1804 46.7368 12.5071 49.7518 13.756C52.7668 15.0048 55.3437 17.1197 57.1568 19.8331C58.9698 22.5465 59.9375 25.7366 59.9375 29C59.9315 33.3742 58.1912 37.5676 55.0981 40.6606C52.0051 43.7537 47.8117 45.494 43.4375 45.5Z" fill="white"/>
<path d="M49.625 33.125C49.6184 34.4009 49.2189 35.6437 48.4808 36.6844C47.7427 37.7251 46.7019 38.5131 45.5 38.9412V41.375H41.375V38.9412C40.1731 38.5131 39.1323 37.7251 38.3942 36.6844C37.6561 35.6437 37.2566 34.4009 37.25 33.125H41.375C41.375 33.5329 41.496 33.9317 41.7226 34.2709C41.9492 34.61 42.2713 34.8744 42.6482 35.0305C43.0251 35.1866 43.4398 35.2275 43.8399 35.1479C44.24 35.0683 44.6075 34.8719 44.8959 34.5834C45.1844 34.295 45.3808 33.9275 45.4604 33.5274C45.54 33.1273 45.4991 32.7126 45.343 32.3357C45.1869 31.9588 44.9225 31.6367 44.5834 31.4101C44.2442 31.1835 43.8454 31.0625 43.4375 31.0625C41.9864 31.0512 40.5855 30.5303 39.4796 29.5909C38.3736 28.6514 37.6331 27.3531 37.3874 25.923C37.1416 24.4928 37.4064 23.0218 38.1353 21.7671C38.8642 20.5123 40.0109 19.5537 41.375 19.0588V16.625H45.5V19.0588C46.7019 19.4869 47.7427 20.2749 48.4808 21.3156C49.2189 22.3563 49.6184 23.5991 49.625 24.875H45.5C45.5 24.4671 45.379 24.0683 45.1524 23.7291C44.9258 23.39 44.6037 23.1256 44.2268 22.9695C43.8499 22.8134 43.4352 22.7725 43.0351 22.8521C42.635 22.9317 42.2675 23.1281 41.9791 23.4166C41.6906 23.705 41.4942 24.0725 41.4146 24.4726C41.335 24.8727 41.3759 25.2874 41.532 25.6643C41.6881 26.0412 41.9525 26.3633 42.2916 26.5899C42.6308 26.8165 43.0296 26.9375 43.4375 26.9375C45.077 26.9424 46.648 27.5959 47.8073 28.7552C48.9666 29.9145 49.6201 31.4855 49.625 33.125Z" fill="#115766"/>
</svg>
