<svg width="45" height="40" viewBox="0 0 45 40" fill="none" xmlns="http://www.w3.org/2000/svg">
<path d="M13.1016 39.0723H33.1016C35.863 39.0723 38.1016 36.8337 38.1016 34.0723V18.6066C38.1016 17.2834 37.5771 16.0142 36.6431 15.077L32.1242 10.5427C31.186 9.60138 29.9117 9.07227 28.5826 9.07227H13.1016C10.3401 9.07227 8.10156 11.3108 8.10156 14.0723V34.0723C8.10156 36.8337 10.3401 39.0723 13.1016 39.0723Z" fill="#115766"/>
<path d="M34.918 24.8847H39.7899C42.5514 24.8847 44.7899 22.6461 44.7899 19.8847V15.781C44.7899 14.4579 44.2655 13.1887 43.3315 12.2515L42.5658 11.4832C41.6276 10.5418 40.3533 10.0127 39.0242 10.0127H34.918C32.1565 10.0127 29.918 12.2513 29.918 15.0127V19.8847C29.918 22.6461 32.1565 24.8847 34.918 24.8847Z" fill="#46B2C8"/>
<path d="M6.33594 37.1923H11.2079C13.9693 37.1923 16.2079 34.9537 16.2079 32.1923V28.0886C16.2079 26.7655 15.6835 25.4963 14.7494 24.5591L13.9837 23.7908C13.0456 22.8494 11.7712 22.3203 10.4422 22.3203H6.33594C3.57451 22.3203 1.33594 24.5589 1.33594 27.3203V32.1923C1.33594 34.9537 3.57451 37.1923 6.33594 37.1923Z" fill="#46B2C8"/>
<path fill-rule="evenodd" clip-rule="evenodd" d="M41.3559 14.6298C41.6045 14.8783 41.6045 15.2812 41.3559 15.5297L36.6189 20.2667C36.3704 20.5153 35.9675 20.5153 35.719 20.2667L33.3505 17.8982C33.1019 17.6497 33.1019 17.2468 33.3505 16.9983C33.599 16.7497 34.0019 16.7497 34.2504 16.9983L36.1689 18.9168L40.456 14.6298C40.7045 14.3812 41.1074 14.3812 41.3559 14.6298Z" fill="#C2E2E9"/>
<path fill-rule="evenodd" clip-rule="evenodd" d="M12.7739 26.9374C13.0224 27.1859 13.0224 27.5888 12.7739 27.8374L8.0369 32.5744C7.78838 32.8229 7.38545 32.8229 7.13692 32.5744L4.76842 30.2059C4.5199 29.9573 4.5199 29.5544 4.76842 29.3059C5.01695 29.0573 5.41988 29.0573 5.6684 29.3059L7.58691 31.2244L11.8739 26.9374C12.1224 26.6888 12.5254 26.6888 12.7739 26.9374Z" fill="#C2E2E9"/>
<path d="M5.5 15.372H10.372C13.1334 15.372 15.372 13.1334 15.372 10.372V6.26832C15.372 4.94518 14.8475 3.67599 13.9135 2.7388L13.1478 1.97047C12.2096 1.02912 10.9353 0.5 9.60626 0.5H5.5C2.73858 0.5 0.5 2.73858 0.5 5.5V10.372C0.5 13.1334 2.73858 15.372 5.5 15.372Z" fill="#C2E2E9"/>
<path fill-rule="evenodd" clip-rule="evenodd" d="M11.938 5.11706C12.1865 5.36558 12.1865 5.76851 11.938 6.01704L7.20097 10.754C6.95244 11.0026 6.54951 11.0026 6.30099 10.754L3.93249 8.38554C3.68396 8.13702 3.68396 7.73408 3.93249 7.48556C4.18101 7.23703 4.58394 7.23703 4.83247 7.48556L6.75098 9.40407L11.038 5.11706C11.2865 4.86853 11.6894 4.86853 11.938 5.11706Z" fill="#115766"/>
</svg>
