<svg width="255" height="255" viewBox="0 0 255 255" fill="none" xmlns="http://www.w3.org/2000/svg">
<path d="M199.924 0.49707C205.541 2.33625 209.617 5.76608 211.108 11.731C211.307 12.5263 211.506 13.3713 211.506 14.1667C211.506 32.5585 211.506 50.9503 211.556 69.3421C211.556 71.6784 210.512 73.269 208.424 74.2134C206.386 75.1579 204.547 74.6111 202.906 73.2193C201.415 71.9766 201.266 70.2865 201.266 68.4474C201.266 51.8947 201.266 35.2924 201.266 18.7398C201.266 17.8947 201.316 17.0994 201.216 16.2544C200.918 12.5263 199.327 10.9357 195.599 10.5877C194.754 10.538 193.959 10.538 193.114 10.538C135.155 10.538 77.1959 10.538 19.2865 10.538C18.4415 10.538 17.6462 10.4883 16.8012 10.5877C13.0731 10.9357 11.4327 12.5263 11.1345 16.2544C11.0848 17.0994 11.0848 17.8947 11.0848 18.7398C11.0848 91.3626 11.0848 164.035 11.0848 236.658C11.0848 237.254 11.0848 237.801 11.0848 238.398C11.1842 242.921 12.9737 244.711 17.4474 244.86C18.0936 244.86 18.7895 244.86 19.4357 244.86C77.2953 244.86 135.155 244.86 193.015 244.86C193.611 244.86 194.158 244.86 194.754 244.86C199.377 244.76 201.216 242.921 201.216 238.249C201.266 227.711 201.216 217.222 201.216 206.684C201.216 205.789 201.216 204.845 201.216 203.95C201.266 200.52 203.404 198.184 206.386 198.184C209.368 198.184 211.456 200.57 211.456 204C211.456 215.83 211.456 227.711 211.456 239.541C211.456 246.848 207.827 251.968 201.018 254.453C200.62 254.602 200.272 254.751 199.874 254.901C137.342 254.901 74.8596 254.901 12.3275 254.901C5.21929 252.465 0.795311 247.842 0.745603 239.988C0.695895 165.079 0.745603 90.2193 0.745603 15.3099C0.745603 14.0672 0.795311 12.8743 1.14326 11.6316C2.78361 5.76608 6.76022 2.33625 12.4269 0.49707C74.9094 0.49707 137.442 0.49707 199.924 0.49707Z" fill="#828282" fill-opacity="0.4"/>
<path d="M255 87.4854C252.614 95.3889 247.792 102 243.766 109.009C226.319 139.529 208.673 169.95 191.126 200.421C189.933 202.459 188.392 204.099 186.503 205.491C176.909 212.5 167.316 219.608 157.772 226.716C155.585 228.307 153.348 229.152 150.912 227.661C148.526 226.17 148.178 223.883 148.526 221.149C149.868 210.064 151.012 198.98 152.205 187.895C152.602 184.316 153.447 181.035 155.287 177.854C175.12 143.655 194.854 109.357 214.538 75.0585C218.366 68.348 223.436 63.6257 231.339 62.5322C242.126 61.0409 251.968 67.8012 254.702 78.3889C254.801 78.7866 254.95 79.1842 255.05 79.5819C255 82.1667 255 84.8509 255 87.4854ZM232.88 106.623C232.781 105.579 231.985 105.231 231.29 104.833C226.567 102.099 221.795 99.4649 217.123 96.6316C215.433 95.5877 214.687 95.886 213.693 97.576C197.936 124.965 182.178 152.354 166.322 179.743C165.427 181.333 165.526 182.129 167.167 183.023C171.939 185.658 176.661 188.392 181.333 191.225C182.924 192.17 183.769 192.12 184.813 190.38C200.52 163.041 216.278 135.751 231.985 108.412C232.333 107.816 232.632 107.17 232.88 106.623ZM244.661 83.3597C244.81 79.0848 241.927 74.9591 237.751 73.4181C233.328 71.7778 228.456 73.1696 225.673 77.1462C223.933 79.6316 222.541 82.4152 220.95 85C220.404 85.8947 220.602 86.4912 221.547 86.9883C226.766 89.9708 231.985 93.0029 237.205 96.0351C237.901 96.4328 238.646 96.7807 239.143 95.8363C241.231 91.8099 244.561 88.3304 244.661 83.3597ZM160.307 210.959C160.506 211.058 160.754 211.158 160.953 211.208C165.477 207.877 169.95 204.547 174.474 201.216C175.617 200.371 175.219 199.825 174.225 199.228C171.939 197.936 169.652 196.594 167.366 195.251C162.494 192.468 162.494 192.468 161.798 197.936C161.749 198.284 161.649 198.582 161.649 198.93C161.152 202.956 160.754 206.933 160.307 210.959Z" fill="#828282" fill-opacity="0.4"/>
<path d="M106.175 27.1901C131.079 26.7427 152.056 47.9181 152.105 73.1199C152.155 97.3275 131.825 119.249 105.927 119.099C81.1228 119 60.1462 98.0731 60.2953 72.8216C60.3948 48.0176 81.0731 26.7427 106.175 27.1901ZM88.1316 70.0877C88.1316 68.845 88.1316 68.0994 88.1316 67.3538C88.4298 59.5994 92.2573 54.1316 99.2164 51.1491C106.126 48.2164 112.488 49.6579 118.354 54.4298C125.263 60.0468 125.81 73.617 121.833 80.1287C120.988 81.4708 120.988 82.1667 122.579 82.9123C126.854 85 130.482 87.9825 133.366 91.81C134.509 93.3509 135.254 93.2018 136.199 91.6608C140.871 84.1053 142.561 75.8041 140.971 67.155C138.336 52.7895 129.787 42.9971 115.769 39.0702C101.354 35.0439 88.8275 39.0702 78.9854 50.5029C69.2427 61.7866 68.1491 79.7807 76.2018 91.7105C77.0965 93.0526 77.7427 93.5497 78.886 92.0088C81.8684 88.0322 85.5965 84.9503 90.0702 82.7632C91.1638 82.2164 91.5117 81.6696 90.7661 80.4766C88.579 77.1959 87.7837 73.5176 88.1316 70.0877ZM106.573 108.512C112.936 108.363 119.547 106.623 125.512 102.646C126.854 101.751 127.003 101.006 126.158 99.614C117.459 86.0439 95.2895 85.9942 86.3421 99.5146C85.3977 100.956 85.5468 101.751 86.9883 102.696C92.7047 106.474 99.0176 108.313 106.573 108.512ZM98.4211 69.8889C98.5205 71.7281 98.769 74.0146 100.36 75.9035C102.597 78.5877 106.175 79.4328 109.307 78.0409C112.886 76.4006 114.675 72.076 113.731 67.2544C112.936 63.1287 110.401 60.5936 106.822 60.345C101.801 59.9971 98.4708 63.6257 98.4211 69.8889Z" fill="#828282" fill-opacity="0.4"/>
<path d="M97.6257 144.798C86.0438 144.798 74.4619 144.798 62.9298 144.798C59.3508 144.798 57.2134 142.562 57.4619 139.231C57.6111 136.795 59.4005 134.907 61.8362 134.608C62.383 134.559 62.9795 134.559 63.576 134.559C86.3918 134.559 109.208 134.559 132.023 134.559C135.553 134.559 137.69 136.05 138.088 138.784C138.634 142.263 136.348 144.848 132.62 144.848C120.939 144.848 109.257 144.798 97.6257 144.798Z" fill="#828282" fill-opacity="0.4"/>
<path d="M97.4766 172.634C85.9942 172.634 74.5117 172.634 63.0292 172.634C59.7982 172.634 57.7105 170.944 57.4123 168.161C57.0643 164.731 59.2515 162.345 62.8801 162.345C74.9591 162.295 87.038 162.345 99.0673 162.345C110.251 162.345 121.386 162.345 132.57 162.345C136.199 162.345 138.386 164.731 138.038 168.161C137.74 170.895 135.652 172.585 132.421 172.585C120.789 172.684 109.158 172.634 97.4766 172.634Z" fill="#828282" fill-opacity="0.4"/>
<path d="M97.7252 200.471C86.1433 200.471 74.5614 200.471 63.0293 200.471C59.8977 200.471 57.8597 198.88 57.462 196.246C56.9152 192.766 59.2018 190.181 62.9299 190.181C74.4123 190.132 85.8948 190.181 97.3772 190.181C109.108 190.181 120.839 190.181 132.57 190.181C136.249 190.181 138.386 192.567 138.038 195.997C137.74 198.731 135.652 200.421 132.421 200.471C120.889 200.52 109.307 200.471 97.7252 200.471Z" fill="#828282" fill-opacity="0.4"/>
<path d="M119.447 228.307C115.222 228.307 110.997 228.307 106.822 228.307C103.243 228.257 101.105 226.368 101.056 223.237C101.006 220.056 103.143 218.067 106.672 218.067C115.272 218.018 123.871 218.018 132.471 218.067C136 218.067 138.137 220.056 138.088 223.237C138.038 226.368 135.95 228.307 132.371 228.307C128.047 228.357 123.722 228.307 119.447 228.307Z" fill="#828282" fill-opacity="0.4"/>
<path d="M41.307 144.798C38.4239 144.798 36.038 142.412 36.1374 139.579C36.1871 136.746 38.5731 134.509 41.5058 134.558C44.3392 134.608 46.4766 136.795 46.5263 139.629C46.5263 142.561 44.2397 144.848 41.307 144.798Z" fill="#828282" fill-opacity="0.4"/>
<path d="M41.3567 172.635C38.4736 172.635 36.0877 170.298 36.1374 167.465C36.1871 164.632 38.573 162.345 41.4561 162.395C44.2894 162.445 46.4765 164.632 46.4765 167.465C46.5262 170.348 44.2894 172.635 41.3567 172.635Z" fill="#828282" fill-opacity="0.4"/>
<path d="M41.2573 200.471C38.3742 200.421 36.038 198.035 36.0877 195.202C36.1871 192.368 38.5731 190.132 41.5058 190.231C44.3392 190.281 46.4766 192.518 46.4766 195.351C46.4766 198.284 44.19 200.52 41.2573 200.471Z" fill="#828282" fill-opacity="0.4"/>
</svg>
