<svg width="255" height="255" viewBox="0 0 255 255" fill="none" xmlns="http://www.w3.org/2000/svg">
<path d="M121.087 0.513184C125.55 0.513184 129.963 0.513184 134.427 0.513184C136.068 0.923646 137.762 1.23149 139.403 1.69326C158.849 7.64498 169.932 20.8311 172.959 40.8412C173.215 42.483 173.934 43.4065 175.319 44.1249C182.092 47.7677 188.813 51.4619 195.534 55.2587C197.33 56.2848 198.921 56.2848 200.819 55.6691C213.954 51.5645 226.319 53.1037 237.658 61.0051C247.355 67.7265 252.845 77.2184 255 88.7114C255 92.816 255 96.9206 255 101.025C254.743 102.205 254.436 103.334 254.179 104.514C248.535 128.064 224.01 141.866 201.024 134.119C186.042 129.039 176.55 118.47 173.523 103.026C170.445 87.48 175.216 74.14 187.12 63.5705C188.608 62.2365 189.018 61.6721 186.966 60.646C182.912 58.5937 178.962 56.3361 175.062 54.0786C173.523 53.155 172.651 53.2063 172.189 55.156C168.238 71.6259 158.233 82.7597 142.379 88.6601C140.994 89.1731 140.327 89.9428 140.327 91.4307C140.378 101.436 140.378 111.441 140.327 121.446C140.327 123.242 141.045 123.601 142.636 123.447C145.406 123.139 148.126 123.395 150.537 125.037C151.974 126.012 153.103 125.756 154.539 124.986C161.004 121.497 168.187 123.601 171.727 129.963C172.548 131.502 173.369 131.861 175.114 131.707C184.041 130.886 189.634 136.171 189.634 145.099C189.634 162.133 189.48 179.116 189.685 196.15C189.788 203.795 187.581 210.414 182.912 216.365C181.322 218.366 179.834 220.47 178.295 222.522C176.704 224.575 176.961 227.037 177.628 229.141C178.243 231.039 180.501 229.859 181.989 230.116C182.502 230.218 183.015 230.167 183.528 230.167C184.913 230.116 185.529 230.783 185.529 232.168C185.427 239.762 185.786 247.355 185.324 255C155.206 255 125.14 255 95.0221 255C94.5603 248.535 94.8682 242.019 94.8682 235.503C94.8169 229.295 94.3038 230.27 100.153 230.167C100.512 230.167 100.82 230.167 101.179 230.167C102.308 230.116 102.975 229.603 102.975 228.474C103.026 226.011 103.129 223.6 101.949 221.24C97.4336 212.209 93.1237 203.128 88.66 194.046C86.9155 190.557 86.0946 186.812 85.5815 183.015C85.1197 179.372 84.4527 175.729 84.2475 172.087C83.7344 163.108 81.2203 155.052 75.833 147.561C71.3692 141.353 75.4225 133.195 82.9648 131.553C85.5815 130.989 88.0956 131.4 90.5583 132.015C102.41 134.991 109.183 142.79 111.492 154.642C112.364 159.003 113.236 163.416 114.109 167.777C114.878 166.443 115.237 165.109 115.237 163.775C115.289 139.763 115.237 115.751 115.289 91.6872C115.289 90.0967 114.724 89.2245 113.185 88.6601C97.331 82.7597 87.326 71.6259 83.4266 55.156C83.0161 53.4629 82.4004 53.0524 80.7585 53.976C76.8591 56.2335 72.8571 58.4397 68.8551 60.4921C66.9567 61.4669 66.7002 61.98 68.496 63.5705C79.4758 73.1651 84.2988 85.4277 82.6569 99.7426C79.1167 130.835 43.2012 146.689 17.6499 128.578C8.10662 121.856 2.61668 112.518 0.513062 101.077C0.513062 96.9719 0.513062 92.8673 0.513062 88.7627C0.615677 88.4548 0.718293 88.0957 0.769601 87.7878C4.92554 63.8271 29.7585 47.0494 55.669 56.0283C57.1569 56.5414 58.2857 56.2335 59.5171 55.5152C66.3923 51.7184 73.2676 47.9216 80.1942 44.1762C81.5795 43.4065 82.3491 42.5343 82.5543 40.8412C83.7344 30.8874 87.6338 22.1651 94.4577 14.7255C101.692 6.92667 110.722 2.46288 121.087 0.513184ZM123.857 127.192C123.857 139.609 123.806 151.974 123.908 164.39C123.908 167.828 123.344 171.06 121.805 174.036C117.238 183.015 120.009 180.963 110.363 181.322C108.26 181.373 107.49 180.45 107.131 178.603C105.951 172.497 104.719 166.391 103.488 160.286C102.975 157.874 102.616 155.412 101.897 153.051C99.8964 146.176 93.6881 141.097 86.6589 140.378C85.4789 140.276 84.1449 140.071 83.4266 141.302C82.7596 142.482 83.5292 143.406 84.0935 144.38C84.9145 145.663 85.7354 146.997 86.6589 148.228C89.4809 152.179 91.2766 156.592 91.8923 161.415C92.508 166.084 93.1237 170.701 93.5855 175.37C94.2525 182.297 95.5352 188.967 99.0241 195.226C102.308 201.127 104.873 207.386 108.003 213.389C110.363 217.905 112.364 222.471 111.646 227.756C111.441 229.449 112.159 230.27 114.006 230.27C131.451 230.218 148.895 230.218 166.34 230.27C168.136 230.27 169.008 229.5 168.7 227.807C167.725 222.214 170.034 217.905 173.677 213.954C174.498 213.082 175.114 212.004 175.883 211.081C179.629 206.514 181.065 201.178 181.065 195.38C181.065 179.116 181.065 162.903 181.065 146.638C181.065 142.636 179.68 140.532 177.115 140.532C174.549 140.584 173.318 142.636 173.215 146.689C173.061 153.359 174.549 152.538 166.956 152.641C165.109 152.641 164.596 151.871 164.596 150.178C164.647 146.689 164.596 143.149 164.596 139.66C164.596 134.427 163.415 132.272 160.645 132.323C157.926 132.374 156.797 134.478 156.797 139.557C156.797 141.969 156.848 144.329 156.797 146.741C156.694 153.411 157.926 152.538 150.742 152.692C148.639 152.744 148.126 151.82 148.177 149.922C148.28 145.714 148.228 141.558 148.177 137.351C148.126 134.221 146.535 132.272 144.175 132.323C141.969 132.374 140.43 134.273 140.378 137.249C140.327 140.686 140.378 144.073 140.327 147.51C140.276 153.154 140.994 152.59 135.299 152.641C131.759 152.641 131.759 152.641 131.759 149.101C131.759 129.193 131.759 109.235 131.759 89.3271C131.759 88.0444 131.81 86.7617 131.297 85.5303C130.63 83.9398 129.45 83.0162 127.757 83.0675C126.166 83.1188 125.037 83.9911 124.422 85.479C123.908 86.7104 123.96 87.9931 123.96 89.2758C123.857 101.897 123.857 114.571 123.857 127.192ZM127.449 16.6238C136.376 16.8804 142.944 20.7798 146.587 28.7325C150.229 36.6339 149.152 44.2788 143.405 50.9488C142.174 52.3854 142.482 52.8985 143.97 53.7194C148.947 56.4387 152.949 60.2355 155.873 65.1098C156.899 66.8029 157.566 66.9055 158.644 65.1611C163.621 57.1057 165.263 48.4347 163.723 39.148C160.901 22.4216 144.842 7.28582 124.062 9.38944C97.2797 12.0574 82.2978 41.9699 96.8692 65.1611C97.9467 66.8542 98.6137 66.9055 99.6398 65.1098C102.564 60.2355 106.566 56.4387 111.543 53.7194C113.339 52.7446 113.082 52.1802 111.954 50.7949C106.412 44.1249 105.335 36.5826 108.927 28.7325C112.467 20.8824 118.983 16.983 127.449 16.6238ZM41.5593 69.984C42.9447 70.1379 44.4326 70.0866 45.8179 70.4458C61.5181 73.9347 67.6237 92.149 57.2082 104.412C56.1308 105.643 56.0795 106.259 57.6187 107.028C60.5946 108.568 63.2626 110.62 65.4688 113.134C66.8541 114.776 67.7263 114.365 68.7012 112.775C72.7545 106.361 74.6016 99.4347 73.832 91.7898C71.831 71.2667 51.5131 57.7727 31.9648 63.8784C11.339 70.3432 2.56538 94.817 14.3662 112.672C15.495 114.365 16.2646 114.776 17.7525 113.031C19.8561 110.569 22.4728 108.568 25.3974 107.08C27.0392 106.259 26.9366 105.643 25.8078 104.309C20.1127 97.5876 19.0352 89.9941 22.6781 82.0927C26.3209 74.1913 32.837 70.3432 41.5593 69.984ZM213.8 69.984C215.288 70.1379 216.776 70.0866 218.161 70.3945C233.861 73.8321 240.069 92.0977 229.654 104.309C228.423 105.746 228.628 106.259 230.167 107.08C233.092 108.568 235.657 110.569 237.812 113.031C239.402 114.878 240.172 114.16 241.198 112.57C245.765 105.386 247.509 97.5876 245.919 89.2758C243.507 76.7567 236.119 68.0856 224.01 64.0836C211.901 60.1329 200.87 62.7496 191.532 71.5232C180.244 82.144 178.295 99.2295 186.607 112.313C187.787 114.16 188.608 114.827 190.352 112.826C192.353 110.466 194.816 108.568 197.587 107.182C199.331 106.31 199.588 105.746 198.151 104.104C192.558 97.4337 191.532 89.8915 195.124 82.0927C198.664 74.2426 205.18 70.3432 213.8 69.984ZM150.075 73.5243C149.973 73.2164 149.819 72.7546 149.614 72.2416C146.125 64.1349 136.838 58.1832 127.705 58.2345C118.47 58.2858 109.234 64.2888 105.848 72.2929C105.232 73.7295 105.489 74.653 106.772 75.5253C109.234 77.2184 111.851 78.6037 114.622 79.7838C116.058 80.3482 116.931 80.0404 117.905 78.8603C123.601 72.2929 131.861 72.3442 137.659 78.9116C138.582 79.9377 139.403 80.3482 140.737 79.7838C143.611 78.6037 146.33 77.2184 148.844 75.4226C149.46 75.0635 150.075 74.6017 150.075 73.5243ZM140.07 238.787C128.783 238.787 117.546 238.838 106.259 238.736C104.001 238.736 103.077 239.505 103.334 241.711C103.385 242.224 103.334 242.738 103.334 243.251C103.334 246.534 103.385 246.586 106.669 246.586C120.06 246.586 133.503 246.586 146.894 246.586C155.873 246.586 164.852 246.534 173.78 246.637C176.14 246.688 177.115 245.867 176.858 243.507C176.807 242.994 176.807 242.481 176.858 241.968C177.166 239.505 176.14 238.684 173.677 238.736C162.441 238.838 151.256 238.787 140.07 238.787ZM139.763 37.4035C139.711 30.8874 134.221 25.5001 127.757 25.5001C121.189 25.5001 115.597 31.2466 115.75 37.6601C115.956 44.2275 121.497 49.6148 127.859 49.4609C134.375 49.3069 139.814 43.817 139.763 37.4035ZM41.5593 78.809C35.0946 78.809 29.6559 84.2476 29.5533 90.7124C29.502 97.2285 35.1972 102.924 41.662 102.77C48.1781 102.616 53.6167 97.1259 53.5141 90.7124C53.4628 84.2476 48.0241 78.809 41.5593 78.809ZM225.96 90.8663C226.011 84.4528 220.624 78.9629 214.108 78.809C207.643 78.655 201.948 84.3502 201.999 90.8663C202.05 97.3311 207.54 102.77 214.005 102.821C220.419 102.821 225.857 97.3311 225.96 90.8663ZM41.3541 127.397C47.7676 127.244 53.4628 125.704 58.6962 122.472C60.1841 121.548 60.5946 120.676 59.2606 119.291C49.6147 109.235 33.7092 109.183 23.9608 119.24C22.6267 120.625 22.8833 121.446 24.4225 122.421C29.7072 125.756 35.505 127.244 41.3541 127.397ZM213.902 127.397C220.008 127.244 225.601 125.756 230.783 122.677C232.63 121.548 232.938 120.625 231.347 118.983C222.214 109.388 205.642 109.388 196.56 119.034C195.175 120.522 195.072 121.446 196.971 122.575C202.204 125.756 207.899 127.244 213.902 127.397Z" fill="#CBCBCB"/>
<path d="M24.9356 171.009C24.9356 163.056 25.0382 155.104 24.8843 147.151C24.833 144.739 25.5 143.816 28.0141 143.919C34.325 144.124 33.4527 143.303 33.504 149.408C33.5553 164.544 33.5553 179.68 33.504 194.765C33.504 196.868 34.0171 198.151 35.9668 199.28C40.7897 202.153 42.8934 207.951 41.3541 213.287C39.7636 218.828 34.992 222.317 29.1429 222.317C23.4477 222.317 18.7274 218.777 17.1368 213.338C15.5463 207.797 17.7525 202.05 22.8833 199.023C24.4225 198.1 24.9869 197.073 24.9869 195.329C24.8843 187.274 24.9356 179.167 24.9356 171.009ZM29.2968 206.155C27.3984 206.104 25.6539 207.797 25.5513 209.695C25.4487 211.696 27.1932 213.543 29.1942 213.543C31.0926 213.595 32.837 211.953 32.9396 210.054C33.0423 208.053 31.2978 206.206 29.2968 206.155Z" fill="#CBCBCB"/>
<path d="M49.5633 195.226C49.5633 187.274 49.512 179.321 49.6146 171.368C49.6146 169.367 49.1015 168.136 47.2545 167.058C42.2776 164.185 40.174 158.285 41.8158 152.846C43.4577 147.356 48.2293 143.918 54.1297 143.97C59.7736 144.021 64.4939 147.613 66.0331 153.051C67.5211 158.285 65.4687 164.082 60.7484 166.904C58.6448 168.136 58.1317 169.624 58.1317 171.881C58.183 187.53 58.183 203.179 58.183 218.777C58.183 222.317 58.183 222.368 54.6941 222.317C48.9989 222.266 49.6659 222.881 49.6146 217.237C49.5633 209.952 49.5633 202.563 49.5633 195.226ZM53.8732 152.795C51.9748 152.795 50.2816 154.488 50.179 156.386C50.1277 158.387 51.8722 160.183 53.8732 160.183C55.7716 160.183 57.4647 158.541 57.5673 156.592C57.6186 154.642 55.8742 152.795 53.8732 152.795Z" fill="#CBCBCB"/>
<path d="M214.159 171.368C214.159 179.064 214.21 186.761 214.108 194.457C214.056 196.714 214.569 198.151 216.724 199.434C221.547 202.256 223.548 208.156 221.958 213.492C220.265 219.085 215.493 222.471 209.387 222.368C203.949 222.317 199.228 218.623 197.74 213.235C196.201 207.797 198.459 202.05 203.487 199.126C205.129 198.151 205.642 197.022 205.642 195.226C205.59 179.321 205.59 163.416 205.642 147.561C205.642 144.021 205.642 143.97 209.182 144.021C214.877 144.072 214.21 143.457 214.261 149.101C214.159 156.489 214.159 163.929 214.159 171.368ZM213.543 209.9C213.594 208.002 211.953 206.258 210.054 206.155C208.053 206.052 206.206 207.797 206.155 209.798C206.104 211.799 207.899 213.595 209.9 213.543C211.799 213.492 213.492 211.799 213.543 209.9Z" fill="#CBCBCB"/>
<path d="M230.167 195.072C230.167 187.274 230.116 179.526 230.218 171.727C230.27 169.572 229.757 168.187 227.704 166.956C222.779 164.083 220.726 158.08 222.42 152.692C224.164 147.151 228.936 143.867 235.144 143.97C240.531 144.072 245.251 147.869 246.688 153.257C248.125 158.593 245.919 164.288 240.993 167.161C239.248 168.187 238.735 169.367 238.735 171.266C238.787 187.171 238.787 203.077 238.787 218.931C238.787 222.317 238.787 222.317 235.349 222.317C229.5 222.266 230.218 222.933 230.167 217.084C230.167 209.747 230.167 202.41 230.167 195.072ZM234.682 152.795C232.784 152.692 230.988 154.283 230.834 156.181C230.629 158.182 232.322 160.081 234.323 160.183C236.221 160.286 238.017 158.695 238.171 156.797C238.325 154.796 236.683 152.897 234.682 152.795Z" fill="#CBCBCB"/>
</svg>
