<svg width="227" height="255" viewBox="0 0 227 255" fill="none" xmlns="http://www.w3.org/2000/svg">
<path d="M226.222 186.723C226.222 191.186 226.222 195.597 226.222 200.06C226.119 200.625 225.966 201.24 225.863 201.804C221.964 222.58 206.78 238.123 186.159 242.073C180.362 243.202 181.388 242.996 181.337 248.024C181.285 250.588 181.593 253.205 179.08 254.949C120.395 254.949 61.6596 254.949 2.97525 255C0.769455 255 0.512967 254.436 0.512967 252.435C0.512967 169.333 0.512967 86.1798 0.46167 3.02655C0.46167 0.66686 1.17984 0.46167 3.18044 0.46167C50.8358 0.512967 98.4912 0.512967 146.198 0.512967C157.022 11.3367 167.845 22.1605 178.721 32.8817C180.567 34.7284 181.337 36.6264 181.337 39.2426C181.285 72.9964 181.337 106.75 181.234 140.555C181.234 143.223 182.157 144.146 184.62 144.505C196.521 146.301 206.37 151.841 214.321 160.818C220.887 168.205 224.581 176.976 226.222 186.723ZM8.92576 127.474C8.92576 165.947 8.92576 204.421 8.92576 242.842C8.92576 246.536 8.92576 246.536 12.6705 246.536C64.7888 246.536 116.958 246.536 169.077 246.536C169.743 246.536 170.462 246.536 171.129 246.485C172.154 246.433 172.616 245.818 172.667 244.792C172.719 243.868 172.514 243.048 171.488 242.791C170.769 242.586 170 242.432 169.231 242.278C142.71 238.174 122.755 212.833 128.398 183.799C132.45 162.87 148.609 147.686 169.487 144.403C171.59 144.095 172.77 143.428 172.719 140.863C172.616 108.802 172.616 76.7411 172.719 44.6801C172.719 42.2692 171.847 41.6023 169.538 41.6023C161.331 41.7049 153.123 41.6536 144.915 41.6536C141.222 41.6536 139.837 40.2685 139.837 36.5238C139.837 28.5727 139.837 20.6216 139.837 12.6705C139.837 8.87446 139.837 8.82317 135.99 8.82317C94.9517 8.82317 53.9137 8.82317 12.927 8.82317C8.92576 8.82317 8.92576 8.82317 8.92576 12.7731C8.92576 51.041 8.92576 89.2577 8.92576 127.474ZM177.079 152.661C153.482 153.123 135.938 171.231 136.298 193.905C136.657 217.399 155.072 234.327 177.336 234.019C200.984 233.712 217.758 215.142 217.604 193.34C217.45 169.128 198.47 153.021 177.079 152.661ZM165.127 33.1382C159.587 27.5981 153.944 21.9553 148.455 16.4665C148.455 21.032 148.455 26.0591 148.455 31.0863C148.455 32.2661 148.865 33.1382 150.148 33.1382C155.329 33.1382 160.51 33.1382 165.127 33.1382Z" fill="#CBCBCB"/>
<path d="M91.1044 49.5535C112.393 49.5535 133.63 49.5535 154.918 49.5535C159.638 49.5535 160.766 50.682 160.766 55.504C160.766 60.2234 160.766 64.8914 160.766 69.6108C160.715 73.1503 159.33 74.5867 155.791 74.5867C112.495 74.5867 69.149 74.5867 25.8539 74.5867C22.3144 74.5867 20.9293 73.1503 20.9293 69.5595C20.878 64.5836 20.878 59.6591 20.9293 54.6832C20.9293 50.9898 22.3144 49.6048 26.0591 49.6048C47.6554 49.5535 69.3542 49.5535 91.1044 49.5535ZM90.4888 65.9687C109.879 65.9687 129.27 65.9687 148.66 65.9687C149.737 65.9687 151.174 66.4304 151.738 65.3018C152.61 63.4038 152.405 61.198 151.943 59.3C151.482 57.5559 149.635 58.2227 148.352 58.2227C127.423 58.1715 106.494 58.2227 85.5642 58.2227C67.9692 58.2227 50.3741 58.2227 32.7791 58.2227C31.8044 58.2227 30.4194 57.8124 29.9064 58.8383C28.9318 60.7876 29.1882 63.0447 29.7012 65.0966C30.0603 66.5842 31.7018 66.02 32.8304 66.0713C52.0669 65.9687 71.3035 65.9687 90.4888 65.9687Z" fill="#CBCBCB"/>
<path d="M90.7966 107.417C69.4568 107.417 48.0658 107.417 26.726 107.417C22.0066 107.417 20.8268 106.288 20.8268 101.518C20.8268 97.0036 20.8268 92.4381 20.8268 87.9239C20.8268 83.6662 22.1092 82.3838 26.3156 82.3838C52.2722 82.3838 78.28 82.3838 104.237 82.3838C121.165 82.3838 138.093 82.3838 154.97 82.3838C159.535 82.3838 160.715 83.5636 160.715 88.1291C160.715 92.7459 160.715 97.3627 160.715 101.979C160.715 106.032 159.381 107.366 155.38 107.366C133.887 107.417 112.342 107.417 90.7966 107.417ZM90.5401 98.799C109.931 98.799 129.321 98.799 148.711 98.799C149.789 98.799 151.225 99.2607 151.738 98.0808C152.559 96.1828 152.405 93.977 151.892 92.079C151.43 90.3349 149.584 91.0531 148.301 91.0531C124.961 91.0018 101.672 91.0531 78.3313 91.0531C63.1472 91.0531 47.9119 91.0531 32.7278 91.0531C31.7532 91.0531 30.3681 90.6427 29.8551 91.6686C28.8805 93.6692 29.137 95.875 29.65 97.9269C30.009 99.3633 31.7019 98.8503 32.8304 98.8503C52.067 98.799 71.3035 98.799 90.5401 98.799Z" fill="#CBCBCB"/>
<path d="M90.7966 140.248C69.4568 140.248 48.0658 140.248 26.726 140.248C21.9553 140.248 20.8268 139.119 20.8268 134.348C20.8268 129.834 20.8268 125.269 20.8268 120.754C20.8268 116.497 22.1092 115.214 26.3156 115.214C51.9644 115.214 77.5618 115.214 103.211 115.214C120.447 115.214 137.734 115.214 154.97 115.214C159.535 115.214 160.715 116.394 160.715 120.96C160.715 125.474 160.715 130.039 160.715 134.554C160.715 138.965 159.484 140.196 155.124 140.196C133.681 140.248 112.239 140.248 90.7966 140.248ZM91.0531 123.832C71.6626 123.832 52.2722 123.832 32.8817 123.832C31.8045 123.832 30.3681 123.371 29.8038 124.551C28.9318 126.449 29.137 128.654 29.65 130.552C30.1116 132.296 31.9583 131.63 33.2408 131.63C54.837 131.681 76.4846 131.63 98.0809 131.63C115.009 131.63 131.886 131.63 148.814 131.63C149.789 131.63 151.174 132.04 151.687 131.014C152.661 129.065 152.405 126.808 151.892 124.756C151.533 123.319 149.891 123.832 148.763 123.832C129.526 123.832 110.29 123.832 91.0531 123.832Z" fill="#CBCBCB"/>
<path d="M64.0193 156.663C51.2975 156.663 38.5757 156.663 25.8539 156.663C22.5196 156.663 20.7755 155.021 20.8781 152.2C20.9294 149.943 22.417 148.352 24.6741 148.147C25.0845 148.096 25.5461 148.096 25.9565 148.096C51.4001 148.096 76.8437 148.096 102.287 148.096C105.981 148.096 108.084 150.353 107.263 153.431C106.648 155.893 104.852 156.663 102.39 156.663C89.6167 156.611 76.7924 156.663 64.0193 156.663Z" fill="#CBCBCB"/>
<path d="M51.8105 160.356C60.4285 160.356 69.0464 160.356 77.6644 160.356C81.0501 160.356 82.7942 161.895 82.7429 164.716C82.7429 167.435 80.9988 168.974 77.8183 168.974C60.3772 168.974 42.9873 168.974 25.5462 168.974C23.3404 168.974 21.6475 168.153 21.032 165.999C20.4677 164.152 20.8781 162.459 22.5196 161.177C23.5968 160.305 24.8793 160.356 26.1617 160.356C34.7284 160.356 43.2438 160.356 51.8105 160.356Z" fill="#CBCBCB"/>
<path d="M27.239 242.842C23.9047 242.842 20.5704 242.894 17.2873 242.842C14.3634 242.791 12.6705 241.201 12.6705 238.533C12.6705 235.917 14.3633 234.327 17.3386 234.276C23.9047 234.224 30.4708 234.224 37.0369 234.276C40.0121 234.276 41.7049 235.815 41.7562 238.482C41.8075 241.252 40.1147 242.842 36.9856 242.894C33.7025 242.842 30.4708 242.842 27.239 242.842Z" fill="#CBCBCB"/>
<path d="M29.4448 172.719C30.8298 172.719 32.1635 172.667 33.5486 172.719C36.1134 172.873 37.6524 174.514 37.6524 176.976C37.6524 179.439 36.1134 181.183 33.5486 181.234C30.6759 181.337 27.7519 181.337 24.8793 181.234C22.3657 181.131 20.8268 179.336 20.8781 176.874C20.9294 174.514 22.4683 172.873 24.828 172.719C26.3669 172.616 27.9058 172.719 29.4448 172.719Z" fill="#CBCBCB"/>
<path d="M47.6554 181.234C43.0386 181.234 40.9867 179.644 41.3971 176.361C41.7048 173.54 43.449 172.616 48.63 172.668C52.0157 172.719 53.7598 173.899 54.0163 176.412C54.2727 179.08 52.6312 181.029 49.9638 181.234C49.1943 181.286 48.4248 181.234 47.6554 181.234Z" fill="#CBCBCB"/>
<path d="M51.8105 242.791C47.2451 242.791 45.2957 241.406 45.5009 238.174C45.7061 235.199 47.4502 234.173 52.4774 234.224C56.2734 234.224 58.0175 235.456 58.1714 238.226C58.3253 240.791 56.7351 242.586 54.1189 242.791C53.2982 242.842 52.5287 242.791 51.8105 242.791Z" fill="#CBCBCB"/>
<path d="M209.961 181.234C210.063 182.619 209.345 183.645 208.422 184.62C199.137 193.905 189.801 203.241 180.516 212.526C178.618 214.424 176.463 214.68 174.206 213.346C167.64 209.448 161.125 205.549 154.662 201.599C152.097 200.06 151.43 197.444 152.764 195.238C154.098 193.084 156.663 192.52 159.33 194.059C164.203 196.88 169.077 199.753 173.847 202.779C175.694 203.959 176.874 203.856 178.464 202.266C186.159 194.366 194.058 186.672 201.804 178.823C203.549 177.079 205.395 176.156 207.755 177.284C209.294 178.002 210.063 179.387 209.961 181.234Z" fill="#CBCBCB"/>
</svg>
