<svg width="270" height="255" viewBox="0 0 270 255" fill="none" xmlns="http://www.w3.org/2000/svg">
<path d="M0.525635 210.897C1.94493 209.057 3.67962 208.058 5.99255 208.952C8.20034 209.793 8.62087 211.685 8.62087 213.893C8.56831 223.776 8.67344 233.658 8.56831 243.541C8.51574 246.011 9.3568 246.695 11.7223 246.695C22.8138 246.589 33.9053 246.589 45.0494 246.695C47.3624 246.695 48.3086 246.064 48.256 243.541C48.0983 236.97 48.1509 230.451 48.256 223.881C48.256 222.041 47.9406 221.095 45.7328 220.937C41.2121 220.569 38.5312 217.52 38.8466 212.999C39.4248 205.062 40.0031 197.177 41.107 189.292C41.8429 183.825 44.9969 179.62 49.833 176.834C51.2523 176.045 51.6728 175.572 50.6741 173.943C43.8404 162.536 49.9907 148.5 63.0272 145.872C64.499 145.557 65.3401 145.084 65.9709 143.717C67.5479 140.3 70.0185 137.567 73.3302 135.779C74.7495 134.991 74.8021 134.36 74.0136 132.941C66.7068 120.167 74.6969 105.186 89.3104 104.502C96.0915 104.187 101.769 107.183 105.448 113.071C109.233 119.063 109.654 125.476 106.184 131.732C104.87 134.15 105.028 135.254 107.446 136.515C109.391 137.514 110.915 139.196 112.124 141.036C112.808 142.035 113.281 142.508 114.174 141.194C115.804 138.723 117.959 136.883 120.535 135.464C121.586 134.886 121.586 134.255 121.008 133.361C115.909 125.844 117.539 115.121 123.952 109.391C124.898 108.55 125.056 107.498 125.056 106.289C125.056 79.2703 125.056 52.2511 125.056 25.232C125.056 23.287 124.267 22.5511 122.375 22.7088C120.903 22.8139 119.378 22.8139 117.907 22.6562C115.383 22.4459 113.701 20.7112 113.649 18.5034C113.596 16.1379 115.278 14.2981 117.959 14.1404C120.745 13.9827 123.584 13.9302 126.37 14.1404C130.89 14.5084 133.571 17.6624 133.571 22.4985C133.571 48.8343 133.571 75.1175 133.624 101.453C133.624 102.452 133.046 104.029 134.15 104.292C135.674 104.712 137.461 104.66 139.038 104.344C139.984 104.134 139.564 102.82 139.564 101.979C139.564 89.6785 139.617 77.3253 139.564 65.0248C139.511 60.6092 140.72 57.0872 145.294 55.5102C146.66 55.0371 146.503 53.9332 146.503 52.9345C146.503 49.0971 146.503 45.2598 146.503 41.3699C146.503 40.4762 146.503 39.6352 146.555 38.7415C146.871 35.7452 148.763 33.8529 151.181 34.0106C153.547 34.1683 155.071 36.0606 155.071 39.0569C155.124 43.5251 155.124 47.9932 155.071 52.4088C155.019 54.3012 155.649 55.1948 157.594 55.0371C161.905 54.7217 165.322 56.4039 168.213 59.6104C171.367 63.1324 174.836 66.3389 178.2 69.6506C180.356 71.8058 181.407 74.2765 181.354 77.3779C181.249 85 181.302 92.5696 181.302 100.192C181.302 104.923 181.144 104.082 185.244 104.397C188.188 104.607 186.926 101.821 186.926 100.455C187.031 71.1751 186.979 41.8955 186.979 12.616C186.979 10.7762 187.084 8.93634 187.294 7.14908C187.767 3.57456 190.606 0.893669 194.233 0.893669C202.118 0.788536 209.95 0.788536 217.835 0.893669C222.093 0.946236 225.09 4.15279 225.247 8.77864C225.405 12.248 225.352 15.77 225.247 19.2919C225.195 21.3946 225.983 22.078 228.033 22.0254C230.399 21.9203 232.764 21.9203 235.13 22.0254C240.702 22.3408 243.54 25.3371 243.646 30.9091C243.698 33.1695 243.751 35.4824 243.646 37.7428C243.593 39.4249 244.171 40.266 245.853 40.6339C250.374 41.6853 252.529 44.1559 252.582 48.6766C252.687 58.5591 252.634 68.4416 252.582 78.3241C252.582 80.3216 252.004 82.1089 250.006 83.1076C248.534 83.8436 247.115 83.6333 245.801 82.6871C244.171 81.5306 243.961 79.8485 243.961 78.0087C243.961 69.5455 243.961 61.0297 243.961 52.5665C243.961 48.9394 243.961 48.9394 240.439 48.8869C236.549 48.8343 235.077 47.415 235.025 43.4725C234.972 40.3185 235.025 37.1645 235.025 34.0106C235.025 30.4886 235.025 30.4886 231.608 30.4886C228.349 30.4886 225.142 30.4886 221.883 30.4886C218.151 30.436 216.679 28.9642 216.626 25.232C216.574 20.8689 216.521 16.5059 216.626 12.1429C216.679 10.1454 216.048 9.30431 213.946 9.30431C208.636 9.40944 203.275 9.40944 197.965 9.30431C196.02 9.25174 195.39 10.0928 195.39 11.9852C195.442 43.6302 195.442 75.2752 195.39 106.92C195.39 108.129 195.652 109.075 196.441 110.022C202.591 117.118 203.537 124.793 198.754 132.941C197.965 134.307 198.333 134.938 199.542 135.569C203.012 137.514 205.535 140.353 207.164 143.98C207.69 145.084 208.426 145.399 209.53 145.609C222.777 148.185 229.085 162.115 222.251 173.68C221.357 175.204 221.568 175.782 223.04 176.623C228.717 179.988 231.608 185.087 232.134 191.657C232.659 198.333 233.29 205.062 234.026 211.738C234.552 216.574 231.923 220.306 227.14 220.779C225.195 220.99 224.617 221.673 224.617 223.513C224.669 230.241 224.669 236.97 224.617 243.698C224.617 245.696 225.247 246.537 227.35 246.484C237.758 246.432 248.166 246.432 258.574 246.484C260.467 246.484 261.15 245.801 261.15 243.856C261.098 208.006 261.098 172.155 261.15 136.305C261.15 134.255 260.467 133.466 258.417 133.519C255.21 133.571 251.951 133.624 248.745 133.414C245.275 133.204 243.908 131.679 243.856 128.21C243.803 118.327 243.803 108.445 243.856 98.5622C243.856 95.5133 245.591 93.6209 248.114 93.5684C250.637 93.5158 252.424 95.4082 252.477 98.4571C252.582 106.079 252.529 113.649 252.529 121.271C252.529 124.951 252.529 125.003 256.262 125.003C258.101 125.003 259.941 125.003 261.781 125.003C266.354 125.108 269.351 127.999 269.351 132.573C269.403 138.776 269.351 144.978 269.351 151.181C269.351 183.878 269.351 216.574 269.403 249.27C269.403 251.478 269.088 253.423 267.09 254.737C179.041 254.737 90.9925 254.737 2.94369 254.79C0.998733 254.79 0.525635 254.369 0.525635 252.372C0.578201 238.704 0.525635 224.774 0.525635 210.897ZM172.523 91.9388C172.523 89.8362 172.26 87.6809 172.576 85.6308C173.627 78.9549 170.946 74.329 166.215 69.6506C161.694 65.1299 157.226 62.5541 150.918 63.658C150.761 63.7106 150.55 63.658 150.393 63.658C148.658 63.5003 148.132 64.2888 148.132 65.971C148.185 79.5331 148.132 93.0953 148.132 106.605C148.132 107.709 148.343 108.602 149.131 109.443C155.86 116.645 156.963 124.583 151.97 133.151C151.339 134.255 151.497 134.886 152.6 135.464C155.124 136.831 157.174 138.67 158.751 141.088C159.592 142.35 160.117 142.087 160.801 141.036C162.273 138.828 164.165 136.988 166.531 135.779C168.213 134.938 168.055 134.15 167.214 132.73C162.483 124.583 164.007 115.121 171.051 108.97C172.155 107.972 172.576 107.025 172.576 105.606C172.471 101.033 172.523 96.4595 172.523 91.9388ZM210.581 230.346C210.581 234.972 210.634 239.598 210.581 244.224C210.581 245.853 211.16 246.589 212.842 246.642C215.207 246.747 216.101 245.853 216.048 243.435C215.943 235.813 215.996 228.244 215.996 220.622C215.996 212.999 216.048 212.947 223.565 212.369C224.879 212.263 225.405 211.948 225.247 210.476C224.722 205.009 224.249 199.542 223.881 194.076C223.302 185.349 218.151 182.406 211.527 182.721C207.532 182.931 203.485 182.721 199.49 182.774C194.075 182.826 190.238 185.98 189.555 191.289C188.819 197.072 188.451 202.907 187.925 208.742C187.61 212.316 187.557 212.316 191.027 212.369C195.547 212.421 196.914 213.84 196.967 218.361C196.967 226.772 197.019 235.13 196.914 243.541C196.914 245.748 197.65 246.695 199.91 246.695C202.223 246.695 202.381 245.38 202.328 243.646C202.276 234.762 202.276 225.826 202.328 216.942C202.328 213.893 203.853 212.316 206.481 212.369C209.109 212.369 210.529 213.998 210.529 217.047C210.581 221.41 210.581 225.878 210.581 230.346ZM70.4916 230.346C70.4916 234.972 70.5442 239.598 70.4916 244.224C70.4916 245.906 71.0698 246.537 72.8045 246.589C75.17 246.695 76.0111 245.696 76.0111 243.33C75.906 235.708 75.9585 228.139 75.9585 220.516C75.9585 212.999 75.9585 212.947 83.5281 212.316C84.6846 212.211 85.2628 211.948 85.1051 210.581C84.4743 204.326 84.0012 198.071 83.3704 191.815C82.7922 186.191 78.8497 182.721 73.1725 182.669C68.9672 182.616 64.7619 182.669 60.6091 182.669C53.2498 182.669 49.465 186.453 49.0445 193.918C48.7817 198.964 48.3086 204.011 47.7829 209.057C47.4675 212.264 47.3624 212.263 50.6215 212.263C55.6153 212.316 56.9295 213.63 56.9295 218.729C56.9295 227.035 56.982 235.34 56.9295 243.646C56.9295 245.591 57.5077 246.589 59.6104 246.589C61.6604 246.642 62.081 245.538 62.081 243.803C62.0284 241.07 62.081 238.389 62.081 235.656C62.1335 229.295 62.0284 222.882 62.2912 216.521C62.3964 213.473 64.1836 212.106 66.812 212.263C69.2826 212.421 70.5967 213.998 70.6493 216.942C70.4916 221.41 70.4916 225.878 70.4916 230.346ZM163.85 230.399C163.85 235.025 163.902 239.651 163.85 244.276C163.85 246.011 164.533 246.589 166.215 246.589C168.37 246.642 169.369 245.906 169.369 243.541C169.264 235.918 169.317 228.349 169.317 220.727C169.317 213.052 169.317 212.999 176.939 212.263C178.095 212.158 178.673 211.896 178.516 210.529C177.832 204.116 177.359 197.65 176.623 191.237C176.045 186.296 172.155 182.774 167.214 182.669C162.168 182.563 157.069 182.563 152.022 182.669C147.239 182.774 143.454 186.085 142.823 190.816C142.087 196.756 141.719 202.802 141.088 208.794C140.72 212.211 140.668 212.211 144.137 212.263C148.711 212.316 150.13 213.683 150.13 218.204C150.13 226.772 150.182 235.34 150.13 243.909C150.13 245.853 150.971 246.537 152.811 246.589C154.651 246.642 155.334 245.801 155.281 244.066C155.229 241.596 155.281 239.178 155.281 236.707C155.334 229.978 155.229 223.25 155.492 216.521C155.597 213.473 157.384 212.106 160.012 212.263C162.483 212.421 163.745 213.998 163.797 216.994C163.902 221.463 163.85 225.931 163.85 230.399ZM117.171 230.346C117.171 234.972 117.223 239.598 117.171 244.224C117.171 245.906 117.801 246.589 119.484 246.589C121.639 246.642 122.69 245.959 122.638 243.593C122.532 235.918 122.585 228.191 122.585 220.516C122.585 212.999 122.585 212.947 130.207 212.316C131.311 212.211 131.994 212.001 131.837 210.634C131.206 204.326 130.68 197.965 129.997 191.605C129.419 186.348 125.424 182.774 120.062 182.721C115.856 182.669 111.651 182.721 107.498 182.721C99.7711 182.721 96.0389 186.453 95.6184 194.233C95.3556 199.28 94.935 204.326 94.2517 209.372C93.9363 211.843 94.6196 212.421 96.9325 212.421C102.347 212.369 103.503 213.63 103.503 219.045C103.503 227.087 103.503 235.13 103.503 243.173C103.503 245.065 103.556 246.642 106.132 246.642C108.918 246.642 108.602 244.802 108.602 243.067C108.602 240.281 108.602 237.495 108.602 234.657C108.655 228.612 108.55 222.619 108.813 216.574C108.918 213.525 110.705 212.158 113.333 212.316C115.804 212.474 117.118 214.051 117.171 216.994C117.223 221.41 117.171 225.878 117.171 230.346ZM89.6258 141.772C87.1026 141.772 84.5794 141.719 82.0562 141.772C79.2702 141.824 77.0098 143.033 75.1175 144.978C74.0661 146.082 73.9084 146.976 75.4854 147.817C84.1589 152.548 88.1539 164.481 81.9511 174.1C81.1626 175.309 81.4254 175.887 82.6345 176.518C85.0525 177.78 87.1026 179.567 88.6271 181.88C89.4681 183.194 90.0463 183.037 90.8348 181.827C92.2541 179.672 94.094 177.938 96.4069 176.781C98.0364 175.94 98.1941 175.309 97.1954 173.68C92.0439 165.164 94.3042 154.493 102.347 148.816C105.764 146.398 105.711 145.189 101.979 143.033C100.507 142.192 98.9826 141.667 97.2479 141.667C94.6722 141.824 92.149 141.772 89.6258 141.772ZM198.544 146.24C198.281 145.925 198.018 145.451 197.702 145.084C195.863 143.033 193.602 141.824 190.816 141.824C185.665 141.772 180.513 141.772 175.362 141.824C172.681 141.824 170.526 143.033 168.633 144.926C167.529 146.082 167.214 146.871 168.896 147.975C178.726 154.493 180.986 163.902 175.309 174.258C174.731 175.309 174.573 175.887 175.782 176.518C178.305 177.832 180.408 179.62 181.985 182.038C182.879 183.404 183.457 183.037 184.193 181.933C185.717 179.725 187.61 177.938 189.975 176.729C191.5 175.993 191.5 175.257 190.659 173.943C188.241 170.21 187.294 166.163 187.925 161.747C188.819 155.755 191.868 151.234 197.019 148.027C197.702 147.607 198.596 147.396 198.544 146.24ZM136.305 141.772C133.782 141.772 131.258 141.772 128.735 141.772C126.054 141.824 123.847 142.928 122.007 144.768C120.745 146.03 120.64 146.818 122.375 147.975C131.889 154.125 134.255 164.06 128.683 174.1C128.052 175.257 127.999 175.887 129.261 176.518C131.732 177.78 133.729 179.567 135.254 181.88C136.042 183.089 136.62 183.247 137.461 181.933C138.775 179.935 140.458 178.2 142.56 177.149C144.505 176.15 144.926 175.467 143.612 173.312C138.67 165.059 141.141 154.44 148.921 148.921C152.39 146.503 152.232 145.136 148.395 143.033C147.028 142.298 145.504 141.772 143.927 141.824C141.404 141.824 138.881 141.772 136.305 141.772ZM159.592 174.048C165.322 174.1 169.842 169.632 169.79 164.06C169.79 158.698 165.164 154.02 159.802 153.915C154.388 153.81 149.709 158.383 149.657 163.797C149.604 169.58 153.915 173.995 159.592 174.048ZM113.018 174.048C118.695 174.048 123.163 169.58 123.111 163.955C123.058 158.646 118.275 153.915 113.018 153.915C107.551 153.915 103.03 158.435 102.978 163.955C102.925 169.685 107.288 174.048 113.018 174.048ZM206.323 174.048C211.895 174.048 216.416 169.737 216.469 164.27C216.521 158.698 211.948 153.967 206.481 153.915C200.962 153.862 196.336 158.488 196.336 164.113C196.388 169.632 200.804 174.048 206.323 174.048ZM65.9709 174.048C71.7006 174.153 76.2739 169.895 76.4316 164.27C76.5893 158.909 71.7532 153.967 66.3914 153.915C60.9771 153.862 56.3512 158.383 56.2987 163.902C56.2461 169.527 60.4514 173.943 65.9709 174.048ZM99.6134 123.058C99.6134 117.381 95.1453 112.913 89.5207 112.965C84.2115 113.018 79.4805 117.802 79.5331 123.111C79.5856 128.578 84.1063 133.098 89.5732 133.098C95.2504 133.098 99.6134 128.735 99.6134 123.058ZM146.292 122.953C146.24 117.434 141.824 112.965 136.357 112.965C130.838 112.965 126.212 117.696 126.265 123.163C126.37 128.735 130.733 133.098 136.305 133.098C141.982 133.098 146.345 128.683 146.292 122.953ZM193.024 122.953C192.972 117.381 188.503 112.965 183.036 112.965C177.57 113.018 173.154 117.486 173.154 123.058C173.154 128.735 177.412 133.098 182.984 133.098C188.714 133.098 193.024 128.683 193.024 122.953ZM94.8299 233.973C94.8299 230.399 94.7773 226.824 94.8299 223.25C94.8299 221.778 94.3568 221.147 92.7272 220.937C90.6246 220.674 88.6271 220.674 86.5244 220.937C84.8948 221.147 84.4743 221.831 84.4743 223.302C84.4743 230.451 84.4743 237.653 84.4217 244.802C84.4217 246.221 84.9474 246.695 86.2616 246.642C88.2591 246.589 90.3092 246.537 92.3067 246.642C94.3042 246.747 94.8825 245.801 94.8299 243.961C94.7773 240.597 94.8299 237.285 94.8299 233.973ZM141.561 233.711C141.561 231.03 141.561 228.296 141.561 225.615C141.561 221.147 141.561 221.147 137.198 220.622C136.515 220.516 135.832 220.622 135.148 220.727C131.258 221.357 131.258 221.357 131.258 225.353C131.258 229.978 131.206 234.604 131.258 239.23C131.416 247.851 129.524 246.484 139.301 246.589C140.983 246.589 141.614 245.853 141.614 244.224C141.509 240.702 141.561 237.233 141.561 233.711ZM177.937 233.5C177.937 235.498 177.885 237.495 177.937 239.546C178.095 247.693 176.571 246.432 185.244 246.642C187.505 246.695 188.346 245.959 188.293 243.646C188.188 237.338 188.135 231.082 188.293 224.774C188.398 222.093 187.767 220.779 184.824 220.727C183.352 220.674 181.88 220.937 180.461 220.884C178.253 220.832 177.832 221.936 177.885 223.828C177.99 227.035 177.937 230.294 177.937 233.5Z" fill="#CBCBCB"/>
<path d="M0.525635 150.55C2.36546 146.24 6.04511 145.399 10.2504 145.346C14.0878 145.294 14.0878 145.241 14.0878 141.351C14.0878 133.046 14.0878 124.74 14.0878 116.435C14.0878 109.969 17.0841 107.025 23.5497 106.92C27.1243 106.868 27.1243 106.868 27.1243 103.241C27.1243 72.5418 27.1243 41.8955 27.1243 11.1967C27.1243 10.2505 27.0717 9.25176 27.1768 8.30556C27.3871 5.99263 28.6487 4.62591 31.0668 4.52077C33.4322 4.41564 34.9567 5.51954 35.3772 7.83246C36.0606 11.4595 35.6926 15.1392 35.64 18.8189C35.5875 21.1318 36.3234 22.7613 37.953 24.3383C43.4724 29.7001 48.8342 35.167 54.3011 40.6339C54.8794 41.2122 55.2999 42.0532 56.6666 42.2635C56.6666 40.6865 56.6141 39.1095 56.6666 37.5851C56.7192 36.3761 56.7192 35.1145 56.982 33.958C57.4551 31.6451 59.0321 30.5937 61.345 30.7514C63.7105 30.9091 65.0247 32.3284 65.1824 34.6414C65.3401 36.6389 65.235 38.6364 65.235 40.6865C65.235 55.9834 65.235 71.2802 65.235 86.577C65.235 89.3631 67.8107 90.8349 70.3339 89.5208C71.2275 89.0477 71.1224 88.2592 71.1224 87.4707C71.1224 85.2103 71.1224 82.95 71.1224 80.637C71.175 75.9061 74.0136 72.9623 78.7446 72.8046C82.3716 72.6469 82.3716 72.6469 82.3716 69.1775C82.3716 54.6692 82.3716 40.1608 82.3716 25.6525C82.3716 24.1806 82.4768 22.6562 82.6345 21.2369C83.1601 17.0842 85.9462 14.3507 90.0463 14.193C92.8324 14.0353 95.6184 14.0879 98.457 14.193C101.243 14.2981 103.188 16.138 103.241 18.4509C103.293 20.7638 101.296 22.6562 98.5621 22.8139C96.9851 22.919 95.4081 22.9716 93.8311 22.8139C91.5182 22.6036 90.8348 23.4973 90.8874 25.8102C90.9925 42.0007 90.94 58.1386 90.94 74.3291C90.94 80.4793 89.9412 81.4781 83.8435 81.5307C83.423 81.5307 82.9499 81.5832 82.5293 81.5307C80.2164 81.2678 79.1651 82.0563 79.3228 84.5795C79.533 87.6284 79.4279 90.6772 79.3753 93.7786C79.3228 96.9326 77.8509 98.4045 74.6969 98.4571C70.3339 98.5096 65.9709 98.5096 61.6079 98.4571C58.6642 98.4045 57.2974 97.248 56.8243 94.3569C56.6666 93.253 56.6666 92.0965 56.6666 90.9401C56.6666 79.9011 56.6141 68.9147 56.6666 57.8757C56.6666 55.9834 56.141 54.5641 54.7742 53.2499C49.0445 47.5202 43.4724 41.843 37.8478 36.2709C37.3222 35.7453 36.9542 34.9568 36.008 34.9042C35.3772 35.8504 35.6926 36.9543 35.6926 37.9531C35.6926 60.6618 35.6926 83.4231 35.6926 106.132C35.6926 106.657 35.6926 107.183 35.6926 107.709C35.6926 114.7 34.799 115.594 27.9128 115.594C22.0779 115.646 22.8138 114.858 22.7613 120.798C22.7087 129.892 22.7613 138.986 22.7613 148.08C22.7613 152.548 21.4471 153.915 17.0315 153.915C15.0865 153.915 13.1942 154.02 11.2492 153.862C9.14654 153.704 8.56831 154.546 8.56831 156.596C8.62087 168.844 8.56831 181.092 8.62087 193.287C8.62087 195.285 8.20034 196.914 6.30795 197.913C3.83732 199.174 2.1552 197.808 0.525635 196.231C0.525635 180.986 0.525635 165.742 0.525635 150.55Z" fill="#CBCBCB"/>
</svg>
