<svg width="63" height="50" viewBox="0 0 63 50" fill="none" xmlns="http://www.w3.org/2000/svg">
<path d="M16.7447 40.9206V35.2422" stroke="white" stroke-width="0.860367" stroke-miterlimit="10"/>
<path d="M24.1439 41.0068V28.7036" stroke="white" stroke-width="0.860367" stroke-miterlimit="10"/>
<path d="M30.4245 41.0068V27.9292" stroke="white" stroke-width="0.860367" stroke-miterlimit="10"/>
<path d="M37.4796 41.0068L37.5656 23.2832" stroke="white" stroke-width="0.860367" stroke-miterlimit="10"/>
<path d="M43.7602 41.0925L43.8463 16.7441" stroke="white" stroke-width="0.860367" stroke-miterlimit="10"/>
<path d="M49.2666 41.0929L49.3526 10.4639" stroke="white" stroke-width="0.860367" stroke-miterlimit="10"/>
<path d="M58.3865 49.0945L4.44147 48.9224C2.54866 48.9224 1 47.3738 1 45.481L1.17207 4.44147C1.17207 2.54866 2.72073 1 4.61354 1L58.5585 1.17208C60.4513 1.17208 62 2.72074 62 4.61355L61.8279 45.653C61.8279 47.5458 60.2793 49.0945 58.3865 49.0945Z" stroke="white" stroke-width="0.860367" stroke-miterlimit="10"/>
<path d="M11.8406 39.4583L26.4668 26.2947C27.0691 25.6925 28.1015 25.7785 28.7038 26.3808L30.7686 28.3596C31.4569 28.9619 32.4894 28.9619 33.0916 28.2736L49.0084 10.8081" stroke="white" stroke-width="0.860367" stroke-miterlimit="10"/>
<path d="M8.3131 5.9043L8.14102 40.405C8.14102 42.0397 9.43157 43.4163 11.0663 43.4163L53.1382 43.5884" stroke="white" stroke-width="0.860367" stroke-miterlimit="10"/>
<path d="M49.9548 11.5824L47.7179 9.86162C47.5458 9.68955 47.5458 9.34539 47.8039 9.25936L50.7292 7.88276C50.9873 7.79673 51.2454 7.9688 51.2454 8.31295L50.6431 11.4963C50.4711 11.6684 50.1269 11.7544 49.9548 11.5824Z" fill="white"/>
</svg>
