<svg width="65" height="65" viewBox="0 0 65 65" fill="none" xmlns="http://www.w3.org/2000/svg">
<path d="M32.5002 22.7452C36.6816 22.7452 40.0835 19.3439 40.0835 15.1632C39.7024 5.11807 25.2957 5.12141 24.9169 15.1632C24.9169 19.3439 28.3188 22.7452 32.5002 22.7452ZM32.5002 9.74747C35.4871 9.74747 37.9168 12.1768 37.9168 15.1632C37.6624 22.3302 27.337 22.3294 27.0835 15.1632C27.0835 12.1768 29.5133 9.74747 32.5002 9.74747ZM6.50033 21.662C6.50033 25.8427 9.90223 29.244 14.0836 29.244C24.1305 28.863 24.1271 14.4588 14.0836 14.08C9.90223 14.08 6.50033 17.4813 6.50033 21.662ZM14.0836 16.2463C17.0705 16.2463 19.5003 18.6757 19.5003 21.662C19.2459 28.8291 8.92043 28.8282 8.66699 21.662C8.66699 18.6757 11.0967 16.2463 14.0836 16.2463ZM65 42.2417V55.2394C64.971 56.6605 62.8615 56.6668 62.8333 55.2394V42.2417C62.8333 36.8671 58.4589 32.4934 53.0834 32.4934H48.7501C43.3746 32.4934 39.0001 36.8671 39.0001 42.2417V55.2394C39.0001 55.8371 38.5146 56.3225 37.9168 56.3225C37.3191 56.3225 36.8335 55.8371 36.8335 55.2394V42.2417C36.8335 37.5702 39.5438 33.5287 43.4689 31.5772C41.9025 28.2833 38.5518 25.9946 34.6668 25.9946H30.3335C26.45 25.9946 23.098 28.2832 21.5315 31.5772C25.4566 33.5288 28.1669 37.5692 28.1669 42.2417V55.2394C28.1669 55.8371 27.6813 56.3225 27.0835 56.3225C26.4858 56.3225 26.0002 55.8371 26.0002 55.2394V42.2417C26.0002 36.8671 21.6258 32.4934 16.2503 32.4934H11.917C6.54144 32.4934 2.16703 36.8671 2.16703 42.2417V55.2394C2.16703 55.8371 1.68146 56.3225 1.0837 56.3225C0.485937 56.3225 0.000371222 55.8371 0.000371222 55.2394V42.2417C0.000371222 35.6723 5.34644 30.3272 11.917 30.3272C13.9874 30.405 17.5643 30.0922 19.5089 30.7909C21.3942 26.6889 25.5311 23.8283 30.3335 23.8283H34.6668C39.4693 23.8283 43.6077 26.6889 45.4914 30.7909C47.4143 30.1159 51.0339 30.3707 53.0834 30.3272C59.6539 30.3272 65 35.6723 65 42.2417ZM50.9167 29.244C55.0981 29.244 58.5 25.8427 58.5 21.662C58.1189 11.6169 43.7123 11.6203 43.3335 21.662C43.3335 25.8427 46.7354 29.244 50.9167 29.244ZM50.9167 16.2463C53.9036 16.2463 56.3334 18.6757 56.3334 21.662C56.079 28.8291 45.7535 28.8282 45.5001 21.662C45.5001 18.6757 47.9299 16.2463 50.9167 16.2463ZM52.4963 56.7447C52.8614 57.219 52.7734 57.8984 52.299 58.263C51.7065 58.808 50.9298 59.1155 50.335 58.3757C49.8127 57.6252 50.3026 56.9555 50.9763 56.5474C51.4488 56.1823 52.1302 56.2688 52.4949 56.7447L52.4963 56.7447ZM19.1249 60.9438C18.5726 61.9834 17.4608 61.3674 16.7286 60.9114C16.2062 60.6198 16.0181 59.9603 16.3083 59.4386C16.8935 58.4333 17.9105 59.0541 18.6558 59.4864C19.1878 59.7592 19.3977 60.4124 19.1249 60.9453L19.1249 60.9438ZM23.9326 62.7416C23.5404 63.8726 22.3749 63.4263 21.5633 63.0999C20.9999 62.8982 20.7063 62.2788 20.9089 61.7154C21.3195 60.6279 22.4256 61.0742 23.2328 61.3798C23.8025 61.5617 24.1159 62.1714 23.9336 62.7415L23.9326 62.7416ZM34.1052 63.8842C34.0844 64.8145 33.2981 65.0606 32.4996 64.9881C31.7054 65.0616 30.9287 64.8029 30.9113 63.8832C30.9471 63.0244 31.7746 62.7275 32.4996 62.8218C33.2516 62.7343 34.0598 62.994 34.1052 63.8842ZM28.9715 63.727C28.7723 64.9044 27.5482 64.6583 26.6932 64.4688C26.1051 64.3624 25.7129 63.7996 25.8202 63.2101C26.0649 62.0535 27.1951 62.3349 28.0575 62.4974C28.6489 62.5839 29.0586 63.1342 28.972 63.7256L28.9715 63.727ZM44.1047 61.7111C44.3073 62.2745 44.0137 62.8939 43.4503 63.0965C42.6388 63.4214 41.4713 63.8687 41.081 62.7367C40.7463 61.6245 41.8954 61.3058 42.72 61.0569C43.2844 60.8543 43.9029 61.1478 44.1055 61.7111H44.1047ZM48.7035 59.4312C48.9952 59.9535 48.8075 60.613 48.2842 60.904C47.553 61.361 46.4382 61.9785 45.8879 60.9374C45.3753 59.8944 46.4567 59.3929 47.23 59.0114C47.7533 58.7198 48.413 58.9084 48.7031 59.4306L48.7035 59.4312ZM39.1954 63.2092C39.3028 63.7972 38.9115 64.3615 38.3224 64.4679C37.4698 64.6565 36.2433 64.9045 36.0431 63.7271C35.9058 62.5574 37.0704 62.4563 37.9355 62.3365C38.5217 62.2272 39.0871 62.6203 39.1944 63.2093L39.1954 63.2092ZM14.4398 56.8623C15.571 57.7307 14.3054 59.4304 13.1505 58.603L12.7022 58.264C11.584 57.3955 12.8971 55.6881 14.0249 56.5484L14.4399 56.8627L14.4398 56.8623ZM0 32.4934L0.00435265 31.9282C0.0551341 30.5051 2.17101 30.5429 2.17101 31.9659L2.16665 32.4934C2.14296 33.9165 0.0236475 33.9165 0 32.4934ZM41.6852 2.42791C42.1079 1.27563 43.3068 1.80076 44.1314 2.1431C44.6905 2.3578 44.969 2.98351 44.7543 3.54252C44.2949 4.65806 43.1738 4.11456 42.3589 3.80364C41.7935 3.60974 41.4912 2.99322 41.6852 2.42799L41.6852 2.42791ZM46.7682 4.48155C47.0583 3.95835 47.717 3.76881 48.2404 4.05893C49.0258 4.45302 50.2044 5.07292 49.5946 6.11491C48.9499 7.1318 47.9391 6.4031 47.1895 5.95341C46.6662 5.66328 46.4766 5.00469 46.7668 4.48145L46.7682 4.48155ZM51.5739 8.91178C50.4775 8.01625 51.8341 6.34034 52.9378 7.22852C53.642 7.75172 54.6948 8.56741 53.9138 9.48566C53.1317 10.3686 52.2152 9.48373 51.574 8.9117L51.5739 8.91178ZM55.3786 12.5815C54.4544 11.508 56.0794 10.0946 57.0142 11.1604C57.6163 11.7972 58.5115 12.7831 57.583 13.552C56.6413 14.2874 55.9265 13.2628 55.3785 12.5825L55.3786 12.5815ZM36.3232 1.29402C36.415 0.70265 36.9722 0.297431 37.5612 0.39172C38.4463 0.504387 39.7409 0.647515 39.5374 1.85489C39.2839 3.02991 38.0836 2.69771 37.2266 2.53186C36.6361 2.43999 36.2323 1.88535 36.3241 1.29398L36.3232 1.29402ZM63.1327 25.4004C63.7208 25.2877 64.2876 25.6702 64.4023 26.2582C64.5962 27.1257 64.9038 28.3955 63.6991 28.614C62.503 28.7702 62.4155 27.5459 62.2743 26.6707C62.1606 26.0837 62.5441 25.515 63.1313 25.4014L63.1327 25.4004ZM30.8496 1.10586C30.8399 0.508204 31.3163 0.014985 31.9145 0.00435167L32.5007 0L33.0457 0.00435167C33.6435 0.0130555 34.1213 0.505791 34.1126 1.10393C34.1039 1.70159 33.6304 2.19481 33.0128 2.17063L32.5002 2.16628C32.4654 2.16193 31.9716 2.17402 31.9314 2.17063C31.3419 2.17063 30.8588 1.69725 30.8481 1.10586H30.8496ZM58.4936 16.8529C58.185 16.3403 58.3495 15.6755 58.8621 15.3654C59.9237 14.7567 60.5054 15.921 60.9171 16.7131C61.3296 17.4075 60.772 18.3432 59.9711 18.3238C59.1422 18.3543 58.8738 17.4303 58.4936 16.8539V16.8529ZM61.4379 20.1932C61.996 19.9799 62.6233 20.256 62.8376 20.815C63.1809 21.637 63.7052 22.8319 62.557 23.2573C61.4089 23.62 61.1066 22.4309 60.8161 21.5925C60.6004 21.0335 60.8789 20.4073 61.438 20.1931L61.4379 20.1932ZM0.396435 27.4125C0.455922 27.0377 0.52121 26.6664 0.592301 26.296C0.885864 24.9062 2.96695 25.3037 2.71983 26.7084C2.58344 27.499 2.53026 28.6789 1.46874 28.6644C0.810044 28.6707 0.287719 28.0633 0.397513 27.4125L0.396435 27.4125ZM7.40327 13.5681C6.93851 13.1909 6.86693 12.5101 7.24415 12.0453C7.76841 11.3413 8.58327 10.2887 9.50267 11.0705C10.3901 11.8742 9.50267 12.7513 8.92764 13.409C8.54944 13.8756 7.86608 13.9443 7.40467 13.5681L7.40327 13.5681ZM25.4236 1.8648C25.31 1.27778 25.6945 0.709136 26.2816 0.595487C27.1492 0.401586 28.4221 0.0959794 28.6378 1.30049C28.7311 1.8909 28.3268 2.44649 27.7363 2.53837C26.8793 2.70422 25.68 3.03981 25.4246 1.86479L25.4236 1.8648ZM1.76254 21.9122C2.02902 21.0597 2.39948 19.8088 3.55096 20.2213C4.11003 20.436 4.38715 21.0626 4.17387 21.6207C3.89771 22.3151 3.7299 23.3755 2.78634 23.3484C2.05945 23.359 1.51 22.5989 1.7625 21.9122H1.76254ZM4.07096 16.7359C4.48059 15.9443 5.06529 14.7756 6.1273 15.3829C6.63994 15.6914 6.80535 16.3568 6.49679 16.8703C6.1157 17.4487 5.84776 18.3761 5.01691 18.3456C4.21844 18.365 3.65835 17.4313 4.07093 16.7374L4.07096 16.7359ZM20.2169 3.55376C19.8029 2.40244 21.0511 2.03303 21.9023 1.76652C22.4667 1.57165 23.0843 1.87145 23.2792 2.43816C23.4741 3.00343 23.1742 3.61995 22.6074 3.81481C21.7939 4.12669 20.6739 4.66729 20.2164 3.55369L20.2169 3.55376ZM15.3855 6.12619C15.0769 5.61364 15.2413 4.94876 15.754 4.63876C16.4852 4.1557 17.6121 3.44537 18.2089 4.49273C18.4991 5.01593 18.3095 5.67452 17.7862 5.96469C17.04 6.41438 16.0292 7.1397 15.3854 6.12523L15.3855 6.12619ZM11.0705 9.49693C10.2914 8.57722 11.3413 7.76489 12.0455 7.24065C12.5093 6.86252 13.1917 6.93504 13.5685 7.39974C13.9457 7.86443 13.8741 8.54671 13.4093 8.92245C12.769 9.49545 11.8526 10.3794 11.0705 9.49642L11.0705 9.49693ZM63.8923 30.8664C64.4847 30.8427 64.9843 31.332 64.9949 31.9302L64.9993 32.4945C64.9993 33.0921 64.5137 33.5776 63.916 33.5776C62.9908 33.5443 62.7591 32.7619 62.8283 31.9694C62.8186 31.3717 63.294 30.8775 63.8923 30.8669V30.8664Z" fill="#C9EAF1"/>
</svg>
