<svg width="62" height="65" viewBox="0 0 62 65" fill="none" xmlns="http://www.w3.org/2000/svg">
<path d="M54.6496 64H9.97812C4.94162 64 1 60.0896 1 55.0931V9.90691C1 4.91036 4.94162 1 9.97812 1H48.5183C48.5183 1 48.5183 6.86551 48.5183 7.95172C48.5183 23.3759 48.5183 42.0586 48.5183 57.4828C48.7373 63.5655 54.6496 64 54.6496 64Z" stroke="white" stroke-width="1.78832" stroke-miterlimit="10"/>
<path d="M48.7372 57.2655C48.7372 63.5655 54.6496 63.7827 54.6496 63.7827C54.6496 63.7827 61 64.4345 61 57.2655H53.1167C52.8978 57.2655 48.7372 57.0483 48.7372 57.2655Z" stroke="white" stroke-width="1.78832" stroke-miterlimit="10"/>
<path d="M8.44519 53.5728H39.7591" stroke="white" stroke-width="1.78832" stroke-miterlimit="10" stroke-linecap="round" stroke-linejoin="round"/>
<path d="M8.44519 46.6206H39.7591" stroke="white" stroke-width="1.78832" stroke-miterlimit="10" stroke-linecap="round" stroke-linejoin="round"/>
<path d="M8.44519 28.8066H39.7591" stroke="white" stroke-width="1.78832" stroke-miterlimit="10" stroke-linecap="round" stroke-linejoin="round"/>
<path d="M8.44519 21.8555H39.7591" stroke="white" stroke-width="1.78832" stroke-miterlimit="10" stroke-linecap="round" stroke-linejoin="round"/>
<path d="M8.44519 37.7134H39.7591" stroke="white" stroke-width="1.78832" stroke-miterlimit="10" stroke-linecap="round" stroke-linejoin="round"/>
<path d="M37.7884 14.2518H21.584C20.0511 14.2518 18.7373 12.9483 18.7373 11.4277C18.7373 9.90697 20.0511 8.60352 21.584 8.60352H37.7884C39.3212 8.60352 40.6351 9.90697 40.6351 11.4277C40.6351 12.9483 39.3212 14.2518 37.7884 14.2518Z" fill="white"/>
<path d="M47.8615 40.1032C51.6105 40.1032 54.6498 37.0881 54.6498 33.3687C54.6498 29.6494 51.6105 26.6343 47.8615 26.6343C44.1124 26.6343 41.0731 29.6494 41.0731 33.3687C41.0731 37.0881 44.1124 40.1032 47.8615 40.1032Z" fill="#46B2C8" stroke="white" stroke-width="1.78832" stroke-miterlimit="10" stroke-linecap="round" stroke-linejoin="round"/>
<path d="M52.241 39.2334L58.1534 46.6196" stroke="white" stroke-width="1.78832" stroke-miterlimit="10" stroke-linecap="round" stroke-linejoin="round"/>
</svg>
