<svg width="828" height="475" viewBox="0 0 828 475" fill="none" xmlns="http://www.w3.org/2000/svg">
<path d="M162.117 474.171C92.6169 466.671 -34.9831 436.871 10.6169 377.671C67.6169 303.671 126.383 308.671 175 352.671C225.419 398.302 276 408.671 314.117 284.171C347.346 175.636 345.5 178.957 380 121.457C414.5 63.9564 498.7 11.1707 553.5 51.1707C622 101.171 693 102.171 760 51.1707" stroke="white" stroke-dasharray="2 2"/>
<path d="M764.792 34.3206C762.545 32.0548 754.777 28.21 743.759 39.7714C743.376 40.1853 743.57 40.8633 744.116 40.9947C746.094 41.4765 750.946 41.2873 755.439 45.3026L764.792 34.3206Z" fill="#B2D1D8"/>
<path d="M776.815 46.7684C778.532 49.4485 781.668 58.7621 768.016 66.9968C767.53 67.2783 766.88 66.9407 766.893 66.3802C766.859 64.3301 766.361 60.0394 763.428 54.796L776.815 46.7684Z" fill="#B2D1D8"/>
<path d="M753.496 46.7234C756.535 41.1701 761.765 32.8532 769.326 24.9877C776.417 17.5806 783.72 12.4296 791.117 9.66777C799 6.6982 804.205 5.88872 807.169 5.68956C810.325 5.50468 812.081 5.987 812.348 6.36981C812.362 6.39928 812.407 6.41392 812.436 6.47284C812.792 7.17991 813.029 13.5215 805.436 26.2395C797.46 39.5928 786.046 46.1847 761.854 56.732L761.736 56.7913L753.467 46.812L753.496 46.7234Z" fill="#46B2C8"/>
<path d="M812.26 6.56187C812.675 7.38679 812.602 13.9209 805.288 26.1663C797.21 39.682 785.486 46.2452 761.78 56.5848L753.673 46.7821C761.616 32.2637 775.306 15.7399 791.191 9.81517C806.074 4.24698 811.978 5.92836 812.259 6.48813C812.23 6.50295 812.245 6.53241 812.26 6.56187ZM812.554 6.41364C812.525 6.35472 812.495 6.2958 812.451 6.28116C812.051 5.78069 810.147 5.37247 807.124 5.52753C804.145 5.69723 798.926 6.55099 791.028 9.4911C783.631 12.253 776.269 17.4336 769.179 24.8407C761.632 32.7357 756.402 41.0526 753.334 46.6207L753.216 46.8275L753.379 47.0041L761.486 56.8067L761.649 56.9833L761.884 56.8647C786.135 46.2879 797.549 39.6959 805.539 26.2984C812.619 14.5403 813.147 7.5921 812.554 6.41364Z" fill="white"/>
<path d="M754.612 44.6113C754.612 44.6113 761.309 50.8777 764.035 55.8561" stroke="white" stroke-width="0.329801" stroke-miterlimit="10"/>
<path d="M805.288 26.1659C812.94 13.4182 812.673 6.87023 812.215 6.47315C811.978 6.00177 807.387 4.43509 796.466 7.89899C794.845 8.41927 793.062 9.05795 791.147 9.8002C791.147 9.8002 791.83 11.5241 793.34 13.9392C794.258 15.3971 795.457 17.1198 796.995 18.8563C801.847 24.4636 805.288 26.1659 805.288 26.1659Z" fill="#B2D1D8"/>
<path d="M773.788 39.6519C774.566 38.0422 763.994 45.1336 758.356 49.7789C755.677 52.0128 754.621 54.39 754.725 54.67C754.829 54.95 757.07 54.2659 759.999 52.1642C763.356 49.7369 772.291 42.7677 773.788 39.6519Z" fill="#B2D1D8"/>
<path d="M780.74 30.0623C782.533 33.6256 786.875 35.0609 790.439 33.2681C794.002 31.4752 795.437 27.1332 793.644 23.5698C791.852 20.0065 787.51 18.5712 783.946 20.364C780.383 22.1569 778.948 26.4989 780.74 30.0623Z" fill="#B2D1D8"/>
<path d="M790.648 22.6776C790.648 22.6776 794.286 26.6065 791.788 30.3001" stroke="white" stroke-width="0.329801" stroke-miterlimit="10" stroke-linecap="round" stroke-linejoin="round"/>
<path d="M754.93 48.1799C754.93 48.1799 738 64.6835 721.5 64.6836L754.93 48.1799Z" fill="#46B2C8"/>
<path d="M754.93 48.1799C754.93 48.1799 738 64.6835 721.5 64.6836" stroke="white" stroke-width="0.329801" stroke-miterlimit="10"/>
<path d="M760.597 55.3336C760.597 55.3336 747 64.1837 745 74.6837L760.597 55.3336Z" fill="#46B2C8"/>
<path d="M760.597 55.3336C760.597 55.3336 747 64.1837 745 74.6837" stroke="white" stroke-width="0.329801" stroke-miterlimit="10"/>
<path d="M813.011 23.9051C813.117 24.1166 813.375 24.2018 813.587 24.0954C813.798 23.989 813.883 23.7312 813.777 23.5197C813.671 23.3082 813.413 23.223 813.201 23.3294C812.99 23.4358 812.905 23.6936 813.011 23.9051Z" fill="white"/>
<path d="M811.393 7.84705C811.393 7.84705 810.71 12.1408 809.171 15.8319" stroke="white" stroke-width="0.329801" stroke-miterlimit="10" stroke-linecap="round" stroke-linejoin="round"/>
<path d="M808.29 17.5302C808.29 17.5302 807.337 19.8924 806.78 21.1327" stroke="white" stroke-width="0.329801" stroke-miterlimit="10" stroke-linecap="round" stroke-linejoin="round"/>
</svg>
