<svg width="122" height="108" viewBox="0 0 122 108" fill="none" xmlns="http://www.w3.org/2000/svg">
<path d="M3.28667 5.39983C4.58282 5.39983 5.63352 4.34909 5.63352 3.05294C5.63352 1.75679 4.58282 0.706055 3.28667 0.706055C1.99052 0.706055 0.939758 1.75679 0.939758 3.05294C0.939758 4.34909 1.99052 5.39983 3.28667 5.39983Z" fill="white"/>
<path d="M32.4271 5.39983C33.7233 5.39983 34.774 4.34909 34.774 3.05294C34.774 1.75679 33.7233 0.706055 32.4271 0.706055C31.131 0.706055 30.0802 1.75679 30.0802 3.05294C30.0802 4.34909 31.131 5.39983 32.4271 5.39983Z" fill="white"/>
<path d="M61.372 5.39983C62.6681 5.39983 63.7189 4.34909 63.7189 3.05294C63.7189 1.75679 62.6681 0.706055 61.372 0.706055C60.0758 0.706055 59.0251 1.75679 59.0251 3.05294C59.0251 4.34909 60.0758 5.39983 61.372 5.39983Z" fill="white"/>
<path d="M90.5125 5.39983C91.8086 5.39983 92.8593 4.34909 92.8593 3.05294C92.8593 1.75679 91.8086 0.706055 90.5125 0.706055C89.2163 0.706055 88.1656 1.75679 88.1656 3.05294C88.1656 4.34909 89.2163 5.39983 90.5125 5.39983Z" fill="white"/>
<path d="M122 3.05294C122 4.42196 121.022 5.39983 119.653 5.39983C118.284 5.39983 117.306 4.42196 117.306 3.05294C117.306 1.68392 118.284 0.706055 119.653 0.706055C120.826 0.706055 122 1.68392 122 3.05294Z" fill="white"/>
<path d="M3.28661 30.8241C4.58275 30.8241 5.63346 29.7734 5.63346 28.4773C5.63346 27.1811 4.58275 26.1304 3.28661 26.1304C1.99046 26.1304 0.939697 27.1811 0.939697 28.4773C0.939697 29.7734 1.99046 30.8241 3.28661 30.8241Z" fill="white"/>
<path d="M32.4271 30.8241C33.7233 30.8241 34.774 29.7734 34.774 28.4773C34.774 27.1811 33.7233 26.1304 32.4271 26.1304C31.131 26.1304 30.0802 27.1811 30.0802 28.4773C30.0802 29.7734 31.131 30.8241 32.4271 30.8241Z" fill="white"/>
<path d="M61.3719 30.8241C62.6681 30.8241 63.7189 29.7734 63.7189 28.4773C63.7189 27.1811 62.6681 26.1304 61.3719 26.1304C60.0758 26.1304 59.0251 27.1811 59.0251 28.4773C59.0251 29.7734 60.0758 30.8241 61.3719 30.8241Z" fill="white"/>
<path d="M90.5124 30.8241C91.8086 30.8241 92.8593 29.7734 92.8593 28.4773C92.8593 27.1811 91.8086 26.1304 90.5124 26.1304C89.2163 26.1304 88.1655 27.1811 88.1655 28.4773C88.1655 29.7734 89.2163 30.8241 90.5124 30.8241Z" fill="white"/>
<path d="M122 28.4773C122 29.8463 121.022 30.8241 119.653 30.8241C118.284 30.8241 117.306 29.8463 117.306 28.4773C117.306 27.1082 118.284 26.1304 119.653 26.1304C120.826 26.1304 122 27.3038 122 28.4773Z" fill="white"/>
<path d="M3.28661 56.4447C4.58275 56.4447 5.63346 55.394 5.63346 54.0979C5.63346 52.8017 4.58275 51.751 3.28661 51.751C1.99046 51.751 0.939697 52.8017 0.939697 54.0979C0.939697 55.394 1.99046 56.4447 3.28661 56.4447Z" fill="white"/>
<path d="M32.4271 56.4447C33.7233 56.4447 34.774 55.394 34.774 54.0979C34.774 52.8017 33.7233 51.751 32.4271 51.751C31.131 51.751 30.0802 52.8017 30.0802 54.0979C30.0802 55.394 31.131 56.4447 32.4271 56.4447Z" fill="white"/>
<path d="M61.3719 56.4447C62.6681 56.4447 63.7189 55.394 63.7189 54.0979C63.7189 52.8017 62.6681 51.751 61.3719 51.751C60.0758 51.751 59.0251 52.8017 59.0251 54.0979C59.0251 55.394 60.0758 56.4447 61.3719 56.4447Z" fill="white"/>
<path d="M90.5124 56.4447C91.8086 56.4447 92.8593 55.394 92.8593 54.0979C92.8593 52.8017 91.8086 51.751 90.5124 51.751C89.2163 51.751 88.1655 52.8017 88.1655 54.0979C88.1655 55.394 89.2163 56.4447 90.5124 56.4447Z" fill="white"/>
<path d="M122 54.0979C122 55.4669 121.022 56.4447 119.653 56.4447C118.284 56.4447 117.306 55.4669 117.306 54.0979C117.306 52.7288 118.284 51.751 119.653 51.751C120.826 51.751 122 52.7288 122 54.0979Z" fill="white"/>
<path d="M3.28661 81.8691C4.58275 81.8691 5.63346 80.8183 5.63346 79.5222C5.63346 78.226 4.58275 77.1753 3.28661 77.1753C1.99046 77.1753 0.939697 78.226 0.939697 79.5222C0.939697 80.8183 1.99046 81.8691 3.28661 81.8691Z" fill="white"/>
<path d="M32.4271 81.8691C33.7233 81.8691 34.774 80.8183 34.774 79.5222C34.774 78.226 33.7233 77.1753 32.4271 77.1753C31.131 77.1753 30.0802 78.226 30.0802 79.5222C30.0802 80.8183 31.131 81.8691 32.4271 81.8691Z" fill="white"/>
<path d="M61.3719 81.8691C62.6681 81.8691 63.7189 80.8183 63.7189 79.5222C63.7189 78.226 62.6681 77.1753 61.3719 77.1753C60.0758 77.1753 59.0251 78.226 59.0251 79.5222C59.0251 80.8183 60.0758 81.8691 61.3719 81.8691Z" fill="white"/>
<path d="M90.5124 81.8691C91.8086 81.8691 92.8593 80.8183 92.8593 79.5222C92.8593 78.226 91.8086 77.1753 90.5124 77.1753C89.2163 77.1753 88.1655 78.226 88.1655 79.5222C88.1655 80.8183 89.2163 81.8691 90.5124 81.8691Z" fill="white"/>
<path d="M122 79.5222C122 80.8912 121.022 81.8691 119.653 81.8691C118.284 81.8691 117.306 80.8912 117.306 79.5222C117.306 78.1532 118.284 77.1753 119.653 77.1753C120.826 77.1753 122 78.1532 122 79.5222Z" fill="white"/>
<path d="M5.63346 104.947C5.63346 106.316 4.65562 107.294 3.28661 107.294C1.91759 107.294 0.939697 106.316 0.939697 104.947C0.939697 103.578 1.91759 102.6 3.28661 102.6C4.65562 102.6 5.63346 103.774 5.63346 104.947Z" fill="white"/>
<path d="M34.774 104.947C34.774 106.316 33.7961 107.294 32.4271 107.294C31.0581 107.294 30.0802 106.316 30.0802 104.947C30.0802 103.578 31.0581 102.6 32.4271 102.6C33.7961 102.6 34.774 103.774 34.774 104.947Z" fill="white"/>
<path d="M63.7189 104.947C63.7189 106.316 62.741 107.294 61.3719 107.294C60.0029 107.294 59.0251 106.316 59.0251 104.947C59.0251 103.578 60.0029 102.6 61.3719 102.6C62.741 102.6 63.7189 103.774 63.7189 104.947Z" fill="white"/>
<path d="M92.8593 104.947C92.8593 106.316 91.8815 107.294 90.5124 107.294C89.1434 107.294 88.1655 106.316 88.1655 104.947C88.1655 103.578 89.1434 102.6 90.5124 102.6C91.8815 102.6 92.8593 103.774 92.8593 104.947Z" fill="white"/>
<path d="M122 104.947C122 106.316 121.022 107.294 119.653 107.294C118.284 107.294 117.306 106.316 117.306 104.947C117.306 103.578 118.284 102.6 119.653 102.6C120.826 102.6 122 103.774 122 104.947Z" fill="white"/>
</svg>
