<svg width="21" height="20" viewBox="0 0 21 20" fill="none" xmlns="http://www.w3.org/2000/svg">
<path d="M10.6585 5.03861C7.91292 5.03861 5.69714 7.25439 5.69714 9.99993C5.69714 12.7455 7.91292 14.9612 10.6585 14.9612C13.404 14.9612 15.6198 12.7455 15.6198 9.99993C15.6198 7.25439 13.404 5.03861 10.6585 5.03861ZM10.6585 13.2244C8.88293 13.2244 7.43397 11.7755 7.43397 9.99993C7.43397 8.2244 8.88293 6.77544 10.6585 6.77544C12.434 6.77544 13.883 8.2244 13.883 9.99993C13.883 11.7755 12.434 13.2244 10.6585 13.2244ZM15.823 3.67915C15.1819 3.67915 14.6643 4.19681 14.6643 4.83784C14.6643 5.47887 15.1819 5.99653 15.823 5.99653C16.464 5.99653 16.9817 5.48128 16.9817 4.83784C16.9819 4.68562 16.952 4.53486 16.8939 4.3942C16.8357 4.25354 16.7503 4.12573 16.6427 4.01809C16.5351 3.91046 16.4073 3.82512 16.2666 3.76696C16.1259 3.7088 15.9752 3.67896 15.823 3.67915ZM20.3295 9.99993C20.3295 8.66466 20.3416 7.34148 20.2666 6.00862C20.1916 4.46048 19.8385 3.0865 18.7064 1.95442C17.5719 0.819919 16.2003 0.469167 14.6522 0.394179C13.3169 0.319191 11.9937 0.331286 10.6609 0.331286C9.3256 0.331286 8.00243 0.319191 6.66957 0.394179C5.12143 0.469167 3.74745 0.822338 2.61537 1.95442C1.48087 3.08892 1.13012 4.46048 1.05513 6.00862C0.980141 7.3439 0.992236 8.66708 0.992236 9.99993C0.992236 11.3328 0.980141 12.6584 1.05513 13.9912C1.13012 15.5394 1.48329 16.9134 2.61537 18.0454C3.74987 19.1799 5.12143 19.5307 6.66957 19.6057C8.00484 19.6807 9.32802 19.6686 10.6609 19.6686C11.9962 19.6686 13.3193 19.6807 14.6522 19.6057C16.2003 19.5307 17.5743 19.1775 18.7064 18.0454C19.8409 16.9109 20.1916 15.5394 20.2666 13.9912C20.344 12.6584 20.3295 11.3352 20.3295 9.99993ZM18.2008 15.7039C18.0242 16.1441 17.8114 16.4731 17.4703 16.8118C17.1292 17.1528 16.8027 17.3657 16.3624 17.5423C15.09 18.0479 12.0687 17.9342 10.6585 17.9342C9.2482 17.9342 6.22448 18.0479 4.9521 17.5447C4.51184 17.3681 4.18286 17.1553 3.84421 16.8142C3.50313 16.4731 3.29026 16.1465 3.11368 15.7063C2.61053 14.4315 2.72422 11.4102 2.72422 9.99993C2.72422 8.58967 2.61053 5.56595 3.11368 4.29357C3.29026 3.85331 3.50313 3.52433 3.84421 3.18568C4.18528 2.84702 4.51184 2.63173 4.9521 2.45515C6.22448 1.952 9.2482 2.06569 10.6585 2.06569C12.0687 2.06569 15.0924 1.952 16.3648 2.45515C16.8051 2.63173 17.1341 2.8446 17.4727 3.18568C17.8138 3.52675 18.0267 3.85331 18.2032 4.29357C18.7064 5.56595 18.5927 8.58967 18.5927 9.99993C18.5927 11.4102 18.7064 14.4315 18.2008 15.7039Z" fill="#115766"/>
</svg>
