<svg width="23" height="23" viewBox="0 0 23 23" fill="none" xmlns="http://www.w3.org/2000/svg">
<path d="M2.62524 9.30737V20.0771" stroke="#115766" stroke-width="4.30788" stroke-linecap="round"/>
<path d="M2.62531 4.99977C3.8149 4.99977 4.77925 4.03542 4.77925 2.84583C4.77925 1.65625 3.8149 0.691895 2.62531 0.691895C1.43573 0.691895 0.471375 1.65625 0.471375 2.84583C0.471375 4.03542 1.43573 4.99977 2.62531 4.99977Z" fill="#115766"/>
<path d="M9.08704 20.0771V9.30737" stroke="#115766" stroke-width="4.30788" stroke-linecap="round"/>
<path d="M9.08704 14.6922C9.08704 13.2641 9.65437 11.8944 10.6642 10.8846C11.6741 9.8747 13.0437 9.30737 14.4719 9.30737C15.9 9.30737 17.2697 9.8747 18.2795 10.8846C19.2894 11.8944 19.8567 13.2641 19.8567 14.6922V20.0771" stroke="#115766" stroke-width="4.30788" stroke-linecap="round"/>
</svg>
