<svg width="63" height="63" viewBox="0 0 63 63" fill="none" xmlns="http://www.w3.org/2000/svg">
<path fill-rule="evenodd" clip-rule="evenodd" d="M14.919 33.3372C10.3562 32.1081 5.54987 34.1039 3.19158 38.2172C0.828954 42.33 1.50852 47.5104 4.84918 50.8675C6.40051 52.4277 7.22135 54.1306 7.61007 55.9781C7.93971 57.5543 7.9263 59.3193 7.93076 61.2061H18.4793V57.9018L22.6494 54.5183V49.4195L24.6421 47.56L22.6494 43.67V43.4552C22.6489 38.7074 19.4772 34.5618 14.919 33.3373L14.919 33.3372ZM15.3849 31.5995C20.7279 33.0354 24.4434 37.907 24.4434 43.4557L26.8568 47.9439L24.4434 50.1962V55.3686L20.2728 58.7549V63.0001H6.19026V62.1051C6.19026 59.8065 6.1823 57.9306 5.85267 56.3466C5.51756 54.7665 4.89904 53.4668 3.57494 52.1398C-0.331115 48.2125 -1.12701 42.1322 1.63642 37.3228C4.39642 32.5168 10.0475 30.1606 15.3842 31.5995L15.3849 31.5995Z" fill="#C9EAF1"/>
<path fill-rule="evenodd" clip-rule="evenodd" d="M48.0804 33.3372C52.6383 32.1081 57.4441 34.1039 59.8074 38.2172C62.172 42.33 61.4874 47.5104 58.1457 50.8675C56.5944 52.4277 55.7735 54.1306 55.3862 55.9781C55.0561 57.5543 55.0725 59.3193 55.0645 61.2061H44.5165V57.9018L40.3505 54.5183V49.4195L38.3578 47.56L40.3505 43.67V43.4552C40.3505 38.7074 43.5187 34.5618 48.0804 33.3373L48.0804 33.3372ZM47.6101 31.5995C42.2721 33.0354 38.5545 37.907 38.5545 43.4557L36.1377 47.9439L38.5545 50.1962V55.3686L42.722 58.7549V63.0001H56.8072V62.1051C56.8072 59.8065 56.8161 57.9306 57.1462 56.3466C57.4759 54.7665 58.0949 53.4668 59.4194 52.1398C63.3254 48.2125 64.1224 42.1322 61.362 37.3228C58.598 32.5168 52.9504 30.1606 47.6091 31.5995L47.6101 31.5995Z" fill="#C9EAF1"/>
<path fill-rule="evenodd" clip-rule="evenodd" d="M27.4887 32.6145H35.5732V35.2342L33.6136 36.9251L33.5386 37.1777C33.2915 38.022 32.4711 38.5753 31.604 38.6256C30.7344 38.6788 29.922 38.3317 29.5093 37.1375L29.4268 36.9063L27.4882 35.2362L27.4877 32.6145H27.4887ZM31.527 11.8826C35.438 11.8826 38.9646 14.2468 40.4611 17.8888C41.9582 21.5313 41.1293 25.7222 38.3624 28.506L36.0599 30.82H32.4303V24.4966C32.8136 24.4101 33.188 24.2739 33.544 24.0755C34.79 23.37 35.5741 22.0504 35.5741 20.6234H33.7717C33.7717 21.3986 33.359 22.1211 32.662 22.5133C31.9649 22.9091 31.0988 22.9091 30.3988 22.5133C29.7017 22.1215 29.2845 21.3991 29.2845 20.6234H27.4901C27.4901 22.0504 28.2692 23.37 29.5152 24.0755C29.8707 24.2734 30.2495 24.4096 30.6329 24.4966V30.82H27.0033L24.7017 28.506C21.9338 25.7212 21.1005 21.5303 22.6021 17.8888C24.0971 14.2474 27.6159 11.8826 31.5268 11.8826H31.527ZM31.527 10.0928C26.8901 10.0928 22.7116 12.906 20.9391 17.2117C19.1691 21.5154 20.151 26.4725 23.426 29.7679L25.6952 32.0535V36.0585L27.9222 37.9807C28.6357 39.6761 30.2282 40.5015 31.7089 40.4145C33.1692 40.328 34.5847 39.441 35.1494 37.9727L37.368 36.0585V32.0535L39.6377 29.7679C42.9118 26.4724 43.8938 21.5149 42.1197 17.2117C40.3502 12.906 36.1632 10.0928 31.5268 10.0928H31.527Z" fill="#C9EAF1"/>
<path d="M30.1191 0H31.9175V6.5958H30.1191V0Z" fill="#C9EAF1"/>
<path d="M45.2662 5.52246L40.6016 10.1881L41.8679 11.459L46.5326 6.79776L45.2662 5.52246Z" fill="#C9EAF1"/>
<path d="M15.4971 6.79928L16.7679 5.52441L21.4386 10.1802L20.1677 11.455L15.4971 6.79928Z" fill="#C9EAF1"/>
<path d="M9.97461 20.1455H16.5665V21.9399H9.97461V20.1455Z" fill="#C9EAF1"/>
<path d="M45.4736 20.1455H52.0645V21.9399H45.4736V20.1455Z" fill="#C9EAF1"/>
</svg>
