<svg width="26" height="52" viewBox="0 0 26 52" fill="none" xmlns="http://www.w3.org/2000/svg">
<path d="M24.3831 24.2537C23.4776 24.2537 22.7662 24.9651 22.7662 25.8706C22.7662 28.587 21.6667 30.98 19.9204 32.791C18.1741 34.5372 15.7164 35.6367 13 35.6367C10.2836 35.6367 7.89056 34.5372 6.07962 32.791C4.33335 31.0447 3.23383 28.587 3.23383 25.8706C3.23383 24.9651 2.52239 24.2537 1.61691 24.2537C0.711443 24.2537 0 24.9651 0 25.8706C0 32.5323 4.98012 37.9651 11.3831 38.8059V47.0845H5.36815C4.13929 47.0845 3.16917 48.0546 3.16917 49.2835C3.16917 50.5124 4.13929 51.4825 5.36815 51.4825H13H20.6318C21.8607 51.4825 22.8308 50.5124 22.8308 49.2835C22.8308 48.0546 21.8607 47.0845 20.6318 47.0845H14.6169V38.8059C20.6319 38.0298 25.3532 33.179 25.9353 27.1641L25.4179 27.0994L25.9353 27.1641C26 26.776 26 26.3233 26 25.9353C26 25.0298 25.2886 24.2537 24.3831 24.2537Z" fill="white"/>
<path d="M20.5025 10.6716H5.49756V13.1293H20.5025V10.6716Z" fill="white"/>
<path d="M13.0001 0C8.86077 0 5.49756 3.36318 5.49756 7.50249V8.2786H20.5025V7.50249C20.5025 3.36318 17.1394 0 13.0001 0Z" fill="white"/>
<path d="M5.49756 24.9651C5.49756 29.1044 8.86077 32.4676 13.0001 32.4676C17.1394 32.4676 20.5025 29.1044 20.5025 24.9651V20.4377H5.49756V24.9651Z" fill="white"/>
<path d="M20.5025 15.587H5.49756V18.0447H20.5025V15.587Z" fill="white"/>
</svg>
