<svg width="61" height="63" viewBox="0 0 61 63" fill="none" xmlns="http://www.w3.org/2000/svg">
<path d="M17.3102 16.6752C17.5458 16.2644 18.0674 16.1246 18.4743 16.3615C18.8852 16.5935 19.025 17.1186 18.7921 17.5256L11.6845 29.8328C11.4489 30.2436 10.9273 30.3834 10.5164 30.1505C10.1095 29.9149 9.96582 29.3894 10.2027 28.9824L17.3102 16.6752ZM9.88542 16.2433C10.9779 16.2433 11.968 16.6854 12.6824 17.3999C13.4005 18.1179 13.843 19.1071 13.843 20.1996C13.843 21.292 13.4009 22.2821 12.6824 22.9966C11.9679 23.7146 10.9791 24.1571 9.88542 24.1571C8.79297 24.1571 7.80288 23.715 7.08571 22.9966C6.37117 22.282 5.92912 21.2933 5.92912 20.1996C5.92912 19.1059 6.3712 18.117 7.08571 17.3999C7.80244 16.6853 8.79161 16.2433 9.88542 16.2433ZM11.4705 18.6145C11.0636 18.2076 10.5028 17.9566 9.88407 17.9566C9.2627 17.9566 8.7024 18.2062 8.29764 18.6145C7.89071 19.0214 7.63979 19.5821 7.63979 20.2009C7.63979 20.8197 7.8894 21.3791 8.29764 21.7873C8.70104 22.1908 9.26133 22.4452 9.88407 22.4452C10.5015 22.4452 11.0623 22.1921 11.4705 21.7873C11.8739 21.3804 12.1244 20.8197 12.1244 20.2009C12.1244 19.5821 11.8748 19.0215 11.4705 18.6145ZM19.1106 22.3502C20.2031 22.3502 21.1932 22.7936 21.9103 23.5107C22.6249 24.2252 23.0669 25.214 23.0669 26.3065C23.0669 27.3989 22.6248 28.389 21.9103 29.1062C21.1923 29.8207 20.2031 30.2628 19.1106 30.2628C18.0182 30.2628 17.0281 29.8194 16.3109 29.1062C15.5964 28.3881 15.1543 27.3989 15.1543 26.3065C15.1543 25.214 15.5964 24.2239 16.3109 23.5107C17.0281 22.794 18.0173 22.3502 19.1106 22.3502ZM20.6957 24.7214C20.2888 24.318 19.7281 24.0675 19.1093 24.0675C18.4919 24.0675 17.9311 24.3171 17.5228 24.7214C17.1194 25.1283 16.865 25.689 16.865 26.3078C16.865 26.9292 17.1181 27.4895 17.5228 27.8943C17.9298 28.3012 18.4905 28.5521 19.1093 28.5521C19.7267 28.5521 20.2875 28.3025 20.6957 27.8943C21.0991 27.4908 21.3536 26.9306 21.3536 26.3078C21.3536 25.6891 21.1004 25.1284 20.6957 24.7214ZM14.4957 8.75693C18.4999 8.75693 22.1248 10.3785 24.7492 13.0028C26.7249 14.9785 28.1311 17.5246 28.7069 20.3709L28.9108 20.149C29.7461 19.253 30.6005 18.3384 31.4494 17.3769C30.5775 17.0909 29.9676 16.5591 29.6248 15.9403C29.4029 15.5435 29.2921 15.1111 29.2921 14.6831C29.2921 14.2546 29.4029 13.8227 29.6248 13.4219C29.8955 12.9293 30.3393 12.4933 30.9501 12.1932L27.4613 7.74696C27.4262 7.70038 27.3932 7.64985 27.3682 7.60063C27.2008 7.31455 27.0861 7.0399 27.0179 6.76921C26.8681 6.15179 26.9639 5.5836 27.2649 5.06195C27.5295 4.60449 27.9438 4.209 28.4835 3.87241C29.0517 3.51822 29.7724 3.21456 30.6091 2.96892C30.6658 2.21923 31.2024 1.60051 32.0632 1.11531C33.3899 0.371769 35.6795 0 37.9435 0C40.2075 0 42.5009 0.375279 43.8289 1.12146C44.5935 1.55343 45.1041 2.08912 45.2465 2.72938C46.4713 3.0115 47.522 3.39337 48.2893 3.87584C48.3143 3.8899 48.3358 3.90484 48.3574 3.91846C48.846 4.23618 49.2292 4.604 49.4823 5.01838C49.782 5.51847 49.8967 6.06557 49.782 6.65746C49.7179 6.99012 49.5781 7.33289 49.3637 7.67565C49.3461 7.7007 49.3285 7.7297 49.3096 7.75124L45.8262 12.1962C46.4335 12.4959 46.8756 12.9318 47.1515 13.4249C47.3734 13.8244 47.4842 14.2563 47.4842 14.6861C47.4842 15.1146 47.3734 15.5465 47.1515 15.9434C46.8052 16.5608 46.194 17.0939 45.3257 17.38C46.1725 18.3415 47.0254 19.2546 47.8621 20.152C48.52 20.8551 49.1664 21.5481 49.877 22.3418C53.3912 26.2629 55.3529 30.0817 56.077 33.5818C56.716 36.6966 56.3846 39.5543 55.2847 42.0173C56.7274 41.7563 58.0453 41.9632 58.9738 42.4418C59.4814 42.7063 59.8922 43.053 60.1668 43.4635C60.478 43.9244 60.6168 44.4452 60.5487 44.9993C60.4415 45.8597 59.8241 46.757 58.5238 47.5318L48.613 53.4282C48.1243 53.7205 44.8734 54.9214 41.5912 56.0214C39.0586 56.8717 36.473 57.6821 35.0834 57.9897C34.7758 58.0578 34.2872 58.0362 33.9695 58.0503C32.6476 58.107 30.6732 58.19 28.509 58.2757C23.3556 58.4897 17.1873 58.7367 16.4121 58.7683C16.348 58.7723 16.2698 58.7785 16.1801 58.7899C16.2443 59.1893 16.1915 59.5936 16.0404 59.954C15.8299 60.4541 15.4291 60.879 14.8974 61.1221L11.1578 62.8178C10.0618 63.3144 8.77161 62.7537 8.31768 61.6463L2.46783 47.3209C2.2424 46.7677 2.26393 46.192 2.4753 45.6893C2.68184 45.1892 3.08657 44.7642 3.61827 44.5212L7.3579 42.8254C7.88348 42.5859 8.50436 42.5899 9.03265 42.8153C9.50021 43.0157 9.9045 43.3835 10.14 43.8687C10.2332 43.797 10.325 43.7223 10.4222 43.6507C10.833 43.3255 11.2615 42.9753 11.711 42.6013C15.0714 39.7942 17.4541 38.5365 20.4503 38.1221C20.4151 37.7657 20.3896 37.4041 20.3822 37.0323C20.3747 36.857 20.3747 36.686 20.3747 36.5107C18.5778 37.3109 16.5885 37.753 14.4958 37.753C10.4916 37.753 6.87065 36.1315 4.24586 33.5071C1.62367 30.8849 0 27.2601 0 23.2572C0 19.2543 1.62547 15.6281 4.24586 13.0072C6.87065 10.379 10.4929 8.75745 14.4958 8.75745L14.4957 8.75693ZM28.9785 22.5941C28.9886 22.812 28.9926 23.034 28.9926 23.2541C28.9926 27.2583 27.3711 30.8832 24.7489 33.5041C23.9601 34.2928 23.0842 34.9894 22.1347 35.5791C22.092 36.0616 22.078 36.5327 22.0881 36.9866C22.0982 37.3153 22.121 37.6445 22.1562 37.9719C24.5424 37.8747 27.4067 38.1648 31.3704 38.5616L31.9061 38.6156C33.6348 38.791 34.6917 39.5582 35.1567 40.5334C35.3922 41.0299 35.4744 41.5652 35.4098 42.0982C35.3491 42.6058 35.1567 43.1164 34.8416 43.5835C34.0668 44.7375 32.5271 45.6449 30.4344 45.5944L29.8486 45.5803L35.0235 46.9589C35.491 47.0837 37.4918 47.2335 39.3164 47.284C40.6694 47.3192 41.8704 47.3091 42.1376 47.2023L52.9127 42.8062C54.4837 40.3554 55.0989 37.3201 54.3945 33.9233C53.7344 30.7053 51.8984 27.1624 48.5974 23.4795C48.0076 22.8216 47.312 22.0759 46.604 21.3148C45.5002 20.1332 44.3691 18.9185 43.2503 17.6042H33.5145C32.4005 18.9182 31.2641 20.1328 30.1607 21.3189C29.7322 21.7825 29.3038 22.2439 28.9786 22.5941L28.9785 22.5941ZM23.5356 14.2188C21.2211 11.9043 18.0281 10.4716 14.4967 10.4716C10.9675 10.4716 7.77104 11.9041 5.46001 14.2188C3.1455 16.5294 1.7169 19.7263 1.7169 23.2554C1.7169 26.7846 3.1455 29.9797 5.46001 32.2943C7.77059 34.6049 10.9675 36.0375 14.4967 36.0375C18.0285 36.0375 21.2223 34.6049 23.5356 32.2943C25.8462 29.9798 27.2787 26.7833 27.2787 23.2554C27.2787 19.7275 25.8462 16.5298 23.5356 14.2188ZM10.8133 45.5087L15.5672 57.1476C15.5922 57.1437 15.6177 57.1402 15.6428 57.1375C15.8924 57.0949 16.1292 57.0659 16.3459 57.0593C17.1171 57.0277 23.2859 56.7772 28.4427 56.5667C31.1136 56.456 33.5293 56.3562 34.7891 56.3022C36.1246 55.9985 38.6004 55.2198 41.0463 54.3985C44.2428 53.3276 47.3422 52.1986 47.7394 51.9591L57.6502 46.0627C58.5902 45.5019 59.4972 44.6376 58.1894 43.9621C57.3175 43.5161 55.8999 43.433 54.3781 44.0553C50.5136 45.6342 46.6457 47.2126 42.7808 48.7916C42.2842 48.9955 40.8305 49.0347 39.2767 48.9955C37.3375 48.9415 35.1517 48.7675 34.5869 48.6176L22.4429 45.3859C22.0676 45.2862 21.7965 44.9438 21.8066 44.5356C21.818 44.0645 22.206 43.6927 22.6811 43.7042L30.4701 43.8892C31.9089 43.9208 32.931 43.3535 33.417 42.6319C33.5783 42.3964 33.6741 42.1432 33.7031 41.8963C33.7321 41.6744 33.7031 41.4604 33.6099 41.2714C33.388 40.8038 32.7886 40.4285 31.7353 40.3213L31.1996 40.2673C21.3706 39.282 18.682 39.01 12.8029 43.9138C12.3279 44.3106 11.888 44.6709 11.4749 44.9961C11.2482 45.1719 11.0262 45.3446 10.8122 45.5081L10.8133 45.5087ZM8.05892 44.3837L4.31929 46.0795C4.09737 46.1793 3.95148 46.4359 4.0486 46.6728C5.95621 51.3484 7.85989 56.5017 9.90992 61.0161C9.99166 61.2011 10.2175 61.3338 10.4175 61.2657C11.4748 60.9116 13.1064 60.0472 14.1923 59.5546C14.7491 59.3049 14.3712 58.7974 14.2389 58.4155L9.00519 45.6021C8.98366 45.5595 8.96608 45.5164 8.95114 45.4698L8.61234 44.6384C8.5495 44.4828 8.31615 44.2763 8.05907 44.3835L8.05892 44.3837ZM52.3321 11.8462C52.7971 11.9433 53.0933 12.3995 52.9922 12.8604C52.8951 13.3254 52.4389 13.6176 51.978 13.5205C51.2924 13.3741 50.6561 13.31 50.0602 13.324C49.4819 13.3416 48.9427 13.4313 48.4387 13.5987C47.9927 13.7485 47.5062 13.5055 47.3603 13.0556C47.2104 12.6095 47.4535 12.127 47.9034 11.9772C48.5674 11.7552 49.2719 11.6344 50.0215 11.6168C50.7572 11.5971 51.5292 11.6748 52.3321 11.8462L52.3321 11.8462ZM47.8191 16.7829C47.3906 16.5865 47.2017 16.0763 47.4007 15.6478C47.5972 15.2194 48.1074 15.0304 48.5358 15.2295C49.4529 15.6518 50.1069 16.2978 50.4927 17.1648C50.857 17.9786 50.9678 18.9677 50.8214 20.1332C50.7647 20.6008 50.3363 20.9334 49.8678 20.8768C49.4003 20.8201 49.0676 20.3942 49.1243 19.9232C49.2315 19.0764 49.1669 18.3874 48.9314 17.8618C48.7222 17.3902 48.3509 17.0286 47.8192 16.7829L47.8191 16.7829ZM38.3465 36.4688C38.3039 36.0012 38.6462 35.5829 39.1177 35.5363C39.5888 35.4937 40.0036 35.8399 40.0502 36.3075C40.0542 36.358 40.0463 36.2684 40.0542 36.3326C40.1109 36.8502 40.4787 37.3002 41.0293 37.6152C41.6683 37.9831 42.5261 38.1619 43.4612 38.0762C43.4902 38.0723 43.4651 38.0723 43.5583 38.0622C44.5334 37.9514 45.3762 37.5757 45.9546 37.0616C46.4586 36.6116 46.7434 36.0609 46.6941 35.5182C46.5478 33.9647 44.794 33.8651 43.0402 33.7679C40.5543 33.6281 38.0645 33.4857 37.7797 30.4681C37.6724 29.3541 38.1791 28.2972 39.0839 27.4895C39.7378 26.9073 40.6061 26.4502 41.5949 26.2068L41.3163 23.2674C41.2697 22.7963 41.616 22.3815 42.0875 22.3349C42.5551 22.2923 42.9734 22.6346 43.02 23.1061L43.2946 26.0165C44.3128 26.0341 45.2515 26.2872 45.9985 26.7196C47.0167 27.3019 47.6982 28.2049 47.8243 29.2953C47.8283 29.3304 47.8204 29.2777 47.8283 29.3519C47.8749 29.823 47.5286 30.2414 47.061 30.2844C46.5899 30.331 46.1716 29.9847 46.1285 29.5132C46.1211 29.4666 46.1325 29.5558 46.1211 29.4882C46.0644 28.974 45.6966 28.5245 45.1495 28.2055C44.5105 27.8412 43.6487 27.6588 42.7141 27.748C42.7001 27.752 42.7001 27.752 42.617 27.7581C41.6419 27.8728 40.7991 28.2433 40.2242 28.7623C39.7166 29.2122 39.4319 29.7629 39.4846 30.3056C39.6309 31.8591 41.3848 31.9587 43.1346 32.0559C45.6245 32.1957 48.1126 32.3346 48.3987 35.3557C48.5019 36.4697 47.9992 37.5266 47.0944 38.3343C46.4405 38.9165 45.5699 39.3736 44.5834 39.617L44.862 42.5564C44.9047 43.024 44.5584 43.4423 44.0908 43.4889C43.6197 43.5315 43.2014 43.1853 43.1583 42.7177L42.8837 39.8033C41.8655 39.7893 40.9268 39.5326 40.1759 39.1029C39.1616 38.5206 38.4761 37.6176 38.35 36.5272C38.3465 36.4903 38.354 36.5483 38.3465 36.4688L38.3465 36.4688ZM32.9752 11.7644H34.268L31.093 4.61029C30.4075 4.81419 29.8292 5.05368 29.3858 5.32833C28.8075 5.69263 28.4458 6.05649 28.825 6.7143L32.7928 11.7679C32.853 11.7644 32.9145 11.7644 32.9752 11.7644L32.9752 11.7644ZM36.1353 11.7644H39.9351L43.3746 3.61761C43.3921 3.56708 43.4137 3.51786 43.4387 3.47128C43.6215 3.14609 43.4172 2.8565 42.9887 2.61832C41.9178 2.01497 39.9421 1.71132 37.9427 1.71132C35.9433 1.71132 33.9714 2.01102 32.8992 2.6148C32.4747 2.8543 32.2668 3.14389 32.4532 3.46776H32.4492C32.4606 3.4928 32.4743 3.51829 32.4844 3.54334L36.1353 11.7644ZM41.79 11.7644H43.797C43.8611 11.7644 43.9218 11.7644 43.982 11.7684L47.9357 6.7284C48.0214 6.58206 48.0754 6.44979 48.0996 6.3351C48.1286 6.17778 48.0996 6.03145 48.0214 5.90313C47.9067 5.71813 47.7076 5.53532 47.4391 5.35998C47.4215 5.34988 47.404 5.33845 47.3851 5.32834C46.7852 4.95307 45.9249 4.64677 44.8952 4.40332L41.79 11.7644ZM43.797 13.4791H32.9753C30.351 13.4791 30.351 15.8895 32.9753 15.8895H43.797C46.4253 15.8895 46.4253 13.4791 43.797 13.4791Z" fill="#C9EAF1"/>
</svg>
