<svg width="24" height="23" viewBox="0 0 24 23" fill="none" xmlns="http://www.w3.org/2000/svg">
<path d="M23.4843 11.4887C23.4843 12.464 22.6942 13.2535 21.72 13.2535H13.7807V21.1928C13.7807 22.1681 12.9906 22.9565 12.0164 22.9565C11.0422 22.9565 10.2521 22.1681 10.2521 21.1928V13.2535H2.3128C1.33858 13.2535 0.548508 12.464 0.548508 11.4887C0.548508 10.5133 1.33858 9.72491 2.3128 9.72491H10.2521V1.7856C10.2521 0.810273 11.0422 0.020752 12.0164 0.020752C12.9906 0.020752 13.7807 0.810273 13.7807 1.7856V9.72491H21.72C22.6959 9.72436 23.4843 10.5128 23.4843 11.4887Z" fill="#46B2C8"/>
</svg>
