<svg width="65" height="65" viewBox="0 0 65 65" fill="none" xmlns="http://www.w3.org/2000/svg">
<g clip-path="url(#clip0_506_8976)">
<path d="M32.5 0C14.5796 0 0 14.5796 0 32.5C0 50.4191 14.5796 65 32.5 65C50.4191 65 65 50.4191 65 32.5C65 14.5796 50.4217 0 32.5 0ZM40.5824 33.6442H35.2949V52.4901H27.4599C27.4599 52.4901 27.4599 42.1927 27.4599 33.6442H23.7355V26.9834H27.4599V22.6751C27.4599 19.5895 28.9261 14.7681 35.367 14.7681L41.1729 14.7903V21.256C41.1729 21.256 37.6448 21.256 36.9588 21.256C36.2729 21.256 35.2976 21.599 35.2976 23.0705V26.9847H41.2671L40.5824 33.6442Z" fill="#46B2C8"/>
</g>
<defs>
<clipPath id="clip0_506_8976">
<rect width="65" height="65" fill="white"/>
</clipPath>
</defs>
</svg>
