<svg width="45" height="46" viewBox="0 0 45 46" fill="none" xmlns="http://www.w3.org/2000/svg">
<g clip-path="url(#clip0_615_2685)">
<path d="M22.5 0.0275879C10.0936 0.0275879 0 10.1211 0 22.5276C0 34.9331 10.0936 45.0276 22.5 45.0276C34.9055 45.0276 45 34.9331 45 22.5276C45 10.1211 34.9074 0.0275879 22.5 0.0275879ZM28.0955 23.3197H24.435V36.3669H19.0107C19.0107 36.3669 19.0107 29.2379 19.0107 23.3197H16.4323V18.7084H19.0107V15.7257C19.0107 13.5896 20.0258 10.2516 24.4848 10.2516L28.5043 10.2671V14.7433C28.5043 14.7433 26.0618 14.7433 25.5869 14.7433C25.112 14.7433 24.4368 14.9808 24.4368 15.9994V18.7093H28.5695L28.0955 23.3197Z" fill="white"/>
</g>
<defs>
<clipPath id="clip0_615_2685">
<rect width="45" height="45" fill="white" transform="translate(0 0.0275879)"/>
</clipPath>
</defs>
</svg>
