<svg width="45" height="45" viewBox="0 0 45 45" fill="none" xmlns="http://www.w3.org/2000/svg">
<path fill-rule="evenodd" clip-rule="evenodd" d="M22.5 7.03125C13.9568 7.03125 7.03125 13.9568 7.03125 22.5C7.03125 31.0432 13.9568 37.9688 22.5 37.9688C31.0432 37.9688 37.9688 31.0432 37.9688 22.5C37.9688 13.9568 31.0432 7.03125 22.5 7.03125ZM4.21875 22.5C4.21875 12.4035 12.4035 4.21875 22.5 4.21875C32.5965 4.21875 40.7812 12.4035 40.7812 22.5C40.7812 32.5965 32.5965 40.7812 22.5 40.7812C12.4035 40.7812 4.21875 32.5965 4.21875 22.5Z" fill="#115766"/>
<path fill-rule="evenodd" clip-rule="evenodd" d="M26.7215 14.0625H29.5312C30.3079 14.0625 30.9375 14.6921 30.9375 15.4688C30.9375 16.2454 30.3079 16.875 29.5312 16.875H26.7129C26.3439 16.8735 25.9782 16.945 25.637 17.0855C25.2958 17.226 24.9858 17.4327 24.7248 17.6936C24.4639 17.9545 24.2572 18.2645 24.1167 18.6057C23.9762 18.9469 23.9047 19.3126 23.9062 19.6816L23.9063 19.6875L23.9062 39.375C23.9062 40.1516 23.2767 40.7812 22.5 40.7812C21.7233 40.7812 21.0938 40.1516 21.0938 39.375V19.6902" fill="#115766"/>
<path fill-rule="evenodd" clip-rule="evenodd" d="M15.4688 25.3125C15.4688 24.5358 16.0983 23.9062 16.875 23.9062H28.125C28.9017 23.9062 29.5312 24.5358 29.5312 25.3125C29.5312 26.0892 28.9017 26.7188 28.125 26.7188H16.875C16.0983 26.7188 15.4688 26.0892 15.4688 25.3125Z" fill="#115766"/>
</svg>
