<svg width="19" height="19" viewBox="0 0 19 19" fill="none" xmlns="http://www.w3.org/2000/svg">
<g clip-path="url(#clip0)">
<path d="M19 9.5C19 4.25273 14.7473 0 9.5 0C4.25273 0 0 4.25273 0 9.5C0 14.2426 3.47344 18.1725 8.01562 18.885V12.2461H5.60352V9.5H8.01562V7.40703C8.01562 5.02647 9.4332 3.71094 11.6041 3.71094C12.6432 3.71094 13.7305 3.89648 13.7305 3.89648V6.23438H12.5318C11.3518 6.23438 10.9844 6.96729 10.9844 7.71875V9.5H13.6191L13.1979 12.2461H10.9844V18.885C15.5266 18.1725 19 14.2426 19 9.5Z" fill="#0B4B58"/>
</g>
<defs>
<clipPath id="clip0">
<rect width="19" height="18.885" fill="white"/>
</clipPath>
</defs>
</svg>
