<svg width="45" height="45" viewBox="0 0 45 45" fill="none" xmlns="http://www.w3.org/2000/svg">
<path fill-rule="evenodd" clip-rule="evenodd" d="M22.5 16.875C19.3934 16.875 16.875 19.3934 16.875 22.5C16.875 25.6066 19.3934 28.125 22.5 28.125C25.6066 28.125 28.125 25.6066 28.125 22.5C28.125 19.3934 25.6066 16.875 22.5 16.875ZM14.0625 22.5C14.0625 17.8401 17.8401 14.0625 22.5 14.0625C27.1599 14.0625 30.9375 17.8401 30.9375 22.5C30.9375 27.1599 27.1599 30.9375 22.5 30.9375C17.8401 30.9375 14.0625 27.1599 14.0625 22.5Z" fill="#115766"/>
<path fill-rule="evenodd" clip-rule="evenodd" d="M14.7656 7.73438C10.8824 7.73438 7.73438 10.8824 7.73438 14.7656V30.2344C7.73438 34.1176 10.8824 37.2656 14.7656 37.2656H30.2344C34.1176 37.2656 37.2656 34.1176 37.2656 30.2344V14.7656C37.2656 10.8824 34.1176 7.73438 30.2344 7.73438H14.7656ZM4.92188 14.7656C4.92188 9.32907 9.32907 4.92188 14.7656 4.92188H30.2344C35.6709 4.92188 40.0781 9.32907 40.0781 14.7656V30.2344C40.0781 35.6709 35.6709 40.0781 30.2344 40.0781H14.7656C9.32907 40.0781 4.92188 35.6709 4.92188 30.2344V14.7656Z" fill="#115766"/>
<path d="M31.6406 15.4688C32.8056 15.4688 33.75 14.5244 33.75 13.3594C33.75 12.1944 32.8056 11.25 31.6406 11.25C30.4756 11.25 29.5312 12.1944 29.5312 13.3594C29.5312 14.5244 30.4756 15.4688 31.6406 15.4688Z" fill="#115766"/>
</svg>
