<svg width="45" height="46" viewBox="0 0 45 46" fill="none" xmlns="http://www.w3.org/2000/svg">
<path fill-rule="evenodd" clip-rule="evenodd" d="M22.5 17.6072C25.5428 17.6072 28.0094 20.0357 28.0094 23.0313C28.0094 26.0264 25.5428 28.4549 22.5 28.4549C19.4572 28.4549 16.9906 26.0264 16.9906 23.0313C16.9906 20.0357 19.4573 17.6072 22.5 17.6072ZM22.5 15.4382C18.2402 15.4382 14.7869 18.8376 14.7869 23.0313C14.7869 27.2244 18.2402 30.6244 22.5 30.6244C26.7598 30.6244 30.2131 27.2244 30.2131 23.0313C30.2131 18.8376 26.7599 15.4382 22.5 15.4382ZM30.4513 13.6129C30.0236 13.6196 29.6075 13.7526 29.2552 13.995C28.9029 14.2375 28.63 14.5787 28.471 14.9757C28.312 15.3728 28.2739 15.808 28.3614 16.2266C28.4489 16.6452 28.6583 17.0287 28.963 17.3287C29.2678 17.6288 29.6545 17.8321 30.0745 17.913C30.4944 17.994 30.929 17.9491 31.3235 17.7839C31.718 17.6186 32.0548 17.3405 32.2918 16.9844C32.5287 16.6283 32.6551 16.2102 32.6551 15.7825C32.6505 15.2026 32.4157 14.6482 32.0025 14.2414C31.5892 13.8345 31.0312 13.6085 30.4513 13.6129ZM17.116 11.2517H27.884C31.387 11.2517 34.2268 14.0473 34.2268 17.4954V28.5666C34.2268 32.0153 31.387 34.8103 27.884 34.8103H17.116C13.613 34.8103 10.7732 32.0153 10.7732 28.5666V17.4954C10.7732 14.0473 13.613 11.2517 17.116 11.2517ZM16.1005 9.09241C11.9367 9.09241 8.56122 12.4156 8.56122 16.5143V29.5478C8.56122 33.6471 11.9366 36.9696 16.1005 36.9696H28.8996C33.0633 36.9696 36.4387 33.6471 36.4387 29.5478V16.5143C36.4387 12.4155 33.0633 9.09241 28.8996 9.09241H16.1005ZM22.5 1.25179C34.5284 1.25179 44.2793 11.0024 44.2793 23.0313C44.2793 35.0596 34.5284 44.8103 22.5 44.8103C10.4716 44.8103 0.720703 35.0596 0.720703 23.0313C0.720703 11.0024 10.4716 1.25179 22.5 1.25179Z" fill="white"/>
</svg>
