<svg width="45" height="45" viewBox="0 0 45 45" fill="none" xmlns="http://www.w3.org/2000/svg">
<path fill-rule="evenodd" clip-rule="evenodd" d="M4.92188 7.73438C4.92188 6.18107 6.18107 4.92188 7.73438 4.92188H37.2656C38.8189 4.92188 40.0781 6.18107 40.0781 7.73438V37.2656C40.0781 38.8189 38.8189 40.0781 37.2656 40.0781H7.73438C6.18107 40.0781 4.92188 38.8189 4.92188 37.2656V7.73438ZM37.2656 7.73438H7.73438V37.2656H37.2656V7.73438Z" fill="#115766"/>
<path fill-rule="evenodd" clip-rule="evenodd" d="M21.0938 18.2812C21.8704 18.2812 22.5 18.9108 22.5 19.6875V30.9375C22.5 31.7142 21.8704 32.3438 21.0938 32.3438C20.3171 32.3438 19.6875 31.7142 19.6875 30.9375V19.6875C19.6875 18.9108 20.3171 18.2812 21.0938 18.2812Z" fill="#115766"/>
<path fill-rule="evenodd" clip-rule="evenodd" d="M15.4688 18.2812C16.2454 18.2812 16.875 18.9108 16.875 19.6875V30.9375C16.875 31.7142 16.2454 32.3438 15.4688 32.3438C14.6921 32.3438 14.0625 31.7142 14.0625 30.9375V19.6875C14.0625 18.9108 14.6921 18.2812 15.4688 18.2812Z" fill="#115766"/>
<path fill-rule="evenodd" clip-rule="evenodd" d="M26.0156 21.0938C25.0832 21.0938 24.189 21.4641 23.5297 22.1235C22.8704 22.7828 22.5 23.677 22.5 24.6094C22.5 25.386 21.8704 26.0156 21.0938 26.0156C20.3171 26.0156 19.6875 25.386 19.6875 24.6094C19.6875 22.9311 20.3542 21.3215 21.541 20.1347C22.7277 18.948 24.3373 18.2812 26.0156 18.2812C27.6939 18.2812 29.3035 18.948 30.4903 20.1347C31.677 21.3215 32.3438 22.9311 32.3438 24.6094V30.9375C32.3438 31.7142 31.7142 32.3438 30.9375 32.3438C30.1608 32.3438 29.5312 31.7142 29.5312 30.9375V24.6094C29.5312 23.677 29.1609 22.7828 28.5015 22.1235C27.8422 21.4641 26.948 21.0938 26.0156 21.0938Z" fill="#115766"/>
<path d="M15.4688 16.1719C16.6337 16.1719 17.5781 15.2275 17.5781 14.0625C17.5781 12.8975 16.6337 11.9531 15.4688 11.9531C14.3038 11.9531 13.3594 12.8975 13.3594 14.0625C13.3594 15.2275 14.3038 16.1719 15.4688 16.1719Z" fill="#115766"/>
</svg>
