<svg width="65" height="65" viewBox="0 0 65 65" fill="none" xmlns="http://www.w3.org/2000/svg">
<g clip-path="url(#clip0_506_8970)">
<path d="M32.5 0C14.5535 0 0 14.5535 0 32.5C0 50.4465 14.5535 65 32.5 65C50.4465 65 65 50.4465 65 32.5C65 14.5535 50.4465 0 32.5 0ZM23.0559 49.1309H15.1406V25.3177H23.0559V49.1309ZM19.0985 22.066H19.0469C16.3908 22.066 14.673 20.2376 14.673 17.9525C14.673 15.6157 16.4434 13.8379 19.1511 13.8379C21.8587 13.8379 23.525 15.6157 23.5766 17.9525C23.5766 20.2376 21.8587 22.066 19.0985 22.066ZM51.5965 49.1309H43.6823V36.3914C43.6823 33.1898 42.5362 31.0063 39.6724 31.0063C37.4859 31.0063 36.1836 32.4792 35.6113 33.9009C35.4021 34.4098 35.351 35.1209 35.351 35.8325V49.1309H27.4363C27.4363 49.1309 27.5399 27.5518 27.4363 25.3177H35.351V28.6894C36.4028 27.0668 38.2848 24.7588 42.4842 24.7588C47.6917 24.7588 51.5965 28.1623 51.5965 35.4765V49.1309Z" fill="#46B2C8"/>
</g>
<defs>
<clipPath id="clip0_506_8970">
<rect width="65" height="65" fill="white"/>
</clipPath>
</defs>
</svg>
