<svg width="20" height="20" viewBox="0 0 20 20" fill="none" xmlns="http://www.w3.org/2000/svg">
<path fill-rule="evenodd" clip-rule="evenodd" d="M1.68384 0.0596954C1.02702 0.15273 0.481663 0.61447 0.275065 1.25255L0.201904 1.47849V9.54335V17.6082L0.275065 17.8341C0.448592 18.3701 0.845502 18.7709 1.38745 18.9574L1.63704 19.0433H9.7019H17.7668L18.0164 18.9574C18.5583 18.7709 18.9552 18.3701 19.1287 17.8341L19.2019 17.6082V9.54335V1.47849L19.1287 1.25255C18.9574 0.723323 18.5727 0.330375 18.0288 0.128863L17.798 0.0433473L9.8267 0.039385C5.4425 0.0372011 1.77822 0.0463423 1.68384 0.0596954ZM5.0845 2.19762C5.39611 2.29068 5.67899 2.46243 5.92933 2.71049C6.19124 2.9701 6.32752 3.18649 6.44317 3.52652C6.84766 4.71572 6.00246 6.03306 4.74743 6.16952C4.08037 6.24206 3.47471 6.01393 3.0144 5.51675C2.65038 5.12355 2.4878 4.70683 2.48574 4.16157C2.48356 3.57919 2.66382 3.13804 3.07218 2.72647C3.39827 2.39782 3.76776 2.20414 4.19534 2.13768C4.37298 2.1101 4.91341 2.14651 5.0845 2.19762ZM14.1685 6.89174C15.1665 7.00611 15.9363 7.44552 16.4419 8.18951C16.709 8.58236 16.949 9.18197 17.0485 9.70449C17.2058 10.5313 17.199 10.3698 17.2124 13.5945L17.2249 16.6317L17.1477 16.7485C17.002 16.9686 17.0021 16.9686 15.6141 16.9686C14.2309 16.9686 14.229 16.9684 14.0834 16.7541L14.0073 16.6422L14.0065 14.1301C14.0061 12.7485 13.9922 11.4789 13.9756 11.3087C13.919 10.7263 13.6926 10.1786 13.4078 9.9348C13.1526 9.71637 12.742 9.57632 12.3532 9.57508C12.1249 9.57436 11.7542 9.67884 11.5468 9.80242C11.2091 10.0035 10.9358 10.4032 10.7852 10.9161C10.7424 11.0619 10.696 11.2164 10.6821 11.2593C10.6682 11.3022 10.649 12.5331 10.6395 13.9947C10.6225 16.6164 10.6214 16.6533 10.5579 16.7383C10.5226 16.7856 10.4549 16.8533 10.4075 16.8887C10.3244 16.9508 10.2778 16.9533 9.09038 16.9619C7.70091 16.9718 7.70846 16.9729 7.55422 16.7399L7.4712 16.6144V11.9947V7.37504L7.54295 7.2596C7.58245 7.19615 7.66132 7.1154 7.71823 7.08021C7.81797 7.01859 7.86617 7.01625 9.04386 7.01625C10.1843 7.01625 10.2737 7.02022 10.3817 7.07569C10.5821 7.17858 10.6201 7.28263 10.6379 7.77859L10.6535 8.21335L10.7434 8.0772C10.8685 7.88785 11.2309 7.53718 11.4391 7.40393C11.8432 7.14545 12.3939 6.95582 12.9156 6.89542C13.2465 6.85711 13.8507 6.85533 14.1685 6.89174ZM5.85249 7.09618C5.89985 7.13156 5.96755 7.19927 6.00293 7.24666C6.06723 7.33276 6.06726 7.33495 6.06726 11.9894V16.6459L5.97734 16.7638C5.82194 16.9675 5.81352 16.9687 4.50052 16.9681C3.33834 16.9676 3.32006 16.9666 3.19991 16.8979C3.1329 16.8596 3.04866 16.7886 3.01272 16.7402L2.94739 16.6521L2.93844 12.076C2.93354 9.5591 2.93759 7.45463 2.94748 7.39934C2.96982 7.27452 3.10076 7.11512 3.22662 7.05959C3.30202 7.0263 3.57542 7.01906 4.54408 7.02474C5.72413 7.0316 5.76934 7.03407 5.85249 7.09618Z" fill="#0B4B58"/>
</svg>
