<svg width="45" height="46" viewBox="0 0 45 46" fill="none" xmlns="http://www.w3.org/2000/svg">
<g clip-path="url(#clip0_615_2693)">
<path d="M22.5 0.0275879C10.0755 0.0275879 0 10.1031 0 22.5276C0 34.9521 10.0755 45.0276 22.5 45.0276C34.9245 45.0276 45 34.9521 45 22.5276C45 10.1031 34.9245 0.0275879 22.5 0.0275879ZM15.9618 34.0413H10.482V17.5552H15.9618V34.0413ZM13.222 15.3041H13.1863C11.3475 15.3041 10.1582 14.0382 10.1582 12.4562C10.1582 10.8385 11.3839 9.60767 13.2584 9.60767C15.133 9.60767 16.2865 10.8385 16.3223 12.4562C16.3223 14.0382 15.133 15.3041 13.222 15.3041ZM35.7207 34.0413H30.2416V25.2216C30.2416 23.0051 29.4482 21.4935 27.4655 21.4935C25.9518 21.4935 25.0502 22.5132 24.654 23.4975C24.5091 23.8497 24.4738 24.342 24.4738 24.8347V34.0413H18.9943C18.9943 34.0413 19.0661 19.1019 18.9943 17.5552H24.4738V19.8895C25.202 18.7661 26.5049 17.1683 29.4121 17.1683C33.0173 17.1683 35.7207 19.5245 35.7207 24.5882V34.0413Z" fill="white"/>
</g>
<defs>
<clipPath id="clip0_615_2693">
<rect width="45" height="45" fill="white" transform="translate(0 0.0275879)"/>
</clipPath>
</defs>
</svg>
