<svg width="45" height="46" viewBox="0 0 45 46" fill="none" xmlns="http://www.w3.org/2000/svg">
<g clip-path="url(#clip0_615_2689)">
<path d="M22.5 0.0275879C18.0499 0.0275879 13.6998 1.34719 9.99968 3.81952C6.29957 6.29185 3.41569 9.80587 1.71272 13.9172C0.00974884 18.0285 -0.435826 22.5525 0.432341 26.9171C1.30051 31.2817 3.44343 35.2908 6.59011 38.4375C9.73679 41.5842 13.7459 43.7271 18.1105 44.5953C22.475 45.4634 26.999 45.0178 31.1104 43.3149C35.2217 41.6119 38.7357 38.728 41.2081 35.0279C43.6804 31.3278 45 26.9777 45 22.5276C45 16.5602 42.6295 10.8373 38.4099 6.61769C34.1903 2.39812 28.4674 0.0275879 22.5 0.0275879V0.0275879ZM33.7056 15.7184C33.1738 16.5173 32.524 17.231 31.7783 17.8352C31.6843 17.9135 31.6089 18.0118 31.5577 18.1229C31.5065 18.2341 31.4807 18.3552 31.4822 18.4776V18.5516C31.4736 20.156 31.1788 21.7461 30.6119 23.247C30.0276 24.8223 29.1597 26.2773 28.051 27.5398C26.5611 29.2359 24.6445 30.5024 22.5 31.2079C21.0909 31.6652 19.6177 31.8941 18.1362 31.8858C15.7859 31.8855 13.4776 31.2635 11.4454 30.0828C11.3726 30.0414 11.3153 29.9774 11.2821 29.9005C11.249 29.8235 11.2419 29.7379 11.2619 29.6565C11.2823 29.5765 11.329 29.5056 11.3945 29.4552C11.46 29.4047 11.5404 29.3776 11.623 29.3782H12.1855C13.9714 29.3814 15.7176 28.8515 17.2007 27.8565C16.3172 27.7123 15.4906 27.3273 14.8116 26.7439C14.1326 26.1605 13.6276 25.4013 13.352 24.5496C13.3379 24.507 13.3353 24.4614 13.3446 24.4174C13.3538 24.3734 13.3745 24.3327 13.4046 24.2993C13.4346 24.266 13.473 24.2411 13.5158 24.2274C13.5585 24.2136 13.6042 24.2114 13.648 24.221C13.9175 24.2717 14.191 24.2975 14.4651 24.298H14.5688C13.7146 23.906 12.9925 23.2748 12.4896 22.4809C11.9868 21.687 11.7249 20.7643 11.7355 19.8246C11.7358 19.7807 11.7475 19.7375 11.7695 19.6994C11.7914 19.6613 11.8228 19.6295 11.8607 19.6072C11.8985 19.5848 11.9415 19.5726 11.9855 19.5718C12.0295 19.571 12.0729 19.5816 12.1115 19.6026C12.4588 19.7965 12.8315 19.941 13.2188 20.0319C12.454 19.2748 11.9621 18.2853 11.8201 17.2186C11.6781 16.1519 11.8941 15.0682 12.4342 14.1375C12.4549 14.1019 12.484 14.0719 12.5188 14.05C12.5537 14.0281 12.5934 14.015 12.6344 14.0118C12.6754 14.0086 12.7166 14.0154 12.7545 14.0316C12.7923 14.0478 12.8257 14.073 12.8517 14.1049C13.922 15.4274 15.2466 16.522 16.7472 17.3239C18.2477 18.1258 19.8938 18.6187 21.5882 18.7736H21.6119C21.6368 18.7729 21.6612 18.7671 21.6838 18.7566C21.7064 18.7462 21.7267 18.7312 21.7433 18.7126C21.7599 18.6941 21.7726 18.6723 21.7805 18.6487C21.7884 18.6251 21.7915 18.6001 21.7895 18.5753C21.7236 17.9811 21.7616 17.3801 21.902 16.799C22.093 16.0091 22.4851 15.2822 23.0402 14.6887C23.5953 14.0952 24.2944 13.6555 25.0697 13.4121C25.5672 13.2567 26.0851 13.1769 26.6063 13.1753C27.7879 13.1739 28.9293 13.6046 29.8155 14.3861C29.9303 14.4889 30.0789 14.5458 30.2329 14.546C30.2829 14.5449 30.3326 14.538 30.3809 14.5253C31.2131 14.3146 32.0107 13.9856 32.7494 13.5483C32.7935 13.5211 32.845 13.5081 32.8968 13.5113C32.9486 13.5145 32.9981 13.5336 33.0387 13.566C33.0792 13.5984 33.1087 13.6425 33.1231 13.6924C33.1376 13.7422 33.1363 13.7953 33.1194 13.8444C32.8731 14.6194 32.434 15.3192 31.8434 15.8782C32.3759 15.7527 32.8953 15.5773 33.3947 15.3542C33.4437 15.3358 33.4972 15.333 33.5478 15.3461C33.5985 15.3591 33.6439 15.3875 33.6779 15.4273C33.7119 15.4671 33.7327 15.5164 33.7377 15.5685C33.7427 15.6205 33.7314 15.6729 33.7056 15.7184Z" fill="white"/>
</g>
<defs>
<clipPath id="clip0_615_2689">
<rect width="45" height="45" fill="white" transform="translate(0 0.0275879)"/>
</clipPath>
</defs>
</svg>
