<svg width="45" height="45" viewBox="0 0 45 45" fill="none" xmlns="http://www.w3.org/2000/svg">
<path fill-rule="evenodd" clip-rule="evenodd" d="M29.6002 9.84426C26.5194 9.80225 23.9065 12.3841 23.9065 15.4694V18.2819C23.9065 18.6953 23.7246 19.0877 23.4092 19.3549C23.0938 19.6221 22.6768 19.737 22.2691 19.669C17.762 18.9178 13.6973 16.683 10.8052 14.6946C9.73526 13.9591 8.81282 13.2482 8.0729 12.6422C7.56825 18.5775 9.35302 22.6779 11.3277 25.3579C12.4632 26.8989 13.6796 27.993 14.6067 28.6984C15.0694 29.0505 15.4573 29.3036 15.7226 29.4652C15.8552 29.546 15.9568 29.6036 16.0215 29.6392C16.0538 29.657 16.0768 29.6693 16.0898 29.6761L16.1004 29.6816L16.0993 29.681C16.4593 29.8616 16.7248 30.1878 16.8282 30.5772C16.9317 30.967 16.8628 31.3826 16.6391 31.7182C15.0675 34.0755 12.7579 35.7868 10.9191 36.8901C10.5907 37.0871 10.2739 37.2668 9.9748 37.4291C10.8763 37.7209 12.1924 37.9694 14.0628 37.9694H14.0635C19.4211 37.972 24.5786 35.9342 28.4875 32.2702C32.3964 28.6062 34.7632 23.5911 35.1067 18.2445C35.1286 17.9034 35.274 17.5819 35.5157 17.3403L38.7928 14.0631H35.9827C35.4235 14.0631 34.9174 13.7318 34.6938 13.2193C34.2605 12.2262 33.5495 11.3794 32.6465 10.7807C31.7434 10.182 30.6866 9.85681 29.6032 9.8443L29.6002 9.84426ZM7.03152 37.2663C5.86145 38.0463 5.86216 38.0474 5.86287 38.0484L5.86434 38.0506L5.86738 38.0551L5.87393 38.0647L5.88892 38.0862C5.89976 38.1015 5.91232 38.1187 5.92669 38.1377C5.95542 38.1757 5.99136 38.2209 6.03523 38.2721C6.12304 38.3745 6.24222 38.5005 6.39841 38.6411C6.71179 38.9232 7.16819 39.2584 7.80888 39.5787C9.09288 40.2207 11.0733 40.7818 14.0621 40.7819M6.53775 35.9496C6.5374 35.9497 6.53704 35.9498 6.53668 35.95C6.13538 36.1008 5.82479 36.4265 5.69317 36.8346C5.56143 37.243 5.6234 37.6892 5.86145 38.0463L7.03152 37.2663M6.53775 35.9496L6.54363 35.9473L6.58052 35.9329C6.6151 35.9193 6.66928 35.8977 6.74103 35.868C6.8846 35.8086 7.09801 35.7172 7.36507 35.5939C7.90028 35.3469 8.64504 34.9746 9.47207 34.4784C10.7864 33.6898 12.2434 32.6268 13.4096 31.3076C13.7419 31.5421 14.0305 31.7277 14.2596 31.8672C14.4292 31.9705 14.5665 32.0488 14.6653 32.1032C14.7147 32.1303 14.7545 32.1516 14.7839 32.167L14.8201 32.1858L14.8322 32.1919L14.8367 32.1942L14.8385 32.1951M7.03152 9.84439C8.02589 8.85002 8.02567 8.84981 8.02548 8.84962L8.02709 8.85121L8.03836 8.86234L8.09059 8.91327C8.13844 8.95959 8.21207 9.03007 8.31012 9.12167C8.50627 9.30491 8.79974 9.57229 9.1796 9.89939C9.94019 10.5543 11.0423 11.4446 12.3985 12.377C14.7478 13.9921 17.7895 15.685 21.094 16.5444V15.4694C21.094 10.8208 24.9842 6.96938 29.6371 7.032C31.2618 7.05104 32.8464 7.53876 34.2006 8.43657C35.2915 9.15983 36.1955 10.1244 36.8456 11.2506H42.1878C42.7565 11.2506 43.2693 11.5933 43.487 12.1187C43.7046 12.6442 43.5843 13.2491 43.1821 13.6513L37.8729 18.9605C37.3642 24.8192 34.7107 30.2918 30.411 34.3222C25.9806 38.475 20.1351 40.7847 14.0628 40.7819M7.03152 9.84439L8.02589 8.85002C8.02567 8.8498 8.02545 8.84958 8.02523 8.84937C7.65539 8.48001 7.11118 8.34624 6.61222 8.50211C6.11297 8.65806 5.74152 9.07822 5.64795 9.59283C4.16822 17.7314 6.38706 23.394 9.06347 27.0262C10.3889 28.825 11.8092 30.104 12.9036 30.9367C13.0811 31.0717 13.2504 31.1953 13.4096 31.3076" fill="#115766"/>
</svg>
