<svg width="65" height="65" viewBox="0 0 65 65" fill="none" xmlns="http://www.w3.org/2000/svg">
<g clip-path="url(#clip0_506_8972)">
<path d="M32.5 0C26.0721 0 19.7886 1.90609 14.444 5.47724C9.09938 9.04838 4.93378 14.1242 2.47393 20.0628C0.0140817 26.0014 -0.629527 32.5361 0.624493 38.8404C1.87851 45.1448 4.97384 50.9358 9.51904 55.481C14.0643 60.0262 19.8552 63.1215 26.1596 64.3755C32.464 65.6295 38.9986 64.9859 44.9372 62.5261C50.8758 60.0662 55.9516 55.9006 59.5228 50.556C63.0939 45.2114 65 38.9279 65 32.5C65 23.8805 61.5759 15.614 55.481 9.51903C49.3861 3.4241 41.1195 0 32.5 0V0ZM48.6859 22.6645C47.9177 23.8184 46.9791 24.8493 45.902 25.722C45.7662 25.8352 45.6574 25.9772 45.5834 26.1377C45.5094 26.2983 45.4722 26.4733 45.4744 26.65V26.7569C45.4618 29.0744 45.0361 31.3711 44.2171 33.5391C43.3733 35.8146 42.1196 37.9162 40.5181 39.7398C38.3661 42.1897 35.5976 44.0191 32.5 45.0382C30.4646 45.6988 28.3366 46.0294 26.1967 46.0174C22.8019 46.017 19.4676 45.1185 16.5323 43.4132C16.4271 43.3534 16.3443 43.2609 16.2964 43.1497C16.2486 43.0386 16.2383 42.9149 16.2671 42.7974C16.2967 42.6817 16.3642 42.5793 16.4587 42.5065C16.5533 42.4336 16.6695 42.3945 16.7888 42.3954H17.6013C20.181 42.3999 22.7032 41.6346 24.8454 40.1974C23.5693 39.989 22.3753 39.4329 21.3945 38.5903C20.4138 37.7476 19.6843 36.6509 19.2862 35.4207C19.2658 35.3591 19.2622 35.2932 19.2755 35.2297C19.2888 35.1662 19.3187 35.1074 19.3622 35.0592C19.4056 35.011 19.461 34.9751 19.5228 34.9553C19.5845 34.9354 19.6504 34.9322 19.7138 34.9461C20.103 35.0193 20.4981 35.0565 20.8941 35.0572H21.0438C19.81 34.491 18.7669 33.5794 18.0406 32.4326C17.3143 31.2858 16.9359 29.9531 16.9513 28.5957C16.9518 28.5322 16.9687 28.4699 17.0003 28.4149C17.032 28.3598 17.0774 28.3139 17.1321 28.2816C17.1868 28.2493 17.2489 28.2317 17.3124 28.2306C17.3759 28.2294 17.4386 28.2447 17.4944 28.275C17.9961 28.5551 18.5344 28.7638 19.0938 28.8951C17.9891 27.8015 17.2786 26.3723 17.0735 24.8315C16.8684 23.2907 17.1804 21.7254 17.9605 20.3809C17.9905 20.3295 18.0324 20.2862 18.0828 20.2546C18.1331 20.223 18.1904 20.204 18.2497 20.1994C18.309 20.1948 18.3685 20.2046 18.4231 20.228C18.4778 20.2514 18.526 20.2878 18.5635 20.3339C20.1096 22.2442 22.0229 23.8252 24.1904 24.9835C26.3579 26.1418 28.7355 26.8539 31.1829 27.0776H31.2171C31.2531 27.0766 31.2885 27.0682 31.3211 27.0531C31.3537 27.0379 31.3829 27.0163 31.4069 26.9895C31.431 26.9627 31.4492 26.9313 31.4607 26.8972C31.4722 26.8631 31.4766 26.827 31.4737 26.7911C31.3785 25.9329 31.4335 25.0647 31.6362 24.2253C31.9121 23.0845 32.4785 22.0344 33.2803 21.1772C34.082 20.3199 35.092 19.6847 36.2119 19.3332C36.9304 19.1088 37.6785 18.9935 38.4313 18.9911C40.1381 18.9892 41.7867 19.6112 43.0668 20.7401C43.2326 20.8885 43.4472 20.9707 43.6698 20.9711C43.742 20.9695 43.8137 20.9595 43.8836 20.9411C45.0856 20.6368 46.2377 20.1616 47.3046 19.5299C47.3684 19.4906 47.4428 19.4719 47.5176 19.4765C47.5924 19.4811 47.664 19.5086 47.7225 19.5555C47.781 19.6023 47.8237 19.6661 47.8445 19.738C47.8654 19.81 47.8635 19.8867 47.8392 19.9576C47.4833 21.077 46.8491 22.0879 45.9961 22.8954C46.7651 22.7141 47.5154 22.4607 48.2369 22.1385C48.3076 22.1119 48.3848 22.1078 48.458 22.1267C48.5312 22.1456 48.5968 22.1865 48.6458 22.244C48.6949 22.3015 48.7251 22.3727 48.7322 22.4479C48.7394 22.5232 48.7232 22.5988 48.6859 22.6645Z" fill="#46B2C8"/>
</g>
<defs>
<clipPath id="clip0_506_8972">
<rect width="65" height="65" fill="white"/>
</clipPath>
</defs>
</svg>
