<svg width="20" height="16" viewBox="0 0 20 16" fill="none" xmlns="http://www.w3.org/2000/svg">
<path fill-rule="evenodd" clip-rule="evenodd" d="M12.7912 0.376543C12.3984 0.450845 11.989 0.591839 11.6428 0.771924C10.5692 1.33049 9.78309 2.41414 9.5942 3.59588C9.54236 3.92046 9.54344 4.57892 9.59637 4.87068C9.61938 4.99769 9.63106 5.10881 9.62229 5.11757C9.59555 5.14432 8.80038 5.05953 8.3404 4.9809C5.84711 4.55468 3.58135 3.30199 1.89938 1.41983C1.7344 1.23519 1.58856 1.07943 1.57535 1.07368C1.54857 1.06201 1.27311 1.64493 1.2091 1.84878C1.03219 2.41208 0.997575 3.23198 1.12593 3.82005C1.22033 4.25251 1.40829 4.71701 1.63873 5.08728C1.80919 5.36122 2.40017 5.99965 2.63979 6.16884L2.75169 6.24784L2.61591 6.249C2.29163 6.25183 1.56629 6.06216 1.21384 5.88234C1.12786 5.83847 1.04592 5.80259 1.03174 5.80259C0.974039 5.80259 1.05502 6.54411 1.14741 6.86191C1.53335 8.18912 2.5402 9.21402 3.82149 9.58392L4.12758 9.67232L3.76069 9.73838C3.47587 9.78963 3.28198 9.79974 2.89402 9.78348C2.31162 9.75905 2.34157 9.71447 2.58813 10.2386C3.01849 11.1537 3.8031 11.8623 4.78119 12.2192C5.10159 12.3361 5.62331 12.442 5.87911 12.442C6.0116 12.442 6.02432 12.4489 5.9768 12.4951C5.82451 12.6432 5.11387 13.0769 4.63064 13.3167C3.4683 13.8935 2.30386 14.1461 0.953188 14.1142C0.579479 14.1053 0.277348 14.1013 0.281787 14.1051C0.286225 14.109 0.424161 14.1914 0.588281 14.2882C1.92609 15.0776 3.40101 15.5716 5.00834 15.7688C5.58993 15.8401 7.15079 15.8293 7.73125 15.7499C10.278 15.4014 12.3287 14.4105 14.0357 12.7038C16.1006 10.6392 17.2843 7.87573 17.3799 4.89661L17.4036 4.15847L17.7055 3.92244C18.0846 3.62613 18.725 2.96517 19.048 2.53693C19.1837 2.35699 19.2887 2.2038 19.2814 2.19645C19.274 2.1891 19.1126 2.24311 18.9227 2.31648C18.5257 2.46979 17.7015 2.68777 17.3733 2.72623C17.1258 2.75528 17.1246 2.75883 17.4395 2.52234C17.7619 2.28012 18.2084 1.78667 18.4108 1.44881C18.5597 1.20028 18.8146 0.655511 18.7943 0.629289C18.7912 0.625297 18.578 0.727574 18.3204 0.856595C18.0629 0.985617 17.7025 1.1456 17.5195 1.2121C17.2324 1.31647 16.4188 1.54944 16.339 1.55015C16.324 1.55027 16.1985 1.44773 16.0601 1.32229C15.601 0.906279 15.0379 0.605603 14.4157 0.44428C13.9529 0.324323 13.2272 0.294035 12.7912 0.376543Z" fill="#0B4B58"/>
</svg>
