<svg width="49" height="130" viewBox="0 0 49 130" fill="none" xmlns="http://www.w3.org/2000/svg">
<path d="M38.286 10H1.71402C0.767394 10 0 10.7674 0 11.714V48.286C0 49.2326 0.767392 50 1.71402 50H28.9004C29.355 50 29.791 49.8194 30.1124 49.498L39.498 40.1124C39.8194 39.791 40 39.355 40 38.9004V11.714C40 10.7674 39.2326 10 38.286 10Z" fill="#E0F1F4"/>
<line x1="12.25" y1="60" x2="12.25" y2="130" stroke="#115766" stroke-width="0.5" stroke-dasharray="2 2 2 2 2 2 2 2"/>
<circle cx="39.5" cy="9.5" r="9.5" fill="#115766"/>
<path d="M37.16 13.08C38.78 13.08 39.88 11.8 39.88 9.5C39.88 7.2 38.78 5.92 37.16 5.92C35.54 5.92 34.43 7.2 34.43 9.5C34.43 11.8 35.54 13.08 37.16 13.08ZM37.16 11.73C36.43 11.73 35.94 11.07 35.94 9.5C35.94 7.93 36.43 7.27 37.16 7.27C37.89 7.27 38.38 7.93 38.38 9.5C38.38 11.07 37.89 11.73 37.16 11.73ZM42.3905 6C42.2505 6.65 41.9005 6.89 40.9805 6.89H40.6105V8.19H42.1005V13H43.5805V6H42.3905Z" fill="white"/>
</svg>
