<svg width="40" height="29" viewBox="0 0 40 29" fill="none" xmlns="http://www.w3.org/2000/svg">
<path d="M37.1429 0H2.85714C1.27919 0 0 1.27919 0 2.85715V25.7143C0 27.2922 1.27919 28.5714 2.85714 28.5714H33.0846C33.8409 28.5714 34.5664 28.2716 35.1019 27.7376L39.1602 23.6915C39.6978 23.1554 40 22.4274 40 21.6681L40 2.85714C40 1.27919 38.7208 0 37.1429 0Z" fill="#115766"/>
<circle cx="10" cy="10.6779" r="4.28571" fill="#C2E2E9"/>
<rect x="17.1429" y="6.65393" width="17.1429" height="1.44023" fill="#C2E2E9"/>
<rect x="17.1429" y="10.928" width="17.1429" height="1.44023" fill="#C2E2E9"/>
<rect x="17.1429" y="15.2019" width="17.1429" height="1.44023" fill="#46B2C8"/>
<rect x="5.71429" y="19.4758" width="28.5714" height="1.44023" fill="#46B2C8"/>
</svg>
